COFF
15 36 15

-2.43833 0.575387 1.72353 0.5 0.5 0.5 1
-2.43833 -0.575387 1.72353 0.5 0.5 0.5 1
-0.00383368 -1.16286 1.71529 0.5 0.5 0.5 1
2.65821 -0.573045 1.72858 0.5 0.5 0.5 1
2.65821 0.573045 1.72858 0.5 0.5 0.5 1
-0.00383368 1.16286 1.71529 0.5 0.5 0.5 1
0.978268 -0.889771 1.71768 0.5 0.5 0.5 1
0.978268 0.889771 1.71768 0.5 0.5 0.5 1
-0.979904 0.888092 1.71664 0.5 0.5 0.5 1
-0.979904 -0.888092 1.71664 0.5 0.5 0.5 1
1.15304 -0.485044 1.31049 0.5 0.5 0.5 1
-1.1062 0.447894 1.31196 0.5 0.5 0.5 1
-1.1062 -0.447894 1.31196 0.5 0.5 0.5 1
1.15304 0.485044 1.31049 0.5 0.5 0.5 1
0.00572873 -1.53423e-17 1.02806 1 1 0 1

3 0 1 12
3 0 12 1
3 0 8 11
3 0 11 8
3 0 11 12
3 0 12 11
3 1 9 12
3 1 12 9
3 2 6 14
3 2 14 6
3 2 9 14
3 2 14 9
3 3 4 13
3 3 13 4
3 3 6 10
3 3 10 6
3 3 10 13
3 3 13 10
3 4 7 13
3 4 13 7
3 5 7 14
3 5 14 7
3 5 8 14
3 5 14 8
3 6 10 14
3 6 14 10
3 7 13 14
3 7 14 13
3 8 11 14
3 8 14 11
3 9 12 14
3 9 14 12
3 10 13 14
3 10 14 13
3 11 12 14
3 11 14 12
