# Generated by dad_to_polygons. Vertex data from Humppa's .off file,
# polygons parsed from .dad file.
COFF
54 164 54
-5.419194 0.748746 3.554648 0.500000 0.500000 0.500000 1.0
-5.419194 -0.748746 3.554648 0.500000 0.500000 0.500000 1.0
-0.026830 -1.661509 3.303575 0.500000 0.500000 0.500000 1.0
6.253511 -0.750988 3.557530 0.500000 0.500000 0.500000 1.0
6.253511 0.750988 3.557530 0.500000 0.500000 0.500000 1.0
-0.026830 1.661509 3.303575 0.500000 0.500000 0.500000 1.0
1.006386 -1.361020 3.431315 0.500000 0.500000 0.500000 1.0
1.006386 1.361020 3.431315 0.500000 0.500000 0.500000 1.0
-1.056245 1.341570 3.403740 0.500000 0.500000 0.500000 1.0
-1.056245 -1.341570 3.403740 0.500000 0.500000 0.500000 1.0
1.937249 -1.057058 3.635570 0.500000 0.500000 0.500000 1.0
1.937249 1.057058 3.635570 0.500000 0.500000 0.500000 1.0
-1.993526 1.061815 3.612577 0.500000 0.500000 0.500000 1.0
-1.993526 -1.061815 3.612577 0.500000 0.500000 0.500000 1.0
3.009692 -0.986049 3.606049 0.500000 0.500000 0.500000 1.0
3.009692 0.986049 3.606049 0.500000 0.500000 0.500000 1.0
-2.989856 0.953019 3.584875 0.500000 0.500000 0.500000 1.0
-2.989856 -0.953019 3.584875 0.500000 0.500000 0.500000 1.0
3.999943 -0.945729 3.741255 0.500000 0.500000 0.500000 1.0
3.999943 0.945729 3.741255 0.500000 0.500000 0.500000 1.0
-3.981718 0.887244 3.675003 0.500000 0.500000 0.500000 1.0
-3.981718 -0.887244 3.675003 0.500000 0.500000 0.500000 1.0
4.997559 -0.849719 3.644848 0.500000 0.500000 0.500000 1.0
4.997559 0.849719 3.644848 0.500000 0.500000 0.500000 1.0
2.061735 -0.978532 2.727502 0.500000 0.500000 0.500000 1.0
1.233744 1.008369 2.013806 0.500000 0.500000 0.500000 1.0
1.233744 -1.008369 2.013806 0.500000 0.500000 0.500000 1.0
-0.946173 1.252019 2.548691 0.500000 0.500000 0.500000 1.0
-0.946173 -1.252019 2.548691 0.500000 0.500000 0.500000 1.0
-1.772189 0.706909 1.753584 0.500000 0.500000 0.500000 1.0
-1.772189 -0.706909 1.753584 0.500000 0.500000 0.500000 1.0
0.829033 -1.210391 2.360596 0.500000 0.500000 0.500000 1.0
0.829033 1.210391 2.360596 0.500000 0.500000 0.500000 1.0
-2.089296 0.956361 2.690363 0.500000 0.500000 0.500000 1.0
-2.089296 -0.956361 2.690363 0.500000 0.500000 0.500000 1.0
-0.040218 -1.328015 2.359251 0.500000 0.500000 0.500000 1.0
-0.040218 1.328015 2.359251 0.500000 0.500000 0.500000 1.0
2.061735 0.978532 2.727502 0.500000 0.500000 0.500000 1.0
3.306609 -0.618621 2.341013 1.0 1.0 0.0 1.0
4.716689 -0.691841 2.825774 0.500000 0.500000 0.500000 1.0
4.716689 0.691841 2.825774 0.500000 0.500000 0.500000 1.0
-0.437495 -0.803681 1.815893 0.500000 0.500000 0.500000 1.0
-0.437495 0.803681 1.815893 0.500000 0.500000 0.500000 1.0
3.306609 0.618621 2.341013 1.0 1.0 0.0 1.0
-3.328204 0.658910 2.528474 1.0 1.0 0.0 1.0
-4.422162 0.693802 2.988757 0.500000 0.500000 0.500000 1.0
-4.422162 -0.693802 2.988757 0.500000 0.500000 0.500000 1.0
-3.328204 -0.658910 2.528474 1.0 1.0 0.0 1.0
-0.030447 -0.000000 1.030606 1.0 1.0 0.0 1.0
4.220239 -0.761739 3.005016 0.500000 0.500000 0.500000 1.0
4.220239 0.761739 3.005016 0.500000 0.500000 0.500000 1.0
-1.001769 0.351461 1.376967 0.500000 0.500000 0.500000 1.0
-1.001769 -0.351461 1.376967 0.500000 0.500000 0.500000 1.0
1.251695 -0.000000 2.007335 0.500000 0.500000 0.500000 1.0
3 1 0 45
3 1 45 0
3 1 45 46
3 1 46 45
3 1 46 47
3 1 47 46
3 1 47 21
3 1 21 47
3 2 28 9
3 2 9 28
3 3 4 40
3 3 40 4
3 3 40 39
3 3 39 40
3 4 40 23
3 4 23 40
3 5 7 32
3 5 32 7
3 5 8 27
3 5 27 8
3 5 36 27
3 5 27 36
3 6 2 31
3 6 31 2
3 6 24 10
3 6 10 24
3 7 32 37
3 7 37 32
3 8 33 27
3 8 27 33
3 9 34 28
3 9 28 34
3 10 24 14
3 10 14 24
3 11 7 37
3 11 37 7
3 11 15 37
3 11 37 15
3 13 17 34
3 13 34 17
3 13 34 9
3 13 9 34
3 14 38 18
3 14 18 38
3 16 33 12
3 16 12 33
3 16 44 33
3 16 33 44
3 17 34 47
3 17 47 34
3 18 49 22
3 18 22 49
3 19 43 15
3 19 15 43
3 19 50 43
3 19 43 50
3 20 0 45
3 20 45 0
3 20 45 44
3 20 44 45
3 22 39 3
3 22 3 39
3 22 39 49
3 22 49 39
3 24 6 31
3 24 31 6
3 24 37 43
3 24 43 37
3 24 37 53
3 24 53 37
3 24 38 14
3 24 14 38
3 24 43 38
3 24 38 43
3 25 48 53
3 25 53 48
3 28 34 41
3 28 41 34
3 28 35 2
3 28 2 35
3 30 29 33
3 30 33 29
3 30 33 34
3 30 34 33
3 30 41 48
3 30 48 41
3 30 48 52
3 30 52 48
3 30 51 29
3 30 29 51
3 30 52 51
3 30 51 52
3 31 24 26
3 31 26 24
3 31 48 26
3 31 26 48
3 31 48 35
3 31 35 48
3 32 25 48
3 32 48 25
3 32 36 48
3 32 48 36
3 33 12 8
3 33 8 12
3 33 42 27
3 33 27 42
3 34 33 44
3 34 44 33
3 34 44 47
3 34 47 44
3 35 31 2
3 35 2 31
3 35 41 28
3 35 28 41
3 35 48 41
3 35 41 48
3 36 32 5
3 36 5 32
3 36 42 27
3 36 27 42
3 37 32 25
3 37 25 32
3 37 53 25
3 37 25 53
3 38 39 40
3 38 40 39
3 38 40 43
3 38 43 40
3 38 49 18
3 38 18 49
3 40 50 23
3 40 23 50
3 41 30 34
3 41 34 30
3 42 33 29
3 42 29 33
3 42 48 51
3 42 51 48
3 42 51 29
3 42 29 51
3 43 15 37
3 43 37 15
3 44 16 20
3 44 20 16
3 44 45 46
3 44 46 45
3 44 46 47
3 44 47 46
3 47 17 21
3 47 21 17
3 48 42 36
3 48 36 42
3 48 52 51
3 48 51 52
3 49 39 38
3 49 38 39
3 50 23 19
3 50 19 23
3 50 40 43
3 50 43 40
3 53 24 26
3 53 26 24
3 53 48 26
3 53 26 48
