# Generated by dad_to_polygons. Vertex data from Humppa's .off file,
# polygons parsed from .dad file.
COFF
88 292 88
-6.386873 0.908553 4.554042 0.500000 0.500000 0.500000 1.0
-6.386873 -0.908553 4.554042 0.500000 0.500000 0.500000 1.0
-0.029446 -1.894878 4.291291 0.500000 0.500000 0.500000 1.0
7.274436 -0.865972 4.628333 0.500000 0.500000 0.500000 1.0
7.274436 0.865972 4.628333 0.500000 0.500000 0.500000 1.0
-0.029446 1.894878 4.291291 0.500000 0.500000 0.500000 1.0
1.060830 -1.591618 4.418106 0.500000 0.500000 0.500000 1.0
1.060830 1.591618 4.418106 0.500000 0.500000 0.500000 1.0
-1.089242 1.571458 4.392334 0.500000 0.500000 0.500000 1.0
-1.089242 -1.571458 4.392334 0.500000 0.500000 0.500000 1.0
1.989577 -1.289987 4.634542 0.500000 0.500000 0.500000 1.0
1.989577 1.289987 4.634542 0.500000 0.500000 0.500000 1.0
-2.020758 1.289433 4.621708 0.500000 0.500000 0.500000 1.0
-2.020758 -1.289433 4.621708 0.500000 0.500000 0.500000 1.0
3.013785 -1.346814 4.505073 0.500000 0.500000 0.500000 1.0
3.013785 1.346814 4.505073 0.500000 0.500000 0.500000 1.0
-3.002529 1.326820 4.437181 0.500000 0.500000 0.500000 1.0
-3.002529 -1.326820 4.437181 0.500000 0.500000 0.500000 1.0
4.010066 -1.284800 4.678399 0.500000 0.500000 0.500000 1.0
4.010066 1.284800 4.678399 0.500000 0.500000 0.500000 1.0
-3.985231 1.264494 4.645141 0.500000 0.500000 0.500000 1.0
-3.985231 -1.264494 4.645141 0.500000 0.500000 0.500000 1.0
4.995615 -1.109554 4.667681 0.500000 0.500000 0.500000 1.0
4.995615 1.109554 4.667681 0.500000 0.500000 0.500000 1.0
-4.996601 1.095803 4.592388 0.500000 0.500000 0.500000 1.0
-4.996601 -1.095803 4.592388 0.500000 0.500000 0.500000 1.0
5.988164 -1.001452 4.642085 0.500000 0.500000 0.500000 1.0
5.988164 1.001452 4.642085 0.500000 0.500000 0.500000 1.0
-0.959959 -1.536646 3.459530 0.500000 0.500000 0.500000 1.0
-1.784453 0.739069 2.603362 0.500000 0.500000 0.500000 1.0
-1.784453 -0.739069 2.603362 0.500000 0.500000 0.500000 1.0
0.852811 -1.546884 3.252976 0.500000 0.500000 0.500000 1.0
0.852811 1.546884 3.252976 0.500000 0.500000 0.500000 1.0
-2.110841 1.266291 3.562335 0.500000 0.500000 0.500000 1.0
-2.110841 -1.266291 3.562335 0.500000 0.500000 0.500000 1.0
0.008175 -1.638693 3.156486 0.500000 0.500000 0.500000 1.0
0.008175 1.638693 3.156486 0.500000 0.500000 0.500000 1.0
2.066387 1.249597 3.624827 0.500000 0.500000 0.500000 1.0
3.329924 -0.618806 2.341013 1.0 1.0 0.0 1.0
5.300066 -0.970475 3.705352 0.500000 0.500000 0.500000 1.0
5.300066 0.970475 3.705352 0.500000 0.500000 0.500000 1.0
-0.682445 -1.496044 2.654726 0.500000 0.500000 0.500000 1.0
-0.682445 1.496044 2.654726 0.500000 0.500000 0.500000 1.0
3.329924 0.618806 2.341013 1.0 1.0 0.0 1.0
-3.346929 0.659160 2.528474 1.0 1.0 0.0 1.0
-4.971049 1.018040 3.635743 0.500000 0.500000 0.500000 1.0
-4.971049 -1.018040 3.635743 0.500000 0.500000 0.500000 1.0
-3.346929 -0.659160 2.528474 1.0 1.0 0.0 1.0
0.017838 -0.000000 1.030606 1.0 1.0 0.0 1.0
4.506740 -1.196462 3.971913 0.500000 0.500000 0.500000 1.0
4.506740 1.196462 3.971913 0.500000 0.500000 0.500000 1.0
-1.458758 0.612284 1.585745 0.500000 0.500000 0.500000 1.0
-1.458758 -0.612284 1.585745 0.500000 0.500000 0.500000 1.0
1.826760 -0.000000 2.714265 0.500000 0.500000 0.500000 1.0
0.712588 -1.379470 2.218835 0.500000 0.500000 0.500000 1.0
0.712588 1.379470 2.218835 0.500000 0.500000 0.500000 1.0
2.066772 -0.000000 3.353740 0.500000 0.500000 0.500000 1.0
6.394825 -0.860494 4.008119 0.500000 0.500000 0.500000 1.0
6.394825 0.860494 4.008119 0.500000 0.500000 0.500000 1.0
-2.111265 0.000000 3.285381 0.500000 0.500000 0.500000 1.0
1.123957 0.996219 2.033392 0.500000 0.500000 0.500000 1.0
1.123957 -0.996219 2.033392 0.500000 0.500000 0.500000 1.0
-0.014572 -1.403442 2.195987 0.500000 0.500000 0.500000 1.0
-0.014572 1.403442 2.195987 0.500000 0.500000 0.500000 1.0
2.066387 -1.249597 3.624827 0.500000 0.500000 0.500000 1.0
1.337498 1.394463 2.901457 0.500000 0.500000 0.500000 1.0
-4.472884 1.144560 3.849463 0.500000 0.500000 0.500000 1.0
-4.472884 -1.144560 3.849463 0.500000 0.500000 0.500000 1.0
1.337498 -1.394463 2.901457 0.500000 0.500000 0.500000 1.0
-0.959959 1.536646 3.459530 0.500000 0.500000 0.500000 1.0
1.366708 -0.000000 1.964842 0.500000 0.500000 0.500000 1.0
3.795980 -1.179877 3.686748 0.500000 0.500000 0.500000 1.0
3.795980 1.179877 3.686748 0.500000 0.500000 0.500000 1.0
4.688309 -0.792043 2.830278 0.500000 0.500000 0.500000 1.0
4.688309 0.792043 2.830278 0.500000 0.500000 0.500000 1.0
-0.351863 -1.036286 1.872596 0.500000 0.500000 0.500000 1.0
-0.351863 1.036286 1.872596 0.500000 0.500000 0.500000 1.0
3.151852 -1.175470 3.486330 0.500000 0.500000 0.500000 1.0
3.151852 1.175470 3.486330 0.500000 0.500000 0.500000 1.0
-3.770577 1.110531 3.651099 0.500000 0.500000 0.500000 1.0
-3.770577 -1.110531 3.651099 0.500000 0.500000 0.500000 1.0
4.009699 -0.957022 3.162933 0.500000 0.500000 0.500000 1.0
4.009699 0.957022 3.162933 0.500000 0.500000 0.500000 1.0
-3.169406 1.038675 3.484088 0.500000 0.500000 0.500000 1.0
-3.169406 -1.038675 3.484088 0.500000 0.500000 0.500000 1.0
-5.015779 0.000000 3.611290 0.500000 0.500000 0.500000 1.0
-4.203828 0.323456 3.064969 0.500000 0.500000 0.500000 1.0
-4.203828 -0.323456 3.064969 0.500000 0.500000 0.500000 1.0
3 0 85 1
3 0 1 85
3 1 46 85
3 1 85 46
3 2 9 28
3 2 28 9
3 2 28 35
3 2 35 28
3 2 35 31
3 2 31 35
3 3 4 58
3 3 58 4
3 3 58 57
3 3 57 58
3 5 7 32
3 5 32 7
3 5 36 69
3 5 69 36
3 6 31 64
3 6 64 31
3 6 64 10
3 6 10 64
3 8 69 5
3 8 5 69
3 9 34 28
3 9 28 34
3 11 37 7
3 11 7 37
3 12 33 16
3 12 16 33
3 13 17 34
3 13 34 17
3 13 34 9
3 13 9 34
3 14 10 64
3 14 64 10
3 14 71 77
3 14 77 71
3 15 11 37
3 15 37 11
3 15 37 78
3 15 78 37
3 16 20 79
3 16 79 20
3 16 79 83
3 16 83 79
3 17 80 21
3 17 21 80
3 17 84 34
3 17 34 84
3 17 84 80
3 17 80 84
3 18 22 49
3 18 49 22
3 18 71 49
3 18 49 71
3 20 79 66
3 20 66 79
3 22 39 26
3 22 26 39
3 22 49 39
3 22 39 49
3 23 27 40
3 23 40 27
3 23 40 50
3 23 50 40
3 24 45 0
3 24 0 45
3 24 45 66
3 24 66 45
3 25 1 46
3 25 46 1
3 25 46 67
3 25 67 46
3 25 67 21
3 25 21 67
3 26 3 57
3 26 57 3
3 26 39 57
3 26 57 39
3 28 41 35
3 28 35 41
3 30 29 59
3 30 59 29
3 30 34 59
3 30 59 34
3 30 41 34
3 30 34 41
3 30 41 75
3 30 75 41
3 30 51 29
3 30 29 51
3 30 52 51
3 30 51 52
3 30 52 75
3 30 75 52
3 31 2 6
3 31 6 2
3 31 54 35
3 31 35 54
3 31 64 68
3 31 68 64
3 31 68 54
3 31 54 68
3 32 5 36
3 32 36 5
3 32 37 7
3 32 7 37
3 33 8 12
3 33 12 8
3 33 8 69
3 33 69 8
3 33 29 59
3 33 59 29
3 33 44 83
3 33 83 44
3 33 59 44
3 33 44 59
3 33 83 16
3 33 16 83
3 34 41 28
3 34 28 41
3 34 84 47
3 34 47 84
3 35 41 62
3 35 62 41
3 36 32 55
3 36 55 32
3 36 42 69
3 36 69 42
3 36 55 63
3 36 63 55
3 36 63 42
3 36 42 63
3 37 32 65
3 37 65 32
3 37 43 56
3 37 56 43
3 38 73 81
3 38 81 73
3 38 77 64
3 38 64 77
3 39 40 58
3 39 58 40
3 39 58 57
3 39 57 58
3 39 73 74
3 39 74 73
3 39 74 40
3 39 40 74
3 40 27 58
3 40 58 27
3 40 82 50
3 40 50 82
3 41 75 62
3 41 62 75
3 42 29 76
3 42 76 29
3 42 33 29
3 42 29 33
3 42 33 69
3 42 69 33
3 42 76 63
3 42 63 76
3 43 37 78
3 43 78 37
3 43 72 78
3 43 78 72
3 43 73 38
3 43 38 73
3 43 74 73
3 43 73 74
3 43 74 82
3 43 82 74
3 43 82 72
3 43 72 82
3 44 47 59
3 44 59 47
3 44 83 79
3 44 79 83
3 45 85 86
3 45 86 85
3 45 86 44
3 45 44 86
3 46 67 47
3 46 47 67
3 46 85 87
3 46 87 85
3 46 87 47
3 46 47 87
3 47 67 80
3 47 80 67
3 47 84 80
3 47 80 84
3 47 86 44
3 47 44 86
3 47 87 86
3 47 86 87
3 48 51 52
3 48 52 51
3 48 55 63
3 48 63 55
3 48 60 70
3 48 70 60
3 48 63 76
3 48 76 63
3 48 75 52
3 48 52 75
3 49 81 71
3 49 71 81
3 50 23 19
3 50 19 23
3 50 72 19
3 50 19 72
3 51 76 29
3 51 29 76
3 51 76 48
3 51 48 76
3 53 56 37
3 53 37 56
3 53 61 70
3 53 70 61
3 53 65 37
3 53 37 65
3 53 65 60
3 53 60 65
3 53 68 61
3 53 61 68
3 54 48 62
3 54 62 48
3 54 61 68
3 54 68 61
3 54 62 35
3 54 35 62
3 55 32 65
3 55 65 32
3 55 60 65
3 55 65 60
3 56 38 43
3 56 43 38
3 58 27 4
3 58 4 27
3 59 34 47
3 59 47 34
3 60 55 48
3 60 48 55
3 60 70 53
3 60 53 70
3 61 54 48
3 61 48 54
3 64 38 56
3 64 56 38
3 64 56 53
3 64 53 56
3 66 24 20
3 66 20 24
3 66 44 79
3 66 79 44
3 66 45 44
3 66 44 45
3 67 80 21
3 67 21 80
3 68 64 53
3 68 53 64
3 70 61 48
3 70 48 61
3 71 18 14
3 71 14 18
3 71 81 38
3 71 38 81
3 72 19 15
3 72 15 19
3 72 78 15
3 72 15 78
3 72 82 50
3 72 50 82
3 75 48 62
3 75 62 48
3 77 14 64
3 77 64 14
3 77 71 38
3 77 38 71
3 81 39 73
3 81 73 39
3 81 49 39
3 81 39 49
3 82 40 74
3 82 74 40
3 85 45 0
3 85 0 45
3 85 87 86
3 85 86 87
