 COFF
          88         822          88
  
  -6.3868734987120943       0.90855258584176124        4.5540418255919128       0.60000002384185791       0.60000002384185791       0.60000002384185791       0.80000001192092896     
  -6.3868734987121059      -0.90855258584176013        4.5540418255919128       0.60000002384185791       0.60000002384185791       0.60000002384185791       0.80000001192092896     
  -2.9446426657787773E-002  -1.8948780844574649        4.2912913402085682       0.60000002384185791       0.60000002384185791       0.60000002384185791       0.80000001192092896     
   7.2744363594104824      -0.86597230096773981        4.6283326211155549       0.60000002384185791       0.60000002384185791       0.60000002384185791       0.80000001192092896     
   7.2744363594104788       0.86597230096773148        4.6283326211155682       0.60000002384185791       0.60000002384185791       0.60000002384185791       0.80000001192092896     
  -2.9446426657787766E-002   1.8948780844574629        4.2912913402085699       0.60000002384185791       0.60000002384185791       0.60000002384185791       0.80000001192092896     
   1.0608299296125159       -1.5916178902868576        4.4181060711617937       0.60000002384185791       0.60000002384185791       0.60000002384185791       0.80000001192092896     
   1.0608299296125319        1.5916178902868308        4.4181060711618203       0.60000002384185791       0.60000002384185791       0.60000002384185791       0.80000001192092896     
  -1.0892416875450364        1.5714580907571321        4.3923340837097928       0.60000002384185791       0.60000002384185791       0.60000002384185791       0.80000001192092896     
  -1.0892416875450366       -1.5714580907571329        4.3923340837097937       0.60000002384185791       0.60000002384185791       0.60000002384185791       0.80000001192092896     
   1.9895765665622802       -1.2899867948803783        4.6345420463204823       0.60000002384185791       0.60000002384185791       0.60000002384185791       0.80000001192092896     
   1.9895765665622545        1.2899867948802715        4.6345420463205906       0.60000002384185791       0.60000002384185791       0.60000002384185791       0.80000001192092896     
  -2.0207578818076888        1.2894329033531713        4.6217080626370066       0.60000002384185791       0.60000002384185791       0.60000002384185791       0.80000001192092896     
  -2.0207578818076883       -1.2894329033531706        4.6217080626370075       0.60000002384185791       0.60000002384185791       0.60000002384185791       0.80000001192092896     
   3.0137847382476548       -1.3468142251732604        4.5050730387533102       0.60000002384185791       0.60000002384185791       0.60000002384185791       0.80000001192092896     
   3.0137847382473706        1.3468142251722455        4.5050730387540279       0.60000002384185791       0.60000002384185791       0.60000002384185791       0.80000001192092896     
  -3.0025285685478611        1.3268200029424844        4.4371810669575744       0.60000002384185791       0.60000002384185791       0.60000002384185791       0.80000001192092896     
  -3.0025285685478607       -1.3268200029424848        4.4371810669575753       0.60000002384185791       0.60000002384185791       0.60000002384185791       0.80000001192092896     
   4.0100659189905707       -1.2848004377716526        4.6783992880383600       0.60000002384185791       0.60000002384185791       0.60000002384185791       0.80000001192092896     
   4.0100659189905210        1.2848004377714397        4.6783992880385687       0.60000002384185791       0.60000002384185791       0.60000002384185791       0.80000001192092896     
  -3.9852305963248780        1.2644936372811788        4.6451407867106340       0.60000002384185791       0.60000002384185791       0.60000002384185791       0.80000001192092896     
  -3.9852305963248766       -1.2644936372811788        4.6451407867106331       0.60000002384185791       0.60000002384185791       0.60000002384185791       0.80000001192092896     
   4.9956151727820819       -1.1095539920383397        4.6676813492920441       0.60000002384185791       0.60000002384185791       0.60000002384185791       0.80000001192092896     
   4.9956151727844560        1.1095539920386295        4.6676813492949538       0.60000002384185791       0.60000002384185791       0.60000002384185791       0.80000001192092896     
  -4.9966012179201176        1.0958031792295817        4.5923876585144860       0.60000002384185791       0.60000002384185791       0.60000002384185791       0.80000001192092896     
  -4.9966012179201176       -1.0958031792295804        4.5923876585144852       0.60000002384185791       0.60000002384185791       0.60000002384185791       0.80000001192092896     
   5.9881636645163088       -1.0014522323642219        4.6420846413247787       0.60000002384185791       0.60000002384185791       0.60000002384185791       0.80000001192092896     
   5.9881636645185008        1.0014522323638970        4.6420846413248027       0.60000002384185791       0.60000002384185791       0.60000002384185791       0.80000001192092896     
 -0.95995935920228592       -1.5366464568547433        3.4595301769400195       0.60000002384185791       0.60000002384185791       0.60000002384185791       0.80000001192092896     
  -1.7844527962443577       0.73906884372852877        2.6033623943958570       0.60000002384185791       0.60000002384185791       0.60000002384185791       0.80000001192092896     
  -1.7844527962443582      -0.73906884372852488        2.6033623943958570       0.60000002384185791       0.60000002384185791       0.60000002384185791       0.80000001192092896     
  0.85281135099916516       -1.5468844363561938        3.2529760400210841       0.60000002384185791       0.60000002384185791       0.60000002384185791       0.80000001192092896     
  0.85281135099900562        1.5468844363562015        3.2529760400209811       0.60000002384185791       0.60000002384185791       0.60000002384185791       0.80000001192092896     
  -2.1108411222054815        1.2662913451153726        3.5623348263186871       0.60000002384185791       0.60000002384185791       0.60000002384185791       0.80000001192092896     
  -2.1108411222054824       -1.2662913451153708        3.5623348263186876       0.60000002384185791       0.60000002384185791       0.60000002384185791       0.80000001192092896     
   8.1745686320273802E-003  -1.6386925244081965        3.1564862261461140       0.60000002384185791       0.60000002384185791       0.60000002384185791       0.80000001192092896     
   8.1745686320345446E-003   1.6386925244081996        3.1564862261461104       0.60000002384185791       0.60000002384185791       0.60000002384185791       0.80000001192092896     
   2.0663866072337025        1.2495969007938346        3.6248270716023101       0.60000002384185791       0.60000002384185791       0.60000002384185791       0.80000001192092896     
   3.3299236991148202      -0.61880594821312207        2.3410133446645589        1.0000000000000000        1.0000000000000000        0.0000000000000000        1.0000000000000000     
   5.3000659394200840      -0.97047461929936463        3.7053520970877734       0.60000002384185791       0.60000002384185791       0.60000002384185791       0.80000001192092896     
   5.3000659394104011       0.97047461927670087        3.7053520970939728       0.60000002384185791       0.60000002384185791       0.60000002384185791       0.80000001192092896     
 -0.68244454693564316       -1.4960441233446569        2.6547256759870295       0.60000002384185791       0.60000002384185791       0.60000002384185791       0.80000001192092896     
 -0.68244454693564094        1.4960441233446573        2.6547256759870290       0.60000002384185791       0.60000002384185791       0.60000002384185791       0.80000001192092896     
   3.3299236991051711       0.61880594821044543        2.3410133446645589        1.0000000000000000        1.0000000000000000        0.0000000000000000        1.0000000000000000     
  -3.3469290045299664       0.65915955769773793        2.5284741087501219        1.0000000000000000        1.0000000000000000        0.0000000000000000        1.0000000000000000     
  -4.9710492808490869        1.0180398541265687        3.6357426960478421       0.60000002384185791       0.60000002384185791       0.60000002384185791       0.80000001192092896     
  -4.9710492808490878       -1.0180398541265683        3.6357426960478429       0.60000002384185791       0.60000002384185791       0.60000002384185791       0.80000001192092896     
  -3.3469290045299673      -0.65915955769773682        2.5284741087501215        1.0000000000000000        1.0000000000000000        0.0000000000000000        1.0000000000000000     
   1.7837905451587085E-002  -2.1004603541381467E-015   1.0306063639638421        1.0000000000000000        1.0000000000000000        0.0000000000000000        1.0000000000000000     
   4.5067403207786993       -1.1964621594627212        3.9719132497409433       0.60000002384185791       0.60000002384185791       0.60000002384185791       0.80000001192092896     
   4.5067403207789329        1.1964621594629561        3.9719132497453176       0.60000002384185791       0.60000002384185791       0.60000002384185791       0.80000001192092896     
  -1.4587584334987291       0.61228387046665678        1.5857451166594736       0.60000002384185791       0.60000002384185791       0.60000002384185791       0.80000001192092896     
  -1.4587584334987287      -0.61228387046665211        1.5857451166594718       0.60000002384185791       0.60000002384185791       0.60000002384185791       0.80000001192092896     
   1.8267597525582131       -1.0599113568581579E-012   2.7142647129008735       0.60000002384185791       0.60000002384185791       0.60000002384185791       0.80000001192092896     
  0.71258833805901811       -1.3794698869189481        2.2188345163100154       0.60000002384185791       0.60000002384185791       0.60000002384185791       0.80000001192092896     
  0.71258833805887667        1.3794698869189737        2.2188345163099519       0.60000002384185791       0.60000002384185791       0.60000002384185791       0.80000001192092896     
   2.0667716870789352       -1.3835813126856415E-012   3.3537404458239277       0.60000002384185791       0.60000002384185791       0.60000002384185791       0.80000001192092896     
   6.3948252042708287      -0.86049449464932670        4.0081186262921680       0.60000002384185791       0.60000002384185791       0.60000002384185791       0.80000001192092896     
   6.3948252042707487       0.86049449464901850        4.0081186262922666       0.60000002384185791       0.60000002384185791       0.60000002384185791       0.80000001192092896     
  -2.1112645403676451        1.5970521132397119E-015   3.2853805777588740       0.60000002384185791       0.60000002384185791       0.60000002384185791       0.80000001192092896     
   1.1239570233346761       0.99621885321253090        2.0333919884857434       0.60000002384185791       0.60000002384185791       0.60000002384185791       0.80000001192092896     
   1.1239570233348015      -0.99621885321258929        2.0333919884857266       0.60000002384185791       0.60000002384185791       0.60000002384185791       0.80000001192092896     
  -1.4572168045717098E-002  -1.4034419691126312        2.1959870791888152       0.60000002384185791       0.60000002384185791       0.60000002384185791       0.80000001192092896     
  -1.4572168045714151E-002   1.4034419691126336        2.1959870791888152       0.60000002384185791       0.60000002384185791       0.60000002384185791       0.80000001192092896     
   2.0663866072339134       -1.2495969007936123        3.6248270716016782       0.60000002384185791       0.60000002384185791       0.60000002384185791       0.80000001192092896     
   1.3374981063914899        1.3944630322859617        2.9014570894259197       0.60000002384185791       0.60000002384185791       0.60000002384185791       0.80000001192092896     
  -4.4728837889732471        1.1445602168783164        3.8494630590029137       0.60000002384185791       0.60000002384185791       0.60000002384185791       0.80000001192092896     
  -4.4728837889732471       -1.1445602168783160        3.8494630590029115       0.60000002384185791       0.60000002384185791       0.60000002384185791       0.80000001192092896     
   1.3374981063917724       -1.3944630322860683        2.9014570894258473       0.60000002384185791       0.60000002384185791       0.60000002384185791       0.80000001192092896     
 -0.95995935920228448        1.5366464568547429        3.4595301769400186       0.60000002384185791       0.60000002384185791       0.60000002384185791       0.80000001192092896     
   1.3667080751178791       -6.1951183371713100E-013   1.9648419699655280       0.60000002384185791       0.60000002384185791       0.60000002384185791       0.80000001192092896     
   3.7959800484554296       -1.1798772889360516        3.6867476755906976       0.60000002384185791       0.60000002384185791       0.60000002384185791       0.80000001192092896     
   3.7959800484620034        1.1798772888974178        3.6867476755796575       0.60000002384185791       0.60000002384185791       0.60000002384185791       0.80000001192092896     
   4.6883086262768892      -0.79204316859319990        2.8302778155119821       0.60000002384185791       0.60000002384185791       0.60000002384185791       0.80000001192092896     
   4.6883086262966689       0.79204316858453450        2.8302778155099109       0.60000002384185791       0.60000002384185791       0.60000002384185791       0.80000001192092896     
 -0.35186322173589446       -1.0362855603502961        1.8725964799397234       0.60000002384185791       0.60000002384185791       0.60000002384185791       0.80000001192092896     
 -0.35186322173589102        1.0362855603502956        1.8725964799397243       0.60000002384185791       0.60000002384185791       0.60000002384185791       0.80000001192092896     
   3.1518520797986955       -1.1754703471719734        3.4863302957407947       0.60000002384185791       0.60000002384185791       0.60000002384185791       0.80000001192092896     
   3.1518520797981617        1.1754703471644630        3.4863302957410900       0.60000002384185791       0.60000002384185791       0.60000002384185791       0.80000001192092896     
  -3.7705771790469909        1.1105306473591490        3.6510989776888447       0.60000002384185791       0.60000002384185791       0.60000002384185791       0.80000001192092896     
  -3.7705771790469913       -1.1105306473591487        3.6510989776888443       0.60000002384185791       0.60000002384185791       0.60000002384185791       0.80000001192092896     
   4.0096987930342074      -0.95702166478625184        3.1629332487806212       0.60000002384185791       0.60000002384185791       0.60000002384185791       0.80000001192092896     
   4.0096987929306120       0.95702166475983519        3.1629332487878634       0.60000002384185791       0.60000002384185791       0.60000002384185791       0.80000001192092896     
  -3.1694056319303363        1.0386745333049372        3.4840881286492933       0.60000002384185791       0.60000002384185791       0.60000002384185791       0.80000001192092896     
  -3.1694056319303363       -1.0386745333049370        3.4840881286492933       0.60000002384185791       0.60000002384185791       0.60000002384185791       0.80000001192092896     
  -5.0157789430746043        3.0129133962075425E-016   3.6112895022170379       0.60000002384185791       0.60000002384185791       0.60000002384185791       0.80000001192092896     
  -4.2038282774033879       0.32345639252445135        3.0649688355947382       0.60000002384185791       0.60000002384185791       0.60000002384185791       0.80000001192092896     
  -4.2038282774033879      -0.32345639252445058        3.0649688355947382       0.60000002384185791       0.60000002384185791       0.60000002384185791       0.80000001192092896     
  
   3   0  24  45
   3   0  45  24
   3   0  45  85
   3   0  85   1
   3   0  85  45
   3   0   1  85
   3   1   0  85
   3   1  85  46
   3   1  85   0
   3   1  46  85
   3   1  46  25
   3   1  25  46
   3   2  35  28
   3   2  35  31
   3   2  31  35
   3   2  31   6
   3   2   6  31
   3   2   9  28
   3   2  28  35
   3   2  28   9
   3   3  26  57
   3   3  57  26
   4   3  57  58   4
   3   4  58  27
   4   4  58  57   3
   3   4  27  58
   3   5   7  32
   3   5  32  36
   3   5  32   7
   3   5  36  32
   3   5  36  69
   3   5  69  36
   3   5  69   8
   3   5   8  69
   3   6   2  31
   3   6  31   2
   3   6  31  64
   3   6  64  10
   3   6  64  31
   3   6  10  64
   3   7  11  37
   3   7  37  32
   3   7  37  11
   3   7  32  37
   3   7  32   5
   3   7   5  32
   3   8   5  69
   3   8  69   5
   3   8  69  33
   3   8  33  12
   3   8  33  69
   3   8  12  33
   3   9  13  34
   3   9  34  28
   3   9  34  13
   3   9  28  34
   3   9  28   2
   3   9   2  28
   3  10   6  64
   3  10  64  14
   3  10  64   6
   3  10  14  64
   3  11  15  37
   3  11  37   7
   3  11  37  15
   3  11   7  37
   3  12   8  33
   3  12  33  16
   3  12  33   8
   3  12  16  33
   3  13  17  34
   3  13  34   9
   3  13  34  17
   3  13   9  34
   3  14  10  64
   3  14  64  77
   3  14  64  10
   3  14  77  64
   3  14  77  71
   3  14  71  77
   3  14  71  18
   3  14  18  71
   3  15  19  72
   3  15  72  78
   3  15  72  19
   3  15  78  72
   3  15  78  37
   3  15  37  11
   3  15  37  78
   3  15  11  37
   3  16  12  33
   3  16  33  83
   3  16  33  12
   3  16  83  33
   3  16  83  79
   3  16  79  83
   3  16  79  20
   3  16  20  79
   3  17  21  80
   3  17  80  84
   3  17  80  21
   3  17  84  80
   3  17  84  34
   3  17  34  13
   3  17  34  84
   3  17  13  34
   3  18  14  71
   3  18  71  14
   3  18  71  49
   3  18  49  71
   3  18  49  22
   3  18  22  49
   3  19  23  50
   3  19  50  72
   3  19  50  23
   3  19  72  50
   3  19  72  15
   3  19  15  72
   3  20  16  79
   3  20  79  16
   3  20  79  66
   3  20  66  79
   3  20  66  24
   3  20  24  66
   3  21  25  67
   3  21  67  80
   3  21  67  25
   3  21  80  67
   3  21  80  17
   3  21  17  80
   3  22  18  49
   3  22  49  18
   3  22  49  39
   3  22  39  26
   3  22  39  49
   3  22  26  39
   3  23  27  40
   3  23  40  50
   3  23  40  27
   3  23  50  40
   3  23  50  19
   3  23  19  50
   3  24  20  66
   3  24  66  20
   3  24  66  45
   3  24  45   0
   3  24  45  66
   3  24   0  45
   3  25   1  46
   3  25  46   1
   3  25  46  67
   3  25  67  46
   3  25  67  21
   3  25  21  67
   3  26  22  39
   3  26  39  57
   3  26  39  22
   3  26  57   3
   3  26  57  39
   3  26   3  57
   3  27   4  58
   3  27  58   4
   3  27  58  40
   3  27  40  58
   3  27  40  23
   3  27  23  40
   3  28  34  41
   3  28  34   9
   3  28  41  35
   3  28  41  34
   3  28  35  41
   3  28  35   2
   3  28   2  35
   3  28   2   9
   3  28   9  34
   3  28   9   2
   3  29  33  42
   3  29  33  59
   3  29  42  33
   3  29  42  76
   3  29  76  51
   3  29  76  42
   3  29  51  76
   4  29  51  52  30
   3  29  30  59
   4  29  30  52  51
   3  29  59  30
   3  29  59  33
   3  30  34  59
   3  30  34  41
   3  30  59  29
   3  30  59  34
   3  30  29  59
   4  30  29  51  52
   3  30  52  75
   4  30  52  51  29
   3  30  75  52
   3  30  75  41
   3  30  41  34
   3  30  41  75
   3  31   2  35
   3  31   2   6
   3  31  35  54
   3  31  35   2
   3  31  54  35
   3  31  54  68
   3  31  68  64
   3  31  68  54
   3  31  64   6
   3  31  64  68
   3  31   6   2
   3  31   6  64
   3  32  37  65
   3  32  37   7
   3  32  65  37
   3  32  65  55
   3  32  55  65
   3  32  55  36
   3  32  36  55
   3  32  36   5
   3  32   5   7
   3  32   5  36
   3  32   7  37
   3  32   7   5
   3  33  44  83
   3  33  44  59
   3  33  83  44
   3  33  83  16
   3  33  16  12
   3  33  16  83
   3  33  12   8
   3  33  12  16
   3  33   8  69
   3  33   8  12
   3  33  69  42
   3  33  69   8
   3  33  42  29
   3  33  42  69
   3  33  29  42
   3  33  29  59
   3  33  59  29
   3  33  59  44
   3  34  47  59
   3  34  47  84
   3  34  59  30
   3  34  59  47
   3  34  30  59
   3  34  30  41
   3  34  41  28
   3  34  41  30
   3  34  28  41
   3  34  28   9
   3  34   9  13
   3  34   9  28
   3  34  13  17
   3  34  13   9
   3  34  17  84
   3  34  17  13
   3  34  84  47
   3  34  84  17
   3  35  28  41
   3  35  28   2
   3  35  41  28
   3  35  41  62
   3  35  62  41
   3  35  62  54
   3  35  54  62
   3  35  54  31
   3  35  31   2
   3  35  31  54
   3  35   2  31
   3  35   2  28
   3  36  32  55
   3  36  32   5
   3  36  55  63
   3  36  55  32
   3  36  63  55
   3  36  63  42
   3  36  42  69
   3  36  42  63
   3  36  69   5
   3  36  69  42
   3  36   5  32
   3  36   5  69
   3  37  43  56
   3  37  43  78
   3  37  56  53
   3  37  56  43
   3  37  53  56
   3  37  53  65
   3  37  65  53
   3  37  65  32
   3  37  32  65
   3  37  32   7
   3  37   7  11
   3  37   7  32
   3  37  11  15
   3  37  11   7
   3  37  15  78
   3  37  15  11
   3  37  78  43
   3  37  78  15
   3  38  73  81
   4  38  73  74  43
   3  38  81  73
   3  38  81  71
   3  38  71  77
   3  38  71  81
   3  38  77  64
   3  38  77  71
   3  38  64  77
   3  38  64  56
   3  38  56  43
   3  38  56  64
   3  38  43  56
   4  38  43  74  73
   3  39  57  26
   4  39  57  58  40
   3  39  26  22
   3  39  26  57
   3  39  22  49
   3  39  22  26
   3  39  49  81
   3  39  49  22
   3  39  81  73
   3  39  81  49
   3  39  73  81
   4  39  73  74  40
   3  40  58  27
   4  40  58  57  39
   3  40  74  82
   4  40  74  73  39
   3  40  82  50
   3  40  82  74
   3  40  50  82
   3  40  50  23
   3  40  23  27
   3  40  23  50
   3  40  27  58
   3  40  27  23
   3  41  35  28
   3  41  35  62
   3  41  28  34
   3  41  28  35
   3  41  34  30
   3  41  34  28
   3  41  30  34
   3  41  30  75
   3  41  75  30
   3  41  75  62
   3  41  62  75
   3  41  62  35
   3  42  29  33
   3  42  29  76
   3  42  33  69
   3  42  33  29
   3  42  69  36
   3  42  69  33
   3  42  36  63
   3  42  36  69
   3  42  63  76
   3  42  63  36
   3  42  76  63
   3  42  76  29
   3  43  74  82
   4  43  74  73  38
   3  43  38  56
   4  43  38  73  74
   3  43  56  37
   3  43  56  38
   3  43  37  56
   3  43  37  78
   3  43  78  72
   3  43  78  37
   3  43  72  82
   3  43  72  78
   3  43  82  72
   3  43  82  74
   3  44  45  66
   4  44  45  85  86
   3  44  66  79
   3  44  66  45
   3  44  79  83
   3  44  79  66
   3  44  83  33
   3  44  83  79
   3  44  33  83
   3  44  33  59
   3  44  59  47
   3  44  59  33
   3  44  47  59
   4  44  47  87  86
   3  45   0  24
   3  45   0  85
   3  45  24  66
   3  45  24   0
   3  45  66  44
   3  45  66  24
   3  45  44  66
   4  45  44  86  85
   3  45  85   0
   4  45  85  86  44
   3  46   1  85
   3  46   1  25
   3  46  85   1
   4  46  85  87  47
   3  46  47  67
   4  46  47  87  85
   3  46  67  47
   3  46  67  25
   3  46  25   1
   3  46  25  67
   3  47  46  67
   4  47  46  85  87
   3  47  44  59
   4  47  44  86  87
   3  47  59  34
   3  47  59  44
   3  47  34  59
   3  47  34  84
   3  47  84  80
   3  47  84  34
   3  47  80  67
   3  47  80  84
   3  47  67  46
   3  47  67  80
   3  48  63  55
   3  48  63  76
   3  48  55  60
   3  48  55  63
   3  48  60  70
   3  48  60  55
   3  48  70  60
   3  48  70  61
   3  48  61  54
   3  48  61  70
   3  48  54  62
   3  48  54  61
   3  48  62  75
   3  48  62  54
   3  48  75  52
   3  48  75  62
   3  48  52  51
   3  48  52  75
   3  48  51  76
   3  48  51  52
   3  48  76  63
   3  48  76  51
   3  49  18  71
   3  49  18  22
   3  49  71  81
   3  49  71  18
   3  49  81  39
   3  49  81  71
   3  49  39  22
   3  49  39  81
   3  49  22  18
   3  49  22  39
   3  50  40  82
   3  50  40  23
   3  50  82  72
   3  50  82  40
   3  50  72  82
   3  50  72  19
   3  50  19  23
   3  50  19  72
   3  50  23  40
   3  50  23  19
   3  51  29  76
   4  51  29  30  52
   3  51  76  48
   3  51  76  29
   3  51  48  52
   3  51  48  76
   3  51  52  48
   4  51  52  30  29
   3  52  30  75
   4  52  30  29  51
   3  52  51  48
   4  52  51  29  30
   3  52  48  75
   3  52  48  51
   3  52  75  30
   3  52  75  48
   3  53  37  56
   3  53  37  65
   3  53  56  37
   3  53  56  64
   3  53  64  68
   3  53  64  56
   3  53  68  61
   3  53  68  64
   3  53  61  70
   3  53  61  68
   3  53  70  60
   3  53  70  61
   3  53  60  70
   3  53  60  65
   3  53  65  37
   3  53  65  60
   3  54  35  62
   3  54  35  31
   3  54  62  48
   3  54  62  35
   3  54  48  61
   3  54  48  62
   3  54  61  48
   3  54  61  68
   3  54  68  61
   3  54  68  31
   3  54  31  35
   3  54  31  68
   3  55  65  60
   3  55  65  32
   3  55  60  48
   3  55  60  65
   3  55  48  63
   3  55  48  60
   3  55  63  48
   3  55  63  36
   3  55  36  32
   3  55  36  63
   3  55  32  65
   3  55  32  36
   3  56  53  37
   3  56  53  64
   3  56  37  43
   3  56  37  53
   3  56  43  38
   3  56  43  37
   3  56  38  64
   3  56  38  43
   3  56  64  38
   3  56  64  53
   3  57   3  26
   4  57   3   4  58
   3  57  26  39
   3  57  26   3
   3  57  39  26
   4  57  39  40  58
   3  58   4  27
   4  58   4   3  57
   3  58  40  27
   4  58  40  39  57
   3  58  27   4
   3  58  27  40
   3  59  29  33
   3  59  29  30
   3  59  30  34
   3  59  30  29
   3  59  34  47
   3  59  34  30
   3  59  47  44
   3  59  47  34
   3  59  44  33
   3  59  44  47
   3  59  33  44
   3  59  33  29
   3  60  53  70
   3  60  53  65
   3  60  70  53
   3  60  70  48
   3  60  48  55
   3  60  48  70
   3  60  55  65
   3  60  55  48
   3  60  65  53
   3  60  65  55
   3  61  54  48
   3  61  54  68
   3  61  48  70
   3  61  48  54
   3  61  70  53
   3  61  70  48
   3  61  53  68
   3  61  53  70
   3  61  68  53
   3  61  68  54
   3  62  41  35
   3  62  41  75
   3  62  75  48
   3  62  75  41
   3  62  48  54
   3  62  48  75
   3  62  54  35
   3  62  54  48
   3  62  35  41
   3  62  35  54
   3  63  55  48
   3  63  55  36
   3  63  48  55
   3  63  48  76
   3  63  76  48
   3  63  76  42
   3  63  42  36
   3  63  42  76
   3  63  36  55
   3  63  36  42
   3  64  38  77
   3  64  38  56
   3  64  77  38
   3  64  77  14
   3  64  14  10
   3  64  14  77
   3  64  10   6
   3  64  10  14
   3  64   6  31
   3  64   6  10
   3  64  31  68
   3  64  31   6
   3  64  68  53
   3  64  68  31
   3  64  53  56
   3  64  53  68
   3  64  56  53
   3  64  56  38
   3  65  37  53
   3  65  37  32
   3  65  53  37
   3  65  53  60
   3  65  60  53
   3  65  60  55
   3  65  55  60
   3  65  55  32
   3  65  32  37
   3  65  32  55
   3  66  20  79
   3  66  20  24
   3  66  79  44
   3  66  79  20
   3  66  44  45
   3  66  44  79
   3  66  45  24
   3  66  45  44
   3  66  24  20
   3  66  24  45
   3  67  46  47
   3  67  46  25
   3  67  47  46
   3  67  47  80
   3  67  80  47
   3  67  80  21
   3  67  21  25
   3  67  21  80
   3  67  25  46
   3  67  25  21
   3  68  61  54
   3  68  61  53
   3  68  53  64
   3  68  53  61
   3  68  64  31
   3  68  64  53
   3  68  31  54
   3  68  31  64
   3  68  54  61
   3  68  54  31
   3  69   5  36
   3  69   5   8
   3  69  36  42
   3  69  36   5
   3  69  42  33
   3  69  42  36
   3  69  33   8
   3  69  33  42
   3  69   8   5
   3  69   8  33
   3  70  60  53
   3  70  60  48
   3  70  53  61
   3  70  53  60
   3  70  61  48
   3  70  61  53
   3  70  48  60
   3  70  48  61
   3  71  14  77
   3  71  14  18
   3  71  77  38
   3  71  77  14
   3  71  38  81
   3  71  38  77
   3  71  81  49
   3  71  81  38
   3  71  49  18
   3  71  49  81
   3  71  18  14
   3  71  18  49
   3  72  50  82
   3  72  50  19
   3  72  82  50
   3  72  82  43
   3  72  43  78
   3  72  43  82
   3  72  78  43
   3  72  78  15
   3  72  15  19
   3  72  15  78
   3  72  19  50
   3  72  19  15
   3  73  38  81
   4  73  38  43  74
   3  73  39  81
   4  73  39  40  74
   3  73  81  39
   3  73  81  38
   3  74  40  82
   4  74  40  39  73
   3  74  43  82
   4  74  43  38  73
   3  74  82  40
   3  74  82  43
   3  75  30  52
   3  75  30  41
   3  75  52  30
   3  75  52  48
   3  75  48  62
   3  75  48  52
   3  75  62  41
   3  75  62  48
   3  75  41  30
   3  75  41  62
   3  76  63  48
   3  76  63  42
   3  76  48  63
   3  76  48  51
   3  76  51  29
   3  76  51  48
   3  76  29  42
   3  76  29  51
   3  76  42  29
   3  76  42  63
   3  77  64  38
   3  77  64  14
   3  77  38  71
   3  77  38  64
   3  77  71  14
   3  77  71  38
   3  77  14  64
   3  77  14  71
   3  78  72  43
   3  78  72  15
   3  78  43  37
   3  78  43  72
   3  78  37  43
   3  78  37  15
   3  78  15  72
   3  78  15  37
   3  79  16  83
   3  79  16  20
   3  79  83  44
   3  79  83  16
   3  79  44  66
   3  79  44  83
   3  79  66  20
   3  79  66  44
   3  79  20  16
   3  79  20  66
   3  80  67  47
   3  80  67  21
   3  80  47  84
   3  80  47  67
   3  80  84  47
   3  80  84  17
   3  80  17  21
   3  80  17  84
   3  80  21  67
   3  80  21  17
   3  81  73  38
   3  81  73  39
   3  81  39  49
   3  81  39  73
   3  81  49  71
   3  81  49  39
   3  81  71  38
   3  81  71  49
   3  81  38  73
   3  81  38  71
   3  82  72  50
   3  82  72  43
   3  82  50  40
   3  82  50  72
   3  82  40  74
   3  82  40  50
   3  82  74  40
   3  82  74  43
   3  82  43  74
   3  82  43  72
   3  83  33  44
   3  83  33  16
   3  83  44  79
   3  83  44  33
   3  83  79  16
   3  83  79  44
   3  83  16  33
   3  83  16  79
   3  84  80  47
   3  84  80  17
   3  84  47  34
   3  84  47  80
   3  84  34  47
   3  84  34  17
   3  84  17  80
   3  84  17  34
   3  85  86  87
   4  85  86  44  45
   3  85  87  86
   4  85  87  47  46
   3  85  46   1
   4  85  46  47  87
   3  85   1   0
   3  85   1  46
   3  85   0  45
   3  85   0   1
   3  85  45   0
   4  85  45  44  86
   3  86  87  85
   4  86  87  47  44
   3  86  85  87
   4  86  85  45  44
   3  87  85  86
   4  87  85  46  47
   3  87  86  85
   4  87  86  44  47
