 COFF
         110        1092         110
  
  -6.4946371021597002        1.0011430714045797        5.2279431187831475       0.60000002384185791       0.60000002384185791       0.60000002384185791       0.80000001192092896     
  -6.4946371028470740       -1.0011430719868142        5.2279431178836342       0.60000002384185791       0.60000002384185791       0.60000002384185791       0.80000001192092896     
  -3.1293666076533264E-002  -2.0431195903692725        4.9475103272967438       0.60000002384185791       0.60000002384185791       0.60000002384185791       0.80000001192092896     
   7.3409870540905908      -0.92456550453511321        5.3604602080222570       0.60000002384185791       0.60000002384185791       0.60000002384185791       0.80000001192092896     
   7.3409870540906654       0.92456550453516795        5.3604602080221637       0.60000002384185791       0.60000002384185791       0.60000002384185791       0.80000001192092896     
  -3.1293666073694187E-002   2.0431195900262726        4.9475103276390060       0.60000002384185791       0.60000002384185791       0.60000002384185791       0.80000001192092896     
   1.0935515804468041       -1.7394271367613179        5.0726061313016348       0.60000002384185791       0.60000002384185791       0.60000002384185791       0.80000001192092896     
   1.0935515804138853        1.7394271366543290        5.0726061314135613       0.60000002384185791       0.60000002384185791       0.60000002384185791       0.80000001192092896     
  -1.1174878527338143        1.7211362279317006        5.0448915551390892       0.60000002384185791       0.60000002384185791       0.60000002384185791       0.80000001192092896     
  -1.1174878528375731       -1.7211362282556946        5.0448915548002722       0.60000002384185791       0.60000002384185791       0.60000002384185791       0.80000001192092896     
   2.0178926903504446       -1.4342927928913483        5.3026458109196302       0.60000002384185791       0.60000002384185791       0.60000002384185791       0.80000001192092896     
   2.0178926903477379        1.4342927928302771        5.3026458109798833       0.60000002384185791       0.60000002384185791       0.60000002384185791       0.80000001192092896     
  -2.0459380420682449        1.4385245447060462        5.2858908143693020       0.60000002384185791       0.60000002384185791       0.60000002384185791       0.80000001192092896     
  -2.0459380420362763       -1.4385245447933284        5.2858908142876482       0.60000002384185791       0.60000002384185791       0.60000002384185791       0.80000001192092896     
   3.0192253626557806       -1.5338325723178503        5.1301188866040270       0.60000002384185791       0.60000002384185791       0.60000002384185791       0.80000001192092896     
   3.0192253276571375        1.5338325676906994        5.1301188570173482       0.60000002384185791       0.60000002384185791       0.60000002384185791       0.80000001192092896     
  -3.0114607832042393        1.5269035456760607        5.0422061277481722       0.60000002384185791       0.60000002384185791       0.60000002384185791       0.80000001192092896     
  -3.0114607832507478       -1.5269035455173552        5.0422061279004922       0.60000002384185791       0.60000002384185791       0.60000002384185791       0.80000001192092896     
   4.0310893293345469       -1.4443126291236330        5.3265595706079099       0.60000002384185791       0.60000002384185791       0.60000002384185791       0.80000001192092896     
   4.0310893292976271        1.4443126291253037        5.3265595706110176       0.60000002384185791       0.60000002384185791       0.60000002384185791       0.80000001192092896     
  -4.0075386029314295        1.4405995149436974        5.2761308566727951       0.60000002384185791       0.60000002384185791       0.60000002384185791       0.80000001192092896     
  -4.0075386028540310       -1.4405995143912340        5.2761308572310828       0.60000002384185791       0.60000002384185791       0.60000002384185791       0.80000001192092896     
   5.0166938210334830       -1.2447000309444058        5.3482480335156151       0.60000002384185791       0.60000002384185791       0.60000002384185791       0.80000001192092896     
   5.0166938210015681        1.2447000309523872        5.3482480334884412       0.60000002384185791       0.60000002384185791       0.60000002384185791       0.80000001192092896     
  -5.0214182233118123        1.2455988632128687        5.2540801909057766       0.60000002384185791       0.60000002384185791       0.60000002384185791       0.80000001192092896     
  -5.0214182233457034       -1.2455988634399511        5.2540801906766275       0.60000002384185791       0.60000002384185791       0.60000002384185791       0.80000001192092896     
   6.0171037999576047       -1.1143318051820970        5.3681014439814154       0.60000002384185791       0.60000002384185791       0.60000002384185791       0.80000001192092896     
   6.0171038000060779        1.1143318051771440        5.3681014440392243       0.60000002384185791       0.60000002384185791       0.60000002384185791       0.80000001192092896     
  -6.5189581250724231       -2.5955360155997765E-010   5.2279498110441853       0.60000002384185791       0.60000002384185791       0.60000002384185791       0.80000001192092896     
  -1.7052612377748482       0.81759242826772505        3.0405451587123173       0.60000002384185791       0.60000002384185791       0.60000002384185791       0.80000001192092896     
  -1.7052608868953414      -0.81759291786514332        3.0405451390420644       0.60000002384185791       0.60000002384185791       0.60000002384185791       0.80000001192092896     
  0.86283628661209522       -1.6901936928300965        3.8080964364012302       0.60000002384185791       0.60000002384185791       0.60000002384185791       0.80000001192092896     
  0.86283607437270182        1.6901936342167843        3.8080964091596630       0.60000002384185791       0.60000002384185791       0.60000002384185791       0.80000001192092896     
  -2.0575010066415618        1.4448191213018773        4.2143365436710196       0.60000002384185791       0.60000002384185791       0.60000002384185791       0.80000001192092896     
  -2.0575009646099871       -1.4448191401275825        4.2143365055099951       0.60000002384185791       0.60000002384185791       0.60000002384185791       0.80000001192092896     
   2.4661669331572520E-002  -1.7857850566811762        3.7017695111207916       0.60000002384185791       0.60000002384185791       0.60000002384185791       0.80000001192092896     
   2.4594698927820006E-002   1.7859334940622715        3.7017694668090937       0.60000002384185791       0.60000002384185791       0.60000002384185791       0.80000001192092896     
   2.0395344980456427        1.4038811482731295        4.2973783931055776       0.60000002384185791       0.60000002384185791       0.60000002384185791       0.80000001192092896     
   3.3631782776135335      -0.61936167833235978        2.3410133446645589        1.0000000000000000        1.0000000000000000        0.0000000000000000        1.0000000000000000     
   5.4930282013366325       -1.1175773569693448        4.3601480129528989       0.60000002384185791       0.60000002384185791       0.60000002384185791       0.80000001192092896     
   5.4930282013055196        1.1175773571126584        4.3601480129639887       0.60000002384185791       0.60000002384185791       0.60000002384185791       0.80000001192092896     
 -0.69955449499877553       -1.6867299911304039        3.2066060077374701       0.60000002384185791       0.60000002384185791       0.60000002384185791       0.80000001192092896     
 -0.69955438501692369        1.6867287009814271        3.2066060096884779       0.60000002384185791       0.60000002384185791       0.60000002384185791       0.80000001192092896     
   3.3631782772541872       0.61936167816797227        2.3410133446645589        1.0000000000000000        1.0000000000000000        0.0000000000000000        1.0000000000000000     
  -3.3990308191216716       0.65954056354234958        2.5284741087501219        1.0000000000000000        1.0000000000000000        0.0000000000000000        1.0000000000000000     
  -5.0531551577935874        1.2131507105834360        4.3466767735966867       0.60000002384185791       0.60000002384185791       0.60000002384185791       0.80000001192092896     
  -5.0531619968731993       -1.2131496975312481        4.3466755401971042       0.60000002384185791       0.60000002384185791       0.60000002384185791       0.80000001192092896     
  -3.3990308123236548      -0.65954057512225273        2.5284741087501215        1.0000000000000000        1.0000000000000000        0.0000000000000000        1.0000000000000000     
   4.4969981718833298E-002   4.8228883613023407E-008   1.0306063639638421        1.0000000000000000        1.0000000000000000        0.0000000000000000        1.0000000000000000     
   4.5163408087147108       -1.3458971527670227        4.6419714391328375       0.60000002384185791       0.60000002384185791       0.60000002384185791       0.80000001192092896     
   4.5163408081131458        1.3458971534731472        4.6419714389586275       0.60000002384185791       0.60000002384185791       0.60000002384185791       0.80000001192092896     
  -1.3802960019243735       0.83798946925017725        1.8271990528776345       0.60000002384185791       0.60000002384185791       0.60000002384185791       0.80000001192092896     
  -1.3802944676570517      -0.83798899643746472        1.8271999688417422       0.60000002384185791       0.60000002384185791       0.60000002384185791       0.80000001192092896     
   1.7281984855801735        3.5939807007496451E-008   3.1840184271973206       0.60000002384185791       0.60000002384185791       0.60000002384185791       0.80000001192092896     
  0.77314892519471390       -1.6660266797822270        2.7444673384602494       0.60000002384185791       0.60000002384185791       0.60000002384185791       0.80000001192092896     
  0.77312555170771169        1.6663468492187234        2.7444631566018249       0.60000002384185791       0.60000002384185791       0.60000002384185791       0.80000001192092896     
   2.0395342047326497       -1.8333317965631468E-008   3.7941293600611132       0.60000002384185791       0.60000002384185791       0.60000002384185791       0.80000001192092896     
   6.6340167627896207      -0.75901825724296357        4.5954174293392773        1.0000000000000000        1.0000000000000000        0.0000000000000000        1.0000000000000000     
   6.6340167627886046       0.75901825724973948        4.5954174293400127        1.0000000000000000        1.0000000000000000        0.0000000000000000        1.0000000000000000     
  -2.0572656837780183       -5.6535892040304881E-008   3.6427142736631257       0.60000002384185791       0.60000002384185791       0.60000002384185791       0.80000001192092896     
   1.1690833532646736        1.2177772548927970        2.5263220335453318       0.60000002384185791       0.60000002384185791       0.60000002384185791       0.80000001192092896     
   1.1690837919386305       -1.2177776246331553        2.5263212020777326       0.60000002384185791       0.60000002384185791       0.60000002384185791       0.80000001192092896     
   9.7482870645757724E-002  -1.6801616009071449        2.6507986820676197       0.60000002384185791       0.60000002384185791       0.60000002384185791       0.80000001192092896     
   9.7480700169732593E-002   1.6801627322632786        2.6507994044961745       0.60000002384185791       0.60000002384185791       0.60000002384185791       0.80000001192092896     
   2.0395344661653345       -1.4038811385564065        4.2973784099859298       0.60000002384185791       0.60000002384185791       0.60000002384185791       0.80000001192092896     
   1.2629201487352153        1.5550124134141512        3.5222393369400224       0.60000002384185791       0.60000002384185791       0.60000002384185791       0.80000001192092896     
  -4.5215123710552323        1.3415307274340911        4.4521090176496516       0.60000002384185791       0.60000002384185791       0.60000002384185791       0.80000001192092896     
  -4.5214660840418492       -1.3416153362649732        4.4521084910224147       0.60000002384185791       0.60000002384185791       0.60000002384185791       0.80000001192092896     
   1.2629169725456677       -1.5550128423907648        3.5222351138727719       0.60000002384185791       0.60000002384185791       0.60000002384185791       0.80000001192092896     
 -0.91300443006530485        1.6971333381907088        4.0247748610567351       0.60000002384185791       0.60000002384185791       0.60000002384185791       0.80000001192092896     
   1.4033023792347350       -1.6666410140939875E-007   2.3795507468428014       0.60000002384185791       0.60000002384185791       0.60000002384185791       0.80000001192092896     
   3.9256894278882175       -1.3695896609305398        4.1507837130584271       0.60000002384185791       0.60000002384185791       0.60000002384185791       0.80000001192092896     
   3.9256894267154330        1.3695896617372938        4.1507837132219665       0.60000002384185791       0.60000002384185791       0.60000002384185791       0.80000001192092896     
   4.9799921363060502      -0.81673483384151224        3.2775071126013784       0.60000002384185791       0.60000002384185791       0.60000002384185791       0.80000001192092896     
   4.9799921364802122       0.81673483382433876        3.2775071124705035       0.60000002384185791       0.60000002384185791       0.60000002384185791       0.80000001192092896     
 -0.53935418529265144       -1.5042007992209787        2.4223484141658171       0.60000002384185791       0.60000002384185791       0.60000002384185791       0.80000001192092896     
 -0.53935509288883177        1.5042006880000867        2.4223477613522406       0.60000002384185791       0.60000002384185791       0.60000002384185791       0.80000001192092896     
   3.0789506131450777       -1.4123865096959991        3.9319141824091877       0.60000002384185791       0.60000002384185791       0.60000002384185791       0.80000001192092896     
   3.0789505950401863        1.4123865105218714        3.9319141884258557       0.60000002384185791       0.60000002384185791       0.60000002384185791       0.80000001192092896     
  -3.8280199236733656        1.3717125965833368        4.2317613620650807       0.60000002384185791       0.60000002384185791       0.60000002384185791       0.80000001192092896     
  -3.8280252619779485       -1.3717127186093097        4.2317630613576389       0.60000002384185791       0.60000002384185791       0.60000002384185791       0.80000001192092896     
   4.3834317931018889       -1.2196933499777896        3.5994666200013095       0.60000002384185791       0.60000002384185791       0.60000002384185791       0.80000001192092896     
   4.3834317928697839        1.2196933503551222        3.5994666199245846       0.60000002384185791       0.60000002384185791       0.60000002384185791       0.80000001192092896     
  -3.1056694569259298        1.3994807179147040        3.9379245377748351       0.60000002384185791       0.60000002384185791       0.60000002384185791       0.80000001192092896     
  -3.1056694405340814       -1.3994808447704938        3.9379245646644359       0.60000002384185791       0.60000002384185791       0.60000002384185791       0.80000001192092896     
  -5.5136508277082470       -1.6922147922955023E-008   4.0682456684153019       0.60000002384185791       0.60000002384185791       0.60000002384185791       0.80000001192092896     
  -4.8224313173183591       0.57887611755562196        3.1761691005202293       0.60000002384185791       0.60000002384185791       0.60000002384185791       0.80000001192092896     
  -4.8224312564870768      -0.57887617995042440        3.1761691413892206       0.60000002384185791       0.60000002384185791       0.60000002384185791       0.80000001192092896     
  -4.6297891330642091        1.0416977791015578        3.4658514077926030       0.60000002384185791       0.60000002384185791       0.60000002384185791       0.80000001192092896     
  -4.6297891674383527       -1.0416980623391854        3.4658513901730901       0.60000002384185791       0.60000002384185791       0.60000002384185791       0.80000001192092896     
  0.66008514039164345        1.2585142416035409        1.8829222964823098       0.60000002384185791       0.60000002384185791       0.60000002384185791       0.80000001192092896     
  0.66008528410490974       -1.2585130226942751        1.8829236060082517       0.60000002384185791       0.60000002384185791       0.60000002384185791       0.80000001192092896     
   2.4343090206397258        1.0154884655248215        3.4555049318399762       0.60000002384185791       0.60000002384185791       0.60000002384185791       0.80000001192092896     
   2.4343090360988624       -1.0154883407496613        3.4555049338945283       0.60000002384185791       0.60000002384185791       0.60000002384185791       0.80000001192092896     
   5.6304349647974288       -5.4872306809122139E-012   3.9712214584743255       0.60000002384185791       0.60000002384185791       0.60000002384185791       0.80000001192092896     
  -4.0896914093362842        1.2933464419862768        3.5497458205331345       0.60000002384185791       0.60000002384185791       0.60000002384185791       0.80000001192092896     
  -4.0896915473878543       -1.2933466914354332        3.5497457300581363       0.60000002384185791       0.60000002384185791       0.60000002384185791       0.80000001192092896     
   5.0787233311845054E-003   1.2402407110762550        1.7963431457598840       0.60000002384185791       0.60000002384185791       0.60000002384185791       0.80000001192092896     
   5.0787741622233453E-003  -1.2402406259567424        1.7963429890521174       0.60000002384185791       0.60000002384185791       0.60000002384185791       0.80000001192092896     
  0.94147474143172949       0.76236001851659796        1.7516569675882065       0.60000002384185791       0.60000002384185791       0.60000002384185791       0.80000001192092896     
  0.94147416282368135      -0.76235993247473577        1.7516572462954534       0.60000002384185791       0.60000002384185791       0.60000002384185791       0.80000001192092896     
  -2.5858788928408822        1.0514933000131945        3.4292220834002864       0.60000002384185791       0.60000002384185791       0.60000002384185791       0.80000001192092896     
  -2.5858789038551251       -1.0514933796931212        3.4292220549493933       0.60000002384185791       0.60000002384185791       0.60000002384185791       0.80000001192092896     
 -0.28551875069769350      -0.88184772754643703        1.6694688439945446       0.60000002384185791       0.60000002384185791       0.60000002384185791       0.80000001192092896     
 -0.28551267370536026       0.88185070976464974        1.6694885145116489       0.60000002384185791       0.60000002384185791       0.60000002384185791       0.80000001192092896     
   2.6054669175184020      -0.30355226323252721        3.0298975367536309       0.60000002384185791       0.60000002384185791       0.60000002384185791       0.80000001192092896     
   2.6054669117534344       0.30355227128682255        3.0298975367536309       0.60000002384185791       0.60000002384185791       0.60000002384185791       0.80000001192092896     
   3.6676466532907366       -1.0362012841865871        3.2501449783125840       0.60000002384185791       0.60000002384185791       0.60000002384185791       0.80000001192092896     
   3.6676466510836430        1.0362012838317922        3.2501449785348955       0.60000002384185791       0.60000002384185791       0.60000002384185791       0.80000001192092896     
 -0.91300438349526036       -1.6971334134334408        4.0247748836538957       0.60000002384185791       0.60000002384185791       0.60000002384185791       0.80000001192092896     
  
   3   0  24  45
   3   0  45  24
   3   0  45  85
   3   0  85  28
   3   0  85  45
   3   0  28  85
   3   1  28  85
   3   1  85  46
   3   1  85  28
   3   1  46  85
   3   1  46  25
   3   1  25  46
   3   2  35 109
   3   2  35  31
   3   2  31  35
   3   2  31   6
   3   2   6  31
   3   2   9 109
   3   2 109  35
   3   2 109   9
   3   3  26  57
   3   3  57  26
   4   3  57  58   4
   3   4  58  27
   4   4  58  57   3
   3   4  27  58
   3   5   7  32
   3   5  32  36
   3   5  32   7
   3   5  36  32
   3   5  36  69
   3   5  69  36
   3   5  69   8
   3   5   8  69
   3   6   2  31
   3   6  31   2
   3   6  31  64
   3   6  64  10
   3   6  64  31
   3   6  10  64
   3   7  11  37
   3   7  37  32
   3   7  37  11
   3   7  32  37
   3   7  32   5
   3   7   5  32
   3   8   5  69
   3   8  69   5
   3   8  69  33
   3   8  33  12
   3   8  33  69
   3   8  12  33
   3   9  13  34
   3   9  34 109
   3   9  34  13
   3   9 109  34
   3   9 109   2
   3   9   2 109
   3  10   6  64
   3  10  64  14
   3  10  64   6
   3  10  14  64
   3  11  15  37
   3  11  37   7
   3  11  37  15
   3  11   7  37
   3  12   8  33
   3  12  33  16
   3  12  33   8
   3  12  16  33
   3  13  17  34
   3  13  34   9
   3  13  34  17
   3  13   9  34
   3  14  10  64
   3  14  64  77
   3  14  64  10
   3  14  77  64
   3  14  77  71
   3  14  71  77
   3  14  71  18
   3  14  18  71
   3  15  19  72
   3  15  72  78
   3  15  72  19
   3  15  78  72
   3  15  78  37
   3  15  37  11
   3  15  37  78
   3  15  11  37
   3  16  12  33
   3  16  33  83
   3  16  33  12
   3  16  83  33
   3  16  83  79
   3  16  79  83
   3  16  79  20
   3  16  20  79
   3  17  21  80
   3  17  80  84
   3  17  80  21
   3  17  84  80
   3  17  84  34
   3  17  34  13
   3  17  34  84
   3  17  13  34
   3  18  14  71
   3  18  71  14
   3  18  71  49
   3  18  49  71
   3  18  49  22
   3  18  22  49
   3  19  23  50
   3  19  50  72
   3  19  50  23
   3  19  72  50
   3  19  72  15
   3  19  15  72
   3  20  16  79
   3  20  79  16
   3  20  79  66
   3  20  66  79
   3  20  66  24
   3  20  24  66
   3  21  25  67
   3  21  67  80
   3  21  67  25
   3  21  80  67
   3  21  80  17
   3  21  17  80
   3  22  18  49
   3  22  49  18
   3  22  49  39
   3  22  39  26
   3  22  39  49
   3  22  26  39
   3  23  27  40
   3  23  40  50
   3  23  40  27
   3  23  50  40
   3  23  50  19
   3  23  19  50
   3  24  20  66
   3  24  66  20
   3  24  66  45
   3  24  45   0
   3  24  45  66
   3  24   0  45
   3  25   1  46
   3  25  46   1
   3  25  46  67
   3  25  67  46
   3  25  67  21
   3  25  21  67
   3  26  22  39
   3  26  39  57
   3  26  39  22
   3  26  57   3
   3  26  57  39
   3  26   3  57
   3  27   4  58
   3  27  58   4
   3  27  58  40
   3  27  40  58
   3  27  40  23
   3  27  23  40
   3  28   0  85
   3  28  85   1
   3  28  85   0
   3  28   1  85
   3  29  33  42
   3  29  33  59
   3  29  42  33
   3  29  42  76
   3  29  76  51
   3  29  76  42
   3  29  51  76
   4  29  51  52  30
   3  29  30  59
   4  29  30  52  51
   3  29  59  30
   3  29  59  33
   3  30  34  59
   3  30  34  41
   3  30  59  29
   3  30  59  34
   3  30  29  59
   4  30  29  51  52
   3  30  52  75
   4  30  52  51  29
   3  30  75  52
   3  30  75  41
   3  30  41  34
   3  30  41  75
   3  31   2  35
   3  31   2   6
   3  31  35  54
   3  31  35   2
   3  31  54  35
   3  31  54  68
   3  31  68  64
   3  31  68  54
   3  31  64   6
   3  31  64  68
   3  31   6   2
   3  31   6  64
   3  32  37  65
   3  32  37   7
   3  32  65  37
   3  32  65  55
   3  32  55  65
   3  32  55  36
   3  32  36  55
   3  32  36   5
   3  32   5   7
   3  32   5  36
   3  32   7  37
   3  32   7   5
   3  33 101  59
   3  33 101  83
   3  33  83 101
   3  33  83  16
   3  33  16  12
   3  33  16  83
   3  33  12   8
   3  33  12  16
   3  33   8  69
   3  33   8  12
   3  33  69  42
   3  33  69   8
   3  33  42  29
   3  33  42  69
   3  33  29  42
   3  33  29  59
   3  33  59  29
   3  33  59 101
   3  34 102  84
   3  34 102  59
   3  34  59  30
   3  34  59 102
   3  34  30  59
   3  34  30  41
   3  34  41 109
   3  34  41  30
   3  34 109  41
   3  34 109   9
   3  34   9  13
   3  34   9 109
   3  34  13  17
   3  34  13   9
   3  34  17  84
   3  34  17  13
   3  34  84 102
   3  34  84  17
   3  35 109  41
   3  35 109   2
   3  35  41 109
   3  35  41  62
   3  35  62  41
   3  35  62  54
   3  35  54  62
   3  35  54  31
   3  35  31   2
   3  35  31  54
   3  35   2  31
   3  35   2 109
   3  36  32  55
   3  36  32   5
   3  36  55  63
   3  36  55  32
   3  36  63  55
   3  36  63  42
   3  36  42  69
   3  36  42  63
   3  36  69   5
   3  36  69  42
   3  36   5  32
   3  36   5  69
   3  37  92  78
   3  37  92  56
   3  37  56  53
   3  37  56  92
   3  37  53  56
   3  37  53  65
   3  37  65  53
   3  37  65  32
   3  37  32  65
   3  37  32   7
   3  37   7  11
   3  37   7  32
   3  37  11  15
   3  37  11   7
   3  37  15  78
   3  37  15  11
   3  37  78  92
   3  37  78  15
   3  38  73  81
   4  38  73  74  43
   3  38  81  73
   3  38  81 107
   3  38 107  81
   3  38 107  77
   3  38  77  93
   3  38  77 107
   3  38  93  77
   4  38  93  56 105
   3  39  57  26
   3  39  57  94
   3  39  26  22
   3  39  26  57
   3  39  22  49
   3  39  22  26
   3  39  49  81
   3  39  49  22
   3  39  81  73
   3  39  81  49
   3  39  73  94
   3  39  73  81
   3  39  94  73
   3  39  94  57
   3  40  58  94
   3  40  58  27
   3  40  94  74
   3  40  94  58
   3  40  74  94
   3  40  74  82
   3  40  82  50
   3  40  82  74
   3  40  50  82
   3  40  50  23
   3  40  23  27
   3  40  23  50
   3  40  27  58
   3  40  27  23
   3  41  35 109
   3  41  35  62
   3  41 109  34
   3  41 109  35
   3  41  34  30
   3  41  34 109
   3  41  30  34
   3  41  30  75
   3  41  75  30
   3  41  75  62
   3  41  62  75
   3  41  62  35
   3  42  29  33
   3  42  29  76
   3  42  33  69
   3  42  33  29
   3  42  69  36
   3  42  69  33
   3  42  36  63
   3  42  36  69
   3  42  63  76
   3  42  63  36
   3  42  76  63
   3  42  76  29
   3  43  74  82
   4  43  74  73  38
   3  43  92  78
   4  43  92  56 106
   3  43  78 108
   3  43  78  92
   3  43 108  78
   3  43 108  82
   3  43  82  74
   3  43  82 108
   3  44  88  86
   3  44  88  95
   3  44  95  88
   3  44  95  79
   3  44  79  83
   3  44  79  95
   3  44  83 101
   3  44  83  79
   3  44 101  59
   3  44 101  83
   3  44  59  47
   3  44  59 101
   3  44  47  59
   4  44  47  87  86
   3  44  86  88
   4  44  86  87  47
   3  45   0  24
   3  45   0  85
   3  45  24  66
   3  45  24   0
   3  45  66  88
   3  45  66  24
   3  45  88  85
   3  45  88  66
   3  45  85   0
   3  45  85  88
   3  46   1  85
   3  46   1  25
   3  46  85  89
   3  46  85   1
   3  46  89  85
   3  46  89  67
   3  46  67  89
   3  46  67  25
   3  46  25   1
   3  46  25  67
   3  47  89  87
   3  47  89  96
   3  47  87  89
   4  47  87  86  44
   3  47  44  59
   4  47  44  86  87
   3  47  59 102
   3  47  59  44
   3  47 102  84
   3  47 102  59
   3  47  84  80
   3  47  84 102
   3  47  80  96
   3  47  80  84
   3  47  96  80
   3  47  96  89
   3  48  97  90
   3  48  97 104
   3  48  90  99
   3  48  90  97
   3  48  99  90
   3  48  99  70
   3  48  70 100
   3  48  70  99
   3  48 100  70
   3  48 100  91
   3  48  91  98
   3  48  91 100
   3  48  98  91
   3  48  98 103
   3  48 103  98
   3  48 103  52
   3  48  52  51
   3  48  52 103
   3  48  51 104
   3  48  51  52
   3  48 104  51
   3  48 104  97
   3  49  18  71
   3  49  18  22
   3  49  71  81
   3  49  71  18
   3  49  81  39
   3  49  81  71
   3  49  39  22
   3  49  39  81
   3  49  22  18
   3  49  22  39
   3  50  40  82
   3  50  40  23
   3  50  82  72
   3  50  82  40
   3  50  72  82
   3  50  72  19
   3  50  19  23
   3  50  19  72
   3  50  23  40
   3  50  23  19
   3  51  29  76
   4  51  29  30  52
   3  51  76 104
   3  51  76  29
   3  51 104  76
   3  51 104  48
   3  51  48  52
   3  51  48 104
   3  51  52  48
   4  51  52  30  29
   3  52  30  75
   4  52  30  29  51
   3  52  51  48
   4  52  51  29  30
   3  52  48 103
   3  52  48  51
   3  52 103  75
   3  52 103  48
   3  52  75  30
   3  52  75 103
   3  53  37  56
   3  53  37  65
   3  53  56  37
   3  53  56  64
   3  53  64  68
   3  53  64  56
   3  53  68  61
   3  53  68  64
   3  53  61  70
   3  53  61  68
   3  53  70  60
   3  53  70  61
   3  53  60  70
   3  53  60  65
   3  53  65  37
   3  53  65  60
   3  54  35  62
   3  54  35  31
   3  54  62  91
   3  54  62  35
   3  54  91  61
   3  54  91  62
   3  54  61  91
   3  54  61  68
   3  54  68  61
   3  54  68  31
   3  54  31  35
   3  54  31  68
   3  55  65  60
   3  55  65  32
   3  55  60  90
   3  55  60  65
   3  55  90  63
   3  55  90  60
   3  55  63  90
   3  55  63  36
   3  55  36  32
   3  55  36  63
   3  55  32  65
   3  55  32  36
   3  56  53  37
   3  56  53  64
   3  56  37  92
   3  56  37  53
   3  56  92  37
   4  56  92  43 106
   3  56 106 105
   4  56 106  43  92
   3  56 105 106
   4  56 105  38  93
   3  56  93  64
   4  56  93  38 105
   3  56  64  93
   3  56  64  53
   3  57   3  26
   4  57   3   4  58
   3  57  26  39
   3  57  26   3
   3  57  39  26
   3  57  39  94
   3  57  94  58
   3  57  94  39
   3  57  58  94
   4  57  58   4   3
   3  58   4  27
   4  58   4   3  57
   3  58  57  94
   4  58  57   3   4
   3  58  94  40
   3  58  94  57
   3  58  40  94
   3  58  40  27
   3  58  27   4
   3  58  27  40
   3  59  29  33
   3  59  29  30
   3  59  30  34
   3  59  30  29
   3  59  34 102
   3  59  34  30
   3  59 102  47
   3  59 102  34
   3  59  47  44
   3  59  47 102
   3  59  44 101
   3  59  44  47
   3  59 101  44
   3  59 101  33
   3  59  33 101
   3  59  33  29
   3  60  53  70
   3  60  53  65
   3  60  70  53
   3  60  70  99
   3  60  99  90
   3  60  99  70
   3  60  90  55
   3  60  90  99
   3  60  55  65
   3  60  55  90
   3  60  65  53
   3  60  65  55
   3  61  54  91
   3  61  54  68
   3  61  91  54
   3  61  91 100
   3  61 100  70
   3  61 100  91
   3  61  70  53
   3  61  70 100
   3  61  53  68
   3  61  53  70
   3  61  68  53
   3  61  68  54
   3  62  41  35
   3  62  41  75
   3  62  75  98
   3  62  75  41
   3  62  98  91
   3  62  98  75
   3  62  91  54
   3  62  91  98
   3  62  54  35
   3  62  54  91
   3  62  35  41
   3  62  35  54
   3  63  55  90
   3  63  55  36
   3  63  90  55
   3  63  90  97
   3  63  97  76
   3  63  97  90
   3  63  76  97
   3  63  76  42
   3  63  42  36
   3  63  42  76
   3  63  36  55
   3  63  36  42
   3  64  93  77
   3  64  93  56
   3  64  77  93
   3  64  77  14
   3  64  14  10
   3  64  14  77
   3  64  10   6
   3  64  10  14
   3  64   6  31
   3  64   6  10
   3  64  31  68
   3  64  31   6
   3  64  68  53
   3  64  68  31
   3  64  53  56
   3  64  53  68
   3  64  56  53
   3  64  56  93
   3  65  37  53
   3  65  37  32
   3  65  53  37
   3  65  53  60
   3  65  60  53
   3  65  60  55
   3  65  55  60
   3  65  55  32
   3  65  32  37
   3  65  32  55
   3  66  20  79
   3  66  20  24
   3  66  79  95
   3  66  79  20
   3  66  95  88
   3  66  95  79
   3  66  88  45
   3  66  88  95
   3  66  45  24
   3  66  45  88
   3  66  24  20
   3  66  24  45
   3  67  46  89
   3  67  46  25
   3  67  89  96
   3  67  89  46
   3  67  96  80
   3  67  96  89
   3  67  80  96
   3  67  80  21
   3  67  21  25
   3  67  21  80
   3  67  25  46
   3  67  25  21
   3  68  61  54
   3  68  61  53
   3  68  53  64
   3  68  53  61
   3  68  64  31
   3  68  64  53
   3  68  31  54
   3  68  31  64
   3  68  54  61
   3  68  54  31
   3  69   5  36
   3  69   5   8
   3  69  36  42
   3  69  36   5
   3  69  42  33
   3  69  42  36
   3  69  33   8
   3  69  33  42
   3  69   8   5
   3  69   8  33
   3  70  60  53
   3  70  60  99
   3  70  53  61
   3  70  53  60
   3  70  61 100
   3  70  61  53
   3  70 100  61
   3  70 100  48
   3  70  48  99
   3  70  48 100
   3  70  99  60
   3  70  99  48
   3  71  14  77
   3  71  14  18
   3  71  77 107
   3  71  77  14
   3  71 107  81
   3  71 107  77
   3  71  81  49
   3  71  81 107
   3  71  49  18
   3  71  49  81
   3  71  18  14
   3  71  18  49
   3  72  50  82
   3  72  50  19
   3  72  82  50
   3  72  82 108
   3  72 108  78
   3  72 108  82
   3  72  78 108
   3  72  78  15
   3  72  15  19
   3  72  15  78
   3  72  19  50
   3  72  19  15
   3  73  38  81
   4  73  38  43  74
   3  73  74  94
   4  73  74  43  38
   3  73  94  74
   3  73  94  39
   3  73  39  81
   3  73  39  94
   3  73  81  39
   3  73  81  38
   3  74  40  94
   3  74  40  82
   3  74  94  73
   3  74  94  40
   3  74  73  94
   4  74  73  38  43
   3  74  43  82
   4  74  43  38  73
   3  74  82  40
   3  74  82  43
   3  75  30  52
   3  75  30  41
   3  75  52  30
   3  75  52 103
   3  75 103  98
   3  75 103  52
   3  75  98  62
   3  75  98 103
   3  75  62  41
   3  75  62  98
   3  75  41  30
   3  75  41  62
   3  76  63  97
   3  76  63  42
   3  76  97  63
   3  76  97 104
   3  76 104  51
   3  76 104  97
   3  76  51  29
   3  76  51 104
   3  76  29  42
   3  76  29  51
   3  76  42  29
   3  76  42  63
   3  77  64  93
   3  77  64  14
   3  77  93  64
   3  77  93  38
   3  77  38 107
   3  77  38  93
   3  77 107  71
   3  77 107  38
   3  77  71  14
   3  77  71 107
   3  77  14  64
   3  77  14  71
   3  78  72 108
   3  78  72  15
   3  78 108  72
   3  78 108  43
   3  78  43  92
   3  78  43 108
   3  78  92  43
   3  78  92  37
   3  78  37  92
   3  78  37  15
   3  78  15  72
   3  78  15  37
   3  79  16  83
   3  79  16  20
   3  79  83  44
   3  79  83  16
   3  79  44  95
   3  79  44  83
   3  79  95  66
   3  79  95  44
   3  79  66  20
   3  79  66  95
   3  79  20  16
   3  79  20  66
   3  80  67  96
   3  80  67  21
   3  80  96  67
   3  80  96  47
   3  80  47  84
   3  80  47  96
   3  80  84  47
   3  80  84  17
   3  80  17  21
   3  80  17  84
   3  80  21  67
   3  80  21  17
   3  81  73  38
   3  81  73  39
   3  81  39  49
   3  81  39  73
   3  81  49  71
   3  81  49  39
   3  81  71 107
   3  81  71  49
   3  81 107  71
   3  81 107  38
   3  81  38  73
   3  81  38 107
   3  82  72  50
   3  82  72 108
   3  82  50  40
   3  82  50  72
   3  82  40  74
   3  82  40  50
   3  82  74  40
   3  82  74  43
   3  82  43  74
   3  82  43 108
   3  82 108  72
   3  82 108  43
   3  83  33 101
   3  83  33  16
   3  83 101  44
   3  83 101  33
   3  83  44  79
   3  83  44 101
   3  83  79  16
   3  83  79  44
   3  83  16  33
   3  83  16  79
   3  84  80  47
   3  84  80  17
   3  84  47 102
   3  84  47  80
   3  84 102  47
   3  84 102  34
   3  84  34 102
   3  84  34  17
   3  84  17  80
   3  84  17  34
   3  85  86  87
   3  85  86  88
   3  85  87  89
   3  85  87  86
   3  85  89  87
   3  85  89  46
   3  85  46   1
   3  85  46  89
   3  85   1  28
   3  85   1  46
   3  85  28   0
   3  85  28   1
   3  85   0  45
   3  85   0  28
   3  85  45   0
   3  85  45  88
   3  85  88  86
   3  85  88  45
   3  86  44  88
   4  86  44  47  87
   3  86  87  85
   4  86  87  47  44
   3  86  85  87
   3  86  85  88
   3  86  88  85
   3  86  88  44
   3  87  47  89
   4  87  47  44  86
   3  87  89  85
   3  87  89  47
   3  87  85  86
   3  87  85  89
   3  87  86  85
   4  87  86  44  47
   3  88  86  44
   3  88  86  85
   3  88  85  86
   3  88  85  45
   3  88  45  66
   3  88  45  85
   3  88  66  95
   3  88  66  45
   3  88  95  66
   3  88  95  44
   3  88  44  95
   3  88  44  86
   3  89  85  87
   3  89  85  46
   3  89  87  47
   3  89  87  85
   3  89  47  87
   3  89  47  96
   3  89  96  67
   3  89  96  47
   3  89  67  46
   3  89  67  96
   3  89  46  85
   3  89  46  67
   3  90  63  55
   3  90  63  97
   3  90  55  60
   3  90  55  63
   3  90  60  99
   3  90  60  55
   3  90  99  60
   3  90  99  48
   3  90  48  97
   3  90  48  99
   3  90  97  63
   3  90  97  48
   3  91  61  54
   3  91  61 100
   3  91  54  62
   3  91  54  61
   3  91  62  98
   3  91  62  54
   3  91  98  62
   3  91  98  48
   3  91  48 100
   3  91  48  98
   3  91 100  61
   3  91 100  48
   3  92  78  43
   3  92  78  37
   3  92  43  78
   4  92  43 106  56
   3  92  56  37
   4  92  56 106  43
   3  92  37  56
   3  92  37  78
   3  93  77  64
   3  93  77  38
   3  93  64  77
   3  93  64  56
   3  93  56  64
   4  93  56 105  38
   3  93  38  77
   4  93  38 105  56
   3  94  73  74
   3  94  73  39
   3  94  74  40
   3  94  74  73
   3  94  40  58
   3  94  40  74
   3  94  58  57
   3  94  58  40
   3  94  57  39
   3  94  57  58
   3  94  39  57
   3  94  39  73
   3  95  88  66
   3  95  88  44
   3  95  66  79
   3  95  66  88
   3  95  79  44
   3  95  79  66
   3  95  44  88
   3  95  44  79
   3  96  80  67
   3  96  80  47
   3  96  67  89
   3  96  67  80
   3  96  89  47
   3  96  89  67
   3  96  47  89
   3  96  47  80
   3  97  76  63
   3  97  76 104
   3  97  63  90
   3  97  63  76
   3  97  90  63
   3  97  90  48
   3  97  48  90
   3  97  48 104
   3  97 104  76
   3  97 104  48
   3  98  91  62
   3  98  91  48
   3  98  62  75
   3  98  62  91
   3  98  75 103
   3  98  75  62
   3  98 103  75
   3  98 103  48
   3  98  48  91
   3  98  48 103
   3  99  90  60
   3  99  90  48
   3  99  60  70
   3  99  60  90
   3  99  70  60
   3  99  70  48
   3  99  48  90
   3  99  48  70
   3 100  70  61
   3 100  70  48
   3 100  61  91
   3 100  61  70
   3 100  91  61
   3 100  91  48
   3 100  48  70
   3 100  48  91
   3 101  59  44
   3 101  59  33
   3 101  44  83
   3 101  44  59
   3 101  83  33
   3 101  83  44
   3 101  33  83
   3 101  33  59
   3 102  84  47
   3 102  84  34
   3 102  47  59
   3 102  47  84
   3 102  59  34
   3 102  59  47
   3 102  34  59
   3 102  34  84
   3 103  98  75
   3 103  98  48
   3 103  75  52
   3 103  75  98
   3 103  52  48
   3 103  52  75
   3 103  48  98
   3 103  48  52
   3 104  51  76
   3 104  51  48
   3 104  76  97
   3 104  76  51
   3 104  97  76
   3 104  97  48
   3 104  48  97
   3 104  48  51
   3 105  56 106
   4 105  56  93  38
   3 105 106  56
   4 105 106  43  38
   3 106 105  56
   4 106 105  38  43
   3 106  56 105
   4 106  56  92  43
   3 107  81  71
   3 107  81  38
   3 107  71  77
   3 107  71  81
   3 107  77  38
   3 107  77  71
   3 107  38  81
   3 107  38  77
   3 108  78  72
   3 108  78  43
   3 108  72  82
   3 108  72  78
   3 108  82  72
   3 108  82  43
   3 108  43  78
   3 108  43  82
   3 109  34  41
   3 109  34   9
   3 109  41  35
   3 109  41  34
   3 109  35  41
   3 109  35   2
   3 109   2  35
   3 109   2   9
   3 109   9  34
   3 109   9   2
