# Generated by dad_to_polygons. Vertex data from Humppa's .off file,
# polygons parsed from .dad file.
COFF
110 378 110
-6.494637 1.001143 5.227943 0.500000 0.500000 0.500000 1.0
-6.494637 -1.001143 5.227943 0.500000 0.500000 0.500000 1.0
-0.031294 -2.043120 4.947510 0.500000 0.500000 0.500000 1.0
7.340987 -0.924566 5.360460 0.500000 0.500000 0.500000 1.0
7.340987 0.924566 5.360460 0.500000 0.500000 0.500000 1.0
-0.031294 2.043120 4.947510 0.500000 0.500000 0.500000 1.0
1.093552 -1.739427 5.072606 0.500000 0.500000 0.500000 1.0
1.093552 1.739427 5.072606 0.500000 0.500000 0.500000 1.0
-1.117488 1.721136 5.044892 0.500000 0.500000 0.500000 1.0
-1.117488 -1.721136 5.044892 0.500000 0.500000 0.500000 1.0
2.017893 -1.434293 5.302646 0.500000 0.500000 0.500000 1.0
2.017893 1.434293 5.302646 0.500000 0.500000 0.500000 1.0
-2.045938 1.438525 5.285891 0.500000 0.500000 0.500000 1.0
-2.045938 -1.438525 5.285891 0.500000 0.500000 0.500000 1.0
3.019225 -1.533833 5.130119 0.500000 0.500000 0.500000 1.0
3.019225 1.533833 5.130119 0.500000 0.500000 0.500000 1.0
-3.011461 1.526904 5.042206 0.500000 0.500000 0.500000 1.0
-3.011461 -1.526904 5.042206 0.500000 0.500000 0.500000 1.0
4.031089 -1.444313 5.326560 0.500000 0.500000 0.500000 1.0
4.031089 1.444313 5.326560 0.500000 0.500000 0.500000 1.0
-4.007539 1.440600 5.276131 0.500000 0.500000 0.500000 1.0
-4.007539 -1.440600 5.276131 0.500000 0.500000 0.500000 1.0
5.016694 -1.244700 5.348248 0.500000 0.500000 0.500000 1.0
5.016694 1.244700 5.348248 0.500000 0.500000 0.500000 1.0
-5.021418 1.245599 5.254080 0.500000 0.500000 0.500000 1.0
-5.021418 -1.245599 5.254080 0.500000 0.500000 0.500000 1.0
6.017104 -1.114332 5.368101 0.500000 0.500000 0.500000 1.0
6.017104 1.114332 5.368101 0.500000 0.500000 0.500000 1.0
-6.518958 -0.000000 5.227950 0.500000 0.500000 0.500000 1.0
-1.705261 0.817592 3.040545 0.500000 0.500000 0.500000 1.0
-1.705261 -0.817593 3.040545 0.500000 0.500000 0.500000 1.0
0.862836 -1.690194 3.808096 0.500000 0.500000 0.500000 1.0
0.862836 1.690194 3.808096 0.500000 0.500000 0.500000 1.0
-2.057501 1.444819 4.214337 0.500000 0.500000 0.500000 1.0
-2.057501 -1.444819 4.214337 0.500000 0.500000 0.500000 1.0
0.024662 -1.785785 3.701770 0.500000 0.500000 0.500000 1.0
0.024595 1.785933 3.701769 0.500000 0.500000 0.500000 1.0
2.039534 1.403881 4.297378 0.500000 0.500000 0.500000 1.0
3.363178 -0.619362 2.341013 1.0 1.0 0.0 1.0
5.493028 -1.117577 4.360148 0.500000 0.500000 0.500000 1.0
5.493028 1.117577 4.360148 0.500000 0.500000 0.500000 1.0
-0.699554 -1.686730 3.206606 0.500000 0.500000 0.500000 1.0
-0.699554 1.686729 3.206606 0.500000 0.500000 0.500000 1.0
3.363178 0.619362 2.341013 1.0 1.0 0.0 1.0
-3.399031 0.659541 2.528474 1.0 1.0 0.0 1.0
-5.053155 1.213151 4.346677 0.500000 0.500000 0.500000 1.0
-5.053162 -1.213150 4.346676 0.500000 0.500000 0.500000 1.0
-3.399031 -0.659541 2.528474 1.0 1.0 0.0 1.0
0.044970 0.000000 1.030606 1.0 1.0 0.0 1.0
4.516341 -1.345897 4.641971 0.500000 0.500000 0.500000 1.0
4.516341 1.345897 4.641971 0.500000 0.500000 0.500000 1.0
-1.380296 0.837989 1.827199 0.500000 0.500000 0.500000 1.0
-1.380294 -0.837989 1.827200 0.500000 0.500000 0.500000 1.0
1.728198 0.000000 3.184018 0.500000 0.500000 0.500000 1.0
0.773149 -1.666027 2.744467 0.500000 0.500000 0.500000 1.0
0.773126 1.666347 2.744463 0.500000 0.500000 0.500000 1.0
2.039534 -0.000000 3.794129 0.500000 0.500000 0.500000 1.0
6.634017 -0.759018 4.595417 1.0 1.0 0.0 1.0
6.634017 0.759018 4.595417 1.0 1.0 0.0 1.0
-2.057266 -0.000000 3.642714 0.500000 0.500000 0.500000 1.0
1.169083 1.217777 2.526322 0.500000 0.500000 0.500000 1.0
1.169084 -1.217778 2.526321 0.500000 0.500000 0.500000 1.0
0.097483 -1.680162 2.650799 0.500000 0.500000 0.500000 1.0
0.097481 1.680163 2.650799 0.500000 0.500000 0.500000 1.0
2.039534 -1.403881 4.297378 0.500000 0.500000 0.500000 1.0
1.262920 1.555012 3.522239 0.500000 0.500000 0.500000 1.0
-4.521512 1.341531 4.452109 0.500000 0.500000 0.500000 1.0
-4.521466 -1.341615 4.452108 0.500000 0.500000 0.500000 1.0
1.262917 -1.555013 3.522235 0.500000 0.500000 0.500000 1.0
-0.913004 1.697133 4.024775 0.500000 0.500000 0.500000 1.0
1.403302 -0.000000 2.379551 0.500000 0.500000 0.500000 1.0
3.925689 -1.369590 4.150784 0.500000 0.500000 0.500000 1.0
3.925689 1.369590 4.150784 0.500000 0.500000 0.500000 1.0
4.979992 -0.816735 3.277507 0.500000 0.500000 0.500000 1.0
4.979992 0.816735 3.277507 0.500000 0.500000 0.500000 1.0
-0.539354 -1.504201 2.422348 0.500000 0.500000 0.500000 1.0
-0.539355 1.504201 2.422348 0.500000 0.500000 0.500000 1.0
3.078951 -1.412387 3.931914 0.500000 0.500000 0.500000 1.0
3.078951 1.412387 3.931914 0.500000 0.500000 0.500000 1.0
-3.828020 1.371713 4.231761 0.500000 0.500000 0.500000 1.0
-3.828025 -1.371713 4.231763 0.500000 0.500000 0.500000 1.0
4.383432 -1.219693 3.599467 0.500000 0.500000 0.500000 1.0
4.383432 1.219693 3.599467 0.500000 0.500000 0.500000 1.0
-3.105669 1.399481 3.937925 0.500000 0.500000 0.500000 1.0
-3.105669 -1.399481 3.937925 0.500000 0.500000 0.500000 1.0
-5.513651 -0.000000 4.068246 0.500000 0.500000 0.500000 1.0
-4.822431 0.578876 3.176169 0.500000 0.500000 0.500000 1.0
-4.822431 -0.578876 3.176169 0.500000 0.500000 0.500000 1.0
-4.629789 1.041698 3.465851 0.500000 0.500000 0.500000 1.0
-4.629789 -1.041698 3.465851 0.500000 0.500000 0.500000 1.0
0.660085 1.258514 1.882922 0.500000 0.500000 0.500000 1.0
0.660085 -1.258513 1.882924 0.500000 0.500000 0.500000 1.0
2.434309 1.015488 3.455505 0.500000 0.500000 0.500000 1.0
2.434309 -1.015488 3.455505 0.500000 0.500000 0.500000 1.0
5.630435 -0.000000 3.971221 0.500000 0.500000 0.500000 1.0
-4.089691 1.293346 3.549746 0.500000 0.500000 0.500000 1.0
-4.089692 -1.293347 3.549746 0.500000 0.500000 0.500000 1.0
0.005079 1.240241 1.796343 0.500000 0.500000 0.500000 1.0
0.005079 -1.240241 1.796343 0.500000 0.500000 0.500000 1.0
0.941475 0.762360 1.751657 0.500000 0.500000 0.500000 1.0
0.941474 -0.762360 1.751657 0.500000 0.500000 0.500000 1.0
-2.585879 1.051493 3.429222 0.500000 0.500000 0.500000 1.0
-2.585879 -1.051493 3.429222 0.500000 0.500000 0.500000 1.0
-0.285519 -0.881848 1.669469 0.500000 0.500000 0.500000 1.0
-0.285513 0.881851 1.669489 0.500000 0.500000 0.500000 1.0
2.605467 -0.303552 3.029898 0.500000 0.500000 0.500000 1.0
2.605467 0.303552 3.029898 0.500000 0.500000 0.500000 1.0
3.667647 -1.036201 3.250145 0.500000 0.500000 0.500000 1.0
3.667647 1.036201 3.250145 0.500000 0.500000 0.500000 1.0
-0.913004 -1.697133 4.024775 0.500000 0.500000 0.500000 1.0
3 1 28 85
3 1 85 28
3 1 46 85
3 1 85 46
3 3 4 58
3 3 58 4
3 3 58 57
3 3 57 58
3 4 27 58
3 4 58 27
3 5 7 32
3 5 32 7
3 6 2 31
3 6 31 2
3 6 31 64
3 6 64 31
3 6 64 10
3 6 10 64
3 8 69 5
3 8 5 69
3 9 2 109
3 9 109 2
3 11 37 7
3 11 7 37
3 12 33 16
3 12 16 33
3 13 17 34
3 13 34 17
3 14 10 64
3 14 64 10
3 15 37 11
3 15 11 37
3 16 83 79
3 16 79 83
3 17 21 80
3 17 80 21
3 17 84 34
3 17 34 84
3 18 14 71
3 18 71 14
3 18 71 49
3 18 49 71
3 19 72 15
3 19 15 72
3 22 18 49
3 22 49 18
3 22 49 39
3 22 39 49
3 23 27 40
3 23 40 27
3 23 40 50
3 23 50 40
3 23 50 19
3 23 19 50
3 24 20 66
3 24 66 20
3 24 45 0
3 24 0 45
3 25 1 46
3 25 46 1
3 25 21 67
3 25 67 21
3 25 46 67
3 25 67 46
3 26 22 39
3 26 39 22
3 26 39 57
3 26 57 39
3 28 0 85
3 28 85 0
3 29 30 59
3 29 59 30
3 30 29 51
3 30 51 29
3 30 34 59
3 30 59 34
3 30 41 34
3 30 34 41
3 30 51 52
3 30 52 51
3 30 52 75
3 30 75 52
3 30 75 41
3 30 41 75
3 31 2 35
3 31 35 2
3 31 35 54
3 31 54 35
3 31 64 68
3 31 68 64
3 32 36 5
3 32 5 36
3 32 37 65
3 32 65 37
3 33 8 69
3 33 69 8
3 33 12 8
3 33 8 12
3 33 29 59
3 33 59 29
3 33 42 69
3 33 69 42
3 34 9 13
3 34 13 9
3 34 41 109
3 34 109 41
3 34 59 102
3 34 102 59
3 34 102 84
3 34 84 102
3 34 109 9
3 34 9 109
3 35 62 54
3 35 54 62
3 36 32 55
3 36 55 32
3 36 69 42
3 36 42 69
3 37 7 32
3 37 32 7
3 37 53 56
3 37 56 53
3 37 78 15
3 37 15 78
3 37 78 92
3 37 92 78
3 37 92 56
3 37 56 92
3 38 43 74
3 38 74 43
3 38 43 106
3 38 106 43
3 38 74 73
3 38 73 74
3 38 81 107
3 38 107 81
3 38 93 77
3 38 77 93
3 38 106 105
3 38 105 106
3 38 107 77
3 38 77 107
3 39 81 49
3 39 49 81
3 39 81 73
3 39 73 81
3 39 94 57
3 39 57 94
3 40 58 27
3 40 27 58
3 40 94 58
3 40 58 94
3 41 35 62
3 41 62 35
3 42 29 33
3 42 33 29
3 42 29 76
3 42 76 29
3 42 63 36
3 42 36 63
3 42 76 63
3 42 63 76
3 43 74 82
3 43 82 74
3 43 78 108
3 43 108 78
3 43 92 78
3 43 78 92
3 44 47 59
3 44 59 47
3 44 59 101
3 44 101 59
3 44 83 79
3 44 79 83
3 44 86 87
3 44 87 86
3 44 87 47
3 44 47 87
3 44 95 88
3 44 88 95
3 45 0 85
3 45 85 0
3 45 66 24
3 45 24 66
3 45 88 85
3 45 85 88
3 46 89 85
3 46 85 89
3 47 84 102
3 47 102 84
3 47 89 87
3 47 87 89
3 47 96 80
3 47 80 96
3 48 51 52
3 48 52 51
3 48 70 99
3 48 99 70
3 48 70 100
3 48 100 70
3 48 90 99
3 48 99 90
3 48 91 100
3 48 100 91
3 48 97 90
3 48 90 97
3 48 97 104
3 48 104 97
3 48 98 103
3 48 103 98
3 48 103 52
3 48 52 103
3 48 104 51
3 48 51 104
3 49 71 81
3 49 81 71
3 50 40 82
3 50 82 40
3 50 72 19
3 50 19 72
3 50 82 72
3 50 72 82
3 51 76 29
3 51 29 76
3 53 60 70
3 53 70 60
3 53 61 68
3 53 68 61
3 53 61 70
3 53 70 61
3 53 65 37
3 53 37 65
3 53 68 64
3 53 64 68
3 54 91 61
3 54 61 91
3 55 60 90
3 55 90 60
3 55 65 32
3 55 32 65
3 55 65 60
3 55 60 65
3 55 90 63
3 55 63 90
3 56 64 53
3 56 53 64
3 57 3 26
3 57 26 3
3 59 47 102
3 59 102 47
3 59 101 33
3 59 33 101
3 60 99 70
3 60 70 99
3 62 41 75
3 62 75 41
3 62 54 91
3 62 91 54
3 62 75 98
3 62 98 75
3 63 36 55
3 63 55 36
3 64 77 14
3 64 14 77
3 65 60 53
3 65 53 60
3 66 79 20
3 66 20 79
3 66 95 79
3 66 79 95
3 67 80 21
3 67 21 80
3 67 89 46
3 67 46 89
3 67 96 80
3 67 80 96
3 68 54 31
3 68 31 54
3 68 54 61
3 68 61 54
3 69 5 36
3 69 36 5
3 70 61 100
3 70 100 61
3 71 77 14
3 71 14 77
3 72 15 78
3 72 78 15
3 72 108 78
3 72 78 108
3 73 81 38
3 73 38 81
3 74 40 94
3 74 94 40
3 74 73 94
3 74 94 73
3 75 98 103
3 75 103 98
3 75 103 52
3 75 52 103
3 76 63 97
3 76 97 63
3 76 97 104
3 76 104 97
3 77 93 64
3 77 64 93
3 79 16 20
3 79 20 16
3 79 44 95
3 79 95 44
3 80 47 84
3 80 84 47
3 80 84 17
3 80 17 84
3 82 74 40
3 82 40 74
3 82 108 72
3 82 72 108
3 83 16 33
3 83 33 16
3 83 33 101
3 83 101 33
3 83 101 44
3 83 44 101
3 85 86 87
3 85 87 86
3 85 88 86
3 85 86 88
3 85 89 87
3 85 87 89
3 86 44 88
3 86 88 44
3 88 45 66
3 88 66 45
3 88 95 66
3 88 66 95
3 89 67 96
3 89 96 67
3 90 97 63
3 90 63 97
3 91 62 98
3 91 98 62
3 92 43 106
3 92 106 43
3 92 106 56
3 92 56 106
3 93 56 105
3 93 105 56
3 93 64 56
3 93 56 64
3 93 105 38
3 93 38 105
3 94 58 57
3 94 57 58
3 94 73 39
3 94 39 73
3 96 47 89
3 96 89 47
3 98 48 91
3 98 91 48
3 99 90 60
3 99 60 90
3 100 61 91
3 100 91 61
3 104 51 76
3 104 76 51
3 106 105 56
3 106 56 105
3 107 71 81
3 107 81 71
3 107 77 71
3 107 71 77
3 108 43 82
3 108 82 43
3 109 2 35
3 109 35 2
3 109 35 41
3 109 41 35
