# Generated by dad_to_polygons. Vertex data from Humppa's .off file,
# polygons parsed from .dad file.
COFF
119 414 119
-6.534271 1.051599 5.569005 0.500000 0.500000 0.500000 1.0
-6.534271 -1.051598 5.569005 0.500000 0.500000 0.500000 1.0
-0.032139 -2.112574 5.277513 0.500000 0.500000 0.500000 1.0
7.422300 -0.994331 5.661614 0.500000 0.500000 0.500000 1.0
7.422300 0.994331 5.661614 0.500000 0.500000 0.500000 1.0
-0.032139 2.112574 5.277513 0.500000 0.500000 0.500000 1.0
1.108479 -1.807895 5.402691 0.500000 0.500000 0.500000 1.0
1.108479 1.807895 5.402691 0.500000 0.500000 0.500000 1.0
-1.130965 1.790061 5.374440 0.500000 0.500000 0.500000 1.0
-1.130965 -1.790061 5.374440 0.500000 0.500000 0.500000 1.0
2.030140 -1.500411 5.640236 0.500000 0.500000 0.500000 1.0
2.030140 1.500411 5.640236 0.500000 0.500000 0.500000 1.0
-2.057144 1.505908 5.622349 0.500000 0.500000 0.500000 1.0
-2.057144 -1.505908 5.622349 0.500000 0.500000 0.500000 1.0
3.024268 -1.620743 5.448694 0.500000 0.500000 0.500000 1.0
3.024268 1.620743 5.448694 0.500000 0.500000 0.500000 1.0
-3.013105 1.616775 5.351513 0.500000 0.500000 0.500000 1.0
-3.013105 -1.616775 5.351513 0.500000 0.500000 0.500000 1.0
4.042040 -1.517818 5.653829 0.500000 0.500000 0.500000 1.0
4.042040 1.517818 5.653829 0.500000 0.500000 0.500000 1.0
-4.018697 1.517423 5.599543 0.500000 0.500000 0.500000 1.0
-4.018697 -1.517423 5.599543 0.500000 0.500000 0.500000 1.0
5.028540 -1.318810 5.678030 0.500000 0.500000 0.500000 1.0
5.028540 1.318810 5.678030 0.500000 0.500000 0.500000 1.0
-5.033275 1.309690 5.592963 0.500000 0.500000 0.500000 1.0
-5.033275 -1.309690 5.592963 0.500000 0.500000 0.500000 1.0
6.032639 -1.217947 5.673425 0.500000 0.500000 0.500000 1.0
6.032640 1.217947 5.673426 0.500000 0.500000 0.500000 1.0
-7.430535 -0.000000 5.572879 0.500000 0.500000 0.500000 1.0
-1.689292 0.828884 3.278372 0.500000 0.500000 0.500000 1.0
-1.689292 -0.828885 3.278371 0.500000 0.500000 0.500000 1.0
0.884328 -1.753090 4.106410 0.500000 0.500000 0.500000 1.0
0.884328 1.753090 4.106410 0.500000 0.500000 0.500000 1.0
-2.063004 1.519319 4.551373 0.500000 0.500000 0.500000 1.0
-2.063004 -1.519319 4.551373 0.500000 0.500000 0.500000 1.0
0.023504 -1.850075 3.978959 0.500000 0.500000 0.500000 1.0
0.023610 1.850268 3.978959 0.500000 0.500000 0.500000 1.0
2.066368 1.475779 4.592718 0.500000 0.500000 0.500000 1.0
3.381389 -0.619062 2.341013 1.0 1.0 0.0 1.0
5.508797 -1.184144 4.661110 0.500000 0.500000 0.500000 1.0
5.508800 1.184143 4.661109 0.500000 0.500000 0.500000 1.0
-0.737612 -1.746346 3.497658 0.500000 0.500000 0.500000 1.0
-0.737612 1.746347 3.497658 0.500000 0.500000 0.500000 1.0
3.381389 0.619062 2.341013 1.0 1.0 0.0 1.0
-3.429228 0.660077 2.528474 1.0 1.0 0.0 1.0
-5.063951 1.271055 4.701205 0.500000 0.500000 0.500000 1.0
-5.063945 -1.271056 4.701204 0.500000 0.500000 0.500000 1.0
-3.429228 -0.660077 2.528474 1.0 1.0 0.0 1.0
0.064957 0.000000 1.030606 1.0 1.0 0.0 1.0
4.526905 -1.419964 4.956279 0.500000 0.500000 0.500000 1.0
4.527006 1.419676 4.956283 0.500000 0.500000 0.500000 1.0
-1.385192 0.917165 2.017661 0.500000 0.500000 0.500000 1.0
-1.385188 -0.917165 2.017662 0.500000 0.500000 0.500000 1.0
1.629350 0.000000 3.510206 0.500000 0.500000 0.500000 1.0
0.778550 -1.733598 3.035810 0.500000 0.500000 0.500000 1.0
0.778545 1.733912 3.035812 0.500000 0.500000 0.500000 1.0
2.066686 -0.000000 4.034675 0.500000 0.500000 0.500000 1.0
6.725150 -0.759194 4.595417 1.0 1.0 0.0 1.0
6.725150 0.759194 4.595417 1.0 1.0 0.0 1.0
-2.062768 -0.000000 3.837048 0.500000 0.500000 0.500000 1.0
1.141055 1.278682 2.799388 0.500000 0.500000 0.500000 1.0
1.141056 -1.278682 2.799388 0.500000 0.500000 0.500000 1.0
0.145828 -1.762918 2.909626 0.500000 0.500000 0.500000 1.0
0.145827 1.762921 2.909627 0.500000 0.500000 0.500000 1.0
2.066369 -1.475779 4.592718 0.500000 0.500000 0.500000 1.0
1.263294 1.628615 3.817592 0.500000 0.500000 0.500000 1.0
-4.528039 1.413077 4.757205 0.500000 0.500000 0.500000 1.0
-4.528054 -1.413106 4.757205 0.500000 0.500000 0.500000 1.0
1.263296 -1.628615 3.817594 0.500000 0.500000 0.500000 1.0
-0.925297 1.762767 4.308756 0.500000 0.500000 0.500000 1.0
1.333839 0.000000 2.546140 0.500000 0.500000 0.500000 1.0
3.973728 -1.462896 4.423658 0.500000 0.500000 0.500000 1.0
3.973725 1.462895 4.423654 0.500000 0.500000 0.500000 1.0
5.131782 -0.859495 3.545133 0.500000 0.500000 0.500000 1.0
5.131783 0.859493 3.545133 0.500000 0.500000 0.500000 1.0
-0.556343 -1.560412 2.651837 0.500000 0.500000 0.500000 1.0
-0.556345 1.560412 2.651834 0.500000 0.500000 0.500000 1.0
3.077131 -1.509991 4.149922 0.500000 0.500000 0.500000 1.0
3.077131 1.509991 4.149921 0.500000 0.500000 0.500000 1.0
-3.850547 1.455004 4.492414 0.500000 0.500000 0.500000 1.0
-3.850547 -1.455004 4.492414 0.500000 0.500000 0.500000 1.0
4.466137 -1.337117 3.831045 0.500000 0.500000 0.500000 1.0
4.466139 1.337115 3.831045 0.500000 0.500000 0.500000 1.0
-3.072063 1.492049 4.147340 0.500000 0.500000 0.500000 1.0
-3.072063 -1.492048 4.147340 0.500000 0.500000 0.500000 1.0
-5.711949 -0.000000 4.362056 0.500000 0.500000 0.500000 1.0
-4.960925 0.713386 3.370810 0.500000 0.500000 0.500000 1.0
-4.960927 -0.713385 3.370810 0.500000 0.500000 0.500000 1.0
-4.689198 1.149559 3.723139 0.500000 0.500000 0.500000 1.0
-4.689203 -1.149559 3.723139 0.500000 0.500000 0.500000 1.0
0.727551 1.458409 2.111326 0.500000 0.500000 0.500000 1.0
0.727550 -1.458407 2.111326 0.500000 0.500000 0.500000 1.0
2.459885 1.075202 3.765792 0.500000 0.500000 0.500000 1.0
2.460218 -1.074919 3.765791 0.500000 0.500000 0.500000 1.0
5.712917 -0.000000 3.986027 0.500000 0.500000 0.500000 1.0
-4.136372 1.437188 3.777941 0.500000 0.500000 0.500000 1.0
-4.136339 -1.437191 3.777940 0.500000 0.500000 0.500000 1.0
0.063985 1.458155 1.957892 0.500000 0.500000 0.500000 1.0
0.063985 -1.458154 1.957891 0.500000 0.500000 0.500000 1.0
1.020679 0.938880 1.942241 0.500000 0.500000 0.500000 1.0
1.020677 -0.938880 1.942241 0.500000 0.500000 0.500000 1.0
-2.504116 1.103172 3.695798 0.500000 0.500000 0.500000 1.0
-2.504117 -1.103173 3.695798 0.500000 0.500000 0.500000 1.0
-0.350460 -1.183211 1.717393 0.500000 0.500000 0.500000 1.0
-0.350455 1.183217 1.717409 0.500000 0.500000 0.500000 1.0
2.425953 -0.303918 3.038881 0.500000 0.500000 0.500000 1.0
2.425953 0.303918 3.038881 0.500000 0.500000 0.500000 1.0
3.788324 -1.312485 3.494901 0.500000 0.500000 0.500000 1.0
3.788325 1.312484 3.494902 0.500000 0.500000 0.500000 1.0
-0.925297 -1.762767 4.308756 0.500000 0.500000 0.500000 1.0
-3.653861 1.227809 3.514622 0.500000 0.500000 0.500000 1.0
-3.653869 -1.227812 3.514627 0.500000 0.500000 0.500000 1.0
4.475920 -0.727214 2.873639 0.500000 0.500000 0.500000 1.0
4.475920 0.727213 2.873639 0.500000 0.500000 0.500000 1.0
-6.529038 -0.000000 4.965104 0.500000 0.500000 0.500000 1.0
3.218896 -1.111648 3.253520 0.500000 0.500000 0.500000 1.0
3.218895 1.111648 3.253520 0.500000 0.500000 0.500000 1.0
-2.738026 0.325806 3.180558 0.500000 0.500000 0.500000 1.0
-2.738027 -0.325806 3.180558 0.500000 0.500000 0.500000 1.0
3 0 45 85
3 0 85 45
3 1 25 46
3 1 46 25
3 1 46 85
3 1 85 46
3 1 85 114
3 1 114 85
3 2 31 6
3 2 6 31
3 2 35 31
3 2 31 35
3 3 4 58
3 3 58 4
3 3 58 57
3 3 57 58
3 4 27 58
3 4 58 27
3 5 36 69
3 5 69 36
3 6 31 64
3 6 64 31
3 6 64 10
3 6 10 64
3 7 32 5
3 7 5 32
3 7 37 32
3 7 32 37
3 8 33 69
3 8 69 33
3 8 69 5
3 8 5 69
3 10 64 14
3 10 14 64
3 11 15 37
3 11 37 15
3 11 37 7
3 11 7 37
3 12 33 8
3 12 8 33
3 13 34 9
3 13 9 34
3 14 71 18
3 14 18 71
3 14 77 71
3 14 71 77
3 15 37 78
3 15 78 37
3 16 33 12
3 16 12 33
3 16 33 83
3 16 83 33
3 17 34 13
3 17 13 34
3 19 50 72
3 19 72 50
3 20 79 66
3 20 66 79
3 21 67 80
3 21 80 67
3 21 80 17
3 21 17 80
3 22 26 39
3 22 39 26
3 22 49 18
3 22 18 49
3 23 27 40
3 23 40 27
3 23 40 50
3 23 50 40
3 24 45 0
3 24 0 45
3 24 45 66
3 24 66 45
3 25 46 67
3 25 67 46
3 25 67 21
3 25 21 67
3 29 30 59
3 29 59 30
3 29 42 33
3 29 33 42
3 29 51 52
3 29 52 51
3 29 52 30
3 29 30 52
3 29 59 33
3 29 33 59
3 30 34 41
3 30 41 34
3 30 41 75
3 30 75 41
3 31 54 68
3 31 68 54
3 31 64 68
3 31 68 64
3 32 55 36
3 32 36 55
3 32 65 37
3 32 37 65
3 33 42 69
3 33 69 42
3 33 83 101
3 33 101 83
3 34 9 109
3 34 109 9
3 34 30 59
3 34 59 30
3 34 59 102
3 34 102 59
3 34 102 84
3 34 84 102
3 34 109 41
3 34 41 109
3 35 31 54
3 35 54 31
3 35 109 2
3 35 2 109
3 36 32 5
3 36 5 32
3 36 42 69
3 36 69 42
3 38 56 93
3 38 93 56
3 38 73 81
3 38 81 73
3 38 93 115
3 38 115 93
3 38 105 56
3 38 56 105
3 38 107 81
3 38 81 107
3 38 112 73
3 38 73 112
3 38 115 107
3 38 107 115
3 39 22 49
3 39 49 22
3 39 57 26
3 39 26 57
3 39 73 81
3 39 81 73
3 39 81 49
3 39 49 81
3 39 94 57
3 39 57 94
3 40 58 27
3 40 27 58
3 40 74 94
3 40 94 74
3 40 82 50
3 40 50 82
3 40 82 74
3 40 74 82
3 40 94 58
3 40 58 94
3 41 62 35
3 41 35 62
3 41 75 62
3 41 62 75
3 41 109 35
3 41 35 109
3 42 76 29
3 42 29 76
3 43 38 112
3 43 112 38
3 43 56 106
3 43 106 56
3 43 74 82
3 43 82 74
3 43 92 56
3 43 56 92
3 43 105 38
3 43 38 105
3 43 106 105
3 43 105 106
3 43 112 113
3 43 113 112
3 43 113 74
3 43 74 113
3 43 116 92
3 43 92 116
3 43 116 108
3 43 108 116
3 44 47 87
3 44 87 47
3 44 59 117
3 44 117 59
3 44 86 88
3 44 88 86
3 44 87 86
3 44 86 87
3 44 101 59
3 44 59 101
3 46 89 85
3 46 85 89
3 47 44 117
3 47 117 44
3 47 96 89
3 47 89 96
3 47 96 111
3 47 111 96
3 47 117 118
3 47 118 117
3 48 51 52
3 48 52 51
3 48 90 97
3 48 97 90
3 48 91 100
3 48 100 91
3 48 98 91
3 48 91 98
3 48 100 70
3 48 70 100
3 48 103 98
3 48 98 103
3 48 104 51
3 48 51 104
3 48 104 97
3 48 97 104
3 49 71 18
3 49 18 71
3 49 71 81
3 49 81 71
3 50 19 23
3 50 23 19
3 50 82 72
3 50 72 82
3 51 104 76
3 51 76 104
3 52 30 75
3 52 75 30
3 53 56 37
3 53 37 56
3 53 61 68
3 53 68 61
3 53 61 70
3 53 70 61
3 53 65 37
3 53 37 65
3 54 35 62
3 54 62 35
3 54 62 91
3 54 91 62
3 54 91 61
3 54 61 91
3 56 37 92
3 56 92 37
3 56 53 64
3 56 64 53
3 56 64 93
3 56 93 64
3 57 3 26
3 57 26 3
3 59 33 101
3 59 101 33
3 59 118 117
3 59 117 118
3 60 55 65
3 60 65 55
3 60 65 53
3 60 53 65
3 60 90 55
3 60 55 90
3 60 99 70
3 60 70 99
3 60 99 90
3 60 90 99
3 61 54 68
3 61 68 54
3 61 100 70
3 61 70 100
3 61 100 91
3 61 91 100
3 62 75 98
3 62 98 75
3 62 98 91
3 62 91 98
3 63 36 42
3 63 42 36
3 63 55 36
3 63 36 55
3 63 55 90
3 63 90 55
3 63 76 97
3 63 97 76
3 63 90 97
3 63 97 90
3 64 68 53
3 64 53 68
3 64 77 14
3 64 14 77
3 64 77 93
3 64 93 77
3 65 32 55
3 65 55 32
3 66 24 20
3 66 20 24
3 67 46 89
3 67 89 46
3 67 96 80
3 67 80 96
3 70 60 53
3 70 53 60
3 71 77 107
3 71 107 77
3 71 81 107
3 71 107 81
3 72 15 78
3 72 78 15
3 72 19 15
3 72 15 19
3 72 108 78
3 72 78 108
3 73 74 94
3 73 94 74
3 73 94 39
3 73 39 94
3 74 112 73
3 74 73 112
3 74 113 112
3 74 112 113
3 75 98 103
3 75 103 98
3 76 29 51
3 76 51 29
3 76 63 42
3 76 42 63
3 77 115 93
3 77 93 115
3 78 37 92
3 78 92 37
3 78 92 116
3 78 116 92
3 79 20 16
3 79 16 20
3 79 66 95
3 79 95 66
3 79 110 83
3 79 83 110
3 80 84 17
3 80 17 84
3 80 111 84
3 80 84 111
3 82 43 108
3 82 108 43
3 82 108 72
3 82 72 108
3 83 44 101
3 83 101 44
3 83 79 16
3 83 16 79
3 84 17 34
3 84 34 17
3 84 47 111
3 84 111 47
3 85 86 88
3 85 88 86
3 85 87 86
3 85 86 87
3 85 88 45
3 85 45 88
3 87 89 85
3 87 85 89
3 88 44 95
3 88 95 44
3 88 66 45
3 88 45 66
3 89 47 87
3 89 87 47
3 89 96 67
3 89 67 96
3 94 57 58
3 94 58 57
3 95 66 88
3 95 88 66
3 95 110 79
3 95 79 110
3 96 80 111
3 96 111 80
3 99 48 70
3 99 70 48
3 99 48 90
3 99 90 48
3 102 47 118
3 102 118 47
3 102 84 47
3 102 47 84
3 102 118 59
3 102 59 118
3 103 52 48
3 103 48 52
3 103 75 52
3 103 52 75
3 104 97 76
3 104 76 97
3 105 56 106
3 105 106 56
3 107 77 115
3 107 115 77
3 108 116 78
3 108 78 116
3 109 2 9
3 109 9 2
3 110 44 95
3 110 95 44
3 110 83 44
3 110 44 83
3 114 28 0
3 114 0 28
3 114 28 1
3 114 1 28
3 114 85 0
3 114 0 85
