 COFF
         146        1464         146
  
  -6.6109614514787749        1.2004960963941680        6.2073403906672127       0.60000002384185791       0.60000002384185791       0.60000002384185791       0.80000001192092896     
  -6.6109644229748765       -1.2004937197414673        6.2073411386206567       0.60000002384185791       0.60000002384185791       0.60000002384185791       0.80000001192092896     
  -3.3738999943836355E-002  -2.2432804815965417        5.9405399208163230       0.60000002384185791       0.60000002384185791       0.60000002384185791       0.80000001192092896     
   7.5383350197946459       -1.2879891005279116        6.2572123866827578       0.60000002384185791       0.60000002384185791       0.60000002384185791       0.80000001192092896     
   7.5383348725321699        1.2879891863950670        6.2572124115241943       0.60000002384185791       0.60000002384185791       0.60000002384185791       0.80000001192092896     
  -3.3739000922412443E-002   2.2432805716832425        5.9405398296547531       0.60000002384185791       0.60000002384185791       0.60000002384185791       0.80000001192092896     
   1.1360768838359967       -1.9368665493878316        6.0658944655038942       0.60000002384185791       0.60000002384185791       0.60000002384185791       0.80000001192092896     
   1.1360768870501978        1.9368665550932662        6.0658944591584962       0.60000002384185791       0.60000002384185791       0.60000002384185791       0.80000001192092896     
  -1.1568872612027081        1.9193537113496728        6.0371286835654638       0.60000002384185791       0.60000002384185791       0.60000002384185791       0.80000001192092896     
  -1.1568872507980263       -1.9193537103399578        6.0371286854879500       0.60000002384185791       0.60000002384185791       0.60000002384185791       0.80000001192092896     
   2.0520744626765350       -1.6246465685507576        6.3186897232055461       0.60000002384185791       0.60000002384185791       0.60000002384185791       0.80000001192092896     
   2.0520744505946036        1.6246465529233134        6.3186897473054202       0.60000002384185791       0.60000002384185791       0.60000002384185791       0.80000001192092896     
  -2.0781627943775804        1.6316516743588818        6.2990584020865743       0.60000002384185791       0.60000002384185791       0.60000002384185791       0.80000001192092896     
  -2.0781627882783291       -1.6316516804167949        6.2990583979067791       0.60000002384185791       0.60000002384185791       0.60000002384185791       0.80000001192092896     
   3.0226563963227111       -1.7806790503218350        6.0831268901713820       0.60000002384185791       0.60000002384185791       0.60000002384185791       0.80000001192092896     
   3.0226836178618464        1.7806830960583937        6.0831511268298719       0.60000002384185791       0.60000002384185791       0.60000002384185791       0.80000001192092896     
  -3.0150041714123188        1.7801910898264635        5.9830299185198905       0.60000002384185791       0.60000002384185791       0.60000002384185791       0.80000001192092896     
  -3.0150041520034558       -1.7801910891418891        5.9830298716169343       0.60000002384185791       0.60000002384185791       0.60000002384185791       0.80000001192092896     
   4.0637926932825366       -1.6646827095472037        6.3028702713236022       0.60000002384185791       0.60000002384185791       0.60000002384185791       0.80000001192092896     
   4.0637932039700493        1.6646829595002393        6.3028699519795364       0.60000002384185791       0.60000002384185791       0.60000002384185791       0.80000001192092896     
  -4.0363299833264676        1.6575323284983232        6.2592550763289383       0.60000002384185791       0.60000002384185791       0.60000002384185791       0.80000001192092896     
  -4.0363300074509727       -1.6575323410300629        6.2592550467788959       0.60000002384185791       0.60000002384185791       0.60000002384185791       0.80000001192092896     
   5.0500569606141994       -1.4922801225660396        6.3066787595994853       0.60000002384185791       0.60000002384185791       0.60000002384185791       0.80000001192092896     
   5.0500569731682390        1.4922801531988024        6.3066787284356938       0.60000002384185791       0.60000002384185791       0.60000002384185791       0.80000001192092896     
  -5.0573943714194698        1.4368234451593054        6.2668383975860102       0.60000002384185791       0.60000002384185791       0.60000002384185791       0.80000001192092896     
  -5.0573943866151865       -1.4368233463474989        6.2668384920122007       0.60000002384185791       0.60000002384185791       0.60000002384185791       0.80000001192092896     
   6.0583215329240252       -1.4740476983232353        6.2205837382977966       0.60000002384185791       0.60000002384185791       0.60000002384185791       0.80000001192092896     
   6.0583220107553002        1.4740476629774162        6.2205847291538925       0.60000002384185791       0.60000002384185791       0.60000002384185791       0.80000001192092896     
  -7.8127189960371304       -4.8433889919265681E-005   6.2076253538908084       0.60000002384185791       0.60000002384185791       0.60000002384185791       0.80000001192092896     
   8.8270834089779626        2.4755239014085506E-004   6.2080781211163334       0.60000002384185791       0.60000002384185791       0.60000002384185791       0.80000001192092896     
  -1.6666768769862192      -0.91880879030296470        3.7997763090843639       0.60000002384185791       0.60000002384185791       0.60000002384185791       0.80000001192092896     
  0.92946537897187309       -1.8707528018302508        4.6909342435696129        1.0000000000000000        1.0000000000000000        0.0000000000000000        1.0000000000000000     
  0.92949968108677516        1.8707514557981428        4.6909492865371529        1.0000000000000000        1.0000000000000000        0.0000000000000000        1.0000000000000000     
  -2.0910573035178550        1.6504393140553058        5.1601949248014236       0.60000002384185791       0.60000002384185791       0.60000002384185791       0.80000001192092896     
  -2.0910588591873056       -1.6504399936750958        5.1601928474230405       0.60000002384185791       0.60000002384185791       0.60000002384185791       0.80000001192092896     
   1.0277679824464347E-002  -1.9677973695675328        4.5431225596773688       0.60000002384185791       0.60000002384185791       0.60000002384185791       0.80000001192092896     
   1.0278195886782478E-002   1.9677996425102200        4.5431225162606808       0.60000002384185791       0.60000002384185791       0.60000002384185791       0.80000001192092896     
   2.1207203945843056        1.6069832732364981        5.1729583762336988       0.60000002384185791       0.60000002384185791       0.60000002384185791       0.80000001192092896     
   3.4089445015013848      -0.61927263516772280        2.3410133446645589        1.0000000000000000        1.0000000000000000        0.0000000000000000        1.0000000000000000     
   5.3311534662357731       -1.3579102096600628        5.3376513665410998       0.60000002384185791       0.60000002384185791       0.60000002384185791       0.80000001192092896     
   5.3311626079085528        1.3579062796982346        5.3376619129187715       0.60000002384185791       0.60000002384185791       0.60000002384185791       0.80000001192092896     
 -0.77396005328856776       -1.8737638353495438        4.0966221019693494       0.60000002384185791       0.60000002384185791       0.60000002384185791       0.80000001192092896     
 -0.77395969020994548        1.8737651542595897        4.0966202283641424       0.60000002384185791       0.60000002384185791       0.60000002384185791       0.80000001192092896     
   3.4089462003384514       0.61927194342435099        2.3410133446645589        1.0000000000000000        1.0000000000000000        0.0000000000000000        1.0000000000000000     
  -3.4848350036220563       0.66008740814624067        2.5284741087501219        1.0000000000000000        1.0000000000000000        0.0000000000000000        1.0000000000000000     
  -5.0826816625597955        1.4040694770234849        5.3581150093148358       0.60000002384185791       0.60000002384185791       0.60000002384185791       0.80000001192092896     
  -5.0826824551163865       -1.4040670399948085        5.3581132545576473       0.60000002384185791       0.60000002384185791       0.60000002384185791       0.80000001192092896     
  -3.4848364867754964      -0.66008794270505389        2.5284741087501215        1.0000000000000000        1.0000000000000000        0.0000000000000000        1.0000000000000000     
   9.9755760599949256E-002   5.2200672968922128E-007   1.0306063639638421        1.0000000000000000        1.0000000000000000        0.0000000000000000        1.0000000000000000     
   4.5557215765276995       -1.5784349264499047        5.5475192441176455       0.60000002384185791       0.60000002384185791       0.60000002384185791       0.80000001192092896     
   4.5557233715313314        1.5784212104845157        5.5475221455500847       0.60000002384185791       0.60000002384185791       0.60000002384185791       0.80000001192092896     
  -1.3607896644619022       0.99087688281972797        2.4660471924974359       0.60000002384185791       0.60000002384185791       0.60000002384185791       0.80000001192092896     
  -1.3607855704996230      -0.99087832732846215        2.4660474198864759       0.60000002384185791       0.60000002384185791       0.60000002384185791       0.80000001192092896     
   1.6501142757249445       -6.8002649796190871E-006   4.0348897997754749       0.60000002384185791       0.60000002384185791       0.60000002384185791       0.80000001192092896     
  0.81106128096077534       -1.8446183045200635        3.5973389253826853       0.60000002384185791       0.60000002384185791       0.60000002384185791       0.80000001192092896     
  0.81108740774900090        1.8446198515419532        3.5973353584388179       0.60000002384185791       0.60000002384185791       0.60000002384185791       0.80000001192092896     
   2.1015226614086933       -2.3698634361886258E-005   4.5394813960974343       0.60000002384185791       0.60000002384185791       0.60000002384185791       0.80000001192092896     
   6.9287729944953194      -0.75917224803429850        4.5954174293392773        1.0000000000000000        1.0000000000000000        0.0000000000000000        1.0000000000000000     
   6.9287730420051981       0.75917210855207085        4.5954174293400127        1.0000000000000000        1.0000000000000000        0.0000000000000000        1.0000000000000000     
  -2.2194356206160686       -3.0827461277829052E-006   4.2313442118681310       0.60000002384185791       0.60000002384185791       0.60000002384185791       0.80000001192092896     
   1.1410451831081143        1.3966350106803052        3.3156346816862330       0.60000002384185791       0.60000002384185791       0.60000002384185791       0.80000001192092896     
   1.1410165338137905       -1.3966235602516752        3.3156346376921690       0.60000002384185791       0.60000002384185791       0.60000002384185791       0.80000001192092896     
  0.17572833781894334       -1.8857746670284068        3.4297979481597896       0.60000002384185791       0.60000002384185791       0.60000002384185791       0.80000001192092896     
  0.17572650077474827        1.8857808651487908        3.4297989512356559       0.60000002384185791       0.60000002384185791       0.60000002384185791       0.80000001192092896     
   2.1206827329401094       -1.6069731249278458        5.1729474185122362       0.60000002384185791       0.60000002384185791       0.60000002384185791       0.80000001192092896     
   1.3070845380294200        1.7309007779578913        4.3707778010863292       0.60000002384185791       0.60000002384185791       0.60000002384185791       0.80000001192092896     
  -4.5447201949560432        1.5473297071528431        5.3631456102017099       0.60000002384185791       0.60000002384185791       0.60000002384185791       0.80000001192092896     
  -4.5447219996758266       -1.5473659762603722        5.3631466797395255       0.60000002384185791       0.60000002384185791       0.60000002384185791       0.80000001192092896     
   1.3070589454238626       -1.7308966263145640        4.3707693403233687       0.60000002384185791       0.60000002384185791       0.60000002384185791       0.80000001192092896     
 -0.95511884655527313        1.8772265401464938        4.8432320824087451        1.0000000000000000        1.0000000000000000        0.0000000000000000        1.0000000000000000     
   1.3238501842395478       -2.5546803123688503E-006   2.9355745191397169       0.60000002384185791       0.60000002384185791       0.60000002384185791       0.80000001192092896     
   4.0305306058553363       -1.6398735199484458        4.9879247785333218       0.60000002384185791       0.60000002384185791       0.60000002384185791       0.80000001192092896     
   4.0305395581756374        1.6398694243666689        4.9879231371766144       0.60000002384185791       0.60000002384185791       0.60000002384185791       0.80000001192092896     
   5.1734003773094237      -0.98973058943708647        4.1324768062195290       0.60000002384185791       0.60000002384185791       0.60000002384185791       0.80000001192092896     
   5.1734032122008315       0.98972972168082174        4.1324770461822062       0.60000002384185791       0.60000002384185791       0.60000002384185791       0.80000001192092896     
 -0.56672849481672261       -1.6584401914902815        3.1206503158510279       0.60000002384185791       0.60000002384185791       0.60000002384185791       0.80000001192092896     
 -0.56672823608574707        1.6584409676830238        3.1206427588626626       0.60000002384185791       0.60000002384185791       0.60000002384185791       0.80000001192092896     
   3.1030758624365204       -1.6662218482322411        4.6716846721996941       0.60000002384185791       0.60000002384185791       0.60000002384185791       0.80000001192092896     
   3.1031052159676982        1.6662266142946172        4.6717115738497670       0.60000002384185791       0.60000002384185791       0.60000002384185791       0.80000001192092896     
  -3.8881303257002315        1.6063385578477594        5.0507631640961392       0.60000002384185791       0.60000002384185791       0.60000002384185791       0.80000001192092896     
  -3.8881312503404755       -1.6063371385434146        5.0507633147727065       0.60000002384185791       0.60000002384185791       0.60000002384185791       0.80000001192092896     
   4.5546999282022860       -1.5416066741066781        4.2551165503053729       0.60000002384185791       0.60000002384185791       0.60000002384185791       0.80000001192092896     
   4.5547490985206078        1.5415121927055884        4.2551019718770791       0.60000002384185791       0.60000002384185791       0.60000002384185791       0.80000001192092896     
  -3.0420783333114043        1.6682221594001017        4.6258827134519791       0.60000002384185791       0.60000002384185791       0.60000002384185791       0.80000001192092896     
  -3.0421431077363654       -1.6684115537032584        4.6258845547470022       0.60000002384185791       0.60000002384185791       0.60000002384185791       0.80000001192092896     
  -5.8986929263460004        7.6164722403063870E-007   4.8698886722127446       0.60000002384185791       0.60000002384185791       0.60000002384185791       0.80000001192092896     
  -5.1119354028672630       0.86226171089924786        3.8615603163610595       0.60000002384185791       0.60000002384185791       0.60000002384185791       0.80000001192092896     
  -5.1119348723805595      -0.86225787665579956        3.8615615106141390       0.60000002384185791       0.60000002384185791       0.60000002384185791       0.80000001192092896     
  -4.7382623274850166        1.2816542383773235        4.3009751779724432       0.60000002384185791       0.60000002384185791       0.60000002384185791       0.80000001192092896     
  -4.7382625044685804       -1.2816498531307829        4.3009771618248909       0.60000002384185791       0.60000002384185791       0.60000002384185791       0.80000001192092896     
  0.73320858056538873        1.6925462284814135        2.6559786173505748       0.60000002384185791       0.60000002384185791       0.60000002384185791       0.80000001192092896     
  0.73309443979446010       -1.6926160535121031        2.6559799802714927       0.60000002384185791       0.60000002384185791       0.60000002384185791       0.80000001192092896     
   2.5325806769752206        1.2075724958151859        4.2631312268727974       0.60000002384185791       0.60000002384185791       0.60000002384185791       0.80000001192092896     
   2.5326074317461980       -1.2075986012922570        4.2631351518529241       0.60000002384185791       0.60000002384185791       0.60000002384185791       0.80000001192092896     
   5.8363402226820087       -4.4871896068787559E-008   4.1431107228020112       0.60000002384185791       0.60000002384185791       0.60000002384185791       0.80000001192092896     
  -4.1593544807630636        1.5816694353057386        4.3193310800153943       0.60000002384185791       0.60000002384185791       0.60000002384185791       0.80000001192092896     
  -4.1593362499320481       -1.5816429057955468        4.3193340699082885       0.60000002384185791       0.60000002384185791       0.60000002384185791       0.80000001192092896     
  0.17981889082737279        1.7123939903578511        2.3479333274869285       0.60000002384185791       0.60000002384185791       0.60000002384185791       0.80000001192092896     
  0.17981799873490609       -1.7123868344462978        2.3479304575075579       0.60000002384185791       0.60000002384185791       0.60000002384185791       0.80000001192092896     
   1.0328700193749158        1.1287246227584606        2.3671590414382182       0.60000002384185791       0.60000002384185791       0.60000002384185791       0.80000001192092896     
   1.0328539162519261       -1.1287167540401168        2.3671607919562678       0.60000002384185791       0.60000002384185791       0.60000002384185791       0.80000001192092896     
  -2.5693195189654214        1.3662947276783304        4.2654725661151094       0.60000002384185791       0.60000002384185791       0.60000002384185791       0.80000001192092896     
  -2.5693594221705771       -1.3663214277058375        4.2654808024958575       0.60000002384185791       0.60000002384185791       0.60000002384185791       0.80000001192092896     
 -0.45522968139945102       -1.4971117391104820        2.0721002166239866       0.60000002384185791       0.60000002384185791       0.60000002384185791       0.80000001192092896     
 -0.45522265510388277        1.4971147848798680        2.0721180539797297       0.60000002384185791       0.60000002384185791       0.60000002384185791       0.80000001192092896     
   2.4528423801690571      -0.39812671625010282        3.1488982437631772       0.60000002384185791       0.60000002384185791       0.60000002384185791       0.80000001192092896     
   2.4528501428448521       0.39810202488351598        3.1488995685899961       0.60000002384185791       0.60000002384185791       0.60000002384185791       0.80000001192092896     
   3.8904692499870470       -1.5598436727371161        3.8983696172811588       0.60000002384185791       0.60000002384185791       0.60000002384185791       0.80000001192092896     
   3.8904852838489248        1.5598434007209596        3.8983731113822064       0.60000002384185791       0.60000002384185791       0.60000002384185791       0.80000001192092896     
 -0.95511780273538083       -1.8772267557167976        4.8432319704041973        1.0000000000000000        1.0000000000000000        0.0000000000000000        1.0000000000000000     
  -3.6927726007406059        1.6126518923326048        3.9591086384609397       0.60000002384185791       0.60000002384185791       0.60000002384185791       0.80000001192092896     
  -3.6927799908384271       -1.6126506812143186        3.9591102940798164       0.60000002384185791       0.60000002384185791       0.60000002384185791       0.80000001192092896     
   4.5866060028777289      -0.98749532377041804        2.9676775626594689       0.60000002384185791       0.60000002384185791       0.60000002384185791       0.80000001192092896     
   4.5866083165234874       0.98749412028999606        2.9676771561514417       0.60000002384185791       0.60000002384185791       0.60000002384185791       0.80000001192092896     
  -6.6841000379418185        2.3562576170155101E-006   5.0071826586955126        1.0000000000000000        1.0000000000000000        0.0000000000000000        1.0000000000000000     
   3.2269443786820013       -1.4649233954073155        3.7344999660661409       0.60000002384185791       0.60000002384185791       0.60000002384185791       0.80000001192092896     
   3.2269630388455726        1.4649202827056189        3.7345013164717020       0.60000002384185791       0.60000002384185791       0.60000002384185791       0.80000001192092896     
  -2.4107516256468777       0.33617987265844573        3.2346936616402315       0.60000002384185791       0.60000002384185791       0.60000002384185791       0.80000001192092896     
  -2.4107491973809760      -0.33617746603515936        3.2346939267453143       0.60000002384185791       0.60000002384185791       0.60000002384185791       0.80000001192092896     
  -1.6666702252960153       0.91880452412009017        3.7997731962134473       0.60000002384185791       0.60000002384185791       0.60000002384185791       0.80000001192092896     
   4.2922325638719077       -1.3792793340415590        3.3912433197109788       0.60000002384185791       0.60000002384185791       0.60000002384185791       0.80000001192092896     
   4.2922374709321618        1.3792793180692033        3.3912417715326169       0.60000002384185791       0.60000002384185791       0.60000002384185791       0.80000001192092896     
  -1.1978074487728987      -0.72449973161006920        1.6572466794438019        1.0000000000000000       0.10000000149011612        0.0000000000000000       0.50000000000000000     
  -1.1978097127453136       0.72450222742931170        1.6572463868367469        1.0000000000000000       0.10000000149011612        0.0000000000000000       0.50000000000000000     
  0.64394129926259769        1.3031852587370052        1.8100214623457387        1.0000000000000000       0.10000000149011612        0.0000000000000000       0.50000000000000000     
  0.64393130727962633       -1.3031848649824838        1.8100248589958534        1.0000000000000000       0.10000000149011612        0.0000000000000000       0.50000000000000000     
   1.1545103150095954       -8.5041391475154344E-007   2.1471231115121938       0.60000002384185791       0.60000002384185791       0.60000002384185791       0.80000001192092896     
   8.1485715719416003      -0.37544941932391013        5.2330094984505084       0.60000002384185791       0.60000002384185791       0.60000002384185791       0.80000001192092896     
   8.1485724371132005       0.37545111481167059        5.2330098536661316       0.60000002384185791       0.60000002384185791       0.60000002384185791       0.80000001192092896     
  -3.0892901789781693        1.4892817159351535        3.6939432935581511       0.60000002384185791       0.60000002384185791       0.60000002384185791       0.80000001192092896     
  -3.0893056099346712       -1.4892794864631118        3.6939320250464025       0.60000002384185791       0.60000002384185791       0.60000002384185791       0.80000001192092896     
  -4.3681337509594540        1.3113457950166882        3.4839227738282506       0.60000002384185791       0.60000002384185791       0.60000002384185791       0.80000001192092896     
  -4.3681348440797887       -1.3113439634548207        3.4839207248347646       0.60000002384185791       0.60000002384185791       0.60000002384185791       0.80000001192092896     
   2.8373582650835605       -1.1150041118181746        3.3976834854102984       0.60000002384185791       0.60000002384185791       0.60000002384185791       0.80000001192092896     
   2.8373745883907437        1.1149941344530219        3.3976817355544431       0.60000002384185791       0.60000002384185791       0.60000002384185791       0.80000001192092896     
  0.13259822696178150        1.0863979137278532        1.6133365332908451        1.0000000000000000       0.10000000149011612        0.0000000000000000       0.50000000000000000     
  0.13259524395621894       -1.0863973884150762        1.6133345522126230        1.0000000000000000       0.10000000149011612        0.0000000000000000       0.50000000000000000     
  -4.6532092906910476       0.75193681591364692        3.1212838310407371       0.60000002384185791       0.60000002384185791       0.60000002384185791       0.80000001192092896     
  -4.6532057782566509      -0.75193106187753300        3.1212840225787497       0.60000002384185791       0.60000002384185791       0.60000002384185791       0.80000001192092896     
  -3.9343268601585515        1.2745278076588908        3.3889295002905202       0.60000002384185791       0.60000002384185791       0.60000002384185791       0.80000001192092896     
  -3.9343590806242137       -1.2745676151941128        3.3889389899305784       0.60000002384185791       0.60000002384185791       0.60000002384185791       0.80000001192092896     
  -2.8952317995071462        1.0654571497303629        3.4145174076195364       0.60000002384185791       0.60000002384185791       0.60000002384185791       0.80000001192092896     
  -2.8952650667546669       -1.0654750403104825        3.4145126798332202       0.60000002384185791       0.60000002384185791       0.60000002384185791       0.80000001192092896     
   4.6424631530790146       -6.6125238956844435E-007   2.9743223213812207       0.60000002384185791       0.60000002384185791       0.60000002384185791       0.80000001192092896     
   1.8908940041676392       0.81428807884943366        4.6030490356128348       0.60000002384185791       0.60000002384185791       0.60000002384185791       0.80000001192092896     
   1.8908968191694135      -0.81429141957842777        4.6030250279783704       0.60000002384185791       0.60000002384185791       0.60000002384185791       0.80000001192092896     
  
   3   0  24  45
   3   0  45  24
   3   0  45  85
   3   0  85 114
   3   0  85  45
   3   0 114  85
   3   0 114  28
   3   0  28 114
   4   0  28   1  85
   3   1  28 114
   4   1  28   0  85
   3   1 114  85
   3   1 114  28
   3   1  85  46
   3   1  85 114
   3   1  46  85
   3   1  46  25
   3   1  25  46
   3   2  35 109
   3   2  35  31
   3   2  31  35
   3   2  31   6
   3   2   6  31
   3   2   9 109
   3   2 109  35
   3   2 109   9
   3   3  26  57
   3   3  57  26
   4   3  57 127  29
   3   4  58  27
   4   4  58 128  29
   3   4  27  58
   3   5   7  32
   3   5  32  36
   3   5  32   7
   3   5  36  32
   3   5  36  69
   3   5  69  36
   3   5  69   8
   3   5   8  69
   3   6   2  31
   3   6  31   2
   3   6  31  64
   3   6  64  10
   3   6  64  31
   3   6  10  64
   3   7  11  37
   3   7  37  32
   3   7  37  11
   3   7  32  37
   3   7  32   5
   3   7   5  32
   3   8   5  69
   3   8  69   5
   3   8  69  33
   3   8  33  12
   3   8  33  69
   3   8  12  33
   3   9  13  34
   3   9  34 109
   3   9  34  13
   3   9 109  34
   3   9 109   2
   3   9   2 109
   3  10   6  64
   3  10  64  14
   3  10  64   6
   3  10  14  64
   3  11  15  37
   3  11  37   7
   3  11  37  15
   3  11   7  37
   3  12   8  33
   3  12  33  16
   3  12  33   8
   3  12  16  33
   3  13  17  34
   3  13  34   9
   3  13  34  17
   3  13   9  34
   3  14  10  64
   3  14  64  77
   3  14  64  10
   3  14  77  64
   3  14  77  71
   3  14  71  77
   3  14  71  18
   3  14  18  71
   3  15  19  72
   3  15  72  78
   3  15  72  19
   3  15  78  72
   3  15  78  37
   3  15  37  11
   3  15  37  78
   3  15  11  37
   3  16  12  33
   3  16  33  83
   3  16  33  12
   3  16  83  33
   3  16  83  79
   3  16  79  83
   3  16  79  20
   3  16  20  79
   3  17  21  80
   3  17  80  84
   3  17  80  21
   3  17  84  80
   3  17  84  34
   3  17  34  13
   3  17  34  84
   3  17  13  34
   3  18  14  71
   3  18  71  14
   3  18  71  49
   3  18  49  71
   3  18  49  22
   3  18  22  49
   3  19  23  50
   3  19  50  72
   3  19  50  23
   3  19  72  50
   3  19  72  15
   3  19  15  72
   3  20  16  79
   3  20  79  16
   3  20  79  66
   3  20  66  79
   3  20  66  24
   3  20  24  66
   3  21  25  67
   3  21  67  80
   3  21  67  25
   3  21  80  67
   3  21  80  17
   3  21  17  80
   3  22  18  49
   3  22  49  18
   3  22  49  39
   3  22  39  26
   3  22  39  49
   3  22  26  39
   3  23  27  40
   3  23  40  50
   3  23  40  27
   3  23  50  40
   3  23  50  19
   3  23  19  50
   3  24  20  66
   3  24  66  20
   3  24  66  45
   3  24  45   0
   3  24  45  66
   3  24   0  45
   3  25   1  46
   3  25  46   1
   3  25  46  67
   3  25  67  46
   3  25  67  21
   3  25  21  67
   3  26  22  39
   3  26  39  57
   3  26  39  22
   3  26  57   3
   3  26  57  39
   3  26   3  57
   3  27   4  58
   3  27  58   4
   3  27  58  40
   3  27  40  58
   3  27  40  23
   3  27  23  40
   3  28   0 114
   4  28   0  85   1
   3  28 114   0
   3  28 114   1
   3  28   1 114
   4  28   1  85   0
   3  29 127 128
   4  29 127  57   3
   3  29 128 127
   4  29 128  58   4
   3  30  34  59
   3  30  34  41
   3  30  59 119
   3  30  59  34
   3  30 119  59
   4  30 119  51  52
   3  30  52  75
   4  30  52  51 119
   3  30  75  52
   3  30  75  41
   3  30  41  34
   3  30  41  75
   3  31   2  35
   3  31   2   6
   3  31  35  54
   3  31  35   2
   3  31  54  35
   3  31  54  68
   3  31  68  64
   3  31  68  54
   3  31  64   6
   3  31  64  68
   3  31   6   2
   3  31   6  64
   3  32  37  65
   3  32  37   7
   3  32  65  37
   3  32  65  55
   3  32  55  65
   3  32  55  36
   3  32  36  55
   3  32  36   5
   3  32   5   7
   3  32   5  36
   3  32   7  37
   3  32   7   5
   3  33 101  59
   3  33 101  83
   3  33  83 101
   3  33  83  16
   3  33  16  12
   3  33  16  83
   3  33  12   8
   3  33  12  16
   3  33   8  69
   3  33   8  12
   3  33  69  42
   3  33  69   8
   3  33  42 119
   3  33  42  69
   3  33 119  42
   3  33 119  59
   3  33  59 119
   3  33  59 101
   3  34 102  84
   3  34 102  59
   3  34  59  30
   3  34  59 102
   3  34  30  59
   3  34  30  41
   3  34  41 109
   3  34  41  30
   3  34 109  41
   3  34 109   9
   3  34   9  13
   3  34   9 109
   3  34  13  17
   3  34  13   9
   3  34  17  84
   3  34  17  13
   3  34  84 102
   3  34  84  17
   3  35 109  41
   3  35 109   2
   3  35  41 109
   3  35  41  62
   3  35  62  41
   3  35  62  54
   3  35  54  62
   3  35  54  31
   3  35  31   2
   3  35  31  54
   3  35   2  31
   3  35   2 109
   3  36  32  55
   3  36  32   5
   3  36  55  63
   3  36  55  32
   3  36  63  55
   3  36  63  42
   3  36  42  69
   3  36  42  63
   3  36  69   5
   3  36  69  42
   3  36   5  32
   3  36   5  69
   3  37  92  78
   3  37  92  56
   3  37  56 144
   3  37  56  92
   3  37 144  56
   3  37 144  65
   3  37  65 144
   3  37  65  32
   3  37  32  65
   3  37  32   7
   3  37   7  11
   3  37   7  32
   3  37  11  15
   3  37  11   7
   3  37  15  78
   3  37  15  11
   3  37  78  92
   3  37  78  15
   3  38 112 143
   3  38 112 120
   3  38 120 112
   3  38 120 107
   3  38 107 115
   3  38 107 120
   3  38 115 107
   3  38 115 133
   3  38 133 115
   3  38 133 105
   3  38 105 133
   4  38 105 106  43
   3  38  43 143
   4  38  43 106 105
   3  38 143  43
   3  38 143 112
   3  39  57  26
   3  39  57  94
   3  39  26  22
   3  39  26  57
   3  39  22  49
   3  39  22  26
   3  39  49  81
   3  39  49  22
   3  39  81  73
   3  39  81  49
   3  39  73  94
   3  39  73  81
   3  39  94  73
   3  39  94  57
   3  40  58  94
   3  40  58  27
   3  40  94  74
   3  40  94  58
   3  40  74  94
   3  40  74  82
   3  40  82  50
   3  40  82  74
   3  40  50  82
   3  40  50  23
   3  40  23  27
   3  40  23  50
   3  40  27  58
   3  40  27  23
   3  41  35 109
   3  41  35  62
   3  41 109  34
   3  41 109  35
   3  41  34  30
   3  41  34 109
   3  41  30  34
   3  41  30  75
   3  41  75  30
   3  41  75  62
   3  41  62  75
   3  41  62  35
   3  42 119  33
   3  42 119  76
   3  42  33  69
   3  42  33 119
   3  42  69  36
   3  42  69  33
   3  42  36  63
   3  42  36  69
   3  42  63  76
   3  42  63  36
   3  42  76  63
   3  42  76 119
   3  43 113 121
   3  43 113 143
   3  43 143  38
   3  43 143 113
   3  43  38 143
   4  43  38 105 106
   3  43 106 134
   4  43 106 105  38
   3  43 134 106
   3  43 134 116
   3  43 116 108
   3  43 116 134
   3  43 108 121
   3  43 108 116
   3  43 121 108
   3  43 121 113
   3  44 131 139
   4  44 131  86 137
   3  44 139 131
   3  44 139 110
   3  44 110 129
   3  44 110 139
   3  44 129 110
   3  44 129 141
   3  44 141 129
   3  44 141 117
   3  44 117 141
   4  44 117 118  47
   3  45   0  24
   3  45   0  85
   3  45  24  66
   3  45  24   0
   3  45  66  88
   3  45  66  24
   3  45  88  85
   3  45  88  66
   3  45  85   0
   3  45  85  88
   3  46   1  85
   3  46   1  25
   3  46  85  89
   3  46  85   1
   3  46  89  85
   3  46  89  67
   3  46  67  89
   3  46  67  25
   3  46  25   1
   3  46  25  67
   3  47 132 140
   4  47 132  96 111
   3  47 118 142
   4  47 118 117  44
   3  47 142 118
   3  47 142 130
   3  47 130 111
   3  47 130 142
   3  47 111 140
   3  47 111 130
   3  47 140 111
   3  47 140 132
   3  48 135 104
   3  48 135 124
   3  48 124  99
   3  48 124 135
   3  48  99 126
   3  48  99 124
   3  48 126  99
   3  48 126 100
   3  48 100 125
   3  48 100 126
   3  48 125 100
   3  48 125 136
   3  48 136 125
   3  48 136 103
   3  48 103 136
   4  48 103  98 125
   3  48 122 123
   4  48 122  52 103
   3  48 123 122
   4  48 123  51 104
   3  48 104 135
   4  48 104  51 123
   3  49  18  71
   3  49  18  22
   3  49  71  81
   3  49  71  18
   3  49  81  39
   3  49  81  71
   3  49  39  22
   3  49  39  81
   3  49  22  18
   3  49  22  39
   3  50  40  82
   3  50  40  23
   3  50  82  72
   3  50  82  40
   3  50  72  82
   3  50  72  19
   3  50  19  23
   3  50  19  72
   3  50  23  40
   3  50  23  19
   3  51 119  76
   4  51 119  30  52
   3  51  76 104
   3  51  76 119
   3  51 104  76
   4  51 104  48 123
   3  52  30  75
   4  52  30 119  51
   3  52 103  75
   4  52 103  48 122
   3  52  75  30
   3  52  75 103
   3  53 144  56
   3  53 144  65
   3  53  56 144
   3  53  56 145
   3  53 145  56
   3  53 145  68
   3  53  68  61
   3  53  68 145
   3  53  61  70
   3  53  61  68
   3  53  70  60
   3  53  70  61
   3  53  60  70
   3  53  60  65
   3  53  65 144
   3  53  65  60
   3  54  35  62
   3  54  35  31
   3  54  62  91
   3  54  62  35
   3  54  91  61
   3  54  91  62
   3  54  61  91
   3  54  61  68
   3  54  68  61
   3  54  68  31
   3  54  31  35
   3  54  31  68
   3  55  65  60
   3  55  65  32
   3  55  60  90
   3  55  60  65
   3  55  90  63
   3  55  90  60
   3  55  63  90
   3  55  63  36
   3  55  36  32
   3  55  36  63
   3  55  32  65
   3  55  32  36
   3  56  53 144
   3  56  53 145
   3  56 144  53
   3  56 144  37
   3  56  37  92
   3  56  37 144
   3  56  92 134
   3  56  92  37
   3  56 134 106
   3  56 134  92
   3  56 106 105
   3  56 106 134
   3  56 105 133
   3  56 105 106
   3  56 133  93
   3  56 133 105
   3  56  93  64
   3  56  93 133
   3  56  64  93
   3  56  64 145
   3  56 145  64
   3  56 145  53
   3  57   3  26
   4  57   3  29 127
   3  57  26  39
   3  57  26   3
   3  57  39  26
   3  57  39  94
   3  57  94  58
   3  57  94  39
   3  57  58  94
   4  57  58 128 127
   3  58   4  27
   4  58   4  29 128
   3  58  57  94
   4  58  57 127 128
   3  58  94  40
   3  58  94  57
   3  58  40  94
   3  58  40  27
   3  58  27   4
   3  58  27  40
   3  59 119  33
   3  59 119  30
   3  59  30  34
   3  59  30 119
   3  59  34 102
   3  59  34  30
   3  59 102 142
   3  59 102  34
   3  59 142 118
   3  59 142 102
   3  59 118 117
   3  59 118 142
   3  59 117 141
   3  59 117 118
   3  59 141 101
   3  59 141 117
   3  59 101 141
   3  59 101  33
   3  59  33 101
   3  59  33 119
   3  60  53  70
   3  60  53  65
   3  60  70  53
   3  60  70  99
   3  60  99  90
   3  60  99  70
   3  60  90  55
   3  60  90  99
   3  60  55  65
   3  60  55  90
   3  60  65  53
   3  60  65  55
   3  61  54  91
   3  61  54  68
   3  61  91  54
   3  61  91 100
   3  61 100  70
   3  61 100  91
   3  61  70  53
   3  61  70 100
   3  61  53  68
   3  61  53  70
   3  61  68  53
   3  61  68  54
   3  62  41  35
   3  62  41  75
   3  62  75  98
   3  62  75  41
   3  62  98  91
   3  62  98  75
   3  62  91  54
   3  62  91  98
   3  62  54  35
   3  62  54  91
   3  62  35  41
   3  62  35  54
   3  63  55  90
   3  63  55  36
   3  63  90  55
   3  63  90  97
   3  63  97  76
   3  63  97  90
   3  63  76  97
   3  63  76  42
   3  63  42  36
   3  63  42  76
   3  63  36  55
   3  63  36  42
   3  64  93  77
   3  64  93  56
   3  64  77  93
   3  64  77  14
   3  64  14  10
   3  64  14  77
   3  64  10   6
   3  64  10  14
   3  64   6  31
   3  64   6  10
   3  64  31  68
   3  64  31   6
   3  64  68 145
   3  64  68  31
   3  64 145  56
   3  64 145  68
   3  64  56  93
   3  64  56 145
   3  65  37 144
   3  65  37  32
   3  65 144  53
   3  65 144  37
   3  65  53 144
   3  65  53  60
   3  65  60  53
   3  65  60  55
   3  65  55  60
   3  65  55  32
   3  65  32  37
   3  65  32  55
   3  66  20  79
   3  66  20  24
   3  66  79  95
   3  66  79  20
   3  66  95  88
   3  66  95  79
   3  66  88  45
   3  66  88  95
   3  66  45  24
   3  66  45  88
   3  66  24  20
   3  66  24  45
   3  67  46  89
   3  67  46  25
   3  67  89  96
   3  67  89  46
   3  67  96  80
   3  67  96  89
   3  67  80  96
   3  67  80  21
   3  67  21  25
   3  67  21  80
   3  67  25  46
   3  67  25  21
   3  68  61  54
   3  68  61  53
   3  68  53 145
   3  68  53  61
   3  68 145  64
   3  68 145  53
   3  68  64  31
   3  68  64 145
   3  68  31  54
   3  68  31  64
   3  68  54  61
   3  68  54  31
   3  69   5  36
   3  69   5   8
   3  69  36  42
   3  69  36   5
   3  69  42  33
   3  69  42  36
   3  69  33   8
   3  69  33  42
   3  69   8   5
   3  69   8  33
   3  70  60  53
   3  70  60  99
   3  70  53  61
   3  70  53  60
   3  70  61 100
   3  70  61  53
   3  70 100  61
   3  70 100 126
   3  70 126  99
   3  70 126 100
   3  70  99  60
   3  70  99 126
   3  71  14  77
   3  71  14  18
   3  71  77 107
   3  71  77  14
   3  71 107  81
   3  71 107  77
   3  71  81  49
   3  71  81 107
   3  71  49  18
   3  71  49  81
   3  71  18  14
   3  71  18  49
   3  72  50  82
   3  72  50  19
   3  72  82  50
   3  72  82 108
   3  72 108  78
   3  72 108  82
   3  72  78 108
   3  72  78  15
   3  72  15  19
   3  72  15  78
   3  72  19  50
   3  72  19  15
   3  73 112 143
   3  73 112 120
   3  73 143  74
   3  73 143 112
   3  73  74  94
   3  73  74 143
   3  73  94  74
   3  73  94  39
   3  73  39  81
   3  73  39  94
   3  73  81  39
   3  73  81 120
   3  73 120 112
   3  73 120  81
   3  74  40  94
   3  74  40  82
   3  74  94  73
   3  74  94  40
   3  74  73 143
   3  74  73  94
   3  74 143 113
   3  74 143  73
   3  74 113 121
   3  74 113 143
   3  74 121  82
   3  74 121 113
   3  74  82  40
   3  74  82 121
   3  75  30  52
   3  75  30  41
   3  75  52  30
   3  75  52 103
   3  75 103  98
   3  75 103  52
   3  75  98  62
   3  75  98 103
   3  75  62  41
   3  75  62  98
   3  75  41  30
   3  75  41  62
   3  76  63  97
   3  76  63  42
   3  76  97  63
   3  76  97 104
   3  76 104  51
   3  76 104  97
   3  76  51 119
   3  76  51 104
   3  76 119  42
   3  76 119  51
   3  76  42 119
   3  76  42  63
   3  77  64  93
   3  77  64  14
   3  77  93  64
   3  77  93 115
   3  77 115 107
   3  77 115  93
   3  77 107  71
   3  77 107 115
   3  77  71  14
   3  77  71 107
   3  77  14  64
   3  77  14  71
   3  78  72 108
   3  78  72  15
   3  78 108  72
   3  78 108 116
   3  78 116  92
   3  78 116 108
   3  78  92 116
   3  78  92  37
   3  78  37  92
   3  78  37  15
   3  78  15  72
   3  78  15  37
   3  79  16  83
   3  79  16  20
   3  79  83 110
   3  79  83  16
   3  79 110  95
   3  79 110  83
   3  79  95  66
   3  79  95 110
   3  79  66  20
   3  79  66  95
   3  79  20  16
   3  79  20  66
   3  80  67  96
   3  80  67  21
   3  80  96  67
   3  80  96 111
   3  80 111  84
   3  80 111  96
   3  80  84 111
   3  80  84  17
   3  80  17  21
   3  80  17  84
   3  80  21  67
   3  80  21  17
   3  81  73  39
   3  81  73 120
   3  81  39  49
   3  81  39  73
   3  81  49  71
   3  81  49  39
   3  81  71 107
   3  81  71  49
   3  81 107  71
   3  81 107 120
   3  81 120  73
   3  81 120 107
   3  82  72  50
   3  82  72 108
   3  82  50  40
   3  82  50  72
   3  82  40  74
   3  82  40  50
   3  82  74  40
   3  82  74 121
   3  82 121 108
   3  82 121  74
   3  82 108  72
   3  82 108 121
   3  83  33 101
   3  83  33  16
   3  83 101 129
   3  83 101  33
   3  83 129 110
   3  83 129 101
   3  83 110  79
   3  83 110 129
   3  83  79  16
   3  83  79 110
   3  83  16  33
   3  83  16  79
   3  84  80 111
   3  84  80  17
   3  84 111  80
   3  84 111 130
   3  84 130 102
   3  84 130 111
   3  84 102 130
   3  84 102  34
   3  84  34 102
   3  84  34  17
   3  84  17  80
   3  84  17  34
   3  85  86  87
   3  85  86  88
   3  85  87  89
   3  85  87  86
   3  85  89  87
   3  85  89  46
   3  85  46   1
   3  85  46  89
   3  85   1 114
   3  85   1  46
   3  85 114   0
   3  85 114   1
   3  85   0  45
   3  85   0 114
   3  85  45   0
   3  85  45  88
   3  85  88  86
   3  85  88  45
   3  86  87  85
   4  86  87 138 137
   3  86  85  87
   3  86  85  88
   3  86  88  85
   3  86  88 131
   3  86 131  88
   4  86 131  44 137
   3  87 132  89
   4  87 132  47 138
   3  87  89  85
   3  87  89 132
   3  87  85  86
   3  87  85  89
   3  87  86  85
   4  87  86 137 138
   3  88  86  85
   3  88  86 131
   3  88  85  86
   3  88  85  45
   3  88  45  66
   3  88  45  85
   3  88  66  95
   3  88  66  45
   3  88  95  66
   3  88  95 131
   3  88 131  86
   3  88 131  95
   3  89  85  87
   3  89  85  46
   3  89  87 132
   3  89  87  85
   3  89 132  96
   3  89 132  87
   3  89  96  67
   3  89  96 132
   3  89  67  46
   3  89  67  96
   3  89  46  85
   3  89  46  67
   3  90  63  55
   3  90  63  97
   3  90  55  60
   3  90  55  63
   3  90  60  99
   3  90  60  55
   3  90  99  60
   3  90  99 124
   3  90 124  97
   3  90 124  99
   3  90  97  63
   3  90  97 124
   3  91  61  54
   3  91  61 100
   3  91  54  62
   3  91  54  61
   3  91  62  98
   3  91  62  54
   3  91  98  62
   3  91  98 125
   3  91 125 100
   3  91 125  98
   3  91 100  61
   3  91 100 125
   3  92  78 116
   3  92  78  37
   3  92 116  78
   3  92 116 134
   3  92 134  56
   3  92 134 116
   3  92  56  37
   3  92  56 134
   3  92  37  56
   3  92  37  78
   3  93  77  64
   3  93  77 115
   3  93  64  77
   3  93  64  56
   3  93  56 133
   3  93  56  64
   3  93 133 115
   3  93 133  56
   3  93 115  77
   3  93 115 133
   3  94  73  74
   3  94  73  39
   3  94  74  40
   3  94  74  73
   3  94  40  58
   3  94  40  74
   3  94  58  57
   3  94  58  40
   3  94  57  39
   3  94  57  58
   3  94  39  57
   3  94  39  73
   3  95  88  66
   3  95  88 131
   3  95  66  79
   3  95  66  88
   3  95  79 110
   3  95  79  66
   3  95 110  79
   3  95 110 139
   3  95 139 131
   3  95 139 110
   3  95 131  88
   3  95 131 139
   3  96  80  67
   3  96  80 111
   3  96  67  89
   3  96  67  80
   3  96  89 132
   3  96  89  67
   3  96 132  89
   3  96 132 140
   3  96 140 111
   3  96 140 132
   3  96 111  80
   3  96 111 140
   3  97  76  63
   3  97  76 104
   3  97  63  90
   3  97  63  76
   3  97  90  63
   3  97  90 124
   3  97 124  90
   3  97 124 135
   3  97 135 104
   3  97 135 124
   3  97 104  76
   3  97 104 135
   3  98  91  62
   3  98  91 125
   3  98  62  75
   3  98  62  91
   3  98  75 103
   3  98  75  62
   3  98 103  75
   3  98 103 136
   3  98 136 125
   3  98 136 103
   3  98 125  91
   3  98 125 136
   3  99  90  60
   3  99  90 124
   3  99  60  70
   3  99  60  90
   3  99  70  60
   3  99  70 126
   3  99 126  70
   3  99 126  48
   3  99  48 124
   3  99  48 126
   3  99 124  90
   3  99 124  48
   3 100  70  61
   3 100  70 126
   3 100  61  91
   3 100  61  70
   3 100  91  61
   3 100  91 125
   3 100 125  91
   3 100 125  48
   3 100  48 126
   3 100  48 125
   3 100 126  70
   3 100 126  48
   3 101  59 141
   3 101  59  33
   3 101 141 129
   3 101 141  59
   3 101 129  83
   3 101 129 141
   3 101  83  33
   3 101  83 129
   3 101  33  83
   3 101  33  59
   3 102  84 130
   3 102  84  34
   3 102 130  84
   3 102 130 142
   3 102 142  59
   3 102 142 130
   3 102  59  34
   3 102  59 142
   3 102  34  59
   3 102  34  84
   3 103  98  75
   3 103  98 136
   3 103  75  52
   3 103  75  98
   3 103  52  75
   4 103  52 122  48
   3 103  48 136
   4 103  48 125  98
   3 103 136  98
   3 103 136  48
   3 104  51  76
   4 104  51 123  48
   3 104  76  97
   3 104  76  51
   3 104  97  76
   3 104  97 135
   3 104 135  97
   3 104 135  48
   3 104  48 135
   4 104  48 124  97
   3 105  38 133
   4 105  38  43 106
   3 105 133  56
   3 105 133  38
   3 105  56 106
   3 105  56 133
   3 105 106  56
   4 105 106  43  38
   3 106  43 134
   4 106  43  38 105
   3 106 105  56
   4 106 105  38  43
   3 106  56 134
   3 106  56 105
   3 106 134  56
   3 106 134  43
   3 107  81  71
   3 107  81 120
   3 107  71  77
   3 107  71  81
   3 107  77 115
   3 107  77  71
   3 107 115  77
   3 107 115  38
   3 107  38 120
   3 107  38 115
   3 107 120  81
   3 107 120  38
   3 108  78  72
   3 108  78 116
   3 108  72  82
   3 108  72  78
   3 108  82  72
   3 108  82 121
   3 108 121  82
   3 108 121  43
   3 108  43 116
   3 108  43 121
   3 108 116  78
   3 108 116  43
   3 109  34  41
   3 109  34   9
   3 109  41  35
   3 109  41  34
   3 109  35  41
   3 109  35   2
   3 109   2  35
   3 109   2   9
   3 109   9  34
   3 109   9   2
   3 110  95  79
   3 110  95 139
   3 110  79  83
   3 110  79  95
   3 110  83 129
   3 110  83  79
   3 110 129  83
   3 110 129  44
   3 110  44 139
   3 110  44 129
   3 110 139  95
   3 110 139  44
   3 111  84  80
   3 111  84 130
   3 111  80  96
   3 111  80  84
   3 111  96  80
   3 111  96 140
   3 111 140  96
   3 111 140  47
   3 111  47 130
   3 111  47 140
   3 111 130  84
   3 111 130  47
   3 112  38 120
   3 112  38 143
   3 112 143  38
   3 112 143  73
   3 112  73 143
   3 112  73 120
   3 112 120  73
   3 112 120  38
   3 113  43 143
   3 113  43 121
   3 113 121  74
   3 113 121  43
   3 113  74 143
   3 113  74 121
   3 113 143  43
   3 113 143  74
   3 114   0  85
   3 114   0  28
   3 114  85   1
   3 114  85   0
   3 114   1  28
   3 114   1  85
   3 114  28   0
   3 114  28   1
   3 115 107  77
   3 115 107  38
   3 115  77  93
   3 115  77 107
   3 115  93  77
   3 115  93 133
   3 115 133  93
   3 115 133  38
   3 115  38 107
   3 115  38 133
   3 116  92  78
   3 116  92 134
   3 116  78 108
   3 116  78  92
   3 116 108  78
   3 116 108  43
   3 116  43 134
   3 116  43 108
   3 116 134  92
   3 116 134  43
   3 117  44 141
   4 117  44  47 118
   3 117 141  59
   3 117 141  44
   3 117  59 118
   3 117  59 141
   3 117 118  59
   4 117 118  47  44
   3 118  47 142
   4 118  47  44 117
   3 118 117  59
   4 118 117  44  47
   3 118  59 142
   3 118  59 117
   3 118 142  59
   3 118 142  47
   3 119  33  42
   3 119  33  59
   3 119  42  33
   3 119  42  76
   3 119  76  51
   3 119  76  42
   3 119  51  76
   4 119  51  52  30
   3 119  30  59
   4 119  30  52  51
   3 119  59  30
   3 119  59  33
   3 120 112  38
   3 120 112  73
   3 120  73 112
   3 120  73  81
   3 120  81  73
   3 120  81 107
   3 120 107  81
   3 120 107  38
   3 120  38 112
   3 120  38 107
   3 121 108  82
   3 121 108  43
   3 121  82  74
   3 121  82 108
   3 121  74 113
   3 121  74  82
   3 121 113  43
   3 121 113  74
   3 121  43 113
   3 121  43 108
   3 122  48 123
   4 122  48 103  52
   3 122 123  48
   4 122 123  51  52
   3 123  48 122
   4 123  48 104  51
   3 123 122  48
   4 123 122  52  51
   3 124  97  90
   3 124  97 135
   3 124  90  99
   3 124  90  97
   3 124  99  90
   3 124  99  48
   3 124  48 135
   3 124  48  99
   3 124 135  97
   3 124 135  48
   3 125 100  91
   3 125 100  48
   3 125  91  98
   3 125  91 100
   3 125  98  91
   3 125  98 136
   3 125 136  98
   3 125 136  48
   3 125  48 100
   3 125  48 136
   3 126  99  70
   3 126  99  48
   3 126  70 100
   3 126  70  99
   3 126 100  70
   3 126 100  48
   3 126  48  99
   3 126  48 100
   3 127  29 128
   4 127  29   3  57
   3 127 128  29
   4 127 128  58  57
   3 128  29 127
   4 128  29   4  58
   3 128 127  29
   4 128 127  57  58
   3 129 110  83
   3 129 110  44
   3 129  83 101
   3 129  83 110
   3 129 101 141
   3 129 101  83
   3 129 141 101
   3 129 141  44
   3 129  44 110
   3 129  44 141
   3 130 102  84
   3 130 102 142
   3 130  84 111
   3 130  84 102
   3 130 111  84
   3 130 111  47
   3 130  47 142
   3 130  47 111
   3 130 142 102
   3 130 142  47
   3 131  86  88
   4 131  86 137  44
   3 131  88  86
   3 131  88  95
   3 131  95  88
   3 131  95 139
   3 131 139  95
   3 131 139  44
   3 131  44 139
   4 131  44 110  95
   3 132  96  89
   3 132  96 140
   3 132  89  87
   3 132  89  96
   3 132  87  89
   4 132  87 138  47
   3 132  47 140
   4 132  47 138  87
   3 132 140  96
   3 132 140  47
   3 133 115  93
   3 133 115  38
   3 133  93  56
   3 133  93 115
   3 133  56 105
   3 133  56  93
   3 133 105  38
   3 133 105  56
   3 133  38 115
   3 133  38 105
   3 134 106  43
   3 134 106  56
   3 134  56  92
   3 134  56 106
   3 134  92 116
   3 134  92  56
   3 134 116  92
   3 134 116  43
   3 134  43 106
   3 134  43 116
   3 135 104  97
   3 135 104  48
   3 135  97 124
   3 135  97 104
   3 135 124  97
   3 135 124  48
   3 135  48 124
   3 135  48 104
   3 136 125  98
   3 136 125  48
   3 136  98 103
   3 136  98 125
   3 136 103  98
   3 136 103  48
   3 136  48 125
   3 136  48 103
   3 139 131  95
   3 139 131  44
   3 139  95 110
   3 139  95 131
   3 139 110  95
   3 139 110  44
   3 139  44 131
   3 139  44 110
   3 140 111  96
   3 140 111  47
   3 140  96 132
   3 140  96 111
   3 140 132  96
   3 140 132  47
   3 140  47 132
   3 140  47 111
   3 141 129 101
   3 141 129  44
   3 141 101  59
   3 141 101 129
   3 141  59 117
   3 141  59 101
   3 141 117  44
   3 141 117  59
   3 141  44 129
   3 141  44 117
   3 142 118  47
   3 142 118  59
   3 142  59 102
   3 142  59 118
   3 142 102 130
   3 142 102  59
   3 142 130 102
   3 142 130  47
   3 142  47 118
   3 142  47 130
   3 143  38 112
   3 143  38  43
   3 143  43 113
   3 143  43  38
   3 143 113  43
   3 143 113  74
   3 143  74  73
   3 143  74 113
   3 143  73 112
   3 143  73  74
   3 143 112  38
   3 143 112  73
   3 144  56  53
   3 144  56  37
   3 144  53  56
   3 144  53  65
   3 144  65  37
   3 144  65  53
   3 144  37  56
   3 144  37  65
   3 145  56  53
   3 145  56  64
   3 145  64  68
   3 145  64  56
   3 145  68  53
   3 145  68  64
   3 145  53  56
   3 145  53  68
