 COFF
         164        1728         164
  
  -6.6538389639200082        1.2861069870540072        6.5110486594311050       0.60000002384185791       0.60000002384185791       0.60000002384185791       0.80000001192092896     
  -6.6538436764492044       -1.2861032113940865        6.5110498892196516       0.60000002384185791       0.60000002384185791       0.60000002384185791       0.80000001192092896     
  -3.4856836814095973E-002  -2.3468340545091877        6.2311659680144356       0.60000002384185791       0.60000002384185791       0.60000002384185791       0.80000001192092896     
   7.5967824883535036       -1.4076777994100416        6.5225580104278960       0.60000002384185791       0.60000002384185791       0.60000002384185791       0.80000001192092896     
   7.5967823722640420        1.4076778484094024        6.5225580522121289       0.60000002384185791       0.60000002384185791       0.60000002384185791       0.80000001192092896     
  -3.4856842323855997E-002   2.3468341402244755        6.2311658787340347       0.60000002384185791       0.60000002384185791       0.60000002384185791       0.80000001192092896     
   1.1604875112798825       -2.0241812102663830        6.3705927525220796       0.60000002384185791       0.60000002384185791       0.60000002384185791       0.80000001192092896     
   1.1604876214634181        2.0241813956407531        6.3705925518279596       0.60000002384185791       0.60000002384185791       0.60000002384185791       0.80000001192092896     
  -1.1822521974650371        2.0119624111559178        6.3362356732604352       0.60000002384185791       0.60000002384185791       0.60000002384185791       0.80000001192092896     
  -1.1822521881404775       -2.0119624232737459        6.3362356626436647       0.60000002384185791       0.60000002384185791       0.60000002384185791       0.80000001192092896     
   2.0600581984747275       -1.6896669563357207        6.6528498604523181       0.60000002384185791       0.60000002384185791       0.60000002384185791       0.80000001192092896     
   2.0600581715953243        1.6896669499806494        6.6528498795587767       0.60000002384185791       0.60000002384185791       0.60000002384185791       0.80000001192092896     
  -2.0852261414170674        1.6987078761303034        6.6309970903764661       0.60000002384185791       0.60000002384185791       0.60000002384185791       0.80000001192092896     
  -2.0852261305813222       -1.6987078861743421        6.6309970827730389       0.60000002384185791       0.60000002384185791       0.60000002384185791       0.80000001192092896     
   3.0205256333735151       -1.8580211611880897        6.3993398621381594       0.60000002384185791       0.60000002384185791       0.60000002384185791       0.80000001192092896     
   3.0205531160729695        1.8580251762612321        6.3993641323475288       0.60000002384185791       0.60000002384185791       0.60000002384185791       0.80000001192092896     
  -3.0144231900724883        1.8579223764922734        6.2982590985720037       0.60000002384185791       0.60000002384185791       0.60000002384185791       0.80000001192092896     
  -3.0144231761945788       -1.8579223578272832        6.2982590689280054       0.60000002384185791       0.60000002384185791       0.60000002384185791       0.80000001192092896     
   4.0738484651681075       -1.7377132195110814        6.6250665797043053       0.60000002384185791       0.60000002384185791       0.60000002384185791       0.80000001192092896     
   4.0738489487508049        1.7377137132895988        6.6250660251484081       0.60000002384185791       0.60000002384185791       0.60000002384185791       0.80000001192092896     
  -4.0476080991320567        1.7238231521879122        6.5875695012650333       0.60000002384185791       0.60000002384185791       0.60000002384185791       0.80000001192092896     
  -4.0476081197110743       -1.7238231172387715        6.5875695194595325       0.60000002384185791       0.60000002384185791       0.60000002384185791       0.80000001192092896     
   5.0575959766619132       -1.5807115909748217        6.6162683315548483       0.60000002384185791       0.60000002384185791       0.60000002384185791       0.80000001192092896     
   5.0575963713351539        1.5807116359933320        6.6162682259278700       0.60000002384185791       0.60000002384185791       0.60000002384185791       0.80000001192092896     
  -5.0693279384625960        1.5026918631233819        6.5990247608760564       0.60000002384185791       0.60000002384185791       0.60000002384185791       0.80000001192092896     
  -5.0693279860045184       -1.5026916329540396        6.5990249820178972       0.60000002384185791       0.60000002384185791       0.60000002384185791       0.80000001192092896     
   6.0711906106860365       -1.5914519710865678        6.5089024478214963       0.60000002384185791       0.60000002384185791       0.60000002384185791       0.80000001192092896     
   6.0711824797672369        1.5914505204692173        6.5088926369257534       0.60000002384185791       0.60000002384185791       0.60000002384185791       0.80000001192092896     
  -7.9398186195740816        1.5808396900990004E-004   6.5035935770663302       0.60000002384185791       0.60000002384185791       0.60000002384185791       0.80000001192092896     
   9.0073695463724199        1.0993549481551236E-008   6.4848613980764371       0.60000002384185791       0.60000002384185791       0.60000002384185791       0.80000001192092896     
  -1.7256261166114331      -0.95699969945830632        4.0477420535413389       0.60000002384185791       0.60000002384185791       0.60000002384185791       0.80000001192092896     
  0.91377747313862423       -1.8896533729390221        4.6909342435696129        1.0000000000000000        1.0000000000000000        0.0000000000000000        1.0000000000000000     
  0.91380428059026053        1.8896535312898095        4.6909492865371529        1.0000000000000000        1.0000000000000000        0.0000000000000000        1.0000000000000000     
  -2.0553491308665319        1.7516627692793099        5.4090410204979147       0.60000002384185791       0.60000002384185791       0.60000002384185791       0.80000001192092896     
  -2.0553509642550871       -1.7516635011545902        5.4090417418760657       0.60000002384185791       0.60000002384185791       0.60000002384185791       0.80000001192092896     
 -0.15766056767769004       -1.9967618053215470        4.7307146898387442       0.60000002384185791       0.60000002384185791       0.60000002384185791       0.80000001192092896     
 -0.15765979411411155        1.9967623891650363        4.7307151459100094       0.60000002384185791       0.60000002384185791       0.60000002384185791       0.80000001192092896     
   2.0845122459012639        1.7089758352758322        5.4260724144795818       0.60000002384185791       0.60000002384185791       0.60000002384185791       0.80000001192092896     
   3.4611685753218380      -0.61933105599079818        2.3410133446645589        1.0000000000000000        1.0000000000000000        0.0000000000000000        1.0000000000000000     
   5.4685322203846845       -1.4618173644169226        5.5544009258251714       0.60000002384185791       0.60000002384185791       0.60000002384185791       0.80000001192092896     
   5.4685268345554716        1.4618112739588542        5.5543901770483775       0.60000002384185791       0.60000002384185791       0.60000002384185791       0.80000001192092896     
 -0.78274349258074072       -1.9069741092434811        4.1535558179793304       0.60000002384185791       0.60000002384185791       0.60000002384185791       0.80000001192092896     
 -0.78274482323942118        1.9069744672733551        4.1535557803947896       0.60000002384185791       0.60000002384185791       0.60000002384185791       0.80000001192092896     
   3.4611708017697138       0.61932918652320101        2.3410133446645589        1.0000000000000000        1.0000000000000000        0.0000000000000000        1.0000000000000000     
  -3.5114520571873249       0.66049485131375030        2.5284741087501219        1.0000000000000000        1.0000000000000000        0.0000000000000000        1.0000000000000000     
  -5.1425324462751512        1.4330842091826264        5.6483353945432775       0.60000002384185791       0.60000002384185791       0.60000002384185791       0.80000001192092896     
  -5.1425304968522223       -1.4330828064012522        5.6483338932704976       0.60000002384185791       0.60000002384185791       0.60000002384185791       0.80000001192092896     
  -3.5114547464989769      -0.66049605613055495        2.5284741087501215        1.0000000000000000        1.0000000000000000        0.0000000000000000        1.0000000000000000     
   9.7263974480434168E-002   7.3832684509699942E-007   1.0306063639638421        1.0000000000000000        1.0000000000000000        0.0000000000000000        1.0000000000000000     
   4.5685403168433636       -1.6586092978584825        5.8365168140889434       0.60000002384185791       0.60000002384185791       0.60000002384185791       0.80000001192092896     
   4.5685491021792153        1.6585838914859712        5.8365208138185611       0.60000002384185791       0.60000002384185791       0.60000002384185791       0.80000001192092896     
  -1.3675084761003977        1.0012654045272606        2.6975557688073777       0.60000002384185791       0.60000002384185791       0.60000002384185791       0.80000001192092896     
  -1.3675835552005779       -1.0003977276643592        2.6975746569994263       0.60000002384185791       0.60000002384185791       0.60000002384185791       0.80000001192092896     
   1.6982892642033147       -9.4539892865991961E-006   4.1926496633832642       0.60000002384185791       0.60000002384185791       0.60000002384185791       0.80000001192092896     
  0.80096080442503603       -1.8494374564361253        3.8286409232543703       0.60000002384185791       0.60000002384185791       0.60000002384185791       0.80000001192092896     
  0.80109849272548772        1.8498452617328165        3.8286380010138155       0.60000002384185791       0.60000002384185791       0.60000002384185791       0.80000001192092896     
   2.0431973873551472       -3.4554450396182808E-005   4.7789272788565436       0.60000002384185791       0.60000002384185791       0.60000002384185791       0.80000001192092896     
   7.0648706606984932      -0.75982150500782886        4.5954174293392773        1.0000000000000000        1.0000000000000000        0.0000000000000000        1.0000000000000000     
   7.0648711666468165       0.75982158554050105        4.5954174293400127        1.0000000000000000        1.0000000000000000        0.0000000000000000        1.0000000000000000     
  -2.3415930005102368        9.8254032008415109E-006   4.4034256210636578       0.60000002384185791       0.60000002384185791       0.60000002384185791       0.80000001192092896     
   1.1507912611086502        1.4287332914122612        3.5552670798298367       0.60000002384185791       0.60000002384185791       0.60000002384185791       0.80000001192092896     
   1.1507755738796470       -1.4287285667057048        3.5552642943792989       0.60000002384185791       0.60000002384185791       0.60000002384185791       0.80000001192092896     
   5.1886790681448150E-002  -1.9071505678505465        3.6680099216362723       0.60000002384185791       0.60000002384185791       0.60000002384185791       0.80000001192092896     
   5.1869657981587262E-002   1.9071497521747400        3.6680122048313559       0.60000002384185791       0.60000002384185791       0.60000002384185791       0.80000001192092896     
   2.0844955045407425       -1.7089723419112930        5.4260618634654953       0.60000002384185791       0.60000002384185791       0.60000002384185791       0.80000001192092896     
   1.3513415366097559        1.7042657805999013        4.5591618124687479       0.60000002384185791       0.60000002384185791       0.60000002384185791       0.80000001192092896     
  -4.5553548400126873        1.6138603967123724        5.6645783892954240       0.60000002384185791       0.60000002384185791       0.60000002384185791       0.80000001192092896     
  -4.5553468070062166       -1.6138859866225317        5.6645800476288608       0.60000002384185791       0.60000002384185791       0.60000002384185791       0.80000001192092896     
   1.3513176611477480       -1.7042599429892979        4.5591605902431462       0.60000002384185791       0.60000002384185791       0.60000002384185791       0.80000001192092896     
  -1.0010938618288561        1.8826048499657397        4.8432320824087451        1.0000000000000000        1.0000000000000000        0.0000000000000000        1.0000000000000000     
   1.3565279395690297       -4.9943534834730212E-006   3.1662074401260889       0.60000002384185791       0.60000002384185791       0.60000002384185791       0.80000001192092896     
   4.0518331675239008       -1.7206906526771011        5.2695695090766117       0.60000002384185791       0.60000002384185791       0.60000002384185791       0.80000001192092896     
   4.0518396501375005        1.7206898485489117        5.2695665395767817       0.60000002384185791       0.60000002384185791       0.60000002384185791       0.80000001192092896     
   5.1727363250243270       -1.1314894052016822        4.3333440185730296       0.60000002384185791       0.60000002384185791       0.60000002384185791       0.80000001192092896     
   5.1727372111570284        1.1314881847842491        4.3333435633219182       0.60000002384185791       0.60000002384185791       0.60000002384185791       0.80000001192092896     
 -0.62252320727447874       -1.7034116874423528        3.3767510613093279       0.60000002384185791       0.60000002384185791       0.60000002384185791       0.80000001192092896     
 -0.62253471459264109        1.7033992195392007        3.3767312655632575       0.60000002384185791       0.60000002384185791       0.60000002384185791       0.80000001192092896     
   3.0877360520877257       -1.7530565380580123        4.9489497745141300       0.60000002384185791       0.60000002384185791       0.60000002384185791       0.80000001192092896     
   3.0877632402031328        1.7531789422146653        4.9489351257026364       0.60000002384185791       0.60000002384185791       0.60000002384185791       0.80000001192092896     
  -3.9066051237824140        1.6761755372571472        5.3368987292377401       0.60000002384185791       0.60000002384185791       0.60000002384185791       0.80000001192092896     
  -3.9066045159275853       -1.6761745327491202        5.3368987175610796       0.60000002384185791       0.60000002384185791       0.60000002384185791       0.80000001192092896     
   4.6032673140118234       -1.6267504836965254        4.5344761308789110       0.60000002384185791       0.60000002384185791       0.60000002384185791       0.80000001192092896     
   4.6032632932475650        1.6267472998793575        4.5344654735205117       0.60000002384185791       0.60000002384185791       0.60000002384185791       0.80000001192092896     
  -3.0257729493553081        1.7513731423699836        4.9127865165426137       0.60000002384185791       0.60000002384185791       0.60000002384185791       0.80000001192092896     
  -3.0257606797447716       -1.7514320434891963        4.9127871515758610       0.60000002384185791       0.60000002384185791       0.60000002384185791       0.80000001192092896     
  -5.8687063942294007        2.0186997149014919E-006   5.1304800848450292       0.60000002384185791       0.60000002384185791       0.60000002384185791       0.80000001192092896     
  -5.1819902494623165       0.84808549873307670        4.1646801879361091       0.60000002384185791       0.60000002384185791       0.60000002384185791       0.80000001192092896     
  -5.1819918414783199      -0.84808400025126540        4.1646797497774903       0.60000002384185791       0.60000002384185791       0.60000002384185791       0.80000001192092896     
  -4.8583214933248486        1.2631650803924239        4.6135067587155660       0.60000002384185791       0.60000002384185791       0.60000002384185791       0.80000001192092896     
  -4.8583255879743463       -1.2631609121269223        4.6135119227281081       0.60000002384185791       0.60000002384185791       0.60000002384185791       0.80000001192092896     
  0.70473082716748248        1.7116473488217459        2.9247064488566661       0.60000002384185791       0.60000002384185791       0.60000002384185791       0.80000001192092896     
  0.70473212546100494       -1.7116677746815088        2.9247091062734416       0.60000002384185791       0.60000002384185791       0.60000002384185791       0.80000001192092896     
   2.5692928472435512        1.2906473685492725        4.4361894152794745       0.60000002384185791       0.60000002384185791       0.60000002384185791       0.80000001192092896     
   2.5692946681287863       -1.2906765556472728        4.4362007980111340       0.60000002384185791       0.60000002384185791       0.60000002384185791       0.80000001192092896     
   5.9156433232631711        4.2677331981827509E-007   4.3332186692597645       0.60000002384185791       0.60000002384185791       0.60000002384185791       0.80000001192092896     
  -4.1757804643979863        1.6474184848195368        4.6135866486830555       0.60000002384185791       0.60000002384185791       0.60000002384185791       0.80000001192092896     
  -4.1757812970285997       -1.6474169614494201        4.6135917263354678       0.60000002384185791       0.60000002384185791       0.60000002384185791       0.80000001192092896     
  0.18496403357502147        1.7616606689859406        2.5817461466582285       0.60000002384185791       0.60000002384185791       0.60000002384185791       0.80000001192092896     
  0.18497727829257157       -1.7616677211152563        2.5817473213077426       0.60000002384185791       0.60000002384185791       0.60000002384185791       0.80000001192092896     
   1.0365140822983385        1.1725474572238008        2.6156085757374843       0.60000002384185791       0.60000002384185791       0.60000002384185791       0.80000001192092896     
   1.0365045673328910       -1.1725422302307662        2.6156109816531306       0.60000002384185791       0.60000002384185791       0.60000002384185791       0.80000001192092896     
  -2.5845615985243704        1.5160676473497072        4.5204101035153945       0.60000002384185791       0.60000002384185791       0.60000002384185791       0.80000001192092896     
  -2.5845851312436130       -1.5160888026107131        4.5204148759335654       0.60000002384185791       0.60000002384185791       0.60000002384185791       0.80000001192092896     
 -0.49056985030232403       -1.5296862594136365        2.2672499320816892        1.0000000000000000       0.10000000149011612        0.0000000000000000       0.50000000000000000     
 -0.49057197669154856        1.5296765011652111        2.2672703010406794        1.0000000000000000       0.10000000149011612        0.0000000000000000       0.50000000000000000     
   2.5161354074821203      -0.54404938060458807        3.2308464916169144       0.60000002384185791       0.60000002384185791       0.60000002384185791       0.80000001192092896     
   2.5161411872692727       0.54402093995873946        3.2308502860628141       0.60000002384185791       0.60000002384185791       0.60000002384185791       0.80000001192092896     
   3.9672038232257139       -1.6548118093460675        4.1229709255033358       0.60000002384185791       0.60000002384185791       0.60000002384185791       0.80000001192092896     
   3.9671820487123171        1.6548208293619808        4.1229904514573521       0.60000002384185791       0.60000002384185791       0.60000002384185791       0.80000001192092896     
  -1.0010930358016423       -1.8826053679808958        4.8432319704041973        1.0000000000000000        1.0000000000000000        0.0000000000000000        1.0000000000000000     
  -3.7535555725371856        1.6763832765561608        4.2014813641211726       0.60000002384185791       0.60000002384185791       0.60000002384185791       0.80000001192092896     
  -3.7535648196740086       -1.6763838561999151        4.2014841005267574       0.60000002384185791       0.60000002384185791       0.60000002384185791       0.80000001192092896     
   4.7156717385413200      -0.96605062894277494        3.1392071148334066       0.60000002384185791       0.60000002384185791       0.60000002384185791       0.80000001192092896     
   4.7156912152577428       0.96603506643887405        3.1391747818708575       0.60000002384185791       0.60000002384185791       0.60000002384185791       0.80000001192092896     
  -6.7300056733587867        3.5962400675513250E-006   5.0071826586955126        1.0000000000000000        1.0000000000000000        0.0000000000000000        1.0000000000000000     
   3.2672484983637857       -1.5608884432905374        3.9545733621044170       0.60000002384185791       0.60000002384185791       0.60000002384185791       0.80000001192092896     
   3.2672899428154376        1.5608722693998915        3.9545761323411983       0.60000002384185791       0.60000002384185791       0.60000002384185791       0.80000001192092896     
  -2.5625158598883995       0.48132239664261606        3.3235174162505845       0.60000002384185791       0.60000002384185791       0.60000002384185791       0.80000001192092896     
  -2.5625159473306534      -0.48131015304376829        3.3235152682411817       0.60000002384185791       0.60000002384185791       0.60000002384185791       0.80000001192092896     
  -1.7256179681858370       0.95699394412243277        4.0477370696790294       0.60000002384185791       0.60000002384185791       0.60000002384185791       0.80000001192092896     
   4.4014001020525377       -1.4717451456474702        3.4602816623162989       0.60000002384185791       0.60000002384185791       0.60000002384185791       0.80000001192092896     
   4.4014048628499882        1.4717464890125331        3.4602787018279400       0.60000002384185791       0.60000002384185791       0.60000002384185791       0.80000001192092896     
  -1.3517450869026424      -0.60410031626095773        1.8340898845758267        1.0000000000000000       0.10000000149011612        0.0000000000000000       0.50000000000000000     
  -1.3517458114507466       0.60410037720467225        1.8340900207410651        1.0000000000000000       0.10000000149011612        0.0000000000000000       0.50000000000000000     
  0.68299856579249385        1.4587993433048045        1.9996279266171120        1.0000000000000000       0.10000000149011612        0.0000000000000000       0.50000000000000000     
  0.68299090124785911       -1.4587952786426512        1.9996265857218458        1.0000000000000000       0.10000000149011612        0.0000000000000000       0.50000000000000000     
   1.1686390591570242       -3.3216654081738402E-006   2.3267024808523655        1.0000000000000000       0.10000000149011612        0.0000000000000000       0.50000000000000000     
   8.3140273425164111      -0.42318242077010426        5.3604484241963268       0.60000002384185791       0.60000002384185791       0.60000002384185791       0.80000001192092896     
   8.3140273654044297       0.42318204963866696        5.3604487786702899       0.60000002384185791       0.60000002384185791       0.60000002384185791       0.80000001192092896     
  -3.1267768080037701        1.6147856033963617        3.9073590345184077       0.60000002384185791       0.60000002384185791       0.60000002384185791       0.80000001192092896     
  -3.1267849092989910       -1.6147897619103220        3.9073464259459385       0.60000002384185791       0.60000002384185791       0.60000002384185791       0.80000001192092896     
  -4.5479141215617007        1.3534358255264805        3.6721217450005592       0.60000002384185791       0.60000002384185791       0.60000002384185791       0.80000001192092896     
  -4.5479132920397500       -1.3534312223089691        3.6721184653054380       0.60000002384185791       0.60000002384185791       0.60000002384185791       0.80000001192092896     
   2.8027610204669413       -1.2021274299602536        3.6950966065725588       0.60000002384185791       0.60000002384185791       0.60000002384185791       0.80000001192092896     
   2.8027686182007385        1.2020938263734771        3.6951326953249564       0.60000002384185791       0.60000002384185791       0.60000002384185791       0.80000001192092896     
  0.12110721587366749        1.4279988071034229        1.6838641882311707        1.0000000000000000       0.10000000149011612        0.0000000000000000       0.50000000000000000     
  0.12110609987404181       -1.4279966171925087        1.6838571109848299        1.0000000000000000       0.10000000149011612        0.0000000000000000       0.50000000000000000     
  -5.0438086029062470       0.75708989749155298        3.1654207837444650       0.60000002384185791       0.60000002384185791       0.60000002384185791       0.80000001192092896     
  -5.0438032709440339      -0.75708250467620508        3.1654192655442994       0.60000002384185791       0.60000002384185791       0.60000002384185791       0.80000001192092896     
  -4.1466045933384086        1.4728124733143935        3.5184220333101828       0.60000002384185791       0.60000002384185791       0.60000002384185791       0.80000001192092896     
  -4.1466400737663953       -1.4728285501063849        3.5184443763110251       0.60000002384185791       0.60000002384185791       0.60000002384185791       0.80000001192092896     
  -2.8290328168239243        1.2927256958077316        3.6044796505772920       0.60000002384185791       0.60000002384185791       0.60000002384185791       0.80000001192092896     
  -2.8290535887829993       -1.2927471187054409        3.6044731255840721       0.60000002384185791       0.60000002384185791       0.60000002384185791       0.80000001192092896     
   4.9471782568081064       -9.0158431146482865E-006   3.1934541379635113       0.60000002384185791       0.60000002384185791       0.60000002384185791       0.80000001192092896     
   1.9845425722957886       0.83437165119621526        4.8365844129600433       0.60000002384185791       0.60000002384185791       0.60000002384185791       0.80000001192092896     
   1.9845410864725344      -0.83436205250199613        4.8365496567130775       0.60000002384185791       0.60000002384185791       0.60000002384185791       0.80000001192092896     
   6.6541502667500563       -1.3415235538333132        5.6244828942395984       0.60000002384185791       0.60000002384185791       0.60000002384185791       0.80000001192092896     
   6.6541468433939670        1.3415248100639379        5.6244835476774080       0.60000002384185791       0.60000002384185791       0.60000002384185791       0.80000001192092896     
  0.87394361238681040       0.72387949102971083        1.8349877305687496        1.0000000000000000       0.10000000149011612        0.0000000000000000       0.50000000000000000     
  0.87393626406658598      -0.72387386443344826        1.8349895457274914        1.0000000000000000       0.10000000149011612        0.0000000000000000       0.50000000000000000     
   5.2834023107611392        2.1185918968679717E-007   4.1574916276114271       0.60000002384185791       0.60000002384185791       0.60000002384185791       0.80000001192092896     
  -1.4625562382127211       -9.8608982850666856E-007   2.6976635940753400       0.60000002384185791       0.60000002384185791       0.60000002384185791       0.80000001192092896     
   3.7446609511256392       -1.2792305133333262        3.2191276979324748       0.60000002384185791       0.60000002384185791       0.60000002384185791       0.80000001192092896     
   3.7446598451463169        1.2792288315832283        3.2191222397456496       0.60000002384185791       0.60000002384185791       0.60000002384185791       0.80000001192092896     
   7.3292661504842282       -1.1499888727754721        5.6028433097709529       0.60000002384185791       0.60000002384185791       0.60000002384185791       0.80000001192092896     
   7.3292661302387776        1.1499888055522496        5.6028432758435791       0.60000002384185791       0.60000002384185791       0.60000002384185791       0.80000001192092896     
 -0.32093793795298925      -0.87515860616356000        1.6179306435648624        1.0000000000000000       0.10000000149011612        0.0000000000000000       0.50000000000000000     
 -0.32093228300103904       0.87516031879935896        1.6179374958678809        1.0000000000000000       0.10000000149011612        0.0000000000000000       0.50000000000000000     
   8.1898876745346616      -0.64445697240980071        6.0316795705427930       0.60000002384185791       0.60000002384185791       0.60000002384185791       0.80000001192092896     
   8.1898878748496440       0.64445650241738717        6.0316798193280921       0.60000002384185791       0.60000002384185791       0.60000002384185791       0.80000001192092896     
  -6.3676523817190231       0.70618340557064807        5.7801444847774226       0.60000002384185791       0.60000002384185791       0.60000002384185791       0.80000001192092896     
  -6.3676546416725444      -0.70618033131754143        5.7801451488554081       0.60000002384185791       0.60000002384185791       0.60000002384185791       0.80000001192092896     
  -2.1706992463763397       0.95036038466034722        4.8640502283766267       0.60000002384185791       0.60000002384185791       0.60000002384185791       0.80000001192092896     
  -2.1706956597192102      -0.95035687502141308        4.8640533396537853       0.60000002384185791       0.60000002384185791       0.60000002384185791       0.80000001192092896     
  
   3   0  24  45
   3   0  45  24
   3   0  45 160
   3   0 160  45
   3   0 160 114
   3   0 114 160
   3   0 114  28
   3   0  28 114
   3   1  28 114
   3   1 114 161
   3   1 114  28
   3   1 161 114
   3   1 161  46
   3   1  46 161
   3   1  46  25
   3   1  25  46
   3   2  35 109
   3   2  35  31
   3   2  31  35
   3   2  31   6
   3   2   6  31
   3   2   9 109
   3   2 109  35
   3   2 109   9
   3   3  29 158
   4   3  29 127 154
   3   3  26 146
   3   3 146 154
   3   3 146  26
   3   3 154 146
   3   3 154 158
   3   3 158 154
   3   3 158  29
   3   4  29 159
   4   4  29 128 155
   3   4 159 155
   3   4 159  29
   3   4 155 159
   3   4 155 147
   3   4 147 155
   3   4 147  27
   3   4  27 147
   3   5   7  32
   3   5  32  36
   3   5  32   7
   3   5  36  32
   3   5  36  69
   3   5  69  36
   3   5  69   8
   3   5   8  69
   3   6   2  31
   3   6  31   2
   3   6  31  64
   3   6  64  10
   3   6  64  31
   3   6  10  64
   3   7  11  37
   3   7  37  32
   3   7  37  11
   3   7  32  37
   3   7  32   5
   3   7   5  32
   3   8   5  69
   3   8  69   5
   3   8  69  33
   3   8  33  12
   3   8  33  69
   3   8  12  33
   3   9  13  34
   3   9  34 109
   3   9  34  13
   3   9 109  34
   3   9 109   2
   3   9   2 109
   3  10   6  64
   3  10  64  14
   3  10  64   6
   3  10  14  64
   3  11  15  37
   3  11  37   7
   3  11  37  15
   3  11   7  37
   3  12   8  33
   3  12  33  16
   3  12  33   8
   3  12  16  33
   3  13  17  34
   3  13  34   9
   3  13  34  17
   3  13   9  34
   3  14  10  64
   3  14  64  77
   3  14  64  10
   3  14  77  64
   3  14  77  71
   3  14  71  77
   3  14  71  18
   3  14  18  71
   3  15  19  72
   3  15  72  78
   3  15  72  19
   3  15  78  72
   3  15  78  37
   3  15  37  11
   3  15  37  78
   3  15  11  37
   3  16  12  33
   3  16  33  83
   3  16  33  12
   3  16  83  33
   3  16  83  79
   3  16  79  83
   3  16  79  20
   3  16  20  79
   3  17  21  80
   3  17  80  84
   3  17  80  21
   3  17  84  80
   3  17  84  34
   3  17  34  13
   3  17  34  84
   3  17  13  34
   3  18  14  71
   3  18  71  14
   3  18  71  49
   3  18  49  71
   3  18  49  22
   3  18  22  49
   3  19  23  50
   3  19  50  72
   3  19  50  23
   3  19  72  50
   3  19  72  15
   3  19  15  72
   3  20  16  79
   3  20  79  16
   3  20  79  66
   3  20  66  79
   3  20  66  24
   3  20  24  66
   3  21  25  67
   3  21  67  80
   3  21  67  25
   3  21  80  67
   3  21  80  17
   3  21  17  80
   3  22  18  49
   3  22  49  18
   3  22  49  39
   3  22  39  26
   3  22  39  49
   3  22  26  39
   3  23  27  40
   3  23  40  50
   3  23  40  27
   3  23  50  40
   3  23  50  19
   3  23  19  50
   3  24  20  66
   3  24  66  20
   3  24  66  45
   3  24  45   0
   3  24  45  66
   3  24   0  45
   3  25   1  46
   3  25  46   1
   3  25  46  67
   3  25  67  46
   3  25  67  21
   3  25  21  67
   3  26  22  39
   3  26  39 146
   3  26  39  22
   3  26 146  39
   3  26 146   3
   3  26   3 146
   3  27   4 147
   3  27 147   4
   3  27 147  40
   3  27  40  23
   3  27  40 147
   3  27  23  40
   3  28   0 114
   3  28 114   0
   3  28 114   1
   3  28   1 114
   3  29   3 158
   4  29   3 154 127
   3  29 158   3
   3  29 158 127
   3  29 127 158
   3  29 127 128
   3  29 128 127
   3  29 128 159
   3  29 159 128
   3  29 159   4
   3  29   4 159
   4  29   4 155 128
   3  30  34 163
   3  30  34  41
   3  30 163  59
   3  30 163  34
   3  30  59 119
   3  30  59 163
   3  30 119 151
   3  30 119  59
   3  30 151  52
   3  30 151 119
   3  30  52 151
   3  30  52  75
   3  30  75  52
   3  30  75  41
   3  30  41  34
   3  30  41  75
   3  31   2  35
   3  31   2   6
   3  31  35  54
   3  31  35   2
   3  31  54  35
   3  31  54  68
   3  31  68  64
   3  31  68  54
   3  31  64   6
   3  31  64  68
   3  31   6   2
   3  31   6  64
   3  32  37  65
   3  32  37   7
   3  32  65  37
   3  32  65  55
   3  32  55  65
   3  32  55  36
   3  32  36  55
   3  32  36   5
   3  32   5   7
   3  32   5  36
   3  32   7  37
   3  32   7   5
   3  33 101  83
   3  33 101 162
   3  33  83 101
   3  33  83  16
   3  33  16  12
   3  33  16  83
   3  33  12   8
   3  33  12  16
   3  33   8  69
   3  33   8  12
   3  33  69  42
   3  33  69   8
   3  33  42 119
   3  33  42  69
   3  33 119  42
   3  33 119 162
   3  33 162 119
   3  33 162 101
   3  34 102  84
   3  34 102 163
   3  34 163 102
   3  34 163  30
   3  34  30 163
   3  34  30  41
   3  34  41 109
   3  34  41  30
   3  34 109  41
   3  34 109   9
   3  34   9  13
   3  34   9 109
   3  34  13  17
   3  34  13   9
   3  34  17  84
   3  34  17  13
   3  34  84 102
   3  34  84  17
   3  35 109  41
   3  35 109   2
   3  35  41 109
   3  35  41  62
   3  35  62  41
   3  35  62  54
   3  35  54  62
   3  35  54  31
   3  35  31   2
   3  35  31  54
   3  35   2  31
   3  35   2 109
   3  36  32  55
   3  36  32   5
   3  36  55  63
   3  36  55  32
   3  36  63  55
   3  36  63  42
   3  36  42  69
   3  36  42  63
   3  36  69   5
   3  36  69  42
   3  36   5  32
   3  36   5  69
   3  37  92  78
   3  37  92  56
   3  37  56 144
   3  37  56  92
   3  37 144  56
   3  37 144  65
   3  37  65 144
   3  37  65  32
   3  37  32  65
   3  37  32   7
   3  37   7  11
   3  37   7  32
   3  37  11  15
   3  37  11   7
   3  37  15  78
   3  37  15  11
   3  37  78  92
   3  37  78  15
   3  38 112 143
   3  38 112 120
   3  38 120 112
   3  38 120 152
   3  38 152 120
   3  38 152 115
   3  38 115 133
   3  38 115 152
   3  38 133 115
   3  38 133 105
   3  38 105 133
   4  38 105 106  43
   3  38  43 143
   4  38  43 106 105
   3  38 143  43
   3  38 143 112
   3  39  57 146
   3  39  57  94
   3  39 146  57
   3  39 146  26
   3  39  26  22
   3  39  26 146
   3  39  22  49
   3  39  22  26
   3  39  49  81
   3  39  49  22
   3  39  81  73
   3  39  81  49
   3  39  73  94
   3  39  73  81
   3  39  94  73
   3  39  94  57
   3  40  58  94
   3  40  58 147
   3  40  94  74
   3  40  94  58
   3  40  74  94
   3  40  74  82
   3  40  82  50
   3  40  82  74
   3  40  50  82
   3  40  50  23
   3  40  23  27
   3  40  23  50
   3  40  27 147
   3  40  27  23
   3  40 147  58
   3  40 147  27
   3  41  35 109
   3  41  35  62
   3  41 109  34
   3  41 109  35
   3  41  34  30
   3  41  34 109
   3  41  30  34
   3  41  30  75
   3  41  75  30
   3  41  75  62
   3  41  62  75
   3  41  62  35
   3  42 119  33
   3  42 119  76
   3  42  33  69
   3  42  33 119
   3  42  69  36
   3  42  69  33
   3  42  36  63
   3  42  36  69
   3  42  63  76
   3  42  63  36
   3  42  76  63
   3  42  76 119
   3  43 113 121
   3  43 113 143
   3  43 143  38
   3  43 143 113
   3  43  38 143
   4  43  38 105 106
   3  43 106 134
   4  43 106 105  38
   3  43 134 106
   3  43 134 116
   3  43 116 153
   3  43 116 134
   3  43 153 116
   3  43 153 121
   3  43 121 113
   3  43 121 153
   3  44 131 139
   4  44 131  86 137
   3  44 139 131
   3  44 139 110
   3  44 110 129
   3  44 110 139
   3  44 129 110
   3  44 129 141
   3  44 141 129
   3  44 141 117
   3  44 117 141
   4  44 117 118  47
   3  45   0  24
   3  45   0 160
   3  45  24  66
   3  45  24   0
   3  45  66  88
   3  45  66  24
   3  45  88  85
   3  45  88  66
   3  45  85 160
   3  45  85  88
   3  45 160  85
   3  45 160   0
   3  46   1 161
   3  46   1  25
   3  46 161  85
   3  46 161   1
   3  46  85  89
   3  46  85 161
   3  46  89  85
   3  46  89  67
   3  46  67  89
   3  46  67  25
   3  46  25   1
   3  46  25  67
   3  47 132 140
   4  47 132  96 111
   3  47 118 142
   4  47 118 117  44
   3  47 142 118
   3  47 142 130
   3  47 130 111
   3  47 130 142
   3  47 111 140
   3  47 111 130
   3  47 140 111
   3  47 140 132
   3  48 135 124
   3  48 135 157
   3  48 124 148
   3  48 124 135
   3  48 148 124
   3  48 148 126
   3  48 126 149
   3  48 126 148
   3  48 149 126
   3  48 149 125
   3  48 125 136
   3  48 125 149
   3  48 136 125
   3  48 136 156
   3  48 156 136
   3  48 156 122
   3  48 122 156
   3  48 122 123
   3  48 123 122
   3  48 123 157
   3  48 157 123
   3  48 157 135
   3  49  18  71
   3  49  18  22
   3  49  71  81
   3  49  71  18
   3  49  81  39
   3  49  81  71
   3  49  39  22
   3  49  39  81
   3  49  22  18
   3  49  22  39
   3  50  40  82
   3  50  40  23
   3  50  82  72
   3  50  82  40
   3  50  72  82
   3  50  72  19
   3  50  19  23
   3  50  19  72
   3  50  23  40
   3  50  23  19
   3  51 119  76
   3  51 119 151
   3  51  76 104
   3  51  76 119
   3  51 104  76
   3  51 104 157
   3  51 157 123
   3  51 157 104
   3  51 123 151
   3  51 123 157
   3  51 151 123
   3  51 151 119
   3  52  30 151
   3  52  30  75
   3  52 151 122
   3  52 151  30
   3  52 122 156
   3  52 122 151
   3  52 156 103
   3  52 156 122
   3  52 103  75
   3  52 103 156
   3  52  75  30
   3  52  75 103
   3  53 144  56
   3  53 144  65
   3  53  56 144
   3  53  56 145
   3  53 145  56
   3  53 145  68
   3  53  68  61
   3  53  68 145
   3  53  61  70
   3  53  61  68
   3  53  70  60
   3  53  70  61
   3  53  60  70
   3  53  60  65
   3  53  65 144
   3  53  65  60
   3  54  35  62
   3  54  35  31
   3  54  62  91
   3  54  62  35
   3  54  91  61
   3  54  91  62
   3  54  61  91
   3  54  61  68
   3  54  68  61
   3  54  68  31
   3  54  31  35
   3  54  31  68
   3  55  65  60
   3  55  65  32
   3  55  60  90
   3  55  60  65
   3  55  90  63
   3  55  90  60
   3  55  63  90
   3  55  63  36
   3  55  36  32
   3  55  36  63
   3  55  32  65
   3  55  32  36
   3  56  53 144
   3  56  53 145
   3  56 144  53
   3  56 144  37
   3  56  37  92
   3  56  37 144
   3  56  92 134
   3  56  92  37
   3  56 134 106
   3  56 134  92
   3  56 106 105
   3  56 106 134
   3  56 105 133
   3  56 105 106
   3  56 133  93
   3  56 133 105
   3  56  93  64
   3  56  93 133
   3  56  64  93
   3  56  64 145
   3  56 145  64
   3  56 145  53
   3  57 154 146
   3  57 154 127
   3  57 146  39
   3  57 146 154
   3  57  39 146
   3  57  39  94
   3  57  94  58
   3  57  94  39
   3  57  58  94
   4  57  58 128 127
   3  57 127 154
   4  57 127 128  58
   3  58 155 128
   3  58 155 147
   3  58 128 155
   4  58 128 127  57
   3  58  57  94
   4  58  57 127 128
   3  58  94  40
   3  58  94  57
   3  58  40  94
   3  58  40 147
   3  58 147 155
   3  58 147  40
   3  59 119  30
   3  59 119 162
   3  59  30 163
   3  59  30 119
   3  59 163 102
   3  59 163  30
   3  59 102 142
   3  59 102 163
   3  59 142 118
   3  59 142 102
   3  59 118 117
   3  59 118 142
   3  59 117 141
   3  59 117 118
   3  59 141 101
   3  59 141 117
   3  59 101 141
   3  59 101 162
   3  59 162 119
   3  59 162 101
   3  60  53  70
   3  60  53  65
   3  60  70  53
   3  60  70  99
   3  60  99  90
   3  60  99  70
   3  60  90  55
   3  60  90  99
   3  60  55  65
   3  60  55  90
   3  60  65  53
   3  60  65  55
   3  61  54  91
   3  61  54  68
   3  61  91  54
   3  61  91 100
   3  61 100  70
   3  61 100  91
   3  61  70  53
   3  61  70 100
   3  61  53  68
   3  61  53  70
   3  61  68  53
   3  61  68  54
   3  62  41  35
   3  62  41  75
   3  62  75  98
   3  62  75  41
   3  62  98  91
   3  62  98  75
   3  62  91  54
   3  62  91  98
   3  62  54  35
   3  62  54  91
   3  62  35  41
   3  62  35  54
   3  63  55  90
   3  63  55  36
   3  63  90  55
   3  63  90  97
   3  63  97  76
   3  63  97  90
   3  63  76  97
   3  63  76  42
   3  63  42  36
   3  63  42  76
   3  63  36  55
   3  63  36  42
   3  64  93  77
   3  64  93  56
   3  64  77  93
   3  64  77  14
   3  64  14  10
   3  64  14  77
   3  64  10   6
   3  64  10  14
   3  64   6  31
   3  64   6  10
   3  64  31  68
   3  64  31   6
   3  64  68 145
   3  64  68  31
   3  64 145  56
   3  64 145  68
   3  64  56  93
   3  64  56 145
   3  65  37 144
   3  65  37  32
   3  65 144  53
   3  65 144  37
   3  65  53 144
   3  65  53  60
   3  65  60  53
   3  65  60  55
   3  65  55  60
   3  65  55  32
   3  65  32  37
   3  65  32  55
   3  66  20  79
   3  66  20  24
   3  66  79  95
   3  66  79  20
   3  66  95  88
   3  66  95  79
   3  66  88  45
   3  66  88  95
   3  66  45  24
   3  66  45  88
   3  66  24  20
   3  66  24  45
   3  67  46  89
   3  67  46  25
   3  67  89  96
   3  67  89  46
   3  67  96  80
   3  67  96  89
   3  67  80  96
   3  67  80  21
   3  67  21  25
   3  67  21  80
   3  67  25  46
   3  67  25  21
   3  68  61  54
   3  68  61  53
   3  68  53 145
   3  68  53  61
   3  68 145  64
   3  68 145  53
   3  68  64  31
   3  68  64 145
   3  68  31  54
   3  68  31  64
   3  68  54  61
   3  68  54  31
   3  69   5  36
   3  69   5   8
   3  69  36  42
   3  69  36   5
   3  69  42  33
   3  69  42  36
   3  69  33   8
   3  69  33  42
   3  69   8   5
   3  69   8  33
   3  70  60  53
   3  70  60  99
   3  70  53  61
   3  70  53  60
   3  70  61 100
   3  70  61  53
   3  70 100  61
   3  70 100 126
   3  70 126  99
   3  70 126 100
   3  70  99  60
   3  70  99 126
   3  71  14  77
   3  71  14  18
   3  71  77 107
   3  71  77  14
   3  71 107  81
   3  71 107  77
   3  71  81  49
   3  71  81 107
   3  71  49  18
   3  71  49  81
   3  71  18  14
   3  71  18  49
   3  72  50  82
   3  72  50  19
   3  72  82  50
   3  72  82 108
   3  72 108  78
   3  72 108  82
   3  72  78 108
   3  72  78  15
   3  72  15  19
   3  72  15  78
   3  72  19  50
   3  72  19  15
   3  73 112 143
   3  73 112 120
   3  73 143 150
   3  73 143 112
   3  73 150 143
   3  73 150  94
   3  73  94 150
   3  73  94  39
   3  73  39  81
   3  73  39  94
   3  73  81  39
   3  73  81 120
   3  73 120 112
   3  73 120  81
   3  74  40  94
   3  74  40  82
   3  74  94 150
   3  74  94  40
   3  74 150 143
   3  74 150  94
   3  74 143 113
   3  74 143 150
   3  74 113 121
   3  74 113 143
   3  74 121  82
   3  74 121 113
   3  74  82  40
   3  74  82 121
   3  75  30  52
   3  75  30  41
   3  75  52  30
   3  75  52 103
   3  75 103  98
   3  75 103  52
   3  75  98  62
   3  75  98 103
   3  75  62  41
   3  75  62  98
   3  75  41  30
   3  75  41  62
   3  76  63  97
   3  76  63  42
   3  76  97  63
   3  76  97 104
   3  76 104  51
   3  76 104  97
   3  76  51 119
   3  76  51 104
   3  76 119  42
   3  76 119  51
   3  76  42 119
   3  76  42  63
   3  77  64  93
   3  77  64  14
   3  77  93  64
   3  77  93 115
   3  77 115 107
   3  77 115  93
   3  77 107  71
   3  77 107 115
   3  77  71  14
   3  77  71 107
   3  77  14  64
   3  77  14  71
   3  78  72 108
   3  78  72  15
   3  78 108  72
   3  78 108 116
   3  78 116  92
   3  78 116 108
   3  78  92 116
   3  78  92  37
   3  78  37  92
   3  78  37  15
   3  78  15  72
   3  78  15  37
   3  79  16  83
   3  79  16  20
   3  79  83 110
   3  79  83  16
   3  79 110  95
   3  79 110  83
   3  79  95  66
   3  79  95 110
   3  79  66  20
   3  79  66  95
   3  79  20  16
   3  79  20  66
   3  80  67  96
   3  80  67  21
   3  80  96  67
   3  80  96 111
   3  80 111  84
   3  80 111  96
   3  80  84 111
   3  80  84  17
   3  80  17  21
   3  80  17  84
   3  80  21  67
   3  80  21  17
   3  81  73  39
   3  81  73 120
   3  81  39  49
   3  81  39  73
   3  81  49  71
   3  81  49  39
   3  81  71 107
   3  81  71  49
   3  81 107  71
   3  81 107 120
   3  81 120  73
   3  81 120 107
   3  82  72  50
   3  82  72 108
   3  82  50  40
   3  82  50  72
   3  82  40  74
   3  82  40  50
   3  82  74  40
   3  82  74 121
   3  82 121 108
   3  82 121  74
   3  82 108  72
   3  82 108 121
   3  83  33 101
   3  83  33  16
   3  83 101 129
   3  83 101  33
   3  83 129 110
   3  83 129 101
   3  83 110  79
   3  83 110 129
   3  83  79  16
   3  83  79 110
   3  83  16  33
   3  83  16  79
   3  84  80 111
   3  84  80  17
   3  84 111  80
   3  84 111 130
   3  84 130 102
   3  84 130 111
   3  84 102 130
   3  84 102  34
   3  84  34 102
   3  84  34  17
   3  84  17  80
   3  84  17  34
   3  85  86  87
   3  85  86  88
   3  85  87  89
   3  85  87  86
   3  85  89  87
   3  85  89  46
   3  85  46 161
   3  85  46  89
   3  85 161 114
   3  85 161  46
   3  85 114 160
   3  85 114 161
   3  85 160  45
   3  85 160 114
   3  85  45  88
   3  85  45 160
   3  85  88  86
   3  85  88  45
   3  86  87  85
   4  86  87 138 137
   3  86  85  87
   3  86  85  88
   3  86  88  85
   3  86  88 131
   3  86 131  88
   4  86 131  44 137
   3  87 132  89
   4  87 132  47 138
   3  87  89  85
   3  87  89 132
   3  87  85  86
   3  87  85  89
   3  87  86  85
   4  87  86 137 138
   3  88  86  85
   3  88  86 131
   3  88  85  86
   3  88  85  45
   3  88  45  66
   3  88  45  85
   3  88  66  95
   3  88  66  45
   3  88  95  66
   3  88  95 131
   3  88 131  86
   3  88 131  95
   3  89  85  87
   3  89  85  46
   3  89  87 132
   3  89  87  85
   3  89 132  96
   3  89 132  87
   3  89  96  67
   3  89  96 132
   3  89  67  46
   3  89  67  96
   3  89  46  85
   3  89  46  67
   3  90  63  55
   3  90  63  97
   3  90  55  60
   3  90  55  63
   3  90  60  99
   3  90  60  55
   3  90  99  60
   3  90  99 124
   3  90 124  97
   3  90 124  99
   3  90  97  63
   3  90  97 124
   3  91  61  54
   3  91  61 100
   3  91  54  62
   3  91  54  61
   3  91  62  98
   3  91  62  54
   3  91  98  62
   3  91  98 125
   3  91 125 100
   3  91 125  98
   3  91 100  61
   3  91 100 125
   3  92  78 116
   3  92  78  37
   3  92 116  78
   3  92 116 134
   3  92 134  56
   3  92 134 116
   3  92  56  37
   3  92  56 134
   3  92  37  56
   3  92  37  78
   3  93  77  64
   3  93  77 115
   3  93  64  77
   3  93  64  56
   3  93  56 133
   3  93  56  64
   3  93 133 115
   3  93 133  56
   3  93 115  77
   3  93 115 133
   3  94  73 150
   3  94  73  39
   3  94 150  74
   3  94 150  73
   3  94  74  40
   3  94  74 150
   3  94  40  58
   3  94  40  74
   3  94  58  57
   3  94  58  40
   3  94  57  39
   3  94  57  58
   3  94  39  57
   3  94  39  73
   3  95  88  66
   3  95  88 131
   3  95  66  79
   3  95  66  88
   3  95  79 110
   3  95  79  66
   3  95 110  79
   3  95 110 139
   3  95 139 131
   3  95 139 110
   3  95 131  88
   3  95 131 139
   3  96  80  67
   3  96  80 111
   3  96  67  89
   3  96  67  80
   3  96  89 132
   3  96  89  67
   3  96 132  89
   3  96 132 140
   3  96 140 111
   3  96 140 132
   3  96 111  80
   3  96 111 140
   3  97  76  63
   3  97  76 104
   3  97  63  90
   3  97  63  76
   3  97  90  63
   3  97  90 124
   3  97 124  90
   3  97 124 135
   3  97 135 104
   3  97 135 124
   3  97 104  76
   3  97 104 135
   3  98  91  62
   3  98  91 125
   3  98  62  75
   3  98  62  91
   3  98  75 103
   3  98  75  62
   3  98 103  75
   3  98 103 136
   3  98 136 125
   3  98 136 103
   3  98 125  91
   3  98 125 136
   3  99  90  60
   3  99  90 124
   3  99  60  70
   3  99  60  90
   3  99  70  60
   3  99  70 126
   3  99 126  70
   3  99 126 148
   3  99 148 124
   3  99 148 126
   3  99 124  90
   3  99 124 148
   3 100  70  61
   3 100  70 126
   3 100  61  91
   3 100  61  70
   3 100  91  61
   3 100  91 125
   3 100 125  91
   3 100 125 149
   3 100 149 126
   3 100 149 125
   3 100 126  70
   3 100 126 149
   3 101  59 141
   3 101  59 162
   3 101 141 129
   3 101 141  59
   3 101 129  83
   3 101 129 141
   3 101  83  33
   3 101  83 129
   3 101  33  83
   3 101  33 162
   3 101 162  59
   3 101 162  33
   3 102  84 130
   3 102  84  34
   3 102 130  84
   3 102 130 142
   3 102 142  59
   3 102 142 130
   3 102  59 163
   3 102  59 142
   3 102 163  59
   3 102 163  34
   3 102  34 163
   3 102  34  84
   3 103  98  75
   3 103  98 136
   3 103  75  52
   3 103  75  98
   3 103  52 156
   3 103  52  75
   3 103 156 136
   3 103 156  52
   3 103 136  98
   3 103 136 156
   3 104  51  76
   3 104  51 157
   3 104  76  97
   3 104  76  51
   3 104  97  76
   3 104  97 135
   3 104 135  97
   3 104 135 157
   3 104 157  51
   3 104 157 135
   3 105  38 133
   4 105  38  43 106
   3 105 133  56
   3 105 133  38
   3 105  56 106
   3 105  56 133
   3 105 106  56
   4 105 106  43  38
   3 106  43 134
   4 106  43  38 105
   3 106 105  56
   4 106 105  38  43
   3 106  56 134
   3 106  56 105
   3 106 134  56
   3 106 134  43
   3 107  81  71
   3 107  81 120
   3 107  71  77
   3 107  71  81
   3 107  77 115
   3 107  77  71
   3 107 115  77
   3 107 115 152
   3 107 152 120
   3 107 152 115
   3 107 120  81
   3 107 120 152
   3 108  78  72
   3 108  78 116
   3 108  72  82
   3 108  72  78
   3 108  82  72
   3 108  82 121
   3 108 121  82
   3 108 121 153
   3 108 153 116
   3 108 153 121
   3 108 116  78
   3 108 116 153
   3 109  34  41
   3 109  34   9
   3 109  41  35
   3 109  41  34
   3 109  35  41
   3 109  35   2
   3 109   2  35
   3 109   2   9
   3 109   9  34
   3 109   9   2
   3 110  95  79
   3 110  95 139
   3 110  79  83
   3 110  79  95
   3 110  83 129
   3 110  83  79
   3 110 129  83
   3 110 129  44
   3 110  44 139
   3 110  44 129
   3 110 139  95
   3 110 139  44
   3 111  84  80
   3 111  84 130
   3 111  80  96
   3 111  80  84
   3 111  96  80
   3 111  96 140
   3 111 140  96
   3 111 140  47
   3 111  47 130
   3 111  47 140
   3 111 130  84
   3 111 130  47
   3 112  38 120
   3 112  38 143
   3 112 143  38
   3 112 143  73
   3 112  73 143
   3 112  73 120
   3 112 120  73
   3 112 120  38
   3 113  43 143
   3 113  43 121
   3 113 121  74
   3 113 121  43
   3 113  74 143
   3 113  74 121
   3 113 143  43
   3 113 143  74
   3 114   0 160
   3 114   0  28
   3 114 160  85
   3 114 160   0
   3 114  85 161
   3 114  85 160
   3 114 161  85
   3 114 161   1
   3 114   1  28
   3 114   1 161
   3 114  28   0
   3 114  28   1
   3 115 107  77
   3 115 107 152
   3 115  77  93
   3 115  77 107
   3 115  93  77
   3 115  93 133
   3 115 133  93
   3 115 133  38
   3 115  38 152
   3 115  38 133
   3 115 152 107
   3 115 152  38
   3 116  92  78
   3 116  92 134
   3 116  78 108
   3 116  78  92
   3 116 108  78
   3 116 108 153
   3 116 153 108
   3 116 153  43
   3 116  43 134
   3 116  43 153
   3 116 134  92
   3 116 134  43
   3 117  44 141
   4 117  44  47 118
   3 117 141  59
   3 117 141  44
   3 117  59 118
   3 117  59 141
   3 117 118  59
   4 117 118  47  44
   3 118  47 142
   4 118  47  44 117
   3 118 117  59
   4 118 117  44  47
   3 118  59 142
   3 118  59 117
   3 118 142  59
   3 118 142  47
   3 119  33  42
   3 119  33 162
   3 119  42  33
   3 119  42  76
   3 119  76  51
   3 119  76  42
   3 119  51  76
   3 119  51 151
   3 119 151  30
   3 119 151  51
   3 119  30  59
   3 119  30 151
   3 119  59  30
   3 119  59 162
   3 119 162  59
   3 119 162  33
   3 120 112  38
   3 120 112  73
   3 120  73 112
   3 120  73  81
   3 120  81  73
   3 120  81 107
   3 120 107  81
   3 120 107 152
   3 120 152 107
   3 120 152  38
   3 120  38 112
   3 120  38 152
   3 121 108  82
   3 121 108 153
   3 121  82  74
   3 121  82 108
   3 121  74 113
   3 121  74  82
   3 121 113  43
   3 121 113  74
   3 121  43 113
   3 121  43 153
   3 121 153 108
   3 121 153  43
   3 122  48 156
   3 122  48 123
   3 122 156  52
   3 122 156  48
   3 122  52 151
   3 122  52 156
   3 122 151 123
   3 122 151  52
   3 122 123  48
   3 122 123 151
   3 123  48 122
   3 123  48 157
   3 123 122  48
   3 123 122 151
   3 123 151 122
   3 123 151  51
   3 123  51 157
   3 123  51 151
   3 123 157  51
   3 123 157  48
   3 124  97  90
   3 124  97 135
   3 124  90  99
   3 124  90  97
   3 124  99  90
   3 124  99 148
   3 124 148  99
   3 124 148  48
   3 124  48 135
   3 124  48 148
   3 124 135  97
   3 124 135  48
   3 125 100  91
   3 125 100 149
   3 125  91  98
   3 125  91 100
   3 125  98  91
   3 125  98 136
   3 125 136  98
   3 125 136  48
   3 125  48 149
   3 125  48 136
   3 125 149 100
   3 125 149  48
   3 126  99  70
   3 126  99 148
   3 126  70 100
   3 126  70  99
   3 126 100  70
   3 126 100 149
   3 126 149 100
   3 126 149  48
   3 126  48 148
   3 126  48 149
   3 126 148  99
   3 126 148  48
   3 127  29 158
   3 127  29 128
   3 127 158 154
   3 127 158  29
   3 127 154  57
   3 127 154 158
   3 127  57 154
   4 127  57  58 128
   3 127 128  29
   4 127 128  58  57
   3 128  29 127
   3 128  29 159
   3 128 127  29
   4 128 127  57  58
   3 128  58 155
   4 128  58  57 127
   3 128 155 159
   3 128 155  58
   3 128 159 155
   3 128 159  29
   3 129 110  83
   3 129 110  44
   3 129  83 101
   3 129  83 110
   3 129 101 141
   3 129 101  83
   3 129 141 101
   3 129 141  44
   3 129  44 110
   3 129  44 141
   3 130 102  84
   3 130 102 142
   3 130  84 111
   3 130  84 102
   3 130 111  84
   3 130 111  47
   3 130  47 142
   3 130  47 111
   3 130 142 102
   3 130 142  47
   3 131  86  88
   4 131  86 137  44
   3 131  88  86
   3 131  88  95
   3 131  95  88
   3 131  95 139
   3 131 139  95
   3 131 139  44
   3 131  44 139
   4 131  44 110  95
   3 132  96  89
   3 132  96 140
   3 132  89  87
   3 132  89  96
   3 132  87  89
   4 132  87 138  47
   3 132  47 140
   4 132  47 138  87
   3 132 140  96
   3 132 140  47
   3 133 115  93
   3 133 115  38
   3 133  93  56
   3 133  93 115
   3 133  56 105
   3 133  56  93
   3 133 105  38
   3 133 105  56
   3 133  38 115
   3 133  38 105
   3 134 106  43
   3 134 106  56
   3 134  56  92
   3 134  56 106
   3 134  92 116
   3 134  92  56
   3 134 116  92
   3 134 116  43
   3 134  43 106
   3 134  43 116
   3 135 104  97
   3 135 104 157
   3 135  97 124
   3 135  97 104
   3 135 124  97
   3 135 124  48
   3 135  48 124
   3 135  48 157
   3 135 157 104
   3 135 157  48
   3 136 125  98
   3 136 125  48
   3 136  98 103
   3 136  98 125
   3 136 103  98
   3 136 103 156
   3 136 156 103
   3 136 156  48
   3 136  48 125
   3 136  48 156
   3 139 131  95
   3 139 131  44
   3 139  95 110
   3 139  95 131
   3 139 110  95
   3 139 110  44
   3 139  44 131
   3 139  44 110
   3 140 111  96
   3 140 111  47
   3 140  96 132
   3 140  96 111
   3 140 132  96
   3 140 132  47
   3 140  47 132
   3 140  47 111
   3 141 129 101
   3 141 129  44
   3 141 101  59
   3 141 101 129
   3 141  59 117
   3 141  59 101
   3 141 117  44
   3 141 117  59
   3 141  44 129
   3 141  44 117
   3 142 118  47
   3 142 118  59
   3 142  59 102
   3 142  59 118
   3 142 102 130
   3 142 102  59
   3 142 130 102
   3 142 130  47
   3 142  47 118
   3 142  47 130
   3 143  38 112
   3 143  38  43
   3 143  43 113
   3 143  43  38
   3 143 113  43
   3 143 113  74
   3 143  74 150
   3 143  74 113
   3 143 150  74
   3 143 150  73
   3 143  73 112
   3 143  73 150
   3 143 112  38
   3 143 112  73
   3 144  56  53
   3 144  56  37
   3 144  53  56
   3 144  53  65
   3 144  65  37
   3 144  65  53
   3 144  37  56
   3 144  37  65
   3 145  56  53
   3 145  56  64
   3 145  64  68
   3 145  64  56
   3 145  68  53
   3 145  68  64
   3 145  53  56
   3 145  53  68
   3 146  39  57
   3 146  39  26
   3 146  57 154
   3 146  57  39
   3 146 154  57
   3 146 154   3
   3 146   3  26
   3 146   3 154
   3 146  26  39
   3 146  26   3
   3 147   4 155
   3 147   4  27
   3 147 155  58
   3 147 155   4
   3 147  58 155
   3 147  58  40
   3 147  40  58
   3 147  40  27
   3 147  27   4
   3 147  27  40
   3 148 124  99
   3 148 124  48
   3 148  99 126
   3 148  99 124
   3 148 126  99
   3 148 126  48
   3 148  48 124
   3 148  48 126
   3 149 126 100
   3 149 126  48
   3 149 100 125
   3 149 100 126
   3 149 125 100
   3 149 125  48
   3 149  48 126
   3 149  48 125
   3 150 143  74
   3 150 143  73
   3 150  74  94
   3 150  74 143
   3 150  94  73
   3 150  94  74
   3 150  73 143
   3 150  73  94
   3 151 123 122
   3 151 123  51
   3 151 122  52
   3 151 122 123
   3 151  52  30
   3 151  52 122
   3 151  30 119
   3 151  30  52
   3 151 119  51
   3 151 119  30
   3 151  51 119
   3 151  51 123
   3 152 120 107
   3 152 120  38
   3 152 107 115
   3 152 107 120
   3 152 115 107
   3 152 115  38
   3 152  38 120
   3 152  38 115
   3 153 116 108
   3 153 116  43
   3 153 108 121
   3 153 108 116
   3 153 121 108
   3 153 121  43
   3 153  43 116
   3 153  43 121
   3 154 146  57
   3 154 146   3
   3 154  57 146
   3 154  57 127
   3 154 127 158
   3 154 127  57
   3 154 158   3
   3 154 158 127
   3 154   3 146
   3 154   3 158
   3 155 159 128
   3 155 159   4
   3 155 128  58
   3 155 128 159
   3 155  58 128
   3 155  58 147
   3 155 147   4
   3 155 147  58
   3 155   4 159
   3 155   4 147
   3 156 136 103
   3 156 136  48
   3 156 103  52
   3 156 103 136
   3 156  52 122
   3 156  52 103
   3 156 122  48
   3 156 122  52
   3 156  48 136
   3 156  48 122
   3 157 123  48
   3 157 123  51
   3 157  51 104
   3 157  51 123
   3 157 104  51
   3 157 104 135
   3 157 135 104
   3 157 135  48
   3 157  48 135
   3 157  48 123
   3 158   3  29
   3 158   3 154
   3 158 154 127
   3 158 154   3
   3 158 127  29
   3 158 127 154
   3 158  29   3
   3 158  29 127
   3 159 128  29
   3 159 128 155
   3 159 155 128
   3 159 155   4
   3 159   4  29
   3 159   4 155
   3 159  29 128
   3 159  29   4
   3 160  45   0
   3 160  45  85
   3 160  85 114
   3 160  85  45
   3 160 114   0
   3 160 114  85
   3 160   0  45
   3 160   0 114
   3 161 114  85
   3 161 114   1
   3 161  85  46
   3 161  85 114
   3 161  46   1
   3 161  46  85
   3 161   1 114
   3 161   1  46
   3 162 119  33
   3 162 119  59
   3 162  59 119
   3 162  59 101
   3 162 101  59
   3 162 101  33
   3 162  33 101
   3 162  33 119
   3 163 102  59
   3 163 102  34
   3 163  59  30
   3 163  59 102
   3 163  30  34
   3 163  30  59
   3 163  34 102
   3 163  34  30
