# Generated by dad_to_polygons. Vertex data from Humppa's .off file,
# polygons parsed from .dad file.
COFF
187 680 187
-6.690636 1.360690 6.824945 0.500000 0.500000 0.500000 1.0
-6.690642 -1.360685 6.824946 0.500000 0.500000 0.500000 1.0
-0.036175 -2.479763 6.489361 0.500000 0.500000 0.500000 1.0
7.631185 -1.507653 6.812051 0.500000 0.500000 0.500000 1.0
7.631188 1.507652 6.812051 0.500000 0.500000 0.500000 1.0
-0.036175 2.479763 6.489361 0.500000 0.500000 0.500000 1.0
1.196866 -2.134266 6.647804 0.500000 0.500000 0.500000 1.0
1.196867 2.134267 6.647804 0.500000 0.500000 0.500000 1.0
-1.217452 2.123611 6.611762 0.500000 0.500000 0.500000 1.0
-1.217452 -2.123611 6.611762 0.500000 0.500000 0.500000 1.0
2.068220 -1.766253 6.973634 0.500000 0.500000 0.500000 1.0
2.068220 1.766253 6.973634 0.500000 0.500000 0.500000 1.0
-2.091328 1.775460 6.951690 0.500000 0.500000 0.500000 1.0
-2.091328 -1.775460 6.951690 0.500000 0.500000 0.500000 1.0
3.018112 -1.938411 6.710467 0.500000 0.500000 0.500000 1.0
3.018139 1.938415 6.710492 0.500000 0.500000 0.500000 1.0
-3.015902 1.938454 6.608273 0.500000 0.500000 0.500000 1.0
-3.015902 -1.938454 6.608272 0.500000 0.500000 0.500000 1.0
4.080823 -1.810406 6.946202 0.500000 0.500000 0.500000 1.0
4.080823 1.810407 6.946201 0.500000 0.500000 0.500000 1.0
-4.059108 1.789097 6.915126 0.500000 0.500000 0.500000 1.0
-4.059108 -1.789097 6.915126 0.500000 0.500000 0.500000 1.0
5.065996 -1.663395 6.929043 0.500000 0.500000 0.500000 1.0
5.065997 1.663396 6.929043 0.500000 0.500000 0.500000 1.0
-5.080602 1.567131 6.931033 0.500000 0.500000 0.500000 1.0
-5.080602 -1.567130 6.931033 0.500000 0.500000 0.500000 1.0
6.076535 -1.688945 6.806546 0.500000 0.500000 0.500000 1.0
6.076529 1.688944 6.806541 0.500000 0.500000 0.500000 1.0
-8.051257 -0.000029 6.805167 0.500000 0.500000 0.500000 1.0
10.123639 -0.000023 6.767400 0.500000 0.500000 0.500000 1.0
9.304224 -0.817212 6.860728 0.500000 0.500000 0.500000 1.0
9.303921 0.817208 6.860702 0.500000 0.500000 0.500000 1.0
0.931678 1.925499 4.690949 1.0 1.0 0.0 1.0
-2.040947 1.855849 5.643601 0.500000 0.500000 0.500000 1.0
-2.040944 -1.855849 5.643605 0.500000 0.500000 0.500000 1.0
-0.290140 -2.091218 4.875711 0.500000 0.500000 0.500000 1.0
-0.290139 2.091218 4.875713 0.500000 0.500000 0.500000 1.0
2.066169 1.805583 5.665225 0.500000 0.500000 0.500000 1.0
3.510822 -0.619906 2.341013 1.0 1.0 0.0 1.0
5.563544 -1.582849 5.797631 0.500000 0.500000 0.500000 1.0
5.563589 1.582838 5.797674 0.500000 0.500000 0.500000 1.0
-0.897104 -1.884853 4.160833 0.500000 0.500000 0.500000 1.0
-0.897101 1.884856 4.160833 0.500000 0.500000 0.500000 1.0
3.510825 0.619903 2.341013 1.0 1.0 0.0 1.0
-3.552629 0.660506 2.528474 1.0 1.0 0.0 1.0
-5.274394 1.439001 5.919673 0.500000 0.500000 0.500000 1.0
-5.274395 -1.438999 5.919672 0.500000 0.500000 0.500000 1.0
-3.552631 -0.660506 2.528474 1.0 1.0 0.0 1.0
0.090233 0.000001 1.030606 1.0 1.0 0.0 1.0
4.578701 -1.735797 6.125518 0.500000 0.500000 0.500000 1.0
4.578610 1.736136 6.125520 0.500000 0.500000 0.500000 1.0
-1.380416 0.942375 2.887501 0.500000 0.500000 0.500000 1.0
-1.380416 -0.942375 2.887506 0.500000 0.500000 0.500000 1.0
1.790184 -0.000016 4.362428 0.500000 0.500000 0.500000 1.0
0.803376 -1.881507 3.970688 0.500000 0.500000 0.500000 1.0
0.803396 1.881508 3.970703 0.500000 0.500000 0.500000 1.0
2.053562 -0.000005 4.991223 0.500000 0.500000 0.500000 1.0
7.226491 -0.759569 4.595417 1.0 1.0 0.0 1.0
7.226492 0.759569 4.595417 1.0 1.0 0.0 1.0
-2.238874 0.000014 4.561392 0.500000 0.500000 0.500000 1.0
1.161574 1.455620 3.758310 0.500000 0.500000 0.500000 1.0
1.161557 -1.455616 3.758306 0.500000 0.500000 0.500000 1.0
-0.143389 -1.935713 3.866802 0.500000 0.500000 0.500000 1.0
-0.143396 1.935716 3.866807 0.500000 0.500000 0.500000 1.0
2.066172 -1.805582 5.665211 0.500000 0.500000 0.500000 1.0
1.386355 1.698641 4.690922 0.500000 0.500000 0.500000 1.0
-4.570057 1.673420 5.970076 0.500000 0.500000 0.500000 1.0
-4.570057 -1.673420 5.970077 0.500000 0.500000 0.500000 1.0
1.386331 -1.698639 4.690909 0.500000 0.500000 0.500000 1.0
-1.088173 1.923273 4.843232 1.0 1.0 0.0 1.0
1.402798 -0.000010 3.398315 0.500000 0.500000 0.500000 1.0
4.068028 -1.803023 5.553398 0.500000 0.500000 0.500000 1.0
4.068041 1.803020 5.553397 0.500000 0.500000 0.500000 1.0
5.338558 -1.076187 4.506470 0.500000 0.500000 0.500000 1.0
5.338557 1.076185 4.506468 0.500000 0.500000 0.500000 1.0
-0.664248 -1.735068 3.484752 0.500000 0.500000 0.500000 1.0
-0.664252 1.735068 3.484750 0.500000 0.500000 0.500000 1.0
3.074165 -1.836456 5.215463 0.500000 0.500000 0.500000 1.0
3.074199 1.836459 5.215486 0.500000 0.500000 0.500000 1.0
-3.943441 1.737465 5.603697 0.500000 0.500000 0.500000 1.0
-3.943442 -1.737465 5.603698 0.500000 0.500000 0.500000 1.0
4.654227 -1.719116 4.809312 0.500000 0.500000 0.500000 1.0
4.654117 1.719141 4.809250 0.500000 0.500000 0.500000 1.0
-3.021981 1.832264 5.169547 0.500000 0.500000 0.500000 1.0
-3.021979 -1.832259 5.169544 0.500000 0.500000 0.500000 1.0
-5.935561 0.000003 5.352034 0.500000 0.500000 0.500000 1.0
-5.369141 0.766005 4.424430 0.500000 0.500000 0.500000 1.0
-5.369144 -0.765978 4.424422 0.500000 0.500000 0.500000 1.0
-5.079936 1.160725 4.903052 0.500000 0.500000 0.500000 1.0
-5.079959 -1.160714 4.903093 0.500000 0.500000 0.500000 1.0
0.675215 1.740352 3.159545 0.500000 0.500000 0.500000 1.0
0.675463 -1.740607 3.159547 0.500000 0.500000 0.500000 1.0
2.573797 1.362922 4.605321 0.500000 0.500000 0.500000 1.0
2.573795 -1.362948 4.605339 0.500000 0.500000 0.500000 1.0
6.046733 0.000000 4.542556 0.500000 0.500000 0.500000 1.0
-4.396272 1.558729 4.839461 0.500000 0.500000 0.500000 1.0
-4.396272 -1.558728 4.839466 0.500000 0.500000 0.500000 1.0
0.030773 1.793247 2.807697 1.000000 1.000000 1.000000 1.0
0.030758 -1.793452 2.807735 1.000000 1.000000 1.000000 1.0
1.019763 1.205586 2.842393 1.000000 1.000000 1.000000 1.0
1.019753 -1.205578 2.842393 1.000000 1.000000 1.000000 1.0
-2.543265 1.610923 4.694211 0.500000 0.500000 0.500000 1.0
-2.543285 -1.610934 4.694211 0.500000 0.500000 0.500000 1.0
-0.554728 -1.542036 2.445812 1.000000 1.000000 1.000000 1.0
-0.554719 1.542046 2.445825 1.000000 1.000000 1.000000 1.0
2.530853 -0.692092 3.380736 0.500000 0.500000 0.500000 1.0
2.530862 0.692055 3.380728 0.500000 0.500000 0.500000 1.0
4.043494 -1.749050 4.360680 0.500000 0.500000 0.500000 1.0
4.043490 1.749040 4.360695 0.500000 0.500000 0.500000 1.0
-1.088173 -1.923276 4.843232 1.0 1.0 0.0 1.0
-3.866540 1.690052 4.478558 0.500000 0.500000 0.500000 1.0
-3.866549 -1.690050 4.478561 0.500000 0.500000 0.500000 1.0
4.920847 -0.959222 3.347181 0.500000 0.500000 0.500000 1.0
4.920853 0.959208 3.347147 0.500000 0.500000 0.500000 1.0
-6.718173 0.000005 5.007183 1.0 1.0 0.0 1.0
3.253986 -1.636753 4.167148 0.500000 0.500000 0.500000 1.0
3.253886 1.636715 4.167152 0.500000 0.500000 0.500000 1.0
-2.611665 0.622354 3.430515 0.500000 0.500000 0.500000 1.0
-2.611670 -0.622332 3.430516 0.500000 0.500000 0.500000 1.0
-1.814635 0.907498 4.258663 0.500000 0.500000 0.500000 1.0
4.575491 -1.520783 3.652654 0.500000 0.500000 0.500000 1.0
4.575499 1.520779 3.652651 0.500000 0.500000 0.500000 1.0
-1.458352 -0.489940 2.040000 1.000000 1.000000 1.000000 1.0
-1.458353 0.489938 2.040001 1.000000 1.000000 1.000000 1.0
0.609186 1.547458 2.215196 1.000000 1.000000 1.000000 1.0
0.609178 -1.547453 2.215197 1.000000 1.000000 1.000000 1.0
1.175593 -0.000008 2.506271 1.000000 1.000000 1.000000 1.0
8.405192 -0.571608 5.498713 0.500000 0.500000 0.500000 1.0
8.405179 0.571577 5.498724 0.500000 0.500000 0.500000 1.0
-3.180193 1.702153 4.118228 0.500000 0.500000 0.500000 1.0
-3.180193 -1.702089 4.118198 0.500000 0.500000 0.500000 1.0
-4.757069 1.281783 3.912183 0.500000 0.500000 0.500000 1.0
-4.757075 -1.281772 3.912187 0.500000 0.500000 0.500000 1.0
2.798800 -1.275698 3.949172 0.500000 0.500000 0.500000 1.0
2.798632 1.275720 3.949176 0.500000 0.500000 0.500000 1.0
0.100459 1.604485 1.865231 1.000000 1.000000 1.000000 1.0
0.100457 -1.604481 1.865225 1.000000 1.000000 1.000000 1.0
-5.289384 0.756119 3.268762 0.500000 0.500000 0.500000 1.0
-5.289383 -0.756101 3.268759 0.500000 0.500000 0.500000 1.0
-4.343887 1.474342 3.714296 0.500000 0.500000 0.500000 1.0
-4.343881 -1.474346 3.714296 0.500000 0.500000 0.500000 1.0
-2.821672 1.383096 3.858706 0.500000 0.500000 0.500000 1.0
-2.821684 -1.383133 3.858718 0.500000 0.500000 0.500000 1.0
5.190360 -0.000006 3.415384 0.500000 0.500000 0.500000 1.0
2.047734 0.889770 5.069654 0.500000 0.500000 0.500000 1.0
2.047725 -0.889754 5.069611 0.500000 0.500000 0.500000 1.0
6.765190 -1.508759 5.868008 0.500000 0.500000 0.500000 1.0
6.765184 1.508760 5.868008 0.500000 0.500000 0.500000 1.0
0.931049 0.888317 2.023899 1.000000 1.000000 1.000000 1.0
0.931045 -0.888309 2.023900 1.000000 1.000000 1.000000 1.0
5.489983 -0.000000 4.185460 0.500000 0.500000 0.500000 1.0
-1.676713 -0.000000 2.926154 0.500000 0.500000 0.500000 1.0
3.888594 -1.512711 3.374996 0.500000 0.500000 0.500000 1.0
3.888594 1.512705 3.374994 0.500000 0.500000 0.500000 1.0
7.456884 -1.299845 5.867846 0.500000 0.500000 0.500000 1.0
7.456886 1.299840 5.867846 0.500000 0.500000 0.500000 1.0
-0.587938 -1.081057 1.759119 1.000000 1.000000 1.000000 1.0
-0.587932 1.081059 1.759124 1.000000 1.000000 1.000000 1.0
8.463036 -0.787278 6.244066 0.500000 0.500000 0.500000 1.0
8.463033 0.787248 6.244082 0.500000 0.500000 0.500000 1.0
-6.597949 0.878017 5.913420 0.500000 0.500000 0.500000 1.0
-6.597954 -0.878009 5.913420 0.500000 0.500000 0.500000 1.0
-2.006142 1.146458 5.020446 0.500000 0.500000 0.500000 1.0
-2.006135 -1.146450 5.020448 0.500000 0.500000 0.500000 1.0
-1.814643 -0.907500 4.258673 0.500000 0.500000 0.500000 1.0
0.931654 -1.925500 4.690934 1.0 1.0 0.0 1.0
6.233152 -1.405437 5.254653 0.500000 0.500000 0.500000 1.0
6.233148 1.405434 5.254648 0.500000 0.500000 0.500000 1.0
-6.903375 0.830335 6.014641 0.500000 0.500000 0.500000 1.0
-6.903378 -0.830330 6.014645 0.500000 0.500000 0.500000 1.0
-3.780361 1.444915 3.444516 0.500000 0.500000 0.500000 1.0
-3.780349 -1.444904 3.444504 0.500000 0.500000 0.500000 1.0
-7.312037 0.000065 5.911531 0.500000 0.500000 0.500000 1.0
5.774564 -0.957724 5.041826 0.500000 0.500000 0.500000 1.0
5.774561 0.957721 5.041822 0.500000 0.500000 0.500000 1.0
3.396920 -1.276613 3.247594 0.500000 0.500000 0.500000 1.0
3.396960 1.276655 3.247602 0.500000 0.500000 0.500000 1.0
0.486871 -2.244863 5.633750 0.500000 0.500000 0.500000 1.0
0.486879 2.244865 5.633758 0.500000 0.500000 0.500000 1.0
9.275720 -0.255907 6.067016 0.500000 0.500000 0.500000 1.0
9.275710 0.255679 6.067018 0.500000 0.500000 0.500000 1.0
4.419638 -0.305298 2.843584 1.000000 1.000000 1.000000 1.0
4.419637 0.305286 2.843584 1.000000 1.000000 1.000000 1.0
-0.570274 -2.212531 5.674085 0.500000 0.500000 0.500000 1.0
-0.570274 2.212530 5.674085 0.500000 0.500000 0.500000 1.0
0.376669 0.800622 1.612817 1.000000 1.000000 1.000000 1.0
0.376665 -0.800619 1.612817 1.000000 1.000000 1.000000 1.0
3 0 168 160
3 0 160 168
3 2 35 177
3 2 177 35
3 2 183 35
3 2 35 183
3 3 26 146
3 3 146 26
3 3 146 154
3 3 154 146
3 3 154 158
3 3 158 154
3 3 158 30
3 3 30 158
3 4 147 27
3 4 27 147
3 4 155 159
3 4 159 155
3 5 8 184
3 5 184 8
3 5 184 36
3 5 36 184
3 6 165 64
3 6 64 165
3 7 11 37
3 7 37 11
3 7 32 37
3 7 37 32
3 7 178 32
3 7 32 178
3 8 33 12
3 8 12 33
3 8 184 69
3 8 69 184
3 9 34 13
3 9 13 34
3 9 34 109
3 9 109 34
3 9 109 183
3 9 183 109
3 10 6 64
3 10 64 6
3 11 15 37
3 11 37 15
3 12 33 16
3 12 16 33
3 14 64 77
3 14 77 64
3 14 71 18
3 14 18 71
3 15 37 78
3 15 78 37
3 15 78 72
3 15 72 78
3 16 33 83
3 16 83 33
3 17 84 80
3 17 80 84
3 19 50 72
3 19 72 50
3 19 72 15
3 19 15 72
3 20 16 79
3 20 79 16
3 20 79 66
3 20 66 79
3 21 17 80
3 21 80 17
3 22 18 49
3 22 49 18
3 22 49 39
3 22 39 49
3 23 27 40
3 23 40 27
3 23 50 19
3 23 19 50
3 24 0 45
3 24 45 0
3 24 20 66
3 24 66 20
3 25 46 1
3 25 1 46
3 25 67 21
3 25 21 67
3 26 39 146
3 26 146 39
3 27 147 40
3 27 40 147
3 28 168 0
3 28 0 168
3 28 168 172
3 28 172 168
3 28 169 1
3 28 1 169
3 29 158 30
3 29 30 158
3 31 4 159
3 31 159 4
3 31 29 159
3 31 159 29
3 32 178 36
3 32 36 178
3 33 8 69
3 33 69 8
3 33 42 69
3 33 69 42
3 33 101 83
3 33 83 101
3 33 119 42
3 33 42 119
3 33 162 101
3 33 101 162
3 33 162 119
3 33 119 162
3 34 17 13
3 34 13 17
3 34 17 84
3 34 84 17
3 34 41 164
3 34 164 41
3 34 102 163
3 34 163 102
3 34 163 164
3 34 164 163
3 35 54 165
3 35 165 54
3 35 62 54
3 35 54 62
3 36 32 55
3 36 55 32
3 36 55 63
3 36 63 55
3 36 69 184
3 36 184 69
3 37 32 65
3 37 65 32
3 37 65 144
3 37 144 65
3 37 92 78
3 37 78 92
3 37 144 56
3 37 56 144
3 38 43 106
3 38 106 43
3 38 43 182
3 38 182 43
3 38 106 105
3 38 105 106
3 38 112 120
3 38 120 112
3 38 112 143
3 38 143 112
3 38 120 152
3 38 152 120
3 38 143 181
3 38 181 143
3 38 175 133
3 38 133 175
3 38 182 181
3 38 181 182
3 39 26 22
3 39 22 26
3 39 49 81
3 39 81 49
3 39 81 73
3 39 73 81
3 39 173 73
3 39 73 173
3 39 173 166
3 39 166 173
3 40 50 82
3 40 82 50
3 40 147 167
3 40 167 147
3 41 34 109
3 41 109 34
3 41 75 164
3 41 164 75
3 41 109 35
3 41 35 109
3 42 36 69
3 42 69 36
3 42 63 36
3 42 36 63
3 42 76 63
3 42 63 76
3 42 119 76
3 42 76 119
3 43 113 143
3 43 143 113
3 43 121 113
3 43 113 121
3 43 143 182
3 43 182 143
3 43 153 121
3 43 121 153
3 44 47 138
3 44 138 47
3 44 86 131
3 44 131 86
3 44 117 118
3 44 118 117
3 44 118 47
3 44 47 118
3 44 129 141
3 44 141 129
3 44 137 86
3 44 86 137
3 44 138 137
3 44 137 138
3 44 170 129
3 44 129 170
3 45 24 66
3 45 66 24
3 45 66 88
3 45 88 66
3 45 88 85
3 45 85 88
3 45 160 0
3 45 0 160
3 46 1 161
3 46 161 1
3 46 89 67
3 46 67 89
3 47 87 138
3 47 138 87
3 47 130 142
3 47 142 130
3 47 132 87
3 47 87 132
3 47 140 171
3 47 171 140
3 47 142 118
3 47 118 142
3 48 123 122
3 48 122 123
3 48 126 148
3 48 148 126
3 48 135 157
3 48 157 135
3 48 135 185
3 48 185 135
3 48 136 186
3 48 186 136
3 48 148 185
3 48 185 148
3 48 149 126
3 48 126 149
3 48 156 136
3 48 136 156
3 48 186 149
3 48 149 186
3 49 71 18
3 49 18 71
3 49 81 71
3 49 71 81
3 50 23 40
3 50 40 23
3 50 82 72
3 50 72 82
3 51 76 104
3 51 104 76
3 51 104 157
3 51 157 104
3 51 119 76
3 51 76 119
3 51 123 151
3 51 151 123
3 51 123 157
3 51 157 123
3 52 156 122
3 52 122 156
3 52 164 151
3 52 151 164
3 53 60 70
3 53 70 60
3 53 144 65
3 53 65 144
3 53 145 68
3 53 68 145
3 54 61 68
3 54 68 61
3 54 62 91
3 54 91 62
3 54 91 61
3 54 61 91
3 54 165 68
3 54 68 165
3 55 65 32
3 55 32 65
3 55 65 60
3 55 60 65
3 55 90 60
3 55 60 90
3 55 90 63
3 55 63 90
3 56 64 145
3 56 145 64
3 56 93 64
3 56 64 93
3 56 106 105
3 56 105 106
3 56 133 93
3 56 93 133
3 56 134 92
3 56 92 134
3 56 134 106
3 56 106 134
3 56 144 53
3 56 53 144
3 56 145 53
3 56 53 145
3 57 58 94
3 57 94 58
3 57 58 128
3 57 128 58
3 57 128 127
3 57 127 128
3 57 146 166
3 57 166 146
3 57 154 146
3 57 146 154
3 58 94 167
3 58 167 94
3 58 128 155
3 58 155 128
3 58 155 147
3 58 147 155
3 58 167 147
3 58 147 167
3 59 101 162
3 59 162 101
3 59 117 118
3 59 118 117
3 59 119 162
3 59 162 119
3 59 142 118
3 59 118 142
3 59 163 102
3 59 102 163
3 60 53 65
3 60 65 53
3 60 70 99
3 60 99 70
3 60 99 90
3 60 90 99
3 61 68 53
3 61 53 68
3 61 70 53
3 61 53 70
3 62 35 41
3 62 41 35
3 62 75 98
3 62 98 75
3 62 98 91
3 62 91 98
3 63 90 97
3 63 97 90
3 63 97 76
3 63 76 97
3 64 14 10
3 64 10 14
3 64 68 165
3 64 165 68
3 66 95 88
3 66 88 95
3 67 21 80
3 67 80 21
3 67 46 25
3 67 25 46
3 67 80 96
3 67 96 80
3 67 89 96
3 67 96 89
3 70 61 100
3 70 100 61
3 70 126 99
3 70 99 126
3 71 77 14
3 71 14 77
3 71 107 77
3 71 77 107
3 71 107 81
3 71 81 107
3 72 82 108
3 72 108 82
3 72 108 78
3 72 78 108
3 73 112 120
3 73 120 112
3 73 143 112
3 73 112 143
3 73 173 94
3 73 94 173
3 74 40 82
3 74 82 40
3 74 94 150
3 74 150 94
3 74 121 82
3 74 82 121
3 74 143 113
3 74 113 143
3 74 150 143
3 74 143 150
3 74 174 94
3 74 94 174
3 75 52 103
3 75 103 52
3 75 52 164
3 75 164 52
3 75 62 41
3 75 41 62
3 75 98 103
3 75 103 98
3 77 93 64
3 77 64 93
3 77 93 115
3 77 115 93
3 78 92 116
3 78 116 92
3 79 66 95
3 79 95 66
3 79 83 16
3 79 16 83
3 79 95 110
3 79 110 95
3 80 96 111
3 80 111 96
3 81 107 120
3 81 120 107
3 81 120 73
3 81 73 120
3 82 121 108
3 82 108 121
3 83 110 79
3 83 79 110
3 84 102 34
3 84 34 102
3 84 130 102
3 84 102 130
3 85 46 89
3 85 89 46
3 85 87 86
3 85 86 87
3 85 114 161
3 85 161 114
3 85 160 45
3 85 45 160
3 85 161 46
3 85 46 161
3 86 88 85
3 86 85 88
3 87 85 89
3 87 89 85
3 87 86 137
3 87 137 86
3 87 89 132
3 87 132 89
3 87 137 138
3 87 138 137
3 88 131 86
3 88 86 131
3 90 99 124
3 90 124 99
3 91 100 61
3 91 61 100
3 92 56 37
3 92 37 56
3 92 134 116
3 92 116 134
3 94 57 166
3 94 166 57
3 95 131 88
3 95 88 131
3 95 139 131
3 95 131 139
3 96 140 111
3 96 111 140
3 97 104 76
3 97 76 104
3 97 124 135
3 97 135 124
3 97 135 104
3 97 104 135
3 98 103 136
3 98 136 103
3 98 125 136
3 98 136 125
3 99 124 148
3 99 148 124
3 100 125 91
3 100 91 125
3 100 125 149
3 100 149 125
3 100 126 70
3 100 70 126
3 101 59 141
3 101 141 59
3 101 83 129
3 101 129 83
3 101 129 141
3 101 141 129
3 102 142 130
3 102 130 142
3 103 52 156
3 103 156 52
3 103 136 156
3 103 156 136
3 105 56 133
3 105 133 56
3 105 133 38
3 105 38 133
3 106 43 134
3 106 134 43
3 107 115 77
3 107 77 115
3 107 115 152
3 107 152 115
3 107 152 120
3 107 120 152
3 108 78 116
3 108 116 78
3 108 116 153
3 108 153 116
3 109 183 35
3 109 35 183
3 110 129 83
3 110 83 129
3 110 139 95
3 110 95 139
3 111 84 80
3 111 80 84
3 111 84 130
3 111 130 84
3 111 130 171
3 111 171 130
3 113 121 74
3 113 74 121
3 114 85 160
3 114 160 85
3 114 169 172
3 114 172 169
3 115 133 93
3 115 93 133
3 115 175 133
3 115 133 175
3 115 175 152
3 115 152 175
3 116 176 134
3 116 134 176
3 116 176 153
3 116 153 176
3 117 44 141
3 117 141 44
3 117 141 59
3 117 59 141
3 119 51 151
3 119 151 51
3 119 151 164
3 119 164 151
3 119 164 59
3 119 59 164
3 121 153 108
3 121 108 153
3 122 151 52
3 122 52 151
3 122 151 123
3 122 123 151
3 124 97 90
3 124 90 97
3 124 185 135
3 124 135 185
3 125 91 98
3 125 98 91
3 126 149 100
3 126 100 149
3 127 57 154
3 127 154 57
3 128 127 179
3 128 179 127
3 128 159 155
3 128 155 159
3 128 179 180
3 128 180 179
3 130 171 47
3 130 47 171
3 132 47 140
3 132 140 47
3 132 96 89
3 132 89 96
3 132 140 96
3 132 96 140
3 134 43 176
3 134 176 43
3 136 186 125
3 136 125 186
3 139 131 44
3 139 44 131
3 139 170 110
3 139 110 170
3 140 111 171
3 140 171 111
3 142 59 102
3 142 102 59
3 145 68 64
3 145 64 68
3 147 4 155
3 147 155 4
3 148 99 126
3 148 126 99
3 148 185 124
3 148 124 185
3 150 94 73
3 150 73 94
3 150 143 73
3 150 73 143
3 153 43 176
3 153 176 43
3 154 127 158
3 154 158 127
3 156 122 48
3 156 48 122
3 157 123 48
3 157 48 123
3 157 135 104
3 157 104 135
3 158 29 179
3 158 179 29
3 158 179 127
3 158 127 179
3 159 128 180
3 159 180 128
3 159 180 29
3 159 29 180
3 160 168 114
3 160 114 168
3 161 114 169
3 161 169 114
3 163 164 59
3 163 59 164
3 166 94 173
3 166 173 94
3 166 146 39
3 166 39 146
3 167 174 94
3 167 94 174
3 168 172 114
3 168 114 172
3 169 28 172
3 169 172 28
3 169 161 1
3 169 1 161
3 170 110 129
3 170 129 110
3 170 139 44
3 170 44 139
3 174 74 40
3 174 40 74
3 174 167 40
3 174 40 167
3 175 152 38
3 175 38 152
3 177 6 2
3 177 2 6
3 177 6 165
3 177 165 6
3 177 35 165
3 177 165 35
3 178 5 36
3 178 36 5
3 178 7 5
3 178 5 7
3 179 180 29
3 179 29 180
3 182 181 143
3 182 143 181
3 183 2 9
3 183 9 2
3 186 149 125
3 186 125 149
