 COFF
          27         136          27
  
  -3.7804267716412583       0.65087795350433930        2.4480120157969019       0.60000002384185791       0.60000002384185791       0.60000002384185791       0.80000001192092896     
  -3.7804267716412583      -0.65087795350433930        2.4480120157969019       0.60000002384185791       0.60000002384185791       0.60000002384185791       0.80000001192092896     
  -2.4543094080589363E-002  -1.3899140592559911        2.3358863940734897       0.60000002384185791       0.60000002384185791       0.60000002384185791       0.80000001192092896     
   4.0920772036481381      -0.64185667063355467        2.4653224488884078       0.60000002384185791       0.60000002384185791       0.60000002384185791       0.80000001192092896     
   4.0920772036481381       0.64185667063355467        2.4653224488884078       0.60000002384185791       0.60000002384185791       0.60000002384185791       0.80000001192092896     
  -2.4543094080589360E-002   1.3899140592559911        2.3358863940734897       0.60000002384185791       0.60000002384185791       0.60000002384185791       0.80000001192092896     
  0.93851396638043594       -1.0977738367967971        2.3519539954965798       0.60000002384185791       0.60000002384185791       0.60000002384185791       0.80000001192092896     
  0.93851396638043594        1.0977738367967971        2.3519539954965798       0.60000002384185791       0.60000002384185791       0.60000002384185791       0.80000001192092896     
 -0.98868500761439682        1.0878042194569730        2.3541323774390492       0.60000002384185791       0.60000002384185791       0.60000002384185791       0.80000001192092896     
 -0.98868500761439637       -1.0878042194569730        2.3541323774390492       0.60000002384185791       0.60000002384185791       0.60000002384185791       0.80000001192092896     
   1.8974621934640150      -0.89118681821259549        2.5456262472131637       0.60000002384185791       0.60000002384185791       0.60000002384185791       0.80000001192092896     
   1.8974621934640150       0.89118681821259549        2.5456262472131637       0.60000002384185791       0.60000002384185791       0.60000002384185791       0.80000001192092896     
  -1.9578397903671463       0.89777829209303817        2.5057360770914356       0.60000002384185791       0.60000002384185791       0.60000002384185791       0.80000001192092896     
  -1.9578397903671458      -0.89777829209303817        2.5057360770914356       0.60000002384185791       0.60000002384185791       0.60000002384185791       0.80000001192092896     
   2.9318613425613704      -0.76823951931540180        2.5008425702353634       0.60000002384185791       0.60000002384185791       0.60000002384185791       0.80000001192092896     
   2.9318613425613704       0.76823951931540180        2.5008425702353634       0.60000002384185791       0.60000002384185791       0.60000002384185791       0.80000001192092896     
  -1.6462976496118606       0.76073287873286632        1.7925176197863020       0.60000002384185791       0.60000002384185791       0.60000002384185791       0.80000001192092896     
  -1.6462976496118606      -0.76073287873286632        1.7925176197863022       0.60000002384185791       0.60000002384185791       0.60000002384185791       0.80000001192092896     
   1.7185576476753357       0.75302518594933354        1.8036530511387820       0.60000002384185791       0.60000002384185791       0.60000002384185791       0.80000001192092896     
   2.9629011820888458      -0.63101441207401199        1.8823709943843456       0.60000002384185791       0.60000002384185791       0.60000002384185791       0.80000001192092896     
   2.9629011820888458       0.63101441207401199        1.8823709943843456       0.60000002384185791       0.60000002384185791       0.60000002384185791       0.80000001192092896     
  -2.8441248443945555       0.65814094891446306        1.9241410652376785       0.60000002384185791       0.60000002384185791       0.60000002384185791       0.80000001192092896     
  -2.8441248443945555      -0.65814094891446306        1.9241410652376785       0.60000002384185791       0.60000002384185791       0.60000002384185791       0.80000001192092896     
   1.0683716067345262E-003  -2.3865394597017411E-017   1.0382578837327854        1.0000000000000000        1.0000000000000000        0.0000000000000000        1.0000000000000000     
   1.7185576476753355      -0.75302518594933354        1.8036530511387820       0.60000002384185791       0.60000002384185791       0.60000002384185791       0.80000001192092896     
  0.87528188404993235       0.38246394857592242        1.4129613542551049       0.60000002384185791       0.60000002384185791       0.60000002384185791       0.80000001192092896     
  0.87528188404993235      -0.38246394857592247        1.4129613542551049       0.60000002384185791       0.60000002384185791       0.60000002384185791       0.80000001192092896     
  
   3   2  23   6
   3   2  23   9
   3   2   6  23
   3   2   9  23
   3   3  14  19
   3   3  19  14
   4   3  19  20   4
   3   4  20  15
   4   4  20  19   3
   3   4  15  20
   3   5   7  23
   3   5  23   7
   3   5  23   8
   3   5   8  23
   3   6   2  23
   3   6  23   2
   4   6  23  26  24
   3   6  24  10
   4   6  24  26  23
   3   6  10  24
   3   7  11  18
   3   7  18  11
   4   7  18  25  23
   3   7  23   5
   4   7  23  25  18
   3   7   5  23
   3   8   5  23
   3   8  23   5
   3   8  23  16
   3   8  16  12
   3   8  16  23
   3   8  12  16
   3   9  13  17
   3   9  17  23
   3   9  17  13
   3   9  23   2
   3   9  23  17
   3   9   2  23
   3  10   6  24
   3  10  24  14
   3  10  24   6
   3  10  14  24
   3  11  15  18
   3  11  18   7
   3  11  18  15
   3  11   7  18
   3  12   8  16
   3  12  16   8
   4  12  16  21   0
   3  13  17   9
   4  13  17  22   1
   3  13   9  17
   3  14  10  24
   3  14  24  19
   3  14  24  10
   3  14  19   3
   3  14  19  24
   3  14   3  19
   3  15   4  20
   3  15  20   4
   3  15  20  18
   3  15  18  20
   3  15  18  11
   3  15  11  18
   3  16  12   8
   4  16  12   0  21
   3  16   8  23
   3  16   8  12
   3  16  23  17
   3  16  23   8
   3  16  17  23
   4  16  17  22  21
   3  17  16  23
   4  17  16  21  22
   3  17  23   9
   3  17  23  16
   3  17   9  13
   3  17   9  23
   3  17  13   9
   4  17  13   1  22
   3  18  20  15
   4  18  20  19  24
   3  18   7  11
   4  18   7  23  25
   3  18  11  15
   3  18  11   7
   3  18  15  20
   3  18  15  11
   3  19   3  14
   4  19   3   4  20
   3  19  14  24
   3  19  14   3
   3  19  24  14
   4  19  24  18  20
   3  20   4  15
   4  20   4   3  19
   3  20  18  15
   4  20  18  24  19
   3  20  15   4
   3  20  15  18
   3  23   5   7
   3  23   5   8
   3  23   7   5
   4  23   7  18  25
   3  23  25  26
   4  23  25  18   7
   3  23  26  25
   4  23  26  24   6
   3  23   6   2
   4  23   6  24  26
   3  23   2   6
   3  23   2   9
   3  23   9  17
   3  23   9   2
   3  23  17  16
   3  23  17   9
   3  23  16   8
   3  23  16  17
   3  23   8   5
   3  23   8  16
   3  24  19  14
   4  24  19  20  18
   3  24  14  10
   3  24  14  19
   3  24  10   6
   3  24  10  14
   3  24   6  10
   4  24   6  23  26
   3  25  26  23
   4  25  26  24  18
   3  25  23  26
   4  25  23   7  18
   3  26  23  25
   4  26  23   6  24
   3  26  25  23
   4  26  25  18  24
