# Generated by dad_to_polygons. Vertex data from Humppa's .off file,
# polygons parsed from .dad file.
COFF
37 108 37
-4.251914 0.678492 2.824962 0.500000 0.500000 0.500000 1.0
-4.251914 -0.678492 2.824962 0.500000 0.500000 0.500000 1.0
-0.025286 -1.494917 2.646333 0.500000 0.500000 0.500000 1.0
4.577146 -0.666079 2.848331 0.500000 0.500000 0.500000 1.0
4.577146 0.666079 2.848331 0.500000 0.500000 0.500000 1.0
-0.025286 1.494917 2.646333 0.500000 0.500000 0.500000 1.0
0.964835 -1.212050 2.721765 0.500000 0.500000 0.500000 1.0
0.964835 1.212050 2.721765 0.500000 0.500000 0.500000 1.0
-1.006166 1.194944 2.705918 0.500000 0.500000 0.500000 1.0
-1.006166 -1.194944 2.705918 0.500000 0.500000 0.500000 1.0
1.908431 -0.944991 2.917699 0.500000 0.500000 0.500000 1.0
1.908431 0.944991 2.917699 0.500000 0.500000 0.500000 1.0
-1.959816 0.956800 2.888614 0.500000 0.500000 0.500000 1.0
-1.959816 -0.956800 2.888614 0.500000 0.500000 0.500000 1.0
3.009034 -0.814030 2.882448 0.500000 0.500000 0.500000 1.0
3.009034 0.814030 2.882448 0.500000 0.500000 0.500000 1.0
-2.969819 0.822933 2.849846 0.500000 0.500000 0.500000 1.0
-2.969819 -0.822933 2.849846 0.500000 0.500000 0.500000 1.0
1.975729 0.812408 2.110333 0.500000 0.500000 0.500000 1.0
3.208661 -0.672288 2.214948 0.500000 0.500000 0.500000 1.0
3.208661 0.672288 2.214948 0.500000 0.500000 0.500000 1.0
-3.147394 0.681860 2.185737 0.500000 0.500000 0.500000 1.0
-3.147394 -0.681860 2.185737 0.500000 0.500000 0.500000 1.0
-0.008021 -0.000000 1.038258 1.0 1.0 0.0 1.0
1.975729 -0.812408 2.110333 0.500000 0.500000 0.500000 1.0
1.029700 0.645844 1.548873 0.500000 0.500000 0.500000 1.0
1.029700 -0.645844 1.548873 0.500000 0.500000 0.500000 1.0
-0.626830 0.937017 1.970321 0.500000 0.500000 0.500000 1.0
-0.626830 -0.937017 1.970321 0.500000 0.500000 0.500000 1.0
-1.347949 0.466419 1.444660 0.500000 0.500000 0.500000 1.0
-1.347949 -0.466419 1.444660 0.500000 0.500000 0.500000 1.0
0.689649 -0.852025 1.858212 0.500000 0.500000 0.500000 1.0
0.689649 0.852025 1.858212 0.500000 0.500000 0.500000 1.0
-1.905442 0.826185 2.093916 0.500000 0.500000 0.500000 1.0
-1.905442 -0.826185 2.093916 0.500000 0.500000 0.500000 1.0
-0.037859 -0.939341 1.855074 0.500000 0.500000 0.500000 1.0
-0.037859 0.939341 1.855074 0.500000 0.500000 0.500000 1.0
3 0 21 22
3 0 22 21
3 0 22 1
3 0 1 22
3 1 22 17
3 1 17 22
3 2 28 35
3 2 35 28
3 2 31 35
3 2 35 31
3 3 4 20
3 3 20 4
3 3 20 19
3 3 19 20
3 5 7 32
3 5 32 7
3 5 36 27
3 5 27 36
3 7 18 32
3 7 32 18
3 8 27 5
3 8 5 27
3 8 33 12
3 8 12 33
3 9 28 2
3 9 2 28
3 10 6 24
3 10 24 6
3 10 24 14
3 10 14 24
3 11 18 7
3 11 7 18
3 12 16 33
3 12 33 16
3 13 34 17
3 13 17 34
3 14 19 3
3 14 3 19
3 15 4 20
3 15 20 4
3 15 18 11
3 15 11 18
3 15 18 20
3 15 20 18
3 16 0 21
3 16 21 0
3 16 21 33
3 16 33 21
3 18 24 26
3 18 26 24
3 18 26 25
3 18 25 26
3 20 18 24
3 20 24 18
3 20 24 19
3 20 19 24
3 21 22 34
3 21 34 22
3 21 34 33
3 21 33 34
3 22 17 34
3 22 34 17
3 23 25 26
3 23 26 25
3 23 26 31
3 23 31 26
3 23 29 33
3 23 33 29
3 23 30 34
3 23 34 30
3 23 31 35
3 23 35 31
3 23 32 25
3 23 25 32
3 23 33 27
3 23 27 33
3 23 34 28
3 23 28 34
3 23 36 32
3 23 32 36
3 24 14 19
3 24 19 14
3 24 31 26
3 24 26 31
3 25 32 18
3 25 18 32
3 27 8 33
3 27 33 8
3 27 23 36
3 27 36 23
3 28 23 35
3 28 35 23
3 28 34 9
3 28 9 34
3 29 23 30
3 29 30 23
3 29 33 34
3 29 34 33
3 29 34 30
3 29 30 34
3 31 2 6
3 31 6 2
3 31 24 6
3 31 6 24
3 34 9 13
3 34 13 9
3 36 5 32
3 36 32 5
