 COFF
          57         460          57
  
  -5.3417591485359859       0.74400808319686929        3.9782963576843362       0.60000002384185791       0.60000002384185791       0.60000002384185791       0.80000001192092896     
  -5.3417591485359859      -0.74400808319686929        3.9782963576843362       0.60000002384185791       0.60000002384185791       0.60000002384185791       0.80000001192092896     
  -2.7010658080985135E-002  -1.7283902194942844        3.6461313921545040       0.60000002384185791       0.60000002384185791       0.60000002384185791       0.80000001192092896     
   6.1500437437668216      -0.74609537262923631        3.9828315528112532       0.60000002384185791       0.60000002384185791       0.60000002384185791       0.80000001192092896     
   6.1500437437668216       0.74609537262923631        3.9828315528112532       0.60000002384185791       0.60000002384185791       0.60000002384185791       0.80000001192092896     
  -2.7010658080985111E-002   1.7283902194942844        3.6461313921545040       0.60000002384185791       0.60000002384185791       0.60000002384185791       0.80000001192092896     
   1.0237281668754332       -1.4061538328175256        3.7949982004999865       0.60000002384185791       0.60000002384185791       0.60000002384185791       0.80000001192092896     
   1.0237281668754332        1.4061538328175256        3.7949982004999865       0.60000002384185791       0.60000002384185791       0.60000002384185791       0.80000001192092896     
  -1.0731953342660860        1.3923573814509758        3.7615848338134414       0.60000002384185791       0.60000002384185791       0.60000002384185791       0.80000001192092896     
  -1.0731953342660856       -1.3923573814509758        3.7615848338134414       0.60000002384185791       0.60000002384185791       0.60000002384185791       0.80000001192092896     
   1.9426819685616652       -1.0820648018027710        4.0251867881118244       0.60000002384185791       0.60000002384185791       0.60000002384185791       0.80000001192092896     
   1.9426819685616652        1.0820648018027708        4.0251867881118244       0.60000002384185791       0.60000002384185791       0.60000002384185791       0.80000001192092896     
  -2.0010202930495362        1.0958576661673445        3.9921672264808148       0.60000002384185791       0.60000002384185791       0.60000002384185791       0.80000001192092896     
  -2.0010202930495358       -1.0958576661673445        3.9921672264808148       0.60000002384185791       0.60000002384185791       0.60000002384185791       0.80000001192092896     
   3.0501518442540547      -0.97797731612968486        4.0347095297651983       0.60000002384185791       0.60000002384185791       0.60000002384185791       0.80000001192092896     
   3.0501518442540552       0.97797731612968486        4.0347095297651956       0.60000002384185791       0.60000002384185791       0.60000002384185791       0.80000001192092896     
  -3.0190168724152411       0.95078076712642978        4.0021680266616633       0.60000002384185791       0.60000002384185791       0.60000002384185791       0.80000001192092896     
  -3.0190168724152393      -0.95078076712642989        4.0021680266616633       0.60000002384185791       0.60000002384185791       0.60000002384185791       0.80000001192092896     
   4.0468100188078866      -0.91704465847969274        4.0718953414865942       0.60000002384185791       0.60000002384185791       0.60000002384185791       0.80000001192092896     
   4.0468100188078866       0.91704465847969285        4.0718953414865933       0.60000002384185791       0.60000002384185791       0.60000002384185791       0.80000001192092896     
  -4.0139688555640962       0.85122795596251544        3.9905991348684129       0.60000002384185791       0.60000002384185791       0.60000002384185791       0.80000001192092896     
  -4.0139688555640944      -0.85122795596251533        3.9905991348684124       0.60000002384185791       0.60000002384185791       0.60000002384185791       0.80000001192092896     
   5.0447012297317979      -0.83270868095859996        4.0253294669060953       0.60000002384185791       0.60000002384185791       0.60000002384185791       0.80000001192092896     
   5.0447012297317979       0.83270868095859996        4.0253294669060953       0.60000002384185791       0.60000002384185791       0.60000002384185791       0.80000001192092896     
   2.1948080975721211      -0.95242616136361957        3.0656112472530914       0.60000002384185791       0.60000002384185791       0.60000002384185791       0.80000001192092896     
   1.4046197119392965        1.1127259760806687        2.3350398162937696       0.60000002384185791       0.60000002384185791       0.60000002384185791       0.80000001192092896     
   1.4046197119392962       -1.1127259760806694        2.3350398162937696       0.60000002384185791       0.60000002384185791       0.60000002384185791       0.80000001192092896     
  -1.0425410716224770        1.3253258716545733        2.9068006699877174       0.60000002384185791       0.60000002384185791       0.60000002384185791       0.80000001192092896     
  -1.0425410716224766       -1.3253258716545733        2.9068006699877174       0.60000002384185791       0.60000002384185791       0.60000002384185791       0.80000001192092896     
  -1.8377797506010016       0.84095110504797210        2.0564321492248130       0.60000002384185791       0.60000002384185791       0.60000002384185791       0.80000001192092896     
  -1.8377797506010016      -0.84095110504797177        2.0564321492248130       0.60000002384185791       0.60000002384185791       0.60000002384185791       0.80000001192092896     
  0.97904599846036178       -1.3164427278210891        2.7531357830973486       0.60000002384185791       0.60000002384185791       0.60000002384185791       0.80000001192092896     
  0.97904599846036100        1.3164427278210886        2.7531357830973486       0.60000002384185791       0.60000002384185791       0.60000002384185791       0.80000001192092896     
  -2.2614624612561540       0.95838157729501339        3.0207303028952368       0.60000002384185791       0.60000002384185791       0.60000002384185791       0.80000001192092896     
  -2.2614624612561527      -0.95838157729501339        3.0207303028952368       0.60000002384185791       0.60000002384185791       0.60000002384185791       0.80000001192092896     
  -1.0866979266630267E-002  -1.4208914296285216        2.6285073042661020       0.60000002384185791       0.60000002384185791       0.60000002384185791       0.80000001192092896     
  -1.0866979266630217E-002   1.4208914296285216        2.6285073042661016       0.60000002384185791       0.60000002384185791       0.60000002384185791       0.80000001192092896     
   2.1948080975721207       0.95242616136361835        3.0656112472530892       0.60000002384185791       0.60000002384185791       0.60000002384185791       0.80000001192092896     
   3.5737210001180175      -0.61861594571883016        2.8604699335027806        1.0000000000000000        1.0000000000000000        0.0000000000000000        1.0000000000000000     
 -0.53203609473050284       -1.1043674159573988        2.1292408431831453       0.60000002384185791       0.60000002384185791       0.60000002384185791       0.80000001192092896     
 -0.53203609473050306        1.1043674159573991        2.1292408431831449       0.60000002384185791       0.60000002384185791       0.60000002384185791       0.80000001192092896     
  -1.3234998415413506      -0.44526564680655356        1.3803508319148834       0.60000002384185791       0.60000002384185791       0.60000002384185791       0.80000001192092896     
  -1.3234998415413508       0.44526564680655339        1.3803508319148836       0.60000002384185791       0.60000002384185791       0.60000002384185791       0.80000001192092896     
  0.66506183611328573       0.97459059304594575        1.8646562166720952       0.60000002384185791       0.60000002384185791       0.60000002384185791       0.80000001192092896     
  0.66506183611328529      -0.97459059304594586        1.8646562166720957       0.60000002384185791       0.60000002384185791       0.60000002384185791       0.80000001192092896     
   4.9576449583154742      -0.66951812664019905        3.2910276059960784       0.60000002384185791       0.60000002384185791       0.60000002384185791       0.80000001192092896     
   4.9576449583154742       0.66951812664019905        3.2910276059960784       0.60000002384185791       0.60000002384185791       0.60000002384185791       0.80000001192092896     
   3.5737210001180175       0.61861594571883016        2.8604699335027806        1.0000000000000000        1.0000000000000000        0.0000000000000000        1.0000000000000000     
  -3.6000318218549876       0.65891880069345077        3.1375182682895115        1.0000000000000000        1.0000000000000000        0.0000000000000000        1.0000000000000000     
   1.6017051048027984        6.8697231368739176E-017   2.2474411731489696       0.60000002384185791       0.60000002384185791       0.60000002384185791       0.80000001192092896     
  0.92318681091303934       0.66921592658453843        1.6678620778719422       0.60000002384185791       0.60000002384185791       0.60000002384185791       0.80000001192092896     
  0.92318681091303911      -0.66921592658453832        1.6678620778719422       0.60000002384185791       0.60000002384185791       0.60000002384185791       0.80000001192092896     
  -4.2312500042123891E-002  0.89025237528988721        1.8336385147275356       0.60000002384185791       0.60000002384185791       0.60000002384185791       0.80000001192092896     
  -4.2312500042123904E-002 -0.89025237528988721        1.8336385147275358       0.60000002384185791       0.60000002384185791       0.60000002384185791       0.80000001192092896     
  -3.6000318218549876      -0.65891880069345077        3.1375182682895115        1.0000000000000000        1.0000000000000000        0.0000000000000000        1.0000000000000000     
  -3.7419356502706989E-003  -3.9287274653364075E-017   1.0382578837327854        1.0000000000000000        1.0000000000000000        0.0000000000000000        1.0000000000000000     
  0.81058381595078988        1.5131213057280691E-017   1.6392792802348430       0.60000002384185791       0.60000002384185791       0.60000002384185791       0.80000001192092896     
  
   3   0  20  48
   3   0  48  20
   4   0  48  54   1
   3   1  54  21
   4   1  54  48   0
   3   1  21  54
   3   2  35  28
   3   2  35  31
   3   2  31  35
   3   2  31   6
   3   2   6  31
   3   2   9  28
   3   2  28  35
   3   2  28   9
   3   3  22  45
   3   3  45  22
   4   3  45  46   4
   3   4  46  23
   4   4  46  45   3
   3   4  23  46
   3   5   7  32
   3   5  32  36
   3   5  32   7
   3   5  36  32
   3   5  36  27
   3   5  27  36
   3   5  27   8
   3   5   8  27
   3   6   2  31
   3   6  31   2
   3   6  31  24
   3   6  24  10
   3   6  24  31
   3   6  10  24
   3   7  11  37
   3   7  37  32
   3   7  37  11
   3   7  32  37
   3   7  32   5
   3   7   5  32
   3   8   5  27
   3   8  27   5
   3   8  27  33
   3   8  33  12
   3   8  33  27
   3   8  12  33
   3   9  13  34
   3   9  34  28
   3   9  34  13
   3   9  28  34
   3   9  28   2
   3   9   2  28
   3  10   6  24
   3  10  24  14
   3  10  24   6
   3  10  14  24
   3  11  15  37
   3  11  37   7
   3  11  37  15
   3  11   7  37
   3  12   8  33
   3  12  33  16
   3  12  33   8
   3  12  16  33
   3  13  17  34
   3  13  34   9
   3  13  34  17
   3  13   9  34
   3  14  10  24
   3  14  24  38
   3  14  24  10
   3  14  38  18
   3  14  38  24
   3  14  18  38
   3  15  19  47
   3  15  47  37
   3  15  47  19
   3  15  37  47
   3  15  37  11
   3  15  11  37
   3  16  12  33
   3  16  33  48
   3  16  33  12
   3  16  48  20
   3  16  48  33
   3  16  20  48
   3  17  21  54
   3  17  54  34
   3  17  54  21
   3  17  34  54
   3  17  34  13
   3  17  13  34
   3  18  14  38
   3  18  38  22
   3  18  38  14
   3  18  22  38
   3  19  23  47
   3  19  47  15
   3  19  47  23
   3  19  15  47
   3  20  16  48
   3  20  48   0
   3  20  48  16
   3  20   0  48
   3  21   1  54
   3  21  54   1
   3  21  54  17
   3  21  17  54
   3  22  18  38
   3  22  38  45
   3  22  38  18
   3  22  45   3
   3  22  45  38
   3  22   3  45
   3  23   4  46
   3  23  46   4
   3  23  46  47
   3  23  47  46
   3  23  47  19
   3  23  19  47
   3  24  38  14
   4  24  38  47  37
   3  24  14  10
   3  24  14  38
   3  24  10   6
   3  24  10  14
   3  24   6  31
   3  24   6  10
   3  24  31  26
   3  24  31   6
   3  24  26  49
   3  24  26  31
   3  24  49  37
   3  24  49  26
   3  24  37  49
   4  24  37  47  38
   3  25  37  49
   3  25  37  32
   3  25  49  37
   3  25  49  50
   3  25  50  43
   3  25  50  49
   3  25  43  32
   3  25  43  50
   3  25  32  37
   3  25  32  43
   3  26  51  49
   3  26  51  44
   3  26  49  24
   3  26  49  51
   3  26  24  31
   3  26  24  49
   3  26  31  44
   3  26  31  24
   3  26  44  31
   3  26  44  51
   3  27   5  36
   3  27   5   8
   3  27  36  40
   3  27  36   5
   3  27  40  33
   3  27  40  36
   3  27  33   8
   3  27  33  40
   3  27   8   5
   3  27   8  33
   3  28  34  39
   3  28  34   9
   3  28  39  35
   3  28  39  34
   3  28  35  39
   3  28  35   2
   3  28   2  35
   3  28   2   9
   3  28   9  34
   3  28   9   2
   3  29  33  40
   4  29  33  34  30
   3  29  40  33
   4  29  40  55  42
   3  30  34  39
   4  30  34  33  29
   3  30  39  34
   4  30  39  55  41
   3  31   2  35
   3  31   2   6
   3  31  35  44
   3  31  35   2
   3  31  44  26
   3  31  44  35
   3  31  26  24
   3  31  26  44
   3  31  24   6
   3  31  24  26
   3  31   6   2
   3  31   6  24
   3  32  37  25
   3  32  37   7
   3  32  25  37
   3  32  25  43
   3  32  43  36
   3  32  43  25
   3  32  36  43
   3  32  36   5
   3  32   5   7
   3  32   5  36
   3  32   7  37
   3  32   7   5
   3  33  48  16
   4  33  48  54  34
   3  33  16  12
   3  33  16  48
   3  33  12   8
   3  33  12  16
   3  33   8  27
   3  33   8  12
   3  33  27  40
   3  33  27   8
   3  33  40  29
   3  33  40  27
   3  33  29  40
   4  33  29  30  34
   3  34  54  17
   4  34  54  48  33
   3  34  30  39
   4  34  30  29  33
   3  34  39  28
   3  34  39  30
   3  34  28  39
   3  34  28   9
   3  34   9  13
   3  34   9  28
   3  34  13  17
   3  34  13   9
   3  34  17  54
   3  34  17  13
   3  35  28  39
   3  35  28   2
   3  35  39  28
   3  35  39  53
   3  35  53  44
   3  35  53  39
   3  35  44  31
   3  35  44  53
   3  35  31   2
   3  35  31  44
   3  35   2  31
   3  35   2  28
   3  36  32  43
   3  36  32   5
   3  36  43  32
   3  36  43  52
   3  36  52  40
   3  36  52  43
   3  36  40  27
   3  36  40  52
   3  36  27   5
   3  36  27  40
   3  36   5  32
   3  36   5  27
   3  37  47  15
   4  37  47  38  24
   3  37  24  49
   4  37  24  38  47
   3  37  49  24
   3  37  49  25
   3  37  25  49
   3  37  25  32
   3  37  32  25
   3  37  32   7
   3  37   7  11
   3  37   7  32
   3  37  11  15
   3  37  11   7
   3  37  15  47
   3  37  15  11
   3  38  45  22
   4  38  45  46  47
   3  38  22  18
   3  38  22  45
   3  38  18  14
   3  38  18  22
   3  38  14  24
   3  38  14  18
   3  38  24  14
   4  38  24  37  47
   3  39  35  28
   3  39  35  53
   3  39  28  34
   3  39  28  35
   3  39  34  30
   3  39  34  28
   3  39  30  34
   4  39  30  41  55
   3  39  55  53
   4  39  55  44  35
   3  39  53  35
   3  39  53  55
   3  40  29  33
   4  40  29  42  55
   3  40  33  27
   3  40  33  29
   3  40  27  36
   3  40  27  33
   3  40  36  52
   3  40  36  27
   3  40  52  36
   3  40  52  55
   3  40  55  52
   4  40  55  43  36
   3  41  55  42
   4  41  55  39  30
   3  41  42  55
   4  41  42  29  30
   3  42  55  41
   4  42  55  40  29
   3  42  41  55
   4  42  41  30  29
   3  43  36  32
   3  43  36  52
   3  43  32  25
   3  43  32  36
   3  43  25  50
   3  43  25  32
   3  43  50  25
   3  43  50  55
   3  43  55  52
   3  43  55  50
   3  43  52  36
   3  43  52  55
   3  44  26  51
   3  44  26  31
   3  44  31  35
   3  44  31  26
   3  44  35  53
   3  44  35  31
   3  44  53  35
   3  44  53  55
   3  44  55  51
   3  44  55  53
   3  44  51  26
   3  44  51  55
   3  45   3  22
   4  45   3   4  46
   3  45  22  38
   3  45  22   3
   3  45  38  22
   4  45  38  47  46
   3  46   4  23
   4  46   4   3  45
   3  46  47  23
   4  46  47  38  45
   3  46  23   4
   3  46  23  47
   3  47  46  23
   4  47  46  45  38
   3  47  37  15
   4  47  37  24  38
   3  47  15  19
   3  47  15  37
   3  47  19  23
   3  47  19  15
   3  47  23  46
   3  47  23  19
   3  48   0  20
   4  48   0   1  54
   3  48  20  16
   3  48  20   0
   3  48  16  33
   3  48  16  20
   3  48  33  16
   4  48  33  34  54
   3  49  37  24
   3  49  37  25
   3  49  24  26
   3  49  24  37
   3  49  26  51
   3  49  26  24
   3  49  51  26
   3  49  51  56
   3  49  56  51
   3  49  56  50
   3  49  50  25
   3  49  50  56
   3  49  25  37
   3  49  25  50
   3  50  43  25
   3  50  43  55
   3  50  25  49
   3  50  25  43
   3  50  49  56
   3  50  49  25
   3  50  56  55
   3  50  56  49
   3  50  55  43
   3  50  55  56
   3  51  49  26
   3  51  49  56
   3  51  26  49
   3  51  26  44
   3  51  44  26
   3  51  44  55
   3  51  55  56
   3  51  55  44
   3  51  56  55
   3  51  56  49
   3  52  40  36
   3  52  40  55
   3  52  36  43
   3  52  36  40
   3  52  43  36
   3  52  43  55
   3  52  55  43
   3  52  55  40
   3  53  44  35
   3  53  44  55
   3  53  35  39
   3  53  35  44
   3  53  39  35
   3  53  39  55
   3  53  55  44
   3  53  55  39
   3  54   1  21
   4  54   1   0  48
   3  54  34  17
   4  54  34  33  48
   3  54  17  21
   3  54  17  34
   3  54  21   1
   3  54  21  17
   3  55  52  40
   3  55  52  43
   3  55  43  50
   3  55  43  52
   3  55  50  43
   3  55  50  56
   3  55  56  51
   3  55  56  50
   3  55  51  44
   3  55  51  56
   3  55  44  53
   3  55  44  51
   3  55  53  44
   3  55  53  39
   3  55  39  53
   4  55  39  35  44
   3  55  41  42
   4  55  41  30  39
   3  55  42  41
   4  55  42  29  40
   3  55  40  52
   4  55  40  29  42
   3  56  51  49
   3  56  51  55
   3  56  55  50
   3  56  55  51
   3  56  50  49
   3  56  50  55
   3  56  49  51
   3  56  49  50
