# Generated by dad_to_polygons. Vertex data from Humppa's .off file,
# polygons parsed from .dad file.
COFF
57 176 57
-5.341759 0.744008 3.978296 0.500000 0.500000 0.500000 1.0
-5.341759 -0.744008 3.978296 0.500000 0.500000 0.500000 1.0
-0.027011 -1.728390 3.646131 0.500000 0.500000 0.500000 1.0
6.150044 -0.746095 3.982832 0.500000 0.500000 0.500000 1.0
6.150044 0.746095 3.982832 0.500000 0.500000 0.500000 1.0
-0.027011 1.728390 3.646131 0.500000 0.500000 0.500000 1.0
1.023728 -1.406154 3.794998 0.500000 0.500000 0.500000 1.0
1.023728 1.406154 3.794998 0.500000 0.500000 0.500000 1.0
-1.073195 1.392357 3.761585 0.500000 0.500000 0.500000 1.0
-1.073195 -1.392357 3.761585 0.500000 0.500000 0.500000 1.0
1.942682 -1.082065 4.025187 0.500000 0.500000 0.500000 1.0
1.942682 1.082065 4.025187 0.500000 0.500000 0.500000 1.0
-2.001020 1.095858 3.992167 0.500000 0.500000 0.500000 1.0
-2.001020 -1.095858 3.992167 0.500000 0.500000 0.500000 1.0
3.050152 -0.977977 4.034710 0.500000 0.500000 0.500000 1.0
3.050152 0.977977 4.034710 0.500000 0.500000 0.500000 1.0
-3.019017 0.950781 4.002168 0.500000 0.500000 0.500000 1.0
-3.019017 -0.950781 4.002168 0.500000 0.500000 0.500000 1.0
4.046810 -0.917045 4.071895 0.500000 0.500000 0.500000 1.0
4.046810 0.917045 4.071895 0.500000 0.500000 0.500000 1.0
-4.013969 0.851228 3.990599 0.500000 0.500000 0.500000 1.0
-4.013969 -0.851228 3.990599 0.500000 0.500000 0.500000 1.0
5.044701 -0.832709 4.025329 0.500000 0.500000 0.500000 1.0
5.044701 0.832709 4.025329 0.500000 0.500000 0.500000 1.0
2.194808 -0.952426 3.065611 0.500000 0.500000 0.500000 1.0
1.404620 1.112726 2.335040 0.500000 0.500000 0.500000 1.0
1.404620 -1.112726 2.335040 0.500000 0.500000 0.500000 1.0
-1.042541 1.325326 2.906801 0.500000 0.500000 0.500000 1.0
-1.042541 -1.325326 2.906801 0.500000 0.500000 0.500000 1.0
-1.837780 0.840951 2.056432 0.500000 0.500000 0.500000 1.0
-1.837780 -0.840951 2.056432 0.500000 0.500000 0.500000 1.0
0.979046 -1.316443 2.753136 0.500000 0.500000 0.500000 1.0
0.979046 1.316443 2.753136 0.500000 0.500000 0.500000 1.0
-2.261462 0.958382 3.020730 0.500000 0.500000 0.500000 1.0
-2.261462 -0.958382 3.020730 0.500000 0.500000 0.500000 1.0
-0.010867 -1.420891 2.628507 0.500000 0.500000 0.500000 1.0
-0.010867 1.420891 2.628507 0.500000 0.500000 0.500000 1.0
2.194808 0.952426 3.065611 0.500000 0.500000 0.500000 1.0
3.573721 -0.618616 2.860470 1.0 1.0 0.0 1.0
-0.532036 -1.104367 2.129241 0.500000 0.500000 0.500000 1.0
-0.532036 1.104367 2.129241 0.500000 0.500000 0.500000 1.0
-1.323500 -0.445266 1.380351 0.500000 0.500000 0.500000 1.0
-1.323500 0.445266 1.380351 0.500000 0.500000 0.500000 1.0
0.665062 0.974591 1.864656 0.500000 0.500000 0.500000 1.0
0.665062 -0.974591 1.864656 0.500000 0.500000 0.500000 1.0
4.957645 -0.669518 3.291028 0.500000 0.500000 0.500000 1.0
4.957645 0.669518 3.291028 0.500000 0.500000 0.500000 1.0
3.573721 0.618616 2.860470 1.0 1.0 0.0 1.0
-3.600032 0.658919 3.137518 1.0 1.0 0.0 1.0
1.601705 0.000000 2.247441 0.500000 0.500000 0.500000 1.0
0.923187 0.669216 1.667862 0.500000 0.500000 0.500000 1.0
0.923187 -0.669216 1.667862 0.500000 0.500000 0.500000 1.0
-0.042313 0.890252 1.833639 0.500000 0.500000 0.500000 1.0
-0.042313 -0.890252 1.833639 0.500000 0.500000 0.500000 1.0
-3.600032 -0.658919 3.137518 1.0 1.0 0.0 1.0
-0.003742 -0.000000 1.038258 1.0 1.0 0.0 1.0
0.810584 0.000000 1.639279 0.500000 0.500000 0.500000 1.0
3 0 1 54
3 0 54 1
3 0 54 48
3 0 48 54
3 1 54 21
3 1 21 54
3 2 31 6
3 2 6 31
3 3 4 46
3 3 46 4
3 3 46 45
3 3 45 46
3 4 46 23
3 4 23 46
3 5 7 32
3 5 32 7
3 5 27 8
3 5 8 27
3 5 32 36
3 5 36 32
3 5 36 27
3 5 27 36
3 6 24 10
3 6 10 24
3 6 31 24
3 6 24 31
3 7 37 32
3 7 32 37
3 8 27 33
3 8 33 27
3 8 33 12
3 8 12 33
3 9 28 2
3 9 2 28
3 11 15 37
3 11 37 15
3 12 33 16
3 12 16 33
3 13 34 9
3 13 9 34
3 14 38 24
3 14 24 38
3 15 47 19
3 15 19 47
3 16 20 48
3 16 48 20
3 17 34 13
3 17 13 34
3 18 38 14
3 18 14 38
3 19 47 23
3 19 23 47
3 24 14 10
3 24 10 14
3 24 26 49
3 24 49 26
3 24 49 37
3 24 37 49
3 25 32 43
3 25 43 32
3 25 43 50
3 25 50 43
3 25 49 50
3 25 50 49
3 26 31 24
3 26 24 31
3 26 31 44
3 26 44 31
3 26 44 51
3 26 51 44
3 26 51 49
3 26 49 51
3 27 36 40
3 27 40 36
3 27 40 33
3 27 33 40
3 28 35 2
3 28 2 35
3 29 40 55
3 29 55 40
3 29 41 30
3 29 30 41
3 29 42 41
3 29 41 42
3 29 55 42
3 29 42 55
3 30 29 33
3 30 33 29
3 30 33 34
3 30 34 33
3 30 39 55
3 30 55 39
3 30 55 41
3 30 41 55
3 31 35 2
3 31 2 35
3 32 25 37
3 32 37 25
3 32 43 36
3 32 36 43
3 33 29 40
3 33 40 29
3 34 28 9
3 34 9 28
3 34 33 48
3 34 48 33
3 34 39 28
3 34 28 39
3 34 48 54
3 34 54 48
3 35 28 39
3 35 39 28
3 35 53 39
3 35 39 53
3 36 52 43
3 36 43 52
3 37 11 7
3 37 7 11
3 37 15 47
3 37 47 15
3 37 24 38
3 37 38 24
3 37 38 47
3 37 47 38
3 38 18 22
3 38 22 18
3 38 45 46
3 38 46 45
3 38 46 47
3 38 47 46
3 39 34 30
3 39 30 34
3 42 55 41
3 42 41 55
3 44 31 35
3 44 35 31
3 45 22 3
3 45 3 22
3 45 22 38
3 45 38 22
3 46 23 47
3 46 47 23
3 48 0 20
3 48 20 0
3 48 16 33
3 48 33 16
3 49 37 25
3 49 25 37
3 50 55 43
3 50 43 55
3 50 55 56
3 50 56 55
3 50 56 49
3 50 49 56
3 51 49 56
3 51 56 49
3 52 40 36
3 52 36 40
3 52 55 40
3 52 40 55
3 53 35 44
3 53 44 35
3 53 44 55
3 53 55 44
3 53 55 39
3 53 39 55
3 54 17 21
3 54 21 17
3 54 17 34
3 54 34 17
3 55 43 52
3 55 52 43
3 55 51 44
3 55 44 51
3 55 51 56
3 55 56 51
