# Generated by dad_to_polygons. Vertex data from Humppa's .off file,
# polygons parsed from .dad file.
COFF
69 216 69
-6.156910 0.793882 4.319689 0.500000 0.500000 0.500000 1.0
-6.156910 -0.793882 4.319689 0.500000 0.500000 0.500000 1.0
-0.027556 -1.794741 3.987213 0.500000 0.500000 0.500000 1.0
7.065635 -0.793205 4.328703 0.500000 0.500000 0.500000 1.0
7.065635 0.793205 4.328703 0.500000 0.500000 0.500000 1.0
-0.027556 1.794741 3.987213 0.500000 0.500000 0.500000 1.0
1.041743 -1.470772 4.136942 0.500000 0.500000 0.500000 1.0
1.041743 1.470772 4.136942 0.500000 0.500000 0.500000 1.0
-1.083253 1.452659 4.108381 0.500000 0.500000 0.500000 1.0
-1.083253 -1.452659 4.108381 0.500000 0.500000 0.500000 1.0
1.959722 -1.149031 4.370026 0.500000 0.500000 0.500000 1.0
1.959722 1.149031 4.370026 0.500000 0.500000 0.500000 1.0
-2.005897 1.152326 4.348922 0.500000 0.500000 0.500000 1.0
-2.005897 -1.152326 4.348922 0.500000 0.500000 0.500000 1.0
3.051197 -1.093228 4.332715 0.500000 0.500000 0.500000 1.0
3.051197 1.093228 4.332715 0.500000 0.500000 0.500000 1.0
-2.999353 1.051368 4.326936 0.500000 0.500000 0.500000 1.0
-2.999353 -1.051368 4.326936 0.500000 0.500000 0.500000 1.0
4.049938 -1.042759 4.372815 0.500000 0.500000 0.500000 1.0
4.049938 1.042759 4.372815 0.500000 0.500000 0.500000 1.0
-3.994634 0.976687 4.370019 0.500000 0.500000 0.500000 1.0
-3.994634 -0.976687 4.370019 0.500000 0.500000 0.500000 1.0
5.049080 -0.933567 4.340863 0.500000 0.500000 0.500000 1.0
5.049080 0.933567 4.340863 0.500000 0.500000 0.500000 1.0
-4.991479 0.887864 4.341423 0.500000 0.500000 0.500000 1.0
-4.991479 -0.887864 4.341423 0.500000 0.500000 0.500000 1.0
6.048393 -0.863533 4.334564 0.500000 0.500000 0.500000 1.0
6.048393 0.863533 4.334564 0.500000 0.500000 0.500000 1.0
-1.074530 -1.398929 3.253991 0.500000 0.500000 0.500000 1.0
-1.856808 0.820641 2.327934 0.500000 0.500000 0.500000 1.0
-1.856808 -0.820641 2.327934 0.500000 0.500000 0.500000 1.0
0.960235 -1.405366 3.068019 0.500000 0.500000 0.500000 1.0
0.960235 1.405366 3.068019 0.500000 0.500000 0.500000 1.0
-2.205326 1.037066 3.316327 0.500000 0.500000 0.500000 1.0
-2.205326 -1.037066 3.316327 0.500000 0.500000 0.500000 1.0
0.002005 -1.510965 2.913595 0.500000 0.500000 0.500000 1.0
0.002005 1.510965 2.913595 0.500000 0.500000 0.500000 1.0
2.170291 1.030403 3.388600 0.500000 0.500000 0.500000 1.0
3.591884 -0.618519 2.860470 1.0 1.0 0.0 1.0
-0.599195 -1.267509 2.406307 0.500000 0.500000 0.500000 1.0
-0.599195 1.267509 2.406307 0.500000 0.500000 0.500000 1.0
-1.543889 -0.603343 1.469455 0.500000 0.500000 0.500000 1.0
-1.543889 0.603343 1.469455 0.500000 0.500000 0.500000 1.0
0.748046 1.204378 2.096702 0.500000 0.500000 0.500000 1.0
0.748046 -1.204378 2.096702 0.500000 0.500000 0.500000 1.0
5.163882 -0.764633 3.537532 0.500000 0.500000 0.500000 1.0
5.163882 0.764633 3.537532 0.500000 0.500000 0.500000 1.0
3.591884 0.618519 2.860470 1.0 1.0 0.0 1.0
-3.587163 0.658839 3.137518 1.0 1.0 0.0 1.0
1.771687 0.000000 2.523294 0.500000 0.500000 0.500000 1.0
1.126815 0.816221 1.873694 0.500000 0.500000 0.500000 1.0
1.126815 -0.816221 1.873694 0.500000 0.500000 0.500000 1.0
-0.014569 1.189669 2.051031 0.500000 0.500000 0.500000 1.0
-0.014569 -1.189669 2.051031 0.500000 0.500000 0.500000 1.0
-3.587163 -0.658839 3.137518 1.0 1.0 0.0 1.0
0.007368 -0.000000 1.038258 1.0 1.0 0.0 1.0
1.195969 0.000000 1.754643 0.500000 0.500000 0.500000 1.0
-4.965416 0.715741 3.613230 0.500000 0.500000 0.500000 1.0
-4.965416 -0.715741 3.613230 0.500000 0.500000 0.500000 1.0
4.345844 -0.846980 3.642406 0.500000 0.500000 0.500000 1.0
4.345844 0.846980 3.642406 0.500000 0.500000 0.500000 1.0
-2.205587 0.000000 3.284980 0.500000 0.500000 0.500000 1.0
2.170414 0.000000 3.359582 0.500000 0.500000 0.500000 1.0
2.170291 -1.030403 3.388600 0.500000 0.500000 0.500000 1.0
1.438400 1.219398 2.653550 0.500000 0.500000 0.500000 1.0
6.111106 -0.773210 3.915379 0.500000 0.500000 0.500000 1.0
6.111106 0.773210 3.915379 0.500000 0.500000 0.500000 1.0
1.438400 -1.219398 2.653550 0.500000 0.500000 0.500000 1.0
-1.074530 1.398929 3.253991 0.500000 0.500000 0.500000 1.0
3 0 1 58
3 0 58 1
3 0 58 57
3 0 57 58
3 2 28 9
3 2 9 28
3 2 28 35
3 2 35 28
3 2 31 35
3 2 35 31
3 4 65 3
3 4 3 65
3 4 66 65
3 4 65 66
3 6 31 2
3 6 2 31
3 6 31 63
3 6 63 31
3 6 63 10
3 6 10 63
3 7 32 5
3 7 5 32
3 8 33 68
3 8 68 33
3 8 68 5
3 8 5 68
3 9 28 34
3 9 34 28
3 13 34 9
3 13 9 34
3 14 18 38
3 14 38 18
3 15 11 37
3 15 37 11
3 15 47 37
3 15 37 47
3 16 12 33
3 16 33 12
3 16 48 20
3 16 20 48
3 17 13 34
3 17 34 13
3 17 34 54
3 17 54 34
3 18 38 59
3 18 59 38
3 19 47 15
3 19 15 47
3 19 47 60
3 19 60 47
3 21 54 17
3 21 17 54
3 23 46 60
3 23 60 46
3 24 0 57
3 24 57 0
3 24 48 20
3 24 20 48
3 25 54 21
3 25 21 54
3 25 58 54
3 25 54 58
3 26 3 65
3 26 65 3
3 26 22 45
3 26 45 22
3 26 45 65
3 26 65 45
3 27 4 66
3 27 66 4
3 27 46 23
3 27 23 46
3 27 66 46
3 27 46 66
3 28 39 35
3 28 35 39
3 29 30 61
3 29 61 30
3 29 41 30
3 29 30 41
3 29 42 41
3 29 41 42
3 29 42 55
3 29 55 42
3 29 55 40
3 29 40 55
3 29 61 33
3 29 33 61
3 30 39 34
3 30 34 39
3 31 44 35
3 31 35 44
3 32 7 37
3 32 37 7
3 32 36 5
3 32 5 36
3 33 12 8
3 33 8 12
3 33 29 40
3 33 40 29
3 33 48 16
3 33 16 48
3 33 61 48
3 33 48 61
3 33 68 40
3 33 40 68
3 34 28 39
3 34 39 28
3 35 53 39
3 35 39 53
3 36 32 43
3 36 43 32
3 36 43 52
3 36 52 43
3 36 52 40
3 36 40 52
3 37 7 11
3 37 11 7
3 37 32 64
3 37 64 32
3 37 49 62
3 37 62 49
3 37 49 64
3 37 64 49
3 38 46 45
3 38 45 46
3 38 47 46
3 38 46 47
3 38 59 45
3 38 45 59
3 38 62 63
3 38 63 62
3 38 63 14
3 38 14 63
3 39 30 41
3 39 41 30
3 39 41 55
3 39 55 41
3 39 55 53
3 39 53 55
3 42 55 41
3 42 41 55
3 43 50 64
3 43 64 50
3 43 55 50
3 43 50 55
3 43 55 52
3 43 52 55
3 43 64 32
3 43 32 64
3 44 51 67
3 44 67 51
3 44 67 31
3 44 31 67
3 45 59 22
3 45 22 59
3 46 45 65
3 46 65 45
3 46 47 60
3 46 60 47
3 46 65 66
3 46 66 65
3 47 38 62
3 47 62 38
3 48 24 57
3 48 57 24
3 48 57 58
3 48 58 57
3 48 58 54
3 48 54 58
3 48 61 54
3 48 54 61
3 49 50 56
3 49 56 50
3 49 50 64
3 49 64 50
3 49 56 51
3 49 51 56
3 49 63 62
3 49 62 63
3 49 67 51
3 49 51 67
3 51 55 44
3 51 44 55
3 51 55 56
3 51 56 55
3 52 55 40
3 52 40 55
3 53 44 35
3 53 35 44
3 53 44 55
3 53 55 44
3 55 56 50
3 55 50 56
3 58 25 1
3 58 1 25
3 59 22 18
3 59 18 22
3 60 19 23
3 60 23 19
3 61 30 34
3 61 34 30
3 61 54 34
3 61 34 54
3 62 47 37
3 62 37 47
3 63 14 10
3 63 10 14
3 63 67 49
3 63 49 67
3 67 31 63
3 67 63 31
3 68 36 5
3 68 5 36
3 68 40 36
3 68 36 40
