 COFF
          77         676          77
  
  -6.3070093941430398       0.84442611964847503        4.6576889999894071       0.60000002384185791       0.60000002384185791       0.60000002384185791       0.80000001192092896     
  -6.3070093941430390      -0.84442611964847503        4.6576889999894071       0.60000002384185791       0.60000002384185791       0.60000002384185791       0.80000001192092896     
  -2.8250217778095624E-002  -1.8616541005142695        4.3260687439491381       0.60000002384185791       0.60000002384185791       0.60000002384185791       0.80000001192092896     
   7.2319036517459478      -0.83137013700334295        4.6860234326694954       0.60000002384185791       0.60000002384185791       0.60000002384185791       0.80000001192092896     
   7.2319036517459478       0.83137013700334295        4.6860234326694954       0.60000002384185791       0.60000002384185791       0.60000002384185791       0.80000001192092896     
  -2.8250217778095586E-002   1.8616541005142695        4.3260687439491381       0.60000002384185791       0.60000002384185791       0.60000002384185791       0.80000001192092896     
   1.0586137976275372       -1.5382402632842795        4.4744556355572467       0.60000002384185791       0.60000002384185791       0.60000002384185791       0.80000001192092896     
   1.0586137976275372        1.5382402632842793        4.4744556355572467       0.60000002384185791       0.60000002384185791       0.60000002384185791       0.80000001192092896     
  -1.0929487918136274        1.5190192368799431        4.4473609477913287       0.60000002384185791       0.60000002384185791       0.60000002384185791       0.80000001192092896     
  -1.0929487918136278       -1.5190192368799431        4.4473609477913287       0.60000002384185791       0.60000002384185791       0.60000002384185791       0.80000001192092896     
   1.9776364004391564       -1.2204879936103743        4.7087156991422994       0.60000002384185791       0.60000002384185791       0.60000002384185791       0.80000001192092896     
   1.9776364004391564        1.2204879936103741        4.7087156991422994       0.60000002384185791       0.60000002384185791       0.60000002384185791       0.80000001192092896     
  -2.0149191741560974        1.2198054697033838        4.6929589282368829       0.60000002384185791       0.60000002384185791       0.60000002384185791       0.80000001192092896     
  -2.0149191741560974       -1.2198054697033833        4.6929589282368838       0.60000002384185791       0.60000002384185791       0.60000002384185791       0.80000001192092896     
   3.0531336746181794       -1.2133631916032048        4.6232947188577747       0.60000002384185791       0.60000002384185791       0.60000002384185791       0.80000001192092896     
   3.0531336746181807        1.2133631916032046        4.6232947188577729       0.60000002384185791       0.60000002384185791       0.60000002384185791       0.80000001192092896     
  -3.0103863370111701        1.1680654036854923        4.6195475655605494       0.60000002384185791       0.60000002384185791       0.60000002384185791       0.80000001192092896     
  -3.0103863370111705       -1.1680654036854923        4.6195475655605494       0.60000002384185791       0.60000002384185791       0.60000002384185791       0.80000001192092896     
   4.0514581963966805       -1.1663789300760754        4.6609482402299642       0.60000002384185791       0.60000002384185791       0.60000002384185791       0.80000001192092896     
   4.0514581963966814        1.1663789300760756        4.6609482402299633       0.60000002384185791       0.60000002384185791       0.60000002384185791       0.80000001192092896     
  -4.0073842292269370        1.1043330556977387        4.6640778923833395       0.60000002384185791       0.60000002384185791       0.60000002384185791       0.80000001192092896     
  -4.0073842292269379       -1.1043330556977382        4.6640778923833386       0.60000002384185791       0.60000002384185791       0.60000002384185791       0.80000001192092896     
   5.0406692240032420       -1.0244828108769644        4.6757055053907166       0.60000002384185791       0.60000002384185791       0.60000002384185791       0.80000001192092896     
   5.0406692240032429        1.0244828108769650        4.6757055053907166       0.60000002384185791       0.60000002384185791       0.60000002384185791       0.80000001192092896     
  -5.0018534408469657       0.99422420424211277        4.6470105617267512       0.60000002384185791       0.60000002384185791       0.60000002384185791       0.80000001192092896     
  -5.0018534408469657      -0.99422420424211266        4.6470105617267503       0.60000002384185791       0.60000002384185791       0.60000002384185791       0.80000001192092896     
   6.0538029446217321      -0.93363739244280874        4.6771689502739280       0.60000002384185791       0.60000002384185791       0.60000002384185791       0.80000001192092896     
   6.0538029446217330       0.93363739244280874        4.6771689502739280       0.60000002384185791       0.60000002384185791       0.60000002384185791       0.80000001192092896     
  -1.0357044386859853       -1.4773527854402175        3.5717403162130608       0.60000002384185791       0.60000002384185791       0.60000002384185791       0.80000001192092896     
  -1.8146493724599553       0.74718529970889791        2.5903162586722335       0.60000002384185791       0.60000002384185791       0.60000002384185791       0.80000001192092896     
  -1.8146493724599557      -0.74718529970889147        2.5903162586722330       0.60000002384185791       0.60000002384185791       0.60000002384185791       0.80000001192092896     
  0.94835609149849498       -1.4799750643561760        3.3705265715468005       0.60000002384185791       0.60000002384185791       0.60000002384185791       0.80000001192092896     
  0.94835609149849509        1.4799750643561755        3.3705265715468005       0.60000002384185791       0.60000002384185791       0.60000002384185791       0.80000001192092896     
  -2.1714578951941350        1.1302776370512326        3.6175709715554105       0.60000002384185791       0.60000002384185791       0.60000002384185791       0.80000001192092896     
  -2.1714578951941359       -1.1302776370512317        3.6175709715554101       0.60000002384185791       0.60000002384185791       0.60000002384185791       0.80000001192092896     
   1.5678515962384582E-002  -1.5936726266210275        3.1980509517409885       0.60000002384185791       0.60000002384185791       0.60000002384185791       0.80000001192092896     
   1.5678515962384565E-002   1.5936726266210270        3.1980509517409881       0.60000002384185791       0.60000002384185791       0.60000002384185791       0.80000001192092896     
   2.1639984997479380        1.1222280828469944        3.6892706209987942       0.60000002384185791       0.60000002384185791       0.60000002384185791       0.80000001192092896     
   3.5811739237217255      -0.61879044298380648        2.8604699335027806        1.0000000000000000        1.0000000000000000        0.0000000000000000        1.0000000000000000     
 -0.65724705353571056       -1.4061529852980841        2.7011773012334772       0.60000002384185791       0.60000002384185791       0.60000002384185791       0.80000001192092896     
 -0.65724705353570689        1.4061529852980847        2.7011773012334763       0.60000002384185791       0.60000002384185791       0.60000002384185791       0.80000001192092896     
  -1.4995823842938814      -0.65281006533414832        1.5940527767627193       0.60000002384185791       0.60000002384185791       0.60000002384185791       0.80000001192092896     
  -1.4995823842938818       0.65281006533415353        1.5940527767627231       0.60000002384185791       0.60000002384185791       0.60000002384185791       0.80000001192092896     
  0.80777729475422055        1.3534500676820078        2.3437351905206483       0.60000002384185791       0.60000002384185791       0.60000002384185791       0.80000001192092896     
  0.80777729475422055       -1.3534500676820080        2.3437351905206487       0.60000002384185791       0.60000002384185791       0.60000002384185791       0.80000001192092896     
   5.3104830552955535      -0.87348138152829191        3.8415207696768467       0.60000002384185791       0.60000002384185791       0.60000002384185791       0.80000001192092896     
   5.3104830552955535       0.87348138152829202        3.8415207696768467       0.60000002384185791       0.60000002384185791       0.60000002384185791       0.80000001192092896     
   3.5811739237217250       0.61879044298380725        2.8604699335027806        1.0000000000000000        1.0000000000000000        0.0000000000000000        1.0000000000000000     
  -3.5790315432771225       0.65905859523880295        3.1375182682895115        1.0000000000000000        1.0000000000000000        0.0000000000000000        1.0000000000000000     
   1.8869981545472836       -3.4088290977569848E-015   2.8136774268562283       0.60000002384185791       0.60000002384185791       0.60000002384185791       0.80000001192092896     
   1.2165606501740778       0.94871644067368799        2.1021621474871797       0.60000002384185791       0.60000002384185791       0.60000002384185791       0.80000001192092896     
   1.2165606501740773      -0.94871644067368754        2.1021621474871797       0.60000002384185791       0.60000002384185791       0.60000002384185791       0.80000001192092896     
   3.1956766764393546E-002   1.3703544212350904        2.2873445267981176       0.60000002384185791       0.60000002384185791       0.60000002384185791       0.80000001192092896     
   3.1956766764393213E-002  -1.3703544212350904        2.2873445267981176       0.60000002384185791       0.60000002384185791       0.60000002384185791       0.80000001192092896     
  -3.5790315432771225      -0.65905859523880184        3.1375182682895115        1.0000000000000000        1.0000000000000000        0.0000000000000000        1.0000000000000000     
   3.6669899773241796E-002   1.4169237561676556E-016   1.0382578837327854        1.0000000000000000        1.0000000000000000        0.0000000000000000        1.0000000000000000     
   1.4107821643323295        1.4453381156291685E-015   1.9834861161389239       0.60000002384185791       0.60000002384185791       0.60000002384185791       0.80000001192092896     
  -5.1401251651007209       0.80949673547157230        3.8597821748109640       0.60000002384185791       0.60000002384185791       0.60000002384185791       0.80000001192092896     
  -5.1401251651007200      -0.80949673547157230        3.8597821748109640       0.60000002384185791       0.60000002384185791       0.60000002384185791       0.80000001192092896     
   4.4824398299930630       -1.0142853924020534        3.9191113203112931       0.60000002384185791       0.60000002384185791       0.60000002384185791       0.80000001192092896     
   4.4824398299930630        1.0142853924020536        3.9191113203112931       0.60000002384185791       0.60000002384185791       0.60000002384185791       0.80000001192092896     
  -2.1716537712930375        3.8219068349916908E-016   3.4857138337433868       0.60000002384185791       0.60000002384185791       0.60000002384185791       0.80000001192092896     
   2.1643797901995980        1.3802079732436557E-013   3.5550248608652621       0.60000002384185791       0.60000002384185791       0.60000002384185791       0.80000001192092896     
   2.1639984997479376       -1.1222280828469948        3.6892706209987951       0.60000002384185791       0.60000002384185791       0.60000002384185791       0.80000001192092896     
   1.4316399201807064        1.3055083371406719        2.9721483079806985       0.60000002384185791       0.60000002384185791       0.60000002384185791       0.80000001192092896     
   6.3539167653795765      -0.82458480655584643        4.2093995810498290       0.60000002384185791       0.60000002384185791       0.60000002384185791       0.80000001192092896     
   6.3539167653795765       0.82458480655584643        4.2093995810498290       0.60000002384185791       0.60000002384185791       0.60000002384185791       0.80000001192092896     
   1.4316399201807064       -1.3055083371406719        2.9721483079806990       0.60000002384185791       0.60000002384185791       0.60000002384185791       0.80000001192092896     
  -1.0357044386859844        1.4773527854402175        3.5717403162130608       0.60000002384185791       0.60000002384185791       0.60000002384185791       0.80000001192092896     
 -0.32182529165121904      -0.95229750093246901        1.9090356246507210       0.60000002384185791       0.60000002384185791       0.60000002384185791       0.80000001192092896     
 -0.32182529165121537       0.95229750093246979        1.9090356246507194       0.60000002384185791       0.60000002384185791       0.60000002384185791       0.80000001192092896     
  -4.2974237864664895       0.89882840120118379        3.9305665084712094       0.60000002384185791       0.60000002384185791       0.60000002384185791       0.80000001192092896     
  -4.2974237864664886      -0.89882840120118312        3.9305665084712089       0.60000002384185791       0.60000002384185791       0.60000002384185791       0.80000001192092896     
  0.45847036247865292       0.71144428994014364        1.6779390308526201       0.60000002384185791       0.60000002384185791       0.60000002384185791       0.80000001192092896     
  0.45847036247865292      -0.71144428994014364        1.6779390308526203       0.60000002384185791       0.60000002384185791       0.60000002384185791       0.80000001192092896     
   4.4511658193234327      -0.74377809764040281        3.3487676231401680       0.60000002384185791       0.60000002384185791       0.60000002384185791       0.80000001192092896     
   4.4511658193234327       0.74377809764040315        3.3487676231401680       0.60000002384185791       0.60000002384185791       0.60000002384185791       0.80000001192092896     
  
   3   0  24  57
   3   0  57  24
   4   0  57  58   1
   3   1  58  25
   4   1  58  57   0
   3   1  25  58
   3   2  35  28
   3   2  35  31
   3   2  31  35
   3   2  31   6
   3   2   6  31
   3   2   9  28
   3   2  28  35
   3   2  28   9
   3   3  26  65
   3   3  65  26
   4   3  65  66   4
   3   4  66  27
   4   4  66  65   3
   3   4  27  66
   3   5   7  32
   3   5  32  36
   3   5  32   7
   3   5  36  32
   3   5  36  68
   3   5  68  36
   3   5  68   8
   3   5   8  68
   3   6   2  31
   3   6  31   2
   3   6  31  63
   3   6  63  10
   3   6  63  31
   3   6  10  63
   3   7  11  37
   3   7  37  32
   3   7  37  11
   3   7  32  37
   3   7  32   5
   3   7   5  32
   3   8   5  68
   3   8  68   5
   3   8  68  33
   3   8  33  12
   3   8  33  68
   3   8  12  33
   3   9  13  34
   3   9  34  28
   3   9  34  13
   3   9  28  34
   3   9  28   2
   3   9   2  28
   3  10   6  63
   3  10  63  14
   3  10  63   6
   3  10  14  63
   3  11  15  37
   3  11  37   7
   3  11  37  15
   3  11   7  37
   3  12   8  33
   3  12  33  16
   3  12  33   8
   3  12  16  33
   3  13  17  34
   3  13  34   9
   3  13  34  17
   3  13   9  34
   3  14  10  63
   3  14  63  38
   3  14  63  10
   3  14  38  18
   3  14  38  63
   3  14  18  38
   3  15  19  47
   3  15  47  37
   3  15  47  19
   3  15  37  47
   3  15  37  11
   3  15  11  37
   3  16  12  33
   3  16  33  48
   3  16  33  12
   3  16  48  20
   3  16  48  33
   3  16  20  48
   3  17  21  54
   3  17  54  34
   3  17  54  21
   3  17  34  54
   3  17  34  13
   3  17  13  34
   3  18  14  38
   3  18  38  59
   3  18  38  14
   3  18  59  38
   3  18  59  22
   3  18  22  59
   3  19  23  60
   3  19  60  47
   3  19  60  23
   3  19  47  15
   3  19  47  60
   3  19  15  47
   3  20  16  48
   3  20  48  71
   3  20  48  16
   3  20  71  48
   3  20  71  24
   3  20  24  71
   4  20  24  57  48
   3  21  25  72
   4  21  25  58  54
   3  21  72  54
   3  21  72  25
   3  21  54  17
   3  21  54  72
   3  21  17  54
   3  22  18  59
   3  22  59  18
   3  22  59  45
   3  22  45  26
   3  22  45  59
   3  22  26  45
   3  23  27  46
   3  23  46  60
   3  23  46  27
   3  23  60  46
   3  23  60  19
   3  23  19  60
   3  24  20  71
   4  24  20  48  57
   3  24  71  20
   3  24  71  57
   3  24  57   0
   3  24  57  71
   3  24   0  57
   3  25   1  58
   3  25  58   1
   3  25  58  72
   3  25  72  58
   3  25  72  21
   3  25  21  72
   4  25  21  54  58
   3  26  22  45
   3  26  45  65
   3  26  45  22
   3  26  65   3
   3  26  65  45
   3  26   3  65
   3  27   4  66
   3  27  66   4
   3  27  66  46
   3  27  46  66
   3  27  46  23
   3  27  23  46
   3  28  34  39
   3  28  34   9
   3  28  39  35
   3  28  39  34
   3  28  35  39
   3  28  35   2
   3  28   2  35
   3  28   2   9
   3  28   9  34
   3  28   9   2
   3  29  33  40
   3  29  33  61
   3  29  40  33
   3  29  40  70
   3  29  70  42
   3  29  70  40
   3  29  42  70
   4  29  42  41  30
   3  29  30  61
   4  29  30  41  42
   3  29  61  30
   3  29  61  33
   3  30  34  61
   3  30  34  39
   3  30  61  29
   3  30  61  34
   3  30  29  61
   4  30  29  42  41
   3  30  41  69
   4  30  41  42  29
   3  30  69  41
   3  30  69  39
   3  30  39  34
   3  30  39  69
   3  31   2  35
   3  31   2   6
   3  31  35  44
   3  31  35   2
   3  31  44  67
   3  31  44  35
   3  31  67  63
   3  31  67  44
   3  31  63   6
   3  31  63  67
   3  31   6   2
   3  31   6  63
   3  32  37  64
   3  32  37   7
   3  32  64  37
   3  32  64  43
   3  32  43  36
   3  32  43  64
   3  32  36  43
   3  32  36   5
   3  32   5   7
   3  32   5  36
   3  32   7  37
   3  32   7   5
   3  33  48  16
   3  33  48  61
   3  33  16  12
   3  33  16  48
   3  33  12   8
   3  33  12  16
   3  33   8  68
   3  33   8  12
   3  33  68  40
   3  33  68   8
   3  33  40  29
   3  33  40  68
   3  33  29  40
   3  33  29  61
   3  33  61  29
   3  33  61  48
   3  34  54  61
   3  34  54  17
   3  34  61  30
   3  34  61  54
   3  34  30  61
   3  34  30  39
   3  34  39  28
   3  34  39  30
   3  34  28  39
   3  34  28   9
   3  34   9  13
   3  34   9  28
   3  34  13  17
   3  34  13   9
   3  34  17  54
   3  34  17  13
   3  35  28  39
   3  35  28   2
   3  35  39  28
   3  35  39  53
   3  35  53  44
   3  35  53  39
   3  35  44  31
   3  35  44  53
   3  35  31   2
   3  35  31  44
   3  35   2  31
   3  35   2  28
   3  36  32  43
   3  36  32   5
   3  36  43  32
   3  36  43  52
   3  36  52  40
   3  36  52  43
   3  36  40  68
   3  36  40  52
   3  36  68   5
   3  36  68  40
   3  36   5  32
   3  36   5  68
   3  37  47  62
   3  37  47  15
   3  37  62  49
   3  37  62  47
   3  37  49  62
   3  37  49  64
   3  37  64  49
   3  37  64  32
   3  37  32  64
   3  37  32   7
   3  37   7  11
   3  37   7  32
   3  37  11  15
   3  37  11   7
   3  37  15  47
   3  37  15  11
   3  38  59  18
   4  38  59  45  75
   3  38  18  14
   3  38  18  59
   3  38  14  63
   3  38  14  18
   3  38  63  14
   3  38  63  62
   3  38  62  47
   3  38  62  63
   3  38  47  62
   4  38  47  76  75
   3  39  35  28
   3  39  35  53
   3  39  28  34
   3  39  28  35
   3  39  34  30
   3  39  34  28
   3  39  30  34
   3  39  30  69
   3  39  69  30
   3  39  69  53
   3  39  53  35
   3  39  53  69
   3  40  29  33
   3  40  29  70
   3  40  33  68
   3  40  33  29
   3  40  68  36
   3  40  68  33
   3  40  36  52
   3  40  36  68
   3  40  52  36
   3  40  52  70
   3  40  70  52
   3  40  70  29
   3  41  55  69
   3  41  55  42
   3  41  69  30
   3  41  69  55
   3  41  30  69
   4  41  30  29  42
   3  41  42  55
   4  41  42  29  30
   3  42  55  41
   3  42  55  70
   3  42  41  55
   4  42  41  30  29
   3  42  29  70
   4  42  29  30  41
   3  42  70  55
   3  42  70  29
   3  43  36  32
   3  43  36  52
   3  43  32  64
   3  43  32  36
   3  43  64  50
   3  43  64  32
   3  43  50  64
   3  43  50  73
   3  43  73  50
   3  43  73  52
   3  43  52  36
   3  43  52  73
   3  44  67  51
   3  44  67  31
   3  44  31  35
   3  44  31  67
   3  44  35  53
   3  44  35  31
   3  44  53  35
   3  44  53  74
   3  44  74  53
   3  44  74  51
   3  44  51  67
   3  44  51  74
   3  45  65  26
   4  45  65  66  46
   3  45  26  22
   3  45  26  65
   3  45  22  59
   3  45  22  26
   3  45  59  22
   4  45  59  38  75
   3  46  66  27
   4  46  66  65  45
   3  46  60  23
   4  46  60  47  76
   3  46  23  27
   3  46  23  60
   3  46  27  66
   3  46  27  23
   3  47  38  62
   4  47  38  75  76
   3  47  62  37
   3  47  62  38
   3  47  37  62
   3  47  37  15
   3  47  15  19
   3  47  15  37
   3  47  19  60
   3  47  19  15
   3  47  60  19
   4  47  60  46  76
   3  48  57  71
   4  48  57  24  20
   3  48  71  20
   3  48  71  57
   3  48  20  16
   3  48  20  71
   3  48  16  33
   3  48  16  20
   3  48  33  16
   3  48  33  61
   3  48  61  54
   3  48  61  33
   3  48  54  61
   4  48  54  58  57
   3  49  37  62
   3  49  37  64
   3  49  62  37
   3  49  62  63
   3  49  63  67
   3  49  63  62
   3  49  67  51
   3  49  67  63
   3  49  51  67
   3  49  51  56
   3  49  56  51
   3  49  56  50
   3  49  50  64
   3  49  50  56
   3  49  64  37
   3  49  64  50
   3  50  43  64
   3  50  43  73
   3  50  64  49
   3  50  64  43
   3  50  49  56
   3  50  49  64
   3  50  56  55
   3  50  56  49
   3  50  55  73
   3  50  55  56
   3  50  73  55
   3  50  73  43
   3  51  49  67
   3  51  49  56
   3  51  67  49
   3  51  67  44
   3  51  44  67
   3  51  44  74
   3  51  74  55
   3  51  74  44
   3  51  55  56
   3  51  55  74
   3  51  56  55
   3  51  56  49
   3  52  40  36
   3  52  40  70
   3  52  36  43
   3  52  36  40
   3  52  43  36
   3  52  43  73
   3  52  73  55
   3  52  73  43
   3  52  55  73
   3  52  55  70
   3  52  70  55
   3  52  70  40
   3  53  44  35
   3  53  44  74
   3  53  35  39
   3  53  35  44
   3  53  39  35
   3  53  39  69
   3  53  69  55
   3  53  69  39
   3  53  55  74
   3  53  55  69
   3  53  74  55
   3  53  74  44
   3  54  58  72
   4  54  58  57  48
   3  54  48  61
   4  54  48  57  58
   3  54  61  34
   3  54  61  48
   3  54  34  61
   3  54  34  17
   3  54  17  21
   3  54  17  34
   3  54  21  72
   3  54  21  17
   3  54  72  58
   3  54  72  21
   3  55  52  73
   3  55  52  70
   3  55  73  50
   3  55  73  52
   3  55  50  56
   3  55  50  73
   3  55  56  51
   3  55  56  50
   3  55  51  74
   3  55  51  56
   3  55  74  53
   3  55  74  51
   3  55  53  69
   3  55  53  74
   3  55  69  41
   3  55  69  53
   3  55  41  69
   3  55  41  42
   3  55  42  41
   3  55  42  70
   3  55  70  52
   3  55  70  42
   3  56  51  49
   3  56  51  55
   3  56  55  50
   3  56  55  51
   3  56  50  49
   3  56  50  55
   3  56  49  51
   3  56  49  50
   3  57   0  24
   4  57   0   1  58
   3  57  24  71
   3  57  24   0
   3  57  71  48
   3  57  71  24
   3  57  48  71
   4  57  48  20  24
   3  58   1  25
   4  58   1   0  57
   3  58  54  72
   4  58  54  48  57
   3  58  72  54
   3  58  72  25
   3  58  25   1
   3  58  25  72
   3  59  18  38
   3  59  18  22
   3  59  38  18
   4  59  38  75  45
   3  59  45  22
   4  59  45  75  38
   3  59  22  18
   3  59  22  45
   3  60  46  23
   4  60  46  76  47
   3  60  47  19
   4  60  47  76  46
   3  60  19  23
   3  60  19  47
   3  60  23  46
   3  60  23  19
   3  61  29  33
   3  61  29  30
   3  61  30  34
   3  61  30  29
   3  61  34  54
   3  61  34  30
   3  61  54  48
   3  61  54  34
   3  61  48  33
   3  61  48  54
   3  61  33  48
   3  61  33  29
   3  62  49  37
   3  62  49  63
   3  62  37  47
   3  62  37  49
   3  62  47  38
   3  62  47  37
   3  62  38  63
   3  62  38  47
   3  62  63  38
   3  62  63  49
   3  63  38  14
   3  63  38  62
   3  63  14  10
   3  63  14  38
   3  63  10   6
   3  63  10  14
   3  63   6  31
   3  63   6  10
   3  63  31  67
   3  63  31   6
   3  63  67  49
   3  63  67  31
   3  63  49  62
   3  63  49  67
   3  63  62  49
   3  63  62  38
   3  64  37  49
   3  64  37  32
   3  64  49  37
   3  64  49  50
   3  64  50  43
   3  64  50  49
   3  64  43  32
   3  64  43  50
   3  64  32  37
   3  64  32  43
   3  65   3  26
   4  65   3   4  66
   3  65  26  45
   3  65  26   3
   3  65  45  26
   4  65  45  46  66
   3  66   4  27
   4  66   4   3  65
   3  66  46  27
   4  66  46  45  65
   3  66  27   4
   3  66  27  46
   3  67  51  49
   3  67  51  44
   3  67  49  63
   3  67  49  51
   3  67  63  31
   3  67  63  49
   3  67  31  44
   3  67  31  63
   3  67  44  31
   3  67  44  51
   3  68   5  36
   3  68   5   8
   3  68  36  40
   3  68  36   5
   3  68  40  33
   3  68  40  36
   3  68  33   8
   3  68  33  40
   3  68   8   5
   3  68   8  33
   3  69  30  41
   3  69  30  39
   3  69  41  55
   3  69  41  30
   3  69  55  53
   3  69  55  41
   3  69  53  39
   3  69  53  55
   3  69  39  30
   3  69  39  53
   3  70  52  40
   3  70  52  55
   3  70  55  52
   3  70  55  42
   3  70  42  55
   3  70  42  29
   3  70  29  40
   3  70  29  42
   3  70  40  29
   3  70  40  52
   3  71  20  48
   3  71  20  24
   3  71  48  57
   3  71  48  20
   3  71  57  24
   3  71  57  48
   3  71  24  20
   3  71  24  57
   3  72  58  54
   3  72  58  25
   3  72  54  58
   3  72  54  21
   3  72  21  25
   3  72  21  54
   3  72  25  58
   3  72  25  21
   3  73  50  43
   3  73  50  55
   3  73  55  52
   3  73  55  50
   3  73  52  43
   3  73  52  55
   3  73  43  50
   3  73  43  52
   3  74  53  44
   3  74  53  55
   3  74  55  51
   3  74  55  53
   3  74  51  44
   3  74  51  55
   3  74  44  53
   3  74  44  51
