# Generated by dad_to_polygons. Vertex data from Humppa's .off file,
# polygons parsed from .dad file.
COFF
7 12 7
-1.357189 0.520855 1.386104 0.500000 0.500000 0.500000 1.0
-1.357189 -0.520855 1.386104 0.500000 0.500000 0.500000 1.0
-0.000282 -1.039757 1.385097 0.500000 0.500000 0.500000 1.0
1.450519 -0.521006 1.386250 0.500000 0.500000 0.500000 1.0
1.450519 0.521006 1.386250 0.500000 0.500000 0.500000 1.0
-0.000282 1.039757 1.385097 0.500000 0.500000 0.500000 1.0
0.001401 -0.000000 1.038258 1.0 1.0 0.0 1.0
3 1 2 6
3 1 6 2
3 3 2 6
3 3 6 2
3 3 6 4
3 3 4 6
3 4 5 6
3 4 6 5
3 6 0 5
3 6 5 0
3 6 1 0
3 6 0 1
