# Generated by dad_to_polygons. Vertex data from Humppa's .off file,
# polygons parsed from .dad file.
COFF
85 280 85
-6.362287 0.892988 4.995432 0.500000 0.500000 0.500000 1.0
-6.362287 -0.892988 4.995432 0.500000 0.500000 0.500000 1.0
-0.029038 -1.929505 4.662295 0.500000 0.500000 0.500000 1.0
7.266713 -0.862855 5.051244 0.500000 0.500000 0.500000 1.0
7.266713 0.862855 5.051244 0.500000 0.500000 0.500000 1.0
-0.029038 1.929505 4.662295 0.500000 0.500000 0.500000 1.0
1.075088 -1.608308 4.807657 0.500000 0.500000 0.500000 1.0
1.075088 1.608308 4.807657 0.500000 0.500000 0.500000 1.0
-1.106343 1.587371 4.782354 0.500000 0.500000 0.500000 1.0
-1.106343 -1.587371 4.782354 0.500000 0.500000 0.500000 1.0
1.995001 -1.294301 5.043407 0.500000 0.500000 0.500000 1.0
1.995001 1.294301 5.043407 0.500000 0.500000 0.500000 1.0
-2.029447 1.292646 5.029162 0.500000 0.500000 0.500000 1.0
-2.029447 -1.292646 5.029162 0.500000 0.500000 0.500000 1.0
3.059247 -1.325763 4.923422 0.500000 0.500000 0.500000 1.0
3.059247 1.325763 4.923422 0.500000 0.500000 0.500000 1.0
-3.021344 1.289905 4.905091 0.500000 0.500000 0.500000 1.0
-3.021344 -1.289905 4.905091 0.500000 0.500000 0.500000 1.0
4.072758 -1.281066 4.979048 0.500000 0.500000 0.500000 1.0
4.072758 1.281066 4.979048 0.500000 0.500000 0.500000 1.0
-4.019644 1.227900 4.948421 0.500000 0.500000 0.500000 1.0
-4.019644 -1.227900 4.948421 0.500000 0.500000 0.500000 1.0
5.056313 -1.106799 5.001935 0.500000 0.500000 0.500000 1.0
5.056313 1.106799 5.001935 0.500000 0.500000 0.500000 1.0
-5.013435 1.084515 4.965907 0.500000 0.500000 0.500000 1.0
-5.013435 -1.084515 4.965907 0.500000 0.500000 0.500000 1.0
6.060020 -0.996063 5.025684 0.500000 0.500000 0.500000 1.0
6.060020 0.996063 5.025684 0.500000 0.500000 0.500000 1.0
-1.019029 -1.549558 3.879813 0.500000 0.500000 0.500000 1.0
-1.794534 0.767961 2.836380 0.500000 0.500000 0.500000 1.0
-1.794534 -0.767961 2.836380 0.500000 0.500000 0.500000 1.0
0.934972 -1.549788 3.645541 0.500000 0.500000 0.500000 1.0
0.934972 1.549788 3.645541 0.500000 0.500000 0.500000 1.0
-2.161933 1.224008 3.902773 0.500000 0.500000 0.500000 1.0
-2.161933 -1.224008 3.902773 0.500000 0.500000 0.500000 1.0
0.027582 -1.661763 3.482346 0.500000 0.500000 0.500000 1.0
0.027582 1.661763 3.482346 0.500000 0.500000 0.500000 1.0
2.147337 1.209695 3.987327 0.500000 0.500000 0.500000 1.0
3.563381 -0.618819 2.860470 1.0 1.0 0.0 1.0
-0.700624 -1.516067 3.011606 0.500000 0.500000 0.500000 1.0
-0.700624 1.516067 3.011606 0.500000 0.500000 0.500000 1.0
-1.436347 -0.703534 1.697868 0.500000 0.500000 0.500000 1.0
-1.436347 0.703534 1.697868 0.500000 0.500000 0.500000 1.0
0.852195 1.488541 2.618713 0.500000 0.500000 0.500000 1.0
0.852195 -1.488541 2.618713 0.500000 0.500000 0.500000 1.0
5.417761 -0.977359 4.169711 0.500000 0.500000 0.500000 1.0
5.417761 0.977359 4.169711 0.500000 0.500000 0.500000 1.0
3.563381 0.618819 2.860470 1.0 1.0 0.0 1.0
-3.563383 0.659368 3.137518 1.0 1.0 0.0 1.0
1.910268 0.000000 3.094480 0.500000 0.500000 0.500000 1.0
1.263576 1.071975 2.360910 0.500000 0.500000 0.500000 1.0
1.263576 -1.071975 2.360910 0.500000 0.500000 0.500000 1.0
0.085182 1.505512 2.531746 0.500000 0.500000 0.500000 1.0
0.085182 -1.505512 2.531746 0.500000 0.500000 0.500000 1.0
-3.563383 -0.659368 3.137518 1.0 1.0 0.0 1.0
0.052102 -0.000000 1.038258 1.0 1.0 0.0 1.0
1.499553 0.000001 2.224067 0.500000 0.500000 0.500000 1.0
-5.139703 0.916276 4.125844 0.500000 0.500000 0.500000 1.0
-5.139703 -0.916276 4.125844 0.500000 0.500000 0.500000 1.0
4.555917 -1.195491 4.338830 0.500000 0.500000 0.500000 1.0
4.555917 1.195491 4.338830 0.500000 0.500000 0.500000 1.0
-2.161883 0.000000 3.671413 0.500000 0.500000 0.500000 1.0
2.147448 -0.000000 3.733591 0.500000 0.500000 0.500000 1.0
2.147337 -1.209695 3.987327 0.500000 0.500000 0.500000 1.0
1.421801 1.383405 3.289461 0.500000 0.500000 0.500000 1.0
6.477276 -0.880652 4.549081 0.500000 0.500000 0.500000 1.0
6.477276 0.880652 4.549081 0.500000 0.500000 0.500000 1.0
1.421801 -1.383405 3.289461 0.500000 0.500000 0.500000 1.0
-1.019029 1.549558 3.879813 0.500000 0.500000 0.500000 1.0
-0.423385 -1.248403 2.213355 0.500000 0.500000 0.500000 1.0
-0.423385 1.248403 2.213355 0.500000 0.500000 0.500000 1.0
-4.307145 1.070486 4.206267 0.500000 0.500000 0.500000 1.0
-4.307145 -1.070486 4.206267 0.500000 0.500000 0.500000 1.0
0.642626 1.023635 1.801341 0.500000 0.500000 0.500000 1.0
0.642626 -1.023635 1.801341 0.500000 0.500000 0.500000 1.0
4.925115 -0.768530 3.362442 0.500000 0.500000 0.500000 1.0
4.925115 0.768530 3.362442 0.500000 0.500000 0.500000 1.0
3.900639 -1.109608 4.012234 0.500000 0.500000 0.500000 1.0
3.900639 1.109608 4.012234 0.500000 0.500000 0.500000 1.0
3.301485 -1.096180 3.886125 0.500000 0.500000 0.500000 1.0
3.301485 1.096180 3.886125 0.500000 0.500000 0.500000 1.0
0.009869 0.922483 1.757246 0.500000 0.500000 0.500000 1.0
0.009869 -0.922483 1.757246 0.500000 0.500000 0.500000 1.0
0.828810 0.586576 1.667965 0.500000 0.500000 0.500000 1.0
0.828810 -0.586576 1.667965 0.500000 0.500000 0.500000 1.0
3 0 1 58
3 0 58 1
3 0 58 57
3 0 57 58
3 1 58 25
3 1 25 58
3 2 28 35
3 2 35 28
3 2 31 6
3 2 6 31
3 2 35 31
3 2 31 35
3 4 3 65
3 4 65 3
3 4 65 66
3 4 66 65
3 4 66 27
3 4 27 66
3 5 7 32
3 5 32 7
3 8 12 33
3 8 33 12
3 8 68 5
3 8 5 68
3 8 68 33
3 8 33 68
3 9 2 28
3 9 28 2
3 10 63 6
3 10 6 63
3 11 15 37
3 11 37 15
3 11 37 7
3 11 7 37
3 12 33 16
3 12 16 33
3 13 17 34
3 13 34 17
3 14 18 77
3 14 77 18
3 14 77 79
3 14 79 77
3 14 79 63
3 14 63 79
3 15 37 80
3 15 80 37
3 16 48 20
3 16 20 48
3 18 22 59
3 18 59 22
3 18 77 59
3 18 59 77
3 19 23 60
3 19 60 23
3 19 78 15
3 19 15 78
3 20 24 71
3 20 71 24
3 21 72 54
3 21 54 72
3 22 59 45
3 22 45 59
3 23 46 60
3 23 60 46
3 24 0 57
3 24 57 0
3 26 22 45
3 26 45 22
3 26 45 65
3 26 65 45
3 27 23 46
3 27 46 23
3 29 40 33
3 29 33 40
3 29 70 40
3 29 40 70
3 30 29 42
3 30 42 29
3 30 29 61
3 30 61 29
3 30 34 61
3 30 61 34
3 30 39 34
3 30 34 39
3 30 39 69
3 30 69 39
3 30 42 41
3 30 41 42
3 31 44 35
3 31 35 44
3 31 67 44
3 31 44 67
3 32 5 36
3 32 36 5
3 32 43 36
3 32 36 43
3 32 64 43
3 32 43 64
3 33 48 16
3 33 16 48
3 33 61 48
3 33 48 61
3 34 9 28
3 34 28 9
3 34 13 9
3 34 9 13
3 34 28 39
3 34 39 28
3 35 39 28
3 35 28 39
3 35 53 44
3 35 44 53
3 36 68 40
3 36 40 68
3 37 32 7
3 37 7 32
3 37 49 64
3 37 64 49
3 37 62 47
3 37 47 62
3 37 64 32
3 37 32 64
3 38 47 62
3 38 62 47
3 38 75 76
3 38 76 75
3 38 76 47
3 38 47 76
3 38 79 63
3 38 63 79
3 38 79 77
3 38 77 79
3 39 35 53
3 39 53 35
3 40 36 52
3 40 52 36
3 40 68 33
3 40 33 68
3 41 30 69
3 41 69 30
3 41 55 42
3 41 42 55
3 43 36 52
3 43 52 36
3 43 50 73
3 43 73 50
3 43 64 50
3 43 50 64
3 43 73 52
3 43 52 73
3 44 53 74
3 44 74 53
3 45 46 66
3 45 66 46
3 45 66 65
3 45 65 66
3 45 75 76
3 45 76 75
3 45 76 46
3 45 46 76
3 46 27 66
3 46 66 27
3 47 37 80
3 47 80 37
3 47 60 78
3 47 78 60
3 47 78 80
3 47 80 78
3 48 20 71
3 48 71 20
3 48 57 58
3 48 58 57
3 48 58 54
3 48 54 58
3 49 37 62
3 49 62 37
3 49 50 56
3 49 56 50
3 49 51 67
3 49 67 51
3 49 56 51
3 49 51 56
3 49 63 67
3 49 67 63
3 49 64 50
3 49 50 64
3 51 44 74
3 51 74 44
3 52 70 40
3 52 40 70
3 52 73 81
3 52 81 73
3 52 81 70
3 52 70 81
3 53 69 39
3 53 39 69
3 53 82 74
3 53 74 82
3 54 17 34
3 54 34 17
3 54 21 17
3 54 17 21
3 54 58 72
3 54 72 58
3 54 61 48
3 54 48 61
3 55 56 83
3 55 83 56
3 55 70 81
3 55 81 70
3 55 73 81
3 55 81 73
3 55 73 83
3 55 83 73
3 55 74 84
3 55 84 74
3 55 82 69
3 55 69 82
3 55 82 74
3 55 74 82
3 55 84 56
3 55 56 84
3 56 84 51
3 56 51 84
3 59 45 75
3 59 75 45
3 59 75 38
3 59 38 75
3 59 77 38
3 59 38 77
3 60 46 76
3 60 76 46
3 60 76 47
3 60 47 76
3 60 78 19
3 60 19 78
3 61 33 29
3 61 29 33
3 61 54 34
3 61 34 54
3 62 38 63
3 62 63 38
3 63 10 14
3 63 14 10
3 63 31 6
3 63 6 31
3 63 49 62
3 63 62 49
3 63 67 31
3 63 31 67
3 65 3 26
3 65 26 3
3 67 51 44
3 67 44 51
3 68 5 36
3 68 36 5
3 69 41 55
3 69 55 41
3 69 82 53
3 69 53 82
3 70 42 29
3 70 29 42
3 70 55 42
3 70 42 55
3 71 24 57
3 71 57 24
3 71 48 57
3 71 57 48
3 72 25 21
3 72 21 25
3 72 25 58
3 72 58 25
3 73 83 50
3 73 50 83
3 78 80 15
3 78 15 80
3 83 56 50
3 83 50 56
3 84 51 74
3 84 74 51
