 COFF
          99         974          99
  
  -6.4173679129203958       0.94018734768543410        5.3323876385571474       0.60000002384185791       0.60000002384185791       0.60000002384185791       0.80000001192092896     
  -6.4173679129204864      -0.94018734768550760        5.3323876385570372       0.60000002384185791       0.60000002384185791       0.60000002384185791       0.80000001192092896     
  -2.9890056983670189E-002  -1.9975878289517948        4.9965716019535531       0.60000002384185791       0.60000002384185791       0.60000002384185791       0.80000001192092896     
   7.3013504453009741      -0.89138971924365851        5.4205619119946062       0.60000002384185791       0.60000002384185791       0.60000002384185791       0.80000001192092896     
   7.3013504453002378       0.89138971924369803        5.4205619119940991       0.60000002384185791       0.60000002384185791       0.60000002384185791       0.80000001192092896     
  -2.9890057013462996E-002   1.9975878308390220        4.9965716000580676       0.60000002384185791       0.60000002384185791       0.60000002384185791       0.80000001192092896     
   1.0913877678598420       -1.6785410818635969        5.1389374735096842       0.60000002384185791       0.60000002384185791       0.60000002384185791       0.80000001192092896     
   1.0913877681056456        1.6785410825461013        5.1389374727876334       0.60000002384185791       0.60000002384185791       0.60000002384185791       0.80000001192092896     
  -1.1196829285698697        1.6575202219378999        5.1137782517091335       0.60000002384185791       0.60000002384185791       0.60000002384185791       0.80000001192092896     
  -1.1196829286347689       -1.6575202222234606        5.1137782514166670       0.60000002384185791       0.60000002384185791       0.60000002384185791       0.80000001192092896     
   2.0107705825045796       -1.3659254958557683        5.3786319395790079       0.60000002384185791       0.60000002384185791       0.60000002384185791       0.80000001192092896     
   2.0107705825471291        1.3659254962220686        5.3786319392098845       0.60000002384185791       0.60000002384185791       0.60000002384185791       0.80000001192092896     
  -2.0434038146046354        1.3665250180040749        5.3626368329038172       0.60000002384185791       0.60000002384185791       0.60000002384185791       0.80000001192092896     
  -2.0434038146178994       -1.3665250182089674        5.3626368326994163       0.60000002384185791       0.60000002384185791       0.60000002384185791       0.80000001192092896     
   3.0594310140082444       -1.4217506166173701        5.2322433058761542       0.60000002384185791       0.60000002384185791       0.60000002384185791       0.80000001192092896     
   3.0594310140105674        1.4217506168435763        5.2322433056501279       0.60000002384185791       0.60000002384185791       0.60000002384185791       0.80000001192092896     
  -3.0288970303740594        1.4007176010662774        5.1988178247706163       0.60000002384185791       0.60000002384185791       0.60000002384185791       0.80000001192092896     
  -3.0288970303966147       -1.4007176012020299        5.1988178246324663       0.60000002384185791       0.60000002384185791       0.60000002384185791       0.80000001192092896     
   4.0862664504805490       -1.3723673908753411        5.3005255235829116       0.60000002384185791       0.60000002384185791       0.60000002384185791       0.80000001192092896     
   4.0862664504831496        1.3723673908847567        5.3005255235733530       0.60000002384185791       0.60000002384185791       0.60000002384185791       0.80000001192092896     
  -4.0443277448709667        1.3410591377159600        5.2692841431976172       0.60000002384185791       0.60000002384185791       0.60000002384185791       0.80000001192092896     
  -4.0443277449013495       -1.3410591377232119        5.2692841431865105       0.60000002384185791       0.60000002384185791       0.60000002384185791       0.80000001192092896     
   5.0697507950350751       -1.1832616876198483        5.3322150137991029       0.60000002384185791       0.60000002384185791       0.60000002384185791       0.80000001192092896     
   5.0697507950351266        1.1832616876198596        5.3322150137990763       0.60000002384185791       0.60000002384185791       0.60000002384185791       0.80000001192092896     
  -5.0295568883197417        1.1694817364486592        5.2872015466623239       0.60000002384185791       0.60000002384185791       0.60000002384185791       0.80000001192092896     
  -5.0295568883384121       -1.1694817364461993        5.2872015466619029       0.60000002384185791       0.60000002384185791       0.60000002384185791       0.80000001192092896     
   6.0670610410180457       -1.0541797186841153        5.3768812614064228       0.60000002384185791       0.60000002384185791       0.60000002384185791       0.80000001192092896     
   6.0670610410180403        1.0541797186840636        5.3768812614064680       0.60000002384185791       0.60000002384185791       0.60000002384185791       0.80000001192092896     
 -0.98137954309918174       -1.6231437256845656        4.1765064105762963       0.60000002384185791       0.60000002384185791       0.60000002384185791       0.80000001192092896     
  -1.8099290716093530       0.81652341511576820        3.0946293792971620       0.60000002384185791       0.60000002384185791       0.60000002384185791       0.80000001192092896     
  -1.8099291552570527      -0.81652302608253768        3.0946292228437304       0.60000002384185791       0.60000002384185791       0.60000002384185791       0.80000001192092896     
  0.90587274813180763       -1.6256347632794430        3.9213533350610081       0.60000002384185791       0.60000002384185791       0.60000002384185791       0.80000001192092896     
  0.90587283408130315        1.6256347904554918        3.9213533644041290       0.60000002384185791       0.60000002384185791       0.60000002384185791       0.80000001192092896     
  -2.1609887216452104        1.3017366231474921        4.1820545005278040       0.60000002384185791       0.60000002384185791       0.60000002384185791       0.80000001192092896     
  -2.1609887077362173       -1.3017366359244595        4.1820544648602542       0.60000002384185791       0.60000002384185791       0.60000002384185791       0.80000001192092896     
   3.7558385225652142E-002  -1.7292216552943522        3.7706652454568323       0.60000002384185791       0.60000002384185791       0.60000002384185791       0.80000001192092896     
   3.7591926368625170E-002   1.7291927368298829        3.7706651880875675       0.60000002384185791       0.60000002384185791       0.60000002384185791       0.80000001192092896     
   2.0979997642108992        1.2964709167913737        4.3369157961473066       0.60000002384185791       0.60000002384185791       0.60000002384185791       0.80000001192092896     
   3.5602478391041719      -0.61876946836737656        2.8604699335027806        1.0000000000000000        1.0000000000000000        0.0000000000000000        1.0000000000000000     
 -0.73082159946809566       -1.5882426479057719        3.2961171339722175       0.60000002384185791       0.60000002384185791       0.60000002384185791       0.80000001192092896     
 -0.73082180394377927        1.5882437992743721        3.2961170451329744       0.60000002384185791       0.60000002384185791       0.60000002384185791       0.80000001192092896     
  -1.4012243698918350      -0.81056525913433253        1.8390413285509120       0.60000002384185791       0.60000002384185791       0.60000002384185791       0.80000001192092896     
  -1.4012242576528942       0.81056535267885210        1.8390413744541154       0.60000002384185791       0.60000002384185791       0.60000002384185791       0.80000001192092896     
  0.84027051153797683        1.5898726222148627        2.9144169808009757       0.60000002384185791       0.60000002384185791       0.60000002384185791       0.80000001192092896     
  0.84012578773315838       -1.5895648962443341        2.9144172226645879       0.60000002384185791       0.60000002384185791       0.60000002384185791       0.80000001192092896     
   5.4738309915128669       -1.0756879327565660        4.4900225885690377       0.60000002384185791       0.60000002384185791       0.60000002384185791       0.80000001192092896     
   5.4738309915299297        1.0756879328485591        4.4900225885412803       0.60000002384185791       0.60000002384185791       0.60000002384185791       0.80000001192092896     
   3.5602478386490168       0.61876946459157467        2.8604699335027806        1.0000000000000000        1.0000000000000000        0.0000000000000000        1.0000000000000000     
  -3.5490927240566932       0.65933362823106734        3.1375182682895115        1.0000000000000000        1.0000000000000000        0.0000000000000000        1.0000000000000000     
   1.8777163720929488       -1.5595312277409490E-007   3.3658658143544029       0.60000002384185791       0.60000002384185791       0.60000002384185791       0.80000001192092896     
   1.2600570809098197        1.1615003767603664        2.6455545071121747       0.60000002384185791       0.60000002384185791       0.60000002384185791       0.80000001192092896     
   1.2600570210692603       -1.1615010999435962        2.6455541630249506       0.60000002384185791       0.60000002384185791       0.60000002384185791       0.80000001192092896     
  0.11681133354157297        1.6169052430143298        2.7791982077996900       0.60000002384185791       0.60000002384185791       0.60000002384185791       0.80000001192092896     
  0.11680968368471420       -1.6169052345699220        2.7791983549019372       0.60000002384185791       0.60000002384185791       0.60000002384185791       0.80000001192092896     
  -3.5490927237435526      -0.65933362825005792        3.1375182682895115        1.0000000000000000        1.0000000000000000        0.0000000000000000        1.0000000000000000     
   6.9072748113325214E-002  -1.4518113123923451E-008   1.0382578837327854        1.0000000000000000        1.0000000000000000        0.0000000000000000        1.0000000000000000     
   1.4898748222872207        9.9438353589551214E-008   2.4284761991576089       0.60000002384185791       0.60000002384185791       0.60000002384185791       0.80000001192092896     
  -5.1774599816887417        1.0046779846903728        4.3913701553774125       0.60000002384185791       0.60000002384185791       0.60000002384185791       0.80000001192092896     
  -5.1774599815394886       -1.0046779847313261        4.3913701554100752       0.60000002384185791       0.60000002384185791       0.60000002384185791       0.80000001192092896     
   4.5661471814937071       -1.2800289446575743        4.6618710387002258       0.60000002384185791       0.60000002384185791       0.60000002384185791       0.80000001192092896     
   4.5661471784200023        1.2800289500903539        4.6618710386900135       0.60000002384185791       0.60000002384185791       0.60000002384185791       0.80000001192092896     
  -2.1696216919721989       -1.0159607884404681E-008   3.8475765500914059       0.60000002384185791       0.60000002384185791       0.60000002384185791       0.80000001192092896     
   2.0977188839936609       -1.2753449353668420E-007   3.9272127046766356       0.60000002384185791       0.60000002384185791       0.60000002384185791       0.80000001192092896     
   2.0979997179123528       -1.2964709556054066        4.3369157275987549       0.60000002384185791       0.60000002384185791       0.60000002384185791       0.80000001192092896     
   1.3849447381951396        1.4536838456968149        3.6011371271338231       0.60000002384185791       0.60000002384185791       0.60000002384185791       0.80000001192092896     
   6.5479564234087722      -0.93511942996152120        4.8939513427574335       0.60000002384185791       0.60000002384185791       0.60000002384185791       0.80000001192092896     
   6.5479564234079124       0.93511942996009623        4.8939513427567860       0.60000002384185791       0.60000002384185791       0.60000002384185791       0.80000001192092896     
   1.3849452684722392       -1.4536836805834876        3.6011365676234988       0.60000002384185791       0.60000002384185791       0.60000002384185791       0.80000001192092896     
 -0.98137946199165627        1.6231438416534163        4.1765064169562995       0.60000002384185791       0.60000002384185791       0.60000002384185791       0.80000001192092896     
 -0.50197045235513804       -1.4165231983982560        2.4937129335477839       0.60000002384185791       0.60000002384185791       0.60000002384185791       0.80000001192092896     
 -0.50197030725745440        1.4165233243781292        2.4937128734628633       0.60000002384185791       0.60000002384185791       0.60000002384185791       0.80000001192092896     
  -4.3740501377650496        1.2300601970559875        4.5644662496231767       0.60000002384185791       0.60000002384185791       0.60000002384185791       0.80000001192092896     
  -4.3740501374952334       -1.2300601969520772        4.5644662493636572       0.60000002384185791       0.60000002384185791       0.60000002384185791       0.80000001192092896     
  0.73882921799072487        1.2537437799898012        1.9978060347967663       0.60000002384185791       0.60000002384185791       0.60000002384185791       0.80000001192092896     
  0.73882840444423437       -1.2537445451082438        1.9978062715014877       0.60000002384185791       0.60000002384185791       0.60000002384185791       0.80000001192092896     
   5.1094596015253400      -0.74355971679902189        3.5180024695563392       0.60000002384185791       0.60000002384185791       0.60000002384185791       0.80000001192092896     
   5.1094596055414954       0.74355971624369677        3.5180024689469529       0.60000002384185791       0.60000002384185791       0.60000002384185791       0.80000001192092896     
   3.9842006394868448       -1.2621976941585891        4.2657667043084180       0.60000002384185791       0.60000002384185791       0.60000002384185791       0.80000001192092896     
   3.9842006389920419        1.2621976942975037        4.2657667036492972       0.60000002384185791       0.60000002384185791       0.60000002384185791       0.80000001192092896     
   3.2370431713385153       -1.2660451907331844        4.1030510812851331       0.60000002384185791       0.60000002384185791       0.60000002384185791       0.80000001192092896     
   3.2370432026023450        1.2660451827432839        4.1030510728176761       0.60000002384185791       0.60000002384185791       0.60000002384185791       0.80000001192092896     
   5.1512323979473425E-002   1.2289400548343934        1.9116455826846730       0.60000002384185791       0.60000002384185791       0.60000002384185791       0.80000001192092896     
   5.1511883814012165E-002  -1.2289401989128426        1.9116456684171801       0.60000002384185791       0.60000002384185791       0.60000002384185791       0.80000001192092896     
   1.0556214339988432       0.79037539033746729        1.8346566385547356       0.60000002384185791       0.60000002384185791       0.60000002384185791       0.80000001192092896     
   1.0556213603504656      -0.79037569074139025        1.8346568873972384       0.60000002384185791       0.60000002384185791       0.60000002384185791       0.80000001192092896     
  -3.8647042992976597        1.1788896014358716        4.3038436271373532       0.60000002384185791       0.60000002384185791       0.60000002384185791       0.80000001192092896     
  -3.8647042992445026       -1.1788896014702830        4.3038436270994032       0.60000002384185791       0.60000002384185791       0.60000002384185791       0.80000001192092896     
  -3.3020399262269930        1.1407926977851848        4.1362390619470792       0.60000002384185791       0.60000002384185791       0.60000002384185791       0.80000001192092896     
  -3.3020399022235196       -1.1407927020414297        4.1362390624831225       0.60000002384185791       0.60000002384185791       0.60000002384185791       0.80000001192092896     
   5.7017198698567633       -1.5189647830086330E-012   4.3177609896477893       0.60000002384185791       0.60000002384185791       0.60000002384185791       0.80000001192092896     
   2.6964975899997148       0.95059510227561628        3.6014660172770627       0.60000002384185791       0.60000002384185791       0.60000002384185791       0.80000001192092896     
   2.6964977027030321      -0.95059525326512162        3.6014659485546221       0.60000002384185791       0.60000002384185791       0.60000002384185791       0.80000001192092896     
   4.1714238714266747       -1.0553922191514069        3.7829438715745365       0.60000002384185791       0.60000002384185791       0.60000002384185791       0.80000001192092896     
   4.1714238748503210        1.0553922184342341        3.7829438693566426       0.60000002384185791       0.60000002384185791       0.60000002384185791       0.80000001192092896     
  -4.5940077564116502       0.80960369359932627        3.7118003013689171       0.60000002384185791       0.60000002384185791       0.60000002384185791       0.80000001192092896     
  -4.5940077558349390      -0.80960369374919139        3.7118003013692871       0.60000002384185791       0.60000002384185791       0.60000002384185791       0.80000001192092896     
 -0.23944707842481133      -0.80812094604661078        1.7185467851835898       0.60000002384185791       0.60000002384185791       0.60000002384185791       0.80000001192092896     
 -0.23944692309323806       0.80812104116388750        1.7185466959453459       0.60000002384185791       0.60000002384185791       0.60000002384185791       0.80000001192092896     
  -5.1943265688468871       -1.0259491430499744E-012   4.3850323117316288       0.60000002384185791       0.60000002384185791       0.60000002384185791       0.80000001192092896     
  
   3   0  24  57
   3   0  57  24
   3   0  57  98
   3   0  98   1
   3   0  98  57
   3   0   1  98
   3   1   0  98
   3   1  98  58
   3   1  98   0
   3   1  58  98
   3   1  58  25
   3   1  25  58
   3   2  35  28
   3   2  35  31
   3   2  31  35
   3   2  31   6
   3   2   6  31
   3   2   9  28
   3   2  28  35
   3   2  28   9
   3   3  26  65
   3   3  65  26
   4   3  65  66   4
   3   4  66  27
   4   4  66  65   3
   3   4  27  66
   3   5   7  32
   3   5  32  36
   3   5  32   7
   3   5  36  32
   3   5  36  68
   3   5  68  36
   3   5  68   8
   3   5   8  68
   3   6   2  31
   3   6  31   2
   3   6  31  63
   3   6  63  10
   3   6  63  31
   3   6  10  63
   3   7  11  37
   3   7  37  32
   3   7  37  11
   3   7  32  37
   3   7  32   5
   3   7   5  32
   3   8   5  68
   3   8  68   5
   3   8  68  33
   3   8  33  12
   3   8  33  68
   3   8  12  33
   3   9  13  34
   3   9  34  28
   3   9  34  13
   3   9  28  34
   3   9  28   2
   3   9   2  28
   3  10   6  63
   3  10  63  14
   3  10  63   6
   3  10  14  63
   3  11  15  37
   3  11  37   7
   3  11  37  15
   3  11   7  37
   3  12   8  33
   3  12  33  16
   3  12  33   8
   3  12  16  33
   3  13  17  34
   3  13  34   9
   3  13  34  17
   3  13   9  34
   3  14  10  63
   3  14  63  79
   3  14  63  10
   3  14  79  63
   3  14  79  77
   3  14  77  79
   3  14  77  18
   3  14  18  77
   3  15  19  78
   3  15  78  80
   3  15  78  19
   3  15  80  78
   3  15  80  37
   3  15  37  11
   3  15  37  80
   3  15  11  37
   3  16  12  33
   3  16  33  87
   3  16  33  12
   3  16  87  33
   3  16  87  85
   3  16  85  87
   3  16  85  20
   3  16  20  85
   3  17  21  86
   3  17  86  88
   3  17  86  21
   3  17  88  86
   3  17  88  34
   3  17  34  13
   3  17  34  88
   3  17  13  34
   3  18  14  77
   3  18  77  14
   3  18  77  59
   3  18  59  77
   3  18  59  22
   3  18  22  59
   3  19  23  60
   3  19  60  78
   3  19  60  23
   3  19  78  60
   3  19  78  15
   3  19  15  78
   3  20  16  85
   3  20  85  16
   3  20  85  71
   3  20  71  85
   3  20  71  24
   3  20  24  71
   3  21  25  72
   3  21  72  86
   3  21  72  25
   3  21  86  72
   3  21  86  17
   3  21  17  86
   3  22  18  59
   3  22  59  18
   3  22  59  45
   3  22  45  26
   3  22  45  59
   3  22  26  45
   3  23  27  46
   3  23  46  60
   3  23  46  27
   3  23  60  46
   3  23  60  19
   3  23  19  60
   3  24  20  71
   3  24  71  20
   3  24  71  57
   3  24  57   0
   3  24  57  71
   3  24   0  57
   3  25   1  58
   3  25  58   1
   3  25  58  72
   3  25  72  58
   3  25  72  21
   3  25  21  72
   3  26  22  45
   3  26  45  65
   3  26  45  22
   3  26  65   3
   3  26  65  45
   3  26   3  65
   3  27   4  66
   3  27  66   4
   3  27  66  46
   3  27  46  66
   3  27  46  23
   3  27  23  46
   3  28  34  39
   3  28  34   9
   3  28  39  35
   3  28  39  34
   3  28  35  39
   3  28  35   2
   3  28   2  35
   3  28   2   9
   3  28   9  34
   3  28   9   2
   3  29  33  40
   3  29  33  61
   3  29  40  33
   3  29  40  70
   3  29  70  42
   3  29  70  40
   3  29  42  70
   4  29  42  41  30
   3  29  30  61
   4  29  30  41  42
   3  29  61  30
   3  29  61  33
   3  30  34  61
   3  30  34  39
   3  30  61  29
   3  30  61  34
   3  30  29  61
   4  30  29  42  41
   3  30  41  69
   4  30  41  42  29
   3  30  69  41
   3  30  69  39
   3  30  39  34
   3  30  39  69
   3  31   2  35
   3  31   2   6
   3  31  35  44
   3  31  35   2
   3  31  44  67
   3  31  44  35
   3  31  67  63
   3  31  67  44
   3  31  63   6
   3  31  63  67
   3  31   6   2
   3  31   6  63
   3  32  37  64
   3  32  37   7
   3  32  64  37
   3  32  64  43
   3  32  43  36
   3  32  43  64
   3  32  36  43
   3  32  36   5
   3  32   5   7
   3  32   5  36
   3  32   7  37
   3  32   7   5
   3  33  48  87
   3  33  48  61
   3  33  87  48
   3  33  87  16
   3  33  16  12
   3  33  16  87
   3  33  12   8
   3  33  12  16
   3  33   8  68
   3  33   8  12
   3  33  68  40
   3  33  68   8
   3  33  40  29
   3  33  40  68
   3  33  29  40
   3  33  29  61
   3  33  61  29
   3  33  61  48
   3  34  54  61
   3  34  54  88
   3  34  61  30
   3  34  61  54
   3  34  30  61
   3  34  30  39
   3  34  39  28
   3  34  39  30
   3  34  28  39
   3  34  28   9
   3  34   9  13
   3  34   9  28
   3  34  13  17
   3  34  13   9
   3  34  17  88
   3  34  17  13
   3  34  88  54
   3  34  88  17
   3  35  28  39
   3  35  28   2
   3  35  39  28
   3  35  39  53
   3  35  53  44
   3  35  53  39
   3  35  44  31
   3  35  44  53
   3  35  31   2
   3  35  31  44
   3  35   2  31
   3  35   2  28
   3  36  32  43
   3  36  32   5
   3  36  43  32
   3  36  43  52
   3  36  52  40
   3  36  52  43
   3  36  40  68
   3  36  40  52
   3  36  68   5
   3  36  68  40
   3  36   5  32
   3  36   5  68
   3  37  90  80
   3  37  90  62
   3  37  62  49
   3  37  62  90
   3  37  49  62
   3  37  49  64
   3  37  64  49
   3  37  64  32
   3  37  32  64
   3  37  32   7
   3  37   7  11
   3  37   7  32
   3  37  11  15
   3  37  11   7
   3  37  15  80
   3  37  15  11
   3  37  80  90
   3  37  80  15
   3  38  75  92
   4  38  75  76  47
   3  38  92  75
   3  38  92  77
   3  38  77  79
   3  38  77  92
   3  38  79  91
   3  38  79  77
   3  38  91  79
   3  38  91  62
   3  38  62  47
   3  38  62  91
   3  38  47  62
   4  38  47  76  75
   3  39  35  28
   3  39  35  53
   3  39  28  34
   3  39  28  35
   3  39  34  30
   3  39  34  28
   3  39  30  34
   3  39  30  69
   3  39  69  30
   3  39  69  53
   3  39  53  35
   3  39  53  69
   3  40  29  33
   3  40  29  70
   3  40  33  68
   3  40  33  29
   3  40  68  36
   3  40  68  33
   3  40  36  52
   3  40  36  68
   3  40  52  36
   3  40  52  70
   3  40  70  52
   3  40  70  29
   3  41  55  96
   3  41  55  42
   3  41  96  69
   3  41  96  55
   3  41  69  30
   3  41  69  96
   3  41  30  69
   4  41  30  29  42
   3  41  42  55
   4  41  42  29  30
   3  42  55  41
   3  42  55  97
   3  42  41  55
   4  42  41  30  29
   3  42  29  70
   4  42  29  30  41
   3  42  70  97
   3  42  70  29
   3  42  97  70
   3  42  97  55
   3  43  36  32
   3  43  36  52
   3  43  32  64
   3  43  32  36
   3  43  64  50
   3  43  64  32
   3  43  50  64
   3  43  50  73
   3  43  73  50
   3  43  73  52
   3  43  52  36
   3  43  52  73
   3  44  67  51
   3  44  67  31
   3  44  31  35
   3  44  31  67
   3  44  35  53
   3  44  35  31
   3  44  53  35
   3  44  53  74
   3  44  74  53
   3  44  74  51
   3  44  51  67
   3  44  51  74
   3  45  65  26
   3  45  65  89
   3  45  26  22
   3  45  26  65
   3  45  22  59
   3  45  22  26
   3  45  59  92
   3  45  59  22
   3  45  92  75
   3  45  92  59
   3  45  75  89
   3  45  75  92
   3  45  89  75
   3  45  89  65
   3  46  66  89
   3  46  66  27
   3  46  89  76
   3  46  89  66
   3  46  76  89
   3  46  76  93
   3  46  93  60
   3  46  93  76
   3  46  60  93
   3  46  60  23
   3  46  23  27
   3  46  23  60
   3  46  27  66
   3  46  27  23
   3  47  76  93
   4  47  76  75  38
   3  47  38  62
   4  47  38  75  76
   3  47  62  90
   3  47  62  38
   3  47  90  80
   3  47  90  62
   3  47  80  78
   3  47  80  90
   3  47  78  93
   3  47  78  80
   3  47  93  78
   3  47  93  76
   3  48  71  85
   4  48  71  57  94
   3  48  85  87
   3  48  85  71
   3  48  87  33
   3  48  87  85
   3  48  33  87
   3  48  33  61
   3  48  61  54
   3  48  61  33
   3  48  54  61
   4  48  54  95  94
   3  49  37  62
   3  49  37  64
   3  49  62  37
   3  49  62  63
   3  49  63  67
   3  49  63  62
   3  49  67  51
   3  49  67  63
   3  49  51  67
   3  49  51  56
   3  49  56  51
   3  49  56  50
   3  49  50  64
   3  49  50  56
   3  49  64  37
   3  49  64  50
   3  50  43  64
   3  50  43  73
   3  50  64  49
   3  50  64  43
   3  50  49  56
   3  50  49  64
   3  50  56  83
   3  50  56  49
   3  50  83  56
   3  50  83  73
   3  50  73  83
   3  50  73  43
   3  51  49  67
   3  51  49  56
   3  51  67  49
   3  51  67  44
   3  51  44  67
   3  51  44  74
   3  51  74  84
   3  51  74  44
   3  51  84  74
   3  51  84  56
   3  51  56  84
   3  51  56  49
   3  52  40  36
   3  52  40  70
   3  52  36  43
   3  52  36  40
   3  52  43  36
   3  52  43  73
   3  52  73  81
   3  52  73  43
   3  52  81  73
   3  52  81  70
   3  52  70  81
   3  52  70  40
   3  53  44  35
   3  53  44  74
   3  53  35  39
   3  53  35  44
   3  53  39  35
   3  53  39  69
   3  53  69  82
   3  53  69  39
   3  53  82  69
   3  53  82  74
   3  53  74  82
   3  53  74  44
   3  54  48  61
   4  54  48  94  95
   3  54  61  34
   3  54  61  48
   3  54  34  61
   3  54  34  88
   3  54  88  86
   3  54  88  34
   3  54  86  72
   3  54  86  88
   3  54  72  86
   4  54  72  58  95
   3  55  81  73
   3  55  81  97
   3  55  73  83
   3  55  73  81
   3  55  83  56
   3  55  83  73
   3  55  56  84
   3  55  56  83
   3  55  84  74
   3  55  84  56
   3  55  74  82
   3  55  74  84
   3  55  82  96
   3  55  82  74
   3  55  96  82
   3  55  96  41
   3  55  41  96
   3  55  41  42
   3  55  42  41
   3  55  42  97
   3  55  97  42
   3  55  97  81
   3  56  51  49
   3  56  51  84
   3  56  84  55
   3  56  84  51
   3  56  55  83
   3  56  55  84
   3  56  83  55
   3  56  83  50
   3  56  50  49
   3  56  50  83
   3  56  49  51
   3  56  49  50
   3  57   0  24
   3  57   0  98
   3  57  24  71
   3  57  24   0
   3  57  71  24
   4  57  71  48  94
   3  57  94  98
   4  57  94  48  71
   3  57  98  94
   3  57  98   0
   3  58   1  98
   3  58   1  25
   3  58  98  95
   3  58  98   1
   3  58  95  98
   4  58  95  54  72
   3  58  72  25
   4  58  72  54  95
   3  58  25   1
   3  58  25  72
   3  59  18  77
   3  59  18  22
   3  59  77  92
   3  59  77  18
   3  59  92  45
   3  59  92  77
   3  59  45  22
   3  59  45  92
   3  59  22  18
   3  59  22  45
   3  60  46  93
   3  60  46  23
   3  60  93  78
   3  60  93  46
   3  60  78  93
   3  60  78  19
   3  60  19  23
   3  60  19  78
   3  60  23  46
   3  60  23  19
   3  61  29  33
   3  61  29  30
   3  61  30  34
   3  61  30  29
   3  61  34  54
   3  61  34  30
   3  61  54  48
   3  61  54  34
   3  61  48  33
   3  61  48  54
   3  61  33  48
   3  61  33  29
   3  62  49  37
   3  62  49  63
   3  62  37  90
   3  62  37  49
   3  62  90  47
   3  62  90  37
   3  62  47  38
   3  62  47  90
   3  62  38  91
   3  62  38  47
   3  62  91  63
   3  62  91  38
   3  62  63  91
   3  62  63  49
   3  63  91  79
   3  63  91  62
   3  63  79  91
   3  63  79  14
   3  63  14  10
   3  63  14  79
   3  63  10   6
   3  63  10  14
   3  63   6  31
   3  63   6  10
   3  63  31  67
   3  63  31   6
   3  63  67  49
   3  63  67  31
   3  63  49  62
   3  63  49  67
   3  63  62  49
   3  63  62  91
   3  64  37  49
   3  64  37  32
   3  64  49  37
   3  64  49  50
   3  64  50  43
   3  64  50  49
   3  64  43  32
   3  64  43  50
   3  64  32  37
   3  64  32  43
   3  65   3  26
   4  65   3   4  66
   3  65  26  45
   3  65  26   3
   3  65  45  26
   3  65  45  89
   3  65  89  66
   3  65  89  45
   3  65  66  89
   4  65  66   4   3
   3  66   4  27
   4  66   4   3  65
   3  66  65  89
   4  66  65   3   4
   3  66  89  46
   3  66  89  65
   3  66  46  89
   3  66  46  27
   3  66  27   4
   3  66  27  46
   3  67  51  49
   3  67  51  44
   3  67  49  63
   3  67  49  51
   3  67  63  31
   3  67  63  49
   3  67  31  44
   3  67  31  63
   3  67  44  31
   3  67  44  51
   3  68   5  36
   3  68   5   8
   3  68  36  40
   3  68  36   5
   3  68  40  33
   3  68  40  36
   3  68  33   8
   3  68  33  40
   3  68   8   5
   3  68   8  33
   3  69  30  41
   3  69  30  39
   3  69  41  96
   3  69  41  30
   3  69  96  82
   3  69  96  41
   3  69  82  96
   3  69  82  53
   3  69  53  39
   3  69  53  82
   3  69  39  30
   3  69  39  53
   3  70  52  40
   3  70  52  81
   3  70  81  97
   3  70  81  52
   3  70  97  42
   3  70  97  81
   3  70  42  29
   3  70  42  97
   3  70  29  40
   3  70  29  42
   3  70  40  29
   3  70  40  52
   3  71  20  85
   3  71  20  24
   3  71  85  48
   3  71  85  20
   3  71  48  85
   4  71  48  94  57
   3  71  57  24
   4  71  57  94  48
   3  71  24  20
   3  71  24  57
   3  72  58  25
   4  72  58  95  54
   3  72  54  86
   4  72  54  95  58
   3  72  86  54
   3  72  86  21
   3  72  21  25
   3  72  21  86
   3  72  25  58
   3  72  25  21
   3  73  50  43
   3  73  50  83
   3  73  83  55
   3  73  83  50
   3  73  55  81
   3  73  55  83
   3  73  81  55
   3  73  81  52
   3  73  52  43
   3  73  52  81
   3  73  43  50
   3  73  43  52
   3  74  53  44
   3  74  53  82
   3  74  82  55
   3  74  82  53
   3  74  55  84
   3  74  55  82
   3  74  84  55
   3  74  84  51
   3  74  51  44
   3  74  51  84
   3  74  44  53
   3  74  44  51
   3  75  38  92
   4  75  38  47  76
   3  75  76  89
   4  75  76  47  38
   3  75  89  76
   3  75  89  45
   3  75  45  92
   3  75  45  89
   3  75  92  45
   3  75  92  38
   3  76  46  89
   3  76  46  93
   3  76  89  75
   3  76  89  46
   3  76  75  89
   4  76  75  38  47
   3  76  47  93
   4  76  47  38  75
   3  76  93  46
   3  76  93  47
   3  77  14  79
   3  77  14  18
   3  77  79  38
   3  77  79  14
   3  77  38  92
   3  77  38  79
   3  77  92  59
   3  77  92  38
   3  77  59  18
   3  77  59  92
   3  77  18  14
   3  77  18  59
   3  78  60  93
   3  78  60  19
   3  78  93  60
   3  78  93  47
   3  78  47  80
   3  78  47  93
   3  78  80  47
   3  78  80  15
   3  78  15  19
   3  78  15  80
   3  78  19  60
   3  78  19  15
   3  79  63  91
   3  79  63  14
   3  79  91  63
   3  79  91  38
   3  79  38  77
   3  79  38  91
   3  79  77  14
   3  79  77  38
   3  79  14  63
   3  79  14  77
   3  80  78  47
   3  80  78  15
   3  80  47  90
   3  80  47  78
   3  80  90  47
   3  80  90  37
   3  80  37  90
   3  80  37  15
   3  80  15  78
   3  80  15  37
   3  81  73  55
   3  81  73  52
   3  81  55  73
   3  81  55  97
   3  81  97  70
   3  81  97  55
   3  81  70  52
   3  81  70  97
   3  81  52  73
   3  81  52  70
   3  82  69  96
   3  82  69  53
   3  82  96  69
   3  82  96  55
   3  82  55  74
   3  82  55  96
   3  82  74  53
   3  82  74  55
   3  82  53  69
   3  82  53  74
   3  83  56  55
   3  83  56  50
   3  83  55  73
   3  83  55  56
   3  83  73  50
   3  83  73  55
   3  83  50  56
   3  83  50  73
   3  84  74  55
   3  84  74  51
   3  84  55  56
   3  84  55  74
   3  84  56  51
   3  84  56  55
   3  84  51  74
   3  84  51  56
   3  85  16  87
   3  85  16  20
   3  85  87  48
   3  85  87  16
   3  85  48  71
   3  85  48  87
   3  85  71  20
   3  85  71  48
   3  85  20  16
   3  85  20  71
   3  86  72  54
   3  86  72  21
   3  86  54  88
   3  86  54  72
   3  86  88  54
   3  86  88  17
   3  86  17  21
   3  86  17  88
   3  86  21  72
   3  86  21  17
   3  87  33  48
   3  87  33  16
   3  87  48  85
   3  87  48  33
   3  87  85  16
   3  87  85  48
   3  87  16  33
   3  87  16  85
   3  88  86  54
   3  88  86  17
   3  88  54  34
   3  88  54  86
   3  88  34  54
   3  88  34  17
   3  88  17  86
   3  88  17  34
   3  89  75  76
   3  89  75  45
   3  89  76  46
   3  89  76  75
   3  89  46  66
   3  89  46  76
   3  89  66  65
   3  89  66  46
   3  89  65  45
   3  89  65  66
   3  89  45  65
   3  89  45  75
   3  90  80  47
   3  90  80  37
   3  90  47  62
   3  90  47  80
   3  90  62  37
   3  90  62  47
   3  90  37  62
   3  90  37  80
   3  91  79  63
   3  91  79  38
   3  91  63  79
   3  91  63  62
   3  91  62  38
   3  91  62  63
   3  91  38  79
   3  91  38  62
   3  92  75  38
   3  92  75  45
   3  92  45  59
   3  92  45  75
   3  92  59  77
   3  92  59  45
   3  92  77  38
   3  92  77  59
   3  92  38  75
   3  92  38  77
   3  93  78  60
   3  93  78  47
   3  93  60  46
   3  93  60  78
   3  93  46  76
   3  93  46  60
   3  93  76  46
   3  93  76  47
   3  93  47  76
   3  93  47  78
   3  94  95  98
   4  94  95  54  48
   3  94  98  95
   3  94  98  57
   3  94  57  98
   4  94  57  71  48
   3  95  58  98
   4  95  58  72  54
   3  95  98  94
   3  95  98  58
   3  95  94  98
   4  95  94  48  54
   3  96  82  69
   3  96  82  55
   3  96  69  41
   3  96  69  82
   3  96  41  55
   3  96  41  69
   3  96  55  82
   3  96  55  41
   3  97  42  55
   3  97  42  70
   3  97  70  81
   3  97  70  42
   3  97  81  55
   3  97  81  70
   3  97  55  81
   3  97  55  42
   3  98  94  95
   3  98  94  57
   3  98  95  58
   3  98  95  94
   3  98  58   1
   3  98  58  95
   3  98   1   0
   3  98   1  58
   3  98   0  57
   3  98   0   1
   3  98  57   0
   3  98  57  94
