# Generated by dad_to_polygons. Vertex data from Humppa's .off file,
# polygons parsed from .dad file.
COFF
108 372 108
-6.471933 0.985984 5.668833 0.500000 0.500000 0.500000 1.0
-6.471933 -0.985984 5.668833 0.500000 0.500000 0.500000 1.0
-0.030704 -2.064541 5.330257 0.500000 0.500000 0.500000 1.0
7.334452 -0.919292 5.788388 0.500000 0.500000 0.500000 1.0
7.334452 0.919292 5.788388 0.500000 0.500000 0.500000 1.0
-0.030704 2.064541 5.330257 0.500000 0.500000 0.500000 1.0
1.106811 -1.745297 5.472070 0.500000 0.500000 0.500000 1.0
1.106811 1.745297 5.472070 0.500000 0.500000 0.500000 1.0
-1.132821 1.727274 5.443850 0.500000 0.500000 0.500000 1.0
-1.132821 -1.727274 5.443850 0.500000 0.500000 0.500000 1.0
2.024620 -1.432407 5.717412 0.500000 0.500000 0.500000 1.0
2.024620 1.432407 5.717412 0.500000 0.500000 0.500000 1.0
-2.055509 1.437204 5.697681 0.500000 0.500000 0.500000 1.0
-2.055509 -1.437204 5.697681 0.500000 0.500000 0.500000 1.0
3.058880 -1.511255 5.545181 0.500000 0.500000 0.500000 1.0
3.058880 1.511255 5.545181 0.500000 0.500000 0.500000 1.0
-3.034752 1.495918 5.505536 0.500000 0.500000 0.500000 1.0
-3.034752 -1.495918 5.505536 0.500000 0.500000 0.500000 1.0
4.096175 -1.452077 5.623055 0.500000 0.500000 0.500000 1.0
4.096175 1.452077 5.623055 0.500000 0.500000 0.500000 1.0
-4.056721 1.430573 5.586543 0.500000 0.500000 0.500000 1.0
-4.056721 -1.430573 5.586543 0.500000 0.500000 0.500000 1.0
5.081193 -1.251836 5.668716 0.500000 0.500000 0.500000 1.0
5.081193 1.251836 5.668716 0.500000 0.500000 0.500000 1.0
-5.044303 1.248178 5.612748 0.500000 0.500000 0.500000 1.0
-5.044303 -1.248178 5.612748 0.500000 0.500000 0.500000 1.0
6.074852 -1.109980 5.728836 0.500000 0.500000 0.500000 1.0
6.074852 1.109980 5.728836 0.500000 0.500000 0.500000 1.0
-0.972462 -1.696492 4.477529 0.500000 0.500000 0.500000 1.0
-1.786691 0.839022 3.373878 0.500000 0.500000 0.500000 1.0
-1.786692 -0.839022 3.373878 0.500000 0.500000 0.500000 1.0
0.907161 -1.689497 4.201624 0.500000 0.500000 0.500000 1.0
0.907161 1.689497 4.201624 0.500000 0.500000 0.500000 1.0
-2.117257 1.391665 4.525703 0.500000 0.500000 0.500000 1.0
-2.117257 -1.391665 4.525703 0.500000 0.500000 0.500000 1.0
0.045258 -1.794116 4.057854 0.500000 0.500000 0.500000 1.0
0.045444 1.794173 4.057854 0.500000 0.500000 0.500000 1.0
2.075266 1.377626 4.697747 0.500000 0.500000 0.500000 1.0
3.572552 -0.619282 2.860470 1.0 1.0 0.0 1.0
-0.738955 -1.656135 3.547882 0.500000 0.500000 0.500000 1.0
-0.738955 1.656137 3.547882 0.500000 0.500000 0.500000 1.0
-1.408714 -0.906259 2.044431 0.500000 0.500000 0.500000 1.0
-1.408713 0.906259 2.044431 0.500000 0.500000 0.500000 1.0
0.820924 1.659140 3.201339 0.500000 0.500000 0.500000 1.0
0.820875 -1.659236 3.201347 0.500000 0.500000 0.500000 1.0
5.502138 -1.154414 4.804100 0.500000 0.500000 0.500000 1.0
5.502138 1.154414 4.804100 0.500000 0.500000 0.500000 1.0
3.572552 0.619282 2.860470 1.0 1.0 0.0 1.0
-3.537748 0.659271 3.137518 1.0 1.0 0.0 1.0
1.798074 -0.000001 3.651867 0.500000 0.500000 0.500000 1.0
1.224807 1.221810 2.919604 0.500000 0.500000 0.500000 1.0
1.224804 -1.221809 2.919604 0.500000 0.500000 0.500000 1.0
0.146420 1.694542 3.026147 0.500000 0.500000 0.500000 1.0
0.146428 -1.694529 3.026147 0.500000 0.500000 0.500000 1.0
-3.537748 -0.659271 3.137518 1.0 1.0 0.0 1.0
0.090993 -0.000000 1.038258 1.0 1.0 0.0 1.0
1.439360 -0.000000 2.654723 0.500000 0.500000 0.500000 1.0
-5.205372 1.096830 4.657643 0.500000 0.500000 0.500000 1.0
-5.205372 -1.096830 4.657643 0.500000 0.500000 0.500000 1.0
4.571914 -1.355297 4.976690 0.500000 0.500000 0.500000 1.0
4.571914 1.355297 4.976690 0.500000 0.500000 0.500000 1.0
-2.117225 0.000000 4.033766 0.500000 0.500000 0.500000 1.0
2.075331 0.000000 4.148658 0.500000 0.500000 0.500000 1.0
2.075266 -1.377626 4.697747 0.500000 0.500000 0.500000 1.0
1.336163 1.529785 3.911753 0.500000 0.500000 0.500000 1.0
6.595652 -0.980358 5.239989 0.500000 0.500000 0.500000 1.0
6.595652 0.980358 5.239989 0.500000 0.500000 0.500000 1.0
1.336158 -1.529787 3.911745 0.500000 0.500000 0.500000 1.0
-0.972462 1.696492 4.477529 0.500000 0.500000 0.500000 1.0
-0.531637 -1.505245 2.731719 0.500000 0.500000 0.500000 1.0
-0.531638 1.505246 2.731719 0.500000 0.500000 0.500000 1.0
-4.426302 1.324657 4.918595 0.500000 0.500000 0.500000 1.0
-4.426302 -1.324657 4.918595 0.500000 0.500000 0.500000 1.0
0.778183 1.432027 2.242873 0.500000 0.500000 0.500000 1.0
0.778181 -1.432027 2.242873 0.500000 0.500000 0.500000 1.0
5.183266 -0.778033 3.733800 0.500000 0.500000 0.500000 1.0
5.183266 0.778033 3.733800 0.500000 0.500000 0.500000 1.0
4.037556 -1.371558 4.516983 0.500000 0.500000 0.500000 1.0
4.037556 1.371558 4.516983 0.500000 0.500000 0.500000 1.0
3.181360 -1.384665 4.329899 0.500000 0.500000 0.500000 1.0
3.181360 1.384665 4.329899 0.500000 0.500000 0.500000 1.0
0.112764 1.430807 2.097233 0.500000 0.500000 0.500000 1.0
0.112764 -1.430807 2.097233 0.500000 0.500000 0.500000 1.0
1.098215 0.928099 2.037244 0.500000 0.500000 0.500000 1.0
1.098215 -0.928100 2.037244 0.500000 0.500000 0.500000 1.0
-3.935225 1.332604 4.593169 0.500000 0.500000 0.500000 1.0
-3.935225 -1.332604 4.593169 0.500000 0.500000 0.500000 1.0
-3.249467 1.323792 4.342472 0.500000 0.500000 0.500000 1.0
-3.249467 -1.323792 4.342472 0.500000 0.500000 0.500000 1.0
5.898133 0.000000 4.548761 0.500000 0.500000 0.500000 1.0
2.552455 1.033586 3.866764 0.500000 0.500000 0.500000 1.0
2.552464 -1.033600 3.866758 0.500000 0.500000 0.500000 1.0
4.326093 -1.242522 4.059679 0.500000 0.500000 0.500000 1.0
4.326093 1.242522 4.059679 0.500000 0.500000 0.500000 1.0
-4.908093 0.810377 3.804791 0.500000 0.500000 0.500000 1.0
-4.908093 -0.810377 3.804791 0.500000 0.500000 0.500000 1.0
-0.285512 -1.130674 1.792664 0.500000 0.500000 0.500000 1.0
-0.285512 1.130674 1.792664 0.500000 0.500000 0.500000 1.0
-5.529582 -0.000000 4.606683 0.500000 0.500000 0.500000 1.0
1.089713 -0.000000 1.845213 0.500000 0.500000 0.500000 1.0
2.700324 -0.303265 3.458949 0.500000 0.500000 0.500000 1.0
2.700325 0.303264 3.458949 0.500000 0.500000 0.500000 1.0
-2.752023 1.026869 3.836942 0.500000 0.500000 0.500000 1.0
-2.752023 -1.026869 3.836942 0.500000 0.500000 0.500000 1.0
-4.054874 1.042358 4.025131 0.500000 0.500000 0.500000 1.0
-4.054874 -1.042358 4.025131 0.500000 0.500000 0.500000 1.0
-0.734397 -0.451169 1.526983 0.500000 0.500000 0.500000 1.0
-0.734397 0.451170 1.526983 0.500000 0.500000 0.500000 1.0
3 0 24 57
3 0 57 24
3 0 98 1
3 0 1 98
3 1 58 25
3 1 25 58
3 2 31 6
3 2 6 31
3 2 35 31
3 2 31 35
3 4 3 65
3 4 65 3
3 4 65 66
3 4 66 65
3 6 31 63
3 6 63 31
3 6 63 10
3 6 10 63
3 7 5 32
3 7 32 5
3 7 37 32
3 7 32 37
3 8 33 68
3 8 68 33
3 9 28 2
3 9 2 28
3 11 15 37
3 11 37 15
3 11 37 7
3 11 7 37
3 12 8 33
3 12 33 8
3 12 33 16
3 12 16 33
3 13 17 34
3 13 34 17
3 13 34 9
3 13 9 34
3 14 10 63
3 14 63 10
3 14 18 77
3 14 77 18
3 15 37 80
3 15 80 37
3 16 20 85
3 16 85 20
3 16 33 87
3 16 87 33
3 16 85 87
3 16 87 85
3 17 21 86
3 17 86 21
3 18 59 77
3 18 77 59
3 20 24 71
3 20 71 24
3 20 71 85
3 20 85 71
3 21 72 86
3 21 86 72
3 22 59 18
3 22 18 59
3 23 60 19
3 23 19 60
3 23 60 46
3 23 46 60
3 24 71 57
3 24 57 71
3 25 58 72
3 25 72 58
3 26 65 3
3 26 3 65
3 27 46 23
3 27 23 46
3 27 66 4
3 27 4 66
3 27 66 46
3 27 46 66
3 28 34 9
3 28 9 34
3 28 39 34
3 28 34 39
3 29 30 61
3 29 61 30
3 29 61 33
3 29 33 61
3 30 41 42
3 30 42 41
3 30 42 29
3 30 29 42
3 30 69 39
3 30 39 69
3 31 67 44
3 31 44 67
3 31 67 63
3 31 63 67
3 33 40 29
3 33 29 40
3 33 68 40
3 33 40 68
3 33 102 87
3 33 87 102
3 34 17 88
3 34 88 17
3 34 30 61
3 34 61 30
3 34 39 30
3 34 30 39
3 35 2 28
3 35 28 2
3 35 31 44
3 35 44 31
3 35 39 28
3 35 28 39
3 36 32 5
3 36 5 32
3 36 32 43
3 36 43 32
3 36 40 52
3 36 52 40
3 36 43 52
3 36 52 43
3 37 49 64
3 37 64 49
3 37 62 49
3 37 49 62
3 37 62 90
3 37 90 62
3 37 64 32
3 37 32 64
3 37 80 90
3 37 90 80
3 38 47 76
3 38 76 47
3 38 47 101
3 38 101 47
3 38 76 75
3 38 75 76
3 38 79 77
3 38 77 79
3 38 91 79
3 38 79 91
3 38 92 75
3 38 75 92
3 38 92 77
3 38 77 92
3 38 101 100
3 38 100 101
3 39 53 35
3 39 35 53
3 39 53 69
3 39 69 53
3 40 52 70
3 40 70 52
3 40 68 36
3 40 36 68
3 40 70 29
3 40 29 70
3 41 30 69
3 41 69 30
3 41 42 107
3 41 107 42
3 41 69 96
3 41 96 69
3 41 107 106
3 41 106 107
3 42 70 29
3 42 29 70
3 42 97 70
3 42 70 97
3 43 52 73
3 43 73 52
3 43 64 32
3 43 32 64
3 43 64 50
3 43 50 64
3 43 73 50
3 43 50 73
3 44 53 35
3 44 35 53
3 45 22 26
3 45 26 22
3 45 22 59
3 45 59 22
3 45 65 26
3 45 26 65
3 45 89 65
3 45 65 89
3 45 92 75
3 45 75 92
3 46 60 93
3 46 93 60
3 46 76 93
3 46 93 76
3 46 89 66
3 46 66 89
3 47 62 101
3 47 101 62
3 47 78 80
3 47 80 78
3 47 78 93
3 47 93 78
3 47 80 90
3 47 90 80
3 47 90 62
3 47 62 90
3 48 104 85
3 48 85 104
3 49 51 56
3 49 56 51
3 49 62 63
3 49 63 62
3 49 67 51
3 49 51 67
3 50 49 64
3 50 64 49
3 50 56 49
3 50 49 56
3 50 73 83
3 50 83 73
3 51 44 67
3 51 67 44
3 52 81 70
3 52 70 81
3 53 69 82
3 53 82 69
3 53 74 82
3 53 82 74
3 54 61 103
3 54 103 61
3 54 86 88
3 54 88 86
3 54 86 105
3 54 105 86
3 54 88 103
3 54 103 88
3 54 94 48
3 54 48 94
3 54 95 94
3 54 94 95
3 54 95 105
3 54 105 95
3 55 73 81
3 55 81 73
3 55 81 97
3 55 97 81
3 55 82 74
3 55 74 82
3 55 83 73
3 55 73 83
3 55 83 99
3 55 99 83
3 55 84 99
3 55 99 84
3 55 96 82
3 55 82 96
3 55 106 107
3 55 107 106
3 56 50 83
3 56 83 50
3 56 51 84
3 56 84 51
3 56 99 83
3 56 83 99
3 57 0 98
3 57 98 0
3 57 94 104
3 57 104 94
3 58 72 105
3 58 105 72
3 58 105 95
3 58 95 105
3 59 77 92
3 59 92 77
3 60 93 78
3 60 78 93
3 61 48 54
3 61 54 48
3 61 102 48
3 61 48 102
3 61 103 34
3 61 34 103
3 63 62 91
3 63 91 62
3 63 67 49
3 63 49 67
3 63 79 14
3 63 14 79
3 63 91 79
3 63 79 91
3 65 66 89
3 65 89 66
3 68 8 5
3 68 5 8
3 68 36 5
3 68 5 36
3 71 85 104
3 71 104 85
3 71 104 57
3 71 57 104
3 72 25 21
3 72 21 25
3 72 86 105
3 72 105 86
3 73 81 52
3 73 52 81
3 74 44 53
3 74 53 44
3 74 51 44
3 74 44 51
3 74 55 84
3 74 84 55
3 74 84 51
3 74 51 84
3 75 45 89
3 75 89 45
3 76 46 89
3 76 89 46
3 76 47 93
3 76 93 47
3 76 75 89
3 76 89 75
3 78 15 19
3 78 19 15
3 78 19 60
3 78 60 19
3 78 80 15
3 78 15 80
3 79 77 14
3 79 14 77
3 81 97 70
3 81 70 97
3 82 69 96
3 82 96 69
3 85 87 48
3 85 48 87
3 86 17 88
3 86 88 17
3 87 102 48
3 87 48 102
3 88 34 103
3 88 103 34
3 91 62 100
3 91 100 62
3 91 100 38
3 91 38 100
3 92 59 45
3 92 45 59
3 94 95 98
3 94 98 95
3 94 98 57
3 94 57 98
3 94 104 48
3 94 48 104
3 95 58 98
3 95 98 58
3 96 41 106
3 96 106 41
3 96 106 55
3 96 55 106
3 97 42 107
3 97 107 42
3 97 107 55
3 97 55 107
3 98 1 58
3 98 58 1
3 99 84 56
3 99 56 84
3 101 100 62
3 101 62 100
3 102 61 33
3 102 33 61
