# Generated by dad_to_polygons. Vertex data from Humppa's .off file,
# polygons parsed from .dad file.
COFF
116 402 116
-6.520086 1.034750 6.005982 0.500000 0.500000 0.500000 1.0
-6.520086 -1.034750 6.005982 0.500000 0.500000 0.500000 1.0
-0.031436 -2.129356 5.664393 0.500000 0.500000 0.500000 1.0
7.366154 -0.946230 6.155670 0.500000 0.500000 0.500000 1.0
7.366154 0.946230 6.155670 0.500000 0.500000 0.500000 1.0
-0.031436 2.129356 5.664393 0.500000 0.500000 0.500000 1.0
1.121429 -1.809374 5.806289 0.500000 0.500000 0.500000 1.0
1.121429 1.809374 5.806289 0.500000 0.500000 0.500000 1.0
-1.145607 1.793234 5.776091 0.500000 0.500000 0.500000 1.0
-1.145607 -1.793234 5.776091 0.500000 0.500000 0.500000 1.0
2.037231 -1.495610 6.057931 0.500000 0.500000 0.500000 1.0
2.037231 1.495610 6.057931 0.500000 0.500000 0.500000 1.0
-2.066676 1.503069 6.035768 0.500000 0.500000 0.500000 1.0
-2.066676 -1.503069 6.035768 0.500000 0.500000 0.500000 1.0
3.057934 -1.596805 5.859969 0.500000 0.500000 0.500000 1.0
3.057934 1.596805 5.859969 0.500000 0.500000 0.500000 1.0
-3.038287 1.585744 5.815449 0.500000 0.500000 0.500000 1.0
-3.038287 -1.585744 5.815449 0.500000 0.500000 0.500000 1.0
4.106129 -1.526049 5.949288 0.500000 0.500000 0.500000 1.0
4.106129 1.526049 5.949288 0.500000 0.500000 0.500000 1.0
-4.067018 1.511058 5.906114 0.500000 0.500000 0.500000 1.0
-4.067018 -1.511058 5.906114 0.500000 0.500000 0.500000 1.0
5.092473 -1.315261 6.008622 0.500000 0.500000 0.500000 1.0
5.092473 1.315261 6.008622 0.500000 0.500000 0.500000 1.0
-5.057880 1.319496 5.943782 0.500000 0.500000 0.500000 1.0
-5.057880 -1.319496 5.943782 0.500000 0.500000 0.500000 1.0
6.081432 -1.166106 6.083714 0.500000 0.500000 0.500000 1.0
6.081432 1.166106 6.083714 0.500000 0.500000 0.500000 1.0
-7.152118 -0.000000 6.008730 0.500000 0.500000 0.500000 1.0
-1.745736 0.842875 3.637078 0.500000 0.500000 0.500000 1.0
-1.745737 -0.842874 3.637078 0.500000 0.500000 0.500000 1.0
0.923620 -1.749149 4.488659 0.500000 0.500000 0.500000 1.0
0.923621 1.749150 4.488659 0.500000 0.500000 0.500000 1.0
-2.084255 1.465931 4.880578 0.500000 0.500000 0.500000 1.0
-2.084255 -1.465931 4.880579 0.500000 0.500000 0.500000 1.0
0.053295 -1.856375 4.345715 0.500000 0.500000 0.500000 1.0
0.053276 1.856360 4.345715 0.500000 0.500000 0.500000 1.0
2.080178 1.457454 5.025819 0.500000 0.500000 0.500000 1.0
3.579753 -0.619206 2.860470 1.0 1.0 0.0 1.0
-0.757851 -1.727529 3.830619 0.500000 0.500000 0.500000 1.0
-0.757850 1.727530 3.830620 0.500000 0.500000 0.500000 1.0
-1.413164 -0.948570 2.279953 0.500000 0.500000 0.500000 1.0
-1.413163 0.948572 2.279953 0.500000 0.500000 0.500000 1.0
0.815745 1.726146 3.478774 0.500000 0.500000 0.500000 1.0
0.815832 -1.726279 3.478774 0.500000 0.500000 0.500000 1.0
5.536952 -1.219985 5.145642 0.500000 0.500000 0.500000 1.0
5.536952 1.219985 5.145641 0.500000 0.500000 0.500000 1.0
3.579753 0.619205 2.860470 1.0 1.0 0.0 1.0
-3.533595 0.659524 3.137518 1.0 1.0 0.0 1.0
1.715888 -0.000000 4.001652 0.500000 0.500000 0.500000 1.0
1.188055 1.274116 3.187122 0.500000 0.500000 0.500000 1.0
1.188028 -1.274127 3.187087 0.500000 0.500000 0.500000 1.0
0.158730 1.763063 3.286732 0.500000 0.500000 0.500000 1.0
0.158801 -1.763139 3.286732 0.500000 0.500000 0.500000 1.0
-3.533595 -0.659524 3.137518 1.0 1.0 0.0 1.0
0.117284 0.000000 1.038258 1.0 1.0 0.0 1.0
1.378171 0.000004 2.876940 0.500000 0.500000 0.500000 1.0
-5.231534 1.171726 4.936223 0.500000 0.500000 0.500000 1.0
-5.231534 -1.171726 4.936223 0.500000 0.500000 0.500000 1.0
4.578278 -1.424863 5.285347 0.500000 0.500000 0.500000 1.0
4.578297 1.424882 5.285344 0.500000 0.500000 0.500000 1.0
-2.084397 0.000001 4.241115 0.500000 0.500000 0.500000 1.0
2.079991 -0.000000 4.394949 0.500000 0.500000 0.500000 1.0
2.080178 -1.457454 5.025819 0.500000 0.500000 0.500000 1.0
1.304009 1.606894 4.210087 0.500000 0.500000 0.500000 1.0
6.623705 -1.022835 5.582378 0.500000 0.500000 0.500000 1.0
6.623705 1.022835 5.582378 0.500000 0.500000 0.500000 1.0
1.304008 -1.606894 4.210088 0.500000 0.500000 0.500000 1.0
-0.941440 1.768011 4.770450 0.500000 0.500000 0.500000 1.0
-0.539733 -1.562773 2.960493 0.500000 0.500000 0.500000 1.0
-0.539732 1.562773 2.960493 0.500000 0.500000 0.500000 1.0
-4.471307 1.398445 5.254624 0.500000 0.500000 0.500000 1.0
-4.471307 -1.398445 5.254624 0.500000 0.500000 0.500000 1.0
0.764708 1.547140 2.518153 0.500000 0.500000 0.500000 1.0
0.764725 -1.547124 2.518188 0.500000 0.500000 0.500000 1.0
5.244649 -0.846667 3.968824 0.500000 0.500000 0.500000 1.0
5.244649 0.846667 3.968824 0.500000 0.500000 0.500000 1.0
4.074570 -1.469778 4.793880 0.500000 0.500000 0.500000 1.0
4.074573 1.469778 4.793883 0.500000 0.500000 0.500000 1.0
3.146561 -1.486426 4.548556 0.500000 0.500000 0.500000 1.0
3.146561 1.486426 4.548556 0.500000 0.500000 0.500000 1.0
0.163376 1.558838 2.276518 0.500000 0.500000 0.500000 1.0
0.163373 -1.558835 2.276518 0.500000 0.500000 0.500000 1.0
1.072855 1.020949 2.251766 0.500000 0.500000 0.500000 1.0
1.072850 -1.020947 2.251768 0.500000 0.500000 0.500000 1.0
-3.989460 1.433634 4.853927 0.500000 0.500000 0.500000 1.0
-3.989460 -1.433634 4.853927 0.500000 0.500000 0.500000 1.0
-3.191747 1.444443 4.563203 0.500000 0.500000 0.500000 1.0
-3.191747 -1.444443 4.563203 0.500000 0.500000 0.500000 1.0
6.054244 0.000000 4.837305 0.500000 0.500000 0.500000 1.0
2.510303 1.065472 4.169413 0.500000 0.500000 0.500000 1.0
2.510304 -1.065472 4.169412 0.500000 0.500000 0.500000 1.0
4.424621 -1.363586 4.318556 0.500000 0.500000 0.500000 1.0
4.424621 1.363586 4.318556 0.500000 0.500000 0.500000 1.0
-4.977146 0.832426 3.993522 0.500000 0.500000 0.500000 1.0
-4.977146 -0.832426 3.993522 0.500000 0.500000 0.500000 1.0
-0.373674 -1.400786 1.991664 0.500000 0.500000 0.500000 1.0
-0.373673 1.400788 1.991664 0.500000 0.500000 0.500000 1.0
-5.778458 -0.000000 4.902980 0.500000 0.500000 0.500000 1.0
1.191615 0.000001 2.080240 0.500000 0.500000 0.500000 1.0
2.487295 -0.304651 3.463825 0.500000 0.500000 0.500000 1.0
2.487296 0.304651 3.463825 0.500000 0.500000 0.500000 1.0
-2.636164 1.081089 4.077424 0.500000 0.500000 0.500000 1.0
-2.636164 -1.081088 4.077424 0.500000 0.500000 0.500000 1.0
-4.206254 1.247179 4.266175 0.500000 0.500000 0.500000 1.0
-4.206254 -1.247179 4.266175 0.500000 0.500000 0.500000 1.0
-1.071441 -0.600870 1.556329 0.500000 0.500000 0.500000 1.0
-1.071441 0.600870 1.556329 0.500000 0.500000 0.500000 1.0
0.613479 1.047370 1.730166 0.500000 0.500000 0.500000 1.0
0.613475 -1.047369 1.730166 0.500000 0.500000 0.500000 1.0
-0.941440 -1.768011 4.770450 0.500000 0.500000 0.500000 1.0
3.870170 -1.197917 3.861411 0.500000 0.500000 0.500000 1.0
3.870170 1.197917 3.861411 0.500000 0.500000 0.500000 1.0
6.746993 0.000000 5.538837 0.500000 0.500000 0.500000 1.0
4.444666 -0.729243 3.406969 0.500000 0.500000 0.500000 1.0
4.444666 0.729243 3.406969 0.500000 0.500000 0.500000 1.0
3 0 24 57
3 0 57 24
3 0 98 28
3 0 28 98
3 1 28 98
3 1 98 28
3 2 6 31
3 2 31 6
3 2 35 31
3 2 31 35
3 2 110 35
3 2 35 110
3 3 65 26
3 3 26 65
3 3 113 4
3 3 4 113
3 3 113 65
3 3 65 113
3 4 66 27
3 4 27 66
3 6 63 10
3 6 10 63
3 7 32 5
3 7 5 32
3 8 12 33
3 8 33 12
3 11 15 37
3 11 37 15
3 11 37 7
3 11 7 37
3 12 16 33
3 12 33 16
3 13 34 9
3 13 9 34
3 14 18 77
3 14 77 18
3 15 37 80
3 15 80 37
3 16 20 85
3 16 85 20
3 16 33 87
3 16 87 33
3 17 13 34
3 17 34 13
3 17 86 88
3 17 88 86
3 17 88 34
3 17 34 88
3 18 22 59
3 18 59 22
3 18 59 77
3 18 77 59
3 19 60 78
3 19 78 60
3 19 78 15
3 19 15 78
3 21 86 17
3 21 17 86
3 22 26 45
3 22 45 26
3 22 45 59
3 22 59 45
3 23 46 60
3 23 60 46
3 24 71 57
3 24 57 71
3 25 1 58
3 25 58 1
3 25 58 72
3 25 72 58
3 26 45 65
3 26 65 45
3 27 23 46
3 27 46 23
3 27 66 46
3 27 46 66
3 29 33 40
3 29 40 33
3 29 33 61
3 29 61 33
3 29 41 30
3 29 30 41
3 29 42 41
3 29 41 42
3 30 29 61
3 30 61 29
3 30 39 69
3 30 69 39
3 30 41 69
3 30 69 41
3 31 35 44
3 31 44 35
3 31 44 67
3 31 67 44
3 32 7 37
3 32 37 7
3 32 36 5
3 32 5 36
3 32 37 64
3 32 64 37
3 32 43 36
3 32 36 43
3 32 64 43
3 32 43 64
3 33 68 8
3 33 8 68
3 33 87 102
3 33 102 87
3 33 102 61
3 33 61 102
3 34 30 39
3 34 39 30
3 34 61 30
3 34 30 61
3 34 88 103
3 34 103 88
3 34 103 61
3 34 61 103
3 36 5 68
3 36 68 5
3 36 52 40
3 36 40 52
3 36 68 40
3 36 40 68
3 37 49 62
3 37 62 49
3 37 62 90
3 37 90 62
3 37 64 49
3 37 49 64
3 37 90 80
3 37 80 90
3 38 79 91
3 38 91 79
3 38 100 101
3 38 101 100
3 38 101 47
3 38 47 101
3 38 111 79
3 38 79 111
3 38 114 115
3 38 115 114
3 38 115 47
3 38 47 115
3 39 34 110
3 39 110 34
3 39 53 35
3 39 35 53
3 39 69 53
3 39 53 69
3 39 110 35
3 39 35 110
3 40 52 70
3 40 70 52
3 41 55 96
3 41 96 55
3 41 69 96
3 41 96 69
3 41 106 55
3 41 55 106
3 41 106 107
3 41 107 106
3 41 107 42
3 41 42 107
3 42 70 29
3 42 29 70
3 42 97 70
3 42 70 97
3 43 36 52
3 43 52 36
3 43 50 64
3 43 64 50
3 44 53 35
3 44 35 53
3 44 74 53
3 44 53 74
3 45 75 89
3 45 89 75
3 45 92 59
3 45 59 92
3 45 92 75
3 45 75 92
3 46 93 60
3 46 60 93
3 47 62 101
3 47 101 62
3 47 80 112
3 47 112 80
3 47 90 62
3 47 62 90
3 47 112 93
3 47 93 112
3 48 54 95
3 48 95 54
3 48 61 102
3 48 102 61
3 48 85 104
3 48 104 85
3 48 95 94
3 48 94 95
3 48 102 87
3 48 87 102
3 49 56 51
3 49 51 56
3 49 62 63
3 49 63 62
3 49 63 67
3 49 67 63
3 49 67 51
3 49 51 67
3 50 43 73
3 50 73 43
3 50 49 56
3 50 56 49
3 50 49 64
3 50 64 49
3 50 56 83
3 50 83 56
3 50 83 73
3 50 73 83
3 51 44 67
3 51 67 44
3 51 44 74
3 51 74 44
3 51 84 56
3 51 56 84
3 52 73 81
3 52 81 73
3 52 81 70
3 52 70 81
3 53 69 82
3 53 82 69
3 53 74 82
3 53 82 74
3 54 86 88
3 54 88 86
3 54 88 103
3 54 103 88
3 54 103 61
3 54 61 103
3 54 105 86
3 54 86 105
3 55 82 109
3 55 109 82
3 55 83 99
3 55 99 83
3 55 84 109
3 55 109 84
3 55 96 82
3 55 82 96
3 55 99 84
3 55 84 99
3 56 84 99
3 56 99 84
3 57 0 98
3 57 98 0
3 57 98 94
3 57 94 98
3 58 72 105
3 58 105 72
3 58 95 98
3 58 98 95
3 58 105 95
3 58 95 105
3 60 23 19
3 60 19 23
3 60 78 93
3 60 93 78
3 61 48 54
3 61 54 48
3 63 10 14
3 63 14 10
3 63 31 6
3 63 6 31
3 63 31 67
3 63 67 31
3 63 62 91
3 63 91 62
3 63 79 14
3 63 14 79
3 66 46 89
3 66 89 46
3 66 89 113
3 66 113 89
3 68 8 5
3 68 5 8
3 68 33 40
3 68 40 33
3 70 29 40
3 70 40 29
3 71 24 20
3 71 20 24
3 71 85 20
3 71 20 85
3 71 85 104
3 71 104 85
3 72 25 21
3 72 21 25
3 72 86 21
3 72 21 86
3 72 86 105
3 72 105 86
3 73 43 52
3 73 52 43
3 73 81 108
3 73 108 81
3 73 83 108
3 73 108 83
3 74 51 84
3 74 84 51
3 74 84 109
3 74 109 84
3 75 76 89
3 75 89 76
3 76 89 46
3 76 46 89
3 76 114 75
3 76 75 114
3 76 115 114
3 76 114 115
3 77 79 14
3 77 14 79
3 77 92 111
3 77 111 92
3 77 111 79
3 77 79 111
3 78 93 112
3 78 112 93
3 79 63 91
3 79 91 63
3 80 78 15
3 80 15 78
3 80 112 78
3 80 78 112
3 81 97 55
3 81 55 97
3 81 108 55
3 81 55 108
3 82 96 69
3 82 69 96
3 83 55 108
3 83 108 55
3 85 48 87
3 85 87 48
3 85 87 16
3 85 16 87
3 89 65 45
3 89 45 65
3 89 113 65
3 89 65 113
3 90 80 47
3 90 47 80
3 91 62 100
3 91 100 62
3 91 100 38
3 91 38 100
3 92 75 114
3 92 114 75
3 92 77 59
3 92 59 77
3 92 114 38
3 92 38 114
3 93 46 76
3 93 76 46
3 93 47 115
3 93 115 47
3 93 115 76
3 93 76 115
3 94 104 57
3 94 57 104
3 95 105 54
3 95 54 105
3 97 42 107
3 97 107 42
3 97 70 81
3 97 81 70
3 97 107 55
3 97 55 107
3 98 58 1
3 98 1 58
3 98 95 94
3 98 94 95
3 99 83 56
3 99 56 83
3 100 62 101
3 100 101 62
3 104 71 57
3 104 57 71
3 104 94 48
3 104 48 94
3 106 55 107
3 106 107 55
3 109 74 82
3 109 82 74
3 110 2 9
3 110 9 2
3 110 34 9
3 110 9 34
3 111 92 38
3 111 38 92
3 113 4 66
3 113 66 4
