 COFF
         140        1424         140
  
  -6.5803798509384519        1.1437741341538381        6.6885774930929056       0.60000002384185791       0.60000002384185791       0.60000002384185791       0.80000001192092896     
  -6.5803803094730302       -1.1437738231632397        6.6885775461742520       0.60000002384185791       0.60000002384185791       0.60000002384185791       0.80000001192092896     
  -3.2772424235091982E-002  -2.2521163780730791        6.3346725379459894       0.60000002384185791       0.60000002384185791       0.60000002384185791       0.80000001192092896     
   7.4555250181004524       -1.0281667887002728        6.8484151090574459       0.60000002384185791       0.60000002384185791       0.60000002384185791       0.80000001192092896     
   7.4555250181856456        1.0281667887210817        6.8484151089703680       0.60000002384185791       0.60000002384185791       0.60000002384185791       0.80000001192092896     
  -3.2772425196322647E-002   2.2521163818777903        6.3346725332692557       0.60000002384185791       0.60000002384185791       0.60000002384185791       0.80000001192092896     
   1.1487461777231904       -1.9311506467325366        6.4764618637647029       0.60000002384185791       0.60000002384185791       0.60000002384185791       0.80000001192092896     
   1.1487461814975037        1.9311506676413681        6.4764618414126831       0.60000002384185791       0.60000002384185791       0.60000002384185791       0.80000001192092896     
  -1.1698806828646677        1.9167066774710146        6.4443593520126745       0.60000002384185791       0.60000002384185791       0.60000002384185791       0.80000001192092896     
  -1.1698806836223428       -1.9167066813666758        6.4443593481263264       0.60000002384185791       0.60000002384185791       0.60000002384185791       0.80000001192092896     
   2.0596356306678940       -1.6145161335928884        6.7419956601630799       0.60000002384185791       0.60000002384185791       0.60000002384185791       0.80000001192092896     
   2.0596356399649696        1.6145161630502451        6.7419956285172296       0.60000002384185791       0.60000002384185791       0.60000002384185791       0.80000001192092896     
  -2.0871211620560941        1.6255343839380012        6.7162822050202546       0.60000002384185791       0.60000002384185791       0.60000002384185791       0.80000001192092896     
  -2.0871211628266639       -1.6255343876762638        6.7162822010073082       0.60000002384185791       0.60000002384185791       0.60000002384185791       0.80000001192092896     
   3.0554325578803563       -1.7513012628718496        6.5002036118646576       0.60000002384185791       0.60000002384185791       0.60000002384185791       0.80000001192092896     
   3.0554272827814115        1.7513005131534987        6.5001989414686063       0.60000002384185791       0.60000002384185791       0.60000002384185791       0.80000001192092896     
  -3.0407932355256597        1.7507622410997796        6.4436331781093568       0.60000002384185791       0.60000002384185791       0.60000002384185791       0.80000001192092896     
  -3.0407932343880475       -1.7507622497173108        6.4436331694557545       0.60000002384185791       0.60000002384185791       0.60000002384185791       0.80000001192092896     
   4.1255820870278148       -1.6571060503052484        6.6131129615011357       0.60000002384185791       0.60000002384185791       0.60000002384185791       0.80000001192092896     
   4.1255820418093530        1.6571060492832712        6.6131129683531942       0.60000002384185791       0.60000002384185791       0.60000002384185791       0.80000001192092896     
  -4.0869368019572256        1.6517945836713004        6.5595443288952930       0.60000002384185791       0.60000002384185791       0.60000002384185791       0.80000001192092896     
  -4.0869368024669566       -1.6517945859343368        6.5595443258115802       0.60000002384185791       0.60000002384185791       0.60000002384185791       0.80000001192092896     
   5.1148620435236056       -1.4334034729831362        6.6923056914507351       0.60000002384185791       0.60000002384185791       0.60000002384185791       0.80000001192092896     
   5.1148620435996000        1.4334034736652281        6.6923056906549965       0.60000002384185791       0.60000002384185791       0.60000002384185791       0.80000001192092896     
  -5.0830280086673838        1.4446396873164478        6.6182225672533166       0.60000002384185791       0.60000002384185791       0.60000002384185791       0.80000001192092896     
  -5.0830280088452167       -1.4446396844373453        6.6182225700164645       0.60000002384185791       0.60000002384185791       0.60000002384185791       0.80000001192092896     
   6.1001915382149630       -1.2753759810013872        6.7826905502790202       0.60000002384185791       0.60000002384185791       0.60000002384185791       0.80000001192092896     
   6.1001915383925311        1.2753759814378283        6.7826905497820533       0.60000002384185791       0.60000002384185791       0.60000002384185791       0.80000001192092896     
  -7.7245327839594857       -3.1384883348529235E-005   6.7112791838983146       0.60000002384185791       0.60000002384185791       0.60000002384185791       0.80000001192092896     
   8.1502617985074277        3.1055642671619901E-011   6.8460421476042352       0.60000002384185791       0.60000002384185791       0.60000002384185791       0.80000001192092896     
  -1.6887052984785726      -0.90098226089798017        4.1689736268658866       0.60000002384185791       0.60000002384185791       0.60000002384185791       0.80000001192092896     
  0.95479320482872498       -1.8680781950574010        5.0952766597122556       0.60000002384185791       0.60000002384185791       0.60000002384185791       0.80000001192092896     
  0.95478369118937412        1.8680799258816336        5.0952809379386483       0.60000002384185791       0.60000002384185791       0.60000002384185791       0.80000001192092896     
  -2.1047830239613328        1.6107083208563728        5.5268982913413396       0.60000002384185791       0.60000002384185791       0.60000002384185791       0.80000001192092896     
  -2.1047831776210950       -1.6107082494288092        5.5268987104480471       0.60000002384185791       0.60000002384185791       0.60000002384185791       0.80000001192092896     
   5.2088557836356901E-002  -1.9737557673597041        4.9276494736243608       0.60000002384185791       0.60000002384185791       0.60000002384185791       0.80000001192092896     
   5.2125045943984594E-002   1.9738087244502012        4.9276496897686144       0.60000002384185791       0.60000002384185791       0.60000002384185791       0.80000001192092896     
   2.1178472574948928        1.5883279733507951        5.6251390342331158       0.60000002384185791       0.60000002384185791       0.60000002384185791       0.80000001192092896     
   3.5690126409168652      -0.61951345015286374        2.8604699335027806        1.0000000000000000        1.0000000000000000        0.0000000000000000        1.0000000000000000     
 -0.79823729569739676       -1.8609732161457604        4.4492923893059277       0.60000002384185791       0.60000002384185791       0.60000002384185791       0.80000001192092896     
 -0.79823636946323284        1.8609740269232957        4.4492928727017436       0.60000002384185791       0.60000002384185791       0.60000002384185791       0.80000001192092896     
  -1.4030434121716424      -0.98107403599007825        2.7609725624528605       0.60000002384185791       0.60000002384185791       0.60000002384185791       0.80000001192092896     
  -1.4030401239948593       0.98107670006306336        2.7609689625026053       0.60000002384185791       0.60000002384185791       0.60000002384185791       0.80000001192092896     
  0.83126032749861434        1.8505226433776805        4.0345717511345729       0.60000002384185791       0.60000002384185791       0.60000002384185791       0.80000001192092896     
  0.83124605305140942       -1.8505211683605145        4.0345660490431481       0.60000002384185791       0.60000002384185791       0.60000002384185791       0.80000001192092896     
   5.5657639709613935       -1.3317066526553623        5.8334646222347937       0.60000002384185791       0.60000002384185791       0.60000002384185791       0.80000001192092896     
   5.5657639073062670        1.3317062525603109        5.8334650035708773       0.60000002384185791       0.60000002384185791       0.60000002384185791       0.80000001192092896     
   3.5690128812123429       0.61951331670267684        2.8604699335027806        1.0000000000000000        1.0000000000000000        0.0000000000000000        1.0000000000000000     
  -3.5402949233715555       0.65962345114355458        3.1375182682895115        1.0000000000000000        1.0000000000000000        0.0000000000000000        1.0000000000000000     
   1.7605230030239138        3.1290886091794835E-005   4.5998116062293102       0.60000002384185791       0.60000002384185791       0.60000002384185791       0.80000001192092896     
   1.1795323052603806        1.3912441941110671        3.7248382332402898       0.60000002384185791       0.60000002384185791       0.60000002384185791       0.80000001192092896     
   1.1795069034806480       -1.3912657720814829        3.7247941288628992       0.60000002384185791       0.60000002384185791       0.60000002384185791       0.80000001192092896     
  0.17469245969099859        1.8876579431488090        3.8160555304651234       0.60000002384185791       0.60000002384185791       0.60000002384185791       0.80000001192092896     
  0.17462883279900679       -1.8876541449994675        3.8160564603359837       0.60000002384185791       0.60000002384185791       0.60000002384185791       0.80000001192092896     
  -3.5402948135257843      -0.65962343409840207        3.1375182682895115        1.0000000000000000        1.0000000000000000        0.0000000000000000        1.0000000000000000     
  0.12049080680517556        1.8808845301737650E-007   1.0382578837327854        1.0000000000000000        1.0000000000000000        0.0000000000000000        1.0000000000000000     
   1.3595606574537227        3.1656595336669604E-007   3.2983028190296437       0.60000002384185791       0.60000002384185791       0.60000002384185791       0.80000001192092896     
  -5.2980300872420463        1.2940519010977489        5.5871747344975153       0.60000002384185791       0.60000002384185791       0.60000002384185791       0.80000001192092896     
  -5.2980300861027940       -1.2940518936112841        5.5871747333892472       0.60000002384185791       0.60000002384185791       0.60000002384185791       0.80000001192092896     
   4.5937447721765121       -1.5511969759449309        5.9124269528699234       0.60000002384185791       0.60000002384185791       0.60000002384185791       0.80000001192092896     
   4.5937773263381594        1.5511853409852745        5.9124148781085752       0.60000002384185791       0.60000002384185791       0.60000002384185791       0.80000001192092896     
  -2.1045437057532257        4.5649642836036525E-007   4.6728970382776369       0.60000002384185791       0.60000002384185791       0.60000002384185791       0.80000001192092896     
   2.1293414989228028       -7.1574837576589661E-006   4.8638801881922253       0.60000002384185791       0.60000002384185791       0.60000002384185791       0.80000001192092896     
   2.1178511889023262       -1.5883274380268781        5.6251187699283847       0.60000002384185791       0.60000002384185791       0.60000002384185791       0.80000001192092896     
   1.3094690682466654        1.7442421723245143        4.7755686059345175       0.60000002384185791       0.60000002384185791       0.60000002384185791       0.80000001192092896     
   6.6906828291382574       -1.1246568820816061        6.2163009960649687       0.60000002384185791       0.60000002384185791       0.60000002384185791       0.80000001192092896     
   6.6906828272844230        1.1246568800192545        6.2163010016232381       0.60000002384185791       0.60000002384185791       0.60000002384185791       0.80000001192092896     
   1.3094645481809717       -1.7442493281615346        4.7755452802262930       0.60000002384185791       0.60000002384185791       0.60000002384185791       0.80000001192092896     
 -0.96083518236629506        1.8862337304489272        5.3576322018624492       0.60000002384185791       0.60000002384185791       0.60000002384185791       0.80000001192092896     
 -0.55392730984518479       -1.6577846522889579        3.4124393901856971       0.60000002384185791       0.60000002384185791       0.60000002384185791       0.80000001192092896     
 -0.55392632725349655        1.6577860444929051        3.4124404848907384       0.60000002384185791       0.60000002384185791       0.60000002384185791       0.80000001192092896     
  -4.5356229004608029        1.5411314523337558        5.8862559072884473       0.60000002384185791       0.60000002384185791       0.60000002384185791       0.80000001192092896     
  -4.5356229033473072       -1.5411314543391188        5.8862559095403801       0.60000002384185791       0.60000002384185791       0.60000002384185791       0.80000001192092896     
  0.74856344303883238        1.6941900126967742        3.0738186351072305       0.60000002384185791       0.60000002384185791       0.60000002384185791       0.80000001192092896     
  0.74861022345403438       -1.6942182600503342        3.0738241426415853       0.60000002384185791       0.60000002384185791       0.60000002384185791       0.80000001192092896     
   5.3746880048522243      -0.97026288124105609        4.5533102308916336       0.60000002384185791       0.60000002384185791       0.60000002384185791       0.80000001192092896     
   5.3746892486471332       0.97026196800972586        4.5533106999175725       0.60000002384185791       0.60000002384185791       0.60000002384185791       0.80000001192092896     
   4.1132834856365319       -1.6264438155319212        5.4016729009029287       0.60000002384185791       0.60000002384185791       0.60000002384185791       0.80000001192092896     
   4.1132589144100491        1.6264158406734970        5.4016851974917239       0.60000002384185791       0.60000002384185791       0.60000002384185791       0.80000001192092896     
   3.1493047380385546       -1.6479213068700531        5.0780550284867338       0.60000002384185791       0.60000002384185791       0.60000002384185791       0.80000001192092896     
   3.1492448229423395        1.6478952278857741        5.0780770767220433       0.60000002384185791       0.60000002384185791       0.60000002384185791       0.80000001192092896     
  0.24056393033653514        1.7340354861930778        2.7377067577211216       0.60000002384185791       0.60000002384185791       0.60000002384185791       0.80000001192092896     
  0.24058141940176331       -1.7340160901869539        2.7377441527838910       0.60000002384185791       0.60000002384185791       0.60000002384185791       0.80000001192092896     
   1.0669948659409867        1.1226935194517744        2.7496042404998455       0.60000002384185791       0.60000002384185791       0.60000002384185791       0.80000001192092896     
   1.0669967543484646       -1.1226915822406911        2.7496022997020573       0.60000002384185791       0.60000002384185791       0.60000002384185791       0.80000001192092896     
  -4.0489959389244277        1.6044769847219738        5.4266594098944712       0.60000002384185791       0.60000002384185791       0.60000002384185791       0.80000001192092896     
  -4.0489959391542065       -1.6044769907758178        5.4266593994365326       0.60000002384185791       0.60000002384185791       0.60000002384185791       0.80000001192092896     
  -3.1310316145875432        1.6219957117626342        4.9953784419338962       0.60000002384185791       0.60000002384185791       0.60000002384185791       0.80000001192092896     
  -3.1310315238360311       -1.6219957967049692        4.9953783951656883       0.60000002384185791       0.60000002384185791       0.60000002384185791       0.80000001192092896     
   6.3367304947310483       -2.2865578219073182E-008   5.4568009634139214       0.60000002384185791       0.60000002384185791       0.60000002384185791       0.80000001192092896     
   2.5360594033614552        1.1655272634483875        4.6898497407087394       0.60000002384185791       0.60000002384185791       0.60000002384185791       0.80000001192092896     
   2.5361242717102743       -1.1654950479574893        4.6898522303521197       0.60000002384185791       0.60000002384185791       0.60000002384185791       0.80000001192092896     
   4.5647545437536508       -1.5202624482346754        4.8808946105400342       0.60000002384185791       0.60000002384185791       0.60000002384185791       0.80000001192092896     
   4.5647545062054196        1.5202601652262921        4.8808944984221192       0.60000002384185791       0.60000002384185791       0.60000002384185791       0.80000001192092896     
  -5.1220825499781979       0.95679836675415220        4.4696699023804785       0.60000002384185791       0.60000002384185791       0.60000002384185791       0.80000001192092896     
  -5.1220825520004389      -0.95679835755151599        4.4696698952438094       0.60000002384185791       0.60000002384185791       0.60000002384185791       0.80000001192092896     
 -0.44037833576559049       -1.5096844742747419        2.3580497755259269        1.0000000000000000       0.10000000149011612        0.0000000000000000       0.50000000000000000     
 -0.44037666874546749        1.5096881289704143        2.3580434070014160        1.0000000000000000       0.10000000149011612        0.0000000000000000       0.50000000000000000     
  -6.1055552995626430        5.8135745799011692E-008   5.5302738481432208       0.60000002384185791       0.60000002384185791       0.60000002384185791       0.80000001192092896     
   1.1861646577929379       -8.5417759754780263E-006   2.4703967275584429        1.0000000000000000       0.10000000149011612        0.0000000000000000       0.50000000000000000     
   2.4510386258089087      -0.35643957406134130        3.5748117495851908       0.60000002384185791       0.60000002384185791       0.60000002384185791       0.80000001192092896     
   2.4509972765909658       0.35641612664399230        3.5747972686993363       0.60000002384185791       0.60000002384185791       0.60000002384185791       0.80000001192092896     
  -2.5379824407999196        1.1966492267312405        4.6728775127343951       0.60000002384185791       0.60000002384185791       0.60000002384185791       0.80000001192092896     
  -2.5379977022800784       -1.1966595917979359        4.6728786486394629       0.60000002384185791       0.60000002384185791       0.60000002384185791       0.80000001192092896     
  -4.4189976555081865        1.4781683702518342        4.7513206800761134       0.60000002384185791       0.60000002384185791       0.60000002384185791       0.80000001192092896     
  -4.4189976636243049       -1.4781683687497638        4.7513206685520624       0.60000002384185791       0.60000002384185791       0.60000002384185791       0.80000001192092896     
  -1.4272462274551547      -0.87589303260668638        1.8623007412233192        1.0000000000000000       0.10000000149011612        0.0000000000000000       0.50000000000000000     
  -1.4272449071944262       0.87589484316382671        1.8623011534862901        1.0000000000000000       0.10000000149011612        0.0000000000000000       0.50000000000000000     
  0.71089252554471694        1.4352362586170939        2.1265737562698099        1.0000000000000000       0.10000000149011612        0.0000000000000000       0.50000000000000000     
  0.71090129792038859       -1.4352332480046677        2.1265749273300272        1.0000000000000000       0.10000000149011612        0.0000000000000000       0.50000000000000000     
 -0.96083541150351137       -1.8862336083847033        5.3576320874781764       0.60000002384185791       0.60000002384185791       0.60000002384185791       0.80000001192092896     
   4.0074413299172944       -1.5650258179581125        4.3945558438064189       0.60000002384185791       0.60000002384185791       0.60000002384185791       0.80000001192092896     
   4.0074465895073832        1.5650222348464782        4.3945590600763396       0.60000002384185791       0.60000002384185791       0.60000002384185791       0.80000001192092896     
   6.9148721021375392        4.2660124430456777E-010   5.7906337537027941        1.0000000000000000        1.0000000000000000        0.0000000000000000        1.0000000000000000     
   4.7462689106948730      -0.97082073186283424        3.5106691594852353       0.60000002384185791       0.60000002384185791       0.60000002384185791       0.80000001192092896     
   4.7462692463072127       0.97082073375748645        3.5106690501189233       0.60000002384185791       0.60000002384185791       0.60000002384185791       0.80000001192092896     
  0.14749431215742193        1.4430879668206122        1.8024486375534252        1.0000000000000000       0.10000000149011612        0.0000000000000000       0.50000000000000000     
  0.14751683711200672       -1.4430959875803777        1.8024814157490274        1.0000000000000000       0.10000000149011612        0.0000000000000000       0.50000000000000000     
   3.2514256480976131       -1.4422250436023976        4.1345241107705357       0.60000002384185791       0.60000002384185791       0.60000002384185791       0.80000001192092896     
   3.2514261214894766        1.4422204117638582        4.1345244612325711       0.60000002384185791       0.60000002384185791       0.60000002384185791       0.80000001192092896     
  -3.9017265168443931        1.4988830724471456        4.4242425142383652       0.60000002384185791       0.60000002384185791       0.60000002384185791       0.80000001192092896     
  -3.9017264719126041       -1.4988830721417126        4.4242424866465546       0.60000002384185791       0.60000002384185791       0.60000002384185791       0.80000001192092896     
  -6.8824598120334866        4.6717879078531848E-007   5.9876082903217620        1.0000000000000000        1.0000000000000000        0.0000000000000000        1.0000000000000000     
   4.3350490798846115       -1.3625832696968168        3.9629252149563534       0.60000002384185791       0.60000002384185791       0.60000002384185791       0.80000001192092896     
   4.3350506969826430        1.3625835341120607        3.9629257000253770       0.60000002384185791       0.60000002384185791       0.60000002384185791       0.80000001192092896     
  -2.4228024665495318       0.32285428252995002        3.7746926149466908       0.60000002384185791       0.60000002384185791       0.60000002384185791       0.80000001192092896     
  -2.4228030962895382      -0.32285387242774821        3.7746927511597548       0.60000002384185791       0.60000002384185791       0.60000002384185791       0.80000001192092896     
  0.94246402059118595       0.75173202166390019        1.9362212150916276        1.0000000000000000       0.10000000149011612        0.0000000000000000       0.50000000000000000     
  0.94246732098785291      -0.75172789214164937        1.9362197393887284        1.0000000000000000       0.10000000149011612        0.0000000000000000       0.50000000000000000     
   2.9329229362289024       -1.0753763127329345        3.8352986691046804       0.60000002384185791       0.60000002384185791       0.60000002384185791       0.80000001192092896     
   2.9329828289558035        1.0753848864352795        3.8352576342303175       0.60000002384185791       0.60000002384185791       0.60000002384185791       0.80000001192092896     
 -0.28577417478718142      -0.90835743405461478        1.6513826307956394        1.0000000000000000       0.10000000149011612        0.0000000000000000       0.50000000000000000     
 -0.28577280322360332       0.90835862434758041        1.6513794668226436        1.0000000000000000       0.10000000149011612        0.0000000000000000       0.50000000000000000     
  -3.2781029358475218        1.2867657411762217        4.1047730564168274       0.60000002384185791       0.60000002384185791       0.60000002384185791       0.80000001192092896     
  -3.2781024967677155       -1.2867661955358933        4.1047728055202732       0.60000002384185791       0.60000002384185791       0.60000002384185791       0.80000001192092896     
  -1.6887052485403982       0.90098391703117775        4.1689736014430006       0.60000002384185791       0.60000002384185791       0.60000002384185791       0.80000001192092896     
  -4.4945819628544523       0.80367819495436410        3.7535107918726922       0.60000002384185791       0.60000002384185791       0.60000002384185791       0.80000001192092896     
  -4.4945819442514372      -0.80367816097319722        3.7535107892268935       0.60000002384185791       0.60000002384185791       0.60000002384185791       0.80000001192092896     
  -3.9988885761129289        1.0729236381648255        3.9406179120235021       0.60000002384185791       0.60000002384185791       0.60000002384185791       0.80000001192092896     
  -3.9988884967008986       -1.0729236275649572        3.9406179148423508       0.60000002384185791       0.60000002384185791       0.60000002384185791       0.80000001192092896     
  
   3   0  24  57
   3   0  57  24
   3   0  57  98
   3   0  98 122
   3   0  98  57
   3   0 122  98
   3   0 122  28
   3   0  28 122
   4   0  28   1  98
   3   1  28 122
   4   1  28   0  98
   3   1 122  98
   3   1 122  28
   3   1  98  58
   3   1  98 122
   3   1  58  98
   3   1  58  25
   3   1  25  58
   3   2  35 110
   3   2  35  31
   3   2  31  35
   3   2  31   6
   3   2   6  31
   3   2   9 110
   3   2 110  35
   3   2 110   9
   3   3  29 113
   3   3  26  65
   3   3  65  26
   3   3  65 113
   3   3 113  29
   3   3 113  65
   3   4  29 113
   3   4 113  66
   3   4 113  29
   3   4  66 113
   3   4  66  27
   3   4  27  66
   3   5   7  32
   3   5  32  36
   3   5  32   7
   3   5  36  32
   3   5  36  68
   3   5  68  36
   3   5  68   8
   3   5   8  68
   3   6   2  31
   3   6  31   2
   3   6  31  63
   3   6  63  10
   3   6  63  31
   3   6  10  63
   3   7  11  37
   3   7  37  32
   3   7  37  11
   3   7  32  37
   3   7  32   5
   3   7   5  32
   3   8   5  68
   3   8  68   5
   3   8  68  33
   3   8  33  12
   3   8  33  68
   3   8  12  33
   3   9  13  34
   3   9  34 110
   3   9  34  13
   3   9 110  34
   3   9 110   2
   3   9   2 110
   3  10   6  63
   3  10  63  14
   3  10  63   6
   3  10  14  63
   3  11  15  37
   3  11  37   7
   3  11  37  15
   3  11   7  37
   3  12   8  33
   3  12  33  16
   3  12  33   8
   3  12  16  33
   3  13  17  34
   3  13  34   9
   3  13  34  17
   3  13   9  34
   3  14  10  63
   3  14  63  79
   3  14  63  10
   3  14  79  63
   3  14  79  77
   3  14  77  79
   3  14  77  18
   3  14  18  77
   3  15  19  78
   3  15  78  80
   3  15  78  19
   3  15  80  78
   3  15  80  37
   3  15  37  11
   3  15  37  80
   3  15  11  37
   3  16  12  33
   3  16  33  87
   3  16  33  12
   3  16  87  33
   3  16  87  85
   3  16  85  87
   3  16  85  20
   3  16  20  85
   3  17  21  86
   3  17  86  88
   3  17  86  21
   3  17  88  86
   3  17  88  34
   3  17  34  13
   3  17  34  88
   3  17  13  34
   3  18  14  77
   3  18  77  14
   3  18  77  59
   3  18  59  77
   3  18  59  22
   3  18  22  59
   3  19  23  60
   3  19  60  78
   3  19  60  23
   3  19  78  60
   3  19  78  15
   3  19  15  78
   3  20  16  85
   3  20  85  16
   3  20  85  71
   3  20  71  85
   3  20  71  24
   3  20  24  71
   3  21  25  72
   3  21  72  86
   3  21  72  25
   3  21  86  72
   3  21  86  17
   3  21  17  86
   3  22  18  59
   3  22  59  18
   3  22  59  45
   3  22  45  26
   3  22  45  59
   3  22  26  45
   3  23  27  46
   3  23  46  60
   3  23  46  27
   3  23  60  46
   3  23  60  19
   3  23  19  60
   3  24  20  71
   3  24  71  20
   3  24  71  57
   3  24  57   0
   3  24  57  71
   3  24   0  57
   3  25   1  58
   3  25  58   1
   3  25  58  72
   3  25  72  58
   3  25  72  21
   3  25  21  72
   3  26  22  45
   3  26  45  65
   3  26  45  22
   3  26  65   3
   3  26  65  45
   3  26   3  65
   3  27   4  66
   3  27  66   4
   3  27  66  46
   3  27  46  66
   3  27  46  23
   3  27  23  46
   3  28   0 122
   4  28   0  98   1
   3  28 122   0
   3  28 122   1
   3  28   1 122
   4  28   1  98   0
   3  29   3 113
   3  29 113   4
   3  29 113   3
   3  29   4 113
   3  30  34  61
   3  30  34  39
   3  30  61 135
   3  30  61  34
   3  30 135  61
   4  30 135  42  41
   3  30  41  69
   4  30  41  42 135
   3  30  69  41
   3  30  69  39
   3  30  39  34
   3  30  39  69
   3  31   2  35
   3  31   2   6
   3  31  35  44
   3  31  35   2
   3  31  44  67
   3  31  44  35
   3  31  67  63
   3  31  67  44
   3  31  63   6
   3  31  63  67
   3  31   6   2
   3  31   6  63
   3  32  37  64
   3  32  37   7
   3  32  64  37
   3  32  64  43
   3  32  43  36
   3  32  43  64
   3  32  36  43
   3  32  36   5
   3  32   5   7
   3  32   5  36
   3  32   7  37
   3  32   7   5
   3  33 102  61
   3  33 102  87
   3  33  87 102
   3  33  87  16
   3  33  16  12
   3  33  16  87
   3  33  12   8
   3  33  12  16
   3  33   8  68
   3  33   8  12
   3  33  68  40
   3  33  68   8
   3  33  40 135
   3  33  40  68
   3  33 135  40
   3  33 135  61
   3  33  61 135
   3  33  61 102
   3  34 103  88
   3  34 103  61
   3  34  61  30
   3  34  61 103
   3  34  30  61
   3  34  30  39
   3  34  39 110
   3  34  39  30
   3  34 110  39
   3  34 110   9
   3  34   9  13
   3  34   9 110
   3  34  13  17
   3  34  13   9
   3  34  17  88
   3  34  17  13
   3  34  88 103
   3  34  88  17
   3  35 110  39
   3  35 110   2
   3  35  39 110
   3  35  39  53
   3  35  53  44
   3  35  53  39
   3  35  44  31
   3  35  44  53
   3  35  31   2
   3  35  31  44
   3  35   2  31
   3  35   2 110
   3  36  32  43
   3  36  32   5
   3  36  43  32
   3  36  43  52
   3  36  52  40
   3  36  52  43
   3  36  40  68
   3  36  40  52
   3  36  68   5
   3  36  68  40
   3  36   5  32
   3  36   5  68
   3  37  90  80
   3  37  90  62
   3  37  62  49
   3  37  62  90
   3  37  49  62
   3  37  49  64
   3  37  64  49
   3  37  64  32
   3  37  32  64
   3  37  32   7
   3  37   7  11
   3  37   7  32
   3  37  11  15
   3  37  11   7
   3  37  15  80
   3  37  15  11
   3  37  80  90
   3  37  80  15
   3  38 114 123
   4  38 114 115  47
   3  38 123 114
   3  38 123 111
   3  38 111 118
   3  38 111 123
   3  38 118 111
   3  38 118 129
   3  38 129 118
   3  38 129 100
   3  38 100 129
   4  38 100 101  47
   3  39  35 110
   3  39  35  53
   3  39 110  34
   3  39 110  35
   3  39  34  30
   3  39  34 110
   3  39  30  34
   3  39  30  69
   3  39  69  30
   3  39  69  53
   3  39  53  35
   3  39  53  69
   3  40 135  33
   3  40 135  70
   3  40  33  68
   3  40  33 135
   3  40  68  36
   3  40  68  33
   3  40  36  52
   3  40  36  68
   3  40  52  36
   3  40  52  70
   3  40  70  52
   3  40  70 135
   3  41 106 131
   4  41 106 107  42
   3  41 131  96
   3  41 131 106
   3  41  96  69
   3  41  96 131
   3  41  69  30
   3  41  69  96
   3  41  30  69
   4  41  30 135  42
   3  42 107 132
   4  42 107 106  41
   3  42 135  70
   4  42 135  30  41
   3  42  70  97
   3  42  70 135
   3  42  97  70
   3  42  97 132
   3  42 132 107
   3  42 132  97
   3  43  36  32
   3  43  36  52
   3  43  32  64
   3  43  32  36
   3  43  64  50
   3  43  64  32
   3  43  50  64
   3  43  50  73
   3  43  73  50
   3  43  73  52
   3  43  52  36
   3  43  52  73
   3  44  67  51
   3  44  67  31
   3  44  31  35
   3  44  31  67
   3  44  35  53
   3  44  35  31
   3  44  53  35
   3  44  53  74
   3  44  74  53
   3  44  74  51
   3  44  51  67
   3  44  51  74
   3  45  65  26
   3  45  65  89
   3  45  26  22
   3  45  26  65
   3  45  22  59
   3  45  22  26
   3  45  59  92
   3  45  59  22
   3  45  92  75
   3  45  92  59
   3  45  75  89
   3  45  75  92
   3  45  89  75
   3  45  89  65
   3  46  66  89
   3  46  66  27
   3  46  89  76
   3  46  89  66
   3  46  76  89
   3  46  76  93
   3  46  93  60
   3  46  93  76
   3  46  60  93
   3  46  60  23
   3  46  23  27
   3  46  23  60
   3  46  27  66
   3  46  27  23
   3  47 115 124
   4  47 115 114  38
   3  47 101 130
   4  47 101 100  38
   3  47 130 101
   3  47 130 119
   3  47 119 112
   3  47 119 130
   3  47 112 124
   3  47 112 119
   3  47 124 112
   3  47 124 115
   3  48 136 138
   4  48 136 137  54
   3  48 138 136
   3  48 138 120
   3  48 120 133
   3  48 120 138
   3  48 133 120
   3  48 133 102
   3  48 102 133
   4  48 102  61 125
   3  49  37  62
   3  49  37  64
   3  49  62  37
   3  49  62  63
   3  49  63  67
   3  49  63  62
   3  49  67  51
   3  49  67  63
   3  49  51  67
   3  49  51  56
   3  49  56  51
   3  49  56  50
   3  49  50  64
   3  49  50  56
   3  49  64  37
   3  49  64  50
   3  50  43  64
   3  50  43  73
   3  50  64  49
   3  50  64  43
   3  50  49  56
   3  50  49  64
   3  50  56  83
   3  50  56  49
   3  50  83  56
   3  50  83  73
   3  50  73  83
   3  50  73  43
   3  51  49  67
   3  51  49  56
   3  51  67  49
   3  51  67  44
   3  51  44  67
   3  51  44  74
   3  51  74  84
   3  51  74  44
   3  51  84  74
   3  51  84  56
   3  51  56  84
   3  51  56  49
   3  52  40  36
   3  52  40  70
   3  52  36  43
   3  52  36  40
   3  52  43  36
   3  52  43  73
   3  52  73  81
   3  52  73  43
   3  52  81  73
   3  52  81  70
   3  52  70  81
   3  52  70  40
   3  53  44  35
   3  53  44  74
   3  53  35  39
   3  53  35  44
   3  53  39  35
   3  53  39  69
   3  53  69  82
   3  53  69  39
   3  53  82  69
   3  53  82  74
   3  53  74  82
   3  53  74  44
   3  54 137 139
   4  54 137 136  48
   3  54 103 134
   4  54 103  88 121
   3  54 134 103
   3  54 134 121
   3  54 121 139
   3  54 121 134
   3  54 139 121
   3  54 139 137
   3  55 116 108
   3  55 116 132
   3  55 108 127
   3  55 108 116
   3  55 127 108
   3  55 127  99
   3  55  99 128
   3  55  99 127
   3  55 128  99
   3  55 128 109
   3  55 109 117
   3  55 109 128
   3  55 117 109
   3  55 117 131
   3  55 131 117
   3  55 131 106
   3  55 106 107
   3  55 106 131
   3  55 107 132
   3  55 107 106
   3  55 132 107
   3  55 132 116
   3  56  51  49
   3  56  51  84
   3  56  84  99
   3  56  84  51
   3  56  99  83
   3  56  99  84
   3  56  83  99
   3  56  83  50
   3  56  50  49
   3  56  50  83
   3  56  49  51
   3  56  49  50
   3  57   0  24
   3  57   0  98
   3  57  24  71
   3  57  24   0
   3  57  71 104
   3  57  71  24
   3  57 104  94
   3  57 104  71
   3  57  94  98
   3  57  94 104
   3  57  98  94
   3  57  98   0
   3  58   1  98
   3  58   1  25
   3  58  98  95
   3  58  98   1
   3  58  95 105
   3  58  95  98
   3  58 105  72
   3  58 105  95
   3  58  72 105
   3  58  72  25
   3  58  25   1
   3  58  25  72
   3  59  18  77
   3  59  18  22
   3  59  77  92
   3  59  77  18
   3  59  92  45
   3  59  92  77
   3  59  45  22
   3  59  45  92
   3  59  22  18
   3  59  22  45
   3  60  46  93
   3  60  46  23
   3  60  93  78
   3  60  93  46
   3  60  78  93
   3  60  78  19
   3  60  19  23
   3  60  19  78
   3  60  23  46
   3  60  23  19
   3  61 135  33
   3  61 135  30
   3  61  30  34
   3  61  30 135
   3  61  34 103
   3  61  34  30
   3  61 103  34
   4  61 103  54 126
   3  61 126 125
   4  61 126  54 103
   3  61 125 126
   4  61 125  48 102
   3  61 102  33
   4  61 102  48 125
   3  61  33 102
   3  61  33 135
   3  62  49  37
   3  62  49  63
   3  62  37  90
   3  62  37  49
   3  62  90 130
   3  62  90  37
   3  62 130 101
   3  62 130  90
   3  62 101 100
   3  62 101 130
   3  62 100 129
   3  62 100 101
   3  62 129  91
   3  62 129 100
   3  62  91  63
   3  62  91 129
   3  62  63  91
   3  62  63  49
   3  63  91  79
   3  63  91  62
   3  63  79  91
   3  63  79  14
   3  63  14  10
   3  63  14  79
   3  63  10   6
   3  63  10  14
   3  63   6  31
   3  63   6  10
   3  63  31  67
   3  63  31   6
   3  63  67  49
   3  63  67  31
   3  63  49  62
   3  63  49  67
   3  63  62  49
   3  63  62  91
   3  64  37  49
   3  64  37  32
   3  64  49  37
   3  64  49  50
   3  64  50  43
   3  64  50  49
   3  64  43  32
   3  64  43  50
   3  64  32  37
   3  64  32  43
   3  65   3  26
   3  65   3 113
   3  65  26  45
   3  65  26   3
   3  65  45  26
   3  65  45  89
   3  65  89 113
   3  65  89  45
   3  65 113  89
   3  65 113   3
   3  66   4 113
   3  66   4  27
   3  66 113  89
   3  66 113   4
   3  66  89  46
   3  66  89 113
   3  66  46  89
   3  66  46  27
   3  66  27   4
   3  66  27  46
   3  67  51  49
   3  67  51  44
   3  67  49  63
   3  67  49  51
   3  67  63  31
   3  67  63  49
   3  67  31  44
   3  67  31  63
   3  67  44  31
   3  67  44  51
   3  68   5  36
   3  68   5   8
   3  68  36  40
   3  68  36   5
   3  68  40  33
   3  68  40  36
   3  68  33   8
   3  68  33  40
   3  68   8   5
   3  68   8  33
   3  69  30  41
   3  69  30  39
   3  69  41  96
   3  69  41  30
   3  69  96  82
   3  69  96  41
   3  69  82  96
   3  69  82  53
   3  69  53  39
   3  69  53  82
   3  69  39  30
   3  69  39  53
   3  70  52  40
   3  70  52  81
   3  70  81  97
   3  70  81  52
   3  70  97  42
   3  70  97  81
   3  70  42 135
   3  70  42  97
   3  70 135  40
   3  70 135  42
   3  70  40 135
   3  70  40  52
   3  71  20  85
   3  71  20  24
   3  71  85 104
   3  71  85  20
   3  71 104  57
   3  71 104  85
   3  71  57  24
   3  71  57 104
   3  71  24  20
   3  71  24  57
   3  72  58 105
   3  72  58  25
   3  72 105  86
   3  72 105  58
   3  72  86 105
   3  72  86  21
   3  72  21  25
   3  72  21  86
   3  72  25  58
   3  72  25  21
   3  73  50  43
   3  73  50  83
   3  73  83 108
   3  73  83  50
   3  73 108  81
   3  73 108  83
   3  73  81 108
   3  73  81  52
   3  73  52  43
   3  73  52  81
   3  73  43  50
   3  73  43  52
   3  74  53  44
   3  74  53  82
   3  74  82 109
   3  74  82  53
   3  74 109  84
   3  74 109  82
   3  74  84 109
   3  74  84  51
   3  74  51  44
   3  74  51  84
   3  74  44  53
   3  74  44  51
   3  75 114 123
   4  75 114 115  76
   3  75  76  89
   4  75  76 115 114
   3  75  89  76
   3  75  89  45
   3  75  45  92
   3  75  45  89
   3  75  92  45
   3  75  92 123
   3  75 123 114
   3  75 123  92
   3  76  46  89
   3  76  46  93
   3  76  89  75
   3  76  89  46
   3  76  75  89
   4  76  75 114 115
   3  76 115 124
   4  76 115 114  75
   3  76 124  93
   3  76 124 115
   3  76  93  46
   3  76  93 124
   3  77  14  79
   3  77  14  18
   3  77  79 111
   3  77  79  14
   3  77 111  92
   3  77 111  79
   3  77  92  59
   3  77  92 111
   3  77  59  18
   3  77  59  92
   3  77  18  14
   3  77  18  59
   3  78  60  93
   3  78  60  19
   3  78  93  60
   3  78  93 112
   3  78 112  80
   3  78 112  93
   3  78  80 112
   3  78  80  15
   3  78  15  19
   3  78  15  80
   3  78  19  60
   3  78  19  15
   3  79  63  91
   3  79  63  14
   3  79  91  63
   3  79  91 118
   3  79 118 111
   3  79 118  91
   3  79 111  77
   3  79 111 118
   3  79  77  14
   3  79  77 111
   3  79  14  63
   3  79  14  77
   3  80  78 112
   3  80  78  15
   3  80 112  78
   3  80 112 119
   3  80 119  90
   3  80 119 112
   3  80  90 119
   3  80  90  37
   3  80  37  90
   3  80  37  15
   3  80  15  78
   3  80  15  37
   3  81  73 108
   3  81  73  52
   3  81 108  73
   3  81 108 116
   3  81 116  97
   3  81 116 108
   3  81  97  70
   3  81  97 116
   3  81  70  52
   3  81  70  97
   3  81  52  73
   3  81  52  70
   3  82  69  96
   3  82  69  53
   3  82  96  69
   3  82  96 117
   3  82 117 109
   3  82 117  96
   3  82 109  74
   3  82 109 117
   3  82  74  53
   3  82  74 109
   3  82  53  69
   3  82  53  74
   3  83  56  99
   3  83  56  50
   3  83  99  56
   3  83  99 127
   3  83 127 108
   3  83 127  99
   3  83 108  73
   3  83 108 127
   3  83  73  50
   3  83  73 108
   3  83  50  56
   3  83  50  73
   3  84  74 109
   3  84  74  51
   3  84 109  74
   3  84 109 128
   3  84 128  99
   3  84 128 109
   3  84  99  56
   3  84  99 128
   3  84  56  51
   3  84  56  99
   3  84  51  74
   3  84  51  56
   3  85  16  87
   3  85  16  20
   3  85  87 120
   3  85  87  16
   3  85 120 104
   3  85 120  87
   3  85 104  71
   3  85 104 120
   3  85  71  20
   3  85  71 104
   3  85  20  16
   3  85  20  71
   3  86  72 105
   3  86  72  21
   3  86 105  72
   3  86 105 121
   3  86 121  88
   3  86 121 105
   3  86  88 121
   3  86  88  17
   3  86  17  21
   3  86  17  88
   3  86  21  72
   3  86  21  17
   3  87  33 102
   3  87  33  16
   3  87 102 133
   3  87 102  33
   3  87 133 120
   3  87 133 102
   3  87 120  85
   3  87 120 133
   3  87  85  16
   3  87  85 120
   3  87  16  33
   3  87  16  85
   3  88  86 121
   3  88  86  17
   3  88 121  86
   3  88 121 134
   3  88 134 103
   3  88 134 121
   3  88 103 134
   3  88 103  34
   3  88  34 103
   3  88  34  17
   3  88  17  86
   3  88  17  34
   3  89  75  76
   3  89  75  45
   3  89  76  46
   3  89  76  75
   3  89  46  66
   3  89  46  76
   3  89  66 113
   3  89  66  46
   3  89 113  66
   3  89 113  65
   3  89  65  45
   3  89  65 113
   3  89  45  65
   3  89  45  75
   3  90  80 119
   3  90  80  37
   3  90 119  80
   3  90 119 130
   3  90 130  62
   3  90 130 119
   3  90  62  37
   3  90  62 130
   3  90  37  62
   3  90  37  80
   3  91  79  63
   3  91  79 118
   3  91  63  79
   3  91  63  62
   3  91  62 129
   3  91  62  63
   3  91 129 118
   3  91 129  62
   3  91 118  79
   3  91 118 129
   3  92  75  45
   3  92  75 123
   3  92  45  59
   3  92  45  75
   3  92  59  77
   3  92  59  45
   3  92  77 111
   3  92  77  59
   3  92 111  77
   3  92 111 123
   3  92 123  75
   3  92 123 111
   3  93  78  60
   3  93  78 112
   3  93  60  46
   3  93  60  78
   3  93  46  76
   3  93  46  60
   3  93  76  46
   3  93  76 124
   3  93 124 112
   3  93 124  76
   3  93 112  78
   3  93 112 124
   3  94 136 138
   4  94 136 137  95
   3  94  95  98
   4  94  95 137 136
   3  94  98  95
   3  94  98  57
   3  94  57 104
   3  94  57  98
   3  94 104  57
   3  94 104 138
   3  94 138 136
   3  94 138 104
   3  95 137 139
   4  95 137 136  94
   3  95 139 105
   3  95 139 137
   3  95 105  58
   3  95 105 139
   3  95  58  98
   3  95  58 105
   3  95  98  94
   3  95  98  58
   3  95  94  98
   4  95  94 136 137
   3  96  82  69
   3  96  82 117
   3  96  69  41
   3  96  69  82
   3  96  41 131
   3  96  41  69
   3  96 131 117
   3  96 131  41
   3  96 117  82
   3  96 117 131
   3  97  42  70
   3  97  42 132
   3  97  70  81
   3  97  70  42
   3  97  81 116
   3  97  81  70
   3  97 116  81
   3  97 116 132
   3  97 132  42
   3  97 132 116
   3  98  94  95
   3  98  94  57
   3  98  95  58
   3  98  95  94
   3  98  58   1
   3  98  58  95
   3  98   1 122
   3  98   1  58
   3  98 122   0
   3  98 122   1
   3  98   0  57
   3  98   0 122
   3  98  57   0
   3  98  57  94
   3  99  83  56
   3  99  83 127
   3  99  56  84
   3  99  56  83
   3  99  84 128
   3  99  84  56
   3  99 128  84
   3  99 128  55
   3  99  55 127
   3  99  55 128
   3  99 127  83
   3  99 127  55
   3 100  38 129
   4 100  38  47 101
   3 100 129  62
   3 100 129  38
   3 100  62 101
   3 100  62 129
   3 100 101  62
   4 100 101  47  38
   3 101  47 130
   4 101  47  38 100
   3 101 100  62
   4 101 100  38  47
   3 101  62 130
   3 101  62 100
   3 101 130  62
   3 101 130  47
   3 102  61  33
   4 102  61 125  48
   3 102  48 133
   4 102  48 120  87
   3 102 133  87
   3 102 133  48
   3 102  87  33
   3 102  87 133
   3 102  33  87
   3 102  33  61
   3 103  88 134
   3 103  88  34
   3 103 134  88
   3 103 134  54
   3 103  54 134
   4 103  54 126  61
   3 103  61  34
   4 103  61 126  54
   3 103  34  61
   3 103  34  88
   3 104  94  57
   3 104  94 138
   3 104  57  71
   3 104  57  94
   3 104  71  85
   3 104  71  57
   3 104  85 120
   3 104  85  71
   3 104 120  85
   3 104 120 138
   3 104 138  94
   3 104 138 120
   3 105  86  72
   3 105  86 121
   3 105  72  58
   3 105  72  86
   3 105  58  95
   3 105  58  72
   3 105  95 139
   3 105  95  58
   3 105 139 121
   3 105 139  95
   3 105 121  86
   3 105 121 139
   3 106  41 131
   4 106  41  42 107
   3 106 107  55
   4 106 107  42  41
   3 106  55 131
   3 106  55 107
   3 106 131  41
   3 106 131  55
   3 107  42 132
   4 107  42  41 106
   3 107 132  42
   3 107 132  55
   3 107  55 106
   3 107  55 132
   3 107 106  55
   4 107 106  41  42
   3 108  81  73
   3 108  81 116
   3 108  73  83
   3 108  73  81
   3 108  83 127
   3 108  83  73
   3 108 127  83
   3 108 127  55
   3 108  55 116
   3 108  55 127
   3 108 116  81
   3 108 116  55
   3 109  84  74
   3 109  84 128
   3 109  74  82
   3 109  74  84
   3 109  82 117
   3 109  82  74
   3 109 117  82
   3 109 117  55
   3 109  55 128
   3 109  55 117
   3 109 128  84
   3 109 128  55
   3 110  34  39
   3 110  34   9
   3 110  39  35
   3 110  39  34
   3 110  35  39
   3 110  35   2
   3 110   2  35
   3 110   2   9
   3 110   9  34
   3 110   9   2
   3 111  92  77
   3 111  92 123
   3 111  77  79
   3 111  77  92
   3 111  79 118
   3 111  79  77
   3 111 118  79
   3 111 118  38
   3 111  38 123
   3 111  38 118
   3 111 123  92
   3 111 123  38
   3 112  80  78
   3 112  80 119
   3 112  78  93
   3 112  78  80
   3 112  93  78
   3 112  93 124
   3 112 124  93
   3 112 124  47
   3 112  47 119
   3 112  47 124
   3 112 119  80
   3 112 119  47
   3 113  89  66
   3 113  89  65
   3 113  66   4
   3 113  66  89
   3 113   4  29
   3 113   4  66
   3 113  29   3
   3 113  29   4
   3 113   3  29
   3 113   3  65
   3 113  65   3
   3 113  65  89
   3 114  38 123
   4 114  38  47 115
   3 114  75 123
   4 114  75  76 115
   3 114 123  75
   3 114 123  38
   3 115  47 124
   4 115  47  38 114
   3 115 124  76
   3 115 124  47
   3 115  76 124
   4 115  76  75 114
   3 116  97  81
   3 116  97 132
   3 116  81 108
   3 116  81  97
   3 116 108  81
   3 116 108  55
   3 116  55 108
   3 116  55 132
   3 116 132  97
   3 116 132  55
   3 117 109  82
   3 117 109  55
   3 117  82  96
   3 117  82 109
   3 117  96  82
   3 117  96 131
   3 117 131  96
   3 117 131  55
   3 117  55 109
   3 117  55 131
   3 118 111  79
   3 118 111  38
   3 118  79  91
   3 118  79 111
   3 118  91  79
   3 118  91 129
   3 118 129  91
   3 118 129  38
   3 118  38 111
   3 118  38 129
   3 119  90  80
   3 119  90 130
   3 119  80 112
   3 119  80  90
   3 119 112  80
   3 119 112  47
   3 119  47 130
   3 119  47 112
   3 119 130  90
   3 119 130  47
   3 120 104  85
   3 120 104 138
   3 120  85  87
   3 120  85 104
   3 120  87 133
   3 120  87  85
   3 120 133  87
   3 120 133  48
   3 120  48 138
   3 120  48 133
   3 120 138 104
   3 120 138  48
   3 121  88  86
   3 121  88 134
   3 121  86 105
   3 121  86  88
   3 121 105  86
   3 121 105 139
   3 121 139 105
   3 121 139  54
   3 121  54 134
   3 121  54 139
   3 121 134  88
   3 121 134  54
   3 122   0  98
   3 122   0  28
   3 122  98   1
   3 122  98   0
   3 122   1  28
   3 122   1  98
   3 122  28   0
   3 122  28   1
   3 123 114  38
   3 123 114  75
   3 123  75 114
   3 123  75  92
   3 123  92  75
   3 123  92 111
   3 123 111  92
   3 123 111  38
   3 123  38 114
   3 123  38 111
   3 124 112  93
   3 124 112  47
   3 124  93  76
   3 124  93 112
   3 124  76 115
   3 124  76  93
   3 124 115  47
   3 124 115  76
   3 124  47 115
   3 124  47 112
   3 125  61 126
   4 125  61 102  48
   3 125 126  61
   4 125 126  54  48
   3 126 125  61
   4 126 125  48  54
   3 126  61 125
   4 126  61 103  54
   3 127 108  83
   3 127 108  55
   3 127  83  99
   3 127  83 108
   3 127  99  83
   3 127  99  55
   3 127  55 108
   3 127  55  99
   3 128  99  84
   3 128  99  55
   3 128  84 109
   3 128  84  99
   3 128 109  84
   3 128 109  55
   3 128  55  99
   3 128  55 109
   3 129 118  91
   3 129 118  38
   3 129  91  62
   3 129  91 118
   3 129  62 100
   3 129  62  91
   3 129 100  38
   3 129 100  62
   3 129  38 118
   3 129  38 100
   3 130 101  47
   3 130 101  62
   3 130  62  90
   3 130  62 101
   3 130  90 119
   3 130  90  62
   3 130 119  90
   3 130 119  47
   3 130  47 101
   3 130  47 119
   3 131 117  96
   3 131 117  55
   3 131  96  41
   3 131  96 117
   3 131  41 106
   3 131  41  96
   3 131 106  41
   3 131 106  55
   3 131  55 117
   3 131  55 106
   3 132 107  42
   3 132 107  55
   3 132  42 107
   3 132  42  97
   3 132  97  42
   3 132  97 116
   3 132 116  97
   3 132 116  55
   3 132  55 116
   3 132  55 107
   3 133 120  87
   3 133 120  48
   3 133  87 102
   3 133  87 120
   3 133 102  48
   3 133 102  87
   3 133  48 120
   3 133  48 102
   3 134 103  88
   3 134 103  54
   3 134  88 121
   3 134  88 103
   3 134 121  88
   3 134 121  54
   3 134  54 103
   3 134  54 121
   3 135  33  40
   3 135  33  61
   3 135  40  33
   3 135  40  70
   3 135  70  42
   3 135  70  40
   3 135  42  70
   4 135  42  41  30
   3 135  30  61
   4 135  30  41  42
   3 135  61  30
   3 135  61  33
   3 136  48 138
   4 136  48  54 137
   3 136  94 138
   4 136  94  95 137
   3 136 138  94
   3 136 138  48
   3 137  54 139
   4 137  54  48 136
   3 137 139  95
   3 137 139  54
   3 137  95 139
   4 137  95  94 136
   3 138 136  48
   3 138 136  94
   3 138  94 136
   3 138  94 104
   3 138 104  94
   3 138 104 120
   3 138 120 104
   3 138 120  48
   3 138  48 136
   3 138  48 120
   3 139 121 105
   3 139 121  54
   3 139 105  95
   3 139 105 121
   3 139  95 137
   3 139  95 105
   3 139 137  54
   3 139 137  95
   3 139  54 137
   3 139  54 121
