 COFF
         155        1640         155
  
  -6.6195026076807508        1.2172627316477840        7.0064430382425424       0.60000002384185791       0.60000002384185791       0.60000002384185791       0.80000001192092896     
  -6.6195042677964349       -1.2172614019973351        7.0064434199385364       0.60000002384185791       0.60000002384185791       0.60000002384185791       0.80000001192092896     
  -3.3386992719692310E-002  -2.3103405334456411        6.6706373891571049       0.60000002384185791       0.60000002384185791       0.60000002384185791       0.80000001192092896     
   7.5021727609757827       -1.1163531336551136        7.1531321928111788       0.60000002384185791       0.60000002384185791       0.60000002384185791       0.80000001192092896     
   7.5021715106113396        1.1163538306223153        7.1531321568216866       0.60000002384185791       0.60000002384185791       0.60000002384185791       0.80000001192092896     
  -3.3386994143125813E-002   2.3103405194640745        6.6706374022673822       0.60000002384185791       0.60000002384185791       0.60000002384185791       0.80000001192092896     
   1.1615824360537479       -1.9883104602454824        6.8130504697283527       0.60000002384185791       0.60000002384185791       0.60000002384185791       0.80000001192092896     
   1.1615824375713533        1.9883104787373869        6.8130504496950657       0.60000002384185791       0.60000002384185791       0.60000002384185791       0.80000001192092896     
  -1.1814232872128445        1.9750829718211462        6.7796015609580893       0.60000002384185791       0.60000002384185791       0.60000002384185791       0.80000001192092896     
  -1.1814232887839786       -1.9750829804116130        6.7796015520737871       0.60000002384185791       0.60000002384185791       0.60000002384185791       0.80000001192092896     
   2.0694205754576909       -1.6695057482890581        7.0863590189804073       0.60000002384185791       0.60000002384185791       0.60000002384185791       0.80000001192092896     
   2.0694205866290853        1.6695057804101439        7.0863589826249385       0.60000002384185791       0.60000002384185791       0.60000002384185791       0.80000001192092896     
  -2.0963562793582922        1.6828594161118149        7.0581399312166893       0.60000002384185791       0.60000002384185791       0.60000002384185791       0.80000001192092896     
  -2.0963562806780254       -1.6828594243474224        7.0581399226116490       0.60000002384185791       0.60000002384185791       0.60000002384185791       0.80000001192092896     
   3.0537611426421338       -1.8206989158705316        6.8251301854030029       0.60000002384185791       0.60000002384185791       0.60000002384185791       0.80000001192092896     
   3.0537484904218273        1.8206968073498124        6.8251184848370796       0.60000002384185791       0.60000002384185791       0.60000002384185791       0.80000001192092896     
  -3.0407659117795105        1.8253813467977225        6.7626298398736919       0.60000002384185791       0.60000002384185791       0.60000002384185791       0.80000001192092896     
  -3.0407659108198977       -1.8253813598302457        6.7626298265022129       0.60000002384185791       0.60000002384185791       0.60000002384185791       0.80000001192092896     
   4.1350156028973899       -1.7165784659968539        6.9486014956277318       0.60000002384185791       0.60000002384185791       0.60000002384185791       0.80000001192092896     
   4.1350155019444363        1.7165784533764754        6.9486015219139698       0.60000002384185791       0.60000002384185791       0.60000002384185791       0.80000001192092896     
  -4.0967119460288428        1.7153199572645439        6.8904230349594160       0.60000002384185791       0.60000002384185791       0.60000002384185791       0.80000001192092896     
  -4.0967119469778304       -1.7153199553755452        6.8904230358513052       0.60000002384185791       0.60000002384185791       0.60000002384185791       0.80000001192092896     
   5.1258021579448938       -1.4920877907353181        7.0322813076427169       0.60000002384185791       0.60000002384185791       0.60000002384185791       0.80000001192092896     
   5.1258021535796150        1.4920877882054171        7.0322813104504949       0.60000002384185791       0.60000002384185791       0.60000002384185791       0.80000001192092896     
  -5.0954673507498383        1.5057357370344593        6.9545327800522365       0.60000002384185791       0.60000002384185791       0.60000002384185791       0.80000001192092896     
  -5.0954673529848415       -1.5057356824408601        6.9545328334120837       0.60000002384185791       0.60000002384185791       0.60000002384185791       0.80000001192092896     
   6.1115906274135519       -1.3427139739617253        7.1171042743192521       0.60000002384185791       0.60000002384185791       0.60000002384185791       0.80000001192092896     
   6.1115906243928384        1.3427139783077566        7.1171042707855330       0.60000002384185791       0.60000002384185791       0.60000002384185791       0.80000001192092896     
  -7.8379480606516472       -5.6256075965852910E-005   7.0224870981968532       0.60000002384185791       0.60000002384185791       0.60000002384185791       0.80000001192092896     
   8.6200310749731521       -3.7258413088806451E-007   7.1527638411732672       0.60000002384185791       0.60000002384185791       0.60000002384185791       0.80000001192092896     
  -1.6929576387981196      -0.95061926016575871        4.4470283440264540       0.60000002384185791       0.60000002384185791       0.60000002384185791       0.80000001192092896     
  0.97577160125972029       -1.9216997047379294        5.3929512375805633       0.60000002384185791       0.60000002384185791       0.60000002384185791       0.80000001192092896     
  0.97575850257288366        1.9216989748289091        5.3929325599879494       0.60000002384185791       0.60000002384185791       0.60000002384185791       0.80000001192092896     
  -2.1238588629321260        1.6756953037273759        5.8394185025169492       0.60000002384185791       0.60000002384185791       0.60000002384185791       0.80000001192092896     
  -2.1238589502634064       -1.6756955181615183        5.8394187883050135       0.60000002384185791       0.60000002384185791       0.60000002384185791       0.80000001192092896     
   5.2455908543617195E-002  -2.0287670803608786        5.2216712838316868       0.60000002384185791       0.60000002384185791       0.60000002384185791       0.80000001192092896     
   5.2339060481624518E-002   2.0286966164321223        5.2216714669295952       0.60000002384185791       0.60000002384185791       0.60000002384185791       0.80000001192092896     
   2.1342696889151003        1.6443864282907541        5.9335854268024839       0.60000002384185791       0.60000002384185791       0.60000002384185791       0.80000001192092896     
   3.6018909626578215      -0.61922888039895063        2.8604699335027806        1.0000000000000000        1.0000000000000000        0.0000000000000000        1.0000000000000000     
 -0.81529347661420415       -1.9145369468921318        4.7617020533770811       0.60000002384185791       0.60000002384185791       0.60000002384185791       0.80000001192092896     
 -0.81529214748113987        1.9145326567190601        4.7617028357831375       0.60000002384185791       0.60000002384185791       0.60000002384185791       0.80000001192092896     
  -1.3735143915127064      -0.98661839293695330        2.9796819651077358       0.60000002384185791       0.60000002384185791       0.60000002384185791       0.80000001192092896     
  -1.3735160071529715       0.98661684588435139        2.9796854282850083       0.60000002384185791       0.60000002384185791       0.60000002384185791       0.80000001192092896     
  0.85074901444339079        1.8921529802643178        4.3190832698940058       0.60000002384185791       0.60000002384185791       0.60000002384185791       0.80000001192092896     
  0.85075895460157713       -1.8921665850396010        4.3190686937077540       0.60000002384185791       0.60000002384185791       0.60000002384185791       0.80000001192092896     
   5.5803543234216031       -1.3948223614509190        6.1508947151817992       0.60000002384185791       0.60000002384185791       0.60000002384185791       0.80000001192092896     
   5.5803541490659301        1.3948222936550692        6.1508944949163391       0.60000002384185791       0.60000002384185791       0.60000002384185791       0.80000001192092896     
   3.6018917282360641       0.61922827919484535        2.8604699335027806        1.0000000000000000        1.0000000000000000        0.0000000000000000        1.0000000000000000     
  -3.5350591171904497       0.65988594570665604        3.1375182682895115        1.0000000000000000        1.0000000000000000        0.0000000000000000        1.0000000000000000     
   1.8084137157750360        1.0588512421766093E-005   4.8011112542984762       0.60000002384185791       0.60000002384185791       0.60000002384185791       0.80000001192092896     
   1.1925956729508707        1.4423970859514024        3.9883680316276746       0.60000002384185791       0.60000002384185791       0.60000002384185791       0.80000001192092896     
   1.1925991697125529       -1.4424035587295096        3.9883510939412945       0.60000002384185791       0.60000002384185791       0.60000002384185791       0.80000001192092896     
  0.18314698642465427        1.9363501133617929        4.0846571835486785       0.60000002384185791       0.60000002384185791       0.60000002384185791       0.80000001192092896     
  0.18320283251771929       -1.9363625655243857        4.0846585785883800       0.60000002384185791       0.60000002384185791       0.60000002384185791       0.80000001192092896     
  -3.5350592523221351      -0.65988613552767850        3.1375182682895115        1.0000000000000000        1.0000000000000000        0.0000000000000000        1.0000000000000000     
  0.13665525219696187        4.0245299823098083E-007   1.0382578837327854        1.0000000000000000        1.0000000000000000        0.0000000000000000        1.0000000000000000     
   1.3789899141154387        8.4290623662078741E-006   3.5430669252461824       0.60000002384185791       0.60000002384185791       0.60000002384185791       0.80000001192092896     
  -5.3224750117504502        1.3532035656572210        5.9191600050281314       0.60000002384185791       0.60000002384185791       0.60000002384185791       0.80000001192092896     
  -5.3224750165889931       -1.3532034519643152        5.9191600582900099       0.60000002384185791       0.60000002384185791       0.60000002384185791       0.80000001192092896     
   4.6033135812578108       -1.6104096247673403        6.2247257044019886       0.60000002384185791       0.60000002384185791       0.60000002384185791       0.80000001192092896     
   4.6033432793789855        1.6104015150866922        6.2247154579987072       0.60000002384185791       0.60000002384185791       0.60000002384185791       0.80000001192092896     
  -2.2652181521671300        2.9784554096830144E-007   4.8532036181544358       0.60000002384185791       0.60000002384185791       0.60000002384185791       0.80000001192092896     
   2.1485321747072859       -1.1949194696817383E-005   5.1005423150958800       0.60000002384185791       0.60000002384185791       0.60000002384185791       0.80000001192092896     
   2.1342953381041023       -1.6443950012174766        5.9335830459370218       0.60000002384185791       0.60000002384185791       0.60000002384185791       0.80000001192092896     
   1.3382324005062596        1.7693919878274480        5.0495171322776322       0.60000002384185791       0.60000002384185791       0.60000002384185791       0.80000001192092896     
   6.7389379781695968       -1.1921711279162686        6.4914792542259292       0.60000002384185791       0.60000002384185791       0.60000002384185791       0.80000001192092896     
   6.7389376698735095        1.1921713526180635        6.4914792539921393       0.60000002384185791       0.60000002384185791       0.60000002384185791       0.80000001192092896     
   1.3382589515875267       -1.7693920583725977        5.0494908035952379       0.60000002384185791       0.60000002384185791       0.60000002384185791       0.80000001192092896     
 -0.97942026412891658        1.9421554519891049        5.6564796846392573       0.60000002384185791       0.60000002384185791       0.60000002384185791       0.80000001192092896     
 -0.57344818230803896       -1.6978035839011867        3.6569249272068358       0.60000002384185791       0.60000002384185791       0.60000002384185791       0.80000001192092896     
 -0.57344837396378079        1.6978038101832957        3.6569240316797016       0.60000002384185791       0.60000002384185791       0.60000002384185791       0.80000001192092896     
  -4.5560785591519233        1.6076526170135159        6.2013375551671448       0.60000002384185791       0.60000002384185791       0.60000002384185791       0.80000001192092896     
  -4.5560785757226974       -1.6076526034714118        6.2013375582258821       0.60000002384185791       0.60000002384185791       0.60000002384185791       0.80000001192092896     
  0.76371667247819641        1.7394635425223790        3.3334322085990769       0.60000002384185791       0.60000002384185791       0.60000002384185791       0.80000001192092896     
  0.76385927261353470       -1.7395160129424663        3.3333931949522726       0.60000002384185791       0.60000002384185791       0.60000002384185791       0.80000001192092896     
   5.4142970146108036       -1.0072809988203799        4.8558623216294254       0.60000002384185791       0.60000002384185791       0.60000002384185791       0.80000001192092896     
   5.4142965356735306        1.0072809348423626        4.8558635172454050       0.60000002384185791       0.60000002384185791       0.60000002384185791       0.80000001192092896     
   4.1229459795060484       -1.6875325711900706        5.7141645242544614       0.60000002384185791       0.60000002384185791       0.60000002384185791       0.80000001192092896     
   4.1229556685700430        1.6874966514669223        5.7141752297750985       0.60000002384185791       0.60000002384185791       0.60000002384185791       0.80000001192092896     
   3.1542382811089658       -1.7088413820801001        5.3656606182480919       0.60000002384185791       0.60000002384185791       0.60000002384185791       0.80000001192092896     
   3.1542163840968875        1.7089683211629607        5.3656689865975666       0.60000002384185791       0.60000002384185791       0.60000002384185791       0.80000001192092896     
  0.24490111634001496        1.7795953300353293        2.9759356356703708       0.60000002384185791       0.60000002384185791       0.60000002384185791       0.80000001192092896     
  0.24499681182855218       -1.7796475436843358        2.9759714633686722       0.60000002384185791       0.60000002384185791       0.60000002384185791       0.80000001192092896     
   1.0737436281197636        1.1643575140630877        2.9971349357010295       0.60000002384185791       0.60000002384185791       0.60000002384185791       0.80000001192092896     
   1.0737533754929200       -1.1643553774292870        2.9971294699478528       0.60000002384185791       0.60000002384185791       0.60000002384185791       0.80000001192092896     
  -4.0676376512881660        1.6775698427867087        5.7222501402637542       0.60000002384185791       0.60000002384185791       0.60000002384185791       0.80000001192092896     
  -4.0676376580556024       -1.6775698464306890        5.7222501304850431       0.60000002384185791       0.60000002384185791       0.60000002384185791       0.80000001192092896     
  -3.1197224149262444        1.7090040096299097        5.2534639964169250       0.60000002384185791       0.60000002384185791       0.60000002384185791       0.80000001192092896     
  -3.1197224019375205       -1.7090042004158525        5.2534640830269641       0.60000002384185791       0.60000002384185791       0.60000002384185791       0.80000001192092896     
   6.3962861748052067        1.4241080908142730E-007   5.7160551792163288       0.60000002384185791       0.60000002384185791       0.60000002384185791       0.80000001192092896     
   2.5673038103321097        1.2105943936762387        4.9310984784934426       0.60000002384185791       0.60000002384185791       0.60000002384185791       0.80000001192092896     
   2.5671017956095303       -1.2104885666387037        4.9310823443886713       0.60000002384185791       0.60000002384185791       0.60000002384185791       0.80000001192092896     
   4.6167123472678275       -1.5881082937001747        5.1613315568773555       0.60000002384185791       0.60000002384185791       0.60000002384185791       0.80000001192092896     
   4.6167117777264641        1.5881094043217538        5.1613315808317370       0.60000002384185791       0.60000002384185791       0.60000002384185791       0.80000001192092896     
  -5.1849558936462321        1.0179509288360422        4.7475383585323563       0.60000002384185791       0.60000002384185791       0.60000002384185791       0.80000001192092896     
  -5.1849560159335804       -1.0179508305173690        4.7475385466053659       0.60000002384185791       0.60000002384185791       0.60000002384185791       0.80000001192092896     
 -0.43675925211555705       -1.5443774139314159        2.5526892122876430        1.0000000000000000       0.10000000149011612        0.0000000000000000       0.50000000000000000     
 -0.43677945303267318        1.5443767495491827        2.5526524571451126        1.0000000000000000       0.10000000149011612        0.0000000000000000       0.50000000000000000     
  -6.1499596637233083        4.6522986950883624E-007   5.7882466146743647       0.60000002384185791       0.60000002384185791       0.60000002384185791       0.80000001192092896     
   1.1964736431067067        6.0671732942801900E-006   2.6522554912552918        1.0000000000000000       0.10000000149011612        0.0000000000000000       0.50000000000000000     
   2.5245124181800551      -0.45294244802677508        3.6443699623409627       0.60000002384185791       0.60000002384185791       0.60000002384185791       0.80000001192092896     
   2.5244965996421103       0.45289752994968285        3.6443541349170654       0.60000002384185791       0.60000002384185791       0.60000002384185791       0.80000001192092896     
  -2.6390499578693567        1.4010974292347287        4.8978062160978579       0.60000002384185791       0.60000002384185791       0.60000002384185791       0.80000001192092896     
  -2.6390551010854879       -1.4011048313978385        4.8978086851752423       0.60000002384185791       0.60000002384185791       0.60000002384185791       0.80000001192092896     
  -4.4932449484914940        1.5530126934462674        5.0363708011646615       0.60000002384185791       0.60000002384185791       0.60000002384185791       0.80000001192092896     
  -4.4932450244288660       -1.5530126449049966        5.0363707993551685       0.60000002384185791       0.60000002384185791       0.60000002384185791       0.80000001192092896     
  -1.4865123274580914      -0.82783218375335987        2.1141021760916279        1.0000000000000000       0.10000000149011612        0.0000000000000000       0.50000000000000000     
  -1.4865140091556863       0.82783169044570737        2.1141020964528368        1.0000000000000000       0.10000000149011612        0.0000000000000000       0.50000000000000000     
  0.70171650607065683        1.5368815308790709        2.3596488991072921        1.0000000000000000       0.10000000149011612        0.0000000000000000       0.50000000000000000     
  0.70174171647384853       -1.5368873723800860        2.3596480482699316        1.0000000000000000       0.10000000149011612        0.0000000000000000       0.50000000000000000     
 -0.97942036579455150       -1.9421555452698143        5.6564795677489377       0.60000002384185791       0.60000002384185791       0.60000002384185791       0.80000001192092896     
   4.0671311175139921       -1.6510546822475718        4.6650988669181404       0.60000002384185791       0.60000002384185791       0.60000002384185791       0.80000001192092896     
   4.0671306228782695        1.6510782756104754        4.6651034542070597       0.60000002384185791       0.60000002384185791       0.60000002384185791       0.80000001192092896     
   7.0230349793663915        7.4392320434046064E-007   5.7906337537027941        1.0000000000000000        1.0000000000000000        0.0000000000000000        1.0000000000000000     
   4.8257881654702048      -0.97535366499928910        3.6801977886826980       0.60000002384185791       0.60000002384185791       0.60000002384185791       0.80000001192092896     
   4.8257887354926225       0.97535353030181371        3.6801976170600073       0.60000002384185791       0.60000002384185791       0.60000002384185791       0.80000001192092896     
  0.19245520928917886        1.5779373946303390        1.9887469969912555        1.0000000000000000       0.10000000149011612        0.0000000000000000       0.50000000000000000     
  0.19248740484006915       -1.5779356540945637        1.9887775413325743        1.0000000000000000       0.10000000149011612        0.0000000000000000       0.50000000000000000     
   3.3078612464293036       -1.5218340547049423        4.3623419387323636       0.60000002384185791       0.60000002384185791       0.60000002384185791       0.80000001192092896     
   3.3078601500739864        1.5218352455878825        4.3623421402571729       0.60000002384185791       0.60000002384185791       0.60000002384185791       0.80000001192092896     
  -3.9835429121948889        1.6181362734859781        4.6791505488822871       0.60000002384185791       0.60000002384185791       0.60000002384185791       0.80000001192092896     
  -3.9835433843671701       -1.6181364149053732        4.6791506113435757       0.60000002384185791       0.60000002384185791       0.60000002384185791       0.80000001192092896     
  -6.9515953363884364        1.5563501215764670E-006   5.9876082903217620        1.0000000000000000        1.0000000000000000        0.0000000000000000        1.0000000000000000     
   4.4792552300189028       -1.4418056977254048        4.1345683930170249       0.60000002384185791       0.60000002384185791       0.60000002384185791       0.80000001192092896     
   4.4792554549399748        1.4418064317694046        4.1345690743719734       0.60000002384185791       0.60000002384185791       0.60000002384185791       0.80000001192092896     
  -2.4391820231851495       0.33950482890975436        3.8426775184269539       0.60000002384185791       0.60000002384185791       0.60000002384185791       0.80000001192092896     
  -2.4391825133886282      -0.33950469023542879        3.8426784339364435       0.60000002384185791       0.60000002384185791       0.60000002384185791       0.80000001192092896     
  0.97612902994543493       0.90063791701300622        2.1386947470033792        1.0000000000000000       0.10000000149011612        0.0000000000000000       0.50000000000000000     
  0.97613798635362603      -0.90063138285796196        2.1386912840203074        1.0000000000000000       0.10000000149011612        0.0000000000000000       0.50000000000000000     
   2.8358031260235581       -1.1413058543413543        4.1424542684755608       0.60000002384185791       0.60000002384185791       0.60000002384185791       0.80000001192092896     
   2.8358836175152344        1.1413315153816672        4.1424135163336944       0.60000002384185791       0.60000002384185791       0.60000002384185791       0.80000001192092896     
 -0.43750091745894276       -1.2442140695329957        1.8164550179394265        1.0000000000000000       0.10000000149011612        0.0000000000000000       0.50000000000000000     
 -0.43750666430190482        1.2442189127340557        1.8164447784160211        1.0000000000000000       0.10000000149011612        0.0000000000000000       0.50000000000000000     
  -3.2184397027623710        1.5079168606400704        4.3345668560642734       0.60000002384185791       0.60000002384185791       0.60000002384185791       0.80000001192092896     
  -3.2184421249964901       -1.5079188378912589        4.3345645538792414       0.60000002384185791       0.60000002384185791       0.60000002384185791       0.80000001192092896     
  -1.6929572691728632       0.95061807732750858        4.4470269927093780       0.60000002384185791       0.60000002384185791       0.60000002384185791       0.80000001192092896     
  -4.6163225145452014       0.90257567746803602        3.8167763028702058       0.60000002384185791       0.60000002384185791       0.60000002384185791       0.80000001192092896     
  -4.6163225489085677      -0.90257560624737410        3.8167762597240631       0.60000002384185791       0.60000002384185791       0.60000002384185791       0.80000001192092896     
  -4.2720541027258774        1.3081647901620999        4.1205678264779291       0.60000002384185791       0.60000002384185791       0.60000002384185791       0.80000001192092896     
  -4.2720543797143158       -1.3081647339677140        4.1205677372784590       0.60000002384185791       0.60000002384185791       0.60000002384185791       0.80000001192092896     
   5.0047061874822090       -1.1242199903992185E-007   3.6845679612834639       0.60000002384185791       0.60000002384185791       0.60000002384185791       0.80000001192092896     
 -0.96935891992227563      -0.47824066426808620        1.4713253011489822        1.0000000000000000       0.10000000149011612        0.0000000000000000       0.50000000000000000     
 -0.96935981306127705       0.47824021368012787        1.4713254576528305        1.0000000000000000       0.10000000149011612        0.0000000000000000       0.50000000000000000     
  0.54233200350928368       0.89971622259503192        1.6629731206126221        1.0000000000000000       0.10000000149011612        0.0000000000000000       0.50000000000000000     
  0.54234380089957479      -0.89971582543129514        1.6629744875579078        1.0000000000000000       0.10000000149011612        0.0000000000000000       0.50000000000000000     
   3.8598582597294375       -1.2816992619015946        3.7634053850731206       0.60000002384185791       0.60000002384185791       0.60000002384185791       0.80000001192092896     
   3.8598647231597756        1.2817003209991318        3.7634060460222440       0.60000002384185791       0.60000002384185791       0.60000002384185791       0.80000001192092896     
  -2.9836199881074053        1.0932935952576563        4.0422934381774809       0.60000002384185791       0.60000002384185791       0.60000002384185791       0.80000001192092896     
  -2.9836241801519132       -1.0932986137082312        4.0422930264673846       0.60000002384185791       0.60000002384185791       0.60000002384185791       0.80000001192092896     
   7.8528803883667351        4.0688019415288306E-007   6.5268363396039097       0.60000002384185791       0.60000002384185791       0.60000002384185791       0.80000001192092896     
  -1.4482654386375668       -8.1126259642873708E-007   2.9814234919076323       0.60000002384185791       0.60000002384185791       0.60000002384185791       0.80000001192092896     
  -5.2467157439031276        6.4596780745669972E-008   4.7009721069159838       0.60000002384185791       0.60000002384185791       0.60000002384185791       0.80000001192092896     
   1.9658326437332632       0.84400483559249617        5.3678682485560589       0.60000002384185791       0.60000002384185791       0.60000002384185791       0.80000001192092896     
   1.9658328972007053      -0.84398410176427252        5.3678906460746436       0.60000002384185791       0.60000002384185791       0.60000002384185791       0.80000001192092896     
   5.4554395352168585       -4.1165595774328919E-008   4.8355591782709118       0.60000002384185791       0.60000002384185791       0.60000002384185791       0.80000001192092896     
  
   3   0  24  57
   3   0  57  24
   3   0  57  98
   3   0  98 122
   3   0  98  57
   3   0 122  98
   3   0 122  28
   3   0  28 122
   4   0  28   1  98
   3   1  28 122
   4   1  28   0  98
   3   1 122  98
   3   1 122  28
   3   1  98  58
   3   1  98 122
   3   1  58  98
   3   1  58  25
   3   1  25  58
   3   2  35 110
   3   2  35  31
   3   2  31  35
   3   2  31   6
   3   2   6  31
   3   2   9 110
   3   2 110  35
   3   2 110   9
   3   3  29 149
   4   3  29   4 113
   3   3  26  65
   3   3  65  26
   3   3  65 113
   3   3 113 149
   3   3 113  65
   3   3 149 113
   3   3 149  29
   3   4  29 149
   4   4  29   3 113
   3   4 149 113
   3   4 149  29
   3   4 113  66
   3   4 113 149
   3   4  66 113
   3   4  66  27
   3   4  27  66
   3   5   7  32
   3   5  32  36
   3   5  32   7
   3   5  36  32
   3   5  36  68
   3   5  68  36
   3   5  68   8
   3   5   8  68
   3   6   2  31
   3   6  31   2
   3   6  31  63
   3   6  63  10
   3   6  63  31
   3   6  10  63
   3   7  11  37
   3   7  37  32
   3   7  37  11
   3   7  32  37
   3   7  32   5
   3   7   5  32
   3   8   5  68
   3   8  68   5
   3   8  68  33
   3   8  33  12
   3   8  33  68
   3   8  12  33
   3   9  13  34
   3   9  34 110
   3   9  34  13
   3   9 110  34
   3   9 110   2
   3   9   2 110
   3  10   6  63
   3  10  63  14
   3  10  63   6
   3  10  14  63
   3  11  15  37
   3  11  37   7
   3  11  37  15
   3  11   7  37
   3  12   8  33
   3  12  33  16
   3  12  33   8
   3  12  16  33
   3  13  17  34
   3  13  34   9
   3  13  34  17
   3  13   9  34
   3  14  10  63
   3  14  63  79
   3  14  63  10
   3  14  79  63
   3  14  79  77
   3  14  77  79
   3  14  77  18
   3  14  18  77
   3  15  19  78
   3  15  78  80
   3  15  78  19
   3  15  80  78
   3  15  80  37
   3  15  37  11
   3  15  37  80
   3  15  11  37
   3  16  12  33
   3  16  33  87
   3  16  33  12
   3  16  87  33
   3  16  87  85
   3  16  85  87
   3  16  85  20
   3  16  20  85
   3  17  21  86
   3  17  86  88
   3  17  86  21
   3  17  88  86
   3  17  88  34
   3  17  34  13
   3  17  34  88
   3  17  13  34
   3  18  14  77
   3  18  77  14
   3  18  77  59
   3  18  59  77
   3  18  59  22
   3  18  22  59
   3  19  23  60
   3  19  60  78
   3  19  60  23
   3  19  78  60
   3  19  78  15
   3  19  15  78
   3  20  16  85
   3  20  85  16
   3  20  85  71
   3  20  71  85
   3  20  71  24
   3  20  24  71
   3  21  25  72
   3  21  72  86
   3  21  72  25
   3  21  86  72
   3  21  86  17
   3  21  17  86
   3  22  18  59
   3  22  59  18
   3  22  59  45
   3  22  45  26
   3  22  45  59
   3  22  26  45
   3  23  27  46
   3  23  46  60
   3  23  46  27
   3  23  60  46
   3  23  60  19
   3  23  19  60
   3  24  20  71
   3  24  71  20
   3  24  71  57
   3  24  57   0
   3  24  57  71
   3  24   0  57
   3  25   1  58
   3  25  58   1
   3  25  58  72
   3  25  72  58
   3  25  72  21
   3  25  21  72
   3  26  22  45
   3  26  45  65
   3  26  45  22
   3  26  65   3
   3  26  65  45
   3  26   3  65
   3  27   4  66
   3  27  66   4
   3  27  66  46
   3  27  46  66
   3  27  46  23
   3  27  23  46
   3  28   0 122
   4  28   0  98   1
   3  28 122   0
   3  28 122   1
   3  28   1 122
   4  28   1  98   0
   3  29   3 149
   4  29   3 113   4
   3  29 149   3
   3  29 149   4
   3  29   4 149
   4  29   4 113   3
   3  30  34  61
   3  30  34  39
   3  30  61 135
   3  30  61  34
   3  30 135 150
   3  30 135  61
   3  30 150 135
   3  30 150  41
   3  30  41  69
   3  30  41 150
   3  30  69  41
   3  30  69  39
   3  30  39  34
   3  30  39  69
   3  31   2  35
   3  31   2   6
   3  31  35  44
   3  31  35   2
   3  31  44  67
   3  31  44  35
   3  31  67  63
   3  31  67  44
   3  31  63   6
   3  31  63  67
   3  31   6   2
   3  31   6  63
   3  32  37  64
   3  32  37   7
   3  32  64  37
   3  32  64  43
   3  32  43  36
   3  32  43  64
   3  32  36  43
   3  32  36   5
   3  32   5   7
   3  32   5  36
   3  32   7  37
   3  32   7   5
   3  33 102  61
   3  33 102  87
   3  33  87 102
   3  33  87  16
   3  33  16  12
   3  33  16  87
   3  33  12   8
   3  33  12  16
   3  33   8  68
   3  33   8  12
   3  33  68  40
   3  33  68   8
   3  33  40 135
   3  33  40  68
   3  33 135  40
   3  33 135  61
   3  33  61 135
   3  33  61 102
   3  34 103  88
   3  34 103  61
   3  34  61  30
   3  34  61 103
   3  34  30  61
   3  34  30  39
   3  34  39 110
   3  34  39  30
   3  34 110  39
   3  34 110   9
   3  34   9  13
   3  34   9 110
   3  34  13  17
   3  34  13   9
   3  34  17  88
   3  34  17  13
   3  34  88 103
   3  34  88  17
   3  35 110  39
   3  35 110   2
   3  35  39 110
   3  35  39  53
   3  35  53  44
   3  35  53  39
   3  35  44  31
   3  35  44  53
   3  35  31   2
   3  35  31  44
   3  35   2  31
   3  35   2 110
   3  36  32  43
   3  36  32   5
   3  36  43  32
   3  36  43  52
   3  36  52  40
   3  36  52  43
   3  36  40  68
   3  36  40  52
   3  36  68   5
   3  36  68  40
   3  36   5  32
   3  36   5  68
   3  37  90  80
   3  37  90  62
   3  37  62 152
   3  37  62  90
   3  37 152  62
   3  37 152  64
   3  37  64 152
   3  37  64  32
   3  37  32  64
   3  37  32   7
   3  37   7  11
   3  37   7  32
   3  37  11  15
   3  37  11   7
   3  37  15  80
   3  37  15  11
   3  37  80  90
   3  37  80  15
   3  38 114 140
   3  38 114 123
   3  38 123 114
   3  38 123 145
   3  38 145 123
   3  38 145 118
   3  38 118 129
   3  38 118 145
   3  38 129 118
   3  38 129 100
   3  38 100 129
   4  38 100 101  47
   3  38  47 140
   4  38  47 101 100
   3  38 140  47
   3  38 140 114
   3  39  35 110
   3  39  35  53
   3  39 110  34
   3  39 110  35
   3  39  34  30
   3  39  34 110
   3  39  30  34
   3  39  30  69
   3  39  69  30
   3  39  69  53
   3  39  53  35
   3  39  53  69
   3  40 135  33
   3  40 135  70
   3  40  33  68
   3  40  33 135
   3  40  68  36
   3  40  68  33
   3  40  36  52
   3  40  36  68
   3  40  52  36
   3  40  52  70
   3  40  70  52
   3  40  70 135
   3  41 106 150
   3  41 106 131
   3  41 131  96
   3  41 131 106
   3  41  96  69
   3  41  96 131
   3  41  69  30
   3  41  69  96
   3  41  30 150
   3  41  30  69
   3  41 150  30
   3  41 150 106
   3  42 107 132
   3  42 107 150
   3  42 150 135
   3  42 150 107
   3  42 135  70
   3  42 135 150
   3  42  70  97
   3  42  70 135
   3  42  97  70
   3  42  97 132
   3  42 132 107
   3  42 132  97
   3  43  36  32
   3  43  36  52
   3  43  32  64
   3  43  32  36
   3  43  64  50
   3  43  64  32
   3  43  50  64
   3  43  50  73
   3  43  73  50
   3  43  73  52
   3  43  52  36
   3  43  52  73
   3  44  67  51
   3  44  67  31
   3  44  31  35
   3  44  31  67
   3  44  35  53
   3  44  35  31
   3  44  53  35
   3  44  53  74
   3  44  74  53
   3  44  74  51
   3  44  51  67
   3  44  51  74
   3  45  65  26
   3  45  65  89
   3  45  26  22
   3  45  26  65
   3  45  22  59
   3  45  22  26
   3  45  59  92
   3  45  59  22
   3  45  92  75
   3  45  92  59
   3  45  75  89
   3  45  75  92
   3  45  89  75
   3  45  89  65
   3  46  66  89
   3  46  66  27
   3  46  89  76
   3  46  89  66
   3  46  76  89
   3  46  76  93
   3  46  93  60
   3  46  93  76
   3  46  60  93
   3  46  60  23
   3  46  23  27
   3  46  23  60
   3  46  27  66
   3  46  27  23
   3  47 115 124
   3  47 115 140
   3  47 140  38
   3  47 140 115
   3  47  38 140
   4  47  38 100 101
   3  47 101 130
   4  47 101 100  38
   3  47 130 101
   3  47 130 119
   3  47 119 146
   3  47 119 130
   3  47 146 119
   3  47 146 124
   3  47 124 115
   3  47 124 146
   3  48 136 138
   4  48 136 137  54
   3  48 138 136
   3  48 138 120
   3  48 120 133
   3  48 120 138
   3  48 133 120
   3  48 133 147
   3  48 147 133
   3  48 147 125
   3  48 125 147
   4  48 125 126  54
   3  49 152  62
   3  49 152  64
   3  49  62 152
   3  49  62 153
   3  49 153  62
   3  49 153  67
   3  49  67  51
   3  49  67 153
   3  49  51  67
   3  49  51  56
   3  49  56  51
   3  49  56  50
   3  49  50  64
   3  49  50  56
   3  49  64 152
   3  49  64  50
   3  50  43  64
   3  50  43  73
   3  50  64  49
   3  50  64  43
   3  50  49  56
   3  50  49  64
   3  50  56  83
   3  50  56  49
   3  50  83  56
   3  50  83  73
   3  50  73  83
   3  50  73  43
   3  51  49  67
   3  51  49  56
   3  51  67  49
   3  51  67  44
   3  51  44  67
   3  51  44  74
   3  51  74  84
   3  51  74  44
   3  51  84  74
   3  51  84  56
   3  51  56  84
   3  51  56  49
   3  52  40  36
   3  52  40  70
   3  52  36  43
   3  52  36  40
   3  52  43  36
   3  52  43  73
   3  52  73  81
   3  52  73  43
   3  52  81  73
   3  52  81  70
   3  52  70  81
   3  52  70  40
   3  53  44  35
   3  53  44  74
   3  53  35  39
   3  53  35  44
   3  53  39  35
   3  53  39  69
   3  53  69  82
   3  53  69  39
   3  53  82  69
   3  53  82  74
   3  53  74  82
   3  53  74  44
   3  54 137 139
   4  54 137 136  48
   3  54 126 148
   4  54 126 125  48
   3  54 148 126
   3  54 148 134
   3  54 134 121
   3  54 134 148
   3  54 121 139
   3  54 121 134
   3  54 139 121
   3  54 139 137
   3  55 116 143
   3  55 116 132
   3  55 143 116
   3  55 143 127
   3  55 127  99
   3  55 127 143
   3  55  99 128
   3  55  99 127
   3  55 128  99
   3  55 128 144
   3  55 144 128
   3  55 144 117
   3  55 117 131
   3  55 117 144
   3  55 131 117
   4  55 131 106 141
   3  55 141 142
   4  55 141 106 131
   3  55 142 141
   4  55 142 107 132
   3  55 132 116
   4  55 132 107 142
   3  56  51  49
   3  56  51  84
   3  56  84  99
   3  56  84  51
   3  56  99  83
   3  56  99  84
   3  56  83  99
   3  56  83  50
   3  56  50  49
   3  56  50  83
   3  56  49  51
   3  56  49  50
   3  57   0  24
   3  57   0  98
   3  57  24  71
   3  57  24   0
   3  57  71 104
   3  57  71  24
   3  57 104  94
   3  57 104  71
   3  57  94  98
   3  57  94 104
   3  57  98  94
   3  57  98   0
   3  58   1  98
   3  58   1  25
   3  58  98  95
   3  58  98   1
   3  58  95 105
   3  58  95  98
   3  58 105  72
   3  58 105  95
   3  58  72 105
   3  58  72  25
   3  58  25   1
   3  58  25  72
   3  59  18  77
   3  59  18  22
   3  59  77  92
   3  59  77  18
   3  59  92  45
   3  59  92  77
   3  59  45  22
   3  59  45  92
   3  59  22  18
   3  59  22  45
   3  60  46  93
   3  60  46  23
   3  60  93  78
   3  60  93  46
   3  60  78  93
   3  60  78  19
   3  60  19  23
   3  60  19  78
   3  60  23  46
   3  60  23  19
   3  61 135  33
   3  61 135  30
   3  61  30  34
   3  61  30 135
   3  61  34 103
   3  61  34  30
   3  61 103 148
   3  61 103  34
   3  61 148 126
   3  61 148 103
   3  61 126 125
   3  61 126 148
   3  61 125 147
   3  61 125 126
   3  61 147 102
   3  61 147 125
   3  61 102 147
   3  61 102  33
   3  61  33 102
   3  61  33 135
   3  62  49 152
   3  62  49 153
   3  62 152  49
   3  62 152  37
   3  62  37  90
   3  62  37 152
   3  62  90 130
   3  62  90  37
   3  62 130 101
   3  62 130  90
   3  62 101 100
   3  62 101 130
   3  62 100 129
   3  62 100 101
   3  62 129  91
   3  62 129 100
   3  62  91  63
   3  62  91 129
   3  62  63  91
   3  62  63 153
   3  62 153  63
   3  62 153  49
   3  63  91  79
   3  63  91  62
   3  63  79  91
   3  63  79  14
   3  63  14  10
   3  63  14  79
   3  63  10   6
   3  63  10  14
   3  63   6  31
   3  63   6  10
   3  63  31  67
   3  63  31   6
   3  63  67 153
   3  63  67  31
   3  63 153  62
   3  63 153  67
   3  63  62  91
   3  63  62 153
   3  64  37 152
   3  64  37  32
   3  64 152  49
   3  64 152  37
   3  64  49 152
   3  64  49  50
   3  64  50  43
   3  64  50  49
   3  64  43  32
   3  64  43  50
   3  64  32  37
   3  64  32  43
   3  65   3  26
   3  65   3 113
   3  65  26  45
   3  65  26   3
   3  65  45  26
   3  65  45  89
   3  65  89 113
   3  65  89  45
   3  65 113  89
   3  65 113   3
   3  66   4 113
   3  66   4  27
   3  66 113  89
   3  66 113   4
   3  66  89  46
   3  66  89 113
   3  66  46  89
   3  66  46  27
   3  66  27   4
   3  66  27  46
   3  67  51  49
   3  67  51  44
   3  67  49 153
   3  67  49  51
   3  67 153  63
   3  67 153  49
   3  67  63  31
   3  67  63 153
   3  67  31  44
   3  67  31  63
   3  67  44  31
   3  67  44  51
   3  68   5  36
   3  68   5   8
   3  68  36  40
   3  68  36   5
   3  68  40  33
   3  68  40  36
   3  68  33   8
   3  68  33  40
   3  68   8   5
   3  68   8  33
   3  69  30  41
   3  69  30  39
   3  69  41  96
   3  69  41  30
   3  69  96  82
   3  69  96  41
   3  69  82  96
   3  69  82  53
   3  69  53  39
   3  69  53  82
   3  69  39  30
   3  69  39  53
   3  70  52  40
   3  70  52  81
   3  70  81  97
   3  70  81  52
   3  70  97  42
   3  70  97  81
   3  70  42 135
   3  70  42  97
   3  70 135  40
   3  70 135  42
   3  70  40 135
   3  70  40  52
   3  71  20  85
   3  71  20  24
   3  71  85 104
   3  71  85  20
   3  71 104  57
   3  71 104  85
   3  71  57  24
   3  71  57 104
   3  71  24  20
   3  71  24  57
   3  72  58 105
   3  72  58  25
   3  72 105  86
   3  72 105  58
   3  72  86 105
   3  72  86  21
   3  72  21  25
   3  72  21  86
   3  72  25  58
   3  72  25  21
   3  73  50  43
   3  73  50  83
   3  73  83 108
   3  73  83  50
   3  73 108  81
   3  73 108  83
   3  73  81 108
   3  73  81  52
   3  73  52  43
   3  73  52  81
   3  73  43  50
   3  73  43  52
   3  74  53  44
   3  74  53  82
   3  74  82 109
   3  74  82  53
   3  74 109  84
   3  74 109  82
   3  74  84 109
   3  74  84  51
   3  74  51  44
   3  74  51  84
   3  74  44  53
   3  74  44  51
   3  75 114 140
   3  75 114 123
   3  75 140 154
   3  75 140 114
   3  75 154 140
   3  75 154  89
   3  75  89 154
   3  75  89  45
   3  75  45  92
   3  75  45  89
   3  75  92  45
   3  75  92 123
   3  75 123 114
   3  75 123  92
   3  76  46  89
   3  76  46  93
   3  76  89 154
   3  76  89  46
   3  76 154 140
   3  76 154  89
   3  76 140 115
   3  76 140 154
   3  76 115 124
   3  76 115 140
   3  76 124  93
   3  76 124 115
   3  76  93  46
   3  76  93 124
   3  77  14  79
   3  77  14  18
   3  77  79 111
   3  77  79  14
   3  77 111  92
   3  77 111  79
   3  77  92  59
   3  77  92 111
   3  77  59  18
   3  77  59  92
   3  77  18  14
   3  77  18  59
   3  78  60  93
   3  78  60  19
   3  78  93  60
   3  78  93 112
   3  78 112  80
   3  78 112  93
   3  78  80 112
   3  78  80  15
   3  78  15  19
   3  78  15  80
   3  78  19  60
   3  78  19  15
   3  79  63  91
   3  79  63  14
   3  79  91  63
   3  79  91 118
   3  79 118 111
   3  79 118  91
   3  79 111  77
   3  79 111 118
   3  79  77  14
   3  79  77 111
   3  79  14  63
   3  79  14  77
   3  80  78 112
   3  80  78  15
   3  80 112  78
   3  80 112 119
   3  80 119  90
   3  80 119 112
   3  80  90 119
   3  80  90  37
   3  80  37  90
   3  80  37  15
   3  80  15  78
   3  80  15  37
   3  81  73 108
   3  81  73  52
   3  81 108  73
   3  81 108 116
   3  81 116  97
   3  81 116 108
   3  81  97  70
   3  81  97 116
   3  81  70  52
   3  81  70  97
   3  81  52  73
   3  81  52  70
   3  82  69  96
   3  82  69  53
   3  82  96  69
   3  82  96 117
   3  82 117 109
   3  82 117  96
   3  82 109  74
   3  82 109 117
   3  82  74  53
   3  82  74 109
   3  82  53  69
   3  82  53  74
   3  83  56  99
   3  83  56  50
   3  83  99  56
   3  83  99 127
   3  83 127 108
   3  83 127  99
   3  83 108  73
   3  83 108 127
   3  83  73  50
   3  83  73 108
   3  83  50  56
   3  83  50  73
   3  84  74 109
   3  84  74  51
   3  84 109  74
   3  84 109 128
   3  84 128  99
   3  84 128 109
   3  84  99  56
   3  84  99 128
   3  84  56  51
   3  84  56  99
   3  84  51  74
   3  84  51  56
   3  85  16  87
   3  85  16  20
   3  85  87 120
   3  85  87  16
   3  85 120 104
   3  85 120  87
   3  85 104  71
   3  85 104 120
   3  85  71  20
   3  85  71 104
   3  85  20  16
   3  85  20  71
   3  86  72 105
   3  86  72  21
   3  86 105  72
   3  86 105 121
   3  86 121  88
   3  86 121 105
   3  86  88 121
   3  86  88  17
   3  86  17  21
   3  86  17  88
   3  86  21  72
   3  86  21  17
   3  87  33 102
   3  87  33  16
   3  87 102 133
   3  87 102  33
   3  87 133 120
   3  87 133 102
   3  87 120  85
   3  87 120 133
   3  87  85  16
   3  87  85 120
   3  87  16  33
   3  87  16  85
   3  88  86 121
   3  88  86  17
   3  88 121  86
   3  88 121 134
   3  88 134 103
   3  88 134 121
   3  88 103 134
   3  88 103  34
   3  88  34 103
   3  88  34  17
   3  88  17  86
   3  88  17  34
   3  89  75 154
   3  89  75  45
   3  89 154  76
   3  89 154  75
   3  89  76  46
   3  89  76 154
   3  89  46  66
   3  89  46  76
   3  89  66 113
   3  89  66  46
   3  89 113  66
   3  89 113  65
   3  89  65  45
   3  89  65 113
   3  89  45  65
   3  89  45  75
   3  90  80 119
   3  90  80  37
   3  90 119  80
   3  90 119 130
   3  90 130  62
   3  90 130 119
   3  90  62  37
   3  90  62 130
   3  90  37  62
   3  90  37  80
   3  91  79  63
   3  91  79 118
   3  91  63  79
   3  91  63  62
   3  91  62 129
   3  91  62  63
   3  91 129 118
   3  91 129  62
   3  91 118  79
   3  91 118 129
   3  92  75  45
   3  92  75 123
   3  92  45  59
   3  92  45  75
   3  92  59  77
   3  92  59  45
   3  92  77 111
   3  92  77  59
   3  92 111  77
   3  92 111 123
   3  92 123  75
   3  92 123 111
   3  93  78  60
   3  93  78 112
   3  93  60  46
   3  93  60  78
   3  93  46  76
   3  93  46  60
   3  93  76  46
   3  93  76 124
   3  93 124 112
   3  93 124  76
   3  93 112  78
   3  93 112 124
   3  94 136 151
   3  94 136 138
   3  94 151 136
   3  94 151  98
   3  94  98 151
   3  94  98  57
   3  94  57 104
   3  94  57  98
   3  94 104  57
   3  94 104 138
   3  94 138 136
   3  94 138 104
   3  95 137 139
   3  95 137 151
   3  95 139 105
   3  95 139 137
   3  95 105  58
   3  95 105 139
   3  95  58  98
   3  95  58 105
   3  95  98 151
   3  95  98  58
   3  95 151 137
   3  95 151  98
   3  96  82  69
   3  96  82 117
   3  96  69  41
   3  96  69  82
   3  96  41 131
   3  96  41  69
   3  96 131 117
   3  96 131  41
   3  96 117  82
   3  96 117 131
   3  97  42  70
   3  97  42 132
   3  97  70  81
   3  97  70  42
   3  97  81 116
   3  97  81  70
   3  97 116  81
   3  97 116 132
   3  97 132  42
   3  97 132 116
   3  98  94 151
   3  98  94  57
   3  98 151  95
   3  98 151  94
   3  98  95  58
   3  98  95 151
   3  98  58   1
   3  98  58  95
   3  98   1 122
   3  98   1  58
   3  98 122   0
   3  98 122   1
   3  98   0  57
   3  98   0 122
   3  98  57   0
   3  98  57  94
   3  99  83  56
   3  99  83 127
   3  99  56  84
   3  99  56  83
   3  99  84 128
   3  99  84  56
   3  99 128  84
   3  99 128  55
   3  99  55 127
   3  99  55 128
   3  99 127  83
   3  99 127  55
   3 100  38 129
   4 100  38  47 101
   3 100 129  62
   3 100 129  38
   3 100  62 101
   3 100  62 129
   3 100 101  62
   4 100 101  47  38
   3 101  47 130
   4 101  47  38 100
   3 101 100  62
   4 101 100  38  47
   3 101  62 130
   3 101  62 100
   3 101 130  62
   3 101 130  47
   3 102  61 147
   3 102  61  33
   3 102 147 133
   3 102 147  61
   3 102 133  87
   3 102 133 147
   3 102  87  33
   3 102  87 133
   3 102  33  87
   3 102  33  61
   3 103  88 134
   3 103  88  34
   3 103 134  88
   3 103 134 148
   3 103 148  61
   3 103 148 134
   3 103  61  34
   3 103  61 148
   3 103  34  61
   3 103  34  88
   3 104  94  57
   3 104  94 138
   3 104  57  71
   3 104  57  94
   3 104  71  85
   3 104  71  57
   3 104  85 120
   3 104  85  71
   3 104 120  85
   3 104 120 138
   3 104 138  94
   3 104 138 120
   3 105  86  72
   3 105  86 121
   3 105  72  58
   3 105  72  86
   3 105  58  95
   3 105  58  72
   3 105  95 139
   3 105  95  58
   3 105 139 121
   3 105 139  95
   3 105 121  86
   3 105 121 139
   3 106  41 131
   3 106  41 150
   3 106 150 107
   3 106 150  41
   3 106 107 150
   4 106 107 142 141
   3 106 131  41
   4 106 131  55 141
   3 107  42 150
   3 107  42 132
   3 107 132  42
   4 107 132  55 142
   3 107 106 150
   4 107 106 141 142
   3 107 150  42
   3 107 150 106
   3 108  81  73
   3 108  81 116
   3 108  73  83
   3 108  73  81
   3 108  83 127
   3 108  83  73
   3 108 127  83
   3 108 127 143
   3 108 143 116
   3 108 143 127
   3 108 116  81
   3 108 116 143
   3 109  84  74
   3 109  84 128
   3 109  74  82
   3 109  74  84
   3 109  82 117
   3 109  82  74
   3 109 117  82
   3 109 117 144
   3 109 144 128
   3 109 144 117
   3 109 128  84
   3 109 128 144
   3 110  34  39
   3 110  34   9
   3 110  39  35
   3 110  39  34
   3 110  35  39
   3 110  35   2
   3 110   2  35
   3 110   2   9
   3 110   9  34
   3 110   9   2
   3 111  92  77
   3 111  92 123
   3 111  77  79
   3 111  77  92
   3 111  79 118
   3 111  79  77
   3 111 118  79
   3 111 118 145
   3 111 145 123
   3 111 145 118
   3 111 123  92
   3 111 123 145
   3 112  80  78
   3 112  80 119
   3 112  78  93
   3 112  78  80
   3 112  93  78
   3 112  93 124
   3 112 124  93
   3 112 124 146
   3 112 146 119
   3 112 146 124
   3 112 119  80
   3 112 119 146
   3 113  89  66
   3 113  89  65
   3 113  66   4
   3 113  66  89
   3 113   4 149
   3 113   4  66
   3 113 149   3
   3 113 149   4
   3 113   3  65
   3 113   3 149
   3 113  65   3
   3 113  65  89
   3 114  38 123
   3 114  38 140
   3 114 140  38
   3 114 140  75
   3 114  75 140
   3 114  75 123
   3 114 123  75
   3 114 123  38
   3 115  47 140
   3 115  47 124
   3 115 124  76
   3 115 124  47
   3 115  76 140
   3 115  76 124
   3 115 140  47
   3 115 140  76
   3 116  97  81
   3 116  97 132
   3 116  81 108
   3 116  81  97
   3 116 108  81
   3 116 108 143
   3 116 143 108
   3 116 143  55
   3 116  55 143
   3 116  55 132
   3 116 132  97
   3 116 132  55
   3 117 109  82
   3 117 109 144
   3 117  82  96
   3 117  82 109
   3 117  96  82
   3 117  96 131
   3 117 131  96
   3 117 131  55
   3 117  55 144
   3 117  55 131
   3 117 144 109
   3 117 144  55
   3 118 111  79
   3 118 111 145
   3 118  79  91
   3 118  79 111
   3 118  91  79
   3 118  91 129
   3 118 129  91
   3 118 129  38
   3 118  38 145
   3 118  38 129
   3 118 145 111
   3 118 145  38
   3 119  90  80
   3 119  90 130
   3 119  80 112
   3 119  80  90
   3 119 112  80
   3 119 112 146
   3 119 146 112
   3 119 146  47
   3 119  47 130
   3 119  47 146
   3 119 130  90
   3 119 130  47
   3 120 104  85
   3 120 104 138
   3 120  85  87
   3 120  85 104
   3 120  87 133
   3 120  87  85
   3 120 133  87
   3 120 133  48
   3 120  48 138
   3 120  48 133
   3 120 138 104
   3 120 138  48
   3 121  88  86
   3 121  88 134
   3 121  86 105
   3 121  86  88
   3 121 105  86
   3 121 105 139
   3 121 139 105
   3 121 139  54
   3 121  54 134
   3 121  54 139
   3 121 134  88
   3 121 134  54
   3 122   0  98
   3 122   0  28
   3 122  98   1
   3 122  98   0
   3 122   1  28
   3 122   1  98
   3 122  28   0
   3 122  28   1
   3 123 114  38
   3 123 114  75
   3 123  75 114
   3 123  75  92
   3 123  92  75
   3 123  92 111
   3 123 111  92
   3 123 111 145
   3 123 145 111
   3 123 145  38
   3 123  38 114
   3 123  38 145
   3 124 112  93
   3 124 112 146
   3 124  93  76
   3 124  93 112
   3 124  76 115
   3 124  76  93
   3 124 115  47
   3 124 115  76
   3 124  47 115
   3 124  47 146
   3 124 146 112
   3 124 146  47
   3 125  48 147
   4 125  48  54 126
   3 125 147  61
   3 125 147  48
   3 125  61 126
   3 125  61 147
   3 125 126  61
   4 125 126  54  48
   3 126  54 148
   4 126  54  48 125
   3 126 125  61
   4 126 125  48  54
   3 126  61 148
   3 126  61 125
   3 126 148  61
   3 126 148  54
   3 127 108  83
   3 127 108 143
   3 127  83  99
   3 127  83 108
   3 127  99  83
   3 127  99  55
   3 127  55 143
   3 127  55  99
   3 127 143 108
   3 127 143  55
   3 128  99  84
   3 128  99  55
   3 128  84 109
   3 128  84  99
   3 128 109  84
   3 128 109 144
   3 128 144 109
   3 128 144  55
   3 128  55  99
   3 128  55 144
   3 129 118  91
   3 129 118  38
   3 129  91  62
   3 129  91 118
   3 129  62 100
   3 129  62  91
   3 129 100  38
   3 129 100  62
   3 129  38 118
   3 129  38 100
   3 130 101  47
   3 130 101  62
   3 130  62  90
   3 130  62 101
   3 130  90 119
   3 130  90  62
   3 130 119  90
   3 130 119  47
   3 130  47 101
   3 130  47 119
   3 131 117  96
   3 131 117  55
   3 131  96  41
   3 131  96 117
   3 131  41 106
   3 131  41  96
   3 131 106  41
   4 131 106 141  55
   3 131  55 117
   4 131  55 141 106
   3 132 107  42
   4 132 107 142  55
   3 132  42 107
   3 132  42  97
   3 132  97  42
   3 132  97 116
   3 132 116  97
   3 132 116  55
   3 132  55 116
   4 132  55 142 107
   3 133 120  87
   3 133 120  48
   3 133  87 102
   3 133  87 120
   3 133 102 147
   3 133 102  87
   3 133 147 102
   3 133 147  48
   3 133  48 120
   3 133  48 147
   3 134 103  88
   3 134 103 148
   3 134  88 121
   3 134  88 103
   3 134 121  88
   3 134 121  54
   3 134  54 148
   3 134  54 121
   3 134 148 103
   3 134 148  54
   3 135  33  40
   3 135  33  61
   3 135  40  33
   3 135  40  70
   3 135  70  42
   3 135  70  40
   3 135  42 150
   3 135  42  70
   3 135 150  30
   3 135 150  42
   3 135  30  61
   3 135  30 150
   3 135  61  30
   3 135  61  33
   3 136  48 138
   4 136  48  54 137
   3 136 137 151
   4 136 137  54  48
   3 136 151 137
   3 136 151  94
   3 136  94 151
   3 136  94 138
   3 136 138  94
   3 136 138  48
   3 137  54 139
   4 137  54  48 136
   3 137 139  95
   3 137 139  54
   3 137  95 139
   3 137  95 151
   3 137 151 136
   3 137 151  95
   3 137 136 151
   4 137 136  48  54
   3 138 136  48
   3 138 136  94
   3 138  94 136
   3 138  94 104
   3 138 104  94
   3 138 104 120
   3 138 120 104
   3 138 120  48
   3 138  48 136
   3 138  48 120
   3 139 121 105
   3 139 121  54
   3 139 105  95
   3 139 105 121
   3 139  95 137
   3 139  95 105
   3 139 137  54
   3 139 137  95
   3 139  54 137
   3 139  54 121
   3 140  38 114
   3 140  38  47
   3 140  47 115
   3 140  47  38
   3 140 115  47
   3 140 115  76
   3 140  76 154
   3 140  76 115
   3 140 154  76
   3 140 154  75
   3 140  75 114
   3 140  75 154
   3 140 114  38
   3 140 114  75
   3 141  55 142
   4 141  55 131 106
   3 141 142  55
   4 141 142 107 106
   3 142  55 141
   4 142  55 132 107
   3 142 141  55
   4 142 141 106 107
   3 143 116 108
   3 143 116  55
   3 143 108 127
   3 143 108 116
   3 143 127 108
   3 143 127  55
   3 143  55 116
   3 143  55 127
   3 144 128 109
   3 144 128  55
   3 144 109 117
   3 144 109 128
   3 144 117 109
   3 144 117  55
   3 144  55 128
   3 144  55 117
   3 145 123 111
   3 145 123  38
   3 145 111 118
   3 145 111 123
   3 145 118 111
   3 145 118  38
   3 145  38 123
   3 145  38 118
   3 146 119 112
   3 146 119  47
   3 146 112 124
   3 146 112 119
   3 146 124 112
   3 146 124  47
   3 146  47 119
   3 146  47 124
   3 147 133 102
   3 147 133  48
   3 147 102  61
   3 147 102 133
   3 147  61 125
   3 147  61 102
   3 147 125  48
   3 147 125  61
   3 147  48 133
   3 147  48 125
   3 148 126  54
   3 148 126  61
   3 148  61 103
   3 148  61 126
   3 148 103 134
   3 148 103  61
   3 148 134 103
   3 148 134  54
   3 148  54 126
   3 148  54 134
   3 149   3  29
   3 149   3 113
   3 149 113   4
   3 149 113   3
   3 149   4  29
   3 149   4 113
   3 149  29   3
   3 149  29   4
   3 150  30 135
   3 150  30  41
   3 150 135  42
   3 150 135  30
   3 150  42 107
   3 150  42 135
   3 150 107  42
   3 150 107 106
   3 150 106  41
   3 150 106 107
   3 150  41 106
   3 150  41  30
   3 151 136 137
   3 151 136  94
   3 151 137  95
   3 151 137 136
   3 151  95 137
   3 151  95  98
   3 151  98  94
   3 151  98  95
   3 151  94 136
   3 151  94  98
   3 152  62  49
   3 152  62  37
   3 152  49  62
   3 152  49  64
   3 152  64  37
   3 152  64  49
   3 152  37  62
   3 152  37  64
   3 153  62  49
   3 153  62  63
   3 153  63  67
   3 153  63  62
   3 153  67  49
   3 153  67  63
   3 153  49  62
   3 153  49  67
   3 154 140  76
   3 154 140  75
   3 154  76  89
   3 154  76 140
   3 154  89  75
   3 154  89  76
   3 154  75 140
   3 154  75  89
