# Generated by dad_to_polygons. Vertex data from Humppa's .off file,
# polygons parsed from .dad file.
COFF
155 556 155
-6.619503 1.217263 7.006443 0.500000 0.500000 0.500000 1.0
-6.619504 -1.217261 7.006443 0.500000 0.500000 0.500000 1.0
-0.033387 -2.310341 6.670637 0.500000 0.500000 0.500000 1.0
7.502173 -1.116353 7.153132 0.500000 0.500000 0.500000 1.0
7.502172 1.116354 7.153132 0.500000 0.500000 0.500000 1.0
-0.033387 2.310341 6.670637 0.500000 0.500000 0.500000 1.0
1.161582 -1.988310 6.813050 0.500000 0.500000 0.500000 1.0
1.161582 1.988310 6.813050 0.500000 0.500000 0.500000 1.0
-1.181423 1.975083 6.779602 0.500000 0.500000 0.500000 1.0
-1.181423 -1.975083 6.779602 0.500000 0.500000 0.500000 1.0
2.069421 -1.669506 7.086359 0.500000 0.500000 0.500000 1.0
2.069421 1.669506 7.086359 0.500000 0.500000 0.500000 1.0
-2.096356 1.682859 7.058140 0.500000 0.500000 0.500000 1.0
-2.096356 -1.682859 7.058140 0.500000 0.500000 0.500000 1.0
3.053761 -1.820699 6.825130 0.500000 0.500000 0.500000 1.0
3.053748 1.820697 6.825118 0.500000 0.500000 0.500000 1.0
-3.040766 1.825381 6.762630 0.500000 0.500000 0.500000 1.0
-3.040766 -1.825381 6.762630 0.500000 0.500000 0.500000 1.0
4.135016 -1.716578 6.948601 0.500000 0.500000 0.500000 1.0
4.135016 1.716578 6.948602 0.500000 0.500000 0.500000 1.0
-4.096712 1.715320 6.890423 0.500000 0.500000 0.500000 1.0
-4.096712 -1.715320 6.890423 0.500000 0.500000 0.500000 1.0
5.125802 -1.492088 7.032281 0.500000 0.500000 0.500000 1.0
5.125802 1.492088 7.032281 0.500000 0.500000 0.500000 1.0
-5.095467 1.505736 6.954533 0.500000 0.500000 0.500000 1.0
-5.095467 -1.505736 6.954533 0.500000 0.500000 0.500000 1.0
6.111591 -1.342714 7.117104 0.500000 0.500000 0.500000 1.0
6.111591 1.342714 7.117104 0.500000 0.500000 0.500000 1.0
-7.837948 -0.000056 7.022487 0.500000 0.500000 0.500000 1.0
8.620031 -0.000000 7.152764 0.500000 0.500000 0.500000 1.0
-1.692958 -0.950619 4.447028 0.500000 0.500000 0.500000 1.0
0.975772 -1.921700 5.392951 0.500000 0.500000 0.500000 1.0
0.975759 1.921699 5.392933 0.500000 0.500000 0.500000 1.0
-2.123859 1.675695 5.839419 0.500000 0.500000 0.500000 1.0
-2.123859 -1.675696 5.839419 0.500000 0.500000 0.500000 1.0
0.052456 -2.028767 5.221671 0.500000 0.500000 0.500000 1.0
0.052339 2.028697 5.221671 0.500000 0.500000 0.500000 1.0
2.134270 1.644386 5.933585 0.500000 0.500000 0.500000 1.0
3.601891 -0.619229 2.860470 1.0 1.0 0.0 1.0
-0.815293 -1.914537 4.761702 0.500000 0.500000 0.500000 1.0
-0.815292 1.914533 4.761703 0.500000 0.500000 0.500000 1.0
-1.373514 -0.986618 2.979682 0.500000 0.500000 0.500000 1.0
-1.373516 0.986617 2.979685 0.500000 0.500000 0.500000 1.0
0.850749 1.892153 4.319083 0.500000 0.500000 0.500000 1.0
0.850759 -1.892167 4.319069 0.500000 0.500000 0.500000 1.0
5.580354 -1.394822 6.150895 0.500000 0.500000 0.500000 1.0
5.580354 1.394822 6.150894 0.500000 0.500000 0.500000 1.0
3.601892 0.619228 2.860470 1.0 1.0 0.0 1.0
-3.535059 0.659886 3.137518 1.0 1.0 0.0 1.0
1.808414 0.000011 4.801111 0.500000 0.500000 0.500000 1.0
1.192596 1.442397 3.988368 0.500000 0.500000 0.500000 1.0
1.192599 -1.442404 3.988351 0.500000 0.500000 0.500000 1.0
0.183147 1.936350 4.084657 0.500000 0.500000 0.500000 1.0
0.183203 -1.936363 4.084659 0.500000 0.500000 0.500000 1.0
-3.535059 -0.659886 3.137518 1.0 1.0 0.0 1.0
0.136655 0.000000 1.038258 1.0 1.0 0.0 1.0
1.378990 0.000008 3.543067 0.500000 0.500000 0.500000 1.0
-5.322475 1.353204 5.919160 0.500000 0.500000 0.500000 1.0
-5.322475 -1.353203 5.919160 0.500000 0.500000 0.500000 1.0
4.603314 -1.610410 6.224726 0.500000 0.500000 0.500000 1.0
4.603343 1.610402 6.224715 0.500000 0.500000 0.500000 1.0
-2.265218 0.000000 4.853204 0.500000 0.500000 0.500000 1.0
2.148532 -0.000012 5.100542 0.500000 0.500000 0.500000 1.0
2.134295 -1.644395 5.933583 0.500000 0.500000 0.500000 1.0
1.338232 1.769392 5.049517 0.500000 0.500000 0.500000 1.0
6.738938 -1.192171 6.491479 0.500000 0.500000 0.500000 1.0
6.738938 1.192171 6.491479 0.500000 0.500000 0.500000 1.0
1.338259 -1.769392 5.049491 0.500000 0.500000 0.500000 1.0
-0.979420 1.942155 5.656480 0.500000 0.500000 0.500000 1.0
-0.573448 -1.697804 3.656925 0.500000 0.500000 0.500000 1.0
-0.573448 1.697804 3.656924 0.500000 0.500000 0.500000 1.0
-4.556079 1.607653 6.201338 0.500000 0.500000 0.500000 1.0
-4.556079 -1.607653 6.201338 0.500000 0.500000 0.500000 1.0
0.763717 1.739464 3.333432 0.500000 0.500000 0.500000 1.0
0.763859 -1.739516 3.333393 0.500000 0.500000 0.500000 1.0
5.414297 -1.007281 4.855862 0.500000 0.500000 0.500000 1.0
5.414297 1.007281 4.855864 0.500000 0.500000 0.500000 1.0
4.122946 -1.687533 5.714165 0.500000 0.500000 0.500000 1.0
4.122956 1.687497 5.714175 0.500000 0.500000 0.500000 1.0
3.154238 -1.708841 5.365661 0.500000 0.500000 0.500000 1.0
3.154216 1.708968 5.365669 0.500000 0.500000 0.500000 1.0
0.244901 1.779595 2.975936 0.500000 0.500000 0.500000 1.0
0.244997 -1.779648 2.975971 0.500000 0.500000 0.500000 1.0
1.073744 1.164358 2.997135 0.500000 0.500000 0.500000 1.0
1.073753 -1.164355 2.997129 0.500000 0.500000 0.500000 1.0
-4.067638 1.677570 5.722250 0.500000 0.500000 0.500000 1.0
-4.067638 -1.677570 5.722250 0.500000 0.500000 0.500000 1.0
-3.119722 1.709004 5.253464 0.500000 0.500000 0.500000 1.0
-3.119722 -1.709004 5.253464 0.500000 0.500000 0.500000 1.0
6.396286 0.000000 5.716055 0.500000 0.500000 0.500000 1.0
2.567304 1.210594 4.931098 0.500000 0.500000 0.500000 1.0
2.567102 -1.210489 4.931082 0.500000 0.500000 0.500000 1.0
4.616712 -1.588108 5.161332 0.500000 0.500000 0.500000 1.0
4.616712 1.588109 5.161332 0.500000 0.500000 0.500000 1.0
-5.184956 1.017951 4.747538 0.500000 0.500000 0.500000 1.0
-5.184956 -1.017951 4.747539 0.500000 0.500000 0.500000 1.0
-0.436759 -1.544377 2.552689 1.000000 1.000000 1.000000 1.0
-0.436779 1.544377 2.552652 1.000000 1.000000 1.000000 1.0
-6.149960 0.000000 5.788247 0.500000 0.500000 0.500000 1.0
1.196474 0.000006 2.652255 1.000000 1.000000 1.000000 1.0
2.524512 -0.452942 3.644370 0.500000 0.500000 0.500000 1.0
2.524497 0.452898 3.644354 0.500000 0.500000 0.500000 1.0
-2.639050 1.401097 4.897806 0.500000 0.500000 0.500000 1.0
-2.639055 -1.401105 4.897809 0.500000 0.500000 0.500000 1.0
-4.493245 1.553013 5.036371 0.500000 0.500000 0.500000 1.0
-4.493245 -1.553013 5.036371 0.500000 0.500000 0.500000 1.0
-1.486512 -0.827832 2.114102 1.000000 1.000000 1.000000 1.0
-1.486514 0.827832 2.114102 1.000000 1.000000 1.000000 1.0
0.701717 1.536882 2.359649 1.000000 1.000000 1.000000 1.0
0.701742 -1.536887 2.359648 1.000000 1.000000 1.000000 1.0
-0.979420 -1.942156 5.656480 0.500000 0.500000 0.500000 1.0
4.067131 -1.651055 4.665099 0.500000 0.500000 0.500000 1.0
4.067131 1.651078 4.665103 0.500000 0.500000 0.500000 1.0
7.023035 0.000001 5.790634 1.0 1.0 0.0 1.0
4.825788 -0.975354 3.680198 0.500000 0.500000 0.500000 1.0
4.825789 0.975354 3.680198 0.500000 0.500000 0.500000 1.0
0.192455 1.577937 1.988747 1.000000 1.000000 1.000000 1.0
0.192487 -1.577936 1.988778 1.000000 1.000000 1.000000 1.0
3.307861 -1.521834 4.362342 0.500000 0.500000 0.500000 1.0
3.307860 1.521835 4.362342 0.500000 0.500000 0.500000 1.0
-3.983543 1.618136 4.679151 0.500000 0.500000 0.500000 1.0
-3.983543 -1.618136 4.679151 0.500000 0.500000 0.500000 1.0
-6.951595 0.000002 5.987608 1.0 1.0 0.0 1.0
4.479255 -1.441806 4.134568 0.500000 0.500000 0.500000 1.0
4.479255 1.441806 4.134569 0.500000 0.500000 0.500000 1.0
-2.439182 0.339505 3.842678 0.500000 0.500000 0.500000 1.0
-2.439183 -0.339505 3.842678 0.500000 0.500000 0.500000 1.0
0.976129 0.900638 2.138695 1.000000 1.000000 1.000000 1.0
0.976138 -0.900631 2.138691 1.000000 1.000000 1.000000 1.0
2.835803 -1.141306 4.142454 0.500000 0.500000 0.500000 1.0
2.835884 1.141332 4.142414 0.500000 0.500000 0.500000 1.0
-0.437501 -1.244214 1.816455 1.000000 1.000000 1.000000 1.0
-0.437507 1.244219 1.816445 1.000000 1.000000 1.000000 1.0
-3.218440 1.507917 4.334567 0.500000 0.500000 0.500000 1.0
-3.218442 -1.507919 4.334565 0.500000 0.500000 0.500000 1.0
-1.692957 0.950618 4.447027 0.500000 0.500000 0.500000 1.0
-4.616323 0.902576 3.816776 0.500000 0.500000 0.500000 1.0
-4.616323 -0.902576 3.816776 0.500000 0.500000 0.500000 1.0
-4.272054 1.308165 4.120568 0.500000 0.500000 0.500000 1.0
-4.272054 -1.308165 4.120568 0.500000 0.500000 0.500000 1.0
5.004706 -0.000000 3.684568 0.500000 0.500000 0.500000 1.0
-0.969359 -0.478241 1.471325 1.000000 1.000000 1.000000 1.0
-0.969360 0.478240 1.471325 1.000000 1.000000 1.000000 1.0
0.542332 0.899716 1.662973 1.000000 1.000000 1.000000 1.0
0.542344 -0.899716 1.662974 1.000000 1.000000 1.000000 1.0
3.859858 -1.281699 3.763405 0.500000 0.500000 0.500000 1.0
3.859865 1.281700 3.763406 0.500000 0.500000 0.500000 1.0
-2.983620 1.093294 4.042293 0.500000 0.500000 0.500000 1.0
-2.983624 -1.093299 4.042293 0.500000 0.500000 0.500000 1.0
7.852880 0.000000 6.526836 0.500000 0.500000 0.500000 1.0
-1.448265 -0.000001 2.981423 0.500000 0.500000 0.500000 1.0
-5.246716 0.000000 4.700972 0.500000 0.500000 0.500000 1.0
1.965833 0.844005 5.367868 0.500000 0.500000 0.500000 1.0
1.965833 -0.843984 5.367891 0.500000 0.500000 0.500000 1.0
5.455440 -0.000000 4.835559 0.500000 0.500000 0.500000 1.0
3 0 57 24
3 0 24 57
3 0 98 122
3 0 122 98
3 1 58 25
3 1 25 58
3 1 98 58
3 1 58 98
3 1 122 98
3 1 98 122
3 2 31 6
3 2 6 31
3 2 110 35
3 2 35 110
3 3 65 26
3 3 26 65
3 3 113 65
3 3 65 113
3 4 149 113
3 4 113 149
3 5 36 68
3 5 68 36
3 6 31 63
3 6 63 31
3 6 63 10
3 6 10 63
3 7 5 32
3 7 32 5
3 7 11 37
3 7 37 11
3 8 68 5
3 8 5 68
3 8 68 33
3 8 33 68
3 9 110 2
3 9 2 110
3 11 15 37
3 11 37 15
3 13 17 34
3 13 34 17
3 13 34 9
3 13 9 34
3 14 77 18
3 14 18 77
3 14 79 77
3 14 77 79
3 15 37 80
3 15 80 37
3 16 20 85
3 16 85 20
3 16 85 87
3 16 87 85
3 18 22 59
3 18 59 22
3 18 77 59
3 18 59 77
3 22 45 59
3 22 59 45
3 23 46 27
3 23 27 46
3 23 60 19
3 23 19 60
3 24 20 71
3 24 71 20
3 25 21 72
3 25 72 21
3 25 58 72
3 25 72 58
3 26 22 45
3 26 45 22
3 27 4 66
3 27 66 4
3 27 46 66
3 27 66 46
3 29 4 149
3 29 149 4
3 30 34 39
3 30 39 34
3 30 41 150
3 30 150 41
3 30 61 135
3 30 135 61
3 30 69 39
3 30 39 69
3 30 69 41
3 30 41 69
3 31 35 2
3 31 2 35
3 31 35 44
3 31 44 35
3 31 44 67
3 31 67 44
3 31 67 63
3 31 63 67
3 32 36 5
3 32 5 36
3 32 43 36
3 32 36 43
3 32 64 43
3 32 43 64
3 33 8 12
3 33 12 8
3 33 12 16
3 33 16 12
3 33 16 87
3 33 87 16
3 33 61 135
3 33 135 61
3 33 87 102
3 33 102 87
3 34 17 88
3 34 88 17
3 34 61 30
3 34 30 61
3 34 103 61
3 34 61 103
3 35 39 53
3 35 53 39
3 36 40 52
3 36 52 40
3 36 52 43
3 36 43 52
3 36 68 40
3 36 40 68
3 37 7 32
3 37 32 7
3 37 32 64
3 37 64 32
3 37 62 90
3 37 90 62
3 37 64 152
3 37 152 64
3 37 90 80
3 37 80 90
3 38 100 101
3 38 101 100
3 38 100 129
3 38 129 100
3 38 101 47
3 38 47 101
3 38 114 123
3 38 123 114
3 38 114 140
3 38 140 114
3 38 118 145
3 38 145 118
3 38 129 118
3 38 118 129
3 38 140 47
3 38 47 140
3 39 34 110
3 39 110 34
3 39 53 69
3 39 69 53
3 40 33 135
3 40 135 33
3 41 106 131
3 41 131 106
3 41 131 96
3 41 96 131
3 42 97 70
3 42 70 97
3 42 150 107
3 42 107 150
3 43 73 52
3 43 52 73
3 44 51 74
3 44 74 51
3 44 53 35
3 44 35 53
3 45 75 92
3 45 92 75
3 45 89 65
3 45 65 89
3 45 92 59
3 45 59 92
3 46 60 23
3 46 23 60
3 46 76 89
3 46 89 76
3 46 76 93
3 46 93 76
3 46 93 60
3 46 60 93
3 47 119 130
3 47 130 119
3 47 146 119
3 47 119 146
3 48 120 138
3 48 138 120
3 48 133 120
3 48 120 133
3 48 136 137
3 48 137 136
3 48 136 138
3 48 138 136
3 48 137 54
3 48 54 137
3 49 51 56
3 49 56 51
3 49 51 67
3 49 67 51
3 49 56 50
3 49 50 56
3 49 62 152
3 49 152 62
3 49 153 67
3 49 67 153
3 50 64 43
3 50 43 64
3 50 73 43
3 50 43 73
3 50 83 56
3 50 56 83
3 51 67 44
3 51 44 67
3 51 84 56
3 51 56 84
3 52 70 40
3 52 40 70
3 52 73 81
3 52 81 73
3 52 81 70
3 52 70 81
3 53 44 74
3 53 74 44
3 53 69 82
3 53 82 69
3 53 82 74
3 53 74 82
3 54 48 125
3 54 125 48
3 54 125 126
3 54 126 125
3 54 134 121
3 54 121 134
3 54 137 139
3 54 139 137
3 54 148 134
3 54 134 148
3 55 116 143
3 55 143 116
3 55 128 99
3 55 99 128
3 55 144 117
3 55 117 144
3 56 84 99
3 56 99 84
3 56 99 83
3 56 83 99
3 57 71 24
3 57 24 71
3 57 94 104
3 57 104 94
3 57 98 0
3 57 0 98
3 58 98 95
3 58 95 98
3 58 105 72
3 58 72 105
3 60 78 19
3 60 19 78
3 61 33 102
3 61 102 33
3 61 125 147
3 61 147 125
3 61 126 125
3 61 125 126
3 61 126 148
3 61 148 126
3 61 148 103
3 61 103 148
3 62 63 91
3 62 91 63
3 62 101 100
3 62 100 101
3 62 101 130
3 62 130 101
3 62 129 100
3 62 100 129
3 63 14 10
3 63 10 14
3 63 67 153
3 63 153 67
3 64 49 50
3 64 50 49
3 65 45 26
3 65 26 45
3 66 4 113
3 66 113 4
3 66 46 89
3 66 89 46
3 66 89 113
3 66 113 89
3 68 33 40
3 68 40 33
3 70 42 135
3 70 135 42
3 70 81 97
3 70 97 81
3 70 135 40
3 70 40 135
3 71 85 20
3 71 20 85
3 72 105 86
3 72 86 105
3 73 81 108
3 73 108 81
3 74 51 84
3 74 84 51
3 74 109 82
3 74 82 109
3 75 45 89
3 75 89 45
3 75 114 123
3 75 123 114
3 75 123 92
3 75 92 123
3 75 154 140
3 75 140 154
3 76 115 140
3 76 140 115
3 76 124 93
3 76 93 124
3 76 140 154
3 76 154 140
3 76 154 89
3 76 89 154
3 77 59 92
3 77 92 59
3 77 79 111
3 77 111 79
3 78 19 15
3 78 15 19
3 78 60 93
3 78 93 60
3 78 80 15
3 78 15 80
3 79 63 14
3 79 14 63
3 79 91 63
3 79 63 91
3 81 97 116
3 81 116 97
3 82 96 69
3 82 69 96
3 82 96 117
3 82 117 96
3 83 73 50
3 83 50 73
3 83 108 73
3 83 73 108
3 83 127 99
3 83 99 127
3 83 127 108
3 83 108 127
3 84 74 109
3 84 109 74
3 84 128 99
3 84 99 128
3 85 71 104
3 85 104 71
3 85 87 120
3 85 120 87
3 85 104 120
3 85 120 104
3 86 17 88
3 86 88 17
3 86 21 17
3 86 17 21
3 86 72 21
3 86 21 72
3 86 121 88
3 86 88 121
3 87 120 133
3 87 133 120
3 88 34 103
3 88 103 34
3 88 134 103
3 88 103 134
3 89 113 65
3 89 65 113
3 90 119 80
3 90 80 119
3 90 119 130
3 90 130 119
3 90 130 62
3 90 62 130
3 91 118 129
3 91 129 118
3 92 111 77
3 92 77 111
3 92 111 123
3 92 123 111
3 93 112 124
3 93 124 112
3 94 151 136
3 94 136 151
3 95 58 105
3 95 105 58
3 95 105 139
3 95 139 105
3 96 41 69
3 96 69 41
3 97 116 132
3 97 132 116
3 98 57 94
3 98 94 57
3 98 95 151
3 98 151 95
3 99 55 127
3 99 127 55
3 101 47 130
3 101 130 47
3 102 61 147
3 102 147 61
3 102 87 133
3 102 133 87
3 102 133 147
3 102 147 133
3 104 57 71
3 104 71 57
3 104 94 138
3 104 138 94
3 106 150 41
3 106 41 150
3 106 150 107
3 106 107 150
3 107 106 141
3 107 141 106
3 107 141 142
3 107 142 141
3 108 116 81
3 108 81 116
3 109 82 117
3 109 117 82
3 109 84 128
3 109 128 84
3 109 117 144
3 109 144 117
3 109 144 128
3 109 128 144
3 110 34 9
3 110 9 34
3 110 39 35
3 110 35 39
3 111 118 79
3 111 79 118
3 111 118 145
3 111 145 118
3 112 78 80
3 112 80 78
3 112 93 78
3 112 78 93
3 112 119 80
3 112 80 119
3 112 146 119
3 112 119 146
3 115 124 47
3 115 47 124
3 115 124 76
3 115 76 124
3 115 140 47
3 115 47 140
3 116 143 108
3 116 108 143
3 117 55 131
3 117 131 55
3 117 131 96
3 117 96 131
3 118 91 79
3 118 79 91
3 120 138 104
3 120 104 138
3 121 54 139
3 121 139 54
3 121 105 86
3 121 86 105
3 121 139 105
3 121 105 139
3 122 0 28
3 122 28 0
3 122 28 1
3 122 1 28
3 123 145 111
3 123 111 145
3 124 146 47
3 124 47 146
3 125 147 48
3 125 48 147
3 126 148 54
3 126 54 148
3 129 62 91
3 129 91 62
3 131 106 141
3 131 141 106
3 131 141 55
3 131 55 141
3 132 55 116
3 132 116 55
3 132 55 142
3 132 142 55
3 132 97 42
3 132 42 97
3 132 107 42
3 132 42 107
3 132 142 107
3 132 107 142
3 133 147 48
3 133 48 147
3 134 121 88
3 134 88 121
3 135 30 150
3 135 150 30
3 135 42 150
3 135 150 42
3 136 138 94
3 136 94 138
3 137 139 95
3 137 95 139
3 137 151 95
3 137 95 151
3 140 114 75
3 140 75 114
3 141 55 142
3 141 142 55
3 143 127 55
3 143 55 127
3 143 127 108
3 143 108 127
3 144 55 128
3 144 128 55
3 145 38 123
3 145 123 38
3 146 112 124
3 146 124 112
3 148 103 134
3 148 134 103
3 149 29 3
3 149 3 29
3 149 113 3
3 149 3 113
3 151 98 94
3 151 94 98
3 151 136 137
3 151 137 136
3 152 62 37
3 152 37 62
3 152 64 49
3 152 49 64
3 153 62 49
3 153 49 62
3 153 62 63
3 153 63 62
3 154 75 89
3 154 89 75
