# Generated by dad_to_polygons. Vertex data from Humppa's .off file,
# polygons parsed from .dad file.
COFF
166 600 166
-6.661144 1.296738 7.315636 0.500000 0.500000 0.500000 1.0
-6.661147 -1.296735 7.315637 0.500000 0.500000 0.500000 1.0
-0.034040 -2.373954 6.999734 0.500000 0.500000 0.500000 1.0
7.545383 -1.201499 7.459624 0.500000 0.500000 0.500000 1.0
7.545382 1.201500 7.459624 0.500000 0.500000 0.500000 1.0
-0.034040 2.373954 6.999734 0.500000 0.500000 0.500000 1.0
1.176467 -2.048510 7.144880 0.500000 0.500000 0.500000 1.0
1.176467 2.048510 7.144880 0.500000 0.500000 0.500000 1.0
-1.194681 2.035575 7.111076 0.500000 0.500000 0.500000 1.0
-1.194681 -2.035575 7.111076 0.500000 0.500000 0.500000 1.0
2.077749 -1.722419 7.431489 0.500000 0.500000 0.500000 1.0
2.077749 1.722419 7.431489 0.500000 0.500000 0.500000 1.0
-2.104606 1.738012 7.400668 0.500000 0.500000 0.500000 1.0
-2.104606 -1.738012 7.400668 0.500000 0.500000 0.500000 1.0
3.051983 -1.886350 7.152110 0.500000 0.500000 0.500000 1.0
3.051970 1.886348 7.152098 0.500000 0.500000 0.500000 1.0
-3.039848 1.895573 7.084254 0.500000 0.500000 0.500000 1.0
-3.039848 -1.895573 7.084254 0.500000 0.500000 0.500000 1.0
4.144306 -1.773992 7.284613 0.500000 0.500000 0.500000 1.0
4.144306 1.773992 7.284613 0.500000 0.500000 0.500000 1.0
-4.106281 1.775761 7.222751 0.500000 0.500000 0.500000 1.0
-4.106281 -1.775761 7.222751 0.500000 0.500000 0.500000 1.0
5.135554 -1.551731 7.369880 0.500000 0.500000 0.500000 1.0
5.135554 1.551731 7.369880 0.500000 0.500000 0.500000 1.0
-5.107560 1.567239 7.288910 0.500000 0.500000 0.500000 1.0
-5.107560 -1.567239 7.288911 0.500000 0.500000 0.500000 1.0
6.123503 -1.412868 7.446989 0.500000 0.500000 0.500000 1.0
6.123503 1.412868 7.446989 0.500000 0.500000 0.500000 1.0
-7.958205 -0.000059 7.321371 0.500000 0.500000 0.500000 1.0
8.748102 0.000140 7.479109 0.500000 0.500000 0.500000 1.0
-1.752882 -0.987587 4.708406 0.500000 0.500000 0.500000 1.0
0.980989 -1.950041 5.545307 1.0 1.0 0.0 1.0
0.980981 1.950039 5.545289 1.0 1.0 0.0 1.0
-2.133539 1.758682 6.149392 0.500000 0.500000 0.500000 1.0
-2.133539 -1.758682 6.149392 0.500000 0.500000 0.500000 1.0
0.031639 -2.064636 5.506543 0.500000 0.500000 0.500000 1.0
0.031542 2.064555 5.506536 0.500000 0.500000 0.500000 1.0
2.121383 1.719852 6.220125 0.500000 0.500000 0.500000 1.0
3.641712 -0.619988 2.860470 1.0 1.0 0.0 1.0
-0.854140 -1.951551 5.029875 0.500000 0.500000 0.500000 1.0
-0.854139 1.951550 5.029875 0.500000 0.500000 0.500000 1.0
-1.361027 -0.959114 3.221792 0.500000 0.500000 0.500000 1.0
-1.361055 0.959075 3.221794 0.500000 0.500000 0.500000 1.0
0.875440 1.908960 4.558765 0.500000 0.500000 0.500000 1.0
0.875454 -1.908959 4.558753 0.500000 0.500000 0.500000 1.0
5.593703 -1.459903 6.452111 0.500000 0.500000 0.500000 1.0
5.593738 1.459896 6.452146 0.500000 0.500000 0.500000 1.0
3.641716 0.619988 2.860470 1.0 1.0 0.0 1.0
-3.547011 0.660046 3.137518 1.0 1.0 0.0 1.0
1.856554 0.000008 4.974054 0.500000 0.500000 0.500000 1.0
1.220164 1.477282 4.250995 0.500000 0.500000 0.500000 1.0
1.220140 -1.477313 4.250920 0.500000 0.500000 0.500000 1.0
0.173537 1.964389 4.353922 0.500000 0.500000 0.500000 1.0
0.173599 -1.964230 4.353924 0.500000 0.500000 0.500000 1.0
-3.547011 -0.660047 3.137518 1.0 1.0 0.0 1.0
0.130185 0.000000 1.038258 1.0 1.0 0.0 1.0
1.415715 0.000004 3.796687 0.500000 0.500000 0.500000 1.0
-5.334558 1.417199 6.229791 0.500000 0.500000 0.500000 1.0
-5.334558 -1.417199 6.229791 0.500000 0.500000 0.500000 1.0
4.613144 -1.668799 6.537535 0.500000 0.500000 0.500000 1.0
4.613144 1.668799 6.537534 0.500000 0.500000 0.500000 1.0
-2.366273 0.000003 5.024668 0.500000 0.500000 0.500000 1.0
2.114994 0.000007 5.348800 0.500000 0.500000 0.500000 1.0
2.121396 -1.719853 6.220125 0.500000 0.500000 0.500000 1.0
1.388803 1.765216 5.266139 0.500000 0.500000 0.500000 1.0
6.771251 -1.273394 6.759543 0.500000 0.500000 0.500000 1.0
6.771250 1.273394 6.759543 0.500000 0.500000 0.500000 1.0
1.388858 -1.765213 5.266097 0.500000 0.500000 0.500000 1.0
-0.984137 1.975902 5.831608 1.0 1.0 0.0 1.0
-0.619650 -1.716507 3.916390 0.500000 0.500000 0.500000 1.0
-0.619643 1.716515 3.916400 0.500000 0.500000 0.500000 1.0
-4.570054 1.670290 6.518059 0.500000 0.500000 0.500000 1.0
-4.570054 -1.670290 6.518059 0.500000 0.500000 0.500000 1.0
0.783511 1.766463 3.597569 0.500000 0.500000 0.500000 1.0
0.783635 -1.766440 3.597593 0.500000 0.500000 0.500000 1.0
5.423925 -1.057512 5.135628 0.500000 0.500000 0.500000 1.0
5.423926 1.057510 5.135630 0.500000 0.500000 0.500000 1.0
4.132871 -1.746767 6.027016 0.500000 0.500000 0.500000 1.0
4.132868 1.746766 6.027018 0.500000 0.500000 0.500000 1.0
3.146320 -1.773227 5.659410 0.500000 0.500000 0.500000 1.0
3.146311 1.773224 5.659420 0.500000 0.500000 0.500000 1.0
0.232432 1.805225 3.217545 1.000000 1.000000 1.000000 1.0
0.232247 -1.805394 3.217580 1.000000 1.000000 1.000000 1.0
1.087124 1.208311 3.233046 1.000000 1.000000 1.000000 1.0
1.087129 -1.208309 3.233036 1.000000 1.000000 1.000000 1.0
-4.081043 1.745175 6.021000 0.500000 0.500000 0.500000 1.0
-4.081043 -1.745175 6.021000 0.500000 0.500000 0.500000 1.0
-3.119125 1.787529 5.541304 0.500000 0.500000 0.500000 1.0
-3.119125 -1.787529 5.541305 0.500000 0.500000 0.500000 1.0
6.241046 0.000000 5.967634 0.500000 0.500000 0.500000 1.0
2.604467 1.259310 5.093261 0.500000 0.500000 0.500000 1.0
2.604363 -1.259238 5.093201 0.500000 0.500000 0.500000 1.0
4.641120 -1.652058 5.451492 0.500000 0.500000 0.500000 1.0
4.641118 1.652002 5.451458 0.500000 0.500000 0.500000 1.0
-5.231925 1.070953 5.047597 0.500000 0.500000 0.500000 1.0
-5.231926 -1.070952 5.047597 0.500000 0.500000 0.500000 1.0
-0.458193 -1.552038 2.769113 1.000000 1.000000 1.000000 1.0
-0.458194 1.552043 2.769083 1.000000 1.000000 1.000000 1.0
-6.134262 0.000001 6.037264 0.500000 0.500000 0.500000 1.0
1.217404 0.000001 2.849915 1.000000 1.000000 1.000000 1.0
2.575288 -0.600723 3.780247 0.500000 0.500000 0.500000 1.0
2.575310 0.600695 3.780239 0.500000 0.500000 0.500000 1.0
-2.633934 1.505725 5.135815 0.500000 0.500000 0.500000 1.0
-2.633939 -1.505729 5.135816 0.500000 0.500000 0.500000 1.0
-4.539562 1.615564 5.314465 0.500000 0.500000 0.500000 1.0
-4.539562 -1.615564 5.314465 0.500000 0.500000 0.500000 1.0
-1.483067 -0.595023 2.386989 1.000000 1.000000 1.000000 1.0
-1.483067 0.595025 2.386989 1.000000 1.000000 1.000000 1.0
0.687677 1.586402 2.599496 1.000000 1.000000 1.000000 1.0
0.687640 -1.586584 2.599494 1.000000 1.000000 1.000000 1.0
-0.984137 -1.975902 5.831608 1.0 1.0 0.0 1.0
4.074904 -1.713821 4.929099 0.500000 0.500000 0.500000 1.0
4.075134 1.713861 4.929103 0.500000 0.500000 0.500000 1.0
7.054442 0.000001 5.790634 1.0 1.0 0.0 1.0
4.973138 -0.946162 3.899316 0.500000 0.500000 0.500000 1.0
4.973139 0.946160 3.899316 0.500000 0.500000 0.500000 1.0
0.201660 1.641193 2.228369 1.000000 1.000000 1.000000 1.0
0.201693 -1.641194 2.228396 1.000000 1.000000 1.000000 1.0
3.302921 -1.574269 4.583798 0.500000 0.500000 0.500000 1.0
3.302893 1.574390 4.583800 0.500000 0.500000 0.500000 1.0
-4.037368 1.696369 4.935595 0.500000 0.500000 0.500000 1.0
-4.037398 -1.696378 4.935595 0.500000 0.500000 0.500000 1.0
-7.012163 0.000003 5.987608 1.0 1.0 0.0 1.0
4.588988 -1.494699 4.300340 0.500000 0.500000 0.500000 1.0
4.588989 1.494696 4.300339 0.500000 0.500000 0.500000 1.0
-2.599774 0.462248 3.943378 0.500000 0.500000 0.500000 1.0
-2.599774 -0.462245 3.943378 0.500000 0.500000 0.500000 1.0
0.975683 0.987217 2.338896 1.000000 1.000000 1.000000 1.0
0.975695 -0.987209 2.338891 1.000000 1.000000 1.000000 1.0
2.830828 -1.188286 4.427040 0.500000 0.500000 0.500000 1.0
2.830783 1.188389 4.426998 0.500000 0.500000 0.500000 1.0
-0.608826 -1.285249 2.035661 1.000000 1.000000 1.000000 1.0
-0.608835 1.285253 2.035637 1.000000 1.000000 1.000000 1.0
-3.265491 1.637820 4.550147 0.500000 0.500000 0.500000 1.0
-3.265493 -1.637821 4.550145 0.500000 0.500000 0.500000 1.0
-1.752877 0.987589 4.708403 0.500000 0.500000 0.500000 1.0
-4.848002 0.926881 4.030718 0.500000 0.500000 0.500000 1.0
-4.848002 -0.926881 4.030718 0.500000 0.500000 0.500000 1.0
-4.447013 1.423376 4.289076 0.500000 0.500000 0.500000 1.0
-4.447014 -1.423375 4.289076 0.500000 0.500000 0.500000 1.0
5.287002 -0.000001 3.921475 0.500000 0.500000 0.500000 1.0
-1.230003 -0.512207 1.525211 1.000000 1.000000 1.000000 1.0
-1.230004 0.512205 1.525210 1.000000 1.000000 1.000000 1.0
0.652790 1.148993 1.758800 1.000000 1.000000 1.000000 1.0
0.652802 -1.148998 1.758806 1.000000 1.000000 1.000000 1.0
3.969639 -1.511477 3.961608 0.500000 0.500000 0.500000 1.0
3.969657 1.511482 3.961603 0.500000 0.500000 0.500000 1.0
-2.907780 1.301942 4.270772 0.500000 0.500000 0.500000 1.0
-2.907788 -1.301946 4.270772 0.500000 0.500000 0.500000 1.0
7.982657 -0.000000 6.821774 0.500000 0.500000 0.500000 1.0
-1.636882 0.000018 3.221911 0.500000 0.500000 0.500000 1.0
-5.455082 0.000000 4.916901 0.500000 0.500000 0.500000 1.0
2.053511 0.893645 5.653228 0.500000 0.500000 0.500000 1.0
2.053500 -0.893620 5.653295 0.500000 0.500000 0.500000 1.0
5.690523 -0.000000 5.053588 0.500000 0.500000 0.500000 1.0
-2.163032 1.035084 5.512997 0.500000 0.500000 0.500000 1.0
-2.163031 -1.035082 5.512998 0.500000 0.500000 0.500000 1.0
0.861796 0.000002 1.979438 1.000000 1.000000 1.000000 1.0
-3.866441 1.339915 4.025878 0.500000 0.500000 0.500000 1.0
-3.866443 -1.339914 4.025878 0.500000 0.500000 0.500000 1.0
7.359267 -0.694929 6.638029 0.500000 0.500000 0.500000 1.0
7.359266 0.694930 6.638029 0.500000 0.500000 0.500000 1.0
0.155356 0.887185 1.611181 1.000000 1.000000 1.000000 1.0
0.155370 -0.887183 1.611195 1.000000 1.000000 1.000000 1.0
4.499955 -0.305450 3.369543 0.500000 0.500000 0.500000 1.0
4.499957 0.305449 3.369543 0.500000 0.500000 0.500000 1.0
3 1 98 122
3 1 122 98
3 2 31 35
3 2 35 31
3 2 110 9
3 2 9 110
3 3 65 26
3 3 26 65
3 3 149 29
3 3 29 149
3 3 160 65
3 3 65 160
3 3 160 149
3 3 149 160
3 4 27 66
3 4 66 27
3 4 66 161
3 4 161 66
3 5 32 7
3 5 7 32
3 5 32 36
3 5 36 32
3 6 2 31
3 6 31 2
3 6 31 63
3 6 63 31
3 6 63 10
3 6 10 63
3 7 32 37
3 7 37 32
3 8 33 12
3 8 12 33
3 8 68 5
3 8 5 68
3 8 68 33
3 8 33 68
3 9 34 110
3 9 110 34
3 11 15 37
3 11 37 15
3 11 37 7
3 11 7 37
3 13 34 9
3 13 9 34
3 13 34 17
3 13 17 34
3 14 10 63
3 14 63 10
3 14 63 79
3 14 79 63
3 14 77 18
3 14 18 77
3 18 77 59
3 18 59 77
3 19 78 15
3 19 15 78
3 19 78 60
3 19 60 78
3 20 16 85
3 20 85 16
3 20 24 71
3 20 71 24
3 20 85 71
3 20 71 85
3 21 86 17
3 21 17 86
3 23 60 19
3 23 19 60
3 25 21 72
3 25 72 21
3 25 58 72
3 25 72 58
3 26 22 45
3 26 45 22
3 26 45 65
3 26 65 45
3 27 66 46
3 27 46 66
3 28 1 122
3 28 122 1
3 29 149 4
3 29 4 149
3 30 34 156
3 30 156 34
3 30 39 34
3 30 34 39
3 30 39 69
3 30 69 39
3 30 41 69
3 30 69 41
3 30 61 156
3 30 156 61
3 30 135 150
3 30 150 135
3 30 150 41
3 30 41 150
3 31 44 35
3 31 35 44
3 32 37 64
3 32 64 37
3 32 64 43
3 32 43 64
3 33 12 16
3 33 16 12
3 33 68 40
3 33 40 68
3 33 135 40
3 33 40 135
3 33 135 155
3 33 155 135
3 33 155 102
3 33 102 155
3 35 39 110
3 35 110 39
3 36 32 43
3 36 43 32
3 36 40 68
3 36 68 40
3 36 43 52
3 36 52 43
3 36 52 40
3 36 40 52
3 36 68 5
3 36 5 68
3 37 15 80
3 37 80 15
3 37 64 152
3 37 152 64
3 38 100 101
3 38 101 100
3 38 101 47
3 38 47 101
3 38 129 118
3 38 118 129
3 38 140 114
3 38 114 140
3 38 145 118
3 38 118 145
3 38 164 140
3 38 140 164
3 38 164 165
3 38 165 164
3 38 165 47
3 38 47 165
3 39 35 53
3 39 53 35
3 39 53 69
3 39 69 53
3 40 70 52
3 40 52 70
3 40 135 70
3 40 70 135
3 41 96 131
3 41 131 96
3 41 106 150
3 41 150 106
3 42 70 97
3 42 97 70
3 42 107 132
3 42 132 107
3 42 132 97
3 42 97 132
3 42 150 107
3 42 107 150
3 42 150 135
3 42 135 150
3 43 50 73
3 43 73 50
3 43 64 50
3 43 50 64
3 43 73 52
3 43 52 73
3 44 35 53
3 44 53 35
3 44 51 67
3 44 67 51
3 44 74 51
3 44 51 74
3 45 59 22
3 45 22 59
3 45 92 59
3 45 59 92
3 46 23 27
3 46 27 23
3 46 23 60
3 46 60 23
3 46 60 93
3 46 93 60
3 46 76 93
3 46 93 76
3 46 89 76
3 46 76 89
3 47 119 130
3 47 130 119
3 47 124 146
3 47 146 124
3 47 130 101
3 47 101 130
3 47 140 115
3 47 115 140
3 47 146 119
3 47 119 146
3 47 165 140
3 47 140 165
3 48 125 147
3 48 147 125
3 48 133 158
3 48 158 133
3 48 136 137
3 48 137 136
3 48 137 54
3 48 54 137
3 48 138 158
3 48 158 138
3 48 147 133
3 48 133 147
3 49 67 51
3 49 51 67
3 49 153 67
3 49 67 153
3 50 49 56
3 50 56 49
3 50 56 83
3 50 83 56
3 50 64 49
3 50 49 64
3 50 83 73
3 50 73 83
3 51 49 56
3 51 56 49
3 51 56 84
3 51 84 56
3 51 74 84
3 51 84 74
3 52 73 81
3 52 81 73
3 52 81 70
3 52 70 81
3 53 44 74
3 53 74 44
3 53 69 82
3 53 82 69
3 53 82 74
3 53 74 82
3 54 125 48
3 54 48 125
3 54 126 125
3 54 125 126
3 54 139 137
3 54 137 139
3 54 148 134
3 54 134 148
3 54 159 139
3 54 139 159
3 55 127 143
3 55 143 127
3 55 128 144
3 55 144 128
3 55 144 163
3 55 163 144
3 55 157 128
3 55 128 157
3 56 83 99
3 56 99 83
3 57 0 24
3 57 24 0
3 57 0 98
3 57 98 0
3 58 1 98
3 58 98 1
3 58 25 1
3 58 1 25
3 58 95 105
3 58 105 95
3 58 98 95
3 58 95 98
3 58 105 72
3 58 72 105
3 59 22 18
3 59 18 22
3 59 77 92
3 59 92 77
3 60 78 93
3 60 93 78
3 61 102 155
3 61 155 102
3 61 125 126
3 61 126 125
3 61 126 148
3 61 148 126
3 61 135 155
3 61 155 135
3 61 147 125
3 61 125 147
3 62 49 153
3 62 153 49
3 62 63 153
3 62 153 63
3 62 90 37
3 62 37 90
3 62 91 63
3 62 63 91
3 62 100 101
3 62 101 100
3 62 129 100
3 62 100 129
3 62 130 90
3 62 90 130
3 62 152 37
3 62 37 152
3 63 67 31
3 63 31 67
3 63 67 153
3 63 153 67
3 64 49 152
3 64 152 49
3 65 45 89
3 65 89 45
3 66 46 89
3 66 89 46
3 66 161 113
3 66 113 161
3 67 44 31
3 67 31 44
3 69 96 82
3 69 82 96
3 70 42 135
3 70 135 42
3 71 57 24
3 71 24 57
3 71 57 104
3 71 104 57
3 71 104 85
3 71 85 104
3 72 86 21
3 72 21 86
3 72 105 86
3 72 86 105
3 73 108 81
3 73 81 108
3 74 82 109
3 74 109 82
3 74 109 84
3 74 84 109
3 75 45 89
3 75 89 45
3 75 92 45
3 75 45 92
3 75 114 123
3 75 123 114
3 75 123 92
3 75 92 123
3 76 93 124
3 76 124 93
3 76 115 124
3 76 124 115
3 76 140 115
3 76 115 140
3 76 154 89
3 76 89 154
3 77 79 14
3 77 14 79
3 77 111 79
3 77 79 111
3 77 111 92
3 77 92 111
3 78 15 80
3 78 80 15
3 79 118 91
3 79 91 118
3 79 118 111
3 79 111 118
3 80 37 90
3 80 90 37
3 80 112 119
3 80 119 112
3 80 119 90
3 80 90 119
3 81 97 70
3 81 70 97
3 81 116 97
3 81 97 116
3 83 73 108
3 83 108 73
3 84 56 99
3 84 99 56
3 84 128 99
3 84 99 128
3 85 87 16
3 85 16 87
3 85 87 120
3 85 120 87
3 86 17 88
3 86 88 17
3 86 88 121
3 86 121 88
3 87 33 16
3 87 16 33
3 87 102 33
3 87 33 102
3 87 133 102
3 87 102 133
3 88 34 17
3 88 17 34
3 88 103 34
3 88 34 103
3 88 134 103
3 88 103 134
3 89 65 113
3 89 113 65
3 90 119 130
3 90 130 119
3 91 62 129
3 91 129 62
3 91 79 63
3 91 63 79
3 92 123 111
3 92 111 123
3 93 112 78
3 93 78 112
3 93 124 112
3 93 112 124
3 94 57 98
3 94 98 57
3 94 57 104
3 94 104 57
3 94 98 151
3 94 151 98
3 95 105 139
3 95 139 105
3 95 137 139
3 95 139 137
3 95 151 98
3 95 98 151
3 96 69 41
3 96 41 69
3 96 82 117
3 96 117 82
3 96 117 131
3 96 131 117
3 97 116 132
3 97 132 116
3 98 122 0
3 98 0 122
3 99 83 127
3 99 127 83
3 100 129 38
3 100 38 129
3 102 61 147
3 102 147 61
3 104 94 138
3 104 138 94
3 104 120 85
3 104 85 120
3 104 138 120
3 104 120 138
3 105 121 86
3 105 86 121
3 105 139 121
3 105 121 139
3 106 107 142
3 106 142 107
3 106 142 141
3 106 141 142
3 108 83 127
3 108 127 83
3 108 116 81
3 108 81 116
3 108 127 143
3 108 143 127
3 108 143 116
3 108 116 143
3 109 84 128
3 109 128 84
3 109 117 82
3 109 82 117
3 109 128 144
3 109 144 128
3 110 2 35
3 110 35 2
3 110 34 39
3 110 39 34
3 111 145 123
3 111 123 145
3 112 78 80
3 112 80 78
3 112 119 146
3 112 146 119
3 113 65 160
3 113 160 65
3 113 89 66
3 113 66 89
3 113 160 149
3 113 149 160
3 114 38 123
3 114 123 38
3 114 140 75
3 114 75 140
3 117 109 144
3 117 144 109
3 117 163 131
3 117 131 163
3 118 129 91
3 118 91 129
3 118 145 111
3 118 111 145
3 120 133 87
3 120 87 133
3 120 138 158
3 120 158 138
3 120 158 133
3 120 133 158
3 121 134 88
3 121 88 134
3 121 134 159
3 121 159 134
3 122 28 0
3 122 0 28
3 124 115 47
3 124 47 115
3 124 146 112
3 124 112 146
3 126 148 54
3 126 54 148
3 130 101 62
3 130 62 101
3 131 41 106
3 131 106 41
3 131 55 141
3 131 141 55
3 131 141 106
3 131 106 141
3 132 107 142
3 132 142 107
3 132 142 55
3 132 55 142
3 132 162 55
3 132 55 162
3 133 147 102
3 133 102 147
3 134 148 103
3 134 103 148
3 135 61 30
3 135 30 61
3 136 48 138
3 136 138 48
3 136 94 151
3 136 151 94
3 136 138 94
3 136 94 138
3 140 165 164
3 140 164 165
3 142 141 55
3 142 55 141
3 143 162 55
3 143 55 162
3 144 163 117
3 144 117 163
3 145 38 123
3 145 123 38
3 148 103 61
3 148 61 103
3 150 107 106
3 150 106 107
3 151 95 137
3 151 137 95
3 151 137 136
3 151 136 137
3 152 62 49
3 152 49 62
3 154 75 89
3 154 89 75
3 154 75 140
3 154 140 75
3 154 76 140
3 154 140 76
3 156 34 103
3 156 103 34
3 156 61 103
3 156 103 61
3 157 55 127
3 157 127 55
3 157 99 128
3 157 128 99
3 157 127 99
3 157 99 127
3 159 54 134
3 159 134 54
3 159 139 121
3 159 121 139
3 161 4 149
3 161 149 4
3 161 149 113
3 161 113 149
3 162 116 132
3 162 132 116
3 162 116 143
3 162 143 116
3 163 55 131
3 163 131 55
