 COFF
          15          96          15
  
  -2.3857284410076725       0.57256238017811056        1.7281886132465198       0.60000002384185791       0.60000002384185791       0.60000002384185791       0.80000001192092896     
  -2.3857284410076720      -0.57256238017811056        1.7281886132465198       0.60000002384185791       0.60000002384185791       0.60000002384185791       0.80000001192092896     
  -3.9250545802869304E-003  -1.1547435518357239        1.7212775135924729       0.60000002384185791       0.60000002384185791       0.60000002384185791       0.80000001192092896     
   2.6012049885597621      -0.57042939738637644        1.7328419530136734       0.60000002384185791       0.60000002384185791       0.60000002384185791       0.80000001192092896     
   2.6012049885597626       0.57042939738637644        1.7328419530136734       0.60000002384185791       0.60000002384185791       0.60000002384185791       0.80000001192092896     
  -3.9250545802869252E-003   1.1547435518357239        1.7212775135924729       0.60000002384185791       0.60000002384185791       0.60000002384185791       0.80000001192092896     
  0.97693679205557860      -0.88399157710214049        1.7237732184851788       0.60000002384185791       0.60000002384185791       0.60000002384185791       0.80000001192092896     
  0.97693679205557860       0.88399157710214027        1.7237732184851788       0.60000002384185791       0.60000002384185791       0.60000002384185791       0.80000001192092896     
 -0.97854418527107945       0.88077639263194618        1.7225860641718460       0.60000002384185791       0.60000002384185791       0.60000002384185791       0.80000001192092896     
 -0.97854418527107945      -0.88077639263194629        1.7225860641718460       0.60000002384185791       0.60000002384185791       0.60000002384185791       0.80000001192092896     
   1.1355901624017075      -0.46950972990491502        1.3263887760974273       0.60000002384185791       0.60000002384185791       0.60000002384185791       0.80000001192092896     
  -1.0880178741933413       0.43019256790047739        1.3299338640203637       0.60000002384185791       0.60000002384185791       0.60000002384185791       0.80000001192092896     
  -1.0880178741933413      -0.43019256790047744        1.3299338640203637       0.60000002384185791       0.60000002384185791       0.60000002384185791       0.80000001192092896     
   1.1355901624017075       0.46950972990491496        1.3263887760974273       0.60000002384185791       0.60000002384185791       0.60000002384185791       0.80000001192092896     
   5.6913808344538856E-003  -1.2992167593033176E-017   1.0535609148389919        1.0000000000000000        1.0000000000000000        0.0000000000000000        1.0000000000000000     
  
   3   0   8  11
   3   0  11   8
   4   0  11  12   1
   3   1  12   9
   4   1  12  11   0
   3   1   9  12
   3   2  14   6
   3   2  14   9
   3   2   6  14
   3   2   9  14
   3   3   6  10
   3   3  10   6
   4   3  10  13   4
   3   4  13   7
   4   4  13  10   3
   3   4   7  13
   3   5   7  14
   3   5  14   7
   3   5  14   8
   3   5   8  14
   3   6   2  14
   3   6  14  10
   3   6  14   2
   3   6  10   3
   3   6  10  14
   3   6   3  10
   3   7   4  13
   3   7  13   4
   3   7  13  14
   3   7  14   5
   3   7  14  13
   3   7   5  14
   3   8   5  14
   3   8  14   5
   3   8  14  11
   3   8  11   0
   3   8  11  14
   3   8   0  11
   3   9   1  12
   3   9  12   1
   3   9  12  14
   3   9  14   2
   3   9  14  12
   3   9   2  14
   3  10   3   6
   4  10   3   4  13
   3  10   6  14
   3  10   6   3
   3  10  14  13
   3  10  14   6
   3  10  13  14
   4  10  13   4   3
   3  11   0   8
   4  11   0   1  12
   3  11   8  14
   3  11   8   0
   3  11  14  12
   3  11  14   8
   3  11  12  14
   4  11  12   1   0
   3  12   1   9
   4  12   1   0  11
   3  12  11  14
   4  12  11   0   1
   3  12  14   9
   3  12  14  11
   3  12   9   1
   3  12   9  14
   3  13   4   7
   4  13   4   3  10
   3  13  10  14
   4  13  10   3   4
   3  13  14   7
   3  13  14  10
   3  13   7   4
   3  13   7  14
   3  14   5   7
   3  14   5   8
   3  14   7  13
   3  14   7   5
   3  14  13  10
   3  14  13   7
   3  14  10   6
   3  14  10  13
   3  14   6   2
   3  14   6  10
   3  14   2   6
   3  14   2   9
   3  14   9  12
   3  14   9   2
   3  14  12  11
   3  14  12   9
   3  14  11   8
   3  14  11  12
   3  14   8   5
   3  14   8  11
