# Generated by dad_to_polygons. Vertex data from Humppa's .off file,
# polygons parsed from .dad file.
COFF
53 164 53
-5.256773 0.738793 3.986311 0.500000 0.500000 0.500000 1.0
-5.256773 -0.738793 3.986311 0.500000 0.500000 0.500000 1.0
-0.026933 -1.725089 3.650035 0.500000 0.500000 0.500000 1.0
5.589323 -0.717450 4.025718 0.500000 0.500000 0.500000 1.0
5.589323 0.717450 4.025718 0.500000 0.500000 0.500000 1.0
-0.026933 1.725089 3.650035 0.500000 0.500000 0.500000 1.0
1.021329 -1.398433 3.803629 0.500000 0.500000 0.500000 1.0
1.021329 1.398433 3.803629 0.500000 0.500000 0.500000 1.0
-1.072486 1.390123 3.764464 0.500000 0.500000 0.500000 1.0
-1.072486 -1.390123 3.764464 0.500000 0.500000 0.500000 1.0
1.939599 -1.066684 4.041302 0.500000 0.500000 0.500000 1.0
1.939599 1.066684 4.041302 0.500000 0.500000 0.500000 1.0
-2.000522 1.093569 3.994914 0.500000 0.500000 0.500000 1.0
-2.000522 -1.093569 3.994914 0.500000 0.500000 0.500000 1.0
3.083654 -0.917973 4.085875 0.500000 0.500000 0.500000 1.0
3.083654 0.917973 4.085875 0.500000 0.500000 0.500000 1.0
-3.017759 0.942742 4.009634 0.500000 0.500000 0.500000 1.0
-3.017759 -0.942742 4.009634 0.500000 0.500000 0.500000 1.0
4.093038 -0.817613 4.052440 0.500000 0.500000 0.500000 1.0
4.093038 0.817613 4.052440 0.500000 0.500000 0.500000 1.0
-4.012649 0.841277 4.000965 0.500000 0.500000 0.500000 1.0
-4.012649 -0.841277 4.000965 0.500000 0.500000 0.500000 1.0
-3.668744 -0.779379 3.305877 0.500000 0.500000 0.500000 1.0
-0.004125 -0.000000 1.053561 1.0 1.0 0.0 1.0
2.264863 -0.940186 3.085890 0.500000 0.500000 0.500000 1.0
1.409322 1.100160 2.342831 0.500000 0.500000 0.500000 1.0
1.409322 -1.100160 2.342831 0.500000 0.500000 0.500000 1.0
-1.039648 1.322969 2.909717 0.500000 0.500000 0.500000 1.0
-1.039648 -1.322969 2.909717 0.500000 0.500000 0.500000 1.0
-1.837174 0.838191 2.062640 0.500000 0.500000 0.500000 1.0
-1.837174 -0.838191 2.062640 0.500000 0.500000 0.500000 1.0
1.040241 -1.297198 2.779109 0.500000 0.500000 0.500000 1.0
1.040241 1.297198 2.779109 0.500000 0.500000 0.500000 1.0
-2.256781 0.963453 3.030680 0.500000 0.500000 0.500000 1.0
-2.256781 -0.963453 3.030680 0.500000 0.500000 0.500000 1.0
-0.011749 -1.416099 2.634697 0.500000 0.500000 0.500000 1.0
-0.011749 1.416099 2.634697 0.500000 0.500000 0.500000 1.0
2.264863 0.940186 3.085890 0.500000 0.500000 0.500000 1.0
3.794721 -0.755586 3.351586 0.500000 0.500000 0.500000 1.0
-0.530297 -1.096554 2.134591 0.500000 0.500000 0.500000 1.0
-0.530297 1.096554 2.134591 0.500000 0.500000 0.500000 1.0
-1.314102 -0.439648 1.395116 0.500000 0.500000 0.500000 1.0
-1.314102 0.439648 1.395116 0.500000 0.500000 0.500000 1.0
0.666723 0.961231 1.875523 0.500000 0.500000 0.500000 1.0
0.666723 -0.961231 1.875523 0.500000 0.500000 0.500000 1.0
3.794721 0.755586 3.351586 0.500000 0.500000 0.500000 1.0
-3.668744 0.779379 3.305877 0.500000 0.500000 0.500000 1.0
1.592661 -0.000000 2.259389 0.500000 0.500000 0.500000 1.0
0.910946 0.661854 1.679971 0.500000 0.500000 0.500000 1.0
0.910946 -0.661854 1.679971 0.500000 0.500000 0.500000 1.0
-0.041513 0.875585 1.843286 0.500000 0.500000 0.500000 1.0
-0.041513 -0.875585 1.843286 0.500000 0.500000 0.500000 1.0
0.795062 -0.000000 1.656210 0.500000 0.500000 0.500000 1.0
3 0 1 22
3 0 22 1
3 0 22 46
3 0 46 22
3 0 46 20
3 0 20 46
3 1 22 21
3 1 21 22
3 3 4 45
3 3 45 4
3 3 45 38
3 3 38 45
3 5 7 32
3 5 32 7
3 5 27 8
3 5 8 27
3 5 32 36
3 5 36 32
3 5 36 27
3 5 27 36
3 6 24 31
3 6 31 24
3 8 27 33
3 8 33 27
3 8 33 12
3 8 12 33
3 9 2 28
3 9 28 2
3 10 24 14
3 10 14 24
3 11 37 7
3 11 7 37
3 12 33 16
3 12 16 33
3 13 9 34
3 13 34 9
3 13 17 34
3 13 34 17
3 15 11 37
3 15 37 11
3 15 19 45
3 15 45 19
3 15 45 37
3 15 37 45
3 16 46 20
3 16 20 46
3 17 34 22
3 17 22 34
3 18 3 38
3 18 38 3
3 18 14 38
3 18 38 14
3 22 21 17
3 22 17 21
3 22 33 34
3 22 34 33
3 22 46 33
3 22 33 46
3 23 29 40
3 23 40 29
3 23 42 29
3 23 29 42
3 23 43 50
3 23 50 43
3 23 44 49
3 23 49 44
3 23 44 51
3 23 51 44
3 23 49 52
3 23 52 49
3 23 52 48
3 23 48 52
3 24 6 10
3 24 10 6
3 24 14 38
3 24 38 14
3 24 26 47
3 24 47 26
3 24 31 26
3 24 26 31
3 24 37 45
3 24 45 37
3 24 45 38
3 24 38 45
3 24 47 37
3 24 37 47
3 25 37 32
3 25 32 37
3 25 43 32
3 25 32 43
3 25 43 48
3 25 48 43
3 25 47 48
3 25 48 47
3 27 36 40
3 27 40 36
3 28 2 35
3 28 35 2
3 28 34 9
3 28 9 34
3 28 35 39
3 28 39 35
3 30 29 33
3 30 33 29
3 30 33 34
3 30 34 33
3 30 34 39
3 30 39 34
3 30 41 42
3 30 42 41
3 30 42 29
3 30 29 42
3 31 2 6
3 31 6 2
3 31 2 35
3 31 35 2
3 31 26 44
3 31 44 26
3 31 35 44
3 31 44 35
3 32 37 7
3 32 7 37
3 32 43 36
3 32 36 43
3 33 27 40
3 33 40 27
3 33 40 29
3 33 29 40
3 34 39 28
3 34 28 39
3 35 44 51
3 35 51 44
3 35 51 39
3 35 39 51
3 36 40 50
3 36 50 40
3 39 23 51
3 39 51 23
3 39 30 41
3 39 41 30
3 39 41 23
3 39 23 41
3 41 23 42
3 41 42 23
3 44 49 26
3 44 26 49
3 45 19 4
3 45 4 19
3 46 16 33
3 46 33 16
3 47 25 37
3 47 37 25
3 47 52 48
3 47 48 52
3 47 52 49
3 47 49 52
3 48 23 43
3 48 43 23
3 49 26 47
3 49 47 26
3 50 36 43
3 50 43 36
3 50 40 23
3 50 23 40
