 COFF
          63         576          63
  
  -5.7683490161732678       0.77012550466657426        4.7707892111680916       0.60000002384185791       0.60000002384185791       0.60000002384185791       0.80000001192092896     
  -5.7683490161732625      -0.77012550466657448        4.7707892111680916       0.60000002384185791       0.60000002384185791       0.60000002384185791       0.80000001192092896     
  -2.7281174083084298E-002  -1.8416360085477377        4.3470932799639108       0.60000002384185791       0.60000002384185791       0.60000002384185791       0.80000001192092896     
   6.3925149360660178      -0.75925547045715103        4.7973280119778590       0.60000002384185791       0.60000002384185791       0.60000002384185791       0.80000001192092896     
   6.3925149360660258       0.75925547045715047        4.7973280119778590       0.60000002384185791       0.60000002384185791       0.60000002384185791       0.80000001192092896     
  -2.7281174083084128E-002   1.8416360085477379        4.3470932799639108       0.60000002384185791       0.60000002384185791       0.60000002384185791       0.80000001192092896     
   1.0524987628553306       -1.4882026400230444        4.5272631368733069       0.60000002384185791       0.60000002384185791       0.60000002384185791       0.80000001192092896     
   1.0524987628553304        1.4882026400230437        4.5272631368733069       0.60000002384185791       0.60000002384185791       0.60000002384185791       0.80000001192092896     
  -1.1035758098650890        1.4847499012269152        4.4827016516558365       0.60000002384185791       0.60000002384185791       0.60000002384185791       0.80000001192092896     
  -1.1035758098650892       -1.4847499012269152        4.4827016516558365       0.60000002384185791       0.60000002384185791       0.60000002384185791       0.80000001192092896     
   1.9567531910358218       -1.1346959357509154        4.7986165298042991       0.60000002384185791       0.60000002384185791       0.60000002384185791       0.80000001192092896     
   1.9567531910358216        1.1346959357509150        4.7986165298042991       0.60000002384185791       0.60000002384185791       0.60000002384185791       0.80000001192092896     
  -2.0189639108935005        1.1702774810274774        4.7416684425348743       0.60000002384185791       0.60000002384185791       0.60000002384185791       0.80000001192092896     
  -2.0189639108935009       -1.1702774810274774        4.7416684425348743       0.60000002384185791       0.60000002384185791       0.60000002384185791       0.80000001192092896     
   3.0642458030523119      -0.98367366607071238        4.8603461114985524       0.60000002384185791       0.60000002384185791       0.60000002384185791       0.80000001192092896     
   3.0642458030523110       0.98367366607071194        4.8603461114985498       0.60000002384185791       0.60000002384185791       0.60000002384185791       0.80000001192092896     
  -3.0261461448351312        1.0132141684453897        4.7669467757132589       0.60000002384185791       0.60000002384185791       0.60000002384185791       0.80000001192092896     
  -3.0261461448351294       -1.0132141684453904        4.7669467757132615       0.60000002384185791       0.60000002384185791       0.60000002384185791       0.80000001192092896     
   4.0565670948973969      -0.86639533874864283        4.8791125328368707       0.60000002384185791       0.60000002384185791       0.60000002384185791       0.80000001192092896     
   4.0565670948973951       0.86639533874864227        4.8791125328368707       0.60000002384185791       0.60000002384185791       0.60000002384185791       0.80000001192092896     
  -4.0184912681659188       0.88983036035111074        4.7819594427231271       0.60000002384185791       0.60000002384185791       0.60000002384185791       0.80000001192092896     
  -4.0184912681659162      -0.88983036035111140        4.7819594427231271       0.60000002384185791       0.60000002384185791       0.60000002384185791       0.80000001192092896     
   5.0612037052841110      -0.82133876560652064        4.8302279275349127       0.60000002384185791       0.60000002384185791       0.60000002384185791       0.80000001192092896     
   5.0612037052841110       0.82133876560651975        4.8302279275349127       0.60000002384185791       0.60000002384185791       0.60000002384185791       0.80000001192092896     
   2.3553895892352377       -1.0029953718595934        3.7794138396061170       0.60000002384185791       0.60000002384185791       0.60000002384185791       0.80000001192092896     
   1.5871230975422588        1.2243231281758935        2.9798904932127139       0.60000002384185791       0.60000002384185791       0.60000002384185791       0.80000001192092896     
   1.5871230975422586       -1.2243231281758942        2.9798904932127144       0.60000002384185791       0.60000002384185791       0.60000002384185791       0.80000001192092896     
  -1.1419767089040842        1.4376857619478838        3.6193869026406835       0.60000002384185791       0.60000002384185791       0.60000002384185791       0.80000001192092896     
  -1.1419767089040844       -1.4376857619478838        3.6193869026406835       0.60000002384185791       0.60000002384185791       0.60000002384185791       0.80000001192092896     
  -1.8986684624349606       0.78130159722645620        2.6218655109344460       0.60000002384185791       0.60000002384185791       0.60000002384185791       0.80000001192092896     
  -1.8986684624349606      -0.78130159722645653        2.6218655109344451       0.60000002384185791       0.60000002384185791       0.60000002384185791       0.80000001192092896     
   1.1446788438934747       -1.4137317837413255        3.4847620179886372       0.60000002384185791       0.60000002384185791       0.60000002384185791       0.80000001192092896     
   1.1446788438934745        1.4137317837413252        3.4847620179886376       0.60000002384185791       0.60000002384185791       0.60000002384185791       0.80000001192092896     
  -2.3557144828868011        1.0648436914793276        3.7249085131829425       0.60000002384185791       0.60000002384185791       0.60000002384185791       0.80000001192092896     
  -2.3557144828868020       -1.0648436914793276        3.7249085131829434       0.60000002384185791       0.60000002384185791       0.60000002384185791       0.80000001192092896     
   3.3931251141607458E-003  -1.5674697814607450        3.2263283085556012       0.60000002384185791       0.60000002384185791       0.60000002384185791       0.80000001192092896     
   3.3931251141608287E-003   1.5674697814607452        3.2263283085556007       0.60000002384185791       0.60000002384185791       0.60000002384185791       0.80000001192092896     
   2.3553895892352377        1.0029953718595928        3.7794138396061139       0.60000002384185791       0.60000002384185791       0.60000002384185791       0.80000001192092896     
   4.0036047166335020      -0.81669370701435862        4.1485656279400107       0.60000002384185791       0.60000002384185791       0.60000002384185791       0.80000001192092896     
 -0.69434885612787611       -1.3599365711633755        2.7225052544669137       0.60000002384185791       0.60000002384185791       0.60000002384185791       0.80000001192092896     
 -0.69434885612787589        1.3599365711633746        2.7225052544669142       0.60000002384185791       0.60000002384185791       0.60000002384185791       0.80000001192092896     
  -1.5180296403074143      -0.65982378779568329        1.6231258124853671       0.60000002384185791       0.60000002384185791       0.60000002384185791       0.80000001192092896     
  -1.5180296403074143       0.65982378779568307        1.6231258124853678       0.60000002384185791       0.60000002384185791       0.60000002384185791       0.80000001192092896     
  0.89966165097870132        1.3042239221049621        2.4230196210827080       0.60000002384185791       0.60000002384185791       0.60000002384185791       0.80000001192092896     
  0.89966165097870110       -1.3042239221049623        2.4230196210827084       0.60000002384185791       0.60000002384185791       0.60000002384185791       0.80000001192092896     
   4.0036047166335011       0.81669370701435817        4.1485656279400107       0.60000002384185791       0.60000002384185791       0.60000002384185791       0.80000001192092896     
  -3.9282117389510431       0.84580016403902691        4.1197269256148275       0.60000002384185791       0.60000002384185791       0.60000002384185791       0.80000001192092896     
   1.8884225010254079        2.7529510999916356E-016   2.8472526322190475       0.60000002384185791       0.60000002384185791       0.60000002384185791       0.80000001192092896     
   1.2694936937084953       0.90334586544735884        2.1477230468843733       0.60000002384185791       0.60000002384185791       0.60000002384185791       0.80000001192092896     
   1.2694936937084951      -0.90334586544735895        2.1477230468843733       0.60000002384185791       0.60000002384185791       0.60000002384185791       0.80000001192092896     
   2.8911231849034311E-002   1.3398448758065138        2.3095602116563430       0.60000002384185791       0.60000002384185791       0.60000002384185791       0.80000001192092896     
   2.8911231849034057E-002  -1.3398448758065138        2.3095602116563430       0.60000002384185791       0.60000002384185791       0.60000002384185791       0.80000001192092896     
   1.4202758079824009        9.9050829391560971E-018   2.0098708861117758       0.60000002384185791       0.60000002384185791       0.60000002384185791       0.80000001192092896     
   5.1201467729909815      -0.75027436683032656        4.0352256057235740        1.0000000000000000        1.0000000000000000        0.0000000000000000        1.0000000000000000     
   5.1201467729909815       0.75027436683032589        4.0352256057235740        1.0000000000000000        1.0000000000000000        0.0000000000000000        1.0000000000000000     
  -2.6369181732423521       -2.6822431152079915E-016   3.4342850499441244       0.60000002384185791       0.60000002384185791       0.60000002384185791       0.80000001192092896     
 -0.33091531573511257      -0.93270513662144838        1.9354977693685105       0.60000002384185791       0.60000002384185791       0.60000002384185791       0.80000001192092896     
 -0.33091531573511268       0.93270513662144861        1.9354977693685111       0.60000002384185791       0.60000002384185791       0.60000002384185791       0.80000001192092896     
  -3.9282117389510427      -0.84580016403902747        4.1197269256148283       0.60000002384185791       0.60000002384185791       0.60000002384185791       0.80000001192092896     
   3.7764562234645950E-002  -5.5510511744632207E-017   1.0535609148389919        1.0000000000000000        1.0000000000000000        0.0000000000000000        1.0000000000000000     
  0.53483744179836645       0.73719073547903979        1.7161490746416903       0.60000002384185791       0.60000002384185791       0.60000002384185791       0.80000001192092896     
  0.53483744179836623      -0.73719073547903990        1.7161490746416903       0.60000002384185791       0.60000002384185791       0.60000002384185791       0.80000001192092896     
   2.3783909301152719       -2.2115227946414191E-016   3.7621821740780934       0.60000002384185791       0.60000002384185791       0.60000002384185791       0.80000001192092896     
  
   3   0  20  46
   3   0  46  20
   4   0  46  58   1
   3   1  58  21
   4   1  58  46   0
   3   1  21  58
   3   2  35  28
   3   2  35  31
   3   2  31  35
   3   2  31   6
   3   2   6  31
   3   2   9  28
   3   2  28  35
   3   2  28   9
   3   3  22  53
   3   3  53  22
   4   3  53  54   4
   3   4  54  23
   4   4  54  53   3
   3   4  23  54
   3   5   7  32
   3   5  32  36
   3   5  32   7
   3   5  36  32
   3   5  36  27
   3   5  27  36
   3   5  27   8
   3   5   8  27
   3   6   2  31
   3   6  31   2
   3   6  31  24
   3   6  24  10
   3   6  24  31
   3   6  10  24
   3   7  11  37
   3   7  37  32
   3   7  37  11
   3   7  32  37
   3   7  32   5
   3   7   5  32
   3   8   5  27
   3   8  27   5
   3   8  27  33
   3   8  33  12
   3   8  33  27
   3   8  12  33
   3   9  13  34
   3   9  34  28
   3   9  34  13
   3   9  28  34
   3   9  28   2
   3   9   2  28
   3  10   6  24
   3  10  24  14
   3  10  24   6
   3  10  14  24
   3  11  15  37
   3  11  37   7
   3  11  37  15
   3  11   7  37
   3  12   8  33
   3  12  33  16
   3  12  33   8
   3  12  16  33
   3  13  17  34
   3  13  34   9
   3  13  34  17
   3  13   9  34
   3  14  10  24
   3  14  24  38
   3  14  24  10
   3  14  38  18
   3  14  38  24
   3  14  18  38
   3  15  19  45
   3  15  45  37
   3  15  45  19
   3  15  37  45
   3  15  37  11
   3  15  11  37
   3  16  12  33
   3  16  33  46
   3  16  33  12
   3  16  46  20
   3  16  46  33
   3  16  20  46
   3  17  21  58
   3  17  58  34
   3  17  58  21
   3  17  34  58
   3  17  34  13
   3  17  13  34
   3  18  14  38
   3  18  38  22
   3  18  38  14
   3  18  22  38
   3  19  23  45
   3  19  45  15
   3  19  45  23
   3  19  15  45
   3  20  16  46
   3  20  46   0
   3  20  46  16
   3  20   0  46
   3  21   1  58
   3  21  58   1
   3  21  58  17
   3  21  17  58
   3  22  18  38
   3  22  38  53
   3  22  38  18
   3  22  53   3
   3  22  53  38
   3  22   3  53
   3  23   4  54
   3  23  54   4
   3  23  54  45
   3  23  45  54
   3  23  45  19
   3  23  19  45
   3  24  38  14
   3  24  38  62
   3  24  14  10
   3  24  14  38
   3  24  10   6
   3  24  10  14
   3  24   6  31
   3  24   6  10
   3  24  31  26
   3  24  31   6
   3  24  26  47
   3  24  26  31
   3  24  47  62
   3  24  47  26
   3  24  62  47
   3  24  62  38
   3  25  37  47
   3  25  37  32
   3  25  47  37
   3  25  47  48
   3  25  48  43
   3  25  48  47
   3  25  43  32
   3  25  43  48
   3  25  32  37
   3  25  32  43
   3  26  49  47
   3  26  49  44
   3  26  47  24
   3  26  47  49
   3  26  24  31
   3  26  24  47
   3  26  31  44
   3  26  31  24
   3  26  44  31
   3  26  44  49
   3  27   5  36
   3  27   5   8
   3  27  36  40
   3  27  36   5
   3  27  40  33
   3  27  40  36
   3  27  33   8
   3  27  33  40
   3  27   8   5
   3  27   8  33
   3  28  34  39
   3  28  34   9
   3  28  39  35
   3  28  39  34
   3  28  35  39
   3  28  35   2
   3  28   2  35
   3  28   2   9
   3  28   9  34
   3  28   9   2
   3  29  33  40
   3  29  33  55
   3  29  40  33
   3  29  40  57
   3  29  57  42
   3  29  57  40
   3  29  42  57
   4  29  42  41  30
   3  29  30  55
   4  29  30  41  42
   3  29  55  30
   3  29  55  33
   3  30  34  55
   3  30  34  39
   3  30  55  29
   3  30  55  34
   3  30  29  55
   4  30  29  42  41
   3  30  41  56
   4  30  41  42  29
   3  30  56  39
   3  30  56  41
   3  30  39  34
   3  30  39  56
   3  31   2  35
   3  31   2   6
   3  31  35  44
   3  31  35   2
   3  31  44  26
   3  31  44  35
   3  31  26  24
   3  31  26  44
   3  31  24   6
   3  31  24  26
   3  31   6   2
   3  31   6  24
   3  32  37  25
   3  32  37   7
   3  32  25  37
   3  32  25  43
   3  32  43  36
   3  32  43  25
   3  32  36  43
   3  32  36   5
   3  32   5   7
   3  32   5  36
   3  32   7  37
   3  32   7   5
   3  33  46  16
   3  33  46  55
   3  33  16  12
   3  33  16  46
   3  33  12   8
   3  33  12  16
   3  33   8  27
   3  33   8  12
   3  33  27  40
   3  33  27   8
   3  33  40  29
   3  33  40  27
   3  33  29  40
   3  33  29  55
   3  33  55  29
   3  33  55  46
   3  34  58  55
   3  34  58  17
   3  34  55  30
   3  34  55  58
   3  34  30  55
   3  34  30  39
   3  34  39  28
   3  34  39  30
   3  34  28  39
   3  34  28   9
   3  34   9  13
   3  34   9  28
   3  34  13  17
   3  34  13   9
   3  34  17  58
   3  34  17  13
   3  35  28  39
   3  35  28   2
   3  35  39  28
   3  35  39  51
   3  35  51  44
   3  35  51  39
   3  35  44  31
   3  35  44  51
   3  35  31   2
   3  35  31  44
   3  35   2  31
   3  35   2  28
   3  36  32  43
   3  36  32   5
   3  36  43  32
   3  36  43  50
   3  36  50  40
   3  36  50  43
   3  36  40  27
   3  36  40  50
   3  36  27   5
   3  36  27  40
   3  36   5  32
   3  36   5  27
   3  37  45  62
   3  37  45  15
   3  37  62  47
   3  37  62  45
   3  37  47  62
   3  37  47  25
   3  37  25  47
   3  37  25  32
   3  37  32  25
   3  37  32   7
   3  37   7  11
   3  37   7  32
   3  37  11  15
   3  37  11   7
   3  37  15  45
   3  37  15  11
   3  38  53  22
   4  38  53  54  45
   3  38  22  18
   3  38  22  53
   3  38  18  14
   3  38  18  22
   3  38  14  24
   3  38  14  18
   3  38  24  14
   3  38  24  62
   3  38  62  45
   3  38  62  24
   3  38  45  62
   4  38  45  54  53
   3  39  35  28
   3  39  35  51
   3  39  28  34
   3  39  28  35
   3  39  34  30
   3  39  34  28
   3  39  30  34
   3  39  30  56
   3  39  56  51
   3  39  56  30
   3  39  51  35
   3  39  51  56
   3  40  29  33
   3  40  29  57
   3  40  33  27
   3  40  33  29
   3  40  27  36
   3  40  27  33
   3  40  36  50
   3  40  36  27
   3  40  50  36
   3  40  50  57
   3  40  57  29
   3  40  57  50
   3  41  59  56
   3  41  59  42
   3  41  56  30
   3  41  56  59
   3  41  30  56
   4  41  30  29  42
   3  41  42  59
   4  41  42  29  30
   3  42  59  41
   3  42  59  57
   3  42  41  59
   4  42  41  30  29
   3  42  29  57
   4  42  29  30  41
   3  42  57  29
   3  42  57  59
   3  43  36  32
   3  43  36  50
   3  43  32  25
   3  43  32  36
   3  43  25  48
   3  43  25  32
   3  43  48  25
   3  43  48  60
   3  43  60  48
   3  43  60  50
   3  43  50  36
   3  43  50  60
   3  44  26  49
   3  44  26  31
   3  44  31  35
   3  44  31  26
   3  44  35  51
   3  44  35  31
   3  44  51  35
   3  44  51  61
   3  44  61  51
   3  44  61  49
   3  44  49  26
   3  44  49  61
   3  45  54  23
   4  45  54  53  38
   3  45  38  62
   4  45  38  53  54
   3  45  62  37
   3  45  62  38
   3  45  37  62
   3  45  37  15
   3  45  15  19
   3  45  15  37
   3  45  19  23
   3  45  19  15
   3  45  23  54
   3  45  23  19
   3  46   0  20
   4  46   0   1  58
   3  46  20  16
   3  46  20   0
   3  46  16  33
   3  46  16  20
   3  46  33  16
   3  46  33  55
   3  46  55  58
   3  46  55  33
   3  46  58  55
   4  46  58   1   0
   3  47  37  62
   3  47  37  25
   3  47  62  37
   3  47  62  24
   3  47  24  26
   3  47  24  62
   3  47  26  49
   3  47  26  24
   3  47  49  26
   3  47  49  52
   3  47  52  48
   3  47  52  49
   3  47  48  25
   3  47  48  52
   3  47  25  37
   3  47  25  48
   3  48  43  25
   3  48  43  60
   3  48  25  47
   3  48  25  43
   3  48  47  52
   3  48  47  25
   3  48  52  47
   3  48  52  59
   3  48  59  60
   3  48  59  52
   3  48  60  59
   3  48  60  43
   3  49  47  26
   3  49  47  52
   3  49  26  47
   3  49  26  44
   3  49  44  26
   3  49  44  61
   3  49  61  59
   3  49  61  44
   3  49  59  52
   3  49  59  61
   3  49  52  47
   3  49  52  59
   3  50  40  36
   3  50  40  57
   3  50  36  43
   3  50  36  40
   3  50  43  36
   3  50  43  60
   3  50  60  59
   3  50  60  43
   3  50  59  60
   3  50  59  57
   3  50  57  40
   3  50  57  59
   3  51  44  35
   3  51  44  61
   3  51  35  39
   3  51  35  44
   3  51  39  35
   3  51  39  56
   3  51  56  39
   3  51  56  59
   3  51  59  61
   3  51  59  56
   3  51  61  59
   3  51  61  44
   3  52  48  47
   3  52  48  59
   3  52  47  49
   3  52  47  48
   3  52  49  47
   3  52  49  59
   3  52  59  48
   3  52  59  49
   3  53   3  22
   4  53   3   4  54
   3  53  22  38
   3  53  22   3
   3  53  38  22
   4  53  38  45  54
   3  54   4  23
   4  54   4   3  53
   3  54  45  23
   4  54  45  38  53
   3  54  23   4
   3  54  23  45
   3  55  29  33
   3  55  29  30
   3  55  30  34
   3  55  30  29
   3  55  34  58
   3  55  34  30
   3  55  58  46
   3  55  58  34
   3  55  46  33
   3  55  46  58
   3  55  33  46
   3  55  33  29
   3  56  51  39
   3  56  51  59
   3  56  39  30
   3  56  39  51
   3  56  30  41
   3  56  30  39
   3  56  41  59
   3  56  41  30
   3  56  59  51
   3  56  59  41
   3  57  42  59
   3  57  42  29
   3  57  29  40
   3  57  29  42
   3  57  40  29
   3  57  40  50
   3  57  50  40
   3  57  50  59
   3  57  59  50
   3  57  59  42
   3  58   1  21
   4  58   1   0  46
   3  58  46  55
   4  58  46   0   1
   3  58  55  34
   3  58  55  46
   3  58  34  55
   3  58  34  17
   3  58  17  21
   3  58  17  34
   3  58  21   1
   3  58  21  17
   3  59  50  60
   3  59  50  57
   3  59  60  48
   3  59  60  50
   3  59  48  52
   3  59  48  60
   3  59  52  48
   3  59  52  49
   3  59  49  61
   3  59  49  52
   3  59  61  51
   3  59  61  49
   3  59  51  56
   3  59  51  61
   3  59  56  51
   3  59  56  41
   3  59  41  56
   3  59  41  42
   3  59  42  41
   3  59  42  57
   3  59  57  42
   3  59  57  50
   3  60  48  43
   3  60  48  59
   3  60  59  50
   3  60  59  48
   3  60  50  43
   3  60  50  59
   3  60  43  48
   3  60  43  50
   3  61  51  44
   3  61  51  59
   3  61  59  49
   3  61  59  51
   3  61  49  44
   3  61  49  59
   3  61  44  51
   3  61  44  49
   3  62  47  37
   3  62  47  24
   3  62  37  45
   3  62  37  47
   3  62  45  38
   3  62  45  37
   3  62  38  24
   3  62  38  45
   3  62  24  38
   3  62  24  47
