 COFF
          75         680          75
  
  -6.0554801461874321       0.78788825770782256        5.1592558390647874       0.60000002384185791       0.60000002384185791       0.60000002384185791       0.80000001192092896     
  -6.0554801461874268      -0.78788825770782300        5.1592558390647874       0.60000002384185791       0.60000002384185791       0.60000002384185791       0.80000001192092896     
  -2.7374450011420803E-002  -1.8923884812572227        4.7010494702511716       0.60000002384185791       0.60000002384185791       0.60000002384185791       0.80000001192092896     
   7.1837520936920427      -0.82299303098641574        5.1195837872722167       0.60000002384185791       0.60000002384185791       0.60000002384185791       0.80000001192092896     
   7.1837520936920543       0.82299303098641452        5.1195837872722167       0.60000002384185791       0.60000002384185791       0.60000002384185791       0.80000001192092896     
  -2.7374450011420623E-002   1.8923884812572211        4.7010494702511716       0.60000002384185791       0.60000002384185791       0.60000002384185791       0.80000001192092896     
   1.0672400839170149       -1.5288982128728459        4.8916078356716364       0.60000002384185791       0.60000002384185791       0.60000002384185791       0.80000001192092896     
   1.0672400839170146        1.5288982128728452        4.8916078356716364       0.60000002384185791       0.60000002384185791       0.60000002384185791       0.80000001192092896     
  -1.1174737020435319        1.5255566040826729        4.8467356838812989       0.60000002384185791       0.60000002384185791       0.60000002384185791       0.80000001192092896     
  -1.1174737020435321       -1.5255566040826729        4.8467356838812989       0.60000002384185791       0.60000002384185791       0.60000002384185791       0.80000001192092896     
   1.9656200868412539       -1.1686145560158454        5.1760248070267920       0.60000002384185791       0.60000002384185791       0.60000002384185791       0.80000001192092896     
   1.9656200868412537        1.1686145560158450        5.1760248070267920       0.60000002384185791       0.60000002384185791       0.60000002384185791       0.80000001192092896     
  -2.0255399248635331        1.2046673359663567        5.1178974018110237       0.60000002384185791       0.60000002384185791       0.60000002384185791       0.80000001192092896     
  -2.0255399248635313       -1.2046673359663567        5.1178974018110237       0.60000002384185791       0.60000002384185791       0.60000002384185791       0.80000001192092896     
   3.0626934601460918       -1.0261158558524566        5.2324636704448153       0.60000002384185791       0.60000002384185791       0.60000002384185791       0.80000001192092896     
   3.0626934601460909        1.0261158558524557        5.2324636704448144       0.60000002384185791       0.60000002384185791       0.60000002384185791       0.80000001192092896     
  -3.0120084168566001        1.0481795031676788        5.1463565256628296       0.60000002384185791       0.60000002384185791       0.60000002384185791       0.80000001192092896     
  -3.0120084168565979       -1.0481795031676797        5.1463565256628314       0.60000002384185791       0.60000002384185791       0.60000002384185791       0.80000001192092896     
   4.0555700845932074      -0.91321008493162970        5.2496540109579284       0.60000002384185791       0.60000002384185791       0.60000002384185791       0.80000001192092896     
   4.0555700845932057       0.91321008493162914        5.2496540109579284       0.60000002384185791       0.60000002384185791       0.60000002384185791       0.80000001192092896     
  -4.0009749549659874       0.91399570741123670        5.1909570709505246       0.60000002384185791       0.60000002384185791       0.60000002384185791       0.80000001192092896     
  -4.0009749549659839      -0.91399570741123726        5.1909570709505246       0.60000002384185791       0.60000002384185791       0.60000002384185791       0.80000001192092896     
   5.0503853220920991      -0.92536532607404742        5.1535549416693405       0.60000002384185791       0.60000002384185791       0.60000002384185791       0.80000001192092896     
   5.0503853220920991       0.92536532607404665        5.1535549416693405       0.60000002384185791       0.60000002384185791       0.60000002384185791       0.80000001192092896     
   6.0587389942906800      -0.88440622028943061        5.1282451901732395       0.60000002384185791       0.60000002384185791       0.60000002384185791       0.80000001192092896     
   6.0587389942906800       0.88440622028942872        5.1282451901732395       0.60000002384185791       0.60000002384185791       0.60000002384185791       0.80000001192092896     
  -5.0004260936734894       0.85223136895576335        5.1734728903263987       0.60000002384185791       0.60000002384185791       0.60000002384185791       0.80000001192092896     
  -5.0004260936734886      -0.85223136895576423        5.1734728903263987       0.60000002384185791       0.60000002384185791       0.60000002384185791       0.80000001192092896     
  -1.1779189927235370       -1.4815239593872795        3.9632337354597369       0.60000002384185791       0.60000002384185791       0.60000002384185791       0.80000001192092896     
  -1.9787949253722745       0.80695960258797861        2.9244910636817960       0.60000002384185791       0.60000002384185791       0.60000002384185791       0.80000001192092896     
  -1.9787949253713668      -0.80695960258853761        2.9244910636818973       0.60000002384185791       0.60000002384185791       0.60000002384185791       0.80000001192092896     
   1.1786930205117967       -1.4602652008777866        3.8257481674894249       0.60000002384185791       0.60000002384185791       0.60000002384185791       0.80000001192092896     
   1.1786930205117432        1.4602652008774737        3.8257481674894271       0.60000002384185791       0.60000002384185791       0.60000002384185791       0.80000001192092896     
  -2.3897443435863930        1.1079102076187872        4.0753104014173749       0.60000002384185791       0.60000002384185791       0.60000002384185791       0.80000001192092896     
  -2.3897443435863925       -1.1079102076187999        4.0753104014173767       0.60000002384185791       0.60000002384185791       0.60000002384185791       0.80000001192092896     
   5.8379084615020008E-003  -1.6145109013662005        3.5344671001326415       0.60000002384185791       0.60000002384185791       0.60000002384185791       0.80000001192092896     
   5.8379084704233706E-003   1.6145109012984311        3.5344671001326398       0.60000002384185791       0.60000002384185791       0.60000002384185791       0.80000001192092896     
   2.3913743219157646        1.0601297789156969        4.1281916484026402       0.60000002384185791       0.60000002384185791       0.60000002384185791       0.80000001192092896     
   4.0739252244471720      -0.91274491506941391        4.5328521982066974       0.60000002384185791       0.60000002384185791       0.60000002384185791       0.80000001192092896     
 -0.79596153106301204       -1.4256317930732694        3.0492132486640280       0.60000002384185791       0.60000002384185791       0.60000002384185791       0.80000001192092896     
 -0.79596153106215817        1.4256317930687283        3.0492132486643504       0.60000002384185791       0.60000002384185791       0.60000002384185791       0.80000001192092896     
  -1.4778564893778385      -0.71644541096179359        1.7561114254898349       0.60000002384185791       0.60000002384185791       0.60000002384185791       0.80000001192092896     
  -1.4778564893778900       0.71644541096176950        1.7561114254898276       0.60000002384185791       0.60000002384185791       0.60000002384185791       0.80000001192092896     
  0.97237626794902188        1.3886354413697901        2.7349541824686665       0.60000002384185791       0.60000002384185791       0.60000002384185791       0.80000001192092896     
  0.97237626794840015       -1.3886354413740052        2.7349541824689840       0.60000002384185791       0.60000002384185791       0.60000002384185791       0.80000001192092896     
   4.0739252244471702       0.91274491506941402        4.5328521982066983       0.60000002384185791       0.60000002384185791       0.60000002384185791       0.80000001192092896     
  -4.0031363067902888       0.87245821025609027        4.5197038570475776       0.60000002384185791       0.60000002384185791       0.60000002384185791       0.80000001192092896     
   2.0367972850354632        1.0736884617150690E-015   3.1626221139450821       0.60000002384185791       0.60000002384185791       0.60000002384185791       0.80000001192092896     
   1.3704909057009400       0.98729852281498143        2.4168940382712498       0.60000002384185791       0.60000002384185791       0.60000002384185791       0.80000001192092896     
   1.3704909057009549      -0.98729852281507269        2.4168940382712352       0.60000002384185791       0.60000002384185791       0.60000002384185791       0.80000001192092896     
   7.4054627308400692E-002   1.4496583024156815        2.5752467225057520       0.60000002384185791       0.60000002384185791       0.60000002384185791       0.80000001192092896     
   7.4054627304779921E-002  -1.4496583024209491        2.5752467225055540       0.60000002384185791       0.60000002384185791       0.60000002384185791       0.80000001192092896     
   1.5686096253034336       -1.0784189879332334E-015   2.2675095182136955       0.60000002384185791       0.60000002384185791       0.60000002384185791       0.80000001192092896     
   5.1351959224906576      -0.75049820334034212        4.0352256057235740        1.0000000000000000        1.0000000000000000        0.0000000000000000        1.0000000000000000     
   5.1351959224906576       0.75049820334034145        4.0352256057235740        1.0000000000000000        1.0000000000000000        0.0000000000000000        1.0000000000000000     
  -2.8168196337138149       -1.4813832874943192E-015   3.6911007832820704       0.60000002384185791       0.60000002384185791       0.60000002384185791       0.80000001192092896     
 -0.41967751152666100       -1.1987723308352927        2.2453880446188763       0.60000002384185791       0.60000002384185791       0.60000002384185791       0.80000001192092896     
 -0.41967751152665228        1.1987723308349949        2.2453880446189682       0.60000002384185791       0.60000002384185791       0.60000002384185791       0.80000001192092896     
  -4.0031363067902879      -0.87245821025609127        4.5197038570475794       0.60000002384185791       0.60000002384185791       0.60000002384185791       0.80000001192092896     
   5.4549819072881707E-002  -9.5544212594434974E-016   1.0535609148389919        1.0000000000000000        1.0000000000000000        0.0000000000000000        1.0000000000000000     
  0.71866296305520039        1.0170877170331327        1.8920393242236850       0.60000002384185791       0.60000002384185791       0.60000002384185791       0.80000001192092896     
  0.71866296305513477       -1.0170877170332888        1.8920393242236386       0.60000002384185791       0.60000002384185791       0.60000002384185791       0.80000001192092896     
   2.6310992698904161       -9.1852071989579370E-016   3.8541478053821172       0.60000002384185791       0.60000002384185791       0.60000002384185791       0.80000001192092896     
  -5.0571866758411295       0.81554555179467580        4.6069091304059731        1.0000000000000000        1.0000000000000000        0.0000000000000000        1.0000000000000000     
  -5.0571866758411295      -0.81554555179467636        4.6069091304059739        1.0000000000000000        1.0000000000000000        0.0000000000000000        1.0000000000000000     
   6.2370583160048128      -0.78707183489235866        4.5784543572302097       0.60000002384185791       0.60000002384185791       0.60000002384185791       0.80000001192092896     
   6.2370583160048128       0.78707183489235710        4.5784543572302097       0.60000002384185791       0.60000002384185791       0.60000002384185791       0.80000001192092896     
  0.90820825255374327       0.58867845116910256        1.7033221682317621       0.60000002384185791       0.60000002384185791       0.60000002384185791       0.80000001192092896     
  0.90820825255374382      -0.58867845116909445        1.7033221682317610       0.60000002384185791       0.60000002384185791       0.60000002384185791       0.80000001192092896     
   2.3913743219157659       -1.0601297789156987        4.1281916484026411       0.60000002384185791       0.60000002384185791       0.60000002384185791       0.80000001192092896     
   1.6412674836998447        1.2742470406604156        3.3080416704383997       0.60000002384185791       0.60000002384185791       0.60000002384185791       0.80000001192092896     
   2.3067172234969430E-002  0.87487158073648974        1.8061386322563555       0.60000002384185791       0.60000002384185791       0.60000002384185791       0.80000001192092896     
   2.3067172234920490E-002 -0.87487158073655369        1.8061386322562956       0.60000002384185791       0.60000002384185791       0.60000002384185791       0.80000001192092896     
   1.6412674836993988       -1.2742470406604933        3.3080416704379427       0.60000002384185791       0.60000002384185791       0.60000002384185791       0.80000001192092896     
  -1.1779189927235443        1.4815239593869718        3.9632337354597409       0.60000002384185791       0.60000002384185791       0.60000002384185791       0.80000001192092896     
  
   3   0  26  63
   3   0  63  26
   4   0  63  64   1
   3   1  64  27
   4   1  64  63   0
   3   1  27  64
   3   2  35  28
   3   2  35  31
   3   2  31  35
   3   2  31   6
   3   2   6  31
   3   2   9  28
   3   2  28  35
   3   2  28   9
   3   3  24  65
   3   3  65  24
   4   3  65  66   4
   3   4  66  25
   4   4  66  65   3
   3   4  25  66
   3   5   7  32
   3   5  32  36
   3   5  32   7
   3   5  36  32
   3   5  36  74
   3   5  74  36
   3   5  74   8
   3   5   8  74
   3   6   2  31
   3   6  31   2
   3   6  31  69
   3   6  69  10
   3   6  69  31
   3   6  10  69
   3   7  11  37
   3   7  37  32
   3   7  37  11
   3   7  32  37
   3   7  32   5
   3   7   5  32
   3   8   5  74
   3   8  74   5
   3   8  74  33
   3   8  33  12
   3   8  33  74
   3   8  12  33
   3   9  13  34
   3   9  34  28
   3   9  34  13
   3   9  28  34
   3   9  28   2
   3   9   2  28
   3  10   6  69
   3  10  69  14
   3  10  69   6
   3  10  14  69
   3  11  15  37
   3  11  37   7
   3  11  37  15
   3  11   7  37
   3  12   8  33
   3  12  33  16
   3  12  33   8
   3  12  16  33
   3  13  17  34
   3  13  34   9
   3  13  34  17
   3  13   9  34
   3  14  10  69
   3  14  69  38
   3  14  69  10
   3  14  38  18
   3  14  38  69
   3  14  18  38
   3  15  19  45
   3  15  45  37
   3  15  45  19
   3  15  37  45
   3  15  37  11
   3  15  11  37
   3  16  12  33
   3  16  33  46
   3  16  33  12
   3  16  46  20
   3  16  46  33
   3  16  20  46
   3  17  21  58
   3  17  58  34
   3  17  58  21
   3  17  34  58
   3  17  34  13
   3  17  13  34
   3  18  14  38
   3  18  38  22
   3  18  38  14
   3  18  22  38
   3  19  23  45
   3  19  45  15
   3  19  45  23
   3  19  15  45
   3  20  16  46
   3  20  46  26
   3  20  46  16
   3  20  26  46
   3  21  27  58
   3  21  58  17
   3  21  58  27
   3  21  17  58
   3  22  18  38
   3  22  38  53
   3  22  38  18
   3  22  53  24
   3  22  53  38
   3  22  24  53
   3  23  25  54
   3  23  54  45
   3  23  54  25
   3  23  45  54
   3  23  45  19
   3  23  19  45
   3  24  22  53
   3  24  53  65
   3  24  53  22
   3  24  65   3
   3  24  65  53
   3  24   3  65
   3  25   4  66
   3  25  66   4
   3  25  66  54
   3  25  54  66
   3  25  54  23
   3  25  23  54
   3  26  20  46
   3  26  46  63
   3  26  46  20
   3  26  63   0
   3  26  63  46
   3  26   0  63
   3  27   1  64
   3  27  64   1
   3  27  64  58
   3  27  58  64
   3  27  58  21
   3  27  21  58
   3  28  34  39
   3  28  34   9
   3  28  39  35
   3  28  39  34
   3  28  35  39
   3  28  35   2
   3  28   2  35
   3  28   2   9
   3  28   9  34
   3  28   9   2
   3  29  33  40
   3  29  33  55
   3  29  40  33
   3  29  40  57
   3  29  57  42
   3  29  57  40
   3  29  42  57
   4  29  42  41  30
   3  29  30  55
   4  29  30  41  42
   3  29  55  30
   3  29  55  33
   3  30  34  55
   3  30  34  39
   3  30  55  29
   3  30  55  34
   3  30  29  55
   4  30  29  42  41
   3  30  41  56
   4  30  41  42  29
   3  30  56  39
   3  30  56  41
   3  30  39  34
   3  30  39  56
   3  31   2  35
   3  31   2   6
   3  31  35  44
   3  31  35   2
   3  31  44  73
   3  31  44  35
   3  31  73  69
   3  31  73  44
   3  31  69   6
   3  31  69  73
   3  31   6   2
   3  31   6  69
   3  32  37  70
   3  32  37   7
   3  32  70  37
   3  32  70  43
   3  32  43  36
   3  32  43  70
   3  32  36  43
   3  32  36   5
   3  32   5   7
   3  32   5  36
   3  32   7  37
   3  32   7   5
   3  33  46  16
   3  33  46  55
   3  33  16  12
   3  33  16  46
   3  33  12   8
   3  33  12  16
   3  33   8  74
   3  33   8  12
   3  33  74  40
   3  33  74   8
   3  33  40  29
   3  33  40  74
   3  33  29  40
   3  33  29  55
   3  33  55  29
   3  33  55  46
   3  34  58  55
   3  34  58  17
   3  34  55  30
   3  34  55  58
   3  34  30  55
   3  34  30  39
   3  34  39  28
   3  34  39  30
   3  34  28  39
   3  34  28   9
   3  34   9  13
   3  34   9  28
   3  34  13  17
   3  34  13   9
   3  34  17  58
   3  34  17  13
   3  35  28  39
   3  35  28   2
   3  35  39  28
   3  35  39  51
   3  35  51  44
   3  35  51  39
   3  35  44  31
   3  35  44  51
   3  35  31   2
   3  35  31  44
   3  35   2  31
   3  35   2  28
   3  36  32  43
   3  36  32   5
   3  36  43  32
   3  36  43  50
   3  36  50  40
   3  36  50  43
   3  36  40  74
   3  36  40  50
   3  36  74   5
   3  36  74  40
   3  36   5  32
   3  36   5  74
   3  37  45  62
   3  37  45  15
   3  37  62  47
   3  37  62  45
   3  37  47  62
   3  37  47  70
   3  37  70  47
   3  37  70  32
   3  37  32  70
   3  37  32   7
   3  37   7  11
   3  37   7  32
   3  37  11  15
   3  37  11   7
   3  37  15  45
   3  37  15  11
   3  38  53  22
   4  38  53  54  45
   3  38  22  18
   3  38  22  53
   3  38  18  14
   3  38  18  22
   3  38  14  69
   3  38  14  18
   3  38  69  14
   3  38  69  62
   3  38  62  45
   3  38  62  69
   3  38  45  62
   4  38  45  54  53
   3  39  35  28
   3  39  35  51
   3  39  28  34
   3  39  28  35
   3  39  34  30
   3  39  34  28
   3  39  30  34
   3  39  30  56
   3  39  56  51
   3  39  56  30
   3  39  51  35
   3  39  51  56
   3  40  29  33
   3  40  29  57
   3  40  33  74
   3  40  33  29
   3  40  74  36
   3  40  74  33
   3  40  36  50
   3  40  36  74
   3  40  50  36
   3  40  50  57
   3  40  57  29
   3  40  57  50
   3  41  59  56
   3  41  59  42
   3  41  56  30
   3  41  56  59
   3  41  30  56
   4  41  30  29  42
   3  41  42  59
   4  41  42  29  30
   3  42  59  41
   3  42  59  57
   3  42  41  59
   4  42  41  30  29
   3  42  29  57
   4  42  29  30  41
   3  42  57  29
   3  42  57  59
   3  43  36  32
   3  43  36  50
   3  43  32  70
   3  43  32  36
   3  43  70  48
   3  43  70  32
   3  43  48  70
   3  43  48  60
   3  43  60  48
   3  43  60  50
   3  43  50  36
   3  43  50  60
   3  44  73  49
   3  44  73  31
   3  44  31  35
   3  44  31  73
   3  44  35  51
   3  44  35  31
   3  44  51  35
   3  44  51  61
   3  44  61  51
   3  44  61  49
   3  44  49  73
   3  44  49  61
   3  45  54  23
   4  45  54  53  38
   3  45  38  62
   4  45  38  53  54
   3  45  62  37
   3  45  62  38
   3  45  37  62
   3  45  37  15
   3  45  15  19
   3  45  15  37
   3  45  19  23
   3  45  19  15
   3  45  23  54
   3  45  23  19
   3  46  63  26
   4  46  63  64  58
   3  46  26  20
   3  46  26  63
   3  46  20  16
   3  46  20  26
   3  46  16  33
   3  46  16  20
   3  46  33  16
   3  46  33  55
   3  46  55  58
   3  46  55  33
   3  46  58  55
   4  46  58  64  63
   3  47  37  62
   3  47  37  70
   3  47  62  37
   3  47  62  69
   3  47  69  73
   3  47  69  62
   3  47  73  49
   3  47  73  69
   3  47  49  73
   3  47  49  52
   3  47  52  48
   3  47  52  49
   3  47  48  70
   3  47  48  52
   3  47  70  37
   3  47  70  48
   3  48  43  70
   3  48  43  60
   3  48  70  47
   3  48  70  43
   3  48  47  52
   3  48  47  70
   3  48  52  47
   3  48  52  67
   3  48  67  52
   3  48  67  60
   3  48  60  67
   3  48  60  43
   3  49  47  73
   3  49  47  52
   3  49  73  47
   3  49  73  44
   3  49  44  73
   3  49  44  61
   3  49  61  68
   3  49  61  44
   3  49  68  61
   3  49  68  52
   3  49  52  47
   3  49  52  68
   3  50  40  36
   3  50  40  57
   3  50  36  43
   3  50  36  40
   3  50  43  36
   3  50  43  60
   3  50  60  71
   3  50  60  43
   3  50  71  60
   3  50  71  57
   3  50  57  40
   3  50  57  71
   3  51  44  35
   3  51  44  61
   3  51  35  39
   3  51  35  44
   3  51  39  35
   3  51  39  56
   3  51  56  39
   3  51  56  72
   3  51  72  56
   3  51  72  61
   3  51  61  72
   3  51  61  44
   3  52  48  47
   3  52  48  67
   3  52  47  49
   3  52  47  48
   3  52  49  47
   3  52  49  68
   3  52  68  59
   3  52  68  49
   3  52  59  67
   3  52  59  68
   3  52  67  59
   3  52  67  48
   3  53  65  24
   4  53  65  66  54
   3  53  24  22
   3  53  24  65
   3  53  22  38
   3  53  22  24
   3  53  38  22
   4  53  38  45  54
   3  54  66  25
   4  54  66  65  53
   3  54  45  23
   4  54  45  38  53
   3  54  23  25
   3  54  23  45
   3  54  25  66
   3  54  25  23
   3  55  29  33
   3  55  29  30
   3  55  30  34
   3  55  30  29
   3  55  34  58
   3  55  34  30
   3  55  58  46
   3  55  58  34
   3  55  46  33
   3  55  46  58
   3  55  33  46
   3  55  33  29
   3  56  51  39
   3  56  51  72
   3  56  39  30
   3  56  39  51
   3  56  30  41
   3  56  30  39
   3  56  41  59
   3  56  41  30
   3  56  59  72
   3  56  59  41
   3  56  72  59
   3  56  72  51
   3  57  42  59
   3  57  42  29
   3  57  29  40
   3  57  29  42
   3  57  40  29
   3  57  40  50
   3  57  50  40
   3  57  50  71
   3  57  71  59
   3  57  71  50
   3  57  59  71
   3  57  59  42
   3  58  64  27
   4  58  64  63  46
   3  58  46  55
   4  58  46  63  64
   3  58  55  34
   3  58  55  46
   3  58  34  55
   3  58  34  17
   3  58  17  21
   3  58  17  34
   3  58  21  27
   3  58  21  17
   3  58  27  64
   3  58  27  21
   3  59  71  60
   3  59  71  57
   3  59  60  67
   3  59  60  71
   3  59  67  52
   3  59  67  60
   3  59  52  68
   3  59  52  67
   3  59  68  61
   3  59  68  52
   3  59  61  72
   3  59  61  68
   3  59  72  56
   3  59  72  61
   3  59  56  41
   3  59  56  72
   3  59  41  56
   3  59  41  42
   3  59  42  41
   3  59  42  57
   3  59  57  42
   3  59  57  71
   3  60  48  43
   3  60  48  67
   3  60  67  59
   3  60  67  48
   3  60  59  71
   3  60  59  67
   3  60  71  59
   3  60  71  50
   3  60  50  43
   3  60  50  71
   3  60  43  48
   3  60  43  50
   3  61  51  44
   3  61  51  72
   3  61  72  59
   3  61  72  51
   3  61  59  68
   3  61  59  72
   3  61  68  59
   3  61  68  49
   3  61  49  44
   3  61  49  68
   3  61  44  51
   3  61  44  49
   3  62  47  37
   3  62  47  69
   3  62  37  45
   3  62  37  47
   3  62  45  38
   3  62  45  37
   3  62  38  69
   3  62  38  45
   3  62  69  38
   3  62  69  47
   3  63   0  26
   4  63   0   1  64
   3  63  26  46
   3  63  26   0
   3  63  46  26
   4  63  46  58  64
   3  64   1  27
   4  64   1   0  63
   3  64  58  27
   4  64  58  46  63
   3  64  27   1
   3  64  27  58
   3  65   3  24
   4  65   3   4  66
   3  65  24  53
   3  65  24   3
   3  65  53  24
   4  65  53  54  66
   3  66   4  25
   4  66   4   3  65
   3  66  54  25
   4  66  54  53  65
   3  66  25   4
   3  66  25  54
   3  67  52  48
   3  67  52  59
   3  67  59  60
   3  67  59  52
   3  67  60  48
   3  67  60  59
   3  67  48  52
   3  67  48  60
   3  68  61  59
   3  68  61  49
   3  68  59  52
   3  68  59  61
   3  68  52  49
   3  68  52  59
   3  68  49  61
   3  68  49  52
   3  69  38  14
   3  69  38  62
   3  69  14  10
   3  69  14  38
   3  69  10   6
   3  69  10  14
   3  69   6  31
   3  69   6  10
   3  69  31  73
   3  69  31   6
   3  69  73  47
   3  69  73  31
   3  69  47  62
   3  69  47  73
   3  69  62  47
   3  69  62  38
   3  70  37  47
   3  70  37  32
   3  70  47  37
   3  70  47  48
   3  70  48  43
   3  70  48  47
   3  70  43  32
   3  70  43  48
   3  70  32  37
   3  70  32  43
   3  71  60  59
   3  71  60  50
   3  71  59  60
   3  71  59  57
   3  71  57  50
   3  71  57  59
   3  71  50  60
   3  71  50  57
   3  72  56  51
   3  72  56  59
   3  72  59  61
   3  72  59  56
   3  72  61  51
   3  72  61  59
   3  72  51  56
   3  72  51  61
   3  73  49  47
   3  73  49  44
   3  73  47  69
   3  73  47  49
   3  73  69  31
   3  73  69  47
   3  73  31  44
   3  73  31  69
   3  73  44  31
   3  73  44  49
   3  74   5  36
   3  74   5   8
   3  74  36  40
   3  74  36   5
   3  74  40  33
   3  74  40  36
   3  74  33   8
   3  74  33  40
   3  74   8   5
   3  74   8  33
