 COFF
         102        1002         102
  
  -6.4886649303995325        1.0231713550949799        6.0603429491407415       0.60000002384185791       0.60000002384185791       0.60000002384185791       0.80000001192092896     
  -6.4886649303993034       -1.0231713550948325        6.0603429491410310       0.60000002384185791       0.60000002384185791       0.60000002384185791       0.80000001192092896     
  -2.7807560449531712E-002  -2.0284311759014160        5.7719173885000314       0.60000002384185791       0.60000002384185791       0.60000002384185791       0.80000001192092896     
   7.3666784368353389      -0.98426832872289183        6.1063508944544251       0.60000002384185791       0.60000002384185791       0.60000002384185791       0.80000001192092896     
   7.3666784368360041       0.98426832872337588        6.1063508944536133       0.60000002384185791       0.60000002384185791       0.60000002384185791       0.80000001192092896     
  -2.7807560448766547E-002   2.0284311757560007        5.7719173886455923       0.60000002384185791       0.60000002384185791       0.60000002384185791       0.80000001192092896     
   1.1113806402910102       -1.6482583372985886        5.9808090510128711       0.60000002384185791       0.60000002384185791       0.60000002384185791       0.80000001192092896     
   1.1113806402760817        1.6482583372599893        5.9808090510543170       0.60000002384185791       0.60000002384185791       0.60000002384185791       0.80000001192092896     
  -1.1435328897761361        1.6457298154967031        5.9355158528451533       0.60000002384185791       0.60000002384185791       0.60000002384185791       0.80000001192092896     
  -1.1435328898224795       -1.6457298155963211        5.9355158527390239       0.60000002384185791       0.60000002384185791       0.60000002384185791       0.80000001192092896     
   1.9949562139874883       -1.2837071494023291        6.2890725593041941       0.60000002384185791       0.60000002384185791       0.60000002384185791       0.80000001192092896     
   1.9949562139829569        1.2837071493844530        6.2890725593226264       0.60000002384185791       0.60000002384185791       0.60000002384185791       0.80000001192092896     
  -2.0366505675053652        1.3130075769897447        6.2384518636344639       0.60000002384185791       0.60000002384185791       0.60000002384185791       0.80000001192092896     
  -2.0366505674947097       -1.3130075770116840        6.2384518636134141       0.60000002384185791       0.60000002384185791       0.60000002384185791       0.80000001192092896     
   3.0659651102208607       -1.1859937895632566        6.3076483991832841       0.60000002384185791       0.60000002384185791       0.60000002384185791       0.80000001192092896     
   3.0659651101797172        1.1859937895309380        6.3076483990204073       0.60000002384185791       0.60000002384185791       0.60000002384185791       0.80000001192092896     
  -3.0286416556614868        1.1912364858290692        6.2326678410658838       0.60000002384185791       0.60000002384185791       0.60000002384185791       0.80000001192092896     
  -3.0286416556432543       -1.1912364858400626        6.2326678409701062       0.60000002384185791       0.60000002384185791       0.60000002384185791       0.80000001192092896     
   4.0638871598115491       -1.1273988676420548        6.3181219555839911       0.60000002384185791       0.60000002384185791       0.60000002384185791       0.80000001192092896     
   4.0638871597710660        1.1273988675745379        6.3181219556557862       0.60000002384185791       0.60000002384185791       0.60000002384185791       0.80000001192092896     
  -4.0223254592792204        1.1000767144267145        6.2948258440409353       0.60000002384185791       0.60000002384185791       0.60000002384185791       0.80000001192092896     
  -4.0223254592607534       -1.1000767144260917        6.2948258440420410       0.60000002384185791       0.60000002384185791       0.60000002384185791       0.80000001192092896     
   5.0603843738396135       -1.2690743492517724        6.0512910479898201       0.60000002384185791       0.60000002384185791       0.60000002384185791       0.80000001192092896     
   5.0603843869595977        1.2690743499255266        6.0512910551682575       0.60000002384185791       0.60000002384185791       0.60000002384185791       0.80000001192092896     
   6.0915909830660704       -1.2241727226738672        6.0272261016036248       0.60000002384185791       0.60000002384185791       0.60000002384185791       0.80000001192092896     
   6.0915909830725550        1.2241727226671002        6.0272261015789264       0.60000002384185791       0.60000002384185791       0.60000002384185791       0.80000001192092896     
  -5.0078406462937322        1.1785368269791987        6.0857260275219929       0.60000002384185791       0.60000002384185791       0.60000002384185791       0.80000001192092896     
  -5.0078406462935456       -1.1785368269781495        6.0857260275230649       0.60000002384185791       0.60000002384185791       0.60000002384185791       0.80000001192092896     
  -6.8437598170670375        6.3873064818727874E-014   6.0530863328594329       0.60000002384185791       0.60000002384185791       0.60000002384185791       0.80000001192092896     
  -2.1418666497351535       0.91847171410338591        3.8250735145419892       0.60000002384185791       0.60000002384185791       0.60000002384185791       0.80000001192092896     
  -2.1418665930847807      -0.91847177360705745        3.8250735286870383       0.60000002384185791       0.60000002384185791       0.60000002384185791       0.80000001192092896     
   1.2472988389807396       -1.5970274241672877        4.8543656933914372       0.60000002384185791       0.60000002384185791       0.60000002384185791       0.80000001192092896     
   1.2472988107671676        1.5970274154255435        4.8543656934204753       0.60000002384185791       0.60000002384185791       0.60000002384185791       0.80000001192092896     
  -2.4790341074891580        1.2445146207580715        5.1221854785181593       0.60000002384185791       0.60000002384185791       0.60000002384185791       0.80000001192092896     
  -2.4790341071068283       -1.2445146227721642        5.1221854784670953       0.60000002384185791       0.60000002384185791       0.60000002384185791       0.80000001192092896     
   1.4321312656669152E-002  -1.7464354120368022        4.4935745264581097       0.60000002384185791       0.60000002384185791       0.60000002384185791       0.80000001192092896     
   1.4321149072762789E-002   1.7464389781340075        4.4935745264523721       0.60000002384185791       0.60000002384185791       0.60000002384185791       0.80000001192092896     
   2.4903607262326339        1.2221666532205844        5.1506215342729504       0.60000002384185791       0.60000002384185791       0.60000002384185791       0.80000001192092896     
   4.1101493944722494       -1.1659453090168508        5.5294297096723541       0.60000002384185791       0.60000002384185791       0.60000002384185791       0.80000001192092896     
 -0.98807141391571807       -1.5605993753171596        4.0644283000190340       0.60000002384185791       0.60000002384185791       0.60000002384185791       0.80000001192092896     
 -0.98807143306118561        1.5605992892220202        4.0644283174213802       0.60000002384185791       0.60000002384185791       0.60000002384185791       0.80000001192092896     
  -1.5517204864355743      -0.94474970854759155        2.3887067946684830       0.60000002384185791       0.60000002384185791       0.60000002384185791       0.80000001192092896     
  -1.5517205817575621       0.94474955324320131        2.3887066905364462       0.60000002384185791       0.60000002384185791       0.60000002384185791       0.80000001192092896     
   1.0948298010889037        1.5437123363341514        3.6914306524938678       0.60000002384185791       0.60000002384185791       0.60000002384185791       0.80000001192092896     
   1.0948299288802716       -1.5437124319962123        3.6914306314175076       0.60000002384185791       0.60000002384185791       0.60000002384185791       0.80000001192092896     
   4.1101494078029406        1.1659453345734927        5.5294296919497308       0.60000002384185791       0.60000002384185791       0.60000002384185791       0.80000001192092896     
  -4.0341563670828648        1.1086488026089738        5.5439386248328253       0.60000002384185791       0.60000002384185791       0.60000002384185791       0.80000001192092896     
   2.3340638825966962        3.1039758484697657E-009   4.1085070760728950       0.60000002384185791       0.60000002384185791       0.60000002384185791       0.80000001192092896     
   1.5464435393176552        1.1604617121761722        3.3052008138067714       0.60000002384185791       0.60000002384185791       0.60000002384185791       0.80000001192092896     
   1.5464435560378300       -1.1604617306088216        3.3052008122426160       0.60000002384185791       0.60000002384185791       0.60000002384185791       0.80000001192092896     
  0.11475317212491917        1.6191219443611533        3.4528243509337218       0.60000002384185791       0.60000002384185791       0.60000002384185791       0.80000001192092896     
  0.11471431427521894       -1.6189943876800039        3.4528243525269717       0.60000002384185791       0.60000002384185791       0.60000002384185791       0.80000001192092896     
   1.8086112051663814       -1.1179454032166486E-009   3.0318351492040039       0.60000002384185791       0.60000002384185791       0.60000002384185791       0.80000001192092896     
   5.1649035239385608      -0.75033196736728092        4.0352256057235740        1.0000000000000000        1.0000000000000000        0.0000000000000000        1.0000000000000000     
   5.1649035243634005       0.75033196965044402        4.0352256057235740        1.0000000000000000        1.0000000000000000        0.0000000000000000        1.0000000000000000     
  -3.1911020320877519       -2.7100765482885000E-010   4.5872565230939308       0.60000002384185791       0.60000002384185791       0.60000002384185791       0.80000001192092896     
 -0.71797177637026455       -1.4346377931795429        3.2078019721654232       0.60000002384185791       0.60000002384185791       0.60000002384185791       0.80000001192092896     
 -0.71797168804927081        1.4346372483605307        3.2078021313483660       0.60000002384185791       0.60000002384185791       0.60000002384185791       0.80000001192092896     
  -4.0341563672214082       -1.1086488028137975        5.5439386250098117       0.60000002384185791       0.60000002384185791       0.60000002384185791       0.80000001192092896     
  0.14517270949444741       -1.1240696413670201E-008   1.0535609148389919        1.0000000000000000        1.0000000000000000        0.0000000000000000        1.0000000000000000     
  0.97898298685820395        1.4033799646687077        2.7226704363682930       0.60000002384185791       0.60000002384185791       0.60000002384185791       0.80000001192092896     
  0.97898328298379522       -1.4033801996542206        2.7226704212550437       0.60000002384185791       0.60000002384185791       0.60000002384185791       0.80000001192092896     
   3.1089204494210780        1.4664282569916889E-008   4.5173171197892170       0.60000002384185791       0.60000002384185791       0.60000002384185791       0.80000001192092896     
  -5.0603490422318416       0.81535699530429184        4.6069091304059731        1.0000000000000000        1.0000000000000000        0.0000000000000000        1.0000000000000000     
  -5.0603490422324953      -0.81535699530077343        4.6069091304059739        1.0000000000000000        1.0000000000000000        0.0000000000000000        1.0000000000000000     
   6.6753224383476129       -1.0880341882953735        5.4113224115983103       0.60000002384185791       0.60000002384185791       0.60000002384185791       0.80000001192092896     
   6.6753224386492480        1.0880341883504034        5.4113224117332850       0.60000002384185791       0.60000002384185791       0.60000002384185791       0.80000001192092896     
   1.3407561616918167       0.93189063344820311        2.3638656961871325       0.60000002384185791       0.60000002384185791       0.60000002384185791       0.80000001192092896     
   1.3407561789599052      -0.93189066099173767        2.3638656978425443       0.60000002384185791       0.60000002384185791       0.60000002384185791       0.80000001192092896     
   2.4903607262632153       -1.2221666508122837        5.1506215344146868       0.60000002384185791       0.60000002384185791       0.60000002384185791       0.80000001192092896     
   1.7368126675646718        1.4126950470007014        4.2919228146833364       0.60000002384185791       0.60000002384185791       0.60000002384185791       0.80000001192092896     
  0.19312219227853261        1.4453406701953699        2.4752284550463628       0.60000002384185791       0.60000002384185791       0.60000002384185791       0.80000001192092896     
  0.19312277649462534       -1.4453409923409599        2.4752283856639443       0.60000002384185791       0.60000002384185791       0.60000002384185791       0.80000001192092896     
   1.7368126911737143       -1.4126950449479980        4.2919228310596393       0.60000002384185791       0.60000002384185791       0.60000002384185791       0.80000001192092896     
  -1.2353638055776095        1.6112116642039966        5.0039319350299145       0.60000002384185791       0.60000002384185791       0.60000002384185791       0.80000001192092896     
   1.5058334670169733       -4.3468053099359074E-009   2.2083867494137683       0.60000002384185791       0.60000002384185791       0.60000002384185791       0.80000001192092896     
 -0.38899906452976762       -1.2789563709447203        2.1452937192134400       0.60000002384185791       0.60000002384185791       0.60000002384185791       0.80000001192092896     
 -0.38899909534940802        1.2789560775907445        2.1452937721151053       0.60000002384185791       0.60000002384185791       0.60000002384185791       0.80000001192092896     
   4.1236643734113887        6.7610879912671297E-008   5.3160222033090587       0.60000002384185791       0.60000002384185791       0.60000002384185791       0.80000001192092896     
  -1.2589227814027686      -0.63744058157394046        1.6133105684566735       0.60000002384185791       0.60000002384185791       0.60000002384185791       0.80000001192092896     
  -1.2589227928641280       0.63744052692453801        1.6133105110458494       0.60000002384185791       0.60000002384185791       0.60000002384185791       0.80000001192092896     
  0.74967826704065710        1.0265675019479017        1.8814840801794404       0.60000002384185791       0.60000002384185791       0.60000002384185791       0.80000001192092896     
  0.74967824659108739       -1.0265675793110665        1.8814840496508620       0.60000002384185791       0.60000002384185791       0.60000002384185791       0.80000001192092896     
  -4.0342394481716228        4.8086035373228994E-010   5.3849111960498393       0.60000002384185791       0.60000002384185791       0.60000002384185791       0.80000001192092896     
   5.7593507567401527       -1.1263515284135792        5.1288720958121541       0.60000002384185791       0.60000002384185791       0.60000002384185791       0.80000001192092896     
   5.7593507572120570        1.1263515282442982        5.1288720954999372       0.60000002384185791       0.60000002384185791       0.60000002384185791       0.80000001192092896     
   6.7941709557850629        4.8100436196607027E-012   5.3273256057294720       0.60000002384185791       0.60000002384185791       0.60000002384185791       0.80000001192092896     
   6.1242792006022597      -0.39103315960555879        4.6235452486873996       0.60000002384185791       0.60000002384185791       0.60000002384185791       0.80000001192092896     
   6.1242792009918814       0.39103315942717853        4.6235452486873996       0.60000002384185791       0.60000002384185791       0.60000002384185791       0.80000001192092896     
   5.0813699380047623       -1.0780841912903893        5.0709670662205681       0.60000002384185791       0.60000002384185791       0.60000002384185791       0.80000001192092896     
   5.0813699447809277        1.0780841942734247        5.0709670694018287       0.60000002384185791       0.60000002384185791       0.60000002384185791       0.80000001192092896     
   5.9990627904505667      -0.92065186462107984        4.7166490235695901       0.60000002384185791       0.60000002384185791       0.60000002384185791       0.80000001192092896     
   5.9990627905798855       0.92065186503180518        4.7166490234703584       0.60000002384185791       0.60000002384185791       0.60000002384185791       0.80000001192092896     
  -1.2353637834677769       -1.6112116695144492        5.0039319342791666       0.60000002384185791       0.60000002384185791       0.60000002384185791       0.80000001192092896     
  -5.8338477090606498       0.42089089162878779        5.3026019924180074       0.60000002384185791       0.60000002384185791       0.60000002384185791       0.80000001192092896     
  -5.8338477090606817      -0.42089089162840743        5.3026019924180074       0.60000002384185791       0.60000002384185791       0.60000002384185791       0.80000001192092896     
  -5.8081388701471806       0.91895844718524566        5.3447493193123377       0.60000002384185791       0.60000002384185791       0.60000002384185791       0.80000001192092896     
  -5.8081388701473085      -0.91895844718456421        5.3447493193124602       0.60000002384185791       0.60000002384185791       0.60000002384185791       0.80000001192092896     
  0.16399371190236192       0.76476628731420027        1.7522247097570647       0.60000002384185791       0.60000002384185791       0.60000002384185791       0.80000001192092896     
  0.16399396162171642      -0.76476642466861589        1.7522246723626180       0.60000002384185791       0.60000002384185791       0.60000002384185791       0.80000001192092896     
  0.75151273127669416       0.46719821431701336        1.7071118232228759       0.60000002384185791       0.60000002384185791       0.60000002384185791       0.80000001192092896     
  0.75151274233939569      -0.46719823533556992        1.7071118240907799       0.60000002384185791       0.60000002384185791       0.60000002384185791       0.80000001192092896     
  
   3   0  26  96
   3   0  96  26
   3   0  96  28
   3   0  28  96
   3   1  28  97
   3   1  97  28
   3   1  97  27
   3   1  27  97
   3   2  35  93
   3   2  35  31
   3   2  31  35
   3   2  31   6
   3   2   6  31
   3   2   9  93
   3   2  93  35
   3   2  93   9
   3   3   4  86
   3   3  24  65
   3   3  65  24
   3   3  65  86
   3   3  86   4
   3   3  86  65
   3   4   3  86
   3   4  86  66
   3   4  86   3
   3   4  66  86
   3   4  66  25
   3   4  25  66
   3   5   7  32
   3   5  32  36
   3   5  32   7
   3   5  36  32
   3   5  36  74
   3   5  74  36
   3   5  74   8
   3   5   8  74
   3   6   2  31
   3   6  31   2
   3   6  31  69
   3   6  69  10
   3   6  69  31
   3   6  10  69
   3   7  11  37
   3   7  37  32
   3   7  37  11
   3   7  32  37
   3   7  32   5
   3   7   5  32
   3   8   5  74
   3   8  74   5
   3   8  74  33
   3   8  33  12
   3   8  33  74
   3   8  12  33
   3   9  13  34
   3   9  34  93
   3   9  34  13
   3   9  93  34
   3   9  93   2
   3   9   2  93
   3  10   6  69
   3  10  69  14
   3  10  69   6
   3  10  14  69
   3  11  15  37
   3  11  37   7
   3  11  37  15
   3  11   7  37
   3  12   8  33
   3  12  33  16
   3  12  33   8
   3  12  16  33
   3  13  17  34
   3  13  34   9
   3  13  34  17
   3  13   9  34
   3  14  10  69
   3  14  69  38
   3  14  69  10
   3  14  38  18
   3  14  38  69
   3  14  18  38
   3  15  19  45
   3  15  45  37
   3  15  45  19
   3  15  37  45
   3  15  37  11
   3  15  11  37
   3  16  12  33
   3  16  33  46
   3  16  33  12
   3  16  46  20
   3  16  46  33
   3  16  20  46
   3  17  21  58
   3  17  58  34
   3  17  58  21
   3  17  34  58
   3  17  34  13
   3  17  13  34
   3  18  14  38
   3  18  38  22
   3  18  38  14
   3  18  22  38
   3  19  23  45
   3  19  45  15
   3  19  45  23
   3  19  15  45
   3  20  16  46
   3  20  46  26
   3  20  46  16
   3  20  26  46
   3  21  27  58
   3  21  58  17
   3  21  58  27
   3  21  17  58
   3  22  18  38
   3  22  38  89
   3  22  38  18
   3  22  89  38
   3  22  89  84
   3  22  84  89
   3  22  84  24
   3  22  24  84
   3  23  25  85
   3  23  85  90
   3  23  85  25
   3  23  90  85
   3  23  90  45
   3  23  45  19
   3  23  45  90
   3  23  19  45
   3  24  22  84
   3  24  84  22
   3  24  84  65
   3  24  65   3
   3  24  65  84
   3  24   3  65
   3  25   4  66
   3  25  66   4
   3  25  66  85
   3  25  85  66
   3  25  85  23
   3  25  23  85
   3  26  20  46
   3  26  46  63
   3  26  46  20
   3  26  63  96
   3  26  63  46
   3  26  96  63
   3  26  96   0
   3  26   0  96
   3  27   1  97
   3  27  97  64
   3  27  97   1
   3  27  64  97
   3  27  64  58
   3  27  58  64
   3  27  58  21
   3  27  21  58
   3  28   0  96
   3  28  96  94
   3  28  96   0
   3  28  94  96
   3  28  94  95
   3  28  95  94
   3  28  95  97
   3  28  97  95
   3  28  97   1
   3  28   1  97
   3  29  33  40
   3  29  33  55
   3  29  40  33
   3  29  40  57
   3  29  57  42
   3  29  57  40
   3  29  42  57
   4  29  42  41  30
   3  29  30  55
   4  29  30  41  42
   3  29  55  30
   3  29  55  33
   3  30  34  55
   3  30  34  39
   3  30  55  29
   3  30  55  34
   3  30  29  55
   4  30  29  42  41
   3  30  41  56
   4  30  41  42  29
   3  30  56  39
   3  30  56  41
   3  30  39  34
   3  30  39  56
   3  31   2  35
   3  31   2   6
   3  31  35  44
   3  31  35   2
   3  31  44  73
   3  31  44  35
   3  31  73  69
   3  31  73  44
   3  31  69   6
   3  31  69  73
   3  31   6   2
   3  31   6  69
   3  32  37  70
   3  32  37   7
   3  32  70  37
   3  32  70  43
   3  32  43  36
   3  32  43  70
   3  32  36  43
   3  32  36   5
   3  32   5   7
   3  32   5  36
   3  32   7  37
   3  32   7   5
   3  33  46  16
   3  33  46  55
   3  33  16  12
   3  33  16  46
   3  33  12   8
   3  33  12  16
   3  33   8  74
   3  33   8  12
   3  33  74  40
   3  33  74   8
   3  33  40  29
   3  33  40  74
   3  33  29  40
   3  33  29  55
   3  33  55  29
   3  33  55  46
   3  34  58  55
   3  34  58  17
   3  34  55  30
   3  34  55  58
   3  34  30  55
   3  34  30  39
   3  34  39  93
   3  34  39  30
   3  34  93  39
   3  34  93   9
   3  34   9  13
   3  34   9  93
   3  34  13  17
   3  34  13   9
   3  34  17  58
   3  34  17  13
   3  35  93  39
   3  35  93   2
   3  35  39  93
   3  35  39  51
   3  35  51  44
   3  35  51  39
   3  35  44  31
   3  35  44  51
   3  35  31   2
   3  35  31  44
   3  35   2  31
   3  35   2  93
   3  36  32  43
   3  36  32   5
   3  36  43  32
   3  36  43  50
   3  36  50  40
   3  36  50  43
   3  36  40  74
   3  36  40  50
   3  36  74   5
   3  36  74  40
   3  36   5  32
   3  36   5  74
   3  37  45  62
   3  37  45  15
   3  37  62  47
   3  37  62  45
   3  37  47  62
   3  37  47  70
   3  37  70  47
   3  37  70  32
   3  37  32  70
   3  37  32   7
   3  37   7  11
   3  37   7  32
   3  37  11  15
   3  37  11   7
   3  37  15  45
   3  37  15  11
   3  38  53  89
   3  38  53  78
   3  38  89  53
   3  38  89  22
   3  38  22  18
   3  38  22  89
   3  38  18  14
   3  38  18  22
   3  38  14  69
   3  38  14  18
   3  38  69  14
   3  38  69  62
   3  38  62  78
   3  38  62  69
   3  38  78  62
   3  38  78  53
   3  39  35  93
   3  39  35  51
   3  39  93  34
   3  39  93  35
   3  39  34  30
   3  39  34  93
   3  39  30  34
   3  39  30  56
   3  39  56  51
   3  39  56  30
   3  39  51  35
   3  39  51  56
   3  40  29  33
   3  40  29  57
   3  40  33  74
   3  40  33  29
   3  40  74  36
   3  40  74  33
   3  40  36  50
   3  40  36  74
   3  40  50  36
   3  40  50  57
   3  40  57  29
   3  40  57  50
   3  41  76  56
   4  41  76  59  79
   3  41  56  30
   3  41  56  76
   3  41  30  56
   4  41  30  29  42
   3  42  29  57
   4  42  29  30  41
   3  42  57  29
   3  42  57  77
   3  42  77  57
   4  42  77  59  80
   3  43  36  32
   3  43  36  50
   3  43  32  70
   3  43  32  36
   3  43  70  48
   3  43  70  32
   3  43  48  70
   3  43  48  60
   3  43  60  48
   3  43  60  50
   3  43  50  36
   3  43  50  60
   3  44  73  49
   3  44  73  31
   3  44  31  35
   3  44  31  73
   3  44  35  51
   3  44  35  31
   3  44  51  35
   3  44  51  61
   3  44  61  51
   3  44  61  49
   3  44  49  73
   3  44  49  61
   3  45  54  78
   3  45  54  90
   3  45  78  62
   3  45  78  54
   3  45  62  37
   3  45  62  78
   3  45  37  62
   3  45  37  15
   3  45  15  19
   3  45  15  37
   3  45  19  23
   3  45  19  15
   3  45  23  90
   3  45  23  19
   3  45  90  54
   3  45  90  23
   3  46  63  26
   3  46  63  83
   3  46  26  20
   3  46  26  63
   3  46  20  16
   3  46  20  26
   3  46  16  33
   3  46  16  20
   3  46  33  16
   3  46  33  55
   3  46  55  83
   3  46  55  33
   3  46  83  55
   3  46  83  63
   3  47  37  62
   3  47  37  70
   3  47  62  37
   3  47  62  69
   3  47  69  73
   3  47  69  62
   3  47  73  49
   3  47  73  69
   3  47  49  73
   3  47  49  52
   3  47  52  48
   3  47  52  49
   3  47  48  70
   3  47  48  52
   3  47  70  37
   3  47  70  48
   3  48  43  70
   3  48  43  60
   3  48  70  47
   3  48  70  43
   3  48  47  52
   3  48  47  70
   3  48  52  47
   3  48  52  67
   3  48  67  52
   3  48  67  60
   3  48  60  67
   3  48  60  43
   3  49  47  73
   3  49  47  52
   3  49  73  47
   3  49  73  44
   3  49  44  73
   3  49  44  61
   3  49  61  68
   3  49  61  44
   3  49  68  61
   3  49  68  52
   3  49  52  47
   3  49  52  68
   3  50  40  36
   3  50  40  57
   3  50  36  43
   3  50  36  40
   3  50  43  36
   3  50  43  60
   3  50  60  71
   3  50  60  43
   3  50  71  60
   3  50  71  57
   3  50  57  40
   3  50  57  71
   3  51  44  35
   3  51  44  61
   3  51  35  39
   3  51  35  44
   3  51  39  35
   3  51  39  56
   3  51  56  39
   3  51  56  72
   3  51  72  56
   3  51  72  61
   3  51  61  72
   3  51  61  44
   3  52  48  47
   3  52  48  67
   3  52  47  49
   3  52  47  48
   3  52  49  47
   3  52  49  68
   3  52  68  75
   3  52  68  49
   3  52  75  68
   3  52  75  67
   3  52  67  75
   3  52  67  48
   3  53  91  87
   3  53  91  84
   3  53  84  89
   3  53  84  91
   3  53  89  38
   3  53  89  84
   3  53  38  89
   3  53  38  78
   3  53  78  54
   3  53  78  38
   3  53  54  78
   4  53  54  88  87
   3  53  87  91
   4  53  87  88  54
   3  54  92  85
   3  54  92  88
   3  54  88  92
   4  54  88  87  53
   3  54  53  78
   4  54  53  87  88
   3  54  78  45
   3  54  78  53
   3  54  45  78
   3  54  45  90
   3  54  90  85
   3  54  90  45
   3  54  85  92
   3  54  85  90
   3  55  29  33
   3  55  29  30
   3  55  30  34
   3  55  30  29
   3  55  34  58
   3  55  34  30
   3  55  58  83
   3  55  58  34
   3  55  83  58
   3  55  83  46
   3  55  46  33
   3  55  46  83
   3  55  33  46
   3  55  33  29
   3  56  51  39
   3  56  51  72
   3  56  39  30
   3  56  39  51
   3  56  30  41
   3  56  30  39
   3  56  41  76
   3  56  41  30
   3  56  76  41
   3  56  76  72
   3  56  72  76
   3  56  72  51
   3  57  42  29
   3  57  42  77
   3  57  29  40
   3  57  29  42
   3  57  40  29
   3  57  40  50
   3  57  50  40
   3  57  50  71
   3  57  71  77
   3  57  71  50
   3  57  77  71
   3  57  77  42
   3  58  64  83
   3  58  64  27
   3  58  83  55
   3  58  83  64
   3  58  55  34
   3  58  55  83
   3  58  34  55
   3  58  34  17
   3  58  17  21
   3  58  17  34
   3  58  21  27
   3  58  21  17
   3  58  27  64
   3  58  27  21
   3  59  98  77
   3  59  98  81
   3  59  81 100
   3  59  81  98
   3  59 100  81
   3  59 100  75
   3  59  75 101
   3  59  75 100
   3  59 101  75
   3  59 101  82
   3  59  82  99
   3  59  82 101
   3  59  99  82
   3  59  99  76
   3  59  76  99
   4  59  76  41  79
   3  59  79  80
   4  59  79  41  76
   3  59  80  79
   4  59  80  42  77
   3  59  77  98
   4  59  77  71  81
   3  60  48  43
   3  60  48  67
   3  60  67  81
   3  60  67  48
   3  60  81  71
   3  60  81  67
   3  60  71  81
   3  60  71  50
   3  60  50  43
   3  60  50  71
   3  60  43  48
   3  60  43  50
   3  61  51  44
   3  61  51  72
   3  61  72  82
   3  61  72  51
   3  61  82  68
   3  61  82  72
   3  61  68  82
   3  61  68  49
   3  61  49  44
   3  61  49  68
   3  61  44  51
   3  61  44  49
   3  62  47  37
   3  62  47  69
   3  62  37  45
   3  62  37  47
   3  62  45  78
   3  62  45  37
   3  62  78  45
   3  62  78  38
   3  62  38  69
   3  62  38  78
   3  62  69  38
   3  62  69  47
   3  63  96  26
   3  63  96  94
   3  63  26  46
   3  63  26  96
   3  63  46  26
   3  63  46  83
   3  63  83  64
   3  63  83  46
   3  63  64  83
   4  63  64  95  94
   3  63  94  96
   4  63  94  95  64
   3  64  97  95
   3  64  97  27
   3  64  95  97
   4  64  95  94  63
   3  64  63  83
   4  64  63  94  95
   3  64  83  58
   3  64  83  63
   3  64  58  83
   3  64  58  27
   3  64  27  97
   3  64  27  58
   3  65   3  24
   3  65   3  86
   3  65  24  84
   3  65  24   3
   3  65  84  91
   3  65  84  24
   3  65  91  86
   3  65  91  84
   3  65  86   3
   3  65  86  91
   3  66   4  86
   3  66   4  25
   3  66  86  92
   3  66  86   4
   3  66  92  85
   3  66  92  86
   3  66  85  92
   3  66  85  25
   3  66  25   4
   3  66  25  85
   3  67  52  48
   3  67  52  75
   3  67  75 100
   3  67  75  52
   3  67 100  81
   3  67 100  75
   3  67  81  60
   3  67  81 100
   3  67  60  48
   3  67  60  81
   3  67  48  52
   3  67  48  60
   3  68  61  82
   3  68  61  49
   3  68  82  61
   3  68  82 101
   3  68 101  75
   3  68 101  82
   3  68  75 101
   3  68  75  52
   3  68  52  49
   3  68  52  75
   3  68  49  61
   3  68  49  52
   3  69  38  14
   3  69  38  62
   3  69  14  10
   3  69  14  38
   3  69  10   6
   3  69  10  14
   3  69   6  31
   3  69   6  10
   3  69  31  73
   3  69  31   6
   3  69  73  47
   3  69  73  31
   3  69  47  62
   3  69  47  73
   3  69  62  47
   3  69  62  38
   3  70  37  47
   3  70  37  32
   3  70  47  37
   3  70  47  48
   3  70  48  43
   3  70  48  47
   3  70  43  32
   3  70  43  48
   3  70  32  37
   3  70  32  43
   3  71  60  81
   3  71  60  50
   3  71  81  60
   3  71  81  98
   3  71  98  77
   3  71  98  81
   3  71  77  98
   3  71  77  57
   3  71  57  50
   3  71  57  77
   3  71  50  60
   3  71  50  57
   3  72  56  51
   3  72  56  76
   3  72  76  99
   3  72  76  56
   3  72  99  82
   3  72  99  76
   3  72  82  61
   3  72  82  99
   3  72  61  51
   3  72  61  82
   3  72  51  56
   3  72  51  61
   3  73  49  47
   3  73  49  44
   3  73  47  69
   3  73  47  49
   3  73  69  31
   3  73  69  47
   3  73  31  44
   3  73  31  69
   3  73  44  31
   3  73  44  49
   3  74   5  36
   3  74   5   8
   3  74  36  40
   3  74  36   5
   3  74  40  33
   3  74  40  36
   3  74  33   8
   3  74  33  40
   3  74   8   5
   3  74   8  33
   3  75  68 101
   3  75  68  52
   3  75 101  68
   3  75 101  59
   3  75  59 100
   3  75  59 101
   3  75 100  67
   3  75 100  59
   3  75  67  52
   3  75  67 100
   3  75  52  68
   3  75  52  67
   3  76  41  56
   4  76  41  79  59
   3  76  59  99
   4  76  59  82  72
   3  76  99  72
   3  76  99  59
   3  76  72  56
   3  76  72  99
   3  76  56  41
   3  76  56  72
   3  77  71  98
   3  77  71  57
   3  77  98  71
   3  77  98  59
   3  77  59  98
   4  77  59  81  71
   3  77  42  57
   4  77  42  80  59
   3  77  57  42
   3  77  57  71
   3  78  62  45
   3  78  62  38
   3  78  45  54
   3  78  45  62
   3  78  54  53
   3  78  54  45
   3  78  53  38
   3  78  53  54
   3  78  38  53
   3  78  38  62
   3  79  80  59
   4  79  80  42  41
   3  79  59  80
   4  79  59  76  41
   3  80  59  79
   4  80  59  77  42
   3  80  79  59
   4  80  79  41  42
   3  81  71  60
   3  81  71  98
   3  81  60  67
   3  81  60  71
   3  81  67 100
   3  81  67  60
   3  81 100  67
   3  81 100  59
   3  81  59  98
   3  81  59 100
   3  81  98  71
   3  81  98  59
   3  82  68  61
   3  82  68 101
   3  82  61  72
   3  82  61  68
   3  82  72  99
   3  82  72  61
   3  82  99  72
   3  82  99  59
   3  82  59 101
   3  82  59  99
   3  82 101  68
   3  82 101  59
   3  83  55  58
   3  83  55  46
   3  83  58  64
   3  83  58  55
   3  83  64  63
   3  83  64  58
   3  83  63  46
   3  83  63  64
   3  83  46  63
   3  83  46  55
   3  84  22  89
   3  84  22  24
   3  84  89  53
   3  84  89  22
   3  84  53  91
   3  84  53  89
   3  84  91  65
   3  84  91  53
   3  84  65  24
   3  84  65  91
   3  84  24  22
   3  84  24  65
   3  85  66  92
   3  85  66  25
   3  85  92  66
   3  85  92  54
   3  85  54  92
   3  85  54  90
   3  85  90  54
   3  85  90  23
   3  85  23  25
   3  85  23  90
   3  85  25  66
   3  85  25  23
   3  86  87  88
   3  86  87  91
   3  86  88  92
   3  86  88  87
   3  86  92  66
   3  86  92  88
   3  86  66   4
   3  86  66  92
   3  86   4   3
   3  86   4  66
   3  86   3   4
   3  86   3  65
   3  86  65   3
   3  86  65  91
   3  86  91  87
   3  86  91  65
   3  87  53  91
   4  87  53  54  88
   3  87  88  86
   4  87  88  54  53
   3  87  86  88
   3  87  86  91
   3  87  91  86
   3  87  91  53
   3  88  54  92
   4  88  54  53  87
   3  88  92  86
   3  88  92  54
   3  88  86  87
   3  88  86  92
   3  88  87  86
   4  88  87  53  54
   3  89  38  53
   3  89  38  22
   3  89  53  84
   3  89  53  38
   3  89  84  22
   3  89  84  53
   3  89  22  38
   3  89  22  84
   3  90  85  54
   3  90  85  23
   3  90  54  45
   3  90  54  85
   3  90  45  54
   3  90  45  23
   3  90  23  85
   3  90  23  45
   3  91  87  53
   3  91  87  86
   3  91  86  87
   3  91  86  65
   3  91  65  84
   3  91  65  86
   3  91  84  53
   3  91  84  65
   3  91  53  84
   3  91  53  87
   3  92  85  66
   3  92  85  54
   3  92  66  86
   3  92  66  85
   3  92  86  88
   3  92  86  66
   3  92  88  54
   3  92  88  86
   3  92  54  88
   3  92  54  85
   3  93  34  39
   3  93  34   9
   3  93  39  35
   3  93  39  34
   3  93  35  39
   3  93  35   2
   3  93   2  35
   3  93   2   9
   3  93   9  34
   3  93   9   2
   3  94  28  96
   3  94  28  95
   3  94  96  63
   3  94  96  28
   3  94  63  96
   4  94  63  64  95
   3  94  95  28
   4  94  95  64  63
   3  95  28  94
   3  95  28  97
   3  95  94  28
   4  95  94  63  64
   3  95  64  97
   4  95  64  63  94
   3  95  97  28
   3  95  97  64
   3  96  26  63
   3  96  26   0
   3  96  63  26
   3  96  63  94
   3  96  94  28
   3  96  94  63
   3  96  28   0
   3  96  28  94
   3  96   0  26
   3  96   0  28
   3  97  28  95
   3  97  28   1
   3  97  95  28
   3  97  95  64
   3  97  64  95
   3  97  64  27
   3  97  27   1
   3  97  27  64
   3  97   1  28
   3  97   1  27
   3  98  77  71
   3  98  77  59
   3  98  71  81
   3  98  71  77
   3  98  81  71
   3  98  81  59
   3  98  59  81
   3  98  59  77
   3  99  82  72
   3  99  82  59
   3  99  72  76
   3  99  72  82
   3  99  76  59
   3  99  76  72
   3  99  59  82
   3  99  59  76
   3 100  81  67
   3 100  81  59
   3 100  67  75
   3 100  67  81
   3 100  75  59
   3 100  75  67
   3 100  59  81
   3 100  59  75
   3 101  75  68
   3 101  75  59
   3 101  68  82
   3 101  68  75
   3 101  82  68
   3 101  82  59
   3 101  59  75
   3 101  59  82
