 COFF
         109        1060         109
  
  -6.5541799096720998        1.1323823603686756        6.3977087319976151       0.60000002384185791       0.60000002384185791       0.60000002384185791       0.80000001192092896     
  -6.5541799267884322       -1.1323823506726609        6.3977087352554216       0.60000002384185791       0.60000002384185791       0.60000002384185791       0.80000001192092896     
  -2.7993578036137480E-002  -2.0716737343845972        6.1287240300817283       0.60000002384185791       0.60000002384185791       0.60000002384185791       0.80000001192092896     
   7.4189911223988867       -1.0400010783614777        6.4356193130475861       0.60000002384185791       0.60000002384185791       0.60000002384185791       0.80000001192092896     
   7.4189911223999081        1.0400010783622100        6.4356193130462920       0.60000002384185791       0.60000002384185791       0.60000002384185791       0.80000001192092896     
  -2.7993578041444929E-002   2.0716737341522524        6.1287240303196571       0.60000002384185791       0.60000002384185791       0.60000002384185791       0.80000001192092896     
   1.1261076533109236       -1.6878684231548051        6.3419134509295132       0.60000002384185791       0.60000002384185791       0.60000002384185791       0.80000001192092896     
   1.1261076533186483        1.6878684231844960        6.3419134509005364       0.60000002384185791       0.60000002384185791       0.60000002384185791       0.80000001192092896     
  -1.1521477464161178        1.6864183270221382        6.2956095165412167       0.60000002384185791       0.60000002384185791       0.60000002384185791       0.80000001192092896     
  -1.1521477466791403       -1.6864183277287181        6.2956095157824485       0.60000002384185791       0.60000002384185791       0.60000002384185791       0.80000001192092896     
   2.0048261419997790       -1.3243885089770497        6.6558154596959014       0.60000002384185791       0.60000002384185791       0.60000002384185791       0.80000001192092896     
   2.0048261419751938        1.3243885088682577        6.6558154598085357       0.60000002384185791       0.60000002384185791       0.60000002384185791       0.80000001192092896     
  -2.0417316012362323        1.3521298400111617        6.6070142625829300       0.60000002384185791       0.60000002384185791       0.60000002384185791       0.80000001192092896     
  -2.0417316012211972       -1.3521298403595026        6.6070142622372829       0.60000002384185791       0.60000002384185791       0.60000002384185791       0.80000001192092896     
   3.0660720888584270       -1.2433065634602007        6.6591205957434827       0.60000002384185791       0.60000002384185791       0.60000002384185791       0.80000001192092896     
   3.0660720885051207        1.2433065632185265        6.6591205944523324       0.60000002384185791       0.60000002384185791       0.60000002384185791       0.80000001192092896     
  -3.0353399173885713        1.2470668150383253        6.5837074626192651       0.60000002384185791       0.60000002384185791       0.60000002384185791       0.80000001192092896     
  -3.0353399173494089       -1.2470668152657212        6.5837074618647371       0.60000002384185791       0.60000002384185791       0.60000002384185791       0.80000001192092896     
   4.0644635347592057       -1.1922979692695697        6.6619153299628131       0.60000002384185791       0.60000002384185791       0.60000002384185791       0.80000001192092896     
   4.0644635344415043        1.1922979689048929        6.6619153303583616       0.60000002384185791       0.60000002384185791       0.60000002384185791       0.80000001192092896     
  -4.0303447786969402        1.1661121545145003        6.6376135085695669       0.60000002384185791       0.60000002384185791       0.60000002384185791       0.80000001192092896     
  -4.0303447786059587       -1.1661121545602342        6.6376135085292089       0.60000002384185791       0.60000002384185791       0.60000002384185791       0.80000001192092896     
   5.0552108684239405       -1.3621976302604979        6.3615037407084136       0.60000002384185791       0.60000002384185791       0.60000002384185791       0.80000001192092896     
   5.0552108816752410        1.3621976305493844        6.3615037482837504       0.60000002384185791       0.60000002384185791       0.60000002384185791       0.80000001192092896     
   6.1024155599372714       -1.3121698339216048        6.3551113816452895       0.60000002384185791       0.60000002384185791       0.60000002384185791       0.80000001192092896     
   6.1024155599868184        1.3121698339022041        6.3551113816258189       0.60000002384185791       0.60000002384185791       0.60000002384185791       0.80000001192092896     
  -5.0065559223270233        1.2959351380617476        6.3755385331851979       0.60000002384185791       0.60000002384185791       0.60000002384185791       0.80000001192092896     
  -5.0065559224737299       -1.2959351378451427        6.3755385334023291       0.60000002384185791       0.60000002384185791       0.60000002384185791       0.80000001192092896     
  -7.6876879228661776       -2.0211411599774310E-004   6.3449730764662329       0.60000002384185791       0.60000002384185791       0.60000002384185791       0.80000001192092896     
   8.2835811506489687        4.7404136734091999E-013   6.4380109035286877       0.60000002384185791       0.60000002384185791       0.60000002384185791       0.80000001192092896     
  -2.1822887269805031      -0.96156507003490377        4.1261889522328064       0.60000002384185791       0.60000002384185791       0.60000002384185791       0.80000001192092896     
   1.2672582399972316       -1.6396453959092105        5.1954744101234454       0.60000002384185791       0.60000002384185791       0.60000002384185791       0.80000001192092896     
   1.2672581871479252        1.6396453439177470        5.1954744095524896       0.60000002384185791       0.60000002384185791       0.60000002384185791       0.80000001192092896     
  -2.5049636960266111        1.2966034611511024        5.4637784872898179       0.60000002384185791       0.60000002384185791       0.60000002384185791       0.80000001192092896     
  -2.5049636936825430       -1.2966034614068651        5.4637784869850812       0.60000002384185791       0.60000002384185791       0.60000002384185791       0.80000001192092896     
   1.6862694464493479E-002  -1.7891028349752334        4.8181003065682519       0.60000002384185791       0.60000002384185791       0.60000002384185791       0.80000001192092896     
   1.6862893231415030E-002   1.7890944173760139        4.8181003093989467       0.60000002384185791       0.60000002384185791       0.60000002384185791       0.80000001192092896     
   2.5205788895027057        1.2707699346415093        5.4873191449245207       0.60000002384185791       0.60000002384185791       0.60000002384185791       0.80000001192092896     
   4.1098130743512309       -1.2185835366607876        5.8024366548584085       0.60000002384185791       0.60000002384185791       0.60000002384185791       0.80000001192092896     
  -1.0352907867352639       -1.6024630504804742        4.4016421752858692       0.60000002384185791       0.60000002384185791       0.60000002384185791       0.80000001192092896     
  -1.0352909520296714        1.6024622341575305        4.4016422817806449       0.60000002384185791       0.60000002384185791       0.60000002384185791       0.80000001192092896     
  -1.5961790605163704      -0.99154917357276262        2.6486693088600073       0.60000002384185791       0.60000002384185791       0.60000002384185791       0.80000001192092896     
  -1.5961793600759278       0.99154872448670661        2.6486689235886121       0.60000002384185791       0.60000002384185791       0.60000002384185791       0.80000001192092896     
   1.1222155766120285        1.5885650425254481        4.0110994698389213       0.60000002384185791       0.60000002384185791       0.60000002384185791       0.80000001192092896     
   1.1222153304822562       -1.5885661645184579        4.0110994322941149       0.60000002384185791       0.60000002384185791       0.60000002384185791       0.80000001192092896     
   4.1098130810072444        1.2185835516855941        5.8024366416137836       0.60000002384185791       0.60000002384185791       0.60000002384185791       0.80000001192092896     
  -4.0515674332576221        1.1905528146253934        5.8463901593118432       0.60000002384185791       0.60000002384185791       0.60000002384185791       0.80000001192092896     
   2.4016116557499037        1.8470122874136888E-009   4.4203113313556850       0.60000002384185791       0.60000002384185791       0.60000002384185791       0.80000001192092896     
   1.5855725899853130        1.2014604222630583        3.6049039274054309       0.60000002384185791       0.60000002384185791       0.60000002384185791       0.80000001192092896     
   1.5855726584160028       -1.2014604241713343        3.6049039222664558       0.60000002384185791       0.60000002384185791       0.60000002384185791       0.80000001192092896     
  0.12032543051894858        1.6626118568230805        3.7458248171481268       0.60000002384185791       0.60000002384185791       0.60000002384185791       0.80000001192092896     
  0.12030151669484701       -1.6625557270385454        3.7458248123260214       0.60000002384185791       0.60000002384185791       0.60000002384185791       0.80000001192092896     
   1.8607096234157383       -2.2882265761069411E-008   3.2962399238667439       0.60000002384185791       0.60000002384185791       0.60000002384185791       0.80000001192092896     
   5.1849389883232204      -0.75062867099816311        4.0352256057235740        1.0000000000000000        1.0000000000000000        0.0000000000000000        1.0000000000000000     
   5.1849389889929354       0.75062867645142428        4.0352256057235740        1.0000000000000000        1.0000000000000000        0.0000000000000000        1.0000000000000000     
  -3.3114713237453741       -5.9018807517226389E-010   4.9030088546027777       0.60000002384185791       0.60000002384185791       0.60000002384185791       0.80000001192092896     
 -0.80010901056748973       -1.4668881089513561        3.5132698954514847       0.60000002384185791       0.60000002384185791       0.60000002384185791       0.80000001192092896     
 -0.80010899366681620        1.4668857197616978        3.5132703497043263       0.60000002384185791       0.60000002384185791       0.60000002384185791       0.80000001192092896     
  -4.0515674333890264       -1.1905528151233644        5.8463901597530468       0.60000002384185791       0.60000002384185791       0.60000002384185791       0.80000001192092896     
  0.14947837232956437       -2.2371080589648670E-008   1.0535609148389919        1.0000000000000000        1.0000000000000000        0.0000000000000000        1.0000000000000000     
   1.0178755553180538        1.4594244518310084        3.0121141717760613       0.60000002384185791       0.60000002384185791       0.60000002384185791       0.80000001192092896     
   1.0178453521504887       -1.4593648767767915        3.0121141328441565       0.60000002384185791       0.60000002384185791       0.60000002384185791       0.80000001192092896     
   3.1761300471918048        1.3090049969002010E-008   4.7501346369110244       0.60000002384185791       0.60000002384185791       0.60000002384185791       0.80000001192092896     
  -5.0545536425413804       0.81553532706680087        4.6069091304059731        1.0000000000000000        1.0000000000000000        0.0000000000000000        1.0000000000000000     
  -5.0545536428632030      -0.81553532550348851        4.6069091304059739        1.0000000000000000        1.0000000000000000        0.0000000000000000        1.0000000000000000     
   6.7354297485103904       -1.1735930310116756        5.7666059133224881       0.60000002384185791       0.60000002384185791       0.60000002384185791       0.80000001192092896     
   6.7354297488064043        1.1735930308647344        5.7666059138841055       0.60000002384185791       0.60000002384185791       0.60000002384185791       0.80000001192092896     
   1.3964330593946661        1.0021867102785376        2.6274219767080349       0.60000002384185791       0.60000002384185791       0.60000002384185791       0.80000001192092896     
   1.3964312933073193       -1.0021868795967739        2.6274219710222630       0.60000002384185791       0.60000002384185791       0.60000002384185791       0.80000001192092896     
   2.5205788911277072       -1.2707699308288234        5.4873191461751505       0.60000002384185791       0.60000002384185791       0.60000002384185791       0.80000001192092896     
   1.7643730627435572        1.4555281857451026        4.6109098650580966       0.60000002384185791       0.60000002384185791       0.60000002384185791       0.80000001192092896     
  0.23482352925544822        1.5202662589355398        2.7384776064822001       0.60000002384185791       0.60000002384185791       0.60000002384185791       0.80000001192092896     
  0.23482414528750473       -1.5202687178739636        2.7384774900124249       0.60000002384185791       0.60000002384185791       0.60000002384185791       0.80000001192092896     
   1.7643730071388501       -1.4555282023133536        4.6109098942922273       0.60000002384185791       0.60000002384185791       0.60000002384185791       0.80000001192092896     
  -1.2492155729263146        1.6553916108350371        5.3496081566993636       0.60000002384185791       0.60000002384185791       0.60000002384185791       0.80000001192092896     
   1.5628871362302763       -6.7016321926293633E-007   2.4171012531655571       0.60000002384185791       0.60000002384185791       0.60000002384185791       0.80000001192092896     
 -0.44857066657736716       -1.3441363742143111        2.3618854746616060       0.60000002384185791       0.60000002384185791       0.60000002384185791       0.80000001192092896     
 -0.44857077907451620        1.3441356309510304        2.3618855461721768       0.60000002384185791       0.60000002384185791       0.60000002384185791       0.80000001192092896     
   4.1370609818495243        6.6406808460586221E-008   5.6125700812281671       0.60000002384185791       0.60000002384185791       0.60000002384185791       0.80000001192092896     
  -1.4318214482326588      -0.77645670774457476        1.7775899736692669       0.60000002384185791       0.60000002384185791       0.60000002384185791       0.80000001192092896     
  -1.4318215563912691       0.77645656756772463        1.7775899138919153       0.60000002384185791       0.60000002384185791       0.60000002384185791       0.80000001192092896     
  0.85501480449036027        1.1921888186829230        2.0946447719802594       0.60000002384185791       0.60000002384185791       0.60000002384185791       0.80000001192092896     
  0.85501447582601220       -1.1921891577621231        2.0946447113676969       0.60000002384185791       0.60000002384185791       0.60000002384185791       0.80000001192092896     
  -4.0516817650176575        7.3860963791378002E-010   5.5793053673090078       0.60000002384185791       0.60000002384185791       0.60000002384185791       0.80000001192092896     
   5.8563843543817375       -1.2325409894254011        5.3922288073099605       0.60000002384185791       0.60000002384185791       0.60000002384185791       0.80000001192092896     
   5.8563843552568056        1.2325409891779298        5.3922288065748232       0.60000002384185791       0.60000002384185791       0.60000002384185791       0.80000001192092896     
   7.0235518838208524        1.1197115531976074E-012   5.5644107242943166       0.60000002384185791       0.60000002384185791       0.60000002384185791       0.80000001192092896     
   6.3749129997772593      -0.49538671513561811        4.6653120318545716       0.60000002384185791       0.60000002384185791       0.60000002384185791       0.80000001192092896     
   6.3749130000931729       0.49538671471509416        4.6653120316308989       0.60000002384185791       0.60000002384185791       0.60000002384185791       0.80000001192092896     
   5.1011237594761640       -1.2552237355069882        5.3445564045546643       0.60000002384185791       0.60000002384185791       0.60000002384185791       0.80000001192092896     
   5.1011237669298746        1.2552237403462527        5.3445564080034309       0.60000002384185791       0.60000002384185791       0.60000002384185791       0.80000001192092896     
   6.2839111314339453      -0.95251829431089696        4.9670157789788858       0.60000002384185791       0.60000002384185791       0.60000002384185791       0.80000001192092896     
   6.2839111315251994       0.95251829462665649        4.9670157786809970       0.60000002384185791       0.60000002384185791       0.60000002384185791       0.80000001192092896     
  -1.2492155215902669       -1.6553916497558210        5.3496081536832341       0.60000002384185791       0.60000002384185791       0.60000002384185791       0.80000001192092896     
  -6.1999579272476968       0.54082868151406938        5.3417882329381801       0.60000002384185791       0.60000002384185791       0.60000002384185791       0.80000001192092896     
  -6.1999579477168201      -0.54082861971618290        5.3417882862513588       0.60000002384185791       0.60000002384185791       0.60000002384185791       0.80000001192092896     
  -6.0728550425091754       0.95555904352423915        5.6068180865872286       0.60000002384185791       0.60000002384185791       0.60000002384185791       0.80000001192092896     
  -6.0728550523743001      -0.95555896045821764        5.6068180699574199       0.60000002384185791       0.60000002384185791       0.60000002384185791       0.80000001192092896     
  0.13391155661478771        1.1362567164272377        1.8895186318986812       0.60000002384185791       0.60000002384185791       0.60000002384185791       0.80000001192092896     
  0.13391191227331289       -1.1362570071774736        1.8895185269020831       0.60000002384185791       0.60000002384185791       0.60000002384185791       0.80000001192092896     
   1.1063732754241420       0.67452840383848678        1.8541481552411487       0.60000002384185791       0.60000002384185791       0.60000002384185791       0.80000001192092896     
   1.1063733474142805      -0.67452837194783399        1.8541481377254507       0.60000002384185791       0.60000002384185791       0.60000002384185791       0.80000001192092896     
  -2.1822890939121642       0.96156483899939760        4.1261888619982132       0.60000002384185791       0.60000002384185791       0.60000002384185791       0.80000001192092896     
  -6.8754754174673547       0.61369798614295523        5.9428870528589011       0.60000002384185791       0.60000002384185791       0.60000002384185791       0.80000001192092896     
  -6.8754754363716000      -0.61369782529892103        5.9428871199416733       0.60000002384185791       0.60000002384185791       0.60000002384185791       0.80000001192092896     
   4.5556041386998647      -0.97994496000232356        4.9774289017676576       0.60000002384185791       0.60000002384185791       0.60000002384185791       0.80000001192092896     
   4.5556041349181031       0.97994499381522915        4.9774288978624348       0.60000002384185791       0.60000002384185791       0.60000002384185791       0.80000001192092896     
   4.6183272588451869      -0.36075583522397286        4.8025397065673392       0.60000002384185791       0.60000002384185791       0.60000002384185791       0.80000001192092896     
   4.6183272589080016       0.36075589661458995        4.8025397065673392       0.60000002384185791       0.60000002384185791       0.60000002384185791       0.80000001192092896     
  
   3   0  26  96
   3   0  96  26
   3   0  96 103
   3   0 103  96
   3   0 103  28
   3   0  28 103
   4   0  28  94  96
   3   1  28 104
   4   1  28  95  97
   3   1 104  97
   3   1 104  28
   3   1  97 104
   3   1  97  27
   3   1  27  97
   3   2  35  93
   3   2  35  31
   3   2  31  35
   3   2  31   6
   3   2   6  31
   3   2   9  93
   3   2  93  35
   3   2  93   9
   3   3  29  86
   3   3  24  65
   3   3  65  24
   3   3  65  86
   3   3  86  29
   3   3  86  65
   3   4  29  86
   3   4  86  66
   3   4  86  29
   3   4  66  86
   3   4  66  25
   3   4  25  66
   3   5   7  32
   3   5  32  36
   3   5  32   7
   3   5  36  32
   3   5  36  74
   3   5  74  36
   3   5  74   8
   3   5   8  74
   3   6   2  31
   3   6  31   2
   3   6  31  69
   3   6  69  10
   3   6  69  31
   3   6  10  69
   3   7  11  37
   3   7  37  32
   3   7  37  11
   3   7  32  37
   3   7  32   5
   3   7   5  32
   3   8   5  74
   3   8  74   5
   3   8  74  33
   3   8  33  12
   3   8  33  74
   3   8  12  33
   3   9  13  34
   3   9  34  93
   3   9  34  13
   3   9  93  34
   3   9  93   2
   3   9   2  93
   3  10   6  69
   3  10  69  14
   3  10  69   6
   3  10  14  69
   3  11  15  37
   3  11  37   7
   3  11  37  15
   3  11   7  37
   3  12   8  33
   3  12  33  16
   3  12  33   8
   3  12  16  33
   3  13  17  34
   3  13  34   9
   3  13  34  17
   3  13   9  34
   3  14  10  69
   3  14  69  38
   3  14  69  10
   3  14  38  18
   3  14  38  69
   3  14  18  38
   3  15  19  45
   3  15  45  37
   3  15  45  19
   3  15  37  45
   3  15  37  11
   3  15  11  37
   3  16  12  33
   3  16  33  46
   3  16  33  12
   3  16  46  20
   3  16  46  33
   3  16  20  46
   3  17  21  58
   3  17  58  34
   3  17  58  21
   3  17  34  58
   3  17  34  13
   3  17  13  34
   3  18  14  38
   3  18  38  22
   3  18  38  14
   3  18  22  38
   3  19  23  45
   3  19  45  15
   3  19  45  23
   3  19  15  45
   3  20  16  46
   3  20  46  26
   3  20  46  16
   3  20  26  46
   3  21  27  58
   3  21  58  17
   3  21  58  27
   3  21  17  58
   3  22  18  38
   3  22  38  89
   3  22  38  18
   3  22  89  38
   3  22  89  84
   3  22  84  89
   3  22  84  24
   3  22  24  84
   3  23  25  85
   3  23  85  90
   3  23  85  25
   3  23  90  85
   3  23  90  45
   3  23  45  19
   3  23  45  90
   3  23  19  45
   3  24  22  84
   3  24  84  22
   3  24  84  65
   3  24  65   3
   3  24  65  84
   3  24   3  65
   3  25   4  66
   3  25  66   4
   3  25  66  85
   3  25  85  66
   3  25  85  23
   3  25  23  85
   3  26  20  46
   3  26  46  63
   3  26  46  20
   3  26  63  96
   3  26  63  46
   3  26  96  63
   3  26  96   0
   3  26   0  96
   3  27   1  97
   3  27  97  64
   3  27  97   1
   3  27  64  97
   3  27  64  58
   3  27  58  64
   3  27  58  21
   3  27  21  58
   3  28   0 103
   4  28   0  96  94
   3  28 103   0
   3  28 103  94
   3  28  94 103
   3  28  94  95
   3  28  95  94
   3  28  95 104
   3  28 104  95
   3  28 104   1
   3  28   1 104
   4  28   1  97  95
   3  29   3  86
   3  29  86   4
   3  29  86   3
   3  29   4  86
   3  30  34  55
   3  30  34  39
   3  30  55 102
   3  30  55  34
   3  30 102  55
   4  30 102  42  41
   3  30  41  56
   4  30  41  42 102
   3  30  56  39
   3  30  56  41
   3  30  39  34
   3  30  39  56
   3  31   2  35
   3  31   2   6
   3  31  35  44
   3  31  35   2
   3  31  44  73
   3  31  44  35
   3  31  73  69
   3  31  73  44
   3  31  69   6
   3  31  69  73
   3  31   6   2
   3  31   6  69
   3  32  37  70
   3  32  37   7
   3  32  70  37
   3  32  70  43
   3  32  43  36
   3  32  43  70
   3  32  36  43
   3  32  36   5
   3  32   5   7
   3  32   5  36
   3  32   7  37
   3  32   7   5
   3  33  46  16
   3  33  46  55
   3  33  16  12
   3  33  16  46
   3  33  12   8
   3  33  12  16
   3  33   8  74
   3  33   8  12
   3  33  74  40
   3  33  74   8
   3  33  40 102
   3  33  40  74
   3  33 102  40
   3  33 102  55
   3  33  55 102
   3  33  55  46
   3  34  58  55
   3  34  58  17
   3  34  55  30
   3  34  55  58
   3  34  30  55
   3  34  30  39
   3  34  39  93
   3  34  39  30
   3  34  93  39
   3  34  93   9
   3  34   9  13
   3  34   9  93
   3  34  13  17
   3  34  13   9
   3  34  17  58
   3  34  17  13
   3  35  93  39
   3  35  93   2
   3  35  39  93
   3  35  39  51
   3  35  51  44
   3  35  51  39
   3  35  44  31
   3  35  44  51
   3  35  31   2
   3  35  31  44
   3  35   2  31
   3  35   2  93
   3  36  32  43
   3  36  32   5
   3  36  43  32
   3  36  43  50
   3  36  50  40
   3  36  50  43
   3  36  40  74
   3  36  40  50
   3  36  74   5
   3  36  74  40
   3  36   5  32
   3  36   5  74
   3  37  45  62
   3  37  45  15
   3  37  62  47
   3  37  62  45
   3  37  47  62
   3  37  47  70
   3  37  70  47
   3  37  70  32
   3  37  32  70
   3  37  32   7
   3  37   7  11
   3  37   7  32
   3  37  11  15
   3  37  11   7
   3  37  15  45
   3  37  15  11
   3  38 105  78
   3  38 105  89
   3  38  89 105
   3  38  89  22
   3  38  22  18
   3  38  22  89
   3  38  18  14
   3  38  18  22
   3  38  14  69
   3  38  14  18
   3  38  69  14
   3  38  69  62
   3  38  62  78
   3  38  62  69
   3  38  78  62
   3  38  78 105
   3  39  35  93
   3  39  35  51
   3  39  93  34
   3  39  93  35
   3  39  34  30
   3  39  34  93
   3  39  30  34
   3  39  30  56
   3  39  56  51
   3  39  56  30
   3  39  51  35
   3  39  51  56
   3  40 102  33
   3  40 102  57
   3  40  33  74
   3  40  33 102
   3  40  74  36
   3  40  74  33
   3  40  36  50
   3  40  36  74
   3  40  50  36
   3  40  50  57
   3  40  57 102
   3  40  57  50
   3  41  76  56
   4  41  76  59  79
   3  41  56  30
   3  41  56  76
   3  41  30  56
   4  41  30 102  42
   3  42 102  57
   4  42 102  30  41
   3  42  57 102
   3  42  57  77
   3  42  77  57
   4  42  77  59  80
   3  43  36  32
   3  43  36  50
   3  43  32  70
   3  43  32  36
   3  43  70  48
   3  43  70  32
   3  43  48  70
   3  43  48  60
   3  43  60  48
   3  43  60  50
   3  43  50  36
   3  43  50  60
   3  44  73  49
   3  44  73  31
   3  44  31  35
   3  44  31  73
   3  44  35  51
   3  44  35  31
   3  44  51  35
   3  44  51  61
   3  44  61  51
   3  44  61  49
   3  44  49  73
   3  44  49  61
   3  45 106  90
   3  45 106  78
   3  45  78  62
   3  45  78 106
   3  45  62  37
   3  45  62  78
   3  45  37  62
   3  45  37  15
   3  45  15  19
   3  45  15  37
   3  45  19  23
   3  45  19  15
   3  45  23  90
   3  45  23  19
   3  45  90 106
   3  45  90  23
   3  46  63  26
   3  46  63  83
   3  46  26  20
   3  46  26  63
   3  46  20  16
   3  46  20  26
   3  46  16  33
   3  46  16  20
   3  46  33  16
   3  46  33  55
   3  46  55  83
   3  46  55  33
   3  46  83  55
   3  46  83  63
   3  47  37  62
   3  47  37  70
   3  47  62  37
   3  47  62  69
   3  47  69  73
   3  47  69  62
   3  47  73  49
   3  47  73  69
   3  47  49  73
   3  47  49  52
   3  47  52  48
   3  47  52  49
   3  47  48  70
   3  47  48  52
   3  47  70  37
   3  47  70  48
   3  48  43  70
   3  48  43  60
   3  48  70  47
   3  48  70  43
   3  48  47  52
   3  48  47  70
   3  48  52  47
   3  48  52  67
   3  48  67  52
   3  48  67  60
   3  48  60  67
   3  48  60  43
   3  49  47  73
   3  49  47  52
   3  49  73  47
   3  49  73  44
   3  49  44  73
   3  49  44  61
   3  49  61  68
   3  49  61  44
   3  49  68  61
   3  49  68  52
   3  49  52  47
   3  49  52  68
   3  50  40  36
   3  50  40  57
   3  50  36  43
   3  50  36  40
   3  50  43  36
   3  50  43  60
   3  50  60  71
   3  50  60  43
   3  50  71  60
   3  50  71  57
   3  50  57  40
   3  50  57  71
   3  51  44  35
   3  51  44  61
   3  51  35  39
   3  51  35  44
   3  51  39  35
   3  51  39  56
   3  51  56  39
   3  51  56  72
   3  51  72  56
   3  51  72  61
   3  51  61  72
   3  51  61  44
   3  52  48  47
   3  52  48  67
   3  52  47  49
   3  52  47  48
   3  52  49  47
   3  52  49  68
   3  52  68  75
   3  52  68  49
   3  52  75  68
   3  52  75  67
   3  52  67  75
   3  52  67  48
   3  53  91  87
   3  53  91  84
   3  53  84  89
   3  53  84  91
   3  53  89 105
   3  53  89  84
   3  53 105  89
   4  53 105  78 107
   3  53  87  91
   4  53  87  88  54
   3  54  92  85
   3  54  92  88
   3  54  88  92
   4  54  88  87  53
   3  54 106  90
   4  54 106  78 108
   3  54  90  85
   3  54  90 106
   3  54  85  92
   3  54  85  90
   3  55 102  33
   3  55 102  30
   3  55  30  34
   3  55  30 102
   3  55  34  58
   3  55  34  30
   3  55  58  83
   3  55  58  34
   3  55  83  58
   3  55  83  46
   3  55  46  33
   3  55  46  83
   3  55  33  46
   3  55  33 102
   3  56  51  39
   3  56  51  72
   3  56  39  30
   3  56  39  51
   3  56  30  41
   3  56  30  39
   3  56  41  76
   3  56  41  30
   3  56  76  41
   3  56  76  72
   3  56  72  76
   3  56  72  51
   3  57  42 102
   3  57  42  77
   3  57 102  40
   3  57 102  42
   3  57  40 102
   3  57  40  50
   3  57  50  40
   3  57  50  71
   3  57  71  77
   3  57  71  50
   3  57  77  71
   3  57  77  42
   3  58  64  83
   3  58  64  27
   3  58  83  55
   3  58  83  64
   3  58  55  34
   3  58  55  83
   3  58  34  55
   3  58  34  17
   3  58  17  21
   3  58  17  34
   3  58  21  27
   3  58  21  17
   3  58  27  64
   3  58  27  21
   3  59  98  77
   3  59  98  81
   3  59  81 100
   3  59  81  98
   3  59 100  81
   3  59 100  75
   3  59  75 101
   3  59  75 100
   3  59 101  75
   3  59 101  82
   3  59  82  99
   3  59  82 101
   3  59  99  82
   3  59  99  76
   3  59  76  99
   4  59  76  41  79
   3  59  79  80
   4  59  79  41  76
   3  59  80  79
   4  59  80  42  77
   3  59  77  98
   4  59  77  71  81
   3  60  48  43
   3  60  48  67
   3  60  67  81
   3  60  67  48
   3  60  81  71
   3  60  81  67
   3  60  71  81
   3  60  71  50
   3  60  50  43
   3  60  50  71
   3  60  43  48
   3  60  43  50
   3  61  51  44
   3  61  51  72
   3  61  72  82
   3  61  72  51
   3  61  82  68
   3  61  82  72
   3  61  68  82
   3  61  68  49
   3  61  49  44
   3  61  49  68
   3  61  44  51
   3  61  44  49
   3  62  47  37
   3  62  47  69
   3  62  37  45
   3  62  37  47
   3  62  45  78
   3  62  45  37
   3  62  78  45
   3  62  78  38
   3  62  38  69
   3  62  38  78
   3  62  69  38
   3  62  69  47
   3  63  96  26
   3  63  96  94
   3  63  26  46
   3  63  26  96
   3  63  46  26
   3  63  46  83
   3  63  83  64
   3  63  83  46
   3  63  64  83
   4  63  64  95  94
   3  63  94  96
   4  63  94  95  64
   3  64  97  95
   3  64  97  27
   3  64  95  97
   4  64  95  94  63
   3  64  63  83
   4  64  63  94  95
   3  64  83  58
   3  64  83  63
   3  64  58  83
   3  64  58  27
   3  64  27  97
   3  64  27  58
   3  65   3  24
   3  65   3  86
   3  65  24  84
   3  65  24   3
   3  65  84  91
   3  65  84  24
   3  65  91  86
   3  65  91  84
   3  65  86   3
   3  65  86  91
   3  66   4  86
   3  66   4  25
   3  66  86  92
   3  66  86   4
   3  66  92  85
   3  66  92  86
   3  66  85  92
   3  66  85  25
   3  66  25   4
   3  66  25  85
   3  67  52  48
   3  67  52  75
   3  67  75 100
   3  67  75  52
   3  67 100  81
   3  67 100  75
   3  67  81  60
   3  67  81 100
   3  67  60  48
   3  67  60  81
   3  67  48  52
   3  67  48  60
   3  68  61  82
   3  68  61  49
   3  68  82  61
   3  68  82 101
   3  68 101  75
   3  68 101  82
   3  68  75 101
   3  68  75  52
   3  68  52  49
   3  68  52  75
   3  68  49  61
   3  68  49  52
   3  69  38  14
   3  69  38  62
   3  69  14  10
   3  69  14  38
   3  69  10   6
   3  69  10  14
   3  69   6  31
   3  69   6  10
   3  69  31  73
   3  69  31   6
   3  69  73  47
   3  69  73  31
   3  69  47  62
   3  69  47  73
   3  69  62  47
   3  69  62  38
   3  70  37  47
   3  70  37  32
   3  70  47  37
   3  70  47  48
   3  70  48  43
   3  70  48  47
   3  70  43  32
   3  70  43  48
   3  70  32  37
   3  70  32  43
   3  71  60  81
   3  71  60  50
   3  71  81  60
   3  71  81  98
   3  71  98  77
   3  71  98  81
   3  71  77  98
   3  71  77  57
   3  71  57  50
   3  71  57  77
   3  71  50  60
   3  71  50  57
   3  72  56  51
   3  72  56  76
   3  72  76  99
   3  72  76  56
   3  72  99  82
   3  72  99  76
   3  72  82  61
   3  72  82  99
   3  72  61  51
   3  72  61  82
   3  72  51  56
   3  72  51  61
   3  73  49  47
   3  73  49  44
   3  73  47  69
   3  73  47  49
   3  73  69  31
   3  73  69  47
   3  73  31  44
   3  73  31  69
   3  73  44  31
   3  73  44  49
   3  74   5  36
   3  74   5   8
   3  74  36  40
   3  74  36   5
   3  74  40  33
   3  74  40  36
   3  74  33   8
   3  74  33  40
   3  74   8   5
   3  74   8  33
   3  75  68 101
   3  75  68  52
   3  75 101  68
   3  75 101  59
   3  75  59 100
   3  75  59 101
   3  75 100  67
   3  75 100  59
   3  75  67  52
   3  75  67 100
   3  75  52  68
   3  75  52  67
   3  76  41  56
   4  76  41  79  59
   3  76  59  99
   4  76  59  82  72
   3  76  99  72
   3  76  99  59
   3  76  72  56
   3  76  72  99
   3  76  56  41
   3  76  56  72
   3  77  71  98
   3  77  71  57
   3  77  98  71
   3  77  98  59
   3  77  59  98
   4  77  59  81  71
   3  77  42  57
   4  77  42  80  59
   3  77  57  42
   3  77  57  71
   3  78  62  45
   3  78  62  38
   3  78  45 106
   3  78  45  62
   3  78 106  45
   4  78 106  54 108
   3  78 108 107
   4  78 108  54 106
   3  78 107 108
   4  78 107  53 105
   3  78 105  38
   4  78 105  53 107
   3  78  38 105
   3  78  38  62
   3  79  80  59
   4  79  80  42  41
   3  79  59  80
   4  79  59  76  41
   3  80  59  79
   4  80  59  77  42
   3  80  79  59
   4  80  79  41  42
   3  81  71  60
   3  81  71  98
   3  81  60  67
   3  81  60  71
   3  81  67 100
   3  81  67  60
   3  81 100  67
   3  81 100  59
   3  81  59  98
   3  81  59 100
   3  81  98  71
   3  81  98  59
   3  82  68  61
   3  82  68 101
   3  82  61  72
   3  82  61  68
   3  82  72  99
   3  82  72  61
   3  82  99  72
   3  82  99  59
   3  82  59 101
   3  82  59  99
   3  82 101  68
   3  82 101  59
   3  83  55  58
   3  83  55  46
   3  83  58  64
   3  83  58  55
   3  83  64  63
   3  83  64  58
   3  83  63  46
   3  83  63  64
   3  83  46  63
   3  83  46  55
   3  84  22  89
   3  84  22  24
   3  84  89  53
   3  84  89  22
   3  84  53  91
   3  84  53  89
   3  84  91  65
   3  84  91  53
   3  84  65  24
   3  84  65  91
   3  84  24  22
   3  84  24  65
   3  85  66  92
   3  85  66  25
   3  85  92  66
   3  85  92  54
   3  85  54  92
   3  85  54  90
   3  85  90  54
   3  85  90  23
   3  85  23  25
   3  85  23  90
   3  85  25  66
   3  85  25  23
   3  86  87  88
   3  86  87  91
   3  86  88  92
   3  86  88  87
   3  86  92  66
   3  86  92  88
   3  86  66   4
   3  86  66  92
   3  86   4  29
   3  86   4  66
   3  86  29   3
   3  86  29   4
   3  86   3  29
   3  86   3  65
   3  86  65   3
   3  86  65  91
   3  86  91  87
   3  86  91  65
   3  87  53  91
   4  87  53  54  88
   3  87  88  86
   4  87  88  54  53
   3  87  86  88
   3  87  86  91
   3  87  91  86
   3  87  91  53
   3  88  54  92
   4  88  54  53  87
   3  88  92  86
   3  88  92  54
   3  88  86  87
   3  88  86  92
   3  88  87  86
   4  88  87  53  54
   3  89  38 105
   3  89  38  22
   3  89 105  53
   3  89 105  38
   3  89  53  84
   3  89  53 105
   3  89  84  22
   3  89  84  53
   3  89  22  38
   3  89  22  84
   3  90  85  54
   3  90  85  23
   3  90  54 106
   3  90  54  85
   3  90 106  54
   3  90 106  45
   3  90  45 106
   3  90  45  23
   3  90  23  85
   3  90  23  45
   3  91  87  53
   3  91  87  86
   3  91  86  87
   3  91  86  65
   3  91  65  84
   3  91  65  86
   3  91  84  53
   3  91  84  65
   3  91  53  84
   3  91  53  87
   3  92  85  66
   3  92  85  54
   3  92  66  86
   3  92  66  85
   3  92  86  88
   3  92  86  66
   3  92  88  54
   3  92  88  86
   3  92  54  88
   3  92  54  85
   3  93  34  39
   3  93  34   9
   3  93  39  35
   3  93  39  34
   3  93  35  39
   3  93  35   2
   3  93   2  35
   3  93   2   9
   3  93   9  34
   3  93   9   2
   3  94  28 103
   3  94  28  95
   3  94 103  96
   3  94 103  28
   3  94  96  63
   3  94  96 103
   3  94  63  96
   4  94  63  64  95
   3  94  95  28
   4  94  95  64  63
   3  95  28  94
   3  95  28 104
   3  95  94  28
   4  95  94  63  64
   3  95  64  97
   4  95  64  63  94
   3  95  97 104
   3  95  97  64
   3  95 104  97
   3  95 104  28
   3  96  26  63
   3  96  26   0
   3  96  63  26
   3  96  63  94
   3  96  94 103
   3  96  94  63
   3  96 103   0
   3  96 103  94
   3  96   0  26
   3  96   0 103
   3  97 104  95
   3  97 104   1
   3  97  95  64
   3  97  95 104
   3  97  64  95
   3  97  64  27
   3  97  27   1
   3  97  27  64
   3  97   1 104
   3  97   1  27
   3  98  77  71
   3  98  77  59
   3  98  71  81
   3  98  71  77
   3  98  81  71
   3  98  81  59
   3  98  59  81
   3  98  59  77
   3  99  82  72
   3  99  82  59
   3  99  72  76
   3  99  72  82
   3  99  76  59
   3  99  76  72
   3  99  59  82
   3  99  59  76
   3 100  81  67
   3 100  81  59
   3 100  67  75
   3 100  67  81
   3 100  75  59
   3 100  75  67
   3 100  59  81
   3 100  59  75
   3 101  75  68
   3 101  75  59
   3 101  68  82
   3 101  68  75
   3 101  82  68
   3 101  82  59
   3 101  59  75
   3 101  59  82
   3 102  33  40
   3 102  33  55
   3 102  40  33
   3 102  40  57
   3 102  57  42
   3 102  57  40
   3 102  42  57
   4 102  42  41  30
   3 102  30  55
   4 102  30  41  42
   3 102  55  30
   3 102  55  33
   3 103   0  96
   3 103   0  28
   3 103  96  94
   3 103  96   0
   3 103  94  28
   3 103  94  96
   3 103  28   0
   3 103  28  94
   3 104  95  28
   3 104  95  97
   3 104  97  95
   3 104  97   1
   3 104   1  28
   3 104   1  97
   3 104  28  95
   3 104  28   1
   3 105  78  38
   4 105  78 107  53
   3 105  53  89
   4 105  53 107  78
   3 105  89  38
   3 105  89  53
   3 105  38  89
   3 105  38  78
   3 106  90  54
   3 106  90  45
   3 106  54  90
   4 106  54 108  78
   3 106  78  45
   4 106  78 108  54
   3 106  45  78
   3 106  45  90
   3 107  78 108
   4 107  78 105  53
   3 107 108  78
   4 107 108  54  53
   3 108 107  78
   4 108 107  53  54
   3 108  78 107
   4 108  78 106  54
