 COFF
         128        1288         128
  
  -6.6306245241235864        1.2974375065020163        7.0728095183650446       0.60000002384185791       0.60000002384185791       0.60000002384185791       0.80000001192092896     
  -6.6306245693120864       -1.2974374842777661        7.0728095248324339       0.60000002384185791       0.60000002384185791       0.60000002384185791       0.80000001192092896     
  -2.8366593930117430E-002  -2.1565992608893847        6.8406117142973839       0.60000002384185791       0.60000002384185791       0.60000002384185791       0.80000001192092896     
   7.4816186814876744       -1.1544019653653288        7.1125104870863725       0.60000002384185791       0.60000002384185791       0.60000002384185791       0.80000001192092896     
   7.4816186898080437        1.1544019614189380        7.1125104865885875       0.60000002384185791       0.60000002384185791       0.60000002384185791       0.80000001192092896     
  -2.8366593960189215E-002   2.1565992577956314        6.8406117174651060       0.60000002384185791       0.60000002384185791       0.60000002384185791       0.80000001192092896     
   1.1527364930071609       -1.7658306826882300        7.0624436650099049       0.60000002384185791       0.60000002384185791       0.60000002384185791       0.80000001192092896     
   1.1527364925502022        1.7658306808287503        7.0624436670128752       0.60000002384185791       0.60000002384185791       0.60000002384185791       0.80000001192092896     
  -1.1687269421047985        1.7691892238590807        7.0110670357765388       0.60000002384185791       0.60000002384185791       0.60000002384185791       0.80000001192092896     
  -1.1687269430237035       -1.7691892261886382        7.0110670332021385       0.60000002384185791       0.60000002384185791       0.60000002384185791       0.80000001192092896     
   2.0251816345276805       -1.4020811847804489        7.3900258022582852       0.60000002384185791       0.60000002384185791       0.60000002384185791       0.80000001192092896     
   2.0251816338062287        1.4020811825336714        7.3900258045890261       0.60000002384185791       0.60000002384185791       0.60000002384185791       0.80000001192092896     
  -2.0512644833631275        1.4324674955449070        7.3393851466287554       0.60000002384185791       0.60000002384185791       0.60000002384185791       0.80000001192092896     
  -2.0512644834774432       -1.4324674969053606        7.3393851452293033       0.60000002384185791       0.60000002384185791       0.60000002384185791       0.80000001192092896     
   3.0646071491911009       -1.3472252977073511        7.3685355098382432       0.60000002384185791       0.60000002384185791       0.60000002384185791       0.80000001192092896     
   3.0646071490142912        1.3472252907760529        7.3685355157461618       0.60000002384185791       0.60000002384185791       0.60000002384185791       0.80000001192092896     
  -3.0463152723925937        1.3629875886552782        7.2771799087726015       0.60000002384185791       0.60000002384185791       0.60000002384185791       0.80000001192092896     
  -3.0463152724437652       -1.3629875894772041        7.2771799070074543       0.60000002384185791       0.60000002384185791       0.60000002384185791       0.80000001192092896     
   4.0633799659501353       -1.3044537399352176        7.3624505157277866       0.60000002384185791       0.60000002384185791       0.60000002384185791       0.80000001192092896     
   4.0633799657772363        1.3044537325923213        7.3624505232005797       0.60000002384185791       0.60000002384185791       0.60000002384185791       0.80000001192092896     
  -4.0430601979044729        1.2976976005960283        7.3184811996152748       0.60000002384185791       0.60000002384185791       0.60000002384185791       0.80000001192092896     
  -4.0430601978390879       -1.2976976007252630        7.3184811995110550       0.60000002384185791       0.60000002384185791       0.60000002384185791       0.80000001192092896     
   5.0438578900454409       -1.5232791649670503        7.0003956812081825       0.60000002384185791       0.60000002384185791       0.60000002384185791       0.80000001192092896     
   5.0438579027884778        1.5232791721079622        7.0003956817641129       0.60000002384185791       0.60000002384185791       0.60000002384185791       0.80000001192092896     
   6.1221823418462709       -1.4596118369090627        7.0076438567552586       0.60000002384185791       0.60000002384185791       0.60000002384185791       0.80000001192092896     
   6.1221823430379505        1.4596118417876482        7.0076438516679938       0.60000002384185791       0.60000002384185791       0.60000002384185791       0.80000001192092896     
  -5.0009713943938143        1.4942771378223270        6.9787312684597476       0.60000002384185791       0.60000002384185791       0.60000002384185791       0.80000001192092896     
  -5.0009713949766592       -1.4942771400149002        6.9787312663141332       0.60000002384185791       0.60000002384185791       0.60000002384185791       0.80000001192092896     
  -7.9288269354442606        6.4134254140834464E-009   6.9624398072011786       0.60000002384185791       0.60000002384185791       0.60000002384185791       0.80000001192092896     
   8.6360866617988279        3.6699128011142920E-009   7.1264236384715325       0.60000002384185791       0.60000002384185791       0.60000002384185791       0.80000001192092896     
  -2.2447084201431244       -1.0233646691312241        4.7040712351389402       0.60000002384185791       0.60000002384185791       0.60000002384185791       0.80000001192092896     
   1.3031812178160942       -1.7205835066279407        5.8758507452777815       0.60000002384185791       0.60000002384185791       0.60000002384185791       0.80000001192092896     
   1.3031811332873424        1.7205834369256681        5.8758507473579318       0.60000002384185791       0.60000002384185791       0.60000002384185791       0.80000001192092896     
  -2.5527921435591474        1.3969760685364301        6.1346322002133347       0.60000002384185791       0.60000002384185791       0.60000002384185791       0.80000001192092896     
  -2.5527921420978101       -1.3969760937967424        6.1346321941785789       0.60000002384185791       0.60000002384185791       0.60000002384185791       0.80000001192092896     
   2.0561614031934131E-002  -1.8723152988246761        5.4693228755840808       0.60000002384185791       0.60000002384185791       0.60000002384185791       0.80000001192092896     
   2.0561713437924498E-002   1.8723090315884474        5.4693228849412687       0.60000002384185791       0.60000002384185791       0.60000002384185791       0.80000001192092896     
   2.5667786956610690        1.3571864261050370        6.1735929130753275       0.60000002384185791       0.60000002384185791       0.60000002384185791       0.80000001192092896     
   4.1079381404215907       -1.3147158427573311        6.4073915852114345       0.60000002384185791       0.60000002384185791       0.60000002384185791       0.80000001192092896     
  -1.1224328973463704       -1.6884812018920803        5.0509342500634187       0.60000002384185791       0.60000002384185791       0.60000002384185791       0.80000001192092896     
  -1.1224329907270700        1.6884803561812152        5.0509343523537638       0.60000002384185791       0.60000002384185791       0.60000002384185791       0.80000001192092896     
  -1.6473308724842364      -0.89955393905619996        3.1726857196866849       0.60000002384185791       0.60000002384185791       0.60000002384185791       0.80000001192092896     
  -1.6473308308342707       0.89955342518652204        3.1726853812180478       0.60000002384185791       0.60000002384185791       0.60000002384185791       0.80000001192092896     
   1.1663832175605833        1.6703318157834870        4.6537379353128214       0.60000002384185791       0.60000002384185791       0.60000002384185791       0.80000001192092896     
   1.1663833436329307       -1.6703327858516153        4.6537379093795357       0.60000002384185791       0.60000002384185791       0.60000002384185791       0.80000001192092896     
   4.1079381486310709        1.3147156724687290        6.4073915989832635       0.60000002384185791       0.60000002384185791       0.60000002384185791       0.80000001192092896     
  -4.0777461825623362        1.3143431435813855        6.3859614697460758       0.60000002384185791       0.60000002384185791       0.60000002384185791       0.80000001192092896     
   2.4967163712589002       -6.5272799822046321E-009   5.0455242906750959       0.60000002384185791       0.60000002384185791       0.60000002384185791       0.80000001192092896     
   1.6483380534101508        1.2668568854536149        4.2083476603954688       0.60000002384185791       0.60000002384185791       0.60000002384185791       0.80000001192092896     
   1.6483382496483292       -1.2668571650124150        4.2083476483961073       0.60000002384185791       0.60000002384185791       0.60000002384185791       0.80000001192092896     
  0.12114196509858251        1.7464474922975015        4.3384233538551449       0.60000002384185791       0.60000002384185791       0.60000002384185791       0.80000001192092896     
  0.12117447383142392       -1.7465130121495231        4.3384233308108122       0.60000002384185791       0.60000002384185791       0.60000002384185791       0.80000001192092896     
   1.9336649906006320       -4.7041939733395731E-008   3.8385859811919429       0.60000002384185791       0.60000002384185791       0.60000002384185791       0.80000001192092896     
   5.2667332519270937      -0.75077827552023879        4.0352256057235740        1.0000000000000000        1.0000000000000000        0.0000000000000000        1.0000000000000000     
   5.2667332495662889       0.75077806919827950        4.0352256057235740        1.0000000000000000        1.0000000000000000        0.0000000000000000        1.0000000000000000     
  -3.3597063196365933       -1.3074585357079446E-008   5.4160710667020631       0.60000002384185791       0.60000002384185791       0.60000002384185791       0.80000001192092896     
 -0.91360110175868381       -1.5226922625395547        4.0183063386780988       0.60000002384185791       0.60000002384185791       0.60000002384185791       0.80000001192092896     
 -0.91360085100331800        1.5226918187393905        4.0183065093416115       0.60000002384185791       0.60000002384185791       0.60000002384185791       0.80000001192092896     
  -4.0777461125368921       -1.3143431635387108        6.3859614708152179       0.60000002384185791       0.60000002384185791       0.60000002384185791       0.80000001192092896     
  0.18623318646676373       -1.2315695528634432E-007   1.0535609148389919        1.0000000000000000        1.0000000000000000        0.0000000000000000        1.0000000000000000     
   1.0531259533617097        1.5353509260039808        3.5954547554086709       0.60000002384185791       0.60000002384185791       0.60000002384185791       0.80000001192092896     
   1.0531737575797002       -1.5354155121301891        3.5954547146596108       0.60000002384185791       0.60000002384185791       0.60000002384185791       0.80000001192092896     
   3.1951586669434713       -5.3599334179901551E-009   5.3167162648688278       0.60000002384185791       0.60000002384185791       0.60000002384185791       0.80000001192092896     
  -5.0857070981913317       0.81555462656371902        4.6069091304059731        1.0000000000000000        1.0000000000000000        0.0000000000000000        1.0000000000000000     
  -5.0857070202574830      -0.81555464334290650        4.6069091304059739        1.0000000000000000        1.0000000000000000        0.0000000000000000        1.0000000000000000     
   6.7748213302421858       -1.2879915686794876        6.4461544458892162       0.60000002384185791       0.60000002384185791       0.60000002384185791       0.80000001192092896     
   6.7748213214004362        1.2879915789126406        6.4461544221841125       0.60000002384185791       0.60000002384185791       0.60000002384185791       0.80000001192092896     
   1.4528944657440552        1.0753433523591580        3.1615633687472688       0.60000002384185791       0.60000002384185791       0.60000002384185791       0.80000001192092896     
   1.4529488373357113       -1.0754094100491061        3.1615634068650147       0.60000002384185791       0.60000002384185791       0.60000002384185791       0.80000001192092896     
   2.5667786972038824       -1.3571864428764226        6.1735929089133652       0.60000002384185791       0.60000002384185791       0.60000002384185791       0.80000001192092896     
   1.8129750699294283        1.5330465538743532        5.2478631709046084       0.60000002384185791       0.60000002384185791       0.60000002384185791       0.80000001192092896     
  0.22336737815473748        1.6021969877633786        3.2695165979646332       0.60000002384185791       0.60000002384185791       0.60000002384185791       0.80000001192092896     
  0.22340374841244268       -1.6022300522905815        3.2695164279184779       0.60000002384185791       0.60000002384185791       0.60000002384185791       0.80000001192092896     
   1.8129751098749189       -1.5330465915692550        5.2478631782143799       0.60000002384185791       0.60000002384185791       0.60000002384185791       0.80000001192092896     
  -1.2757914370274717        1.7434162118913905        6.0366186296036322       0.60000002384185791       0.60000002384185791       0.60000002384185791       0.80000001192092896     
   1.6243335453268395        4.0597622933769689E-005   2.8708098541082703       0.60000002384185791       0.60000002384185791       0.60000002384185791       0.80000001192092896     
 -0.56606127964071751       -1.3829208507897484        2.8131181640032645        1.0000000000000000       0.10000000149011612        0.0000000000000000       0.50000000000000000     
 -0.56606145211349890        1.3829212092001835        2.8131182710679554        1.0000000000000000       0.10000000149011612        0.0000000000000000       0.50000000000000000     
   4.1191087339438877       -4.6709521778610243E-008   6.2206020495675185       0.60000002384185791       0.60000002384185791       0.60000002384185791       0.80000001192092896     
  -1.7338211929823375      -0.53709119616711698        2.2992287160687006        1.0000000000000000       0.10000000149011612        0.0000000000000000       0.50000000000000000     
  -1.7338213399384004       0.53709081374874401        2.2992287180121460        1.0000000000000000       0.10000000149011612        0.0000000000000000       0.50000000000000000     
  0.95124864703782952        1.3789593702786467        2.5989921438447698        1.0000000000000000       0.10000000149011612        0.0000000000000000       0.50000000000000000     
  0.95131170695211453       -1.3790477502484118        2.5989920262572319        1.0000000000000000       0.10000000149011612        0.0000000000000000       0.50000000000000000     
  -4.0794175418711784       -5.3963429073594235E-009   6.0959315499671227       0.60000002384185791       0.60000002384185791       0.60000002384185791       0.80000001192092896     
   5.9873864115699558       -1.3645743905538730        5.9039112925836292       0.60000002384185791       0.60000002384185791       0.60000002384185791       0.80000001192092896     
   5.9873863717313176        1.3645743244616568        5.9039112974813657       0.60000002384185791       0.60000002384185791       0.60000002384185791       0.80000001192092896     
   7.3105611116169094       -3.6061847798686936E-009   6.1363595032076805       0.60000002384185791       0.60000002384185791       0.60000002384185791       0.80000001192092896     
   6.7573617154525589      -0.66597061206522490        5.0375936288533918       0.60000002384185791       0.60000002384185791       0.60000002384185791       0.80000001192092896     
   6.7573617148890879       0.66597058836095646        5.0375936380934494       0.60000002384185791       0.60000002384185791       0.60000002384185791       0.80000001192092896     
   5.1712545352185995       -1.3971729459215956        5.8604767646603486       0.60000002384185791       0.60000002384185791       0.60000002384185791       0.80000001192092896     
   5.1712458505499903        1.3970950262573318        5.8604767752251359       0.60000002384185791       0.60000002384185791       0.60000002384185791       0.80000001192092896     
   6.5651606432877507       -1.0081498731498846        5.4867964734741621       0.60000002384185791       0.60000002384185791       0.60000002384185791       0.80000001192092896     
   6.5651606278855086        1.0081498488937837        5.4867964712046726       0.60000002384185791       0.60000002384185791       0.60000002384185791       0.80000001192092896     
  -1.2757914400778743       -1.7434162701531866        6.0366186203342727       0.60000002384185791       0.60000002384185791       0.60000002384185791       0.80000001192092896     
  -6.7637505932957076       0.69439206498976047        5.7634865037637439       0.60000002384185791       0.60000002384185791       0.60000002384185791       0.80000001192092896     
  -6.7637506432665493      -0.69439163677814786        5.7634865714933445       0.60000002384185791       0.60000002384185791       0.60000002384185791       0.80000001192092896     
  -6.3845150082424569        1.0718401057868705        6.1271492951218693       0.60000002384185791       0.60000002384185791       0.60000002384185791       0.80000001192092896     
  -6.3845149708953066       -1.0718400327698805        6.1271493023634518       0.60000002384185791       0.60000002384185791       0.60000002384185791       0.80000001192092896     
  0.23505248550561292        1.4284126259220444        2.3084867498734956        1.0000000000000000       0.10000000149011612        0.0000000000000000       0.50000000000000000     
  0.23505554028701631       -1.4284094019430542        2.3084866192759557        1.0000000000000000       0.10000000149011612        0.0000000000000000       0.50000000000000000     
   1.2773641705382386       0.89490733963441715        2.2767007475253291        1.0000000000000000       0.10000000149011612        0.0000000000000000       0.50000000000000000     
   1.2773659361771337      -0.89490676512508027        2.2767007284462473        1.0000000000000000       0.10000000149011612        0.0000000000000000       0.50000000000000000     
  -2.2447083652113933        1.0233644251912228        4.7040711849975976       0.60000002384185791       0.60000002384185791       0.60000002384185791       0.80000001192092896     
  -7.1897322295258341       0.69329562002180400        6.4986193627126934       0.60000002384185791       0.60000002384185791       0.60000002384185791       0.80000001192092896     
  -7.1897318688091216      -0.69329427872754223        6.4986194184624324       0.60000002384185791       0.60000002384185791       0.60000002384185791       0.80000001192092896     
   4.5443777478782916       -1.0198730458023362        5.6799603322528327       0.60000002384185791       0.60000002384185791       0.60000002384185791       0.80000001192092896     
   4.5445125121712335        1.0196736356699940        5.6799608747408197       0.60000002384185791       0.60000002384185791       0.60000002384185791       0.80000001192092896     
   4.2610015241305605      -0.36908091931111864        4.8975864689243629       0.60000002384185791       0.60000002384185791       0.60000002384185791       0.80000001192092896     
   4.2610010174151469       0.36908097943588775        4.8975859338234944       0.60000002384185791       0.60000002384185791       0.60000002384185791       0.80000001192092896     
 -0.57540250615949207       -1.1076447364606632        2.0943964441986465        1.0000000000000000       0.10000000149011612        0.0000000000000000       0.50000000000000000     
 -0.57540238058823023        1.1076442376609843        2.0943965656888346        1.0000000000000000       0.10000000149011612        0.0000000000000000       0.50000000000000000     
  -2.0702999324625200       -2.3665115895598119E-007   3.2473954374727207       0.60000002384185791       0.60000002384185791       0.60000002384185791       0.80000001192092896     
   1.4002674340377128        2.2914543640990584E-004   2.0541601658349604        1.0000000000000000       0.10000000149011612        0.0000000000000000       0.50000000000000000     
  -1.2637286443415472      -0.41568735390709843        1.5012943976048114        1.0000000000000000       0.10000000149011612        0.0000000000000000       0.50000000000000000     
  -1.2637287658995531       0.41568712761186910        1.5012943579596512        1.0000000000000000       0.10000000149011612        0.0000000000000000       0.50000000000000000     
  -5.0683264639292593        1.3104012175326176        5.9360644721342180       0.60000002384185791       0.60000002384185791       0.60000002384185791       0.80000001192092896     
  -5.0683580836615008       -1.3104855445001955        5.9360642484110349       0.60000002384185791       0.60000002384185791       0.60000002384185791       0.80000001192092896     
  0.70626253932971694       0.98073924106922106        1.8076415191539028        1.0000000000000000       0.10000000149011612        0.0000000000000000       0.50000000000000000     
  0.70626342647831308      -0.98073907875155097        1.8076414083522943        1.0000000000000000       0.10000000149011612        0.0000000000000000       0.50000000000000000     
  -2.3988155146107739       -1.2303797716035151E-007   4.6409306255202658       0.60000002384185791       0.60000002384185791       0.60000002384185791       0.80000001192092896     
  -4.5227570986590466       0.98772646022563215        5.5341828731554399       0.60000002384185791       0.60000002384185791       0.60000002384185791       0.80000001192092896     
  -4.5227551477045171      -0.98772841502021380        5.5341828688639314       0.60000002384185791       0.60000002384185791       0.60000002384185791       0.80000001192092896     
   5.6924798490565456       -1.1115461145431977        4.9873040800137423       0.60000002384185791       0.60000002384185791       0.60000002384185791       0.80000001192092896     
   5.6924800685918076        1.1115460855386532        4.9873038651040194       0.60000002384185791       0.60000002384185791       0.60000002384185791       0.80000001192092896     
  -5.9512320206359641       0.76185464213351939        5.1710796641427477       0.60000002384185791       0.60000002384185791       0.60000002384185791       0.80000001192092896     
  -5.9512318840427785      -0.76185464197990582        5.1710796734060214       0.60000002384185791       0.60000002384185791       0.60000002384185791       0.80000001192092896     
  -5.7483862155576810       0.94672444313662196        5.3660968398211413       0.60000002384185791       0.60000002384185791       0.60000002384185791       0.80000001192092896     
  -5.7483861601682635      -0.94672455029963032        5.3660968036156573       0.60000002384185791       0.60000002384185791       0.60000002384185791       0.80000001192092896     
  
   3   0  26  96
   3   0  96  26
   3   0  96 103
   3   0 103  96
   3   0 103  28
   3   0  28 103
   4   0  28  94  96
   3   1  28 104
   4   1  28  95  97
   3   1 104  97
   3   1 104  28
   3   1  97 104
   3   1  97  27
   3   1  27  97
   3   2  35  93
   3   2  35  31
   3   2  31  35
   3   2  31   6
   3   2   6  31
   3   2   9  93
   3   2  93  35
   3   2  93   9
   3   3  29  86
   3   3  24  65
   3   3  65  24
   3   3  65  86
   3   3  86  29
   3   3  86  65
   3   4  29  86
   3   4  86  66
   3   4  86  29
   3   4  66  86
   3   4  66  25
   3   4  25  66
   3   5   7  32
   3   5  32  36
   3   5  32   7
   3   5  36  32
   3   5  36  74
   3   5  74  36
   3   5  74   8
   3   5   8  74
   3   6   2  31
   3   6  31   2
   3   6  31  69
   3   6  69  10
   3   6  69  31
   3   6  10  69
   3   7  11  37
   3   7  37  32
   3   7  37  11
   3   7  32  37
   3   7  32   5
   3   7   5  32
   3   8   5  74
   3   8  74   5
   3   8  74  33
   3   8  33  12
   3   8  33  74
   3   8  12  33
   3   9  13  34
   3   9  34  93
   3   9  34  13
   3   9  93  34
   3   9  93   2
   3   9   2  93
   3  10   6  69
   3  10  69  14
   3  10  69   6
   3  10  14  69
   3  11  15  37
   3  11  37   7
   3  11  37  15
   3  11   7  37
   3  12   8  33
   3  12  33  16
   3  12  33   8
   3  12  16  33
   3  13  17  34
   3  13  34   9
   3  13  34  17
   3  13   9  34
   3  14  10  69
   3  14  69  38
   3  14  69  10
   3  14  38  18
   3  14  38  69
   3  14  18  38
   3  15  19  45
   3  15  45  37
   3  15  45  19
   3  15  37  45
   3  15  37  11
   3  15  11  37
   3  16  12  33
   3  16  33  46
   3  16  33  12
   3  16  46  20
   3  16  46  33
   3  16  20  46
   3  17  21  58
   3  17  58  34
   3  17  58  21
   3  17  34  58
   3  17  34  13
   3  17  13  34
   3  18  14  38
   3  18  38  22
   3  18  38  14
   3  18  22  38
   3  19  23  45
   3  19  45  15
   3  19  45  23
   3  19  15  45
   3  20  16  46
   3  20  46  26
   3  20  46  16
   3  20  26  46
   3  21  27  58
   3  21  58  17
   3  21  58  27
   3  21  17  58
   3  22  18  38
   3  22  38  89
   3  22  38  18
   3  22  89  38
   3  22  89  84
   3  22  84  89
   3  22  84  24
   3  22  24  84
   3  23  25  85
   3  23  85  90
   3  23  85  25
   3  23  90  85
   3  23  90  45
   3  23  45  19
   3  23  45  90
   3  23  19  45
   3  24  22  84
   3  24  84  22
   3  24  84  65
   3  24  65   3
   3  24  65  84
   3  24   3  65
   3  25   4  66
   3  25  66   4
   3  25  66  85
   3  25  85  66
   3  25  85  23
   3  25  23  85
   3  26  20  46
   3  26  46 115
   3  26  46  20
   3  26 115  46
   3  26 115  96
   3  26  96 115
   3  26  96   0
   3  26   0  96
   3  27   1  97
   3  27  97 116
   3  27  97   1
   3  27 116  97
   3  27 116  58
   3  27  58  21
   3  27  58 116
   3  27  21  58
   3  28   0 103
   4  28   0  96  94
   3  28 103   0
   3  28 103  94
   3  28  94 103
   3  28  94  95
   3  28  95  94
   3  28  95 104
   3  28 104  95
   3  28 104   1
   3  28   1 104
   4  28   1  97  95
   3  29   3  86
   3  29  86   4
   3  29  86   3
   3  29   4  86
   3  30  34  55
   3  30  34  39
   3  30  55 119
   3  30  55  34
   3  30 119  55
   3  30 119 111
   3  30 111 119
   3  30 111  41
   3  30  41  56
   3  30  41 111
   3  30  56  39
   3  30  56  41
   3  30  39  34
   3  30  39  56
   3  31   2  35
   3  31   2   6
   3  31  35  44
   3  31  35   2
   3  31  44  73
   3  31  44  35
   3  31  73  69
   3  31  73  44
   3  31  69   6
   3  31  69  73
   3  31   6   2
   3  31   6  69
   3  32  37  70
   3  32  37   7
   3  32  70  37
   3  32  70  43
   3  32  43  36
   3  32  43  70
   3  32  36  43
   3  32  36   5
   3  32   5   7
   3  32   5  36
   3  32   7  37
   3  32   7   5
   3  33  46  16
   3  33  46  55
   3  33  16  12
   3  33  16  46
   3  33  12   8
   3  33  12  16
   3  33   8  74
   3  33   8  12
   3  33  74  40
   3  33  74   8
   3  33  40 102
   3  33  40  74
   3  33 102  40
   3  33 102  55
   3  33  55 102
   3  33  55  46
   3  34  58  55
   3  34  58  17
   3  34  55  30
   3  34  55  58
   3  34  30  55
   3  34  30  39
   3  34  39  93
   3  34  39  30
   3  34  93  39
   3  34  93   9
   3  34   9  13
   3  34   9  93
   3  34  13  17
   3  34  13   9
   3  34  17  58
   3  34  17  13
   3  35  93  39
   3  35  93   2
   3  35  39  93
   3  35  39  51
   3  35  51  44
   3  35  51  39
   3  35  44  31
   3  35  44  51
   3  35  31   2
   3  35  31  44
   3  35   2  31
   3  35   2  93
   3  36  32  43
   3  36  32   5
   3  36  43  32
   3  36  43  50
   3  36  50  40
   3  36  50  43
   3  36  40  74
   3  36  40  50
   3  36  74   5
   3  36  74  40
   3  36   5  32
   3  36   5  74
   3  37  45  62
   3  37  45  15
   3  37  62  47
   3  37  62  45
   3  37  47  62
   3  37  47  70
   3  37  70  47
   3  37  70  32
   3  37  32  70
   3  37  32   7
   3  37   7  11
   3  37   7  32
   3  37  11  15
   3  37  11   7
   3  37  15  45
   3  37  15  11
   3  38 105  78
   3  38 105  89
   3  38  89 105
   3  38  89  22
   3  38  22  18
   3  38  22  89
   3  38  18  14
   3  38  18  22
   3  38  14  69
   3  38  14  18
   3  38  69  14
   3  38  69  62
   3  38  62  78
   3  38  62  69
   3  38  78  62
   3  38  78 105
   3  39  35  93
   3  39  35  51
   3  39  93  34
   3  39  93  35
   3  39  34  30
   3  39  34  93
   3  39  30  34
   3  39  30  56
   3  39  56  51
   3  39  56  30
   3  39  51  35
   3  39  51  56
   3  40 102  33
   3  40 102  57
   3  40  33  74
   3  40  33 102
   3  40  74  36
   3  40  74  33
   3  40  36  50
   3  40  36  74
   3  40  50  36
   3  40  50  57
   3  40  57 102
   3  40  57  50
   3  41  79 111
   3  41  79 109
   3  41 109  76
   3  41 109  79
   3  41  76 109
   3  41  76  56
   3  41  56  30
   3  41  56  76
   3  41  30 111
   3  41  30  56
   3  41 111  30
   3  41 111  79
   3  42  80 110
   3  42  80 111
   3  42 111 102
   3  42 111  80
   3  42 102  57
   3  42 102 111
   3  42  57 102
   3  42  57  77
   3  42  77 110
   3  42  77  57
   3  42 110  80
   3  42 110  77
   3  43  36  32
   3  43  36  50
   3  43  32  70
   3  43  32  36
   3  43  70  48
   3  43  70  32
   3  43  48  70
   3  43  48  60
   3  43  60  48
   3  43  60  50
   3  43  50  36
   3  43  50  60
   3  44  73  49
   3  44  73  31
   3  44  31  35
   3  44  31  73
   3  44  35  51
   3  44  35  31
   3  44  51  35
   3  44  51  61
   3  44  61  51
   3  44  61  49
   3  44  49  73
   3  44  49  61
   3  45 106  90
   3  45 106  78
   3  45  78  62
   3  45  78 106
   3  45  62  37
   3  45  62  78
   3  45  37  62
   3  45  37  15
   3  45  15  19
   3  45  15  37
   3  45  19  23
   3  45  19  15
   3  45  23  90
   3  45  23  19
   3  45  90 106
   3  45  90  23
   3  46 120  83
   3  46 120 115
   3  46 115 120
   3  46 115  26
   3  46  26  20
   3  46  26 115
   3  46  20  16
   3  46  20  26
   3  46  16  33
   3  46  16  20
   3  46  33  16
   3  46  33  55
   3  46  55  83
   3  46  55  33
   3  46  83  55
   3  46  83 120
   3  47  37  62
   3  47  37  70
   3  47  62  37
   3  47  62  69
   3  47  69  73
   3  47  69  62
   3  47  73  49
   3  47  73  69
   3  47  49  73
   3  47  49  52
   3  47  52  48
   3  47  52  49
   3  47  48  70
   3  47  48  52
   3  47  70  37
   3  47  70  48
   3  48  43  70
   3  48  43  60
   3  48  70  47
   3  48  70  43
   3  48  47  52
   3  48  47  70
   3  48  52  47
   3  48  52  67
   3  48  67  52
   3  48  67  60
   3  48  60  67
   3  48  60  43
   3  49  47  73
   3  49  47  52
   3  49  73  47
   3  49  73  44
   3  49  44  73
   3  49  44  61
   3  49  61  68
   3  49  61  44
   3  49  68  61
   3  49  68  52
   3  49  52  47
   3  49  52  68
   3  50  40  36
   3  50  40  57
   3  50  36  43
   3  50  36  40
   3  50  43  36
   3  50  43  60
   3  50  60  71
   3  50  60  43
   3  50  71  60
   3  50  71  57
   3  50  57  40
   3  50  57  71
   3  51  44  35
   3  51  44  61
   3  51  35  39
   3  51  35  44
   3  51  39  35
   3  51  39  56
   3  51  56  39
   3  51  56  72
   3  51  72  56
   3  51  72  61
   3  51  61  72
   3  51  61  44
   3  52  48  47
   3  52  48  67
   3  52  47  49
   3  52  47  48
   3  52  49  47
   3  52  49  68
   3  52  68  75
   3  52  68  49
   3  52  75  68
   3  52  75  67
   3  52  67  75
   3  52  67  48
   3  53  91  87
   3  53  91 122
   3  53 122  91
   3  53 122  89
   3  53  89 105
   3  53  89 122
   3  53 105  89
   4  53 105  78 107
   3  53  87  91
   4  53  87  88  54
   3  54  92  88
   3  54  92 123
   3  54  88  92
   4  54  88  87  53
   3  54 106  90
   4  54 106  78 108
   3  54  90 123
   3  54  90 106
   3  54 123  90
   3  54 123  92
   3  55 102  33
   3  55 102 119
   3  55 119 102
   3  55 119  30
   3  55  30  34
   3  55  30 119
   3  55  34  58
   3  55  34  30
   3  55  58  83
   3  55  58  34
   3  55  83  58
   3  55  83  46
   3  55  46  33
   3  55  46  83
   3  55  33  46
   3  55  33 102
   3  56  51  39
   3  56  51  72
   3  56  39  30
   3  56  39  51
   3  56  30  41
   3  56  30  39
   3  56  41  76
   3  56  41  30
   3  56  76  41
   3  56  76  72
   3  56  72  76
   3  56  72  51
   3  57  42 102
   3  57  42  77
   3  57 102  40
   3  57 102  42
   3  57  40 102
   3  57  40  50
   3  57  50  40
   3  57  50  71
   3  57  71  77
   3  57  71  50
   3  57  77  71
   3  57  77  42
   3  58 121 116
   3  58 121  83
   3  58  83  55
   3  58  83 121
   3  58  55  34
   3  58  55  83
   3  58  34  55
   3  58  34  17
   3  58  17  21
   3  58  17  34
   3  58  21  27
   3  58  21  17
   3  58  27 116
   3  58  27  21
   3  58 116 121
   3  58 116  27
   3  59  98 117
   3  59  98 110
   3  59 117  98
   3  59 117 100
   3  59 100 112
   3  59 100 117
   3  59 112 100
   3  59 112 101
   3  59 101 118
   3  59 101 112
   3  59 118 101
   3  59 118  99
   3  59  99 109
   3  59  99 118
   3  59 109  99
   4  59 109  79 113
   3  59 113 114
   4  59 113  79 109
   3  59 114 113
   4  59 114  80 110
   3  59 110  98
   4  59 110  80 114
   3  60  48  43
   3  60  48  67
   3  60  67  81
   3  60  67  48
   3  60  81  71
   3  60  81  67
   3  60  71  81
   3  60  71  50
   3  60  50  43
   3  60  50  71
   3  60  43  48
   3  60  43  50
   3  61  51  44
   3  61  51  72
   3  61  72  82
   3  61  72  51
   3  61  82  68
   3  61  82  72
   3  61  68  82
   3  61  68  49
   3  61  49  44
   3  61  49  68
   3  61  44  51
   3  61  44  49
   3  62  47  37
   3  62  47  69
   3  62  37  45
   3  62  37  47
   3  62  45  78
   3  62  45  37
   3  62  78  45
   3  62  78  38
   3  62  38  69
   3  62  38  78
   3  62  69  38
   3  62  69  47
   3  63 126 124
   3  63 126 115
   3  63 115 120
   3  63 115 126
   3  63 120  83
   3  63 120 115
   3  63  83  64
   3  63  83 120
   3  63  64  83
   4  63  64 125 124
   3  63 124 126
   4  63 124 125  64
   3  64 127 116
   3  64 127 125
   3  64 125 127
   4  64 125 124  63
   3  64  63  83
   4  64  63 124 125
   3  64  83 121
   3  64  83  63
   3  64 121 116
   3  64 121  83
   3  64 116 127
   3  64 116 121
   3  65   3  24
   3  65   3  86
   3  65  24  84
   3  65  24   3
   3  65  84  91
   3  65  84  24
   3  65  91  86
   3  65  91  84
   3  65  86   3
   3  65  86  91
   3  66   4  86
   3  66   4  25
   3  66  86  92
   3  66  86   4
   3  66  92  85
   3  66  92  86
   3  66  85  92
   3  66  85  25
   3  66  25   4
   3  66  25  85
   3  67  52  48
   3  67  52  75
   3  67  75 100
   3  67  75  52
   3  67 100  81
   3  67 100  75
   3  67  81  60
   3  67  81 100
   3  67  60  48
   3  67  60  81
   3  67  48  52
   3  67  48  60
   3  68  61  82
   3  68  61  49
   3  68  82  61
   3  68  82 101
   3  68 101  75
   3  68 101  82
   3  68  75 101
   3  68  75  52
   3  68  52  49
   3  68  52  75
   3  68  49  61
   3  68  49  52
   3  69  38  14
   3  69  38  62
   3  69  14  10
   3  69  14  38
   3  69  10   6
   3  69  10  14
   3  69   6  31
   3  69   6  10
   3  69  31  73
   3  69  31   6
   3  69  73  47
   3  69  73  31
   3  69  47  62
   3  69  47  73
   3  69  62  47
   3  69  62  38
   3  70  37  47
   3  70  37  32
   3  70  47  37
   3  70  47  48
   3  70  48  43
   3  70  48  47
   3  70  43  32
   3  70  43  48
   3  70  32  37
   3  70  32  43
   3  71  60  81
   3  71  60  50
   3  71  81  60
   3  71  81  98
   3  71  98  77
   3  71  98  81
   3  71  77  98
   3  71  77  57
   3  71  57  50
   3  71  57  77
   3  71  50  60
   3  71  50  57
   3  72  56  51
   3  72  56  76
   3  72  76  99
   3  72  76  56
   3  72  99  82
   3  72  99  76
   3  72  82  61
   3  72  82  99
   3  72  61  51
   3  72  61  82
   3  72  51  56
   3  72  51  61
   3  73  49  47
   3  73  49  44
   3  73  47  69
   3  73  47  49
   3  73  69  31
   3  73  69  47
   3  73  31  44
   3  73  31  69
   3  73  44  31
   3  73  44  49
   3  74   5  36
   3  74   5   8
   3  74  36  40
   3  74  36   5
   3  74  40  33
   3  74  40  36
   3  74  33   8
   3  74  33  40
   3  74   8   5
   3  74   8  33
   3  75  68 101
   3  75  68  52
   3  75 101  68
   3  75 101 112
   3  75 112 100
   3  75 112 101
   3  75 100  67
   3  75 100 112
   3  75  67  52
   3  75  67 100
   3  75  52  68
   3  75  52  67
   3  76  41 109
   3  76  41  56
   3  76 109  99
   3  76 109  41
   3  76  99  72
   3  76  99 109
   3  76  72  56
   3  76  72  99
   3  76  56  41
   3  76  56  72
   3  77  71  98
   3  77  71  57
   3  77  98  71
   3  77  98 110
   3  77 110  42
   3  77 110  98
   3  77  42  57
   3  77  42 110
   3  77  57  42
   3  77  57  71
   3  78  62  45
   3  78  62  38
   3  78  45 106
   3  78  45  62
   3  78 106  45
   4  78 106  54 108
   3  78 108 107
   4  78 108  54 106
   3  78 107 108
   4  78 107  53 105
   3  78 105  38
   4  78 105  53 107
   3  78  38 105
   3  78  38  62
   3  79  41 109
   3  79  41 111
   3  79 111  80
   3  79 111  41
   3  79  80 111
   4  79  80 114 113
   3  79 109  41
   4  79 109  59 113
   3  80  42 111
   3  80  42 110
   3  80 110  42
   4  80 110  59 114
   3  80  79 111
   4  80  79 113 114
   3  80 111  42
   3  80 111  79
   3  81  71  60
   3  81  71  98
   3  81  60  67
   3  81  60  71
   3  81  67 100
   3  81  67  60
   3  81 100  67
   3  81 100 117
   3  81 117  98
   3  81 117 100
   3  81  98  71
   3  81  98 117
   3  82  68  61
   3  82  68 101
   3  82  61  72
   3  82  61  68
   3  82  72  99
   3  82  72  61
   3  82  99  72
   3  82  99 118
   3  82 118 101
   3  82 118  99
   3  82 101  68
   3  82 101 118
   3  83  55  58
   3  83  55  46
   3  83  58 121
   3  83  58  55
   3  83 121  64
   3  83 121  58
   3  83  64  63
   3  83  64 121
   3  83  63 120
   3  83  63  64
   3  83 120  63
   3  83 120  46
   3  83  46 120
   3  83  46  55
   3  84  22  89
   3  84  22  24
   3  84  89 122
   3  84  89  22
   3  84 122  91
   3  84 122  89
   3  84  91  65
   3  84  91 122
   3  84  65  24
   3  84  65  91
   3  84  24  22
   3  84  24  65
   3  85  66  92
   3  85  66  25
   3  85  92  66
   3  85  92 123
   3  85 123  90
   3  85 123  92
   3  85  90 123
   3  85  90  23
   3  85  23  25
   3  85  23  90
   3  85  25  66
   3  85  25  23
   3  86  87  88
   3  86  87  91
   3  86  88  92
   3  86  88  87
   3  86  92  66
   3  86  92  88
   3  86  66   4
   3  86  66  92
   3  86   4  29
   3  86   4  66
   3  86  29   3
   3  86  29   4
   3  86   3  29
   3  86   3  65
   3  86  65   3
   3  86  65  91
   3  86  91  87
   3  86  91  65
   3  87  53  91
   4  87  53  54  88
   3  87  88  86
   4  87  88  54  53
   3  87  86  88
   3  87  86  91
   3  87  91  86
   3  87  91  53
   3  88  54  92
   4  88  54  53  87
   3  88  92  86
   3  88  92  54
   3  88  86  87
   3  88  86  92
   3  88  87  86
   4  88  87  53  54
   3  89  38 105
   3  89  38  22
   3  89 105  53
   3  89 105  38
   3  89  53 122
   3  89  53 105
   3  89 122  84
   3  89 122  53
   3  89  84  22
   3  89  84 122
   3  89  22  38
   3  89  22  84
   3  90  85 123
   3  90  85  23
   3  90 123  85
   3  90 123  54
   3  90  54 106
   3  90  54 123
   3  90 106  54
   3  90 106  45
   3  90  45 106
   3  90  45  23
   3  90  23  85
   3  90  23  45
   3  91  87  53
   3  91  87  86
   3  91  86  87
   3  91  86  65
   3  91  65  84
   3  91  65  86
   3  91  84 122
   3  91  84  65
   3  91 122  84
   3  91 122  53
   3  91  53 122
   3  91  53  87
   3  92  85  66
   3  92  85 123
   3  92  66  86
   3  92  66  85
   3  92  86  88
   3  92  86  66
   3  92  88  54
   3  92  88  86
   3  92  54  88
   3  92  54 123
   3  92 123  85
   3  92 123  54
   3  93  34  39
   3  93  34   9
   3  93  39  35
   3  93  39  34
   3  93  35  39
   3  93  35   2
   3  93   2  35
   3  93   2   9
   3  93   9  34
   3  93   9   2
   3  94  28 103
   3  94  28  95
   3  94 103  96
   3  94 103  28
   3  94  96 126
   3  94  96 103
   3  94 126 124
   3  94 126  96
   3  94 124 126
   4  94 124 125  95
   3  94  95  28
   4  94  95 125 124
   3  95  28  94
   3  95  28 104
   3  95  94  28
   4  95  94 124 125
   3  95 125 127
   4  95 125 124  94
   3  95 127  97
   3  95 127 125
   3  95  97 104
   3  95  97 127
   3  95 104  97
   3  95 104  28
   3  96  26 115
   3  96  26   0
   3  96 115 126
   3  96 115  26
   3  96 126  94
   3  96 126 115
   3  96  94 103
   3  96  94 126
   3  96 103   0
   3  96 103  94
   3  96   0  26
   3  96   0 103
   3  97 104  95
   3  97 104   1
   3  97  95 127
   3  97  95 104
   3  97 127 116
   3  97 127  95
   3  97 116 127
   3  97 116  27
   3  97  27   1
   3  97  27 116
   3  97   1 104
   3  97   1  27
   3  98  77  71
   3  98  77 110
   3  98  71  81
   3  98  71  77
   3  98  81  71
   3  98  81 117
   3  98 117  81
   3  98 117  59
   3  98  59 117
   3  98  59 110
   3  98 110  77
   3  98 110  59
   3  99  82  72
   3  99  82 118
   3  99  72  76
   3  99  72  82
   3  99  76 109
   3  99  76  72
   3  99 109  76
   3  99 109  59
   3  99  59 118
   3  99  59 109
   3  99 118  82
   3  99 118  59
   3 100  81  67
   3 100  81 117
   3 100  67  75
   3 100  67  81
   3 100  75 112
   3 100  75  67
   3 100 112  75
   3 100 112  59
   3 100  59 117
   3 100  59 112
   3 100 117  81
   3 100 117  59
   3 101  75  68
   3 101  75 112
   3 101  68  82
   3 101  68  75
   3 101  82  68
   3 101  82 118
   3 101 118  82
   3 101 118  59
   3 101  59 112
   3 101  59 118
   3 101 112  75
   3 101 112  59
   3 102  33  40
   3 102  33  55
   3 102  40  33
   3 102  40  57
   3 102  57  42
   3 102  57  40
   3 102  42 111
   3 102  42  57
   3 102 111 119
   3 102 111  42
   3 102 119  55
   3 102 119 111
   3 102  55 119
   3 102  55  33
   3 103   0  96
   3 103   0  28
   3 103  96  94
   3 103  96   0
   3 103  94  28
   3 103  94  96
   3 103  28   0
   3 103  28  94
   3 104  95  28
   3 104  95  97
   3 104  97  95
   3 104  97   1
   3 104   1  28
   3 104   1  97
   3 104  28  95
   3 104  28   1
   3 105  78  38
   4 105  78 107  53
   3 105  53  89
   4 105  53 107  78
   3 105  89  38
   3 105  89  53
   3 105  38  89
   3 105  38  78
   3 106  90  54
   3 106  90  45
   3 106  54  90
   4 106  54 108  78
   3 106  78  45
   4 106  78 108  54
   3 106  45  78
   3 106  45  90
   3 107  78 108
   4 107  78 105  53
   3 107 108  78
   4 107 108  54  53
   3 108 107  78
   4 108 107  53  54
   3 108  78 107
   4 108  78 106  54
   3 109  99  76
   3 109  99  59
   3 109  76  41
   3 109  76  99
   3 109  41  79
   3 109  41  76
   3 109  79  41
   4 109  79 113  59
   3 109  59  99
   4 109  59 113  79
   3 110  80  42
   4 110  80 114  59
   3 110  42  80
   3 110  42  77
   3 110  77  98
   3 110  77  42
   3 110  98  77
   3 110  98  59
   3 110  59  98
   4 110  59 114  80
   3 111  30 119
   3 111  30  41
   3 111 119 102
   3 111 119  30
   3 111 102  42
   3 111 102 119
   3 111  42  80
   3 111  42 102
   3 111  80  42
   3 111  80  79
   3 111  79  41
   3 111  79  80
   3 111  41  79
   3 111  41  30
   3 112 100  75
   3 112 100  59
   3 112  75 101
   3 112  75 100
   3 112 101  75
   3 112 101  59
   3 112  59 100
   3 112  59 101
   3 113  59 114
   4 113  59 109  79
   3 113 114  59
   4 113 114  80  79
   3 114  59 113
   4 114  59 110  80
   3 114 113  59
   4 114 113  79  80
   3 115  46 120
   3 115  46  26
   3 115 120  63
   3 115 120  46
   3 115  63 126
   3 115  63 120
   3 115 126  96
   3 115 126  63
   3 115  96  26
   3 115  96 126
   3 115  26  46
   3 115  26  96
   3 116  97 127
   3 116  97  27
   3 116 127  97
   3 116 127  64
   3 116  64 127
   3 116  64 121
   3 116 121  64
   3 116 121  58
   3 116  58 121
   3 116  58  27
   3 116  27  97
   3 116  27  58
   3 117  98  81
   3 117  98  59
   3 117  81 100
   3 117  81  98
   3 117 100  81
   3 117 100  59
   3 117  59  98
   3 117  59 100
   3 118 101  82
   3 118 101  59
   3 118  82  99
   3 118  82 101
   3 118  99  82
   3 118  99  59
   3 118  59 101
   3 118  59  99
   3 119  55 102
   3 119  55  30
   3 119 102 111
   3 119 102  55
   3 119 111  30
   3 119 111 102
   3 119  30  55
   3 119  30 111
   3 120  83  63
   3 120  83  46
   3 120  63 115
   3 120  63  83
   3 120 115  46
   3 120 115  63
   3 120  46 115
   3 120  46  83
   3 121 116  64
   3 121 116  58
   3 121  64  83
   3 121  64 116
   3 121  83  58
   3 121  83  64
   3 121  58  83
   3 121  58 116
   3 122  91  84
   3 122  91  53
   3 122  84  89
   3 122  84  91
   3 122  89  53
   3 122  89  84
   3 122  53  91
   3 122  53  89
   3 123  90  85
   3 123  90  54
   3 123  85  92
   3 123  85  90
   3 123  92  85
   3 123  92  54
   3 123  54  92
   3 123  54  90
   3 124  63 126
   4 124  63  64 125
   3 124  94 126
   4 124  94  95 125
   3 124 126  94
   3 124 126  63
   3 125  64 127
   4 125  64  63 124
   3 125 127  95
   3 125 127  64
   3 125  95 127
   4 125  95  94 124
   3 126 124  63
   3 126 124  94
   3 126  94  96
   3 126  94 124
   3 126  96 115
   3 126  96  94
   3 126 115  63
   3 126 115  96
   3 126  63 115
   3 126  63 124
   3 127 116  97
   3 127 116  64
   3 127  97  95
   3 127  97 116
   3 127  95 125
   3 127  95  97
   3 127 125  64
   3 127 125  95
   3 127  64 125
   3 127  64 116
