 COFF
         142        1416         142
  
  -6.6619852603018703        1.3615627613644021        7.3998619040488611       0.60000002384185791       0.60000002384185791       0.60000002384185791       0.80000001192092896     
  -6.6619852977969227       -1.3615627430275876        7.3998619105989212       0.60000002384185791       0.60000002384185791       0.60000002384185791       0.80000001192092896     
  -2.8508157247771282E-002  -2.1978836474185992        7.1961159344608827       0.60000002384185791       0.60000002384185791       0.60000002384185791       0.80000001192092896     
   7.5107554866342037       -1.2070904305003471        7.4535580301714655       0.60000002384185791       0.60000002384185791       0.60000002384185791       0.80000001192092896     
   7.5107554949823001        1.2070904262801276        7.4535580298866488       0.60000002384185791       0.60000002384185791       0.60000002384185791       0.80000001192092896     
  -2.8508157268747093E-002   2.1978836431728173        7.1961159388737030       0.60000002384185791       0.60000002384185791       0.60000002384185791       0.80000001192092896     
   1.1653290311018836       -1.8031271123735844        7.4229510729492398       0.60000002384185791       0.60000002384185791       0.60000002384185791       0.80000001192092896     
   1.1653290303514781        1.8031271083757530        7.4229510772687064       0.60000002384185791       0.60000002384185791       0.60000002384185791       0.80000001192092896     
  -1.1771011825795865        1.8101307587643742        7.3675988120689118       0.60000002384185791       0.60000002384185791       0.60000002384185791       0.80000001192092896     
  -1.1771011837508698       -1.8101307612149586        7.3675988092749112       0.60000002384185791       0.60000002384185791       0.60000002384185791       0.80000001192092896     
   2.0346933787471517       -1.4387553437709384        7.7579485195690179       0.60000002384185791       0.60000002384185791       0.60000002384185791       0.80000001192092896     
   2.0346933770342073        1.4387553385245362        7.7579485250498372       0.60000002384185791       0.60000002384185791       0.60000002384185791       0.80000001192092896     
  -2.0558000318608065        1.4720160965993037        7.7047309865080607       0.60000002384185791       0.60000002384185791       0.60000002384185791       0.80000001192092896     
  -2.0558000318608869       -1.4720160976608772        7.7047309853745549       0.60000002384185791       0.60000002384185791       0.60000002384185791       0.80000001192092896     
   3.0631429992941372       -1.3957038842123697        7.7248523095419461       0.60000002384185791       0.60000002384185791       0.60000002384185791       0.80000001192092896     
   3.0631429992481642        1.3957038717184640        7.7248523212418290       0.60000002384185791       0.60000002384185791       0.60000002384185791       0.80000001192092896     
  -3.0505820239450907        1.4177119836483494        7.6250557870769233       0.60000002384185791       0.60000002384185791       0.60000002384185791       0.80000001192092896     
  -3.0505820239089965       -1.4177119834686855        7.6250557863011581       0.60000002384185791       0.60000002384185791       0.60000002384185791       0.80000001192092896     
   4.0620213751150329       -1.3563018091375951        7.7148122372948587       0.60000002384185791       0.60000002384185791       0.60000002384185791       0.80000001192092896     
   4.0620213750192926        1.3563017953606742        7.7148122514878965       0.60000002384185791       0.60000002384185791       0.60000002384185791       0.80000001192092896     
  -4.0477173526242520        1.3563339364103235        7.6635752667668866       0.60000002384185791       0.60000002384185791       0.60000002384185791       0.80000001192092896     
  -4.0477173524946206       -1.3563339357515765        7.6635752674615496       0.60000002384185791       0.60000002384185791       0.60000002384185791       0.80000001192092896     
   5.0376096406606390       -1.5971798459728415        7.3234056828346716       0.60000002384185791       0.60000002384185791       0.60000002384185791       0.80000001192092896     
   5.0376096533013000        1.5971798491108076        7.3234056872394442       0.60000002384185791       0.60000002384185791       0.60000002384185791       0.80000001192092896     
   6.1317533831627777       -1.5257623533199316        7.3386941487134951       0.60000002384185791       0.60000002384185791       0.60000002384185791       0.80000001192092896     
   6.1317533843807421        1.5257623568901431        7.3386941448135472       0.60000002384185791       0.60000002384185791       0.60000002384185791       0.80000001192092896     
  -4.9973675792912404        1.5755911157673710        7.2946241515804440       0.60000002384185791       0.60000002384185791       0.60000002384185791       0.80000001192092896     
  -4.9973675803267348       -1.5755911142999137        7.2946241529624709       0.60000002384185791       0.60000002384185791       0.60000002384185791       0.80000001192092896     
  -8.0244224964197688        1.5332305667895265E-004   7.2781407270044234       0.60000002384185791       0.60000002384185791       0.60000002384185791       0.80000001192092896     
   8.7186509113484352       -1.2833696500338319E-009   7.4733836554509301       0.60000002384185791       0.60000002384185791       0.60000002384185791       0.80000001192092896     
  -2.2645978304304943       -1.0618900923086039        4.9937023165053924       0.60000002384185791       0.60000002384185791       0.60000002384185791       0.80000001192092896     
   1.3188023483059945       -1.7582682192328567        6.2159326923480371       0.60000002384185791       0.60000002384185791       0.60000002384185791       0.80000001192092896     
   1.3188022951845528        1.7582681554916249        6.2159326963404773       0.60000002384185791       0.60000002384185791       0.60000002384185791       0.80000001192092896     
  -2.5698991915571634        1.4438086441650970        6.4660821879746893       0.60000002384185791       0.60000002384185791       0.60000002384185791       0.80000001192092896     
  -2.5698992042389750       -1.4438086635870546        6.4660821870518443       0.60000002384185791       0.60000002384185791       0.60000002384185791       0.80000001192092896     
   2.1795604984182562E-002  -1.9120751471802646        5.7957944069270866       0.60000002384185791       0.60000002384185791       0.60000002384185791       0.80000001192092896     
   2.1797330244615099E-002   1.9120240176521488        5.7957944194817772       0.60000002384185791       0.60000002384185791       0.60000002384185791       0.80000001192092896     
   2.5819707677715957        1.3968771002324016        6.5168723803136253       0.60000002384185791       0.60000002384185791       0.60000002384185791       0.80000001192092896     
   4.1085099095506621       -1.3630245890210049        6.7145399145025513       0.60000002384185791       0.60000002384185791       0.60000002384185791       0.80000001192092896     
  -1.1366251122846152       -1.7348331292994665        5.3692781770433138       0.60000002384185791       0.60000002384185791       0.60000002384185791       0.80000001192092896     
  -1.1366248211209466        1.7348324744456236        5.3692782644558319       0.60000002384185791       0.60000002384185791       0.60000002384185791       0.80000001192092896     
  -1.7228787252758710      -0.84220502151192700        3.4409363277553915       0.60000002384185791       0.60000002384185791       0.60000002384185791       0.80000001192092896     
  -1.7228788167163227       0.84220468160159201        3.4409360454572706       0.60000002384185791       0.60000002384185791       0.60000002384185791       0.80000001192092896     
   1.1836483071533925        1.7076144210077073        4.9757250225085592       0.60000002384185791       0.60000002384185791       0.60000002384185791       0.80000001192092896     
   1.1836166665004346       -1.7076219619244661        4.9756964583589482       0.60000002384185791       0.60000002384185791       0.60000002384185791       0.80000001192092896     
   4.1085100112549435        1.3630244729684078        6.7145399295467252       0.60000002384185791       0.60000002384185791       0.60000002384185791       0.80000001192092896     
  -4.0796278077522024        1.3672529779055798        6.6817331057791973       0.60000002384185791       0.60000002384185791       0.60000002384185791       0.80000001192092896     
   2.5266137981040671       -2.0895151568972503E-008   5.3605003826148980       0.60000002384185791       0.60000002384185791       0.60000002384185791       0.80000001192092896     
   1.6715042337770125        1.2937625893091622        4.5115730180280655       0.60000002384185791       0.60000002384185791       0.60000002384185791       0.80000001192092896     
   1.6715041262947961       -1.2937628768309151        4.5115730046818001       0.60000002384185791       0.60000002384185791       0.60000002384185791       0.80000001192092896     
  0.12282676536550310        1.7869735662939308        4.6360978610954762       0.60000002384185791       0.60000002384185791       0.60000002384185791       0.80000001192092896     
  0.12281344031139234       -1.7869432227358448        4.6360978294990458       0.60000002384185791       0.60000002384185791       0.60000002384185791       0.80000001192092896     
   1.9583593175398679        9.7515896980964193E-009   4.1147809473850501       0.60000002384185791       0.60000002384185791       0.60000002384185791       0.80000001192092896     
   5.2942745626418697      -0.75076003184316653        4.0352256057235740        1.0000000000000000        1.0000000000000000        0.0000000000000000        1.0000000000000000     
   5.2942758007183741       0.75075981245031675        4.0352256057235740        1.0000000000000000        1.0000000000000000        0.0000000000000000        1.0000000000000000     
  -3.3346997882299778        1.5611894231869132E-008   5.7086797642496121       0.60000002384185791       0.60000002384185791       0.60000002384185791       0.80000001192092896     
 -0.95512431308645485       -1.5574454264192199        4.2643834851046734       0.60000002384185791       0.60000002384185791       0.60000002384185791       0.80000001192092896     
 -0.95512433073542402        1.5574438827279067        4.2643835075371115       0.60000002384185791       0.60000002384185791       0.60000002384185791       0.80000001192092896     
  -4.0796279532655859       -1.3672529778945046        6.6817330999894793       0.60000002384185791       0.60000002384185791       0.60000002384185791       0.80000001192092896     
  0.17401381613081635       -2.1138136750711636E-007   1.0535609148389919        1.0000000000000000        1.0000000000000000        0.0000000000000000        1.0000000000000000     
   1.0659624260189775        1.5697085117459626        3.8894402615951376       0.60000002384185791       0.60000002384185791       0.60000002384185791       0.80000001192092896     
   1.0659474417824013       -1.5696961839871033        3.8894402291216874       0.60000002384185791       0.60000002384185791       0.60000002384185791       0.80000001192092896     
   3.1872617004917827       -6.5215619315345351E-008   5.6208931513818285       0.60000002384185791       0.60000002384185791       0.60000002384185791       0.80000001192092896     
  -5.0975758660478254       0.81591857022457126        4.6069091304059731        1.0000000000000000        1.0000000000000000        0.0000000000000000        1.0000000000000000     
  -5.0975760284473441      -0.81591853508876955        4.6069091304059739        1.0000000000000000        1.0000000000000000        0.0000000000000000        1.0000000000000000     
   6.7982605721555842       -1.3417549981228150        6.7858538729877580       0.60000002384185791       0.60000002384185791       0.60000002384185791       0.80000001192092896     
   6.7982610512484216        1.3417548821664984        6.7858543024749327       0.60000002384185791       0.60000002384185791       0.60000002384185791       0.80000001192092896     
   1.4754846775109065        1.0925132744272996        3.4324116384616996       0.60000002384185791       0.60000002384185791       0.60000002384185791       0.80000001192092896     
   1.4754692605022750       -1.0924712100362366        3.4324116254333465       0.60000002384185791       0.60000002384185791       0.60000002384185791       0.80000001192092896     
   2.5819707727339409       -1.3968771287720005        6.5168723737453291       0.60000002384185791       0.60000002384185791       0.60000002384185791       0.80000001192092896     
   1.8319374286070595        1.5681221247647792        5.5674082757276304       0.60000002384185791       0.60000002384185791       0.60000002384185791       0.80000001192092896     
  0.20746297618444678        1.6386969278616741        3.5369671350053293       0.60000002384185791       0.60000002384185791       0.60000002384185791       0.80000001192092896     
  0.20752780523899969       -1.6386534244330180        3.5369670002579547       0.60000002384185791       0.60000002384185791       0.60000002384185791       0.80000001192092896     
   1.8319686911639566       -1.5681154563107422        5.5674368209218112       0.60000002384185791       0.60000002384185791       0.60000002384185791       0.80000001192092896     
  -1.2881519921552622        1.7857893833622827        6.3784851283380775       0.60000002384185791       0.60000002384185791       0.60000002384185791       0.80000001192092896     
   1.6460739975629168        7.9427565384265444E-005   3.1070804239688301        1.0000000000000000       0.10000000149011612        0.0000000000000000       0.50000000000000000     
 -0.66821541190079548       -1.3730281587601143        3.0652064443795060        1.0000000000000000       0.10000000149011612        0.0000000000000000       0.50000000000000000     
 -0.66821516671563808        1.3730274279113170        3.0652065576592777        1.0000000000000000       0.10000000149011612        0.0000000000000000       0.50000000000000000     
   4.1340615447936075       -8.9741908464389979E-007   6.4986858387353541       0.60000002384185791       0.60000002384185791       0.60000002384185791       0.80000001192092896     
  -1.8636747078676614      -0.48752146121367845        2.5697984409595414        1.0000000000000000       0.10000000149011612        0.0000000000000000       0.50000000000000000     
  -1.8636749624145212       0.48752103983563627        2.5697984760192081        1.0000000000000000       0.10000000149011612        0.0000000000000000       0.50000000000000000     
  0.95793907225932406        1.4074651303200916        2.8599755249034602        1.0000000000000000       0.10000000149011612        0.0000000000000000       0.50000000000000000     
  0.95796534986240867       -1.4073613472547610        2.8599753977441145        1.0000000000000000       0.10000000149011612        0.0000000000000000       0.50000000000000000     
  -4.0812320913488191        1.8051704454874755E-008   6.3584812723384569       0.60000002384185791       0.60000002384185791       0.60000002384185791       0.80000001192092896     
   6.0402524798598254       -1.4333729751437392        6.2059659200620336       0.60000002384185791       0.60000002384185791       0.60000002384185791       0.80000001192092896     
   6.0402526481273355        1.4333728320892563        6.2059668301094302       0.60000002384185791       0.60000002384185791       0.60000002384185791       0.80000001192092896     
   7.3842320760988294       -1.4531408871379648E-009   6.4362772331549216       0.60000002384185791       0.60000002384185791       0.60000002384185791       0.80000001192092896     
   6.8660523113991303      -0.71257438531416906        5.3175063620470890       0.60000002384185791       0.60000002384185791       0.60000002384185791       0.80000001192092896     
   6.8660553914837932       0.71257528732387621        5.3175074012688146       0.60000002384185791       0.60000002384185791       0.60000002384185791       0.80000001192092896     
   5.1847753920456157       -1.4607804213593978        6.1239699616047085       0.60000002384185791       0.60000002384185791       0.60000002384185791       0.80000001192092896     
   5.1847757284873000        1.4609650300376187        6.1239691239958054       0.60000002384185791       0.60000002384185791       0.60000002384185791       0.80000001192092896     
   6.6099749511113668       -1.0598169340708001        5.7539426676883876       0.60000002384185791       0.60000002384185791       0.60000002384185791       0.80000001192092896     
   6.6099787760018689        1.0597402962344848        5.7539369763948622       0.60000002384185791       0.60000002384185791       0.60000002384185791       0.80000001192092896     
  -1.2881520340349515       -1.7857894325633659        6.3784851182286362       0.60000002384185791       0.60000002384185791       0.60000002384185791       0.80000001192092896     
  -6.9466122571249818       0.72283160608485808        6.0452286188976236       0.60000002384185791       0.60000002384185791       0.60000002384185791       0.80000001192092896     
  -6.9466122841686841      -0.72283141731537759        6.0452286672776161       0.60000002384185791       0.60000002384185791       0.60000002384185791       0.80000001192092896     
  -6.4974628561333247        1.1269391669907174        6.4664680222709077       0.60000002384185791       0.60000002384185791       0.60000002384185791       0.80000001192092896     
  -6.4974629937381696       -1.1269390553846523        6.4664680246545654       0.60000002384185791       0.60000002384185791       0.60000002384185791       0.80000001192092896     
  0.25117535946916336        1.4683611421254659        2.5365233906635831        1.0000000000000000       0.10000000149011612        0.0000000000000000       0.50000000000000000     
  0.25112747484406128       -1.4681978218394907        2.5365230744099772        1.0000000000000000       0.10000000149011612        0.0000000000000000       0.50000000000000000     
   1.2926834152568094       0.95225499993621110        2.5008464263948791        1.0000000000000000       0.10000000149011612        0.0000000000000000       0.50000000000000000     
   1.2926707595769087      -0.95225044466176689        2.5008464329827755        1.0000000000000000       0.10000000149011612        0.0000000000000000       0.50000000000000000     
  -2.2645981642805242        1.0618897193575332        4.9937024149547407       0.60000002384185791       0.60000002384185791       0.60000002384185791       0.80000001192092896     
  -7.2930714826429224       0.69784288709255560        6.7918870863651959       0.60000002384185791       0.60000002384185791       0.60000002384185791       0.80000001192092896     
  -7.2930716279656487      -0.69784302474701221        6.7918871229479443       0.60000002384185791       0.60000002384185791       0.60000002384185791       0.80000001192092896     
   4.5631408527935022       -1.0667333474823915        5.9506258372331571       0.60000002384185791       0.60000002384185791       0.60000002384185791       0.80000001192092896     
   4.5631541085379013        1.0666247078774456        5.9506262646747929       0.60000002384185791       0.60000002384185791       0.60000002384185791       0.80000001192092896     
   4.1579158419905378      -0.36622476259912118        5.0195526865794076       0.60000002384185791       0.60000002384185791       0.60000002384185791       0.80000001192092896     
   4.1579081711746548       0.36623718358449053        5.0195518714818403       0.60000002384185791       0.60000002384185791       0.60000002384185791       0.80000001192092896     
 -0.74255183570492589       -1.1175575762652536        2.3336280552399908        1.0000000000000000       0.10000000149011612        0.0000000000000000       0.50000000000000000     
 -0.74255140510273532        1.1175560134287879        2.3336281506420997        1.0000000000000000       0.10000000149011612        0.0000000000000000       0.50000000000000000     
  -2.2408760582549960       -1.7092417322204648E-007   3.5839905206416915       0.60000002384185791       0.60000002384185791       0.60000002384185791       0.80000001192092896     
   1.4206290137486781       -2.9692031987503981E-005   2.2661558108221511        1.0000000000000000       0.10000000149011612        0.0000000000000000       0.50000000000000000     
  -1.5214676980186590      -0.43313125432282440        1.6168021472366811        1.0000000000000000       0.10000000149011612        0.0000000000000000       0.50000000000000000     
  -1.5214678268018853       0.43313095519696221        1.6168021201186351        1.0000000000000000       0.10000000149011612        0.0000000000000000       0.50000000000000000     
  -5.0752827883729967        1.3762855700209013        6.1953904764173515       0.60000002384185791       0.60000002384185791       0.60000002384185791       0.80000001192092896     
  -5.0753170255421098       -1.3761552380914772        6.1953901777599611       0.60000002384185791       0.60000002384185791       0.60000002384185791       0.80000001192092896     
  0.78926288327616889        1.1732079753520526        2.0036422499547561        1.0000000000000000       0.10000000149011612        0.0000000000000000       0.50000000000000000     
  0.78926145742470033       -1.1732099981358850        2.0036418550409252        1.0000000000000000       0.10000000149011612        0.0000000000000000       0.50000000000000000     
  -2.5657650423634988       -8.2923299264933979E-008   4.8842262342049638       0.60000002384185791       0.60000002384185791       0.60000002384185791       0.80000001192092896     
  -4.5045463259791756        1.0456050652393729        5.9036455981283389       0.60000002384185791       0.60000002384185791       0.60000002384185791       0.80000001192092896     
  -4.5045478636161924       -1.0456044278840098        5.9036458581485016       0.60000002384185791       0.60000002384185791       0.60000002384185791       0.80000001192092896     
   5.8630380544150702       -1.2617789617800872        5.2311882058359558       0.60000002384185791       0.60000002384185791       0.60000002384185791       0.80000001192092896     
   5.8630530848261779        1.2617828690423925        5.2311957947776735       0.60000002384185791       0.60000002384185791       0.60000002384185791       0.80000001192092896     
  -6.1410903629841354       0.90346356802327332        5.2969077520843033       0.60000002384185791       0.60000002384185791       0.60000002384185791       0.80000001192092896     
  -6.1410904357886098      -0.90346343829851583        5.2969076806252362       0.60000002384185791       0.60000002384185791       0.60000002384185791       0.80000001192092896     
  -6.0340687218305140        1.0214215242924756        5.5739811653421443       0.60000002384185791       0.60000002384185791       0.60000002384185791       0.80000001192092896     
  -6.0340690585856311       -1.0214217801068435        5.5739810882156196       0.60000002384185791       0.60000002384185791       0.60000002384185791       0.80000001192092896     
  -4.3827304762429460       0.39962595040652682        5.3694299329690258       0.60000002384185791       0.60000002384185791       0.60000002384185791       0.80000001192092896     
  -4.3827294645726029      -0.39962588790211384        5.3694299350987595       0.60000002384185791       0.60000002384185791       0.60000002384185791       0.80000001192092896     
   6.2125363044768909       -1.1011122243651228        4.8893960793443814       0.60000002384185791       0.60000002384185791       0.60000002384185791       0.80000001192092896     
   6.2125409259756736        1.1011110310333192        4.8893928092090171       0.60000002384185791       0.60000002384185791       0.60000002384185791       0.80000001192092896     
   5.2586632964211937       -1.2247621750617959        5.1510371812101052       0.60000002384185791       0.60000002384185791       0.60000002384185791       0.80000001192092896     
   5.2586878736730016        1.2247845319244246        5.1510404701584225       0.60000002384185791       0.60000002384185791       0.60000002384185791       0.80000001192092896     
  0.14208124873272712       0.93041223979499321        1.7746295245020682        1.0000000000000000       0.10000000149011612        0.0000000000000000       0.50000000000000000     
  0.14208022920554439      -0.93041350920276089        1.7746291016346867        1.0000000000000000       0.10000000149011612        0.0000000000000000       0.50000000000000000     
   4.8525698109147699      -0.89607572583164974        4.9944257892042536       0.60000002384185791       0.60000002384185791       0.60000002384185791       0.80000001192092896     
   4.8526920243899063       0.89598173832096695        4.9944186602056524       0.60000002384185791       0.60000002384185791       0.60000002384185791       0.80000001192092896     
  0.89057486820153597       0.51469662396796290        1.7626114980429508        1.0000000000000000       0.10000000149011612        0.0000000000000000       0.50000000000000000     
  0.89057447694305236      -0.51469806323678058        1.7626116476585882        1.0000000000000000       0.10000000149011612        0.0000000000000000       0.50000000000000000     
   6.0825975689747569      -0.70845575111130477        4.6600669330180100       0.60000002384185791       0.60000002384185791       0.60000002384185791       0.80000001192092896     
   6.0825981034943526       0.70845426946576529        4.6600673034051745       0.60000002384185791       0.60000002384185791       0.60000002384185791       0.80000001192092896     
  
   3   0  26  96
   3   0  96  26
   3   0  96 103
   3   0 103  96
   3   0 103  28
   3   0  28 103
   4   0  28  94  96
   3   1  28 104
   4   1  28  95  97
   3   1 104  97
   3   1 104  28
   3   1  97 104
   3   1  97  27
   3   1  27  97
   3   2  35  93
   3   2  35  31
   3   2  31  35
   3   2  31   6
   3   2   6  31
   3   2   9  93
   3   2  93  35
   3   2  93   9
   3   3  29  86
   3   3  24  65
   3   3  65  24
   3   3  65  86
   3   3  86  29
   3   3  86  65
   3   4  29  86
   3   4  86  66
   3   4  86  29
   3   4  66  86
   3   4  66  25
   3   4  25  66
   3   5   7  32
   3   5  32  36
   3   5  32   7
   3   5  36  32
   3   5  36  74
   3   5  74  36
   3   5  74   8
   3   5   8  74
   3   6   2  31
   3   6  31   2
   3   6  31  69
   3   6  69  10
   3   6  69  31
   3   6  10  69
   3   7  11  37
   3   7  37  32
   3   7  37  11
   3   7  32  37
   3   7  32   5
   3   7   5  32
   3   8   5  74
   3   8  74   5
   3   8  74  33
   3   8  33  12
   3   8  33  74
   3   8  12  33
   3   9  13  34
   3   9  34  93
   3   9  34  13
   3   9  93  34
   3   9  93   2
   3   9   2  93
   3  10   6  69
   3  10  69  14
   3  10  69   6
   3  10  14  69
   3  11  15  37
   3  11  37   7
   3  11  37  15
   3  11   7  37
   3  12   8  33
   3  12  33  16
   3  12  33   8
   3  12  16  33
   3  13  17  34
   3  13  34   9
   3  13  34  17
   3  13   9  34
   3  14  10  69
   3  14  69  38
   3  14  69  10
   3  14  38  18
   3  14  38  69
   3  14  18  38
   3  15  19  45
   3  15  45  37
   3  15  45  19
   3  15  37  45
   3  15  37  11
   3  15  11  37
   3  16  12  33
   3  16  33  46
   3  16  33  12
   3  16  46  20
   3  16  46  33
   3  16  20  46
   3  17  21  58
   3  17  58  34
   3  17  58  21
   3  17  34  58
   3  17  34  13
   3  17  13  34
   3  18  14  38
   3  18  38  22
   3  18  38  14
   3  18  22  38
   3  19  23  45
   3  19  45  15
   3  19  45  23
   3  19  15  45
   3  20  16  46
   3  20  46  26
   3  20  46  16
   3  20  26  46
   3  21  27  58
   3  21  58  17
   3  21  58  27
   3  21  17  58
   3  22  18  38
   3  22  38  89
   3  22  38  18
   3  22  89  38
   3  22  89  84
   3  22  84  89
   3  22  84  24
   3  22  24  84
   3  23  25  85
   3  23  85  90
   3  23  85  25
   3  23  90  85
   3  23  90  45
   3  23  45  19
   3  23  45  90
   3  23  19  45
   3  24  22  84
   3  24  84  22
   3  24  84  65
   3  24  65   3
   3  24  65  84
   3  24   3  65
   3  25   4  66
   3  25  66   4
   3  25  66  85
   3  25  85  66
   3  25  85  23
   3  25  23  85
   3  26  20  46
   3  26  46 115
   3  26  46  20
   3  26 115  46
   3  26 115  96
   3  26  96 115
   3  26  96   0
   3  26   0  96
   3  27   1  97
   3  27  97 116
   3  27  97   1
   3  27 116  97
   3  27 116  58
   3  27  58  21
   3  27  58 116
   3  27  21  58
   3  28   0 103
   4  28   0  96  94
   3  28 103   0
   3  28 103  94
   3  28  94 103
   3  28  94  95
   3  28  95  94
   3  28  95 104
   3  28 104  95
   3  28 104   1
   3  28   1 104
   4  28   1  97  95
   3  29   3  86
   3  29  86   4
   3  29  86   3
   3  29   4  86
   3  30  34  55
   3  30  34  39
   3  30  55 119
   3  30  55  34
   3  30 119  55
   3  30 119 111
   3  30 111 119
   3  30 111  41
   3  30  41  56
   3  30  41 111
   3  30  56  39
   3  30  56  41
   3  30  39  34
   3  30  39  56
   3  31   2  35
   3  31   2   6
   3  31  35  44
   3  31  35   2
   3  31  44  73
   3  31  44  35
   3  31  73  69
   3  31  73  44
   3  31  69   6
   3  31  69  73
   3  31   6   2
   3  31   6  69
   3  32  37  70
   3  32  37   7
   3  32  70  37
   3  32  70  43
   3  32  43  36
   3  32  43  70
   3  32  36  43
   3  32  36   5
   3  32   5   7
   3  32   5  36
   3  32   7  37
   3  32   7   5
   3  33  46  16
   3  33  46  55
   3  33  16  12
   3  33  16  46
   3  33  12   8
   3  33  12  16
   3  33   8  74
   3  33   8  12
   3  33  74  40
   3  33  74   8
   3  33  40 102
   3  33  40  74
   3  33 102  40
   3  33 102  55
   3  33  55 102
   3  33  55  46
   3  34  58  55
   3  34  58  17
   3  34  55  30
   3  34  55  58
   3  34  30  55
   3  34  30  39
   3  34  39  93
   3  34  39  30
   3  34  93  39
   3  34  93   9
   3  34   9  13
   3  34   9  93
   3  34  13  17
   3  34  13   9
   3  34  17  58
   3  34  17  13
   3  35  93  39
   3  35  93   2
   3  35  39  93
   3  35  39  51
   3  35  51  44
   3  35  51  39
   3  35  44  31
   3  35  44  51
   3  35  31   2
   3  35  31  44
   3  35   2  31
   3  35   2  93
   3  36  32  43
   3  36  32   5
   3  36  43  32
   3  36  43  50
   3  36  50  40
   3  36  50  43
   3  36  40  74
   3  36  40  50
   3  36  74   5
   3  36  74  40
   3  36   5  32
   3  36   5  74
   3  37  45  62
   3  37  45  15
   3  37  62  47
   3  37  62  45
   3  37  47  62
   3  37  47  70
   3  37  70  47
   3  37  70  32
   3  37  32  70
   3  37  32   7
   3  37   7  11
   3  37   7  32
   3  37  11  15
   3  37  11   7
   3  37  15  45
   3  37  15  11
   3  38 105  78
   3  38 105  89
   3  38  89 105
   3  38  89  22
   3  38  22  18
   3  38  22  89
   3  38  18  14
   3  38  18  22
   3  38  14  69
   3  38  14  18
   3  38  69  14
   3  38  69  62
   3  38  62  78
   3  38  62  69
   3  38  78  62
   3  38  78 105
   3  39  35  93
   3  39  35  51
   3  39  93  34
   3  39  93  35
   3  39  34  30
   3  39  34  93
   3  39  30  34
   3  39  30  56
   3  39  56  51
   3  39  56  30
   3  39  51  35
   3  39  51  56
   3  40 102  33
   3  40 102  57
   3  40  33  74
   3  40  33 102
   3  40  74  36
   3  40  74  33
   3  40  36  50
   3  40  36  74
   3  40  50  36
   3  40  50  57
   3  40  57 102
   3  40  57  50
   3  41  79 111
   3  41  79 109
   3  41 109  76
   3  41 109  79
   3  41  76 109
   3  41  76  56
   3  41  56  30
   3  41  56  76
   3  41  30 111
   3  41  30  56
   3  41 111  30
   3  41 111  79
   3  42  80 110
   3  42  80 111
   3  42 111 102
   3  42 111  80
   3  42 102  57
   3  42 102 111
   3  42  57 102
   3  42  57  77
   3  42  77 110
   3  42  77  57
   3  42 110  80
   3  42 110  77
   3  43  36  32
   3  43  36  50
   3  43  32  70
   3  43  32  36
   3  43  70  48
   3  43  70  32
   3  43  48  70
   3  43  48  60
   3  43  60  48
   3  43  60  50
   3  43  50  36
   3  43  50  60
   3  44  73  49
   3  44  73  31
   3  44  31  35
   3  44  31  73
   3  44  35  51
   3  44  35  31
   3  44  51  35
   3  44  51  61
   3  44  61  51
   3  44  61  49
   3  44  49  73
   3  44  49  61
   3  45 106  90
   3  45 106  78
   3  45  78  62
   3  45  78 106
   3  45  62  37
   3  45  62  78
   3  45  37  62
   3  45  37  15
   3  45  15  19
   3  45  15  37
   3  45  19  23
   3  45  19  15
   3  45  23  90
   3  45  23  19
   3  45  90 106
   3  45  90  23
   3  46 120  83
   3  46 120 115
   3  46 115 120
   3  46 115  26
   3  46  26  20
   3  46  26 115
   3  46  20  16
   3  46  20  26
   3  46  16  33
   3  46  16  20
   3  46  33  16
   3  46  33  55
   3  46  55  83
   3  46  55  33
   3  46  83  55
   3  46  83 120
   3  47  37  62
   3  47  37  70
   3  47  62  37
   3  47  62  69
   3  47  69  73
   3  47  69  62
   3  47  73  49
   3  47  73  69
   3  47  49  73
   3  47  49  52
   3  47  52  48
   3  47  52  49
   3  47  48  70
   3  47  48  52
   3  47  70  37
   3  47  70  48
   3  48  43  70
   3  48  43  60
   3  48  70  47
   3  48  70  43
   3  48  47  52
   3  48  47  70
   3  48  52  47
   3  48  52  67
   3  48  67  52
   3  48  67  60
   3  48  60  67
   3  48  60  43
   3  49  47  73
   3  49  47  52
   3  49  73  47
   3  49  73  44
   3  49  44  73
   3  49  44  61
   3  49  61  68
   3  49  61  44
   3  49  68  61
   3  49  68  52
   3  49  52  47
   3  49  52  68
   3  50  40  36
   3  50  40  57
   3  50  36  43
   3  50  36  40
   3  50  43  36
   3  50  43  60
   3  50  60  71
   3  50  60  43
   3  50  71  60
   3  50  71  57
   3  50  57  40
   3  50  57  71
   3  51  44  35
   3  51  44  61
   3  51  35  39
   3  51  35  44
   3  51  39  35
   3  51  39  56
   3  51  56  39
   3  51  56  72
   3  51  72  56
   3  51  72  61
   3  51  61  72
   3  51  61  44
   3  52  48  47
   3  52  48  67
   3  52  47  49
   3  52  47  48
   3  52  49  47
   3  52  49  68
   3  52  68  75
   3  52  68  49
   3  52  75  68
   3  52  75  67
   3  52  67  75
   3  52  67  48
   3  53 130 122
   4  53 130  87 140
   3  53 122 132
   3  53 122 130
   3  53 132 122
   3  53 132 136
   3  53 136 132
   3  53 136 107
   3  53 107 136
   4  53 107 108  54
   3  54 131 123
   4  54 131  88 141
   3  54 108 137
   4  54 108 107  53
   3  54 137 108
   3  54 137 133
   3  54 133 123
   3  54 133 137
   3  54 123 131
   3  54 123 133
   3  55 102  33
   3  55 102 119
   3  55 119 102
   3  55 119  30
   3  55  30  34
   3  55  30 119
   3  55  34  58
   3  55  34  30
   3  55  58  83
   3  55  58  34
   3  55  83  58
   3  55  83  46
   3  55  46  33
   3  55  46  83
   3  55  33  46
   3  55  33 102
   3  56  51  39
   3  56  51  72
   3  56  39  30
   3  56  39  51
   3  56  30  41
   3  56  30  39
   3  56  41  76
   3  56  41  30
   3  56  76  41
   3  56  76  72
   3  56  72  76
   3  56  72  51
   3  57  42 102
   3  57  42  77
   3  57 102  40
   3  57 102  42
   3  57  40 102
   3  57  40  50
   3  57  50  40
   3  57  50  71
   3  57  71  77
   3  57  71  50
   3  57  77  71
   3  57  77  42
   3  58 121 116
   3  58 121  83
   3  58  83  55
   3  58  83 121
   3  58  55  34
   3  58  55  83
   3  58  34  55
   3  58  34  17
   3  58  17  21
   3  58  17  34
   3  58  21  27
   3  58  21  17
   3  58  27 116
   3  58  27  21
   3  58 116 121
   3  58 116  27
   3  59 134 110
   3  59 134 117
   3  59 117 138
   3  59 117 134
   3  59 138 117
   3  59 138 112
   3  59 112 139
   3  59 112 138
   3  59 139 112
   3  59 139 118
   3  59 118 135
   3  59 118 139
   3  59 135 118
   3  59 135 109
   3  59 109 135
   4  59 109  99 118
   3  59 113 114
   4  59 113  79 109
   3  59 114 113
   4  59 114  80 110
   3  59 110 134
   4  59 110  80 114
   3  60  48  43
   3  60  48  67
   3  60  67  81
   3  60  67  48
   3  60  81  71
   3  60  81  67
   3  60  71  81
   3  60  71  50
   3  60  50  43
   3  60  50  71
   3  60  43  48
   3  60  43  50
   3  61  51  44
   3  61  51  72
   3  61  72  82
   3  61  72  51
   3  61  82  68
   3  61  82  72
   3  61  68  82
   3  61  68  49
   3  61  49  44
   3  61  49  68
   3  61  44  51
   3  61  44  49
   3  62  47  37
   3  62  47  69
   3  62  37  45
   3  62  37  47
   3  62  45  78
   3  62  45  37
   3  62  78  45
   3  62  78  38
   3  62  38  69
   3  62  38  78
   3  62  69  38
   3  62  69  47
   3  63 126 124
   3  63 126 115
   3  63 115 120
   3  63 115 126
   3  63 120 115
   4  63 120  83 128
   3  63 124 126
   4  63 124 125  64
   3  64 127 116
   3  64 127 125
   3  64 125 127
   4  64 125 124  63
   3  64 121 116
   4  64 121  83 129
   3  64 116 127
   3  64 116 121
   3  65   3  24
   3  65   3  86
   3  65  24  84
   3  65  24   3
   3  65  84  91
   3  65  84  24
   3  65  91  86
   3  65  91  84
   3  65  86   3
   3  65  86  91
   3  66   4  86
   3  66   4  25
   3  66  86  92
   3  66  86   4
   3  66  92  85
   3  66  92  86
   3  66  85  92
   3  66  85  25
   3  66  25   4
   3  66  25  85
   3  67  52  48
   3  67  52  75
   3  67  75 100
   3  67  75  52
   3  67 100  81
   3  67 100  75
   3  67  81  60
   3  67  81 100
   3  67  60  48
   3  67  60  81
   3  67  48  52
   3  67  48  60
   3  68  61  82
   3  68  61  49
   3  68  82  61
   3  68  82 101
   3  68 101  75
   3  68 101  82
   3  68  75 101
   3  68  75  52
   3  68  52  49
   3  68  52  75
   3  68  49  61
   3  68  49  52
   3  69  38  14
   3  69  38  62
   3  69  14  10
   3  69  14  38
   3  69  10   6
   3  69  10  14
   3  69   6  31
   3  69   6  10
   3  69  31  73
   3  69  31   6
   3  69  73  47
   3  69  73  31
   3  69  47  62
   3  69  47  73
   3  69  62  47
   3  69  62  38
   3  70  37  47
   3  70  37  32
   3  70  47  37
   3  70  47  48
   3  70  48  43
   3  70  48  47
   3  70  43  32
   3  70  43  48
   3  70  32  37
   3  70  32  43
   3  71  60  81
   3  71  60  50
   3  71  81  60
   3  71  81  98
   3  71  98  77
   3  71  98  81
   3  71  77  98
   3  71  77  57
   3  71  57  50
   3  71  57  77
   3  71  50  60
   3  71  50  57
   3  72  56  51
   3  72  56  76
   3  72  76  99
   3  72  76  56
   3  72  99  82
   3  72  99  76
   3  72  82  61
   3  72  82  99
   3  72  61  51
   3  72  61  82
   3  72  51  56
   3  72  51  61
   3  73  49  47
   3  73  49  44
   3  73  47  69
   3  73  47  49
   3  73  69  31
   3  73  69  47
   3  73  31  44
   3  73  31  69
   3  73  44  31
   3  73  44  49
   3  74   5  36
   3  74   5   8
   3  74  36  40
   3  74  36   5
   3  74  40  33
   3  74  40  36
   3  74  33   8
   3  74  33  40
   3  74   8   5
   3  74   8  33
   3  75  68 101
   3  75  68  52
   3  75 101  68
   3  75 101 112
   3  75 112 100
   3  75 112 101
   3  75 100  67
   3  75 100 112
   3  75  67  52
   3  75  67 100
   3  75  52  68
   3  75  52  67
   3  76  41 109
   3  76  41  56
   3  76 109  99
   3  76 109  41
   3  76  99  72
   3  76  99 109
   3  76  72  56
   3  76  72  99
   3  76  56  41
   3  76  56  72
   3  77  71  98
   3  77  71  57
   3  77  98  71
   3  77  98 110
   3  77 110  42
   3  77 110  98
   3  77  42  57
   3  77  42 110
   3  77  57  42
   3  77  57  71
   3  78  62  45
   3  78  62  38
   3  78  45 106
   3  78  45  62
   3  78 106 137
   3  78 106  45
   3  78 137 108
   3  78 137 106
   3  78 108 107
   3  78 108 137
   3  78 107 136
   3  78 107 108
   3  78 136 105
   3  78 136 107
   3  78 105 136
   3  78 105  38
   3  78  38 105
   3  78  38  62
   3  79  41 109
   3  79  41 111
   3  79 111  80
   3  79 111  41
   3  79  80 111
   4  79  80 114 113
   3  79 109  41
   4  79 109  59 113
   3  80  42 111
   3  80  42 110
   3  80 110  42
   4  80 110  59 114
   3  80  79 111
   4  80  79 113 114
   3  80 111  42
   3  80 111  79
   3  81  71  60
   3  81  71  98
   3  81  60  67
   3  81  60  71
   3  81  67 100
   3  81  67  60
   3  81 100  67
   3  81 100 117
   3  81 117  98
   3  81 117 100
   3  81  98  71
   3  81  98 117
   3  82  68  61
   3  82  68 101
   3  82  61  72
   3  82  61  68
   3  82  72  99
   3  82  72  61
   3  82  99  72
   3  82  99 118
   3  82 118 101
   3  82 118  99
   3  82 101  68
   3  82 101 118
   3  83  55  58
   3  83  55  46
   3  83  58 121
   3  83  58  55
   3  83 121  58
   4  83 121  64 129
   3  83 129 128
   4  83 129  64 121
   3  83 128 129
   4  83 128  63 120
   3  83 120  46
   4  83 120  63 128
   3  83  46 120
   3  83  46  55
   3  84  22  89
   3  84  22  24
   3  84  89 122
   3  84  89  22
   3  84 122  91
   3  84 122  89
   3  84  91  65
   3  84  91 122
   3  84  65  24
   3  84  65  91
   3  84  24  22
   3  84  24  65
   3  85  66  92
   3  85  66  25
   3  85  92  66
   3  85  92 123
   3  85 123  90
   3  85 123  92
   3  85  90 123
   3  85  90  23
   3  85  23  25
   3  85  23  90
   3  85  25  66
   3  85  25  23
   3  86  87  88
   3  86  87  91
   3  86  88  92
   3  86  88  87
   3  86  92  66
   3  86  92  88
   3  86  66   4
   3  86  66  92
   3  86   4  29
   3  86   4  66
   3  86  29   3
   3  86  29   4
   3  86   3  29
   3  86   3  65
   3  86  65   3
   3  86  65  91
   3  86  91  87
   3  86  91  65
   3  87  88  86
   4  87  88 141 140
   3  87  86  88
   3  87  86  91
   3  87  91  86
   3  87  91 130
   3  87 130  91
   4  87 130  53 140
   3  88 131  92
   4  88 131  54 141
   3  88  92  86
   3  88  92 131
   3  88  86  87
   3  88  86  92
   3  88  87  86
   4  88  87 140 141
   3  89  38 105
   3  89  38  22
   3  89 105 132
   3  89 105  38
   3  89 132 122
   3  89 132 105
   3  89 122  84
   3  89 122 132
   3  89  84  22
   3  89  84 122
   3  89  22  38
   3  89  22  84
   3  90  85 123
   3  90  85  23
   3  90 123  85
   3  90 123 133
   3  90 133 106
   3  90 133 123
   3  90 106 133
   3  90 106  45
   3  90  45 106
   3  90  45  23
   3  90  23  85
   3  90  23  45
   3  91  87  86
   3  91  87 130
   3  91  86  87
   3  91  86  65
   3  91  65  84
   3  91  65  86
   3  91  84 122
   3  91  84  65
   3  91 122  84
   3  91 122 130
   3  91 130  87
   3  91 130 122
   3  92  85  66
   3  92  85 123
   3  92  66  86
   3  92  66  85
   3  92  86  88
   3  92  86  66
   3  92  88 131
   3  92  88  86
   3  92 131 123
   3  92 131  88
   3  92 123  85
   3  92 123 131
   3  93  34  39
   3  93  34   9
   3  93  39  35
   3  93  39  34
   3  93  35  39
   3  93  35   2
   3  93   2  35
   3  93   2   9
   3  93   9  34
   3  93   9   2
   3  94  28 103
   3  94  28  95
   3  94 103  96
   3  94 103  28
   3  94  96 126
   3  94  96 103
   3  94 126 124
   3  94 126  96
   3  94 124 126
   4  94 124 125  95
   3  94  95  28
   4  94  95 125 124
   3  95  28  94
   3  95  28 104
   3  95  94  28
   4  95  94 124 125
   3  95 125 127
   4  95 125 124  94
   3  95 127  97
   3  95 127 125
   3  95  97 104
   3  95  97 127
   3  95 104  97
   3  95 104  28
   3  96  26 115
   3  96  26   0
   3  96 115 126
   3  96 115  26
   3  96 126  94
   3  96 126 115
   3  96  94 103
   3  96  94 126
   3  96 103   0
   3  96 103  94
   3  96   0  26
   3  96   0 103
   3  97 104  95
   3  97 104   1
   3  97  95 127
   3  97  95 104
   3  97 127 116
   3  97 127  95
   3  97 116 127
   3  97 116  27
   3  97  27   1
   3  97  27 116
   3  97   1 104
   3  97   1  27
   3  98  77  71
   3  98  77 110
   3  98  71  81
   3  98  71  77
   3  98  81  71
   3  98  81 117
   3  98 117  81
   3  98 117 134
   3  98 134 110
   3  98 134 117
   3  98 110  77
   3  98 110 134
   3  99  82  72
   3  99  82 118
   3  99  72  76
   3  99  72  82
   3  99  76 109
   3  99  76  72
   3  99 109  76
   3  99 109 135
   3  99 135 118
   3  99 135 109
   3  99 118  82
   3  99 118 135
   3 100  81  67
   3 100  81 117
   3 100  67  75
   3 100  67  81
   3 100  75 112
   3 100  75  67
   3 100 112  75
   3 100 112 138
   3 100 138 117
   3 100 138 112
   3 100 117  81
   3 100 117 138
   3 101  75  68
   3 101  75 112
   3 101  68  82
   3 101  68  75
   3 101  82  68
   3 101  82 118
   3 101 118  82
   3 101 118 139
   3 101 139 112
   3 101 139 118
   3 101 112  75
   3 101 112 139
   3 102  33  40
   3 102  33  55
   3 102  40  33
   3 102  40  57
   3 102  57  42
   3 102  57  40
   3 102  42 111
   3 102  42  57
   3 102 111 119
   3 102 111  42
   3 102 119  55
   3 102 119 111
   3 102  55 119
   3 102  55  33
   3 103   0  96
   3 103   0  28
   3 103  96  94
   3 103  96   0
   3 103  94  28
   3 103  94  96
   3 103  28   0
   3 103  28  94
   3 104  95  28
   3 104  95  97
   3 104  97  95
   3 104  97   1
   3 104   1  28
   3 104   1  97
   3 104  28  95
   3 104  28   1
   3 105  78 136
   3 105  78  38
   3 105 136 132
   3 105 136  78
   3 105 132  89
   3 105 132 136
   3 105  89  38
   3 105  89 132
   3 105  38  89
   3 105  38  78
   3 106  90 133
   3 106  90  45
   3 106 133  90
   3 106 133 137
   3 106 137  78
   3 106 137 133
   3 106  78  45
   3 106  78 137
   3 106  45  78
   3 106  45  90
   3 107  53 136
   4 107  53  54 108
   3 107 136  78
   3 107 136  53
   3 107  78 108
   3 107  78 136
   3 107 108  78
   4 107 108  54  53
   3 108  54 137
   4 108  54  53 107
   3 108 107  78
   4 108 107  53  54
   3 108  78 137
   3 108  78 107
   3 108 137  78
   3 108 137  54
   3 109  99  76
   3 109  99 135
   3 109  76  41
   3 109  76  99
   3 109  41  79
   3 109  41  76
   3 109  79  41
   4 109  79 113  59
   3 109  59 135
   4 109  59 118  99
   3 109 135  99
   3 109 135  59
   3 110  80  42
   4 110  80 114  59
   3 110  42  80
   3 110  42  77
   3 110  77  98
   3 110  77  42
   3 110  98  77
   3 110  98 134
   3 110 134  98
   3 110 134  59
   3 110  59 134
   4 110  59 117  98
   3 111  30 119
   3 111  30  41
   3 111 119 102
   3 111 119  30
   3 111 102  42
   3 111 102 119
   3 111  42  80
   3 111  42 102
   3 111  80  42
   3 111  80  79
   3 111  79  41
   3 111  79  80
   3 111  41  79
   3 111  41  30
   3 112 100  75
   3 112 100 138
   3 112  75 101
   3 112  75 100
   3 112 101  75
   3 112 101 139
   3 112 139 101
   3 112 139  59
   3 112  59 138
   3 112  59 139
   3 112 138 100
   3 112 138  59
   3 113  59 114
   4 113  59 109  79
   3 113 114  59
   4 113 114  80  79
   3 114  59 113
   4 114  59 110  80
   3 114 113  59
   4 114 113  79  80
   3 115  46 120
   3 115  46  26
   3 115 120  63
   3 115 120  46
   3 115  63 126
   3 115  63 120
   3 115 126  96
   3 115 126  63
   3 115  96  26
   3 115  96 126
   3 115  26  46
   3 115  26  96
   3 116  97 127
   3 116  97  27
   3 116 127  97
   3 116 127  64
   3 116  64 127
   3 116  64 121
   3 116 121  64
   3 116 121  58
   3 116  58 121
   3 116  58  27
   3 116  27  97
   3 116  27  58
   3 117  98  81
   3 117  98 134
   3 117  81 100
   3 117  81  98
   3 117 100  81
   3 117 100 138
   3 117 138 100
   3 117 138  59
   3 117  59 134
   3 117  59 138
   3 117 134  98
   3 117 134  59
   3 118 101  82
   3 118 101 139
   3 118  82  99
   3 118  82 101
   3 118  99  82
   3 118  99 135
   3 118 135  99
   3 118 135  59
   3 118  59 139
   3 118  59 135
   3 118 139 101
   3 118 139  59
   3 119  55 102
   3 119  55  30
   3 119 102 111
   3 119 102  55
   3 119 111  30
   3 119 111 102
   3 119  30  55
   3 119  30 111
   3 120  83  46
   4 120  83 128  63
   3 120  63 115
   4 120  63 128  83
   3 120 115  46
   3 120 115  63
   3 120  46 115
   3 120  46  83
   3 121 116  64
   3 121 116  58
   3 121  64 116
   4 121  64 129  83
   3 121  83  58
   4 121  83 129  64
   3 121  58  83
   3 121  58 116
   3 122  91  84
   3 122  91 130
   3 122  84  89
   3 122  84  91
   3 122  89 132
   3 122  89  84
   3 122 132  89
   3 122 132  53
   3 122  53 130
   3 122  53 132
   3 122 130  91
   3 122 130  53
   3 123  90  85
   3 123  90 133
   3 123  85  92
   3 123  85  90
   3 123  92  85
   3 123  92 131
   3 123 131  92
   3 123 131  54
   3 123  54 131
   3 123  54 133
   3 123 133  90
   3 123 133  54
   3 124  63 126
   4 124  63  64 125
   3 124  94 126
   4 124  94  95 125
   3 124 126  94
   3 124 126  63
   3 125  64 127
   4 125  64  63 124
   3 125 127  95
   3 125 127  64
   3 125  95 127
   4 125  95  94 124
   3 126 124  63
   3 126 124  94
   3 126  94  96
   3 126  94 124
   3 126  96 115
   3 126  96  94
   3 126 115  63
   3 126 115  96
   3 126  63 115
   3 126  63 124
   3 127 116  97
   3 127 116  64
   3 127  97  95
   3 127  97 116
   3 127  95 125
   3 127  95  97
   3 127 125  64
   3 127 125  95
   3 127  64 125
   3 127  64 116
   3 128  83 129
   4 128  83 120  63
   3 128 129  83
   4 128 129  64  63
   3 129 128  83
   4 129 128  63  64
   3 129  83 128
   4 129  83 121  64
   3 130  87  91
   4 130  87 140  53
   3 130  91  87
   3 130  91 122
   3 130 122  91
   3 130 122  53
   3 130  53 122
   4 130  53 140  87
   3 131 123  92
   3 131 123  54
   3 131  92  88
   3 131  92 123
   3 131  88  92
   4 131  88 141  54
   3 131  54 123
   4 131  54 141  88
   3 132 122  89
   3 132 122  53
   3 132  89 105
   3 132  89 122
   3 132 105 136
   3 132 105  89
   3 132 136 105
   3 132 136  53
   3 132  53 122
   3 132  53 136
   3 133 106  90
   3 133 106 137
   3 133  90 123
   3 133  90 106
   3 133 123  90
   3 133 123  54
   3 133  54 137
   3 133  54 123
   3 133 137 106
   3 133 137  54
   3 134 110  98
   3 134 110  59
   3 134  98 117
   3 134  98 110
   3 134 117  98
   3 134 117  59
   3 134  59 117
   3 134  59 110
   3 135 118  99
   3 135 118  59
   3 135  99 109
   3 135  99 118
   3 135 109  99
   3 135 109  59
   3 135  59 118
   3 135  59 109
   3 136 132 105
   3 136 132  53
   3 136 105  78
   3 136 105 132
   3 136  78 107
   3 136  78 105
   3 136 107  53
   3 136 107  78
   3 136  53 132
   3 136  53 107
   3 137 108  54
   3 137 108  78
   3 137  78 106
   3 137  78 108
   3 137 106 133
   3 137 106  78
   3 137 133 106
   3 137 133  54
   3 137  54 108
   3 137  54 133
   3 138 117 100
   3 138 117  59
   3 138 100 112
   3 138 100 117
   3 138 112 100
   3 138 112  59
   3 138  59 117
   3 138  59 112
   3 139 112 101
   3 139 112  59
   3 139 101 118
   3 139 101 112
   3 139 118 101
   3 139 118  59
   3 139  59 112
   3 139  59 118
