 COFF
          15          96          15
  
  -2.4331242835740814       0.57510661575599042        1.7239888929952583       0.60000002384185791       0.60000002384185791       0.60000002384185791       0.80000001192092896     
  -2.4331242835740818      -0.57510661575599042        1.7239888929952583       0.60000002384185791       0.60000002384185791       0.60000002384185791       0.80000001192092896     
  -3.8768255221810636E-003  -1.1620683211516736        1.7158988619029167       0.60000002384185791       0.60000002384185791       0.60000002384185791       0.80000001192092896     
   2.6525627920343591      -0.57278586644914020        1.7290031221654674       0.60000002384185791       0.60000002384185791       0.60000002384185791       0.80000001192092896     
   2.6525627920343591       0.57278586644914020        1.7290031221654674       0.60000002384185791       0.60000002384185791       0.60000002384185791       0.80000001192092896     
  -3.8768255221810644E-003   1.1620683211516736        1.7158988619029167       0.60000002384185791       0.60000002384185791       0.60000002384185791       0.80000001192092896     
  0.97813510583382568      -0.88919482117026472        1.7182872492806518       0.60000002384185791       0.60000002384185791       0.60000002384185791       0.80000001192092896     
  0.97813510583382568       0.88919482117026472        1.7182872492806518       0.60000002384185791       0.60000002384185791       0.60000002384185791       0.80000001192092896     
 -0.97976561528836648       0.88740629522790582        1.7172472131392762       0.60000002384185791       0.60000002384185791       0.60000002384185791       0.80000001192092896     
 -0.97976561528836648      -0.88740629522790582        1.7172472131392762       0.60000002384185791       0.60000002384185791       0.60000002384185791       0.80000001192092896     
   1.1513389457239489      -0.48348966904434743        1.3120345003730129       0.60000002384185791       0.60000002384185791       0.60000002384185791       0.80000001192092896     
  -1.1043951465440429       0.44618906833391758        1.3137091077004830       0.60000002384185791       0.60000002384185791       0.60000002384185791       0.80000001192092896     
  -1.1043951465440429      -0.44618906833391753        1.3137091077004830       0.60000002384185791       0.60000002384185791       0.60000002384185791       0.80000001192092896     
   1.1513389457239489       0.48348966904434743        1.3120345003730129       0.60000002384185791       0.60000002384185791       0.60000002384185791       0.80000001192092896     
   5.7251107672286949E-003  -2.5088368179804570E-017   1.0306063639638421        1.0000000000000000        1.0000000000000000        0.0000000000000000        1.0000000000000000     
  
   3   0   8  11
   3   0  11   8
   4   0  11  12   1
   3   1  12   9
   4   1  12  11   0
   3   1   9  12
   3   2  14   6
   3   2  14   9
   3   2   6  14
   3   2   9  14
   3   3   6  10
   3   3  10   6
   4   3  10  13   4
   3   4  13   7
   4   4  13  10   3
   3   4   7  13
   3   5   7  14
   3   5  14   7
   3   5  14   8
   3   5   8  14
   3   6   2  14
   3   6  14  10
   3   6  14   2
   3   6  10   3
   3   6  10  14
   3   6   3  10
   3   7   4  13
   3   7  13   4
   3   7  13  14
   3   7  14   5
   3   7  14  13
   3   7   5  14
   3   8   5  14
   3   8  14   5
   3   8  14  11
   3   8  11   0
   3   8  11  14
   3   8   0  11
   3   9   1  12
   3   9  12   1
   3   9  12  14
   3   9  14   2
   3   9  14  12
   3   9   2  14
   3  10   3   6
   4  10   3   4  13
   3  10   6  14
   3  10   6   3
   3  10  14  13
   3  10  14   6
   3  10  13  14
   4  10  13   4   3
   3  11   0   8
   4  11   0   1  12
   3  11   8  14
   3  11   8   0
   3  11  14  12
   3  11  14   8
   3  11  12  14
   4  11  12   1   0
   3  12   1   9
   4  12   1   0  11
   3  12  11  14
   4  12  11   0   1
   3  12  14   9
   3  12  14  11
   3  12   9   1
   3  12   9  14
   3  13   4   7
   4  13   4   3  10
   3  13  10  14
   4  13  10   3   4
   3  13  14   7
   3  13  14  10
   3  13   7   4
   3  13   7  14
   3  14   5   7
   3  14   5   8
   3  14   7  13
   3  14   7   5
   3  14  13  10
   3  14  13   7
   3  14  10   6
   3  14  10  13
   3  14   6   2
   3  14   6  10
   3  14   2   6
   3  14   2   9
   3  14   9  12
   3  14   9   2
   3  14  12  11
   3  14  12   9
   3  14  11   8
   3  14  11  12
   3  14   8   5
   3  14   8  11
