# Generated by dad_to_polygons. Vertex data from Humppa's .off file,
# polygons parsed from .dad file.
COFF
15 36 15
-2.433124 0.575107 1.723989 0.500000 0.500000 0.500000 1.0
-2.433124 -0.575107 1.723989 0.500000 0.500000 0.500000 1.0
-0.003877 -1.162068 1.715899 0.500000 0.500000 0.500000 1.0
2.652563 -0.572786 1.729003 0.500000 0.500000 0.500000 1.0
2.652563 0.572786 1.729003 0.500000 0.500000 0.500000 1.0
-0.003877 1.162068 1.715899 0.500000 0.500000 0.500000 1.0
0.978135 -0.889195 1.718287 0.500000 0.500000 0.500000 1.0
0.978135 0.889195 1.718287 0.500000 0.500000 0.500000 1.0
-0.979766 0.887406 1.717247 0.500000 0.500000 0.500000 1.0
-0.979766 -0.887406 1.717247 0.500000 0.500000 0.500000 1.0
1.151339 -0.483490 1.312035 0.500000 0.500000 0.500000 1.0
-1.104395 0.446189 1.313709 0.500000 0.500000 0.500000 1.0
-1.104395 -0.446189 1.313709 0.500000 0.500000 0.500000 1.0
1.151339 0.483490 1.312035 0.500000 0.500000 0.500000 1.0
0.005725 -0.000000 1.030606 1.0 1.0 0.0 1.0
3 0 11 12
3 0 12 11
3 0 12 1
3 0 1 12
3 2 6 14
3 2 14 6
3 3 4 13
3 3 13 4
3 3 13 10
3 3 10 13
3 5 14 7
3 5 7 14
3 6 3 10
3 6 10 3
3 7 4 13
3 7 13 4
3 9 12 1
3 9 1 12
3 9 14 12
3 9 12 14
3 10 6 14
3 10 14 6
3 11 8 0
3 11 0 8
3 11 14 8
3 11 8 14
3 12 14 11
3 12 11 14
3 13 14 7
3 13 7 14
3 13 14 10
3 13 10 14
3 14 2 9
3 14 9 2
3 14 5 8
3 14 8 5
