 COFF
          27         136          27
  
  -3.7898434616353969       0.65142498528748349        2.4470766631459786       0.60000002384185791       0.60000002384185791       0.60000002384185791       0.80000001192092896     
  -3.7898434616353973      -0.65142498528748349        2.4470766631459786       0.60000002384185791       0.60000002384185791       0.60000002384185791       0.80000001192092896     
  -2.4552077005729426E-002  -1.3919072012679277        2.3337461530686370       0.60000002384185791       0.60000002384185791       0.60000002384185791       0.80000001192092896     
   4.1018070491077454      -0.64233978645397860        2.4645015653812936       0.60000002384185791       0.60000002384185791       0.60000002384185791       0.80000001192092896     
   4.1018070491077454       0.64233978645397860        2.4645015653812936       0.60000002384185791       0.60000002384185791       0.60000002384185791       0.80000001192092896     
  -2.4552077005729433E-002   1.3919072012679277        2.3337461530686370       0.60000002384185791       0.60000002384185791       0.60000002384185791       0.80000001192092896     
  0.93877948571458913       -1.1001450022503676        2.3506077358961348       0.60000002384185791       0.60000002384185791       0.60000002384185791       0.80000001192092896     
  0.93877948571458913        1.1001450022503676        2.3506077358961348       0.60000002384185791       0.60000002384185791       0.60000002384185791       0.80000001192092896     
 -0.98866107661217395        1.0896901758937987        2.3520725286976725       0.60000002384185791       0.60000002384185791       0.60000002384185791       0.80000001192092896     
 -0.98866107661217451       -1.0896901758937987        2.3520725286976725       0.60000002384185791       0.60000002384185791       0.60000002384185791       0.80000001192092896     
   1.8973578759685739      -0.89230127336110232        2.5448250935241084       0.60000002384185791       0.60000002384185791       0.60000002384185791       0.80000001192092896     
   1.8973578759685739       0.89230127336110232        2.5448250935241084       0.60000002384185791       0.60000002384185791       0.60000002384185791       0.80000001192092896     
  -1.9574801543775955       0.89901360591379886        2.5052841163593085       0.60000002384185791       0.60000002384185791       0.60000002384185791       0.80000001192092896     
  -1.9574801543775959      -0.89901360591379842        2.5052841163593085       0.60000002384185791       0.60000002384185791       0.60000002384185791       0.80000001192092896     
   2.9336835760928506      -0.76913424086754523        2.4998424094833265       0.60000002384185791       0.60000002384185791       0.60000002384185791       0.80000001192092896     
   2.9336835760928506       0.76913424086754523        2.4998424094833265       0.60000002384185791       0.60000002384185791       0.60000002384185791       0.80000001192092896     
  -1.6500354469124989       0.76256495013693848        1.7900504472848981       0.60000002384185791       0.60000002384185791       0.60000002384185791       0.80000001192092896     
  -1.6500354469124989      -0.76256495013693848        1.7900504472848981       0.60000002384185791       0.60000002384185791       0.60000002384185791       0.80000001192092896     
   1.7243356810058228       0.75409481950571600        1.8012051842842547       0.60000002384185791       0.60000002384185791       0.60000002384185791       0.80000001192092896     
   2.9680220763333911      -0.63170236018337200        1.8802031671209625       0.60000002384185791       0.60000002384185791       0.60000002384185791       0.80000001192092896     
   2.9680220763333911       0.63170236018337200        1.8802031671209625       0.60000002384185791       0.60000002384185791       0.60000002384185791       0.80000001192092896     
  -2.8522767155353259       0.65816075899928861        1.9181792501037505       0.60000002384185791       0.60000002384185791       0.60000002384185791       0.80000001192092896     
  -2.8522767155353259      -0.65816075899928861        1.9181792501037505       0.60000002384185791       0.60000002384185791       0.60000002384185791       0.80000001192092896     
   3.0416134394294450E-004  -2.1105440989024848E-017   1.0306063639638421        1.0000000000000000        1.0000000000000000        0.0000000000000000        1.0000000000000000     
   1.7243356810058228      -0.75409481950571600        1.8012051842842547       0.60000002384185791       0.60000002384185791       0.60000002384185791       0.80000001192092896     
  0.88279299403149680       0.38491309572821547        1.4053104034767767       0.60000002384185791       0.60000002384185791       0.60000002384185791       0.80000001192092896     
  0.88279299403149680      -0.38491309572821547        1.4053104034767767       0.60000002384185791       0.60000002384185791       0.60000002384185791       0.80000001192092896     
  
   3   2  23   6
   3   2  23   9
   3   2   6  23
   3   2   9  23
   3   3  14  19
   3   3  19  14
   4   3  19  20   4
   3   4  20  15
   4   4  20  19   3
   3   4  15  20
   3   5   7  23
   3   5  23   7
   3   5  23   8
   3   5   8  23
   3   6   2  23
   3   6  23   2
   4   6  23  26  24
   3   6  24  10
   4   6  24  26  23
   3   6  10  24
   3   7  11  18
   3   7  18  11
   4   7  18  25  23
   3   7  23   5
   4   7  23  25  18
   3   7   5  23
   3   8   5  23
   3   8  23   5
   3   8  23  16
   3   8  16  12
   3   8  16  23
   3   8  12  16
   3   9  13  17
   3   9  17  23
   3   9  17  13
   3   9  23   2
   3   9  23  17
   3   9   2  23
   3  10   6  24
   3  10  24  14
   3  10  24   6
   3  10  14  24
   3  11  15  18
   3  11  18   7
   3  11  18  15
   3  11   7  18
   3  12   8  16
   3  12  16   8
   4  12  16  21   0
   3  13  17   9
   4  13  17  22   1
   3  13   9  17
   3  14  10  24
   3  14  24  19
   3  14  24  10
   3  14  19   3
   3  14  19  24
   3  14   3  19
   3  15   4  20
   3  15  20   4
   3  15  20  18
   3  15  18  20
   3  15  18  11
   3  15  11  18
   3  16  12   8
   4  16  12   0  21
   3  16   8  23
   3  16   8  12
   3  16  23  17
   3  16  23   8
   3  16  17  23
   4  16  17  22  21
   3  17  16  23
   4  17  16  21  22
   3  17  23   9
   3  17  23  16
   3  17   9  13
   3  17   9  23
   3  17  13   9
   4  17  13   1  22
   3  18  20  15
   4  18  20  19  24
   3  18   7  11
   4  18   7  23  25
   3  18  11  15
   3  18  11   7
   3  18  15  20
   3  18  15  11
   3  19   3  14
   4  19   3   4  20
   3  19  14  24
   3  19  14   3
   3  19  24  14
   4  19  24  18  20
   3  20   4  15
   4  20   4   3  19
   3  20  18  15
   4  20  18  24  19
   3  20  15   4
   3  20  15  18
   3  23   5   7
   3  23   5   8
   3  23   7   5
   4  23   7  18  25
   3  23  25  26
   4  23  25  18   7
   3  23  26  25
   4  23  26  24   6
   3  23   6   2
   4  23   6  24  26
   3  23   2   6
   3  23   2   9
   3  23   9  17
   3  23   9   2
   3  23  17  16
   3  23  17   9
   3  23  16   8
   3  23  16  17
   3  23   8   5
   3  23   8  16
   3  24  19  14
   4  24  19  20  18
   3  24  14  10
   3  24  14  19
   3  24  10   6
   3  24  10  14
   3  24   6  10
   4  24   6  23  26
   3  25  26  23
   4  25  26  24  18
   3  25  23  26
   4  25  23   7  18
   3  26  23  25
   4  26  23   6  24
   3  26  25  23
   4  26  25  18  24
