# Generated by dad_to_polygons. Vertex data from Humppa's .off file,
# polygons parsed from .dad file.
COFF
27 72 27
-3.789843 0.651425 2.447077 0.500000 0.500000 0.500000 1.0
-3.789843 -0.651425 2.447077 0.500000 0.500000 0.500000 1.0
-0.024552 -1.391907 2.333746 0.500000 0.500000 0.500000 1.0
4.101807 -0.642340 2.464502 0.500000 0.500000 0.500000 1.0
4.101807 0.642340 2.464502 0.500000 0.500000 0.500000 1.0
-0.024552 1.391907 2.333746 0.500000 0.500000 0.500000 1.0
0.938779 -1.100145 2.350608 0.500000 0.500000 0.500000 1.0
0.938779 1.100145 2.350608 0.500000 0.500000 0.500000 1.0
-0.988661 1.089690 2.352073 0.500000 0.500000 0.500000 1.0
-0.988661 -1.089690 2.352073 0.500000 0.500000 0.500000 1.0
1.897358 -0.892301 2.544825 0.500000 0.500000 0.500000 1.0
1.897358 0.892301 2.544825 0.500000 0.500000 0.500000 1.0
-1.957480 0.899014 2.505284 0.500000 0.500000 0.500000 1.0
-1.957480 -0.899014 2.505284 0.500000 0.500000 0.500000 1.0
2.933684 -0.769134 2.499842 0.500000 0.500000 0.500000 1.0
2.933684 0.769134 2.499842 0.500000 0.500000 0.500000 1.0
-1.650035 0.762565 1.790050 0.500000 0.500000 0.500000 1.0
-1.650035 -0.762565 1.790050 0.500000 0.500000 0.500000 1.0
1.724336 0.754095 1.801205 0.500000 0.500000 0.500000 1.0
2.968022 -0.631702 1.880203 0.500000 0.500000 0.500000 1.0
2.968022 0.631702 1.880203 0.500000 0.500000 0.500000 1.0
-2.852277 0.658161 1.918179 0.500000 0.500000 0.500000 1.0
-2.852277 -0.658161 1.918179 0.500000 0.500000 0.500000 1.0
0.000304 -0.000000 1.030606 1.0 1.0 0.0 1.0
1.724336 -0.754095 1.801205 0.500000 0.500000 0.500000 1.0
0.882793 0.384913 1.405310 0.500000 0.500000 0.500000 1.0
0.882793 -0.384913 1.405310 0.500000 0.500000 0.500000 1.0
3 0 21 22
3 0 22 21
3 0 22 1
3 0 1 22
3 4 3 19
3 4 19 3
3 4 19 20
3 4 20 19
3 6 2 23
3 6 23 2
3 6 23 26
3 6 26 23
3 6 26 24
3 6 24 26
3 7 5 23
3 7 23 5
3 8 5 23
3 8 23 5
3 8 16 12
3 8 12 16
3 9 13 17
3 9 17 13
3 9 17 23
3 9 23 17
3 11 15 18
3 11 18 15
3 11 18 7
3 11 7 18
3 12 16 21
3 12 21 16
3 12 21 0
3 12 0 21
3 13 1 22
3 13 22 1
3 13 22 17
3 13 17 22
3 14 19 3
3 14 3 19
3 14 24 10
3 14 10 24
3 14 24 19
3 14 19 24
3 15 18 20
3 15 20 18
3 17 16 21
3 17 21 16
3 17 21 22
3 17 22 21
3 18 19 24
3 18 24 19
3 18 20 19
3 18 19 20
3 18 23 7
3 18 7 23
3 18 24 26
3 18 26 24
3 18 25 23
3 18 23 25
3 18 26 25
3 18 25 26
3 20 15 4
3 20 4 15
3 23 2 9
3 23 9 2
3 23 8 16
3 23 16 8
3 23 17 16
3 23 16 17
3 23 26 25
3 23 25 26
3 24 10 6
3 24 6 10
