 COFF
          41         264          41
  
  -4.6419005472933303       0.70174399735623161        3.2077686074208187       0.60000002384185791       0.60000002384185791       0.60000002384185791       0.80000001192092896     
  -4.6419005472933330      -0.70174399735623139        3.2077686074208187       0.60000002384185791       0.60000002384185791       0.60000002384185791       0.80000001192092896     
  -2.6124127375097460E-002  -1.5806995420951528        2.9733838560972137       0.60000002384185791       0.60000002384185791       0.60000002384185791       0.80000001192092896     
   5.1884442700072997      -0.69703461000815559        3.2206630390285449       0.60000002384185791       0.60000002384185791       0.60000002384185791       0.80000001192092896     
   5.1884442700072997       0.69703461000815559        3.2206630390285449       0.60000002384185791       0.60000002384185791       0.60000002384185791       0.80000001192092896     
  -2.6124127375097492E-002   1.5806995420951526        2.9733838560972137       0.60000002384185791       0.60000002384185791       0.60000002384185791       0.80000001192092896     
  0.98678826585430701       -1.2906927801451755        3.0920636685416940       0.60000002384185791       0.60000002384185791       0.60000002384185791       0.80000001192092896     
  0.98678826585430701        1.2906927801451755        3.0920636685416940       0.60000002384185791       0.60000002384185791       0.60000002384185791       0.80000001192092896     
  -1.0360676784608254        1.2723712191654606        3.0623047322305470       0.60000002384185791       0.60000002384185791       0.60000002384185791       0.80000001192092896     
  -1.0360676784608256       -1.2723712191654615        3.0623047322305474       0.60000002384185791       0.60000002384185791       0.60000002384185791       0.80000001192092896     
   1.9223543121241085      -0.99287834023877619        3.2854236808292314       0.60000002384185791       0.60000002384185791       0.60000002384185791       0.80000001192092896     
   1.9223543121241085       0.99287834023877619        3.2854236808292314       0.60000002384185791       0.60000002384185791       0.60000002384185791       0.80000001192092896     
  -1.9802810885351938        1.0054535223663603        3.2548059072017215       0.60000002384185791       0.60000002384185791       0.60000002384185791       0.80000001192092896     
  -1.9802810885351936       -1.0054535223663597        3.2548059072017219       0.60000002384185791       0.60000002384185791       0.60000002384185791       0.80000001192092896     
   3.0307664549869324      -0.87277875438913144        3.2774519076963617       0.60000002384185791       0.60000002384185791       0.60000002384185791       0.80000001192092896     
   3.0307664549869329       0.87277875438913144        3.2774519076963613       0.60000002384185791       0.60000002384185791       0.60000002384185791       0.80000001192092896     
  -2.9941362355702048       0.86732694294158053        3.2385731549835297       0.60000002384185791       0.60000002384185791       0.60000002384185791       0.80000001192092896     
  -2.9941362355702057      -0.86732694294158019        3.2385731549835288       0.60000002384185791       0.60000002384185791       0.60000002384185791       0.80000001192092896     
   4.0204109833889321      -0.80117785713446643        3.3059077905122876       0.60000002384185791       0.60000002384185791       0.60000002384185791       0.80000001192092896     
   4.0204109833889321       0.80117785713446643        3.3059077905122876       0.60000002384185791       0.60000002384185791       0.60000002384185791       0.80000001192092896     
   3.2901325859284176       0.61835113879486803        2.3410133446645589        1.0000000000000000        1.0000000000000000        0.0000000000000000        1.0000000000000000     
  -3.3256923175271891       0.66311765700974912        2.5284741087501219        1.0000000000000000        1.0000000000000000        0.0000000000000000        1.0000000000000000     
  -3.3256923175271900      -0.66311765700974878        2.5284741087501215        1.0000000000000000        1.0000000000000000        0.0000000000000000        1.0000000000000000     
  -2.5667453672382011E-002  -1.8083563205423425E-017   1.0306063639638421        1.0000000000000000        1.0000000000000000        0.0000000000000000        1.0000000000000000     
   2.0779288152948130      -0.87429384324004089        2.4099754016727974       0.60000002384185791       0.60000002384185791       0.60000002384185791       0.80000001192092896     
   1.1643144950637672       0.84296272785270354        1.7638381923463975       0.60000002384185791       0.60000002384185791       0.60000002384185791       0.80000001192092896     
   1.1643144950637669      -0.84296272785270365        1.7638381923463975       0.60000002384185791       0.60000002384185791       0.60000002384185791       0.80000001192092896     
 -0.81768449621434569        1.1331364978750773        2.2438225206223863       0.60000002384185791       0.60000002384185791       0.60000002384185791       0.80000001192092896     
 -0.81768449621434580       -1.1331364978750775        2.2438225206223863       0.60000002384185791       0.60000002384185791       0.60000002384185791       0.80000001192092896     
  -1.6807007533267728       0.60589860418808805        1.5783046255311206       0.60000002384185791       0.60000002384185791       0.60000002384185791       0.80000001192092896     
  -1.6807007533267728      -0.60589860418808783        1.5783046255311206       0.60000002384185791       0.60000002384185791       0.60000002384185791       0.80000001192092896     
  0.82019896871520404       -1.0616202941442492        2.1126260521174287       0.60000002384185791       0.60000002384185791       0.60000002384185791       0.80000001192092896     
  0.82019896871520404        1.0616202941442492        2.1126260521174292       0.60000002384185791       0.60000002384185791       0.60000002384185791       0.80000001192092896     
  -2.0873950903090366       0.87496498377548348        2.3949668198169221       0.60000002384185791       0.60000002384185791       0.60000002384185791       0.80000001192092896     
  -2.0873950903090366      -0.87496498377548326        2.3949668198169216       0.60000002384185791       0.60000002384185791       0.60000002384185791       0.80000001192092896     
  -3.9480135251721893E-002  -1.1768607978802459        2.0914023471835006       0.60000002384185791       0.60000002384185791       0.60000002384185791       0.80000001192092896     
  -3.9480135251721900E-002   1.1768607978802457        2.0914023471835006       0.60000002384185791       0.60000002384185791       0.60000002384185791       0.80000001192092896     
   2.0779288152948130       0.87429384324004111        2.4099754016727979       0.60000002384185791       0.60000002384185791       0.60000002384185791       0.80000001192092896     
   3.2901325859284172      -0.61835113879486803        2.3410133446645589        1.0000000000000000        1.0000000000000000        0.0000000000000000        1.0000000000000000     
   4.2629205313842018      -0.65276126727552675        2.7653637575854666       0.60000002384185791       0.60000002384185791       0.60000002384185791       0.80000001192092896     
   4.2629205313842018       0.65276126727552664        2.7653637575854666       0.60000002384185791       0.60000002384185791       0.60000002384185791       0.80000001192092896     
  
   3   0  16  21
   3   0  21  16
   4   0  21  22   1
   3   1  22  17
   4   1  22  21   0
   3   1  17  22
   3   2  35  28
   3   2  35  31
   3   2  31  35
   3   2  31   6
   3   2   6  31
   3   2   9  28
   3   2  28  35
   3   2  28   9
   3   5   7  32
   3   5  32  36
   3   5  32   7
   3   5  36  32
   3   5  36  27
   3   5  27  36
   3   5  27   8
   3   5   8  27
   3   6   2  31
   3   6  31   2
   3   6  31  24
   3   6  24  10
   3   6  24  31
   3   6  10  24
   3   7  11  37
   3   7  37  32
   3   7  37  11
   3   7  32  37
   3   7  32   5
   3   7   5  32
   3   8   5  27
   3   8  27   5
   3   8  27  33
   3   8  33  12
   3   8  33  27
   3   8  12  33
   3   9  13  34
   3   9  34  28
   3   9  34  13
   3   9  28  34
   3   9  28   2
   3   9   2  28
   3  10   6  24
   3  10  24  14
   3  10  24   6
   3  10  14  24
   3  11  15  37
   3  11  37   7
   3  11  37  15
   3  11   7  37
   3  12   8  33
   3  12  33  16
   3  12  33   8
   3  12  16  33
   3  13  17  34
   3  13  34   9
   3  13  34  17
   3  13   9  34
   3  14  10  24
   3  14  24  38
   3  14  24  10
   3  14  38  18
   3  14  38  24
   3  14  18  38
   3  15  19  20
   3  15  20  37
   3  15  20  19
   3  15  37  20
   3  15  37  11
   3  15  11  37
   3  16  12  33
   3  16  33  21
   3  16  33  12
   3  16  21   0
   3  16  21  33
   3  16   0  21
   3  17   1  22
   3  17  22   1
   3  17  22  34
   3  17  34  22
   3  17  34  13
   3  17  13  34
   3  18  14  38
   3  18  38  14
   4  18  38  39   3
   3  19  20  15
   4  19  20  40   4
   3  19  15  20
   3  20  37  15
   4  20  37  24  38
   3  20  15  19
   3  20  15  37
   3  20  19  15
   4  20  19   4  40
   3  21   0  16
   4  21   0   1  22
   3  21  16  33
   3  21  16   0
   3  21  33  16
   4  21  33  34  22
   3  22   1  17
   4  22   1   0  21
   3  22  34  17
   4  22  34  33  21
   3  22  17   1
   3  22  17  34
   3  23  36  32
   3  23  36  27
   3  23  32  25
   3  23  32  36
   3  23  25  26
   3  23  25  32
   3  23  26  25
   3  23  26  31
   3  23  31  35
   3  23  31  26
   3  23  35  28
   3  23  35  31
   3  23  28  35
   4  23  28  34  30
   3  23  30  29
   4  23  30  34  28
   3  23  29  30
   4  23  29  33  27
   3  23  27  36
   4  23  27   5  32
   3  24  38  14
   4  24  38  20  37
   3  24  14  10
   3  24  14  38
   3  24  10   6
   3  24  10  14
   3  24   6  31
   3  24   6  10
   3  24  31  26
   3  24  31   6
   3  24  26  31
   4  24  26  25  37
   3  25  37  32
   4  25  37  24  26
   3  25  26  23
   4  25  26  24  37
   3  25  23  32
   3  25  23  26
   3  25  32  37
   3  25  32  23
   3  26  23  25
   3  26  23  31
   3  26  25  23
   4  26  25  37  24
   3  26  24  31
   4  26  24  37  25
   3  26  31  23
   3  26  31  24
   3  27   5  36
   3  27   5   8
   3  27  36  23
   3  27  36   5
   3  27  23  36
   4  27  23  32   5
   3  27  33   8
   4  27  33  29  23
   3  27   8   5
   3  27   8  33
   3  28  34   9
   4  28  34  30  23
   3  28  23  35
   4  28  23  31   2
   3  28  35  23
   3  28  35   2
   3  28   2  35
   3  28   2   9
   3  28   9  34
   3  28   9   2
   3  29  23  30
   4  29  23  27  33
   3  29  30  23
   4  29  30  34  33
   3  30  29  23
   4  30  29  33  34
   3  30  23  29
   4  30  23  28  34
   3  31   2  35
   3  31   2   6
   3  31  35  23
   3  31  35   2
   3  31  23  26
   3  31  23  35
   3  31  26  23
   3  31  26  24
   3  31  24   6
   3  31  24  26
   3  31   6   2
   3  31   6  24
   3  32  37  25
   3  32  37   7
   3  32  25  37
   3  32  25  23
   3  32  23  36
   3  32  23  25
   3  32  36  23
   3  32  36   5
   3  32   5   7
   3  32   5  36
   3  32   7  37
   3  32   7   5
   3  33  21  16
   4  33  21  22  34
   3  33  16  12
   3  33  16  21
   3  33  12   8
   3  33  12  16
   3  33   8  27
   3  33   8  12
   3  33  27   8
   4  33  27  23  29
   3  34  22  17
   4  34  22  21  33
   3  34  28   9
   4  34  28  23  30
   3  34   9  13
   3  34   9  28
   3  34  13  17
   3  34  13   9
   3  34  17  22
   3  34  17  13
   3  35  28  23
   3  35  28   2
   3  35  23  31
   3  35  23  28
   3  35  31   2
   3  35  31  23
   3  35   2  31
   3  35   2  28
   3  36  32  23
   3  36  32   5
   3  36  23  32
   3  36  23  27
   3  36  27   5
   3  36  27  23
   3  36   5  32
   3  36   5  27
   3  37  20  15
   4  37  20  38  24
   3  37  25  32
   4  37  25  26  24
   3  37  32  25
   3  37  32   7
   3  37   7  11
   3  37   7  32
   3  37  11  15
   3  37  11   7
   3  37  15  20
   3  37  15  11
   3  38  18  14
   4  38  18   3  39
   3  38  14  24
   3  38  14  18
   3  38  24  14
   4  38  24  37  20
