# Generated by dad_to_polygons. Vertex data from Humppa's .off file,
# polygons parsed from .dad file.
COFF
41 120 41
-4.641901 0.701744 3.207769 0.500000 0.500000 0.500000 1.0
-4.641901 -0.701744 3.207769 0.500000 0.500000 0.500000 1.0
-0.026124 -1.580700 2.973384 0.500000 0.500000 0.500000 1.0
5.188444 -0.697035 3.220663 0.500000 0.500000 0.500000 1.0
5.188444 0.697035 3.220663 0.500000 0.500000 0.500000 1.0
-0.026124 1.580700 2.973384 0.500000 0.500000 0.500000 1.0
0.986788 -1.290693 3.092064 0.500000 0.500000 0.500000 1.0
0.986788 1.290693 3.092064 0.500000 0.500000 0.500000 1.0
-1.036068 1.272371 3.062305 0.500000 0.500000 0.500000 1.0
-1.036068 -1.272371 3.062305 0.500000 0.500000 0.500000 1.0
1.922354 -0.992878 3.285424 0.500000 0.500000 0.500000 1.0
1.922354 0.992878 3.285424 0.500000 0.500000 0.500000 1.0
-1.980281 1.005454 3.254806 0.500000 0.500000 0.500000 1.0
-1.980281 -1.005454 3.254806 0.500000 0.500000 0.500000 1.0
3.030766 -0.872779 3.277452 0.500000 0.500000 0.500000 1.0
3.030766 0.872779 3.277452 0.500000 0.500000 0.500000 1.0
-2.994136 0.867327 3.238573 0.500000 0.500000 0.500000 1.0
-2.994136 -0.867327 3.238573 0.500000 0.500000 0.500000 1.0
4.020411 -0.801178 3.305908 0.500000 0.500000 0.500000 1.0
4.020411 0.801178 3.305908 0.500000 0.500000 0.500000 1.0
3.290133 0.618351 2.341013 1.0 1.0 0.0 1.0
-3.325692 0.663118 2.528474 1.0 1.0 0.0 1.0
-3.325692 -0.663118 2.528474 1.0 1.0 0.0 1.0
-0.025667 -0.000000 1.030606 1.0 1.0 0.0 1.0
2.077929 -0.874294 2.409975 0.500000 0.500000 0.500000 1.0
1.164314 0.842963 1.763838 0.500000 0.500000 0.500000 1.0
1.164314 -0.842963 1.763838 0.500000 0.500000 0.500000 1.0
-0.817684 1.133136 2.243823 0.500000 0.500000 0.500000 1.0
-0.817684 -1.133136 2.243823 0.500000 0.500000 0.500000 1.0
-1.680701 0.605899 1.578305 0.500000 0.500000 0.500000 1.0
-1.680701 -0.605899 1.578305 0.500000 0.500000 0.500000 1.0
0.820199 -1.061620 2.112626 0.500000 0.500000 0.500000 1.0
0.820199 1.061620 2.112626 0.500000 0.500000 0.500000 1.0
-2.087395 0.874965 2.394967 0.500000 0.500000 0.500000 1.0
-2.087395 -0.874965 2.394967 0.500000 0.500000 0.500000 1.0
-0.039480 -1.176861 2.091402 0.500000 0.500000 0.500000 1.0
-0.039480 1.176861 2.091402 0.500000 0.500000 0.500000 1.0
2.077929 0.874294 2.409975 0.500000 0.500000 0.500000 1.0
3.290133 -0.618351 2.341013 1.0 1.0 0.0 1.0
4.262921 -0.652761 2.765364 0.500000 0.500000 0.500000 1.0
4.262921 0.652761 2.765364 0.500000 0.500000 0.500000 1.0
3 0 21 22
3 0 22 21
3 0 22 1
3 0 1 22
3 2 9 28
3 2 28 9
3 2 28 35
3 2 35 28
3 2 31 6
3 2 6 31
3 3 18 38
3 3 38 18
3 3 38 39
3 3 39 38
3 3 39 40
3 3 40 39
3 3 40 4
3 3 4 40
3 4 19 20
3 4 20 19
3 4 20 40
3 4 40 20
3 5 7 32
3 5 32 7
3 5 8 27
3 5 27 8
3 5 27 36
3 5 36 27
3 5 32 36
3 5 36 32
3 6 24 10
3 6 10 24
3 6 31 24
3 6 24 31
3 8 27 33
3 8 33 27
3 9 13 34
3 9 34 13
3 11 37 7
3 11 7 37
3 12 33 8
3 12 8 33
3 14 18 38
3 14 38 18
3 15 37 11
3 15 11 37
3 16 12 33
3 16 33 12
3 16 21 0
3 16 0 21
3 17 34 13
3 17 13 34
3 20 15 37
3 20 37 15
3 20 19 15
3 20 15 19
3 20 24 37
3 20 37 24
3 20 38 24
3 20 24 38
3 20 39 38
3 20 38 39
3 20 40 39
3 20 39 40
3 21 16 33
3 21 33 16
3 22 1 17
3 22 17 1
3 22 33 21
3 22 21 33
3 22 34 33
3 22 33 34
3 23 25 32
3 23 32 25
3 23 26 25
3 23 25 26
3 23 27 33
3 23 33 27
3 23 27 36
3 23 36 27
3 23 29 30
3 23 30 29
3 23 30 34
3 23 34 30
3 23 31 26
3 23 26 31
3 23 32 36
3 23 36 32
3 23 33 29
3 23 29 33
3 23 34 28
3 23 28 34
3 23 35 28
3 23 28 35
3 24 10 14
3 24 14 10
3 24 25 37
3 24 37 25
3 24 26 25
3 24 25 26
3 24 26 31
3 24 31 26
3 28 9 34
3 28 34 9
3 29 33 34
3 29 34 33
3 29 34 30
3 29 30 34
3 31 2 35
3 31 35 2
3 31 23 35
3 31 35 23
3 32 37 7
3 32 7 37
3 32 37 25
3 32 25 37
3 34 17 22
3 34 22 17
3 38 14 24
3 38 24 14
