 COFF
          54         392          54
  
  -5.4191941186380488       0.74874564193670490        3.5546483644573161       0.60000002384185791       0.60000002384185791       0.60000002384185791       0.80000001192092896     
  -5.4191941186380541      -0.74874564193670468        3.5546483644573161       0.60000002384185791       0.60000002384185791       0.60000002384185791       0.80000001192092896     
  -2.6829536425775864E-002  -1.6615087968538089        3.3035748985277267       0.60000002384185791       0.60000002384185791       0.60000002384185791       0.80000001192092896     
   6.2535106334226080      -0.75098809035977776        3.5575300600641464       0.60000002384185791       0.60000002384185791       0.60000002384185791       0.80000001192092896     
   6.2535106334226107       0.75098809035977776        3.5575300600641464       0.60000002384185791       0.60000002384185791       0.60000002384185791       0.80000001192092896     
  -2.6829536425775912E-002   1.6615087968538087        3.3035748985277267       0.60000002384185791       0.60000002384185791       0.60000002384185791       0.80000001192092896     
   1.0063863729916467       -1.3610203361193132        3.4313152744691582       0.60000002384185791       0.60000002384185791       0.60000002384185791       0.80000001192092896     
   1.0063863729916467        1.3610203361193132        3.4313152744691582       0.60000002384185791       0.60000002384185791       0.60000002384185791       0.80000001192092896     
  -1.0562452372706879        1.3415700389250913        3.4037397071784081       0.60000002384185791       0.60000002384185791       0.60000002384185791       0.80000001192092896     
  -1.0562452372706881       -1.3415700389250915        3.4037397071784086       0.60000002384185791       0.60000002384185791       0.60000002384185791       0.80000001192092896     
   1.9372492647359527       -1.0570577702054116        3.6355695803034696       0.60000002384185791       0.60000002384185791       0.60000002384185791       0.80000001192092896     
   1.9372492647359527        1.0570577702054116        3.6355695803034696       0.60000002384185791       0.60000002384185791       0.60000002384185791       0.80000001192092896     
  -1.9935258990944160        1.0618152269127206        3.6125769457816919       0.60000002384185791       0.60000002384185791       0.60000002384185791       0.80000001192092896     
  -1.9935258990944158       -1.0618152269127199        3.6125769457816923       0.60000002384185791       0.60000002384185791       0.60000002384185791       0.80000001192092896     
   3.0096919827794952      -0.98604877276542813        3.6060488082860078       0.60000002384185791       0.60000002384185791       0.60000002384185791       0.80000001192092896     
   3.0096919827794948       0.98604877276542824        3.6060488082860087       0.60000002384185791       0.60000002384185791       0.60000002384185791       0.80000001192092896     
  -2.9898562853748896       0.95301900468893652        3.5848749690424730       0.60000002384185791       0.60000002384185791       0.60000002384185791       0.80000001192092896     
  -2.9898562853748896      -0.95301900468893608        3.5848749690424722       0.60000002384185791       0.60000002384185791       0.60000002384185791       0.80000001192092896     
   3.9999425500097501      -0.94572853425221548        3.7412546009230767       0.60000002384185791       0.60000002384185791       0.60000002384185791       0.80000001192092896     
   3.9999425500097492       0.94572853425221559        3.7412546009230767       0.60000002384185791       0.60000002384185791       0.60000002384185791       0.80000001192092896     
  -3.9817177336565033       0.88724369377283241        3.6750026821764545       0.60000002384185791       0.60000002384185791       0.60000002384185791       0.80000001192092896     
  -3.9817177336565028      -0.88724369377283219        3.6750026821764536       0.60000002384185791       0.60000002384185791       0.60000002384185791       0.80000001192092896     
   4.9975592054543956      -0.84971903336559529        3.6448481662542482       0.60000002384185791       0.60000002384185791       0.60000002384185791       0.80000001192092896     
   4.9975592054543956       0.84971903336559529        3.6448481662542482       0.60000002384185791       0.60000002384185791       0.60000002384185791       0.80000001192092896     
   2.0617349104028064      -0.97853246276472428        2.7275019188293892       0.60000002384185791       0.60000002384185791       0.60000002384185791       0.80000001192092896     
   1.2337439887306660        1.0083687167504212        2.0138063801696986       0.60000002384185791       0.60000002384185791       0.60000002384185791       0.80000001192092896     
   1.2337439887306660       -1.0083687167504214        2.0138063801696986       0.60000002384185791       0.60000002384185791       0.60000002384185791       0.80000001192092896     
 -0.94617315734917085        1.2520190401932882        2.5486910847147684       0.60000002384185791       0.60000002384185791       0.60000002384185791       0.80000001192092896     
 -0.94617315734917096       -1.2520190401932887        2.5486910847147684       0.60000002384185791       0.60000002384185791       0.60000002384185791       0.80000001192092896     
  -1.7721890355973662       0.70690911472752083        1.7535840989808844       0.60000002384185791       0.60000002384185791       0.60000002384185791       0.80000001192092896     
  -1.7721890355973664      -0.70690911472752083        1.7535840989808846       0.60000002384185791       0.60000002384185791       0.60000002384185791       0.80000001192092896     
  0.82903317075763017       -1.2103909244054136        2.3605959038496795       0.60000002384185791       0.60000002384185791       0.60000002384185791       0.80000001192092896     
  0.82903317075762994        1.2103909244054132        2.3605959038496800       0.60000002384185791       0.60000002384185791       0.60000002384185791       0.80000001192092896     
  -2.0892963903636632       0.95636114174319098        2.6903632754770856       0.60000002384185791       0.60000002384185791       0.60000002384185791       0.80000001192092896     
  -2.0892963903636632      -0.95636114174319065        2.6903632754770856       0.60000002384185791       0.60000002384185791       0.60000002384185791       0.80000001192092896     
  -4.0217897488947676E-002  -1.3280152164797341        2.3592507570821533       0.60000002384185791       0.60000002384185791       0.60000002384185791       0.80000001192092896     
  -4.0217897488947697E-002   1.3280152164797339        2.3592507570821533       0.60000002384185791       0.60000002384185791       0.60000002384185791       0.80000001192092896     
   2.0617349104028064       0.97853246276472439        2.7275019188293896       0.60000002384185791       0.60000002384185791       0.60000002384185791       0.80000001192092896     
   3.3066094869915692      -0.61862124639795568        2.3410133446645589        1.0000000000000000        1.0000000000000000        0.0000000000000000        1.0000000000000000     
   4.7166891655868746      -0.69184059879891358        2.8257739733197518       0.60000002384185791       0.60000002384185791       0.60000002384185791       0.80000001192092896     
   4.7166891655868746       0.69184059879891346        2.8257739733197518       0.60000002384185791       0.60000002384185791       0.60000002384185791       0.80000001192092896     
 -0.43749484335191419      -0.80368064721951116        1.8158926029536744       0.60000002384185791       0.60000002384185791       0.60000002384185791       0.80000001192092896     
 -0.43749484335191413       0.80368064721951094        1.8158926029536744       0.60000002384185791       0.60000002384185791       0.60000002384185791       0.80000001192092896     
   3.3066094869915692       0.61862124639795568        2.3410133446645589        1.0000000000000000        1.0000000000000000        0.0000000000000000        1.0000000000000000     
  -3.3282044742911294       0.65891023989957198        2.5284741087501219        1.0000000000000000        1.0000000000000000        0.0000000000000000        1.0000000000000000     
  -4.4221621518756757       0.69380192412024344        2.9887568319368918       0.60000002384185791       0.60000002384185791       0.60000002384185791       0.80000001192092896     
  -4.4221621518756757      -0.69380192412024244        2.9887568319368918       0.60000002384185791       0.60000002384185791       0.60000002384185791       0.80000001192092896     
  -3.3282044742911303      -0.65891023989957165        2.5284741087501215        1.0000000000000000        1.0000000000000000        0.0000000000000000        1.0000000000000000     
  -3.0447402482978118E-002  -3.5171164176028603E-017   1.0306063639638421        1.0000000000000000        1.0000000000000000        0.0000000000000000        1.0000000000000000     
   4.2202394604878322      -0.76173910248370347        3.0050155943824053       0.60000002384185791       0.60000002384185791       0.60000002384185791       0.80000001192092896     
   4.2202394604878322       0.76173910248370336        3.0050155943824053       0.60000002384185791       0.60000002384185791       0.60000002384185791       0.80000001192092896     
  -1.0017694572508586       0.35146080612625491        1.3769671419065699       0.60000002384185791       0.60000002384185791       0.60000002384185791       0.80000001192092896     
  -1.0017694572508586      -0.35146080612625474        1.3769671419065701       0.60000002384185791       0.60000002384185791       0.60000002384185791       0.80000001192092896     
   1.2516948258805844       -1.0973562028061102E-016   2.0073353003701193       0.60000002384185791       0.60000002384185791       0.60000002384185791       0.80000001192092896     
  
   3   2  35  28
   3   2  35  31
   3   2  31  35
   3   2  31   6
   3   2   6  31
   3   2   9  28
   3   2  28  35
   3   2  28   9
   3   3  22  39
   3   3  39  22
   4   3  39  40   4
   3   4  40  23
   4   4  40  39   3
   3   4  23  40
   3   5   7  32
   3   5  32  36
   3   5  32   7
   3   5  36  32
   3   5  36  27
   3   5  27  36
   3   5  27   8
   3   5   8  27
   3   6   2  31
   3   6  31   2
   3   6  31  24
   3   6  24  10
   3   6  24  31
   3   6  10  24
   3   7  11  37
   3   7  37  32
   3   7  37  11
   3   7  32  37
   3   7  32   5
   3   7   5  32
   3   8   5  27
   3   8  27   5
   3   8  27  33
   3   8  33  12
   3   8  33  27
   3   8  12  33
   3   9  13  34
   3   9  34  28
   3   9  34  13
   3   9  28  34
   3   9  28   2
   3   9   2  28
   3  10   6  24
   3  10  24  14
   3  10  24   6
   3  10  14  24
   3  11  15  37
   3  11  37   7
   3  11  37  15
   3  11   7  37
   3  12   8  33
   3  12  33  16
   3  12  33   8
   3  12  16  33
   3  13  17  34
   3  13  34   9
   3  13  34  17
   3  13   9  34
   3  14  10  24
   3  14  24  38
   3  14  24  10
   3  14  38  18
   3  14  38  24
   3  14  18  38
   3  15  19  43
   3  15  43  37
   3  15  43  19
   3  15  37  43
   3  15  37  11
   3  15  11  37
   3  16  12  33
   3  16  33  44
   3  16  33  12
   3  16  44  20
   3  16  44  33
   3  16  20  44
   3  17  21  47
   3  17  47  34
   3  17  47  21
   3  17  34  47
   3  17  34  13
   3  17  13  34
   3  18  14  38
   3  18  38  49
   3  18  38  14
   3  18  49  38
   3  18  49  22
   3  18  22  49
   4  18  22  39  38
   3  19  23  50
   4  19  23  40  43
   3  19  50  43
   3  19  50  23
   3  19  43  15
   3  19  43  50
   3  19  15  43
   3  20  16  44
   3  20  44  16
   4  20  44  45   0
   3  21  47  17
   4  21  47  46   1
   3  21  17  47
   3  22  18  49
   4  22  18  38  39
   3  22  49  18
   3  22  49  39
   3  22  39   3
   3  22  39  49
   3  22   3  39
   3  23   4  40
   3  23  40   4
   3  23  40  50
   3  23  50  40
   3  23  50  19
   3  23  19  50
   4  23  19  43  40
   3  24  38  14
   4  24  38  43  37
   3  24  14  10
   3  24  14  38
   3  24  10   6
   3  24  10  14
   3  24   6  31
   3  24   6  10
   3  24  31  26
   3  24  31   6
   3  24  26  53
   3  24  26  31
   3  24  53  37
   3  24  53  26
   3  24  37  53
   4  24  37  43  38
   3  25  37  53
   3  25  37  32
   3  25  53  37
   3  25  53  48
   3  25  48  32
   3  25  48  53
   3  25  32  37
   3  25  32  48
   3  26  48  53
   3  26  48  31
   3  26  53  24
   3  26  53  48
   3  26  24  31
   3  26  24  53
   3  26  31  48
   3  26  31  24
   3  27   5  36
   3  27   5   8
   3  27  36  42
   3  27  36   5
   3  27  42  33
   3  27  42  36
   3  27  33   8
   3  27  33  42
   3  27   8   5
   3  27   8  33
   3  28  34  41
   3  28  34   9
   3  28  41  35
   3  28  41  34
   3  28  35  41
   3  28  35   2
   3  28   2  35
   3  28   2   9
   3  28   9  34
   3  28   9   2
   3  29  33  42
   4  29  33  34  30
   3  29  42  33
   4  29  42  48  51
   3  30  34  41
   4  30  34  33  29
   3  30  41  34
   4  30  41  48  52
   3  31   2  35
   3  31   2   6
   3  31  35  48
   3  31  35   2
   3  31  48  26
   3  31  48  35
   3  31  26  48
   3  31  26  24
   3  31  24   6
   3  31  24  26
   3  31   6   2
   3  31   6  24
   3  32  37  25
   3  32  37   7
   3  32  25  37
   3  32  25  48
   3  32  48  36
   3  32  48  25
   3  32  36  48
   3  32  36   5
   3  32   5   7
   3  32   5  36
   3  32   7  37
   3  32   7   5
   3  33  44  16
   4  33  44  47  34
   3  33  16  12
   3  33  16  44
   3  33  12   8
   3  33  12  16
   3  33   8  27
   3  33   8  12
   3  33  27  42
   3  33  27   8
   3  33  42  29
   3  33  42  27
   3  33  29  42
   4  33  29  30  34
   3  34  47  17
   4  34  47  44  33
   3  34  30  41
   4  34  30  29  33
   3  34  41  28
   3  34  41  30
   3  34  28  41
   3  34  28   9
   3  34   9  13
   3  34   9  28
   3  34  13  17
   3  34  13   9
   3  34  17  47
   3  34  17  13
   3  35  28  41
   3  35  28   2
   3  35  41  28
   3  35  41  48
   3  35  48  31
   3  35  48  41
   3  35  31   2
   3  35  31  48
   3  35   2  31
   3  35   2  28
   3  36  32  48
   3  36  32   5
   3  36  48  32
   3  36  48  42
   3  36  42  27
   3  36  42  48
   3  36  27   5
   3  36  27  42
   3  36   5  32
   3  36   5  27
   3  37  43  15
   4  37  43  38  24
   3  37  24  53
   4  37  24  38  43
   3  37  53  24
   3  37  53  25
   3  37  25  53
   3  37  25  32
   3  37  32  25
   3  37  32   7
   3  37   7  11
   3  37   7  32
   3  37  11  15
   3  37  11   7
   3  37  15  43
   3  37  15  11
   3  38  39  49
   4  38  39  22  18
   3  38  49  18
   3  38  49  39
   3  38  18  14
   3  38  18  49
   3  38  14  24
   3  38  14  18
   3  38  24  14
   4  38  24  37  43
   3  39   3  22
   4  39   3   4  40
   3  39  22  49
   3  39  22   3
   3  39  49  38
   3  39  49  22
   3  39  38  49
   4  39  38  18  22
   3  40   4  23
   4  40   4   3  39
   3  40  43  50
   4  40  43  38  39
   3  40  50  43
   3  40  50  23
   3  40  23   4
   3  40  23  50
   3  41  35  28
   3  41  35  48
   3  41  28  34
   3  41  28  35
   3  41  34  30
   3  41  34  28
   3  41  30  34
   4  41  30  52  48
   3  41  48  35
   4  41  48  52  30
   3  42  29  33
   4  42  29  51  48
   3  42  33  27
   3  42  33  29
   3  42  27  36
   3  42  27  33
   3  42  36  48
   3  42  36  27
   3  42  48  36
   4  42  48  51  29
   3  43  40  50
   4  43  40  39  38
   3  43  37  15
   4  43  37  24  38
   3  43  15  19
   3  43  15  37
   3  43  19  50
   3  43  19  15
   3  43  50  40
   3  43  50  19
   3  44  20  16
   4  44  20   0  45
   3  44  16  33
   3  44  16  20
   3  44  33  16
   4  44  33  34  47
   3  47  34  17
   4  47  34  33  44
   3  47  17  21
   3  47  17  34
   3  47  21  17
   4  47  21   1  46
   3  48  36  32
   3  48  36  42
   3  48  32  25
   3  48  32  36
   3  48  25  53
   3  48  25  32
   3  48  53  26
   3  48  53  25
   3  48  26  53
   3  48  26  31
   3  48  31  35
   3  48  31  26
   3  48  35  41
   3  48  35  31
   3  48  41  35
   4  48  41  30  52
   3  48  52  51
   4  48  52  30  41
   3  48  51  52
   4  48  51  29  42
   3  48  42  36
   4  48  42  29  51
   3  49  18  38
   3  49  18  22
   3  49  38  39
   3  49  38  18
   3  49  39  22
   3  49  39  38
   3  49  22  18
   3  49  22  39
   3  50  40  43
   3  50  40  23
   3  50  43  40
   3  50  43  19
   3  50  19  23
   3  50  19  43
   3  50  23  40
   3  50  23  19
   3  51  48  52
   4  51  48  42  29
   3  51  52  48
   4  51  52  30  29
   3  52  51  48
   4  52  51  29  30
   3  52  48  51
   4  52  48  41  30
   3  53  37  24
   3  53  37  25
   3  53  24  26
   3  53  24  37
   3  53  26  48
   3  53  26  24
   3  53  48  25
   3  53  48  26
   3  53  25  37
   3  53  25  48
