# Generated by dad_to_polygons. Vertex data from Humppa's .off file,
# polygons parsed from .dad file.
COFF
70 220 70
-6.274064 0.807670 3.881989 0.500000 0.500000 0.500000 1.0
-6.274064 -0.807670 3.881989 0.500000 0.500000 0.500000 1.0
-0.027637 -1.741790 3.632281 0.500000 0.500000 0.500000 1.0
7.183888 -0.799032 3.901938 0.500000 0.500000 0.500000 1.0
7.183888 0.799032 3.901938 0.500000 0.500000 0.500000 1.0
-0.027637 1.741790 3.632281 0.500000 0.500000 0.500000 1.0
1.025846 -1.437696 3.762246 0.500000 0.500000 0.500000 1.0
1.025846 1.437696 3.762246 0.500000 0.500000 0.500000 1.0
-1.063064 1.418271 3.735479 0.500000 0.500000 0.500000 1.0
-1.063064 -1.418271 3.735479 0.500000 0.500000 0.500000 1.0
1.955087 -1.132876 3.972188 0.500000 0.500000 0.500000 1.0
1.955087 1.132876 3.972188 0.500000 0.500000 0.500000 1.0
-1.995744 1.133678 3.955951 0.500000 0.500000 0.500000 1.0
-1.995744 -1.133678 3.955951 0.500000 0.500000 0.500000 1.0
3.006585 -1.111740 3.908039 0.500000 0.500000 0.500000 1.0
3.006585 1.111740 3.908039 0.500000 0.500000 0.500000 1.0
-2.989865 1.074774 3.875706 0.500000 0.500000 0.500000 1.0
-2.989865 -1.074774 3.875706 0.500000 0.500000 0.500000 1.0
3.993091 -1.075726 4.063409 0.500000 0.500000 0.500000 1.0
3.993091 1.075726 4.063409 0.500000 0.500000 0.500000 1.0
-3.976492 1.025994 4.026748 0.500000 0.500000 0.500000 1.0
-3.976492 -1.025994 4.026748 0.500000 0.500000 0.500000 1.0
4.977500 -0.944417 3.996855 0.500000 0.500000 0.500000 1.0
4.977500 0.944417 3.996855 0.500000 0.500000 0.500000 1.0
-4.974346 0.919546 3.948154 0.500000 0.500000 0.500000 1.0
-4.974346 -0.919546 3.948154 0.500000 0.500000 0.500000 1.0
5.976837 -0.873617 3.946241 0.500000 0.500000 0.500000 1.0
5.976837 0.873617 3.946241 0.500000 0.500000 0.500000 1.0
-0.946336 -1.363764 2.861006 0.500000 0.500000 0.500000 1.0
-1.832425 0.734495 2.071606 0.500000 0.500000 0.500000 1.0
-1.832425 -0.734495 2.071606 0.500000 0.500000 0.500000 1.0
0.848083 -1.350662 2.649404 0.500000 0.500000 0.500000 1.0
0.848083 1.350662 2.649404 0.500000 0.500000 0.500000 1.0
-2.089205 1.064163 2.992739 0.500000 0.500000 0.500000 1.0
-2.089205 -1.064163 2.992739 0.500000 0.500000 0.500000 1.0
-0.025837 -1.441097 2.615508 0.500000 0.500000 0.500000 1.0
-0.025837 1.441097 2.615508 0.500000 0.500000 0.500000 1.0
2.067174 1.070054 3.022666 0.500000 0.500000 0.500000 1.0
3.323624 -0.618619 2.341013 1.0 1.0 0.0 1.0
4.916716 -0.803923 3.083995 0.500000 0.500000 0.500000 1.0
4.916716 0.803923 3.083995 0.500000 0.500000 0.500000 1.0
-0.556701 -1.135737 2.108922 0.500000 0.500000 0.500000 1.0
-0.556701 1.135737 2.108922 0.500000 0.500000 0.500000 1.0
3.323624 0.618619 2.341013 1.0 1.0 0.0 1.0
-3.330240 0.658890 2.528474 1.0 1.0 0.0 1.0
-4.775526 0.765894 3.097617 0.500000 0.500000 0.500000 1.0
-4.775526 -0.765894 3.097617 0.500000 0.500000 0.500000 1.0
-3.330240 -0.658890 2.528474 1.0 1.0 0.0 1.0
-0.003368 0.000000 1.030606 1.0 1.0 0.0 1.0
4.389415 -0.913976 3.273617 0.500000 0.500000 0.500000 1.0
4.389415 0.913976 3.273617 0.500000 0.500000 0.500000 1.0
-1.292612 0.419365 1.376981 0.500000 0.500000 0.500000 1.0
-1.292612 -0.419365 1.376981 0.500000 0.500000 0.500000 1.0
1.593818 0.000000 2.224750 0.500000 0.500000 0.500000 1.0
0.522690 -0.936645 1.812299 0.500000 0.500000 0.500000 1.0
0.522690 0.936645 1.812299 0.500000 0.500000 0.500000 1.0
2.067078 -0.000000 2.958978 0.500000 0.500000 0.500000 1.0
5.992637 -0.763354 3.365862 0.500000 0.500000 0.500000 1.0
5.992637 0.763354 3.365862 0.500000 0.500000 0.500000 1.0
-2.089122 0.000000 2.935821 0.500000 0.500000 0.500000 1.0
0.842454 0.670821 1.636879 0.500000 0.500000 0.500000 1.0
0.842454 -0.670821 1.636879 0.500000 0.500000 0.500000 1.0
-0.124980 -0.896314 1.811058 0.500000 0.500000 0.500000 1.0
-0.124980 0.896314 1.811058 0.500000 0.500000 0.500000 1.0
2.067174 -1.070054 3.022666 0.500000 0.500000 0.500000 1.0
1.283891 1.175911 2.280887 0.500000 0.500000 0.500000 1.0
-4.253488 0.843690 3.272287 0.500000 0.500000 0.500000 1.0
-4.253488 -0.843690 3.272287 0.500000 0.500000 0.500000 1.0
1.283891 -1.175911 2.280887 0.500000 0.500000 0.500000 1.0
-0.946336 1.363764 2.861006 0.500000 0.500000 0.500000 1.0
3 0 45 46
3 0 46 45
3 0 46 1
3 0 1 46
3 1 25 46
3 1 46 25
3 2 35 31
3 2 31 35
3 3 4 58
3 3 58 4
3 3 58 57
3 3 57 58
3 5 7 32
3 5 32 7
3 5 32 36
3 5 36 32
3 5 36 69
3 5 69 36
3 6 31 64
3 6 64 31
3 6 64 10
3 6 10 64
3 7 37 11
3 7 11 37
3 7 37 32
3 7 32 37
3 8 69 33
3 8 33 69
3 9 2 28
3 9 28 2
3 9 34 13
3 9 13 34
3 12 8 33
3 12 33 8
3 12 33 16
3 12 16 33
3 13 17 34
3 13 34 17
3 15 11 37
3 15 37 11
3 15 19 43
3 15 43 19
3 15 43 37
3 15 37 43
3 16 44 33
3 16 33 44
3 17 47 34
3 17 34 47
3 18 14 38
3 18 38 14
3 18 38 49
3 18 49 38
3 19 23 50
3 19 50 23
3 19 43 50
3 19 50 43
3 20 66 44
3 20 44 66
3 21 17 47
3 21 47 17
3 21 47 67
3 21 67 47
3 24 0 45
3 24 45 0
3 24 45 66
3 24 66 45
3 25 21 67
3 25 67 21
3 25 46 67
3 25 67 46
3 26 3 57
3 26 57 3
3 26 39 57
3 26 57 39
3 27 40 58
3 27 58 40
3 28 2 35
3 28 35 2
3 28 34 9
3 28 9 34
3 28 41 34
3 28 34 41
3 29 33 59
3 29 59 33
3 30 29 51
3 30 51 29
3 30 51 52
3 30 52 51
3 30 59 29
3 30 29 59
3 31 2 6
3 31 6 2
3 31 54 35
3 31 35 54
3 31 68 64
3 31 64 68
3 32 55 65
3 32 65 55
3 33 69 42
3 33 42 69
3 34 59 30
3 34 30 59
3 34 59 47
3 34 47 59
3 35 41 28
3 35 28 41
3 35 41 62
3 35 62 41
3 35 62 54
3 35 54 62
3 36 32 55
3 36 55 32
3 36 42 63
3 36 63 42
3 36 42 69
3 36 69 42
3 36 55 63
3 36 63 55
3 37 53 65
3 37 65 53
3 37 56 43
3 37 43 56
3 37 65 32
3 37 32 65
3 38 39 49
3 38 49 39
3 38 64 56
3 38 56 64
3 39 22 49
3 39 49 22
3 39 26 22
3 39 22 26
3 39 40 43
3 39 43 40
3 39 43 38
3 39 38 43
3 40 23 27
3 40 27 23
3 40 39 57
3 40 57 39
3 40 50 23
3 40 23 50
3 40 57 58
3 40 58 57
3 41 30 34
3 41 34 30
3 41 48 52
3 41 52 48
3 41 52 30
3 41 30 52
3 42 29 33
3 42 33 29
3 42 29 51
3 42 51 29
3 42 51 48
3 42 48 51
3 42 63 48
3 42 48 63
3 43 38 56
3 43 56 38
3 44 16 20
3 44 20 16
3 44 45 46
3 44 46 45
3 44 46 47
3 44 47 46
3 44 59 33
3 44 33 59
3 44 66 45
3 44 45 66
3 46 47 67
3 46 67 47
3 47 44 59
3 47 59 44
3 48 54 61
3 48 61 54
3 48 54 62
3 48 62 54
3 48 60 53
3 48 53 60
3 48 62 41
3 48 41 62
3 49 22 18
3 49 18 22
3 50 43 40
3 50 40 43
3 52 51 48
3 52 48 51
3 53 56 37
3 53 37 56
3 53 60 65
3 53 65 60
3 54 61 68
3 54 68 61
3 54 68 31
3 54 31 68
3 55 65 60
3 55 60 65
3 56 64 53
3 56 53 64
3 58 4 27
3 58 27 4
3 60 55 48
3 60 48 55
3 61 53 48
3 61 48 53
3 61 68 53
3 61 53 68
3 63 48 55
3 63 55 48
3 64 14 10
3 64 10 14
3 64 14 38
3 64 38 14
3 64 68 53
3 64 53 68
3 66 20 24
3 66 24 20
3 69 8 5
3 69 5 8
