 COFF
          70         612          70
  
  -6.2740639660442206       0.80766980217838413        3.8819891596562326       0.60000002384185791       0.60000002384185791       0.60000002384185791       0.80000001192092896     
  -6.2740639660442312      -0.80766980217838369        3.8819891596562326       0.60000002384185791       0.60000002384185791       0.60000002384185791       0.80000001192092896     
  -2.7637312636390955E-002  -1.7417895050102914        3.6322814317751901       0.60000002384185791       0.60000002384185791       0.60000002384185791       0.80000001192092896     
   7.1838878301162090      -0.79903232734970342        3.9019378920932302       0.60000002384185791       0.60000002384185791       0.60000002384185791       0.80000001192092896     
   7.1838878301162152       0.79903232734970309        3.9019378920932302       0.60000002384185791       0.60000002384185791       0.60000002384185791       0.80000001192092896     
  -2.7637312636391041E-002   1.7417895050102912        3.6322814317751901       0.60000002384185791       0.60000002384185791       0.60000002384185791       0.80000001192092896     
   1.0258458948301885       -1.4376961686560199        3.7622455116268978       0.60000002384185791       0.60000002384185791       0.60000002384185791       0.80000001192092896     
   1.0258458948301883        1.4376961686560199        3.7622455116268978       0.60000002384185791       0.60000002384185791       0.60000002384185791       0.80000001192092896     
  -1.0630635788895673        1.4182710449002516        3.7354789003393418       0.60000002384185791       0.60000002384185791       0.60000002384185791       0.80000001192092896     
  -1.0630635788895677       -1.4182710449002525        3.7354789003393418       0.60000002384185791       0.60000002384185791       0.60000002384185791       0.80000001192092896     
   1.9550868245005213       -1.1328764265487148        3.9721875166053948       0.60000002384185791       0.60000002384185791       0.60000002384185791       0.80000001192092896     
   1.9550868245005211        1.1328764265487148        3.9721875166053948       0.60000002384185791       0.60000002384185791       0.60000002384185791       0.80000001192092896     
  -1.9957444546198146        1.1336782729541155        3.9559511364822897       0.60000002384185791       0.60000002384185791       0.60000002384185791       0.80000001192092896     
  -1.9957444546198144       -1.1336782729541142        3.9559511364822897       0.60000002384185791       0.60000002384185791       0.60000002384185791       0.80000001192092896     
   3.0065847424892858       -1.1117399527209788        3.9080388205159911       0.60000002384185791       0.60000002384185791       0.60000002384185791       0.80000001192092896     
   3.0065847424892853        1.1117399527209795        3.9080388205159915       0.60000002384185791       0.60000002384185791       0.60000002384185791       0.80000001192092896     
  -2.9898654517780958        1.0747741543435732        3.8757062157890725       0.60000002384185791       0.60000002384185791       0.60000002384185791       0.80000001192092896     
  -2.9898654517780954       -1.0747741543435729        3.8757062157890716       0.60000002384185791       0.60000002384185791       0.60000002384185791       0.80000001192092896     
   3.9930910577368635       -1.0757255877423828        4.0634089685689982       0.60000002384185791       0.60000002384185791       0.60000002384185791       0.80000001192092896     
   3.9930910577368626        1.0757255877423830        4.0634089685689982       0.60000002384185791       0.60000002384185791       0.60000002384185791       0.80000001192092896     
  -3.9764916207645693        1.0259941557826369        4.0267481874825579       0.60000002384185791       0.60000002384185791       0.60000002384185791       0.80000001192092896     
  -3.9764916207645684       -1.0259941557826369        4.0267481874825570       0.60000002384185791       0.60000002384185791       0.60000002384185791       0.80000001192092896     
   4.9775002862368547      -0.94441691131650984        3.9968546053910692       0.60000002384185791       0.60000002384185791       0.60000002384185791       0.80000001192092896     
   4.9775002862368547       0.94441691131651007        3.9968546053910692       0.60000002384185791       0.60000002384185791       0.60000002384185791       0.80000001192092896     
  -4.9743460909273578       0.91954604272406326        3.9481539901303120       0.60000002384185791       0.60000002384185791       0.60000002384185791       0.80000001192092896     
  -4.9743460909273578      -0.91954604272406237        3.9481539901303115       0.60000002384185791       0.60000002384185791       0.60000002384185791       0.80000001192092896     
   5.9768373088447060      -0.87361650023985660        3.9462411098631613       0.60000002384185791       0.60000002384185791       0.60000002384185791       0.80000001192092896     
   5.9768373088447069       0.87361650023985649        3.9462411098631613       0.60000002384185791       0.60000002384185791       0.60000002384185791       0.80000001192092896     
 -0.94633617184502672       -1.3637643667249684        2.8610056138339983       0.60000002384185791       0.60000002384185791       0.60000002384185791       0.80000001192092896     
  -1.8324254054767719       0.73449546135983312        2.0716063997575578       0.60000002384185791       0.60000002384185791       0.60000002384185791       0.80000001192092896     
  -1.8324254054767721      -0.73449546135983057        2.0716063997575582       0.60000002384185791       0.60000002384185791       0.60000002384185791       0.80000001192092896     
  0.84808294945185425       -1.3506621732477868        2.6494037185122088       0.60000002384185791       0.60000002384185791       0.60000002384185791       0.80000001192092896     
  0.84808294945185381        1.3506621732477866        2.6494037185122079       0.60000002384185791       0.60000002384185791       0.60000002384185791       0.80000001192092896     
  -2.0892054325390612        1.0641629067871063        2.9927387604092188       0.60000002384185791       0.60000002384185791       0.60000002384185791       0.80000001192092896     
  -2.0892054325390621       -1.0641629067871055        2.9927387604092193       0.60000002384185791       0.60000002384185791       0.60000002384185791       0.80000001192092896     
  -2.5837489203217906E-002  -1.4410974530892373        2.6155082746122953       0.60000002384185791       0.60000002384185791       0.60000002384185791       0.80000001192092896     
  -2.5837489203217920E-002   1.4410974530892371        2.6155082746122953       0.60000002384185791       0.60000002384185791       0.60000002384185791       0.80000001192092896     
   2.0671737284265546        1.0700538875079542        3.0226660256708207       0.60000002384185791       0.60000002384185791       0.60000002384185791       0.80000001192092896     
   3.3236239486827284      -0.61861858071699627        2.3410133446645589        1.0000000000000000        1.0000000000000000        0.0000000000000000        1.0000000000000000     
   4.9167161116201630      -0.80392321620036156        3.0839947581665959       0.60000002384185791       0.60000002384185791       0.60000002384185791       0.80000001192092896     
   4.9167161116201639       0.80392321620036156        3.0839947581665972       0.60000002384185791       0.60000002384185791       0.60000002384185791       0.80000001192092896     
 -0.55670097264436202       -1.1357372241311152        2.1089219808456554       0.60000002384185791       0.60000002384185791       0.60000002384185791       0.80000001192092896     
 -0.55670097264436158        1.1357372241311154        2.1089219808456554       0.60000002384185791       0.60000002384185791       0.60000002384185791       0.80000001192092896     
   3.3236239486827284       0.61861858071699705        2.3410133446645589        1.0000000000000000        1.0000000000000000        0.0000000000000000        1.0000000000000000     
  -3.3302399468808797       0.65889044663900465        2.5284741087501219        1.0000000000000000        1.0000000000000000        0.0000000000000000        1.0000000000000000     
  -4.7755264166467200       0.76589426690552520        3.0976172051356818       0.60000002384185791       0.60000002384185791       0.60000002384185791       0.80000001192092896     
  -4.7755264166467191      -0.76589426690552420        3.0976172051356823       0.60000002384185791       0.60000002384185791       0.60000002384185791       0.80000001192092896     
  -3.3302399468808805      -0.65889044663900420        2.5284741087501215        1.0000000000000000        1.0000000000000000        0.0000000000000000        1.0000000000000000     
  -3.3677985415656885E-003   6.6532510105384798E-018   1.0306063639638421        1.0000000000000000        1.0000000000000000        0.0000000000000000        1.0000000000000000     
   4.3894146827948575      -0.91397553113934749        3.2736166549109269       0.60000002384185791       0.60000002384185791       0.60000002384185791       0.80000001192092896     
   4.3894146827948575       0.91397553113934749        3.2736166549109260       0.60000002384185791       0.60000002384185791       0.60000002384185791       0.80000001192092896     
  -1.2926118800098703       0.41936460013910742        1.3769805997965634       0.60000002384185791       0.60000002384185791       0.60000002384185791       0.80000001192092896     
  -1.2926118800098694      -0.41936460013910654        1.3769805997965636       0.60000002384185791       0.60000002384185791       0.60000002384185791       0.80000001192092896     
   1.5938176751560174        3.8328345374457674E-015   2.2247497391396078       0.60000002384185791       0.60000002384185791       0.60000002384185791       0.80000001192092896     
  0.52269038539280599      -0.93664473231936263        1.8122993115294541       0.60000002384185791       0.60000002384185791       0.60000002384185791       0.80000001192092896     
  0.52269038539280566       0.93664473231936229        1.8122993115294543       0.60000002384185791       0.60000002384185791       0.60000002384185791       0.80000001192092896     
   2.0670783725206605       -1.0160615891207199E-014   2.9589780430606418       0.60000002384185791       0.60000002384185791       0.60000002384185791       0.80000001192092896     
   5.9926371031249293      -0.76335387732095616        3.3658620185651480       0.60000002384185791       0.60000002384185791       0.60000002384185791       0.80000001192092896     
   5.9926371031249284       0.76335387732095561        3.3658620185651484       0.60000002384185791       0.60000002384185791       0.60000002384185791       0.80000001192092896     
  -2.0891215041338955        2.0032133867491101E-014   2.9358207567073289       0.60000002384185791       0.60000002384185791       0.60000002384185791       0.80000001192092896     
  0.84245389378038427       0.67082111069191119        1.6368785772609344       0.60000002384185791       0.60000002384185791       0.60000002384185791       0.80000001192092896     
  0.84245389378038427      -0.67082111069191075        1.6368785772609344       0.60000002384185791       0.60000002384185791       0.60000002384185791       0.80000001192092896     
 -0.12498042577327002      -0.89631378886330759        1.8110578850452057       0.60000002384185791       0.60000002384185791       0.60000002384185791       0.80000001192092896     
 -0.12498042577327011       0.89631378886330759        1.8110578850452057       0.60000002384185791       0.60000002384185791       0.60000002384185791       0.80000001192092896     
   2.0671737284265554       -1.0700538875079533        3.0226660256708198       0.60000002384185791       0.60000002384185791       0.60000002384185791       0.80000001192092896     
   1.2838908356071104        1.1759107046517141        2.2808868866198311       0.60000002384185791       0.60000002384185791       0.60000002384185791       0.80000001192092896     
  -4.2534876409360320       0.84369012977584645        3.2722867676678336       0.60000002384185791       0.60000002384185791       0.60000002384185791       0.80000001192092896     
  -4.2534876409360303      -0.84369012977584568        3.2722867676678327       0.60000002384185791       0.60000002384185791       0.60000002384185791       0.80000001192092896     
   1.2838908356071110       -1.1759107046517141        2.2808868866198311       0.60000002384185791       0.60000002384185791       0.60000002384185791       0.80000001192092896     
 -0.94633617184502550        1.3637643667249677        2.8610056138339974       0.60000002384185791       0.60000002384185791       0.60000002384185791       0.80000001192092896     
  
   3   0  24  45
   3   0  45  24
   4   0  45  46   1
   3   1  46  25
   4   1  46  45   0
   3   1  25  46
   3   2  35  28
   3   2  35  31
   3   2  31  35
   3   2  31   6
   3   2   6  31
   3   2   9  28
   3   2  28  35
   3   2  28   9
   3   3  26  57
   3   3  57  26
   4   3  57  58   4
   3   4  58  27
   4   4  58  57   3
   3   4  27  58
   3   5   7  32
   3   5  32  36
   3   5  32   7
   3   5  36  32
   3   5  36  69
   3   5  69  36
   3   5  69   8
   3   5   8  69
   3   6   2  31
   3   6  31   2
   3   6  31  64
   3   6  64  10
   3   6  64  31
   3   6  10  64
   3   7  11  37
   3   7  37  32
   3   7  37  11
   3   7  32  37
   3   7  32   5
   3   7   5  32
   3   8   5  69
   3   8  69   5
   3   8  69  33
   3   8  33  12
   3   8  33  69
   3   8  12  33
   3   9  13  34
   3   9  34  28
   3   9  34  13
   3   9  28  34
   3   9  28   2
   3   9   2  28
   3  10   6  64
   3  10  64  14
   3  10  64   6
   3  10  14  64
   3  11  15  37
   3  11  37   7
   3  11  37  15
   3  11   7  37
   3  12   8  33
   3  12  33  16
   3  12  33   8
   3  12  16  33
   3  13  17  34
   3  13  34   9
   3  13  34  17
   3  13   9  34
   3  14  10  64
   3  14  64  38
   3  14  64  10
   3  14  38  18
   3  14  38  64
   3  14  18  38
   3  15  19  43
   3  15  43  37
   3  15  43  19
   3  15  37  43
   3  15  37  11
   3  15  11  37
   3  16  12  33
   3  16  33  44
   3  16  33  12
   3  16  44  20
   3  16  44  33
   3  16  20  44
   3  17  21  47
   3  17  47  34
   3  17  47  21
   3  17  34  47
   3  17  34  13
   3  17  13  34
   3  18  14  38
   3  18  38  49
   3  18  38  14
   3  18  49  38
   3  18  49  22
   3  18  22  49
   4  18  22  39  38
   3  19  23  50
   4  19  23  40  43
   3  19  50  43
   3  19  50  23
   3  19  43  15
   3  19  43  50
   3  19  15  43
   3  20  16  44
   3  20  44  66
   3  20  44  16
   3  20  66  44
   3  20  66  24
   3  20  24  66
   4  20  24  45  44
   3  21  25  67
   4  21  25  46  47
   3  21  67  47
   3  21  67  25
   3  21  47  17
   3  21  47  67
   3  21  17  47
   3  22  18  49
   4  22  18  38  39
   3  22  49  18
   3  22  49  39
   3  22  39  26
   3  22  39  49
   3  22  26  39
   3  23  27  40
   3  23  40  50
   3  23  40  27
   3  23  50  40
   3  23  50  19
   3  23  19  50
   4  23  19  43  40
   3  24  20  66
   4  24  20  44  45
   3  24  66  20
   3  24  66  45
   3  24  45   0
   3  24  45  66
   3  24   0  45
   3  25   1  46
   3  25  46   1
   3  25  46  67
   3  25  67  46
   3  25  67  21
   3  25  21  67
   4  25  21  47  46
   3  26  22  39
   3  26  39  57
   3  26  39  22
   3  26  57   3
   3  26  57  39
   3  26   3  57
   3  27   4  58
   3  27  58   4
   3  27  58  40
   3  27  40  58
   3  27  40  23
   3  27  23  40
   3  28  34  41
   3  28  34   9
   3  28  41  35
   3  28  41  34
   3  28  35  41
   3  28  35   2
   3  28   2  35
   3  28   2   9
   3  28   9  34
   3  28   9   2
   3  29  33  42
   3  29  33  59
   3  29  42  33
   4  29  42  48  51
   3  29  30  59
   4  29  30  52  51
   3  29  59  30
   3  29  59  33
   3  30  34  59
   3  30  34  41
   3  30  59  29
   3  30  59  34
   3  30  29  59
   4  30  29  51  52
   3  30  41  34
   4  30  41  48  52
   3  31   2  35
   3  31   2   6
   3  31  35  54
   3  31  35   2
   3  31  54  35
   3  31  54  68
   3  31  68  64
   3  31  68  54
   3  31  64   6
   3  31  64  68
   3  31   6   2
   3  31   6  64
   3  32  37  65
   3  32  37   7
   3  32  65  37
   3  32  65  55
   3  32  55  65
   3  32  55  36
   3  32  36  55
   3  32  36   5
   3  32   5   7
   3  32   5  36
   3  32   7  37
   3  32   7   5
   3  33  44  16
   3  33  44  59
   3  33  16  12
   3  33  16  44
   3  33  12   8
   3  33  12  16
   3  33   8  69
   3  33   8  12
   3  33  69  42
   3  33  69   8
   3  33  42  29
   3  33  42  69
   3  33  29  42
   3  33  29  59
   3  33  59  29
   3  33  59  44
   3  34  47  59
   3  34  47  17
   3  34  59  30
   3  34  59  47
   3  34  30  59
   3  34  30  41
   3  34  41  28
   3  34  41  30
   3  34  28  41
   3  34  28   9
   3  34   9  13
   3  34   9  28
   3  34  13  17
   3  34  13   9
   3  34  17  47
   3  34  17  13
   3  35  28  41
   3  35  28   2
   3  35  41  28
   3  35  41  62
   3  35  62  41
   3  35  62  54
   3  35  54  62
   3  35  54  31
   3  35  31   2
   3  35  31  54
   3  35   2  31
   3  35   2  28
   3  36  32  55
   3  36  32   5
   3  36  55  63
   3  36  55  32
   3  36  63  55
   3  36  63  42
   3  36  42  69
   3  36  42  63
   3  36  69   5
   3  36  69  42
   3  36   5  32
   3  36   5  69
   3  37  43  56
   3  37  43  15
   3  37  56  53
   3  37  56  43
   3  37  53  56
   3  37  53  65
   3  37  65  53
   3  37  65  32
   3  37  32  65
   3  37  32   7
   3  37   7  11
   3  37   7  32
   3  37  11  15
   3  37  11   7
   3  37  15  43
   3  37  15  11
   3  38  39  49
   4  38  39  22  18
   3  38  49  18
   3  38  49  39
   3  38  18  14
   3  38  18  49
   3  38  14  64
   3  38  14  18
   3  38  64  14
   3  38  64  56
   3  38  56  43
   3  38  56  64
   3  38  43  56
   4  38  43  40  39
   3  39  57  26
   4  39  57  58  40
   3  39  26  22
   3  39  26  57
   3  39  22  49
   3  39  22  26
   3  39  49  38
   3  39  49  22
   3  39  38  49
   4  39  38  18  22
   3  40  58  27
   4  40  58  57  39
   3  40  43  50
   4  40  43  38  39
   3  40  50  43
   3  40  50  23
   3  40  23  27
   3  40  23  50
   3  40  27  58
   3  40  27  23
   3  41  35  28
   3  41  35  62
   3  41  28  34
   3  41  28  35
   3  41  34  30
   3  41  34  28
   3  41  30  34
   4  41  30  52  48
   3  41  48  62
   4  41  48  54  35
   3  41  62  48
   3  41  62  35
   3  42  29  33
   4  42  29  51  48
   3  42  33  69
   3  42  33  29
   3  42  69  36
   3  42  69  33
   3  42  36  63
   3  42  36  69
   3  42  63  48
   3  42  63  36
   3  42  48  63
   4  42  48  55  36
   3  43  40  50
   4  43  40  39  38
   3  43  38  56
   4  43  38  39  40
   3  43  56  37
   3  43  56  38
   3  43  37  56
   3  43  37  15
   3  43  15  19
   3  43  15  37
   3  43  19  50
   3  43  19  15
   3  43  50  40
   3  43  50  19
   3  44  45  66
   4  44  45  24  20
   3  44  66  20
   3  44  66  45
   3  44  20  16
   3  44  20  66
   3  44  16  33
   3  44  16  20
   3  44  33  16
   3  44  33  59
   3  44  59  47
   3  44  59  33
   3  44  47  59
   4  44  47  46  45
   3  45   0  24
   4  45   0   1  46
   3  45  24  66
   3  45  24   0
   3  45  66  44
   3  45  66  24
   3  45  44  66
   4  45  44  20  24
   3  46   1  25
   4  46   1   0  45
   3  46  47  67
   4  46  47  44  45
   3  46  67  47
   3  46  67  25
   3  46  25   1
   3  46  25  67
   3  47  46  67
   4  47  46  45  44
   3  47  44  59
   4  47  44  45  46
   3  47  59  34
   3  47  59  44
   3  47  34  59
   3  47  34  17
   3  47  17  21
   3  47  17  34
   3  47  21  67
   3  47  21  17
   3  47  67  46
   3  47  67  21
   3  48  63  55
   3  48  63  42
   3  48  55  60
   3  48  55  63
   3  48  60  53
   3  48  60  55
   3  48  53  61
   3  48  53  60
   3  48  61  54
   3  48  61  53
   3  48  54  62
   3  48  54  61
   3  48  62  41
   3  48  62  54
   3  48  41  62
   4  48  41  35  54
   3  48  52  51
   4  48  52  30  41
   3  48  51  52
   4  48  51  29  42
   3  48  42  63
   4  48  42  29  51
   3  49  18  38
   3  49  18  22
   3  49  38  39
   3  49  38  18
   3  49  39  22
   3  49  39  38
   3  49  22  18
   3  49  22  39
   3  50  40  43
   3  50  40  23
   3  50  43  40
   3  50  43  19
   3  50  19  23
   3  50  19  43
   3  50  23  40
   3  50  23  19
   3  51  48  52
   4  51  48  42  29
   3  51  52  48
   4  51  52  30  29
   3  52  51  48
   4  52  51  29  30
   3  52  48  51
   4  52  48  41  30
   3  53  37  56
   3  53  37  65
   3  53  56  37
   3  53  56  64
   3  53  64  68
   3  53  64  56
   3  53  68  61
   3  53  68  64
   3  53  61  48
   3  53  61  68
   3  53  48  60
   3  53  48  61
   3  53  60  48
   3  53  60  65
   3  53  65  37
   3  53  65  60
   3  54  35  62
   3  54  35  31
   3  54  62  48
   3  54  62  35
   3  54  48  61
   3  54  48  62
   3  54  61  48
   3  54  61  68
   3  54  68  61
   3  54  68  31
   3  54  31  35
   3  54  31  68
   3  55  65  60
   3  55  65  32
   3  55  60  48
   3  55  60  65
   3  55  48  63
   3  55  48  60
   3  55  63  48
   3  55  63  36
   3  55  36  32
   3  55  36  63
   3  55  32  65
   3  55  32  36
   3  56  53  37
   3  56  53  64
   3  56  37  43
   3  56  37  53
   3  56  43  38
   3  56  43  37
   3  56  38  64
   3  56  38  43
   3  56  64  38
   3  56  64  53
   3  57   3  26
   4  57   3   4  58
   3  57  26  39
   3  57  26   3
   3  57  39  26
   4  57  39  40  58
   3  58   4  27
   4  58   4   3  57
   3  58  40  27
   4  58  40  39  57
   3  58  27   4
   3  58  27  40
   3  59  29  33
   3  59  29  30
   3  59  30  34
   3  59  30  29
   3  59  34  47
   3  59  34  30
   3  59  47  44
   3  59  47  34
   3  59  44  33
   3  59  44  47
   3  59  33  44
   3  59  33  29
   3  60  53  48
   3  60  53  65
   3  60  48  55
   3  60  48  53
   3  60  55  65
   3  60  55  48
   3  60  65  53
   3  60  65  55
   3  61  54  48
   3  61  54  68
   3  61  48  53
   3  61  48  54
   3  61  53  68
   3  61  53  48
   3  61  68  53
   3  61  68  54
   3  62  41  35
   3  62  41  48
   3  62  48  54
   3  62  48  41
   3  62  54  35
   3  62  54  48
   3  62  35  41
   3  62  35  54
   3  63  55  48
   3  63  55  36
   3  63  48  55
   3  63  48  42
   3  63  42  36
   3  63  42  48
   3  63  36  55
   3  63  36  42
   3  64  38  14
   3  64  38  56
   3  64  14  10
   3  64  14  38
   3  64  10   6
   3  64  10  14
   3  64   6  31
   3  64   6  10
   3  64  31  68
   3  64  31   6
   3  64  68  53
   3  64  68  31
   3  64  53  56
   3  64  53  68
   3  64  56  53
   3  64  56  38
   3  65  37  53
   3  65  37  32
   3  65  53  37
   3  65  53  60
   3  65  60  53
   3  65  60  55
   3  65  55  60
   3  65  55  32
   3  65  32  37
   3  65  32  55
   3  66  20  44
   3  66  20  24
   3  66  44  45
   3  66  44  20
   3  66  45  24
   3  66  45  44
   3  66  24  20
   3  66  24  45
   3  67  46  47
   3  67  46  25
   3  67  47  46
   3  67  47  21
   3  67  21  25
   3  67  21  47
   3  67  25  46
   3  67  25  21
   3  68  61  54
   3  68  61  53
   3  68  53  64
   3  68  53  61
   3  68  64  31
   3  68  64  53
   3  68  31  54
   3  68  31  64
   3  68  54  61
   3  68  54  31
   3  69   5  36
   3  69   5   8
   3  69  36  42
   3  69  36   5
   3  69  42  33
   3  69  42  36
   3  69  33   8
   3  69  33  42
   3  69   8   5
   3  69   8  33
