# Generated by dad_to_polygons. Vertex data from Humppa's .off file,
# polygons parsed from .dad file.
COFF
77 248 77
-6.331547 0.859692 4.217101 0.500000 0.500000 0.500000 1.0
-6.331547 -0.859692 4.217101 0.500000 0.500000 0.500000 1.0
-0.028520 -1.818784 3.962296 0.500000 0.500000 0.500000 1.0
7.240539 -0.835185 4.262104 0.500000 0.500000 0.500000 1.0
7.240539 0.835185 4.262104 0.500000 0.500000 0.500000 1.0
-0.028520 1.818784 3.962296 0.500000 0.500000 0.500000 1.0
1.043734 -1.514589 4.091171 0.500000 0.500000 0.500000 1.0
1.043734 1.514589 4.091171 0.500000 0.500000 0.500000 1.0
-1.074926 1.494743 4.065085 0.500000 0.500000 0.500000 1.0
-1.074926 -1.494743 4.065085 0.500000 0.500000 0.500000 1.0
1.972967 -1.211819 4.303873 0.500000 0.500000 0.500000 1.0
1.972967 1.211819 4.303873 0.500000 0.500000 0.500000 1.0
-2.006384 1.210293 4.291394 0.500000 0.500000 0.500000 1.0
-2.006384 -1.210293 4.291394 0.500000 0.500000 0.500000 1.0
3.012487 -1.238795 4.205530 0.500000 0.500000 0.500000 1.0
3.012487 1.238795 4.205530 0.500000 0.500000 0.500000 1.0
-2.996610 1.201426 4.156249 0.500000 0.500000 0.500000 1.0
-2.996610 -1.201426 4.156249 0.500000 0.500000 0.500000 1.0
3.999417 -1.190640 4.365328 0.500000 0.500000 0.500000 1.0
3.999417 1.190640 4.365328 0.500000 0.500000 0.500000 1.0
-3.978712 1.155603 4.337513 0.500000 0.500000 0.500000 1.0
-3.978712 -1.155603 4.337513 0.500000 0.500000 0.500000 1.0
4.982771 -1.030905 4.333750 0.500000 0.500000 0.500000 1.0
4.982771 1.030905 4.333750 0.500000 0.500000 0.500000 1.0
-4.984573 1.010554 4.268632 0.500000 0.500000 0.500000 1.0
-4.984573 -1.010554 4.268632 0.500000 0.500000 0.500000 1.0
5.981996 -0.940949 4.291618 0.500000 0.500000 0.500000 1.0
5.981996 0.940949 4.291618 0.500000 0.500000 0.500000 1.0
-0.950803 -1.457444 3.167679 0.500000 0.500000 0.500000 1.0
-1.814382 0.701037 2.369271 0.500000 0.500000 0.500000 1.0
-1.814382 -0.701037 2.369271 0.500000 0.500000 0.500000 1.0
0.866264 -1.456168 2.959432 0.500000 0.500000 0.500000 1.0
0.866264 1.456168 2.959432 0.500000 0.500000 0.500000 1.0
-2.098206 1.168618 3.281666 0.500000 0.500000 0.500000 1.0
-2.098206 -1.168618 3.281666 0.500000 0.500000 0.500000 1.0
-0.010051 -1.546167 2.886262 0.500000 0.500000 0.500000 1.0
-0.010051 1.546167 2.886262 0.500000 0.500000 0.500000 1.0
2.089726 1.157378 3.304451 0.500000 0.500000 0.500000 1.0
3.328887 -0.618753 2.341013 1.0 1.0 0.0 1.0
5.152475 -0.884928 3.380692 0.500000 0.500000 0.500000 1.0
5.152475 0.884928 3.380692 0.500000 0.500000 0.500000 1.0
-0.641361 -1.342966 2.374106 0.500000 0.500000 0.500000 1.0
-0.641361 1.342966 2.374106 0.500000 0.500000 0.500000 1.0
3.328887 0.618753 2.341013 1.0 1.0 0.0 1.0
-3.338172 0.659214 2.528474 1.0 1.0 0.0 1.0
-4.890645 0.899805 3.359226 0.500000 0.500000 0.500000 1.0
-4.890645 -0.899805 3.359226 0.500000 0.500000 0.500000 1.0
-3.338172 -0.659214 2.528474 1.0 1.0 0.0 1.0
-0.006663 0.000000 1.030606 1.0 1.0 0.0 1.0
4.492463 -1.085734 3.610063 0.500000 0.500000 0.500000 1.0
4.492463 1.085734 3.610063 0.500000 0.500000 0.500000 1.0
-1.542701 0.538353 1.484881 0.500000 0.500000 0.500000 1.0
-1.542701 -0.538353 1.484881 0.500000 0.500000 0.500000 1.0
1.763999 -0.000000 2.488014 0.500000 0.500000 0.500000 1.0
0.621577 -1.197627 2.000563 0.500000 0.500000 0.500000 1.0
0.621577 1.197627 2.000563 0.500000 0.500000 0.500000 1.0
2.089884 -0.000000 3.140002 0.500000 0.500000 0.500000 1.0
6.245931 -0.807541 3.663496 0.500000 0.500000 0.500000 1.0
6.245931 0.807541 3.663496 0.500000 0.500000 0.500000 1.0
-2.098274 0.000000 3.115167 0.500000 0.500000 0.500000 1.0
1.031240 0.844309 1.822695 0.500000 0.500000 0.500000 1.0
1.031240 -0.844309 1.822695 0.500000 0.500000 0.500000 1.0
-0.074932 -1.203500 1.991319 0.500000 0.500000 0.500000 1.0
-0.074932 1.203500 1.991319 0.500000 0.500000 0.500000 1.0
2.089726 -1.157378 3.304451 0.500000 0.500000 0.500000 1.0
1.329937 1.303286 2.586889 0.500000 0.500000 0.500000 1.0
-4.378247 0.996851 3.551205 0.500000 0.500000 0.500000 1.0
-4.378247 -0.996851 3.551205 0.500000 0.500000 0.500000 1.0
1.329937 -1.303286 2.586889 0.500000 0.500000 0.500000 1.0
-0.950803 1.457444 3.167679 0.500000 0.500000 0.500000 1.0
1.173308 0.000000 1.747926 0.500000 0.500000 0.500000 1.0
3.744568 -1.028175 3.438930 0.500000 0.500000 0.500000 1.0
3.744568 1.028175 3.438930 0.500000 0.500000 0.500000 1.0
4.380185 -0.736655 2.809505 0.500000 0.500000 0.500000 1.0
4.380185 0.736655 2.809505 0.500000 0.500000 0.500000 1.0
-0.326561 -0.673801 1.701460 0.500000 0.500000 0.500000 1.0
-0.326561 0.673801 1.701460 0.500000 0.500000 0.500000 1.0
3 0 45 46
3 0 46 45
3 0 46 1
3 0 1 46
3 2 35 31
3 2 31 35
3 3 4 58
3 3 58 4
3 3 58 57
3 3 57 58
3 4 58 27
3 4 27 58
3 5 7 32
3 5 32 7
3 5 36 69
3 5 69 36
3 6 31 2
3 6 2 31
3 6 64 10
3 6 10 64
3 7 37 11
3 7 11 37
3 8 69 5
3 8 5 69
3 9 2 28
3 9 28 2
3 9 28 34
3 9 34 28
3 11 15 37
3 11 37 15
3 12 8 33
3 12 33 8
3 12 33 16
3 12 16 33
3 13 17 34
3 13 34 17
3 14 71 18
3 14 18 71
3 14 71 38
3 14 38 71
3 15 19 72
3 15 72 19
3 15 43 72
3 15 72 43
3 17 21 47
3 17 47 21
3 17 47 34
3 17 34 47
3 18 49 22
3 18 22 49
3 20 66 24
3 20 24 66
3 22 26 39
3 22 39 26
3 22 39 49
3 22 49 39
3 23 19 50
3 23 50 19
3 23 27 40
3 23 40 27
3 23 40 50
3 23 50 40
3 24 66 45
3 24 45 66
3 25 21 67
3 25 67 21
3 25 46 67
3 25 67 46
3 26 3 57
3 26 57 3
3 26 39 57
3 26 57 39
3 27 58 40
3 27 40 58
3 28 2 35
3 28 35 2
3 28 34 41
3 28 41 34
3 28 41 35
3 28 35 41
3 29 30 59
3 29 59 30
3 29 76 42
3 29 42 76
3 30 41 34
3 30 34 41
3 30 51 29
3 30 29 51
3 30 52 51
3 30 51 52
3 30 59 34
3 30 34 59
3 30 75 41
3 30 41 75
3 31 35 54
3 31 54 35
3 31 64 6
3 31 6 64
3 31 64 68
3 31 68 64
3 32 36 5
3 32 5 36
3 32 37 7
3 32 7 37
3 32 55 36
3 32 36 55
3 33 42 29
3 33 29 42
3 33 42 69
3 33 69 42
3 33 44 16
3 33 16 44
3 33 44 59
3 33 59 44
3 33 59 29
3 33 29 59
3 34 9 13
3 34 13 9
3 35 41 62
3 35 62 41
3 35 62 54
3 35 54 62
3 36 55 63
3 36 63 55
3 36 69 42
3 36 42 69
3 37 56 43
3 37 43 56
3 37 65 32
3 37 32 65
3 37 65 53
3 37 53 65
3 38 14 64
3 38 64 14
3 40 39 57
3 40 57 39
3 40 43 74
3 40 74 43
3 40 50 43
3 40 43 50
3 40 57 58
3 40 58 57
3 40 73 39
3 40 39 73
3 40 74 73
3 40 73 74
3 41 62 75
3 41 75 62
3 42 63 36
3 42 36 63
3 43 37 15
3 43 15 37
3 43 50 72
3 43 72 50
3 43 56 38
3 43 38 56
3 43 73 38
3 43 38 73
3 43 74 73
3 43 73 74
3 44 16 20
3 44 20 16
3 44 45 66
3 44 66 45
3 44 46 45
3 44 45 46
3 44 47 46
3 44 46 47
3 44 66 20
3 44 20 66
3 45 0 24
3 45 24 0
3 46 1 25
3 46 25 1
3 46 47 67
3 46 67 47
3 47 59 34
3 47 34 59
3 48 51 76
3 48 76 51
3 48 54 61
3 48 61 54
3 48 55 63
3 48 63 55
3 48 61 70
3 48 70 61
3 48 62 54
3 48 54 62
3 48 70 60
3 48 60 70
3 48 75 62
3 48 62 75
3 49 38 73
3 49 73 38
3 49 71 18
3 49 18 71
3 49 73 39
3 49 39 73
3 52 48 51
3 52 51 48
3 53 56 37
3 53 37 56
3 53 60 70
3 53 70 60
3 53 61 70
3 53 70 61
3 53 65 60
3 53 60 65
3 54 68 31
3 54 31 68
3 55 60 65
3 55 65 60
3 56 38 64
3 56 64 38
3 56 64 53
3 56 53 64
3 59 47 44
3 59 44 47
3 60 48 55
3 60 55 48
3 61 68 53
3 61 53 68
3 61 68 54
3 61 54 68
3 63 42 76
3 63 76 42
3 63 48 76
3 63 76 48
3 64 14 10
3 64 10 14
3 64 53 68
3 64 68 53
3 65 55 32
3 65 32 55
3 67 47 21
3 67 21 47
3 69 8 33
3 69 33 8
3 71 49 38
3 71 38 49
3 72 19 50
3 72 50 19
3 75 52 30
3 75 30 52
3 75 52 48
3 75 48 52
3 76 29 51
3 76 51 29
