 COFF
          77         680          77
  
  -6.3315468056991282       0.85969216057283904        4.2171013461983904       0.60000002384185791       0.60000002384185791       0.60000002384185791       0.80000001192092896     
  -6.3315468056991397      -0.85969216057283804        4.2171013461983904       0.60000002384185791       0.60000002384185791       0.60000002384185791       0.80000001192092896     
  -2.8519759546554762E-002  -1.8187843401643806        3.9622964872233344       0.60000002384185791       0.60000002384185791       0.60000002384185791       0.80000001192092896     
   7.2405388788561886      -0.83518452801476861        4.2621039072412801       0.60000002384185791       0.60000002384185791       0.60000002384185791       0.80000001192092896     
   7.2405388788561948       0.83518452801476817        4.2621039072412801       0.60000002384185791       0.60000002384185791       0.60000002384185791       0.80000001192092896     
  -2.8519759546554873E-002   1.8187843401643804        3.9622964872233344       0.60000002384185791       0.60000002384185791       0.60000002384185791       0.80000001192092896     
   1.0437337452614639       -1.5145892620019681        4.0911713774242768       0.60000002384185791       0.60000002384185791       0.60000002384185791       0.80000001192092896     
   1.0437337452614637        1.5145892620019681        4.0911713774242768       0.60000002384185791       0.60000002384185791       0.60000002384185791       0.80000001192092896     
  -1.0749259118282652        1.4947430556530965        4.0650848751218183       0.60000002384185791       0.60000002384185791       0.60000002384185791       0.80000001192092896     
  -1.0749259118282648       -1.4947430556530970        4.0650848751218183       0.60000002384185791       0.60000002384185791       0.60000002384185791       0.80000001192092896     
   1.9729669476801264       -1.2118191777938288        4.3038729328034897       0.60000002384185791       0.60000002384185791       0.60000002384185791       0.80000001192092896     
   1.9729669476801261        1.2118191777938288        4.3038729328034897       0.60000002384185791       0.60000002384185791       0.60000002384185791       0.80000001192092896     
  -2.0063842625352231        1.2102927762353830        4.2913943140581710       0.60000002384185791       0.60000002384185791       0.60000002384185791       0.80000001192092896     
  -2.0063842625352222       -1.2102927762353821        4.2913943140581710       0.60000002384185791       0.60000002384185791       0.60000002384185791       0.80000001192092896     
   3.0124869064329949       -1.2387953126705946        4.2055300418006434       0.60000002384185791       0.60000002384185791       0.60000002384185791       0.80000001192092896     
   3.0124869064329935        1.2387953126705955        4.2055300418006452       0.60000002384185791       0.60000002384185791       0.60000002384185791       0.80000001192092896     
  -2.9966095318028092        1.2014262627366052        4.1562492825354260       0.60000002384185791       0.60000002384185791       0.60000002384185791       0.80000001192092896     
  -2.9966095318028083       -1.2014262627366052        4.1562492825354260       0.60000002384185791       0.60000002384185791       0.60000002384185791       0.80000001192092896     
   3.9994170888155969       -1.1906403227700464        4.3653283426253608       0.60000002384185791       0.60000002384185791       0.60000002384185791       0.80000001192092896     
   3.9994170888155955        1.1906403227700464        4.3653283426253608       0.60000002384185791       0.60000002384185791       0.60000002384185791       0.80000001192092896     
  -3.9787115991338662        1.1556032020745091        4.3375126914625612       0.60000002384185791       0.60000002384185791       0.60000002384185791       0.80000001192092896     
  -3.9787115991338653       -1.1556032020745091        4.3375126914625604       0.60000002384185791       0.60000002384185791       0.60000002384185791       0.80000001192092896     
   4.9827712223705420       -1.0309045177907128        4.3337503966327970       0.60000002384185791       0.60000002384185791       0.60000002384185791       0.80000001192092896     
   4.9827712223705420        1.0309045177907128        4.3337503966327970       0.60000002384185791       0.60000002384185791       0.60000002384185791       0.80000001192092896     
  -4.9845730867740050        1.0105539089987412        4.2686316762967511       0.60000002384185791       0.60000002384185791       0.60000002384185791       0.80000001192092896     
  -4.9845730867740050       -1.0105539089987401        4.2686316762967502       0.60000002384185791       0.60000002384185791       0.60000002384185791       0.80000001192092896     
   5.9819958376432467      -0.94094893772797095        4.2916175621520312       0.60000002384185791       0.60000002384185791       0.60000002384185791       0.80000001192092896     
   5.9819958376432476       0.94094893772797072        4.2916175621520312       0.60000002384185791       0.60000002384185791       0.60000002384185791       0.80000001192092896     
 -0.95080278464850565       -1.4574442316391039        3.1676787879843715       0.60000002384185791       0.60000002384185791       0.60000002384185791       0.80000001192092896     
  -1.8143824406103257       0.70103697597976156        2.3692709593640018       0.60000002384185791       0.60000002384185791       0.60000002384185791       0.80000001192092896     
  -1.8143824406103222      -0.70103697597975123        2.3692709593640027       0.60000002384185791       0.60000002384185791       0.60000002384185791       0.80000001192092896     
  0.86626438805074402       -1.4561677486604230        2.9594322291472106       0.60000002384185791       0.60000002384185791       0.60000002384185791       0.80000001192092896     
  0.86626438805074335        1.4561677486604225        2.9594322291472110       0.60000002384185791       0.60000002384185791       0.60000002384185791       0.80000001192092896     
  -2.0982062984216259        1.1686183647148236        3.2816663216841402       0.60000002384185791       0.60000002384185791       0.60000002384185791       0.80000001192092896     
  -2.0982062984216263       -1.1686183647148209        3.2816663216841411       0.60000002384185791       0.60000002384185791       0.60000002384185791       0.80000001192092896     
  -1.0050742270157703E-002  -1.5461673682756336        2.8862622973130749       0.60000002384185791       0.60000002384185791       0.60000002384185791       0.80000001192092896     
  -1.0050742270157712E-002   1.5461673682756332        2.8862622973130745       0.60000002384185791       0.60000002384185791       0.60000002384185791       0.80000001192092896     
   2.0897256611788300        1.1573776532241344        3.3044514047109108       0.60000002384185791       0.60000002384185791       0.60000002384185791       0.80000001192092896     
   3.3288870143927713      -0.61875335206446647        2.3410133446645589        1.0000000000000000        1.0000000000000000        0.0000000000000000        1.0000000000000000     
   5.1524752064052626      -0.88492801376814567        3.3806919674232430       0.60000002384185791       0.60000002384185791       0.60000002384185791       0.80000001192092896     
   5.1524752064052635       0.88492801376814589        3.3806919674232443       0.60000002384185791       0.60000002384185791       0.60000002384185791       0.80000001192092896     
 -0.64136068741679808       -1.3429659452976923        2.3741056837575032       0.60000002384185791       0.60000002384185791       0.60000002384185791       0.80000001192092896     
 -0.64136068741679619        1.3429659452976919        2.3741056837575027       0.60000002384185791       0.60000002384185791       0.60000002384185791       0.80000001192092896     
   3.3288870143927713       0.61875335206446680        2.3410133446645589        1.0000000000000000        1.0000000000000000        0.0000000000000000        1.0000000000000000     
  -3.3381724876645289       0.65921449096787499        2.5284741087501219        1.0000000000000000        1.0000000000000000        0.0000000000000000        1.0000000000000000     
  -4.8906445643484195       0.89980509633327954        3.3592257552945362       0.60000002384185791       0.60000002384185791       0.60000002384185791       0.80000001192092896     
  -4.8906445643484195      -0.89980509633327888        3.3592257552945375       0.60000002384185791       0.60000002384185791       0.60000002384185791       0.80000001192092896     
  -3.3381724876645298      -0.65921449096787399        2.5284741087501215        1.0000000000000000        1.0000000000000000        0.0000000000000000        1.0000000000000000     
  -6.6628457363392679E-003   9.2404642641013716E-017   1.0306063639638421        1.0000000000000000        1.0000000000000000        0.0000000000000000        1.0000000000000000     
   4.4924627125610446       -1.0857341168036301        3.6100626799480842       0.60000002384185791       0.60000002384185791       0.60000002384185791       0.80000001192092896     
   4.4924627125610446        1.0857341168036305        3.6100626799480833       0.60000002384185791       0.60000002384185791       0.60000002384185791       0.80000001192092896     
  -1.5427014401179056       0.53835291125783380        1.4848812874735264       0.60000002384185791       0.60000002384185791       0.60000002384185791       0.80000001192092896     
  -1.5427014401179047      -0.53835291125783047        1.4848812874735247       0.60000002384185791       0.60000002384185791       0.60000002384185791       0.80000001192092896     
   1.7639987719873964       -2.8927658482647053E-016   2.4880135614676830       0.60000002384185791       0.60000002384185791       0.60000002384185791       0.80000001192092896     
  0.62157733019405303       -1.1976269335294722        2.0005628263126942       0.60000002384185791       0.60000002384185791       0.60000002384185791       0.80000001192092896     
  0.62157733019405281        1.1976269335294718        2.0005628263126951       0.60000002384185791       0.60000002384185791       0.60000002384185791       0.80000001192092896     
   2.0898841243465585       -3.5909937161877655E-015   3.1400020279465721       0.60000002384185791       0.60000002384185791       0.60000002384185791       0.80000001192092896     
   6.2459314517451849      -0.80754149301757150        3.6634963610491380       0.60000002384185791       0.60000002384185791       0.60000002384185791       0.80000001192092896     
   6.2459314517451849       0.80754149301757105        3.6634963610491380       0.60000002384185791       0.60000002384185791       0.60000002384185791       0.80000001192092896     
  -2.0982736798171144        3.2380787949629647E-015   3.1151670511714977       0.60000002384185791       0.60000002384185791       0.60000002384185791       0.80000001192092896     
   1.0312395369892113       0.84430898242446550        1.8226947860676657       0.60000002384185791       0.60000002384185791       0.60000002384185791       0.80000001192092896     
   1.0312395369892118      -0.84430898242446517        1.8226947860676657       0.60000002384185791       0.60000002384185791       0.60000002384185791       0.80000001192092896     
  -7.4932412798915549E-002  -1.2034998679995563        1.9913190920282757       0.60000002384185791       0.60000002384185791       0.60000002384185791       0.80000001192092896     
  -7.4932412798915479E-002   1.2034998679995561        1.9913190920282757       0.60000002384185791       0.60000002384185791       0.60000002384185791       0.80000001192092896     
   2.0897256611788304       -1.1573776532241342        3.3044514047109095       0.60000002384185791       0.60000002384185791       0.60000002384185791       0.80000001192092896     
   1.3299372801642109        1.3032855772683705        2.5868891216188024       0.60000002384185791       0.60000002384185791       0.60000002384185791       0.80000001192092896     
  -4.3782466246848628       0.99685133305015849        3.5512046249616951       0.60000002384185791       0.60000002384185791       0.60000002384185791       0.80000001192092896     
  -4.3782466246848619      -0.99685133305015750        3.5512046249616933       0.60000002384185791       0.60000002384185791       0.60000002384185791       0.80000001192092896     
   1.3299372801642118       -1.3032855772683705        2.5868891216188015       0.60000002384185791       0.60000002384185791       0.60000002384185791       0.80000001192092896     
 -0.95080278464850454        1.4574442316391034        3.1676787879843711       0.60000002384185791       0.60000002384185791       0.60000002384185791       0.80000001192092896     
   1.1733080424793605        1.4720660557410082E-015   1.7479261126629837       0.60000002384185791       0.60000002384185791       0.60000002384185791       0.80000001192092896     
   3.7445684204691352       -1.0281748681017018        3.4389298205425098       0.60000002384185791       0.60000002384185791       0.60000002384185791       0.80000001192092896     
   3.7445684204691347        1.0281748681017024        3.4389298205425107       0.60000002384185791       0.60000002384185791       0.60000002384185791       0.80000001192092896     
   4.3801849023880832      -0.73665512433239921        2.8095049142783104       0.60000002384185791       0.60000002384185791       0.60000002384185791       0.80000001192092896     
   4.3801849023880832       0.73665512433239944        2.8095049142783108       0.60000002384185791       0.60000002384185791       0.60000002384185791       0.80000001192092896     
 -0.32656128753674990      -0.67380099188652898        1.7014595889698025       0.60000002384185791       0.60000002384185791       0.60000002384185791       0.80000001192092896     
 -0.32656128753674923       0.67380099188652931        1.7014595889698025       0.60000002384185791       0.60000002384185791       0.60000002384185791       0.80000001192092896     
  
   3   0  24  45
   3   0  45  24
   4   0  45  46   1
   3   1  46  25
   4   1  46  45   0
   3   1  25  46
   3   2  35  28
   3   2  35  31
   3   2  31  35
   3   2  31   6
   3   2   6  31
   3   2   9  28
   3   2  28  35
   3   2  28   9
   3   3  26  57
   3   3  57  26
   4   3  57  58   4
   3   4  58  27
   4   4  58  57   3
   3   4  27  58
   3   5   7  32
   3   5  32  36
   3   5  32   7
   3   5  36  32
   3   5  36  69
   3   5  69  36
   3   5  69   8
   3   5   8  69
   3   6   2  31
   3   6  31   2
   3   6  31  64
   3   6  64  10
   3   6  64  31
   3   6  10  64
   3   7  11  37
   3   7  37  32
   3   7  37  11
   3   7  32  37
   3   7  32   5
   3   7   5  32
   3   8   5  69
   3   8  69   5
   3   8  69  33
   3   8  33  12
   3   8  33  69
   3   8  12  33
   3   9  13  34
   3   9  34  28
   3   9  34  13
   3   9  28  34
   3   9  28   2
   3   9   2  28
   3  10   6  64
   3  10  64  14
   3  10  64   6
   3  10  14  64
   3  11  15  37
   3  11  37   7
   3  11  37  15
   3  11   7  37
   3  12   8  33
   3  12  33  16
   3  12  33   8
   3  12  16  33
   3  13  17  34
   3  13  34   9
   3  13  34  17
   3  13   9  34
   3  14  10  64
   3  14  64  38
   3  14  64  10
   3  14  38  71
   3  14  38  64
   3  14  71  38
   3  14  71  18
   3  14  18  71
   4  14  18  49  38
   3  15  19  72
   4  15  19  50  43
   3  15  72  43
   3  15  72  19
   3  15  43  37
   3  15  43  72
   3  15  37  43
   3  15  37  11
   3  15  11  37
   3  16  12  33
   3  16  33  44
   3  16  33  12
   3  16  44  20
   3  16  44  33
   3  16  20  44
   3  17  21  47
   3  17  47  34
   3  17  47  21
   3  17  34  47
   3  17  34  13
   3  17  13  34
   3  18  14  71
   4  18  14  38  49
   3  18  71  14
   3  18  71  49
   3  18  49  71
   3  18  49  22
   3  18  22  49
   3  19  23  50
   3  19  50  72
   3  19  50  23
   3  19  72  50
   3  19  72  15
   3  19  15  72
   4  19  15  43  50
   3  20  16  44
   3  20  44  66
   3  20  44  16
   3  20  66  44
   3  20  66  24
   3  20  24  66
   4  20  24  45  44
   3  21  25  67
   4  21  25  46  47
   3  21  67  47
   3  21  67  25
   3  21  47  17
   3  21  47  67
   3  21  17  47
   3  22  18  49
   3  22  49  18
   3  22  49  39
   3  22  39  26
   3  22  39  49
   3  22  26  39
   3  23  27  40
   3  23  40  50
   3  23  40  27
   3  23  50  40
   3  23  50  19
   3  23  19  50
   3  24  20  66
   4  24  20  44  45
   3  24  66  20
   3  24  66  45
   3  24  45   0
   3  24  45  66
   3  24   0  45
   3  25   1  46
   3  25  46   1
   3  25  46  67
   3  25  67  46
   3  25  67  21
   3  25  21  67
   4  25  21  47  46
   3  26  22  39
   3  26  39  57
   3  26  39  22
   3  26  57   3
   3  26  57  39
   3  26   3  57
   3  27   4  58
   3  27  58   4
   3  27  58  40
   3  27  40  58
   3  27  40  23
   3  27  23  40
   3  28  34  41
   3  28  34   9
   3  28  41  35
   3  28  41  34
   3  28  35  41
   3  28  35   2
   3  28   2  35
   3  28   2   9
   3  28   9  34
   3  28   9   2
   3  29  33  42
   3  29  33  59
   3  29  42  33
   3  29  42  76
   3  29  76  51
   3  29  76  42
   3  29  51  76
   4  29  51  52  30
   3  29  30  59
   4  29  30  52  51
   3  29  59  30
   3  29  59  33
   3  30  34  59
   3  30  34  41
   3  30  59  29
   3  30  59  34
   3  30  29  59
   4  30  29  51  52
   3  30  52  75
   4  30  52  51  29
   3  30  75  52
   3  30  75  41
   3  30  41  34
   3  30  41  75
   3  31   2  35
   3  31   2   6
   3  31  35  54
   3  31  35   2
   3  31  54  35
   3  31  54  68
   3  31  68  64
   3  31  68  54
   3  31  64   6
   3  31  64  68
   3  31   6   2
   3  31   6  64
   3  32  37  65
   3  32  37   7
   3  32  65  37
   3  32  65  55
   3  32  55  65
   3  32  55  36
   3  32  36  55
   3  32  36   5
   3  32   5   7
   3  32   5  36
   3  32   7  37
   3  32   7   5
   3  33  44  16
   3  33  44  59
   3  33  16  12
   3  33  16  44
   3  33  12   8
   3  33  12  16
   3  33   8  69
   3  33   8  12
   3  33  69  42
   3  33  69   8
   3  33  42  29
   3  33  42  69
   3  33  29  42
   3  33  29  59
   3  33  59  29
   3  33  59  44
   3  34  47  59
   3  34  47  17
   3  34  59  30
   3  34  59  47
   3  34  30  59
   3  34  30  41
   3  34  41  28
   3  34  41  30
   3  34  28  41
   3  34  28   9
   3  34   9  13
   3  34   9  28
   3  34  13  17
   3  34  13   9
   3  34  17  47
   3  34  17  13
   3  35  28  41
   3  35  28   2
   3  35  41  28
   3  35  41  62
   3  35  62  41
   3  35  62  54
   3  35  54  62
   3  35  54  31
   3  35  31   2
   3  35  31  54
   3  35   2  31
   3  35   2  28
   3  36  32  55
   3  36  32   5
   3  36  55  63
   3  36  55  32
   3  36  63  55
   3  36  63  42
   3  36  42  69
   3  36  42  63
   3  36  69   5
   3  36  69  42
   3  36   5  32
   3  36   5  69
   3  37  43  56
   3  37  43  15
   3  37  56  53
   3  37  56  43
   3  37  53  56
   3  37  53  65
   3  37  65  53
   3  37  65  32
   3  37  32  65
   3  37  32   7
   3  37   7  11
   3  37   7  32
   3  37  11  15
   3  37  11   7
   3  37  15  43
   3  37  15  11
   3  38  49  71
   4  38  49  18  14
   3  38  71  14
   3  38  71  49
   3  38  14  64
   3  38  14  71
   3  38  64  14
   3  38  64  56
   3  38  56  43
   3  38  56  64
   3  38  43  56
   4  38  43  74  73
   3  39  57  26
   4  39  57  58  40
   3  39  26  22
   3  39  26  57
   3  39  22  49
   3  39  22  26
   3  39  49  22
   4  39  49  38  73
   3  40  58  27
   4  40  58  57  39
   3  40  50  23
   4  40  50  43  74
   3  40  23  27
   3  40  23  50
   3  40  27  58
   3  40  27  23
   3  41  35  28
   3  41  35  62
   3  41  28  34
   3  41  28  35
   3  41  34  30
   3  41  34  28
   3  41  30  34
   3  41  30  75
   3  41  75  30
   3  41  75  62
   3  41  62  75
   3  41  62  35
   3  42  29  33
   3  42  29  76
   3  42  33  69
   3  42  33  29
   3  42  69  36
   3  42  69  33
   3  42  36  63
   3  42  36  69
   3  42  63  76
   3  42  63  36
   3  42  76  63
   3  42  76  29
   3  43  38  56
   4  43  38  73  74
   3  43  56  37
   3  43  56  38
   3  43  37  56
   3  43  37  15
   3  43  15  72
   3  43  15  37
   3  43  72  50
   3  43  72  15
   3  43  50  72
   4  43  50  40  74
   3  44  45  66
   4  44  45  24  20
   3  44  66  20
   3  44  66  45
   3  44  20  16
   3  44  20  66
   3  44  16  33
   3  44  16  20
   3  44  33  16
   3  44  33  59
   3  44  59  47
   3  44  59  33
   3  44  47  59
   4  44  47  46  45
   3  45   0  24
   4  45   0   1  46
   3  45  24  66
   3  45  24   0
   3  45  66  44
   3  45  66  24
   3  45  44  66
   4  45  44  20  24
   3  46   1  25
   4  46   1   0  45
   3  46  47  67
   4  46  47  44  45
   3  46  67  47
   3  46  67  25
   3  46  25   1
   3  46  25  67
   3  47  46  67
   4  47  46  45  44
   3  47  44  59
   4  47  44  45  46
   3  47  59  34
   3  47  59  44
   3  47  34  59
   3  47  34  17
   3  47  17  21
   3  47  17  34
   3  47  21  67
   3  47  21  17
   3  47  67  46
   3  47  67  21
   3  48  63  55
   3  48  63  76
   3  48  55  60
   3  48  55  63
   3  48  60  70
   3  48  60  55
   3  48  70  60
   3  48  70  61
   3  48  61  54
   3  48  61  70
   3  48  54  62
   3  48  54  61
   3  48  62  75
   3  48  62  54
   3  48  75  52
   3  48  75  62
   3  48  52  51
   3  48  52  75
   3  48  51  76
   3  48  51  52
   3  48  76  63
   3  48  76  51
   3  49  18  71
   3  49  18  22
   3  49  71  38
   3  49  71  18
   3  49  38  71
   4  49  38  73  39
   3  49  39  22
   4  49  39  73  38
   3  49  22  18
   3  49  22  39
   3  50  40  23
   4  50  40  74  43
   3  50  43  72
   4  50  43  74  40
   3  50  72  43
   3  50  72  19
   3  50  19  23
   3  50  19  72
   3  50  23  40
   3  50  23  19
   3  51  29  76
   4  51  29  30  52
   3  51  76  48
   3  51  76  29
   3  51  48  52
   3  51  48  76
   3  51  52  48
   4  51  52  30  29
   3  52  30  75
   4  52  30  29  51
   3  52  51  48
   4  52  51  29  30
   3  52  48  75
   3  52  48  51
   3  52  75  30
   3  52  75  48
   3  53  37  56
   3  53  37  65
   3  53  56  37
   3  53  56  64
   3  53  64  68
   3  53  64  56
   3  53  68  61
   3  53  68  64
   3  53  61  70
   3  53  61  68
   3  53  70  60
   3  53  70  61
   3  53  60  70
   3  53  60  65
   3  53  65  37
   3  53  65  60
   3  54  35  62
   3  54  35  31
   3  54  62  48
   3  54  62  35
   3  54  48  61
   3  54  48  62
   3  54  61  48
   3  54  61  68
   3  54  68  61
   3  54  68  31
   3  54  31  35
   3  54  31  68
   3  55  65  60
   3  55  65  32
   3  55  60  48
   3  55  60  65
   3  55  48  63
   3  55  48  60
   3  55  63  48
   3  55  63  36
   3  55  36  32
   3  55  36  63
   3  55  32  65
   3  55  32  36
   3  56  53  37
   3  56  53  64
   3  56  37  43
   3  56  37  53
   3  56  43  38
   3  56  43  37
   3  56  38  64
   3  56  38  43
   3  56  64  38
   3  56  64  53
   3  57   3  26
   4  57   3   4  58
   3  57  26  39
   3  57  26   3
   3  57  39  26
   4  57  39  40  58
   3  58   4  27
   4  58   4   3  57
   3  58  40  27
   4  58  40  39  57
   3  58  27   4
   3  58  27  40
   3  59  29  33
   3  59  29  30
   3  59  30  34
   3  59  30  29
   3  59  34  47
   3  59  34  30
   3  59  47  44
   3  59  47  34
   3  59  44  33
   3  59  44  47
   3  59  33  44
   3  59  33  29
   3  60  53  70
   3  60  53  65
   3  60  70  53
   3  60  70  48
   3  60  48  55
   3  60  48  70
   3  60  55  65
   3  60  55  48
   3  60  65  53
   3  60  65  55
   3  61  54  48
   3  61  54  68
   3  61  48  70
   3  61  48  54
   3  61  70  53
   3  61  70  48
   3  61  53  68
   3  61  53  70
   3  61  68  53
   3  61  68  54
   3  62  41  35
   3  62  41  75
   3  62  75  48
   3  62  75  41
   3  62  48  54
   3  62  48  75
   3  62  54  35
   3  62  54  48
   3  62  35  41
   3  62  35  54
   3  63  55  48
   3  63  55  36
   3  63  48  55
   3  63  48  76
   3  63  76  48
   3  63  76  42
   3  63  42  36
   3  63  42  76
   3  63  36  55
   3  63  36  42
   3  64  38  14
   3  64  38  56
   3  64  14  10
   3  64  14  38
   3  64  10   6
   3  64  10  14
   3  64   6  31
   3  64   6  10
   3  64  31  68
   3  64  31   6
   3  64  68  53
   3  64  68  31
   3  64  53  56
   3  64  53  68
   3  64  56  53
   3  64  56  38
   3  65  37  53
   3  65  37  32
   3  65  53  37
   3  65  53  60
   3  65  60  53
   3  65  60  55
   3  65  55  60
   3  65  55  32
   3  65  32  37
   3  65  32  55
   3  66  20  44
   3  66  20  24
   3  66  44  45
   3  66  44  20
   3  66  45  24
   3  66  45  44
   3  66  24  20
   3  66  24  45
   3  67  46  47
   3  67  46  25
   3  67  47  46
   3  67  47  21
   3  67  21  25
   3  67  21  47
   3  67  25  46
   3  67  25  21
   3  68  61  54
   3  68  61  53
   3  68  53  64
   3  68  53  61
   3  68  64  31
   3  68  64  53
   3  68  31  54
   3  68  31  64
   3  68  54  61
   3  68  54  31
   3  69   5  36
   3  69   5   8
   3  69  36  42
   3  69  36   5
   3  69  42  33
   3  69  42  36
   3  69  33   8
   3  69  33  42
   3  69   8   5
   3  69   8  33
   3  70  60  53
   3  70  60  48
   3  70  53  61
   3  70  53  60
   3  70  61  48
   3  70  61  53
   3  70  48  60
   3  70  48  61
   3  71  14  38
   3  71  14  18
   3  71  38  49
   3  71  38  14
   3  71  49  18
   3  71  49  38
   3  71  18  14
   3  71  18  49
   3  72  50  43
   3  72  50  19
   3  72  43  15
   3  72  43  50
   3  72  15  19
   3  72  15  43
   3  72  19  50
   3  72  19  15
   3  75  30  52
   3  75  30  41
   3  75  52  30
   3  75  52  48
   3  75  48  62
   3  75  48  52
   3  75  62  41
   3  75  62  48
   3  75  41  30
   3  75  41  62
   3  76  63  48
   3  76  63  42
   3  76  48  63
   3  76  48  51
   3  76  51  29
   3  76  51  48
   3  76  29  42
   3  76  29  51
   3  76  42  29
   3  76  42  63
