# Generated by dad_to_polygons. Vertex data from Humppa's .off file,
# polygons parsed from .dad file.
COFF
7 12 7
-1.374646 0.521657 1.384680 0.500000 0.500000 0.500000 1.0
-1.374646 -0.521657 1.384680 0.500000 0.500000 0.500000 1.0
-0.000298 -1.041233 1.383610 0.500000 0.500000 0.500000 1.0
1.471176 -0.521815 1.384835 0.500000 0.500000 0.500000 1.0
1.471176 0.521815 1.384835 0.500000 0.500000 0.500000 1.0
-0.000298 1.041233 1.383610 0.500000 0.500000 0.500000 1.0
0.001482 -0.000000 1.030606 1.0 1.0 0.0 1.0
3 1 2 6
3 1 6 2
3 3 2 6
3 3 6 2
3 3 6 4
3 3 4 6
3 4 5 6
3 4 6 5
3 6 0 5
3 6 5 0
3 6 1 0
3 6 0 1
