# Generated by dad_to_polygons. Vertex data from Humppa's .off file,
# polygons parsed from .dad file.
COFF
99 336 99
-6.442794 0.956952 4.888981 0.500000 0.500000 0.500000 1.0
-6.442794 -0.956952 4.888981 0.500000 0.500000 0.500000 1.0
-0.030393 -1.970153 4.619192 0.500000 0.500000 0.500000 1.0
7.305921 -0.893983 4.997104 0.500000 0.500000 0.500000 1.0
7.305921 0.893983 4.997104 0.500000 0.500000 0.500000 1.0
-0.030393 1.970153 4.619192 0.500000 0.500000 0.500000 1.0
1.077650 -1.667511 4.744261 0.500000 0.500000 0.500000 1.0
1.077650 1.667511 4.744261 0.500000 0.500000 0.500000 1.0
-1.103490 1.647709 4.718127 0.500000 0.500000 0.500000 1.0
-1.103490 -1.647709 4.718127 0.500000 0.500000 0.500000 1.0
2.004554 -1.364686 4.966900 0.500000 0.500000 0.500000 1.0
2.004554 1.364686 4.966900 0.500000 0.500000 0.500000 1.0
-2.033976 1.366299 4.952415 0.500000 0.500000 0.500000 1.0
-2.033976 -1.366299 4.952415 0.500000 0.500000 0.500000 1.0
3.014035 -1.442711 4.813794 0.500000 0.500000 0.500000 1.0
3.014035 1.442711 4.813794 0.500000 0.500000 0.500000 1.0
-3.007855 1.431301 4.736463 0.500000 0.500000 0.500000 1.0
-3.007855 -1.431301 4.736463 0.500000 0.500000 0.500000 1.0
4.020502 -1.367871 5.000224 0.500000 0.500000 0.500000 1.0
4.020502 1.367871 5.000224 0.500000 0.500000 0.500000 1.0
-3.996451 1.357146 4.957203 0.500000 0.500000 0.500000 1.0
-3.996451 -1.357146 4.957203 0.500000 0.500000 0.500000 1.0
5.006177 -1.179928 5.007355 0.500000 0.500000 0.500000 1.0
5.006177 1.179928 5.007355 0.500000 0.500000 0.500000 1.0
-5.009258 1.175424 4.919506 0.500000 0.500000 0.500000 1.0
-5.009258 -1.175424 4.919506 0.500000 0.500000 0.500000 1.0
6.001882 -1.057179 5.003978 0.500000 0.500000 0.500000 1.0
6.001882 1.057179 5.003978 0.500000 0.500000 0.500000 1.0
-0.934229 -1.620338 3.744930 0.500000 0.500000 0.500000 1.0
-1.754687 0.798087 2.831048 0.500000 0.500000 0.500000 1.0
-1.754687 -0.798087 2.831048 0.500000 0.500000 0.500000 1.0
0.847913 -1.622508 3.528357 0.500000 0.500000 0.500000 1.0
0.847913 1.622508 3.528357 0.500000 0.500000 0.500000 1.0
-2.084294 1.361940 3.876315 0.500000 0.500000 0.500000 1.0
-2.084294 -1.361940 3.876315 0.500000 0.500000 0.500000 1.0
0.020489 -1.716592 3.426537 0.500000 0.500000 0.500000 1.0
0.020489 1.716592 3.426537 0.500000 0.500000 0.500000 1.0
2.040604 1.331728 3.970451 0.500000 0.500000 0.500000 1.0
3.337521 -0.618849 2.341013 1.0 1.0 0.0 1.0
5.410916 -1.053558 4.034845 0.500000 0.500000 0.500000 1.0
5.410916 1.053558 4.034845 0.500000 0.500000 0.500000 1.0
-0.689403 -1.602639 2.920365 0.500000 0.500000 0.500000 1.0
-0.689403 1.602639 2.920365 0.500000 0.500000 0.500000 1.0
3.337521 0.618849 2.341013 1.0 1.0 0.0 1.0
-3.366336 0.659325 2.528474 1.0 1.0 0.0 1.0
-5.030823 1.141555 3.976281 0.500000 0.500000 0.500000 1.0
-5.030823 -1.141555 3.976281 0.500000 0.500000 0.500000 1.0
-3.366336 -0.659325 2.528474 1.0 1.0 0.0 1.0
0.036973 0.000000 1.030606 1.0 1.0 0.0 1.0
4.512457 -1.272820 4.314238 0.500000 0.500000 0.500000 1.0
4.512457 1.272820 4.314238 0.500000 0.500000 0.500000 1.0
-1.385478 0.706178 1.684054 0.500000 0.500000 0.500000 1.0
-1.385478 -0.706178 1.684054 0.500000 0.500000 0.500000 1.0
1.801357 0.000000 2.927324 0.500000 0.500000 0.500000 1.0
0.761465 -1.531939 2.462634 0.500000 0.500000 0.500000 1.0
0.761465 1.531939 2.462634 0.500000 0.500000 0.500000 1.0
2.040865 0.000000 3.568088 0.500000 0.500000 0.500000 1.0
6.496187 -0.914335 4.366627 0.500000 0.500000 0.500000 1.0
6.496187 0.914335 4.366627 0.500000 0.500000 0.500000 1.0
-2.084467 0.000000 3.450646 0.500000 0.500000 0.500000 1.0
1.147229 1.119400 2.251961 0.500000 0.500000 0.500000 1.0
1.147229 -1.119400 2.251961 0.500000 0.500000 0.500000 1.0
0.049868 -1.548012 2.408738 0.500000 0.500000 0.500000 1.0
0.049868 1.548012 2.408738 0.500000 0.500000 0.500000 1.0
2.040604 -1.331728 3.970451 0.500000 0.500000 0.500000 1.0
1.303545 1.474811 3.210269 0.500000 0.500000 0.500000 1.0
-4.514960 1.264004 4.147993 0.500000 0.500000 0.500000 1.0
-4.514960 -1.264004 4.147993 0.500000 0.500000 0.500000 1.0
1.303545 -1.474811 3.210269 0.500000 0.500000 0.500000 1.0
-0.934229 1.620338 3.744930 0.500000 0.500000 0.500000 1.0
1.415215 0.000000 2.194142 0.500000 0.500000 0.500000 1.0
3.857168 -1.279879 3.914507 0.500000 0.500000 0.500000 1.0
3.857168 1.279879 3.914507 0.500000 0.500000 0.500000 1.0
4.822771 -0.781616 3.000083 0.500000 0.500000 0.500000 1.0
4.822771 0.781616 3.000083 0.500000 0.500000 0.500000 1.0
-0.457666 -1.344348 2.158676 0.500000 0.500000 0.500000 1.0
-0.457666 1.344348 2.158676 0.500000 0.500000 0.500000 1.0
3.110258 -1.312979 3.717994 0.500000 0.500000 0.500000 1.0
3.110258 1.312979 3.717994 0.500000 0.500000 0.500000 1.0
-3.806384 1.281122 3.983856 0.500000 0.500000 0.500000 1.0
-3.806384 -1.281122 3.983856 0.500000 0.500000 0.500000 1.0
4.228554 -1.112078 3.391703 0.500000 0.500000 0.500000 1.0
4.228554 1.112078 3.391703 0.500000 0.500000 0.500000 1.0
-3.150046 1.270100 3.706398 0.500000 0.500000 0.500000 1.0
-3.150046 -1.270100 3.706398 0.500000 0.500000 0.500000 1.0
-5.333395 0.000000 3.797446 0.500000 0.500000 0.500000 1.0
-4.566283 0.421809 3.064983 0.500000 0.500000 0.500000 1.0
-4.566283 -0.421809 3.064983 0.500000 0.500000 0.500000 1.0
-4.559737 0.920018 3.218891 0.500000 0.500000 0.500000 1.0
-4.559737 -0.920018 3.218891 0.500000 0.500000 0.500000 1.0
0.523872 0.979492 1.717094 0.500000 0.500000 0.500000 1.0
0.523872 -0.979492 1.717094 0.500000 0.500000 0.500000 1.0
2.548324 0.946379 3.186529 0.500000 0.500000 0.500000 1.0
2.548324 -0.946379 3.186529 0.500000 0.500000 0.500000 1.0
5.551300 -0.000000 3.856910 0.500000 0.500000 0.500000 1.0
-3.977067 1.055636 3.340982 0.500000 0.500000 0.500000 1.0
-3.977067 -1.055636 3.340982 0.500000 0.500000 0.500000 1.0
0.031405 0.865262 1.688613 0.500000 0.500000 0.500000 1.0
0.031405 -0.865262 1.688613 0.500000 0.500000 0.500000 1.0
3 0 45 24
3 0 24 45
3 0 45 85
3 0 85 45
3 0 85 1
3 0 1 85
3 2 28 35
3 2 35 28
3 2 31 6
3 2 6 31
3 2 35 31
3 2 31 35
3 3 57 58
3 3 58 57
3 3 58 4
3 3 4 58
3 4 58 27
3 4 27 58
3 5 7 32
3 5 32 7
3 5 36 69
3 5 69 36
3 7 37 32
3 7 32 37
3 9 28 34
3 9 34 28
3 11 37 15
3 11 15 37
3 12 8 33
3 12 33 8
3 12 33 16
3 12 16 33
3 13 34 9
3 13 9 34
3 14 64 77
3 14 77 64
3 14 71 77
3 14 77 71
3 15 72 78
3 15 78 72
3 16 20 79
3 16 79 20
3 16 79 83
3 16 83 79
3 17 13 34
3 17 34 13
3 17 34 84
3 17 84 34
3 17 84 80
3 17 80 84
3 18 49 22
3 18 22 49
3 18 71 49
3 18 49 71
3 19 50 72
3 19 72 50
3 19 72 15
3 19 15 72
3 20 24 66
3 20 66 24
3 21 67 25
3 21 25 67
3 21 80 17
3 21 17 80
3 22 26 39
3 22 39 26
3 22 39 49
3 22 49 39
3 23 50 19
3 23 19 50
3 24 45 66
3 24 66 45
3 25 46 67
3 25 67 46
3 26 57 3
3 26 3 57
3 27 23 40
3 27 40 23
3 27 40 58
3 27 58 40
3 28 9 2
3 28 2 9
3 28 34 41
3 28 41 34
3 28 41 35
3 28 35 41
3 29 33 42
3 29 42 33
3 29 59 30
3 29 30 59
3 30 34 59
3 30 59 34
3 30 41 34
3 30 34 41
3 30 41 75
3 30 75 41
3 30 51 29
3 30 29 51
3 30 52 51
3 30 51 52
3 31 6 64
3 31 64 6
3 31 54 68
3 31 68 54
3 31 64 68
3 31 68 64
3 32 5 36
3 32 36 5
3 32 37 65
3 32 65 37
3 32 55 36
3 32 36 55
3 32 65 55
3 32 55 65
3 33 16 83
3 33 83 16
3 33 42 69
3 33 69 42
3 33 59 29
3 33 29 59
3 33 69 8
3 33 8 69
3 34 84 47
3 34 47 84
3 35 31 54
3 35 54 31
3 35 41 62
3 35 62 41
3 35 54 62
3 35 62 54
3 36 42 63
3 36 63 42
3 37 11 7
3 37 7 11
3 37 92 56
3 37 56 92
3 37 92 78
3 37 78 92
3 38 43 56
3 38 56 43
3 38 56 93
3 38 93 56
3 38 77 93
3 38 93 77
3 39 57 26
3 39 26 57
3 39 73 94
3 39 94 73
3 39 81 49
3 39 49 81
3 39 81 73
3 39 73 81
3 39 94 57
3 39 57 94
3 40 50 23
3 40 23 50
3 40 94 58
3 40 58 94
3 41 75 62
3 41 62 75
3 42 69 36
3 42 36 69
3 42 76 29
3 42 29 76
3 43 56 92
3 43 92 56
3 43 73 38
3 43 38 73
3 43 74 73
3 43 73 74
3 43 78 72
3 43 72 78
3 44 47 59
3 44 59 47
3 44 59 33
3 44 33 59
3 44 79 83
3 44 83 79
3 44 95 79
3 44 79 95
3 45 66 88
3 45 88 66
3 46 1 25
3 46 25 1
3 46 1 85
3 46 85 1
3 46 67 89
3 46 89 67
3 47 34 59
3 47 59 34
3 47 80 96
3 47 96 80
3 47 84 80
3 47 80 84
3 47 86 44
3 47 44 86
3 47 87 86
3 47 86 87
3 47 87 89
3 47 89 87
3 48 51 52
3 48 52 51
3 48 51 76
3 48 76 51
3 48 61 70
3 48 70 61
3 48 70 60
3 48 60 70
3 48 75 52
3 48 52 75
3 48 75 98
3 48 98 75
3 48 91 61
3 48 61 91
3 48 97 90
3 48 90 97
3 48 98 91
3 48 91 98
3 49 81 71
3 49 71 81
3 50 40 82
3 50 82 40
3 51 76 29
3 51 29 76
3 53 56 37
3 53 37 56
3 53 61 70
3 53 70 61
3 53 64 56
3 53 56 64
3 53 64 68
3 53 68 64
3 53 65 37
3 53 37 65
3 53 70 60
3 53 60 70
3 54 61 68
3 54 68 61
3 54 91 61
3 54 61 91
3 55 63 36
3 55 36 63
3 55 90 63
3 55 63 90
3 60 48 90
3 60 90 48
3 60 53 65
3 60 65 53
3 60 55 90
3 60 90 55
3 60 65 55
3 60 55 65
3 61 68 53
3 61 53 68
3 62 54 91
3 62 91 54
3 62 91 98
3 62 98 91
3 63 42 76
3 63 76 42
3 63 76 97
3 63 97 76
3 64 10 6
3 64 6 10
3 64 14 10
3 64 10 14
3 64 93 77
3 64 77 93
3 66 79 20
3 66 20 79
3 66 88 95
3 66 95 88
3 66 95 79
3 66 79 95
3 67 80 21
3 67 21 80
3 67 96 80
3 67 80 96
3 69 5 8
3 69 8 5
3 71 14 18
3 71 18 14
3 71 38 77
3 71 77 38
3 71 38 81
3 71 81 38
3 72 82 43
3 72 43 82
3 72 82 50
3 72 50 82
3 73 81 38
3 73 38 81
3 74 40 94
3 74 94 40
3 74 43 82
3 74 82 43
3 74 73 94
3 74 94 73
3 75 30 52
3 75 52 30
3 75 62 98
3 75 98 62
3 76 97 48
3 76 48 97
3 78 15 37
3 78 37 15
3 82 74 40
3 82 40 74
3 83 44 33
3 83 33 44
3 85 45 88
3 85 88 45
3 85 46 89
3 85 89 46
3 86 85 87
3 86 87 85
3 87 85 89
3 87 89 85
3 88 86 44
3 88 44 86
3 88 86 85
3 88 85 86
3 89 47 96
3 89 96 47
3 89 67 96
3 89 96 67
3 90 97 63
3 90 63 97
3 92 78 43
3 92 43 78
3 93 64 56
3 93 56 64
3 94 57 58
3 94 58 57
3 95 44 88
3 95 88 44
