 COFF
          99         990          99
  
  -6.4427941121453811       0.95695244133484636        4.8889814410496122       0.60000002384185791       0.60000002384185791       0.60000002384185791       0.80000001192092896     
  -6.4427941121453927      -0.95695244133484481        4.8889814410496122       0.60000002384185791       0.60000002384185791       0.60000002384185791       0.80000001192092896     
  -3.0392648304467546E-002  -1.9701530429589242        4.6191923702273225       0.60000002384185791       0.60000002384185791       0.60000002384185791       0.80000001192092896     
   7.3059211920725060      -0.89398332973558048        4.9971040021998085       0.60000002384185791       0.60000002384185791       0.60000002384185791       0.80000001192092896     
   7.3059211920725016       0.89398332973558059        4.9971040021998148       0.60000002384185791       0.60000002384185791       0.60000002384185791       0.80000001192092896     
  -3.0392648304464174E-002   1.9701530429588945        4.6191923702273590       0.60000002384185791       0.60000002384185791       0.60000002384185791       0.80000001192092896     
   1.0776503192312297       -1.6675114198526906        4.7442607336728377       0.60000002384185791       0.60000002384185791       0.60000002384185791       0.80000001192092896     
   1.0776503192312830        1.6675114198525034        4.7442607336730109       0.60000002384185791       0.60000002384185791       0.60000002384185791       0.80000001192092896     
  -1.1034902185676529        1.6477092418580552        4.7181271090374990       0.60000002384185791       0.60000002384185791       0.60000002384185791       0.80000001192092896     
  -1.1034902185676543       -1.6477092418580599        4.7181271090374981       0.60000002384185791       0.60000002384185791       0.60000002384185791       0.80000001192092896     
   2.0045535394067664       -1.3646860842272988        4.9669003523358564       0.60000002384185791       0.60000002384185791       0.60000002384185791       0.80000001192092896     
   2.0045535394066785        1.3646860842268613        4.9669003523362942       0.60000002384185791       0.60000002384185791       0.60000002384185791       0.80000001192092896     
  -2.0339756086958971        1.3662990304647968        4.9524148941409862       0.60000002384185791       0.60000002384185791       0.60000002384185791       0.80000001192092896     
  -2.0339756086958967       -1.3662990304647966        4.9524148941409853       0.60000002384185791       0.60000002384185791       0.60000002384185791       0.80000001192092896     
   3.0140346212530256       -1.4427106051717700        4.8137935644410197       0.60000002384185791       0.60000002384185791       0.60000002384185791       0.80000001192092896     
   3.0140346212533777        1.4427106051697745        4.8137935644433822       0.60000002384185791       0.60000002384185791       0.60000002384185791       0.80000001192092896     
  -3.0078550625865295        1.4313007164807092        4.7364626993032832       0.60000002384185791       0.60000002384185791       0.60000002384185791       0.80000001192092896     
  -3.0078550625865290       -1.4313007164807101        4.7364626993032841       0.60000002384185791       0.60000002384185791       0.60000002384185791       0.80000001192092896     
   4.0205018953688274       -1.3678705928748420        5.0002241545697537       0.60000002384185791       0.60000002384185791       0.60000002384185791       0.80000001192092896     
   4.0205018953685920        1.3678705928739090        5.0002241545707067       0.60000002384185791       0.60000002384185791       0.60000002384185791       0.80000001192092896     
  -3.9964511814792369        1.3571460763055754        4.9572032462271372       0.60000002384185791       0.60000002384185791       0.60000002384185791       0.80000001192092896     
  -3.9964511814792356       -1.3571460763055752        4.9572032462271363       0.60000002384185791       0.60000002384185791       0.60000002384185791       0.80000001192092896     
   5.0061773889372887       -1.1799282591459033        5.0073547416089124       0.60000002384185791       0.60000002384185791       0.60000002384185791       0.80000001192092896     
   5.0061773889049936        1.1799282591522302        5.0073547415834714       0.60000002384185791       0.60000002384185791       0.60000002384185791       0.80000001192092896     
  -5.0092579425082810        1.1754242696079051        4.9195061776538749       0.60000002384185791       0.60000002384185791       0.60000002384185791       0.80000001192092896     
  -5.0092579425082810       -1.1754242696079038        4.9195061776538740       0.60000002384185791       0.60000002384185791       0.60000002384185791       0.80000001192092896     
   6.0018815548084969       -1.0571789605928847        5.0039780660284130       0.60000002384185791       0.60000002384185791       0.60000002384185791       0.80000001192092896     
   6.0018815548131883        1.0571789605905584        5.0039780660081874       0.60000002384185791       0.60000002384185791       0.60000002384185791       0.80000001192092896     
 -0.93422925093588383       -1.6203381134159900        3.7449302925247578       0.60000002384185791       0.60000002384185791       0.60000002384185791       0.80000001192092896     
  -1.7546874636569665       0.79808672873286157        2.8310477492512480       0.60000002384185791       0.60000002384185791       0.60000002384185791       0.80000001192092896     
  -1.7546874636569654      -0.79808672873286113        2.8310477492512476       0.60000002384185791       0.60000002384185791       0.60000002384185791       0.80000001192092896     
  0.84791339184671144       -1.6225078048165249        3.5283572501555311       0.60000002384185791       0.60000002384185791       0.60000002384185791       0.80000001192092896     
  0.84791339184907644        1.6225078048160373        3.5283572501565730       0.60000002384185791       0.60000002384185791       0.60000002384185791       0.80000001192092896     
  -2.0842941363382304        1.3619402805573801        3.8763149260631731       0.60000002384185791       0.60000002384185791       0.60000002384185791       0.80000001192092896     
  -2.0842941363382317       -1.3619402805573793        3.8763149260631748       0.60000002384185791       0.60000002384185791       0.60000002384185791       0.80000001192092896     
   2.0488785124142886E-002  -1.7165918832093208        3.4265374062450520       0.60000002384185791       0.60000002384185791       0.60000002384185791       0.80000001192092896     
   2.0488785124161052E-002   1.7165918832093394        3.4265374062450831       0.60000002384185791       0.60000002384185791       0.60000002384185791       0.80000001192092896     
   2.0406043592023191        1.3317283979498400        3.9704510632924186       0.60000002384185791       0.60000002384185791       0.60000002384185791       0.80000001192092896     
   3.3375212814366977      -0.61884881498848765        2.3410133446645589        1.0000000000000000        1.0000000000000000        0.0000000000000000        1.0000000000000000     
   5.4109161543396054       -1.0535578104507204        4.0348447453548539       0.60000002384185791       0.60000002384185791       0.60000002384185791       0.80000001192092896     
   5.4109161542990991        1.0535578104839003        4.0348447453593224       0.60000002384185791       0.60000002384185791       0.60000002384185791       0.80000001192092896     
 -0.68940330933061555       -1.6026391678865106        2.9203653000280845       0.60000002384185791       0.60000002384185791       0.60000002384185791       0.80000001192092896     
 -0.68940330933060945        1.6026391678865015        2.9203653000280854       0.60000002384185791       0.60000002384185791       0.60000002384185791       0.80000001192092896     
   3.3375212814233439       0.61884881498497635        2.3410133446645589        1.0000000000000000        1.0000000000000000        0.0000000000000000        1.0000000000000000     
  -3.3663357382884120       0.65932544886740541        2.5284741087501219        1.0000000000000000        1.0000000000000000        0.0000000000000000        1.0000000000000000     
  -5.0308234241960967        1.1415546581631699        3.9762812073441038       0.60000002384185791       0.60000002384185791       0.60000002384185791       0.80000001192092896     
  -5.0308234241960967       -1.1415546581631686        3.9762812073441047       0.60000002384185791       0.60000002384185791       0.60000002384185791       0.80000001192092896     
  -3.3663357382884129      -0.65932544886740418        2.5284741087501215        1.0000000000000000        1.0000000000000000        0.0000000000000000        1.0000000000000000     
   3.6972636019312277E-002   7.5515694171093406E-015   1.0306063639638421        1.0000000000000000        1.0000000000000000        0.0000000000000000        1.0000000000000000     
   4.5124572305416040       -1.2728202136240394        4.3142379259733961       0.60000002384185791       0.60000002384185791       0.60000002384185791       0.80000001192092896     
   4.5124572297112797        1.2728202143850302        4.3142379262780421       0.60000002384185791       0.60000002384185791       0.60000002384185791       0.80000001192092896     
  -1.3854783190865281       0.70617825694835012        1.6840535641134586       0.60000002384185791       0.60000002384185791       0.60000002384185791       0.80000001192092896     
  -1.3854783190865276      -0.70617825694834668        1.6840535641134571       0.60000002384185791       0.60000002384185791       0.60000002384185791       0.80000001192092896     
   1.8013568563551960        3.4889494367128682E-012   2.9273236084545626       0.60000002384185791       0.60000002384185791       0.60000002384185791       0.80000001192092896     
  0.76146469291260588       -1.5319391357702383        2.4626336196470691       0.60000002384185791       0.60000002384185791       0.60000002384185791       0.80000001192092896     
  0.76146469291300822        1.5319391357700953        2.4626336196472383       0.60000002384185791       0.60000002384185791       0.60000002384185791       0.80000001192092896     
   2.0408646538443849        4.4132155855448289E-012   3.5680877243867086       0.60000002384185791       0.60000002384185791       0.60000002384185791       0.80000001192092896     
   6.4961870434554907      -0.91433535989384129        4.3666268689556746       0.60000002384185791       0.60000002384185791       0.60000002384185791       0.80000001192092896     
   6.4961870434557394       0.91433535989380721        4.3666268689557572       0.60000002384185791       0.60000002384185791       0.60000002384185791       0.80000001192092896     
  -2.0844673479674682        4.2079938081107902E-015   3.4506458830762377       0.60000002384185791       0.60000002384185791       0.60000002384185791       0.80000001192092896     
   1.1472292446292627        1.1194002196569717        2.2519607401170401       0.60000002384185791       0.60000002384185791       0.60000002384185791       0.80000001192092896     
   1.1472292446290102       -1.1194002196568771        2.2519607401170236       0.60000002384185791       0.60000002384185791       0.60000002384185791       0.80000001192092896     
   4.9867860063527121E-002  -1.5480120458127582        2.4087383930875750       0.60000002384185791       0.60000002384185791       0.60000002384185791       0.80000001192092896     
   4.9867860063514784E-002   1.5480120458127360        2.4087383930875781       0.60000002384185791       0.60000002384185791       0.60000002384185791       0.80000001192092896     
   2.0406043591979182       -1.3317283979490440        3.9704510632949614       0.60000002384185791       0.60000002384185791       0.60000002384185791       0.80000001192092896     
   1.3035447680790697        1.4748109385188677        3.2102690520664225       0.60000002384185791       0.60000002384185791       0.60000002384185791       0.80000001192092896     
  -4.5149602491225629        1.2640037324976274        4.1479933730862557       0.60000002384185791       0.60000002384185791       0.60000002384185791       0.80000001192092896     
  -4.5149602491225638       -1.2640037324976265        4.1479933730862566       0.60000002384185791       0.60000002384185791       0.60000002384185791       0.80000001192092896     
   1.3035447680783234       -1.4748109385183881        3.2102690520664319       0.60000002384185791       0.60000002384185791       0.60000002384185791       0.80000001192092896     
 -0.93422925093587983        1.6203381134159840        3.7449302925247654       0.60000002384185791       0.60000002384185791       0.60000002384185791       0.80000001192092896     
   1.4152151156330719        7.3968852021284149E-012   2.1941415357093899       0.60000002384185791       0.60000002384185791       0.60000002384185791       0.80000001192092896     
   3.8571679568061148       -1.2798792981200553        3.9145071632593242       0.60000002384185791       0.60000002384185791       0.60000002384185791       0.80000001192092896     
   3.8571679563119763        1.2798792981802729        3.9145071629727526       0.60000002384185791       0.60000002384185791       0.60000002384185791       0.80000001192092896     
   4.8227708274032830      -0.78161585889279839        3.0000834282182707       0.60000002384185791       0.60000002384185791       0.60000002384185791       0.80000001192092896     
   4.8227708273818308       0.78161585888598339        3.0000834282323967       0.60000002384185791       0.60000002384185791       0.60000002384185791       0.80000001192092896     
 -0.45766579276481556       -1.3443482171350678        2.1586759301660630       0.60000002384185791       0.60000002384185791       0.60000002384185791       0.80000001192092896     
 -0.45766579276481067        1.3443482171350645        2.1586759301660656       0.60000002384185791       0.60000002384185791       0.60000002384185791       0.80000001192092896     
   3.1102582569270569       -1.3129790500060436        3.7179940169328529       0.60000002384185791       0.60000002384185791       0.60000002384185791       0.80000001192092896     
   3.1102582569335508        1.3129790500080569        3.7179940169340138       0.60000002384185791       0.60000002384185791       0.60000002384185791       0.80000001192092896     
  -3.8063842908611005        1.2811215819411308        3.9838558207515784       0.60000002384185791       0.60000002384185791       0.60000002384185791       0.80000001192092896     
  -3.8063842908611019       -1.2811215819411310        3.9838558207515757       0.60000002384185791       0.60000002384185791       0.60000002384185791       0.80000001192092896     
   4.2285543449135741       -1.1120784163491868        3.3917031884153963       0.60000002384185791       0.60000002384185791       0.60000002384185791       0.80000001192092896     
   4.2285543447658327        1.1120784164142992        3.3917031884250481       0.60000002384185791       0.60000002384185791       0.60000002384185791       0.80000001192092896     
  -3.1500462574535737        1.2701003626132306        3.7063975634362634       0.60000002384185791       0.60000002384185791       0.60000002384185791       0.80000001192092896     
  -3.1500462574535733       -1.2701003626132308        3.7063975634362634       0.60000002384185791       0.60000002384185791       0.60000002384185791       0.80000001192092896     
  -5.3333946147210414        9.1138203808116887E-016   3.7974463047117886       0.60000002384185791       0.60000002384185791       0.60000002384185791       0.80000001192092896     
  -4.5662830663596026       0.42180890368105706        3.0649833646281355       0.60000002384185791       0.60000002384185791       0.60000002384185791       0.80000001192092896     
  -4.5662830663596035      -0.42180890368105567        3.0649833646281355       0.60000002384185791       0.60000002384185791       0.60000002384185791       0.80000001192092896     
  -4.5597373318623697       0.92001802855834114        3.2188906563398985       0.60000002384185791       0.60000002384185791       0.60000002384185791       0.80000001192092896     
  -4.5597373318623715      -0.92001802855834025        3.2188906563398993       0.60000002384185791       0.60000002384185791       0.60000002384185791       0.80000001192092896     
  0.52387219286379383       0.97949216795669758        1.7170937885165007       0.60000002384185791       0.60000002384185791       0.60000002384185791       0.80000001192092896     
  0.52387219286380837      -0.97949216795671357        1.7170937885164976       0.60000002384185791       0.60000002384185791       0.60000002384185791       0.80000001192092896     
   2.5483242657360763       0.94637881907871646        3.1865293507602890       0.60000002384185791       0.60000002384185791       0.60000002384185791       0.80000001192092896     
   2.5483242657314986      -0.94637881907387900        3.1865293507628332       0.60000002384185791       0.60000002384185791       0.60000002384185791       0.80000001192092896     
   5.5512997622196041       -6.9786897769013008E-012   3.8569099672457559       0.60000002384185791       0.60000002384185791       0.60000002384185791       0.80000001192092896     
  -3.9770667947954959        1.0556363333289014        3.3409818314441164       0.60000002384185791       0.60000002384185791       0.60000002384185791       0.80000001192092896     
  -3.9770667947954976       -1.0556363333289009        3.3409818314441164       0.60000002384185791       0.60000002384185791       0.60000002384185791       0.80000001192092896     
   3.1404614948089105E-002  0.86526216527926825        1.6886127871090979       0.60000002384185791       0.60000002384185791       0.60000002384185791       0.80000001192092896     
   3.1404614948092976E-002 -0.86526216527926969        1.6886127871090970       0.60000002384185791       0.60000002384185791       0.60000002384185791       0.80000001192092896     
  
   3   0  24  45
   3   0  45  24
   3   0  45  85
   3   0  85   1
   3   0  85  45
   3   0   1  85
   3   1   0  85
   3   1  85  46
   3   1  85   0
   3   1  46  85
   3   1  46  25
   3   1  25  46
   3   2  35  28
   3   2  35  31
   3   2  31  35
   3   2  31   6
   3   2   6  31
   3   2   9  28
   3   2  28  35
   3   2  28   9
   3   3  26  57
   3   3  57  26
   4   3  57  58   4
   3   4  58  27
   4   4  58  57   3
   3   4  27  58
   3   5   7  32
   3   5  32  36
   3   5  32   7
   3   5  36  32
   3   5  36  69
   3   5  69  36
   3   5  69   8
   3   5   8  69
   3   6   2  31
   3   6  31   2
   3   6  31  64
   3   6  64  10
   3   6  64  31
   3   6  10  64
   3   7  11  37
   3   7  37  32
   3   7  37  11
   3   7  32  37
   3   7  32   5
   3   7   5  32
   3   8   5  69
   3   8  69   5
   3   8  69  33
   3   8  33  12
   3   8  33  69
   3   8  12  33
   3   9  13  34
   3   9  34  28
   3   9  34  13
   3   9  28  34
   3   9  28   2
   3   9   2  28
   3  10   6  64
   3  10  64  14
   3  10  64   6
   3  10  14  64
   3  11  15  37
   3  11  37   7
   3  11  37  15
   3  11   7  37
   3  12   8  33
   3  12  33  16
   3  12  33   8
   3  12  16  33
   3  13  17  34
   3  13  34   9
   3  13  34  17
   3  13   9  34
   3  14  10  64
   3  14  64  77
   3  14  64  10
   3  14  77  64
   3  14  77  71
   3  14  71  77
   3  14  71  18
   3  14  18  71
   3  15  19  72
   3  15  72  78
   3  15  72  19
   3  15  78  72
   3  15  78  37
   3  15  37  11
   3  15  37  78
   3  15  11  37
   3  16  12  33
   3  16  33  83
   3  16  33  12
   3  16  83  33
   3  16  83  79
   3  16  79  83
   3  16  79  20
   3  16  20  79
   3  17  21  80
   3  17  80  84
   3  17  80  21
   3  17  84  80
   3  17  84  34
   3  17  34  13
   3  17  34  84
   3  17  13  34
   3  18  14  71
   3  18  71  14
   3  18  71  49
   3  18  49  71
   3  18  49  22
   3  18  22  49
   3  19  23  50
   3  19  50  72
   3  19  50  23
   3  19  72  50
   3  19  72  15
   3  19  15  72
   3  20  16  79
   3  20  79  16
   3  20  79  66
   3  20  66  79
   3  20  66  24
   3  20  24  66
   3  21  25  67
   3  21  67  80
   3  21  67  25
   3  21  80  67
   3  21  80  17
   3  21  17  80
   3  22  18  49
   3  22  49  18
   3  22  49  39
   3  22  39  26
   3  22  39  49
   3  22  26  39
   3  23  27  40
   3  23  40  50
   3  23  40  27
   3  23  50  40
   3  23  50  19
   3  23  19  50
   3  24  20  66
   3  24  66  20
   3  24  66  45
   3  24  45   0
   3  24  45  66
   3  24   0  45
   3  25   1  46
   3  25  46   1
   3  25  46  67
   3  25  67  46
   3  25  67  21
   3  25  21  67
   3  26  22  39
   3  26  39  57
   3  26  39  22
   3  26  57   3
   3  26  57  39
   3  26   3  57
   3  27   4  58
   3  27  58   4
   3  27  58  40
   3  27  40  58
   3  27  40  23
   3  27  23  40
   3  28  34  41
   3  28  34   9
   3  28  41  35
   3  28  41  34
   3  28  35  41
   3  28  35   2
   3  28   2  35
   3  28   2   9
   3  28   9  34
   3  28   9   2
   3  29  33  42
   3  29  33  59
   3  29  42  33
   3  29  42  76
   3  29  76  51
   3  29  76  42
   3  29  51  76
   4  29  51  52  30
   3  29  30  59
   4  29  30  52  51
   3  29  59  30
   3  29  59  33
   3  30  34  59
   3  30  34  41
   3  30  59  29
   3  30  59  34
   3  30  29  59
   4  30  29  51  52
   3  30  52  75
   4  30  52  51  29
   3  30  75  52
   3  30  75  41
   3  30  41  34
   3  30  41  75
   3  31   2  35
   3  31   2   6
   3  31  35  54
   3  31  35   2
   3  31  54  35
   3  31  54  68
   3  31  68  64
   3  31  68  54
   3  31  64   6
   3  31  64  68
   3  31   6   2
   3  31   6  64
   3  32  37  65
   3  32  37   7
   3  32  65  37
   3  32  65  55
   3  32  55  65
   3  32  55  36
   3  32  36  55
   3  32  36   5
   3  32   5   7
   3  32   5  36
   3  32   7  37
   3  32   7   5
   3  33  44  83
   3  33  44  59
   3  33  83  44
   3  33  83  16
   3  33  16  12
   3  33  16  83
   3  33  12   8
   3  33  12  16
   3  33   8  69
   3  33   8  12
   3  33  69  42
   3  33  69   8
   3  33  42  29
   3  33  42  69
   3  33  29  42
   3  33  29  59
   3  33  59  29
   3  33  59  44
   3  34  47  59
   3  34  47  84
   3  34  59  30
   3  34  59  47
   3  34  30  59
   3  34  30  41
   3  34  41  28
   3  34  41  30
   3  34  28  41
   3  34  28   9
   3  34   9  13
   3  34   9  28
   3  34  13  17
   3  34  13   9
   3  34  17  84
   3  34  17  13
   3  34  84  47
   3  34  84  17
   3  35  28  41
   3  35  28   2
   3  35  41  28
   3  35  41  62
   3  35  62  41
   3  35  62  54
   3  35  54  62
   3  35  54  31
   3  35  31   2
   3  35  31  54
   3  35   2  31
   3  35   2  28
   3  36  32  55
   3  36  32   5
   3  36  55  63
   3  36  55  32
   3  36  63  55
   3  36  63  42
   3  36  42  69
   3  36  42  63
   3  36  69   5
   3  36  69  42
   3  36   5  32
   3  36   5  69
   3  37  92  78
   3  37  92  56
   3  37  56  53
   3  37  56  92
   3  37  53  56
   3  37  53  65
   3  37  65  53
   3  37  65  32
   3  37  32  65
   3  37  32   7
   3  37   7  11
   3  37   7  32
   3  37  11  15
   3  37  11   7
   3  37  15  78
   3  37  15  11
   3  37  78  92
   3  37  78  15
   3  38  73  81
   4  38  73  74  43
   3  38  81  73
   3  38  81  71
   3  38  71  77
   3  38  71  81
   3  38  77  93
   3  38  77  71
   3  38  93  77
   3  38  93  56
   3  38  56  43
   3  38  56  93
   3  38  43  56
   4  38  43  74  73
   3  39  57  26
   3  39  57  94
   3  39  26  22
   3  39  26  57
   3  39  22  49
   3  39  22  26
   3  39  49  81
   3  39  49  22
   3  39  81  73
   3  39  81  49
   3  39  73  94
   3  39  73  81
   3  39  94  73
   3  39  94  57
   3  40  58  94
   3  40  58  27
   3  40  94  74
   3  40  94  58
   3  40  74  94
   3  40  74  82
   3  40  82  50
   3  40  82  74
   3  40  50  82
   3  40  50  23
   3  40  23  27
   3  40  23  50
   3  40  27  58
   3  40  27  23
   3  41  35  28
   3  41  35  62
   3  41  28  34
   3  41  28  35
   3  41  34  30
   3  41  34  28
   3  41  30  34
   3  41  30  75
   3  41  75  30
   3  41  75  62
   3  41  62  75
   3  41  62  35
   3  42  29  33
   3  42  29  76
   3  42  33  69
   3  42  33  29
   3  42  69  36
   3  42  69  33
   3  42  36  63
   3  42  36  69
   3  42  63  76
   3  42  63  36
   3  42  76  63
   3  42  76  29
   3  43  74  82
   4  43  74  73  38
   3  43  38  56
   4  43  38  73  74
   3  43  56  92
   3  43  56  38
   3  43  92  78
   3  43  92  56
   3  43  78  72
   3  43  78  92
   3  43  72  82
   3  43  72  78
   3  43  82  72
   3  43  82  74
   3  44  88  86
   3  44  88  95
   3  44  95  88
   3  44  95  79
   3  44  79  83
   3  44  79  95
   3  44  83  33
   3  44  83  79
   3  44  33  83
   3  44  33  59
   3  44  59  47
   3  44  59  33
   3  44  47  59
   4  44  47  87  86
   3  44  86  88
   4  44  86  87  47
   3  45   0  24
   3  45   0  85
   3  45  24  66
   3  45  24   0
   3  45  66  88
   3  45  66  24
   3  45  88  85
   3  45  88  66
   3  45  85   0
   3  45  85  88
   3  46   1  85
   3  46   1  25
   3  46  85  89
   3  46  85   1
   3  46  89  85
   3  46  89  67
   3  46  67  89
   3  46  67  25
   3  46  25   1
   3  46  25  67
   3  47  89  87
   3  47  89  96
   3  47  87  89
   4  47  87  86  44
   3  47  44  59
   4  47  44  86  87
   3  47  59  34
   3  47  59  44
   3  47  34  59
   3  47  34  84
   3  47  84  80
   3  47  84  34
   3  47  80  96
   3  47  80  84
   3  47  96  80
   3  47  96  89
   3  48  97  76
   3  48  97  90
   3  48  90  60
   3  48  90  97
   3  48  60  70
   3  48  60  90
   3  48  70  60
   3  48  70  61
   3  48  61  91
   3  48  61  70
   3  48  91  61
   3  48  91  98
   3  48  98  91
   3  48  98  75
   3  48  75  52
   3  48  75  98
   3  48  52  51
   3  48  52  75
   3  48  51  76
   3  48  51  52
   3  48  76  97
   3  48  76  51
   3  49  18  71
   3  49  18  22
   3  49  71  81
   3  49  71  18
   3  49  81  39
   3  49  81  71
   3  49  39  22
   3  49  39  81
   3  49  22  18
   3  49  22  39
   3  50  40  82
   3  50  40  23
   3  50  82  72
   3  50  82  40
   3  50  72  82
   3  50  72  19
   3  50  19  23
   3  50  19  72
   3  50  23  40
   3  50  23  19
   3  51  29  76
   4  51  29  30  52
   3  51  76  48
   3  51  76  29
   3  51  48  52
   3  51  48  76
   3  51  52  48
   4  51  52  30  29
   3  52  30  75
   4  52  30  29  51
   3  52  51  48
   4  52  51  29  30
   3  52  48  75
   3  52  48  51
   3  52  75  30
   3  52  75  48
   3  53  37  56
   3  53  37  65
   3  53  56  37
   3  53  56  64
   3  53  64  68
   3  53  64  56
   3  53  68  61
   3  53  68  64
   3  53  61  70
   3  53  61  68
   3  53  70  60
   3  53  70  61
   3  53  60  70
   3  53  60  65
   3  53  65  37
   3  53  65  60
   3  54  35  62
   3  54  35  31
   3  54  62  91
   3  54  62  35
   3  54  91  61
   3  54  91  62
   3  54  61  91
   3  54  61  68
   3  54  68  61
   3  54  68  31
   3  54  31  35
   3  54  31  68
   3  55  65  60
   3  55  65  32
   3  55  60  90
   3  55  60  65
   3  55  90  63
   3  55  90  60
   3  55  63  90
   3  55  63  36
   3  55  36  32
   3  55  36  63
   3  55  32  65
   3  55  32  36
   3  56  53  37
   3  56  53  64
   3  56  37  92
   3  56  37  53
   3  56  92  43
   3  56  92  37
   3  56  43  38
   3  56  43  92
   3  56  38  93
   3  56  38  43
   3  56  93  64
   3  56  93  38
   3  56  64  93
   3  56  64  53
   3  57   3  26
   4  57   3   4  58
   3  57  26  39
   3  57  26   3
   3  57  39  26
   3  57  39  94
   3  57  94  58
   3  57  94  39
   3  57  58  94
   4  57  58   4   3
   3  58   4  27
   4  58   4   3  57
   3  58  57  94
   4  58  57   3   4
   3  58  94  40
   3  58  94  57
   3  58  40  94
   3  58  40  27
   3  58  27   4
   3  58  27  40
   3  59  29  33
   3  59  29  30
   3  59  30  34
   3  59  30  29
   3  59  34  47
   3  59  34  30
   3  59  47  44
   3  59  47  34
   3  59  44  33
   3  59  44  47
   3  59  33  44
   3  59  33  29
   3  60  53  70
   3  60  53  65
   3  60  70  53
   3  60  70  48
   3  60  48  90
   3  60  48  70
   3  60  90  55
   3  60  90  48
   3  60  55  65
   3  60  55  90
   3  60  65  53
   3  60  65  55
   3  61  54  91
   3  61  54  68
   3  61  91  54
   3  61  91  48
   3  61  48  70
   3  61  48  91
   3  61  70  53
   3  61  70  48
   3  61  53  68
   3  61  53  70
   3  61  68  53
   3  61  68  54
   3  62  41  35
   3  62  41  75
   3  62  75  98
   3  62  75  41
   3  62  98  91
   3  62  98  75
   3  62  91  54
   3  62  91  98
   3  62  54  35
   3  62  54  91
   3  62  35  41
   3  62  35  54
   3  63  55  90
   3  63  55  36
   3  63  90  55
   3  63  90  97
   3  63  97  76
   3  63  97  90
   3  63  76  97
   3  63  76  42
   3  63  42  36
   3  63  42  76
   3  63  36  55
   3  63  36  42
   3  64  93  77
   3  64  93  56
   3  64  77  93
   3  64  77  14
   3  64  14  10
   3  64  14  77
   3  64  10   6
   3  64  10  14
   3  64   6  31
   3  64   6  10
   3  64  31  68
   3  64  31   6
   3  64  68  53
   3  64  68  31
   3  64  53  56
   3  64  53  68
   3  64  56  53
   3  64  56  93
   3  65  37  53
   3  65  37  32
   3  65  53  37
   3  65  53  60
   3  65  60  53
   3  65  60  55
   3  65  55  60
   3  65  55  32
   3  65  32  37
   3  65  32  55
   3  66  20  79
   3  66  20  24
   3  66  79  95
   3  66  79  20
   3  66  95  88
   3  66  95  79
   3  66  88  45
   3  66  88  95
   3  66  45  24
   3  66  45  88
   3  66  24  20
   3  66  24  45
   3  67  46  89
   3  67  46  25
   3  67  89  96
   3  67  89  46
   3  67  96  80
   3  67  96  89
   3  67  80  96
   3  67  80  21
   3  67  21  25
   3  67  21  80
   3  67  25  46
   3  67  25  21
   3  68  61  54
   3  68  61  53
   3  68  53  64
   3  68  53  61
   3  68  64  31
   3  68  64  53
   3  68  31  54
   3  68  31  64
   3  68  54  61
   3  68  54  31
   3  69   5  36
   3  69   5   8
   3  69  36  42
   3  69  36   5
   3  69  42  33
   3  69  42  36
   3  69  33   8
   3  69  33  42
   3  69   8   5
   3  69   8  33
   3  70  60  53
   3  70  60  48
   3  70  53  61
   3  70  53  60
   3  70  61  48
   3  70  61  53
   3  70  48  60
   3  70  48  61
   3  71  14  77
   3  71  14  18
   3  71  77  38
   3  71  77  14
   3  71  38  81
   3  71  38  77
   3  71  81  49
   3  71  81  38
   3  71  49  18
   3  71  49  81
   3  71  18  14
   3  71  18  49
   3  72  50  82
   3  72  50  19
   3  72  82  50
   3  72  82  43
   3  72  43  78
   3  72  43  82
   3  72  78  43
   3  72  78  15
   3  72  15  19
   3  72  15  78
   3  72  19  50
   3  72  19  15
   3  73  38  81
   4  73  38  43  74
   3  73  74  94
   4  73  74  43  38
   3  73  94  74
   3  73  94  39
   3  73  39  81
   3  73  39  94
   3  73  81  39
   3  73  81  38
   3  74  40  94
   3  74  40  82
   3  74  94  73
   3  74  94  40
   3  74  73  94
   4  74  73  38  43
   3  74  43  82
   4  74  43  38  73
   3  74  82  40
   3  74  82  43
   3  75  30  52
   3  75  30  41
   3  75  52  30
   3  75  52  48
   3  75  48  98
   3  75  48  52
   3  75  98  62
   3  75  98  48
   3  75  62  41
   3  75  62  98
   3  75  41  30
   3  75  41  62
   3  76  63  97
   3  76  63  42
   3  76  97  63
   3  76  97  48
   3  76  48  97
   3  76  48  51
   3  76  51  29
   3  76  51  48
   3  76  29  42
   3  76  29  51
   3  76  42  29
   3  76  42  63
   3  77  64  93
   3  77  64  14
   3  77  93  64
   3  77  93  38
   3  77  38  71
   3  77  38  93
   3  77  71  14
   3  77  71  38
   3  77  14  64
   3  77  14  71
   3  78  72  43
   3  78  72  15
   3  78  43  92
   3  78  43  72
   3  78  92  43
   3  78  92  37
   3  78  37  92
   3  78  37  15
   3  78  15  72
   3  78  15  37
   3  79  16  83
   3  79  16  20
   3  79  83  44
   3  79  83  16
   3  79  44  95
   3  79  44  83
   3  79  95  66
   3  79  95  44
   3  79  66  20
   3  79  66  95
   3  79  20  16
   3  79  20  66
   3  80  67  96
   3  80  67  21
   3  80  96  67
   3  80  96  47
   3  80  47  84
   3  80  47  96
   3  80  84  47
   3  80  84  17
   3  80  17  21
   3  80  17  84
   3  80  21  67
   3  80  21  17
   3  81  73  38
   3  81  73  39
   3  81  39  49
   3  81  39  73
   3  81  49  71
   3  81  49  39
   3  81  71  38
   3  81  71  49
   3  81  38  73
   3  81  38  71
   3  82  72  50
   3  82  72  43
   3  82  50  40
   3  82  50  72
   3  82  40  74
   3  82  40  50
   3  82  74  40
   3  82  74  43
   3  82  43  74
   3  82  43  72
   3  83  33  44
   3  83  33  16
   3  83  44  79
   3  83  44  33
   3  83  79  16
   3  83  79  44
   3  83  16  33
   3  83  16  79
   3  84  80  47
   3  84  80  17
   3  84  47  34
   3  84  47  80
   3  84  34  47
   3  84  34  17
   3  84  17  80
   3  84  17  34
   3  85  86  87
   3  85  86  88
   3  85  87  89
   3  85  87  86
   3  85  89  87
   3  85  89  46
   3  85  46   1
   3  85  46  89
   3  85   1   0
   3  85   1  46
   3  85   0  45
   3  85   0   1
   3  85  45   0
   3  85  45  88
   3  85  88  86
   3  85  88  45
   3  86  44  88
   4  86  44  47  87
   3  86  87  85
   4  86  87  47  44
   3  86  85  87
   3  86  85  88
   3  86  88  85
   3  86  88  44
   3  87  47  89
   4  87  47  44  86
   3  87  89  85
   3  87  89  47
   3  87  85  86
   3  87  85  89
   3  87  86  85
   4  87  86  44  47
   3  88  86  44
   3  88  86  85
   3  88  85  86
   3  88  85  45
   3  88  45  66
   3  88  45  85
   3  88  66  95
   3  88  66  45
   3  88  95  66
   3  88  95  44
   3  88  44  95
   3  88  44  86
   3  89  85  87
   3  89  85  46
   3  89  87  47
   3  89  87  85
   3  89  47  87
   3  89  47  96
   3  89  96  67
   3  89  96  47
   3  89  67  46
   3  89  67  96
   3  89  46  85
   3  89  46  67
   3  90  63  55
   3  90  63  97
   3  90  55  60
   3  90  55  63
   3  90  60  48
   3  90  60  55
   3  90  48  97
   3  90  48  60
   3  90  97  63
   3  90  97  48
   3  91  61  54
   3  91  61  48
   3  91  54  62
   3  91  54  61
   3  91  62  98
   3  91  62  54
   3  91  98  62
   3  91  98  48
   3  91  48  61
   3  91  48  98
   3  92  78  43
   3  92  78  37
   3  92  43  56
   3  92  43  78
   3  92  56  37
   3  92  56  43
   3  92  37  56
   3  92  37  78
   3  93  77  64
   3  93  77  38
   3  93  64  77
   3  93  64  56
   3  93  56  38
   3  93  56  64
   3  93  38  77
   3  93  38  56
   3  94  73  74
   3  94  73  39
   3  94  74  40
   3  94  74  73
   3  94  40  58
   3  94  40  74
   3  94  58  57
   3  94  58  40
   3  94  57  39
   3  94  57  58
   3  94  39  57
   3  94  39  73
   3  95  88  66
   3  95  88  44
   3  95  66  79
   3  95  66  88
   3  95  79  44
   3  95  79  66
   3  95  44  88
   3  95  44  79
   3  96  80  67
   3  96  80  47
   3  96  67  89
   3  96  67  80
   3  96  89  47
   3  96  89  67
   3  96  47  89
   3  96  47  80
   3  97  76  63
   3  97  76  48
   3  97  63  90
   3  97  63  76
   3  97  90  63
   3  97  90  48
   3  97  48  90
   3  97  48  76
   3  98  91  62
   3  98  91  48
   3  98  62  75
   3  98  62  91
   3  98  75  48
   3  98  75  62
   3  98  48  91
   3  98  48  75
