 COFF
         119        1148         119
  
  -6.5342708890052705        1.0515985074599297        5.5690052379713366       0.60000002384185791       0.60000002384185791       0.60000002384185791       0.80000001192092896     
  -6.5342708832646474       -1.0515984986005296        5.5690052485227266       0.60000002384185791       0.60000002384185791       0.60000002384185791       0.80000001192092896     
  -3.2138892461218621E-002  -2.1125738673504810        5.2775130934882126       0.60000002384185791       0.60000002384185791       0.60000002384185791       0.80000001192092896     
   7.4223004850602985      -0.99433100453436885        5.6616142767555901       0.60000002384185791       0.60000002384185791       0.60000002384185791       0.80000001192092896     
   7.4223004867084610       0.99433100430993238        5.6616142757051584       0.60000002384185791       0.60000002384185791       0.60000002384185791       0.80000001192092896     
  -3.2138892450406825E-002   2.1125738664388272        5.2775130944121420       0.60000002384185791       0.60000002384185791       0.60000002384185791       0.80000001192092896     
   1.1084789469834682       -1.8078949344671169        5.4026913091448261       0.60000002384185791       0.60000002384185791       0.60000002384185791       0.80000001192092896     
   1.1084789464987683        1.8078949336552952        5.4026913100283869       0.60000002384185791       0.60000002384185791       0.60000002384185791       0.80000001192092896     
  -1.1309649796875199        1.7900608574240187        5.3744403247493242       0.60000002384185791       0.60000002384185791       0.60000002384185791       0.80000001192092896     
  -1.1309649802930839       -1.7900608583317248        5.3744403237771303       0.60000002384185791       0.60000002384185791       0.60000002384185791       0.80000001192092896     
   2.0301396573241410       -1.5004105770651592        5.6402356481786109       0.60000002384185791       0.60000002384185791       0.60000002384185791       0.80000001192092896     
   2.0301396574862598        1.5004105773411458        5.6402356478919726       0.60000002384185791       0.60000002384185791       0.60000002384185791       0.80000001192092896     
  -2.0571436578086884        1.5059076488164398        5.6223492483457891       0.60000002384185791       0.60000002384185791       0.60000002384185791       0.80000001192092896     
  -2.0571436595184593       -1.5059076515391987        5.6223492453088912       0.60000002384185791       0.60000002384185791       0.60000002384185791       0.80000001192092896     
   3.0242684429449724       -1.6207432206786709        5.4486942299711956       0.60000002384185791       0.60000002384185791       0.60000002384185791       0.80000001192092896     
   3.0242684369204245        1.6207432274223861        5.4486942187616103       0.60000002384185791       0.60000002384185791       0.60000002384185791       0.80000001192092896     
  -3.0131050630195464        1.6167748060040568        5.3515132307712365       0.60000002384185791       0.60000002384185791       0.60000002384185791       0.80000001192092896     
  -3.0131050608404544       -1.6167748191226405        5.3515132179132463       0.60000002384185791       0.60000002384185791       0.60000002384185791       0.80000001192092896     
   4.0420401982845311       -1.5178184822967298        5.6538294267407680       0.60000002384185791       0.60000002384185791       0.60000002384185791       0.80000001192092896     
   4.0420402001035791        1.5178184946174147        5.6538294142232903       0.60000002384185791       0.60000002384185791       0.60000002384185791       0.80000001192092896     
  -4.0186965673652555        1.5174226304313239        5.5995434516515772       0.60000002384185791       0.60000002384185791       0.60000002384185791       0.80000001192092896     
  -4.0186965687656100       -1.5174226395513670        5.5995434423739159       0.60000002384185791       0.60000002384185791       0.60000002384185791       0.80000001192092896     
   5.0285402581258571       -1.3188099481031523        5.6780295508850838       0.60000002384185791       0.60000002384185791       0.60000002384185791       0.80000001192092896     
   5.0285402551967104        1.3188099337405523        5.6780295656238069       0.60000002384185791       0.60000002384185791       0.60000002384185791       0.80000001192092896     
  -5.0332748418377786        1.3096902431046820        5.5929632019794502       0.60000002384185791       0.60000002384185791       0.60000002384185791       0.80000001192092896     
  -5.0332748433767334       -1.3096902506540729        5.5929631942379423       0.60000002384185791       0.60000002384185791       0.60000002384185791       0.80000001192092896     
   6.0326394137725110       -1.2179474733261162        5.6734249134416821       0.60000002384185791       0.60000002384185791       0.60000002384185791       0.80000001192092896     
   6.0326397374172833        1.2179474756856061        5.6734255838436249       0.60000002384185791       0.60000002384185791       0.60000002384185791       0.80000001192092896     
  -7.4305347158799897       -3.2159260770980811E-010   5.5728787885522495       0.60000002384185791       0.60000002384185791       0.60000002384185791       0.80000001192092896     
  -1.6892919741053716       0.82888440942309760        3.2783720140618922       0.60000002384185791       0.60000002384185791       0.60000002384185791       0.80000001192092896     
  -1.6892919647302653      -0.82888460792715257        3.2783714348075743       0.60000002384185791       0.60000002384185791       0.60000002384185791       0.80000001192092896     
  0.88432815771197770       -1.7530901484897583        4.1064103137767125       0.60000002384185791       0.60000002384185791       0.60000002384185791       0.80000001192092896     
  0.88432808703821753        1.7530901757664221        4.1064101770162527       0.60000002384185791       0.60000002384185791       0.60000002384185791       0.80000001192092896     
  -2.0630035939359455        1.5193185459558183        4.5513730152949359       0.60000002384185791       0.60000002384185791       0.60000002384185791       0.80000001192092896     
  -2.0630037137331318       -1.5193185818115427        4.5513727564880586       0.60000002384185791       0.60000002384185791       0.60000002384185791       0.80000001192092896     
   2.3504045165156275E-002  -1.8500749525034694        3.9789590267327797       0.60000002384185791       0.60000002384185791       0.60000002384185791       0.80000001192092896     
   2.3610214167584284E-002   1.8502682050373784        3.9789590048567454       0.60000002384185791       0.60000002384185791       0.60000002384185791       0.80000001192092896     
   2.0663684370293689        1.4757794487698483        4.5927179878723665       0.60000002384185791       0.60000002384185791       0.60000002384185791       0.80000001192092896     
   3.3813892393775080      -0.61906186384405570        2.3410133446645589        1.0000000000000000        1.0000000000000000        0.0000000000000000        1.0000000000000000     
   5.5087970794568779       -1.1841436610887439        4.6611095306712365       0.60000002384185791       0.60000002384185791       0.60000002384185791       0.80000001192092896     
   5.5087996838269833        1.1841428496112942        4.6611089600940376       0.60000002384185791       0.60000002384185791       0.60000002384185791       0.80000001192092896     
 -0.73761153108488087       -1.7463463329613249        3.4976582244602565       0.60000002384185791       0.60000002384185791       0.60000002384185791       0.80000001192092896     
 -0.73761202692224626        1.7463468664018165        3.4976579703789943       0.60000002384185791       0.60000002384185791       0.60000002384185791       0.80000001192092896     
   3.3813892946919673       0.61906179281737805        2.3410133446645589        1.0000000000000000        1.0000000000000000        0.0000000000000000        1.0000000000000000     
  -3.4292276440603273       0.66007663728714916        2.5284741087501219        1.0000000000000000        1.0000000000000000        0.0000000000000000        1.0000000000000000     
  -5.0639508709526062        1.2710553234283546        4.7012048507853086       0.60000002384185791       0.60000002384185791       0.60000002384185791       0.80000001192092896     
  -5.0639452857016529       -1.2710560604692913        4.7012041368450035       0.60000002384185791       0.60000002384185791       0.60000002384185791       0.80000001192092896     
  -3.4292278999599670      -0.66007669942178715        2.5284741087501215        1.0000000000000000        1.0000000000000000        0.0000000000000000        1.0000000000000000     
   6.4956634576649200E-002   2.2005485373733092E-007   1.0306063639638421        1.0000000000000000        1.0000000000000000        0.0000000000000000        1.0000000000000000     
   4.5269045570737845       -1.4199643758511544        4.9562790525611016       0.60000002384185791       0.60000002384185791       0.60000002384185791       0.80000001192092896     
   4.5270056888686252        1.4196758512672327        4.9562830510937994       0.60000002384185791       0.60000002384185791       0.60000002384185791       0.80000001192092896     
  -1.3851915363615421       0.91716519812389841        2.0176608336626534       0.60000002384185791       0.60000002384185791       0.60000002384185791       0.80000001192092896     
  -1.3851880341793006      -0.91716472438763708        2.0176618789977727       0.60000002384185791       0.60000002384185791       0.60000002384185791       0.80000001192092896     
   1.6293495354596994        9.7991172614798250E-009   3.5102058138125796       0.60000002384185791       0.60000002384185791       0.60000002384185791       0.80000001192092896     
  0.77854989362307170       -1.7335979566264337        3.0358096265455536       0.60000002384185791       0.60000002384185791       0.60000002384185791       0.80000001192092896     
  0.77854474593310263        1.7339119025460179        3.0358122523322395       0.60000002384185791       0.60000002384185791       0.60000002384185791       0.80000001192092896     
   2.0666856970473306       -2.4070639500482474E-007   4.0346745715079413       0.60000002384185791       0.60000002384185791       0.60000002384185791       0.80000001192092896     
   6.7251502680630608      -0.75919387054228604        4.5954174293392773        1.0000000000000000        1.0000000000000000        0.0000000000000000        1.0000000000000000     
   6.7251502727045347       0.75919382948812464        4.5954174293400127        1.0000000000000000        1.0000000000000000        0.0000000000000000        1.0000000000000000     
  -2.0627677894713625       -2.8845457637809099E-007   3.8370481540457089       0.60000002384185791       0.60000002384185791       0.60000002384185791       0.80000001192092896     
   1.1410553874140936        1.2786822853387962        2.7993881122194662       0.60000002384185791       0.60000002384185791       0.60000002384185791       0.80000001192092896     
   1.1410555132007125       -1.2786816836462982        2.7993880229214287       0.60000002384185791       0.60000002384185791       0.60000002384185791       0.80000001192092896     
  0.14582781818557689       -1.7629183724681523        2.9096257802252801       0.60000002384185791       0.60000002384185791       0.60000002384185791       0.80000001192092896     
  0.14582687259505325        1.7629206689195527        2.9096270557109962       0.60000002384185791       0.60000002384185791       0.60000002384185791       0.80000001192092896     
   2.0663685861800318       -1.4757794796387562        4.5927178240140556       0.60000002384185791       0.60000002384185791       0.60000002384185791       0.80000001192092896     
   1.2632944019470196        1.6286148810075927        3.8175916430030306       0.60000002384185791       0.60000002384185791       0.60000002384185791       0.80000001192092896     
  -4.5280394244201094        1.4130772924626951        4.7572048157843172       0.60000002384185791       0.60000002384185791       0.60000002384185791       0.80000001192092896     
  -4.5280542310339831       -1.4131061888188827        4.7572051056322060       0.60000002384185791       0.60000002384185791       0.60000002384185791       0.80000001192092896     
   1.2632962915133314       -1.6286145659802518        3.8175944987731278       0.60000002384185791       0.60000002384185791       0.60000002384185791       0.80000001192092896     
 -0.92529704826585046        1.7627670221394713        4.3087560991661995       0.60000002384185791       0.60000002384185791       0.60000002384185791       0.80000001192092896     
   1.3338393640011912        3.5145638430366978E-008   2.5461399455924676       0.60000002384185791       0.60000002384185791       0.60000002384185791       0.80000001192092896     
   3.9737284678398797       -1.4628957780886991        4.4236584075337966       0.60000002384185791       0.60000002384185791       0.60000002384185791       0.80000001192092896     
   3.9737251449837792        1.4628945313631738        4.4236544191551195       0.60000002384185791       0.60000002384185791       0.60000002384185791       0.80000001192092896     
   5.1317821192199009      -0.85949467828099768        3.5451325153522237       0.60000002384185791       0.60000002384185791       0.60000002384185791       0.80000001192092896     
   5.1317828715273155       0.85949348735838604        3.5451325059307210       0.60000002384185791       0.60000002384185791       0.60000002384185791       0.80000001192092896     
 -0.55634319370234464       -1.5604115922798072        2.6518366966093558       0.60000002384185791       0.60000002384185791       0.60000002384185791       0.80000001192092896     
 -0.55634500119662056        1.5604115336912407        2.6518342369755454       0.60000002384185791       0.60000002384185791       0.60000002384185791       0.80000001192092896     
   3.0771310449185667       -1.5099914185192884        4.1499215872614794       0.60000002384185791       0.60000002384185791       0.60000002384185791       0.80000001192092896     
   3.0771310864085475        1.5099909515230938        4.1499214966372984       0.60000002384185791       0.60000002384185791       0.60000002384185791       0.80000001192092896     
  -3.8505469122613869        1.4550041479342011        4.4924136645712105       0.60000002384185791       0.60000002384185791       0.60000002384185791       0.80000001192092896     
  -3.8505467959925856       -1.4550042119480062        4.4924138237331075       0.60000002384185791       0.60000002384185791       0.60000002384185791       0.80000001192092896     
   4.4661371525696545       -1.3371171610197112        3.8310450840242631       0.60000002384185791       0.60000002384185791       0.60000002384185791       0.80000001192092896     
   4.4661390164613941        1.3371145667226858        3.8310448685262801       0.60000002384185791       0.60000002384185791       0.60000002384185791       0.80000001192092896     
  -3.0720628873742784        1.4920486438677039        4.1473404866730084       0.60000002384185791       0.60000002384185791       0.60000002384185791       0.80000001192092896     
  -3.0720631253777753       -1.4920484654309636        4.1473404434335919       0.60000002384185791       0.60000002384185791       0.60000002384185791       0.80000001192092896     
  -5.7119487927263144       -2.0085812382326336E-007   4.3620555092419186       0.60000002384185791       0.60000002384185791       0.60000002384185791       0.80000001192092896     
  -4.9609254534019005       0.71338585328608306        3.3708101532339363       0.60000002384185791       0.60000002384185791       0.60000002384185791       0.80000001192092896     
  -4.9609271413430589      -0.71338542778034442        3.3708099321273806       0.60000002384185791       0.60000002384185791       0.60000002384185791       0.80000001192092896     
  -4.6891975932222341        1.1495589627114953        3.7231391093701154       0.60000002384185791       0.60000002384185791       0.60000002384185791       0.80000001192092896     
  -4.6892026696946552       -1.1495591600004786        3.7231390807131590       0.60000002384185791       0.60000002384185791       0.60000002384185791       0.80000001192092896     
  0.72755112557112567        1.4584088849731427        2.1113257072097089       0.60000002384185791       0.60000002384185791       0.60000002384185791       0.80000001192092896     
  0.72754952481824076       -1.4584072256325573        2.1113264290021472       0.60000002384185791       0.60000002384185791       0.60000002384185791       0.80000001192092896     
   2.4598854070976057        1.0752015549235707        3.7657916216555725       0.60000002384185791       0.60000002384185791       0.60000002384185791       0.80000001192092896     
   2.4602181667310665       -1.0749191184035063        3.7657914225684856       0.60000002384185791       0.60000002384185791       0.60000002384185791       0.80000001192092896     
   5.7129174333054342       -1.7980144038144904E-008   3.9860268090710900       0.60000002384185791       0.60000002384185791       0.60000002384185791       0.80000001192092896     
  -4.1363717848915327        1.4371884885925963        3.7779412996061152       0.60000002384185791       0.60000002384185791       0.60000002384185791       0.80000001192092896     
  -4.1363393070901751       -1.4371912725760241        3.7779395885322398       0.60000002384185791       0.60000002384185791       0.60000002384185791       0.80000001192092896     
   6.3985063276837256E-002   1.4581545963434073        1.9578918038760831       0.60000002384185791       0.60000002384185791       0.60000002384185791       0.80000001192092896     
   6.3985244360598992E-002  -1.4581538953645805        1.9578911157051357       0.60000002384185791       0.60000002384185791       0.60000002384185791       0.80000001192092896     
   1.0206787181910137       0.93888033093078738        1.9422405815973056       0.60000002384185791       0.60000002384185791       0.60000002384185791       0.80000001192092896     
   1.0206774844656332      -0.93887975418069991        1.9422412366143633       0.60000002384185791       0.60000002384185791       0.60000002384185791       0.80000001192092896     
  -2.5041159487462359        1.1031724325420527        3.6957981040506764       0.60000002384185791       0.60000002384185791       0.60000002384185791       0.80000001192092896     
  -2.5041166133901740       -1.1031726644041737        3.6957977107016982       0.60000002384185791       0.60000002384185791       0.60000002384185791       0.80000001192092896     
 -0.35045999288374524       -1.1832113771707935        1.7173928865734942       0.60000002384185791       0.60000002384185791       0.60000002384185791       0.80000001192092896     
 -0.35045470076475643        1.1832170755794140        1.7174089932459780       0.60000002384185791       0.60000002384185791       0.60000002384185791       0.80000001192092896     
   2.4259533176675179      -0.30391824467099166        3.0388806307463820       0.60000002384185791       0.60000002384185791       0.60000002384185791       0.80000001192092896     
   2.4259533539238798       0.30391804515365617        3.0388805270788750       0.60000002384185791       0.60000002384185791       0.60000002384185791       0.80000001192092896     
   3.7883236591881451       -1.3124850879424497        3.4949013990345810       0.60000002384185791       0.60000002384185791       0.60000002384185791       0.80000001192092896     
   3.7883251764107011        1.3124841706451427        3.4949018778172882       0.60000002384185791       0.60000002384185791       0.60000002384185791       0.80000001192092896     
 -0.92529706427784753       -1.7627670108572642        4.3087561369175367       0.60000002384185791       0.60000002384185791       0.60000002384185791       0.80000001192092896     
  -3.6538611471194851        1.2278089758163917        3.5146218728549732       0.60000002384185791       0.60000002384185791       0.60000002384185791       0.80000001192092896     
  -3.6538688971352764       -1.2278115363716142        3.5146265389805511       0.60000002384185791       0.60000002384185791       0.60000002384185791       0.80000001192092896     
   4.4759203105351526      -0.72721370921037853        2.8736387691480525       0.60000002384185791       0.60000002384185791       0.60000002384185791       0.80000001192092896     
   4.4759203964500971       0.72721325942038040        2.8736387686724800       0.60000002384185791       0.60000002384185791       0.60000002384185791       0.80000001192092896     
  -6.5290376358154862       -8.8800537750078423E-008   4.9651038395442484       0.60000002384185791       0.60000002384185791       0.60000002384185791       0.80000001192092896     
   3.2188955394794752       -1.1116479808427018        3.2535202392817713       0.60000002384185791       0.60000002384185791       0.60000002384185791       0.80000001192092896     
   3.2188954376126966        1.1116477218890708        3.2535201714351403       0.60000002384185791       0.60000002384185791       0.60000002384185791       0.80000001192092896     
  -2.7380264785684476       0.32580582506098793        3.1805583386099867       0.60000002384185791       0.60000002384185791       0.60000002384185791       0.80000001192092896     
  -2.7380266167891780      -0.32580617112317212        3.1805583386099863       0.60000002384185791       0.60000002384185791       0.60000002384185791       0.80000001192092896     
  
   3   0  24  45
   3   0  45  24
   3   0  45  85
   3   0  85 114
   3   0  85  45
   3   0 114  85
   3   0 114  28
   3   0  28 114
   4   0  28   1  85
   3   1  28 114
   4   1  28   0  85
   3   1 114  85
   3   1 114  28
   3   1  85  46
   3   1  85 114
   3   1  46  85
   3   1  46  25
   3   1  25  46
   3   2  35 109
   3   2  35  31
   3   2  31  35
   3   2  31   6
   3   2   6  31
   3   2   9 109
   3   2 109  35
   3   2 109   9
   3   3  26  57
   3   3  57  26
   4   3  57  58   4
   3   4  58  27
   4   4  58  57   3
   3   4  27  58
   3   5   7  32
   3   5  32  36
   3   5  32   7
   3   5  36  32
   3   5  36  69
   3   5  69  36
   3   5  69   8
   3   5   8  69
   3   6   2  31
   3   6  31   2
   3   6  31  64
   3   6  64  10
   3   6  64  31
   3   6  10  64
   3   7  11  37
   3   7  37  32
   3   7  37  11
   3   7  32  37
   3   7  32   5
   3   7   5  32
   3   8   5  69
   3   8  69   5
   3   8  69  33
   3   8  33  12
   3   8  33  69
   3   8  12  33
   3   9  13  34
   3   9  34 109
   3   9  34  13
   3   9 109  34
   3   9 109   2
   3   9   2 109
   3  10   6  64
   3  10  64  14
   3  10  64   6
   3  10  14  64
   3  11  15  37
   3  11  37   7
   3  11  37  15
   3  11   7  37
   3  12   8  33
   3  12  33  16
   3  12  33   8
   3  12  16  33
   3  13  17  34
   3  13  34   9
   3  13  34  17
   3  13   9  34
   3  14  10  64
   3  14  64  77
   3  14  64  10
   3  14  77  64
   3  14  77  71
   3  14  71  77
   3  14  71  18
   3  14  18  71
   3  15  19  72
   3  15  72  78
   3  15  72  19
   3  15  78  72
   3  15  78  37
   3  15  37  11
   3  15  37  78
   3  15  11  37
   3  16  12  33
   3  16  33  83
   3  16  33  12
   3  16  83  33
   3  16  83  79
   3  16  79  83
   3  16  79  20
   3  16  20  79
   3  17  21  80
   3  17  80  84
   3  17  80  21
   3  17  84  80
   3  17  84  34
   3  17  34  13
   3  17  34  84
   3  17  13  34
   3  18  14  71
   3  18  71  14
   3  18  71  49
   3  18  49  71
   3  18  49  22
   3  18  22  49
   3  19  23  50
   3  19  50  72
   3  19  50  23
   3  19  72  50
   3  19  72  15
   3  19  15  72
   3  20  16  79
   3  20  79  16
   3  20  79  66
   3  20  66  79
   3  20  66  24
   3  20  24  66
   3  21  25  67
   3  21  67  80
   3  21  67  25
   3  21  80  67
   3  21  80  17
   3  21  17  80
   3  22  18  49
   3  22  49  18
   3  22  49  39
   3  22  39  26
   3  22  39  49
   3  22  26  39
   3  23  27  40
   3  23  40  50
   3  23  40  27
   3  23  50  40
   3  23  50  19
   3  23  19  50
   3  24  20  66
   3  24  66  20
   3  24  66  45
   3  24  45   0
   3  24  45  66
   3  24   0  45
   3  25   1  46
   3  25  46   1
   3  25  46  67
   3  25  67  46
   3  25  67  21
   3  25  21  67
   3  26  22  39
   3  26  39  57
   3  26  39  22
   3  26  57   3
   3  26  57  39
   3  26   3  57
   3  27   4  58
   3  27  58   4
   3  27  58  40
   3  27  40  58
   3  27  40  23
   3  27  23  40
   3  28   0 114
   4  28   0  85   1
   3  28 114   0
   3  28 114   1
   3  28   1 114
   4  28   1  85   0
   3  29  33  42
   3  29  33  59
   3  29  42  33
   3  29  42  76
   3  29  76  51
   3  29  76  42
   3  29  51  76
   4  29  51  52  30
   3  29  30  59
   4  29  30  52  51
   3  29  59  30
   3  29  59  33
   3  30  34  59
   3  30  34  41
   3  30  59  29
   3  30  59  34
   3  30  29  59
   4  30  29  51  52
   3  30  52  75
   4  30  52  51  29
   3  30  75  52
   3  30  75  41
   3  30  41  34
   3  30  41  75
   3  31   2  35
   3  31   2   6
   3  31  35  54
   3  31  35   2
   3  31  54  35
   3  31  54  68
   3  31  68  64
   3  31  68  54
   3  31  64   6
   3  31  64  68
   3  31   6   2
   3  31   6  64
   3  32  37  65
   3  32  37   7
   3  32  65  37
   3  32  65  55
   3  32  55  65
   3  32  55  36
   3  32  36  55
   3  32  36   5
   3  32   5   7
   3  32   5  36
   3  32   7  37
   3  32   7   5
   3  33 101  59
   3  33 101  83
   3  33  83 101
   3  33  83  16
   3  33  16  12
   3  33  16  83
   3  33  12   8
   3  33  12  16
   3  33   8  69
   3  33   8  12
   3  33  69  42
   3  33  69   8
   3  33  42  29
   3  33  42  69
   3  33  29  42
   3  33  29  59
   3  33  59  29
   3  33  59 101
   3  34 102  84
   3  34 102  59
   3  34  59  30
   3  34  59 102
   3  34  30  59
   3  34  30  41
   3  34  41 109
   3  34  41  30
   3  34 109  41
   3  34 109   9
   3  34   9  13
   3  34   9 109
   3  34  13  17
   3  34  13   9
   3  34  17  84
   3  34  17  13
   3  34  84 102
   3  34  84  17
   3  35 109  41
   3  35 109   2
   3  35  41 109
   3  35  41  62
   3  35  62  41
   3  35  62  54
   3  35  54  62
   3  35  54  31
   3  35  31   2
   3  35  31  54
   3  35   2  31
   3  35   2 109
   3  36  32  55
   3  36  32   5
   3  36  55  63
   3  36  55  32
   3  36  63  55
   3  36  63  42
   3  36  42  69
   3  36  42  63
   3  36  69   5
   3  36  69  42
   3  36   5  32
   3  36   5  69
   3  37  92  78
   3  37  92  56
   3  37  56  53
   3  37  56  92
   3  37  53  56
   3  37  53  65
   3  37  65  53
   3  37  65  32
   3  37  32  65
   3  37  32   7
   3  37   7  11
   3  37   7  32
   3  37  11  15
   3  37  11   7
   3  37  15  78
   3  37  15  11
   3  37  78  92
   3  37  78  15
   3  38  81 107
   4  38  81  73 112
   3  38 107  81
   3  38 107 115
   3  38 115 107
   3  38 115  93
   3  38  93 115
   4  38  93  77 107
   3  39  57  26
   3  39  57  94
   3  39  26  22
   3  39  26  57
   3  39  22  49
   3  39  22  26
   3  39  49  81
   3  39  49  22
   3  39  81  73
   3  39  81  49
   3  39  73  94
   3  39  73  81
   3  39  94  73
   3  39  94  57
   3  40  58  94
   3  40  58  27
   3  40  94  74
   3  40  94  58
   3  40  74  94
   3  40  74  82
   3  40  82  50
   3  40  82  74
   3  40  50  82
   3  40  50  23
   3  40  23  27
   3  40  23  50
   3  40  27  58
   3  40  27  23
   3  41  35 109
   3  41  35  62
   3  41 109  34
   3  41 109  35
   3  41  34  30
   3  41  34 109
   3  41  30  34
   3  41  30  75
   3  41  75  30
   3  41  75  62
   3  41  62  75
   3  41  62  35
   3  42  29  33
   3  42  29  76
   3  42  33  69
   3  42  33  29
   3  42  69  36
   3  42  69  33
   3  42  36  63
   3  42  36  69
   3  42  63  76
   3  42  63  36
   3  42  76  63
   3  42  76  29
   3  43  92 116
   4  43  92  78 108
   3  43 116  92
   3  43 116 108
   3  43 108  82
   3  43 108 116
   3  43  82 108
   4  43  82  74 113
   3  44  88  86
   3  44  88  95
   3  44  95  88
   3  44  95 110
   3  44 110  95
   3  44 110  83
   3  44  83 101
   3  44  83 110
   3  44 101  83
   4  44 101  59 117
   3  44  86  88
   4  44  86  87  47
   3  45   0  24
   3  45   0  85
   3  45  24  66
   3  45  24   0
   3  45  66  88
   3  45  66  24
   3  45  88  85
   3  45  88  66
   3  45  85   0
   3  45  85  88
   3  46   1  85
   3  46   1  25
   3  46  85  89
   3  46  85   1
   3  46  89  85
   3  46  89  67
   3  46  67  89
   3  46  67  25
   3  46  25   1
   3  46  25  67
   3  47  89  87
   3  47  89  96
   3  47  87  89
   4  47  87  86  44
   3  47 102  84
   4  47 102  59 118
   3  47  84 111
   3  47  84 102
   3  47 111  84
   3  47 111  96
   3  47  96  89
   3  47  96 111
   3  48  97  90
   3  48  97 104
   3  48  90  99
   3  48  90  97
   3  48  99  90
   3  48  99  70
   3  48  70 100
   3  48  70  99
   3  48 100  70
   3  48 100  91
   3  48  91  98
   3  48  91 100
   3  48  98  91
   3  48  98 103
   3  48 103  98
   3  48 103  52
   3  48  52  51
   3  48  52 103
   3  48  51 104
   3  48  51  52
   3  48 104  51
   3  48 104  97
   3  49  18  71
   3  49  18  22
   3  49  71  81
   3  49  71  18
   3  49  81  39
   3  49  81  71
   3  49  39  22
   3  49  39  81
   3  49  22  18
   3  49  22  39
   3  50  40  82
   3  50  40  23
   3  50  82  72
   3  50  82  40
   3  50  72  82
   3  50  72  19
   3  50  19  23
   3  50  19  72
   3  50  23  40
   3  50  23  19
   3  51  29  76
   4  51  29  30  52
   3  51  76 104
   3  51  76  29
   3  51 104  76
   3  51 104  48
   3  51  48  52
   3  51  48 104
   3  51  52  48
   4  51  52  30  29
   3  52  30  75
   4  52  30  29  51
   3  52  51  48
   4  52  51  29  30
   3  52  48 103
   3  52  48  51
   3  52 103  75
   3  52 103  48
   3  52  75  30
   3  52  75 103
   3  53  37  56
   3  53  37  65
   3  53  56  37
   3  53  56  64
   3  53  64  68
   3  53  64  56
   3  53  68  61
   3  53  68  64
   3  53  61  70
   3  53  61  68
   3  53  70  60
   3  53  70  61
   3  53  60  70
   3  53  60  65
   3  53  65  37
   3  53  65  60
   3  54  35  62
   3  54  35  31
   3  54  62  91
   3  54  62  35
   3  54  91  61
   3  54  91  62
   3  54  61  91
   3  54  61  68
   3  54  68  61
   3  54  68  31
   3  54  31  35
   3  54  31  68
   3  55  65  60
   3  55  65  32
   3  55  60  90
   3  55  60  65
   3  55  90  63
   3  55  90  60
   3  55  63  90
   3  55  63  36
   3  55  36  32
   3  55  36  63
   3  55  32  65
   3  55  32  36
   3  56  53  37
   3  56  53  64
   3  56  37  92
   3  56  37  53
   3  56  92  37
   4  56  92  43 106
   3  56 106 105
   4  56 106  43  92
   3  56 105 106
   4  56 105  38  93
   3  56  93  64
   4  56  93  38 105
   3  56  64  93
   3  56  64  53
   3  57   3  26
   4  57   3   4  58
   3  57  26  39
   3  57  26   3
   3  57  39  26
   3  57  39  94
   3  57  94  58
   3  57  94  39
   3  57  58  94
   4  57  58   4   3
   3  58   4  27
   4  58   4   3  57
   3  58  57  94
   4  58  57   3   4
   3  58  94  40
   3  58  94  57
   3  58  40  94
   3  58  40  27
   3  58  27   4
   3  58  27  40
   3  59  29  33
   3  59  29  30
   3  59  30  34
   3  59  30  29
   3  59  34 102
   3  59  34  30
   3  59 102  34
   4  59 102  47 118
   3  59 118 117
   4  59 118  47 102
   3  59 117 118
   4  59 117  44 101
   3  59 101  33
   4  59 101  44 117
   3  59  33 101
   3  59  33  29
   3  60  53  70
   3  60  53  65
   3  60  70  53
   3  60  70  99
   3  60  99  90
   3  60  99  70
   3  60  90  55
   3  60  90  99
   3  60  55  65
   3  60  55  90
   3  60  65  53
   3  60  65  55
   3  61  54  91
   3  61  54  68
   3  61  91  54
   3  61  91 100
   3  61 100  70
   3  61 100  91
   3  61  70  53
   3  61  70 100
   3  61  53  68
   3  61  53  70
   3  61  68  53
   3  61  68  54
   3  62  41  35
   3  62  41  75
   3  62  75  98
   3  62  75  41
   3  62  98  91
   3  62  98  75
   3  62  91  54
   3  62  91  98
   3  62  54  35
   3  62  54  91
   3  62  35  41
   3  62  35  54
   3  63  55  90
   3  63  55  36
   3  63  90  55
   3  63  90  97
   3  63  97  76
   3  63  97  90
   3  63  76  97
   3  63  76  42
   3  63  42  36
   3  63  42  76
   3  63  36  55
   3  63  36  42
   3  64  93  77
   3  64  93  56
   3  64  77  93
   3  64  77  14
   3  64  14  10
   3  64  14  77
   3  64  10   6
   3  64  10  14
   3  64   6  31
   3  64   6  10
   3  64  31  68
   3  64  31   6
   3  64  68  53
   3  64  68  31
   3  64  53  56
   3  64  53  68
   3  64  56  53
   3  64  56  93
   3  65  37  53
   3  65  37  32
   3  65  53  37
   3  65  53  60
   3  65  60  53
   3  65  60  55
   3  65  55  60
   3  65  55  32
   3  65  32  37
   3  65  32  55
   3  66  20  79
   3  66  20  24
   3  66  79  95
   3  66  79  20
   3  66  95  88
   3  66  95  79
   3  66  88  45
   3  66  88  95
   3  66  45  24
   3  66  45  88
   3  66  24  20
   3  66  24  45
   3  67  46  89
   3  67  46  25
   3  67  89  96
   3  67  89  46
   3  67  96  80
   3  67  96  89
   3  67  80  96
   3  67  80  21
   3  67  21  25
   3  67  21  80
   3  67  25  46
   3  67  25  21
   3  68  61  54
   3  68  61  53
   3  68  53  64
   3  68  53  61
   3  68  64  31
   3  68  64  53
   3  68  31  54
   3  68  31  64
   3  68  54  61
   3  68  54  31
   3  69   5  36
   3  69   5   8
   3  69  36  42
   3  69  36   5
   3  69  42  33
   3  69  42  36
   3  69  33   8
   3  69  33  42
   3  69   8   5
   3  69   8  33
   3  70  60  53
   3  70  60  99
   3  70  53  61
   3  70  53  60
   3  70  61 100
   3  70  61  53
   3  70 100  61
   3  70 100  48
   3  70  48  99
   3  70  48 100
   3  70  99  60
   3  70  99  48
   3  71  14  77
   3  71  14  18
   3  71  77 107
   3  71  77  14
   3  71 107  81
   3  71 107  77
   3  71  81  49
   3  71  81 107
   3  71  49  18
   3  71  49  81
   3  71  18  14
   3  71  18  49
   3  72  50  82
   3  72  50  19
   3  72  82  50
   3  72  82 108
   3  72 108  78
   3  72 108  82
   3  72  78 108
   3  72  78  15
   3  72  15  19
   3  72  15  78
   3  72  19  50
   3  72  19  15
   3  73  74  94
   4  73  74 113 112
   3  73  94  74
   3  73  94  39
   3  73  39  81
   3  73  39  94
   3  73  81  39
   4  73  81  38 112
   3  74  40  94
   3  74  40  82
   3  74  94  73
   3  74  94  40
   3  74  73  94
   4  74  73 112 113
   3  74  82  40
   4  74  82  43 113
   3  75  30  52
   3  75  30  41
   3  75  52  30
   3  75  52 103
   3  75 103  98
   3  75 103  52
   3  75  98  62
   3  75  98 103
   3  75  62  41
   3  75  62  98
   3  75  41  30
   3  75  41  62
   3  76  63  97
   3  76  63  42
   3  76  97  63
   3  76  97 104
   3  76 104  51
   3  76 104  97
   3  76  51  29
   3  76  51 104
   3  76  29  42
   3  76  29  51
   3  76  42  29
   3  76  42  63
   3  77  64  93
   3  77  64  14
   3  77  93  64
   3  77  93 115
   3  77 115 107
   3  77 115  93
   3  77 107  71
   3  77 107 115
   3  77  71  14
   3  77  71 107
   3  77  14  64
   3  77  14  71
   3  78  72 108
   3  78  72  15
   3  78 108  72
   3  78 108 116
   3  78 116  92
   3  78 116 108
   3  78  92 116
   3  78  92  37
   3  78  37  92
   3  78  37  15
   3  78  15  72
   3  78  15  37
   3  79  16  83
   3  79  16  20
   3  79  83 110
   3  79  83  16
   3  79 110  95
   3  79 110  83
   3  79  95  66
   3  79  95 110
   3  79  66  20
   3  79  66  95
   3  79  20  16
   3  79  20  66
   3  80  67  96
   3  80  67  21
   3  80  96  67
   3  80  96 111
   3  80 111  84
   3  80 111  96
   3  80  84 111
   3  80  84  17
   3  80  17  21
   3  80  17  84
   3  80  21  67
   3  80  21  17
   3  81  73  39
   4  81  73 112  38
   3  81  39  49
   3  81  39  73
   3  81  49  71
   3  81  49  39
   3  81  71 107
   3  81  71  49
   3  81 107  71
   3  81 107  38
   3  81  38 107
   4  81  38 112  73
   3  82  72  50
   3  82  72 108
   3  82  50  40
   3  82  50  72
   3  82  40  74
   3  82  40  50
   3  82  74  40
   4  82  74 113  43
   3  82  43 108
   4  82  43 113  74
   3  82 108  72
   3  82 108  43
   3  83  33 101
   3  83  33  16
   3  83 101  44
   3  83 101  33
   3  83  44 110
   3  83  44 101
   3  83 110  79
   3  83 110  44
   3  83  79  16
   3  83  79 110
   3  83  16  33
   3  83  16  79
   3  84  80 111
   3  84  80  17
   3  84 111  80
   3  84 111  47
   3  84  47 102
   3  84  47 111
   3  84 102  47
   3  84 102  34
   3  84  34 102
   3  84  34  17
   3  84  17  80
   3  84  17  34
   3  85  86  87
   3  85  86  88
   3  85  87  89
   3  85  87  86
   3  85  89  87
   3  85  89  46
   3  85  46   1
   3  85  46  89
   3  85   1 114
   3  85   1  46
   3  85 114   0
   3  85 114   1
   3  85   0  45
   3  85   0 114
   3  85  45   0
   3  85  45  88
   3  85  88  86
   3  85  88  45
   3  86  44  88
   4  86  44  47  87
   3  86  87  85
   4  86  87  47  44
   3  86  85  87
   3  86  85  88
   3  86  88  85
   3  86  88  44
   3  87  47  89
   4  87  47  44  86
   3  87  89  85
   3  87  89  47
   3  87  85  86
   3  87  85  89
   3  87  86  85
   4  87  86  44  47
   3  88  86  44
   3  88  86  85
   3  88  85  86
   3  88  85  45
   3  88  45  66
   3  88  45  85
   3  88  66  95
   3  88  66  45
   3  88  95  66
   3  88  95  44
   3  88  44  95
   3  88  44  86
   3  89  85  87
   3  89  85  46
   3  89  87  47
   3  89  87  85
   3  89  47  87
   3  89  47  96
   3  89  96  67
   3  89  96  47
   3  89  67  46
   3  89  67  96
   3  89  46  85
   3  89  46  67
   3  90  63  55
   3  90  63  97
   3  90  55  60
   3  90  55  63
   3  90  60  99
   3  90  60  55
   3  90  99  60
   3  90  99  48
   3  90  48  97
   3  90  48  99
   3  90  97  63
   3  90  97  48
   3  91  61  54
   3  91  61 100
   3  91  54  62
   3  91  54  61
   3  91  62  98
   3  91  62  54
   3  91  98  62
   3  91  98  48
   3  91  48 100
   3  91  48  98
   3  91 100  61
   3  91 100  48
   3  92  78 116
   3  92  78  37
   3  92 116  78
   3  92 116  43
   3  92  43 116
   4  92  43 106  56
   3  92  56  37
   4  92  56 106  43
   3  92  37  56
   3  92  37  78
   3  93  77  64
   3  93  77 115
   3  93  64  77
   3  93  64  56
   3  93  56  64
   4  93  56 105  38
   3  93  38 115
   4  93  38 107  77
   3  93 115  77
   3  93 115  38
   3  94  73  74
   3  94  73  39
   3  94  74  40
   3  94  74  73
   3  94  40  58
   3  94  40  74
   3  94  58  57
   3  94  58  40
   3  94  57  39
   3  94  57  58
   3  94  39  57
   3  94  39  73
   3  95  88  66
   3  95  88  44
   3  95  66  79
   3  95  66  88
   3  95  79 110
   3  95  79  66
   3  95 110  79
   3  95 110  44
   3  95  44  88
   3  95  44 110
   3  96  80  67
   3  96  80 111
   3  96  67  89
   3  96  67  80
   3  96  89  47
   3  96  89  67
   3  96  47  89
   3  96  47 111
   3  96 111  80
   3  96 111  47
   3  97  76  63
   3  97  76 104
   3  97  63  90
   3  97  63  76
   3  97  90  63
   3  97  90  48
   3  97  48  90
   3  97  48 104
   3  97 104  76
   3  97 104  48
   3  98  91  62
   3  98  91  48
   3  98  62  75
   3  98  62  91
   3  98  75 103
   3  98  75  62
   3  98 103  75
   3  98 103  48
   3  98  48  91
   3  98  48 103
   3  99  90  60
   3  99  90  48
   3  99  60  70
   3  99  60  90
   3  99  70  60
   3  99  70  48
   3  99  48  90
   3  99  48  70
   3 100  70  61
   3 100  70  48
   3 100  61  91
   3 100  61  70
   3 100  91  61
   3 100  91  48
   3 100  48  70
   3 100  48  91
   3 101  59  33
   4 101  59 117  44
   3 101  44  83
   4 101  44 117  59
   3 101  83  33
   3 101  83  44
   3 101  33  83
   3 101  33  59
   3 102  84  47
   3 102  84  34
   3 102  47  84
   4 102  47 118  59
   3 102  59  34
   4 102  59 118  47
   3 102  34  59
   3 102  34  84
   3 103  98  75
   3 103  98  48
   3 103  75  52
   3 103  75  98
   3 103  52  48
   3 103  52  75
   3 103  48  98
   3 103  48  52
   3 104  51  76
   3 104  51  48
   3 104  76  97
   3 104  76  51
   3 104  97  76
   3 104  97  48
   3 104  48  97
   3 104  48  51
   3 105  56 106
   4 105  56  93  38
   3 105 106  56
   4 105 106  43  38
   3 106 105  56
   4 106 105  38  43
   3 106  56 105
   4 106  56  92  43
   3 107  81  71
   3 107  81  38
   3 107  71  77
   3 107  71  81
   3 107  77 115
   3 107  77  71
   3 107 115  77
   3 107 115  38
   3 107  38  81
   3 107  38 115
   3 108  78  72
   3 108  78 116
   3 108  72  82
   3 108  72  78
   3 108  82  72
   3 108  82  43
   3 108  43 116
   3 108  43  82
   3 108 116  78
   3 108 116  43
   3 109  34  41
   3 109  34   9
   3 109  41  35
   3 109  41  34
   3 109  35  41
   3 109  35   2
   3 109   2  35
   3 109   2   9
   3 109   9  34
   3 109   9   2
   3 110  95  79
   3 110  95  44
   3 110  79  83
   3 110  79  95
   3 110  83  44
   3 110  83  79
   3 110  44  95
   3 110  44  83
   3 111  84  80
   3 111  84  47
   3 111  80  96
   3 111  80  84
   3 111  96  80
   3 111  96  47
   3 111  47  84
   3 111  47  96
   3 114   0  85
   3 114   0  28
   3 114  85   1
   3 114  85   0
   3 114   1  28
   3 114   1  85
   3 114  28   0
   3 114  28   1
   3 115 107  77
   3 115 107  38
   3 115  77  93
   3 115  77 107
   3 115  93  77
   3 115  93  38
   3 115  38 107
   3 115  38  93
   3 116  92  78
   3 116  92  43
   3 116  78 108
   3 116  78  92
   3 116 108  78
   3 116 108  43
   3 116  43  92
   3 116  43 108
   3 117  59 118
   4 117  59 101  44
   3 117 118  59
   4 117 118  47  44
   3 118 117  59
   4 118 117  44  47
   3 118  59 117
   4 118  59 102  47
