# Generated by dad_to_polygons. Vertex data from Humppa's .off file,
# polygons parsed from .dad file.
COFF
131 460 131
-6.568622 1.117482 5.898657 0.500000 0.500000 0.500000 1.0
-6.568623 -1.117481 5.898657 0.500000 0.500000 0.500000 1.0
-0.032949 -2.179051 5.608745 0.500000 0.500000 0.500000 1.0
7.485010 -1.149029 5.975885 0.500000 0.500000 0.500000 1.0
7.485010 1.149029 5.975885 0.500000 0.500000 0.500000 1.0
-0.032949 2.179051 5.608745 0.500000 0.500000 0.500000 1.0
1.122610 -1.873563 5.733919 0.500000 0.500000 0.500000 1.0
1.122610 1.873563 5.733919 0.500000 0.500000 0.500000 1.0
-1.144124 1.855883 5.705419 0.500000 0.500000 0.500000 1.0
-1.144124 -1.855883 5.705419 0.500000 0.500000 0.500000 1.0
2.041490 -1.563715 5.979048 0.500000 0.500000 0.500000 1.0
2.041490 1.563715 5.979048 0.500000 0.500000 0.500000 1.0
-2.068088 1.570309 5.959976 0.500000 0.500000 0.500000 1.0
-2.068088 -1.570309 5.959976 0.500000 0.500000 0.500000 1.0
3.023628 -1.702348 5.765177 0.500000 0.500000 0.500000 1.0
3.023655 1.702352 5.765201 0.500000 0.500000 0.500000 1.0
-3.014672 1.701167 5.665904 0.500000 0.500000 0.500000 1.0
-3.014672 -1.701167 5.665904 0.500000 0.500000 0.500000 1.0
4.053106 -1.591455 5.979068 0.500000 0.500000 0.500000 1.0
4.053106 1.591455 5.979068 0.500000 0.500000 0.500000 1.0
-4.025279 1.589290 5.930881 0.500000 0.500000 0.500000 1.0
-4.025245 -1.589298 5.930910 0.500000 0.500000 0.500000 1.0
5.040270 -1.403724 5.995145 0.500000 0.500000 0.500000 1.0
5.040270 1.403724 5.995145 0.500000 0.500000 0.500000 1.0
-5.045109 1.371565 5.932416 0.500000 0.500000 0.500000 1.0
-5.045109 -1.371565 5.932416 0.500000 0.500000 0.500000 1.0
6.047289 -1.342554 5.951935 0.500000 0.500000 0.500000 1.0
6.047290 1.342554 5.951936 0.500000 0.500000 0.500000 1.0
-7.687393 -0.000039 5.905198 0.500000 0.500000 0.500000 1.0
8.638121 0.000256 5.930975 0.500000 0.500000 0.500000 1.0
-1.665309 -0.864425 3.524730 0.500000 0.500000 0.500000 1.0
0.906061 -1.813772 4.404415 0.500000 0.500000 0.500000 1.0
0.906088 1.813769 4.404431 0.500000 0.500000 0.500000 1.0
-2.076836 1.585534 4.862907 0.500000 0.500000 0.500000 1.0
-2.076836 -1.585534 4.862907 0.500000 0.500000 0.500000 1.0
0.022155 -1.912029 4.259743 0.500000 0.500000 0.500000 1.0
0.022279 1.912215 4.259743 0.500000 0.500000 0.500000 1.0
2.093751 1.543455 4.881252 0.500000 0.500000 0.500000 1.0
3.385591 -0.619307 2.341013 1.0 1.0 0.0 1.0
5.414306 -1.254263 5.012270 0.500000 0.500000 0.500000 1.0
5.414309 1.254262 5.012270 0.500000 0.500000 0.500000 1.0
-0.760614 -1.813847 3.798200 0.500000 0.500000 0.500000 1.0
-0.760615 1.813847 3.798200 0.500000 0.500000 0.500000 1.0
3.385592 0.619307 2.341013 1.0 1.0 0.0 1.0
-3.469923 0.660027 2.528474 1.0 1.0 0.0 1.0
-5.071988 1.334575 5.036705 0.500000 0.500000 0.500000 1.0
-5.071998 -1.334573 5.036676 0.500000 0.500000 0.500000 1.0
-3.469924 -0.660028 2.528474 1.0 1.0 0.0 1.0
0.086590 0.000000 1.030606 1.0 1.0 0.0 1.0
4.541254 -1.498633 5.256359 0.500000 0.500000 0.500000 1.0
4.541345 1.498339 5.256358 0.500000 0.500000 0.500000 1.0
-1.362022 0.960870 2.231624 0.500000 0.500000 0.500000 1.0
-1.362017 -0.960870 2.231624 0.500000 0.500000 0.500000 1.0
1.622605 -0.000004 3.810598 0.500000 0.500000 0.500000 1.0
0.791097 -1.797001 3.321003 0.500000 0.500000 0.500000 1.0
0.790996 1.797219 3.321004 0.500000 0.500000 0.500000 1.0
2.094132 -0.000039 4.301541 0.500000 0.500000 0.500000 1.0
6.827801 -0.759050 4.595417 1.0 1.0 0.0 1.0
6.827801 0.759050 4.595417 1.0 1.0 0.0 1.0
-2.076942 -0.000000 4.051850 0.500000 0.500000 0.500000 1.0
1.133645 1.339945 3.059473 0.500000 0.500000 0.500000 1.0
1.133633 -1.339937 3.059473 0.500000 0.500000 0.500000 1.0
0.170639 -1.831518 3.168034 0.500000 0.500000 0.500000 1.0
0.170645 1.831511 3.168035 0.500000 0.500000 0.500000 1.0
2.093694 -1.543440 4.881224 0.500000 0.500000 0.500000 1.0
1.277847 1.696009 4.103019 0.500000 0.500000 0.500000 1.0
-4.534723 1.480459 5.061898 0.500000 0.500000 0.500000 1.0
-4.534729 -1.480435 5.061898 0.500000 0.500000 0.500000 1.0
1.277830 -1.696004 4.103021 0.500000 0.500000 0.500000 1.0
-0.943570 1.825414 4.596829 0.500000 0.500000 0.500000 1.0
1.317232 -0.000002 2.726692 0.500000 0.500000 0.500000 1.0
4.008050 -1.553663 4.704401 0.500000 0.500000 0.500000 1.0
4.008057 1.553660 4.704402 0.500000 0.500000 0.500000 1.0
5.165739 -0.931840 3.824980 0.500000 0.500000 0.500000 1.0
5.165741 0.931838 3.824980 0.500000 0.500000 0.500000 1.0
-0.550895 -1.612025 2.882819 0.500000 0.500000 0.500000 1.0
-0.550898 1.612026 2.882815 0.500000 0.500000 0.500000 1.0
3.089899 -1.590848 4.407142 0.500000 0.500000 0.500000 1.0
3.089956 1.590634 4.407161 0.500000 0.500000 0.500000 1.0
-3.868995 1.532841 4.769418 0.500000 0.500000 0.500000 1.0
-3.868997 -1.532841 4.769418 0.500000 0.500000 0.500000 1.0
4.519300 -1.438891 4.028713 0.500000 0.500000 0.500000 1.0
4.519303 1.438889 4.028714 0.500000 0.500000 0.500000 1.0
-3.044647 1.585689 4.365092 0.500000 0.500000 0.500000 1.0
-3.044648 -1.585689 4.365092 0.500000 0.500000 0.500000 1.0
-5.857109 0.000000 4.641452 0.500000 0.500000 0.500000 1.0
-5.033102 0.821344 3.587897 0.500000 0.500000 0.500000 1.0
-5.033104 -0.821344 3.587897 0.500000 0.500000 0.500000 1.0
-4.707957 1.218845 3.988045 0.500000 0.500000 0.500000 1.0
-4.707959 -1.218844 3.988045 0.500000 0.500000 0.500000 1.0
0.740379 1.596915 2.375119 0.500000 0.500000 0.500000 1.0
0.740367 -1.596910 2.375120 0.500000 0.500000 0.500000 1.0
2.493714 1.143440 4.017211 0.500000 0.500000 0.500000 1.0
2.493796 -1.143379 4.017212 0.500000 0.500000 0.500000 1.0
5.782589 -0.000000 4.043128 0.500000 0.500000 0.500000 1.0
-4.145902 1.511071 4.048220 0.500000 0.500000 0.500000 1.0
-4.145920 -1.511067 4.048220 0.500000 0.500000 0.500000 1.0
0.128870 1.597611 2.132086 0.500000 0.500000 0.500000 1.0
0.128870 -1.597609 2.132084 0.500000 0.500000 0.500000 1.0
1.015427 1.051037 2.137777 0.500000 0.500000 0.500000 1.0
1.015422 -1.051035 2.137778 0.500000 0.500000 0.500000 1.0
-2.480742 1.166999 4.022221 0.500000 0.500000 0.500000 1.0
-2.480472 -1.167122 4.022220 0.500000 0.500000 0.500000 1.0
-0.421021 -1.443787 1.899321 0.500000 0.500000 0.500000 1.0
-0.421016 1.443791 1.899337 0.500000 0.500000 0.500000 1.0
2.317137 -0.304907 3.102354 0.500000 0.500000 0.500000 1.0
2.317145 0.304893 3.102354 0.500000 0.500000 0.500000 1.0
3.839913 -1.455293 3.695227 0.500000 0.500000 0.500000 1.0
3.839916 1.455290 3.695227 0.500000 0.500000 0.500000 1.0
-0.943570 -1.825414 4.596829 0.500000 0.500000 0.500000 1.0
-3.686471 1.440948 3.681938 0.500000 0.500000 0.500000 1.0
-3.686473 -1.440950 3.681942 0.500000 0.500000 0.500000 1.0
4.564448 -0.871963 2.893047 0.500000 0.500000 0.500000 1.0
4.564449 0.871962 2.893046 0.500000 0.500000 0.500000 1.0
-6.569622 0.000001 5.007183 1.0 1.0 0.0 1.0
3.167307 -1.366905 3.501697 0.500000 0.500000 0.500000 1.0
3.167323 1.366900 3.501697 0.500000 0.500000 0.500000 1.0
-2.455729 0.322785 3.189725 0.500000 0.500000 0.500000 1.0
-2.455729 -0.322786 3.189726 0.500000 0.500000 0.500000 1.0
-1.665309 0.864424 3.524731 0.500000 0.500000 0.500000 1.0
4.140090 -1.213784 3.236366 0.500000 0.500000 0.500000 1.0
4.140092 1.213782 3.236366 0.500000 0.500000 0.500000 1.0
-0.953161 -0.566973 1.553099 0.500000 0.500000 0.500000 1.0
-0.953162 0.566976 1.553098 0.500000 0.500000 0.500000 1.0
0.544604 1.045252 1.649587 0.500000 0.500000 0.500000 1.0
0.544602 -1.045251 1.649588 0.500000 0.500000 0.500000 1.0
0.996067 -0.000000 1.936067 0.500000 0.500000 0.500000 1.0
7.762846 -0.374992 5.178677 0.500000 0.500000 0.500000 1.0
7.762846 0.374993 5.178677 0.500000 0.500000 0.500000 1.0
-3.217659 1.232843 3.460941 0.500000 0.500000 0.500000 1.0
-3.217659 -1.232843 3.460941 0.500000 0.500000 0.500000 1.0
3 0 85 45
3 0 45 85
3 1 25 46
3 1 46 25
3 1 46 85
3 1 85 46
3 1 85 114
3 1 114 85
3 2 35 31
3 2 31 35
3 2 109 9
3 2 9 109
3 2 109 35
3 2 35 109
3 3 29 127
3 3 127 29
3 3 57 26
3 3 26 57
3 3 127 57
3 3 57 127
3 4 58 128
3 4 128 58
3 4 128 29
3 4 29 128
3 5 7 32
3 5 32 7
3 6 2 31
3 6 31 2
3 7 32 37
3 7 37 32
3 8 12 33
3 8 33 12
3 8 69 5
3 8 5 69
3 9 34 13
3 9 13 34
3 12 33 16
3 12 16 33
3 13 17 34
3 13 34 17
3 14 64 10
3 14 10 64
3 14 64 77
3 14 77 64
3 14 77 71
3 14 71 77
3 15 37 11
3 15 11 37
3 15 78 72
3 15 72 78
3 17 80 84
3 17 84 80
3 17 84 34
3 17 34 84
3 18 49 71
3 18 71 49
3 19 72 15
3 19 15 72
3 20 16 79
3 20 79 16
3 22 49 18
3 22 18 49
3 23 27 40
3 23 40 27
3 23 40 50
3 23 50 40
3 23 50 19
3 23 19 50
3 24 45 0
3 24 0 45
3 26 22 39
3 26 39 22
3 26 39 57
3 26 57 39
3 28 114 0
3 28 0 114
3 29 127 128
3 29 128 127
3 30 34 59
3 30 59 34
3 30 41 34
3 30 34 41
3 30 75 41
3 30 41 75
3 30 119 59
3 30 59 119
3 31 6 64
3 31 64 6
3 31 54 35
3 31 35 54
3 31 54 68
3 31 68 54
3 32 36 5
3 32 5 36
3 32 37 65
3 32 65 37
3 32 55 36
3 32 36 55
3 32 65 55
3 32 55 65
3 33 8 69
3 33 69 8
3 33 42 69
3 33 69 42
3 33 59 101
3 33 101 59
3 33 83 16
3 33 16 83
3 33 119 59
3 33 59 119
3 34 9 109
3 34 109 9
3 34 41 109
3 34 109 41
3 34 84 102
3 34 102 84
3 34 102 59
3 34 59 102
3 35 41 109
3 35 109 41
3 35 62 54
3 35 54 62
3 36 42 63
3 36 63 42
3 36 63 55
3 36 55 63
3 36 69 5
3 36 5 69
3 37 7 11
3 37 11 7
3 37 53 65
3 37 65 53
3 37 92 78
3 37 78 92
3 38 105 106
3 38 106 105
3 38 106 43
3 38 43 106
3 38 107 115
3 38 115 107
3 38 107 120
3 38 120 107
3 38 112 113
3 38 113 112
3 38 113 43
3 38 43 113
3 38 115 93
3 38 93 115
3 39 49 22
3 39 22 49
3 39 73 94
3 39 94 73
3 39 81 49
3 39 49 81
3 40 58 94
3 40 94 58
3 40 94 74
3 40 74 94
3 41 62 35
3 41 35 62
3 41 62 75
3 41 75 62
3 42 36 69
3 42 69 36
3 42 63 76
3 42 76 63
3 42 119 76
3 42 76 119
3 43 56 92
3 43 92 56
3 43 106 56
3 43 56 106
3 43 108 116
3 43 116 108
3 43 121 108
3 43 108 121
3 45 66 24
3 45 24 66
3 45 85 88
3 45 88 85
3 46 67 25
3 46 25 67
3 46 85 89
3 46 89 85
3 47 86 44
3 47 44 86
3 47 87 86
3 47 86 87
3 47 111 96
3 47 96 111
3 47 117 44
3 47 44 117
3 47 118 117
3 47 117 118
3 47 130 111
3 47 111 130
3 48 99 126
3 48 126 99
3 48 122 123
3 48 123 122
3 50 40 82
3 50 82 40
3 50 72 19
3 50 19 72
3 50 82 72
3 50 72 82
3 51 76 119
3 51 119 76
3 51 122 52
3 51 52 122
3 51 123 122
3 51 122 123
3 52 51 119
3 52 119 51
3 52 119 30
3 52 30 119
3 53 56 37
3 53 37 56
3 53 60 70
3 53 70 60
3 53 61 68
3 53 68 61
3 53 64 56
3 53 56 64
3 53 65 60
3 53 60 65
3 54 62 91
3 54 91 62
3 54 68 61
3 54 61 68
3 54 91 61
3 54 61 91
3 55 60 65
3 55 65 60
3 55 60 90
3 55 90 60
3 57 94 39
3 57 39 94
3 57 127 128
3 57 128 127
3 57 128 58
3 57 58 128
3 58 4 27
3 58 27 4
3 58 40 27
3 58 27 40
3 61 70 53
3 61 53 70
3 61 91 100
3 61 100 91
3 62 75 98
3 62 98 75
3 63 97 76
3 63 76 97
3 64 6 10
3 64 10 6
3 64 31 68
3 64 68 31
3 64 93 77
3 64 77 93
3 66 20 24
3 66 24 20
3 66 20 79
3 66 79 20
3 66 45 88
3 66 88 45
3 66 79 95
3 66 95 79
3 66 88 95
3 66 95 88
3 67 21 25
3 67 25 21
3 67 21 80
3 67 80 21
3 67 46 89
3 67 89 46
3 67 80 96
3 67 96 80
3 68 64 53
3 68 53 64
3 70 61 100
3 70 100 61
3 70 99 60
3 70 60 99
3 71 14 18
3 71 18 14
3 71 81 49
3 71 49 81
3 71 107 81
3 71 81 107
3 72 82 108
3 72 108 82
3 72 108 78
3 72 78 108
3 73 39 81
3 73 81 39
3 73 74 94
3 73 94 74
3 73 81 120
3 73 120 81
3 74 40 82
3 74 82 40
3 74 112 73
3 74 73 112
3 74 113 112
3 74 112 113
3 74 121 82
3 74 82 121
3 75 30 52
3 75 52 30
3 75 52 103
3 75 103 52
3 75 98 103
3 75 103 98
3 76 51 104
3 76 104 51
3 76 104 97
3 76 97 104
3 77 71 107
3 77 107 71
3 77 107 115
3 77 115 107
3 77 115 93
3 77 93 115
3 78 37 15
3 78 15 37
3 78 92 116
3 78 116 92
3 78 116 108
3 78 108 116
3 79 110 83
3 79 83 110
3 80 21 17
3 80 17 21
3 80 111 84
3 80 84 111
3 81 120 107
3 81 107 120
3 82 121 108
3 82 108 121
3 83 16 79
3 83 79 16
3 83 110 129
3 83 129 110
3 83 129 101
3 83 101 129
3 84 130 102
3 84 102 130
3 85 86 88
3 85 88 86
3 85 87 86
3 85 86 87
3 86 88 44
3 86 44 88
3 87 85 89
3 87 89 85
3 88 44 95
3 88 95 44
3 89 47 87
3 89 87 47
3 89 47 96
3 89 96 47
3 90 55 63
3 90 63 55
3 90 63 97
3 90 97 63
3 90 97 124
3 90 124 97
3 91 98 62
3 91 62 98
3 91 100 125
3 91 125 100
3 92 37 56
3 92 56 37
3 92 116 43
3 92 43 116
3 93 56 105
3 93 105 56
3 93 64 56
3 93 56 64
3 93 105 38
3 93 38 105
3 94 58 57
3 94 57 58
3 95 110 44
3 95 44 110
3 96 89 67
3 96 67 89
3 96 111 80
3 96 80 111
3 97 124 48
3 97 48 124
3 98 103 48
3 98 48 103
3 98 125 91
3 98 91 125
3 99 90 60
3 99 60 90
3 99 124 48
3 99 48 124
3 99 124 90
3 99 90 124
3 100 48 126
3 100 126 48
3 101 59 117
3 101 117 59
3 101 83 33
3 101 33 83
3 101 117 44
3 101 44 117
3 102 47 118
3 102 118 47
3 102 118 59
3 102 59 118
3 103 52 122
3 103 122 52
3 103 122 48
3 103 48 122
3 104 51 123
3 104 123 51
3 104 97 48
3 104 48 97
3 104 123 48
3 104 48 123
3 106 105 56
3 106 56 105
3 110 44 129
3 110 129 44
3 110 95 79
3 110 79 95
3 111 130 84
3 111 84 130
3 112 120 73
3 112 73 120
3 113 74 121
3 113 121 74
3 113 121 43
3 113 43 121
3 114 0 85
3 114 85 0
3 114 1 28
3 114 28 1
3 118 59 117
3 118 117 59
3 119 33 42
3 119 42 33
3 120 38 112
3 120 112 38
3 125 98 48
3 125 48 98
3 125 100 48
3 125 48 100
3 126 70 99
3 126 99 70
3 126 70 100
3 126 100 70
3 129 101 44
3 129 44 101
3 130 47 102
3 130 102 47
