 COFF
         131        1268         131
  
  -6.5686219649661863        1.1174823472683757        5.8986567065021243       0.60000002384185791       0.60000002384185791       0.60000002384185791       0.80000001192092896     
  -6.5686231824306729       -1.1174814365121022        5.8986569480699984       0.60000002384185791       0.60000002384185791       0.60000002384185791       0.80000001192092896     
  -3.2948944347180480E-002  -2.1790506322086127        5.6087448443484726       0.60000002384185791       0.60000002384185791       0.60000002384185791       0.80000001192092896     
   7.4850101862811069       -1.1490286368820328        5.9758850997759447       0.60000002384185791       0.60000002384185791       0.60000002384185791       0.80000001192092896     
   7.4850101283803223        1.1490286679375321        5.9758851069239629       0.60000002384185791       0.60000002384185791       0.60000002384185791       0.80000001192092896     
  -3.2948944569783041E-002   2.1790506535087757        5.6087448230502597       0.60000002384185791       0.60000002384185791       0.60000002384185791       0.80000001192092896     
   1.1226095252974515       -1.8735625893818340        5.7339189729133748       0.60000002384185791       0.60000002384185791       0.60000002384185791       0.80000001192092896     
   1.1226095203207720        1.8735625793729289        5.7339189835205548       0.60000002384185791       0.60000002384185791       0.60000002384185791       0.80000001192092896     
  -1.1441240239090413        1.8558833761780493        5.7054187025275978       0.60000002384185791       0.60000002384185791       0.60000002384185791       0.80000001192092896     
  -1.1441240217526552       -1.8558833791623488        5.7054186995547109       0.60000002384185791       0.60000002384185791       0.60000002384185791       0.80000001192092896     
   2.0414895321013069       -1.5637149999636633        5.9790483417538649       0.60000002384185791       0.60000002384185791       0.60000002384185791       0.80000001192092896     
   2.0414895213124331        1.5637149817209195        5.9790483635811933       0.60000002384185791       0.60000002384185791       0.60000002384185791       0.80000001192092896     
  -2.0680884340053289        1.5703085489143418        5.9599761999648733       0.60000002384185791       0.60000002384185791       0.60000002384185791       0.80000001192092896     
  -2.0680884343452073       -1.5703085556133767        5.9599761934674396       0.60000002384185791       0.60000002384185791       0.60000002384185791       0.80000001192092896     
   3.0236284607859782       -1.7023482115248592        5.7651771453188312       0.60000002384185791       0.60000002384185791       0.60000002384185791       0.80000001192092896     
   3.0236546536392108        1.7023522579939854        5.7652008568611999       0.60000002384185791       0.60000002384185791       0.60000002384185791       0.80000001192092896     
  -3.0146715741720396        1.7011673961249405        5.6659038888143618       0.60000002384185791       0.60000002384185791       0.60000002384185791       0.80000001192092896     
  -3.0146715654593965       -1.7011674153697816        5.6659038530470456       0.60000002384185791       0.60000002384185791       0.60000002384185791       0.80000001192092896     
   4.0531055414582111       -1.5914549851796245        5.9790681294823411       0.60000002384185791       0.60000002384185791       0.60000002384185791       0.80000001192092896     
   4.0531057293255897        1.5914550511695953        5.9790680384733950       0.60000002384185791       0.60000002384185791       0.60000002384185791       0.80000001192092896     
  -4.0252791266822756        1.5892898344872628        5.9308806553110527       0.60000002384185791       0.60000002384185791       0.60000002384185791       0.80000001192092896     
  -4.0252451872720618       -1.5892981261609280        5.9309096223744104       0.60000002384185791       0.60000002384185791       0.60000002384185791       0.80000001192092896     
   5.0402697782934629       -1.4037239554177121        5.9951449735469726       0.60000002384185791       0.60000002384185791       0.60000002384185791       0.80000001192092896     
   5.0402697768999207        1.4037239485119732        5.9951449811868276       0.60000002384185791       0.60000002384185791       0.60000002384185791       0.80000001192092896     
  -5.0451093063009820        1.3715648448666244        5.9324155947935955       0.60000002384185791       0.60000002384185791       0.60000002384185791       0.80000001192092896     
  -5.0451093099078390       -1.3715648379344973        5.9324156004831829       0.60000002384185791       0.60000002384185791       0.60000002384185791       0.80000001192092896     
   6.0472890329737945       -1.3425537138219710        5.9519347162766092       0.60000002384185791       0.60000002384185791       0.60000002384185791       0.80000001192092896     
   6.0472895120131254        1.3425537033214328        5.9519356812295365       0.60000002384185791       0.60000002384185791       0.60000002384185791       0.80000001192092896     
  -7.6873933967958257       -3.8950658828835405E-005   5.9051977237291018       0.60000002384185791       0.60000002384185791       0.60000002384185791       0.80000001192092896     
   8.6381209468745812        2.5556571766629615E-004   5.9309752565236726       0.60000002384185791       0.60000002384185791       0.60000002384185791       0.80000001192092896     
  -1.6653089721070005      -0.86442477968948517        3.5247302490764572       0.60000002384185791       0.60000002384185791       0.60000002384185791       0.80000001192092896     
  0.90606073460812353       -1.8137718544284185        4.4044148063161570       0.60000002384185791       0.60000002384185791       0.60000002384185791       0.80000001192092896     
  0.90608807125189750        1.8137693018431988        4.4044306326338187       0.60000002384185791       0.60000002384185791       0.60000002384185791       0.80000001192092896     
  -2.0768356172407296        1.5855343932249204        4.8629068599471852       0.60000002384185791       0.60000002384185791       0.60000002384185791       0.80000001192092896     
  -2.0768358053103628       -1.5855344681799846        4.8629065848529986       0.60000002384185791       0.60000002384185791       0.60000002384185791       0.80000001192092896     
   2.2155469958917814E-002  -1.9120286012533065        4.2597433745747031       0.60000002384185791       0.60000002384185791       0.60000002384185791       0.80000001192092896     
   2.2279029241145314E-002   1.9122154447344715        4.2597433582731163       0.60000002384185791       0.60000002384185791       0.60000002384185791       0.80000001192092896     
   2.0937512100422437        1.5434548262981038        4.8812521189337481       0.60000002384185791       0.60000002384185791       0.60000002384185791       0.80000001192092896     
   3.3855910711894963      -0.61930668530755484        2.3410133446645589        1.0000000000000000        1.0000000000000000        0.0000000000000000        1.0000000000000000     
   5.4143064793546127       -1.2542629088878994        5.0122703930671806       0.60000002384185791       0.60000002384185791       0.60000002384185791       0.80000001192092896     
   5.4143089665527375        1.2542618212215337        5.0122701769553411       0.60000002384185791       0.60000002384185791       0.60000002384185791       0.80000001192092896     
 -0.76061435911232800       -1.8138466900713131        3.7982000909180047       0.60000002384185791       0.60000002384185791       0.60000002384185791       0.80000001192092896     
 -0.76061457238114016        1.8138468455050698        3.7981998997289041       0.60000002384185791       0.60000002384185791       0.60000002384185791       0.80000001192092896     
   3.3855917934904416       0.61930656052041633        2.3410133446645589        1.0000000000000000        1.0000000000000000        0.0000000000000000        1.0000000000000000     
  -3.4699231763051599       0.66002743050595569        2.5284741087501219        1.0000000000000000        1.0000000000000000        0.0000000000000000        1.0000000000000000     
  -5.0719881810217666        1.3345750920115824        5.0367052269411969       0.60000002384185791       0.60000002384185791       0.60000002384185791       0.80000001192092896     
  -5.0719981850310658       -1.3345730137864473        5.0366756614286547       0.60000002384185791       0.60000002384185791       0.60000002384185791       0.80000001192092896     
  -3.4699236683233017      -0.66002762124246261        2.5284741087501215        1.0000000000000000        1.0000000000000000        0.0000000000000000        1.0000000000000000     
   8.6589590797350166E-002   3.8472991862900958E-007   1.0306063639638421        1.0000000000000000        1.0000000000000000        0.0000000000000000        1.0000000000000000     
   4.5412541847553580       -1.4986328371562996        5.2563588637012595       0.60000002384185791       0.60000002384185791       0.60000002384185791       0.80000001192092896     
   4.5413453223841875        1.4983390328295780        5.2563584338985816       0.60000002384185791       0.60000002384185791       0.60000002384185791       0.80000001192092896     
  -1.3620220887515364       0.96086970103927971        2.2316237193660395       0.60000002384185791       0.60000002384185791       0.60000002384185791       0.80000001192092896     
  -1.3620174530204443      -0.96087018255417789        2.2316243066666011       0.60000002384185791       0.60000002384185791       0.60000002384185791       0.80000001192092896     
   1.6226051295276529       -4.4330884016181101E-006   3.8105981565011615       0.60000002384185791       0.60000002384185791       0.60000002384185791       0.80000001192092896     
  0.79109693996302255       -1.7970014255439586        3.3210032803042799       0.60000002384185791       0.60000002384185791       0.60000002384185791       0.80000001192092896     
  0.79099580935626823        1.7972193815236490        3.3210038994643729       0.60000002384185791       0.60000002384185791       0.60000002384185791       0.80000001192092896     
   2.0941320207632970       -3.8823690465120928E-005   4.3015411686387601       0.60000002384185791       0.60000002384185791       0.60000002384185791       0.80000001192092896     
   6.8278007731883141      -0.75905032905717817        4.5954174293392773        1.0000000000000000        1.0000000000000000        0.0000000000000000        1.0000000000000000     
   6.8278008255210416       0.75905025123954051        4.5954174293400127        1.0000000000000000        1.0000000000000000        0.0000000000000000        1.0000000000000000     
  -2.0769418614960347       -3.0563327977730419E-007   4.0518503256488119       0.60000002384185791       0.60000002384185791       0.60000002384185791       0.80000001192092896     
   1.1336450322184333        1.3399447247084064        3.0594728209906079       0.60000002384185791       0.60000002384185791       0.60000002384185791       0.80000001192092896     
   1.1336332691631343       -1.3399366932274819        3.0594728870489734       0.60000002384185791       0.60000002384185791       0.60000002384185791       0.80000001192092896     
  0.17063933034589862       -1.8315177884783629        3.1680340461798671       0.60000002384185791       0.60000002384185791       0.60000002384185791       0.80000001192092896     
  0.17064534353807356        1.8315111549392036        3.1680349305325013       0.60000002384185791       0.60000002384185791       0.60000002384185791       0.80000001192092896     
   2.0936944447054984       -1.5434398109940350        4.8812238508069612       0.60000002384185791       0.60000002384185791       0.60000002384185791       0.80000001192092896     
   1.2778471336436221        1.6960086882331558        4.1030185277446334       0.60000002384185791       0.60000002384185791       0.60000002384185791       0.80000001192092896     
  -4.5347229071171391        1.4804589669017227        5.0618983218250184       0.60000002384185791       0.60000002384185791       0.60000002384185791       0.80000001192092896     
  -4.5347290049801989       -1.4804353834855588        5.0618976827057072       0.60000002384185791       0.60000002384185791       0.60000002384185791       0.80000001192092896     
   1.2778302608682939       -1.6960041854080194        4.1030209904447936       0.60000002384185791       0.60000002384185791       0.60000002384185791       0.80000001192092896     
 -0.94357001014095998        1.8254141578243501        4.5968292826434753       0.60000002384185791       0.60000002384185791       0.60000002384185791       0.80000001192092896     
   1.3172316280851699       -2.1955324962355168E-006   2.7266924502016856       0.60000002384185791       0.60000002384185791       0.60000002384185791       0.80000001192092896     
   4.0080499860001888       -1.5536634477630309        4.7044009013215762       0.60000002384185791       0.60000002384185791       0.60000002384185791       0.80000001192092896     
   4.0080565862399311        1.5536600955955497        4.7044018218141517       0.60000002384185791       0.60000002384185791       0.60000002384185791       0.80000001192092896     
   5.1657385764812194      -0.93183953874546510        3.8249796186140204       0.60000002384185791       0.60000002384185791       0.60000002384185791       0.80000001192092896     
   5.1657408004096768       0.93183812420292478        3.8249796139765424       0.60000002384185791       0.60000002384185791       0.60000002384185791       0.80000001192092896     
 -0.55089464215598605       -1.6120247959384062        2.8828192195599618       0.60000002384185791       0.60000002384185791       0.60000002384185791       0.80000001192092896     
 -0.55089779207403666        1.6120257900961259        2.8828153615340550       0.60000002384185791       0.60000002384185791       0.60000002384185791       0.80000001192092896     
   3.0898992218535422       -1.5908480104095377        4.4071422501074231       0.60000002384185791       0.60000002384185791       0.60000002384185791       0.80000001192092896     
   3.0899559655863831        1.5906340282792748        4.4071608343891757       0.60000002384185791       0.60000002384185791       0.60000002384185791       0.80000001192092896     
  -3.8689952504010323        1.5328409671131791        4.7694178880015281       0.60000002384185791       0.60000002384185791       0.60000002384185791       0.80000001192092896     
  -3.8689968385026905       -1.5328408578723018        4.7694183378679194       0.60000002384185791       0.60000002384185791       0.60000002384185791       0.80000001192092896     
   4.5193003169710950       -1.4388911686104826        4.0287133100191017       0.60000002384185791       0.60000002384185791       0.60000002384185791       0.80000001192092896     
   4.5193030684283082        1.4388893298899430        4.0287135042306357       0.60000002384185791       0.60000002384185791       0.60000002384185791       0.80000001192092896     
  -3.0446474998431694        1.5856891320122353        4.3650922796706384       0.60000002384185791       0.60000002384185791       0.60000002384185791       0.80000001192092896     
  -3.0446478369367052       -1.5856889593836090        4.3650922939732739       0.60000002384185791       0.60000002384185791       0.60000002384185791       0.80000001192092896     
  -5.8571085234535278        4.6636552473854648E-008   4.6414517688084267       0.60000002384185791       0.60000002384185791       0.60000002384185791       0.80000001192092896     
  -5.0331021003391587       0.82134439637257306        3.5878974621207127       0.60000002384185791       0.60000002384185791       0.60000002384185791       0.80000001192092896     
  -5.0331041379152461      -0.82134410229416477        3.5878973991299548       0.60000002384185791       0.60000002384185791       0.60000002384185791       0.80000001192092896     
  -4.7079570674559346        1.2188453284106819        3.9880449538477158       0.60000002384185791       0.60000002384185791       0.60000002384185791       0.80000001192092896     
  -4.7079590379905012       -1.2188443544719887        3.9880450038617177       0.60000002384185791       0.60000002384185791       0.60000002384185791       0.80000001192092896     
  0.74037911346764007        1.5969150134667272        2.3751194610714896       0.60000002384185791       0.60000002384185791       0.60000002384185791       0.80000001192092896     
  0.74036699888906099       -1.5969104139287957        2.3751200778933881       0.60000002384185791       0.60000002384185791       0.60000002384185791       0.80000001192092896     
   2.4937142476966980        1.1434401388297777        4.0172111536923065       0.60000002384185791       0.60000002384185791       0.60000002384185791       0.80000001192092896     
   2.4937964369680774       -1.1433791646709892        4.0172120176115440       0.60000002384185791       0.60000002384185791       0.60000002384185791       0.80000001192092896     
   5.7825886668198239       -4.6725479914427998E-009   4.0431278106014252       0.60000002384185791       0.60000002384185791       0.60000002384185791       0.80000001192092896     
  -4.1459019529702195        1.5110706523108013        4.0482203278628095       0.60000002384185791       0.60000002384185791       0.60000002384185791       0.80000001192092896     
  -4.1459204983904838       -1.5110665071226690        4.0482200234776702       0.60000002384185791       0.60000002384185791       0.60000002384185791       0.80000001192092896     
  0.12886964050213828        1.5976110616816985        2.1320863296140504       0.60000002384185791       0.60000002384185791       0.60000002384185791       0.80000001192092896     
  0.12886990585426439       -1.5976089729224447        2.1320844448784642       0.60000002384185791       0.60000002384185791       0.60000002384185791       0.80000001192092896     
   1.0154271795232135        1.0510367133938237        2.1377769301581977       0.60000002384185791       0.60000002384185791       0.60000002384185791       0.80000001192092896     
   1.0154222961104056       -1.0510345551537348        2.1377778157561624       0.60000002384185791       0.60000002384185791       0.60000002384185791       0.80000001192092896     
  -2.4807422315356757        1.1669993916901868        4.0222208310903982       0.60000002384185791       0.60000002384185791       0.60000002384185791       0.80000001192092896     
  -2.4804719451779196       -1.1671224183905169        4.0222198073885691       0.60000002384185791       0.60000002384185791       0.60000002384185791       0.80000001192092896     
 -0.42102113970463895       -1.4437871099001729        1.8993207329207908       0.60000002384185791       0.60000002384185791       0.60000002384185791       0.80000001192092896     
 -0.42101610739422113        1.4437908361039276        1.8993374418435855       0.60000002384185791       0.60000002384185791       0.60000002384185791       0.80000001192092896     
   2.3171368260856600      -0.30490689215623779        3.1023543239372966       0.60000002384185791       0.60000002384185791       0.60000002384185791       0.80000001192092896     
   2.3171454217425240       0.30489271268316070        3.1023535281413341       0.60000002384185791       0.60000002384185791       0.60000002384185791       0.80000001192092896     
   3.8399126056980384       -1.4552925692653564        3.6952272439067149       0.60000002384185791       0.60000002384185791       0.60000002384185791       0.80000001192092896     
   3.8399156620731940        1.4552904252872589        3.6952265673229063       0.60000002384185791       0.60000002384185791       0.60000002384185791       0.80000001192092896     
 -0.94357008292946865       -1.8254141390440068        4.5968293656095387       0.60000002384185791       0.60000002384185791       0.60000002384185791       0.80000001192092896     
  -3.6864706383025792        1.4409483240370862        3.6819383124710368       0.60000002384185791       0.60000002384185791       0.60000002384185791       0.80000001192092896     
  -3.6864733171759769       -1.4409503710228382        3.6819417935010947       0.60000002384185791       0.60000002384185791       0.60000002384185791       0.80000001192092896     
   4.5644477953895288      -0.87196294871036006        2.8930468110497598       0.60000002384185791       0.60000002384185791       0.60000002384185791       0.80000001192092896     
   4.5644488818311730       0.87196182972296976        2.8930464445796389       0.60000002384185791       0.60000002384185791       0.60000002384185791       0.80000001192092896     
  -6.5696217976717737        9.3150054208455967E-007   5.0071826586955126        1.0000000000000000        1.0000000000000000        0.0000000000000000        1.0000000000000000     
   3.1673067743552510       -1.3669054359045141        3.5016966433349386       0.60000002384185791       0.60000002384185791       0.60000002384185791       0.80000001192092896     
   3.1673231181421420        1.3668996186397777        3.5016968477530130       0.60000002384185791       0.60000002384185791       0.60000002384185791       0.80000001192092896     
  -2.4557288681767684       0.32278531509032604        3.1897254688897592       0.60000002384185791       0.60000002384185791       0.60000002384185791       0.80000001192092896     
  -2.4557290956830897      -0.32278580395973666        3.1897255565566018       0.60000002384185791       0.60000002384185791       0.60000002384185791       0.80000001192092896     
  -1.6653087594898350       0.86442440925676789        3.5247306167497379       0.60000002384185791       0.60000002384185791       0.60000002384185791       0.80000001192092896     
   4.1400895748553541       -1.2137837922727737        3.2363659000302523       0.60000002384185791       0.60000002384185791       0.60000002384185791       0.80000001192092896     
   4.1400917300381286        1.2137822137564152        3.2363656773749270       0.60000002384185791       0.60000002384185791       0.60000002384185791       0.80000001192092896     
 -0.95316057283098321      -0.56697296012474385        1.5530990125268833       0.60000002384185791       0.60000002384185791       0.60000002384185791       0.80000001192092896     
 -0.95316216393633801       0.56697552357651737        1.5530983992196590       0.60000002384185791       0.60000002384185791       0.60000002384185791       0.80000001192092896     
  0.54460361952417935        1.0452524887460219        1.6495869749715510       0.60000002384185791       0.60000002384185791       0.60000002384185791       0.80000001192092896     
  0.54460189216006438       -1.0452514550201251        1.6495881279689708       0.60000002384185791       0.60000002384185791       0.60000002384185791       0.80000001192092896     
  0.99606656710999608       -4.4001479138393398E-007   1.9360666496004029       0.60000002384185791       0.60000002384185791       0.60000002384185791       0.80000001192092896     
   7.7628457349775672      -0.37499244103465890        5.1786767897961576       0.60000002384185791       0.60000002384185791       0.60000002384185791       0.80000001192092896     
   7.7628460790629585       0.37499327078649108        5.1786767897965245       0.60000002384185791       0.60000002384185791       0.60000002384185791       0.80000001192092896     
  -3.2176590757579504        1.2328426477247321        3.4609406557577169       0.60000002384185791       0.60000002384185791       0.60000002384185791       0.80000001192092896     
  -3.2176593236627529       -1.2328426923181772        3.4609406084532459       0.60000002384185791       0.60000002384185791       0.60000002384185791       0.80000001192092896     
  
   3   0  24  45
   3   0  45  24
   3   0  45  85
   3   0  85 114
   3   0  85  45
   3   0 114  85
   3   0 114  28
   3   0  28 114
   4   0  28   1  85
   3   1  28 114
   4   1  28   0  85
   3   1 114  85
   3   1 114  28
   3   1  85  46
   3   1  85 114
   3   1  46  85
   3   1  46  25
   3   1  25  46
   3   2  35 109
   3   2  35  31
   3   2  31  35
   3   2  31   6
   3   2   6  31
   3   2   9 109
   3   2 109  35
   3   2 109   9
   3   3  26  57
   3   3  57  26
   4   3  57 127  29
   3   4  58  27
   4   4  58 128  29
   3   4  27  58
   3   5   7  32
   3   5  32  36
   3   5  32   7
   3   5  36  32
   3   5  36  69
   3   5  69  36
   3   5  69   8
   3   5   8  69
   3   6   2  31
   3   6  31   2
   3   6  31  64
   3   6  64  10
   3   6  64  31
   3   6  10  64
   3   7  11  37
   3   7  37  32
   3   7  37  11
   3   7  32  37
   3   7  32   5
   3   7   5  32
   3   8   5  69
   3   8  69   5
   3   8  69  33
   3   8  33  12
   3   8  33  69
   3   8  12  33
   3   9  13  34
   3   9  34 109
   3   9  34  13
   3   9 109  34
   3   9 109   2
   3   9   2 109
   3  10   6  64
   3  10  64  14
   3  10  64   6
   3  10  14  64
   3  11  15  37
   3  11  37   7
   3  11  37  15
   3  11   7  37
   3  12   8  33
   3  12  33  16
   3  12  33   8
   3  12  16  33
   3  13  17  34
   3  13  34   9
   3  13  34  17
   3  13   9  34
   3  14  10  64
   3  14  64  77
   3  14  64  10
   3  14  77  64
   3  14  77  71
   3  14  71  77
   3  14  71  18
   3  14  18  71
   3  15  19  72
   3  15  72  78
   3  15  72  19
   3  15  78  72
   3  15  78  37
   3  15  37  11
   3  15  37  78
   3  15  11  37
   3  16  12  33
   3  16  33  83
   3  16  33  12
   3  16  83  33
   3  16  83  79
   3  16  79  83
   3  16  79  20
   3  16  20  79
   3  17  21  80
   3  17  80  84
   3  17  80  21
   3  17  84  80
   3  17  84  34
   3  17  34  13
   3  17  34  84
   3  17  13  34
   3  18  14  71
   3  18  71  14
   3  18  71  49
   3  18  49  71
   3  18  49  22
   3  18  22  49
   3  19  23  50
   3  19  50  72
   3  19  50  23
   3  19  72  50
   3  19  72  15
   3  19  15  72
   3  20  16  79
   3  20  79  16
   3  20  79  66
   3  20  66  79
   3  20  66  24
   3  20  24  66
   3  21  25  67
   3  21  67  80
   3  21  67  25
   3  21  80  67
   3  21  80  17
   3  21  17  80
   3  22  18  49
   3  22  49  18
   3  22  49  39
   3  22  39  26
   3  22  39  49
   3  22  26  39
   3  23  27  40
   3  23  40  50
   3  23  40  27
   3  23  50  40
   3  23  50  19
   3  23  19  50
   3  24  20  66
   3  24  66  20
   3  24  66  45
   3  24  45   0
   3  24  45  66
   3  24   0  45
   3  25   1  46
   3  25  46   1
   3  25  46  67
   3  25  67  46
   3  25  67  21
   3  25  21  67
   3  26  22  39
   3  26  39  57
   3  26  39  22
   3  26  57   3
   3  26  57  39
   3  26   3  57
   3  27   4  58
   3  27  58   4
   3  27  58  40
   3  27  40  58
   3  27  40  23
   3  27  23  40
   3  28   0 114
   4  28   0  85   1
   3  28 114   0
   3  28 114   1
   3  28   1 114
   4  28   1  85   0
   3  29 127 128
   4  29 127  57   3
   3  29 128 127
   4  29 128  58   4
   3  30  34  59
   3  30  34  41
   3  30  59 119
   3  30  59  34
   3  30 119  59
   4  30 119  51  52
   3  30  52  75
   4  30  52  51 119
   3  30  75  52
   3  30  75  41
   3  30  41  34
   3  30  41  75
   3  31   2  35
   3  31   2   6
   3  31  35  54
   3  31  35   2
   3  31  54  35
   3  31  54  68
   3  31  68  64
   3  31  68  54
   3  31  64   6
   3  31  64  68
   3  31   6   2
   3  31   6  64
   3  32  37  65
   3  32  37   7
   3  32  65  37
   3  32  65  55
   3  32  55  65
   3  32  55  36
   3  32  36  55
   3  32  36   5
   3  32   5   7
   3  32   5  36
   3  32   7  37
   3  32   7   5
   3  33 101  59
   3  33 101  83
   3  33  83 101
   3  33  83  16
   3  33  16  12
   3  33  16  83
   3  33  12   8
   3  33  12  16
   3  33   8  69
   3  33   8  12
   3  33  69  42
   3  33  69   8
   3  33  42 119
   3  33  42  69
   3  33 119  42
   3  33 119  59
   3  33  59 119
   3  33  59 101
   3  34 102  84
   3  34 102  59
   3  34  59  30
   3  34  59 102
   3  34  30  59
   3  34  30  41
   3  34  41 109
   3  34  41  30
   3  34 109  41
   3  34 109   9
   3  34   9  13
   3  34   9 109
   3  34  13  17
   3  34  13   9
   3  34  17  84
   3  34  17  13
   3  34  84 102
   3  34  84  17
   3  35 109  41
   3  35 109   2
   3  35  41 109
   3  35  41  62
   3  35  62  41
   3  35  62  54
   3  35  54  62
   3  35  54  31
   3  35  31   2
   3  35  31  54
   3  35   2  31
   3  35   2 109
   3  36  32  55
   3  36  32   5
   3  36  55  63
   3  36  55  32
   3  36  63  55
   3  36  63  42
   3  36  42  69
   3  36  42  63
   3  36  69   5
   3  36  69  42
   3  36   5  32
   3  36   5  69
   3  37  92  78
   3  37  92  56
   3  37  56  53
   3  37  56  92
   3  37  53  56
   3  37  53  65
   3  37  65  53
   3  37  65  32
   3  37  32  65
   3  37  32   7
   3  37   7  11
   3  37   7  32
   3  37  11  15
   3  37  11   7
   3  37  15  78
   3  37  15  11
   3  37  78  92
   3  37  78  15
   3  38 112 120
   4  38 112 113  43
   3  38 120 112
   3  38 120 107
   3  38 107 115
   3  38 107 120
   3  38 115 107
   3  38 115  93
   3  38  93 115
   4  38  93  77 107
   3  39  57  26
   3  39  57  94
   3  39  26  22
   3  39  26  57
   3  39  22  49
   3  39  22  26
   3  39  49  81
   3  39  49  22
   3  39  81  73
   3  39  81  49
   3  39  73  94
   3  39  73  81
   3  39  94  73
   3  39  94  57
   3  40  58  94
   3  40  58  27
   3  40  94  74
   3  40  94  58
   3  40  74  94
   3  40  74  82
   3  40  82  50
   3  40  82  74
   3  40  50  82
   3  40  50  23
   3  40  23  27
   3  40  23  50
   3  40  27  58
   3  40  27  23
   3  41  35 109
   3  41  35  62
   3  41 109  34
   3  41 109  35
   3  41  34  30
   3  41  34 109
   3  41  30  34
   3  41  30  75
   3  41  75  30
   3  41  75  62
   3  41  62  75
   3  41  62  35
   3  42 119  33
   3  42 119  76
   3  42  33  69
   3  42  33 119
   3  42  69  36
   3  42  69  33
   3  42  36  63
   3  42  36  69
   3  42  63  76
   3  42  63  36
   3  42  76  63
   3  42  76 119
   3  43 113 121
   4  43 113 112  38
   3  43  92 116
   4  43  92  78 108
   3  43 116  92
   3  43 116 108
   3  43 108 121
   3  43 108 116
   3  43 121 108
   3  43 121 113
   3  44  88  86
   3  44  88  95
   3  44  95  88
   3  44  95 110
   3  44 110  95
   3  44 110 129
   3  44 129 110
   3  44 129 101
   3  44 101 129
   4  44 101  59 117
   3  44  86  88
   4  44  86  87  47
   3  45   0  24
   3  45   0  85
   3  45  24  66
   3  45  24   0
   3  45  66  88
   3  45  66  24
   3  45  88  85
   3  45  88  66
   3  45  85   0
   3  45  85  88
   3  46   1  85
   3  46   1  25
   3  46  85  89
   3  46  85   1
   3  46  89  85
   3  46  89  67
   3  46  67  89
   3  46  67  25
   3  46  25   1
   3  46  25  67
   3  47  89  87
   3  47  89  96
   3  47  87  89
   4  47  87  86  44
   3  47 102 130
   4  47 102  84 111
   3  47 130 102
   3  47 130 111
   3  47 111  96
   3  47 111 130
   3  47  96  89
   3  47  96 111
   3  48  97 124
   3  48  97 104
   3  48 124  97
   3  48 124  99
   3  48  99 126
   3  48  99 124
   3  48 126  99
   3  48 126 100
   3  48 100 125
   3  48 100 126
   3  48 125 100
   3  48 125  98
   3  48  98 103
   3  48  98 125
   3  48 103  98
   4  48 103  52 122
   3  48 122 123
   4  48 122  52 103
   3  48 123 122
   4  48 123  51 104
   3  48 104  97
   4  48 104  51 123
   3  49  18  71
   3  49  18  22
   3  49  71  81
   3  49  71  18
   3  49  81  39
   3  49  81  71
   3  49  39  22
   3  49  39  81
   3  49  22  18
   3  49  22  39
   3  50  40  82
   3  50  40  23
   3  50  82  72
   3  50  82  40
   3  50  72  82
   3  50  72  19
   3  50  19  23
   3  50  19  72
   3  50  23  40
   3  50  23  19
   3  51 119  76
   4  51 119  30  52
   3  51  76 104
   3  51  76 119
   3  51 104  76
   4  51 104  48 123
   3  52  30  75
   4  52  30 119  51
   3  52 103  75
   4  52 103  48 122
   3  52  75  30
   3  52  75 103
   3  53  37  56
   3  53  37  65
   3  53  56  37
   3  53  56  64
   3  53  64  68
   3  53  64  56
   3  53  68  61
   3  53  68  64
   3  53  61  70
   3  53  61  68
   3  53  70  60
   3  53  70  61
   3  53  60  70
   3  53  60  65
   3  53  65  37
   3  53  65  60
   3  54  35  62
   3  54  35  31
   3  54  62  91
   3  54  62  35
   3  54  91  61
   3  54  91  62
   3  54  61  91
   3  54  61  68
   3  54  68  61
   3  54  68  31
   3  54  31  35
   3  54  31  68
   3  55  65  60
   3  55  65  32
   3  55  60  90
   3  55  60  65
   3  55  90  63
   3  55  90  60
   3  55  63  90
   3  55  63  36
   3  55  36  32
   3  55  36  63
   3  55  32  65
   3  55  32  36
   3  56  53  37
   3  56  53  64
   3  56  37  92
   3  56  37  53
   3  56  92  37
   4  56  92  43 106
   3  56 106 105
   4  56 106  43  92
   3  56 105 106
   4  56 105  38  93
   3  56  93  64
   4  56  93  38 105
   3  56  64  93
   3  56  64  53
   3  57   3  26
   4  57   3  29 127
   3  57  26  39
   3  57  26   3
   3  57  39  26
   3  57  39  94
   3  57  94  58
   3  57  94  39
   3  57  58  94
   4  57  58 128 127
   3  58   4  27
   4  58   4  29 128
   3  58  57  94
   4  58  57 127 128
   3  58  94  40
   3  58  94  57
   3  58  40  94
   3  58  40  27
   3  58  27   4
   3  58  27  40
   3  59 119  33
   3  59 119  30
   3  59  30  34
   3  59  30 119
   3  59  34 102
   3  59  34  30
   3  59 102  34
   4  59 102  47 118
   3  59 118 117
   4  59 118  47 102
   3  59 117 118
   4  59 117  44 101
   3  59 101  33
   4  59 101  44 117
   3  59  33 101
   3  59  33 119
   3  60  53  70
   3  60  53  65
   3  60  70  53
   3  60  70  99
   3  60  99  90
   3  60  99  70
   3  60  90  55
   3  60  90  99
   3  60  55  65
   3  60  55  90
   3  60  65  53
   3  60  65  55
   3  61  54  91
   3  61  54  68
   3  61  91  54
   3  61  91 100
   3  61 100  70
   3  61 100  91
   3  61  70  53
   3  61  70 100
   3  61  53  68
   3  61  53  70
   3  61  68  53
   3  61  68  54
   3  62  41  35
   3  62  41  75
   3  62  75  98
   3  62  75  41
   3  62  98  91
   3  62  98  75
   3  62  91  54
   3  62  91  98
   3  62  54  35
   3  62  54  91
   3  62  35  41
   3  62  35  54
   3  63  55  90
   3  63  55  36
   3  63  90  55
   3  63  90  97
   3  63  97  76
   3  63  97  90
   3  63  76  97
   3  63  76  42
   3  63  42  36
   3  63  42  76
   3  63  36  55
   3  63  36  42
   3  64  93  77
   3  64  93  56
   3  64  77  93
   3  64  77  14
   3  64  14  10
   3  64  14  77
   3  64  10   6
   3  64  10  14
   3  64   6  31
   3  64   6  10
   3  64  31  68
   3  64  31   6
   3  64  68  53
   3  64  68  31
   3  64  53  56
   3  64  53  68
   3  64  56  53
   3  64  56  93
   3  65  37  53
   3  65  37  32
   3  65  53  37
   3  65  53  60
   3  65  60  53
   3  65  60  55
   3  65  55  60
   3  65  55  32
   3  65  32  37
   3  65  32  55
   3  66  20  79
   3  66  20  24
   3  66  79  95
   3  66  79  20
   3  66  95  88
   3  66  95  79
   3  66  88  45
   3  66  88  95
   3  66  45  24
   3  66  45  88
   3  66  24  20
   3  66  24  45
   3  67  46  89
   3  67  46  25
   3  67  89  96
   3  67  89  46
   3  67  96  80
   3  67  96  89
   3  67  80  96
   3  67  80  21
   3  67  21  25
   3  67  21  80
   3  67  25  46
   3  67  25  21
   3  68  61  54
   3  68  61  53
   3  68  53  64
   3  68  53  61
   3  68  64  31
   3  68  64  53
   3  68  31  54
   3  68  31  64
   3  68  54  61
   3  68  54  31
   3  69   5  36
   3  69   5   8
   3  69  36  42
   3  69  36   5
   3  69  42  33
   3  69  42  36
   3  69  33   8
   3  69  33  42
   3  69   8   5
   3  69   8  33
   3  70  60  53
   3  70  60  99
   3  70  53  61
   3  70  53  60
   3  70  61 100
   3  70  61  53
   3  70 100  61
   3  70 100 126
   3  70 126  99
   3  70 126 100
   3  70  99  60
   3  70  99 126
   3  71  14  77
   3  71  14  18
   3  71  77 107
   3  71  77  14
   3  71 107  81
   3  71 107  77
   3  71  81  49
   3  71  81 107
   3  71  49  18
   3  71  49  81
   3  71  18  14
   3  71  18  49
   3  72  50  82
   3  72  50  19
   3  72  82  50
   3  72  82 108
   3  72 108  78
   3  72 108  82
   3  72  78 108
   3  72  78  15
   3  72  15  19
   3  72  15  78
   3  72  19  50
   3  72  19  15
   3  73 112 120
   4  73 112 113  74
   3  73  74  94
   4  73  74 113 112
   3  73  94  74
   3  73  94  39
   3  73  39  81
   3  73  39  94
   3  73  81  39
   3  73  81 120
   3  73 120 112
   3  73 120  81
   3  74  40  94
   3  74  40  82
   3  74  94  73
   3  74  94  40
   3  74  73  94
   4  74  73 112 113
   3  74 113 121
   4  74 113 112  73
   3  74 121  82
   3  74 121 113
   3  74  82  40
   3  74  82 121
   3  75  30  52
   3  75  30  41
   3  75  52  30
   3  75  52 103
   3  75 103  98
   3  75 103  52
   3  75  98  62
   3  75  98 103
   3  75  62  41
   3  75  62  98
   3  75  41  30
   3  75  41  62
   3  76  63  97
   3  76  63  42
   3  76  97  63
   3  76  97 104
   3  76 104  51
   3  76 104  97
   3  76  51 119
   3  76  51 104
   3  76 119  42
   3  76 119  51
   3  76  42 119
   3  76  42  63
   3  77  64  93
   3  77  64  14
   3  77  93  64
   3  77  93 115
   3  77 115 107
   3  77 115  93
   3  77 107  71
   3  77 107 115
   3  77  71  14
   3  77  71 107
   3  77  14  64
   3  77  14  71
   3  78  72 108
   3  78  72  15
   3  78 108  72
   3  78 108 116
   3  78 116  92
   3  78 116 108
   3  78  92 116
   3  78  92  37
   3  78  37  92
   3  78  37  15
   3  78  15  72
   3  78  15  37
   3  79  16  83
   3  79  16  20
   3  79  83 110
   3  79  83  16
   3  79 110  95
   3  79 110  83
   3  79  95  66
   3  79  95 110
   3  79  66  20
   3  79  66  95
   3  79  20  16
   3  79  20  66
   3  80  67  96
   3  80  67  21
   3  80  96  67
   3  80  96 111
   3  80 111  84
   3  80 111  96
   3  80  84 111
   3  80  84  17
   3  80  17  21
   3  80  17  84
   3  80  21  67
   3  80  21  17
   3  81  73  39
   3  81  73 120
   3  81  39  49
   3  81  39  73
   3  81  49  71
   3  81  49  39
   3  81  71 107
   3  81  71  49
   3  81 107  71
   3  81 107 120
   3  81 120  73
   3  81 120 107
   3  82  72  50
   3  82  72 108
   3  82  50  40
   3  82  50  72
   3  82  40  74
   3  82  40  50
   3  82  74  40
   3  82  74 121
   3  82 121 108
   3  82 121  74
   3  82 108  72
   3  82 108 121
   3  83  33 101
   3  83  33  16
   3  83 101 129
   3  83 101  33
   3  83 129 110
   3  83 129 101
   3  83 110  79
   3  83 110 129
   3  83  79  16
   3  83  79 110
   3  83  16  33
   3  83  16  79
   3  84  80 111
   3  84  80  17
   3  84 111  80
   3  84 111 130
   3  84 130 102
   3  84 130 111
   3  84 102 130
   3  84 102  34
   3  84  34 102
   3  84  34  17
   3  84  17  80
   3  84  17  34
   3  85  86  87
   3  85  86  88
   3  85  87  89
   3  85  87  86
   3  85  89  87
   3  85  89  46
   3  85  46   1
   3  85  46  89
   3  85   1 114
   3  85   1  46
   3  85 114   0
   3  85 114   1
   3  85   0  45
   3  85   0 114
   3  85  45   0
   3  85  45  88
   3  85  88  86
   3  85  88  45
   3  86  44  88
   4  86  44  47  87
   3  86  87  85
   4  86  87  47  44
   3  86  85  87
   3  86  85  88
   3  86  88  85
   3  86  88  44
   3  87  47  89
   4  87  47  44  86
   3  87  89  85
   3  87  89  47
   3  87  85  86
   3  87  85  89
   3  87  86  85
   4  87  86  44  47
   3  88  86  44
   3  88  86  85
   3  88  85  86
   3  88  85  45
   3  88  45  66
   3  88  45  85
   3  88  66  95
   3  88  66  45
   3  88  95  66
   3  88  95  44
   3  88  44  95
   3  88  44  86
   3  89  85  87
   3  89  85  46
   3  89  87  47
   3  89  87  85
   3  89  47  87
   3  89  47  96
   3  89  96  67
   3  89  96  47
   3  89  67  46
   3  89  67  96
   3  89  46  85
   3  89  46  67
   3  90  63  55
   3  90  63  97
   3  90  55  60
   3  90  55  63
   3  90  60  99
   3  90  60  55
   3  90  99  60
   3  90  99 124
   3  90 124  97
   3  90 124  99
   3  90  97  63
   3  90  97 124
   3  91  61  54
   3  91  61 100
   3  91  54  62
   3  91  54  61
   3  91  62  98
   3  91  62  54
   3  91  98  62
   3  91  98 125
   3  91 125 100
   3  91 125  98
   3  91 100  61
   3  91 100 125
   3  92  78 116
   3  92  78  37
   3  92 116  78
   3  92 116  43
   3  92  43 116
   4  92  43 106  56
   3  92  56  37
   4  92  56 106  43
   3  92  37  56
   3  92  37  78
   3  93  77  64
   3  93  77 115
   3  93  64  77
   3  93  64  56
   3  93  56  64
   4  93  56 105  38
   3  93  38 115
   4  93  38 107  77
   3  93 115  77
   3  93 115  38
   3  94  73  74
   3  94  73  39
   3  94  74  40
   3  94  74  73
   3  94  40  58
   3  94  40  74
   3  94  58  57
   3  94  58  40
   3  94  57  39
   3  94  57  58
   3  94  39  57
   3  94  39  73
   3  95  88  66
   3  95  88  44
   3  95  66  79
   3  95  66  88
   3  95  79 110
   3  95  79  66
   3  95 110  79
   3  95 110  44
   3  95  44  88
   3  95  44 110
   3  96  80  67
   3  96  80 111
   3  96  67  89
   3  96  67  80
   3  96  89  47
   3  96  89  67
   3  96  47  89
   3  96  47 111
   3  96 111  80
   3  96 111  47
   3  97  76  63
   3  97  76 104
   3  97  63  90
   3  97  63  76
   3  97  90  63
   3  97  90 124
   3  97 124  90
   3  97 124  48
   3  97  48 124
   3  97  48 104
   3  97 104  76
   3  97 104  48
   3  98  91  62
   3  98  91 125
   3  98  62  75
   3  98  62  91
   3  98  75 103
   3  98  75  62
   3  98 103  75
   3  98 103  48
   3  98  48 125
   3  98  48 103
   3  98 125  91
   3  98 125  48
   3  99  90  60
   3  99  90 124
   3  99  60  70
   3  99  60  90
   3  99  70  60
   3  99  70 126
   3  99 126  70
   3  99 126  48
   3  99  48 124
   3  99  48 126
   3  99 124  90
   3  99 124  48
   3 100  70  61
   3 100  70 126
   3 100  61  91
   3 100  61  70
   3 100  91  61
   3 100  91 125
   3 100 125  91
   3 100 125  48
   3 100  48 126
   3 100  48 125
   3 100 126  70
   3 100 126  48
   3 101  59  33
   4 101  59 117  44
   3 101  44 129
   4 101  44 110  83
   3 101 129  83
   3 101 129  44
   3 101  83  33
   3 101  83 129
   3 101  33  83
   3 101  33  59
   3 102  84 130
   3 102  84  34
   3 102 130  84
   3 102 130  47
   3 102  47 130
   4 102  47 118  59
   3 102  59  34
   4 102  59 118  47
   3 102  34  59
   3 102  34  84
   3 103  98  75
   3 103  98  48
   3 103  75  52
   3 103  75  98
   3 103  52  75
   4 103  52 122  48
   3 103  48  98
   4 103  48 122  52
   3 104  51  76
   4 104  51 123  48
   3 104  76  97
   3 104  76  51
   3 104  97  76
   3 104  97  48
   3 104  48  97
   4 104  48 123  51
   3 105  56 106
   4 105  56  93  38
   3 105 106  56
   4 105 106  43  38
   3 106 105  56
   4 106 105  38  43
   3 106  56 105
   4 106  56  92  43
   3 107  81  71
   3 107  81 120
   3 107  71  77
   3 107  71  81
   3 107  77 115
   3 107  77  71
   3 107 115  77
   3 107 115  38
   3 107  38 120
   3 107  38 115
   3 107 120  81
   3 107 120  38
   3 108  78  72
   3 108  78 116
   3 108  72  82
   3 108  72  78
   3 108  82  72
   3 108  82 121
   3 108 121  82
   3 108 121  43
   3 108  43 116
   3 108  43 121
   3 108 116  78
   3 108 116  43
   3 109  34  41
   3 109  34   9
   3 109  41  35
   3 109  41  34
   3 109  35  41
   3 109  35   2
   3 109   2  35
   3 109   2   9
   3 109   9  34
   3 109   9   2
   3 110  95  79
   3 110  95  44
   3 110  79  83
   3 110  79  95
   3 110  83 129
   3 110  83  79
   3 110 129  83
   3 110 129  44
   3 110  44  95
   3 110  44 129
   3 111  84  80
   3 111  84 130
   3 111  80  96
   3 111  80  84
   3 111  96  80
   3 111  96  47
   3 111  47 130
   3 111  47  96
   3 111 130  84
   3 111 130  47
   3 112  38 120
   4 112  38  43 113
   3 112  73 120
   4 112  73  74 113
   3 112 120  73
   3 112 120  38
   3 113  43 121
   4 113  43  38 112
   3 113 121  74
   3 113 121  43
   3 113  74 121
   4 113  74  73 112
   3 114   0  85
   3 114   0  28
   3 114  85   1
   3 114  85   0
   3 114   1  28
   3 114   1  85
   3 114  28   0
   3 114  28   1
   3 115 107  77
   3 115 107  38
   3 115  77  93
   3 115  77 107
   3 115  93  77
   3 115  93  38
   3 115  38 107
   3 115  38  93
   3 116  92  78
   3 116  92  43
   3 116  78 108
   3 116  78  92
   3 116 108  78
   3 116 108  43
   3 116  43  92
   3 116  43 108
   3 117  59 118
   4 117  59 101  44
   3 117 118  59
   4 117 118  47  44
   3 118 117  59
   4 118 117  44  47
   3 118  59 117
   4 118  59 102  47
   3 119  33  42
   3 119  33  59
   3 119  42  33
   3 119  42  76
   3 119  76  51
   3 119  76  42
   3 119  51  76
   4 119  51  52  30
   3 119  30  59
   4 119  30  52  51
   3 119  59  30
   3 119  59  33
   3 120 112  38
   3 120 112  73
   3 120  73 112
   3 120  73  81
   3 120  81  73
   3 120  81 107
   3 120 107  81
   3 120 107  38
   3 120  38 112
   3 120  38 107
   3 121 108  82
   3 121 108  43
   3 121  82  74
   3 121  82 108
   3 121  74 113
   3 121  74  82
   3 121 113  43
   3 121 113  74
   3 121  43 113
   3 121  43 108
   3 122  48 123
   4 122  48 103  52
   3 122 123  48
   4 122 123  51  52
   3 123  48 122
   4 123  48 104  51
   3 123 122  48
   4 123 122  52  51
   3 124  97  90
   3 124  97  48
   3 124  90  99
   3 124  90  97
   3 124  99  90
   3 124  99  48
   3 124  48  97
   3 124  48  99
   3 125 100  91
   3 125 100  48
   3 125  91  98
   3 125  91 100
   3 125  98  91
   3 125  98  48
   3 125  48 100
   3 125  48  98
   3 126  99  70
   3 126  99  48
   3 126  70 100
   3 126  70  99
   3 126 100  70
   3 126 100  48
   3 126  48  99
   3 126  48 100
   3 127  29 128
   4 127  29   3  57
   3 127 128  29
   4 127 128  58  57
   3 128  29 127
   4 128  29   4  58
   3 128 127  29
   4 128 127  57  58
   3 129 110  83
   3 129 110  44
   3 129  83 101
   3 129  83 110
   3 129 101  44
   3 129 101  83
   3 129  44 110
   3 129  44 101
   3 130 102  84
   3 130 102  47
   3 130  84 111
   3 130  84 102
   3 130 111  84
   3 130 111  47
   3 130  47 102
   3 130  47 111
