# Generated by dad_to_polygons. Vertex data from Humppa's .off file,
# polygons parsed from .dad file.
COFF
146 520 146
-6.610961 1.200496 6.207340 0.500000 0.500000 0.500000 1.0
-6.610964 -1.200494 6.207341 0.500000 0.500000 0.500000 1.0
-0.033739 -2.243280 5.940540 0.500000 0.500000 0.500000 1.0
7.538335 -1.287989 6.257212 0.500000 0.500000 0.500000 1.0
7.538335 1.287989 6.257212 0.500000 0.500000 0.500000 1.0
-0.033739 2.243281 5.940540 0.500000 0.500000 0.500000 1.0
1.136077 -1.936867 6.065894 0.500000 0.500000 0.500000 1.0
1.136077 1.936867 6.065894 0.500000 0.500000 0.500000 1.0
-1.156887 1.919354 6.037129 0.500000 0.500000 0.500000 1.0
-1.156887 -1.919354 6.037129 0.500000 0.500000 0.500000 1.0
2.052074 -1.624647 6.318690 0.500000 0.500000 0.500000 1.0
2.052074 1.624647 6.318690 0.500000 0.500000 0.500000 1.0
-2.078163 1.631652 6.299058 0.500000 0.500000 0.500000 1.0
-2.078163 -1.631652 6.299058 0.500000 0.500000 0.500000 1.0
3.022656 -1.780679 6.083127 0.500000 0.500000 0.500000 1.0
3.022684 1.780683 6.083151 0.500000 0.500000 0.500000 1.0
-3.015004 1.780191 5.983030 0.500000 0.500000 0.500000 1.0
-3.015004 -1.780191 5.983030 0.500000 0.500000 0.500000 1.0
4.063793 -1.664683 6.302870 0.500000 0.500000 0.500000 1.0
4.063793 1.664683 6.302870 0.500000 0.500000 0.500000 1.0
-4.036330 1.657532 6.259255 0.500000 0.500000 0.500000 1.0
-4.036330 -1.657532 6.259255 0.500000 0.500000 0.500000 1.0
5.050057 -1.492280 6.306679 0.500000 0.500000 0.500000 1.0
5.050057 1.492280 6.306679 0.500000 0.500000 0.500000 1.0
-5.057394 1.436823 6.266838 0.500000 0.500000 0.500000 1.0
-5.057394 -1.436823 6.266838 0.500000 0.500000 0.500000 1.0
6.058322 -1.474048 6.220584 0.500000 0.500000 0.500000 1.0
6.058322 1.474048 6.220585 0.500000 0.500000 0.500000 1.0
-7.812719 -0.000048 6.207625 0.500000 0.500000 0.500000 1.0
8.827083 0.000248 6.208078 0.500000 0.500000 0.500000 1.0
-1.666677 -0.918809 3.799776 0.500000 0.500000 0.500000 1.0
0.929465 -1.870753 4.690934 1.0 1.0 0.0 1.0
0.929500 1.870751 4.690949 1.0 1.0 0.0 1.0
-2.091057 1.650439 5.160195 0.500000 0.500000 0.500000 1.0
-2.091059 -1.650440 5.160193 0.500000 0.500000 0.500000 1.0
0.010278 -1.967797 4.543123 0.500000 0.500000 0.500000 1.0
0.010278 1.967800 4.543123 0.500000 0.500000 0.500000 1.0
2.120720 1.606983 5.172958 0.500000 0.500000 0.500000 1.0
3.408945 -0.619273 2.341013 1.0 1.0 0.0 1.0
5.331153 -1.357910 5.337651 0.500000 0.500000 0.500000 1.0
5.331163 1.357906 5.337662 0.500000 0.500000 0.500000 1.0
-0.773960 -1.873764 4.096622 0.500000 0.500000 0.500000 1.0
-0.773960 1.873765 4.096620 0.500000 0.500000 0.500000 1.0
3.408946 0.619272 2.341013 1.0 1.0 0.0 1.0
-3.484835 0.660087 2.528474 1.0 1.0 0.0 1.0
-5.082682 1.404069 5.358115 0.500000 0.500000 0.500000 1.0
-5.082682 -1.404067 5.358113 0.500000 0.500000 0.500000 1.0
-3.484836 -0.660088 2.528474 1.0 1.0 0.0 1.0
0.099756 0.000001 1.030606 1.0 1.0 0.0 1.0
4.555722 -1.578435 5.547519 0.500000 0.500000 0.500000 1.0
4.555723 1.578421 5.547522 0.500000 0.500000 0.500000 1.0
-1.360790 0.990877 2.466047 0.500000 0.500000 0.500000 1.0
-1.360786 -0.990878 2.466047 0.500000 0.500000 0.500000 1.0
1.650114 -0.000007 4.034890 0.500000 0.500000 0.500000 1.0
0.811061 -1.844618 3.597339 0.500000 0.500000 0.500000 1.0
0.811087 1.844620 3.597335 0.500000 0.500000 0.500000 1.0
2.101523 -0.000024 4.539481 0.500000 0.500000 0.500000 1.0
6.928773 -0.759172 4.595417 1.0 1.0 0.0 1.0
6.928773 0.759172 4.595417 1.0 1.0 0.0 1.0
-2.219436 -0.000003 4.231344 0.500000 0.500000 0.500000 1.0
1.141045 1.396635 3.315635 0.500000 0.500000 0.500000 1.0
1.141017 -1.396624 3.315635 0.500000 0.500000 0.500000 1.0
0.175728 -1.885775 3.429798 0.500000 0.500000 0.500000 1.0
0.175727 1.885781 3.429799 0.500000 0.500000 0.500000 1.0
2.120683 -1.606973 5.172947 0.500000 0.500000 0.500000 1.0
1.307085 1.730901 4.370778 0.500000 0.500000 0.500000 1.0
-4.544720 1.547330 5.363146 0.500000 0.500000 0.500000 1.0
-4.544722 -1.547366 5.363147 0.500000 0.500000 0.500000 1.0
1.307059 -1.730897 4.370769 0.500000 0.500000 0.500000 1.0
-0.955119 1.877227 4.843232 1.0 1.0 0.0 1.0
1.323850 -0.000003 2.935575 0.500000 0.500000 0.500000 1.0
4.030531 -1.639874 4.987925 0.500000 0.500000 0.500000 1.0
4.030540 1.639869 4.987923 0.500000 0.500000 0.500000 1.0
5.173400 -0.989731 4.132477 0.500000 0.500000 0.500000 1.0
5.173403 0.989730 4.132477 0.500000 0.500000 0.500000 1.0
-0.566728 -1.658440 3.120650 0.500000 0.500000 0.500000 1.0
-0.566728 1.658441 3.120643 0.500000 0.500000 0.500000 1.0
3.103076 -1.666222 4.671685 0.500000 0.500000 0.500000 1.0
3.103105 1.666227 4.671712 0.500000 0.500000 0.500000 1.0
-3.888130 1.606339 5.050763 0.500000 0.500000 0.500000 1.0
-3.888131 -1.606337 5.050763 0.500000 0.500000 0.500000 1.0
4.554700 -1.541607 4.255117 0.500000 0.500000 0.500000 1.0
4.554749 1.541512 4.255102 0.500000 0.500000 0.500000 1.0
-3.042078 1.668222 4.625883 0.500000 0.500000 0.500000 1.0
-3.042143 -1.668412 4.625885 0.500000 0.500000 0.500000 1.0
-5.898693 0.000001 4.869889 0.500000 0.500000 0.500000 1.0
-5.111935 0.862262 3.861560 0.500000 0.500000 0.500000 1.0
-5.111935 -0.862258 3.861562 0.500000 0.500000 0.500000 1.0
-4.738262 1.281654 4.300975 0.500000 0.500000 0.500000 1.0
-4.738263 -1.281650 4.300977 0.500000 0.500000 0.500000 1.0
0.733209 1.692546 2.655979 0.500000 0.500000 0.500000 1.0
0.733094 -1.692616 2.655980 0.500000 0.500000 0.500000 1.0
2.532581 1.207572 4.263131 0.500000 0.500000 0.500000 1.0
2.532607 -1.207599 4.263135 0.500000 0.500000 0.500000 1.0
5.836340 -0.000000 4.143111 0.500000 0.500000 0.500000 1.0
-4.159354 1.581669 4.319331 0.500000 0.500000 0.500000 1.0
-4.159336 -1.581643 4.319334 0.500000 0.500000 0.500000 1.0
0.179819 1.712394 2.347933 0.500000 0.500000 0.500000 1.0
0.179818 -1.712387 2.347930 0.500000 0.500000 0.500000 1.0
1.032870 1.128725 2.367159 0.500000 0.500000 0.500000 1.0
1.032854 -1.128717 2.367161 0.500000 0.500000 0.500000 1.0
-2.569320 1.366295 4.265473 0.500000 0.500000 0.500000 1.0
-2.569359 -1.366321 4.265481 0.500000 0.500000 0.500000 1.0
-0.455230 -1.497112 2.072100 0.500000 0.500000 0.500000 1.0
-0.455223 1.497115 2.072118 0.500000 0.500000 0.500000 1.0
2.452842 -0.398127 3.148898 0.500000 0.500000 0.500000 1.0
2.452850 0.398102 3.148900 0.500000 0.500000 0.500000 1.0
3.890469 -1.559844 3.898370 0.500000 0.500000 0.500000 1.0
3.890485 1.559843 3.898373 0.500000 0.500000 0.500000 1.0
-0.955118 -1.877227 4.843232 1.0 1.0 0.0 1.0
-3.692773 1.612652 3.959109 0.500000 0.500000 0.500000 1.0
-3.692780 -1.612651 3.959110 0.500000 0.500000 0.500000 1.0
4.586606 -0.987495 2.967678 0.500000 0.500000 0.500000 1.0
4.586608 0.987494 2.967677 0.500000 0.500000 0.500000 1.0
-6.684100 0.000002 5.007183 1.0 1.0 0.0 1.0
3.226944 -1.464923 3.734500 0.500000 0.500000 0.500000 1.0
3.226963 1.464920 3.734501 0.500000 0.500000 0.500000 1.0
-2.410752 0.336180 3.234694 0.500000 0.500000 0.500000 1.0
-2.410749 -0.336177 3.234694 0.500000 0.500000 0.500000 1.0
-1.666670 0.918805 3.799773 0.500000 0.500000 0.500000 1.0
4.292233 -1.379279 3.391243 0.500000 0.500000 0.500000 1.0
4.292237 1.379279 3.391242 0.500000 0.500000 0.500000 1.0
-1.197807 -0.724500 1.657247 1.000000 1.000000 1.000000 1.0
-1.197810 0.724502 1.657246 1.000000 1.000000 1.000000 1.0
0.643941 1.303185 1.810021 1.000000 1.000000 1.000000 1.0
0.643931 -1.303185 1.810025 1.000000 1.000000 1.000000 1.0
1.154510 -0.000001 2.147123 0.500000 0.500000 0.500000 1.0
8.148572 -0.375449 5.233009 0.500000 0.500000 0.500000 1.0
8.148572 0.375451 5.233010 0.500000 0.500000 0.500000 1.0
-3.089290 1.489282 3.693943 0.500000 0.500000 0.500000 1.0
-3.089306 -1.489279 3.693932 0.500000 0.500000 0.500000 1.0
-4.368134 1.311346 3.483923 0.500000 0.500000 0.500000 1.0
-4.368135 -1.311344 3.483921 0.500000 0.500000 0.500000 1.0
2.837358 -1.115004 3.397683 0.500000 0.500000 0.500000 1.0
2.837375 1.114994 3.397682 0.500000 0.500000 0.500000 1.0
0.132598 1.086398 1.613337 1.000000 1.000000 1.000000 1.0
0.132595 -1.086397 1.613335 1.000000 1.000000 1.000000 1.0
-4.653209 0.751937 3.121284 0.500000 0.500000 0.500000 1.0
-4.653206 -0.751931 3.121284 0.500000 0.500000 0.500000 1.0
-3.934327 1.274528 3.388930 0.500000 0.500000 0.500000 1.0
-3.934359 -1.274568 3.388939 0.500000 0.500000 0.500000 1.0
-2.895232 1.065457 3.414517 0.500000 0.500000 0.500000 1.0
-2.895265 -1.065475 3.414513 0.500000 0.500000 0.500000 1.0
4.642463 -0.000001 2.974322 0.500000 0.500000 0.500000 1.0
1.890894 0.814288 4.603049 0.500000 0.500000 0.500000 1.0
1.890897 -0.814291 4.603025 0.500000 0.500000 0.500000 1.0
3 0 45 85
3 0 85 45
3 0 85 114
3 0 114 85
3 0 114 28
3 0 28 114
3 1 25 46
3 1 46 25
3 1 114 85
3 1 85 114
3 2 31 35
3 2 35 31
3 3 29 127
3 3 127 29
3 3 57 26
3 3 26 57
3 3 127 57
3 3 57 127
3 4 58 128
3 4 128 58
3 4 128 29
3 4 29 128
3 5 32 36
3 5 36 32
3 6 10 64
3 6 64 10
3 6 31 2
3 6 2 31
3 7 5 32
3 7 32 5
3 7 11 37
3 7 37 11
3 7 32 37
3 7 37 32
3 8 69 5
3 8 5 69
3 10 64 14
3 10 14 64
3 11 15 37
3 11 37 15
3 12 8 33
3 12 33 8
3 13 17 34
3 13 34 17
3 13 34 9
3 13 9 34
3 14 64 77
3 14 77 64
3 15 78 72
3 15 72 78
3 16 33 83
3 16 83 33
3 16 79 20
3 16 20 79
3 17 34 84
3 17 84 34
3 18 71 14
3 18 14 71
3 19 50 72
3 19 72 50
3 20 66 24
3 20 24 66
3 21 80 17
3 21 17 80
3 22 49 18
3 22 18 49
3 23 27 40
3 23 40 27
3 23 50 19
3 23 19 50
3 24 66 45
3 24 45 66
3 25 46 67
3 25 67 46
3 25 67 21
3 25 21 67
3 26 39 22
3 26 22 39
3 26 39 57
3 26 57 39
3 27 58 40
3 27 40 58
3 28 114 1
3 28 1 114
3 30 34 59
3 30 59 34
3 30 41 75
3 30 75 41
3 30 52 75
3 30 75 52
3 30 59 119
3 30 119 59
3 31 6 64
3 31 64 6
3 31 64 68
3 31 68 64
3 31 68 54
3 31 54 68
3 33 8 69
3 33 69 8
3 33 16 12
3 33 12 16
3 33 59 101
3 33 101 59
3 33 69 42
3 33 42 69
3 33 101 83
3 33 83 101
3 34 41 30
3 34 30 41
3 34 41 109
3 34 109 41
3 34 59 102
3 34 102 59
3 34 84 102
3 34 102 84
3 35 41 62
3 35 62 41
3 35 41 109
3 35 109 41
3 35 54 31
3 35 31 54
3 36 32 55
3 36 55 32
3 36 42 63
3 36 63 42
3 36 42 69
3 36 69 42
3 36 63 55
3 36 55 63
3 36 69 5
3 36 5 69
3 37 32 65
3 37 65 32
3 37 65 144
3 37 144 65
3 37 78 15
3 37 15 78
3 37 78 92
3 37 92 78
3 37 92 56
3 37 56 92
3 38 43 106
3 38 106 43
3 38 106 105
3 38 105 106
3 38 107 115
3 38 115 107
3 38 112 120
3 38 120 112
3 38 112 143
3 38 143 112
3 38 133 115
3 38 115 133
3 38 143 43
3 38 43 143
3 39 73 81
3 39 81 73
3 39 73 94
3 39 94 73
3 40 23 50
3 40 50 23
3 40 74 94
3 40 94 74
3 40 82 50
3 40 50 82
3 41 75 62
3 41 62 75
3 42 76 63
3 42 63 76
3 42 119 33
3 42 33 119
3 43 106 134
3 43 134 106
3 43 108 116
3 43 116 108
3 43 121 108
3 43 108 121
3 44 86 137
3 44 137 86
3 44 117 141
3 44 141 117
3 44 131 86
3 44 86 131
3 44 139 110
3 44 110 139
3 45 0 24
3 45 24 0
3 45 85 88
3 45 88 85
3 46 1 85
3 46 85 1
3 46 85 89
3 46 89 85
3 47 44 117
3 47 117 44
3 47 44 137
3 47 137 44
3 47 117 118
3 47 118 117
3 47 130 142
3 47 142 130
3 47 137 138
3 47 138 137
3 48 51 104
3 48 104 51
3 48 99 126
3 48 126 99
3 48 123 51
3 48 51 123
3 48 124 99
3 48 99 124
3 48 125 100
3 48 100 125
3 49 39 22
3 49 22 39
3 49 71 18
3 49 18 71
3 51 52 122
3 51 122 52
3 51 104 76
3 51 76 104
3 51 122 123
3 51 123 122
3 52 51 119
3 52 119 51
3 52 119 30
3 52 30 119
3 53 56 145
3 53 145 56
3 53 61 70
3 53 70 61
3 53 144 56
3 53 56 144
3 54 35 62
3 54 62 35
3 54 61 68
3 54 68 61
3 54 62 91
3 54 91 62
3 54 91 61
3 54 61 91
3 55 32 65
3 55 65 32
3 55 90 63
3 55 63 90
3 56 64 145
3 56 145 64
3 56 93 64
3 56 64 93
3 56 105 106
3 56 106 105
3 56 133 93
3 56 93 133
3 57 94 39
3 57 39 94
3 58 27 4
3 58 4 27
3 58 40 94
3 58 94 40
3 58 94 57
3 58 57 94
3 58 127 57
3 58 57 127
3 58 128 127
3 58 127 128
3 59 101 141
3 59 141 101
3 59 117 118
3 59 118 117
3 59 142 102
3 59 102 142
3 59 142 118
3 59 118 142
3 60 53 65
3 60 65 53
3 60 53 70
3 60 70 53
3 60 55 90
3 60 90 55
3 60 99 90
3 60 90 99
3 61 68 53
3 61 53 68
3 61 100 70
3 61 70 100
3 62 75 98
3 62 98 75
3 62 98 91
3 62 91 98
3 64 68 145
3 64 145 68
3 64 93 77
3 64 77 93
3 65 53 144
3 65 144 53
3 65 60 55
3 65 55 60
3 66 79 20
3 66 20 79
3 66 79 95
3 66 95 79
3 66 88 45
3 66 45 88
3 66 95 88
3 66 88 95
3 67 21 80
3 67 80 21
3 67 46 89
3 67 89 46
3 67 80 96
3 67 96 80
3 70 99 60
3 70 60 99
3 71 49 81
3 71 81 49
3 71 107 77
3 71 77 107
3 72 15 19
3 72 19 15
3 72 50 82
3 72 82 50
3 72 108 78
3 72 78 108
3 72 108 82
3 72 82 108
3 73 112 120
3 73 120 112
3 73 143 112
3 73 112 143
3 74 40 82
3 74 82 40
3 74 73 94
3 74 94 73
3 74 73 143
3 74 143 73
3 74 113 143
3 74 143 113
3 74 121 82
3 74 82 121
3 74 121 113
3 74 113 121
3 75 52 103
3 75 103 52
3 75 103 98
3 75 98 103
3 76 97 63
3 76 63 97
3 76 97 104
3 76 104 97
3 76 119 51
3 76 51 119
3 77 71 14
3 77 14 71
3 77 115 107
3 77 107 115
3 78 116 92
3 78 92 116
3 79 110 95
3 79 95 110
3 80 96 111
3 80 111 96
3 80 111 84
3 80 84 111
3 81 39 49
3 81 49 39
3 81 107 71
3 81 71 107
3 83 79 16
3 83 16 79
3 83 110 79
3 83 79 110
3 83 129 101
3 83 101 129
3 84 17 80
3 84 80 17
3 84 102 130
3 84 130 102
3 85 87 86
3 85 86 87
3 85 87 89
3 85 89 87
3 85 88 86
3 85 86 88
3 87 86 137
3 87 137 86
3 87 89 132
3 87 132 89
3 87 137 138
3 87 138 137
3 88 86 131
3 88 131 86
3 88 95 131
3 88 131 95
3 89 96 67
3 89 67 96
3 89 96 132
3 89 132 96
3 90 63 97
3 90 97 63
3 90 97 124
3 90 124 97
3 90 99 124
3 90 124 99
3 91 100 61
3 91 61 100
3 92 56 134
3 92 134 56
3 92 134 116
3 92 116 134
3 93 77 115
3 93 115 77
3 93 133 115
3 93 115 133
3 95 139 131
3 95 131 139
3 96 140 111
3 96 111 140
3 97 104 135
3 97 135 104
3 98 136 103
3 98 103 136
3 100 48 126
3 100 126 48
3 100 70 126
3 100 126 70
3 100 91 125
3 100 125 91
3 101 141 129
3 101 129 141
3 103 52 122
3 103 122 52
3 103 122 48
3 103 48 122
3 104 48 135
3 104 135 48
3 105 56 133
3 105 133 56
3 105 133 38
3 105 38 133
3 106 56 134
3 106 134 56
3 107 120 38
3 107 38 120
3 107 120 81
3 107 81 120
3 108 121 82
3 108 82 121
3 109 9 2
3 109 2 9
3 109 9 34
3 109 34 9
3 109 35 2
3 109 2 35
3 110 44 129
3 110 129 44
3 110 83 129
3 110 129 83
3 110 139 95
3 110 95 139
3 111 130 47
3 111 47 130
3 111 130 84
3 111 84 130
3 113 121 43
3 113 43 121
3 116 43 134
3 116 134 43
3 116 108 78
3 116 78 108
3 117 141 59
3 117 59 141
3 118 142 47
3 118 47 142
3 119 33 59
3 119 59 33
3 119 42 76
3 119 76 42
3 120 73 81
3 120 81 73
3 123 48 122
3 123 122 48
3 124 135 48
3 124 48 135
3 125 91 98
3 125 98 91
3 126 70 99
3 126 99 70
3 128 127 29
3 128 29 127
3 129 141 44
3 129 44 141
3 132 87 138
3 132 138 87
3 132 138 47
3 132 47 138
3 132 140 96
3 132 96 140
3 135 124 97
3 135 97 124
3 136 48 103
3 136 103 48
3 136 125 48
3 136 48 125
3 136 125 98
3 136 98 125
3 139 131 44
3 139 44 131
3 140 47 132
3 140 132 47
3 140 111 47
3 140 47 111
3 142 130 102
3 142 102 130
3 143 113 43
3 143 43 113
3 144 56 37
3 144 37 56
3 145 53 68
3 145 68 53
