 COFF
         187        1948         187
  
  -6.6906361658774003        1.3606900728129721        6.8249446366165891       0.60000002384185791       0.60000002384185791       0.60000002384185791       0.80000001192092896     
  -6.6906424927222181       -1.3606852850503801        6.8249460796246266       0.60000002384185791       0.60000002384185791       0.60000002384185791       0.80000001192092896     
  -3.6174559165223073E-002  -2.4797626816001190        6.4893606511965931       0.60000002384185791       0.60000002384185791       0.60000002384185791       0.80000001192092896     
   7.6311854481707391       -1.5076525984071054        6.8120512042602428       0.60000002384185791       0.60000002384185791       0.60000002384185791       0.80000001192092896     
   7.6311882845719676        1.5076521753643803        6.8120507032630861       0.60000002384185791       0.60000002384185791       0.60000002384185791       0.80000001192092896     
  -3.6174581209518233E-002   2.4797627342188742        6.4893605928197440       0.60000002384185791       0.60000002384185791       0.60000002384185791       0.80000001192092896     
   1.1968663796377828       -2.1342663827612305        6.6478043919449217       0.60000002384185791       0.60000002384185791       0.60000002384185791       0.80000001192092896     
   1.1968666143883073        2.1342666551112139        6.6478040834956857       0.60000002384185791       0.60000002384185791       0.60000002384185791       0.80000001192092896     
  -1.2174522600651634        2.1236114351038480        6.6117624458473490       0.60000002384185791       0.60000002384185791       0.60000002384185791       0.80000001192092896     
  -1.2174522610042955       -2.1236114733013118        6.6117624082938242       0.60000002384185791       0.60000002384185791       0.60000002384185791       0.80000001192092896     
   2.0682199750413606       -1.7662533645783327        6.9736342805494340       0.60000002384185791       0.60000002384185791       0.60000002384185791       0.80000001192092896     
   2.0682199157631489        1.7662532873128407        6.9736343746147913       0.60000002384185791       0.60000002384185791       0.60000002384185791       0.80000001192092896     
  -2.0913283986445230        1.7754604264664755        6.9516896215096535       0.60000002384185791       0.60000002384185791       0.60000002384185791       0.80000001192092896     
  -2.0913283810942231       -1.7754604416371074        6.9516896091415967       0.60000002384185791       0.60000002384185791       0.60000002384185791       0.80000001192092896     
   3.0181115628708137       -1.9384106879732470        6.7104673040195220       0.60000002384185791       0.60000002384185791       0.60000002384185791       0.80000001192092896     
   3.0181393228938767        1.9384146795705326        6.7104916023045300       0.60000002384185791       0.60000002384185791       0.60000002384185791       0.80000001192092896     
  -3.0159024242721602        1.9384540266885566        6.6082725029003466       0.60000002384185791       0.60000002384185791       0.60000002384185791       0.80000001192092896     
  -3.0159024184520566       -1.9384539854233551        6.6082724954647238       0.60000002384185791       0.60000002384185791       0.60000002384185791       0.80000001192092896     
   4.0808228256562149       -1.8104058452473821        6.9462021445464881       0.60000002384185791       0.60000002384185791       0.60000002384185791       0.80000001192092896     
   4.0808234783909647        1.8104065490869004        6.9462013502206919       0.60000002384185791       0.60000002384185791       0.60000002384185791       0.80000001192092896     
  -4.0591076535673309        1.7890968253612971        6.9151262583040154       0.60000002384185791       0.60000002384185791       0.60000002384185791       0.80000001192092896     
  -4.0591076715080519       -1.7890967318152275        6.9151263363474049       0.60000002384185791       0.60000002384185791       0.60000002384185791       0.80000001192092896     
   5.0659963701954016       -1.6633954127998190        6.9290427236866439       0.60000002384185791       0.60000002384185791       0.60000002384185791       0.80000001192092896     
   5.0659969405979135        1.6633955233415705        6.9290425259669979       0.60000002384185791       0.60000002384185791       0.60000002384185791       0.80000001192092896     
  -5.0806016278808874        1.5671306630578199        6.9310328519595963       0.60000002384185791       0.60000002384185791       0.60000002384185791       0.80000001192092896     
  -5.0806017306638278       -1.5671303213168519        6.9310331797603686       0.60000002384185791       0.60000002384185791       0.60000002384185791       0.80000001192092896     
   6.0765346903784598       -1.6889446866880768        6.8065461147353092       0.60000002384185791       0.60000002384185791       0.60000002384185791       0.80000001192092896     
   6.0765291675942930        1.6889438998831794        6.8065407641966207       0.60000002384185791       0.60000002384185791       0.60000002384185791       0.80000001192092896     
  -8.0512567684913101       -2.8947305610905386E-005   6.8051666588880995       0.60000002384185791       0.60000002384185791       0.60000002384185791       0.80000001192092896     
   10.123638726826071       -2.3263669282765128E-005   6.7674001218653013       0.60000002384185791       0.60000002384185791       0.60000002384185791       0.80000001192092896     
   9.3042241317013321      -0.81721183217445303        6.8607280372801842       0.60000002384185791       0.60000002384185791       0.60000002384185791       0.80000001192092896     
   9.3039212601330856       0.81720845101734407        6.8607015766633355       0.60000002384185791       0.60000002384185791       0.60000002384185791       0.80000001192092896     
  0.93167848843536893        1.9254993151811466        4.6909492865371529        1.0000000000000000        1.0000000000000000        0.0000000000000000        1.0000000000000000     
  -2.0409473289135929        1.8558488513974303        5.6436013291450058       0.60000002384185791       0.60000002384185791       0.60000002384185791       0.80000001192092896     
  -2.0409439314297440       -1.8558493473836077        5.6436050996944003       0.60000002384185791       0.60000002384185791       0.60000002384185791       0.80000001192092896     
 -0.29014041511724581       -2.0912176937367679        4.8757114434518813       0.60000002384185791       0.60000002384185791       0.60000002384185791       0.80000001192092896     
 -0.29013880962608940        2.0912178372447174        4.8757129988889796       0.60000002384185791       0.60000002384185791       0.60000002384185791       0.80000001192092896     
   2.0661687708125500        1.8055825942651542        5.6652245214380645       0.60000002384185791       0.60000002384185791       0.60000002384185791       0.80000001192092896     
   3.5108219643305785      -0.61990640529333929        2.3410133446645589        1.0000000000000000        1.0000000000000000        0.0000000000000000        1.0000000000000000     
   5.5635435993786029       -1.5828493714865617        5.7976309118407015       0.60000002384185791       0.60000002384185791       0.60000002384185791       0.80000001192092896     
   5.5635889393146698        1.5828383200062419        5.7976742832731176       0.60000002384185791       0.60000002384185791       0.60000002384185791       0.80000001192092896     
 -0.89710447822911521       -1.8848532356340013        4.1608327727694006       0.60000002384185791       0.60000002384185791       0.60000002384185791       0.80000001192092896     
 -0.89710057342191607        1.8848563202853066        4.1608334128103763       0.60000002384185791       0.60000002384185791       0.60000002384185791       0.80000001192092896     
   3.5108247926415834       0.61990323545986570        2.3410133446645589        1.0000000000000000        1.0000000000000000        0.0000000000000000        1.0000000000000000     
  -3.5526289572998033       0.66050568263181642        2.5284741087501219        1.0000000000000000        1.0000000000000000        0.0000000000000000        1.0000000000000000     
  -5.2743936390258552        1.4390012314297096        5.9196725802918397       0.60000002384185791       0.60000002384185791       0.60000002384185791       0.80000001192092896     
  -5.2743950218994113       -1.4389989207914935        5.9196719612586142       0.60000002384185791       0.60000002384185791       0.60000002384185791       0.80000001192092896     
  -3.5526314203755995      -0.66050594913925997        2.5284741087501215        1.0000000000000000        1.0000000000000000        0.0000000000000000        1.0000000000000000     
   9.0232920602365860E-002   6.9156761713589948E-007   1.0306063639638421        1.0000000000000000        1.0000000000000000        0.0000000000000000        1.0000000000000000     
   4.5787014819553509       -1.7357968835739996        6.1255181133478604       0.60000002384185791       0.60000002384185791       0.60000002384185791       0.80000001192092896     
   4.5786096146258659        1.7361363770350551        6.1255197355051285       0.60000002384185791       0.60000002384185791       0.60000002384185791       0.80000001192092896     
  -1.3804158130443314       0.94237493600372013        2.8875013687831177       0.60000002384185791       0.60000002384185791       0.60000002384185791       0.80000001192092896     
  -1.3804157998853079      -0.94237544957022723        2.8875064314868339       0.60000002384185791       0.60000002384185791       0.60000002384185791       0.80000001192092896     
   1.7901841339353457       -1.5593262127062912E-005   4.3624282988477887       0.60000002384185791       0.60000002384185791       0.60000002384185791       0.80000001192092896     
  0.80337551198965529       -1.8815072216776565        3.9706877835462411       0.60000002384185791       0.60000002384185791       0.60000002384185791       0.80000001192092896     
  0.80339637424556309        1.8815077127768498        3.9707032600095862       0.60000002384185791       0.60000002384185791       0.60000002384185791       0.80000001192092896     
   2.0535616331472344       -5.0437702430308342E-006   4.9912226092072638       0.60000002384185791       0.60000002384185791       0.60000002384185791       0.80000001192092896     
   7.2264912125739080      -0.75956876064162604        4.5954174293392773        1.0000000000000000        1.0000000000000000        0.0000000000000000        1.0000000000000000     
   7.2264916607015266       0.75956854435390764        4.5954174293400127        1.0000000000000000        1.0000000000000000        0.0000000000000000        1.0000000000000000     
  -2.2388738092432825        1.4419248898111120E-005   4.5613924164592579       0.60000002384185791       0.60000002384185791       0.60000002384185791       0.80000001192092896     
   1.1615740590182395        1.4556196024252748        3.7583096024546423       0.60000002384185791       0.60000002384185791       0.60000002384185791       0.80000001192092896     
   1.1615569109518988       -1.4556160029669605        3.7583056477973167       0.60000002384185791       0.60000002384185791       0.60000002384185791       0.80000001192092896     
 -0.14338914495443958       -1.9357134212372711        3.8668024657894686       0.60000002384185791       0.60000002384185791       0.60000002384185791       0.80000001192092896     
 -0.14339587171897625        1.9357158319617938        3.8668065137887853       0.60000002384185791       0.60000002384185791       0.60000002384185791       0.80000001192092896     
   2.0661715032330830       -1.8055818988054999        5.6652108644147834       0.60000002384185791       0.60000002384185791       0.60000002384185791       0.80000001192092896     
   1.3863554989959677        1.6986412974294158        4.6909218298326696       0.60000002384185791       0.60000002384185791       0.60000002384185791       0.80000001192092896     
  -4.5700565781690798        1.6734199402435761        5.9700758425058558       0.60000002384185791       0.60000002384185791       0.60000002384185791       0.80000001192092896     
  -4.5700567163203925       -1.6734195286763978        5.9700774059354655       0.60000002384185791       0.60000002384185791       0.60000002384185791       0.80000001192092896     
   1.3863306878382828       -1.6986394856003584        4.6909092436541799       0.60000002384185791       0.60000002384185791       0.60000002384185791       0.80000001192092896     
  -1.0881730745988636        1.9232734895393495        4.8432320824087451        1.0000000000000000        1.0000000000000000        0.0000000000000000        1.0000000000000000     
   1.4027982606605771       -9.8274363367735679E-006   3.3983149278248903       0.60000002384185791       0.60000002384185791       0.60000002384185791       0.80000001192092896     
   4.0680283377640389       -1.8030231672189363        5.5533978647637179       0.60000002384185791       0.60000002384185791       0.60000002384185791       0.80000001192092896     
   4.0680412624224909        1.8030198555313166        5.5533974433546813       0.60000002384185791       0.60000002384185791       0.60000002384185791       0.80000001192092896     
   5.3385580029586199       -1.0761870654862855        4.5064698874416260       0.60000002384185791       0.60000002384185791       0.60000002384185791       0.80000001192092896     
   5.3385573353071196        1.0761845415783922        4.5064679869279249       0.60000002384185791       0.60000002384185791       0.60000002384185791       0.80000001192092896     
 -0.66424825308872026       -1.7350682137659745        3.4847518563782489       0.60000002384185791       0.60000002384185791       0.60000002384185791       0.80000001192092896     
 -0.66425219157213089        1.7350684106804992        3.4847504913453493       0.60000002384185791       0.60000002384185791       0.60000002384185791       0.80000001192092896     
   3.0741645467996999       -1.8364558008765048        5.2154634279073742       0.60000002384185791       0.60000002384185791       0.60000002384185791       0.80000001192092896     
   3.0741991115211542        1.8364594160501173        5.2154862997347742       0.60000002384185791       0.60000002384185791       0.60000002384185791       0.80000001192092896     
  -3.9434414598933221        1.7374650162842891        5.6036971955598016       0.60000002384185791       0.60000002384185791       0.60000002384185791       0.80000001192092896     
  -3.9434419847961659       -1.7374645931340420        5.6036980469877911       0.60000002384185791       0.60000002384185791       0.60000002384185791       0.80000001192092896     
   4.6542265786617953       -1.7191159030438963        4.8093124248299635       0.60000002384185791       0.60000002384185791       0.60000002384185791       0.80000001192092896     
   4.6541173950126877        1.7191406961538525        4.8092495348591093       0.60000002384185791       0.60000002384185791       0.60000002384185791       0.80000001192092896     
  -3.0219812556614114        1.8322639260209428        5.1695474033448576       0.60000002384185791       0.60000002384185791       0.60000002384185791       0.80000001192092896     
  -3.0219787618795229       -1.8322587313202081        5.1695440425055503       0.60000002384185791       0.60000002384185791       0.60000002384185791       0.80000001192092896     
  -5.9355607604399205        2.6041756628102497E-006   5.3520335298133137       0.60000002384185791       0.60000002384185791       0.60000002384185791       0.80000001192092896     
  -5.3691406708372105       0.76600549678838781        4.4244295490120198       0.60000002384185791       0.60000002384185791       0.60000002384185791       0.80000001192092896     
  -5.3691439413492379      -0.76597777307330983        4.4244224278751476       0.60000002384185791       0.60000002384185791       0.60000002384185791       0.80000001192092896     
  -5.0799361470407485        1.1607246629342498        4.9030516769512698       0.60000002384185791       0.60000002384185791       0.60000002384185791       0.80000001192092896     
  -5.0799585487687642       -1.1607142769390266        4.9030931169180629       0.60000002384185791       0.60000002384185791       0.60000002384185791       0.80000001192092896     
  0.67521545345952017        1.7403523480329901        3.1595454401808833       0.60000002384185791       0.60000002384185791       0.60000002384185791       0.80000001192092896     
  0.67546307969148445       -1.7406069637994033        3.1595468839579413       0.60000002384185791       0.60000002384185791       0.60000002384185791       0.80000001192092896     
   2.5737966878754741        1.3629220155853581        4.6053205784052613       0.60000002384185791       0.60000002384185791       0.60000002384185791       0.80000001192092896     
   2.5737954726829644       -1.3629478067817007        4.6053387457764892       0.60000002384185791       0.60000002384185791       0.60000002384185791       0.80000001192092896     
   6.0467330472787406        2.6587136068968890E-007   4.5425564366870415       0.60000002384185791       0.60000002384185791       0.60000002384185791       0.80000001192092896     
  -4.3962723809584698        1.5587287752957513        4.8394610996959484       0.60000002384185791       0.60000002384185791       0.60000002384185791       0.80000001192092896     
  -4.3962722915791224       -1.5587283314681279        4.8394663847447594       0.60000002384185791       0.60000002384185791       0.60000002384185791       0.80000001192092896     
   3.0772988104934843E-002   1.7932468451409169        2.8076973589064420        1.0000000000000000       0.10000000149011612        0.0000000000000000       0.50000000000000000     
   3.0757727856730224E-002  -1.7934516303512613        2.8077348888650628        1.0000000000000000       0.10000000149011612        0.0000000000000000       0.50000000000000000     
   1.0197634409448331        1.2055863717092772        2.8423934346109831        1.0000000000000000       0.10000000149011612        0.0000000000000000       0.50000000000000000     
   1.0197533961287188       -1.2055784056146286        2.8423932131473313        1.0000000000000000       0.10000000149011612        0.0000000000000000       0.50000000000000000     
  -2.5432649625579202        1.6109225366012583        4.6942112558109139       0.60000002384185791       0.60000002384185791       0.60000002384185791       0.80000001192092896     
  -2.5432848630286546       -1.6109341952247720        4.6942110930930037       0.60000002384185791       0.60000002384185791       0.60000002384185791       0.80000001192092896     
 -0.55472752732942021       -1.5420360974367460        2.4458120466385340        1.0000000000000000       0.10000000149011612        0.0000000000000000       0.50000000000000000     
 -0.55471868703717009        1.5420461045030511        2.4458249669172307        1.0000000000000000       0.10000000149011612        0.0000000000000000       0.50000000000000000     
   2.5308528902964054      -0.69209199035215518        3.3807358281496418       0.60000002384185791       0.60000002384185791       0.60000002384185791       0.80000001192092896     
   2.5308623601523568       0.69205464955304019        3.3807276859430795       0.60000002384185791       0.60000002384185791       0.60000002384185791       0.80000001192092896     
   4.0434937307296792       -1.7490502146240168        4.3606799645460281       0.60000002384185791       0.60000002384185791       0.60000002384185791       0.80000001192092896     
   4.0434901630855276        1.7490401507816360        4.3606945496700380       0.60000002384185791       0.60000002384185791       0.60000002384185791       0.80000001192092896     
  -1.0881731854312062       -1.9232757792571726        4.8432319704041973        1.0000000000000000        1.0000000000000000        0.0000000000000000        1.0000000000000000     
  -3.8665396013755844        1.6900524436069877        4.4785576608005657       0.60000002384185791       0.60000002384185791       0.60000002384185791       0.80000001192092896     
  -3.8665488640200221       -1.6900500631541533        4.4785614825459152       0.60000002384185791       0.60000002384185791       0.60000002384185791       0.80000001192092896     
   4.9208465779801482      -0.95922187492982991        3.3471808581189535       0.60000002384185791       0.60000002384185791       0.60000002384185791       0.80000001192092896     
   4.9208533199638218       0.95920846124008052        3.3471470846946745       0.60000002384185791       0.60000002384185791       0.60000002384185791       0.80000001192092896     
  -6.7181727928861532        4.9831498594575768E-006   5.0071826586955126        1.0000000000000000        1.0000000000000000        0.0000000000000000        1.0000000000000000     
   3.2539860065570858       -1.6367534712976559        4.1671483049387819       0.60000002384185791       0.60000002384185791       0.60000002384185791       0.80000001192092896     
   3.2538860025963690        1.6367150228840872        4.1671515161607848       0.60000002384185791       0.60000002384185791       0.60000002384185791       0.80000001192092896     
  -2.6116647854494444       0.62235426111071968        3.4305153476396057       0.60000002384185791       0.60000002384185791       0.60000002384185791       0.80000001192092896     
  -2.6116703449693213      -0.62233153598240032        3.4305160535937773       0.60000002384185791       0.60000002384185791       0.60000002384185791       0.80000001192092896     
  -1.8146348148475824       0.90749802454711159        4.2586634897864917       0.60000002384185791       0.60000002384185791       0.60000002384185791       0.80000001192092896     
   4.5754905380080819       -1.5207834672880585        3.6526536161364529       0.60000002384185791       0.60000002384185791       0.60000002384185791       0.80000001192092896     
   4.5754986551974177        1.5207789351488061        3.6526506186872609       0.60000002384185791       0.60000002384185791       0.60000002384185791       0.80000001192092896     
  -1.4583524986277521      -0.48993952673683278        2.0400000334905712        1.0000000000000000       0.10000000149011612        0.0000000000000000       0.50000000000000000     
  -1.4583530232080251       0.48993847365762966        2.0400006807141109        1.0000000000000000       0.10000000149011612        0.0000000000000000       0.50000000000000000     
  0.60918627682279114        1.5474576407062908        2.2151955313879181        1.0000000000000000       0.10000000149011612        0.0000000000000000       0.50000000000000000     
  0.60917841928580552       -1.5474526459477520        2.2151966846602407        1.0000000000000000       0.10000000149011612        0.0000000000000000       0.50000000000000000     
   1.1755926689716116       -7.5691668824729055E-006   2.5062710523631098        1.0000000000000000       0.10000000149011612        0.0000000000000000       0.50000000000000000     
   8.4051915474698760      -0.57160763768317491        5.4987133957370480       0.60000002384185791       0.60000002384185791       0.60000002384185791       0.80000001192092896     
   8.4051793355715851       0.57157700437804715        5.4987242310357765       0.60000002384185791       0.60000002384185791       0.60000002384185791       0.80000001192092896     
  -3.1801927530615943        1.7021532378588458        4.1182282440032383       0.60000002384185791       0.60000002384185791       0.60000002384185791       0.80000001192092896     
  -3.1801932981529588       -1.7020892977318511        4.1181975299717850       0.60000002384185791       0.60000002384185791       0.60000002384185791       0.80000001192092896     
  -4.7570687869645756        1.2817831951910963        3.9121827577452168       0.60000002384185791       0.60000002384185791       0.60000002384185791       0.80000001192092896     
  -4.7570750031444904       -1.2817723328994728        3.9121867887027384       0.60000002384185791       0.60000002384185791       0.60000002384185791       0.80000001192092896     
   2.7988004632368044       -1.2756981644319241        3.9491720163450377       0.60000002384185791       0.60000002384185791       0.60000002384185791       0.80000001192092896     
   2.7986317060845978        1.2757197545700849        3.9491756259660535       0.60000002384185791       0.60000002384185791       0.60000002384185791       0.80000001192092896     
  0.10045928154048743        1.6044853320489125        1.8652305664070616        1.0000000000000000       0.10000000149011612        0.0000000000000000       0.50000000000000000     
  0.10045661956110657       -1.6044812063029370        1.8652245923597370        1.0000000000000000       0.10000000149011612        0.0000000000000000       0.50000000000000000     
  -5.2893843553488002       0.75611943095822454        3.2687616660419940       0.60000002384185791       0.60000002384185791       0.60000002384185791       0.80000001192092896     
  -5.2893826003034556      -0.75610111838237426        3.2687594036361634       0.60000002384185791       0.60000002384185791       0.60000002384185791       0.80000001192092896     
  -4.3438867898340954        1.4743416523726636        3.7142963919171468       0.60000002384185791       0.60000002384185791       0.60000002384185791       0.80000001192092896     
  -4.3438814214614245       -1.4743460658900975        3.7142963430396332       0.60000002384185791       0.60000002384185791       0.60000002384185791       0.80000001192092896     
  -2.8216717477650173        1.3830957910709760        3.8587058927137807       0.60000002384185791       0.60000002384185791       0.60000002384185791       0.80000001192092896     
  -2.8216841802419710       -1.3831334096007610        3.8587184421638279       0.60000002384185791       0.60000002384185791       0.60000002384185791       0.80000001192092896     
   5.1903595711139152       -6.3985464426751593E-006   3.4153839113133366       0.60000002384185791       0.60000002384185791       0.60000002384185791       0.80000001192092896     
   2.0477340900723484       0.88976981119048981        5.0696536101252185       0.60000002384185791       0.60000002384185791       0.60000002384185791       0.80000001192092896     
   2.0477249921295098      -0.88975438153531383        5.0696107207967041       0.60000002384185791       0.60000002384185791       0.60000002384185791       0.80000001192092896     
   6.7651897284408689       -1.5087593383008164        5.8680080984473495       0.60000002384185791       0.60000002384185791       0.60000002384185791       0.80000001192092896     
   6.7651840585983942        1.5087603995845773        5.8680084213342800       0.60000002384185791       0.60000002384185791       0.60000002384185791       0.80000001192092896     
  0.93104895470673477       0.88831683359085922        2.0238993565613765        1.0000000000000000       0.10000000149011612        0.0000000000000000       0.50000000000000000     
  0.93104547940231208      -0.88830911851480898        2.0239002381467284        1.0000000000000000       0.10000000149011612        0.0000000000000000       0.50000000000000000     
   5.4899831376283137       -4.9349857290495401E-008   4.1854596736602723       0.60000002384185791       0.60000002384185791       0.60000002384185791       0.80000001192092896     
  -1.6767134045255023       -1.3897478429755065E-007   2.9261540050467167       0.60000002384185791       0.60000002384185791       0.60000002384185791       0.80000001192092896     
   3.8885936266705623       -1.5127110353334330        3.3749962271458176       0.60000002384185791       0.60000002384185791       0.60000002384185791       0.80000001192092896     
   3.8885942319827107        1.5127052340791804        3.3749938952233292       0.60000002384185791       0.60000002384185791       0.60000002384185791       0.80000001192092896     
   7.4568837130254320       -1.2998446031664126        5.8678464775802999       0.60000002384185791       0.60000002384185791       0.60000002384185791       0.80000001192092896     
   7.4568863369091520        1.2998401437798754        5.8678458729782559       0.60000002384185791       0.60000002384185791       0.60000002384185791       0.80000001192092896     
 -0.58793811773993054       -1.0810570738567098        1.7591186472429061        1.0000000000000000       0.10000000149011612        0.0000000000000000       0.50000000000000000     
 -0.58793231279724534        1.0810588476550349        1.7591243705301463        1.0000000000000000       0.10000000149011612        0.0000000000000000       0.50000000000000000     
   8.4630357626655801      -0.78727791680196602        6.2440657523412604       0.60000002384185791       0.60000002384185791       0.60000002384185791       0.80000001192092896     
   8.4630329393172286       0.78724770860700044        6.2440815769705456       0.60000002384185791       0.60000002384185791       0.60000002384185791       0.80000001192092896     
  -6.5979494312448894       0.87801694026850463        5.9134198192676513       0.60000002384185791       0.60000002384185791       0.60000002384185791       0.80000001192092896     
  -6.5979539733218857      -0.87800933033619777        5.9134200651963278       0.60000002384185791       0.60000002384185791       0.60000002384185791       0.80000001192092896     
  -2.0061420447974183        1.1464584442835788        5.0204463540061095       0.60000002384185791       0.60000002384185791       0.60000002384185791       0.80000001192092896     
  -2.0061347155901461       -1.1464500366267010        5.0204484323943035       0.60000002384185791       0.60000002384185791       0.60000002384185791       0.80000001192092896     
  -1.8146434383309560      -0.90750036288666802        4.2586727613486639       0.60000002384185791       0.60000002384185791       0.60000002384185791       0.80000001192092896     
  0.93165424328204038       -1.9254998776541354        4.6909342435696129        1.0000000000000000        1.0000000000000000        0.0000000000000000        1.0000000000000000     
   6.2331516597742951       -1.4054368803712898        5.2546526111418723       0.60000002384185791       0.60000002384185791       0.60000002384185791       0.80000001192092896     
   6.2331476540377873        1.4054344394242115        5.2546478517143091       0.60000002384185791       0.60000002384185791       0.60000002384185791       0.80000001192092896     
  -6.9033746386696269       0.83033511548060945        6.0146409051578047       0.60000002384185791       0.60000002384185791       0.60000002384185791       0.80000001192092896     
  -6.9033777107267431      -0.83033044760606001        6.0146450470546107       0.60000002384185791       0.60000002384185791       0.60000002384185791       0.80000001192092896     
  -3.7803608509060140        1.4449149405303314        3.4445160530578538       0.60000002384185791       0.60000002384185791       0.60000002384185791       0.80000001192092896     
  -3.7803494191952298       -1.4449036488735920        3.4445041410974997       0.60000002384185791       0.60000002384185791       0.60000002384185791       0.80000001192092896     
  -7.3120366499121934        6.5091693137406308E-005   5.9115307303339204       0.60000002384185791       0.60000002384185791       0.60000002384185791       0.80000001192092896     
   5.7745635782558571      -0.95772376677119808        5.0418259730915027       0.60000002384185791       0.60000002384185791       0.60000002384185791       0.80000001192092896     
   5.7745612025438966       0.95772135329476848        5.0418219059400826       0.60000002384185791       0.60000002384185791       0.60000002384185791       0.80000001192092896     
   3.3969204721875492       -1.2766133660005277        3.2475940431922452       0.60000002384185791       0.60000002384185791       0.60000002384185791       0.80000001192092896     
   3.3969598339298943        1.2766549776633158        3.2476024158208840       0.60000002384185791       0.60000002384185791       0.60000002384185791       0.80000001192092896     
  0.48687147136260456       -2.2448631275470179        5.6337503027005598       0.60000002384185791       0.60000002384185791       0.60000002384185791       0.80000001192092896     
  0.48687874348742144        2.2448648197562839        5.6337576648108563       0.60000002384185791       0.60000002384185791       0.60000002384185791       0.80000001192092896     
   9.2757200543242639      -0.25590695142762260        6.0670161428303260       0.60000002384185791       0.60000002384185791       0.60000002384185791       0.80000001192092896     
   9.2757096384929785       0.25567882635025713        6.0670177418876134       0.60000002384185791       0.60000002384185791       0.60000002384185791       0.80000001192092896     
   4.4196378467529707      -0.30529753253700043        2.8435837588190553        1.0000000000000000       0.10000000149011612        0.0000000000000000       0.50000000000000000     
   4.4196370047638718       0.30528624318401598        2.8435837588190602        1.0000000000000000       0.10000000149011612        0.0000000000000000       0.50000000000000000     
 -0.57027412435080849       -2.2125307091152071        5.6740854337431346       0.60000002384185791       0.60000002384185791       0.60000002384185791       0.80000001192092896     
 -0.57027376457314516        2.2125298642898201        5.6740853898488508       0.60000002384185791       0.60000002384185791       0.60000002384185791       0.80000001192092896     
  0.37666897759671858       0.80062202032661589        1.6128165755536203        1.0000000000000000       0.10000000149011612        0.0000000000000000       0.50000000000000000     
  0.37666542231097022      -0.80061948369175229        1.6128170374224999        1.0000000000000000       0.10000000149011612        0.0000000000000000       0.50000000000000000     
  
   3   0  24  45
   3   0  45  24
   3   0  45 160
   3   0 160  45
   3   0 160 168
   3   0 168 160
   3   0 168  28
   3   0  28 168
   3   1  28 169
   3   1 169  28
   3   1 169 161
   3   1 161  46
   3   1 161 169
   3   1  46 161
   3   1  46  25
   3   1  25  46
   3   2  35 177
   3   2  35 183
   3   2 177  35
   3   2 177   6
   3   2   6 177
   4   2   6 165  35
   3   2   9 183
   4   2   9 109  35
   3   2 183   9
   3   2 183  35
   3   3  30 158
   3   3  26 146
   3   3 146 154
   3   3 146  26
   3   3 154 146
   3   3 154 158
   3   3 158 154
   3   3 158  30
   3   4  31 159
   3   4 159 155
   3   4 159  31
   3   4 155 159
   3   4 155 147
   3   4 147 155
   3   4 147  27
   3   4  27 147
   3   5   7 178
   4   5   7  32  36
   3   5 178   7
   3   5 178  36
   3   5  36 184
   3   5  36 178
   3   5 184  36
   3   5 184   8
   3   5   8 184
   4   5   8  69  36
   3   6   2 177
   4   6   2  35 165
   3   6 177 165
   3   6 177   2
   3   6 165 177
   3   6 165  64
   3   6  64  10
   3   6  64 165
   3   6  10  64
   3   7  11  37
   3   7  37  32
   3   7  37  11
   3   7  32  37
   3   7  32 178
   3   7 178  32
   3   7 178   5
   3   7   5 178
   4   7   5  36  32
   3   8   5 184
   4   8   5  36  69
   3   8 184  69
   3   8 184   5
   3   8  69 184
   3   8  69  33
   3   8  33  12
   3   8  33  69
   3   8  12  33
   3   9  13  34
   3   9  34 109
   3   9  34  13
   3   9 109  34
   3   9 109 183
   3   9 183 109
   3   9 183   2
   3   9   2 183
   4   9   2  35 109
   3  10   6  64
   3  10  64  14
   3  10  64   6
   3  10  14  64
   3  11  15  37
   3  11  37   7
   3  11  37  15
   3  11   7  37
   3  12   8  33
   3  12  33  16
   3  12  33   8
   3  12  16  33
   3  13  17  34
   3  13  34   9
   3  13  34  17
   3  13   9  34
   3  14  10  64
   3  14  64  77
   3  14  64  10
   3  14  77  64
   3  14  77  71
   3  14  71  77
   3  14  71  18
   3  14  18  71
   3  15  19  72
   3  15  72  78
   3  15  72  19
   3  15  78  72
   3  15  78  37
   3  15  37  11
   3  15  37  78
   3  15  11  37
   3  16  12  33
   3  16  33  83
   3  16  33  12
   3  16  83  33
   3  16  83  79
   3  16  79  83
   3  16  79  20
   3  16  20  79
   3  17  21  80
   3  17  80  84
   3  17  80  21
   3  17  84  80
   3  17  84  34
   3  17  34  13
   3  17  34  84
   3  17  13  34
   3  18  14  71
   3  18  71  14
   3  18  71  49
   3  18  49  71
   3  18  49  22
   3  18  22  49
   3  19  23  50
   3  19  50  72
   3  19  50  23
   3  19  72  50
   3  19  72  15
   3  19  15  72
   3  20  16  79
   3  20  79  16
   3  20  79  66
   3  20  66  79
   3  20  66  24
   3  20  24  66
   3  21  25  67
   3  21  67  80
   3  21  67  25
   3  21  80  67
   3  21  80  17
   3  21  17  80
   3  22  18  49
   3  22  49  18
   3  22  49  39
   3  22  39  26
   3  22  39  49
   3  22  26  39
   3  23  27  40
   3  23  40  50
   3  23  40  27
   3  23  50  40
   3  23  50  19
   3  23  19  50
   3  24  20  66
   3  24  66  20
   3  24  66  45
   3  24  45   0
   3  24  45  66
   3  24   0  45
   3  25   1  46
   3  25  46   1
   3  25  46  67
   3  25  67  46
   3  25  67  21
   3  25  21  67
   3  26  22  39
   3  26  39 146
   3  26  39  22
   3  26 146  39
   3  26 146   3
   3  26   3 146
   3  27   4 147
   3  27 147   4
   3  27 147  40
   3  27  40  23
   3  27  40 147
   3  27  23  40
   3  28   0 168
   3  28 168 172
   3  28 168   0
   3  28 172 168
   3  28 172 169
   3  28 169 172
   3  28 169   1
   3  28   1 169
   3  29  30 158
   3  29 158  30
   4  29 158 127 179
   3  29 179 180
   4  29 179 127 158
   3  29 180 179
   4  29 180 128 159
   3  29 159  31
   4  29 159 128 180
   3  29  31 159
   3  30   3 158
   3  30 158   3
   3  30 158  29
   3  30  29 158
   3  31  29 159
   3  31 159   4
   3  31 159  29
   3  31   4 159
   3  32  37  65
   3  32  37   7
   3  32  65  37
   3  32  65  55
   3  32  55  65
   3  32  55  36
   3  32  36  55
   3  32  36 178
   3  32 178   7
   3  32 178  36
   3  32   7  37
   3  32   7 178
   3  33 101  83
   3  33 101 162
   3  33  83 101
   3  33  83  16
   3  33  16  12
   3  33  16  83
   3  33  12   8
   3  33  12  16
   3  33   8  69
   3  33   8  12
   3  33  69  42
   3  33  69   8
   3  33  42 119
   3  33  42  69
   3  33 119  42
   3  33 119 162
   3  33 162 119
   3  33 162 101
   3  34 102  84
   3  34 102 163
   3  34 163 102
   3  34 163 164
   3  34 164 163
   3  34 164  41
   3  34  41 109
   3  34  41 164
   3  34 109  41
   3  34 109   9
   3  34   9  13
   3  34   9 109
   3  34  13  17
   3  34  13   9
   3  34  17  84
   3  34  17  13
   3  34  84 102
   3  34  84  17
   3  35 109  41
   3  35 109 183
   3  35  41 109
   3  35  41  62
   3  35  62  41
   3  35  62  54
   3  35  54  62
   3  35  54 165
   3  35 165 177
   3  35 165  54
   3  35 177 165
   3  35 177   2
   3  35   2 177
   3  35   2 183
   3  35 183 109
   3  35 183   2
   3  36  32  55
   3  36  32 178
   3  36  55  63
   3  36  55  32
   3  36  63  55
   3  36  63  42
   3  36  42  69
   3  36  42  63
   3  36  69 184
   3  36  69  42
   3  36 184  69
   3  36 184   5
   3  36   5 178
   3  36   5 184
   3  36 178  32
   3  36 178   5
   3  37  92  78
   3  37  92  56
   3  37  56 144
   3  37  56  92
   3  37 144  56
   3  37 144  65
   3  37  65 144
   3  37  65  32
   3  37  32  65
   3  37  32   7
   3  37   7  11
   3  37   7  32
   3  37  11  15
   3  37  11   7
   3  37  15  78
   3  37  15  11
   3  37  78  92
   3  37  78  15
   3  38 112 120
   4  38 112 143 181
   3  38 120 112
   3  38 120 152
   3  38 152 120
   3  38 152 175
   3  38 175 152
   3  38 175 133
   3  38 133 105
   3  38 133 175
   3  38 105 133
   4  38 105 106  43
   3  39 166 146
   3  39 166 173
   3  39 146 166
   3  39 146  26
   3  39  26  22
   3  39  26 146
   3  39  22  49
   3  39  22  26
   3  39  49  81
   3  39  49  22
   3  39  81  73
   3  39  81  49
   3  39  73 173
   3  39  73  81
   3  39 173  73
   3  39 173 166
   3  40 167 147
   3  40 167 174
   3  40 174 167
   3  40 174  74
   3  40  74 174
   3  40  74  82
   3  40  82  50
   3  40  82  74
   3  40  50  82
   3  40  50  23
   3  40  23  27
   3  40  23  50
   3  40  27 147
   3  40  27  23
   3  40 147 167
   3  40 147  27
   3  41  35 109
   3  41  35  62
   3  41 109  34
   3  41 109  35
   3  41  34 164
   3  41  34 109
   3  41 164  34
   3  41 164  75
   3  41  75 164
   3  41  75  62
   3  41  62  75
   3  41  62  35
   3  42 119  33
   3  42 119  76
   3  42  33  69
   3  42  33 119
   3  42  69  36
   3  42  69  33
   3  42  36  63
   3  42  36  69
   3  42  63  76
   3  42  63  36
   3  42  76  63
   3  42  76 119
   3  43 113 121
   4  43 113 143 182
   3  43 106 134
   4  43 106 105  38
   3  43 134 106
   3  43 134 176
   3  43 176 134
   3  43 176 153
   3  43 153 121
   3  43 153 176
   3  43 121 113
   3  43 121 153
   3  44 131 139
   4  44 131  86 137
   3  44 139 131
   3  44 139 170
   3  44 170 139
   3  44 170 129
   3  44 129 141
   3  44 129 170
   3  44 141 129
   3  44 141 117
   3  44 117 141
   4  44 117 118  47
   3  45   0  24
   3  45   0 160
   3  45  24  66
   3  45  24   0
   3  45  66  88
   3  45  66  24
   3  45  88  85
   3  45  88  66
   3  45  85 160
   3  45  85  88
   3  45 160  85
   3  45 160   0
   3  46   1 161
   3  46   1  25
   3  46 161  85
   3  46 161   1
   3  46  85  89
   3  46  85 161
   3  46  89  85
   3  46  89  67
   3  46  67  89
   3  46  67  25
   3  46  25   1
   3  46  25  67
   3  47 132 140
   4  47 132  87 138
   3  47 118 142
   4  47 118 117  44
   3  47 142 118
   3  47 142 130
   3  47 130 171
   3  47 130 142
   3  47 171 130
   3  47 171 140
   3  47 140 132
   3  47 140 171
   3  48 135 185
   3  48 135 157
   3  48 185 135
   3  48 185 148
   3  48 148 126
   3  48 148 185
   3  48 126 149
   3  48 126 148
   3  48 149 126
   3  48 149 186
   3  48 186 149
   3  48 186 136
   3  48 136 156
   3  48 136 186
   3  48 156 136
   3  48 156 122
   3  48 122 156
   3  48 122 123
   3  48 123 122
   3  48 123 157
   3  48 157 123
   3  48 157 135
   3  49  18  71
   3  49  18  22
   3  49  71  81
   3  49  71  18
   3  49  81  39
   3  49  81  71
   3  49  39  22
   3  49  39  81
   3  49  22  18
   3  49  22  39
   3  50  40  82
   3  50  40  23
   3  50  82  72
   3  50  82  40
   3  50  72  82
   3  50  72  19
   3  50  19  23
   3  50  19  72
   3  50  23  40
   3  50  23  19
   3  51 119  76
   3  51 119 151
   3  51  76 104
   3  51  76 119
   3  51 104  76
   3  51 104 157
   3  51 157 123
   3  51 157 104
   3  51 123 151
   3  51 123 157
   3  51 151 123
   3  51 151 119
   3  52 164 151
   3  52 164  75
   3  52 151 122
   3  52 151 164
   3  52 122 156
   3  52 122 151
   3  52 156 103
   3  52 156 122
   3  52 103  75
   3  52 103 156
   3  52  75 164
   3  52  75 103
   3  53 144  56
   3  53 144  65
   3  53  56 144
   3  53  56 145
   3  53 145  56
   3  53 145  68
   3  53  68  61
   3  53  68 145
   3  53  61  70
   3  53  61  68
   3  53  70  60
   3  53  70  61
   3  53  60  70
   3  53  60  65
   3  53  65 144
   3  53  65  60
   3  54  35  62
   3  54  35 165
   3  54  62  91
   3  54  62  35
   3  54  91  61
   3  54  91  62
   3  54  61  91
   3  54  61  68
   3  54  68  61
   3  54  68 165
   3  54 165  35
   3  54 165  68
   3  55  65  60
   3  55  65  32
   3  55  60  90
   3  55  60  65
   3  55  90  63
   3  55  90  60
   3  55  63  90
   3  55  63  36
   3  55  36  32
   3  55  36  63
   3  55  32  65
   3  55  32  36
   3  56  53 144
   3  56  53 145
   3  56 144  53
   3  56 144  37
   3  56  37  92
   3  56  37 144
   3  56  92 134
   3  56  92  37
   3  56 134 106
   3  56 134  92
   3  56 106 105
   3  56 106 134
   3  56 105 133
   3  56 105 106
   3  56 133  93
   3  56 133 105
   3  56  93  64
   3  56  93 133
   3  56  64  93
   3  56  64 145
   3  56 145  64
   3  56 145  53
   3  57 154 146
   3  57 154 127
   3  57 146 166
   3  57 146 154
   3  57 166  94
   3  57 166 146
   3  57  94  58
   3  57  94 166
   3  57  58  94
   4  57  58 128 127
   3  57 127 154
   4  57 127 128  58
   3  58 155 128
   3  58 155 147
   3  58 128 155
   4  58 128 127  57
   3  58  57  94
   4  58  57 127 128
   3  58  94 167
   3  58  94  57
   3  58 167 147
   3  58 167  94
   3  58 147 155
   3  58 147 167
   3  59 119 164
   3  59 119 162
   3  59 164 163
   3  59 164 119
   3  59 163 102
   3  59 163 164
   3  59 102 142
   3  59 102 163
   3  59 142 118
   3  59 142 102
   3  59 118 117
   3  59 118 142
   3  59 117 141
   3  59 117 118
   3  59 141 101
   3  59 141 117
   3  59 101 141
   3  59 101 162
   3  59 162 119
   3  59 162 101
   3  60  53  70
   3  60  53  65
   3  60  70  53
   3  60  70  99
   3  60  99  90
   3  60  99  70
   3  60  90  55
   3  60  90  99
   3  60  55  65
   3  60  55  90
   3  60  65  53
   3  60  65  55
   3  61  54  91
   3  61  54  68
   3  61  91  54
   3  61  91 100
   3  61 100  70
   3  61 100  91
   3  61  70  53
   3  61  70 100
   3  61  53  68
   3  61  53  70
   3  61  68  53
   3  61  68  54
   3  62  41  35
   3  62  41  75
   3  62  75  98
   3  62  75  41
   3  62  98  91
   3  62  98  75
   3  62  91  54
   3  62  91  98
   3  62  54  35
   3  62  54  91
   3  62  35  41
   3  62  35  54
   3  63  55  90
   3  63  55  36
   3  63  90  55
   3  63  90  97
   3  63  97  76
   3  63  97  90
   3  63  76  97
   3  63  76  42
   3  63  42  36
   3  63  42  76
   3  63  36  55
   3  63  36  42
   3  64  93  77
   3  64  93  56
   3  64  77  93
   3  64  77  14
   3  64  14  10
   3  64  14  77
   3  64  10   6
   3  64  10  14
   3  64   6 165
   3  64   6  10
   3  64 165  68
   3  64 165   6
   3  64  68 145
   3  64  68 165
   3  64 145  56
   3  64 145  68
   3  64  56  93
   3  64  56 145
   3  65  37 144
   3  65  37  32
   3  65 144  53
   3  65 144  37
   3  65  53 144
   3  65  53  60
   3  65  60  53
   3  65  60  55
   3  65  55  60
   3  65  55  32
   3  65  32  37
   3  65  32  55
   3  66  20  79
   3  66  20  24
   3  66  79  95
   3  66  79  20
   3  66  95  88
   3  66  95  79
   3  66  88  45
   3  66  88  95
   3  66  45  24
   3  66  45  88
   3  66  24  20
   3  66  24  45
   3  67  46  89
   3  67  46  25
   3  67  89  96
   3  67  89  46
   3  67  96  80
   3  67  96  89
   3  67  80  96
   3  67  80  21
   3  67  21  25
   3  67  21  80
   3  67  25  46
   3  67  25  21
   3  68  61  54
   3  68  61  53
   3  68  53 145
   3  68  53  61
   3  68 145  64
   3  68 145  53
   3  68  64 165
   3  68  64 145
   3  68 165  54
   3  68 165  64
   3  68  54  61
   3  68  54 165
   3  69 184  36
   3  69 184   8
   3  69  36  42
   3  69  36 184
   3  69  42  33
   3  69  42  36
   3  69  33   8
   3  69  33  42
   3  69   8 184
   3  69   8  33
   3  70  60  53
   3  70  60  99
   3  70  53  61
   3  70  53  60
   3  70  61 100
   3  70  61  53
   3  70 100  61
   3  70 100 126
   3  70 126  99
   3  70 126 100
   3  70  99  60
   3  70  99 126
   3  71  14  77
   3  71  14  18
   3  71  77 107
   3  71  77  14
   3  71 107  81
   3  71 107  77
   3  71  81  49
   3  71  81 107
   3  71  49  18
   3  71  49  81
   3  71  18  14
   3  71  18  49
   3  72  50  82
   3  72  50  19
   3  72  82  50
   3  72  82 108
   3  72 108  78
   3  72 108  82
   3  72  78 108
   3  72  78  15
   3  72  15  19
   3  72  15  78
   3  72  19  50
   3  72  19  15
   3  73 112 143
   3  73 112 120
   3  73 143 150
   3  73 143 112
   3  73 150 143
   3  73 150  94
   3  73  94 150
   3  73  94 173
   3  73 173  94
   3  73 173  39
   3  73  39  81
   3  73  39 173
   3  73  81  39
   3  73  81 120
   3  73 120 112
   3  73 120  81
   3  74  40 174
   3  74  40  82
   3  74 174  94
   3  74 174  40
   3  74  94 150
   3  74  94 174
   3  74 150 143
   3  74 150  94
   3  74 143 113
   3  74 143 150
   3  74 113 121
   3  74 113 143
   3  74 121  82
   3  74 121 113
   3  74  82  40
   3  74  82 121
   3  75 164  52
   3  75 164  41
   3  75  52 164
   3  75  52 103
   3  75 103  98
   3  75 103  52
   3  75  98  62
   3  75  98 103
   3  75  62  41
   3  75  62  98
   3  75  41 164
   3  75  41  62
   3  76  63  97
   3  76  63  42
   3  76  97  63
   3  76  97 104
   3  76 104  51
   3  76 104  97
   3  76  51 119
   3  76  51 104
   3  76 119  42
   3  76 119  51
   3  76  42 119
   3  76  42  63
   3  77  64  93
   3  77  64  14
   3  77  93  64
   3  77  93 115
   3  77 115 107
   3  77 115  93
   3  77 107  71
   3  77 107 115
   3  77  71  14
   3  77  71 107
   3  77  14  64
   3  77  14  71
   3  78  72 108
   3  78  72  15
   3  78 108  72
   3  78 108 116
   3  78 116  92
   3  78 116 108
   3  78  92 116
   3  78  92  37
   3  78  37  92
   3  78  37  15
   3  78  15  72
   3  78  15  37
   3  79  16  83
   3  79  16  20
   3  79  83 110
   3  79  83  16
   3  79 110  95
   3  79 110  83
   3  79  95  66
   3  79  95 110
   3  79  66  20
   3  79  66  95
   3  79  20  16
   3  79  20  66
   3  80  67  96
   3  80  67  21
   3  80  96  67
   3  80  96 111
   3  80 111  84
   3  80 111  96
   3  80  84 111
   3  80  84  17
   3  80  17  21
   3  80  17  84
   3  80  21  67
   3  80  21  17
   3  81  73  39
   3  81  73 120
   3  81  39  49
   3  81  39  73
   3  81  49  71
   3  81  49  39
   3  81  71 107
   3  81  71  49
   3  81 107  71
   3  81 107 120
   3  81 120  73
   3  81 120 107
   3  82  72  50
   3  82  72 108
   3  82  50  40
   3  82  50  72
   3  82  40  74
   3  82  40  50
   3  82  74  40
   3  82  74 121
   3  82 121 108
   3  82 121  74
   3  82 108  72
   3  82 108 121
   3  83  33 101
   3  83  33  16
   3  83 101 129
   3  83 101  33
   3  83 129 110
   3  83 129 101
   3  83 110  79
   3  83 110 129
   3  83  79  16
   3  83  79 110
   3  83  16  33
   3  83  16  79
   3  84  80 111
   3  84  80  17
   3  84 111  80
   3  84 111 130
   3  84 130 102
   3  84 130 111
   3  84 102 130
   3  84 102  34
   3  84  34 102
   3  84  34  17
   3  84  17  80
   3  84  17  34
   3  85  86  87
   3  85  86  88
   3  85  87  89
   3  85  87  86
   3  85  89  87
   3  85  89  46
   3  85  46 161
   3  85  46  89
   3  85 161 114
   3  85 161  46
   3  85 114 160
   3  85 114 161
   3  85 160  45
   3  85 160 114
   3  85  45  88
   3  85  45 160
   3  85  88  86
   3  85  88  45
   3  86  87  85
   4  86  87 138 137
   3  86  85  87
   3  86  85  88
   3  86  88  85
   3  86  88 131
   3  86 131  88
   4  86 131  44 137
   3  87 132  89
   4  87 132  47 138
   3  87  89  85
   3  87  89 132
   3  87  85  86
   3  87  85  89
   3  87  86  85
   4  87  86 137 138
   3  88  86  85
   3  88  86 131
   3  88  85  86
   3  88  85  45
   3  88  45  66
   3  88  45  85
   3  88  66  95
   3  88  66  45
   3  88  95  66
   3  88  95 131
   3  88 131  86
   3  88 131  95
   3  89  85  87
   3  89  85  46
   3  89  87 132
   3  89  87  85
   3  89 132  96
   3  89 132  87
   3  89  96  67
   3  89  96 132
   3  89  67  46
   3  89  67  96
   3  89  46  85
   3  89  46  67
   3  90  63  55
   3  90  63  97
   3  90  55  60
   3  90  55  63
   3  90  60  99
   3  90  60  55
   3  90  99  60
   3  90  99 124
   3  90 124  97
   3  90 124  99
   3  90  97  63
   3  90  97 124
   3  91  61  54
   3  91  61 100
   3  91  54  62
   3  91  54  61
   3  91  62  98
   3  91  62  54
   3  91  98  62
   3  91  98 125
   3  91 125 100
   3  91 125  98
   3  91 100  61
   3  91 100 125
   3  92  78 116
   3  92  78  37
   3  92 116  78
   3  92 116 134
   3  92 134  56
   3  92 134 116
   3  92  56  37
   3  92  56 134
   3  92  37  56
   3  92  37  78
   3  93  77  64
   3  93  77 115
   3  93  64  77
   3  93  64  56
   3  93  56 133
   3  93  56  64
   3  93 133 115
   3  93 133  56
   3  93 115  77
   3  93 115 133
   3  94  73 150
   3  94  73 173
   3  94 150  74
   3  94 150  73
   3  94  74 174
   3  94  74 150
   3  94 174 167
   3  94 174  74
   3  94 167  58
   3  94 167 174
   3  94  58  57
   3  94  58 167
   3  94  57 166
   3  94  57  58
   3  94 166  57
   3  94 166 173
   3  94 173  73
   3  94 173 166
   3  95  88  66
   3  95  88 131
   3  95  66  79
   3  95  66  88
   3  95  79 110
   3  95  79  66
   3  95 110  79
   3  95 110 139
   3  95 139 131
   3  95 139 110
   3  95 131  88
   3  95 131 139
   3  96  80  67
   3  96  80 111
   3  96  67  89
   3  96  67  80
   3  96  89 132
   3  96  89  67
   3  96 132  89
   3  96 132 140
   3  96 140 111
   3  96 140 132
   3  96 111  80
   3  96 111 140
   3  97  76  63
   3  97  76 104
   3  97  63  90
   3  97  63  76
   3  97  90  63
   3  97  90 124
   3  97 124  90
   3  97 124 135
   3  97 135 104
   3  97 135 124
   3  97 104  76
   3  97 104 135
   3  98  91  62
   3  98  91 125
   3  98  62  75
   3  98  62  91
   3  98  75 103
   3  98  75  62
   3  98 103  75
   3  98 103 136
   3  98 136 125
   3  98 136 103
   3  98 125  91
   3  98 125 136
   3  99  90  60
   3  99  90 124
   3  99  60  70
   3  99  60  90
   3  99  70  60
   3  99  70 126
   3  99 126  70
   3  99 126 148
   3  99 148 124
   3  99 148 126
   3  99 124  90
   3  99 124 148
   3 100  70  61
   3 100  70 126
   3 100  61  91
   3 100  61  70
   3 100  91  61
   3 100  91 125
   3 100 125  91
   3 100 125 149
   3 100 149 126
   3 100 149 125
   3 100 126  70
   3 100 126 149
   3 101  59 141
   3 101  59 162
   3 101 141 129
   3 101 141  59
   3 101 129  83
   3 101 129 141
   3 101  83  33
   3 101  83 129
   3 101  33  83
   3 101  33 162
   3 101 162  59
   3 101 162  33
   3 102  84 130
   3 102  84  34
   3 102 130  84
   3 102 130 142
   3 102 142  59
   3 102 142 130
   3 102  59 163
   3 102  59 142
   3 102 163  59
   3 102 163  34
   3 102  34 163
   3 102  34  84
   3 103  98  75
   3 103  98 136
   3 103  75  52
   3 103  75  98
   3 103  52 156
   3 103  52  75
   3 103 156 136
   3 103 156  52
   3 103 136  98
   3 103 136 156
   3 104  51  76
   3 104  51 157
   3 104  76  97
   3 104  76  51
   3 104  97  76
   3 104  97 135
   3 104 135  97
   3 104 135 157
   3 104 157  51
   3 104 157 135
   3 105  38 133
   4 105  38  43 106
   3 105 133  56
   3 105 133  38
   3 105  56 106
   3 105  56 133
   3 105 106  56
   4 105 106  43  38
   3 106  43 134
   4 106  43  38 105
   3 106 105  56
   4 106 105  38  43
   3 106  56 134
   3 106  56 105
   3 106 134  56
   3 106 134  43
   3 107  81  71
   3 107  81 120
   3 107  71  77
   3 107  71  81
   3 107  77 115
   3 107  77  71
   3 107 115  77
   3 107 115 152
   3 107 152 120
   3 107 152 115
   3 107 120  81
   3 107 120 152
   3 108  78  72
   3 108  78 116
   3 108  72  82
   3 108  72  78
   3 108  82  72
   3 108  82 121
   3 108 121  82
   3 108 121 153
   3 108 153 116
   3 108 153 121
   3 108 116  78
   3 108 116 153
   3 109  34  41
   3 109  34   9
   3 109  41  35
   3 109  41  34
   3 109  35  41
   3 109  35 183
   3 109 183   9
   3 109 183  35
   3 109   9  34
   3 109   9 183
   3 110  95  79
   3 110  95 139
   3 110  79  83
   3 110  79  95
   3 110  83 129
   3 110  83  79
   3 110 129  83
   3 110 129 170
   3 110 170 139
   3 110 170 129
   3 110 139  95
   3 110 139 170
   3 111  84  80
   3 111  84 130
   3 111  80  96
   3 111  80  84
   3 111  96  80
   3 111  96 140
   3 111 140  96
   3 111 140 171
   3 111 171 130
   3 111 171 140
   3 111 130  84
   3 111 130 171
   3 112  38 120
   4 112  38 181 143
   3 112 143  73
   4 112 143 181  38
   3 112  73 143
   3 112  73 120
   3 112 120  73
   3 112 120  38
   3 113  43 121
   4 113  43 182 143
   3 113 121  74
   3 113 121  43
   3 113  74 143
   3 113  74 121
   3 113 143  74
   4 113 143 182  43
   3 114 168 160
   3 114 168 172
   3 114 160  85
   3 114 160 168
   3 114  85 161
   3 114  85 160
   3 114 161  85
   3 114 161 169
   3 114 169 172
   3 114 169 161
   3 114 172 168
   3 114 172 169
   3 115 107  77
   3 115 107 152
   3 115  77  93
   3 115  77 107
   3 115  93  77
   3 115  93 133
   3 115 133  93
   3 115 133 175
   3 115 175 152
   3 115 175 133
   3 115 152 107
   3 115 152 175
   3 116  92  78
   3 116  92 134
   3 116  78 108
   3 116  78  92
   3 116 108  78
   3 116 108 153
   3 116 153 108
   3 116 153 176
   3 116 176 134
   3 116 176 153
   3 116 134  92
   3 116 134 176
   3 117  44 141
   4 117  44  47 118
   3 117 141  59
   3 117 141  44
   3 117  59 118
   3 117  59 141
   3 117 118  59
   4 117 118  47  44
   3 118  47 142
   4 118  47  44 117
   3 118 117  59
   4 118 117  44  47
   3 118  59 142
   3 118  59 117
   3 118 142  59
   3 118 142  47
   3 119  33  42
   3 119  33 162
   3 119  42  33
   3 119  42  76
   3 119  76  51
   3 119  76  42
   3 119  51  76
   3 119  51 151
   3 119 151 164
   3 119 151  51
   3 119 164  59
   3 119 164 151
   3 119  59 164
   3 119  59 162
   3 119 162  59
   3 119 162  33
   3 120 112  38
   3 120 112  73
   3 120  73 112
   3 120  73  81
   3 120  81  73
   3 120  81 107
   3 120 107  81
   3 120 107 152
   3 120 152 107
   3 120 152  38
   3 120  38 112
   3 120  38 152
   3 121 108  82
   3 121 108 153
   3 121  82  74
   3 121  82 108
   3 121  74 113
   3 121  74  82
   3 121 113  43
   3 121 113  74
   3 121  43 113
   3 121  43 153
   3 121 153 108
   3 121 153  43
   3 122  48 156
   3 122  48 123
   3 122 156  52
   3 122 156  48
   3 122  52 151
   3 122  52 156
   3 122 151 123
   3 122 151  52
   3 122 123  48
   3 122 123 151
   3 123  48 122
   3 123  48 157
   3 123 122  48
   3 123 122 151
   3 123 151 122
   3 123 151  51
   3 123  51 157
   3 123  51 151
   3 123 157  51
   3 123 157  48
   3 124  97  90
   3 124  97 135
   3 124  90  99
   3 124  90  97
   3 124  99  90
   3 124  99 148
   3 124 148  99
   3 124 148 185
   3 124 185 135
   3 124 185 148
   3 124 135  97
   3 124 135 185
   3 125 100  91
   3 125 100 149
   3 125  91  98
   3 125  91 100
   3 125  98  91
   3 125  98 136
   3 125 136  98
   3 125 136 186
   3 125 186 149
   3 125 186 136
   3 125 149 100
   3 125 149 186
   3 126  99  70
   3 126  99 148
   3 126  70 100
   3 126  70  99
   3 126 100  70
   3 126 100 149
   3 126 149 100
   3 126 149  48
   3 126  48 148
   3 126  48 149
   3 126 148  99
   3 126 148  48
   3 127 158 154
   4 127 158  29 179
   3 127 154  57
   3 127 154 158
   3 127  57 154
   4 127  57  58 128
   3 128  58 155
   4 128  58  57 127
   3 128 155 159
   3 128 155  58
   3 128 159 155
   4 128 159  29 180
   3 129 110  83
   3 129 110 170
   3 129  83 101
   3 129  83 110
   3 129 101 141
   3 129 101  83
   3 129 141 101
   3 129 141  44
   3 129  44 170
   3 129  44 141
   3 129 170 110
   3 129 170  44
   3 130 102  84
   3 130 102 142
   3 130  84 111
   3 130  84 102
   3 130 111  84
   3 130 111 171
   3 130 171 111
   3 130 171  47
   3 130  47 142
   3 130  47 171
   3 130 142 102
   3 130 142  47
   3 131  86  88
   4 131  86 137  44
   3 131  88  86
   3 131  88  95
   3 131  95  88
   3 131  95 139
   3 131 139  95
   3 131 139  44
   3 131  44 139
   4 131  44 137  86
   3 132  96  89
   3 132  96 140
   3 132  89  87
   3 132  89  96
   3 132  87  89
   4 132  87 138  47
   3 132  47 140
   4 132  47 138  87
   3 132 140  96
   3 132 140  47
   3 133 115  93
   3 133 115 175
   3 133  93  56
   3 133  93 115
   3 133  56 105
   3 133  56  93
   3 133 105  38
   3 133 105  56
   3 133  38 175
   3 133  38 105
   3 133 175 115
   3 133 175  38
   3 134 106  43
   3 134 106  56
   3 134  56  92
   3 134  56 106
   3 134  92 116
   3 134  92  56
   3 134 116  92
   3 134 116 176
   3 134 176 116
   3 134 176  43
   3 134  43 106
   3 134  43 176
   3 135 104  97
   3 135 104 157
   3 135  97 124
   3 135  97 104
   3 135 124  97
   3 135 124 185
   3 135 185 124
   3 135 185  48
   3 135  48 185
   3 135  48 157
   3 135 157 104
   3 135 157  48
   3 136 125  98
   3 136 125 186
   3 136  98 103
   3 136  98 125
   3 136 103  98
   3 136 103 156
   3 136 156 103
   3 136 156  48
   3 136  48 186
   3 136  48 156
   3 136 186 125
   3 136 186  48
   3 139 131  95
   3 139 131  44
   3 139  95 110
   3 139  95 131
   3 139 110  95
   3 139 110 170
   3 139 170 110
   3 139 170  44
   3 139  44 131
   3 139  44 170
   3 140 111  96
   3 140 111 171
   3 140  96 132
   3 140  96 111
   3 140 132  96
   3 140 132  47
   3 140  47 132
   3 140  47 171
   3 140 171 111
   3 140 171  47
   3 141 129 101
   3 141 129  44
   3 141 101  59
   3 141 101 129
   3 141  59 117
   3 141  59 101
   3 141 117  44
   3 141 117  59
   3 141  44 129
   3 141  44 117
   3 142 118  47
   3 142 118  59
   3 142  59 102
   3 142  59 118
   3 142 102 130
   3 142 102  59
   3 142 130 102
   3 142 130  47
   3 142  47 118
   3 142  47 130
   3 143 181 182
   4 143 181  38 112
   3 143 182 181
   4 143 182  43 113
   3 143 113  74
   4 143 113  43 182
   3 143  74 150
   3 143  74 113
   3 143 150  74
   3 143 150  73
   3 143  73 112
   3 143  73 150
   3 143 112  73
   4 143 112  38 181
   3 144  56  53
   3 144  56  37
   3 144  53  56
   3 144  53  65
   3 144  65  37
   3 144  65  53
   3 144  37  56
   3 144  37  65
   3 145  56  53
   3 145  56  64
   3 145  64  68
   3 145  64  56
   3 145  68  53
   3 145  68  64
   3 145  53  56
   3 145  53  68
   3 146  39 166
   3 146  39  26
   3 146 166  57
   3 146 166  39
   3 146  57 154
   3 146  57 166
   3 146 154  57
   3 146 154   3
   3 146   3  26
   3 146   3 154
   3 146  26  39
   3 146  26   3
   3 147   4 155
   3 147   4  27
   3 147 155  58
   3 147 155   4
   3 147  58 155
   3 147  58 167
   3 147 167  58
   3 147 167  40
   3 147  40 167
   3 147  40  27
   3 147  27   4
   3 147  27  40
   3 148 124  99
   3 148 124 185
   3 148  99 126
   3 148  99 124
   3 148 126  99
   3 148 126  48
   3 148  48 185
   3 148  48 126
   3 148 185 124
   3 148 185  48
   3 149 126 100
   3 149 126  48
   3 149 100 125
   3 149 100 126
   3 149 125 100
   3 149 125 186
   3 149 186 125
   3 149 186  48
   3 149  48 126
   3 149  48 186
   3 150 143  74
   3 150 143  73
   3 150  74  94
   3 150  74 143
   3 150  94  73
   3 150  94  74
   3 150  73 143
   3 150  73  94
   3 151 123 122
   3 151 123  51
   3 151 122  52
   3 151 122 123
   3 151  52 164
   3 151  52 122
   3 151 164 119
   3 151 164  52
   3 151 119  51
   3 151 119 164
   3 151  51 119
   3 151  51 123
   3 152 120 107
   3 152 120  38
   3 152 107 115
   3 152 107 120
   3 152 115 107
   3 152 115 175
   3 152 175 115
   3 152 175  38
   3 152  38 120
   3 152  38 175
   3 153 116 108
   3 153 116 176
   3 153 108 121
   3 153 108 116
   3 153 121 108
   3 153 121  43
   3 153  43 176
   3 153  43 121
   3 153 176 116
   3 153 176  43
   3 154 146  57
   3 154 146   3
   3 154  57 146
   3 154  57 127
   3 154 127 158
   3 154 127  57
   3 154 158   3
   3 154 158 127
   3 154   3 146
   3 154   3 158
   3 155 159 128
   3 155 159   4
   3 155 128  58
   3 155 128 159
   3 155  58 128
   3 155  58 147
   3 155 147   4
   3 155 147  58
   3 155   4 159
   3 155   4 147
   3 156 136 103
   3 156 136  48
   3 156 103  52
   3 156 103 136
   3 156  52 122
   3 156  52 103
   3 156 122  48
   3 156 122  52
   3 156  48 136
   3 156  48 122
   3 157 123  48
   3 157 123  51
   3 157  51 104
   3 157  51 123
   3 157 104  51
   3 157 104 135
   3 157 135 104
   3 157 135  48
   3 157  48 135
   3 157  48 123
   3 158   3  30
   3 158   3 154
   3 158 154 127
   3 158 154   3
   3 158 127 154
   4 158 127 179  29
   3 158  29  30
   4 158  29 179 127
   3 158  30   3
   3 158  30  29
   3 159 128 155
   4 159 128 180  29
   3 159 155 128
   3 159 155   4
   3 159   4  31
   3 159   4 155
   3 159  31  29
   3 159  31   4
   3 159  29  31
   4 159  29 180 128
   3 160  45   0
   3 160  45  85
   3 160  85 114
   3 160  85  45
   3 160 114 168
   3 160 114  85
   3 160 168 114
   3 160 168   0
   3 160   0  45
   3 160   0 168
   3 161 114  85
   3 161 114 169
   3 161  85  46
   3 161  85 114
   3 161  46   1
   3 161  46  85
   3 161   1 169
   3 161   1  46
   3 161 169 114
   3 161 169   1
   3 162 119  33
   3 162 119  59
   3 162  59 119
   3 162  59 101
   3 162 101  59
   3 162 101  33
   3 162  33 101
   3 162  33 119
   3 163 102  59
   3 163 102  34
   3 163  59 164
   3 163  59 102
   3 163 164  34
   3 163 164  59
   3 163  34 102
   3 163  34 164
   3 164  34 163
   3 164  34  41
   3 164 163  59
   3 164 163  34
   3 164  59 119
   3 164  59 163
   3 164 119 151
   3 164 119  59
   3 164 151  52
   3 164 151 119
   3 164  52 151
   3 164  52  75
   3 164  75  52
   3 164  75  41
   3 164  41  34
   3 164  41  75
   3 165 177  35
   3 165 177   6
   3 165  35  54
   3 165  35 177
   3 165  54  35
   3 165  54  68
   3 165  68  64
   3 165  68  54
   3 165  64   6
   3 165  64  68
   3 165   6 177
   3 165   6  64
   3 166  94  57
   3 166  94 173
   3 166  57 146
   3 166  57  94
   3 166 146  39
   3 166 146  57
   3 166  39 146
   3 166  39 173
   3 166 173  94
   3 166 173  39
   3 167 147  58
   3 167 147  40
   3 167  58  94
   3 167  58 147
   3 167  94 174
   3 167  94  58
   3 167 174  94
   3 167 174  40
   3 167  40 174
   3 167  40 147
   3 168 160 114
   3 168 160   0
   3 168 114 160
   3 168 114 172
   3 168 172 114
   3 168 172  28
   3 168  28   0
   3 168  28 172
   3 168   0 160
   3 168   0  28
   3 169  28 172
   3 169  28   1
   3 169 172 114
   3 169 172  28
   3 169 114 161
   3 169 114 172
   3 169 161 114
   3 169 161   1
   3 169   1  28
   3 169   1 161
   3 170 139 110
   3 170 139  44
   3 170 110 129
   3 170 110 139
   3 170 129 110
   3 170 129  44
   3 170  44 139
   3 170  44 129
   3 171 130 111
   3 171 130  47
   3 171 111 140
   3 171 111 130
   3 171 140 111
   3 171 140  47
   3 171  47 130
   3 171  47 140
   3 172 168 114
   3 172 168  28
   3 172 114 168
   3 172 114 169
   3 172 169  28
   3 172 169 114
   3 172  28 168
   3 172  28 169
   3 173  73  94
   3 173  73  39
   3 173  94  73
   3 173  94 166
   3 173 166  94
   3 173 166  39
   3 173  39 166
   3 173  39  73
   3 174 167  94
   3 174 167  40
   3 174  94  74
   3 174  94 167
   3 174  74  40
   3 174  74  94
   3 174  40 167
   3 174  40  74
   3 175 152 115
   3 175 152  38
   3 175 115 133
   3 175 115 152
   3 175 133 115
   3 175 133  38
   3 175  38 152
   3 175  38 133
   3 176 134 116
   3 176 134  43
   3 176 116 153
   3 176 116 134
   3 176 153 116
   3 176 153  43
   3 176  43 134
   3 176  43 153
   3 177  35 165
   3 177  35   2
   3 177 165  35
   3 177 165   6
   3 177   6   2
   3 177   6 165
   3 177   2  35
   3 177   2   6
   3 178   7  32
   3 178   7   5
   3 178  32  36
   3 178  32   7
   3 178  36  32
   3 178  36   5
   3 178   5   7
   3 178   5  36
   3 179  29 180
   4 179  29 158 127
   3 179 180  29
   4 179 180 128 127
   3 180  29 179
   4 180  29 159 128
   3 180 179  29
   4 180 179 127 128
   3 181 182 143
   4 181 182  43  38
   3 181 143 182
   4 181 143 112  38
   3 182 143 181
   4 182 143 113  43
   3 182 181 143
   4 182 181  38  43
   3 183   9 109
   3 183   9   2
   3 183 109  35
   3 183 109   9
   3 183  35 109
   3 183  35   2
   3 183   2  35
   3 183   2   9
   3 184  36  69
   3 184  36   5
   3 184  69  36
   3 184  69   8
   3 184   8   5
   3 184   8  69
   3 184   5  36
   3 184   5   8
   3 185 135 124
   3 185 135  48
   3 185 124 148
   3 185 124 135
   3 185 148 124
   3 185 148  48
   3 185  48 135
   3 185  48 148
   3 186 149 125
   3 186 149  48
   3 186 125 136
   3 186 125 149
   3 186 136 125
   3 186 136  48
   3 186  48 149
   3 186  48 136
