 COFF
         210        2192         210
  
  -6.7221654504299346        1.4259208591185879        7.1475354159052014       0.60000002384185791       0.60000002384185791       0.60000002384185791       0.80000001192092896     
  -6.7221739342462667       -1.4259148973053071        7.1475370221112904       0.60000002384185791       0.60000002384185791       0.60000002384185791       0.80000001192092896     
  -3.7090570107119823E-002  -2.5940671580769528        6.7628079861862762       0.60000002384185791       0.60000002384185791       0.60000002384185791       0.80000001192092896     
   7.6538613278479799       -1.5965089759527986        7.1132046193306886       0.60000002384185791       0.60000002384185791       0.60000002384185791       0.80000001192092896     
   7.6538681407480533        1.5965089571148896        7.1132026983058125       0.60000002384185791       0.60000002384185791       0.60000002384185791       0.80000001192092896     
  -3.7090591091805312E-002   2.5940671565293649        6.7628079810074819       0.60000002384185791       0.60000002384185791       0.60000002384185791       0.80000001192092896     
   1.2292247498819158       -2.2342467038984490        6.9320400464458887       0.60000002384185791       0.60000002384185791       0.60000002384185791       0.80000001192092896     
   1.2292280111459690        2.2342456009929195        6.9320410436403295       0.60000002384185791       0.60000002384185791       0.60000002384185791       0.80000001192092896     
  -1.2551968656206625        2.2340006625099207        6.8845821329411034       0.60000002384185791       0.60000002384185791       0.60000002384185791       0.80000001192092896     
  -1.2551968874220754       -2.2340007225539815        6.8845820709375660       0.60000002384185791       0.60000002384185791       0.60000002384185791       0.80000001192092896     
   2.0762093966131538       -1.8428963043824462        7.2925231754395474       0.60000002384185791       0.60000002384185791       0.60000002384185791       0.80000001192092896     
   2.0762169124044165        1.8428995636232648        7.2925188939589551       0.60000002384185791       0.60000002384185791       0.60000002384185791       0.80000001192092896     
  -2.0982294363585607        1.8554975781536678        7.2671284085690520       0.60000002384185791       0.60000002384185791       0.60000002384185791       0.80000001192092896     
  -2.0982294110953306       -1.8554975872768797        7.2671284014619788       0.60000002384185791       0.60000002384185791       0.60000002384185791       0.80000001192092896     
   3.0202591765802973       -2.0204610269977756        7.0173800392855714       0.60000002384185791       0.60000002384185791       0.60000002384185791       0.80000001192092896     
   3.0202762290594238        2.0204629374743850        7.0174076326112544       0.60000002384185791       0.60000002384185791       0.60000002384185791       0.80000001192092896     
  -3.0189129216761366        2.0204825063229253        6.9144469201719509       0.60000002384185791       0.60000002384185791       0.60000002384185791       0.80000001192092896     
  -3.0189129209833485       -2.0204824381312152        6.9144469409065064       0.60000002384185791       0.60000002384185791       0.60000002384185791       0.80000001192092896     
   4.0873964424090223       -1.8807757866240393        7.2678229114275474       0.60000002384185791       0.60000002384185791       0.60000002384185791       0.80000001192092896     
   4.0873972116706430        1.8807766943969340        7.2678218827508649       0.60000002384185791       0.60000002384185791       0.60000002384185791       0.80000001192092896     
  -4.0710086471530094        1.8536251539759605        7.2416354528718685       0.60000002384185791       0.60000002384185791       0.60000002384185791       0.80000001192092896     
  -4.0710086650618242       -1.8536250087313124        7.2416355849243192       0.60000002384185791       0.60000002384185791       0.60000002384185791       0.80000001192092896     
   5.0732685513952731       -1.7391038124935798        7.2467616782366617       0.60000002384185791       0.60000002384185791       0.60000002384185791       0.80000001192092896     
   5.0732692343121757        1.7391040281119003        7.2467613564315227       0.60000002384185791       0.60000002384185791       0.60000002384185791       0.80000001192092896     
  -5.0913264181016311        1.6290132158284540        7.2639980468311309       0.60000002384185791       0.60000002384185791       0.60000002384185791       0.80000001192092896     
  -5.0913265900355347       -1.6290127829809702        7.2639984612152393       0.60000002384185791       0.60000002384185791       0.60000002384185791       0.80000001192092896     
   6.0802508999019347       -1.7759583053738366        7.1115080403359157       0.60000002384185791       0.60000002384185791       0.60000002384185791       0.80000001192092896     
   6.0802453722716523        1.7759577336385142        7.1115024734044399       0.60000002384185791       0.60000002384185791       0.60000002384185791       0.80000001192092896     
  -8.3169928982208123        1.4333849919086249E-004   7.1201548154243071       0.60000002384185791       0.60000002384185791       0.60000002384185791       0.80000001192092896     
   10.259484507126743       -2.1828034525988636E-004   7.0642396387621487       0.60000002384185791       0.60000002384185791       0.60000002384185791       0.80000001192092896     
   9.3403705117318232      -0.91724026643697565        7.2280594651400207       0.60000002384185791       0.60000002384185791       0.60000002384185791       0.80000001192092896     
   9.3400565740425883       0.91719476464677996        7.2279807736905823       0.60000002384185791       0.60000002384185791       0.60000002384185791       0.80000001192092896     
  -7.5982842283283007       0.72056924296086311        7.1421499961105637       0.60000002384185791       0.60000002384185791       0.60000002384185791       0.80000001192092896     
  -7.5981405873205921      -0.72044330240542775        7.1421515170313112       0.60000002384185791       0.60000002384185791       0.60000002384185791       0.80000001192092896     
  -2.0041607232618421       -1.9455831496118769        5.8522926253435985       0.60000002384185791       0.60000002384185791       0.60000002384185791       0.80000001192092896     
 -0.11335124509787704       -2.2530370829516322        5.0765145384978974       0.60000002384185791       0.60000002384185791       0.60000002384185791       0.80000001192092896     
 -0.11334959577530891        2.2530373118069305        5.0765175144329815       0.60000002384185791       0.60000002384185791       0.60000002384185791       0.80000001192092896     
   2.1666782360259318        1.8436274329045357        5.9583955891866438       0.60000002384185791       0.60000002384185791       0.60000002384185791       0.80000001192092896     
   3.5616649312336501      -0.61953553076375101        2.3410133446645589        1.0000000000000000        1.0000000000000000        0.0000000000000000        1.0000000000000000     
   5.6037607023486213       -1.6981070800321452        6.0681083127118587       0.60000002384185791       0.60000002384185791       0.60000002384185791       0.80000001192092896     
   5.6037541787692922        1.6981075101976884        6.0681016625244792       0.60000002384185791       0.60000002384185791       0.60000002384185791       0.80000001192092896     
  -1.0599451406773650       -1.8160968949573724        4.1785448382681016       0.60000002384185791       0.60000002384185791       0.60000002384185791       0.80000001192092896     
  -1.0599357635332263        1.8160987249286855        4.1785438246394779       0.60000002384185791       0.60000002384185791       0.60000002384185791       0.80000001192092896     
   3.5616664372126952       0.61953169430566424        2.3410133446645589        1.0000000000000000        1.0000000000000000        0.0000000000000000        1.0000000000000000     
  -3.5863741647117582       0.66041789956451757        2.5284741087501219        1.0000000000000000        1.0000000000000000        0.0000000000000000        1.0000000000000000     
  -5.2360513494788510        1.5381975827573244        6.2345270641302069       0.60000002384185791       0.60000002384185791       0.60000002384185791       0.80000001192092896     
  -5.2360556405791820       -1.5381944045605314        6.2345273524710594       0.60000002384185791       0.60000002384185791       0.60000002384185791       0.80000001192092896     
  -3.5863769673672339      -0.66041692150219955        2.5284741087501215        1.0000000000000000        1.0000000000000000        0.0000000000000000        1.0000000000000000     
   7.8301767674958139E-002   6.4293627785887119E-007   1.0306063639638421        1.0000000000000000        1.0000000000000000        0.0000000000000000        1.0000000000000000     
   4.5864990064869184       -1.8090469090273655        6.4150572419914784       0.60000002384185791       0.60000002384185791       0.60000002384185791       0.80000001192092896     
   4.5864897626907508        1.8090690293272973        6.4150653246889444       0.60000002384185791       0.60000002384185791       0.60000002384185791       0.80000001192092896     
  -1.4406076540083850       0.87303029431839463        3.0478364981013013       0.60000002384185791       0.60000002384185791       0.60000002384185791       0.80000001192092896     
  -1.4406072573674991      -0.87303106155707499        3.0478442219382020       0.60000002384185791       0.60000002384185791       0.60000002384185791       0.80000001192092896     
   1.8819290976096275       -2.1890005647786809E-005   4.5424494949992411       0.60000002384185791       0.60000002384185791       0.60000002384185791       0.80000001192092896     
  0.78177342284419837       -1.9339089122712618        4.0088221045316974       0.60000002384185791       0.60000002384185791       0.60000002384185791       0.80000001192092896     
  0.78011062023756039        1.9339445972500180        4.0088598374975950       0.60000002384185791       0.60000002384185791       0.60000002384185791       0.80000001192092896     
   2.1205808144624108        3.7556873963370021E-004   5.1813575153197871       0.60000002384185791       0.60000002384185791       0.60000002384185791       0.80000001192092896     
   7.2448287878553481      -0.75764236143293362        4.5954174293392773        1.0000000000000000        1.0000000000000000        0.0000000000000000        1.0000000000000000     
   7.2448290104725110       0.75764114232772739        4.5954174293400127        1.0000000000000000        1.0000000000000000        0.0000000000000000        1.0000000000000000     
  -2.1936987851156871        1.5719728429103328E-005   4.7205181666127025       0.60000002384185791       0.60000002384185791       0.60000002384185791       0.80000001192092896     
   1.2286390086983938        1.4886522426543503        3.9117694827581948       0.60000002384185791       0.60000002384185791       0.60000002384185791       0.80000001192092896     
   1.2286565888775609       -1.4886586245710192        3.9117460306585450       0.60000002384185791       0.60000002384185791       0.60000002384185791       0.80000001192092896     
 -0.22670435808499864       -1.9756729261452817        4.0090399485137080       0.60000002384185791       0.60000002384185791       0.60000002384185791       0.80000001192092896     
 -0.22673662818671603        1.9756757347791538        4.0090439046774717       0.60000002384185791       0.60000002384185791       0.60000002384185791       0.80000001192092896     
   2.1666319568833301       -1.8435909037708242        5.9583693199211236       0.60000002384185791       0.60000002384185791       0.60000002384185791       0.80000001192092896     
   1.5189139743411610        1.6676675071066720        4.6909160349470769       0.60000002384185791       0.60000002384185791       0.60000002384185791       0.80000001192092896     
  -4.5845012736044675        1.7277393169183581        6.2731787782301014       0.60000002384185791       0.60000002384185791       0.60000002384185791       0.80000001192092896     
  -4.5845014988184918       -1.7277387492727811        6.2731810625793125       0.60000002384185791       0.60000002384185791       0.60000002384185791       0.80000001192092896     
   1.5188763713739852       -1.6676867088350087        4.6909034475071065       0.60000002384185791       0.60000002384185791       0.60000002384185791       0.80000001192092896     
  -1.1648020425121621        2.0703200989962465        4.8432320824087451        1.0000000000000000        1.0000000000000000        0.0000000000000000        1.0000000000000000     
   1.4663970303196352       -1.7504744707046986E-005   3.6210658782087397       0.60000002384185791       0.60000002384185791       0.60000002384185791       0.80000001192092896     
   4.0784430105108527       -1.8786732987036872        5.8408488983064997       0.60000002384185791       0.60000002384185791       0.60000002384185791       0.80000001192092896     
   4.0784492262016681        1.8786915315512407        5.8408431903596965       0.60000002384185791       0.60000002384185791       0.60000002384185791       0.80000001192092896     
   5.4922947625287053       -1.0756440258885713        4.6407269885424558       0.60000002384185791       0.60000002384185791       0.60000002384185791       0.80000001192092896     
   5.4922943883887196        1.0756429951302164        4.6407235865064305       0.60000002384185791       0.60000002384185791       0.60000002384185791       0.80000001192092896     
 -0.70777452968573396       -1.7255617030334662        3.5397051395519483       0.60000002384185791       0.60000002384185791       0.60000002384185791       0.80000001192092896     
 -0.70776980121254829        1.7255532904029700        3.5397027462280324       0.60000002384185791       0.60000002384185791       0.60000002384185791       0.80000001192092896     
   3.1291924055522990       -1.8929961792406795        5.4204623087909551       0.60000002384185791       0.60000002384185791       0.60000002384185791       0.80000001192092896     
   3.1292371231215061        1.8930274329471106        5.4204884772927722       0.60000002384185791       0.60000002384185791       0.60000002384185791       0.80000001192092896     
  -3.9846619722322751        1.7973471287972480        5.8634913151578587       0.60000002384185791       0.60000002384185791       0.60000002384185791       0.80000001192092896     
  -3.9846628627641789       -1.7973469029412175        5.8634926507282259       0.60000002384185791       0.60000002384185791       0.60000002384185791       0.80000001192092896     
   4.6741718222430304       -1.8051258569154613        5.0949813282528726       0.60000002384185791       0.60000002384185791       0.60000002384185791       0.80000001192092896     
   4.6741385791457173        1.8051508855460550        5.0949865798446821       0.60000002384185791       0.60000002384185791       0.60000002384185791       0.80000001192092896     
  -3.0269482074704204        1.9032611246652975        5.4205925622639679       0.60000002384185791       0.60000002384185791       0.60000002384185791       0.80000001192092896     
  -3.0269470141944912       -1.9032615863855302        5.4205903379564786       0.60000002384185791       0.60000002384185791       0.60000002384185791       0.80000001192092896     
  -6.0218102370294853        3.6775751584418400E-006   5.5920246629168808       0.60000002384185791       0.60000002384185791       0.60000002384185791       0.80000001192092896     
  -5.5051119689878742       0.72985410006816243        4.6833003422008614       0.60000002384185791       0.60000002384185791       0.60000002384185791       0.80000001192092896     
  -5.5051388064689641      -0.72982538074560810        4.6832826652117987       0.60000002384185791       0.60000002384185791       0.60000002384185791       0.80000001192092896     
  -5.2192753821035662        1.1339326444809374        5.1859012125862236       0.60000002384185791       0.60000002384185791       0.60000002384185791       0.80000001192092896     
  -5.2192910620041619       -1.1339287593499146        5.1859376801921995       0.60000002384185791       0.60000002384185791       0.60000002384185791       0.80000001192092896     
  0.67752217171452156        1.7878899602740908        3.2501919900818041        1.0000000000000000       0.10000000149011612        0.0000000000000000       0.50000000000000000     
  0.67751950596426125       -1.7879028444760323        3.2501276837747874        1.0000000000000000       0.10000000149011612        0.0000000000000000       0.50000000000000000     
   2.6095043317231577        1.3874316363546801        4.7878711717542348       0.60000002384185791       0.60000002384185791       0.60000002384185791       0.80000001192092896     
   2.6095942163752608       -1.3876699345833574        4.7878905737789275       0.60000002384185791       0.60000002384185791       0.60000002384185791       0.80000001192092896     
   6.0443680119116445        4.5494425883798654E-006   4.8531898071293851       0.60000002384185791       0.60000002384185791       0.60000002384185791       0.80000001192092896     
  -4.5441519029581769        1.5217606904774714        5.0640377489298265       0.60000002384185791       0.60000002384185791       0.60000002384185791       0.80000001192092896     
  -4.5441545021308460       -1.5217600005426395        5.0640429145064916       0.60000002384185791       0.60000002384185791       0.60000002384185791       0.80000001192092896     
  -3.8800286693173446E-002   1.8192491189263258        3.0065511182349054        1.0000000000000000       0.10000000149011612        0.0000000000000000       0.50000000000000000     
  -3.8805671884340975E-002  -1.8192508787742734        3.0065828108594523        1.0000000000000000       0.10000000149011612        0.0000000000000000       0.50000000000000000     
   1.0385706837926234        1.2681236199495569        3.0284734062687639        1.0000000000000000       0.10000000149011612        0.0000000000000000       0.50000000000000000     
   1.0385775697299942       -1.2681267723279890        3.0284674647865852        1.0000000000000000       0.10000000149011612        0.0000000000000000       0.50000000000000000     
  -2.5171662634395986        1.7066080465632159        4.8650266040020709       0.60000002384185791       0.60000002384185791       0.60000002384185791       0.80000001192092896     
  -2.5171851545897170       -1.7066146180971169        4.8650227852856425       0.60000002384185791       0.60000002384185791       0.60000002384185791       0.80000001192092896     
 -0.62861970081182084       -1.5386194768995538        2.6757313087702816        1.0000000000000000       0.10000000149011612        0.0000000000000000       0.50000000000000000     
 -0.62860840798777273        1.5386201079882322        2.6757391567040409        1.0000000000000000       0.10000000149011612        0.0000000000000000       0.50000000000000000     
   2.5543670421393814      -0.78483160549430697        3.5507817706136637       0.60000002384185791       0.60000002384185791       0.60000002384185791       0.80000001192092896     
   2.5543809861254081       0.78478919157769045        3.5507406004305855       0.60000002384185791       0.60000002384185791       0.60000002384185791       0.80000001192092896     
   4.0865953852976800       -1.8469697848882600        4.6147740191851403       0.60000002384185791       0.60000002384185791       0.60000002384185791       0.80000001192092896     
   4.0866222500127209        1.8469653973401452        4.6147836836349079       0.60000002384185791       0.60000002384185791       0.60000002384185791       0.80000001192092896     
  -1.1647999333192915       -2.0703261446295338        4.8432319704041973        1.0000000000000000        1.0000000000000000        0.0000000000000000        1.0000000000000000     
  -3.9755622687579422        1.6974326417847092        4.7532616302236148       0.60000002384185791       0.60000002384185791       0.60000002384185791       0.80000001192092896     
  -3.9755701567821804       -1.6974318852866581        4.7532645939175646       0.60000002384185791       0.60000002384185791       0.60000002384185791       0.80000001192092896     
   5.1048682259745526      -0.95321782444196190        3.5761419208301124       0.60000002384185791       0.60000002384185791       0.60000002384185791       0.80000001192092896     
   5.1048726354937894       0.95320926896885572        3.5761103976493605       0.60000002384185791       0.60000002384185791       0.60000002384185791       0.80000001192092896     
  -6.7231472621670845        5.6088593378809769E-006   5.0071826586955126        1.0000000000000000        1.0000000000000000        0.0000000000000000        1.0000000000000000     
   3.2824625681064608       -1.6951340113441062        4.3962832523737081       0.60000002384185791       0.60000002384185791       0.60000002384185791       0.80000001192092896     
   3.2826389208328974        1.6947722116953488        4.3962869963151849       0.60000002384185791       0.60000002384185791       0.60000002384185791       0.80000001192092896     
  -2.6001748086792089       0.73533072834054569        3.5660211692738191       0.60000002384185791       0.60000002384185791       0.60000002384185791       0.80000001192092896     
  -2.6001818629864526      -0.73529648066641862        3.5660106965099967       0.60000002384185791       0.60000002384185791       0.60000002384185791       0.80000001192092896     
  -1.9172840946472038       0.83541798940309742        4.4958570219991145       0.60000002384185791       0.60000002384185791       0.60000002384185791       0.80000001192092896     
   4.6986372432544385       -1.5910112241276042        3.8742755932010686       0.60000002384185791       0.60000002384185791       0.60000002384185791       0.80000001192092896     
   4.6986350468581097        1.5910080093292813        3.8742679268419202       0.60000002384185791       0.60000002384185791       0.60000002384185791       0.80000001192092896     
  -1.5943044385414646      -0.48199939604751690        2.2602091927270695        1.0000000000000000       0.10000000149011612        0.0000000000000000       0.50000000000000000     
  -1.5943049900523700       0.48200059250971972        2.2602099559642901        1.0000000000000000       0.10000000149011612        0.0000000000000000       0.50000000000000000     
  0.56428021860128308        1.6229892071681915        2.4368874930720912        1.0000000000000000       0.10000000149011612        0.0000000000000000       0.50000000000000000     
  0.56431160593391705       -1.6229743319555119        2.4368766749009088        1.0000000000000000       0.10000000149011612        0.0000000000000000       0.50000000000000000     
   1.2116450172846569       -1.7233460495640737E-005   2.6807054760488880        1.0000000000000000       0.10000000149011612        0.0000000000000000       0.50000000000000000     
   8.5375774945800558      -0.74741903519722785        5.7008467442935746       0.60000002384185791       0.60000002384185791       0.60000002384185791       0.80000001192092896     
   8.5375792119585157       0.74736161601968865        5.7008625321640176       0.60000002384185791       0.60000002384185791       0.60000002384185791       0.80000001192092896     
  -3.1563471121789406        1.7594309990807124        4.3474832217020989       0.60000002384185791       0.60000002384185791       0.60000002384185791       0.80000001192092896     
  -3.1565377837842101       -1.7592161815098175        4.3474785760984709       0.60000002384185791       0.60000002384185791       0.60000002384185791       0.80000001192092896     
  -4.9030968697469843        1.2308346260788854        4.1508715842624255       0.60000002384185791       0.60000002384185791       0.60000002384185791       0.80000001192092896     
  -4.9031124877678289       -1.2308167487465089        4.1508888585625403       0.60000002384185791       0.60000002384185791       0.60000002384185791       0.80000001192092896     
   2.8224468433666865       -1.3070718468286924        4.1764488289157446       0.60000002384185791       0.60000002384185791       0.60000002384185791       0.80000001192092896     
   2.8223177302052678        1.3069670538979015        4.1764393976193190       0.60000002384185791       0.60000002384185791       0.60000002384185791       0.80000001192092896     
   4.0636277277955817E-002   1.6536210657312893        2.0758404703868698        1.0000000000000000       0.10000000149011612        0.0000000000000000       0.50000000000000000     
   4.0589596757238430E-002  -1.6532323855239306        2.0758340956108126        1.0000000000000000       0.10000000149011612        0.0000000000000000       0.50000000000000000     
  -5.5133975011806653       0.75711989720556927        3.4262612558466219       0.60000002384185791       0.60000002384185791       0.60000002384185791       0.80000001192092896     
  -5.5133979164925462      -0.75709379204951932        3.4262568960224740       0.60000002384185791       0.60000002384185791       0.60000002384185791       0.80000001192092896     
  -4.5158505628961541        1.4320084725327165        3.9540215094529696       0.60000002384185791       0.60000002384185791       0.60000002384185791       0.80000001192092896     
  -4.5158493191143219       -1.4320049877380632        3.9540210206435606       0.60000002384185791       0.60000002384185791       0.60000002384185791       0.80000001192092896     
  -2.7906285085487834        1.4503527260062601        4.0776456845618112       0.60000002384185791       0.60000002384185791       0.60000002384185791       0.80000001192092896     
  -2.7906130265858651       -1.4505586664993633        4.0776507942045210       0.60000002384185791       0.60000002384185791       0.60000002384185791       0.80000001192092896     
   5.4035793164659376       -4.1091914170513387E-006   3.6220758097724541       0.60000002384185791       0.60000002384185791       0.60000002384185791       0.80000001192092896     
   2.0975309061873593       0.97518294349416179        5.3480412468205367       0.60000002384185791       0.60000002384185791       0.60000002384185791       0.80000001192092896     
   2.0974132338579285      -0.97539163848788224        5.3477319018397420       0.60000002384185791       0.60000002384185791       0.60000002384185791       0.80000001192092896     
   6.8300597231802920       -1.6327478951909564        6.1111837044837003       0.60000002384185791       0.60000002384185791       0.60000002384185791       0.80000001192092896     
   6.8300569904483197        1.6327478572316727        6.1111835112295054       0.60000002384185791       0.60000002384185791       0.60000002384185791       0.80000001192092896     
  0.91476682372050822       0.99703516819108706        2.1907178928589941        1.0000000000000000       0.10000000149011612        0.0000000000000000       0.50000000000000000     
  0.91475674464682932      -0.99706616019813465        2.1907312903387615        1.0000000000000000       0.10000000149011612        0.0000000000000000       0.50000000000000000     
   5.6695285263155411        1.2296872908904971E-006   4.3053264012132555       0.60000002384185791       0.60000002384185791       0.60000002384185791       0.80000001192092896     
  -1.8988849740738294        5.4913009196059874E-007   3.1686529798514185       0.60000002384185791       0.60000002384185791       0.60000002384185791       0.80000001192092896     
   4.0439416593922157       -1.6492808083491788        3.5624196885487929        1.0000000000000000       0.10000000149011612        0.0000000000000000       0.50000000000000000     
   4.0439141926157101        1.6492599566764632        3.5624424300010356        1.0000000000000000       0.10000000149011612        0.0000000000000000       0.50000000000000000     
   7.5496196630563146       -1.4211051936558130        6.1027071690959911       0.60000002384185791       0.60000002384185791       0.60000002384185791       0.80000001192092896     
   7.5496108487168030        1.4211022208035438        6.1027079546426597       0.60000002384185791       0.60000002384185791       0.60000002384185791       0.80000001192092896     
 -0.79835529427547258       -1.1984174564318084        1.9576006513002837        1.0000000000000000       0.10000000149011612        0.0000000000000000       0.50000000000000000     
 -0.79835054741011346        1.1984213874188083        1.9576096604216588        1.0000000000000000       0.10000000149011612        0.0000000000000000       0.50000000000000000     
   8.7106280187176797      -0.87763405610238598        6.4865016898956167       0.60000002384185791       0.60000002384185791       0.60000002384185791       0.80000001192092896     
   8.7106177166764649       0.87757943545988348        6.4865293074115566       0.60000002384185791       0.60000002384185791       0.60000002384185791       0.80000001192092896     
  -6.6024356512052913        1.0999071466114305        6.1473357523078107       0.60000002384185791       0.60000002384185791       0.60000002384185791       0.80000001192092896     
  -6.6024432330412113       -1.0998996068063605        6.1473337199247418       0.60000002384185791       0.60000002384185791       0.60000002384185791       0.80000001192092896     
  -1.9271605275812029        1.3243750172733080        5.2075102224336698       0.60000002384185791       0.60000002384185791       0.60000002384185791       0.80000001192092896     
  -1.9271515484204642       -1.3243638977502927        5.2075109635156114       0.60000002384185791       0.60000002384185791       0.60000002384185791       0.80000001192092896     
  -1.9172923494281060      -0.83541847408517655        4.4958663386290896       0.60000002384185791       0.60000002384185791       0.60000002384185791       0.80000001192092896     
   1.0215979085701683       -2.0090293632178788        4.6909342435696129        1.0000000000000000        1.0000000000000000        0.0000000000000000        1.0000000000000000     
   6.2742234615197559       -1.6327090044868020        5.5121824039045588       0.60000002384185791       0.60000002384185791       0.60000002384185791       0.80000001192092896     
   6.2742216370080479        1.6327082071363550        5.5121782026416479       0.60000002384185791       0.60000002384185791       0.60000002384185791       0.80000001192092896     
  -7.1014832008755038       0.87263673864401103        6.2927329177907136       0.60000002384185791       0.60000002384185791       0.60000002384185791       0.80000001192092896     
  -7.1014742941113846      -0.87260458665235108        6.2927385152494324       0.60000002384185791       0.60000002384185791       0.60000002384185791       0.80000001192092896     
  -3.8517274960550809        1.6449877476974646        3.6576727203694004       0.60000002384185791       0.60000002384185791       0.60000002384185791       0.80000001192092896     
  -3.8517271262265096       -1.6449834555449105        3.6576527607381717       0.60000002384185791       0.60000002384185791       0.60000002384185791       0.80000001192092896     
  -7.3914331219348881        7.7257975478272278E-005   6.1287625098054459       0.60000002384185791       0.60000002384185791       0.60000002384185791       0.80000001192092896     
   5.8795315846646918       -1.2226735167004608        5.1525117613434475       0.60000002384185791       0.60000002384185791       0.60000002384185791       0.80000001192092896     
   5.8795320274289358        1.2226708913948339        5.1525085703662947       0.60000002384185791       0.60000002384185791       0.60000002384185791       0.80000001192092896     
   3.4203450735132379       -1.5246824818293496        3.4298450668213394        1.0000000000000000       0.10000000149011612        0.0000000000000000       0.50000000000000000     
   3.4203666928719154        1.5246909676101705        3.4298616133733804        1.0000000000000000       0.10000000149011612        0.0000000000000000       0.50000000000000000     
  0.61013794237904517       -2.3035938765938453        5.8259497722227565       0.60000002384185791       0.60000002384185791       0.60000002384185791       0.80000001192092896     
  0.61018082644401872        2.3035807480487605        5.8259575560900325       0.60000002384185791       0.60000002384185791       0.60000002384185791       0.80000001192092896     
   9.6778138107360814      -0.25604445482919930        6.1552470890037885       0.60000002384185791       0.60000002384185791       0.60000002384185791       0.80000001192092896     
   9.6777820617226649       0.25583878844016106        6.1552265130784320       0.60000002384185791       0.60000002384185791       0.60000002384185791       0.80000001192092896     
   4.7720858769471581      -0.31021626034972805        2.8438537517958560        1.0000000000000000       0.10000000149011612        0.0000000000000000       0.50000000000000000     
   4.7720773790683975       0.31020275859619079        2.8438536221223836        1.0000000000000000       0.10000000149011612        0.0000000000000000       0.50000000000000000     
 -0.59811868968527793       -2.3965726154102205        5.9021420409763765       0.60000002384185791       0.60000002384185791       0.60000002384185791       0.80000001192092896     
 -0.59811835727623186        2.3965719643006311        5.9021417279352049       0.60000002384185791       0.60000002384185791       0.60000002384185791       0.80000001192092896     
  0.52911842307560797        1.0730852484301856        1.6738330780926824        1.0000000000000000       0.10000000149011612        0.0000000000000000       0.50000000000000000     
  0.52911433437253919       -1.0730835682735587        1.6738338200674237        1.0000000000000000       0.10000000149011612        0.0000000000000000       0.50000000000000000     
   1.1882888546543238       -2.0991782341019132        5.8256978115694631       0.60000002384185791       0.60000002384185791       0.60000002384185791       0.80000001192092896     
   1.1882267194064733        2.0992011432933007        5.8257021061382881       0.60000002384185791       0.60000002384185791       0.60000002384185791       0.80000001192092896     
  -3.3332875073009842        1.4771812925684495        3.4428759729714171        1.0000000000000000       0.10000000149011612        0.0000000000000000       0.50000000000000000     
  -3.3332983639590541       -1.4771838168851454        3.4428621807712982        1.0000000000000000       0.10000000149011612        0.0000000000000000       0.50000000000000000     
  -4.3722153688786696        1.0496644050440309        3.4795468811767760        1.0000000000000000       0.10000000149011612        0.0000000000000000       0.50000000000000000     
  -4.3722286999467341       -1.0496563080604187        3.4795613464885728        1.0000000000000000       0.10000000149011612        0.0000000000000000       0.50000000000000000     
   4.3293923759894621       -1.2518618325669362        3.0873408173349950        1.0000000000000000       0.10000000149011612        0.0000000000000000       0.50000000000000000     
   4.3293889971135870        1.2518523975873941        3.0873362527493522        1.0000000000000000       0.10000000149011612        0.0000000000000000       0.50000000000000000     
  -4.7604691978795453       0.70425103028173930        2.9222392342004788        1.0000000000000000       0.10000000149011612        0.0000000000000000       0.50000000000000000     
  -4.7604681071486716      -0.70423838495758551        2.9222380684648859        1.0000000000000000       0.10000000149011612        0.0000000000000000       0.50000000000000000     
 -0.89203251221351154      -0.25444516966251612        1.5857518385549791        1.0000000000000000       0.10000000149011612        0.0000000000000000       0.50000000000000000     
 -0.89203314260604349       0.25444698565262597        1.5857522414997480        1.0000000000000000       0.10000000149011612        0.0000000000000000       0.50000000000000000     
   3.0617690099498773       -1.0584657160724424        3.2284709803750555        1.0000000000000000       0.10000000149011612        0.0000000000000000       0.50000000000000000     
   3.0616467898246844        1.0584916995175486        3.2285037957665041        1.0000000000000000       0.10000000149011612        0.0000000000000000       0.50000000000000000     
   1.0216085515755462        2.0090140455725334        4.6909492865371529        1.0000000000000000        1.0000000000000000        0.0000000000000000        1.0000000000000000     
  -2.0041600117339775        1.9455828004104900        5.8522906949565145       0.60000002384185791       0.60000002384185791       0.60000002384185791       0.80000001192092896     
  -1.1681900276906390        2.1523879289607195        5.8587662417468991       0.60000002384185791       0.60000002384185791       0.60000002384185791       0.80000001192092896     
  -1.1681882028006243       -2.1523905540370416        5.8587662116086028       0.60000002384185791       0.60000002384185791       0.60000002384185791       0.80000001192092896     
   4.3389128593681052      -0.78762590146073663        2.9566852253727962        1.0000000000000000       0.10000000149011612        0.0000000000000000       0.50000000000000000     
   4.3389156876241275       0.78761981996498787        2.9566694420633217        1.0000000000000000       0.10000000149011612        0.0000000000000000       0.50000000000000000     
   2.1436957036544220       0.92507545136984626        5.5677536777488923       0.60000002384185791       0.60000002384185791       0.60000002384185791       0.80000001192092896     
  0.64789767246531826       -8.2924859771267704E-006   1.8556883712644394        1.0000000000000000       0.10000000149011612        0.0000000000000000       0.50000000000000000     
   2.1436075402007329      -0.92445838158504090        5.5681747233943408       0.60000002384185791       0.60000002384185791       0.60000002384185791       0.80000001192092896     
  
   3   0  24  45
   3   0  45  24
   3   0  45 160
   3   0 160  45
   3   0 160 168
   3   0 168 160
   3   0 168  32
   3   0  32 168
   3   1  33 169
   3   1 169 161
   3   1 169  33
   3   1 161  46
   3   1 161 169
   3   1  46 161
   3   1  46  25
   3   1  25  46
   3   2  35 177
   3   2  35 183
   3   2 177  35
   3   2 177   6
   3   2   6 177
   3   2   9 183
   3   2 183   9
   3   2 183  35
   3   3  30 158
   3   3  26 146
   3   3 146 154
   3   3 146  26
   3   3 154 146
   3   3 154 158
   3   3 158 154
   3   3 158  30
   3   4  31 159
   3   4 159 155
   3   4 159  31
   3   4 155 159
   3   4 155 147
   3   4 147 155
   3   4 147  27
   3   4  27 147
   3   5   7 178
   3   5 178   7
   3   5 178  36
   3   5  36 184
   3   5  36 178
   3   5 184  36
   3   5 184   8
   3   5   8 184
   3   6   2 177
   3   6 177 187
   3   6 177   2
   3   6 187 177
   3   6 187  64
   3   6  64  10
   3   6  64 187
   3   6  10  64
   3   7  11  37
   3   7  37 188
   3   7  37  11
   3   7 188  37
   3   7 188 178
   3   7 178 188
   3   7 178   5
   3   7   5 178
   3   8   5 184
   3   8 184 203
   3   8 184   5
   3   8 203 184
   3   8 203 202
   3   8 202  12
   3   8 202 203
   3   8  12 202
   3   9  13  34
   3   9  34 204
   3   9  34  13
   3   9 204  34
   3   9 204 183
   3   9 183 204
   3   9 183   2
   3   9   2 183
   3  10   6  64
   3  10  64  14
   3  10  64   6
   3  10  14  64
   3  11  15  37
   3  11  37   7
   3  11  37  15
   3  11   7  37
   3  12   8 202
   3  12 202  16
   3  12 202   8
   3  12  16 202
   3  13  17  34
   3  13  34   9
   3  13  34  17
   3  13   9  34
   3  14  10  64
   3  14  64  77
   3  14  64  10
   3  14  77  64
   3  14  77  71
   3  14  71  77
   3  14  71  18
   3  14  18  71
   3  15  19  72
   3  15  72  78
   3  15  72  19
   3  15  78  72
   3  15  78  37
   3  15  37  11
   3  15  37  78
   3  15  11  37
   3  16  12 202
   3  16 202  83
   3  16 202  12
   3  16  83 202
   3  16  83  79
   3  16  79  83
   3  16  79  20
   3  16  20  79
   3  17  21  80
   3  17  80  84
   3  17  80  21
   3  17  84  80
   3  17  84  34
   3  17  34  13
   3  17  34  84
   3  17  13  34
   3  18  14  71
   3  18  71  14
   3  18  71  49
   3  18  49  71
   3  18  49  22
   3  18  22  49
   3  19  23  50
   3  19  50  72
   3  19  50  23
   3  19  72  50
   3  19  72  15
   3  19  15  72
   3  20  16  79
   3  20  79  16
   3  20  79  66
   3  20  66  79
   3  20  66  24
   3  20  24  66
   3  21  25  67
   3  21  67  80
   3  21  67  25
   3  21  80  67
   3  21  80  17
   3  21  17  80
   3  22  18  49
   3  22  49  18
   3  22  49  39
   3  22  39  26
   3  22  39  49
   3  22  26  39
   3  23  27  40
   3  23  40  50
   3  23  40  27
   3  23  50  40
   3  23  50  19
   3  23  19  50
   3  24  20  66
   3  24  66  20
   3  24  66  45
   3  24  45   0
   3  24  45  66
   3  24   0  45
   3  25   1  46
   3  25  46   1
   3  25  46  67
   3  25  67  46
   3  25  67  21
   3  25  21  67
   3  26  22  39
   3  26  39 146
   3  26  39  22
   3  26 146  39
   3  26 146   3
   3  26   3 146
   3  27   4 147
   3  27 147   4
   3  27 147  40
   3  27  40  23
   3  27  40 147
   3  27  23  40
   3  28  32 168
   3  28 168 172
   3  28 168  32
   3  28 172 168
   3  28 172 169
   3  28 169 172
   3  28 169  33
   3  28  33 169
   3  29  30 158
   3  29 158  30
   4  29 158 127 179
   3  29 179 180
   4  29 179 127 158
   3  29 180 179
   4  29 180 128 159
   3  29 159  31
   4  29 159 128 180
   3  29  31 159
   3  30   3 158
   3  30 158   3
   3  30 158  29
   3  30  29 158
   3  31  29 159
   3  31 159   4
   3  31 159  29
   3  31   4 159
   3  32   0 168
   3  32 168  28
   3  32 168   0
   3  32  28 168
   3  33  28 169
   3  33 169  28
   3  33 169   1
   3  33   1 169
   3  34 102  84
   3  34 102 163
   3  34 163 102
   3  34 163 164
   3  34 164 163
   3  34 164  41
   3  34  41 109
   3  34  41 164
   3  34 109  41
   3  34 109 204
   3  34 204 109
   3  34 204   9
   3  34   9  13
   3  34   9 204
   3  34  13  17
   3  34  13   9
   3  34  17  84
   3  34  17  13
   3  34  84 102
   3  34  84  17
   3  35 109  41
   3  35 109 183
   3  35  41 109
   3  35  41  62
   3  35  62  41
   3  35  62  54
   3  35  54  62
   3  35  54 165
   3  35 165 177
   3  35 165  54
   3  35 177 165
   3  35 177   2
   3  35   2 177
   3  35   2 183
   3  35 183 109
   3  35 183   2
   3  36 201  55
   3  36 201 178
   3  36  55  63
   3  36  55 201
   3  36  63  55
   3  36  63  42
   3  36  42  69
   3  36  42  63
   3  36  69 184
   3  36  69  42
   3  36 184  69
   3  36 184   5
   3  36   5 178
   3  36   5 184
   3  36 178 201
   3  36 178   5
   3  37  92  78
   3  37  92 207
   3  37 207  92
   3  37 207 144
   3  37 144  65
   3  37 144 207
   3  37  65 144
   3  37  65 201
   3  37 201  65
   3  37 201 188
   3  37 188 201
   3  37 188   7
   3  37   7  11
   3  37   7 188
   3  37  11  15
   3  37  11   7
   3  37  15  78
   3  37  15  11
   3  37  78  92
   3  37  78  15
   3  38 205 181
   3  38 205 193
   3  38 193 152
   3  38 193 205
   3  38 152 175
   3  38 152 193
   3  38 175 152
   3  38 175 199
   3  38 199 175
   3  38 199 105
   3  38 105 199
   4  38 105 133 175
   3  38 181 205
   4  38 181 182  43
   3  39 166 146
   3  39 166 173
   3  39 146 166
   3  39 146  26
   3  39  26  22
   3  39  26 146
   3  39  22  49
   3  39  22  26
   3  39  49  81
   3  39  49  22
   3  39  81  73
   3  39  81  49
   3  39  73 173
   3  39  73  81
   3  39 173  73
   3  39 173 166
   3  40 167 147
   3  40 167 174
   3  40 174 167
   3  40 174  74
   3  40  74 174
   3  40  74  82
   3  40  82  50
   3  40  82  74
   3  40  50  82
   3  40  50  23
   3  40  23  27
   3  40  23  50
   3  40  27 147
   3  40  27  23
   3  40 147 167
   3  40 147  27
   3  41  35 109
   3  41  35  62
   3  41 109  34
   3  41 109  35
   3  41  34 164
   3  41  34 109
   3  41 164  34
   3  41 164  75
   3  41  75 164
   3  41  75  62
   3  41  62  75
   3  41  62  35
   3  42 119 202
   3  42 119  76
   3  42 202  69
   3  42 202 119
   3  42  69  36
   3  42  69 202
   3  42  36  63
   3  42  36  69
   3  42  63  76
   3  42  63  36
   3  42  76  63
   3  42  76 119
   3  43 206 194
   3  43 206 182
   3  43 182 206
   4  43 182 181  38
   3  43 106 200
   4  43 106 105  38
   3  43 200 106
   3  43 200 176
   3  43 176 153
   3  43 176 200
   3  43 153 194
   3  43 153 176
   3  43 194 153
   3  43 194 206
   3  44 191 139
   4  44 191 137 195
   3  44 139 170
   3  44 139 191
   3  44 170 139
   3  44 170 189
   3  44 189 170
   3  44 189 141
   3  44 141 117
   3  44 141 189
   3  44 117 141
   4  44 117 118  47
   3  45   0  24
   3  45   0 160
   3  45  24  66
   3  45  24   0
   3  45  66  88
   3  45  66  24
   3  45  88  85
   3  45  88  66
   3  45  85 160
   3  45  85  88
   3  45 160  85
   3  45 160   0
   3  46   1 161
   3  46   1  25
   3  46 161  85
   3  46 161   1
   3  46  85  89
   3  46  85 161
   3  46  89  85
   3  46  89  67
   3  46  67  89
   3  46  67  25
   3  46  25   1
   3  46  25  67
   3  47 192 140
   4  47 192 138 196
   3  47 118 142
   4  47 118 117  44
   3  47 142 118
   3  47 142 190
   3  47 190 142
   3  47 190 171
   3  47 171 140
   3  47 171 190
   3  47 140 192
   3  47 140 171
   3  48 135 185
   3  48 135 157
   3  48 185 135
   3  48 185 148
   3  48 148 208
   3  48 148 185
   3  48 208 148
   3  48 208 149
   3  48 149 186
   3  48 149 208
   3  48 186 149
   3  48 186 136
   3  48 136 156
   3  48 136 186
   3  48 156 136
   4  48 156 122 197
   3  48 197 198
   4  48 197 122 156
   3  48 198 197
   4  48 198 123 157
   3  48 157 135
   4  48 157 123 198
   3  49  18  71
   3  49  18  22
   3  49  71  81
   3  49  71  18
   3  49  81  39
   3  49  81  71
   3  49  39  22
   3  49  39  81
   3  49  22  18
   3  49  22  39
   3  50  40  82
   3  50  40  23
   3  50  82  72
   3  50  82  40
   3  50  72  82
   3  50  72  19
   3  50  19  23
   3  50  19  72
   3  50  23  40
   3  50  23  19
   3  51 119  76
   3  51 119 151
   3  51  76 104
   3  51  76 119
   3  51 104  76
   3  51 104 157
   3  51 157 123
   3  51 157 104
   3  51 123 151
   3  51 123 157
   3  51 151 123
   3  51 151 119
   3  52 164 151
   3  52 164  75
   3  52 151 122
   3  52 151 164
   3  52 122 156
   3  52 122 151
   3  52 156 103
   3  52 156 122
   3  52 103  75
   3  52 103 156
   3  52  75 164
   3  52  75 103
   3  53 144  56
   3  53 144  65
   3  53  56 144
   3  53  56 145
   3  53 145  56
   3  53 145  68
   3  53  68  61
   3  53  68 145
   3  53  61  70
   3  53  61  68
   3  53  70  60
   3  53  70  61
   3  53  60  70
   3  53  60  65
   3  53  65 144
   3  53  65  60
   3  54  35  62
   3  54  35 165
   3  54  62  91
   3  54  62  35
   3  54  91  61
   3  54  91  62
   3  54  61  91
   3  54  61  68
   3  54  68  61
   3  54  68 165
   3  54 165  35
   3  54 165  68
   3  55  65  60
   3  55  65 201
   3  55  60  90
   3  55  60  65
   3  55  90  63
   3  55  90  60
   3  55  63  90
   3  55  63  36
   3  55  36 201
   3  55  36  63
   3  55 201  65
   3  55 201  36
   3  56  53 144
   3  56  53 145
   3  56 144  53
   3  56 144 207
   3  56 207  92
   3  56 207 144
   3  56  92 134
   3  56  92 207
   3  56 134 106
   3  56 134  92
   3  56 106 105
   3  56 106 134
   3  56 105 133
   3  56 105 106
   3  56 133  93
   3  56 133 105
   3  56  93 209
   3  56  93 133
   3  56 209  93
   3  56 209 145
   3  56 145 209
   3  56 145  53
   3  57 154 146
   3  57 154 127
   3  57 146 166
   3  57 146 154
   3  57 166  94
   3  57 166 146
   3  57  94  58
   3  57  94 166
   3  57  58  94
   4  57  58 128 127
   3  57 127 154
   4  57 127 128  58
   3  58 155 128
   3  58 155 147
   3  58 128 155
   4  58 128 127  57
   3  58  57  94
   4  58  57 127 128
   3  58  94 167
   3  58  94  57
   3  58 167 147
   3  58 167  94
   3  58 147 155
   3  58 147 167
   3  59 119 164
   3  59 119 162
   3  59 164 163
   3  59 164 119
   3  59 163 102
   3  59 163 164
   3  59 102 142
   3  59 102 163
   3  59 142 118
   3  59 142 102
   3  59 118 117
   3  59 118 142
   3  59 117 141
   3  59 117 118
   3  59 141 101
   3  59 141 117
   3  59 101 141
   3  59 101 162
   3  59 162 119
   3  59 162 101
   3  60  53  70
   3  60  53  65
   3  60  70  53
   3  60  70  99
   3  60  99  90
   3  60  99  70
   3  60  90  55
   3  60  90  99
   3  60  55  65
   3  60  55  90
   3  60  65  53
   3  60  65  55
   3  61  54  91
   3  61  54  68
   3  61  91  54
   3  61  91 100
   3  61 100  70
   3  61 100  91
   3  61  70  53
   3  61  70 100
   3  61  53  68
   3  61  53  70
   3  61  68  53
   3  61  68  54
   3  62  41  35
   3  62  41  75
   3  62  75  98
   3  62  75  41
   3  62  98  91
   3  62  98  75
   3  62  91  54
   3  62  91  98
   3  62  54  35
   3  62  54  91
   3  62  35  41
   3  62  35  54
   3  63  55  90
   3  63  55  36
   3  63  90  55
   3  63  90  97
   3  63  97  76
   3  63  97  90
   3  63  76  97
   3  63  76  42
   3  63  42  36
   3  63  42  76
   3  63  36  55
   3  63  36  42
   3  64  93  77
   3  64  93 209
   3  64  77  93
   3  64  77  14
   3  64  14  10
   3  64  14  77
   3  64  10   6
   3  64  10  14
   3  64   6 187
   3  64   6  10
   3  64 187 165
   3  64 187   6
   3  64 165  68
   3  64 165 187
   3  64  68 145
   3  64  68 165
   3  64 145 209
   3  64 145  68
   3  64 209  93
   3  64 209 145
   3  65  37 144
   3  65  37 201
   3  65 144  53
   3  65 144  37
   3  65  53 144
   3  65  53  60
   3  65  60  53
   3  65  60  55
   3  65  55  60
   3  65  55 201
   3  65 201  37
   3  65 201  55
   3  66  20  79
   3  66  20  24
   3  66  79  95
   3  66  79  20
   3  66  95  88
   3  66  95  79
   3  66  88  45
   3  66  88  95
   3  66  45  24
   3  66  45  88
   3  66  24  20
   3  66  24  45
   3  67  46  89
   3  67  46  25
   3  67  89  96
   3  67  89  46
   3  67  96  80
   3  67  96  89
   3  67  80  96
   3  67  80  21
   3  67  21  25
   3  67  21  80
   3  67  25  46
   3  67  25  21
   3  68  61  54
   3  68  61  53
   3  68  53 145
   3  68  53  61
   3  68 145  64
   3  68 145  53
   3  68  64 165
   3  68  64 145
   3  68 165  54
   3  68 165  64
   3  68  54  61
   3  68  54 165
   3  69 184  36
   3  69 184 203
   3  69  36  42
   3  69  36 184
   3  69  42 202
   3  69  42  36
   3  69 202 203
   3  69 202  42
   3  69 203 184
   3  69 203 202
   3  70  60  53
   3  70  60  99
   3  70  53  61
   3  70  53  60
   3  70  61 100
   3  70  61  53
   3  70 100  61
   3  70 100 126
   3  70 126  99
   3  70 126 100
   3  70  99  60
   3  70  99 126
   3  71  14  77
   3  71  14  18
   3  71  77 107
   3  71  77  14
   3  71 107  81
   3  71 107  77
   3  71  81  49
   3  71  81 107
   3  71  49  18
   3  71  49  81
   3  71  18  14
   3  71  18  49
   3  72  50  82
   3  72  50  19
   3  72  82  50
   3  72  82 108
   3  72 108  78
   3  72 108  82
   3  72  78 108
   3  72  78  15
   3  72  15  19
   3  72  15  78
   3  72  19  50
   3  72  19  15
   3  73 112 143
   3  73 112 120
   3  73 143 150
   3  73 143 112
   3  73 150 143
   3  73 150  94
   3  73  94 150
   3  73  94 173
   3  73 173  94
   3  73 173  39
   3  73  39  81
   3  73  39 173
   3  73  81  39
   3  73  81 120
   3  73 120 112
   3  73 120  81
   3  74  40 174
   3  74  40  82
   3  74 174  94
   3  74 174  40
   3  74  94 150
   3  74  94 174
   3  74 150 143
   3  74 150  94
   3  74 143 113
   3  74 143 150
   3  74 113 121
   3  74 113 143
   3  74 121  82
   3  74 121 113
   3  74  82  40
   3  74  82 121
   3  75 164  52
   3  75 164  41
   3  75  52 164
   3  75  52 103
   3  75 103  98
   3  75 103  52
   3  75  98  62
   3  75  98 103
   3  75  62  41
   3  75  62  98
   3  75  41 164
   3  75  41  62
   3  76  63  97
   3  76  63  42
   3  76  97  63
   3  76  97 104
   3  76 104  51
   3  76 104  97
   3  76  51 119
   3  76  51 104
   3  76 119  42
   3  76 119  51
   3  76  42 119
   3  76  42  63
   3  77  64  93
   3  77  64  14
   3  77  93  64
   3  77  93 115
   3  77 115 107
   3  77 115  93
   3  77 107  71
   3  77 107 115
   3  77  71  14
   3  77  71 107
   3  77  14  64
   3  77  14  71
   3  78  72 108
   3  78  72  15
   3  78 108  72
   3  78 108 116
   3  78 116  92
   3  78 116 108
   3  78  92 116
   3  78  92  37
   3  78  37  92
   3  78  37  15
   3  78  15  72
   3  78  15  37
   3  79  16  83
   3  79  16  20
   3  79  83 110
   3  79  83  16
   3  79 110  95
   3  79 110  83
   3  79  95  66
   3  79  95 110
   3  79  66  20
   3  79  66  95
   3  79  20  16
   3  79  20  66
   3  80  67  96
   3  80  67  21
   3  80  96  67
   3  80  96 111
   3  80 111  84
   3  80 111  96
   3  80  84 111
   3  80  84  17
   3  80  17  21
   3  80  17  84
   3  80  21  67
   3  80  21  17
   3  81  73  39
   3  81  73 120
   3  81  39  49
   3  81  39  73
   3  81  49  71
   3  81  49  39
   3  81  71 107
   3  81  71  49
   3  81 107  71
   3  81 107 120
   3  81 120  73
   3  81 120 107
   3  82  72  50
   3  82  72 108
   3  82  50  40
   3  82  50  72
   3  82  40  74
   3  82  40  50
   3  82  74  40
   3  82  74 121
   3  82 121 108
   3  82 121  74
   3  82 108  72
   3  82 108 121
   3  83 202 101
   3  83 202  16
   3  83 101 129
   3  83 101 202
   3  83 129 110
   3  83 129 101
   3  83 110  79
   3  83 110 129
   3  83  79  16
   3  83  79 110
   3  83  16 202
   3  83  16  79
   3  84  80 111
   3  84  80  17
   3  84 111  80
   3  84 111 130
   3  84 130 102
   3  84 130 111
   3  84 102 130
   3  84 102  34
   3  84  34 102
   3  84  34  17
   3  84  17  80
   3  84  17  34
   3  85  86  87
   3  85  86  88
   3  85  87  89
   3  85  87  86
   3  85  89  87
   3  85  89  46
   3  85  46 161
   3  85  46  89
   3  85 161 114
   3  85 161  46
   3  85 114 160
   3  85 114 161
   3  85 160  45
   3  85 160 114
   3  85  45  88
   3  85  45 160
   3  85  88  86
   3  85  88  45
   3  86 137 191
   4  86 137 138  87
   3  86  87  85
   4  86  87 138 137
   3  86  85  87
   3  86  85  88
   3  86  88  85
   3  86  88 131
   3  86 131  88
   3  86 131 191
   3  86 191 137
   3  86 191 131
   3  87 138 192
   4  87 138 137  86
   3  87 192 132
   3  87 192 138
   3  87 132  89
   3  87 132 192
   3  87  89  85
   3  87  89 132
   3  87  85  86
   3  87  85  89
   3  87  86  85
   4  87  86 137 138
   3  88  86  85
   3  88  86 131
   3  88  85  86
   3  88  85  45
   3  88  45  66
   3  88  45  85
   3  88  66  95
   3  88  66  45
   3  88  95  66
   3  88  95 131
   3  88 131  86
   3  88 131  95
   3  89  85  87
   3  89  85  46
   3  89  87 132
   3  89  87  85
   3  89 132  96
   3  89 132  87
   3  89  96  67
   3  89  96 132
   3  89  67  46
   3  89  67  96
   3  89  46  85
   3  89  46  67
   3  90  63  55
   3  90  63  97
   3  90  55  60
   3  90  55  63
   3  90  60  99
   3  90  60  55
   3  90  99  60
   3  90  99 124
   3  90 124  97
   3  90 124  99
   3  90  97  63
   3  90  97 124
   3  91  61  54
   3  91  61 100
   3  91  54  62
   3  91  54  61
   3  91  62  98
   3  91  62  54
   3  91  98  62
   3  91  98 125
   3  91 125 100
   3  91 125  98
   3  91 100  61
   3  91 100 125
   3  92  78 116
   3  92  78  37
   3  92 116  78
   3  92 116 134
   3  92 134  56
   3  92 134 116
   3  92  56 207
   3  92  56 134
   3  92 207  56
   3  92 207  37
   3  92  37 207
   3  92  37  78
   3  93  77  64
   3  93  77 115
   3  93  64  77
   3  93  64 209
   3  93 209  64
   3  93 209  56
   3  93  56 133
   3  93  56 209
   3  93 133 115
   3  93 133  56
   3  93 115  77
   3  93 115 133
   3  94  73 150
   3  94  73 173
   3  94 150  74
   3  94 150  73
   3  94  74 174
   3  94  74 150
   3  94 174 167
   3  94 174  74
   3  94 167  58
   3  94 167 174
   3  94  58  57
   3  94  58 167
   3  94  57 166
   3  94  57  58
   3  94 166  57
   3  94 166 173
   3  94 173  73
   3  94 173 166
   3  95  88  66
   3  95  88 131
   3  95  66  79
   3  95  66  88
   3  95  79 110
   3  95  79  66
   3  95 110  79
   3  95 110 139
   3  95 139 131
   3  95 139 110
   3  95 131  88
   3  95 131 139
   3  96  80  67
   3  96  80 111
   3  96  67  89
   3  96  67  80
   3  96  89 132
   3  96  89  67
   3  96 132  89
   3  96 132 140
   3  96 140 111
   3  96 140 132
   3  96 111  80
   3  96 111 140
   3  97  76  63
   3  97  76 104
   3  97  63  90
   3  97  63  76
   3  97  90  63
   3  97  90 124
   3  97 124  90
   3  97 124 135
   3  97 135 104
   3  97 135 124
   3  97 104  76
   3  97 104 135
   3  98  91  62
   3  98  91 125
   3  98  62  75
   3  98  62  91
   3  98  75 103
   3  98  75  62
   3  98 103  75
   3  98 103 136
   3  98 136 125
   3  98 136 103
   3  98 125  91
   3  98 125 136
   3  99  90  60
   3  99  90 124
   3  99  60  70
   3  99  60  90
   3  99  70  60
   3  99  70 126
   3  99 126  70
   3  99 126 148
   3  99 148 124
   3  99 148 126
   3  99 124  90
   3  99 124 148
   3 100  70  61
   3 100  70 126
   3 100  61  91
   3 100  61  70
   3 100  91  61
   3 100  91 125
   3 100 125  91
   3 100 125 149
   3 100 149 126
   3 100 149 125
   3 100 126  70
   3 100 126 149
   3 101  59 141
   3 101  59 162
   3 101 141 129
   3 101 141  59
   3 101 129  83
   3 101 129 141
   3 101  83 202
   3 101  83 129
   3 101 202  83
   3 101 202 162
   3 101 162  59
   3 101 162 202
   3 102  84 130
   3 102  84  34
   3 102 130  84
   3 102 130 142
   3 102 142  59
   3 102 142 130
   3 102  59 163
   3 102  59 142
   3 102 163  59
   3 102 163  34
   3 102  34 163
   3 102  34  84
   3 103  98  75
   3 103  98 136
   3 103  75  52
   3 103  75  98
   3 103  52 156
   3 103  52  75
   3 103 156 136
   3 103 156  52
   3 103 136  98
   3 103 136 156
   3 104  51  76
   3 104  51 157
   3 104  76  97
   3 104  76  51
   3 104  97  76
   3 104  97 135
   3 104 135  97
   3 104 135 157
   3 104 157  51
   3 104 157 135
   3 105  38 199
   4 105  38 175 133
   3 105 199 133
   3 105 199  38
   3 105 133  56
   3 105 133 199
   3 105  56 106
   3 105  56 133
   3 105 106  56
   4 105 106  43  38
   3 106  43 200
   4 106  43  38 105
   3 106 105  56
   4 106 105  38  43
   3 106  56 134
   3 106  56 105
   3 106 134  56
   3 106 134 200
   3 106 200 134
   3 106 200  43
   3 107  81  71
   3 107  81 120
   3 107  71  77
   3 107  71  81
   3 107  77 115
   3 107  77  71
   3 107 115  77
   3 107 115 152
   3 107 152 120
   3 107 152 115
   3 107 120  81
   3 107 120 152
   3 108  78  72
   3 108  78 116
   3 108  72  82
   3 108  72  78
   3 108  82  72
   3 108  82 121
   3 108 121  82
   3 108 121 153
   3 108 153 116
   3 108 153 121
   3 108 116  78
   3 108 116 153
   3 109  34  41
   3 109  34 204
   3 109  41  35
   3 109  41  34
   3 109  35  41
   3 109  35 183
   3 109 183 204
   3 109 183  35
   3 109 204  34
   3 109 204 183
   3 110  95  79
   3 110  95 139
   3 110  79  83
   3 110  79  95
   3 110  83 129
   3 110  83  79
   3 110 129  83
   3 110 129 170
   3 110 170 139
   3 110 170 129
   3 110 139  95
   3 110 139 170
   3 111  84  80
   3 111  84 130
   3 111  80  96
   3 111  80  84
   3 111  96  80
   3 111  96 140
   3 111 140  96
   3 111 140 171
   3 111 171 130
   3 111 171 140
   3 111 130  84
   3 111 130 171
   3 112 205 143
   3 112 205 193
   3 112 143  73
   3 112 143 205
   3 112  73 143
   3 112  73 120
   3 112 120  73
   3 112 120 193
   3 112 193 120
   3 112 193 205
   3 113 206 194
   3 113 206 143
   3 113 194 121
   3 113 194 206
   3 113 121  74
   3 113 121 194
   3 113  74 143
   3 113  74 121
   3 113 143 206
   3 113 143  74
   3 114 168 160
   3 114 168 172
   3 114 160  85
   3 114 160 168
   3 114  85 161
   3 114  85 160
   3 114 161  85
   3 114 161 169
   3 114 169 172
   3 114 169 161
   3 114 172 168
   3 114 172 169
   3 115 107  77
   3 115 107 152
   3 115  77  93
   3 115  77 107
   3 115  93  77
   3 115  93 133
   3 115 133  93
   3 115 133 175
   3 115 175 152
   3 115 175 133
   3 115 152 107
   3 115 152 175
   3 116  92  78
   3 116  92 134
   3 116  78 108
   3 116  78  92
   3 116 108  78
   3 116 108 153
   3 116 153 108
   3 116 153 176
   3 116 176 134
   3 116 176 153
   3 116 134  92
   3 116 134 176
   3 117  44 141
   4 117  44  47 118
   3 117 141  59
   3 117 141  44
   3 117  59 118
   3 117  59 141
   3 117 118  59
   4 117 118  47  44
   3 118  47 142
   4 118  47  44 117
   3 118 117  59
   4 118 117  44  47
   3 118  59 142
   3 118  59 117
   3 118 142  59
   3 118 142  47
   3 119 202  42
   3 119 202 162
   3 119  42 202
   3 119  42  76
   3 119  76  51
   3 119  76  42
   3 119  51  76
   3 119  51 151
   3 119 151 164
   3 119 151  51
   3 119 164  59
   3 119 164 151
   3 119  59 164
   3 119  59 162
   3 119 162  59
   3 119 162 202
   3 120 112  73
   3 120 112 193
   3 120  73 112
   3 120  73  81
   3 120  81  73
   3 120  81 107
   3 120 107  81
   3 120 107 152
   3 120 152 107
   3 120 152 193
   3 120 193 112
   3 120 193 152
   3 121 108  82
   3 121 108 153
   3 121  82  74
   3 121  82 108
   3 121  74 113
   3 121  74  82
   3 121 113 194
   3 121 113  74
   3 121 194 153
   3 121 194 113
   3 121 153 108
   3 121 153 194
   3 122 156  52
   4 122 156  48 197
   3 122  52 151
   3 122  52 156
   3 122 151 123
   3 122 151  52
   3 122 123 151
   4 122 123 198 197
   3 123 122 151
   4 123 122 197 198
   3 123 151 122
   3 123 151  51
   3 123  51 157
   3 123  51 151
   3 123 157  51
   4 123 157  48 198
   3 124  97  90
   3 124  97 135
   3 124  90  99
   3 124  90  97
   3 124  99  90
   3 124  99 148
   3 124 148  99
   3 124 148 185
   3 124 185 135
   3 124 185 148
   3 124 135  97
   3 124 135 185
   3 125 100  91
   3 125 100 149
   3 125  91  98
   3 125  91 100
   3 125  98  91
   3 125  98 136
   3 125 136  98
   3 125 136 186
   3 125 186 149
   3 125 186 136
   3 125 149 100
   3 125 149 186
   3 126  99  70
   3 126  99 148
   3 126  70 100
   3 126  70  99
   3 126 100  70
   3 126 100 149
   3 126 149 100
   3 126 149 208
   3 126 208 148
   3 126 208 149
   3 126 148  99
   3 126 148 208
   3 127 158 154
   4 127 158  29 179
   3 127 154  57
   3 127 154 158
   3 127  57 154
   4 127  57  58 128
   3 128  58 155
   4 128  58  57 127
   3 128 155 159
   3 128 155  58
   3 128 159 155
   4 128 159  29 180
   3 129 110  83
   3 129 110 170
   3 129  83 101
   3 129  83 110
   3 129 101 141
   3 129 101  83
   3 129 141 101
   3 129 141 189
   3 129 189 170
   3 129 189 141
   3 129 170 110
   3 129 170 189
   3 130 102  84
   3 130 102 142
   3 130  84 111
   3 130  84 102
   3 130 111  84
   3 130 111 171
   3 130 171 111
   3 130 171 190
   3 130 190 142
   3 130 190 171
   3 130 142 102
   3 130 142 190
   3 131  86  88
   3 131  86 191
   3 131  88  86
   3 131  88  95
   3 131  95  88
   3 131  95 139
   3 131 139  95
   3 131 139 191
   3 131 191  86
   3 131 191 139
   3 132  96  89
   3 132  96 140
   3 132  89  87
   3 132  89  96
   3 132  87 192
   3 132  87  89
   3 132 192 140
   3 132 192  87
   3 132 140  96
   3 132 140 192
   3 133 115  93
   3 133 115 175
   3 133  93  56
   3 133  93 115
   3 133  56 105
   3 133  56  93
   3 133 105 199
   3 133 105  56
   3 133 199 175
   3 133 199 105
   3 133 175 115
   3 133 175 199
   3 134 106  56
   3 134 106 200
   3 134  56  92
   3 134  56 106
   3 134  92 116
   3 134  92  56
   3 134 116  92
   3 134 116 176
   3 134 176 116
   3 134 176 200
   3 134 200 106
   3 134 200 176
   3 135 104  97
   3 135 104 157
   3 135  97 124
   3 135  97 104
   3 135 124  97
   3 135 124 185
   3 135 185 124
   3 135 185  48
   3 135  48 185
   3 135  48 157
   3 135 157 104
   3 135 157  48
   3 136 125  98
   3 136 125 186
   3 136  98 103
   3 136  98 125
   3 136 103  98
   3 136 103 156
   3 136 156 103
   3 136 156  48
   3 136  48 186
   3 136  48 156
   3 136 186 125
   3 136 186  48
   3 137  86 191
   4 137  86  87 138
   3 137 191  86
   4 137 191  44 195
   3 138 192  87
   4 138 192  47 196
   3 138  87 192
   4 138  87  86 137
   3 139 131  95
   3 139 131 191
   3 139  95 110
   3 139  95 131
   3 139 110  95
   3 139 110 170
   3 139 170 110
   3 139 170  44
   3 139  44 191
   3 139  44 170
   3 139 191 131
   3 139 191  44
   3 140 111  96
   3 140 111 171
   3 140  96 132
   3 140  96 111
   3 140 132  96
   3 140 132 192
   3 140 192 132
   3 140 192  47
   3 140  47 192
   3 140  47 171
   3 140 171 111
   3 140 171  47
   3 141 129 101
   3 141 129 189
   3 141 101  59
   3 141 101 129
   3 141  59 117
   3 141  59 101
   3 141 117  44
   3 141 117  59
   3 141  44 189
   3 141  44 117
   3 141 189 129
   3 141 189  44
   3 142 118  47
   3 142 118  59
   3 142  59 102
   3 142  59 118
   3 142 102 130
   3 142 102  59
   3 142 130 102
   3 142 130 190
   3 142 190 130
   3 142 190  47
   3 142  47 118
   3 142  47 190
   3 143 181 182
   3 143 181 205
   3 143 182 206
   3 143 182 181
   3 143 206 113
   3 143 206 182
   3 143 113 206
   3 143 113  74
   3 143  74 150
   3 143  74 113
   3 143 150  74
   3 143 150  73
   3 143  73 112
   3 143  73 150
   3 143 112 205
   3 143 112  73
   3 143 205 181
   3 143 205 112
   3 144  56  53
   3 144  56 207
   3 144  53  56
   3 144  53  65
   3 144  65  37
   3 144  65  53
   3 144  37 207
   3 144  37  65
   3 144 207  56
   3 144 207  37
   3 145  56  53
   3 145  56 209
   3 145 209  64
   3 145 209  56
   3 145  64  68
   3 145  64 209
   3 145  68  53
   3 145  68  64
   3 145  53  56
   3 145  53  68
   3 146  39 166
   3 146  39  26
   3 146 166  57
   3 146 166  39
   3 146  57 154
   3 146  57 166
   3 146 154  57
   3 146 154   3
   3 146   3  26
   3 146   3 154
   3 146  26  39
   3 146  26   3
   3 147   4 155
   3 147   4  27
   3 147 155  58
   3 147 155   4
   3 147  58 155
   3 147  58 167
   3 147 167  58
   3 147 167  40
   3 147  40 167
   3 147  40  27
   3 147  27   4
   3 147  27  40
   3 148 124  99
   3 148 124 185
   3 148  99 126
   3 148  99 124
   3 148 126  99
   3 148 126 208
   3 148 208 126
   3 148 208  48
   3 148  48 185
   3 148  48 208
   3 148 185 124
   3 148 185  48
   3 149 126 100
   3 149 126 208
   3 149 100 125
   3 149 100 126
   3 149 125 100
   3 149 125 186
   3 149 186 125
   3 149 186  48
   3 149  48 208
   3 149  48 186
   3 149 208 126
   3 149 208  48
   3 150 143  74
   3 150 143  73
   3 150  74  94
   3 150  74 143
   3 150  94  73
   3 150  94  74
   3 150  73 143
   3 150  73  94
   3 151 123 122
   3 151 123  51
   3 151 122  52
   3 151 122 123
   3 151  52 164
   3 151  52 122
   3 151 164 119
   3 151 164  52
   3 151 119  51
   3 151 119 164
   3 151  51 119
   3 151  51 123
   3 152 120 107
   3 152 120 193
   3 152 107 115
   3 152 107 120
   3 152 115 107
   3 152 115 175
   3 152 175 115
   3 152 175  38
   3 152  38 193
   3 152  38 175
   3 152 193 120
   3 152 193  38
   3 153 116 108
   3 153 116 176
   3 153 108 121
   3 153 108 116
   3 153 121 108
   3 153 121 194
   3 153 194 121
   3 153 194  43
   3 153  43 176
   3 153  43 194
   3 153 176 116
   3 153 176  43
   3 154 146  57
   3 154 146   3
   3 154  57 146
   3 154  57 127
   3 154 127 158
   3 154 127  57
   3 154 158   3
   3 154 158 127
   3 154   3 146
   3 154   3 158
   3 155 159 128
   3 155 159   4
   3 155 128  58
   3 155 128 159
   3 155  58 128
   3 155  58 147
   3 155 147   4
   3 155 147  58
   3 155   4 159
   3 155   4 147
   3 156 136 103
   3 156 136  48
   3 156 103  52
   3 156 103 136
   3 156  52 122
   3 156  52 103
   3 156 122  52
   4 156 122 197  48
   3 156  48 136
   4 156  48 197 122
   3 157 123  51
   4 157 123 198  48
   3 157  51 104
   3 157  51 123
   3 157 104  51
   3 157 104 135
   3 157 135 104
   3 157 135  48
   3 157  48 135
   4 157  48 198 123
   3 158   3  30
   3 158   3 154
   3 158 154 127
   3 158 154   3
   3 158 127 154
   4 158 127 179  29
   3 158  29  30
   4 158  29 179 127
   3 158  30   3
   3 158  30  29
   3 159 128 155
   4 159 128 180  29
   3 159 155 128
   3 159 155   4
   3 159   4  31
   3 159   4 155
   3 159  31  29
   3 159  31   4
   3 159  29  31
   4 159  29 180 128
   3 160  45   0
   3 160  45  85
   3 160  85 114
   3 160  85  45
   3 160 114 168
   3 160 114  85
   3 160 168 114
   3 160 168   0
   3 160   0  45
   3 160   0 168
   3 161 114  85
   3 161 114 169
   3 161  85  46
   3 161  85 114
   3 161  46   1
   3 161  46  85
   3 161   1 169
   3 161   1  46
   3 161 169 114
   3 161 169   1
   3 162 119 202
   3 162 119  59
   3 162  59 119
   3 162  59 101
   3 162 101  59
   3 162 101 202
   3 162 202 101
   3 162 202 119
   3 163 102  59
   3 163 102  34
   3 163  59 164
   3 163  59 102
   3 163 164  34
   3 163 164  59
   3 163  34 102
   3 163  34 164
   3 164  34 163
   3 164  34  41
   3 164 163  59
   3 164 163  34
   3 164  59 119
   3 164  59 163
   3 164 119 151
   3 164 119  59
   3 164 151  52
   3 164 151 119
   3 164  52 151
   3 164  52  75
   3 164  75  52
   3 164  75  41
   3 164  41  34
   3 164  41  75
   3 165 177  35
   3 165 177 187
   3 165  35  54
   3 165  35 177
   3 165  54  35
   3 165  54  68
   3 165  68  64
   3 165  68  54
   3 165  64 187
   3 165  64  68
   3 165 187 177
   3 165 187  64
   3 166  94  57
   3 166  94 173
   3 166  57 146
   3 166  57  94
   3 166 146  39
   3 166 146  57
   3 166  39 146
   3 166  39 173
   3 166 173  94
   3 166 173  39
   3 167 147  58
   3 167 147  40
   3 167  58  94
   3 167  58 147
   3 167  94 174
   3 167  94  58
   3 167 174  94
   3 167 174  40
   3 167  40 174
   3 167  40 147
   3 168 160 114
   3 168 160   0
   3 168 114 160
   3 168 114 172
   3 168 172 114
   3 168 172  28
   3 168  28  32
   3 168  28 172
   3 168  32   0
   3 168  32  28
   3 168   0 160
   3 168   0  32
   3 169  28 172
   3 169  28  33
   3 169 172 114
   3 169 172  28
   3 169 114 161
   3 169 114 172
   3 169 161 114
   3 169 161   1
   3 169   1  33
   3 169   1 161
   3 169  33  28
   3 169  33   1
   3 170 139 110
   3 170 139  44
   3 170 110 129
   3 170 110 139
   3 170 129 110
   3 170 129 189
   3 170 189 129
   3 170 189  44
   3 170  44 139
   3 170  44 189
   3 171 130 111
   3 171 130 190
   3 171 111 140
   3 171 111 130
   3 171 140 111
   3 171 140  47
   3 171  47 190
   3 171  47 140
   3 171 190 130
   3 171 190  47
   3 172 168 114
   3 172 168  28
   3 172 114 168
   3 172 114 169
   3 172 169  28
   3 172 169 114
   3 172  28 168
   3 172  28 169
   3 173  73  94
   3 173  73  39
   3 173  94  73
   3 173  94 166
   3 173 166  94
   3 173 166  39
   3 173  39 166
   3 173  39  73
   3 174 167  94
   3 174 167  40
   3 174  94  74
   3 174  94 167
   3 174  74  40
   3 174  74  94
   3 174  40 167
   3 174  40  74
   3 175 152 115
   3 175 152  38
   3 175 115 133
   3 175 115 152
   3 175 133 115
   3 175 133 199
   3 175 199 133
   3 175 199  38
   3 175  38 152
   3 175  38 199
   3 176 134 116
   3 176 134 200
   3 176 116 153
   3 176 116 134
   3 176 153 116
   3 176 153  43
   3 176  43 200
   3 176  43 153
   3 176 200 134
   3 176 200  43
   3 177  35 165
   3 177  35   2
   3 177 165  35
   3 177 165 187
   3 177 187 165
   3 177 187   6
   3 177   6   2
   3 177   6 187
   3 177   2  35
   3 177   2   6
   3 178   7 188
   3 178   7   5
   3 178 188 201
   3 178 188   7
   3 178 201  36
   3 178 201 188
   3 178  36 201
   3 178  36   5
   3 178   5   7
   3 178   5  36
   3 179  29 180
   4 179  29 158 127
   3 179 180  29
   4 179 180 128 127
   3 180  29 179
   4 180  29 159 128
   3 180 179  29
   4 180 179 127 128
   3 181  38 205
   4 181  38  43 182
   3 181 182 143
   4 181 182  43  38
   3 181 143 182
   3 181 143 205
   3 181 205 143
   3 181 205  38
   3 182  43 206
   4 182  43  38 181
   3 182 206 143
   3 182 206  43
   3 182 143 181
   3 182 143 206
   3 182 181 143
   4 182 181  38  43
   3 183   9 204
   3 183   9   2
   3 183 204 109
   3 183 204   9
   3 183 109  35
   3 183 109 204
   3 183  35 109
   3 183  35   2
   3 183   2  35
   3 183   2   9
   3 184  36  69
   3 184  36   5
   3 184  69  36
   3 184  69 203
   3 184 203  69
   3 184 203   8
   3 184   8   5
   3 184   8 203
   3 184   5  36
   3 184   5   8
   3 185 135 124
   3 185 135  48
   3 185 124 148
   3 185 124 135
   3 185 148 124
   3 185 148  48
   3 185  48 135
   3 185  48 148
   3 186 149 125
   3 186 149  48
   3 186 125 136
   3 186 125 149
   3 186 136 125
   3 186 136  48
   3 186  48 149
   3 186  48 136
   3 187 177 165
   3 187 177   6
   3 187 165 177
   3 187 165  64
   3 187  64   6
   3 187  64 165
   3 187   6 177
   3 187   6  64
   3 188  37 201
   3 188  37   7
   3 188 201  37
   3 188 201 178
   3 188 178   7
   3 188 178 201
   3 188   7  37
   3 188   7 178
   3 189 170 129
   3 189 170  44
   3 189 129 141
   3 189 129 170
   3 189 141 129
   3 189 141  44
   3 189  44 170
   3 189  44 141
   3 190 142 130
   3 190 142  47
   3 190 130 171
   3 190 130 142
   3 190 171 130
   3 190 171  47
   3 190  47 142
   3 190  47 171
   3 191 137  86
   4 191 137 195  44
   3 191  86 137
   3 191  86 131
   3 191 131  86
   3 191 131 139
   3 191 139 131
   3 191 139  44
   3 191  44 139
   4 191  44 195 137
   3 192 140 132
   3 192 140  47
   3 192 132  87
   3 192 132 140
   3 192  87 138
   3 192  87 132
   3 192 138  87
   4 192 138 196  47
   3 192  47 140
   4 192  47 196 138
   3 193 112 205
   3 193 112 120
   3 193 120 112
   3 193 120 152
   3 193 152 120
   3 193 152  38
   3 193  38 205
   3 193  38 152
   3 193 205 112
   3 193 205  38
   3 194 153 121
   3 194 153  43
   3 194 121 113
   3 194 121 153
   3 194 113 206
   3 194 113 121
   3 194 206 113
   3 194 206  43
   3 194  43 206
   3 194  43 153
   3 197  48 198
   4 197  48 156 122
   3 197 198  48
   4 197 198 123 122
   3 198  48 197
   4 198  48 157 123
   3 198 197  48
   4 198 197 122 123
   3 199 175 133
   3 199 175  38
   3 199 133 105
   3 199 133 175
   3 199 105  38
   3 199 105 133
   3 199  38 175
   3 199  38 105
   3 200 106  43
   3 200 106 134
   3 200 134 106
   3 200 134 176
   3 200 176 134
   3 200 176  43
   3 200  43 106
   3 200  43 176
   3 201  37  65
   3 201  37 188
   3 201  65  37
   3 201  65  55
   3 201  55  65
   3 201  55  36
   3 201  36  55
   3 201  36 178
   3 201 178 188
   3 201 178  36
   3 201 188  37
   3 201 188 178
   3 202 101  83
   3 202 101 162
   3 202  83 101
   3 202  83  16
   3 202  16  12
   3 202  16  83
   3 202  12   8
   3 202  12  16
   3 202   8 203
   3 202   8  12
   3 202 203  69
   3 202 203   8
   3 202  69  42
   3 202  69 203
   3 202  42 119
   3 202  42  69
   3 202 119  42
   3 202 119 162
   3 202 162 119
   3 202 162 101
   3 203 184  69
   3 203 184   8
   3 203  69 184
   3 203  69 202
   3 203 202   8
   3 203 202  69
   3 203   8 184
   3 203   8 202
   3 204  34 109
   3 204  34   9
   3 204 109  34
   3 204 109 183
   3 204 183   9
   3 204 183 109
   3 204   9  34
   3 204   9 183
   3 205 181  38
   3 205 181 143
   3 205 143 181
   3 205 143 112
   3 205 112 143
   3 205 112 193
   3 205 193 112
   3 205 193  38
   3 205  38 193
   3 205  38 181
   3 206 194 113
   3 206 194  43
   3 206 113 194
   3 206 113 143
   3 206 143 182
   3 206 143 113
   3 206 182  43
   3 206 182 143
   3 206  43 182
   3 206  43 194
   3 207  92  56
   3 207  92  37
   3 207  56 144
   3 207  56  92
   3 207 144  56
   3 207 144  37
   3 207  37  92
   3 207  37 144
   3 208 148 126
   3 208 148  48
   3 208 126 149
   3 208 126 148
   3 208 149 126
   3 208 149  48
   3 208  48 148
   3 208  48 149
   3 209  93  64
   3 209  93  56
   3 209  64  93
   3 209  64 145
   3 209 145  56
   3 209 145  64
   3 209  56  93
   3 209  56 145
