# Generated by dad_to_polygons. Vertex data from Humppa's .off file,
# polygons parsed from .dad file.
COFF
210 768 210
-6.722165 1.425921 7.147535 0.500000 0.500000 0.500000 1.0
-6.722174 -1.425915 7.147537 0.500000 0.500000 0.500000 1.0
-0.037091 -2.594067 6.762808 0.500000 0.500000 0.500000 1.0
7.653861 -1.596509 7.113205 0.500000 0.500000 0.500000 1.0
7.653868 1.596509 7.113203 0.500000 0.500000 0.500000 1.0
-0.037091 2.594067 6.762808 0.500000 0.500000 0.500000 1.0
1.229225 -2.234247 6.932040 0.500000 0.500000 0.500000 1.0
1.229228 2.234246 6.932041 0.500000 0.500000 0.500000 1.0
-1.255197 2.234001 6.884582 0.500000 0.500000 0.500000 1.0
-1.255197 -2.234001 6.884582 0.500000 0.500000 0.500000 1.0
2.076209 -1.842896 7.292523 0.500000 0.500000 0.500000 1.0
2.076217 1.842900 7.292519 0.500000 0.500000 0.500000 1.0
-2.098229 1.855498 7.267128 0.500000 0.500000 0.500000 1.0
-2.098229 -1.855498 7.267128 0.500000 0.500000 0.500000 1.0
3.020259 -2.020461 7.017380 0.500000 0.500000 0.500000 1.0
3.020276 2.020463 7.017408 0.500000 0.500000 0.500000 1.0
-3.018913 2.020483 6.914447 0.500000 0.500000 0.500000 1.0
-3.018913 -2.020482 6.914447 0.500000 0.500000 0.500000 1.0
4.087396 -1.880776 7.267823 0.500000 0.500000 0.500000 1.0
4.087397 1.880777 7.267822 0.500000 0.500000 0.500000 1.0
-4.071009 1.853625 7.241635 0.500000 0.500000 0.500000 1.0
-4.071009 -1.853625 7.241636 0.500000 0.500000 0.500000 1.0
5.073269 -1.739104 7.246762 0.500000 0.500000 0.500000 1.0
5.073269 1.739104 7.246761 0.500000 0.500000 0.500000 1.0
-5.091326 1.629013 7.263998 0.500000 0.500000 0.500000 1.0
-5.091327 -1.629013 7.263998 0.500000 0.500000 0.500000 1.0
6.080251 -1.775958 7.111508 0.500000 0.500000 0.500000 1.0
6.080245 1.775958 7.111502 0.500000 0.500000 0.500000 1.0
-8.316993 0.000143 7.120155 0.500000 0.500000 0.500000 1.0
10.259485 -0.000218 7.064240 0.500000 0.500000 0.500000 1.0
9.340371 -0.917240 7.228059 0.500000 0.500000 0.500000 1.0
9.340057 0.917195 7.227981 0.500000 0.500000 0.500000 1.0
-7.598284 0.720569 7.142150 0.500000 0.500000 0.500000 1.0
-7.598141 -0.720443 7.142152 0.500000 0.500000 0.500000 1.0
-2.004161 -1.945583 5.852293 0.500000 0.500000 0.500000 1.0
-0.113351 -2.253037 5.076515 0.500000 0.500000 0.500000 1.0
-0.113350 2.253037 5.076518 0.500000 0.500000 0.500000 1.0
2.166678 1.843627 5.958396 0.500000 0.500000 0.500000 1.0
3.561665 -0.619536 2.341013 1.0 1.0 0.0 1.0
5.603761 -1.698107 6.068108 0.500000 0.500000 0.500000 1.0
5.603754 1.698108 6.068102 0.500000 0.500000 0.500000 1.0
-1.059945 -1.816097 4.178545 0.500000 0.500000 0.500000 1.0
-1.059936 1.816099 4.178544 0.500000 0.500000 0.500000 1.0
3.561666 0.619532 2.341013 1.0 1.0 0.0 1.0
-3.586374 0.660418 2.528474 1.0 1.0 0.0 1.0
-5.236051 1.538198 6.234527 0.500000 0.500000 0.500000 1.0
-5.236056 -1.538194 6.234527 0.500000 0.500000 0.500000 1.0
-3.586377 -0.660417 2.528474 1.0 1.0 0.0 1.0
0.078302 0.000001 1.030606 1.0 1.0 0.0 1.0
4.586499 -1.809047 6.415057 0.500000 0.500000 0.500000 1.0
4.586490 1.809069 6.415065 0.500000 0.500000 0.500000 1.0
-1.440608 0.873030 3.047836 0.500000 0.500000 0.500000 1.0
-1.440607 -0.873031 3.047844 0.500000 0.500000 0.500000 1.0
1.881929 -0.000022 4.542449 0.500000 0.500000 0.500000 1.0
0.781773 -1.933909 4.008822 0.500000 0.500000 0.500000 1.0
0.780111 1.933945 4.008860 0.500000 0.500000 0.500000 1.0
2.120581 0.000376 5.181358 0.500000 0.500000 0.500000 1.0
7.244829 -0.757642 4.595417 1.0 1.0 0.0 1.0
7.244829 0.757641 4.595417 1.0 1.0 0.0 1.0
-2.193699 0.000016 4.720518 0.500000 0.500000 0.500000 1.0
1.228639 1.488652 3.911769 0.500000 0.500000 0.500000 1.0
1.228657 -1.488659 3.911746 0.500000 0.500000 0.500000 1.0
-0.226704 -1.975673 4.009040 0.500000 0.500000 0.500000 1.0
-0.226737 1.975676 4.009044 0.500000 0.500000 0.500000 1.0
2.166632 -1.843591 5.958369 0.500000 0.500000 0.500000 1.0
1.518914 1.667668 4.690916 0.500000 0.500000 0.500000 1.0
-4.584501 1.727739 6.273179 0.500000 0.500000 0.500000 1.0
-4.584501 -1.727739 6.273181 0.500000 0.500000 0.500000 1.0
1.518876 -1.667687 4.690903 0.500000 0.500000 0.500000 1.0
-1.164802 2.070320 4.843232 1.0 1.0 0.0 1.0
1.466397 -0.000018 3.621066 0.500000 0.500000 0.500000 1.0
4.078443 -1.878673 5.840849 0.500000 0.500000 0.500000 1.0
4.078449 1.878692 5.840843 0.500000 0.500000 0.500000 1.0
5.492295 -1.075644 4.640727 0.500000 0.500000 0.500000 1.0
5.492294 1.075643 4.640724 0.500000 0.500000 0.500000 1.0
-0.707775 -1.725562 3.539705 0.500000 0.500000 0.500000 1.0
-0.707770 1.725553 3.539703 0.500000 0.500000 0.500000 1.0
3.129192 -1.892996 5.420462 0.500000 0.500000 0.500000 1.0
3.129237 1.893027 5.420488 0.500000 0.500000 0.500000 1.0
-3.984662 1.797347 5.863491 0.500000 0.500000 0.500000 1.0
-3.984663 -1.797347 5.863493 0.500000 0.500000 0.500000 1.0
4.674172 -1.805126 5.094981 0.500000 0.500000 0.500000 1.0
4.674139 1.805151 5.094987 0.500000 0.500000 0.500000 1.0
-3.026948 1.903261 5.420593 0.500000 0.500000 0.500000 1.0
-3.026947 -1.903262 5.420590 0.500000 0.500000 0.500000 1.0
-6.021810 0.000004 5.592025 0.500000 0.500000 0.500000 1.0
-5.505112 0.729854 4.683300 0.500000 0.500000 0.500000 1.0
-5.505139 -0.729825 4.683283 0.500000 0.500000 0.500000 1.0
-5.219275 1.133933 5.185901 0.500000 0.500000 0.500000 1.0
-5.219291 -1.133929 5.185938 0.500000 0.500000 0.500000 1.0
0.677522 1.787890 3.250192 1.000000 1.000000 1.000000 1.0
0.677520 -1.787903 3.250128 1.000000 1.000000 1.000000 1.0
2.609504 1.387432 4.787871 0.500000 0.500000 0.500000 1.0
2.609594 -1.387670 4.787891 0.500000 0.500000 0.500000 1.0
6.044368 0.000005 4.853190 0.500000 0.500000 0.500000 1.0
-4.544152 1.521761 5.064038 0.500000 0.500000 0.500000 1.0
-4.544155 -1.521760 5.064043 0.500000 0.500000 0.500000 1.0
-0.038800 1.819249 3.006551 1.000000 1.000000 1.000000 1.0
-0.038806 -1.819251 3.006583 1.000000 1.000000 1.000000 1.0
1.038571 1.268124 3.028473 1.000000 1.000000 1.000000 1.0
1.038578 -1.268127 3.028467 1.000000 1.000000 1.000000 1.0
-2.517166 1.706608 4.865027 0.500000 0.500000 0.500000 1.0
-2.517185 -1.706615 4.865023 0.500000 0.500000 0.500000 1.0
-0.628620 -1.538619 2.675731 1.000000 1.000000 1.000000 1.0
-0.628608 1.538620 2.675739 1.000000 1.000000 1.000000 1.0
2.554367 -0.784832 3.550782 0.500000 0.500000 0.500000 1.0
2.554381 0.784789 3.550741 0.500000 0.500000 0.500000 1.0
4.086595 -1.846970 4.614774 0.500000 0.500000 0.500000 1.0
4.086622 1.846965 4.614784 0.500000 0.500000 0.500000 1.0
-1.164800 -2.070326 4.843232 1.0 1.0 0.0 1.0
-3.975562 1.697433 4.753262 0.500000 0.500000 0.500000 1.0
-3.975570 -1.697432 4.753265 0.500000 0.500000 0.500000 1.0
5.104868 -0.953218 3.576142 0.500000 0.500000 0.500000 1.0
5.104873 0.953209 3.576110 0.500000 0.500000 0.500000 1.0
-6.723147 0.000006 5.007183 1.0 1.0 0.0 1.0
3.282463 -1.695134 4.396283 0.500000 0.500000 0.500000 1.0
3.282639 1.694772 4.396287 0.500000 0.500000 0.500000 1.0
-2.600175 0.735331 3.566021 0.500000 0.500000 0.500000 1.0
-2.600182 -0.735296 3.566011 0.500000 0.500000 0.500000 1.0
-1.917284 0.835418 4.495857 0.500000 0.500000 0.500000 1.0
4.698637 -1.591011 3.874276 0.500000 0.500000 0.500000 1.0
4.698635 1.591008 3.874268 0.500000 0.500000 0.500000 1.0
-1.594304 -0.481999 2.260209 1.000000 1.000000 1.000000 1.0
-1.594305 0.482001 2.260210 1.000000 1.000000 1.000000 1.0
0.564280 1.622989 2.436887 1.000000 1.000000 1.000000 1.0
0.564312 -1.622974 2.436877 1.000000 1.000000 1.000000 1.0
1.211645 -0.000017 2.680705 1.000000 1.000000 1.000000 1.0
8.537577 -0.747419 5.700847 0.500000 0.500000 0.500000 1.0
8.537579 0.747362 5.700863 0.500000 0.500000 0.500000 1.0
-3.156347 1.759431 4.347483 0.500000 0.500000 0.500000 1.0
-3.156538 -1.759216 4.347479 0.500000 0.500000 0.500000 1.0
-4.903097 1.230835 4.150872 0.500000 0.500000 0.500000 1.0
-4.903112 -1.230817 4.150889 0.500000 0.500000 0.500000 1.0
2.822447 -1.307072 4.176449 0.500000 0.500000 0.500000 1.0
2.822318 1.306967 4.176439 0.500000 0.500000 0.500000 1.0
0.040636 1.653621 2.075840 1.000000 1.000000 1.000000 1.0
0.040590 -1.653232 2.075834 1.000000 1.000000 1.000000 1.0
-5.513398 0.757120 3.426261 0.500000 0.500000 0.500000 1.0
-5.513398 -0.757094 3.426257 0.500000 0.500000 0.500000 1.0
-4.515851 1.432008 3.954022 0.500000 0.500000 0.500000 1.0
-4.515849 -1.432005 3.954021 0.500000 0.500000 0.500000 1.0
-2.790629 1.450353 4.077646 0.500000 0.500000 0.500000 1.0
-2.790613 -1.450559 4.077651 0.500000 0.500000 0.500000 1.0
5.403579 -0.000004 3.622076 0.500000 0.500000 0.500000 1.0
2.097531 0.975183 5.348041 0.500000 0.500000 0.500000 1.0
2.097413 -0.975392 5.347732 0.500000 0.500000 0.500000 1.0
6.830060 -1.632748 6.111184 0.500000 0.500000 0.500000 1.0
6.830057 1.632748 6.111184 0.500000 0.500000 0.500000 1.0
0.914767 0.997035 2.190718 1.000000 1.000000 1.000000 1.0
0.914757 -0.997066 2.190731 1.000000 1.000000 1.000000 1.0
5.669529 0.000001 4.305326 0.500000 0.500000 0.500000 1.0
-1.898885 0.000001 3.168653 0.500000 0.500000 0.500000 1.0
4.043942 -1.649281 3.562420 1.000000 1.000000 1.000000 1.0
4.043914 1.649260 3.562442 1.000000 1.000000 1.000000 1.0
7.549620 -1.421105 6.102707 0.500000 0.500000 0.500000 1.0
7.549611 1.421102 6.102708 0.500000 0.500000 0.500000 1.0
-0.798355 -1.198417 1.957601 1.000000 1.000000 1.000000 1.0
-0.798351 1.198421 1.957610 1.000000 1.000000 1.000000 1.0
8.710628 -0.877634 6.486502 0.500000 0.500000 0.500000 1.0
8.710618 0.877579 6.486529 0.500000 0.500000 0.500000 1.0
-6.602436 1.099907 6.147336 0.500000 0.500000 0.500000 1.0
-6.602443 -1.099900 6.147334 0.500000 0.500000 0.500000 1.0
-1.927161 1.324375 5.207510 0.500000 0.500000 0.500000 1.0
-1.927152 -1.324364 5.207511 0.500000 0.500000 0.500000 1.0
-1.917292 -0.835418 4.495866 0.500000 0.500000 0.500000 1.0
1.021598 -2.009029 4.690934 1.0 1.0 0.0 1.0
6.274223 -1.632709 5.512182 0.500000 0.500000 0.500000 1.0
6.274222 1.632708 5.512178 0.500000 0.500000 0.500000 1.0
-7.101483 0.872637 6.292733 0.500000 0.500000 0.500000 1.0
-7.101474 -0.872605 6.292739 0.500000 0.500000 0.500000 1.0
-3.851727 1.644988 3.657673 0.500000 0.500000 0.500000 1.0
-3.851727 -1.644983 3.657653 0.500000 0.500000 0.500000 1.0
-7.391433 0.000077 6.128763 0.500000 0.500000 0.500000 1.0
5.879532 -1.222674 5.152512 0.500000 0.500000 0.500000 1.0
5.879532 1.222671 5.152509 0.500000 0.500000 0.500000 1.0
3.420345 -1.524682 3.429845 1.000000 1.000000 1.000000 1.0
3.420367 1.524691 3.429862 1.000000 1.000000 1.000000 1.0
0.610138 -2.303594 5.825950 0.500000 0.500000 0.500000 1.0
0.610181 2.303581 5.825958 0.500000 0.500000 0.500000 1.0
9.677814 -0.256044 6.155247 0.500000 0.500000 0.500000 1.0
9.677782 0.255839 6.155227 0.500000 0.500000 0.500000 1.0
4.772086 -0.310216 2.843854 1.000000 1.000000 1.000000 1.0
4.772077 0.310203 2.843854 1.000000 1.000000 1.000000 1.0
-0.598119 -2.396573 5.902142 0.500000 0.500000 0.500000 1.0
-0.598118 2.396572 5.902142 0.500000 0.500000 0.500000 1.0
0.529118 1.073085 1.673833 1.000000 1.000000 1.000000 1.0
0.529114 -1.073084 1.673834 1.000000 1.000000 1.000000 1.0
1.188289 -2.099178 5.825698 0.500000 0.500000 0.500000 1.0
1.188227 2.099201 5.825702 0.500000 0.500000 0.500000 1.0
-3.333288 1.477181 3.442876 1.000000 1.000000 1.000000 1.0
-3.333298 -1.477184 3.442862 1.000000 1.000000 1.000000 1.0
-4.372215 1.049664 3.479547 1.000000 1.000000 1.000000 1.0
-4.372229 -1.049656 3.479561 1.000000 1.000000 1.000000 1.0
4.329392 -1.251862 3.087341 1.000000 1.000000 1.000000 1.0
4.329389 1.251852 3.087336 1.000000 1.000000 1.000000 1.0
-4.760469 0.704251 2.922239 1.000000 1.000000 1.000000 1.0
-4.760468 -0.704238 2.922238 1.000000 1.000000 1.000000 1.0
-0.892033 -0.254445 1.585752 1.000000 1.000000 1.000000 1.0
-0.892033 0.254447 1.585752 1.000000 1.000000 1.000000 1.0
3.061769 -1.058466 3.228471 1.000000 1.000000 1.000000 1.0
3.061647 1.058492 3.228504 1.000000 1.000000 1.000000 1.0
1.021609 2.009014 4.690949 1.0 1.0 0.0 1.0
-2.004160 1.945583 5.852291 0.500000 0.500000 0.500000 1.0
-1.168190 2.152388 5.858766 0.500000 0.500000 0.500000 1.0
-1.168188 -2.152391 5.858766 0.500000 0.500000 0.500000 1.0
4.338913 -0.787626 2.956685 1.000000 1.000000 1.000000 1.0
4.338916 0.787620 2.956669 1.000000 1.000000 1.000000 1.0
2.143696 0.925075 5.567754 0.500000 0.500000 0.500000 1.0
0.647898 -0.000008 1.855688 1.000000 1.000000 1.000000 1.0
2.143608 -0.924458 5.568175 0.500000 0.500000 0.500000 1.0
3 0 24 45
3 0 45 24
3 0 45 160
3 0 160 45
3 0 168 160
3 0 160 168
3 1 46 161
3 1 161 46
3 2 183 35
3 2 35 183
3 3 146 154
3 3 154 146
3 3 154 158
3 3 158 154
3 4 27 147
3 4 147 27
3 4 147 155
3 4 155 147
3 4 159 155
3 4 155 159
3 5 7 178
3 5 178 7
3 5 36 184
3 5 184 36
3 5 178 36
3 5 36 178
3 5 184 8
3 5 8 184
3 6 10 64
3 6 64 10
3 6 187 64
3 6 64 187
3 7 188 178
3 7 178 188
3 8 184 203
3 8 203 184
3 8 203 202
3 8 202 203
3 9 183 2
3 9 2 183
3 9 183 204
3 9 204 183
3 10 64 14
3 10 14 64
3 11 37 7
3 11 7 37
3 12 8 202
3 12 202 8
3 13 34 9
3 13 9 34
3 14 64 77
3 14 77 64
3 14 77 71
3 14 71 77
3 15 11 37
3 15 37 11
3 15 72 78
3 15 78 72
3 15 78 37
3 15 37 78
3 16 83 202
3 16 202 83
3 17 13 34
3 17 34 13
3 17 34 84
3 17 84 34
3 17 84 80
3 17 80 84
3 18 14 71
3 18 71 14
3 19 50 72
3 19 72 50
3 19 72 15
3 19 15 72
3 20 16 79
3 20 79 16
3 20 24 66
3 20 66 24
3 21 67 80
3 21 80 67
3 21 80 17
3 21 17 80
3 22 26 39
3 22 39 26
3 22 39 49
3 22 49 39
3 22 49 18
3 22 18 49
3 23 40 50
3 23 50 40
3 23 50 19
3 23 19 50
3 25 1 46
3 25 46 1
3 25 46 67
3 25 67 46
3 25 67 21
3 25 21 67
3 26 39 146
3 26 146 39
3 27 23 40
3 27 40 23
3 28 33 169
3 28 169 33
3 28 169 172
3 28 172 169
3 29 159 31
3 29 31 159
3 30 158 3
3 30 3 158
3 30 158 29
3 30 29 158
3 31 159 4
3 31 4 159
3 32 168 0
3 32 0 168
3 33 169 1
3 33 1 169
3 34 84 102
3 34 102 84
3 34 102 163
3 34 163 102
3 34 109 204
3 34 204 109
3 34 164 41
3 34 41 164
3 34 204 9
3 34 9 204
3 35 2 177
3 35 177 2
3 35 41 62
3 35 62 41
3 35 54 165
3 35 165 54
3 35 62 54
3 35 54 62
3 35 109 41
3 35 41 109
3 36 63 42
3 36 42 63
3 36 201 178
3 36 178 201
3 37 7 188
3 37 188 7
3 37 78 92
3 37 92 78
3 37 144 65
3 37 65 144
3 37 207 144
3 37 144 207
3 38 43 106
3 38 106 43
3 38 43 182
3 38 182 43
3 38 105 199
3 38 199 105
3 38 106 105
3 38 105 106
3 38 152 175
3 38 175 152
3 38 175 199
3 38 199 175
3 38 182 181
3 38 181 182
3 38 193 152
3 38 152 193
3 39 73 81
3 39 81 73
3 39 166 173
3 39 173 166
3 39 173 73
3 39 73 173
3 40 27 147
3 40 147 27
3 40 74 82
3 40 82 74
3 40 82 50
3 40 50 82
3 40 147 167
3 40 167 147
3 40 174 74
3 40 74 174
3 41 75 62
3 41 62 75
3 41 109 34
3 41 34 109
3 41 164 75
3 41 75 164
3 42 36 69
3 42 69 36
3 42 63 76
3 42 76 63
3 42 69 202
3 42 202 69
3 42 119 76
3 42 76 119
3 42 202 119
3 42 119 202
3 43 106 200
3 43 200 106
3 43 153 176
3 43 176 153
3 43 176 200
3 43 200 176
3 43 194 206
3 43 206 194
3 44 117 118
3 44 118 117
3 44 118 47
3 44 47 118
3 44 139 191
3 44 191 139
3 44 141 117
3 44 117 141
3 44 189 141
3 44 141 189
3 44 189 170
3 44 170 189
3 44 195 196
3 44 196 195
3 44 196 47
3 44 47 196
3 45 66 24
3 45 24 66
3 46 161 85
3 46 85 161
3 47 140 171
3 47 171 140
3 47 192 140
3 47 140 192
3 48 122 156
3 48 156 122
3 48 123 198
3 48 198 123
3 48 135 157
3 48 157 135
3 48 136 156
3 48 156 136
3 48 157 123
3 48 123 157
3 48 185 148
3 48 148 185
3 48 186 136
3 48 136 186
3 48 197 122
3 48 122 197
3 48 208 149
3 48 149 208
3 49 39 81
3 49 81 39
3 49 71 18
3 49 18 71
3 49 81 71
3 49 71 81
3 50 82 72
3 50 72 82
3 51 104 157
3 51 157 104
3 51 119 76
3 51 76 119
3 51 151 123
3 51 123 151
3 52 103 75
3 52 75 103
3 52 156 122
3 52 122 156
3 53 65 60
3 53 60 65
3 53 68 61
3 53 61 68
3 53 144 56
3 53 56 144
3 53 145 56
3 53 56 145
3 54 61 68
3 54 68 61
3 54 62 91
3 54 91 62
3 55 60 65
3 55 65 60
3 55 60 90
3 55 90 60
3 55 63 36
3 55 36 63
3 56 92 207
3 56 207 92
3 56 106 105
3 56 105 106
3 56 133 93
3 56 93 133
3 56 134 92
3 56 92 134
3 56 145 209
3 56 209 145
3 56 207 144
3 56 144 207
3 57 94 58
3 57 58 94
3 57 127 154
3 57 154 127
3 57 154 146
3 57 146 154
3 58 94 167
3 58 167 94
3 58 127 57
3 58 57 127
3 58 128 127
3 58 127 128
3 59 117 118
3 59 118 117
3 59 119 162
3 59 162 119
3 59 141 101
3 59 101 141
3 59 142 118
3 59 118 142
3 59 162 101
3 59 101 162
3 59 163 164
3 59 164 163
3 60 70 53
3 60 53 70
3 60 70 99
3 60 99 70
3 60 99 90
3 60 90 99
3 61 91 54
3 61 54 91
3 62 98 91
3 62 91 98
3 64 187 165
3 64 165 187
3 64 209 145
3 64 145 209
3 65 144 53
3 65 53 144
3 65 201 55
3 65 55 201
3 66 79 20
3 66 20 79
3 66 88 45
3 66 45 88
3 66 95 88
3 66 88 95
3 67 89 96
3 67 96 89
3 68 145 53
3 68 53 145
3 68 165 54
3 68 54 165
3 68 165 64
3 68 64 165
3 69 36 184
3 69 184 36
3 69 184 203
3 69 203 184
3 70 53 61
3 70 61 53
3 70 99 126
3 70 126 99
3 70 100 61
3 70 61 100
3 71 77 107
3 71 107 77
3 71 107 81
3 71 81 107
3 72 78 108
3 72 108 78
3 73 112 143
3 73 143 112
3 73 120 81
3 73 81 120
3 73 143 150
3 73 150 143
3 73 150 94
3 73 94 150
3 73 173 94
3 73 94 173
3 74 113 121
3 74 121 113
3 74 143 113
3 74 113 143
3 74 150 143
3 74 143 150
3 75 52 164
3 75 164 52
3 75 98 103
3 75 103 98
3 76 63 97
3 76 97 63
3 77 93 64
3 77 64 93
3 77 115 107
3 77 107 115
3 78 108 116
3 78 116 108
3 78 116 92
3 78 92 116
3 79 16 83
3 79 83 16
3 79 66 95
3 79 95 66
3 80 111 84
3 80 84 111
3 82 74 121
3 82 121 74
3 82 108 72
3 82 72 108
3 82 121 108
3 82 108 121
3 83 101 129
3 83 129 101
3 85 45 88
3 85 88 45
3 85 45 160
3 85 160 45
3 85 87 86
3 85 86 87
3 85 114 160
3 85 160 114
3 86 87 138
3 86 138 87
3 86 88 85
3 86 85 88
3 86 131 88
3 86 88 131
3 86 138 137
3 86 137 138
3 87 85 89
3 87 89 85
3 87 138 192
3 87 192 138
3 87 192 132
3 87 132 192
3 88 95 131
3 88 131 95
3 89 46 67
3 89 67 46
3 89 46 85
3 89 85 46
3 89 87 132
3 89 132 87
3 89 96 132
3 89 132 96
3 90 55 63
3 90 63 55
3 90 99 124
3 90 124 99
3 90 124 97
3 90 97 124
3 91 61 100
3 91 100 61
3 91 98 125
3 91 125 98
3 91 125 100
3 91 100 125
3 92 207 37
3 92 37 207
3 93 56 209
3 93 209 56
3 93 115 77
3 93 77 115
3 93 115 133
3 93 133 115
3 93 209 64
3 93 64 209
3 94 166 57
3 94 57 166
3 94 173 166
3 94 166 173
3 94 174 167
3 94 167 174
3 95 110 79
3 95 79 110
3 96 80 67
3 96 67 80
3 96 111 80
3 96 80 111
3 96 111 140
3 96 140 111
3 97 90 63
3 97 63 90
3 97 104 76
3 97 76 104
3 97 124 135
3 97 135 124
3 97 135 104
3 97 104 135
3 98 75 62
3 98 62 75
3 98 136 125
3 98 125 136
3 100 70 126
3 100 126 70
3 100 126 149
3 100 149 126
3 101 83 202
3 101 202 83
3 102 59 142
3 102 142 59
3 102 59 163
3 102 163 59
3 103 52 156
3 103 156 52
3 103 136 98
3 103 98 136
3 104 76 51
3 104 51 76
3 105 56 133
3 105 133 56
3 106 56 134
3 106 134 56
3 106 134 200
3 106 200 134
3 107 81 120
3 107 120 81
3 107 120 152
3 107 152 120
3 108 121 153
3 108 153 121
3 108 153 116
3 108 116 153
3 110 83 79
3 110 79 83
3 110 83 129
3 110 129 83
3 110 139 95
3 110 95 139
3 110 170 139
3 110 139 170
3 111 130 84
3 111 84 130
3 111 140 171
3 111 171 140
3 111 171 130
3 111 130 171
3 112 120 73
3 112 73 120
3 112 193 120
3 112 120 193
3 112 205 193
3 112 193 205
3 113 121 194
3 113 194 121
3 113 206 194
3 113 194 206
3 114 161 169
3 114 169 161
3 115 107 152
3 115 152 107
3 115 152 175
3 115 175 152
3 116 92 134
3 116 134 92
3 117 59 141
3 117 141 59
3 118 142 47
3 118 47 142
3 119 151 51
3 119 51 151
3 119 164 59
3 119 59 164
3 119 164 151
3 119 151 164
3 120 193 152
3 120 152 193
3 122 52 151
3 122 151 52
3 123 51 157
3 123 157 51
3 123 151 122
3 123 122 151
3 123 197 122
3 123 122 197
3 123 198 197
3 123 197 198
3 124 99 148
3 124 148 99
3 124 185 135
3 124 135 185
3 124 185 148
3 124 148 185
3 125 100 149
3 125 149 100
3 126 148 99
3 126 99 148
3 126 208 148
3 126 148 208
3 127 154 158
3 127 158 154
3 128 127 179
3 128 179 127
3 128 179 180
3 128 180 179
3 129 110 170
3 129 170 110
3 129 170 189
3 129 189 170
3 130 102 84
3 130 84 102
3 130 190 142
3 130 142 190
3 132 96 140
3 132 140 96
3 132 140 192
3 132 192 140
3 133 105 199
3 133 199 105
3 133 175 115
3 133 115 175
3 134 176 200
3 134 200 176
3 135 104 157
3 135 157 104
3 136 156 103
3 136 103 156
3 138 137 195
3 138 195 137
3 138 195 196
3 138 196 195
3 139 44 170
3 139 170 44
3 139 95 131
3 139 131 95
3 141 129 101
3 141 101 129
3 142 102 130
3 142 130 102
3 142 190 47
3 142 47 190
3 143 182 181
3 143 181 182
3 143 206 182
3 143 182 206
3 145 64 68
3 145 68 64
3 146 3 26
3 146 26 3
3 146 166 39
3 146 39 166
3 147 155 58
3 147 58 155
3 149 126 208
3 149 208 126
3 150 94 74
3 150 74 94
3 151 52 164
3 151 164 52
3 153 194 43
3 153 43 194
3 153 194 121
3 153 121 194
3 155 128 58
3 155 58 128
3 158 29 179
3 158 179 29
3 158 179 127
3 158 127 179
3 159 128 180
3 159 180 128
3 159 155 128
3 159 128 155
3 159 180 29
3 159 29 180
3 160 168 114
3 160 114 168
3 161 114 85
3 161 85 114
3 161 169 1
3 161 1 169
3 163 34 164
3 163 164 34
3 165 35 177
3 165 177 35
3 166 57 146
3 166 146 57
3 167 147 58
3 167 58 147
3 167 174 40
3 167 40 174
3 168 32 28
3 168 28 32
3 168 114 172
3 168 172 114
3 168 172 28
3 168 28 172
3 169 114 172
3 169 172 114
3 174 94 74
3 174 74 94
3 175 199 133
3 175 133 199
3 176 116 153
3 176 153 116
3 176 134 116
3 176 116 134
3 177 6 2
3 177 2 6
3 177 6 187
3 177 187 6
3 178 201 188
3 178 188 201
3 179 180 29
3 179 29 180
3 181 143 205
3 181 205 143
3 181 205 38
3 181 38 205
3 182 43 206
3 182 206 43
3 183 35 109
3 183 109 35
3 183 109 204
3 183 204 109
3 185 135 48
3 185 48 135
3 186 125 136
3 186 136 125
3 186 149 48
3 186 48 149
3 186 149 125
3 186 125 149
3 187 177 165
3 187 165 177
3 189 129 141
3 189 141 129
3 190 130 171
3 190 171 130
3 190 171 47
3 190 47 171
3 191 44 195
3 191 195 44
3 191 86 137
3 191 137 86
3 191 131 86
3 191 86 131
3 191 131 139
3 191 139 131
3 191 195 137
3 191 137 195
3 192 138 196
3 192 196 138
3 192 196 47
3 192 47 196
3 193 38 205
3 193 205 38
3 198 48 197
3 198 197 48
3 201 36 55
3 201 55 36
3 201 37 65
3 201 65 37
3 201 37 188
3 201 188 37
3 202 16 12
3 202 12 16
3 202 119 162
3 202 162 119
3 202 162 101
3 202 101 162
3 202 203 69
3 202 69 203
3 205 112 143
3 205 143 112
3 206 113 143
3 206 143 113
3 208 48 148
3 208 148 48
