COFF
190 748 190

-6.6781 1.31173 8.10094 0.5 0.5 0.5 1
-6.67806 -1.31167 8.10101 0.5 0.5 0.5 1
-0.0366161 -2.48931 7.67296 0.5 0.5 0.5 1
7.68364 -1.41425 7.98095 0.5 0.5 0.5 1
7.68364 1.41425 7.98095 0.5 0.5 0.5 1
-0.0365796 2.49138 7.67083 0.5 0.5 0.5 1
1.18647 -2.13385 7.8492 0.5 0.5 0.5 1
1.1867 2.1343 7.8487 0.5 0.5 0.5 1
-1.24704 2.13551 7.79902 0.5 0.5 0.5 1
-1.24582 -2.13349 7.80126 0.5 0.5 0.5 1
2.07115 -1.79328 8.16799 0.5 0.5 0.5 1
2.07113 1.79342 8.16785 0.5 0.5 0.5 1
-2.11069 1.78466 8.16158 0.5 0.5 0.5 1
-2.1108 -1.78414 8.1621 0.5 0.5 0.5 1
3.00562 -1.9823 7.86923 0.5 0.5 0.5 1
3.00565 1.98236 7.86916 0.5 0.5 0.5 1
-3.04493 1.93982 7.84167 0.5 0.5 0.5 1
-3.04516 -1.93905 7.84242 0.5 0.5 0.5 1
3.96836 -2.20344 7.59516 0.5 0.5 0.5 1
3.96836 2.20345 7.59515 0.5 0.5 0.5 1
-4.09852 1.93501 7.76842 0.5 0.5 0.5 1
-4.09846 -1.93419 7.76926 0.5 0.5 0.5 1
5.1285 -2.27176 7.38908 0.5 0.5 0.5 1
5.1285 2.27176 7.38908 0.5 0.5 0.5 1
6.25812 -1.89251 7.75489 0.5 0.5 0.5 1
6.25812 1.89251 7.75489 0.5 0.5 0.5 1
-5.15851 1.71404 7.92112 0.5 0.5 0.5 1
-5.15841 -1.71368 7.9215 0.5 0.5 0.5 1
9.10448 -0.000107921 8.01681 0.5 0.5 0.5 1
-7.99087 -6.81866e-06 8.13949 0.5 0.5 0.5 1
8.39678 -0.707336 7.99888 0.5 0.5 0.5 1
8.39674 0.707233 7.99888 0.5 0.5 0.5 1
1.17596 2.03801 6.49197 0.5 0.5 0.5 1
-2.10783 1.8892 6.77565 0.5 0.5 0.5 1
-2.10638 -1.86742 6.77203 0.5 0.5 0.5 1
-0.0177597 -2.12009 6.10905 0.5 0.5 0.5 1
0.000300498 2.1203 6.10151 0.5 0.5 0.5 1
2.43519 1.69096 6.57513 0.5 0.5 0.5 1
4.01702 -0.619792 3.46312 1 1 0 1
-0.929737 -1.98968 5.36273 0.5 0.5 0.5 1
-0.925426 1.99275 5.34633 0.5 0.5 0.5 1
-1.60114 -0.701193 3.70679 0.5 0.5 0.5 1
-1.5825 1.01959 3.86904 0.5 0.5 0.5 1
1.08082 1.98551 5.34139 0.5 0.5 0.5 1
1.08031 -1.98514 5.34222 0.5 0.5 0.5 1
4.01702 0.619829 3.46312 1 1 0 1
-4.25039 0.723349 3.60169 1 1 0 1
2.21266 0.000173546 5.67389 0.5 0.5 0.5 1
1.51536 1.53384 4.87816 0.5 0.5 0.5 1
1.51554 -1.53342 4.87827 0.5 0.5 0.5 1
0.0183037 2.02266 4.97968 0.5 0.5 0.5 1
0.0235613 -2.01622 4.98569 0.5 0.5 0.5 1
1.67052 0.000185772 4.37872 0.5 0.5 0.5 1
4.88393 -0.673429 3.81921 1 1 0 1
4.88394 0.673422 3.81921 1 1 0 1
-2.64439 -0.0210899 5.56654 0.5 0.5 0.5 1
-4.24893 -0.595511 3.60169 1 1 0 1
0.121899 0.0340736 1.02806 1 1 0 1
-0.80308 -1.69068 4.53472 0.5 0.5 0.5 1
-0.800537 1.80364 4.49009 0.5 0.5 0.5 1
-5.90939 1.39912 7.01549 1 1 0 1
-5.90868 -1.39873 7.01753 1 1 0 1
6.91815 -1.6167 7.05608 1 1 0 1
6.91815 1.6167 7.05609 1 1 0 1
2.43522 -1.69093 6.57523 0.5 0.5 0.5 1
1.73603 1.86061 5.92879 0.5 0.5 0.5 1
0.937948 1.82017 4.25938 1 1 1 1
0.940047 -1.81759 4.26025 1 1 1 1
1.73596 -1.86026 5.92914 0.5 0.5 0.5 1
-1.02238 1.95622 6.06232 1 1 0 1
2.43517 0.000181423 6.01926 0.5 0.5 0.5 1
1.29464 1.29146 3.78772 1 1 1 1
1.29566 -1.28971 3.78636 1 1 1 1
0.107678 1.87726 3.86874 1 1 1 1
0.129092 -1.84059 3.87888 1 1 1 1
4.19753 -2.10105 5.84232 0.5 0.5 0.5 1
4.19754 2.10104 5.84232 0.5 0.5 0.5 1
3.56835 -2.11148 6.92087 0.5 0.5 0.5 1
3.56835 2.11151 6.92086 0.5 0.5 0.5 1
1.44621 -4.69095e-05 3.39714 1 1 1 1
-2.97271 1.92148 6.31346 0.5 0.5 0.5 1
-2.97087 -1.9135 6.31527 0.5 0.5 0.5 1
-3.58952 1.93717 6.72093 0.5 0.5 0.5 1
-3.58961 -1.9365 6.72341 0.5 0.5 0.5 1
-0.685191 -1.43403 3.37434 1 1 1 1
-0.651745 1.58354 3.3211 1 1 1 1
3.70481 -2.14274 6.19586 0.5 0.5 0.5 1
3.70485 2.14279 6.1958 0.5 0.5 0.5 1
-5.15016 1.63388 6.59949 0.5 0.5 0.5 1
-5.15075 -1.6337 6.59931 0.5 0.5 0.5 1
6.16002 -1.88146 6.33634 0.5 0.5 0.5 1
6.16002 1.88147 6.33634 0.5 0.5 0.5 1
7.59637 -8.07991e-06 6.87805 0.5 0.5 0.5 1
7.07604 -0.747755 5.79905 0.5 0.5 0.5 1
7.07606 0.747716 5.79908 0.5 0.5 0.5 1
6.66945 -1.41973 6.23831 0.5 0.5 0.5 1
6.66945 1.41973 6.23832 0.5 0.5 0.5 1
-1.79597 -0.127314 2.7226 1 1 1 1
-1.78604 0.643004 3.09581 1 1 1 1
2.6914 1.18977 5.80913 0.5 0.5 0.5 1
2.69139 -1.18936 5.80913 0.5 0.5 0.5 1
-4.22849 1.83504 6.34186 0.5 0.5 0.5 1
-4.22987 -1.83405 6.34196 0.5 0.5 0.5 1
0.808174 1.63585 3.20807 1 1 1 1
0.816609 -1.62151 3.20769 1 1 1 1
-6.53503 0.0136593 6.90674 0.5 0.5 0.5 1
-5.95823 0.856944 5.68527 0.5 0.5 0.5 1
-6.03023 -0.0267623 5.65525 0.5 0.5 0.5 1
-1.02358 -1.95813 6.07914 1 1 0 1
-5.73775 1.19604 6.14587 0.5 0.5 0.5 1
-5.7341 -1.19487 6.15827 0.5 0.5 0.5 1
5.12373 -2.02435 5.84215 0.5 0.5 0.5 1
5.12374 2.02435 5.84214 0.5 0.5 0.5 1
2.75579 -0.469652 4.23321 0.5 0.5 0.5 1
2.75553 0.493691 4.23288 0.5 0.5 0.5 1
0.13602 1.6882 2.84195 1 1 1 1
0.169965 -1.62907 2.85522 1 1 1 1
-1.99642 1.14948 5.28199 0.5 0.5 0.5 1
3.29118 -1.78713 5.28972 0.5 0.5 0.5 1
3.29134 1.78752 5.28968 0.5 0.5 0.5 1
1.12799 1.10815 2.85125 1 1 1 1
1.14384 -1.08867 2.8553 1 1 1 1
-2.01569 0.141796 4.03479 0.5 0.5 0.5 1
-3.58993 1.89628 5.43573 0.5 0.5 0.5 1
-3.58988 -1.89301 5.47055 0.5 0.5 0.5 1
-0.859279 1.2845 2.52395 1 1 1 1
-0.913881 -1.01224 2.5284 1 1 1 1
6.55555 -1.43335 5.39592 0.5 0.5 0.5 1
6.55562 1.43334 5.39593 0.5 0.5 0.5 1
-5.09711 1.52813 5.55441 0.5 0.5 0.5 1
-5.1046 -1.52625 5.56118 0.5 0.5 0.5 1
-3.13569 1.32268 4.99939 0.5 0.5 0.5 1
-3.11932 -1.32895 5.07011 0.5 0.5 0.5 1
7.10393 -0.703711 4.44481 1 1 1 1
7.10396 0.703689 4.44479 1 1 1 1
6.15523 -1.66688 5.26632 0.5 0.5 0.5 1
6.15527 1.66721 5.26635 0.5 0.5 0.5 1
3.5902 -1.93386 4.9886 0.5 0.5 0.5 1
3.5903 1.93426 4.98849 0.5 0.5 0.5 1
-1.43565 0.604184 2.08288 1 1 1 1
-2.98654 0.480661 4.57858 0.5 0.5 0.5 1
-2.9825 -0.509484 4.5574 0.5 0.5 0.5 1
-5.5605 -1.00171 5.0828 0.5 0.5 0.5 1
-5.57133 1.20244 4.99249 0.5 0.5 0.5 1
0.686675 1.46761 2.26447 1 1 1 1
0.705593 -1.43584 2.26163 1 1 1 1
-4.21088 -1.76869 5.30107 0.5 0.5 0.5 1
-4.19975 1.77263 5.31761 0.5 0.5 0.5 1
4.23988 -1.93307 4.54752 1 1 1 1
4.23991 1.93311 4.54753 1 1 1 1
1.25455 0.0013372 2.47201 1 1 1 1
-1.38737 -0.0641061 1.954 1 1 1 1
-5.70963 0.444841 4.43418 0.5 0.5 0.5 1
-5.70461 -0.703642 4.62047 0.5 0.5 0.5 1
2.88588 -1.18507 4.85016 1 1 1 1
2.8859 1.18585 4.85049 1 1 1 1
0.0970451 1.45967 1.96778 1 1 1 1
-2.38481 1.28851 5.76148 0.5 0.5 0.5 1
0.122412 -1.37563 1.98182 1 1 1 1
-2.36501 -1.27766 5.77822 0.5 0.5 0.5 1
4.88653 -1.83742 4.92344 1 1 1 1
4.88717 1.83716 4.92324 1 1 1 1
5.32538 -1.75465 4.92103 1 1 1 1
5.32605 1.75446 4.92091 1 1 1 1
1.02701 -0.800856 2.00519 1 1 1 1
1.00823 0.82371 2.01321 1 1 1 1
6.12483 -1.38629 4.70661 1 1 1 1
6.1249 1.3863 4.70663 1 1 1 1
3.27769 -1.53141 4.40838 1 1 1 1
3.27781 1.53167 4.40838 1 1 1 1
6.2277 -0.671587 4.04147 1 1 1 1
6.22772 0.671566 4.04147 1 1 1 1
-4.88752 -1.33108 4.63831 0.5 0.5 0.5 1
-3.6933 -1.54591 4.58605 0.5 0.5 0.5 1
-4.84349 1.36514 4.60242 0.5 0.5 0.5 1
-3.67966 1.51178 4.55962 0.5 0.5 0.5 1
-0.517137 0.925387 1.73497 1 1 1 1
-2.86591 -1.14683 5.76005 0.5 0.5 0.5 1
-2.90559 1.13818 5.78476 0.5 0.5 0.5 1
5.65873 -1.36414 4.49175 1 1 1 1
5.65881 1.36413 4.49174 1 1 1 1
-0.509871 -0.630308 1.75544 1 1 1 1
3.78306 -1.39283 4.19366 1 1 1 1
3.78314 1.39301 4.1936 1 1 1 1
-4.23141 -1.29085 4.434 1 1 1 1
-4.94779 -0.81143 4.33247 1 1 1 1
-4.22759 1.26683 4.45458 1 1 1 1
0.422381 -0.711975 1.64134 1 1 1 1
-1.98458 -0.713091 5.15431 0.5 0.5 0.5 1
1.17572 -2.03735 6.4929 0.5 0.5 0.5 1

3 0 26 60
3 0 60 26
3 0 29 105
3 0 105 29
3 0 60 105
3 0 105 60
3 1 27 61
3 1 61 27
3 1 29 105
3 1 105 29
3 1 61 105
3 1 105 61
3 2 6 189
3 2 189 6
3 2 9 108
3 2 108 9
3 2 35 108
3 2 108 35
3 2 35 189
3 2 189 35
3 3 24 62
3 3 62 24
3 3 30 92
3 3 92 30
3 3 62 92
3 3 92 62
3 4 25 63
3 4 63 25
3 4 31 92
3 4 92 31
3 4 63 92
3 4 92 63
3 5 7 32
3 5 32 7
3 5 8 69
3 5 69 8
3 5 32 36
3 5 36 32
3 5 36 69
3 5 69 36
3 6 10 64
3 6 64 10
3 6 64 189
3 6 189 64
3 7 11 37
3 7 37 11
3 7 32 37
3 7 37 32
3 8 12 33
3 8 33 12
3 8 33 69
3 8 69 33
3 9 13 34
3 9 34 13
3 9 34 108
3 9 108 34
3 10 14 64
3 10 64 14
3 11 15 37
3 11 37 15
3 12 16 33
3 12 33 16
3 13 17 34
3 13 34 17
3 14 18 77
3 14 77 18
3 14 64 77
3 14 77 64
3 15 19 78
3 15 78 19
3 15 37 78
3 15 78 37
3 16 20 82
3 16 82 20
3 16 33 80
3 16 80 33
3 16 80 82
3 16 82 80
3 17 21 83
3 17 83 21
3 17 34 81
3 17 81 34
3 17 81 83
3 17 83 81
3 18 22 75
3 18 75 22
3 18 75 86
3 18 86 75
3 18 77 86
3 18 86 77
3 19 23 76
3 19 76 23
3 19 76 87
3 19 87 76
3 19 78 87
3 19 87 78
3 20 26 88
3 20 88 26
3 20 82 101
3 20 101 82
3 20 88 101
3 20 101 88
3 21 27 89
3 21 89 27
3 21 83 102
3 21 102 83
3 21 89 102
3 21 102 89
3 22 24 90
3 22 90 24
3 22 75 111
3 22 111 75
3 22 90 111
3 22 111 90
3 23 25 91
3 23 91 25
3 23 76 112
3 23 112 76
3 23 91 112
3 23 112 91
3 24 62 90
3 24 90 62
3 25 63 91
3 25 91 63
3 26 60 88
3 26 88 60
3 27 61 89
3 27 89 61
3 28 30 92
3 28 92 30
3 28 31 92
3 28 92 31
3 32 36 43
3 32 43 36
3 32 37 65
3 32 65 37
3 32 43 65
3 32 65 43
3 33 40 69
3 33 69 40
3 33 40 117
3 33 117 40
3 33 80 157
3 33 157 80
3 33 117 157
3 33 157 117
3 34 39 108
3 34 108 39
3 34 39 188
3 34 188 39
3 34 81 159
3 34 159 81
3 34 159 188
3 34 188 159
3 35 39 51
3 35 51 39
3 35 39 108
3 35 108 39
3 35 44 51
3 35 51 44
3 35 44 189
3 35 189 44
3 36 40 50
3 36 50 40
3 36 40 69
3 36 69 40
3 36 43 50
3 36 50 43
3 37 47 65
3 37 65 47
3 37 47 70
3 37 70 47
3 37 70 99
3 37 99 70
3 37 78 99
3 37 99 78
3 38 45 54
3 38 54 45
3 38 45 114
3 38 114 45
3 38 53 54
3 38 54 53
3 38 53 148
3 38 148 53
3 38 113 114
3 38 114 113
3 38 113 154
3 38 154 113
3 38 137 148
3 38 148 137
3 38 137 168
3 38 168 137
3 38 148 182
3 38 182 148
3 38 154 168
3 38 168 154
3 38 168 182
3 38 182 168
3 39 51 58
3 39 58 51
3 39 58 188
3 39 188 58
3 40 50 59
3 40 59 50
3 40 59 117
3 40 117 59
3 41 58 84
3 41 84 58
3 41 58 188
3 41 188 58
3 41 84 126
3 41 126 84
3 41 97 122
3 41 122 97
3 41 97 126
3 41 126 97
3 41 122 188
3 41 188 122
3 42 59 85
3 42 85 59
3 42 59 117
3 42 117 59
3 42 85 125
3 42 125 85
3 42 98 122
3 42 122 98
3 42 98 125
3 42 125 98
3 42 117 122
3 42 122 117
3 43 48 65
3 43 65 48
3 43 48 66
3 43 66 48
3 43 50 66
3 43 66 50
3 44 49 67
3 44 67 49
3 44 49 68
3 44 68 49
3 44 51 67
3 44 67 51
3 44 68 189
3 44 189 68
3 45 54 149
3 45 149 54
3 45 114 155
3 45 155 114
3 45 138 149
3 45 149 138
3 45 138 169
3 45 169 138
3 45 149 183
3 45 183 149
3 45 155 169
3 45 169 155
3 45 169 183
3 45 183 169
3 46 56 140
3 46 140 56
3 46 56 152
3 46 152 56
3 46 131 140
3 46 140 131
3 46 131 175
3 46 175 131
3 46 143 152
3 46 152 143
3 46 143 174
3 46 174 143
3 46 147 174
3 46 174 147
3 46 147 175
3 46 175 147
3 46 174 186
3 46 186 174
3 46 175 186
3 46 186 175
3 47 48 52
3 47 52 48
3 47 48 65
3 47 65 48
3 47 49 52
3 47 52 49
3 47 49 68
3 47 68 49
3 47 64 68
3 47 68 64
3 47 64 70
3 47 70 64
3 48 52 71
3 48 71 52
3 48 66 71
3 48 71 66
3 49 52 72
3 49 72 52
3 49 67 72
3 49 72 67
3 50 59 73
3 50 73 59
3 50 66 73
3 50 73 66
3 51 58 74
3 51 74 58
3 51 67 74
3 51 74 67
3 52 71 79
3 52 79 71
3 52 72 79
3 52 79 72
3 53 54 171
3 53 171 54
3 53 133 166
3 53 166 133
3 53 133 170
3 53 170 133
3 53 135 162
3 53 162 135
3 53 135 166
3 53 166 135
3 53 148 160
3 53 160 148
3 53 160 162
3 53 162 160
3 53 162 179
3 53 179 162
3 53 166 179
3 53 179 166
3 53 170 171
3 53 171 170
3 54 134 167
3 54 167 134
3 54 134 171
3 54 171 134
3 54 136 163
3 54 163 136
3 54 136 167
3 54 167 136
3 54 149 161
3 54 161 149
3 54 161 163
3 54 163 161
3 54 163 180
3 54 180 163
3 54 167 180
3 54 180 167
3 55 56 132
3 55 132 56
3 55 56 140
3 55 140 56
3 55 80 131
3 55 131 80
3 55 80 157
3 55 157 80
3 55 81 132
3 55 132 81
3 55 81 159
3 55 159 81
3 55 117 157
3 55 157 117
3 55 117 188
3 55 188 117
3 55 131 140
3 55 140 131
3 55 131 178
3 55 178 131
3 55 132 141
3 55 141 132
3 55 132 177
3 55 177 132
3 55 140 141
3 55 141 140
3 55 157 178
3 55 178 157
3 55 159 177
3 55 177 159
3 55 159 188
3 55 188 159
3 56 132 141
3 56 141 132
3 56 132 173
3 56 173 132
3 56 140 141
3 56 141 140
3 56 142 153
3 56 153 142
3 56 142 172
3 56 172 142
3 56 146 172
3 56 172 146
3 56 146 173
3 56 173 146
3 56 152 153
3 56 153 152
3 56 153 185
3 56 185 153
3 56 172 184
3 56 184 172
3 56 172 185
3 56 185 172
3 56 173 184
3 56 184 173
3 57 120 144
3 57 144 120
3 57 120 150
3 57 150 120
3 57 125 139
3 57 139 125
3 57 125 156
3 57 156 125
3 57 126 151
3 57 151 126
3 57 126 158
3 57 158 126
3 57 139 151
3 57 151 139
3 57 139 176
3 57 176 139
3 57 144 156
3 57 156 144
3 57 144 165
3 57 165 144
3 57 145 158
3 57 158 145
3 57 145 164
3 57 164 145
3 57 150 164
3 57 164 150
3 57 150 165
3 57 165 150
3 57 151 181
3 57 181 151
3 57 156 176
3 57 176 156
3 57 158 181
3 57 181 158
3 57 158 187
3 57 187 158
3 57 164 187
3 57 187 164
3 58 74 84
3 58 84 74
3 59 73 85
3 59 85 73
3 60 88 109
3 60 109 88
3 60 105 109
3 60 109 105
3 61 89 110
3 61 110 89
3 61 105 110
3 61 110 105
3 62 90 95
3 62 95 90
3 62 92 95
3 62 95 92
3 63 91 96
3 63 96 91
3 63 92 96
3 63 96 92
3 64 68 189
3 64 189 68
3 64 70 100
3 64 100 70
3 64 77 100
3 64 100 77
3 66 71 103
3 66 103 71
3 66 73 103
3 66 103 73
3 67 72 104
3 67 104 72
3 67 74 104
3 67 104 74
3 70 99 155
3 70 155 99
3 70 100 154
3 70 154 100
3 70 113 114
3 70 114 113
3 70 113 154
3 70 154 113
3 70 114 155
3 70 155 114
3 71 79 120
3 71 120 79
3 71 103 120
3 71 120 103
3 72 79 121
3 72 121 79
3 72 104 121
3 72 121 104
3 73 85 115
3 73 115 85
3 73 103 115
3 73 115 103
3 74 84 116
3 74 116 84
3 74 104 116
3 74 116 104
3 75 86 137
3 75 137 86
3 75 111 160
3 75 160 111
3 75 137 148
3 75 148 137
3 75 148 160
3 75 160 148
3 76 87 138
3 76 138 87
3 76 112 161
3 76 161 112
3 76 138 149
3 76 149 138
3 76 149 161
3 76 161 149
3 77 86 118
3 77 118 86
3 77 100 118
3 77 118 100
3 78 87 119
3 78 119 87
3 78 99 119
3 78 119 99
3 79 120 150
3 79 150 120
3 79 121 150
3 79 150 121
3 80 82 123
3 80 123 82
3 80 123 131
3 80 131 123
3 80 131 178
3 80 178 131
3 80 157 178
3 80 178 157
3 81 83 124
3 81 124 83
3 81 124 132
3 81 132 124
3 81 132 177
3 81 177 132
3 81 159 177
3 81 177 159
3 82 101 123
3 82 123 101
3 83 102 124
3 83 124 102
3 84 116 126
3 84 126 116
3 85 115 125
3 85 125 115
3 86 118 137
3 86 137 118
3 87 119 138
3 87 138 119
3 88 101 129
3 88 129 101
3 88 109 129
3 88 129 109
3 89 102 130
3 89 130 102
3 89 110 130
3 89 130 110
3 90 95 127
3 90 127 95
3 90 111 135
3 90 135 111
3 90 127 135
3 90 135 127
3 91 96 128
3 91 128 96
3 91 112 136
3 91 136 112
3 91 128 136
3 91 136 128
3 92 93 94
3 92 94 93
3 92 93 95
3 92 95 93
3 92 94 96
3 92 96 94
3 93 94 134
3 93 134 94
3 93 95 127
3 93 127 95
3 93 127 166
3 93 166 127
3 93 133 134
3 93 134 133
3 93 133 166
3 93 166 133
3 94 96 128
3 94 128 96
3 94 128 167
3 94 167 128
3 94 134 167
3 94 167 134
3 97 98 122
3 97 122 98
3 97 98 139
3 97 139 98
3 97 126 151
3 97 151 126
3 97 139 151
3 97 151 139
3 98 125 139
3 98 139 125
3 99 119 155
3 99 155 119
3 100 118 154
3 100 154 118
3 101 123 147
3 101 147 123
3 101 129 147
3 101 147 129
3 102 124 146
3 102 146 124
3 102 130 146
3 102 146 130
3 103 115 144
3 103 144 115
3 103 120 144
3 103 144 120
3 104 116 145
3 104 145 116
3 104 121 145
3 104 145 121
3 105 106 107
3 105 107 106
3 105 106 109
3 105 109 106
3 105 107 110
3 105 110 107
3 106 107 152
3 106 152 107
3 106 109 143
3 106 143 109
3 106 143 152
3 106 152 143
3 107 110 142
3 107 142 110
3 107 142 153
3 107 153 142
3 107 152 153
3 107 153 152
3 109 129 143
3 109 143 129
3 110 130 142
3 110 142 130
3 111 135 162
3 111 162 135
3 111 160 162
3 111 162 160
3 112 136 163
3 112 163 136
3 112 161 163
3 112 163 161
3 115 125 156
3 115 156 125
3 115 144 156
3 115 156 144
3 116 126 158
3 116 158 126
3 116 145 158
3 116 158 145
3 117 122 188
3 117 188 122
3 118 137 168
3 118 168 137
3 118 154 168
3 118 168 154
3 119 138 169
3 119 169 138
3 119 155 169
3 119 169 155
3 120 144 165
3 120 165 144
3 120 150 165
3 120 165 150
3 121 145 164
3 121 164 145
3 121 150 164
3 121 164 150
3 123 131 175
3 123 175 131
3 123 147 175
3 123 175 147
3 124 132 173
3 124 173 132
3 124 146 173
3 124 173 146
3 125 139 176
3 125 176 139
3 125 156 176
3 125 176 156
3 126 151 181
3 126 181 151
3 126 158 181
3 126 181 158
3 127 135 166
3 127 166 135
3 128 136 167
3 128 167 136
3 129 143 174
3 129 174 143
3 129 147 174
3 129 174 147
3 130 142 172
3 130 172 142
3 130 146 172
3 130 172 146
3 133 134 171
3 133 171 134
3 133 170 171
3 133 171 170
3 135 162 179
3 135 179 162
3 135 166 179
3 135 179 166
3 136 163 180
3 136 180 163
3 136 167 180
3 136 180 167
3 137 148 182
3 137 182 148
3 137 168 182
3 137 182 168
3 138 149 183
3 138 183 149
3 138 169 183
3 138 183 169
3 142 153 185
3 142 185 153
3 142 172 185
3 142 185 172
3 145 158 187
3 145 187 158
3 145 164 187
3 145 187 164
3 146 172 184
3 146 184 172
3 146 173 184
3 146 184 173
3 147 174 186
3 147 186 174
3 147 175 186
3 147 186 175
