COFF
192 744 192

-6.67827 1.31209 8.1005 0.5 0.5 0.5 1
-6.67827 -1.31209 8.1005 0.5 0.5 0.5 1
-0.036534 -2.49257 7.66961 0.5 0.5 0.5 1
7.68362 -1.41422 7.98099 0.5 0.5 0.5 1
7.68362 1.41421 7.98099 0.5 0.5 0.5 1
-0.036534 2.49257 7.66961 0.5 0.5 0.5 1
1.18686 -2.13465 7.84831 0.5 0.5 0.5 1
1.18686 2.13465 7.8483 0.5 0.5 0.5 1
-1.24751 2.13731 7.79707 0.5 0.5 0.5 1
-1.24751 -2.13731 7.79707 0.5 0.5 0.5 1
2.07112 -1.79357 8.1677 0.5 0.5 0.5 1
2.07112 1.79357 8.1677 0.5 0.5 0.5 1
-2.11092 1.78624 8.15996 0.5 0.5 0.5 1
-2.11092 -1.78624 8.15996 0.5 0.5 0.5 1
3.00566 -1.98245 7.86906 0.5 0.5 0.5 1
3.00566 1.98245 7.86906 0.5 0.5 0.5 1
-3.0448 1.94208 7.83933 0.5 0.5 0.5 1
-3.0448 -1.94208 7.83933 0.5 0.5 0.5 1
3.96836 -2.20347 7.59513 0.5 0.5 0.5 1
3.96836 2.20347 7.59513 0.5 0.5 0.5 1
-4.09874 1.93628 7.76711 0.5 0.5 0.5 1
-4.09874 -1.93628 7.76711 0.5 0.5 0.5 1
5.1285 -2.27176 7.38908 0.5 0.5 0.5 1
5.1285 2.27176 7.38908 0.5 0.5 0.5 1
6.25811 -1.89247 7.75493 0.5 0.5 0.5 1
6.25811 1.89247 7.75493 0.5 0.5 0.5 1
-5.15833 1.71321 7.92196 0.5 0.5 0.5 1
-5.15833 -1.71321 7.92196 0.5 0.5 0.5 1
9.10446 -0.000107917 8.01682 0.5 0.5 0.5 1
-7.99031 9.88316e-06 8.1378 0.5 0.5 0.5 1
8.39676 -0.707318 7.9989 0.5 0.5 0.5 1
8.39671 0.707215 7.9989 0.5 0.5 0.5 1
1.17617 2.03844 6.49111 0.5 0.5 0.5 1
-2.10796 1.89797 6.76961 0.5 0.5 0.5 1
-2.10795 -1.89797 6.76961 0.5 0.5 0.5 1
0.00405419 -2.12076 6.0984 0.5 0.5 0.5 1
0.00405405 2.12076 6.0984 0.5 0.5 0.5 1
2.43521 1.69097 6.57491 0.5 0.5 0.5 1
4.01706 -0.619846 3.46312 1 1 0 1
-0.925253 -1.9944 5.34134 0.5 0.5 0.5 1
-0.925246 1.9944 5.34134 0.5 0.5 0.5 1
-1.64114 -0.901986 3.8323 0.5 0.5 0.5 1
-1.64107 0.90415 3.8334 0.5 0.5 0.5 1
1.08104 1.98602 5.34035 0.5 0.5 0.5 1
1.08103 -1.98603 5.34032 0.5 0.5 0.5 1
4.01706 0.619846 3.46312 1 1 0 1
-4.23813 0.660005 3.60169 1 1 0 1
2.21302 -1.31541e-06 5.67343 0.5 0.5 0.5 1
1.51538 1.53459 4.87713 0.5 0.5 0.5 1
1.51539 -1.53459 4.87713 0.5 0.5 0.5 1
0.0162464 2.02475 4.97565 0.5 0.5 0.5 1
0.0162352 -2.02476 4.97564 0.5 0.5 0.5 1
1.6723 -6.07827e-07 4.37737 0.5 0.5 0.5 1
4.88397 -0.673427 3.81921 1 1 0 1
4.88397 0.673427 3.81921 1 1 0 1
-2.68645 4.49803e-05 5.56054 0.5 0.5 0.5 1
-4.23813 -0.660007 3.60169 1 1 0 1
0.119447 0.00236544 1.02806 1 1 0 1
-0.821201 -1.80147 4.44187 0.5 0.5 0.5 1
-0.821203 1.80149 4.44188 0.5 0.5 0.5 1
-5.90948 1.40286 7.04562 1 1 0 1
-5.90948 -1.40286 7.04562 1 1 0 1
6.91777 -1.61679 7.05665 1 1 0 1
6.91777 1.61679 7.05665 1 1 0 1
2.43525 -1.69099 6.5749 0.5 0.5 0.5 1
1.73608 1.861 5.92783 0.5 0.5 0.5 1
0.936904 1.82139 4.25747 1 1 1 1
0.936908 -1.82137 4.25746 1 1 1 1
1.7361 -1.861 5.92785 0.5 0.5 0.5 1
-1.02224 1.95603 6.05739 1 1 0 1
2.43554 -1.37065e-05 6.01898 0.5 0.5 0.5 1
1.2946 1.29237 3.78619 1 1 1 1
1.29454 -1.29238 3.78617 1 1 1 1
0.0877698 1.87763 3.86634 1 1 1 1
0.0877762 -1.87781 3.86629 1 1 1 1
4.19787 -2.10115 5.84257 0.5 0.5 0.5 1
4.19785 2.10116 5.84258 0.5 0.5 0.5 1
3.56833 -2.11157 6.92088 0.5 0.5 0.5 1
3.56832 2.11161 6.92089 0.5 0.5 0.5 1
1.44655 -9.68338e-06 3.39396 1 1 1 1
-2.97061 1.92571 6.32659 0.5 0.5 0.5 1
-2.97059 -1.92556 6.32659 0.5 0.5 0.5 1
-3.58946 1.93893 6.72617 0.5 0.5 0.5 1
-3.58946 -1.93886 6.72617 0.5 0.5 0.5 1
-0.717092 -1.55364 3.37425 1 1 1 1
-0.716591 1.55437 3.37422 1 1 1 1
3.70478 -2.14285 6.19573 0.5 0.5 0.5 1
3.70492 2.14284 6.19571 0.5 0.5 0.5 1
-5.14677 1.63566 6.63472 0.5 0.5 0.5 1
-5.14677 -1.63566 6.63472 0.5 0.5 0.5 1
6.16001 -1.88154 6.33654 0.5 0.5 0.5 1
6.16001 1.88154 6.33654 0.5 0.5 0.5 1
7.59632 -7.50738e-06 6.87811 0.5 0.5 0.5 1
7.07608 -0.747722 5.79907 0.5 0.5 0.5 1
7.07608 0.747716 5.79908 0.5 0.5 0.5 1
6.66938 -1.41989 6.23865 0.5 0.5 0.5 1
6.66938 1.41989 6.23865 0.5 0.5 0.5 1
-1.80244 -0.345849 2.8909 1 1 1 1
-1.84081 0.505618 2.95811 1 1 1 1
2.69288 1.19141 5.80729 0.5 0.5 0.5 1
2.69288 -1.19142 5.80729 0.5 0.5 0.5 1
-4.2223 1.83766 6.34268 0.5 0.5 0.5 1
-4.22227 -1.83774 6.34267 0.5 0.5 0.5 1
0.803114 1.63622 3.20787 1 1 1 1
0.803173 -1.63642 3.20712 1 1 1 1
-6.54126 -1.00451e-05 6.91235 0.5 0.5 0.5 1
-5.99907 0.756225 5.74813 0.5 0.5 0.5 1
-5.99908 -0.756215 5.74814 0.5 0.5 0.5 1
-1.02225 -1.95603 6.05739 1 1 0 1
-5.74143 1.19094 6.16524 0.5 0.5 0.5 1
-5.74104 -1.19091 6.16527 0.5 0.5 0.5 1
5.1222 -2.0248 5.8424 0.5 0.5 0.5 1
5.12221 2.0248 5.8424 0.5 0.5 0.5 1
2.7501 -0.542707 4.21247 0.5 0.5 0.5 1
2.7501 0.542708 4.21247 0.5 0.5 0.5 1
0.128728 1.6829 2.863 1 1 1 1
0.128877 -1.68268 2.86167 1 1 1 1
-2.0206 1.18748 5.25982 0.5 0.5 0.5 1
3.29646 -1.79515 5.29853 0.5 0.5 0.5 1
3.29646 1.79515 5.29854 0.5 0.5 0.5 1
1.13 1.10515 2.85477 1 1 1 1
1.12986 -1.10542 2.85455 1 1 1 1
-2.06134 0.00107533 3.87165 0.5 0.5 0.5 1
-3.59006 1.89908 5.43948 0.5 0.5 0.5 1
-3.58991 -1.89899 5.43948 0.5 0.5 0.5 1
-0.896479 -1.19542 2.65416 1 1 1 1
-0.862291 1.24081 2.64763 1 1 1 1
6.5555 -1.43337 5.39616 0.5 0.5 0.5 1
6.55551 1.43337 5.39617 0.5 0.5 0.5 1
-5.10328 1.52624 5.60093 0.5 0.5 0.5 1
-5.10329 -1.52627 5.6009 0.5 0.5 0.5 1
-3.14678 1.34965 5.06468 0.5 0.5 0.5 1
-3.14679 -1.34968 5.06471 0.5 0.5 0.5 1
7.10393 -0.703713 4.44481 1 1 1 1
7.10394 0.703708 4.4448 1 1 1 1
6.15484 -1.66729 5.26634 0.5 0.5 0.5 1
6.15502 1.66726 5.26638 0.5 0.5 0.5 1
3.5957 -1.93975 4.98842 0.5 0.5 0.5 1
3.59579 1.93972 4.98841 0.5 0.5 0.5 1
-1.41475 -0.289605 1.7091 1 1 1 1
-1.38483 0.250417 1.70906 1 1 1 1
-2.84047 0.325353 4.38272 0.5 0.5 0.5 1
-2.84037 -0.3254 4.38264 0.5 0.5 0.5 1
-5.48459 1.23116 5.24632 0.5 0.5 0.5 1
-5.48461 -1.23115 5.24631 0.5 0.5 0.5 1
0.687506 1.4635 2.26789 1 1 1 1
0.687203 -1.46362 2.26721 1 1 1 1
-4.1849 1.778 5.32165 0.5 0.5 0.5 1
-4.18496 -1.77823 5.32163 0.5 0.5 0.5 1
4.24111 -1.93519 4.54746 1 1 1 1
4.24113 1.93518 4.54746 1 1 1 1
1.25083 -5.65669e-05 2.46469 1 1 1 1
-2.19792 1.67266e-05 5.13508 0.5 0.5 0.5 1
-5.82159 0.680286 4.28087 0.5 0.5 0.5 1
-5.8216 -0.68028 4.28087 0.5 0.5 0.5 1
-2.39603 1.34851 5.72065 0.5 0.5 0.5 1
-2.39601 -1.34853 5.7207 0.5 0.5 0.5 1
2.88902 -1.19312 4.86445 1 1 1 1
2.88902 1.19312 4.86445 1 1 1 1
0.130713 1.46558 1.97534 1 1 1 1
0.132306 -1.45998 1.97617 1 1 1 1
4.88607 -1.83771 4.92363 1 1 1 1
4.88604 1.83769 4.92361 1 1 1 1
5.32467 -1.75487 4.92116 1 1 1 1
5.32532 1.75465 4.92102 1 1 1 1
1.01397 0.82542 2.01324 1 1 1 1
1.0124 -0.82546 2.01225 1 1 1 1
6.12486 -1.38629 4.7067 1 1 1 1
6.12489 1.3863 4.70672 1 1 1 1
3.28043 -1.53398 4.40889 1 1 1 1
3.28044 1.53399 4.40888 1 1 1 1
6.2277 -0.671577 4.04147 1 1 1 1
6.2277 0.671577 4.04147 1 1 1 1
-0.456212 -1.00522 1.84839 1 1 1 1
-0.43882 0.991531 1.83037 1 1 1 1
-4.87939 1.3804 4.68089 0.5 0.5 0.5 1
-4.8794 -1.38039 4.6809 0.5 0.5 0.5 1
-3.63962 1.52394 4.56884 0.5 0.5 0.5 1
-3.63963 -1.52396 4.56885 0.5 0.5 0.5 1
-2.94236 -1.18457 5.74375 0.5 0.5 0.5 1
-2.94237 1.1846 5.74371 0.5 0.5 0.5 1
5.6587 -1.36416 4.49176 1 1 1 1
5.65871 1.36416 4.49176 1 1 1 1
-4.93448 1.10691 4.43263 1 1 1 1
-4.93449 -1.1069 4.43263 1 1 1 1
3.78356 -1.39435 4.19342 1 1 1 1
3.78358 1.39436 4.19341 1 1 1 1
-4.16976 1.30871 4.44204 1 1 1 1
-4.16979 -1.30869 4.44202 1 1 1 1
0.406242 -0.733849 1.64645 1 1 1 1
-2.02058 -1.18745 5.25982 0.5 0.5 0.5 1
1.17618 -2.03844 6.49111 0.5 0.5 0.5 1

3 0 26 60
3 0 60 26
3 0 29 105
3 0 105 29
3 0 60 105
3 0 105 60
3 1 27 61
3 1 61 27
3 1 29 105
3 1 105 29
3 1 61 105
3 1 105 61
3 2 6 191
3 2 191 6
3 2 9 108
3 2 108 9
3 2 35 108
3 2 108 35
3 2 35 191
3 2 191 35
3 3 24 62
3 3 62 24
3 3 30 92
3 3 92 30
3 3 62 92
3 3 92 62
3 4 25 63
3 4 63 25
3 4 31 92
3 4 92 31
3 4 63 92
3 4 92 63
3 5 7 32
3 5 32 7
3 5 8 69
3 5 69 8
3 5 32 36
3 5 36 32
3 5 36 69
3 5 69 36
3 6 10 64
3 6 64 10
3 6 64 191
3 6 191 64
3 7 11 37
3 7 37 11
3 7 32 37
3 7 37 32
3 8 12 33
3 8 33 12
3 8 33 69
3 8 69 33
3 9 13 34
3 9 34 13
3 9 34 108
3 9 108 34
3 10 14 64
3 10 64 14
3 11 15 37
3 11 37 15
3 12 16 33
3 12 33 16
3 13 17 34
3 13 34 17
3 14 18 77
3 14 77 18
3 14 64 77
3 14 77 64
3 15 19 78
3 15 78 19
3 15 37 78
3 15 78 37
3 16 20 82
3 16 82 20
3 16 33 80
3 16 80 33
3 16 80 82
3 16 82 80
3 17 21 83
3 17 83 21
3 17 34 81
3 17 81 34
3 17 81 83
3 17 83 81
3 18 22 75
3 18 75 22
3 18 75 86
3 18 86 75
3 18 77 86
3 18 86 77
3 19 23 76
3 19 76 23
3 19 76 87
3 19 87 76
3 19 78 87
3 19 87 78
3 20 26 88
3 20 88 26
3 20 82 101
3 20 101 82
3 20 88 101
3 20 101 88
3 21 27 89
3 21 89 27
3 21 83 102
3 21 102 83
3 21 89 102
3 21 102 89
3 22 24 90
3 22 90 24
3 22 75 111
3 22 111 75
3 22 90 111
3 22 111 90
3 23 25 91
3 23 91 25
3 23 76 112
3 23 112 76
3 23 91 112
3 23 112 91
3 24 62 90
3 24 90 62
3 25 63 91
3 25 91 63
3 26 60 88
3 26 88 60
3 27 61 89
3 27 89 61
3 28 30 92
3 28 92 30
3 28 31 92
3 28 92 31
3 32 36 43
3 32 43 36
3 32 37 65
3 32 65 37
3 32 43 65
3 32 65 43
3 33 40 69
3 33 69 40
3 33 40 117
3 33 117 40
3 33 80 155
3 33 155 80
3 33 117 155
3 33 155 117
3 34 39 108
3 34 108 39
3 34 39 190
3 34 190 39
3 34 81 156
3 34 156 81
3 34 156 190
3 34 190 156
3 35 39 51
3 35 51 39
3 35 39 108
3 35 108 39
3 35 44 51
3 35 51 44
3 35 44 191
3 35 191 44
3 36 40 50
3 36 50 40
3 36 40 69
3 36 69 40
3 36 43 50
3 36 50 43
3 37 47 65
3 37 65 47
3 37 47 70
3 37 70 47
3 37 70 99
3 37 99 70
3 37 78 99
3 37 99 78
3 38 45 54
3 38 54 45
3 38 45 114
3 38 114 45
3 38 53 54
3 38 54 53
3 38 53 149
3 38 149 53
3 38 113 114
3 38 114 113
3 38 113 157
3 38 157 113
3 38 137 149
3 38 149 137
3 38 137 169
3 38 169 137
3 38 149 185
3 38 185 149
3 38 157 169
3 38 169 157
3 38 169 185
3 38 185 169
3 39 51 58
3 39 58 51
3 39 58 190
3 39 190 58
3 40 50 59
3 40 59 50
3 40 59 117
3 40 117 59
3 41 58 84
3 41 84 58
3 41 58 190
3 41 190 58
3 41 84 125
3 41 125 84
3 41 97 122
3 41 122 97
3 41 97 125
3 41 125 97
3 41 122 190
3 41 190 122
3 42 59 85
3 42 85 59
3 42 59 117
3 42 117 59
3 42 85 126
3 42 126 85
3 42 98 122
3 42 122 98
3 42 98 126
3 42 126 98
3 42 117 122
3 42 122 117
3 43 48 65
3 43 65 48
3 43 48 66
3 43 66 48
3 43 50 66
3 43 66 50
3 44 49 67
3 44 67 49
3 44 49 68
3 44 68 49
3 44 51 67
3 44 67 51
3 44 68 191
3 44 191 68
3 45 54 150
3 45 150 54
3 45 114 158
3 45 158 114
3 45 138 150
3 45 150 138
3 45 138 170
3 45 170 138
3 45 150 186
3 45 186 150
3 45 158 170
3 45 170 158
3 45 170 186
3 45 186 170
3 46 55 131
3 46 131 55
3 46 55 141
3 46 141 55
3 46 56 142
3 46 142 56
3 46 56 154
3 46 154 56
3 46 131 177
3 46 177 131
3 46 141 142
3 46 142 141
3 46 147 175
3 46 175 147
3 46 147 177
3 46 177 147
3 46 153 154
3 46 154 153
3 46 153 183
3 46 183 153
3 46 175 183
3 46 183 175
3 46 175 187
3 46 187 175
3 46 177 187
3 46 187 177
3 47 48 52
3 47 52 48
3 47 48 65
3 47 65 48
3 47 49 52
3 47 52 49
3 47 49 68
3 47 68 49
3 47 64 68
3 47 68 64
3 47 64 70
3 47 70 64
3 48 52 71
3 48 71 52
3 48 66 71
3 48 71 66
3 49 52 72
3 49 72 52
3 49 67 72
3 49 72 67
3 50 59 73
3 50 73 59
3 50 66 73
3 50 73 66
3 51 58 74
3 51 74 58
3 51 67 74
3 51 74 67
3 52 71 79
3 52 79 71
3 52 72 79
3 52 79 72
3 53 54 172
3 53 172 54
3 53 133 167
3 53 167 133
3 53 133 171
3 53 171 133
3 53 135 163
3 53 163 135
3 53 135 167
3 53 167 135
3 53 149 161
3 53 161 149
3 53 161 163
3 53 163 161
3 53 163 181
3 53 181 163
3 53 167 181
3 53 181 167
3 53 171 172
3 53 172 171
3 54 134 168
3 54 168 134
3 54 134 172
3 54 172 134
3 54 136 164
3 54 164 136
3 54 136 168
3 54 168 136
3 54 150 162
3 54 162 150
3 54 162 164
3 54 164 162
3 54 164 182
3 54 182 164
3 54 168 182
3 54 182 168
3 55 56 132
3 55 132 56
3 55 56 142
3 55 142 56
3 55 80 131
3 55 131 80
3 55 80 155
3 55 155 80
3 55 81 132
3 55 132 81
3 55 81 156
3 55 156 81
3 55 117 122
3 55 122 117
3 55 117 152
3 55 152 117
3 55 117 155
3 55 155 117
3 55 122 190
3 55 190 122
3 55 131 180
3 55 180 131
3 55 132 179
3 55 179 132
3 55 141 142
3 55 142 141
3 55 152 190
3 55 190 152
3 55 155 180
3 55 180 155
3 55 156 179
3 55 179 156
3 55 156 190
3 55 190 156
3 56 132 178
3 56 178 132
3 56 148 176
3 56 176 148
3 56 148 178
3 56 178 148
3 56 154 184
3 56 184 154
3 56 176 184
3 56 184 176
3 56 176 188
3 56 188 176
3 56 178 188
3 56 188 178
3 57 120 145
3 57 145 120
3 57 120 151
3 57 151 120
3 57 139 140
3 57 140 139
3 57 139 173
3 57 173 139
3 57 140 174
3 57 174 140
3 57 145 159
3 57 159 145
3 57 145 165
3 57 165 145
3 57 146 160
3 57 160 146
3 57 146 166
3 57 166 146
3 57 151 165
3 57 165 151
3 57 151 166
3 57 166 151
3 57 159 174
3 57 174 159
3 57 160 173
3 57 173 160
3 57 160 189
3 57 189 160
3 57 166 189
3 57 189 166
3 58 74 84
3 58 84 74
3 59 73 85
3 59 85 73
3 60 88 109
3 60 109 88
3 60 105 109
3 60 109 105
3 61 89 110
3 61 110 89
3 61 105 110
3 61 110 105
3 62 90 95
3 62 95 90
3 62 92 95
3 62 95 92
3 63 91 96
3 63 96 91
3 63 92 96
3 63 96 92
3 64 68 191
3 64 191 68
3 64 70 100
3 64 100 70
3 64 77 100
3 64 100 77
3 66 71 103
3 66 103 71
3 66 73 103
3 66 103 73
3 67 72 104
3 67 104 72
3 67 74 104
3 67 104 74
3 70 99 158
3 70 158 99
3 70 100 157
3 70 157 100
3 70 113 114
3 70 114 113
3 70 113 157
3 70 157 113
3 70 114 158
3 70 158 114
3 71 79 120
3 71 120 79
3 71 103 120
3 71 120 103
3 72 79 121
3 72 121 79
3 72 104 121
3 72 121 104
3 73 85 115
3 73 115 85
3 73 103 115
3 73 115 103
3 74 84 116
3 74 116 84
3 74 104 116
3 74 116 104
3 75 86 137
3 75 137 86
3 75 111 161
3 75 161 111
3 75 137 149
3 75 149 137
3 75 149 161
3 75 161 149
3 76 87 138
3 76 138 87
3 76 112 162
3 76 162 112
3 76 138 150
3 76 150 138
3 76 150 162
3 76 162 150
3 77 86 118
3 77 118 86
3 77 100 118
3 77 118 100
3 78 87 119
3 78 119 87
3 78 99 119
3 78 119 99
3 79 120 151
3 79 151 120
3 79 121 151
3 79 151 121
3 80 82 123
3 80 123 82
3 80 123 131
3 80 131 123
3 80 131 180
3 80 180 131
3 80 155 180
3 80 180 155
3 81 83 124
3 81 124 83
3 81 124 132
3 81 132 124
3 81 132 179
3 81 179 132
3 81 156 179
3 81 179 156
3 82 101 123
3 82 123 101
3 83 102 124
3 83 124 102
3 84 116 125
3 84 125 116
3 85 115 126
3 85 126 115
3 86 118 137
3 86 137 118
3 87 119 138
3 87 138 119
3 88 101 129
3 88 129 101
3 88 109 129
3 88 129 109
3 89 102 130
3 89 130 102
3 89 110 130
3 89 130 110
3 90 95 127
3 90 127 95
3 90 111 135
3 90 135 111
3 90 127 135
3 90 135 127
3 91 96 128
3 91 128 96
3 91 112 136
3 91 136 112
3 91 128 136
3 91 136 128
3 92 93 94
3 92 94 93
3 92 93 95
3 92 95 93
3 92 94 96
3 92 96 94
3 93 94 134
3 93 134 94
3 93 95 127
3 93 127 95
3 93 127 167
3 93 167 127
3 93 133 134
3 93 134 133
3 93 133 167
3 93 167 133
3 94 96 128
3 94 128 96
3 94 128 168
3 94 168 128
3 94 134 168
3 94 168 134
3 97 98 122
3 97 122 98
3 97 98 140
3 97 140 98
3 97 125 173
3 97 173 125
3 97 139 140
3 97 140 139
3 97 139 173
3 97 173 139
3 98 126 174
3 98 174 126
3 98 140 174
3 98 174 140
3 99 119 158
3 99 158 119
3 100 118 157
3 100 157 118
3 101 123 147
3 101 147 123
3 101 129 147
3 101 147 129
3 102 124 148
3 102 148 124
3 102 130 148
3 102 148 130
3 103 115 145
3 103 145 115
3 103 120 145
3 103 145 120
3 104 116 146
3 104 146 116
3 104 121 146
3 104 146 121
3 105 106 107
3 105 107 106
3 105 106 109
3 105 109 106
3 105 107 110
3 105 110 107
3 106 107 154
3 106 154 107
3 106 109 143
3 106 143 109
3 106 143 183
3 106 183 143
3 106 153 154
3 106 154 153
3 106 153 183
3 106 183 153
3 107 110 144
3 107 144 110
3 107 144 184
3 107 184 144
3 107 154 184
3 107 184 154
3 109 129 143
3 109 143 129
3 110 130 144
3 110 144 130
3 111 135 163
3 111 163 135
3 111 161 163
3 111 163 161
3 112 136 164
3 112 164 136
3 112 162 164
3 112 164 162
3 115 126 159
3 115 159 126
3 115 145 159
3 115 159 145
3 116 125 160
3 116 160 125
3 116 146 160
3 116 160 146
3 117 122 152
3 117 152 122
3 118 137 169
3 118 169 137
3 118 157 169
3 118 169 157
3 119 138 170
3 119 170 138
3 119 158 170
3 119 170 158
3 120 145 165
3 120 165 145
3 120 151 165
3 120 165 151
3 121 146 166
3 121 166 146
3 121 151 166
3 121 166 151
3 122 152 190
3 122 190 152
3 123 131 177
3 123 177 131
3 123 147 177
3 123 177 147
3 124 132 178
3 124 178 132
3 124 148 178
3 124 178 148
3 125 160 173
3 125 173 160
3 126 159 174
3 126 174 159
3 127 135 167
3 127 167 135
3 128 136 168
3 128 168 136
3 129 143 175
3 129 175 143
3 129 147 175
3 129 175 147
3 130 144 176
3 130 176 144
3 130 148 176
3 130 176 148
3 133 134 172
3 133 172 134
3 133 171 172
3 133 172 171
3 135 163 181
3 135 181 163
3 135 167 181
3 135 181 167
3 136 164 182
3 136 182 164
3 136 168 182
3 136 182 168
3 137 149 185
3 137 185 149
3 137 169 185
3 137 185 169
3 138 150 186
3 138 186 150
3 138 170 186
3 138 186 170
3 143 175 183
3 143 183 175
3 144 176 184
3 144 184 176
3 146 160 189
3 146 189 160
3 146 166 189
3 146 189 166
3 147 175 187
3 147 187 175
3 147 177 187
3 147 187 177
3 148 176 188
3 148 188 176
3 148 178 188
3 148 188 178
