COFF
27 72 27

-3.79297 0.651607 2.44677 0.5 0.5 0.5 1
-3.79297 -0.651607 2.44677 0.5 0.5 0.5 1
-0.0245552 -1.39257 2.33303 0.5 0.5 0.5 1
4.10504 -0.6425 2.46423 0.5 0.5 0.5 1
4.10504 0.6425 2.46423 0.5 0.5 0.5 1
-0.0245552 1.39257 2.33303 0.5 0.5 0.5 1
0.938868 -1.10093 2.35016 0.5 0.5 0.5 1
0.938868 1.10093 2.35016 0.5 0.5 0.5 1
-0.988658 1.09032 2.35139 0.5 0.5 0.5 1
-0.988658 -1.09032 2.35139 0.5 0.5 0.5 1
1.89732 -0.892672 2.54456 0.5 0.5 0.5 1
1.89732 0.892672 2.54456 0.5 0.5 0.5 1
-1.95736 0.899423 2.50513 0.5 0.5 0.5 1
-1.95736 -0.899423 2.50513 0.5 0.5 0.5 1
2.93429 -0.769432 2.49951 0.5 0.5 0.5 1
2.93429 0.769432 2.49951 0.5 0.5 0.5 1
-1.65128 0.763174 1.78923 0.5 0.5 0.5 1
-1.65128 -0.763174 1.78923 0.5 0.5 0.5 1
1.72625 0.754451 1.8004 0.5 0.5 0.5 1
2.96972 -0.631932 1.87948 0.5 0.5 0.5 1
2.96972 0.631932 1.87948 0.5 0.5 0.5 1
-2.85498 0.658167 1.9162 0.5 0.5 0.5 1
-2.85498 -0.658167 1.9162 0.5 0.5 0.5 1
5.09986e-05 -3.12779e-17 1.02806 1 1 0 1
1.72625 -0.754451 1.8004 0.5 0.5 0.5 1
0.885296 0.385729 1.40276 0.5 0.5 0.5 1
0.885296 -0.385729 1.40276 0.5 0.5 0.5 1

3 0 1 22
3 0 22 1
3 0 12 16
3 0 16 12
3 0 16 21
3 0 21 16
3 0 21 22
3 0 22 21
3 1 13 17
3 1 17 13
3 1 17 22
3 1 22 17
3 2 6 23
3 2 23 6
3 2 9 23
3 2 23 9
3 3 4 20
3 3 20 4
3 3 14 19
3 3 19 14
3 3 19 20
3 3 20 19
3 4 15 20
3 4 20 15
3 5 7 23
3 5 23 7
3 5 8 23
3 5 23 8
3 6 10 24
3 6 24 10
3 6 23 26
3 6 26 23
3 6 24 26
3 6 26 24
3 7 11 18
3 7 18 11
3 7 18 25
3 7 25 18
3 7 23 25
3 7 25 23
3 8 12 16
3 8 16 12
3 8 16 23
3 8 23 16
3 9 13 17
3 9 17 13
3 9 17 23
3 9 23 17
3 10 14 24
3 10 24 14
3 11 15 18
3 11 18 15
3 14 19 24
3 14 24 19
3 15 18 20
3 15 20 18
3 16 17 22
3 16 22 17
3 16 17 23
3 16 23 17
3 16 21 22
3 16 22 21
3 18 19 20
3 18 20 19
3 18 19 24
3 18 24 19
3 18 24 26
3 18 26 24
3 18 25 26
3 18 26 25
3 23 25 26
3 23 26 25
