COFF
37 116 37

-4.64375 0.701855 3.20756 0.5 0.5 0.5 1
-4.64375 -0.701855 3.20756 0.5 0.5 0.5 1
-0.0261205 -1.58108 2.97293 0.5 0.5 0.5 1
4.98069 -0.686428 3.2363 0.5 0.5 0.5 1
4.98069 0.686428 3.2363 0.5 0.5 0.5 1
-0.0261205 1.58108 2.97293 0.5 0.5 0.5 1
0.986589 -1.29001 3.09276 0.5 0.5 0.5 1
0.986589 1.29001 3.09276 0.5 0.5 0.5 1
-1.03623 1.27279 3.06191 0.5 0.5 0.5 1
-1.03623 -1.27279 3.06191 0.5 0.5 0.5 1
1.92187 -0.990266 3.28803 0.5 0.5 0.5 1
1.92187 0.990266 3.28803 0.5 0.5 0.5 1
-1.98039 1.00573 3.25447 0.5 0.5 0.5 1
-1.98039 -1.00573 3.25447 0.5 0.5 0.5 1
3.05188 -0.852764 3.29304 0.5 0.5 0.5 1
3.05188 0.852764 3.29304 0.5 0.5 0.5 1
-2.99432 0.867546 3.23845 0.5 0.5 0.5 1
-2.99432 -0.867546 3.23845 0.5 0.5 0.5 1
2.10663 0.865911 2.41317 0.5 0.5 0.5 1
3.41101 -0.709757 2.57735 0.5 0.5 0.5 1
3.41101 0.709757 2.57735 0.5 0.5 0.5 1
-3.33558 0.722319 2.54659 0.5 0.5 0.5 1
-3.33558 -0.722319 2.54659 0.5 0.5 0.5 1
-0.0257168 -3.21699e-17 1.02806 1 1 0 1
2.10663 -0.865911 2.41317 0.5 0.5 0.5 1
1.16563 0.842601 1.7641 0.5 0.5 0.5 1
1.16563 -0.842601 1.7641 0.5 0.5 0.5 1
-0.818645 1.13395 2.24304 0.5 0.5 0.5 1
-0.818645 -1.13395 2.24304 0.5 0.5 0.5 1
-1.68233 0.606637 1.57688 0.5 0.5 0.5 1
-1.68233 -0.606637 1.57688 0.5 0.5 0.5 1
0.843061 -1.05912 2.11803 0.5 0.5 0.5 1
0.843061 1.05912 2.11803 0.5 0.5 0.5 1
-2.08814 0.87565 2.3942 0.5 0.5 0.5 1
-2.08814 -0.87565 2.3942 0.5 0.5 0.5 1
-0.0394191 -1.17783 2.09055 0.5 0.5 0.5 1
-0.0394191 1.17783 2.09055 0.5 0.5 0.5 1

3 0 1 22
3 0 22 1
3 0 16 21
3 0 21 16
3 0 21 22
3 0 22 21
3 1 17 22
3 1 22 17
3 2 6 31
3 2 31 6
3 2 9 28
3 2 28 9
3 2 23 28
3 2 28 23
3 2 23 31
3 2 31 23
3 2 28 35
3 2 35 28
3 2 31 35
3 2 35 31
3 3 4 20
3 3 20 4
3 3 14 19
3 3 19 14
3 3 19 20
3 3 20 19
3 4 15 20
3 4 20 15
3 5 7 32
3 5 32 7
3 5 8 27
3 5 27 8
3 5 23 27
3 5 27 23
3 5 23 32
3 5 32 23
3 5 27 36
3 5 36 27
3 5 32 36
3 5 36 32
3 6 10 24
3 6 24 10
3 6 24 31
3 6 31 24
3 7 11 18
3 7 18 11
3 7 18 32
3 7 32 18
3 8 12 33
3 8 33 12
3 8 27 33
3 8 33 27
3 9 13 34
3 9 34 13
3 9 28 34
3 9 34 28
3 10 14 24
3 10 24 14
3 11 15 18
3 11 18 15
3 12 16 33
3 12 33 16
3 13 17 34
3 13 34 17
3 14 19 24
3 14 24 19
3 15 18 20
3 15 20 18
3 16 21 33
3 16 33 21
3 17 22 34
3 17 34 22
3 18 19 20
3 18 20 19
3 18 19 24
3 18 24 19
3 18 24 26
3 18 26 24
3 18 25 26
3 18 26 25
3 18 25 32
3 18 32 25
3 21 22 34
3 21 34 22
3 21 33 34
3 21 34 33
3 23 25 26
3 23 26 25
3 23 25 32
3 23 32 25
3 23 26 31
3 23 31 26
3 23 27 33
3 23 33 27
3 23 27 36
3 23 36 27
3 23 28 34
3 23 34 28
3 23 28 35
3 23 35 28
3 23 29 30
3 23 30 29
3 23 29 33
3 23 33 29
3 23 30 34
3 23 34 30
3 23 31 35
3 23 35 31
3 23 32 36
3 23 36 32
3 24 26 31
3 24 31 26
3 29 30 34
3 29 34 30
3 29 33 34
3 29 34 33
