COFF
45 144 45

-4.97381 0.721679 3.59494 0.5 0.5 0.5 1
-4.97381 -0.721679 3.59494 0.5 0.5 0.5 1
-0.0266314 -1.65909 3.30592 0.5 0.5 0.5 1
5.31529 -0.703417 3.62882 0.5 0.5 0.5 1
5.31529 0.703417 3.62882 0.5 0.5 0.5 1
-0.0266314 1.65909 3.30592 0.5 0.5 0.5 1
1.00488 -1.3485 3.44415 0.5 0.5 0.5 1
1.00488 1.3485 3.44415 0.5 0.5 0.5 1
-1.05591 1.3374 3.40797 0.5 0.5 0.5 1
-1.05591 -1.3374 3.40797 0.5 0.5 0.5 1
1.93101 -1.03071 3.66261 0.5 0.5 0.5 1
1.93101 1.03071 3.66261 0.5 0.5 0.5 1
-1.99114 1.05247 3.62207 0.5 0.5 0.5 1
-1.99114 -1.05247 3.62207 0.5 0.5 0.5 1
3.0745 -0.886844 3.69431 0.5 0.5 0.5 1
3.0745 0.886844 3.69431 0.5 0.5 0.5 1
-3.01347 0.906684 3.62945 0.5 0.5 0.5 1
-3.01347 -0.906684 3.62945 0.5 0.5 0.5 1
4.08551 -0.795977 3.65687 0.5 0.5 0.5 1
4.08551 0.795977 3.65687 0.5 0.5 0.5 1
3.62754 0.733202 2.95399 0.5 0.5 0.5 1
-3.49412 0.757227 2.92032 0.5 0.5 0.5 1
-3.49412 -0.757227 2.92032 0.5 0.5 0.5 1
-0.0285933 -4.74318e-17 1.02806 1 1 0 1
2.19919 -0.913424 2.7445 0.5 0.5 0.5 1
1.28726 0.980407 2.02837 0.5 0.5 0.5 1
1.28726 -0.980407 2.02837 0.5 0.5 0.5 1
-0.957797 1.24669 2.55486 0.5 0.5 0.5 1
-0.957797 -1.24669 2.55486 0.5 0.5 0.5 1
-1.79215 0.71808 1.77695 0.5 0.5 0.5 1
-1.79215 -0.71808 1.77695 0.5 0.5 0.5 1
0.958645 -1.19078 2.41974 0.5 0.5 0.5 1
0.958645 1.19078 2.41974 0.5 0.5 0.5 1
-2.19277 0.920409 2.69995 0.5 0.5 0.5 1
-2.19277 -0.920409 2.69995 0.5 0.5 0.5 1
-0.0354038 -1.3209 2.35736 0.5 0.5 0.5 1
-0.0354038 1.3209 2.35736 0.5 0.5 0.5 1
2.19919 0.913424 2.7445 0.5 0.5 0.5 1
3.62754 -0.733202 2.95399 0.5 0.5 0.5 1
-0.460231 -0.821618 1.8359 0.5 0.5 0.5 1
-0.460231 0.821618 1.8359 0.5 0.5 0.5 1
-1.04108 -0.34883 1.36913 0.5 0.5 0.5 1
-1.04108 0.34883 1.36913 0.5 0.5 0.5 1
0.520601 0.678357 1.70516 0.5 0.5 0.5 1
0.520601 -0.678357 1.70516 0.5 0.5 0.5 1

3 0 1 22
3 0 22 1
3 0 16 21
3 0 21 16
3 0 21 22
3 0 22 21
3 1 17 22
3 1 22 17
3 2 6 31
3 2 31 6
3 2 9 28
3 2 28 9
3 2 28 35
3 2 35 28
3 2 31 35
3 2 35 31
3 3 4 20
3 3 20 4
3 3 18 38
3 3 38 18
3 3 20 38
3 3 38 20
3 4 19 20
3 4 20 19
3 5 7 32
3 5 32 7
3 5 8 27
3 5 27 8
3 5 27 36
3 5 36 27
3 5 32 36
3 5 36 32
3 6 10 24
3 6 24 10
3 6 24 31
3 6 31 24
3 7 11 37
3 7 37 11
3 7 32 37
3 7 37 32
3 8 12 33
3 8 33 12
3 8 27 33
3 8 33 27
3 9 13 34
3 9 34 13
3 9 28 34
3 9 34 28
3 10 14 24
3 10 24 14
3 11 15 37
3 11 37 15
3 12 16 33
3 12 33 16
3 13 17 34
3 13 34 17
3 14 18 38
3 14 38 18
3 14 24 38
3 14 38 24
3 15 19 20
3 15 20 19
3 15 20 37
3 15 37 20
3 16 21 33
3 16 33 21
3 17 22 34
3 17 34 22
3 20 24 37
3 20 37 24
3 20 24 38
3 20 38 24
3 21 22 34
3 21 34 22
3 21 33 34
3 21 34 33
3 23 25 26
3 23 26 25
3 23 25 32
3 23 32 25
3 23 25 43
3 23 43 25
3 23 26 31
3 23 31 26
3 23 26 44
3 23 44 26
3 23 29 40
3 23 40 29
3 23 29 42
3 23 42 29
3 23 30 39
3 23 39 30
3 23 30 41
3 23 41 30
3 23 31 35
3 23 35 31
3 23 32 36
3 23 36 32
3 23 35 39
3 23 39 35
3 23 35 44
3 23 44 35
3 23 36 40
3 23 40 36
3 23 36 43
3 23 43 36
3 23 41 42
3 23 42 41
3 24 25 26
3 24 26 25
3 24 25 37
3 24 37 25
3 24 26 31
3 24 31 26
3 25 32 37
3 25 37 32
3 25 32 43
3 25 43 32
3 26 31 44
3 26 44 31
3 27 33 40
3 27 40 33
3 27 36 40
3 27 40 36
3 28 34 39
3 28 39 34
3 28 35 39
3 28 39 35
3 29 30 34
3 29 34 30
3 29 30 41
3 29 41 30
3 29 33 34
3 29 34 33
3 29 33 40
3 29 40 33
3 29 41 42
3 29 42 41
3 30 34 39
3 30 39 34
3 31 35 44
3 31 44 35
3 32 36 43
3 32 43 36
