COFF
53 176 53

-5.27378 0.73983 3.98423 0.5 0.5 0.5 1
-5.27378 -0.73983 3.98423 0.5 0.5 0.5 1
-0.0269468 -1.729 3.64513 0.5 0.5 0.5 1
5.60571 -0.718294 4.02398 0.5 0.5 0.5 1
5.60571 0.718294 4.02398 0.5 0.5 0.5 1
-0.0269468 1.729 3.64513 0.5 0.5 0.5 1
1.02232 -1.40143 3.7996 0.5 0.5 0.5 1
1.02232 1.40143 3.7996 0.5 0.5 0.5 1
-1.07347 1.39326 3.76028 0.5 0.5 0.5 1
-1.07347 -1.39326 3.76028 0.5 0.5 0.5 1
1.94011 -1.06891 4.03839 0.5 0.5 0.5 1
1.94011 1.06891 4.03839 0.5 0.5 0.5 1
-2.00108 1.09606 3.99168 0.5 0.5 0.5 1
-2.00108 -1.09606 3.99168 0.5 0.5 0.5 1
3.084 -0.919918 4.08355 0.5 0.5 0.5 1
3.084 0.919918 4.08355 0.5 0.5 0.5 1
-3.01798 0.945 4.00678 0.5 0.5 0.5 1
-3.01798 -0.945 4.00678 0.5 0.5 0.5 1
4.09311 -0.818927 4.05061 0.5 0.5 0.5 1
4.09311 0.818927 4.05061 0.5 0.5 0.5 1
-4.01281 0.84287 3.99879 0.5 0.5 0.5 1
-4.01281 -0.84287 3.99879 0.5 0.5 0.5 1
-3.67858 -0.780891 3.30393 0.5 0.5 0.5 1
-0.00376333 -5.08077e-17 1.02806 1 1 0 1
2.2686 -0.941939 3.0808 0.5 0.5 0.5 1
1.41608 1.10577 2.33616 0.5 0.5 0.5 1
1.41608 -1.10577 2.33616 0.5 0.5 0.5 1
-1.04376 1.32716 2.9056 0.5 0.5 0.5 1
-1.04376 -1.32716 2.9056 0.5 0.5 0.5 1
-1.83821 0.843179 2.0524 0.5 0.5 0.5 1
-1.83821 -0.843179 2.0524 0.5 0.5 0.5 1
1.04459 -1.30228 2.77538 0.5 0.5 0.5 1
1.04459 1.30228 2.77538 0.5 0.5 0.5 1
-2.2603 0.966173 3.02527 0.5 0.5 0.5 1
-2.2603 -0.966173 3.02527 0.5 0.5 0.5 1
-0.0106472 -1.42179 2.62655 0.5 0.5 0.5 1
-0.0106472 1.42179 2.62655 0.5 0.5 0.5 1
2.2686 0.941939 3.0808 0.5 0.5 0.5 1
3.80376 -0.757079 3.35031 0.5 0.5 0.5 1
-0.533025 -1.1092 2.126 0.5 0.5 0.5 1
-0.533025 1.1092 2.126 0.5 0.5 0.5 1
-1.32981 -0.44913 1.37082 0.5 0.5 0.5 1
-1.32981 0.44913 1.37082 0.5 0.5 0.5 1
0.674517 0.980508 1.8641 0.5 0.5 0.5 1
0.674517 -0.980508 1.8641 0.5 0.5 0.5 1
3.80376 0.757079 3.35031 0.5 0.5 0.5 1
-3.67858 0.780891 3.30393 0.5 0.5 0.5 1
1.60764 -1.23437e-16 2.24965 0.5 0.5 0.5 1
0.92872 0.671678 1.66556 0.5 0.5 0.5 1
0.92872 -0.671678 1.66556 0.5 0.5 0.5 1
-0.0436908 0.899519 1.82871 0.5 0.5 0.5 1
-0.0436908 -0.899519 1.82871 0.5 0.5 0.5 1
0.82657 -8.81486e-17 1.63071 0.5 0.5 0.5 1

3 0 1 22
3 0 22 1
3 0 20 46
3 0 46 20
3 0 22 46
3 0 46 22
3 1 21 22
3 1 22 21
3 2 6 31
3 2 31 6
3 2 9 28
3 2 28 9
3 2 28 35
3 2 35 28
3 2 31 35
3 2 35 31
3 3 4 45
3 3 45 4
3 3 18 38
3 3 38 18
3 3 38 45
3 3 45 38
3 4 19 45
3 4 45 19
3 5 7 32
3 5 32 7
3 5 8 27
3 5 27 8
3 5 27 36
3 5 36 27
3 5 32 36
3 5 36 32
3 6 10 24
3 6 24 10
3 6 24 31
3 6 31 24
3 7 11 37
3 7 37 11
3 7 32 37
3 7 37 32
3 8 12 33
3 8 33 12
3 8 27 33
3 8 33 27
3 9 13 34
3 9 34 13
3 9 28 34
3 9 34 28
3 10 14 24
3 10 24 14
3 11 15 37
3 11 37 15
3 12 16 33
3 12 33 16
3 13 17 34
3 13 34 17
3 14 18 38
3 14 38 18
3 14 24 38
3 14 38 24
3 15 19 45
3 15 45 19
3 15 37 45
3 15 45 37
3 16 20 46
3 16 46 20
3 16 33 46
3 16 46 33
3 17 21 22
3 17 22 21
3 17 22 34
3 17 34 22
3 22 33 34
3 22 34 33
3 22 33 46
3 22 46 33
3 23 29 40
3 23 40 29
3 23 29 42
3 23 42 29
3 23 30 39
3 23 39 30
3 23 30 41
3 23 41 30
3 23 35 39
3 23 39 35
3 23 35 44
3 23 44 35
3 23 36 40
3 23 40 36
3 23 36 43
3 23 43 36
3 23 39 51
3 23 51 39
3 23 40 50
3 23 50 40
3 23 41 42
3 23 42 41
3 23 43 48
3 23 48 43
3 23 43 50
3 23 50 43
3 23 44 49
3 23 49 44
3 23 44 51
3 23 51 44
3 23 47 48
3 23 48 47
3 23 47 49
3 23 49 47
3 23 48 52
3 23 52 48
3 23 49 52
3 23 52 49
3 24 26 31
3 24 31 26
3 24 26 47
3 24 47 26
3 24 37 45
3 24 45 37
3 24 37 47
3 24 47 37
3 24 38 45
3 24 45 38
3 25 32 37
3 25 37 32
3 25 32 43
3 25 43 32
3 25 37 47
3 25 47 37
3 25 43 48
3 25 48 43
3 25 47 48
3 25 48 47
3 26 31 44
3 26 44 31
3 26 44 49
3 26 49 44
3 26 47 49
3 26 49 47
3 27 33 40
3 27 40 33
3 27 36 40
3 27 40 36
3 28 34 39
3 28 39 34
3 28 35 39
3 28 39 35
3 29 30 34
3 29 34 30
3 29 30 41
3 29 41 30
3 29 33 34
3 29 34 33
3 29 33 40
3 29 40 33
3 29 41 42
3 29 42 41
3 30 34 39
3 30 39 34
3 31 35 44
3 31 44 35
3 32 36 43
3 32 43 36
3 35 39 51
3 35 51 39
3 35 44 51
3 35 51 44
3 36 40 50
3 36 50 40
3 36 43 50
3 36 50 43
3 47 48 52
3 47 52 48
3 47 49 52
3 47 52 49
