COFF
58 192 58

-5.55855 0.757246 4.37412 0.5 0.5 0.5 1
-5.55855 -0.757246 4.37412 0.5 0.5 0.5 1
-0.0271626 -1.78984 3.99173 0.5 0.5 0.5 1
6.18928 -0.748503 4.39625 0.5 0.5 0.5 1
6.18928 0.748503 4.39625 0.5 0.5 0.5 1
-0.0271626 1.78984 3.99173 0.5 0.5 0.5 1
1.03881 -1.44962 4.15852 0.5 0.5 0.5 1
1.03881 1.44962 4.15852 0.5 0.5 0.5 1
-1.08948 1.44252 4.11795 0.5 0.5 0.5 1
-1.08948 -1.44252 4.11795 0.5 0.5 0.5 1
1.94969 -1.10777 4.41248 0.5 0.5 0.5 1
1.94969 1.10777 4.41248 0.5 0.5 0.5 1
-2.0105 1.13579 4.36411 0.5 0.5 0.5 1
-2.0105 -1.13579 4.36411 0.5 0.5 0.5 1
3.06304 -0.975001 4.46139 0.5 0.5 0.5 1
3.06304 0.975001 4.46139 0.5 0.5 0.5 1
-3.02238 0.98287 4.3833 0.5 0.5 0.5 1
-3.02238 -0.98287 4.3833 0.5 0.5 0.5 1
4.05697 -0.885942 4.47192 0.5 0.5 0.5 1
4.05697 0.885942 4.47192 0.5 0.5 0.5 1
-4.01611 0.870405 4.38628 0.5 0.5 0.5 1
-4.01611 -0.870405 4.38628 0.5 0.5 0.5 1
5.05782 -0.818545 4.42924 0.5 0.5 0.5 1
5.05782 0.818545 4.42924 0.5 0.5 0.5 1
2.32552 -0.964705 3.401 0.5 0.5 0.5 1
1.51674 1.17563 2.65027 0.5 0.5 0.5 1
1.51674 -1.17563 2.65027 0.5 0.5 0.5 1
-1.10017 1.38863 3.26357 0.5 0.5 0.5 1
-1.10017 -1.38863 3.26357 0.5 0.5 0.5 1
-1.86096 0.848399 2.32042 0.5 0.5 0.5 1
-1.86096 -0.848399 2.32042 0.5 0.5 0.5 1
1.106 -1.36932 3.13581 0.5 0.5 0.5 1
1.106 1.36932 3.13581 0.5 0.5 0.5 1
-2.31283 1.00958 3.36661 0.5 0.5 0.5 1
-2.31283 -1.00958 3.36661 0.5 0.5 0.5 1
-0.000575663 -1.50434 2.9188 0.5 0.5 0.5 1
-0.000575663 1.50434 2.9188 0.5 0.5 0.5 1
2.32552 0.964705 3.401 0.5 0.5 0.5 1
3.909 -0.618662 3.46312 1 1 0 1
-0.591883 -1.26518 2.40897 0.5 0.5 0.5 1
-0.591883 1.26518 2.40897 0.5 0.5 0.5 1
-1.54571 -0.610819 1.46793 0.5 0.5 0.5 1
-1.54571 0.610819 1.46793 0.5 0.5 0.5 1
0.799281 1.19171 2.12593 0.5 0.5 0.5 1
0.799281 -1.19171 2.12593 0.5 0.5 0.5 1
3.909 0.618662 3.46312 1 1 0 1
-3.8064 0.660181 3.60169 1 1 0 1
1.78455 -2.23848e-16 2.53198 0.5 0.5 0.5 1
1.14544 0.803243 1.88104 0.5 0.5 0.5 1
1.14544 -0.803243 1.88104 0.5 0.5 0.5 1
-0.0131936 1.18845 2.05305 0.5 0.5 0.5 1
-0.0131936 -1.18845 2.05305 0.5 0.5 0.5 1
1.20068 -1.47048e-16 1.75671 0.5 0.5 0.5 1
4.77521 -0.670939 3.81921 1 1 0 1
4.77521 0.670939 3.81921 1 1 0 1
-2.34546 -2.04183e-16 3.28993 0.5 0.5 0.5 1
-3.8064 -0.660181 3.60169 1 1 0 1
0.00917038 -5.55167e-17 1.02806 1 1 0 1

3 0 1 56
3 0 56 1
3 0 20 46
3 0 46 20
3 0 46 56
3 0 56 46
3 1 21 56
3 1 56 21
3 2 6 31
3 2 31 6
3 2 9 28
3 2 28 9
3 2 28 35
3 2 35 28
3 2 31 35
3 2 35 31
3 3 4 54
3 3 54 4
3 3 22 53
3 3 53 22
3 3 53 54
3 3 54 53
3 4 23 54
3 4 54 23
3 5 7 32
3 5 32 7
3 5 8 27
3 5 27 8
3 5 27 36
3 5 36 27
3 5 32 36
3 5 36 32
3 6 10 24
3 6 24 10
3 6 24 31
3 6 31 24
3 7 11 37
3 7 37 11
3 7 32 37
3 7 37 32
3 8 12 33
3 8 33 12
3 8 27 33
3 8 33 27
3 9 13 34
3 9 34 13
3 9 28 34
3 9 34 28
3 10 14 24
3 10 24 14
3 11 15 37
3 11 37 15
3 12 16 33
3 12 33 16
3 13 17 34
3 13 34 17
3 14 18 38
3 14 38 18
3 14 24 38
3 14 38 24
3 15 19 45
3 15 45 19
3 15 37 45
3 15 45 37
3 16 20 46
3 16 46 20
3 16 33 46
3 16 46 33
3 17 21 56
3 17 56 21
3 17 34 56
3 17 56 34
3 18 22 38
3 18 38 22
3 19 23 45
3 19 45 23
3 22 38 53
3 22 53 38
3 23 45 54
3 23 54 45
3 24 26 31
3 24 31 26
3 24 26 47
3 24 47 26
3 24 37 45
3 24 45 37
3 24 37 47
3 24 47 37
3 24 38 45
3 24 45 38
3 25 32 37
3 25 37 32
3 25 32 43
3 25 43 32
3 25 37 47
3 25 47 37
3 25 43 48
3 25 48 43
3 25 47 48
3 25 48 47
3 26 31 44
3 26 44 31
3 26 44 49
3 26 49 44
3 26 47 49
3 26 49 47
3 27 33 40
3 27 40 33
3 27 36 40
3 27 40 36
3 28 34 39
3 28 39 34
3 28 35 39
3 28 39 35
3 29 30 41
3 29 41 30
3 29 30 55
3 29 55 30
3 29 33 40
3 29 40 33
3 29 33 55
3 29 55 33
3 29 40 57
3 29 57 40
3 29 41 42
3 29 42 41
3 29 42 57
3 29 57 42
3 30 34 39
3 30 39 34
3 30 34 55
3 30 55 34
3 30 39 57
3 30 57 39
3 30 41 57
3 30 57 41
3 31 35 44
3 31 44 35
3 32 36 43
3 32 43 36
3 33 46 55
3 33 55 46
3 34 55 56
3 34 56 55
3 35 39 51
3 35 51 39
3 35 39 57
3 35 57 39
3 35 44 51
3 35 51 44
3 35 44 57
3 35 57 44
3 36 40 50
3 36 50 40
3 36 40 57
3 36 57 40
3 36 43 50
3 36 50 43
3 36 43 57
3 36 57 43
3 38 45 54
3 38 54 45
3 38 53 54
3 38 54 53
3 39 51 57
3 39 57 51
3 40 50 57
3 40 57 50
3 41 42 57
3 41 57 42
3 43 48 57
3 43 57 48
3 43 50 57
3 43 57 50
3 44 49 57
3 44 57 49
3 44 51 57
3 44 57 51
3 46 55 56
3 46 56 55
3 47 48 52
3 47 52 48
3 47 48 57
3 47 57 48
3 47 49 52
3 47 52 49
3 47 49 57
3 47 57 49
3 48 52 57
3 48 57 52
3 49 52 57
3 49 57 52
