COFF
75 256 75

-6.30278 0.845401 5.07147 0.5 0.5 0.5 1
-6.30278 -0.845401 5.07147 0.5 0.5 0.5 1
-0.0277895 -1.90804 4.68398 0.5 0.5 0.5 1
7.26791 -0.884008 5.0234 0.5 0.5 0.5 1
7.26791 0.884008 5.0234 0.5 0.5 0.5 1
-0.0277895 1.90804 4.68398 0.5 0.5 0.5 1
1.07356 -1.56506 4.85256 0.5 0.5 0.5 1
1.07356 1.56506 4.85256 0.5 0.5 0.5 1
-1.11166 1.55354 4.817 0.5 0.5 0.5 1
-1.11166 -1.55354 4.817 0.5 0.5 0.5 1
1.98167 -1.23293 5.10839 0.5 0.5 0.5 1
1.98167 1.23293 5.10839 0.5 0.5 0.5 1
-2.0277 1.24686 5.07522 0.5 0.5 0.5 1
-2.0277 -1.24686 5.07522 0.5 0.5 0.5 1
3.03622 -1.20675 5.06018 0.5 0.5 0.5 1
3.03622 1.20675 5.06018 0.5 0.5 0.5 1
-3.02328 1.17999 5.01798 0.5 0.5 0.5 1
-3.02328 -1.17999 5.01798 0.5 0.5 0.5 1
4.03542 -1.17535 5.07637 0.5 0.5 0.5 1
4.03542 1.17535 5.07637 0.5 0.5 0.5 1
-4.01957 1.09565 5.03138 0.5 0.5 0.5 1
-4.01957 -1.09565 5.03138 0.5 0.5 0.5 1
5.03183 -1.15894 4.96866 0.5 0.5 0.5 1
5.03183 1.15894 4.96866 0.5 0.5 0.5 1
6.05405 -1.04355 4.98082 0.5 0.5 0.5 1
6.05405 1.04355 4.98082 0.5 0.5 0.5 1
-5.01505 0.996062 5.03349 0.5 0.5 0.5 1
-5.01505 -0.996062 5.03349 0.5 0.5 0.5 1
-1.10389 -1.51049 3.93111 0.5 0.5 0.5 1
-1.92017 0.792069 2.86734 0.5 0.5 0.5 1
-1.92017 -0.792069 2.86734 0.5 0.5 0.5 1
1.03775 -1.4985 3.74075 0.5 0.5 0.5 1
1.03775 1.4985 3.74075 0.5 0.5 0.5 1
-2.23607 1.14832 3.95825 0.5 0.5 0.5 1
-2.23607 -1.14832 3.95825 0.5 0.5 0.5 1
0.0157034 -1.63243 3.51304 0.5 0.5 0.5 1
0.0157034 1.63243 3.51304 0.5 0.5 0.5 1
2.24603 1.10213 4.04229 0.5 0.5 0.5 1
3.93521 -0.618855 3.46312 1 1 0 1
-0.767896 -1.45514 3.02843 0.5 0.5 0.5 1
-0.767896 1.45514 3.02843 0.5 0.5 0.5 1
-1.46266 -0.715658 1.72235 0.5 0.5 0.5 1
-1.46266 0.715658 1.72235 0.5 0.5 0.5 1
0.92739 1.42954 2.68971 0.5 0.5 0.5 1
0.92739 -1.42954 2.68971 0.5 0.5 0.5 1
3.93521 0.618855 3.46312 1 1 0 1
-4.04513 0.660594 3.60169 1 1 0 1
1.99837 1.11652e-15 3.12309 0.5 0.5 0.5 1
1.35257 1.01563 2.39627 0.5 0.5 0.5 1
1.35257 -1.01563 2.39627 0.5 0.5 0.5 1
0.0789668 1.46881 2.55453 0.5 0.5 0.5 1
0.0789668 -1.46881 2.55453 0.5 0.5 0.5 1
1.57832 5.61762e-15 2.24036 0.5 0.5 0.5 1
4.80156 -0.671789 3.81921 1 1 0 1
4.80156 0.671789 3.81921 1 1 0 1
-2.57647 -5.68188e-17 3.32767 0.5 0.5 0.5 1
-4.04513 -0.660594 3.60169 1 1 0 1
0.0560963 -9.40492e-18 1.02806 1 1 0 1
-0.424006 -1.22118 2.23138 0.5 0.5 0.5 1
-0.424006 1.22118 2.23138 0.5 0.5 0.5 1
-5.34383 0.819847 4.35707 0.5 0.5 0.5 1
-5.34383 -0.819847 4.35707 0.5 0.5 0.5 1
6.35013 -0.865472 4.41193 0.5 0.5 0.5 1
6.35013 0.865472 4.41193 0.5 0.5 0.5 1
2.24603 -1.10213 4.04229 0.5 0.5 0.5 1
1.55767 1.29692 3.29867 0.5 0.5 0.5 1
0.716594 1.04116 1.86436 0.5 0.5 0.5 1
0.716594 -1.04116 1.86436 0.5 0.5 0.5 1
1.55767 -1.29692 3.29867 0.5 0.5 0.5 1
-1.10389 1.51049 3.93111 0.5 0.5 0.5 1
2.24643 -3.57769e-15 3.91425 0.5 0.5 0.5 1
0.925534 0.605634 1.67745 0.5 0.5 0.5 1
0.925534 -0.605634 1.67745 0.5 0.5 0.5 1
0.0184432 0.9003 1.77564 0.5 0.5 0.5 1
0.0184432 -0.9003 1.77564 0.5 0.5 0.5 1

3 0 1 61
3 0 61 1
3 0 26 60
3 0 60 26
3 0 60 61
3 0 61 60
3 1 27 61
3 1 61 27
3 2 6 31
3 2 31 6
3 2 9 28
3 2 28 9
3 2 28 35
3 2 35 28
3 2 31 35
3 2 35 31
3 3 4 63
3 3 63 4
3 3 24 62
3 3 62 24
3 3 62 63
3 3 63 62
3 4 25 63
3 4 63 25
3 5 7 32
3 5 32 7
3 5 8 69
3 5 69 8
3 5 32 36
3 5 36 32
3 5 36 69
3 5 69 36
3 6 10 64
3 6 64 10
3 6 31 64
3 6 64 31
3 7 11 37
3 7 37 11
3 7 32 37
3 7 37 32
3 8 12 33
3 8 33 12
3 8 33 69
3 8 69 33
3 9 13 34
3 9 34 13
3 9 28 34
3 9 34 28
3 10 14 64
3 10 64 14
3 11 15 37
3 11 37 15
3 12 16 33
3 12 33 16
3 13 17 34
3 13 34 17
3 14 18 38
3 14 38 18
3 14 38 64
3 14 64 38
3 15 19 45
3 15 45 19
3 15 37 45
3 15 45 37
3 16 20 46
3 16 46 20
3 16 33 46
3 16 46 33
3 17 21 56
3 17 56 21
3 17 34 56
3 17 56 34
3 18 22 38
3 18 38 22
3 19 23 45
3 19 45 23
3 20 26 46
3 20 46 26
3 21 27 56
3 21 56 27
3 22 24 53
3 22 53 24
3 22 38 53
3 22 53 38
3 23 25 54
3 23 54 25
3 23 45 54
3 23 54 45
3 24 53 62
3 24 62 53
3 25 54 63
3 25 63 54
3 26 46 60
3 26 60 46
3 27 56 61
3 27 61 56
3 28 34 39
3 28 39 34
3 28 35 39
3 28 39 35
3 29 30 41
3 29 41 30
3 29 30 55
3 29 55 30
3 29 33 40
3 29 40 33
3 29 33 55
3 29 55 33
3 29 40 59
3 29 59 40
3 29 41 42
3 29 42 41
3 29 42 59
3 29 59 42
3 30 34 39
3 30 39 34
3 30 34 55
3 30 55 34
3 30 39 58
3 30 58 39
3 30 41 58
3 30 58 41
3 31 35 44
3 31 44 35
3 31 44 68
3 31 68 44
3 31 64 68
3 31 68 64
3 32 36 43
3 32 43 36
3 32 37 65
3 32 65 37
3 32 43 65
3 32 65 43
3 33 40 69
3 33 69 40
3 33 46 55
3 33 55 46
3 34 55 56
3 34 56 55
3 35 39 51
3 35 51 39
3 35 44 51
3 35 51 44
3 36 40 50
3 36 50 40
3 36 40 69
3 36 69 40
3 36 43 50
3 36 50 43
3 37 45 70
3 37 70 45
3 37 47 65
3 37 65 47
3 37 47 70
3 37 70 47
3 38 45 54
3 38 54 45
3 38 45 70
3 38 70 45
3 38 53 54
3 38 54 53
3 38 64 70
3 38 70 64
3 39 51 58
3 39 58 51
3 40 50 59
3 40 59 50
3 41 42 57
3 41 57 42
3 41 57 58
3 41 58 57
3 42 57 59
3 42 59 57
3 43 48 65
3 43 65 48
3 43 48 66
3 43 66 48
3 43 50 66
3 43 66 50
3 44 49 67
3 44 67 49
3 44 49 68
3 44 68 49
3 44 51 67
3 44 67 51
3 46 55 56
3 46 56 55
3 46 56 61
3 46 61 56
3 46 60 61
3 46 61 60
3 47 48 52
3 47 52 48
3 47 48 65
3 47 65 48
3 47 49 52
3 47 52 49
3 47 49 68
3 47 68 49
3 47 64 68
3 47 68 64
3 47 64 70
3 47 70 64
3 48 52 57
3 48 57 52
3 48 52 71
3 48 71 52
3 48 57 66
3 48 66 57
3 48 66 71
3 48 71 66
3 49 52 57
3 49 57 52
3 49 52 72
3 49 72 52
3 49 57 67
3 49 67 57
3 49 67 72
3 49 72 67
3 50 57 59
3 50 59 57
3 50 57 66
3 50 66 57
3 50 59 73
3 50 73 59
3 50 66 73
3 50 73 66
3 51 57 58
3 51 58 57
3 51 57 67
3 51 67 57
3 51 58 74
3 51 74 58
3 51 67 74
3 51 74 67
3 52 57 71
3 52 71 57
3 52 57 72
3 52 72 57
3 53 54 63
3 53 63 54
3 53 62 63
3 53 63 62
3 57 58 74
3 57 74 58
3 57 59 73
3 57 73 59
3 57 66 71
3 57 71 66
3 57 66 73
3 57 73 66
3 57 67 72
3 57 72 67
3 57 67 74
3 57 74 67
