COFF
88 320 88

-6.35969 0.894846 5.40738 0.5 0.5 0.5 1
-6.35969 -0.894846 5.40738 0.5 0.5 0.5 1
-0.0282815 -1.96999 5.02499 0.5 0.5 0.5 1
7.33904 -0.944538 5.33988 0.5 0.5 0.5 1
7.33904 0.944538 5.33988 0.5 0.5 0.5 1
-0.0282815 1.96999 5.02499 0.5 0.5 0.5 1
1.08952 -1.63154 5.1885 0.5 0.5 0.5 1
1.08952 1.63154 5.1885 0.5 0.5 0.5 1
-1.12392 1.61664 5.15641 0.5 0.5 0.5 1
-1.12392 -1.61664 5.15641 0.5 0.5 0.5 1
2.00046 -1.30631 5.44303 0.5 0.5 0.5 1
2.00046 1.30631 5.44303 0.5 0.5 0.5 1
-2.04146 1.31507 5.41544 0.5 0.5 0.5 1
-2.04146 -1.31507 5.41544 0.5 0.5 0.5 1
3.03844 -1.32484 5.35322 0.5 0.5 0.5 1
3.03844 1.32484 5.35322 0.5 0.5 0.5 1
-3.03537 1.29397 5.31104 0.5 0.5 0.5 1
-3.03537 -1.29397 5.31104 0.5 0.5 0.5 1
4.03844 -1.32822 5.33065 0.5 0.5 0.5 1
4.03844 1.32822 5.33065 0.5 0.5 0.5 1
-4.03305 1.22415 5.3106 0.5 0.5 0.5 1
-4.03305 -1.22415 5.3106 0.5 0.5 0.5 1
5.04325 -1.33 5.20326 0.5 0.5 0.5 1
5.04325 1.33 5.20326 0.5 0.5 0.5 1
6.07448 -1.18443 5.24638 0.5 0.5 0.5 1
6.07448 1.18443 5.24638 0.5 0.5 0.5 1
-5.02938 1.11072 5.32752 0.5 0.5 0.5 1
-5.02938 -1.11072 5.32752 0.5 0.5 0.5 1
-1.06326 -1.5796 4.248 0.5 0.5 0.5 1
-1.9459 0.84793 3.12104 0.5 0.5 0.5 1
-1.9459 -0.84793 3.12104 0.5 0.5 0.5 1
1.06717 -1.55168 4.04335 0.5 0.5 0.5 1
1.06717 1.55168 4.04335 0.5 0.5 0.5 1
-2.20061 1.23673 4.27424 0.5 0.5 0.5 1
-2.20061 -1.23673 4.27424 0.5 0.5 0.5 1
0.0264544 -1.69066 3.80955 0.5 0.5 0.5 1
0.0264544 1.69066 3.80955 0.5 0.5 0.5 1
2.2981 1.18535 4.30257 0.5 0.5 0.5 1
3.93368 -0.61892 3.46312 1 1 0 1
-0.807504 -1.52638 3.32477 0.5 0.5 0.5 1
-0.807504 1.52638 3.32477 0.5 0.5 0.5 1
-1.44781 -0.814215 1.86745 0.5 0.5 0.5 1
-1.44781 0.814215 1.86745 0.5 0.5 0.5 1
0.954856 1.50939 2.98531 0.5 0.5 0.5 1
0.954856 -1.50939 2.98531 0.5 0.5 0.5 1
3.93368 0.61892 3.46312 1 1 0 1
-4.16808 0.660549 3.60169 1 1 0 1
2.04478 4.56947e-15 3.41245 0.5 0.5 0.5 1
1.37917 1.10428 2.68131 0.5 0.5 0.5 1
1.37917 -1.10428 2.68131 0.5 0.5 0.5 1
0.113593 1.56705 2.82861 0.5 0.5 0.5 1
0.113593 -1.56705 2.82861 0.5 0.5 0.5 1
1.61635 5.98528e-15 2.46836 0.5 0.5 0.5 1
4.7999 -0.672241 3.81921 1 1 0 1
4.7999 0.672241 3.81921 1 1 0 1
-2.68274 -6.07157e-16 3.43604 0.5 0.5 0.5 1
-4.16808 -0.660549 3.60169 1 1 0 1
0.0708797 2.92155e-14 1.02806 1 1 0 1
-0.530345 -1.36637 2.54424 0.5 0.5 0.5 1
-0.530345 1.36637 2.54424 0.5 0.5 0.5 1
-5.49546 0.917223 4.63308 0.5 0.5 0.5 1
-5.49546 -0.917223 4.63308 0.5 0.5 0.5 1
6.51 -0.987483 4.6578 0.5 0.5 0.5 1
6.51 0.987483 4.6578 0.5 0.5 0.5 1
2.2981 -1.18535 4.30257 0.5 0.5 0.5 1
1.55752 1.36954 3.62166 0.5 0.5 0.5 1
0.810934 1.25355 2.09569 0.5 0.5 0.5 1
0.810934 -1.25355 2.09569 0.5 0.5 0.5 1
1.55752 -1.36954 3.62166 0.5 0.5 0.5 1
-1.06326 1.5796 4.248 0.5 0.5 0.5 1
2.29833 5.5486e-15 4.09928 0.5 0.5 0.5 1
1.14252 0.771922 1.86312 0.5 0.5 0.5 1
1.14252 -0.771922 1.86312 0.5 0.5 0.5 1
0.0642916 1.19827 1.95084 0.5 0.5 0.5 1
0.0642916 -1.19827 1.95084 0.5 0.5 0.5 1
4.57075 -1.14324 4.36589 0.5 0.5 0.5 1
4.57075 1.14324 4.36589 0.5 0.5 0.5 1
3.53949 -1.12474 4.48141 0.5 0.5 0.5 1
3.53949 1.12474 4.48141 0.5 0.5 0.5 1
1.08329 2.48202e-14 1.71544 0.5 0.5 0.5 1
-3.08948 1.02169 3.95443 0.5 0.5 0.5 1
-3.08948 -1.02169 3.95443 0.5 0.5 0.5 1
-3.56705 1.07067 4.48875 0.5 0.5 0.5 1
-3.56705 -1.07067 4.48875 0.5 0.5 0.5 1
-0.243054 -0.791479 1.72763 0.5 0.5 0.5 1
-0.243054 0.791479 1.72763 0.5 0.5 0.5 1
3.98606 -0.973569 4.39688 0.5 0.5 0.5 1
3.98606 0.973569 4.39688 0.5 0.5 0.5 1

3 0 1 61
3 0 61 1
3 0 26 60
3 0 60 26
3 0 60 61
3 0 61 60
3 1 27 61
3 1 61 27
3 2 6 31
3 2 31 6
3 2 9 28
3 2 28 9
3 2 28 35
3 2 35 28
3 2 31 35
3 2 35 31
3 3 4 63
3 3 63 4
3 3 24 62
3 3 62 24
3 3 62 63
3 3 63 62
3 4 25 63
3 4 63 25
3 5 7 32
3 5 32 7
3 5 8 69
3 5 69 8
3 5 32 36
3 5 36 32
3 5 36 69
3 5 69 36
3 6 10 64
3 6 64 10
3 6 31 64
3 6 64 31
3 7 11 37
3 7 37 11
3 7 32 37
3 7 37 32
3 8 12 33
3 8 33 12
3 8 33 69
3 8 69 33
3 9 13 34
3 9 34 13
3 9 28 34
3 9 34 28
3 10 14 64
3 10 64 14
3 11 15 37
3 11 37 15
3 12 16 33
3 12 33 16
3 13 17 34
3 13 34 17
3 14 18 77
3 14 77 18
3 14 64 77
3 14 77 64
3 15 19 78
3 15 78 19
3 15 37 78
3 15 78 37
3 16 20 46
3 16 46 20
3 16 20 82
3 16 82 20
3 16 33 80
3 16 80 33
3 16 46 80
3 16 80 46
3 16 80 82
3 16 82 80
3 17 21 56
3 17 56 21
3 17 21 83
3 17 83 21
3 17 34 81
3 17 81 34
3 17 56 81
3 17 81 56
3 17 81 83
3 17 83 81
3 18 22 75
3 18 75 22
3 18 38 75
3 18 75 38
3 18 38 77
3 18 77 38
3 18 75 86
3 18 86 75
3 18 77 86
3 18 86 77
3 19 23 76
3 19 76 23
3 19 45 76
3 19 76 45
3 19 45 78
3 19 78 45
3 19 76 87
3 19 87 76
3 19 78 87
3 19 87 78
3 20 26 46
3 20 46 26
3 20 46 82
3 20 82 46
3 21 27 56
3 21 56 27
3 21 56 83
3 21 83 56
3 22 24 53
3 22 53 24
3 22 53 75
3 22 75 53
3 23 25 54
3 23 54 25
3 23 54 76
3 23 76 54
3 24 53 62
3 24 62 53
3 25 54 63
3 25 63 54
3 26 46 60
3 26 60 46
3 27 56 61
3 27 61 56
3 28 34 39
3 28 39 34
3 28 35 39
3 28 39 35
3 29 30 41
3 29 41 30
3 29 30 55
3 29 55 30
3 29 33 40
3 29 40 33
3 29 33 55
3 29 55 33
3 29 40 59
3 29 59 40
3 29 41 42
3 29 42 41
3 29 42 59
3 29 59 42
3 30 34 39
3 30 39 34
3 30 34 55
3 30 55 34
3 30 39 58
3 30 58 39
3 30 41 58
3 30 58 41
3 31 35 44
3 31 44 35
3 31 44 68
3 31 68 44
3 31 64 68
3 31 68 64
3 32 36 43
3 32 43 36
3 32 37 65
3 32 65 37
3 32 43 65
3 32 65 43
3 33 40 69
3 33 69 40
3 33 55 80
3 33 80 55
3 34 55 81
3 34 81 55
3 35 39 51
3 35 51 39
3 35 44 51
3 35 51 44
3 36 40 50
3 36 50 40
3 36 40 69
3 36 69 40
3 36 43 50
3 36 50 43
3 37 45 70
3 37 70 45
3 37 45 78
3 37 78 45
3 37 47 65
3 37 65 47
3 37 47 70
3 37 70 47
3 38 45 54
3 38 54 45
3 38 45 70
3 38 70 45
3 38 53 54
3 38 54 53
3 38 53 75
3 38 75 53
3 38 64 70
3 38 70 64
3 38 64 77
3 38 77 64
3 38 75 86
3 38 86 75
3 38 77 86
3 38 86 77
3 39 51 58
3 39 58 51
3 40 50 59
3 40 59 50
3 41 42 57
3 41 57 42
3 41 57 74
3 41 74 57
3 41 57 84
3 41 84 57
3 41 58 74
3 41 74 58
3 41 58 84
3 41 84 58
3 42 57 73
3 42 73 57
3 42 57 85
3 42 85 57
3 42 59 73
3 42 73 59
3 42 59 85
3 42 85 59
3 43 48 65
3 43 65 48
3 43 48 66
3 43 66 48
3 43 50 66
3 43 66 50
3 44 49 67
3 44 67 49
3 44 49 68
3 44 68 49
3 44 51 67
3 44 67 51
3 45 54 76
3 45 76 54
3 45 76 87
3 45 87 76
3 45 78 87
3 45 87 78
3 46 55 56
3 46 56 55
3 46 55 80
3 46 80 55
3 46 56 61
3 46 61 56
3 46 60 61
3 46 61 60
3 46 80 82
3 46 82 80
3 47 48 52
3 47 52 48
3 47 48 65
3 47 65 48
3 47 49 52
3 47 52 49
3 47 49 68
3 47 68 49
3 47 64 68
3 47 68 64
3 47 64 70
3 47 70 64
3 48 52 71
3 48 71 52
3 48 66 71
3 48 71 66
3 49 52 72
3 49 72 52
3 49 67 72
3 49 72 67
3 50 59 73
3 50 73 59
3 50 66 73
3 50 73 66
3 51 58 74
3 51 74 58
3 51 67 74
3 51 74 67
3 52 57 71
3 52 71 57
3 52 57 72
3 52 72 57
3 52 71 79
3 52 79 71
3 52 72 79
3 52 79 72
3 53 54 63
3 53 63 54
3 53 62 63
3 53 63 62
3 55 56 81
3 55 81 56
3 56 81 83
3 56 83 81
3 57 66 71
3 57 71 66
3 57 66 73
3 57 73 66
3 57 67 72
3 57 72 67
3 57 67 74
3 57 74 67
3 57 71 79
3 57 79 71
3 57 72 79
3 57 79 72
3 57 73 85
3 57 85 73
3 57 74 84
3 57 84 74
3 58 74 84
3 58 84 74
3 59 73 85
3 59 85 73
