COFF
109 410 109

-6.4213 0.946239 5.73651 0.5 0.5 0.5 1
-6.4213 -0.946239 5.73651 0.5 0.5 0.5 1
-0.0289403 -2.03274 5.36362 0.5 0.5 0.5 1
7.41228 -1.00378 5.65321 0.5 0.5 0.5 1
7.41228 1.00378 5.65321 0.5 0.5 0.5 1
-0.0289403 2.03274 5.36362 0.5 0.5 0.5 1
1.10551 -1.69988 5.52088 0.5 0.5 0.5 1
1.10551 1.69988 5.52088 0.5 0.5 0.5 1
-1.13639 1.67806 5.49595 0.5 0.5 0.5 1
-1.13639 -1.67806 5.49595 0.5 0.5 0.5 1
2.01764 -1.37902 5.77673 0.5 0.5 0.5 1
2.01764 1.37902 5.77673 0.5 0.5 0.5 1
-2.05367 1.37877 5.75864 0.5 0.5 0.5 1
-2.05367 -1.37877 5.75864 0.5 0.5 0.5 1
3.03173 -1.42655 5.66221 0.5 0.5 0.5 1
3.03173 1.42655 5.66221 0.5 0.5 0.5 1
-3.04339 1.39078 5.61877 0.5 0.5 0.5 1
-3.04339 -1.39078 5.61877 0.5 0.5 0.5 1
4.03619 -1.46343 5.59885 0.5 0.5 0.5 1
4.03619 1.46343 5.59885 0.5 0.5 0.5 1
-4.04423 1.35002 5.58935 0.5 0.5 0.5 1
-4.04423 -1.35002 5.58935 0.5 0.5 0.5 1
5.05141 -1.48937 5.45493 0.5 0.5 0.5 1
5.05141 1.48937 5.45493 0.5 0.5 0.5 1
6.10368 -1.3164 5.55573 0.5 0.5 0.5 1
6.10368 1.3164 5.55573 0.5 0.5 0.5 1
-5.05176 1.21687 5.63507 0.5 0.5 0.5 1
-5.05176 -1.21687 5.63507 0.5 0.5 0.5 1
7.51208 0 5.65327 0.5 0.5 0.5 1
-1.96352 0.90176 3.38793 0.5 0.5 0.5 1
-1.96352 -0.90176 3.38793 0.5 0.5 0.5 1
1.08244 -1.61743 4.34398 0.5 0.5 0.5 1
1.08244 1.61743 4.34398 0.5 0.5 0.5 1
-2.17946 1.32074 4.62397 0.5 0.5 0.5 1
-2.17946 -1.32074 4.62397 0.5 0.5 0.5 1
0.0356218 -1.75281 4.1051 0.5 0.5 0.5 1
0.0356213 1.75282 4.1051 0.5 0.5 0.5 1
2.32521 1.26649 4.55838 0.5 0.5 0.5 1
3.9532 -0.618961 3.46312 1 1 0 1
-0.831789 -1.59015 3.60451 0.5 0.5 0.5 1
-0.831789 1.59015 3.60451 0.5 0.5 0.5 1
-1.47089 -0.912304 2.07393 0.5 0.5 0.5 1
-1.47089 0.912304 2.07393 0.5 0.5 0.5 1
0.982401 1.57901 3.27933 0.5 0.5 0.5 1
0.982401 -1.57901 3.27933 0.5 0.5 0.5 1
3.9532 0.618961 3.46312 1 1 0 1
-4.26547 0.659503 3.60169 1 1 0 1
2.08813 -2.06612e-10 3.6902 0.5 0.5 0.5 1
1.40059 1.18098 2.9598 0.5 0.5 0.5 1
1.40059 -1.18098 2.9598 0.5 0.5 0.5 1
0.128602 1.63852 3.10206 0.5 0.5 0.5 1
0.128571 -1.63854 3.10202 0.5 0.5 0.5 1
1.65102 -9.01793e-09 2.70645 0.5 0.5 0.5 1
4.81981 -0.671972 3.81921 1 1 0 1
4.81981 0.671972 3.81921 1 1 0 1
-2.7511 1.08502e-10 3.63715 0.5 0.5 0.5 1
-4.26547 -0.659503 3.60169 1 1 0 1
0.109838 7.36898e-10 1.02806 1 1 0 1
-0.599994 -1.45231 2.82148 0.5 0.5 0.5 1
-0.599995 1.45231 2.82148 0.5 0.5 0.5 1
-5.6477 1.02851 4.92551 0.5 0.5 0.5 1
-5.6477 -1.02851 4.92551 0.5 0.5 0.5 1
6.70917 -1.13959 4.95768 0.5 0.5 0.5 1
6.70917 1.13959 4.95768 0.5 0.5 0.5 1
2.32521 -1.26649 4.55838 0.5 0.5 0.5 1
1.58442 1.44785 3.9193 0.5 0.5 0.5 1
0.873925 1.3959 2.35599 0.5 0.5 0.5 1
0.873925 -1.3959 2.35599 0.5 0.5 0.5 1
1.58442 -1.44785 3.9193 0.5 0.5 0.5 1
-1.03811 1.64611 4.55906 0.5 0.5 0.5 1
2.31726 -1.89573e-10 4.30696 0.5 0.5 0.5 1
1.21655 0.897256 2.07313 0.5 0.5 0.5 1
1.21655 -0.897256 2.07313 0.5 0.5 0.5 1
0.137487 1.38937 2.1708 0.5 0.5 0.5 1
0.137487 -1.38937 2.1708 0.5 0.5 0.5 1
4.43228 -1.26856 4.48244 0.5 0.5 0.5 1
4.43228 1.26856 4.48244 0.5 0.5 0.5 1
3.54352 -1.38333 4.83706 0.5 0.5 0.5 1
3.54352 1.38333 4.83706 0.5 0.5 0.5 1
1.34303 2.34598e-09 1.91612 0.5 0.5 0.5 1
-3.0399 1.18841 4.19756 0.5 0.5 0.5 1
-3.0399 -1.18841 4.19756 0.5 0.5 0.5 1
-3.54676 1.27987 4.73738 0.5 0.5 0.5 1
-3.54676 -1.27987 4.73738 0.5 0.5 0.5 1
-0.298784 -1.14553 1.86334 0.5 0.5 0.5 1
-0.298798 1.14551 1.8633 0.5 0.5 0.5 1
3.8297 -1.22064 4.50448 0.5 0.5 0.5 1
3.8297 1.22064 4.50448 0.5 0.5 0.5 1
-4.78812 1.06207 4.66347 0.5 0.5 0.5 1
-4.78812 -1.06207 4.66347 0.5 0.5 0.5 1
5.65688 -1.21068 4.73568 0.5 0.5 0.5 1
5.65688 1.21068 4.73568 0.5 0.5 0.5 1
6.80742 -4.28795e-18 4.826 0.5 0.5 0.5 1
6.01618 -0.408587 4.25169 0.5 0.5 0.5 1
6.01618 0.408587 4.25169 0.5 0.5 0.5 1
5.97443 -0.916745 4.35527 0.5 0.5 0.5 1
5.97443 0.916745 4.35527 0.5 0.5 0.5 1
-0.934171 -0.479496 1.49267 0.5 0.5 0.5 1
-0.934171 0.479496 1.49267 0.5 0.5 0.5 1
2.98989 0.971104 3.98355 0.5 0.5 0.5 1
2.98989 -0.971104 3.98355 0.5 0.5 0.5 1
-4.14355 1.10511 4.60804 0.5 0.5 0.5 1
-4.14355 -1.10511 4.60804 0.5 0.5 0.5 1
0.552371 0.776729 1.66485 0.5 0.5 0.5 1
0.552371 -0.776729 1.66485 0.5 0.5 0.5 1
-5.69973 1.54212e-16 4.89489 0.5 0.5 0.5 1
-5.01274 0.322475 4.23929 0.5 0.5 0.5 1
-5.01274 -0.322475 4.23929 0.5 0.5 0.5 1
-1.03811 -1.64611 4.55906 0.5 0.5 0.5 1

3 0 1 105
3 0 105 1
3 0 26 60
3 0 60 26
3 0 60 105
3 0 105 60
3 1 27 61
3 1 61 27
3 1 61 105
3 1 105 61
3 2 6 31
3 2 31 6
3 2 9 108
3 2 108 9
3 2 31 35
3 2 35 31
3 2 35 108
3 2 108 35
3 3 24 62
3 3 62 24
3 3 28 92
3 3 92 28
3 3 62 92
3 3 92 62
3 4 25 63
3 4 63 25
3 4 28 92
3 4 92 28
3 4 63 92
3 4 92 63
3 5 7 32
3 5 32 7
3 5 8 69
3 5 69 8
3 5 32 36
3 5 36 32
3 5 36 69
3 5 69 36
3 6 10 64
3 6 64 10
3 6 31 64
3 6 64 31
3 7 11 37
3 7 37 11
3 7 32 37
3 7 37 32
3 8 12 33
3 8 33 12
3 8 33 69
3 8 69 33
3 9 13 34
3 9 34 13
3 9 34 108
3 9 108 34
3 10 14 64
3 10 64 14
3 11 15 37
3 11 37 15
3 12 16 33
3 12 33 16
3 13 17 34
3 13 34 17
3 14 18 77
3 14 77 18
3 14 64 77
3 14 77 64
3 15 19 78
3 15 78 19
3 15 37 78
3 15 78 37
3 16 20 82
3 16 82 20
3 16 33 80
3 16 80 33
3 16 80 82
3 16 82 80
3 17 21 83
3 17 83 21
3 17 34 81
3 17 81 34
3 17 81 83
3 17 83 81
3 18 22 75
3 18 75 22
3 18 38 75
3 18 75 38
3 18 38 77
3 18 77 38
3 18 75 86
3 18 86 75
3 18 77 86
3 18 86 77
3 19 23 76
3 19 76 23
3 19 45 76
3 19 76 45
3 19 45 78
3 19 78 45
3 19 76 87
3 19 87 76
3 19 78 87
3 19 87 78
3 20 26 88
3 20 88 26
3 20 46 82
3 20 82 46
3 20 46 88
3 20 88 46
3 20 82 101
3 20 101 82
3 20 88 101
3 20 101 88
3 21 27 89
3 21 89 27
3 21 56 83
3 21 83 56
3 21 56 89
3 21 89 56
3 21 83 102
3 21 102 83
3 21 89 102
3 21 102 89
3 22 24 90
3 22 90 24
3 22 53 75
3 22 75 53
3 22 53 90
3 22 90 53
3 23 25 91
3 23 91 25
3 23 54 76
3 23 76 54
3 23 54 91
3 23 91 54
3 24 62 90
3 24 90 62
3 25 63 91
3 25 91 63
3 26 60 88
3 26 88 60
3 27 61 89
3 27 89 61
3 29 30 41
3 29 41 30
3 29 30 55
3 29 55 30
3 29 33 40
3 29 40 33
3 29 33 55
3 29 55 33
3 29 40 59
3 29 59 40
3 29 41 42
3 29 42 41
3 29 42 59
3 29 59 42
3 30 34 39
3 30 39 34
3 30 34 55
3 30 55 34
3 30 39 58
3 30 58 39
3 30 41 58
3 30 58 41
3 31 35 44
3 31 44 35
3 31 44 68
3 31 68 44
3 31 64 68
3 31 68 64
3 32 36 43
3 32 43 36
3 32 37 65
3 32 65 37
3 32 43 65
3 32 65 43
3 33 40 69
3 33 69 40
3 33 55 80
3 33 80 55
3 34 39 108
3 34 108 39
3 34 55 81
3 34 81 55
3 35 39 51
3 35 51 39
3 35 39 108
3 35 108 39
3 35 44 51
3 35 51 44
3 36 40 50
3 36 50 40
3 36 40 69
3 36 69 40
3 36 43 50
3 36 50 43
3 37 45 70
3 37 70 45
3 37 45 78
3 37 78 45
3 37 47 65
3 37 65 47
3 37 47 70
3 37 70 47
3 37 70 99
3 37 99 70
3 37 78 99
3 37 99 78
3 38 45 54
3 38 54 45
3 38 45 70
3 38 70 45
3 38 53 54
3 38 54 53
3 38 53 75
3 38 75 53
3 38 64 70
3 38 70 64
3 38 64 77
3 38 77 64
3 38 70 100
3 38 100 70
3 38 75 86
3 38 86 75
3 38 77 86
3 38 86 77
3 38 77 100
3 38 100 77
3 39 51 58
3 39 58 51
3 40 50 59
3 40 59 50
3 41 42 98
3 41 98 42
3 41 57 84
3 41 84 57
3 41 57 97
3 41 97 57
3 41 58 84
3 41 84 58
3 41 97 98
3 41 98 97
3 42 57 85
3 42 85 57
3 42 57 98
3 42 98 57
3 42 59 85
3 42 85 59
3 43 48 65
3 43 65 48
3 43 48 66
3 43 66 48
3 43 50 66
3 43 66 50
3 44 49 67
3 44 67 49
3 44 49 68
3 44 68 49
3 44 51 67
3 44 67 51
3 45 54 76
3 45 76 54
3 45 70 99
3 45 99 70
3 45 76 87
3 45 87 76
3 45 78 87
3 45 87 78
3 45 78 99
3 45 99 78
3 46 55 56
3 46 56 55
3 46 55 80
3 46 80 55
3 46 56 107
3 46 107 56
3 46 60 88
3 46 88 60
3 46 60 105
3 46 105 60
3 46 80 82
3 46 82 80
3 46 82 101
3 46 101 82
3 46 88 101
3 46 101 88
3 46 105 106
3 46 106 105
3 46 106 107
3 46 107 106
3 47 48 52
3 47 52 48
3 47 48 65
3 47 65 48
3 47 49 52
3 47 52 49
3 47 49 68
3 47 68 49
3 47 64 68
3 47 68 64
3 47 64 70
3 47 70 64
3 48 52 71
3 48 71 52
3 48 66 71
3 48 71 66
3 49 52 72
3 49 72 52
3 49 67 72
3 49 72 67
3 50 59 73
3 50 73 59
3 50 66 73
3 50 73 66
3 51 58 74
3 51 74 58
3 51 67 74
3 51 74 67
3 52 57 71
3 52 71 57
3 52 57 72
3 52 72 57
3 52 71 79
3 52 79 71
3 52 72 79
3 52 79 72
3 53 54 94
3 53 94 54
3 53 90 95
3 53 95 90
3 53 93 94
3 53 94 93
3 53 93 95
3 53 95 93
3 54 91 96
3 54 96 91
3 54 94 96
3 54 96 94
3 55 56 81
3 55 81 56
3 56 61 89
3 56 89 61
3 56 61 105
3 56 105 61
3 56 81 83
3 56 83 81
3 56 83 102
3 56 102 83
3 56 89 102
3 56 102 89
3 56 105 107
3 56 107 105
3 57 66 71
3 57 71 66
3 57 66 73
3 57 73 66
3 57 67 72
3 57 72 67
3 57 67 74
3 57 74 67
3 57 71 79
3 57 79 71
3 57 71 103
3 57 103 71
3 57 72 79
3 57 79 72
3 57 72 104
3 57 104 72
3 57 73 85
3 57 85 73
3 57 73 103
3 57 103 73
3 57 74 84
3 57 84 74
3 57 74 104
3 57 104 74
3 57 97 98
3 57 98 97
3 58 74 84
3 58 84 74
3 59 73 85
3 59 85 73
3 62 90 95
3 62 95 90
3 62 92 95
3 62 95 92
3 63 91 96
3 63 96 91
3 63 92 96
3 63 96 92
3 64 70 100
3 64 100 70
3 64 77 100
3 64 100 77
3 66 71 103
3 66 103 71
3 66 73 103
3 66 103 73
3 67 72 104
3 67 104 72
3 67 74 104
3 67 104 74
3 92 93 94
3 92 94 93
3 92 93 95
3 92 95 93
3 92 94 96
3 92 96 94
3 105 106 107
3 105 107 106
