COFF
117 442 117

-6.48355 0.996736 6.06369 0.5 0.5 0.5 1
-6.48355 -0.996736 6.06369 0.5 0.5 0.5 1
-0.0297916 -2.09448 5.70166 0.5 0.5 0.5 1
7.46167 -1.07359 5.97259 0.5 0.5 0.5 1
7.46167 1.07359 5.97259 0.5 0.5 0.5 1
-0.0297916 2.09448 5.70166 0.5 0.5 0.5 1
1.12063 -1.76561 5.85431 0.5 0.5 0.5 1
1.12063 1.76561 5.85431 0.5 0.5 0.5 1
-1.14848 1.7374 5.83609 0.5 0.5 0.5 1
-1.14848 -1.7374 5.83609 0.5 0.5 0.5 1
2.03269 -1.44714 6.11343 0.5 0.5 0.5 1
2.03269 1.44714 6.11343 0.5 0.5 0.5 1
-2.0645 1.43885 6.10404 0.5 0.5 0.5 1
-2.0645 -1.43885 6.10404 0.5 0.5 0.5 1
3.02656 -1.51884 5.97216 0.5 0.5 0.5 1
3.02656 1.51884 5.97216 0.5 0.5 0.5 1
-3.04824 1.48048 5.93135 0.5 0.5 0.5 1
-3.04824 -1.48048 5.93135 0.5 0.5 0.5 1
4.03069 -1.5881 5.87417 0.5 0.5 0.5 1
4.03069 1.5881 5.87417 0.5 0.5 0.5 1
-4.05302 1.45318 5.88794 0.5 0.5 0.5 1
-4.05302 -1.45318 5.88794 0.5 0.5 0.5 1
5.06161 -1.63264 5.70925 0.5 0.5 0.5 1
5.06161 1.63264 5.70925 0.5 0.5 0.5 1
6.12553 -1.42531 5.87968 0.5 0.5 0.5 1
6.12553 1.42531 5.87968 0.5 0.5 0.5 1
-5.07161 1.30696 5.95309 0.5 0.5 0.5 1
-5.07161 -1.30696 5.95309 0.5 0.5 0.5 1
8.53743 -8.39171e-08 5.9783 0.5 0.5 0.5 1
-1.95217 0.916319 3.67068 0.5 0.5 0.5 1
-1.95217 -0.916318 3.67068 0.5 0.5 0.5 1
1.10747 -1.68172 4.64966 0.5 0.5 0.5 1
1.10747 1.68172 4.64966 0.5 0.5 0.5 1
-2.17058 1.39819 4.96115 0.5 0.5 0.5 1
-2.17058 -1.39819 4.96115 0.5 0.5 0.5 1
0.0415845 -1.81418 4.4008 0.5 0.5 0.5 1
0.0415845 1.81418 4.4008 0.5 0.5 0.5 1
2.35904 1.35258 4.84541 0.5 0.5 0.5 1
3.96827 -0.619468 3.46312 1 1 0 1
-0.856897 -1.65874 3.89516 0.5 0.5 0.5 1
-0.856897 1.65874 3.89516 0.5 0.5 0.5 1
-1.50418 -0.97482 2.32605 0.5 0.5 0.5 1
-1.50418 0.974815 2.32604 0.5 0.5 0.5 1
1.00836 1.64591 3.56638 0.5 0.5 0.5 1
1.00836 -1.64591 3.56638 0.5 0.5 0.5 1
3.96827 0.619468 3.46312 1 1 0 1
-4.23626 0.659525 3.60169 1 1 0 1
2.06377 -1.65211e-10 3.95727 0.5 0.5 0.5 1
1.41699 1.2482 3.23433 0.5 0.5 0.5 1
1.41699 -1.2482 3.23433 0.5 0.5 0.5 1
0.135619 1.70417 3.3695 0.5 0.5 0.5 1
0.135615 -1.70417 3.3695 0.5 0.5 0.5 1
1.65924 2.15902e-09 2.94466 0.5 0.5 0.5 1
4.83448 -0.672325 3.81921 1 1 0 1
4.83448 0.672325 3.81921 1 1 0 1
-2.62201 8.51228e-09 3.93754 0.5 0.5 0.5 1
-4.23626 -0.659525 3.60169 1 1 0 1
0.140688 -1.01308e-09 1.02806 1 1 0 1
-0.626676 -1.51506 3.0654 0.5 0.5 0.5 1
-0.626675 1.51506 3.0654 0.5 0.5 0.5 1
-5.73692 1.14788 5.26706 0.5 0.5 0.5 1
-5.73692 -1.14788 5.26706 0.5 0.5 0.5 1
6.80786 -1.22665 5.3091 0.5 0.5 0.5 1
6.80786 1.22665 5.3091 0.5 0.5 0.5 1
2.35904 -1.35258 4.84541 0.5 0.5 0.5 1
1.61145 1.52251 4.20697 0.5 0.5 0.5 1
0.909252 1.5053 2.63081 0.5 0.5 0.5 1
0.909252 -1.5053 2.63081 0.5 0.5 0.5 1
1.61145 -1.52251 4.20697 0.5 0.5 0.5 1
-1.0271 1.70916 4.86605 0.5 0.5 0.5 1
2.35931 1.50464e-09 4.56514 0.5 0.5 0.5 1
1.25858 1.00105 2.30458 0.5 0.5 0.5 1
1.25858 -1.00105 2.30458 0.5 0.5 0.5 1
0.192799 1.51814 2.39279 0.5 0.5 0.5 1
0.192799 -1.51814 2.39279 0.5 0.5 0.5 1
4.45631 -1.38146 4.60529 0.5 0.5 0.5 1
4.45631 1.38146 4.60529 0.5 0.5 0.5 1
3.56175 -1.54939 5.15312 0.5 0.5 0.5 1
3.56175 1.54939 5.15312 0.5 0.5 0.5 1
1.41067 3.39532e-08 2.14873 0.5 0.5 0.5 1
-2.99235 1.33559 4.44876 0.5 0.5 0.5 1
-2.99235 -1.33559 4.44876 0.5 0.5 0.5 1
-3.53937 1.43445 5.00613 0.5 0.5 0.5 1
-3.53937 -1.43445 5.00613 0.5 0.5 0.5 1
-0.377508 -1.34804 2.06946 0.5 0.5 0.5 1
-0.377509 1.34804 2.06946 0.5 0.5 0.5 1
3.73385 -1.46664 4.72179 0.5 0.5 0.5 1
3.73385 1.46664 4.72179 0.5 0.5 0.5 1
-4.90542 1.2271 4.93632 0.5 0.5 0.5 1
-4.90542 -1.2271 4.93632 0.5 0.5 0.5 1
5.80677 -1.36918 4.94595 0.5 0.5 0.5 1
5.80677 1.36918 4.94595 0.5 0.5 0.5 1
7.08038 -6.14415e-08 5.05733 0.5 0.5 0.5 1
6.32782 -0.532465 4.27914 0.5 0.5 0.5 1
6.32782 0.532465 4.27914 0.5 0.5 0.5 1
6.28065 -0.974043 4.55498 0.5 0.5 0.5 1
6.28065 0.974043 4.55498 0.5 0.5 0.5 1
-1.21571 -0.649015 1.55471 0.5 0.5 0.5 1
-1.21572 0.649019 1.55472 0.5 0.5 0.5 1
2.78113 1.07487 4.13589 0.5 0.5 0.5 1
2.78113 -1.07487 4.13589 0.5 0.5 0.5 1
-4.14599 1.332 4.85595 0.5 0.5 0.5 1
-4.14599 -1.332 4.85595 0.5 0.5 0.5 1
0.711835 1.07249 1.79703 0.5 0.5 0.5 1
0.711835 -1.07249 1.79703 0.5 0.5 0.5 1
-5.93547 1.56906e-14 5.11433 0.5 0.5 0.5 1
-5.30983 0.444958 4.25117 0.5 0.5 0.5 1
-5.30983 -0.444958 4.25117 0.5 0.5 0.5 1
-1.0271 -1.70916 4.86605 0.5 0.5 0.5 1
-5.25037 0.931849 4.47981 0.5 0.5 0.5 1
-5.25037 -0.931849 4.47981 0.5 0.5 0.5 1
5.05112 -1.21643 4.71173 0.5 0.5 0.5 1
5.05112 1.21643 4.71173 0.5 0.5 0.5 1
3.03581 -0.302665 3.97048 0.5 0.5 0.5 1
3.03581 0.302665 3.97048 0.5 0.5 0.5 1
0.167586 0.814864 1.69087 0.5 0.5 0.5 1
0.167586 -0.814864 1.69087 0.5 0.5 0.5 1

3 0 1 105
3 0 105 1
3 0 26 60
3 0 60 26
3 0 60 105
3 0 105 60
3 1 27 61
3 1 61 27
3 1 61 105
3 1 105 61
3 2 6 31
3 2 31 6
3 2 9 108
3 2 108 9
3 2 31 35
3 2 35 31
3 2 35 108
3 2 108 35
3 3 24 62
3 3 62 24
3 3 28 92
3 3 92 28
3 3 62 92
3 3 92 62
3 4 25 63
3 4 63 25
3 4 28 92
3 4 92 28
3 4 63 92
3 4 92 63
3 5 7 32
3 5 32 7
3 5 8 69
3 5 69 8
3 5 32 36
3 5 36 32
3 5 36 69
3 5 69 36
3 6 10 64
3 6 64 10
3 6 31 64
3 6 64 31
3 7 11 37
3 7 37 11
3 7 32 37
3 7 37 32
3 8 12 33
3 8 33 12
3 8 33 69
3 8 69 33
3 9 13 34
3 9 34 13
3 9 34 108
3 9 108 34
3 10 14 64
3 10 64 14
3 11 15 37
3 11 37 15
3 12 16 33
3 12 33 16
3 13 17 34
3 13 34 17
3 14 18 77
3 14 77 18
3 14 64 77
3 14 77 64
3 15 19 78
3 15 78 19
3 15 37 78
3 15 78 37
3 16 20 82
3 16 82 20
3 16 33 80
3 16 80 33
3 16 80 82
3 16 82 80
3 17 21 83
3 17 83 21
3 17 34 81
3 17 81 34
3 17 81 83
3 17 83 81
3 18 22 75
3 18 75 22
3 18 38 75
3 18 75 38
3 18 38 77
3 18 77 38
3 18 75 86
3 18 86 75
3 18 77 86
3 18 86 77
3 19 23 76
3 19 76 23
3 19 45 76
3 19 76 45
3 19 45 78
3 19 78 45
3 19 76 87
3 19 87 76
3 19 78 87
3 19 87 78
3 20 26 88
3 20 88 26
3 20 46 82
3 20 82 46
3 20 46 88
3 20 88 46
3 20 82 101
3 20 101 82
3 20 88 101
3 20 101 88
3 21 27 89
3 21 89 27
3 21 56 83
3 21 83 56
3 21 56 89
3 21 89 56
3 21 83 102
3 21 102 83
3 21 89 102
3 21 102 89
3 22 24 90
3 22 90 24
3 22 53 75
3 22 75 53
3 22 53 90
3 22 90 53
3 22 75 111
3 22 111 75
3 22 90 111
3 22 111 90
3 23 25 91
3 23 91 25
3 23 54 76
3 23 76 54
3 23 54 91
3 23 91 54
3 23 76 112
3 23 112 76
3 23 91 112
3 23 112 91
3 24 62 90
3 24 90 62
3 25 63 91
3 25 91 63
3 26 60 88
3 26 88 60
3 27 61 89
3 27 89 61
3 29 30 41
3 29 41 30
3 29 30 55
3 29 55 30
3 29 33 40
3 29 40 33
3 29 33 55
3 29 55 33
3 29 40 59
3 29 59 40
3 29 41 42
3 29 42 41
3 29 42 59
3 29 59 42
3 30 34 39
3 30 39 34
3 30 34 55
3 30 55 34
3 30 39 58
3 30 58 39
3 30 41 58
3 30 58 41
3 31 35 44
3 31 44 35
3 31 44 68
3 31 68 44
3 31 64 68
3 31 68 64
3 32 36 43
3 32 43 36
3 32 37 65
3 32 65 37
3 32 43 65
3 32 65 43
3 33 40 69
3 33 69 40
3 33 55 80
3 33 80 55
3 34 39 108
3 34 108 39
3 34 55 81
3 34 81 55
3 35 39 51
3 35 51 39
3 35 39 108
3 35 108 39
3 35 44 51
3 35 51 44
3 36 40 50
3 36 50 40
3 36 40 69
3 36 69 40
3 36 43 50
3 36 50 43
3 37 47 65
3 37 65 47
3 37 47 70
3 37 70 47
3 37 70 99
3 37 99 70
3 37 78 99
3 37 99 78
3 38 45 54
3 38 54 45
3 38 45 114
3 38 114 45
3 38 53 54
3 38 54 53
3 38 53 75
3 38 75 53
3 38 70 100
3 38 100 70
3 38 70 113
3 38 113 70
3 38 75 86
3 38 86 75
3 38 77 86
3 38 86 77
3 38 77 100
3 38 100 77
3 38 113 114
3 38 114 113
3 39 51 58
3 39 58 51
3 40 50 59
3 40 59 50
3 41 42 98
3 41 98 42
3 41 57 84
3 41 84 57
3 41 57 97
3 41 97 57
3 41 58 84
3 41 84 58
3 41 97 98
3 41 98 97
3 42 57 85
3 42 85 57
3 42 57 98
3 42 98 57
3 42 59 85
3 42 85 59
3 43 48 65
3 43 65 48
3 43 48 66
3 43 66 48
3 43 50 66
3 43 66 50
3 44 49 67
3 44 67 49
3 44 49 68
3 44 68 49
3 44 51 67
3 44 67 51
3 45 54 76
3 45 76 54
3 45 70 99
3 45 99 70
3 45 70 114
3 45 114 70
3 45 76 87
3 45 87 76
3 45 78 87
3 45 87 78
3 45 78 99
3 45 99 78
3 46 55 56
3 46 56 55
3 46 55 80
3 46 80 55
3 46 56 107
3 46 107 56
3 46 80 82
3 46 82 80
3 46 82 101
3 46 101 82
3 46 88 101
3 46 101 88
3 46 88 109
3 46 109 88
3 46 106 107
3 46 107 106
3 46 106 109
3 46 109 106
3 47 48 52
3 47 52 48
3 47 48 65
3 47 65 48
3 47 49 52
3 47 52 49
3 47 49 68
3 47 68 49
3 47 64 68
3 47 68 64
3 47 64 70
3 47 70 64
3 48 52 71
3 48 71 52
3 48 66 71
3 48 71 66
3 49 52 72
3 49 72 52
3 49 67 72
3 49 72 67
3 50 59 73
3 50 73 59
3 50 66 73
3 50 73 66
3 51 58 74
3 51 74 58
3 51 67 74
3 51 74 67
3 52 57 71
3 52 71 57
3 52 57 72
3 52 72 57
3 52 71 79
3 52 79 71
3 52 72 79
3 52 79 72
3 53 54 94
3 53 94 54
3 53 75 111
3 53 111 75
3 53 90 95
3 53 95 90
3 53 90 111
3 53 111 90
3 53 93 94
3 53 94 93
3 53 93 95
3 53 95 93
3 54 76 112
3 54 112 76
3 54 91 96
3 54 96 91
3 54 91 112
3 54 112 91
3 54 94 96
3 54 96 94
3 55 56 81
3 55 81 56
3 56 81 83
3 56 83 81
3 56 83 102
3 56 102 83
3 56 89 102
3 56 102 89
3 56 89 110
3 56 110 89
3 56 107 110
3 56 110 107
3 57 71 79
3 57 79 71
3 57 71 103
3 57 103 71
3 57 72 79
3 57 79 72
3 57 72 104
3 57 104 72
3 57 73 85
3 57 85 73
3 57 73 103
3 57 103 73
3 57 74 84
3 57 84 74
3 57 74 104
3 57 104 74
3 57 84 116
3 57 116 84
3 57 85 115
3 57 115 85
3 57 97 98
3 57 98 97
3 57 103 115
3 57 115 103
3 57 104 116
3 57 116 104
3 58 74 84
3 58 84 74
3 59 73 85
3 59 85 73
3 60 88 109
3 60 109 88
3 60 105 109
3 60 109 105
3 61 89 110
3 61 110 89
3 61 105 110
3 61 110 105
3 62 90 95
3 62 95 90
3 62 92 95
3 62 95 92
3 63 91 96
3 63 96 91
3 63 92 96
3 63 96 92
3 64 70 100
3 64 100 70
3 64 77 100
3 64 100 77
3 66 71 103
3 66 103 71
3 66 73 103
3 66 103 73
3 67 72 104
3 67 104 72
3 67 74 104
3 67 104 74
3 70 113 114
3 70 114 113
3 73 85 115
3 73 115 85
3 73 103 115
3 73 115 103
3 74 84 116
3 74 116 84
3 74 104 116
3 74 116 104
3 92 93 94
3 92 94 93
3 92 93 95
3 92 95 93
3 92 94 96
3 92 96 94
3 105 106 107
3 105 107 106
3 105 106 109
3 105 109 106
3 105 107 110
3 105 110 107
