COFF
125 476 125

-6.53084 1.05187 6.39608 0.5 0.5 0.5 1
-6.53084 -1.05187 6.39608 0.5 0.5 0.5 1
-0.0307804 -2.15463 6.03973 0.5 0.5 0.5 1
7.51619 -1.13637 6.31547 0.5 0.5 0.5 1
7.51619 1.13637 6.31547 0.5 0.5 0.5 1
-0.0307804 2.15463 6.03973 0.5 0.5 0.5 1
1.1332 -1.8293 6.18838 0.5 0.5 0.5 1
1.1332 1.8293 6.18838 0.5 0.5 0.5 1
-1.16026 1.79553 6.17595 0.5 0.5 0.5 1
-1.16026 -1.79553 6.17595 0.5 0.5 0.5 1
2.04345 -1.51082 6.45324 0.5 0.5 0.5 1
2.04345 1.51082 6.45324 0.5 0.5 0.5 1
-2.07471 1.49733 6.44958 0.5 0.5 0.5 1
-2.07471 -1.49733 6.44958 0.5 0.5 0.5 1
3.02367 -1.60562 6.28485 0.5 0.5 0.5 1
3.02367 1.60562 6.28485 0.5 0.5 0.5 1
-3.05071 1.56708 6.24486 0.5 0.5 0.5 1
-3.05071 -1.56708 6.24486 0.5 0.5 0.5 1
4.02306 -1.70587 6.15313 0.5 0.5 0.5 1
4.02306 1.70587 6.15313 0.5 0.5 0.5 1
-4.06123 1.54838 6.19196 0.5 0.5 0.5 1
-4.06123 -1.54838 6.19196 0.5 0.5 0.5 1
5.07143 -1.75491 5.98104 0.5 0.5 0.5 1
5.07143 1.75491 5.98104 0.5 0.5 0.5 1
6.14737 -1.5165 6.18487 0.5 0.5 0.5 1
6.14737 1.5165 6.18487 0.5 0.5 0.5 1
-5.0867 1.38689 6.27371 0.5 0.5 0.5 1
-5.0867 -1.38689 6.27371 0.5 0.5 0.5 1
8.65274 2.58092e-09 6.31217 0.5 0.5 0.5 1
-7.45457 -9.84921e-15 6.39957 0.5 0.5 0.5 1
-1.93927 -0.936881 3.94634 0.5 0.5 0.5 1
1.11806 -1.74681 4.95542 0.5 0.5 0.5 1
1.11806 1.74681 4.95542 0.5 0.5 0.5 1
-2.17524 1.47112 5.2798 0.5 0.5 0.5 1
-2.17524 -1.47112 5.27982 0.5 0.5 0.5 1
0.0446495 -1.87411 4.6973 0.5 0.5 0.5 1
0.0446482 1.87412 4.6973 0.5 0.5 0.5 1
2.37381 1.4201 5.12721 0.5 0.5 0.5 1
3.99955 -0.619565 3.46312 1 1 0 1
-0.879858 -1.72578 4.19 0.5 0.5 0.5 1
-0.879888 1.72576 4.19001 0.5 0.5 0.5 1
-1.51578 -0.985602 2.5752 0.5 0.5 0.5 1
-1.51589 0.986048 2.57517 0.5 0.5 0.5 1
1.02556 1.71404 3.85676 0.5 0.5 0.5 1
1.02557 -1.71404 3.85676 0.5 0.5 0.5 1
3.99955 0.619565 3.46312 1 1 0 1
-4.22192 0.659645 3.60169 1 1 0 1
1.97187 1.83372e-08 4.25964 0.5 0.5 0.5 1
1.41001 1.30367 3.50788 0.5 0.5 0.5 1
1.41001 -1.30367 3.50787 0.5 0.5 0.5 1
0.140641 1.76929 3.63879 0.5 0.5 0.5 1
0.140645 -1.76929 3.63879 0.5 0.5 0.5 1
1.62114 -5.74336e-07 3.18607 0.5 0.5 0.5 1
4.86625 -0.672629 3.81921 1 1 0 1
4.86625 0.672629 3.81921 1 1 0 1
-2.60161 3.37052e-05 4.22109 0.5 0.5 0.5 1
-4.22192 -0.659645 3.60169 1 1 0 1
0.143143 3.88606e-07 1.02806 1 1 0 1
-0.648747 -1.56583 3.29895 0.5 0.5 0.5 1
-0.648685 1.56587 3.29905 0.5 0.5 0.5 1
-5.76025 1.21623 5.61477 0.5 0.5 0.5 1
-5.76025 -1.21623 5.61477 0.5 0.5 0.5 1
6.85595 -1.28098 5.65229 0.5 0.5 0.5 1
6.85595 1.28098 5.65229 0.5 0.5 0.5 1
2.37381 -1.4201 5.12721 0.5 0.5 0.5 1
1.63097 1.59099 4.49567 0.5 0.5 0.5 1
0.914501 1.57304 2.89953 0.5 0.5 0.5 1
0.91451 -1.57308 2.89953 0.5 0.5 0.5 1
1.63097 -1.59099 4.49567 0.5 0.5 0.5 1
-1.02871 1.76894 5.17178 0.5 0.5 0.5 1
2.37356 1.29111e-09 4.75303 0.5 0.5 0.5 1
1.25845 1.07638 2.55655 0.5 0.5 0.5 1
1.25845 -1.07638 2.55655 0.5 0.5 0.5 1
0.233838 1.62015 2.63669 0.5 0.5 0.5 1
0.233831 -1.62015 2.63669 0.5 0.5 0.5 1
4.51659 -1.55491 4.81812 0.5 0.5 0.5 1
4.51659 1.55491 4.81812 0.5 0.5 0.5 1
3.56605 -1.65968 5.44454 0.5 0.5 0.5 1
3.56605 1.65968 5.44454 0.5 0.5 0.5 1
1.39932 -3.62576e-06 2.34279 0.5 0.5 0.5 1
-2.96443 1.46133 4.71408 0.5 0.5 0.5 1
-2.96444 -1.46133 4.71407 0.5 0.5 0.5 1
-3.56189 1.54558 5.27969 0.5 0.5 0.5 1
-3.56189 -1.54558 5.27969 0.5 0.5 0.5 1
-0.427649 -1.4341 2.27578 0.5 0.5 0.5 1
-0.4276 1.43417 2.27577 0.5 0.5 0.5 1
3.72158 -1.64313 4.94563 0.5 0.5 0.5 1
3.72158 1.64313 4.94563 0.5 0.5 0.5 1
-4.97235 1.31885 5.19421 0.5 0.5 0.5 1
-4.97235 -1.31885 5.19421 0.5 0.5 0.5 1
5.91657 -1.4713 5.15729 0.5 0.5 0.5 1
5.91657 1.4713 5.15729 0.5 0.5 0.5 1
7.26895 2.72288e-08 5.33339 0.5 0.5 0.5 1
6.58717 -0.636623 4.41769 0.5 0.5 0.5 1
6.58717 0.636623 4.41769 0.5 0.5 0.5 1
6.50971 -1.01224 4.78625 0.5 0.5 0.5 1
6.50971 1.01224 4.78625 0.5 0.5 0.5 1
-1.39191 -0.673092 1.71544 0.5 0.5 0.5 1
-1.39194 0.673154 1.71542 0.5 0.5 0.5 1
2.8171 1.13347 4.36323 0.5 0.5 0.5 1
2.8171 -1.13347 4.36323 0.5 0.5 0.5 1
-4.16014 1.45272 5.09257 0.5 0.5 0.5 1
-4.16014 -1.45272 5.09257 0.5 0.5 0.5 1
0.799556 1.26583 1.99314 0.5 0.5 0.5 1
0.799554 -1.26583 1.99314 0.5 0.5 0.5 1
-6.13439 4.66738e-13 5.38212 0.5 0.5 0.5 1
-5.52848 0.562154 4.37505 0.5 0.5 0.5 1
-5.52848 -0.562154 4.37505 0.5 0.5 0.5 1
-1.02871 -1.76894 5.17178 0.5 0.5 0.5 1
-5.45608 0.95004 4.7496 0.5 0.5 0.5 1
-5.45608 -0.95004 4.7496 0.5 0.5 0.5 1
5.13927 -1.44046 4.81173 0.5 0.5 0.5 1
5.13927 1.44046 4.81173 0.5 0.5 0.5 1
2.79322 -0.303302 3.9705 0.5 0.5 0.5 1
2.79322 0.303302 3.9705 0.5 0.5 0.5 1
0.132245 1.20538 1.77355 1 1 1 1
0.132232 -1.20539 1.77356 1 1 1 1
-1.93923 0.936909 3.94632 0.5 0.5 0.5 1
3.76381 -1.41187 4.43388 0.5 0.5 0.5 1
3.76381 1.41187 4.43388 0.5 0.5 0.5 1
1.01456 0.680269 1.79168 1 1 1 1
1.01456 -0.680269 1.79168 1 1 1 1
-1.59517 0.000217318 2.57661 0.5 0.5 0.5 1
-3.88338 1.11109 4.43916 0.5 0.5 0.5 1
-3.88338 -1.11109 4.43916 0.5 0.5 0.5 1

3 0 26 60
3 0 60 26
3 0 29 105
3 0 105 29
3 0 60 105
3 0 105 60
3 1 27 61
3 1 61 27
3 1 29 105
3 1 105 29
3 1 61 105
3 1 105 61
3 2 6 31
3 2 31 6
3 2 9 108
3 2 108 9
3 2 31 35
3 2 35 31
3 2 35 108
3 2 108 35
3 3 24 62
3 3 62 24
3 3 28 92
3 3 92 28
3 3 62 92
3 3 92 62
3 4 25 63
3 4 63 25
3 4 28 92
3 4 92 28
3 4 63 92
3 4 92 63
3 5 7 32
3 5 32 7
3 5 8 69
3 5 69 8
3 5 32 36
3 5 36 32
3 5 36 69
3 5 69 36
3 6 10 64
3 6 64 10
3 6 31 64
3 6 64 31
3 7 11 37
3 7 37 11
3 7 32 37
3 7 37 32
3 8 12 33
3 8 33 12
3 8 33 69
3 8 69 33
3 9 13 34
3 9 34 13
3 9 34 108
3 9 108 34
3 10 14 64
3 10 64 14
3 11 15 37
3 11 37 15
3 12 16 33
3 12 33 16
3 13 17 34
3 13 34 17
3 14 18 77
3 14 77 18
3 14 64 77
3 14 77 64
3 15 19 78
3 15 78 19
3 15 37 78
3 15 78 37
3 16 20 82
3 16 82 20
3 16 33 80
3 16 80 33
3 16 80 82
3 16 82 80
3 17 21 83
3 17 83 21
3 17 34 81
3 17 81 34
3 17 81 83
3 17 83 81
3 18 22 75
3 18 75 22
3 18 75 86
3 18 86 75
3 18 77 86
3 18 86 77
3 19 23 76
3 19 76 23
3 19 76 87
3 19 87 76
3 19 78 87
3 19 87 78
3 20 26 88
3 20 88 26
3 20 82 101
3 20 101 82
3 20 88 101
3 20 101 88
3 21 27 89
3 21 89 27
3 21 83 102
3 21 102 83
3 21 89 102
3 21 102 89
3 22 24 90
3 22 90 24
3 22 53 75
3 22 75 53
3 22 53 90
3 22 90 53
3 22 75 111
3 22 111 75
3 22 90 111
3 22 111 90
3 23 25 91
3 23 91 25
3 23 54 76
3 23 76 54
3 23 54 91
3 23 91 54
3 23 76 112
3 23 112 76
3 23 91 112
3 23 112 91
3 24 62 90
3 24 90 62
3 25 63 91
3 25 91 63
3 26 60 88
3 26 88 60
3 27 61 89
3 27 89 61
3 30 34 39
3 30 39 34
3 30 34 55
3 30 55 34
3 30 39 58
3 30 58 39
3 30 41 58
3 30 58 41
3 30 41 122
3 30 122 41
3 30 55 117
3 30 117 55
3 30 117 122
3 30 122 117
3 31 35 44
3 31 44 35
3 31 44 68
3 31 68 44
3 31 64 68
3 31 68 64
3 32 36 43
3 32 43 36
3 32 37 65
3 32 65 37
3 32 43 65
3 32 65 43
3 33 40 69
3 33 69 40
3 33 40 117
3 33 117 40
3 33 55 80
3 33 80 55
3 33 55 117
3 33 117 55
3 34 39 108
3 34 108 39
3 34 55 81
3 34 81 55
3 35 39 51
3 35 51 39
3 35 39 108
3 35 108 39
3 35 44 51
3 35 51 44
3 36 40 50
3 36 50 40
3 36 40 69
3 36 69 40
3 36 43 50
3 36 50 43
3 37 47 65
3 37 65 47
3 37 47 70
3 37 70 47
3 37 70 99
3 37 99 70
3 37 78 99
3 37 99 78
3 38 45 54
3 38 54 45
3 38 45 114
3 38 114 45
3 38 53 54
3 38 54 53
3 38 53 75
3 38 75 53
3 38 70 100
3 38 100 70
3 38 70 113
3 38 113 70
3 38 75 86
3 38 86 75
3 38 77 86
3 38 86 77
3 38 77 100
3 38 100 77
3 38 86 118
3 38 118 86
3 38 100 118
3 38 118 100
3 38 113 114
3 38 114 113
3 39 51 58
3 39 58 51
3 40 50 59
3 40 59 50
3 40 59 117
3 40 117 59
3 41 57 84
3 41 84 57
3 41 57 97
3 41 97 57
3 41 58 84
3 41 84 58
3 41 97 122
3 41 122 97
3 42 57 85
3 42 85 57
3 42 57 98
3 42 98 57
3 42 59 85
3 42 85 59
3 42 59 117
3 42 117 59
3 42 98 122
3 42 122 98
3 42 117 122
3 42 122 117
3 43 48 65
3 43 65 48
3 43 48 66
3 43 66 48
3 43 50 66
3 43 66 50
3 44 49 67
3 44 67 49
3 44 49 68
3 44 68 49
3 44 51 67
3 44 67 51
3 45 54 76
3 45 76 54
3 45 70 99
3 45 99 70
3 45 70 114
3 45 114 70
3 45 76 87
3 45 87 76
3 45 78 87
3 45 87 78
3 45 78 99
3 45 99 78
3 45 87 119
3 45 119 87
3 45 99 119
3 45 119 99
3 46 55 56
3 46 56 55
3 46 55 80
3 46 80 55
3 46 56 107
3 46 107 56
3 46 80 82
3 46 82 80
3 46 80 123
3 46 123 80
3 46 82 101
3 46 101 82
3 46 88 101
3 46 101 88
3 46 88 109
3 46 109 88
3 46 101 123
3 46 123 101
3 46 106 107
3 46 107 106
3 46 106 109
3 46 109 106
3 47 48 52
3 47 52 48
3 47 48 65
3 47 65 48
3 47 49 52
3 47 52 49
3 47 49 68
3 47 68 49
3 47 64 68
3 47 68 64
3 47 64 70
3 47 70 64
3 48 52 71
3 48 71 52
3 48 66 71
3 48 71 66
3 49 52 72
3 49 72 52
3 49 67 72
3 49 72 67
3 50 59 73
3 50 73 59
3 50 66 73
3 50 73 66
3 51 58 74
3 51 74 58
3 51 67 74
3 51 74 67
3 52 71 79
3 52 79 71
3 52 72 79
3 52 79 72
3 53 54 94
3 53 94 54
3 53 75 111
3 53 111 75
3 53 90 95
3 53 95 90
3 53 90 111
3 53 111 90
3 53 93 94
3 53 94 93
3 53 93 95
3 53 95 93
3 54 76 112
3 54 112 76
3 54 91 96
3 54 96 91
3 54 91 112
3 54 112 91
3 54 94 96
3 54 96 94
3 55 56 81
3 55 81 56
3 56 81 83
3 56 83 81
3 56 81 124
3 56 124 81
3 56 83 102
3 56 102 83
3 56 89 102
3 56 102 89
3 56 89 110
3 56 110 89
3 56 102 124
3 56 124 102
3 56 107 110
3 56 110 107
3 57 71 79
3 57 79 71
3 57 71 103
3 57 103 71
3 57 72 79
3 57 79 72
3 57 72 104
3 57 104 72
3 57 73 85
3 57 85 73
3 57 73 103
3 57 103 73
3 57 74 84
3 57 84 74
3 57 74 104
3 57 104 74
3 57 79 120
3 57 120 79
3 57 79 121
3 57 121 79
3 57 84 116
3 57 116 84
3 57 85 115
3 57 115 85
3 57 97 98
3 57 98 97
3 57 103 115
3 57 115 103
3 57 103 120
3 57 120 103
3 57 104 116
3 57 116 104
3 57 104 121
3 57 121 104
3 58 74 84
3 58 84 74
3 59 73 85
3 59 85 73
3 60 88 109
3 60 109 88
3 60 105 109
3 60 109 105
3 61 89 110
3 61 110 89
3 61 105 110
3 61 110 105
3 62 90 95
3 62 95 90
3 62 92 95
3 62 95 92
3 63 91 96
3 63 96 91
3 63 92 96
3 63 96 92
3 64 70 100
3 64 100 70
3 64 77 100
3 64 100 77
3 66 71 103
3 66 103 71
3 66 73 103
3 66 103 73
3 67 72 104
3 67 104 72
3 67 74 104
3 67 104 74
3 70 113 114
3 70 114 113
3 71 79 120
3 71 120 79
3 71 103 120
3 71 120 103
3 72 79 121
3 72 121 79
3 72 104 121
3 72 121 104
3 73 85 115
3 73 115 85
3 73 103 115
3 73 115 103
3 74 84 116
3 74 116 84
3 74 104 116
3 74 116 104
3 77 86 118
3 77 118 86
3 77 100 118
3 77 118 100
3 78 87 119
3 78 119 87
3 78 99 119
3 78 119 99
3 80 82 123
3 80 123 82
3 81 83 124
3 81 124 83
3 82 101 123
3 82 123 101
3 83 102 124
3 83 124 102
3 92 93 94
3 92 94 93
3 92 93 95
3 92 95 93
3 92 94 96
3 92 96 94
3 97 98 122
3 97 122 98
3 105 106 107
3 105 107 106
3 105 106 109
3 105 109 106
3 105 107 110
3 105 110 107
