COFF
142 544 142

-6.56321 1.10958 6.73369 0.5 0.5 0.5 1
-6.56321 -1.10958 6.73369 0.5 0.5 0.5 1
-0.0318712 -2.21341 6.37764 0.5 0.5 0.5 1
7.55297 -1.19892 6.64431 0.5 0.5 0.5 1
7.55297 1.19892 6.64431 0.5 0.5 0.5 1
-0.0318713 2.21341 6.37764 0.5 0.5 0.5 1
1.14353 -1.89158 6.5224 0.5 0.5 0.5 1
1.14353 1.89158 6.5224 0.5 0.5 0.5 1
-1.17173 1.85296 6.51503 0.5 0.5 0.5 1
-1.17174 -1.85299 6.515 0.5 0.5 0.5 1
2.05046 -1.57069 6.79562 0.5 0.5 0.5 1
2.05046 1.57069 6.79562 0.5 0.5 0.5 1
-2.08445 1.55494 6.79458 0.5 0.5 0.5 1
-2.08446 -1.55498 6.79454 0.5 0.5 0.5 1
3.02327 -1.6872 6.60001 0.5 0.5 0.5 1
3.02327 1.6872 6.60001 0.5 0.5 0.5 1
-3.0513 1.65065 6.55921 0.5 0.5 0.5 1
-3.0513 -1.65071 6.55914 0.5 0.5 0.5 1
4.01389 -1.81769 6.43494 0.5 0.5 0.5 1
4.01389 1.81769 6.43494 0.5 0.5 0.5 1
-4.06933 1.63908 6.49807 0.5 0.5 0.5 1
-4.06933 -1.63908 6.49807 0.5 0.5 0.5 1
5.08204 -1.87133 6.25546 0.5 0.5 0.5 1
5.08204 1.87133 6.25546 0.5 0.5 0.5 1
6.16975 -1.60263 6.49248 0.5 0.5 0.5 1
6.16975 1.60263 6.49248 0.5 0.5 0.5 1
-5.10171 1.46152 6.59753 0.5 0.5 0.5 1
-5.10171 -1.46152 6.59753 0.5 0.5 0.5 1
8.75358 -0.000127169 6.64872 0.5 0.5 0.5 1
-7.67336 0.000116487 6.7428 0.5 0.5 0.5 1
-1.91156 -0.658815 4.13811 0.5 0.5 0.5 1
1.13113 -1.80709 5.26379 0.5 0.5 0.5 1
1.13113 1.80709 5.26379 0.5 0.5 0.5 1
-2.16294 1.53887 5.61578 0.5 0.5 0.5 1
-2.16308 -1.5351 5.61547 0.5 0.5 0.5 1
0.0471362 -1.93239 4.99441 0.5 0.5 0.5 1
0.0472319 1.93246 4.99449 0.5 0.5 0.5 1
2.39064 1.48231 5.41078 0.5 0.5 0.5 1
4.01422 -0.619538 3.46312 1 1 0 1
-0.895796 -1.78216 4.4852 0.5 0.5 0.5 1
-0.892695 1.79056 4.48922 0.5 0.5 0.5 1
-1.51806 -0.902511 2.79067 0.5 0.5 0.5 1
-1.5061 0.954754 2.8165 0.5 0.5 0.5 1
1.0449 1.77422 4.15118 0.5 0.5 0.5 1
1.04485 -1.77417 4.15117 0.5 0.5 0.5 1
4.01422 0.619538 3.46312 1 1 0 1
-4.22845 0.660711 3.60169 1 1 0 1
1.98119 -4.60559e-07 4.61733 0.5 0.5 0.5 1
1.41907 1.35807 3.77995 0.5 0.5 0.5 1
1.41904 -1.3581 3.77997 0.5 0.5 0.5 1
0.146921 1.83022 3.90904 0.5 0.5 0.5 1
0.145124 -1.82772 3.90968 0.5 0.5 0.5 1
1.62073 5.03136e-06 3.40862 0.5 0.5 0.5 1
4.88064 -0.672484 3.81921 1 1 0 1
4.88064 0.672484 3.81921 1 1 0 1
-2.56238 -0.00192954 4.5165 0.5 0.5 0.5 1
-4.22626 -0.658634 3.60169 1 1 0 1
0.154093 0.00106419 1.02806 1 1 0 1
-0.7342 -1.53655 3.56501 0.5 0.5 0.5 1
-0.670227 1.61111 3.51224 0.5 0.5 0.5 1
-5.78254 1.27458 5.9455 0.5 0.5 0.5 1
-5.78253 -1.27459 5.94549 0.5 0.5 0.5 1
6.85199 -1.35689 5.97084 0.5 0.5 0.5 1
6.85199 1.35689 5.97084 0.5 0.5 0.5 1
2.39064 -1.48231 5.41078 0.5 0.5 0.5 1
1.6563 1.64902 4.78383 0.5 0.5 0.5 1
0.925853 1.62998 3.16993 0.5 0.5 0.5 1
0.92561 -1.62907 3.16996 0.5 0.5 0.5 1
1.65631 -1.64902 4.78384 0.5 0.5 0.5 1
-1.01949 1.83046 5.47449 0.5 0.5 0.5 1
2.39033 -3.76357e-07 4.96353 0.5 0.5 0.5 1
1.25278 1.13167 2.8047 0.5 0.5 0.5 1
1.25361 -1.1307 2.80521 0.5 0.5 0.5 1
0.246748 1.68455 2.8801 0.5 0.5 0.5 1
0.251093 -1.66496 2.88112 0.5 0.5 0.5 1
4.3947 -1.66918 5.02748 0.5 0.5 0.5 1
4.3947 1.66918 5.02748 0.5 0.5 0.5 1
3.57135 -1.75929 5.74231 0.5 0.5 0.5 1
3.57135 1.75929 5.74231 0.5 0.5 0.5 1
1.39744 6.41561e-05 2.52916 0.5 0.5 0.5 1
-2.91727 1.59052 5.01036 0.5 0.5 0.5 1
-2.91022 -1.5857 5.00114 0.5 0.5 0.5 1
-3.57661 1.64433 5.57418 0.5 0.5 0.5 1
-3.57659 -1.64461 5.57369 0.5 0.5 0.5 1
-0.475858 -1.44177 2.47227 1 1 1 1
-0.462496 1.46943 2.46692 1 1 1 1
3.70872 -1.77727 5.17596 0.5 0.5 0.5 1
3.70869 1.77735 5.17596 0.5 0.5 0.5 1
-5.03195 1.39572 5.46431 0.5 0.5 0.5 1
-5.03193 -1.39572 5.4643 0.5 0.5 0.5 1
5.98331 -1.54294 5.35622 0.5 0.5 0.5 1
5.98331 1.54294 5.35622 0.5 0.5 0.5 1
7.39051 5.23047e-07 5.62655 0.5 0.5 0.5 1
6.80903 -0.712119 4.62514 0.5 0.5 0.5 1
6.80903 0.712119 4.62514 0.5 0.5 0.5 1
6.63931 -1.10143 5.07883 0.5 0.5 0.5 1
6.63931 1.10143 5.07883 0.5 0.5 0.5 1
-1.51216 -0.358311 1.89247 1 1 1 1
-1.57304 0.530998 1.93728 1 1 1 1
2.73384 1.12311 4.61739 0.5 0.5 0.5 1
2.73384 -1.12311 4.61739 0.5 0.5 0.5 1
-4.1588 1.5566 5.32048 0.5 0.5 0.5 1
-4.15849 -1.5567 5.31983 0.5 0.5 0.5 1
0.841327 1.40805 2.21932 1 1 1 1
0.840776 -1.40691 2.21953 1 1 1 1
-6.28797 -1.53658e-07 5.67128 0.5 0.5 0.5 1
-5.73202 0.645309 4.58078 0.5 0.5 0.5 1
-5.73195 -0.645339 4.58079 0.5 0.5 0.5 1
-1.0204 -1.82995 5.47449 0.5 0.5 0.5 1
-5.56895 0.999746 4.99853 0.5 0.5 0.5 1
-5.56872 -0.999779 4.99841 0.5 0.5 0.5 1
5.09358 -1.64371 5.02741 0.5 0.5 0.5 1
5.09358 1.64371 5.02741 0.5 0.5 0.5 1
2.65946 -0.304049 3.98598 0.5 0.5 0.5 1
2.65946 0.304048 3.98598 0.5 0.5 0.5 1
0.174495 1.42038 1.95805 1 1 1 1
0.175662 -1.41583 1.95854 1 1 1 1
-1.92613 0.973803 4.2165 0.5 0.5 0.5 1
3.60701 -1.58732 4.53997 0.5 0.5 0.5 1
3.60701 1.58732 4.53997 0.5 0.5 0.5 1
1.1226 0.852151 1.99516 1 1 1 1
1.12295 -0.851956 1.99526 1 1 1 1
-1.85679 0.0292498 2.85044 0.5 0.5 0.5 1
-3.75865 1.35286 4.55444 0.5 0.5 0.5 1
-3.75825 -1.35273 4.5554 0.5 0.5 0.5 1
-0.395234 0.944764 1.7296 1 1 1 1
-0.397293 -0.937913 1.73297 1 1 1 1
5.96709 -1.20101 4.56772 0.5 0.5 0.5 1
5.96709 1.20101 4.56772 0.5 0.5 0.5 1
-4.78505 1.13201 4.56639 0.5 0.5 0.5 1
-4.78466 -1.132 4.56631 0.5 0.5 0.5 1
-3.45069 1.1575 4.27626 0.5 0.5 0.5 1
-3.44896 -1.15444 4.27276 0.5 0.5 0.5 1
5.9934 -0.667684 4.17975 0.5 0.5 0.5 1
5.9934 0.667684 4.17975 0.5 0.5 0.5 1
5.39486 -1.27925 4.6075 0.5 0.5 0.5 1
5.39486 1.27925 4.6075 0.5 0.5 0.5 1
3.86654 -1.32508 4.30816 0.5 0.5 0.5 1
3.86654 1.32508 4.30816 0.5 0.5 0.5 1
-0.736822 0.286182 1.47472 1 1 1 1
-3.37472 0.319096 4.04864 0.5 0.5 0.5 1
-3.37779 -0.34292 4.05014 0.5 0.5 0.5 1

3 0 26 60
3 0 60 26
3 0 29 105
3 0 105 29
3 0 60 105
3 0 105 60
3 1 27 61
3 1 61 27
3 1 29 105
3 1 105 29
3 1 61 105
3 1 105 61
3 2 6 31
3 2 31 6
3 2 9 108
3 2 108 9
3 2 31 35
3 2 35 31
3 2 35 108
3 2 108 35
3 3 24 62
3 3 62 24
3 3 28 92
3 3 92 28
3 3 62 92
3 3 92 62
3 4 25 63
3 4 63 25
3 4 28 92
3 4 92 28
3 4 63 92
3 4 92 63
3 5 7 32
3 5 32 7
3 5 8 69
3 5 69 8
3 5 32 36
3 5 36 32
3 5 36 69
3 5 69 36
3 6 10 64
3 6 64 10
3 6 31 64
3 6 64 31
3 7 11 37
3 7 37 11
3 7 32 37
3 7 37 32
3 8 12 33
3 8 33 12
3 8 33 69
3 8 69 33
3 9 13 34
3 9 34 13
3 9 34 108
3 9 108 34
3 10 14 64
3 10 64 14
3 11 15 37
3 11 37 15
3 12 16 33
3 12 33 16
3 13 17 34
3 13 34 17
3 14 18 77
3 14 77 18
3 14 64 77
3 14 77 64
3 15 19 78
3 15 78 19
3 15 37 78
3 15 78 37
3 16 20 82
3 16 82 20
3 16 33 80
3 16 80 33
3 16 80 82
3 16 82 80
3 17 21 83
3 17 83 21
3 17 34 81
3 17 81 34
3 17 81 83
3 17 83 81
3 18 22 75
3 18 75 22
3 18 75 86
3 18 86 75
3 18 77 86
3 18 86 77
3 19 23 76
3 19 76 23
3 19 76 87
3 19 87 76
3 19 78 87
3 19 87 78
3 20 26 88
3 20 88 26
3 20 82 101
3 20 101 82
3 20 88 101
3 20 101 88
3 21 27 89
3 21 89 27
3 21 83 102
3 21 102 83
3 21 89 102
3 21 102 89
3 22 24 90
3 22 90 24
3 22 75 111
3 22 111 75
3 22 90 111
3 22 111 90
3 23 25 91
3 23 91 25
3 23 76 112
3 23 112 76
3 23 91 112
3 23 112 91
3 24 62 90
3 24 90 62
3 25 63 91
3 25 91 63
3 26 60 88
3 26 88 60
3 27 61 89
3 27 89 61
3 30 34 39
3 30 39 34
3 30 34 55
3 30 55 34
3 30 39 58
3 30 58 39
3 30 41 58
3 30 58 41
3 30 41 122
3 30 122 41
3 30 55 117
3 30 117 55
3 30 117 122
3 30 122 117
3 31 35 44
3 31 44 35
3 31 44 68
3 31 68 44
3 31 64 68
3 31 68 64
3 32 36 43
3 32 43 36
3 32 37 65
3 32 65 37
3 32 43 65
3 32 65 43
3 33 40 69
3 33 69 40
3 33 40 117
3 33 117 40
3 33 55 80
3 33 80 55
3 33 55 117
3 33 117 55
3 34 39 108
3 34 108 39
3 34 55 81
3 34 81 55
3 35 39 51
3 35 51 39
3 35 39 108
3 35 108 39
3 35 44 51
3 35 51 44
3 36 40 50
3 36 50 40
3 36 40 69
3 36 69 40
3 36 43 50
3 36 50 43
3 37 47 65
3 37 65 47
3 37 47 70
3 37 70 47
3 37 70 99
3 37 99 70
3 37 78 99
3 37 99 78
3 38 45 54
3 38 54 45
3 38 45 114
3 38 114 45
3 38 53 54
3 38 54 53
3 38 53 75
3 38 75 53
3 38 70 100
3 38 100 70
3 38 70 113
3 38 113 70
3 38 75 86
3 38 86 75
3 38 75 137
3 38 137 75
3 38 86 118
3 38 118 86
3 38 100 118
3 38 118 100
3 38 113 114
3 38 114 113
3 38 118 137
3 38 137 118
3 39 51 58
3 39 58 51
3 40 50 59
3 40 59 50
3 40 59 117
3 40 117 59
3 41 58 84
3 41 84 58
3 41 84 126
3 41 126 84
3 41 97 122
3 41 122 97
3 41 97 126
3 41 126 97
3 42 59 85
3 42 85 59
3 42 59 117
3 42 117 59
3 42 85 125
3 42 125 85
3 42 98 122
3 42 122 98
3 42 98 125
3 42 125 98
3 42 117 122
3 42 122 117
3 43 48 65
3 43 65 48
3 43 48 66
3 43 66 48
3 43 50 66
3 43 66 50
3 44 49 67
3 44 67 49
3 44 49 68
3 44 68 49
3 44 51 67
3 44 67 51
3 45 54 76
3 45 76 54
3 45 70 99
3 45 99 70
3 45 70 114
3 45 114 70
3 45 76 87
3 45 87 76
3 45 76 138
3 45 138 76
3 45 87 119
3 45 119 87
3 45 99 119
3 45 119 99
3 45 119 138
3 45 138 119
3 46 56 107
3 46 107 56
3 46 56 140
3 46 140 56
3 46 88 101
3 46 101 88
3 46 88 109
3 46 109 88
3 46 101 123
3 46 123 101
3 46 101 129
3 46 129 101
3 46 106 107
3 46 107 106
3 46 106 109
3 46 109 106
3 46 109 129
3 46 129 109
3 46 123 131
3 46 131 123
3 46 131 140
3 46 140 131
3 47 48 52
3 47 52 48
3 47 48 65
3 47 65 48
3 47 49 52
3 47 52 49
3 47 49 68
3 47 68 49
3 47 64 68
3 47 68 64
3 47 64 70
3 47 70 64
3 48 52 71
3 48 71 52
3 48 66 71
3 48 71 66
3 49 52 72
3 49 72 52
3 49 67 72
3 49 72 67
3 50 59 73
3 50 73 59
3 50 66 73
3 50 73 66
3 51 58 74
3 51 74 58
3 51 67 74
3 51 74 67
3 52 71 79
3 52 79 71
3 52 72 79
3 52 79 72
3 53 54 134
3 53 134 54
3 53 75 111
3 53 111 75
3 53 90 111
3 53 111 90
3 53 90 127
3 53 127 90
3 53 93 127
3 53 127 93
3 53 93 133
3 53 133 93
3 53 111 135
3 53 135 111
3 53 127 135
3 53 135 127
3 53 133 134
3 53 134 133
3 54 76 112
3 54 112 76
3 54 91 112
3 54 112 91
3 54 91 128
3 54 128 91
3 54 94 128
3 54 128 94
3 54 94 134
3 54 134 94
3 54 112 136
3 54 136 112
3 54 128 136
3 54 136 128
3 55 56 132
3 55 132 56
3 55 56 140
3 55 140 56
3 55 80 131
3 55 131 80
3 55 81 132
3 55 132 81
3 55 131 140
3 55 140 131
3 55 132 141
3 55 141 132
3 55 140 141
3 55 141 140
3 56 89 102
3 56 102 89
3 56 89 110
3 56 110 89
3 56 102 124
3 56 124 102
3 56 102 130
3 56 130 102
3 56 107 110
3 56 110 107
3 56 110 130
3 56 130 110
3 56 124 132
3 56 132 124
3 56 132 141
3 56 141 132
3 56 140 141
3 56 141 140
3 57 71 79
3 57 79 71
3 57 71 103
3 57 103 71
3 57 72 79
3 57 79 72
3 57 72 104
3 57 104 72
3 57 79 120
3 57 120 79
3 57 79 121
3 57 121 79
3 57 97 98
3 57 98 97
3 57 97 126
3 57 126 97
3 57 97 139
3 57 139 97
3 57 98 125
3 57 125 98
3 57 103 115
3 57 115 103
3 57 103 120
3 57 120 103
3 57 104 116
3 57 116 104
3 57 104 121
3 57 121 104
3 57 115 125
3 57 125 115
3 57 116 126
3 57 126 116
3 57 125 139
3 57 139 125
3 58 74 84
3 58 84 74
3 59 73 85
3 59 85 73
3 60 88 109
3 60 109 88
3 60 105 109
3 60 109 105
3 61 89 110
3 61 110 89
3 61 105 110
3 61 110 105
3 62 90 95
3 62 95 90
3 62 92 95
3 62 95 92
3 63 91 96
3 63 96 91
3 63 92 96
3 63 96 92
3 64 70 100
3 64 100 70
3 64 77 100
3 64 100 77
3 66 71 103
3 66 103 71
3 66 73 103
3 66 103 73
3 67 72 104
3 67 104 72
3 67 74 104
3 67 104 74
3 70 113 114
3 70 114 113
3 71 79 120
3 71 120 79
3 71 103 120
3 71 120 103
3 72 79 121
3 72 121 79
3 72 104 121
3 72 121 104
3 73 85 115
3 73 115 85
3 73 103 115
3 73 115 103
3 74 84 116
3 74 116 84
3 74 104 116
3 74 116 104
3 75 86 137
3 75 137 86
3 76 87 138
3 76 138 87
3 77 86 118
3 77 118 86
3 77 100 118
3 77 118 100
3 78 87 119
3 78 119 87
3 78 99 119
3 78 119 99
3 80 82 123
3 80 123 82
3 80 123 131
3 80 131 123
3 81 83 124
3 81 124 83
3 81 124 132
3 81 132 124
3 82 101 123
3 82 123 101
3 83 102 124
3 83 124 102
3 84 116 126
3 84 126 116
3 85 115 125
3 85 125 115
3 86 118 137
3 86 137 118
3 87 119 138
3 87 138 119
3 88 101 129
3 88 129 101
3 88 109 129
3 88 129 109
3 89 102 130
3 89 130 102
3 89 110 130
3 89 130 110
3 90 95 127
3 90 127 95
3 90 111 135
3 90 135 111
3 90 127 135
3 90 135 127
3 91 96 128
3 91 128 96
3 91 112 136
3 91 136 112
3 91 128 136
3 91 136 128
3 92 93 94
3 92 94 93
3 92 93 95
3 92 95 93
3 92 94 96
3 92 96 94
3 93 94 134
3 93 134 94
3 93 95 127
3 93 127 95
3 93 133 134
3 93 134 133
3 94 96 128
3 94 128 96
3 97 98 122
3 97 122 98
3 97 98 139
3 97 139 98
3 98 125 139
3 98 139 125
3 105 106 107
3 105 107 106
3 105 106 109
3 105 109 106
3 105 107 110
3 105 110 107
