COFF
143 540 143

-6.56321 1.10958 6.73369 0.5 0.5 0.5 1
-6.56321 -1.10958 6.73369 0.5 0.5 0.5 1
-0.0318713 -2.21341 6.37764 0.5 0.5 0.5 1
7.55297 -1.19892 6.64431 0.5 0.5 0.5 1
7.55297 1.19892 6.64431 0.5 0.5 0.5 1
-0.0318713 2.21341 6.37764 0.5 0.5 0.5 1
1.14353 -1.89158 6.5224 0.5 0.5 0.5 1
1.14353 1.89158 6.5224 0.5 0.5 0.5 1
-1.17173 1.85296 6.51503 0.5 0.5 0.5 1
-1.17173 -1.85296 6.51503 0.5 0.5 0.5 1
2.05046 -1.57069 6.79562 0.5 0.5 0.5 1
2.05046 1.57069 6.79562 0.5 0.5 0.5 1
-2.08445 1.55494 6.79458 0.5 0.5 0.5 1
-2.08445 -1.55494 6.79458 0.5 0.5 0.5 1
3.02327 -1.6872 6.60001 0.5 0.5 0.5 1
3.02327 1.6872 6.60001 0.5 0.5 0.5 1
-3.0513 1.65065 6.5592 0.5 0.5 0.5 1
-3.0513 -1.65065 6.5592 0.5 0.5 0.5 1
4.01389 -1.81769 6.43494 0.5 0.5 0.5 1
4.01389 1.81769 6.43494 0.5 0.5 0.5 1
-4.06933 1.63908 6.49807 0.5 0.5 0.5 1
-4.06933 -1.63908 6.49807 0.5 0.5 0.5 1
5.08204 -1.87133 6.25546 0.5 0.5 0.5 1
5.08204 1.87133 6.25546 0.5 0.5 0.5 1
6.16975 -1.60263 6.49248 0.5 0.5 0.5 1
6.16975 1.60263 6.49248 0.5 0.5 0.5 1
-5.10171 1.46152 6.59753 0.5 0.5 0.5 1
-5.10171 -1.46152 6.59753 0.5 0.5 0.5 1
8.75358 -0.000127169 6.64872 0.5 0.5 0.5 1
-7.67336 0.000116516 6.7428 0.5 0.5 0.5 1
-1.92735 -0.970475 4.21815 0.5 0.5 0.5 1
1.13113 -1.80709 5.26379 0.5 0.5 0.5 1
1.13113 1.80709 5.26379 0.5 0.5 0.5 1
-2.16305 1.53887 5.61585 0.5 0.5 0.5 1
-2.16306 -1.53887 5.61586 0.5 0.5 0.5 1
0.047208 -1.93256 4.99448 0.5 0.5 0.5 1
0.047212 1.93253 4.99448 0.5 0.5 0.5 1
2.39063 1.48231 5.41078 0.5 0.5 0.5 1
4.01422 -0.619538 3.46312 1 1 0 1
-0.893038 -1.78997 4.4887 0.5 0.5 0.5 1
-0.893047 1.78995 4.48872 0.5 0.5 0.5 1
-1.50274 -0.927959 2.82182 0.5 0.5 0.5 1
-1.50282 0.928281 2.82175 0.5 0.5 0.5 1
1.0449 1.77422 4.15118 0.5 0.5 0.5 1
1.04488 -1.77422 4.15116 0.5 0.5 0.5 1
4.01422 0.619538 3.46312 1 1 0 1
-4.22749 0.659955 3.60169 1 1 0 1
1.98119 2.37011e-08 4.61732 0.5 0.5 0.5 1
1.41906 1.35808 3.77993 0.5 0.5 0.5 1
1.41905 -1.35809 3.77992 0.5 0.5 0.5 1
0.146723 1.83007 3.90896 0.5 0.5 0.5 1
0.146522 -1.82997 3.90896 0.5 0.5 0.5 1
1.62081 -1.57021e-06 3.40861 0.5 0.5 0.5 1
4.88064 -0.672484 3.81921 1 1 0 1
4.88064 0.672484 3.81921 1 1 0 1
-2.5642 6.72744e-06 4.50542 0.5 0.5 0.5 1
-4.22749 -0.659955 3.60169 1 1 0 1
0.154685 5.44833e-06 1.02806 1 1 0 1
-0.675696 -1.60741 3.50616 0.5 0.5 0.5 1
-0.675641 1.60743 3.50623 0.5 0.5 0.5 1
-5.78254 1.27458 5.9455 0.5 0.5 0.5 1
-5.78254 -1.27458 5.9455 0.5 0.5 0.5 1
6.85199 -1.35689 5.97084 0.5 0.5 0.5 1
6.85199 1.35689 5.97084 0.5 0.5 0.5 1
2.39063 -1.48231 5.41078 0.5 0.5 0.5 1
1.6563 1.64902 4.78383 0.5 0.5 0.5 1
0.925721 1.62974 3.16996 0.5 0.5 0.5 1
0.925758 -1.62984 3.16997 0.5 0.5 0.5 1
1.65632 -1.64902 4.78385 0.5 0.5 0.5 1
-1.0196 1.83044 5.47449 0.5 0.5 0.5 1
2.39033 -1.75909e-08 4.96353 0.5 0.5 0.5 1
1.25271 1.13174 2.80471 0.5 0.5 0.5 1
1.2527 -1.13173 2.80471 0.5 0.5 0.5 1
0.243887 1.68344 2.88006 0.5 0.5 0.5 1
0.243724 -1.68338 2.88006 0.5 0.5 0.5 1
4.3947 -1.66918 5.02748 0.5 0.5 0.5 1
4.3947 1.66918 5.02748 0.5 0.5 0.5 1
3.57135 -1.75929 5.74231 0.5 0.5 0.5 1
3.57135 1.75929 5.74231 0.5 0.5 0.5 1
1.39695 -5.29922e-07 2.52916 0.5 0.5 0.5 1
-2.91739 1.59053 5.01039 0.5 0.5 0.5 1
-2.91739 -1.59053 5.01039 0.5 0.5 0.5 1
-3.57661 1.64433 5.57419 0.5 0.5 0.5 1
-3.57661 -1.64433 5.57419 0.5 0.5 0.5 1
-0.469479 -1.46339 2.46935 1 1 1 1
-0.469424 1.46349 2.46935 1 1 1 1
3.70871 -1.77729 5.17596 0.5 0.5 0.5 1
3.7087 1.7773 5.17596 0.5 0.5 0.5 1
-5.03195 1.39572 5.46431 0.5 0.5 0.5 1
-5.03195 -1.39572 5.46431 0.5 0.5 0.5 1
5.98331 -1.54294 5.35622 0.5 0.5 0.5 1
5.98331 1.54294 5.35622 0.5 0.5 0.5 1
7.39051 5.23045e-07 5.62655 0.5 0.5 0.5 1
6.80903 -0.712119 4.62514 0.5 0.5 0.5 1
6.80903 0.712119 4.62514 0.5 0.5 0.5 1
6.63931 -1.10143 5.07883 0.5 0.5 0.5 1
6.63931 1.10143 5.07883 0.5 0.5 0.5 1
-1.57043 -0.522182 1.93797 1 1 1 1
-1.57052 0.522431 1.93796 1 1 1 1
2.73384 1.12311 4.61739 0.5 0.5 0.5 1
2.73384 -1.12311 4.61739 0.5 0.5 0.5 1
-4.1588 1.5566 5.3205 0.5 0.5 0.5 1
-4.1588 -1.5566 5.3205 0.5 0.5 0.5 1
0.841613 1.40832 2.21967 1 1 1 1
0.841597 -1.40832 2.21967 1 1 1 1
-6.28798 8.63272e-08 5.67128 0.5 0.5 0.5 1
-5.73202 0.645309 4.58078 0.5 0.5 0.5 1
-5.73202 -0.645309 4.58078 0.5 0.5 0.5 1
-1.01961 -1.83044 5.47449 0.5 0.5 0.5 1
-5.56896 0.999744 4.99854 0.5 0.5 0.5 1
-5.56896 -0.999744 4.99854 0.5 0.5 0.5 1
5.09358 -1.64371 5.02741 0.5 0.5 0.5 1
5.09358 1.64371 5.02741 0.5 0.5 0.5 1
2.65946 -0.304049 3.98598 0.5 0.5 0.5 1
2.65946 0.304048 3.98598 0.5 0.5 0.5 1
0.174204 1.42001 1.95821 1 1 1 1
0.174187 -1.42 1.95823 1 1 1 1
-1.92734 0.9705 4.21815 0.5 0.5 0.5 1
3.60701 -1.58732 4.53997 0.5 0.5 0.5 1
3.60701 1.58732 4.53997 0.5 0.5 0.5 1
1.12251 0.852139 1.99516 1 1 1 1
1.12251 -0.85214 1.99516 1 1 1 1
-1.85669 0.000145313 2.84701 0.5 0.5 0.5 1
-3.75815 1.35166 4.55385 0.5 0.5 0.5 1
-3.75815 -1.35166 4.55385 0.5 0.5 0.5 1
-0.390751 -0.959381 1.7365 1 1 1 1
-0.390715 0.959461 1.73648 1 1 1 1
5.96709 -1.20101 4.56772 0.5 0.5 0.5 1
5.96709 1.20101 4.56772 0.5 0.5 0.5 1
-4.78506 1.13201 4.56639 0.5 0.5 0.5 1
-4.78505 -1.13201 4.56639 0.5 0.5 0.5 1
-3.45171 1.16268 4.27741 0.5 0.5 0.5 1
-3.45166 -1.16264 4.27743 0.5 0.5 0.5 1
5.9934 -0.667684 4.17975 0.5 0.5 0.5 1
5.9934 0.667684 4.17975 0.5 0.5 0.5 1
5.39486 -1.27925 4.6075 0.5 0.5 0.5 1
5.39486 1.27925 4.6075 0.5 0.5 0.5 1
3.86654 -1.32508 4.30816 0.5 0.5 0.5 1
3.86654 1.32508 4.30816 0.5 0.5 0.5 1
-0.737204 -0.262983 1.47419 1 1 1 1
-0.737249 0.263114 1.47418 1 1 1 1
-3.38556 0.324989 4.05006 0.5 0.5 0.5 1
-3.38556 -0.324981 4.05006 0.5 0.5 0.5 1

3 0 26 60
3 0 60 26
3 0 29 105
3 0 105 29
3 0 60 105
3 0 105 60
3 1 27 61
3 1 61 27
3 1 29 105
3 1 105 29
3 1 61 105
3 1 105 61
3 2 6 31
3 2 31 6
3 2 9 108
3 2 108 9
3 2 31 35
3 2 35 31
3 2 35 108
3 2 108 35
3 3 24 62
3 3 62 24
3 3 28 92
3 3 92 28
3 3 62 92
3 3 92 62
3 4 25 63
3 4 63 25
3 4 28 92
3 4 92 28
3 4 63 92
3 4 92 63
3 5 7 32
3 5 32 7
3 5 8 69
3 5 69 8
3 5 32 36
3 5 36 32
3 5 36 69
3 5 69 36
3 6 10 64
3 6 64 10
3 6 31 64
3 6 64 31
3 7 11 37
3 7 37 11
3 7 32 37
3 7 37 32
3 8 12 33
3 8 33 12
3 8 33 69
3 8 69 33
3 9 13 34
3 9 34 13
3 9 34 108
3 9 108 34
3 10 14 64
3 10 64 14
3 11 15 37
3 11 37 15
3 12 16 33
3 12 33 16
3 13 17 34
3 13 34 17
3 14 18 77
3 14 77 18
3 14 64 77
3 14 77 64
3 15 19 78
3 15 78 19
3 15 37 78
3 15 78 37
3 16 20 82
3 16 82 20
3 16 33 80
3 16 80 33
3 16 80 82
3 16 82 80
3 17 21 83
3 17 83 21
3 17 34 81
3 17 81 34
3 17 81 83
3 17 83 81
3 18 22 75
3 18 75 22
3 18 75 86
3 18 86 75
3 18 77 86
3 18 86 77
3 19 23 76
3 19 76 23
3 19 76 87
3 19 87 76
3 19 78 87
3 19 87 78
3 20 26 88
3 20 88 26
3 20 82 101
3 20 101 82
3 20 88 101
3 20 101 88
3 21 27 89
3 21 89 27
3 21 83 102
3 21 102 83
3 21 89 102
3 21 102 89
3 22 24 90
3 22 90 24
3 22 75 111
3 22 111 75
3 22 90 111
3 22 111 90
3 23 25 91
3 23 91 25
3 23 76 112
3 23 112 76
3 23 91 112
3 23 112 91
3 24 62 90
3 24 90 62
3 25 63 91
3 25 91 63
3 26 60 88
3 26 88 60
3 27 61 89
3 27 89 61
3 30 34 39
3 30 39 34
3 30 34 55
3 30 55 34
3 30 39 58
3 30 58 39
3 30 41 58
3 30 58 41
3 30 41 122
3 30 122 41
3 30 55 117
3 30 117 55
3 30 117 122
3 30 122 117
3 31 35 44
3 31 44 35
3 31 44 68
3 31 68 44
3 31 64 68
3 31 68 64
3 32 36 43
3 32 43 36
3 32 37 65
3 32 65 37
3 32 43 65
3 32 65 43
3 33 40 69
3 33 69 40
3 33 40 117
3 33 117 40
3 33 55 80
3 33 80 55
3 33 55 117
3 33 117 55
3 34 39 108
3 34 108 39
3 34 55 81
3 34 81 55
3 35 39 51
3 35 51 39
3 35 39 108
3 35 108 39
3 35 44 51
3 35 51 44
3 36 40 50
3 36 50 40
3 36 40 69
3 36 69 40
3 36 43 50
3 36 50 43
3 37 47 65
3 37 65 47
3 37 47 70
3 37 70 47
3 37 70 99
3 37 99 70
3 37 78 99
3 37 99 78
3 38 45 54
3 38 54 45
3 38 45 114
3 38 114 45
3 38 53 54
3 38 54 53
3 38 53 75
3 38 75 53
3 38 70 100
3 38 100 70
3 38 70 113
3 38 113 70
3 38 75 86
3 38 86 75
3 38 75 137
3 38 137 75
3 38 86 118
3 38 118 86
3 38 100 118
3 38 118 100
3 38 113 114
3 38 114 113
3 38 118 137
3 38 137 118
3 39 51 58
3 39 58 51
3 40 50 59
3 40 59 50
3 40 59 117
3 40 117 59
3 41 58 84
3 41 84 58
3 41 84 125
3 41 125 84
3 41 97 122
3 41 122 97
3 41 97 125
3 41 125 97
3 42 59 85
3 42 85 59
3 42 59 117
3 42 117 59
3 42 85 126
3 42 126 85
3 42 98 122
3 42 122 98
3 42 98 126
3 42 126 98
3 42 117 122
3 42 122 117
3 43 48 65
3 43 65 48
3 43 48 66
3 43 66 48
3 43 50 66
3 43 66 50
3 44 49 67
3 44 67 49
3 44 49 68
3 44 68 49
3 44 51 67
3 44 67 51
3 45 54 76
3 45 76 54
3 45 70 99
3 45 99 70
3 45 70 114
3 45 114 70
3 45 76 87
3 45 87 76
3 45 76 138
3 45 138 76
3 45 87 119
3 45 119 87
3 45 99 119
3 45 119 99
3 45 119 138
3 45 138 119
3 46 55 131
3 46 131 55
3 46 55 141
3 46 141 55
3 46 56 107
3 46 107 56
3 46 56 142
3 46 142 56
3 46 88 101
3 46 101 88
3 46 88 109
3 46 109 88
3 46 101 123
3 46 123 101
3 46 101 129
3 46 129 101
3 46 106 107
3 46 107 106
3 46 106 109
3 46 109 106
3 46 109 129
3 46 129 109
3 46 123 131
3 46 131 123
3 46 141 142
3 46 142 141
3 47 48 52
3 47 52 48
3 47 48 65
3 47 65 48
3 47 49 52
3 47 52 49
3 47 49 68
3 47 68 49
3 47 64 68
3 47 68 64
3 47 64 70
3 47 70 64
3 48 52 71
3 48 71 52
3 48 66 71
3 48 71 66
3 49 52 72
3 49 72 52
3 49 67 72
3 49 72 67
3 50 59 73
3 50 73 59
3 50 66 73
3 50 73 66
3 51 58 74
3 51 74 58
3 51 67 74
3 51 74 67
3 52 71 79
3 52 79 71
3 52 72 79
3 52 79 72
3 53 54 134
3 53 134 54
3 53 75 111
3 53 111 75
3 53 90 111
3 53 111 90
3 53 90 127
3 53 127 90
3 53 93 127
3 53 127 93
3 53 93 133
3 53 133 93
3 53 111 135
3 53 135 111
3 53 127 135
3 53 135 127
3 53 133 134
3 53 134 133
3 54 76 112
3 54 112 76
3 54 91 112
3 54 112 91
3 54 91 128
3 54 128 91
3 54 94 128
3 54 128 94
3 54 94 134
3 54 134 94
3 54 112 136
3 54 136 112
3 54 128 136
3 54 136 128
3 55 56 132
3 55 132 56
3 55 56 142
3 55 142 56
3 55 80 131
3 55 131 80
3 55 81 132
3 55 132 81
3 55 141 142
3 55 142 141
3 56 89 102
3 56 102 89
3 56 89 110
3 56 110 89
3 56 102 124
3 56 124 102
3 56 102 130
3 56 130 102
3 56 107 110
3 56 110 107
3 56 110 130
3 56 130 110
3 56 124 132
3 56 132 124
3 57 71 79
3 57 79 71
3 57 71 103
3 57 103 71
3 57 72 79
3 57 79 72
3 57 72 104
3 57 104 72
3 57 79 120
3 57 120 79
3 57 79 121
3 57 121 79
3 57 97 125
3 57 125 97
3 57 97 139
3 57 139 97
3 57 98 126
3 57 126 98
3 57 98 140
3 57 140 98
3 57 103 115
3 57 115 103
3 57 103 120
3 57 120 103
3 57 104 116
3 57 116 104
3 57 104 121
3 57 121 104
3 57 115 126
3 57 126 115
3 57 116 125
3 57 125 116
3 57 139 140
3 57 140 139
3 58 74 84
3 58 84 74
3 59 73 85
3 59 85 73
3 60 88 109
3 60 109 88
3 60 105 109
3 60 109 105
3 61 89 110
3 61 110 89
3 61 105 110
3 61 110 105
3 62 90 95
3 62 95 90
3 62 92 95
3 62 95 92
3 63 91 96
3 63 96 91
3 63 92 96
3 63 96 92
3 64 70 100
3 64 100 70
3 64 77 100
3 64 100 77
3 66 71 103
3 66 103 71
3 66 73 103
3 66 103 73
3 67 72 104
3 67 104 72
3 67 74 104
3 67 104 74
3 70 113 114
3 70 114 113
3 71 79 120
3 71 120 79
3 71 103 120
3 71 120 103
3 72 79 121
3 72 121 79
3 72 104 121
3 72 121 104
3 73 85 115
3 73 115 85
3 73 103 115
3 73 115 103
3 74 84 116
3 74 116 84
3 74 104 116
3 74 116 104
3 75 86 137
3 75 137 86
3 76 87 138
3 76 138 87
3 77 86 118
3 77 118 86
3 77 100 118
3 77 118 100
3 78 87 119
3 78 119 87
3 78 99 119
3 78 119 99
3 80 82 123
3 80 123 82
3 80 123 131
3 80 131 123
3 81 83 124
3 81 124 83
3 81 124 132
3 81 132 124
3 82 101 123
3 82 123 101
3 83 102 124
3 83 124 102
3 84 116 125
3 84 125 116
3 85 115 126
3 85 126 115
3 86 118 137
3 86 137 118
3 87 119 138
3 87 138 119
3 88 101 129
3 88 129 101
3 88 109 129
3 88 129 109
3 89 102 130
3 89 130 102
3 89 110 130
3 89 130 110
3 90 95 127
3 90 127 95
3 90 111 135
3 90 135 111
3 90 127 135
3 90 135 127
3 91 96 128
3 91 128 96
3 91 112 136
3 91 136 112
3 91 128 136
3 91 136 128
3 92 93 94
3 92 94 93
3 92 93 95
3 92 95 93
3 92 94 96
3 92 96 94
3 93 94 134
3 93 134 94
3 93 95 127
3 93 127 95
3 93 133 134
3 93 134 133
3 94 96 128
3 94 128 96
3 97 98 122
3 97 122 98
3 97 98 140
3 97 140 98
3 97 139 140
3 97 140 139
3 105 106 107
3 105 107 106
3 105 106 109
3 105 109 106
3 105 107 110
3 105 110 107
