COFF
155 596 155

-6.59354 1.16348 7.07397 0.5 0.5 0.5 1
-6.59354 -1.16348 7.07397 0.5 0.5 0.5 1
-0.0330411 -2.27089 6.71535 0.5 0.5 0.5 1
7.58782 -1.25735 6.97584 0.5 0.5 0.5 1
7.58782 1.25735 6.97584 0.5 0.5 0.5 1
-0.0330411 2.27089 6.71535 0.5 0.5 0.5 1
1.1535 -1.95243 6.8563 0.5 0.5 0.5 1
1.1535 1.95243 6.8563 0.5 0.5 0.5 1
-1.18289 1.90896 6.85409 0.5 0.5 0.5 1
-1.18289 -1.90896 6.85409 0.5 0.5 0.5 1
2.05672 -1.62872 7.1384 0.5 0.5 0.5 1
2.05672 1.62872 7.1384 0.5 0.5 0.5 1
-2.09327 1.61025 7.14049 0.5 0.5 0.5 1
-2.09327 -1.61025 7.14049 0.5 0.5 0.5 1
3.02098 -1.76591 6.91572 0.5 0.5 0.5 1
3.02098 1.76591 6.91572 0.5 0.5 0.5 1
-3.05068 1.72776 6.87789 0.5 0.5 0.5 1
-3.05068 -1.72776 6.87789 0.5 0.5 0.5 1
4.00338 -1.92403 6.7192 0.5 0.5 0.5 1
4.00338 1.92403 6.7192 0.5 0.5 0.5 1
-4.07701 1.72178 6.80989 0.5 0.5 0.5 1
-4.07701 -1.72178 6.80989 0.5 0.5 0.5 1
5.09328 -1.98182 6.53273 0.5 0.5 0.5 1
5.09328 1.98182 6.53273 0.5 0.5 0.5 1
6.19191 -1.68194 6.80451 0.5 0.5 0.5 1
6.19191 1.68194 6.80451 0.5 0.5 0.5 1
-5.11611 1.52943 6.92616 0.5 0.5 0.5 1
-5.11611 -1.52943 6.92616 0.5 0.5 0.5 1
8.84603 0.000118127 6.98761 0.5 0.5 0.5 1
-7.75796 0.000109661 7.08872 0.5 0.5 0.5 1
-1.90266 -1.01634 4.50746 0.5 0.5 0.5 1
1.14323 -1.86509 5.57367 0.5 0.5 0.5 1
1.14323 1.86509 5.57367 0.5 0.5 0.5 1
-2.16315 1.60599 5.93883 0.5 0.5 0.5 1
-2.16316 -1.60598 5.93884 0.5 0.5 0.5 1
0.0475973 -1.98828 5.29245 0.5 0.5 0.5 1
0.0475897 1.98825 5.29245 0.5 0.5 0.5 1
2.40512 1.54054 5.6987 0.5 0.5 0.5 1
4.00994 -0.61958 3.46312 1 1 0 1
-0.885324 -1.84967 4.7925 0.5 0.5 0.5 1
-0.885323 1.84966 4.79252 0.5 0.5 0.5 1
-1.51277 -0.88886 3.08621 0.5 0.5 0.5 1
-1.51281 0.888916 3.08611 0.5 0.5 0.5 1
1.06132 1.8325 4.44769 0.5 0.5 0.5 1
1.06131 -1.8325 4.44768 0.5 0.5 0.5 1
4.00994 0.61958 3.46312 1 1 0 1
-4.23944 0.65999 3.60169 1 1 0 1
2.06366 -1.08616e-07 4.96483 0.5 0.5 0.5 1
1.44446 1.40938 4.05251 0.5 0.5 0.5 1
1.44446 -1.40938 4.0525 0.5 0.5 0.5 1
0.155334 1.88743 4.17973 0.5 0.5 0.5 1
0.155256 -1.88753 4.17972 0.5 0.5 0.5 1
1.61617 -1.91999e-06 3.62038 0.5 0.5 0.5 1
4.87623 -0.673408 3.81921 1 1 0 1
4.87623 0.673408 3.81921 1 1 0 1
-2.56481 4.94863e-06 4.82077 0.5 0.5 0.5 1
-4.23943 -0.659989 3.60169 1 1 0 1
0.162319 9.86534e-06 1.02806 1 1 0 1
-0.703406 -1.64761 3.70568 0.5 0.5 0.5 1
-0.703369 1.64762 3.70575 0.5 0.5 0.5 1
-5.80496 1.32889 6.27862 0.5 0.5 0.5 1
-5.80496 -1.32889 6.27862 0.5 0.5 0.5 1
6.85004 -1.43576 6.29052 0.5 0.5 0.5 1
6.85004 1.43576 6.29052 0.5 0.5 0.5 1
2.40512 -1.54054 5.6987 0.5 0.5 0.5 1
1.67788 1.70655 5.07524 0.5 0.5 0.5 1
0.941838 1.68484 3.44176 0.5 0.5 0.5 1
0.94182 -1.68472 3.44177 0.5 0.5 0.5 1
1.6779 -1.70655 5.07525 0.5 0.5 0.5 1
-1.0193 1.88747 5.7761 0.5 0.5 0.5 1
2.40472 6.02416e-08 5.30993 0.5 0.5 0.5 1
1.26063 1.18594 3.04543 0.5 0.5 0.5 1
1.26063 -1.18595 3.04543 0.5 0.5 0.5 1
0.22667 1.73485 3.12433 0.5 0.5 0.5 1
0.226605 -1.73465 3.12433 0.5 0.5 0.5 1
4.34437 -1.78908 5.22364 0.5 0.5 0.5 1
4.34437 1.78908 5.22364 0.5 0.5 0.5 1
3.57415 -1.8549 6.0384 0.5 0.5 0.5 1
3.57415 1.85491 6.0384 0.5 0.5 0.5 1
1.40373 -1.38658e-06 2.72999 1 1 1 1
-2.92379 1.6514 5.33845 0.5 0.5 0.5 1
-2.92379 -1.6514 5.33845 0.5 0.5 0.5 1
-3.58151 1.7246 5.85662 0.5 0.5 0.5 1
-3.58151 -1.7246 5.85662 0.5 0.5 0.5 1
-0.527476 -1.4757 2.68027 1 1 1 1
-0.527453 1.47573 2.68029 1 1 1 1
3.71182 -1.87706 5.42855 0.5 0.5 0.5 1
3.71203 1.87661 5.42855 0.5 0.5 0.5 1
-5.08305 1.46626 5.75899 0.5 0.5 0.5 1
-5.08305 -1.46626 5.75899 0.5 0.5 0.5 1
6.05445 -1.62598 5.58313 0.5 0.5 0.5 1
6.05445 1.62598 5.58313 0.5 0.5 0.5 1
7.46988 1.03716e-07 5.93441 0.5 0.5 0.5 1
6.95022 -0.756266 4.92641 0.5 0.5 0.5 1
6.95022 0.756265 4.92641 0.5 0.5 0.5 1
6.66122 -1.17934 5.45704 0.5 0.5 0.5 1
6.66122 1.17934 5.45704 0.5 0.5 0.5 1
-1.69795 -0.475156 2.19646 1 1 1 1
-1.69796 0.475271 2.19644 1 1 1 1
2.67013 1.10348 4.84584 0.5 0.5 0.5 1
2.67013 -1.10348 4.84584 0.5 0.5 0.5 1
-4.16663 1.64351 5.56817 0.5 0.5 0.5 1
-4.16663 -1.64351 5.56817 0.5 0.5 0.5 1
0.82969 1.51263 2.45527 1 1 1 1
0.829688 -1.51263 2.45527 1 1 1 1
-6.38733 5.06685e-09 5.97218 0.5 0.5 0.5 1
-5.88684 0.701665 4.85177 0.5 0.5 0.5 1
-5.88684 -0.701665 4.85177 0.5 0.5 0.5 1
-1.01931 -1.88747 5.7761 0.5 0.5 0.5 1
-5.63781 1.07042 5.28414 0.5 0.5 0.5 1
-5.63795 -1.07028 5.28414 0.5 0.5 0.5 1
5.26105 -1.71438 5.22353 0.5 0.5 0.5 1
5.26105 1.71438 5.22353 0.5 0.5 0.5 1
2.59402 -0.304378 4.0474 0.5 0.5 0.5 1
2.59402 0.304378 4.0474 0.5 0.5 0.5 1
0.215136 1.53712 2.15933 1 1 1 1
0.215112 -1.5371 2.15934 1 1 1 1
-1.90267 1.01635 4.50746 0.5 0.5 0.5 1
3.44747 -1.69565 4.71411 0.5 0.5 0.5 1
3.44746 1.69565 4.71411 0.5 0.5 0.5 1
1.12333 0.962143 2.18973 1 1 1 1
1.12332 -0.962144 2.18973 1 1 1 1
-1.95158 2.07024e-05 3.13944 0.5 0.5 0.5 1
-3.6774 1.52602 4.70881 0.5 0.5 0.5 1
-3.67739 -1.52603 4.70882 0.5 0.5 0.5 1
-0.62848 -1.15212 1.98437 1 1 1 1
-0.628451 1.1522 1.98433 1 1 1 1
6.20177 -1.31386 4.7466 0.5 0.5 0.5 1
6.20177 1.31385 4.7466 0.5 0.5 0.5 1
-4.91468 1.32354 4.80219 0.5 0.5 0.5 1
-4.91468 -1.32354 4.80219 0.5 0.5 0.5 1
-3.24681 1.26926 4.48486 0.5 0.5 0.5 1
-3.24677 -1.26922 4.4849 0.5 0.5 0.5 1
6.39667 -0.674488 4.17977 0.5 0.5 0.5 1
6.39667 0.674488 4.17977 0.5 0.5 0.5 1
5.64261 -1.47559 4.73037 0.5 0.5 0.5 1
5.64261 1.47559 4.73037 0.5 0.5 0.5 1
3.80882 -1.62585 4.45699 0.5 0.5 0.5 1
3.80882 1.62585 4.45699 0.5 0.5 0.5 1
-1.11316 -0.305084 1.47615 1 1 1 1
-1.11321 0.305238 1.47615 1 1 1 1
-3.01364 0.324042 4.06144 0.5 0.5 0.5 1
-3.01365 -0.324028 4.06144 0.5 0.5 0.5 1
-5.24243 1.13504 4.48623 0.5 0.5 0.5 1
-5.24243 -1.13504 4.48623 0.5 0.5 0.5 1
0.633758 1.03208 1.70603 1 1 1 1
0.633744 -1.03208 1.70604 1 1 1 1
-4.21244 1.40304 4.63909 0.5 0.5 0.5 1
-4.21243 -1.40304 4.63908 0.5 0.5 0.5 1
4.16183 -1.36408 4.2768 0.5 0.5 0.5 1
4.16183 1.36408 4.2768 0.5 0.5 0.5 1
1.02466 1.01538e-06 1.90946 1 1 1 1
-1.98457 1.22921e-05 4.45742 0.5 0.5 0.5 1
-5.07904 0.667077 4.19101 0.5 0.5 0.5 1
-5.07904 -0.667077 4.19101 0.5 0.5 0.5 1

3 0 26 60
3 0 60 26
3 0 29 105
3 0 105 29
3 0 60 105
3 0 105 60
3 1 27 61
3 1 61 27
3 1 29 105
3 1 105 29
3 1 61 105
3 1 105 61
3 2 6 31
3 2 31 6
3 2 9 108
3 2 108 9
3 2 31 35
3 2 35 31
3 2 35 108
3 2 108 35
3 3 24 62
3 3 62 24
3 3 28 92
3 3 92 28
3 3 62 92
3 3 92 62
3 4 25 63
3 4 63 25
3 4 28 92
3 4 92 28
3 4 63 92
3 4 92 63
3 5 7 32
3 5 32 7
3 5 8 69
3 5 69 8
3 5 32 36
3 5 36 32
3 5 36 69
3 5 69 36
3 6 10 64
3 6 64 10
3 6 31 64
3 6 64 31
3 7 11 37
3 7 37 11
3 7 32 37
3 7 37 32
3 8 12 33
3 8 33 12
3 8 33 69
3 8 69 33
3 9 13 34
3 9 34 13
3 9 34 108
3 9 108 34
3 10 14 64
3 10 64 14
3 11 15 37
3 11 37 15
3 12 16 33
3 12 33 16
3 13 17 34
3 13 34 17
3 14 18 77
3 14 77 18
3 14 64 77
3 14 77 64
3 15 19 78
3 15 78 19
3 15 37 78
3 15 78 37
3 16 20 82
3 16 82 20
3 16 33 80
3 16 80 33
3 16 80 82
3 16 82 80
3 17 21 83
3 17 83 21
3 17 34 81
3 17 81 34
3 17 81 83
3 17 83 81
3 18 22 75
3 18 75 22
3 18 75 86
3 18 86 75
3 18 77 86
3 18 86 77
3 19 23 76
3 19 76 23
3 19 76 87
3 19 87 76
3 19 78 87
3 19 87 78
3 20 26 88
3 20 88 26
3 20 82 101
3 20 101 82
3 20 88 101
3 20 101 88
3 21 27 89
3 21 89 27
3 21 83 102
3 21 102 83
3 21 89 102
3 21 102 89
3 22 24 90
3 22 90 24
3 22 75 111
3 22 111 75
3 22 90 111
3 22 111 90
3 23 25 91
3 23 91 25
3 23 76 112
3 23 112 76
3 23 91 112
3 23 112 91
3 24 62 90
3 24 90 62
3 25 63 91
3 25 91 63
3 26 60 88
3 26 88 60
3 27 61 89
3 27 89 61
3 30 34 39
3 30 39 34
3 30 34 55
3 30 55 34
3 30 39 58
3 30 58 39
3 30 41 58
3 30 58 41
3 30 41 122
3 30 122 41
3 30 55 117
3 30 117 55
3 30 55 152
3 30 152 55
3 30 117 122
3 30 122 117
3 30 122 152
3 30 152 122
3 31 35 44
3 31 44 35
3 31 44 68
3 31 68 44
3 31 64 68
3 31 68 64
3 32 36 43
3 32 43 36
3 32 37 65
3 32 65 37
3 32 43 65
3 32 65 43
3 33 40 69
3 33 69 40
3 33 40 117
3 33 117 40
3 33 55 80
3 33 80 55
3 33 55 117
3 33 117 55
3 34 39 108
3 34 108 39
3 34 55 81
3 34 81 55
3 35 39 51
3 35 51 39
3 35 39 108
3 35 108 39
3 35 44 51
3 35 51 44
3 36 40 50
3 36 50 40
3 36 40 69
3 36 69 40
3 36 43 50
3 36 50 43
3 37 47 65
3 37 65 47
3 37 47 70
3 37 70 47
3 37 70 99
3 37 99 70
3 37 78 99
3 37 99 78
3 38 45 54
3 38 54 45
3 38 45 114
3 38 114 45
3 38 53 54
3 38 54 53
3 38 53 75
3 38 75 53
3 38 53 149
3 38 149 53
3 38 70 100
3 38 100 70
3 38 70 113
3 38 113 70
3 38 75 137
3 38 137 75
3 38 100 118
3 38 118 100
3 38 113 114
3 38 114 113
3 38 118 137
3 38 137 118
3 38 137 149
3 38 149 137
3 39 51 58
3 39 58 51
3 40 50 59
3 40 59 50
3 40 59 117
3 40 117 59
3 41 58 84
3 41 84 58
3 41 84 125
3 41 125 84
3 41 97 122
3 41 122 97
3 41 97 125
3 41 125 97
3 42 59 85
3 42 85 59
3 42 59 117
3 42 117 59
3 42 85 126
3 42 126 85
3 42 98 122
3 42 122 98
3 42 98 126
3 42 126 98
3 42 117 122
3 42 122 117
3 43 48 65
3 43 65 48
3 43 48 66
3 43 66 48
3 43 50 66
3 43 66 50
3 44 49 67
3 44 67 49
3 44 49 68
3 44 68 49
3 44 51 67
3 44 67 51
3 45 54 76
3 45 76 54
3 45 54 150
3 45 150 54
3 45 70 99
3 45 99 70
3 45 70 114
3 45 114 70
3 45 76 138
3 45 138 76
3 45 99 119
3 45 119 99
3 45 119 138
3 45 138 119
3 45 138 150
3 45 150 138
3 46 55 131
3 46 131 55
3 46 55 141
3 46 141 55
3 46 56 142
3 46 142 56
3 46 56 154
3 46 154 56
3 46 101 123
3 46 123 101
3 46 101 129
3 46 129 101
3 46 106 143
3 46 143 106
3 46 106 153
3 46 153 106
3 46 123 131
3 46 131 123
3 46 123 147
3 46 147 123
3 46 129 143
3 46 143 129
3 46 129 147
3 46 147 129
3 46 141 142
3 46 142 141
3 46 153 154
3 46 154 153
3 47 48 52
3 47 52 48
3 47 48 65
3 47 65 48
3 47 49 52
3 47 52 49
3 47 49 68
3 47 68 49
3 47 64 68
3 47 68 64
3 47 64 70
3 47 70 64
3 48 52 71
3 48 71 52
3 48 66 71
3 48 71 66
3 49 52 72
3 49 72 52
3 49 67 72
3 49 72 67
3 50 59 73
3 50 73 59
3 50 66 73
3 50 73 66
3 51 58 74
3 51 74 58
3 51 67 74
3 51 74 67
3 52 71 79
3 52 79 71
3 52 72 79
3 52 79 72
3 53 54 134
3 53 134 54
3 53 75 111
3 53 111 75
3 53 75 149
3 53 149 75
3 53 90 111
3 53 111 90
3 53 90 127
3 53 127 90
3 53 93 127
3 53 127 93
3 53 93 133
3 53 133 93
3 53 111 135
3 53 135 111
3 53 127 135
3 53 135 127
3 53 133 134
3 53 134 133
3 54 76 112
3 54 112 76
3 54 76 150
3 54 150 76
3 54 91 112
3 54 112 91
3 54 91 128
3 54 128 91
3 54 94 128
3 54 128 94
3 54 94 134
3 54 134 94
3 54 112 136
3 54 136 112
3 54 128 136
3 54 136 128
3 55 56 132
3 55 132 56
3 55 56 142
3 55 142 56
3 55 80 131
3 55 131 80
3 55 81 132
3 55 132 81
3 55 117 152
3 55 152 117
3 55 141 142
3 55 142 141
3 56 102 124
3 56 124 102
3 56 102 130
3 56 130 102
3 56 107 144
3 56 144 107
3 56 107 154
3 56 154 107
3 56 124 132
3 56 132 124
3 56 124 148
3 56 148 124
3 56 130 144
3 56 144 130
3 56 130 148
3 56 148 130
3 57 79 120
3 57 120 79
3 57 79 121
3 57 121 79
3 57 97 125
3 57 125 97
3 57 97 139
3 57 139 97
3 57 98 126
3 57 126 98
3 57 98 140
3 57 140 98
3 57 103 115
3 57 115 103
3 57 103 120
3 57 120 103
3 57 104 116
3 57 116 104
3 57 104 121
3 57 121 104
3 57 115 126
3 57 126 115
3 57 115 145
3 57 145 115
3 57 116 125
3 57 125 116
3 57 116 146
3 57 146 116
3 57 120 145
3 57 145 120
3 57 120 151
3 57 151 120
3 57 121 146
3 57 146 121
3 57 121 151
3 57 151 121
3 57 139 140
3 57 140 139
3 58 74 84
3 58 84 74
3 59 73 85
3 59 85 73
3 60 88 109
3 60 109 88
3 60 105 109
3 60 109 105
3 61 89 110
3 61 110 89
3 61 105 110
3 61 110 105
3 62 90 95
3 62 95 90
3 62 92 95
3 62 95 92
3 63 91 96
3 63 96 91
3 63 92 96
3 63 96 92
3 64 70 100
3 64 100 70
3 64 77 100
3 64 100 77
3 66 71 103
3 66 103 71
3 66 73 103
3 66 103 73
3 67 72 104
3 67 104 72
3 67 74 104
3 67 104 74
3 70 113 114
3 70 114 113
3 71 79 120
3 71 120 79
3 71 103 120
3 71 120 103
3 72 79 121
3 72 121 79
3 72 104 121
3 72 121 104
3 73 85 115
3 73 115 85
3 73 103 115
3 73 115 103
3 74 84 116
3 74 116 84
3 74 104 116
3 74 116 104
3 75 86 137
3 75 137 86
3 75 137 149
3 75 149 137
3 76 87 138
3 76 138 87
3 76 138 150
3 76 150 138
3 77 86 118
3 77 118 86
3 77 100 118
3 77 118 100
3 78 87 119
3 78 119 87
3 78 99 119
3 78 119 99
3 79 120 151
3 79 151 120
3 79 121 151
3 79 151 121
3 80 82 123
3 80 123 82
3 80 123 131
3 80 131 123
3 81 83 124
3 81 124 83
3 81 124 132
3 81 132 124
3 82 101 123
3 82 123 101
3 83 102 124
3 83 124 102
3 84 116 125
3 84 125 116
3 85 115 126
3 85 126 115
3 86 118 137
3 86 137 118
3 87 119 138
3 87 138 119
3 88 101 129
3 88 129 101
3 88 109 129
3 88 129 109
3 89 102 130
3 89 130 102
3 89 110 130
3 89 130 110
3 90 95 127
3 90 127 95
3 90 111 135
3 90 135 111
3 90 127 135
3 90 135 127
3 91 96 128
3 91 128 96
3 91 112 136
3 91 136 112
3 91 128 136
3 91 136 128
3 92 93 94
3 92 94 93
3 92 93 95
3 92 95 93
3 92 94 96
3 92 96 94
3 93 94 134
3 93 134 94
3 93 95 127
3 93 127 95
3 93 133 134
3 93 134 133
3 94 96 128
3 94 128 96
3 97 98 122
3 97 122 98
3 97 98 140
3 97 140 98
3 97 139 140
3 97 140 139
3 101 123 147
3 101 147 123
3 101 129 147
3 101 147 129
3 102 124 148
3 102 148 124
3 102 130 148
3 102 148 130
3 103 115 145
3 103 145 115
3 103 120 145
3 103 145 120
3 104 116 146
3 104 146 116
3 104 121 146
3 104 146 121
3 105 106 107
3 105 107 106
3 105 106 109
3 105 109 106
3 105 107 110
3 105 110 107
3 106 107 154
3 106 154 107
3 106 109 143
3 106 143 109
3 106 153 154
3 106 154 153
3 107 110 144
3 107 144 110
3 109 129 143
3 109 143 129
3 110 130 144
3 110 144 130
3 117 122 152
3 117 152 122
