COFF
154 600 154

-6.59352 1.16345 7.07401 0.5 0.5 0.5 1
-6.59352 -1.16344 7.07402 0.5 0.5 0.5 1
-0.0330396 -2.27091 6.71533 0.5 0.5 0.5 1
7.58782 -1.25735 6.97584 0.5 0.5 0.5 1
7.58782 1.25735 6.97584 0.5 0.5 0.5 1
-0.0330414 2.27086 6.71538 0.5 0.5 0.5 1
1.1535 -1.95243 6.8563 0.5 0.5 0.5 1
1.1535 1.95242 6.85631 0.5 0.5 0.5 1
-1.18288 1.90886 6.85419 0.5 0.5 0.5 1
-1.1829 -1.90908 6.85397 0.5 0.5 0.5 1
2.05672 -1.62872 7.1384 0.5 0.5 0.5 1
2.05672 1.62872 7.1384 0.5 0.5 0.5 1
-2.09325 1.61013 7.14061 0.5 0.5 0.5 1
-2.09329 -1.6104 7.14034 0.5 0.5 0.5 1
3.02098 -1.76591 6.91572 0.5 0.5 0.5 1
3.02098 1.76591 6.91572 0.5 0.5 0.5 1
-3.05067 1.72761 6.87804 0.5 0.5 0.5 1
-3.05071 -1.72787 6.87778 0.5 0.5 0.5 1
4.00338 -1.92403 6.7192 0.5 0.5 0.5 1
4.00338 1.92403 6.7192 0.5 0.5 0.5 1
-4.07701 1.72177 6.8099 0.5 0.5 0.5 1
-4.07702 -1.72177 6.8099 0.5 0.5 0.5 1
5.09328 -1.98182 6.53273 0.5 0.5 0.5 1
5.09328 1.98182 6.53273 0.5 0.5 0.5 1
6.19191 -1.68194 6.80451 0.5 0.5 0.5 1
6.19191 1.68194 6.80451 0.5 0.5 0.5 1
-5.11611 1.52943 6.92617 0.5 0.5 0.5 1
-5.11611 -1.52942 6.92618 0.5 0.5 0.5 1
8.84603 0.000118127 6.98761 0.5 0.5 0.5 1
-7.7579 0.000112213 7.08876 0.5 0.5 0.5 1
-1.89986 -0.552205 4.36032 0.5 0.5 0.5 1
1.14323 -1.86509 5.57366 0.5 0.5 0.5 1
1.14323 1.86509 5.57368 0.5 0.5 0.5 1
-2.16322 1.6058 5.93978 0.5 0.5 0.5 1
-2.162 -1.5956 5.93813 0.5 0.5 0.5 1
0.0476179 -1.98778 5.29234 0.5 0.5 0.5 1
0.0475907 1.98845 5.29253 0.5 0.5 0.5 1
2.40511 1.54054 5.69871 0.5 0.5 0.5 1
4.00994 -0.61958 3.46312 1 1 0 1
-0.888786 -1.835 4.78857 0.5 0.5 0.5 1
-0.885039 1.8501 4.7934 0.5 0.5 0.5 1
-1.52483 -0.792523 3.02655 0.5 0.5 0.5 1
-1.51392 0.946398 3.06792 0.5 0.5 0.5 1
1.06131 1.83249 4.44769 0.5 0.5 0.5 1
1.06127 -1.83233 4.44774 0.5 0.5 0.5 1
4.00994 0.61958 3.46312 1 1 0 1
-4.24002 0.674491 3.60169 1 1 0 1
2.06365 -1.2616e-06 4.96484 0.5 0.5 0.5 1
1.44447 1.40933 4.05256 0.5 0.5 0.5 1
1.44443 -1.40933 4.05258 0.5 0.5 0.5 1
0.155508 1.88772 4.18016 0.5 0.5 0.5 1
0.153618 -1.88305 4.18204 0.5 0.5 0.5 1
1.61608 2.82867e-05 3.62052 0.5 0.5 0.5 1
4.87623 -0.673408 3.81921 1 1 0 1
4.87623 0.673408 3.81921 1 1 0 1
-2.5636 -0.000462329 4.87379 0.5 0.5 0.5 1
-4.22276 -0.644038 3.60169 1 1 0 1
0.155958 0.00442367 1.02806 1 1 0 1
-0.73156 -1.54538 3.80044 0.5 0.5 0.5 1
-0.688362 1.65483 3.72379 0.5 0.5 0.5 1
-5.80427 1.32905 6.2781 0.5 0.5 0.5 1
-5.80481 -1.32875 6.27891 0.5 0.5 0.5 1
6.85004 -1.43576 6.29052 0.5 0.5 0.5 1
6.85004 1.43576 6.29052 0.5 0.5 0.5 1
2.40512 -1.54054 5.6987 0.5 0.5 0.5 1
1.67791 1.70654 5.07528 0.5 0.5 0.5 1
0.941982 1.68485 3.44179 0.5 0.5 0.5 1
0.941923 -1.68321 3.44197 0.5 0.5 0.5 1
1.67788 -1.70655 5.07524 0.5 0.5 0.5 1
-1.01946 1.88738 5.77626 0.5 0.5 0.5 1
2.40471 -3.94468e-06 5.30993 0.5 0.5 0.5 1
1.26098 1.18527 3.04552 0.5 0.5 0.5 1
1.26221 -1.18273 3.04577 0.5 0.5 0.5 1
0.234497 1.73672 3.12466 0.5 0.5 0.5 1
0.251878 -1.70629 3.12784 0.5 0.5 0.5 1
4.34437 -1.78908 5.22364 0.5 0.5 0.5 1
4.34437 1.78907 5.22364 0.5 0.5 0.5 1
3.57415 -1.8549 6.0384 0.5 0.5 0.5 1
3.57414 1.85491 6.0384 0.5 0.5 0.5 1
1.40417 0.000108415 2.73121 1 1 1 1
-2.92373 1.65049 5.33911 0.5 0.5 0.5 1
-2.91634 -1.64547 5.33055 0.5 0.5 0.5 1
-3.5815 1.72434 5.85522 0.5 0.5 0.5 1
-3.58144 -1.72438 5.85428 0.5 0.5 0.5 1
-0.535519 -1.41383 2.68528 1 1 1 1
-0.505183 1.49394 2.66716 1 1 1 1
3.71197 -1.87686 5.42853 0.5 0.5 0.5 1
3.71202 1.87663 5.42853 0.5 0.5 0.5 1
-5.08411 1.46505 5.75521 0.5 0.5 0.5 1
-5.08577 -1.46478 5.75448 0.5 0.5 0.5 1
6.05445 -1.62598 5.58313 0.5 0.5 0.5 1
6.05445 1.62598 5.58313 0.5 0.5 0.5 1
7.46988 1.03702e-07 5.93441 0.5 0.5 0.5 1
6.95022 -0.756266 4.92641 0.5 0.5 0.5 1
6.95022 0.756265 4.92641 0.5 0.5 0.5 1
6.66122 -1.17934 5.45704 0.5 0.5 0.5 1
6.66122 1.17934 5.45704 0.5 0.5 0.5 1
-1.6137 -0.255503 2.08042 1 1 1 1
-1.72512 0.58254 2.21002 1 1 1 1
2.67014 1.10348 4.84587 0.5 0.5 0.5 1
2.67014 -1.10348 4.84586 0.5 0.5 0.5 1
-4.16738 1.64289 5.56623 0.5 0.5 0.5 1
-4.16729 -1.64283 5.56568 0.5 0.5 0.5 1
0.832171 1.51241 2.45483 1 1 1 1
0.836756 -1.5025 2.45544 1 1 1 1
-6.38655 0.00315143 5.97177 0.5 0.5 0.5 1
-5.8733 0.717338 4.8424 0.5 0.5 0.5 1
-5.83112 -0.361119 4.77466 0.5 0.5 0.5 1
-1.02026 -1.88598 5.7762 0.5 0.5 0.5 1
-5.63695 1.07122 5.28388 0.5 0.5 0.5 1
-5.63688 -1.07033 5.28373 0.5 0.5 0.5 1
5.26105 -1.71438 5.22353 0.5 0.5 0.5 1
5.26105 1.71438 5.22353 0.5 0.5 0.5 1
2.59402 -0.304379 4.0474 0.5 0.5 0.5 1
2.59402 0.304377 4.0474 0.5 0.5 0.5 1
0.21524 1.5397 2.15888 1 1 1 1
0.222603 -1.51877 2.16472 1 1 1 1
-1.90119 1.0196 4.50236 0.5 0.5 0.5 1
3.44747 -1.69566 4.7141 0.5 0.5 0.5 1
3.44747 1.69565 4.7141 0.5 0.5 0.5 1
1.12406 0.961506 2.19008 1 1 1 1
1.12555 -0.959689 2.19027 1 1 1 1
-1.98624 0.0792564 3.14275 0.5 0.5 0.5 1
-3.67612 1.52448 4.70801 0.5 0.5 0.5 1
-3.68576 -1.53644 4.71783 0.5 0.5 0.5 1
-0.617803 1.11869 1.92045 1 1 1 1
-0.641266 -1.05059 1.93758 1 1 1 1
6.20177 -1.31386 4.7466 0.5 0.5 0.5 1
6.20177 1.31385 4.7466 0.5 0.5 0.5 1
-4.91307 1.32253 4.80155 0.5 0.5 0.5 1
-4.92372 -1.30425 4.77876 0.5 0.5 0.5 1
-3.23502 1.25304 4.43596 0.5 0.5 0.5 1
-3.23203 -1.25935 4.45473 0.5 0.5 0.5 1
6.39667 -0.674488 4.17977 0.5 0.5 0.5 1
6.39667 0.674488 4.17977 0.5 0.5 0.5 1
5.64261 -1.47559 4.73037 0.5 0.5 0.5 1
5.64261 1.47559 4.73037 0.5 0.5 0.5 1
3.80882 -1.62586 4.45698 0.5 0.5 0.5 1
3.80882 1.62585 4.45699 0.5 0.5 0.5 1
-1.02499 0.428974 1.57166 1 1 1 1
-3.1075 0.3299 4.11553 0.5 0.5 0.5 1
-3.10853 -0.522086 4.11566 0.5 0.5 0.5 1
-5.24504 -0.910136 4.42197 0.5 0.5 0.5 1
-5.18853 0.958716 4.37863 0.5 0.5 0.5 1
0.635492 1.03563 1.70719 1 1 1 1
0.636688 -1.02882 1.70316 1 1 1 1
-4.22268 -1.40172 4.63764 0.5 0.5 0.5 1
-4.21168 1.40405 4.64163 0.5 0.5 0.5 1
4.16183 -1.36408 4.2768 0.5 0.5 0.5 1
4.16183 1.36408 4.2768 0.5 0.5 0.5 1
1.03358 0.000627282 1.91299 1 1 1 1
-0.837088 -0.168168 1.5275 1 1 1 1
-5.14245 0.656154 4.1914 0.5 0.5 0.5 1
-5.04432 -0.50458 4.18365 0.5 0.5 0.5 1

3 0 26 60
3 0 60 26
3 0 29 105
3 0 105 29
3 0 60 105
3 0 105 60
3 1 27 61
3 1 61 27
3 1 29 105
3 1 105 29
3 1 61 105
3 1 105 61
3 2 6 31
3 2 31 6
3 2 9 108
3 2 108 9
3 2 31 35
3 2 35 31
3 2 35 108
3 2 108 35
3 3 24 62
3 3 62 24
3 3 28 92
3 3 92 28
3 3 62 92
3 3 92 62
3 4 25 63
3 4 63 25
3 4 28 92
3 4 92 28
3 4 63 92
3 4 92 63
3 5 7 32
3 5 32 7
3 5 8 69
3 5 69 8
3 5 32 36
3 5 36 32
3 5 36 69
3 5 69 36
3 6 10 64
3 6 64 10
3 6 31 64
3 6 64 31
3 7 11 37
3 7 37 11
3 7 32 37
3 7 37 32
3 8 12 33
3 8 33 12
3 8 33 69
3 8 69 33
3 9 13 34
3 9 34 13
3 9 34 108
3 9 108 34
3 10 14 64
3 10 64 14
3 11 15 37
3 11 37 15
3 12 16 33
3 12 33 16
3 13 17 34
3 13 34 17
3 14 18 77
3 14 77 18
3 14 64 77
3 14 77 64
3 15 19 78
3 15 78 19
3 15 37 78
3 15 78 37
3 16 20 82
3 16 82 20
3 16 33 80
3 16 80 33
3 16 80 82
3 16 82 80
3 17 21 83
3 17 83 21
3 17 34 81
3 17 81 34
3 17 81 83
3 17 83 81
3 18 22 75
3 18 75 22
3 18 75 86
3 18 86 75
3 18 77 86
3 18 86 77
3 19 23 76
3 19 76 23
3 19 76 87
3 19 87 76
3 19 78 87
3 19 87 78
3 20 26 88
3 20 88 26
3 20 82 101
3 20 101 82
3 20 88 101
3 20 101 88
3 21 27 89
3 21 89 27
3 21 83 102
3 21 102 83
3 21 89 102
3 21 102 89
3 22 24 90
3 22 90 24
3 22 75 111
3 22 111 75
3 22 90 111
3 22 111 90
3 23 25 91
3 23 91 25
3 23 76 112
3 23 112 76
3 23 91 112
3 23 112 91
3 24 62 90
3 24 90 62
3 25 63 91
3 25 91 63
3 26 60 88
3 26 88 60
3 27 61 89
3 27 89 61
3 30 34 39
3 30 39 34
3 30 34 55
3 30 55 34
3 30 39 58
3 30 58 39
3 30 41 58
3 30 58 41
3 30 41 122
3 30 122 41
3 30 55 117
3 30 117 55
3 30 117 122
3 30 122 117
3 31 35 44
3 31 44 35
3 31 44 68
3 31 68 44
3 31 64 68
3 31 68 64
3 32 36 43
3 32 43 36
3 32 37 65
3 32 65 37
3 32 43 65
3 32 65 43
3 33 40 69
3 33 69 40
3 33 40 117
3 33 117 40
3 33 55 80
3 33 80 55
3 33 55 117
3 33 117 55
3 34 39 108
3 34 108 39
3 34 55 81
3 34 81 55
3 35 39 51
3 35 51 39
3 35 39 108
3 35 108 39
3 35 44 51
3 35 51 44
3 36 40 50
3 36 50 40
3 36 40 69
3 36 69 40
3 36 43 50
3 36 50 43
3 37 47 65
3 37 65 47
3 37 47 70
3 37 70 47
3 37 70 99
3 37 99 70
3 37 78 99
3 37 99 78
3 38 45 54
3 38 54 45
3 38 45 114
3 38 114 45
3 38 53 54
3 38 54 53
3 38 53 75
3 38 75 53
3 38 53 148
3 38 148 53
3 38 70 100
3 38 100 70
3 38 70 113
3 38 113 70
3 38 75 137
3 38 137 75
3 38 100 118
3 38 118 100
3 38 113 114
3 38 114 113
3 38 118 137
3 38 137 118
3 38 137 148
3 38 148 137
3 39 51 58
3 39 58 51
3 40 50 59
3 40 59 50
3 40 59 117
3 40 117 59
3 41 58 84
3 41 84 58
3 41 84 126
3 41 126 84
3 41 97 122
3 41 122 97
3 41 97 126
3 41 126 97
3 42 59 85
3 42 85 59
3 42 59 117
3 42 117 59
3 42 85 125
3 42 125 85
3 42 98 122
3 42 122 98
3 42 98 125
3 42 125 98
3 42 117 122
3 42 122 117
3 43 48 65
3 43 65 48
3 43 48 66
3 43 66 48
3 43 50 66
3 43 66 50
3 44 49 67
3 44 67 49
3 44 49 68
3 44 68 49
3 44 51 67
3 44 67 51
3 45 54 76
3 45 76 54
3 45 54 149
3 45 149 54
3 45 70 99
3 45 99 70
3 45 70 114
3 45 114 70
3 45 76 138
3 45 138 76
3 45 99 119
3 45 119 99
3 45 119 138
3 45 138 119
3 45 138 149
3 45 149 138
3 46 56 140
3 46 140 56
3 46 56 152
3 46 152 56
3 46 101 123
3 46 123 101
3 46 101 129
3 46 129 101
3 46 123 131
3 46 131 123
3 46 123 147
3 46 147 123
3 46 129 143
3 46 143 129
3 46 129 147
3 46 147 129
3 46 131 140
3 46 140 131
3 46 143 152
3 46 152 143
3 47 48 52
3 47 52 48
3 47 48 65
3 47 65 48
3 47 49 52
3 47 52 49
3 47 49 68
3 47 68 49
3 47 64 68
3 47 68 64
3 47 64 70
3 47 70 64
3 48 52 71
3 48 71 52
3 48 66 71
3 48 71 66
3 49 52 72
3 49 72 52
3 49 67 72
3 49 72 67
3 50 59 73
3 50 73 59
3 50 66 73
3 50 73 66
3 51 58 74
3 51 74 58
3 51 67 74
3 51 74 67
3 52 71 79
3 52 79 71
3 52 72 79
3 52 79 72
3 53 54 134
3 53 134 54
3 53 75 111
3 53 111 75
3 53 75 148
3 53 148 75
3 53 90 111
3 53 111 90
3 53 90 127
3 53 127 90
3 53 93 127
3 53 127 93
3 53 93 133
3 53 133 93
3 53 111 135
3 53 135 111
3 53 127 135
3 53 135 127
3 53 133 134
3 53 134 133
3 54 76 112
3 54 112 76
3 54 76 149
3 54 149 76
3 54 91 112
3 54 112 91
3 54 91 128
3 54 128 91
3 54 94 128
3 54 128 94
3 54 94 134
3 54 134 94
3 54 112 136
3 54 136 112
3 54 128 136
3 54 136 128
3 55 56 132
3 55 132 56
3 55 56 140
3 55 140 56
3 55 80 131
3 55 131 80
3 55 81 132
3 55 132 81
3 55 131 140
3 55 140 131
3 55 132 141
3 55 141 132
3 55 140 141
3 55 141 140
3 56 102 124
3 56 124 102
3 56 102 130
3 56 130 102
3 56 107 142
3 56 142 107
3 56 107 152
3 56 152 107
3 56 124 132
3 56 132 124
3 56 124 146
3 56 146 124
3 56 130 142
3 56 142 130
3 56 130 146
3 56 146 130
3 56 132 141
3 56 141 132
3 56 140 141
3 56 141 140
3 56 142 153
3 56 153 142
3 56 152 153
3 56 153 152
3 57 79 120
3 57 120 79
3 57 79 121
3 57 121 79
3 57 97 126
3 57 126 97
3 57 97 139
3 57 139 97
3 57 103 115
3 57 115 103
3 57 103 120
3 57 120 103
3 57 104 116
3 57 116 104
3 57 104 121
3 57 121 104
3 57 115 125
3 57 125 115
3 57 115 144
3 57 144 115
3 57 116 126
3 57 126 116
3 57 116 145
3 57 145 116
3 57 120 144
3 57 144 120
3 57 120 150
3 57 150 120
3 57 121 145
3 57 145 121
3 57 121 150
3 57 150 121
3 57 125 139
3 57 139 125
3 57 126 151
3 57 151 126
3 57 139 151
3 57 151 139
3 58 74 84
3 58 84 74
3 59 73 85
3 59 85 73
3 60 88 109
3 60 109 88
3 60 105 109
3 60 109 105
3 61 89 110
3 61 110 89
3 61 105 110
3 61 110 105
3 62 90 95
3 62 95 90
3 62 92 95
3 62 95 92
3 63 91 96
3 63 96 91
3 63 92 96
3 63 96 92
3 64 70 100
3 64 100 70
3 64 77 100
3 64 100 77
3 66 71 103
3 66 103 71
3 66 73 103
3 66 103 73
3 67 72 104
3 67 104 72
3 67 74 104
3 67 104 74
3 70 113 114
3 70 114 113
3 71 79 120
3 71 120 79
3 71 103 120
3 71 120 103
3 72 79 121
3 72 121 79
3 72 104 121
3 72 121 104
3 73 85 115
3 73 115 85
3 73 103 115
3 73 115 103
3 74 84 116
3 74 116 84
3 74 104 116
3 74 116 104
3 75 86 137
3 75 137 86
3 75 137 148
3 75 148 137
3 76 87 138
3 76 138 87
3 76 138 149
3 76 149 138
3 77 86 118
3 77 118 86
3 77 100 118
3 77 118 100
3 78 87 119
3 78 119 87
3 78 99 119
3 78 119 99
3 79 120 150
3 79 150 120
3 79 121 150
3 79 150 121
3 80 82 123
3 80 123 82
3 80 123 131
3 80 131 123
3 81 83 124
3 81 124 83
3 81 124 132
3 81 132 124
3 82 101 123
3 82 123 101
3 83 102 124
3 83 124 102
3 84 116 126
3 84 126 116
3 85 115 125
3 85 125 115
3 86 118 137
3 86 137 118
3 87 119 138
3 87 138 119
3 88 101 129
3 88 129 101
3 88 109 129
3 88 129 109
3 89 102 130
3 89 130 102
3 89 110 130
3 89 130 110
3 90 95 127
3 90 127 95
3 90 111 135
3 90 135 111
3 90 127 135
3 90 135 127
3 91 96 128
3 91 128 96
3 91 112 136
3 91 136 112
3 91 128 136
3 91 136 128
3 92 93 94
3 92 94 93
3 92 93 95
3 92 95 93
3 92 94 96
3 92 96 94
3 93 94 134
3 93 134 94
3 93 95 127
3 93 127 95
3 93 133 134
3 93 134 133
3 94 96 128
3 94 128 96
3 97 98 122
3 97 122 98
3 97 98 139
3 97 139 98
3 97 126 151
3 97 151 126
3 97 139 151
3 97 151 139
3 98 125 139
3 98 139 125
3 101 123 147
3 101 147 123
3 101 129 147
3 101 147 129
3 102 124 146
3 102 146 124
3 102 130 146
3 102 146 130
3 103 115 144
3 103 144 115
3 103 120 144
3 103 144 120
3 104 116 145
3 104 145 116
3 104 121 145
3 104 145 121
3 105 106 107
3 105 107 106
3 105 106 109
3 105 109 106
3 105 107 110
3 105 110 107
3 106 107 152
3 106 152 107
3 106 109 143
3 106 143 109
3 106 143 152
3 106 152 143
3 107 110 142
3 107 142 110
3 107 142 153
3 107 153 142
3 107 152 153
3 107 153 152
3 109 129 143
3 109 143 129
3 110 130 142
3 110 142 130
