COFF
163 636 163

-6.62179 1.21333 7.41727 0.5 0.5 0.5 1
-6.62179 -1.21333 7.41727 0.5 0.5 0.5 1
-0.0342959 -2.32675 7.0532 0.5 0.5 0.5 1
7.62049 -1.31143 7.31055 0.5 0.5 0.5 1
7.62049 1.31143 7.31055 0.5 0.5 0.5 1
-0.0342959 2.32675 7.0532 0.5 0.5 0.5 1
1.16318 -2.01192 7.19002 0.5 0.5 0.5 1
1.16318 2.01192 7.19002 0.5 0.5 0.5 1
-1.19377 1.96223 7.19453 0.5 0.5 0.5 1
-1.19377 -1.96223 7.19453 0.5 0.5 0.5 1
2.06234 -1.68514 7.48139 0.5 0.5 0.5 1
2.06234 1.68514 7.48139 0.5 0.5 0.5 1
-2.10123 1.66198 7.48858 0.5 0.5 0.5 1
-2.10123 -1.66198 7.48858 0.5 0.5 0.5 1
3.01706 -1.84176 7.23199 0.5 0.5 0.5 1
3.01706 1.84176 7.23199 0.5 0.5 0.5 1
-3.04883 1.79875 7.20079 0.5 0.5 0.5 1
-3.04883 -1.79875 7.20079 0.5 0.5 0.5 1
3.99208 -2.02371 7.00726 0.5 0.5 0.5 1
3.99208 2.02371 7.00726 0.5 0.5 0.5 1
-4.08423 1.79647 7.12767 0.5 0.5 0.5 1
-4.08423 -1.79648 7.12767 0.5 0.5 0.5 1
5.10491 -2.08527 6.81409 0.5 0.5 0.5 1
5.10491 2.08527 6.81409 0.5 0.5 0.5 1
6.21367 -1.75497 7.12059 0.5 0.5 0.5 1
6.21367 1.75497 7.12059 0.5 0.5 0.5 1
-5.12973 1.59095 7.25949 0.5 0.5 0.5 1
-5.12973 -1.59095 7.25949 0.5 0.5 0.5 1
8.93201 0.000110477 7.32927 0.5 0.5 0.5 1
-7.83519 -7.39178e-09 7.4371 0.5 0.5 0.5 1
-1.95983 -1.02962 4.77409 0.5 0.5 0.5 1
1.15416 -1.92092 5.88484 0.5 0.5 0.5 1
1.15416 1.92092 5.88484 0.5 0.5 0.5 1
-2.17595 1.68675 6.24626 0.5 0.5 0.5 1
-2.17596 -1.68675 6.24627 0.5 0.5 0.5 1
0.0423446 -2.04055 5.59169 0.5 0.5 0.5 1
0.0423602 2.04055 5.59169 0.5 0.5 0.5 1
2.41743 1.59462 5.98994 0.5 0.5 0.5 1
4.01495 -0.619847 3.46312 1 1 0 1
-0.892173 -1.90612 5.09499 0.5 0.5 0.5 1
-0.89217 1.90612 5.09501 0.5 0.5 0.5 1
-1.54854 -0.877423 3.33891 0.5 0.5 0.5 1
-1.54855 0.87742 3.33888 0.5 0.5 0.5 1
1.07772 1.88707 4.74658 0.5 0.5 0.5 1
1.07774 -1.88707 4.74658 0.5 0.5 0.5 1
4.01495 0.619847 3.46312 1 1 0 1
-4.23663 0.660329 3.60169 1 1 0 1
2.15046 -2.98027e-08 5.26115 0.5 0.5 0.5 1
1.47309 1.45721 4.32733 0.5 0.5 0.5 1
1.47307 -1.45722 4.32733 0.5 0.5 0.5 1
0.156322 1.94179 4.45133 0.5 0.5 0.5 1
0.156238 -1.94195 4.45133 0.5 0.5 0.5 1
1.61621 -1.58146e-06 3.85008 0.5 0.5 0.5 1
4.88162 -0.673434 3.81921 1 1 0 1
4.88162 0.673434 3.81921 1 1 0 1
-2.55735 3.14773e-06 5.07946 0.5 0.5 0.5 1
-4.23663 -0.660329 3.60169 1 1 0 1
0.149406 1.15236e-05 1.02806 1 1 0 1
-0.765658 -1.68787 3.96925 0.5 0.5 0.5 1
-0.765659 1.68786 3.96925 0.5 0.5 0.5 1
-5.82186 1.3802 6.60985 0.5 0.5 0.5 1
-5.82186 -1.3802 6.60985 0.5 0.5 0.5 1
6.84735 -1.50942 6.59612 0.5 0.5 0.5 1
6.84735 1.50942 6.59612 0.5 0.5 0.5 1
2.41743 -1.59462 5.98994 0.5 0.5 0.5 1
1.70221 1.75936 5.36588 0.5 0.5 0.5 1
0.957001 1.73622 3.7144 0.5 0.5 0.5 1
0.957032 -1.73635 3.71441 0.5 0.5 0.5 1
1.70222 -1.75936 5.36589 0.5 0.5 0.5 1
-1.02516 1.93887 6.05739 1 1 0 1
2.41737 3.5246e-07 5.57576 0.5 0.5 0.5 1
1.27445 1.23028 3.28898 1 1 1 1
1.27444 -1.23028 3.28899 1 1 1 1
0.216076 1.7848 3.37068 1 1 1 1
0.216024 -1.78481 3.37067 1 1 1 1
4.26068 -1.8954 5.41986 0.5 0.5 0.5 1
4.26068 1.8954 5.41986 0.5 0.5 0.5 1
3.57444 -1.94569 6.33529 0.5 0.5 0.5 1
3.57444 1.9457 6.33529 0.5 0.5 0.5 1
1.41422 -2.16866e-07 2.94682 1 1 1 1
-2.98341 1.75585 5.66843 0.5 0.5 0.5 1
-2.98341 -1.75585 5.66844 0.5 0.5 0.5 1
-3.58505 1.79749 6.14229 0.5 0.5 0.5 1
-3.58505 -1.79748 6.14229 0.5 0.5 0.5 1
-0.586794 -1.48709 2.90456 1 1 1 1
-0.586788 1.48709 2.90458 1 1 1 1
3.71307 -1.97125 5.67058 0.5 0.5 0.5 1
3.71307 1.97126 5.67058 0.5 0.5 0.5 1
-5.11663 1.53168 6.07086 0.5 0.5 0.5 1
-5.11663 -1.53168 6.07086 0.5 0.5 0.5 1
6.11159 -1.71724 5.82974 0.5 0.5 0.5 1
6.11159 1.71724 5.82974 0.5 0.5 0.5 1
7.52181 -1.81722e-07 6.24969 0.5 0.5 0.5 1
7.00391 -0.745639 5.21433 0.5 0.5 0.5 1
7.00391 0.745637 5.21433 0.5 0.5 0.5 1
6.65586 -1.27856 5.74574 0.5 0.5 0.5 1
6.65586 1.27856 5.74574 0.5 0.5 0.5 1
-1.76877 -0.459246 2.46265 1 1 1 1
-1.76877 0.459246 2.46265 1 1 1 1
2.65289 1.11915 5.13346 0.5 0.5 0.5 1
2.65289 -1.11915 5.13346 0.5 0.5 0.5 1
-4.18203 1.7139 5.82374 0.5 0.5 0.5 1
-4.18203 -1.7139 5.82374 0.5 0.5 0.5 1
0.837401 1.55926 2.70954 1 1 1 1
0.837553 -1.55946 2.70954 1 1 1 1
-6.45169 -3.37455e-08 6.28509 0.5 0.5 0.5 1
-5.93913 0.705563 5.16202 0.5 0.5 0.5 1
-5.93913 -0.705562 5.16202 0.5 0.5 0.5 1
-1.02516 -1.93887 6.05739 1 1 0 1
-5.66547 1.12402 5.59787 0.5 0.5 0.5 1
-5.66564 -1.12414 5.59787 0.5 0.5 0.5 1
5.26798 -1.80047 5.41524 0.5 0.5 0.5 1
5.26798 1.80047 5.41524 0.5 0.5 0.5 1
2.70221 -0.324358 4.0598 0.5 0.5 0.5 1
2.70221 0.324358 4.0598 0.5 0.5 0.5 1
0.235884 1.60197 2.39671 1 1 1 1
0.235865 -1.60197 2.39671 1 1 1 1
-1.95984 1.02961 4.77408 0.5 0.5 0.5 1
3.37135 -1.74895 4.89387 0.5 0.5 0.5 1
3.37135 1.74895 4.89387 0.5 0.5 0.5 1
1.13583 1.03026 2.3963 1 1 1 1
1.13583 -1.03027 2.3963 1 1 1 1
-2.01007 -2.77861e-06 3.42498 0.5 0.5 0.5 1
-3.61282 1.65439 4.90787 0.5 0.5 0.5 1
-3.61282 -1.65439 4.90788 0.5 0.5 0.5 1
-0.75956 -1.17983 2.21394 1 1 1 1
-0.759512 1.17986 2.21391 1 1 1 1
6.3351 -1.35345 4.91837 0.5 0.5 0.5 1
6.3351 1.35344 4.91837 0.5 0.5 0.5 1
-4.99402 1.43015 5.07299 0.5 0.5 0.5 1
-4.99401 -1.43015 5.07299 0.5 0.5 0.5 1
-3.26044 1.38453 4.69936 0.5 0.5 0.5 1
-3.26045 -1.38455 4.69945 0.5 0.5 0.5 1
6.74115 -0.676449 4.22942 0.5 0.5 0.5 1
6.74115 0.676448 4.22942 0.5 0.5 0.5 1
5.88095 -1.55258 4.89665 0.5 0.5 0.5 1
5.88095 1.55258 4.89665 0.5 0.5 0.5 1
3.71132 -1.836 4.64402 0.5 0.5 0.5 1
3.71132 1.83601 4.64403 0.5 0.5 0.5 1
-1.39692 -0.354055 1.54409 1 1 1 1
-1.39697 0.354149 1.5441 1 1 1 1
-2.87123 0.325115 4.13594 0.5 0.5 0.5 1
-2.87123 -0.325129 4.13594 0.5 0.5 0.5 1
-5.37263 1.24372 4.80193 0.5 0.5 0.5 1
-5.37263 -1.24372 4.80193 0.5 0.5 0.5 1
0.710839 1.25473 1.85821 1 1 1 1
0.710826 -1.25474 1.85823 1 1 1 1
-4.18103 1.59551 4.87671 0.5 0.5 0.5 1
-4.18104 -1.59551 4.87669 0.5 0.5 0.5 1
4.22899 -1.62502 4.31711 0.5 0.5 0.5 1
4.22899 1.62502 4.31711 0.5 0.5 0.5 1
1.24055 -1.12156e-06 2.11233 1 1 1 1
-2.0823 -2.74075e-06 4.63466 0.5 0.5 0.5 1
-5.4318 0.67806 4.19103 0.5 0.5 0.5 1
-5.4318 -0.678061 4.19103 0.5 0.5 0.5 1
-2.30383 1.03296 5.46893 0.5 0.5 0.5 1
-2.30383 -1.033 5.46894 0.5 0.5 0.5 1
3.15268 -1.07615 4.34918 0.5 0.5 0.5 1
3.15268 1.07615 4.34918 0.5 0.5 0.5 1
0.159508 0.98465 1.65753 1 1 1 1
0.159493 -0.984635 1.65753 1 1 1 1
4.66137 -1.39644 4.6085 0.5 0.5 0.5 1
4.66137 1.39644 4.6085 0.5 0.5 0.5 1

3 0 26 60
3 0 60 26
3 0 29 105
3 0 105 29
3 0 60 105
3 0 105 60
3 1 27 61
3 1 61 27
3 1 29 105
3 1 105 29
3 1 61 105
3 1 105 61
3 2 6 31
3 2 31 6
3 2 9 108
3 2 108 9
3 2 31 35
3 2 35 31
3 2 35 108
3 2 108 35
3 3 24 62
3 3 62 24
3 3 28 92
3 3 92 28
3 3 62 92
3 3 92 62
3 4 25 63
3 4 63 25
3 4 28 92
3 4 92 28
3 4 63 92
3 4 92 63
3 5 7 32
3 5 32 7
3 5 8 69
3 5 69 8
3 5 32 36
3 5 36 32
3 5 36 69
3 5 69 36
3 6 10 64
3 6 64 10
3 6 31 64
3 6 64 31
3 7 11 37
3 7 37 11
3 7 32 37
3 7 37 32
3 8 12 33
3 8 33 12
3 8 33 69
3 8 69 33
3 9 13 34
3 9 34 13
3 9 34 108
3 9 108 34
3 10 14 64
3 10 64 14
3 11 15 37
3 11 37 15
3 12 16 33
3 12 33 16
3 13 17 34
3 13 34 17
3 14 18 77
3 14 77 18
3 14 64 77
3 14 77 64
3 15 19 78
3 15 78 19
3 15 37 78
3 15 78 37
3 16 20 82
3 16 82 20
3 16 33 80
3 16 80 33
3 16 80 82
3 16 82 80
3 17 21 83
3 17 83 21
3 17 34 81
3 17 81 34
3 17 81 83
3 17 83 81
3 18 22 75
3 18 75 22
3 18 75 86
3 18 86 75
3 18 77 86
3 18 86 77
3 19 23 76
3 19 76 23
3 19 76 87
3 19 87 76
3 19 78 87
3 19 87 78
3 20 26 88
3 20 88 26
3 20 82 101
3 20 101 82
3 20 88 101
3 20 101 88
3 21 27 89
3 21 89 27
3 21 83 102
3 21 102 83
3 21 89 102
3 21 102 89
3 22 24 90
3 22 90 24
3 22 75 111
3 22 111 75
3 22 90 111
3 22 111 90
3 23 25 91
3 23 91 25
3 23 76 112
3 23 112 76
3 23 91 112
3 23 112 91
3 24 62 90
3 24 90 62
3 25 63 91
3 25 91 63
3 26 60 88
3 26 88 60
3 27 61 89
3 27 89 61
3 30 34 39
3 30 39 34
3 30 34 81
3 30 81 34
3 30 34 156
3 30 156 34
3 30 39 58
3 30 58 39
3 30 41 58
3 30 58 41
3 30 41 122
3 30 122 41
3 30 55 81
3 30 81 55
3 30 55 117
3 30 117 55
3 30 55 152
3 30 152 55
3 30 55 156
3 30 156 55
3 30 117 122
3 30 122 117
3 30 122 152
3 30 152 122
3 31 35 44
3 31 44 35
3 31 44 68
3 31 68 44
3 31 64 68
3 31 68 64
3 32 36 43
3 32 43 36
3 32 37 65
3 32 65 37
3 32 43 65
3 32 65 43
3 33 40 69
3 33 69 40
3 33 40 117
3 33 117 40
3 33 55 80
3 33 80 55
3 33 55 117
3 33 117 55
3 33 80 155
3 33 155 80
3 33 117 155
3 33 155 117
3 34 39 108
3 34 108 39
3 34 81 156
3 34 156 81
3 35 39 51
3 35 51 39
3 35 39 108
3 35 108 39
3 35 44 51
3 35 51 44
3 36 40 50
3 36 50 40
3 36 40 69
3 36 69 40
3 36 43 50
3 36 50 43
3 37 47 65
3 37 65 47
3 37 47 70
3 37 70 47
3 37 70 99
3 37 99 70
3 37 78 99
3 37 99 78
3 38 45 54
3 38 54 45
3 38 45 114
3 38 114 45
3 38 53 54
3 38 54 53
3 38 53 149
3 38 149 53
3 38 113 114
3 38 114 113
3 38 113 157
3 38 157 113
3 38 118 137
3 38 137 118
3 38 118 157
3 38 157 118
3 38 137 149
3 38 149 137
3 39 51 58
3 39 58 51
3 40 50 59
3 40 59 50
3 40 59 117
3 40 117 59
3 41 58 84
3 41 84 58
3 41 84 125
3 41 125 84
3 41 97 122
3 41 122 97
3 41 97 125
3 41 125 97
3 42 59 85
3 42 85 59
3 42 59 117
3 42 117 59
3 42 85 126
3 42 126 85
3 42 98 122
3 42 122 98
3 42 98 126
3 42 126 98
3 42 117 122
3 42 122 117
3 43 48 65
3 43 65 48
3 43 48 66
3 43 66 48
3 43 50 66
3 43 66 50
3 44 49 67
3 44 67 49
3 44 49 68
3 44 68 49
3 44 51 67
3 44 67 51
3 45 54 150
3 45 150 54
3 45 114 158
3 45 158 114
3 45 119 138
3 45 138 119
3 45 119 158
3 45 158 119
3 45 138 150
3 45 150 138
3 46 55 131
3 46 131 55
3 46 55 141
3 46 141 55
3 46 56 142
3 46 142 56
3 46 56 154
3 46 154 56
3 46 101 123
3 46 123 101
3 46 101 129
3 46 129 101
3 46 106 143
3 46 143 106
3 46 106 153
3 46 153 106
3 46 123 131
3 46 131 123
3 46 123 147
3 46 147 123
3 46 129 143
3 46 143 129
3 46 129 147
3 46 147 129
3 46 141 142
3 46 142 141
3 46 153 154
3 46 154 153
3 47 48 52
3 47 52 48
3 47 48 65
3 47 65 48
3 47 49 52
3 47 52 49
3 47 49 68
3 47 68 49
3 47 64 68
3 47 68 64
3 47 64 70
3 47 70 64
3 48 52 71
3 48 71 52
3 48 66 71
3 48 71 66
3 49 52 72
3 49 72 52
3 49 67 72
3 49 72 67
3 50 59 73
3 50 73 59
3 50 66 73
3 50 73 66
3 51 58 74
3 51 74 58
3 51 67 74
3 51 74 67
3 52 71 79
3 52 79 71
3 52 72 79
3 52 79 72
3 53 54 134
3 53 134 54
3 53 75 111
3 53 111 75
3 53 75 149
3 53 149 75
3 53 90 111
3 53 111 90
3 53 90 127
3 53 127 90
3 53 93 127
3 53 127 93
3 53 93 133
3 53 133 93
3 53 111 135
3 53 135 111
3 53 111 161
3 53 161 111
3 53 127 135
3 53 135 127
3 53 133 134
3 53 134 133
3 53 149 161
3 53 161 149
3 54 76 112
3 54 112 76
3 54 76 150
3 54 150 76
3 54 91 112
3 54 112 91
3 54 91 128
3 54 128 91
3 54 94 128
3 54 128 94
3 54 94 134
3 54 134 94
3 54 112 136
3 54 136 112
3 54 112 162
3 54 162 112
3 54 128 136
3 54 136 128
3 54 150 162
3 54 162 150
3 55 56 132
3 55 132 56
3 55 56 142
3 55 142 56
3 55 80 131
3 55 131 80
3 55 80 155
3 55 155 80
3 55 81 132
3 55 132 81
3 55 81 156
3 55 156 81
3 55 117 152
3 55 152 117
3 55 117 155
3 55 155 117
3 55 141 142
3 55 142 141
3 56 102 124
3 56 124 102
3 56 102 130
3 56 130 102
3 56 107 144
3 56 144 107
3 56 107 154
3 56 154 107
3 56 124 132
3 56 132 124
3 56 124 148
3 56 148 124
3 56 130 144
3 56 144 130
3 56 130 148
3 56 148 130
3 57 79 120
3 57 120 79
3 57 79 121
3 57 121 79
3 57 97 125
3 57 125 97
3 57 97 139
3 57 139 97
3 57 98 126
3 57 126 98
3 57 98 140
3 57 140 98
3 57 115 126
3 57 126 115
3 57 115 145
3 57 145 115
3 57 116 125
3 57 125 116
3 57 116 146
3 57 146 116
3 57 120 145
3 57 145 120
3 57 120 151
3 57 151 120
3 57 121 146
3 57 146 121
3 57 121 151
3 57 151 121
3 57 125 160
3 57 160 125
3 57 126 159
3 57 159 126
3 57 139 140
3 57 140 139
3 57 145 159
3 57 159 145
3 57 146 160
3 57 160 146
3 58 74 84
3 58 84 74
3 59 73 85
3 59 85 73
3 60 88 109
3 60 109 88
3 60 105 109
3 60 109 105
3 61 89 110
3 61 110 89
3 61 105 110
3 61 110 105
3 62 90 95
3 62 95 90
3 62 92 95
3 62 95 92
3 63 91 96
3 63 96 91
3 63 92 96
3 63 96 92
3 64 70 100
3 64 100 70
3 64 77 100
3 64 100 77
3 66 71 103
3 66 103 71
3 66 73 103
3 66 103 73
3 67 72 104
3 67 104 72
3 67 74 104
3 67 104 74
3 70 99 158
3 70 158 99
3 70 100 157
3 70 157 100
3 70 113 114
3 70 114 113
3 70 113 157
3 70 157 113
3 70 114 158
3 70 158 114
3 71 79 120
3 71 120 79
3 71 103 120
3 71 120 103
3 72 79 121
3 72 121 79
3 72 104 121
3 72 121 104
3 73 85 115
3 73 115 85
3 73 103 115
3 73 115 103
3 74 84 116
3 74 116 84
3 74 104 116
3 74 116 104
3 75 86 137
3 75 137 86
3 75 111 161
3 75 161 111
3 75 137 149
3 75 149 137
3 75 149 161
3 75 161 149
3 76 87 138
3 76 138 87
3 76 112 162
3 76 162 112
3 76 138 150
3 76 150 138
3 76 150 162
3 76 162 150
3 77 86 118
3 77 118 86
3 77 100 118
3 77 118 100
3 78 87 119
3 78 119 87
3 78 99 119
3 78 119 99
3 79 120 151
3 79 151 120
3 79 121 151
3 79 151 121
3 80 82 123
3 80 123 82
3 80 123 131
3 80 131 123
3 81 83 124
3 81 124 83
3 81 124 132
3 81 132 124
3 82 101 123
3 82 123 101
3 83 102 124
3 83 124 102
3 84 116 125
3 84 125 116
3 85 115 126
3 85 126 115
3 86 118 137
3 86 137 118
3 87 119 138
3 87 138 119
3 88 101 129
3 88 129 101
3 88 109 129
3 88 129 109
3 89 102 130
3 89 130 102
3 89 110 130
3 89 130 110
3 90 95 127
3 90 127 95
3 90 111 135
3 90 135 111
3 90 127 135
3 90 135 127
3 91 96 128
3 91 128 96
3 91 112 136
3 91 136 112
3 91 128 136
3 91 136 128
3 92 93 94
3 92 94 93
3 92 93 95
3 92 95 93
3 92 94 96
3 92 96 94
3 93 94 134
3 93 134 94
3 93 95 127
3 93 127 95
3 93 133 134
3 93 134 133
3 94 96 128
3 94 128 96
3 97 98 122
3 97 122 98
3 97 98 140
3 97 140 98
3 97 139 140
3 97 140 139
3 99 119 158
3 99 158 119
3 100 118 157
3 100 157 118
3 101 123 147
3 101 147 123
3 101 129 147
3 101 147 129
3 102 124 148
3 102 148 124
3 102 130 148
3 102 148 130
3 103 115 145
3 103 145 115
3 103 120 145
3 103 145 120
3 104 116 146
3 104 146 116
3 104 121 146
3 104 146 121
3 105 106 107
3 105 107 106
3 105 106 109
3 105 109 106
3 105 107 110
3 105 110 107
3 106 107 154
3 106 154 107
3 106 109 143
3 106 143 109
3 106 153 154
3 106 154 153
3 107 110 144
3 107 144 110
3 109 129 143
3 109 143 129
3 110 130 144
3 110 144 130
3 115 126 159
3 115 159 126
3 115 145 159
3 115 159 145
3 116 125 160
3 116 160 125
3 116 146 160
3 116 160 146
3 117 122 152
3 117 152 122
