COFF
162 640 162

-6.62165 1.21308 7.41756 0.5 0.5 0.5 1
-6.62165 -1.21308 7.41756 0.5 0.5 0.5 1
-0.0342892 -2.32677 7.05318 0.5 0.5 0.5 1
7.62049 -1.31143 7.31055 0.5 0.5 0.5 1
7.62049 1.31143 7.31055 0.5 0.5 0.5 1
-0.034297 2.32665 7.0533 0.5 0.5 0.5 1
1.16318 -2.01193 7.19002 0.5 0.5 0.5 1
1.16317 2.0119 7.19005 0.5 0.5 0.5 1
-1.19373 1.96212 7.19464 0.5 0.5 0.5 1
-1.19374 -1.96264 7.1941 0.5 0.5 0.5 1
2.06234 -1.68514 7.48139 0.5 0.5 0.5 1
2.06234 1.68513 7.4814 0.5 0.5 0.5 1
-2.10118 1.66187 7.48871 0.5 0.5 0.5 1
-2.10124 -1.66249 7.48809 0.5 0.5 0.5 1
3.01706 -1.84176 7.23199 0.5 0.5 0.5 1
3.01706 1.84176 7.23199 0.5 0.5 0.5 1
-3.0489 1.79833 7.20121 0.5 0.5 0.5 1
-3.04904 -1.79874 7.20076 0.5 0.5 0.5 1
3.99208 -2.02371 7.00726 0.5 0.5 0.5 1
3.99208 2.02371 7.00726 0.5 0.5 0.5 1
-4.0842 1.79627 7.12787 0.5 0.5 0.5 1
-4.08421 -1.79621 7.12793 0.5 0.5 0.5 1
5.10491 -2.08527 6.81409 0.5 0.5 0.5 1
5.10491 2.08527 6.81409 0.5 0.5 0.5 1
6.21367 -1.75497 7.12059 0.5 0.5 0.5 1
6.21367 1.75497 7.12059 0.5 0.5 0.5 1
-5.12971 1.59086 7.25958 0.5 0.5 0.5 1
-5.12971 -1.59084 7.25961 0.5 0.5 0.5 1
8.93201 0.000110477 7.32927 0.5 0.5 0.5 1
-7.83473 5.65135e-06 7.43742 0.5 0.5 0.5 1
-1.91818 -0.552951 4.6149 0.5 0.5 0.5 1
1.15416 -1.92091 5.88485 0.5 0.5 0.5 1
1.15414 1.92089 5.88491 0.5 0.5 0.5 1
-2.17271 1.67824 6.2518 0.5 0.5 0.5 1
-2.17301 -1.65957 6.25077 0.5 0.5 0.5 1
0.0467989 -2.04128 5.59167 0.5 0.5 0.5 1
0.0435414 2.04074 5.59198 0.5 0.5 0.5 1
2.41742 1.59461 5.98997 0.5 0.5 0.5 1
4.01495 -0.619848 3.46312 1 1 0 1
-0.891711 -1.88389 5.09015 0.5 0.5 0.5 1
-0.88914 1.90746 5.09711 0.5 0.5 0.5 1
-1.53834 -0.729617 3.2591 0.5 0.5 0.5 1
-1.53723 0.956357 3.31285 0.5 0.5 0.5 1
1.07781 1.88701 4.74664 0.5 0.5 0.5 1
1.07779 -1.88671 4.74667 0.5 0.5 0.5 1
4.01495 0.619847 3.46312 1 1 0 1
-4.23832 0.696853 3.60169 1 1 0 1
2.1504 -6.34368e-06 5.2612 0.5 0.5 0.5 1
1.47319 1.45696 4.32751 0.5 0.5 0.5 1
1.47316 -1.45686 4.32751 0.5 0.5 0.5 1
0.158118 1.94233 4.45222 0.5 0.5 0.5 1
0.158086 -1.93529 4.45554 0.5 0.5 0.5 1
1.61605 8.78253e-05 3.85051 0.5 0.5 0.5 1
4.88162 -0.673434 3.81921 1 1 0 1
4.88162 0.673434 3.81921 1 1 0 1
-2.54604 0.0241594 5.14379 0.5 0.5 0.5 1
-4.22418 -0.622437 3.60169 1 1 0 1
0.154938 0.0128388 1.02806 1 1 0 1
-0.73307 -1.58073 4.04672 0.5 0.5 0.5 1
-0.736932 1.68797 3.97459 0.5 0.5 0.5 1
-5.81656 1.38216 6.60402 0.5 0.5 0.5 1
-5.81656 -1.38178 6.60442 0.5 0.5 0.5 1
6.84735 -1.50942 6.59612 0.5 0.5 0.5 1
6.84735 1.50942 6.59612 0.5 0.5 0.5 1
2.41743 -1.59461 5.98996 0.5 0.5 0.5 1
1.70227 1.7593 5.36608 0.5 0.5 0.5 1
0.957621 1.73628 3.71475 0.5 0.5 0.5 1
0.95837 -1.7339 3.71507 0.5 0.5 0.5 1
1.70225 -1.75932 5.36605 0.5 0.5 0.5 1
-1.02405 1.93909 6.06232 1 1 0 1
2.41738 -1.95855e-05 5.57579 0.5 0.5 0.5 1
1.27515 1.22899 3.2894 1 1 1 1
1.27701 -1.2238 3.28912 1 1 1 1
0.223967 1.78448 3.37123 1 1 1 1
0.250435 -1.75246 3.37725 1 1 1 1
4.26068 -1.8954 5.41986 0.5 0.5 0.5 1
4.26068 1.8954 5.41986 0.5 0.5 0.5 1
3.57444 -1.94569 6.33529 0.5 0.5 0.5 1
3.57444 1.9457 6.33528 0.5 0.5 0.5 1
1.41522 0.000184882 2.94856 1 1 1 1
-2.94458 1.71348 5.64878 0.5 0.5 0.5 1
-2.93153 -1.69593 5.64191 0.5 0.5 0.5 1
-3.5851 1.79716 6.14198 0.5 0.5 0.5 1
-3.58504 -1.79729 6.14123 0.5 0.5 0.5 1
-0.579607 -1.39417 2.90778 1 1 1 1
-0.550714 1.51795 2.87422 1 1 1 1
3.71307 -1.97125 5.67057 0.5 0.5 0.5 1
3.71307 1.97125 5.67057 0.5 0.5 0.5 1
-5.12528 1.5291 6.04522 0.5 0.5 0.5 1
-5.12671 -1.52904 6.04389 0.5 0.5 0.5 1
6.11159 -1.71724 5.82974 0.5 0.5 0.5 1
6.11159 1.71724 5.82974 0.5 0.5 0.5 1
7.52181 -1.78029e-07 6.24969 0.5 0.5 0.5 1
7.00391 -0.745639 5.21433 0.5 0.5 0.5 1
7.00391 0.745637 5.21433 0.5 0.5 0.5 1
6.65586 -1.27856 5.74574 0.5 0.5 0.5 1
6.65586 1.27856 5.74574 0.5 0.5 0.5 1
-1.70443 -0.206728 2.28984 1 1 1 1
-1.77084 0.613814 2.52513 1 1 1 1
2.6529 1.11914 5.13352 0.5 0.5 0.5 1
2.65291 -1.11916 5.13348 0.5 0.5 0.5 1
-4.188 1.71248 5.82195 0.5 0.5 0.5 1
-4.18833 -1.71252 5.82094 0.5 0.5 0.5 1
0.839799 1.559 2.70789 1 1 1 1
0.848308 -1.54558 2.70959 1 1 1 1
-6.44892 0.00842996 6.2831 0.5 0.5 0.5 1
-5.90458 0.766178 5.14452 0.5 0.5 0.5 1
-5.94607 -0.231214 5.08241 0.5 0.5 0.5 1
-1.02814 -1.93852 6.07914 1 1 0 1
-5.65895 1.13206 5.59336 0.5 0.5 0.5 1
-5.65826 -1.1288 5.59254 0.5 0.5 0.5 1
5.26798 -1.80047 5.41524 0.5 0.5 0.5 1
5.26798 1.80047 5.41524 0.5 0.5 0.5 1
2.7022 -0.324363 4.05979 0.5 0.5 0.5 1
2.70221 0.324353 4.05979 0.5 0.5 0.5 1
0.236395 1.60947 2.39349 1 1 1 1
0.244995 -1.55921 2.40449 1 1 1 1
-1.93267 1.02805 4.77551 0.5 0.5 0.5 1
3.37135 -1.74896 4.89386 0.5 0.5 0.5 1
3.37133 1.74895 4.89387 0.5 0.5 0.5 1
1.13678 1.02995 2.39736 1 1 1 1
1.1411 -1.02437 2.39516 1 1 1 1
-2.03636 0.109858 3.44381 0.5 0.5 0.5 1
-3.60522 1.64928 4.91126 0.5 0.5 0.5 1
-3.62017 -1.66171 4.92932 0.5 0.5 0.5 1
-0.727245 1.20033 2.11942 1 1 1 1
-0.763856 -1.03781 2.13535 1 1 1 1
6.3351 -1.35345 4.91837 0.5 0.5 0.5 1
6.3351 1.35344 4.91837 0.5 0.5 0.5 1
-4.98704 1.43011 5.0642 0.5 0.5 0.5 1
-5.01569 -1.41562 5.02336 0.5 0.5 0.5 1
-3.21435 1.33208 4.64323 0.5 0.5 0.5 1
-3.22372 -1.35188 4.68579 0.5 0.5 0.5 1
6.74115 -0.676449 4.22942 0.5 0.5 0.5 1
6.74115 0.676448 4.22942 0.5 0.5 0.5 1
5.88095 -1.55258 4.89665 0.5 0.5 0.5 1
5.88093 1.55258 4.89665 0.5 0.5 0.5 1
3.71133 -1.83601 4.64402 0.5 0.5 0.5 1
3.7113 1.83602 4.64402 0.5 0.5 0.5 1
-1.22623 0.517578 1.72455 1 1 1 1
-2.99842 0.28585 4.26696 0.5 0.5 0.5 1
-3.00936 -0.678994 4.26709 0.5 0.5 0.5 1
-5.45106 -0.951325 4.63222 0.5 0.5 0.5 1
-5.37574 1.06924 4.53179 0.5 0.5 0.5 1
0.714786 1.25797 1.86205 1 1 1 1
0.718381 -1.24335 1.85456 1 1 1 1
-4.20469 -1.59013 4.87315 0.5 0.5 0.5 1
-4.18058 1.59417 4.88589 0.5 0.5 0.5 1
4.22899 -1.62502 4.31711 0.5 0.5 0.5 1
4.22893 1.62502 4.31711 0.5 0.5 0.5 1
1.24512 9.04218e-05 2.11744 1 1 1 1
-1.1092 -0.164551 1.64802 1 1 1 1
-5.38473 0.605807 4.19568 0.5 0.5 0.5 1
-5.38629 -0.564048 4.24668 0.5 0.5 0.5 1
3.15269 -1.07615 4.3492 0.5 0.5 0.5 1
3.15269 1.07614 4.34921 0.5 0.5 0.5 1
0.162326 0.986911 1.656 1 1 1 1
-2.29991 0.923278 5.58053 0.5 0.5 0.5 1
0.165964 -0.93806 1.6684 1 1 1 1
-2.29684 -0.890522 5.59795 0.5 0.5 0.5 1
4.66137 -1.39645 4.6085 0.5 0.5 0.5 1
4.66111 1.39641 4.60848 0.5 0.5 0.5 1

3 0 26 60
3 0 60 26
3 0 29 105
3 0 105 29
3 0 60 105
3 0 105 60
3 1 27 61
3 1 61 27
3 1 29 105
3 1 105 29
3 1 61 105
3 1 105 61
3 2 6 31
3 2 31 6
3 2 9 108
3 2 108 9
3 2 31 35
3 2 35 31
3 2 35 108
3 2 108 35
3 3 24 62
3 3 62 24
3 3 28 92
3 3 92 28
3 3 62 92
3 3 92 62
3 4 25 63
3 4 63 25
3 4 28 92
3 4 92 28
3 4 63 92
3 4 92 63
3 5 7 32
3 5 32 7
3 5 8 69
3 5 69 8
3 5 32 36
3 5 36 32
3 5 36 69
3 5 69 36
3 6 10 64
3 6 64 10
3 6 31 64
3 6 64 31
3 7 11 37
3 7 37 11
3 7 32 37
3 7 37 32
3 8 12 33
3 8 33 12
3 8 33 69
3 8 69 33
3 9 13 34
3 9 34 13
3 9 34 108
3 9 108 34
3 10 14 64
3 10 64 14
3 11 15 37
3 11 37 15
3 12 16 33
3 12 33 16
3 13 17 34
3 13 34 17
3 14 18 77
3 14 77 18
3 14 64 77
3 14 77 64
3 15 19 78
3 15 78 19
3 15 37 78
3 15 78 37
3 16 20 82
3 16 82 20
3 16 33 80
3 16 80 33
3 16 80 82
3 16 82 80
3 17 21 83
3 17 83 21
3 17 34 81
3 17 81 34
3 17 81 83
3 17 83 81
3 18 22 75
3 18 75 22
3 18 75 86
3 18 86 75
3 18 77 86
3 18 86 77
3 19 23 76
3 19 76 23
3 19 76 87
3 19 87 76
3 19 78 87
3 19 87 78
3 20 26 88
3 20 88 26
3 20 82 101
3 20 101 82
3 20 88 101
3 20 101 88
3 21 27 89
3 21 89 27
3 21 83 102
3 21 102 83
3 21 89 102
3 21 102 89
3 22 24 90
3 22 90 24
3 22 75 111
3 22 111 75
3 22 90 111
3 22 111 90
3 23 25 91
3 23 91 25
3 23 76 112
3 23 112 76
3 23 91 112
3 23 112 91
3 24 62 90
3 24 90 62
3 25 63 91
3 25 91 63
3 26 60 88
3 26 88 60
3 27 61 89
3 27 89 61
3 30 34 39
3 30 39 34
3 30 34 81
3 30 81 34
3 30 34 159
3 30 159 34
3 30 39 58
3 30 58 39
3 30 41 58
3 30 58 41
3 30 41 122
3 30 122 41
3 30 55 81
3 30 81 55
3 30 55 117
3 30 117 55
3 30 55 159
3 30 159 55
3 30 117 122
3 30 122 117
3 31 35 44
3 31 44 35
3 31 44 68
3 31 68 44
3 31 64 68
3 31 68 64
3 32 36 43
3 32 43 36
3 32 37 65
3 32 65 37
3 32 43 65
3 32 65 43
3 33 40 69
3 33 69 40
3 33 40 117
3 33 117 40
3 33 55 80
3 33 80 55
3 33 55 117
3 33 117 55
3 33 80 157
3 33 157 80
3 33 117 157
3 33 157 117
3 34 39 108
3 34 108 39
3 34 81 159
3 34 159 81
3 35 39 51
3 35 51 39
3 35 39 108
3 35 108 39
3 35 44 51
3 35 51 44
3 36 40 50
3 36 50 40
3 36 40 69
3 36 69 40
3 36 43 50
3 36 50 43
3 37 47 65
3 37 65 47
3 37 47 70
3 37 70 47
3 37 70 99
3 37 99 70
3 37 78 99
3 37 99 78
3 38 45 54
3 38 54 45
3 38 45 114
3 38 114 45
3 38 53 54
3 38 54 53
3 38 53 148
3 38 148 53
3 38 113 114
3 38 114 113
3 38 113 154
3 38 154 113
3 38 118 137
3 38 137 118
3 38 118 154
3 38 154 118
3 38 137 148
3 38 148 137
3 39 51 58
3 39 58 51
3 40 50 59
3 40 59 50
3 40 59 117
3 40 117 59
3 41 58 84
3 41 84 58
3 41 84 126
3 41 126 84
3 41 97 122
3 41 122 97
3 41 97 126
3 41 126 97
3 42 59 85
3 42 85 59
3 42 59 117
3 42 117 59
3 42 85 125
3 42 125 85
3 42 98 122
3 42 122 98
3 42 98 125
3 42 125 98
3 42 117 122
3 42 122 117
3 43 48 65
3 43 65 48
3 43 48 66
3 43 66 48
3 43 50 66
3 43 66 50
3 44 49 67
3 44 67 49
3 44 49 68
3 44 68 49
3 44 51 67
3 44 67 51
3 45 54 149
3 45 149 54
3 45 114 155
3 45 155 114
3 45 119 138
3 45 138 119
3 45 119 155
3 45 155 119
3 45 138 149
3 45 149 138
3 46 56 140
3 46 140 56
3 46 56 152
3 46 152 56
3 46 101 123
3 46 123 101
3 46 101 129
3 46 129 101
3 46 123 131
3 46 131 123
3 46 123 147
3 46 147 123
3 46 129 143
3 46 143 129
3 46 129 147
3 46 147 129
3 46 131 140
3 46 140 131
3 46 143 152
3 46 152 143
3 47 48 52
3 47 52 48
3 47 48 65
3 47 65 48
3 47 49 52
3 47 52 49
3 47 49 68
3 47 68 49
3 47 64 68
3 47 68 64
3 47 64 70
3 47 70 64
3 48 52 71
3 48 71 52
3 48 66 71
3 48 71 66
3 49 52 72
3 49 72 52
3 49 67 72
3 49 72 67
3 50 59 73
3 50 73 59
3 50 66 73
3 50 73 66
3 51 58 74
3 51 74 58
3 51 67 74
3 51 74 67
3 52 71 79
3 52 79 71
3 52 72 79
3 52 79 72
3 53 54 134
3 53 134 54
3 53 75 111
3 53 111 75
3 53 75 148
3 53 148 75
3 53 90 111
3 53 111 90
3 53 90 127
3 53 127 90
3 53 93 127
3 53 127 93
3 53 93 133
3 53 133 93
3 53 111 135
3 53 135 111
3 53 111 160
3 53 160 111
3 53 127 135
3 53 135 127
3 53 133 134
3 53 134 133
3 53 148 160
3 53 160 148
3 54 76 112
3 54 112 76
3 54 76 149
3 54 149 76
3 54 91 112
3 54 112 91
3 54 91 128
3 54 128 91
3 54 94 128
3 54 128 94
3 54 94 134
3 54 134 94
3 54 112 136
3 54 136 112
3 54 112 161
3 54 161 112
3 54 128 136
3 54 136 128
3 54 149 161
3 54 161 149
3 55 56 132
3 55 132 56
3 55 56 140
3 55 140 56
3 55 80 131
3 55 131 80
3 55 80 157
3 55 157 80
3 55 81 132
3 55 132 81
3 55 81 159
3 55 159 81
3 55 117 157
3 55 157 117
3 55 131 140
3 55 140 131
3 55 132 141
3 55 141 132
3 55 140 141
3 55 141 140
3 56 102 124
3 56 124 102
3 56 102 130
3 56 130 102
3 56 107 142
3 56 142 107
3 56 107 152
3 56 152 107
3 56 124 132
3 56 132 124
3 56 124 146
3 56 146 124
3 56 130 142
3 56 142 130
3 56 130 146
3 56 146 130
3 56 132 141
3 56 141 132
3 56 140 141
3 56 141 140
3 56 142 153
3 56 153 142
3 56 152 153
3 56 153 152
3 57 79 120
3 57 120 79
3 57 79 121
3 57 121 79
3 57 97 126
3 57 126 97
3 57 97 139
3 57 139 97
3 57 115 125
3 57 125 115
3 57 115 144
3 57 144 115
3 57 116 126
3 57 126 116
3 57 116 145
3 57 145 116
3 57 120 144
3 57 144 120
3 57 120 150
3 57 150 120
3 57 121 145
3 57 145 121
3 57 121 150
3 57 150 121
3 57 125 139
3 57 139 125
3 57 125 156
3 57 156 125
3 57 126 151
3 57 151 126
3 57 126 158
3 57 158 126
3 57 139 151
3 57 151 139
3 57 144 156
3 57 156 144
3 57 145 158
3 57 158 145
3 58 74 84
3 58 84 74
3 59 73 85
3 59 85 73
3 60 88 109
3 60 109 88
3 60 105 109
3 60 109 105
3 61 89 110
3 61 110 89
3 61 105 110
3 61 110 105
3 62 90 95
3 62 95 90
3 62 92 95
3 62 95 92
3 63 91 96
3 63 96 91
3 63 92 96
3 63 96 92
3 64 70 100
3 64 100 70
3 64 77 100
3 64 100 77
3 66 71 103
3 66 103 71
3 66 73 103
3 66 103 73
3 67 72 104
3 67 104 72
3 67 74 104
3 67 104 74
3 70 99 155
3 70 155 99
3 70 100 154
3 70 154 100
3 70 113 114
3 70 114 113
3 70 113 154
3 70 154 113
3 70 114 155
3 70 155 114
3 71 79 120
3 71 120 79
3 71 103 120
3 71 120 103
3 72 79 121
3 72 121 79
3 72 104 121
3 72 121 104
3 73 85 115
3 73 115 85
3 73 103 115
3 73 115 103
3 74 84 116
3 74 116 84
3 74 104 116
3 74 116 104
3 75 86 137
3 75 137 86
3 75 111 160
3 75 160 111
3 75 137 148
3 75 148 137
3 75 148 160
3 75 160 148
3 76 87 138
3 76 138 87
3 76 112 161
3 76 161 112
3 76 138 149
3 76 149 138
3 76 149 161
3 76 161 149
3 77 86 118
3 77 118 86
3 77 100 118
3 77 118 100
3 78 87 119
3 78 119 87
3 78 99 119
3 78 119 99
3 79 120 150
3 79 150 120
3 79 121 150
3 79 150 121
3 80 82 123
3 80 123 82
3 80 123 131
3 80 131 123
3 81 83 124
3 81 124 83
3 81 124 132
3 81 132 124
3 82 101 123
3 82 123 101
3 83 102 124
3 83 124 102
3 84 116 126
3 84 126 116
3 85 115 125
3 85 125 115
3 86 118 137
3 86 137 118
3 87 119 138
3 87 138 119
3 88 101 129
3 88 129 101
3 88 109 129
3 88 129 109
3 89 102 130
3 89 130 102
3 89 110 130
3 89 130 110
3 90 95 127
3 90 127 95
3 90 111 135
3 90 135 111
3 90 127 135
3 90 135 127
3 91 96 128
3 91 128 96
3 91 112 136
3 91 136 112
3 91 128 136
3 91 136 128
3 92 93 94
3 92 94 93
3 92 93 95
3 92 95 93
3 92 94 96
3 92 96 94
3 93 94 134
3 93 134 94
3 93 95 127
3 93 127 95
3 93 133 134
3 93 134 133
3 94 96 128
3 94 128 96
3 97 98 122
3 97 122 98
3 97 98 139
3 97 139 98
3 97 126 151
3 97 151 126
3 97 139 151
3 97 151 139
3 98 125 139
3 98 139 125
3 99 119 155
3 99 155 119
3 100 118 154
3 100 154 118
3 101 123 147
3 101 147 123
3 101 129 147
3 101 147 129
3 102 124 146
3 102 146 124
3 102 130 146
3 102 146 130
3 103 115 144
3 103 144 115
3 103 120 144
3 103 144 120
3 104 116 145
3 104 145 116
3 104 121 145
3 104 145 121
3 105 106 107
3 105 107 106
3 105 106 109
3 105 109 106
3 105 107 110
3 105 110 107
3 106 107 152
3 106 152 107
3 106 109 143
3 106 143 109
3 106 143 152
3 106 152 143
3 107 110 142
3 107 142 110
3 107 142 153
3 107 153 142
3 107 152 153
3 107 153 152
3 109 129 143
3 109 143 129
3 110 130 142
3 110 142 130
3 115 125 156
3 115 156 125
3 115 144 156
3 115 156 144
3 116 126 158
3 116 158 126
3 116 145 158
3 116 158 145
