COFF
179 704 179

-6.64805 1.25939 7.76342 0.5 0.5 0.5 1
-6.64805 -1.25939 7.76342 0.5 0.5 0.5 1
-0.0358272 -2.40173 7.37039 0.5 0.5 0.5 1
7.65167 -1.36247 7.64703 0.5 0.5 0.5 1
7.65167 1.36247 7.64703 0.5 0.5 0.5 1
-0.0358272 2.40173 7.37039 0.5 0.5 0.5 1
1.17377 -2.07168 7.52181 0.5 0.5 0.5 1
1.17377 2.07168 7.52181 0.5 0.5 0.5 1
-1.21657 2.0407 7.50674 0.5 0.5 0.5 1
-1.21657 -2.0407 7.50674 0.5 0.5 0.5 1
2.06714 -1.73965 7.82492 0.5 0.5 0.5 1
2.06714 1.73965 7.82492 0.5 0.5 0.5 1
-2.10657 1.7188 7.83025 0.5 0.5 0.5 1
-2.10657 -1.7188 7.83025 0.5 0.5 0.5 1
3.01176 -1.91377 7.54992 0.5 0.5 0.5 1
3.01176 1.91377 7.54992 0.5 0.5 0.5 1
-3.04609 1.8684 7.5232 0.5 0.5 0.5 1
-3.04609 -1.8684 7.5232 0.5 0.5 0.5 1
3.98032 -2.11666 7.29938 0.5 0.5 0.5 1
3.98032 2.11666 7.29938 0.5 0.5 0.5 1
-4.09131 1.86671 7.44798 0.5 0.5 0.5 1
-4.09131 -1.86671 7.44798 0.5 0.5 0.5 1
5.11674 -2.18195 7.09944 0.5 0.5 0.5 1
5.11674 2.18195 7.09944 0.5 0.5 0.5 1
6.23539 -1.82382 7.43874 0.5 0.5 0.5 1
6.23539 1.82382 7.43874 0.5 0.5 0.5 1
-5.14281 1.64785 7.59586 0.5 0.5 0.5 1
-5.14281 -1.64785 7.59586 0.5 0.5 0.5 1
9.01507 -1.65232e-08 7.6727 0.5 0.5 0.5 1
-7.9081 -1.92951e-08 7.78809 0.5 0.5 0.5 1
-1.99283 -1.11446 5.03391 0.5 0.5 0.5 1
1.1647 -1.97726 6.19252 0.5 0.5 0.5 1
1.1647 1.97726 6.19252 0.5 0.5 0.5 1
-2.13265 1.79159 6.52779 0.5 0.5 0.5 1
-2.13265 -1.79159 6.52779 0.5 0.5 0.5 1
-0.030059 -2.07486 5.86871 0.5 0.5 0.5 1
-0.0300472 2.07486 5.86872 0.5 0.5 0.5 1
2.42712 1.64411 6.28344 0.5 0.5 0.5 1
4.01713 -0.619832 3.46312 1 1 0 1
-0.906083 -1.95925 5.33935 0.5 0.5 0.5 1
-0.905935 1.95917 5.33935 0.5 0.5 0.5 1
-1.59625 -0.885611 3.58701 0.5 0.5 0.5 1
-1.59634 0.885737 3.58704 0.5 0.5 0.5 1
1.07692 1.93406 5.04781 0.5 0.5 0.5 1
1.07694 -1.9341 5.04782 0.5 0.5 0.5 1
4.01713 0.619832 3.46312 1 1 0 1
-4.24029 0.660071 3.60169 1 1 0 1
2.1995 8.8763e-07 5.48079 0.5 0.5 0.5 1
1.49684 1.49909 4.60338 0.5 0.5 0.5 1
1.49684 -1.49909 4.60338 0.5 0.5 0.5 1
0.0944402 1.98523 4.71933 0.5 0.5 0.5 1
0.0944173 -1.98524 4.71932 0.5 0.5 0.5 1
1.6401 -9.42996e-07 4.10704 0.5 0.5 0.5 1
4.88329 -0.673497 3.81921 1 1 0 1
4.88329 0.673497 3.81921 1 1 0 1
-2.56806 -1.15677e-06 5.34282 0.5 0.5 0.5 1
-4.24029 -0.660071 3.60169 1 1 0 1
0.123425 0.000666074 1.02806 1 1 0 1
-0.792455 -1.7481 4.2292 0.5 0.5 0.5 1
-0.792434 1.74809 4.22919 0.5 0.5 0.5 1
-5.83569 1.42908 6.93794 0.5 0.5 0.5 1
-5.83569 -1.42908 6.93794 0.5 0.5 0.5 1
6.84811 -1.58064 6.88864 0.5 0.5 0.5 1
6.84811 1.58064 6.88864 0.5 0.5 0.5 1
2.42712 -1.64411 6.28344 0.5 0.5 0.5 1
1.71968 1.81033 5.64991 0.5 0.5 0.5 1
0.949222 1.77971 3.98715 0.5 0.5 0.5 1
0.949218 -1.77979 3.98715 0.5 0.5 0.5 1
1.71968 -1.81033 5.6499 0.5 0.5 0.5 1
-1.00442 1.9487 6.05739 1 1 0 1
2.42705 1.66388e-06 5.82483 0.5 0.5 0.5 1
1.28388 1.26653 3.5358 1 1 1 1
1.28385 -1.26653 3.5358 1 1 1 1
0.164403 1.8332 3.61942 1 1 1 1
0.164445 -1.83327 3.61941 1 1 1 1
4.22975 -2.00571 5.62849 0.5 0.5 0.5 1
4.22975 2.00571 5.6285 0.5 0.5 0.5 1
3.57234 -2.03116 6.62931 0.5 0.5 0.5 1
3.57248 2.03088 6.62931 0.5 0.5 0.5 1
1.42909 1.29508e-05 3.16782 1 1 1 1
-2.98763 1.84248 5.99722 0.5 0.5 0.5 1
-2.98763 -1.84248 5.99722 0.5 0.5 0.5 1
-3.58733 1.8675 6.43071 0.5 0.5 0.5 1
-3.58733 -1.86749 6.43071 0.5 0.5 0.5 1
-0.65335 -1.51369 3.13554 1 1 1 1
-0.653339 1.51371 3.13556 1 1 1 1
3.70984 -2.05991 5.93632 0.5 0.5 0.5 1
3.70988 2.05961 5.93632 0.5 0.5 0.5 1
-5.14699 1.59151 6.38005 0.5 0.5 0.5 1
-5.14699 -1.59151 6.38004 0.5 0.5 0.5 1
6.14704 -1.80919 6.0959 0.5 0.5 0.5 1
6.14704 1.80919 6.0959 0.5 0.5 0.5 1
7.5599 -6.93304e-08 6.56601 0.5 0.5 0.5 1
7.04041 -0.750065 5.50237 0.5 0.5 0.5 1
7.04041 0.750064 5.50237 0.5 0.5 0.5 1
6.66246 -1.36696 6.04251 0.5 0.5 0.5 1
6.66246 1.36696 6.04251 0.5 0.5 0.5 1
-1.78585 -0.392308 2.70053 1 1 1 1
-1.81106 0.463184 2.71865 1 1 1 1
2.65411 1.15004 5.45686 0.5 0.5 0.5 1
2.65411 -1.15004 5.45686 0.5 0.5 0.5 1
-4.19597 1.78032 6.08298 0.5 0.5 0.5 1
-4.19597 -1.78031 6.08298 0.5 0.5 0.5 1
0.824646 1.60029 2.96085 1 1 1 1
0.824766 -1.60027 2.96085 1 1 1 1
-6.49609 7.07132e-08 6.60455 0.5 0.5 0.5 1
-5.9787 0.722691 5.46746 0.5 0.5 0.5 1
-5.9787 -0.72269 5.46746 0.5 0.5 0.5 1
-1.00443 -1.9487 6.05739 1 1 0 1
-5.68858 1.17079 5.88875 0.5 0.5 0.5 1
-5.68859 -1.17077 5.88875 0.5 0.5 0.5 1
5.14569 -1.92744 5.62828 0.5 0.5 0.5 1
5.1457 1.92744 5.62828 0.5 0.5 0.5 1
2.75176 -0.419864 4.11286 0.5 0.5 0.5 1
2.75176 0.419865 4.11286 0.5 0.5 0.5 1
0.195501 1.64251 2.62343 1 1 1 1
0.195496 -1.64248 2.62346 1 1 1 1
-1.99284 1.11444 5.03391 0.5 0.5 0.5 1
3.32629 -1.76907 5.08004 0.5 0.5 0.5 1
3.32628 1.76907 5.08004 0.5 0.5 0.5 1
1.13838 1.07289 2.62409 1 1 1 1
1.13834 -1.07293 2.62404 1 1 1 1
-2.04597 5.98397e-06 3.66478 0.5 0.5 0.5 1
-3.58583 1.77769 5.17052 0.5 0.5 0.5 1
-3.58583 -1.7777 5.17053 0.5 0.5 0.5 1
-0.837554 -1.18621 2.43483 1 1 1 1
-0.824912 1.19982 2.4318 1 1 1 1
6.44765 -1.39332 5.12887 0.5 0.5 0.5 1
6.44765 1.39332 5.12887 0.5 0.5 0.5 1
-5.05623 1.48021 5.31886 0.5 0.5 0.5 1
-5.05624 -1.4802 5.31887 0.5 0.5 0.5 1
-3.25353 1.47704 4.88931 0.5 0.5 0.5 1
-3.2539 -1.47681 4.8894 0.5 0.5 0.5 1
6.92673 -0.686082 4.31247 0.5 0.5 0.5 1
6.92673 0.686081 4.31247 0.5 0.5 0.5 1
6.04202 -1.60134 5.05572 0.5 0.5 0.5 1
6.04202 1.60134 5.05572 0.5 0.5 0.5 1
3.63414 -1.8871 4.8004 0.5 0.5 0.5 1
3.63414 1.8871 4.8004 0.5 0.5 0.5 1
-1.48833 -0.263348 1.62939 1 1 1 1
-1.50609 0.393847 1.63568 1 1 1 1
-2.83088 0.32536 4.24655 0.5 0.5 0.5 1
-2.83089 -0.325376 4.24655 0.5 0.5 0.5 1
-5.42222 1.21817 5.03542 0.5 0.5 0.5 1
-5.42222 -1.21817 5.03542 0.5 0.5 0.5 1
0.726724 1.38469 2.05765 1 1 1 1
0.726562 -1.38448 2.05758 1 1 1 1
-4.16146 1.69498 5.10969 0.5 0.5 0.5 1
-4.16147 -1.69498 5.10967 0.5 0.5 0.5 1
4.22998 -1.81271 4.42402 0.5 0.5 0.5 1
4.23003 1.81278 4.42402 0.5 0.5 0.5 1
1.25047 5.81925e-05 2.28845 1 1 1 1
-2.11921 -4.12216e-06 4.87552 0.5 0.5 0.5 1
-5.73865 0.68027 4.24233 0.5 0.5 0.5 1
-5.73865 -0.680268 4.24233 0.5 0.5 0.5 1
-2.29804 1.23708 5.57114 0.5 0.5 0.5 1
-2.29804 -1.23712 5.57116 0.5 0.5 0.5 1
2.92743 -1.17545 4.62169 0.5 0.5 0.5 1
2.92743 1.17545 4.62169 0.5 0.5 0.5 1
0.105981 1.31734 1.79077 1 1 1 1
0.0993664 -1.30864 1.7897 1 1 1 1
4.78883 -1.63801 4.73824 0.5 0.5 0.5 1
4.78883 1.63801 4.73824 0.5 0.5 0.5 1
5.21639 -1.56494 4.76139 0.5 0.5 0.5 1
5.21639 1.56494 4.7614 0.5 0.5 0.5 1
0.936262 0.67126 1.82991 1 1 1 1
0.935931 -0.671316 1.82985 1 1 1 1
5.8548 -1.22162 4.54034 1 1 1 1
5.8548 1.22162 4.54034 1 1 1 1
3.46963 -1.31007 4.24496 1 1 1 1
3.46963 1.31008 4.24496 1 1 1 1
5.99985 -0.669408 4.04147 1 1 1 1
5.99985 0.669408 4.04147 1 1 1 1
-0.377706 -0.729386 1.71046 1 1 1 1
-0.351991 0.724724 1.70941 1 1 1 1
-4.70329 1.14975 4.47087 0.5 0.5 0.5 1
-4.7033 -1.14974 4.47088 0.5 0.5 0.5 1
-3.86772 1.25505 4.38095 0.5 0.5 0.5 1
-3.86772 -1.25505 4.38096 0.5 0.5 0.5 1

3 0 26 60
3 0 60 26
3 0 29 105
3 0 105 29
3 0 60 105
3 0 105 60
3 1 27 61
3 1 61 27
3 1 29 105
3 1 105 29
3 1 61 105
3 1 105 61
3 2 6 31
3 2 31 6
3 2 9 108
3 2 108 9
3 2 31 35
3 2 35 31
3 2 35 108
3 2 108 35
3 3 24 62
3 3 62 24
3 3 28 92
3 3 92 28
3 3 62 92
3 3 92 62
3 4 25 63
3 4 63 25
3 4 28 92
3 4 92 28
3 4 63 92
3 4 92 63
3 5 7 32
3 5 32 7
3 5 8 69
3 5 69 8
3 5 32 36
3 5 36 32
3 5 36 69
3 5 69 36
3 6 10 64
3 6 64 10
3 6 31 64
3 6 64 31
3 7 11 37
3 7 37 11
3 7 32 37
3 7 37 32
3 8 12 33
3 8 33 12
3 8 33 69
3 8 69 33
3 9 13 34
3 9 34 13
3 9 34 108
3 9 108 34
3 10 14 64
3 10 64 14
3 11 15 37
3 11 37 15
3 12 16 33
3 12 33 16
3 13 17 34
3 13 34 17
3 14 18 77
3 14 77 18
3 14 64 77
3 14 77 64
3 15 19 78
3 15 78 19
3 15 37 78
3 15 78 37
3 16 20 82
3 16 82 20
3 16 33 80
3 16 80 33
3 16 80 82
3 16 82 80
3 17 21 83
3 17 83 21
3 17 34 81
3 17 81 34
3 17 81 83
3 17 83 81
3 18 22 75
3 18 75 22
3 18 75 86
3 18 86 75
3 18 77 86
3 18 86 77
3 19 23 76
3 19 76 23
3 19 76 87
3 19 87 76
3 19 78 87
3 19 87 78
3 20 26 88
3 20 88 26
3 20 82 101
3 20 101 82
3 20 88 101
3 20 101 88
3 21 27 89
3 21 89 27
3 21 83 102
3 21 102 83
3 21 89 102
3 21 102 89
3 22 24 90
3 22 90 24
3 22 75 111
3 22 111 75
3 22 90 111
3 22 111 90
3 23 25 91
3 23 91 25
3 23 76 112
3 23 112 76
3 23 91 112
3 23 112 91
3 24 62 90
3 24 90 62
3 25 63 91
3 25 91 63
3 26 60 88
3 26 88 60
3 27 61 89
3 27 89 61
3 30 34 39
3 30 39 34
3 30 34 81
3 30 81 34
3 30 34 156
3 30 156 34
3 30 39 58
3 30 58 39
3 30 41 58
3 30 58 41
3 30 41 122
3 30 122 41
3 30 55 81
3 30 81 55
3 30 55 117
3 30 117 55
3 30 55 152
3 30 152 55
3 30 55 156
3 30 156 55
3 30 117 122
3 30 122 117
3 30 122 152
3 30 152 122
3 31 35 44
3 31 44 35
3 31 44 68
3 31 68 44
3 31 64 68
3 31 68 64
3 32 36 43
3 32 43 36
3 32 37 65
3 32 65 37
3 32 43 65
3 32 65 43
3 33 40 69
3 33 69 40
3 33 40 117
3 33 117 40
3 33 55 80
3 33 80 55
3 33 55 117
3 33 117 55
3 33 80 155
3 33 155 80
3 33 117 155
3 33 155 117
3 34 39 108
3 34 108 39
3 34 81 156
3 34 156 81
3 35 39 51
3 35 51 39
3 35 39 108
3 35 108 39
3 35 44 51
3 35 51 44
3 36 40 50
3 36 50 40
3 36 40 69
3 36 69 40
3 36 43 50
3 36 50 43
3 37 47 65
3 37 65 47
3 37 47 70
3 37 70 47
3 37 70 99
3 37 99 70
3 37 78 99
3 37 99 78
3 38 45 54
3 38 54 45
3 38 45 114
3 38 114 45
3 38 53 54
3 38 54 53
3 38 53 149
3 38 149 53
3 38 113 114
3 38 114 113
3 38 113 157
3 38 157 113
3 38 118 137
3 38 137 118
3 38 118 157
3 38 157 118
3 38 137 149
3 38 149 137
3 38 137 169
3 38 169 137
3 38 157 169
3 38 169 157
3 39 51 58
3 39 58 51
3 40 50 59
3 40 59 50
3 40 59 117
3 40 117 59
3 41 58 84
3 41 84 58
3 41 84 125
3 41 125 84
3 41 97 122
3 41 122 97
3 41 97 125
3 41 125 97
3 42 59 85
3 42 85 59
3 42 59 117
3 42 117 59
3 42 85 126
3 42 126 85
3 42 98 122
3 42 122 98
3 42 98 126
3 42 126 98
3 42 117 122
3 42 122 117
3 43 48 65
3 43 65 48
3 43 48 66
3 43 66 48
3 43 50 66
3 43 66 50
3 44 49 67
3 44 67 49
3 44 49 68
3 44 68 49
3 44 51 67
3 44 67 51
3 45 54 150
3 45 150 54
3 45 114 158
3 45 158 114
3 45 119 138
3 45 138 119
3 45 119 158
3 45 158 119
3 45 138 150
3 45 150 138
3 45 138 170
3 45 170 138
3 45 158 170
3 45 170 158
3 46 55 131
3 46 131 55
3 46 55 141
3 46 141 55
3 46 56 142
3 46 142 56
3 46 56 154
3 46 154 56
3 46 106 143
3 46 143 106
3 46 106 153
3 46 153 106
3 46 123 131
3 46 131 123
3 46 123 147
3 46 147 123
3 46 129 143
3 46 143 129
3 46 129 147
3 46 147 129
3 46 131 177
3 46 177 131
3 46 141 142
3 46 142 141
3 46 143 175
3 46 175 143
3 46 147 175
3 46 175 147
3 46 147 177
3 46 177 147
3 46 153 154
3 46 154 153
3 47 48 52
3 47 52 48
3 47 48 65
3 47 65 48
3 47 49 52
3 47 52 49
3 47 49 68
3 47 68 49
3 47 64 68
3 47 68 64
3 47 64 70
3 47 70 64
3 48 52 71
3 48 71 52
3 48 66 71
3 48 71 66
3 49 52 72
3 49 72 52
3 49 67 72
3 49 72 67
3 50 59 73
3 50 73 59
3 50 66 73
3 50 73 66
3 51 58 74
3 51 74 58
3 51 67 74
3 51 74 67
3 52 71 79
3 52 79 71
3 52 72 79
3 52 79 72
3 53 54 172
3 53 172 54
3 53 111 135
3 53 135 111
3 53 111 161
3 53 161 111
3 53 133 167
3 53 167 133
3 53 133 171
3 53 171 133
3 53 135 163
3 53 163 135
3 53 135 167
3 53 167 135
3 53 149 161
3 53 161 149
3 53 161 163
3 53 163 161
3 53 171 172
3 53 172 171
3 54 112 136
3 54 136 112
3 54 112 162
3 54 162 112
3 54 134 168
3 54 168 134
3 54 134 172
3 54 172 134
3 54 136 164
3 54 164 136
3 54 136 168
3 54 168 136
3 54 150 162
3 54 162 150
3 54 162 164
3 54 164 162
3 55 56 132
3 55 132 56
3 55 56 142
3 55 142 56
3 55 80 131
3 55 131 80
3 55 80 155
3 55 155 80
3 55 81 132
3 55 132 81
3 55 81 156
3 55 156 81
3 55 117 152
3 55 152 117
3 55 117 155
3 55 155 117
3 55 141 142
3 55 142 141
3 56 107 144
3 56 144 107
3 56 107 154
3 56 154 107
3 56 124 132
3 56 132 124
3 56 124 148
3 56 148 124
3 56 130 144
3 56 144 130
3 56 130 148
3 56 148 130
3 56 132 178
3 56 178 132
3 56 144 176
3 56 176 144
3 56 148 176
3 56 176 148
3 56 148 178
3 56 178 148
3 57 120 145
3 57 145 120
3 57 120 151
3 57 151 120
3 57 121 146
3 57 146 121
3 57 121 151
3 57 151 121
3 57 139 140
3 57 140 139
3 57 139 173
3 57 173 139
3 57 140 174
3 57 174 140
3 57 145 159
3 57 159 145
3 57 145 165
3 57 165 145
3 57 146 160
3 57 160 146
3 57 146 166
3 57 166 146
3 57 151 165
3 57 165 151
3 57 151 166
3 57 166 151
3 57 159 174
3 57 174 159
3 57 160 173
3 57 173 160
3 58 74 84
3 58 84 74
3 59 73 85
3 59 85 73
3 60 88 109
3 60 109 88
3 60 105 109
3 60 109 105
3 61 89 110
3 61 110 89
3 61 105 110
3 61 110 105
3 62 90 95
3 62 95 90
3 62 92 95
3 62 95 92
3 63 91 96
3 63 96 91
3 63 92 96
3 63 96 92
3 64 70 100
3 64 100 70
3 64 77 100
3 64 100 77
3 66 71 103
3 66 103 71
3 66 73 103
3 66 103 73
3 67 72 104
3 67 104 72
3 67 74 104
3 67 104 74
3 70 99 158
3 70 158 99
3 70 100 157
3 70 157 100
3 70 113 114
3 70 114 113
3 70 113 157
3 70 157 113
3 70 114 158
3 70 158 114
3 71 79 120
3 71 120 79
3 71 103 120
3 71 120 103
3 72 79 121
3 72 121 79
3 72 104 121
3 72 121 104
3 73 85 115
3 73 115 85
3 73 103 115
3 73 115 103
3 74 84 116
3 74 116 84
3 74 104 116
3 74 116 104
3 75 86 137
3 75 137 86
3 75 111 161
3 75 161 111
3 75 137 149
3 75 149 137
3 75 149 161
3 75 161 149
3 76 87 138
3 76 138 87
3 76 112 162
3 76 162 112
3 76 138 150
3 76 150 138
3 76 150 162
3 76 162 150
3 77 86 118
3 77 118 86
3 77 100 118
3 77 118 100
3 78 87 119
3 78 119 87
3 78 99 119
3 78 119 99
3 79 120 151
3 79 151 120
3 79 121 151
3 79 151 121
3 80 82 123
3 80 123 82
3 80 123 131
3 80 131 123
3 81 83 124
3 81 124 83
3 81 124 132
3 81 132 124
3 82 101 123
3 82 123 101
3 83 102 124
3 83 124 102
3 84 116 125
3 84 125 116
3 85 115 126
3 85 126 115
3 86 118 137
3 86 137 118
3 87 119 138
3 87 138 119
3 88 101 129
3 88 129 101
3 88 109 129
3 88 129 109
3 89 102 130
3 89 130 102
3 89 110 130
3 89 130 110
3 90 95 127
3 90 127 95
3 90 111 135
3 90 135 111
3 90 127 135
3 90 135 127
3 91 96 128
3 91 128 96
3 91 112 136
3 91 136 112
3 91 128 136
3 91 136 128
3 92 93 94
3 92 94 93
3 92 93 95
3 92 95 93
3 92 94 96
3 92 96 94
3 93 94 134
3 93 134 94
3 93 95 127
3 93 127 95
3 93 127 167
3 93 167 127
3 93 133 134
3 93 134 133
3 93 133 167
3 93 167 133
3 94 96 128
3 94 128 96
3 94 128 168
3 94 168 128
3 94 134 168
3 94 168 134
3 97 98 122
3 97 122 98
3 97 98 140
3 97 140 98
3 97 125 173
3 97 173 125
3 97 139 140
3 97 140 139
3 97 139 173
3 97 173 139
3 98 126 174
3 98 174 126
3 98 140 174
3 98 174 140
3 99 119 158
3 99 158 119
3 100 118 157
3 100 157 118
3 101 123 147
3 101 147 123
3 101 129 147
3 101 147 129
3 102 124 148
3 102 148 124
3 102 130 148
3 102 148 130
3 103 115 145
3 103 145 115
3 103 120 145
3 103 145 120
3 104 116 146
3 104 146 116
3 104 121 146
3 104 146 121
3 105 106 107
3 105 107 106
3 105 106 109
3 105 109 106
3 105 107 110
3 105 110 107
3 106 107 154
3 106 154 107
3 106 109 143
3 106 143 109
3 106 153 154
3 106 154 153
3 107 110 144
3 107 144 110
3 109 129 143
3 109 143 129
3 110 130 144
3 110 144 130
3 111 135 163
3 111 163 135
3 111 161 163
3 111 163 161
3 112 136 164
3 112 164 136
3 112 162 164
3 112 164 162
3 115 126 159
3 115 159 126
3 115 145 159
3 115 159 145
3 116 125 160
3 116 160 125
3 116 146 160
3 116 160 146
3 117 122 152
3 117 152 122
3 118 137 169
3 118 169 137
3 118 157 169
3 118 169 157
3 119 138 170
3 119 170 138
3 119 158 170
3 119 170 158
3 120 145 165
3 120 165 145
3 120 151 165
3 120 165 151
3 121 146 166
3 121 166 146
3 121 151 166
3 121 166 151
3 123 131 177
3 123 177 131
3 123 147 177
3 123 177 147
3 124 132 178
3 124 178 132
3 124 148 178
3 124 178 148
3 125 160 173
3 125 173 160
3 126 159 174
3 126 174 159
3 127 135 167
3 127 167 135
3 128 136 168
3 128 168 136
3 129 143 175
3 129 175 143
3 129 147 175
3 129 175 147
3 130 144 176
3 130 176 144
3 130 148 176
3 130 176 148
3 133 134 172
3 133 172 134
3 133 171 172
3 133 172 171
