COFF
175 700 175

-6.64757 1.25853 7.76442 0.5 0.5 0.5 1
-6.64759 -1.25857 7.76437 0.5 0.5 0.5 1
-0.0358128 -2.39938 7.37277 0.5 0.5 0.5 1
7.65167 -1.36247 7.64703 0.5 0.5 0.5 1
7.65167 1.36247 7.64703 0.5 0.5 0.5 1
-0.0358325 2.40099 7.37115 0.5 0.5 0.5 1
1.17358 -2.07129 7.52223 0.5 0.5 0.5 1
1.17369 2.07152 7.52198 0.5 0.5 0.5 1
-1.21622 2.03966 7.50785 0.5 0.5 0.5 1
-1.21524 -2.0381 7.50953 0.5 0.5 0.5 1
2.06717 -1.73954 7.82503 0.5 0.5 0.5 1
2.06715 1.73959 7.82498 0.5 0.5 0.5 1
-2.10647 1.71807 7.831 0.5 0.5 0.5 1
-2.10668 -1.71809 7.83097 0.5 0.5 0.5 1
3.01175 -1.91373 7.54996 0.5 0.5 0.5 1
3.01175 1.91374 7.54995 0.5 0.5 0.5 1
-3.04623 1.86717 7.52445 0.5 0.5 0.5 1
-3.04641 -1.86724 7.52434 0.5 0.5 0.5 1
3.98032 -2.11665 7.29939 0.5 0.5 0.5 1
3.98032 2.11665 7.29939 0.5 0.5 0.5 1
-4.0912 1.86593 7.44878 0.5 0.5 0.5 1
-4.09122 -1.86575 7.44896 0.5 0.5 0.5 1
5.11674 -2.18195 7.09944 0.5 0.5 0.5 1
5.11674 2.18195 7.09944 0.5 0.5 0.5 1
6.23539 -1.82382 7.43874 0.5 0.5 0.5 1
6.23539 1.82382 7.43874 0.5 0.5 0.5 1
-5.14271 1.6474 7.59633 0.5 0.5 0.5 1
-5.14271 -1.64743 7.59631 0.5 0.5 0.5 1
9.01507 1.14079e-08 7.6727 0.5 0.5 0.5 1
-7.90655 1.74475e-06 7.78916 0.5 0.5 0.5 1
-1.96223 -0.634692 4.8956 0.5 0.5 0.5 1
1.16444 -1.97676 6.19338 0.5 0.5 0.5 1
1.16458 1.97707 6.19292 0.5 0.5 0.5 1
-2.13031 1.78353 6.5333 0.5 0.5 0.5 1
-2.13181 -1.7617 6.52825 0.5 0.5 0.5 1
-0.0237269 -2.07386 5.87164 0.5 0.5 0.5 1
-0.0282688 2.07453 5.87 0.5 0.5 0.5 1
2.42708 1.64409 6.28357 0.5 0.5 0.5 1
4.01713 -0.619833 3.46312 1 1 0 1
-0.897059 -1.94382 5.35653 0.5 0.5 0.5 1
-0.903856 1.95748 5.34458 0.5 0.5 0.5 1
-1.56633 -0.706204 3.48595 0.5 0.5 0.5 1
-1.56043 0.984344 3.59066 0.5 0.5 0.5 1
1.07721 1.93373 5.04821 0.5 0.5 0.5 1
1.07807 -1.9334 5.04821 0.5 0.5 0.5 1
4.01712 0.619831 3.46312 1 1 0 1
-4.24184 0.711548 3.60169 1 1 0 1
2.19936 2.44369e-05 5.48093 0.5 0.5 0.5 1
1.49695 1.49865 4.60388 0.5 0.5 0.5 1
1.49731 -1.49836 4.60391 0.5 0.5 0.5 1
0.0974415 1.98455 4.72141 0.5 0.5 0.5 1
0.103467 -1.97948 4.72603 0.5 0.5 0.5 1
1.63993 0.000162489 4.10786 0.5 0.5 0.5 1
4.88329 -0.6735 3.81921 1 1 0 1
4.88329 0.673495 3.81921 1 1 0 1
-2.56253 0.0124587 5.37602 0.5 0.5 0.5 1
-4.23544 -0.607746 3.60169 1 1 0 1
0.130361 0.0253608 1.02806 1 1 0 1
-0.754794 -1.63512 4.29438 0.5 0.5 0.5 1
-0.783673 1.74257 4.25001 0.5 0.5 0.5 1
-5.82821 1.43211 6.92647 0.5 0.5 0.5 1
-5.82805 -1.43166 6.92655 0.5 0.5 0.5 1
6.84811 -1.58064 6.88864 0.5 0.5 0.5 1
6.84811 1.58064 6.88864 0.5 0.5 0.5 1
2.42705 -1.64409 6.28363 0.5 0.5 0.5 1
1.71969 1.81018 5.65044 0.5 0.5 0.5 1
0.950346 1.77933 3.98813 0.5 0.5 0.5 1
0.95303 -1.7773 3.98866 0.5 0.5 0.5 1
1.71992 -1.81008 5.65095 0.5 0.5 0.5 1
-1.00379 1.94862 6.06232 1 1 0 1
2.42715 0.000112241 5.8249 0.5 0.5 0.5 1
1.28457 1.26562 3.53665 1 1 1 1
1.28774 -1.25899 3.53572 1 1 1 1
0.174147 1.83128 3.62079 1 1 1 1
0.202215 -1.79773 3.62911 1 1 1 1
4.22974 -2.00571 5.6285 0.5 0.5 0.5 1
4.22975 2.0057 5.62848 0.5 0.5 0.5 1
3.57231 -2.03118 6.62928 0.5 0.5 0.5 1
3.57244 2.03097 6.6293 0.5 0.5 0.5 1
1.43038 0.000152514 3.17013 1 1 1 1
-2.98543 1.839 5.97083 0.5 0.5 0.5 1
-2.98394 -1.83163 5.97198 0.5 0.5 0.5 1
-3.58745 1.86653 6.43107 0.5 0.5 0.5 1
-3.58747 -1.86644 6.43132 0.5 0.5 0.5 1
-0.630347 -1.40587 3.13953 1 1 1 1
-0.598587 1.54349 3.0945 1 1 1 1
3.7098 -2.05987 5.93631 0.5 0.5 0.5 1
3.70999 2.05984 5.93632 0.5 0.5 0.5 1
-5.15682 1.59228 6.34674 0.5 0.5 0.5 1
-5.1582 -1.59252 6.3452 0.5 0.5 0.5 1
6.14704 -1.80919 6.0959 0.5 0.5 0.5 1
6.14704 1.80919 6.0959 0.5 0.5 0.5 1
7.5599 2.61217e-07 6.56601 0.5 0.5 0.5 1
7.04041 -0.750065 5.50237 0.5 0.5 0.5 1
7.04041 0.750072 5.50237 0.5 0.5 0.5 1
6.66246 -1.36696 6.04251 0.5 0.5 0.5 1
6.66246 1.36696 6.04251 0.5 0.5 0.5 1
-1.76576 -0.167612 2.51079 1 1 1 1
-1.78784 0.633101 2.81211 1 1 1 1
2.65411 1.15012 5.45691 0.5 0.5 0.5 1
2.65415 -1.14993 5.45691 0.5 0.5 0.5 1
-4.20506 1.77892 6.08183 0.5 0.5 0.5 1
-4.20624 -1.77878 6.08032 0.5 0.5 0.5 1
0.827765 1.59932 2.96064 1 1 1 1
0.838174 -1.58474 2.9599 1 1 1 1
-6.4905 0.0119094 6.60184 0.5 0.5 0.5 1
-5.92182 0.816102 5.41821 0.5 0.5 0.5 1
-5.99393 -0.119068 5.39843 0.5 0.5 0.5 1
-1.00341 -1.94771 6.07914 1 1 0 1
-5.68074 1.18171 5.87396 0.5 0.5 0.5 1
-5.67683 -1.18234 5.88739 0.5 0.5 0.5 1
5.14486 -1.92768 5.62841 0.5 0.5 0.5 1
5.14569 1.92744 5.62828 0.5 0.5 0.5 1
2.75172 -0.41983 4.11287 0.5 0.5 0.5 1
2.75174 0.419854 4.11289 0.5 0.5 0.5 1
0.19827 1.64804 2.62052 1 1 1 1
0.234196 -1.59472 2.63384 1 1 1 1
-1.97735 1.07577 5.03778 0.5 0.5 0.5 1
3.32626 -1.76903 5.08007 0.5 0.5 0.5 1
3.3263 1.76909 5.08004 0.5 0.5 0.5 1
1.13934 1.07262 2.62512 1 1 1 1
1.1487 -1.06069 2.62362 1 1 1 1
-2.04111 0.128915 3.74248 0.5 0.5 0.5 1
-3.58491 1.7675 5.16217 0.5 0.5 0.5 1
-3.59191 -1.77954 5.18729 0.5 0.5 0.5 1
-0.797562 1.23965 2.31261 1 1 1 1
-0.843938 -1.01362 2.32775 1 1 1 1
6.44765 -1.39332 5.12887 0.5 0.5 0.5 1
6.44765 1.39333 5.12886 0.5 0.5 0.5 1
-5.04785 1.4826 5.30005 0.5 0.5 0.5 1
-5.07922 -1.48387 5.27751 0.5 0.5 0.5 1
-3.22252 1.41583 4.82603 0.5 0.5 0.5 1
-3.23382 -1.43841 4.88925 0.5 0.5 0.5 1
6.92673 -0.686081 4.31247 0.5 0.5 0.5 1
6.92676 0.686062 4.31246 0.5 0.5 0.5 1
6.04202 -1.60134 5.05572 0.5 0.5 0.5 1
6.04216 1.60133 5.05577 0.5 0.5 0.5 1
3.63412 -1.88708 4.80043 0.5 0.5 0.5 1
3.63414 1.88711 4.80039 0.5 0.5 0.5 1
-1.36101 0.568417 1.90421 1 1 1 1
-2.97656 0.28754 4.43133 0.5 0.5 0.5 1
-2.98183 -0.804592 4.43144 0.5 0.5 0.5 1
-5.51621 -1.01071 4.8565 0.5 0.5 0.5 1
-5.49398 1.14807 4.74303 0.5 0.5 0.5 1
0.722861 1.3809 2.05927 1 1 1 1
0.736558 -1.36047 2.05385 1 1 1 1
-4.19634 -1.68797 5.0979 0.5 0.5 0.5 1
-4.17246 1.68898 5.12239 0.5 0.5 0.5 1
4.23004 -1.81277 4.42402 0.5 0.5 0.5 1
4.23041 1.81258 4.42403 0.5 0.5 0.5 1
1.25456 3.24396e-05 2.29467 1 1 1 1
-1.27333 -0.114792 1.79215 1 1 1 1
-5.5512 0.486024 4.28155 0.5 0.5 0.5 1
-5.61953 -0.674283 4.41438 0.5 0.5 0.5 1
2.92745 -1.17542 4.62171 0.5 0.5 0.5 1
2.92744 1.17546 4.62171 0.5 0.5 0.5 1
0.0920419 1.31171 1.78495 1 1 1 1
-2.30212 1.15288 5.64819 0.5 0.5 0.5 1
0.0967328 -1.25279 1.80478 1 1 1 1
-2.30937 -1.12524 5.66002 0.5 0.5 0.5 1
4.78884 -1.63801 4.73824 0.5 0.5 0.5 1
4.78876 1.63784 4.73811 0.5 0.5 0.5 1
5.21639 -1.56494 4.7614 0.5 0.5 0.5 1
5.21655 1.56495 4.76144 0.5 0.5 0.5 1
0.940336 -0.658094 1.82625 1 1 1 1
0.911698 0.667118 1.82933 1 1 1 1
5.8548 -1.22163 4.54035 1 1 1 1
5.85482 1.2216 4.5403 1 1 1 1
3.46963 -1.31007 4.24496 1 1 1 1
3.46961 1.31007 4.24497 1 1 1 1
5.99985 -0.669418 4.04147 1 1 1 1
5.99987 0.669397 4.04147 1 1 1 1
-4.73001 -1.11133 4.44411 0.5 0.5 0.5 1
-3.85002 -1.2736 4.38808 0.5 0.5 0.5 1
-4.66536 1.13313 4.45101 0.5 0.5 0.5 1

3 0 26 60
3 0 60 26
3 0 29 105
3 0 105 29
3 0 60 105
3 0 105 60
3 1 27 61
3 1 61 27
3 1 29 105
3 1 105 29
3 1 61 105
3 1 105 61
3 2 6 31
3 2 31 6
3 2 9 108
3 2 108 9
3 2 31 35
3 2 35 31
3 2 35 108
3 2 108 35
3 3 24 62
3 3 62 24
3 3 28 92
3 3 92 28
3 3 62 92
3 3 92 62
3 4 25 63
3 4 63 25
3 4 28 92
3 4 92 28
3 4 63 92
3 4 92 63
3 5 7 32
3 5 32 7
3 5 8 69
3 5 69 8
3 5 32 36
3 5 36 32
3 5 36 69
3 5 69 36
3 6 10 64
3 6 64 10
3 6 31 64
3 6 64 31
3 7 11 37
3 7 37 11
3 7 32 37
3 7 37 32
3 8 12 33
3 8 33 12
3 8 33 69
3 8 69 33
3 9 13 34
3 9 34 13
3 9 34 108
3 9 108 34
3 10 14 64
3 10 64 14
3 11 15 37
3 11 37 15
3 12 16 33
3 12 33 16
3 13 17 34
3 13 34 17
3 14 18 77
3 14 77 18
3 14 64 77
3 14 77 64
3 15 19 78
3 15 78 19
3 15 37 78
3 15 78 37
3 16 20 82
3 16 82 20
3 16 33 80
3 16 80 33
3 16 80 82
3 16 82 80
3 17 21 83
3 17 83 21
3 17 34 81
3 17 81 34
3 17 81 83
3 17 83 81
3 18 22 75
3 18 75 22
3 18 75 86
3 18 86 75
3 18 77 86
3 18 86 77
3 19 23 76
3 19 76 23
3 19 76 87
3 19 87 76
3 19 78 87
3 19 87 78
3 20 26 88
3 20 88 26
3 20 82 101
3 20 101 82
3 20 88 101
3 20 101 88
3 21 27 89
3 21 89 27
3 21 83 102
3 21 102 83
3 21 89 102
3 21 102 89
3 22 24 90
3 22 90 24
3 22 75 111
3 22 111 75
3 22 90 111
3 22 111 90
3 23 25 91
3 23 91 25
3 23 76 112
3 23 112 76
3 23 91 112
3 23 112 91
3 24 62 90
3 24 90 62
3 25 63 91
3 25 91 63
3 26 60 88
3 26 88 60
3 27 61 89
3 27 89 61
3 30 34 39
3 30 39 34
3 30 34 81
3 30 81 34
3 30 34 159
3 30 159 34
3 30 39 58
3 30 58 39
3 30 41 58
3 30 58 41
3 30 41 122
3 30 122 41
3 30 55 81
3 30 81 55
3 30 55 117
3 30 117 55
3 30 55 159
3 30 159 55
3 30 117 122
3 30 122 117
3 31 35 44
3 31 44 35
3 31 44 68
3 31 68 44
3 31 64 68
3 31 68 64
3 32 36 43
3 32 43 36
3 32 37 65
3 32 65 37
3 32 43 65
3 32 65 43
3 33 40 69
3 33 69 40
3 33 40 117
3 33 117 40
3 33 55 80
3 33 80 55
3 33 55 117
3 33 117 55
3 33 80 157
3 33 157 80
3 33 117 157
3 33 157 117
3 34 39 108
3 34 108 39
3 34 81 159
3 34 159 81
3 35 39 51
3 35 51 39
3 35 39 108
3 35 108 39
3 35 44 51
3 35 51 44
3 36 40 50
3 36 50 40
3 36 40 69
3 36 69 40
3 36 43 50
3 36 50 43
3 37 47 65
3 37 65 47
3 37 47 70
3 37 70 47
3 37 70 99
3 37 99 70
3 37 78 99
3 37 99 78
3 38 45 54
3 38 54 45
3 38 45 114
3 38 114 45
3 38 53 54
3 38 54 53
3 38 53 148
3 38 148 53
3 38 113 114
3 38 114 113
3 38 113 154
3 38 154 113
3 38 118 137
3 38 137 118
3 38 118 154
3 38 154 118
3 38 137 148
3 38 148 137
3 38 137 168
3 38 168 137
3 38 154 168
3 38 168 154
3 39 51 58
3 39 58 51
3 40 50 59
3 40 59 50
3 40 59 117
3 40 117 59
3 41 58 84
3 41 84 58
3 41 84 126
3 41 126 84
3 41 97 122
3 41 122 97
3 41 97 126
3 41 126 97
3 42 59 85
3 42 85 59
3 42 59 117
3 42 117 59
3 42 85 125
3 42 125 85
3 42 98 122
3 42 122 98
3 42 98 125
3 42 125 98
3 42 117 122
3 42 122 117
3 43 48 65
3 43 65 48
3 43 48 66
3 43 66 48
3 43 50 66
3 43 66 50
3 44 49 67
3 44 67 49
3 44 49 68
3 44 68 49
3 44 51 67
3 44 67 51
3 45 54 149
3 45 149 54
3 45 114 155
3 45 155 114
3 45 119 138
3 45 138 119
3 45 119 155
3 45 155 119
3 45 138 149
3 45 149 138
3 45 138 169
3 45 169 138
3 45 155 169
3 45 169 155
3 46 56 140
3 46 140 56
3 46 56 152
3 46 152 56
3 46 123 131
3 46 131 123
3 46 123 147
3 46 147 123
3 46 129 143
3 46 143 129
3 46 129 147
3 46 147 129
3 46 131 140
3 46 140 131
3 46 143 152
3 46 152 143
3 46 143 174
3 46 174 143
3 46 147 174
3 46 174 147
3 47 48 52
3 47 52 48
3 47 48 65
3 47 65 48
3 47 49 52
3 47 52 49
3 47 49 68
3 47 68 49
3 47 64 68
3 47 68 64
3 47 64 70
3 47 70 64
3 48 52 71
3 48 71 52
3 48 66 71
3 48 71 66
3 49 52 72
3 49 72 52
3 49 67 72
3 49 72 67
3 50 59 73
3 50 73 59
3 50 66 73
3 50 73 66
3 51 58 74
3 51 74 58
3 51 67 74
3 51 74 67
3 52 71 79
3 52 79 71
3 52 72 79
3 52 79 72
3 53 54 171
3 53 171 54
3 53 111 135
3 53 135 111
3 53 111 160
3 53 160 111
3 53 133 166
3 53 166 133
3 53 133 170
3 53 170 133
3 53 135 162
3 53 162 135
3 53 135 166
3 53 166 135
3 53 148 160
3 53 160 148
3 53 160 162
3 53 162 160
3 53 170 171
3 53 171 170
3 54 112 136
3 54 136 112
3 54 112 161
3 54 161 112
3 54 134 167
3 54 167 134
3 54 134 171
3 54 171 134
3 54 136 163
3 54 163 136
3 54 136 167
3 54 167 136
3 54 149 161
3 54 161 149
3 54 161 163
3 54 163 161
3 55 56 132
3 55 132 56
3 55 56 140
3 55 140 56
3 55 80 131
3 55 131 80
3 55 80 157
3 55 157 80
3 55 81 132
3 55 132 81
3 55 81 159
3 55 159 81
3 55 117 157
3 55 157 117
3 55 131 140
3 55 140 131
3 55 132 141
3 55 141 132
3 55 140 141
3 55 141 140
3 56 107 142
3 56 142 107
3 56 107 152
3 56 152 107
3 56 124 132
3 56 132 124
3 56 124 146
3 56 146 124
3 56 130 142
3 56 142 130
3 56 130 146
3 56 146 130
3 56 132 141
3 56 141 132
3 56 132 173
3 56 173 132
3 56 140 141
3 56 141 140
3 56 142 153
3 56 153 142
3 56 142 172
3 56 172 142
3 56 146 172
3 56 172 146
3 56 146 173
3 56 173 146
3 56 152 153
3 56 153 152
3 57 97 126
3 57 126 97
3 57 97 139
3 57 139 97
3 57 115 125
3 57 125 115
3 57 115 144
3 57 144 115
3 57 116 126
3 57 126 116
3 57 116 145
3 57 145 116
3 57 120 144
3 57 144 120
3 57 120 150
3 57 150 120
3 57 121 145
3 57 145 121
3 57 121 150
3 57 150 121
3 57 125 139
3 57 139 125
3 57 125 156
3 57 156 125
3 57 126 151
3 57 151 126
3 57 126 158
3 57 158 126
3 57 139 151
3 57 151 139
3 57 144 156
3 57 156 144
3 57 144 165
3 57 165 144
3 57 145 158
3 57 158 145
3 57 145 164
3 57 164 145
3 57 150 164
3 57 164 150
3 57 150 165
3 57 165 150
3 58 74 84
3 58 84 74
3 59 73 85
3 59 85 73
3 60 88 109
3 60 109 88
3 60 105 109
3 60 109 105
3 61 89 110
3 61 110 89
3 61 105 110
3 61 110 105
3 62 90 95
3 62 95 90
3 62 92 95
3 62 95 92
3 63 91 96
3 63 96 91
3 63 92 96
3 63 96 92
3 64 70 100
3 64 100 70
3 64 77 100
3 64 100 77
3 66 71 103
3 66 103 71
3 66 73 103
3 66 103 73
3 67 72 104
3 67 104 72
3 67 74 104
3 67 104 74
3 70 99 155
3 70 155 99
3 70 100 154
3 70 154 100
3 70 113 114
3 70 114 113
3 70 113 154
3 70 154 113
3 70 114 155
3 70 155 114
3 71 79 120
3 71 120 79
3 71 103 120
3 71 120 103
3 72 79 121
3 72 121 79
3 72 104 121
3 72 121 104
3 73 85 115
3 73 115 85
3 73 103 115
3 73 115 103
3 74 84 116
3 74 116 84
3 74 104 116
3 74 116 104
3 75 86 137
3 75 137 86
3 75 111 160
3 75 160 111
3 75 137 148
3 75 148 137
3 75 148 160
3 75 160 148
3 76 87 138
3 76 138 87
3 76 112 161
3 76 161 112
3 76 138 149
3 76 149 138
3 76 149 161
3 76 161 149
3 77 86 118
3 77 118 86
3 77 100 118
3 77 118 100
3 78 87 119
3 78 119 87
3 78 99 119
3 78 119 99
3 79 120 150
3 79 150 120
3 79 121 150
3 79 150 121
3 80 82 123
3 80 123 82
3 80 123 131
3 80 131 123
3 81 83 124
3 81 124 83
3 81 124 132
3 81 132 124
3 82 101 123
3 82 123 101
3 83 102 124
3 83 124 102
3 84 116 126
3 84 126 116
3 85 115 125
3 85 125 115
3 86 118 137
3 86 137 118
3 87 119 138
3 87 138 119
3 88 101 129
3 88 129 101
3 88 109 129
3 88 129 109
3 89 102 130
3 89 130 102
3 89 110 130
3 89 130 110
3 90 95 127
3 90 127 95
3 90 111 135
3 90 135 111
3 90 127 135
3 90 135 127
3 91 96 128
3 91 128 96
3 91 112 136
3 91 136 112
3 91 128 136
3 91 136 128
3 92 93 94
3 92 94 93
3 92 93 95
3 92 95 93
3 92 94 96
3 92 96 94
3 93 94 134
3 93 134 94
3 93 95 127
3 93 127 95
3 93 127 166
3 93 166 127
3 93 133 134
3 93 134 133
3 93 133 166
3 93 166 133
3 94 96 128
3 94 128 96
3 94 128 167
3 94 167 128
3 94 134 167
3 94 167 134
3 97 98 122
3 97 122 98
3 97 98 139
3 97 139 98
3 97 126 151
3 97 151 126
3 97 139 151
3 97 151 139
3 98 125 139
3 98 139 125
3 99 119 155
3 99 155 119
3 100 118 154
3 100 154 118
3 101 123 147
3 101 147 123
3 101 129 147
3 101 147 129
3 102 124 146
3 102 146 124
3 102 130 146
3 102 146 130
3 103 115 144
3 103 144 115
3 103 120 144
3 103 144 120
3 104 116 145
3 104 145 116
3 104 121 145
3 104 145 121
3 105 106 107
3 105 107 106
3 105 106 109
3 105 109 106
3 105 107 110
3 105 110 107
3 106 107 152
3 106 152 107
3 106 109 143
3 106 143 109
3 106 143 152
3 106 152 143
3 107 110 142
3 107 142 110
3 107 142 153
3 107 153 142
3 107 152 153
3 107 153 152
3 109 129 143
3 109 143 129
3 110 130 142
3 110 142 130
3 111 135 162
3 111 162 135
3 111 160 162
3 111 162 160
3 112 136 163
3 112 163 136
3 112 161 163
3 112 163 161
3 115 125 156
3 115 156 125
3 115 144 156
3 115 156 144
3 116 126 158
3 116 158 126
3 116 145 158
3 116 158 145
3 118 137 168
3 118 168 137
3 118 154 168
3 118 168 154
3 119 138 169
3 119 169 138
3 119 155 169
3 119 169 155
3 120 144 165
3 120 165 144
3 120 150 165
3 120 165 150
3 121 145 164
3 121 164 145
3 121 150 164
3 121 164 150
3 124 132 173
3 124 173 132
3 124 146 173
3 124 173 146
3 127 135 166
3 127 166 135
3 128 136 167
3 128 167 136
3 129 143 174
3 129 174 143
3 129 147 174
3 129 174 147
3 130 142 172
3 130 172 142
3 130 146 172
3 130 172 146
3 133 134 171
3 133 171 134
3 133 170 171
3 133 171 170
