# Generated by dad_to_polygons. Vertex data from Humppa's .off file,
# polygons parsed from .dad file.
COFF
45 136 45
-4.955034 0.720547 3.597135 0.500000 0.500000 0.500000 1.0
-4.955034 -0.720547 3.597135 0.500000 0.500000 0.500000 1.0
-0.026609 -1.654567 3.311334 0.500000 0.500000 0.500000 1.0
5.296585 -0.702460 3.630692 0.500000 0.500000 0.500000 1.0
5.296585 0.702460 3.630692 0.500000 0.500000 0.500000 1.0
-0.026609 1.654567 3.311334 0.500000 0.500000 0.500000 1.0
1.003809 -1.345100 3.448495 0.500000 0.500000 0.500000 1.0
1.003809 1.345100 3.448495 0.500000 0.500000 0.500000 1.0
-1.054806 1.333759 3.412583 0.500000 0.500000 0.500000 1.0
-1.054806 -1.333759 3.412583 0.500000 0.500000 0.500000 1.0
1.930491 -1.028344 3.665601 0.500000 0.500000 0.500000 1.0
1.930491 1.028344 3.665601 0.500000 0.500000 0.500000 1.0
-1.990556 1.049722 3.625492 0.500000 0.500000 0.500000 1.0
-1.990556 -1.049722 3.625492 0.500000 0.500000 0.500000 1.0
3.073402 -0.884825 3.695886 0.500000 0.500000 0.500000 1.0
3.073402 0.884825 3.695886 0.500000 0.500000 0.500000 1.0
-3.013127 0.904403 3.632201 0.500000 0.500000 0.500000 1.0
-3.013127 -0.904403 3.632201 0.500000 0.500000 0.500000 1.0
4.083366 -0.794511 3.658821 0.500000 0.500000 0.500000 1.0
4.083366 0.794511 3.658821 0.500000 0.500000 0.500000 1.0
3.615275 0.731849 2.956307 0.500000 0.500000 0.500000 1.0
-3.485315 0.755199 2.923183 0.500000 0.500000 0.500000 1.0
-3.485315 -0.755199 2.923183 0.500000 0.500000 0.500000 1.0
-0.029844 -0.000000 1.053561 1.0 1.0 0.0 1.0
2.194173 -0.910712 2.749703 0.500000 0.500000 0.500000 1.0
1.276956 0.971498 2.035844 0.500000 0.500000 0.500000 1.0
1.276956 -0.971498 2.035844 0.500000 0.500000 0.500000 1.0
-0.951156 1.240956 2.559943 0.500000 0.500000 0.500000 1.0
-0.951156 -1.240956 2.559943 0.500000 0.500000 0.500000 1.0
-1.787713 0.706457 1.784766 0.500000 0.500000 0.500000 1.0
-1.787713 -0.706457 1.784766 0.500000 0.500000 0.500000 1.0
0.952448 -1.183742 2.425842 0.500000 0.500000 0.500000 1.0
0.952448 1.183742 2.425842 0.500000 0.500000 0.500000 1.0
-2.188021 0.917721 2.706620 0.500000 0.500000 0.500000 1.0
-2.188021 -0.917721 2.706620 0.500000 0.500000 0.500000 1.0
-0.037231 -1.314837 2.368033 0.500000 0.500000 0.500000 1.0
-0.037231 1.314837 2.368033 0.500000 0.500000 0.500000 1.0
2.194173 0.910712 2.749703 0.500000 0.500000 0.500000 1.0
3.615275 -0.731849 2.956307 0.500000 0.500000 0.500000 1.0
-0.454488 -0.796383 1.842742 0.500000 0.500000 0.500000 1.0
-0.454488 0.796383 1.842742 0.500000 0.500000 0.500000 1.0
-1.023127 -0.347110 1.394635 0.500000 0.500000 0.500000 1.0
-1.023127 0.347110 1.394635 0.500000 0.500000 0.500000 1.0
0.508626 0.657551 1.725614 0.500000 0.500000 0.500000 1.0
0.508626 -0.657551 1.725614 0.500000 0.500000 0.500000 1.0
3 0 1 22
3 0 22 1
3 0 22 21
3 0 21 22
3 1 22 17
3 1 17 22
3 2 35 28
3 2 28 35
3 2 35 31
3 2 31 35
3 4 20 38
3 4 38 20
3 4 38 3
3 4 3 38
3 5 7 32
3 5 32 7
3 5 8 27
3 5 27 8
3 5 27 36
3 5 36 27
3 5 32 36
3 5 36 32
3 6 2 31
3 6 31 2
3 6 31 24
3 6 24 31
3 9 2 28
3 9 28 2
3 9 28 34
3 9 34 28
3 10 6 24
3 10 24 6
3 10 24 14
3 10 14 24
3 12 33 16
3 12 16 33
3 13 34 9
3 13 9 34
3 14 38 24
3 14 24 38
3 15 37 11
3 15 11 37
3 16 0 21
3 16 21 0
3 16 21 33
3 16 33 21
3 17 13 34
3 17 34 13
3 20 15 19
3 20 19 15
3 20 15 37
3 20 37 15
3 20 19 4
3 20 4 19
3 22 33 21
3 22 21 33
3 22 34 33
3 22 33 34
3 23 25 26
3 23 26 25
3 23 43 25
3 23 25 43
3 24 31 26
3 24 26 31
3 25 32 43
3 25 43 32
3 26 24 37
3 26 37 24
3 26 37 25
3 26 25 37
3 26 44 23
3 26 23 44
3 27 33 8
3 27 8 33
3 28 35 39
3 28 39 35
3 29 33 40
3 29 40 33
3 30 29 33
3 30 33 29
3 30 29 42
3 30 42 29
3 30 33 34
3 30 34 33
3 30 42 41
3 30 41 42
3 31 35 44
3 31 44 35
3 32 36 43
3 32 43 36
3 33 8 12
3 33 12 8
3 33 27 40
3 33 40 27
3 34 17 22
3 34 22 17
3 34 28 39
3 34 39 28
3 34 30 39
3 34 39 30
3 36 23 40
3 36 40 23
3 36 23 43
3 36 43 23
3 36 27 40
3 36 40 27
3 37 7 11
3 37 11 7
3 37 7 32
3 37 32 7
3 37 24 38
3 37 38 24
3 37 32 25
3 37 25 32
3 37 38 20
3 37 20 38
3 38 3 18
3 38 18 3
3 38 18 14
3 38 14 18
3 39 23 35
3 39 35 23
3 39 23 41
3 39 41 23
3 39 41 30
3 39 30 41
3 40 23 42
3 40 42 23
3 40 42 29
3 40 29 42
3 42 41 23
3 42 23 41
3 44 26 31
3 44 31 26
3 44 35 23
3 44 23 35
