 COFF
          56         452          56
  
  -5.5241310578472982       0.75512196316522462        4.3778234985747151       0.60000002384185791       0.60000002384185791       0.60000002384185791       0.80000001192092896     
  -5.5241310578472929      -0.75512196316522484        4.3778234985747151       0.60000002384185791       0.60000002384185791       0.60000002384185791       0.80000001192092896     
  -2.7147211132289947E-002  -1.7862420428803027        3.9964242745594620       0.60000002384185791       0.60000002384185791       0.60000002384185791       0.80000001192092896     
   5.8723898955628471      -0.73204567454334069        4.4208855160732901       0.60000002384185791       0.60000002384185791       0.60000002384185791       0.80000001192092896     
   5.8723898955628542       0.73204567454334035        4.4208855160732901       0.60000002384185791       0.60000002384185791       0.60000002384185791       0.80000001192092896     
  -2.7147211132289784E-002   1.7862420428803030        3.9964242745594620       0.60000002384185791       0.60000002384185791       0.60000002384185791       0.80000001192092896     
   1.0374669482135210       -1.4456318743745533        4.1636771414252438       0.60000002384185791       0.60000002384185791       0.60000002384185791       0.80000001192092896     
   1.0374669482135208        1.4456318743745529        4.1636771414252438       0.60000002384185791       0.60000002384185791       0.60000002384185791       0.80000001192092896     
  -1.0885593721188453        1.4396655703062091        4.1219285860231150       0.60000002384185791       0.60000002384185791       0.60000002384185791       0.80000001192092896     
  -1.0885593721188456       -1.4396655703062091        4.1219285860231150       0.60000002384185791       0.60000002384185791       0.60000002384185791       0.80000001192092896     
   1.9483992026087220       -1.1021693060961020        4.4189055223678464       0.60000002384185791       0.60000002384185791       0.60000002384185791       0.80000001192092896     
   1.9483992026087218        1.1021693060961015        4.4189055223678464       0.60000002384185791       0.60000002384185791       0.60000002384185791       0.80000001192092896     
  -2.0099459034009715        1.1333828037534242        4.3673156280767440       0.60000002384185791       0.60000002384185791       0.60000002384185791       0.80000001192092896     
  -2.0099459034009719       -1.1333828037534242        4.3673156280767440       0.60000002384185791       0.60000002384185791       0.60000002384185791       0.80000001192092896     
   3.0781959003862926      -0.95061113785891294        4.4738454213872947       0.60000002384185791       0.60000002384185791       0.60000002384185791       0.80000001192092896     
   3.0781959003862935       0.95061113785891260        4.4738454213872938       0.60000002384185791       0.60000002384185791       0.60000002384185791       0.80000001192092896     
  -3.0219476930787570       0.97898691376871627        4.3878235462582982       0.60000002384185791       0.60000002384185791       0.60000002384185791       0.80000001192092896     
  -3.0219476930787570      -0.97898691376871672        4.3878235462583008       0.60000002384185791       0.60000002384185791       0.60000002384185791       0.80000001192092896     
   4.0697995904611588      -0.84154123477021292        4.4669740094904826       0.60000002384185791       0.60000002384185791       0.60000002384185791       0.80000001192092896     
   4.0697995904611588       0.84154123477021203        4.4669740094904826       0.60000002384185791       0.60000002384185791       0.60000002384185791       0.80000001192092896     
  -4.0156799142275634       0.86640222321226712        4.3909054101145344       0.60000002384185791       0.60000002384185791       0.60000002384185791       0.80000001192092896     
  -4.0156799142275625      -0.86640222321226745        4.3909054101145344       0.60000002384185791       0.60000002384185791       0.60000002384185791       0.80000001192092896     
  -3.8063248082932213      -0.80456124318032929        3.7036676367613754       0.60000002384185791       0.60000002384185791       0.60000002384185791       0.80000001192092896     
   8.1281364677734825E-003  -4.6749623137523397E-017   1.0535609148389919        1.0000000000000000        1.0000000000000000        0.0000000000000000        1.0000000000000000     
   2.3178632782221866      -0.97034655066897246        3.4293613801648801       0.60000002384185791       0.60000002384185791       0.60000002384185791       0.80000001192092896     
   1.5093772807424599        1.1735528774506478        2.6590580907502837       0.60000002384185791       0.60000002384185791       0.60000002384185791       0.80000001192092896     
   1.5093772807424595       -1.1735528774506483        2.6590580907502837       0.60000002384185791       0.60000002384185791       0.60000002384185791       0.80000001192092896     
  -1.0972273126072620        1.3854048663359468        3.2676993025676508       0.60000002384185791       0.60000002384185791       0.60000002384185791       0.80000001192092896     
  -1.0972273126072623       -1.3854048663359471        3.2676993025676508       0.60000002384185791       0.60000002384185791       0.60000002384185791       0.80000001192092896     
  -1.8595566443122469       0.85909484253416024        2.3266745807950548       0.60000002384185791       0.60000002384185791       0.60000002384185791       0.80000001192092896     
  -1.8595566443122469      -0.85909484253416024        2.3266745807950548       0.60000002384185791       0.60000002384185791       0.60000002384185791       0.80000001192092896     
   1.1010169469509319       -1.3668772327881162        3.1406696400051763       0.60000002384185791       0.60000002384185791       0.60000002384185791       0.80000001192092896     
   1.1010169469509323        1.3668772327881160        3.1406696400051768       0.60000002384185791       0.60000002384185791       0.60000002384185791       0.80000001192092896     
  -2.3094645992191234        1.0112116517759606        3.3732637118058992       0.60000002384185791       0.60000002384185791       0.60000002384185791       0.80000001192092896     
  -2.3094645992191247       -1.0112116517759608        3.3732637118059006       0.60000002384185791       0.60000002384185791       0.60000002384185791       0.80000001192092896     
  -1.0353315516420415E-003  -1.4998221605547022        2.9266389917259548       0.60000002384185791       0.60000002384185791       0.60000002384185791       0.80000001192092896     
  -1.0353315516418791E-003   1.4998221605547022        2.9266389917259543       0.60000002384185791       0.60000002384185791       0.60000002384185791       0.80000001192092896     
   2.3178632782221875       0.97034655066897268        3.4293613801648788       0.60000002384185791       0.60000002384185791       0.60000002384185791       0.80000001192092896     
   3.9185165934417574      -0.78180572078310029        3.7563534515281169       0.60000002384185791       0.60000002384185791       0.60000002384185791       0.80000001192092896     
 -0.58521313007746512       -1.2590127644178442        2.4180719139805471       0.60000002384185791       0.60000002384185791       0.60000002384185791       0.80000001192092896     
 -0.58521313007746512        1.2590127644178442        2.4180719139805471       0.60000002384185791       0.60000002384185791       0.60000002384185791       0.80000001192092896     
  -1.5342053967930522      -0.60263161235230556        1.4836867931024615       0.60000002384185791       0.60000002384185791       0.60000002384185791       0.80000001192092896     
  -1.5342053967930518       0.60263161235230522        1.4836867931024618       0.60000002384185791       0.60000002384185791       0.60000002384185791       0.80000001192092896     
  0.79229823089702844        1.1826123841086542        2.1341108194019114       0.60000002384185791       0.60000002384185791       0.60000002384185791       0.80000001192092896     
  0.79229823089702778       -1.1826123841086544        2.1341108194019118       0.60000002384185791       0.60000002384185791       0.60000002384185791       0.80000001192092896     
   3.9185165934417578       0.78180572078309996        3.7563534515281169       0.60000002384185791       0.60000002384185791       0.60000002384185791       0.80000001192092896     
  -3.8063248082932213       0.80456124318032929        3.7036676367613750       0.60000002384185791       0.60000002384185791       0.60000002384185791       0.80000001192092896     
   1.7734435294027997       -1.1133122271101295E-016   2.5421758074843477       0.60000002384185791       0.60000002384185791       0.60000002384185791       0.80000001192092896     
   1.1348381801654424       0.79627827640080362        1.8927667855350778       0.60000002384185791       0.60000002384185791       0.60000002384185791       0.80000001192092896     
   1.1348381801654421      -0.79627827640080384        1.8927667855350778       0.60000002384185791       0.60000002384185791       0.60000002384185791       0.80000001192092896     
  -1.6135539886453019E-002   1.1752334621893750        2.0635827281370478       0.60000002384185791       0.60000002384185791       0.60000002384185791       0.80000001192092896     
  -1.6135539886453172E-002  -1.1752334621893750        2.0635827281370478       0.60000002384185791       0.60000002384185791       0.60000002384185791       0.80000001192092896     
   1.1834593376076314       -1.5760250515294692E-016   1.7703481489627300       0.60000002384185791       0.60000002384185791       0.60000002384185791       0.80000001192092896     
   4.8951132035154776      -0.75003369685451571        3.9744481212396505        1.0000000000000000        1.0000000000000000        0.0000000000000000        1.0000000000000000     
   4.8951132035154776       0.75003369685451493        3.9744481212396501        1.0000000000000000        1.0000000000000000        0.0000000000000000        1.0000000000000000     
  -2.3745687017313664       -1.8810585280858377E-016   3.3136995234052362       0.60000002384185791       0.60000002384185791       0.60000002384185791       0.80000001192092896     
  
   3   0  20  46
   3   0  46  20
   4   0  46  22   1
   3   1  22  21
   4   1  22  46   0
   3   1  21  22
   3   2  35  28
   3   2  35  31
   3   2  31  35
   3   2  31   6
   3   2   6  31
   3   2   9  28
   3   2  28  35
   3   2  28   9
   3   5   7  32
   3   5  32  36
   3   5  32   7
   3   5  36  32
   3   5  36  27
   3   5  27  36
   3   5  27   8
   3   5   8  27
   3   6   2  31
   3   6  31   2
   3   6  31  24
   3   6  24  10
   3   6  24  31
   3   6  10  24
   3   7  11  37
   3   7  37  32
   3   7  37  11
   3   7  32  37
   3   7  32   5
   3   7   5  32
   3   8   5  27
   3   8  27   5
   3   8  27  33
   3   8  33  12
   3   8  33  27
   3   8  12  33
   3   9  13  34
   3   9  34  28
   3   9  34  13
   3   9  28  34
   3   9  28   2
   3   9   2  28
   3  10   6  24
   3  10  24  14
   3  10  24   6
   3  10  14  24
   3  11  15  37
   3  11  37   7
   3  11  37  15
   3  11   7  37
   3  12   8  33
   3  12  33  16
   3  12  33   8
   3  12  16  33
   3  13  17  34
   3  13  34   9
   3  13  34  17
   3  13   9  34
   3  14  10  24
   3  14  24  38
   3  14  24  10
   3  14  38  18
   3  14  38  24
   3  14  18  38
   3  15  19  45
   3  15  45  37
   3  15  45  19
   3  15  37  45
   3  15  37  11
   3  15  11  37
   3  16  12  33
   3  16  33  46
   3  16  33  12
   3  16  46  20
   3  16  46  33
   3  16  20  46
   3  17  21  22
   3  17  22  34
   3  17  22  21
   3  17  34  22
   3  17  34  13
   3  17  13  34
   3  18  14  38
   3  18  38  14
   4  18  38  53   3
   3  19  45  15
   4  19  45  54   4
   3  19  15  45
   3  20  16  46
   3  20  46   0
   3  20  46  16
   3  20   0  46
   3  21   1  22
   3  21  22   1
   3  21  22  17
   3  21  17  22
   3  22   1  21
   4  22   1   0  46
   3  22  46  55
   4  22  46   0   1
   3  22  55  34
   3  22  55  46
   3  22  34  55
   3  22  34  17
   3  22  17  21
   3  22  17  34
   3  22  21   1
   3  22  21  17
   3  23  50  40
   3  23  50  43
   3  23  43  48
   3  23  43  50
   3  23  48  43
   3  23  48  52
   3  23  52  48
   3  23  52  49
   3  23  49  44
   3  23  49  52
   3  23  44  51
   3  23  44  49
   3  23  51  44
   3  23  51  39
   3  23  39  51
   4  23  39  35  44
   3  23  41  42
   4  23  41  30  39
   3  23  42  41
   4  23  42  29  40
   3  23  40  50
   4  23  40  29  42
   3  24  38  14
   4  24  38  45  37
   3  24  14  10
   3  24  14  38
   3  24  10   6
   3  24  10  14
   3  24   6  31
   3  24   6  10
   3  24  31  26
   3  24  31   6
   3  24  26  47
   3  24  26  31
   3  24  47  37
   3  24  47  26
   3  24  37  47
   4  24  37  45  38
   3  25  37  47
   3  25  37  32
   3  25  47  37
   3  25  47  48
   3  25  48  43
   3  25  48  47
   3  25  43  32
   3  25  43  48
   3  25  32  37
   3  25  32  43
   3  26  49  47
   3  26  49  44
   3  26  47  24
   3  26  47  49
   3  26  24  31
   3  26  24  47
   3  26  31  44
   3  26  31  24
   3  26  44  31
   3  26  44  49
   3  27   5  36
   3  27   5   8
   3  27  36  40
   3  27  36   5
   3  27  40  33
   3  27  40  36
   3  27  33   8
   3  27  33  40
   3  27   8   5
   3  27   8  33
   3  28  34  39
   3  28  34   9
   3  28  39  35
   3  28  39  34
   3  28  35  39
   3  28  35   2
   3  28   2  35
   3  28   2   9
   3  28   9  34
   3  28   9   2
   3  29  33  40
   3  29  33  55
   3  29  40  33
   4  29  40  23  42
   3  29  30  55
   4  29  30  41  42
   3  29  55  30
   3  29  55  33
   3  30  34  55
   3  30  34  39
   3  30  55  29
   3  30  55  34
   3  30  29  55
   4  30  29  42  41
   3  30  39  34
   4  30  39  23  41
   3  31   2  35
   3  31   2   6
   3  31  35  44
   3  31  35   2
   3  31  44  26
   3  31  44  35
   3  31  26  24
   3  31  26  44
   3  31  24   6
   3  31  24  26
   3  31   6   2
   3  31   6  24
   3  32  37  25
   3  32  37   7
   3  32  25  37
   3  32  25  43
   3  32  43  36
   3  32  43  25
   3  32  36  43
   3  32  36   5
   3  32   5   7
   3  32   5  36
   3  32   7  37
   3  32   7   5
   3  33  46  16
   3  33  46  55
   3  33  16  12
   3  33  16  46
   3  33  12   8
   3  33  12  16
   3  33   8  27
   3  33   8  12
   3  33  27  40
   3  33  27   8
   3  33  40  29
   3  33  40  27
   3  33  29  40
   3  33  29  55
   3  33  55  29
   3  33  55  46
   3  34  22  55
   3  34  22  17
   3  34  55  30
   3  34  55  22
   3  34  30  55
   3  34  30  39
   3  34  39  28
   3  34  39  30
   3  34  28  39
   3  34  28   9
   3  34   9  13
   3  34   9  28
   3  34  13  17
   3  34  13   9
   3  34  17  22
   3  34  17  13
   3  35  28  39
   3  35  28   2
   3  35  39  28
   3  35  39  51
   3  35  51  44
   3  35  51  39
   3  35  44  31
   3  35  44  51
   3  35  31   2
   3  35  31  44
   3  35   2  31
   3  35   2  28
   3  36  32  43
   3  36  32   5
   3  36  43  32
   3  36  43  50
   3  36  50  40
   3  36  50  43
   3  36  40  27
   3  36  40  50
   3  36  27   5
   3  36  27  40
   3  36   5  32
   3  36   5  27
   3  37  45  15
   4  37  45  38  24
   3  37  24  47
   4  37  24  38  45
   3  37  47  24
   3  37  47  25
   3  37  25  47
   3  37  25  32
   3  37  32  25
   3  37  32   7
   3  37   7  11
   3  37   7  32
   3  37  11  15
   3  37  11   7
   3  37  15  45
   3  37  15  11
   3  38  18  14
   4  38  18   3  53
   3  38  14  24
   3  38  14  18
   3  38  24  14
   4  38  24  37  45
   3  39  35  28
   3  39  35  51
   3  39  28  34
   3  39  28  35
   3  39  34  30
   3  39  34  28
   3  39  30  34
   4  39  30  41  23
   3  39  23  51
   4  39  23  44  35
   3  39  51  35
   3  39  51  23
   3  40  29  33
   4  40  29  42  23
   3  40  33  27
   3  40  33  29
   3  40  27  36
   3  40  27  33
   3  40  36  50
   3  40  36  27
   3  40  50  36
   3  40  50  23
   3  40  23  50
   4  40  23  43  36
   3  41  23  42
   4  41  23  39  30
   3  41  42  23
   4  41  42  29  30
   3  42  23  41
   4  42  23  40  29
   3  42  41  23
   4  42  41  30  29
   3  43  36  32
   3  43  36  50
   3  43  32  25
   3  43  32  36
   3  43  25  48
   3  43  25  32
   3  43  48  25
   3  43  48  23
   3  43  23  50
   3  43  23  48
   3  43  50  36
   3  43  50  23
   3  44  26  49
   3  44  26  31
   3  44  31  35
   3  44  31  26
   3  44  35  51
   3  44  35  31
   3  44  51  35
   3  44  51  23
   3  44  23  49
   3  44  23  51
   3  44  49  26
   3  44  49  23
   3  45  37  15
   4  45  37  24  38
   3  45  15  19
   3  45  15  37
   3  45  19  15
   4  45  19   4  54
   3  46   0  20
   4  46   0   1  22
   3  46  20  16
   3  46  20   0
   3  46  16  33
   3  46  16  20
   3  46  33  16
   3  46  33  55
   3  46  55  22
   3  46  55  33
   3  46  22  55
   4  46  22   1   0
   3  47  37  24
   3  47  37  25
   3  47  24  26
   3  47  24  37
   3  47  26  49
   3  47  26  24
   3  47  49  26
   3  47  49  52
   3  47  52  48
   3  47  52  49
   3  47  48  25
   3  47  48  52
   3  47  25  37
   3  47  25  48
   3  48  43  25
   3  48  43  23
   3  48  25  47
   3  48  25  43
   3  48  47  52
   3  48  47  25
   3  48  52  47
   3  48  52  23
   3  48  23  43
   3  48  23  52
   3  49  47  26
   3  49  47  52
   3  49  26  47
   3  49  26  44
   3  49  44  26
   3  49  44  23
   3  49  23  52
   3  49  23  44
   3  49  52  47
   3  49  52  23
   3  50  40  36
   3  50  40  23
   3  50  36  43
   3  50  36  40
   3  50  43  36
   3  50  43  23
   3  50  23  43
   3  50  23  40
   3  51  44  35
   3  51  44  23
   3  51  35  39
   3  51  35  44
   3  51  39  35
   3  51  39  23
   3  51  23  44
   3  51  23  39
   3  52  48  47
   3  52  48  23
   3  52  47  49
   3  52  47  48
   3  52  49  47
   3  52  49  23
   3  52  23  48
   3  52  23  49
   3  55  29  33
   3  55  29  30
   3  55  30  34
   3  55  30  29
   3  55  34  22
   3  55  34  30
   3  55  22  46
   3  55  22  34
   3  55  46  33
   3  55  46  22
   3  55  33  46
   3  55  33  29
