# Generated by dad_to_polygons. Vertex data from Humppa's .off file,
# polygons parsed from .dad file.
COFF
56 176 56
-5.524131 0.755122 4.377823 0.500000 0.500000 0.500000 1.0
-5.524131 -0.755122 4.377823 0.500000 0.500000 0.500000 1.0
-0.027147 -1.786242 3.996424 0.500000 0.500000 0.500000 1.0
5.872390 -0.732046 4.420886 0.500000 0.500000 0.500000 1.0
5.872390 0.732046 4.420886 0.500000 0.500000 0.500000 1.0
-0.027147 1.786242 3.996424 0.500000 0.500000 0.500000 1.0
1.037467 -1.445632 4.163677 0.500000 0.500000 0.500000 1.0
1.037467 1.445632 4.163677 0.500000 0.500000 0.500000 1.0
-1.088559 1.439666 4.121929 0.500000 0.500000 0.500000 1.0
-1.088559 -1.439666 4.121929 0.500000 0.500000 0.500000 1.0
1.948399 -1.102169 4.418906 0.500000 0.500000 0.500000 1.0
1.948399 1.102169 4.418906 0.500000 0.500000 0.500000 1.0
-2.009946 1.133383 4.367316 0.500000 0.500000 0.500000 1.0
-2.009946 -1.133383 4.367316 0.500000 0.500000 0.500000 1.0
3.078196 -0.950611 4.473845 0.500000 0.500000 0.500000 1.0
3.078196 0.950611 4.473845 0.500000 0.500000 0.500000 1.0
-3.021948 0.978987 4.387824 0.500000 0.500000 0.500000 1.0
-3.021948 -0.978987 4.387824 0.500000 0.500000 0.500000 1.0
4.069800 -0.841541 4.466974 0.500000 0.500000 0.500000 1.0
4.069800 0.841541 4.466974 0.500000 0.500000 0.500000 1.0
-4.015680 0.866402 4.390905 0.500000 0.500000 0.500000 1.0
-4.015680 -0.866402 4.390905 0.500000 0.500000 0.500000 1.0
-3.806325 -0.804561 3.703668 0.500000 0.500000 0.500000 1.0
0.008128 -0.000000 1.053561 1.0 1.0 0.0 1.0
2.317863 -0.970347 3.429361 0.500000 0.500000 0.500000 1.0
1.509377 1.173553 2.659058 0.500000 0.500000 0.500000 1.0
1.509377 -1.173553 2.659058 0.500000 0.500000 0.500000 1.0
-1.097227 1.385405 3.267699 0.500000 0.500000 0.500000 1.0
-1.097227 -1.385405 3.267699 0.500000 0.500000 0.500000 1.0
-1.859557 0.859095 2.326675 0.500000 0.500000 0.500000 1.0
-1.859557 -0.859095 2.326675 0.500000 0.500000 0.500000 1.0
1.101017 -1.366877 3.140670 0.500000 0.500000 0.500000 1.0
1.101017 1.366877 3.140670 0.500000 0.500000 0.500000 1.0
-2.309465 1.011212 3.373264 0.500000 0.500000 0.500000 1.0
-2.309465 -1.011212 3.373264 0.500000 0.500000 0.500000 1.0
-0.001035 -1.499822 2.926639 0.500000 0.500000 0.500000 1.0
-0.001035 1.499822 2.926639 0.500000 0.500000 0.500000 1.0
2.317863 0.970347 3.429361 0.500000 0.500000 0.500000 1.0
3.918517 -0.781806 3.756353 0.500000 0.500000 0.500000 1.0
-0.585213 -1.259013 2.418072 0.500000 0.500000 0.500000 1.0
-0.585213 1.259013 2.418072 0.500000 0.500000 0.500000 1.0
-1.534205 -0.602632 1.483687 0.500000 0.500000 0.500000 1.0
-1.534205 0.602632 1.483687 0.500000 0.500000 0.500000 1.0
0.792298 1.182612 2.134111 0.500000 0.500000 0.500000 1.0
0.792298 -1.182612 2.134111 0.500000 0.500000 0.500000 1.0
3.918517 0.781806 3.756353 0.500000 0.500000 0.500000 1.0
-3.806325 0.804561 3.703668 0.500000 0.500000 0.500000 1.0
1.773444 -0.000000 2.542176 0.500000 0.500000 0.500000 1.0
1.134838 0.796278 1.892767 0.500000 0.500000 0.500000 1.0
1.134838 -0.796278 1.892767 0.500000 0.500000 0.500000 1.0
-0.016136 1.175233 2.063583 0.500000 0.500000 0.500000 1.0
-0.016136 -1.175233 2.063583 0.500000 0.500000 0.500000 1.0
1.183459 -0.000000 1.770348 0.500000 0.500000 0.500000 1.0
4.895113 -0.750034 3.974448 1.0 1.0 0.0 1.0
4.895113 0.750034 3.974448 1.0 1.0 0.0 1.0
-2.374569 -0.000000 3.313700 0.500000 0.500000 0.500000 1.0
3 0 1 22
3 0 22 1
3 0 22 46
3 0 46 22
3 1 22 21
3 1 21 22
3 2 9 28
3 2 28 9
3 2 31 6
3 2 6 31
3 3 4 54
3 3 54 4
3 3 54 53
3 3 53 54
3 4 45 19
3 4 19 45
3 4 54 45
3 4 45 54
3 5 7 32
3 5 32 7
3 5 36 27
3 5 27 36
3 6 24 10
3 6 10 24
3 7 37 32
3 7 32 37
3 8 5 27
3 8 27 5
3 8 27 33
3 8 33 27
3 8 33 12
3 8 12 33
3 11 15 37
3 11 37 15
3 11 37 7
3 11 7 37
3 13 34 9
3 13 9 34
3 14 24 10
3 14 10 24
3 14 38 24
3 14 24 38
3 15 45 37
3 15 37 45
3 16 33 12
3 16 12 33
3 17 22 34
3 17 34 22
3 18 3 53
3 18 53 3
3 18 53 38
3 18 38 53
3 20 0 46
3 20 46 0
3 21 22 17
3 21 17 22
3 22 55 34
3 22 34 55
3 23 30 41
3 23 41 30
3 23 39 30
3 23 30 39
3 23 41 42
3 23 42 41
3 23 43 48
3 23 48 43
3 23 49 52
3 23 52 49
3 23 50 43
3 23 43 50
3 23 52 48
3 23 48 52
3 24 26 31
3 24 31 26
3 24 26 47
3 24 47 26
3 24 31 6
3 24 6 31
3 24 47 37
3 24 37 47
3 25 37 32
3 25 32 37
3 25 43 32
3 25 32 43
3 25 43 48
3 25 48 43
3 26 31 44
3 26 44 31
3 26 44 49
3 26 49 44
3 26 47 49
3 26 49 47
3 27 33 40
3 27 40 33
3 28 34 9
3 28 9 34
3 28 35 2
3 28 2 35
3 29 33 40
3 29 40 33
3 30 29 55
3 30 55 29
3 30 34 55
3 30 55 34
3 30 41 42
3 30 42 41
3 30 42 29
3 30 29 42
3 31 35 2
3 31 2 35
3 32 5 36
3 32 36 5
3 32 43 36
3 32 36 43
3 33 16 46
3 33 46 16
3 34 13 17
3 34 17 13
3 34 39 28
3 34 28 39
3 35 28 39
3 35 39 28
3 35 31 44
3 35 44 31
3 35 51 39
3 35 39 51
3 35 51 44
3 35 44 51
3 36 40 27
3 36 27 40
3 36 50 43
3 36 43 50
3 37 38 24
3 37 24 38
3 37 45 38
3 37 38 45
3 37 47 25
3 37 25 47
3 38 18 14
3 38 14 18
3 38 53 54
3 38 54 53
3 38 54 45
3 38 45 54
3 39 34 30
3 39 30 34
3 40 29 42
3 40 42 29
3 40 42 23
3 40 23 42
3 44 49 23
3 44 23 49
3 44 51 23
3 44 23 51
3 45 19 15
3 45 15 19
3 46 16 20
3 46 20 16
3 46 22 55
3 46 55 22
3 47 48 25
3 47 25 48
3 47 48 52
3 47 52 48
3 50 36 40
3 50 40 36
3 50 40 23
3 50 23 40
3 51 39 23
3 51 23 39
3 52 47 49
3 52 49 47
3 55 33 29
3 55 29 33
3 55 33 46
3 55 46 33
