 COFF
          65         564          65
  
  -5.7683491518606802       0.77012551309480837        4.7707891988206255       0.60000002384185791       0.60000002384185791       0.60000002384185791       0.80000001192092896     
  -5.7683491518606749      -0.77012551309480859        4.7707891988206255       0.60000002384185791       0.60000002384185791       0.60000002384185791       0.80000001192092896     
  -2.7285731679073898E-002  -1.8417219400654965        4.3470072074212629       0.60000002384185791       0.60000002384185791       0.60000002384185791       0.80000001192092896     
   6.9058157512095528      -0.78668620180559934        4.7573954202524336       0.60000002384185791       0.60000002384185791       0.60000002384185791       0.80000001192092896     
   6.9058157512095661       0.78668620180559845        4.7573954202524336       0.60000002384185791       0.60000002384185791       0.60000002384185791       0.80000001192092896     
  -2.7285731679073718E-002   1.8417219400654967        4.3470072074212629       0.60000002384185791       0.60000002384185791       0.60000002384185791       0.80000001192092896     
   1.0526930679388911       -1.4887783845749396        4.5266538786095474       0.60000002384185791       0.60000002384185791       0.60000002384185791       0.80000001192092896     
   1.0526930679388908        1.4887783845749392        4.5266538786095474       0.60000002384185791       0.60000002384185791       0.60000002384185791       0.80000001192092896     
  -1.1035786211492169        1.4847569371814460        4.4826940835153737       0.60000002384185791       0.60000002384185791       0.60000002384185791       0.80000001192092896     
  -1.1035786211492171       -1.4847569371814460        4.4826940835153737       0.60000002384185791       0.60000002384185791       0.60000002384185791       0.80000001192092896     
   1.9570881836954215       -1.1361414003087356        4.7971287513312157       0.60000002384185791       0.60000002384185791       0.60000002384185791       0.80000001192092896     
   1.9570881836954213        1.1361414003087351        4.7971287513312157       0.60000002384185791       0.60000002384185791       0.60000002384185791       0.80000001192092896     
  -2.0189641564859540        1.1702783554891547        4.7416675350379798       0.60000002384185791       0.60000002384185791       0.60000002384185791       0.80000001192092896     
  -2.0189641564859544       -1.1702783554891547        4.7416675350379798       0.60000002384185791       0.60000002384185791       0.60000002384185791       0.80000001192092896     
   3.0587933408748631      -0.99055071480407730        4.8577462232218300       0.60000002384185791       0.60000002384185791       0.60000002384185791       0.80000001192092896     
   3.0587933408748658       0.99055071480407675        4.8577462232218274       0.60000002384185791       0.60000002384185791       0.60000002384185791       0.80000001192092896     
  -3.0261461170685826        1.0132143959772135        4.7669463756830881       0.60000002384185791       0.60000002384185791       0.60000002384185791       0.80000001192092896     
  -3.0261461170685826       -1.0132143959772135        4.7669463756830908       0.60000002384185791       0.60000002384185791       0.60000002384185791       0.80000001192092896     
   4.0516584293508293      -0.88044755371238959        4.8839883624070444       0.60000002384185791       0.60000002384185791       0.60000002384185791       0.80000001192092896     
   4.0516584293508311       0.88044755371238881        4.8839883624070453       0.60000002384185791       0.60000002384185791       0.60000002384185791       0.80000001192092896     
  -4.0184912200039351       0.88983039258708285        4.7819594159592329       0.60000002384185791       0.60000002384185791       0.60000002384185791       0.80000001192092896     
  -4.0184912200039342      -0.88983039258708285        4.7819594159592329       0.60000002384185791       0.60000002384185791       0.60000002384185791       0.80000001192092896     
   5.0594699336913269      -0.85909463962225097        4.7965528526122858       0.60000002384185791       0.60000002384185791       0.60000002384185791       0.80000001192092896     
   5.0594699336913269       0.85909463962224941        4.7965528526122858       0.60000002384185791       0.60000002384185791       0.60000002384185791       0.80000001192092896     
   2.3572024542866461       -1.0065651964623215        3.7721656839728710       0.60000002384185791       0.60000002384185791       0.60000002384185791       0.80000001192092896     
   1.5879423687813892        1.2247181857278020        2.9790805453393214       0.60000002384185791       0.60000002384185791       0.60000002384185791       0.80000001192092896     
   1.5879423687813881       -1.2247181857278024        2.9790805453393223       0.60000002384185791       0.60000002384185791       0.60000002384185791       0.80000001192092896     
  -1.1419852477767893        1.4377002270188612        3.6193717488500745       0.60000002384185791       0.60000002384185791       0.60000002384185791       0.80000001192092896     
  -1.1419852477767896       -1.4377002270188615        3.6193717488500750       0.60000002384185791       0.60000002384185791       0.60000002384185791       0.80000001192092896     
  -1.8986687310686015       0.78130338460293647        2.6218642927931732       0.60000002384185791       0.60000002384185791       0.60000002384185791       0.80000001192092896     
  -1.8986687310686015      -0.78130338460293647        2.6218642927931732       0.60000002384185791       0.60000002384185791       0.60000002384185791       0.80000001192092896     
   1.1439948671449760       -1.4143323947376778        3.4838938663489141       0.60000002384185791       0.60000002384185791       0.60000002384185791       0.80000001192092896     
   1.1439948671449764        1.4143323947376778        3.4838938663489141       0.60000002384185791       0.60000002384185791       0.60000002384185791       0.80000001192092896     
  -2.3557158158446629        1.0648447377284276        3.7249070510666979       0.60000002384185791       0.60000002384185791       0.60000002384185791       0.80000001192092896     
  -2.3557158158446634       -1.0648447377284278        3.7249070510667006       0.60000002384185791       0.60000002384185791       0.60000002384185791       0.80000001192092896     
   3.5732195584763969E-003  -1.5675656532552178        3.2262559154246193       0.60000002384185791       0.60000002384185791       0.60000002384185791       0.80000001192092896     
   3.5732195584765218E-003   1.5675656532552178        3.2262559154246189       0.60000002384185791       0.60000002384185791       0.60000002384185791       0.80000001192092896     
   2.3572024542866465        1.0065651964623210        3.7721656839728701       0.60000002384185791       0.60000002384185791       0.60000002384185791       0.80000001192092896     
   4.0211912752734182      -0.82709380753624384        4.1205858010759959       0.60000002384185791       0.60000002384185791       0.60000002384185791       0.80000001192092896     
 -0.69435260334943338       -1.3599471694916205        2.7224967232451083       0.60000002384185791       0.60000002384185791       0.60000002384185791       0.80000001192092896     
 -0.69435260334943305        1.3599471694916203        2.7224967232451078       0.60000002384185791       0.60000002384185791       0.60000002384185791       0.80000001192092896     
  -1.5180274989407370      -0.65982501417621753        1.6231229281643560       0.60000002384185791       0.60000002384185791       0.60000002384185791       0.80000001192092896     
  -1.5180274989407365       0.65982501417621742        1.6231229281643558       0.60000002384185791       0.60000002384185791       0.60000002384185791       0.80000001192092896     
  0.89979532483281199        1.3043776973919041        2.4230014840898471       0.60000002384185791       0.60000002384185791       0.60000002384185791       0.80000001192092896     
  0.89979532483281122       -1.3043776973919041        2.4230014840898475       0.60000002384185791       0.60000002384185791       0.60000002384185791       0.80000001192092896     
   4.0211912752734191       0.82709380753624329        4.1205858010759959       0.60000002384185791       0.60000002384185791       0.60000002384185791       0.80000001192092896     
  -3.9282118303730704       0.84580023668888327        4.1197268204172097       0.60000002384185791       0.60000002384185791       0.60000002384185791       0.80000001192092896     
   1.8933027102319246        8.8982086754759306E-017   2.8467540501104649       0.60000002384185791       0.60000002384185791       0.60000002384185791       0.80000001192092896     
   1.2698077098038481       0.90344946454265407        2.1475275159584211       0.60000002384185791       0.60000002384185791       0.60000002384185791       0.80000001192092896     
   1.2698077098038474      -0.90344946454265429        2.1475275159584211       0.60000002384185791       0.60000002384185791       0.60000002384185791       0.80000001192092896     
   2.8937526972984910E-002   1.3398765807811339        2.3095337310646946       0.60000002384185791       0.60000002384185791       0.60000002384185791       0.80000001192092896     
   2.8937526972984767E-002  -1.3398765807811339        2.3095337310646946       0.60000002384185791       0.60000002384185791       0.60000002384185791       0.80000001192092896     
   1.4206076185719083       -2.7404639028140876E-017   2.0096671502917949       0.60000002384185791       0.60000002384185791       0.60000002384185791       0.80000001192092896     
   4.9716168716182647      -0.75028161436593899        3.9744481212396505        1.0000000000000000        1.0000000000000000        0.0000000000000000        1.0000000000000000     
   4.9716168716182647       0.75028161436593821        3.9744481212396501        1.0000000000000000        1.0000000000000000        0.0000000000000000        1.0000000000000000     
  -2.6369185418671437        9.0548305656498436E-017   3.4342845206927510       0.60000002384185791       0.60000002384185791       0.60000002384185791       0.80000001192092896     
 -0.33091246362207838      -0.93270767316508929        1.9354915072937497       0.60000002384185791       0.60000002384185791       0.60000002384185791       0.80000001192092896     
 -0.33091246362207866       0.93270767316508962        1.9354915072937500       0.60000002384185791       0.60000002384185791       0.60000002384185791       0.80000001192092896     
  -3.9282118303730695      -0.84580023668888327        4.1197268204172106       0.60000002384185791       0.60000002384185791       0.60000002384185791       0.80000001192092896     
   3.7769500830009739E-002  -5.5487012451534720E-017   1.0535609148389919        1.0000000000000000        1.0000000000000000        0.0000000000000000        1.0000000000000000     
  0.53487432736803775       0.73725236896092849        1.7161087894248817       0.60000002384185791       0.60000002384185791       0.60000002384185791       0.80000001192092896     
  0.53487432736803742      -0.73725236896092861        1.7161087894248821       0.60000002384185791       0.60000002384185791       0.60000002384185791       0.80000001192092896     
   2.4033311931253252       -1.6369416357389345E-016   3.7363668245141750       0.60000002384185791       0.60000002384185791       0.60000002384185791       0.80000001192092896     
   5.9331364483211306      -0.76619698567222350        4.3555022058140924       0.60000002384185791       0.60000002384185791       0.60000002384185791       0.80000001192092896     
   5.9331364483211306       0.76619698567222205        4.3555022058140924       0.60000002384185791       0.60000002384185791       0.60000002384185791       0.80000001192092896     
  
   3   0  20  46
   3   0  46  20
   4   0  46  58   1
   3   1  58  21
   4   1  58  46   0
   3   1  21  58
   3   2  35  28
   3   2  35  31
   3   2  31  35
   3   2  31   6
   3   2   6  31
   3   2   9  28
   3   2  28  35
   3   2  28   9
   3   5   7  32
   3   5  32  36
   3   5  32   7
   3   5  36  32
   3   5  36  27
   3   5  27  36
   3   5  27   8
   3   5   8  27
   3   6   2  31
   3   6  31   2
   3   6  31  24
   3   6  24  10
   3   6  24  31
   3   6  10  24
   3   7  11  37
   3   7  37  32
   3   7  37  11
   3   7  32  37
   3   7  32   5
   3   7   5  32
   3   8   5  27
   3   8  27   5
   3   8  27  33
   3   8  33  12
   3   8  33  27
   3   8  12  33
   3   9  13  34
   3   9  34  28
   3   9  34  13
   3   9  28  34
   3   9  28   2
   3   9   2  28
   3  10   6  24
   3  10  24  14
   3  10  24   6
   3  10  14  24
   3  11  15  37
   3  11  37   7
   3  11  37  15
   3  11   7  37
   3  12   8  33
   3  12  33  16
   3  12  33   8
   3  12  16  33
   3  13  17  34
   3  13  34   9
   3  13  34  17
   3  13   9  34
   3  14  10  24
   3  14  24  38
   3  14  24  10
   3  14  38  18
   3  14  38  24
   3  14  18  38
   3  15  19  45
   3  15  45  37
   3  15  45  19
   3  15  37  45
   3  15  37  11
   3  15  11  37
   3  16  12  33
   3  16  33  46
   3  16  33  12
   3  16  46  20
   3  16  46  33
   3  16  20  46
   3  17  21  58
   3  17  58  34
   3  17  58  21
   3  17  34  58
   3  17  34  13
   3  17  13  34
   3  18  14  38
   3  18  38  22
   3  18  38  14
   3  18  22  38
   3  19  23  45
   3  19  45  15
   3  19  45  23
   3  19  15  45
   3  20  16  46
   3  20  46   0
   3  20  46  16
   3  20   0  46
   3  21   1  58
   3  21  58   1
   3  21  58  17
   3  21  17  58
   3  22  18  38
   3  22  38  53
   3  22  38  18
   3  22  53  38
   4  22  53  63   3
   3  23  54  45
   4  23  54  64   4
   3  23  45  54
   3  23  45  19
   3  23  19  45
   3  24  38  14
   3  24  38  62
   3  24  14  10
   3  24  14  38
   3  24  10   6
   3  24  10  14
   3  24   6  31
   3  24   6  10
   3  24  31  26
   3  24  31   6
   3  24  26  47
   3  24  26  31
   3  24  47  62
   3  24  47  26
   3  24  62  47
   3  24  62  38
   3  25  37  47
   3  25  37  32
   3  25  47  37
   3  25  47  48
   3  25  48  43
   3  25  48  47
   3  25  43  32
   3  25  43  48
   3  25  32  37
   3  25  32  43
   3  26  49  47
   3  26  49  44
   3  26  47  24
   3  26  47  49
   3  26  24  31
   3  26  24  47
   3  26  31  44
   3  26  31  24
   3  26  44  31
   3  26  44  49
   3  27   5  36
   3  27   5   8
   3  27  36  40
   3  27  36   5
   3  27  40  33
   3  27  40  36
   3  27  33   8
   3  27  33  40
   3  27   8   5
   3  27   8  33
   3  28  34  39
   3  28  34   9
   3  28  39  35
   3  28  39  34
   3  28  35  39
   3  28  35   2
   3  28   2  35
   3  28   2   9
   3  28   9  34
   3  28   9   2
   3  29  33  40
   3  29  33  55
   3  29  40  33
   3  29  40  57
   3  29  57  42
   3  29  57  40
   3  29  42  57
   4  29  42  41  30
   3  29  30  55
   4  29  30  41  42
   3  29  55  30
   3  29  55  33
   3  30  34  55
   3  30  34  39
   3  30  55  29
   3  30  55  34
   3  30  29  55
   4  30  29  42  41
   3  30  41  56
   4  30  41  42  29
   3  30  56  39
   3  30  56  41
   3  30  39  34
   3  30  39  56
   3  31   2  35
   3  31   2   6
   3  31  35  44
   3  31  35   2
   3  31  44  26
   3  31  44  35
   3  31  26  24
   3  31  26  44
   3  31  24   6
   3  31  24  26
   3  31   6   2
   3  31   6  24
   3  32  37  25
   3  32  37   7
   3  32  25  37
   3  32  25  43
   3  32  43  36
   3  32  43  25
   3  32  36  43
   3  32  36   5
   3  32   5   7
   3  32   5  36
   3  32   7  37
   3  32   7   5
   3  33  46  16
   3  33  46  55
   3  33  16  12
   3  33  16  46
   3  33  12   8
   3  33  12  16
   3  33   8  27
   3  33   8  12
   3  33  27  40
   3  33  27   8
   3  33  40  29
   3  33  40  27
   3  33  29  40
   3  33  29  55
   3  33  55  29
   3  33  55  46
   3  34  58  55
   3  34  58  17
   3  34  55  30
   3  34  55  58
   3  34  30  55
   3  34  30  39
   3  34  39  28
   3  34  39  30
   3  34  28  39
   3  34  28   9
   3  34   9  13
   3  34   9  28
   3  34  13  17
   3  34  13   9
   3  34  17  58
   3  34  17  13
   3  35  28  39
   3  35  28   2
   3  35  39  28
   3  35  39  51
   3  35  51  44
   3  35  51  39
   3  35  44  31
   3  35  44  51
   3  35  31   2
   3  35  31  44
   3  35   2  31
   3  35   2  28
   3  36  32  43
   3  36  32   5
   3  36  43  32
   3  36  43  50
   3  36  50  40
   3  36  50  43
   3  36  40  27
   3  36  40  50
   3  36  27   5
   3  36  27  40
   3  36   5  32
   3  36   5  27
   3  37  45  62
   3  37  45  15
   3  37  62  47
   3  37  62  45
   3  37  47  62
   3  37  47  25
   3  37  25  47
   3  37  25  32
   3  37  32  25
   3  37  32   7
   3  37   7  11
   3  37   7  32
   3  37  11  15
   3  37  11   7
   3  37  15  45
   3  37  15  11
   3  38  53  22
   4  38  53  54  45
   3  38  22  18
   3  38  22  53
   3  38  18  14
   3  38  18  22
   3  38  14  24
   3  38  14  18
   3  38  24  14
   3  38  24  62
   3  38  62  45
   3  38  62  24
   3  38  45  62
   4  38  45  54  53
   3  39  35  28
   3  39  35  51
   3  39  28  34
   3  39  28  35
   3  39  34  30
   3  39  34  28
   3  39  30  34
   3  39  30  56
   3  39  56  51
   3  39  56  30
   3  39  51  35
   3  39  51  56
   3  40  29  33
   3  40  29  57
   3  40  33  27
   3  40  33  29
   3  40  27  36
   3  40  27  33
   3  40  36  50
   3  40  36  27
   3  40  50  36
   3  40  50  57
   3  40  57  29
   3  40  57  50
   3  41  59  56
   3  41  59  42
   3  41  56  30
   3  41  56  59
   3  41  30  56
   4  41  30  29  42
   3  41  42  59
   4  41  42  29  30
   3  42  59  41
   3  42  59  57
   3  42  41  59
   4  42  41  30  29
   3  42  29  57
   4  42  29  30  41
   3  42  57  29
   3  42  57  59
   3  43  36  32
   3  43  36  50
   3  43  32  25
   3  43  32  36
   3  43  25  48
   3  43  25  32
   3  43  48  25
   3  43  48  60
   3  43  60  48
   3  43  60  50
   3  43  50  36
   3  43  50  60
   3  44  26  49
   3  44  26  31
   3  44  31  35
   3  44  31  26
   3  44  35  51
   3  44  35  31
   3  44  51  35
   3  44  51  61
   3  44  61  51
   3  44  61  49
   3  44  49  26
   3  44  49  61
   3  45  54  23
   4  45  54  53  38
   3  45  38  62
   4  45  38  53  54
   3  45  62  37
   3  45  62  38
   3  45  37  62
   3  45  37  15
   3  45  15  19
   3  45  15  37
   3  45  19  23
   3  45  19  15
   3  45  23  54
   3  45  23  19
   3  46   0  20
   4  46   0   1  58
   3  46  20  16
   3  46  20   0
   3  46  16  33
   3  46  16  20
   3  46  33  16
   3  46  33  55
   3  46  55  58
   3  46  55  33
   3  46  58  55
   4  46  58   1   0
   3  47  37  62
   3  47  37  25
   3  47  62  37
   3  47  62  24
   3  47  24  26
   3  47  24  62
   3  47  26  49
   3  47  26  24
   3  47  49  26
   3  47  49  52
   3  47  52  48
   3  47  52  49
   3  47  48  25
   3  47  48  52
   3  47  25  37
   3  47  25  48
   3  48  43  25
   3  48  43  60
   3  48  25  47
   3  48  25  43
   3  48  47  52
   3  48  47  25
   3  48  52  47
   3  48  52  59
   3  48  59  60
   3  48  59  52
   3  48  60  59
   3  48  60  43
   3  49  47  26
   3  49  47  52
   3  49  26  47
   3  49  26  44
   3  49  44  26
   3  49  44  61
   3  49  61  59
   3  49  61  44
   3  49  59  52
   3  49  59  61
   3  49  52  47
   3  49  52  59
   3  50  40  36
   3  50  40  57
   3  50  36  43
   3  50  36  40
   3  50  43  36
   3  50  43  60
   3  50  60  59
   3  50  60  43
   3  50  59  60
   3  50  59  57
   3  50  57  40
   3  50  57  59
   3  51  44  35
   3  51  44  61
   3  51  35  39
   3  51  35  44
   3  51  39  35
   3  51  39  56
   3  51  56  39
   3  51  56  59
   3  51  59  61
   3  51  59  56
   3  51  61  59
   3  51  61  44
   3  52  48  47
   3  52  48  59
   3  52  47  49
   3  52  47  48
   3  52  49  47
   3  52  49  59
   3  52  59  48
   3  52  59  49
   3  53  22  38
   4  53  22   3  63
   3  53  38  22
   4  53  38  45  54
   3  54  45  23
   4  54  45  38  53
   3  54  23  45
   4  54  23   4  64
   3  55  29  33
   3  55  29  30
   3  55  30  34
   3  55  30  29
   3  55  34  58
   3  55  34  30
   3  55  58  46
   3  55  58  34
   3  55  46  33
   3  55  46  58
   3  55  33  46
   3  55  33  29
   3  56  51  39
   3  56  51  59
   3  56  39  30
   3  56  39  51
   3  56  30  41
   3  56  30  39
   3  56  41  59
   3  56  41  30
   3  56  59  51
   3  56  59  41
   3  57  42  59
   3  57  42  29
   3  57  29  40
   3  57  29  42
   3  57  40  29
   3  57  40  50
   3  57  50  40
   3  57  50  59
   3  57  59  50
   3  57  59  42
   3  58   1  21
   4  58   1   0  46
   3  58  46  55
   4  58  46   0   1
   3  58  55  34
   3  58  55  46
   3  58  34  55
   3  58  34  17
   3  58  17  21
   3  58  17  34
   3  58  21   1
   3  58  21  17
   3  59  50  60
   3  59  50  57
   3  59  60  48
   3  59  60  50
   3  59  48  52
   3  59  48  60
   3  59  52  48
   3  59  52  49
   3  59  49  61
   3  59  49  52
   3  59  61  51
   3  59  61  49
   3  59  51  56
   3  59  51  61
   3  59  56  51
   3  59  56  41
   3  59  41  56
   3  59  41  42
   3  59  42  41
   3  59  42  57
   3  59  57  42
   3  59  57  50
   3  60  48  43
   3  60  48  59
   3  60  59  50
   3  60  59  48
   3  60  50  43
   3  60  50  59
   3  60  43  48
   3  60  43  50
   3  61  51  44
   3  61  51  59
   3  61  59  49
   3  61  59  51
   3  61  49  44
   3  61  49  59
   3  61  44  51
   3  61  44  49
   3  62  47  37
   3  62  47  24
   3  62  37  45
   3  62  37  47
   3  62  45  38
   3  62  45  37
   3  62  38  24
   3  62  38  45
   3  62  24  38
   3  62  24  47
