# Generated by dad_to_polygons. Vertex data from Humppa's .off file,
# polygons parsed from .dad file.
COFF
75 240 75
-6.203450 0.797220 5.145661 0.500000 0.500000 0.500000 1.0
-6.203450 -0.797220 5.145661 0.500000 0.500000 0.500000 1.0
-0.027409 -1.892871 4.700562 0.500000 0.500000 0.500000 1.0
7.205426 -0.846921 5.083349 0.500000 0.500000 0.500000 1.0
7.205426 0.846921 5.083349 0.500000 0.500000 0.500000 1.0
-0.027409 1.892871 4.700562 0.500000 0.500000 0.500000 1.0
1.067894 -1.530911 4.889464 0.500000 0.500000 0.500000 1.0
1.067894 1.530911 4.889464 0.500000 0.500000 0.500000 1.0
-1.116625 1.525991 4.846341 0.500000 0.500000 0.500000 1.0
-1.116625 -1.525991 4.846341 0.500000 0.500000 0.500000 1.0
1.966545 -1.172893 5.171588 0.500000 0.500000 0.500000 1.0
1.966545 1.172893 5.171588 0.500000 0.500000 0.500000 1.0
-2.023712 1.204949 5.117922 0.500000 0.500000 0.500000 1.0
-2.023712 -1.204949 5.117922 0.500000 0.500000 0.500000 1.0
3.052428 -1.039790 5.224525 0.500000 0.500000 0.500000 1.0
3.052428 1.039790 5.224525 0.500000 0.500000 0.500000 1.0
-3.009967 1.049478 5.145144 0.500000 0.500000 0.500000 1.0
-3.009967 -1.049478 5.145144 0.500000 0.500000 0.500000 1.0
4.046246 -0.936373 5.250176 0.500000 0.500000 0.500000 1.0
4.046246 0.936373 5.250176 0.500000 0.500000 0.500000 1.0
-3.998525 0.916757 5.194650 0.500000 0.500000 0.500000 1.0
-3.998525 -0.916757 5.194650 0.500000 0.500000 0.500000 1.0
5.035427 -0.976993 5.115760 0.500000 0.500000 0.500000 1.0
5.035427 0.976993 5.115760 0.500000 0.500000 0.500000 1.0
6.055643 -0.933115 5.081305 0.500000 0.500000 0.500000 1.0
6.055643 0.933115 5.081305 0.500000 0.500000 0.500000 1.0
-5.001779 0.862716 5.162806 0.500000 0.500000 0.500000 1.0
-5.001779 -0.862716 5.162806 0.500000 0.500000 0.500000 1.0
-1.178009 -1.481704 3.963034 0.500000 0.500000 0.500000 1.0
-1.979092 0.807245 2.924351 0.500000 0.500000 0.500000 1.0
-1.979092 -0.807245 2.924351 0.500000 0.500000 0.500000 1.0
1.177626 -1.462221 3.822704 0.500000 0.500000 0.500000 1.0
1.177626 1.462221 3.822704 0.500000 0.500000 0.500000 1.0
-2.389392 1.108196 4.073026 0.500000 0.500000 0.500000 1.0
-2.389392 -1.108196 4.073026 0.500000 0.500000 0.500000 1.0
0.006467 -1.615141 3.534023 0.500000 0.500000 0.500000 1.0
0.006467 1.615141 3.534023 0.500000 0.500000 0.500000 1.0
2.394995 1.067307 4.111803 0.500000 0.500000 0.500000 1.0
4.078079 -0.942526 4.498854 0.500000 0.500000 0.500000 1.0
-0.796147 -1.425767 3.049049 0.500000 0.500000 0.500000 1.0
-0.796147 1.425767 3.049049 0.500000 0.500000 0.500000 1.0
-1.477794 -0.716513 1.756073 0.500000 0.500000 0.500000 1.0
-1.477794 0.716513 1.756073 0.500000 0.500000 0.500000 1.0
0.973199 1.389614 2.734724 0.500000 0.500000 0.500000 1.0
0.973199 -1.389614 2.734724 0.500000 0.500000 0.500000 1.0
4.078079 0.942526 4.498854 0.500000 0.500000 0.500000 1.0
-4.025693 0.867331 4.507400 0.500000 0.500000 0.500000 1.0
2.044383 -0.000000 3.158457 0.500000 0.500000 0.500000 1.0
1.372720 0.987826 2.415921 0.500000 0.500000 0.500000 1.0
1.372720 -0.987826 2.415921 0.500000 0.500000 0.500000 1.0
0.074246 1.449976 2.574974 0.500000 0.500000 0.500000 1.0
0.074246 -1.449976 2.574974 0.500000 0.500000 0.500000 1.0
1.570963 0.000000 2.266342 0.500000 0.500000 0.500000 1.0
5.007711 -0.750576 3.974448 1.0 1.0 0.0 1.0
5.007711 0.750576 3.974448 1.0 1.0 0.0 1.0
-2.825252 0.000000 3.693866 0.500000 0.500000 0.500000 1.0
-0.419664 -1.198925 2.245368 0.500000 0.500000 0.500000 1.0
-0.419664 1.198925 2.245368 0.500000 0.500000 0.500000 1.0
-4.025693 -0.867331 4.507400 0.500000 0.500000 0.500000 1.0
0.054540 0.000000 1.053561 1.0 1.0 0.0 1.0
0.719048 1.017375 1.891612 0.500000 0.500000 0.500000 1.0
0.719048 -1.017375 1.891612 0.500000 0.500000 0.500000 1.0
2.630422 -0.000000 3.820135 0.500000 0.500000 0.500000 1.0
6.293422 -0.813388 4.537375 0.500000 0.500000 0.500000 1.0
6.293422 0.813388 4.537375 0.500000 0.500000 0.500000 1.0
2.394995 -1.067307 4.111803 0.500000 0.500000 0.500000 1.0
1.644675 1.276144 3.304998 0.500000 0.500000 0.500000 1.0
-4.965808 0.815457 4.581897 1.0 1.0 0.0 1.0
-4.965808 -0.815457 4.581897 1.0 1.0 0.0 1.0
0.909644 0.589740 1.702712 0.500000 0.500000 0.500000 1.0
0.909644 -0.589740 1.702712 0.500000 0.500000 0.500000 1.0
0.023390 0.874817 1.805969 0.500000 0.500000 0.500000 1.0
0.023390 -0.874817 1.805969 0.500000 0.500000 0.500000 1.0
1.644675 -1.276144 3.304998 0.500000 0.500000 0.500000 1.0
-1.178009 1.481704 3.963034 0.500000 0.500000 0.500000 1.0
3 0 1 68
3 0 68 1
3 0 68 67
3 0 67 68
3 2 9 28
3 2 28 9
3 2 31 6
3 2 6 31
3 2 35 28
3 2 28 35
3 3 4 64
3 3 64 4
3 3 64 63
3 3 63 64
3 5 7 32
3 5 32 7
3 5 32 36
3 5 36 32
3 5 36 74
3 5 74 36
3 6 65 10
3 6 10 65
3 7 32 37
3 7 37 32
3 8 33 74
3 8 74 33
3 8 74 5
3 8 5 74
3 9 28 34
3 9 34 28
3 12 8 33
3 12 33 8
3 13 17 34
3 13 34 17
3 13 34 9
3 13 9 34
3 14 38 65
3 14 65 38
3 14 65 10
3 14 10 65
3 16 20 46
3 16 46 20
3 16 33 12
3 16 12 33
3 17 58 34
3 17 34 58
3 18 38 22
3 18 22 38
3 19 23 45
3 19 45 23
3 19 45 15
3 19 15 45
3 20 46 26
3 20 26 46
3 21 27 58
3 21 58 27
3 21 58 17
3 21 17 58
3 22 53 38
3 22 38 53
3 24 3 63
3 24 63 3
3 24 53 22
3 24 22 53
3 24 63 53
3 24 53 63
3 25 4 64
3 25 64 4
3 25 54 23
3 25 23 54
3 25 64 54
3 25 54 64
3 26 67 0
3 26 0 67
3 27 68 58
3 27 58 68
3 28 39 35
3 28 35 39
3 29 33 40
3 29 40 33
3 29 40 57
3 29 57 40
3 29 41 30
3 29 30 41
3 29 42 41
3 29 41 42
3 29 55 33
3 29 33 55
3 29 57 42
3 29 42 57
3 30 34 55
3 30 55 34
3 30 39 34
3 30 34 39
3 30 55 29
3 30 29 55
3 30 56 39
3 30 39 56
3 31 35 2
3 31 2 35
3 31 35 44
3 31 44 35
3 31 44 73
3 31 73 44
3 32 37 66
3 32 66 37
3 32 43 66
3 32 66 43
3 33 46 16
3 33 16 46
3 33 55 46
3 33 46 55
3 34 39 28
3 34 28 39
3 36 32 43
3 36 43 32
3 36 74 40
3 36 40 74
3 37 7 11
3 37 11 7
3 37 15 11
3 37 11 15
3 37 45 15
3 37 15 45
3 37 47 66
3 37 66 47
3 38 18 14
3 38 14 18
3 38 53 54
3 38 54 53
3 38 54 45
3 38 45 54
3 39 35 51
3 39 51 35
3 39 51 56
3 39 56 51
3 40 50 36
3 40 36 50
3 41 30 56
3 41 56 30
3 41 59 56
3 41 56 59
3 42 57 59
3 42 59 57
3 42 59 41
3 42 41 59
3 43 50 36
3 43 36 50
3 43 60 50
3 43 50 60
3 44 49 73
3 44 73 49
3 44 51 35
3 44 35 51
3 44 51 61
3 44 61 51
3 44 61 49
3 44 49 61
3 45 23 54
3 45 54 23
3 45 62 37
3 45 37 62
3 45 62 38
3 45 38 62
3 47 49 73
3 47 73 49
3 47 62 37
3 47 37 62
3 47 66 48
3 47 48 66
3 48 52 47
3 48 47 52
3 48 60 43
3 48 43 60
3 48 60 69
3 48 69 60
3 48 66 43
3 48 43 66
3 48 69 52
3 48 52 69
3 49 52 47
3 49 47 52
3 49 70 61
3 49 61 70
3 50 40 57
3 50 57 40
3 50 57 71
3 50 71 57
3 51 61 72
3 51 72 61
3 53 63 64
3 53 64 63
3 53 64 54
3 53 54 64
3 55 58 34
3 55 34 58
3 56 72 51
3 56 51 72
3 58 46 55
3 58 55 46
3 58 67 46
3 58 46 67
3 58 68 67
3 58 67 68
3 59 71 57
3 59 57 71
3 59 72 56
3 59 56 72
3 60 50 71
3 60 71 50
3 60 69 59
3 60 59 69
3 61 70 59
3 61 59 70
3 62 65 47
3 62 47 65
3 65 31 6
3 65 6 31
3 65 62 38
3 65 38 62
3 65 73 31
3 65 31 73
3 67 46 26
3 67 26 46
3 68 1 27
3 68 27 1
3 69 52 59
3 69 59 52
3 70 49 52
3 70 52 49
3 70 52 59
3 70 59 52
3 71 59 60
3 71 60 59
3 72 61 59
3 72 59 61
3 73 65 47
3 73 47 65
3 74 40 33
3 74 33 40
