 COFF
          79         736          79
  
  -6.3217463524609867       0.86843238398074785        5.4545198591754289       0.60000002384185791       0.60000002384185791       0.60000002384185791       0.80000001192092896     
  -6.3217463524609805      -0.86843238398074829        5.4545198591754307       0.60000002384185791       0.60000002384185791       0.60000002384185791       0.80000001192092896     
  -2.7573515787664420E-002  -1.9406518190040647        5.0562255819173370       0.60000002384185791       0.60000002384185791       0.60000002384185791       0.80000001192092896     
   7.2647146154227418      -0.90054409796564105        5.4148094298644418       0.60000002384185791       0.60000002384185791       0.60000002384185791       0.80000001192092896     
   7.2647146154227595       0.90054409796563895        5.4148094298644418       0.60000002384185791       0.60000002384185791       0.60000002384185791       0.80000001192092896     
  -2.7573515787668208E-002   1.9406518190052007        5.0562255819161797       0.60000002384185791       0.60000002384185791       0.60000002384185791       0.80000001192092896     
   1.0830543029590298       -1.5724334732314933        5.2517486623403888       0.60000002384185791       0.60000002384185791       0.60000002384185791       0.80000001192092896     
   1.0830543029591981        1.5724334732319252        5.2517486623399341       0.60000002384185791       0.60000002384185791       0.60000002384185791       0.80000001192092896     
  -1.1222153067371115        1.5678054172814380        5.2087212853601903       0.60000002384185791       0.60000002384185791       0.60000002384185791       0.80000001192092896     
  -1.1222153067369227       -1.5678054172810312        5.2087212853606371       0.60000002384185791       0.60000002384185791       0.60000002384185791       0.80000001192092896     
   1.9764952526976440       -1.2120242388223927        5.5426622937090437       0.60000002384185791       0.60000002384185791       0.60000002384185791       0.80000001192092896     
   1.9764952526976802        1.2120242388225155        5.5426622937089061       0.60000002384185791       0.60000002384185791       0.60000002384185791       0.80000001192092896     
  -2.0228023775373125        1.2398338557753688        5.4943831847603413       0.60000002384185791       0.60000002384185791       0.60000002384185791       0.80000001192092896     
  -2.0228023775372925       -1.2398338557752031        5.4943831847605207       0.60000002384185791       0.60000002384185791       0.60000002384185791       0.80000001192092896     
   3.0543762377308097       -1.0935891584127859        5.5834005946328835       0.60000002384185791       0.60000002384185791       0.60000002384185791       0.80000001192092896     
   3.0543762377305077        1.0935891584128412        5.5834005946316232       0.60000002384185791       0.60000002384185791       0.60000002384185791       0.80000001192092896     
  -3.0113516640640627        1.0932577232264065        5.5121560783802179       0.60000002384185791       0.60000002384185791       0.60000002384185791       0.80000001192092896     
  -3.0113516640640512       -1.0932577232263219        5.5121560783803094       0.60000002384185791       0.60000002384185791       0.60000002384185791       0.80000001192092896     
   4.0503320540905330       -1.0114181219579850        5.6092266939368605       0.60000002384185791       0.60000002384185791       0.60000002384185791       0.80000001192092896     
   4.0503320540902106        1.0114181219580436        5.6092266939368356       0.60000002384185791       0.60000002384185791       0.60000002384185791       0.80000001192092896     
  -4.0005820428614181       0.96449593272697320        5.5797057319013641       0.60000002384185791       0.60000002384185791       0.60000002384185791       0.80000001192092896     
  -4.0005820428614225      -0.96449593272695822        5.5797057319013748       0.60000002384185791       0.60000002384185791       0.60000002384185791       0.80000001192092896     
   5.0423816742332805       -1.0932310847256828        5.4157489729685047       0.60000002384185791       0.60000002384185791       0.60000002384185791       0.80000001192092896     
   5.0423816742330683        1.0932310847256774        5.4157489729684158       0.60000002384185791       0.60000002384185791       0.60000002384185791       0.80000001192092896     
   6.0639141038760629       -1.0490625910653610        5.3758224534586940       0.60000002384185791       0.60000002384185791       0.60000002384185791       0.80000001192092896     
   6.0639141038760647        1.0490625910653593        5.3758224534586931       0.60000002384185791       0.60000002384185791       0.60000002384185791       0.80000001192092896     
  -5.0063424893564941       0.96390056570641569        5.4745123015989465       0.60000002384185791       0.60000002384185791       0.60000002384185791       0.80000001192092896     
  -5.0063424893564941      -0.96390056570641258        5.4745123015989483       0.60000002384185791       0.60000002384185791       0.60000002384185791       0.80000001192092896     
  -1.2015240130501068       -1.5262887407302983        4.3090210107833382       0.60000002384185791       0.60000002384185791       0.60000002384185791       0.80000001192092896     
  -2.0467712893769296       0.84293869605534633        3.2239469766416105       0.60000002384185791       0.60000002384185791       0.60000002384185791       0.80000001192092896     
  -2.0467712894736243      -0.84293869588347181        3.2239469766182522       0.60000002384185791       0.60000002384185791       0.60000002384185791       0.80000001192092896     
   1.2063142727147986       -1.5106767435681547        4.1641738895854923       0.60000002384185791       0.60000002384185791       0.60000002384185791       0.80000001192092896     
   1.2063142727427754        1.5106767436210158        4.1641738895847489       0.60000002384185791       0.60000002384185791       0.60000002384185791       0.80000001192092896     
  -2.4226226735216625        1.1507362937125163        4.4221698410040444       0.60000002384185791       0.60000002384185791       0.60000002384185791       0.80000001192092896     
  -2.4226226735182919       -1.1507362936975576        4.4221698410050045       0.60000002384185791       0.60000002384185791       0.60000002384185791       0.80000001192092896     
   9.7527111432516023E-003  -1.6616037224610010        3.8490145550203456       0.60000002384185791       0.60000002384185791       0.60000002384185791       0.80000001192092896     
   9.7527109318744573E-003   1.6616037250411690        3.8490145550211134       0.60000002384185791       0.60000002384185791       0.60000002384185791       0.80000001192092896     
   2.4301097165141536        1.1266124801740531        4.4517691810172915       0.60000002384185791       0.60000002384185791       0.60000002384185791       0.80000001192092896     
   4.0824763487044811       -1.0501354239089447        4.8540961706152270       0.60000002384185791       0.60000002384185791       0.60000002384185791       0.80000001192092896     
 -0.87576043932938386       -1.4766943825862842        3.3834701807782470       0.60000002384185791       0.60000002384185791       0.60000002384185791       0.80000001192092896     
 -0.87576043958843686        1.4766943834520994        3.3834701807093364       0.60000002384185791       0.60000002384185791       0.60000002384185791       0.80000001192092896     
  -1.4627870482021450      -0.80371907098757345        1.9152846206643053       0.60000002384185791       0.60000002384185791       0.60000002384185791       0.80000001192092896     
  -1.4627870481594325       0.80371907106281149        1.9152846206891099       0.60000002384185791       0.60000002384185791       0.60000002384185791       0.80000001192092896     
   1.0232794820857756        1.4532007671618177        3.0580877122850163       0.60000002384185791       0.60000002384185791       0.60000002384185791       0.80000001192092896     
   1.0232794821265603       -1.4532007664344826        3.0580877122040251       0.60000002384185791       0.60000002384185791       0.60000002384185791       0.80000001192092896     
   4.0824763487041160        1.0501354239090732        4.8540961706153549       0.60000002384185791       0.60000002384185791       0.60000002384185791       0.80000001192092896     
  -4.0229253893561499       0.94239733903850154        4.8662741480131482       0.60000002384185791       0.60000002384185791       0.60000002384185791       0.80000001192092896     
   2.1660879096792773        1.0325698434251133E-012   3.4704268356537180       0.60000002384185791       0.60000002384185791       0.60000002384185791       0.80000001192092896     
   1.4469187635451868        1.0585144431583440        2.7069458352941744       0.60000002384185791       0.60000002384185791       0.60000002384185791       0.80000001192092896     
   1.4469187635232796       -1.0585144430510913        2.7069458353056057       0.60000002384185791       0.60000002384185791       0.60000002384185791       0.80000001192092896     
  0.10347362303839083        1.5305261622985389        2.8597363886741451       0.60000002384185791       0.60000002384185791       0.60000002384185791       0.80000001192092896     
  0.10347362331177226       -1.5305261613174188        2.8597363886966747       0.60000002384185791       0.60000002384185791       0.60000002384185791       0.80000001192092896     
   1.6621951560279846        6.7971467712563511E-012   2.5112054905068155       0.60000002384185791       0.60000002384185791       0.60000002384185791       0.80000001192092896     
   5.0346977059344020      -0.75041605394014055        3.9744481212396505        1.0000000000000000        1.0000000000000000        0.0000000000000000        1.0000000000000000     
   5.0346977059343976       0.75041605394013400        3.9744481212396501        1.0000000000000000        1.0000000000000000        0.0000000000000000        1.0000000000000000     
  -2.9427288719302371        1.9085107851450337E-012   3.9721889624358830       0.60000002384185791       0.60000002384185791       0.60000002384185791       0.80000001192092896     
 -0.52010291027596900       -1.3366534196317028        2.5708325628717765       0.60000002384185791       0.60000002384185791       0.60000002384185791       0.80000001192092896     
 -0.52010291034381539        1.3366534200867533        2.5708325627523001       0.60000002384185791       0.60000002384185791       0.60000002384185791       0.80000001192092896     
  -4.0229253893551844      -0.94239733903729561        4.8662741480118976       0.60000002384185791       0.60000002384185791       0.60000002384185791       0.80000001192092896     
   6.8151417210011750E-002   8.6075150971379034E-012   1.0535609148389919        1.0000000000000000        1.0000000000000000        0.0000000000000000        1.0000000000000000     
  0.83749138010393764        1.2155091427041331        2.1471486884304056       0.60000002384185791       0.60000002384185791       0.60000002384185791       0.80000001192092896     
  0.83749138021909597       -1.2155091424775935        2.1471486884652551       0.60000002384185791       0.60000002384185791       0.60000002384185791       0.80000001192092896     
   2.8121454480053791       -9.7338473024461626E-014   4.0011656983174388       0.60000002384185791       0.60000002384185791       0.60000002384185791       0.80000001192092896     
   6.4707028022271986      -0.90402109936863362        4.8038813583330660       0.60000002384185791       0.60000002384185791       0.60000002384185791       0.80000001192092896     
   6.4707028022272022       0.90402109936863162        4.8038813583330633       0.60000002384185791       0.60000002384185791       0.60000002384185791       0.80000001192092896     
   2.4301097165144578       -1.1266124801729147        4.4517691810185811       0.60000002384185791       0.60000002384185791       0.60000002384185791       0.80000001192092896     
   1.6863492367082265        1.3257287134668352        3.6352631768529164       0.60000002384185791       0.60000002384185791       0.60000002384185791       0.80000001192092896     
  -5.0177435485447290       0.81574702393957321        4.5818974327962696        1.0000000000000000        1.0000000000000000        0.0000000000000000        1.0000000000000000     
  -5.0177435485446171      -0.81574702393956933        4.5818974327962705        1.0000000000000000        1.0000000000000000        0.0000000000000000        1.0000000000000000     
   1.1525288399309210       0.74321281763830338        1.8931140284028680       0.60000002384185791       0.60000002384185791       0.60000002384185791       0.80000001192092896     
   1.1525288399360318      -0.74321281762377289        1.8931140284089290       0.60000002384185791       0.60000002384185791       0.60000002384185791       0.80000001192092896     
   6.8812549846747229E-002   1.1757272243954802        2.0027931056142361       0.60000002384185791       0.60000002384185791       0.60000002384185791       0.80000001192092896     
   6.8812550012150892E-002  -1.1757272241970589        2.0027931056893808       0.60000002384185791       0.60000002384185791       0.60000002384185791       0.80000001192092896     
   1.6863492367254422       -1.3257287134585269        3.6352631769561428       0.60000002384185791       0.60000002384185791       0.60000002384185791       0.80000001192092896     
  -1.2015240130744123        1.5262887407816514        4.3090210107819393       0.60000002384185791       0.60000002384185791       0.60000002384185791       0.80000001192092896     
   1.1100088168295181       -1.0887666761968390E-012   1.7492671650587541       0.60000002384185791       0.60000002384185791       0.60000002384185791       0.80000001192092896     
   4.0826079113228397       -8.5611341211496664E-013   4.7867670720099289       0.60000002384185791       0.60000002384185791       0.60000002384185791       0.80000001192092896     
 -0.24068280895593278      -0.75820146442345260        1.7627538666088420       0.60000002384185791       0.60000002384185791       0.60000002384185791       0.80000001192092896     
 -0.24068280896745270       0.75820146452804871        1.7627538665543665       0.60000002384185791       0.60000002384185791       0.60000002384185791       0.80000001192092896     
  
   3   0  26  67
   3   0  67  26
   4   0  67  68   1
   3   1  68  27
   4   1  68  67   0
   3   1  27  68
   3   2  35  28
   3   2  35  31
   3   2  31  35
   3   2  31   6
   3   2   6  31
   3   2   9  28
   3   2  28  35
   3   2  28   9
   3   3  24  63
   3   3  63  24
   4   3  63  64   4
   3   4  64  25
   4   4  64  63   3
   3   4  25  64
   3   5   7  32
   3   5  32  36
   3   5  32   7
   3   5  36  32
   3   5  36  74
   3   5  74  36
   3   5  74   8
   3   5   8  74
   3   6   2  31
   3   6  31   2
   3   6  31  65
   3   6  65  10
   3   6  65  31
   3   6  10  65
   3   7  11  37
   3   7  37  32
   3   7  37  11
   3   7  32  37
   3   7  32   5
   3   7   5  32
   3   8   5  74
   3   8  74   5
   3   8  74  33
   3   8  33  12
   3   8  33  74
   3   8  12  33
   3   9  13  34
   3   9  34  28
   3   9  34  13
   3   9  28  34
   3   9  28   2
   3   9   2  28
   3  10   6  65
   3  10  65  14
   3  10  65   6
   3  10  14  65
   3  11  15  37
   3  11  37   7
   3  11  37  15
   3  11   7  37
   3  12   8  33
   3  12  33  16
   3  12  33   8
   3  12  16  33
   3  13  17  34
   3  13  34   9
   3  13  34  17
   3  13   9  34
   3  14  10  65
   3  14  65  38
   3  14  65  10
   3  14  38  18
   3  14  38  65
   3  14  18  38
   3  15  19  45
   3  15  45  37
   3  15  45  19
   3  15  37  45
   3  15  37  11
   3  15  11  37
   3  16  12  33
   3  16  33  46
   3  16  33  12
   3  16  46  20
   3  16  46  33
   3  16  20  46
   3  17  21  58
   3  17  58  34
   3  17  58  21
   3  17  34  58
   3  17  34  13
   3  17  13  34
   3  18  14  38
   3  18  38  22
   3  18  38  14
   3  18  22  38
   3  19  23  45
   3  19  45  15
   3  19  45  23
   3  19  15  45
   3  20  16  46
   3  20  46  26
   3  20  46  16
   3  20  26  46
   3  21  27  58
   3  21  58  17
   3  21  58  27
   3  21  17  58
   3  22  18  38
   3  22  38  53
   3  22  38  18
   3  22  53  24
   3  22  53  38
   3  22  24  53
   3  23  25  54
   3  23  54  45
   3  23  54  25
   3  23  45  54
   3  23  45  19
   3  23  19  45
   3  24  22  53
   3  24  53  63
   3  24  53  22
   3  24  63   3
   3  24  63  53
   3  24   3  63
   3  25   4  64
   3  25  64   4
   3  25  64  54
   3  25  54  64
   3  25  54  23
   3  25  23  54
   3  26  20  46
   3  26  46  67
   3  26  46  20
   3  26  67   0
   3  26  67  46
   3  26   0  67
   3  27   1  68
   3  27  68   1
   3  27  68  58
   3  27  58  68
   3  27  58  21
   3  27  21  58
   3  28  34  39
   3  28  34   9
   3  28  39  35
   3  28  39  34
   3  28  35  39
   3  28  35   2
   3  28   2  35
   3  28   2   9
   3  28   9  34
   3  28   9   2
   3  29  33  40
   3  29  33  55
   3  29  40  33
   3  29  40  57
   3  29  57  42
   3  29  57  40
   3  29  42  57
   4  29  42  41  30
   3  29  30  55
   4  29  30  41  42
   3  29  55  30
   3  29  55  33
   3  30  34  55
   3  30  34  39
   3  30  55  29
   3  30  55  34
   3  30  29  55
   4  30  29  42  41
   3  30  41  56
   4  30  41  42  29
   3  30  56  39
   3  30  56  41
   3  30  39  34
   3  30  39  56
   3  31   2  35
   3  31   2   6
   3  31  35  44
   3  31  35   2
   3  31  44  73
   3  31  44  35
   3  31  73  65
   3  31  73  44
   3  31  65   6
   3  31  65  73
   3  31   6   2
   3  31   6  65
   3  32  37  66
   3  32  37   7
   3  32  66  37
   3  32  66  43
   3  32  43  36
   3  32  43  66
   3  32  36  43
   3  32  36   5
   3  32   5   7
   3  32   5  36
   3  32   7  37
   3  32   7   5
   3  33  46  16
   3  33  46  55
   3  33  16  12
   3  33  16  46
   3  33  12   8
   3  33  12  16
   3  33   8  74
   3  33   8  12
   3  33  74  40
   3  33  74   8
   3  33  40  29
   3  33  40  74
   3  33  29  40
   3  33  29  55
   3  33  55  29
   3  33  55  46
   3  34  58  55
   3  34  58  17
   3  34  55  30
   3  34  55  58
   3  34  30  55
   3  34  30  39
   3  34  39  28
   3  34  39  30
   3  34  28  39
   3  34  28   9
   3  34   9  13
   3  34   9  28
   3  34  13  17
   3  34  13   9
   3  34  17  58
   3  34  17  13
   3  35  28  39
   3  35  28   2
   3  35  39  28
   3  35  39  51
   3  35  51  44
   3  35  51  39
   3  35  44  31
   3  35  44  51
   3  35  31   2
   3  35  31  44
   3  35   2  31
   3  35   2  28
   3  36  32  43
   3  36  32   5
   3  36  43  32
   3  36  43  50
   3  36  50  40
   3  36  50  43
   3  36  40  74
   3  36  40  50
   3  36  74   5
   3  36  74  40
   3  36   5  32
   3  36   5  74
   3  37  45  62
   3  37  45  15
   3  37  62  47
   3  37  62  45
   3  37  47  62
   3  37  47  66
   3  37  66  47
   3  37  66  32
   3  37  32  66
   3  37  32   7
   3  37   7  11
   3  37   7  32
   3  37  11  15
   3  37  11   7
   3  37  15  45
   3  37  15  11
   3  38  53  22
   3  38  53  76
   3  38  22  18
   3  38  22  53
   3  38  18  14
   3  38  18  22
   3  38  14  65
   3  38  14  18
   3  38  65  14
   3  38  65  62
   3  38  62  76
   3  38  62  65
   3  38  76  62
   3  38  76  53
   3  39  35  28
   3  39  35  51
   3  39  28  34
   3  39  28  35
   3  39  34  30
   3  39  34  28
   3  39  30  34
   3  39  30  56
   3  39  56  51
   3  39  56  30
   3  39  51  35
   3  39  51  56
   3  40  29  33
   3  40  29  57
   3  40  33  74
   3  40  33  29
   3  40  74  36
   3  40  74  33
   3  40  36  50
   3  40  36  74
   3  40  50  36
   3  40  50  57
   3  40  57  29
   3  40  57  50
   3  41  59  77
   3  41  59  42
   3  41  77  59
   3  41  77  56
   3  41  56  30
   3  41  56  77
   3  41  30  56
   4  41  30  29  42
   3  41  42  59
   4  41  42  29  30
   3  42  59  41
   3  42  59  78
   3  42  41  59
   4  42  41  30  29
   3  42  29  57
   4  42  29  30  41
   3  42  57  29
   3  42  57  78
   3  42  78  59
   3  42  78  57
   3  43  36  32
   3  43  36  50
   3  43  32  66
   3  43  32  36
   3  43  66  48
   3  43  66  32
   3  43  48  66
   3  43  48  60
   3  43  60  48
   3  43  60  50
   3  43  50  36
   3  43  50  60
   3  44  73  49
   3  44  73  31
   3  44  31  35
   3  44  31  73
   3  44  35  51
   3  44  35  31
   3  44  51  35
   3  44  51  61
   3  44  61  51
   3  44  61  49
   3  44  49  73
   3  44  49  61
   3  45  54  76
   3  45  54  23
   3  45  76  62
   3  45  76  54
   3  45  62  37
   3  45  62  76
   3  45  37  62
   3  45  37  15
   3  45  15  19
   3  45  15  37
   3  45  19  23
   3  45  19  15
   3  45  23  54
   3  45  23  19
   3  46  67  26
   4  46  67  68  58
   3  46  26  20
   3  46  26  67
   3  46  20  16
   3  46  20  26
   3  46  16  33
   3  46  16  20
   3  46  33  16
   3  46  33  55
   3  46  55  58
   3  46  55  33
   3  46  58  55
   4  46  58  68  67
   3  47  37  62
   3  47  37  66
   3  47  62  37
   3  47  62  65
   3  47  65  73
   3  47  65  62
   3  47  73  49
   3  47  73  65
   3  47  49  73
   3  47  49  52
   3  47  52  48
   3  47  52  49
   3  47  48  66
   3  47  48  52
   3  47  66  37
   3  47  66  48
   3  48  43  66
   3  48  43  60
   3  48  66  47
   3  48  66  43
   3  48  47  52
   3  48  47  66
   3  48  52  47
   3  48  52  69
   3  48  69  52
   3  48  69  60
   3  48  60  69
   3  48  60  43
   3  49  47  73
   3  49  47  52
   3  49  73  47
   3  49  73  44
   3  49  44  73
   3  49  44  61
   3  49  61  70
   3  49  61  44
   3  49  70  61
   3  49  70  52
   3  49  52  47
   3  49  52  70
   3  50  40  36
   3  50  40  57
   3  50  36  43
   3  50  36  40
   3  50  43  36
   3  50  43  60
   3  50  60  71
   3  50  60  43
   3  50  71  60
   3  50  71  57
   3  50  57  40
   3  50  57  71
   3  51  44  35
   3  51  44  61
   3  51  35  39
   3  51  35  44
   3  51  39  35
   3  51  39  56
   3  51  56  39
   3  51  56  72
   3  51  72  56
   3  51  72  61
   3  51  61  72
   3  51  61  44
   3  52  48  47
   3  52  48  69
   3  52  47  49
   3  52  47  48
   3  52  49  47
   3  52  49  70
   3  52  70  75
   3  52  70  49
   3  52  75  70
   3  52  75  69
   3  52  69  75
   3  52  69  48
   3  53  63  24
   4  53  63  64  54
   3  53  24  22
   3  53  24  63
   3  53  22  38
   3  53  22  24
   3  53  38  22
   3  53  38  76
   3  53  76  54
   3  53  76  38
   3  53  54  76
   4  53  54  64  63
   3  54  64  25
   4  54  64  63  53
   3  54  53  76
   4  54  53  63  64
   3  54  76  45
   3  54  76  53
   3  54  45  76
   3  54  45  23
   3  54  23  25
   3  54  23  45
   3  54  25  64
   3  54  25  23
   3  55  29  33
   3  55  29  30
   3  55  30  34
   3  55  30  29
   3  55  34  58
   3  55  34  30
   3  55  58  46
   3  55  58  34
   3  55  46  33
   3  55  46  58
   3  55  33  46
   3  55  33  29
   3  56  51  39
   3  56  51  72
   3  56  39  30
   3  56  39  51
   3  56  30  41
   3  56  30  39
   3  56  41  77
   3  56  41  30
   3  56  77  41
   3  56  77  72
   3  56  72  77
   3  56  72  51
   3  57  42  29
   3  57  42  78
   3  57  29  40
   3  57  29  42
   3  57  40  29
   3  57  40  50
   3  57  50  40
   3  57  50  71
   3  57  71  78
   3  57  71  50
   3  57  78  71
   3  57  78  42
   3  58  68  27
   4  58  68  67  46
   3  58  46  55
   4  58  46  67  68
   3  58  55  34
   3  58  55  46
   3  58  34  55
   3  58  34  17
   3  58  17  21
   3  58  17  34
   3  58  21  27
   3  58  21  17
   3  58  27  68
   3  58  27  21
   3  59  71  60
   3  59  71  78
   3  59  60  69
   3  59  60  71
   3  59  69  75
   3  59  69  60
   3  59  75  70
   3  59  75  69
   3  59  70  61
   3  59  70  75
   3  59  61  72
   3  59  61  70
   3  59  72  77
   3  59  72  61
   3  59  77  41
   3  59  77  72
   3  59  41  77
   3  59  41  42
   3  59  42  41
   3  59  42  78
   3  59  78  71
   3  59  78  42
   3  60  48  43
   3  60  48  69
   3  60  69  59
   3  60  69  48
   3  60  59  71
   3  60  59  69
   3  60  71  59
   3  60  71  50
   3  60  50  43
   3  60  50  71
   3  60  43  48
   3  60  43  50
   3  61  51  44
   3  61  51  72
   3  61  72  59
   3  61  72  51
   3  61  59  70
   3  61  59  72
   3  61  70  59
   3  61  70  49
   3  61  49  44
   3  61  49  70
   3  61  44  51
   3  61  44  49
   3  62  47  37
   3  62  47  65
   3  62  37  45
   3  62  37  47
   3  62  45  76
   3  62  45  37
   3  62  76  45
   3  62  76  38
   3  62  38  65
   3  62  38  76
   3  62  65  38
   3  62  65  47
   3  63   3  24
   4  63   3   4  64
   3  63  24  53
   3  63  24   3
   3  63  53  24
   4  63  53  54  64
   3  64   4  25
   4  64   4   3  63
   3  64  54  25
   4  64  54  53  63
   3  64  25   4
   3  64  25  54
   3  65  38  14
   3  65  38  62
   3  65  14  10
   3  65  14  38
   3  65  10   6
   3  65  10  14
   3  65   6  31
   3  65   6  10
   3  65  31  73
   3  65  31   6
   3  65  73  47
   3  65  73  31
   3  65  47  62
   3  65  47  73
   3  65  62  47
   3  65  62  38
   3  66  37  47
   3  66  37  32
   3  66  47  37
   3  66  47  48
   3  66  48  43
   3  66  48  47
   3  66  43  32
   3  66  43  48
   3  66  32  37
   3  66  32  43
   3  67   0  26
   4  67   0   1  68
   3  67  26  46
   3  67  26   0
   3  67  46  26
   4  67  46  58  68
   3  68   1  27
   4  68   1   0  67
   3  68  58  27
   4  68  58  46  67
   3  68  27   1
   3  68  27  58
   3  69  52  48
   3  69  52  75
   3  69  75  59
   3  69  75  52
   3  69  59  60
   3  69  59  75
   3  69  60  48
   3  69  60  59
   3  69  48  52
   3  69  48  60
   3  70  61  59
   3  70  61  49
   3  70  59  75
   3  70  59  61
   3  70  75  59
   3  70  75  52
   3  70  52  49
   3  70  52  75
   3  70  49  61
   3  70  49  52
   3  71  60  59
   3  71  60  50
   3  71  59  60
   3  71  59  78
   3  71  78  59
   3  71  78  57
   3  71  57  50
   3  71  57  78
   3  71  50  60
   3  71  50  57
   3  72  56  51
   3  72  56  77
   3  72  77  59
   3  72  77  56
   3  72  59  61
   3  72  59  77
   3  72  61  51
   3  72  61  59
   3  72  51  56
   3  72  51  61
   3  73  49  47
   3  73  49  44
   3  73  47  65
   3  73  47  49
   3  73  65  31
   3  73  65  47
   3  73  31  44
   3  73  31  65
   3  73  44  31
   3  73  44  49
   3  74   5  36
   3  74   5   8
   3  74  36  40
   3  74  36   5
   3  74  40  33
   3  74  40  36
   3  74  33   8
   3  74  33  40
   3  74   8   5
   3  74   8  33
   3  75  70  59
   3  75  70  52
   3  75  59  69
   3  75  59  70
   3  75  69  52
   3  75  69  59
   3  75  52  70
   3  75  52  69
   3  76  62  45
   3  76  62  38
   3  76  45  54
   3  76  45  62
   3  76  54  53
   3  76  54  45
   3  76  53  38
   3  76  53  54
   3  76  38  53
   3  76  38  62
   3  77  41  59
   3  77  41  56
   3  77  59  72
   3  77  59  41
   3  77  72  56
   3  77  72  59
   3  77  56  41
   3  77  56  72
   3  78  71  59
   3  78  71  57
   3  78  59  71
   3  78  59  42
   3  78  42  59
   3  78  42  57
   3  78  57  42
   3  78  57  71
