 COFF
          89         838          89
  
  -6.4120812745398679       0.95152308960113274        5.7419040218619566       0.60000002384185791       0.60000002384185791       0.60000002384185791       0.80000001192092896     
  -6.4120812745398776      -0.95152308960114340        5.7419040218619362       0.60000002384185791       0.60000002384185791       0.60000002384185791       0.80000001192092896     
  -2.7779091352678569E-002  -1.9864741747616457        5.4126578302221304       0.60000002384185791       0.60000002384185791       0.60000002384185791       0.80000001192092896     
   7.3256019813384814      -0.95304986017355897        5.7438165632894016       0.60000002384185791       0.60000002384185791       0.60000002384185791       0.80000001192092896     
   7.3256019813384974       0.95304986017355520        5.7438165632894025       0.60000002384185791       0.60000002384185791       0.60000002384185791       0.80000001192092896     
  -2.7779091352957232E-002   1.9864741748294243        5.4126578301545898       0.60000002384185791       0.60000002384185791       0.60000002384185791       0.80000001192092896     
   1.0980480648645510       -1.6132675218784209        5.6136354157410544       0.60000002384185791       0.60000002384185791       0.60000002384185791       0.80000001192092896     
   1.0980480648731914        1.6132675219016777        5.6136354157163986       0.60000002384185791       0.60000002384185791       0.60000002384185791       0.80000001192092896     
  -1.1320317676266476        1.6083431200537683        5.5710388284997947       0.60000002384185791       0.60000002384185791       0.60000002384185791       0.80000001192092896     
  -1.1320317676138758       -1.6083431200214897        5.5710388285340109       0.60000002384185791       0.60000002384185791       0.60000002384185791       0.80000001192092896     
   1.9864735344496534       -1.2520581627497278        5.9118478435263979       0.60000002384185791       0.60000002384185791       0.60000002384185791       0.80000001192092896     
   1.9864735344499507        1.2520581627510254        5.9118478435250923       0.60000002384185791       0.60000002384185791       0.60000002384185791       0.80000001192092896     
  -2.0284776153795274        1.2774511710599912        5.8660664817606305       0.60000002384185791       0.60000002384185791       0.60000002384185791       0.80000001192092896     
  -2.0284776153794106       -1.2774511710457119        5.8660664817748982       0.60000002384185791       0.60000002384185791       0.60000002384185791       0.80000001192092896     
   3.0554337221046111       -1.1488247197141332        5.9393492669059347       0.60000002384185791       0.60000002384185791       0.60000002384185791       0.80000001192092896     
   3.0554337220971433        1.1488247197151571        5.9393492668786552       0.60000002384185791       0.60000002384185791       0.60000002384185791       0.80000001192092896     
  -3.0191024434045479        1.1449736426672823        5.8700605917324689       0.60000002384185791       0.60000002384185791       0.60000002384185791       0.80000001192092896     
  -3.0191024434046372       -1.1449736426567214        5.8700605917550375       0.60000002384185791       0.60000002384185791       0.60000002384185791       0.80000001192092896     
   4.0528562613148251       -1.0863558879220387        5.9649350218564559       0.60000002384185791       0.60000002384185791       0.60000002384185791       0.80000001192092896     
   4.0528562613090298        1.0863558879217945        5.9649350218570003       0.60000002384185791       0.60000002384185791       0.60000002384185791       0.80000001192092896     
  -4.0105032305492685        1.0343475029736631        5.9365385866898004       0.60000002384185791       0.60000002384185791       0.60000002384185791       0.80000001192092896     
  -4.0105032305519481       -1.0343475029702103        5.9365385866907481       0.60000002384185791       0.60000002384185791       0.60000002384185791       0.80000001192092896     
   5.0670067925983187       -1.2098078926763598        5.7244427395271273       0.60000002384185791       0.60000002384185791       0.60000002384185791       0.80000001192092896     
   5.0670067971354911        1.2098078929703078        5.7244427421115098       0.60000002384185791       0.60000002384185791       0.60000002384185791       0.80000001192092896     
   6.0749666837512466       -1.1659002873666227        5.6665442249363238       0.60000002384185791       0.60000002384185791       0.60000002384185791       0.80000001192092896     
   6.0749666837530976        1.1659002873664666        5.6665442249363069       0.60000002384185791       0.60000002384185791       0.60000002384185791       0.80000001192092896     
  -5.0096968669253643        1.0819152528100775        5.7667493333849791       0.60000002384185791       0.60000002384185791       0.60000002384185791       0.80000001192092896     
  -5.0096968669253590       -1.0819152528098477        5.7667493333852109       0.60000002384185791       0.60000002384185791       0.60000002384185791       0.80000001192092896     
  -1.2195813975082561       -1.5707641801833243        4.6550564534067203       0.60000002384185791       0.60000002384185791       0.60000002384185791       0.80000001192092896     
  -2.0990252372366003       0.88133236725613806        3.5217743563679287       0.60000002384185791       0.60000002384185791       0.60000002384185791       0.80000001192092896     
  -2.0990252341425863      -0.88133235607222138        3.5217743569437174       0.60000002384185791       0.60000002384185791       0.60000002384185791       0.80000001192092896     
   1.2299523767703080       -1.5578929030482369        4.5061064891236535       0.60000002384185791       0.60000002384185791       0.60000002384185791       0.80000001192092896     
   1.2299523764435880        1.5578929034021938        4.5061064888992757       0.60000002384185791       0.60000002384185791       0.60000002384185791       0.80000001192092896     
  -2.4525174561440557        1.1989169462553457        4.7682223053324391       0.60000002384185791       0.60000002384185791       0.60000002384185791       0.80000001192092896     
  -2.4525174559539984       -1.1989169457627420        4.7682223054187922       0.60000002384185791       0.60000002384185791       0.60000002384185791       0.80000001192092896     
   1.2728294113109781E-002  -1.7066281230261784        4.1684370205220080       0.60000002384185791       0.60000002384185791       0.60000002384185791       0.80000001192092896     
   1.2728328025084943E-002   1.7066280721191915        4.1684370197357623       0.60000002384185791       0.60000002384185791       0.60000002384185791       0.80000001192092896     
   2.4632918485784234        1.1835709545651354        4.7906579417418067       0.60000002384185791       0.60000002384185791       0.60000002384185791       0.80000001192092896     
   4.0995366284431407       -1.1392090601554747        5.1770124857783584       0.60000002384185791       0.60000002384185791       0.60000002384185791       0.80000001192092896     
 -0.93754168281506356       -1.5218472472759552        3.7221527154281806       0.60000002384185791       0.60000002384185791       0.60000002384185791       0.80000001192092896     
 -0.93754169216226335        1.5218472464132464        3.7221527128273451       0.60000002384185791       0.60000002384185791       0.60000002384185791       0.80000001192092896     
  -1.4968681050255330      -0.88791464812616316        2.1303342950198645       0.60000002384185791       0.60000002384185791       0.60000002384185791       0.80000001192092896     
  -1.4968681218190663       0.88791472985967768        2.1303343273928119       0.60000002384185791       0.60000002384185791       0.60000002384185791       0.80000001192092896     
   1.0651958998203355        1.5009972549525985        3.3729310568284459       0.60000002384185791       0.60000002384185791       0.60000002384185791       0.80000001192092896     
   1.0651958954069993       -1.5009972654994597        3.3729310590674992       0.60000002384185791       0.60000002384185791       0.60000002384185791       0.80000001192092896     
   4.0995366378442828        1.1392090708294986        5.1770124778201616       0.60000002384185791       0.60000002384185791       0.60000002384185791       0.80000001192092896     
  -4.0190029500483195        1.0321721522326273        5.2029962694856682       0.60000002384185791       0.60000002384185791       0.60000002384185791       0.80000001192092896     
   2.2668356623116921        1.9795628315816504E-010   3.7827877827006651       0.60000002384185791       0.60000002384185791       0.60000002384185791       0.80000001192092896     
   1.5076449256056341        1.1143797428065030        3.0031367586062570       0.60000002384185791       0.60000002384185791       0.60000002384185791       0.80000001192092896     
   1.5076449262069160       -1.1143797351982254        3.0031367593353751       0.60000002384185791       0.60000002384185791       0.60000002384185791       0.80000001192092896     
  0.10819471307666020        1.5779858658571329        3.1592108229382529       0.60000002384185791       0.60000002384185791       0.60000002384185791       0.80000001192092896     
  0.10819350193177439       -1.5778705544329963        3.1592108208769103       0.60000002384185791       0.60000002384185791       0.60000002384185791       0.80000001192092896     
   1.7453412963949100        4.2263789829364453E-010   2.7678582425245408       0.60000002384185791       0.60000002384185791       0.60000002384185791       0.80000001192092896     
   5.0496477966054361      -0.75041205059500549        3.9744481212396505        1.0000000000000000        1.0000000000000000        0.0000000000000000        1.0000000000000000     
   5.0496477966335611       0.75041205067590222        3.9744481212396501        1.0000000000000000        1.0000000000000000        0.0000000000000000        1.0000000000000000     
  -3.0602096330348627        5.1321764206058226E-011   4.2703919560364190       0.60000002384185791       0.60000002384185791       0.60000002384185791       0.80000001192092896     
 -0.62392229721792192       -1.3995568578340478        2.8925714797752140       0.60000002384185791       0.60000002384185791       0.60000002384185791       0.80000001192092896     
 -0.62392233688160803        1.3995565881900827        2.8925714411672985       0.60000002384185791       0.60000002384185791       0.60000002384185791       0.80000001192092896     
  -4.0190029500190469       -1.0321721521921381        5.2029962694571603       0.60000002384185791       0.60000002384185791       0.60000002384185791       0.80000001192092896     
  0.11244124622355531        8.6052174368412396E-009   1.0535609148389919        1.0000000000000000        1.0000000000000000        0.0000000000000000        1.0000000000000000     
  0.92728577839798154        1.3316995240611931        2.4305197168564763       0.60000002384185791       0.60000002384185791       0.60000002384185791       0.80000001192092896     
  0.92728559808237709       -1.3316996645528389        2.4305197207095040       0.60000002384185791       0.60000002384185791       0.60000002384185791       0.80000001192092896     
   2.9899827317661223        6.3967355330724339E-009   4.2143075766221267       0.60000002384185791       0.60000002384185791       0.60000002384185791       0.80000001192092896     
   6.5730514596958152       -1.0025396225562253        5.0739763149842512       0.60000002384185791       0.60000002384185791       0.60000002384185791       0.80000001192092896     
   6.5730514596958987        1.0025396225561813        5.0739763149842503       0.60000002384185791       0.60000002384185791       0.60000002384185791       0.80000001192092896     
   2.4632918485794768       -1.1835709543561090        4.7906579417842261       0.60000002384185791       0.60000002384185791       0.60000002384185791       0.80000001192092896     
   1.7179948570082109        1.3735912468328175        3.9624075927658153       0.60000002384185791       0.60000002384185791       0.60000002384185791       0.80000001192092896     
  -5.0184254338637446       0.81548472522608173        4.5818974327962696        1.0000000000000000        1.0000000000000000        0.0000000000000000        1.0000000000000000     
  -5.0184254338635110      -0.81548472522811877        4.5818974327962705        1.0000000000000000        1.0000000000000000        0.0000000000000000        1.0000000000000000     
   1.2690094040901958       0.85096836287377864        2.1237205693939880       0.60000002384185791       0.60000002384185791       0.60000002384185791       0.80000001192092896     
   1.2690094322119612      -0.85096833182715681        2.1237205691216205       0.60000002384185791       0.60000002384185791       0.60000002384185791       0.80000001192092896     
  0.13750132347069086        1.3478546494988652        2.2365591293082816       0.60000002384185791       0.60000002384185791       0.60000002384185791       0.80000001192092896     
  0.13750124276109477       -1.3478546712777713        2.2365591616263507       0.60000002384185791       0.60000002384185791       0.60000002384185791       0.80000001192092896     
   1.7179948555768778       -1.3735912467895606        3.9624075929559477       0.60000002384185791       0.60000002384185791       0.60000002384185791       0.80000001192092896     
  -1.2195813984606720        1.5707641806279493        4.6550564532146064       0.60000002384185791       0.60000002384185791       0.60000002384185791       0.80000001192092896     
   1.3752167603901859        3.5984983388115482E-009   1.9585797007942582       0.60000002384185791       0.60000002384185791       0.60000002384185791       0.80000001192092896     
   4.1001916938272487        2.7845114470234909E-008   4.9788055459695348       0.60000002384185791       0.60000002384185791       0.60000002384185791       0.80000001192092896     
 -0.30159595828963376       -1.1046015575792261        1.9175629092526421       0.60000002384185791       0.60000002384185791       0.60000002384185791       0.80000001192092896     
 -0.30159597529662813        1.1046016875725682        1.9175628243452960       0.60000002384185791       0.60000002384185791       0.60000002384185791       0.80000001192092896     
 -0.99140876115792065      -0.47947222763284469        1.5236446921411888       0.60000002384185791       0.60000002384185791       0.60000002384185791       0.80000001192092896     
 -0.99140872351760623       0.47947224449430764        1.5236446927430152       0.60000002384185791       0.60000002384185791       0.60000002384185791       0.80000001192092896     
  -4.0188293137034217       -1.0363428386309203E-009   5.1596969497104288       0.60000002384185791       0.60000002384185791       0.60000002384185791       0.80000001192092896     
  0.57753088632849847       0.75599788846916438        1.7157089294748458       0.60000002384185791       0.60000002384185791       0.60000002384185791       0.80000001192092896     
  0.57753092080558521      -0.75599773506428458        1.7157089501917415       0.60000002384185791       0.60000002384185791       0.60000002384185791       0.80000001192092896     
   5.5870913943498568      -0.97102539956294542        4.8254847195681085       0.60000002384185791       0.60000002384185791       0.60000002384185791       0.80000001192092896     
   5.5870913943905380       0.97102539953458755        4.8254847195563597       0.60000002384185791       0.60000002384185791       0.60000002384185791       0.80000001192092896     
   6.5780858012432990       -5.3892326717574059E-015   5.0710795342144133       0.60000002384185791       0.60000002384185791       0.60000002384185791       0.80000001192092896     
   5.8177640717269448      -0.36990688419185053        4.5219887345185432       0.60000002384185791       0.60000002384185791       0.60000002384185791       0.80000001192092896     
   5.8177640717249313       0.36990688421998946        4.5219887345185432       0.60000002384185791       0.60000002384185791       0.60000002384185791       0.80000001192092896     
  
   3   0  26  67
   3   0  67  26
   4   0  67  68   1
   3   1  68  27
   4   1  68  67   0
   3   1  27  68
   3   2  35  28
   3   2  35  31
   3   2  31  35
   3   2  31   6
   3   2   6  31
   3   2   9  28
   3   2  28  35
   3   2  28   9
   3   3   4  86
   3   3  24  63
   3   3  63  24
   3   3  63  86
   3   3  86   4
   3   3  86  63
   3   4   3  86
   3   4  86  64
   3   4  86   3
   3   4  64  86
   3   4  64  25
   3   4  25  64
   3   5   7  32
   3   5  32  36
   3   5  32   7
   3   5  36  32
   3   5  36  74
   3   5  74  36
   3   5  74   8
   3   5   8  74
   3   6   2  31
   3   6  31   2
   3   6  31  65
   3   6  65  10
   3   6  65  31
   3   6  10  65
   3   7  11  37
   3   7  37  32
   3   7  37  11
   3   7  32  37
   3   7  32   5
   3   7   5  32
   3   8   5  74
   3   8  74   5
   3   8  74  33
   3   8  33  12
   3   8  33  74
   3   8  12  33
   3   9  13  34
   3   9  34  28
   3   9  34  13
   3   9  28  34
   3   9  28   2
   3   9   2  28
   3  10   6  65
   3  10  65  14
   3  10  65   6
   3  10  14  65
   3  11  15  37
   3  11  37   7
   3  11  37  15
   3  11   7  37
   3  12   8  33
   3  12  33  16
   3  12  33   8
   3  12  16  33
   3  13  17  34
   3  13  34   9
   3  13  34  17
   3  13   9  34
   3  14  10  65
   3  14  65  38
   3  14  65  10
   3  14  38  18
   3  14  38  65
   3  14  18  38
   3  15  19  45
   3  15  45  37
   3  15  45  19
   3  15  37  45
   3  15  37  11
   3  15  11  37
   3  16  12  33
   3  16  33  46
   3  16  33  12
   3  16  46  20
   3  16  46  33
   3  16  20  46
   3  17  21  58
   3  17  58  34
   3  17  58  21
   3  17  34  58
   3  17  34  13
   3  17  13  34
   3  18  14  38
   3  18  38  22
   3  18  38  14
   3  18  22  38
   3  19  23  45
   3  19  45  15
   3  19  45  23
   3  19  15  45
   3  20  16  46
   3  20  46  26
   3  20  46  16
   3  20  26  46
   3  21  27  58
   3  21  58  17
   3  21  58  27
   3  21  17  58
   3  22  18  38
   3  22  38  53
   3  22  38  18
   3  22  53  84
   3  22  53  38
   3  22  84  53
   3  22  84  24
   3  22  24  84
   4  22  24  63  53
   3  23  25  85
   4  23  25  64  54
   3  23  85  54
   3  23  85  25
   3  23  54  45
   3  23  54  85
   3  23  45  54
   3  23  45  19
   3  23  19  45
   3  24  22  84
   4  24  22  53  63
   3  24  84  22
   3  24  84  63
   3  24  63   3
   3  24  63  84
   3  24   3  63
   3  25   4  64
   3  25  64   4
   3  25  64  85
   3  25  85  64
   3  25  85  23
   3  25  23  85
   4  25  23  54  64
   3  26  20  46
   3  26  46  67
   3  26  46  20
   3  26  67   0
   3  26  67  46
   3  26   0  67
   3  27   1  68
   3  27  68   1
   3  27  68  58
   3  27  58  68
   3  27  58  21
   3  27  21  58
   3  28  34  39
   3  28  34   9
   3  28  39  35
   3  28  39  34
   3  28  35  39
   3  28  35   2
   3  28   2  35
   3  28   2   9
   3  28   9  34
   3  28   9   2
   3  29  33  40
   3  29  33  55
   3  29  40  33
   3  29  40  57
   3  29  57  42
   3  29  57  40
   3  29  42  57
   4  29  42  41  30
   3  29  30  55
   4  29  30  41  42
   3  29  55  30
   3  29  55  33
   3  30  34  55
   3  30  34  39
   3  30  55  29
   3  30  55  34
   3  30  29  55
   4  30  29  42  41
   3  30  41  56
   4  30  41  42  29
   3  30  56  39
   3  30  56  41
   3  30  39  34
   3  30  39  56
   3  31   2  35
   3  31   2   6
   3  31  35  44
   3  31  35   2
   3  31  44  73
   3  31  44  35
   3  31  73  65
   3  31  73  44
   3  31  65   6
   3  31  65  73
   3  31   6   2
   3  31   6  65
   3  32  37  66
   3  32  37   7
   3  32  66  37
   3  32  66  43
   3  32  43  36
   3  32  43  66
   3  32  36  43
   3  32  36   5
   3  32   5   7
   3  32   5  36
   3  32   7  37
   3  32   7   5
   3  33  46  16
   3  33  46  55
   3  33  16  12
   3  33  16  46
   3  33  12   8
   3  33  12  16
   3  33   8  74
   3  33   8  12
   3  33  74  40
   3  33  74   8
   3  33  40  29
   3  33  40  74
   3  33  29  40
   3  33  29  55
   3  33  55  29
   3  33  55  46
   3  34  58  55
   3  34  58  17
   3  34  55  30
   3  34  55  58
   3  34  30  55
   3  34  30  39
   3  34  39  28
   3  34  39  30
   3  34  28  39
   3  34  28   9
   3  34   9  13
   3  34   9  28
   3  34  13  17
   3  34  13   9
   3  34  17  58
   3  34  17  13
   3  35  28  39
   3  35  28   2
   3  35  39  28
   3  35  39  51
   3  35  51  44
   3  35  51  39
   3  35  44  31
   3  35  44  51
   3  35  31   2
   3  35  31  44
   3  35   2  31
   3  35   2  28
   3  36  32  43
   3  36  32   5
   3  36  43  32
   3  36  43  50
   3  36  50  40
   3  36  50  43
   3  36  40  74
   3  36  40  50
   3  36  74   5
   3  36  74  40
   3  36   5  32
   3  36   5  74
   3  37  45  62
   3  37  45  15
   3  37  62  47
   3  37  62  45
   3  37  47  62
   3  37  47  66
   3  37  66  47
   3  37  66  32
   3  37  32  66
   3  37  32   7
   3  37   7  11
   3  37   7  32
   3  37  11  15
   3  37  11   7
   3  37  15  45
   3  37  15  11
   3  38  53  22
   3  38  53  76
   3  38  22  18
   3  38  22  53
   3  38  18  14
   3  38  18  22
   3  38  14  65
   3  38  14  18
   3  38  65  14
   3  38  65  62
   3  38  62  76
   3  38  62  65
   3  38  76  62
   3  38  76  53
   3  39  35  28
   3  39  35  51
   3  39  28  34
   3  39  28  35
   3  39  34  30
   3  39  34  28
   3  39  30  34
   3  39  30  56
   3  39  56  51
   3  39  56  30
   3  39  51  35
   3  39  51  56
   3  40  29  33
   3  40  29  57
   3  40  33  74
   3  40  33  29
   3  40  74  36
   3  40  74  33
   3  40  36  50
   3  40  36  74
   3  40  50  36
   3  40  50  57
   3  40  57  29
   3  40  57  50
   3  41  77  56
   4  41  77  59  79
   3  41  56  30
   3  41  56  77
   3  41  30  56
   4  41  30  29  42
   3  42  29  57
   4  42  29  30  41
   3  42  57  29
   3  42  57  78
   3  42  78  57
   4  42  78  59  80
   3  43  36  32
   3  43  36  50
   3  43  32  66
   3  43  32  36
   3  43  66  48
   3  43  66  32
   3  43  48  66
   3  43  48  60
   3  43  60  48
   3  43  60  50
   3  43  50  36
   3  43  50  60
   3  44  73  49
   3  44  73  31
   3  44  31  35
   3  44  31  73
   3  44  35  51
   3  44  35  31
   3  44  51  35
   3  44  51  61
   3  44  61  51
   3  44  61  49
   3  44  49  73
   3  44  49  61
   3  45  54  76
   3  45  54  23
   3  45  76  62
   3  45  76  54
   3  45  62  37
   3  45  62  76
   3  45  37  62
   3  45  37  15
   3  45  15  19
   3  45  15  37
   3  45  19  23
   3  45  19  15
   3  45  23  54
   3  45  23  19
   3  46  67  26
   3  46  67  81
   3  46  26  20
   3  46  26  67
   3  46  20  16
   3  46  20  26
   3  46  16  33
   3  46  16  20
   3  46  33  16
   3  46  33  55
   3  46  55  81
   3  46  55  33
   3  46  81  55
   3  46  81  67
   3  47  37  62
   3  47  37  66
   3  47  62  37
   3  47  62  65
   3  47  65  73
   3  47  65  62
   3  47  73  49
   3  47  73  65
   3  47  49  73
   3  47  49  52
   3  47  52  48
   3  47  52  49
   3  47  48  66
   3  47  48  52
   3  47  66  37
   3  47  66  48
   3  48  43  66
   3  48  43  60
   3  48  66  47
   3  48  66  43
   3  48  47  52
   3  48  47  66
   3  48  52  47
   3  48  52  69
   3  48  69  52
   3  48  69  60
   3  48  60  69
   3  48  60  43
   3  49  47  73
   3  49  47  52
   3  49  73  47
   3  49  73  44
   3  49  44  73
   3  49  44  61
   3  49  61  70
   3  49  61  44
   3  49  70  61
   3  49  70  52
   3  49  52  47
   3  49  52  70
   3  50  40  36
   3  50  40  57
   3  50  36  43
   3  50  36  40
   3  50  43  36
   3  50  43  60
   3  50  60  71
   3  50  60  43
   3  50  71  60
   3  50  71  57
   3  50  57  40
   3  50  57  71
   3  51  44  35
   3  51  44  61
   3  51  35  39
   3  51  35  44
   3  51  39  35
   3  51  39  56
   3  51  56  39
   3  51  56  72
   3  51  72  56
   3  51  72  61
   3  51  61  72
   3  51  61  44
   3  52  48  47
   3  52  48  69
   3  52  47  49
   3  52  47  48
   3  52  49  47
   3  52  49  70
   3  52  70  75
   3  52  70  49
   3  52  75  70
   3  52  75  69
   3  52  69  75
   3  52  69  48
   3  53  63  84
   4  53  63  24  22
   3  53  84  22
   3  53  84  63
   3  53  22  38
   3  53  22  84
   3  53  38  22
   3  53  38  76
   3  53  76  54
   3  53  76  38
   3  53  54  76
   4  53  54  88  87
   3  54  64  85
   4  54  64  86  88
   3  54  53  76
   4  54  53  87  88
   3  54  76  45
   3  54  76  53
   3  54  45  76
   3  54  45  23
   3  54  23  85
   3  54  23  45
   3  54  85  64
   3  54  85  23
   3  55  29  33
   3  55  29  30
   3  55  30  34
   3  55  30  29
   3  55  34  58
   3  55  34  30
   3  55  58  81
   3  55  58  34
   3  55  81  58
   3  55  81  46
   3  55  46  33
   3  55  46  81
   3  55  33  46
   3  55  33  29
   3  56  51  39
   3  56  51  72
   3  56  39  30
   3  56  39  51
   3  56  30  41
   3  56  30  39
   3  56  41  77
   3  56  41  30
   3  56  77  41
   3  56  77  72
   3  56  72  77
   3  56  72  51
   3  57  42  29
   3  57  42  78
   3  57  29  40
   3  57  29  42
   3  57  40  29
   3  57  40  50
   3  57  50  40
   3  57  50  71
   3  57  71  78
   3  57  71  50
   3  57  78  71
   3  57  78  42
   3  58  68  81
   3  58  68  27
   3  58  81  55
   3  58  81  68
   3  58  55  34
   3  58  55  81
   3  58  34  55
   3  58  34  17
   3  58  17  21
   3  58  17  34
   3  58  21  27
   3  58  21  17
   3  58  27  68
   3  58  27  21
   3  59  71  82
   3  59  71  78
   3  59  82  71
   3  59  82  69
   3  59  69  75
   3  59  69  82
   3  59  75  70
   3  59  75  69
   3  59  70  83
   3  59  70  75
   3  59  83  70
   3  59  83  72
   3  59  72  77
   3  59  72  83
   3  59  77  72
   4  59  77  41  79
   3  59  79  80
   4  59  79  41  77
   3  59  80  79
   4  59  80  42  78
   3  59  78  71
   4  59  78  42  80
   3  60  48  43
   3  60  48  69
   3  60  69  82
   3  60  69  48
   3  60  82  71
   3  60  82  69
   3  60  71  82
   3  60  71  50
   3  60  50  43
   3  60  50  71
   3  60  43  48
   3  60  43  50
   3  61  51  44
   3  61  51  72
   3  61  72  83
   3  61  72  51
   3  61  83  70
   3  61  83  72
   3  61  70  83
   3  61  70  49
   3  61  49  44
   3  61  49  70
   3  61  44  51
   3  61  44  49
   3  62  47  37
   3  62  47  65
   3  62  37  45
   3  62  37  47
   3  62  45  76
   3  62  45  37
   3  62  76  45
   3  62  76  38
   3  62  38  65
   3  62  38  76
   3  62  65  38
   3  62  65  47
   3  63   3  24
   3  63   3  86
   3  63  24  84
   3  63  24   3
   3  63  84  53
   3  63  84  24
   3  63  53  84
   4  63  53  22  24
   3  63  86   3
   4  63  86  87  53
   3  64   4  86
   3  64   4  25
   3  64  86   4
   4  64  86  88  54
   3  64  54  85
   4  64  54  88  86
   3  64  85  54
   3  64  85  25
   3  64  25   4
   3  64  25  85
   3  65  38  14
   3  65  38  62
   3  65  14  10
   3  65  14  38
   3  65  10   6
   3  65  10  14
   3  65   6  31
   3  65   6  10
   3  65  31  73
   3  65  31   6
   3  65  73  47
   3  65  73  31
   3  65  47  62
   3  65  47  73
   3  65  62  47
   3  65  62  38
   3  66  37  47
   3  66  37  32
   3  66  47  37
   3  66  47  48
   3  66  48  43
   3  66  48  47
   3  66  43  32
   3  66  43  48
   3  66  32  37
   3  66  32  43
   3  67   0  26
   4  67   0   1  68
   3  67  26  46
   3  67  26   0
   3  67  46  26
   3  67  46  81
   3  67  81  68
   3  67  81  46
   3  67  68  81
   4  67  68   1   0
   3  68   1  27
   4  68   1   0  67
   3  68  67  81
   4  68  67   0   1
   3  68  81  58
   3  68  81  67
   3  68  58  81
   3  68  58  27
   3  68  27   1
   3  68  27  58
   3  69  52  48
   3  69  52  75
   3  69  75  59
   3  69  75  52
   3  69  59  82
   3  69  59  75
   3  69  82  60
   3  69  82  59
   3  69  60  48
   3  69  60  82
   3  69  48  52
   3  69  48  60
   3  70  61  83
   3  70  61  49
   3  70  83  61
   3  70  83  59
   3  70  59  75
   3  70  59  83
   3  70  75  59
   3  70  75  52
   3  70  52  49
   3  70  52  75
   3  70  49  61
   3  70  49  52
   3  71  60  82
   3  71  60  50
   3  71  82  60
   3  71  82  59
   3  71  59  82
   3  71  59  78
   3  71  78  59
   3  71  78  57
   3  71  57  50
   3  71  57  78
   3  71  50  60
   3  71  50  57
   3  72  56  51
   3  72  56  77
   3  72  77  59
   3  72  77  56
   3  72  59  83
   3  72  59  77
   3  72  83  61
   3  72  83  59
   3  72  61  51
   3  72  61  83
   3  72  51  56
   3  72  51  61
   3  73  49  47
   3  73  49  44
   3  73  47  65
   3  73  47  49
   3  73  65  31
   3  73  65  47
   3  73  31  44
   3  73  31  65
   3  73  44  31
   3  73  44  49
   3  74   5  36
   3  74   5   8
   3  74  36  40
   3  74  36   5
   3  74  40  33
   3  74  40  36
   3  74  33   8
   3  74  33  40
   3  74   8   5
   3  74   8  33
   3  75  70  59
   3  75  70  52
   3  75  59  69
   3  75  59  70
   3  75  69  52
   3  75  69  59
   3  75  52  70
   3  75  52  69
   3  76  62  45
   3  76  62  38
   3  76  45  54
   3  76  45  62
   3  76  54  53
   3  76  54  45
   3  76  53  38
   3  76  53  54
   3  76  38  53
   3  76  38  62
   3  77  41  56
   4  77  41  79  59
   3  77  59  72
   4  77  59  79  41
   3  77  72  56
   3  77  72  59
   3  77  56  41
   3  77  56  72
   3  78  71  59
   3  78  71  57
   3  78  59  71
   4  78  59  80  42
   3  78  42  57
   4  78  42  80  59
   3  78  57  42
   3  78  57  71
   3  79  80  59
   4  79  80  42  41
   3  79  59  80
   4  79  59  77  41
   3  80  59  79
   4  80  59  78  42
   3  80  79  59
   4  80  79  41  42
   3  81  55  58
   3  81  55  46
   3  81  58  68
   3  81  58  55
   3  81  68  67
   3  81  68  58
   3  81  67  46
   3  81  67  68
   3  81  46  67
   3  81  46  55
   3  82  71  60
   3  82  71  59
   3  82  60  69
   3  82  60  71
   3  82  69  59
   3  82  69  60
   3  82  59  71
   3  82  59  69
   3  83  70  61
   3  83  70  59
   3  83  61  72
   3  83  61  70
   3  83  72  59
   3  83  72  61
   3  83  59  70
   3  83  59  72
   3  84  22  53
   3  84  22  24
   3  84  53  63
   3  84  53  22
   3  84  63  24
   3  84  63  53
   3  84  24  22
   3  84  24  63
   3  85  64  54
   3  85  64  25
   3  85  54  64
   3  85  54  23
   3  85  23  25
   3  85  23  54
   3  85  25  64
   3  85  25  23
   3  86  87  88
   4  86  87  53  63
   3  86  88  87
   4  86  88  54  64
   3  86  64   4
   4  86  64  54  88
   3  86   4   3
   3  86   4  64
   3  86   3   4
   3  86   3  63
   3  86  63   3
   4  86  63  53  87
   3  87  88  86
   4  87  88  54  53
   3  87  86  88
   4  87  86  63  53
   3  88  86  87
   4  88  86  64  54
   3  88  87  86
   4  88  87  53  54
