# Generated by dad_to_polygons. Vertex data from Humppa's .off file,
# polygons parsed from .dad file.
COFF
109 372 109
-6.567758 1.157094 6.381920 0.500000 0.500000 0.500000 1.0
-6.567758 -1.157094 6.381920 0.500000 0.500000 0.500000 1.0
-0.028257 -2.075133 6.125076 0.500000 0.500000 0.500000 1.0
7.429267 -1.064567 6.402731 0.500000 0.500000 0.500000 1.0
7.429267 1.064567 6.402731 0.500000 0.500000 0.500000 1.0
-0.028257 2.075133 6.125076 0.500000 0.500000 0.500000 1.0
1.127027 -1.694559 6.334590 0.500000 0.500000 0.500000 1.0
1.127027 1.694559 6.334590 0.500000 0.500000 0.500000 1.0
-1.149720 1.690856 6.290966 0.500000 0.500000 0.500000 1.0
-1.149720 -1.690856 6.290966 0.500000 0.500000 0.500000 1.0
2.007046 -1.334173 6.645137 0.500000 0.500000 0.500000 1.0
2.007046 1.334173 6.645137 0.500000 0.500000 0.500000 1.0
-2.038751 1.356173 6.603501 0.500000 0.500000 0.500000 1.0
-2.038751 -1.356173 6.603501 0.500000 0.500000 0.500000 1.0
3.055238 -1.264153 6.642061 0.500000 0.500000 0.500000 1.0
3.055238 1.264153 6.642061 0.500000 0.500000 0.500000 1.0
-3.032691 1.256183 6.573424 0.500000 0.500000 0.500000 1.0
-3.032691 -1.256183 6.573424 0.500000 0.500000 0.500000 1.0
4.053808 -1.217809 6.651199 0.500000 0.500000 0.500000 1.0
4.053808 1.217809 6.651199 0.500000 0.500000 0.500000 1.0
-4.027531 1.178180 6.634066 0.500000 0.500000 0.500000 1.0
-4.027531 -1.178180 6.634066 0.500000 0.500000 0.500000 1.0
5.055895 -1.412088 6.329092 0.500000 0.500000 0.500000 1.0
5.055895 1.412088 6.329092 0.500000 0.500000 0.500000 1.0
6.099887 -1.354617 6.325489 0.500000 0.500000 0.500000 1.0
6.099887 1.354617 6.325489 0.500000 0.500000 0.500000 1.0
-5.004408 1.323242 6.348968 0.500000 0.500000 0.500000 1.0
-5.004408 -1.323242 6.348968 0.500000 0.500000 0.500000 1.0
-7.725001 -0.000196 6.319867 0.500000 0.500000 0.500000 1.0
8.495445 0.000125 6.407330 0.500000 0.500000 0.500000 1.0
-2.186949 -0.966982 4.121272 0.500000 0.500000 0.500000 1.0
1.272207 -1.646629 5.187175 0.500000 0.500000 0.500000 1.0
1.272207 1.646629 5.187175 0.500000 0.500000 0.500000 1.0
-2.505969 1.303846 5.451679 0.500000 0.500000 0.500000 1.0
-2.505969 -1.303846 5.451679 0.500000 0.500000 0.500000 1.0
0.018088 -1.794340 4.814020 0.500000 0.500000 0.500000 1.0
0.018080 1.794395 4.814020 0.500000 0.500000 0.500000 1.0
2.525194 1.284507 5.463073 0.500000 0.500000 0.500000 1.0
4.101403 -1.243944 5.732215 0.500000 0.500000 0.500000 1.0
-1.039506 -1.607117 4.396894 0.500000 0.500000 0.500000 1.0
-1.039506 1.607115 4.396895 0.500000 0.500000 0.500000 1.0
-1.597751 -0.995319 2.645185 0.500000 0.500000 0.500000 1.0
-1.597751 0.995318 2.645185 0.500000 0.500000 0.500000 1.0
1.127872 1.594099 4.005997 0.500000 0.500000 0.500000 1.0
1.127872 -1.594101 4.005997 0.500000 0.500000 0.500000 1.0
4.101403 1.243944 5.732215 0.500000 0.500000 0.500000 1.0
-4.049199 1.202390 5.821987 0.500000 0.500000 0.500000 1.0
2.418639 0.000000 4.402772 0.500000 0.500000 0.500000 1.0
1.596193 1.204913 3.599023 0.500000 0.500000 0.500000 1.0
1.596193 -1.204913 3.599023 0.500000 0.500000 0.500000 1.0
0.120839 1.667946 3.742578 0.500000 0.500000 0.500000 1.0
0.120848 -1.667800 3.742578 0.500000 0.500000 0.500000 1.0
1.875642 0.000000 3.290705 0.500000 0.500000 0.500000 1.0
5.100925 -0.750703 3.974448 1.0 1.0 0.0 1.0
5.100925 0.750703 3.974448 1.0 1.0 0.0 1.0
-3.313147 -0.000000 4.880418 0.500000 0.500000 0.500000 1.0
-0.803121 -1.471228 3.510792 0.500000 0.500000 0.500000 1.0
-0.803121 1.471226 3.510792 0.500000 0.500000 0.500000 1.0
-4.049199 -1.202390 5.821987 0.500000 0.500000 0.500000 1.0
0.150401 0.000000 1.053561 1.0 1.0 0.0 1.0
1.024695 1.463775 3.009247 0.500000 0.500000 0.500000 1.0
1.024686 -1.463784 3.009247 0.500000 0.500000 0.500000 1.0
3.152248 0.000000 4.661939 0.500000 0.500000 0.500000 1.0
6.745453 -1.203433 5.760351 0.500000 0.500000 0.500000 1.0
6.745453 1.203433 5.760351 0.500000 0.500000 0.500000 1.0
2.525194 -1.284507 5.463073 0.500000 0.500000 0.500000 1.0
1.774874 1.463476 4.601095 0.500000 0.500000 0.500000 1.0
-5.010550 0.815575 4.581897 1.0 1.0 0.0 1.0
-5.010550 -0.815575 4.581897 1.0 1.0 0.0 1.0
1.405821 1.003749 2.624190 0.500000 0.500000 0.500000 1.0
1.405821 -1.003750 2.624190 0.500000 0.500000 0.500000 1.0
0.235259 1.524459 2.735906 0.500000 0.500000 0.500000 1.0
0.235259 -1.524460 2.735906 0.500000 0.500000 0.500000 1.0
1.774874 -1.463476 4.601095 0.500000 0.500000 0.500000 1.0
-1.248898 1.660606 5.345231 0.500000 0.500000 0.500000 1.0
1.574131 -0.000000 2.413010 0.500000 0.500000 0.500000 1.0
4.119638 0.000000 5.597101 0.500000 0.500000 0.500000 1.0
-0.449418 -1.346891 2.359953 0.500000 0.500000 0.500000 1.0
-0.449418 1.346891 2.359953 0.500000 0.500000 0.500000 1.0
-1.432383 -0.778430 1.775013 0.500000 0.500000 0.500000 1.0
-1.432383 0.778430 1.775013 0.500000 0.500000 0.500000 1.0
-4.049573 0.000000 5.558461 0.500000 0.500000 0.500000 1.0
0.858811 1.193387 2.092580 0.500000 0.500000 0.500000 1.0
0.858811 -1.193387 2.092580 0.500000 0.500000 0.500000 1.0
5.830590 -1.268837 5.353755 0.500000 0.500000 0.500000 1.0
5.830590 1.268837 5.353755 0.500000 0.500000 0.500000 1.0
7.092703 -0.000000 5.519193 0.500000 0.500000 0.500000 1.0
6.415729 -0.536072 4.605282 0.500000 0.500000 0.500000 1.0
6.415729 0.536072 4.605282 0.500000 0.500000 0.500000 1.0
6.323452 -0.954367 4.953156 0.500000 0.500000 0.500000 1.0
6.323452 0.954367 4.953156 0.500000 0.500000 0.500000 1.0
-1.248898 -1.660607 5.345231 0.500000 0.500000 0.500000 1.0
-6.260664 0.566621 5.307088 0.500000 0.500000 0.500000 1.0
-6.260664 -0.566621 5.307088 0.500000 0.500000 0.500000 1.0
5.087772 -1.290765 5.304691 0.500000 0.500000 0.500000 1.0
5.087772 1.290765 5.304691 0.500000 0.500000 0.500000 1.0
-6.099258 0.970163 5.588872 0.500000 0.500000 0.500000 1.0
-6.099258 -0.970163 5.588872 0.500000 0.500000 0.500000 1.0
0.135042 1.138429 1.888546 0.500000 0.500000 0.500000 1.0
0.135041 -1.138429 1.888546 0.500000 0.500000 0.500000 1.0
-2.186950 0.966982 4.121271 0.500000 0.500000 0.500000 1.0
1.112536 0.676891 1.851819 0.500000 0.500000 0.500000 1.0
1.112536 -0.676891 1.851819 0.500000 0.500000 0.500000 1.0
-6.916420 0.643471 5.917361 0.500000 0.500000 0.500000 1.0
-6.916420 -0.643471 5.917361 0.500000 0.500000 0.500000 1.0
4.549525 -1.013634 4.887233 0.500000 0.500000 0.500000 1.0
4.549525 1.013634 4.887233 0.500000 0.500000 0.500000 1.0
4.563125 -0.361050 4.763946 0.500000 0.500000 0.500000 1.0
4.563125 0.361050 4.763946 0.500000 0.500000 0.500000 1.0
3 1 97 104
3 1 104 97
3 2 31 6
3 2 6 31
3 2 91 9
3 2 9 91
3 3 24 63
3 3 63 24
3 3 86 29
3 3 29 86
3 3 86 63
3 3 63 86
3 4 86 64
3 4 64 86
3 5 7 32
3 5 32 7
3 6 65 10
3 6 10 65
3 8 74 5
3 8 5 74
3 8 74 33
3 8 33 74
3 9 91 34
3 9 34 91
3 10 14 65
3 10 65 14
3 11 7 37
3 11 37 7
3 11 37 15
3 11 15 37
3 12 8 33
3 12 33 8
3 12 33 16
3 12 16 33
3 14 18 38
3 14 38 18
3 14 38 65
3 14 65 38
3 16 46 20
3 16 20 46
3 17 34 13
3 17 13 34
3 19 23 45
3 19 45 23
3 21 17 58
3 21 58 17
3 22 38 94
3 22 94 38
3 22 84 94
3 22 94 84
3 23 95 85
3 23 85 95
3 24 22 84
3 24 84 22
3 25 64 85
3 25 85 64
3 25 85 23
3 25 23 85
3 26 46 20
3 26 20 46
3 26 67 46
3 26 46 67
3 27 1 97
3 27 97 1
3 27 58 21
3 27 21 58
3 28 1 104
3 28 104 1
3 28 92 93
3 28 93 92
3 28 103 0
3 28 0 103
3 28 103 92
3 28 92 103
3 29 86 4
3 29 4 86
3 30 42 41
3 30 41 42
3 30 56 39
3 30 39 56
3 30 100 42
3 30 42 100
3 31 6 65
3 31 65 6
3 31 65 73
3 31 73 65
3 31 73 44
3 31 44 73
3 32 5 36
3 32 36 5
3 32 37 7
3 32 7 37
3 32 43 66
3 32 66 43
3 33 40 74
3 33 74 40
3 33 46 16
3 33 16 46
3 33 55 46
3 33 46 55
3 33 100 55
3 33 55 100
3 34 13 9
3 34 9 13
3 34 30 39
3 34 39 30
3 34 55 30
3 34 30 55
3 34 58 17
3 34 17 58
3 35 2 91
3 35 91 2
3 35 31 2
3 35 2 31
3 35 31 44
3 35 44 31
3 35 39 91
3 35 91 39
3 36 32 43
3 36 43 32
3 36 40 74
3 36 74 40
3 36 43 50
3 36 50 43
3 36 74 5
3 36 5 74
3 37 45 15
3 37 15 45
3 37 47 66
3 37 66 47
3 37 62 45
3 37 45 62
3 38 22 18
3 38 18 22
3 38 62 76
3 38 76 62
3 38 65 62
3 38 62 65
3 38 76 105
3 38 105 76
3 38 94 105
3 38 105 94
3 39 35 51
3 39 51 35
3 39 51 56
3 39 56 51
3 40 50 36
3 40 36 50
3 40 100 33
3 40 33 100
3 41 77 56
3 41 56 77
3 41 79 80
3 41 80 79
3 41 80 42
3 41 42 80
3 42 78 57
3 42 57 78
3 43 50 60
3 43 60 50
3 44 49 61
3 44 61 49
3 44 49 73
3 44 73 49
3 44 51 35
3 44 35 51
3 44 61 51
3 44 51 61
3 45 15 19
3 45 19 15
3 45 76 62
3 45 62 76
3 45 95 23
3 45 23 95
3 45 95 106
3 45 106 95
3 47 49 73
3 47 73 49
3 47 52 49
3 47 49 52
3 47 62 37
3 47 37 62
3 47 62 65
3 47 65 62
3 47 66 48
3 47 48 66
3 48 43 60
3 48 60 43
3 48 52 47
3 48 47 52
3 48 60 69
3 48 69 60
3 48 66 43
3 48 43 66
3 48 69 52
3 48 52 69
3 49 52 70
3 49 70 52
3 49 70 61
3 49 61 70
3 50 40 57
3 50 57 40
3 50 60 71
3 50 71 60
3 50 71 57
3 50 57 71
3 51 56 72
3 51 72 56
3 51 72 61
3 51 61 72
3 52 75 69
3 52 69 75
3 52 75 70
3 52 70 75
3 53 84 94
3 53 94 84
3 53 87 88
3 53 88 87
3 53 87 89
3 53 89 87
3 53 88 54
3 53 54 88
3 53 89 84
3 53 84 89
3 53 94 105
3 53 105 94
3 53 107 108
3 53 108 107
3 53 108 54
3 53 54 108
3 54 85 95
3 54 95 85
3 54 88 90
3 54 90 88
3 54 90 85
3 54 85 90
3 54 106 95
3 54 95 106
3 55 46 81
3 55 81 46
3 55 58 34
3 55 34 58
3 56 41 30
3 56 30 41
3 56 77 72
3 56 72 77
3 57 42 100
3 57 100 42
3 58 55 81
3 58 81 55
3 59 77 99
3 59 99 77
3 59 82 101
3 59 101 82
3 59 101 75
3 59 75 101
3 59 102 83
3 59 83 102
3 60 69 82
3 60 82 69
3 60 82 71
3 60 71 82
3 61 72 83
3 61 83 72
3 63 24 84
3 63 84 24
3 63 84 89
3 63 89 84
3 64 4 25
3 64 25 4
3 64 90 85
3 64 85 90
3 66 37 32
3 66 32 37
3 67 68 93
3 67 93 68
3 67 81 46
3 67 46 81
3 67 92 96
3 67 96 92
3 67 93 92
3 67 92 93
3 67 96 26
3 67 26 96
3 68 27 58
3 68 58 27
3 68 58 81
3 68 81 58
3 69 101 75
3 69 75 101
3 69 101 82
3 69 82 101
3 70 83 61
3 70 61 83
3 70 102 75
3 70 75 102
3 71 78 57
3 71 57 78
3 71 82 98
3 71 98 82
3 71 98 78
3 71 78 98
3 72 83 99
3 72 99 83
3 73 47 65
3 73 65 47
3 75 102 59
3 75 59 102
3 77 59 79
3 77 79 59
3 77 72 99
3 77 99 72
3 77 79 41
3 77 41 79
3 78 59 80
3 78 80 59
3 78 80 42
3 78 42 80
3 80 79 59
3 80 59 79
3 81 68 67
3 81 67 68
3 82 59 98
3 82 98 59
3 86 88 87
3 86 87 88
3 86 89 63
3 86 63 89
3 89 86 87
3 89 87 86
3 90 64 86
3 90 86 64
3 90 88 86
3 90 86 88
3 91 34 39
3 91 39 34
3 92 103 96
3 92 96 103
3 93 104 28
3 93 28 104
3 96 26 0
3 96 0 26
3 96 103 0
3 96 0 103
3 97 68 27
3 97 27 68
3 97 93 68
3 97 68 93
3 98 78 59
3 98 59 78
3 99 83 59
3 99 59 83
3 100 30 55
3 100 55 30
3 100 57 40
3 100 40 57
3 102 70 83
3 102 83 70
3 104 97 93
3 104 93 97
3 105 76 107
3 105 107 76
3 105 107 53
3 105 53 107
3 106 45 76
3 106 76 45
3 106 54 108
3 106 108 54
3 106 108 76
3 106 76 108
3 108 107 76
3 108 76 107
