# Generated by dad_to_polygons. Vertex data from Humppa's .off file,
# polygons parsed from .dad file.
COFF
117 404 117
-6.608167 1.246208 6.727290 0.500000 0.500000 0.500000 1.0
-6.608167 -1.246208 6.727290 0.500000 0.500000 0.500000 1.0
-0.028516 -2.118547 6.480518 0.500000 0.500000 0.500000 1.0
7.460465 -1.121349 6.741747 0.500000 0.500000 0.500000 1.0
7.460465 1.121349 6.741747 0.500000 0.500000 0.500000 1.0
-0.028516 2.118547 6.480518 0.500000 0.500000 0.500000 1.0
1.140262 -1.735102 6.693633 0.500000 0.500000 0.500000 1.0
1.140262 1.735102 6.693633 0.500000 0.500000 0.500000 1.0
-1.158129 1.732648 6.648719 0.500000 0.500000 0.500000 1.0
-1.158129 -1.732648 6.648719 0.500000 0.500000 0.500000 1.0
2.017906 -1.374673 7.010800 0.500000 0.500000 0.500000 1.0
2.017906 1.374673 7.010800 0.500000 0.500000 0.500000 1.0
-2.043499 1.396513 6.969922 0.500000 0.500000 0.500000 1.0
-2.043499 -1.396513 6.969922 0.500000 0.500000 0.500000 1.0
3.054195 -1.319032 6.993981 0.500000 0.500000 0.500000 1.0
3.054195 1.319032 6.993981 0.500000 0.500000 0.500000 1.0
-3.038273 1.314278 6.920408 0.500000 0.500000 0.500000 1.0
-3.038273 -1.314278 6.920408 0.500000 0.500000 0.500000 1.0
4.052997 -1.276918 6.998445 0.500000 0.500000 0.500000 1.0
4.052997 1.276918 6.998445 0.500000 0.500000 0.500000 1.0
-4.034151 1.245120 6.973952 0.500000 0.500000 0.500000 1.0
-4.034151 -1.245120 6.973952 0.500000 0.500000 0.500000 1.0
5.049967 -1.494145 6.646873 0.500000 0.500000 0.500000 1.0
5.049967 1.494145 6.646873 0.500000 0.500000 0.500000 1.0
6.110268 -1.428611 6.651414 0.500000 0.500000 0.500000 1.0
6.110268 1.428611 6.651414 0.500000 0.500000 0.500000 1.0
-5.001290 1.431182 6.642443 0.500000 0.500000 0.500000 1.0
-5.001290 -1.431182 6.642443 0.500000 0.500000 0.500000 1.0
-7.856504 -0.000000 6.628155 0.500000 0.500000 0.500000 1.0
8.582628 0.000000 6.752116 0.500000 0.500000 0.500000 1.0
-2.218881 -0.991095 4.405029 0.500000 0.500000 0.500000 1.0
1.291050 -1.689115 5.526311 0.500000 0.500000 0.500000 1.0
1.291050 1.689115 5.526311 0.500000 0.500000 0.500000 1.0
-2.531018 1.354682 5.789000 0.500000 0.500000 0.500000 1.0
-2.531018 -1.354682 5.789000 0.500000 0.500000 0.500000 1.0
0.020303 -1.837264 5.138441 0.500000 0.500000 0.500000 1.0
0.020303 1.837251 5.138441 0.500000 0.500000 0.500000 1.0
2.550632 1.330707 5.803307 0.500000 0.500000 0.500000 1.0
4.100347 -1.295538 6.034799 0.500000 0.500000 0.500000 1.0
-1.091677 -1.648243 4.724171 0.500000 0.500000 0.500000 1.0
-1.091676 1.648242 4.724171 0.500000 0.500000 0.500000 1.0
-1.614412 -0.964622 2.898144 0.500000 0.500000 0.500000 1.0
-1.614412 0.964622 2.898144 0.500000 0.500000 0.500000 1.0
1.152298 1.637307 4.325658 0.500000 0.500000 0.500000 1.0
1.152299 -1.637308 4.325658 0.500000 0.500000 0.500000 1.0
4.100347 1.295538 6.034799 0.500000 0.500000 0.500000 1.0
-4.064374 1.263614 6.090762 0.500000 0.500000 0.500000 1.0
2.474359 -0.000000 4.711899 0.500000 0.500000 0.500000 1.0
1.631299 1.240787 3.899053 0.500000 0.500000 0.500000 1.0
1.631299 -1.240787 3.899053 0.500000 0.500000 0.500000 1.0
0.121917 1.710910 4.037490 0.500000 0.500000 0.500000 1.0
0.121913 -1.710886 4.037490 0.500000 0.500000 0.500000 1.0
1.917647 -0.000000 3.558865 0.500000 0.500000 0.500000 1.0
5.154577 -0.750856 3.974448 1.0 1.0 0.0 1.0
5.154577 0.750856 3.974448 1.0 1.0 0.0 1.0
-3.342931 -0.000000 5.138899 0.500000 0.500000 0.500000 1.0
-0.865730 -1.500635 3.772403 0.500000 0.500000 0.500000 1.0
-0.865730 1.500635 3.772403 0.500000 0.500000 0.500000 1.0
-4.064374 -1.263614 6.090762 0.500000 0.500000 0.500000 1.0
0.175623 -0.000000 1.053561 1.0 1.0 0.0 1.0
1.045332 1.504283 3.299417 0.500000 0.500000 0.500000 1.0
1.045371 -1.504273 3.299417 0.500000 0.500000 0.500000 1.0
3.175983 0.000000 4.926994 0.500000 0.500000 0.500000 1.0
6.768520 -1.256409 6.103645 0.500000 0.500000 0.500000 1.0
6.768520 1.256409 6.103645 0.500000 0.500000 0.500000 1.0
2.550632 -1.330707 5.803307 0.500000 0.500000 0.500000 1.0
1.801307 1.504528 4.918156 0.500000 0.500000 0.500000 1.0
-5.026771 0.815617 4.581897 1.0 1.0 0.0 1.0
-5.026771 -0.815617 4.581897 1.0 1.0 0.0 1.0
1.437804 1.057170 2.889333 0.500000 0.500000 0.500000 1.0
1.437809 -1.057170 2.889333 0.500000 0.500000 0.500000 1.0
0.242736 1.572123 2.999856 0.500000 0.500000 0.500000 1.0
0.242806 -1.572107 2.999856 0.500000 0.500000 0.500000 1.0
1.801308 -1.504528 4.918156 0.500000 0.500000 0.500000 1.0
-1.262407 1.705410 5.688579 0.500000 0.500000 0.500000 1.0
1.610912 -0.000001 2.634638 0.500000 0.500000 0.500000 1.0
4.107952 0.000000 5.900024 0.500000 0.500000 0.500000 1.0
-0.496308 -1.380391 2.577102 0.500000 0.500000 0.500000 1.0
-0.496308 1.380391 2.577102 0.500000 0.500000 0.500000 1.0
-1.596297 -0.614710 2.012950 0.500000 0.500000 0.500000 1.0
-1.596297 0.614710 2.012950 0.500000 0.500000 0.500000 1.0
-4.064517 -0.000000 5.832502 0.500000 0.500000 0.500000 1.0
0.933313 1.319870 2.338986 1.000000 1.000000 1.000000 1.0
0.933311 -1.319871 2.338986 1.000000 1.000000 1.000000 1.0
5.902866 -1.334365 5.599838 0.500000 0.500000 0.500000 1.0
5.902866 1.334365 5.599838 0.500000 0.500000 0.500000 1.0
7.241929 0.000000 5.807704 0.500000 0.500000 0.500000 1.0
6.619509 -0.623829 4.792583 0.500000 0.500000 0.500000 1.0
6.619509 0.623829 4.792583 0.500000 0.500000 0.500000 1.0
6.490028 -0.968675 5.213402 0.500000 0.500000 0.500000 1.0
6.490028 0.968675 5.213402 0.500000 0.500000 0.500000 1.0
-1.262408 -1.705410 5.688579 0.500000 0.500000 0.500000 1.0
-6.564950 0.653999 5.495665 0.500000 0.500000 0.500000 1.0
-6.564950 -0.654000 5.495665 0.500000 0.500000 0.500000 1.0
5.145171 -1.370525 5.566312 0.500000 0.500000 0.500000 1.0
5.145169 1.370537 5.566312 0.500000 0.500000 0.500000 1.0
-6.277863 1.028837 5.839564 0.500000 0.500000 0.500000 1.0
-6.277863 -1.028837 5.839564 0.500000 0.500000 0.500000 1.0
0.188041 1.334904 2.095196 1.000000 1.000000 1.000000 1.0
0.188039 -1.334904 2.095196 1.000000 1.000000 1.000000 1.0
-2.218880 0.991095 4.405029 0.500000 0.500000 0.500000 1.0
1.245220 0.807012 2.064346 1.000000 1.000000 1.000000 1.0
1.245219 -0.807012 2.064346 1.000000 1.000000 1.000000 1.0
-7.089026 0.692398 6.193738 0.500000 0.500000 0.500000 1.0
-7.089026 -0.692399 6.193738 0.500000 0.500000 0.500000 1.0
4.563614 -1.059615 5.233271 0.500000 0.500000 0.500000 1.0
4.563612 1.059616 5.233271 0.500000 0.500000 0.500000 1.0
4.324041 -0.367026 4.797700 0.500000 0.500000 0.500000 1.0
4.324041 0.367026 4.797700 0.500000 0.500000 0.500000 1.0
-1.846615 -0.000000 2.923932 0.500000 0.500000 0.500000 1.0
-0.327836 -0.949771 1.843028 1.000000 1.000000 1.000000 1.0
-0.327836 0.949771 1.843028 1.000000 1.000000 1.000000 1.0
1.154271 -0.000000 1.828632 1.000000 1.000000 1.000000 1.0
-0.918814 -0.352091 1.469102 1.000000 1.000000 1.000000 1.0
-0.918814 0.352091 1.469102 1.000000 1.000000 1.000000 1.0
-5.036058 1.199152 5.654763 0.500000 0.500000 0.500000 1.0
-5.036058 -1.199152 5.654763 0.500000 0.500000 0.500000 1.0
3 1 104 28
3 1 28 104
3 1 104 97
3 1 97 104
3 2 31 6
3 2 6 31
3 4 64 25
3 4 25 64
3 5 7 32
3 5 32 7
3 5 32 36
3 5 36 32
3 7 37 32
3 7 32 37
3 8 74 33
3 8 33 74
3 10 65 6
3 10 6 65
3 11 37 7
3 11 7 37
3 12 8 33
3 12 33 8
3 13 34 9
3 13 9 34
3 14 10 65
3 14 65 10
3 14 38 18
3 14 18 38
3 14 65 38
3 14 38 65
3 15 37 11
3 15 11 37
3 15 45 37
3 15 37 45
3 16 20 46
3 16 46 20
3 16 33 12
3 16 12 33
3 17 13 34
3 17 34 13
3 17 34 58
3 17 58 34
3 18 38 22
3 18 22 38
3 19 23 45
3 19 45 23
3 19 45 15
3 19 15 45
3 21 58 17
3 21 17 58
3 22 38 94
3 22 94 38
3 23 95 85
3 23 85 95
3 24 22 84
3 24 84 22
3 24 63 3
3 24 3 63
3 24 84 63
3 24 63 84
3 25 23 85
3 25 85 23
3 26 96 115
3 26 115 96
3 26 115 46
3 26 46 115
3 27 1 97
3 27 97 1
3 27 58 21
3 27 21 58
3 27 58 116
3 27 116 58
3 28 92 93
3 28 93 92
3 28 93 104
3 28 104 93
3 29 4 86
3 29 86 4
3 30 39 56
3 30 56 39
3 30 41 109
3 30 109 41
3 30 55 100
3 30 100 55
3 30 56 41
3 30 41 56
3 30 109 100
3 30 100 109
3 31 6 65
3 31 65 6
3 31 35 2
3 31 2 35
3 31 44 35
3 31 35 44
3 31 44 73
3 31 73 44
3 31 65 73
3 31 73 65
3 32 43 66
3 32 66 43
3 33 40 100
3 33 100 40
3 33 46 55
3 33 55 46
3 33 55 100
3 33 100 55
3 34 9 91
3 34 91 9
3 34 39 30
3 34 30 39
3 35 39 91
3 35 91 39
3 35 51 44
3 35 44 51
3 35 91 2
3 35 2 91
3 36 32 43
3 36 43 32
3 36 43 50
3 36 50 43
3 36 74 5
3 36 5 74
3 37 45 62
3 37 62 45
3 37 47 66
3 37 66 47
3 37 66 32
3 37 32 66
3 38 76 105
3 38 105 76
3 39 35 51
3 39 51 35
3 39 51 56
3 39 56 51
3 39 91 34
3 39 34 91
3 40 33 74
3 40 74 33
3 40 36 50
3 40 50 36
3 40 74 36
3 40 36 74
3 40 100 57
3 40 57 100
3 41 79 110
3 41 110 79
3 41 109 79
3 41 79 109
3 41 110 77
3 41 77 110
3 42 57 78
3 42 78 57
3 42 78 111
3 42 111 78
3 42 100 57
3 42 57 100
3 43 48 66
3 43 66 48
3 43 50 60
3 43 60 50
3 44 61 51
3 44 51 61
3 45 62 76
3 45 76 62
3 45 95 23
3 45 23 95
3 46 16 33
3 46 33 16
3 46 20 26
3 46 26 20
3 46 55 81
3 46 81 55
3 47 48 52
3 47 52 48
3 47 52 49
3 47 49 52
3 47 65 62
3 47 62 65
3 47 65 73
3 47 73 65
3 47 66 48
3 47 48 66
3 48 60 43
3 48 43 60
3 48 69 52
3 48 52 69
3 48 69 60
3 48 60 69
3 49 44 61
3 49 61 44
3 49 70 52
3 49 52 70
3 49 70 61
3 49 61 70
3 50 57 40
3 50 40 57
3 50 57 71
3 50 71 57
3 51 72 61
3 51 61 72
3 53 84 94
3 53 94 84
3 54 53 87
3 54 87 53
3 54 76 108
3 54 108 76
3 54 87 88
3 54 88 87
3 54 90 85
3 54 85 90
3 54 95 85
3 54 85 95
3 54 106 76
3 54 76 106
3 54 107 53
3 54 53 107
3 54 108 107
3 54 107 108
3 55 34 30
3 55 30 34
3 55 58 34
3 55 34 58
3 55 58 81
3 55 81 58
3 56 41 77
3 56 77 41
3 57 78 71
3 57 71 78
3 58 116 68
3 58 68 116
3 59 82 98
3 59 98 82
3 59 83 99
3 59 99 83
3 59 83 102
3 59 102 83
3 60 69 82
3 60 82 69
3 60 71 82
3 60 82 71
3 61 83 70
3 61 70 83
3 62 47 37
3 62 37 47
3 62 65 38
3 62 38 65
3 62 76 38
3 62 38 76
3 64 4 86
3 64 86 4
3 64 85 25
3 64 25 85
3 64 90 85
3 64 85 90
3 64 90 86
3 64 86 90
3 67 68 93
3 67 93 68
3 67 81 46
3 67 46 81
3 67 92 96
3 67 96 92
3 67 93 92
3 67 92 93
3 67 96 115
3 67 115 96
3 67 115 46
3 67 46 115
3 68 58 81
3 68 81 58
3 68 93 97
3 68 97 93
3 69 75 52
3 69 52 75
3 69 75 101
3 69 101 75
3 69 82 101
3 69 101 82
3 70 52 75
3 70 75 52
3 70 75 102
3 70 102 75
3 70 83 102
3 70 102 83
3 71 60 50
3 71 50 60
3 72 51 56
3 72 56 51
3 72 61 83
3 72 83 61
3 72 77 56
3 72 56 77
3 72 99 83
3 72 83 99
3 73 49 44
3 73 44 49
3 73 49 47
3 73 47 49
3 74 5 8
3 74 8 5
3 75 112 101
3 75 101 112
3 76 45 106
3 76 106 45
3 77 72 99
3 77 99 72
3 77 110 99
3 77 99 110
3 78 98 71
3 78 71 98
3 79 80 114
3 79 114 80
3 79 114 113
3 79 113 114
3 80 79 109
3 80 109 79
3 80 109 42
3 80 42 109
3 80 111 42
3 80 42 111
3 81 68 67
3 81 67 68
3 82 71 98
3 82 98 71
3 84 89 53
3 84 53 89
3 84 89 63
3 84 63 89
3 84 94 22
3 84 22 94
3 86 3 29
3 86 29 3
3 86 63 3
3 86 3 63
3 86 87 89
3 86 89 87
3 86 88 87
3 86 87 88
3 88 90 86
3 88 86 90
3 89 53 87
3 89 87 53
3 89 63 86
3 89 86 63
3 90 54 88
3 90 88 54
3 91 2 9
3 91 9 2
3 92 28 103
3 92 103 28
3 92 103 96
3 92 96 103
3 94 105 38
3 94 38 105
3 94 105 53
3 94 53 105
3 95 106 45
3 95 45 106
3 96 0 26
3 96 26 0
3 97 116 68
3 97 68 116
3 98 111 78
3 98 78 111
3 101 59 82
3 101 82 59
3 101 59 112
3 101 112 59
3 103 0 96
3 103 96 0
3 103 28 0
3 103 0 28
3 104 93 97
3 104 97 93
3 105 76 107
3 105 107 76
3 105 107 53
3 105 53 107
3 106 95 54
3 106 54 95
3 107 108 76
3 107 76 108
3 109 42 100
3 109 100 42
3 110 59 113
3 110 113 59
3 110 99 59
3 110 59 99
3 110 113 79
3 110 79 113
3 111 59 98
3 111 98 59
3 111 80 114
3 111 114 80
3 111 114 59
3 111 59 114
3 112 75 102
3 112 102 75
3 112 102 59
3 112 59 102
3 114 113 59
3 114 59 113
3 116 27 97
3 116 97 27
