# Generated by dad_to_polygons. Vertex data from Humppa's .off file,
# polygons parsed from .dad file.
COFF
130 456 130
-6.642095 1.318958 7.055746 0.500000 0.500000 0.500000 1.0
-6.642095 -1.318958 7.055746 0.500000 0.500000 0.500000 1.0
-0.028763 -2.161276 6.835541 0.500000 0.500000 0.500000 1.0
7.490292 -1.175049 7.082518 0.500000 0.500000 0.500000 1.0
7.490292 1.175049 7.082518 0.500000 0.500000 0.500000 1.0
-0.028763 2.161276 6.835541 0.500000 0.500000 0.500000 1.0
1.153163 -1.774272 7.053050 0.500000 0.500000 0.500000 1.0
1.153163 1.774272 7.053050 0.500000 0.500000 0.500000 1.0
-1.166486 1.774697 7.005080 0.500000 0.500000 0.500000 1.0
-1.166486 -1.774697 7.005080 0.500000 0.500000 0.500000 1.0
2.027960 -1.413307 7.377407 0.500000 0.500000 0.500000 1.0
2.027960 1.413307 7.377407 0.500000 0.500000 0.500000 1.0
-2.048183 1.437301 7.334948 0.500000 0.500000 0.500000 1.0
-2.048183 -1.437301 7.334948 0.500000 0.500000 0.500000 1.0
3.052712 -1.370018 7.348468 0.500000 0.500000 0.500000 1.0
3.052712 1.370018 7.348468 0.500000 0.500000 0.500000 1.0
-3.043084 1.373063 7.265242 0.500000 0.500000 0.500000 1.0
-3.043084 -1.373063 7.265242 0.500000 0.500000 0.500000 1.0
4.051659 -1.331210 7.349020 0.500000 0.500000 0.500000 1.0
4.051659 1.331210 7.349020 0.500000 0.500000 0.500000 1.0
-4.039622 1.310030 7.314121 0.500000 0.500000 0.500000 1.0
-4.039622 -1.310030 7.314121 0.500000 0.500000 0.500000 1.0
5.043691 -1.571741 6.967020 0.500000 0.500000 0.500000 1.0
5.043691 1.571741 6.967020 0.500000 0.500000 0.500000 1.0
6.120668 -1.498908 6.979124 0.500000 0.500000 0.500000 1.0
6.120668 1.498908 6.979124 0.500000 0.500000 0.500000 1.0
-4.997537 1.520656 6.951775 0.500000 0.500000 0.500000 1.0
-4.997537 -1.520656 6.951775 0.500000 0.500000 0.500000 1.0
-7.961886 -0.000000 6.939489 0.500000 0.500000 0.500000 1.0
8.666450 0.000000 7.099092 0.500000 0.500000 0.500000 1.0
-2.249083 -1.030140 4.695846 0.500000 0.500000 0.500000 1.0
1.308203 -1.729487 5.865406 0.500000 0.500000 0.500000 1.0
1.308203 1.729487 5.865406 0.500000 0.500000 0.500000 1.0
-2.553569 1.404725 6.121222 0.500000 0.500000 0.500000 1.0
-2.553569 -1.404725 6.121222 0.500000 0.500000 0.500000 1.0
0.021882 -1.879015 5.463381 0.500000 0.500000 0.500000 1.0
0.021883 1.878993 5.463381 0.500000 0.500000 0.500000 1.0
2.569694 1.373172 6.146140 0.500000 0.500000 0.500000 1.0
4.099845 -1.343292 6.342602 0.500000 0.500000 0.500000 1.0
-1.124797 -1.695308 5.043634 0.500000 0.500000 0.500000 1.0
-1.124797 1.695307 5.043634 0.500000 0.500000 0.500000 1.0
-1.653472 -0.893315 3.169084 0.500000 0.500000 0.500000 1.0
-1.653472 0.893315 3.169084 0.500000 0.500000 0.500000 1.0
1.172954 1.677953 4.645837 0.500000 0.500000 0.500000 1.0
1.172954 -1.677953 4.645837 0.500000 0.500000 0.500000 1.0
4.099845 1.343292 6.342602 0.500000 0.500000 0.500000 1.0
-4.076237 1.327962 6.359673 0.500000 0.500000 0.500000 1.0
2.515129 -0.000000 5.023521 0.500000 0.500000 0.500000 1.0
1.659913 1.272339 4.200190 0.500000 0.500000 0.500000 1.0
1.659914 -1.272339 4.200190 0.500000 0.500000 0.500000 1.0
0.122291 1.753748 4.333421 0.500000 0.500000 0.500000 1.0
0.122206 -1.753644 4.333422 0.500000 0.500000 0.500000 1.0
1.950145 -0.000000 3.831090 0.500000 0.500000 0.500000 1.0
5.199153 -0.750797 3.974448 1.0 1.0 0.0 1.0
5.199153 0.750797 3.974448 1.0 1.0 0.0 1.0
-3.355709 -0.000000 5.386750 0.500000 0.500000 0.500000 1.0
-0.917592 -1.528482 4.010065 0.500000 0.500000 0.500000 1.0
-0.917592 1.528483 4.010065 0.500000 0.500000 0.500000 1.0
-4.076237 -1.327962 6.359673 0.500000 0.500000 0.500000 1.0
0.186745 -0.000000 1.053561 1.0 1.0 0.0 1.0
1.061463 1.542076 3.590967 0.500000 0.500000 0.500000 1.0
1.061410 -1.542041 3.590967 0.500000 0.500000 0.500000 1.0
3.169215 0.000000 5.227000 0.500000 0.500000 0.500000 1.0
6.786429 -1.313819 6.438013 0.500000 0.500000 0.500000 1.0
6.786429 1.313819 6.438013 0.500000 0.500000 0.500000 1.0
2.569694 -1.373172 6.146140 0.500000 0.500000 0.500000 1.0
1.823556 1.542777 5.236046 0.500000 0.500000 0.500000 1.0
-5.046052 0.815599 4.581897 1.0 1.0 0.0 1.0
-5.046052 -0.815599 4.581897 1.0 1.0 0.0 1.0
1.464832 1.080271 3.157153 0.500000 0.500000 0.500000 1.0
1.464823 -1.080206 3.157153 0.500000 0.500000 0.500000 1.0
0.223427 1.609187 3.265470 0.500000 0.500000 0.500000 1.0
0.223405 -1.609098 3.265470 0.500000 0.500000 0.500000 1.0
1.823556 -1.542777 5.236046 0.500000 0.500000 0.500000 1.0
-1.275671 1.749635 6.030431 0.500000 0.500000 0.500000 1.0
1.638555 -0.000014 2.866608 0.500000 0.500000 0.500000 1.0
4.106786 0.000000 6.194222 0.500000 0.500000 0.500000 1.0
-0.574721 -1.383864 2.810898 1.000000 1.000000 1.000000 1.0
-0.574721 1.383865 2.810898 1.000000 1.000000 1.000000 1.0
-1.738725 -0.531618 2.291136 1.000000 1.000000 1.000000 1.0
-1.738725 0.531617 2.291136 1.000000 1.000000 1.000000 1.0
-4.077485 -0.000000 6.079774 0.500000 0.500000 0.500000 1.0
0.959207 1.385209 2.595505 1.000000 1.000000 1.000000 1.0
0.959091 -1.385014 2.595505 1.000000 1.000000 1.000000 1.0
5.965150 -1.402485 5.866357 0.500000 0.500000 0.500000 1.0
5.965150 1.402485 5.866357 0.500000 0.500000 0.500000 1.0
7.337190 0.000000 6.106885 0.500000 0.500000 0.500000 1.0
6.775702 -0.690431 5.010118 0.500000 0.500000 0.500000 1.0
6.775702 0.690431 5.010118 0.500000 0.500000 0.500000 1.0
6.568726 -1.035684 5.463919 0.500000 0.500000 0.500000 1.0
6.568726 1.035684 5.463919 0.500000 0.500000 0.500000 1.0
-1.275671 -1.749635 6.030431 0.500000 0.500000 0.500000 1.0
-6.801871 0.705593 5.747382 0.500000 0.500000 0.500000 1.0
-6.801871 -0.705594 5.747382 0.500000 0.500000 0.500000 1.0
5.167568 -1.434586 5.805702 0.500000 0.500000 0.500000 1.0
5.167482 1.434415 5.805702 0.500000 0.500000 0.500000 1.0
-6.409817 1.094122 6.126221 0.500000 0.500000 0.500000 1.0
-6.409817 -1.094122 6.126221 0.500000 0.500000 0.500000 1.0
0.234845 1.432173 2.305864 1.000000 1.000000 1.000000 1.0
0.234846 -1.432173 2.305864 1.000000 1.000000 1.000000 1.0
-2.249083 1.030139 4.695846 0.500000 0.500000 0.500000 1.0
1.287386 0.897331 2.273196 1.000000 1.000000 1.000000 1.0
1.287387 -0.897332 2.273196 1.000000 1.000000 1.000000 1.0
-7.216397 0.699970 6.477139 0.500000 0.500000 0.500000 1.0
-7.216397 -0.699970 6.477139 0.500000 0.500000 0.500000 1.0
4.544291 -1.051493 5.570262 0.500000 0.500000 0.500000 1.0
4.544288 1.051439 5.570262 0.500000 0.500000 0.500000 1.0
4.227742 -0.368864 4.882211 0.500000 0.500000 0.500000 1.0
4.227742 0.368864 4.882212 0.500000 0.500000 0.500000 1.0
-2.089376 -0.000000 3.249028 0.500000 0.500000 0.500000 1.0
-0.584907 -1.106614 2.091693 1.000000 1.000000 1.000000 1.0
-0.584907 1.106614 2.091693 1.000000 1.000000 1.000000 1.0
1.412003 -0.000028 2.052065 1.000000 1.000000 1.000000 1.0
-1.258005 -0.402304 1.501568 1.000000 1.000000 1.000000 1.0
-1.258005 0.402304 1.501568 1.000000 1.000000 1.000000 1.0
-5.062853 1.332835 5.913206 0.500000 0.500000 0.500000 1.0
-5.062849 -1.332843 5.913206 0.500000 0.500000 0.500000 1.0
0.709124 0.982217 1.805597 1.000000 1.000000 1.000000 1.0
0.709124 -0.982218 1.805597 1.000000 1.000000 1.000000 1.0
-2.440464 -0.000000 4.622420 0.500000 0.500000 0.500000 1.0
5.685641 -1.151139 4.942766 0.500000 0.500000 0.500000 1.0
5.685642 1.151139 4.942766 0.500000 0.500000 0.500000 1.0
-5.968355 0.802676 5.136157 0.500000 0.500000 0.500000 1.0
-5.968355 -0.802676 5.136157 0.500000 0.500000 0.500000 1.0
-4.510334 1.001994 5.503938 0.500000 0.500000 0.500000 1.0
-4.510334 -1.001994 5.503938 0.500000 0.500000 0.500000 1.0
-5.795008 0.970385 5.351797 0.500000 0.500000 0.500000 1.0
-5.795008 -0.970385 5.351797 0.500000 0.500000 0.500000 1.0
5.942184 -0.914243 4.709367 0.500000 0.500000 0.500000 1.0
5.942184 0.914243 4.709367 0.500000 0.500000 0.500000 1.0
3 0 96 26
3 0 26 96
3 1 97 27
3 1 27 97
3 2 31 6
3 2 6 31
3 2 31 35
3 2 35 31
3 2 91 35
3 2 35 91
3 3 86 29
3 3 29 86
3 3 86 63
3 3 63 86
3 4 25 64
3 4 64 25
3 4 64 86
3 4 86 64
3 5 7 32
3 5 32 7
3 6 10 65
3 6 65 10
3 7 37 32
3 7 32 37
3 8 33 74
3 8 74 33
3 9 91 2
3 9 2 91
3 9 91 34
3 9 34 91
3 10 14 65
3 10 65 14
3 11 37 7
3 11 7 37
3 12 8 33
3 12 33 8
3 12 33 16
3 12 16 33
3 13 17 34
3 13 34 17
3 13 34 9
3 13 9 34
3 15 11 37
3 15 37 11
3 15 37 45
3 15 45 37
3 18 14 38
3 18 38 14
3 18 38 22
3 18 22 38
3 19 45 15
3 19 15 45
3 20 46 16
3 20 16 46
3 21 58 17
3 21 17 58
3 22 84 94
3 22 94 84
3 23 45 19
3 23 19 45
3 23 45 95
3 23 95 45
3 24 63 3
3 24 3 63
3 24 84 63
3 24 63 84
3 25 85 23
3 25 23 85
3 26 46 20
3 26 20 46
3 26 115 96
3 26 96 115
3 27 58 21
3 27 21 58
3 28 92 93
3 28 93 92
3 28 93 104
3 28 104 93
3 28 103 92
3 28 92 103
3 29 4 86
3 29 86 4
3 30 34 39
3 30 39 34
3 30 41 109
3 30 109 41
3 30 55 119
3 30 119 55
3 30 56 41
3 30 41 56
3 30 109 119
3 30 119 109
3 31 6 65
3 31 65 6
3 31 44 35
3 31 35 44
3 31 44 73
3 31 73 44
3 31 65 73
3 31 73 65
3 32 5 36
3 32 36 5
3 32 66 37
3 32 37 66
3 32 66 43
3 32 43 66
3 33 40 74
3 33 74 40
3 33 46 16
3 33 16 46
3 33 55 46
3 33 46 55
3 33 100 40
3 33 40 100
3 33 100 55
3 33 55 100
3 34 55 30
3 34 30 55
3 34 58 17
3 34 17 58
3 34 91 39
3 34 39 91
3 35 39 91
3 35 91 39
3 35 51 39
3 35 39 51
3 36 40 50
3 36 50 40
3 36 40 74
3 36 74 40
3 36 43 32
3 36 32 43
3 37 47 62
3 37 62 47
3 37 66 47
3 37 47 66
3 38 22 94
3 38 94 22
3 38 62 65
3 38 65 62
3 38 62 76
3 38 76 62
3 38 76 105
3 38 105 76
3 39 51 56
3 39 56 51
3 40 100 57
3 40 57 100
3 41 56 77
3 41 77 56
3 41 79 110
3 41 110 79
3 41 109 79
3 41 79 109
3 41 110 77
3 41 77 110
3 42 80 109
3 42 109 80
3 42 80 111
3 42 111 80
3 42 109 100
3 42 100 109
3 42 111 78
3 42 78 111
3 43 36 50
3 43 50 36
3 43 66 48
3 43 48 66
3 44 51 35
3 44 35 51
3 44 61 49
3 44 49 61
3 45 37 62
3 45 62 37
3 45 76 62
3 45 62 76
3 45 106 76
3 45 76 106
3 46 26 115
3 46 115 26
3 46 55 81
3 46 81 55
3 47 52 48
3 47 48 52
3 47 65 62
3 47 62 65
3 47 65 73
3 47 73 65
3 48 47 66
3 48 66 47
3 48 60 43
3 48 43 60
3 49 52 47
3 49 47 52
3 49 70 52
3 49 52 70
3 50 43 60
3 50 60 43
3 50 57 40
3 50 40 57
3 50 60 71
3 50 71 60
3 50 71 57
3 50 57 71
3 51 44 61
3 51 61 44
3 51 72 61
3 51 61 72
3 52 69 48
3 52 48 69
3 52 75 69
3 52 69 75
3 53 54 88
3 53 88 54
3 53 76 107
3 53 107 76
3 53 88 87
3 53 87 88
3 53 94 120
3 53 120 94
3 53 105 76
3 53 76 105
3 53 120 128
3 53 128 120
3 54 76 108
3 54 108 76
3 54 106 76
3 54 76 106
3 54 106 95
3 54 95 106
3 54 107 53
3 54 53 107
3 54 108 107
3 54 107 108
3 54 121 129
3 54 129 121
3 55 34 58
3 55 58 34
3 55 58 81
3 55 81 58
3 55 119 100
3 55 100 119
3 56 30 39
3 56 39 30
3 56 72 51
3 56 51 72
3 57 71 78
3 57 78 71
3 58 27 116
3 58 116 27
3 58 116 125
3 58 125 116
3 58 125 81
3 58 81 125
3 59 79 113
3 59 113 79
3 59 99 110
3 59 110 99
3 59 99 118
3 59 118 99
3 59 101 117
3 59 117 101
3 59 102 112
3 59 112 102
3 59 110 79
3 59 79 110
3 59 112 101
3 59 101 112
3 59 114 113
3 59 113 114
3 60 69 48
3 60 48 69
3 60 71 82
3 60 82 71
3 61 83 70
3 61 70 83
3 63 89 84
3 63 84 89
3 63 89 86
3 63 86 89
3 64 25 85
3 64 85 25
3 64 85 90
3 64 90 85
3 65 38 14
3 65 14 38
3 67 81 68
3 67 68 81
3 67 122 123
3 67 123 122
3 67 123 68
3 67 68 123
3 67 124 81
3 67 81 124
3 68 125 81
3 68 81 125
3 68 125 116
3 68 116 125
3 68 127 116
3 68 116 127
3 69 82 60
3 69 60 82
3 69 101 75
3 69 75 101
3 69 101 82
3 69 82 101
3 70 52 75
3 70 75 52
3 70 61 49
3 70 49 61
3 70 83 102
3 70 102 83
3 70 102 75
3 70 75 102
3 71 78 98
3 71 98 78
3 72 77 56
3 72 56 77
3 72 77 99
3 72 99 77
3 72 83 61
3 72 61 83
3 72 99 83
3 72 83 99
3 73 47 49
3 73 49 47
3 73 49 44
3 73 44 49
3 74 8 5
3 74 5 8
3 74 36 5
3 74 5 36
3 75 101 112
3 75 112 101
3 76 108 107
3 76 107 108
3 77 110 99
3 77 99 110
3 78 57 42
3 78 42 57
3 78 98 111
3 78 111 98
3 79 80 109
3 79 109 80
3 79 80 114
3 79 114 80
3 79 114 113
3 79 113 114
3 82 71 98
3 82 98 71
3 82 98 117
3 82 117 98
3 83 102 118
3 83 118 102
3 83 118 99
3 83 99 118
3 84 22 24
3 84 24 22
3 85 95 23
3 85 23 95
3 85 121 95
3 85 95 121
3 86 87 89
3 86 89 87
3 86 88 87
3 86 87 88
3 86 88 90
3 86 90 88
3 86 90 64
3 86 64 90
3 87 89 128
3 87 128 89
3 89 84 120
3 89 120 84
3 90 121 85
3 90 85 121
3 90 121 129
3 90 129 121
3 90 129 88
3 90 88 129
3 92 96 126
3 92 126 96
3 92 103 96
3 92 96 103
3 93 104 97
3 93 97 104
3 93 122 92
3 93 92 122
3 93 123 122
3 93 122 123
3 94 53 105
3 94 105 53
3 94 105 38
3 94 38 105
3 95 54 121
3 95 121 54
3 95 106 45
3 95 45 106
3 97 27 116
3 97 116 27
3 98 59 117
3 98 117 59
3 100 42 57
3 100 57 42
3 101 117 82
3 101 82 117
3 102 59 118
3 102 118 59
3 102 75 112
3 102 112 75
3 103 28 0
3 103 0 28
3 103 96 0
3 103 0 96
3 104 1 28
3 104 28 1
3 104 1 97
3 104 97 1
3 109 119 100
3 109 100 119
3 111 59 114
3 111 114 59
3 111 98 59
3 111 59 98
3 111 114 80
3 111 80 114
3 115 124 67
3 115 67 124
3 115 126 67
3 115 67 126
3 120 89 128
3 120 128 89
3 120 94 84
3 120 84 94
3 122 92 126
3 122 126 92
3 124 46 81
3 124 81 46
3 124 115 46
3 124 46 115
3 126 115 96
3 126 96 115
3 126 122 67
3 126 67 122
3 127 93 123
3 127 123 93
3 127 97 93
3 127 93 97
3 127 97 116
3 127 116 97
3 127 123 68
3 127 68 123
3 128 53 87
3 128 87 53
3 129 54 88
3 129 88 54
