COFF
159 604 159

-6.70715 1.46254 8.07842 0.5 0.5 0.5 1
-6.70719 -1.46253 8.07842 0.5 0.5 0.5 1
-0.0280435 -2.2717 7.91252 0.5 0.5 0.5 1
7.56007 -1.28832 8.1658 0.5 0.5 0.5 1
7.56007 1.28832 8.16579 0.5 0.5 0.5 1
-0.0280435 2.2717 7.91252 0.5 0.5 0.5 1
1.18945 -1.86461 8.15498 0.5 0.5 0.5 1
1.18945 1.86461 8.15498 0.5 0.5 0.5 1
-1.19536 1.88232 8.08733 0.5 0.5 0.5 1
-1.19536 -1.88232 8.08733 0.5 0.5 0.5 1
2.04952 -1.49605 8.50886 0.5 0.5 0.5 1
2.04952 1.49605 8.50886 0.5 0.5 0.5 1
-2.06621 1.54136 8.4416 0.5 0.5 0.5 1
-2.06621 -1.54136 8.4416 0.5 0.5 0.5 1
3.06973 -1.46198 8.46716 0.5 0.5 0.5 1
3.06973 1.46198 8.46716 0.5 0.5 0.5 1
-3.0597 1.50854 8.3373 0.5 0.5 0.5 1
-3.0597 -1.50854 8.3373 0.5 0.5 0.5 1
4.06858 -1.42259 8.45385 0.5 0.5 0.5 1
4.06858 1.4226 8.45384 0.5 0.5 0.5 1
-4.05736 1.45053 8.36743 0.5 0.5 0.5 1
-4.05736 -1.45053 8.36743 0.5 0.5 0.5 1
5.0271 -1.68458 8.02685 0.5 0.5 0.5 1
5.0271 1.68459 8.02684 0.5 0.5 0.5 1
-4.99298 1.70079 7.95874 0.5 0.5 0.5 1
-4.99298 -1.70079 7.95874 0.5 0.5 0.5 1
6.15311 -1.61505 8.04235 0.5 0.5 0.5 1
6.15311 1.61505 8.04234 0.5 0.5 0.5 1
-8.72565 0.00429225 7.93905 0.5 0.5 0.5 1
8.84826 -9.46755e-05 8.19358 0.5 0.5 0.5 1
-7.95736 0.775294 8.08253 0.5 0.5 0.5 1
-7.94813 -0.771382 8.07082 0.5 0.5 0.5 1
1.34129 1.81777 6.90751 0.5 0.5 0.5 1
-2.5903 1.52018 7.14311 0.5 0.5 0.5 1
-2.5903 -1.52018 7.14311 0.5 0.5 0.5 1
0.0226823 -1.97865 6.45647 0.5 0.5 0.5 1
0.0226827 1.97864 6.45647 0.5 0.5 0.5 1
2.61048 1.44878 7.22753 0.5 0.5 0.5 1
4.1227 -1.43338 7.4169 0.5 0.5 0.5 1
-1.14862 -1.80896 6.0093 0.5 0.5 0.5 1
-1.14862 1.80896 6.0093 0.5 0.5 0.5 1
-1.86537 -0.807923 3.9821 0.5 0.5 0.5 1
-1.86537 0.807924 3.9821 0.5 0.5 0.5 1
1.20435 1.76642 5.6298 0.5 0.5 0.5 1
1.20435 -1.76642 5.62981 0.5 0.5 0.5 1
4.1227 1.43339 7.4169 0.5 0.5 0.5 1
-4.08643 1.45078 7.31267 0.5 0.5 0.5 1
2.56103 7.35323e-07 6.01349 0.5 0.5 0.5 1
1.69768 1.33177 5.12813 0.5 0.5 0.5 1
1.69768 -1.33177 5.12813 0.5 0.5 0.5 1
0.124167 1.85175 5.23748 0.5 0.5 0.5 1
0.124221 -1.85183 5.23748 0.5 0.5 0.5 1
1.98289 7.67054e-07 4.68104 0.5 0.5 0.5 1
5.44198 -0.751132 4.14286 1 1 0 1
5.44197 0.751145 4.14286 1 1 0 1
-3.2904 9.27151e-06 6.35687 0.5 0.5 0.5 1
-0.999576 -1.62411 4.78312 0.5 0.5 0.5 1
-0.999576 1.62411 4.78312 0.5 0.5 0.5 1
1.07605 1.62255 4.48279 0.5 0.5 0.5 1
1.07608 -1.62268 4.48279 0.5 0.5 0.5 1
-4.08643 -1.45078 7.31267 0.5 0.5 0.5 1
0.157749 1.15991e-07 1.03911 1 1 0 1
3.24869 1.15535e-06 6.21795 0.5 0.5 0.5 1
-5.17934 0.815846 4.6311 1 1 0 1
-5.17929 -0.815862 4.6311 1 1 0 1
1.50004 1.11548 3.98521 1 1 1 1
1.49998 -1.11537 3.98521 1 1 1 1
0.183161 1.69829 4.07801 1 1 1 1
0.183217 -1.6984 4.07801 1 1 1 1
6.82329 -1.42357 7.46424 0.5 0.5 0.5 1
6.82327 1.42358 7.4642 0.5 0.5 0.5 1
2.61048 -1.44878 7.22753 0.5 0.5 0.5 1
1.85313 1.62118 6.21971 0.5 0.5 0.5 1
1.85312 -1.62118 6.2197 0.5 0.5 0.5 1
-1.30954 1.85736 7.06772 0.5 0.5 0.5 1
1.66655 8.19568e-06 3.59324 1 1 1 1
-0.832167 -1.3831 3.61209 1 1 1 1
-0.832167 1.3831 3.61209 1 1 1 1
-2.04938 -0.446225 3.05954 1 1 1 1
-2.04938 0.446225 3.05954 1 1 1 1
4.21119 7.41727e-06 7.00164 0.5 0.5 0.5 1
0.957954 1.45161 3.38954 1 1 1 1
0.957981 -1.45168 3.38954 1 1 1 1
-4.09488 3.24801e-05 6.91515 0.5 0.5 0.5 1
6.13829 -1.52859 6.86339 0.5 0.5 0.5 1
6.13829 1.52859 6.86333 0.5 0.5 0.5 1
7.46415 4.733e-06 7.08968 0.5 0.5 0.5 1
0.215511 1.51097 3.05219 1 1 1 1
0.215562 -1.51089 3.05219 1 1 1 1
6.94438 -0.717367 5.95303 0.5 0.5 0.5 1
6.94438 0.717367 5.95302 0.5 0.5 0.5 1
5.18597 -1.54707 6.82214 0.5 0.5 0.5 1
5.186 1.54707 6.82209 0.5 0.5 0.5 1
1.30806 0.969503 2.97657 1 1 1 1
1.30797 -0.969507 2.97657 1 1 1 1
-1.30954 -1.85736 7.06772 0.5 0.5 0.5 1
-7.20977 0.64907 6.61589 0.5 0.5 0.5 1
-7.21188 -0.748393 6.63702 0.5 0.5 0.5 1
-6.61264 1.21348 7.10331 0.5 0.5 0.5 1
-6.61313 -1.21311 7.10338 0.5 0.5 0.5 1
6.66115 -1.14689 6.41793 0.5 0.5 0.5 1
6.66109 1.14678 6.41794 0.5 0.5 0.5 1
4.58858 -1.10709 6.59759 0.5 0.5 0.5 1
4.58859 1.10709 6.59761 0.5 0.5 0.5 1
-7.50645 0.761084 7.42379 0.5 0.5 0.5 1
-7.52171 -0.744313 7.41563 0.5 0.5 0.5 1
-2.2617 1.11466 5.58301 0.5 0.5 0.5 1
4.56797 -0.48986 5.21632 0.5 0.5 0.5 1
4.56804 0.489946 5.21636 0.5 0.5 0.5 1
-0.946905 -1.10832 2.82565 1 1 1 1
-0.946905 1.10832 2.82565 1 1 1 1
1.43145 1.01417e-05 2.63838 1 1 1 1
-2.40211 9.45033e-07 4.22534 0.5 0.5 0.5 1
-1.53076 -0.477711 1.82456 1 1 1 1
-1.53076 0.47771 1.82456 1 1 1 1
-5.10566 1.47193 6.72902 0.5 0.5 0.5 1
-5.10586 -1.47167 6.72898 0.5 0.5 0.5 1
0.852436 1.28829 2.44456 1 1 1 1
0.852549 -1.28841 2.44455 1 1 1 1
-4.52928 1.09775 6.51659 0.5 0.5 0.5 1
-4.52928 -1.09765 6.51658 0.5 0.5 0.5 1
-2.61269 1.02684e-05 5.44559 0.5 0.5 0.5 1
6.07624 -1.38604 5.81295 0.5 0.5 0.5 1
6.07623 1.38605 5.81292 0.5 0.5 0.5 1
-4.20493 0.395635 5.53058 0.5 0.5 0.5 1
-4.20225 -0.415225 5.53183 0.5 0.5 0.5 1
-6.52953 0.959513 5.69211 0.5 0.5 0.5 1
-6.51416 -0.922633 5.6862 0.5 0.5 0.5 1
-6.34557 1.08297 6.05615 0.5 0.5 0.5 1
-6.34472 -1.09378 6.05608 0.5 0.5 0.5 1
5.43109 -1.35196 5.72817 0.5 0.5 0.5 1
5.431 1.35196 5.72799 0.5 0.5 0.5 1
0.175931 1.3017 2.15714 1 1 1 1
0.175925 -1.30171 2.15713 1 1 1 1
5.01144 -1.07914 5.65194 0.5 0.5 0.5 1
5.01147 1.07919 5.65189 0.5 0.5 0.5 1
6.46116 -1.2467 5.49818 0.5 0.5 0.5 1
6.46108 1.2467 5.49826 0.5 0.5 0.5 1
1.16156 0.792277 2.1202 1 1 1 1
1.16156 -0.792278 2.1202 1 1 1 1
-0.357009 -0.993809 1.93143 1 1 1 1
-0.357011 0.993809 1.93143 1 1 1 1
6.54313 -0.732442 4.81481 0.5 0.5 0.5 1
6.54328 0.732478 4.8148 0.5 0.5 0.5 1
-2.2617 -1.11466 5.58301 0.5 0.5 0.5 1
1.34129 -1.81777 6.90751 0.5 0.5 0.5 1
-1.25871 -0.783231 2.46527 1 1 1 1
-1.25871 0.783231 2.46527 1 1 1 1
3.68324 -0.799015 6.84169 0.5 0.5 0.5 1
3.68325 0.799019 6.84169 0.5 0.5 0.5 1
-5.25925 1.20606 5.74397 0.5 0.5 0.5 1
-5.25891 -1.207 5.744 0.5 0.5 0.5 1
-7.85242 -0.301619 7.21088 0.5 0.5 0.5 1
-7.85164 0.442028 7.21816 0.5 0.5 0.5 1
0.912939 -2.66553e-06 1.84223 1 1 1 1
0.530533 0.72117 1.72482 1 1 1 1
0.53055 -0.721164 1.72482 1 1 1 1
-4.8578 0.964125 5.57634 0.5 0.5 0.5 1
-4.86182 -0.967533 5.57649 0.5 0.5 0.5 1

3 0 24 98
3 0 98 24
3 0 30 104
3 0 104 30
3 0 98 104
3 0 104 98
3 1 25 99
3 1 99 25
3 1 31 105
3 1 105 31
3 1 99 105
3 1 105 99
3 2 6 145
3 2 145 6
3 2 9 95
3 2 95 9
3 2 35 95
3 2 95 35
3 2 35 145
3 2 145 35
3 3 26 69
3 3 69 26
3 3 29 86
3 3 86 29
3 3 69 86
3 3 86 69
3 4 27 70
3 4 70 27
3 4 29 86
3 4 86 29
3 4 70 86
3 4 86 70
3 5 7 32
3 5 32 7
3 5 8 74
3 5 74 8
3 5 32 36
3 5 36 32
3 5 36 74
3 5 74 36
3 6 10 71
3 6 71 10
3 6 71 145
3 6 145 71
3 7 11 37
3 7 37 11
3 7 32 37
3 7 37 32
3 8 12 33
3 8 33 12
3 8 33 74
3 8 74 33
3 9 13 34
3 9 34 13
3 9 34 95
3 9 95 34
3 10 14 71
3 10 71 14
3 11 15 37
3 11 37 15
3 12 16 33
3 12 33 16
3 13 17 34
3 13 34 17
3 14 18 38
3 14 38 18
3 14 38 71
3 14 71 38
3 15 19 45
3 15 45 19
3 15 37 45
3 15 45 37
3 16 20 46
3 16 46 20
3 16 33 46
3 16 46 33
3 17 21 60
3 17 60 21
3 17 34 60
3 17 60 34
3 18 22 38
3 18 38 22
3 19 23 45
3 19 45 23
3 20 24 46
3 20 46 24
3 21 25 60
3 21 60 25
3 22 26 84
3 22 84 26
3 22 38 91
3 22 91 38
3 22 84 91
3 22 91 84
3 23 27 85
3 23 85 27
3 23 45 92
3 23 92 45
3 23 85 92
3 23 92 85
3 24 46 115
3 24 115 46
3 24 98 115
3 24 115 98
3 25 60 116
3 25 116 60
3 25 99 116
3 25 116 99
3 26 69 84
3 26 84 69
3 27 70 85
3 27 85 70
3 28 30 104
3 28 104 30
3 28 31 105
3 28 105 31
3 28 96 104
3 28 104 96
3 28 96 152
3 28 152 96
3 28 104 153
3 28 153 104
3 28 105 152
3 28 152 105
3 28 152 153
3 28 153 152
3 32 36 43
3 32 43 36
3 32 37 72
3 32 72 37
3 32 43 72
3 32 72 43
3 33 40 74
3 33 74 40
3 33 40 106
3 33 106 40
3 33 46 55
3 33 55 46
3 33 55 106
3 33 106 55
3 34 39 95
3 34 95 39
3 34 39 144
3 34 144 39
3 34 55 60
3 34 60 55
3 34 55 144
3 34 144 55
3 35 39 51
3 35 51 39
3 35 39 95
3 35 95 39
3 35 44 51
3 35 51 44
3 35 44 145
3 35 145 44
3 36 40 50
3 36 50 40
3 36 40 74
3 36 74 40
3 36 43 50
3 36 50 43
3 37 45 80
3 37 80 45
3 37 45 149
3 37 149 45
3 37 47 62
3 37 62 47
3 37 47 72
3 37 72 47
3 37 62 80
3 37 80 62
3 37 62 149
3 37 149 62
3 38 62 71
3 38 71 62
3 38 62 80
3 38 80 62
3 38 71 148
3 38 148 71
3 38 80 102
3 38 102 80
3 38 80 148
3 38 148 80
3 38 91 102
3 38 102 91
3 39 51 56
3 39 56 51
3 39 56 144
3 39 144 56
3 40 50 57
3 40 57 50
3 40 57 106
3 40 106 57
3 41 56 76
3 41 76 56
3 41 56 144
3 41 144 56
3 41 76 109
3 41 109 76
3 41 78 109
3 41 109 78
3 41 78 112
3 41 112 78
3 41 112 144
3 41 144 112
3 42 57 77
3 42 77 57
3 42 57 106
3 42 106 57
3 42 77 110
3 42 110 77
3 42 79 110
3 42 110 79
3 42 79 112
3 42 112 79
3 42 106 112
3 42 112 106
3 43 48 58
3 43 58 48
3 43 48 72
3 43 72 48
3 43 50 58
3 43 58 50
3 44 49 59
3 44 59 49
3 44 49 73
3 44 73 49
3 44 51 59
3 44 59 51
3 44 73 145
3 44 145 73
3 45 80 103
3 45 103 80
3 45 80 149
3 45 149 80
3 45 92 103
3 45 103 92
3 46 55 83
3 46 83 55
3 46 83 119
3 46 119 83
3 46 115 119
3 46 119 115
3 47 48 52
3 47 52 48
3 47 48 72
3 47 72 48
3 47 49 52
3 47 52 49
3 47 49 73
3 47 73 49
3 47 62 71
3 47 71 62
3 47 71 73
3 47 73 71
3 48 52 65
3 48 65 52
3 48 58 65
3 48 65 58
3 49 52 66
3 49 66 52
3 49 59 66
3 49 66 59
3 50 57 67
3 50 67 57
3 50 58 67
3 50 67 58
3 51 56 68
3 51 68 56
3 51 59 68
3 51 68 59
3 52 65 75
3 52 75 65
3 52 66 75
3 52 75 66
3 53 54 108
3 53 108 54
3 53 54 143
3 53 143 54
3 53 89 136
3 53 136 89
3 53 89 142
3 53 142 89
3 53 107 108
3 53 108 107
3 53 107 134
3 53 134 107
3 53 122 130
3 53 130 122
3 53 122 136
3 53 136 122
3 53 130 134
3 53 134 130
3 53 142 143
3 53 143 142
3 54 90 137
3 54 137 90
3 54 90 143
3 54 143 90
3 54 108 135
3 54 135 108
3 54 123 131
3 54 131 123
3 54 123 137
3 54 137 123
3 54 131 135
3 54 135 131
3 55 60 83
3 55 83 60
3 55 106 112
3 55 112 106
3 55 106 121
3 55 121 106
3 55 112 144
3 55 144 112
3 55 121 144
3 55 144 121
3 56 68 76
3 56 76 68
3 57 67 77
3 57 77 67
3 58 65 81
3 58 81 65
3 58 67 81
3 58 81 67
3 59 66 82
3 59 82 66
3 59 68 82
3 59 82 68
3 60 83 120
3 60 120 83
3 60 116 120
3 60 120 116
3 61 111 138
3 61 138 111
3 61 111 139
3 61 139 111
3 61 113 114
3 61 114 113
3 61 113 140
3 61 140 113
3 61 114 141
3 61 141 114
3 61 117 132
3 61 132 117
3 61 117 138
3 61 138 117
3 61 118 133
3 61 133 118
3 61 118 139
3 61 139 118
3 61 132 141
3 61 141 132
3 61 132 155
3 61 155 132
3 61 133 140
3 61 140 133
3 61 133 156
3 61 156 133
3 61 138 154
3 61 154 138
3 61 138 155
3 61 155 138
3 61 139 154
3 61 154 139
3 61 139 156
3 61 156 139
3 62 71 148
3 62 148 71
3 62 80 148
3 62 148 80
3 62 80 149
3 62 149 80
3 63 64 125
3 63 125 64
3 63 64 127
3 63 127 64
3 63 124 125
3 63 125 124
3 63 124 157
3 63 157 124
3 63 126 127
3 63 127 126
3 63 126 128
3 63 128 126
3 63 128 150
3 63 150 128
3 63 150 157
3 63 157 150
3 64 125 158
3 64 158 125
3 64 127 129
3 64 129 127
3 64 129 151
3 64 151 129
3 64 151 158
3 64 158 151
3 65 75 93
3 65 93 75
3 65 81 93
3 65 93 81
3 66 75 94
3 66 94 75
3 66 82 94
3 66 94 82
3 67 77 87
3 67 87 77
3 67 81 87
3 67 87 81
3 68 76 88
3 68 88 76
3 68 82 88
3 68 88 82
3 69 84 100
3 69 100 84
3 69 86 100
3 69 100 86
3 70 85 101
3 70 101 85
3 70 86 101
3 70 101 86
3 71 73 145
3 71 145 73
3 75 93 111
3 75 111 93
3 75 94 111
3 75 111 94
3 76 88 109
3 76 109 88
3 77 87 110
3 77 110 87
3 78 79 112
3 78 112 79
3 78 79 114
3 78 114 79
3 78 109 140
3 78 140 109
3 78 109 146
3 78 146 109
3 78 113 114
3 78 114 113
3 78 113 140
3 78 140 113
3 78 113 146
3 78 146 113
3 79 110 141
3 79 141 110
3 79 110 147
3 79 147 110
3 79 114 141
3 79 141 114
3 79 114 147
3 79 147 114
3 80 102 134
3 80 134 102
3 80 103 135
3 80 135 103
3 80 107 108
3 80 108 107
3 80 107 134
3 80 134 107
3 80 108 135
3 80 135 108
3 81 87 117
3 81 117 87
3 81 93 117
3 81 117 93
3 82 88 118
3 82 118 88
3 82 94 118
3 82 118 94
3 83 119 157
3 83 157 119
3 83 120 158
3 83 158 120
3 83 124 125
3 83 125 124
3 83 124 157
3 83 157 124
3 83 125 158
3 83 158 125
3 84 91 122
3 84 122 91
3 84 100 122
3 84 122 100
3 85 92 123
3 85 123 92
3 85 101 123
3 85 123 101
3 86 89 90
3 86 90 89
3 86 89 100
3 86 100 89
3 86 90 101
3 86 101 90
3 87 110 132
3 87 132 110
3 87 117 132
3 87 132 117
3 88 109 133
3 88 133 109
3 88 118 133
3 88 133 118
3 89 90 143
3 89 143 90
3 89 100 136
3 89 136 100
3 89 142 143
3 89 143 142
3 90 101 137
3 90 137 101
3 91 102 130
3 91 130 102
3 91 122 130
3 91 130 122
3 92 103 131
3 92 131 103
3 92 123 131
3 92 131 123
3 93 111 138
3 93 138 111
3 93 117 138
3 93 138 117
3 94 111 139
3 94 139 111
3 94 118 139
3 94 139 118
3 96 97 127
3 96 127 97
3 96 97 152
3 96 152 97
3 96 98 104
3 96 104 98
3 96 98 128
3 96 128 98
3 96 104 153
3 96 153 104
3 96 126 127
3 96 127 126
3 96 126 128
3 96 128 126
3 96 152 153
3 96 153 152
3 97 99 105
3 97 105 99
3 97 99 129
3 97 129 99
3 97 105 152
3 97 152 105
3 97 127 129
3 97 129 127
3 98 115 128
3 98 128 115
3 99 116 129
3 99 129 116
3 100 122 136
3 100 136 122
3 101 123 137
3 101 137 123
3 102 130 134
3 102 134 130
3 103 131 135
3 103 135 131
3 106 112 121
3 106 121 112
3 109 133 140
3 109 140 133
3 109 140 146
3 109 146 140
3 110 132 141
3 110 141 132
3 110 141 147
3 110 147 141
3 111 138 154
3 111 154 138
3 111 139 154
3 111 154 139
3 112 121 144
3 112 144 121
3 113 140 146
3 113 146 140
3 114 141 147
3 114 147 141
3 115 119 150
3 115 150 119
3 115 128 150
3 115 150 128
3 116 120 151
3 116 151 120
3 116 129 151
3 116 151 129
3 117 132 155
3 117 155 132
3 117 138 155
3 117 155 138
3 118 133 156
3 118 156 133
3 118 139 156
3 118 156 139
3 119 150 157
3 119 157 150
3 120 151 158
3 120 158 151
