COFF
37 116 37

-4.25107 0.678442 2.82505 0.5 0.5 0.5 1
-4.25107 -0.678442 2.82505 0.5 0.5 0.5 1
-0.025284 -1.49473 2.64654 0.5 0.5 0.5 1
4.57628 -0.666036 2.84841 0.5 0.5 0.5 1
4.57628 0.666036 2.84841 0.5 0.5 0.5 1
-0.025284 1.49473 2.64654 0.5 0.5 0.5 1
0.964777 -1.21186 2.72185 0.5 0.5 0.5 1
0.964777 1.21186 2.72185 0.5 0.5 0.5 1
-1.0061 1.19478 2.70606 0.5 0.5 0.5 1
-1.0061 -1.19478 2.70606 0.5 0.5 0.5 1
1.90839 -0.944897 2.91781 0.5 0.5 0.5 1
1.90839 0.944897 2.91781 0.5 0.5 0.5 1
-1.95977 0.956699 2.88873 0.5 0.5 0.5 1
-1.95977 -0.956699 2.88873 0.5 0.5 0.5 1
3.00891 -0.813946 2.88246 0.5 0.5 0.5 1
3.00891 0.813946 2.88246 0.5 0.5 0.5 1
-2.96981 0.822839 2.84996 0.5 0.5 0.5 1
-2.96981 -0.822839 2.84996 0.5 0.5 0.5 1
1.97541 0.812297 2.11061 0.5 0.5 0.5 1
3.20823 -0.672207 2.21509 0.5 0.5 0.5 1
3.20823 0.672207 2.21509 0.5 0.5 0.5 1
-3.14699 0.681778 2.18588 0.5 0.5 0.5 1
-3.14699 -0.681778 2.18588 0.5 0.5 0.5 1
-0.00799605 -2.15002e-17 1.03911 1 1 0 1
1.97541 -0.812297 2.11061 0.5 0.5 0.5 1
1.02943 0.645392 1.54934 0.5 0.5 0.5 1
1.02943 -0.645392 1.54934 0.5 0.5 0.5 1
-0.626383 0.936482 1.97066 0.5 0.5 0.5 1
-0.626383 -0.936482 1.97066 0.5 0.5 0.5 1
-1.34717 0.466119 1.44536 0.5 0.5 0.5 1
-1.34717 -0.466119 1.44536 0.5 0.5 0.5 1
0.689295 -0.851517 1.85862 0.5 0.5 0.5 1
0.689295 0.851517 1.85862 0.5 0.5 0.5 1
-1.90495 0.826091 2.09414 0.5 0.5 0.5 1
-1.90495 -0.826091 2.09414 0.5 0.5 0.5 1
-0.0378029 -0.938764 1.85551 0.5 0.5 0.5 1
-0.0378029 0.938764 1.85551 0.5 0.5 0.5 1

3 0 1 22
3 0 22 1
3 0 16 21
3 0 21 16
3 0 21 22
3 0 22 21
3 1 17 22
3 1 22 17
3 2 6 31
3 2 31 6
3 2 9 28
3 2 28 9
3 2 23 28
3 2 28 23
3 2 23 31
3 2 31 23
3 2 28 35
3 2 35 28
3 2 31 35
3 2 35 31
3 3 4 20
3 3 20 4
3 3 14 19
3 3 19 14
3 3 19 20
3 3 20 19
3 4 15 20
3 4 20 15
3 5 7 32
3 5 32 7
3 5 8 27
3 5 27 8
3 5 23 27
3 5 27 23
3 5 23 32
3 5 32 23
3 5 27 36
3 5 36 27
3 5 32 36
3 5 36 32
3 6 10 24
3 6 24 10
3 6 24 31
3 6 31 24
3 7 11 18
3 7 18 11
3 7 18 32
3 7 32 18
3 8 12 33
3 8 33 12
3 8 27 33
3 8 33 27
3 9 13 34
3 9 34 13
3 9 28 34
3 9 34 28
3 10 14 24
3 10 24 14
3 11 15 18
3 11 18 15
3 12 16 33
3 12 33 16
3 13 17 34
3 13 34 17
3 14 19 24
3 14 24 19
3 15 18 20
3 15 20 18
3 16 21 33
3 16 33 21
3 17 22 34
3 17 34 22
3 18 19 20
3 18 20 19
3 18 19 24
3 18 24 19
3 18 24 26
3 18 26 24
3 18 25 26
3 18 26 25
3 18 25 32
3 18 32 25
3 21 22 34
3 21 34 22
3 21 33 34
3 21 34 33
3 23 25 26
3 23 26 25
3 23 25 32
3 23 32 25
3 23 26 31
3 23 31 26
3 23 27 33
3 23 33 27
3 23 27 36
3 23 36 27
3 23 28 34
3 23 34 28
3 23 28 35
3 23 35 28
3 23 29 30
3 23 30 29
3 23 29 33
3 23 33 29
3 23 30 34
3 23 34 30
3 23 31 35
3 23 35 31
3 23 32 36
3 23 36 32
3 24 26 31
3 24 31 26
3 29 30 34
3 29 34 30
3 29 33 34
3 29 34 33
