COFF
45 144 45

-4.96569 0.721189 3.59589 0.5 0.5 0.5 1
-4.96569 -0.721189 3.59589 0.5 0.5 0.5 1
-0.0266218 -1.65713 3.30826 0.5 0.5 0.5 1
5.3072 -0.703003 3.62963 0.5 0.5 0.5 1
5.3072 0.703003 3.62963 0.5 0.5 0.5 1
-0.0266218 1.65713 3.30826 0.5 0.5 0.5 1
1.00441 -1.34703 3.44603 0.5 0.5 0.5 1
1.00441 1.34703 3.44603 0.5 0.5 0.5 1
-1.05543 1.33583 3.40997 0.5 0.5 0.5 1
-1.05543 -1.33583 3.40997 0.5 0.5 0.5 1
1.93078 -1.02968 3.66391 0.5 0.5 0.5 1
1.93078 1.02968 3.66391 0.5 0.5 0.5 1
-1.99089 1.05128 3.62355 0.5 0.5 0.5 1
-1.99089 -1.05128 3.62355 0.5 0.5 0.5 1
3.07403 -0.88597 3.69499 0.5 0.5 0.5 1
3.07403 0.88597 3.69499 0.5 0.5 0.5 1
-3.01332 0.905697 3.63065 0.5 0.5 0.5 1
-3.01332 -0.905697 3.63065 0.5 0.5 0.5 1
4.08458 -0.795343 3.65772 0.5 0.5 0.5 1
4.08458 0.795343 3.65772 0.5 0.5 0.5 1
3.62225 0.732615 2.95499 0.5 0.5 0.5 1
-3.49032 0.756349 2.92156 0.5 0.5 0.5 1
-3.49032 -0.756349 2.92156 0.5 0.5 0.5 1
-0.0291332 5.78104e-17 1.03911 1 1 0 1
2.19703 -0.912248 2.74675 0.5 0.5 0.5 1
1.28281 0.976494 2.03151 0.5 0.5 0.5 1
1.28281 -0.976494 2.03151 0.5 0.5 0.5 1
-0.954947 1.24422 2.55705 0.5 0.5 0.5 1
-0.954947 -1.24422 2.55705 0.5 0.5 0.5 1
-1.79026 0.713084 1.78033 0.5 0.5 0.5 1
-1.79026 -0.713084 1.78033 0.5 0.5 0.5 1
0.95597 -1.18776 2.42237 0.5 0.5 0.5 1
0.95597 1.18776 2.42237 0.5 0.5 0.5 1
-2.19073 0.919241 2.70283 0.5 0.5 0.5 1
-2.19073 -0.919241 2.70283 0.5 0.5 0.5 1
-0.0363121 -1.31831 2.36201 0.5 0.5 0.5 1
-0.0363121 1.31831 2.36201 0.5 0.5 0.5 1
2.19703 0.912248 2.74675 0.5 0.5 0.5 1
3.62225 -0.732615 2.95499 0.5 0.5 0.5 1
-0.457727 -0.810843 1.8389 0.5 0.5 0.5 1
-0.457727 0.810843 1.8389 0.5 0.5 0.5 1
-1.03336 -0.347967 1.38018 0.5 0.5 0.5 1
-1.03336 0.347967 1.38018 0.5 0.5 0.5 1
0.515632 0.66948 1.71399 0.5 0.5 0.5 1
0.515632 -0.66948 1.71399 0.5 0.5 0.5 1

3 0 1 22
3 0 22 1
3 0 16 21
3 0 21 16
3 0 21 22
3 0 22 21
3 1 17 22
3 1 22 17
3 2 6 31
3 2 31 6
3 2 9 28
3 2 28 9
3 2 28 35
3 2 35 28
3 2 31 35
3 2 35 31
3 3 4 20
3 3 20 4
3 3 18 38
3 3 38 18
3 3 20 38
3 3 38 20
3 4 19 20
3 4 20 19
3 5 7 32
3 5 32 7
3 5 8 27
3 5 27 8
3 5 27 36
3 5 36 27
3 5 32 36
3 5 36 32
3 6 10 24
3 6 24 10
3 6 24 31
3 6 31 24
3 7 11 37
3 7 37 11
3 7 32 37
3 7 37 32
3 8 12 33
3 8 33 12
3 8 27 33
3 8 33 27
3 9 13 34
3 9 34 13
3 9 28 34
3 9 34 28
3 10 14 24
3 10 24 14
3 11 15 37
3 11 37 15
3 12 16 33
3 12 33 16
3 13 17 34
3 13 34 17
3 14 18 38
3 14 38 18
3 14 24 38
3 14 38 24
3 15 19 20
3 15 20 19
3 15 20 37
3 15 37 20
3 16 21 33
3 16 33 21
3 17 22 34
3 17 34 22
3 20 24 37
3 20 37 24
3 20 24 38
3 20 38 24
3 21 22 34
3 21 34 22
3 21 33 34
3 21 34 33
3 23 25 26
3 23 26 25
3 23 25 32
3 23 32 25
3 23 25 43
3 23 43 25
3 23 26 31
3 23 31 26
3 23 26 44
3 23 44 26
3 23 29 40
3 23 40 29
3 23 29 42
3 23 42 29
3 23 30 39
3 23 39 30
3 23 30 41
3 23 41 30
3 23 31 35
3 23 35 31
3 23 32 36
3 23 36 32
3 23 35 39
3 23 39 35
3 23 35 44
3 23 44 35
3 23 36 40
3 23 40 36
3 23 36 43
3 23 43 36
3 23 41 42
3 23 42 41
3 24 25 26
3 24 26 25
3 24 25 37
3 24 37 25
3 24 26 31
3 24 31 26
3 25 32 37
3 25 37 32
3 25 32 43
3 25 43 32
3 26 31 44
3 26 44 31
3 27 33 40
3 27 40 33
3 27 36 40
3 27 40 36
3 28 34 39
3 28 39 34
3 28 35 39
3 28 39 35
3 29 30 34
3 29 34 30
3 29 30 41
3 29 41 30
3 29 33 34
3 29 34 33
3 29 33 40
3 29 40 33
3 29 41 42
3 29 42 41
3 30 34 39
3 30 39 34
3 31 35 44
3 31 44 35
3 32 36 43
3 32 43 36
