COFF
53 176 53

-5.26642 0.739382 3.98513 0.5 0.5 0.5 1
-5.26642 -0.739382 3.98513 0.5 0.5 0.5 1
-0.0269409 -1.72731 3.64725 0.5 0.5 0.5 1
5.59862 -0.717929 4.02473 0.5 0.5 0.5 1
5.59862 0.717929 4.02473 0.5 0.5 0.5 1
-0.0269409 1.72731 3.64725 0.5 0.5 0.5 1
1.02189 -1.40014 3.80134 0.5 0.5 0.5 1
1.02189 1.40014 3.80134 0.5 0.5 0.5 1
-1.07305 1.3919 3.76209 0.5 0.5 0.5 1
-1.07305 -1.3919 3.76209 0.5 0.5 0.5 1
1.93989 -1.06795 4.03965 0.5 0.5 0.5 1
1.93989 1.06795 4.03965 0.5 0.5 0.5 1
-2.00084 1.09498 3.99308 0.5 0.5 0.5 1
-2.00084 -1.09498 3.99308 0.5 0.5 0.5 1
3.08385 -0.919076 4.08456 0.5 0.5 0.5 1
3.08385 0.919076 4.08456 0.5 0.5 0.5 1
-3.01789 0.944023 4.00801 0.5 0.5 0.5 1
-3.01789 -0.944023 4.00801 0.5 0.5 0.5 1
4.09308 -0.818359 4.0514 0.5 0.5 0.5 1
4.09308 0.818359 4.0514 0.5 0.5 0.5 1
-4.01274 0.842181 3.99973 0.5 0.5 0.5 1
-4.01274 -0.842181 3.99973 0.5 0.5 0.5 1
-3.67434 -0.780233 3.30476 0.5 0.5 0.5 1
-0.00392683 5.30219e-17 1.03911 1 1 0 1
2.26698 -0.941179 3.083 0.5 0.5 0.5 1
1.4131 1.10335 2.33901 0.5 0.5 0.5 1
1.4131 -1.10335 2.33901 0.5 0.5 0.5 1
-1.04199 1.32535 2.90738 0.5 0.5 0.5 1
-1.04199 -1.32535 2.90738 0.5 0.5 0.5 1
-1.83777 0.841036 2.05685 0.5 0.5 0.5 1
-1.83777 -0.841036 2.05685 0.5 0.5 0.5 1
1.04273 -1.30009 2.777 0.5 0.5 0.5 1
1.04273 1.30009 2.777 0.5 0.5 0.5 1
-2.25878 0.964995 3.02761 0.5 0.5 0.5 1
-2.25878 -0.964995 3.02761 0.5 0.5 0.5 1
-0.0111234 -1.41933 2.63007 0.5 0.5 0.5 1
-0.0111234 1.41933 2.63007 0.5 0.5 0.5 1
2.26698 0.941179 3.083 0.5 0.5 0.5 1
3.79987 -0.756431 3.35086 0.5 0.5 0.5 1
-0.531844 -1.10377 2.12973 0.5 0.5 0.5 1
-0.531844 1.10377 2.12973 0.5 0.5 0.5 1
-1.32303 -0.445005 1.38127 0.5 0.5 0.5 1
-1.32303 0.445005 1.38127 0.5 0.5 0.5 1
0.670986 0.972536 1.86896 0.5 0.5 0.5 1
0.670986 -0.972536 1.86896 0.5 0.5 0.5 1
3.79987 0.756431 3.35086 0.5 0.5 0.5 1
-3.67434 0.780233 3.30476 0.5 0.5 0.5 1
1.60168 3.46101e-17 2.25401 0.5 0.5 0.5 1
0.92112 0.667429 1.67178 0.5 0.5 0.5 1
0.92112 -0.667429 1.67178 0.5 0.5 0.5 1
-0.0428548 0.889267 1.83497 0.5 0.5 0.5 1
-0.0428548 -0.889267 1.83497 0.5 0.5 0.5 1
0.813046 4.16722e-17 1.64176 0.5 0.5 0.5 1

3 0 1 22
3 0 22 1
3 0 20 46
3 0 46 20
3 0 22 46
3 0 46 22
3 1 21 22
3 1 22 21
3 2 6 31
3 2 31 6
3 2 9 28
3 2 28 9
3 2 28 35
3 2 35 28
3 2 31 35
3 2 35 31
3 3 4 45
3 3 45 4
3 3 18 38
3 3 38 18
3 3 38 45
3 3 45 38
3 4 19 45
3 4 45 19
3 5 7 32
3 5 32 7
3 5 8 27
3 5 27 8
3 5 27 36
3 5 36 27
3 5 32 36
3 5 36 32
3 6 10 24
3 6 24 10
3 6 24 31
3 6 31 24
3 7 11 37
3 7 37 11
3 7 32 37
3 7 37 32
3 8 12 33
3 8 33 12
3 8 27 33
3 8 33 27
3 9 13 34
3 9 34 13
3 9 28 34
3 9 34 28
3 10 14 24
3 10 24 14
3 11 15 37
3 11 37 15
3 12 16 33
3 12 33 16
3 13 17 34
3 13 34 17
3 14 18 38
3 14 38 18
3 14 24 38
3 14 38 24
3 15 19 45
3 15 45 19
3 15 37 45
3 15 45 37
3 16 20 46
3 16 46 20
3 16 33 46
3 16 46 33
3 17 21 22
3 17 22 21
3 17 22 34
3 17 34 22
3 22 33 34
3 22 34 33
3 22 33 46
3 22 46 33
3 23 29 40
3 23 40 29
3 23 29 42
3 23 42 29
3 23 30 39
3 23 39 30
3 23 30 41
3 23 41 30
3 23 35 39
3 23 39 35
3 23 35 44
3 23 44 35
3 23 36 40
3 23 40 36
3 23 36 43
3 23 43 36
3 23 39 51
3 23 51 39
3 23 40 50
3 23 50 40
3 23 41 42
3 23 42 41
3 23 43 48
3 23 48 43
3 23 43 50
3 23 50 43
3 23 44 49
3 23 49 44
3 23 44 51
3 23 51 44
3 23 47 48
3 23 48 47
3 23 47 49
3 23 49 47
3 23 48 52
3 23 52 48
3 23 49 52
3 23 52 49
3 24 26 31
3 24 31 26
3 24 26 47
3 24 47 26
3 24 37 45
3 24 45 37
3 24 37 47
3 24 47 37
3 24 38 45
3 24 45 38
3 25 32 37
3 25 37 32
3 25 32 43
3 25 43 32
3 25 37 47
3 25 47 37
3 25 43 48
3 25 48 43
3 25 47 48
3 25 48 47
3 26 31 44
3 26 44 31
3 26 44 49
3 26 49 44
3 26 47 49
3 26 49 47
3 27 33 40
3 27 40 33
3 27 36 40
3 27 40 36
3 28 34 39
3 28 39 34
3 28 35 39
3 28 39 35
3 29 30 34
3 29 34 30
3 29 30 41
3 29 41 30
3 29 33 34
3 29 34 33
3 29 33 40
3 29 40 33
3 29 41 42
3 29 42 41
3 30 34 39
3 30 39 34
3 31 35 44
3 31 44 35
3 32 36 43
3 32 43 36
3 35 39 51
3 35 51 39
3 35 44 51
3 35 51 44
3 36 40 50
3 36 50 40
3 36 43 50
3 36 50 43
3 47 48 52
3 47 52 48
3 47 49 52
3 47 52 49
