COFF
56 188 56

-5.53266 0.755646 4.37672 0.5 0.5 0.5 1
-5.53266 -0.755646 4.37672 0.5 0.5 0.5 1
-0.0271521 -1.7882 3.99384 0.5 0.5 0.5 1
5.85503 -0.731133 4.42191 0.5 0.5 0.5 1
5.85503 0.731133 4.42191 0.5 0.5 0.5 1
-0.0271521 1.7882 3.99384 0.5 0.5 0.5 1
1.03798 -1.44714 4.16155 0.5 0.5 0.5 1
1.03798 1.44714 4.16155 0.5 0.5 0.5 1
-1.08908 1.44126 4.1197 0.5 0.5 0.5 1
-1.08908 -1.44126 4.1197 0.5 0.5 0.5 1
1.94867 -1.10331 4.41734 0.5 0.5 0.5 1
1.94867 1.10331 4.41734 0.5 0.5 0.5 1
-2.01024 1.13468 4.36557 0.5 0.5 0.5 1
-2.01024 -1.13468 4.36557 0.5 0.5 0.5 1
3.07823 -0.951591 4.4726 0.5 0.5 0.5 1
3.07823 0.951591 4.4726 0.5 0.5 0.5 1
-3.02207 0.980174 4.38625 0.5 0.5 0.5 1
-3.02207 -0.980174 4.38625 0.5 0.5 0.5 1
4.07031 -0.84189 4.46496 0.5 0.5 0.5 1
4.07031 0.84189 4.46496 0.5 0.5 0.5 1
-4.01576 0.867214 4.38974 0.5 0.5 0.5 1
-4.01576 -0.867214 4.38974 0.5 0.5 0.5 1
-3.81164 -0.806301 3.70328 0.5 0.5 0.5 1
0.00870442 4.81811e-17 1.03911 1 1 0 1
2.31928 -0.971381 3.42681 0.5 0.5 0.5 1
1.51204 1.1755 2.6552 0.5 0.5 0.5 1
1.51204 -1.1755 2.6552 0.5 0.5 0.5 1
-1.09887 1.38736 3.26538 0.5 0.5 0.5 1
-1.09887 -1.38736 3.26538 0.5 0.5 0.5 1
-1.86082 0.852177 2.3235 0.5 0.5 0.5 1
-1.86082 -0.852177 2.3235 0.5 0.5 0.5 1
1.10277 -1.36879 3.13845 0.5 0.5 0.5 1
1.10277 1.36879 3.13845 0.5 0.5 0.5 1
-2.31111 1.01332 3.37067 0.5 0.5 0.5 1
-2.31111 -1.01332 3.37067 0.5 0.5 0.5 1
-0.000802026 -1.50237 2.92225 0.5 0.5 0.5 1
-0.000802026 1.50237 2.92225 0.5 0.5 0.5 1
2.31928 0.971381 3.42681 0.5 0.5 0.5 1
3.92106 -0.78241 3.75658 0.5 0.5 0.5 1
-0.589531 -1.26244 2.41288 0.5 0.5 0.5 1
-0.589531 1.26244 2.41288 0.5 0.5 0.5 1
-1.54084 -0.607272 1.47487 0.5 0.5 0.5 1
-1.54084 0.607272 1.47487 0.5 0.5 0.5 1
0.795732 1.18784 2.12932 0.5 0.5 0.5 1
0.795732 -1.18784 2.12932 0.5 0.5 0.5 1
3.92106 0.78241 3.75658 0.5 0.5 0.5 1
-3.81164 0.806301 3.70328 0.5 0.5 0.5 1
1.77806 1.61585e-17 2.5379 0.5 0.5 0.5 1
1.14055 0.800229 1.88631 0.5 0.5 0.5 1
1.14055 -0.800229 1.88631 0.5 0.5 0.5 1
-0.0144974 1.18276 2.05762 0.5 0.5 0.5 1
-0.0144974 -1.18276 2.05762 0.5 0.5 0.5 1
1.19304 1.49661e-17 1.76281 0.5 0.5 0.5 1
4.99793 -0.749935 3.9839 0.5 0.5 0.5 1
4.99793 0.749935 3.9839 0.5 0.5 0.5 1
-2.3848 -2.62185e-18 3.29926 0.5 0.5 0.5 1

3 0 1 22
3 0 22 1
3 0 20 46
3 0 46 20
3 0 22 46
3 0 46 22
3 1 21 22
3 1 22 21
3 2 6 31
3 2 31 6
3 2 9 28
3 2 28 9
3 2 28 35
3 2 35 28
3 2 31 35
3 2 35 31
3 3 4 54
3 3 54 4
3 3 18 38
3 3 38 18
3 3 38 53
3 3 53 38
3 3 53 54
3 3 54 53
3 4 19 45
3 4 45 19
3 4 45 54
3 4 54 45
3 5 7 32
3 5 32 7
3 5 8 27
3 5 27 8
3 5 27 36
3 5 36 27
3 5 32 36
3 5 36 32
3 6 10 24
3 6 24 10
3 6 24 31
3 6 31 24
3 7 11 37
3 7 37 11
3 7 32 37
3 7 37 32
3 8 12 33
3 8 33 12
3 8 27 33
3 8 33 27
3 9 13 34
3 9 34 13
3 9 28 34
3 9 34 28
3 10 14 24
3 10 24 14
3 11 15 37
3 11 37 15
3 12 16 33
3 12 33 16
3 13 17 34
3 13 34 17
3 14 18 38
3 14 38 18
3 14 24 38
3 14 38 24
3 15 19 45
3 15 45 19
3 15 37 45
3 15 45 37
3 16 20 46
3 16 46 20
3 16 33 46
3 16 46 33
3 17 21 22
3 17 22 21
3 17 22 34
3 17 34 22
3 22 34 55
3 22 55 34
3 22 46 55
3 22 55 46
3 23 29 40
3 23 40 29
3 23 29 42
3 23 42 29
3 23 30 39
3 23 39 30
3 23 30 41
3 23 41 30
3 23 35 39
3 23 39 35
3 23 35 44
3 23 44 35
3 23 36 40
3 23 40 36
3 23 36 43
3 23 43 36
3 23 39 51
3 23 51 39
3 23 40 50
3 23 50 40
3 23 41 42
3 23 42 41
3 23 43 48
3 23 48 43
3 23 43 50
3 23 50 43
3 23 44 49
3 23 49 44
3 23 44 51
3 23 51 44
3 23 47 48
3 23 48 47
3 23 47 49
3 23 49 47
3 23 48 52
3 23 52 48
3 23 49 52
3 23 52 49
3 24 26 31
3 24 31 26
3 24 26 47
3 24 47 26
3 24 37 45
3 24 45 37
3 24 37 47
3 24 47 37
3 24 38 45
3 24 45 38
3 25 32 37
3 25 37 32
3 25 32 43
3 25 43 32
3 25 37 47
3 25 47 37
3 25 43 48
3 25 48 43
3 25 47 48
3 25 48 47
3 26 31 44
3 26 44 31
3 26 44 49
3 26 49 44
3 26 47 49
3 26 49 47
3 27 33 40
3 27 40 33
3 27 36 40
3 27 40 36
3 28 34 39
3 28 39 34
3 28 35 39
3 28 39 35
3 29 30 41
3 29 41 30
3 29 30 55
3 29 55 30
3 29 33 40
3 29 40 33
3 29 33 55
3 29 55 33
3 29 41 42
3 29 42 41
3 30 34 39
3 30 39 34
3 30 34 55
3 30 55 34
3 31 35 44
3 31 44 35
3 32 36 43
3 32 43 36
3 33 46 55
3 33 55 46
3 35 39 51
3 35 51 39
3 35 44 51
3 35 51 44
3 36 40 50
3 36 50 40
3 36 43 50
3 36 50 43
3 38 45 54
3 38 54 45
3 38 53 54
3 38 54 53
3 47 48 52
3 47 52 48
3 47 49 52
3 47 52 49
