COFF
75 256 75

-6.00258 0.784568 5.16372 0.5 0.5 0.5 1
-6.00258 -0.784568 5.16372 0.5 0.5 0.5 1
-0.0273613 -1.89378 4.69895 0.5 0.5 0.5 1
7.06189 -0.794549 5.16121 0.5 0.5 0.5 1
7.06189 0.794549 5.16121 0.5 0.5 0.5 1
-0.0273613 1.89378 4.69895 0.5 0.5 0.5 1
1.06727 -1.52892 4.89098 0.5 0.5 0.5 1
1.06727 1.52892 4.89098 0.5 0.5 0.5 1
-1.11791 1.52684 4.84475 0.5 0.5 0.5 1
-1.11791 -1.52684 4.84475 0.5 0.5 0.5 1
1.9652 -1.16671 5.17756 0.5 0.5 0.5 1
1.9652 1.16671 5.17756 0.5 0.5 0.5 1
-2.02596 1.20573 5.1163 0.5 0.5 0.5 1
-2.02596 -1.20573 5.1163 0.5 0.5 0.5 1
3.07087 -1.01622 5.24074 0.5 0.5 0.5 1
3.07087 1.01622 5.24074 0.5 0.5 0.5 1
-3.01248 1.04896 5.1451 0.5 0.5 0.5 1
-3.01248 -1.04896 5.1451 0.5 0.5 0.5 1
4.0631 -0.895294 5.25844 0.5 0.5 0.5 1
4.0631 0.895294 5.25844 0.5 0.5 0.5 1
-4.00161 0.914087 5.18909 0.5 0.5 0.5 1
-4.00161 -0.914087 5.18909 0.5 0.5 0.5 1
5.05983 -0.877532 5.18979 0.5 0.5 0.5 1
5.05983 0.877532 5.18979 0.5 0.5 0.5 1
-4.99978 0.84941 5.17627 0.5 0.5 0.5 1
-4.99978 -0.84941 5.17627 0.5 0.5 0.5 1
6.05963 -0.836068 5.17549 0.5 0.5 0.5 1
6.05963 0.836068 5.17549 0.5 0.5 0.5 1
-1.17887 -1.48291 3.96062 0.5 0.5 0.5 1
-1.98122 0.807962 2.92034 0.5 0.5 0.5 1
-1.98122 -0.807962 2.92034 0.5 0.5 0.5 1
1.17941 -1.46102 3.82474 0.5 0.5 0.5 1
1.17941 1.46102 3.82474 0.5 0.5 0.5 1
-2.39095 1.10917 4.07362 0.5 0.5 0.5 1
-2.39095 -1.10917 4.07362 0.5 0.5 0.5 1
0.00553696 -1.6156 3.53087 0.5 0.5 0.5 1
0.00553696 1.6156 3.53087 0.5 0.5 0.5 1
2.39225 1.05608 4.14108 0.5 0.5 0.5 1
4.07284 -0.887777 4.56119 0.5 0.5 0.5 1
-0.798943 -1.42748 3.0461 0.5 0.5 0.5 1
-0.798943 1.42748 3.0461 0.5 0.5 0.5 1
-1.47599 -0.718919 1.7465 0.5 0.5 0.5 1
-1.47599 0.718919 1.7465 0.5 0.5 0.5 1
0.97372 1.39078 2.73159 0.5 0.5 0.5 1
0.97372 -1.39078 2.73159 0.5 0.5 0.5 1
4.07284 0.887777 4.56119 0.5 0.5 0.5 1
-3.99095 0.877106 4.52497 0.5 0.5 0.5 1
2.03719 -2.08032e-16 3.16205 0.5 0.5 0.5 1
1.37254 0.989574 2.41279 0.5 0.5 0.5 1
1.37254 -0.989574 2.41279 0.5 0.5 0.5 1
0.074867 1.45251 2.57028 0.5 0.5 0.5 1
0.074867 -1.45251 2.57028 0.5 0.5 0.5 1
1.571 -1.51245e-16 2.26178 0.5 0.5 0.5 1
5.2988 -0.750396 4.14286 1 1 0 1
5.2988 0.750396 4.14286 1 1 0 1
-2.81684 -1.1396e-17 3.68377 0.5 0.5 0.5 1
-0.422491 -1.20536 2.24192 0.5 0.5 0.5 1
-0.422491 1.20536 2.24192 0.5 0.5 0.5 1
0.722847 1.02438 1.88518 0.5 0.5 0.5 1
0.722847 -1.02438 1.88518 0.5 0.5 0.5 1
-3.99095 -0.877106 4.52497 0.5 0.5 0.5 1
0.0549374 7.00771e-17 1.03911 1 1 0 1
2.63367 8.09305e-17 3.86575 0.5 0.5 0.5 1
-5.15465 0.815558 4.6311 1 1 0 1
-5.15465 -0.815558 4.6311 1 1 0 1
0.9197 0.595461 1.69423 0.5 0.5 0.5 1
0.9197 -0.595461 1.69423 0.5 0.5 0.5 1
0.0229639 0.887807 1.79691 0.5 0.5 0.5 1
0.0229639 -0.887807 1.79691 0.5 0.5 0.5 1
6.17655 -0.7716 4.64798 0.5 0.5 0.5 1
6.17655 0.7716 4.64798 0.5 0.5 0.5 1
2.39225 -1.05608 4.14108 0.5 0.5 0.5 1
1.64029 1.27475 3.30699 0.5 0.5 0.5 1
1.64029 -1.27475 3.30699 0.5 0.5 0.5 1
-1.17887 1.48291 3.96062 0.5 0.5 0.5 1

3 0 1 64
3 0 64 1
3 0 24 63
3 0 63 24
3 0 63 64
3 0 64 63
3 1 25 64
3 1 64 25
3 2 6 31
3 2 31 6
3 2 9 28
3 2 28 9
3 2 28 35
3 2 35 28
3 2 31 35
3 2 35 31
3 3 4 70
3 3 70 4
3 3 26 69
3 3 69 26
3 3 69 70
3 3 70 69
3 4 27 70
3 4 70 27
3 5 7 32
3 5 32 7
3 5 8 74
3 5 74 8
3 5 32 36
3 5 36 32
3 5 36 74
3 5 74 36
3 6 10 71
3 6 71 10
3 6 31 71
3 6 71 31
3 7 11 37
3 7 37 11
3 7 32 37
3 7 37 32
3 8 12 33
3 8 33 12
3 8 33 74
3 8 74 33
3 9 13 34
3 9 34 13
3 9 28 34
3 9 34 28
3 10 14 71
3 10 71 14
3 11 15 37
3 11 37 15
3 12 16 33
3 12 33 16
3 13 17 34
3 13 34 17
3 14 18 38
3 14 38 18
3 14 38 71
3 14 71 38
3 15 19 45
3 15 45 19
3 15 37 45
3 15 45 37
3 16 20 46
3 16 46 20
3 16 33 46
3 16 46 33
3 17 21 60
3 17 60 21
3 17 34 60
3 17 60 34
3 18 22 38
3 18 38 22
3 19 23 45
3 19 45 23
3 20 24 46
3 20 46 24
3 21 25 60
3 21 60 25
3 22 26 53
3 22 53 26
3 22 38 53
3 22 53 38
3 23 27 54
3 23 54 27
3 23 45 54
3 23 54 45
3 24 46 63
3 24 63 46
3 25 60 64
3 25 64 60
3 26 53 69
3 26 69 53
3 27 54 70
3 27 70 54
3 28 34 39
3 28 39 34
3 28 35 39
3 28 39 35
3 29 30 41
3 29 41 30
3 29 30 55
3 29 55 30
3 29 33 40
3 29 40 33
3 29 33 55
3 29 55 33
3 29 40 57
3 29 57 40
3 29 41 42
3 29 42 41
3 29 42 57
3 29 57 42
3 30 34 39
3 30 39 34
3 30 34 55
3 30 55 34
3 30 39 56
3 30 56 39
3 30 41 56
3 30 56 41
3 31 35 44
3 31 44 35
3 31 44 73
3 31 73 44
3 31 71 73
3 31 73 71
3 32 36 43
3 32 43 36
3 32 37 72
3 32 72 37
3 32 43 72
3 32 72 43
3 33 40 74
3 33 74 40
3 33 46 55
3 33 55 46
3 34 55 60
3 34 60 55
3 35 39 51
3 35 51 39
3 35 44 51
3 35 51 44
3 36 40 50
3 36 50 40
3 36 40 74
3 36 74 40
3 36 43 50
3 36 50 43
3 37 45 62
3 37 62 45
3 37 47 62
3 37 62 47
3 37 47 72
3 37 72 47
3 38 45 54
3 38 54 45
3 38 45 62
3 38 62 45
3 38 53 54
3 38 54 53
3 38 62 71
3 38 71 62
3 39 51 56
3 39 56 51
3 40 50 57
3 40 57 50
3 41 42 61
3 41 61 42
3 41 56 61
3 41 61 56
3 42 57 61
3 42 61 57
3 43 48 58
3 43 58 48
3 43 48 72
3 43 72 48
3 43 50 58
3 43 58 50
3 44 49 59
3 44 59 49
3 44 49 73
3 44 73 49
3 44 51 59
3 44 59 51
3 46 55 60
3 46 60 55
3 46 60 64
3 46 64 60
3 46 63 64
3 46 64 63
3 47 48 52
3 47 52 48
3 47 48 72
3 47 72 48
3 47 49 52
3 47 52 49
3 47 49 73
3 47 73 49
3 47 62 71
3 47 71 62
3 47 71 73
3 47 73 71
3 48 52 61
3 48 61 52
3 48 52 65
3 48 65 52
3 48 58 61
3 48 61 58
3 48 58 65
3 48 65 58
3 49 52 61
3 49 61 52
3 49 52 66
3 49 66 52
3 49 59 61
3 49 61 59
3 49 59 66
3 49 66 59
3 50 57 61
3 50 61 57
3 50 57 67
3 50 67 57
3 50 58 61
3 50 61 58
3 50 58 67
3 50 67 58
3 51 56 61
3 51 61 56
3 51 56 68
3 51 68 56
3 51 59 61
3 51 61 59
3 51 59 68
3 51 68 59
3 52 61 65
3 52 65 61
3 52 61 66
3 52 66 61
3 53 54 70
3 53 70 54
3 53 69 70
3 53 70 69
3 56 61 68
3 56 68 61
3 57 61 67
3 57 67 61
3 58 61 65
3 58 65 61
3 58 61 67
3 58 67 61
3 59 61 66
3 59 66 61
3 59 61 68
3 59 68 61
