COFF
83 284 83

-6.37644 0.916636 5.79487 0.5 0.5 0.5 1
-6.37644 -0.916636 5.79487 0.5 0.5 0.5 1
-0.0275269 -1.98424 5.4142 0.5 0.5 0.5 1
7.28301 -0.908828 5.81685 0.5 0.5 0.5 1
7.28301 0.908828 5.81685 0.5 0.5 0.5 1
-0.0275269 1.98424 5.4142 0.5 0.5 0.5 1
1.09579 -1.60561 5.62126 0.5 0.5 0.5 1
1.09579 1.60561 5.62126 0.5 0.5 0.5 1
-1.13692 1.60442 5.57418 0.5 0.5 0.5 1
-1.13692 -1.60442 5.57418 0.5 0.5 0.5 1
1.98383 -1.23739 5.92687 0.5 0.5 0.5 1
1.98383 1.23739 5.92687 0.5 0.5 0.5 1
-2.03388 1.27379 5.86809 0.5 0.5 0.5 1
-2.03388 -1.27379 5.86809 0.5 0.5 0.5 1
3.07248 -1.1133 5.96911 0.5 0.5 0.5 1
3.07248 1.1133 5.96911 0.5 0.5 0.5 1
-3.02332 1.13286 5.8825 0.5 0.5 0.5 1
-3.02332 -1.13286 5.8825 0.5 0.5 0.5 1
4.06849 -1.02928 5.98536 0.5 0.5 0.5 1
4.06849 1.02928 5.98536 0.5 0.5 0.5 1
-4.01363 1.00414 5.93159 0.5 0.5 0.5 1
-4.01363 -1.00414 5.93159 0.5 0.5 0.5 1
5.05574 -1.10064 5.79661 0.5 0.5 0.5 1
5.05574 1.10064 5.79661 0.5 0.5 0.5 1
-5.00792 1.03522 5.81525 0.5 0.5 0.5 1
-5.00792 -1.03522 5.81525 0.5 0.5 0.5 1
6.0735 -1.06572 5.76891 0.5 0.5 0.5 1
6.0735 1.06572 5.76891 0.5 0.5 0.5 1
-1.22069 -1.56649 4.6565 0.5 0.5 0.5 1
-2.09533 0.877875 3.52245 0.5 0.5 0.5 1
-2.09533 -0.877875 3.52245 0.5 0.5 0.5 1
1.22386 -1.54989 4.51448 0.5 0.5 0.5 1
1.22386 1.54989 4.51448 0.5 0.5 0.5 1
-2.45233 1.19163 4.78315 0.5 0.5 0.5 1
-2.45233 -1.19163 4.78315 0.5 0.5 0.5 1
0.0106866 -1.70157 4.16886 0.5 0.5 0.5 1
0.0106867 1.70157 4.16886 0.5 0.5 0.5 1
2.45681 1.15756 4.8332 0.5 0.5 0.5 1
4.10306 -1.06584 5.28364 0.5 0.5 0.5 1
-0.934955 -1.51985 3.7233 0.5 0.5 0.5 1
-0.934955 1.51985 3.7233 0.5 0.5 0.5 1
-1.49838 -0.887947 2.12678 0.5 0.5 0.5 1
-1.49838 0.887947 2.12678 0.5 0.5 0.5 1
1.05952 1.49636 3.37353 0.5 0.5 0.5 1
1.05952 -1.49636 3.37353 0.5 0.5 0.5 1
4.10306 1.06584 5.28364 0.5 0.5 0.5 1
-4.01548 0.999482 5.23272 0.5 0.5 0.5 1
2.24237 2.0422e-13 3.80168 0.5 0.5 0.5 1
1.49522 1.11332 3.00552 0.5 0.5 0.5 1
1.49522 -1.11332 3.00552 0.5 0.5 0.5 1
0.107044 1.57371 3.15821 0.5 0.5 0.5 1
0.107058 -1.57385 3.15821 0.5 0.5 0.5 1
1.73376 -2.06536e-11 2.76856 0.5 0.5 0.5 1
5.29955 -0.750448 4.14286 1 1 0 1
5.29955 0.750448 4.14286 1 1 0 1
-3.03022 -4.26042e-12 4.29168 0.5 0.5 0.5 1
-0.625865 -1.39781 2.89077 0.5 0.5 0.5 1
-0.625865 1.39781 2.89077 0.5 0.5 0.5 1
0.924952 1.33238 2.42935 0.5 0.5 0.5 1
0.924952 -1.33238 2.42935 0.5 0.5 0.5 1
-4.01548 -0.999482 5.23272 0.5 0.5 0.5 1
0.113092 -5.47024e-10 1.03911 1 1 0 1
2.9674 -1.93068e-14 4.32512 0.5 0.5 0.5 1
-5.1582 0.815836 4.6311 1 1 0 1
-5.1582 -0.815836 4.6311 1 1 0 1
1.26449 0.852587 2.12053 0.5 0.5 0.5 1
1.26449 -0.852587 2.12053 0.5 0.5 0.5 1
0.138462 1.34968 2.23215 0.5 0.5 0.5 1
0.138462 -1.34968 2.23215 0.5 0.5 0.5 1
6.55605 -0.927209 5.16603 0.5 0.5 0.5 1
6.55605 0.927209 5.16603 0.5 0.5 0.5 1
2.45681 -1.15756 4.8332 0.5 0.5 0.5 1
1.70181 1.36412 3.97336 0.5 0.5 0.5 1
1.70181 -1.36412 3.97336 0.5 0.5 0.5 1
-1.22069 1.56649 4.6565 0.5 0.5 0.5 1
1.37588 -3.55289e-10 1.95609 0.5 0.5 0.5 1
-0.305168 -1.11268 1.91109 0.5 0.5 0.5 1
-0.305168 1.11268 1.91109 0.5 0.5 0.5 1
-1.00306 -0.483941 1.51139 0.5 0.5 0.5 1
-1.00306 0.483941 1.51139 0.5 0.5 0.5 1
4.10318 -5.90534e-14 5.16508 0.5 0.5 0.5 1
0.582424 0.765349 1.70662 0.5 0.5 0.5 1
0.582424 -0.765349 1.70662 0.5 0.5 0.5 1

3 0 1 64
3 0 64 1
3 0 24 63
3 0 63 24
3 0 63 64
3 0 64 63
3 1 25 64
3 1 64 25
3 2 6 31
3 2 31 6
3 2 9 28
3 2 28 9
3 2 28 35
3 2 35 28
3 2 31 35
3 2 35 31
3 3 4 70
3 3 70 4
3 3 26 69
3 3 69 26
3 3 69 70
3 3 70 69
3 4 27 70
3 4 70 27
3 5 7 32
3 5 32 7
3 5 8 74
3 5 74 8
3 5 32 36
3 5 36 32
3 5 36 74
3 5 74 36
3 6 10 71
3 6 71 10
3 6 31 71
3 6 71 31
3 7 11 37
3 7 37 11
3 7 32 37
3 7 37 32
3 8 12 33
3 8 33 12
3 8 33 74
3 8 74 33
3 9 13 34
3 9 34 13
3 9 28 34
3 9 34 28
3 10 14 71
3 10 71 14
3 11 15 37
3 11 37 15
3 12 16 33
3 12 33 16
3 13 17 34
3 13 34 17
3 14 18 38
3 14 38 18
3 14 38 71
3 14 71 38
3 15 19 45
3 15 45 19
3 15 37 45
3 15 45 37
3 16 20 46
3 16 46 20
3 16 33 46
3 16 46 33
3 17 21 60
3 17 60 21
3 17 34 60
3 17 60 34
3 18 22 38
3 18 38 22
3 19 23 45
3 19 45 23
3 20 24 46
3 20 46 24
3 21 25 60
3 21 60 25
3 22 26 53
3 22 53 26
3 22 38 53
3 22 53 38
3 23 27 54
3 23 54 27
3 23 45 54
3 23 54 45
3 24 46 63
3 24 63 46
3 25 60 64
3 25 64 60
3 26 53 69
3 26 69 53
3 27 54 70
3 27 70 54
3 28 34 39
3 28 39 34
3 28 35 39
3 28 39 35
3 29 30 41
3 29 41 30
3 29 30 55
3 29 55 30
3 29 33 40
3 29 40 33
3 29 33 55
3 29 55 33
3 29 40 57
3 29 57 40
3 29 41 42
3 29 42 41
3 29 42 57
3 29 57 42
3 30 34 39
3 30 39 34
3 30 34 55
3 30 55 34
3 30 39 56
3 30 56 39
3 30 41 56
3 30 56 41
3 31 35 44
3 31 44 35
3 31 44 73
3 31 73 44
3 31 71 73
3 31 73 71
3 32 36 43
3 32 43 36
3 32 37 72
3 32 72 37
3 32 43 72
3 32 72 43
3 33 40 74
3 33 74 40
3 33 46 55
3 33 55 46
3 34 55 60
3 34 60 55
3 35 39 51
3 35 51 39
3 35 44 51
3 35 51 44
3 36 40 50
3 36 50 40
3 36 40 74
3 36 74 40
3 36 43 50
3 36 50 43
3 37 45 62
3 37 62 45
3 37 47 62
3 37 62 47
3 37 47 72
3 37 72 47
3 38 53 80
3 38 80 53
3 38 62 71
3 38 71 62
3 38 62 80
3 38 80 62
3 39 51 56
3 39 56 51
3 40 50 57
3 40 57 50
3 41 42 79
3 41 79 42
3 41 56 76
3 41 76 56
3 41 61 76
3 41 76 61
3 41 61 78
3 41 78 61
3 41 78 79
3 41 79 78
3 42 57 77
3 42 77 57
3 42 61 77
3 42 77 61
3 42 61 79
3 42 79 61
3 43 48 58
3 43 58 48
3 43 48 72
3 43 72 48
3 43 50 58
3 43 58 50
3 44 49 59
3 44 59 49
3 44 49 73
3 44 73 49
3 44 51 59
3 44 59 51
3 45 54 80
3 45 80 54
3 45 62 80
3 45 80 62
3 46 55 60
3 46 60 55
3 46 60 64
3 46 64 60
3 46 63 64
3 46 64 63
3 47 48 52
3 47 52 48
3 47 48 72
3 47 72 48
3 47 49 52
3 47 52 49
3 47 49 73
3 47 73 49
3 47 62 71
3 47 71 62
3 47 71 73
3 47 73 71
3 48 52 65
3 48 65 52
3 48 58 65
3 48 65 58
3 49 52 66
3 49 66 52
3 49 59 66
3 49 66 59
3 50 57 67
3 50 67 57
3 50 58 67
3 50 67 58
3 51 56 68
3 51 68 56
3 51 59 68
3 51 68 59
3 52 61 65
3 52 65 61
3 52 61 66
3 52 66 61
3 52 65 75
3 52 75 65
3 52 66 75
3 52 75 66
3 53 54 70
3 53 70 54
3 53 54 80
3 53 80 54
3 53 69 70
3 53 70 69
3 56 68 76
3 56 76 68
3 57 67 77
3 57 77 67
3 58 61 65
3 58 65 61
3 58 61 67
3 58 67 61
3 58 65 81
3 58 81 65
3 58 67 81
3 58 81 67
3 59 61 66
3 59 66 61
3 59 61 68
3 59 68 61
3 59 66 82
3 59 82 66
3 59 68 82
3 59 82 68
3 61 65 75
3 61 75 65
3 61 65 81
3 61 81 65
3 61 66 75
3 61 75 66
3 61 66 82
3 61 82 66
3 61 67 77
3 61 77 67
3 61 67 81
3 61 81 67
3 61 68 76
3 61 76 68
3 61 68 82
3 61 82 68
3 61 78 79
3 61 79 78
