COFF
98 354 98

-6.46943 1.00108 6.07819 0.5 0.5 0.5 1
-6.46943 -1.00108 6.07819 0.5 0.5 0.5 1
-0.0276342 -2.02723 5.77239 0.5 0.5 0.5 1
7.34517 -0.962151 6.14403 0.5 0.5 0.5 1
7.34517 0.962151 6.14403 0.5 0.5 0.5 1
-0.0276342 2.02723 5.77239 0.5 0.5 0.5 1
1.11014 -1.64387 5.98491 0.5 0.5 0.5 1
1.11014 1.64387 5.98491 0.5 0.5 0.5 1
-1.14569 1.64381 5.93673 0.5 0.5 0.5 1
-1.14569 -1.64381 5.93673 0.5 0.5 0.5 1
1.99357 -1.27537 6.29746 0.5 0.5 0.5 1
1.99357 1.27537 6.29746 0.5 0.5 0.5 1
-2.03891 1.31109 6.23938 0.5 0.5 0.5 1
-2.03891 -1.31109 6.23938 0.5 0.5 0.5 1
3.07373 -1.16679 6.32622 0.5 0.5 0.5 1
3.07373 1.16679 6.32622 0.5 0.5 0.5 1
-3.0304 1.18519 6.23874 0.5 0.5 0.5 1
-3.0304 -1.18519 6.23874 0.5 0.5 0.5 1
4.0712 -1.10136 6.34028 0.5 0.5 0.5 1
4.0712 1.10136 6.34028 0.5 0.5 0.5 1
-4.02399 1.09086 6.29752 0.5 0.5 0.5 1
-4.02399 -1.09086 6.29752 0.5 0.5 0.5 1
5.05954 -1.21551 6.0933 0.5 0.5 0.5 1
5.05954 1.21551 6.0933 0.5 0.5 0.5 1
-5.01077 1.15356 6.10564 0.5 0.5 0.5 1
-5.01077 -1.15356 6.10564 0.5 0.5 0.5 1
6.08518 -1.17956 6.06345 0.5 0.5 0.5 1
6.08518 1.17956 6.06345 0.5 0.5 0.5 1
-6.48728 -1.25569e-13 6.07791 0.5 0.5 0.5 1
-2.13874 0.91576 3.82428 0.5 0.5 0.5 1
-2.13874 -0.91576 3.82428 0.5 0.5 0.5 1
1.24302 -1.59232 4.85852 0.5 0.5 0.5 1
1.24302 1.59232 4.85852 0.5 0.5 0.5 1
-2.47863 1.24007 5.12943 0.5 0.5 0.5 1
-2.47863 -1.24007 5.12943 0.5 0.5 0.5 1
0.0131386 -1.74347 4.49306 0.5 0.5 0.5 1
0.0131386 1.74347 4.49306 0.5 0.5 0.5 1
2.48629 1.20915 5.17537 0.5 0.5 0.5 1
4.11785 -1.15271 5.60727 0.5 0.5 0.5 1
-0.985956 -1.55916 4.06473 0.5 0.5 0.5 1
-0.985956 1.55916 4.06473 0.5 0.5 0.5 1
-1.5523 -0.944126 2.38495 0.5 0.5 0.5 1
-1.5523 0.944126 2.38495 0.5 0.5 0.5 1
1.09067 1.541 3.69129 0.5 0.5 0.5 1
1.09067 -1.541 3.69129 0.5 0.5 0.5 1
4.11785 1.15271 5.60727 0.5 0.5 0.5 1
-4.03307 1.09456 5.55853 0.5 0.5 0.5 1
2.32028 -2.45572e-10 4.11931 0.5 0.5 0.5 1
1.53785 1.15995 3.30567 0.5 0.5 0.5 1
1.53785 -1.15995 3.30567 0.5 0.5 0.5 1
0.114301 1.6163 3.45049 0.5 0.5 0.5 1
0.114233 -1.61635 3.45049 0.5 0.5 0.5 1
1.80041 -3.44926e-09 3.0306 0.5 0.5 0.5 1
5.29031 -0.750285 4.14286 1 1 0 1
5.29031 0.750285 4.14286 1 1 0 1
-3.17844 -2.00292e-10 4.59593 0.5 0.5 0.5 1
-0.719196 -1.43296 3.20538 0.5 0.5 0.5 1
-0.719195 1.43296 3.20538 0.5 0.5 0.5 1
0.976148 1.40365 2.7203 0.5 0.5 0.5 1
0.976148 -1.40366 2.7203 0.5 0.5 0.5 1
-4.03307 -1.09456 5.55853 0.5 0.5 0.5 1
0.144731 -1.71467e-08 1.03911 1 1 0 1
3.12944 -6.54333e-11 4.58597 0.5 0.5 0.5 1
-5.13116 0.81548 4.6311 1 1 0 1
-5.13116 -0.81548 4.6311 1 1 0 1
1.33751 0.93402 2.36078 0.5 0.5 0.5 1
1.33751 -0.93402 2.36078 0.5 0.5 0.5 1
0.193739 1.44677 2.47141 0.5 0.5 0.5 1
0.193738 -1.44677 2.47141 0.5 0.5 0.5 1
6.63661 -1.0346 5.44028 0.5 0.5 0.5 1
6.63661 1.0346 5.44028 0.5 0.5 0.5 1
2.48629 -1.20915 5.17537 0.5 0.5 0.5 1
1.72662 1.40712 4.29753 0.5 0.5 0.5 1
1.72662 -1.40712 4.29753 0.5 0.5 0.5 1
-1.23587 1.60874 5.00431 0.5 0.5 0.5 1
1.50109 -5.04456e-09 2.20406 0.5 0.5 0.5 1
-0.390771 -1.2805 2.13911 0.5 0.5 0.5 1
-0.390771 1.2805 2.13911 0.5 0.5 0.5 1
-1.26599 -0.641813 1.60527 0.5 0.5 0.5 1
-1.26599 0.641813 1.60527 0.5 0.5 0.5 1
4.11832 -2.70482e-11 5.34464 0.5 0.5 0.5 1
0.751859 1.03278 1.87537 0.5 0.5 0.5 1
0.751859 -1.03278 1.87537 0.5 0.5 0.5 1
-4.0329 3.53421e-10 5.41431 0.5 0.5 0.5 1
5.76938 -1.0297 5.14215 0.5 0.5 0.5 1
5.76938 1.0297 5.14215 0.5 0.5 0.5 1
6.70751 3.98354e-15 5.40361 0.5 0.5 0.5 1
0.154881 0.781843 1.74078 0.5 0.5 0.5 1
0.154881 -0.781843 1.74078 0.5 0.5 0.5 1
6.02932 -0.365635 4.76355 0.5 0.5 0.5 1
6.02932 0.365635 4.76355 0.5 0.5 0.5 1
5.16919 -0.998595 5.12129 0.5 0.5 0.5 1
5.16919 0.998595 5.12129 0.5 0.5 0.5 1
0.76724 0.4719 1.69519 0.5 0.5 0.5 1
0.76724 -0.4719 1.69519 0.5 0.5 0.5 1
-1.23587 -1.60874 5.00431 0.5 0.5 0.5 1
-5.80459 0.405836 5.35339 0.5 0.5 0.5 1
-5.80459 -0.405836 5.35339 0.5 0.5 0.5 1

3 0 24 63
3 0 63 24
3 0 28 96
3 0 96 28
3 0 63 96
3 0 96 63
3 1 25 64
3 1 64 25
3 1 28 97
3 1 97 28
3 1 64 97
3 1 97 64
3 2 6 31
3 2 31 6
3 2 9 95
3 2 95 9
3 2 31 35
3 2 35 31
3 2 35 95
3 2 95 35
3 3 4 86
3 3 86 4
3 3 26 69
3 3 69 26
3 3 69 86
3 3 86 69
3 4 27 70
3 4 70 27
3 4 70 86
3 4 86 70
3 5 7 32
3 5 32 7
3 5 8 74
3 5 74 8
3 5 32 36
3 5 36 32
3 5 36 74
3 5 74 36
3 6 10 71
3 6 71 10
3 6 31 71
3 6 71 31
3 7 11 37
3 7 37 11
3 7 32 37
3 7 37 32
3 8 12 33
3 8 33 12
3 8 33 74
3 8 74 33
3 9 13 34
3 9 34 13
3 9 34 95
3 9 95 34
3 10 14 71
3 10 71 14
3 11 15 37
3 11 37 15
3 12 16 33
3 12 33 16
3 13 17 34
3 13 34 17
3 14 18 38
3 14 38 18
3 14 38 71
3 14 71 38
3 15 19 45
3 15 45 19
3 15 37 45
3 15 45 37
3 16 20 46
3 16 46 20
3 16 33 46
3 16 46 33
3 17 21 60
3 17 60 21
3 17 34 60
3 17 60 34
3 18 22 38
3 18 38 22
3 19 23 45
3 19 45 23
3 20 24 46
3 20 46 24
3 21 25 60
3 21 60 25
3 22 26 84
3 22 84 26
3 22 38 53
3 22 53 38
3 22 38 91
3 22 91 38
3 22 53 84
3 22 84 53
3 22 84 91
3 22 91 84
3 23 27 85
3 23 85 27
3 23 45 54
3 23 54 45
3 23 45 92
3 23 92 45
3 23 54 85
3 23 85 54
3 23 85 92
3 23 92 85
3 24 46 63
3 24 63 46
3 25 60 64
3 25 64 60
3 26 69 84
3 26 84 69
3 27 70 85
3 27 85 70
3 28 96 97
3 28 97 96
3 29 30 41
3 29 41 30
3 29 30 55
3 29 55 30
3 29 33 40
3 29 40 33
3 29 33 55
3 29 55 33
3 29 40 57
3 29 57 40
3 29 41 42
3 29 42 41
3 29 42 57
3 29 57 42
3 30 34 39
3 30 39 34
3 30 34 55
3 30 55 34
3 30 39 56
3 30 56 39
3 30 41 56
3 30 56 41
3 31 35 44
3 31 44 35
3 31 44 73
3 31 73 44
3 31 71 73
3 31 73 71
3 32 36 43
3 32 43 36
3 32 37 72
3 32 72 37
3 32 43 72
3 32 72 43
3 33 40 74
3 33 74 40
3 33 46 55
3 33 55 46
3 34 39 95
3 34 95 39
3 34 55 60
3 34 60 55
3 35 39 51
3 35 51 39
3 35 39 95
3 35 95 39
3 35 44 51
3 35 51 44
3 36 40 50
3 36 50 40
3 36 40 74
3 36 74 40
3 36 43 50
3 36 50 43
3 37 45 62
3 37 62 45
3 37 47 62
3 37 62 47
3 37 47 72
3 37 72 47
3 38 53 80
3 38 80 53
3 38 53 91
3 38 91 53
3 38 62 71
3 38 71 62
3 38 62 80
3 38 80 62
3 39 51 56
3 39 56 51
3 40 50 57
3 40 57 50
3 41 42 79
3 41 79 42
3 41 56 76
3 41 76 56
3 41 61 76
3 41 76 61
3 41 61 78
3 41 78 61
3 41 78 79
3 41 79 78
3 42 57 77
3 42 77 57
3 42 61 77
3 42 77 61
3 42 61 79
3 42 79 61
3 43 48 58
3 43 58 48
3 43 48 72
3 43 72 48
3 43 50 58
3 43 58 50
3 44 49 59
3 44 59 49
3 44 49 73
3 44 73 49
3 44 51 59
3 44 59 51
3 45 54 80
3 45 80 54
3 45 54 92
3 45 92 54
3 45 62 80
3 45 80 62
3 46 55 83
3 46 83 55
3 46 63 83
3 46 83 63
3 47 48 52
3 47 52 48
3 47 48 72
3 47 72 48
3 47 49 52
3 47 52 49
3 47 49 73
3 47 73 49
3 47 62 71
3 47 71 62
3 47 71 73
3 47 73 71
3 48 52 65
3 48 65 52
3 48 58 65
3 48 65 58
3 49 52 66
3 49 66 52
3 49 59 66
3 49 66 59
3 50 57 67
3 50 67 57
3 50 58 67
3 50 67 58
3 51 56 68
3 51 68 56
3 51 59 68
3 51 68 59
3 52 65 75
3 52 75 65
3 52 66 75
3 52 75 66
3 53 54 80
3 53 80 54
3 53 54 90
3 53 90 54
3 53 69 84
3 53 84 69
3 53 69 86
3 53 86 69
3 53 84 91
3 53 91 84
3 53 86 89
3 53 89 86
3 53 89 90
3 53 90 89
3 54 70 85
3 54 85 70
3 54 70 86
3 54 86 70
3 54 85 92
3 54 92 85
3 54 86 90
3 54 90 86
3 55 60 83
3 55 83 60
3 56 68 76
3 56 76 68
3 57 67 77
3 57 77 67
3 58 65 81
3 58 81 65
3 58 67 81
3 58 81 67
3 59 66 82
3 59 82 66
3 59 68 82
3 59 82 68
3 60 64 83
3 60 83 64
3 61 65 75
3 61 75 65
3 61 65 81
3 61 81 65
3 61 66 75
3 61 75 66
3 61 66 82
3 61 82 66
3 61 67 77
3 61 77 67
3 61 67 81
3 61 81 67
3 61 68 76
3 61 76 68
3 61 68 82
3 61 82 68
3 61 75 93
3 61 93 75
3 61 75 94
3 61 94 75
3 61 76 88
3 61 88 76
3 61 77 87
3 61 87 77
3 61 78 79
3 61 79 78
3 61 81 87
3 61 87 81
3 61 81 93
3 61 93 81
3 61 82 88
3 61 88 82
3 61 82 94
3 61 94 82
3 63 64 83
3 63 83 64
3 63 64 97
3 63 97 64
3 63 96 97
3 63 97 96
3 65 75 93
3 65 93 75
3 65 81 93
3 65 93 81
3 66 75 94
3 66 94 75
3 66 82 94
3 66 94 82
3 67 77 87
3 67 87 77
3 67 81 87
3 67 87 81
3 68 76 88
3 68 88 76
3 68 82 88
3 68 88 82
3 86 89 90
3 86 90 89
