COFF
109 396 109

-6.54575 1.11388 6.40991 0.5 0.5 0.5 1
-6.54575 -1.11388 6.40991 0.5 0.5 0.5 1
-0.0277509 -2.06961 6.1301 0.5 0.5 0.5 1
7.40691 -1.01607 6.469 0.5 0.5 0.5 1
7.40691 1.01607 6.469 0.5 0.5 0.5 1
-0.0277509 2.06961 6.1301 0.5 0.5 0.5 1
1.12461 -1.68237 6.34728 0.5 0.5 0.5 1
1.12461 1.68237 6.34728 0.5 0.5 0.5 1
-1.15422 1.68372 6.29767 0.5 0.5 0.5 1
-1.15422 -1.68372 6.29767 0.5 0.5 0.5 1
2.00338 -1.31468 6.66578 0.5 0.5 0.5 1
2.00338 1.31468 6.66578 0.5 0.5 0.5 1
-2.044 1.34954 6.60863 0.5 0.5 0.5 1
-2.044 -1.34954 6.60863 0.5 0.5 0.5 1
3.07442 -1.22238 6.67985 0.5 0.5 0.5 1
3.07442 1.22238 6.67985 0.5 0.5 0.5 1
-3.03726 1.24015 6.59088 0.5 0.5 0.5 1
-3.03726 -1.24015 6.59088 0.5 0.5 0.5 1
4.07248 -1.16543 6.68565 0.5 0.5 0.5 1
4.07248 1.16543 6.68565 0.5 0.5 0.5 1
-4.03224 1.15638 6.64103 0.5 0.5 0.5 1
-4.03224 -1.15638 6.64103 0.5 0.5 0.5 1
5.05607 -1.3143 6.40323 0.5 0.5 0.5 1
5.05607 1.3143 6.40323 0.5 0.5 0.5 1
-5.00868 1.27354 6.39634 0.5 0.5 0.5 1
-5.00868 -1.27354 6.39634 0.5 0.5 0.5 1
6.10664 -1.27478 6.39028 0.5 0.5 0.5 1
6.10664 1.27478 6.39028 0.5 0.5 0.5 1
-7.66112 -0.000209782 6.36539 0.5 0.5 0.5 1
7.78968 1.44103e-14 6.46963 0.5 0.5 0.5 1
-2.17842 -0.957621 4.12644 0.5 0.5 0.5 1
1.26179 -1.63402 5.20117 0.5 0.5 0.5 1
1.26179 1.63402 5.20117 0.5 0.5 0.5 1
-2.50418 1.29121 5.47228 0.5 0.5 0.5 1
-2.50418 -1.29121 5.47228 0.5 0.5 0.5 1
0.0155287 -1.78512 4.81872 0.5 0.5 0.5 1
0.0155278 1.78515 4.81872 0.5 0.5 0.5 1
2.51517 1.258 5.5148 0.5 0.5 0.5 1
4.1162 -1.19687 5.88266 0.5 0.5 0.5 1
-1.03235 -1.59953 4.40313 0.5 0.5 0.5 1
-1.03235 1.59953 4.40313 0.5 0.5 0.5 1
-1.59596 -0.989567 2.64636 0.5 0.5 0.5 1
-1.59596 0.989566 2.64636 0.5 0.5 0.5 1
1.11624 1.58473 4.0125 0.5 0.5 0.5 1
1.11624 -1.58473 4.0125 0.5 0.5 0.5 1
4.1162 1.19687 5.88266 0.5 0.5 0.5 1
-4.05138 1.17767 5.8626 0.5 0.5 0.5 1
2.38556 -2.353e-10 4.43449 0.5 0.5 0.5 1
1.57456 1.19972 3.60687 0.5 0.5 0.5 1
1.57456 -1.19972 3.60687 0.5 0.5 0.5 1
0.119722 1.65868 3.74451 0.5 0.5 0.5 1
0.119691 -1.65865 3.74451 0.5 0.5 0.5 1
1.8461 1.57691e-08 3.29646 0.5 0.5 0.5 1
5.29882 -0.750541 4.14286 1 1 0 1
5.29882 0.750541 4.14286 1 1 0 1
-3.30009 -6.96963e-10 4.91201 0.5 0.5 0.5 1
-0.79969 -1.46385 3.51138 0.5 0.5 0.5 1
-0.79969 1.46385 3.51138 0.5 0.5 0.5 1
1.0103 1.45651 3.01058 0.5 0.5 0.5 1
1.01031 -1.45652 3.01058 0.5 0.5 0.5 1
-4.05138 -1.17767 5.8626 0.5 0.5 0.5 1
0.148842 -4.59734e-08 1.03911 1 1 0 1
3.19867 -1.01744e-10 4.83117 0.5 0.5 0.5 1
-5.11656 0.815504 4.6311 1 1 0 1
-5.11656 -0.815504 4.6311 1 1 0 1
1.38678 1.00299 2.62533 0.5 0.5 0.5 1
1.38677 -1.00299 2.62533 0.5 0.5 0.5 1
0.2355 1.51815 2.73529 0.5 0.5 0.5 1
0.235499 -1.51815 2.73529 0.5 0.5 0.5 1
6.72475 -1.1484 5.778 0.5 0.5 0.5 1
6.72475 1.1484 5.778 0.5 0.5 0.5 1
2.51517 -1.258 5.5148 0.5 0.5 0.5 1
1.75233 1.44888 4.61818 0.5 0.5 0.5 1
1.75233 -1.44888 4.61818 0.5 0.5 0.5 1
-1.2495 1.65192 5.35106 0.5 0.5 0.5 1
1.55097 3.76871e-07 2.41355 0.5 0.5 0.5 1
-0.449473 -1.34302 2.35632 0.5 0.5 0.5 1
-0.449473 1.34302 2.35632 0.5 0.5 0.5 1
-1.43588 -0.778758 1.77153 0.5 0.5 0.5 1
-1.43588 0.778758 1.77153 0.5 0.5 0.5 1
4.14776 -5.321e-10 5.63162 0.5 0.5 0.5 1
0.853837 1.19577 2.09007 0.5 0.5 0.5 1
0.853836 -1.19577 2.09007 0.5 0.5 0.5 1
-4.05113 6.06016e-10 5.60948 0.5 0.5 0.5 1
5.88104 -1.19206 5.42837 0.5 0.5 0.5 1
5.88104 1.19206 5.42837 0.5 0.5 0.5 1
6.95526 -3.0412e-13 5.6287 0.5 0.5 0.5 1
0.134192 1.14321 1.88243 0.5 0.5 0.5 1
0.134192 -1.14321 1.88243 0.5 0.5 0.5 1
6.33956 -0.442875 4.77467 0.5 0.5 0.5 1
6.33956 0.442875 4.77467 0.5 0.5 0.5 1
5.1214 -1.21371 5.38369 0.5 0.5 0.5 1
5.1214 1.21371 5.38369 0.5 0.5 0.5 1
1.10685 0.678625 1.84897 0.5 0.5 0.5 1
1.10685 -0.678625 1.84897 0.5 0.5 0.5 1
-1.2495 -1.65192 5.35106 0.5 0.5 0.5 1
-6.16227 0.517087 5.37352 0.5 0.5 0.5 1
-6.16227 -0.517087 5.37352 0.5 0.5 0.5 1
-6.04726 0.951629 5.61357 0.5 0.5 0.5 1
-6.04726 -0.951629 5.61357 0.5 0.5 0.5 1
6.20021 -0.961936 4.99189 0.5 0.5 0.5 1
6.20021 0.961936 4.99189 0.5 0.5 0.5 1
4.56801 -0.933729 5.08695 0.5 0.5 0.5 1
4.56801 0.933729 5.08695 0.5 0.5 0.5 1
-6.84935 0.582534 5.96463 0.5 0.5 0.5 1
-6.84935 -0.582534 5.96463 0.5 0.5 0.5 1
-2.17842 0.957621 4.12644 0.5 0.5 0.5 1
4.69436 -0.360137 4.87077 0.5 0.5 0.5 1
4.69436 0.360137 4.87077 0.5 0.5 0.5 1

3 0 24 98
3 0 98 24
3 0 28 96
3 0 96 28
3 0 28 104
3 0 104 28
3 0 96 98
3 0 98 96
3 0 98 104
3 0 104 98
3 1 25 99
3 1 99 25
3 1 28 97
3 1 97 28
3 1 28 105
3 1 105 28
3 1 97 99
3 1 99 97
3 1 99 105
3 1 105 99
3 2 6 31
3 2 31 6
3 2 9 95
3 2 95 9
3 2 31 35
3 2 35 31
3 2 35 95
3 2 95 35
3 3 26 69
3 3 69 26
3 3 29 86
3 3 86 29
3 3 69 86
3 3 86 69
3 4 27 70
3 4 70 27
3 4 29 86
3 4 86 29
3 4 70 86
3 4 86 70
3 5 7 32
3 5 32 7
3 5 8 74
3 5 74 8
3 5 32 36
3 5 36 32
3 5 36 74
3 5 74 36
3 6 10 71
3 6 71 10
3 6 31 71
3 6 71 31
3 7 11 37
3 7 37 11
3 7 32 37
3 7 37 32
3 8 12 33
3 8 33 12
3 8 33 74
3 8 74 33
3 9 13 34
3 9 34 13
3 9 34 95
3 9 95 34
3 10 14 71
3 10 71 14
3 11 15 37
3 11 37 15
3 12 16 33
3 12 33 16
3 13 17 34
3 13 34 17
3 14 18 38
3 14 38 18
3 14 38 71
3 14 71 38
3 15 19 45
3 15 45 19
3 15 37 45
3 15 45 37
3 16 20 46
3 16 46 20
3 16 33 46
3 16 46 33
3 17 21 60
3 17 60 21
3 17 34 60
3 17 60 34
3 18 22 38
3 18 38 22
3 19 23 45
3 19 45 23
3 20 24 46
3 20 46 24
3 21 25 60
3 21 60 25
3 22 26 84
3 22 84 26
3 22 38 91
3 22 91 38
3 22 84 91
3 22 91 84
3 23 27 85
3 23 85 27
3 23 45 92
3 23 92 45
3 23 85 92
3 23 92 85
3 24 46 63
3 24 63 46
3 24 63 98
3 24 98 63
3 25 60 64
3 25 64 60
3 25 64 99
3 25 99 64
3 26 69 84
3 26 84 69
3 27 70 85
3 27 85 70
3 28 96 97
3 28 97 96
3 28 96 104
3 28 104 96
3 28 97 105
3 28 105 97
3 30 34 39
3 30 39 34
3 30 34 55
3 30 55 34
3 30 39 56
3 30 56 39
3 30 41 42
3 30 42 41
3 30 41 56
3 30 56 41
3 30 42 106
3 30 106 42
3 30 55 106
3 30 106 55
3 31 35 44
3 31 44 35
3 31 44 73
3 31 73 44
3 31 71 73
3 31 73 71
3 32 36 43
3 32 43 36
3 32 37 72
3 32 72 37
3 32 43 72
3 32 72 43
3 33 40 74
3 33 74 40
3 33 40 106
3 33 106 40
3 33 46 55
3 33 55 46
3 33 55 106
3 33 106 55
3 34 39 95
3 34 95 39
3 34 55 60
3 34 60 55
3 35 39 51
3 35 51 39
3 35 39 95
3 35 95 39
3 35 44 51
3 35 51 44
3 36 40 50
3 36 50 40
3 36 40 74
3 36 74 40
3 36 43 50
3 36 50 43
3 37 45 62
3 37 62 45
3 37 47 62
3 37 62 47
3 37 47 72
3 37 72 47
3 38 62 71
3 38 71 62
3 38 62 80
3 38 80 62
3 38 80 102
3 38 102 80
3 38 91 102
3 38 102 91
3 39 51 56
3 39 56 51
3 40 50 57
3 40 57 50
3 40 57 106
3 40 106 57
3 41 42 79
3 41 79 42
3 41 56 76
3 41 76 56
3 41 61 76
3 41 76 61
3 41 61 78
3 41 78 61
3 41 78 79
3 41 79 78
3 42 57 77
3 42 77 57
3 42 57 106
3 42 106 57
3 42 61 77
3 42 77 61
3 42 61 79
3 42 79 61
3 43 48 58
3 43 58 48
3 43 48 72
3 43 72 48
3 43 50 58
3 43 58 50
3 44 49 59
3 44 59 49
3 44 49 73
3 44 73 49
3 44 51 59
3 44 59 51
3 45 62 80
3 45 80 62
3 45 80 103
3 45 103 80
3 45 92 103
3 45 103 92
3 46 55 83
3 46 83 55
3 46 63 83
3 46 83 63
3 47 48 52
3 47 52 48
3 47 48 72
3 47 72 48
3 47 49 52
3 47 52 49
3 47 49 73
3 47 73 49
3 47 62 71
3 47 71 62
3 47 71 73
3 47 73 71
3 48 52 65
3 48 65 52
3 48 58 65
3 48 65 58
3 49 52 66
3 49 66 52
3 49 59 66
3 49 66 59
3 50 57 67
3 50 67 57
3 50 58 67
3 50 67 58
3 51 56 68
3 51 68 56
3 51 59 68
3 51 68 59
3 52 65 75
3 52 75 65
3 52 66 75
3 52 75 66
3 53 54 90
3 53 90 54
3 53 54 108
3 53 108 54
3 53 80 102
3 53 102 80
3 53 80 107
3 53 107 80
3 53 84 91
3 53 91 84
3 53 84 100
3 53 100 84
3 53 89 90
3 53 90 89
3 53 89 100
3 53 100 89
3 53 91 102
3 53 102 91
3 53 107 108
3 53 108 107
3 54 80 103
3 54 103 80
3 54 80 108
3 54 108 80
3 54 85 92
3 54 92 85
3 54 85 101
3 54 101 85
3 54 90 101
3 54 101 90
3 54 92 103
3 54 103 92
3 55 60 83
3 55 83 60
3 56 68 76
3 56 76 68
3 57 67 77
3 57 77 67
3 58 65 81
3 58 81 65
3 58 67 81
3 58 81 67
3 59 66 82
3 59 82 66
3 59 68 82
3 59 82 68
3 60 64 83
3 60 83 64
3 61 65 75
3 61 75 65
3 61 65 81
3 61 81 65
3 61 66 75
3 61 75 66
3 61 66 82
3 61 82 66
3 61 67 77
3 61 77 67
3 61 67 81
3 61 81 67
3 61 68 76
3 61 76 68
3 61 68 82
3 61 82 68
3 61 75 93
3 61 93 75
3 61 75 94
3 61 94 75
3 61 76 88
3 61 88 76
3 61 77 87
3 61 87 77
3 61 78 79
3 61 79 78
3 61 81 87
3 61 87 81
3 61 81 93
3 61 93 81
3 61 82 88
3 61 88 82
3 61 82 94
3 61 94 82
3 63 64 83
3 63 83 64
3 63 64 97
3 63 97 64
3 63 96 97
3 63 97 96
3 63 96 98
3 63 98 96
3 64 97 99
3 64 99 97
3 65 75 93
3 65 93 75
3 65 81 93
3 65 93 81
3 66 75 94
3 66 94 75
3 66 82 94
3 66 94 82
3 67 77 87
3 67 87 77
3 67 81 87
3 67 87 81
3 68 76 88
3 68 88 76
3 68 82 88
3 68 88 82
3 69 84 100
3 69 100 84
3 69 86 100
3 69 100 86
3 70 85 101
3 70 101 85
3 70 86 101
3 70 101 86
3 80 107 108
3 80 108 107
3 86 89 90
3 86 90 89
3 86 89 100
3 86 100 89
3 86 90 101
3 86 101 90
3 96 98 104
3 96 104 98
3 97 99 105
3 97 105 99
