COFF
124 472 124

-6.62408 1.28284 7.08541 0.5 0.5 0.5 1
-6.62408 -1.28284 7.08541 0.5 0.5 0.5 1
-0.0279674 -2.15306 6.84359 0.5 0.5 0.5 1
7.47588 -1.13566 7.13933 0.5 0.5 0.5 1
7.47588 1.13566 7.13933 0.5 0.5 0.5 1
-0.0279674 2.15306 6.84359 0.5 0.5 0.5 1
1.15252 -1.75784 7.07055 0.5 0.5 0.5 1
1.15252 1.75784 7.07055 0.5 0.5 0.5 1
-1.17057 1.76532 7.0145 0.5 0.5 0.5 1
-1.17057 -1.76532 7.0145 0.5 0.5 0.5 1
2.0222 -1.39095 7.40195 0.5 0.5 0.5 1
2.0222 1.39095 7.40195 0.5 0.5 0.5 1
-2.05359 1.42902 7.34195 0.5 0.5 0.5 1
-2.05359 -1.42902 7.34195 0.5 0.5 0.5 1
3.0739 -1.32416 7.39243 0.5 0.5 0.5 1
3.0739 1.32416 7.39243 0.5 0.5 0.5 1
-3.04869 1.3551 7.28583 0.5 0.5 0.5 1
-3.04869 -1.3551 7.28583 0.5 0.5 0.5 1
4.07246 -1.27634 7.38899 0.5 0.5 0.5 1
4.07246 1.27634 7.38899 0.5 0.5 0.5 1
-4.04548 1.2877 7.32263 0.5 0.5 0.5 1
-4.04548 -1.2877 7.32263 0.5 0.5 0.5 1
5.04594 -1.47834 7.04456 0.5 0.5 0.5 1
5.04594 1.47834 7.04456 0.5 0.5 0.5 1
-5.00399 1.47318 6.99927 0.5 0.5 0.5 1
-5.00399 -1.47318 6.99927 0.5 0.5 0.5 1
6.12697 -1.42769 7.04059 0.5 0.5 0.5 1
6.12697 1.42769 7.04059 0.5 0.5 0.5 1
-7.90703 2.30271e-08 6.98019 0.5 0.5 0.5 1
8.61327 -1.65778e-08 7.15081 0.5 0.5 0.5 1
-2.24078 -1.0181 4.70784 0.5 0.5 0.5 1
1.29717 -1.71264 5.88426 0.5 0.5 0.5 1
1.29717 1.71264 5.88426 0.5 0.5 0.5 1
-2.55186 1.39109 6.14441 0.5 0.5 0.5 1
-2.55186 -1.39109 6.14441 0.5 0.5 0.5 1
0.0189621 -1.86674 5.47208 0.5 0.5 0.5 1
0.0189623 1.86673 5.47208 0.5 0.5 0.5 1
2.56164 1.34221 6.20418 0.5 0.5 0.5 1
4.11343 -1.28752 6.48191 0.5 0.5 0.5 1
-1.12022 -1.68333 5.05474 0.5 0.5 0.5 1
-1.12022 1.68333 5.05474 0.5 0.5 0.5 1
-1.64212 -0.905814 3.17145 0.5 0.5 0.5 1
-1.64212 0.905814 3.17145 0.5 0.5 0.5 1
1.15831 1.66419 4.65833 0.5 0.5 0.5 1
1.15831 -1.66419 4.65833 0.5 0.5 0.5 1
4.11343 1.28752 6.48191 0.5 0.5 0.5 1
-4.07871 1.30344 6.40794 0.5 0.5 0.5 1
2.47779 1.43708e-09 5.0651 0.5 0.5 0.5 1
1.63472 1.26282 4.21301 0.5 0.5 0.5 1
1.63473 -1.26282 4.21301 0.5 0.5 0.5 1
0.119705 1.74052 4.33918 0.5 0.5 0.5 1
0.119753 -1.7406 4.33918 0.5 0.5 0.5 1
1.91566 -8.30273e-09 3.84137 0.5 0.5 0.5 1
5.35366 -0.750749 4.14286 1 1 0 1
5.35366 0.750749 4.14286 1 1 0 1
-3.36423 6.18605e-09 5.44017 0.5 0.5 0.5 1
-0.910341 -1.51835 4.02151 0.5 0.5 0.5 1
-0.910341 1.51836 4.02151 0.5 0.5 0.5 1
1.04316 1.53024 3.59579 0.5 0.5 0.5 1
1.04325 -1.53035 3.59579 0.5 0.5 0.5 1
-4.07871 -1.30344 6.40794 0.5 0.5 0.5 1
0.185953 -4.79986e-08 1.03911 1 1 0 1
3.22214 1.78445e-09 5.40237 0.5 0.5 0.5 1
-5.13691 0.815551 4.6311 1 1 0 1
-5.13691 -0.815551 4.6311 1 1 0 1
1.43916 1.07178 3.16097 0.5 0.5 0.5 1
1.43917 -1.07174 3.16097 0.5 0.5 0.5 1
0.222505 1.59665 3.26818 0.5 0.5 0.5 1
0.222486 -1.59681 3.26818 0.5 0.5 0.5 1
6.7667 -1.27029 6.459 0.5 0.5 0.5 1
6.7667 1.27029 6.459 0.5 0.5 0.5 1
2.56164 -1.34221 6.20418 0.5 0.5 0.5 1
1.79948 1.52461 5.25771 0.5 0.5 0.5 1
1.79948 -1.52461 5.25771 0.5 0.5 0.5 1
-1.27578 1.73875 6.03995 0.5 0.5 0.5 1
1.60826 -5.15048e-05 2.86847 0.5 0.5 0.5 1
-0.559103 -1.38284 2.80947 1 1 1 1
-0.559104 1.38284 2.80947 1 1 1 1
-1.73016 -0.543358 2.30425 1 1 1 1
-1.73016 0.543358 2.30425 1 1 1 1
4.12887 1.05891e-07 6.25215 0.5 0.5 0.5 1
0.941792 1.3744 2.59684 1 1 1 1
0.941922 -1.37464 2.59684 1 1 1 1
-4.08195 -1.00216e-08 6.10737 0.5 0.5 0.5 1
6.0101 -1.33483 5.94566 0.5 0.5 0.5 1
6.0101 1.33483 5.94566 0.5 0.5 0.5 1
7.28596 -4.23317e-08 6.17649 0.5 0.5 0.5 1
0.236546 1.42721 2.30413 1 1 1 1
0.236548 -1.4272 2.30413 1 1 1 1
6.71385 -0.642284 5.07803 0.5 0.5 0.5 1
6.71385 0.642284 5.07803 0.5 0.5 0.5 1
5.17564 -1.36487 5.9268 0.5 0.5 0.5 1
5.17549 1.36446 5.9268 0.5 0.5 0.5 1
1.26576 0.895046 2.27303 1 1 1 1
1.26576 -0.895046 2.27303 1 1 1 1
-1.27577 -1.73875 6.03995 0.5 0.5 0.5 1
-6.74014 0.686225 5.77806 0.5 0.5 0.5 1
-6.74014 -0.686225 5.77806 0.5 0.5 0.5 1
-6.37034 1.05517 6.12916 0.5 0.5 0.5 1
-6.37034 -1.05517 6.12916 0.5 0.5 0.5 1
6.55623 -0.989009 5.53595 0.5 0.5 0.5 1
6.55623 0.989009 5.53595 0.5 0.5 0.5 1
4.53764 -0.988135 5.80437 0.5 0.5 0.5 1
4.53777 0.987886 5.80437 0.5 0.5 0.5 1
-7.1713 0.688645 6.51229 0.5 0.5 0.5 1
-7.1713 -0.688645 6.51229 0.5 0.5 0.5 1
-2.24078 1.0181 4.70784 0.5 0.5 0.5 1
4.30094 -0.36921 4.95171 0.5 0.5 0.5 1
4.30094 0.36921 4.95172 0.5 0.5 0.5 1
-0.572267 -1.11307 2.09432 1 1 1 1
-0.572267 1.11307 2.09432 1 1 1 1
1.38712 -0.000213814 2.04914 1 1 1 1
-2.05208 -8.19204e-08 3.23888 0.5 0.5 0.5 1
-1.28142 -0.436702 1.48901 1 1 1 1
-1.28142 0.436702 1.48901 1 1 1 1
-5.07332 1.2927 5.95411 0.5 0.5 0.5 1
-5.07335 -1.29286 5.95411 0.5 0.5 0.5 1
0.70622 0.987797 1.80088 1 1 1 1
0.70622 -0.987797 1.80088 1 1 1 1
-4.53056 0.973002 5.56503 0.5 0.5 0.5 1
-4.53056 -0.973001 5.56503 0.5 0.5 0.5 1
-2.36329 7.31437e-08 4.65495 0.5 0.5 0.5 1
5.68523 -1.0462 5.04482 0.5 0.5 0.5 1
5.68523 1.0462 5.04482 0.5 0.5 0.5 1

3 0 24 98
3 0 98 24
3 0 28 96
3 0 96 28
3 0 28 104
3 0 104 28
3 0 96 98
3 0 98 96
3 0 98 104
3 0 104 98
3 1 25 99
3 1 99 25
3 1 28 97
3 1 97 28
3 1 28 105
3 1 105 28
3 1 97 99
3 1 99 97
3 1 99 105
3 1 105 99
3 2 6 31
3 2 31 6
3 2 9 95
3 2 95 9
3 2 31 35
3 2 35 31
3 2 35 95
3 2 95 35
3 3 26 69
3 3 69 26
3 3 29 86
3 3 86 29
3 3 69 86
3 3 86 69
3 4 27 70
3 4 70 27
3 4 29 86
3 4 86 29
3 4 70 86
3 4 86 70
3 5 7 32
3 5 32 7
3 5 8 74
3 5 74 8
3 5 32 36
3 5 36 32
3 5 36 74
3 5 74 36
3 6 10 71
3 6 71 10
3 6 31 71
3 6 71 31
3 7 11 37
3 7 37 11
3 7 32 37
3 7 37 32
3 8 12 33
3 8 33 12
3 8 33 74
3 8 74 33
3 9 13 34
3 9 34 13
3 9 34 95
3 9 95 34
3 10 14 71
3 10 71 14
3 11 15 37
3 11 37 15
3 12 16 33
3 12 33 16
3 13 17 34
3 13 34 17
3 14 18 38
3 14 38 18
3 14 38 71
3 14 71 38
3 15 19 45
3 15 45 19
3 15 37 45
3 15 45 37
3 16 20 46
3 16 46 20
3 16 33 46
3 16 46 33
3 17 21 60
3 17 60 21
3 17 34 60
3 17 60 34
3 18 22 38
3 18 38 22
3 19 23 45
3 19 45 23
3 20 24 46
3 20 46 24
3 21 25 60
3 21 60 25
3 22 26 84
3 22 84 26
3 22 38 91
3 22 91 38
3 22 84 91
3 22 91 84
3 23 27 85
3 23 85 27
3 23 45 92
3 23 92 45
3 23 85 92
3 23 92 85
3 24 46 115
3 24 115 46
3 24 98 115
3 24 115 98
3 25 60 116
3 25 116 60
3 25 99 116
3 25 116 99
3 26 69 84
3 26 84 69
3 27 70 85
3 27 85 70
3 28 96 97
3 28 97 96
3 28 96 104
3 28 104 96
3 28 97 105
3 28 105 97
3 30 34 39
3 30 39 34
3 30 34 55
3 30 55 34
3 30 39 56
3 30 56 39
3 30 41 56
3 30 56 41
3 30 41 112
3 30 112 41
3 30 55 106
3 30 106 55
3 30 55 121
3 30 121 55
3 30 106 112
3 30 112 106
3 30 112 121
3 30 121 112
3 31 35 44
3 31 44 35
3 31 44 73
3 31 73 44
3 31 71 73
3 31 73 71
3 32 36 43
3 32 43 36
3 32 37 72
3 32 72 37
3 32 43 72
3 32 72 43
3 33 40 74
3 33 74 40
3 33 40 106
3 33 106 40
3 33 46 55
3 33 55 46
3 33 55 106
3 33 106 55
3 34 39 95
3 34 95 39
3 34 55 60
3 34 60 55
3 35 39 51
3 35 51 39
3 35 39 95
3 35 95 39
3 35 44 51
3 35 51 44
3 36 40 50
3 36 50 40
3 36 40 74
3 36 74 40
3 36 43 50
3 36 50 43
3 37 45 62
3 37 62 45
3 37 47 62
3 37 62 47
3 37 47 72
3 37 72 47
3 38 62 71
3 38 71 62
3 38 62 80
3 38 80 62
3 38 80 102
3 38 102 80
3 38 91 102
3 38 102 91
3 39 51 56
3 39 56 51
3 40 50 57
3 40 57 50
3 40 57 106
3 40 106 57
3 41 56 76
3 41 76 56
3 41 76 109
3 41 109 76
3 41 78 109
3 41 109 78
3 41 78 112
3 41 112 78
3 42 57 77
3 42 77 57
3 42 57 106
3 42 106 57
3 42 77 110
3 42 110 77
3 42 79 110
3 42 110 79
3 42 79 112
3 42 112 79
3 42 106 112
3 42 112 106
3 43 48 58
3 43 58 48
3 43 48 72
3 43 72 48
3 43 50 58
3 43 58 50
3 44 49 59
3 44 59 49
3 44 49 73
3 44 73 49
3 44 51 59
3 44 59 51
3 45 62 80
3 45 80 62
3 45 80 103
3 45 103 80
3 45 92 103
3 45 103 92
3 46 55 83
3 46 83 55
3 46 63 83
3 46 83 63
3 46 63 115
3 46 115 63
3 46 83 119
3 46 119 83
3 46 115 119
3 46 119 115
3 47 48 52
3 47 52 48
3 47 48 72
3 47 72 48
3 47 49 52
3 47 52 49
3 47 49 73
3 47 73 49
3 47 62 71
3 47 71 62
3 47 71 73
3 47 73 71
3 48 52 65
3 48 65 52
3 48 58 65
3 48 65 58
3 49 52 66
3 49 66 52
3 49 59 66
3 49 66 59
3 50 57 67
3 50 67 57
3 50 58 67
3 50 67 58
3 51 56 68
3 51 68 56
3 51 59 68
3 51 68 59
3 52 65 75
3 52 75 65
3 52 66 75
3 52 75 66
3 53 54 90
3 53 90 54
3 53 54 108
3 53 108 54
3 53 80 102
3 53 102 80
3 53 80 107
3 53 107 80
3 53 84 91
3 53 91 84
3 53 84 100
3 53 100 84
3 53 89 90
3 53 90 89
3 53 89 100
3 53 100 89
3 53 91 102
3 53 102 91
3 53 91 122
3 53 122 91
3 53 100 122
3 53 122 100
3 53 107 108
3 53 108 107
3 54 80 103
3 54 103 80
3 54 80 108
3 54 108 80
3 54 85 92
3 54 92 85
3 54 85 101
3 54 101 85
3 54 90 101
3 54 101 90
3 54 92 103
3 54 103 92
3 54 92 123
3 54 123 92
3 54 101 123
3 54 123 101
3 55 60 83
3 55 83 60
3 55 106 121
3 55 121 106
3 56 68 76
3 56 76 68
3 57 67 77
3 57 77 67
3 58 65 81
3 58 81 65
3 58 67 81
3 58 81 67
3 59 66 82
3 59 82 66
3 59 68 82
3 59 82 68
3 60 64 83
3 60 83 64
3 60 64 116
3 60 116 64
3 60 83 120
3 60 120 83
3 60 116 120
3 60 120 116
3 61 75 93
3 61 93 75
3 61 75 94
3 61 94 75
3 61 78 109
3 61 109 78
3 61 78 113
3 61 113 78
3 61 79 110
3 61 110 79
3 61 79 114
3 61 114 79
3 61 81 87
3 61 87 81
3 61 81 93
3 61 93 81
3 61 82 88
3 61 88 82
3 61 82 94
3 61 94 82
3 61 87 110
3 61 110 87
3 61 87 117
3 61 117 87
3 61 88 109
3 61 109 88
3 61 88 118
3 61 118 88
3 61 93 111
3 61 111 93
3 61 93 117
3 61 117 93
3 61 94 111
3 61 111 94
3 61 94 118
3 61 118 94
3 61 113 114
3 61 114 113
3 63 64 83
3 63 83 64
3 63 64 97
3 63 97 64
3 63 83 119
3 63 119 83
3 63 96 97
3 63 97 96
3 63 96 98
3 63 98 96
3 63 98 115
3 63 115 98
3 63 115 119
3 63 119 115
3 64 83 120
3 64 120 83
3 64 97 99
3 64 99 97
3 64 99 116
3 64 116 99
3 64 116 120
3 64 120 116
3 65 75 93
3 65 93 75
3 65 81 93
3 65 93 81
3 66 75 94
3 66 94 75
3 66 82 94
3 66 94 82
3 67 77 87
3 67 87 77
3 67 81 87
3 67 87 81
3 68 76 88
3 68 88 76
3 68 82 88
3 68 88 82
3 69 84 100
3 69 100 84
3 69 86 100
3 69 100 86
3 70 85 101
3 70 101 85
3 70 86 101
3 70 101 86
3 75 93 111
3 75 111 93
3 75 94 111
3 75 111 94
3 76 88 109
3 76 109 88
3 77 87 110
3 77 110 87
3 78 79 112
3 78 112 79
3 78 79 114
3 78 114 79
3 78 113 114
3 78 114 113
3 80 107 108
3 80 108 107
3 81 87 117
3 81 117 87
3 81 93 117
3 81 117 93
3 82 88 118
3 82 118 88
3 82 94 118
3 82 118 94
3 84 91 122
3 84 122 91
3 84 100 122
3 84 122 100
3 85 92 123
3 85 123 92
3 85 101 123
3 85 123 101
3 86 89 90
3 86 90 89
3 86 89 100
3 86 100 89
3 86 90 101
3 86 101 90
3 96 98 104
3 96 104 98
3 97 99 105
3 97 105 99
3 106 112 121
3 106 121 112
