COFF
140 532 140

-6.65607 1.34855 7.4111 0.5 0.5 0.5 1
-6.65607 -1.34855 7.4111 0.5 0.5 0.5 1
-0.0280267 -2.19375 7.19979 0.5 0.5 0.5 1
7.50561 -1.1899 7.47926 0.5 0.5 0.5 1
7.50561 1.1899 7.47926 0.5 0.5 0.5 1
-0.0280267 2.19375 7.19979 0.5 0.5 0.5 1
1.16515 -1.79443 7.43195 0.5 0.5 0.5 1
1.16515 1.79443 7.43195 0.5 0.5 0.5 1
-1.17885 1.80574 7.37167 0.5 0.5 0.5 1
-1.17885 -1.80574 7.37167 0.5 0.5 0.5 1
2.03171 -1.42696 7.77079 0.5 0.5 0.5 1
2.03171 1.42696 7.77079 0.5 0.5 0.5 1
-2.05814 1.46815 7.70777 0.5 0.5 0.5 1
-2.05814 -1.46815 7.70777 0.5 0.5 0.5 1
3.07284 -1.37203 7.7499 0.5 0.5 0.5 1
3.07284 1.37203 7.7499 0.5 0.5 0.5 1
-3.05316 1.40919 7.63461 0.5 0.5 0.5 1
-3.05316 -1.40919 7.63461 0.5 0.5 0.5 1
4.07155 -1.32803 7.74231 0.5 0.5 0.5 1
4.07155 1.32803 7.74231 0.5 0.5 0.5 1
-4.05036 1.34595 7.66836 0.5 0.5 0.5 1
-4.05036 -1.34595 7.66836 0.5 0.5 0.5 1
5.03959 -1.55412 7.36681 0.5 0.5 0.5 1
5.03959 1.55412 7.36681 0.5 0.5 0.5 1
-5.00065 1.55531 7.31486 0.5 0.5 0.5 1
-5.00065 -1.55531 7.31486 0.5 0.5 0.5 1
6.13621 -1.49633 7.36998 0.5 0.5 0.5 1
6.13621 1.49633 7.36997 0.5 0.5 0.5 1
-8.00521 -0.000157817 7.2941 0.5 0.5 0.5 1
8.69593 -0.00011029 7.49683 0.5 0.5 0.5 1
-2.26029 -1.05734 4.9989 0.5 0.5 0.5 1
1.31269 -1.74962 6.22547 0.5 0.5 0.5 1
1.31269 1.74962 6.22547 0.5 0.5 0.5 1
-2.56893 1.43728 6.47662 0.5 0.5 0.5 1
-2.56893 -1.43728 6.47662 0.5 0.5 0.5 1
0.0201312 -1.90587 5.79952 0.5 0.5 0.5 1
0.0201317 1.90584 5.79952 0.5 0.5 0.5 1
2.57745 1.38116 6.54873 0.5 0.5 0.5 1
4.11431 -1.33549 6.787 0.5 0.5 0.5 1
-1.13503 -1.72904 5.37385 0.5 0.5 0.5 1
-1.13503 1.72904 5.37385 0.5 0.5 0.5 1
-1.71414 -0.845741 3.44115 0.5 0.5 0.5 1
-1.71414 0.845741 3.44115 0.5 0.5 0.5 1
1.17514 1.70052 4.98175 0.5 0.5 0.5 1
1.17514 -1.70052 4.98175 0.5 0.5 0.5 1
4.11431 1.33549 6.787 0.5 0.5 0.5 1
-4.08077 1.35561 6.70425 0.5 0.5 0.5 1
2.50742 1.49084e-07 5.38201 0.5 0.5 0.5 1
1.65772 1.28868 4.51742 0.5 0.5 0.5 1
1.65772 -1.28868 4.51742 0.5 0.5 0.5 1
0.120987 1.78034 4.63781 0.5 0.5 0.5 1
0.12092 -1.78022 4.63781 0.5 0.5 0.5 1
1.93992 1.41682e-07 4.11871 0.5 0.5 0.5 1
5.38073 -0.750699 4.14286 1 1 0 1
5.38072 0.750709 4.14286 1 1 0 1
-3.33353 -1.44376e-08 5.73264 0.5 0.5 0.5 1
-0.951594 -1.55214 4.26768 0.5 0.5 0.5 1
-0.951594 1.55214 4.26768 0.5 0.5 0.5 1
1.05558 1.56375 3.89064 0.5 0.5 0.5 1
1.05554 -1.56364 3.89064 0.5 0.5 0.5 1
-4.08077 -1.35561 6.70425 0.5 0.5 0.5 1
0.172384 -4.48227e-09 1.03911 1 1 0 1
3.21917 7.54002e-07 5.70287 0.5 0.5 0.5 1
-5.14699 0.815892 4.6311 1 1 0 1
-5.14699 -0.815892 4.6311 1 1 0 1
1.46154 1.08791 3.43256 0.5 0.5 0.5 1
1.46155 -1.08791 3.43256 0.5 0.5 0.5 1
0.205967 1.63236 3.53643 0.5 0.5 0.5 1
0.206037 -1.63207 3.53643 0.5 0.5 0.5 1
6.7909 -1.32569 6.79395 0.5 0.5 0.5 1
6.79088 1.3257 6.79392 0.5 0.5 0.5 1
2.57745 -1.38116 6.54873 0.5 0.5 0.5 1
1.8186 1.5589 5.57828 0.5 0.5 0.5 1
1.8186 -1.5589 5.57828 0.5 0.5 0.5 1
-1.28807 1.78059 6.38267 0.5 0.5 0.5 1
1.62953 -2.54381e-06 3.10547 1 1 1 1
-0.658916 -1.37237 3.0612 1 1 1 1
-0.658916 1.37237 3.06121 1 1 1 1
-1.85694 -0.488881 2.57384 1 1 1 1
-1.85694 0.488881 2.57384 1 1 1 1
4.15095 1.85704e-07 6.52311 0.5 0.5 0.5 1
0.948182 1.40185 2.85839 1 1 1 1
0.94808 -1.40163 2.85839 1 1 1 1
-4.08117 3.78326e-07 6.36561 0.5 0.5 0.5 1
6.06132 -1.40764 6.24604 0.5 0.5 0.5 1
6.06131 1.40763 6.246 0.5 0.5 0.5 1
7.36868 -8.43431e-08 6.47157 0.5 0.5 0.5 1
0.249223 1.46346 2.53346 1 1 1 1
0.249126 -1.46346 2.53346 1 1 1 1
6.85072 -0.711217 5.3121 0.5 0.5 0.5 1
6.8507 0.711218 5.3121 0.5 0.5 0.5 1
5.18697 -1.43076 6.19749 0.5 0.5 0.5 1
5.18698 1.43059 6.19743 0.5 0.5 0.5 1
1.27928 0.949075 2.49837 1 1 1 1
1.27928 -0.949072 2.49837 1 1 1 1
-1.28807 -1.78059 6.38267 0.5 0.5 0.5 1
-6.92906 0.718338 6.05559 0.5 0.5 0.5 1
-6.92906 -0.718338 6.05559 0.5 0.5 0.5 1
-6.48659 1.11359 6.46332 0.5 0.5 0.5 1
-6.48659 -1.11359 6.46332 0.5 0.5 0.5 1
6.61317 -1.04393 5.78173 0.5 0.5 0.5 1
6.6132 1.044 5.78173 0.5 0.5 0.5 1
4.556 -1.03449 6.0798 0.5 0.5 0.5 1
4.55577 1.03438 6.07985 0.5 0.5 0.5 1
-7.27819 0.693419 6.80283 0.5 0.5 0.5 1
-7.27819 -0.693419 6.80283 0.5 0.5 0.5 1
-2.26029 1.05734 4.9989 0.5 0.5 0.5 1
4.35904 -0.388555 5.03588 0.5 0.5 0.5 1
4.3591 0.388591 5.03589 0.5 0.5 0.5 1
-0.737077 -1.11916 2.33284 1 1 1 1
-0.737077 1.11916 2.33284 1 1 1 1
1.40543 -3.15564e-06 2.26147 1 1 1 1
-2.22776 9.06847e-08 3.57818 0.5 0.5 0.5 1
-1.5327 -0.445454 1.61126 1 1 1 1
-1.5327 0.445454 1.61126 1 1 1 1
-5.08085 1.36007 6.21683 0.5 0.5 0.5 1
-5.08085 -1.35997 6.21685 0.5 0.5 0.5 1
0.78561 1.17552 1.99862 1 1 1 1
0.785611 -1.17552 1.99862 1 1 1 1
-4.50782 1.03558 5.94698 0.5 0.5 0.5 1
-4.50782 -1.03558 5.94698 0.5 0.5 0.5 1
-2.55827 4.98171e-08 4.90532 0.5 0.5 0.5 1
5.89989 -1.22022 5.28014 0.5 0.5 0.5 1
5.8999 1.22022 5.28015 0.5 0.5 0.5 1
-4.38195 0.399896 5.3763 0.5 0.5 0.5 1
-4.38195 -0.399896 5.3763 0.5 0.5 0.5 1
-6.1249 0.890548 5.31679 0.5 0.5 0.5 1
-6.12492 -0.890537 5.31676 0.5 0.5 0.5 1
-6.01289 1.00715 5.57599 0.5 0.5 0.5 1
-6.01289 -1.00715 5.57598 0.5 0.5 0.5 1
5.30641 -1.19181 5.21066 0.5 0.5 0.5 1
5.30613 1.19154 5.21048 0.5 0.5 0.5 1
0.140889 0.93823 1.76559 1 1 1 1
0.14089 -0.938226 1.76559 1 1 1 1
4.96123 -0.988596 5.13375 0.5 0.5 0.5 1
4.96128 0.988541 5.13377 0.5 0.5 0.5 1
6.13153 -0.928098 4.9243 0.5 0.5 0.5 1
6.13153 0.928141 4.92432 0.5 0.5 0.5 1
0.884471 0.513307 1.75465 1 1 1 1
0.884475 -0.513308 1.75465 1 1 1 1

3 0 24 98
3 0 98 24
3 0 28 96
3 0 96 28
3 0 28 104
3 0 104 28
3 0 96 98
3 0 98 96
3 0 98 104
3 0 104 98
3 1 25 99
3 1 99 25
3 1 28 97
3 1 97 28
3 1 28 105
3 1 105 28
3 1 97 99
3 1 99 97
3 1 99 105
3 1 105 99
3 2 6 31
3 2 31 6
3 2 9 95
3 2 95 9
3 2 31 35
3 2 35 31
3 2 35 95
3 2 95 35
3 3 26 69
3 3 69 26
3 3 29 86
3 3 86 29
3 3 69 86
3 3 86 69
3 4 27 70
3 4 70 27
3 4 29 86
3 4 86 29
3 4 70 86
3 4 86 70
3 5 7 32
3 5 32 7
3 5 8 74
3 5 74 8
3 5 32 36
3 5 36 32
3 5 36 74
3 5 74 36
3 6 10 71
3 6 71 10
3 6 31 71
3 6 71 31
3 7 11 37
3 7 37 11
3 7 32 37
3 7 37 32
3 8 12 33
3 8 33 12
3 8 33 74
3 8 74 33
3 9 13 34
3 9 34 13
3 9 34 95
3 9 95 34
3 10 14 71
3 10 71 14
3 11 15 37
3 11 37 15
3 12 16 33
3 12 33 16
3 13 17 34
3 13 34 17
3 14 18 38
3 14 38 18
3 14 38 71
3 14 71 38
3 15 19 45
3 15 45 19
3 15 37 45
3 15 45 37
3 16 20 46
3 16 46 20
3 16 33 46
3 16 46 33
3 17 21 60
3 17 60 21
3 17 34 60
3 17 60 34
3 18 22 38
3 18 38 22
3 19 23 45
3 19 45 23
3 20 24 46
3 20 46 24
3 21 25 60
3 21 60 25
3 22 26 84
3 22 84 26
3 22 38 91
3 22 91 38
3 22 84 91
3 22 91 84
3 23 27 85
3 23 85 27
3 23 45 92
3 23 92 45
3 23 85 92
3 23 92 85
3 24 46 115
3 24 115 46
3 24 98 115
3 24 115 98
3 25 60 116
3 25 116 60
3 25 99 116
3 25 116 99
3 26 69 84
3 26 84 69
3 27 70 85
3 27 85 70
3 28 96 97
3 28 97 96
3 28 96 104
3 28 104 96
3 28 97 105
3 28 105 97
3 30 34 39
3 30 39 34
3 30 34 55
3 30 55 34
3 30 39 56
3 30 56 39
3 30 41 56
3 30 56 41
3 30 41 112
3 30 112 41
3 30 55 106
3 30 106 55
3 30 55 121
3 30 121 55
3 30 106 112
3 30 112 106
3 30 112 121
3 30 121 112
3 31 35 44
3 31 44 35
3 31 44 73
3 31 73 44
3 31 71 73
3 31 73 71
3 32 36 43
3 32 43 36
3 32 37 72
3 32 72 37
3 32 43 72
3 32 72 43
3 33 40 74
3 33 74 40
3 33 40 106
3 33 106 40
3 33 46 55
3 33 55 46
3 33 55 106
3 33 106 55
3 34 39 95
3 34 95 39
3 34 55 60
3 34 60 55
3 35 39 51
3 35 51 39
3 35 39 95
3 35 95 39
3 35 44 51
3 35 51 44
3 36 40 50
3 36 50 40
3 36 40 74
3 36 74 40
3 36 43 50
3 36 50 43
3 37 45 62
3 37 62 45
3 37 47 62
3 37 62 47
3 37 47 72
3 37 72 47
3 38 62 71
3 38 71 62
3 38 62 80
3 38 80 62
3 38 80 102
3 38 102 80
3 38 91 102
3 38 102 91
3 39 51 56
3 39 56 51
3 40 50 57
3 40 57 50
3 40 57 106
3 40 106 57
3 41 56 76
3 41 76 56
3 41 76 109
3 41 109 76
3 41 78 109
3 41 109 78
3 41 78 112
3 41 112 78
3 42 57 77
3 42 77 57
3 42 57 106
3 42 106 57
3 42 77 110
3 42 110 77
3 42 79 110
3 42 110 79
3 42 79 112
3 42 112 79
3 42 106 112
3 42 112 106
3 43 48 58
3 43 58 48
3 43 48 72
3 43 72 48
3 43 50 58
3 43 58 50
3 44 49 59
3 44 59 49
3 44 49 73
3 44 73 49
3 44 51 59
3 44 59 51
3 45 62 80
3 45 80 62
3 45 80 103
3 45 103 80
3 45 92 103
3 45 103 92
3 46 55 83
3 46 83 55
3 46 83 119
3 46 119 83
3 46 115 119
3 46 119 115
3 47 48 52
3 47 52 48
3 47 48 72
3 47 72 48
3 47 49 52
3 47 52 49
3 47 49 73
3 47 73 49
3 47 62 71
3 47 71 62
3 47 71 73
3 47 73 71
3 48 52 65
3 48 65 52
3 48 58 65
3 48 65 58
3 49 52 66
3 49 66 52
3 49 59 66
3 49 66 59
3 50 57 67
3 50 67 57
3 50 58 67
3 50 67 58
3 51 56 68
3 51 68 56
3 51 59 68
3 51 68 59
3 52 65 75
3 52 75 65
3 52 66 75
3 52 75 66
3 53 54 90
3 53 90 54
3 53 54 108
3 53 108 54
3 53 89 90
3 53 90 89
3 53 89 100
3 53 100 89
3 53 89 136
3 53 136 89
3 53 100 122
3 53 122 100
3 53 107 108
3 53 108 107
3 53 107 134
3 53 134 107
3 53 122 130
3 53 130 122
3 53 122 136
3 53 136 122
3 53 130 134
3 53 134 130
3 54 90 101
3 54 101 90
3 54 90 137
3 54 137 90
3 54 101 123
3 54 123 101
3 54 108 135
3 54 135 108
3 54 123 131
3 54 131 123
3 54 123 137
3 54 137 123
3 54 131 135
3 54 135 131
3 55 60 83
3 55 83 60
3 55 106 121
3 55 121 106
3 56 68 76
3 56 76 68
3 57 67 77
3 57 77 67
3 58 65 81
3 58 81 65
3 58 67 81
3 58 81 67
3 59 66 82
3 59 82 66
3 59 68 82
3 59 82 68
3 60 83 120
3 60 120 83
3 60 116 120
3 60 120 116
3 61 78 109
3 61 109 78
3 61 78 113
3 61 113 78
3 61 79 110
3 61 110 79
3 61 79 114
3 61 114 79
3 61 87 110
3 61 110 87
3 61 87 117
3 61 117 87
3 61 88 109
3 61 109 88
3 61 88 118
3 61 118 88
3 61 93 111
3 61 111 93
3 61 93 117
3 61 117 93
3 61 94 111
3 61 111 94
3 61 94 118
3 61 118 94
3 61 109 133
3 61 133 109
3 61 110 132
3 61 132 110
3 61 111 138
3 61 138 111
3 61 111 139
3 61 139 111
3 61 113 114
3 61 114 113
3 61 117 132
3 61 132 117
3 61 117 138
3 61 138 117
3 61 118 133
3 61 133 118
3 61 118 139
3 61 139 118
3 63 64 125
3 63 125 64
3 63 64 127
3 63 127 64
3 63 83 119
3 63 119 83
3 63 83 124
3 63 124 83
3 63 115 119
3 63 119 115
3 63 115 128
3 63 128 115
3 63 124 125
3 63 125 124
3 63 126 127
3 63 127 126
3 63 126 128
3 63 128 126
3 64 83 120
3 64 120 83
3 64 83 125
3 64 125 83
3 64 116 120
3 64 120 116
3 64 116 129
3 64 129 116
3 64 127 129
3 64 129 127
3 65 75 93
3 65 93 75
3 65 81 93
3 65 93 81
3 66 75 94
3 66 94 75
3 66 82 94
3 66 94 82
3 67 77 87
3 67 87 77
3 67 81 87
3 67 87 81
3 68 76 88
3 68 88 76
3 68 82 88
3 68 88 82
3 69 84 100
3 69 100 84
3 69 86 100
3 69 100 86
3 70 85 101
3 70 101 85
3 70 86 101
3 70 101 86
3 75 93 111
3 75 111 93
3 75 94 111
3 75 111 94
3 76 88 109
3 76 109 88
3 77 87 110
3 77 110 87
3 78 79 112
3 78 112 79
3 78 79 114
3 78 114 79
3 78 113 114
3 78 114 113
3 80 102 134
3 80 134 102
3 80 103 135
3 80 135 103
3 80 107 108
3 80 108 107
3 80 107 134
3 80 134 107
3 80 108 135
3 80 135 108
3 81 87 117
3 81 117 87
3 81 93 117
3 81 117 93
3 82 88 118
3 82 118 88
3 82 94 118
3 82 118 94
3 83 124 125
3 83 125 124
3 84 91 122
3 84 122 91
3 84 100 122
3 84 122 100
3 85 92 123
3 85 123 92
3 85 101 123
3 85 123 101
3 86 89 90
3 86 90 89
3 86 89 100
3 86 100 89
3 86 90 101
3 86 101 90
3 87 110 132
3 87 132 110
3 87 117 132
3 87 132 117
3 88 109 133
3 88 133 109
3 88 118 133
3 88 133 118
3 89 100 136
3 89 136 100
3 90 101 137
3 90 137 101
3 91 102 130
3 91 130 102
3 91 122 130
3 91 130 122
3 92 103 131
3 92 131 103
3 92 123 131
3 92 131 123
3 93 111 138
3 93 138 111
3 93 117 138
3 93 138 117
3 94 111 139
3 94 139 111
3 94 118 139
3 94 139 118
3 96 97 127
3 96 127 97
3 96 98 104
3 96 104 98
3 96 98 128
3 96 128 98
3 96 126 127
3 96 127 126
3 96 126 128
3 96 128 126
3 97 99 105
3 97 105 99
3 97 99 129
3 97 129 99
3 97 127 129
3 97 129 127
3 98 115 128
3 98 128 115
3 99 116 129
3 99 129 116
3 100 122 136
3 100 136 122
3 101 123 137
3 101 137 123
3 102 130 134
3 102 134 130
3 103 131 135
3 103 135 131
3 106 112 121
3 106 121 112
