COFF
144 532 144

-6.68458 1.40653 7.74346 0.5 0.5 0.5 1
-6.68458 -1.40653 7.74346 0.5 0.5 0.5 1
-0.0280498 -2.23335 7.55604 0.5 0.5 0.5 1
7.5339 -1.24115 7.82096 0.5 0.5 0.5 1
7.5339 1.24115 7.82096 0.5 0.5 0.5 1
-0.0280498 2.23335 7.55604 0.5 0.5 0.5 1
1.17747 -1.83009 7.79334 0.5 0.5 0.5 1
1.17747 1.83009 7.79334 0.5 0.5 0.5 1
-1.18715 1.84472 7.72929 0.5 0.5 0.5 1
-1.18715 -1.84472 7.72929 0.5 0.5 0.5 1
2.04086 -1.4621 8.13965 0.5 0.5 0.5 1
2.04086 1.4621 8.13965 0.5 0.5 0.5 1
-2.06232 1.50548 8.07442 0.5 0.5 0.5 1
-2.06232 -1.50548 8.07442 0.5 0.5 0.5 1
3.0714 -1.41821 8.10789 0.5 0.5 0.5 1
3.0714 1.41821 8.10789 0.5 0.5 0.5 1
-3.05678 1.45987 7.98555 0.5 0.5 0.5 1
-3.05678 -1.45987 7.98555 0.5 0.5 0.5 1
4.0702 -1.37703 8.09698 0.5 0.5 0.5 1
4.0702 1.37704 8.09697 0.5 0.5 0.5 1
-4.05424 1.39953 8.0173 0.5 0.5 0.5 1
-4.05424 -1.39953 8.0173 0.5 0.5 0.5 1
5.03329 -1.62237 7.69467 0.5 0.5 0.5 1
5.03329 1.62238 7.69467 0.5 0.5 0.5 1
-4.99697 1.63029 7.63551 0.5 0.5 0.5 1
-4.99697 -1.63029 7.63551 0.5 0.5 0.5 1
6.14493 -1.55851 7.70411 0.5 0.5 0.5 1
6.14493 1.55851 7.70411 0.5 0.5 0.5 1
-8.09197 -4.63725e-08 7.61563 0.5 0.5 0.5 1
8.77495 4.00702e-07 7.84393 0.5 0.5 0.5 1
-2.26462 -1.08846 5.29103 0.5 0.5 0.5 1
1.32712 -1.78502 6.5665 0.5 0.5 0.5 1
1.32712 1.78502 6.5665 0.5 0.5 0.5 1
-2.58112 1.47997 6.80981 0.5 0.5 0.5 1
-2.58112 -1.47997 6.80981 0.5 0.5 0.5 1
0.0213868 -1.94327 6.12762 0.5 0.5 0.5 1
0.0213862 1.9433 6.12762 0.5 0.5 0.5 1
2.59052 1.41852 6.89105 0.5 0.5 0.5 1
4.1155 -1.38061 7.09565 0.5 0.5 0.5 1
-1.14292 -1.77086 5.69186 0.5 0.5 0.5 1
-1.14292 1.77086 5.69186 0.5 0.5 0.5 1
-1.79687 -0.817172 3.70953 0.5 0.5 0.5 1
-1.79687 0.817177 3.70952 0.5 0.5 0.5 1
1.19001 1.73481 5.30531 0.5 0.5 0.5 1
1.19001 -1.7348 5.30531 0.5 0.5 0.5 1
4.11551 1.38062 7.09565 0.5 0.5 0.5 1
-4.08349 1.40374 7.00759 0.5 0.5 0.5 1
2.53416 4.43972e-07 5.69826 0.5 0.5 0.5 1
1.67798 1.31169 4.82238 0.5 0.5 0.5 1
1.67798 -1.31169 4.82238 0.5 0.5 0.5 1
0.122698 1.81746 4.93713 0.5 0.5 0.5 1
0.122638 -1.8173 4.93713 0.5 0.5 0.5 1
1.96166 4.36518e-07 4.39855 0.5 0.5 0.5 1
5.41031 -0.751036 4.14286 1 1 0 1
5.4103 0.751045 4.14286 1 1 0 1
-3.30718 -4.65421e-08 6.057 0.5 0.5 0.5 1
-0.980408 -1.58853 4.52109 0.5 0.5 0.5 1
-0.980408 1.58854 4.52109 0.5 0.5 0.5 1
1.06601 1.59462 4.18623 0.5 0.5 0.5 1
1.066 -1.59455 4.18623 0.5 0.5 0.5 1
-4.08349 -1.40374 7.00759 0.5 0.5 0.5 1
0.158824 -8.58135e-08 1.03911 1 1 0 1
3.2457 8.57225e-07 5.96382 0.5 0.5 0.5 1
-5.15925 0.815979 4.6311 1 1 0 1
-5.15925 -0.815979 4.6311 1 1 0 1
1.48114 1.10253 3.70733 0.5 0.5 0.5 1
1.48104 -1.10245 3.70733 0.5 0.5 0.5 1
0.193076 1.66645 3.80617 0.5 0.5 0.5 1
0.193133 -1.66637 3.80617 0.5 0.5 0.5 1
6.8092 -1.37589 7.13044 0.5 0.5 0.5 1
6.80918 1.37591 7.1304 0.5 0.5 0.5 1
2.59052 -1.41851 6.89105 0.5 0.5 0.5 1
1.83562 1.59139 5.89911 0.5 0.5 0.5 1
1.83561 -1.59139 5.8991 0.5 0.5 0.5 1
-1.2993 1.82006 6.72522 0.5 0.5 0.5 1
1.64842 9.12221e-05 3.34746 1 1 1 1
-0.756385 -1.36871 3.32428 1 1 1 1
-0.756391 1.36871 3.32428 1 1 1 1
-1.95863 -0.456346 2.81645 1 1 1 1
-1.95863 0.456346 2.81645 1 1 1 1
4.19146 2.8754e-06 6.76688 0.5 0.5 0.5 1
0.953109 1.42762 3.12265 1 1 1 1
0.952948 -1.42766 3.12265 1 1 1 1
-4.08761 1.07298e-06 6.64898 0.5 0.5 0.5 1
6.10743 -1.46806 6.54783 0.5 0.5 0.5 1
6.10743 1.46806 6.54778 0.5 0.5 0.5 1
7.42568 3.12869e-06 6.7747 0.5 0.5 0.5 1
0.226696 1.48507 2.7871 1 1 1 1
0.226737 -1.48512 2.7871 1 1 1 1
6.90674 -0.710928 5.64119 0.5 0.5 0.5 1
6.90673 0.710932 5.64117 0.5 0.5 0.5 1
5.18356 -1.48871 6.51122 0.5 0.5 0.5 1
5.18359 1.48869 6.51116 0.5 0.5 0.5 1
1.29075 0.965926 2.73876 1 1 1 1
1.2906 -0.965719 2.73876 1 1 1 1
-1.2993 -1.82006 6.72522 0.5 0.5 0.5 1
-7.07526 0.732297 6.34974 0.5 0.5 0.5 1
-7.07526 -0.732298 6.34974 0.5 0.5 0.5 1
-6.56301 1.15921 6.79456 0.5 0.5 0.5 1
-6.563 -1.15921 6.79456 0.5 0.5 0.5 1
6.64075 -1.09742 6.10069 0.5 0.5 0.5 1
6.64082 1.09748 6.1007 0.5 0.5 0.5 1
4.5718 -1.07125 6.35479 0.5 0.5 0.5 1
4.57172 1.07136 6.35482 0.5 0.5 0.5 1
-7.36363 0.700003 7.10618 0.5 0.5 0.5 1
-7.36363 -0.700004 7.10618 0.5 0.5 0.5 1
-2.26462 1.08846 5.29103 0.5 0.5 0.5 1
4.47902 -0.430103 5.11293 0.5 0.5 0.5 1
4.47911 0.430193 5.11297 0.5 0.5 0.5 1
-0.85433 -1.11239 2.574 1 1 1 1
-0.854331 1.11239 2.574 1 1 1 1
1.41709 8.48292e-05 2.44895 1 1 1 1
-2.33817 -1.71344e-06 3.90696 0.5 0.5 0.5 1
-1.56602 -0.438843 1.71952 1 1 1 1
-1.56602 0.438843 1.71952 1 1 1 1
-5.09503 1.41596 6.45993 0.5 0.5 0.5 1
-5.09508 -1.41567 6.45996 0.5 0.5 0.5 1
0.843019 1.27355 2.21136 1 1 1 1
0.843017 -1.27357 2.21136 1 1 1 1
-4.51357 1.05677 6.26303 0.5 0.5 0.5 1
-4.51347 -1.05666 6.26303 0.5 0.5 0.5 1
-2.61419 2.24945e-08 5.15777 0.5 0.5 0.5 1
6.01354 -1.34694 5.54629 0.5 0.5 0.5 1
6.01354 1.34695 5.54627 0.5 0.5 0.5 1
-4.25683 0.401607 5.43042 0.5 0.5 0.5 1
-4.25683 -0.401607 5.43042 0.5 0.5 0.5 1
-6.33106 0.939805 5.48981 0.5 0.5 0.5 1
-6.33107 -0.9398 5.48979 0.5 0.5 0.5 1
-6.21397 1.05312 5.8155 0.5 0.5 0.5 1
-6.21397 -1.05312 5.8155 0.5 0.5 0.5 1
5.36984 -1.30093 5.47407 0.5 0.5 0.5 1
5.36968 1.30088 5.47388 0.5 0.5 0.5 1
0.128196 1.19969 1.94645 1 1 1 1
0.128195 -1.19969 1.94645 1 1 1 1
4.99649 -1.05663 5.37731 0.5 0.5 0.5 1
4.9967 1.05656 5.37729 0.5 0.5 0.5 1
6.43931 -1.23554 5.16536 0.5 0.5 0.5 1
6.43925 1.23557 5.16542 0.5 0.5 0.5 1
1.11204 0.701883 1.92945 1 1 1 1
1.11204 -0.701884 1.92945 1 1 1 1
-0.32053 -0.758202 1.78388 1 1 1 1
-0.320531 0.758202 1.78388 1 1 1 1
6.22103 -0.725987 4.81478 0.5 0.5 0.5 1
6.22109 0.726004 4.81478 0.5 0.5 0.5 1

3 0 24 98
3 0 98 24
3 0 28 96
3 0 96 28
3 0 28 104
3 0 104 28
3 0 96 98
3 0 98 96
3 0 98 104
3 0 104 98
3 1 25 99
3 1 99 25
3 1 28 97
3 1 97 28
3 1 28 105
3 1 105 28
3 1 97 99
3 1 99 97
3 1 99 105
3 1 105 99
3 2 6 31
3 2 31 6
3 2 9 95
3 2 95 9
3 2 31 35
3 2 35 31
3 2 35 95
3 2 95 35
3 3 26 69
3 3 69 26
3 3 29 86
3 3 86 29
3 3 69 86
3 3 86 69
3 4 27 70
3 4 70 27
3 4 29 86
3 4 86 29
3 4 70 86
3 4 86 70
3 5 7 32
3 5 32 7
3 5 8 74
3 5 74 8
3 5 32 36
3 5 36 32
3 5 36 74
3 5 74 36
3 6 10 71
3 6 71 10
3 6 31 71
3 6 71 31
3 7 11 37
3 7 37 11
3 7 32 37
3 7 37 32
3 8 12 33
3 8 33 12
3 8 33 74
3 8 74 33
3 9 13 34
3 9 34 13
3 9 34 95
3 9 95 34
3 10 14 71
3 10 71 14
3 11 15 37
3 11 37 15
3 12 16 33
3 12 33 16
3 13 17 34
3 13 34 17
3 14 18 38
3 14 38 18
3 14 38 71
3 14 71 38
3 15 19 45
3 15 45 19
3 15 37 45
3 15 45 37
3 16 20 46
3 16 46 20
3 16 33 46
3 16 46 33
3 17 21 60
3 17 60 21
3 17 34 60
3 17 60 34
3 18 22 38
3 18 38 22
3 19 23 45
3 19 45 23
3 20 24 46
3 20 46 24
3 21 25 60
3 21 60 25
3 22 26 84
3 22 84 26
3 22 38 91
3 22 91 38
3 22 84 91
3 22 91 84
3 23 27 85
3 23 85 27
3 23 45 92
3 23 92 45
3 23 85 92
3 23 92 85
3 24 46 115
3 24 115 46
3 24 98 115
3 24 115 98
3 25 60 116
3 25 116 60
3 25 99 116
3 25 116 99
3 26 69 84
3 26 84 69
3 27 70 85
3 27 85 70
3 28 96 97
3 28 97 96
3 28 96 104
3 28 104 96
3 28 97 105
3 28 105 97
3 30 34 39
3 30 39 34
3 30 34 55
3 30 55 34
3 30 39 56
3 30 56 39
3 30 41 56
3 30 56 41
3 30 41 112
3 30 112 41
3 30 55 106
3 30 106 55
3 30 55 121
3 30 121 55
3 30 106 112
3 30 112 106
3 30 112 121
3 30 121 112
3 31 35 44
3 31 44 35
3 31 44 73
3 31 73 44
3 31 71 73
3 31 73 71
3 32 36 43
3 32 43 36
3 32 37 72
3 32 72 37
3 32 43 72
3 32 72 43
3 33 40 74
3 33 74 40
3 33 40 106
3 33 106 40
3 33 46 55
3 33 55 46
3 33 55 106
3 33 106 55
3 34 39 95
3 34 95 39
3 34 55 60
3 34 60 55
3 35 39 51
3 35 51 39
3 35 39 95
3 35 95 39
3 35 44 51
3 35 51 44
3 36 40 50
3 36 50 40
3 36 40 74
3 36 74 40
3 36 43 50
3 36 50 43
3 37 45 62
3 37 62 45
3 37 47 62
3 37 62 47
3 37 47 72
3 37 72 47
3 38 62 71
3 38 71 62
3 38 62 80
3 38 80 62
3 38 80 102
3 38 102 80
3 38 91 102
3 38 102 91
3 39 51 56
3 39 56 51
3 40 50 57
3 40 57 50
3 40 57 106
3 40 106 57
3 41 56 76
3 41 76 56
3 41 76 109
3 41 109 76
3 41 78 109
3 41 109 78
3 41 78 112
3 41 112 78
3 42 57 77
3 42 77 57
3 42 57 106
3 42 106 57
3 42 77 110
3 42 110 77
3 42 79 110
3 42 110 79
3 42 79 112
3 42 112 79
3 42 106 112
3 42 112 106
3 43 48 58
3 43 58 48
3 43 48 72
3 43 72 48
3 43 50 58
3 43 58 50
3 44 49 59
3 44 59 49
3 44 49 73
3 44 73 49
3 44 51 59
3 44 59 51
3 45 62 80
3 45 80 62
3 45 80 103
3 45 103 80
3 45 92 103
3 45 103 92
3 46 55 83
3 46 83 55
3 46 83 119
3 46 119 83
3 46 115 119
3 46 119 115
3 47 48 52
3 47 52 48
3 47 48 72
3 47 72 48
3 47 49 52
3 47 52 49
3 47 49 73
3 47 73 49
3 47 62 71
3 47 71 62
3 47 71 73
3 47 73 71
3 48 52 65
3 48 65 52
3 48 58 65
3 48 65 58
3 49 52 66
3 49 66 52
3 49 59 66
3 49 66 59
3 50 57 67
3 50 67 57
3 50 58 67
3 50 67 58
3 51 56 68
3 51 68 56
3 51 59 68
3 51 68 59
3 52 65 75
3 52 75 65
3 52 66 75
3 52 75 66
3 53 54 108
3 53 108 54
3 53 54 143
3 53 143 54
3 53 89 136
3 53 136 89
3 53 89 142
3 53 142 89
3 53 107 108
3 53 108 107
3 53 107 134
3 53 134 107
3 53 122 130
3 53 130 122
3 53 122 136
3 53 136 122
3 53 130 134
3 53 134 130
3 53 142 143
3 53 143 142
3 54 90 137
3 54 137 90
3 54 90 143
3 54 143 90
3 54 108 135
3 54 135 108
3 54 123 131
3 54 131 123
3 54 123 137
3 54 137 123
3 54 131 135
3 54 135 131
3 55 60 83
3 55 83 60
3 55 106 121
3 55 121 106
3 56 68 76
3 56 76 68
3 57 67 77
3 57 77 67
3 58 65 81
3 58 81 65
3 58 67 81
3 58 81 67
3 59 66 82
3 59 82 66
3 59 68 82
3 59 82 68
3 60 83 120
3 60 120 83
3 60 116 120
3 60 120 116
3 61 93 111
3 61 111 93
3 61 93 117
3 61 117 93
3 61 94 111
3 61 111 94
3 61 94 118
3 61 118 94
3 61 111 138
3 61 138 111
3 61 111 139
3 61 139 111
3 61 113 114
3 61 114 113
3 61 113 140
3 61 140 113
3 61 114 141
3 61 141 114
3 61 117 132
3 61 132 117
3 61 117 138
3 61 138 117
3 61 118 133
3 61 133 118
3 61 118 139
3 61 139 118
3 61 132 141
3 61 141 132
3 61 133 140
3 61 140 133
3 63 64 125
3 63 125 64
3 63 64 127
3 63 127 64
3 63 83 119
3 63 119 83
3 63 83 124
3 63 124 83
3 63 115 119
3 63 119 115
3 63 115 128
3 63 128 115
3 63 124 125
3 63 125 124
3 63 126 127
3 63 127 126
3 63 126 128
3 63 128 126
3 64 83 120
3 64 120 83
3 64 83 125
3 64 125 83
3 64 116 120
3 64 120 116
3 64 116 129
3 64 129 116
3 64 127 129
3 64 129 127
3 65 75 93
3 65 93 75
3 65 81 93
3 65 93 81
3 66 75 94
3 66 94 75
3 66 82 94
3 66 94 82
3 67 77 87
3 67 87 77
3 67 81 87
3 67 87 81
3 68 76 88
3 68 88 76
3 68 82 88
3 68 88 82
3 69 84 100
3 69 100 84
3 69 86 100
3 69 100 86
3 70 85 101
3 70 101 85
3 70 86 101
3 70 101 86
3 75 93 111
3 75 111 93
3 75 94 111
3 75 111 94
3 76 88 109
3 76 109 88
3 77 87 110
3 77 110 87
3 78 79 112
3 78 112 79
3 78 79 114
3 78 114 79
3 78 109 140
3 78 140 109
3 78 113 114
3 78 114 113
3 78 113 140
3 78 140 113
3 79 110 141
3 79 141 110
3 79 114 141
3 79 141 114
3 80 102 134
3 80 134 102
3 80 103 135
3 80 135 103
3 80 107 108
3 80 108 107
3 80 107 134
3 80 134 107
3 80 108 135
3 80 135 108
3 81 87 117
3 81 117 87
3 81 93 117
3 81 117 93
3 82 88 118
3 82 118 88
3 82 94 118
3 82 118 94
3 83 124 125
3 83 125 124
3 84 91 122
3 84 122 91
3 84 100 122
3 84 122 100
3 85 92 123
3 85 123 92
3 85 101 123
3 85 123 101
3 86 89 90
3 86 90 89
3 86 89 100
3 86 100 89
3 86 90 101
3 86 101 90
3 87 110 132
3 87 132 110
3 87 117 132
3 87 132 117
3 88 109 133
3 88 133 109
3 88 118 133
3 88 133 118
3 89 90 143
3 89 143 90
3 89 100 136
3 89 136 100
3 89 142 143
3 89 143 142
3 90 101 137
3 90 137 101
3 91 102 130
3 91 130 102
3 91 122 130
3 91 130 122
3 92 103 131
3 92 131 103
3 92 123 131
3 92 131 123
3 93 111 138
3 93 138 111
3 93 117 138
3 93 138 117
3 94 111 139
3 94 139 111
3 94 118 139
3 94 139 118
3 96 97 127
3 96 127 97
3 96 98 104
3 96 104 98
3 96 98 128
3 96 128 98
3 96 126 127
3 96 127 126
3 96 126 128
3 96 128 126
3 97 99 105
3 97 105 99
3 97 99 129
3 97 129 99
3 97 127 129
3 97 129 127
3 98 115 128
3 98 128 115
3 99 116 129
3 99 129 116
3 100 122 136
3 100 136 122
3 101 123 137
3 101 137 123
3 102 130 134
3 102 134 130
3 103 131 135
3 103 135 131
3 106 112 121
3 106 121 112
3 109 133 140
3 109 140 133
3 110 132 141
3 110 141 132
