# Generated by dad_to_polygons. Vertex data from Humppa's .off file,
# polygons parsed from .dad file.
COFF
15 36 15
-2.385728 0.572562 1.728189 0.500000 0.500000 0.500000 1.0
-2.385728 -0.572562 1.728189 0.500000 0.500000 0.500000 1.0
-0.003925 -1.154744 1.721278 0.500000 0.500000 0.500000 1.0
2.601205 -0.570429 1.732842 0.500000 0.500000 0.500000 1.0
2.601205 0.570429 1.732842 0.500000 0.500000 0.500000 1.0
-0.003925 1.154744 1.721278 0.500000 0.500000 0.500000 1.0
0.976937 -0.883992 1.723773 0.500000 0.500000 0.500000 1.0
0.976937 0.883992 1.723773 0.500000 0.500000 0.500000 1.0
-0.978544 0.880776 1.722586 0.500000 0.500000 0.500000 1.0
-0.978544 -0.880776 1.722586 0.500000 0.500000 0.500000 1.0
1.135590 -0.469510 1.326389 0.500000 0.500000 0.500000 1.0
-1.088018 0.430193 1.329934 0.500000 0.500000 0.500000 1.0
-1.088018 -0.430193 1.329934 0.500000 0.500000 0.500000 1.0
1.135590 0.469510 1.326389 0.500000 0.500000 0.500000 1.0
0.005691 -0.000000 1.053561 1.0 1.0 0.0 1.0
3 0 11 12
3 0 12 11
3 0 12 1
3 0 1 12
3 2 6 14
3 2 14 6
3 3 4 13
3 3 13 4
3 3 13 10
3 3 10 13
3 5 14 7
3 5 7 14
3 6 3 10
3 6 10 3
3 7 4 13
3 7 13 4
3 9 12 1
3 9 1 12
3 9 14 12
3 9 12 14
3 10 6 14
3 10 14 6
3 11 8 0
3 11 0 8
3 11 14 8
3 11 8 14
3 12 14 11
3 12 11 14
3 13 14 7
3 13 7 14
3 13 14 10
3 13 10 14
3 14 2 9
3 14 9 2
3 14 5 8
3 14 8 5
