 COFF
          21         108          21
  
  -3.1510777713654790       0.61472674765190838        2.0835575095496592       0.60000002384185791       0.60000002384185791       0.60000002384185791       0.80000001192092896     
  -3.1510777713654785      -0.61472674765190838        2.0835575095496592       0.60000002384185791       0.60000002384185791       0.60000002384185791       0.80000001192092896     
  -7.8684817132268544E-003  -1.2703188923668896        2.0328115119052610       0.60000002384185791       0.60000002384185791       0.60000002384185791       0.80000001192092896     
   3.4432450350337191      -0.61008674900201831        2.0932262991890709       0.60000002384185791       0.60000002384185791       0.60000002384185791       0.80000001192092896     
   3.4432450350337205       0.61008674900201831        2.0932262991890709       0.60000002384185791       0.60000002384185791       0.60000002384185791       0.80000001192092896     
  -7.8684817132268908E-003   1.2703188923668896        2.0328115119052610       0.60000002384185791       0.60000002384185791       0.60000002384185791       0.80000001192092896     
  0.94921864639015019      -0.98836592792157751        2.0436224830948895       0.60000002384185791       0.60000002384185791       0.60000002384185791       0.80000001192092896     
  0.94921864639015041       0.98836592792157740        2.0436224830948895       0.60000002384185791       0.60000002384185791       0.60000002384185791       0.80000001192092896     
  -1.0013866266183498       0.97852561172553709        2.0450633185368940       0.60000002384185791       0.60000002384185791       0.60000002384185791       0.80000001192092896     
  -1.0013866266183498      -0.97852561172553720        2.0450633185368940       0.60000002384185791       0.60000002384185791       0.60000002384185791       0.80000001192092896     
   1.9226114208415506      -0.81367370042013154        2.1250046573087622       0.60000002384185791       0.60000002384185791       0.60000002384185791       0.80000001192092896     
   1.9226114208415510       0.81367370042013132        2.1250046573087622       0.60000002384185791       0.60000002384185791       0.60000002384185791       0.80000001192092896     
  -2.0301472531722671       0.79790005046564005        2.0659767248486895       0.60000002384185791       0.60000002384185791       0.60000002384185791       0.80000001192092896     
  -2.0301472531722671      -0.79790005046564016        2.0659767248486895       0.60000002384185791       0.60000002384185791       0.60000002384185791       0.80000001192092896     
   6.5509500193922090E-003  -2.1615695216978927E-017   1.0535609148389919        1.0000000000000000        1.0000000000000000        0.0000000000000000        1.0000000000000000     
   1.4397314978423004      -0.65345775123304717        1.5378555407387571       0.60000002384185791       0.60000002384185791       0.60000002384185791       0.80000001192092896     
  -1.3730810623239516       0.64401994166893040        1.5307916970123616       0.60000002384185791       0.60000002384185791       0.60000002384185791       0.80000001192092896     
  -1.3730810623239516      -0.64401994166893040        1.5307916970123618       0.60000002384185791       0.60000002384185791       0.60000002384185791       0.80000001192092896     
   1.4397314978423004       0.65345775123304717        1.5378555407387573       0.60000002384185791       0.60000002384185791       0.60000002384185791       0.80000001192092896     
   2.5005230383725028      -0.61578541532621678        1.7664003393979135       0.60000002384185791       0.60000002384185791       0.60000002384185791       0.80000001192092896     
   2.5005230383725028       0.61578541532621667        1.7664003393979137       0.60000002384185791       0.60000002384185791       0.60000002384185791       0.80000001192092896     
  
   3   0  12  16
   3   0  16  12
   4   0  16  17   1
   3   1  17  13
   4   1  17  16   0
   3   1  13  17
   3   2  14   6
   3   2  14   9
   3   2   6  14
   3   2   9  14
   3   5   7  14
   3   5  14   7
   3   5  14   8
   3   5   8  14
   3   6   2  14
   3   6  14  15
   3   6  14   2
   3   6  15  10
   3   6  15  14
   3   6  10  15
   3   7  11  18
   3   7  18  14
   3   7  18  11
   3   7  14   5
   3   7  14  18
   3   7   5  14
   3   8   5  14
   3   8  14   5
   3   8  14  16
   3   8  16  12
   3   8  16  14
   3   8  12  16
   3   9  13  17
   3   9  17  14
   3   9  17  13
   3   9  14   2
   3   9  14  17
   3   9   2  14
   3  10   6  15
   3  10  15   6
   4  10  15  19   3
   3  11  18   7
   4  11  18  20   4
   3  11   7  18
   3  12   8  16
   3  12  16   0
   3  12  16   8
   3  12   0  16
   3  13   1  17
   3  13  17   1
   3  13  17   9
   3  13   9  17
   3  14   5   7
   3  14   5   8
   3  14   7  18
   3  14   7   5
   3  14  18  15
   3  14  18   7
   3  14  15   6
   3  14  15  18
   3  14   6   2
   3  14   6  15
   3  14   2   6
   3  14   2   9
   3  14   9  17
   3  14   9   2
   3  14  17  16
   3  14  17   9
   3  14  16   8
   3  14  16  17
   3  14   8   5
   3  14   8  16
   3  15  10   6
   4  15  10   3  19
   3  15   6  14
   3  15   6  10
   3  15  14  18
   3  15  14   6
   3  15  18  14
   4  15  18  20  19
   3  16   0  12
   4  16   0   1  17
   3  16  12   8
   3  16  12   0
   3  16   8  14
   3  16   8  12
   3  16  14  17
   3  16  14   8
   3  16  17  14
   4  16  17   1   0
   3  17   1  13
   4  17   1   0  16
   3  17  16  14
   4  17  16   0   1
   3  17  14   9
   3  17  14  16
   3  17   9  13
   3  17   9  14
   3  17  13   1
   3  17  13   9
   3  18  15  14
   4  18  15  19  20
   3  18  14   7
   3  18  14  15
   3  18   7  11
   3  18   7  14
   3  18  11   7
   4  18  11   4  20
