# Generated by dad_to_polygons. Vertex data from Humppa's .off file,
# polygons parsed from .dad file.
COFF
21 52 21
-3.151078 0.614727 2.083558 0.500000 0.500000 0.500000 1.0
-3.151078 -0.614727 2.083558 0.500000 0.500000 0.500000 1.0
-0.007868 -1.270319 2.032812 0.500000 0.500000 0.500000 1.0
3.443245 -0.610087 2.093226 0.500000 0.500000 0.500000 1.0
3.443245 0.610087 2.093226 0.500000 0.500000 0.500000 1.0
-0.007868 1.270319 2.032812 0.500000 0.500000 0.500000 1.0
0.949219 -0.988366 2.043622 0.500000 0.500000 0.500000 1.0
0.949219 0.988366 2.043622 0.500000 0.500000 0.500000 1.0
-1.001387 0.978526 2.045063 0.500000 0.500000 0.500000 1.0
-1.001387 -0.978526 2.045063 0.500000 0.500000 0.500000 1.0
1.922611 -0.813674 2.125005 0.500000 0.500000 0.500000 1.0
1.922611 0.813674 2.125005 0.500000 0.500000 0.500000 1.0
-2.030147 0.797900 2.065977 0.500000 0.500000 0.500000 1.0
-2.030147 -0.797900 2.065977 0.500000 0.500000 0.500000 1.0
0.006551 -0.000000 1.053561 1.0 1.0 0.0 1.0
1.439731 -0.653458 1.537856 0.500000 0.500000 0.500000 1.0
-1.373081 0.644020 1.530792 0.500000 0.500000 0.500000 1.0
-1.373081 -0.644020 1.530792 0.500000 0.500000 0.500000 1.0
1.439731 0.653458 1.537856 0.500000 0.500000 0.500000 1.0
2.500523 -0.615785 1.766400 0.500000 0.500000 0.500000 1.0
2.500523 0.615785 1.766400 0.500000 0.500000 0.500000 1.0
3 0 12 16
3 0 16 12
3 0 16 17
3 0 17 16
3 0 17 1
3 0 1 17
3 1 17 13
3 1 13 17
3 2 14 6
3 2 6 14
3 3 4 20
3 3 20 4
3 3 10 15
3 3 15 10
3 3 15 19
3 3 19 15
3 3 20 19
3 3 19 20
3 4 11 18
3 4 18 11
3 4 18 20
3 4 20 18
3 5 14 8
3 5 8 14
3 6 14 15
3 6 15 14
3 7 14 18
3 7 18 14
3 8 14 16
3 8 16 14
3 9 2 14
3 9 14 2
3 9 13 17
3 9 17 13
3 9 14 17
3 9 17 14
3 12 16 8
3 12 8 16
3 14 5 7
3 14 7 5
3 14 17 16
3 14 16 17
3 15 6 10
3 15 10 6
3 15 18 14
3 15 14 18
3 15 19 20
3 15 20 19
3 15 20 18
3 15 18 20
3 18 11 7
3 18 7 11
