 COFF
          37         264          37
  
  -4.2367359393822079       0.67759176548790101        2.8265595513459121       0.60000002384185791       0.60000002384185791       0.60000002384185791       0.80000001192092896     
  -4.2367359393822071      -0.67759176548790112        2.8265595513459121       0.60000002384185791       0.60000002384185791       0.60000002384185791       0.80000001192092896     
  -2.5256263486604261E-002  -1.4916268427685622        2.6500107545912228       0.60000002384185791       0.60000002384185791       0.60000002384185791       0.80000001192092896     
   4.5614527728957617      -0.66528986041064353        2.8497318410971730       0.60000002384185791       0.60000002384185791       0.60000002384185791       0.80000001192092896     
   4.5614527728957643       0.66528986041064342        2.8497318410971730       0.60000002384185791       0.60000002384185791       0.60000002384185791       0.80000001192092896     
  -2.5256263486604189E-002   1.4916268427685624        2.6500107545912228       0.60000002384185791       0.60000002384185791       0.60000002384185791       0.80000001192092896     
  0.96379218722217186       -1.2086645739868946        2.7232399992842193       0.60000002384185791       0.60000002384185791       0.60000002384185791       0.80000001192092896     
  0.96379218722217141        1.2086645739868944        2.7232399992842198       0.60000002384185791       0.60000002384185791       0.60000002384185791       0.80000001192092896     
  -1.0051235453147562        1.1918981947406635        2.7084612798486902       0.60000002384185791       0.60000002384185791       0.60000002384185791       0.80000001192092896     
  -1.0051235453147565       -1.1918981947406635        2.7084612798486902       0.60000002384185791       0.60000002384185791       0.60000002384185791       0.80000001192092896     
   1.9077550374536596      -0.94330322087665364        2.9197077605442394       0.60000002384185791       0.60000002384185791       0.60000002384185791       0.80000001192092896     
   1.9077550374536594       0.94330322087665319        2.9197077605442394       0.60000002384185791       0.60000002384185791       0.60000002384185791       0.80000001192092896     
  -1.9589599611915922       0.95500158838226945        2.8907495481917436       0.60000002384185791       0.60000002384185791       0.60000002384185791       0.80000001192092896     
  -1.9589599611915924      -0.95500158838226945        2.8907495481917436       0.60000002384185791       0.60000002384185791       0.60000002384185791       0.80000001192092896     
   3.0067732661167090      -0.81252273899063876        2.8826242562130928       0.60000002384185791       0.60000002384185791       0.60000002384185791       0.80000001192092896     
   3.0067732661167095       0.81252273899063843        2.8826242562130924       0.60000002384185791       0.60000002384185791       0.60000002384185791       0.80000001192092896     
  -2.9696270202739794       0.82123957459871466        2.8518084509986914       0.60000002384185791       0.60000002384185791       0.60000002384185791       0.80000001192092896     
  -2.9696270202739794      -0.82123957459871466        2.8518084509986914       0.60000002384185791       0.60000002384185791       0.60000002384185791       0.80000001192092896     
   1.9698920485056153       0.81040530444443426        2.1154298108200429       0.60000002384185791       0.60000002384185791       0.60000002384185791       0.80000001192092896     
   3.2009205348264955      -0.67081700291517254        2.2175412278330384       0.60000002384185791       0.60000002384185791       0.60000002384185791       0.80000001192092896     
   3.2009205348264960       0.67081700291517232        2.2175412278330384       0.60000002384185791       0.60000002384185791       0.60000002384185791       0.80000001192092896     
  -3.1400949271375285       0.68038357843437003        2.1883636496722860       0.60000002384185791       0.60000002384185791       0.60000002384185791       0.80000001192092896     
  -3.1400949271375285      -0.68038357843437014        2.1883636496722865       0.60000002384185791       0.60000002384185791       0.60000002384185791       0.80000001192092896     
  -7.5731960892335996E-003  -2.1815386167086810E-017   1.0535609148389919        1.0000000000000000        1.0000000000000000        0.0000000000000000        1.0000000000000000     
   1.9698920485056153      -0.81040530444443448        2.1154298108200429       0.60000002384185791       0.60000002384185791       0.60000002384185791       0.80000001192092896     
   1.0248993245696161       0.63766951238055858        1.5573241894766385       0.60000002384185791       0.60000002384185791       0.60000002384185791       0.80000001192092896     
   1.0248993245696163      -0.63766951238055858        1.5573241894766385       0.60000002384185791       0.60000002384185791       0.60000002384185791       0.80000001192092896     
 -0.61874682342495846       0.92727850904179254        1.9764440021670713       0.60000002384185791       0.60000002384185791       0.60000002384185791       0.80000001192092896     
 -0.61874682342495857      -0.92727850904179254        1.9764440021670713       0.60000002384185791       0.60000002384185791       0.60000002384185791       0.80000001192092896     
  -1.3338667587646433       0.46101587949233402        1.4574033011698246       0.60000002384185791       0.60000002384185791       0.60000002384185791       0.80000001192092896     
  -1.3338667587646433      -0.46101587949233408        1.4574033011698246       0.60000002384185791       0.60000002384185791       0.60000002384185791       0.80000001192092896     
  0.68324102356376004      -0.84281274794451855        1.8655699982820544       0.60000002384185791       0.60000002384185791       0.60000002384185791       0.80000001192092896     
  0.68324102356376026       0.84281274794451866        1.8655699982820546       0.60000002384185791       0.60000002384185791       0.60000002384185791       0.80000001192092896     
  -1.8965227626526009       0.82450053040007287        2.0979444838564056       0.60000002384185791       0.60000002384185791       0.60000002384185791       0.80000001192092896     
  -1.8965227626526009      -0.82450053040007287        2.0979444838564061       0.60000002384185791       0.60000002384185791       0.60000002384185791       0.80000001192092896     
  -3.6817259065965800E-002 -0.92888033947953730        1.8630067530396079       0.60000002384185791       0.60000002384185791       0.60000002384185791       0.80000001192092896     
  -3.6817259065965759E-002  0.92888033947953741        1.8630067530396079       0.60000002384185791       0.60000002384185791       0.60000002384185791       0.80000001192092896     
  
   3   0  16  21
   3   0  21  16
   4   0  21  22   1
   3   1  22  17
   4   1  22  21   0
   3   1  17  22
   3   2  35  28
   3   2  35  31
   3   2  31  35
   3   2  31   6
   3   2   6  31
   3   2   9  28
   3   2  28  35
   3   2  28   9
   3   3  14  19
   3   3  19  14
   4   3  19  20   4
   3   4  20  15
   4   4  20  19   3
   3   4  15  20
   3   5   7  32
   3   5  32  36
   3   5  32   7
   3   5  36  32
   3   5  36  27
   3   5  27  36
   3   5  27   8
   3   5   8  27
   3   6   2  31
   3   6  31   2
   3   6  31  24
   3   6  24  10
   3   6  24  31
   3   6  10  24
   3   7  11  18
   3   7  18  32
   3   7  18  11
   3   7  32  18
   3   7  32   5
   3   7   5  32
   3   8   5  27
   3   8  27   5
   3   8  27  33
   3   8  33  12
   3   8  33  27
   3   8  12  33
   3   9  13  34
   3   9  34  28
   3   9  34  13
   3   9  28  34
   3   9  28   2
   3   9   2  28
   3  10   6  24
   3  10  24  14
   3  10  24   6
   3  10  14  24
   3  11  15  18
   3  11  18   7
   3  11  18  15
   3  11   7  18
   3  12   8  33
   3  12  33  16
   3  12  33   8
   3  12  16  33
   3  13  17  34
   3  13  34   9
   3  13  34  17
   3  13   9  34
   3  14  10  24
   3  14  24  19
   3  14  24  10
   3  14  19   3
   3  14  19  24
   3  14   3  19
   3  15   4  20
   3  15  20   4
   3  15  20  18
   3  15  18  20
   3  15  18  11
   3  15  11  18
   3  16  12  33
   3  16  33  21
   3  16  33  12
   3  16  21   0
   3  16  21  33
   3  16   0  21
   3  17   1  22
   3  17  22   1
   3  17  22  34
   3  17  34  22
   3  17  34  13
   3  17  13  34
   3  18  20  15
   4  18  20  19  24
   3  18  25  32
   4  18  25  26  24
   3  18  32  25
   3  18  32   7
   3  18   7  11
   3  18   7  32
   3  18  11  15
   3  18  11   7
   3  18  15  20
   3  18  15  11
   3  19   3  14
   4  19   3   4  20
   3  19  14  24
   3  19  14   3
   3  19  24  14
   4  19  24  18  20
   3  20   4  15
   4  20   4   3  19
   3  20  18  15
   4  20  18  24  19
   3  20  15   4
   3  20  15  18
   3  21   0  16
   4  21   0   1  22
   3  21  16  33
   3  21  16   0
   3  21  33  16
   4  21  33  34  22
   3  22   1  17
   4  22   1   0  21
   3  22  34  17
   4  22  34  33  21
   3  22  17   1
   3  22  17  34
   3  23  36  32
   3  23  36  27
   3  23  32  25
   3  23  32  36
   3  23  25  26
   3  23  25  32
   3  23  26  25
   3  23  26  31
   3  23  31  35
   3  23  31  26
   3  23  35  28
   3  23  35  31
   3  23  28  35
   4  23  28  34  30
   3  23  30  29
   4  23  30  34  28
   3  23  29  30
   4  23  29  33  27
   3  23  27  36
   4  23  27   5  32
   3  24  19  14
   4  24  19  20  18
   3  24  14  10
   3  24  14  19
   3  24  10   6
   3  24  10  14
   3  24   6  31
   3  24   6  10
   3  24  31  26
   3  24  31   6
   3  24  26  31
   4  24  26  25  18
   3  25  18  32
   4  25  18  24  26
   3  25  26  23
   4  25  26  24  18
   3  25  23  32
   3  25  23  26
   3  25  32  18
   3  25  32  23
   3  26  23  25
   3  26  23  31
   3  26  25  23
   4  26  25  18  24
   3  26  24  31
   4  26  24  18  25
   3  26  31  23
   3  26  31  24
   3  27   5  36
   3  27   5   8
   3  27  36  23
   3  27  36   5
   3  27  23  36
   4  27  23  32   5
   3  27  33   8
   4  27  33  29  23
   3  27   8   5
   3  27   8  33
   3  28  34   9
   4  28  34  30  23
   3  28  23  35
   4  28  23  31   2
   3  28  35  23
   3  28  35   2
   3  28   2  35
   3  28   2   9
   3  28   9  34
   3  28   9   2
   3  29  23  30
   4  29  23  27  33
   3  29  30  23
   4  29  30  34  33
   3  30  29  23
   4  30  29  33  34
   3  30  23  29
   4  30  23  28  34
   3  31   2  35
   3  31   2   6
   3  31  35  23
   3  31  35   2
   3  31  23  26
   3  31  23  35
   3  31  26  23
   3  31  26  24
   3  31  24   6
   3  31  24  26
   3  31   6   2
   3  31   6  24
   3  32  18  25
   3  32  18   7
   3  32  25  18
   3  32  25  23
   3  32  23  36
   3  32  23  25
   3  32  36  23
   3  32  36   5
   3  32   5   7
   3  32   5  36
   3  32   7  18
   3  32   7   5
   3  33  21  16
   4  33  21  22  34
   3  33  16  12
   3  33  16  21
   3  33  12   8
   3  33  12  16
   3  33   8  27
   3  33   8  12
   3  33  27   8
   4  33  27  23  29
   3  34  22  17
   4  34  22  21  33
   3  34  28   9
   4  34  28  23  30
   3  34   9  13
   3  34   9  28
   3  34  13  17
   3  34  13   9
   3  34  17  22
   3  34  17  13
   3  35  28  23
   3  35  28   2
   3  35  23  31
   3  35  23  28
   3  35  31   2
   3  35  31  23
   3  35   2  31
   3  35   2  28
   3  36  32  23
   3  36  32   5
   3  36  23  32
   3  36  23  27
   3  36  27   5
   3  36  27  23
   3  36   5  32
   3  36   5  27
