 COFF
          37         264          37
  
  -4.6226150267628592       0.70058707193740788        3.2099101652409412       0.60000002384185791       0.60000002384185791       0.60000002384185791       0.80000001192092896     
  -4.6226150267628574      -0.70058707193740799        3.2099101652409412       0.60000002384185791       0.60000002384185791       0.60000002384185791       0.80000001192092896     
  -2.6081666682277720E-002  -1.5762678410744744        2.9785124976722197       0.60000002384185791       0.60000002384185791       0.60000002384185791       0.80000001192092896     
   4.9591305938438346      -0.68533571009249528        3.2383397637826281       0.60000002384185791       0.60000002384185791       0.60000002384185791       0.80000001192092896     
   4.9591305938438381       0.68533571009249517        3.2383397637826281       0.60000002384185791       0.60000002384185791       0.60000002384185791       0.80000001192092896     
  -2.6081666682277609E-002   1.5762678410744746        2.9785124976722197       0.60000002384185791       0.60000002384185791       0.60000002384185791       0.80000001192092896     
  0.98550634983271357       -1.2863637742637033        3.0972630201525835       0.60000002384185791       0.60000002384185791       0.60000002384185791       0.80000001192092896     
  0.98550634983271301        1.2863637742637029        3.0972630201525835       0.60000002384185791       0.60000002384185791       0.60000002384185791       0.80000001192092896     
  -1.0345877609866041        1.2685388249849383        3.0659153951262885       0.60000002384185791       0.60000002384185791       0.60000002384185791       0.80000001192092896     
  -1.0345877609866043       -1.2685388249849383        3.0659153951262885       0.60000002384185791       0.60000002384185791       0.60000002384185791       0.80000001192092896     
   1.9213460960466207      -0.98773236210652571        3.2911246349280017       0.60000002384185791       0.60000002384185791       0.60000002384185791       0.80000001192092896     
   1.9213460960466204       0.98773236210652537        3.2911246349280017       0.60000002384185791       0.60000002384185791       0.60000002384185791       0.80000001192092896     
  -1.9792968398279529        1.0029749912259605        3.2578571255499447       0.60000002384185791       0.60000002384185791       0.60000002384185791       0.80000001192092896     
  -1.9792968398279531       -1.0029749912259605        3.2578571255499447       0.60000002384185791       0.60000002384185791       0.60000002384185791       0.80000001192092896     
   3.0501504282736822      -0.85067770147750410        3.2941925519701694       0.60000002384185791       0.60000002384185791       0.60000002384185791       0.80000001192092896     
   3.0501504282736831       0.85067770147750377        3.2941925519701689       0.60000002384185791       0.60000002384185791       0.60000002384185791       0.80000001192092896     
  -2.9922872557201639       0.86509321969212361        3.2397973249758509       0.60000002384185791       0.60000002384185791       0.60000002384185791       0.80000001192092896     
  -2.9922872557201639      -0.86509321969212361        3.2397973249758518       0.60000002384185791       0.60000002384185791       0.60000002384185791       0.80000001192092896     
   2.1002862533907303       0.86291568778965011        2.4194032326717525       0.60000002384185791       0.60000002384185791       0.60000002384185791       0.80000001192092896     
   3.4001283624509751      -0.70775418362242892        2.5805064330839467       0.60000002384185791       0.60000002384185791       0.60000002384185791       0.80000001192092896     
   3.4001283624509759       0.70775418362242870        2.5805064330839467       0.60000002384185791       0.60000002384185791       0.60000002384185791       0.80000001192092896     
  -3.3253677689339809       0.72009651125241714        2.5499499933285090       0.60000002384185791       0.60000002384185791       0.60000002384185791       0.80000001192092896     
  -3.3253677689339809      -0.72009651125241725        2.5499499933285095       0.60000002384185791       0.60000002384185791       0.60000002384185791       0.80000001192092896     
  -2.4510593242808017E-002  -1.8783005471895131E-017   1.0535609148389919        1.0000000000000000        1.0000000000000000        0.0000000000000000        1.0000000000000000     
   2.1002862533907294      -0.86291568778965033        2.4194032326717529       0.60000002384185791       0.60000002384185791       0.60000002384185791       0.80000001192092896     
   1.1579754069108690       0.83263117146132737        1.7743175871719175       0.60000002384185791       0.60000002384185791       0.60000002384185791       0.80000001192092896     
   1.1579754069108685      -0.83263117146132770        1.7743175871719177       0.60000002384185791       0.60000002384185791       0.60000002384185791       0.80000001192092896     
 -0.80881330335889645        1.1255950019139942        2.2511493059659649       0.60000002384185791       0.60000002384185791       0.60000002384185791       0.80000001192092896     
 -0.80881330335889667       -1.1255950019139944        2.2511493059659649       0.60000002384185791       0.60000002384185791       0.60000002384185791       0.80000001192092896     
  -1.6657967929336244       0.59919022188448046        1.5913777409967520       0.60000002384185791       0.60000002384185791       0.60000002384185791       0.80000001192092896     
  -1.6657967929336241      -0.59919022188448035        1.5913777409967522       0.60000002384185791       0.60000002384185791       0.60000002384185791       0.80000001192092896     
  0.83515992676953776       -1.0495175599341582        2.1262891779436730       0.60000002384185791       0.60000002384185791       0.60000002384185791       0.80000001192092896     
  0.83515992676953876        1.0495175599341582        2.1262891779436734       0.60000002384185791       0.60000002384185791       0.60000002384185791       0.80000001192092896     
  -2.0802347892432458       0.87278538827792840        2.4019373557877435       0.60000002384185791       0.60000002384185791       0.60000002384185791       0.80000001192092896     
  -2.0802347892432467      -0.87278538827792840        2.4019373557877435       0.60000002384185791       0.60000002384185791       0.60000002384185791       0.80000001192092896     
  -4.0068646002638229E-002  -1.1665869565694966        2.1004007873679189       0.60000002384185791       0.60000002384185791       0.60000002384185791       0.80000001192092896     
  -4.0068646002638098E-002   1.1665869565694968        2.1004007873679189       0.60000002384185791       0.60000002384185791       0.60000002384185791       0.80000001192092896     
  
   3   0  16  21
   3   0  21  16
   4   0  21  22   1
   3   1  22  17
   4   1  22  21   0
   3   1  17  22
   3   2  35  28
   3   2  35  31
   3   2  31  35
   3   2  31   6
   3   2   6  31
   3   2   9  28
   3   2  28  35
   3   2  28   9
   3   3  14  19
   3   3  19  14
   4   3  19  20   4
   3   4  20  15
   4   4  20  19   3
   3   4  15  20
   3   5   7  32
   3   5  32  36
   3   5  32   7
   3   5  36  32
   3   5  36  27
   3   5  27  36
   3   5  27   8
   3   5   8  27
   3   6   2  31
   3   6  31   2
   3   6  31  24
   3   6  24  10
   3   6  24  31
   3   6  10  24
   3   7  11  18
   3   7  18  32
   3   7  18  11
   3   7  32  18
   3   7  32   5
   3   7   5  32
   3   8   5  27
   3   8  27   5
   3   8  27  33
   3   8  33  12
   3   8  33  27
   3   8  12  33
   3   9  13  34
   3   9  34  28
   3   9  34  13
   3   9  28  34
   3   9  28   2
   3   9   2  28
   3  10   6  24
   3  10  24  14
   3  10  24   6
   3  10  14  24
   3  11  15  18
   3  11  18   7
   3  11  18  15
   3  11   7  18
   3  12   8  33
   3  12  33  16
   3  12  33   8
   3  12  16  33
   3  13  17  34
   3  13  34   9
   3  13  34  17
   3  13   9  34
   3  14  10  24
   3  14  24  19
   3  14  24  10
   3  14  19   3
   3  14  19  24
   3  14   3  19
   3  15   4  20
   3  15  20   4
   3  15  20  18
   3  15  18  20
   3  15  18  11
   3  15  11  18
   3  16  12  33
   3  16  33  21
   3  16  33  12
   3  16  21   0
   3  16  21  33
   3  16   0  21
   3  17   1  22
   3  17  22   1
   3  17  22  34
   3  17  34  22
   3  17  34  13
   3  17  13  34
   3  18  20  15
   4  18  20  19  24
   3  18  25  32
   4  18  25  26  24
   3  18  32  25
   3  18  32   7
   3  18   7  11
   3  18   7  32
   3  18  11  15
   3  18  11   7
   3  18  15  20
   3  18  15  11
   3  19   3  14
   4  19   3   4  20
   3  19  14  24
   3  19  14   3
   3  19  24  14
   4  19  24  18  20
   3  20   4  15
   4  20   4   3  19
   3  20  18  15
   4  20  18  24  19
   3  20  15   4
   3  20  15  18
   3  21   0  16
   4  21   0   1  22
   3  21  16  33
   3  21  16   0
   3  21  33  16
   4  21  33  34  22
   3  22   1  17
   4  22   1   0  21
   3  22  34  17
   4  22  34  33  21
   3  22  17   1
   3  22  17  34
   3  23  36  32
   3  23  36  27
   3  23  32  25
   3  23  32  36
   3  23  25  26
   3  23  25  32
   3  23  26  25
   3  23  26  31
   3  23  31  35
   3  23  31  26
   3  23  35  28
   3  23  35  31
   3  23  28  35
   4  23  28  34  30
   3  23  30  29
   4  23  30  34  28
   3  23  29  30
   4  23  29  33  27
   3  23  27  36
   4  23  27   5  32
   3  24  19  14
   4  24  19  20  18
   3  24  14  10
   3  24  14  19
   3  24  10   6
   3  24  10  14
   3  24   6  31
   3  24   6  10
   3  24  31  26
   3  24  31   6
   3  24  26  31
   4  24  26  25  18
   3  25  18  32
   4  25  18  24  26
   3  25  26  23
   4  25  26  24  18
   3  25  23  32
   3  25  23  26
   3  25  32  18
   3  25  32  23
   3  26  23  25
   3  26  23  31
   3  26  25  23
   4  26  25  18  24
   3  26  24  31
   4  26  24  18  25
   3  26  31  23
   3  26  31  24
   3  27   5  36
   3  27   5   8
   3  27  36  23
   3  27  36   5
   3  27  23  36
   4  27  23  32   5
   3  27  33   8
   4  27  33  29  23
   3  27   8   5
   3  27   8  33
   3  28  34   9
   4  28  34  30  23
   3  28  23  35
   4  28  23  31   2
   3  28  35  23
   3  28  35   2
   3  28   2  35
   3  28   2   9
   3  28   9  34
   3  28   9   2
   3  29  23  30
   4  29  23  27  33
   3  29  30  23
   4  29  30  34  33
   3  30  29  23
   4  30  29  33  34
   3  30  23  29
   4  30  23  28  34
   3  31   2  35
   3  31   2   6
   3  31  35  23
   3  31  35   2
   3  31  23  26
   3  31  23  35
   3  31  26  23
   3  31  26  24
   3  31  24   6
   3  31  24  26
   3  31   6   2
   3  31   6  24
   3  32  18  25
   3  32  18   7
   3  32  25  18
   3  32  25  23
   3  32  23  36
   3  32  23  25
   3  32  36  23
   3  32  36   5
   3  32   5   7
   3  32   5  36
   3  32   7  18
   3  32   7   5
   3  33  21  16
   4  33  21  22  34
   3  33  16  12
   3  33  16  21
   3  33  12   8
   3  33  12  16
   3  33   8  27
   3  33   8  12
   3  33  27   8
   4  33  27  23  29
   3  34  22  17
   4  34  22  21  33
   3  34  28   9
   4  34  28  23  30
   3  34   9  13
   3  34   9  28
   3  34  13  17
   3  34  13   9
   3  34  17  22
   3  34  17  13
   3  35  28  23
   3  35  28   2
   3  35  23  31
   3  35  23  28
   3  35  31   2
   3  35  31  23
   3  35   2  31
   3  35   2  28
   3  36  32  23
   3  36  32   5
   3  36  23  32
   3  36  23  27
   3  36  27   5
   3  36  27  23
   3  36   5  32
   3  36   5  27
