 COFF
          45         340          45
  
  -4.9550338872760857       0.72054670222254258        3.5971354575344856       0.60000002384185791       0.60000002384185791       0.60000002384185791       0.80000001192092896     
  -4.9550338872760822      -0.72054670222254280        3.5971354575344856       0.60000002384185791       0.60000002384185791       0.60000002384185791       0.80000001192092896     
  -2.6609008082575526E-002  -1.6545665331537514        3.3113335325824917       0.60000002384185791       0.60000002384185791       0.60000002384185791       0.80000001192092896     
   5.2965853239353651      -0.70246035174127885        3.6306919357706762       0.60000002384185791       0.60000002384185791       0.60000002384185791       0.80000001192092896     
   5.2965853239353695       0.70246035174127863        3.6306919357706762       0.60000002384185791       0.60000002384185791       0.60000002384185791       0.80000001192092896     
  -2.6609008082575401E-002   1.6545665331537516        3.3113335325824917       0.60000002384185791       0.60000002384185791       0.60000002384185791       0.80000001192092896     
   1.0038089933519141       -1.3451002197357036        3.4484952510375524       0.60000002384185791       0.60000002384185791       0.60000002384185791       0.80000001192092896     
   1.0038089933519136        1.3451002197357032        3.4484952510375524       0.60000002384185791       0.60000002384185791       0.60000002384185791       0.80000001192092896     
  -1.0548056365068363        1.3337586261020131        3.4125826492894884       0.60000002384185791       0.60000002384185791       0.60000002384185791       0.80000001192092896     
  -1.0548056365068366       -1.3337586261020131        3.4125826492894884       0.60000002384185791       0.60000002384185791       0.60000002384185791       0.80000001192092896     
   1.9304910415689223       -1.0283443466071607        3.6656010661523672       0.60000002384185791       0.60000002384185791       0.60000002384185791       0.80000001192092896     
   1.9304910415689220        1.0283443466071602        3.6656010661523672       0.60000002384185791       0.60000002384185791       0.60000002384185791       0.80000001192092896     
  -1.9905560008473504        1.0497224225204160        3.6254917813509757       0.60000002384185791       0.60000002384185791       0.60000002384185791       0.80000001192092896     
  -1.9905560008473506       -1.0497224225204160        3.6254917813509757       0.60000002384185791       0.60000002384185791       0.60000002384185791       0.80000001192092896     
   3.0734022344374399      -0.88482455482575850        3.6958863489762988       0.60000002384185791       0.60000002384185791       0.60000002384185791       0.80000001192092896     
   3.0734022344374408       0.88482455482575817        3.6958863489762983       0.60000002384185791       0.60000002384185791       0.60000002384185791       0.80000001192092896     
  -3.0131270408754380       0.90440263317572722        3.6322014004321490       0.60000002384185791       0.60000002384185791       0.60000002384185791       0.80000001192092896     
  -3.0131270408754385      -0.90440263317572722        3.6322014004321499       0.60000002384185791       0.60000002384185791       0.60000002384185791       0.80000001192092896     
   4.0833659933463515      -0.79451105650498233        3.6588212071977817       0.60000002384185791       0.60000002384185791       0.60000002384185791       0.80000001192092896     
   4.0833659933463515       0.79451105650498144        3.6588212071977813       0.60000002384185791       0.60000002384185791       0.60000002384185791       0.80000001192092896     
   3.6152751973122350       0.73184904869819023        2.9563065416018204       0.60000002384185791       0.60000002384185791       0.60000002384185791       0.80000001192092896     
  -3.4853148689634339       0.75519909869812019        2.9231833567309740       0.60000002384185791       0.60000002384185791       0.60000002384185791       0.80000001192092896     
  -3.4853148689634343      -0.75519909869812019        2.9231833567309744       0.60000002384185791       0.60000002384185791       0.60000002384185791       0.80000001192092896     
  -2.9844211473661772E-002  -1.7178113411985746E-017   1.0535609148389919        1.0000000000000000        1.0000000000000000        0.0000000000000000        1.0000000000000000     
   2.1941727801753945      -0.91071175612174338        2.7497025714188310       0.60000002384185791       0.60000002384185791       0.60000002384185791       0.80000001192092896     
   1.2769563327878375       0.97149766775706903        2.0358436307842838       0.60000002384185791       0.60000002384185791       0.60000002384185791       0.80000001192092896     
   1.2769563327878368      -0.97149766775706947        2.0358436307842838       0.60000002384185791       0.60000002384185791       0.60000002384185791       0.80000001192092896     
 -0.95115642536981204        1.2409555511234591        2.5599430055266907       0.60000002384185791       0.60000002384185791       0.60000002384185791       0.80000001192092896     
 -0.95115642536981226       -1.2409555511234591        2.5599430055266907       0.60000002384185791       0.60000002384185791       0.60000002384185791       0.80000001192092896     
  -1.7877133777843663       0.70645705630066624        1.7847658219112461       0.60000002384185791       0.60000002384185791       0.60000002384185791       0.80000001192092896     
  -1.7877133777843663      -0.70645705630066613        1.7847658219112461       0.60000002384185791       0.60000002384185791       0.60000002384185791       0.80000001192092896     
  0.95244818236759188       -1.1837420441135806        2.4258423669387059       0.60000002384185791       0.60000002384185791       0.60000002384185791       0.80000001192092896     
  0.95244818236759277        1.1837420441135806        2.4258423669387068       0.60000002384185791       0.60000002384185791       0.60000002384185791       0.80000001192092896     
  -2.1880208803413148       0.91772112149007623        2.7066200602153812       0.60000002384185791       0.60000002384185791       0.60000002384185791       0.80000001192092896     
  -2.1880208803413161      -0.91772112149007623        2.7066200602153816       0.60000002384185791       0.60000002384185791       0.60000002384185791       0.80000001192092896     
  -3.7231496181776361E-002  -1.3148371876405260        2.3680329730915557       0.60000002384185791       0.60000002384185791       0.60000002384185791       0.80000001192092896     
  -3.7231496181776236E-002   1.3148371876405263        2.3680329730915557       0.60000002384185791       0.60000002384185791       0.60000002384185791       0.80000001192092896     
   2.1941727801753954       0.91071175612174304        2.7497025714188306       0.60000002384185791       0.60000002384185791       0.60000002384185791       0.80000001192092896     
   3.6152751973122341      -0.73184904869819034        2.9563065416018204       0.60000002384185791       0.60000002384185791       0.60000002384185791       0.80000001192092896     
 -0.45448836949189064      -0.79638276030962007        1.8427423752544061       0.60000002384185791       0.60000002384185791       0.60000002384185791       0.80000001192092896     
 -0.45448836949189064       0.79638276030962041        1.8427423752544061       0.60000002384185791       0.60000002384185791       0.60000002384185791       0.80000001192092896     
  -1.0231274018191325      -0.34711044047925732        1.3946348782567244       0.60000002384185791       0.60000002384185791       0.60000002384185791       0.80000001192092896     
  -1.0231274018191325       0.34711044047925738        1.3946348782567244       0.60000002384185791       0.60000002384185791       0.60000002384185791       0.80000001192092896     
  0.50862560103191834       0.65755079767655722        1.7256137201999264       0.60000002384185791       0.60000002384185791       0.60000002384185791       0.80000001192092896     
  0.50862560103191801      -0.65755079767655744        1.7256137201999264       0.60000002384185791       0.60000002384185791       0.60000002384185791       0.80000001192092896     
  
   3   0  16  21
   3   0  21  16
   4   0  21  22   1
   3   1  22  17
   4   1  22  21   0
   3   1  17  22
   3   2  35  28
   3   2  35  31
   3   2  31  35
   3   2  31   6
   3   2   6  31
   3   2   9  28
   3   2  28  35
   3   2  28   9
   3   3  18  38
   3   3  38  18
   4   3  38  20   4
   3   4  20  19
   4   4  20  38   3
   3   4  19  20
   3   5   7  32
   3   5  32  36
   3   5  32   7
   3   5  36  32
   3   5  36  27
   3   5  27  36
   3   5  27   8
   3   5   8  27
   3   6   2  31
   3   6  31   2
   3   6  31  24
   3   6  24  10
   3   6  24  31
   3   6  10  24
   3   7  11  37
   3   7  37  32
   3   7  37  11
   3   7  32  37
   3   7  32   5
   3   7   5  32
   3   8   5  27
   3   8  27   5
   3   8  27  33
   3   8  33  12
   3   8  33  27
   3   8  12  33
   3   9  13  34
   3   9  34  28
   3   9  34  13
   3   9  28  34
   3   9  28   2
   3   9   2  28
   3  10   6  24
   3  10  24  14
   3  10  24   6
   3  10  14  24
   3  11  15  37
   3  11  37   7
   3  11  37  15
   3  11   7  37
   3  12   8  33
   3  12  33  16
   3  12  33   8
   3  12  16  33
   3  13  17  34
   3  13  34   9
   3  13  34  17
   3  13   9  34
   3  14  10  24
   3  14  24  38
   3  14  24  10
   3  14  38  18
   3  14  38  24
   3  14  18  38
   3  15  19  20
   3  15  20  37
   3  15  20  19
   3  15  37  20
   3  15  37  11
   3  15  11  37
   3  16  12  33
   3  16  33  21
   3  16  33  12
   3  16  21   0
   3  16  21  33
   3  16   0  21
   3  17   1  22
   3  17  22   1
   3  17  22  34
   3  17  34  22
   3  17  34  13
   3  17  13  34
   3  18  14  38
   3  18  38   3
   3  18  38  14
   3  18   3  38
   3  19   4  20
   3  19  20   4
   3  19  20  15
   3  19  15  20
   3  20   4  19
   4  20   4   3  38
   3  20  37  15
   4  20  37  24  38
   3  20  15  19
   3  20  15  37
   3  20  19   4
   3  20  19  15
   3  21   0  16
   4  21   0   1  22
   3  21  16  33
   3  21  16   0
   3  21  33  16
   4  21  33  34  22
   3  22   1  17
   4  22   1   0  21
   3  22  34  17
   4  22  34  33  21
   3  22  17   1
   3  22  17  34
   3  23  36  43
   3  23  36  40
   3  23  43  36
   3  23  43  25
   3  23  25  26
   3  23  25  43
   3  23  26  25
   3  23  26  44
   3  23  44  26
   3  23  44  35
   3  23  35  39
   3  23  35  44
   3  23  39  35
   4  23  39  30  41
   3  23  41  42
   4  23  41  30  39
   3  23  42  41
   4  23  42  29  40
   3  23  40  36
   4  23  40  29  42
   3  24  38  14
   4  24  38  20  37
   3  24  14  10
   3  24  14  38
   3  24  10   6
   3  24  10  14
   3  24   6  31
   3  24   6  10
   3  24  31  26
   3  24  31   6
   3  24  26  31
   4  24  26  25  37
   3  25  37  32
   4  25  37  24  26
   3  25  26  23
   4  25  26  24  37
   3  25  23  43
   3  25  23  26
   3  25  43  32
   3  25  43  23
   3  25  32  37
   3  25  32  43
   3  26  23  25
   3  26  23  44
   3  26  25  23
   4  26  25  37  24
   3  26  24  31
   4  26  24  37  25
   3  26  31  44
   3  26  31  24
   3  26  44  31
   3  26  44  23
   3  27   5  36
   3  27   5   8
   3  27  36  40
   3  27  36   5
   3  27  40  33
   3  27  40  36
   3  27  33   8
   3  27  33  40
   3  27   8   5
   3  27   8  33
   3  28  34  39
   3  28  34   9
   3  28  39  35
   3  28  39  34
   3  28  35  39
   3  28  35   2
   3  28   2  35
   3  28   2   9
   3  28   9  34
   3  28   9   2
   3  29  33  40
   4  29  33  34  30
   3  29  40  33
   4  29  40  23  42
   3  30  34  39
   4  30  34  33  29
   3  30  39  34
   4  30  39  23  41
   3  31   2  35
   3  31   2   6
   3  31  35  44
   3  31  35   2
   3  31  44  26
   3  31  44  35
   3  31  26  24
   3  31  26  44
   3  31  24   6
   3  31  24  26
   3  31   6   2
   3  31   6  24
   3  32  37  25
   3  32  37   7
   3  32  25  37
   3  32  25  43
   3  32  43  36
   3  32  43  25
   3  32  36  43
   3  32  36   5
   3  32   5   7
   3  32   5  36
   3  32   7  37
   3  32   7   5
   3  33  21  16
   4  33  21  22  34
   3  33  16  12
   3  33  16  21
   3  33  12   8
   3  33  12  16
   3  33   8  27
   3  33   8  12
   3  33  27  40
   3  33  27   8
   3  33  40  29
   3  33  40  27
   3  33  29  40
   4  33  29  30  34
   3  34  22  17
   4  34  22  21  33
   3  34  30  39
   4  34  30  29  33
   3  34  39  28
   3  34  39  30
   3  34  28  39
   3  34  28   9
   3  34   9  13
   3  34   9  28
   3  34  13  17
   3  34  13   9
   3  34  17  22
   3  34  17  13
   3  35  28  39
   3  35  28   2
   3  35  39  28
   3  35  39  23
   3  35  23  44
   3  35  23  39
   3  35  44  31
   3  35  44  23
   3  35  31   2
   3  35  31  44
   3  35   2  31
   3  35   2  28
   3  36  32  43
   3  36  32   5
   3  36  43  32
   3  36  43  23
   3  36  23  43
   3  36  23  40
   3  36  40  27
   3  36  40  23
   3  36  27   5
   3  36  27  40
   3  36   5  32
   3  36   5  27
   3  37  20  15
   4  37  20  38  24
   3  37  25  32
   4  37  25  26  24
   3  37  32  25
   3  37  32   7
   3  37   7  11
   3  37   7  32
   3  37  11  15
   3  37  11   7
   3  37  15  20
   3  37  15  11
   3  38   3  18
   4  38   3   4  20
   3  38  18  14
   3  38  18   3
   3  38  14  24
   3  38  14  18
   3  38  24  14
   4  38  24  37  20
   3  39  35  28
   3  39  35  23
   3  39  28  34
   3  39  28  35
   3  39  34  30
   3  39  34  28
   3  39  30  34
   4  39  30  41  23
   3  39  23  35
   4  39  23  41  30
   3  40  29  33
   4  40  29  42  23
   3  40  33  27
   3  40  33  29
   3  40  27  36
   3  40  27  33
   3  40  36  23
   3  40  36  27
   3  40  23  36
   4  40  23  42  29
   3  41  23  42
   4  41  23  39  30
   3  41  42  23
   4  41  42  29  30
   3  42  23  41
   4  42  23  40  29
   3  42  41  23
   4  42  41  30  29
   3  43  36  32
   3  43  36  23
   3  43  32  25
   3  43  32  36
   3  43  25  23
   3  43  25  32
   3  43  23  36
   3  43  23  25
   3  44  26  23
   3  44  26  31
   3  44  31  35
   3  44  31  26
   3  44  35  23
   3  44  35  31
   3  44  23  26
   3  44  23  35
