 COFF
          53         432          53
  
  -5.2567725241967178       0.73879347463805312        3.9863113540128485       0.60000002384185791       0.60000002384185791       0.60000002384185791       0.80000001192092896     
  -5.2567725241967134      -0.73879347463805334        3.9863113540128485       0.60000002384185791       0.60000002384185791       0.60000002384185791       0.80000001192092896     
  -2.6932958313132888E-002  -1.7250886804947498        3.6500348312722473       0.60000002384185791       0.60000002384185791       0.60000002384185791       0.80000001192092896     
   5.5893232069325407      -0.71744956105045776        4.0257176623142170       0.60000002384185791       0.60000002384185791       0.60000002384185791       0.80000001192092896     
   5.5893232069325451       0.71744956105045754        4.0257176623142170       0.60000002384185791       0.60000002384185791       0.60000002384185791       0.80000001192092896     
  -2.6932958313132749E-002   1.7250886804947501        3.6500348312722473       0.60000002384185791       0.60000002384185791       0.60000002384185791       0.80000001192092896     
   1.0213289346238406       -1.3984327070501246        3.8036292464679389       0.60000002384185791       0.60000002384185791       0.60000002384185791       0.80000001192092896     
   1.0213289346238403        1.3984327070501241        3.8036292464679389       0.60000002384185791       0.60000002384185791       0.60000002384185791       0.80000001192092896     
  -1.0724863298560992        1.3901225746020478        3.7644640348191039       0.60000002384185791       0.60000002384185791       0.60000002384185791       0.80000001192092896     
  -1.0724863298560994       -1.3901225746020478        3.7644640348191039       0.60000002384185791       0.60000002384185791       0.60000002384185791       0.80000001192092896     
   1.9395986792238518       -1.0666844976687249        4.0413024269093505       0.60000002384185791       0.60000002384185791       0.60000002384185791       0.80000001192092896     
   1.9395986792238515        1.0666844976687244        4.0413024269093505       0.60000002384185791       0.60000002384185791       0.60000002384185791       0.80000001192092896     
  -2.0005223354662998        1.0935687192719226        3.9949140429054149       0.60000002384185791       0.60000002384185791       0.60000002384185791       0.80000001192092896     
  -2.0005223354663002       -1.0935687192719226        3.9949140429054149       0.60000002384185791       0.60000002384185791       0.60000002384185791       0.80000001192092896     
   3.0836540800708558      -0.91797317848901849        4.0858751319722098       0.60000002384185791       0.60000002384185791       0.60000002384185791       0.80000001192092896     
   3.0836540800708576       0.91797317848901816        4.0858751319722089       0.60000002384185791       0.60000002384185791       0.60000002384185791       0.80000001192092896     
  -3.0177594873682145       0.94274188256252422        4.0096338984153590       0.60000002384185791       0.60000002384185791       0.60000002384185791       0.80000001192092896     
  -3.0177594873682145      -0.94274188256252467        4.0096338984153599       0.60000002384185791       0.60000002384185791       0.60000002384185791       0.80000001192092896     
   4.0930376466540155      -0.81761303438326260        4.0524396608288296       0.60000002384185791       0.60000002384185791       0.60000002384185791       0.80000001192092896     
   4.0930376466540155       0.81761303438326172        4.0524396608288296       0.60000002384185791       0.60000002384185791       0.60000002384185791       0.80000001192092896     
  -4.0126485293318730       0.84127704747123211        4.0009648285150829       0.60000002384185791       0.60000002384185791       0.60000002384185791       0.80000001192092896     
  -4.0126485293318721      -0.84127704747123233        4.0009648285150829       0.60000002384185791       0.60000002384185791       0.60000002384185791       0.80000001192092896     
  -3.6687440354564163      -0.77937856893001167        3.3058765354084274       0.60000002384185791       0.60000002384185791       0.60000002384185791       0.80000001192092896     
  -4.1247018201644283E-003  -2.8907258532853881E-017   1.0535609148389919        1.0000000000000000        1.0000000000000000        0.0000000000000000        1.0000000000000000     
   2.2648631328273314      -0.94018600929189911        3.0858904961261002       0.60000002384185791       0.60000002384185791       0.60000002384185791       0.80000001192092896     
   1.4093216198039527        1.1001597929982325        2.3428307289578898       0.60000002384185791       0.60000002384185791       0.60000002384185791       0.80000001192092896     
   1.4093216198039524       -1.1001597929982330        2.3428307289578889       0.60000002384185791       0.60000002384185791       0.60000002384185791       0.80000001192092896     
  -1.0396479381882662        1.3229693360098982        2.9097172911956792       0.60000002384185791       0.60000002384185791       0.60000002384185791       0.80000001192092896     
  -1.0396479381882664       -1.3229693360098984        2.9097172911956792       0.60000002384185791       0.60000002384185791       0.60000002384185791       0.80000001192092896     
  -1.8371744877106146       0.83819056491767674        2.0626399490273672       0.60000002384185791       0.60000002384185791       0.60000002384185791       0.80000001192092896     
  -1.8371744877106144      -0.83819056491767674        2.0626399490273672       0.60000002384185791       0.60000002384185791       0.60000002384185791       0.80000001192092896     
   1.0402414374006288       -1.2971977974014288        2.7791094599728550       0.60000002384185791       0.60000002384185791       0.60000002384185791       0.80000001192092896     
   1.0402414374006297        1.2971977974014288        2.7791094599728559       0.60000002384185791       0.60000002384185791       0.60000002384185791       0.80000001192092896     
  -2.2567809051744385       0.96345258025760994        3.0306797346246808       0.60000002384185791       0.60000002384185791       0.60000002384185791       0.80000001192092896     
  -2.2567809051744394      -0.96345258025761005        3.0306797346246812       0.60000002384185791       0.60000002384185791       0.60000002384185791       0.80000001192092896     
  -1.1748783025834836E-002  -1.4160986610379602        2.6346974550598921       0.60000002384185791       0.60000002384185791       0.60000002384185791       0.80000001192092896     
  -1.1748783025834729E-002   1.4160986610379602        2.6346974550598916       0.60000002384185791       0.60000002384185791       0.60000002384185791       0.80000001192092896     
   2.2648631328273323       0.94018600929189888        3.0858904961260998       0.60000002384185791       0.60000002384185791       0.60000002384185791       0.80000001192092896     
   3.7947206731472365      -0.75558582577271838        3.3515864099072337       0.60000002384185791       0.60000002384185791       0.60000002384185791       0.80000001192092896     
 -0.53029700408355096       -1.0965543068033954        2.1345907072120007       0.60000002384185791       0.60000002384185791       0.60000002384185791       0.80000001192092896     
 -0.53029700408355107        1.0965543068033954        2.1345907072120007       0.60000002384185791       0.60000002384185791       0.60000002384185791       0.80000001192092896     
  -1.3141017151146326      -0.43964821125730186        1.3951158324287334       0.60000002384185791       0.60000002384185791       0.60000002384185791       0.80000001192092896     
  -1.3141017151146326       0.43964821125730180        1.3951158324287336       0.60000002384185791       0.60000002384185791       0.60000002384185791       0.80000001192092896     
  0.66672341606304697       0.96123123077474193        1.8755233781204601       0.60000002384185791       0.60000002384185791       0.60000002384185791       0.80000001192092896     
  0.66672341606304597      -0.96123123077474237        1.8755233781204605       0.60000002384185791       0.60000002384185791       0.60000002384185791       0.80000001192092896     
   3.7947206731472374       0.75558582577271827        3.3515864099072337       0.60000002384185791       0.60000002384185791       0.60000002384185791       0.80000001192092896     
  -3.6687440354564163       0.77937856893001167        3.3058765354084270       0.60000002384185791       0.60000002384185791       0.60000002384185791       0.80000001192092896     
   1.5926610798008896       -2.1265987290283477E-016   2.2593889002181737       0.60000002384185791       0.60000002384185791       0.60000002384185791       0.80000001192092896     
  0.91094617648633025       0.66185394136408615        1.6799707725405615       0.60000002384185791       0.60000002384185791       0.60000002384185791       0.80000001192092896     
  0.91094617648633003      -0.66185394136408648        1.6799707725405613       0.60000002384185791       0.60000002384185791       0.60000002384185791       0.80000001192092896     
  -4.1512830949874735E-002  0.87558517373297340        1.8432857158187161       0.60000002384185791       0.60000002384185791       0.60000002384185791       0.80000001192092896     
  -4.1512830949874846E-002 -0.87558517373297340        1.8432857158187161       0.60000002384185791       0.60000002384185791       0.60000002384185791       0.80000001192092896     
  0.79506186941247481       -1.2089216803813782E-016   1.6562097805127438       0.60000002384185791       0.60000002384185791       0.60000002384185791       0.80000001192092896     
  
   3   0  20  46
   3   0  46  20
   4   0  46  22   1
   3   1  22  21
   4   1  22  46   0
   3   1  21  22
   3   2  35  28
   3   2  35  31
   3   2  31  35
   3   2  31   6
   3   2   6  31
   3   2   9  28
   3   2  28  35
   3   2  28   9
   3   3  18  38
   3   3  38  18
   4   3  38  45   4
   3   4  45  19
   4   4  45  38   3
   3   4  19  45
   3   5   7  32
   3   5  32  36
   3   5  32   7
   3   5  36  32
   3   5  36  27
   3   5  27  36
   3   5  27   8
   3   5   8  27
   3   6   2  31
   3   6  31   2
   3   6  31  24
   3   6  24  10
   3   6  24  31
   3   6  10  24
   3   7  11  37
   3   7  37  32
   3   7  37  11
   3   7  32  37
   3   7  32   5
   3   7   5  32
   3   8   5  27
   3   8  27   5
   3   8  27  33
   3   8  33  12
   3   8  33  27
   3   8  12  33
   3   9  13  34
   3   9  34  28
   3   9  34  13
   3   9  28  34
   3   9  28   2
   3   9   2  28
   3  10   6  24
   3  10  24  14
   3  10  24   6
   3  10  14  24
   3  11  15  37
   3  11  37   7
   3  11  37  15
   3  11   7  37
   3  12   8  33
   3  12  33  16
   3  12  33   8
   3  12  16  33
   3  13  17  34
   3  13  34   9
   3  13  34  17
   3  13   9  34
   3  14  10  24
   3  14  24  38
   3  14  24  10
   3  14  38  18
   3  14  38  24
   3  14  18  38
   3  15  19  45
   3  15  45  37
   3  15  45  19
   3  15  37  45
   3  15  37  11
   3  15  11  37
   3  16  12  33
   3  16  33  46
   3  16  33  12
   3  16  46  20
   3  16  46  33
   3  16  20  46
   3  17  21  22
   3  17  22  34
   3  17  22  21
   3  17  34  22
   3  17  34  13
   3  17  13  34
   3  18  14  38
   3  18  38   3
   3  18  38  14
   3  18   3  38
   3  19   4  45
   3  19  45   4
   3  19  45  15
   3  19  15  45
   3  20  16  46
   3  20  46   0
   3  20  46  16
   3  20   0  46
   3  21   1  22
   3  21  22   1
   3  21  22  17
   3  21  17  22
   3  22   1  21
   4  22   1   0  46
   3  22  34  17
   4  22  34  33  46
   3  22  17  21
   3  22  17  34
   3  22  21   1
   3  22  21  17
   3  23  50  40
   3  23  50  43
   3  23  43  48
   3  23  43  50
   3  23  48  43
   3  23  48  52
   3  23  52  48
   3  23  52  49
   3  23  49  44
   3  23  49  52
   3  23  44  51
   3  23  44  49
   3  23  51  44
   3  23  51  39
   3  23  39  51
   4  23  39  35  44
   3  23  41  42
   4  23  41  30  39
   3  23  42  41
   4  23  42  29  40
   3  23  40  50
   4  23  40  29  42
   3  24  38  14
   4  24  38  45  37
   3  24  14  10
   3  24  14  38
   3  24  10   6
   3  24  10  14
   3  24   6  31
   3  24   6  10
   3  24  31  26
   3  24  31   6
   3  24  26  47
   3  24  26  31
   3  24  47  37
   3  24  47  26
   3  24  37  47
   4  24  37  45  38
   3  25  37  47
   3  25  37  32
   3  25  47  37
   3  25  47  48
   3  25  48  43
   3  25  48  47
   3  25  43  32
   3  25  43  48
   3  25  32  37
   3  25  32  43
   3  26  49  47
   3  26  49  44
   3  26  47  24
   3  26  47  49
   3  26  24  31
   3  26  24  47
   3  26  31  44
   3  26  31  24
   3  26  44  31
   3  26  44  49
   3  27   5  36
   3  27   5   8
   3  27  36  40
   3  27  36   5
   3  27  40  33
   3  27  40  36
   3  27  33   8
   3  27  33  40
   3  27   8   5
   3  27   8  33
   3  28  34  39
   3  28  34   9
   3  28  39  35
   3  28  39  34
   3  28  35  39
   3  28  35   2
   3  28   2  35
   3  28   2   9
   3  28   9  34
   3  28   9   2
   3  29  33  40
   4  29  33  34  30
   3  29  40  33
   4  29  40  23  42
   3  30  34  39
   4  30  34  33  29
   3  30  39  34
   4  30  39  23  41
   3  31   2  35
   3  31   2   6
   3  31  35  44
   3  31  35   2
   3  31  44  26
   3  31  44  35
   3  31  26  24
   3  31  26  44
   3  31  24   6
   3  31  24  26
   3  31   6   2
   3  31   6  24
   3  32  37  25
   3  32  37   7
   3  32  25  37
   3  32  25  43
   3  32  43  36
   3  32  43  25
   3  32  36  43
   3  32  36   5
   3  32   5   7
   3  32   5  36
   3  32   7  37
   3  32   7   5
   3  33  46  16
   4  33  46  22  34
   3  33  16  12
   3  33  16  46
   3  33  12   8
   3  33  12  16
   3  33   8  27
   3  33   8  12
   3  33  27  40
   3  33  27   8
   3  33  40  29
   3  33  40  27
   3  33  29  40
   4  33  29  30  34
   3  34  22  17
   4  34  22  46  33
   3  34  30  39
   4  34  30  29  33
   3  34  39  28
   3  34  39  30
   3  34  28  39
   3  34  28   9
   3  34   9  13
   3  34   9  28
   3  34  13  17
   3  34  13   9
   3  34  17  22
   3  34  17  13
   3  35  28  39
   3  35  28   2
   3  35  39  28
   3  35  39  51
   3  35  51  44
   3  35  51  39
   3  35  44  31
   3  35  44  51
   3  35  31   2
   3  35  31  44
   3  35   2  31
   3  35   2  28
   3  36  32  43
   3  36  32   5
   3  36  43  32
   3  36  43  50
   3  36  50  40
   3  36  50  43
   3  36  40  27
   3  36  40  50
   3  36  27   5
   3  36  27  40
   3  36   5  32
   3  36   5  27
   3  37  45  15
   4  37  45  38  24
   3  37  24  47
   4  37  24  38  45
   3  37  47  24
   3  37  47  25
   3  37  25  47
   3  37  25  32
   3  37  32  25
   3  37  32   7
   3  37   7  11
   3  37   7  32
   3  37  11  15
   3  37  11   7
   3  37  15  45
   3  37  15  11
   3  38   3  18
   4  38   3   4  45
   3  38  18  14
   3  38  18   3
   3  38  14  24
   3  38  14  18
   3  38  24  14
   4  38  24  37  45
   3  39  35  28
   3  39  35  51
   3  39  28  34
   3  39  28  35
   3  39  34  30
   3  39  34  28
   3  39  30  34
   4  39  30  41  23
   3  39  23  51
   4  39  23  44  35
   3  39  51  35
   3  39  51  23
   3  40  29  33
   4  40  29  42  23
   3  40  33  27
   3  40  33  29
   3  40  27  36
   3  40  27  33
   3  40  36  50
   3  40  36  27
   3  40  50  36
   3  40  50  23
   3  40  23  50
   4  40  23  43  36
   3  41  23  42
   4  41  23  39  30
   3  41  42  23
   4  41  42  29  30
   3  42  23  41
   4  42  23  40  29
   3  42  41  23
   4  42  41  30  29
   3  43  36  32
   3  43  36  50
   3  43  32  25
   3  43  32  36
   3  43  25  48
   3  43  25  32
   3  43  48  25
   3  43  48  23
   3  43  23  50
   3  43  23  48
   3  43  50  36
   3  43  50  23
   3  44  26  49
   3  44  26  31
   3  44  31  35
   3  44  31  26
   3  44  35  51
   3  44  35  31
   3  44  51  35
   3  44  51  23
   3  44  23  49
   3  44  23  51
   3  44  49  26
   3  44  49  23
   3  45   4  19
   4  45   4   3  38
   3  45  37  15
   4  45  37  24  38
   3  45  15  19
   3  45  15  37
   3  45  19   4
   3  45  19  15
   3  46   0  20
   4  46   0   1  22
   3  46  20  16
   3  46  20   0
   3  46  16  33
   3  46  16  20
   3  46  33  16
   4  46  33  34  22
   3  47  37  24
   3  47  37  25
   3  47  24  26
   3  47  24  37
   3  47  26  49
   3  47  26  24
   3  47  49  26
   3  47  49  52
   3  47  52  48
   3  47  52  49
   3  47  48  25
   3  47  48  52
   3  47  25  37
   3  47  25  48
   3  48  43  25
   3  48  43  23
   3  48  25  47
   3  48  25  43
   3  48  47  52
   3  48  47  25
   3  48  52  47
   3  48  52  23
   3  48  23  43
   3  48  23  52
   3  49  47  26
   3  49  47  52
   3  49  26  47
   3  49  26  44
   3  49  44  26
   3  49  44  23
   3  49  23  52
   3  49  23  44
   3  49  52  47
   3  49  52  23
   3  50  40  36
   3  50  40  23
   3  50  36  43
   3  50  36  40
   3  50  43  36
   3  50  43  23
   3  50  23  43
   3  50  23  40
   3  51  44  35
   3  51  44  23
   3  51  35  39
   3  51  35  44
   3  51  39  35
   3  51  39  23
   3  51  23  44
   3  51  23  39
   3  52  48  47
   3  52  48  23
   3  52  47  49
   3  52  47  48
   3  52  49  47
   3  52  49  23
   3  52  23  48
   3  52  23  49
