 COFF
          56         452          56
  
  -5.5241310578472520       0.75512196316522129        4.3778234985747213       0.60000002384185791       0.60000002384185791       0.60000002384185791       0.80000001192092896     
  -5.5241310578472467      -0.75512196316522151        4.3778234985747213       0.60000002384185791       0.60000002384185791       0.60000002384185791       0.80000001192092896     
  -2.7147209989225932E-002  -1.7862420145189364        3.9964243028132076       0.60000002384185791       0.60000002384185791       0.60000002384185791       0.80000001192092896     
   5.8471315957547869      -0.73072520994781720        4.4228062021226151       0.60000002384185791       0.60000002384185791       0.60000002384185791       0.80000001192092896     
   5.8471315957547931       0.73072520994781687        4.4228062021226151       0.60000002384185791       0.60000002384185791       0.60000002384185791       0.80000001192092896     
  -2.7147209989225769E-002   1.7862420145189366        3.9964243028132076       0.60000002384185791       0.60000002384185791       0.60000002384185791       0.80000001192092896     
   1.0374666198997102       -1.4456309213660745        4.1636781456410228       0.60000002384185791       0.60000002384185791       0.60000002384185791       0.80000001192092896     
   1.0374666198997100        1.4456309213660741        4.1636781456410228       0.60000002384185791       0.60000002384185791       0.60000002384185791       0.80000001192092896     
  -1.0885593719688984        1.4396655699153547        4.1219285864395729       0.60000002384185791       0.60000002384185791       0.60000002384185791       0.80000001192092896     
  -1.0885593719688986       -1.4396655699153547        4.1219285864395729       0.60000002384185791       0.60000002384185791       0.60000002384185791       0.80000001192092896     
   1.9483984756111099       -1.1021662616818517        4.4189086390340329       0.60000002384185791       0.60000002384185791       0.60000002384185791       0.80000001192092896     
   1.9483984756111097        1.1021662616818513        4.4189086390340329       0.60000002384185791       0.60000002384185791       0.60000002384185791       0.80000001192092896     
  -2.0099459033987466        1.1333828037451978        4.3673156280852305       0.60000002384185791       0.60000002384185791       0.60000002384185791       0.80000001192092896     
  -2.0099459033987470       -1.1333828037451978        4.3673156280852305       0.60000002384185791       0.60000002384185791       0.60000002384185791       0.80000001192092896     
   3.0793285737315848      -0.95041319824102066        4.4735715377916865       0.60000002384185791       0.60000002384185791       0.60000002384185791       0.80000001192092896     
   3.0793285737315856       0.95041319824102033        4.4735715377916847       0.60000002384185791       0.60000002384185791       0.60000002384185791       0.80000001192092896     
  -3.0219476930786771       0.97898691376812397        4.3878235462586970       0.60000002384185791       0.60000002384185791       0.60000002384185791       0.80000001192092896     
  -3.0219476930786771      -0.97898691376812441        4.3878235462586987       0.60000002384185791       0.60000002384185791       0.60000002384185791       0.80000001192092896     
   4.0713079662678586      -0.84111376507721369        4.4646686468940269       0.60000002384185791       0.60000002384185791       0.60000002384185791       0.80000001192092896     
   4.0713079662678586       0.84111376507721280        4.4646686468940269       0.60000002384185791       0.60000002384185791       0.60000002384185791       0.80000001192092896     
  -4.0156799142274267       0.86640222321227067        4.3909054101145468       0.60000002384185791       0.60000002384185791       0.60000002384185791       0.80000001192092896     
  -4.0156799142274258      -0.86640222321227101        4.3909054101145468       0.60000002384185791       0.60000002384185791       0.60000002384185791       0.80000001192092896     
  -3.8063248082918730      -0.80456124317959732        3.7036676367613008       0.60000002384185791       0.60000002384185791       0.60000002384185791       0.80000001192092896     
   8.1281419592007347E-003  -4.6337442956137288E-017   1.0535609148389919        1.0000000000000000        1.0000000000000000        0.0000000000000000        1.0000000000000000     
   2.3178950309200257      -0.97037440249406481        3.4296691690208578       0.60000002384185791       0.60000002384185791       0.60000002384185791       0.80000001192092896     
   1.5093779323127547        1.1735519516458472        2.6590598016891325       0.60000002384185791       0.60000002384185791       0.60000002384185791       0.80000001192092896     
   1.5093779323127543       -1.1735519516458477        2.6590598016891325       0.60000002384185791       0.60000002384185791       0.60000002384185791       0.80000001192092896     
  -1.0972273120120586        1.3854048648767532        3.2676993038036306       0.60000002384185791       0.60000002384185791       0.60000002384185791       0.80000001192092896     
  -1.0972273120120588       -1.3854048648767532        3.2676993038036306       0.60000002384185791       0.60000002384185791       0.60000002384185791       0.80000001192092896     
  -1.8595566434056283       0.85909484277233839        2.3266745809932998       0.60000002384185791       0.60000002384185791       0.60000002384185791       0.80000001192092896     
  -1.8595566434056283      -0.85909484277233861        2.3266745809932994       0.60000002384185791       0.60000002384185791       0.60000002384185791       0.80000001192092896     
   1.1011948616551468       -1.3668243959200164        3.1407149815159681       0.60000002384185791       0.60000002384185791       0.60000002384185791       0.80000001192092896     
   1.1011948616551472        1.3668243959200164        3.1407149815159690       0.60000002384185791       0.60000002384185791       0.60000002384185791       0.80000001192092896     
  -2.3094645991921858        1.0112116517539631        3.3732637118277080       0.60000002384185791       0.60000002384185791       0.60000002384185791       0.80000001192092896     
  -2.3094645991921863       -1.0112116517539631        3.3732637118277098       0.60000002384185791       0.60000002384185791       0.60000002384185791       0.80000001192092896     
  -1.0355545260249635E-003  -1.4998217208236957        2.9266390864142160       0.60000002384185791       0.60000002384185791       0.60000002384185791       0.80000001192092896     
  -1.0355545260248213E-003   1.4998217208236959        2.9266390864142156       0.60000002384185791       0.60000002384185791       0.60000002384185791       0.80000001192092896     
   2.3178950309200261       0.97037440249406470        3.4296691690208565       0.60000002384185791       0.60000002384185791       0.60000002384185791       0.80000001192092896     
   3.9179963848763184      -0.78146650236206738        3.7573906993931452       0.60000002384185791       0.60000002384185791       0.60000002384185791       0.80000001192092896     
 -0.58521312730397712       -1.2590127558041306        2.4180719141071383       0.60000002384185791       0.60000002384185791       0.60000002384185791       0.80000001192092896     
 -0.58521312730397723        1.2590127558041306        2.4180719141071383       0.60000002384185791       0.60000002384185791       0.60000002384185791       0.80000001192092896     
  -1.5342053966491518      -0.60263161231134332        1.4836867930697357       0.60000002384185791       0.60000002384185791       0.60000002384185791       0.80000001192092896     
  -1.5342053966491520       0.60263161231134299        1.4836867930697359       0.60000002384185791       0.60000002384185791       0.60000002384185791       0.80000001192092896     
  0.79230047853141361        1.1826108986807280        2.1341106988388181       0.60000002384185791       0.60000002384185791       0.60000002384185791       0.80000001192092896     
  0.79230047853141283       -1.1826108986807282        2.1341106988388185       0.60000002384185791       0.60000002384185791       0.60000002384185791       0.80000001192092896     
   3.9179963848763193       0.78146650236206705        3.7573906993931452       0.60000002384185791       0.60000002384185791       0.60000002384185791       0.80000001192092896     
  -3.8063248082918730       0.80456124317959732        3.7036676367613004       0.60000002384185791       0.60000002384185791       0.60000002384185791       0.80000001192092896     
   1.7734412082634610       -1.0454601638727528E-016   2.5421789365549703       0.60000002384185791       0.60000002384185791       0.60000002384185791       0.80000001192092896     
   1.1348379817918746       0.79627827706202670        1.8927668984908996       0.60000002384185791       0.60000002384185791       0.60000002384185791       0.80000001192092896     
   1.1348379817918743      -0.79627827706202681        1.8927668984908994       0.60000002384185791       0.60000002384185791       0.60000002384185791       0.80000001192092896     
  -1.6135533292923200E-002   1.1752334327703271        2.0635827399732802       0.60000002384185791       0.60000002384185791       0.60000002384185791       0.80000001192092896     
  -1.6135533292923346E-002  -1.1752334327703271        2.0635827399732802       0.60000002384185791       0.60000002384185791       0.60000002384185791       0.80000001192092896     
   1.1834592348761936       -1.5838061833574805E-016   1.7703482341069228       0.60000002384185791       0.60000002384185791       0.60000002384185791       0.80000001192092896     
   4.9825559195566429      -0.74991758553700927        3.9942043966415381       0.60000002384185791       0.60000002384185791       0.60000002384185791       0.80000001192092896     
   4.9825559195566429       0.74991758553700860        3.9942043966415377       0.60000002384185791       0.60000002384185791       0.60000002384185791       0.80000001192092896     
  -2.3745687017283288       -5.6131292806440514E-017   3.3136995234057434       0.60000002384185791       0.60000002384185791       0.60000002384185791       0.80000001192092896     
  
   3   0  20  46
   3   0  46  20
   4   0  46  22   1
   3   1  22  21
   4   1  22  46   0
   3   1  21  22
   3   2  35  28
   3   2  35  31
   3   2  31  35
   3   2  31   6
   3   2   6  31
   3   2   9  28
   3   2  28  35
   3   2  28   9
   3   5   7  32
   3   5  32  36
   3   5  32   7
   3   5  36  32
   3   5  36  27
   3   5  27  36
   3   5  27   8
   3   5   8  27
   3   6   2  31
   3   6  31   2
   3   6  31  24
   3   6  24  10
   3   6  24  31
   3   6  10  24
   3   7  11  37
   3   7  37  32
   3   7  37  11
   3   7  32  37
   3   7  32   5
   3   7   5  32
   3   8   5  27
   3   8  27   5
   3   8  27  33
   3   8  33  12
   3   8  33  27
   3   8  12  33
   3   9  13  34
   3   9  34  28
   3   9  34  13
   3   9  28  34
   3   9  28   2
   3   9   2  28
   3  10   6  24
   3  10  24  14
   3  10  24   6
   3  10  14  24
   3  11  15  37
   3  11  37   7
   3  11  37  15
   3  11   7  37
   3  12   8  33
   3  12  33  16
   3  12  33   8
   3  12  16  33
   3  13  17  34
   3  13  34   9
   3  13  34  17
   3  13   9  34
   3  14  10  24
   3  14  24  38
   3  14  24  10
   3  14  38  18
   3  14  38  24
   3  14  18  38
   3  15  19  45
   3  15  45  37
   3  15  45  19
   3  15  37  45
   3  15  37  11
   3  15  11  37
   3  16  12  33
   3  16  33  46
   3  16  33  12
   3  16  46  20
   3  16  46  33
   3  16  20  46
   3  17  21  22
   3  17  22  34
   3  17  22  21
   3  17  34  22
   3  17  34  13
   3  17  13  34
   3  18  14  38
   3  18  38  14
   4  18  38  53   3
   3  19  45  15
   4  19  45  54   4
   3  19  15  45
   3  20  16  46
   3  20  46   0
   3  20  46  16
   3  20   0  46
   3  21   1  22
   3  21  22   1
   3  21  22  17
   3  21  17  22
   3  22   1  21
   4  22   1   0  46
   3  22  46  55
   4  22  46   0   1
   3  22  55  34
   3  22  55  46
   3  22  34  55
   3  22  34  17
   3  22  17  21
   3  22  17  34
   3  22  21   1
   3  22  21  17
   3  23  50  40
   3  23  50  43
   3  23  43  48
   3  23  43  50
   3  23  48  43
   3  23  48  52
   3  23  52  48
   3  23  52  49
   3  23  49  44
   3  23  49  52
   3  23  44  51
   3  23  44  49
   3  23  51  44
   3  23  51  39
   3  23  39  51
   4  23  39  35  44
   3  23  41  42
   4  23  41  30  39
   3  23  42  41
   4  23  42  29  40
   3  23  40  50
   4  23  40  29  42
   3  24  38  14
   4  24  38  45  37
   3  24  14  10
   3  24  14  38
   3  24  10   6
   3  24  10  14
   3  24   6  31
   3  24   6  10
   3  24  31  26
   3  24  31   6
   3  24  26  47
   3  24  26  31
   3  24  47  37
   3  24  47  26
   3  24  37  47
   4  24  37  45  38
   3  25  37  47
   3  25  37  32
   3  25  47  37
   3  25  47  48
   3  25  48  43
   3  25  48  47
   3  25  43  32
   3  25  43  48
   3  25  32  37
   3  25  32  43
   3  26  49  47
   3  26  49  44
   3  26  47  24
   3  26  47  49
   3  26  24  31
   3  26  24  47
   3  26  31  44
   3  26  31  24
   3  26  44  31
   3  26  44  49
   3  27   5  36
   3  27   5   8
   3  27  36  40
   3  27  36   5
   3  27  40  33
   3  27  40  36
   3  27  33   8
   3  27  33  40
   3  27   8   5
   3  27   8  33
   3  28  34  39
   3  28  34   9
   3  28  39  35
   3  28  39  34
   3  28  35  39
   3  28  35   2
   3  28   2  35
   3  28   2   9
   3  28   9  34
   3  28   9   2
   3  29  33  40
   3  29  33  55
   3  29  40  33
   4  29  40  23  42
   3  29  30  55
   4  29  30  41  42
   3  29  55  30
   3  29  55  33
   3  30  34  55
   3  30  34  39
   3  30  55  29
   3  30  55  34
   3  30  29  55
   4  30  29  42  41
   3  30  39  34
   4  30  39  23  41
   3  31   2  35
   3  31   2   6
   3  31  35  44
   3  31  35   2
   3  31  44  26
   3  31  44  35
   3  31  26  24
   3  31  26  44
   3  31  24   6
   3  31  24  26
   3  31   6   2
   3  31   6  24
   3  32  37  25
   3  32  37   7
   3  32  25  37
   3  32  25  43
   3  32  43  36
   3  32  43  25
   3  32  36  43
   3  32  36   5
   3  32   5   7
   3  32   5  36
   3  32   7  37
   3  32   7   5
   3  33  46  16
   3  33  46  55
   3  33  16  12
   3  33  16  46
   3  33  12   8
   3  33  12  16
   3  33   8  27
   3  33   8  12
   3  33  27  40
   3  33  27   8
   3  33  40  29
   3  33  40  27
   3  33  29  40
   3  33  29  55
   3  33  55  29
   3  33  55  46
   3  34  22  55
   3  34  22  17
   3  34  55  30
   3  34  55  22
   3  34  30  55
   3  34  30  39
   3  34  39  28
   3  34  39  30
   3  34  28  39
   3  34  28   9
   3  34   9  13
   3  34   9  28
   3  34  13  17
   3  34  13   9
   3  34  17  22
   3  34  17  13
   3  35  28  39
   3  35  28   2
   3  35  39  28
   3  35  39  51
   3  35  51  44
   3  35  51  39
   3  35  44  31
   3  35  44  51
   3  35  31   2
   3  35  31  44
   3  35   2  31
   3  35   2  28
   3  36  32  43
   3  36  32   5
   3  36  43  32
   3  36  43  50
   3  36  50  40
   3  36  50  43
   3  36  40  27
   3  36  40  50
   3  36  27   5
   3  36  27  40
   3  36   5  32
   3  36   5  27
   3  37  45  15
   4  37  45  38  24
   3  37  24  47
   4  37  24  38  45
   3  37  47  24
   3  37  47  25
   3  37  25  47
   3  37  25  32
   3  37  32  25
   3  37  32   7
   3  37   7  11
   3  37   7  32
   3  37  11  15
   3  37  11   7
   3  37  15  45
   3  37  15  11
   3  38  18  14
   4  38  18   3  53
   3  38  14  24
   3  38  14  18
   3  38  24  14
   4  38  24  37  45
   3  39  35  28
   3  39  35  51
   3  39  28  34
   3  39  28  35
   3  39  34  30
   3  39  34  28
   3  39  30  34
   4  39  30  41  23
   3  39  23  51
   4  39  23  44  35
   3  39  51  35
   3  39  51  23
   3  40  29  33
   4  40  29  42  23
   3  40  33  27
   3  40  33  29
   3  40  27  36
   3  40  27  33
   3  40  36  50
   3  40  36  27
   3  40  50  36
   3  40  50  23
   3  40  23  50
   4  40  23  43  36
   3  41  23  42
   4  41  23  39  30
   3  41  42  23
   4  41  42  29  30
   3  42  23  41
   4  42  23  40  29
   3  42  41  23
   4  42  41  30  29
   3  43  36  32
   3  43  36  50
   3  43  32  25
   3  43  32  36
   3  43  25  48
   3  43  25  32
   3  43  48  25
   3  43  48  23
   3  43  23  50
   3  43  23  48
   3  43  50  36
   3  43  50  23
   3  44  26  49
   3  44  26  31
   3  44  31  35
   3  44  31  26
   3  44  35  51
   3  44  35  31
   3  44  51  35
   3  44  51  23
   3  44  23  49
   3  44  23  51
   3  44  49  26
   3  44  49  23
   3  45  37  15
   4  45  37  24  38
   3  45  15  19
   3  45  15  37
   3  45  19  15
   4  45  19   4  54
   3  46   0  20
   4  46   0   1  22
   3  46  20  16
   3  46  20   0
   3  46  16  33
   3  46  16  20
   3  46  33  16
   3  46  33  55
   3  46  55  22
   3  46  55  33
   3  46  22  55
   4  46  22   1   0
   3  47  37  24
   3  47  37  25
   3  47  24  26
   3  47  24  37
   3  47  26  49
   3  47  26  24
   3  47  49  26
   3  47  49  52
   3  47  52  48
   3  47  52  49
   3  47  48  25
   3  47  48  52
   3  47  25  37
   3  47  25  48
   3  48  43  25
   3  48  43  23
   3  48  25  47
   3  48  25  43
   3  48  47  52
   3  48  47  25
   3  48  52  47
   3  48  52  23
   3  48  23  43
   3  48  23  52
   3  49  47  26
   3  49  47  52
   3  49  26  47
   3  49  26  44
   3  49  44  26
   3  49  44  23
   3  49  23  52
   3  49  23  44
   3  49  52  47
   3  49  52  23
   3  50  40  36
   3  50  40  23
   3  50  36  43
   3  50  36  40
   3  50  43  36
   3  50  43  23
   3  50  23  43
   3  50  23  40
   3  51  44  35
   3  51  44  23
   3  51  35  39
   3  51  35  44
   3  51  39  35
   3  51  39  23
   3  51  23  44
   3  51  23  39
   3  52  48  47
   3  52  48  23
   3  52  47  49
   3  52  47  48
   3  52  49  47
   3  52  49  23
   3  52  23  48
   3  52  23  49
   3  55  29  33
   3  55  29  30
   3  55  30  34
   3  55  30  29
   3  55  34  22
   3  55  34  30
   3  55  22  46
   3  55  22  34
   3  55  46  33
   3  55  46  22
   3  55  33  46
   3  55  33  29
