# Generated by dad_to_polygons. Vertex data from Humppa's .off file,
# polygons parsed from .dad file.
COFF
63 200 63
-5.768349 0.770126 4.770789 0.500000 0.500000 0.500000 1.0
-5.768349 -0.770126 4.770789 0.500000 0.500000 0.500000 1.0
-0.027281 -1.841636 4.347093 0.500000 0.500000 0.500000 1.0
6.392515 -0.759255 4.797328 0.500000 0.500000 0.500000 1.0
6.392515 0.759255 4.797328 0.500000 0.500000 0.500000 1.0
-0.027281 1.841636 4.347093 0.500000 0.500000 0.500000 1.0
1.052499 -1.488203 4.527263 0.500000 0.500000 0.500000 1.0
1.052499 1.488203 4.527263 0.500000 0.500000 0.500000 1.0
-1.103576 1.484750 4.482702 0.500000 0.500000 0.500000 1.0
-1.103576 -1.484750 4.482702 0.500000 0.500000 0.500000 1.0
1.956753 -1.134696 4.798617 0.500000 0.500000 0.500000 1.0
1.956753 1.134696 4.798617 0.500000 0.500000 0.500000 1.0
-2.018964 1.170277 4.741668 0.500000 0.500000 0.500000 1.0
-2.018964 -1.170277 4.741668 0.500000 0.500000 0.500000 1.0
3.064246 -0.983674 4.860346 0.500000 0.500000 0.500000 1.0
3.064246 0.983674 4.860346 0.500000 0.500000 0.500000 1.0
-3.026146 1.013214 4.766947 0.500000 0.500000 0.500000 1.0
-3.026146 -1.013214 4.766947 0.500000 0.500000 0.500000 1.0
4.056567 -0.866395 4.879113 0.500000 0.500000 0.500000 1.0
4.056567 0.866395 4.879113 0.500000 0.500000 0.500000 1.0
-4.018491 0.889830 4.781959 0.500000 0.500000 0.500000 1.0
-4.018491 -0.889830 4.781959 0.500000 0.500000 0.500000 1.0
5.061204 -0.821339 4.830228 0.500000 0.500000 0.500000 1.0
5.061204 0.821339 4.830228 0.500000 0.500000 0.500000 1.0
2.355390 -1.002995 3.779414 0.500000 0.500000 0.500000 1.0
1.587123 1.224323 2.979890 0.500000 0.500000 0.500000 1.0
1.587123 -1.224323 2.979890 0.500000 0.500000 0.500000 1.0
-1.141977 1.437686 3.619387 0.500000 0.500000 0.500000 1.0
-1.141977 -1.437686 3.619387 0.500000 0.500000 0.500000 1.0
-1.898668 0.781302 2.621866 0.500000 0.500000 0.500000 1.0
-1.898668 -0.781302 2.621866 0.500000 0.500000 0.500000 1.0
1.144679 -1.413732 3.484762 0.500000 0.500000 0.500000 1.0
1.144679 1.413732 3.484762 0.500000 0.500000 0.500000 1.0
-2.355714 1.064844 3.724909 0.500000 0.500000 0.500000 1.0
-2.355714 -1.064844 3.724909 0.500000 0.500000 0.500000 1.0
0.003393 -1.567470 3.226328 0.500000 0.500000 0.500000 1.0
0.003393 1.567470 3.226328 0.500000 0.500000 0.500000 1.0
2.355390 1.002995 3.779414 0.500000 0.500000 0.500000 1.0
4.003605 -0.816694 4.148566 0.500000 0.500000 0.500000 1.0
-0.694349 -1.359937 2.722505 0.500000 0.500000 0.500000 1.0
-0.694349 1.359937 2.722505 0.500000 0.500000 0.500000 1.0
-1.518030 -0.659824 1.623126 0.500000 0.500000 0.500000 1.0
-1.518030 0.659824 1.623126 0.500000 0.500000 0.500000 1.0
0.899662 1.304224 2.423020 0.500000 0.500000 0.500000 1.0
0.899662 -1.304224 2.423020 0.500000 0.500000 0.500000 1.0
4.003605 0.816694 4.148566 0.500000 0.500000 0.500000 1.0
-3.928212 0.845800 4.119727 0.500000 0.500000 0.500000 1.0
1.888423 0.000000 2.847253 0.500000 0.500000 0.500000 1.0
1.269494 0.903346 2.147723 0.500000 0.500000 0.500000 1.0
1.269494 -0.903346 2.147723 0.500000 0.500000 0.500000 1.0
0.028911 1.339845 2.309560 0.500000 0.500000 0.500000 1.0
0.028911 -1.339845 2.309560 0.500000 0.500000 0.500000 1.0
1.420276 0.000000 2.009871 0.500000 0.500000 0.500000 1.0
5.120147 -0.750274 4.035226 1.0 1.0 0.0 1.0
5.120147 0.750274 4.035226 1.0 1.0 0.0 1.0
-2.636918 -0.000000 3.434285 0.500000 0.500000 0.500000 1.0
-0.330915 -0.932705 1.935498 0.500000 0.500000 0.500000 1.0
-0.330915 0.932705 1.935498 0.500000 0.500000 0.500000 1.0
-3.928212 -0.845800 4.119727 0.500000 0.500000 0.500000 1.0
0.037765 -0.000000 1.053561 1.0 1.0 0.0 1.0
0.534837 0.737191 1.716149 0.500000 0.500000 0.500000 1.0
0.534837 -0.737191 1.716149 0.500000 0.500000 0.500000 1.0
2.378391 -0.000000 3.762182 0.500000 0.500000 0.500000 1.0
3 0 1 58
3 0 58 1
3 0 58 46
3 0 46 58
3 2 28 35
3 2 35 28
3 2 31 6
3 2 6 31
3 2 31 35
3 2 35 31
3 3 4 54
3 3 54 4
3 3 54 53
3 3 53 54
3 5 7 32
3 5 32 7
3 5 32 36
3 5 36 32
3 6 10 24
3 6 24 10
3 7 11 37
3 7 37 11
3 8 27 33
3 8 33 27
3 9 28 2
3 9 2 28
3 11 15 37
3 11 37 15
3 12 33 8
3 12 8 33
3 13 34 9
3 13 9 34
3 14 10 24
3 14 24 10
3 14 38 18
3 14 18 38
3 15 19 45
3 15 45 19
3 16 12 33
3 16 33 12
3 17 13 34
3 17 34 13
3 17 58 34
3 17 34 58
3 19 23 45
3 19 45 23
3 20 46 0
3 20 0 46
3 21 1 58
3 21 58 1
3 21 17 58
3 21 58 17
3 22 18 38
3 22 38 18
3 23 45 54
3 23 54 45
3 24 6 31
3 24 31 6
3 24 38 14
3 24 14 38
3 24 47 62
3 24 62 47
3 24 62 38
3 24 38 62
3 25 32 43
3 25 43 32
3 25 37 32
3 25 32 37
3 25 48 47
3 25 47 48
3 26 24 31
3 26 31 24
3 26 24 47
3 26 47 24
3 26 44 31
3 26 31 44
3 27 5 8
3 27 8 5
3 27 5 36
3 27 36 5
3 27 33 40
3 27 40 33
3 27 40 36
3 27 36 40
3 28 34 39
3 28 39 34
3 28 35 39
3 28 39 35
3 29 40 57
3 29 57 40
3 29 42 57
3 29 57 42
3 29 55 33
3 29 33 55
3 30 34 55
3 30 55 34
3 30 39 34
3 30 34 39
3 30 41 42
3 30 42 41
3 30 41 56
3 30 56 41
3 30 42 29
3 30 29 42
3 30 55 29
3 30 29 55
3 30 56 39
3 30 39 56
3 31 35 44
3 31 44 35
3 33 46 16
3 33 16 46
3 33 55 46
3 33 46 55
3 34 9 28
3 34 28 9
3 34 55 58
3 34 58 55
3 35 44 51
3 35 51 44
3 35 51 39
3 35 39 51
3 36 43 50
3 36 50 43
3 37 7 32
3 37 32 7
3 37 45 15
3 37 15 45
3 37 47 25
3 37 25 47
3 37 62 45
3 37 45 62
3 40 29 33
3 40 33 29
3 42 41 59
3 42 59 41
3 43 25 48
3 43 48 25
3 43 32 36
3 43 36 32
3 43 60 50
3 43 50 60
3 45 53 38
3 45 38 53
3 45 54 53
3 45 53 54
3 46 16 20
3 46 20 16
3 46 58 55
3 46 55 58
3 47 52 48
3 47 48 52
3 47 62 37
3 47 37 62
3 48 52 59
3 48 59 52
3 48 59 60
3 48 60 59
3 48 60 43
3 48 43 60
3 49 26 44
3 49 44 26
3 49 26 47
3 49 47 26
3 49 47 52
3 49 52 47
3 49 59 52
3 49 52 59
3 50 40 36
3 50 36 40
3 50 40 57
3 50 57 40
3 51 56 39
3 51 39 56
3 51 59 61
3 51 61 59
3 53 3 22
3 53 22 3
3 53 22 38
3 53 38 22
3 54 23 4
3 54 4 23
3 56 41 59
3 56 59 41
3 56 59 51
3 56 51 59
3 57 59 42
3 57 42 59
3 57 59 50
3 57 50 59
3 59 61 49
3 59 49 61
3 60 50 59
3 60 59 50
3 61 49 44
3 61 44 49
3 61 51 44
3 61 44 51
3 62 38 45
3 62 45 38
