 COFF
           7          36           7
  
  -1.3227601049989721       0.51928291077652822        1.3889061581554365       0.60000002384185791       0.60000002384185791       0.60000002384185791       0.80000001192092896     
  -1.3227601049989721      -0.51928291077652822        1.3889061581554365       0.60000002384185791       0.60000002384185791       0.60000002384185791       0.80000001192092896     
  -2.5150715032120713E-004  -1.0368568700051013        1.3880185065840076       0.60000002384185791       0.60000002384185791       0.60000002384185791       0.80000001192092896     
   1.4097632451237883      -0.51941895960928952        1.3890344721411874       0.60000002384185791       0.60000002384185791       0.60000002384185791       0.80000001192092896     
   1.4097632451237883       0.51941895960928952        1.3890344721411874       0.60000002384185791       0.60000002384185791       0.60000002384185791       0.80000001192092896     
  -2.5150715032120713E-004   1.0368568700051013        1.3880185065840076       0.60000002384185791       0.60000002384185791       0.60000002384185791       0.80000001192092896     
   1.2479953139194388E-003  -7.3994032913047705E-018   1.0535609148389919        1.0000000000000000        1.0000000000000000        0.0000000000000000        1.0000000000000000     
  
   3   0   5   6
   3   0   6   5
   3   0   6   1
   3   0   1   6
   3   1   0   6
   3   1   6   2
   3   1   6   0
   3   1   2   6
   3   2   6   3
   3   2   6   1
   3   2   3   6
   3   2   1   6
   3   3   4   6
   3   3   2   6
   3   3   6   4
   3   3   6   2
   3   4   3   6
   3   4   6   5
   3   4   6   3
   3   4   5   6
   3   5   4   6
   3   5   6   4
   3   5   6   0
   3   5   0   6
   3   6   5   4
   3   6   5   0
   3   6   4   3
   3   6   4   5
   3   6   3   4
   3   6   3   2
   3   6   2   3
   3   6   2   1
   3   6   1   0
   3   6   1   2
   3   6   0   5
   3   6   0   1
