# Generated by dad_to_polygons. Vertex data from Humppa's .off file,
# polygons parsed from .dad file.
COFF
7 12 7
-1.322760 0.519283 1.388906 0.500000 0.500000 0.500000 1.0
-1.322760 -0.519283 1.388906 0.500000 0.500000 0.500000 1.0
-0.000252 -1.036857 1.388019 0.500000 0.500000 0.500000 1.0
1.409763 -0.519419 1.389034 0.500000 0.500000 0.500000 1.0
1.409763 0.519419 1.389034 0.500000 0.500000 0.500000 1.0
-0.000252 1.036857 1.388019 0.500000 0.500000 0.500000 1.0
0.001248 -0.000000 1.053561 1.0 1.0 0.0 1.0
3 1 2 6
3 1 6 2
3 3 2 6
3 3 6 2
3 3 6 4
3 3 4 6
3 4 5 6
3 4 6 5
3 6 0 5
3 6 5 0
3 6 1 0
3 6 0 1
