# Generated by dad_to_polygons. Vertex data from Humppa's .off file,
# polygons parsed from .dad file.
COFF
75 240 75
-6.055480 0.787888 5.159256 0.500000 0.500000 0.500000 1.0
-6.055480 -0.787888 5.159256 0.500000 0.500000 0.500000 1.0
-0.027374 -1.892388 4.701049 0.500000 0.500000 0.500000 1.0
7.183752 -0.822993 5.119584 0.500000 0.500000 0.500000 1.0
7.183752 0.822993 5.119584 0.500000 0.500000 0.500000 1.0
-0.027374 1.892388 4.701049 0.500000 0.500000 0.500000 1.0
1.067240 -1.528898 4.891608 0.500000 0.500000 0.500000 1.0
1.067240 1.528898 4.891608 0.500000 0.500000 0.500000 1.0
-1.117474 1.525557 4.846736 0.500000 0.500000 0.500000 1.0
-1.117474 -1.525557 4.846736 0.500000 0.500000 0.500000 1.0
1.965620 -1.168615 5.176025 0.500000 0.500000 0.500000 1.0
1.965620 1.168615 5.176025 0.500000 0.500000 0.500000 1.0
-2.025540 1.204667 5.117897 0.500000 0.500000 0.500000 1.0
-2.025540 -1.204667 5.117897 0.500000 0.500000 0.500000 1.0
3.062693 -1.026116 5.232464 0.500000 0.500000 0.500000 1.0
3.062693 1.026116 5.232464 0.500000 0.500000 0.500000 1.0
-3.012008 1.048180 5.146357 0.500000 0.500000 0.500000 1.0
-3.012008 -1.048180 5.146357 0.500000 0.500000 0.500000 1.0
4.055570 -0.913210 5.249654 0.500000 0.500000 0.500000 1.0
4.055570 0.913210 5.249654 0.500000 0.500000 0.500000 1.0
-4.000975 0.913996 5.190957 0.500000 0.500000 0.500000 1.0
-4.000975 -0.913996 5.190957 0.500000 0.500000 0.500000 1.0
5.050385 -0.925365 5.153555 0.500000 0.500000 0.500000 1.0
5.050385 0.925365 5.153555 0.500000 0.500000 0.500000 1.0
6.058739 -0.884406 5.128245 0.500000 0.500000 0.500000 1.0
6.058739 0.884406 5.128245 0.500000 0.500000 0.500000 1.0
-5.000426 0.852231 5.173473 0.500000 0.500000 0.500000 1.0
-5.000426 -0.852231 5.173473 0.500000 0.500000 0.500000 1.0
-1.177919 -1.481524 3.963234 0.500000 0.500000 0.500000 1.0
-1.978795 0.806960 2.924491 0.500000 0.500000 0.500000 1.0
-1.978795 -0.806960 2.924491 0.500000 0.500000 0.500000 1.0
1.178693 -1.460265 3.825748 0.500000 0.500000 0.500000 1.0
1.178693 1.460265 3.825748 0.500000 0.500000 0.500000 1.0
-2.389744 1.107910 4.075310 0.500000 0.500000 0.500000 1.0
-2.389744 -1.107910 4.075310 0.500000 0.500000 0.500000 1.0
0.005838 -1.614511 3.534467 0.500000 0.500000 0.500000 1.0
0.005838 1.614511 3.534467 0.500000 0.500000 0.500000 1.0
2.391374 1.060130 4.128192 0.500000 0.500000 0.500000 1.0
4.073925 -0.912745 4.532852 0.500000 0.500000 0.500000 1.0
-0.795962 -1.425632 3.049213 0.500000 0.500000 0.500000 1.0
-0.795962 1.425632 3.049213 0.500000 0.500000 0.500000 1.0
-1.477856 -0.716445 1.756111 0.500000 0.500000 0.500000 1.0
-1.477856 0.716445 1.756111 0.500000 0.500000 0.500000 1.0
0.972376 1.388635 2.734954 0.500000 0.500000 0.500000 1.0
0.972376 -1.388635 2.734954 0.500000 0.500000 0.500000 1.0
4.073925 0.912745 4.532852 0.500000 0.500000 0.500000 1.0
-4.003136 0.872458 4.519704 0.500000 0.500000 0.500000 1.0
2.036797 0.000000 3.162622 0.500000 0.500000 0.500000 1.0
1.370491 0.987299 2.416894 0.500000 0.500000 0.500000 1.0
1.370491 -0.987299 2.416894 0.500000 0.500000 0.500000 1.0
0.074055 1.449658 2.575247 0.500000 0.500000 0.500000 1.0
0.074055 -1.449658 2.575247 0.500000 0.500000 0.500000 1.0
1.568610 -0.000000 2.267510 0.500000 0.500000 0.500000 1.0
5.135196 -0.750498 4.035226 1.0 1.0 0.0 1.0
5.135196 0.750498 4.035226 1.0 1.0 0.0 1.0
-2.816820 -0.000000 3.691101 0.500000 0.500000 0.500000 1.0
-0.419678 -1.198772 2.245388 0.500000 0.500000 0.500000 1.0
-0.419678 1.198772 2.245388 0.500000 0.500000 0.500000 1.0
-4.003136 -0.872458 4.519704 0.500000 0.500000 0.500000 1.0
0.054550 -0.000000 1.053561 1.0 1.0 0.0 1.0
0.718663 1.017088 1.892039 0.500000 0.500000 0.500000 1.0
0.718663 -1.017088 1.892039 0.500000 0.500000 0.500000 1.0
2.631099 -0.000000 3.854148 0.500000 0.500000 0.500000 1.0
-5.057187 0.815546 4.606909 1.0 1.0 0.0 1.0
-5.057187 -0.815546 4.606909 1.0 1.0 0.0 1.0
6.237058 -0.787072 4.578454 0.500000 0.500000 0.500000 1.0
6.237058 0.787072 4.578454 0.500000 0.500000 0.500000 1.0
0.908208 0.588678 1.703322 0.500000 0.500000 0.500000 1.0
0.908208 -0.588678 1.703322 0.500000 0.500000 0.500000 1.0
2.391374 -1.060130 4.128192 0.500000 0.500000 0.500000 1.0
1.641267 1.274247 3.308042 0.500000 0.500000 0.500000 1.0
0.023067 0.874872 1.806139 0.500000 0.500000 0.500000 1.0
0.023067 -0.874872 1.806139 0.500000 0.500000 0.500000 1.0
1.641267 -1.274247 3.308042 0.500000 0.500000 0.500000 1.0
-1.177919 1.481524 3.963234 0.500000 0.500000 0.500000 1.0
3 0 1 64
3 0 64 1
3 0 63 26
3 0 26 63
3 0 64 63
3 0 63 64
3 1 64 27
3 1 27 64
3 2 28 35
3 2 35 28
3 3 4 66
3 3 66 4
3 3 66 65
3 3 65 66
3 5 36 74
3 5 74 36
3 6 2 31
3 6 31 2
3 7 5 32
3 7 32 5
3 7 32 37
3 7 37 32
3 8 74 5
3 8 5 74
3 9 2 28
3 9 28 2
3 9 28 34
3 9 34 28
3 10 69 6
3 10 6 69
3 11 37 7
3 11 7 37
3 12 33 16
3 12 16 33
3 13 9 34
3 13 34 9
3 13 17 34
3 13 34 17
3 14 38 69
3 14 69 38
3 14 69 10
3 14 10 69
3 15 37 11
3 15 11 37
3 15 45 37
3 15 37 45
3 16 20 46
3 16 46 20
3 16 46 33
3 16 33 46
3 18 14 38
3 18 38 14
3 18 38 22
3 18 22 38
3 19 23 45
3 19 45 23
3 21 58 17
3 21 17 58
3 22 53 24
3 22 24 53
3 22 53 38
3 22 38 53
3 23 54 45
3 23 45 54
3 24 3 65
3 24 65 3
3 25 4 66
3 25 66 4
3 25 23 54
3 25 54 23
3 25 66 54
3 25 54 66
3 26 20 46
3 26 46 20
3 27 58 64
3 27 64 58
3 28 39 34
3 28 34 39
3 29 33 40
3 29 40 33
3 29 41 30
3 29 30 41
3 29 42 41
3 29 41 42
3 30 34 55
3 30 55 34
3 30 55 29
3 30 29 55
3 30 56 39
3 30 39 56
3 31 35 2
3 31 2 35
3 31 44 35
3 31 35 44
3 31 44 73
3 31 73 44
3 31 69 6
3 31 6 69
3 31 73 69
3 31 69 73
3 32 36 5
3 32 5 36
3 32 36 43
3 32 43 36
3 33 8 12
3 33 12 8
3 33 74 40
3 33 40 74
3 34 17 58
3 34 58 17
3 34 58 55
3 34 55 58
3 35 39 28
3 35 28 39
3 35 44 51
3 35 51 44
3 35 51 39
3 35 39 51
3 36 40 50
3 36 50 40
3 36 40 74
3 36 74 40
3 37 47 70
3 37 70 47
3 37 62 45
3 37 45 62
3 37 62 47
3 37 47 62
3 37 70 32
3 37 32 70
3 38 62 45
3 38 45 62
3 38 69 62
3 38 62 69
3 39 30 34
3 39 34 30
3 39 51 56
3 39 56 51
3 40 29 57
3 40 57 29
3 40 57 50
3 40 50 57
3 41 56 30
3 41 30 56
3 41 59 56
3 41 56 59
3 42 29 57
3 42 57 29
3 43 48 70
3 43 70 48
3 43 50 36
3 43 36 50
3 43 60 48
3 43 48 60
3 43 60 50
3 43 50 60
3 44 61 49
3 44 49 61
3 44 61 51
3 44 51 61
3 45 19 15
3 45 15 19
3 45 53 38
3 45 38 53
3 45 54 53
3 45 53 54
3 46 33 55
3 46 55 33
3 46 55 58
3 46 58 55
3 47 48 52
3 47 52 48
3 47 49 73
3 47 73 49
3 47 69 62
3 47 62 69
3 48 60 67
3 48 67 60
3 49 44 73
3 49 73 44
3 49 52 47
3 49 47 52
3 49 68 52
3 49 52 68
3 50 60 71
3 50 71 60
3 51 56 72
3 51 72 56
3 52 59 67
3 52 67 59
3 53 65 66
3 53 66 65
3 53 66 54
3 53 54 66
3 55 29 33
3 55 33 29
3 57 59 71
3 57 71 59
3 58 21 27
3 58 27 21
3 58 63 46
3 58 46 63
3 58 64 63
3 58 63 64
3 59 42 41
3 59 41 42
3 59 42 57
3 59 57 42
3 59 56 72
3 59 72 56
3 59 60 71
3 59 71 60
3 60 59 67
3 60 67 59
3 61 49 68
3 61 68 49
3 61 72 51
3 61 51 72
3 63 26 46
3 63 46 26
3 65 53 24
3 65 24 53
3 67 48 52
3 67 52 48
3 68 52 59
3 68 59 52
3 68 61 59
3 68 59 61
3 70 43 32
3 70 32 43
3 70 47 48
3 70 48 47
3 71 50 57
3 71 57 50
3 72 61 59
3 72 59 61
3 73 47 69
3 73 69 47
3 74 8 33
3 74 33 8
