 COFF
          79         736          79
  
  -6.3030924424321464       0.85091943177472706        5.4805991384989117       0.60000002384185791       0.60000002384185791       0.60000002384185791       0.80000001192092896     
  -6.3030924424321402      -0.85091943177472773        5.4805991384989117       0.60000002384185791       0.60000002384185791       0.60000002384185791       0.80000001192092896     
  -2.7488392062949112E-002  -1.9395008358502726        5.0573984901146236       0.60000002384185791       0.60000002384185791       0.60000002384185791       0.80000001192092896     
   7.2438792880107776      -0.87852994115991834        5.4499777299781638       0.60000002384185791       0.60000002384185791       0.60000002384185791       0.80000001192092896     
   7.2438792880107918       0.87852994115991612        5.4499777299781638       0.60000002384185791       0.60000002384185791       0.60000002384185791       0.80000001192092896     
  -2.7488392062948869E-002   1.9395008358502546        5.0573984901146387       0.60000002384185791       0.60000002384185791       0.60000002384185791       0.80000001192092896     
   1.0819979443795080       -1.5690389486451279        5.2553923995168796       0.60000002384185791       0.60000002384185791       0.60000002384185791       0.80000001192092896     
   1.0819979443795043        1.5690389486451193        5.2553923995168841       0.60000002384185791       0.60000002384185791       0.60000002384185791       0.80000001192092896     
  -1.1246826418901577        1.5659933216428814        5.2104539935090592       0.60000002384185791       0.60000002384185791       0.60000002384185791       0.80000001192092896     
  -1.1246826418901585       -1.5659933216428887        5.2104539935090530       0.60000002384185791       0.60000002384185791       0.60000002384185791       0.80000001192092896     
   1.9752281585823686       -1.2055714448970334        5.5494167725036130       0.60000002384185791       0.60000002384185791       0.60000002384185791       0.80000001192092896     
   1.9752281585823670        1.2055714448970307        5.5494167725036139       0.60000002384185791       0.60000002384185791       0.60000002384185791       0.80000001192092896     
  -2.0257713371643078        1.2384367916162291        5.4951757258068481       0.60000002384185791       0.60000002384185791       0.60000002384185791       0.80000001192092896     
  -2.0257713371643060       -1.2384367916162309        5.4951757258068437       0.60000002384185791       0.60000002384185791       0.60000002384185791       0.80000001192092896     
   3.0640026453351066       -1.0768518353650909        5.5948667268993022       0.60000002384185791       0.60000002384185791       0.60000002384185791       0.80000001192092896     
   3.0640026453351084        1.0768518353650891        5.5948667268993155       0.60000002384185791       0.60000002384185791       0.60000002384185791       0.80000001192092896     
  -3.0137529233665026        1.0882247885279268        5.5174605807444683       0.60000002384185791       0.60000002384185791       0.60000002384185791       0.80000001192092896     
  -3.0137529233665004       -1.0882247885279290        5.5174605807444683       0.60000002384185791       0.60000002384185791       0.60000002384185791       0.80000001192092896     
   4.0583474503755896      -0.97449651329317255        5.6046583826866740       0.60000002384185791       0.60000002384185791       0.60000002384185791       0.80000001192092896     
   4.0583474503755905       0.97449651329317011        5.6046583826866740       0.60000002384185791       0.60000002384185791       0.60000002384185791       0.80000001192092896     
  -4.0029078397624076       0.95480774766165566        5.5775128836688426       0.60000002384185791       0.60000002384185791       0.60000002384185791       0.80000001192092896     
  -4.0029078397624049      -0.95480774766165621        5.5775128836688426       0.60000002384185791       0.60000002384185791       0.60000002384185791       0.80000001192092896     
   5.0483129067488681       -1.0398595343500725        5.4542283218531189       0.60000002384185791       0.60000002384185791       0.60000002384185791       0.80000001192092896     
   5.0483129067488690        1.0398595343500716        5.4542283218531180       0.60000002384185791       0.60000002384185791       0.60000002384185791       0.80000001192092896     
   6.0656063908771118      -0.99982709444834827        5.4245757574344307       0.60000002384185791       0.60000002384185791       0.60000002384185791       0.80000001192092896     
   6.0656063908771118       0.99982709444834639        5.4245757574344307       0.60000002384185791       0.60000002384185791       0.60000002384185791       0.80000001192092896     
  -5.0048492890794378       0.94085688756775820        5.4981242166514299       0.60000002384185791       0.60000002384185791       0.60000002384185791       0.80000001192092896     
  -5.0048492890794369      -0.94085688756775909        5.4981242166514299       0.60000002384185791       0.60000002384185791       0.60000002384185791       0.80000001192092896     
  -1.2017933264175147       -1.5246891680241987        4.3100750211515173       0.60000002384185791       0.60000002384185791       0.60000002384185791       0.80000001192092896     
  -2.0454542167747398       0.84183629352483991        3.2252635862807493       0.60000002384185791       0.60000002384185791       0.60000002384185791       0.80000001192092896     
  -2.0454542167735004      -0.84183629352727496        3.2252635862810708       0.60000002384185791       0.60000002384185791       0.60000002384185791       0.80000001192092896     
   1.2046897631067597       -1.5075079024157267        4.1686698808611453       0.60000002384185791       0.60000002384185791       0.60000002384185791       0.80000001192092896     
   1.2046897631064033        1.5075079024150064        4.1686698808611604       0.60000002384185791       0.60000002384185791       0.60000002384185791       0.80000001192092896     
  -2.4226255264847776        1.1483704173151350        4.4289190738266591       0.60000002384185791       0.60000002384185791       0.60000002384185791       0.80000001192092896     
  -2.4226255264848247       -1.1483704173153542        4.4289190738266466       0.60000002384185791       0.60000002384185791       0.60000002384185791       0.80000001192092896     
   8.8537393129598223E-003  -1.6596081979609851        3.8501713230175021       0.60000002384185791       0.60000002384185791       0.60000002384185791       0.80000001192092896     
   8.8537393161618894E-003   1.6596081979282014        3.8501713230174932       0.60000002384185791       0.60000002384185791       0.60000002384185791       0.80000001192092896     
   2.4265496024183895        1.1154349797713461        4.4708295299518959       0.60000002384185791       0.60000002384185791       0.60000002384185791       0.80000001192092896     
   4.0897149743472170       -1.0051329367598916        4.8957918608198385       0.60000002384185791       0.60000002384185791       0.60000002384185791       0.80000001192092896     
 -0.87464209279013405       -1.4759896765787128        3.3844594848149554       0.60000002384185791       0.60000002384185791       0.60000002384185791       0.80000001192092896     
 -0.87464209278627181        1.4759896765663774        3.3844594848159355       0.60000002384185791       0.60000002384185791       0.60000002384185791       0.80000001192092896     
  -1.4627569570491628      -0.80327854381008446        1.9157868009202126       0.60000002384185791       0.60000002384185791       0.60000002384185791       0.80000001192092896     
  -1.4627569570498127       0.80327854380888508        1.9157868009198100       0.60000002384185791       0.60000002384185791       0.60000002384185791       0.80000001192092896     
   1.0212171700484309        1.4512286483102113        3.0590931680676765       0.60000002384185791       0.60000002384185791       0.60000002384185791       0.80000001192092896     
   1.0212171700477279       -1.4512286483203145        3.0590931680689115       0.60000002384185791       0.60000002384185791       0.60000002384185791       0.80000001192092896     
   4.0897149743472188        1.0051329367598894        4.8957918608198385       0.60000002384185791       0.60000002384185791       0.60000002384185791       0.80000001192092896     
  -4.0235761179030485       0.93227390517893083        4.8822591001531750       0.60000002384185791       0.60000002384185791       0.60000002384185791       0.80000001192092896     
   2.1556938797253493       -1.7079108832905898E-014   3.4782121472939291       0.60000002384185791       0.60000002384185791       0.60000002384185791       0.80000001192092896     
   1.4425838225726735        1.0574192362043535        2.7090431992247086       0.60000002384185791       0.60000002384185791       0.60000002384185791       0.80000001192092896     
   1.4425838225730276       -1.0574192362058970        2.7090431992245367       0.60000002384185791       0.60000002384185791       0.60000002384185791       0.80000001192092896     
  0.10283571135707940        1.5287595836536352        2.8605725207881787       0.60000002384185791       0.60000002384185791       0.60000002384185791       0.80000001192092896     
  0.10283571134834796       -1.5287595836609398        2.8605725207878141       0.60000002384185791       0.60000002384185791       0.60000002384185791       0.80000001192092896     
   1.6575583224242614       -1.0713655479548835E-013   2.5133952133738093       0.60000002384185791       0.60000002384185791       0.60000002384185791       0.80000001192092896     
   5.1580635552038956      -0.75036027615434353        4.0352256057235740        1.0000000000000000        1.0000000000000000        0.0000000000000000        1.0000000000000000     
   5.1580635552038965       0.75036027615434286        4.0352256057235740        1.0000000000000000        1.0000000000000000        0.0000000000000000        1.0000000000000000     
  -2.9409194890214381       -2.8206388070019396E-014   3.9806166018165405       0.60000002384185791       0.60000002384185791       0.60000002384185791       0.80000001192092896     
 -0.51995197337292709       -1.3360989099626870        2.5712809522000817       0.60000002384185791       0.60000002384185791       0.60000002384185791       0.80000001192092896     
 -0.51995197337186883        1.3360989099557474        2.5712809522018296       0.60000002384185791       0.60000002384185791       0.60000002384185791       0.80000001192092896     
  -4.0235761179030600      -0.93227390517895004        4.8822591001531954       0.60000002384185791       0.60000002384185791       0.60000002384185791       0.80000001192092896     
   6.8053773059747247E-002  -1.1707757395881526E-013   1.0535609148389919        1.0000000000000000        1.0000000000000000        0.0000000000000000        1.0000000000000000     
  0.83637314065321366        1.2146801064309170        2.1480372515689621       0.60000002384185791       0.60000002384185791       0.60000002384185791       0.80000001192092896     
  0.83637314065131596       -1.2146801064343338        2.1480372515684598       0.60000002384185791       0.60000002384185791       0.60000002384185791       0.80000001192092896     
   2.7996540791379494       -2.8359482129036183E-016   4.0585703725335396       0.60000002384185791       0.60000002384185791       0.60000002384185791       0.80000001192092896     
  -5.0790243025566237       0.81572165005847808        4.6069091304059731        1.0000000000000000        1.0000000000000000        0.0000000000000000        1.0000000000000000     
  -5.0790243025566237      -0.81572165005847885        4.6069091304059739        1.0000000000000000        1.0000000000000000        0.0000000000000000        1.0000000000000000     
   6.4463905143614104      -0.86641327303734539        4.8387687567790358       0.60000002384185791       0.60000002384185791       0.60000002384185791       0.80000001192092896     
   6.4463905143614122       0.86641327303734350        4.8387687567790358       0.60000002384185791       0.60000002384185791       0.60000002384185791       0.80000001192092896     
   1.1504438361062557       0.74237693791863335        1.8942874554813984       0.60000002384185791       0.60000002384185791       0.60000002384185791       0.80000001192092896     
   1.1504438361061795      -0.74237693791884762        1.8942874554813085       0.60000002384185791       0.60000002384185791       0.60000002384185791       0.80000001192092896     
   2.4265496024183912       -1.1154349797713639        4.4708295299518790       0.60000002384185791       0.60000002384185791       0.60000002384185791       0.80000001192092896     
   1.6801768631719203        1.3219567087245550        3.6405553771545445       0.60000002384185791       0.60000002384185791       0.60000002384185791       0.80000001192092896     
   6.8283710463839381E-002   1.1754009031452481        2.0034178595310657       0.60000002384185791       0.60000002384185791       0.60000002384185791       0.80000001192092896     
   6.8283710460963071E-002  -1.1754009031483403        2.0034178595299905       0.60000002384185791       0.60000002384185791       0.60000002384185791       0.80000001192092896     
   1.6801768631717056       -1.3219567087246940        3.6405553771530075       0.60000002384185791       0.60000002384185791       0.60000002384185791       0.80000001192092896     
  -1.2017933264170955        1.5246891680234786        4.3100750211515377       0.60000002384185791       0.60000002384185791       0.60000002384185791       0.80000001192092896     
   1.1065260922509137        1.6336542903455808E-014   1.7503939230273264       0.60000002384185791       0.60000002384185791       0.60000002384185791       0.80000001192092896     
 -0.24070653453561086      -0.75795527166396193        1.7629304430581594       0.60000002384185791       0.60000002384185791       0.60000002384185791       0.80000001192092896     
 -0.24070653453593030       0.75795527166383170        1.7629304430590196       0.60000002384185791       0.60000002384185791       0.60000002384185791       0.80000001192092896     
   4.0896828525829081       -5.9575107703449818E-016   4.8880322980888833       0.60000002384185791       0.60000002384185791       0.60000002384185791       0.80000001192092896     
  
   3   0  26  63
   3   0  63  26
   4   0  63  64   1
   3   1  64  27
   4   1  64  63   0
   3   1  27  64
   3   2  35  28
   3   2  35  31
   3   2  31  35
   3   2  31   6
   3   2   6  31
   3   2   9  28
   3   2  28  35
   3   2  28   9
   3   3  24  65
   3   3  65  24
   4   3  65  66   4
   3   4  66  25
   4   4  66  65   3
   3   4  25  66
   3   5   7  32
   3   5  32  36
   3   5  32   7
   3   5  36  32
   3   5  36  74
   3   5  74  36
   3   5  74   8
   3   5   8  74
   3   6   2  31
   3   6  31   2
   3   6  31  69
   3   6  69  10
   3   6  69  31
   3   6  10  69
   3   7  11  37
   3   7  37  32
   3   7  37  11
   3   7  32  37
   3   7  32   5
   3   7   5  32
   3   8   5  74
   3   8  74   5
   3   8  74  33
   3   8  33  12
   3   8  33  74
   3   8  12  33
   3   9  13  34
   3   9  34  28
   3   9  34  13
   3   9  28  34
   3   9  28   2
   3   9   2  28
   3  10   6  69
   3  10  69  14
   3  10  69   6
   3  10  14  69
   3  11  15  37
   3  11  37   7
   3  11  37  15
   3  11   7  37
   3  12   8  33
   3  12  33  16
   3  12  33   8
   3  12  16  33
   3  13  17  34
   3  13  34   9
   3  13  34  17
   3  13   9  34
   3  14  10  69
   3  14  69  38
   3  14  69  10
   3  14  38  18
   3  14  38  69
   3  14  18  38
   3  15  19  45
   3  15  45  37
   3  15  45  19
   3  15  37  45
   3  15  37  11
   3  15  11  37
   3  16  12  33
   3  16  33  46
   3  16  33  12
   3  16  46  20
   3  16  46  33
   3  16  20  46
   3  17  21  58
   3  17  58  34
   3  17  58  21
   3  17  34  58
   3  17  34  13
   3  17  13  34
   3  18  14  38
   3  18  38  22
   3  18  38  14
   3  18  22  38
   3  19  23  45
   3  19  45  15
   3  19  45  23
   3  19  15  45
   3  20  16  46
   3  20  46  26
   3  20  46  16
   3  20  26  46
   3  21  27  58
   3  21  58  17
   3  21  58  27
   3  21  17  58
   3  22  18  38
   3  22  38  53
   3  22  38  18
   3  22  53  24
   3  22  53  38
   3  22  24  53
   3  23  25  54
   3  23  54  45
   3  23  54  25
   3  23  45  54
   3  23  45  19
   3  23  19  45
   3  24  22  53
   3  24  53  65
   3  24  53  22
   3  24  65   3
   3  24  65  53
   3  24   3  65
   3  25   4  66
   3  25  66   4
   3  25  66  54
   3  25  54  66
   3  25  54  23
   3  25  23  54
   3  26  20  46
   3  26  46  63
   3  26  46  20
   3  26  63   0
   3  26  63  46
   3  26   0  63
   3  27   1  64
   3  27  64   1
   3  27  64  58
   3  27  58  64
   3  27  58  21
   3  27  21  58
   3  28  34  39
   3  28  34   9
   3  28  39  35
   3  28  39  34
   3  28  35  39
   3  28  35   2
   3  28   2  35
   3  28   2   9
   3  28   9  34
   3  28   9   2
   3  29  33  40
   3  29  33  55
   3  29  40  33
   3  29  40  57
   3  29  57  42
   3  29  57  40
   3  29  42  57
   4  29  42  41  30
   3  29  30  55
   4  29  30  41  42
   3  29  55  30
   3  29  55  33
   3  30  34  55
   3  30  34  39
   3  30  55  29
   3  30  55  34
   3  30  29  55
   4  30  29  42  41
   3  30  41  56
   4  30  41  42  29
   3  30  56  39
   3  30  56  41
   3  30  39  34
   3  30  39  56
   3  31   2  35
   3  31   2   6
   3  31  35  44
   3  31  35   2
   3  31  44  73
   3  31  44  35
   3  31  73  69
   3  31  73  44
   3  31  69   6
   3  31  69  73
   3  31   6   2
   3  31   6  69
   3  32  37  70
   3  32  37   7
   3  32  70  37
   3  32  70  43
   3  32  43  36
   3  32  43  70
   3  32  36  43
   3  32  36   5
   3  32   5   7
   3  32   5  36
   3  32   7  37
   3  32   7   5
   3  33  46  16
   3  33  46  55
   3  33  16  12
   3  33  16  46
   3  33  12   8
   3  33  12  16
   3  33   8  74
   3  33   8  12
   3  33  74  40
   3  33  74   8
   3  33  40  29
   3  33  40  74
   3  33  29  40
   3  33  29  55
   3  33  55  29
   3  33  55  46
   3  34  58  55
   3  34  58  17
   3  34  55  30
   3  34  55  58
   3  34  30  55
   3  34  30  39
   3  34  39  28
   3  34  39  30
   3  34  28  39
   3  34  28   9
   3  34   9  13
   3  34   9  28
   3  34  13  17
   3  34  13   9
   3  34  17  58
   3  34  17  13
   3  35  28  39
   3  35  28   2
   3  35  39  28
   3  35  39  51
   3  35  51  44
   3  35  51  39
   3  35  44  31
   3  35  44  51
   3  35  31   2
   3  35  31  44
   3  35   2  31
   3  35   2  28
   3  36  32  43
   3  36  32   5
   3  36  43  32
   3  36  43  50
   3  36  50  40
   3  36  50  43
   3  36  40  74
   3  36  40  50
   3  36  74   5
   3  36  74  40
   3  36   5  32
   3  36   5  74
   3  37  45  62
   3  37  45  15
   3  37  62  47
   3  37  62  45
   3  37  47  62
   3  37  47  70
   3  37  70  47
   3  37  70  32
   3  37  32  70
   3  37  32   7
   3  37   7  11
   3  37   7  32
   3  37  11  15
   3  37  11   7
   3  37  15  45
   3  37  15  11
   3  38  53  22
   3  38  53  78
   3  38  22  18
   3  38  22  53
   3  38  18  14
   3  38  18  22
   3  38  14  69
   3  38  14  18
   3  38  69  14
   3  38  69  62
   3  38  62  78
   3  38  62  69
   3  38  78  62
   3  38  78  53
   3  39  35  28
   3  39  35  51
   3  39  28  34
   3  39  28  35
   3  39  34  30
   3  39  34  28
   3  39  30  34
   3  39  30  56
   3  39  56  51
   3  39  56  30
   3  39  51  35
   3  39  51  56
   3  40  29  33
   3  40  29  57
   3  40  33  74
   3  40  33  29
   3  40  74  36
   3  40  74  33
   3  40  36  50
   3  40  36  74
   3  40  50  36
   3  40  50  57
   3  40  57  29
   3  40  57  50
   3  41  59  76
   3  41  59  42
   3  41  76  59
   3  41  76  56
   3  41  56  30
   3  41  56  76
   3  41  30  56
   4  41  30  29  42
   3  41  42  59
   4  41  42  29  30
   3  42  59  41
   3  42  59  77
   3  42  41  59
   4  42  41  30  29
   3  42  29  57
   4  42  29  30  41
   3  42  57  29
   3  42  57  77
   3  42  77  59
   3  42  77  57
   3  43  36  32
   3  43  36  50
   3  43  32  70
   3  43  32  36
   3  43  70  48
   3  43  70  32
   3  43  48  70
   3  43  48  60
   3  43  60  48
   3  43  60  50
   3  43  50  36
   3  43  50  60
   3  44  73  49
   3  44  73  31
   3  44  31  35
   3  44  31  73
   3  44  35  51
   3  44  35  31
   3  44  51  35
   3  44  51  61
   3  44  61  51
   3  44  61  49
   3  44  49  73
   3  44  49  61
   3  45  54  78
   3  45  54  23
   3  45  78  62
   3  45  78  54
   3  45  62  37
   3  45  62  78
   3  45  37  62
   3  45  37  15
   3  45  15  19
   3  45  15  37
   3  45  19  23
   3  45  19  15
   3  45  23  54
   3  45  23  19
   3  46  63  26
   4  46  63  64  58
   3  46  26  20
   3  46  26  63
   3  46  20  16
   3  46  20  26
   3  46  16  33
   3  46  16  20
   3  46  33  16
   3  46  33  55
   3  46  55  58
   3  46  55  33
   3  46  58  55
   4  46  58  64  63
   3  47  37  62
   3  47  37  70
   3  47  62  37
   3  47  62  69
   3  47  69  73
   3  47  69  62
   3  47  73  49
   3  47  73  69
   3  47  49  73
   3  47  49  52
   3  47  52  48
   3  47  52  49
   3  47  48  70
   3  47  48  52
   3  47  70  37
   3  47  70  48
   3  48  43  70
   3  48  43  60
   3  48  70  47
   3  48  70  43
   3  48  47  52
   3  48  47  70
   3  48  52  47
   3  48  52  67
   3  48  67  52
   3  48  67  60
   3  48  60  67
   3  48  60  43
   3  49  47  73
   3  49  47  52
   3  49  73  47
   3  49  73  44
   3  49  44  73
   3  49  44  61
   3  49  61  68
   3  49  61  44
   3  49  68  61
   3  49  68  52
   3  49  52  47
   3  49  52  68
   3  50  40  36
   3  50  40  57
   3  50  36  43
   3  50  36  40
   3  50  43  36
   3  50  43  60
   3  50  60  71
   3  50  60  43
   3  50  71  60
   3  50  71  57
   3  50  57  40
   3  50  57  71
   3  51  44  35
   3  51  44  61
   3  51  35  39
   3  51  35  44
   3  51  39  35
   3  51  39  56
   3  51  56  39
   3  51  56  72
   3  51  72  56
   3  51  72  61
   3  51  61  72
   3  51  61  44
   3  52  48  47
   3  52  48  67
   3  52  47  49
   3  52  47  48
   3  52  49  47
   3  52  49  68
   3  52  68  75
   3  52  68  49
   3  52  75  68
   3  52  75  67
   3  52  67  75
   3  52  67  48
   3  53  65  24
   4  53  65  66  54
   3  53  24  22
   3  53  24  65
   3  53  22  38
   3  53  22  24
   3  53  38  22
   3  53  38  78
   3  53  78  54
   3  53  78  38
   3  53  54  78
   4  53  54  66  65
   3  54  66  25
   4  54  66  65  53
   3  54  53  78
   4  54  53  65  66
   3  54  78  45
   3  54  78  53
   3  54  45  78
   3  54  45  23
   3  54  23  25
   3  54  23  45
   3  54  25  66
   3  54  25  23
   3  55  29  33
   3  55  29  30
   3  55  30  34
   3  55  30  29
   3  55  34  58
   3  55  34  30
   3  55  58  46
   3  55  58  34
   3  55  46  33
   3  55  46  58
   3  55  33  46
   3  55  33  29
   3  56  51  39
   3  56  51  72
   3  56  39  30
   3  56  39  51
   3  56  30  41
   3  56  30  39
   3  56  41  76
   3  56  41  30
   3  56  76  41
   3  56  76  72
   3  56  72  76
   3  56  72  51
   3  57  42  29
   3  57  42  77
   3  57  29  40
   3  57  29  42
   3  57  40  29
   3  57  40  50
   3  57  50  40
   3  57  50  71
   3  57  71  77
   3  57  71  50
   3  57  77  71
   3  57  77  42
   3  58  64  27
   4  58  64  63  46
   3  58  46  55
   4  58  46  63  64
   3  58  55  34
   3  58  55  46
   3  58  34  55
   3  58  34  17
   3  58  17  21
   3  58  17  34
   3  58  21  27
   3  58  21  17
   3  58  27  64
   3  58  27  21
   3  59  71  60
   3  59  71  77
   3  59  60  67
   3  59  60  71
   3  59  67  75
   3  59  67  60
   3  59  75  68
   3  59  75  67
   3  59  68  61
   3  59  68  75
   3  59  61  72
   3  59  61  68
   3  59  72  76
   3  59  72  61
   3  59  76  41
   3  59  76  72
   3  59  41  76
   3  59  41  42
   3  59  42  41
   3  59  42  77
   3  59  77  71
   3  59  77  42
   3  60  48  43
   3  60  48  67
   3  60  67  59
   3  60  67  48
   3  60  59  71
   3  60  59  67
   3  60  71  59
   3  60  71  50
   3  60  50  43
   3  60  50  71
   3  60  43  48
   3  60  43  50
   3  61  51  44
   3  61  51  72
   3  61  72  59
   3  61  72  51
   3  61  59  68
   3  61  59  72
   3  61  68  59
   3  61  68  49
   3  61  49  44
   3  61  49  68
   3  61  44  51
   3  61  44  49
   3  62  47  37
   3  62  47  69
   3  62  37  45
   3  62  37  47
   3  62  45  78
   3  62  45  37
   3  62  78  45
   3  62  78  38
   3  62  38  69
   3  62  38  78
   3  62  69  38
   3  62  69  47
   3  63   0  26
   4  63   0   1  64
   3  63  26  46
   3  63  26   0
   3  63  46  26
   4  63  46  58  64
   3  64   1  27
   4  64   1   0  63
   3  64  58  27
   4  64  58  46  63
   3  64  27   1
   3  64  27  58
   3  65   3  24
   4  65   3   4  66
   3  65  24  53
   3  65  24   3
   3  65  53  24
   4  65  53  54  66
   3  66   4  25
   4  66   4   3  65
   3  66  54  25
   4  66  54  53  65
   3  66  25   4
   3  66  25  54
   3  67  52  48
   3  67  52  75
   3  67  75  59
   3  67  75  52
   3  67  59  60
   3  67  59  75
   3  67  60  48
   3  67  60  59
   3  67  48  52
   3  67  48  60
   3  68  61  59
   3  68  61  49
   3  68  59  75
   3  68  59  61
   3  68  75  59
   3  68  75  52
   3  68  52  49
   3  68  52  75
   3  68  49  61
   3  68  49  52
   3  69  38  14
   3  69  38  62
   3  69  14  10
   3  69  14  38
   3  69  10   6
   3  69  10  14
   3  69   6  31
   3  69   6  10
   3  69  31  73
   3  69  31   6
   3  69  73  47
   3  69  73  31
   3  69  47  62
   3  69  47  73
   3  69  62  47
   3  69  62  38
   3  70  37  47
   3  70  37  32
   3  70  47  37
   3  70  47  48
   3  70  48  43
   3  70  48  47
   3  70  43  32
   3  70  43  48
   3  70  32  37
   3  70  32  43
   3  71  60  59
   3  71  60  50
   3  71  59  60
   3  71  59  77
   3  71  77  59
   3  71  77  57
   3  71  57  50
   3  71  57  77
   3  71  50  60
   3  71  50  57
   3  72  56  51
   3  72  56  76
   3  72  76  59
   3  72  76  56
   3  72  59  61
   3  72  59  76
   3  72  61  51
   3  72  61  59
   3  72  51  56
   3  72  51  61
   3  73  49  47
   3  73  49  44
   3  73  47  69
   3  73  47  49
   3  73  69  31
   3  73  69  47
   3  73  31  44
   3  73  31  69
   3  73  44  31
   3  73  44  49
   3  74   5  36
   3  74   5   8
   3  74  36  40
   3  74  36   5
   3  74  40  33
   3  74  40  36
   3  74  33   8
   3  74  33  40
   3  74   8   5
   3  74   8  33
   3  75  68  59
   3  75  68  52
   3  75  59  67
   3  75  59  68
   3  75  67  52
   3  75  67  59
   3  75  52  68
   3  75  52  67
   3  76  41  59
   3  76  41  56
   3  76  59  72
   3  76  59  41
   3  76  72  56
   3  76  72  59
   3  76  56  41
   3  76  56  72
   3  77  71  59
   3  77  71  57
   3  77  59  71
   3  77  59  42
   3  77  42  59
   3  77  42  57
   3  77  57  42
   3  77  57  71
   3  78  62  45
   3  78  62  38
   3  78  45  54
   3  78  45  62
   3  78  54  53
   3  78  54  45
   3  78  53  38
   3  78  53  54
   3  78  38  53
   3  78  38  62
