# Generated by dad_to_polygons. Vertex data from Humppa's .off file,
# polygons parsed from .dad file.
COFF
84 276 84
-6.391397 0.932426 5.771217 0.500000 0.500000 0.500000 1.0
-6.391397 -0.932426 5.771217 0.500000 0.500000 0.500000 1.0
-0.027637 -1.984521 5.414668 0.500000 0.500000 0.500000 1.0
7.304284 -0.931682 5.779746 0.500000 0.500000 0.500000 1.0
7.304284 0.931682 5.779746 0.500000 0.500000 0.500000 1.0
-0.027637 1.984521 5.414668 0.500000 0.500000 0.500000 1.0
1.096703 -1.608752 5.618529 0.500000 0.500000 0.500000 1.0
1.096703 1.608752 5.618529 0.500000 0.500000 0.500000 1.0
-1.134662 1.605452 5.573919 0.500000 0.500000 0.500000 1.0
-1.134662 -1.605452 5.573919 0.500000 0.500000 0.500000 1.0
1.985083 -1.244153 5.920215 0.500000 0.500000 0.500000 1.0
1.985083 1.244153 5.920215 0.500000 0.500000 0.500000 1.0
-2.031528 1.274853 5.868036 0.500000 0.500000 0.500000 1.0
-2.031528 -1.274853 5.868036 0.500000 0.500000 0.500000 1.0
3.064941 -1.130500 5.952921 0.500000 0.500000 0.500000 1.0
3.064941 1.130500 5.952921 0.500000 0.500000 0.500000 1.0
-3.021501 1.137790 5.877783 0.500000 0.500000 0.500000 1.0
-3.021501 -1.137790 5.877783 0.500000 0.500000 0.500000 1.0
4.062116 -1.062232 5.972887 0.500000 0.500000 0.500000 1.0
4.062116 1.062232 5.972887 0.500000 0.500000 0.500000 1.0
-4.012433 1.017617 5.933825 0.500000 0.500000 0.500000 1.0
-4.012433 -1.017617 5.933825 0.500000 0.500000 0.500000 1.0
5.053839 -1.154679 5.753043 0.500000 0.500000 0.500000 1.0
5.053839 1.154679 5.753043 0.500000 0.500000 0.500000 1.0
6.075242 -1.116472 5.716606 0.500000 0.500000 0.500000 1.0
6.075242 1.116472 5.716606 0.500000 0.500000 0.500000 1.0
-5.008627 1.055977 5.793841 0.500000 0.500000 0.500000 1.0
-5.008627 -1.055977 5.793841 0.500000 0.500000 0.500000 1.0
-1.220028 -1.567659 4.657270 0.500000 0.500000 0.500000 1.0
-2.096191 0.878843 3.524468 0.500000 0.500000 0.500000 1.0
-2.096191 -0.878843 3.524468 0.500000 0.500000 0.500000 1.0
1.226848 -1.552954 4.511950 0.500000 0.500000 0.500000 1.0
1.226848 1.552954 4.511950 0.500000 0.500000 0.500000 1.0
-2.452108 1.194260 4.777495 0.500000 0.500000 0.500000 1.0
-2.452108 -1.194260 4.777495 0.500000 0.500000 0.500000 1.0
0.011661 -1.703172 4.170533 0.500000 0.500000 0.500000 1.0
0.011661 1.703172 4.170533 0.500000 0.500000 0.500000 1.0
2.459040 1.169779 4.811539 0.500000 0.500000 0.500000 1.0
4.101528 -1.106383 5.238510 0.500000 0.500000 0.500000 1.0
-0.935111 -1.520021 3.724346 0.500000 0.500000 0.500000 1.0
-0.935111 1.520022 3.724346 0.500000 0.500000 0.500000 1.0
-1.496485 -0.886731 2.131697 0.500000 0.500000 0.500000 1.0
-1.496485 0.886732 2.131697 0.500000 0.500000 0.500000 1.0
1.061905 1.497649 3.375292 0.500000 0.500000 0.500000 1.0
1.061905 -1.497649 3.375292 0.500000 0.500000 0.500000 1.0
4.101528 1.106383 5.238510 0.500000 0.500000 0.500000 1.0
-4.017390 1.014471 5.220224 0.500000 0.500000 0.500000 1.0
2.252628 0.000000 3.794326 0.500000 0.500000 0.500000 1.0
1.500561 1.112724 3.006529 0.500000 0.500000 0.500000 1.0
1.500561 -1.112724 3.006529 0.500000 0.500000 0.500000 1.0
0.107579 1.574980 3.160861 0.500000 0.500000 0.500000 1.0
0.107567 -1.574815 3.160861 0.500000 0.500000 0.500000 1.0
1.737778 0.000000 2.771208 0.500000 0.500000 0.500000 1.0
5.158812 -0.750538 4.035226 1.0 1.0 0.0 1.0
5.158812 0.750538 4.035226 1.0 1.0 0.0 1.0
-3.043167 0.000000 4.284271 0.500000 0.500000 0.500000 1.0
-0.622997 -1.397859 2.893685 0.500000 0.500000 0.500000 1.0
-0.622997 1.397860 2.893685 0.500000 0.500000 0.500000 1.0
-4.017390 -1.014471 5.220224 0.500000 0.500000 0.500000 1.0
0.112098 0.000000 1.053561 1.0 1.0 0.0 1.0
0.924801 1.330320 2.432260 0.500000 0.500000 0.500000 1.0
0.924801 -1.330320 2.432260 0.500000 0.500000 0.500000 1.0
2.989935 0.000000 4.281048 0.500000 0.500000 0.500000 1.0
-5.078654 0.815453 4.606909 1.0 1.0 0.0 1.0
-5.078654 -0.815453 4.606909 1.0 1.0 0.0 1.0
6.563824 -0.963080 5.110160 0.500000 0.500000 0.500000 1.0
6.563824 0.963080 5.110160 0.500000 0.500000 0.500000 1.0
1.265105 0.849942 2.125421 0.500000 0.500000 0.500000 1.0
1.265105 -0.849942 2.125421 0.500000 0.500000 0.500000 1.0
2.459040 -1.169779 4.811539 0.500000 0.500000 0.500000 1.0
1.709910 1.367855 3.969536 0.500000 0.500000 0.500000 1.0
0.136833 1.346659 2.237844 0.500000 0.500000 0.500000 1.0
0.136833 -1.346658 2.237844 0.500000 0.500000 0.500000 1.0
1.709910 -1.367855 3.969536 0.500000 0.500000 0.500000 1.0
-1.220028 1.567659 4.657270 0.500000 0.500000 0.500000 1.0
1.371058 0.000000 1.960291 0.500000 0.500000 0.500000 1.0
-0.301446 -1.103750 1.918129 0.500000 0.500000 0.500000 1.0
-0.301446 1.103750 1.918129 0.500000 0.500000 0.500000 1.0
4.101317 0.000000 5.057715 0.500000 0.500000 0.500000 1.0
-0.991417 -0.478945 1.524193 0.500000 0.500000 0.500000 1.0
-0.991417 0.478945 1.524193 0.500000 0.500000 0.500000 1.0
0.575907 0.754828 1.716787 0.500000 0.500000 0.500000 1.0
0.575907 -0.754828 1.716787 0.500000 0.500000 0.500000 1.0
-4.017381 -0.000000 5.201215 0.500000 0.500000 0.500000 1.0
3 0 1 64
3 0 64 1
3 0 64 63
3 0 63 64
3 1 64 27
3 1 27 64
3 2 28 9
3 2 9 28
3 2 35 31
3 2 31 35
3 4 65 3
3 4 3 65
3 4 66 65
3 4 65 66
3 5 7 32
3 5 32 7
3 5 8 74
3 5 74 8
3 5 32 36
3 5 36 32
3 5 36 74
3 5 74 36
3 8 33 74
3 8 74 33
3 9 13 34
3 9 34 13
3 9 28 34
3 9 34 28
3 10 69 6
3 10 6 69
3 11 37 7
3 11 7 37
3 12 8 33
3 12 33 8
3 12 33 16
3 12 16 33
3 14 10 69
3 14 69 10
3 14 38 69
3 14 69 38
3 15 11 37
3 15 37 11
3 17 34 13
3 17 13 34
3 18 14 38
3 18 38 14
3 21 58 17
3 21 17 58
3 22 24 53
3 22 53 24
3 23 25 54
3 23 54 25
3 23 45 54
3 23 54 45
3 24 65 53
3 24 53 65
3 25 66 54
3 25 54 66
3 26 63 0
3 26 0 63
3 27 58 21
3 27 21 58
3 27 64 58
3 27 58 64
3 28 34 39
3 28 39 34
3 28 39 35
3 28 35 39
3 29 30 55
3 29 55 30
3 29 42 57
3 29 57 42
3 29 55 33
3 29 33 55
3 30 29 42
3 30 42 29
3 30 34 55
3 30 55 34
3 30 41 56
3 30 56 41
3 30 42 41
3 30 41 42
3 31 6 2
3 31 2 6
3 31 44 35
3 31 35 44
3 31 44 73
3 31 73 44
3 33 29 40
3 33 40 29
3 33 46 16
3 33 16 46
3 33 74 40
3 33 40 74
3 34 17 58
3 34 58 17
3 34 30 39
3 34 39 30
3 34 55 58
3 34 58 55
3 35 28 2
3 35 2 28
3 35 44 51
3 35 51 44
3 35 51 39
3 35 39 51
3 36 32 43
3 36 43 32
3 36 43 50
3 36 50 43
3 37 7 32
3 37 32 7
3 37 45 15
3 37 15 45
3 37 62 45
3 37 45 62
3 37 70 32
3 37 32 70
3 37 70 47
3 37 47 70
3 38 18 22
3 38 22 18
3 38 53 22
3 38 22 53
3 38 62 69
3 38 69 62
3 38 62 78
3 38 78 62
3 39 56 51
3 39 51 56
3 40 36 50
3 40 50 36
3 40 50 57
3 40 57 50
3 40 74 36
3 40 36 74
3 41 59 76
3 41 76 59
3 41 79 59
3 41 59 79
3 41 79 80
3 41 80 79
3 41 80 42
3 41 42 80
3 44 49 73
3 44 73 49
3 44 51 61
3 44 61 51
3 44 61 49
3 44 49 61
3 45 15 19
3 45 19 15
3 45 23 19
3 45 19 23
3 45 62 78
3 45 78 62
3 45 78 54
3 45 54 78
3 46 20 16
3 46 16 20
3 46 20 26
3 46 26 20
3 46 55 33
3 46 33 55
3 46 63 26
3 46 26 63
3 46 83 55
3 46 55 83
3 46 83 63
3 46 63 83
3 47 49 73
3 47 73 49
3 47 69 73
3 47 73 69
3 48 43 60
3 48 60 43
3 48 47 70
3 48 70 47
3 48 52 47
3 48 47 52
3 48 52 67
3 48 67 52
3 48 70 43
3 48 43 70
3 49 52 47
3 49 47 52
3 49 52 68
3 49 68 52
3 49 61 68
3 49 68 61
3 50 57 71
3 50 71 57
3 52 75 68
3 52 68 75
3 53 54 66
3 53 66 54
3 53 66 65
3 53 65 66
3 53 78 38
3 53 38 78
3 55 58 83
3 55 83 58
3 56 30 39
3 56 39 30
3 56 41 76
3 56 76 41
3 56 51 72
3 56 72 51
3 57 40 29
3 57 29 40
3 57 77 71
3 57 71 77
3 59 68 75
3 59 75 68
3 59 72 82
3 59 82 72
3 59 75 67
3 59 67 75
3 59 77 71
3 59 71 77
3 59 81 71
3 59 71 81
3 60 50 43
3 60 43 50
3 60 50 71
3 60 71 50
3 60 71 81
3 60 81 71
3 60 81 67
3 60 67 81
3 61 68 82
3 61 82 68
3 62 47 37
3 62 37 47
3 63 83 64
3 63 64 83
3 64 83 58
3 64 58 83
3 65 24 3
3 65 3 24
3 66 4 25
3 66 25 4
3 67 59 81
3 67 81 59
3 67 60 48
3 67 48 60
3 68 59 82
3 68 82 59
3 69 31 6
3 69 6 31
3 69 62 47
3 69 47 62
3 69 73 31
3 69 31 73
3 70 32 43
3 70 43 32
3 72 51 61
3 72 61 51
3 72 59 76
3 72 76 59
3 72 61 82
3 72 82 61
3 72 76 56
3 72 56 76
3 75 67 52
3 75 52 67
3 77 42 80
3 77 80 42
3 77 57 42
3 77 42 57
3 77 80 59
3 77 59 80
3 78 54 53
3 78 53 54
3 80 79 59
3 80 59 79
