 COFF
          84         780          84
  
  -6.3913972094830651       0.93242554629508967        5.7712168803041868       0.60000002384185791       0.60000002384185791       0.60000002384185791       0.80000001192092896     
  -6.3913972094830589      -0.93242554629508945        5.7712168803041894       0.60000002384185791       0.60000002384185791       0.60000002384185791       0.80000001192092896     
  -2.7637039897253218E-002  -1.9845213667544170        5.4146681301207567       0.60000002384185791       0.60000002384185791       0.60000002384185791       0.80000001192092896     
   7.3042840412754151      -0.93168232802976547        5.7797455926097969       0.60000002384185791       0.60000002384185791       0.60000002384185791       0.80000001192092896     
   7.3042840412754293       0.93168232802976259        5.7797455926097969       0.60000002384185791       0.60000002384185791       0.60000002384185791       0.80000001192092896     
  -2.7637039897192458E-002   1.9845213667425101        5.4146681301326618       0.60000002384185791       0.60000002384185791       0.60000002384185791       0.80000001192092896     
   1.0967029115583589       -1.6087520638055843        5.6185292239830593       0.60000002384185791       0.60000002384185791       0.60000002384185791       0.80000001192092896     
   1.0967029115560738        1.6087520637995236        5.6185292239895137       0.60000002384185791       0.60000002384185791       0.60000002384185791       0.80000001192092896     
  -1.1346620114066923        1.6054524592056545        5.5739188290007711       0.60000002384185791       0.60000002384185791       0.60000002384185791       0.80000001192092896     
  -1.1346620114062120       -1.6054524592012340        5.5739188290053781       0.60000002384185791       0.60000002384185791       0.60000002384185791       0.80000001192092896     
   1.9850828916350569       -1.2441533227200761        5.9202146086250806       0.60000002384185791       0.60000002384185791       0.60000002384185791       0.80000001192092896     
   1.9850828916348435        1.2441533227192960        5.9202146086258809       0.60000002384185791       0.60000002384185791       0.60000002384185791       0.80000001192092896     
  -2.0315281094744879        1.2748534449586206        5.8680360929692279       0.60000002384185791       0.60000002384185791       0.60000002384185791       0.80000001192092896     
  -2.0315281094760285       -1.2748534449564790        5.8680360929710584       0.60000002384185791       0.60000002384185791       0.60000002384185791       0.80000001192092896     
   3.0649413259539622       -1.1304996571923338        5.9529205319527341       0.60000002384185791       0.60000002384185791       0.60000002384185791       0.80000001192092896     
   3.0649413259575637        1.1304996571917325        5.9529205319663134       0.60000002384185791       0.60000002384185791       0.60000002384185791       0.80000001192092896     
  -3.0215012748776084        1.1377897549157310        5.8777828279795052       0.60000002384185791       0.60000002384185791       0.60000002384185791       0.80000001192092896     
  -3.0215012748799217       -1.1377897549139491        5.8777828279969313       0.60000002384185791       0.60000002384185791       0.60000002384185791       0.80000001192092896     
   4.0621163461396899       -1.0622319143384313        5.9728873695583991       0.60000002384185791       0.60000002384185791       0.60000002384185791       0.80000001192092896     
   4.0621163461431333        1.0622319143381396        5.9728873695584968       0.60000002384185791       0.60000002384185791       0.60000002384185791       0.80000001192092896     
  -4.0124332533792266        1.0176173751759030        5.9338254795908041       0.60000002384185791       0.60000002384185791       0.60000002384185791       0.80000001192092896     
  -4.0124332533819214       -1.0176173751754261        5.9338254795910510       0.60000002384185791       0.60000002384185791       0.60000002384185791       0.80000001192092896     
   5.0538394538301343       -1.1546786188333160        5.7530432861797705       0.60000002384185791       0.60000002384185791       0.60000002384185791       0.80000001192092896     
   5.0538394538317286        1.1546786188333849        5.7530432861806515       0.60000002384185791       0.60000002384185791       0.60000002384185791       0.80000001192092896     
   6.0752416817981860       -1.1164716151722061        5.7166063559063414       0.60000002384185791       0.60000002384185791       0.60000002384185791       0.80000001192092896     
   6.0752416817981869        1.1164716151722029        5.7166063559063423       0.60000002384185791       0.60000002384185791       0.60000002384185791       0.80000001192092896     
  -5.0086269064737978        1.0559765318848884        5.7938410052952172       0.60000002384185791       0.60000002384185791       0.60000002384185791       0.80000001192092896     
  -5.0086269064737916       -1.0559765318848544        5.7938410052952500       0.60000002384185791       0.60000002384185791       0.60000002384185791       0.80000001192092896     
  -1.2200277016837269       -1.5676586477862138        4.6572695894061260       0.60000002384185791       0.60000002384185791       0.60000002384185791       0.80000001192092896     
  -2.0961908719256690       0.87884263252198958        3.5244675686484337       0.60000002384185791       0.60000002384185791       0.60000002384185791       0.80000001192092896     
  -2.0961908774619267      -0.87884262774687172        3.5244675674936587       0.60000002384185791       0.60000002384185791       0.60000002384185791       0.80000001192092896     
   1.2268477082182889       -1.5529538596194048        4.5119504202512939       0.60000002384185791       0.60000002384185791       0.60000002384185791       0.80000001192092896     
   1.2268477081699414        1.5529538596561829        4.5119504203016927       0.60000002384185791       0.60000002384185791       0.60000002384185791       0.80000001192092896     
  -2.4521081194479413        1.1942604616370167        4.7774952580994725       0.60000002384185791       0.60000002384185791       0.60000002384185791       0.80000001192092896     
  -2.4521081195052834       -1.1942604615637595        4.7774952581086358       0.60000002384185791       0.60000002384185791       0.60000002384185791       0.80000001192092896     
   1.1661065409296937E-002  -1.7031716092674452        4.1705331626821733       0.60000002384185791       0.60000002384185791       0.60000002384185791       0.80000001192092896     
   1.1661234610764780E-002   1.7031716413486881        4.1705331625198871       0.60000002384185791       0.60000002384185791       0.60000002384185791       0.80000001192092896     
   2.4590404036567444        1.1697788565766254        4.8115387010373851       0.60000002384185791       0.60000002384185791       0.60000002384185791       0.80000001192092896     
   4.1015276483803547       -1.1063829822188205        5.2385098112145627       0.60000002384185791       0.60000002384185791       0.60000002384185791       0.80000001192092896     
 -0.93511059885568737       -1.5200214961987426        3.7243459866937081       0.60000002384185791       0.60000002384185791       0.60000002384185791       0.80000001192092896     
 -0.93511061339058166        1.5200215329975684        3.7243459845885702       0.60000002384185791       0.60000002384185791       0.60000002384185791       0.80000001192092896     
  -1.4964853477739255      -0.88673144060612130        2.1316970294055699       0.60000002384185791       0.60000002384185791       0.60000002384185791       0.80000001192092896     
  -1.4964852712143908       0.88673150956804236        2.1316971303458021       0.60000002384185791       0.60000002384185791       0.60000002384185791       0.80000001192092896     
   1.0619046791198301        1.4976493754872995        3.3752924392463708       0.60000002384185791       0.60000002384185791       0.60000002384185791       0.80000001192092896     
   1.0619046837015849       -1.4976493375562094        3.3752924380206890       0.60000002384185791       0.60000002384185791       0.60000002384185791       0.80000001192092896     
   4.1015276483833984        1.1063829822163549        5.2385098112139454       0.60000002384185791       0.60000002384185791       0.60000002384185791       0.80000001192092896     
  -4.0173897940858243        1.0144709729940706        5.2202241013852948       0.60000002384185791       0.60000002384185791       0.60000002384185791       0.80000001192092896     
   2.2526284931385434        2.4671785660680574E-011   3.7943256032536365       0.60000002384185791       0.60000002384185791       0.60000002384185791       0.80000001192092896     
   1.5005606287454121        1.1127244952945909        3.0065288321975299       0.60000002384185791       0.60000002384185791       0.60000002384185791       0.80000001192092896     
   1.5005606272169822       -1.1127244941966126        3.0065288323722390       0.60000002384185791       0.60000002384185791       0.60000002384185791       0.80000001192092896     
  0.10757905849479237        1.5749797782651158        3.1608612537628940       0.60000002384185791       0.60000002384185791       0.60000002384185791       0.80000001192092896     
  0.10756691425569627       -1.5748148349457787        3.1608613012638700       0.60000002384185791       0.60000002384185791       0.60000002384185791       0.80000001192092896     
   1.7377780040409898        1.0327435389399500E-010   2.7712076757187232       0.60000002384185791       0.60000002384185791       0.60000002384185791       0.80000001192092896     
   5.1588124053421751      -0.75053826025465686        4.0352256057235740        1.0000000000000000        1.0000000000000000        0.0000000000000000        1.0000000000000000     
   5.1588124053421884       0.75053826025465475        4.0352256057235740        1.0000000000000000        1.0000000000000000        0.0000000000000000        1.0000000000000000     
  -3.0431669657457441        1.3638703158694618E-011   4.2842714137095372       0.60000002384185791       0.60000002384185791       0.60000002384185791       0.80000001192092896     
 -0.62299726077878981       -1.3978587614055249        2.8936852440472225       0.60000002384185791       0.60000002384185791       0.60000002384185791       0.80000001192092896     
 -0.62299738257798487        1.3978596684819400        2.8936851120415281       0.60000002384185791       0.60000002384185791       0.60000002384185791       0.80000001192092896     
  -4.0173897940793299       -1.0144709729850980        5.2202241013784496       0.60000002384185791       0.60000002384185791       0.60000002384185791       0.80000001192092896     
  0.11209801759736733        4.8475549965595904E-010   1.0535609148389919        1.0000000000000000        1.0000000000000000        0.0000000000000000        1.0000000000000000     
  0.92480089603047189        1.3303203874941303        2.4322596481591314       0.60000002384185791       0.60000002384185791       0.60000002384185791       0.80000001192092896     
  0.92480122270273435       -1.3303198933480747        2.4322596674640682       0.60000002384185791       0.60000002384185791       0.60000002384185791       0.80000001192092896     
   2.9899345557244690        6.6912926150376710E-014   4.2810482844392723       0.60000002384185791       0.60000002384185791       0.60000002384185791       0.80000001192092896     
  -5.0786535452610106       0.81545346677952657        4.6069091304059731        1.0000000000000000        1.0000000000000000        0.0000000000000000        1.0000000000000000     
  -5.0786535452610027      -0.81545346677952968        4.6069091304059739        1.0000000000000000        1.0000000000000000        0.0000000000000000        1.0000000000000000     
   6.5638238407014482      -0.96308026099833299        5.1101603761289205       0.60000002384185791       0.60000002384185791       0.60000002384185791       0.80000001192092896     
   6.5638238407014526       0.96308026099833055        5.1101603761289205       0.60000002384185791       0.60000002384185791       0.60000002384185791       0.80000001192092896     
   1.2651051854076589       0.84994221074333254        2.1254207320475720       0.60000002384185791       0.60000002384185791       0.60000002384185791       0.80000001192092896     
   1.2651051766781474      -0.84994220927832098        2.1254207336430180       0.60000002384185791       0.60000002384185791       0.60000002384185791       0.80000001192092896     
   2.4590404036489764       -1.1697788565829172        4.8115387010242943       0.60000002384185791       0.60000002384185791       0.60000002384185791       0.80000001192092896     
   1.7099099728426479        1.3678549278106844        3.9695360698376989       0.60000002384185791       0.60000002384185791       0.60000002384185791       0.80000001192092896     
  0.13683273265531626        1.3466588963557438        2.2378443483794608       0.60000002384185791       0.60000002384185791       0.60000002384185791       0.80000001192092896     
  0.13683316774477028       -1.3466582887824756        2.2378444006307938       0.60000002384185791       0.60000002384185791       0.60000002384185791       0.80000001192092896     
   1.7099099753795914       -1.3678549274052549        3.9695360709630214       0.60000002384185791       0.60000002384185791       0.60000002384185791       0.80000001192092896     
  -1.2200277017638208        1.5676586478577925        4.6572695893501264       0.60000002384185791       0.60000002384185791       0.60000002384185791       0.80000001192092896     
   1.3710575574308301        3.9147914780579684E-010   1.9602909600903400       0.60000002384185791       0.60000002384185791       0.60000002384185791       0.80000001192092896     
 -0.30144601344018390       -1.1037495560550445        1.9181287165925642       0.60000002384185791       0.60000002384185791       0.60000002384185791       0.80000001192092896     
 -0.30144595312462169        1.1037495737712688        1.9181287589886280       0.60000002384185791       0.60000002384185791       0.60000002384185791       0.80000001192092896     
   4.1013168387805248        6.3811012177519202E-013   5.0577153855315364       0.60000002384185791       0.60000002384185791       0.60000002384185791       0.80000001192092896     
 -0.99141730109667181      -0.47894509023511211        1.5241929207422020       0.60000002384185791       0.60000002384185791       0.60000002384185791       0.80000001192092896     
 -0.99141729619281871       0.47894509430712540        1.5241929235689311       0.60000002384185791       0.60000002384185791       0.60000002384185791       0.80000001192092896     
  0.57590724781759639       0.75482841169953829        1.7167871835236337       0.60000002384185791       0.60000002384185791       0.60000002384185791       0.80000001192092896     
  0.57590724950938232      -0.75482839812897373        1.7167871915624062       0.60000002384185791       0.60000002384185791       0.60000002384185791       0.80000001192092896     
  -4.0173810913930659       -9.0323824596871078E-012   5.2012147188069759       0.60000002384185791       0.60000002384185791       0.60000002384185791       0.80000001192092896     
  
   3   0  26  63
   3   0  63  26
   4   0  63  64   1
   3   1  64  27
   4   1  64  63   0
   3   1  27  64
   3   2  35  28
   3   2  35  31
   3   2  31  35
   3   2  31   6
   3   2   6  31
   3   2   9  28
   3   2  28  35
   3   2  28   9
   3   3  24  65
   3   3  65  24
   4   3  65  66   4
   3   4  66  25
   4   4  66  65   3
   3   4  25  66
   3   5   7  32
   3   5  32  36
   3   5  32   7
   3   5  36  32
   3   5  36  74
   3   5  74  36
   3   5  74   8
   3   5   8  74
   3   6   2  31
   3   6  31   2
   3   6  31  69
   3   6  69  10
   3   6  69  31
   3   6  10  69
   3   7  11  37
   3   7  37  32
   3   7  37  11
   3   7  32  37
   3   7  32   5
   3   7   5  32
   3   8   5  74
   3   8  74   5
   3   8  74  33
   3   8  33  12
   3   8  33  74
   3   8  12  33
   3   9  13  34
   3   9  34  28
   3   9  34  13
   3   9  28  34
   3   9  28   2
   3   9   2  28
   3  10   6  69
   3  10  69  14
   3  10  69   6
   3  10  14  69
   3  11  15  37
   3  11  37   7
   3  11  37  15
   3  11   7  37
   3  12   8  33
   3  12  33  16
   3  12  33   8
   3  12  16  33
   3  13  17  34
   3  13  34   9
   3  13  34  17
   3  13   9  34
   3  14  10  69
   3  14  69  38
   3  14  69  10
   3  14  38  18
   3  14  38  69
   3  14  18  38
   3  15  19  45
   3  15  45  37
   3  15  45  19
   3  15  37  45
   3  15  37  11
   3  15  11  37
   3  16  12  33
   3  16  33  46
   3  16  33  12
   3  16  46  20
   3  16  46  33
   3  16  20  46
   3  17  21  58
   3  17  58  34
   3  17  58  21
   3  17  34  58
   3  17  34  13
   3  17  13  34
   3  18  14  38
   3  18  38  22
   3  18  38  14
   3  18  22  38
   3  19  23  45
   3  19  45  15
   3  19  45  23
   3  19  15  45
   3  20  16  46
   3  20  46  26
   3  20  46  16
   3  20  26  46
   3  21  27  58
   3  21  58  17
   3  21  58  27
   3  21  17  58
   3  22  18  38
   3  22  38  53
   3  22  38  18
   3  22  53  24
   3  22  53  38
   3  22  24  53
   3  23  25  54
   3  23  54  45
   3  23  54  25
   3  23  45  54
   3  23  45  19
   3  23  19  45
   3  24  22  53
   3  24  53  65
   3  24  53  22
   3  24  65   3
   3  24  65  53
   3  24   3  65
   3  25   4  66
   3  25  66   4
   3  25  66  54
   3  25  54  66
   3  25  54  23
   3  25  23  54
   3  26  20  46
   3  26  46  63
   3  26  46  20
   3  26  63   0
   3  26  63  46
   3  26   0  63
   3  27   1  64
   3  27  64   1
   3  27  64  58
   3  27  58  64
   3  27  58  21
   3  27  21  58
   3  28  34  39
   3  28  34   9
   3  28  39  35
   3  28  39  34
   3  28  35  39
   3  28  35   2
   3  28   2  35
   3  28   2   9
   3  28   9  34
   3  28   9   2
   3  29  33  40
   3  29  33  55
   3  29  40  33
   3  29  40  57
   3  29  57  42
   3  29  57  40
   3  29  42  57
   4  29  42  41  30
   3  29  30  55
   4  29  30  41  42
   3  29  55  30
   3  29  55  33
   3  30  34  55
   3  30  34  39
   3  30  55  29
   3  30  55  34
   3  30  29  55
   4  30  29  42  41
   3  30  41  56
   4  30  41  42  29
   3  30  56  39
   3  30  56  41
   3  30  39  34
   3  30  39  56
   3  31   2  35
   3  31   2   6
   3  31  35  44
   3  31  35   2
   3  31  44  73
   3  31  44  35
   3  31  73  69
   3  31  73  44
   3  31  69   6
   3  31  69  73
   3  31   6   2
   3  31   6  69
   3  32  37  70
   3  32  37   7
   3  32  70  37
   3  32  70  43
   3  32  43  36
   3  32  43  70
   3  32  36  43
   3  32  36   5
   3  32   5   7
   3  32   5  36
   3  32   7  37
   3  32   7   5
   3  33  46  16
   3  33  46  55
   3  33  16  12
   3  33  16  46
   3  33  12   8
   3  33  12  16
   3  33   8  74
   3  33   8  12
   3  33  74  40
   3  33  74   8
   3  33  40  29
   3  33  40  74
   3  33  29  40
   3  33  29  55
   3  33  55  29
   3  33  55  46
   3  34  58  55
   3  34  58  17
   3  34  55  30
   3  34  55  58
   3  34  30  55
   3  34  30  39
   3  34  39  28
   3  34  39  30
   3  34  28  39
   3  34  28   9
   3  34   9  13
   3  34   9  28
   3  34  13  17
   3  34  13   9
   3  34  17  58
   3  34  17  13
   3  35  28  39
   3  35  28   2
   3  35  39  28
   3  35  39  51
   3  35  51  44
   3  35  51  39
   3  35  44  31
   3  35  44  51
   3  35  31   2
   3  35  31  44
   3  35   2  31
   3  35   2  28
   3  36  32  43
   3  36  32   5
   3  36  43  32
   3  36  43  50
   3  36  50  40
   3  36  50  43
   3  36  40  74
   3  36  40  50
   3  36  74   5
   3  36  74  40
   3  36   5  32
   3  36   5  74
   3  37  45  62
   3  37  45  15
   3  37  62  47
   3  37  62  45
   3  37  47  62
   3  37  47  70
   3  37  70  47
   3  37  70  32
   3  37  32  70
   3  37  32   7
   3  37   7  11
   3  37   7  32
   3  37  11  15
   3  37  11   7
   3  37  15  45
   3  37  15  11
   3  38  53  22
   3  38  53  78
   3  38  22  18
   3  38  22  53
   3  38  18  14
   3  38  18  22
   3  38  14  69
   3  38  14  18
   3  38  69  14
   3  38  69  62
   3  38  62  78
   3  38  62  69
   3  38  78  62
   3  38  78  53
   3  39  35  28
   3  39  35  51
   3  39  28  34
   3  39  28  35
   3  39  34  30
   3  39  34  28
   3  39  30  34
   3  39  30  56
   3  39  56  51
   3  39  56  30
   3  39  51  35
   3  39  51  56
   3  40  29  33
   3  40  29  57
   3  40  33  74
   3  40  33  29
   3  40  74  36
   3  40  74  33
   3  40  36  50
   3  40  36  74
   3  40  50  36
   3  40  50  57
   3  40  57  29
   3  40  57  50
   3  41  76  56
   4  41  76  59  79
   3  41  56  30
   3  41  56  76
   3  41  30  56
   4  41  30  29  42
   3  42  29  57
   4  42  29  30  41
   3  42  57  29
   3  42  57  77
   3  42  77  57
   4  42  77  59  80
   3  43  36  32
   3  43  36  50
   3  43  32  70
   3  43  32  36
   3  43  70  48
   3  43  70  32
   3  43  48  70
   3  43  48  60
   3  43  60  48
   3  43  60  50
   3  43  50  36
   3  43  50  60
   3  44  73  49
   3  44  73  31
   3  44  31  35
   3  44  31  73
   3  44  35  51
   3  44  35  31
   3  44  51  35
   3  44  51  61
   3  44  61  51
   3  44  61  49
   3  44  49  73
   3  44  49  61
   3  45  54  78
   3  45  54  23
   3  45  78  62
   3  45  78  54
   3  45  62  37
   3  45  62  78
   3  45  37  62
   3  45  37  15
   3  45  15  19
   3  45  15  37
   3  45  19  23
   3  45  19  15
   3  45  23  54
   3  45  23  19
   3  46  63  26
   3  46  63  83
   3  46  26  20
   3  46  26  63
   3  46  20  16
   3  46  20  26
   3  46  16  33
   3  46  16  20
   3  46  33  16
   3  46  33  55
   3  46  55  83
   3  46  55  33
   3  46  83  55
   3  46  83  63
   3  47  37  62
   3  47  37  70
   3  47  62  37
   3  47  62  69
   3  47  69  73
   3  47  69  62
   3  47  73  49
   3  47  73  69
   3  47  49  73
   3  47  49  52
   3  47  52  48
   3  47  52  49
   3  47  48  70
   3  47  48  52
   3  47  70  37
   3  47  70  48
   3  48  43  70
   3  48  43  60
   3  48  70  47
   3  48  70  43
   3  48  47  52
   3  48  47  70
   3  48  52  47
   3  48  52  67
   3  48  67  52
   3  48  67  60
   3  48  60  67
   3  48  60  43
   3  49  47  73
   3  49  47  52
   3  49  73  47
   3  49  73  44
   3  49  44  73
   3  49  44  61
   3  49  61  68
   3  49  61  44
   3  49  68  61
   3  49  68  52
   3  49  52  47
   3  49  52  68
   3  50  40  36
   3  50  40  57
   3  50  36  43
   3  50  36  40
   3  50  43  36
   3  50  43  60
   3  50  60  71
   3  50  60  43
   3  50  71  60
   3  50  71  57
   3  50  57  40
   3  50  57  71
   3  51  44  35
   3  51  44  61
   3  51  35  39
   3  51  35  44
   3  51  39  35
   3  51  39  56
   3  51  56  39
   3  51  56  72
   3  51  72  56
   3  51  72  61
   3  51  61  72
   3  51  61  44
   3  52  48  47
   3  52  48  67
   3  52  47  49
   3  52  47  48
   3  52  49  47
   3  52  49  68
   3  52  68  75
   3  52  68  49
   3  52  75  68
   3  52  75  67
   3  52  67  75
   3  52  67  48
   3  53  65  24
   4  53  65  66  54
   3  53  24  22
   3  53  24  65
   3  53  22  38
   3  53  22  24
   3  53  38  22
   3  53  38  78
   3  53  78  54
   3  53  78  38
   3  53  54  78
   4  53  54  66  65
   3  54  66  25
   4  54  66  65  53
   3  54  53  78
   4  54  53  65  66
   3  54  78  45
   3  54  78  53
   3  54  45  78
   3  54  45  23
   3  54  23  25
   3  54  23  45
   3  54  25  66
   3  54  25  23
   3  55  29  33
   3  55  29  30
   3  55  30  34
   3  55  30  29
   3  55  34  58
   3  55  34  30
   3  55  58  83
   3  55  58  34
   3  55  83  58
   3  55  83  46
   3  55  46  33
   3  55  46  83
   3  55  33  46
   3  55  33  29
   3  56  51  39
   3  56  51  72
   3  56  39  30
   3  56  39  51
   3  56  30  41
   3  56  30  39
   3  56  41  76
   3  56  41  30
   3  56  76  41
   3  56  76  72
   3  56  72  76
   3  56  72  51
   3  57  42  29
   3  57  42  77
   3  57  29  40
   3  57  29  42
   3  57  40  29
   3  57  40  50
   3  57  50  40
   3  57  50  71
   3  57  71  77
   3  57  71  50
   3  57  77  71
   3  57  77  42
   3  58  64  83
   3  58  64  27
   3  58  83  55
   3  58  83  64
   3  58  55  34
   3  58  55  83
   3  58  34  55
   3  58  34  17
   3  58  17  21
   3  58  17  34
   3  58  21  27
   3  58  21  17
   3  58  27  64
   3  58  27  21
   3  59  71  81
   3  59  71  77
   3  59  81  71
   3  59  81  67
   3  59  67  75
   3  59  67  81
   3  59  75  68
   3  59  75  67
   3  59  68  82
   3  59  68  75
   3  59  82  68
   3  59  82  72
   3  59  72  76
   3  59  72  82
   3  59  76  72
   4  59  76  41  79
   3  59  79  80
   4  59  79  41  76
   3  59  80  79
   4  59  80  42  77
   3  59  77  71
   4  59  77  42  80
   3  60  48  43
   3  60  48  67
   3  60  67  81
   3  60  67  48
   3  60  81  71
   3  60  81  67
   3  60  71  81
   3  60  71  50
   3  60  50  43
   3  60  50  71
   3  60  43  48
   3  60  43  50
   3  61  51  44
   3  61  51  72
   3  61  72  82
   3  61  72  51
   3  61  82  68
   3  61  82  72
   3  61  68  82
   3  61  68  49
   3  61  49  44
   3  61  49  68
   3  61  44  51
   3  61  44  49
   3  62  47  37
   3  62  47  69
   3  62  37  45
   3  62  37  47
   3  62  45  78
   3  62  45  37
   3  62  78  45
   3  62  78  38
   3  62  38  69
   3  62  38  78
   3  62  69  38
   3  62  69  47
   3  63   0  26
   4  63   0   1  64
   3  63  26  46
   3  63  26   0
   3  63  46  26
   3  63  46  83
   3  63  83  64
   3  63  83  46
   3  63  64  83
   4  63  64   1   0
   3  64   1  27
   4  64   1   0  63
   3  64  63  83
   4  64  63   0   1
   3  64  83  58
   3  64  83  63
   3  64  58  83
   3  64  58  27
   3  64  27   1
   3  64  27  58
   3  65   3  24
   4  65   3   4  66
   3  65  24  53
   3  65  24   3
   3  65  53  24
   4  65  53  54  66
   3  66   4  25
   4  66   4   3  65
   3  66  54  25
   4  66  54  53  65
   3  66  25   4
   3  66  25  54
   3  67  52  48
   3  67  52  75
   3  67  75  59
   3  67  75  52
   3  67  59  81
   3  67  59  75
   3  67  81  60
   3  67  81  59
   3  67  60  48
   3  67  60  81
   3  67  48  52
   3  67  48  60
   3  68  61  82
   3  68  61  49
   3  68  82  61
   3  68  82  59
   3  68  59  75
   3  68  59  82
   3  68  75  59
   3  68  75  52
   3  68  52  49
   3  68  52  75
   3  68  49  61
   3  68  49  52
   3  69  38  14
   3  69  38  62
   3  69  14  10
   3  69  14  38
   3  69  10   6
   3  69  10  14
   3  69   6  31
   3  69   6  10
   3  69  31  73
   3  69  31   6
   3  69  73  47
   3  69  73  31
   3  69  47  62
   3  69  47  73
   3  69  62  47
   3  69  62  38
   3  70  37  47
   3  70  37  32
   3  70  47  37
   3  70  47  48
   3  70  48  43
   3  70  48  47
   3  70  43  32
   3  70  43  48
   3  70  32  37
   3  70  32  43
   3  71  60  81
   3  71  60  50
   3  71  81  60
   3  71  81  59
   3  71  59  81
   3  71  59  77
   3  71  77  59
   3  71  77  57
   3  71  57  50
   3  71  57  77
   3  71  50  60
   3  71  50  57
   3  72  56  51
   3  72  56  76
   3  72  76  59
   3  72  76  56
   3  72  59  82
   3  72  59  76
   3  72  82  61
   3  72  82  59
   3  72  61  51
   3  72  61  82
   3  72  51  56
   3  72  51  61
   3  73  49  47
   3  73  49  44
   3  73  47  69
   3  73  47  49
   3  73  69  31
   3  73  69  47
   3  73  31  44
   3  73  31  69
   3  73  44  31
   3  73  44  49
   3  74   5  36
   3  74   5   8
   3  74  36  40
   3  74  36   5
   3  74  40  33
   3  74  40  36
   3  74  33   8
   3  74  33  40
   3  74   8   5
   3  74   8  33
   3  75  68  59
   3  75  68  52
   3  75  59  67
   3  75  59  68
   3  75  67  52
   3  75  67  59
   3  75  52  68
   3  75  52  67
   3  76  41  56
   4  76  41  79  59
   3  76  59  72
   4  76  59  79  41
   3  76  72  56
   3  76  72  59
   3  76  56  41
   3  76  56  72
   3  77  71  59
   3  77  71  57
   3  77  59  71
   4  77  59  80  42
   3  77  42  57
   4  77  42  80  59
   3  77  57  42
   3  77  57  71
   3  78  62  45
   3  78  62  38
   3  78  45  54
   3  78  45  62
   3  78  54  53
   3  78  54  45
   3  78  53  38
   3  78  53  54
   3  78  38  53
   3  78  38  62
   3  79  80  59
   4  79  80  42  41
   3  79  59  80
   4  79  59  76  41
   3  80  59  79
   4  80  59  77  42
   3  80  79  59
   4  80  79  41  42
   3  81  71  60
   3  81  71  59
   3  81  60  67
   3  81  60  71
   3  81  67  59
   3  81  67  60
   3  81  59  71
   3  81  59  67
   3  82  68  61
   3  82  68  59
   3  82  61  72
   3  82  61  68
   3  82  72  59
   3  82  72  61
   3  82  59  68
   3  82  59  72
   3  83  55  58
   3  83  55  46
   3  83  58  64
   3  83  58  55
   3  83  64  63
   3  83  64  58
   3  83  63  46
   3  83  63  64
   3  83  46  63
   3  83  46  55
