# Generated by dad_to_polygons. Vertex data from Humppa's .off file,
# polygons parsed from .dad file.
COFF
102 346 102
-6.488665 1.023171 6.060343 0.500000 0.500000 0.500000 1.0
-6.488665 -1.023171 6.060343 0.500000 0.500000 0.500000 1.0
-0.027808 -2.028431 5.771917 0.500000 0.500000 0.500000 1.0
7.366678 -0.984268 6.106351 0.500000 0.500000 0.500000 1.0
7.366678 0.984268 6.106351 0.500000 0.500000 0.500000 1.0
-0.027808 2.028431 5.771917 0.500000 0.500000 0.500000 1.0
1.111381 -1.648258 5.980809 0.500000 0.500000 0.500000 1.0
1.111381 1.648258 5.980809 0.500000 0.500000 0.500000 1.0
-1.143533 1.645730 5.935516 0.500000 0.500000 0.500000 1.0
-1.143533 -1.645730 5.935516 0.500000 0.500000 0.500000 1.0
1.994956 -1.283707 6.289073 0.500000 0.500000 0.500000 1.0
1.994956 1.283707 6.289073 0.500000 0.500000 0.500000 1.0
-2.036651 1.313008 6.238452 0.500000 0.500000 0.500000 1.0
-2.036651 -1.313008 6.238452 0.500000 0.500000 0.500000 1.0
3.065965 -1.185994 6.307648 0.500000 0.500000 0.500000 1.0
3.065965 1.185994 6.307648 0.500000 0.500000 0.500000 1.0
-3.028642 1.191236 6.232668 0.500000 0.500000 0.500000 1.0
-3.028642 -1.191236 6.232668 0.500000 0.500000 0.500000 1.0
4.063887 -1.127399 6.318122 0.500000 0.500000 0.500000 1.0
4.063887 1.127399 6.318122 0.500000 0.500000 0.500000 1.0
-4.022325 1.100077 6.294826 0.500000 0.500000 0.500000 1.0
-4.022325 -1.100077 6.294826 0.500000 0.500000 0.500000 1.0
5.060384 -1.269074 6.051291 0.500000 0.500000 0.500000 1.0
5.060384 1.269074 6.051291 0.500000 0.500000 0.500000 1.0
6.091591 -1.224173 6.027226 0.500000 0.500000 0.500000 1.0
6.091591 1.224173 6.027226 0.500000 0.500000 0.500000 1.0
-5.007841 1.178537 6.085726 0.500000 0.500000 0.500000 1.0
-5.007841 -1.178537 6.085726 0.500000 0.500000 0.500000 1.0
-6.843760 0.000000 6.053086 0.500000 0.500000 0.500000 1.0
-2.141867 0.918472 3.825074 0.500000 0.500000 0.500000 1.0
-2.141867 -0.918472 3.825074 0.500000 0.500000 0.500000 1.0
1.247299 -1.597027 4.854366 0.500000 0.500000 0.500000 1.0
1.247299 1.597027 4.854366 0.500000 0.500000 0.500000 1.0
-2.479034 1.244515 5.122185 0.500000 0.500000 0.500000 1.0
-2.479034 -1.244515 5.122185 0.500000 0.500000 0.500000 1.0
0.014321 -1.746435 4.493575 0.500000 0.500000 0.500000 1.0
0.014321 1.746439 4.493575 0.500000 0.500000 0.500000 1.0
2.490361 1.222167 5.150622 0.500000 0.500000 0.500000 1.0
4.110149 -1.165945 5.529430 0.500000 0.500000 0.500000 1.0
-0.988071 -1.560599 4.064428 0.500000 0.500000 0.500000 1.0
-0.988071 1.560599 4.064428 0.500000 0.500000 0.500000 1.0
-1.551720 -0.944750 2.388707 0.500000 0.500000 0.500000 1.0
-1.551721 0.944750 2.388707 0.500000 0.500000 0.500000 1.0
1.094830 1.543712 3.691431 0.500000 0.500000 0.500000 1.0
1.094830 -1.543712 3.691431 0.500000 0.500000 0.500000 1.0
4.110149 1.165945 5.529430 0.500000 0.500000 0.500000 1.0
-4.034156 1.108649 5.543939 0.500000 0.500000 0.500000 1.0
2.334064 0.000000 4.108507 0.500000 0.500000 0.500000 1.0
1.546444 1.160462 3.305201 0.500000 0.500000 0.500000 1.0
1.546444 -1.160462 3.305201 0.500000 0.500000 0.500000 1.0
0.114753 1.619122 3.452824 0.500000 0.500000 0.500000 1.0
0.114714 -1.618994 3.452824 0.500000 0.500000 0.500000 1.0
1.808611 -0.000000 3.031835 0.500000 0.500000 0.500000 1.0
5.164904 -0.750332 4.035226 1.0 1.0 0.0 1.0
5.164904 0.750332 4.035226 1.0 1.0 0.0 1.0
-3.191102 -0.000000 4.587257 0.500000 0.500000 0.500000 1.0
-0.717972 -1.434638 3.207802 0.500000 0.500000 0.500000 1.0
-0.717972 1.434637 3.207802 0.500000 0.500000 0.500000 1.0
-4.034156 -1.108649 5.543939 0.500000 0.500000 0.500000 1.0
0.145173 -0.000000 1.053561 1.0 1.0 0.0 1.0
0.978983 1.403380 2.722670 0.500000 0.500000 0.500000 1.0
0.978983 -1.403380 2.722670 0.500000 0.500000 0.500000 1.0
3.108920 0.000000 4.517317 0.500000 0.500000 0.500000 1.0
-5.060349 0.815357 4.606909 1.0 1.0 0.0 1.0
-5.060349 -0.815357 4.606909 1.0 1.0 0.0 1.0
6.675322 -1.088034 5.411322 0.500000 0.500000 0.500000 1.0
6.675322 1.088034 5.411322 0.500000 0.500000 0.500000 1.0
1.340756 0.931891 2.363866 0.500000 0.500000 0.500000 1.0
1.340756 -0.931891 2.363866 0.500000 0.500000 0.500000 1.0
2.490361 -1.222167 5.150622 0.500000 0.500000 0.500000 1.0
1.736813 1.412695 4.291923 0.500000 0.500000 0.500000 1.0
0.193122 1.445341 2.475228 0.500000 0.500000 0.500000 1.0
0.193123 -1.445341 2.475228 0.500000 0.500000 0.500000 1.0
1.736813 -1.412695 4.291923 0.500000 0.500000 0.500000 1.0
-1.235364 1.611212 5.003932 0.500000 0.500000 0.500000 1.0
1.505833 -0.000000 2.208387 0.500000 0.500000 0.500000 1.0
-0.388999 -1.278956 2.145294 0.500000 0.500000 0.500000 1.0
-0.388999 1.278956 2.145294 0.500000 0.500000 0.500000 1.0
4.123664 0.000000 5.316022 0.500000 0.500000 0.500000 1.0
-1.258923 -0.637441 1.613311 0.500000 0.500000 0.500000 1.0
-1.258923 0.637441 1.613311 0.500000 0.500000 0.500000 1.0
0.749678 1.026568 1.881484 0.500000 0.500000 0.500000 1.0
0.749678 -1.026568 1.881484 0.500000 0.500000 0.500000 1.0
-4.034239 0.000000 5.384911 0.500000 0.500000 0.500000 1.0
5.759351 -1.126352 5.128872 0.500000 0.500000 0.500000 1.0
5.759351 1.126352 5.128872 0.500000 0.500000 0.500000 1.0
6.794171 0.000000 5.327326 0.500000 0.500000 0.500000 1.0
6.124279 -0.391033 4.623545 0.500000 0.500000 0.500000 1.0
6.124279 0.391033 4.623545 0.500000 0.500000 0.500000 1.0
5.081370 -1.078084 5.070967 0.500000 0.500000 0.500000 1.0
5.081370 1.078084 5.070967 0.500000 0.500000 0.500000 1.0
5.999063 -0.920652 4.716649 0.500000 0.500000 0.500000 1.0
5.999063 0.920652 4.716649 0.500000 0.500000 0.500000 1.0
-1.235364 -1.611212 5.003932 0.500000 0.500000 0.500000 1.0
-5.833848 0.420891 5.302602 0.500000 0.500000 0.500000 1.0
-5.833848 -0.420891 5.302602 0.500000 0.500000 0.500000 1.0
-5.808139 0.918958 5.344749 0.500000 0.500000 0.500000 1.0
-5.808139 -0.918958 5.344749 0.500000 0.500000 0.500000 1.0
0.163994 0.764766 1.752225 0.500000 0.500000 0.500000 1.0
0.163994 -0.764766 1.752225 0.500000 0.500000 0.500000 1.0
0.751513 0.467198 1.707112 0.500000 0.500000 0.500000 1.0
0.751513 -0.467198 1.707112 0.500000 0.500000 0.500000 1.0
3 0 96 28
3 0 28 96
3 2 31 35
3 2 35 31
3 2 93 35
3 2 35 93
3 3 24 65
3 3 65 24
3 3 86 65
3 3 65 86
3 4 86 3
3 4 3 86
3 4 86 66
3 4 66 86
3 5 32 36
3 5 36 32
3 6 2 31
3 6 31 2
3 6 69 10
3 6 10 69
3 7 11 37
3 7 37 11
3 7 32 5
3 7 5 32
3 7 37 32
3 7 32 37
3 8 12 33
3 8 33 12
3 11 37 15
3 11 15 37
3 12 33 16
3 12 16 33
3 13 17 34
3 13 34 17
3 13 34 9
3 13 9 34
3 14 38 18
3 14 18 38
3 14 38 69
3 14 69 38
3 14 69 10
3 14 10 69
3 16 20 46
3 16 46 20
3 16 33 46
3 16 46 33
3 17 34 58
3 17 58 34
3 17 58 21
3 17 21 58
3 18 38 22
3 18 22 38
3 19 23 45
3 19 45 23
3 19 45 15
3 19 15 45
3 23 90 45
3 23 45 90
3 23 90 85
3 23 85 90
3 24 22 84
3 24 84 22
3 24 84 65
3 24 65 84
3 25 4 66
3 25 66 4
3 25 66 85
3 25 85 66
3 25 85 23
3 25 23 85
3 26 46 20
3 26 20 46
3 26 63 46
3 26 46 63
3 26 96 0
3 26 0 96
3 27 1 97
3 27 97 1
3 27 58 21
3 27 21 58
3 27 58 64
3 27 64 58
3 27 64 97
3 27 97 64
3 28 1 97
3 28 97 1
3 28 95 94
3 28 94 95
3 28 96 94
3 28 94 96
3 28 97 95
3 28 95 97
3 29 33 40
3 29 40 33
3 29 55 33
3 29 33 55
3 29 57 40
3 29 40 57
3 29 57 42
3 29 42 57
3 30 29 42
3 30 42 29
3 30 29 55
3 30 55 29
3 30 39 34
3 30 34 39
3 30 42 41
3 30 41 42
3 30 55 34
3 30 34 55
3 31 6 69
3 31 69 6
3 31 44 73
3 31 73 44
3 31 69 73
3 31 73 69
3 32 43 70
3 32 70 43
3 34 39 93
3 34 93 39
3 34 58 55
3 34 55 58
3 34 93 9
3 34 9 93
3 35 31 44
3 35 44 31
3 37 47 70
3 37 70 47
3 37 62 47
3 37 47 62
3 38 22 89
3 38 89 22
3 38 53 89
3 38 89 53
3 38 62 78
3 38 78 62
3 38 78 53
3 38 53 78
3 39 35 51
3 39 51 35
3 39 51 56
3 39 56 51
3 40 33 74
3 40 74 33
3 40 36 50
3 40 50 36
3 40 50 57
3 40 57 50
3 41 76 56
3 41 56 76
3 42 41 79
3 42 79 41
3 42 59 80
3 42 80 59
3 42 77 59
3 42 59 77
3 42 79 80
3 42 80 79
3 43 32 36
3 43 36 32
3 43 50 60
3 43 60 50
3 44 49 73
3 44 73 49
3 44 51 35
3 44 35 51
3 44 61 49
3 44 49 61
3 44 61 51
3 44 51 61
3 45 15 37
3 45 37 15
3 45 54 90
3 45 90 54
3 45 78 62
3 45 62 78
3 46 55 33
3 46 33 55
3 46 83 55
3 46 55 83
3 47 49 52
3 47 52 49
3 47 69 62
3 47 62 69
3 47 69 73
3 47 73 69
3 48 47 52
3 48 52 47
3 48 47 70
3 48 70 47
3 48 67 60
3 48 60 67
3 48 70 43
3 48 43 70
3 49 61 68
3 49 68 61
3 50 36 43
3 50 43 36
3 50 60 71
3 50 71 60
3 52 49 68
3 52 68 49
3 52 67 48
3 52 48 67
3 52 68 75
3 52 75 68
3 52 75 67
3 52 67 75
3 53 54 88
3 53 88 54
3 53 84 91
3 53 91 84
3 53 88 87
3 53 87 88
3 53 89 84
3 53 84 89
3 54 45 78
3 54 78 45
3 54 78 53
3 54 53 78
3 54 85 92
3 54 92 85
3 54 90 85
3 54 85 90
3 56 30 39
3 56 39 30
3 56 41 30
3 56 30 41
3 56 72 51
3 56 51 72
3 57 42 77
3 57 77 42
3 57 50 71
3 57 71 50
3 58 64 83
3 58 83 64
3 59 75 100
3 59 100 75
3 59 79 80
3 59 80 79
3 59 82 101
3 59 101 82
3 59 100 81
3 59 81 100
3 59 101 75
3 59 75 101
3 60 43 48
3 60 48 43
3 61 68 82
3 61 82 68
3 61 72 82
3 61 82 72
3 62 38 69
3 62 69 38
3 62 45 37
3 62 37 45
3 63 64 83
3 63 83 64
3 63 64 95
3 63 95 64
3 63 83 46
3 63 46 83
3 63 95 94
3 63 94 95
3 63 96 26
3 63 26 96
3 64 97 95
3 64 95 97
3 65 91 84
3 65 84 91
3 66 85 92
3 66 92 85
3 66 86 92
3 66 92 86
3 67 81 60
3 67 60 81
3 67 100 75
3 67 75 100
3 68 101 75
3 68 75 101
3 70 37 32
3 70 32 37
3 71 57 77
3 71 77 57
3 72 51 61
3 72 61 51
3 72 76 56
3 72 56 76
3 72 82 99
3 72 99 82
3 73 47 49
3 73 49 47
3 74 5 36
3 74 36 5
3 74 8 5
3 74 5 8
3 74 33 8
3 74 8 33
3 74 36 40
3 74 40 36
3 76 59 79
3 76 79 59
3 76 79 41
3 76 41 79
3 76 99 72
3 76 72 99
3 77 71 98
3 77 98 71
3 81 67 100
3 81 100 67
3 81 71 60
3 81 60 71
3 81 98 71
3 81 71 98
3 83 58 55
3 83 55 58
3 84 89 22
3 84 22 89
3 86 87 91
3 86 91 87
3 86 91 65
3 86 65 91
3 87 86 88
3 87 88 86
3 87 91 53
3 87 53 91
3 88 54 92
3 88 92 54
3 88 92 86
3 88 86 92
3 93 2 9
3 93 9 2
3 93 39 35
3 93 35 39
3 94 96 63
3 94 63 96
3 98 59 77
3 98 77 59
3 98 81 59
3 98 59 81
3 99 59 76
3 99 76 59
3 99 59 82
3 99 82 59
3 101 68 82
3 101 82 68
