# Generated by dad_to_polygons. Vertex data from Humppa's .off file,
# polygons parsed from .dad file.
COFF
117 404 117
-6.596277 1.223133 6.742532 0.500000 0.500000 0.500000 1.0
-6.596277 -1.223133 6.742532 0.500000 0.500000 0.500000 1.0
-0.028188 -2.114442 6.484906 0.500000 0.500000 0.500000 1.0
7.451465 -1.099366 6.772437 0.500000 0.500000 0.500000 1.0
7.451465 1.099366 6.772437 0.500000 0.500000 0.500000 1.0
-0.028188 2.114442 6.484906 0.500000 0.500000 0.500000 1.0
1.139800 -1.727388 6.702120 0.500000 0.500000 0.500000 1.0
1.139800 1.727388 6.702120 0.500000 0.500000 0.500000 1.0
-1.160471 1.727622 6.654081 0.500000 0.500000 0.500000 1.0
-1.160471 -1.727622 6.654081 0.500000 0.500000 0.500000 1.0
2.015155 -1.364177 7.022443 0.500000 0.500000 0.500000 1.0
2.015155 1.364177 7.022443 0.500000 0.500000 0.500000 1.0
-2.046532 1.392019 6.973946 0.500000 0.500000 0.500000 1.0
-2.046532 -1.392019 6.973946 0.500000 0.500000 0.500000 1.0
3.065593 -1.297016 7.012732 0.500000 0.500000 0.500000 1.0
3.065593 1.297016 7.012732 0.500000 0.500000 0.500000 1.0
-3.041203 1.304631 6.931563 0.500000 0.500000 0.500000 1.0
-3.041203 -1.304631 6.931563 0.500000 0.500000 0.500000 1.0
4.064219 -1.250593 7.010699 0.500000 0.500000 0.500000 1.0
4.064219 1.250593 7.010699 0.500000 0.500000 0.500000 1.0
-4.037270 1.232900 6.977921 0.500000 0.500000 0.500000 1.0
-4.037270 -1.232900 6.977921 0.500000 0.500000 0.500000 1.0
5.049767 -1.444995 6.679748 0.500000 0.500000 0.500000 1.0
5.049767 1.444995 6.679748 0.500000 0.500000 0.500000 1.0
6.112324 -1.388072 6.680165 0.500000 0.500000 0.500000 1.0
6.112324 1.388072 6.680165 0.500000 0.500000 0.500000 1.0
-5.004170 1.404507 6.669043 0.500000 0.500000 0.500000 1.0
-5.004170 -1.404507 6.669043 0.500000 0.500000 0.500000 1.0
-7.819295 -0.000183 6.651755 0.500000 0.500000 0.500000 1.0
8.552170 -0.000118 6.780292 0.500000 0.500000 0.500000 1.0
-2.215157 -0.987098 4.412382 0.500000 0.500000 0.500000 1.0
1.286145 -1.680946 5.535726 0.500000 0.500000 0.500000 1.0
1.286145 1.680946 5.535726 0.500000 0.500000 0.500000 1.0
-2.530007 1.347391 5.801882 0.500000 0.500000 0.500000 1.0
-2.530007 -1.347391 5.801882 0.500000 0.500000 0.500000 1.0
0.019034 -1.831183 5.143473 0.500000 0.500000 0.500000 1.0
0.019034 1.831195 5.143473 0.500000 0.500000 0.500000 1.0
2.546591 1.315626 5.828766 0.500000 0.500000 0.500000 1.0
4.108354 -1.267457 6.101564 0.500000 0.500000 0.500000 1.0
-1.086820 -1.642712 4.730548 0.500000 0.500000 0.500000 1.0
-1.086819 1.642711 4.730548 0.500000 0.500000 0.500000 1.0
-1.612336 -0.968793 2.901209 0.500000 0.500000 0.500000 1.0
-1.612336 0.968792 2.901209 0.500000 0.500000 0.500000 1.0
1.146041 1.630649 4.332177 0.500000 0.500000 0.500000 1.0
1.146041 -1.630649 4.332177 0.500000 0.500000 0.500000 1.0
4.108353 1.267457 6.101564 0.500000 0.500000 0.500000 1.0
-4.066733 1.251204 6.116000 0.500000 0.500000 0.500000 1.0
2.456278 0.000000 4.731915 0.500000 0.500000 0.500000 1.0
1.619895 1.236324 3.906106 0.500000 0.500000 0.500000 1.0
1.619896 -1.236324 3.906106 0.500000 0.500000 0.500000 1.0
0.121462 1.704427 4.041603 0.500000 0.500000 0.500000 1.0
0.121384 -1.704586 4.041603 0.500000 0.500000 0.500000 1.0
1.901543 -0.000000 3.565398 0.500000 0.500000 0.500000 1.0
5.227363 -0.750780 4.035226 1.0 1.0 0.0 1.0
5.227363 0.750780 4.035226 1.0 1.0 0.0 1.0
-3.346656 -0.000000 5.167263 0.500000 0.500000 0.500000 1.0
-0.861991 -1.496131 3.779253 0.500000 0.500000 0.500000 1.0
-0.861991 1.496129 3.779253 0.500000 0.500000 0.500000 1.0
-4.066733 -1.251204 6.116000 0.500000 0.500000 0.500000 1.0
0.175823 -0.000000 1.053561 1.0 1.0 0.0 1.0
1.037617 1.498611 3.303103 0.500000 0.500000 0.500000 1.0
1.037555 -1.498706 3.303103 0.500000 0.500000 0.500000 1.0
3.199639 0.000000 5.016556 0.500000 0.500000 0.500000 1.0
-5.064089 0.815584 4.606909 1.0 1.0 0.0 1.0
-5.064089 -0.815584 4.606909 1.0 1.0 0.0 1.0
6.757943 -1.229855 6.113655 0.500000 0.500000 0.500000 1.0
6.757943 1.229855 6.113655 0.500000 0.500000 0.500000 1.0
1.426025 1.054362 2.893154 0.500000 0.500000 0.500000 1.0
1.426016 -1.054362 2.893154 0.500000 0.500000 0.500000 1.0
2.546591 -1.315626 5.828766 0.500000 0.500000 0.500000 1.0
1.790615 1.495643 4.929044 0.500000 0.500000 0.500000 1.0
0.243037 1.566118 3.003156 0.500000 0.500000 0.500000 1.0
0.242928 -1.566124 3.003156 0.500000 0.500000 0.500000 1.0
1.790615 -1.495643 4.929044 0.500000 0.500000 0.500000 1.0
-1.262578 1.699648 5.693905 0.500000 0.500000 0.500000 1.0
1.597017 0.000003 2.638374 0.500000 0.500000 0.500000 1.0
-0.492126 -1.378454 2.580321 0.500000 0.500000 0.500000 1.0
-0.492125 1.378452 2.580321 0.500000 0.500000 0.500000 1.0
4.123223 0.000000 5.921150 0.500000 0.500000 0.500000 1.0
-1.596613 -0.634174 2.019858 0.500000 0.500000 0.500000 1.0
-1.596614 0.634174 2.019858 0.500000 0.500000 0.500000 1.0
0.929082 1.317900 2.341844 1.000000 1.000000 1.000000 1.0
0.929081 -1.317901 2.341844 1.000000 1.000000 1.000000 1.0
-4.067042 0.000000 5.846830 0.500000 0.500000 0.500000 1.0
5.925380 -1.299802 5.643525 0.500000 0.500000 0.500000 1.0
5.925380 1.299802 5.643525 0.500000 0.500000 0.500000 1.0
7.201662 -0.000000 5.840929 0.500000 0.500000 0.500000 1.0
6.583663 -0.595629 4.822699 0.500000 0.500000 0.500000 1.0
6.583663 0.595629 4.822699 0.500000 0.500000 0.500000 1.0
5.150134 -1.334359 5.615616 0.500000 0.500000 0.500000 1.0
5.150159 1.334327 5.615616 0.500000 0.500000 0.500000 1.0
6.471556 -0.951698 5.236994 0.500000 0.500000 0.500000 1.0
6.471556 0.951698 5.236994 0.500000 0.500000 0.500000 1.0
-1.262578 -1.699648 5.693905 0.500000 0.500000 0.500000 1.0
-6.517264 0.637539 5.519422 0.500000 0.500000 0.500000 1.0
-6.517264 -0.637538 5.519422 0.500000 0.500000 0.500000 1.0
-6.255861 1.009016 5.856415 0.500000 0.500000 0.500000 1.0
-6.255861 -1.009016 5.856415 0.500000 0.500000 0.500000 1.0
0.187677 1.332499 2.097312 1.000000 1.000000 1.000000 1.0
0.187676 -1.332500 2.097312 1.000000 1.000000 1.000000 1.0
1.237471 0.805533 2.067500 1.000000 1.000000 1.000000 1.0
1.237471 -0.805534 2.067500 1.000000 1.000000 1.000000 1.0
-2.215157 0.987098 4.412382 0.500000 0.500000 0.500000 1.0
-7.058985 0.680590 6.216371 0.500000 0.500000 0.500000 1.0
-7.058985 -0.680590 6.216371 0.500000 0.500000 0.500000 1.0
4.565941 -1.022301 5.348466 0.500000 0.500000 0.500000 1.0
4.565940 1.022301 5.348466 0.500000 0.500000 0.500000 1.0
4.369891 -0.367404 4.816366 0.500000 0.500000 0.500000 1.0
4.369891 0.367404 4.816366 0.500000 0.500000 0.500000 1.0
-0.319563 -0.948541 1.846408 1.000000 1.000000 1.000000 1.0
-0.319563 0.948541 1.846408 1.000000 1.000000 1.000000 1.0
-1.824889 -0.000000 2.926393 0.500000 0.500000 0.500000 1.0
1.138576 -0.000001 1.830110 1.000000 1.000000 1.000000 1.0
-0.927510 -0.368158 1.464768 1.000000 1.000000 1.000000 1.0
-0.927510 0.368158 1.464768 1.000000 1.000000 1.000000 1.0
-5.049837 1.182466 5.679363 0.500000 0.500000 0.500000 1.0
-5.049837 -1.182466 5.679363 0.500000 0.500000 0.500000 1.0
3 0 96 103
3 0 103 96
3 0 103 28
3 0 28 103
3 1 97 27
3 1 27 97
3 2 35 31
3 2 31 35
3 3 29 86
3 3 86 29
3 3 65 86
3 3 86 65
3 4 86 29
3 4 29 86
3 5 7 32
3 5 32 7
3 5 32 36
3 5 36 32
3 6 2 31
3 6 31 2
3 6 69 10
3 6 10 69
3 7 32 37
3 7 37 32
3 7 37 11
3 7 11 37
3 8 5 74
3 8 74 5
3 8 12 33
3 8 33 12
3 8 74 33
3 8 33 74
3 9 93 2
3 9 2 93
3 12 16 33
3 12 33 16
3 13 34 9
3 13 9 34
3 14 38 18
3 14 18 38
3 14 69 10
3 14 10 69
3 15 11 37
3 15 37 11
3 15 37 45
3 15 45 37
3 16 20 46
3 16 46 20
3 16 46 33
3 16 33 46
3 17 34 13
3 17 13 34
3 18 38 22
3 18 22 38
3 19 45 23
3 19 23 45
3 22 38 89
3 22 89 38
3 24 65 3
3 24 3 65
3 25 66 4
3 25 4 66
3 25 66 85
3 25 85 66
3 25 85 23
3 25 23 85
3 26 96 0
3 26 0 96
3 26 96 115
3 26 115 96
3 27 58 21
3 27 21 58
3 27 116 58
3 27 58 116
3 28 94 103
3 28 103 94
3 28 95 94
3 28 94 95
3 30 34 39
3 30 39 34
3 30 39 56
3 30 56 39
3 30 41 111
3 30 111 41
3 30 55 34
3 30 34 55
3 30 55 102
3 30 102 55
3 31 44 35
3 31 35 44
3 31 73 44
3 31 44 73
3 31 73 69
3 31 69 73
3 32 43 36
3 32 36 43
3 32 43 70
3 32 70 43
3 33 40 74
3 33 74 40
3 33 40 102
3 33 102 40
3 33 46 55
3 33 55 46
3 33 55 102
3 33 102 55
3 34 58 55
3 34 55 58
3 34 93 9
3 34 9 93
3 35 39 51
3 35 51 39
3 35 51 44
3 35 44 51
3 36 40 74
3 36 74 40
3 36 74 5
3 36 5 74
3 37 47 62
3 37 62 47
3 37 70 32
3 37 32 70
3 37 70 47
3 37 47 70
3 38 62 69
3 38 69 62
3 38 62 78
3 38 78 62
3 38 78 105
3 38 105 78
3 38 89 105
3 38 105 89
3 39 56 51
3 39 51 56
3 40 57 50
3 40 50 57
3 40 102 57
3 40 57 102
3 41 56 30
3 41 30 56
3 41 56 76
3 41 76 56
3 41 76 109
3 41 109 76
3 42 80 110
3 42 110 80
3 42 111 102
3 42 102 111
3 43 36 50
3 43 50 36
3 43 48 70
3 43 70 48
3 43 60 50
3 43 50 60
3 44 61 51
3 44 51 61
3 44 73 49
3 44 49 73
3 45 15 19
3 45 19 15
3 45 62 78
3 45 78 62
3 45 90 23
3 45 23 90
3 46 20 26
3 46 26 20
3 46 55 83
3 46 83 55
3 47 48 70
3 47 70 48
3 47 49 73
3 47 73 49
3 48 43 60
3 48 60 43
3 48 52 47
3 48 47 52
3 48 67 52
3 48 52 67
3 49 52 47
3 49 47 52
3 49 61 44
3 49 44 61
3 49 68 52
3 49 52 68
3 50 40 36
3 50 36 40
3 50 60 71
3 50 71 60
3 50 71 57
3 50 57 71
3 51 56 72
3 51 72 56
3 51 72 61
3 51 61 72
3 52 75 68
3 52 68 75
3 53 84 91
3 53 91 84
3 53 89 84
3 53 84 89
3 53 105 89
3 53 89 105
3 53 107 108
3 53 108 107
3 53 108 54
3 53 54 108
3 54 78 106
3 54 106 78
3 54 87 53
3 54 53 87
3 54 88 87
3 54 87 88
3 54 92 85
3 54 85 92
3 54 108 78
3 54 78 108
3 55 83 58
3 55 58 83
3 57 77 42
3 57 42 77
3 57 102 42
3 57 42 102
3 58 17 34
3 58 34 17
3 58 21 17
3 58 17 21
3 58 116 64
3 58 64 116
3 59 81 98
3 59 98 81
3 59 100 81
3 59 81 100
3 59 101 82
3 59 82 101
3 59 112 100
3 59 100 112
3 59 112 101
3 59 101 112
3 60 67 48
3 60 48 67
3 60 81 71
3 60 71 81
3 61 68 49
3 61 49 68
3 61 68 82
3 61 82 68
3 61 72 82
3 61 82 72
3 62 45 37
3 62 37 45
3 62 69 47
3 62 47 69
3 63 64 83
3 63 83 64
3 63 83 46
3 63 46 83
3 63 94 95
3 63 95 94
3 63 94 96
3 63 96 94
3 63 95 64
3 63 64 95
3 64 58 83
3 64 83 58
3 64 95 97
3 64 97 95
3 64 97 116
3 64 116 97
3 65 84 24
3 65 24 84
3 65 91 84
3 65 84 91
3 65 91 86
3 65 86 91
3 67 60 81
3 67 81 60
3 67 75 52
3 67 52 75
3 67 100 75
3 67 75 100
3 67 100 81
3 67 81 100
3 68 75 101
3 68 101 75
3 69 6 31
3 69 31 6
3 69 14 38
3 69 38 14
3 69 73 47
3 69 47 73
3 71 77 98
3 71 98 77
3 71 81 98
3 71 98 81
3 72 76 99
3 72 99 76
3 72 82 99
3 72 99 82
3 75 100 112
3 75 112 100
3 76 56 72
3 76 72 56
3 77 42 110
3 77 110 42
3 77 57 71
3 77 71 57
3 77 98 110
3 77 110 98
3 78 107 108
3 78 108 107
3 79 111 41
3 79 41 111
3 80 42 111
3 80 111 42
3 80 79 113
3 80 113 79
3 80 111 79
3 80 79 111
3 80 113 114
3 80 114 113
3 82 59 99
3 82 99 59
3 84 24 22
3 84 22 24
3 84 89 22
3 84 22 89
3 85 54 90
3 85 90 54
3 86 66 4
3 86 4 66
3 86 66 92
3 86 92 66
3 86 88 87
3 86 87 88
3 86 92 88
3 86 88 92
3 87 86 91
3 87 91 86
3 87 91 53
3 87 53 91
3 90 54 106
3 90 106 54
3 90 85 23
3 90 23 85
3 92 85 66
3 92 66 85
3 92 88 54
3 92 54 88
3 93 35 2
3 93 2 35
3 93 35 39
3 93 39 35
3 93 39 34
3 93 34 39
3 94 103 96
3 94 96 103
3 96 63 115
3 96 115 63
3 97 104 1
3 97 1 104
3 97 104 95
3 97 95 104
3 99 59 109
3 99 109 59
3 99 109 76
3 99 76 109
3 101 68 82
3 101 82 68
3 101 75 112
3 101 112 75
3 102 111 30
3 102 30 111
3 104 28 1
3 104 1 28
3 104 95 28
3 104 28 95
3 105 78 107
3 105 107 78
3 105 107 53
3 105 53 107
3 106 45 78
3 106 78 45
3 106 45 90
3 106 90 45
3 109 41 79
3 109 79 41
3 109 59 113
3 109 113 59
3 109 113 79
3 109 79 113
3 110 59 114
3 110 114 59
3 110 98 59
3 110 59 98
3 110 114 80
3 110 80 114
3 114 113 59
3 114 59 113
3 115 46 26
3 115 26 46
3 115 63 46
3 115 46 63
3 116 27 97
3 116 97 27
