 COFF
         117        1164         117
  
  -6.5962769080296351        1.2231329907411721        6.7425317372128157       0.60000002384185791       0.60000002384185791       0.60000002384185791       0.80000001192092896     
  -6.5962769363947888       -1.2231329757695597        6.7425317427637763       0.60000002384185791       0.60000002384185791       0.60000002384185791       0.80000001192092896     
  -2.8187768867922326E-002  -2.1144424713833287        6.4849060726018903       0.60000002384185791       0.60000002384185791       0.60000002384185791       0.80000001192092896     
   7.4514652826927250       -1.0993662515660034        6.7724374274812824       0.60000002384185791       0.60000002384185791       0.60000002384185791       0.80000001192092896     
   7.4514652960482408        1.0993662433326554        6.7724374282740758       0.60000002384185791       0.60000002384185791       0.60000002384185791       0.80000001192092896     
  -2.8187768886493797E-002   2.1144424696949677        6.4849060743126605       0.60000002384185791       0.60000002384185791       0.60000002384185791       0.80000001192092896     
   1.1398004510574973       -1.7273883223396285        6.7021201250182987       0.60000002384185791       0.60000002384185791       0.60000002384185791       0.80000001192092896     
   1.1398004508841295        1.7273883218829502        6.7021201255128204       0.60000002384185791       0.60000002384185791       0.60000002384185791       0.80000001192092896     
  -1.1604707687952001        1.7276222080324553        6.6540806487301785       0.60000002384185791       0.60000002384185791       0.60000002384185791       0.80000001192092896     
  -1.1604707694229959       -1.7276222096705198        6.6540806469500167       0.60000002384185791       0.60000002384185791       0.60000002384185791       0.80000001192092896     
   2.0151554015913864       -1.3641765749669699        7.0224430906269513       0.60000002384185791       0.60000002384185791       0.60000002384185791       0.80000001192092896     
   2.0151554015014992        1.3641765746052359        7.0224430910023390       0.60000002384185791       0.60000002384185791       0.60000002384185791       0.80000001192092896     
  -2.0465320382729937        1.3920192747941218        6.9739455329502649       0.60000002384185791       0.60000002384185791       0.60000002384185791       0.80000001192092896     
  -2.0465320383096266       -1.3920192756965077        6.9739455320381074       0.60000002384185791       0.60000002384185791       0.60000002384185791       0.80000001192092896     
   3.0655926330302057       -1.2970158015139521        7.0127316388751062       0.60000002384185791       0.60000002384185791       0.60000002384185791       0.80000001192092896     
   3.0655926328212306        1.2970158006578094        7.0127316386259571       0.60000002384185791       0.60000002384185791       0.60000002384185791       0.80000001192092896     
  -3.0412027430789923        1.3046312416789398        6.9315633006690121       0.60000002384185791       0.60000002384185791       0.60000002384185791       0.80000001192092896     
  -3.0412027430615711       -1.3046312422581516        6.9315632991899472       0.60000002384185791       0.60000002384185791       0.60000002384185791       0.80000001192092896     
   4.0642189933682626       -1.2505929333754315        7.0106992485075210       0.60000002384185791       0.60000002384185791       0.60000002384185791       0.80000001192092896     
   4.0642189931567572        1.2505929324599776        7.0106992494747704       0.60000002384185791       0.60000002384185791       0.60000002384185791       0.80000001192092896     
  -4.0372699993277861        1.2329000147404747        6.9779209760419869       0.60000002384185791       0.60000002384185791       0.60000002384185791       0.80000001192092896     
  -4.0372699992048391       -1.2329000147922271        6.9779209760058061       0.60000002384185791       0.60000002384185791       0.60000002384185791       0.80000001192092896     
   5.0497667598657747       -1.4449950876225637        6.6797481863599293       0.60000002384185791       0.60000002384185791       0.60000002384185791       0.80000001192092896     
   5.0497667729389928        1.4449950919183046        6.6797481899500823       0.60000002384185791       0.60000002384185791       0.60000002384185791       0.80000001192092896     
   6.1123243554421158       -1.3880718908853491        6.6801646209027430       0.60000002384185791       0.60000002384185791       0.60000002384185791       0.80000001192092896     
   6.1123243557060833        1.3880718915910182        6.6801646201400589       0.60000002384185791       0.60000002384185791       0.60000002384185791       0.80000001192092896     
  -5.0041699736262899        1.4045071787468015        6.6690425608827635       0.60000002384185791       0.60000002384185791       0.60000002384185791       0.80000001192092896     
  -5.0041699741246308       -1.4045071780808958        6.6690425615663571       0.60000002384185791       0.60000002384185791       0.60000002384185791       0.80000001192092896     
  -7.8192950143505380       -1.8313060432786316E-004   6.6517551056092117       0.60000002384185791       0.60000002384185791       0.60000002384185791       0.80000001192092896     
   8.5521703340872737       -1.1771347893055104E-004   6.7802919935815602       0.60000002384185791       0.60000002384185791       0.60000002384185791       0.80000001192092896     
  -2.2151566623999939      -0.98709800231440847        4.4123823452678943       0.60000002384185791       0.60000002384185791       0.60000002384185791       0.80000001192092896     
   1.2861447178033298       -1.6809464419661573        5.5357261959757098       0.60000002384185791       0.60000002384185791       0.60000002384185791       0.80000001192092896     
   1.2861446646325880        1.6809464046117635        5.5357261965645108       0.60000002384185791       0.60000002384185791       0.60000002384185791       0.80000001192092896     
  -2.5300072815672001        1.3473906886867948        5.8018824283657908       0.60000002384185791       0.60000002384185791       0.60000002384185791       0.80000001192092896     
  -2.5300072750375473       -1.3473907083218286        5.8018824254106640       0.60000002384185791       0.60000002384185791       0.60000002384185791       0.80000001192092896     
   1.9034310838743133E-002  -1.8311832502316063        5.1434728661057800       0.60000002384185791       0.60000002384185791       0.60000002384185791       0.80000001192092896     
   1.9034168375323207E-002   1.8311946978461631        5.1434728704685382       0.60000002384185791       0.60000002384185791       0.60000002384185791       0.80000001192092896     
   2.5465912706484328        1.3156257983611284        5.8287659389804585       0.60000002384185791       0.60000002384185791       0.60000002384185791       0.80000001192092896     
   4.1083535489489789       -1.2674566689786411        6.1015641385423995       0.60000002384185791       0.60000002384185791       0.60000002384185791       0.80000001192092896     
  -1.0868196738635094       -1.6427118758939201        4.7305480485243949       0.60000002384185791       0.60000002384185791       0.60000002384185791       0.80000001192092896     
  -1.0868192483221217        1.6427113452968973        4.7305482021744885       0.60000002384185791       0.60000002384185791       0.60000002384185791       0.80000001192092896     
  -1.6123355698074777      -0.96879277836269651        2.9012089486698316       0.60000002384185791       0.60000002384185791       0.60000002384185791       0.80000001192092896     
  -1.6123359116903793       0.96879234570614015        2.9012086821224803       0.60000002384185791       0.60000002384185791       0.60000002384185791       0.80000001192092896     
   1.1460410558430056        1.6306485769600514        4.3321772156003249       0.60000002384185791       0.60000002384185791       0.60000002384185791       0.80000001192092896     
   1.1460413083529428       -1.6306488656782228        4.3321772419737394       0.60000002384185791       0.60000002384185791       0.60000002384185791       0.80000001192092896     
   4.1083534920744302        1.2674566494606569        6.1015641326804175       0.60000002384185791       0.60000002384185791       0.60000002384185791       0.80000001192092896     
  -4.0667330927580423        1.2512040802388369        6.1160002752093909       0.60000002384185791       0.60000002384185791       0.60000002384185791       0.80000001192092896     
   2.4562783282563303        4.0920419027469556E-009   4.7319153438824104       0.60000002384185791       0.60000002384185791       0.60000002384185791       0.80000001192092896     
   1.6198954837985997        1.2363240384668870        3.9061055729741518       0.60000002384185791       0.60000002384185791       0.60000002384185791       0.80000001192092896     
   1.6198955056235766       -1.2363242381373201        3.9061055612189417       0.60000002384185791       0.60000002384185791       0.60000002384185791       0.80000001192092896     
  0.12146246476423986        1.7044274027683493        4.0416034078795651       0.60000002384185791       0.60000002384185791       0.60000002384185791       0.80000001192092896     
  0.12138430733306563       -1.7045860619930504        4.0416033960966820       0.60000002384185791       0.60000002384185791       0.60000002384185791       0.80000001192092896     
   1.9015428136073369       -1.8104409466674955E-008   3.5653979866754590       0.60000002384185791       0.60000002384185791       0.60000002384185791       0.80000001192092896     
   5.2273627683470538      -0.75078030990876254        4.0352256057235740        1.0000000000000000        1.0000000000000000        0.0000000000000000        1.0000000000000000     
   5.2273626947863843       0.75078029101051291        4.0352256057235740        1.0000000000000000        1.0000000000000000        0.0000000000000000        1.0000000000000000     
  -3.3466559932167854       -6.2156837387936145E-009   5.1672630102202701       0.60000002384185791       0.60000002384185791       0.60000002384185791       0.80000001192092896     
 -0.86199130118386436       -1.4961313119632376        3.7792531047238791       0.60000002384185791       0.60000002384185791       0.60000002384185791       0.80000001192092896     
 -0.86199097839697392        1.4961291803828489        3.7792533286318939       0.60000002384185791       0.60000002384185791       0.60000002384185791       0.80000001192092896     
  -4.0667330926285050       -1.2512040807685911        6.1160002756442315       0.60000002384185791       0.60000002384185791       0.60000002384185791       0.80000001192092896     
  0.17582257270614271       -9.4897298352115502E-008   1.0535609148389919        1.0000000000000000        1.0000000000000000        0.0000000000000000        1.0000000000000000     
   1.0376169430955748        1.4986111195698910        3.3031026106357060       0.60000002384185791       0.60000002384185791       0.60000002384185791       0.80000001192092896     
   1.0375549669797237       -1.4987061433036246        3.3031025733868580       0.60000002384185791       0.60000002384185791       0.60000002384185791       0.80000001192092896     
   3.1996390974034221        1.1772496390655545E-008   5.0165557558946317       0.60000002384185791       0.60000002384185791       0.60000002384185791       0.80000001192092896     
  -5.0640889775904432       0.81558364008884987        4.6069091304059731        1.0000000000000000        1.0000000000000000        0.0000000000000000        1.0000000000000000     
  -5.0640889794986066      -0.81558363401405043        4.6069091304059739        1.0000000000000000        1.0000000000000000        0.0000000000000000        1.0000000000000000     
   6.7579427084965298       -1.2298545019002214        6.1136549193396865       0.60000002384185791       0.60000002384185791       0.60000002384185791       0.80000001192092896     
   6.7579426856272340        1.2298545057626573        6.1136549014670960       0.60000002384185791       0.60000002384185791       0.60000002384185791       0.80000001192092896     
   1.4260248876782655        1.0543620051393454        2.8931536539238154       0.60000002384185791       0.60000002384185791       0.60000002384185791       0.80000001192092896     
   1.4260162196390884       -1.0543621857228114        2.8931536906949842       0.60000002384185791       0.60000002384185791       0.60000002384185791       0.80000001192092896     
   2.5465912710330842       -1.3156257975635863        5.8287659385141248       0.60000002384185791       0.60000002384185791       0.60000002384185791       0.80000001192092896     
   1.7906151465676028        1.4956431060686104        4.9290439358258551       0.60000002384185791       0.60000002384185791       0.60000002384185791       0.80000001192092896     
  0.24303690694040148        1.5661184556580914        3.0031559982260170       0.60000002384185791       0.60000002384185791       0.60000002384185791       0.80000001192092896     
  0.24292839275466538       -1.5661238076108213        3.0031558217302874       0.60000002384185791       0.60000002384185791       0.60000002384185791       0.80000001192092896     
   1.7906151675514901       -1.4956431336310065        4.9290438968188068       0.60000002384185791       0.60000002384185791       0.60000002384185791       0.80000001192092896     
  -1.2625783596711961        1.6996481481494479        5.6939049432223356       0.60000002384185791       0.60000002384185791       0.60000002384185791       0.80000001192092896     
   1.5970173816719944        2.5281748570805960E-006   2.6383739206317220       0.60000002384185791       0.60000002384185791       0.60000002384185791       0.80000001192092896     
 -0.49212580973925002       -1.3784541755556563        2.5803213374963341       0.60000002384185791       0.60000002384185791       0.60000002384185791       0.80000001192092896     
 -0.49212536172641586        1.3784519088023530        2.5803214287058434       0.60000002384185791       0.60000002384185791       0.60000002384185791       0.80000001192092896     
   4.1232232824574160        6.2676275864415324E-008   5.9211497145933185       0.60000002384185791       0.60000002384185791       0.60000002384185791       0.80000001192092896     
  -1.5966134351461876      -0.63417375685075417        2.0198579161885850       0.60000002384185791       0.60000002384185791       0.60000002384185791       0.80000001192092896     
  -1.5966136387363494       0.63417352719701703        2.0198578827401121       0.60000002384185791       0.60000002384185791       0.60000002384185791       0.80000001192092896     
  0.92908203927454458        1.3179002885643720        2.3418438312863996        1.0000000000000000       0.10000000149011612        0.0000000000000000       0.50000000000000000     
  0.92908113060272823       -1.3179013978576797        2.3418436899526172        1.0000000000000000       0.10000000149011612        0.0000000000000000       0.50000000000000000     
  -4.0670415726347908        7.6239499758083671E-010   5.8468301576065000       0.60000002384185791       0.60000002384185791       0.60000002384185791       0.80000001192092896     
   5.9253803229542088       -1.2998020469431324        5.6435250876802474       0.60000002384185791       0.60000002384185791       0.60000002384185791       0.80000001192092896     
   5.9253802983271457        1.2998020221664335        5.6435250942239055       0.60000002384185791       0.60000002384185791       0.60000002384185791       0.80000001192092896     
   7.2016618928191471       -7.7049878804565653E-008   5.8409289499993022       0.60000002384185791       0.60000002384185791       0.60000002384185791       0.80000001192092896     
   6.5836627277379334      -0.59562886312715202        4.8226991444963812       0.60000002384185791       0.60000002384185791       0.60000002384185791       0.80000001192092896     
   6.5836627298185526       0.59562884487683931        4.8226991504594485       0.60000002384185791       0.60000002384185791       0.60000002384185791       0.80000001192092896     
   5.1501344787203003       -1.3343591226143798        5.6156163537798633       0.60000002384185791       0.60000002384185791       0.60000002384185791       0.80000001192092896     
   5.1501592766912907        1.3343269410235490        5.6156163522586597       0.60000002384185791       0.60000002384185791       0.60000002384185791       0.80000001192092896     
   6.4715561230325935      -0.95169791645732149        5.2369941359063183       0.60000002384185791       0.60000002384185791       0.60000002384185791       0.80000001192092896     
   6.4715561092576852       0.95169789840725671        5.2369941377806244       0.60000002384185791       0.60000002384185791       0.60000002384185791       0.80000001192092896     
  -1.2625783682356673       -1.6996481788749704        5.6939049368120527       0.60000002384185791       0.60000002384185791       0.60000002384185791       0.80000001192092896     
  -6.5172637554803545       0.63753865874892479        5.5194222429610713       0.60000002384185791       0.60000002384185791       0.60000002384185791       0.80000001192092896     
  -6.5172637900527794      -0.63753849733654833        5.5194223034175351       0.60000002384185791       0.60000002384185791       0.60000002384185791       0.80000001192092896     
  -6.2558613370199936        1.0090156338704568        5.8564145122565048       0.60000002384185791       0.60000002384185791       0.60000002384185791       0.80000001192092896     
  -6.2558613761079807       -1.0090155472629740        5.8564145266837757       0.60000002384185791       0.60000002384185791       0.60000002384185791       0.80000001192092896     
  0.18767706653826194        1.3324987997935267        2.0973123055231206        1.0000000000000000       0.10000000149011612        0.0000000000000000       0.50000000000000000     
  0.18767571016408310       -1.3325004912157834        2.0973120639601741        1.0000000000000000       0.10000000149011612        0.0000000000000000       0.50000000000000000     
   1.2374709225741545       0.80553332879321049        2.0674997563294943        1.0000000000000000       0.10000000149011612        0.0000000000000000       0.50000000000000000     
   1.2374706339379338      -0.80553359987966000        2.0674997046874459        1.0000000000000000       0.10000000149011612        0.0000000000000000       0.50000000000000000     
  -2.2151570322675083       0.98709761333702084        4.4123822860018169       0.60000002384185791       0.60000002384185791       0.60000002384185791       0.80000001192092896     
  -7.0589847144683029       0.68059030517637975        6.2163707517128621       0.60000002384185791       0.60000002384185791       0.60000002384185791       0.80000001192092896     
  -7.0589846749172471      -0.68059003099343074        6.2163708007626299       0.60000002384185791       0.60000002384185791       0.60000002384185791       0.80000001192092896     
   4.5659405681974343       -1.0223007561285635        5.3484657740373853       0.60000002384185791       0.60000002384185791       0.60000002384185791       0.80000001192092896     
   4.5659403007164334        1.0223006857031702        5.3484657936129958       0.60000002384185791       0.60000002384185791       0.60000002384185791       0.80000001192092896     
   4.3698907226609309      -0.36740356721861012        4.8163662515714449       0.60000002384185791       0.60000002384185791       0.60000002384185791       0.80000001192092896     
   4.3698907331845298       0.36740362379091246        4.8163662435118084       0.60000002384185791       0.60000002384185791       0.60000002384185791       0.80000001192092896     
 -0.31956291690321931      -0.94854131887547943        1.8464077652580864        1.0000000000000000       0.10000000149011612        0.0000000000000000       0.50000000000000000     
 -0.31956281888492405       0.94854065047468350        1.8464079350364953        1.0000000000000000       0.10000000149011612        0.0000000000000000       0.50000000000000000     
  -1.8248885117947315       -2.4852891702956606E-007   2.9263928232589849       0.60000002384185791       0.60000002384185791       0.60000002384185791       0.80000001192092896     
   1.1385763087078802       -7.0127503684162235E-007   1.8301095375334913        1.0000000000000000       0.10000000149011612        0.0000000000000000       0.50000000000000000     
 -0.92751005659053176      -0.36815782967173516        1.4647677448764596        1.0000000000000000       0.10000000149011612        0.0000000000000000       0.50000000000000000     
 -0.92751015968681638       0.36815765654562421        1.4647677108194965        1.0000000000000000       0.10000000149011612        0.0000000000000000       0.50000000000000000     
  -5.0498366055812296        1.1824662894843159        5.6793627704946195       0.60000002384185791       0.60000002384185791       0.60000002384185791       0.80000001192092896     
  -5.0498366059214277       -1.1824662801644088        5.6793627721947084       0.60000002384185791       0.60000002384185791       0.60000002384185791       0.80000001192092896     
  
   3   0  26  96
   3   0  96  26
   3   0  96 103
   3   0 103  96
   3   0 103  28
   3   0  28 103
   4   0  28  94  96
   3   1  28 104
   4   1  28  95  97
   3   1 104  97
   3   1 104  28
   3   1  97 104
   3   1  97  27
   3   1  27  97
   3   2  35  93
   3   2  35  31
   3   2  31  35
   3   2  31   6
   3   2   6  31
   3   2   9  93
   3   2  93  35
   3   2  93   9
   3   3  29  86
   3   3  24  65
   3   3  65  24
   3   3  65  86
   3   3  86  29
   3   3  86  65
   3   4  29  86
   3   4  86  66
   3   4  86  29
   3   4  66  86
   3   4  66  25
   3   4  25  66
   3   5   7  32
   3   5  32  36
   3   5  32   7
   3   5  36  32
   3   5  36  74
   3   5  74  36
   3   5  74   8
   3   5   8  74
   3   6   2  31
   3   6  31   2
   3   6  31  69
   3   6  69  10
   3   6  69  31
   3   6  10  69
   3   7  11  37
   3   7  37  32
   3   7  37  11
   3   7  32  37
   3   7  32   5
   3   7   5  32
   3   8   5  74
   3   8  74   5
   3   8  74  33
   3   8  33  12
   3   8  33  74
   3   8  12  33
   3   9  13  34
   3   9  34  93
   3   9  34  13
   3   9  93  34
   3   9  93   2
   3   9   2  93
   3  10   6  69
   3  10  69  14
   3  10  69   6
   3  10  14  69
   3  11  15  37
   3  11  37   7
   3  11  37  15
   3  11   7  37
   3  12   8  33
   3  12  33  16
   3  12  33   8
   3  12  16  33
   3  13  17  34
   3  13  34   9
   3  13  34  17
   3  13   9  34
   3  14  10  69
   3  14  69  38
   3  14  69  10
   3  14  38  18
   3  14  38  69
   3  14  18  38
   3  15  19  45
   3  15  45  37
   3  15  45  19
   3  15  37  45
   3  15  37  11
   3  15  11  37
   3  16  12  33
   3  16  33  46
   3  16  33  12
   3  16  46  20
   3  16  46  33
   3  16  20  46
   3  17  21  58
   3  17  58  34
   3  17  58  21
   3  17  34  58
   3  17  34  13
   3  17  13  34
   3  18  14  38
   3  18  38  22
   3  18  38  14
   3  18  22  38
   3  19  23  45
   3  19  45  15
   3  19  45  23
   3  19  15  45
   3  20  16  46
   3  20  46  26
   3  20  46  16
   3  20  26  46
   3  21  27  58
   3  21  58  17
   3  21  58  27
   3  21  17  58
   3  22  18  38
   3  22  38  89
   3  22  38  18
   3  22  89  38
   3  22  89  84
   3  22  84  89
   3  22  84  24
   3  22  24  84
   3  23  25  85
   3  23  85  90
   3  23  85  25
   3  23  90  85
   3  23  90  45
   3  23  45  19
   3  23  45  90
   3  23  19  45
   3  24  22  84
   3  24  84  22
   3  24  84  65
   3  24  65   3
   3  24  65  84
   3  24   3  65
   3  25   4  66
   3  25  66   4
   3  25  66  85
   3  25  85  66
   3  25  85  23
   3  25  23  85
   3  26  20  46
   3  26  46 115
   3  26  46  20
   3  26 115  46
   3  26 115  96
   3  26  96 115
   3  26  96   0
   3  26   0  96
   3  27   1  97
   3  27  97 116
   3  27  97   1
   3  27 116  97
   3  27 116  58
   3  27  58  21
   3  27  58 116
   3  27  21  58
   3  28   0 103
   4  28   0  96  94
   3  28 103   0
   3  28 103  94
   3  28  94 103
   3  28  94  95
   3  28  95  94
   3  28  95 104
   3  28 104  95
   3  28 104   1
   3  28   1 104
   4  28   1  97  95
   3  29   3  86
   3  29  86   4
   3  29  86   3
   3  29   4  86
   3  30  34  55
   3  30  34  39
   3  30  55 102
   3  30  55  34
   3  30 102 111
   3  30 102  55
   3  30 111 102
   3  30 111  41
   3  30  41  56
   3  30  41 111
   3  30  56  39
   3  30  56  41
   3  30  39  34
   3  30  39  56
   3  31   2  35
   3  31   2   6
   3  31  35  44
   3  31  35   2
   3  31  44  73
   3  31  44  35
   3  31  73  69
   3  31  73  44
   3  31  69   6
   3  31  69  73
   3  31   6   2
   3  31   6  69
   3  32  37  70
   3  32  37   7
   3  32  70  37
   3  32  70  43
   3  32  43  36
   3  32  43  70
   3  32  36  43
   3  32  36   5
   3  32   5   7
   3  32   5  36
   3  32   7  37
   3  32   7   5
   3  33  46  16
   3  33  46  55
   3  33  16  12
   3  33  16  46
   3  33  12   8
   3  33  12  16
   3  33   8  74
   3  33   8  12
   3  33  74  40
   3  33  74   8
   3  33  40 102
   3  33  40  74
   3  33 102  40
   3  33 102  55
   3  33  55 102
   3  33  55  46
   3  34  58  55
   3  34  58  17
   3  34  55  30
   3  34  55  58
   3  34  30  55
   3  34  30  39
   3  34  39  93
   3  34  39  30
   3  34  93  39
   3  34  93   9
   3  34   9  13
   3  34   9  93
   3  34  13  17
   3  34  13   9
   3  34  17  58
   3  34  17  13
   3  35  93  39
   3  35  93   2
   3  35  39  93
   3  35  39  51
   3  35  51  44
   3  35  51  39
   3  35  44  31
   3  35  44  51
   3  35  31   2
   3  35  31  44
   3  35   2  31
   3  35   2  93
   3  36  32  43
   3  36  32   5
   3  36  43  32
   3  36  43  50
   3  36  50  40
   3  36  50  43
   3  36  40  74
   3  36  40  50
   3  36  74   5
   3  36  74  40
   3  36   5  32
   3  36   5  74
   3  37  45  62
   3  37  45  15
   3  37  62  47
   3  37  62  45
   3  37  47  62
   3  37  47  70
   3  37  70  47
   3  37  70  32
   3  37  32  70
   3  37  32   7
   3  37   7  11
   3  37   7  32
   3  37  11  15
   3  37  11   7
   3  37  15  45
   3  37  15  11
   3  38 105  78
   3  38 105  89
   3  38  89 105
   3  38  89  22
   3  38  22  18
   3  38  22  89
   3  38  18  14
   3  38  18  22
   3  38  14  69
   3  38  14  18
   3  38  69  14
   3  38  69  62
   3  38  62  78
   3  38  62  69
   3  38  78  62
   3  38  78 105
   3  39  35  93
   3  39  35  51
   3  39  93  34
   3  39  93  35
   3  39  34  30
   3  39  34  93
   3  39  30  34
   3  39  30  56
   3  39  56  51
   3  39  56  30
   3  39  51  35
   3  39  51  56
   3  40 102  33
   3  40 102  57
   3  40  33  74
   3  40  33 102
   3  40  74  36
   3  40  74  33
   3  40  36  50
   3  40  36  74
   3  40  50  36
   3  40  50  57
   3  40  57 102
   3  40  57  50
   3  41  79 111
   3  41  79 109
   3  41 109  76
   3  41 109  79
   3  41  76 109
   3  41  76  56
   3  41  56  30
   3  41  56  76
   3  41  30 111
   3  41  30  56
   3  41 111  30
   3  41 111  79
   3  42  80 110
   3  42  80 111
   3  42 111 102
   3  42 111  80
   3  42 102  57
   3  42 102 111
   3  42  57 102
   3  42  57  77
   3  42  77 110
   3  42  77  57
   3  42 110  80
   3  42 110  77
   3  43  36  32
   3  43  36  50
   3  43  32  70
   3  43  32  36
   3  43  70  48
   3  43  70  32
   3  43  48  70
   3  43  48  60
   3  43  60  48
   3  43  60  50
   3  43  50  36
   3  43  50  60
   3  44  73  49
   3  44  73  31
   3  44  31  35
   3  44  31  73
   3  44  35  51
   3  44  35  31
   3  44  51  35
   3  44  51  61
   3  44  61  51
   3  44  61  49
   3  44  49  73
   3  44  49  61
   3  45 106  90
   3  45 106  78
   3  45  78  62
   3  45  78 106
   3  45  62  37
   3  45  62  78
   3  45  37  62
   3  45  37  15
   3  45  15  19
   3  45  15  37
   3  45  19  23
   3  45  19  15
   3  45  23  90
   3  45  23  19
   3  45  90 106
   3  45  90  23
   3  46  63 115
   3  46  63  83
   3  46 115  63
   3  46 115  26
   3  46  26  20
   3  46  26 115
   3  46  20  16
   3  46  20  26
   3  46  16  33
   3  46  16  20
   3  46  33  16
   3  46  33  55
   3  46  55  83
   3  46  55  33
   3  46  83  55
   3  46  83  63
   3  47  37  62
   3  47  37  70
   3  47  62  37
   3  47  62  69
   3  47  69  73
   3  47  69  62
   3  47  73  49
   3  47  73  69
   3  47  49  73
   3  47  49  52
   3  47  52  48
   3  47  52  49
   3  47  48  70
   3  47  48  52
   3  47  70  37
   3  47  70  48
   3  48  43  70
   3  48  43  60
   3  48  70  47
   3  48  70  43
   3  48  47  52
   3  48  47  70
   3  48  52  47
   3  48  52  67
   3  48  67  52
   3  48  67  60
   3  48  60  67
   3  48  60  43
   3  49  47  73
   3  49  47  52
   3  49  73  47
   3  49  73  44
   3  49  44  73
   3  49  44  61
   3  49  61  68
   3  49  61  44
   3  49  68  61
   3  49  68  52
   3  49  52  47
   3  49  52  68
   3  50  40  36
   3  50  40  57
   3  50  36  43
   3  50  36  40
   3  50  43  36
   3  50  43  60
   3  50  60  71
   3  50  60  43
   3  50  71  60
   3  50  71  57
   3  50  57  40
   3  50  57  71
   3  51  44  35
   3  51  44  61
   3  51  35  39
   3  51  35  44
   3  51  39  35
   3  51  39  56
   3  51  56  39
   3  51  56  72
   3  51  72  56
   3  51  72  61
   3  51  61  72
   3  51  61  44
   3  52  48  47
   3  52  48  67
   3  52  47  49
   3  52  47  48
   3  52  49  47
   3  52  49  68
   3  52  68  75
   3  52  68  49
   3  52  75  68
   3  52  75  67
   3  52  67  75
   3  52  67  48
   3  53  91  87
   3  53  91  84
   3  53  84  89
   3  53  84  91
   3  53  89 105
   3  53  89  84
   3  53 105  89
   4  53 105  78 107
   3  53  87  91
   4  53  87  88  54
   3  54  92  85
   3  54  92  88
   3  54  88  92
   4  54  88  87  53
   3  54 106  90
   4  54 106  78 108
   3  54  90  85
   3  54  90 106
   3  54  85  92
   3  54  85  90
   3  55 102  33
   3  55 102  30
   3  55  30  34
   3  55  30 102
   3  55  34  58
   3  55  34  30
   3  55  58  83
   3  55  58  34
   3  55  83  58
   3  55  83  46
   3  55  46  33
   3  55  46  83
   3  55  33  46
   3  55  33 102
   3  56  51  39
   3  56  51  72
   3  56  39  30
   3  56  39  51
   3  56  30  41
   3  56  30  39
   3  56  41  76
   3  56  41  30
   3  56  76  41
   3  56  76  72
   3  56  72  76
   3  56  72  51
   3  57  42 102
   3  57  42  77
   3  57 102  40
   3  57 102  42
   3  57  40 102
   3  57  40  50
   3  57  50  40
   3  57  50  71
   3  57  71  77
   3  57  71  50
   3  57  77  71
   3  57  77  42
   3  58  64  83
   3  58  64 116
   3  58  83  55
   3  58  83  64
   3  58  55  34
   3  58  55  83
   3  58  34  55
   3  58  34  17
   3  58  17  21
   3  58  17  34
   3  58  21  27
   3  58  21  17
   3  58  27 116
   3  58  27  21
   3  58 116  64
   3  58 116  27
   3  59  98  81
   3  59  98 110
   3  59  81 100
   3  59  81  98
   3  59 100  81
   3  59 100 112
   3  59 112 100
   3  59 112 101
   3  59 101  82
   3  59 101 112
   3  59  82  99
   3  59  82 101
   3  59  99  82
   3  59  99 109
   3  59 109  99
   4  59 109  79 113
   3  59 113 114
   4  59 113  79 109
   3  59 114 113
   4  59 114  80 110
   3  59 110  98
   4  59 110  80 114
   3  60  48  43
   3  60  48  67
   3  60  67  81
   3  60  67  48
   3  60  81  71
   3  60  81  67
   3  60  71  81
   3  60  71  50
   3  60  50  43
   3  60  50  71
   3  60  43  48
   3  60  43  50
   3  61  51  44
   3  61  51  72
   3  61  72  82
   3  61  72  51
   3  61  82  68
   3  61  82  72
   3  61  68  82
   3  61  68  49
   3  61  49  44
   3  61  49  68
   3  61  44  51
   3  61  44  49
   3  62  47  37
   3  62  47  69
   3  62  37  45
   3  62  37  47
   3  62  45  78
   3  62  45  37
   3  62  78  45
   3  62  78  38
   3  62  38  69
   3  62  38  78
   3  62  69  38
   3  62  69  47
   3  63  96 115
   3  63  96  94
   3  63 115  46
   3  63 115  96
   3  63  46 115
   3  63  46  83
   3  63  83  64
   3  63  83  46
   3  63  64  83
   4  63  64  95  94
   3  63  94  96
   4  63  94  95  64
   3  64  97  95
   3  64  97 116
   3  64  95  97
   4  64  95  94  63
   3  64  63  83
   4  64  63  94  95
   3  64  83  58
   3  64  83  63
   3  64  58  83
   3  64  58 116
   3  64 116  97
   3  64 116  58
   3  65   3  24
   3  65   3  86
   3  65  24  84
   3  65  24   3
   3  65  84  91
   3  65  84  24
   3  65  91  86
   3  65  91  84
   3  65  86   3
   3  65  86  91
   3  66   4  86
   3  66   4  25
   3  66  86  92
   3  66  86   4
   3  66  92  85
   3  66  92  86
   3  66  85  92
   3  66  85  25
   3  66  25   4
   3  66  25  85
   3  67  52  48
   3  67  52  75
   3  67  75 100
   3  67  75  52
   3  67 100  81
   3  67 100  75
   3  67  81  60
   3  67  81 100
   3  67  60  48
   3  67  60  81
   3  67  48  52
   3  67  48  60
   3  68  61  82
   3  68  61  49
   3  68  82  61
   3  68  82 101
   3  68 101  75
   3  68 101  82
   3  68  75 101
   3  68  75  52
   3  68  52  49
   3  68  52  75
   3  68  49  61
   3  68  49  52
   3  69  38  14
   3  69  38  62
   3  69  14  10
   3  69  14  38
   3  69  10   6
   3  69  10  14
   3  69   6  31
   3  69   6  10
   3  69  31  73
   3  69  31   6
   3  69  73  47
   3  69  73  31
   3  69  47  62
   3  69  47  73
   3  69  62  47
   3  69  62  38
   3  70  37  47
   3  70  37  32
   3  70  47  37
   3  70  47  48
   3  70  48  43
   3  70  48  47
   3  70  43  32
   3  70  43  48
   3  70  32  37
   3  70  32  43
   3  71  60  81
   3  71  60  50
   3  71  81  60
   3  71  81  98
   3  71  98  77
   3  71  98  81
   3  71  77  98
   3  71  77  57
   3  71  57  50
   3  71  57  77
   3  71  50  60
   3  71  50  57
   3  72  56  51
   3  72  56  76
   3  72  76  99
   3  72  76  56
   3  72  99  82
   3  72  99  76
   3  72  82  61
   3  72  82  99
   3  72  61  51
   3  72  61  82
   3  72  51  56
   3  72  51  61
   3  73  49  47
   3  73  49  44
   3  73  47  69
   3  73  47  49
   3  73  69  31
   3  73  69  47
   3  73  31  44
   3  73  31  69
   3  73  44  31
   3  73  44  49
   3  74   5  36
   3  74   5   8
   3  74  36  40
   3  74  36   5
   3  74  40  33
   3  74  40  36
   3  74  33   8
   3  74  33  40
   3  74   8   5
   3  74   8  33
   3  75  68 101
   3  75  68  52
   3  75 101  68
   3  75 101 112
   3  75 112 100
   3  75 112 101
   3  75 100  67
   3  75 100 112
   3  75  67  52
   3  75  67 100
   3  75  52  68
   3  75  52  67
   3  76  41 109
   3  76  41  56
   3  76 109  99
   3  76 109  41
   3  76  99  72
   3  76  99 109
   3  76  72  56
   3  76  72  99
   3  76  56  41
   3  76  56  72
   3  77  71  98
   3  77  71  57
   3  77  98  71
   3  77  98 110
   3  77 110  42
   3  77 110  98
   3  77  42  57
   3  77  42 110
   3  77  57  42
   3  77  57  71
   3  78  62  45
   3  78  62  38
   3  78  45 106
   3  78  45  62
   3  78 106  45
   4  78 106  54 108
   3  78 108 107
   4  78 108  54 106
   3  78 107 108
   4  78 107  53 105
   3  78 105  38
   4  78 105  53 107
   3  78  38 105
   3  78  38  62
   3  79  41 109
   3  79  41 111
   3  79 111  80
   3  79 111  41
   3  79  80 111
   4  79  80 114 113
   3  79 109  41
   4  79 109  59 113
   3  80  42 111
   3  80  42 110
   3  80 110  42
   4  80 110  59 114
   3  80  79 111
   4  80  79 113 114
   3  80 111  42
   3  80 111  79
   3  81  71  60
   3  81  71  98
   3  81  60  67
   3  81  60  71
   3  81  67 100
   3  81  67  60
   3  81 100  67
   3  81 100  59
   3  81  59  98
   3  81  59 100
   3  81  98  71
   3  81  98  59
   3  82  68  61
   3  82  68 101
   3  82  61  72
   3  82  61  68
   3  82  72  99
   3  82  72  61
   3  82  99  72
   3  82  99  59
   3  82  59 101
   3  82  59  99
   3  82 101  68
   3  82 101  59
   3  83  55  58
   3  83  55  46
   3  83  58  64
   3  83  58  55
   3  83  64  63
   3  83  64  58
   3  83  63  46
   3  83  63  64
   3  83  46  63
   3  83  46  55
   3  84  22  89
   3  84  22  24
   3  84  89  53
   3  84  89  22
   3  84  53  91
   3  84  53  89
   3  84  91  65
   3  84  91  53
   3  84  65  24
   3  84  65  91
   3  84  24  22
   3  84  24  65
   3  85  66  92
   3  85  66  25
   3  85  92  66
   3  85  92  54
   3  85  54  92
   3  85  54  90
   3  85  90  54
   3  85  90  23
   3  85  23  25
   3  85  23  90
   3  85  25  66
   3  85  25  23
   3  86  87  88
   3  86  87  91
   3  86  88  92
   3  86  88  87
   3  86  92  66
   3  86  92  88
   3  86  66   4
   3  86  66  92
   3  86   4  29
   3  86   4  66
   3  86  29   3
   3  86  29   4
   3  86   3  29
   3  86   3  65
   3  86  65   3
   3  86  65  91
   3  86  91  87
   3  86  91  65
   3  87  53  91
   4  87  53  54  88
   3  87  88  86
   4  87  88  54  53
   3  87  86  88
   3  87  86  91
   3  87  91  86
   3  87  91  53
   3  88  54  92
   4  88  54  53  87
   3  88  92  86
   3  88  92  54
   3  88  86  87
   3  88  86  92
   3  88  87  86
   4  88  87  53  54
   3  89  38 105
   3  89  38  22
   3  89 105  53
   3  89 105  38
   3  89  53  84
   3  89  53 105
   3  89  84  22
   3  89  84  53
   3  89  22  38
   3  89  22  84
   3  90  85  54
   3  90  85  23
   3  90  54 106
   3  90  54  85
   3  90 106  54
   3  90 106  45
   3  90  45 106
   3  90  45  23
   3  90  23  85
   3  90  23  45
   3  91  87  53
   3  91  87  86
   3  91  86  87
   3  91  86  65
   3  91  65  84
   3  91  65  86
   3  91  84  53
   3  91  84  65
   3  91  53  84
   3  91  53  87
   3  92  85  66
   3  92  85  54
   3  92  66  86
   3  92  66  85
   3  92  86  88
   3  92  86  66
   3  92  88  54
   3  92  88  86
   3  92  54  88
   3  92  54  85
   3  93  34  39
   3  93  34   9
   3  93  39  35
   3  93  39  34
   3  93  35  39
   3  93  35   2
   3  93   2  35
   3  93   2   9
   3  93   9  34
   3  93   9   2
   3  94  28 103
   3  94  28  95
   3  94 103  96
   3  94 103  28
   3  94  96  63
   3  94  96 103
   3  94  63  96
   4  94  63  64  95
   3  94  95  28
   4  94  95  64  63
   3  95  28  94
   3  95  28 104
   3  95  94  28
   4  95  94  63  64
   3  95  64  97
   4  95  64  63  94
   3  95  97 104
   3  95  97  64
   3  95 104  97
   3  95 104  28
   3  96  26 115
   3  96  26   0
   3  96 115  63
   3  96 115  26
   3  96  63 115
   3  96  63  94
   3  96  94 103
   3  96  94  63
   3  96 103   0
   3  96 103  94
   3  96   0  26
   3  96   0 103
   3  97 104  95
   3  97 104   1
   3  97  95  64
   3  97  95 104
   3  97  64  95
   3  97  64 116
   3  97 116  64
   3  97 116  27
   3  97  27   1
   3  97  27 116
   3  97   1 104
   3  97   1  27
   3  98  77  71
   3  98  77 110
   3  98  71  81
   3  98  71  77
   3  98  81  71
   3  98  81  59
   3  98  59  81
   3  98  59 110
   3  98 110  77
   3  98 110  59
   3  99  82  72
   3  99  82  59
   3  99  72  76
   3  99  72  82
   3  99  76 109
   3  99  76  72
   3  99 109  76
   3  99 109  59
   3  99  59  82
   3  99  59 109
   3 100  81  67
   3 100  81  59
   3 100  67  75
   3 100  67  81
   3 100  75 112
   3 100  75  67
   3 100 112  75
   3 100 112  59
   3 100  59  81
   3 100  59 112
   3 101  75  68
   3 101  75 112
   3 101  68  82
   3 101  68  75
   3 101  82  68
   3 101  82  59
   3 101  59 112
   3 101  59  82
   3 101 112  75
   3 101 112  59
   3 102  33  40
   3 102  33  55
   3 102  40  33
   3 102  40  57
   3 102  57  42
   3 102  57  40
   3 102  42 111
   3 102  42  57
   3 102 111  30
   3 102 111  42
   3 102  30  55
   3 102  30 111
   3 102  55  30
   3 102  55  33
   3 103   0  96
   3 103   0  28
   3 103  96  94
   3 103  96   0
   3 103  94  28
   3 103  94  96
   3 103  28   0
   3 103  28  94
   3 104  95  28
   3 104  95  97
   3 104  97  95
   3 104  97   1
   3 104   1  28
   3 104   1  97
   3 104  28  95
   3 104  28   1
   3 105  78  38
   4 105  78 107  53
   3 105  53  89
   4 105  53 107  78
   3 105  89  38
   3 105  89  53
   3 105  38  89
   3 105  38  78
   3 106  90  54
   3 106  90  45
   3 106  54  90
   4 106  54 108  78
   3 106  78  45
   4 106  78 108  54
   3 106  45  78
   3 106  45  90
   3 107  78 108
   4 107  78 105  53
   3 107 108  78
   4 107 108  54  53
   3 108 107  78
   4 108 107  53  54
   3 108  78 107
   4 108  78 106  54
   3 109  99  76
   3 109  99  59
   3 109  76  41
   3 109  76  99
   3 109  41  79
   3 109  41  76
   3 109  79  41
   4 109  79 113  59
   3 109  59  99
   4 109  59 113  79
   3 110  80  42
   4 110  80 114  59
   3 110  42  80
   3 110  42  77
   3 110  77  98
   3 110  77  42
   3 110  98  77
   3 110  98  59
   3 110  59  98
   4 110  59 114  80
   3 111  30 102
   3 111  30  41
   3 111 102  42
   3 111 102  30
   3 111  42  80
   3 111  42 102
   3 111  80  42
   3 111  80  79
   3 111  79  41
   3 111  79  80
   3 111  41  79
   3 111  41  30
   3 112 100  75
   3 112 100  59
   3 112  75 101
   3 112  75 100
   3 112 101  75
   3 112 101  59
   3 112  59 100
   3 112  59 101
   3 113  59 114
   4 113  59 109  79
   3 113 114  59
   4 113 114  80  79
   3 114  59 113
   4 114  59 110  80
   3 114 113  59
   4 114 113  79  80
   3 115  46  63
   3 115  46  26
   3 115  63  96
   3 115  63  46
   3 115  96  26
   3 115  96  63
   3 115  26  46
   3 115  26  96
   3 116  97  64
   3 116  97  27
   3 116  64  97
   3 116  64  58
   3 116  58  64
   3 116  58  27
   3 116  27  97
   3 116  27  58
