# Generated by dad_to_polygons. Vertex data from Humppa's .off file,
# polygons parsed from .dad file.
COFF
128 448 128
-6.630625 1.297438 7.072810 0.500000 0.500000 0.500000 1.0
-6.630625 -1.297437 7.072810 0.500000 0.500000 0.500000 1.0
-0.028367 -2.156599 6.840612 0.500000 0.500000 0.500000 1.0
7.481619 -1.154402 7.112510 0.500000 0.500000 0.500000 1.0
7.481619 1.154402 7.112510 0.500000 0.500000 0.500000 1.0
-0.028367 2.156599 6.840612 0.500000 0.500000 0.500000 1.0
1.152736 -1.765831 7.062444 0.500000 0.500000 0.500000 1.0
1.152736 1.765831 7.062444 0.500000 0.500000 0.500000 1.0
-1.168727 1.769189 7.011067 0.500000 0.500000 0.500000 1.0
-1.168727 -1.769189 7.011067 0.500000 0.500000 0.500000 1.0
2.025182 -1.402081 7.390026 0.500000 0.500000 0.500000 1.0
2.025182 1.402081 7.390026 0.500000 0.500000 0.500000 1.0
-2.051264 1.432467 7.339385 0.500000 0.500000 0.500000 1.0
-2.051264 -1.432467 7.339385 0.500000 0.500000 0.500000 1.0
3.064607 -1.347225 7.368536 0.500000 0.500000 0.500000 1.0
3.064607 1.347225 7.368536 0.500000 0.500000 0.500000 1.0
-3.046315 1.362988 7.277180 0.500000 0.500000 0.500000 1.0
-3.046315 -1.362988 7.277180 0.500000 0.500000 0.500000 1.0
4.063380 -1.304454 7.362451 0.500000 0.500000 0.500000 1.0
4.063380 1.304454 7.362451 0.500000 0.500000 0.500000 1.0
-4.043060 1.297698 7.318481 0.500000 0.500000 0.500000 1.0
-4.043060 -1.297698 7.318481 0.500000 0.500000 0.500000 1.0
5.043858 -1.523279 7.000396 0.500000 0.500000 0.500000 1.0
5.043858 1.523279 7.000396 0.500000 0.500000 0.500000 1.0
6.122182 -1.459612 7.007644 0.500000 0.500000 0.500000 1.0
6.122182 1.459612 7.007644 0.500000 0.500000 0.500000 1.0
-5.000971 1.494277 6.978731 0.500000 0.500000 0.500000 1.0
-5.000971 -1.494277 6.978731 0.500000 0.500000 0.500000 1.0
-7.928827 0.000000 6.962440 0.500000 0.500000 0.500000 1.0
8.636087 0.000000 7.126424 0.500000 0.500000 0.500000 1.0
-2.244708 -1.023365 4.704071 0.500000 0.500000 0.500000 1.0
1.303181 -1.720584 5.875851 0.500000 0.500000 0.500000 1.0
1.303181 1.720583 5.875851 0.500000 0.500000 0.500000 1.0
-2.552792 1.396976 6.134632 0.500000 0.500000 0.500000 1.0
-2.552792 -1.396976 6.134632 0.500000 0.500000 0.500000 1.0
0.020562 -1.872315 5.469323 0.500000 0.500000 0.500000 1.0
0.020562 1.872309 5.469323 0.500000 0.500000 0.500000 1.0
2.566779 1.357186 6.173593 0.500000 0.500000 0.500000 1.0
4.107938 -1.314716 6.407392 0.500000 0.500000 0.500000 1.0
-1.122433 -1.688481 5.050934 0.500000 0.500000 0.500000 1.0
-1.122433 1.688480 5.050934 0.500000 0.500000 0.500000 1.0
-1.647331 -0.899554 3.172686 0.500000 0.500000 0.500000 1.0
-1.647331 0.899553 3.172685 0.500000 0.500000 0.500000 1.0
1.166383 1.670332 4.653738 0.500000 0.500000 0.500000 1.0
1.166383 -1.670333 4.653738 0.500000 0.500000 0.500000 1.0
4.107938 1.314716 6.407392 0.500000 0.500000 0.500000 1.0
-4.077746 1.314343 6.385961 0.500000 0.500000 0.500000 1.0
2.496716 -0.000000 5.045524 0.500000 0.500000 0.500000 1.0
1.648338 1.266857 4.208348 0.500000 0.500000 0.500000 1.0
1.648338 -1.266857 4.208348 0.500000 0.500000 0.500000 1.0
0.121142 1.746447 4.338423 0.500000 0.500000 0.500000 1.0
0.121174 -1.746513 4.338423 0.500000 0.500000 0.500000 1.0
1.933665 -0.000000 3.838586 0.500000 0.500000 0.500000 1.0
5.266733 -0.750778 4.035226 1.0 1.0 0.0 1.0
5.266733 0.750778 4.035226 1.0 1.0 0.0 1.0
-3.359706 -0.000000 5.416071 0.500000 0.500000 0.500000 1.0
-0.913601 -1.522692 4.018306 0.500000 0.500000 0.500000 1.0
-0.913601 1.522692 4.018307 0.500000 0.500000 0.500000 1.0
-4.077746 -1.314343 6.385961 0.500000 0.500000 0.500000 1.0
0.186233 -0.000000 1.053561 1.0 1.0 0.0 1.0
1.053126 1.535351 3.595455 0.500000 0.500000 0.500000 1.0
1.053174 -1.535416 3.595455 0.500000 0.500000 0.500000 1.0
3.195159 -0.000000 5.316716 0.500000 0.500000 0.500000 1.0
-5.085707 0.815555 4.606909 1.0 1.0 0.0 1.0
-5.085707 -0.815555 4.606909 1.0 1.0 0.0 1.0
6.774821 -1.287992 6.446154 0.500000 0.500000 0.500000 1.0
6.774821 1.287992 6.446154 0.500000 0.500000 0.500000 1.0
1.452894 1.075343 3.161563 0.500000 0.500000 0.500000 1.0
1.452949 -1.075409 3.161563 0.500000 0.500000 0.500000 1.0
2.566779 -1.357186 6.173593 0.500000 0.500000 0.500000 1.0
1.812975 1.533047 5.247863 0.500000 0.500000 0.500000 1.0
0.223367 1.602197 3.269517 0.500000 0.500000 0.500000 1.0
0.223404 -1.602230 3.269516 0.500000 0.500000 0.500000 1.0
1.812975 -1.533047 5.247863 0.500000 0.500000 0.500000 1.0
-1.275791 1.743416 6.036619 0.500000 0.500000 0.500000 1.0
1.624334 0.000041 2.870810 0.500000 0.500000 0.500000 1.0
-0.566061 -1.382921 2.813118 1.000000 1.000000 1.000000 1.0
-0.566061 1.382921 2.813118 1.000000 1.000000 1.000000 1.0
4.119109 -0.000000 6.220602 0.500000 0.500000 0.500000 1.0
-1.733821 -0.537091 2.299229 1.000000 1.000000 1.000000 1.0
-1.733821 0.537091 2.299229 1.000000 1.000000 1.000000 1.0
0.951249 1.378959 2.598992 1.000000 1.000000 1.000000 1.0
0.951312 -1.379048 2.598992 1.000000 1.000000 1.000000 1.0
-4.079418 -0.000000 6.095932 0.500000 0.500000 0.500000 1.0
5.987386 -1.364574 5.903911 0.500000 0.500000 0.500000 1.0
5.987386 1.364574 5.903911 0.500000 0.500000 0.500000 1.0
7.310561 -0.000000 6.136360 0.500000 0.500000 0.500000 1.0
6.757362 -0.665971 5.037594 0.500000 0.500000 0.500000 1.0
6.757362 0.665971 5.037594 0.500000 0.500000 0.500000 1.0
5.171255 -1.397173 5.860477 0.500000 0.500000 0.500000 1.0
5.171246 1.397095 5.860477 0.500000 0.500000 0.500000 1.0
6.565161 -1.008150 5.486796 0.500000 0.500000 0.500000 1.0
6.565161 1.008150 5.486796 0.500000 0.500000 0.500000 1.0
-1.275791 -1.743416 6.036619 0.500000 0.500000 0.500000 1.0
-6.763751 0.694392 5.763487 0.500000 0.500000 0.500000 1.0
-6.763751 -0.694392 5.763487 0.500000 0.500000 0.500000 1.0
-6.384515 1.071840 6.127149 0.500000 0.500000 0.500000 1.0
-6.384515 -1.071840 6.127149 0.500000 0.500000 0.500000 1.0
0.235052 1.428413 2.308487 1.000000 1.000000 1.000000 1.0
0.235056 -1.428409 2.308487 1.000000 1.000000 1.000000 1.0
1.277364 0.894907 2.276701 1.000000 1.000000 1.000000 1.0
1.277366 -0.894907 2.276701 1.000000 1.000000 1.000000 1.0
-2.244708 1.023364 4.704071 0.500000 0.500000 0.500000 1.0
-7.189732 0.693296 6.498619 0.500000 0.500000 0.500000 1.0
-7.189732 -0.693294 6.498619 0.500000 0.500000 0.500000 1.0
4.544378 -1.019873 5.679960 0.500000 0.500000 0.500000 1.0
4.544513 1.019674 5.679961 0.500000 0.500000 0.500000 1.0
4.261002 -0.369081 4.897586 0.500000 0.500000 0.500000 1.0
4.261001 0.369081 4.897586 0.500000 0.500000 0.500000 1.0
-0.575403 -1.107645 2.094396 1.000000 1.000000 1.000000 1.0
-0.575402 1.107644 2.094397 1.000000 1.000000 1.000000 1.0
-2.070300 -0.000000 3.247395 0.500000 0.500000 0.500000 1.0
1.400267 0.000229 2.054160 1.000000 1.000000 1.000000 1.0
-1.263729 -0.415687 1.501294 1.000000 1.000000 1.000000 1.0
-1.263729 0.415687 1.501294 1.000000 1.000000 1.000000 1.0
-5.068326 1.310401 5.936064 0.500000 0.500000 0.500000 1.0
-5.068358 -1.310486 5.936064 0.500000 0.500000 0.500000 1.0
0.706263 0.980739 1.807642 1.000000 1.000000 1.000000 1.0
0.706263 -0.980739 1.807641 1.000000 1.000000 1.000000 1.0
-2.398816 -0.000000 4.640931 0.500000 0.500000 0.500000 1.0
-4.522757 0.987726 5.534183 0.500000 0.500000 0.500000 1.0
-4.522755 -0.987728 5.534183 0.500000 0.500000 0.500000 1.0
5.692480 -1.111546 4.987304 0.500000 0.500000 0.500000 1.0
5.692480 1.111546 4.987304 0.500000 0.500000 0.500000 1.0
-5.951232 0.761855 5.171080 0.500000 0.500000 0.500000 1.0
-5.951232 -0.761855 5.171080 0.500000 0.500000 0.500000 1.0
-5.748386 0.946724 5.366097 0.500000 0.500000 0.500000 1.0
-5.748386 -0.946725 5.366097 0.500000 0.500000 0.500000 1.0
3 0 96 103
3 0 103 96
3 0 103 28
3 0 28 103
3 2 31 6
3 2 6 31
3 3 65 24
3 3 24 65
3 3 65 86
3 3 86 65
3 3 86 29
3 3 29 86
3 5 7 32
3 5 32 7
3 5 8 74
3 5 74 8
3 5 32 36
3 5 36 32
3 5 36 74
3 5 74 36
3 6 69 10
3 6 10 69
3 7 37 32
3 7 32 37
3 8 74 33
3 8 33 74
3 10 69 14
3 10 14 69
3 11 15 37
3 11 37 15
3 11 37 7
3 11 7 37
3 12 16 33
3 12 33 16
3 12 33 8
3 12 8 33
3 13 17 34
3 13 34 17
3 13 34 9
3 13 9 34
3 14 18 38
3 14 38 18
3 14 38 69
3 14 69 38
3 16 46 20
3 16 20 46
3 17 58 34
3 17 34 58
3 18 38 22
3 18 22 38
3 19 45 23
3 19 23 45
3 21 58 17
3 21 17 58
3 22 24 84
3 22 84 24
3 23 85 90
3 23 90 85
3 25 4 66
3 25 66 4
3 25 85 23
3 25 23 85
3 26 0 96
3 26 96 0
3 26 115 96
3 26 96 115
3 27 58 21
3 27 21 58
3 27 97 1
3 27 1 97
3 28 94 95
3 28 95 94
3 28 95 104
3 28 104 95
3 28 103 94
3 28 94 103
3 30 34 55
3 30 55 34
3 30 39 56
3 30 56 39
3 30 56 41
3 30 41 56
3 30 119 111
3 30 111 119
3 31 35 2
3 31 2 35
3 31 44 35
3 31 35 44
3 31 69 6
3 31 6 69
3 31 73 44
3 31 44 73
3 32 43 70
3 32 70 43
3 33 40 74
3 33 74 40
3 33 46 16
3 33 16 46
3 33 55 46
3 33 46 55
3 33 102 40
3 33 40 102
3 33 102 55
3 33 55 102
3 34 9 93
3 34 93 9
3 34 30 39
3 34 39 30
3 34 58 55
3 34 55 58
3 35 39 51
3 35 51 39
3 36 32 43
3 36 43 32
3 36 40 74
3 36 74 40
3 36 50 40
3 36 40 50
3 37 45 15
3 37 15 45
3 37 70 32
3 37 32 70
3 38 78 62
3 38 62 78
3 38 89 22
3 38 22 89
3 39 51 56
3 39 56 51
3 41 30 111
3 41 111 30
3 41 109 76
3 41 76 109
3 42 57 77
3 42 77 57
3 42 57 102
3 42 102 57
3 42 80 110
3 42 110 80
3 42 80 111
3 42 111 80
3 42 111 102
3 42 102 111
3 43 48 70
3 43 70 48
3 43 50 36
3 43 36 50
3 43 60 48
3 43 48 60
3 43 60 50
3 43 50 60
3 44 51 35
3 44 35 51
3 45 15 19
3 45 19 15
3 45 37 62
3 45 62 37
3 45 90 23
3 45 23 90
3 45 90 106
3 45 106 90
3 46 26 20
3 46 20 26
3 46 83 55
3 46 55 83
3 46 120 83
3 46 83 120
3 46 120 115
3 46 115 120
3 47 37 70
3 47 70 37
3 47 48 52
3 47 52 48
3 47 49 52
3 47 52 49
3 47 62 37
3 47 37 62
3 47 62 69
3 47 69 62
3 47 69 73
3 47 73 69
3 47 70 48
3 47 48 70
3 48 67 60
3 48 60 67
3 49 61 44
3 49 44 61
3 49 73 44
3 49 44 73
3 50 40 57
3 50 57 40
3 50 57 71
3 50 71 57
3 51 61 44
3 51 44 61
3 52 48 67
3 52 67 48
3 52 49 68
3 52 68 49
3 52 75 68
3 52 68 75
3 53 54 108
3 53 108 54
3 53 78 105
3 53 105 78
3 53 107 78
3 53 78 107
3 53 108 107
3 53 107 108
3 54 53 87
3 54 87 53
3 54 78 106
3 54 106 78
3 54 87 88
3 54 88 87
3 54 108 78
3 54 78 108
3 54 123 90
3 54 90 123
3 55 58 83
3 55 83 58
3 56 41 76
3 56 76 41
3 56 51 72
3 56 72 51
3 56 76 72
3 56 72 76
3 57 71 77
3 57 77 71
3 57 102 40
3 57 40 102
3 58 27 116
3 58 116 27
3 58 83 121
3 58 121 83
3 59 79 109
3 59 109 79
3 59 98 117
3 59 117 98
3 59 99 109
3 59 109 99
3 59 100 112
3 59 112 100
3 59 101 118
3 59 118 101
3 59 112 101
3 59 101 112
3 59 113 79
3 59 79 113
3 59 117 100
3 59 100 117
3 59 118 99
3 59 99 118
3 60 81 71
3 60 71 81
3 61 49 68
3 61 68 49
3 61 72 82
3 61 82 72
3 62 38 69
3 62 69 38
3 62 78 45
3 62 45 78
3 63 120 83
3 63 83 120
3 63 120 115
3 63 115 120
3 64 63 83
3 64 83 63
3 64 116 121
3 64 121 116
3 64 116 127
3 64 127 116
3 64 124 63
3 64 63 124
3 64 125 124
3 64 124 125
3 65 84 24
3 65 24 84
3 66 4 86
3 66 86 4
3 66 25 85
3 66 85 25
3 66 86 92
3 66 92 86
3 67 60 81
3 67 81 60
3 67 75 52
3 67 52 75
3 67 75 100
3 67 100 75
3 67 100 81
3 67 81 100
3 68 82 61
3 68 61 82
3 69 31 73
3 69 73 31
3 71 50 60
3 71 60 50
3 71 77 98
3 71 98 77
3 72 61 51
3 72 51 61
3 72 99 82
3 72 82 99
3 73 47 49
3 73 49 47
3 75 112 100
3 75 100 112
3 78 45 106
3 78 106 45
3 78 105 38
3 78 38 105
3 79 111 41
3 79 41 111
3 80 111 79
3 80 79 111
3 80 113 79
3 80 79 113
3 80 114 113
3 80 113 114
3 81 71 98
3 81 98 71
3 81 98 117
3 81 117 98
3 81 117 100
3 81 100 117
3 82 99 118
3 82 118 99
3 82 101 68
3 82 68 101
3 82 118 101
3 82 101 118
3 84 89 22
3 84 22 89
3 84 91 65
3 84 65 91
3 84 122 89
3 84 89 122
3 85 90 123
3 85 123 90
3 85 92 66
3 85 66 92
3 85 123 92
3 85 92 123
3 86 29 4
3 86 4 29
3 86 91 65
3 86 65 91
3 86 91 87
3 86 87 91
3 87 91 53
3 87 53 91
3 88 86 92
3 88 92 86
3 88 87 86
3 88 86 87
3 89 38 105
3 89 105 38
3 89 105 53
3 89 53 105
3 90 54 106
3 90 106 54
3 91 122 84
3 91 84 122
3 92 88 54
3 92 54 88
3 93 2 9
3 93 9 2
3 93 2 35
3 93 35 2
3 93 35 39
3 93 39 35
3 93 39 34
3 93 34 39
3 94 96 126
3 94 126 96
3 94 103 96
3 94 96 103
3 95 97 127
3 95 127 97
3 95 104 97
3 95 97 104
3 95 124 94
3 95 94 124
3 95 125 124
3 95 124 125
3 95 125 127
3 95 127 125
3 96 126 115
3 96 115 126
3 97 116 127
3 97 127 116
3 98 59 110
3 98 110 59
3 99 76 72
3 99 72 76
3 99 109 76
3 99 76 109
3 101 75 68
3 101 68 75
3 101 112 75
3 101 75 112
3 104 1 28
3 104 28 1
3 104 97 1
3 104 1 97
3 108 78 107
3 108 107 78
3 109 41 79
3 109 79 41
3 110 42 77
3 110 77 42
3 110 77 98
3 110 98 77
3 110 80 114
3 110 114 80
3 110 114 59
3 110 59 114
3 111 119 102
3 111 102 119
3 113 114 59
3 113 59 114
3 115 26 46
3 115 46 26
3 115 63 126
3 115 126 63
3 116 27 97
3 116 97 27
3 119 55 30
3 119 30 55
3 119 55 102
3 119 102 55
3 121 58 116
3 121 116 58
3 121 64 83
3 121 83 64
3 122 53 89
3 122 89 53
3 122 53 91
3 122 91 53
3 123 54 92
3 123 92 54
3 124 94 126
3 124 126 94
3 126 63 124
3 126 124 63
3 127 64 125
3 127 125 64
