# Generated by dad_to_polygons. Vertex data from Humppa's .off file,
# polygons parsed from .dad file.
COFF
142 504 142
-6.661985 1.361563 7.399862 0.500000 0.500000 0.500000 1.0
-6.661985 -1.361563 7.399862 0.500000 0.500000 0.500000 1.0
-0.028508 -2.197884 7.196116 0.500000 0.500000 0.500000 1.0
7.510755 -1.207090 7.453558 0.500000 0.500000 0.500000 1.0
7.510755 1.207090 7.453558 0.500000 0.500000 0.500000 1.0
-0.028508 2.197884 7.196116 0.500000 0.500000 0.500000 1.0
1.165329 -1.803127 7.422951 0.500000 0.500000 0.500000 1.0
1.165329 1.803127 7.422951 0.500000 0.500000 0.500000 1.0
-1.177101 1.810131 7.367599 0.500000 0.500000 0.500000 1.0
-1.177101 -1.810131 7.367599 0.500000 0.500000 0.500000 1.0
2.034693 -1.438755 7.757949 0.500000 0.500000 0.500000 1.0
2.034693 1.438755 7.757949 0.500000 0.500000 0.500000 1.0
-2.055800 1.472016 7.704731 0.500000 0.500000 0.500000 1.0
-2.055800 -1.472016 7.704731 0.500000 0.500000 0.500000 1.0
3.063143 -1.395704 7.724852 0.500000 0.500000 0.500000 1.0
3.063143 1.395704 7.724852 0.500000 0.500000 0.500000 1.0
-3.050582 1.417712 7.625056 0.500000 0.500000 0.500000 1.0
-3.050582 -1.417712 7.625056 0.500000 0.500000 0.500000 1.0
4.062021 -1.356302 7.714812 0.500000 0.500000 0.500000 1.0
4.062021 1.356302 7.714812 0.500000 0.500000 0.500000 1.0
-4.047717 1.356334 7.663575 0.500000 0.500000 0.500000 1.0
-4.047717 -1.356334 7.663575 0.500000 0.500000 0.500000 1.0
5.037610 -1.597180 7.323406 0.500000 0.500000 0.500000 1.0
5.037610 1.597180 7.323406 0.500000 0.500000 0.500000 1.0
6.131753 -1.525762 7.338694 0.500000 0.500000 0.500000 1.0
6.131753 1.525762 7.338694 0.500000 0.500000 0.500000 1.0
-4.997368 1.575591 7.294624 0.500000 0.500000 0.500000 1.0
-4.997368 -1.575591 7.294624 0.500000 0.500000 0.500000 1.0
-8.024422 0.000153 7.278141 0.500000 0.500000 0.500000 1.0
8.718651 -0.000000 7.473384 0.500000 0.500000 0.500000 1.0
-2.264598 -1.061890 4.993702 0.500000 0.500000 0.500000 1.0
1.318802 -1.758268 6.215933 0.500000 0.500000 0.500000 1.0
1.318802 1.758268 6.215933 0.500000 0.500000 0.500000 1.0
-2.569899 1.443809 6.466082 0.500000 0.500000 0.500000 1.0
-2.569899 -1.443809 6.466082 0.500000 0.500000 0.500000 1.0
0.021796 -1.912075 5.795794 0.500000 0.500000 0.500000 1.0
0.021797 1.912024 5.795794 0.500000 0.500000 0.500000 1.0
2.581971 1.396877 6.516872 0.500000 0.500000 0.500000 1.0
4.108510 -1.363025 6.714540 0.500000 0.500000 0.500000 1.0
-1.136625 -1.734833 5.369278 0.500000 0.500000 0.500000 1.0
-1.136625 1.734832 5.369278 0.500000 0.500000 0.500000 1.0
-1.722879 -0.842205 3.440936 0.500000 0.500000 0.500000 1.0
-1.722879 0.842205 3.440936 0.500000 0.500000 0.500000 1.0
1.183648 1.707614 4.975725 0.500000 0.500000 0.500000 1.0
1.183617 -1.707622 4.975696 0.500000 0.500000 0.500000 1.0
4.108510 1.363024 6.714540 0.500000 0.500000 0.500000 1.0
-4.079628 1.367253 6.681733 0.500000 0.500000 0.500000 1.0
2.526614 -0.000000 5.360500 0.500000 0.500000 0.500000 1.0
1.671504 1.293763 4.511573 0.500000 0.500000 0.500000 1.0
1.671504 -1.293763 4.511573 0.500000 0.500000 0.500000 1.0
0.122827 1.786974 4.636098 0.500000 0.500000 0.500000 1.0
0.122813 -1.786943 4.636098 0.500000 0.500000 0.500000 1.0
1.958359 0.000000 4.114781 0.500000 0.500000 0.500000 1.0
5.294275 -0.750760 4.035226 1.0 1.0 0.0 1.0
5.294276 0.750760 4.035226 1.0 1.0 0.0 1.0
-3.334700 0.000000 5.708680 0.500000 0.500000 0.500000 1.0
-0.955124 -1.557445 4.264383 0.500000 0.500000 0.500000 1.0
-0.955124 1.557444 4.264384 0.500000 0.500000 0.500000 1.0
-4.079628 -1.367253 6.681733 0.500000 0.500000 0.500000 1.0
0.174014 -0.000000 1.053561 1.0 1.0 0.0 1.0
1.065962 1.569709 3.889440 0.500000 0.500000 0.500000 1.0
1.065947 -1.569696 3.889440 0.500000 0.500000 0.500000 1.0
3.187262 -0.000000 5.620893 0.500000 0.500000 0.500000 1.0
-5.097576 0.815919 4.606909 1.0 1.0 0.0 1.0
-5.097576 -0.815919 4.606909 1.0 1.0 0.0 1.0
6.798261 -1.341755 6.785854 0.500000 0.500000 0.500000 1.0
6.798261 1.341755 6.785854 0.500000 0.500000 0.500000 1.0
1.475485 1.092513 3.432412 0.500000 0.500000 0.500000 1.0
1.475469 -1.092471 3.432412 0.500000 0.500000 0.500000 1.0
2.581971 -1.396877 6.516872 0.500000 0.500000 0.500000 1.0
1.831937 1.568122 5.567408 0.500000 0.500000 0.500000 1.0
0.207463 1.638697 3.536967 0.500000 0.500000 0.500000 1.0
0.207528 -1.638653 3.536967 0.500000 0.500000 0.500000 1.0
1.831969 -1.568115 5.567437 0.500000 0.500000 0.500000 1.0
-1.288152 1.785789 6.378485 0.500000 0.500000 0.500000 1.0
1.646074 0.000079 3.107080 1.000000 1.000000 1.000000 1.0
-0.668215 -1.373028 3.065206 1.000000 1.000000 1.000000 1.0
-0.668215 1.373027 3.065207 1.000000 1.000000 1.000000 1.0
4.134062 -0.000001 6.498686 0.500000 0.500000 0.500000 1.0
-1.863675 -0.487521 2.569798 1.000000 1.000000 1.000000 1.0
-1.863675 0.487521 2.569798 1.000000 1.000000 1.000000 1.0
0.957939 1.407465 2.859976 1.000000 1.000000 1.000000 1.0
0.957965 -1.407361 2.859975 1.000000 1.000000 1.000000 1.0
-4.081232 0.000000 6.358481 0.500000 0.500000 0.500000 1.0
6.040252 -1.433373 6.205966 0.500000 0.500000 0.500000 1.0
6.040253 1.433373 6.205967 0.500000 0.500000 0.500000 1.0
7.384232 -0.000000 6.436277 0.500000 0.500000 0.500000 1.0
6.866052 -0.712574 5.317506 0.500000 0.500000 0.500000 1.0
6.866055 0.712575 5.317507 0.500000 0.500000 0.500000 1.0
5.184775 -1.460780 6.123970 0.500000 0.500000 0.500000 1.0
5.184776 1.460965 6.123969 0.500000 0.500000 0.500000 1.0
6.609975 -1.059817 5.753943 0.500000 0.500000 0.500000 1.0
6.609979 1.059740 5.753937 0.500000 0.500000 0.500000 1.0
-1.288152 -1.785789 6.378485 0.500000 0.500000 0.500000 1.0
-6.946612 0.722832 6.045229 0.500000 0.500000 0.500000 1.0
-6.946612 -0.722831 6.045229 0.500000 0.500000 0.500000 1.0
-6.497463 1.126939 6.466468 0.500000 0.500000 0.500000 1.0
-6.497463 -1.126939 6.466468 0.500000 0.500000 0.500000 1.0
0.251175 1.468361 2.536523 1.000000 1.000000 1.000000 1.0
0.251127 -1.468198 2.536523 1.000000 1.000000 1.000000 1.0
1.292683 0.952255 2.500846 1.000000 1.000000 1.000000 1.0
1.292671 -0.952250 2.500846 1.000000 1.000000 1.000000 1.0
-2.264598 1.061890 4.993702 0.500000 0.500000 0.500000 1.0
-7.293071 0.697843 6.791887 0.500000 0.500000 0.500000 1.0
-7.293072 -0.697843 6.791887 0.500000 0.500000 0.500000 1.0
4.563141 -1.066733 5.950626 0.500000 0.500000 0.500000 1.0
4.563154 1.066625 5.950626 0.500000 0.500000 0.500000 1.0
4.157916 -0.366225 5.019553 0.500000 0.500000 0.500000 1.0
4.157908 0.366237 5.019552 0.500000 0.500000 0.500000 1.0
-0.742552 -1.117558 2.333628 1.000000 1.000000 1.000000 1.0
-0.742551 1.117556 2.333628 1.000000 1.000000 1.000000 1.0
-2.240876 -0.000000 3.583991 0.500000 0.500000 0.500000 1.0
1.420629 -0.000030 2.266156 1.000000 1.000000 1.000000 1.0
-1.521468 -0.433131 1.616802 1.000000 1.000000 1.000000 1.0
-1.521468 0.433131 1.616802 1.000000 1.000000 1.000000 1.0
-5.075283 1.376286 6.195390 0.500000 0.500000 0.500000 1.0
-5.075317 -1.376155 6.195390 0.500000 0.500000 0.500000 1.0
0.789263 1.173208 2.003642 1.000000 1.000000 1.000000 1.0
0.789261 -1.173210 2.003642 1.000000 1.000000 1.000000 1.0
-2.565765 -0.000000 4.884226 0.500000 0.500000 0.500000 1.0
-4.504546 1.045605 5.903646 0.500000 0.500000 0.500000 1.0
-4.504548 -1.045604 5.903646 0.500000 0.500000 0.500000 1.0
5.863038 -1.261779 5.231188 0.500000 0.500000 0.500000 1.0
5.863053 1.261783 5.231196 0.500000 0.500000 0.500000 1.0
-6.141090 0.903464 5.296908 0.500000 0.500000 0.500000 1.0
-6.141090 -0.903463 5.296908 0.500000 0.500000 0.500000 1.0
-6.034069 1.021422 5.573981 0.500000 0.500000 0.500000 1.0
-6.034069 -1.021422 5.573981 0.500000 0.500000 0.500000 1.0
-4.382730 0.399626 5.369430 0.500000 0.500000 0.500000 1.0
-4.382729 -0.399626 5.369430 0.500000 0.500000 0.500000 1.0
6.212536 -1.101112 4.889396 0.500000 0.500000 0.500000 1.0
6.212541 1.101111 4.889393 0.500000 0.500000 0.500000 1.0
5.258663 -1.224762 5.151037 0.500000 0.500000 0.500000 1.0
5.258688 1.224785 5.151040 0.500000 0.500000 0.500000 1.0
0.142081 0.930412 1.774630 1.000000 1.000000 1.000000 1.0
0.142080 -0.930414 1.774629 1.000000 1.000000 1.000000 1.0
4.852570 -0.896076 4.994426 0.500000 0.500000 0.500000 1.0
4.852692 0.895982 4.994419 0.500000 0.500000 0.500000 1.0
0.890575 0.514697 1.762611 1.000000 1.000000 1.000000 1.0
0.890574 -0.514698 1.762612 1.000000 1.000000 1.000000 1.0
6.082598 -0.708456 4.660067 0.500000 0.500000 0.500000 1.0
6.082598 0.708454 4.660067 0.500000 0.500000 0.500000 1.0
3 0 26 96
3 0 96 26
3 1 97 27
3 1 27 97
3 1 104 28
3 1 28 104
3 1 104 97
3 1 97 104
3 2 93 9
3 2 9 93
3 2 93 35
3 2 35 93
3 3 86 29
3 3 29 86
3 4 86 29
3 4 29 86
3 5 7 32
3 5 32 7
3 5 32 36
3 5 36 32
3 6 2 31
3 6 31 2
3 8 74 5
3 8 5 74
3 9 34 93
3 9 93 34
3 11 37 7
3 11 7 37
3 12 8 33
3 12 33 8
3 13 34 9
3 13 9 34
3 14 38 18
3 14 18 38
3 14 69 10
3 14 10 69
3 15 11 37
3 15 37 11
3 15 19 45
3 15 45 19
3 15 37 45
3 15 45 37
3 16 33 12
3 16 12 33
3 16 46 20
3 16 20 46
3 16 46 33
3 16 33 46
3 17 13 34
3 17 34 13
3 17 58 34
3 17 34 58
3 19 45 23
3 19 23 45
3 21 58 17
3 21 17 58
3 22 38 89
3 22 89 38
3 22 84 24
3 22 24 84
3 23 85 25
3 23 25 85
3 23 90 45
3 23 45 90
3 24 65 3
3 24 3 65
3 24 84 65
3 24 65 84
3 25 4 66
3 25 66 4
3 26 115 46
3 26 46 115
3 27 21 58
3 27 58 21
3 27 58 116
3 27 116 58
3 28 94 103
3 28 103 94
3 28 95 94
3 28 94 95
3 28 104 95
3 28 95 104
3 30 34 55
3 30 55 34
3 30 39 34
3 30 34 39
3 30 39 56
3 30 56 39
3 30 55 119
3 30 119 55
3 30 111 119
3 30 119 111
3 31 35 2
3 31 2 35
3 31 44 35
3 31 35 44
3 31 69 6
3 31 6 69
3 31 73 69
3 31 69 73
3 32 43 36
3 32 36 43
3 32 43 70
3 32 70 43
3 33 8 74
3 33 74 8
3 33 40 74
3 33 74 40
3 33 40 102
3 33 102 40
3 33 55 102
3 33 102 55
3 34 39 93
3 34 93 39
3 34 55 58
3 34 58 55
3 35 44 51
3 35 51 44
3 35 93 39
3 35 39 93
3 36 40 50
3 36 50 40
3 36 40 74
3 36 74 40
3 36 74 5
3 36 5 74
3 37 7 32
3 37 32 7
3 37 32 70
3 37 70 32
3 37 47 62
3 37 62 47
3 37 47 70
3 37 70 47
3 38 22 18
3 38 18 22
3 38 78 105
3 38 105 78
3 38 105 89
3 38 89 105
3 39 51 35
3 39 35 51
3 39 51 56
3 39 56 51
3 41 30 56
3 41 56 30
3 41 30 111
3 41 111 30
3 41 76 56
3 41 56 76
3 41 76 109
3 41 109 76
3 41 79 111
3 41 111 79
3 41 109 79
3 41 79 109
3 42 57 77
3 42 77 57
3 42 80 110
3 42 110 80
3 42 102 57
3 42 57 102
3 42 110 77
3 42 77 110
3 42 111 80
3 42 80 111
3 43 36 50
3 43 50 36
3 43 70 48
3 43 48 70
3 44 49 73
3 44 73 49
3 44 73 31
3 44 31 73
3 45 62 37
3 45 37 62
3 45 90 106
3 45 106 90
3 46 20 26
3 46 26 20
3 46 33 55
3 46 55 33
3 47 48 70
3 47 70 48
3 47 52 48
3 47 48 52
3 47 52 49
3 47 49 52
3 47 69 73
3 47 73 69
3 47 73 49
3 47 49 73
3 48 60 43
3 48 43 60
3 48 67 60
3 48 60 67
3 49 61 44
3 49 44 61
3 50 40 57
3 50 57 40
3 50 60 43
3 50 43 60
3 51 61 44
3 51 44 61
3 51 72 61
3 51 61 72
3 52 49 68
3 52 68 49
3 52 67 48
3 52 48 67
3 52 68 75
3 52 75 68
3 52 75 67
3 52 67 75
3 53 107 108
3 53 108 107
3 53 108 54
3 53 54 108
3 54 88 141
3 54 141 88
3 54 131 88
3 54 88 131
3 54 131 123
3 54 123 131
3 54 133 123
3 54 123 133
3 54 140 53
3 54 53 140
3 54 141 140
3 54 140 141
3 55 58 83
3 55 83 58
3 55 83 46
3 55 46 83
3 57 102 40
3 57 40 102
3 58 116 121
3 58 121 116
3 58 121 83
3 58 83 121
3 59 80 110
3 59 110 80
3 59 112 138
3 59 138 112
3 59 114 80
3 59 80 114
3 59 117 138
3 59 138 117
3 59 118 135
3 59 135 118
3 59 134 110
3 59 110 134
3 59 134 117
3 59 117 134
3 60 50 71
3 60 71 50
3 60 81 71
3 60 71 81
3 61 68 82
3 61 82 68
3 62 69 47
3 62 47 69
3 62 78 38
3 62 38 78
3 62 78 45
3 62 45 78
3 63 128 129
3 63 129 128
3 63 129 64
3 63 64 129
3 64 83 129
3 64 129 83
3 64 116 127
3 64 127 116
3 64 121 83
3 64 83 121
3 64 121 116
3 64 116 121
3 64 124 63
3 64 63 124
3 64 125 124
3 64 124 125
3 65 84 91
3 65 91 84
3 65 86 3
3 65 3 86
3 65 91 86
3 65 86 91
3 66 25 85
3 66 85 25
3 66 86 4
3 66 4 86
3 67 100 81
3 67 81 100
3 68 61 49
3 68 49 61
3 68 82 101
3 68 101 82
3 68 101 75
3 68 75 101
3 69 6 10
3 69 10 6
3 69 14 38
3 69 38 14
3 69 62 38
3 69 38 62
3 71 57 50
3 71 50 57
3 71 77 57
3 71 57 77
3 71 81 98
3 71 98 81
3 71 98 77
3 71 77 98
3 72 56 51
3 72 51 56
3 72 76 56
3 72 56 76
3 72 82 61
3 72 61 82
3 72 99 76
3 72 76 99
3 75 67 100
3 75 100 67
3 78 107 136
3 78 136 107
3 78 108 107
3 78 107 108
3 80 111 79
3 80 79 111
3 80 113 79
3 80 79 113
3 80 114 113
3 80 113 114
3 81 60 67
3 81 67 60
3 81 98 117
3 81 117 98
3 81 100 117
3 81 117 100
3 82 72 99
3 82 99 72
3 82 118 101
3 82 101 118
3 84 89 22
3 84 22 89
3 84 89 122
3 84 122 89
3 84 122 91
3 84 91 122
3 85 23 90
3 85 90 23
3 85 66 92
3 85 92 66
3 85 90 123
3 85 123 90
3 86 87 88
3 86 88 87
3 86 88 92
3 86 92 88
3 87 91 130
3 87 130 91
3 87 140 141
3 87 141 140
3 87 141 88
3 87 88 141
3 90 106 133
3 90 133 106
3 91 86 87
3 91 87 86
3 91 130 122
3 91 122 130
3 92 86 66
3 92 66 86
3 92 88 131
3 92 131 88
3 92 123 85
3 92 85 123
3 92 131 123
3 92 123 131
3 94 95 125
3 94 125 95
3 94 96 103
3 94 103 96
3 94 125 124
3 94 124 125
3 94 126 96
3 94 96 126
3 94 126 124
3 94 124 126
3 95 97 104
3 95 104 97
3 95 127 97
3 95 97 127
3 96 115 26
3 96 26 115
3 97 116 27
3 97 27 116
3 97 127 116
3 97 116 127
3 98 110 77
3 98 77 110
3 98 134 117
3 98 117 134
3 99 82 118
3 99 118 82
3 99 109 76
3 99 76 109
3 99 118 135
3 99 135 118
3 99 135 109
3 99 109 135
3 100 112 75
3 100 75 112
3 100 138 112
3 100 112 138
3 100 138 117
3 100 117 138
3 101 112 75
3 101 75 112
3 101 139 112
3 101 112 139
3 102 42 111
3 102 111 42
3 102 119 55
3 102 55 119
3 102 119 111
3 102 111 119
3 103 0 96
3 103 96 0
3 103 28 0
3 103 0 28
3 105 78 136
3 105 136 78
3 105 136 132
3 105 132 136
3 106 78 45
3 106 45 78
3 106 78 137
3 106 137 78
3 106 137 133
3 106 133 137
3 107 136 53
3 107 53 136
3 108 137 78
3 108 78 137
3 109 79 113
3 109 113 79
3 109 113 59
3 109 59 113
3 112 139 59
3 112 59 139
3 113 59 114
3 113 114 59
3 115 63 120
3 115 120 63
3 115 63 126
3 115 126 63
3 115 120 46
3 115 46 120
3 115 126 96
3 115 96 126
3 118 101 139
3 118 139 101
3 120 46 83
3 120 83 46
3 120 83 128
3 120 128 83
3 120 128 63
3 120 63 128
3 122 53 132
3 122 132 53
3 123 133 90
3 123 90 133
3 124 63 126
3 124 126 63
3 125 95 127
3 125 127 95
3 125 127 64
3 125 64 127
3 129 128 83
3 129 83 128
3 130 53 140
3 130 140 53
3 130 122 53
3 130 53 122
3 130 140 87
3 130 87 140
3 132 53 136
3 132 136 53
3 132 105 89
3 132 89 105
3 132 122 89
3 132 89 122
3 133 54 137
3 133 137 54
3 134 98 110
3 134 110 98
3 135 59 109
3 135 109 59
3 137 54 108
3 137 108 54
3 139 59 118
3 139 118 59
