COFF
71 236 71

-6.23054 0.798682 4.72788 0.5 0.5 0.5 1
-6.23054 -0.798682 4.72788 0.5 0.5 0.5 1
-0.0274167 -1.84811 4.33942 0.5 0.5 0.5 1
7.19796 -0.820856 4.70544 0.5 0.5 0.5 1
7.19796 0.820856 4.70544 0.5 0.5 0.5 1
-0.0274167 1.84811 4.33942 0.5 0.5 0.5 1
1.05737 -1.5034 4.51017 0.5 0.5 0.5 1
1.05737 1.5034 4.51017 0.5 0.5 0.5 1
-1.10299 1.49368 4.4725 0.5 0.5 0.5 1
-1.10299 -1.49368 4.4725 0.5 0.5 0.5 1
1.96308 -1.16504 4.76667 0.5 0.5 0.5 1
1.96308 1.16504 4.76667 0.5 0.5 0.5 1
-2.01913 1.18465 4.7267 0.5 0.5 0.5 1
-2.01913 -1.18465 4.7267 0.5 0.5 0.5 1
3.03956 -1.08342 4.77274 0.5 0.5 0.5 1
3.03956 1.08342 4.77274 0.5 0.5 0.5 1
-3.01134 1.06976 4.71875 0.5 0.5 0.5 1
-3.01134 -1.06976 4.71875 0.5 0.5 0.5 1
4.03639 -1.0258 4.80308 0.5 0.5 0.5 1
4.03639 1.0258 4.80308 0.5 0.5 0.5 1
-4.00545 0.972406 4.73759 0.5 0.5 0.5 1
-4.00545 -0.972406 4.73759 0.5 0.5 0.5 1
5.03126 -0.979476 4.72526 0.5 0.5 0.5 1
5.03126 0.979476 4.72526 0.5 0.5 0.5 1
6.04048 -0.904975 4.70865 0.5 0.5 0.5 1
6.04048 0.904975 4.70865 0.5 0.5 0.5 1
-5.00363 0.889771 4.72809 0.5 0.5 0.5 1
-5.00363 -0.889771 4.72809 0.5 0.5 0.5 1
-1.1492 -1.44031 3.60858 0.5 0.5 0.5 1
-1.87726 0.76225 2.6008 0.5 0.5 0.5 1
-1.87726 -0.76225 2.6008 0.5 0.5 0.5 1
1.07508 -1.43536 3.44849 0.5 0.5 0.5 1
1.07508 1.43536 3.44849 0.5 0.5 0.5 1
-2.30987 1.06778 3.66342 0.5 0.5 0.5 1
-2.30987 -1.06778 3.66342 0.5 0.5 0.5 1
0.00533182 -1.57443 3.21581 0.5 0.5 0.5 1
0.00533182 1.57443 3.21581 0.5 0.5 0.5 1
2.28211 1.01667 3.72432 0.5 0.5 0.5 1
3.93408 -0.618592 3.46312 1 1 0 1
-0.690768 -1.37125 2.71223 0.5 0.5 0.5 1
-0.690768 1.37125 2.71223 0.5 0.5 0.5 1
-1.51453 -0.658749 1.60136 0.5 0.5 0.5 1
-1.51453 0.658749 1.60136 0.5 0.5 0.5 1
0.893678 1.31742 2.40551 0.5 0.5 0.5 1
0.893678 -1.31742 2.40551 0.5 0.5 0.5 1
3.93408 0.618592 3.46312 1 1 0 1
-3.92666 0.660383 3.60169 1 1 0 1
1.90942 -4.29356e-16 2.82447 0.5 0.5 0.5 1
1.27887 0.912466 2.1321 0.5 0.5 0.5 1
1.27887 -0.912466 2.1321 0.5 0.5 0.5 1
0.0328742 1.3492 2.29667 0.5 0.5 0.5 1
0.0328742 -1.3492 2.29667 0.5 0.5 0.5 1
1.43938 -2.11218e-16 1.99526 0.5 0.5 0.5 1
4.80067 -0.671388 3.81921 1 1 0 1
4.80067 0.671388 3.81921 1 1 0 1
-2.46568 -1.32104e-16 3.28991 0.5 0.5 0.5 1
-3.92666 -0.660383 3.60169 1 1 0 1
0.0395967 -5.55139e-17 1.02806 1 1 0 1
-0.335162 -0.953796 1.92625 0.5 0.5 0.5 1
-0.335162 0.953796 1.92625 0.5 0.5 0.5 1
-5.10736 0.733951 4.09284 0.5 0.5 0.5 1
-5.10736 -0.733951 4.09284 0.5 0.5 0.5 1
6.06494 -0.753401 4.20262 0.5 0.5 0.5 1
6.06494 0.753401 4.20262 0.5 0.5 0.5 1
2.28211 -1.01667 3.72432 0.5 0.5 0.5 1
1.57602 1.23809 2.96638 0.5 0.5 0.5 1
0.549929 0.758738 1.69468 0.5 0.5 0.5 1
0.549929 -0.758738 1.69468 0.5 0.5 0.5 1
1.57602 -1.23809 2.96638 0.5 0.5 0.5 1
-1.1492 1.44031 3.60858 0.5 0.5 0.5 1
2.28247 -6.17523e-16 3.70656 0.5 0.5 0.5 1

3 0 1 61
3 0 61 1
3 0 26 60
3 0 60 26
3 0 60 61
3 0 61 60
3 1 27 61
3 1 61 27
3 2 6 31
3 2 31 6
3 2 9 28
3 2 28 9
3 2 28 35
3 2 35 28
3 2 31 35
3 2 35 31
3 3 4 63
3 3 63 4
3 3 24 62
3 3 62 24
3 3 62 63
3 3 63 62
3 4 25 63
3 4 63 25
3 5 7 32
3 5 32 7
3 5 8 69
3 5 69 8
3 5 32 36
3 5 36 32
3 5 36 69
3 5 69 36
3 6 10 64
3 6 64 10
3 6 31 64
3 6 64 31
3 7 11 37
3 7 37 11
3 7 32 37
3 7 37 32
3 8 12 33
3 8 33 12
3 8 33 69
3 8 69 33
3 9 13 34
3 9 34 13
3 9 28 34
3 9 34 28
3 10 14 64
3 10 64 14
3 11 15 37
3 11 37 15
3 12 16 33
3 12 33 16
3 13 17 34
3 13 34 17
3 14 18 38
3 14 38 18
3 14 38 64
3 14 64 38
3 15 19 45
3 15 45 19
3 15 37 45
3 15 45 37
3 16 20 46
3 16 46 20
3 16 33 46
3 16 46 33
3 17 21 56
3 17 56 21
3 17 34 56
3 17 56 34
3 18 22 38
3 18 38 22
3 19 23 45
3 19 45 23
3 20 26 46
3 20 46 26
3 21 27 56
3 21 56 27
3 22 24 53
3 22 53 24
3 22 38 53
3 22 53 38
3 23 25 54
3 23 54 25
3 23 45 54
3 23 54 45
3 24 53 62
3 24 62 53
3 25 54 63
3 25 63 54
3 26 46 60
3 26 60 46
3 27 56 61
3 27 61 56
3 28 34 39
3 28 39 34
3 28 35 39
3 28 39 35
3 29 30 41
3 29 41 30
3 29 30 55
3 29 55 30
3 29 33 40
3 29 40 33
3 29 33 55
3 29 55 33
3 29 40 59
3 29 59 40
3 29 41 42
3 29 42 41
3 29 42 59
3 29 59 42
3 30 34 39
3 30 39 34
3 30 34 55
3 30 55 34
3 30 39 58
3 30 58 39
3 30 41 58
3 30 58 41
3 31 35 44
3 31 44 35
3 31 44 68
3 31 68 44
3 31 64 68
3 31 68 64
3 32 36 43
3 32 43 36
3 32 37 65
3 32 65 37
3 32 43 65
3 32 65 43
3 33 40 69
3 33 69 40
3 33 46 55
3 33 55 46
3 34 55 56
3 34 56 55
3 35 39 51
3 35 51 39
3 35 44 51
3 35 51 44
3 36 40 50
3 36 50 40
3 36 40 69
3 36 69 40
3 36 43 50
3 36 50 43
3 37 45 70
3 37 70 45
3 37 47 65
3 37 65 47
3 37 47 70
3 37 70 47
3 38 45 54
3 38 54 45
3 38 45 70
3 38 70 45
3 38 53 54
3 38 54 53
3 38 64 70
3 38 70 64
3 39 51 58
3 39 58 51
3 40 50 59
3 40 59 50
3 41 42 57
3 41 57 42
3 41 57 58
3 41 58 57
3 42 57 59
3 42 59 57
3 43 48 57
3 43 57 48
3 43 48 65
3 43 65 48
3 43 48 66
3 43 66 48
3 43 50 57
3 43 57 50
3 43 50 66
3 43 66 50
3 44 49 57
3 44 57 49
3 44 49 67
3 44 67 49
3 44 49 68
3 44 68 49
3 44 51 57
3 44 57 51
3 44 51 67
3 44 67 51
3 46 55 56
3 46 56 55
3 46 56 61
3 46 61 56
3 46 60 61
3 46 61 60
3 47 48 52
3 47 52 48
3 47 48 57
3 47 57 48
3 47 48 65
3 47 65 48
3 47 49 52
3 47 52 49
3 47 49 57
3 47 57 49
3 47 49 68
3 47 68 49
3 47 64 68
3 47 68 64
3 47 64 70
3 47 70 64
3 48 52 57
3 48 57 52
3 48 57 66
3 48 66 57
3 49 52 57
3 49 57 52
3 49 57 67
3 49 67 57
3 50 57 59
3 50 59 57
3 50 57 66
3 50 66 57
3 51 57 58
3 51 58 57
3 51 57 67
3 51 67 57
3 53 54 63
3 53 63 54
3 53 62 63
3 53 63 62
