COFF
168 660 168

-6.65607 1.26864 8.16393 0.5 0.5 0.5 1
-6.65607 -1.26864 8.16393 0.5 0.5 0.5 1
-0.0202652 -2.38358 7.7921 0.5 0.5 0.5 1
7.57401 -1.32237 8.10884 0.5 0.5 0.5 1
7.57401 1.32237 8.10884 0.5 0.5 0.5 1
-0.0202652 2.38358 7.7921 0.5 0.5 0.5 1
1.23252 -1.97578 8.02843 0.5 0.5 0.5 1
1.23252 1.97578 8.02843 0.5 0.5 0.5 1
-1.20906 2.00693 7.94588 0.5 0.5 0.5 1
-1.20906 -2.00693 7.94588 0.5 0.5 0.5 1
2.05366 -1.55967 8.43822 0.5 0.5 0.5 1
2.05366 1.55967 8.43822 0.5 0.5 0.5 1
-2.11389 1.70735 8.24873 0.5 0.5 0.5 1
-2.11389 -1.70735 8.24873 0.5 0.5 0.5 1
3.05121 -1.53444 8.39069 0.5 0.5 0.5 1
3.05121 1.53444 8.39069 0.5 0.5 0.5 1
-3.05435 1.85507 7.94348 0.5 0.5 0.5 1
-3.05435 -1.85507 7.94348 0.5 0.5 0.5 1
4.04967 -1.4896 8.39555 0.5 0.5 0.5 1
4.04967 1.4896 8.39555 0.5 0.5 0.5 1
-4.09511 1.87196 7.83465 0.5 0.5 0.5 1
-4.09511 -1.87196 7.83465 0.5 0.5 0.5 1
5.02354 -1.78186 7.93673 0.5 0.5 0.5 1
5.02354 1.78186 7.93673 0.5 0.5 0.5 1
6.14918 -1.68326 7.97765 0.5 0.5 0.5 1
6.14918 1.68326 7.97765 0.5 0.5 0.5 1
-5.15746 1.67124 7.98061 0.5 0.5 0.5 1
-5.15746 -1.67124 7.98061 0.5 0.5 0.5 1
8.89748 2.61873e-08 8.14167 0.5 0.5 0.5 1
-7.92514 9.59524e-05 8.18956 0.5 0.5 0.5 1
-2.04078 -1.16173 5.37005 0.5 0.5 0.5 1
1.27168 -1.81517 6.21125 1 1 0 1
1.27168 1.81517 6.21125 1 1 0 1
-2.18719 1.7626 6.97571 0.5 0.5 0.5 1
-2.18722 -1.76264 6.97571 0.5 0.5 0.5 1
0.10008 -2.04268 6.28448 0.5 0.5 0.5 1
0.100091 2.0426 6.28448 0.5 0.5 0.5 1
2.59966 1.5437 7.1024 0.5 0.5 0.5 1
4.11727 -1.52363 7.28335 0.5 0.5 0.5 1
-0.882288 -1.93816 5.78719 0.5 0.5 0.5 1
-0.882269 1.93814 5.78719 0.5 0.5 0.5 1
-1.64715 -0.87768 3.90877 0.5 0.5 0.5 1
-1.64717 0.877587 3.90877 0.5 0.5 0.5 1
1.16572 1.81911 5.44765 0.5 0.5 0.5 1
1.16586 -1.81895 5.44765 0.5 0.5 0.5 1
4.11727 1.52363 7.28335 0.5 0.5 0.5 1
-4.35123 0.660048 4.06512 1 1 0 1
2.58826 6.68016e-08 5.91644 0.5 0.5 0.5 1
1.64605 1.38852 5.04255 0.5 0.5 0.5 1
1.64606 -1.38852 5.04255 0.5 0.5 0.5 1
0.21157 1.92167 5.1106 0.5 0.5 0.5 1
0.21155 -1.92171 5.11062 0.5 0.5 0.5 1
1.96747 -8.9679e-07 4.62285 0.5 0.5 0.5 1
5.29647 -0.75107 3.94798 1 1 0 1
5.29647 0.751069 3.94798 1 1 0 1
-2.66877 -0.000607896 5.63835 0.5 0.5 0.5 1
-0.784277 -1.72004 4.59632 0.5 0.5 0.5 1
-0.784293 1.72007 4.59642 0.5 0.5 0.5 1
-4.35123 -0.660042 4.06512 1 1 0 1
0.166425 2.94873e-05 1.02806 1 1 0 1
1.0535 1.69039 4.40773 0.5 0.5 0.5 1
1.05353 -1.69034 4.40774 0.5 0.5 0.5 1
3.11496 1.20759e-07 6.05842 0.5 0.5 0.5 1
6.83576 -1.46792 7.44904 0.5 0.5 0.5 1
6.83576 1.46792 7.44904 0.5 0.5 0.5 1
2.59966 -1.5437 7.1024 0.5 0.5 0.5 1
1.73271 1.67924 6.11672 0.5 0.5 0.5 1
-5.82841 1.45647 7.35421 0.5 0.5 0.5 1
-5.82841 -1.45647 7.35421 0.5 0.5 0.5 1
1.46404 1.17986 3.93511 1 1 1 1
1.46404 -1.17987 3.93511 1 1 1 1
1.73271 -1.67924 6.11672 0.5 0.5 0.5 1
-1.03503 1.99077 6.78749 0.5 0.5 0.5 1
0.240596 1.7717 3.98042 1 1 1 1
0.240573 -1.77168 3.98042 1 1 1 1
1.6444 1.67993e-07 3.54814 1 1 1 1
4.17123 1.312e-06 6.89162 0.5 0.5 0.5 1
-0.669385 -1.46891 3.44093 1 1 1 1
-0.669418 1.46888 3.44096 1 1 1 1
-3.00948 1.82773 6.43349 0.5 0.5 0.5 1
-3.00948 -1.82803 6.43347 0.5 0.5 0.5 1
-1.86846 -0.458992 2.98727 1 1 1 1
-1.86852 0.458915 2.98723 1 1 1 1
-3.60256 1.86383 6.87164 0.5 0.5 0.5 1
-3.60257 -1.86398 6.87164 0.5 0.5 0.5 1
0.937702 1.52703 3.33107 1 1 1 1
0.937715 -1.52702 3.33107 1 1 1 1
6.0799 -1.59016 6.7927 0.5 0.5 0.5 1
6.0799 1.59016 6.7927 0.5 0.5 0.5 1
7.48624 3.76755e-07 7.04004 0.5 0.5 0.5 1
6.97092 -0.71504 5.9168 0.5 0.5 0.5 1
6.97091 0.715044 5.91679 0.5 0.5 0.5 1
6.64165 -1.19162 6.38332 0.5 0.5 0.5 1
6.64162 1.19159 6.38333 0.5 0.5 0.5 1
-5.16416 1.61872 6.77528 0.5 0.5 0.5 1
-5.16416 -1.61872 6.77528 0.5 0.5 0.5 1
5.20069 -1.62424 6.61073 0.5 0.5 0.5 1
5.20068 1.62418 6.61073 0.5 0.5 0.5 1
-6.50797 -4.03252e-08 7.0323 0.5 0.5 0.5 1
-4.22765 1.78592 6.48117 0.5 0.5 0.5 1
-4.22755 -1.78606 6.48117 0.5 0.5 0.5 1
0.241884 1.58321 2.96053 1 1 1 1
0.241932 -1.58331 2.96053 1 1 1 1
-1.03504 -1.99077 6.7875 0.5 0.5 0.5 1
1.27706 1.03733 2.93823 1 1 1 1
1.27703 -1.03731 2.93824 1 1 1 1
-5.96543 0.763001 5.88178 0.5 0.5 0.5 1
-5.96543 -0.762999 5.88178 0.5 0.5 0.5 1
-5.68752 1.19975 6.27969 0.5 0.5 0.5 1
-5.68752 -1.19982 6.27969 0.5 0.5 0.5 1
4.60749 -1.18192 6.30671 0.5 0.5 0.5 1
4.60722 1.18204 6.30669 0.5 0.5 0.5 1
4.10518 -0.392938 5.25412 0.5 0.5 0.5 1
4.10519 0.392926 5.25412 0.5 0.5 0.5 1
-2.04082 1.16177 5.3701 0.5 0.5 0.5 1
-2.11127 -6.35242e-05 3.99759 0.5 0.5 0.5 1
-0.825957 -1.1805 2.72072 1 1 1 1
-0.82599 1.18046 2.72074 1 1 1 1
1.40864 5.18673e-05 2.59229 1 1 1 1
-1.50028 -0.431973 1.76394 1 1 1 1
-1.50019 0.432018 1.76391 1 1 1 1
-3.64022 1.78255 5.59472 0.5 0.5 0.5 1
-3.6403 -1.78264 5.59464 0.5 0.5 0.5 1
0.826435 1.3671 2.39345 1 1 1 1
0.826477 -1.36733 2.39346 1 1 1 1
-3.24962 1.36655 5.31086 0.5 0.5 0.5 1
-3.2494 -1.36575 5.31088 0.5 0.5 0.5 1
5.99639 -1.44368 5.68627 0.5 0.5 0.5 1
5.99637 1.44369 5.68627 0.5 0.5 0.5 1
6.37717 -1.20465 5.44947 0.5 0.5 0.5 1
6.37716 1.20465 5.44948 0.5 0.5 0.5 1
-2.87131 0.325522 4.60379 0.5 0.5 0.5 1
-2.87122 -0.325685 4.6038 0.5 0.5 0.5 1
-5.0867 1.50146 5.73782 0.5 0.5 0.5 1
-5.0867 -1.50146 5.73782 0.5 0.5 0.5 1
-2.38361 1.38175 5.83216 0.5 0.5 0.5 1
-2.38384 -1.38152 5.83211 0.5 0.5 0.5 1
5.33848 -1.40015 5.53608 0.5 0.5 0.5 1
5.33845 1.40015 5.53606 0.5 0.5 0.5 1
6.89929 -0.733485 4.66166 0.5 0.5 0.5 1
6.89931 0.733491 4.66166 0.5 0.5 0.5 1
-4.20839 1.69959 5.50283 0.5 0.5 0.5 1
-4.20836 -1.69964 5.50282 0.5 0.5 0.5 1
3.68366 -0.975219 6.75306 0.5 0.5 0.5 1
3.68366 0.975222 6.75307 0.5 0.5 0.5 1
0.203921 1.37526 2.1038 1 1 1 1
0.20389 -1.37525 2.10376 1 1 1 1
-5.45414 1.26126 5.44212 0.5 0.5 0.5 1
-5.45413 -1.26126 5.44212 0.5 0.5 0.5 1
1.14808 0.840475 2.0993 1 1 1 1
1.14803 -0.840541 2.09932 1 1 1 1
4.78646 -0.977357 5.29541 0.5 0.5 0.5 1
4.78644 0.977352 5.29541 0.5 0.5 0.5 1
-5.62704 0.702844 4.72394 0.5 0.5 0.5 1
-5.62704 -0.702843 4.72394 0.5 0.5 0.5 1
-2.22033 -0.000154229 5.28969 0.5 0.5 0.5 1
-0.338207 -0.97798 1.87442 1 1 1 1
-0.338059 0.977896 1.87439 1 1 1 1
0.582896 -2.13987 7.0573 0.5 0.5 0.5 1
0.582897 2.13987 7.0573 0.5 0.5 0.5 1
-2.8863 -1.00439 5.9864 0.5 0.5 0.5 1
-2.88548 1.00332 5.98707 0.5 0.5 0.5 1
0.567102 -0.750529 1.68971 1 1 1 1
0.566557 0.749898 1.68982 1 1 1 1
-3.96472 1.24629 4.82704 0.5 0.5 0.5 1
-3.96475 -1.24632 4.82701 0.5 0.5 0.5 1
-4.73212 1.09354 4.90248 0.5 0.5 0.5 1
-4.73212 -1.09353 4.90248 0.5 0.5 0.5 1

3 0 26 67
3 0 67 26
3 0 29 98
3 0 98 29
3 0 67 98
3 0 98 67
3 1 27 68
3 1 68 27
3 1 29 98
3 1 98 29
3 1 68 98
3 1 98 68
3 2 6 31
3 2 31 6
3 2 6 158
3 2 158 6
3 2 9 103
3 2 103 9
3 2 31 35
3 2 35 31
3 2 35 103
3 2 103 35
3 2 35 158
3 2 158 35
3 3 24 63
3 3 63 24
3 3 28 89
3 3 89 28
3 3 63 89
3 3 89 63
3 4 25 64
3 4 64 25
3 4 28 89
3 4 89 28
3 4 64 89
3 4 89 64
3 5 7 32
3 5 32 7
3 5 7 159
3 5 159 7
3 5 8 72
3 5 72 8
3 5 32 36
3 5 36 32
3 5 36 72
3 5 72 36
3 5 36 159
3 5 159 36
3 6 10 65
3 6 65 10
3 6 31 65
3 6 65 31
3 6 31 158
3 6 158 31
3 7 11 37
3 7 37 11
3 7 32 37
3 7 37 32
3 7 32 159
3 7 159 32
3 8 12 33
3 8 33 12
3 8 33 72
3 8 72 33
3 9 13 34
3 9 34 13
3 9 34 103
3 9 103 34
3 10 14 65
3 10 65 14
3 11 15 37
3 11 37 15
3 12 16 33
3 12 33 16
3 13 17 34
3 13 34 17
3 14 18 38
3 14 38 18
3 14 38 65
3 14 65 38
3 15 19 45
3 15 45 19
3 15 37 45
3 15 45 37
3 16 20 83
3 16 83 20
3 16 33 79
3 16 79 33
3 16 79 83
3 16 83 79
3 17 21 84
3 17 84 21
3 17 34 80
3 17 80 34
3 17 80 84
3 17 84 80
3 18 22 38
3 18 38 22
3 19 23 45
3 19 45 23
3 20 26 94
3 20 94 26
3 20 83 99
3 20 99 83
3 20 94 99
3 20 99 94
3 21 27 95
3 21 95 27
3 21 84 100
3 21 100 84
3 21 95 100
3 21 100 95
3 22 24 87
3 22 87 24
3 22 38 96
3 22 96 38
3 22 87 96
3 22 96 87
3 23 25 88
3 23 88 25
3 23 45 97
3 23 97 45
3 23 88 97
3 23 97 88
3 24 63 87
3 24 87 63
3 25 64 88
3 25 88 64
3 26 67 94
3 26 94 67
3 27 68 95
3 27 95 68
3 30 34 39
3 30 39 34
3 30 34 136
3 30 136 34
3 30 39 56
3 30 56 39
3 30 41 56
3 30 56 41
3 30 41 115
3 30 115 41
3 30 55 114
3 30 114 55
3 30 55 136
3 30 136 55
3 30 55 155
3 30 155 55
3 30 114 115
3 30 115 114
3 30 115 155
3 30 155 115
3 31 35 44
3 31 44 35
3 31 35 158
3 31 158 35
3 31 44 71
3 31 71 44
3 31 65 71
3 31 71 65
3 32 36 43
3 32 43 36
3 32 36 159
3 32 159 36
3 32 37 66
3 32 66 37
3 32 43 66
3 32 66 43
3 33 40 72
3 33 72 40
3 33 40 114
3 33 114 40
3 33 79 135
3 33 135 79
3 33 114 135
3 33 135 114
3 34 39 103
3 34 103 39
3 34 80 136
3 34 136 80
3 35 39 51
3 35 51 39
3 35 39 103
3 35 103 39
3 35 44 51
3 35 51 44
3 36 40 50
3 36 50 40
3 36 40 72
3 36 72 40
3 36 43 50
3 36 50 43
3 37 45 76
3 37 76 45
3 37 45 144
3 37 144 45
3 37 47 62
3 37 62 47
3 37 47 66
3 37 66 47
3 37 62 76
3 37 76 62
3 37 62 144
3 37 144 62
3 38 62 65
3 38 65 62
3 38 62 76
3 38 76 62
3 38 65 143
3 38 143 65
3 38 76 110
3 38 110 76
3 38 76 143
3 38 143 76
3 38 96 110
3 38 110 96
3 39 51 56
3 39 56 51
3 40 50 57
3 40 57 50
3 40 57 114
3 40 114 57
3 41 56 77
3 41 77 56
3 41 77 116
3 41 116 77
3 41 81 115
3 41 115 81
3 41 81 116
3 41 116 81
3 42 57 78
3 42 78 57
3 42 57 114
3 42 114 57
3 42 78 117
3 42 117 78
3 42 82 115
3 42 115 82
3 42 82 117
3 42 117 82
3 42 114 115
3 42 115 114
3 43 48 60
3 43 60 48
3 43 48 66
3 43 66 48
3 43 50 60
3 43 60 50
3 44 49 61
3 44 61 49
3 44 49 71
3 44 71 49
3 44 51 61
3 44 61 51
3 45 76 111
3 45 111 76
3 45 76 144
3 45 144 76
3 45 97 111
3 45 111 97
3 46 55 125
3 46 125 55
3 46 55 131
3 46 131 55
3 46 58 132
3 46 132 58
3 46 58 154
3 46 154 58
3 46 106 147
3 46 147 106
3 46 106 153
3 46 153 106
3 46 121 125
3 46 125 121
3 46 121 141
3 46 141 121
3 46 125 164
3 46 164 125
3 46 131 132
3 46 132 131
3 46 133 141
3 46 141 133
3 46 133 147
3 46 147 133
3 46 141 164
3 46 164 141
3 46 141 166
3 46 166 141
3 46 147 166
3 46 166 147
3 46 153 154
3 46 154 153
3 47 48 52
3 47 52 48
3 47 48 66
3 47 66 48
3 47 49 52
3 47 52 49
3 47 49 71
3 47 71 49
3 47 62 65
3 47 65 62
3 47 65 71
3 47 71 65
3 48 52 69
3 48 69 52
3 48 60 69
3 48 69 60
3 49 52 70
3 49 70 52
3 49 61 70
3 49 70 61
3 50 57 73
3 50 73 57
3 50 60 73
3 50 73 60
3 51 56 74
3 51 74 56
3 51 61 74
3 51 74 61
3 52 69 75
3 52 75 69
3 52 70 75
3 52 75 70
3 53 54 113
3 53 113 54
3 53 54 140
3 53 140 54
3 53 90 129
3 53 129 90
3 53 90 139
3 53 139 90
3 53 112 113
3 53 113 112
3 53 112 151
3 53 151 112
3 53 127 129
3 53 129 127
3 53 127 137
3 53 137 127
3 53 137 151
3 53 151 137
3 53 139 140
3 53 140 139
3 54 91 130
3 54 130 91
3 54 91 140
3 54 140 91
3 54 113 152
3 54 152 113
3 54 128 130
3 54 130 128
3 54 128 138
3 54 138 128
3 54 138 152
3 54 152 138
3 55 58 126
3 55 126 58
3 55 58 132
3 55 132 58
3 55 79 125
3 55 125 79
3 55 79 135
3 55 135 79
3 55 80 126
3 55 126 80
3 55 80 136
3 55 136 80
3 55 114 135
3 55 135 114
3 55 114 155
3 55 155 114
3 55 125 161
3 55 161 125
3 55 126 160
3 55 160 126
3 55 131 132
3 55 132 131
3 55 135 161
3 55 161 135
3 55 136 160
3 55 160 136
3 56 74 77
3 56 77 74
3 57 73 78
3 57 78 73
3 58 107 148
3 58 148 107
3 58 107 154
3 58 154 107
3 58 122 126
3 58 126 122
3 58 122 142
3 58 142 122
3 58 126 165
3 58 165 126
3 58 134 142
3 58 142 134
3 58 134 148
3 58 148 134
3 58 142 165
3 58 165 142
3 58 142 167
3 58 167 142
3 58 148 167
3 58 167 148
3 59 118 149
3 59 149 118
3 59 118 150
3 59 150 118
3 59 119 120
3 59 120 119
3 59 119 156
3 59 156 119
3 59 120 157
3 59 157 120
3 59 123 145
3 59 145 123
3 59 123 149
3 59 149 123
3 59 124 146
3 59 146 124
3 59 124 150
3 59 150 124
3 59 145 157
3 59 157 145
3 59 145 163
3 59 163 145
3 59 146 156
3 59 156 146
3 59 146 162
3 59 162 146
3 59 149 163
3 59 163 149
3 59 150 162
3 59 162 150
3 60 69 85
3 60 85 69
3 60 73 85
3 60 85 73
3 61 70 86
3 61 86 70
3 61 74 86
3 61 86 74
3 62 65 143
3 62 143 65
3 62 76 143
3 62 143 76
3 62 76 144
3 62 144 76
3 63 87 92
3 63 92 87
3 63 89 92
3 63 92 89
3 64 88 93
3 64 93 88
3 64 89 93
3 64 93 89
3 67 94 108
3 67 108 94
3 67 98 108
3 67 108 98
3 68 95 109
3 68 109 95
3 68 98 109
3 68 109 98
3 69 75 104
3 69 104 75
3 69 85 104
3 69 104 85
3 70 75 105
3 70 105 75
3 70 86 105
3 70 105 86
3 73 78 101
3 73 101 78
3 73 85 101
3 73 101 85
3 74 77 102
3 74 102 77
3 74 86 102
3 74 102 86
3 75 104 118
3 75 118 104
3 75 105 118
3 75 118 105
3 76 110 151
3 76 151 110
3 76 111 152
3 76 152 111
3 76 112 113
3 76 113 112
3 76 112 151
3 76 151 112
3 76 113 152
3 76 152 113
3 77 102 116
3 77 116 102
3 78 101 117
3 78 117 101
3 79 83 121
3 79 121 83
3 79 121 125
3 79 125 121
3 79 125 161
3 79 161 125
3 79 135 161
3 79 161 135
3 80 84 122
3 80 122 84
3 80 122 126
3 80 126 122
3 80 126 160
3 80 160 126
3 80 136 160
3 80 160 136
3 81 82 115
3 81 115 82
3 81 82 120
3 81 120 82
3 81 116 156
3 81 156 116
3 81 119 120
3 81 120 119
3 81 119 156
3 81 156 119
3 82 117 157
3 82 157 117
3 82 120 157
3 82 157 120
3 83 99 121
3 83 121 99
3 84 100 122
3 84 122 100
3 85 101 123
3 85 123 101
3 85 104 123
3 85 123 104
3 86 102 124
3 86 124 102
3 86 105 124
3 86 124 105
3 87 92 127
3 87 127 92
3 87 96 127
3 87 127 96
3 88 93 128
3 88 128 93
3 88 97 128
3 88 128 97
3 89 90 91
3 89 91 90
3 89 90 92
3 89 92 90
3 89 91 93
3 89 93 91
3 90 91 140
3 90 140 91
3 90 92 129
3 90 129 92
3 90 139 140
3 90 140 139
3 91 93 130
3 91 130 93
3 92 127 129
3 92 129 127
3 93 128 130
3 93 130 128
3 94 99 133
3 94 133 99
3 94 108 133
3 94 133 108
3 95 100 134
3 95 134 100
3 95 109 134
3 95 134 109
3 96 110 137
3 96 137 110
3 96 127 137
3 96 137 127
3 97 111 138
3 97 138 111
3 97 128 138
3 97 138 128
3 98 106 107
3 98 107 106
3 98 106 108
3 98 108 106
3 98 107 109
3 98 109 107
3 99 121 141
3 99 141 121
3 99 133 141
3 99 141 133
3 100 122 142
3 100 142 122
3 100 134 142
3 100 142 134
3 101 117 145
3 101 145 117
3 101 123 145
3 101 145 123
3 102 116 146
3 102 146 116
3 102 124 146
3 102 146 124
3 104 118 149
3 104 149 118
3 104 123 149
3 104 149 123
3 105 118 150
3 105 150 118
3 105 124 150
3 105 150 124
3 106 107 154
3 106 154 107
3 106 108 147
3 106 147 108
3 106 153 154
3 106 154 153
3 107 109 148
3 107 148 109
3 108 133 147
3 108 147 133
3 109 134 148
3 109 148 134
3 110 137 151
3 110 151 137
3 111 138 152
3 111 152 138
3 114 115 155
3 114 155 115
3 116 146 156
3 116 156 146
3 117 145 157
3 117 157 145
3 121 125 164
3 121 164 125
3 121 141 164
3 121 164 141
3 122 126 165
3 122 165 126
3 122 142 165
3 122 165 142
3 123 145 163
3 123 163 145
3 123 149 163
3 123 163 149
3 124 146 162
3 124 162 146
3 124 150 162
3 124 162 150
3 133 141 166
3 133 166 141
3 133 147 166
3 133 166 147
3 134 142 167
3 134 167 142
3 134 148 167
3 134 167 148
