COFF
168 660 168

-6.65607 1.26864 8.16393 0.5 0.5 0.5 1
-6.65607 -1.26864 8.16393 0.5 0.5 0.5 1
-0.0202652 -2.38358 7.7921 0.5 0.5 0.5 1
7.57401 -1.32237 8.10884 0.5 0.5 0.5 1
7.57401 1.32237 8.10884 0.5 0.5 0.5 1
-0.0202652 2.38358 7.7921 0.5 0.5 0.5 1
1.23252 -1.97578 8.02843 0.5 0.5 0.5 1
1.23252 1.97578 8.02843 0.5 0.5 0.5 1
-1.20906 2.00693 7.94588 0.5 0.5 0.5 1
-1.20906 -2.00693 7.94588 0.5 0.5 0.5 1
2.05366 -1.55967 8.43822 0.5 0.5 0.5 1
2.05366 1.55967 8.43822 0.5 0.5 0.5 1
-2.11389 1.70735 8.24873 0.5 0.5 0.5 1
-2.11389 -1.70735 8.24873 0.5 0.5 0.5 1
3.05121 -1.53444 8.39069 0.5 0.5 0.5 1
3.05121 1.53444 8.39069 0.5 0.5 0.5 1
-3.05435 1.85507 7.94348 0.5 0.5 0.5 1
-3.05435 -1.85507 7.94348 0.5 0.5 0.5 1
4.04967 -1.4896 8.39555 0.5 0.5 0.5 1
4.04967 1.4896 8.39555 0.5 0.5 0.5 1
-4.09511 1.87196 7.83465 0.5 0.5 0.5 1
-4.09511 -1.87196 7.83465 0.5 0.5 0.5 1
5.02354 -1.78186 7.93673 0.5 0.5 0.5 1
5.02354 1.78186 7.93673 0.5 0.5 0.5 1
6.14918 -1.68326 7.97765 0.5 0.5 0.5 1
6.14918 1.68326 7.97765 0.5 0.5 0.5 1
-5.15746 1.67124 7.98061 0.5 0.5 0.5 1
-5.15746 -1.67124 7.98061 0.5 0.5 0.5 1
8.89748 1.69593e-08 8.14167 0.5 0.5 0.5 1
-7.92514 9.59594e-05 8.18956 0.5 0.5 0.5 1
-2.04078 -1.16172 5.37005 0.5 0.5 0.5 1
1.27168 -1.81517 6.21125 1 1 0 1
1.27168 1.81517 6.21125 1 1 0 1
-2.1872 1.76262 6.97572 0.5 0.5 0.5 1
-2.18722 -1.76264 6.97571 0.5 0.5 0.5 1
0.100084 -2.04269 6.28449 0.5 0.5 0.5 1
0.100085 2.04265 6.28448 0.5 0.5 0.5 1
2.59966 1.5437 7.1024 0.5 0.5 0.5 1
4.11727 -1.52363 7.28335 0.5 0.5 0.5 1
-0.882288 -1.93816 5.78719 0.5 0.5 0.5 1
-0.882275 1.93815 5.78719 0.5 0.5 0.5 1
-1.64715 -0.877665 3.90878 0.5 0.5 0.5 1
-1.64716 0.877616 3.90877 0.5 0.5 0.5 1
1.16576 1.81904 5.44765 0.5 0.5 0.5 1
1.16559 -1.8192 5.44766 0.5 0.5 0.5 1
4.11727 1.52363 7.28335 0.5 0.5 0.5 1
-4.35123 0.660047 4.06512 1 1 0 1
2.58826 1.09491e-06 5.91644 0.5 0.5 0.5 1
1.64606 1.38852 5.04255 0.5 0.5 0.5 1
1.64605 -1.38852 5.04255 0.5 0.5 0.5 1
0.211558 1.9217 5.1106 0.5 0.5 0.5 1
0.211526 -1.9217 5.11062 0.5 0.5 0.5 1
1.96747 1.47515e-06 4.62285 0.5 0.5 0.5 1
5.29647 -0.75107 3.94798 1 1 0 1
5.29647 0.751068 3.94798 1 1 0 1
-2.6688 -0.00033172 5.6383 0.5 0.5 0.5 1
-0.784295 -1.72004 4.5963 0.5 0.5 0.5 1
-0.784306 1.72008 4.59636 0.5 0.5 0.5 1
-4.35122 -0.660043 4.06512 1 1 0 1
0.166424 -2.74013e-05 1.02806 1 1 0 1
1.05349 1.69037 4.40773 0.5 0.5 0.5 1
1.05353 -1.69033 4.40774 0.5 0.5 0.5 1
3.11495 1.71467e-06 6.05843 0.5 0.5 0.5 1
6.83576 -1.46792 7.44904 0.5 0.5 0.5 1
6.83576 1.46792 7.44904 0.5 0.5 0.5 1
2.59966 -1.5437 7.1024 0.5 0.5 0.5 1
1.73271 1.67924 6.11672 0.5 0.5 0.5 1
-5.82841 1.45647 7.35421 0.5 0.5 0.5 1
-5.82841 -1.45647 7.35421 0.5 0.5 0.5 1
1.46406 1.17986 3.93511 1 1 1 1
1.46404 -1.17984 3.93511 1 1 1 1
1.7327 -1.67924 6.11671 0.5 0.5 0.5 1
-1.03503 1.99077 6.78749 0.5 0.5 0.5 1
0.240548 1.77174 3.98042 1 1 1 1
0.240553 -1.77157 3.98043 1 1 1 1
1.64469 4.43996e-06 3.54814 1 1 1 1
4.17123 6.95237e-07 6.89162 0.5 0.5 0.5 1
-0.669397 -1.46891 3.44093 1 1 1 1
-0.669408 1.4689 3.44096 1 1 1 1
-3.0095 1.82788 6.43349 0.5 0.5 0.5 1
-3.00948 -1.82799 6.43347 0.5 0.5 0.5 1
-1.86839 -0.458928 2.98724 1 1 1 1
-1.86847 0.458918 2.98723 1 1 1 1
-3.60256 1.86383 6.87164 0.5 0.5 0.5 1
-3.60256 -1.86383 6.87164 0.5 0.5 0.5 1
0.937655 1.52711 3.33107 1 1 1 1
0.937664 -1.52697 3.33107 1 1 1 1
6.0799 -1.59016 6.7927 0.5 0.5 0.5 1
6.0799 1.59016 6.7927 0.5 0.5 0.5 1
7.48624 2.33537e-07 7.04004 0.5 0.5 0.5 1
6.97092 -0.715039 5.9168 0.5 0.5 0.5 1
6.97091 0.715047 5.91679 0.5 0.5 0.5 1
6.64159 -1.19183 6.38335 0.5 0.5 0.5 1
6.64147 1.19178 6.38334 0.5 0.5 0.5 1
-5.16416 1.61871 6.77528 0.5 0.5 0.5 1
-5.16416 -1.61872 6.77528 0.5 0.5 0.5 1
5.2007 -1.62408 6.61074 0.5 0.5 0.5 1
5.2007 1.62408 6.61073 0.5 0.5 0.5 1
-6.50797 -1.119e-07 7.0323 0.5 0.5 0.5 1
-4.22765 1.78592 6.48117 0.5 0.5 0.5 1
-4.22765 -1.78593 6.48117 0.5 0.5 0.5 1
0.241852 1.58326 2.96055 1 1 1 1
0.2418 -1.58328 2.96053 1 1 1 1
-1.03503 -1.99077 6.7875 0.5 0.5 0.5 1
1.27707 1.03732 2.93823 1 1 1 1
1.27702 -1.03734 2.93824 1 1 1 1
-5.96543 0.762999 5.88178 0.5 0.5 0.5 1
-5.96543 -0.763 5.88178 0.5 0.5 0.5 1
-5.68753 1.19967 6.27965 0.5 0.5 0.5 1
-5.68752 -1.19982 6.27969 0.5 0.5 0.5 1
4.6074 -1.18197 6.3067 0.5 0.5 0.5 1
4.60714 1.18212 6.30669 0.5 0.5 0.5 1
4.10514 -0.392932 5.25413 0.5 0.5 0.5 1
4.10518 0.392924 5.25413 0.5 0.5 0.5 1
-2.0408 1.16175 5.37009 0.5 0.5 0.5 1
-2.11125 -3.32177e-05 3.99759 0.5 0.5 0.5 1
-0.825959 -1.1805 2.72072 1 1 1 1
-0.82598 1.18047 2.72073 1 1 1 1
1.40868 1.06906e-05 2.5923 1 1 1 1
-1.5002 -0.432003 1.76395 1 1 1 1
-1.50027 0.431973 1.76394 1 1 1 1
-3.64026 1.78259 5.59467 0.5 0.5 0.5 1
-3.64029 -1.78264 5.59465 0.5 0.5 0.5 1
0.826401 1.36722 2.39346 1 1 1 1
0.82646 -1.36718 2.39341 1 1 1 1
-3.24942 1.36624 5.31087 0.5 0.5 0.5 1
-3.2492 -1.36575 5.31088 0.5 0.5 0.5 1
5.99638 -1.4437 5.68625 0.5 0.5 0.5 1
5.99636 1.4437 5.68627 0.5 0.5 0.5 1
6.37717 -1.20466 5.44948 0.5 0.5 0.5 1
6.37716 1.20466 5.44948 0.5 0.5 0.5 1
-2.87133 0.325553 4.60377 0.5 0.5 0.5 1
-2.87126 -0.325652 4.60378 0.5 0.5 0.5 1
-5.0867 1.50145 5.73782 0.5 0.5 0.5 1
-5.0867 -1.50146 5.73782 0.5 0.5 0.5 1
-2.38372 1.38162 5.83214 0.5 0.5 0.5 1
-2.38382 -1.3815 5.83212 0.5 0.5 0.5 1
5.33848 -1.40016 5.53608 0.5 0.5 0.5 1
5.33846 1.40015 5.53607 0.5 0.5 0.5 1
6.8993 -0.733484 4.66166 0.5 0.5 0.5 1
6.8993 0.733493 4.66166 0.5 0.5 0.5 1
-4.20837 1.69961 5.50282 0.5 0.5 0.5 1
-4.20835 -1.69964 5.50281 0.5 0.5 0.5 1
3.68366 -0.975219 6.75307 0.5 0.5 0.5 1
3.68366 0.975221 6.75307 0.5 0.5 0.5 1
0.203903 1.37524 2.10377 1 1 1 1
0.203895 -1.37526 2.10379 1 1 1 1
-5.45413 1.26126 5.44211 0.5 0.5 0.5 1
-5.45413 -1.26126 5.44211 0.5 0.5 0.5 1
1.14803 0.840544 2.09932 1 1 1 1
1.14802 -0.840547 2.09935 1 1 1 1
4.78652 -0.977405 5.29538 0.5 0.5 0.5 1
4.78648 0.977392 5.29539 0.5 0.5 0.5 1
-5.62705 0.702847 4.72394 0.5 0.5 0.5 1
-5.62704 -0.702841 4.72394 0.5 0.5 0.5 1
-2.22035 -8.15379e-05 5.28969 0.5 0.5 0.5 1
-0.338067 -0.977887 1.87434 1 1 1 1
-0.338207 0.977978 1.87443 1 1 1 1
0.582897 -2.13987 7.0573 0.5 0.5 0.5 1
0.582897 2.13987 7.0573 0.5 0.5 0.5 1
-2.88617 -1.00436 5.9864 0.5 0.5 0.5 1
-2.88591 1.00393 5.98674 0.5 0.5 0.5 1
0.567112 0.750525 1.68972 1 1 1 1
0.566543 -0.749897 1.68982 1 1 1 1
-3.96474 1.2463 4.82701 0.5 0.5 0.5 1
-3.96474 -1.24632 4.82701 0.5 0.5 0.5 1
-4.73212 1.09353 4.90248 0.5 0.5 0.5 1
-4.73212 -1.09354 4.90248 0.5 0.5 0.5 1

3 0 26 67
3 0 67 26
3 0 29 98
3 0 98 29
3 0 67 98
3 0 98 67
3 1 27 68
3 1 68 27
3 1 29 98
3 1 98 29
3 1 68 98
3 1 98 68
3 2 6 31
3 2 31 6
3 2 6 158
3 2 158 6
3 2 9 103
3 2 103 9
3 2 31 35
3 2 35 31
3 2 35 103
3 2 103 35
3 2 35 158
3 2 158 35
3 3 24 63
3 3 63 24
3 3 28 89
3 3 89 28
3 3 63 89
3 3 89 63
3 4 25 64
3 4 64 25
3 4 28 89
3 4 89 28
3 4 64 89
3 4 89 64
3 5 7 32
3 5 32 7
3 5 7 159
3 5 159 7
3 5 8 72
3 5 72 8
3 5 32 36
3 5 36 32
3 5 36 72
3 5 72 36
3 5 36 159
3 5 159 36
3 6 10 65
3 6 65 10
3 6 31 65
3 6 65 31
3 6 31 158
3 6 158 31
3 7 11 37
3 7 37 11
3 7 32 37
3 7 37 32
3 7 32 159
3 7 159 32
3 8 12 33
3 8 33 12
3 8 33 72
3 8 72 33
3 9 13 34
3 9 34 13
3 9 34 103
3 9 103 34
3 10 14 65
3 10 65 14
3 11 15 37
3 11 37 15
3 12 16 33
3 12 33 16
3 13 17 34
3 13 34 17
3 14 18 38
3 14 38 18
3 14 38 65
3 14 65 38
3 15 19 45
3 15 45 19
3 15 37 45
3 15 45 37
3 16 20 83
3 16 83 20
3 16 33 79
3 16 79 33
3 16 79 83
3 16 83 79
3 17 21 84
3 17 84 21
3 17 34 80
3 17 80 34
3 17 80 84
3 17 84 80
3 18 22 38
3 18 38 22
3 19 23 45
3 19 45 23
3 20 26 94
3 20 94 26
3 20 83 99
3 20 99 83
3 20 94 99
3 20 99 94
3 21 27 95
3 21 95 27
3 21 84 100
3 21 100 84
3 21 95 100
3 21 100 95
3 22 24 87
3 22 87 24
3 22 38 96
3 22 96 38
3 22 87 96
3 22 96 87
3 23 25 88
3 23 88 25
3 23 45 97
3 23 97 45
3 23 88 97
3 23 97 88
3 24 63 87
3 24 87 63
3 25 64 88
3 25 88 64
3 26 67 94
3 26 94 67
3 27 68 95
3 27 95 68
3 30 34 39
3 30 39 34
3 30 34 136
3 30 136 34
3 30 39 56
3 30 56 39
3 30 41 56
3 30 56 41
3 30 41 115
3 30 115 41
3 30 55 114
3 30 114 55
3 30 55 136
3 30 136 55
3 30 55 155
3 30 155 55
3 30 114 115
3 30 115 114
3 30 115 155
3 30 155 115
3 31 35 44
3 31 44 35
3 31 35 158
3 31 158 35
3 31 44 71
3 31 71 44
3 31 65 71
3 31 71 65
3 32 36 43
3 32 43 36
3 32 36 159
3 32 159 36
3 32 37 66
3 32 66 37
3 32 43 66
3 32 66 43
3 33 40 72
3 33 72 40
3 33 40 114
3 33 114 40
3 33 79 135
3 33 135 79
3 33 114 135
3 33 135 114
3 34 39 103
3 34 103 39
3 34 80 136
3 34 136 80
3 35 39 51
3 35 51 39
3 35 39 103
3 35 103 39
3 35 44 51
3 35 51 44
3 36 40 50
3 36 50 40
3 36 40 72
3 36 72 40
3 36 43 50
3 36 50 43
3 37 45 76
3 37 76 45
3 37 45 144
3 37 144 45
3 37 47 62
3 37 62 47
3 37 47 66
3 37 66 47
3 37 62 76
3 37 76 62
3 37 62 144
3 37 144 62
3 38 62 65
3 38 65 62
3 38 62 76
3 38 76 62
3 38 65 143
3 38 143 65
3 38 76 110
3 38 110 76
3 38 76 143
3 38 143 76
3 38 96 110
3 38 110 96
3 39 51 56
3 39 56 51
3 40 50 57
3 40 57 50
3 40 57 114
3 40 114 57
3 41 56 77
3 41 77 56
3 41 77 116
3 41 116 77
3 41 81 115
3 41 115 81
3 41 81 116
3 41 116 81
3 42 57 78
3 42 78 57
3 42 57 114
3 42 114 57
3 42 78 117
3 42 117 78
3 42 82 115
3 42 115 82
3 42 82 117
3 42 117 82
3 42 114 115
3 42 115 114
3 43 48 60
3 43 60 48
3 43 48 66
3 43 66 48
3 43 50 60
3 43 60 50
3 44 49 61
3 44 61 49
3 44 49 71
3 44 71 49
3 44 51 61
3 44 61 51
3 45 76 111
3 45 111 76
3 45 76 144
3 45 144 76
3 45 97 111
3 45 111 97
3 46 55 125
3 46 125 55
3 46 55 131
3 46 131 55
3 46 58 132
3 46 132 58
3 46 58 154
3 46 154 58
3 46 106 147
3 46 147 106
3 46 106 153
3 46 153 106
3 46 121 125
3 46 125 121
3 46 121 141
3 46 141 121
3 46 125 164
3 46 164 125
3 46 131 132
3 46 132 131
3 46 133 141
3 46 141 133
3 46 133 147
3 46 147 133
3 46 141 164
3 46 164 141
3 46 141 166
3 46 166 141
3 46 147 166
3 46 166 147
3 46 153 154
3 46 154 153
3 47 48 52
3 47 52 48
3 47 48 66
3 47 66 48
3 47 49 52
3 47 52 49
3 47 49 71
3 47 71 49
3 47 62 65
3 47 65 62
3 47 65 71
3 47 71 65
3 48 52 69
3 48 69 52
3 48 60 69
3 48 69 60
3 49 52 70
3 49 70 52
3 49 61 70
3 49 70 61
3 50 57 73
3 50 73 57
3 50 60 73
3 50 73 60
3 51 56 74
3 51 74 56
3 51 61 74
3 51 74 61
3 52 69 75
3 52 75 69
3 52 70 75
3 52 75 70
3 53 54 113
3 53 113 54
3 53 54 140
3 53 140 54
3 53 90 129
3 53 129 90
3 53 90 139
3 53 139 90
3 53 112 113
3 53 113 112
3 53 112 151
3 53 151 112
3 53 127 129
3 53 129 127
3 53 127 137
3 53 137 127
3 53 137 151
3 53 151 137
3 53 139 140
3 53 140 139
3 54 91 130
3 54 130 91
3 54 91 140
3 54 140 91
3 54 113 152
3 54 152 113
3 54 128 130
3 54 130 128
3 54 128 138
3 54 138 128
3 54 138 152
3 54 152 138
3 55 58 126
3 55 126 58
3 55 58 132
3 55 132 58
3 55 79 125
3 55 125 79
3 55 79 135
3 55 135 79
3 55 80 126
3 55 126 80
3 55 80 136
3 55 136 80
3 55 114 135
3 55 135 114
3 55 114 155
3 55 155 114
3 55 125 161
3 55 161 125
3 55 126 160
3 55 160 126
3 55 131 132
3 55 132 131
3 55 135 161
3 55 161 135
3 55 136 160
3 55 160 136
3 56 74 77
3 56 77 74
3 57 73 78
3 57 78 73
3 58 107 148
3 58 148 107
3 58 107 154
3 58 154 107
3 58 122 126
3 58 126 122
3 58 122 142
3 58 142 122
3 58 126 165
3 58 165 126
3 58 134 142
3 58 142 134
3 58 134 148
3 58 148 134
3 58 142 165
3 58 165 142
3 58 142 167
3 58 167 142
3 58 148 167
3 58 167 148
3 59 118 149
3 59 149 118
3 59 118 150
3 59 150 118
3 59 119 120
3 59 120 119
3 59 119 156
3 59 156 119
3 59 120 157
3 59 157 120
3 59 123 145
3 59 145 123
3 59 123 149
3 59 149 123
3 59 124 146
3 59 146 124
3 59 124 150
3 59 150 124
3 59 145 157
3 59 157 145
3 59 145 162
3 59 162 145
3 59 146 156
3 59 156 146
3 59 146 163
3 59 163 146
3 59 149 162
3 59 162 149
3 59 150 163
3 59 163 150
3 60 69 85
3 60 85 69
3 60 73 85
3 60 85 73
3 61 70 86
3 61 86 70
3 61 74 86
3 61 86 74
3 62 65 143
3 62 143 65
3 62 76 143
3 62 143 76
3 62 76 144
3 62 144 76
3 63 87 92
3 63 92 87
3 63 89 92
3 63 92 89
3 64 88 93
3 64 93 88
3 64 89 93
3 64 93 89
3 67 94 108
3 67 108 94
3 67 98 108
3 67 108 98
3 68 95 109
3 68 109 95
3 68 98 109
3 68 109 98
3 69 75 104
3 69 104 75
3 69 85 104
3 69 104 85
3 70 75 105
3 70 105 75
3 70 86 105
3 70 105 86
3 73 78 101
3 73 101 78
3 73 85 101
3 73 101 85
3 74 77 102
3 74 102 77
3 74 86 102
3 74 102 86
3 75 104 118
3 75 118 104
3 75 105 118
3 75 118 105
3 76 110 151
3 76 151 110
3 76 111 152
3 76 152 111
3 76 112 113
3 76 113 112
3 76 112 151
3 76 151 112
3 76 113 152
3 76 152 113
3 77 102 116
3 77 116 102
3 78 101 117
3 78 117 101
3 79 83 121
3 79 121 83
3 79 121 125
3 79 125 121
3 79 125 161
3 79 161 125
3 79 135 161
3 79 161 135
3 80 84 122
3 80 122 84
3 80 122 126
3 80 126 122
3 80 126 160
3 80 160 126
3 80 136 160
3 80 160 136
3 81 82 115
3 81 115 82
3 81 82 120
3 81 120 82
3 81 116 156
3 81 156 116
3 81 119 120
3 81 120 119
3 81 119 156
3 81 156 119
3 82 117 157
3 82 157 117
3 82 120 157
3 82 157 120
3 83 99 121
3 83 121 99
3 84 100 122
3 84 122 100
3 85 101 123
3 85 123 101
3 85 104 123
3 85 123 104
3 86 102 124
3 86 124 102
3 86 105 124
3 86 124 105
3 87 92 127
3 87 127 92
3 87 96 127
3 87 127 96
3 88 93 128
3 88 128 93
3 88 97 128
3 88 128 97
3 89 90 91
3 89 91 90
3 89 90 92
3 89 92 90
3 89 91 93
3 89 93 91
3 90 91 140
3 90 140 91
3 90 92 129
3 90 129 92
3 90 139 140
3 90 140 139
3 91 93 130
3 91 130 93
3 92 127 129
3 92 129 127
3 93 128 130
3 93 130 128
3 94 99 133
3 94 133 99
3 94 108 133
3 94 133 108
3 95 100 134
3 95 134 100
3 95 109 134
3 95 134 109
3 96 110 137
3 96 137 110
3 96 127 137
3 96 137 127
3 97 111 138
3 97 138 111
3 97 128 138
3 97 138 128
3 98 106 107
3 98 107 106
3 98 106 108
3 98 108 106
3 98 107 109
3 98 109 107
3 99 121 141
3 99 141 121
3 99 133 141
3 99 141 133
3 100 122 142
3 100 142 122
3 100 134 142
3 100 142 134
3 101 117 145
3 101 145 117
3 101 123 145
3 101 145 123
3 102 116 146
3 102 146 116
3 102 124 146
3 102 146 124
3 104 118 149
3 104 149 118
3 104 123 149
3 104 149 123
3 105 118 150
3 105 150 118
3 105 124 150
3 105 150 124
3 106 107 154
3 106 154 107
3 106 108 147
3 106 147 108
3 106 153 154
3 106 154 153
3 107 109 148
3 107 148 109
3 108 133 147
3 108 147 133
3 109 134 148
3 109 148 134
3 110 137 151
3 110 151 137
3 111 138 152
3 111 152 138
3 114 115 155
3 114 155 115
3 116 146 156
3 116 156 146
3 117 145 157
3 117 157 145
3 121 125 164
3 121 164 125
3 121 141 164
3 121 164 141
3 122 126 165
3 122 165 126
3 122 142 165
3 122 165 142
3 123 145 162
3 123 162 145
3 123 149 162
3 123 162 149
3 124 146 163
3 124 163 146
3 124 150 163
3 124 163 150
3 133 141 166
3 133 166 141
3 133 147 166
3 133 166 147
3 134 142 167
3 134 167 142
3 134 148 167
3 134 167 148
