COFF
21 52 21

-3.19215 0.617052 2.0797 0.5 0.5 0.5 1
-3.19215 -0.617052 2.0797 0.5 0.5 0.5 1
-0.0127069 -1.27839 2.02579 0.5 0.5 0.5 1
3.48656 -0.612188 2.08978 0.5 0.5 0.5 1
3.48656 0.612188 2.08978 0.5 0.5 0.5 1
-0.0127069 1.27839 2.02579 0.5 0.5 0.5 1
0.94477 -0.994764 2.03633 0.5 0.5 0.5 1
0.94477 0.994764 2.03633 0.5 0.5 0.5 1
-1.00274 0.984383 2.03874 0.5 0.5 0.5 1
-1.00274 -0.984383 2.03874 0.5 0.5 0.5 1
1.91886 -0.820509 2.13127 0.5 0.5 0.5 1
1.91886 0.820509 2.13127 0.5 0.5 0.5 1
-2.03597 0.801966 2.06158 0.5 0.5 0.5 1
-2.03597 -0.801966 2.06158 0.5 0.5 0.5 1
0.0064495 -3.38577e-17 1.02806 1 1 0 1
1.45563 -0.661457 1.52783 0.5 0.5 0.5 1
-1.39266 0.651515 1.51965 0.5 0.5 0.5 1
-1.39266 -0.651515 1.51965 0.5 0.5 0.5 1
1.45563 0.661457 1.52783 0.5 0.5 0.5 1
2.5409 -0.616376 1.7409 0.5 0.5 0.5 1
2.5409 0.616376 1.7409 0.5 0.5 0.5 1

3 0 1 17
3 0 17 1
3 0 12 16
3 0 16 12
3 0 16 17
3 0 17 16
3 1 13 17
3 1 17 13
3 2 6 14
3 2 14 6
3 2 9 14
3 2 14 9
3 3 4 20
3 3 20 4
3 3 10 15
3 3 15 10
3 3 15 19
3 3 19 15
3 3 19 20
3 3 20 19
3 4 11 18
3 4 18 11
3 4 18 20
3 4 20 18
3 5 7 14
3 5 14 7
3 5 8 14
3 5 14 8
3 6 10 15
3 6 15 10
3 6 14 15
3 6 15 14
3 7 11 18
3 7 18 11
3 7 14 18
3 7 18 14
3 8 12 16
3 8 16 12
3 8 14 16
3 8 16 14
3 9 13 17
3 9 17 13
3 9 14 17
3 9 17 14
3 14 15 18
3 14 18 15
3 14 16 17
3 14 17 16
3 15 18 20
3 15 20 18
3 15 19 20
3 15 20 19
