COFF
37 116 37

-4.26197 0.679088 2.8239 0.5 0.5 0.5 1
-4.26197 -0.679088 2.8239 0.5 0.5 0.5 1
-0.0253053 -1.4971 2.64389 0.5 0.5 0.5 1
4.58754 -0.666603 2.8474 0.5 0.5 0.5 1
4.58754 0.666603 2.8474 0.5 0.5 0.5 1
-0.0253053 1.4971 2.64389 0.5 0.5 0.5 1
0.965523 -1.21428 2.72078 0.5 0.5 0.5 1
0.965523 1.21428 2.72078 0.5 0.5 0.5 1
-1.00691 1.19695 2.70424 0.5 0.5 0.5 1
-1.00691 -1.19695 2.70424 0.5 0.5 0.5 1
1.90888 -0.946109 2.91637 0.5 0.5 0.5 1
1.90888 0.946109 2.91637 0.5 0.5 0.5 1
-1.96034 0.958006 2.88718 0.5 0.5 0.5 1
-1.96034 -0.958006 2.88718 0.5 0.5 0.5 1
3.01051 -0.815028 2.88232 0.5 0.5 0.5 1
3.01051 0.815028 2.88232 0.5 0.5 0.5 1
-2.96995 0.824057 2.84854 0.5 0.5 0.5 1
-2.96995 -0.824057 2.84854 0.5 0.5 0.5 1
1.97957 0.813734 2.10697 0.5 0.5 0.5 1
3.2138 -0.673262 2.21324 0.5 0.5 0.5 1
3.2138 0.673262 2.21324 0.5 0.5 0.5 1
-3.15223 0.682843 2.184 0.5 0.5 0.5 1
-3.15223 -0.682843 2.184 0.5 0.5 0.5 1
-0.0083299 -3.01469e-17 1.02806 1 1 0 1
1.97957 -0.813734 2.10697 0.5 0.5 0.5 1
1.0329 0.651243 1.54328 0.5 0.5 0.5 1
1.0329 -0.651243 1.54328 0.5 0.5 0.5 1
-0.632193 0.943374 1.96628 0.5 0.5 0.5 1
-0.632193 -0.943374 1.96628 0.5 0.5 0.5 1
-1.35723 0.470011 1.43629 0.5 0.5 0.5 1
-1.35723 -0.470011 1.43629 0.5 0.5 0.5 1
0.693882 -0.858084 1.85339 0.5 0.5 0.5 1
0.693882 0.858084 1.85339 0.5 0.5 0.5 1
-1.91133 0.827313 2.09126 0.5 0.5 0.5 1
-1.91133 -0.827313 2.09126 0.5 0.5 0.5 1
-0.0385096 -0.946222 1.84984 0.5 0.5 0.5 1
-0.0385096 0.946222 1.84984 0.5 0.5 0.5 1

3 0 1 22
3 0 22 1
3 0 16 21
3 0 21 16
3 0 21 22
3 0 22 21
3 1 17 22
3 1 22 17
3 2 6 31
3 2 31 6
3 2 9 28
3 2 28 9
3 2 23 28
3 2 28 23
3 2 23 31
3 2 31 23
3 2 28 35
3 2 35 28
3 2 31 35
3 2 35 31
3 3 4 20
3 3 20 4
3 3 14 19
3 3 19 14
3 3 19 20
3 3 20 19
3 4 15 20
3 4 20 15
3 5 7 32
3 5 32 7
3 5 8 27
3 5 27 8
3 5 23 27
3 5 27 23
3 5 23 32
3 5 32 23
3 5 27 36
3 5 36 27
3 5 32 36
3 5 36 32
3 6 10 24
3 6 24 10
3 6 24 31
3 6 31 24
3 7 11 18
3 7 18 11
3 7 18 32
3 7 32 18
3 8 12 33
3 8 33 12
3 8 27 33
3 8 33 27
3 9 13 34
3 9 34 13
3 9 28 34
3 9 34 28
3 10 14 24
3 10 24 14
3 11 15 18
3 11 18 15
3 12 16 33
3 12 33 16
3 13 17 34
3 13 34 17
3 14 19 24
3 14 24 19
3 15 18 20
3 15 20 18
3 16 21 33
3 16 33 21
3 17 22 34
3 17 34 22
3 18 19 20
3 18 20 19
3 18 19 24
3 18 24 19
3 18 24 26
3 18 26 24
3 18 25 26
3 18 26 25
3 18 25 32
3 18 32 25
3 21 22 34
3 21 34 22
3 21 33 34
3 21 34 33
3 23 25 26
3 23 26 25
3 23 25 32
3 23 32 25
3 23 26 31
3 23 31 26
3 23 27 33
3 23 33 27
3 23 27 36
3 23 36 27
3 23 28 34
3 23 34 28
3 23 28 35
3 23 35 28
3 23 29 30
3 23 30 29
3 23 29 33
3 23 33 29
3 23 30 34
3 23 34 30
3 23 31 35
3 23 35 31
3 23 32 36
3 23 36 32
3 24 26 31
3 24 31 26
3 29 30 34
3 29 34 30
3 29 33 34
3 29 34 33
