COFF
65 220 65

-5.78581 0.771205 4.76859 0.5 0.5 0.5 1
-5.78581 -0.771205 4.76859 0.5 0.5 0.5 1
-0.0272915 -1.84492 4.34263 0.5 0.5 0.5 1
7.00683 -0.792079 4.74896 0.5 0.5 0.5 1
7.00683 0.792079 4.74896 0.5 0.5 0.5 1
-0.0272915 1.84492 4.34263 0.5 0.5 0.5 1
1.0536 -1.49138 4.52288 0.5 0.5 0.5 1
1.0536 1.49138 4.52288 0.5 0.5 0.5 1
-1.10443 1.48733 4.47894 0.5 0.5 0.5 1
-1.10443 -1.48733 4.47894 0.5 0.5 0.5 1
1.95763 -1.13838 4.79409 0.5 0.5 0.5 1
1.95763 1.13838 4.79409 0.5 0.5 0.5 1
-2.01947 1.17242 4.73867 0.5 0.5 0.5 1
-2.01947 -1.17242 4.73867 0.5 0.5 0.5 1
3.05787 -0.993733 4.85448 0.5 0.5 0.5 1
3.05787 0.993733 4.85448 0.5 0.5 0.5 1
-3.02641 1.01552 4.76391 0.5 0.5 0.5 1
-3.02641 -1.01552 4.76391 0.5 0.5 0.5 1
4.05083 -0.884517 4.88223 0.5 0.5 0.5 1
4.05083 0.884517 4.88223 0.5 0.5 0.5 1
-4.01868 0.891674 4.77946 0.5 0.5 0.5 1
-4.01868 -0.891674 4.77946 0.5 0.5 0.5 1
5.0529 -0.868439 4.79085 0.5 0.5 0.5 1
5.0529 0.868439 4.79085 0.5 0.5 0.5 1
2.3596 -1.01037 3.76674 0.5 0.5 0.5 1
1.5922 1.22775 2.97308 0.5 0.5 0.5 1
1.5922 -1.22775 2.97308 0.5 0.5 0.5 1
-1.14462 1.44025 3.61435 0.5 0.5 0.5 1
-1.14462 -1.44025 3.61435 0.5 0.5 0.5 1
-1.9006 0.781559 2.61437 0.5 0.5 0.5 1
-1.9006 -0.781559 2.61437 0.5 0.5 0.5 1
1.14613 -1.41715 3.47855 0.5 0.5 0.5 1
1.14613 1.41715 3.47855 0.5 0.5 0.5 1
-2.35839 1.0643 3.72022 0.5 0.5 0.5 1
-2.35839 -1.0643 3.72022 0.5 0.5 0.5 1
0.00373128 -1.57056 3.21898 0.5 0.5 0.5 1
0.00373128 1.57056 3.21898 0.5 0.5 0.5 1
2.3596 1.01037 3.76674 0.5 0.5 0.5 1
4.02534 -0.834634 4.11602 0.5 0.5 0.5 1
-0.69963 -1.36526 2.71636 0.5 0.5 0.5 1
-0.69963 1.36526 2.71636 0.5 0.5 0.5 1
-1.51699 -0.662217 1.6051 0.5 0.5 0.5 1
-1.51699 0.662217 1.6051 0.5 0.5 0.5 1
0.905605 1.31003 2.41549 0.5 0.5 0.5 1
0.905605 -1.31003 2.41549 0.5 0.5 0.5 1
4.02534 0.834634 4.11602 0.5 0.5 0.5 1
-3.96475 0.6607 4.06512 1 1 0 1
1.90324 -1.96859e-16 2.84006 0.5 0.5 0.5 1
1.27612 0.908979 2.13734 0.5 0.5 0.5 1
1.27612 -0.908979 2.13734 0.5 0.5 0.5 1
0.0318301 1.34688 2.29852 0.5 0.5 0.5 1
0.0318301 -1.34688 2.29852 0.5 0.5 0.5 1
1.4336 -1.65575e-16 2.00066 0.5 0.5 0.5 1
4.97073 -0.750293 3.94798 1 1 0 1
4.97073 0.750293 3.94798 1 1 0 1
-2.56759 -1.85512e-16 3.39709 0.5 0.5 0.5 1
-0.336471 -0.952944 1.92786 0.5 0.5 0.5 1
-0.336471 0.952944 1.92786 0.5 0.5 0.5 1
-3.96475 -0.6607 4.06512 1 1 0 1
0.0392582 -5.2249e-17 1.02806 1 1 0 1
0.550315 0.757499 1.69735 0.5 0.5 0.5 1
0.550315 -0.757499 1.69735 0.5 0.5 0.5 1
2.42002 5.24907e-17 3.70965 0.5 0.5 0.5 1
5.9757 -0.766205 4.32535 0.5 0.5 0.5 1
5.9757 0.766205 4.32535 0.5 0.5 0.5 1

3 0 1 58
3 0 58 1
3 0 20 46
3 0 46 20
3 0 46 58
3 0 58 46
3 1 21 58
3 1 58 21
3 2 6 31
3 2 31 6
3 2 9 28
3 2 28 9
3 2 28 35
3 2 35 28
3 2 31 35
3 2 35 31
3 3 4 64
3 3 64 4
3 3 22 53
3 3 53 22
3 3 53 63
3 3 63 53
3 3 63 64
3 3 64 63
3 4 23 54
3 4 54 23
3 4 54 64
3 4 64 54
3 5 7 32
3 5 32 7
3 5 8 27
3 5 27 8
3 5 27 36
3 5 36 27
3 5 32 36
3 5 36 32
3 6 10 24
3 6 24 10
3 6 24 31
3 6 31 24
3 7 11 37
3 7 37 11
3 7 32 37
3 7 37 32
3 8 12 33
3 8 33 12
3 8 27 33
3 8 33 27
3 9 13 34
3 9 34 13
3 9 28 34
3 9 34 28
3 10 14 24
3 10 24 14
3 11 15 37
3 11 37 15
3 12 16 33
3 12 33 16
3 13 17 34
3 13 34 17
3 14 18 38
3 14 38 18
3 14 24 38
3 14 38 24
3 15 19 45
3 15 45 19
3 15 37 45
3 15 45 37
3 16 20 46
3 16 46 20
3 16 33 46
3 16 46 33
3 17 21 58
3 17 58 21
3 17 34 58
3 17 58 34
3 18 22 38
3 18 38 22
3 19 23 45
3 19 45 23
3 22 38 53
3 22 53 38
3 23 45 54
3 23 54 45
3 24 26 31
3 24 31 26
3 24 26 47
3 24 47 26
3 24 38 62
3 24 62 38
3 24 47 62
3 24 62 47
3 25 32 37
3 25 37 32
3 25 32 43
3 25 43 32
3 25 37 47
3 25 47 37
3 25 43 48
3 25 48 43
3 25 47 48
3 25 48 47
3 26 31 44
3 26 44 31
3 26 44 49
3 26 49 44
3 26 47 49
3 26 49 47
3 27 33 40
3 27 40 33
3 27 36 40
3 27 40 36
3 28 34 39
3 28 39 34
3 28 35 39
3 28 39 35
3 29 30 41
3 29 41 30
3 29 30 55
3 29 55 30
3 29 33 40
3 29 40 33
3 29 33 55
3 29 55 33
3 29 40 57
3 29 57 40
3 29 41 42
3 29 42 41
3 29 42 57
3 29 57 42
3 30 34 39
3 30 39 34
3 30 34 55
3 30 55 34
3 30 39 56
3 30 56 39
3 30 41 56
3 30 56 41
3 31 35 44
3 31 44 35
3 32 36 43
3 32 43 36
3 33 46 55
3 33 55 46
3 34 55 58
3 34 58 55
3 35 39 51
3 35 51 39
3 35 44 51
3 35 51 44
3 36 40 50
3 36 50 40
3 36 43 50
3 36 50 43
3 37 45 62
3 37 62 45
3 37 47 62
3 37 62 47
3 38 45 54
3 38 54 45
3 38 45 62
3 38 62 45
3 38 53 54
3 38 54 53
3 39 51 56
3 39 56 51
3 40 50 57
3 40 57 50
3 41 42 59
3 41 59 42
3 41 56 59
3 41 59 56
3 42 57 59
3 42 59 57
3 43 48 59
3 43 59 48
3 43 48 60
3 43 60 48
3 43 50 59
3 43 59 50
3 43 50 60
3 43 60 50
3 44 49 59
3 44 59 49
3 44 49 61
3 44 61 49
3 44 51 59
3 44 59 51
3 44 51 61
3 44 61 51
3 46 55 58
3 46 58 55
3 47 48 52
3 47 52 48
3 47 48 59
3 47 59 48
3 47 49 52
3 47 52 49
3 47 49 59
3 47 59 49
3 48 52 59
3 48 59 52
3 48 59 60
3 48 60 59
3 49 52 59
3 49 59 52
3 49 59 61
3 49 61 59
3 50 57 59
3 50 59 57
3 50 59 60
3 50 60 59
3 51 56 59
3 51 59 56
3 51 59 61
3 51 61 59
3 53 54 64
3 53 64 54
3 53 63 64
3 53 64 63
