COFF
75 256 75

-6.25647 0.803989 5.13475 0.5 0.5 0.5 1
-6.25647 -0.803989 5.13475 0.5 0.5 0.5 1
-0.0273938 -1.89645 4.69573 0.5 0.5 0.5 1
7.21078 -0.851401 5.07592 0.5 0.5 0.5 1
7.21078 0.851401 5.07592 0.5 0.5 0.5 1
-0.0273938 1.89645 4.69573 0.5 0.5 0.5 1
1.06885 -1.53359 4.88553 0.5 0.5 0.5 1
1.06885 1.53359 4.88553 0.5 0.5 0.5 1
-1.11768 1.53244 4.8385 0.5 0.5 0.5 1
-1.11768 -1.53244 4.8385 0.5 0.5 0.5 1
1.96715 -1.17544 5.16817 0.5 0.5 0.5 1
1.96715 1.17544 5.16817 0.5 0.5 0.5 1
-2.02769 1.21601 5.10558 0.5 0.5 0.5 1
-2.02769 -1.21601 5.10558 0.5 0.5 0.5 1
3.05187 -1.04364 5.22038 0.5 0.5 0.5 1
3.05187 1.04364 5.22038 0.5 0.5 0.5 1
-3.019 1.0923 5.10386 0.5 0.5 0.5 1
-3.019 -1.0923 5.10386 0.5 0.5 0.5 1
4.04598 -0.941305 5.24606 0.5 0.5 0.5 1
4.04598 0.941305 5.24606 0.5 0.5 0.5 1
-4.01153 0.98005 5.12743 0.5 0.5 0.5 1
-4.01153 -0.98005 5.12743 0.5 0.5 0.5 1
5.03461 -0.986486 5.106 0.5 0.5 0.5 1
5.03461 0.986486 5.106 0.5 0.5 0.5 1
6.05513 -0.942509 5.07113 0.5 0.5 0.5 1
6.05513 0.942509 5.07113 0.5 0.5 0.5 1
-5.0118 0.898952 5.12399 0.5 0.5 0.5 1
-5.0118 -0.898952 5.12399 0.5 0.5 0.5 1
-1.18311 -1.48311 3.95458 0.5 0.5 0.5 1
-1.97652 0.796184 2.90647 0.5 0.5 0.5 1
-1.97652 -0.796184 2.90647 0.5 0.5 0.5 1
1.17962 -1.46532 3.81737 0.5 0.5 0.5 1
1.17962 1.46532 3.81737 0.5 0.5 0.5 1
-2.40773 1.09411 4.02491 0.5 0.5 0.5 1
-2.40773 -1.09411 4.02491 0.5 0.5 0.5 1
0.00565297 -1.61783 3.52655 0.5 0.5 0.5 1
0.00565292 1.61783 3.52655 0.5 0.5 0.5 1
2.39724 1.0713 4.10593 0.5 0.5 0.5 1
4.07856 -0.949771 4.49311 0.5 0.5 0.5 1
-0.801312 -1.42864 3.04026 0.5 0.5 0.5 1
-0.801312 1.42864 3.04026 0.5 0.5 0.5 1
-1.47228 -0.719496 1.73713 0.5 0.5 0.5 1
-1.47228 0.719496 1.73713 0.5 0.5 0.5 1
0.976792 1.39423 2.72845 0.5 0.5 0.5 1
0.976792 -1.39423 2.72845 0.5 0.5 0.5 1
4.07856 0.949771 4.49311 0.5 0.5 0.5 1
-4.06183 0.660362 4.06512 1 1 0 1
2.05292 -4.67646e-12 3.15136 0.5 0.5 0.5 1
1.37864 0.992399 2.40742 0.5 0.5 0.5 1
1.37864 -0.992399 2.40742 0.5 0.5 0.5 1
0.0762473 1.45594 2.56562 0.5 0.5 0.5 1
0.0762473 -1.45594 2.56562 0.5 0.5 0.5 1
1.57758 2.78908e-12 2.25504 0.5 0.5 0.5 1
5.00832 -0.750593 3.94798 1 1 0 1
5.00832 0.750593 3.94798 1 1 0 1
-2.63399 4.49941e-12 3.46408 0.5 0.5 0.5 1
-0.424116 -1.2111 2.23857 0.5 0.5 0.5 1
-0.424116 1.2111 2.23857 0.5 0.5 0.5 1
-4.06183 -0.660362 4.06512 1 1 0 1
0.0553846 7.56403e-12 1.02806 1 1 0 1
0.72686 1.03052 1.87901 0.5 0.5 0.5 1
0.72686 -1.03052 1.87901 0.5 0.5 0.5 1
2.64271 -4.92499e-13 3.80339 0.5 0.5 0.5 1
6.31096 -0.820294 4.52741 0.5 0.5 0.5 1
6.31096 0.820294 4.52741 0.5 0.5 0.5 1
2.39724 -1.0713 4.10593 0.5 0.5 0.5 1
1.64771 1.27933 3.29908 0.5 0.5 0.5 1
-5.22539 0.758692 4.57853 0.5 0.5 0.5 1
-5.22539 -0.758692 4.57853 0.5 0.5 0.5 1
0.930518 0.601823 1.68617 0.5 0.5 0.5 1
0.930518 -0.601823 1.68617 0.5 0.5 0.5 1
1.64771 -1.27933 3.29908 0.5 0.5 0.5 1
-1.18311 1.48311 3.95458 0.5 0.5 0.5 1
0.0237765 0.898657 1.78938 0.5 0.5 0.5 1
0.0237765 -0.898657 1.78938 0.5 0.5 0.5 1

3 0 1 68
3 0 68 1
3 0 26 67
3 0 67 26
3 0 67 68
3 0 68 67
3 1 27 68
3 1 68 27
3 2 6 31
3 2 31 6
3 2 9 28
3 2 28 9
3 2 28 35
3 2 35 28
3 2 31 35
3 2 35 31
3 3 4 64
3 3 64 4
3 3 24 63
3 3 63 24
3 3 63 64
3 3 64 63
3 4 25 64
3 4 64 25
3 5 7 32
3 5 32 7
3 5 8 72
3 5 72 8
3 5 32 36
3 5 36 32
3 5 36 72
3 5 72 36
3 6 10 65
3 6 65 10
3 6 31 65
3 6 65 31
3 7 11 37
3 7 37 11
3 7 32 37
3 7 37 32
3 8 12 33
3 8 33 12
3 8 33 72
3 8 72 33
3 9 13 34
3 9 34 13
3 9 28 34
3 9 34 28
3 10 14 65
3 10 65 14
3 11 15 37
3 11 37 15
3 12 16 33
3 12 33 16
3 13 17 34
3 13 34 17
3 14 18 38
3 14 38 18
3 14 38 65
3 14 65 38
3 15 19 45
3 15 45 19
3 15 37 45
3 15 45 37
3 16 20 46
3 16 46 20
3 16 33 46
3 16 46 33
3 17 21 58
3 17 58 21
3 17 34 58
3 17 58 34
3 18 22 38
3 18 38 22
3 19 23 45
3 19 45 23
3 20 26 46
3 20 46 26
3 21 27 58
3 21 58 27
3 22 24 53
3 22 53 24
3 22 38 53
3 22 53 38
3 23 25 54
3 23 54 25
3 23 45 54
3 23 54 45
3 24 53 63
3 24 63 53
3 25 54 64
3 25 64 54
3 26 46 67
3 26 67 46
3 27 58 68
3 27 68 58
3 28 34 39
3 28 39 34
3 28 35 39
3 28 39 35
3 29 30 41
3 29 41 30
3 29 30 55
3 29 55 30
3 29 33 40
3 29 40 33
3 29 33 55
3 29 55 33
3 29 40 57
3 29 57 40
3 29 41 42
3 29 42 41
3 29 42 57
3 29 57 42
3 30 34 39
3 30 39 34
3 30 34 55
3 30 55 34
3 30 39 56
3 30 56 39
3 30 41 56
3 30 56 41
3 31 35 44
3 31 44 35
3 31 44 71
3 31 71 44
3 31 65 71
3 31 71 65
3 32 36 43
3 32 43 36
3 32 37 66
3 32 66 37
3 32 43 66
3 32 66 43
3 33 40 72
3 33 72 40
3 33 46 55
3 33 55 46
3 34 55 58
3 34 58 55
3 35 39 51
3 35 51 39
3 35 44 51
3 35 51 44
3 36 40 50
3 36 50 40
3 36 40 72
3 36 72 40
3 36 43 50
3 36 50 43
3 37 45 62
3 37 62 45
3 37 47 62
3 37 62 47
3 37 47 66
3 37 66 47
3 38 45 54
3 38 54 45
3 38 45 62
3 38 62 45
3 38 53 54
3 38 54 53
3 38 62 65
3 38 65 62
3 39 51 56
3 39 56 51
3 40 50 57
3 40 57 50
3 41 42 59
3 41 59 42
3 41 56 59
3 41 59 56
3 42 57 59
3 42 59 57
3 43 48 60
3 43 60 48
3 43 48 66
3 43 66 48
3 43 50 60
3 43 60 50
3 44 49 61
3 44 61 49
3 44 49 71
3 44 71 49
3 44 51 61
3 44 61 51
3 46 55 58
3 46 58 55
3 46 58 68
3 46 68 58
3 46 67 68
3 46 68 67
3 47 48 52
3 47 52 48
3 47 48 66
3 47 66 48
3 47 49 52
3 47 52 49
3 47 49 71
3 47 71 49
3 47 62 65
3 47 65 62
3 47 65 71
3 47 71 65
3 48 52 59
3 48 59 52
3 48 52 69
3 48 69 52
3 48 59 60
3 48 60 59
3 48 60 69
3 48 69 60
3 49 52 59
3 49 59 52
3 49 52 70
3 49 70 52
3 49 59 61
3 49 61 59
3 49 61 70
3 49 70 61
3 50 57 59
3 50 59 57
3 50 57 73
3 50 73 57
3 50 59 60
3 50 60 59
3 50 60 73
3 50 73 60
3 51 56 59
3 51 59 56
3 51 56 74
3 51 74 56
3 51 59 61
3 51 61 59
3 51 61 74
3 51 74 61
3 52 59 69
3 52 69 59
3 52 59 70
3 52 70 59
3 53 54 64
3 53 64 54
3 53 63 64
3 53 64 63
3 56 59 74
3 56 74 59
3 57 59 73
3 57 73 59
3 59 60 69
3 59 69 60
3 59 60 73
3 59 73 60
3 59 61 70
3 59 70 61
3 59 61 74
3 59 74 61
