COFF
79 268 79

-6.30332 0.846384 5.48449 0.5 0.5 0.5 1
-6.30332 -0.846384 5.48449 0.5 0.5 0.5 1
-0.0273674 -1.94735 5.04816 0.5 0.5 0.5 1
7.27011 -0.904859 5.4073 0.5 0.5 0.5 1
7.27011 0.904859 5.4073 0.5 0.5 0.5 1
-0.0273674 1.94735 5.04816 0.5 0.5 0.5 1
1.08425 -1.57567 5.24713 0.5 0.5 0.5 1
1.08425 1.57567 5.24713 0.5 0.5 0.5 1
-1.12632 1.58652 5.18786 0.5 0.5 0.5 1
-1.12632 -1.58652 5.18786 0.5 0.5 0.5 1
1.97716 -1.21487 5.53888 0.5 0.5 0.5 1
1.97716 1.21487 5.53888 0.5 0.5 0.5 1
-2.03704 1.27388 5.4575 0.5 0.5 0.5 1
-2.03704 -1.27388 5.4575 0.5 0.5 0.5 1
3.05396 -1.09774 5.57883 0.5 0.5 0.5 1
3.05396 1.09774 5.57883 0.5 0.5 0.5 1
-3.03234 1.19727 5.40807 0.5 0.5 0.5 1
-3.03234 -1.19727 5.40807 0.5 0.5 0.5 1
4.0501 -1.01832 5.60602 0.5 0.5 0.5 1
4.0501 1.01832 5.60602 0.5 0.5 0.5 1
-4.02734 1.09919 5.42127 0.5 0.5 0.5 1
-4.02734 -1.09919 5.42127 0.5 0.5 0.5 1
5.044 -1.10285 5.40705 0.5 0.5 0.5 1
5.044 1.10285 5.40705 0.5 0.5 0.5 1
6.06364 -1.05861 5.36524 0.5 0.5 0.5 1
6.06364 1.05861 5.36524 0.5 0.5 0.5 1
-5.02245 1.00167 5.43279 0.5 0.5 0.5 1
-5.02245 -1.00167 5.43279 0.5 0.5 0.5 1
-1.16633 -1.54104 4.28641 0.5 0.5 0.5 1
-2.0153 0.819065 3.17592 0.5 0.5 0.5 1
-2.0153 -0.819065 3.17592 0.5 0.5 0.5 1
1.2082 -1.51502 4.15776 0.5 0.5 0.5 1
1.2082 1.51502 4.15776 0.5 0.5 0.5 1
-2.2958 1.16966 4.31483 0.5 0.5 0.5 1
-2.2958 -1.16966 4.31483 0.5 0.5 0.5 1
0.00909029 -1.66865 3.83807 0.5 0.5 0.5 1
0.00909748 1.66889 3.83807 0.5 0.5 0.5 1
2.43246 1.13079 4.44569 0.5 0.5 0.5 1
4.08277 -1.05834 4.84512 0.5 0.5 0.5 1
-0.871253 -1.48934 3.36649 0.5 0.5 0.5 1
-0.871253 1.48934 3.36649 0.5 0.5 0.5 1
-1.46268 -0.807576 1.89166 0.5 0.5 0.5 1
-1.46268 0.807576 1.89166 0.5 0.5 0.5 1
1.02648 1.4579 3.0508 0.5 0.5 0.5 1
1.02648 -1.4579 3.0508 0.5 0.5 0.5 1
4.08277 1.05834 4.84512 0.5 0.5 0.5 1
-4.16217 0.660583 4.06512 1 1 0 1
2.17335 3.76382e-10 3.46312 0.5 0.5 0.5 1
1.45121 1.06275 2.69862 0.5 0.5 0.5 1
1.45121 -1.06275 2.69862 0.5 0.5 0.5 1
0.100943 1.53852 2.84888 0.5 0.5 0.5 1
0.100941 -1.53852 2.84888 0.5 0.5 0.5 1
1.6679 -5.84725e-10 2.50055 0.5 0.5 0.5 1
5.03388 -0.750434 3.94798 1 1 0 1
5.03388 0.750434 3.94798 1 1 0 1
-2.70071 -6.50716e-10 3.55108 0.5 0.5 0.5 1
-0.52985 -1.3421 2.55951 0.5 0.5 0.5 1
-0.52985 1.3421 2.55951 0.5 0.5 0.5 1
-4.16217 -0.660583 4.06512 1 1 0 1
0.0699279 3.17888e-10 1.02806 1 1 0 1
0.843282 1.22633 2.13741 0.5 0.5 0.5 1
0.843282 -1.22633 2.13741 0.5 0.5 0.5 1
2.82579 -2.18358e-12 3.98559 0.5 0.5 0.5 1
6.48056 -0.91235 4.79494 0.5 0.5 0.5 1
6.48056 0.91235 4.79494 0.5 0.5 0.5 1
2.43246 -1.13079 4.44569 0.5 0.5 0.5 1
1.68863 1.32937 3.62882 0.5 0.5 0.5 1
-5.41583 0.847888 4.85801 0.5 0.5 0.5 1
-5.41583 -0.847888 4.85801 0.5 0.5 0.5 1
1.16204 0.750558 1.87996 0.5 0.5 0.5 1
1.16204 -0.750558 1.87996 0.5 0.5 0.5 1
1.68863 -1.32937 3.62882 0.5 0.5 0.5 1
-1.16633 1.54104 4.28641 0.5 0.5 0.5 1
0.0728278 1.19156 1.98841 0.5 0.5 0.5 1
0.0728279 -1.19156 1.98841 0.5 0.5 0.5 1
1.12902 7.68658e-10 1.73268 0.5 0.5 0.5 1
4.08266 -1.19342e-11 4.76633 0.5 0.5 0.5 1
-0.243839 -0.776569 1.7375 0.5 0.5 0.5 1
-0.243839 0.776569 1.7375 0.5 0.5 0.5 1

3 0 1 68
3 0 68 1
3 0 26 67
3 0 67 26
3 0 67 68
3 0 68 67
3 1 27 68
3 1 68 27
3 2 6 31
3 2 31 6
3 2 9 28
3 2 28 9
3 2 28 35
3 2 35 28
3 2 31 35
3 2 35 31
3 3 4 64
3 3 64 4
3 3 24 63
3 3 63 24
3 3 63 64
3 3 64 63
3 4 25 64
3 4 64 25
3 5 7 32
3 5 32 7
3 5 8 72
3 5 72 8
3 5 32 36
3 5 36 32
3 5 36 72
3 5 72 36
3 6 10 65
3 6 65 10
3 6 31 65
3 6 65 31
3 7 11 37
3 7 37 11
3 7 32 37
3 7 37 32
3 8 12 33
3 8 33 12
3 8 33 72
3 8 72 33
3 9 13 34
3 9 34 13
3 9 28 34
3 9 34 28
3 10 14 65
3 10 65 14
3 11 15 37
3 11 37 15
3 12 16 33
3 12 33 16
3 13 17 34
3 13 34 17
3 14 18 38
3 14 38 18
3 14 38 65
3 14 65 38
3 15 19 45
3 15 45 19
3 15 37 45
3 15 45 37
3 16 20 46
3 16 46 20
3 16 33 46
3 16 46 33
3 17 21 58
3 17 58 21
3 17 34 58
3 17 58 34
3 18 22 38
3 18 38 22
3 19 23 45
3 19 45 23
3 20 26 46
3 20 46 26
3 21 27 58
3 21 58 27
3 22 24 53
3 22 53 24
3 22 38 53
3 22 53 38
3 23 25 54
3 23 54 25
3 23 45 54
3 23 54 45
3 24 53 63
3 24 63 53
3 25 54 64
3 25 64 54
3 26 46 67
3 26 67 46
3 27 58 68
3 27 68 58
3 28 34 39
3 28 39 34
3 28 35 39
3 28 39 35
3 29 30 41
3 29 41 30
3 29 30 55
3 29 55 30
3 29 33 40
3 29 40 33
3 29 33 55
3 29 55 33
3 29 40 57
3 29 57 40
3 29 41 42
3 29 42 41
3 29 42 57
3 29 57 42
3 30 34 39
3 30 39 34
3 30 34 55
3 30 55 34
3 30 39 56
3 30 56 39
3 30 41 56
3 30 56 41
3 31 35 44
3 31 44 35
3 31 44 71
3 31 71 44
3 31 65 71
3 31 71 65
3 32 36 43
3 32 43 36
3 32 37 66
3 32 66 37
3 32 43 66
3 32 66 43
3 33 40 72
3 33 72 40
3 33 46 55
3 33 55 46
3 34 55 58
3 34 58 55
3 35 39 51
3 35 51 39
3 35 44 51
3 35 51 44
3 36 40 50
3 36 50 40
3 36 40 72
3 36 72 40
3 36 43 50
3 36 50 43
3 37 45 62
3 37 62 45
3 37 47 62
3 37 62 47
3 37 47 66
3 37 66 47
3 38 53 76
3 38 76 53
3 38 62 65
3 38 65 62
3 38 62 76
3 38 76 62
3 39 51 56
3 39 56 51
3 40 50 57
3 40 57 50
3 41 42 59
3 41 59 42
3 41 56 74
3 41 74 56
3 41 56 77
3 41 77 56
3 41 59 74
3 41 74 59
3 41 59 77
3 41 77 59
3 42 57 73
3 42 73 57
3 42 57 78
3 42 78 57
3 42 59 73
3 42 73 59
3 42 59 78
3 42 78 59
3 43 48 60
3 43 60 48
3 43 48 66
3 43 66 48
3 43 50 60
3 43 60 50
3 44 49 61
3 44 61 49
3 44 49 71
3 44 71 49
3 44 51 61
3 44 61 51
3 45 54 76
3 45 76 54
3 45 62 76
3 45 76 62
3 46 55 58
3 46 58 55
3 46 58 68
3 46 68 58
3 46 67 68
3 46 68 67
3 47 48 52
3 47 52 48
3 47 48 66
3 47 66 48
3 47 49 52
3 47 52 49
3 47 49 71
3 47 71 49
3 47 62 65
3 47 65 62
3 47 65 71
3 47 71 65
3 48 52 69
3 48 69 52
3 48 60 69
3 48 69 60
3 49 52 70
3 49 70 52
3 49 61 70
3 49 70 61
3 50 57 73
3 50 73 57
3 50 60 73
3 50 73 60
3 51 56 74
3 51 74 56
3 51 61 74
3 51 74 61
3 52 59 69
3 52 69 59
3 52 59 70
3 52 70 59
3 52 69 75
3 52 75 69
3 52 70 75
3 52 75 70
3 53 54 64
3 53 64 54
3 53 54 76
3 53 76 54
3 53 63 64
3 53 64 63
3 56 74 77
3 56 77 74
3 57 73 78
3 57 78 73
3 59 60 69
3 59 69 60
3 59 60 73
3 59 73 60
3 59 61 70
3 59 70 61
3 59 61 74
3 59 74 61
3 59 69 75
3 59 75 69
3 59 70 75
3 59 75 70
3 59 73 78
3 59 78 73
3 59 74 77
3 59 77 74
