COFF
92 336 92

-6.35861 0.894197 5.82267 0.5 0.5 0.5 1
-6.35861 -0.894197 5.82267 0.5 0.5 0.5 1
-0.0270829 -1.99872 5.39884 0.5 0.5 0.5 1
7.33119 -0.957342 5.73601 0.5 0.5 0.5 1
7.33119 0.957342 5.73601 0.5 0.5 0.5 1
-0.0270829 1.99872 5.39884 0.5 0.5 0.5 1
1.09986 -1.61785 5.60745 0.5 0.5 0.5 1
1.09986 1.61785 5.60745 0.5 0.5 0.5 1
-1.1372 1.64388 5.53233 0.5 0.5 0.5 1
-1.1372 -1.64388 5.53233 0.5 0.5 0.5 1
1.98727 -1.25542 5.90745 0.5 0.5 0.5 1
1.98727 1.25542 5.90745 0.5 0.5 0.5 1
-2.05035 1.33776 5.80143 0.5 0.5 0.5 1
-2.05035 -1.33776 5.80143 0.5 0.5 0.5 1
3.05502 -1.15334 5.93429 0.5 0.5 0.5 1
3.05502 1.15334 5.93429 0.5 0.5 0.5 1
-3.04482 1.30696 5.70497 0.5 0.5 0.5 1
-3.04482 -1.30696 5.70497 0.5 0.5 0.5 1
4.05248 -1.09145 5.95972 0.5 0.5 0.5 1
4.05248 1.09145 5.95972 0.5 0.5 0.5 1
-4.04165 1.22621 5.70169 0.5 0.5 0.5 1
-4.04165 -1.22621 5.70169 0.5 0.5 0.5 1
5.0665 -1.21948 5.71431 0.5 0.5 0.5 1
5.0665 1.21948 5.71431 0.5 0.5 0.5 1
6.07484 -1.17534 5.65598 0.5 0.5 0.5 1
6.07484 1.17534 5.65598 0.5 0.5 0.5 1
-5.03701 1.11536 5.72759 0.5 0.5 0.5 1
-5.03701 -1.11536 5.72759 0.5 0.5 0.5 1
-1.09738 -1.60649 4.61003 0.5 0.5 0.5 1
-2.00538 0.865223 3.43608 0.5 0.5 0.5 1
-2.00538 -0.865224 3.43608 0.5 0.5 0.5 1
1.23234 -1.56486 4.49702 0.5 0.5 0.5 1
1.23234 1.56486 4.49702 0.5 0.5 0.5 1
-2.23119 1.25362 4.66116 0.5 0.5 0.5 1
-2.23119 -1.25362 4.66117 0.5 0.5 0.5 1
0.0166453 -1.7209 4.15034 0.5 0.5 0.5 1
0.0166583 1.7208 4.15034 0.5 0.5 0.5 1
2.46599 1.1882 4.78402 0.5 0.5 0.5 1
4.09871 -1.14266 5.16467 0.5 0.5 0.5 1
-0.876457 -1.55351 3.65999 0.5 0.5 0.5 1
-0.876457 1.55351 3.65999 0.5 0.5 0.5 1
-1.49418 -0.889128 2.09902 0.5 0.5 0.5 1
-1.49418 0.889128 2.09902 0.5 0.5 0.5 1
1.06912 1.50887 3.3624 0.5 0.5 0.5 1
1.06912 -1.50887 3.3624 0.5 0.5 0.5 1
4.09871 1.14266 5.16467 0.5 0.5 0.5 1
-4.27522 0.660533 4.06512 1 1 0 1
2.27364 7.14581e-08 3.77465 0.5 0.5 0.5 1
1.51134 1.11986 2.99365 0.5 0.5 0.5 1
1.51134 -1.11986 2.99365 0.5 0.5 0.5 1
0.105871 1.59453 3.14052 0.5 0.5 0.5 1
0.105979 -1.59455 3.14052 0.5 0.5 0.5 1
1.75137 9.23139e-10 2.7565 0.5 0.5 0.5 1
5.05016 -0.750365 3.94798 1 1 0 1
5.05016 0.750365 3.94798 1 1 0 1
-2.76881 -3.68418e-09 3.70114 0.5 0.5 0.5 1
-0.633722 -1.40825 2.87064 0.5 0.5 0.5 1
-0.633722 1.40825 2.87064 0.5 0.5 0.5 1
-4.27522 -0.660533 4.06512 1 1 0 1
0.113844 1.58408e-08 1.02806 1 1 0 1
0.931359 1.3418 2.41897 0.5 0.5 0.5 1
0.931359 -1.3418 2.41897 0.5 0.5 0.5 1
2.99734 9.40501e-07 4.19929 0.5 0.5 0.5 1
6.58062 -1.01576 5.06675 0.5 0.5 0.5 1
6.58062 1.01576 5.06675 0.5 0.5 0.5 1
2.46599 -1.1882 4.78402 0.5 0.5 0.5 1
1.71957 1.37886 3.95392 0.5 0.5 0.5 1
-5.53809 0.94421 5.13501 0.5 0.5 0.5 1
-5.53809 -0.94421 5.13501 0.5 0.5 0.5 1
1.27448 0.858519 2.11035 0.5 0.5 0.5 1
1.27448 -0.858519 2.11035 0.5 0.5 0.5 1
1.71957 -1.37886 3.95392 0.5 0.5 0.5 1
-1.09738 1.60649 4.61003 0.5 0.5 0.5 1
0.14043 1.36179 2.21802 0.5 0.5 0.5 1
0.14043 -1.36178 2.21802 0.5 0.5 0.5 1
1.39033 -1.81623e-09 1.94685 0.5 0.5 0.5 1
4.10184 4.33358e-06 4.96996 0.5 0.5 0.5 1
-0.305862 -1.12432 1.89179 0.5 0.5 0.5 1
-0.305862 1.12432 1.89179 0.5 0.5 0.5 1
-3.13981 1.03149 4.35362 0.5 0.5 0.5 1
-3.13981 -1.03149 4.35362 0.5 0.5 0.5 1
-0.988766 -0.48229 1.4961 0.5 0.5 0.5 1
-0.988766 0.48229 1.4961 0.5 0.5 0.5 1
-3.60172 1.08285 4.91691 0.5 0.5 0.5 1
-3.60172 -1.08285 4.91691 0.5 0.5 0.5 1
0.592438 0.778522 1.69395 0.5 0.5 0.5 1
0.592438 -0.778522 1.69395 0.5 0.5 0.5 1
5.59626 -1.00267 4.82083 0.5 0.5 0.5 1
5.59626 1.00267 4.82083 0.5 0.5 0.5 1
6.6113 3.03111e-11 5.05047 0.5 0.5 0.5 1
5.85814 -0.365889 4.49268 0.5 0.5 0.5 1
5.85814 0.365889 4.49268 0.5 0.5 0.5 1

3 0 1 68
3 0 68 1
3 0 26 67
3 0 67 26
3 0 67 68
3 0 68 67
3 1 27 68
3 1 68 27
3 2 6 31
3 2 31 6
3 2 9 28
3 2 28 9
3 2 28 35
3 2 35 28
3 2 31 35
3 2 35 31
3 3 4 89
3 3 89 4
3 3 24 63
3 3 63 24
3 3 63 89
3 3 89 63
3 4 25 64
3 4 64 25
3 4 64 89
3 4 89 64
3 5 7 32
3 5 32 7
3 5 8 72
3 5 72 8
3 5 32 36
3 5 36 32
3 5 36 72
3 5 72 36
3 6 10 65
3 6 65 10
3 6 31 65
3 6 65 31
3 7 11 37
3 7 37 11
3 7 32 37
3 7 37 32
3 8 12 33
3 8 33 12
3 8 33 72
3 8 72 33
3 9 13 34
3 9 34 13
3 9 28 34
3 9 34 28
3 10 14 65
3 10 65 14
3 11 15 37
3 11 37 15
3 12 16 33
3 12 33 16
3 13 17 34
3 13 34 17
3 14 18 38
3 14 38 18
3 14 38 65
3 14 65 38
3 15 19 45
3 15 45 19
3 15 37 45
3 15 45 37
3 16 20 46
3 16 46 20
3 16 20 83
3 16 83 20
3 16 33 79
3 16 79 33
3 16 46 79
3 16 79 46
3 16 79 83
3 16 83 79
3 17 21 58
3 17 58 21
3 17 21 84
3 17 84 21
3 17 34 80
3 17 80 34
3 17 58 80
3 17 80 58
3 17 80 84
3 17 84 80
3 18 22 38
3 18 38 22
3 19 23 45
3 19 45 23
3 20 26 46
3 20 46 26
3 20 46 83
3 20 83 46
3 21 27 58
3 21 58 27
3 21 58 84
3 21 84 58
3 22 24 63
3 22 63 24
3 22 24 87
3 22 87 24
3 22 38 53
3 22 53 38
3 22 53 63
3 22 63 53
3 22 53 87
3 22 87 53
3 23 25 64
3 23 64 25
3 23 25 88
3 23 88 25
3 23 45 54
3 23 54 45
3 23 54 64
3 23 64 54
3 23 54 88
3 23 88 54
3 24 63 87
3 24 87 63
3 25 64 88
3 25 88 64
3 26 46 67
3 26 67 46
3 27 58 68
3 27 68 58
3 28 34 39
3 28 39 34
3 28 35 39
3 28 39 35
3 29 30 41
3 29 41 30
3 29 30 55
3 29 55 30
3 29 33 40
3 29 40 33
3 29 33 55
3 29 55 33
3 29 40 57
3 29 57 40
3 29 41 42
3 29 42 41
3 29 42 57
3 29 57 42
3 30 34 39
3 30 39 34
3 30 34 55
3 30 55 34
3 30 39 56
3 30 56 39
3 30 41 56
3 30 56 41
3 31 35 44
3 31 44 35
3 31 44 71
3 31 71 44
3 31 65 71
3 31 71 65
3 32 36 43
3 32 43 36
3 32 37 66
3 32 66 37
3 32 43 66
3 32 66 43
3 33 40 72
3 33 72 40
3 33 55 79
3 33 79 55
3 34 55 80
3 34 80 55
3 35 39 51
3 35 51 39
3 35 44 51
3 35 51 44
3 36 40 50
3 36 50 40
3 36 40 72
3 36 72 40
3 36 43 50
3 36 50 43
3 37 45 62
3 37 62 45
3 37 47 62
3 37 62 47
3 37 47 66
3 37 66 47
3 38 53 76
3 38 76 53
3 38 62 65
3 38 65 62
3 38 62 76
3 38 76 62
3 39 51 56
3 39 56 51
3 40 50 57
3 40 57 50
3 41 42 82
3 41 82 42
3 41 56 77
3 41 77 56
3 41 59 77
3 41 77 59
3 41 59 81
3 41 81 59
3 41 81 82
3 41 82 81
3 42 57 78
3 42 78 57
3 42 59 78
3 42 78 59
3 42 59 82
3 42 82 59
3 43 48 60
3 43 60 48
3 43 48 66
3 43 66 48
3 43 50 60
3 43 60 50
3 44 49 61
3 44 61 49
3 44 49 71
3 44 71 49
3 44 51 61
3 44 61 51
3 45 54 76
3 45 76 54
3 45 62 76
3 45 76 62
3 46 55 58
3 46 58 55
3 46 55 79
3 46 79 55
3 46 58 68
3 46 68 58
3 46 67 68
3 46 68 67
3 46 79 83
3 46 83 79
3 47 48 52
3 47 52 48
3 47 48 66
3 47 66 48
3 47 49 52
3 47 52 49
3 47 49 71
3 47 71 49
3 47 62 65
3 47 65 62
3 47 65 71
3 47 71 65
3 48 52 69
3 48 69 52
3 48 60 69
3 48 69 60
3 49 52 70
3 49 70 52
3 49 61 70
3 49 70 61
3 50 57 73
3 50 73 57
3 50 60 73
3 50 73 60
3 51 56 74
3 51 74 56
3 51 61 74
3 51 74 61
3 52 59 69
3 52 69 59
3 52 59 70
3 52 70 59
3 52 69 75
3 52 75 69
3 52 70 75
3 52 75 70
3 53 54 76
3 53 76 54
3 53 54 91
3 53 91 54
3 53 63 87
3 53 87 63
3 53 63 89
3 53 89 63
3 53 89 90
3 53 90 89
3 53 90 91
3 53 91 90
3 54 64 88
3 54 88 64
3 54 64 89
3 54 89 64
3 54 89 91
3 54 91 89
3 55 58 80
3 55 80 58
3 56 74 77
3 56 77 74
3 57 73 78
3 57 78 73
3 58 80 84
3 58 84 80
3 59 60 69
3 59 69 60
3 59 60 73
3 59 73 60
3 59 61 70
3 59 70 61
3 59 61 74
3 59 74 61
3 59 69 75
3 59 75 69
3 59 69 85
3 59 85 69
3 59 70 75
3 59 75 70
3 59 70 86
3 59 86 70
3 59 73 78
3 59 78 73
3 59 73 85
3 59 85 73
3 59 74 77
3 59 77 74
3 59 74 86
3 59 86 74
3 59 81 82
3 59 82 81
3 60 69 85
3 60 85 69
3 60 73 85
3 60 85 73
3 61 70 86
3 61 86 70
3 61 74 86
3 61 86 74
3 89 90 91
3 89 91 90
