COFF
106 394 106

-6.42102 0.945841 6.15105 0.5 0.5 0.5 1
-6.42102 -0.945841 6.15105 0.5 0.5 0.5 1
-0.0265407 -2.04953 5.74877 0.5 0.5 0.5 1
7.39277 -1.00923 6.06268 0.5 0.5 0.5 1
7.39277 1.00923 6.06268 0.5 0.5 0.5 1
-0.0265407 2.04953 5.74877 0.5 0.5 0.5 1
1.11572 -1.6603 5.96629 0.5 0.5 0.5 1
1.11572 1.6603 5.96629 0.5 0.5 0.5 1
-1.14819 1.69897 5.87776 0.5 0.5 0.5 1
-1.14819 -1.69897 5.87776 0.5 0.5 0.5 1
1.99743 -1.2971 6.27387 0.5 0.5 0.5 1
1.99743 1.2971 6.27387 0.5 0.5 0.5 1
-2.06218 1.39687 6.14868 0.5 0.5 0.5 1
-2.06218 -1.39687 6.14868 0.5 0.5 0.5 1
3.05527 -1.21098 6.28628 0.5 0.5 0.5 1
3.05527 1.21098 6.28628 0.5 0.5 0.5 1
-3.0531 1.39931 6.01689 0.5 0.5 0.5 1
-3.0531 -1.39931 6.01689 0.5 0.5 0.5 1
4.05342 -1.15805 6.3027 0.5 0.5 0.5 1
4.05342 1.15805 6.3027 0.5 0.5 0.5 1
-4.05314 1.35314 5.9792 0.5 0.5 0.5 1
-4.05314 -1.35314 5.9792 0.5 0.5 0.5 1
5.0609 -1.33031 6.00801 0.5 0.5 0.5 1
5.0609 1.33031 6.00801 0.5 0.5 0.5 1
6.08947 -1.27837 5.98559 0.5 0.5 0.5 1
6.08947 1.27837 5.98559 0.5 0.5 0.5 1
-5.05816 1.2294 6.02405 0.5 0.5 0.5 1
-5.05816 -1.2294 6.02405 0.5 0.5 0.5 1
7.62356 2.4034e-11 6.06296 0.5 0.5 0.5 1
-2.0168 0.907044 3.73195 0.5 0.5 0.5 1
-2.0168 -0.907044 3.73195 0.5 0.5 0.5 1
1.25489 -1.61334 4.83433 0.5 0.5 0.5 1
1.25489 1.61334 4.83433 0.5 0.5 0.5 1
-2.19958 1.33225 5.01482 0.5 0.5 0.5 1
-2.19958 -1.33225 5.01482 0.5 0.5 0.5 1
0.020319 -1.77126 4.46276 0.5 0.5 0.5 1
0.0203461 1.77121 4.46276 0.5 0.5 0.5 1
2.49833 1.24078 5.11998 0.5 0.5 0.5 1
4.09935 -1.18899 5.44293 0.5 0.5 0.5 1
-0.892149 -1.60885 3.94569 0.5 0.5 0.5 1
-0.892148 1.60885 3.94569 0.5 0.5 0.5 1
-1.53046 -0.951658 2.35781 0.5 0.5 0.5 1
-1.53046 0.951658 2.35781 0.5 0.5 0.5 1
1.10359 1.56126 3.67387 0.5 0.5 0.5 1
1.10359 -1.56126 3.67387 0.5 0.5 0.5 1
4.09935 1.18899 5.44293 0.5 0.5 0.5 1
-4.38492 0.660098 4.06512 1 1 0 1
2.35637 2.99423e-07 4.08411 0.5 0.5 0.5 1
1.5586 1.17143 3.28883 0.5 0.5 0.5 1
1.5586 -1.17143 3.28883 0.5 0.5 0.5 1
0.105984 1.64733 3.42105 0.5 0.5 0.5 1
0.105938 -1.64737 3.42109 0.5 0.5 0.5 1
1.82531 2.08701e-07 3.01442 0.5 0.5 0.5 1
5.06959 -0.750449 3.94798 1 1 0 1
5.06959 0.75045 3.94798 1 1 0 1
-2.84056 2.01109e-09 3.92046 0.5 0.5 0.5 1
-0.670362 -1.46788 3.1333 0.5 0.5 0.5 1
-0.670362 1.46788 3.1333 0.5 0.5 0.5 1
-4.38492 -0.660098 4.06512 1 1 0 1
0.146237 2.99266e-07 1.02806 1 1 0 1
0.982847 1.42075 2.70422 0.5 0.5 0.5 1
0.982853 -1.42075 2.70422 0.5 0.5 0.5 1
3.08784 7.34904e-07 4.42021 0.5 0.5 0.5 1
6.70649 -1.1421 5.39722 0.5 0.5 0.5 1
6.70649 1.1421 5.39722 0.5 0.5 0.5 1
2.49833 -1.24078 5.11998 0.5 0.5 0.5 1
1.74749 1.42766 4.27165 0.5 0.5 0.5 1
-5.62955 1.05301 5.40601 0.5 0.5 0.5 1
-5.62955 -1.05301 5.40601 0.5 0.5 0.5 1
1.35277 0.943286 2.34818 0.5 0.5 0.5 1
1.35277 -0.943286 2.34818 0.5 0.5 0.5 1
1.74749 -1.42766 4.27165 0.5 0.5 0.5 1
-1.06185 1.66536 4.92834 0.5 0.5 0.5 1
0.191867 1.47136 2.45104 0.5 0.5 0.5 1
0.191868 -1.47135 2.45104 0.5 0.5 0.5 1
1.52075 8.33686e-08 2.18926 0.5 0.5 0.5 1
4.11795 4.33335e-06 5.28573 0.5 0.5 0.5 1
-0.378774 -1.30259 2.10883 0.5 0.5 0.5 1
-0.378767 1.3026 2.10887 0.5 0.5 0.5 1
-3.07974 1.1863 4.59661 0.5 0.5 0.5 1
-3.07974 -1.1863 4.59661 0.5 0.5 0.5 1
-1.25315 -0.644718 1.57575 0.5 0.5 0.5 1
-1.25315 0.64472 1.57575 0.5 0.5 0.5 1
-3.57446 1.28457 5.16657 0.5 0.5 0.5 1
-3.57446 -1.28457 5.16657 0.5 0.5 0.5 1
0.761441 1.04691 1.8599 0.5 0.5 0.5 1
0.761443 -1.04691 1.8599 0.5 0.5 0.5 1
5.74897 -1.18775 5.09143 0.5 0.5 0.5 1
5.74897 1.18775 5.09143 0.5 0.5 0.5 1
6.88365 9.47955e-10 5.25605 0.5 0.5 0.5 1
6.19881 -0.443742 4.49633 0.5 0.5 0.5 1
6.19881 0.443742 4.49633 0.5 0.5 0.5 1
6.08407 -0.949928 4.68328 0.5 0.5 0.5 1
6.08407 0.949928 4.68328 0.5 0.5 0.5 1
-4.80218 1.03054 5.06937 0.5 0.5 0.5 1
-4.80218 -1.03054 5.06937 0.5 0.5 0.5 1
5.04098 -1.14322 5.02489 0.5 0.5 0.5 1
5.04098 1.14322 5.02489 0.5 0.5 0.5 1
-5.74447 -6.68957e-12 5.34643 0.5 0.5 0.5 1
-4.20295 1.06263 5.02443 0.5 0.5 0.5 1
-4.20295 -1.06263 5.02443 0.5 0.5 0.5 1
0.145347 0.813163 1.72139 0.5 0.5 0.5 1
0.145347 -0.813162 1.72139 0.5 0.5 0.5 1
-1.06185 -1.66536 4.92834 0.5 0.5 0.5 1
0.799657 0.48222 1.67897 0.5 0.5 0.5 1
0.799658 -0.48222 1.67897 0.5 0.5 0.5 1

3 0 1 98
3 0 98 1
3 0 26 67
3 0 67 26
3 0 67 98
3 0 98 67
3 1 27 68
3 1 68 27
3 1 68 98
3 1 98 68
3 2 6 31
3 2 31 6
3 2 9 103
3 2 103 9
3 2 31 35
3 2 35 31
3 2 35 103
3 2 103 35
3 3 24 63
3 3 63 24
3 3 28 89
3 3 89 28
3 3 63 89
3 3 89 63
3 4 25 64
3 4 64 25
3 4 28 89
3 4 89 28
3 4 64 89
3 4 89 64
3 5 7 32
3 5 32 7
3 5 8 72
3 5 72 8
3 5 32 36
3 5 36 32
3 5 36 72
3 5 72 36
3 6 10 65
3 6 65 10
3 6 31 65
3 6 65 31
3 7 11 37
3 7 37 11
3 7 32 37
3 7 37 32
3 8 12 33
3 8 33 12
3 8 33 72
3 8 72 33
3 9 13 34
3 9 34 13
3 9 34 103
3 9 103 34
3 10 14 65
3 10 65 14
3 11 15 37
3 11 37 15
3 12 16 33
3 12 33 16
3 13 17 34
3 13 34 17
3 14 18 38
3 14 38 18
3 14 38 65
3 14 65 38
3 15 19 45
3 15 45 19
3 15 37 45
3 15 45 37
3 16 20 83
3 16 83 20
3 16 33 79
3 16 79 33
3 16 79 83
3 16 83 79
3 17 21 84
3 17 84 21
3 17 34 80
3 17 80 34
3 17 80 84
3 17 84 80
3 18 22 38
3 18 38 22
3 19 23 45
3 19 45 23
3 20 26 94
3 20 94 26
3 20 46 83
3 20 83 46
3 20 46 94
3 20 94 46
3 20 83 99
3 20 99 83
3 20 94 99
3 20 99 94
3 21 27 95
3 21 95 27
3 21 58 84
3 21 84 58
3 21 58 95
3 21 95 58
3 21 84 100
3 21 100 84
3 21 95 100
3 21 100 95
3 22 24 87
3 22 87 24
3 22 38 53
3 22 53 38
3 22 38 96
3 22 96 38
3 22 53 87
3 22 87 53
3 22 87 96
3 22 96 87
3 23 25 88
3 23 88 25
3 23 45 54
3 23 54 45
3 23 45 97
3 23 97 45
3 23 54 88
3 23 88 54
3 23 88 97
3 23 97 88
3 24 63 87
3 24 87 63
3 25 64 88
3 25 88 64
3 26 67 94
3 26 94 67
3 27 68 95
3 27 95 68
3 29 30 41
3 29 41 30
3 29 30 55
3 29 55 30
3 29 33 40
3 29 40 33
3 29 33 55
3 29 55 33
3 29 40 57
3 29 57 40
3 29 41 42
3 29 42 41
3 29 42 57
3 29 57 42
3 30 34 39
3 30 39 34
3 30 34 55
3 30 55 34
3 30 39 56
3 30 56 39
3 30 41 56
3 30 56 41
3 31 35 44
3 31 44 35
3 31 44 71
3 31 71 44
3 31 65 71
3 31 71 65
3 32 36 43
3 32 43 36
3 32 37 66
3 32 66 37
3 32 43 66
3 32 66 43
3 33 40 72
3 33 72 40
3 33 55 79
3 33 79 55
3 34 39 103
3 34 103 39
3 34 55 80
3 34 80 55
3 35 39 51
3 35 51 39
3 35 39 103
3 35 103 39
3 35 44 51
3 35 51 44
3 36 40 50
3 36 50 40
3 36 40 72
3 36 72 40
3 36 43 50
3 36 50 43
3 37 45 62
3 37 62 45
3 37 47 62
3 37 62 47
3 37 47 66
3 37 66 47
3 38 53 76
3 38 76 53
3 38 53 96
3 38 96 53
3 38 62 65
3 38 65 62
3 38 62 76
3 38 76 62
3 39 51 56
3 39 56 51
3 40 50 57
3 40 57 50
3 41 42 82
3 41 82 42
3 41 56 77
3 41 77 56
3 41 59 77
3 41 77 59
3 41 59 81
3 41 81 59
3 41 81 82
3 41 82 81
3 42 57 78
3 42 78 57
3 42 59 78
3 42 78 59
3 42 59 82
3 42 82 59
3 43 48 60
3 43 60 48
3 43 48 66
3 43 66 48
3 43 50 60
3 43 60 50
3 44 49 61
3 44 61 49
3 44 49 71
3 44 71 49
3 44 51 61
3 44 61 51
3 45 54 76
3 45 76 54
3 45 54 97
3 45 97 54
3 45 62 76
3 45 76 62
3 46 55 58
3 46 58 55
3 46 55 79
3 46 79 55
3 46 58 98
3 46 98 58
3 46 67 94
3 46 94 67
3 46 67 98
3 46 98 67
3 46 79 83
3 46 83 79
3 46 83 99
3 46 99 83
3 46 94 99
3 46 99 94
3 47 48 52
3 47 52 48
3 47 48 66
3 47 66 48
3 47 49 52
3 47 52 49
3 47 49 71
3 47 71 49
3 47 62 65
3 47 65 62
3 47 65 71
3 47 71 65
3 48 52 69
3 48 69 52
3 48 60 69
3 48 69 60
3 49 52 70
3 49 70 52
3 49 61 70
3 49 70 61
3 50 57 73
3 50 73 57
3 50 60 73
3 50 73 60
3 51 56 74
3 51 74 56
3 51 61 74
3 51 74 61
3 52 69 75
3 52 75 69
3 52 70 75
3 52 75 70
3 53 54 76
3 53 76 54
3 53 54 91
3 53 91 54
3 53 87 92
3 53 92 87
3 53 87 96
3 53 96 87
3 53 90 91
3 53 91 90
3 53 90 92
3 53 92 90
3 54 88 93
3 54 93 88
3 54 88 97
3 54 97 88
3 54 91 93
3 54 93 91
3 55 58 80
3 55 80 58
3 56 74 77
3 56 77 74
3 57 73 78
3 57 78 73
3 58 68 95
3 58 95 68
3 58 68 98
3 58 98 68
3 58 80 84
3 58 84 80
3 58 84 100
3 58 100 84
3 58 95 100
3 58 100 95
3 59 69 75
3 59 75 69
3 59 69 85
3 59 85 69
3 59 70 75
3 59 75 70
3 59 70 86
3 59 86 70
3 59 73 78
3 59 78 73
3 59 73 85
3 59 85 73
3 59 74 77
3 59 77 74
3 59 74 86
3 59 86 74
3 59 75 104
3 59 104 75
3 59 75 105
3 59 105 75
3 59 77 102
3 59 102 77
3 59 78 101
3 59 101 78
3 59 81 82
3 59 82 81
3 59 85 101
3 59 101 85
3 59 85 104
3 59 104 85
3 59 86 102
3 59 102 86
3 59 86 105
3 59 105 86
3 60 69 85
3 60 85 69
3 60 73 85
3 60 85 73
3 61 70 86
3 61 86 70
3 61 74 86
3 61 86 74
3 63 87 92
3 63 92 87
3 63 89 92
3 63 92 89
3 64 88 93
3 64 93 88
3 64 89 93
3 64 93 89
3 69 75 104
3 69 104 75
3 69 85 104
3 69 104 85
3 70 75 105
3 70 105 75
3 70 86 105
3 70 105 86
3 73 78 101
3 73 101 78
3 73 85 101
3 73 101 85
3 74 77 102
3 74 102 77
3 74 86 102
3 74 102 86
3 89 90 91
3 89 91 90
3 89 90 92
3 89 92 90
3 89 91 93
3 89 93 91
