COFF
114 418 114

-6.48725 0.998953 6.47345 0.5 0.5 0.5 1
-6.48725 -0.998953 6.47345 0.5 0.5 0.5 1
-0.0258119 -2.09936 6.0984 0.5 0.5 0.5 1
7.43256 -1.0696 6.39551 0.5 0.5 0.5 1
7.43256 1.0696 6.39551 0.5 0.5 0.5 1
-0.0258119 2.09936 6.0984 0.5 0.5 0.5 1
1.13111 -1.70323 6.32349 0.5 0.5 0.5 1
1.13111 1.70323 6.32349 0.5 0.5 0.5 1
-1.15862 1.75217 6.22381 0.5 0.5 0.5 1
-1.15862 -1.75217 6.22381 0.5 0.5 0.5 1
2.00826 -1.33963 6.63836 0.5 0.5 0.5 1
2.00826 1.33963 6.63836 0.5 0.5 0.5 1
-2.07269 1.45293 6.49765 0.5 0.5 0.5 1
-2.07269 -1.45293 6.49765 0.5 0.5 0.5 1
3.05473 -1.26997 6.63542 0.5 0.5 0.5 1
3.05473 1.26997 6.63542 0.5 0.5 0.5 1
-3.05803 1.48602 6.33229 0.5 0.5 0.5 1
-3.05803 -1.48602 6.33229 0.5 0.5 0.5 1
4.05328 -1.2233 6.6453 0.5 0.5 0.5 1
4.05328 1.2233 6.6453 0.5 0.5 0.5 1
-4.06169 1.45851 6.27539 0.5 0.5 0.5 1
-4.06169 -1.45851 6.27539 0.5 0.5 0.5 1
5.05506 -1.42018 6.32002 0.5 0.5 0.5 1
5.05506 1.42018 6.32002 0.5 0.5 0.5 1
6.09975 -1.36233 6.31758 0.5 0.5 0.5 1
6.09975 1.36233 6.31758 0.5 0.5 0.5 1
-5.08602 1.32475 6.34625 0.5 0.5 0.5 1
-5.08602 -1.32475 6.34625 0.5 0.5 0.5 1
8.50249 -1.84325e-08 6.40059 0.5 0.5 0.5 1
-2.01171 0.945989 4.02059 0.5 0.5 0.5 1
-2.01171 -0.945987 4.02059 0.5 0.5 0.5 1
1.27648 -1.66019 5.16988 0.5 0.5 0.5 1
1.27648 1.66019 5.16988 0.5 0.5 0.5 1
-2.18283 1.40686 5.35264 0.5 0.5 0.5 1
-2.18283 -1.40686 5.35264 0.5 0.5 0.5 1
0.0215109 -1.8206 4.77556 0.5 0.5 0.5 1
0.0216003 1.82061 4.77556 0.5 0.5 0.5 1
2.52881 1.29114 5.45458 0.5 0.5 0.5 1
4.10055 -1.25011 5.7205 0.5 0.5 0.5 1
-0.905266 -1.67351 4.24483 0.5 0.5 0.5 1
-0.905264 1.67351 4.24483 0.5 0.5 0.5 1
-1.55283 -0.995542 2.61557 0.5 0.5 0.5 1
-1.55283 0.995544 2.61557 0.5 0.5 0.5 1
1.13212 1.61221 3.98804 0.5 0.5 0.5 1
1.13212 -1.61221 3.98804 0.5 0.5 0.5 1
4.10055 1.25011 5.7205 0.5 0.5 0.5 1
-4.4164 0.659506 4.06512 1 1 0 1
2.42572 7.56631e-08 4.39086 0.5 0.5 0.5 1
1.59851 1.21712 3.58436 0.5 0.5 0.5 1
1.59851 -1.21712 3.58436 0.5 0.5 0.5 1
0.106762 1.70225 3.70252 0.5 0.5 0.5 1
0.106753 -1.70202 3.70255 0.5 0.5 0.5 1
1.88094 2.41256e-08 3.27551 0.5 0.5 0.5 1
5.10343 -0.750726 3.94798 1 1 0 1
5.10343 0.750726 3.94798 1 1 0 1
-2.79959 5.58498e-08 4.20295 0.5 0.5 0.5 1
-0.689899 -1.52043 3.38245 0.5 0.5 0.5 1
-0.689899 1.52044 3.38245 0.5 0.5 0.5 1
-4.4164 -0.659506 4.06512 1 1 0 1
0.153639 5.19369e-07 1.02806 1 1 0 1
1.01927 1.48604 2.98815 0.5 0.5 0.5 1
1.01921 -1.48586 2.98815 0.5 0.5 0.5 1
3.1582 1.41523e-07 4.64588 0.5 0.5 0.5 1
6.74718 -1.20936 5.7573 0.5 0.5 0.5 1
6.74718 1.20936 5.7573 0.5 0.5 0.5 1
2.52881 -1.29114 5.45458 0.5 0.5 0.5 1
1.77551 1.47437 4.58543 0.5 0.5 0.5 1
-5.72457 1.17219 5.72342 0.5 0.5 0.5 1
-5.72457 -1.17219 5.72342 0.5 0.5 0.5 1
1.40631 1.01678 2.60783 0.5 0.5 0.5 1
1.40632 -1.01678 2.60783 0.5 0.5 0.5 1
1.77552 -1.47436 4.58544 0.5 0.5 0.5 1
-1.0416 1.72174 5.24321 0.5 0.5 0.5 1
0.228056 1.55969 2.70391 0.5 0.5 0.5 1
0.22806 -1.55968 2.70391 0.5 0.5 0.5 1
1.57752 -3.69846e-07 2.39263 0.5 0.5 0.5 1
4.11771 9.80324e-07 5.58962 0.5 0.5 0.5 1
-0.425235 -1.38529 2.31846 0.5 0.5 0.5 1
-0.425225 1.38529 2.3185 0.5 0.5 0.5 1
-3.02693 1.32943 4.84847 0.5 0.5 0.5 1
-3.02693 -1.32943 4.84847 0.5 0.5 0.5 1
-1.41563 -0.790721 1.73638 0.5 0.5 0.5 1
-1.41562 0.790724 1.73638 0.5 0.5 0.5 1
-3.55674 1.44244 5.43528 0.5 0.5 0.5 1
-3.55674 -1.44244 5.43528 0.5 0.5 0.5 1
0.864347 1.2135 2.07043 0.5 0.5 0.5 1
0.864351 -1.21349 2.07043 0.5 0.5 0.5 1
5.8342 -1.27548 5.34079 0.5 0.5 0.5 1
5.8342 1.27548 5.34079 0.5 0.5 0.5 1
7.10893 -5.31588e-08 5.51022 0.5 0.5 0.5 1
6.43276 -0.543305 4.58673 0.5 0.5 0.5 1
6.43276 0.543305 4.58673 0.5 0.5 0.5 1
6.33555 -0.956947 4.94431 0.5 0.5 0.5 1
6.33555 0.956947 4.94431 0.5 0.5 0.5 1
-4.92147 1.2272 5.33542 0.5 0.5 0.5 1
-4.92147 -1.2272 5.33542 0.5 0.5 0.5 1
5.0919 -1.30015 5.29302 0.5 0.5 0.5 1
5.0919 1.30015 5.29302 0.5 0.5 0.5 1
-5.96911 3.47034e-11 5.57676 0.5 0.5 0.5 1
-4.19363 1.31104 5.2445 0.5 0.5 0.5 1
-4.19363 -1.31104 5.2445 0.5 0.5 0.5 1
0.147215 1.16775 1.84813 1 1 1 1
0.147216 -1.16774 1.84812 1 1 1 1
-1.0416 -1.72174 5.24321 0.5 0.5 0.5 1
1.12525 0.691565 1.8342 1 1 1 1
1.12525 -0.691563 1.8342 1 1 1 1
-5.37491 0.409196 4.72454 0.5 0.5 0.5 1
-5.37491 -0.409196 4.72454 0.5 0.5 0.5 1
-5.22478 0.951225 4.92492 0.5 0.5 0.5 1
-5.22478 -0.951225 4.92492 0.5 0.5 0.5 1
4.54638 -1.02923 4.87679 0.5 0.5 0.5 1
4.54638 1.02923 4.87679 0.5 0.5 0.5 1
4.54226 -0.361789 4.73729 0.5 0.5 0.5 1
4.54226 0.36179 4.73729 0.5 0.5 0.5 1

3 0 1 98
3 0 98 1
3 0 26 67
3 0 67 26
3 0 67 98
3 0 98 67
3 1 27 68
3 1 68 27
3 1 68 98
3 1 98 68
3 2 6 31
3 2 31 6
3 2 9 103
3 2 103 9
3 2 31 35
3 2 35 31
3 2 35 103
3 2 103 35
3 3 24 63
3 3 63 24
3 3 28 89
3 3 89 28
3 3 63 89
3 3 89 63
3 4 25 64
3 4 64 25
3 4 28 89
3 4 89 28
3 4 64 89
3 4 89 64
3 5 7 32
3 5 32 7
3 5 8 72
3 5 72 8
3 5 32 36
3 5 36 32
3 5 36 72
3 5 72 36
3 6 10 65
3 6 65 10
3 6 31 65
3 6 65 31
3 7 11 37
3 7 37 11
3 7 32 37
3 7 37 32
3 8 12 33
3 8 33 12
3 8 33 72
3 8 72 33
3 9 13 34
3 9 34 13
3 9 34 103
3 9 103 34
3 10 14 65
3 10 65 14
3 11 15 37
3 11 37 15
3 12 16 33
3 12 33 16
3 13 17 34
3 13 34 17
3 14 18 38
3 14 38 18
3 14 38 65
3 14 65 38
3 15 19 45
3 15 45 19
3 15 37 45
3 15 45 37
3 16 20 83
3 16 83 20
3 16 33 79
3 16 79 33
3 16 79 83
3 16 83 79
3 17 21 84
3 17 84 21
3 17 34 80
3 17 80 34
3 17 80 84
3 17 84 80
3 18 22 38
3 18 38 22
3 19 23 45
3 19 45 23
3 20 26 94
3 20 94 26
3 20 46 83
3 20 83 46
3 20 46 94
3 20 94 46
3 20 83 99
3 20 99 83
3 20 94 99
3 20 99 94
3 21 27 95
3 21 95 27
3 21 58 84
3 21 84 58
3 21 58 95
3 21 95 58
3 21 84 100
3 21 100 84
3 21 95 100
3 21 100 95
3 22 24 87
3 22 87 24
3 22 38 96
3 22 96 38
3 22 87 96
3 22 96 87
3 23 25 88
3 23 88 25
3 23 45 97
3 23 97 45
3 23 88 97
3 23 97 88
3 24 63 87
3 24 87 63
3 25 64 88
3 25 88 64
3 26 67 94
3 26 94 67
3 27 68 95
3 27 95 68
3 29 30 41
3 29 41 30
3 29 30 55
3 29 55 30
3 29 33 40
3 29 40 33
3 29 33 55
3 29 55 33
3 29 40 57
3 29 57 40
3 29 41 42
3 29 42 41
3 29 42 57
3 29 57 42
3 30 34 39
3 30 39 34
3 30 34 55
3 30 55 34
3 30 39 56
3 30 56 39
3 30 41 56
3 30 56 41
3 31 35 44
3 31 44 35
3 31 44 71
3 31 71 44
3 31 65 71
3 31 71 65
3 32 36 43
3 32 43 36
3 32 37 66
3 32 66 37
3 32 43 66
3 32 66 43
3 33 40 72
3 33 72 40
3 33 55 79
3 33 79 55
3 34 39 103
3 34 103 39
3 34 55 80
3 34 80 55
3 35 39 51
3 35 51 39
3 35 39 103
3 35 103 39
3 35 44 51
3 35 51 44
3 36 40 50
3 36 50 40
3 36 40 72
3 36 72 40
3 36 43 50
3 36 50 43
3 37 45 62
3 37 62 45
3 37 47 62
3 37 62 47
3 37 47 66
3 37 66 47
3 38 62 65
3 38 65 62
3 38 62 76
3 38 76 62
3 38 76 110
3 38 110 76
3 38 96 110
3 38 110 96
3 39 51 56
3 39 56 51
3 40 50 57
3 40 57 50
3 41 42 82
3 41 82 42
3 41 56 77
3 41 77 56
3 41 59 77
3 41 77 59
3 41 59 81
3 41 81 59
3 41 81 82
3 41 82 81
3 42 57 78
3 42 78 57
3 42 59 78
3 42 78 59
3 42 59 82
3 42 82 59
3 43 48 60
3 43 60 48
3 43 48 66
3 43 66 48
3 43 50 60
3 43 60 50
3 44 49 61
3 44 61 49
3 44 49 71
3 44 71 49
3 44 51 61
3 44 61 51
3 45 62 76
3 45 76 62
3 45 76 111
3 45 111 76
3 45 97 111
3 45 111 97
3 46 55 58
3 46 58 55
3 46 55 79
3 46 79 55
3 46 58 107
3 46 107 58
3 46 79 83
3 46 83 79
3 46 83 99
3 46 99 83
3 46 94 99
3 46 99 94
3 46 94 108
3 46 108 94
3 46 106 107
3 46 107 106
3 46 106 108
3 46 108 106
3 47 48 52
3 47 52 48
3 47 48 66
3 47 66 48
3 47 49 52
3 47 52 49
3 47 49 71
3 47 71 49
3 47 62 65
3 47 65 62
3 47 65 71
3 47 71 65
3 48 52 69
3 48 69 52
3 48 60 69
3 48 69 60
3 49 52 70
3 49 70 52
3 49 61 70
3 49 70 61
3 50 57 73
3 50 73 57
3 50 60 73
3 50 73 60
3 51 56 74
3 51 74 56
3 51 61 74
3 51 74 61
3 52 69 75
3 52 75 69
3 52 70 75
3 52 75 70
3 53 54 91
3 53 91 54
3 53 54 113
3 53 113 54
3 53 76 110
3 53 110 76
3 53 76 112
3 53 112 76
3 53 87 92
3 53 92 87
3 53 87 96
3 53 96 87
3 53 90 91
3 53 91 90
3 53 90 92
3 53 92 90
3 53 96 110
3 53 110 96
3 53 112 113
3 53 113 112
3 54 76 111
3 54 111 76
3 54 76 113
3 54 113 76
3 54 88 93
3 54 93 88
3 54 88 97
3 54 97 88
3 54 91 93
3 54 93 91
3 54 97 111
3 54 111 97
3 55 58 80
3 55 80 58
3 56 74 77
3 56 77 74
3 57 73 78
3 57 78 73
3 58 80 84
3 58 84 80
3 58 84 100
3 58 100 84
3 58 95 100
3 58 100 95
3 58 95 109
3 58 109 95
3 58 107 109
3 58 109 107
3 59 69 75
3 59 75 69
3 59 69 85
3 59 85 69
3 59 70 75
3 59 75 70
3 59 70 86
3 59 86 70
3 59 73 78
3 59 78 73
3 59 73 85
3 59 85 73
3 59 74 77
3 59 77 74
3 59 74 86
3 59 86 74
3 59 75 104
3 59 104 75
3 59 75 105
3 59 105 75
3 59 77 102
3 59 102 77
3 59 78 101
3 59 101 78
3 59 81 82
3 59 82 81
3 59 85 101
3 59 101 85
3 59 85 104
3 59 104 85
3 59 86 102
3 59 102 86
3 59 86 105
3 59 105 86
3 60 69 85
3 60 85 69
3 60 73 85
3 60 85 73
3 61 70 86
3 61 86 70
3 61 74 86
3 61 86 74
3 63 87 92
3 63 92 87
3 63 89 92
3 63 92 89
3 64 88 93
3 64 93 88
3 64 89 93
3 64 93 89
3 67 94 108
3 67 108 94
3 67 98 108
3 67 108 98
3 68 95 109
3 68 109 95
3 68 98 109
3 68 109 98
3 69 75 104
3 69 104 75
3 69 85 104
3 69 104 85
3 70 75 105
3 70 105 75
3 70 86 105
3 70 105 86
3 73 78 101
3 73 101 78
3 73 85 101
3 73 101 85
3 74 77 102
3 74 102 77
3 74 86 102
3 74 102 86
3 76 112 113
3 76 113 112
3 89 90 91
3 89 91 90
3 89 90 92
3 89 92 90
3 89 91 93
3 89 93 91
3 98 106 107
3 98 107 106
3 98 106 108
3 98 108 106
3 98 107 109
3 98 109 107
