COFF
125 456 125

-6.53553 1.05755 6.80238 0.5 0.5 0.5 1
-6.53553 -1.05755 6.80238 0.5 0.5 0.5 1
-0.0249311 -2.14838 6.44756 0.5 0.5 0.5 1
7.46364 -1.12606 6.73472 0.5 0.5 0.5 1
7.46364 1.12606 6.73472 0.5 0.5 0.5 1
-0.0249311 2.14838 6.44756 0.5 0.5 0.5 1
1.14566 -1.74602 6.67972 0.5 0.5 0.5 1
1.14566 1.74602 6.67972 0.5 0.5 0.5 1
-1.16867 1.8046 6.56933 0.5 0.5 0.5 1
-1.16867 -1.8046 6.56933 0.5 0.5 0.5 1
2.01945 -1.38135 7.00261 0.5 0.5 0.5 1
2.01945 1.38135 7.00261 0.5 0.5 0.5 1
-2.08257 1.50787 6.84642 0.5 0.5 0.5 1
-2.08257 -1.50787 6.84642 0.5 0.5 0.5 1
3.05369 -1.3255 6.98653 0.5 0.5 0.5 1
3.05369 1.3255 6.98653 0.5 0.5 0.5 1
-3.06049 1.56994 6.64838 0.5 0.5 0.5 1
-3.06049 -1.56994 6.64838 0.5 0.5 0.5 1
4.05245 -1.28249 6.99231 0.5 0.5 0.5 1
4.05245 1.28249 6.99231 0.5 0.5 0.5 1
-4.06921 1.55426 6.57866 0.5 0.5 0.5 1
-4.06921 -1.55426 6.57866 0.5 0.5 0.5 1
5.04905 -1.50214 6.63769 0.5 0.5 0.5 1
5.04905 1.50214 6.63769 0.5 0.5 0.5 1
6.11016 -1.43609 6.64355 0.5 0.5 0.5 1
6.11016 1.43609 6.64355 0.5 0.5 0.5 1
-5.10143 1.40689 6.66413 0.5 0.5 0.5 1
-5.10143 -1.40689 6.66413 0.5 0.5 0.5 1
8.59125 2.67186e-08 6.74563 0.5 0.5 0.5 1
-7.55383 -2.53694e-12 6.80617 0.5 0.5 0.5 1
-1.97452 -0.954126 4.29474 0.5 0.5 0.5 1
1.29624 -1.70589 5.50436 0.5 0.5 0.5 1
1.29624 1.70589 5.50436 0.5 0.5 0.5 1
-2.1767 1.47764 5.67325 0.5 0.5 0.5 1
-2.1767 -1.47764 5.67325 0.5 0.5 0.5 1
0.0207657 -1.86906 5.08866 0.5 0.5 0.5 1
0.0207927 1.86901 5.08866 0.5 0.5 0.5 1
2.55431 1.33872 5.79372 0.5 0.5 0.5 1
4.10005 -1.30131 6.02242 0.5 0.5 0.5 1
-0.91135 -1.73457 4.54924 0.5 0.5 0.5 1
-0.911349 1.73457 4.54924 0.5 0.5 0.5 1
-1.53799 -0.961318 2.86116 0.5 0.5 0.5 1
-1.53798 0.961321 2.86115 0.5 0.5 0.5 1
1.15634 1.66036 4.30315 0.5 0.5 0.5 1
1.15634 -1.66036 4.30315 0.5 0.5 0.5 1
4.10005 1.30131 6.02242 0.5 0.5 0.5 1
-4.38017 0.659633 4.06512 1 1 0 1
2.48158 3.94705e-07 4.69748 0.5 0.5 0.5 1
1.63284 1.25719 3.88078 0.5 0.5 0.5 1
1.63285 -1.25719 3.88078 0.5 0.5 0.5 1
0.108165 1.75449 3.98526 0.5 0.5 0.5 1
0.108155 -1.75454 3.98529 0.5 0.5 0.5 1
1.92291 3.8591e-07 3.5407 0.5 0.5 0.5 1
5.15707 -0.750869 3.94798 1 1 0 1
5.15707 0.75087 3.94798 1 1 0 1
-2.65885 2.23353e-07 4.5122 0.5 0.5 0.5 1
-0.698601 -1.56249 3.60001 0.5 0.5 0.5 1
-0.698599 1.56249 3.60001 0.5 0.5 0.5 1
-4.38017 -0.659633 4.06512 1 1 0 1
0.176456 8.60437e-07 1.02806 1 1 0 1
1.03713 1.53271 3.27289 0.5 0.5 0.5 1
1.03722 -1.53276 3.27289 0.5 0.5 0.5 1
3.17858 5.42927e-07 4.91303 0.5 0.5 0.5 1
6.76952 -1.2623 6.09846 0.5 0.5 0.5 1
6.76952 1.2623 6.09846 0.5 0.5 0.5 1
2.55431 -1.33872 5.79372 0.5 0.5 0.5 1
1.80127 1.51859 4.89796 0.5 0.5 0.5 1
-5.74944 1.24365 6.06223 0.5 0.5 0.5 1
-5.74944 -1.24365 6.06223 0.5 0.5 0.5 1
1.43585 1.07444 2.86991 0.5 0.5 0.5 1
1.43584 -1.07444 2.86991 0.5 0.5 0.5 1
1.80127 -1.51859 4.89796 0.5 0.5 0.5 1
-1.0323 1.77608 5.5565 0.5 0.5 0.5 1
0.22228 1.61246 2.95716 0.5 0.5 0.5 1
0.222395 -1.61274 2.95716 0.5 0.5 0.5 1
1.61289 9.57044e-07 2.61182 0.5 0.5 0.5 1
4.10651 4.03383e-06 5.89033 0.5 0.5 0.5 1
-0.452061 -1.42831 2.51963 0.5 0.5 0.5 1
-0.452044 1.42831 2.51964 0.5 0.5 0.5 1
-2.98363 1.45503 5.11039 0.5 0.5 0.5 1
-2.98363 -1.45503 5.11039 0.5 0.5 0.5 1
-1.55991 -0.603526 1.96257 0.5 0.5 0.5 1
-1.5599 0.60353 1.96257 0.5 0.5 0.5 1
-3.57609 1.55319 5.7173 0.5 0.5 0.5 1
-3.57609 -1.55319 5.7173 0.5 0.5 0.5 1
0.931822 1.34707 2.31023 1 1 1 1
0.931826 -1.34707 2.31023 1 1 1 1
5.90595 -1.34069 5.58644 0.5 0.5 0.5 1
5.90595 1.34069 5.58644 0.5 0.5 0.5 1
7.25203 2.0152e-07 5.80012 0.5 0.5 0.5 1
6.63246 -0.629418 4.77882 0.5 0.5 0.5 1
6.63246 0.629418 4.77882 0.5 0.5 0.5 1
6.49671 -0.974351 5.20397 0.5 0.5 0.5 1
6.49671 0.974351 5.20397 0.5 0.5 0.5 1
-4.99301 1.33615 5.59538 0.5 0.5 0.5 1
-4.99301 -1.33615 5.59538 0.5 0.5 0.5 1
5.14516 -1.37685 5.55259 0.5 0.5 0.5 1
5.14504 1.37704 5.55259 0.5 0.5 0.5 1
-6.16669 2.78871e-11 5.8376 0.5 0.5 0.5 1
-4.20171 1.45275 5.47533 0.5 0.5 0.5 1
-4.20171 -1.45275 5.47533 0.5 0.5 0.5 1
0.192075 1.36924 2.04784 1 1 1 1
0.192081 -1.36923 2.04781 1 1 1 1
-1.0323 -1.77608 5.5565 0.5 0.5 0.5 1
1.24877 0.823468 2.04432 1 1 1 1
1.24877 -0.823465 2.04433 1 1 1 1
-5.56329 0.539248 4.83044 0.5 0.5 0.5 1
-5.56329 -0.539248 4.83044 0.5 0.5 0.5 1
-5.44705 0.995254 5.20305 0.5 0.5 0.5 1
-5.44705 -0.995254 5.20305 0.5 0.5 0.5 1
4.56329 -1.06006 5.22153 0.5 0.5 0.5 1
4.56329 1.06006 5.22153 0.5 0.5 0.5 1
4.31313 -0.367154 4.77685 0.5 0.5 0.5 1
4.31313 0.367158 4.77685 0.5 0.5 0.5 1
-1.97452 0.954127 4.29474 0.5 0.5 0.5 1
-1.78139 2.98981e-06 2.88609 0.5 0.5 0.5 1
-0.323812 -0.973482 1.78883 1 1 1 1
-0.323808 0.973482 1.78885 1 1 1 1
1.16709 7.31094e-07 1.80765 1 1 1 1
-0.856898 -0.336296 1.45101 1 1 1 1
-0.856896 0.336301 1.45101 1 1 1 1
-3.94321 1.14434 4.87927 0.5 0.5 0.5 1
-3.94321 -1.14434 4.87927 0.5 0.5 0.5 1
0.560523 0.686243 1.6652 1 1 1 1
0.560525 -0.68624 1.66521 1 1 1 1

3 0 26 67
3 0 67 26
3 0 29 98
3 0 98 29
3 0 67 98
3 0 98 67
3 1 27 68
3 1 68 27
3 1 29 98
3 1 98 29
3 1 68 98
3 1 98 68
3 2 6 31
3 2 31 6
3 2 9 103
3 2 103 9
3 2 31 35
3 2 35 31
3 2 35 103
3 2 103 35
3 3 24 63
3 3 63 24
3 3 28 89
3 3 89 28
3 3 63 89
3 3 89 63
3 4 25 64
3 4 64 25
3 4 28 89
3 4 89 28
3 4 64 89
3 4 89 64
3 5 7 32
3 5 32 7
3 5 8 72
3 5 72 8
3 5 32 36
3 5 36 32
3 5 36 72
3 5 72 36
3 6 10 65
3 6 65 10
3 6 31 65
3 6 65 31
3 7 11 37
3 7 37 11
3 7 32 37
3 7 37 32
3 8 12 33
3 8 33 12
3 8 33 72
3 8 72 33
3 9 13 34
3 9 34 13
3 9 34 103
3 9 103 34
3 10 14 65
3 10 65 14
3 11 15 37
3 11 37 15
3 12 16 33
3 12 33 16
3 13 17 34
3 13 34 17
3 14 18 38
3 14 38 18
3 14 38 65
3 14 65 38
3 15 19 45
3 15 45 19
3 15 37 45
3 15 45 37
3 16 20 83
3 16 83 20
3 16 33 79
3 16 79 33
3 16 79 83
3 16 83 79
3 17 21 84
3 17 84 21
3 17 34 80
3 17 80 34
3 17 80 84
3 17 84 80
3 18 22 38
3 18 38 22
3 19 23 45
3 19 45 23
3 20 26 94
3 20 94 26
3 20 83 99
3 20 99 83
3 20 94 99
3 20 99 94
3 21 27 95
3 21 95 27
3 21 84 100
3 21 100 84
3 21 95 100
3 21 100 95
3 22 24 87
3 22 87 24
3 22 38 96
3 22 96 38
3 22 87 96
3 22 96 87
3 23 25 88
3 23 88 25
3 23 45 97
3 23 97 45
3 23 88 97
3 23 97 88
3 24 63 87
3 24 87 63
3 25 64 88
3 25 88 64
3 26 67 94
3 26 94 67
3 27 68 95
3 27 95 68
3 30 34 39
3 30 39 34
3 30 34 55
3 30 55 34
3 30 39 56
3 30 56 39
3 30 41 56
3 30 56 41
3 30 41 115
3 30 115 41
3 30 55 114
3 30 114 55
3 30 114 115
3 30 115 114
3 31 35 44
3 31 44 35
3 31 44 71
3 31 71 44
3 31 65 71
3 31 71 65
3 32 36 43
3 32 43 36
3 32 37 66
3 32 66 37
3 32 43 66
3 32 66 43
3 33 40 72
3 33 72 40
3 33 40 114
3 33 114 40
3 33 55 79
3 33 79 55
3 33 55 114
3 33 114 55
3 34 39 103
3 34 103 39
3 34 55 80
3 34 80 55
3 35 39 51
3 35 51 39
3 35 39 103
3 35 103 39
3 35 44 51
3 35 51 44
3 36 40 50
3 36 50 40
3 36 40 72
3 36 72 40
3 36 43 50
3 36 50 43
3 37 45 62
3 37 62 45
3 37 47 62
3 37 62 47
3 37 47 66
3 37 66 47
3 38 62 65
3 38 65 62
3 38 62 76
3 38 76 62
3 38 76 110
3 38 110 76
3 38 96 110
3 38 110 96
3 39 51 56
3 39 56 51
3 40 50 57
3 40 57 50
3 40 57 114
3 40 114 57
3 41 56 77
3 41 77 56
3 41 77 116
3 41 116 77
3 41 81 115
3 41 115 81
3 41 81 116
3 41 116 81
3 42 57 78
3 42 78 57
3 42 57 114
3 42 114 57
3 42 78 117
3 42 117 78
3 42 82 115
3 42 115 82
3 42 82 117
3 42 117 82
3 42 114 115
3 42 115 114
3 43 48 60
3 43 60 48
3 43 48 66
3 43 66 48
3 43 50 60
3 43 60 50
3 44 49 61
3 44 61 49
3 44 49 71
3 44 71 49
3 44 51 61
3 44 61 51
3 45 62 76
3 45 76 62
3 45 76 111
3 45 111 76
3 45 97 111
3 45 111 97
3 46 55 58
3 46 58 55
3 46 55 79
3 46 79 55
3 46 58 107
3 46 107 58
3 46 79 83
3 46 83 79
3 46 79 121
3 46 121 79
3 46 83 99
3 46 99 83
3 46 94 99
3 46 99 94
3 46 94 108
3 46 108 94
3 46 99 121
3 46 121 99
3 46 106 107
3 46 107 106
3 46 106 108
3 46 108 106
3 47 48 52
3 47 52 48
3 47 48 66
3 47 66 48
3 47 49 52
3 47 52 49
3 47 49 71
3 47 71 49
3 47 62 65
3 47 65 62
3 47 65 71
3 47 71 65
3 48 52 69
3 48 69 52
3 48 60 69
3 48 69 60
3 49 52 70
3 49 70 52
3 49 61 70
3 49 70 61
3 50 57 73
3 50 73 57
3 50 60 73
3 50 73 60
3 51 56 74
3 51 74 56
3 51 61 74
3 51 74 61
3 52 69 75
3 52 75 69
3 52 70 75
3 52 75 70
3 53 54 91
3 53 91 54
3 53 54 113
3 53 113 54
3 53 76 110
3 53 110 76
3 53 76 112
3 53 112 76
3 53 87 92
3 53 92 87
3 53 87 96
3 53 96 87
3 53 90 91
3 53 91 90
3 53 90 92
3 53 92 90
3 53 96 110
3 53 110 96
3 53 112 113
3 53 113 112
3 54 76 111
3 54 111 76
3 54 76 113
3 54 113 76
3 54 88 93
3 54 93 88
3 54 88 97
3 54 97 88
3 54 91 93
3 54 93 91
3 54 97 111
3 54 111 97
3 55 58 80
3 55 80 58
3 56 74 77
3 56 77 74
3 57 73 78
3 57 78 73
3 58 80 84
3 58 84 80
3 58 80 122
3 58 122 80
3 58 84 100
3 58 100 84
3 58 95 100
3 58 100 95
3 58 95 109
3 58 109 95
3 58 100 122
3 58 122 100
3 58 107 109
3 58 109 107
3 59 75 104
3 59 104 75
3 59 75 105
3 59 105 75
3 59 81 116
3 59 116 81
3 59 81 119
3 59 119 81
3 59 82 117
3 59 117 82
3 59 82 120
3 59 120 82
3 59 85 101
3 59 101 85
3 59 85 104
3 59 104 85
3 59 86 102
3 59 102 86
3 59 86 105
3 59 105 86
3 59 101 117
3 59 117 101
3 59 101 123
3 59 123 101
3 59 102 116
3 59 116 102
3 59 102 124
3 59 124 102
3 59 104 118
3 59 118 104
3 59 104 123
3 59 123 104
3 59 105 118
3 59 118 105
3 59 105 124
3 59 124 105
3 59 119 120
3 59 120 119
3 60 69 85
3 60 85 69
3 60 73 85
3 60 85 73
3 61 70 86
3 61 86 70
3 61 74 86
3 61 86 74
3 63 87 92
3 63 92 87
3 63 89 92
3 63 92 89
3 64 88 93
3 64 93 88
3 64 89 93
3 64 93 89
3 67 94 108
3 67 108 94
3 67 98 108
3 67 108 98
3 68 95 109
3 68 109 95
3 68 98 109
3 68 109 98
3 69 75 104
3 69 104 75
3 69 85 104
3 69 104 85
3 70 75 105
3 70 105 75
3 70 86 105
3 70 105 86
3 73 78 101
3 73 101 78
3 73 85 101
3 73 101 85
3 74 77 102
3 74 102 77
3 74 86 102
3 74 102 86
3 75 104 118
3 75 118 104
3 75 105 118
3 75 118 105
3 76 112 113
3 76 113 112
3 77 102 116
3 77 116 102
3 78 101 117
3 78 117 101
3 79 83 121
3 79 121 83
3 80 84 122
3 80 122 84
3 81 82 115
3 81 115 82
3 81 82 120
3 81 120 82
3 81 119 120
3 81 120 119
3 83 99 121
3 83 121 99
3 84 100 122
3 84 122 100
3 85 101 123
3 85 123 101
3 85 104 123
3 85 123 104
3 86 102 124
3 86 124 102
3 86 105 124
3 86 124 105
3 89 90 91
3 89 91 90
3 89 90 92
3 89 92 90
3 89 91 93
3 89 93 91
3 98 106 107
3 98 107 106
3 98 106 108
3 98 108 106
3 98 107 109
3 98 109 107
