COFF
137 520 137

-6.56866 1.11618 7.1386 0.5 0.5 0.5 1
-6.56866 -1.11618 7.1386 0.5 0.5 0.5 1
-0.0238986 -2.19651 6.79636 0.5 0.5 0.5 1
7.49345 -1.17965 7.07546 0.5 0.5 0.5 1
7.49345 1.17965 7.07546 0.5 0.5 0.5 1
-0.0238986 2.19651 6.79636 0.5 0.5 0.5 1
1.15995 -1.78748 7.03619 0.5 0.5 0.5 1
1.15995 1.78748 7.03619 0.5 0.5 0.5 1
-1.17834 1.85661 6.91399 0.5 0.5 0.5 1
-1.17834 -1.85661 6.91399 0.5 0.5 0.5 1
2.02991 -1.42132 7.36763 0.5 0.5 0.5 1
2.02991 1.42132 7.36763 0.5 0.5 0.5 1
-2.09187 1.56204 7.19462 0.5 0.5 0.5 1
-2.09187 -1.56204 7.19462 0.5 0.5 0.5 1
3.05222 -1.37741 7.33993 0.5 0.5 0.5 1
3.05222 1.37741 7.33993 0.5 0.5 0.5 1
-3.06105 1.65027 6.96593 0.5 0.5 0.5 1
-3.06105 -1.65027 6.96593 0.5 0.5 0.5 1
4.05111 -1.33719 7.34233 0.5 0.5 0.5 1
4.05111 1.33719 7.34233 0.5 0.5 0.5 1
-4.07641 1.64462 6.88492 0.5 0.5 0.5 1
-4.07641 -1.64462 6.88492 0.5 0.5 0.5 1
5.0427 -1.57984 6.95752 0.5 0.5 0.5 1
5.0427 1.57984 6.95752 0.5 0.5 0.5 1
6.12061 -1.50622 6.97124 0.5 0.5 0.5 1
6.12061 1.50622 6.97124 0.5 0.5 0.5 1
-5.11644 1.48237 6.98657 0.5 0.5 0.5 1
-5.11644 -1.48237 6.98657 0.5 0.5 0.5 1
8.67488 -4.79493e-09 7.0926 0.5 0.5 0.5 1
-7.68587 -2.10564e-08 7.14808 0.5 0.5 0.5 1
-1.96379 -0.958004 4.57182 0.5 0.5 0.5 1
1.31441 -1.74923 5.83853 0.5 0.5 0.5 1
1.31441 1.74923 5.83853 0.5 0.5 0.5 1
-2.15664 1.54633 6.02034 0.5 0.5 0.5 1
-2.15664 -1.54633 6.02034 0.5 0.5 0.5 1
0.0199603 -1.9168 5.40212 0.5 0.5 0.5 1
0.020033 1.9167 5.40212 0.5 0.5 0.5 1
2.57306 1.38265 6.13367 0.5 0.5 0.5 1
4.09955 -1.34975 6.32967 0.5 0.5 0.5 1
-0.895963 -1.78523 4.86386 0.5 0.5 0.5 1
-0.895963 1.78523 4.86386 0.5 0.5 0.5 1
-1.53189 -0.891856 3.1225 0.5 0.5 0.5 1
-1.53188 0.891857 3.12248 0.5 0.5 0.5 1
1.17673 1.70574 4.61841 0.5 0.5 0.5 1
1.17673 -1.70574 4.61841 0.5 0.5 0.5 1
4.09955 1.34975 6.32967 0.5 0.5 0.5 1
-4.37747 0.659775 4.06512 1 1 0 1
2.52237 3.17548e-07 5.00618 0.5 0.5 0.5 1
1.66069 1.29296 4.17788 0.5 0.5 0.5 1
1.66069 -1.29296 4.17788 0.5 0.5 0.5 1
0.116361 1.80183 4.26854 0.5 0.5 0.5 1
0.116271 -1.80198 4.26856 0.5 0.5 0.5 1
1.9551 -3.75491e-07 3.8095 0.5 0.5 0.5 1
5.20015 -0.750818 3.94798 1 1 0 1
5.20014 0.750819 3.94798 1 1 0 1
-2.57005 2.74629e-07 4.79813 0.5 0.5 0.5 1
-0.725345 -1.58582 3.81505 0.5 0.5 0.5 1
-0.725347 1.58582 3.81505 0.5 0.5 0.5 1
-4.37747 -0.659775 4.06512 1 1 0 1
0.190436 1.02888e-06 1.02806 1 1 0 1
1.05216 1.5757 3.55849 0.5 0.5 0.5 1
1.05206 -1.57578 3.55849 0.5 0.5 0.5 1
3.17125 2.65115e-07 5.21291 0.5 0.5 0.5 1
6.78778 -1.31971 6.43283 0.5 0.5 0.5 1
6.78778 1.31971 6.43283 0.5 0.5 0.5 1
2.57306 -1.38265 6.13367 0.5 0.5 0.5 1
1.82296 1.55995 5.21086 0.5 0.5 0.5 1
-5.77197 1.30083 6.38779 0.5 0.5 0.5 1
-5.77197 -1.30083 6.38779 0.5 0.5 0.5 1
1.46066 1.10564 3.13427 0.5 0.5 0.5 1
1.46051 -1.10553 3.13427 0.5 0.5 0.5 1
1.82296 -1.55995 5.21086 0.5 0.5 0.5 1
-1.01312 1.8319 5.86586 0.5 0.5 0.5 1
0.206597 1.65089 3.21112 0.5 0.5 0.5 1
0.206397 -1.65101 3.21112 0.5 0.5 0.5 1
1.63998 -1.48769e-05 2.84078 0.5 0.5 0.5 1
4.10592 3.5127e-06 6.18327 0.5 0.5 0.5 1
-0.496716 -1.43555 2.73406 1 1 1 1
-0.496704 1.43556 2.73408 1 1 1 1
-2.91429 1.58944 5.3919 0.5 0.5 0.5 1
-2.91429 -1.58944 5.3919 0.5 0.5 0.5 1
-1.68629 -0.506356 2.2402 1 1 1 1
-1.68629 0.50636 2.2402 1 1 1 1
-3.59147 1.64701 6.02165 0.5 0.5 0.5 1
-3.59147 -1.64701 6.02165 0.5 0.5 0.5 1
0.941953 1.42191 2.56282 1 1 1 1
0.94201 -1.42198 2.56282 1 1 1 1
5.96709 -1.41026 5.85649 0.5 0.5 0.5 1
5.96709 1.41026 5.85649 0.5 0.5 0.5 1
7.3442 -4.50977e-08 6.09931 0.5 0.5 0.5 1
6.783 -0.696933 4.99658 0.5 0.5 0.5 1
6.783 0.696933 4.99658 0.5 0.5 0.5 1
6.57069 -1.04225 5.45479 0.5 0.5 0.5 1
6.57069 1.04225 5.45479 0.5 0.5 0.5 1
-5.05602 1.41806 5.864 0.5 0.5 0.5 1
-5.05602 -1.41806 5.864 0.5 0.5 0.5 1
5.16757 -1.44196 5.79039 0.5 0.5 0.5 1
5.16752 1.4417 5.79039 0.5 0.5 0.5 1
-6.31158 -7.7072e-08 6.12263 0.5 0.5 0.5 1
-4.19626 1.56207 5.71895 0.5 0.5 0.5 1
-4.19626 -1.56207 5.71895 0.5 0.5 0.5 1
0.232241 1.47573 2.25228 1 1 1 1
0.232238 -1.47572 2.25225 1 1 1 1
-1.01312 -1.8319 5.86586 0.5 0.5 0.5 1
1.28167 0.918386 2.2497 1 1 1 1
1.28167 -0.918385 2.2497 1 1 1 1
-5.73839 0.648646 5.02536 0.5 0.5 0.5 1
-5.73839 -0.648646 5.02536 0.5 0.5 0.5 1
-5.56945 1.04381 5.46001 0.5 0.5 0.5 1
-5.56945 -1.04381 5.46001 0.5 0.5 0.5 1
4.54498 -1.05827 5.55635 0.5 0.5 0.5 1
4.54517 1.05797 5.55635 0.5 0.5 0.5 1
4.22355 -0.368913 4.86328 0.5 0.5 0.5 1
4.22355 0.368918 4.86328 0.5 0.5 0.5 1
-1.96379 0.958006 4.57182 0.5 0.5 0.5 1
-1.96382 1.53486e-06 3.17757 0.5 0.5 0.5 1
-0.571833 -1.13851 2.03834 1 1 1 1
-0.571827 1.13852 2.03836 1 1 1 1
1.41092 -4.36734e-05 2.02847 1 1 1 1
-1.19957 -0.381249 1.47183 1 1 1 1
-1.19957 0.381255 1.47183 1 1 1 1
-3.84103 1.36538 4.99839 0.5 0.5 0.5 1
-3.84103 -1.36538 4.99839 0.5 0.5 0.5 1
0.718131 1.01862 1.77371 1 1 1 1
0.71813 -1.01862 1.77371 1 1 1 1
-3.49738 1.17676 4.70962 0.5 0.5 0.5 1
-3.49738 -1.17676 4.70962 0.5 0.5 0.5 1
5.69717 -1.16218 4.92721 0.5 0.5 0.5 1
5.69717 1.16218 4.92721 0.5 0.5 0.5 1
5.9635 -0.92472 4.68975 0.5 0.5 0.5 1
5.96349 0.92472 4.68975 0.5 0.5 0.5 1
-3.37653 0.323449 4.39498 0.5 0.5 0.5 1
-3.37653 -0.323449 4.39498 0.5 0.5 0.5 1
-4.77772 1.08859 4.97403 0.5 0.5 0.5 1
-4.77772 -1.08859 4.97403 0.5 0.5 0.5 1
-2.35158 0.799452 5.3699 0.5 0.5 0.5 1
-2.35158 -0.799451 5.36991 0.5 0.5 0.5 1

3 0 26 67
3 0 67 26
3 0 29 98
3 0 98 29
3 0 67 98
3 0 98 67
3 1 27 68
3 1 68 27
3 1 29 98
3 1 98 29
3 1 68 98
3 1 98 68
3 2 6 31
3 2 31 6
3 2 9 103
3 2 103 9
3 2 31 35
3 2 35 31
3 2 35 103
3 2 103 35
3 3 24 63
3 3 63 24
3 3 28 89
3 3 89 28
3 3 63 89
3 3 89 63
3 4 25 64
3 4 64 25
3 4 28 89
3 4 89 28
3 4 64 89
3 4 89 64
3 5 7 32
3 5 32 7
3 5 8 72
3 5 72 8
3 5 32 36
3 5 36 32
3 5 36 72
3 5 72 36
3 6 10 65
3 6 65 10
3 6 31 65
3 6 65 31
3 7 11 37
3 7 37 11
3 7 32 37
3 7 37 32
3 8 12 33
3 8 33 12
3 8 33 72
3 8 72 33
3 9 13 34
3 9 34 13
3 9 34 103
3 9 103 34
3 10 14 65
3 10 65 14
3 11 15 37
3 11 37 15
3 12 16 33
3 12 33 16
3 13 17 34
3 13 34 17
3 14 18 38
3 14 38 18
3 14 38 65
3 14 65 38
3 15 19 45
3 15 45 19
3 15 37 45
3 15 45 37
3 16 20 83
3 16 83 20
3 16 33 79
3 16 79 33
3 16 79 83
3 16 83 79
3 17 21 84
3 17 84 21
3 17 34 80
3 17 80 34
3 17 80 84
3 17 84 80
3 18 22 38
3 18 38 22
3 19 23 45
3 19 45 23
3 20 26 94
3 20 94 26
3 20 83 99
3 20 99 83
3 20 94 99
3 20 99 94
3 21 27 95
3 21 95 27
3 21 84 100
3 21 100 84
3 21 95 100
3 21 100 95
3 22 24 87
3 22 87 24
3 22 38 96
3 22 96 38
3 22 87 96
3 22 96 87
3 23 25 88
3 23 88 25
3 23 45 97
3 23 97 45
3 23 88 97
3 23 97 88
3 24 63 87
3 24 87 63
3 25 64 88
3 25 88 64
3 26 67 94
3 26 94 67
3 27 68 95
3 27 95 68
3 30 34 39
3 30 39 34
3 30 34 80
3 30 80 34
3 30 34 136
3 30 136 34
3 30 39 56
3 30 56 39
3 30 41 56
3 30 56 41
3 30 41 115
3 30 115 41
3 30 55 80
3 30 80 55
3 30 55 114
3 30 114 55
3 30 55 136
3 30 136 55
3 30 114 115
3 30 115 114
3 31 35 44
3 31 44 35
3 31 44 71
3 31 71 44
3 31 65 71
3 31 71 65
3 32 36 43
3 32 43 36
3 32 37 66
3 32 66 37
3 32 43 66
3 32 66 43
3 33 40 72
3 33 72 40
3 33 40 114
3 33 114 40
3 33 55 79
3 33 79 55
3 33 55 114
3 33 114 55
3 33 79 135
3 33 135 79
3 33 114 135
3 33 135 114
3 34 39 103
3 34 103 39
3 34 80 136
3 34 136 80
3 35 39 51
3 35 51 39
3 35 39 103
3 35 103 39
3 35 44 51
3 35 51 44
3 36 40 50
3 36 50 40
3 36 40 72
3 36 72 40
3 36 43 50
3 36 50 43
3 37 45 62
3 37 62 45
3 37 47 62
3 37 62 47
3 37 47 66
3 37 66 47
3 38 62 65
3 38 65 62
3 38 62 76
3 38 76 62
3 38 76 110
3 38 110 76
3 38 96 110
3 38 110 96
3 39 51 56
3 39 56 51
3 40 50 57
3 40 57 50
3 40 57 114
3 40 114 57
3 41 56 77
3 41 77 56
3 41 77 116
3 41 116 77
3 41 81 115
3 41 115 81
3 41 81 116
3 41 116 81
3 42 57 78
3 42 78 57
3 42 57 114
3 42 114 57
3 42 78 117
3 42 117 78
3 42 82 115
3 42 115 82
3 42 82 117
3 42 117 82
3 42 114 115
3 42 115 114
3 43 48 60
3 43 60 48
3 43 48 66
3 43 66 48
3 43 50 60
3 43 60 50
3 44 49 61
3 44 61 49
3 44 49 71
3 44 71 49
3 44 51 61
3 44 61 51
3 45 62 76
3 45 76 62
3 45 76 111
3 45 111 76
3 45 97 111
3 45 111 97
3 46 55 125
3 46 125 55
3 46 55 131
3 46 131 55
3 46 58 107
3 46 107 58
3 46 58 132
3 46 132 58
3 46 94 99
3 46 99 94
3 46 94 108
3 46 108 94
3 46 99 121
3 46 121 99
3 46 99 133
3 46 133 99
3 46 106 107
3 46 107 106
3 46 106 108
3 46 108 106
3 46 108 133
3 46 133 108
3 46 121 125
3 46 125 121
3 46 131 132
3 46 132 131
3 47 48 52
3 47 52 48
3 47 48 66
3 47 66 48
3 47 49 52
3 47 52 49
3 47 49 71
3 47 71 49
3 47 62 65
3 47 65 62
3 47 65 71
3 47 71 65
3 48 52 69
3 48 69 52
3 48 60 69
3 48 69 60
3 49 52 70
3 49 70 52
3 49 61 70
3 49 70 61
3 50 57 73
3 50 73 57
3 50 60 73
3 50 73 60
3 51 56 74
3 51 74 56
3 51 61 74
3 51 74 61
3 52 69 75
3 52 75 69
3 52 70 75
3 52 75 70
3 53 54 91
3 53 91 54
3 53 54 113
3 53 113 54
3 53 76 110
3 53 110 76
3 53 76 112
3 53 112 76
3 53 90 91
3 53 91 90
3 53 90 92
3 53 92 90
3 53 90 129
3 53 129 90
3 53 92 127
3 53 127 92
3 53 96 110
3 53 110 96
3 53 96 127
3 53 127 96
3 53 112 113
3 53 113 112
3 53 127 129
3 53 129 127
3 54 76 111
3 54 111 76
3 54 76 113
3 54 113 76
3 54 91 93
3 54 93 91
3 54 91 130
3 54 130 91
3 54 93 128
3 54 128 93
3 54 97 111
3 54 111 97
3 54 97 128
3 54 128 97
3 54 128 130
3 54 130 128
3 55 58 126
3 55 126 58
3 55 58 132
3 55 132 58
3 55 79 125
3 55 125 79
3 55 79 135
3 55 135 79
3 55 80 126
3 55 126 80
3 55 80 136
3 55 136 80
3 55 114 135
3 55 135 114
3 55 131 132
3 55 132 131
3 56 74 77
3 56 77 74
3 57 73 78
3 57 78 73
3 58 95 100
3 58 100 95
3 58 95 109
3 58 109 95
3 58 100 122
3 58 122 100
3 58 100 134
3 58 134 100
3 58 107 109
3 58 109 107
3 58 109 134
3 58 134 109
3 58 122 126
3 58 126 122
3 59 75 104
3 59 104 75
3 59 75 105
3 59 105 75
3 59 81 116
3 59 116 81
3 59 81 119
3 59 119 81
3 59 82 117
3 59 117 82
3 59 82 120
3 59 120 82
3 59 85 101
3 59 101 85
3 59 85 104
3 59 104 85
3 59 86 102
3 59 102 86
3 59 86 105
3 59 105 86
3 59 101 117
3 59 117 101
3 59 101 123
3 59 123 101
3 59 102 116
3 59 116 102
3 59 102 124
3 59 124 102
3 59 104 118
3 59 118 104
3 59 104 123
3 59 123 104
3 59 105 118
3 59 118 105
3 59 105 124
3 59 124 105
3 59 119 120
3 59 120 119
3 60 69 85
3 60 85 69
3 60 73 85
3 60 85 73
3 61 70 86
3 61 86 70
3 61 74 86
3 61 86 74
3 63 87 92
3 63 92 87
3 63 89 92
3 63 92 89
3 64 88 93
3 64 93 88
3 64 89 93
3 64 93 89
3 67 94 108
3 67 108 94
3 67 98 108
3 67 108 98
3 68 95 109
3 68 109 95
3 68 98 109
3 68 109 98
3 69 75 104
3 69 104 75
3 69 85 104
3 69 104 85
3 70 75 105
3 70 105 75
3 70 86 105
3 70 105 86
3 73 78 101
3 73 101 78
3 73 85 101
3 73 101 85
3 74 77 102
3 74 102 77
3 74 86 102
3 74 102 86
3 75 104 118
3 75 118 104
3 75 105 118
3 75 118 105
3 76 112 113
3 76 113 112
3 77 102 116
3 77 116 102
3 78 101 117
3 78 117 101
3 79 83 121
3 79 121 83
3 79 121 125
3 79 125 121
3 80 84 122
3 80 122 84
3 80 122 126
3 80 126 122
3 81 82 115
3 81 115 82
3 81 82 120
3 81 120 82
3 81 119 120
3 81 120 119
3 83 99 121
3 83 121 99
3 84 100 122
3 84 122 100
3 85 101 123
3 85 123 101
3 85 104 123
3 85 123 104
3 86 102 124
3 86 124 102
3 86 105 124
3 86 124 105
3 87 92 127
3 87 127 92
3 87 96 127
3 87 127 96
3 88 93 128
3 88 128 93
3 88 97 128
3 88 128 97
3 89 90 91
3 89 91 90
3 89 90 92
3 89 92 90
3 89 91 93
3 89 93 91
3 90 92 129
3 90 129 92
3 91 93 130
3 91 130 93
3 92 127 129
3 92 129 127
3 93 128 130
3 93 130 128
3 94 99 133
3 94 133 99
3 94 108 133
3 94 133 108
3 95 100 134
3 95 134 100
3 95 109 134
3 95 134 109
3 98 106 107
3 98 107 106
3 98 106 108
3 98 108 106
3 98 107 109
3 98 109 107
