COFF
153 596 153

-6.59977 1.17077 7.47766 0.5 0.5 0.5 1
-6.59977 -1.17077 7.47766 0.5 0.5 0.5 1
-0.0227331 -2.24328 7.14529 0.5 0.5 0.5 1
7.52219 -1.23085 7.41727 0.5 0.5 0.5 1
7.52219 1.23085 7.41727 0.5 0.5 0.5 1
-0.0227331 2.24328 7.14529 0.5 0.5 0.5 1
1.17392 -1.8277 7.39283 0.5 0.5 0.5 1
1.17392 1.8277 7.39283 0.5 0.5 0.5 1
-1.18758 1.90615 7.25991 0.5 0.5 0.5 1
-1.18758 -1.90615 7.25991 0.5 0.5 0.5 1
2.03989 -1.46006 7.73295 0.5 0.5 0.5 1
2.03989 1.46006 7.73295 0.5 0.5 0.5 1
-2.10008 1.61265 7.54507 0.5 0.5 0.5 1
-2.10008 -1.61265 7.54507 0.5 0.5 0.5 1
3.05034 -1.42754 7.69383 0.5 0.5 0.5 1
3.05034 1.42754 7.69383 0.5 0.5 0.5 1
-3.06003 1.72335 7.28875 0.5 0.5 0.5 1
-3.06003 -1.72335 7.28875 0.5 0.5 0.5 1
4.04932 -1.3897 7.69311 0.5 0.5 0.5 1
4.04932 1.3897 7.69311 0.5 0.5 0.5 1
-4.08312 1.72765 7.19626 0.5 0.5 0.5 1
-4.08312 -1.72765 7.19626 0.5 0.5 0.5 1
5.03619 -1.6525 7.28039 0.5 0.5 0.5 1
5.03619 1.6525 7.28039 0.5 0.5 0.5 1
6.13063 -1.57048 7.30302 0.5 0.5 0.5 1
6.13063 1.57048 7.30302 0.5 0.5 0.5 1
-5.13092 1.5515 7.31341 0.5 0.5 0.5 1
-5.13092 -1.5515 7.31341 0.5 0.5 0.5 1
8.75358 -0.000103918 7.44016 0.5 0.5 0.5 1
-7.7715 1.36823e-08 7.49308 0.5 0.5 0.5 1
-2.01909 -0.96743 4.83519 0.5 0.5 0.5 1
1.3317 -1.78953 6.17252 0.5 0.5 0.5 1
1.3317 1.78953 6.17251 0.5 0.5 0.5 1
-2.16274 1.62369 6.35001 0.5 0.5 0.5 1
-2.16274 -1.62369 6.35001 0.5 0.5 0.5 1
0.0164708 -1.96191 5.71655 0.5 0.5 0.5 1
0.0164247 1.96182 5.71654 0.5 0.5 0.5 1
2.59267 1.42126 6.4695 0.5 0.5 0.5 1
4.10495 -1.40735 6.64526 0.5 0.5 0.5 1
-0.893663 -1.83543 5.1769 0.5 0.5 0.5 1
-0.893661 1.83543 5.17689 0.5 0.5 0.5 1
-1.57077 -0.875615 3.39322 0.5 0.5 0.5 1
-1.57077 0.875619 3.39322 0.5 0.5 0.5 1
1.19463 1.74765 4.9343 0.5 0.5 0.5 1
1.19462 -1.74765 4.93429 0.5 0.5 0.5 1
4.10495 1.40735 6.64526 0.5 0.5 0.5 1
-4.37828 0.65989 4.06512 1 1 0 1
2.55308 7.7481e-08 5.31596 0.5 0.5 0.5 1
1.6837 1.32456 4.47566 0.5 0.5 0.5 1
1.6837 -1.32456 4.47566 0.5 0.5 0.5 1
0.119128 1.84753 4.55366 0.5 0.5 0.5 1
0.119143 -1.8474 4.55368 0.5 0.5 0.5 1
1.98072 1.41471e-07 4.08097 0.5 0.5 0.5 1
5.22488 -0.750938 3.94798 1 1 0 1
5.22488 0.750937 3.94798 1 1 0 1
-2.56285 7.01942e-08 5.14054 0.5 0.5 0.5 1
-0.79067 -1.6152 4.08458 0.5 0.5 0.5 1
-0.790654 1.61521 4.08457 0.5 0.5 0.5 1
-4.37828 -0.65989 4.06512 1 1 0 1
0.180053 1.19365e-06 1.02806 1 1 0 1
1.06341 1.61546 3.84523 0.5 0.5 0.5 1
1.06342 -1.61539 3.84524 0.5 0.5 0.5 1
3.15558 -8.16186e-08 5.50709 0.5 0.5 0.5 1
6.81351 -1.37079 6.77754 0.5 0.5 0.5 1
6.81351 1.37079 6.77753 0.5 0.5 0.5 1
2.59267 -1.42126 6.4695 0.5 0.5 0.5 1
1.84274 1.59816 5.52379 0.5 0.5 0.5 1
-5.79605 1.35598 6.71336 0.5 0.5 0.5 1
-5.79605 -1.35598 6.71336 0.5 0.5 0.5 1
1.48193 1.12786 3.40064 0.5 0.5 0.5 1
1.48192 -1.12784 3.40064 0.5 0.5 0.5 1
1.84275 -1.59816 5.5238 0.5 0.5 0.5 1
-1.01476 1.8824 6.17727 0.5 0.5 0.5 1
0.194588 1.69009 3.46652 0.5 0.5 0.5 1
0.194596 -1.68996 3.46652 0.5 0.5 0.5 1
1.66137 1.63431e-05 3.0731 1 1 1 1
4.10705 1.02994e-06 6.45993 0.5 0.5 0.5 1
-0.5609 -1.43588 2.96096 1 1 1 1
-0.560895 1.43589 2.96098 1 1 1 1
-2.96648 1.68759 5.78134 0.5 0.5 0.5 1
-2.96648 -1.68759 5.78134 0.5 0.5 0.5 1
-1.78295 -0.461535 2.50526 1 1 1 1
-1.78294 0.461541 2.50525 1 1 1 1
-3.59666 1.72525 6.29969 0.5 0.5 0.5 1
-3.59666 -1.72526 6.29969 0.5 0.5 0.5 1
0.94644 1.45553 2.81759 1 1 1 1
0.946426 -1.45547 2.81759 1 1 1 1
6.01788 -1.47748 6.16995 0.5 0.5 0.5 1
6.01788 1.47748 6.16995 0.5 0.5 0.5 1
7.40837 6.16218e-08 6.40381 0.5 0.5 0.5 1
6.87541 -0.71726 5.29542 0.5 0.5 0.5 1
6.87541 0.717265 5.29542 0.5 0.5 0.5 1
6.60955 -1.09163 5.7494 0.5 0.5 0.5 1
6.60958 1.09179 5.74939 0.5 0.5 0.5 1
-5.10364 1.49373 6.16325 0.5 0.5 0.5 1
-5.10364 -1.49373 6.16325 0.5 0.5 0.5 1
5.18189 -1.50739 6.0505 0.5 0.5 0.5 1
5.18186 1.50735 6.0505 0.5 0.5 0.5 1
-6.4046 7.03013e-08 6.41724 0.5 0.5 0.5 1
-4.1981 1.65179 5.96793 0.5 0.5 0.5 1
-4.1981 -1.65179 5.96793 0.5 0.5 0.5 1
0.240055 1.51926 2.4746 1 1 1 1
0.240023 -1.51903 2.47457 1 1 1 1
-1.01476 -1.8824 6.17727 0.5 0.5 0.5 1
1.29541 0.982376 2.47226 1 1 1 1
1.29542 -0.982375 2.47226 1 1 1 1
-5.87128 0.730457 5.26 0.5 0.5 0.5 1
-5.87128 -0.730457 5.26 0.5 0.5 0.5 1
-5.63256 1.10503 5.7088 0.5 0.5 0.5 1
-5.63256 -1.10503 5.7088 0.5 0.5 0.5 1
4.56643 -1.11026 5.81476 0.5 0.5 0.5 1
4.56619 1.11054 5.81474 0.5 0.5 0.5 1
4.18234 -0.367488 4.96285 0.5 0.5 0.5 1
4.18233 0.367485 4.96285 0.5 0.5 0.5 1
-2.0191 0.967427 4.83519 0.5 0.5 0.5 1
-2.03167 2.39647e-06 3.48257 0.5 0.5 0.5 1
-0.710955 -1.14892 2.25854 1 1 1 1
-0.710946 1.14892 2.25855 1 1 1 1
1.4303 -1.35097e-05 2.2335 1 1 1 1
-1.46237 -0.404892 1.57316 1 1 1 1
-1.46237 0.404898 1.57316 1 1 1 1
-3.75624 1.52438 5.1311 0.5 0.5 0.5 1
-3.75624 -1.52438 5.1311 0.5 0.5 0.5 1
0.789927 1.21519 1.96469 1 1 1 1
0.789923 -1.21519 1.96469 1 1 1 1
-3.30608 1.28049 4.91571 0.5 0.5 0.5 1
-3.30608 -1.28049 4.91571 0.5 0.5 0.5 1
5.82437 -1.33106 5.21203 0.5 0.5 0.5 1
5.82435 1.33105 5.21205 0.5 0.5 0.5 1
6.20832 -1.24767 5.00843 0.5 0.5 0.5 1
6.20831 1.24767 5.00843 0.5 0.5 0.5 1
-3.05238 0.324203 4.40111 0.5 0.5 0.5 1
-3.05238 -0.324203 4.40111 0.5 0.5 0.5 1
-4.93698 1.29572 5.19638 0.5 0.5 0.5 1
-4.93698 -1.29572 5.19638 0.5 0.5 0.5 1
-2.33352 1.03414 5.43697 0.5 0.5 0.5 1
-2.33352 -1.03414 5.43697 0.5 0.5 0.5 1
5.21647 -1.27127 5.08096 0.5 0.5 0.5 1
5.21643 1.27122 5.08096 0.5 0.5 0.5 1
6.2892 -0.728273 4.53127 0.5 0.5 0.5 1
6.28921 0.728278 4.53127 0.5 0.5 0.5 1
-4.28988 1.34967 5.03112 0.5 0.5 0.5 1
-4.28988 -1.34967 5.03112 0.5 0.5 0.5 1
3.62722 -0.777067 6.1024 0.5 0.5 0.5 1
3.62722 0.777068 6.1024 0.5 0.5 0.5 1
0.140034 0.985299 1.7239 1 1 1 1
0.140032 -0.985295 1.72388 1 1 1 1
-5.16971 0.936679 4.85214 0.5 0.5 0.5 1
-5.16971 -0.936679 4.85214 0.5 0.5 0.5 1
0.909756 0.536074 1.73526 1 1 1 1
0.909754 -0.536071 1.73527 1 1 1 1
4.87781 -0.92536 4.88112 0.5 0.5 0.5 1
4.87768 0.92541 4.88111 0.5 0.5 0.5 1

3 0 26 67
3 0 67 26
3 0 29 98
3 0 98 29
3 0 67 98
3 0 98 67
3 1 27 68
3 1 68 27
3 1 29 98
3 1 98 29
3 1 68 98
3 1 98 68
3 2 6 31
3 2 31 6
3 2 9 103
3 2 103 9
3 2 31 35
3 2 35 31
3 2 35 103
3 2 103 35
3 3 24 63
3 3 63 24
3 3 28 89
3 3 89 28
3 3 63 89
3 3 89 63
3 4 25 64
3 4 64 25
3 4 28 89
3 4 89 28
3 4 64 89
3 4 89 64
3 5 7 32
3 5 32 7
3 5 8 72
3 5 72 8
3 5 32 36
3 5 36 32
3 5 36 72
3 5 72 36
3 6 10 65
3 6 65 10
3 6 31 65
3 6 65 31
3 7 11 37
3 7 37 11
3 7 32 37
3 7 37 32
3 8 12 33
3 8 33 12
3 8 33 72
3 8 72 33
3 9 13 34
3 9 34 13
3 9 34 103
3 9 103 34
3 10 14 65
3 10 65 14
3 11 15 37
3 11 37 15
3 12 16 33
3 12 33 16
3 13 17 34
3 13 34 17
3 14 18 38
3 14 38 18
3 14 38 65
3 14 65 38
3 15 19 45
3 15 45 19
3 15 37 45
3 15 45 37
3 16 20 83
3 16 83 20
3 16 33 79
3 16 79 33
3 16 79 83
3 16 83 79
3 17 21 84
3 17 84 21
3 17 34 80
3 17 80 34
3 17 80 84
3 17 84 80
3 18 22 38
3 18 38 22
3 19 23 45
3 19 45 23
3 20 26 94
3 20 94 26
3 20 83 99
3 20 99 83
3 20 94 99
3 20 99 94
3 21 27 95
3 21 95 27
3 21 84 100
3 21 100 84
3 21 95 100
3 21 100 95
3 22 24 87
3 22 87 24
3 22 38 96
3 22 96 38
3 22 87 96
3 22 96 87
3 23 25 88
3 23 88 25
3 23 45 97
3 23 97 45
3 23 88 97
3 23 97 88
3 24 63 87
3 24 87 63
3 25 64 88
3 25 88 64
3 26 67 94
3 26 94 67
3 27 68 95
3 27 95 68
3 30 34 39
3 30 39 34
3 30 34 80
3 30 80 34
3 30 34 136
3 30 136 34
3 30 39 56
3 30 56 39
3 30 41 56
3 30 56 41
3 30 41 115
3 30 115 41
3 30 55 80
3 30 80 55
3 30 55 114
3 30 114 55
3 30 55 136
3 30 136 55
3 30 114 115
3 30 115 114
3 31 35 44
3 31 44 35
3 31 44 71
3 31 71 44
3 31 65 71
3 31 71 65
3 32 36 43
3 32 43 36
3 32 37 66
3 32 66 37
3 32 43 66
3 32 66 43
3 33 40 72
3 33 72 40
3 33 40 114
3 33 114 40
3 33 55 79
3 33 79 55
3 33 55 114
3 33 114 55
3 33 79 135
3 33 135 79
3 33 114 135
3 33 135 114
3 34 39 103
3 34 103 39
3 34 80 136
3 34 136 80
3 35 39 51
3 35 51 39
3 35 39 103
3 35 103 39
3 35 44 51
3 35 51 44
3 36 40 50
3 36 50 40
3 36 40 72
3 36 72 40
3 36 43 50
3 36 50 43
3 37 45 76
3 37 76 45
3 37 45 144
3 37 144 45
3 37 47 62
3 37 62 47
3 37 47 66
3 37 66 47
3 37 62 76
3 37 76 62
3 37 62 144
3 37 144 62
3 38 62 65
3 38 65 62
3 38 62 76
3 38 76 62
3 38 65 143
3 38 143 65
3 38 76 110
3 38 110 76
3 38 76 143
3 38 143 76
3 38 96 110
3 38 110 96
3 39 51 56
3 39 56 51
3 40 50 57
3 40 57 50
3 40 57 114
3 40 114 57
3 41 56 77
3 41 77 56
3 41 77 116
3 41 116 77
3 41 81 115
3 41 115 81
3 41 81 116
3 41 116 81
3 42 57 78
3 42 78 57
3 42 57 114
3 42 114 57
3 42 78 117
3 42 117 78
3 42 82 115
3 42 115 82
3 42 82 117
3 42 117 82
3 42 114 115
3 42 115 114
3 43 48 60
3 43 60 48
3 43 48 66
3 43 66 48
3 43 50 60
3 43 60 50
3 44 49 61
3 44 61 49
3 44 49 71
3 44 71 49
3 44 51 61
3 44 61 51
3 45 76 111
3 45 111 76
3 45 76 144
3 45 144 76
3 45 97 111
3 45 111 97
3 46 55 125
3 46 125 55
3 46 55 131
3 46 131 55
3 46 58 107
3 46 107 58
3 46 58 132
3 46 132 58
3 46 99 121
3 46 121 99
3 46 99 133
3 46 133 99
3 46 106 107
3 46 107 106
3 46 106 108
3 46 108 106
3 46 106 147
3 46 147 106
3 46 108 133
3 46 133 108
3 46 121 125
3 46 125 121
3 46 121 141
3 46 141 121
3 46 131 132
3 46 132 131
3 46 133 141
3 46 141 133
3 46 133 147
3 46 147 133
3 47 48 52
3 47 52 48
3 47 48 66
3 47 66 48
3 47 49 52
3 47 52 49
3 47 49 71
3 47 71 49
3 47 62 65
3 47 65 62
3 47 65 71
3 47 71 65
3 48 52 69
3 48 69 52
3 48 60 69
3 48 69 60
3 49 52 70
3 49 70 52
3 49 61 70
3 49 70 61
3 50 57 73
3 50 73 57
3 50 60 73
3 50 73 60
3 51 56 74
3 51 74 56
3 51 61 74
3 51 74 61
3 52 69 75
3 52 75 69
3 52 70 75
3 52 75 70
3 53 54 113
3 53 113 54
3 53 54 140
3 53 140 54
3 53 90 129
3 53 129 90
3 53 90 139
3 53 139 90
3 53 112 113
3 53 113 112
3 53 112 151
3 53 151 112
3 53 127 129
3 53 129 127
3 53 127 137
3 53 137 127
3 53 137 151
3 53 151 137
3 53 139 140
3 53 140 139
3 54 91 130
3 54 130 91
3 54 91 140
3 54 140 91
3 54 113 152
3 54 152 113
3 54 128 130
3 54 130 128
3 54 128 138
3 54 138 128
3 54 138 152
3 54 152 138
3 55 58 126
3 55 126 58
3 55 58 132
3 55 132 58
3 55 79 125
3 55 125 79
3 55 79 135
3 55 135 79
3 55 80 126
3 55 126 80
3 55 80 136
3 55 136 80
3 55 114 135
3 55 135 114
3 55 131 132
3 55 132 131
3 56 74 77
3 56 77 74
3 57 73 78
3 57 78 73
3 58 100 122
3 58 122 100
3 58 100 134
3 58 134 100
3 58 107 109
3 58 109 107
3 58 107 148
3 58 148 107
3 58 109 134
3 58 134 109
3 58 122 126
3 58 126 122
3 58 122 142
3 58 142 122
3 58 134 142
3 58 142 134
3 58 134 148
3 58 148 134
3 59 81 116
3 59 116 81
3 59 81 119
3 59 119 81
3 59 82 117
3 59 117 82
3 59 82 120
3 59 120 82
3 59 101 117
3 59 117 101
3 59 101 123
3 59 123 101
3 59 102 116
3 59 116 102
3 59 102 124
3 59 124 102
3 59 104 118
3 59 118 104
3 59 104 123
3 59 123 104
3 59 105 118
3 59 118 105
3 59 105 124
3 59 124 105
3 59 116 146
3 59 146 116
3 59 117 145
3 59 145 117
3 59 118 149
3 59 149 118
3 59 118 150
3 59 150 118
3 59 119 120
3 59 120 119
3 59 123 145
3 59 145 123
3 59 123 149
3 59 149 123
3 59 124 146
3 59 146 124
3 59 124 150
3 59 150 124
3 60 69 85
3 60 85 69
3 60 73 85
3 60 85 73
3 61 70 86
3 61 86 70
3 61 74 86
3 61 86 74
3 62 65 143
3 62 143 65
3 62 76 143
3 62 143 76
3 62 76 144
3 62 144 76
3 63 87 92
3 63 92 87
3 63 89 92
3 63 92 89
3 64 88 93
3 64 93 88
3 64 89 93
3 64 93 89
3 67 94 108
3 67 108 94
3 67 98 108
3 67 108 98
3 68 95 109
3 68 109 95
3 68 98 109
3 68 109 98
3 69 75 104
3 69 104 75
3 69 85 104
3 69 104 85
3 70 75 105
3 70 105 75
3 70 86 105
3 70 105 86
3 73 78 101
3 73 101 78
3 73 85 101
3 73 101 85
3 74 77 102
3 74 102 77
3 74 86 102
3 74 102 86
3 75 104 118
3 75 118 104
3 75 105 118
3 75 118 105
3 76 110 151
3 76 151 110
3 76 111 152
3 76 152 111
3 76 112 113
3 76 113 112
3 76 112 151
3 76 151 112
3 76 113 152
3 76 152 113
3 77 102 116
3 77 116 102
3 78 101 117
3 78 117 101
3 79 83 121
3 79 121 83
3 79 121 125
3 79 125 121
3 80 84 122
3 80 122 84
3 80 122 126
3 80 126 122
3 81 82 115
3 81 115 82
3 81 82 120
3 81 120 82
3 81 119 120
3 81 120 119
3 83 99 121
3 83 121 99
3 84 100 122
3 84 122 100
3 85 101 123
3 85 123 101
3 85 104 123
3 85 123 104
3 86 102 124
3 86 124 102
3 86 105 124
3 86 124 105
3 87 92 127
3 87 127 92
3 87 96 127
3 87 127 96
3 88 93 128
3 88 128 93
3 88 97 128
3 88 128 97
3 89 90 91
3 89 91 90
3 89 90 92
3 89 92 90
3 89 91 93
3 89 93 91
3 90 91 140
3 90 140 91
3 90 92 129
3 90 129 92
3 90 139 140
3 90 140 139
3 91 93 130
3 91 130 93
3 92 127 129
3 92 129 127
3 93 128 130
3 93 130 128
3 94 99 133
3 94 133 99
3 94 108 133
3 94 133 108
3 95 100 134
3 95 134 100
3 95 109 134
3 95 134 109
3 96 110 137
3 96 137 110
3 96 127 137
3 96 137 127
3 97 111 138
3 97 138 111
3 97 128 138
3 97 138 128
3 98 106 107
3 98 107 106
3 98 106 108
3 98 108 106
3 98 107 109
3 98 109 107
3 99 121 141
3 99 141 121
3 99 133 141
3 99 141 133
3 100 122 142
3 100 142 122
3 100 134 142
3 100 142 134
3 101 117 145
3 101 145 117
3 101 123 145
3 101 145 123
3 102 116 146
3 102 146 116
3 102 124 146
3 102 146 124
3 104 118 149
3 104 149 118
3 104 123 149
3 104 149 123
3 105 118 150
3 105 150 118
3 105 124 150
3 105 150 124
3 106 108 147
3 106 147 108
3 107 109 148
3 107 148 109
3 108 133 147
3 108 147 133
3 109 134 148
3 109 148 134
3 110 137 151
3 110 151 137
3 111 138 152
3 111 152 138
