COFF
158 604 158

-6.62901 1.22174 7.81922 0.5 0.5 0.5 1
-6.62901 -1.22174 7.81922 0.5 0.5 0.5 1
-0.0212337 -2.30434 7.4787 0.5 0.5 0.5 1
7.54895 -1.27824 7.7619 0.5 0.5 0.5 1
7.54895 1.27824 7.7619 0.5 0.5 0.5 1
-0.0212337 2.30434 7.4787 0.5 0.5 0.5 1
1.19722 -1.88848 7.72612 0.5 0.5 0.5 1
1.19722 1.88848 7.72612 0.5 0.5 0.5 1
-1.19712 1.9544 7.60589 0.5 0.5 0.5 1
-1.19712 -1.9544 7.60589 0.5 0.5 0.5 1
2.0498 -1.50318 8.0928 0.5 0.5 0.5 1
2.0498 1.50318 8.0928 0.5 0.5 0.5 1
-2.10736 1.66005 7.89744 0.5 0.5 0.5 1
-2.10736 -1.66005 7.89744 0.5 0.5 0.5 1
3.04824 -1.47818 8.04599 0.5 0.5 0.5 1
3.04824 1.47818 8.04599 0.5 0.5 0.5 1
-3.0576 1.79067 7.61554 0.5 0.5 0.5 1
-3.0576 -1.79067 7.61554 0.5 0.5 0.5 1
4.04721 -1.44004 8.04469 0.5 0.5 0.5 1
4.04721 1.44004 8.04469 0.5 0.5 0.5 1
-4.08925 1.80231 7.5139 0.5 0.5 0.5 1
-4.08925 -1.80231 7.5139 0.5 0.5 0.5 1
5.02983 -1.71909 7.60751 0.5 0.5 0.5 1
5.02983 1.71909 7.60751 0.5 0.5 0.5 1
6.14009 -1.62893 7.63901 0.5 0.5 0.5 1
6.14009 1.62893 7.63901 0.5 0.5 0.5 1
-5.14453 1.61392 7.64525 0.5 0.5 0.5 1
-5.14453 -1.61392 7.64525 0.5 0.5 0.5 1
8.82715 1.97904e-08 7.78988 0.5 0.5 0.5 1
-7.85215 -8.92588e-10 7.83994 0.5 0.5 0.5 1
-2.03196 -1.06129 5.10933 0.5 0.5 0.5 1
1.30937 -1.7981 6.21125 1 1 0 1
1.30937 1.7981 6.21125 1 1 0 1
-2.17326 1.69456 6.66732 0.5 0.5 0.5 1
-2.17326 -1.69456 6.66731 0.5 0.5 0.5 1
0.0685287 -1.99464 6.01312 0.5 0.5 0.5 1
0.0685301 1.99464 6.01312 0.5 0.5 0.5 1
2.59271 1.47946 6.79869 0.5 0.5 0.5 1
4.11181 -1.46704 6.96636 0.5 0.5 0.5 1
-0.890686 -1.88466 5.48672 0.5 0.5 0.5 1
-0.890683 1.88466 5.48672 0.5 0.5 0.5 1
-1.60611 -0.872017 3.65255 0.5 0.5 0.5 1
-1.60611 0.87202 3.65256 0.5 0.5 0.5 1
1.1976 1.78335 5.21423 0.5 0.5 0.5 1
1.19745 -1.78343 5.21423 0.5 0.5 0.5 1
4.11181 1.46704 6.96636 0.5 0.5 0.5 1
-4.3628 0.660352 4.06512 1 1 0 1
2.57657 -6.90316e-08 5.62232 0.5 0.5 0.5 1
1.68608 1.3569 4.77046 0.5 0.5 0.5 1
1.68608 -1.3569 4.77046 0.5 0.5 0.5 1
0.166447 1.88487 4.83725 0.5 0.5 0.5 1
0.166422 -1.88486 4.83726 0.5 0.5 0.5 1
1.99034 7.63166e-08 4.35388 0.5 0.5 0.5 1
5.25828 -0.751 3.94798 1 1 0 1
5.25827 0.750999 3.94798 1 1 0 1
-2.61062 -3.14596e-05 5.37781 0.5 0.5 0.5 1
-0.790892 -1.66745 4.34461 0.5 0.5 0.5 1
-0.79088 1.66745 4.34461 0.5 0.5 0.5 1
-4.3628 -0.660352 4.06512 1 1 0 1
0.163976 9.79752e-07 1.02806 1 1 0 1
1.07105 1.6529 4.13054 0.5 0.5 0.5 1
1.07107 -1.65296 4.13055 0.5 0.5 0.5 1
3.1273 -2.29486e-07 5.78592 0.5 0.5 0.5 1
6.82838 -1.41936 7.11766 0.5 0.5 0.5 1
6.82838 1.41936 7.11766 0.5 0.5 0.5 1
2.59271 -1.47946 6.79869 0.5 0.5 0.5 1
1.81482 1.63619 5.8348 0.5 0.5 0.5 1
-5.81166 1.40829 7.03351 0.5 0.5 0.5 1
-5.81166 -1.40829 7.03351 0.5 0.5 0.5 1
1.48914 1.15285 3.66949 1 1 1 1
1.48914 -1.15286 3.66949 1 1 1 1
1.81483 -1.63619 5.8348 0.5 0.5 0.5 1
-1.02216 1.93356 6.4878 0.5 0.5 0.5 1
0.220319 1.73111 3.72335 1 1 1 1
0.220275 -1.73115 3.72335 1 1 1 1
1.6687 -1.02029e-07 3.30999 1 1 1 1
4.14186 1.75725e-06 6.67003 0.5 0.5 0.5 1
-0.616957 -1.4504 3.1937 1 1 1 1
-0.616948 1.4504 3.19372 1 1 1 1
-2.99964 1.76102 6.13251 0.5 0.5 0.5 1
-2.9995 -1.76098 6.13251 0.5 0.5 0.5 1
-1.82792 -0.460585 2.76247 1 1 1 1
-1.82797 0.460444 2.76244 1 1 1 1
-3.60014 1.79648 6.58392 0.5 0.5 0.5 1
-3.60015 -1.79664 6.58392 0.5 0.5 0.5 1
0.952749 1.49093 3.07448 1 1 1 1
0.952714 -1.49098 3.07448 1 1 1 1
6.05022 -1.53646 6.48809 0.5 0.5 0.5 1
6.05022 1.53646 6.48809 0.5 0.5 0.5 1
7.45305 2.07435e-07 6.71898 0.5 0.5 0.5 1
6.9336 -0.71023 5.60221 0.5 0.5 0.5 1
6.93359 0.710235 5.60221 0.5 0.5 0.5 1
6.62988 -1.14226 6.07756 0.5 0.5 0.5 1
6.62988 1.14226 6.07755 0.5 0.5 0.5 1
-5.13826 1.55823 6.46269 0.5 0.5 0.5 1
-5.13826 -1.55823 6.46269 0.5 0.5 0.5 1
5.1905 -1.56795 6.33151 0.5 0.5 0.5 1
5.19048 1.56789 6.33151 0.5 0.5 0.5 1
-6.46619 1.1413e-07 6.72031 0.5 0.5 0.5 1
-4.21526 1.72091 6.22218 0.5 0.5 0.5 1
-4.21535 -1.72075 6.22218 0.5 0.5 0.5 1
0.241456 1.55045 2.7089 1 1 1 1
0.241393 -1.55049 2.7089 1 1 1 1
-1.02216 -1.93355 6.4878 0.5 0.5 0.5 1
1.29535 1.01813 2.70609 1 1 1 1
1.29545 -1.01807 2.70609 1 1 1 1
-5.92865 0.749505 5.57492 0.5 0.5 0.5 1
-5.92865 -0.749503 5.57492 0.5 0.5 0.5 1
-5.66107 1.15678 5.99652 0.5 0.5 0.5 1
-5.66099 -1.15671 5.99652 0.5 0.5 0.5 1
4.58802 -1.14792 6.06625 0.5 0.5 0.5 1
4.58816 1.14794 6.06623 0.5 0.5 0.5 1
4.06784 -0.367571 5.11167 0.5 0.5 0.5 1
4.06784 0.367557 5.11167 0.5 0.5 0.5 1
-2.03196 1.06129 5.10932 0.5 0.5 0.5 1
-2.07643 7.74476e-05 3.75882 0.5 0.5 0.5 1
-0.777915 -1.16571 2.47953 1 1 1 1
-0.777903 1.16571 2.47953 1 1 1 1
1.43195 4.86137e-05 2.41232 1 1 1 1
-1.54777 -0.416988 1.67926 1 1 1 1
-1.54776 0.417018 1.67923 1 1 1 1
-3.66515 1.65499 5.33963 0.5 0.5 0.5 1
-3.66515 -1.65499 5.33963 0.5 0.5 0.5 1
0.834172 1.31905 2.17201 1 1 1 1
0.83416 -1.31905 2.17201 1 1 1 1
-3.30628 1.38228 5.12095 0.5 0.5 0.5 1
-3.30639 -1.38233 5.12095 0.5 0.5 0.5 1
5.91369 -1.40391 5.45949 0.5 0.5 0.5 1
5.91367 1.4039 5.45951 0.5 0.5 0.5 1
6.28478 -1.22568 5.2531 0.5 0.5 0.5 1
6.28476 1.22568 5.25311 0.5 0.5 0.5 1
-2.89642 0.325018 4.49135 0.5 0.5 0.5 1
-2.89642 -0.325018 4.49135 0.5 0.5 0.5 1
-5.02988 1.4466 5.47608 0.5 0.5 0.5 1
-5.02988 -1.4466 5.47608 0.5 0.5 0.5 1
-2.35164 1.25572 5.61181 0.5 0.5 0.5 1
-2.35164 -1.25572 5.61181 0.5 0.5 0.5 1
5.2767 -1.34903 5.30312 0.5 0.5 0.5 1
5.27667 1.34902 5.30311 0.5 0.5 0.5 1
6.66838 -0.733094 4.54695 0.5 0.5 0.5 1
6.66839 0.733107 4.54695 0.5 0.5 0.5 1
-4.25199 1.58545 5.26838 0.5 0.5 0.5 1
-4.25199 -1.58545 5.26838 0.5 0.5 0.5 1
3.65784 -0.887116 6.43089 0.5 0.5 0.5 1
3.65785 0.887117 6.43089 0.5 0.5 0.5 1
0.139704 1.25316 1.8986 1 1 1 1
0.139683 -1.25315 1.89859 1 1 1 1
-5.4178 1.26601 5.15719 0.5 0.5 0.5 1
-5.4178 -1.26601 5.15719 0.5 0.5 0.5 1
1.12079 0.726308 1.90712 1 1 1 1
1.12079 -0.726307 1.90712 1 1 1 1
4.76289 -0.927946 5.06591 0.5 0.5 0.5 1
4.76284 0.927958 5.06591 0.5 0.5 0.5 1
-5.30406 0.699153 4.71523 0.5 0.5 0.5 1
-5.30406 -0.699153 4.71523 0.5 0.5 0.5 1
-2.14361 -8.65584e-08 5.04844 0.5 0.5 0.5 1
-0.295517 -0.717921 1.73397 1 1 1 1
-0.295509 0.717937 1.73399 1 1 1 1

3 0 26 67
3 0 67 26
3 0 29 98
3 0 98 29
3 0 67 98
3 0 98 67
3 1 27 68
3 1 68 27
3 1 29 98
3 1 98 29
3 1 68 98
3 1 98 68
3 2 6 31
3 2 31 6
3 2 9 103
3 2 103 9
3 2 31 35
3 2 35 31
3 2 35 103
3 2 103 35
3 3 24 63
3 3 63 24
3 3 28 89
3 3 89 28
3 3 63 89
3 3 89 63
3 4 25 64
3 4 64 25
3 4 28 89
3 4 89 28
3 4 64 89
3 4 89 64
3 5 7 32
3 5 32 7
3 5 8 72
3 5 72 8
3 5 32 36
3 5 36 32
3 5 36 72
3 5 72 36
3 6 10 65
3 6 65 10
3 6 31 65
3 6 65 31
3 7 11 37
3 7 37 11
3 7 32 37
3 7 37 32
3 8 12 33
3 8 33 12
3 8 33 72
3 8 72 33
3 9 13 34
3 9 34 13
3 9 34 103
3 9 103 34
3 10 14 65
3 10 65 14
3 11 15 37
3 11 37 15
3 12 16 33
3 12 33 16
3 13 17 34
3 13 34 17
3 14 18 38
3 14 38 18
3 14 38 65
3 14 65 38
3 15 19 45
3 15 45 19
3 15 37 45
3 15 45 37
3 16 20 83
3 16 83 20
3 16 33 79
3 16 79 33
3 16 79 83
3 16 83 79
3 17 21 84
3 17 84 21
3 17 34 80
3 17 80 34
3 17 80 84
3 17 84 80
3 18 22 38
3 18 38 22
3 19 23 45
3 19 45 23
3 20 26 94
3 20 94 26
3 20 83 99
3 20 99 83
3 20 94 99
3 20 99 94
3 21 27 95
3 21 95 27
3 21 84 100
3 21 100 84
3 21 95 100
3 21 100 95
3 22 24 87
3 22 87 24
3 22 38 96
3 22 96 38
3 22 87 96
3 22 96 87
3 23 25 88
3 23 88 25
3 23 45 97
3 23 97 45
3 23 88 97
3 23 97 88
3 24 63 87
3 24 87 63
3 25 64 88
3 25 88 64
3 26 67 94
3 26 94 67
3 27 68 95
3 27 95 68
3 30 34 39
3 30 39 34
3 30 34 80
3 30 80 34
3 30 34 136
3 30 136 34
3 30 39 56
3 30 56 39
3 30 41 56
3 30 56 41
3 30 41 115
3 30 115 41
3 30 55 80
3 30 80 55
3 30 55 114
3 30 114 55
3 30 55 136
3 30 136 55
3 30 55 155
3 30 155 55
3 30 114 115
3 30 115 114
3 30 115 155
3 30 155 115
3 31 35 44
3 31 44 35
3 31 44 71
3 31 71 44
3 31 65 71
3 31 71 65
3 32 36 43
3 32 43 36
3 32 37 66
3 32 66 37
3 32 43 66
3 32 66 43
3 33 40 72
3 33 72 40
3 33 40 114
3 33 114 40
3 33 55 79
3 33 79 55
3 33 55 114
3 33 114 55
3 33 79 135
3 33 135 79
3 33 114 135
3 33 135 114
3 34 39 103
3 34 103 39
3 34 80 136
3 34 136 80
3 35 39 51
3 35 51 39
3 35 39 103
3 35 103 39
3 35 44 51
3 35 51 44
3 36 40 50
3 36 50 40
3 36 40 72
3 36 72 40
3 36 43 50
3 36 50 43
3 37 45 76
3 37 76 45
3 37 45 144
3 37 144 45
3 37 47 62
3 37 62 47
3 37 47 66
3 37 66 47
3 37 62 76
3 37 76 62
3 37 62 144
3 37 144 62
3 38 62 65
3 38 65 62
3 38 62 76
3 38 76 62
3 38 65 143
3 38 143 65
3 38 76 110
3 38 110 76
3 38 76 143
3 38 143 76
3 38 96 110
3 38 110 96
3 39 51 56
3 39 56 51
3 40 50 57
3 40 57 50
3 40 57 114
3 40 114 57
3 41 56 77
3 41 77 56
3 41 77 116
3 41 116 77
3 41 81 115
3 41 115 81
3 41 81 116
3 41 116 81
3 42 57 78
3 42 78 57
3 42 57 114
3 42 114 57
3 42 78 117
3 42 117 78
3 42 82 115
3 42 115 82
3 42 82 117
3 42 117 82
3 42 114 115
3 42 115 114
3 43 48 60
3 43 60 48
3 43 48 66
3 43 66 48
3 43 50 60
3 43 60 50
3 44 49 61
3 44 61 49
3 44 49 71
3 44 71 49
3 44 51 61
3 44 61 51
3 45 76 111
3 45 111 76
3 45 76 144
3 45 144 76
3 45 97 111
3 45 111 97
3 46 55 125
3 46 125 55
3 46 55 131
3 46 131 55
3 46 58 132
3 46 132 58
3 46 58 154
3 46 154 58
3 46 99 121
3 46 121 99
3 46 99 133
3 46 133 99
3 46 106 147
3 46 147 106
3 46 106 153
3 46 153 106
3 46 121 125
3 46 125 121
3 46 121 141
3 46 141 121
3 46 131 132
3 46 132 131
3 46 133 141
3 46 141 133
3 46 133 147
3 46 147 133
3 46 153 154
3 46 154 153
3 47 48 52
3 47 52 48
3 47 48 66
3 47 66 48
3 47 49 52
3 47 52 49
3 47 49 71
3 47 71 49
3 47 62 65
3 47 65 62
3 47 65 71
3 47 71 65
3 48 52 69
3 48 69 52
3 48 60 69
3 48 69 60
3 49 52 70
3 49 70 52
3 49 61 70
3 49 70 61
3 50 57 73
3 50 73 57
3 50 60 73
3 50 73 60
3 51 56 74
3 51 74 56
3 51 61 74
3 51 74 61
3 52 69 75
3 52 75 69
3 52 70 75
3 52 75 70
3 53 54 113
3 53 113 54
3 53 54 140
3 53 140 54
3 53 90 129
3 53 129 90
3 53 90 139
3 53 139 90
3 53 112 113
3 53 113 112
3 53 112 151
3 53 151 112
3 53 127 129
3 53 129 127
3 53 127 137
3 53 137 127
3 53 137 151
3 53 151 137
3 53 139 140
3 53 140 139
3 54 91 130
3 54 130 91
3 54 91 140
3 54 140 91
3 54 113 152
3 54 152 113
3 54 128 130
3 54 130 128
3 54 128 138
3 54 138 128
3 54 138 152
3 54 152 138
3 55 58 126
3 55 126 58
3 55 58 132
3 55 132 58
3 55 79 125
3 55 125 79
3 55 79 135
3 55 135 79
3 55 80 126
3 55 126 80
3 55 80 136
3 55 136 80
3 55 114 135
3 55 135 114
3 55 114 155
3 55 155 114
3 55 131 132
3 55 132 131
3 56 74 77
3 56 77 74
3 57 73 78
3 57 78 73
3 58 100 122
3 58 122 100
3 58 100 134
3 58 134 100
3 58 107 148
3 58 148 107
3 58 107 154
3 58 154 107
3 58 122 126
3 58 126 122
3 58 122 142
3 58 142 122
3 58 134 142
3 58 142 134
3 58 134 148
3 58 148 134
3 59 104 118
3 59 118 104
3 59 104 123
3 59 123 104
3 59 105 118
3 59 118 105
3 59 105 124
3 59 124 105
3 59 118 149
3 59 149 118
3 59 118 150
3 59 150 118
3 59 119 120
3 59 120 119
3 59 119 156
3 59 156 119
3 59 120 157
3 59 157 120
3 59 123 145
3 59 145 123
3 59 123 149
3 59 149 123
3 59 124 146
3 59 146 124
3 59 124 150
3 59 150 124
3 59 145 157
3 59 157 145
3 59 146 156
3 59 156 146
3 60 69 85
3 60 85 69
3 60 73 85
3 60 85 73
3 61 70 86
3 61 86 70
3 61 74 86
3 61 86 74
3 62 65 143
3 62 143 65
3 62 76 143
3 62 143 76
3 62 76 144
3 62 144 76
3 63 87 92
3 63 92 87
3 63 89 92
3 63 92 89
3 64 88 93
3 64 93 88
3 64 89 93
3 64 93 89
3 67 94 108
3 67 108 94
3 67 98 108
3 67 108 98
3 68 95 109
3 68 109 95
3 68 98 109
3 68 109 98
3 69 75 104
3 69 104 75
3 69 85 104
3 69 104 85
3 70 75 105
3 70 105 75
3 70 86 105
3 70 105 86
3 73 78 101
3 73 101 78
3 73 85 101
3 73 101 85
3 74 77 102
3 74 102 77
3 74 86 102
3 74 102 86
3 75 104 118
3 75 118 104
3 75 105 118
3 75 118 105
3 76 110 151
3 76 151 110
3 76 111 152
3 76 152 111
3 76 112 113
3 76 113 112
3 76 112 151
3 76 151 112
3 76 113 152
3 76 152 113
3 77 102 116
3 77 116 102
3 78 101 117
3 78 117 101
3 79 83 121
3 79 121 83
3 79 121 125
3 79 125 121
3 80 84 122
3 80 122 84
3 80 122 126
3 80 126 122
3 81 82 115
3 81 115 82
3 81 82 120
3 81 120 82
3 81 116 156
3 81 156 116
3 81 119 120
3 81 120 119
3 81 119 156
3 81 156 119
3 82 117 157
3 82 157 117
3 82 120 157
3 82 157 120
3 83 99 121
3 83 121 99
3 84 100 122
3 84 122 100
3 85 101 123
3 85 123 101
3 85 104 123
3 85 123 104
3 86 102 124
3 86 124 102
3 86 105 124
3 86 124 105
3 87 92 127
3 87 127 92
3 87 96 127
3 87 127 96
3 88 93 128
3 88 128 93
3 88 97 128
3 88 128 97
3 89 90 91
3 89 91 90
3 89 90 92
3 89 92 90
3 89 91 93
3 89 93 91
3 90 91 140
3 90 140 91
3 90 92 129
3 90 129 92
3 90 139 140
3 90 140 139
3 91 93 130
3 91 130 93
3 92 127 129
3 92 129 127
3 93 128 130
3 93 130 128
3 94 99 133
3 94 133 99
3 94 108 133
3 94 133 108
3 95 100 134
3 95 134 100
3 95 109 134
3 95 134 109
3 96 110 137
3 96 137 110
3 96 127 137
3 96 137 127
3 97 111 138
3 97 138 111
3 97 128 138
3 97 138 128
3 98 106 107
3 98 107 106
3 98 106 108
3 98 108 106
3 98 107 109
3 98 109 107
3 99 121 141
3 99 141 121
3 99 133 141
3 99 141 133
3 100 122 142
3 100 142 122
3 100 134 142
3 100 142 134
3 101 117 145
3 101 145 117
3 101 123 145
3 101 145 123
3 102 116 146
3 102 146 116
3 102 124 146
3 102 146 124
3 104 118 149
3 104 149 118
3 104 123 149
3 104 149 123
3 105 118 150
3 105 150 118
3 105 124 150
3 105 150 124
3 106 107 154
3 106 154 107
3 106 108 147
3 106 147 108
3 106 153 154
3 106 154 153
3 107 109 148
3 107 148 109
3 108 133 147
3 108 147 133
3 109 134 148
3 109 148 134
3 110 137 151
3 110 151 137
3 111 138 152
3 111 152 138
3 114 115 155
3 114 155 115
3 116 146 156
3 116 156 146
3 117 145 157
3 117 157 145
