 COFF
          15          96          15
  
  -2.4174381386700312       0.57426344044062250        1.7253805151292780       0.60000002384185791       0.60000002384185791       0.60000002384185791       0.80000001192092896     
  -2.4174381386700312      -0.57426344044062250        1.7253805151292780       0.60000002384185791       0.60000002384185791       0.60000002384185791       0.80000001192092896     
  -3.8934745851621124E-003  -1.1596334456398403        1.7176967009475359       0.60000002384185791       0.60000002384185791       0.60000002384185791       0.80000001192092896     
   2.6355540681474783      -0.57200440950876030        1.7302760007128710       0.60000002384185791       0.60000002384185791       0.60000002384185791       0.80000001192092896     
   2.6355540681474783       0.57200440950876030        1.7302760007128710       0.60000002384185791       0.60000002384185791       0.60000002384185791       0.80000001192092896     
  -3.8934745851621124E-003   1.1596334456398403        1.7176967009475359       0.60000002384185791       0.60000002384185791       0.60000002384185791       0.80000001192092896     
  0.97773695305868247      -0.88746318044767847        1.7201136671255148       0.60000002384185791       0.60000002384185791       0.60000002384185791       0.80000001192092896     
  0.97773695305868247       0.88746318044767847        1.7201136671255148       0.60000002384185791       0.60000002384185791       0.60000002384185791       0.80000001192092896     
 -0.97936045299677699       0.88521073068497491        1.7190281462020693       0.60000002384185791       0.60000002384185791       0.60000002384185791       0.80000001192092896     
 -0.97936045299677699      -0.88521073068497491        1.7190281462020693       0.60000002384185791       0.60000002384185791       0.60000002384185791       0.80000001192092896     
   1.1461137381815816      -0.47886773448640269        1.3167574763886143       0.60000002384185791       0.60000002384185791       0.60000002384185791       0.80000001192092896     
  -1.0989603185994257       0.44090980740099101        1.3190400600272616       0.60000002384185791       0.60000002384185791       0.60000002384185791       0.80000001192092896     
  -1.0989603185994257      -0.44090980740099101        1.3190400600272614       0.60000002384185791       0.60000002384185791       0.60000002384185791       0.80000001192092896     
   1.1461137381815816       0.47886773448640269        1.3167574763886143       0.60000002384185791       0.60000002384185791       0.60000002384185791       0.80000001192092896     
   5.7140991036573286E-003  -2.2047791598485421E-017   1.0382578837327854        1.0000000000000000        1.0000000000000000        0.0000000000000000        1.0000000000000000     
  
   3   0   8  11
   3   0  11   8
   4   0  11  12   1
   3   1  12   9
   4   1  12  11   0
   3   1   9  12
   3   2  14   6
   3   2  14   9
   3   2   6  14
   3   2   9  14
   3   3   6  10
   3   3  10   6
   4   3  10  13   4
   3   4  13   7
   4   4  13  10   3
   3   4   7  13
   3   5   7  14
   3   5  14   7
   3   5  14   8
   3   5   8  14
   3   6   2  14
   3   6  14  10
   3   6  14   2
   3   6  10   3
   3   6  10  14
   3   6   3  10
   3   7   4  13
   3   7  13   4
   3   7  13  14
   3   7  14   5
   3   7  14  13
   3   7   5  14
   3   8   5  14
   3   8  14   5
   3   8  14  11
   3   8  11   0
   3   8  11  14
   3   8   0  11
   3   9   1  12
   3   9  12   1
   3   9  12  14
   3   9  14   2
   3   9  14  12
   3   9   2  14
   3  10   3   6
   4  10   3   4  13
   3  10   6  14
   3  10   6   3
   3  10  14  13
   3  10  14   6
   3  10  13  14
   4  10  13   4   3
   3  11   0   8
   4  11   0   1  12
   3  11   8  14
   3  11   8   0
   3  11  14  12
   3  11  14   8
   3  11  12  14
   4  11  12   1   0
   3  12   1   9
   4  12   1   0  11
   3  12  11  14
   4  12  11   0   1
   3  12  14   9
   3  12  14  11
   3  12   9   1
   3  12   9  14
   3  13   4   7
   4  13   4   3  10
   3  13  10  14
   4  13  10   3   4
   3  13  14   7
   3  13  14  10
   3  13   7   4
   3  13   7  14
   3  14   5   7
   3  14   5   8
   3  14   7  13
   3  14   7   5
   3  14  13  10
   3  14  13   7
   3  14  10   6
   3  14  10  13
   3  14   6   2
   3  14   6  10
   3  14   2   6
   3  14   2   9
   3  14   9  12
   3  14   9   2
   3  14  12  11
   3  14  12   9
   3  14  11   8
   3  14  11  12
   3  14   8   5
   3  14   8  11
