 COFF
          21         108          21
  
  -3.1757792522446366       0.61612417972220912        2.0812423901144537       0.60000002384185791       0.60000002384185791       0.60000002384185791       0.80000001192092896     
  -3.1757792522446366      -0.61612417972220912        2.0812423901144537       0.60000002384185791       0.60000002384185791       0.60000002384185791       0.80000001192092896     
  -1.0923961064907905E-002  -1.2752038349557064        2.0285995940511423       0.60000002384185791       0.60000002384185791       0.60000002384185791       0.80000001192092896     
   3.4693484016254303      -0.61135306529632505        2.0911532808428670       0.60000002384185791       0.60000002384185791       0.60000002384185791       0.80000001192092896     
   3.4693484016254303       0.61135306529632505        2.0911532808428670       0.60000002384185791       0.60000002384185791       0.60000002384185791       0.80000001192092896     
  -1.0923961064907905E-002   1.2752038349557064        2.0285995940511423       0.60000002384185791       0.60000002384185791       0.60000002384185791       0.80000001192092896     
  0.94637810768652963      -0.99221728429522793        2.0392427234720767       0.60000002384185791       0.60000002384185791       0.60000002384185791       0.80000001192092896     
  0.94637810768652963       0.99221728429522793        2.0392427234720767       0.60000002384185791       0.60000002384185791       0.60000002384185791       0.80000001192092896     
  -1.0021983841308257       0.98203758251282935        2.0412755656698525       0.60000002384185791       0.60000002384185791       0.60000002384185791       0.80000001192092896     
  -1.0021983841308257      -0.98203758251282935        2.0412755656698525       0.60000002384185791       0.60000002384185791       0.60000002384185791       0.80000001192092896     
   1.9202471137608823      -0.81789312729859198        2.1290314559748253       0.60000002384185791       0.60000002384185791       0.60000002384185791       0.80000001192092896     
   1.9202471137608823       0.81789312729859198        2.1290314559748253       0.60000002384185791       0.60000002384185791       0.60000002384185791       0.80000001192092896     
  -2.0357037822468671       0.80034880490921767        2.0633272353991612       0.60000002384185791       0.60000002384185791       0.60000002384185791       0.80000001192092896     
  -2.0357037822468667      -0.80034880490921767        2.0633272353991612       0.60000002384185791       0.60000002384185791       0.60000002384185791       0.80000001192092896     
   6.4950404267029270E-003  -2.2242882867039372E-017   1.0382578837327854        1.0000000000000000        1.0000000000000000        0.0000000000000000        1.0000000000000000     
   1.4493122167815391      -0.65827446312073179        1.5318097806669295       0.60000002384185791       0.60000002384185791       0.60000002384185791       0.80000001192092896     
  -1.3848617384682202       0.64854040704283544        1.5240735312750209       0.60000002384185791       0.60000002384185791       0.60000002384185791       0.80000001192092896     
  -1.3848617384682202      -0.64854040704283544        1.5240735312750209       0.60000002384185791       0.60000002384185791       0.60000002384185791       0.80000001192092896     
   1.4493122167815391       0.65827446312073179        1.5318097806669295       0.60000002384185791       0.60000002384185791       0.60000002384185791       0.80000001192092896     
   2.5252040487258389      -0.61617048912038375        1.7510997370678723       0.60000002384185791       0.60000002384185791       0.60000002384185791       0.80000001192092896     
   2.5252040487258389       0.61617048912038375        1.7510997370678723       0.60000002384185791       0.60000002384185791       0.60000002384185791       0.80000001192092896     
  
   3   0  12  16
   3   0  16  12
   4   0  16  17   1
   3   1  17  13
   4   1  17  16   0
   3   1  13  17
   3   2  14   6
   3   2  14   9
   3   2   6  14
   3   2   9  14
   3   5   7  14
   3   5  14   7
   3   5  14   8
   3   5   8  14
   3   6   2  14
   3   6  14  15
   3   6  14   2
   3   6  15  10
   3   6  15  14
   3   6  10  15
   3   7  11  18
   3   7  18  14
   3   7  18  11
   3   7  14   5
   3   7  14  18
   3   7   5  14
   3   8   5  14
   3   8  14   5
   3   8  14  16
   3   8  16  12
   3   8  16  14
   3   8  12  16
   3   9  13  17
   3   9  17  14
   3   9  17  13
   3   9  14   2
   3   9  14  17
   3   9   2  14
   3  10   6  15
   3  10  15   6
   4  10  15  19   3
   3  11  18   7
   4  11  18  20   4
   3  11   7  18
   3  12   8  16
   3  12  16   0
   3  12  16   8
   3  12   0  16
   3  13   1  17
   3  13  17   1
   3  13  17   9
   3  13   9  17
   3  14   5   7
   3  14   5   8
   3  14   7  18
   3  14   7   5
   3  14  18  15
   3  14  18   7
   3  14  15   6
   3  14  15  18
   3  14   6   2
   3  14   6  15
   3  14   2   6
   3  14   2   9
   3  14   9  17
   3  14   9   2
   3  14  17  16
   3  14  17   9
   3  14  16   8
   3  14  16  17
   3  14   8   5
   3  14   8  16
   3  15  10   6
   4  15  10   3  19
   3  15   6  14
   3  15   6  10
   3  15  14  18
   3  15  14   6
   3  15  18  14
   4  15  18  20  19
   3  16   0  12
   4  16   0   1  17
   3  16  12   8
   3  16  12   0
   3  16   8  14
   3  16   8  12
   3  16  14  17
   3  16  14   8
   3  16  17  14
   4  16  17   1   0
   3  17   1  13
   4  17   1   0  16
   3  17  16  14
   4  17  16   0   1
   3  17  14   9
   3  17  14  16
   3  17   9  13
   3  17   9  14
   3  17  13   1
   3  17  13   9
   3  18  15  14
   4  18  15  19  20
   3  18  14   7
   3  18  14  15
   3  18   7  11
   3  18   7  14
   3  18  11   7
   4  18  11   4  20
