# Generated by dad_to_polygons. Vertex data from Humppa's .off file,
# polygons parsed from .dad file.
COFF
53 164 53
-5.266991 0.739416 3.985062 0.500000 0.500000 0.500000 1.0
-5.266991 -0.739416 3.985062 0.500000 0.500000 0.500000 1.0
-0.026941 -1.727437 3.647087 0.500000 0.500000 0.500000 1.0
5.601064 -0.718055 4.024533 0.500000 0.500000 0.500000 1.0
5.601064 0.718055 4.024533 0.500000 0.500000 0.500000 1.0
-0.026941 1.727437 3.647087 0.500000 0.500000 0.500000 1.0
1.021922 -1.400237 3.801205 0.500000 0.500000 0.500000 1.0
1.021922 1.400237 3.801205 0.500000 0.500000 0.500000 1.0
-1.073079 1.392007 3.761953 0.500000 0.500000 0.500000 1.0
-1.073079 -1.392007 3.761953 0.500000 0.500000 0.500000 1.0
1.939906 -1.068025 4.039548 0.500000 0.500000 0.500000 1.0
1.939906 1.068025 4.039548 0.500000 0.500000 0.500000 1.0
-2.000856 1.095067 3.992972 0.500000 0.500000 0.500000 1.0
-2.000856 -1.095067 3.992972 0.500000 0.500000 0.500000 1.0
3.083887 -0.919298 4.084331 0.500000 0.500000 0.500000 1.0
3.083887 0.919298 4.084331 0.500000 0.500000 0.500000 1.0
-3.017895 0.944098 4.007918 0.500000 0.500000 0.500000 1.0
-3.017895 -0.944098 4.007918 0.500000 0.500000 0.500000 1.0
4.093102 -0.818627 4.051116 0.500000 0.500000 0.500000 1.0
4.093102 0.818627 4.051116 0.500000 0.500000 0.500000 1.0
-4.012747 0.842234 3.999660 0.500000 0.500000 0.500000 1.0
-4.012747 -0.842234 3.999660 0.500000 0.500000 0.500000 1.0
-3.674672 -0.780284 3.304700 0.500000 0.500000 0.500000 1.0
-0.003915 -0.000000 1.038258 1.0 1.0 0.0 1.0
2.267043 -0.939504 3.082740 0.500000 0.500000 0.500000 1.0
1.413345 1.103511 2.338788 0.500000 0.500000 0.500000 1.0
1.413345 -1.103511 2.338788 0.500000 0.500000 0.500000 1.0
-1.042131 1.325490 2.907241 0.500000 0.500000 0.500000 1.0
-1.042131 -1.325490 2.907241 0.500000 0.500000 0.500000 1.0
-1.837806 0.841202 2.056507 0.500000 0.500000 0.500000 1.0
-1.837806 -0.841202 2.056507 0.500000 0.500000 0.500000 1.0
1.043202 -1.300150 2.776954 0.500000 0.500000 0.500000 1.0
1.043202 1.300150 2.776954 0.500000 0.500000 0.500000 1.0
-2.258893 0.965086 3.027417 0.500000 0.500000 0.500000 1.0
-2.258893 -0.965086 3.027417 0.500000 0.500000 0.500000 1.0
-0.011070 -1.419529 2.629812 0.500000 0.500000 0.500000 1.0
-0.011070 1.419529 2.629812 0.500000 0.500000 0.500000 1.0
2.267043 0.939504 3.082740 0.500000 0.500000 0.500000 1.0
3.784535 -0.619143 3.310500 1.0 1.0 0.0 1.0
-0.531952 -1.104181 2.129423 0.500000 0.500000 0.500000 1.0
-0.531952 1.104181 2.129423 0.500000 0.500000 0.500000 1.0
-1.323557 -0.445321 1.380466 0.500000 0.500000 0.500000 1.0
-1.323557 0.445321 1.380466 0.500000 0.500000 0.500000 1.0
0.671269 0.973156 1.868592 0.500000 0.500000 0.500000 1.0
0.671269 -0.973156 1.868592 0.500000 0.500000 0.500000 1.0
3.784535 0.619143 3.310500 1.0 1.0 0.0 1.0
-3.674672 0.780284 3.304700 0.500000 0.500000 0.500000 1.0
1.602144 -0.000000 2.253671 0.500000 0.500000 0.500000 1.0
0.921710 0.667757 1.671298 0.500000 0.500000 0.500000 1.0
0.921710 -0.667757 1.671298 0.500000 0.500000 0.500000 1.0
-0.042925 0.890062 1.834486 0.500000 0.500000 0.500000 1.0
-0.042925 -0.890062 1.834486 0.500000 0.500000 0.500000 1.0
0.814094 -0.000000 1.640908 0.500000 0.500000 0.500000 1.0
3 0 1 22
3 0 22 1
3 0 22 46
3 0 46 22
3 0 46 20
3 0 20 46
3 1 22 21
3 1 21 22
3 3 4 45
3 3 45 4
3 3 45 38
3 3 38 45
3 5 7 32
3 5 32 7
3 5 27 8
3 5 8 27
3 5 32 36
3 5 36 32
3 5 36 27
3 5 27 36
3 6 24 31
3 6 31 24
3 8 27 33
3 8 33 27
3 8 33 12
3 8 12 33
3 9 2 28
3 9 28 2
3 10 24 14
3 10 14 24
3 11 37 7
3 11 7 37
3 12 33 16
3 12 16 33
3 13 9 34
3 13 34 9
3 13 17 34
3 13 34 17
3 15 11 37
3 15 37 11
3 15 19 45
3 15 45 19
3 15 45 37
3 15 37 45
3 16 46 20
3 16 20 46
3 17 34 22
3 17 22 34
3 18 3 38
3 18 38 3
3 18 14 38
3 18 38 14
3 22 21 17
3 22 17 21
3 22 33 34
3 22 34 33
3 22 46 33
3 22 33 46
3 23 29 40
3 23 40 29
3 23 42 29
3 23 29 42
3 23 43 50
3 23 50 43
3 23 44 49
3 23 49 44
3 23 44 51
3 23 51 44
3 23 49 52
3 23 52 49
3 23 52 48
3 23 48 52
3 24 6 10
3 24 10 6
3 24 14 38
3 24 38 14
3 24 26 47
3 24 47 26
3 24 31 26
3 24 26 31
3 24 37 45
3 24 45 37
3 24 45 38
3 24 38 45
3 24 47 37
3 24 37 47
3 25 37 32
3 25 32 37
3 25 43 32
3 25 32 43
3 25 43 48
3 25 48 43
3 25 47 48
3 25 48 47
3 27 36 40
3 27 40 36
3 28 2 35
3 28 35 2
3 28 34 9
3 28 9 34
3 28 35 39
3 28 39 35
3 30 29 33
3 30 33 29
3 30 33 34
3 30 34 33
3 30 34 39
3 30 39 34
3 30 41 42
3 30 42 41
3 30 42 29
3 30 29 42
3 31 2 6
3 31 6 2
3 31 2 35
3 31 35 2
3 31 26 44
3 31 44 26
3 31 35 44
3 31 44 35
3 32 37 7
3 32 7 37
3 32 43 36
3 32 36 43
3 33 27 40
3 33 40 27
3 33 40 29
3 33 29 40
3 34 39 28
3 34 28 39
3 35 44 51
3 35 51 44
3 35 51 39
3 35 39 51
3 36 40 50
3 36 50 40
3 39 23 51
3 39 51 23
3 39 30 41
3 39 41 30
3 39 41 23
3 39 23 41
3 41 23 42
3 41 42 23
3 44 49 26
3 44 26 49
3 45 19 4
3 45 4 19
3 46 16 33
3 46 33 16
3 47 25 37
3 47 37 25
3 47 52 48
3 47 48 52
3 47 52 49
3 47 49 52
3 48 23 43
3 48 43 23
3 49 26 47
3 49 47 26
3 50 36 43
3 50 43 36
3 50 40 23
3 50 23 40
