 COFF
          53         432          53
  
  -5.2669910301549230       0.73941644650351046        3.9850621759927476       0.60000002384185791       0.60000002384185791       0.60000002384185791       0.80000001192092896     
  -5.2669910301549221      -0.73941644650351046        3.9850621759927476       0.60000002384185791       0.60000002384185791       0.60000002384185791       0.80000001192092896     
  -2.6941335193865424E-002  -1.7274374260087029        3.6470867558046134       0.60000002384185791       0.60000002384185791       0.60000002384185791       0.80000001192092896     
   5.6010640373634901      -0.71805536781931090        4.0245334850927463       0.60000002384185791       0.60000002384185791       0.60000002384185791       0.80000001192092896     
   5.6010640373634901       0.71805536781931090        4.0245334850927463       0.60000002384185791       0.60000002384185791       0.60000002384185791       0.80000001192092896     
  -2.6941335193865396E-002   1.7274374260087029        3.6470867558046134       0.60000002384185791       0.60000002384185791       0.60000002384185791       0.80000001192092896     
   1.0219222461631472       -1.4002371525323625        3.8012054258075509       0.60000002384185791       0.60000002384185791       0.60000002384185791       0.80000001192092896     
   1.0219222461631472        1.4002371525323625        3.8012054258075509       0.60000002384185791       0.60000002384185791       0.60000002384185791       0.80000001192092896     
  -1.0730788097737840        1.3920073370168211        3.7619531938317428       0.60000002384185791       0.60000002384185791       0.60000002384185791       0.80000001192092896     
  -1.0730788097737836       -1.3920073370168211        3.7619531938317428       0.60000002384185791       0.60000002384185791       0.60000002384185791       0.80000001192092896     
   1.9399056079163195       -1.0680254225784720        4.0395479994147117       0.60000002384185791       0.60000002384185791       0.60000002384185791       0.80000001192092896     
   1.9399056079163195        1.0680254225784718        4.0395479994147117       0.60000002384185791       0.60000002384185791       0.60000002384185791       0.80000001192092896     
  -2.0008559665920980        1.0950673115992764        3.9929724851247799       0.60000002384185791       0.60000002384185791       0.60000002384185791       0.80000001192092896     
  -2.0008559665920980       -1.0950673115992764        3.9929724851247799       0.60000002384185791       0.60000002384185791       0.60000002384185791       0.80000001192092896     
   3.0838870363240205      -0.91929776910634298        4.0843311731403125       0.60000002384185791       0.60000002384185791       0.60000002384185791       0.80000001192092896     
   3.0838870363240192       0.91929776910634309        4.0843311731403116       0.60000002384185791       0.60000002384185791       0.60000002384185791       0.80000001192092896     
  -3.0178945036787534       0.94409775908860349        4.0079176973483452       0.60000002384185791       0.60000002384185791       0.60000002384185791       0.80000001192092896     
  -3.0178945036787526      -0.94409775908860327        4.0079176973483444       0.60000002384185791       0.60000002384185791       0.60000002384185791       0.80000001192092896     
   4.0931021432502463      -0.81862745809130855        4.0511160549716489       0.60000002384185791       0.60000002384185791       0.60000002384185791       0.80000001192092896     
   4.0931021432502463       0.81862745809130855        4.0511160549716481       0.60000002384185791       0.60000002384185791       0.60000002384185791       0.80000001192092896     
  -4.0127468104907571       0.84223442025593165        3.9996595466923353       0.60000002384185791       0.60000002384185791       0.60000002384185791       0.80000001192092896     
  -4.0127468104907571      -0.84223442025593187        3.9996595466923353       0.60000002384185791       0.60000002384185791       0.60000002384185791       0.80000001192092896     
  -3.6746718187504919      -0.78028394163217751        3.3046995325487480       0.60000002384185791       0.60000002384185791       0.60000002384185791       0.80000001192092896     
  -3.9146227874708121E-003  -3.0627360383799466E-017   1.0382578837327854        1.0000000000000000        1.0000000000000000        0.0000000000000000        1.0000000000000000     
   2.2670426791914209      -0.93950405030361928        3.0827404298372958       0.60000002384185791       0.60000002384185791       0.60000002384185791       0.80000001192092896     
   1.4133445553994173        1.1035109349649743        2.3387876099467997       0.60000002384185791       0.60000002384185791       0.60000002384185791       0.80000001192092896     
   1.4133445553994175       -1.1035109349649745        2.3387876099468006       0.60000002384185791       0.60000002384185791       0.60000002384185791       0.80000001192092896     
  -1.0421308603336010        1.3254896220486752        2.9072409303668363       0.60000002384185791       0.60000002384185791       0.60000002384185791       0.80000001192092896     
  -1.0421308603336008       -1.3254896220486752        2.9072409303668363       0.60000002384185791       0.60000002384185791       0.60000002384185791       0.80000001192092896     
  -1.8378060937467164       0.84120222748620410        2.0565071213964354       0.60000002384185791       0.60000002384185791       0.60000002384185791       0.80000001192092896     
  -1.8378060937467164      -0.84120222748620399        2.0565071213964354       0.60000002384185791       0.60000002384185791       0.60000002384185791       0.80000001192092896     
   1.0432020493898986       -1.3001498297598471        2.7769535620631363       0.60000002384185791       0.60000002384185791       0.60000002384185791       0.80000001192092896     
   1.0432020493898990        1.3001498297598471        2.7769535620631349       0.60000002384185791       0.60000002384185791       0.60000002384185791       0.80000001192092896     
  -2.2588927995732333       0.96508591599435101        3.0274174927534538       0.60000002384185791       0.60000002384185791       0.60000002384185791       0.80000001192092896     
  -2.2588927995732333      -0.96508591599435101        3.0274174927534530       0.60000002384185791       0.60000002384185791       0.60000002384185791       0.80000001192092896     
  -1.1069751360832073E-002  -1.4195288582163001        2.6298121819577123       0.60000002384185791       0.60000002384185791       0.60000002384185791       0.80000001192092896     
  -1.1069751360831707E-002   1.4195288582163001        2.6298121819577114       0.60000002384185791       0.60000002384185791       0.60000002384185791       0.80000001192092896     
   2.2670426791914218       0.93950405030361916        3.0827404298372940       0.60000002384185791       0.60000002384185791       0.60000002384185791       0.80000001192092896     
   3.7845345053888217      -0.61914283408967630        3.3105001657960162        1.0000000000000000        1.0000000000000000        0.0000000000000000        1.0000000000000000     
 -0.53195221803087878       -1.1041810859371310        2.1294229916714218       0.60000002384185791       0.60000002384185791       0.60000002384185791       0.80000001192092896     
 -0.53195221803087878        1.1041810859371310        2.1294229916714214       0.60000002384185791       0.60000002384185791       0.60000002384185791       0.80000001192092896     
  -1.3235574412807156      -0.44532144758997910        1.3804657506871472       0.60000002384185791       0.60000002384185791       0.60000002384185791       0.80000001192092896     
  -1.3235574412807156       0.44532144758997921        1.3804657506871472       0.60000002384185791       0.60000002384185791       0.60000002384185791       0.80000001192092896     
  0.67126938056642760       0.97315555678833121        1.8685918879153571       0.60000002384185791       0.60000002384185791       0.60000002384185791       0.80000001192092896     
  0.67126938056642782      -0.97315555678833121        1.8685918879153576       0.60000002384185791       0.60000002384185791       0.60000002384185791       0.80000001192092896     
   3.7845345053888217       0.61914283408967630        3.3105001657960162        1.0000000000000000        1.0000000000000000        0.0000000000000000        1.0000000000000000     
  -3.6746718187504919       0.78028394163217751        3.3046995325487476       0.60000002384185791       0.60000002384185791       0.60000002384185791       0.80000001192092896     
   1.6021440879579596       -2.6595544835341893E-017   2.2536711702718257       0.60000002384185791       0.60000002384185791       0.60000002384185791       0.80000001192092896     
  0.92170961481323976       0.66775666018350999        1.6712975153023142       0.60000002384185791       0.60000002384185791       0.60000002384185791       0.80000001192092896     
  0.92170961481323976      -0.66775666018350999        1.6712975153023144       0.60000002384185791       0.60000002384185791       0.60000002384185791       0.80000001192092896     
  -4.2924783809481566E-002  0.89006159948449726        1.8344857582086633       0.60000002384185791       0.60000002384185791       0.60000002384185791       0.80000001192092896     
  -4.2924783809481636E-002 -0.89006159948449726        1.8344857582086636       0.60000002384185791       0.60000002384185791       0.60000002384185791       0.80000001192092896     
  0.81409371768545191       -3.0548803873975911E-017   1.6409077787619970       0.60000002384185791       0.60000002384185791       0.60000002384185791       0.80000001192092896     
  
   3   0  20  46
   3   0  46  20
   4   0  46  22   1
   3   1  22  21
   4   1  22  46   0
   3   1  21  22
   3   2  35  28
   3   2  35  31
   3   2  31  35
   3   2  31   6
   3   2   6  31
   3   2   9  28
   3   2  28  35
   3   2  28   9
   3   3  18  38
   3   3  38  18
   4   3  38  45   4
   3   4  45  19
   4   4  45  38   3
   3   4  19  45
   3   5   7  32
   3   5  32  36
   3   5  32   7
   3   5  36  32
   3   5  36  27
   3   5  27  36
   3   5  27   8
   3   5   8  27
   3   6   2  31
   3   6  31   2
   3   6  31  24
   3   6  24  10
   3   6  24  31
   3   6  10  24
   3   7  11  37
   3   7  37  32
   3   7  37  11
   3   7  32  37
   3   7  32   5
   3   7   5  32
   3   8   5  27
   3   8  27   5
   3   8  27  33
   3   8  33  12
   3   8  33  27
   3   8  12  33
   3   9  13  34
   3   9  34  28
   3   9  34  13
   3   9  28  34
   3   9  28   2
   3   9   2  28
   3  10   6  24
   3  10  24  14
   3  10  24   6
   3  10  14  24
   3  11  15  37
   3  11  37   7
   3  11  37  15
   3  11   7  37
   3  12   8  33
   3  12  33  16
   3  12  33   8
   3  12  16  33
   3  13  17  34
   3  13  34   9
   3  13  34  17
   3  13   9  34
   3  14  10  24
   3  14  24  38
   3  14  24  10
   3  14  38  18
   3  14  38  24
   3  14  18  38
   3  15  19  45
   3  15  45  37
   3  15  45  19
   3  15  37  45
   3  15  37  11
   3  15  11  37
   3  16  12  33
   3  16  33  46
   3  16  33  12
   3  16  46  20
   3  16  46  33
   3  16  20  46
   3  17  21  22
   3  17  22  34
   3  17  22  21
   3  17  34  22
   3  17  34  13
   3  17  13  34
   3  18  14  38
   3  18  38   3
   3  18  38  14
   3  18   3  38
   3  19   4  45
   3  19  45   4
   3  19  45  15
   3  19  15  45
   3  20  16  46
   3  20  46   0
   3  20  46  16
   3  20   0  46
   3  21   1  22
   3  21  22   1
   3  21  22  17
   3  21  17  22
   3  22   1  21
   4  22   1   0  46
   3  22  34  17
   4  22  34  33  46
   3  22  17  21
   3  22  17  34
   3  22  21   1
   3  22  21  17
   3  23  50  40
   3  23  50  43
   3  23  43  48
   3  23  43  50
   3  23  48  43
   3  23  48  52
   3  23  52  48
   3  23  52  49
   3  23  49  44
   3  23  49  52
   3  23  44  51
   3  23  44  49
   3  23  51  44
   3  23  51  39
   3  23  39  51
   4  23  39  35  44
   3  23  41  42
   4  23  41  30  39
   3  23  42  41
   4  23  42  29  40
   3  23  40  50
   4  23  40  29  42
   3  24  38  14
   4  24  38  45  37
   3  24  14  10
   3  24  14  38
   3  24  10   6
   3  24  10  14
   3  24   6  31
   3  24   6  10
   3  24  31  26
   3  24  31   6
   3  24  26  47
   3  24  26  31
   3  24  47  37
   3  24  47  26
   3  24  37  47
   4  24  37  45  38
   3  25  37  47
   3  25  37  32
   3  25  47  37
   3  25  47  48
   3  25  48  43
   3  25  48  47
   3  25  43  32
   3  25  43  48
   3  25  32  37
   3  25  32  43
   3  26  49  47
   3  26  49  44
   3  26  47  24
   3  26  47  49
   3  26  24  31
   3  26  24  47
   3  26  31  44
   3  26  31  24
   3  26  44  31
   3  26  44  49
   3  27   5  36
   3  27   5   8
   3  27  36  40
   3  27  36   5
   3  27  40  33
   3  27  40  36
   3  27  33   8
   3  27  33  40
   3  27   8   5
   3  27   8  33
   3  28  34  39
   3  28  34   9
   3  28  39  35
   3  28  39  34
   3  28  35  39
   3  28  35   2
   3  28   2  35
   3  28   2   9
   3  28   9  34
   3  28   9   2
   3  29  33  40
   4  29  33  34  30
   3  29  40  33
   4  29  40  23  42
   3  30  34  39
   4  30  34  33  29
   3  30  39  34
   4  30  39  23  41
   3  31   2  35
   3  31   2   6
   3  31  35  44
   3  31  35   2
   3  31  44  26
   3  31  44  35
   3  31  26  24
   3  31  26  44
   3  31  24   6
   3  31  24  26
   3  31   6   2
   3  31   6  24
   3  32  37  25
   3  32  37   7
   3  32  25  37
   3  32  25  43
   3  32  43  36
   3  32  43  25
   3  32  36  43
   3  32  36   5
   3  32   5   7
   3  32   5  36
   3  32   7  37
   3  32   7   5
   3  33  46  16
   4  33  46  22  34
   3  33  16  12
   3  33  16  46
   3  33  12   8
   3  33  12  16
   3  33   8  27
   3  33   8  12
   3  33  27  40
   3  33  27   8
   3  33  40  29
   3  33  40  27
   3  33  29  40
   4  33  29  30  34
   3  34  22  17
   4  34  22  46  33
   3  34  30  39
   4  34  30  29  33
   3  34  39  28
   3  34  39  30
   3  34  28  39
   3  34  28   9
   3  34   9  13
   3  34   9  28
   3  34  13  17
   3  34  13   9
   3  34  17  22
   3  34  17  13
   3  35  28  39
   3  35  28   2
   3  35  39  28
   3  35  39  51
   3  35  51  44
   3  35  51  39
   3  35  44  31
   3  35  44  51
   3  35  31   2
   3  35  31  44
   3  35   2  31
   3  35   2  28
   3  36  32  43
   3  36  32   5
   3  36  43  32
   3  36  43  50
   3  36  50  40
   3  36  50  43
   3  36  40  27
   3  36  40  50
   3  36  27   5
   3  36  27  40
   3  36   5  32
   3  36   5  27
   3  37  45  15
   4  37  45  38  24
   3  37  24  47
   4  37  24  38  45
   3  37  47  24
   3  37  47  25
   3  37  25  47
   3  37  25  32
   3  37  32  25
   3  37  32   7
   3  37   7  11
   3  37   7  32
   3  37  11  15
   3  37  11   7
   3  37  15  45
   3  37  15  11
   3  38   3  18
   4  38   3   4  45
   3  38  18  14
   3  38  18   3
   3  38  14  24
   3  38  14  18
   3  38  24  14
   4  38  24  37  45
   3  39  35  28
   3  39  35  51
   3  39  28  34
   3  39  28  35
   3  39  34  30
   3  39  34  28
   3  39  30  34
   4  39  30  41  23
   3  39  23  51
   4  39  23  44  35
   3  39  51  35
   3  39  51  23
   3  40  29  33
   4  40  29  42  23
   3  40  33  27
   3  40  33  29
   3  40  27  36
   3  40  27  33
   3  40  36  50
   3  40  36  27
   3  40  50  36
   3  40  50  23
   3  40  23  50
   4  40  23  43  36
   3  41  23  42
   4  41  23  39  30
   3  41  42  23
   4  41  42  29  30
   3  42  23  41
   4  42  23  40  29
   3  42  41  23
   4  42  41  30  29
   3  43  36  32
   3  43  36  50
   3  43  32  25
   3  43  32  36
   3  43  25  48
   3  43  25  32
   3  43  48  25
   3  43  48  23
   3  43  23  50
   3  43  23  48
   3  43  50  36
   3  43  50  23
   3  44  26  49
   3  44  26  31
   3  44  31  35
   3  44  31  26
   3  44  35  51
   3  44  35  31
   3  44  51  35
   3  44  51  23
   3  44  23  49
   3  44  23  51
   3  44  49  26
   3  44  49  23
   3  45   4  19
   4  45   4   3  38
   3  45  37  15
   4  45  37  24  38
   3  45  15  19
   3  45  15  37
   3  45  19   4
   3  45  19  15
   3  46   0  20
   4  46   0   1  22
   3  46  20  16
   3  46  20   0
   3  46  16  33
   3  46  16  20
   3  46  33  16
   4  46  33  34  22
   3  47  37  24
   3  47  37  25
   3  47  24  26
   3  47  24  37
   3  47  26  49
   3  47  26  24
   3  47  49  26
   3  47  49  52
   3  47  52  48
   3  47  52  49
   3  47  48  25
   3  47  48  52
   3  47  25  37
   3  47  25  48
   3  48  43  25
   3  48  43  23
   3  48  25  47
   3  48  25  43
   3  48  47  52
   3  48  47  25
   3  48  52  47
   3  48  52  23
   3  48  23  43
   3  48  23  52
   3  49  47  26
   3  49  47  52
   3  49  26  47
   3  49  26  44
   3  49  44  26
   3  49  44  23
   3  49  23  52
   3  49  23  44
   3  49  52  47
   3  49  52  23
   3  50  40  36
   3  50  40  23
   3  50  36  43
   3  50  36  40
   3  50  43  36
   3  50  43  23
   3  50  23  43
   3  50  23  40
   3  51  44  35
   3  51  44  23
   3  51  35  39
   3  51  35  44
   3  51  39  35
   3  51  39  23
   3  51  23  44
   3  51  23  39
   3  52  48  47
   3  52  48  23
   3  52  47  49
   3  52  47  48
   3  52  49  47
   3  52  49  23
   3  52  23  48
   3  52  23  49
