 COFF
          58         492          58
  
  -5.5599499503872210       0.75733525071385832        4.3742263635081500       0.60000002384185791       0.60000002384185791       0.60000002384185791       0.80000001192092896     
  -5.5599499503872201      -0.75733525071385832        4.3742263635081500       0.60000002384185791       0.60000002384185791       0.60000002384185791       0.80000001192092896     
  -2.7188350473955940E-002  -1.7889302411458214        3.9930796027314752       0.60000002384185791       0.60000002384185791       0.60000002384185791       0.80000001192092896     
   6.2136737060025098      -0.74959867479459052        4.3945979035225644       0.60000002384185791       0.60000002384185791       0.60000002384185791       0.80000001192092896     
   6.2136737060025098       0.74959867479459052        4.3945979035225644       0.60000002384185791       0.60000002384185791       0.60000002384185791       0.80000001192092896     
  -2.7188350473955906E-002   1.7889302411458214        3.9930796027314752       0.60000002384185791       0.60000002384185791       0.60000002384185791       0.80000001192092896     
   1.0393527695007705       -1.4513718021213180        4.1570550206679080       0.60000002384185791       0.60000002384185791       0.60000002384185791       0.80000001192092896     
   1.0393527695007707        1.4513718021213180        4.1570550206679080       0.60000002384185791       0.60000002384185791       0.60000002384185791       0.80000001192092896     
  -1.0891449282217542        1.4414659173717368        4.1194529389267025       0.60000002384185791       0.60000002384185791       0.60000002384185791       0.80000001192092896     
  -1.0891449282217538       -1.4414659173717368        4.1194529389267025       0.60000002384185791       0.60000002384185791       0.60000002384185791       0.80000001192092896     
   1.9508762079105100       -1.1136094752780865        4.4067634588849609       0.60000002384185791       0.60000002384185791       0.60000002384185791       0.80000001192092896     
   1.9508762079105100        1.1136094752780863        4.4067634588849609       0.60000002384185791       0.60000002384185791       0.60000002384185791       0.80000001192092896     
  -2.0103059146844875        1.1349549295841759        4.3652603255886522       0.60000002384185791       0.60000002384185791       0.60000002384185791       0.80000001192092896     
  -2.0103059146844875       -1.1349549295841759        4.3652603255886522       0.60000002384185791       0.60000002384185791       0.60000002384185791       0.80000001192092896     
   3.0681977939234715      -0.99696570382027527        4.4387002263015223       0.60000002384185791       0.60000002384185791       0.60000002384185791       0.80000001192092896     
   3.0681977939234701       0.99696570382027527        4.4387002263015205       0.60000002384185791       0.60000002384185791       0.60000002384185791       0.80000001192092896     
  -3.0223702935973100       0.98271871176610492        4.3837290616852842       0.60000002384185791       0.60000002384185791       0.60000002384185791       0.80000001192092896     
  -3.0223702935973078      -0.98271871176610492        4.3837290616852824       0.60000002384185791       0.60000002384185791       0.60000002384185791       0.80000001192092896     
   4.0638182083226688      -0.91222903382401721        4.4311514100969864       0.60000002384185791       0.60000002384185791       0.60000002384185791       0.80000001192092896     
   4.0638182083226670       0.91222903382401699        4.4311514100969855       0.60000002384185791       0.60000002384185791       0.60000002384185791       0.80000001192092896     
  -4.0161571169011516       0.87079225900365331        4.3861334266388488       0.60000002384185791       0.60000002384185791       0.60000002384185791       0.80000001192092896     
  -4.0161571169011507      -0.87079225900365353        4.3861334266388488       0.60000002384185791       0.60000002384185791       0.60000002384185791       0.80000001192092896     
   5.0635728727309646      -0.83297106612560889        4.4101590609241077       0.60000002384185791       0.60000002384185791       0.60000002384185791       0.80000001192092896     
   5.0635728727309646       0.83297106612560901        4.4101590609241077       0.60000002384185791       0.60000002384185791       0.60000002384185791       0.80000001192092896     
   2.2931335664913406      -0.96739034510572364        3.3962060781955579       0.60000002384185791       0.60000002384185791       0.60000002384185791       0.80000001192092896     
   1.5166688259317378        1.1756655856379818        2.6500121537883650       0.60000002384185791       0.60000002384185791       0.60000002384185791       0.80000001192092896     
   1.5166688259317376       -1.1756655856379825        2.6500121537883659       0.60000002384185791       0.60000002384185791       0.60000002384185791       0.80000001192092896     
  -1.0990516403211714        1.3871630445652730        3.2651986576590666       0.60000002384185791       0.60000002384185791       0.60000002384185791       0.80000001192092896     
  -1.0990516403211712       -1.3871630445652730        3.2651986576590661       0.60000002384185791       0.60000002384185791       0.60000002384185791       0.80000001192092896     
  -1.8581931341172084       0.87064847694524383        2.3166180802660183       0.60000002384185791       0.60000002384185791       0.60000002384185791       0.80000001192092896     
  -1.8581931341172084      -0.87064847694524361        2.3166180802660188       0.60000002384185791       0.60000002384185791       0.60000002384185791       0.80000001192092896     
   1.0802676190186253       -1.3758724732062173        3.1289959009256068       0.60000002384185791       0.60000002384185791       0.60000002384185791       0.80000001192092896     
   1.0802676190186256        1.3758724732062173        3.1289959009256050       0.60000002384185791       0.60000002384185791       0.60000002384185791       0.80000001192092896     
  -2.3117843394666546        1.0061588008578848        3.3676299680374751       0.60000002384185791       0.60000002384185791       0.60000002384185791       0.80000001192092896     
  -2.3117843394666537       -1.0061588008578846        3.3676299680374733       0.60000002384185791       0.60000002384185791       0.60000002384185791       0.80000001192092896     
  -4.4992942599175468E-004  -1.5030151214721652        2.9215044051442831       0.60000002384185791       0.60000002384185791       0.60000002384185791       0.80000001192092896     
  -4.4992942599143501E-004   1.5030151214721652        2.9215044051442822       0.60000002384185791       0.60000002384185791       0.60000002384185791       0.80000001192092896     
   2.2931335664913410       0.96739034510572308        3.3962060781955552       0.60000002384185791       0.60000002384185791       0.60000002384185791       0.80000001192092896     
   3.7745669552870460      -0.61863753308906344        3.3105001657960162        1.0000000000000000        1.0000000000000000        0.0000000000000000        1.0000000000000000     
 -0.58242346341945994       -1.2643118698300153        2.4132529907583034       0.60000002384185791       0.60000002384185791       0.60000002384185791       0.80000001192092896     
 -0.58242346341946027        1.2643118698300153        2.4132529907583029       0.60000002384185791       0.60000002384185791       0.60000002384185791       0.80000001192092896     
  -1.5399326808353633      -0.60900231989505160        1.4726592218897125       0.60000002384185791       0.60000002384185791       0.60000002384185791       0.80000001192092896     
  -1.5399326808353628       0.60900231989505182        1.4726592218897123       0.60000002384185791       0.60000002384185791       0.60000002384185791       0.80000001192092896     
  0.79725392098866388        1.1887966152563598        2.1284573555111357       0.60000002384185791       0.60000002384185791       0.60000002384185791       0.80000001192092896     
  0.79725392098866366       -1.1887966152563600        2.1284573555111361       0.60000002384185791       0.60000002384185791       0.60000002384185791       0.80000001192092896     
   3.7745669552870460       0.61863753308906344        3.3105001657960162        1.0000000000000000        1.0000000000000000        0.0000000000000000        1.0000000000000000     
  -3.7845418242921838       0.66012502917326332        3.5885653274392326        1.0000000000000000        1.0000000000000000        0.0000000000000000        1.0000000000000000     
   1.7848437400558577        2.0522803310804047E-016   2.5304461398141145       0.60000002384185791       0.60000002384185791       0.60000002384185791       0.80000001192092896     
   1.1430396522218680       0.80076457234693532        1.8843815779170903       0.60000002384185791       0.60000002384185791       0.60000002384185791       0.80000001192092896     
   1.1430396522218680      -0.80076457234693554        1.8843815779170907       0.60000002384185791       0.60000002384185791       0.60000002384185791       0.80000001192092896     
  -1.4024773761054503E-002   1.1833788561566965        2.0570365826768411       0.60000002384185791       0.60000002384185791       0.60000002384185791       0.80000001192092896     
  -1.4024773761054645E-002  -1.1833788561566965        2.0570365826768415       0.60000002384185791       0.60000002384185791       0.60000002384185791       0.80000001192092896     
   1.1953606654962123        5.1418281022152917E-017   1.7605777352124701       0.60000002384185791       0.60000002384185791       0.60000002384185791       0.80000001192092896     
   5.1331775874892909      -0.68237114277538102        3.7524657746963808       0.60000002384185791       0.60000002384185791       0.60000002384185791       0.80000001192092896     
   5.1331775874892909       0.68237114277538102        3.7524657746963808       0.60000002384185791       0.60000002384185791       0.60000002384185791       0.80000001192092896     
  -3.7845418242921838      -0.66012502917326332        3.5885653274392331        1.0000000000000000        1.0000000000000000        0.0000000000000000        1.0000000000000000     
   8.8723121567798550E-003  -3.0208057979575760E-017   1.0382578837327854        1.0000000000000000        1.0000000000000000        0.0000000000000000        1.0000000000000000     
  -2.3429029046361407        5.9363048372553671E-017   3.3224604337265320       0.60000002384185791       0.60000002384185791       0.60000002384185791       0.80000001192092896     
  
   3   0  20  46
   3   0  46  20
   4   0  46  55   1
   3   1  55  21
   4   1  55  46   0
   3   1  21  55
   3   2  35  28
   3   2  35  31
   3   2  31  35
   3   2  31   6
   3   2   6  31
   3   2   9  28
   3   2  28  35
   3   2  28   9
   3   3  22  53
   3   3  53  22
   4   3  53  54   4
   3   4  54  23
   4   4  54  53   3
   3   4  23  54
   3   5   7  32
   3   5  32  36
   3   5  32   7
   3   5  36  32
   3   5  36  27
   3   5  27  36
   3   5  27   8
   3   5   8  27
   3   6   2  31
   3   6  31   2
   3   6  31  24
   3   6  24  10
   3   6  24  31
   3   6  10  24
   3   7  11  37
   3   7  37  32
   3   7  37  11
   3   7  32  37
   3   7  32   5
   3   7   5  32
   3   8   5  27
   3   8  27   5
   3   8  27  33
   3   8  33  12
   3   8  33  27
   3   8  12  33
   3   9  13  34
   3   9  34  28
   3   9  34  13
   3   9  28  34
   3   9  28   2
   3   9   2  28
   3  10   6  24
   3  10  24  14
   3  10  24   6
   3  10  14  24
   3  11  15  37
   3  11  37   7
   3  11  37  15
   3  11   7  37
   3  12   8  33
   3  12  33  16
   3  12  33   8
   3  12  16  33
   3  13  17  34
   3  13  34   9
   3  13  34  17
   3  13   9  34
   3  14  10  24
   3  14  24  38
   3  14  24  10
   3  14  38  18
   3  14  38  24
   3  14  18  38
   3  15  19  45
   3  15  45  37
   3  15  45  19
   3  15  37  45
   3  15  37  11
   3  15  11  37
   3  16  12  33
   3  16  33  46
   3  16  33  12
   3  16  46  20
   3  16  46  33
   3  16  20  46
   3  17  21  55
   3  17  55  34
   3  17  55  21
   3  17  34  55
   3  17  34  13
   3  17  13  34
   3  18  14  38
   3  18  38  22
   3  18  38  14
   3  18  22  38
   3  19  23  45
   3  19  45  15
   3  19  45  23
   3  19  15  45
   3  20  16  46
   3  20  46   0
   3  20  46  16
   3  20   0  46
   3  21   1  55
   3  21  55   1
   3  21  55  17
   3  21  17  55
   3  22  18  38
   3  22  38  53
   3  22  38  18
   3  22  53   3
   3  22  53  38
   3  22   3  53
   3  23   4  54
   3  23  54   4
   3  23  54  45
   3  23  45  54
   3  23  45  19
   3  23  19  45
   3  24  38  14
   4  24  38  45  37
   3  24  14  10
   3  24  14  38
   3  24  10   6
   3  24  10  14
   3  24   6  31
   3  24   6  10
   3  24  31  26
   3  24  31   6
   3  24  26  47
   3  24  26  31
   3  24  47  37
   3  24  47  26
   3  24  37  47
   4  24  37  45  38
   3  25  37  47
   3  25  37  32
   3  25  47  37
   3  25  47  48
   3  25  48  43
   3  25  48  47
   3  25  43  32
   3  25  43  48
   3  25  32  37
   3  25  32  43
   3  26  49  47
   3  26  49  44
   3  26  47  24
   3  26  47  49
   3  26  24  31
   3  26  24  47
   3  26  31  44
   3  26  31  24
   3  26  44  31
   3  26  44  49
   3  27   5  36
   3  27   5   8
   3  27  36  40
   3  27  36   5
   3  27  40  33
   3  27  40  36
   3  27  33   8
   3  27  33  40
   3  27   8   5
   3  27   8  33
   3  28  34  39
   3  28  34   9
   3  28  39  35
   3  28  39  34
   3  28  35  39
   3  28  35   2
   3  28   2  35
   3  28   2   9
   3  28   9  34
   3  28   9   2
   3  29  33  40
   3  29  33  57
   3  29  40  33
   4  29  40  56  42
   3  29  30  57
   4  29  30  41  42
   3  29  57  30
   3  29  57  33
   3  30  34  57
   3  30  34  39
   3  30  57  29
   3  30  57  34
   3  30  29  57
   4  30  29  42  41
   3  30  39  34
   4  30  39  56  41
   3  31   2  35
   3  31   2   6
   3  31  35  44
   3  31  35   2
   3  31  44  26
   3  31  44  35
   3  31  26  24
   3  31  26  44
   3  31  24   6
   3  31  24  26
   3  31   6   2
   3  31   6  24
   3  32  37  25
   3  32  37   7
   3  32  25  37
   3  32  25  43
   3  32  43  36
   3  32  43  25
   3  32  36  43
   3  32  36   5
   3  32   5   7
   3  32   5  36
   3  32   7  37
   3  32   7   5
   3  33  46  16
   3  33  46  57
   3  33  16  12
   3  33  16  46
   3  33  12   8
   3  33  12  16
   3  33   8  27
   3  33   8  12
   3  33  27  40
   3  33  27   8
   3  33  40  29
   3  33  40  27
   3  33  29  40
   3  33  29  57
   3  33  57  29
   3  33  57  46
   3  34  55  57
   3  34  55  17
   3  34  57  30
   3  34  57  55
   3  34  30  57
   3  34  30  39
   3  34  39  28
   3  34  39  30
   3  34  28  39
   3  34  28   9
   3  34   9  13
   3  34   9  28
   3  34  13  17
   3  34  13   9
   3  34  17  55
   3  34  17  13
   3  35  28  39
   3  35  28   2
   3  35  39  28
   3  35  39  51
   3  35  51  44
   3  35  51  39
   3  35  44  31
   3  35  44  51
   3  35  31   2
   3  35  31  44
   3  35   2  31
   3  35   2  28
   3  36  32  43
   3  36  32   5
   3  36  43  32
   3  36  43  50
   3  36  50  40
   3  36  50  43
   3  36  40  27
   3  36  40  50
   3  36  27   5
   3  36  27  40
   3  36   5  32
   3  36   5  27
   3  37  45  15
   4  37  45  38  24
   3  37  24  47
   4  37  24  38  45
   3  37  47  24
   3  37  47  25
   3  37  25  47
   3  37  25  32
   3  37  32  25
   3  37  32   7
   3  37   7  11
   3  37   7  32
   3  37  11  15
   3  37  11   7
   3  37  15  45
   3  37  15  11
   3  38  53  22
   4  38  53  54  45
   3  38  22  18
   3  38  22  53
   3  38  18  14
   3  38  18  22
   3  38  14  24
   3  38  14  18
   3  38  24  14
   4  38  24  37  45
   3  39  35  28
   3  39  35  51
   3  39  28  34
   3  39  28  35
   3  39  34  30
   3  39  34  28
   3  39  30  34
   4  39  30  41  56
   3  39  56  51
   4  39  56  44  35
   3  39  51  35
   3  39  51  56
   3  40  29  33
   4  40  29  42  56
   3  40  33  27
   3  40  33  29
   3  40  27  36
   3  40  27  33
   3  40  36  50
   3  40  36  27
   3  40  50  36
   3  40  50  56
   3  40  56  50
   4  40  56  43  36
   3  41  56  42
   4  41  56  39  30
   3  41  42  56
   4  41  42  29  30
   3  42  56  41
   4  42  56  40  29
   3  42  41  56
   4  42  41  30  29
   3  43  36  32
   3  43  36  50
   3  43  32  25
   3  43  32  36
   3  43  25  48
   3  43  25  32
   3  43  48  25
   3  43  48  56
   3  43  56  50
   3  43  56  48
   3  43  50  36
   3  43  50  56
   3  44  26  49
   3  44  26  31
   3  44  31  35
   3  44  31  26
   3  44  35  51
   3  44  35  31
   3  44  51  35
   3  44  51  56
   3  44  56  49
   3  44  56  51
   3  44  49  26
   3  44  49  56
   3  45  54  23
   4  45  54  53  38
   3  45  37  15
   4  45  37  24  38
   3  45  15  19
   3  45  15  37
   3  45  19  23
   3  45  19  15
   3  45  23  54
   3  45  23  19
   3  46   0  20
   4  46   0   1  55
   3  46  20  16
   3  46  20   0
   3  46  16  33
   3  46  16  20
   3  46  33  16
   3  46  33  57
   3  46  57  55
   3  46  57  33
   3  46  55  57
   4  46  55   1   0
   3  47  37  24
   3  47  37  25
   3  47  24  26
   3  47  24  37
   3  47  26  49
   3  47  26  24
   3  47  49  26
   3  47  49  52
   3  47  52  48
   3  47  52  49
   3  47  48  25
   3  47  48  52
   3  47  25  37
   3  47  25  48
   3  48  43  25
   3  48  43  56
   3  48  25  47
   3  48  25  43
   3  48  47  52
   3  48  47  25
   3  48  52  47
   3  48  52  56
   3  48  56  43
   3  48  56  52
   3  49  47  26
   3  49  47  52
   3  49  26  47
   3  49  26  44
   3  49  44  26
   3  49  44  56
   3  49  56  52
   3  49  56  44
   3  49  52  47
   3  49  52  56
   3  50  40  36
   3  50  40  56
   3  50  36  43
   3  50  36  40
   3  50  43  36
   3  50  43  56
   3  50  56  43
   3  50  56  40
   3  51  44  35
   3  51  44  56
   3  51  35  39
   3  51  35  44
   3  51  39  35
   3  51  39  56
   3  51  56  44
   3  51  56  39
   3  52  48  47
   3  52  48  56
   3  52  47  49
   3  52  47  48
   3  52  49  47
   3  52  49  56
   3  52  56  48
   3  52  56  49
   3  53   3  22
   4  53   3   4  54
   3  53  22  38
   3  53  22   3
   3  53  38  22
   4  53  38  45  54
   3  54   4  23
   4  54   4   3  53
   3  54  45  23
   4  54  45  38  53
   3  54  23   4
   3  54  23  45
   3  55   1  21
   4  55   1   0  46
   3  55  46  57
   4  55  46   0   1
   3  55  57  34
   3  55  57  46
   3  55  34  57
   3  55  34  17
   3  55  17  21
   3  55  17  34
   3  55  21   1
   3  55  21  17
   3  56  50  40
   3  56  50  43
   3  56  43  48
   3  56  43  50
   3  56  48  43
   3  56  48  52
   3  56  52  48
   3  56  52  49
   3  56  49  44
   3  56  49  52
   3  56  44  51
   3  56  44  49
   3  56  51  44
   3  56  51  39
   3  56  39  51
   4  56  39  35  44
   3  56  41  42
   4  56  41  30  39
   3  56  42  41
   4  56  42  29  40
   3  56  40  50
   4  56  40  29  42
   3  57  29  33
   3  57  29  30
   3  57  30  34
   3  57  30  29
   3  57  34  55
   3  57  34  30
   3  57  55  46
   3  57  55  34
   3  57  46  33
   3  57  46  55
   3  57  33  46
   3  57  33  29
