# Generated by dad_to_polygons. Vertex data from Humppa's .off file,
# polygons parsed from .dad file.
COFF
77 248 77
-6.303799 0.845747 5.071096 0.500000 0.500000 0.500000 1.0
-6.303799 -0.845747 5.071096 0.500000 0.500000 0.500000 1.0
-0.028102 -1.909320 4.683131 0.500000 0.500000 0.500000 1.0
7.230652 -0.834557 5.098192 0.500000 0.500000 0.500000 1.0
7.230652 0.834557 5.098192 0.500000 0.500000 0.500000 1.0
-0.028102 1.909320 4.683131 0.500000 0.500000 0.500000 1.0
1.073626 -1.571097 4.846679 0.500000 0.500000 0.500000 1.0
1.073626 1.571097 4.846679 0.500000 0.500000 0.500000 1.0
-1.110681 1.554128 4.816874 0.500000 0.500000 0.500000 1.0
-1.110681 -1.554128 4.816874 0.500000 0.500000 0.500000 1.0
1.983875 -1.242060 5.098948 0.500000 0.500000 0.500000 1.0
1.983875 1.242060 5.098948 0.500000 0.500000 0.500000 1.0
-2.026611 1.247287 5.075302 0.500000 0.500000 0.500000 1.0
-2.026611 -1.247287 5.075302 0.500000 0.500000 0.500000 1.0
3.078020 -1.220967 5.037690 0.500000 0.500000 0.500000 1.0
3.078020 1.220967 5.037690 0.500000 0.500000 0.500000 1.0
-3.022227 1.182345 5.016302 0.500000 0.500000 0.500000 1.0
-3.022227 -1.182345 5.016302 0.500000 0.500000 0.500000 1.0
4.080084 -1.158843 5.016759 0.500000 0.500000 0.500000 1.0
4.080084 1.158843 5.016759 0.500000 0.500000 0.500000 1.0
-4.018599 1.099351 5.032546 0.500000 0.500000 0.500000 1.0
-4.018599 -1.099351 5.032546 0.500000 0.500000 0.500000 1.0
5.082421 -1.034338 5.050994 0.500000 0.500000 0.500000 1.0
5.082421 1.034338 5.050994 0.500000 0.500000 0.500000 1.0
-5.013936 0.998303 5.033764 0.500000 0.500000 0.500000 1.0
-5.013936 -0.998303 5.033764 0.500000 0.500000 0.500000 1.0
6.077203 -0.934388 5.075973 0.500000 0.500000 0.500000 1.0
6.077203 0.934388 5.075973 0.500000 0.500000 0.500000 1.0
-1.099218 -1.511434 3.931353 0.500000 0.500000 0.500000 1.0
-1.912695 0.795621 2.863800 0.500000 0.500000 0.500000 1.0
-1.912695 -0.795621 2.863800 0.500000 0.500000 0.500000 1.0
1.015375 -1.504956 3.723811 0.500000 0.500000 0.500000 1.0
1.015375 1.504956 3.723811 0.500000 0.500000 0.500000 1.0
-2.231395 1.149333 3.958915 0.500000 0.500000 0.500000 1.0
-2.231395 -1.149333 3.958915 0.500000 0.500000 0.500000 1.0
0.018749 -1.634211 3.512046 0.500000 0.500000 0.500000 1.0
0.018749 1.634211 3.512046 0.500000 0.500000 0.500000 1.0
2.222990 1.123385 4.047425 0.500000 0.500000 0.500000 1.0
3.750339 -0.618732 3.310500 1.0 1.0 0.0 1.0
-0.759785 -1.456226 3.030303 0.500000 0.500000 0.500000 1.0
-0.759785 1.456226 3.030303 0.500000 0.500000 0.500000 1.0
-1.464037 -0.716516 1.724285 0.500000 0.500000 0.500000 1.0
-1.464037 0.716516 1.724285 0.500000 0.500000 0.500000 1.0
0.908617 1.439395 2.677614 0.500000 0.500000 0.500000 1.0
0.908617 -1.439395 2.677614 0.500000 0.500000 0.500000 1.0
3.750339 0.618732 3.310500 1.0 1.0 0.0 1.0
-4.027245 0.660614 3.588565 1.0 1.0 0.0 1.0
1.973341 0.000000 3.123140 0.500000 0.500000 0.500000 1.0
1.331161 1.025728 2.398162 0.500000 0.500000 0.500000 1.0
1.331161 -1.025728 2.398162 0.500000 0.500000 0.500000 1.0
0.079442 1.470118 2.554469 0.500000 0.500000 0.500000 1.0
0.079442 -1.470118 2.554469 0.500000 0.500000 0.500000 1.0
1.557312 0.000000 2.240867 0.500000 0.500000 0.500000 1.0
5.589367 -0.855563 4.335147 0.500000 0.500000 0.500000 1.0
5.589367 0.855563 4.335147 0.500000 0.500000 0.500000 1.0
-4.027245 -0.660614 3.588565 1.0 1.0 0.0 1.0
0.055649 0.000000 1.038258 1.0 1.0 0.0 1.0
-2.580311 0.000000 3.352700 0.500000 0.500000 0.500000 1.0
-5.341265 0.819409 4.346174 0.500000 0.500000 0.500000 1.0
-5.341265 -0.819409 4.346174 0.500000 0.500000 0.500000 1.0
-0.421620 -1.219241 2.232700 0.500000 0.500000 0.500000 1.0
-0.421620 1.219241 2.232700 0.500000 0.500000 0.500000 1.0
2.222972 0.000000 3.895180 0.500000 0.500000 0.500000 1.0
2.222990 -1.123385 4.047425 0.500000 0.500000 0.500000 1.0
1.521963 1.310731 3.304576 0.500000 0.500000 0.500000 1.0
0.695791 1.032284 1.853388 0.500000 0.500000 0.500000 1.0
0.695791 -1.032284 1.853388 0.500000 0.500000 0.500000 1.0
1.521963 -1.310731 3.304576 0.500000 0.500000 0.500000 1.0
-1.099218 1.511434 3.931353 0.500000 0.500000 0.500000 1.0
4.493598 -0.993791 4.404504 0.500000 0.500000 0.500000 1.0
4.493598 0.993791 4.404504 0.500000 0.500000 0.500000 1.0
0.905431 0.600980 1.682578 0.500000 0.500000 0.500000 1.0
0.905431 -0.600980 1.682578 0.500000 0.500000 0.500000 1.0
4.931311 -0.705498 3.740996 0.500000 0.500000 0.500000 1.0
4.931311 0.705498 3.740996 0.500000 0.500000 0.500000 1.0
0.016166 0.893604 1.779748 0.500000 0.500000 0.500000 1.0
0.016166 -0.893604 1.779748 0.500000 0.500000 0.500000 1.0
3 0 1 59
3 0 59 1
3 0 59 58
3 0 58 59
3 1 25 59
3 1 59 25
3 2 31 6
3 2 6 31
3 3 53 26
3 3 26 53
3 4 27 54
3 4 54 27
3 4 53 3
3 4 3 53
3 4 54 53
3 4 53 54
3 5 32 36
3 5 36 32
3 5 36 68
3 5 68 36
3 6 63 10
3 6 10 63
3 7 32 5
3 7 5 32
3 8 12 33
3 8 33 12
3 11 37 7
3 11 7 37
3 13 17 34
3 13 34 17
3 13 34 9
3 13 9 34
3 14 38 18
3 14 18 38
3 14 63 10
3 14 10 63
3 14 63 38
3 14 38 63
3 15 19 45
3 15 45 19
3 15 37 11
3 15 11 37
3 16 12 33
3 16 33 12
3 17 55 34
3 17 34 55
3 18 38 69
3 18 69 38
3 18 69 22
3 18 22 69
3 19 45 70
3 19 70 45
3 19 70 23
3 19 23 70
3 20 24 46
3 20 46 24
3 20 46 16
3 20 16 46
3 21 25 55
3 21 55 25
3 21 55 17
3 21 17 55
3 22 53 26
3 22 26 53
3 22 53 69
3 22 69 53
3 24 0 58
3 24 58 0
3 25 59 55
3 25 55 59
3 28 2 9
3 28 9 2
3 28 35 2
3 28 2 35
3 28 39 35
3 28 35 39
3 29 33 40
3 29 40 33
3 29 40 61
3 29 61 40
3 29 57 30
3 29 30 57
3 29 57 33
3 29 33 57
3 29 61 42
3 29 42 61
3 30 34 57
3 30 57 34
3 30 39 34
3 30 34 39
3 30 41 42
3 30 42 41
3 30 41 60
3 30 60 41
3 30 42 29
3 30 29 42
3 30 60 39
3 30 39 60
3 31 2 35
3 31 35 2
3 31 6 63
3 31 63 6
3 31 63 67
3 31 67 63
3 31 67 44
3 31 44 67
3 32 37 7
3 32 7 37
3 32 43 36
3 32 36 43
3 32 64 43
3 32 43 64
3 33 46 16
3 33 16 46
3 33 46 57
3 33 57 46
3 34 9 28
3 34 28 9
3 34 28 39
3 34 39 28
3 34 57 55
3 34 55 57
3 35 44 31
3 35 31 44
3 35 51 39
3 35 39 51
3 35 51 44
3 35 44 51
3 36 68 40
3 36 40 68
3 37 15 45
3 37 45 15
3 37 45 62
3 37 62 45
3 37 64 32
3 37 32 64
3 37 64 47
3 37 47 64
3 38 53 69
3 38 69 53
3 38 62 63
3 38 63 62
3 38 73 53
3 38 53 73
3 38 73 74
3 38 74 73
3 38 74 45
3 38 45 74
3 39 60 51
3 39 51 60
3 40 33 68
3 40 68 33
3 40 36 50
3 40 50 36
3 40 50 61
3 40 61 50
3 43 36 50
3 43 50 36
3 43 50 65
3 43 65 50
3 44 49 67
3 44 67 49
3 45 62 38
3 45 38 62
3 46 58 59
3 46 59 58
3 46 59 55
3 46 55 59
3 47 48 52
3 47 52 48
3 47 48 64
3 47 64 48
3 47 52 49
3 47 49 52
3 47 62 37
3 47 37 62
3 47 67 49
3 47 49 67
3 48 43 64
3 48 64 43
3 48 52 71
3 48 71 52
3 48 65 43
3 48 43 65
3 48 65 71
3 48 71 65
3 49 66 44
3 49 44 66
3 49 66 72
3 49 72 66
3 49 72 52
3 49 52 72
3 51 66 44
3 51 44 66
3 52 71 56
3 52 56 71
3 54 23 27
3 54 27 23
3 54 73 53
3 54 53 73
3 54 74 73
3 54 73 74
3 55 57 46
3 55 46 57
3 56 41 42
3 56 42 41
3 56 41 60
3 56 60 41
3 56 60 76
3 56 76 60
3 56 61 42
3 56 42 61
3 56 65 71
3 56 71 65
3 56 66 76
3 56 76 66
3 56 72 66
3 56 66 72
3 56 75 65
3 56 65 75
3 58 24 46
3 58 46 24
3 61 50 75
3 61 75 50
3 61 75 56
3 61 56 75
3 62 63 47
3 62 47 63
3 65 50 75
3 65 75 50
3 67 47 63
3 67 63 47
3 68 5 8
3 68 8 5
3 68 8 33
3 68 33 8
3 70 23 54
3 70 54 23
3 70 45 74
3 70 74 45
3 70 74 54
3 70 54 74
3 72 52 56
3 72 56 52
3 76 51 60
3 76 60 51
3 76 66 51
3 76 51 66
