 COFF
          90         844          90
  
  -6.3607564874245197       0.89518261407912358        5.4069531524696384       0.60000002384185791       0.60000002384185791       0.60000002384185791       0.80000001192092896     
  -6.3607564874245188      -0.89518261407912370        5.4069531524696375       0.60000002384185791       0.60000002384185791       0.60000002384185791       0.80000001192092896     
  -2.8733933785237864E-002  -1.9715806307385775        5.0237910287438226       0.60000002384185791       0.60000002384185791       0.60000002384185791       0.80000001192092896     
   7.2740647253420727      -0.87398203222643112        5.4515022647297409       0.60000002384185791       0.60000002384185791       0.60000002384185791       0.80000001192092896     
   7.2740647253420727       0.87398203222643112        5.4515022647297409       0.60000002384185791       0.60000002384185791       0.60000002384185791       0.80000001192092896     
  -2.8733933785237788E-002   1.9715806307385773        5.0237910287438226       0.60000002384185791       0.60000002384185791       0.60000002384185791       0.80000001192092896     
   1.0896174127266560       -1.6363974938719070        5.1837310481390908       0.60000002384185791       0.60000002384185791       0.60000002384185791       0.80000001192092896     
   1.0896174127266549        1.6363974938719075        5.1837310481390944       0.60000002384185791       0.60000002384185791       0.60000002384185791       0.80000001192092896     
  -1.1231007732396328        1.6176845035255194        5.1557766967716772       0.60000002384185791       0.60000002384185791       0.60000002384185791       0.80000001192092896     
  -1.1231007732396290       -1.6176845035255194        5.1557766967716780       0.60000002384185791       0.60000002384185791       0.60000002384185791       0.80000001192092896     
   2.0013605925405242       -1.3121479353581782        5.4367825936958365       0.60000002384185791       0.60000002384185791       0.60000002384185791       0.80000001192092896     
   2.0013605925405229        1.3121479353581764        5.4367825936958374       0.60000002384185791       0.60000002384185791       0.60000002384185791       0.80000001192092896     
  -2.0404753856476248        1.3158691087177015        5.4151385815214095       0.60000002384185791       0.60000002384185791       0.60000002384185791       0.80000001192092896     
  -2.0404753856476217       -1.3158691087177010        5.4151385815214077       0.60000002384185791       0.60000002384185791       0.60000002384185791       0.80000001192092896     
   3.0744128826257073       -1.3293895974915972        5.3480051124142136       0.60000002384185791       0.60000002384185791       0.60000002384185791       0.80000001192092896     
   3.0744128826257064        1.3293895974915972        5.3480051124142127       0.60000002384185791       0.60000002384185791       0.60000002384185791       0.80000001192092896     
  -3.0342447784680440        1.2965589394984383        5.3090644473987467       0.60000002384185791       0.60000002384185791       0.60000002384185791       0.80000001192092896     
  -3.0342447784680409       -1.2965589394984374        5.3090644473987441       0.60000002384185791       0.60000002384185791       0.60000002384185791       0.80000001192092896     
   4.0919638487229424       -1.2785737083837130        5.3038033656058001       0.60000002384185791       0.60000002384185791       0.60000002384185791       0.80000001192092896     
   4.0919638487229406        1.2785737083837128        5.3038033656057992       0.60000002384185791       0.60000002384185791       0.60000002384185791       0.80000001192092896     
  -4.0319908580868127        1.2278265186025934        5.3117392475931293       0.60000002384185791       0.60000002384185791       0.60000002384185791       0.80000001192092896     
  -4.0319908580868109       -1.2278265186025936        5.3117392475931293       0.60000002384185791       0.60000002384185791       0.60000002384185791       0.80000001192092896     
   5.0926383088508995       -1.1184086893926215        5.3796377356837590       0.60000002384185791       0.60000002384185791       0.60000002384185791       0.80000001192092896     
   5.0926383088509022        1.1184086893926208        5.3796377356837590       0.60000002384185791       0.60000002384185791       0.60000002384185791       0.80000001192092896     
  -5.0283747725907233        1.1129123599899147        5.3277872798642898       0.60000002384185791       0.60000002384185791       0.60000002384185791       0.80000001192092896     
  -5.0283747725907206       -1.1129123599899151        5.3277872798642898       0.60000002384185791       0.60000002384185791       0.60000002384185791       0.80000001192092896     
   6.0842837502335669      -0.99625983432148413        5.4248488841258959       0.60000002384185791       0.60000002384185791       0.60000002384185791       0.80000001192092896     
   6.0842837502335696       0.99625983432148491        5.4248488841258968       0.60000002384185791       0.60000002384185791       0.60000002384185791       0.80000001192092896     
  -1.0633400745652113       -1.5801678528936445        4.2476791556602826       0.60000002384185791       0.60000002384185791       0.60000002384185791       0.80000001192092896     
  -1.9426034442547462       0.85225619476126591        3.1174017797440969       0.60000002384185791       0.60000002384185791       0.60000002384185791       0.80000001192092896     
  -1.9426034442547295      -0.85225619476130721        3.1174017797441080       0.60000002384185791       0.60000002384185791       0.60000002384185791       0.80000001192092896     
   1.0753790259206990       -1.5536317760444411        4.0345943863217295       0.60000002384185791       0.60000002384185791       0.60000002384185791       0.80000001192092896     
   1.0753790259206952        1.5536317760444311        4.0345943863217268       0.60000002384185791       0.60000002384185791       0.60000002384185791       0.80000001192092896     
  -2.2008629511812967        1.2375172536693413        4.2697666578669144       0.60000002384185791       0.60000002384185791       0.60000002384185791       0.80000001192092896     
  -2.2008629511812945       -1.2375172536693395        4.2697666578669127       0.60000002384185791       0.60000002384185791       0.60000002384185791       0.80000001192092896     
   2.8528283579135616E-002  -1.6922615470455151        3.8075434293451762       0.60000002384185791       0.60000002384185791       0.60000002384185791       0.80000001192092896     
   2.8528283579010043E-002   1.6922615470448898        3.8075434293451749       0.60000002384185791       0.60000002384185791       0.60000002384185791       0.80000001192092896     
   2.3056402322483747        1.1994951007253083        4.3167279739090674       0.60000002384185791       0.60000002384185791       0.60000002384185791       0.80000001192092896     
   3.7291708725359136      -0.61879156458964402        3.3105001657960162        1.0000000000000000        1.0000000000000000        0.0000000000000000        1.0000000000000000     
 -0.80322373615407761       -1.5273451361493786        3.3272072890191002       0.60000002384185791       0.60000002384185791       0.60000002384185791       0.80000001192092896     
 -0.80322373615403542        1.5273451361492227        3.3272072890191189       0.60000002384185791       0.60000002384185791       0.60000002384185791       0.80000001192092896     
  -1.4478413821097524      -0.81549655720526271        1.8678107784048155       0.60000002384185791       0.60000002384185791       0.60000002384185791       0.80000001192092896     
  -1.4478413821097571       0.81549655720525283        1.8678107784048072       0.60000002384185791       0.60000002384185791       0.60000002384185791       0.80000001192092896     
  0.94643333272245733        1.5167692791840341        2.9786007572846538       0.60000002384185791       0.60000002384185791       0.60000002384185791       0.80000001192092896     
  0.94643333272242780       -1.5167692791842091        2.9786007572846827       0.60000002384185791       0.60000002384185791       0.60000002384185791       0.80000001192092896     
   3.7291708725359136       0.61879156458964457        3.3105001657960162        1.0000000000000000        1.0000000000000000        0.0000000000000000        1.0000000000000000     
  -4.1505921999314515       0.66056161770653476        3.5885653274392326        1.0000000000000000        1.0000000000000000        0.0000000000000000        1.0000000000000000     
   2.0314811165649069       -1.3002906794630478E-015   3.4136351820126056       0.60000002384185791       0.60000002384185791       0.60000002384185791       0.80000001192092896     
   1.3578876351442082        1.1157879160050559        2.6831740733810916       0.60000002384185791       0.60000002384185791       0.60000002384185791       0.80000001192092896     
   1.3578876351442237       -1.1157879160050690        2.6831740733810761       0.60000002384185791       0.60000002384185791       0.60000002384185791       0.80000001192092896     
  0.11541115977812445        1.5692028755216083        2.8269772129948842       0.60000002384185791       0.60000002384185791       0.60000002384185791       0.80000001192092896     
  0.11541115977801591       -1.5692028755218039        2.8269772129948820       0.60000002384185791       0.60000002384185791       0.60000002384185791       0.80000001192092896     
   1.5989848801268034       -6.4839216226904767E-015   2.4655379239204533       0.60000002384185791       0.60000002384185791       0.60000002384185791       0.80000001192092896     
   5.5746855453221373      -0.97636912384383656        4.6879152413599918       0.60000002384185791       0.60000002384185791       0.60000002384185791       0.80000001192092896     
   5.5746855453221382       0.97636912384383678        4.6879152413599918       0.60000002384185791       0.60000002384185791       0.60000002384185791       0.80000001192092896     
  -4.1505921999314506      -0.66056161770653565        3.5885653274392331        1.0000000000000000        1.0000000000000000        0.0000000000000000        1.0000000000000000     
   6.9692403150148186E-002  -1.8647596608675378E-016   1.0382578837327854        1.0000000000000000        1.0000000000000000        0.0000000000000000        1.0000000000000000     
  -2.6900351384604129        6.1676471689794809E-016   3.4554555260469395       0.60000002384185791       0.60000002384185791       0.60000002384185791       0.80000001192092896     
  -5.4934406142907708       0.91658977296402833        4.6225489419740047       0.60000002384185791       0.60000002384185791       0.60000002384185791       0.80000001192092896     
  -5.4934406142907690      -0.91658977296402888        4.6225489419740047       0.60000002384185791       0.60000002384185791       0.60000002384185791       0.80000001192092896     
 -0.52908351978556412       -1.3679370366366963        2.5459711977141040       0.60000002384185791       0.60000002384185791       0.60000002384185791       0.80000001192092896     
 -0.52908351978555901        1.3679370366366379        2.5459711977141191       0.60000002384185791       0.60000002384185791       0.60000002384185791       0.80000001192092896     
   2.3053287403742861       -1.0830303812646086E-016   4.0827576682271980       0.60000002384185791       0.60000002384185791       0.60000002384185791       0.80000001192092896     
   2.3056402322483760       -1.1994951007253087        4.3167279739090674       0.60000002384185791       0.60000002384185791       0.60000002384185791       0.80000001192092896     
   1.5380301546681991        1.3859260658429755        3.6269198734235411       0.60000002384185791       0.60000002384185791       0.60000002384185791       0.80000001192092896     
  0.79433418224998864        1.2480679544227959        2.0785915486810640       0.60000002384185791       0.60000002384185791       0.60000002384185791       0.80000001192092896     
  0.79433418224997787       -1.2480679544228186        2.0785915486810733       0.60000002384185791       0.60000002384185791       0.60000002384185791       0.80000001192092896     
   1.5380301546681947       -1.3859260658429766        3.6269198734235113       0.60000002384185791       0.60000002384185791       0.60000002384185791       0.80000001192092896     
  -1.0633400745652104        1.5801678528936351        4.2476791556602826       0.60000002384185791       0.60000002384185791       0.60000002384185791       0.80000001192092896     
   4.5570577606509177       -1.1789445174049213        4.7360240938679263       0.60000002384185791       0.60000002384185791       0.60000002384185791       0.80000001192092896     
   4.5570577606509186        1.1789445174049211        4.7360240938679263       0.60000002384185791       0.60000002384185791       0.60000002384185791       0.80000001192092896     
   1.1224457798638254       0.77473567684450639        1.8651016196047077       0.60000002384185791       0.60000002384185791       0.60000002384185791       0.80000001192092896     
   1.1224457798638268      -0.77473567684450517        1.8651016196047070       0.60000002384185791       0.60000002384185791       0.60000002384185791       0.80000001192092896     
   5.2811351496150696      -0.77914451175914201        3.8339650288962179       0.60000002384185791       0.60000002384185791       0.60000002384185791       0.80000001192092896     
   5.2811351496150696       0.77914451175914212        3.8339650288962179       0.60000002384185791       0.60000002384185791       0.60000002384185791       0.80000001192092896     
   5.7884575984692245E-002   1.1938734361580288        1.9465345732249777       0.60000002384185791       0.60000002384185791       0.60000002384185791       0.80000001192092896     
   5.7884575984671269E-002  -1.1938734361580468        1.9465345732249717       0.60000002384185791       0.60000002384185791       0.60000002384185791       0.80000001192092896     
   3.5045705078253198       -1.1191845998317140        4.3946404317813039       0.60000002384185791       0.60000002384185791       0.60000002384185791       0.80000001192092896     
   3.5045705078253189        1.1191845998317147        4.3946404317813039       0.60000002384185791       0.60000002384185791       0.60000002384185791       0.80000001192092896     
  -3.0865545228349505        1.0221009262285330        3.9511514658277314       0.60000002384185791       0.60000002384185791       0.60000002384185791       0.80000001192092896     
  -3.0865545228349500       -1.0221009262285328        3.9511514658277309       0.60000002384185791       0.60000002384185791       0.60000002384185791       0.80000001192092896     
   1.0323887418804394       -4.6152008362051219E-015   1.7194882909060942       0.60000002384185791       0.60000002384185791       0.60000002384185791       0.80000001192092896     
  -3.5604149145152797        1.0724394797772177        4.4815675545809412       0.60000002384185791       0.60000002384185791       0.60000002384185791       0.80000001192092896     
  -3.5604149145152792       -1.0724394797772183        4.4815675545809404       0.60000002384185791       0.60000002384185791       0.60000002384185791       0.80000001192092896     
   3.9467012888971720       -1.0503029640718502        4.3185712223184840       0.60000002384185791       0.60000002384185791       0.60000002384185791       0.80000001192092896     
   3.9467012888971720        1.0503029640718509        4.3185712223184831       0.60000002384185791       0.60000002384185791       0.60000002384185791       0.80000001192092896     
 -0.24266609818723425      -0.78791423143976391        1.7360306408782682       0.60000002384185791       0.60000002384185791       0.60000002384185791       0.80000001192092896     
 -0.24266609818723933       0.78791423143976425        1.7360306408782715       0.60000002384185791       0.60000002384185791       0.60000002384185791       0.80000001192092896     
  -4.5894834862385858       0.88673698884387708        4.4581763036517614       0.60000002384185791       0.60000002384185791       0.60000002384185791       0.80000001192092896     
  -4.5894834862385858      -0.88673698884387808        4.4581763036517614       0.60000002384185791       0.60000002384185791       0.60000002384185791       0.80000001192092896     
  
   3   0  24  58
   3   0  58  24
   4   0  58  59   1
   3   1  59  25
   4   1  59  58   0
   3   1  25  59
   3   2  35  28
   3   2  35  31
   3   2  31  35
   3   2  31   6
   3   2   6  31
   3   2   9  28
   3   2  28  35
   3   2  28   9
   3   3  26  53
   3   3  53  26
   4   3  53  54   4
   3   4  54  27
   4   4  54  53   3
   3   4  27  54
   3   5   7  32
   3   5  32  36
   3   5  32   7
   3   5  36  32
   3   5  36  68
   3   5  68  36
   3   5  68   8
   3   5   8  68
   3   6   2  31
   3   6  31   2
   3   6  31  63
   3   6  63  10
   3   6  63  31
   3   6  10  63
   3   7  11  37
   3   7  37  32
   3   7  37  11
   3   7  32  37
   3   7  32   5
   3   7   5  32
   3   8   5  68
   3   8  68   5
   3   8  68  33
   3   8  33  12
   3   8  33  68
   3   8  12  33
   3   9  13  34
   3   9  34  28
   3   9  34  13
   3   9  28  34
   3   9  28   2
   3   9   2  28
   3  10   6  63
   3  10  63  14
   3  10  63   6
   3  10  14  63
   3  11  15  37
   3  11  37   7
   3  11  37  15
   3  11   7  37
   3  12   8  33
   3  12  33  16
   3  12  33   8
   3  12  16  33
   3  13  17  34
   3  13  34   9
   3  13  34  17
   3  13   9  34
   3  14  10  63
   3  14  63  77
   3  14  63  10
   3  14  77  63
   3  14  77  18
   3  14  18  77
   3  15  19  78
   3  15  78  19
   3  15  78  37
   3  15  37  11
   3  15  37  78
   3  15  11  37
   3  16  12  33
   3  16  33  79
   3  16  33  12
   3  16  79  82
   3  16  79  33
   3  16  82  79
   3  16  82  20
   3  16  20  82
   4  16  20  46  79
   3  17  21  83
   4  17  21  55  80
   3  17  83  21
   3  17  83  80
   3  17  80  83
   3  17  80  34
   3  17  34  80
   3  17  34  13
   3  17  13  34
   3  18  14  77
   3  18  77  84
   3  18  77  14
   3  18  84  77
   3  18  84  69
   3  18  69  84
   3  18  69  22
   3  18  22  69
   3  19  23  70
   3  19  70  85
   3  19  70  23
   3  19  85  70
   3  19  85  78
   3  19  78  85
   3  19  78  15
   3  19  15  78
   3  20  16  82
   4  20  16  79  46
   3  20  82  46
   3  20  82  16
   3  20  46  88
   3  20  46  82
   3  20  88  46
   3  20  88  24
   3  20  24  88
   4  20  24  58  46
   3  21  25  89
   4  21  25  59  55
   3  21  89  55
   3  21  89  25
   3  21  55  83
   3  21  55  89
   3  21  83  55
   3  21  83  17
   3  21  17  83
   4  21  17  80  55
   3  22  18  69
   3  22  69  18
   3  22  69  53
   3  22  53  26
   3  22  53  69
   3  22  26  53
   3  23  27  54
   3  23  54  70
   3  23  54  27
   3  23  70  54
   3  23  70  19
   3  23  19  70
   3  24  20  88
   4  24  20  46  58
   3  24  88  20
   3  24  88  58
   3  24  58   0
   3  24  58  88
   3  24   0  58
   3  25   1  59
   3  25  59   1
   3  25  59  89
   3  25  89  59
   3  25  89  21
   3  25  21  89
   4  25  21  55  59
   3  26  22  53
   3  26  53   3
   3  26  53  22
   3  26   3  53
   3  27   4  54
   3  27  54   4
   3  27  54  23
   3  27  23  54
   3  28  34  39
   3  28  34   9
   3  28  39  35
   3  28  39  34
   3  28  35  39
   3  28  35   2
   3  28   2  35
   3  28   2   9
   3  28   9  34
   3  28   9   2
   3  29  33  40
   3  29  33  57
   3  29  40  33
   3  29  40  61
   3  29  61  42
   3  29  61  40
   3  29  42  61
   4  29  42  41  30
   3  29  30  57
   4  29  30  41  42
   3  29  57  30
   3  29  57  33
   3  30  34  57
   3  30  34  39
   3  30  57  29
   3  30  57  34
   3  30  29  57
   4  30  29  42  41
   3  30  41  60
   4  30  41  42  29
   3  30  60  41
   3  30  60  39
   3  30  39  34
   3  30  39  60
   3  31   2  35
   3  31   2   6
   3  31  35  44
   3  31  35   2
   3  31  44  67
   3  31  44  35
   3  31  67  63
   3  31  67  44
   3  31  63   6
   3  31  63  67
   3  31   6   2
   3  31   6  63
   3  32  37  64
   3  32  37   7
   3  32  64  37
   3  32  64  43
   3  32  43  36
   3  32  43  64
   3  32  36  43
   3  32  36   5
   3  32   5   7
   3  32   5  36
   3  32   7  37
   3  32   7   5
   3  33  79  57
   3  33  79  16
   3  33  16  12
   3  33  16  79
   3  33  12   8
   3  33  12  16
   3  33   8  68
   3  33   8  12
   3  33  68  40
   3  33  68   8
   3  33  40  29
   3  33  40  68
   3  33  29  40
   3  33  29  57
   3  33  57  29
   3  33  57  79
   3  34  80  17
   3  34  80  57
   3  34  57  30
   3  34  57  80
   3  34  30  57
   3  34  30  39
   3  34  39  28
   3  34  39  30
   3  34  28  39
   3  34  28   9
   3  34   9  13
   3  34   9  28
   3  34  13  17
   3  34  13   9
   3  34  17  80
   3  34  17  13
   3  35  28  39
   3  35  28   2
   3  35  39  28
   3  35  39  51
   3  35  51  44
   3  35  51  39
   3  35  44  31
   3  35  44  51
   3  35  31   2
   3  35  31  44
   3  35   2  31
   3  35   2  28
   3  36  32  43
   3  36  32   5
   3  36  43  32
   3  36  43  50
   3  36  50  40
   3  36  50  43
   3  36  40  68
   3  36  40  50
   3  36  68   5
   3  36  68  40
   3  36   5  32
   3  36   5  68
   3  37  45  62
   3  37  45  78
   3  37  62  47
   3  37  62  45
   3  37  47  62
   3  37  47  64
   3  37  64  47
   3  37  64  32
   3  37  32  64
   3  37  32   7
   3  37   7  11
   3  37   7  32
   3  37  11  15
   3  37  11   7
   3  37  15  78
   3  37  15  11
   3  37  78  45
   3  37  78  15
   3  38  69  84
   4  38  69  18  77
   3  38  84  77
   3  38  84  69
   3  38  77  63
   3  38  77  84
   3  38  63  77
   3  38  63  62
   3  38  62  45
   3  38  62  63
   3  38  45  62
   4  38  45  74  73
   3  39  35  28
   3  39  35  51
   3  39  28  34
   3  39  28  35
   3  39  34  30
   3  39  34  28
   3  39  30  34
   3  39  30  60
   3  39  60  30
   3  39  60  51
   3  39  51  35
   3  39  51  60
   3  40  29  33
   3  40  29  61
   3  40  33  68
   3  40  33  29
   3  40  68  36
   3  40  68  33
   3  40  36  50
   3  40  36  68
   3  40  50  36
   3  40  50  61
   3  40  61  50
   3  40  61  29
   3  41  56  86
   3  41  56  42
   3  41  86  60
   3  41  86  56
   3  41  60  30
   3  41  60  86
   3  41  30  60
   4  41  30  29  42
   3  41  42  56
   4  41  42  29  30
   3  42  56  41
   3  42  56  87
   3  42  41  56
   4  42  41  30  29
   3  42  29  61
   4  42  29  30  41
   3  42  61  87
   3  42  61  29
   3  42  87  61
   3  42  87  56
   3  43  36  32
   3  43  36  50
   3  43  32  64
   3  43  32  36
   3  43  64  48
   3  43  64  32
   3  43  48  64
   3  43  48  65
   3  43  65  48
   3  43  65  50
   3  43  50  36
   3  43  50  65
   3  44  67  49
   3  44  67  31
   3  44  31  35
   3  44  31  67
   3  44  35  51
   3  44  35  31
   3  44  51  35
   3  44  51  66
   3  44  66  51
   3  44  66  49
   3  44  49  67
   3  44  49  66
   3  45  38  62
   4  45  38  73  74
   3  45  62  37
   3  45  62  38
   3  45  37  62
   3  45  37  78
   3  45  78  85
   3  45  78  37
   3  45  85  70
   3  45  85  78
   3  45  70  85
   4  45  70  54  74
   3  46  58  88
   4  46  58  24  20
   3  46  88  20
   3  46  88  58
   3  46  20  82
   3  46  20  88
   3  46  82  79
   3  46  82  20
   3  46  79  57
   3  46  79  82
   3  46  57  55
   3  46  57  79
   3  46  55  57
   4  46  55  59  58
   3  47  37  62
   3  47  37  64
   3  47  62  37
   3  47  62  63
   3  47  63  67
   3  47  63  62
   3  47  67  49
   3  47  67  63
   3  47  49  67
   3  47  49  52
   3  47  52  48
   3  47  52  49
   3  47  48  64
   3  47  48  52
   3  47  64  37
   3  47  64  48
   3  48  43  64
   3  48  43  65
   3  48  64  47
   3  48  64  43
   3  48  47  52
   3  48  47  64
   3  48  52  47
   3  48  52  71
   3  48  71  52
   3  48  71  65
   3  48  65  71
   3  48  65  43
   3  49  47  67
   3  49  47  52
   3  49  67  47
   3  49  67  44
   3  49  44  67
   3  49  44  66
   3  49  66  72
   3  49  66  44
   3  49  72  66
   3  49  72  52
   3  49  52  47
   3  49  52  72
   3  50  40  36
   3  50  40  61
   3  50  36  43
   3  50  36  40
   3  50  43  36
   3  50  43  65
   3  50  65  75
   3  50  65  43
   3  50  75  65
   3  50  75  61
   3  50  61  75
   3  50  61  40
   3  51  44  35
   3  51  44  66
   3  51  35  39
   3  51  35  44
   3  51  39  35
   3  51  39  60
   3  51  60  76
   3  51  60  39
   3  51  76  60
   3  51  76  66
   3  51  66  76
   3  51  66  44
   3  52  48  47
   3  52  48  71
   3  52  47  49
   3  52  47  48
   3  52  49  47
   3  52  49  72
   3  52  72  81
   3  52  72  49
   3  52  81  72
   3  52  81  71
   3  52  71  81
   3  52  71  48
   3  53   3  26
   4  53   3   4  54
   3  53  26  22
   3  53  26   3
   3  53  22  69
   3  53  22  26
   3  53  69  22
   4  53  69  38  73
   3  54   4  27
   4  54   4   3  53
   3  54  70  23
   4  54  70  45  74
   3  54  23  27
   3  54  23  70
   3  54  27   4
   3  54  27  23
   3  55  59  89
   4  55  59  58  46
   3  55  46  57
   4  55  46  58  59
   3  55  57  80
   3  55  57  46
   3  55  80  83
   3  55  80  57
   3  55  83  21
   3  55  83  80
   3  55  21  89
   3  55  21  83
   3  55  89  59
   3  55  89  21
   3  56  75  65
   3  56  75  87
   3  56  65  71
   3  56  65  75
   3  56  71  81
   3  56  71  65
   3  56  81  72
   3  56  81  71
   3  56  72  66
   3  56  72  81
   3  56  66  76
   3  56  66  72
   3  56  76  86
   3  56  76  66
   3  56  86  76
   3  56  86  41
   3  56  41  86
   3  56  41  42
   3  56  42  41
   3  56  42  87
   3  56  87  42
   3  56  87  75
   3  57  29  33
   3  57  29  30
   3  57  30  34
   3  57  30  29
   3  57  34  80
   3  57  34  30
   3  57  80  55
   3  57  80  34
   3  57  55  46
   3  57  55  80
   3  57  46  79
   3  57  46  55
   3  57  79  46
   3  57  79  33
   3  57  33  79
   3  57  33  29
   3  58   0  24
   4  58   0   1  59
   3  58  24  88
   3  58  24   0
   3  58  88  46
   3  58  88  24
   3  58  46  88
   4  58  46  20  24
   3  59   1  25
   4  59   1   0  58
   3  59  55  89
   4  59  55  46  58
   3  59  89  55
   3  59  89  25
   3  59  25   1
   3  59  25  89
   3  60  30  41
   3  60  30  39
   3  60  41  86
   3  60  41  30
   3  60  86  76
   3  60  86  41
   3  60  76  86
   3  60  76  51
   3  60  51  39
   3  60  51  76
   3  60  39  30
   3  60  39  51
   3  61  50  40
   3  61  50  75
   3  61  75  87
   3  61  75  50
   3  61  87  42
   3  61  87  75
   3  61  42  29
   3  61  42  87
   3  61  29  40
   3  61  29  42
   3  61  40  29
   3  61  40  50
   3  62  47  37
   3  62  47  63
   3  62  37  45
   3  62  37  47
   3  62  45  38
   3  62  45  37
   3  62  38  63
   3  62  38  45
   3  62  63  38
   3  62  63  47
   3  63  38  77
   3  63  38  62
   3  63  77  38
   3  63  77  14
   3  63  14  10
   3  63  14  77
   3  63  10   6
   3  63  10  14
   3  63   6  31
   3  63   6  10
   3  63  31  67
   3  63  31   6
   3  63  67  47
   3  63  67  31
   3  63  47  62
   3  63  47  67
   3  63  62  47
   3  63  62  38
   3  64  37  47
   3  64  37  32
   3  64  47  37
   3  64  47  48
   3  64  48  43
   3  64  48  47
   3  64  43  32
   3  64  43  48
   3  64  32  37
   3  64  32  43
   3  65  48  43
   3  65  48  71
   3  65  71  56
   3  65  71  48
   3  65  56  75
   3  65  56  71
   3  65  75  56
   3  65  75  50
   3  65  50  43
   3  65  50  75
   3  65  43  48
   3  65  43  50
   3  66  51  44
   3  66  51  76
   3  66  76  56
   3  66  76  51
   3  66  56  72
   3  66  56  76
   3  66  72  56
   3  66  72  49
   3  66  49  44
   3  66  49  72
   3  66  44  51
   3  66  44  49
   3  67  49  47
   3  67  49  44
   3  67  47  63
   3  67  47  49
   3  67  63  31
   3  67  63  47
   3  67  31  44
   3  67  31  63
   3  67  44  31
   3  67  44  49
   3  68   5  36
   3  68   5   8
   3  68  36  40
   3  68  36   5
   3  68  40  33
   3  68  40  36
   3  68  33   8
   3  68  33  40
   3  68   8   5
   3  68   8  33
   3  69  18  84
   3  69  18  22
   3  69  84  38
   3  69  84  18
   3  69  38  84
   4  69  38  73  53
   3  69  53  22
   4  69  53  73  38
   3  69  22  18
   3  69  22  53
   3  70  54  23
   4  70  54  74  45
   3  70  45  85
   4  70  45  74  54
   3  70  85  45
   3  70  85  19
   3  70  19  23
   3  70  19  85
   3  70  23  54
   3  70  23  19
   3  71  52  48
   3  71  52  81
   3  71  81  56
   3  71  81  52
   3  71  56  65
   3  71  56  81
   3  71  65  48
   3  71  65  56
   3  71  48  52
   3  71  48  65
   3  72  66  56
   3  72  66  49
   3  72  56  81
   3  72  56  66
   3  72  81  56
   3  72  81  52
   3  72  52  49
   3  72  52  81
   3  72  49  66
   3  72  49  52
   3  75  65  56
   3  75  65  50
   3  75  56  65
   3  75  56  87
   3  75  87  61
   3  75  87  56
   3  75  61  50
   3  75  61  87
   3  75  50  65
   3  75  50  61
   3  76  60  86
   3  76  60  51
   3  76  86  60
   3  76  86  56
   3  76  56  66
   3  76  56  86
   3  76  66  51
   3  76  66  56
   3  76  51  60
   3  76  51  66
   3  77  63  38
   3  77  63  14
   3  77  38  84
   3  77  38  63
   3  77  84  38
   3  77  84  18
   3  77  18  14
   3  77  18  84
   3  77  14  63
   3  77  14  18
   3  78  19  85
   3  78  19  15
   3  78  85  45
   3  78  85  19
   3  78  45  37
   3  78  45  85
   3  78  37  45
   3  78  37  15
   3  78  15  19
   3  78  15  37
   3  79  57  46
   3  79  57  33
   3  79  46  82
   3  79  46  57
   3  79  82  46
   3  79  82  16
   3  79  16  33
   3  79  16  82
   3  79  33  16
   3  79  33  57
   3  80  17  83
   3  80  17  34
   3  80  83  55
   3  80  83  17
   3  80  55  57
   3  80  55  83
   3  80  57  34
   3  80  57  55
   3  80  34  57
   3  80  34  17
   3  81  72  56
   3  81  72  52
   3  81  56  71
   3  81  56  72
   3  81  71  52
   3  81  71  56
   3  81  52  72
   3  81  52  71
   3  82  79  46
   3  82  79  16
   3  82  46  20
   3  82  46  79
   3  82  20  16
   3  82  20  46
   3  82  16  79
   3  82  16  20
   3  83  21  55
   3  83  21  17
   3  83  55  80
   3  83  55  21
   3  83  80  17
   3  83  80  55
   3  83  17  21
   3  83  17  80
   3  84  77  38
   3  84  77  18
   3  84  38  69
   3  84  38  77
   3  84  69  18
   3  84  69  38
   3  84  18  77
   3  84  18  69
   3  85  70  45
   3  85  70  19
   3  85  45  78
   3  85  45  70
   3  85  78  19
   3  85  78  45
   3  85  19  70
   3  85  19  78
   3  86  76  60
   3  86  76  56
   3  86  60  41
   3  86  60  76
   3  86  41  56
   3  86  41  60
   3  86  56  76
   3  86  56  41
   3  87  42  56
   3  87  42  61
   3  87  61  75
   3  87  61  42
   3  87  75  56
   3  87  75  61
   3  87  56  75
   3  87  56  42
   3  88  20  46
   3  88  20  24
   3  88  46  58
   3  88  46  20
   3  88  58  24
   3  88  58  46
   3  88  24  20
   3  88  24  58
   3  89  59  55
   3  89  59  25
   3  89  55  59
   3  89  55  21
   3  89  21  25
   3  89  21  55
   3  89  25  59
   3  89  25  21
