# Generated by dad_to_polygons. Vertex data from Humppa's .off file,
# polygons parsed from .dad file.
COFF
90 300 90
-6.360756 0.895183 5.406953 0.500000 0.500000 0.500000 1.0
-6.360756 -0.895183 5.406953 0.500000 0.500000 0.500000 1.0
-0.028734 -1.971581 5.023791 0.500000 0.500000 0.500000 1.0
7.274065 -0.873982 5.451502 0.500000 0.500000 0.500000 1.0
7.274065 0.873982 5.451502 0.500000 0.500000 0.500000 1.0
-0.028734 1.971581 5.023791 0.500000 0.500000 0.500000 1.0
1.089617 -1.636397 5.183731 0.500000 0.500000 0.500000 1.0
1.089617 1.636397 5.183731 0.500000 0.500000 0.500000 1.0
-1.123101 1.617685 5.155777 0.500000 0.500000 0.500000 1.0
-1.123101 -1.617685 5.155777 0.500000 0.500000 0.500000 1.0
2.001361 -1.312148 5.436783 0.500000 0.500000 0.500000 1.0
2.001361 1.312148 5.436783 0.500000 0.500000 0.500000 1.0
-2.040475 1.315869 5.415139 0.500000 0.500000 0.500000 1.0
-2.040475 -1.315869 5.415139 0.500000 0.500000 0.500000 1.0
3.074413 -1.329390 5.348005 0.500000 0.500000 0.500000 1.0
3.074413 1.329390 5.348005 0.500000 0.500000 0.500000 1.0
-3.034245 1.296559 5.309064 0.500000 0.500000 0.500000 1.0
-3.034245 -1.296559 5.309064 0.500000 0.500000 0.500000 1.0
4.091964 -1.278574 5.303803 0.500000 0.500000 0.500000 1.0
4.091964 1.278574 5.303803 0.500000 0.500000 0.500000 1.0
-4.031991 1.227827 5.311739 0.500000 0.500000 0.500000 1.0
-4.031991 -1.227827 5.311739 0.500000 0.500000 0.500000 1.0
5.092638 -1.118409 5.379638 0.500000 0.500000 0.500000 1.0
5.092638 1.118409 5.379638 0.500000 0.500000 0.500000 1.0
-5.028375 1.112912 5.327787 0.500000 0.500000 0.500000 1.0
-5.028375 -1.112912 5.327787 0.500000 0.500000 0.500000 1.0
6.084284 -0.996260 5.424849 0.500000 0.500000 0.500000 1.0
6.084284 0.996260 5.424849 0.500000 0.500000 0.500000 1.0
-1.063340 -1.580168 4.247679 0.500000 0.500000 0.500000 1.0
-1.942603 0.852256 3.117402 0.500000 0.500000 0.500000 1.0
-1.942603 -0.852256 3.117402 0.500000 0.500000 0.500000 1.0
1.075379 -1.553632 4.034594 0.500000 0.500000 0.500000 1.0
1.075379 1.553632 4.034594 0.500000 0.500000 0.500000 1.0
-2.200863 1.237517 4.269767 0.500000 0.500000 0.500000 1.0
-2.200863 -1.237517 4.269767 0.500000 0.500000 0.500000 1.0
0.028528 -1.692262 3.807543 0.500000 0.500000 0.500000 1.0
0.028528 1.692262 3.807543 0.500000 0.500000 0.500000 1.0
2.305640 1.199495 4.316728 0.500000 0.500000 0.500000 1.0
3.729171 -0.618792 3.310500 1.0 1.0 0.0 1.0
-0.803224 -1.527345 3.327207 0.500000 0.500000 0.500000 1.0
-0.803224 1.527345 3.327207 0.500000 0.500000 0.500000 1.0
-1.447841 -0.815497 1.867811 0.500000 0.500000 0.500000 1.0
-1.447841 0.815497 1.867811 0.500000 0.500000 0.500000 1.0
0.946433 1.516769 2.978601 0.500000 0.500000 0.500000 1.0
0.946433 -1.516769 2.978601 0.500000 0.500000 0.500000 1.0
3.729171 0.618792 3.310500 1.0 1.0 0.0 1.0
-4.150592 0.660562 3.588565 1.0 1.0 0.0 1.0
2.031481 -0.000000 3.413635 0.500000 0.500000 0.500000 1.0
1.357888 1.115788 2.683174 0.500000 0.500000 0.500000 1.0
1.357888 -1.115788 2.683174 0.500000 0.500000 0.500000 1.0
0.115411 1.569203 2.826977 0.500000 0.500000 0.500000 1.0
0.115411 -1.569203 2.826977 0.500000 0.500000 0.500000 1.0
1.598985 -0.000000 2.465538 0.500000 0.500000 0.500000 1.0
5.574686 -0.976369 4.687915 0.500000 0.500000 0.500000 1.0
5.574686 0.976369 4.687915 0.500000 0.500000 0.500000 1.0
-4.150592 -0.660562 3.588565 1.0 1.0 0.0 1.0
0.069692 -0.000000 1.038258 1.0 1.0 0.0 1.0
-2.690035 0.000000 3.455456 0.500000 0.500000 0.500000 1.0
-5.493441 0.916590 4.622549 0.500000 0.500000 0.500000 1.0
-5.493441 -0.916590 4.622549 0.500000 0.500000 0.500000 1.0
-0.529084 -1.367937 2.545971 0.500000 0.500000 0.500000 1.0
-0.529084 1.367937 2.545971 0.500000 0.500000 0.500000 1.0
2.305329 -0.000000 4.082758 0.500000 0.500000 0.500000 1.0
2.305640 -1.199495 4.316728 0.500000 0.500000 0.500000 1.0
1.538030 1.385926 3.626920 0.500000 0.500000 0.500000 1.0
0.794334 1.248068 2.078592 0.500000 0.500000 0.500000 1.0
0.794334 -1.248068 2.078592 0.500000 0.500000 0.500000 1.0
1.538030 -1.385926 3.626920 0.500000 0.500000 0.500000 1.0
-1.063340 1.580168 4.247679 0.500000 0.500000 0.500000 1.0
4.557058 -1.178945 4.736024 0.500000 0.500000 0.500000 1.0
4.557058 1.178945 4.736024 0.500000 0.500000 0.500000 1.0
1.122446 0.774736 1.865102 0.500000 0.500000 0.500000 1.0
1.122446 -0.774736 1.865102 0.500000 0.500000 0.500000 1.0
5.281135 -0.779145 3.833965 0.500000 0.500000 0.500000 1.0
5.281135 0.779145 3.833965 0.500000 0.500000 0.500000 1.0
0.057885 1.193873 1.946535 0.500000 0.500000 0.500000 1.0
0.057885 -1.193873 1.946535 0.500000 0.500000 0.500000 1.0
3.504571 -1.119185 4.394640 0.500000 0.500000 0.500000 1.0
3.504571 1.119185 4.394640 0.500000 0.500000 0.500000 1.0
-3.086555 1.022101 3.951151 0.500000 0.500000 0.500000 1.0
-3.086555 -1.022101 3.951151 0.500000 0.500000 0.500000 1.0
1.032389 -0.000000 1.719488 0.500000 0.500000 0.500000 1.0
-3.560415 1.072439 4.481568 0.500000 0.500000 0.500000 1.0
-3.560415 -1.072439 4.481568 0.500000 0.500000 0.500000 1.0
3.946701 -1.050303 4.318571 0.500000 0.500000 0.500000 1.0
3.946701 1.050303 4.318571 0.500000 0.500000 0.500000 1.0
-0.242666 -0.787914 1.736031 0.500000 0.500000 0.500000 1.0
-0.242666 0.787914 1.736031 0.500000 0.500000 0.500000 1.0
-4.589483 0.886737 4.458176 0.500000 0.500000 0.500000 1.0
-4.589483 -0.886737 4.458176 0.500000 0.500000 0.500000 1.0
3 0 58 24
3 0 24 58
3 0 58 59
3 0 59 58
3 0 59 1
3 0 1 59
3 1 59 25
3 1 25 59
3 2 28 35
3 2 35 28
3 2 35 31
3 2 31 35
3 3 4 54
3 3 54 4
3 3 54 53
3 3 53 54
3 5 7 32
3 5 32 7
3 5 32 36
3 5 36 32
3 5 68 36
3 5 36 68
3 6 2 31
3 6 31 2
3 6 31 63
3 6 63 31
3 6 63 10
3 6 10 63
3 7 37 32
3 7 32 37
3 8 33 68
3 8 68 33
3 8 68 5
3 8 5 68
3 9 2 28
3 9 28 2
3 11 37 7
3 11 7 37
3 12 8 33
3 12 33 8
3 13 17 34
3 13 34 17
3 13 34 9
3 13 9 34
3 14 63 10
3 14 10 63
3 15 19 78
3 15 78 19
3 15 37 11
3 15 11 37
3 15 37 78
3 15 78 37
3 16 33 12
3 16 12 33
3 16 79 33
3 16 33 79
3 17 34 80
3 17 80 34
3 17 80 83
3 17 83 80
3 18 14 77
3 18 77 14
3 18 22 69
3 18 69 22
3 18 69 84
3 18 84 69
3 19 78 85
3 19 85 78
3 20 46 82
3 20 82 46
3 20 88 46
3 20 46 88
3 21 25 89
3 21 89 25
3 21 55 83
3 21 83 55
3 21 83 17
3 21 17 83
3 21 89 55
3 21 55 89
3 22 26 53
3 22 53 26
3 22 53 69
3 22 69 53
3 23 54 27
3 23 27 54
3 23 54 70
3 23 70 54
3 23 70 19
3 23 19 70
3 24 58 88
3 24 88 58
3 25 59 89
3 25 89 59
3 26 53 3
3 26 3 53
3 27 4 54
3 27 54 4
3 28 34 9
3 28 9 34
3 28 34 39
3 28 39 34
3 28 39 35
3 28 35 39
3 29 30 41
3 29 41 30
3 29 30 57
3 29 57 30
3 29 33 40
3 29 40 33
3 29 41 42
3 29 42 41
3 29 61 42
3 29 42 61
3 30 34 57
3 30 57 34
3 30 60 39
3 30 39 60
3 30 60 41
3 30 41 60
3 31 63 67
3 31 67 63
3 31 67 44
3 31 44 67
3 32 43 64
3 32 64 43
3 33 29 57
3 33 57 29
3 33 40 68
3 33 68 40
3 33 57 79
3 33 79 57
3 34 80 57
3 34 57 80
3 35 44 31
3 35 31 44
3 35 44 51
3 35 51 44
3 36 32 43
3 36 43 32
3 36 40 50
3 36 50 40
3 36 50 43
3 36 43 50
3 36 68 40
3 36 40 68
3 37 47 62
3 37 62 47
3 37 64 32
3 37 32 64
3 38 45 62
3 38 62 45
3 38 45 74
3 38 74 45
3 38 53 69
3 38 69 53
3 38 73 53
3 38 53 73
3 38 74 73
3 38 73 74
3 39 30 34
3 39 34 30
3 39 35 51
3 39 51 35
3 39 51 60
3 39 60 51
3 40 61 29
3 40 29 61
3 40 61 50
3 40 50 61
3 41 86 56
3 41 56 86
3 41 86 60
3 41 60 86
3 42 87 56
3 42 56 87
3 43 65 48
3 43 48 65
3 43 65 50
3 43 50 65
3 44 66 49
3 44 49 66
3 44 67 49
3 44 49 67
3 45 85 70
3 45 70 85
3 46 55 59
3 46 59 55
3 46 57 55
3 46 55 57
3 46 59 58
3 46 58 59
3 46 79 57
3 46 57 79
3 47 37 64
3 47 64 37
3 47 48 64
3 47 64 48
3 47 49 52
3 47 52 49
3 48 43 64
3 48 64 43
3 48 52 47
3 48 47 52
3 49 66 72
3 49 72 66
3 49 67 47
3 49 47 67
3 49 72 52
3 49 52 72
3 51 66 44
3 51 44 66
3 51 76 66
3 51 66 76
3 52 48 71
3 52 71 48
3 54 73 53
3 54 53 73
3 54 74 73
3 54 73 74
3 55 80 57
3 55 57 80
3 56 42 41
3 56 41 42
3 56 65 75
3 56 75 65
3 56 66 72
3 56 72 66
3 56 66 76
3 56 76 66
3 56 71 65
3 56 65 71
3 56 72 81
3 56 81 72
3 56 76 86
3 56 86 76
3 58 88 46
3 58 46 88
3 59 55 89
3 59 89 55
3 60 76 51
3 60 51 76
3 60 86 76
3 60 76 86
3 61 50 75
3 61 75 50
3 61 87 42
3 61 42 87
3 61 87 75
3 61 75 87
3 62 37 45
3 62 45 37
3 62 38 63
3 62 63 38
3 62 63 47
3 62 47 63
3 63 47 67
3 63 67 47
3 65 71 48
3 65 48 71
3 70 19 85
3 70 85 19
3 70 45 74
3 70 74 45
3 70 74 54
3 70 54 74
3 72 52 81
3 72 81 52
3 75 50 65
3 75 65 50
3 75 56 87
3 75 87 56
3 77 38 84
3 77 84 38
3 77 63 14
3 77 14 63
3 77 63 38
3 77 38 63
3 78 45 37
3 78 37 45
3 81 52 71
3 81 71 52
3 81 71 56
3 81 56 71
3 82 16 20
3 82 20 16
3 82 46 79
3 82 79 46
3 82 79 16
3 82 16 79
3 83 80 55
3 83 55 80
3 84 69 38
3 84 38 69
3 84 77 18
3 84 18 77
3 85 78 45
3 85 45 78
3 88 24 20
3 88 20 24
