 COFF
         104         994         104
  
  -6.4220838367824378       0.94632585070529707        5.7364486392554781       0.60000002384185791       0.60000002384185791       0.60000002384185791       0.80000001192092896     
  -6.4220838367824324      -0.94632585070529451        5.7364486392554799       0.60000002384185791       0.60000002384185791       0.60000002384185791       0.80000001192092896     
  -2.9462559634478372E-002  -2.0340144248270784        5.3626947721432980       0.60000002384185791       0.60000002384185791       0.60000002384185791       0.80000001192092896     
   7.3282404700565884      -0.91893331286839053        5.8176209253684661       0.60000002384185791       0.60000002384185791       0.60000002384185791       0.80000001192092896     
   7.3282404700565911       0.91893331286839186        5.8176209253684696       0.60000002384185791       0.60000002384185791       0.60000002384185791       0.80000001192092896     
  -2.9462559634223572E-002   2.0340144248022431        5.3626947721680729       0.60000002384185791       0.60000002384185791       0.60000002384185791       0.80000001192092896     
   1.1055873342566875       -1.7019600584697823        5.5188771005166322       0.60000002384185791       0.60000002384185791       0.60000002384185791       0.80000001192092896     
   1.1055873342550848        1.7019600584661163        5.5188771005205144       0.60000002384185791       0.60000002384185791       0.60000002384185791       0.80000001192092896     
  -1.1356140053536858        1.6794331111057992        5.4949472682952427       0.60000002384185791       0.60000002384185791       0.60000002384185791       0.80000001192092896     
  -1.1356140053564354       -1.6794331111191652        5.4949472682812956       0.60000002384185791       0.60000002384185791       0.60000002384185791       0.80000001192092896     
   2.0171125768636657       -1.3798547408991901        5.7754639653382620       0.60000002384185791       0.60000002384185791       0.60000002384185791       0.80000001192092896     
   2.0171125768639784        1.3798547408990325        5.7754639653384015       0.60000002384185791       0.60000002384185791       0.60000002384185791       0.80000001192092896     
  -2.0527370806378911        1.3799239576076958        5.7579625768082163       0.60000002384185791       0.60000002384185791       0.60000002384185791       0.80000001192092896     
  -2.0527370806390648       -1.3799239576191147        5.7579625767968681       0.60000002384185791       0.60000002384185791       0.60000002384185791       0.80000001192092896     
   3.0725242612614512       -1.4178948652455683        5.6682909916889983       0.60000002384185791       0.60000002384185791       0.60000002384185791       0.80000001192092896     
   3.0725242612614512        1.4178948652454877        5.6682909916890809       0.60000002384185791       0.60000002384185791       0.60000002384185791       0.80000001192092896     
  -3.0421967624748403        1.3937090740006202        5.6163996418876749       0.60000002384185791       0.60000002384185791       0.60000002384185791       0.80000001192092896     
  -3.0421967624771220       -1.3937090740030427        5.6163996418849687       0.60000002384185791       0.60000002384185791       0.60000002384185791       0.80000001192092896     
   4.1003995267748889       -1.3770202921192167        5.6094983088794743       0.60000002384185791       0.60000002384185791       0.60000002384185791       0.80000001192092896     
   4.1003995267748756        1.3770202921191654        5.6094983088795294       0.60000002384185791       0.60000002384185791       0.60000002384185791       0.80000001192092896     
  -4.0432069057755635        1.3527626691274184        5.5913467982415801       0.60000002384185791       0.60000002384185791       0.60000002384185791       0.80000001192092896     
  -4.0432069057755955       -1.3527626691276062        5.5913467982413936       0.60000002384185791       0.60000002384185791       0.60000002384185791       0.80000001192092896     
   5.0794953634810724       -1.1991088263393230        5.7057191722622003       0.60000002384185791       0.60000002384185791       0.60000002384185791       0.80000001192092896     
   5.0794953634810724        1.1991088263393130        5.7057191722622100       0.60000002384185791       0.60000002384185791       0.60000002384185791       0.80000001192092896     
  -5.0511353265781933        1.2168289986658518        5.6381475244767083       0.60000002384185791       0.60000002384185791       0.60000002384185791       0.80000001192092896     
  -5.0511353265781462       -1.2168289986658614        5.6381475244767243       0.60000002384185791       0.60000002384185791       0.60000002384185791       0.80000001192092896     
   6.0679092509070127       -1.1203790008400771        5.8300006894060985       0.60000002384185791       0.60000002384185791       0.60000002384185791       0.80000001192092896     
   6.0679092509070154        1.1203790008400771        5.8300006894061021       0.60000002384185791       0.60000002384185791       0.60000002384185791       0.80000001192092896     
  -1.0381631283111175       -1.6473009112693566        4.5587106040568717       0.60000002384185791       0.60000002384185791       0.60000002384185791       0.80000001192092896     
  -1.9602947175751957       0.90283604804265261        3.3862453126910883       0.60000002384185791       0.60000002384185791       0.60000002384185791       0.80000001192092896     
  -1.9602947179508250      -0.90283605678589918        3.3862452964909071       0.60000002384185791       0.60000002384185791       0.60000002384185791       0.80000001192092896     
   1.1186188230593761       -1.6163669548093758        4.3453320080479685       0.60000002384185791       0.60000002384185791       0.60000002384185791       0.80000001192092896     
   1.1186188223037119        1.6163669521314838        4.3453320081109705       0.60000002384185791       0.60000002384185791       0.60000002384185791       0.80000001192092896     
  -2.1796043015983746        1.3218493562316709        4.6206173094953389       0.60000002384185791       0.60000002384185791       0.60000002384185791       0.80000001192092896     
  -2.1796043038543131       -1.3218493560176992        4.6206173143622262       0.60000002384185791       0.60000002384185791       0.60000002384185791       0.80000001192092896     
   3.6960589613504659E-002  -1.7550098243458365        4.1032382830517182       0.60000002384185791       0.60000002384185791       0.60000002384185791       0.80000001192092896     
   3.6960549259176197E-002   1.7550094657819926        4.1032382865470680       0.60000002384185791       0.60000002384185791       0.60000002384185791       0.80000001192092896     
   2.3606559186660552        1.2778664217190110        4.5857311813454205       0.60000002384185791       0.60000002384185791       0.60000002384185791       0.80000001192092896     
   3.7229462423709312      -0.61889057693883143        3.3105001657960162        1.0000000000000000        1.0000000000000000        0.0000000000000000        1.0000000000000000     
 -0.82911104249972478       -1.5911979476384934        3.6048043410085358       0.60000002384185791       0.60000002384185791       0.60000002384185791       0.80000001192092896     
 -0.82911102698194383        1.5911978867172185        3.6048043469679047       0.60000002384185791       0.60000002384185791       0.60000002384185791       0.80000001192092896     
  -1.4681892581681830      -0.91536215489215145        2.0729091134840547       0.60000002384185791       0.60000002384185791       0.60000002384185791       0.80000001192092896     
  -1.4681901019719164       0.91536196946104820        2.0729092837374892       0.60000002384185791       0.60000002384185791       0.60000002384185791       0.80000001192092896     
  0.98895149620922407        1.5785835926494873        3.2806669315170169       0.60000002384185791       0.60000002384185791       0.60000002384185791       0.80000001192092896     
  0.98895145122125161       -1.5785836391954486        3.2806669483313891       0.60000002384185791       0.60000002384185791       0.60000002384185791       0.80000001192092896     
   3.7229462423718287       0.61889057693818395        3.3105001657960162        1.0000000000000000        1.0000000000000000        0.0000000000000000        1.0000000000000000     
  -4.2268947442909237       0.65920354352864430        3.5885653274392326        1.0000000000000000        1.0000000000000000        0.0000000000000000        1.0000000000000000     
   2.1045663223746245       -5.6562080031577583E-011   3.6977905690626813       0.60000002384185791       0.60000002384185791       0.60000002384185791       0.80000001192092896     
   1.3967510746830356        1.1917985550635657        2.9585812909400655       0.60000002384185791       0.60000002384185791       0.60000002384185791       0.80000001192092896     
   1.3967508881200763       -1.1917986542991110        2.9585811899505488       0.60000002384185791       0.60000002384185791       0.60000002384185791       0.80000001192092896     
  0.13026070639298823        1.6395182205265393        3.1003127657627436       0.60000002384185791       0.60000002384185791       0.60000002384185791       0.80000001192092896     
  0.13020261735430250       -1.6394620233586670        3.1003128927233590       0.60000002384185791       0.60000002384185791       0.60000002384185791       0.80000001192092896     
   1.6536068885226796       -1.3692640311085012E-010   2.7041668299643593       0.60000002384185791       0.60000002384185791       0.60000002384185791       0.80000001192092896     
   5.5695287141502661       -1.0934901433215507        5.0123261267296577       0.60000002384185791       0.60000002384185791       0.60000002384185791       0.80000001192092896     
   5.5695287141497651        1.0934901433216009        5.0123261267297083       0.60000002384185791       0.60000002384185791       0.60000002384185791       0.80000001192092896     
  -4.2268947443361995      -0.65920354355351363        3.5885653274392331        1.0000000000000000        1.0000000000000000        0.0000000000000000        1.0000000000000000     
  0.10715862671933822       -4.6618285714366765E-009   1.0382578837327854        1.0000000000000000        1.0000000000000000        0.0000000000000000        1.0000000000000000     
  -2.7221004471952504       -1.8233726995190749E-010   3.6674349438970730       0.60000002384185791       0.60000002384185791       0.60000002384185791       0.80000001192092896     
  -5.6536493772532967        1.0300600055643021        4.9200113986323117       0.60000002384185791       0.60000002384185791       0.60000002384185791       0.80000001192092896     
  -5.6536493772535446       -1.0300600055643692        4.9200113986323490       0.60000002384185791       0.60000002384185791       0.60000002384185791       0.80000001192092896     
 -0.59370690400902515       -1.4549527998745042        2.8196174955659368       0.60000002384185791       0.60000002384185791       0.60000002384185791       0.80000001192092896     
 -0.59370680621391914        1.4549526239104731        2.8196175022702779       0.60000002384185791       0.60000002384185791       0.60000002384185791       0.80000001192092896     
   2.3607063804687272       -9.3230617576901788E-011   4.2607246748190795       0.60000002384185791       0.60000002384185791       0.60000002384185791       0.80000001192092896     
   2.3606559186615033       -1.2778664217036142        4.5857311812897779       0.60000002384185791       0.60000002384185791       0.60000002384185791       0.80000001192092896     
   1.5924898528536335        1.4582913630193206        3.9216952601261830       0.60000002384185791       0.60000002384185791       0.60000002384185791       0.80000001192092896     
  0.86743357458901127        1.3939302728842804        2.3424466951547189       0.60000002384185791       0.60000002384185791       0.60000002384185791       0.80000001192092896     
  0.86743317665493325       -1.3939303714169669        2.3424468337318061       0.60000002384185791       0.60000002384185791       0.60000002384185791       0.80000001192092896     
   1.5924898358224278       -1.4582913661966908        3.9216952374664036       0.60000002384185791       0.60000002384185791       0.60000002384185791       0.80000001192092896     
  -1.0381631252761794        1.6473009097536297        4.5587106036824352       0.60000002384185791       0.60000002384185791       0.60000002384185791       0.80000001192092896     
   4.5529745712431984       -1.2944395221140985        5.0201131521183768       0.60000002384185791       0.60000002384185791       0.60000002384185791       0.80000001192092896     
   4.5529745712350875        1.2944395221151184        5.0201131521179381       0.60000002384185791       0.60000002384185791       0.60000002384185791       0.80000001192092896     
   1.2046077780374684       0.90090326026753886        2.0720332827445951       0.60000002384185791       0.60000002384185791       0.60000002384185791       0.80000001192092896     
   1.2046077068927137      -0.90090327749087751        2.0720332862523150       0.60000002384185791       0.60000002384185791       0.60000002384185791       0.80000001192092896     
   5.4708373559780608      -0.70362230482148203        4.0553410502754321       0.60000002384185791       0.60000002384185791       0.60000002384185791       0.80000001192092896     
   5.4708373559778281       0.70362230482148835        4.0553410502754756       0.60000002384185791       0.60000002384185791       0.60000002384185791       0.80000001192092896     
  0.13378799864484006        1.3882380798490956        2.1663124416142145       0.60000002384185791       0.60000002384185791       0.60000002384185791       0.80000001192092896     
  0.13378726174967226       -1.3882383601952288        2.1663124807015985       0.60000002384185791       0.60000002384185791       0.60000002384185791       0.80000001192092896     
   3.5587525056580520       -1.3014004603165945        4.6768440320887663       0.60000002384185791       0.60000002384185791       0.60000002384185791       0.80000001192092896     
   3.5587525056685800        1.3014004603203135        4.6768440320925997       0.60000002384185791       0.60000002384185791       0.60000002384185791       0.80000001192092896     
  -3.0362251602348365        1.1904512555462563        4.1935221242793563       0.60000002384185791       0.60000002384185791       0.60000002384185791       0.80000001192092896     
  -3.0362251601659045       -1.1904512550931321        4.1935221231967059       0.60000002384185791       0.60000002384185791       0.60000002384185791       0.80000001192092896     
   1.3095476150635983       -8.1082491016381689E-009   1.9082596314215854       0.60000002384185791       0.60000002384185791       0.60000002384185791       0.80000001192092896     
  -3.5403996288065538        1.2827088689035102        4.7305478367260640       0.60000002384185791       0.60000002384185791       0.60000002384185791       0.80000001192092896     
  -3.5403996288176312       -1.2827088689017658        4.7305478367556795       0.60000002384185791       0.60000002384185791       0.60000002384185791       0.80000001192092896     
   3.9917907325529178       -1.2571799093684881        4.5426654706699763       0.60000002384185791       0.60000002384185791       0.60000002384185791       0.80000001192092896     
   3.9917907325509425        1.2571799093668063        4.5426654706680658       0.60000002384185791       0.60000002384185791       0.60000002384185791       0.80000001192092896     
 -0.29447892537112325       -1.1395018158453969        1.8635041087491737       0.60000002384185791       0.60000002384185791       0.60000002384185791       0.80000001192092896     
 -0.29447795597808563        1.1395019652504157        1.8635041100871916       0.60000002384185791       0.60000002384185791       0.60000002384185791       0.80000001192092896     
  -4.7882460449769360        1.0780478205299573        4.6704719340849126       0.60000002384185791       0.60000002384185791       0.60000002384185791       0.80000001192092896     
  -4.7882460449772735       -1.0780478205297490        4.6704719340845902       0.60000002384185791       0.60000002384185791       0.60000002384185791       0.80000001192092896     
   5.8917881950630813       -1.5482590138704566E-014   4.8303470318399500       0.60000002384185791       0.60000002384185791       0.60000002384185791       0.80000001192092896     
   6.7388864935108455      -0.49138161779276823        5.1937031890235303       0.60000002384185791       0.60000002384185791       0.60000002384185791       0.80000001192092896     
   6.7388864935108552       0.49138161779276540        5.1937031890235303       0.60000002384185791       0.60000002384185791       0.60000002384185791       0.80000001192092896     
 -0.92627367055755605      -0.47885386634659977        1.5009002024851952       0.60000002384185791       0.60000002384185791       0.60000002384185791       0.80000001192092896     
 -0.92627371105786027       0.47885382041773233        1.5009002024842439       0.60000002384185791       0.60000002384185791       0.60000002384185791       0.80000001192092896     
  -4.1337368706935482        1.1181364581157944        4.6062567984048846       0.60000002384185791       0.60000002384185791       0.60000002384185791       0.80000001192092896     
  -4.1337368707000106       -1.1181364581160775        4.6062567984060445       0.60000002384185791       0.60000002384185791       0.60000002384185791       0.80000001192092896     
  0.53030635388115310       0.75558356140029437        1.6677856539225304       0.60000002384185791       0.60000002384185791       0.60000002384185791       0.80000001192092896     
  0.53030611325969113      -0.75558363833904241        1.6677856361652157       0.60000002384185791       0.60000002384185791       0.60000002384185791       0.80000001192092896     
  -5.7040318131246632       -7.7630868901194788E-014   4.8920863213915506       0.60000002384185791       0.60000002384185791       0.60000002384185791       0.80000001192092896     
  -5.0205725092306395       0.32222463255648615        4.2232785350856279       0.60000002384185791       0.60000002384185791       0.60000002384185791       0.80000001192092896     
  -5.0205725092295124      -0.32222463256693773        4.2232785350856279       0.60000002384185791       0.60000002384185791       0.60000002384185791       0.80000001192092896     
   4.1526083778680158      -0.96925530630860524        4.1597193803471981       0.60000002384185791       0.60000002384185791       0.60000002384185791       0.80000001192092896     
   4.1526083778678755       0.96925530630806311        4.1597193803471670       0.60000002384185791       0.60000002384185791       0.60000002384185791       0.80000001192092896     
  
   3   0  24  58
   3   0  58  24
   3   0  58  99
   3   0  99   1
   3   0  99  58
   3   0   1  99
   3   1   0  99
   3   1  99  59
   3   1  99   0
   3   1  59  99
   3   1  59  25
   3   1  25  59
   3   2  35  28
   3   2  35  31
   3   2  31  35
   3   2  31   6
   3   2   6  31
   3   2   9  28
   3   2  28  35
   3   2  28   9
   3   3  26  53
   3   3  53  26
   4   3  53  90  91
   3   4  54  27
   4   4  54  90  92
   3   4  27  54
   3   5   7  32
   3   5  32  36
   3   5  32   7
   3   5  36  32
   3   5  36  68
   3   5  68  36
   3   5  68   8
   3   5   8  68
   3   6   2  31
   3   6  31   2
   3   6  31  63
   3   6  63  10
   3   6  63  31
   3   6  10  63
   3   7  11  37
   3   7  37  32
   3   7  37  11
   3   7  32  37
   3   7  32   5
   3   7   5  32
   3   8   5  68
   3   8  68   5
   3   8  68  33
   3   8  33  12
   3   8  33  68
   3   8  12  33
   3   9  13  34
   3   9  34  28
   3   9  34  13
   3   9  28  34
   3   9  28   2
   3   9   2  28
   3  10   6  63
   3  10  63  14
   3  10  63   6
   3  10  14  63
   3  11  15  37
   3  11  37   7
   3  11  37  15
   3  11   7  37
   3  12   8  33
   3  12  33  16
   3  12  33   8
   3  12  16  33
   3  13  17  34
   3  13  34   9
   3  13  34  17
   3  13   9  34
   3  14  10  63
   3  14  63  77
   3  14  63  10
   3  14  77  63
   3  14  77  18
   3  14  18  77
   3  15  19  78
   3  15  78  19
   3  15  78  37
   3  15  37  11
   3  15  37  78
   3  15  11  37
   3  16  12  33
   3  16  33  79
   3  16  33  12
   3  16  79  82
   3  16  79  33
   3  16  82  79
   3  16  82  20
   3  16  20  82
   3  17  21  83
   3  17  83  21
   3  17  83  80
   3  17  80  83
   3  17  80  34
   3  17  34  80
   3  17  34  13
   3  17  13  34
   3  18  14  77
   3  18  77  84
   3  18  77  14
   3  18  84  77
   3  18  84  69
   3  18  69  84
   3  18  69  22
   3  18  22  69
   3  19  23  70
   3  19  70  85
   3  19  70  23
   3  19  85  70
   3  19  85  78
   3  19  78  85
   3  19  78  15
   3  19  15  78
   3  20  16  82
   3  20  82  95
   3  20  82  16
   3  20  95  82
   3  20  95  88
   3  20  88  95
   3  20  88  24
   3  20  24  88
   3  21  25  89
   3  21  89  96
   3  21  89  25
   3  21  96  89
   3  21  96  83
   3  21  83  96
   3  21  83  17
   3  21  17  83
   3  22  18  69
   3  22  69  18
   3  22  69  53
   3  22  53  26
   3  22  53  69
   3  22  26  53
   3  23  27  54
   3  23  54  70
   3  23  54  27
   3  23  70  54
   3  23  70  19
   3  23  19  70
   3  24  20  88
   3  24  88  20
   3  24  88  58
   3  24  58   0
   3  24  58  88
   3  24   0  58
   3  25   1  59
   3  25  59   1
   3  25  59  89
   3  25  89  59
   3  25  89  21
   3  25  21  89
   3  26  22  53
   3  26  53   3
   3  26  53  22
   3  26   3  53
   3  27   4  54
   3  27  54   4
   3  27  54  23
   3  27  23  54
   3  28  34  39
   3  28  34   9
   3  28  39  35
   3  28  39  34
   3  28  35  39
   3  28  35   2
   3  28   2  35
   3  28   2   9
   3  28   9  34
   3  28   9   2
   3  29  33  40
   3  29  33  57
   3  29  40  33
   3  29  40  61
   3  29  61  42
   3  29  61  40
   3  29  42  61
   4  29  42  41  30
   3  29  30  57
   4  29  30  41  42
   3  29  57  30
   3  29  57  33
   3  30  34  57
   3  30  34  39
   3  30  57  29
   3  30  57  34
   3  30  29  57
   4  30  29  42  41
   3  30  41  60
   4  30  41  42  29
   3  30  60  41
   3  30  60  39
   3  30  39  34
   3  30  39  60
   3  31   2  35
   3  31   2   6
   3  31  35  44
   3  31  35   2
   3  31  44  67
   3  31  44  35
   3  31  67  63
   3  31  67  44
   3  31  63   6
   3  31  63  67
   3  31   6   2
   3  31   6  63
   3  32  37  64
   3  32  37   7
   3  32  64  37
   3  32  64  43
   3  32  43  36
   3  32  43  64
   3  32  36  43
   3  32  36   5
   3  32   5   7
   3  32   5  36
   3  32   7  37
   3  32   7   5
   3  33  79  57
   3  33  79  16
   3  33  16  12
   3  33  16  79
   3  33  12   8
   3  33  12  16
   3  33   8  68
   3  33   8  12
   3  33  68  40
   3  33  68   8
   3  33  40  29
   3  33  40  68
   3  33  29  40
   3  33  29  57
   3  33  57  29
   3  33  57  79
   3  34  80  17
   3  34  80  57
   3  34  57  30
   3  34  57  80
   3  34  30  57
   3  34  30  39
   3  34  39  28
   3  34  39  30
   3  34  28  39
   3  34  28   9
   3  34   9  13
   3  34   9  28
   3  34  13  17
   3  34  13   9
   3  34  17  80
   3  34  17  13
   3  35  28  39
   3  35  28   2
   3  35  39  28
   3  35  39  51
   3  35  51  44
   3  35  51  39
   3  35  44  31
   3  35  44  51
   3  35  31   2
   3  35  31  44
   3  35   2  31
   3  35   2  28
   3  36  32  43
   3  36  32   5
   3  36  43  32
   3  36  43  50
   3  36  50  40
   3  36  50  43
   3  36  40  68
   3  36  40  50
   3  36  68   5
   3  36  68  40
   3  36   5  32
   3  36   5  68
   3  37  45  62
   3  37  45  78
   3  37  62  47
   3  37  62  45
   3  37  47  62
   3  37  47  64
   3  37  64  47
   3  37  64  32
   3  37  32  64
   3  37  32   7
   3  37   7  11
   3  37   7  32
   3  37  11  15
   3  37  11   7
   3  37  15  78
   3  37  15  11
   3  37  78  45
   3  37  78  15
   3  38  73 102
   4  38  73  74  45
   3  38 102  73
   3  38 102  84
   3  38  84  77
   3  38  84 102
   3  38  77  63
   3  38  77  84
   3  38  63  77
   3  38  63  62
   3  38  62  45
   3  38  62  63
   3  38  45  62
   4  38  45  74  73
   3  39  35  28
   3  39  35  51
   3  39  28  34
   3  39  28  35
   3  39  34  30
   3  39  34  28
   3  39  30  34
   3  39  30  60
   3  39  60  30
   3  39  60  51
   3  39  51  35
   3  39  51  60
   3  40  29  33
   3  40  29  61
   3  40  33  68
   3  40  33  29
   3  40  68  36
   3  40  68  33
   3  40  36  50
   3  40  36  68
   3  40  50  36
   3  40  50  61
   3  40  61  50
   3  40  61  29
   3  41  86  60
   4  41  86  56  93
   3  41  60  30
   3  41  60  86
   3  41  30  60
   4  41  30  29  42
   3  42  29  61
   4  42  29  30  41
   3  42  61  87
   3  42  61  29
   3  42  87  61
   4  42  87  56  94
   3  43  36  32
   3  43  36  50
   3  43  32  64
   3  43  32  36
   3  43  64  48
   3  43  64  32
   3  43  48  64
   3  43  48  65
   3  43  65  48
   3  43  65  50
   3  43  50  36
   3  43  50  65
   3  44  67  49
   3  44  67  31
   3  44  31  35
   3  44  31  67
   3  44  35  51
   3  44  35  31
   3  44  51  35
   3  44  51  66
   3  44  66  51
   3  44  66  49
   3  44  49  67
   3  44  49  66
   3  45  74 103
   4  45  74  73  38
   3  45  38  62
   4  45  38  73  74
   3  45  62  37
   3  45  62  38
   3  45  37  62
   3  45  37  78
   3  45  78  85
   3  45  78  37
   3  45  85 103
   3  45  85  78
   3  45 103  85
   3  45 103  74
   3  46  58  88
   4  46  58  99 100
   3  46  88  95
   3  46  88  58
   3  46  95  82
   3  46  95  88
   3  46  82  79
   3  46  82  95
   3  46  79  57
   3  46  79  82
   3  46  57  55
   3  46  57  79
   3  46  55  57
   4  46  55 101 100
   3  47  37  62
   3  47  37  64
   3  47  62  37
   3  47  62  63
   3  47  63  67
   3  47  63  62
   3  47  67  49
   3  47  67  63
   3  47  49  67
   3  47  49  52
   3  47  52  48
   3  47  52  49
   3  47  48  64
   3  47  48  52
   3  47  64  37
   3  47  64  48
   3  48  43  64
   3  48  43  65
   3  48  64  47
   3  48  64  43
   3  48  47  52
   3  48  47  64
   3  48  52  47
   3  48  52  71
   3  48  71  52
   3  48  71  65
   3  48  65  71
   3  48  65  43
   3  49  47  67
   3  49  47  52
   3  49  67  47
   3  49  67  44
   3  49  44  67
   3  49  44  66
   3  49  66  72
   3  49  66  44
   3  49  72  66
   3  49  72  52
   3  49  52  47
   3  49  52  72
   3  50  40  36
   3  50  40  61
   3  50  36  43
   3  50  36  40
   3  50  43  36
   3  50  43  65
   3  50  65  75
   3  50  65  43
   3  50  75  65
   3  50  75  61
   3  50  61  75
   3  50  61  40
   3  51  44  35
   3  51  44  66
   3  51  35  39
   3  51  35  44
   3  51  39  35
   3  51  39  60
   3  51  60  76
   3  51  60  39
   3  51  76  60
   3  51  76  66
   3  51  66  76
   3  51  66  44
   3  52  48  47
   3  52  48  71
   3  52  47  49
   3  52  47  48
   3  52  49  47
   3  52  49  72
   3  52  72  81
   3  52  72  49
   3  52  81  72
   3  52  81  71
   3  52  71  81
   3  52  71  48
   3  53   3  26
   4  53   3  91  90
   3  53  26  22
   3  53  26   3
   3  53  22  69
   3  53  22  26
   3  53  69 102
   3  53  69  22
   3  53 102  73
   3  53 102  69
   3  53  73  90
   3  53  73 102
   3  53  90  73
   4  53  90  91   3
   3  54   4  27
   4  54   4  92  90
   3  54  90  74
   4  54  90  92   4
   3  54  74 103
   3  54  74  90
   3  54 103  70
   3  54 103  74
   3  54  70 103
   3  54  70  23
   3  54  23  27
   3  54  23  70
   3  54  27   4
   3  54  27  23
   3  55  59  89
   4  55  59  99 101
   3  55  46  57
   4  55  46 100 101
   3  55  57  80
   3  55  57  46
   3  55  80  83
   3  55  80  57
   3  55  83  96
   3  55  83  80
   3  55  96  89
   3  55  96  83
   3  55  89  59
   3  55  89  96
   3  56  75  97
   3  56  75  87
   3  56  97  75
   3  56  97  71
   3  56  71  81
   3  56  71  97
   3  56  81  72
   3  56  81  71
   3  56  72  98
   3  56  72  81
   3  56  98  72
   3  56  98  76
   3  56  76  86
   3  56  76  98
   3  56  86  76
   4  56  86  41  93
   3  56  93  94
   4  56  93  41  86
   3  56  94  93
   4  56  94  42  87
   3  56  87  75
   4  56  87  42  94
   3  57  29  33
   3  57  29  30
   3  57  30  34
   3  57  30  29
   3  57  34  80
   3  57  34  30
   3  57  80  55
   3  57  80  34
   3  57  55  46
   3  57  55  80
   3  57  46  79
   3  57  46  55
   3  57  79  46
   3  57  79  33
   3  57  33  79
   3  57  33  29
   3  58   0  24
   3  58   0  99
   3  58  24  88
   3  58  24   0
   3  58  88  46
   3  58  88  24
   3  58  46  88
   4  58  46 100  99
   3  58  99   0
   4  58  99 100  46
   3  59   1  99
   3  59   1  25
   3  59  99   1
   4  59  99 101  55
   3  59  55  89
   4  59  55 101  99
   3  59  89  55
   3  59  89  25
   3  59  25   1
   3  59  25  89
   3  60  30  41
   3  60  30  39
   3  60  41  86
   3  60  41  30
   3  60  86  76
   3  60  86  41
   3  60  76  86
   3  60  76  51
   3  60  51  39
   3  60  51  76
   3  60  39  30
   3  60  39  51
   3  61  50  40
   3  61  50  75
   3  61  75  87
   3  61  75  50
   3  61  87  42
   3  61  87  75
   3  61  42  29
   3  61  42  87
   3  61  29  40
   3  61  29  42
   3  61  40  29
   3  61  40  50
   3  62  47  37
   3  62  47  63
   3  62  37  45
   3  62  37  47
   3  62  45  38
   3  62  45  37
   3  62  38  63
   3  62  38  45
   3  62  63  38
   3  62  63  47
   3  63  38  77
   3  63  38  62
   3  63  77  38
   3  63  77  14
   3  63  14  10
   3  63  14  77
   3  63  10   6
   3  63  10  14
   3  63   6  31
   3  63   6  10
   3  63  31  67
   3  63  31   6
   3  63  67  47
   3  63  67  31
   3  63  47  62
   3  63  47  67
   3  63  62  47
   3  63  62  38
   3  64  37  47
   3  64  37  32
   3  64  47  37
   3  64  47  48
   3  64  48  43
   3  64  48  47
   3  64  43  32
   3  64  43  48
   3  64  32  37
   3  64  32  43
   3  65  48  43
   3  65  48  71
   3  65  71  97
   3  65  71  48
   3  65  97  75
   3  65  97  71
   3  65  75  97
   3  65  75  50
   3  65  50  43
   3  65  50  75
   3  65  43  48
   3  65  43  50
   3  66  51  44
   3  66  51  76
   3  66  76  98
   3  66  76  51
   3  66  98  72
   3  66  98  76
   3  66  72  98
   3  66  72  49
   3  66  49  44
   3  66  49  72
   3  66  44  51
   3  66  44  49
   3  67  49  47
   3  67  49  44
   3  67  47  63
   3  67  47  49
   3  67  63  31
   3  67  63  47
   3  67  31  44
   3  67  31  63
   3  67  44  31
   3  67  44  49
   3  68   5  36
   3  68   5   8
   3  68  36  40
   3  68  36   5
   3  68  40  33
   3  68  40  36
   3  68  33   8
   3  68  33  40
   3  68   8   5
   3  68   8  33
   3  69  18  84
   3  69  18  22
   3  69  84 102
   3  69  84  18
   3  69 102  53
   3  69 102  84
   3  69  53  22
   3  69  53 102
   3  69  22  18
   3  69  22  53
   3  70  54 103
   3  70  54  23
   3  70 103  85
   3  70 103  54
   3  70  85 103
   3  70  85  19
   3  70  19  23
   3  70  19  85
   3  70  23  54
   3  70  23  19
   3  71  52  48
   3  71  52  81
   3  71  81  56
   3  71  81  52
   3  71  56  97
   3  71  56  81
   3  71  97  65
   3  71  97  56
   3  71  65  48
   3  71  65  97
   3  71  48  52
   3  71  48  65
   3  72  66  98
   3  72  66  49
   3  72  98  66
   3  72  98  56
   3  72  56  81
   3  72  56  98
   3  72  81  56
   3  72  81  52
   3  72  52  49
   3  72  52  81
   3  72  49  66
   3  72  49  52
   3  73  38 102
   4  73  38  45  74
   3  73  74  90
   4  73  74  45  38
   3  73  90  74
   3  73  90  53
   3  73  53 102
   3  73  53  90
   3  73 102  53
   3  73 102  38
   3  74  45 103
   4  74  45  38  73
   3  74 103  54
   3  74 103  45
   3  74  54  90
   3  74  54 103
   3  74  90  73
   3  74  90  54
   3  74  73  90
   4  74  73  38  45
   3  75  65  97
   3  75  65  50
   3  75  97  65
   3  75  97  56
   3  75  56  97
   3  75  56  87
   3  75  87  61
   3  75  87  56
   3  75  61  50
   3  75  61  87
   3  75  50  65
   3  75  50  61
   3  76  60  86
   3  76  60  51
   3  76  86  60
   3  76  86  56
   3  76  56  98
   3  76  56  86
   3  76  98  66
   3  76  98  56
   3  76  66  51
   3  76  66  98
   3  76  51  60
   3  76  51  66
   3  77  63  38
   3  77  63  14
   3  77  38  84
   3  77  38  63
   3  77  84  38
   3  77  84  18
   3  77  18  14
   3  77  18  84
   3  77  14  63
   3  77  14  18
   3  78  19  85
   3  78  19  15
   3  78  85  45
   3  78  85  19
   3  78  45  37
   3  78  45  85
   3  78  37  45
   3  78  37  15
   3  78  15  19
   3  78  15  37
   3  79  57  46
   3  79  57  33
   3  79  46  82
   3  79  46  57
   3  79  82  46
   3  79  82  16
   3  79  16  33
   3  79  16  82
   3  79  33  16
   3  79  33  57
   3  80  17  83
   3  80  17  34
   3  80  83  55
   3  80  83  17
   3  80  55  57
   3  80  55  83
   3  80  57  34
   3  80  57  55
   3  80  34  57
   3  80  34  17
   3  81  72  56
   3  81  72  52
   3  81  56  71
   3  81  56  72
   3  81  71  52
   3  81  71  56
   3  81  52  72
   3  81  52  71
   3  82  79  46
   3  82  79  16
   3  82  46  95
   3  82  46  79
   3  82  95  46
   3  82  95  20
   3  82  20  16
   3  82  20  95
   3  82  16  79
   3  82  16  20
   3  83  21  96
   3  83  21  17
   3  83  96  55
   3  83  96  21
   3  83  55  80
   3  83  55  96
   3  83  80  17
   3  83  80  55
   3  83  17  21
   3  83  17  80
   3  84  77  38
   3  84  77  18
   3  84  38 102
   3  84  38  77
   3  84 102  69
   3  84 102  38
   3  84  69  18
   3  84  69 102
   3  84  18  77
   3  84  18  69
   3  85  70 103
   3  85  70  19
   3  85 103  70
   3  85 103  45
   3  85  45  78
   3  85  45 103
   3  85  78  19
   3  85  78  45
   3  85  19  70
   3  85  19  78
   3  86  76  60
   3  86  76  56
   3  86  60  41
   3  86  60  76
   3  86  41  60
   4  86  41  93  56
   3  86  56  76
   4  86  56  93  41
   3  87  42  61
   4  87  42  94  56
   3  87  61  75
   3  87  61  42
   3  87  75  56
   3  87  75  61
   3  87  56  75
   4  87  56  94  42
   3  88  20  95
   3  88  20  24
   3  88  95  46
   3  88  95  20
   3  88  46  58
   3  88  46  95
   3  88  58  24
   3  88  58  46
   3  88  24  20
   3  88  24  58
   3  89  59  55
   3  89  59  25
   3  89  55  59
   3  89  55  96
   3  89  96  55
   3  89  96  21
   3  89  21  25
   3  89  21  96
   3  89  25  59
   3  89  25  21
   3  90  73  74
   3  90  73  53
   3  90  74  54
   3  90  74  73
   3  90  54  74
   4  90  54   4  92
   3  90  92  91
   4  90  92   4  54
   3  90  91  92
   4  90  91   3  53
   3  90  53  73
   4  90  53   3  91
   3  91  90  92
   4  91  90  53   3
   3  91  92  90
   4  91  92   4   3
   3  92  91  90
   4  92  91   3   4
   3  92  90  91
   4  92  90  54   4
   3  93  94  56
   4  93  94  42  41
   3  93  56  94
   4  93  56  86  41
   3  94  56  93
   4  94  56  87  42
   3  94  93  56
   4  94  93  41  42
   3  95  82  46
   3  95  82  20
   3  95  46  88
   3  95  46  82
   3  95  88  20
   3  95  88  46
   3  95  20  82
   3  95  20  88
   3  96  89  55
   3  96  89  21
   3  96  55  83
   3  96  55  89
   3  96  83  21
   3  96  83  55
   3  96  21  89
   3  96  21  83
   3  97  75  65
   3  97  75  56
   3  97  65  71
   3  97  65  75
   3  97  71  56
   3  97  71  65
   3  97  56  75
   3  97  56  71
   3  98  72  66
   3  98  72  56
   3  98  66  76
   3  98  66  72
   3  98  76  56
   3  98  76  66
   3  98  56  72
   3  98  56  76
   3  99 100 101
   4  99 100  46  58
   3  99 101 100
   4  99 101  55  59
   3  99  59   1
   4  99  59  55 101
   3  99   1   0
   3  99   1  59
   3  99   0  58
   3  99   0   1
   3  99  58   0
   4  99  58  46 100
   3 100 101  99
   4 100 101  55  46
   3 100  99 101
   4 100  99  58  46
   3 101  99 100
   4 101  99  59  55
   3 101 100  99
   4 101 100  46  55
   3 102  73  38
   3 102  73  53
   3 102  53  69
   3 102  53  73
   3 102  69  84
   3 102  69  53
   3 102  84  38
   3 102  84  69
   3 102  38  73
   3 102  38  84
   3 103  85  70
   3 103  85  45
   3 103  70  54
   3 103  70  85
   3 103  54  74
   3 103  54  70
   3 103  74  45
   3 103  74  54
   3 103  45  74
   3 103  45  85
