 COFF
         114        1114         114
  
  -6.4830683619498126       0.99582895097049429        6.0652420204817741       0.60000002384185791       0.60000002384185791       0.60000002384185791       0.80000001192092896     
  -6.4830683619498330      -0.99582895097050539        6.0652420204817465       0.60000002384185791       0.60000002384185791       0.60000002384185791       0.80000001192092896     
  -3.0316198276295076E-002  -2.0952923908896319        5.7011730375462788       0.60000002384185791       0.60000002384185791       0.60000002384185791       0.80000001192092896     
   7.3787702988618937      -0.96087365429054872        6.1851411403184864       0.60000002384185791       0.60000002384185791       0.60000002384185791       0.80000001192092896     
   7.3787702988618893       0.96087365429053984        6.1851411403185068       0.60000002384185791       0.60000002384185791       0.60000002384185791       0.80000001192092896     
  -3.0316198270169129E-002   2.0952923906276051        5.7011730378105874       0.60000002384185791       0.60000002384185791       0.60000002384185791       0.80000001192092896     
   1.1209947665507387       -1.7657401612859132        5.8542390540850926       0.60000002384185791       0.60000002384185791       0.60000002384185791       0.80000001192092896     
   1.1209947664636306        1.7657401610867480        5.8542390542983949       0.60000002384185791       0.60000002384185791       0.60000002384185791       0.80000001192092896     
  -1.1477003618018977        1.7388497566670211        5.8349763330896742       0.60000002384185791       0.60000002384185791       0.60000002384185791       0.80000001192092896     
  -1.1477003618298056       -1.7388497566886822        5.8349763330649287       0.60000002384185791       0.60000002384185791       0.60000002384185791       0.80000001192092896     
   2.0314693310738927       -1.4444960950119761        6.1156575116783376       0.60000002384185791       0.60000002384185791       0.60000002384185791       0.80000001192092896     
   2.0314693310806247        1.4444960949542123        6.1156575117361403       0.60000002384185791       0.60000002384185791       0.60000002384185791       0.80000001192092896     
  -2.0635928727810966        1.4401466554703417        6.1031786889871622       0.60000002384185791       0.60000002384185791       0.60000002384185791       0.80000001192092896     
  -2.0635928727780271       -1.4401466554424625        6.1031786890138813       0.60000002384185791       0.60000002384185791       0.60000002384185791       0.80000001192092896     
   3.0721555345102929       -1.4999890189068228        5.9888390022013587       0.60000002384185791       0.60000002384185791       0.60000002384185791       0.80000001192092896     
   3.0721555345096143        1.4999890188876386        5.9888390022205984       0.60000002384185791       0.60000002384185791       0.60000002384185791       0.80000001192092896     
  -3.0469744896820061        1.4834803772603000        5.9288436630293404       0.60000002384185791       0.60000002384185791       0.60000002384185791       0.80000001192092896     
  -3.0469744896639450       -1.4834803773025573        5.9288436629892134       0.60000002384185791       0.60000002384185791       0.60000002384185791       0.80000001192092896     
   4.1061474431334197       -1.4668616973802839        5.9215700807894081       0.60000002384185791       0.60000002384185791       0.60000002384185791       0.80000001192092896     
   4.1061474431325200        1.4668616973768935        5.9215700807928791       0.60000002384185791       0.60000002384185791       0.60000002384185791       0.80000001192092896     
  -4.0521328789274271        1.4552207103990753        5.8905851119285053       0.60000002384185791       0.60000002384185791       0.60000002384185791       0.80000001192092896     
  -4.0521328789283242       -1.4552207104018438        5.8905851119256623       0.60000002384185791       0.60000002384185791       0.60000002384185791       0.80000001192092896     
   5.0804130222110695       -1.2724529717411814        6.0359860993709322       0.60000002384185791       0.60000002384185791       0.60000002384185791       0.80000001192092896     
   5.0804130222111059        1.2724529717407471        6.0359860993713355       0.60000002384185791       0.60000002384185791       0.60000002384185791       0.80000001192092896     
  -5.0693893783394754        1.3054876204941532        5.9557240799968953       0.60000002384185791       0.60000002384185791       0.60000002384185791       0.80000001192092896     
  -5.0693893783395279       -1.3054876204944599        5.9557240799965774       0.60000002384185791       0.60000002384185791       0.60000002384185791       0.80000001192092896     
   6.0628127686809670       -1.1967586902210374        6.2055718694123829       0.60000002384185791       0.60000002384185791       0.60000002384185791       0.80000001192092896     
   6.0628127686810753        1.1967586902209624        6.2055718694124735       0.60000002384185791       0.60000002384185791       0.60000002384185791       0.80000001192092896     
  -1.0267494678734717       -1.7104975242962881        4.8658577864826453       0.60000002384185791       0.60000002384185791       0.60000002384185791       0.80000001192092896     
  -1.9471612261954672       0.91471738799477553        3.6696848215615354       0.60000002384185791       0.60000002384185791       0.60000002384185791       0.80000001192092896     
  -1.9471611412266694      -0.91471743797994232        3.6696847063616547       0.60000002384185791       0.60000002384185791       0.60000002384185791       0.80000001192092896     
   1.1404514198322786       -1.6818606906003819        4.6538779541711817       0.60000002384185791       0.60000002384185791       0.60000002384185791       0.80000001192092896     
   1.1404514185346122        1.6818606871986692        4.6538779545781042       0.60000002384185791       0.60000002384185791       0.60000002384185791       0.80000001192092896     
  -2.1704480812408939        1.3993525894331102        4.9579670257413886       0.60000002384185791       0.60000002384185791       0.60000002384185791       0.80000001192092896     
  -2.1704480759185349       -1.3993525897427641        4.9579670205197477       0.60000002384185791       0.60000002384185791       0.60000002384185791       0.80000001192092896     
   4.2328294913489037E-002  -1.8164772812191883        4.3995899328674994       0.60000002384185791       0.60000002384185791       0.60000002384185791       0.80000001192092896     
   4.2328291556014953E-002   1.8164774373597727        4.3995899251715862       0.60000002384185791       0.60000002384185791       0.60000002384185791       0.80000001192092896     
   2.3893075815227167        1.3514710867729725        4.8709579677304715       0.60000002384185791       0.60000002384185791       0.60000002384185791       0.80000001192092896     
   3.7217527539777073      -0.61901294050278599        3.3105001657960162        1.0000000000000000        1.0000000000000000        0.0000000000000000        1.0000000000000000     
 -0.85420549230697274       -1.6602268422967497        3.8952068832735320       0.60000002384185791       0.60000002384185791       0.60000002384185791       0.80000001192092896     
 -0.85420547971040039        1.6602267169007003        3.8952068545344671       0.60000002384185791       0.60000002384185791       0.60000002384185791       0.80000001192092896     
  -1.5019122243409841      -0.97731540723046051        2.3261794263198152       0.60000002384185791       0.60000002384185791       0.60000002384185791       0.80000001192092896     
  -1.5019123025623102       0.97731520281556128        2.3261793267419764       0.60000002384185791       0.60000002384185791       0.60000002384185791       0.80000001192092896     
   1.0238229233120759        1.6436638952272713        3.5708335575547863       0.60000002384185791       0.60000002384185791       0.60000002384185791       0.80000001192092896     
   1.0238229348911614       -1.6436639254824590        3.5708335634579313       0.60000002384185791       0.60000002384185791       0.60000002384185791       0.80000001192092896     
   3.7217527539679289       0.61901294044539723        3.3105001657960162        1.0000000000000000        1.0000000000000000        0.0000000000000000        1.0000000000000000     
  -4.2020617594456997       0.65953493789110207        3.5885653274392326        1.0000000000000000        1.0000000000000000        0.0000000000000000        1.0000000000000000     
   2.1375051580291555       -2.7090736673095984E-009   3.9696060171654803       0.60000002384185791       0.60000002384185791       0.60000002384185791       0.80000001192092896     
   1.4351326228976966        1.2569858188959766        3.2317464929756730       0.60000002384185791       0.60000002384185791       0.60000002384185791       0.80000001192092896     
   1.4351326690645985       -1.2569858372910687        3.2317464750740466       0.60000002384185791       0.60000002384185791       0.60000002384185791       0.80000001192092896     
  0.13662028066242854        1.7049119203926526        3.3677804498503905       0.60000002384185791       0.60000002384185791       0.60000002384185791       0.80000001192092896     
  0.13651794981578014       -1.7048112299198013        3.3677804565418090       0.60000002384185791       0.60000002384185791       0.60000002384185791       0.80000001192092896     
   1.6950552872681914       -1.2950616392796023E-008   2.9432321935954686       0.60000002384185791       0.60000002384185791       0.60000002384185791       0.80000001192092896     
   5.5657115460040121       -1.1710115289414047        5.3158497526626851       0.60000002384185791       0.60000002384185791       0.60000002384185791       0.80000001192092896     
   5.5657115472614533        1.1710115286767828        5.3158497526483837       0.60000002384185791       0.60000002384185791       0.60000002384185791       0.80000001192092896     
  -4.2020617594993119      -0.65953493779870331        3.5885653274392331        1.0000000000000000        1.0000000000000000        0.0000000000000000        1.0000000000000000     
  0.13809767692379007       -1.7499015606674539E-008   1.0382578837327854        1.0000000000000000        1.0000000000000000        0.0000000000000000        1.0000000000000000     
  -2.6177640619092024       -1.0461143145354303E-009   3.9613250251478389       0.60000002384185791       0.60000002384185791       0.60000002384185791       0.80000001192092896     
  -5.7391580915858276        1.1449421975344980        5.2672480153796206       0.60000002384185791       0.60000002384185791       0.60000002384185791       0.80000001192092896     
  -5.7391580915879166       -1.1449421975339400        5.2672480153808889       0.60000002384185791       0.60000002384185791       0.60000002384185791       0.80000001192092896     
 -0.61941018818723248       -1.5166229600269236        3.0631694120850912       0.60000002384185791       0.60000002384185791       0.60000002384185791       0.80000001192092896     
 -0.61940960420578639        1.5166219075356546        3.0631695105876044       0.60000002384185791       0.60000002384185791       0.60000002384185791       0.80000001192092896     
   2.3894870155420826       -1.2729700696546452E-009   4.4907350783701023       0.60000002384185791       0.60000002384185791       0.60000002384185791       0.80000001192092896     
   2.3893075818631249       -1.3514710866694459        4.8709579669906029       0.60000002384185791       0.60000002384185791       0.60000002384185791       0.80000001192092896     
   1.6317342783225313        1.5272107854913333        4.2084074690382716       0.60000002384185791       0.60000002384185791       0.60000002384185791       0.80000001192092896     
  0.91817869276649400        1.5009161748792146        2.6202801897926671       0.60000002384185791       0.60000002384185791       0.60000002384185791       0.80000001192092896     
  0.91817868571091210       -1.5009164972569577        2.6202802937892899       0.60000002384185791       0.60000002384185791       0.60000002384185791       0.80000001192092896     
   1.6317342993696689       -1.5272107832841897        4.2084074646583360       0.60000002384185791       0.60000002384185791       0.60000002384185791       0.80000001192092896     
  -1.0267494722840689        1.7104975181035946        4.8658577877494436       0.60000002384185791       0.60000002384185791       0.60000002384185791       0.80000001192092896     
   4.5504830893399504       -1.3781031638801895        5.3277653928905853       0.60000002384185791       0.60000002384185791       0.60000002384185791       0.80000001192092896     
   4.5504830895867068        1.3781031606336493        5.3277653929050848       0.60000002384185791       0.60000002384185791       0.60000002384185791       0.80000001192092896     
   1.2593153798515637        1.0039570840901104        2.2945076273751015       0.60000002384185791       0.60000002384185791       0.60000002384185791       0.80000001192092896     
   1.2593152721292769       -1.0039571692148972        2.2945077166783872       0.60000002384185791       0.60000002384185791       0.60000002384185791       0.80000001192092896     
   5.4889242942713219      -0.70874123953651125        4.3003246841806781       0.60000002384185791       0.60000002384185791       0.60000002384185791       0.80000001192092896     
   5.4889242942735645       0.70874123953790502        4.3003246841818346       0.60000002384185791       0.60000002384185791       0.60000002384185791       0.80000001192092896     
  0.19307972213597635        1.5156110523025175        2.3872252947605146       0.60000002384185791       0.60000002384185791       0.60000002384185791       0.80000001192092896     
  0.19307902160775367       -1.5156117148650496        2.3872253019300191       0.60000002384185791       0.60000002384185791       0.60000002384185791       0.80000001192092896     
   3.5805434189105338       -1.4608888857807139        5.0083487665275568       0.60000002384185791       0.60000002384185791       0.60000002384185791       0.80000001192092896     
   3.5805434187223626        1.4608888857529765        5.0083487665343007       0.60000002384185791       0.60000002384185791       0.60000002384185791       0.80000001192092896     
  -2.9879833654536703        1.3380812511295965        4.4446323845184486       0.60000002384185791       0.60000002384185791       0.60000002384185791       0.80000001192092896     
  -2.9879833637719559       -1.3380812513036004        4.4446323865977435       0.60000002384185791       0.60000002384185791       0.60000002384185791       0.80000001192092896     
   1.4243379728595731        6.1943208099435609E-009   2.1418037971981403       0.60000002384185791       0.60000002384185791       0.60000002384185791       0.80000001192092896     
  -3.5352392715003620        1.4359166467684479        4.9994566542709391       0.60000002384185791       0.60000002384185791       0.60000002384185791       0.80000001192092896     
  -3.5352392716935008       -1.4359166469021631        4.9994566539107330       0.60000002384185791       0.60000002384185791       0.60000002384185791       0.80000001192092896     
   3.9830939626425721       -1.4114036434940007        4.8001825508742826       0.60000002384185791       0.60000002384185791       0.60000002384185791       0.80000001192092896     
   3.9830939622801882        1.4114036433200132        4.8001825504898132       0.60000002384185791       0.60000002384185791       0.60000002384185791       0.80000001192092896     
 -0.37506172813565508       -1.3497823383036609        2.0703503188902177       0.60000002384185791       0.60000002384185791       0.60000002384185791       0.80000001192092896     
 -0.37506165104494826        1.3497818776259585        2.0703506222081653       0.60000002384185791       0.60000002384185791       0.60000002384185791       0.80000001192092896     
  -4.9032163075845334        1.2305348999299364        4.9418629506396687       0.60000002384185791       0.60000002384185791       0.60000002384185791       0.80000001192092896     
  -4.9032163075848390       -1.2305348999295240        4.9418629506464606       0.60000002384185791       0.60000002384185791       0.60000002384185791       0.80000001192092896     
   6.2002653073856369        5.0076221150205450E-013   5.0500774731116520       0.60000002384185791       0.60000002384185791       0.60000002384185791       0.80000001192092896     
   6.9109501753666569      -0.65877255814572866        5.3852909975094843       0.60000002384185791       0.60000002384185791       0.60000002384185791       0.80000001192092896     
   6.9109501753666933       0.65877255814576374        5.3852909975094665       0.60000002384185791       0.60000002384185791       0.60000002384185791       0.80000001192092896     
  -1.2080946223353168      -0.64772454149886405        1.5573218828408051       0.60000002384185791       0.60000002384185791       0.60000002384185791       0.80000001192092896     
  -1.2080945413949702       0.64772449225883044        1.5573217736960603       0.60000002384185791       0.60000002384185791       0.60000002384185791       0.80000001192092896     
  -4.1379181877793245        1.3388677843025287        4.8598305336779042       0.60000002384185791       0.60000002384185791       0.60000002384185791       0.80000001192092896     
  -4.1379181880707074       -1.3388677842583794        4.8598305338661634       0.60000002384185791       0.60000002384185791       0.60000002384185791       0.80000001192092896     
  0.70727278764391122        1.0578003437069625        1.7983211475438301       0.60000002384185791       0.60000002384185791       0.60000002384185791       0.80000001192092896     
  0.70727240732737462       -1.0578004559804832        1.7983211508141748       0.60000002384185791       0.60000002384185791       0.60000002384185791       0.80000001192092896     
  -5.9344516150822049       -3.5095313028149931E-013   5.1106368759056569       0.60000002384185791       0.60000002384185791       0.60000002384185791       0.80000001192092896     
  -5.3065232014537527       0.45493151808085069        4.2380761279484824       0.60000002384185791       0.60000002384185791       0.60000002384185791       0.80000001192092896     
  -5.3065232014523787      -0.45493151808614579        4.2380761279470489       0.60000002384185791       0.60000002384185791       0.60000002384185791       0.80000001192092896     
   4.2395261806121542       -1.2310562749120213        4.3368589580073040       0.60000002384185791       0.60000002384185791       0.60000002384185791       0.80000001192092896     
   4.2395261806236695        1.2310562749071399        4.3368589580033863       0.60000002384185791       0.60000002384185791       0.60000002384185791       0.80000001192092896     
  -5.2644250712001863       0.92662709224562667        4.4789762013188898       0.60000002384185791       0.60000002384185791       0.60000002384185791       0.80000001192092896     
  -5.2644250711899323      -0.92662709225185058        4.4789762013087113       0.60000002384185791       0.60000002384185791       0.60000002384185791       0.80000001192092896     
   2.8566905143411705        1.0006408106858735        4.1189304915727654       0.60000002384185791       0.60000002384185791       0.60000002384185791       0.80000001192092896     
   2.8566905151279456       -1.0006408116937016        4.1189304905467514       0.60000002384185791       0.60000002384185791       0.60000002384185791       0.80000001192092896     
   6.5074410763564972       -1.0602145378223642        5.7446869064526682       0.60000002384185791       0.60000002384185791       0.60000002384185791       0.80000001192092896     
   6.5074410763565673        1.0602145378229861        5.7446869064527979       0.60000002384185791       0.60000002384185791       0.60000002384185791       0.80000001192092896     
   4.7250276786809273      -0.66114264130006151        3.7764572039740854       0.60000002384185791       0.60000002384185791       0.60000002384185791       0.80000001192092896     
   4.7250276786831629       0.66114264128220801        3.7764572039743132       0.60000002384185791       0.60000002384185791       0.60000002384185791       0.80000001192092896     
  0.16608331016998676       0.79759047193617605        1.6989167143127037       0.60000002384185791       0.60000002384185791       0.60000002384185791       0.80000001192092896     
  0.16608291267804218      -0.79759088819003243        1.6989167162583507       0.60000002384185791       0.60000002384185791       0.60000002384185791       0.80000001192092896     
  
   3   0  24  58
   3   0  58  24
   3   0  58  99
   3   0  99   1
   3   0  99  58
   3   0   1  99
   3   1   0  99
   3   1  99  59
   3   1  99   0
   3   1  59  99
   3   1  59  25
   3   1  25  59
   3   2  35  28
   3   2  35  31
   3   2  31  35
   3   2  31   6
   3   2   6  31
   3   2   9  28
   3   2  28  35
   3   2  28   9
   3   3  26 108
   3   3 108  26
   3   3 108  91
   3   3  91 108
   4   3  91  92   4
   3   4  92 109
   4   4  92  91   3
   3   4 109  92
   3   4 109  27
   3   4  27 109
   3   5   7  32
   3   5  32  36
   3   5  32   7
   3   5  36  32
   3   5  36  68
   3   5  68  36
   3   5  68   8
   3   5   8  68
   3   6   2  31
   3   6  31   2
   3   6  31  63
   3   6  63  10
   3   6  63  31
   3   6  10  63
   3   7  11  37
   3   7  37  32
   3   7  37  11
   3   7  32  37
   3   7  32   5
   3   7   5  32
   3   8   5  68
   3   8  68   5
   3   8  68  33
   3   8  33  12
   3   8  33  68
   3   8  12  33
   3   9  13  34
   3   9  34  28
   3   9  34  13
   3   9  28  34
   3   9  28   2
   3   9   2  28
   3  10   6  63
   3  10  63  14
   3  10  63   6
   3  10  14  63
   3  11  15  37
   3  11  37   7
   3  11  37  15
   3  11   7  37
   3  12   8  33
   3  12  33  16
   3  12  33   8
   3  12  16  33
   3  13  17  34
   3  13  34   9
   3  13  34  17
   3  13   9  34
   3  14  10  63
   3  14  63  77
   3  14  63  10
   3  14  77  63
   3  14  77  18
   3  14  18  77
   3  15  19  78
   3  15  78  19
   3  15  78  37
   3  15  37  11
   3  15  37  78
   3  15  11  37
   3  16  12  33
   3  16  33  79
   3  16  33  12
   3  16  79  82
   3  16  79  33
   3  16  82  79
   3  16  82  20
   3  16  20  82
   3  17  21  83
   3  17  83  21
   3  17  83  80
   3  17  80  83
   3  17  80  34
   3  17  34  80
   3  17  34  13
   3  17  13  34
   3  18  14  77
   3  18  77  84
   3  18  77  14
   3  18  84  77
   3  18  84  69
   3  18  69  84
   3  18  69  22
   3  18  22  69
   3  19  23  70
   3  19  70  85
   3  19  70  23
   3  19  85  70
   3  19  85  78
   3  19  78  85
   3  19  78  15
   3  19  15  78
   3  20  16  82
   3  20  82  95
   3  20  82  16
   3  20  95  82
   3  20  95  88
   3  20  88  95
   3  20  88  24
   3  20  24  88
   3  21  25  89
   3  21  89  96
   3  21  89  25
   3  21  96  89
   3  21  96  83
   3  21  83  96
   3  21  83  17
   3  21  17  83
   3  22  18  69
   3  22  69  18
   3  22  69  53
   3  22  53  26
   3  22  53  69
   3  22  26  53
   3  23  27  54
   3  23  54  70
   3  23  54  27
   3  23  70  54
   3  23  70  19
   3  23  19  70
   3  24  20  88
   3  24  88  20
   3  24  88  58
   3  24  58   0
   3  24  58  88
   3  24   0  58
   3  25   1  59
   3  25  59   1
   3  25  59  89
   3  25  89  59
   3  25  89  21
   3  25  21  89
   3  26  22  53
   3  26  53 108
   3  26  53  22
   3  26 108  53
   3  26 108   3
   3  26   3 108
   3  27   4 109
   3  27 109  54
   3  27 109   4
   3  27  54 109
   3  27  54  23
   3  27  23  54
   3  28  34  39
   3  28  34   9
   3  28  39  35
   3  28  39  34
   3  28  35  39
   3  28  35   2
   3  28   2  35
   3  28   2   9
   3  28   9  34
   3  28   9   2
   3  29  33  40
   3  29  33  57
   3  29  40  33
   3  29  40  61
   3  29  61  42
   3  29  61  40
   3  29  42  61
   4  29  42  41  30
   3  29  30  57
   4  29  30  41  42
   3  29  57  30
   3  29  57  33
   3  30  34  57
   3  30  34  39
   3  30  57  29
   3  30  57  34
   3  30  29  57
   4  30  29  42  41
   3  30  41  60
   4  30  41  42  29
   3  30  60  41
   3  30  60  39
   3  30  39  34
   3  30  39  60
   3  31   2  35
   3  31   2   6
   3  31  35  44
   3  31  35   2
   3  31  44  67
   3  31  44  35
   3  31  67  63
   3  31  67  44
   3  31  63   6
   3  31  63  67
   3  31   6   2
   3  31   6  63
   3  32  37  64
   3  32  37   7
   3  32  64  37
   3  32  64  43
   3  32  43  36
   3  32  43  64
   3  32  36  43
   3  32  36   5
   3  32   5   7
   3  32   5  36
   3  32   7  37
   3  32   7   5
   3  33  79  57
   3  33  79  16
   3  33  16  12
   3  33  16  79
   3  33  12   8
   3  33  12  16
   3  33   8  68
   3  33   8  12
   3  33  68  40
   3  33  68   8
   3  33  40  29
   3  33  40  68
   3  33  29  40
   3  33  29  57
   3  33  57  29
   3  33  57  79
   3  34  80  17
   3  34  80  57
   3  34  57  30
   3  34  57  80
   3  34  30  57
   3  34  30  39
   3  34  39  28
   3  34  39  30
   3  34  28  39
   3  34  28   9
   3  34   9  13
   3  34   9  28
   3  34  13  17
   3  34  13   9
   3  34  17  80
   3  34  17  13
   3  35  28  39
   3  35  28   2
   3  35  39  28
   3  35  39  51
   3  35  51  44
   3  35  51  39
   3  35  44  31
   3  35  44  51
   3  35  31   2
   3  35  31  44
   3  35   2  31
   3  35   2  28
   3  36  32  43
   3  36  32   5
   3  36  43  32
   3  36  43  50
   3  36  50  40
   3  36  50  43
   3  36  40  68
   3  36  40  50
   3  36  68   5
   3  36  68  40
   3  36   5  32
   3  36   5  68
   3  37 106  78
   3  37 106  62
   3  37  62  47
   3  37  62 106
   3  37  47  62
   3  37  47  64
   3  37  64  47
   3  37  64  32
   3  37  32  64
   3  37  32   7
   3  37   7  11
   3  37   7  32
   3  37  11  15
   3  37  11   7
   3  37  15  78
   3  37  15  11
   3  37  78 106
   3  37  78  15
   3  38 102  84
   4  38 102  73 110
   3  38  84  77
   3  38  84 102
   3  38  77 107
   3  38  77  84
   3  38 107  77
   3  38 107  62
   3  38  62  45
   3  38  62 107
   3  38  45  62
   4  38  45 111 110
   3  39  35  28
   3  39  35  51
   3  39  28  34
   3  39  28  35
   3  39  34  30
   3  39  34  28
   3  39  30  34
   3  39  30  60
   3  39  60  30
   3  39  60  51
   3  39  51  35
   3  39  51  60
   3  40  29  33
   3  40  29  61
   3  40  33  68
   3  40  33  29
   3  40  68  36
   3  40  68  33
   3  40  36  50
   3  40  36  68
   3  40  50  36
   3  40  50  61
   3  40  61  50
   3  40  61  29
   3  41  86  60
   4  41  86  56  93
   3  41  60  30
   3  41  60  86
   3  41  30  60
   4  41  30  29  42
   3  42  29  61
   4  42  29  30  41
   3  42  61  87
   3  42  61  29
   3  42  87  61
   4  42  87  56  94
   3  43  36  32
   3  43  36  50
   3  43  32  64
   3  43  32  36
   3  43  64  48
   3  43  64  32
   3  43  48  64
   3  43  48  65
   3  43  65  48
   3  43  65  50
   3  43  50  36
   3  43  50  65
   3  44  67  49
   3  44  67  31
   3  44  31  35
   3  44  31  67
   3  44  35  51
   3  44  35  31
   3  44  51  35
   3  44  51  66
   3  44  66  51
   3  44  66  49
   3  44  49  67
   3  44  49  66
   3  45  38  62
   4  45  38 110 111
   3  45  62 106
   3  45  62  38
   3  45 106  78
   3  45 106  62
   3  45  78  85
   3  45  78 106
   3  45  85 103
   3  45  85  78
   3  45 103  85
   4  45 103  74 111
   3  46 104 100
   3  46 104  88
   3  46  88  95
   3  46  88 104
   3  46  95  82
   3  46  95  88
   3  46  82  79
   3  46  82  95
   3  46  79  57
   3  46  79  82
   3  46  57  55
   3  46  57  79
   3  46  55  57
   4  46  55 101 100
   3  46 100 104
   4  46 100 101  55
   3  47  37  62
   3  47  37  64
   3  47  62  37
   3  47  62  63
   3  47  63  67
   3  47  63  62
   3  47  67  49
   3  47  67  63
   3  47  49  67
   3  47  49  52
   3  47  52  48
   3  47  52  49
   3  47  48  64
   3  47  48  52
   3  47  64  37
   3  47  64  48
   3  48  43  64
   3  48  43  65
   3  48  64  47
   3  48  64  43
   3  48  47  52
   3  48  47  64
   3  48  52  47
   3  48  52  71
   3  48  71  52
   3  48  71  65
   3  48  65  71
   3  48  65  43
   3  49  47  67
   3  49  47  52
   3  49  67  47
   3  49  67  44
   3  49  44  67
   3  49  44  66
   3  49  66  72
   3  49  66  44
   3  49  72  66
   3  49  72  52
   3  49  52  47
   3  49  52  72
   3  50  40  36
   3  50  40  61
   3  50  36  43
   3  50  36  40
   3  50  43  36
   3  50  43  65
   3  50  65  75
   3  50  65  43
   3  50  75  65
   3  50  75  61
   3  50  61  75
   3  50  61  40
   3  51  44  35
   3  51  44  66
   3  51  35  39
   3  51  35  44
   3  51  39  35
   3  51  39  60
   3  51  60  76
   3  51  60  39
   3  51  76  60
   3  51  76  66
   3  51  66  76
   3  51  66  44
   3  52  48  47
   3  52  48  71
   3  52  47  49
   3  52  47  48
   3  52  49  47
   3  52  49  72
   3  52  72  81
   3  52  72  49
   3  52  81  72
   3  52  81  71
   3  52  71  81
   3  52  71  48
   3  53 108  26
   3  53 108  90
   3  53  26  22
   3  53  26 108
   3  53  22  69
   3  53  22  26
   3  53  69 102
   3  53  69  22
   3  53 102  73
   3  53 102  69
   3  53  73  90
   3  53  73 102
   3  53  90  73
   3  53  90 108
   3  54 109  90
   3  54 109  27
   3  54  90  74
   3  54  90 109
   3  54  74 103
   3  54  74  90
   3  54 103  70
   3  54 103  74
   3  54  70 103
   3  54  70  23
   3  54  23  27
   3  54  23  70
   3  54  27 109
   3  54  27  23
   3  55 105  89
   3  55 105 101
   3  55 101 105
   4  55 101 100  46
   3  55  46  57
   4  55  46 100 101
   3  55  57  80
   3  55  57  46
   3  55  80  83
   3  55  80  57
   3  55  83  96
   3  55  83  80
   3  55  96  89
   3  55  96  83
   3  55  89 105
   3  55  89  96
   3  56 112  87
   3  56 112  97
   3  56  97  71
   3  56  97 112
   3  56  71  81
   3  56  71  97
   3  56  81  72
   3  56  81  71
   3  56  72  98
   3  56  72  81
   3  56  98  72
   3  56  98 113
   3  56 113  98
   3  56 113  86
   3  56  86 113
   4  56  86  76  98
   3  56  93  94
   4  56  93  41  86
   3  56  94  93
   4  56  94  42  87
   3  56  87 112
   4  56  87  42  94
   3  57  29  33
   3  57  29  30
   3  57  30  34
   3  57  30  29
   3  57  34  80
   3  57  34  30
   3  57  80  55
   3  57  80  34
   3  57  55  46
   3  57  55  80
   3  57  46  79
   3  57  46  55
   3  57  79  46
   3  57  79  33
   3  57  33  79
   3  57  33  29
   3  58   0  24
   3  58   0  99
   3  58  24  88
   3  58  24   0
   3  58  88 104
   3  58  88  24
   3  58 104  99
   3  58 104  88
   3  58  99   0
   3  58  99 104
   3  59   1  99
   3  59   1  25
   3  59  99 105
   3  59  99   1
   3  59 105  89
   3  59 105  99
   3  59  89 105
   3  59  89  25
   3  59  25   1
   3  59  25  89
   3  60  30  41
   3  60  30  39
   3  60  41  86
   3  60  41  30
   3  60  86  76
   3  60  86  41
   3  60  76  86
   3  60  76  51
   3  60  51  39
   3  60  51  76
   3  60  39  30
   3  60  39  51
   3  61  50  40
   3  61  50  75
   3  61  75  87
   3  61  75  50
   3  61  87  42
   3  61  87  75
   3  61  42  29
   3  61  42  87
   3  61  29  40
   3  61  29  42
   3  61  40  29
   3  61  40  50
   3  62  47  37
   3  62  47  63
   3  62  37 106
   3  62  37  47
   3  62 106  45
   3  62 106  37
   3  62  45  38
   3  62  45 106
   3  62  38 107
   3  62  38  45
   3  62 107  63
   3  62 107  38
   3  62  63 107
   3  62  63  47
   3  63 107  77
   3  63 107  62
   3  63  77 107
   3  63  77  14
   3  63  14  10
   3  63  14  77
   3  63  10   6
   3  63  10  14
   3  63   6  31
   3  63   6  10
   3  63  31  67
   3  63  31   6
   3  63  67  47
   3  63  67  31
   3  63  47  62
   3  63  47  67
   3  63  62  47
   3  63  62 107
   3  64  37  47
   3  64  37  32
   3  64  47  37
   3  64  47  48
   3  64  48  43
   3  64  48  47
   3  64  43  32
   3  64  43  48
   3  64  32  37
   3  64  32  43
   3  65  48  43
   3  65  48  71
   3  65  71  97
   3  65  71  48
   3  65  97  75
   3  65  97  71
   3  65  75  97
   3  65  75  50
   3  65  50  43
   3  65  50  75
   3  65  43  48
   3  65  43  50
   3  66  51  44
   3  66  51  76
   3  66  76  98
   3  66  76  51
   3  66  98  72
   3  66  98  76
   3  66  72  98
   3  66  72  49
   3  66  49  44
   3  66  49  72
   3  66  44  51
   3  66  44  49
   3  67  49  47
   3  67  49  44
   3  67  47  63
   3  67  47  49
   3  67  63  31
   3  67  63  47
   3  67  31  44
   3  67  31  63
   3  67  44  31
   3  67  44  49
   3  68   5  36
   3  68   5   8
   3  68  36  40
   3  68  36   5
   3  68  40  33
   3  68  40  36
   3  68  33   8
   3  68  33  40
   3  68   8   5
   3  68   8  33
   3  69  18  84
   3  69  18  22
   3  69  84 102
   3  69  84  18
   3  69 102  53
   3  69 102  84
   3  69  53  22
   3  69  53 102
   3  69  22  18
   3  69  22  53
   3  70  54 103
   3  70  54  23
   3  70 103  85
   3  70 103  54
   3  70  85 103
   3  70  85  19
   3  70  19  23
   3  70  19  85
   3  70  23  54
   3  70  23  19
   3  71  52  48
   3  71  52  81
   3  71  81  56
   3  71  81  52
   3  71  56  97
   3  71  56  81
   3  71  97  65
   3  71  97  56
   3  71  65  48
   3  71  65  97
   3  71  48  52
   3  71  48  65
   3  72  66  98
   3  72  66  49
   3  72  98  66
   3  72  98  56
   3  72  56  81
   3  72  56  98
   3  72  81  56
   3  72  81  52
   3  72  52  49
   3  72  52  81
   3  72  49  66
   3  72  49  52
   3  73  74  90
   4  73  74 111 110
   3  73  90  74
   3  73  90  53
   3  73  53 102
   3  73  53  90
   3  73 102  53
   4  73 102  38 110
   3  74 103  54
   4  74 103  45 111
   3  74  54  90
   3  74  54 103
   3  74  90  73
   3  74  90  54
   3  74  73  90
   4  74  73 110 111
   3  75  65  97
   3  75  65  50
   3  75  97  65
   3  75  97 112
   3  75 112  87
   3  75 112  97
   3  75  87  61
   3  75  87 112
   3  75  61  50
   3  75  61  87
   3  75  50  65
   3  75  50  61
   3  76  60  86
   3  76  60  51
   3  76  86  60
   3  76  86 113
   3  76 113  98
   3  76 113  86
   3  76  98  66
   3  76  98 113
   3  76  66  51
   3  76  66  98
   3  76  51  60
   3  76  51  66
   3  77  63 107
   3  77  63  14
   3  77 107  63
   3  77 107  38
   3  77  38  84
   3  77  38 107
   3  77  84  38
   3  77  84  18
   3  77  18  14
   3  77  18  84
   3  77  14  63
   3  77  14  18
   3  78  19  85
   3  78  19  15
   3  78  85  45
   3  78  85  19
   3  78  45 106
   3  78  45  85
   3  78 106  45
   3  78 106  37
   3  78  37 106
   3  78  37  15
   3  78  15  19
   3  78  15  37
   3  79  57  46
   3  79  57  33
   3  79  46  82
   3  79  46  57
   3  79  82  46
   3  79  82  16
   3  79  16  33
   3  79  16  82
   3  79  33  16
   3  79  33  57
   3  80  17  83
   3  80  17  34
   3  80  83  55
   3  80  83  17
   3  80  55  57
   3  80  55  83
   3  80  57  34
   3  80  57  55
   3  80  34  57
   3  80  34  17
   3  81  72  56
   3  81  72  52
   3  81  56  71
   3  81  56  72
   3  81  71  52
   3  81  71  56
   3  81  52  72
   3  81  52  71
   3  82  79  46
   3  82  79  16
   3  82  46  95
   3  82  46  79
   3  82  95  46
   3  82  95  20
   3  82  20  16
   3  82  20  95
   3  82  16  79
   3  82  16  20
   3  83  21  96
   3  83  21  17
   3  83  96  55
   3  83  96  21
   3  83  55  80
   3  83  55  96
   3  83  80  17
   3  83  80  55
   3  83  17  21
   3  83  17  80
   3  84  77  38
   3  84  77  18
   3  84  38 102
   3  84  38  77
   3  84 102  69
   3  84 102  38
   3  84  69  18
   3  84  69 102
   3  84  18  77
   3  84  18  69
   3  85  70 103
   3  85  70  19
   3  85 103  70
   3  85 103  45
   3  85  45  78
   3  85  45 103
   3  85  78  19
   3  85  78  45
   3  85  19  70
   3  85  19  78
   3  86  76  60
   3  86  76 113
   3  86  60  41
   3  86  60  76
   3  86  41  60
   4  86  41  93  56
   3  86  56 113
   4  86  56  98  76
   3  86 113  76
   3  86 113  56
   3  87  42  61
   4  87  42  94  56
   3  87  61  75
   3  87  61  42
   3  87  75 112
   3  87  75  61
   3  87 112  75
   3  87 112  56
   3  87  56 112
   4  87  56  97  75
   3  88  20  95
   3  88  20  24
   3  88  95  46
   3  88  95  20
   3  88  46 104
   3  88  46  95
   3  88 104  58
   3  88 104  46
   3  88  58  24
   3  88  58 104
   3  88  24  20
   3  88  24  58
   3  89  59 105
   3  89  59  25
   3  89 105  59
   3  89 105  55
   3  89  55 105
   3  89  55  96
   3  89  96  55
   3  89  96  21
   3  89  21  25
   3  89  21  96
   3  89  25  59
   3  89  25  21
   3  90  73  74
   3  90  73  53
   3  90  74  54
   3  90  74  73
   3  90  54 109
   3  90  54  74
   3  90 109  92
   3  90 109  54
   3  90  92  91
   3  90  92 109
   3  90  91 108
   3  90  91  92
   3  90 108  53
   3  90 108  91
   3  90  53 108
   3  90  53  73
   3  91   3 108
   4  91   3   4  92
   3  91 108  90
   3  91 108   3
   3  91  90  92
   3  91  90 108
   3  91  92  90
   4  91  92   4   3
   3  92   4 109
   4  92   4   3  91
   3  92  91  90
   4  92  91   3   4
   3  92  90 109
   3  92  90  91
   3  92 109  90
   3  92 109   4
   3  93  94  56
   4  93  94  42  41
   3  93  56  94
   4  93  56  86  41
   3  94  56  93
   4  94  56  87  42
   3  94  93  56
   4  94  93  41  42
   3  95  82  46
   3  95  82  20
   3  95  46  88
   3  95  46  82
   3  95  88  20
   3  95  88  46
   3  95  20  82
   3  95  20  88
   3  96  89  55
   3  96  89  21
   3  96  55  83
   3  96  55  89
   3  96  83  21
   3  96  83  55
   3  96  21  89
   3  96  21  83
   3  97  75  65
   3  97  75 112
   3  97  65  71
   3  97  65  75
   3  97  71  56
   3  97  71  65
   3  97  56 112
   3  97  56  71
   3  97 112  75
   3  97 112  56
   3  98  72  66
   3  98  72  56
   3  98  66  76
   3  98  66  72
   3  98  76 113
   3  98  76  66
   3  98 113  76
   3  98 113  56
   3  98  56  72
   3  98  56 113
   3  99 100 101
   3  99 100 104
   3  99 101 105
   3  99 101 100
   3  99 105  59
   3  99 105 101
   3  99  59   1
   3  99  59 105
   3  99   1   0
   3  99   1  59
   3  99   0  58
   3  99   0   1
   3  99  58   0
   3  99  58 104
   3  99 104 100
   3  99 104  58
   3 100  46 104
   4 100  46  55 101
   3 100 101  99
   4 100 101  55  46
   3 100  99 101
   3 100  99 104
   3 100 104  99
   3 100 104  46
   3 101  55 105
   4 101  55  46 100
   3 101 105  99
   3 101 105  55
   3 101  99 100
   3 101  99 105
   3 101 100  99
   4 101 100  46  55
   3 102  73  53
   4 102  73 110  38
   3 102  53  69
   3 102  53  73
   3 102  69  84
   3 102  69  53
   3 102  84  38
   3 102  84  69
   3 102  38  84
   4 102  38 110  73
   3 103  85  70
   3 103  85  45
   3 103  70  54
   3 103  70  85
   3 103  54  74
   3 103  54  70
   3 103  74  54
   4 103  74 111  45
   3 103  45  85
   4 103  45 111  74
   3 104 100  46
   3 104 100  99
   3 104  99 100
   3 104  99  58
   3 104  58  88
   3 104  58  99
   3 104  88  46
   3 104  88  58
   3 104  46  88
   3 104  46 100
   3 105  89  59
   3 105  89  55
   3 105  59  99
   3 105  59  89
   3 105  99 101
   3 105  99  59
   3 105 101  55
   3 105 101  99
   3 105  55 101
   3 105  55  89
   3 106  78  45
   3 106  78  37
   3 106  45  62
   3 106  45  78
   3 106  62  37
   3 106  62  45
   3 106  37  62
   3 106  37  78
   3 107  77  63
   3 107  77  38
   3 107  63  77
   3 107  63  62
   3 107  62  38
   3 107  62  63
   3 107  38  77
   3 107  38  62
   3 108  26  53
   3 108  26   3
   3 108  53  26
   3 108  53  90
   3 108  90  91
   3 108  90  53
   3 108  91   3
   3 108  91  90
   3 108   3  26
   3 108   3  91
   3 109  92   4
   3 109  92  90
   3 109  90  54
   3 109  90  92
   3 109  54  90
   3 109  54  27
   3 109  27   4
   3 109  27  54
   3 109   4  92
   3 109   4  27
   3 112  87  75
   3 112  87  56
   3 112  75  97
   3 112  75  87
   3 112  97  75
   3 112  97  56
   3 112  56  97
   3 112  56  87
   3 113  98  76
   3 113  98  56
   3 113  76  86
   3 113  76  98
   3 113  86  76
   3 113  86  56
   3 113  56  98
   3 113  56  86
