 COFF
         124        1224         124
  
  -6.5302217963768472        1.0498015609607141        6.3986615454531597       0.60000002384185791       0.60000002384185791       0.60000002384185791       0.80000001192092896     
  -6.5302217963777931       -1.0498015609619498        6.3986615454515974       0.60000002384185791       0.60000002384185791       0.60000002384185791       0.80000001192092896     
  -3.1244640292657482E-002  -2.1547171117196746        6.0399537001011723       0.60000002384185791       0.60000002384185791       0.60000002384185791       0.80000001192092896     
   7.4148677130743836      -0.99069442816893949        6.5461676141935996       0.60000002384185791       0.60000002384185791       0.60000002384185791       0.80000001192092896     
   7.4148677130432983       0.99069442814634145        6.5461676142320107       0.60000002384185791       0.60000002384185791       0.60000002384185791       0.80000001192092896     
  -3.1244640271397880E-002   2.1547171106707852        6.0399537011639026       0.60000002384185791       0.60000002384185791       0.60000002384185791       0.80000001192092896     
   1.1354995013007836       -1.8259396193237238        6.1917272583296459       0.60000002384185791       0.60000002384185791       0.60000002384185791       0.80000001192092896     
   1.1354995010753577        1.8259396188018351        6.1917272588952299       0.60000002384185791       0.60000002384185791       0.60000002384185791       0.80000001192092896     
  -1.1594312685599975        1.7969067337130660        6.1748891211200885       0.60000002384185791       0.60000002384185791       0.60000002384185791       0.80000001192092896     
  -1.1594312688514512       -1.7969067340313156        6.1748891207678165       0.60000002384185791       0.60000002384185791       0.60000002384185791       0.80000001192092896     
   2.0442345803268944       -1.5045412413791079        6.4589860455625141       0.60000002384185791       0.60000002384185791       0.60000002384185791       0.80000001192092896     
   2.0442345803248263        1.5045412411843055        6.4589860457608488       0.60000002384185791       0.60000002384185791       0.60000002384185791       0.80000001192092896     
  -2.0738297768129850        1.4986644900552859        6.4486508109063285       0.60000002384185791       0.60000002384185791       0.60000002384185791       0.80000001192092896     
  -2.0738297767004874       -1.4986644896324819        6.4486508113208760       0.60000002384185791       0.60000002384185791       0.60000002384185791       0.80000001192092896     
   3.0709198780298146       -1.5760874172939265        6.3133386482139278       0.60000002384185791       0.60000002384185791       0.60000002384185791       0.80000001192092896     
   3.0709198780188149        1.5760874171727797        6.3133386483358507       0.60000002384185791       0.60000002384185791       0.60000002384185791       0.80000001192092896     
  -3.0493755148698183        1.5700472701776724        6.2423096912127249       0.60000002384185791       0.60000002384185791       0.60000002384185791       0.80000001192092896     
  -3.0493755147882871       -1.5700472697827847        6.2423096916158434       0.60000002384185791       0.60000002384185791       0.60000002384185791       0.80000001192092896     
   4.1145192813493932       -1.5491015985688148        6.2387771687367719       0.60000002384185791       0.60000002384185791       0.60000002384185791       0.80000001192092896     
   4.1145192815199492        1.5491015991910750        6.2387771680998005       0.60000002384185791       0.60000002384185791       0.60000002384185791       0.80000001192092896     
  -4.0605341221387450        1.5500063419531203        6.1949787103143574       0.60000002384185791       0.60000002384185791       0.60000002384185791       0.80000001192092896     
  -4.0605341221471702       -1.5500063419861583        6.1949787102804246       0.60000002384185791       0.60000002384185791       0.60000002384185791       0.80000001192092896     
   5.0836056457548571       -1.3399583350264412        6.3705757981242686       0.60000002384185791       0.60000002384185791       0.60000002384185791       0.80000001192092896     
   5.0836056457763039        1.3399583352212863        6.3705757979431166       0.60000002384185791       0.60000002384185791       0.60000002384185791       0.80000001192092896     
  -5.0844806808197625        1.3846770257845575        6.2771295535500551       0.60000002384185791       0.60000002384185791       0.60000002384185791       0.80000001192092896     
  -5.0844806808230461       -1.3846770257983509        6.2771295535358771       0.60000002384185791       0.60000002384185791       0.60000002384185791       0.80000001192092896     
   6.0586460360816634       -1.2618548774515679        6.5781705329429858       0.60000002384185791       0.60000002384185791       0.60000002384185791       0.80000001192092896     
   6.0586460359351131        1.2618548770576823        6.5781705333504572       0.60000002384185791       0.60000002384185791       0.60000002384185791       0.80000001192092896     
  -7.4211011269251150       -1.2540885743229965E-015   6.4020443815741706       0.60000002384185791       0.60000002384185791       0.60000002384185791       0.80000001192092896     
  -1.9369443499275720       0.93680665705620247        3.9440211386497448       0.60000002384185791       0.60000002384185791       0.60000002384185791       0.80000001192092896     
  -1.9369505765999855      -0.93680375939036575        3.9440202320714084       0.60000002384185791       0.60000002384185791       0.60000002384185791       0.80000001192092896     
   1.1637092847633754       -1.7428520449105995        4.9659613412665813       0.60000002384185791       0.60000002384185791       0.60000002384185791       0.80000001192092896     
   1.1637093033848072        1.7428520404142716        4.9659613451257636       0.60000002384185791       0.60000002384185791       0.60000002384185791       0.80000001192092896     
  -2.1757205003697924        1.4723389781725285        5.2766499936573084       0.60000002384185791       0.60000002384185791       0.60000002384185791       0.80000001192092896     
  -2.1757193874114726       -1.4723460413919816        5.2766051992255232       0.60000002384185791       0.60000002384185791       0.60000002384185791       0.80000001192092896     
   4.4527821115280072E-002  -1.8750383638011505        4.6971146949753360       0.60000002384185791       0.60000002384185791       0.60000002384185791       0.80000001192092896     
   4.4532538367847652E-002   1.8750189191655391        4.6971147017107127       0.60000002384185791       0.60000002384185791       0.60000002384185791       0.80000001192092896     
   2.4177090723888197        1.4193895214238932        5.1630965434436327       0.60000002384185791       0.60000002384185791       0.60000002384185791       0.80000001192092896     
   3.7204394059032264      -0.61959910876948754        3.3105001657960162        1.0000000000000000        1.0000000000000000        0.0000000000000000        1.0000000000000000     
 -0.87826965820009373       -1.7261019126458390        4.1892746855397851       0.60000002384185791       0.60000002384185791       0.60000002384185791       0.80000001192092896     
 -0.87825040340243921        1.7261035366997830        4.1892543131964235       0.60000002384185791       0.60000002384185791       0.60000002384185791       0.80000001192092896     
  -1.5132321357851231      -0.98486117337116108        2.5750135184111529       0.60000002384185791       0.60000002384185791       0.60000002384185791       0.80000001192092896     
  -1.5132323604196989       0.98486035924340698        2.5750131861478609       0.60000002384185791       0.60000002384185791       0.60000002384185791       0.80000001192092896     
   1.0514661254219391        1.7077145201368942        3.8637264586251248       0.60000002384185791       0.60000002384185791       0.60000002384185791       0.80000001192092896     
   1.0514661746367837       -1.7077146379856178        3.8637264293346827       0.60000002384185791       0.60000002384185791       0.60000002384185791       0.80000001192092896     
   3.7204394069525102       0.61959910541482566        3.3105001657960162        1.0000000000000000        1.0000000000000000        0.0000000000000000        1.0000000000000000     
  -4.1928422535291254       0.65968513449993560        3.5885653274392326        1.0000000000000000        1.0000000000000000        0.0000000000000000        1.0000000000000000     
   2.1363547255277346        3.2443947767121589E-009   4.2518363307478158       0.60000002384185791       0.60000002384185791       0.60000002384185791       0.80000001192092896     
   1.4587920321008434        1.3156569675087226        3.5025052538409320       0.60000002384185791       0.60000002384185791       0.60000002384185791       0.80000001192092896     
   1.4587916964624095       -1.3156566595205113        3.5025053227713601       0.60000002384185791       0.60000002384185791       0.60000002384185791       0.80000001192092896     
  0.14061085189241845        1.7678793108194522        3.6368010699697790       0.60000002384185791       0.60000002384185791       0.60000002384185791       0.80000001192092896     
  0.14054978551040642       -1.7679064385433472        3.6368011001353127       0.60000002384185791       0.60000002384185791       0.60000002384185791       0.80000001192092896     
   1.7126805072761326        1.0654133974449185E-006   3.1850386623463618       0.60000002384185791       0.60000002384185791       0.60000002384185791       0.80000001192092896     
   5.5641400416874909       -1.2390174864765229        5.6154166453136707       0.60000002384185791       0.60000002384185791       0.60000002384185791       0.80000001192092896     
   5.5641401512724178        1.2390173713728185        5.6154166389330866       0.60000002384185791       0.60000002384185791       0.60000002384185791       0.80000001192092896     
  -4.1928422396729870      -0.65968521641951039        3.5885653274392331        1.0000000000000000        1.0000000000000000        0.0000000000000000        1.0000000000000000     
  0.14315254586842460       -4.3383749881875108E-008   1.0382578837327854        1.0000000000000000        1.0000000000000000        0.0000000000000000        1.0000000000000000     
  -2.5995692052379011        3.4049224547100442E-005   4.2394821348548550       0.60000002384185791       0.60000002384185791       0.60000002384185791       0.80000001192092896     
  -5.7616180379165938        1.2115528896925134        5.6159001392871124       0.60000002384185791       0.60000002384185791       0.60000002384185791       0.80000001192092896     
  -5.7616180379085655       -1.2115528897051027        5.6159001392713890       0.60000002384185791       0.60000002384185791       0.60000002384185791       0.80000001192092896     
 -0.64260693060378882       -1.5665090065955263        3.2964369052656157       0.60000002384185791       0.60000002384185791       0.60000002384185791       0.80000001192092896     
 -0.64260700535191362        1.5665064006752540        3.2964374169410733       0.60000002384185791       0.60000002384185791       0.60000002384185791       0.80000001192092896     
   2.4174938837423459        2.3116896156648393E-009   4.7372420654691876       0.60000002384185791       0.60000002384185791       0.60000002384185791       0.80000001192092896     
   2.4177090517451547       -1.4193895109536605        5.1630965415848395       0.60000002384185791       0.60000002384185791       0.60000002384185791       0.80000001192092896     
   1.6627959075730550        1.5911743551982545        4.4981518442692279       0.60000002384185791       0.60000002384185791       0.60000002384185791       0.80000001192092896     
  0.94418408766843942        1.5745000693045299        2.8946484155487258       0.60000002384185791       0.60000002384185791       0.60000002384185791       0.80000001192092896     
  0.94422980940847656       -1.5746000539269662        2.8946483647762595       0.60000002384185791       0.60000002384185791       0.60000002384185791       0.80000001192092896     
   1.6627959081056396       -1.5911743677705601        4.4981518776843847       0.60000002384185791       0.60000002384185791       0.60000002384185791       0.80000001192092896     
  -1.0288726625182456        1.7700015577361530        5.1720341007128914       0.60000002384185791       0.60000002384185791       0.60000002384185791       0.80000001192092896     
   4.5506881081672095       -1.4549425950809272        5.6448239363073842       0.60000002384185791       0.60000002384185791       0.60000002384185791       0.80000001192092896     
   4.5506882599398439        1.4549423169557967        5.6448239098816817       0.60000002384185791       0.60000002384185791       0.60000002384185791       0.80000001192092896     
   1.2978127260024361        1.0887977778402906        2.5448958577736747       0.60000002384185791       0.60000002384185791       0.60000002384185791       0.80000001192092896     
   1.2978131444378571       -1.0887973970066172        2.5448959710407189       0.60000002384185791       0.60000002384185791       0.60000002384185791       0.80000001192092896     
   5.5646334954428482      -0.74105048415164043        4.5873944407642604       0.60000002384185791       0.60000002384185791       0.60000002384185791       0.80000001192092896     
   5.5646335737395809       0.74105043719527708        4.5873944220035741       0.60000002384185791       0.60000002384185791       0.60000002384185791       0.80000001192092896     
  0.23671500727321540        1.6186487993895149        2.6314852704265439       0.60000002384185791       0.60000002384185791       0.60000002384185791       0.80000001192092896     
  0.23671551906348459       -1.6186501448826771        2.6314852069429202       0.60000002384185791       0.60000002384185791       0.60000002384185791       0.80000001192092896     
   3.6042726604858131       -1.5551389112744505        5.3196848382116038       0.60000002384185791       0.60000002384185791       0.60000002384185791       0.80000001192092896     
   3.6042726771778200        1.5551389268884710        5.3196848740854383       0.60000002384185791       0.60000002384185791       0.60000002384185791       0.80000001192092896     
  -2.9611188943405202        1.4640680872776310        4.7110309013154881       0.60000002384185791       0.60000002384185791       0.60000002384185791       0.80000001192092896     
  -2.9610860741994336       -1.4640686958392843        4.7110553659144312       0.60000002384185791       0.60000002384185791       0.60000002384185791       0.80000001192092896     
   1.4584002195653083        1.3492403008996318E-004   2.3366511238937488       0.60000002384185791       0.60000002384185791       0.60000002384185791       0.80000001192092896     
  -3.5586465526824784        1.5467173098877292        5.2716743089800504       0.60000002384185791       0.60000002384185791       0.60000002384185791       0.80000001192092896     
  -3.5586465840765662       -1.5467173203260616        5.2716743233537482       0.60000002384185791       0.60000002384185791       0.60000002384185791       0.80000001192092896     
   3.9773850763273364       -1.5216384884000083        5.0389541943982668       0.60000002384185791       0.60000002384185791       0.60000002384185791       0.80000001192092896     
   3.9773851290216458        1.5216384081242105        5.0389541837413452       0.60000002384185791       0.60000002384185791       0.60000002384185791       0.80000001192092896     
 -0.42564786530667409       -1.4352878405703549        2.2777453276242916       0.60000002384185791       0.60000002384185791       0.60000002384185791       0.80000001192092896     
 -0.42564795405988265        1.4352876702148338        2.2777457684391886       0.60000002384185791       0.60000002384185791       0.60000002384185791       0.80000001192092896     
  -4.9688945027256199        1.3179596344083457        5.1990385215370996       0.60000002384185791       0.60000002384185791       0.60000002384185791       0.80000001192092896     
  -4.9688945028268501       -1.3179596347454106        5.1990385213831907       0.60000002384185791       0.60000002384185791       0.60000002384185791       0.80000001192092896     
   6.3643950403106313        7.0930390408119270E-009   5.3687340631938705       0.60000002384185791       0.60000002384185791       0.60000002384185791       0.80000001192092896     
   6.9262630567632497      -0.81479932510909636        5.6370823651714312       0.60000002384185791       0.60000002384185791       0.60000002384185791       0.80000001192092896     
   6.9262630579640181       0.81479932436661862        5.6370823642248240       0.60000002384185791       0.60000002384185791       0.60000002384185791       0.80000001192092896     
  -1.3903220447545319      -0.65596329976439471        1.7187397128784683       0.60000002384185791       0.60000002384185791       0.60000002384185791       0.80000001192092896     
  -1.3903220518699493       0.65596303445804249        1.7187396134616921       0.60000002384185791       0.60000002384185791       0.60000002384185791       0.80000001192092896     
  -4.1533427111788361        1.4544778256608020        5.0972829723048916       0.60000002384185791       0.60000002384185791       0.60000002384185791       0.80000001192092896     
  -4.1533426841459340       -1.4544778255814268        5.0972829327339628       0.60000002384185791       0.60000002384185791       0.60000002384185791       0.80000001192092896     
  0.80877111737255447        1.2560792102692202        1.9928564686185752       0.60000002384185791       0.60000002384185791       0.60000002384185791       0.80000001192092896     
  0.80877158112733061       -1.2560783457187905        1.9928566472942246       0.60000002384185791       0.60000002384185791       0.60000002384185791       0.80000001192092896     
  -6.1305179390773255       -3.0551068850604522E-012   5.3802686628014982       0.60000002384185791       0.60000002384185791       0.60000002384185791       0.80000001192092896     
  -5.5287649094920139       0.56863934433418517        4.3706616023802427       0.60000002384185791       0.60000002384185791       0.60000002384185791       0.80000001192092896     
  -5.5287649095806142      -0.56863934475617717        4.3706616022248612       0.60000002384185791       0.60000002384185791       0.60000002384185791       0.80000001192092896     
   4.4140484455457338       -1.4510320294078818        4.6335956083988705       0.60000002384185791       0.60000002384185791       0.60000002384185791       0.80000001192092896     
   4.4140484654787704        1.4510318849699428        4.6335956329555081       0.60000002384185791       0.60000002384185791       0.60000002384185791       0.80000001192092896     
  -5.4614073564427406       0.94173254140700535        4.7464028696932701       0.60000002384185791       0.60000002384185791       0.60000002384185791       0.80000001192092896     
  -5.4614073565436803      -0.94173254176888888        4.7464028695724494       0.60000002384185791       0.60000002384185791       0.60000002384185791       0.80000001192092896     
   2.7616291302776235        1.0421400654886777        4.3392931301652515       0.60000002384185791       0.60000002384185791       0.60000002384185791       0.80000001192092896     
   2.7616291299391360       -1.0421400617263645        4.3392931350277593       0.60000002384185791       0.60000002384185791       0.60000002384185791       0.80000001192092896     
   6.5799534719199819       -1.1191317391614766        6.0996023106662518       0.60000002384185791       0.60000002384185791       0.60000002384185791       0.80000001192092896     
   6.5799534756033715        1.1191317379042915        6.0996023119156249       0.60000002384185791       0.60000002384185791       0.60000002384185791       0.80000001192092896     
   5.1255533245771092      -0.66334373342318431        3.8230391865683711       0.60000002384185791       0.60000002384185791       0.60000002384185791       0.80000001192092896     
   5.1255533640427533       0.66334371895821420        3.8230391880634116       0.60000002384185791       0.60000002384185791       0.60000002384185791       0.80000001192092896     
  0.13448077797964220        1.1910792603105234        1.7758787552186217        1.0000000000000000       0.10000000149011612        0.0000000000000000       0.50000000000000000     
  0.13448096201823431       -1.1910794906586459        1.7758788164363188        1.0000000000000000       0.10000000149011612        0.0000000000000000       0.50000000000000000     
  -1.0288840187412087       -1.7699986812935788        5.1720351450180688       0.60000002384185791       0.60000002384185791       0.60000002384185791       0.80000001192092896     
   1.0194339216476851       0.67493993904019189        1.7849810799127988        1.0000000000000000       0.10000000149011612        0.0000000000000000       0.50000000000000000     
   1.0194336687405268      -0.67494005138574686        1.7849811843889547        1.0000000000000000       0.10000000149011612        0.0000000000000000       0.50000000000000000     
   3.5606386760039053       -1.2104571862826274        4.2884144132883701       0.60000002384185791       0.60000002384185791       0.60000002384185791       0.80000001192092896     
   3.5606386746472998        1.2104571983540300        4.2884144278429188       0.60000002384185791       0.60000002384185791       0.60000002384185791       0.80000001192092896     
  -1.6039134650627003       -3.4762518147841219E-007   2.5766230225750570       0.60000002384185791       0.60000002384185791       0.60000002384185791       0.80000001192092896     
   3.0225262184137907      -0.30248214377670540        4.0036401738519549       0.60000002384185791       0.60000002384185791       0.60000002384185791       0.80000001192092896     
   3.0225262189552282       0.30248214416652991        4.0036401738519549       0.60000002384185791       0.60000002384185791       0.60000002384185791       0.80000001192092896     
  -3.8707142242838568        1.1083418710203070        4.4292443104520798       0.60000002384185791       0.60000002384185791       0.60000002384185791       0.80000001192092896     
  -3.8707142048013936       -1.1083418618089966        4.4292443492180498       0.60000002384185791       0.60000002384185791       0.60000002384185791       0.80000001192092896     
  
   3   0  24  58
   3   0  58  24
   3   0  58  99
   3   0  99  28
   3   0  99  58
   3   0  28  99
   3   1  28  99
   3   1  99  59
   3   1  99  28
   3   1  59  99
   3   1  59  25
   3   1  25  59
   3   2  35 114
   3   2  35  31
   3   2  31  35
   3   2  31   6
   3   2   6  31
   3   2   9 114
   3   2 114  35
   3   2 114   9
   3   3  26 108
   3   3 108  26
   3   3 108  91
   3   3  91 108
   4   3  91  92   4
   3   4  92 109
   4   4  92  91   3
   3   4 109  92
   3   4 109  27
   3   4  27 109
   3   5   7  32
   3   5  32  36
   3   5  32   7
   3   5  36  32
   3   5  36  68
   3   5  68  36
   3   5  68   8
   3   5   8  68
   3   6   2  31
   3   6  31   2
   3   6  31  63
   3   6  63  10
   3   6  63  31
   3   6  10  63
   3   7  11  37
   3   7  37  32
   3   7  37  11
   3   7  32  37
   3   7  32   5
   3   7   5  32
   3   8   5  68
   3   8  68   5
   3   8  68  33
   3   8  33  12
   3   8  33  68
   3   8  12  33
   3   9  13  34
   3   9  34 114
   3   9  34  13
   3   9 114  34
   3   9 114   2
   3   9   2 114
   3  10   6  63
   3  10  63  14
   3  10  63   6
   3  10  14  63
   3  11  15  37
   3  11  37   7
   3  11  37  15
   3  11   7  37
   3  12   8  33
   3  12  33  16
   3  12  33   8
   3  12  16  33
   3  13  17  34
   3  13  34   9
   3  13  34  17
   3  13   9  34
   3  14  10  63
   3  14  63  77
   3  14  63  10
   3  14  77  63
   3  14  77  18
   3  14  18  77
   3  15  19  78
   3  15  78  19
   3  15  78  37
   3  15  37  11
   3  15  37  78
   3  15  11  37
   3  16  12  33
   3  16  33  79
   3  16  33  12
   3  16  79  82
   3  16  79  33
   3  16  82  79
   3  16  82  20
   3  16  20  82
   3  17  21  83
   3  17  83  21
   3  17  83  80
   3  17  80  83
   3  17  80  34
   3  17  34  80
   3  17  34  13
   3  17  13  34
   3  18  14  77
   3  18  77  84
   3  18  77  14
   3  18  84  77
   3  18  84  69
   3  18  69  84
   3  18  69  22
   3  18  22  69
   3  19  23  70
   3  19  70  85
   3  19  70  23
   3  19  85  70
   3  19  85  78
   3  19  78  85
   3  19  78  15
   3  19  15  78
   3  20  16  82
   3  20  82  95
   3  20  82  16
   3  20  95  82
   3  20  95  88
   3  20  88  95
   3  20  88  24
   3  20  24  88
   3  21  25  89
   3  21  89  96
   3  21  89  25
   3  21  96  89
   3  21  96  83
   3  21  83  96
   3  21  83  17
   3  21  17  83
   3  22  18  69
   3  22  69  18
   3  22  69  53
   3  22  53  26
   3  22  53  69
   3  22  26  53
   3  23  27  54
   3  23  54  70
   3  23  54  27
   3  23  70  54
   3  23  70  19
   3  23  19  70
   3  24  20  88
   3  24  88  20
   3  24  88  58
   3  24  58   0
   3  24  58  88
   3  24   0  58
   3  25   1  59
   3  25  59   1
   3  25  59  89
   3  25  89  59
   3  25  89  21
   3  25  21  89
   3  26  22  53
   3  26  53 108
   3  26  53  22
   3  26 108  53
   3  26 108   3
   3  26   3 108
   3  27   4 109
   3  27 109  54
   3  27 109   4
   3  27  54 109
   3  27  54  23
   3  27  23  54
   3  28   0  99
   3  28  99   1
   3  28  99   0
   3  28   1  99
   3  29  33  40
   3  29  33  57
   3  29  40  33
   3  29  40  61
   3  29  61  42
   3  29  61  40
   3  29  42 119
   3  29  42  61
   3  29 119  30
   3  29 119  42
   3  29  30  57
   3  29  30 119
   3  29  57  30
   3  29  57  33
   3  30  34  57
   3  30  34  39
   3  30  57  29
   3  30  57  34
   3  30  29 119
   3  30  29  57
   3  30 119  29
   3  30 119  41
   3  30  41  60
   3  30  41 119
   3  30  60  41
   3  30  60  39
   3  30  39  34
   3  30  39  60
   3  31   2  35
   3  31   2   6
   3  31  35  44
   3  31  35   2
   3  31  44  67
   3  31  44  35
   3  31  67  63
   3  31  67  44
   3  31  63   6
   3  31  63  67
   3  31   6   2
   3  31   6  63
   3  32  37  64
   3  32  37   7
   3  32  64  37
   3  32  64  43
   3  32  43  36
   3  32  43  64
   3  32  36  43
   3  32  36   5
   3  32   5   7
   3  32   5  36
   3  32   7  37
   3  32   7   5
   3  33  79  57
   3  33  79  16
   3  33  16  12
   3  33  16  79
   3  33  12   8
   3  33  12  16
   3  33   8  68
   3  33   8  12
   3  33  68  40
   3  33  68   8
   3  33  40  29
   3  33  40  68
   3  33  29  40
   3  33  29  57
   3  33  57  29
   3  33  57  79
   3  34  80  17
   3  34  80  57
   3  34  57  30
   3  34  57  80
   3  34  30  57
   3  34  30  39
   3  34  39 114
   3  34  39  30
   3  34 114  39
   3  34 114   9
   3  34   9  13
   3  34   9 114
   3  34  13  17
   3  34  13   9
   3  34  17  80
   3  34  17  13
   3  35 114  39
   3  35 114   2
   3  35  39 114
   3  35  39  51
   3  35  51  44
   3  35  51  39
   3  35  44  31
   3  35  44  51
   3  35  31   2
   3  35  31  44
   3  35   2  31
   3  35   2 114
   3  36  32  43
   3  36  32   5
   3  36  43  32
   3  36  43  50
   3  36  50  40
   3  36  50  43
   3  36  40  68
   3  36  40  50
   3  36  68   5
   3  36  68  40
   3  36   5  32
   3  36   5  68
   3  37 106  78
   3  37 106  62
   3  37  62  47
   3  37  62 106
   3  37  47  62
   3  37  47  64
   3  37  64  47
   3  37  64  32
   3  37  32  64
   3  37  32   7
   3  37   7  11
   3  37   7  32
   3  37  11  15
   3  37  11   7
   3  37  15  78
   3  37  15  11
   3  37  78 106
   3  37  78  15
   3  38 102  84
   4  38 102  73 110
   3  38  84 117
   3  38  84 102
   3  38 117  84
   3  38 117 107
   3  38 107 117
   4  38 107  77  84
   3  39  35 114
   3  39  35  51
   3  39 114  34
   3  39 114  35
   3  39  34  30
   3  39  34 114
   3  39  30  34
   3  39  30  60
   3  39  60  30
   3  39  60  51
   3  39  51  35
   3  39  51  60
   3  40  29  33
   3  40  29  61
   3  40  33  68
   3  40  33  29
   3  40  68  36
   3  40  68  33
   3  40  36  50
   3  40  36  68
   3  40  50  36
   3  40  50  61
   3  40  61  50
   3  40  61  29
   3  41  93 119
   4  41  93  56  86
   3  41  86  60
   4  41  86  56  93
   3  41  60  30
   3  41  60  86
   3  41  30 119
   3  41  30  60
   3  41 119  30
   3  41 119  93
   3  42  94 119
   4  42  94  56  87
   3  42 119  29
   3  42 119  94
   3  42  29  61
   3  42  29 119
   3  42  61  87
   3  42  61  29
   3  42  87  61
   4  42  87  56  94
   3  43  36  32
   3  43  36  50
   3  43  32  64
   3  43  32  36
   3  43  64  48
   3  43  64  32
   3  43  48  64
   3  43  48  65
   3  43  65  48
   3  43  65  50
   3  43  50  36
   3  43  50  65
   3  44  67  49
   3  44  67  31
   3  44  31  35
   3  44  31  67
   3  44  35  51
   3  44  35  31
   3  44  51  35
   3  44  51  66
   3  44  66  51
   3  44  66  49
   3  44  49  67
   3  44  49  66
   3  45 106 118
   4  45 106  78  85
   3  45 118 106
   3  45 118  85
   3  45  85 103
   3  45  85 118
   3  45 103  85
   4  45 103  74 111
   3  46 104 100
   3  46 104  88
   3  46  88  95
   3  46  88 104
   3  46  95 122
   3  46  95  88
   3  46 122  95
   3  46 122  79
   3  46  79  57
   3  46  79 122
   3  46  57  55
   3  46  57  79
   3  46  55  57
   4  46  55 101 100
   3  46 100 104
   4  46 100 101  55
   3  47  37  62
   3  47  37  64
   3  47  62  37
   3  47  62  63
   3  47  63  67
   3  47  63  62
   3  47  67  49
   3  47  67  63
   3  47  49  67
   3  47  49  52
   3  47  52  48
   3  47  52  49
   3  47  48  64
   3  47  48  52
   3  47  64  37
   3  47  64  48
   3  48  43  64
   3  48  43  65
   3  48  64  47
   3  48  64  43
   3  48  47  52
   3  48  47  64
   3  48  52  47
   3  48  52  71
   3  48  71  52
   3  48  71  65
   3  48  65  71
   3  48  65  43
   3  49  47  67
   3  49  47  52
   3  49  67  47
   3  49  67  44
   3  49  44  67
   3  49  44  66
   3  49  66  72
   3  49  66  44
   3  49  72  66
   3  49  72  52
   3  49  52  47
   3  49  52  72
   3  50  40  36
   3  50  40  61
   3  50  36  43
   3  50  36  40
   3  50  43  36
   3  50  43  65
   3  50  65  75
   3  50  65  43
   3  50  75  65
   3  50  75  61
   3  50  61  75
   3  50  61  40
   3  51  44  35
   3  51  44  66
   3  51  35  39
   3  51  35  44
   3  51  39  35
   3  51  39  60
   3  51  60  76
   3  51  60  39
   3  51  76  60
   3  51  76  66
   3  51  66  76
   3  51  66  44
   3  52  48  47
   3  52  48  71
   3  52  47  49
   3  52  47  48
   3  52  49  47
   3  52  49  72
   3  52  72  81
   3  52  72  49
   3  52  81  72
   3  52  81  71
   3  52  71  81
   3  52  71  48
   3  53 108  26
   3  53 108  90
   3  53  26  22
   3  53  26 108
   3  53  22  69
   3  53  22  26
   3  53  69 102
   3  53  69  22
   3  53 102  73
   3  53 102  69
   3  53  73  90
   3  53  73 102
   3  53  90  73
   3  53  90 108
   3  54 109  90
   3  54 109  27
   3  54  90  74
   3  54  90 109
   3  54  74 103
   3  54  74  90
   3  54 103  70
   3  54 103  74
   3  54  70 103
   3  54  70  23
   3  54  23  27
   3  54  23  70
   3  54  27 109
   3  54  27  23
   3  55 105  89
   3  55 105 101
   3  55 101 105
   4  55 101 100  46
   3  55  46  57
   4  55  46 100 101
   3  55  57  80
   3  55  57  46
   3  55  80 123
   3  55  80  57
   3  55 123  80
   3  55 123  96
   3  55  96  89
   3  55  96 123
   3  55  89 105
   3  55  89  96
   3  56 112  87
   3  56 112  97
   3  56  97 115
   3  56  97 112
   3  56 115  97
   3  56 115  81
   3  56  81 116
   3  56  81 115
   3  56 116  81
   3  56 116  98
   3  56  98 113
   3  56  98 116
   3  56 113  98
   3  56 113  86
   3  56  86 113
   4  56  86  76  98
   3  56  93  94
   4  56  93  41  86
   3  56  94  93
   4  56  94  42  87
   3  56  87 112
   4  56  87  42  94
   3  57  29  33
   3  57  29  30
   3  57  30  34
   3  57  30  29
   3  57  34  80
   3  57  34  30
   3  57  80  55
   3  57  80  34
   3  57  55  46
   3  57  55  80
   3  57  46  79
   3  57  46  55
   3  57  79  46
   3  57  79  33
   3  57  33  79
   3  57  33  29
   3  58   0  24
   3  58   0  99
   3  58  24  88
   3  58  24   0
   3  58  88 104
   3  58  88  24
   3  58 104  99
   3  58 104  88
   3  58  99   0
   3  58  99 104
   3  59   1  99
   3  59   1  25
   3  59  99 105
   3  59  99   1
   3  59 105  89
   3  59 105  99
   3  59  89 105
   3  59  89  25
   3  59  25   1
   3  59  25  89
   3  60  30  41
   3  60  30  39
   3  60  41  86
   3  60  41  30
   3  60  86  76
   3  60  86  41
   3  60  76  86
   3  60  76  51
   3  60  51  39
   3  60  51  76
   3  60  39  30
   3  60  39  51
   3  61  50  40
   3  61  50  75
   3  61  75  87
   3  61  75  50
   3  61  87  42
   3  61  87  75
   3  61  42  29
   3  61  42  87
   3  61  29  40
   3  61  29  42
   3  61  40  29
   3  61  40  50
   3  62  47  37
   3  62  47  63
   3  62  37 106
   3  62  37  47
   3  62 106  37
   4  62 106  45 121
   3  62 121 120
   4  62 121  45 106
   3  62 120 121
   4  62 120  38 107
   3  62 107  63
   4  62 107  38 120
   3  62  63 107
   3  62  63  47
   3  63 107  77
   3  63 107  62
   3  63  77 107
   3  63  77  14
   3  63  14  10
   3  63  14  77
   3  63  10   6
   3  63  10  14
   3  63   6  31
   3  63   6  10
   3  63  31  67
   3  63  31   6
   3  63  67  47
   3  63  67  31
   3  63  47  62
   3  63  47  67
   3  63  62  47
   3  63  62 107
   3  64  37  47
   3  64  37  32
   3  64  47  37
   3  64  47  48
   3  64  48  43
   3  64  48  47
   3  64  43  32
   3  64  43  48
   3  64  32  37
   3  64  32  43
   3  65  48  43
   3  65  48  71
   3  65  71  97
   3  65  71  48
   3  65  97  75
   3  65  97  71
   3  65  75  97
   3  65  75  50
   3  65  50  43
   3  65  50  75
   3  65  43  48
   3  65  43  50
   3  66  51  44
   3  66  51  76
   3  66  76  98
   3  66  76  51
   3  66  98  72
   3  66  98  76
   3  66  72  98
   3  66  72  49
   3  66  49  44
   3  66  49  72
   3  66  44  51
   3  66  44  49
   3  67  49  47
   3  67  49  44
   3  67  47  63
   3  67  47  49
   3  67  63  31
   3  67  63  47
   3  67  31  44
   3  67  31  63
   3  67  44  31
   3  67  44  49
   3  68   5  36
   3  68   5   8
   3  68  36  40
   3  68  36   5
   3  68  40  33
   3  68  40  36
   3  68  33   8
   3  68  33  40
   3  68   8   5
   3  68   8  33
   3  69  18  84
   3  69  18  22
   3  69  84 102
   3  69  84  18
   3  69 102  53
   3  69 102  84
   3  69  53  22
   3  69  53 102
   3  69  22  18
   3  69  22  53
   3  70  54 103
   3  70  54  23
   3  70 103  85
   3  70 103  54
   3  70  85 103
   3  70  85  19
   3  70  19  23
   3  70  19  85
   3  70  23  54
   3  70  23  19
   3  71  52  48
   3  71  52  81
   3  71  81 115
   3  71  81  52
   3  71 115  97
   3  71 115  81
   3  71  97  65
   3  71  97 115
   3  71  65  48
   3  71  65  97
   3  71  48  52
   3  71  48  65
   3  72  66  98
   3  72  66  49
   3  72  98  66
   3  72  98 116
   3  72 116  81
   3  72 116  98
   3  72  81 116
   3  72  81  52
   3  72  52  49
   3  72  52  81
   3  72  49  66
   3  72  49  52
   3  73  74  90
   4  73  74 111 110
   3  73  90  74
   3  73  90  53
   3  73  53 102
   3  73  53  90
   3  73 102  53
   4  73 102  38 110
   3  74 103  54
   4  74 103  45 111
   3  74  54  90
   3  74  54 103
   3  74  90  73
   3  74  90  54
   3  74  73  90
   4  74  73 110 111
   3  75  65  97
   3  75  65  50
   3  75  97  65
   3  75  97 112
   3  75 112  87
   3  75 112  97
   3  75  87  61
   3  75  87 112
   3  75  61  50
   3  75  61  87
   3  75  50  65
   3  75  50  61
   3  76  60  86
   3  76  60  51
   3  76  86  60
   3  76  86 113
   3  76 113  98
   3  76 113  86
   3  76  98  66
   3  76  98 113
   3  76  66  51
   3  76  66  98
   3  76  51  60
   3  76  51  66
   3  77  63 107
   3  77  63  14
   3  77 107  63
   3  77 107 117
   3  77 117  84
   3  77 117 107
   3  77  84 117
   3  77  84  18
   3  77  18  14
   3  77  18  84
   3  77  14  63
   3  77  14  18
   3  78  19  85
   3  78  19  15
   3  78  85 118
   3  78  85  19
   3  78 118 106
   3  78 118  85
   3  78 106 118
   3  78 106  37
   3  78  37 106
   3  78  37  15
   3  78  15  19
   3  78  15  37
   3  79  57  46
   3  79  57  33
   3  79  46 122
   3  79  46  57
   3  79 122  82
   3  79 122  46
   3  79  82 122
   3  79  82  16
   3  79  16  33
   3  79  16  82
   3  79  33  16
   3  79  33  57
   3  80  17  83
   3  80  17  34
   3  80  83 123
   3  80  83  17
   3  80 123  83
   3  80 123  55
   3  80  55  57
   3  80  55 123
   3  80  57  34
   3  80  57  55
   3  80  34  57
   3  80  34  17
   3  81  72 116
   3  81  72  52
   3  81 116  72
   3  81 116  56
   3  81  56 115
   3  81  56 116
   3  81 115  71
   3  81 115  56
   3  81  71  52
   3  81  71 115
   3  81  52  72
   3  81  52  71
   3  82  79 122
   3  82  79  16
   3  82 122  95
   3  82 122  79
   3  82  95 122
   3  82  95  20
   3  82  20  16
   3  82  20  95
   3  82  16  79
   3  82  16  20
   3  83  21  96
   3  83  21  17
   3  83  96 123
   3  83  96  21
   3  83 123  80
   3  83 123  96
   3  83  80  17
   3  83  80 123
   3  83  17  21
   3  83  17  80
   3  84  77 117
   3  84  77  18
   3  84 117  77
   3  84 117  38
   3  84  38 102
   3  84  38 117
   3  84 102  69
   3  84 102  38
   3  84  69  18
   3  84  69 102
   3  84  18  77
   3  84  18  69
   3  85  70 103
   3  85  70  19
   3  85 103  70
   3  85 103  45
   3  85  45 118
   3  85  45 103
   3  85 118  78
   3  85 118  45
   3  85  78  19
   3  85  78 118
   3  85  19  70
   3  85  19  78
   3  86  76  60
   3  86  76 113
   3  86  60  41
   3  86  60  76
   3  86  41  60
   4  86  41  93  56
   3  86  56 113
   4  86  56  98  76
   3  86 113  76
   3  86 113  56
   3  87  42  61
   4  87  42  94  56
   3  87  61  75
   3  87  61  42
   3  87  75 112
   3  87  75  61
   3  87 112  75
   3  87 112  56
   3  87  56 112
   4  87  56  97  75
   3  88  20  95
   3  88  20  24
   3  88  95  46
   3  88  95  20
   3  88  46 104
   3  88  46  95
   3  88 104  58
   3  88 104  46
   3  88  58  24
   3  88  58 104
   3  88  24  20
   3  88  24  58
   3  89  59 105
   3  89  59  25
   3  89 105  59
   3  89 105  55
   3  89  55 105
   3  89  55  96
   3  89  96  55
   3  89  96  21
   3  89  21  25
   3  89  21  96
   3  89  25  59
   3  89  25  21
   3  90  73  74
   3  90  73  53
   3  90  74  54
   3  90  74  73
   3  90  54 109
   3  90  54  74
   3  90 109  92
   3  90 109  54
   3  90  92  91
   3  90  92 109
   3  90  91 108
   3  90  91  92
   3  90 108  53
   3  90 108  91
   3  90  53 108
   3  90  53  73
   3  91   3 108
   4  91   3   4  92
   3  91 108  90
   3  91 108   3
   3  91  90  92
   3  91  90 108
   3  91  92  90
   4  91  92   4   3
   3  92   4 109
   4  92   4   3  91
   3  92  91  90
   4  92  91   3   4
   3  92  90 109
   3  92  90  91
   3  92 109  90
   3  92 109   4
   3  93  41 119
   4  93  41  86  56
   3  93 119  94
   3  93 119  41
   3  93  94  56
   3  93  94 119
   3  93  56  94
   4  93  56  86  41
   3  94  42 119
   4  94  42  87  56
   3  94  56  93
   4  94  56  87  42
   3  94  93 119
   3  94  93  56
   3  94 119  42
   3  94 119  93
   3  95  82 122
   3  95  82  20
   3  95 122  82
   3  95 122  46
   3  95  46  88
   3  95  46 122
   3  95  88  20
   3  95  88  46
   3  95  20  82
   3  95  20  88
   3  96  89  55
   3  96  89  21
   3  96  55 123
   3  96  55  89
   3  96 123  83
   3  96 123  55
   3  96  83  21
   3  96  83 123
   3  96  21  89
   3  96  21  83
   3  97  75  65
   3  97  75 112
   3  97  65  71
   3  97  65  75
   3  97  71 115
   3  97  71  65
   3  97 115  71
   3  97 115  56
   3  97  56 112
   3  97  56 115
   3  97 112  75
   3  97 112  56
   3  98  72  66
   3  98  72 116
   3  98  66  76
   3  98  66  72
   3  98  76 113
   3  98  76  66
   3  98 113  76
   3  98 113  56
   3  98  56 116
   3  98  56 113
   3  98 116  72
   3  98 116  56
   3  99 100 101
   3  99 100 104
   3  99 101 105
   3  99 101 100
   3  99 105  59
   3  99 105 101
   3  99  59   1
   3  99  59 105
   3  99   1  28
   3  99   1  59
   3  99  28   0
   3  99  28   1
   3  99   0  58
   3  99   0  28
   3  99  58   0
   3  99  58 104
   3  99 104 100
   3  99 104  58
   3 100  46 104
   4 100  46  55 101
   3 100 101  99
   4 100 101  55  46
   3 100  99 101
   3 100  99 104
   3 100 104  99
   3 100 104  46
   3 101  55 105
   4 101  55  46 100
   3 101 105  99
   3 101 105  55
   3 101  99 100
   3 101  99 105
   3 101 100  99
   4 101 100  46  55
   3 102  73  53
   4 102  73 110  38
   3 102  53  69
   3 102  53  73
   3 102  69  84
   3 102  69  53
   3 102  84  38
   3 102  84  69
   3 102  38  84
   4 102  38 110  73
   3 103  85  70
   3 103  85  45
   3 103  70  54
   3 103  70  85
   3 103  54  74
   3 103  54  70
   3 103  74  54
   4 103  74 111  45
   3 103  45  85
   4 103  45 111  74
   3 104 100  46
   3 104 100  99
   3 104  99 100
   3 104  99  58
   3 104  58  88
   3 104  58  99
   3 104  88  46
   3 104  88  58
   3 104  46  88
   3 104  46 100
   3 105  89  59
   3 105  89  55
   3 105  59  99
   3 105  59  89
   3 105  99 101
   3 105  99  59
   3 105 101  55
   3 105 101  99
   3 105  55 101
   3 105  55  89
   3 106  78 118
   3 106  78  37
   3 106 118  78
   3 106 118  45
   3 106  45 118
   4 106  45 121  62
   3 106  62  37
   4 106  62 121  45
   3 106  37  62
   3 106  37  78
   3 107  77  63
   3 107  77 117
   3 107  63  77
   3 107  63  62
   3 107  62  63
   4 107  62 120  38
   3 107  38 117
   4 107  38  84  77
   3 107 117  77
   3 107 117  38
   3 108  26  53
   3 108  26   3
   3 108  53  26
   3 108  53  90
   3 108  90  91
   3 108  90  53
   3 108  91   3
   3 108  91  90
   3 108   3  26
   3 108   3  91
   3 109  92   4
   3 109  92  90
   3 109  90  54
   3 109  90  92
   3 109  54  90
   3 109  54  27
   3 109  27   4
   3 109  27  54
   3 109   4  92
   3 109   4  27
   3 112  87  75
   3 112  87  56
   3 112  75  97
   3 112  75  87
   3 112  97  75
   3 112  97  56
   3 112  56  97
   3 112  56  87
   3 113  98  76
   3 113  98  56
   3 113  76  86
   3 113  76  98
   3 113  86  76
   3 113  86  56
   3 113  56  98
   3 113  56  86
   3 114  34  39
   3 114  34   9
   3 114  39  35
   3 114  39  34
   3 114  35  39
   3 114  35   2
   3 114   2  35
   3 114   2   9
   3 114   9  34
   3 114   9   2
   3 115  97  71
   3 115  97  56
   3 115  71  81
   3 115  71  97
   3 115  81  56
   3 115  81  71
   3 115  56  97
   3 115  56  81
   3 116  81  72
   3 116  81  56
   3 116  72  98
   3 116  72  81
   3 116  98  72
   3 116  98  56
   3 116  56  81
   3 116  56  98
   3 117  84  77
   3 117  84  38
   3 117  77 107
   3 117  77  84
   3 117 107  77
   3 117 107  38
   3 117  38  84
   3 117  38 107
   3 118 106  78
   3 118 106  45
   3 118  78  85
   3 118  78 106
   3 118  85  45
   3 118  85  78
   3 118  45 106
   3 118  45  85
   3 119  30  29
   3 119  30  41
   3 119  29  42
   3 119  29  30
   3 119  42  94
   3 119  42  29
   3 119  94  42
   3 119  94  93
   3 119  93  41
   3 119  93  94
   3 119  41  93
   3 119  41  30
   3 120  62 121
   4 120  62 107  38
   3 120 121  62
   4 120 121  45  38
   3 121 120  62
   4 121 120  38  45
   3 121  62 120
   4 121  62 106  45
   3 122  95  82
   3 122  95  46
   3 122  82  79
   3 122  82  95
   3 122  79  46
   3 122  79  82
   3 122  46  95
   3 122  46  79
   3 123  80  83
   3 123  80  55
   3 123  83  96
   3 123  83  80
   3 123  96  55
   3 123  96  83
   3 123  55  80
   3 123  55  96
