 COFF
         135        1344         135
  
  -6.5624609404850895        1.1071182736131202        6.7367293679594615       0.60000002384185791       0.60000002384185791       0.60000002384185791       0.80000001192092896     
  -6.5624609345996872       -1.1071182775845592        6.7367293674166353       0.60000002384185791       0.60000002384185791       0.60000002384185791       0.80000001192092896     
  -3.2192827905490683E-002  -2.2124119350728755        6.3789556904415390       0.60000002384185791       0.60000002384185791       0.60000002384185791       0.80000001192092896     
   7.4457267703815617       -1.0199550433350777        6.9103035066737997       0.60000002384185791       0.60000002384185791       0.60000002384185791       0.80000001192092896     
   7.4457267703346286        1.0199550433249760        6.9103035067166951       0.60000002384185791       0.60000002384185791       0.60000002384185791       0.80000001192092896     
  -3.2192827779697016E-002   2.2124119310118506        6.3789556945904948       0.60000002384185791       0.60000002384185791       0.60000002384185791       0.80000001192092896     
   1.1493521671911480       -1.8833486798648751        6.5305753317167108       0.60000002384185791       0.60000002384185791       0.60000002384185791       0.80000001192092896     
   1.1493521667278235        1.8833486788763640        6.5305753328167571       0.60000002384185791       0.60000002384185791       0.60000002384185791       0.80000001192092896     
  -1.1707965170279306        1.8540974859440154        6.5142022478227970       0.60000002384185791       0.60000002384185791       0.60000002384185791       0.80000001192092896     
  -1.1707965129514655       -1.8540974835680315        6.5142022504165293       0.60000002384185791       0.60000002384185791       0.60000002384185791       0.80000001192092896     
   2.0558036344590440       -1.5610406667545123        6.8044566987803350       0.60000002384185791       0.60000002384185791       0.60000002384185791       0.80000001192092896     
   2.0558036344223596        1.5610406663661964        6.8044566991821167       0.60000002384185791       0.60000002384185791       0.60000002384185791       0.80000001192092896     
  -2.0835837452632222        1.5562140430670777        6.7936624279434428       0.60000002384185791       0.60000002384185791       0.60000002384185791       0.80000001192092896     
  -2.0835837418647465       -1.5562140421992949        6.7936624296640584       0.60000002384185791       0.60000002384185791       0.60000002384185791       0.80000001192092896     
   3.0690503252407000       -1.6456597706075875        6.6424675667828064       0.60000002384185791       0.60000002384185791       0.60000002384185791       0.80000001192092896     
   3.0690503252105277        1.6456597703794833        6.6424675670168307       0.60000002384185791       0.60000002384185791       0.60000002384185791       0.80000001192092896     
  -3.0498687731314078        1.6535881988297703        6.5566258462735014       0.60000002384185791       0.60000002384185791       0.60000002384185791       0.80000001192092896     
  -3.0498687816432866       -1.6535881619278445        6.5566258825661210       0.60000002384185791       0.60000002384185791       0.60000002384185791       0.80000001192092896     
   4.1237211475471298       -1.6250715121080781        6.5601012137098209       0.60000002384185791       0.60000002384185791       0.60000002384185791       0.80000001192092896     
   4.1237211474596114        1.6250715106351272        6.5601012151655835       0.60000002384185791       0.60000002384185791       0.60000002384185791       0.80000001192092896     
  -4.0688484852024329        1.6403215063274497        6.5014325683034881       0.60000002384185791       0.60000002384185791       0.60000002384185791       0.80000001192092896     
  -4.0688484847197923       -1.6403215119078409        6.5014325627615435       0.60000002384185791       0.60000002384185791       0.60000002384185791       0.80000001192092896     
   5.0907291020911618       -1.4037785348061640        6.7077115120609685       0.60000002384185791       0.60000002384185791       0.60000002384185791       0.80000001192092896     
   5.0907291024873906        1.4037785349813989        6.7077115119430646       0.60000002384185791       0.60000002384185791       0.60000002384185791       0.80000001192092896     
  -5.0995242054437275        1.4588015486803998        6.6015088040874197       0.60000002384185791       0.60000002384185791       0.60000002384185791       0.80000001192092896     
  -5.0995242058001500       -1.4588015501671998        6.6015088025551707       0.60000002384185791       0.60000002384185791       0.60000002384185791       0.80000001192092896     
   6.0606799061343430       -1.3173260840388983        6.9408031661626675       0.60000002384185791       0.60000002384185791       0.60000002384185791       0.80000001192092896     
   6.0606799066093746        1.3173260839046725        6.9408031648720971       0.60000002384185791       0.60000002384185791       0.60000002384185791       0.80000001192092896     
  -7.6701606634922870        7.0347495046437764E-009   6.7456964617357951       0.60000002384185791       0.60000002384185791       0.60000002384185791       0.80000001192092896     
   7.9365788292492168       -1.9876874003440663E-011   6.9099514522565464       0.60000002384185791       0.60000002384185791       0.60000002384185791       0.80000001192092896     
  -1.9268848498013864      -0.97068073961657542        4.2162963651138012       0.60000002384185791       0.60000002384185791       0.60000002384185791       0.80000001192092896     
   1.1813172943298833       -1.8010637363589603        5.2796178140914227       0.60000002384185791       0.60000002384185791       0.60000002384185791       0.80000001192092896     
   1.1813164097549167        1.8010639185817376        5.2796176831509829       0.60000002384185791       0.60000002384185791       0.60000002384185791       0.80000001192092896     
  -2.1641140276857160        1.5398647088212547        5.6118053708946514       0.60000002384185791       0.60000002384185791       0.60000002384185791       0.80000001192092896     
  -2.1641147399460285       -1.5398636789717752        5.6118033595253127       0.60000002384185791       0.60000002384185791       0.60000002384185791       0.80000001192092896     
   4.6333891298283574E-002  -1.9322530301625334        4.9957027957777767       0.60000002384185791       0.60000002384185791       0.60000002384185791       0.80000001192092896     
   4.6328542284197180E-002   1.9324269985590152        4.9957027968486063       0.60000002384185791       0.60000002384185791       0.60000002384185791       0.80000001192092896     
   2.4377877536190615        1.4787859710599092        5.4609489809557417       0.60000002384185791       0.60000002384185791       0.60000002384185791       0.80000001192092896     
   3.7343657712461722      -0.61929045207834466        3.3105001657960162        1.0000000000000000        1.0000000000000000        0.0000000000000000        1.0000000000000000     
 -0.89388442972621318       -1.7900130697219339        4.4872202623491875       0.60000002384185791       0.60000002384185791       0.60000002384185791       0.80000001192092896     
 -0.89388323107518686        1.7900132409725495        4.4872208624440679       0.60000002384185791       0.60000002384185791       0.60000002384185791       0.80000001192092896     
  -1.5007022719842866      -0.92420777370910867        2.8222559301682022       0.60000002384185791       0.60000002384185791       0.60000002384185791       0.80000001192092896     
  -1.5007015269788806       0.92420693341253690        2.8222562053087468       0.60000002384185791       0.60000002384185791       0.60000002384185791       0.80000001192092896     
   1.0741624155181815        1.7677664376178466        4.1595794674749929       0.60000002384185791       0.60000002384185791       0.60000002384185791       0.80000001192092896     
   1.0741618485785314       -1.7677670695784296        4.1595794150771086       0.60000002384185791       0.60000002384185791       0.60000002384185791       0.80000001192092896     
   3.7343657818925782       0.61929047949241234        3.3105001657960162        1.0000000000000000        1.0000000000000000        0.0000000000000000        1.0000000000000000     
  -4.2007447635336614       0.65959646122372906        3.5885653274392326        1.0000000000000000        1.0000000000000000        0.0000000000000000        1.0000000000000000     
   2.0615645083409029        3.1994495722017803E-010   4.6067857362067786       0.60000002384185791       0.60000002384185791       0.60000002384185791       0.80000001192092896     
   1.4600201663651085        1.3642324590040191        3.7775966042105820       0.60000002384185791       0.60000002384185791       0.60000002384185791       0.80000001192092896     
   1.4599929797242666       -1.3642438486608359        3.7776108139796194       0.60000002384185791       0.60000002384185791       0.60000002384185791       0.80000001192092896     
  0.14551465586129786        1.8279863140181356        3.9069331596311772       0.60000002384185791       0.60000002384185791       0.60000002384185791       0.80000001192092896     
  0.14546247979506757       -1.8279800372999773        3.9069289399487195       0.60000002384185791       0.60000002384185791       0.60000002384185791       0.80000001192092896     
   1.6790293981647679        2.7193209952407018E-006   3.4223669076937298       0.60000002384185791       0.60000002384185791       0.60000002384185791       0.80000001192092896     
   5.5645262854745035       -1.2989461734155066        5.9199996517037023       0.60000002384185791       0.60000002384185791       0.60000002384185791       0.80000001192092896     
   5.5645185823485654        1.2989485520256783        5.9200000404679702       0.60000002384185791       0.60000002384185791       0.60000002384185791       0.80000001192092896     
  -4.2007446430386395      -0.65959666386052351        3.5885653274392331        1.0000000000000000        1.0000000000000000        0.0000000000000000        1.0000000000000000     
  0.15716225819419008       -6.9115049451819818E-009   1.0382578837327854        1.0000000000000000        1.0000000000000000        0.0000000000000000        1.0000000000000000     
  -2.5640886373395433        3.7474648243984604E-007   4.5185215894999020       0.60000002384185791       0.60000002384185791       0.60000002384185791       0.80000001192092896     
  -5.7835616357901030        1.2699883902214015        5.9473315621735088       0.60000002384185791       0.60000002384185791       0.60000002384185791       0.80000001192092896     
  -5.7835616322532868       -1.2699883929859559        5.9473315587591280       0.60000002384185791       0.60000002384185791       0.60000002384185791       0.80000001192092896     
 -0.67117729712672791       -1.6072646159643735        3.5033443110780094       0.60000002384185791       0.60000002384185791       0.60000002384185791       0.80000001192092896     
 -0.67117620115770715        1.6072637544321968        3.5033434902724712       0.60000002384185791       0.60000002384185791       0.60000002384185791       0.80000001192092896     
   2.4377250403220576        1.7152839259128839E-007   5.0152775480825156       0.60000002384185791       0.60000002384185791       0.60000002384185791       0.80000001192092896     
   2.4377893283780043       -1.4787865457835638        5.4609492240456756       0.60000002384185791       0.60000002384185791       0.60000002384185791       0.80000001192092896     
   1.6885548982767982        1.6491911423816892        4.7906495328750784       0.60000002384185791       0.60000002384185791       0.60000002384185791       0.80000001192092896     
  0.95314958185943588        1.6289063829602803        3.1659746621409250       0.60000002384185791       0.60000002384185791       0.60000002384185791       0.80000001192092896     
  0.95316053759586461       -1.6287938203437380        3.1659646655667402       0.60000002384185791       0.60000002384185791       0.60000002384185791       0.80000001192092896     
   1.6885550222561090       -1.6491911195242484        4.7906496871010757       0.60000002384185791       0.60000002384185791       0.60000002384185791       0.80000001192092896     
  -1.0199043090070019        1.8311023232517922        5.4755219717789636       0.60000002384185791       0.60000002384185791       0.60000002384185791       0.80000001192092896     
   4.5539637634304828       -1.5264782703003728        5.9652448127625304       0.60000002384185791       0.60000002384185791       0.60000002384185791       0.80000001192092896     
   4.5539593651526680        1.5264848520129621        5.9652446309679847       0.60000002384185791       0.60000002384185791       0.60000002384185791       0.80000001192092896     
   1.2877474554346435        1.1453394813841631        2.7888109740755871       0.60000002384185791       0.60000002384185791       0.60000002384185791       0.80000001192092896     
   1.2877474997816856       -1.1453390264899403        2.7888110470327963       0.60000002384185791       0.60000002384185791       0.60000002384185791       0.80000001192092896     
   5.6241064268407257      -0.77746817250067013        4.8522801651633483       0.60000002384185791       0.60000002384185791       0.60000002384185791       0.80000001192092896     
   5.6241060400926788       0.77746832098394358        4.8522800700348432       0.60000002384185791       0.60000002384185791       0.60000002384185791       0.80000001192092896     
  0.24838120211503323        1.6830317846091716        2.8757363361358590       0.60000002384185791       0.60000002384185791       0.60000002384185791       0.80000001192092896     
  0.24823988160250859       -1.6828819991248574        2.8757362412192959       0.60000002384185791       0.60000002384185791       0.60000002384185791       0.80000001192092896     
   3.6187067326565443       -1.6347449990213445        5.6378928049476995       0.60000002384185791       0.60000002384185791       0.60000002384185791       0.80000001192092896     
   3.6187074593323865        1.6347354218111296        5.6378929597492720       0.60000002384185791       0.60000002384185791       0.60000002384185791       0.80000001192092896     
  -2.9173623376754940        1.5919694122093855        5.0098583176563531       0.60000002384185791       0.60000002384185791       0.60000002384185791       0.80000001192092896     
  -2.9173656575954912       -1.5919703210162974        5.0098597185922200       0.60000002384185791       0.60000002384185791       0.60000002384185791       0.80000001192092896     
   1.4398917998124616        3.9951291271185579E-006   2.5239184854406425       0.60000002384185791       0.60000002384185791       0.60000002384185791       0.80000001192092896     
  -3.5739495260724183        1.6464512208934592        5.5659292894384249       0.60000002384185791       0.60000002384185791       0.60000002384185791       0.80000001192092896     
  -3.5739495496421512       -1.6464513215176397        5.5659295491012104       0.60000002384185791       0.60000002384185791       0.60000002384185791       0.80000001192092896     
   3.9948053871323270       -1.6009659073523113        5.3015083492307671       0.60000002384185791       0.60000002384185791       0.60000002384185791       0.80000001192092896     
   3.9948422418124627        1.6009146495697855        5.3015083359579807       0.60000002384185791       0.60000002384185791       0.60000002384185791       0.80000001192092896     
 -0.46818709519616847       -1.4618103423802478        2.4710546971780429        1.0000000000000000       0.10000000149011612        0.0000000000000000       0.50000000000000000     
 -0.46818664527280274        1.4618097714127734        2.4710550515952083        1.0000000000000000       0.10000000149011612        0.0000000000000000       0.50000000000000000     
  -5.0274795523623625        1.3935160610974575        5.4700312398439701       0.60000002384185791       0.60000002384185791       0.60000002384185791       0.80000001192092896     
  -5.0274795532674155       -1.3935160671491689        5.4700312301073692       0.60000002384185791       0.60000002384185791       0.60000002384185791       0.80000001192092896     
   6.4548253166524709       -1.2119655564185409E-007   5.7009389490766011       0.60000002384185791       0.60000002384185791       0.60000002384185791       0.80000001192092896     
   7.0229684151991361      -0.81639141913551216        5.9867889393340112       0.60000002384185791       0.60000002384185791       0.60000002384185791       0.80000001192092896     
   7.0229684154744634       0.81639141773028456        5.9867889389087114       0.60000002384185791       0.60000002384185791       0.60000002384185791       0.80000001192092896     
  -1.5705945949495774      -0.51671531291455830        1.9406824339731752        1.0000000000000000       0.10000000149011612        0.0000000000000000       0.50000000000000000     
  -1.5705944340556197       0.51671471687471060        1.9406823545903622        1.0000000000000000       0.10000000149011612        0.0000000000000000       0.50000000000000000     
  -4.1529001972244890        1.5570693928614547        5.3226048663088363       0.60000002384185791       0.60000002384185791       0.60000002384185791       0.80000001192092896     
  -4.1529003042898802       -1.5570694917940457        5.3226047866485153       0.60000002384185791       0.60000002384185791       0.60000002384185791       0.80000001192092896     
  0.86390506295432412        1.4022900428240246        2.2171565101255601        1.0000000000000000       0.10000000149011612        0.0000000000000000       0.50000000000000000     
  0.86390537805389478       -1.4022893689209708        2.2171566122550272        1.0000000000000000       0.10000000149011612        0.0000000000000000       0.50000000000000000     
  -6.2850049935153800       -4.1404184836417650E-008   5.6701159562447092       0.60000002384185791       0.60000002384185791       0.60000002384185791       0.80000001192092896     
  -5.7350482715143398       0.64549154040768120        4.5782763195844387       0.60000002384185791       0.60000002384185791       0.60000002384185791       0.80000001192092896     
  -5.7350481990135744      -0.64549158809936302        4.5782763185690971       0.60000002384185791       0.60000002384185791       0.60000002384185791       0.80000001192092896     
   4.4897480247821697       -1.5154075669422273        4.8911800387633342       0.60000002384185791       0.60000002384185791       0.60000002384185791       0.80000001192092896     
   4.4897489453916570        1.5154129938753687        4.8911800510456871       0.60000002384185791       0.60000002384185791       0.60000002384185791       0.80000001192092896     
  -5.5761335023075604       0.99350217427405962        4.9984306179275837       0.60000002384185791       0.60000002384185791       0.60000002384185791       0.80000001192092896     
  -5.5761333222111098      -0.99350218073962293        4.9984304963203554       0.60000002384185791       0.60000002384185791       0.60000002384185791       0.80000001192092896     
   2.7332227746548927        1.0673263925690473        4.6540979939025569       0.60000002384185791       0.60000002384185791       0.60000002384185791       0.80000001192092896     
   2.7332227751368929       -1.0673263524775669        4.6540980887334493       0.60000002384185791       0.60000002384185791       0.60000002384185791       0.80000001192092896     
   6.6537604008509792       -1.1482064315689715        6.4308603725024387       0.60000002384185791       0.60000002384185791       0.60000002384185791       0.80000001192092896     
   6.6537603713052587        1.1482064399123360        6.4308603753609770       0.60000002384185791       0.60000002384185791       0.60000002384185791       0.80000001192092896     
   5.3942401853438255      -0.69966987630747091        3.9917516551197925       0.60000002384185791       0.60000002384185791       0.60000002384185791       0.80000001192092896     
   5.3942401339224961       0.69966998810673897        3.9917516719238439       0.60000002384185791       0.60000002384185791       0.60000002384185791       0.80000001192092896     
  0.18294792986884537        1.4120619603543376        1.9658187942778882        1.0000000000000000       0.10000000149011612        0.0000000000000000       0.50000000000000000     
  0.18294821190624691       -1.4120621192068801        1.9658189166655065        1.0000000000000000       0.10000000149011612        0.0000000000000000       0.50000000000000000     
  -1.0199049873265087       -1.8311024421556512        5.4755227568582665       0.60000002384185791       0.60000002384185791       0.60000002384185791       0.80000001192092896     
   1.1477103271545961       0.84962218053931360        1.9852922125412211        1.0000000000000000       0.10000000149011612        0.0000000000000000       0.50000000000000000     
   1.1477094232108538      -0.84962183125207313        1.9852924316058844        1.0000000000000000       0.10000000149011612        0.0000000000000000       0.50000000000000000     
   3.4669442740324294       -1.3811010302538980        4.4832362712194227       0.60000002384185791       0.60000002384185791       0.60000002384185791       0.80000001192092896     
   3.4669441918379809        1.3811014189808586        4.4832363367177059       0.60000002384185791       0.60000002384185791       0.60000002384185791       0.80000001192092896     
  -1.8652311678684075       -2.7772619365526998E-007   2.8471752891301976       0.60000002384185791       0.60000002384185791       0.60000002384185791       0.80000001192092896     
   2.8017525040063354      -0.30395000634587038        4.0056756482454681       0.60000002384185791       0.60000002384185791       0.60000002384185791       0.80000001192092896     
   2.8017525308884124       0.30395000700368346        4.0056756759281962       0.60000002384185791       0.60000002384185791       0.60000002384185791       0.80000001192092896     
  -3.7406840497821232        1.3515668967761765        4.5445889010517622       0.60000002384185791       0.60000002384185791       0.60000002384185791       0.80000001192092896     
  -3.7406815038329659       -1.3515684339157314        4.5445910381594974       0.60000002384185791       0.60000002384185791       0.60000002384185791       0.80000001192092896     
 -0.38206691553922240      -0.95074916025007861        1.7430713108548050        1.0000000000000000       0.10000000149011612        0.0000000000000000       0.50000000000000000     
 -0.38206678434987273       0.95074885530406927        1.7430715103744137        1.0000000000000000       0.10000000149011612        0.0000000000000000       0.50000000000000000     
   3.8833202676863485       -1.3517371896780652        4.3189724910157592       0.60000002384185791       0.60000002384185791       0.60000002384185791       0.80000001192092896     
   3.8833201650248883        1.3517376350612889        4.3189722874489105       0.60000002384185791       0.60000002384185791       0.60000002384185791       0.80000001192092896     
  -1.9268829678504251       0.97068109343847331        4.2162977698852186       0.60000002384185791       0.60000002384185791       0.60000002384185791       0.80000001192092896     
  -4.7829393418814776        1.1443421533842988        4.5655631744533789       0.60000002384185791       0.60000002384185791       0.60000002384185791       0.80000001192092896     
  -4.7829390242596235       -1.1443422577944933        4.5655631637809524       0.60000002384185791       0.60000002384185791       0.60000002384185791       0.80000001192092896     
  -3.4391924205775855        1.1582423595814857        4.2715708629905258       0.60000002384185791       0.60000002384185791       0.60000002384185791       0.80000001192092896     
  -3.4391939862676311       -1.1582435939171933        4.2715714489086043       0.60000002384185791       0.60000002384185791       0.60000002384185791       0.80000001192092896     
 -0.73132542340105622      -0.25963641818830802        1.4821260630127997        1.0000000000000000       0.10000000149011612        0.0000000000000000       0.50000000000000000     
 -0.73132534892251122       0.25963610989258284        1.4821260212419394        1.0000000000000000       0.10000000149011612        0.0000000000000000       0.50000000000000000     
  
   3   0  24  58
   3   0  58  24
   3   0  58  99
   3   0  99  28
   3   0  99  58
   3   0  28  99
   3   1  28  99
   3   1  99  59
   3   1  99  28
   3   1  59  99
   3   1  59  25
   3   1  25  59
   3   2  35 114
   3   2  35  31
   3   2  31  35
   3   2  31   6
   3   2   6  31
   3   2   9 114
   3   2 114  35
   3   2 114   9
   3   3  29  91
   3   3  26 108
   3   3 108  26
   3   3 108  91
   3   3  91 108
   3   3  91  29
   3   4  29  92
   3   4  92  29
   3   4  92 109
   3   4 109  92
   3   4 109  27
   3   4  27 109
   3   5   7  32
   3   5  32  36
   3   5  32   7
   3   5  36  32
   3   5  36  68
   3   5  68  36
   3   5  68   8
   3   5   8  68
   3   6   2  31
   3   6  31   2
   3   6  31  63
   3   6  63  10
   3   6  63  31
   3   6  10  63
   3   7  11  37
   3   7  37  32
   3   7  37  11
   3   7  32  37
   3   7  32   5
   3   7   5  32
   3   8   5  68
   3   8  68   5
   3   8  68  33
   3   8  33  12
   3   8  33  68
   3   8  12  33
   3   9  13  34
   3   9  34 114
   3   9  34  13
   3   9 114  34
   3   9 114   2
   3   9   2 114
   3  10   6  63
   3  10  63  14
   3  10  63   6
   3  10  14  63
   3  11  15  37
   3  11  37   7
   3  11  37  15
   3  11   7  37
   3  12   8  33
   3  12  33  16
   3  12  33   8
   3  12  16  33
   3  13  17  34
   3  13  34   9
   3  13  34  17
   3  13   9  34
   3  14  10  63
   3  14  63  77
   3  14  63  10
   3  14  77  63
   3  14  77  18
   3  14  18  77
   3  15  19  78
   3  15  78  19
   3  15  78  37
   3  15  37  11
   3  15  37  78
   3  15  11  37
   3  16  12  33
   3  16  33  79
   3  16  33  12
   3  16  79  82
   3  16  79  33
   3  16  82  79
   3  16  82  20
   3  16  20  82
   3  17  21  83
   3  17  83  21
   3  17  83  80
   3  17  80  83
   3  17  80  34
   3  17  34  80
   3  17  34  13
   3  17  13  34
   3  18  14  77
   3  18  77  84
   3  18  77  14
   3  18  84  77
   3  18  84  69
   3  18  69  84
   3  18  69  22
   3  18  22  69
   3  19  23  70
   3  19  70  85
   3  19  70  23
   3  19  85  70
   3  19  85  78
   3  19  78  85
   3  19  78  15
   3  19  15  78
   3  20  16  82
   3  20  82  95
   3  20  82  16
   3  20  95  82
   3  20  95  88
   3  20  88  95
   3  20  88  24
   3  20  24  88
   3  21  25  89
   3  21  89  96
   3  21  89  25
   3  21  96  89
   3  21  96  83
   3  21  83  96
   3  21  83  17
   3  21  17  83
   3  22  18  69
   3  22  69  18
   3  22  69  53
   3  22  53  26
   3  22  53  69
   3  22  26  53
   3  23  27  54
   3  23  54  70
   3  23  54  27
   3  23  70  54
   3  23  70  19
   3  23  19  70
   3  24  20  88
   3  24  88  20
   3  24  88  58
   3  24  58   0
   3  24  58  88
   3  24   0  58
   3  25   1  59
   3  25  59   1
   3  25  59  89
   3  25  89  59
   3  25  89  21
   3  25  21  89
   3  26  22  53
   3  26  53 108
   3  26  53  22
   3  26 108  53
   3  26 108   3
   3  26   3 108
   3  27   4 109
   3  27 109  54
   3  27 109   4
   3  27  54 109
   3  27  54  23
   3  27  23  54
   3  28   0  99
   3  28  99   1
   3  28  99   0
   3  28   1  99
   3  29   3  91
   3  29  91   3
   3  29  91  92
   3  29  92   4
   3  29  92  91
   3  29   4  92
   3  30  34  57
   3  30  34  39
   3  30  57 128
   3  30  57  34
   3  30 128 119
   3  30 128  57
   3  30 119 128
   3  30 119  41
   3  30  41  60
   3  30  41 119
   3  30  60  41
   3  30  60  39
   3  30  39  34
   3  30  39  60
   3  31   2  35
   3  31   2   6
   3  31  35  44
   3  31  35   2
   3  31  44  67
   3  31  44  35
   3  31  67  63
   3  31  67  44
   3  31  63   6
   3  31  63  67
   3  31   6   2
   3  31   6  63
   3  32  37  64
   3  32  37   7
   3  32  64  37
   3  32  64  43
   3  32  43  36
   3  32  43  64
   3  32  36  43
   3  32  36   5
   3  32   5   7
   3  32   5  36
   3  32   7  37
   3  32   7   5
   3  33  79  57
   3  33  79  16
   3  33  16  12
   3  33  16  79
   3  33  12   8
   3  33  12  16
   3  33   8  68
   3  33   8  12
   3  33  68  40
   3  33  68   8
   3  33  40 128
   3  33  40  68
   3  33 128  40
   3  33 128  57
   3  33  57 128
   3  33  57  79
   3  34  80  17
   3  34  80  57
   3  34  57  30
   3  34  57  80
   3  34  30  57
   3  34  30  39
   3  34  39 114
   3  34  39  30
   3  34 114  39
   3  34 114   9
   3  34   9  13
   3  34   9 114
   3  34  13  17
   3  34  13   9
   3  34  17  80
   3  34  17  13
   3  35 114  39
   3  35 114   2
   3  35  39 114
   3  35  39  51
   3  35  51  44
   3  35  51  39
   3  35  44  31
   3  35  44  51
   3  35  31   2
   3  35  31  44
   3  35   2  31
   3  35   2 114
   3  36  32  43
   3  36  32   5
   3  36  43  32
   3  36  43  50
   3  36  50  40
   3  36  50  43
   3  36  40  68
   3  36  40  50
   3  36  68   5
   3  36  68  40
   3  36   5  32
   3  36   5  68
   3  37 106  78
   3  37 106  62
   3  37  62  47
   3  37  62 106
   3  37  47  62
   3  37  47  64
   3  37  64  47
   3  37  64  32
   3  37  32  64
   3  37  32   7
   3  37   7  11
   3  37   7  32
   3  37  11  15
   3  37  11   7
   3  37  15  78
   3  37  15  11
   3  37  78 106
   3  37  78  15
   3  38 102 126
   4  38 102  73 110
   3  38 126 102
   3  38 126 117
   3  38 117 107
   3  38 117 126
   3  38 107 117
   4  38 107  62 120
   3  39  35 114
   3  39  35  51
   3  39 114  34
   3  39 114  35
   3  39  34  30
   3  39  34 114
   3  39  30  34
   3  39  30  60
   3  39  60  30
   3  39  60  51
   3  39  51  35
   3  39  51  60
   3  40 128  33
   3  40 128  61
   3  40  33  68
   3  40  33 128
   3  40  68  36
   3  40  68  33
   3  40  36  50
   3  40  36  68
   3  40  50  36
   3  40  50  61
   3  40  61  50
   3  40  61 128
   3  41  93 119
   3  41  93 124
   3  41 124  86
   3  41 124  93
   3  41  86  60
   3  41  86 124
   3  41  60  30
   3  41  60  86
   3  41  30 119
   3  41  30  60
   3  41 119  30
   3  41 119  93
   3  42  94 125
   3  42  94 119
   3  42 119 128
   3  42 119  94
   3  42 128  61
   3  42 128 119
   3  42  61  87
   3  42  61 128
   3  42  87  61
   3  42  87 125
   3  42 125  94
   3  42 125  87
   3  43  36  32
   3  43  36  50
   3  43  32  64
   3  43  32  36
   3  43  64  48
   3  43  64  32
   3  43  48  64
   3  43  48  65
   3  43  65  48
   3  43  65  50
   3  43  50  36
   3  43  50  65
   3  44  67  49
   3  44  67  31
   3  44  31  35
   3  44  31  67
   3  44  35  51
   3  44  35  31
   3  44  51  35
   3  44  51  66
   3  44  66  51
   3  44  66  49
   3  44  49  67
   3  44  49  66
   3  45 106 118
   4  45 106  62 121
   3  45 118 106
   3  45 118 127
   3  45 127 118
   3  45 127 103
   3  45 103 127
   4  45 103  85 118
   3  46 104 100
   3  46 104 129
   3  46 129 104
   3  46 129  95
   3  46  95 122
   3  46  95 129
   3  46 122  95
   3  46 122 131
   3  46 131 122
   3  46 131  57
   3  46  57  55
   3  46  57 131
   3  46  55  57
   4  46  55 101 100
   3  46 100 104
   4  46 100 101  55
   3  47  37  62
   3  47  37  64
   3  47  62  37
   3  47  62  63
   3  47  63  67
   3  47  63  62
   3  47  67  49
   3  47  67  63
   3  47  49  67
   3  47  49  52
   3  47  52  48
   3  47  52  49
   3  47  48  64
   3  47  48  52
   3  47  64  37
   3  47  64  48
   3  48  43  64
   3  48  43  65
   3  48  64  47
   3  48  64  43
   3  48  47  52
   3  48  47  64
   3  48  52  47
   3  48  52  71
   3  48  71  52
   3  48  71  65
   3  48  65  71
   3  48  65  43
   3  49  47  67
   3  49  47  52
   3  49  67  47
   3  49  67  44
   3  49  44  67
   3  49  44  66
   3  49  66  72
   3  49  66  44
   3  49  72  66
   3  49  72  52
   3  49  52  47
   3  49  52  72
   3  50  40  36
   3  50  40  61
   3  50  36  43
   3  50  36  40
   3  50  43  36
   3  50  43  65
   3  50  65  75
   3  50  65  43
   3  50  75  65
   3  50  75  61
   3  50  61  75
   3  50  61  40
   3  51  44  35
   3  51  44  66
   3  51  35  39
   3  51  35  44
   3  51  39  35
   3  51  39  60
   3  51  60  76
   3  51  60  39
   3  51  76  60
   3  51  76  66
   3  51  66  76
   3  51  66  44
   3  52  48  47
   3  52  48  71
   3  52  47  49
   3  52  47  48
   3  52  49  47
   3  52  49  72
   3  52  72  81
   3  52  72  49
   3  52  81  72
   3  52  81  71
   3  52  71  81
   3  52  71  48
   3  53 108  26
   3  53 108  90
   3  53  26  22
   3  53  26 108
   3  53  22  69
   3  53  22  26
   3  53  69 102
   3  53  69  22
   3  53 102  73
   3  53 102  69
   3  53  73  90
   3  53  73 102
   3  53  90  73
   3  53  90 108
   3  54 109  90
   3  54 109  27
   3  54  90  74
   3  54  90 109
   3  54  74 103
   3  54  74  90
   3  54 103  70
   3  54 103  74
   3  54  70 103
   3  54  70  23
   3  54  23  27
   3  54  23  70
   3  54  27 109
   3  54  27  23
   3  55 105 101
   3  55 105 130
   3  55 101 105
   4  55 101 100  46
   3  55  46  57
   4  55  46 100 101
   3  55  57 132
   3  55  57  46
   3  55 132  57
   3  55 132 123
   3  55 123  96
   3  55 123 132
   3  55  96 130
   3  55  96 123
   3  55 130  96
   3  55 130 105
   3  56 112  97
   3  56 112 125
   3  56  97 115
   3  56  97 112
   3  56 115  97
   3  56 115  81
   3  56  81 116
   3  56  81 115
   3  56 116  81
   3  56 116  98
   3  56  98 113
   3  56  98 116
   3  56 113  98
   3  56 113 124
   3  56 124 113
   4  56 124  93 133
   3  56 133 134
   4  56 133  93 124
   3  56 134 133
   4  56 134  94 125
   3  56 125 112
   4  56 125  94 134
   3  57 128  33
   3  57 128  30
   3  57  30  34
   3  57  30 128
   3  57  34  80
   3  57  34  30
   3  57  80 132
   3  57  80  34
   3  57 132  80
   3  57 132  55
   3  57  55  46
   3  57  55 132
   3  57  46 131
   3  57  46  55
   3  57 131  79
   3  57 131  46
   3  57  79 131
   3  57  79  33
   3  57  33  79
   3  57  33 128
   3  58   0  24
   3  58   0  99
   3  58  24  88
   3  58  24   0
   3  58  88 104
   3  58  88  24
   3  58 104  99
   3  58 104  88
   3  58  99   0
   3  58  99 104
   3  59   1  99
   3  59   1  25
   3  59  99 105
   3  59  99   1
   3  59 105  89
   3  59 105  99
   3  59  89 105
   3  59  89  25
   3  59  25   1
   3  59  25  89
   3  60  30  41
   3  60  30  39
   3  60  41  86
   3  60  41  30
   3  60  86  76
   3  60  86  41
   3  60  76  86
   3  60  76  51
   3  60  51  39
   3  60  51  76
   3  60  39  30
   3  60  39  51
   3  61  50  40
   3  61  50  75
   3  61  75  87
   3  61  75  50
   3  61  87  42
   3  61  87  75
   3  61  42 128
   3  61  42  87
   3  61 128  40
   3  61 128  42
   3  61  40 128
   3  61  40  50
   3  62  47  37
   3  62  47  63
   3  62  37 106
   3  62  37  47
   3  62 106  37
   4  62 106  45 121
   3  62 121 120
   4  62 121  45 106
   3  62 120 121
   4  62 120  38 107
   3  62 107  63
   4  62 107  38 120
   3  62  63 107
   3  62  63  47
   3  63 107  77
   3  63 107  62
   3  63  77 107
   3  63  77  14
   3  63  14  10
   3  63  14  77
   3  63  10   6
   3  63  10  14
   3  63   6  31
   3  63   6  10
   3  63  31  67
   3  63  31   6
   3  63  67  47
   3  63  67  31
   3  63  47  62
   3  63  47  67
   3  63  62  47
   3  63  62 107
   3  64  37  47
   3  64  37  32
   3  64  47  37
   3  64  47  48
   3  64  48  43
   3  64  48  47
   3  64  43  32
   3  64  43  48
   3  64  32  37
   3  64  32  43
   3  65  48  43
   3  65  48  71
   3  65  71  97
   3  65  71  48
   3  65  97  75
   3  65  97  71
   3  65  75  97
   3  65  75  50
   3  65  50  43
   3  65  50  75
   3  65  43  48
   3  65  43  50
   3  66  51  44
   3  66  51  76
   3  66  76  98
   3  66  76  51
   3  66  98  72
   3  66  98  76
   3  66  72  98
   3  66  72  49
   3  66  49  44
   3  66  49  72
   3  66  44  51
   3  66  44  49
   3  67  49  47
   3  67  49  44
   3  67  47  63
   3  67  47  49
   3  67  63  31
   3  67  63  47
   3  67  31  44
   3  67  31  63
   3  67  44  31
   3  67  44  49
   3  68   5  36
   3  68   5   8
   3  68  36  40
   3  68  36   5
   3  68  40  33
   3  68  40  36
   3  68  33   8
   3  68  33  40
   3  68   8   5
   3  68   8  33
   3  69  18  84
   3  69  18  22
   3  69  84 102
   3  69  84  18
   3  69 102  53
   3  69 102  84
   3  69  53  22
   3  69  53 102
   3  69  22  18
   3  69  22  53
   3  70  54 103
   3  70  54  23
   3  70 103  85
   3  70 103  54
   3  70  85 103
   3  70  85  19
   3  70  19  23
   3  70  19  85
   3  70  23  54
   3  70  23  19
   3  71  52  48
   3  71  52  81
   3  71  81 115
   3  71  81  52
   3  71 115  97
   3  71 115  81
   3  71  97  65
   3  71  97 115
   3  71  65  48
   3  71  65  97
   3  71  48  52
   3  71  48  65
   3  72  66  98
   3  72  66  49
   3  72  98  66
   3  72  98 116
   3  72 116  81
   3  72 116  98
   3  72  81 116
   3  72  81  52
   3  72  52  49
   3  72  52  81
   3  72  49  66
   3  72  49  52
   3  73  74  90
   4  73  74 111 110
   3  73  90  74
   3  73  90  53
   3  73  53 102
   3  73  53  90
   3  73 102  53
   4  73 102  38 110
   3  74 103  54
   4  74 103  45 111
   3  74  54  90
   3  74  54 103
   3  74  90  73
   3  74  90  54
   3  74  73  90
   4  74  73 110 111
   3  75  65  97
   3  75  65  50
   3  75  97  65
   3  75  97 112
   3  75 112  87
   3  75 112  97
   3  75  87  61
   3  75  87 112
   3  75  61  50
   3  75  61  87
   3  75  50  65
   3  75  50  61
   3  76  60  86
   3  76  60  51
   3  76  86  60
   3  76  86 113
   3  76 113  98
   3  76 113  86
   3  76  98  66
   3  76  98 113
   3  76  66  51
   3  76  66  98
   3  76  51  60
   3  76  51  66
   3  77  63 107
   3  77  63  14
   3  77 107  63
   3  77 107 117
   3  77 117  84
   3  77 117 107
   3  77  84 117
   3  77  84  18
   3  77  18  14
   3  77  18  84
   3  77  14  63
   3  77  14  18
   3  78  19  85
   3  78  19  15
   3  78  85 118
   3  78  85  19
   3  78 118 106
   3  78 118  85
   3  78 106 118
   3  78 106  37
   3  78  37 106
   3  78  37  15
   3  78  15  19
   3  78  15  37
   3  79  57 131
   3  79  57  33
   3  79 131 122
   3  79 131  57
   3  79 122  82
   3  79 122 131
   3  79  82 122
   3  79  82  16
   3  79  16  33
   3  79  16  82
   3  79  33  16
   3  79  33  57
   3  80  17  83
   3  80  17  34
   3  80  83 123
   3  80  83  17
   3  80 123  83
   3  80 123 132
   3  80 132  57
   3  80 132 123
   3  80  57  34
   3  80  57 132
   3  80  34  57
   3  80  34  17
   3  81  72 116
   3  81  72  52
   3  81 116  72
   3  81 116  56
   3  81  56 115
   3  81  56 116
   3  81 115  71
   3  81 115  56
   3  81  71  52
   3  81  71 115
   3  81  52  72
   3  81  52  71
   3  82  79 122
   3  82  79  16
   3  82 122  95
   3  82 122  79
   3  82  95 122
   3  82  95  20
   3  82  20  16
   3  82  20  95
   3  82  16  79
   3  82  16  20
   3  83  21  96
   3  83  21  17
   3  83  96 123
   3  83  96  21
   3  83 123  80
   3  83 123  96
   3  83  80  17
   3  83  80 123
   3  83  17  21
   3  83  17  80
   3  84  77 117
   3  84  77  18
   3  84 117  77
   3  84 117 126
   3  84 126 102
   3  84 126 117
   3  84 102  69
   3  84 102 126
   3  84  69  18
   3  84  69 102
   3  84  18  77
   3  84  18  69
   3  85  70 103
   3  85  70  19
   3  85 103  70
   3  85 103 127
   3  85 127 118
   3  85 127 103
   3  85 118  78
   3  85 118 127
   3  85  78  19
   3  85  78 118
   3  85  19  70
   3  85  19  78
   3  86  76  60
   3  86  76 113
   3  86  60  41
   3  86  60  76
   3  86  41 124
   3  86  41  60
   3  86 124 113
   3  86 124  41
   3  86 113  76
   3  86 113 124
   3  87  42  61
   3  87  42 125
   3  87  61  75
   3  87  61  42
   3  87  75 112
   3  87  75  61
   3  87 112  75
   3  87 112 125
   3  87 125  42
   3  87 125 112
   3  88  20  95
   3  88  20  24
   3  88  95 129
   3  88  95  20
   3  88 129 104
   3  88 129  95
   3  88 104  58
   3  88 104 129
   3  88  58  24
   3  88  58 104
   3  88  24  20
   3  88  24  58
   3  89  59 105
   3  89  59  25
   3  89 105  59
   3  89 105 130
   3  89 130  96
   3  89 130 105
   3  89  96 130
   3  89  96  21
   3  89  21  25
   3  89  21  96
   3  89  25  59
   3  89  25  21
   3  90  73  74
   3  90  73  53
   3  90  74  54
   3  90  74  73
   3  90  54 109
   3  90  54  74
   3  90 109  92
   3  90 109  54
   3  90  92  91
   3  90  92 109
   3  90  91 108
   3  90  91  92
   3  90 108  53
   3  90 108  91
   3  90  53 108
   3  90  53  73
   3  91   3  29
   3  91   3 108
   3  91 108  90
   3  91 108   3
   3  91  90  92
   3  91  90 108
   3  91  92  29
   3  91  92  90
   3  91  29   3
   3  91  29  92
   3  92   4  29
   3  92   4 109
   3  92  29  91
   3  92  29   4
   3  92  91  90
   3  92  91  29
   3  92  90 109
   3  92  90  91
   3  92 109  90
   3  92 109   4
   3  93  41 124
   3  93  41 119
   3  93 119  94
   3  93 119  41
   3  93  94 119
   4  93  94 134 133
   3  93 124  41
   4  93 124  56 133
   3  94  42 119
   3  94  42 125
   3  94 125  42
   4  94 125  56 134
   3  94  93 119
   4  94  93 133 134
   3  94 119  42
   3  94 119  93
   3  95  82 122
   3  95  82  20
   3  95 122  82
   3  95 122  46
   3  95  46 129
   3  95  46 122
   3  95 129  88
   3  95 129  46
   3  95  88  20
   3  95  88 129
   3  95  20  82
   3  95  20  88
   3  96  89 130
   3  96  89  21
   3  96 130  89
   3  96 130  55
   3  96  55 123
   3  96  55 130
   3  96 123  83
   3  96 123  55
   3  96  83  21
   3  96  83 123
   3  96  21  89
   3  96  21  83
   3  97  75  65
   3  97  75 112
   3  97  65  71
   3  97  65  75
   3  97  71 115
   3  97  71  65
   3  97 115  71
   3  97 115  56
   3  97  56 112
   3  97  56 115
   3  97 112  75
   3  97 112  56
   3  98  72  66
   3  98  72 116
   3  98  66  76
   3  98  66  72
   3  98  76 113
   3  98  76  66
   3  98 113  76
   3  98 113  56
   3  98  56 116
   3  98  56 113
   3  98 116  72
   3  98 116  56
   3  99 100 101
   3  99 100 104
   3  99 101 105
   3  99 101 100
   3  99 105  59
   3  99 105 101
   3  99  59   1
   3  99  59 105
   3  99   1  28
   3  99   1  59
   3  99  28   0
   3  99  28   1
   3  99   0  58
   3  99   0  28
   3  99  58   0
   3  99  58 104
   3  99 104 100
   3  99 104  58
   3 100  46 104
   4 100  46  55 101
   3 100 101  99
   4 100 101  55  46
   3 100  99 101
   3 100  99 104
   3 100 104  99
   3 100 104  46
   3 101  55 105
   4 101  55  46 100
   3 101 105  99
   3 101 105  55
   3 101  99 100
   3 101  99 105
   3 101 100  99
   4 101 100  46  55
   3 102  73  53
   4 102  73 110  38
   3 102  53  69
   3 102  53  73
   3 102  69  84
   3 102  69  53
   3 102  84 126
   3 102  84  69
   3 102 126  84
   3 102 126  38
   3 102  38 126
   4 102  38 110  73
   3 103  85  70
   3 103  85 127
   3 103  70  54
   3 103  70  85
   3 103  54  74
   3 103  54  70
   3 103  74  54
   4 103  74 111  45
   3 103  45 127
   4 103  45 111  74
   3 103 127  85
   3 103 127  45
   3 104 100  46
   3 104 100  99
   3 104  99 100
   3 104  99  58
   3 104  58  88
   3 104  58  99
   3 104  88 129
   3 104  88  58
   3 104 129  88
   3 104 129  46
   3 104  46 129
   3 104  46 100
   3 105  89  59
   3 105  89 130
   3 105  59  99
   3 105  59  89
   3 105  99 101
   3 105  99  59
   3 105 101  55
   3 105 101  99
   3 105  55 101
   3 105  55 130
   3 105 130  89
   3 105 130  55
   3 106  78 118
   3 106  78  37
   3 106 118  78
   3 106 118  45
   3 106  45 118
   4 106  45 121  62
   3 106  62  37
   4 106  62 121  45
   3 106  37  62
   3 106  37  78
   3 107  77  63
   3 107  77 117
   3 107  63  77
   3 107  63  62
   3 107  62  63
   4 107  62 120  38
   3 107  38 117
   4 107  38 120  62
   3 107 117  77
   3 107 117  38
   3 108  26  53
   3 108  26   3
   3 108  53  26
   3 108  53  90
   3 108  90  91
   3 108  90  53
   3 108  91   3
   3 108  91  90
   3 108   3  26
   3 108   3  91
   3 109  92   4
   3 109  92  90
   3 109  90  54
   3 109  90  92
   3 109  54  90
   3 109  54  27
   3 109  27   4
   3 109  27  54
   3 109   4  92
   3 109   4  27
   3 112  87  75
   3 112  87 125
   3 112  75  97
   3 112  75  87
   3 112  97  75
   3 112  97  56
   3 112  56  97
   3 112  56 125
   3 112 125  87
   3 112 125  56
   3 113  98  76
   3 113  98  56
   3 113  76  86
   3 113  76  98
   3 113  86  76
   3 113  86 124
   3 113 124  86
   3 113 124  56
   3 113  56  98
   3 113  56 124
   3 114  34  39
   3 114  34   9
   3 114  39  35
   3 114  39  34
   3 114  35  39
   3 114  35   2
   3 114   2  35
   3 114   2   9
   3 114   9  34
   3 114   9   2
   3 115  97  71
   3 115  97  56
   3 115  71  81
   3 115  71  97
   3 115  81  56
   3 115  81  71
   3 115  56  97
   3 115  56  81
   3 116  81  72
   3 116  81  56
   3 116  72  98
   3 116  72  81
   3 116  98  72
   3 116  98  56
   3 116  56  81
   3 116  56  98
   3 117  84  77
   3 117  84 126
   3 117  77 107
   3 117  77  84
   3 117 107  77
   3 117 107  38
   3 117  38 126
   3 117  38 107
   3 117 126  84
   3 117 126  38
   3 118 106  78
   3 118 106  45
   3 118  78  85
   3 118  78 106
   3 118  85 127
   3 118  85  78
   3 118 127  85
   3 118 127  45
   3 118  45 106
   3 118  45 127
   3 119  30 128
   3 119  30  41
   3 119 128  42
   3 119 128  30
   3 119  42  94
   3 119  42 128
   3 119  94  42
   3 119  94  93
   3 119  93  41
   3 119  93  94
   3 119  41  93
   3 119  41  30
   3 120  62 121
   4 120  62 107  38
   3 120 121  62
   4 120 121  45  38
   3 121 120  62
   4 121 120  38  45
   3 121  62 120
   4 121  62 106  45
   3 122  95  82
   3 122  95  46
   3 122  82  79
   3 122  82  95
   3 122  79 131
   3 122  79  82
   3 122 131  79
   3 122 131  46
   3 122  46  95
   3 122  46 131
   3 123  80  83
   3 123  80 132
   3 123  83  96
   3 123  83  80
   3 123  96  55
   3 123  96  83
   3 123  55 132
   3 123  55  96
   3 123 132  80
   3 123 132  55
   3 124 113  86
   3 124 113  56
   3 124  86  41
   3 124  86 113
   3 124  41  93
   3 124  41  86
   3 124  93  41
   4 124  93 133  56
   3 124  56 113
   4 124  56 133  93
   3 125  94  42
   4 125  94 134  56
   3 125  42  94
   3 125  42  87
   3 125  87  42
   3 125  87 112
   3 125 112  87
   3 125 112  56
   3 125  56 112
   4 125  56 134  94
   3 126 102  84
   3 126 102  38
   3 126  84 117
   3 126  84 102
   3 126 117  84
   3 126 117  38
   3 126  38 102
   3 126  38 117
   3 127 118  85
   3 127 118  45
   3 127  85 103
   3 127  85 118
   3 127 103  85
   3 127 103  45
   3 127  45 118
   3 127  45 103
   3 128  33  40
   3 128  33  57
   3 128  40  33
   3 128  40  61
   3 128  61  42
   3 128  61  40
   3 128  42 119
   3 128  42  61
   3 128 119  30
   3 128 119  42
   3 128  30  57
   3 128  30 119
   3 128  57  30
   3 128  57  33
   3 129 104  88
   3 129 104  46
   3 129  88  95
   3 129  88 104
   3 129  95  46
   3 129  95  88
   3 129  46 104
   3 129  46  95
   3 130  96  89
   3 130  96  55
   3 130  89 105
   3 130  89  96
   3 130 105  89
   3 130 105  55
   3 130  55 105
   3 130  55  96
   3 131 122  79
   3 131 122  46
   3 131  79  57
   3 131  79 122
   3 131  57  46
   3 131  57  79
   3 131  46 122
   3 131  46  57
   3 132  57  80
   3 132  57  55
   3 132  80 123
   3 132  80  57
   3 132 123  80
   3 132 123  55
   3 132  55  57
   3 132  55 123
   3 133  56 134
   4 133  56 124  93
   3 133 134  56
   4 133 134  94  93
   3 134  56 133
   4 134  56 125  94
   3 134 133  56
   4 134 133  93  94
