# Generated by dad_to_polygons. Vertex data from Humppa's .off file,
# polygons parsed from .dad file.
COFF
155 556 155
-6.620561 1.210072 7.421397 0.500000 0.500000 0.500000 1.0
-6.620561 -1.210072 7.421397 0.500000 0.500000 0.500000 1.0
-0.034018 -2.322218 7.058175 0.500000 0.500000 0.500000 1.0
7.495494 -1.105642 7.621787 0.500000 0.500000 0.500000 1.0
7.495495 1.105641 7.621787 0.500000 0.500000 0.500000 1.0
-0.034018 2.322218 7.058175 0.500000 0.500000 0.500000 1.0
1.175435 -1.991168 7.211132 0.500000 0.500000 0.500000 1.0
1.175435 1.991168 7.211132 0.500000 0.500000 0.500000 1.0
-1.192373 1.962472 7.194669 0.500000 0.500000 0.500000 1.0
-1.192373 -1.962472 7.194669 0.500000 0.500000 0.500000 1.0
2.076404 -1.666019 7.499415 0.500000 0.500000 0.500000 1.0
2.076404 1.666019 7.499415 0.500000 0.500000 0.500000 1.0
-2.100401 1.663041 7.487799 0.500000 0.500000 0.500000 1.0
-2.100401 -1.663041 7.487799 0.500000 0.500000 0.500000 1.0
3.063919 -1.772748 7.307601 0.500000 0.500000 0.500000 1.0
3.063919 1.772748 7.307601 0.500000 0.500000 0.500000 1.0
-3.047254 1.801440 7.198347 0.500000 0.500000 0.500000 1.0
-3.047254 -1.801440 7.198347 0.500000 0.500000 0.500000 1.0
4.140803 -1.761599 7.212588 0.500000 0.500000 0.500000 1.0
4.140803 1.761599 7.212588 0.500000 0.500000 0.500000 1.0
-4.084143 1.796828 7.131879 0.500000 0.500000 0.500000 1.0
-4.084143 -1.796828 7.131879 0.500000 0.500000 0.500000 1.0
5.110374 -1.520329 7.388904 0.500000 0.500000 0.500000 1.0
5.110374 1.520329 7.388904 0.500000 0.500000 0.500000 1.0
-5.127575 1.587213 7.264637 0.500000 0.500000 0.500000 1.0
-5.127575 -1.587213 7.264637 0.500000 0.500000 0.500000 1.0
6.076762 -1.416792 7.646872 0.500000 0.500000 0.500000 1.0
6.076762 1.416792 7.646872 0.500000 0.500000 0.500000 1.0
-7.830829 0.000100 7.440912 0.500000 0.500000 0.500000 1.0
8.604351 -0.000145 7.612568 0.500000 0.500000 0.500000 1.0
-1.958356 -1.029569 4.774179 0.500000 0.500000 0.500000 1.0
1.194473 -1.907434 5.908235 0.500000 0.500000 0.500000 1.0
1.194471 1.907434 5.908235 0.500000 0.500000 0.500000 1.0
-2.182177 1.685270 6.240842 0.500000 0.500000 0.500000 1.0
-2.182178 -1.685270 6.240840 0.500000 0.500000 0.500000 1.0
0.043708 -2.038011 5.597085 0.500000 0.500000 0.500000 1.0
0.043694 2.038046 5.597085 0.500000 0.500000 0.500000 1.0
2.449996 1.572097 6.069357 0.500000 0.500000 0.500000 1.0
3.739459 -0.619516 3.310500 1.0 1.0 0.0 1.0
-0.894791 -1.905415 5.094880 0.500000 0.500000 0.500000 1.0
-0.894791 1.905412 5.094879 0.500000 0.500000 0.500000 1.0
-1.545918 -0.875763 3.336283 0.500000 0.500000 0.500000 1.0
-1.545918 0.875765 3.336307 0.500000 0.500000 0.500000 1.0
1.103950 1.877181 4.756318 0.500000 0.500000 0.500000 1.0
1.103975 -1.877170 4.756333 0.500000 0.500000 0.500000 1.0
3.739459 0.619517 3.310500 1.0 1.0 0.0 1.0
-4.213958 0.660325 3.588565 1.0 1.0 0.0 1.0
2.165003 -0.000001 5.242215 0.500000 0.500000 0.500000 1.0
1.498041 1.456732 4.335355 0.500000 0.500000 0.500000 1.0
1.498038 -1.456737 4.335366 0.500000 0.500000 0.500000 1.0
0.156745 1.937635 4.449057 0.500000 0.500000 0.500000 1.0
0.156660 -1.937469 4.449054 0.500000 0.500000 0.500000 1.0
1.671541 0.000002 3.877943 0.500000 0.500000 0.500000 1.0
5.567201 -1.408169 6.535642 0.500000 0.500000 0.500000 1.0
5.567201 1.408169 6.535642 0.500000 0.500000 0.500000 1.0
-4.213958 -0.660326 3.588565 1.0 1.0 0.0 1.0
0.156958 -0.000000 1.038258 1.0 1.0 0.0 1.0
-2.558386 -0.000002 5.083539 0.500000 0.500000 0.500000 1.0
-5.822831 1.374870 6.615062 0.500000 0.500000 0.500000 1.0
-5.822831 -1.374870 6.615062 0.500000 0.500000 0.500000 1.0
-0.764876 -1.683932 3.964416 0.500000 0.500000 0.500000 1.0
-0.764877 1.683928 3.964405 0.500000 0.500000 0.500000 1.0
2.450968 -0.000001 5.527995 0.500000 0.500000 0.500000 1.0
2.450000 -1.572098 6.069358 0.500000 0.500000 0.500000 1.0
1.726346 1.749594 5.377798 0.500000 0.500000 0.500000 1.0
0.975092 1.731783 3.713782 0.500000 0.500000 0.500000 1.0
0.975125 -1.731810 3.713775 0.500000 0.500000 0.500000 1.0
1.726330 -1.749597 5.377784 0.500000 0.500000 0.500000 1.0
-1.030889 1.941460 6.085050 0.500000 0.500000 0.500000 1.0
4.563076 -1.656495 6.617880 0.500000 0.500000 0.500000 1.0
4.563076 1.656495 6.617880 0.500000 0.500000 0.500000 1.0
1.300355 1.236019 3.280756 1.000000 1.000000 1.000000 1.0
1.300353 -1.236021 3.280757 1.000000 1.000000 1.000000 1.0
5.604983 -0.881225 5.342507 0.500000 0.500000 0.500000 1.0
5.604986 0.881223 5.342507 0.500000 0.500000 0.500000 1.0
0.218033 1.780971 3.368548 1.000000 1.000000 1.000000 1.0
0.217886 -1.781006 3.368548 1.000000 1.000000 1.000000 1.0
3.627089 -1.766743 6.230525 0.500000 0.500000 0.500000 1.0
3.627173 1.766877 6.230525 0.500000 0.500000 0.500000 1.0
-2.981596 1.756780 5.661855 0.500000 0.500000 0.500000 1.0
-2.981600 -1.756779 5.661855 0.500000 0.500000 0.500000 1.0
1.449515 0.000002 2.947301 1.000000 1.000000 1.000000 1.0
-3.582500 1.798787 6.140593 0.500000 0.500000 0.500000 1.0
-3.582503 -1.798846 6.140594 0.500000 0.500000 0.500000 1.0
3.994797 -1.734203 5.864892 0.500000 0.500000 0.500000 1.0
3.994941 1.734238 5.864893 0.500000 0.500000 0.500000 1.0
-0.581380 -1.485843 2.909429 1.000000 1.000000 1.000000 1.0
-0.581388 1.485839 2.909426 1.000000 1.000000 1.000000 1.0
-5.111382 1.528283 6.080054 0.500000 0.500000 0.500000 1.0
-5.111382 -1.528283 6.080054 0.500000 0.500000 0.500000 1.0
6.486602 -0.000000 6.242757 0.500000 0.500000 0.500000 1.0
7.312216 -0.442902 6.437264 1.0 1.0 0.0 1.0
7.312216 0.442900 6.437264 1.0 1.0 0.0 1.0
-1.766470 -0.459538 2.466579 1.000000 1.000000 1.000000 1.0
-1.766472 0.459531 2.466578 1.000000 1.000000 1.000000 1.0
-4.176970 1.713750 5.826577 0.500000 0.500000 0.500000 1.0
-4.177032 -1.713827 5.826577 0.500000 0.500000 0.500000 1.0
0.856493 1.557630 2.708415 1.000000 1.000000 1.000000 1.0
0.856515 -1.557576 2.708421 1.000000 1.000000 1.000000 1.0
-6.449290 -0.000000 6.287561 0.500000 0.500000 0.500000 1.0
-5.942298 0.696252 5.166814 0.500000 0.500000 0.500000 1.0
-5.942299 -0.696252 5.166814 0.500000 0.500000 0.500000 1.0
4.489245 -1.643000 5.452550 0.500000 0.500000 0.500000 1.0
4.489219 1.642918 5.452550 0.500000 0.500000 0.500000 1.0
-5.665349 1.119098 5.608448 0.500000 0.500000 0.500000 1.0
-5.665325 -1.119257 5.608439 0.500000 0.500000 0.500000 1.0
2.765406 1.116328 5.339631 0.500000 0.500000 0.500000 1.0
2.765408 -1.116334 5.339631 0.500000 0.500000 0.500000 1.0
6.752133 -1.226381 7.058695 0.500000 0.500000 0.500000 1.0
6.752133 1.226381 7.058695 0.500000 0.500000 0.500000 1.0
5.354425 -0.787118 4.178618 0.500000 0.500000 0.500000 1.0
5.354446 0.787109 4.178613 0.500000 0.500000 0.500000 1.0
0.245707 1.600288 2.399831 1.000000 1.000000 1.000000 1.0
0.245703 -1.600320 2.399828 1.000000 1.000000 1.000000 1.0
-1.030889 -1.941460 6.085051 0.500000 0.500000 0.500000 1.0
1.160820 1.032223 2.387228 1.000000 1.000000 1.000000 1.0
1.160816 -1.032222 2.387228 1.000000 1.000000 1.000000 1.0
3.362063 -1.472446 4.902158 0.500000 0.500000 0.500000 1.0
3.361950 1.472359 4.902166 0.500000 0.500000 0.500000 1.0
-2.009744 -0.000000 3.427615 0.500000 0.500000 0.500000 1.0
2.781165 -0.386349 4.105203 0.500000 0.500000 0.500000 1.0
2.781166 0.386348 4.105203 0.500000 0.500000 0.500000 1.0
-3.601289 1.658559 4.906789 0.500000 0.500000 0.500000 1.0
-3.601287 -1.658563 4.906792 0.500000 0.500000 0.500000 1.0
-0.749154 -1.179635 2.216177 1.000000 1.000000 1.000000 1.0
-0.749159 1.179633 2.216177 1.000000 1.000000 1.000000 1.0
3.816626 -1.574622 4.786447 0.500000 0.500000 0.500000 1.0
3.816626 1.574621 4.786447 0.500000 0.500000 0.500000 1.0
-1.958350 1.029571 4.774182 0.500000 0.500000 0.500000 1.0
-4.985935 1.427816 5.074829 0.500000 0.500000 0.500000 1.0
-4.985945 -1.427812 5.074838 0.500000 0.500000 0.500000 1.0
-3.255122 1.389690 4.695636 0.500000 0.500000 0.500000 1.0
-3.255150 -1.389728 4.695633 0.500000 0.500000 0.500000 1.0
-1.393446 -0.352460 1.550753 1.000000 1.000000 1.000000 1.0
-1.393447 0.352458 1.550753 1.000000 1.000000 1.000000 1.0
-5.364940 1.231567 4.815912 0.500000 0.500000 0.500000 1.0
-5.364941 -1.231567 4.815912 0.500000 0.500000 0.500000 1.0
-2.876138 0.325097 4.142552 0.500000 0.500000 0.500000 1.0
-2.876139 -0.325102 4.142556 0.500000 0.500000 0.500000 1.0
4.249601 -1.502662 4.450956 0.500000 0.500000 0.500000 1.0
4.249587 1.502675 4.450951 0.500000 0.500000 0.500000 1.0
-4.171802 1.597571 4.874231 0.500000 0.500000 0.500000 1.0
-4.171807 -1.597571 4.874233 0.500000 0.500000 0.500000 1.0
0.724837 1.253704 1.864677 1.000000 1.000000 1.000000 1.0
0.724830 -1.253707 1.864680 1.000000 1.000000 1.000000 1.0
1.272911 0.000047 2.122109 1.000000 1.000000 1.000000 1.0
-5.464301 0.672951 4.167023 0.500000 0.500000 0.500000 1.0
-5.464300 -0.672951 4.167023 0.500000 0.500000 0.500000 1.0
-2.083580 -0.000001 4.636473 0.500000 0.500000 0.500000 1.0
3.049886 -1.048754 4.378993 0.500000 0.500000 0.500000 1.0
3.049884 1.048752 4.378994 0.500000 0.500000 0.500000 1.0
-2.307869 1.021410 5.477374 0.500000 0.500000 0.500000 1.0
-2.307871 -1.021410 5.477371 0.500000 0.500000 0.500000 1.0
0.169477 0.974158 1.666666 1.000000 1.000000 1.000000 1.0
0.169477 -0.974156 1.666666 1.000000 1.000000 1.000000 1.0
3 0 58 24
3 0 24 58
3 0 99 28
3 0 28 99
3 0 99 58
3 0 58 99
3 1 59 99
3 1 99 59
3 2 9 114
3 2 114 9
3 2 31 6
3 2 6 31
3 2 114 35
3 2 35 114
3 3 29 91
3 3 91 29
3 3 91 108
3 3 108 91
3 4 27 109
3 4 109 27
3 6 31 63
3 6 63 31
3 6 63 10
3 6 10 63
3 7 32 5
3 7 5 32
3 8 33 12
3 8 12 33
3 8 68 5
3 8 5 68
3 11 37 7
3 11 7 37
3 12 33 16
3 12 16 33
3 13 34 9
3 13 9 34
3 14 63 77
3 14 77 63
3 14 77 18
3 14 18 77
3 15 37 11
3 15 11 37
3 16 79 82
3 16 82 79
3 17 13 34
3 17 34 13
3 17 80 34
3 17 34 80
3 17 80 83
3 17 83 80
3 18 77 84
3 18 84 77
3 19 15 78
3 19 78 15
3 19 70 85
3 19 85 70
3 21 83 17
3 21 17 83
3 22 69 18
3 22 18 69
3 22 69 53
3 22 53 69
3 23 54 70
3 23 70 54
3 23 70 19
3 23 19 70
3 24 88 58
3 24 58 88
3 25 1 59
3 25 59 1
3 25 59 89
3 25 89 59
3 25 89 21
3 25 21 89
3 26 22 53
3 26 53 22
3 26 53 108
3 26 108 53
3 26 108 3
3 26 3 108
3 27 23 54
3 27 54 23
3 27 54 109
3 27 109 54
3 28 1 99
3 28 99 1
3 29 92 4
3 29 4 92
3 30 34 39
3 30 39 34
3 30 57 152
3 30 152 57
3 30 60 39
3 30 39 60
3 30 60 41
3 30 41 60
3 30 148 57
3 30 57 148
3 30 148 119
3 30 119 148
3 30 152 34
3 30 34 152
3 31 35 2
3 31 2 35
3 31 44 35
3 31 35 44
3 31 44 67
3 31 67 44
3 32 36 5
3 32 5 36
3 33 40 128
3 33 128 40
3 33 68 8
3 33 8 68
3 33 68 40
3 33 40 68
3 33 79 16
3 33 16 79
3 33 151 79
3 33 79 151
3 34 39 114
3 34 114 39
3 35 39 51
3 35 51 39
3 35 44 51
3 35 51 44
3 35 114 39
3 35 39 114
3 36 43 50
3 36 50 43
3 36 68 5
3 36 5 68
3 37 7 32
3 37 32 7
3 37 15 78
3 37 78 15
3 37 32 64
3 37 64 32
3 37 62 47
3 37 47 62
3 37 106 62
3 37 62 106
3 38 117 126
3 38 126 117
3 38 139 110
3 38 110 139
3 38 149 117
3 38 117 149
3 40 36 68
3 40 68 36
3 40 50 36
3 40 36 50
3 40 61 128
3 40 128 61
3 41 124 86
3 41 86 124
3 42 61 128
3 42 128 61
3 42 87 61
3 42 61 87
3 42 94 119
3 42 119 94
3 42 94 125
3 42 125 94
3 42 119 128
3 42 128 119
3 42 125 87
3 42 87 125
3 43 32 36
3 43 36 32
3 43 64 48
3 43 48 64
3 43 65 50
3 43 50 65
3 45 38 120
3 45 120 38
3 45 110 38
3 45 38 110
3 45 111 110
3 45 110 111
3 45 118 150
3 45 150 118
3 45 120 121
3 45 121 120
3 45 127 118
3 45 118 127
3 45 150 121
3 45 121 150
3 46 122 141
3 46 141 122
3 46 131 122
3 46 122 131
3 46 146 147
3 46 147 146
3 46 147 55
3 46 55 147
3 47 48 64
3 47 64 48
3 47 49 52
3 47 52 49
3 47 52 48
3 47 48 52
3 47 64 37
3 47 37 64
3 47 67 49
3 47 49 67
3 48 65 43
3 48 43 65
3 48 71 52
3 48 52 71
3 49 66 72
3 49 72 66
3 49 72 52
3 49 52 72
3 50 40 61
3 50 61 40
3 50 61 75
3 50 75 61
3 51 60 76
3 51 76 60
3 51 76 66
3 51 66 76
3 53 90 108
3 53 108 90
3 53 102 69
3 53 69 102
3 53 102 73
3 53 73 102
3 54 90 74
3 54 74 90
3 54 109 90
3 54 90 109
3 55 57 138
3 55 138 57
3 55 123 132
3 55 132 123
3 55 130 136
3 55 136 130
3 55 132 57
3 55 57 132
3 55 137 46
3 55 46 137
3 55 138 137
3 55 137 138
3 55 142 123
3 55 123 142
3 55 142 130
3 55 130 142
3 56 93 124
3 56 124 93
3 56 116 145
3 56 145 116
3 56 133 93
3 56 93 133
3 56 144 116
3 56 116 144
3 56 145 115
3 56 115 145
3 56 153 143
3 56 143 153
3 57 79 151
3 57 151 79
3 57 80 132
3 57 132 80
3 57 128 151
3 57 151 128
3 57 131 79
3 57 79 131
3 57 152 80
3 57 80 152
3 58 88 104
3 58 104 88
3 58 104 99
3 58 99 104
3 59 89 105
3 59 105 89
3 60 51 39
3 60 39 51
3 62 120 149
3 62 149 120
3 62 121 120
3 62 120 121
3 62 121 150
3 62 150 121
3 63 10 14
3 63 14 10
3 63 47 62
3 63 62 47
3 63 62 107
3 63 107 62
3 63 67 31
3 63 31 67
3 63 67 47
3 63 47 67
3 63 107 77
3 63 77 107
3 64 43 32
3 64 32 43
3 65 71 48
3 65 48 71
3 65 71 97
3 65 97 71
3 65 75 50
3 65 50 75
3 65 97 75
3 65 75 97
3 66 44 49
3 66 49 44
3 66 51 44
3 66 44 51
3 66 72 98
3 66 98 72
3 66 76 98
3 66 98 76
3 67 44 49
3 67 49 44
3 70 54 103
3 70 103 54
3 71 81 115
3 71 115 81
3 71 97 115
3 71 115 97
3 72 81 52
3 72 52 81
3 73 53 90
3 73 90 53
3 73 102 139
3 73 139 102
3 74 54 103
3 74 103 54
3 74 73 90
3 74 90 73
3 74 73 110
3 74 110 73
3 74 103 140
3 74 140 103
3 74 110 111
3 74 111 110
3 75 61 87
3 75 87 61
3 75 87 112
3 75 112 87
3 76 86 60
3 76 60 86
3 76 113 98
3 76 98 113
3 78 85 19
3 78 19 85
3 78 106 37
3 78 37 106
3 79 82 122
3 79 122 82
3 79 131 122
3 79 122 131
3 80 152 34
3 80 34 152
3 81 71 52
3 81 52 71
3 81 72 116
3 81 116 72
3 81 115 145
3 81 145 115
3 82 16 20
3 82 20 16
3 82 20 95
3 82 95 20
3 82 95 122
3 82 122 95
3 83 96 123
3 83 123 96
3 83 123 80
3 83 80 123
3 84 69 18
3 84 18 69
3 84 69 102
3 84 102 69
3 84 102 126
3 84 126 102
3 84 117 77
3 84 77 117
3 84 117 126
3 84 126 117
3 85 78 118
3 85 118 78
3 85 103 70
3 85 70 103
3 85 118 127
3 85 127 118
3 85 127 103
3 85 103 127
3 86 41 60
3 86 60 41
3 86 113 124
3 86 124 113
3 88 24 20
3 88 20 24
3 88 95 20
3 88 20 95
3 88 129 95
3 88 95 129
3 89 21 96
3 89 96 21
3 89 130 96
3 89 96 130
3 90 91 108
3 90 108 91
3 91 90 92
3 91 92 90
3 92 91 29
3 92 29 91
3 93 119 94
3 93 94 119
3 94 93 133
3 94 133 93
3 94 133 134
3 94 134 133
3 95 141 122
3 95 122 141
3 95 141 129
3 95 129 141
3 96 83 21
3 96 21 83
3 96 130 142
3 96 142 130
3 96 142 123
3 96 123 142
3 97 75 112
3 97 112 75
3 97 143 112
3 97 112 143
3 98 72 116
3 98 116 72
3 98 116 144
3 98 144 116
3 99 59 105
3 99 105 59
3 99 100 101
3 99 101 100
3 99 101 105
3 99 105 101
3 99 104 100
3 99 100 104
3 100 135 104
3 100 104 135
3 101 100 146
3 101 146 100
3 101 105 136
3 101 136 105
3 101 146 147
3 101 147 146
3 102 139 126
3 102 126 139
3 104 88 129
3 104 129 88
3 104 129 135
3 104 135 129
3 105 89 130
3 105 130 89
3 106 118 78
3 106 78 118
3 106 150 62
3 106 62 150
3 106 150 118
3 106 118 150
3 107 62 149
3 107 149 62
3 107 117 77
3 107 77 117
3 107 149 117
3 107 117 149
3 109 4 92
3 109 92 4
3 109 92 90
3 109 90 92
3 111 45 140
3 111 140 45
3 112 125 153
3 112 153 125
3 112 153 143
3 112 143 153
3 113 86 76
3 113 76 86
3 113 144 98
3 113 98 144
3 113 154 124
3 113 124 154
3 113 154 144
3 113 144 154
3 114 34 9
3 114 9 34
3 115 56 143
3 115 143 56
3 115 97 143
3 115 143 97
3 119 41 30
3 119 30 41
3 119 93 41
3 119 41 93
3 119 148 128
3 119 128 148
3 124 41 93
3 124 93 41
3 124 154 56
3 124 56 154
3 125 94 134
3 125 134 94
3 125 112 87
3 125 87 112
3 125 134 56
3 125 56 134
3 126 139 38
3 126 38 139
3 128 33 151
3 128 151 33
3 128 57 148
3 128 148 57
3 129 135 46
3 129 46 135
3 130 136 105
3 130 105 136
3 131 46 137
3 131 137 46
3 131 137 57
3 131 57 137
3 132 123 80
3 132 80 123
3 134 133 56
3 134 56 133
3 135 46 146
3 135 146 46
3 135 146 100
3 135 100 146
3 136 55 147
3 136 147 55
3 136 147 101
3 136 101 147
3 137 138 57
3 137 57 138
3 139 110 73
3 139 73 110
3 140 111 74
3 140 74 111
3 140 127 45
3 140 45 127
3 140 127 103
3 140 103 127
3 141 129 46
3 141 46 129
3 145 116 81
3 145 81 116
3 149 38 120
3 149 120 38
3 153 125 56
3 153 56 125
3 154 56 144
3 154 144 56
