# Generated by dad_to_polygons. Vertex data from Humppa's .off file,
# polygons parsed from .dad file.
COFF
27 72 27
-3.780427 0.650878 2.448012 0.500000 0.500000 0.500000 1.0
-3.780427 -0.650878 2.448012 0.500000 0.500000 0.500000 1.0
-0.024543 -1.389914 2.335886 0.500000 0.500000 0.500000 1.0
4.092077 -0.641857 2.465322 0.500000 0.500000 0.500000 1.0
4.092077 0.641857 2.465322 0.500000 0.500000 0.500000 1.0
-0.024543 1.389914 2.335886 0.500000 0.500000 0.500000 1.0
0.938514 -1.097774 2.351954 0.500000 0.500000 0.500000 1.0
0.938514 1.097774 2.351954 0.500000 0.500000 0.500000 1.0
-0.988685 1.087804 2.354132 0.500000 0.500000 0.500000 1.0
-0.988685 -1.087804 2.354132 0.500000 0.500000 0.500000 1.0
1.897462 -0.891187 2.545626 0.500000 0.500000 0.500000 1.0
1.897462 0.891187 2.545626 0.500000 0.500000 0.500000 1.0
-1.957840 0.897778 2.505736 0.500000 0.500000 0.500000 1.0
-1.957840 -0.897778 2.505736 0.500000 0.500000 0.500000 1.0
2.931861 -0.768240 2.500843 0.500000 0.500000 0.500000 1.0
2.931861 0.768240 2.500843 0.500000 0.500000 0.500000 1.0
-1.646298 0.760733 1.792518 0.500000 0.500000 0.500000 1.0
-1.646298 -0.760733 1.792518 0.500000 0.500000 0.500000 1.0
1.718558 0.753025 1.803653 0.500000 0.500000 0.500000 1.0
2.962901 -0.631014 1.882371 0.500000 0.500000 0.500000 1.0
2.962901 0.631014 1.882371 0.500000 0.500000 0.500000 1.0
-2.844125 0.658141 1.924141 0.500000 0.500000 0.500000 1.0
-2.844125 -0.658141 1.924141 0.500000 0.500000 0.500000 1.0
0.001068 -0.000000 1.038258 1.0 1.0 0.0 1.0
1.718558 -0.753025 1.803653 0.500000 0.500000 0.500000 1.0
0.875282 0.382464 1.412961 0.500000 0.500000 0.500000 1.0
0.875282 -0.382464 1.412961 0.500000 0.500000 0.500000 1.0
3 0 21 22
3 0 22 21
3 0 22 1
3 0 1 22
3 4 3 19
3 4 19 3
3 4 19 20
3 4 20 19
3 6 2 23
3 6 23 2
3 6 23 26
3 6 26 23
3 6 26 24
3 6 24 26
3 7 5 23
3 7 23 5
3 8 5 23
3 8 23 5
3 8 16 12
3 8 12 16
3 9 13 17
3 9 17 13
3 9 17 23
3 9 23 17
3 11 15 18
3 11 18 15
3 11 18 7
3 11 7 18
3 12 16 21
3 12 21 16
3 12 21 0
3 12 0 21
3 13 1 22
3 13 22 1
3 13 22 17
3 13 17 22
3 14 19 3
3 14 3 19
3 14 24 10
3 14 10 24
3 14 24 19
3 14 19 24
3 15 18 20
3 15 20 18
3 17 16 21
3 17 21 16
3 17 21 22
3 17 22 21
3 18 19 24
3 18 24 19
3 18 20 19
3 18 19 20
3 18 23 7
3 18 7 23
3 18 24 26
3 18 26 24
3 18 25 23
3 18 23 25
3 18 26 25
3 18 25 26
3 20 15 4
3 20 4 15
3 23 2 9
3 23 9 2
3 23 8 16
3 23 16 8
3 23 17 16
3 23 16 17
3 23 26 25
3 23 25 26
3 24 10 6
3 24 6 10
