 COFF
          37         264          37
  
  -4.2519138196967434       0.67849182742450209        2.8249622492155964       0.60000002384185791       0.60000002384185791       0.60000002384185791       0.80000001192092896     
  -4.2519138196967434      -0.67849182742450209        2.8249622492155964       0.60000002384185791       0.60000002384185791       0.60000002384185791       0.80000001192092896     
  -2.5285637614568351E-002  -1.4949169877966750        2.6463330686863427       0.60000002384185791       0.60000002384185791       0.60000002384185791       0.80000001192092896     
   4.5771458318190383      -0.66607949702243374        2.8483313733295343       0.60000002384185791       0.60000002384185791       0.60000002384185791       0.80000001192092896     
   4.5771458318190383       0.66607949702243374        2.8483313733295343       0.60000002384185791       0.60000002384185791       0.60000002384185791       0.80000001192092896     
  -2.5285637614568347E-002   1.4949169877966750        2.6463330686863427       0.60000002384185791       0.60000002384185791       0.60000002384185791       0.80000001192092896     
  0.96483479073265355       -1.2120500912932797        2.7217650062079035       0.60000002384185791       0.60000002384185791       0.60000002384185791       0.80000001192092896     
  0.96483479073265355        1.2120500912932797        2.7217650062079035       0.60000002384185791       0.60000002384185791       0.60000002384185791       0.80000001192092896     
  -1.0061659004532522        1.1949435988927783        2.7059181168792743       0.60000002384185791       0.60000002384185791       0.60000002384185791       0.80000001192092896     
  -1.0061659004532517       -1.1949435988927783        2.7059181168792743       0.60000002384185791       0.60000002384185791       0.60000002384185791       0.80000001192092896     
   1.9084310660700763      -0.94499068925806173        2.9176991620590638       0.60000002384185791       0.60000002384185791       0.60000002384185791       0.80000001192092896     
   1.9084310660700763       0.94499068925806173        2.9176991620590638       0.60000002384185791       0.60000002384185791       0.60000002384185791       0.80000001192092896     
  -1.9598163291791857       0.95679956102680841        2.8886140301293022       0.60000002384185791       0.60000002384185791       0.60000002384185791       0.80000001192092896     
  -1.9598163291791852      -0.95679956102680841        2.8886140301293022       0.60000002384185791       0.60000002384185791       0.60000002384185791       0.80000001192092896     
   3.0090339591148063      -0.81402975449311732        2.8824481247223326       0.60000002384185791       0.60000002384185791       0.60000002384185791       0.80000001192092896     
   3.0090339591148063       0.81402975449311732        2.8824481247223326       0.60000002384185791       0.60000002384185791       0.60000002384185791       0.80000001192092896     
  -2.9698190302202594       0.82293301882048719        2.8498464854543792       0.60000002384185791       0.60000002384185791       0.60000002384185791       0.80000001192092896     
  -2.9698190302202589      -0.82293301882048719        2.8498464854543792       0.60000002384185791       0.60000002384185791       0.60000002384185791       0.80000001192092896     
   1.9757294705706954       0.81240762797120503        2.1103328473367480       0.60000002384185791       0.60000002384185791       0.60000002384185791       0.80000001192092896     
   3.2086607302160490      -0.67228797599994483        2.2149480998208935       0.60000002384185791       0.60000002384185791       0.60000002384185791       0.80000001192092896     
   3.2086607302160490       0.67228797599994483        2.2149480998208935       0.60000002384185791       0.60000002384185791       0.60000002384185791       0.80000001192092896     
  -3.1473939864148819       0.68185959508270089        2.1857365187849265       0.60000002384185791       0.60000002384185791       0.60000002384185791       0.80000001192092896     
  -3.1473939864148819      -0.68185959508270089        2.1857365187849265       0.60000002384185791       0.60000002384185791       0.60000002384185791       0.80000001192092896     
  -8.0214115482657340E-003  -2.5736578447461282E-017   1.0382578837327854        1.0000000000000000        1.0000000000000000        0.0000000000000000        1.0000000000000000     
   1.9757294705706951      -0.81240762797120514        2.1103328473367480       0.60000002384185791       0.60000002384185791       0.60000002384185791       0.80000001192092896     
   1.0297000496014876       0.64584350554057945        1.5488733967427115       0.60000002384185791       0.60000002384185791       0.60000002384185791       0.80000001192092896     
   1.0297000496014879      -0.64584350554057945        1.5488733967427115       0.60000002384185791       0.60000002384185791       0.60000002384185791       0.80000001192092896     
 -0.62683044181107506       0.93701694767233923        1.9703207254572757       0.60000002384185791       0.60000002384185791       0.60000002384185791       0.80000001192092896     
 -0.62683044181107472      -0.93701694767233923        1.9703207254572757       0.60000002384185791       0.60000002384185791       0.60000002384185791       0.80000001192092896     
  -1.3479492750515938       0.46641899551043903        1.4446596441907298       0.60000002384185791       0.60000002384185791       0.60000002384185791       0.80000001192092896     
  -1.3479492750515938      -0.46641899551043903        1.4446596441907298       0.60000002384185791       0.60000002384185791       0.60000002384185791       0.80000001192092896     
  0.68964920870376267      -0.85202518579345665        1.8582124876126118       0.60000002384185791       0.60000002384185791       0.60000002384185791       0.80000001192092896     
  0.68964920870376278       0.85202518579345654        1.8582124876126112       0.60000002384185791       0.60000002384185791       0.60000002384185791       0.80000001192092896     
  -1.9054421622624529       0.82618479198948913        2.0939160183222381       0.60000002384185791       0.60000002384185791       0.60000002384185791       0.80000001192092896     
  -1.9054421622624529      -0.82618479198948913        2.0939160183222381       0.60000002384185791       0.60000002384185791       0.60000002384185791       0.80000001192092896     
  -3.7858713073725701E-002 -0.93934052020965664        1.8550739170631094       0.60000002384185791       0.60000002384185791       0.60000002384185791       0.80000001192092896     
  -3.7858713073725694E-002  0.93934052020965664        1.8550739170631092       0.60000002384185791       0.60000002384185791       0.60000002384185791       0.80000001192092896     
  
   3   0  16  21
   3   0  21  16
   4   0  21  22   1
   3   1  22  17
   4   1  22  21   0
   3   1  17  22
   3   2  35  28
   3   2  35  31
   3   2  31  35
   3   2  31   6
   3   2   6  31
   3   2   9  28
   3   2  28  35
   3   2  28   9
   3   3  14  19
   3   3  19  14
   4   3  19  20   4
   3   4  20  15
   4   4  20  19   3
   3   4  15  20
   3   5   7  32
   3   5  32  36
   3   5  32   7
   3   5  36  32
   3   5  36  27
   3   5  27  36
   3   5  27   8
   3   5   8  27
   3   6   2  31
   3   6  31   2
   3   6  31  24
   3   6  24  10
   3   6  24  31
   3   6  10  24
   3   7  11  18
   3   7  18  32
   3   7  18  11
   3   7  32  18
   3   7  32   5
   3   7   5  32
   3   8   5  27
   3   8  27   5
   3   8  27  33
   3   8  33  12
   3   8  33  27
   3   8  12  33
   3   9  13  34
   3   9  34  28
   3   9  34  13
   3   9  28  34
   3   9  28   2
   3   9   2  28
   3  10   6  24
   3  10  24  14
   3  10  24   6
   3  10  14  24
   3  11  15  18
   3  11  18   7
   3  11  18  15
   3  11   7  18
   3  12   8  33
   3  12  33  16
   3  12  33   8
   3  12  16  33
   3  13  17  34
   3  13  34   9
   3  13  34  17
   3  13   9  34
   3  14  10  24
   3  14  24  19
   3  14  24  10
   3  14  19   3
   3  14  19  24
   3  14   3  19
   3  15   4  20
   3  15  20   4
   3  15  20  18
   3  15  18  20
   3  15  18  11
   3  15  11  18
   3  16  12  33
   3  16  33  21
   3  16  33  12
   3  16  21   0
   3  16  21  33
   3  16   0  21
   3  17   1  22
   3  17  22   1
   3  17  22  34
   3  17  34  22
   3  17  34  13
   3  17  13  34
   3  18  20  15
   4  18  20  19  24
   3  18  25  32
   4  18  25  26  24
   3  18  32  25
   3  18  32   7
   3  18   7  11
   3  18   7  32
   3  18  11  15
   3  18  11   7
   3  18  15  20
   3  18  15  11
   3  19   3  14
   4  19   3   4  20
   3  19  14  24
   3  19  14   3
   3  19  24  14
   4  19  24  18  20
   3  20   4  15
   4  20   4   3  19
   3  20  18  15
   4  20  18  24  19
   3  20  15   4
   3  20  15  18
   3  21   0  16
   4  21   0   1  22
   3  21  16  33
   3  21  16   0
   3  21  33  16
   4  21  33  34  22
   3  22   1  17
   4  22   1   0  21
   3  22  34  17
   4  22  34  33  21
   3  22  17   1
   3  22  17  34
   3  23  36  32
   3  23  36  27
   3  23  32  25
   3  23  32  36
   3  23  25  26
   3  23  25  32
   3  23  26  25
   3  23  26  31
   3  23  31  35
   3  23  31  26
   3  23  35  28
   3  23  35  31
   3  23  28  35
   4  23  28  34  30
   3  23  30  29
   4  23  30  34  28
   3  23  29  30
   4  23  29  33  27
   3  23  27  36
   4  23  27   5  32
   3  24  19  14
   4  24  19  20  18
   3  24  14  10
   3  24  14  19
   3  24  10   6
   3  24  10  14
   3  24   6  31
   3  24   6  10
   3  24  31  26
   3  24  31   6
   3  24  26  31
   4  24  26  25  18
   3  25  18  32
   4  25  18  24  26
   3  25  26  23
   4  25  26  24  18
   3  25  23  32
   3  25  23  26
   3  25  32  18
   3  25  32  23
   3  26  23  25
   3  26  23  31
   3  26  25  23
   4  26  25  18  24
   3  26  24  31
   4  26  24  18  25
   3  26  31  23
   3  26  31  24
   3  27   5  36
   3  27   5   8
   3  27  36  23
   3  27  36   5
   3  27  23  36
   4  27  23  32   5
   3  27  33   8
   4  27  33  29  23
   3  27   8   5
   3  27   8  33
   3  28  34   9
   4  28  34  30  23
   3  28  23  35
   4  28  23  31   2
   3  28  35  23
   3  28  35   2
   3  28   2  35
   3  28   2   9
   3  28   9  34
   3  28   9   2
   3  29  23  30
   4  29  23  27  33
   3  29  30  23
   4  29  30  34  33
   3  30  29  23
   4  30  29  33  34
   3  30  23  29
   4  30  23  28  34
   3  31   2  35
   3  31   2   6
   3  31  35  23
   3  31  35   2
   3  31  23  26
   3  31  23  35
   3  31  26  23
   3  31  26  24
   3  31  24   6
   3  31  24  26
   3  31   6   2
   3  31   6  24
   3  32  18  25
   3  32  18   7
   3  32  25  18
   3  32  25  23
   3  32  23  36
   3  32  23  25
   3  32  36  23
   3  32  36   5
   3  32   5   7
   3  32   5  36
   3  32   7  18
   3  32   7   5
   3  33  21  16
   4  33  21  22  34
   3  33  16  12
   3  33  16  21
   3  33  12   8
   3  33  12  16
   3  33   8  27
   3  33   8  12
   3  33  27   8
   4  33  27  23  29
   3  34  22  17
   4  34  22  21  33
   3  34  28   9
   4  34  28  23  30
   3  34   9  13
   3  34   9  28
   3  34  13  17
   3  34  13   9
   3  34  17  22
   3  34  17  13
   3  35  28  23
   3  35  28   2
   3  35  23  31
   3  35  23  28
   3  35  31   2
   3  35  31  23
   3  35   2  31
   3  35   2  28
   3  36  32  23
   3  36  32   5
   3  36  23  32
   3  36  23  27
   3  36  27   5
   3  36  27  23
   3  36   5  32
   3  36   5  27
