# Generated by dad_to_polygons. Vertex data from Humppa's .off file,
# polygons parsed from .dad file.
COFF
37 108 37
-4.635319 0.701349 3.208496 0.500000 0.500000 0.500000 1.0
-4.635319 -0.701349 3.208496 0.500000 0.500000 0.500000 1.0
-0.026105 -1.579154 2.975162 0.500000 0.500000 0.500000 1.0
4.972092 -0.685992 3.237114 0.500000 0.500000 0.500000 1.0
4.972092 0.685992 3.237114 0.500000 0.500000 0.500000 1.0
-0.026105 1.579154 2.975162 0.500000 0.500000 0.500000 1.0
0.986156 -1.288553 3.094562 0.500000 0.500000 0.500000 1.0
0.986156 1.288553 3.094562 0.500000 0.500000 0.500000 1.0
-1.035574 1.271093 3.063513 0.500000 0.500000 0.500000 1.0
-1.035574 -1.271093 3.063513 0.500000 0.500000 0.500000 1.0
1.921660 -0.989255 3.289264 0.500000 0.500000 0.500000 1.0
1.921660 0.989255 3.289264 0.500000 0.500000 0.500000 1.0
-1.979954 1.004628 3.255823 0.500000 0.500000 0.500000 1.0
-1.979954 -1.004628 3.255823 0.500000 0.500000 0.500000 1.0
3.051197 -0.851932 3.293506 0.500000 0.500000 0.500000 1.0
3.051197 0.851932 3.293506 0.500000 0.500000 0.500000 1.0
-2.993515 0.866567 3.238993 0.500000 0.500000 0.500000 1.0
-2.993515 -0.866567 3.238993 0.500000 0.500000 0.500000 1.0
2.104140 0.864710 2.415658 0.500000 0.500000 0.500000 1.0
3.406670 -0.708958 2.578608 0.500000 0.500000 0.500000 1.0
3.406670 0.708958 2.578608 0.500000 0.500000 0.500000 1.0
-3.331502 0.721432 2.547929 0.500000 0.500000 0.500000 1.0
-3.331502 -0.721432 2.547929 0.500000 0.500000 0.500000 1.0
-0.025233 -0.000000 1.038258 1.0 1.0 0.0 1.0
2.104140 -0.864710 2.415658 0.500000 0.500000 0.500000 1.0
1.162574 0.838641 1.768180 0.500000 0.500000 0.500000 1.0
1.162574 -0.838641 1.768180 0.500000 0.500000 0.500000 1.0
-0.814732 1.130640 2.246274 0.500000 0.500000 0.500000 1.0
-0.814732 -1.130640 2.246274 0.500000 0.500000 0.500000 1.0
-1.675755 0.603671 1.582649 0.500000 0.500000 0.500000 1.0
-1.675755 -0.603671 1.582649 0.500000 0.500000 0.500000 1.0
0.839883 -1.055313 2.121316 0.500000 0.500000 0.500000 1.0
0.839883 1.055313 2.121316 0.500000 0.500000 0.500000 1.0
-2.084988 0.874505 2.397282 0.500000 0.500000 0.500000 1.0
-2.084988 -0.874505 2.397282 0.500000 0.500000 0.500000 1.0
-0.039680 -1.173369 2.094482 0.500000 0.500000 0.500000 1.0
-0.039680 1.173369 2.094482 0.500000 0.500000 0.500000 1.0
3 0 21 22
3 0 22 21
3 0 22 1
3 0 1 22
3 1 22 17
3 1 17 22
3 2 28 35
3 2 35 28
3 2 31 35
3 2 35 31
3 3 4 20
3 3 20 4
3 3 20 19
3 3 19 20
3 5 7 32
3 5 32 7
3 5 36 27
3 5 27 36
3 7 18 32
3 7 32 18
3 8 27 5
3 8 5 27
3 8 33 12
3 8 12 33
3 9 28 2
3 9 2 28
3 10 6 24
3 10 24 6
3 10 24 14
3 10 14 24
3 11 18 7
3 11 7 18
3 12 16 33
3 12 33 16
3 13 34 17
3 13 17 34
3 14 19 3
3 14 3 19
3 15 4 20
3 15 20 4
3 15 18 11
3 15 11 18
3 15 18 20
3 15 20 18
3 16 0 21
3 16 21 0
3 16 21 33
3 16 33 21
3 18 24 26
3 18 26 24
3 18 26 25
3 18 25 26
3 20 18 24
3 20 24 18
3 20 24 19
3 20 19 24
3 21 22 34
3 21 34 22
3 21 34 33
3 21 33 34
3 22 17 34
3 22 34 17
3 23 25 26
3 23 26 25
3 23 26 31
3 23 31 26
3 23 29 33
3 23 33 29
3 23 30 34
3 23 34 30
3 23 31 35
3 23 35 31
3 23 32 25
3 23 25 32
3 23 33 27
3 23 27 33
3 23 34 28
3 23 28 34
3 23 36 32
3 23 32 36
3 24 14 19
3 24 19 14
3 24 31 26
3 24 26 31
3 25 32 18
3 25 18 32
3 27 8 33
3 27 33 8
3 27 23 36
3 27 36 23
3 28 23 35
3 28 35 23
3 28 34 9
3 28 9 34
3 29 23 30
3 29 30 23
3 29 33 34
3 29 34 33
3 29 34 30
3 29 30 34
3 31 2 6
3 31 6 2
3 31 24 6
3 31 6 24
3 34 9 13
3 34 13 9
3 36 5 32
3 36 32 5
