 COFF
          37         264          37
  
  -4.6353194047241582       0.70134910032588982        3.2084964028274006       0.60000002384185791       0.60000002384185791       0.60000002384185791       0.80000001192092896     
  -4.6353194047241582      -0.70134910032588982        3.2084964028274006       0.60000002384185791       0.60000002384185791       0.60000002384185791       0.80000001192092896     
  -2.6105165766995557E-002  -1.5791544431332094        2.9751618119170691       0.60000002384185791       0.60000002384185791       0.60000002384185791       0.80000001192092896     
   4.9720916653341556      -0.68599249546099994        3.2371138795156882       0.60000002384185791       0.60000002384185791       0.60000002384185791       0.80000001192092896     
   4.9720916653341556       0.68599249546099994        3.2371138795156882       0.60000002384185791       0.60000002384185791       0.60000002384185791       0.80000001192092896     
  -2.6105165766995547E-002   1.5791544431332094        2.9751618119170691       0.60000002384185791       0.60000002384185791       0.60000002384185791       0.80000001192092896     
  0.98615594404654072       -1.2885532278508112        3.0945615133063886       0.60000002384185791       0.60000002384185791       0.60000002384185791       0.80000001192092896     
  0.98615594404654072        1.2885532278508112        3.0945615133063886       0.60000002384185791       0.60000002384185791       0.60000002384185791       0.80000001192092896     
  -1.0355739838936575        1.2710926443227732        3.0635130405496711       0.60000002384185791       0.60000002384185791       0.60000002384185791       0.80000001192092896     
  -1.0355739838936571       -1.2710926443227732        3.0635130405496711       0.60000002384185791       0.60000002384185791       0.60000002384185791       0.80000001192092896     
   1.9216599362522320      -0.98925464571876975        3.2892638595628791       0.60000002384185791       0.60000002384185791       0.60000002384185791       0.80000001192092896     
   1.9216599362522320       0.98925464571876953        3.2892638595628791       0.60000002384185791       0.60000002384185791       0.60000002384185791       0.80000001192092896     
  -1.9799541554903506        1.0046276254644884        3.2558230700935153       0.60000002384185791       0.60000002384185791       0.60000002384185791       0.80000001192092896     
  -1.9799541554903501       -1.0046276254644884        3.2558230700935153       0.60000002384185791       0.60000002384185791       0.60000002384185791       0.80000001192092896     
   3.0511969778221859      -0.85193175592454273        3.2935061725714987       0.60000002384185791       0.60000002384185791       0.60000002384185791       0.80000001192092896     
   3.0511969778221868       0.85193175592454273        3.2935061725714978       0.60000002384185791       0.60000002384185791       0.60000002384185791       0.80000001192092896     
  -2.9935152801100107       0.86656668460913944        3.2389925384665816       0.60000002384185791       0.60000002384185791       0.60000002384185791       0.80000001192092896     
  -2.9935152801100098      -0.86656668460913944        3.2389925384665825       0.60000002384185791       0.60000002384185791       0.60000002384185791       0.80000001192092896     
   2.1041397088930416       0.86470982777690530        2.4156582659242591       0.60000002384185791       0.60000002384185791       0.60000002384185791       0.80000001192092896     
   3.4066701546115210      -0.70895837806518380        2.5786080300486529       0.60000002384185791       0.60000002384185791       0.60000002384185791       0.80000001192092896     
   3.4066701546115210       0.70895837806518380        2.5786080300486529       0.60000002384185791       0.60000002384185791       0.60000002384185791       0.80000001192092896     
  -3.3315020710366876       0.72143220784969420        2.5479289361130601       0.60000002384185791       0.60000002384185791       0.60000002384185791       0.80000001192092896     
  -3.3315020710366876      -0.72143220784969420        2.5479289361130601       0.60000002384185791       0.60000002384185791       0.60000002384185791       0.80000001192092896     
  -2.5232835977413194E-002  -2.7384802950119625E-017   1.0382578837327854        1.0000000000000000        1.0000000000000000        0.0000000000000000        1.0000000000000000     
   2.1041397088930411      -0.86470982777690530        2.4156582659242596       0.60000002384185791       0.60000002384185791       0.60000002384185791       0.80000001192092896     
   1.1625738197226738       0.83864069008276321        1.7681801814856724       0.60000002384185791       0.60000002384185791       0.60000002384185791       0.80000001192092896     
   1.1625738197226740      -0.83864069008276310        1.7681801814856724       0.60000002384185791       0.60000002384185791       0.60000002384185791       0.80000001192092896     
 -0.81473233946459245        1.1306403874221393        2.2462737262544099       0.60000002384185791       0.60000002384185791       0.60000002384185791       0.80000001192092896     
 -0.81473233946459211       -1.1306403874221393        2.2462737262544099       0.60000002384185791       0.60000002384185791       0.60000002384185791       0.80000001192092896     
  -1.6757554079159511       0.60367125722990778        1.5826489313933918       0.60000002384185791       0.60000002384185791       0.60000002384185791       0.80000001192092896     
  -1.6757554079159511      -0.60367125722990767        1.5826489313933918       0.60000002384185791       0.60000002384185791       0.60000002384185791       0.80000001192092896     
  0.83988268972736313       -1.0553132805419485        2.1213156657576091       0.60000002384185791       0.60000002384185791       0.60000002384185791       0.80000001192092896     
  0.83988268972736324        1.0553132805419483        2.1213156657576082       0.60000002384185791       0.60000002384185791       0.60000002384185791       0.80000001192092896     
  -2.0849879967865719       0.87450517127181127        2.3972819161033745       0.60000002384185791       0.60000002384185791       0.60000002384185791       0.80000001192092896     
  -2.0849879967865719      -0.87450517127181127        2.3972819161033749       0.60000002384185791       0.60000002384185791       0.60000002384185791       0.80000001192092896     
  -3.9680116519222743E-002  -1.1733689757870998        2.0944815025743337       0.60000002384185791       0.60000002384185791       0.60000002384185791       0.80000001192092896     
  -3.9680116519222729E-002   1.1733689757870998        2.0944815025743333       0.60000002384185791       0.60000002384185791       0.60000002384185791       0.80000001192092896     
  
   3   0  16  21
   3   0  21  16
   4   0  21  22   1
   3   1  22  17
   4   1  22  21   0
   3   1  17  22
   3   2  35  28
   3   2  35  31
   3   2  31  35
   3   2  31   6
   3   2   6  31
   3   2   9  28
   3   2  28  35
   3   2  28   9
   3   3  14  19
   3   3  19  14
   4   3  19  20   4
   3   4  20  15
   4   4  20  19   3
   3   4  15  20
   3   5   7  32
   3   5  32  36
   3   5  32   7
   3   5  36  32
   3   5  36  27
   3   5  27  36
   3   5  27   8
   3   5   8  27
   3   6   2  31
   3   6  31   2
   3   6  31  24
   3   6  24  10
   3   6  24  31
   3   6  10  24
   3   7  11  18
   3   7  18  32
   3   7  18  11
   3   7  32  18
   3   7  32   5
   3   7   5  32
   3   8   5  27
   3   8  27   5
   3   8  27  33
   3   8  33  12
   3   8  33  27
   3   8  12  33
   3   9  13  34
   3   9  34  28
   3   9  34  13
   3   9  28  34
   3   9  28   2
   3   9   2  28
   3  10   6  24
   3  10  24  14
   3  10  24   6
   3  10  14  24
   3  11  15  18
   3  11  18   7
   3  11  18  15
   3  11   7  18
   3  12   8  33
   3  12  33  16
   3  12  33   8
   3  12  16  33
   3  13  17  34
   3  13  34   9
   3  13  34  17
   3  13   9  34
   3  14  10  24
   3  14  24  19
   3  14  24  10
   3  14  19   3
   3  14  19  24
   3  14   3  19
   3  15   4  20
   3  15  20   4
   3  15  20  18
   3  15  18  20
   3  15  18  11
   3  15  11  18
   3  16  12  33
   3  16  33  21
   3  16  33  12
   3  16  21   0
   3  16  21  33
   3  16   0  21
   3  17   1  22
   3  17  22   1
   3  17  22  34
   3  17  34  22
   3  17  34  13
   3  17  13  34
   3  18  20  15
   4  18  20  19  24
   3  18  25  32
   4  18  25  26  24
   3  18  32  25
   3  18  32   7
   3  18   7  11
   3  18   7  32
   3  18  11  15
   3  18  11   7
   3  18  15  20
   3  18  15  11
   3  19   3  14
   4  19   3   4  20
   3  19  14  24
   3  19  14   3
   3  19  24  14
   4  19  24  18  20
   3  20   4  15
   4  20   4   3  19
   3  20  18  15
   4  20  18  24  19
   3  20  15   4
   3  20  15  18
   3  21   0  16
   4  21   0   1  22
   3  21  16  33
   3  21  16   0
   3  21  33  16
   4  21  33  34  22
   3  22   1  17
   4  22   1   0  21
   3  22  34  17
   4  22  34  33  21
   3  22  17   1
   3  22  17  34
   3  23  36  32
   3  23  36  27
   3  23  32  25
   3  23  32  36
   3  23  25  26
   3  23  25  32
   3  23  26  25
   3  23  26  31
   3  23  31  35
   3  23  31  26
   3  23  35  28
   3  23  35  31
   3  23  28  35
   4  23  28  34  30
   3  23  30  29
   4  23  30  34  28
   3  23  29  30
   4  23  29  33  27
   3  23  27  36
   4  23  27   5  32
   3  24  19  14
   4  24  19  20  18
   3  24  14  10
   3  24  14  19
   3  24  10   6
   3  24  10  14
   3  24   6  31
   3  24   6  10
   3  24  31  26
   3  24  31   6
   3  24  26  31
   4  24  26  25  18
   3  25  18  32
   4  25  18  24  26
   3  25  26  23
   4  25  26  24  18
   3  25  23  32
   3  25  23  26
   3  25  32  18
   3  25  32  23
   3  26  23  25
   3  26  23  31
   3  26  25  23
   4  26  25  18  24
   3  26  24  31
   4  26  24  18  25
   3  26  31  23
   3  26  31  24
   3  27   5  36
   3  27   5   8
   3  27  36  23
   3  27  36   5
   3  27  23  36
   4  27  23  32   5
   3  27  33   8
   4  27  33  29  23
   3  27   8   5
   3  27   8  33
   3  28  34   9
   4  28  34  30  23
   3  28  23  35
   4  28  23  31   2
   3  28  35  23
   3  28  35   2
   3  28   2  35
   3  28   2   9
   3  28   9  34
   3  28   9   2
   3  29  23  30
   4  29  23  27  33
   3  29  30  23
   4  29  30  34  33
   3  30  29  23
   4  30  29  33  34
   3  30  23  29
   4  30  23  28  34
   3  31   2  35
   3  31   2   6
   3  31  35  23
   3  31  35   2
   3  31  23  26
   3  31  23  35
   3  31  26  23
   3  31  26  24
   3  31  24   6
   3  31  24  26
   3  31   6   2
   3  31   6  24
   3  32  18  25
   3  32  18   7
   3  32  25  18
   3  32  25  23
   3  32  23  36
   3  32  23  25
   3  32  36  23
   3  32  36   5
   3  32   5   7
   3  32   5  36
   3  32   7  18
   3  32   7   5
   3  33  21  16
   4  33  21  22  34
   3  33  16  12
   3  33  16  21
   3  33  12   8
   3  33  12  16
   3  33   8  27
   3  33   8  12
   3  33  27   8
   4  33  27  23  29
   3  34  22  17
   4  34  22  21  33
   3  34  28   9
   4  34  28  23  30
   3  34   9  13
   3  34   9  28
   3  34  13  17
   3  34  13   9
   3  34  17  22
   3  34  17  13
   3  35  28  23
   3  35  28   2
   3  35  23  31
   3  35  23  28
   3  35  31   2
   3  35  31  23
   3  35   2  31
   3  35   2  28
   3  36  32  23
   3  36  32   5
   3  36  23  32
   3  36  23  27
   3  36  27   5
   3  36  27  23
   3  36   5  32
   3  36   5  27
