 COFF
          45         340          45
  
  -4.9663119293625009       0.72122694111428387        3.5958201652796382       0.60000002384185791       0.60000002384185791       0.60000002384185791       0.80000001192092896     
  -4.9663119293625009      -0.72122694111428387        3.5958201652796382       0.60000002384185791       0.60000002384185791       0.60000002384185791       0.80000001192092896     
  -2.6622546758166013E-002  -1.6572845355927996        3.3080809573230900       0.60000002384185791       0.60000002384185791       0.60000002384185791       0.80000001192092896     
   5.3078270715897009      -0.70303509936061115        3.6295686847400477       0.60000002384185791       0.60000002384185791       0.60000002384185791       0.80000001192092896     
   5.3078270715897009       0.70303509936061115        3.6295686847400477       0.60000002384185791       0.60000002384185791       0.60000002384185791       0.80000001192092896     
  -2.6622546758165996E-002   1.6572845355927996        3.3080809573230900       0.60000002384185791       0.60000002384185791       0.60000002384185791       0.80000001192092896     
   1.0044504569027728       -1.3471403590449356        3.4458834943946770       0.60000002384185791       0.60000002384185791       0.60000002384185791       0.80000001192092896     
   1.0044504569027728        1.3471403590449356        3.4458834943946770       0.60000002384185791       0.60000002384185791       0.60000002384185791       0.80000001192092896     
  -1.0554697670079343        1.3359503778844128        3.4098114338520742       0.60000002384185791       0.60000002384185791       0.60000002384185791       0.80000001192092896     
  -1.0554697670079338       -1.3359503778844128        3.4098114338520742       0.60000002384185791       0.60000002384185791       0.60000002384185791       0.80000001192092896     
   1.9308005542308382       -1.0297625333407170        3.6638058714714710       0.60000002384185791       0.60000002384185791       0.60000002384185791       0.80000001192092896     
   1.9308005542308382        1.0297625333407168        3.6638058714714710       0.60000002384185791       0.60000002384185791       0.60000002384185791       0.80000001192092896     
  -1.9909076428994021        1.0513752864983705        3.6234361507913881       0.60000002384185791       0.60000002384185791       0.60000002384185791       0.80000001192092896     
  -1.9909076428994019       -1.0513752864983705        3.6234361507913881       0.60000002384185791       0.60000002384185791       0.60000002384185791       0.80000001192092896     
   3.0740659038072469      -0.88603690612538688        3.6949426304436752       0.60000002384185791       0.60000002384185791       0.60000002384185791       0.80000001192092896     
   3.0740659038072469       0.88603690612538699        3.6949426304436748       0.60000002384185791       0.60000002384185791       0.60000002384185791       0.80000001192092896     
  -3.0133346365681932       0.90577286023525549        3.6305551117821495       0.60000002384185791       0.60000002384185791       0.60000002384185791       0.80000001192092896     
  -3.0133346365681923      -0.90577286023525549        3.6305551117821495       0.60000002384185791       0.60000002384185791       0.60000002384185791       0.80000001192092896     
   4.0846548073978441      -0.79539214941488312        3.6576512206369802       0.60000002384185791       0.60000002384185791       0.60000002384185791       0.80000001192092896     
   4.0846548073978441       0.79539214941488312        3.6576512206369793       0.60000002384185791       0.60000002384185791       0.60000002384185791       0.80000001192092896     
   3.6226555055514251       0.73265968197457443        2.9549104624438352       0.60000002384185791       0.60000002384185791       0.60000002384185791       0.80000001192092896     
  -3.4906092678118736       0.75641657653279282        2.9214651522283122       0.60000002384185791       0.60000002384185791       0.60000002384185791       0.80000001192092896     
  -3.4906092678118736      -0.75641657653279282        2.9214651522283122       0.60000002384185791       0.60000002384185791       0.60000002384185791       0.80000001192092896     
  -2.9091551629420599E-002  -3.1962948969190498E-017   1.0382578837327854        1.0000000000000000        1.0000000000000000        0.0000000000000000        1.0000000000000000     
   2.1971903476585513      -0.91234084498030776        2.7465736841929629       0.60000002384185791       0.60000002384185791       0.60000002384185791       0.80000001192092896     
   1.2831479465013540       0.97679549522498188        2.0312628723435839       0.60000002384185791       0.60000002384185791       0.60000002384185791       0.80000001192092896     
   1.2831479465013540      -0.97679549522498177        2.0312628723435839       0.60000002384185791       0.60000002384185791       0.60000002384185791       0.80000001192092896     
 -0.95516811559362225        1.2444138364233137        2.5568798107314206       0.60000002384185791       0.60000002384185791       0.60000002384185791       0.80000001192092896     
 -0.95516811559362191       -1.2444138364233137        2.5568798107314206       0.60000002384185791       0.60000002384185791       0.60000002384185791       0.80000001192092896     
  -1.7904059750773367       0.71347098948158238        1.7800718949478531       0.60000002384185791       0.60000002384185791       0.60000002384185791       0.80000001192092896     
  -1.7904059750773369      -0.71347098948158227        1.7800718949478531       0.60000002384185791       0.60000002384185791       0.60000002384185791       0.80000001192092896     
  0.95618657933925866       -1.1879878652401858        2.4221716143193044       0.60000002384185791       0.60000002384185791       0.60000002384185791       0.80000001192092896     
  0.95618657933925877        1.1879878652401856        2.4221716143193035       0.60000002384185791       0.60000002384185791       0.60000002384185791       0.80000001192092896     
  -2.1908846807351714       0.91933020605929561        2.7026056268613123       0.60000002384185791       0.60000002384185791       0.60000002384185791       0.80000001192092896     
  -2.1908846807351714      -0.91933020605929561        2.7026056268613119       0.60000002384185791       0.60000002384185791       0.60000002384185791       0.80000001192092896     
  -3.6241455081388312E-002  -1.3185136789171423        2.3616523256156912       0.60000002384185791       0.60000002384185791       0.60000002384185791       0.80000001192092896     
  -3.6241455081388270E-002   1.3185136789171421        2.3616523256156907       0.60000002384185791       0.60000002384185791       0.60000002384185791       0.80000001192092896     
   2.1971903476585521       0.91234084498030787        2.7465736841929620       0.60000002384185791       0.60000002384185791       0.60000002384185791       0.80000001192092896     
   3.6226555055514251      -0.73265968197457443        2.9549104624438352       0.60000002384185791       0.60000002384185791       0.60000002384185791       0.80000001192092896     
 -0.45791990178854519      -0.81167994355037787        1.8386736852302445       0.60000002384185791       0.60000002384185791       0.60000002384185791       0.80000001192092896     
 -0.45791990178854525       0.81167994355037798        1.8386736852302445       0.60000002384185791       0.60000002384185791       0.60000002384185791       0.80000001192092896     
  -1.0339570851584894      -0.34802657923382563        1.3793334228953031       0.60000002384185791       0.60000002384185791       0.60000002384185791       0.80000001192092896     
  -1.0339570851584892       0.34802657923382552        1.3793334228953031       0.60000002384185791       0.60000002384185791       0.60000002384185791       0.80000001192092896     
  0.51602117911218737       0.67016815594451840        1.7133074155535322       0.60000002384185791       0.60000002384185791       0.60000002384185791       0.80000001192092896     
  0.51602117911218714      -0.67016815594451840        1.7133074155535326       0.60000002384185791       0.60000002384185791       0.60000002384185791       0.80000001192092896     
  
   3   0  16  21
   3   0  21  16
   4   0  21  22   1
   3   1  22  17
   4   1  22  21   0
   3   1  17  22
   3   2  35  28
   3   2  35  31
   3   2  31  35
   3   2  31   6
   3   2   6  31
   3   2   9  28
   3   2  28  35
   3   2  28   9
   3   3  18  38
   3   3  38  18
   4   3  38  20   4
   3   4  20  19
   4   4  20  38   3
   3   4  19  20
   3   5   7  32
   3   5  32  36
   3   5  32   7
   3   5  36  32
   3   5  36  27
   3   5  27  36
   3   5  27   8
   3   5   8  27
   3   6   2  31
   3   6  31   2
   3   6  31  24
   3   6  24  10
   3   6  24  31
   3   6  10  24
   3   7  11  37
   3   7  37  32
   3   7  37  11
   3   7  32  37
   3   7  32   5
   3   7   5  32
   3   8   5  27
   3   8  27   5
   3   8  27  33
   3   8  33  12
   3   8  33  27
   3   8  12  33
   3   9  13  34
   3   9  34  28
   3   9  34  13
   3   9  28  34
   3   9  28   2
   3   9   2  28
   3  10   6  24
   3  10  24  14
   3  10  24   6
   3  10  14  24
   3  11  15  37
   3  11  37   7
   3  11  37  15
   3  11   7  37
   3  12   8  33
   3  12  33  16
   3  12  33   8
   3  12  16  33
   3  13  17  34
   3  13  34   9
   3  13  34  17
   3  13   9  34
   3  14  10  24
   3  14  24  38
   3  14  24  10
   3  14  38  18
   3  14  38  24
   3  14  18  38
   3  15  19  20
   3  15  20  37
   3  15  20  19
   3  15  37  20
   3  15  37  11
   3  15  11  37
   3  16  12  33
   3  16  33  21
   3  16  33  12
   3  16  21   0
   3  16  21  33
   3  16   0  21
   3  17   1  22
   3  17  22   1
   3  17  22  34
   3  17  34  22
   3  17  34  13
   3  17  13  34
   3  18  14  38
   3  18  38   3
   3  18  38  14
   3  18   3  38
   3  19   4  20
   3  19  20   4
   3  19  20  15
   3  19  15  20
   3  20   4  19
   4  20   4   3  38
   3  20  37  15
   4  20  37  24  38
   3  20  15  19
   3  20  15  37
   3  20  19   4
   3  20  19  15
   3  21   0  16
   4  21   0   1  22
   3  21  16  33
   3  21  16   0
   3  21  33  16
   4  21  33  34  22
   3  22   1  17
   4  22   1   0  21
   3  22  34  17
   4  22  34  33  21
   3  22  17   1
   3  22  17  34
   3  23  36  43
   3  23  36  40
   3  23  43  36
   3  23  43  25
   3  23  25  26
   3  23  25  43
   3  23  26  25
   3  23  26  44
   3  23  44  26
   3  23  44  35
   3  23  35  39
   3  23  35  44
   3  23  39  35
   4  23  39  30  41
   3  23  41  42
   4  23  41  30  39
   3  23  42  41
   4  23  42  29  40
   3  23  40  36
   4  23  40  29  42
   3  24  38  14
   4  24  38  20  37
   3  24  14  10
   3  24  14  38
   3  24  10   6
   3  24  10  14
   3  24   6  31
   3  24   6  10
   3  24  31  26
   3  24  31   6
   3  24  26  31
   4  24  26  25  37
   3  25  37  32
   4  25  37  24  26
   3  25  26  23
   4  25  26  24  37
   3  25  23  43
   3  25  23  26
   3  25  43  32
   3  25  43  23
   3  25  32  37
   3  25  32  43
   3  26  23  25
   3  26  23  44
   3  26  25  23
   4  26  25  37  24
   3  26  24  31
   4  26  24  37  25
   3  26  31  44
   3  26  31  24
   3  26  44  31
   3  26  44  23
   3  27   5  36
   3  27   5   8
   3  27  36  40
   3  27  36   5
   3  27  40  33
   3  27  40  36
   3  27  33   8
   3  27  33  40
   3  27   8   5
   3  27   8  33
   3  28  34  39
   3  28  34   9
   3  28  39  35
   3  28  39  34
   3  28  35  39
   3  28  35   2
   3  28   2  35
   3  28   2   9
   3  28   9  34
   3  28   9   2
   3  29  33  40
   4  29  33  34  30
   3  29  40  33
   4  29  40  23  42
   3  30  34  39
   4  30  34  33  29
   3  30  39  34
   4  30  39  23  41
   3  31   2  35
   3  31   2   6
   3  31  35  44
   3  31  35   2
   3  31  44  26
   3  31  44  35
   3  31  26  24
   3  31  26  44
   3  31  24   6
   3  31  24  26
   3  31   6   2
   3  31   6  24
   3  32  37  25
   3  32  37   7
   3  32  25  37
   3  32  25  43
   3  32  43  36
   3  32  43  25
   3  32  36  43
   3  32  36   5
   3  32   5   7
   3  32   5  36
   3  32   7  37
   3  32   7   5
   3  33  21  16
   4  33  21  22  34
   3  33  16  12
   3  33  16  21
   3  33  12   8
   3  33  12  16
   3  33   8  27
   3  33   8  12
   3  33  27  40
   3  33  27   8
   3  33  40  29
   3  33  40  27
   3  33  29  40
   4  33  29  30  34
   3  34  22  17
   4  34  22  21  33
   3  34  30  39
   4  34  30  29  33
   3  34  39  28
   3  34  39  30
   3  34  28  39
   3  34  28   9
   3  34   9  13
   3  34   9  28
   3  34  13  17
   3  34  13   9
   3  34  17  22
   3  34  17  13
   3  35  28  39
   3  35  28   2
   3  35  39  28
   3  35  39  23
   3  35  23  44
   3  35  23  39
   3  35  44  31
   3  35  44  23
   3  35  31   2
   3  35  31  44
   3  35   2  31
   3  35   2  28
   3  36  32  43
   3  36  32   5
   3  36  43  32
   3  36  43  23
   3  36  23  43
   3  36  23  40
   3  36  40  27
   3  36  40  23
   3  36  27   5
   3  36  27  40
   3  36   5  32
   3  36   5  27
   3  37  20  15
   4  37  20  38  24
   3  37  25  32
   4  37  25  26  24
   3  37  32  25
   3  37  32   7
   3  37   7  11
   3  37   7  32
   3  37  11  15
   3  37  11   7
   3  37  15  20
   3  37  15  11
   3  38   3  18
   4  38   3   4  20
   3  38  18  14
   3  38  18   3
   3  38  14  24
   3  38  14  18
   3  38  24  14
   4  38  24  37  20
   3  39  35  28
   3  39  35  23
   3  39  28  34
   3  39  28  35
   3  39  34  30
   3  39  34  28
   3  39  30  34
   4  39  30  41  23
   3  39  23  35
   4  39  23  41  30
   3  40  29  33
   4  40  29  42  23
   3  40  33  27
   3  40  33  29
   3  40  27  36
   3  40  27  33
   3  40  36  23
   3  40  36  27
   3  40  23  36
   4  40  23  42  29
   3  41  23  42
   4  41  23  39  30
   3  41  42  23
   4  41  42  29  30
   3  42  23  41
   4  42  23  40  29
   3  42  41  23
   4  42  41  30  29
   3  43  36  32
   3  43  36  23
   3  43  32  25
   3  43  32  36
   3  43  25  23
   3  43  25  32
   3  43  23  36
   3  43  23  25
   3  44  26  23
   3  44  26  31
   3  44  31  35
   3  44  31  26
   3  44  35  23
   3  44  35  31
   3  44  23  26
   3  44  23  35
