# Generated by dad_to_polygons. Vertex data from Humppa's .off file,
# polygons parsed from .dad file.
COFF
58 180 58
-5.559950 0.757335 4.374226 0.500000 0.500000 0.500000 1.0
-5.559950 -0.757335 4.374226 0.500000 0.500000 0.500000 1.0
-0.027188 -1.788930 3.993080 0.500000 0.500000 0.500000 1.0
6.213674 -0.749599 4.394598 0.500000 0.500000 0.500000 1.0
6.213674 0.749599 4.394598 0.500000 0.500000 0.500000 1.0
-0.027188 1.788930 3.993080 0.500000 0.500000 0.500000 1.0
1.039353 -1.451372 4.157055 0.500000 0.500000 0.500000 1.0
1.039353 1.451372 4.157055 0.500000 0.500000 0.500000 1.0
-1.089145 1.441466 4.119453 0.500000 0.500000 0.500000 1.0
-1.089145 -1.441466 4.119453 0.500000 0.500000 0.500000 1.0
1.950876 -1.113609 4.406763 0.500000 0.500000 0.500000 1.0
1.950876 1.113609 4.406763 0.500000 0.500000 0.500000 1.0
-2.010306 1.134955 4.365260 0.500000 0.500000 0.500000 1.0
-2.010306 -1.134955 4.365260 0.500000 0.500000 0.500000 1.0
3.068198 -0.996966 4.438700 0.500000 0.500000 0.500000 1.0
3.068198 0.996966 4.438700 0.500000 0.500000 0.500000 1.0
-3.022370 0.982719 4.383729 0.500000 0.500000 0.500000 1.0
-3.022370 -0.982719 4.383729 0.500000 0.500000 0.500000 1.0
4.063818 -0.912229 4.431151 0.500000 0.500000 0.500000 1.0
4.063818 0.912229 4.431151 0.500000 0.500000 0.500000 1.0
-4.016157 0.870792 4.386133 0.500000 0.500000 0.500000 1.0
-4.016157 -0.870792 4.386133 0.500000 0.500000 0.500000 1.0
5.063573 -0.832971 4.410159 0.500000 0.500000 0.500000 1.0
5.063573 0.832971 4.410159 0.500000 0.500000 0.500000 1.0
2.293134 -0.967390 3.396206 0.500000 0.500000 0.500000 1.0
1.516669 1.175666 2.650012 0.500000 0.500000 0.500000 1.0
1.516669 -1.175666 2.650012 0.500000 0.500000 0.500000 1.0
-1.099052 1.387163 3.265199 0.500000 0.500000 0.500000 1.0
-1.099052 -1.387163 3.265199 0.500000 0.500000 0.500000 1.0
-1.858193 0.870648 2.316618 0.500000 0.500000 0.500000 1.0
-1.858193 -0.870648 2.316618 0.500000 0.500000 0.500000 1.0
1.080268 -1.375872 3.128996 0.500000 0.500000 0.500000 1.0
1.080268 1.375872 3.128996 0.500000 0.500000 0.500000 1.0
-2.311784 1.006159 3.367630 0.500000 0.500000 0.500000 1.0
-2.311784 -1.006159 3.367630 0.500000 0.500000 0.500000 1.0
-0.000450 -1.503015 2.921504 0.500000 0.500000 0.500000 1.0
-0.000450 1.503015 2.921504 0.500000 0.500000 0.500000 1.0
2.293134 0.967390 3.396206 0.500000 0.500000 0.500000 1.0
3.774567 -0.618638 3.310500 1.0 1.0 0.0 1.0
-0.582423 -1.264312 2.413253 0.500000 0.500000 0.500000 1.0
-0.582423 1.264312 2.413253 0.500000 0.500000 0.500000 1.0
-1.539933 -0.609002 1.472659 0.500000 0.500000 0.500000 1.0
-1.539933 0.609002 1.472659 0.500000 0.500000 0.500000 1.0
0.797254 1.188797 2.128457 0.500000 0.500000 0.500000 1.0
0.797254 -1.188797 2.128457 0.500000 0.500000 0.500000 1.0
3.774567 0.618638 3.310500 1.0 1.0 0.0 1.0
-3.784542 0.660125 3.588565 1.0 1.0 0.0 1.0
1.784844 0.000000 2.530446 0.500000 0.500000 0.500000 1.0
1.143040 0.800765 1.884382 0.500000 0.500000 0.500000 1.0
1.143040 -0.800765 1.884382 0.500000 0.500000 0.500000 1.0
-0.014025 1.183379 2.057037 0.500000 0.500000 0.500000 1.0
-0.014025 -1.183379 2.057037 0.500000 0.500000 0.500000 1.0
1.195361 0.000000 1.760578 0.500000 0.500000 0.500000 1.0
5.133178 -0.682371 3.752466 0.500000 0.500000 0.500000 1.0
5.133178 0.682371 3.752466 0.500000 0.500000 0.500000 1.0
-3.784542 -0.660125 3.588565 1.0 1.0 0.0 1.0
0.008872 -0.000000 1.038258 1.0 1.0 0.0 1.0
-2.342903 0.000000 3.322460 0.500000 0.500000 0.500000 1.0
3 0 1 55
3 0 55 1
3 0 20 46
3 0 46 20
3 0 55 46
3 0 46 55
3 2 28 9
3 2 9 28
3 3 4 54
3 3 54 4
3 3 54 53
3 3 53 54
3 5 7 32
3 5 32 7
3 5 27 8
3 5 8 27
3 5 32 36
3 5 36 32
3 5 36 27
3 5 27 36
3 6 10 24
3 6 24 10
3 6 31 24
3 6 24 31
3 7 37 32
3 7 32 37
3 9 13 34
3 9 34 13
3 10 24 14
3 10 14 24
3 11 15 37
3 11 37 15
3 11 37 7
3 11 7 37
3 12 16 33
3 12 33 16
3 12 33 8
3 12 8 33
3 13 17 34
3 13 34 17
3 14 38 18
3 14 18 38
3 14 38 24
3 14 24 38
3 15 37 45
3 15 45 37
3 16 46 20
3 16 20 46
3 19 23 45
3 19 45 23
3 19 45 15
3 19 15 45
3 21 55 1
3 21 1 55
3 22 38 18
3 22 18 38
3 23 54 45
3 23 45 54
3 24 26 31
3 24 31 26
3 24 26 47
3 24 47 26
3 24 47 37
3 24 37 47
3 25 32 43
3 25 43 32
3 25 37 47
3 25 47 37
3 25 43 48
3 25 48 43
3 25 47 48
3 25 48 47
3 26 31 44
3 26 44 31
3 26 49 47
3 26 47 49
3 27 8 33
3 27 33 8
3 27 33 40
3 27 40 33
3 28 2 35
3 28 35 2
3 28 34 9
3 28 9 34
3 28 39 34
3 28 34 39
3 28 39 35
3 28 35 39
3 29 57 33
3 29 33 57
3 30 29 57
3 30 57 29
3 30 39 34
3 30 34 39
3 30 39 56
3 30 56 39
3 30 41 42
3 30 42 41
3 30 42 29
3 30 29 42
3 30 56 41
3 30 41 56
3 31 2 6
3 31 6 2
3 31 44 35
3 31 35 44
3 32 36 43
3 32 43 36
3 33 29 40
3 33 40 29
3 33 46 16
3 33 16 46
3 33 46 57
3 33 57 46
3 34 17 55
3 34 55 17
3 34 30 57
3 34 57 30
3 35 31 2
3 35 2 31
3 35 51 44
3 35 44 51
3 36 27 40
3 36 40 27
3 36 50 40
3 36 40 50
3 37 24 38
3 37 38 24
3 37 32 25
3 37 25 32
3 37 38 45
3 37 45 38
3 38 22 53
3 38 53 22
3 38 53 54
3 38 54 53
3 38 54 45
3 38 45 54
3 39 35 51
3 39 51 35
3 39 56 51
3 39 51 56
3 40 29 42
3 40 42 29
3 40 42 56
3 40 56 42
3 41 56 42
3 41 42 56
3 43 56 48
3 43 48 56
3 44 49 26
3 44 26 49
3 49 44 56
3 49 56 44
3 50 36 43
3 50 43 36
3 51 56 44
3 51 44 56
3 52 47 48
3 52 48 47
3 52 49 47
3 52 47 49
3 53 3 22
3 53 22 3
3 54 4 23
3 54 23 4
3 55 21 17
3 55 17 21
3 55 46 57
3 55 57 46
3 55 57 34
3 55 34 57
3 56 50 40
3 56 40 50
3 56 50 43
3 56 43 50
3 56 52 48
3 56 48 52
3 56 52 49
3 56 49 52
