 COFF
          67         604          67
  
  -6.2370813198157808       0.79905038531484007        4.7275314279693017       0.60000002384185791       0.60000002384185791       0.60000002384185791       0.80000001192092896     
  -6.2370813198157800      -0.79905038531484018        4.7275314279693017       0.60000002384185791       0.60000002384185791       0.60000002384185791       0.80000001192092896     
  -2.7568586881291837E-002  -1.8484940536298695        4.3394895290618827       0.60000002384185791       0.60000002384185791       0.60000002384185791       0.80000001192092896     
   7.0289663564629823      -0.79158117726771071        4.7479869298146671       0.60000002384185791       0.60000002384185791       0.60000002384185791       0.80000001192092896     
   7.0289663564629823       0.79158117726771071        4.7479869298146671       0.60000002384185791       0.60000002384185791       0.60000002384185791       0.80000001192092896     
  -2.7568586881291796E-002   1.8484940536298695        4.3394895290618827       0.60000002384185791       0.60000002384185791       0.60000002384185791       0.80000001192092896     
   1.0573702084009473       -1.5088169352151048        4.5049952181375730       0.60000002384185791       0.60000002384185791       0.60000002384185791       0.80000001192092896     
   1.0573702084009473        1.5088169352151051        4.5049952181375748       0.60000002384185791       0.60000002384185791       0.60000002384185791       0.80000001192092896     
  -1.1017733380984047        1.4936721187549173        4.4730016210411696       0.60000002384185791       0.60000002384185791       0.60000002384185791       0.80000001192092896     
  -1.1017733380984032       -1.4936721187549176        4.4730016210411696       0.60000002384185791       0.60000002384185791       0.60000002384185791       0.80000001192092896     
   1.9660570228908043       -1.1748800789605072        4.7566534644482976       0.60000002384185791       0.60000002384185791       0.60000002384185791       0.80000001192092896     
   1.9660570228908045        1.1748800789605065        4.7566534644482976       0.60000002384185791       0.60000002384185791       0.60000002384185791       0.80000001192092896     
  -2.0178807506551037        1.1846008113554378        4.7272840058353776       0.60000002384185791       0.60000002384185791       0.60000002384185791       0.80000001192092896     
  -2.0178807506551020       -1.1846008113554378        4.7272840058353776       0.60000002384185791       0.60000002384185791       0.60000002384185791       0.80000001192092896     
   3.0717841240806165       -1.1051373984349575        4.7435341730883183       0.60000002384185791       0.60000002384185791       0.60000002384185791       0.80000001192092896     
   3.0717841240806152        1.1051373984349575        4.7435341730883165       0.60000002384185791       0.60000002384185791       0.60000002384185791       0.80000001192092896     
  -3.0103053156332504        1.0715932844485616        4.7176833254773847       0.60000002384185791       0.60000002384185791       0.60000002384185791       0.80000001192092896     
  -3.0103053156332487       -1.0715932844485612        4.7176833254773829       0.60000002384185791       0.60000002384185791       0.60000002384185791       0.80000001192092896     
   4.0696825558509531       -1.0331151632533058        4.7305892454104361       0.60000002384185791       0.60000002384185791       0.60000002384185791       0.80000001192092896     
   4.0696825558509513        1.0331151632533055        4.7305892454104352       0.60000002384185791       0.60000002384185791       0.60000002384185791       0.80000001192092896     
  -4.0045454929995365       0.97596363392763674        4.7392501178227748       0.60000002384185791       0.60000002384185791       0.60000002384185791       0.80000001192092896     
  -4.0045454929995365      -0.97596363392763719        4.7392501178227748       0.60000002384185791       0.60000002384185791       0.60000002384185791       0.80000001192092896     
   5.0717089793030627      -0.93236951710554294        4.7247636365144343       0.60000002384185791       0.60000002384185791       0.60000002384185791       0.80000001192092896     
   5.0717089793030627       0.93236951710554306        4.7247636365144343       0.60000002384185791       0.60000002384185791       0.60000002384185791       0.80000001192092896     
  -5.0018375243911608       0.89195538605808633        4.7285281419344649       0.60000002384185791       0.60000002384185791       0.60000002384185791       0.80000001192092896     
  -5.0018375243911608      -0.89195538605808666        4.7285281419344649       0.60000002384185791       0.60000002384185791       0.60000002384185791       0.80000001192092896     
   1.5405728701341466       -1.2473584130319595        2.9725714186352126       0.60000002384185791       0.60000002384185791       0.60000002384185791       0.80000001192092896     
  -1.1481912761419137        1.4397792518360568        3.6101128343953710       0.60000002384185791       0.60000002384185791       0.60000002384185791       0.80000001192092896     
  -1.1481912761419135       -1.4397792518360566        3.6101128343953706       0.60000002384185791       0.60000002384185791       0.60000002384185791       0.80000001192092896     
  -1.8698183510463962       0.76599421000990220        2.5974387496900988       0.60000002384185791       0.60000002384185791       0.60000002384185791       0.80000001192092896     
  -1.8698183510463966      -0.76599421000990198        2.5974387496900992       0.60000002384185791       0.60000002384185791       0.60000002384185791       0.80000001192092896     
   1.0378838648034270       -1.4423606274396321        3.4329374727489319       0.60000002384185791       0.60000002384185791       0.60000002384185791       0.80000001192092896     
   1.0378838648034270        1.4423606274396319        3.4329374727489297       0.60000002384185791       0.60000002384185791       0.60000002384185791       0.80000001192092896     
  -2.2966373440917152        1.0691289820322261        3.6638659970709591       0.60000002384185791       0.60000002384185791       0.60000002384185791       0.80000001192092896     
  -2.2966373440917147       -1.0691289820322258        3.6638659970709568       0.60000002384185791       0.60000002384185791       0.60000002384185791       0.80000001192092896     
   7.2092525436514322E-003  -1.5751663712816311        3.2166605009568143       0.60000002384185791       0.60000002384185791       0.60000002384185791       0.80000001192092896     
   7.2092525436519778E-003   1.5751663712816311        3.2166605009568134       0.60000002384185791       0.60000002384185791       0.60000002384185791       0.80000001192092896     
   2.2440895633917921        1.0348579194209455        3.7288515857104079       0.60000002384185791       0.60000002384185791       0.60000002384185791       0.80000001192092896     
   3.7797771993204656      -0.61856299846567653        3.3105001657960162        1.0000000000000000        1.0000000000000000        0.0000000000000000        1.0000000000000000     
 -0.68203819430233625       -1.3707740929961003        2.7147888550270283       0.60000002384185791       0.60000002384185791       0.60000002384185791       0.80000001192092896     
 -0.68203819430233625        1.3707740929961008        2.7147888550270278       0.60000002384185791       0.60000002384185791       0.60000002384185791       0.80000001192092896     
  -1.5127908686506315      -0.66237790196993174        1.6059599980391805       0.60000002384185791       0.60000002384185791       0.60000002384185791       0.80000001192092896     
  -1.5127908686506302       0.66237790196993174        1.6059599980391797       0.60000002384185791       0.60000002384185791       0.60000002384185791       0.80000001192092896     
  0.87175555112799297        1.3227787335279364        2.3954420023655354       0.60000002384185791       0.60000002384185791       0.60000002384185791       0.80000001192092896     
  0.87175555112799263       -1.3227787335279366        2.3954420023655367       0.60000002384185791       0.60000002384185791       0.60000002384185791       0.80000001192092896     
   3.7797771993204656       0.61856299846567686        3.3105001657960162        1.0000000000000000        1.0000000000000000        0.0000000000000000        1.0000000000000000     
  -3.9065795380070814       0.66040952125768149        3.5885653274392326        1.0000000000000000        1.0000000000000000        0.0000000000000000        1.0000000000000000     
   1.9044538328032754        3.5315066249616214E-015   2.8251517659960617       0.60000002384185791       0.60000002384185791       0.60000002384185791       0.80000001192092896     
   1.2681874764184689       0.91659787502949863        2.1322528384314183       0.60000002384185791       0.60000002384185791       0.60000002384185791       0.80000001192092896     
   1.2681874764184686      -0.91659787502949874        2.1322528384314188       0.60000002384185791       0.60000002384185791       0.60000002384185791       0.80000001192092896     
   3.2700580821109139E-002   1.3487778214861221        2.3001971472073381       0.60000002384185791       0.60000002384185791       0.60000002384185791       0.80000001192092896     
   3.2700580821108820E-002  -1.3487778214861219        2.3001971472073386       0.60000002384185791       0.60000002384185791       0.60000002384185791       0.80000001192092896     
   1.4319939719480055        7.8256888368852912E-016   1.9951950820857547       0.60000002384185791       0.60000002384185791       0.60000002384185791       0.80000001192092896     
   5.3967319010725241      -0.75746673790745667        4.0176916864853771       0.60000002384185791       0.60000002384185791       0.60000002384185791       0.80000001192092896     
   5.3967319010725241       0.75746673790745667        4.0176916864853771       0.60000002384185791       0.60000002384185791       0.60000002384185791       0.80000001192092896     
  -3.9065795380070814      -0.66040952125768149        3.5885653274392331        1.0000000000000000        1.0000000000000000        0.0000000000000000        1.0000000000000000     
   3.9541494969502877E-002  -2.9123873931022967E-017   1.0382578837327854        1.0000000000000000        1.0000000000000000        0.0000000000000000        1.0000000000000000     
  -2.4650687719307380        1.6333308825281997E-016   3.3224285541448078       0.60000002384185791       0.60000002384185791       0.60000002384185791       0.80000001192092896     
  -5.1056114919950488       0.73380110570157975        4.0810697185746925       0.60000002384185791       0.60000002384185791       0.60000002384185791       0.80000001192092896     
  -5.1056114919950488      -0.73380110570158008        4.0810697185746925       0.60000002384185791       0.60000002384185791       0.60000002384185791       0.80000001192092896     
 -0.32788064438941095      -0.94499226397303693        1.9269779808365370       0.60000002384185791       0.60000002384185791       0.60000002384185791       0.80000001192092896     
 -0.32788064438941045       0.94499226397303715        1.9269779808365373       0.60000002384185791       0.60000002384185791       0.60000002384185791       0.80000001192092896     
   2.2444586337220072        1.9932689516600273E-014   3.6904376997966923       0.60000002384185791       0.60000002384185791       0.60000002384185791       0.80000001192092896     
   2.2440895633917921       -1.0348579194209457        3.7288515857104092       0.60000002384185791       0.60000002384185791       0.60000002384185791       0.80000001192092896     
   1.5405728701341466        1.2473584130319590        2.9725714186352112       0.60000002384185791       0.60000002384185791       0.60000002384185791       0.80000001192092896     
  0.52838698033829523       0.74186851946459964        1.6969875846543376       0.60000002384185791       0.60000002384185791       0.60000002384185791       0.80000001192092896     
  0.52838698033829501      -0.74186851946459975        1.6969875846543385       0.60000002384185791       0.60000002384185791       0.60000002384185791       0.80000001192092896     
  
   3   0  24  58
   3   0  58  24
   4   0  58  59   1
   3   1  59  25
   4   1  59  58   0
   3   1  25  59
   3   2  35  28
   3   2  35  31
   3   2  31  35
   3   2  31   6
   3   2   6  31
   3   2   9  28
   3   2  28  35
   3   2  28   9
   3   3  22  53
   3   3  53  22
   4   3  53  54   4
   3   4  54  23
   4   4  54  53   3
   3   4  23  54
   3   5   7  32
   3   5  32  36
   3   5  32   7
   3   5  36  32
   3   5  36  27
   3   5  27  36
   3   5  27   8
   3   5   8  27
   3   6   2  31
   3   6  31   2
   3   6  31  63
   3   6  63  10
   3   6  63  31
   3   6  10  63
   3   7  11  37
   3   7  37  32
   3   7  37  11
   3   7  32  37
   3   7  32   5
   3   7   5  32
   3   8   5  27
   3   8  27   5
   3   8  27  33
   3   8  33  12
   3   8  33  27
   3   8  12  33
   3   9  13  34
   3   9  34  28
   3   9  34  13
   3   9  28  34
   3   9  28   2
   3   9   2  28
   3  10   6  63
   3  10  63  14
   3  10  63   6
   3  10  14  63
   3  11  15  37
   3  11  37   7
   3  11  37  15
   3  11   7  37
   3  12   8  33
   3  12  33  16
   3  12  33   8
   3  12  16  33
   3  13  17  34
   3  13  34   9
   3  13  34  17
   3  13   9  34
   3  14  10  63
   3  14  63  38
   3  14  63  10
   3  14  38  18
   3  14  38  63
   3  14  18  38
   3  15  19  45
   3  15  45  37
   3  15  45  19
   3  15  37  45
   3  15  37  11
   3  15  11  37
   3  16  12  33
   3  16  33  46
   3  16  33  12
   3  16  46  20
   3  16  46  33
   3  16  20  46
   3  17  21  55
   3  17  55  34
   3  17  55  21
   3  17  34  55
   3  17  34  13
   3  17  13  34
   3  18  14  38
   3  18  38  22
   3  18  38  14
   3  18  22  38
   3  19  23  45
   3  19  45  15
   3  19  45  23
   3  19  15  45
   3  20  16  46
   3  20  46  24
   3  20  46  16
   3  20  24  46
   3  21  25  55
   3  21  55  17
   3  21  55  25
   3  21  17  55
   3  22  18  38
   3  22  38  53
   3  22  38  18
   3  22  53   3
   3  22  53  38
   3  22   3  53
   3  23   4  54
   3  23  54   4
   3  23  54  45
   3  23  45  54
   3  23  45  19
   3  23  19  45
   3  24  20  46
   3  24  46  58
   3  24  46  20
   3  24  58   0
   3  24  58  46
   3  24   0  58
   3  25   1  59
   3  25  59   1
   3  25  59  55
   3  25  55  59
   3  25  55  21
   3  25  21  55
   3  26  49  47
   3  26  49  44
   3  26  47  63
   3  26  47  49
   3  26  63  31
   3  26  63  47
   3  26  31  44
   3  26  31  63
   3  26  44  31
   3  26  44  49
   3  27   5  36
   3  27   5   8
   3  27  36  40
   3  27  36   5
   3  27  40  33
   3  27  40  36
   3  27  33   8
   3  27  33  40
   3  27   8   5
   3  27   8  33
   3  28  34  39
   3  28  34   9
   3  28  39  35
   3  28  39  34
   3  28  35  39
   3  28  35   2
   3  28   2  35
   3  28   2   9
   3  28   9  34
   3  28   9   2
   3  29  33  40
   3  29  33  57
   3  29  40  33
   3  29  40  61
   3  29  61  42
   3  29  61  40
   3  29  42  61
   4  29  42  41  30
   3  29  30  57
   4  29  30  41  42
   3  29  57  30
   3  29  57  33
   3  30  34  57
   3  30  34  39
   3  30  57  29
   3  30  57  34
   3  30  29  57
   4  30  29  42  41
   3  30  41  60
   4  30  41  42  29
   3  30  60  41
   3  30  60  39
   3  30  39  34
   3  30  39  60
   3  31   2  35
   3  31   2   6
   3  31  35  44
   3  31  35   2
   3  31  44  26
   3  31  44  35
   3  31  26  63
   3  31  26  44
   3  31  63   6
   3  31  63  26
   3  31   6   2
   3  31   6  63
   3  32  37  64
   3  32  37   7
   3  32  64  37
   3  32  64  43
   3  32  43  36
   3  32  43  64
   3  32  36  43
   3  32  36   5
   3  32   5   7
   3  32   5  36
   3  32   7  37
   3  32   7   5
   3  33  46  16
   3  33  46  57
   3  33  16  12
   3  33  16  46
   3  33  12   8
   3  33  12  16
   3  33   8  27
   3  33   8  12
   3  33  27  40
   3  33  27   8
   3  33  40  29
   3  33  40  27
   3  33  29  40
   3  33  29  57
   3  33  57  29
   3  33  57  46
   3  34  55  57
   3  34  55  17
   3  34  57  30
   3  34  57  55
   3  34  30  57
   3  34  30  39
   3  34  39  28
   3  34  39  30
   3  34  28  39
   3  34  28   9
   3  34   9  13
   3  34   9  28
   3  34  13  17
   3  34  13   9
   3  34  17  55
   3  34  17  13
   3  35  28  39
   3  35  28   2
   3  35  39  28
   3  35  39  51
   3  35  51  44
   3  35  51  39
   3  35  44  31
   3  35  44  51
   3  35  31   2
   3  35  31  44
   3  35   2  31
   3  35   2  28
   3  36  32  43
   3  36  32   5
   3  36  43  32
   3  36  43  50
   3  36  50  40
   3  36  50  43
   3  36  40  27
   3  36  40  50
   3  36  27   5
   3  36  27  40
   3  36   5  32
   3  36   5  27
   3  37  45  62
   3  37  45  15
   3  37  62  47
   3  37  62  45
   3  37  47  62
   3  37  47  64
   3  37  64  47
   3  37  64  32
   3  37  32  64
   3  37  32   7
   3  37   7  11
   3  37   7  32
   3  37  11  15
   3  37  11   7
   3  37  15  45
   3  37  15  11
   3  38  53  22
   4  38  53  54  45
   3  38  22  18
   3  38  22  53
   3  38  18  14
   3  38  18  22
   3  38  14  63
   3  38  14  18
   3  38  63  14
   3  38  63  62
   3  38  62  45
   3  38  62  63
   3  38  45  62
   4  38  45  54  53
   3  39  35  28
   3  39  35  51
   3  39  28  34
   3  39  28  35
   3  39  34  30
   3  39  34  28
   3  39  30  34
   3  39  30  60
   3  39  60  30
   3  39  60  51
   3  39  51  35
   3  39  51  60
   3  40  29  33
   3  40  29  61
   3  40  33  27
   3  40  33  29
   3  40  27  36
   3  40  27  33
   3  40  36  50
   3  40  36  27
   3  40  50  36
   3  40  50  61
   3  40  61  50
   3  40  61  29
   3  41  56  60
   3  41  56  42
   3  41  60  30
   3  41  60  56
   3  41  30  60
   4  41  30  29  42
   3  41  42  56
   4  41  42  29  30
   3  42  56  41
   3  42  56  61
   3  42  41  56
   4  42  41  30  29
   3  42  29  61
   4  42  29  30  41
   3  42  61  56
   3  42  61  29
   3  43  36  32
   3  43  36  50
   3  43  32  64
   3  43  32  36
   3  43  64  48
   3  43  64  32
   3  43  48  64
   3  43  48  65
   3  43  65  48
   3  43  65  50
   3  43  50  36
   3  43  50  65
   3  44  26  49
   3  44  26  31
   3  44  31  35
   3  44  31  26
   3  44  35  51
   3  44  35  31
   3  44  51  35
   3  44  51  66
   3  44  66  51
   3  44  66  49
   3  44  49  26
   3  44  49  66
   3  45  54  23
   4  45  54  53  38
   3  45  38  62
   4  45  38  53  54
   3  45  62  37
   3  45  62  38
   3  45  37  62
   3  45  37  15
   3  45  15  19
   3  45  15  37
   3  45  19  23
   3  45  19  15
   3  45  23  54
   3  45  23  19
   3  46  58  24
   4  46  58  59  55
   3  46  24  20
   3  46  24  58
   3  46  20  16
   3  46  20  24
   3  46  16  33
   3  46  16  20
   3  46  33  16
   3  46  33  57
   3  46  57  55
   3  46  57  33
   3  46  55  57
   4  46  55  59  58
   3  47  37  62
   3  47  37  64
   3  47  62  37
   3  47  62  63
   3  47  63  26
   3  47  63  62
   3  47  26  49
   3  47  26  63
   3  47  49  26
   3  47  49  52
   3  47  52  48
   3  47  52  49
   3  47  48  64
   3  47  48  52
   3  47  64  37
   3  47  64  48
   3  48  43  64
   3  48  43  65
   3  48  64  47
   3  48  64  43
   3  48  47  52
   3  48  47  64
   3  48  52  47
   3  48  52  56
   3  48  56  65
   3  48  56  52
   3  48  65  56
   3  48  65  43
   3  49  47  26
   3  49  47  52
   3  49  26  47
   3  49  26  44
   3  49  44  26
   3  49  44  66
   3  49  66  56
   3  49  66  44
   3  49  56  52
   3  49  56  66
   3  49  52  47
   3  49  52  56
   3  50  40  36
   3  50  40  61
   3  50  36  43
   3  50  36  40
   3  50  43  36
   3  50  43  65
   3  50  65  56
   3  50  65  43
   3  50  56  65
   3  50  56  61
   3  50  61  56
   3  50  61  40
   3  51  44  35
   3  51  44  66
   3  51  35  39
   3  51  35  44
   3  51  39  35
   3  51  39  60
   3  51  60  56
   3  51  60  39
   3  51  56  66
   3  51  56  60
   3  51  66  56
   3  51  66  44
   3  52  48  47
   3  52  48  56
   3  52  47  49
   3  52  47  48
   3  52  49  47
   3  52  49  56
   3  52  56  48
   3  52  56  49
   3  53   3  22
   4  53   3   4  54
   3  53  22  38
   3  53  22   3
   3  53  38  22
   4  53  38  45  54
   3  54   4  23
   4  54   4   3  53
   3  54  45  23
   4  54  45  38  53
   3  54  23   4
   3  54  23  45
   3  55  59  25
   4  55  59  58  46
   3  55  46  57
   4  55  46  58  59
   3  55  57  34
   3  55  57  46
   3  55  34  57
   3  55  34  17
   3  55  17  21
   3  55  17  34
   3  55  21  25
   3  55  21  17
   3  55  25  59
   3  55  25  21
   3  56  50  65
   3  56  50  61
   3  56  65  48
   3  56  65  50
   3  56  48  52
   3  56  48  65
   3  56  52  48
   3  56  52  49
   3  56  49  66
   3  56  49  52
   3  56  66  51
   3  56  66  49
   3  56  51  60
   3  56  51  66
   3  56  60  41
   3  56  60  51
   3  56  41  60
   3  56  41  42
   3  56  42  41
   3  56  42  61
   3  56  61  50
   3  56  61  42
   3  57  29  33
   3  57  29  30
   3  57  30  34
   3  57  30  29
   3  57  34  55
   3  57  34  30
   3  57  55  46
   3  57  55  34
   3  57  46  33
   3  57  46  55
   3  57  33  46
   3  57  33  29
   3  58   0  24
   4  58   0   1  59
   3  58  24  46
   3  58  24   0
   3  58  46  24
   4  58  46  55  59
   3  59   1  25
   4  59   1   0  58
   3  59  55  25
   4  59  55  46  58
   3  59  25   1
   3  59  25  55
   3  60  30  41
   3  60  30  39
   3  60  41  56
   3  60  41  30
   3  60  56  51
   3  60  56  41
   3  60  51  39
   3  60  51  56
   3  60  39  30
   3  60  39  51
   3  61  50  40
   3  61  50  56
   3  61  56  50
   3  61  56  42
   3  61  42  56
   3  61  42  29
   3  61  29  40
   3  61  29  42
   3  61  40  29
   3  61  40  50
   3  62  47  37
   3  62  47  63
   3  62  37  45
   3  62  37  47
   3  62  45  38
   3  62  45  37
   3  62  38  63
   3  62  38  45
   3  62  63  38
   3  62  63  47
   3  63  38  14
   3  63  38  62
   3  63  14  10
   3  63  14  38
   3  63  10   6
   3  63  10  14
   3  63   6  31
   3  63   6  10
   3  63  31  26
   3  63  31   6
   3  63  26  47
   3  63  26  31
   3  63  47  62
   3  63  47  26
   3  63  62  47
   3  63  62  38
   3  64  37  47
   3  64  37  32
   3  64  47  37
   3  64  47  48
   3  64  48  43
   3  64  48  47
   3  64  43  32
   3  64  43  48
   3  64  32  37
   3  64  32  43
   3  65  48  43
   3  65  48  56
   3  65  56  50
   3  65  56  48
   3  65  50  43
   3  65  50  56
   3  65  43  48
   3  65  43  50
   3  66  51  44
   3  66  51  56
   3  66  56  49
   3  66  56  51
   3  66  49  44
   3  66  49  56
   3  66  44  51
   3  66  44  49
