 COFF
           7          36           7
  
  -1.3571892467999185       0.52085474735820247        1.3861044155355577       0.60000002384185791       0.60000002384185791       0.60000002384185791       0.80000001192092896     
  -1.3571892467999185      -0.52085474735820247        1.3861044155355577       0.60000002384185791       0.60000002384185791       0.60000002384185791       0.80000001192092896     
  -2.8241671429290674E-004  -1.0397570507282761        1.3850972231253227       0.60000002384185791       0.60000002384185791       0.60000002384185791       0.80000001192092896     
   1.4505189331285411      -0.52100567590758717        1.3862498061319062       0.60000002384185791       0.60000002384185791       0.60000002384185791       0.80000001192092896     
   1.4505189331285411       0.52100567590758717        1.3862498061319062       0.60000002384185791       0.60000002384185791       0.60000002384185791       0.80000001192092896     
  -2.8241671429290674E-004   1.0397570507282761        1.3850972231253227       0.60000002384185791       0.60000002384185791       0.60000002384185791       0.80000001192092896     
   1.4013484664223933E-003  -2.2053365529626519E-017   1.0382578837327854        1.0000000000000000        1.0000000000000000        0.0000000000000000        1.0000000000000000     
  
   3   0   5   6
   3   0   6   5
   3   0   6   1
   3   0   1   6
   3   1   0   6
   3   1   6   2
   3   1   6   0
   3   1   2   6
   3   2   6   3
   3   2   6   1
   3   2   3   6
   3   2   1   6
   3   3   4   6
   3   3   2   6
   3   3   6   4
   3   3   6   2
   3   4   3   6
   3   4   6   5
   3   4   6   3
   3   4   5   6
   3   5   4   6
   3   5   6   4
   3   5   6   0
   3   5   0   6
   3   6   5   4
   3   6   5   0
   3   6   4   3
   3   6   4   5
   3   6   3   4
   3   6   3   2
   3   6   2   3
   3   6   2   1
   3   6   1   0
   3   6   1   2
   3   6   0   5
   3   6   0   1
