 COFF
          77         680          77
  
  -6.3037985311305293       0.84574712489240533        5.0710958061811411       0.60000002384185791       0.60000002384185791       0.60000002384185791       0.80000001192092896     
  -6.3037985311305285      -0.84574712489240544        5.0710958061811402       0.60000002384185791       0.60000002384185791       0.60000002384185791       0.80000001192092896     
  -2.8101625409800008E-002  -1.9093200590813542        4.6831308740997688       0.60000002384185791       0.60000002384185791       0.60000002384185791       0.80000001192092896     
   7.2306516024000906      -0.83455692425426176        5.0981921899406331       0.60000002384185791       0.60000002384185791       0.60000002384185791       0.80000001192092896     
   7.2306516024000906       0.83455692425426176        5.0981921899406331       0.60000002384185791       0.60000002384185791       0.60000002384185791       0.80000001192092896     
  -2.8101625409799963E-002   1.9093200590813542        4.6831308740997688       0.60000002384185791       0.60000002384185791       0.60000002384185791       0.80000001192092896     
   1.0736257658791024       -1.5710973377831481        4.8466790069020460       0.60000002384185791       0.60000002384185791       0.60000002384185791       0.80000001192092896     
   1.0736257658791017        1.5710973377831488        4.8466790069020487       0.60000002384185791       0.60000002384185791       0.60000002384185791       0.80000001192092896     
  -1.1106811677317909        1.5541275803762564        4.8168742780967433       0.60000002384185791       0.60000002384185791       0.60000002384185791       0.80000001192092896     
  -1.1106811677317874       -1.5541275803762569        4.8168742780967424       0.60000002384185791       0.60000002384185791       0.60000002384185791       0.80000001192092896     
   1.9838745733354186       -1.2420603181660799        5.0989483356973180       0.60000002384185791       0.60000002384185791       0.60000002384185791       0.80000001192092896     
   1.9838745733354177        1.2420603181660783        5.0989483356973189       0.60000002384185791       0.60000002384185791       0.60000002384185791       0.80000001192092896     
  -2.0266110669390427        1.2472865282672856        5.0753024153260080       0.60000002384185791       0.60000002384185791       0.60000002384185791       0.80000001192092896     
  -2.0266110669390387       -1.2472865282672849        5.0753024153260071       0.60000002384185791       0.60000002384185791       0.60000002384185791       0.80000001192092896     
   3.0780204188251665       -1.2209668843692216        5.0376900797497806       0.60000002384185791       0.60000002384185791       0.60000002384185791       0.80000001192092896     
   3.0780204188251652        1.2209668843692216        5.0376900797497788       0.60000002384185791       0.60000002384185791       0.60000002384185791       0.80000001192092896     
  -3.0222271803718757        1.1823450820746608        5.0163015359773633       0.60000002384185791       0.60000002384185791       0.60000002384185791       0.80000001192092896     
  -3.0222271803718717       -1.1823450820746604        5.0163015359773615       0.60000002384185791       0.60000002384185791       0.60000002384185791       0.80000001192092896     
   4.0800836315293880       -1.1588427199964069        5.0167587789746753       0.60000002384185791       0.60000002384185791       0.60000002384185791       0.80000001192092896     
   4.0800836315293862        1.1588427199964066        5.0167587789746744       0.60000002384185791       0.60000002384185791       0.60000002384185791       0.80000001192092896     
  -4.0185992135684048        1.0993508472808871        5.0325458297756072       0.60000002384185791       0.60000002384185791       0.60000002384185791       0.80000001192092896     
  -4.0185992135684021       -1.0993508472808873        5.0325458297756072       0.60000002384185791       0.60000002384185791       0.60000002384185791       0.80000001192092896     
   5.0824211477699821       -1.0343376430108859        5.0509939778754882       0.60000002384185791       0.60000002384185791       0.60000002384185791       0.80000001192092896     
   5.0824211477699821        1.0343376430108859        5.0509939778754882       0.60000002384185791       0.60000002384185791       0.60000002384185791       0.80000001192092896     
  -5.0139356244591040       0.99830264743926422        5.0337638125390711       0.60000002384185791       0.60000002384185791       0.60000002384185791       0.80000001192092896     
  -5.0139356244591013      -0.99830264743926478        5.0337638125390711       0.60000002384185791       0.60000002384185791       0.60000002384185791       0.80000001192092896     
   6.0772026027218562      -0.93438759512083747        5.0759728671996394       0.60000002384185791       0.60000002384185791       0.60000002384185791       0.80000001192092896     
   6.0772026027218562       0.93438759512083769        5.0759728671996394       0.60000002384185791       0.60000002384185791       0.60000002384185791       0.80000001192092896     
  -1.0992184710361996       -1.5114340538877653        3.9313527521626295       0.60000002384185791       0.60000002384185791       0.60000002384185791       0.80000001192092896     
  -1.9126954717457885       0.79562103239445725        2.8637997191107174       0.60000002384185791       0.60000002384185791       0.60000002384185791       0.80000001192092896     
  -1.9126954717457885      -0.79562103239445670        2.8637997191107183       0.60000002384185791       0.60000002384185791       0.60000002384185791       0.80000001192092896     
   1.0153745456353278       -1.5049556664732076        3.7238105605099392       0.60000002384185791       0.60000002384185791       0.60000002384185791       0.80000001192092896     
   1.0153745456353269        1.5049556664732076        3.7238105605099374       0.60000002384185791       0.60000002384185791       0.60000002384185791       0.80000001192092896     
  -2.2313954159961016        1.1493330770089485        3.9589153519928497       0.60000002384185791       0.60000002384185791       0.60000002384185791       0.80000001192092896     
  -2.2313954159961007       -1.1493330770089469        3.9589153519928479       0.60000002384185791       0.60000002384185791       0.60000002384185791       0.80000001192092896     
   1.8749143132217799E-002  -1.6342114216689665        3.5120458943041593       0.60000002384185791       0.60000002384185791       0.60000002384185791       0.80000001192092896     
   1.8749143132225209E-002   1.6342114216689871        3.5120458943041584       0.60000002384185791       0.60000002384185791       0.60000002384185791       0.80000001192092896     
   2.2229900722230989        1.1233852043899133        4.0474252335125298       0.60000002384185791       0.60000002384185791       0.60000002384185791       0.80000001192092896     
   3.7503388822152322      -0.61873164200103625        3.3105001657960162        1.0000000000000000        1.0000000000000000        0.0000000000000000        1.0000000000000000     
 -0.75978530091599095       -1.4562260986669140        3.0303033898888665       0.60000002384185791       0.60000002384185791       0.60000002384185791       0.80000001192092896     
 -0.75978530091599195        1.4562260986669158        3.0303033898888669       0.60000002384185791       0.60000002384185791       0.60000002384185791       0.80000001192092896     
  -1.4640373609001422      -0.71651601338427051        1.7242852557552535       0.60000002384185791       0.60000002384185791       0.60000002384185791       0.80000001192092896     
  -1.4640373609001405       0.71651601338427096        1.7242852557552519       0.60000002384185791       0.60000002384185791       0.60000002384185791       0.80000001192092896     
  0.90861668608306778        1.4393948385109960        2.6776144252311078       0.60000002384185791       0.60000002384185791       0.60000002384185791       0.80000001192092896     
  0.90861668608306800       -1.4393948385109940        2.6776144252311100       0.60000002384185791       0.60000002384185791       0.60000002384185791       0.80000001192092896     
   3.7503388822152322       0.61873164200103703        3.3105001657960162        1.0000000000000000        1.0000000000000000        0.0000000000000000        1.0000000000000000     
  -4.0272450111965714       0.66061404443211358        3.5885653274392326        1.0000000000000000        1.0000000000000000        0.0000000000000000        1.0000000000000000     
   1.9733407609098323        4.6048462066544257E-015   3.1231396371449889       0.60000002384185791       0.60000002384185791       0.60000002384185791       0.80000001192092896     
   1.3311607622450883        1.0257278372551073        2.3981621606124630       0.60000002384185791       0.60000002384185791       0.60000002384185791       0.80000001192092896     
   1.3311607622450881       -1.0257278372551062        2.3981621606124630       0.60000002384185791       0.60000002384185791       0.60000002384185791       0.80000001192092896     
   7.9441978755036849E-002   1.4701180178333375        2.5544688206287915       0.60000002384185791       0.60000002384185791       0.60000002384185791       0.80000001192092896     
   7.9441978755036474E-002  -1.4701180178333342        2.5544688206287915       0.60000002384185791       0.60000002384185791       0.60000002384185791       0.80000001192092896     
   1.5573115808729188        4.4639953918569486E-015   2.2408672672104921       0.60000002384185791       0.60000002384185791       0.60000002384185791       0.80000001192092896     
   5.5893668394455709      -0.85556283475041672        4.3351466251654474       0.60000002384185791       0.60000002384185791       0.60000002384185791       0.80000001192092896     
   5.5893668394455709       0.85556283475041683        4.3351466251654474       0.60000002384185791       0.60000002384185791       0.60000002384185791       0.80000001192092896     
  -4.0272450111965714      -0.66061404443211358        3.5885653274392331        1.0000000000000000        1.0000000000000000        0.0000000000000000        1.0000000000000000     
   5.5649411078072530E-002   5.2969187716408113E-017   1.0382578837327854        1.0000000000000000        1.0000000000000000        0.0000000000000000        1.0000000000000000     
  -2.5803111142205770        1.6738975918792268E-016   3.3527000544172418       0.60000002384185791       0.60000002384185791       0.60000002384185791       0.80000001192092896     
  -5.3412649922583633       0.81940879855621074        4.3461743441421481       0.60000002384185791       0.60000002384185791       0.60000002384185791       0.80000001192092896     
  -5.3412649922583624      -0.81940879855621129        4.3461743441421481       0.60000002384185791       0.60000002384185791       0.60000002384185791       0.80000001192092896     
 -0.42161996618992847       -1.2192413797318555        2.2327001909702822       0.60000002384185791       0.60000002384185791       0.60000002384185791       0.80000001192092896     
 -0.42161996618992875        1.2192413797318560        2.2327001909702835       0.60000002384185791       0.60000002384185791       0.60000002384185791       0.80000001192092896     
   2.2229723391452589        6.6697722553353226E-015   3.8951799527891988       0.60000002384185791       0.60000002384185791       0.60000002384185791       0.80000001192092896     
   2.2229900722230993       -1.1233852043899133        4.0474252335125316       0.60000002384185791       0.60000002384185791       0.60000002384185791       0.80000001192092896     
   1.5219626708439422        1.3107305452581701        3.3045764959293389       0.60000002384185791       0.60000002384185791       0.60000002384185791       0.80000001192092896     
  0.69579069429153928        1.0322839802458370        1.8533876941618574       0.60000002384185791       0.60000002384185791       0.60000002384185791       0.80000001192092896     
  0.69579069429153872       -1.0322839802458368        1.8533876941618579       0.60000002384185791       0.60000002384185791       0.60000002384185791       0.80000001192092896     
   1.5219626708439429       -1.3107305452581703        3.3045764959293411       0.60000002384185791       0.60000002384185791       0.60000002384185791       0.80000001192092896     
  -1.0992184710362003        1.5114340538877653        3.9313527521626299       0.60000002384185791       0.60000002384185791       0.60000002384185791       0.80000001192092896     
   4.4935980464142018      -0.99379096435204939        4.4045035549795708       0.60000002384185791       0.60000002384185791       0.60000002384185791       0.80000001192092896     
   4.4935980464142018       0.99379096435204972        4.4045035549795708       0.60000002384185791       0.60000002384185791       0.60000002384185791       0.80000001192092896     
  0.90543055695991181       0.60098024150600671        1.6825779682620026       0.60000002384185791       0.60000002384185791       0.60000002384185791       0.80000001192092896     
  0.90543055695991181      -0.60098024150600626        1.6825779682620028       0.60000002384185791       0.60000002384185791       0.60000002384185791       0.80000001192092896     
   4.9313105741502623      -0.70549774820829769        3.7409964991575642       0.60000002384185791       0.60000002384185791       0.60000002384185791       0.80000001192092896     
   4.9313105741502623       0.70549774820829803        3.7409964991575642       0.60000002384185791       0.60000002384185791       0.60000002384185791       0.80000001192092896     
   1.6165984633793030E-002  0.89360424624676937        1.7797475457126335       0.60000002384185791       0.60000002384185791       0.60000002384185791       0.80000001192092896     
   1.6165984633792638E-002 -0.89360424624676948        1.7797475457126335       0.60000002384185791       0.60000002384185791       0.60000002384185791       0.80000001192092896     
  
   3   0  24  58
   3   0  58  24
   4   0  58  59   1
   3   1  59  25
   4   1  59  58   0
   3   1  25  59
   3   2  35  28
   3   2  35  31
   3   2  31  35
   3   2  31   6
   3   2   6  31
   3   2   9  28
   3   2  28  35
   3   2  28   9
   3   3  26  53
   3   3  53  26
   4   3  53  54   4
   3   4  54  27
   4   4  54  53   3
   3   4  27  54
   3   5   7  32
   3   5  32  36
   3   5  32   7
   3   5  36  32
   3   5  36  68
   3   5  68  36
   3   5  68   8
   3   5   8  68
   3   6   2  31
   3   6  31   2
   3   6  31  63
   3   6  63  10
   3   6  63  31
   3   6  10  63
   3   7  11  37
   3   7  37  32
   3   7  37  11
   3   7  32  37
   3   7  32   5
   3   7   5  32
   3   8   5  68
   3   8  68   5
   3   8  68  33
   3   8  33  12
   3   8  33  68
   3   8  12  33
   3   9  13  34
   3   9  34  28
   3   9  34  13
   3   9  28  34
   3   9  28   2
   3   9   2  28
   3  10   6  63
   3  10  63  14
   3  10  63   6
   3  10  14  63
   3  11  15  37
   3  11  37   7
   3  11  37  15
   3  11   7  37
   3  12   8  33
   3  12  33  16
   3  12  33   8
   3  12  16  33
   3  13  17  34
   3  13  34   9
   3  13  34  17
   3  13   9  34
   3  14  10  63
   3  14  63  38
   3  14  63  10
   3  14  38  18
   3  14  38  63
   3  14  18  38
   3  15  19  45
   3  15  45  37
   3  15  45  19
   3  15  37  45
   3  15  37  11
   3  15  11  37
   3  16  12  33
   3  16  33  46
   3  16  33  12
   3  16  46  20
   3  16  46  33
   3  16  20  46
   3  17  21  55
   3  17  55  34
   3  17  55  21
   3  17  34  55
   3  17  34  13
   3  17  13  34
   3  18  14  38
   3  18  38  69
   3  18  38  14
   3  18  69  38
   3  18  69  22
   3  18  22  69
   3  19  23  70
   3  19  70  45
   3  19  70  23
   3  19  45  15
   3  19  45  70
   3  19  15  45
   3  20  16  46
   3  20  46  24
   3  20  46  16
   3  20  24  46
   3  21  25  55
   3  21  55  17
   3  21  55  25
   3  21  17  55
   3  22  18  69
   3  22  69  18
   3  22  69  53
   3  22  53  26
   3  22  53  69
   3  22  26  53
   3  23  27  54
   3  23  54  70
   3  23  54  27
   3  23  70  54
   3  23  70  19
   3  23  19  70
   3  24  20  46
   3  24  46  58
   3  24  46  20
   3  24  58   0
   3  24  58  46
   3  24   0  58
   3  25   1  59
   3  25  59   1
   3  25  59  55
   3  25  55  59
   3  25  55  21
   3  25  21  55
   3  26  22  53
   3  26  53   3
   3  26  53  22
   3  26   3  53
   3  27   4  54
   3  27  54   4
   3  27  54  23
   3  27  23  54
   3  28  34  39
   3  28  34   9
   3  28  39  35
   3  28  39  34
   3  28  35  39
   3  28  35   2
   3  28   2  35
   3  28   2   9
   3  28   9  34
   3  28   9   2
   3  29  33  40
   3  29  33  57
   3  29  40  33
   3  29  40  61
   3  29  61  42
   3  29  61  40
   3  29  42  61
   4  29  42  41  30
   3  29  30  57
   4  29  30  41  42
   3  29  57  30
   3  29  57  33
   3  30  34  57
   3  30  34  39
   3  30  57  29
   3  30  57  34
   3  30  29  57
   4  30  29  42  41
   3  30  41  60
   4  30  41  42  29
   3  30  60  41
   3  30  60  39
   3  30  39  34
   3  30  39  60
   3  31   2  35
   3  31   2   6
   3  31  35  44
   3  31  35   2
   3  31  44  67
   3  31  44  35
   3  31  67  63
   3  31  67  44
   3  31  63   6
   3  31  63  67
   3  31   6   2
   3  31   6  63
   3  32  37  64
   3  32  37   7
   3  32  64  37
   3  32  64  43
   3  32  43  36
   3  32  43  64
   3  32  36  43
   3  32  36   5
   3  32   5   7
   3  32   5  36
   3  32   7  37
   3  32   7   5
   3  33  46  16
   3  33  46  57
   3  33  16  12
   3  33  16  46
   3  33  12   8
   3  33  12  16
   3  33   8  68
   3  33   8  12
   3  33  68  40
   3  33  68   8
   3  33  40  29
   3  33  40  68
   3  33  29  40
   3  33  29  57
   3  33  57  29
   3  33  57  46
   3  34  55  57
   3  34  55  17
   3  34  57  30
   3  34  57  55
   3  34  30  57
   3  34  30  39
   3  34  39  28
   3  34  39  30
   3  34  28  39
   3  34  28   9
   3  34   9  13
   3  34   9  28
   3  34  13  17
   3  34  13   9
   3  34  17  55
   3  34  17  13
   3  35  28  39
   3  35  28   2
   3  35  39  28
   3  35  39  51
   3  35  51  44
   3  35  51  39
   3  35  44  31
   3  35  44  51
   3  35  31   2
   3  35  31  44
   3  35   2  31
   3  35   2  28
   3  36  32  43
   3  36  32   5
   3  36  43  32
   3  36  43  50
   3  36  50  40
   3  36  50  43
   3  36  40  68
   3  36  40  50
   3  36  68   5
   3  36  68  40
   3  36   5  32
   3  36   5  68
   3  37  45  62
   3  37  45  15
   3  37  62  47
   3  37  62  45
   3  37  47  62
   3  37  47  64
   3  37  64  47
   3  37  64  32
   3  37  32  64
   3  37  32   7
   3  37   7  11
   3  37   7  32
   3  37  11  15
   3  37  11   7
   3  37  15  45
   3  37  15  11
   3  38  69  18
   4  38  69  53  73
   3  38  18  14
   3  38  18  69
   3  38  14  63
   3  38  14  18
   3  38  63  14
   3  38  63  62
   3  38  62  45
   3  38  62  63
   3  38  45  62
   4  38  45  74  73
   3  39  35  28
   3  39  35  51
   3  39  28  34
   3  39  28  35
   3  39  34  30
   3  39  34  28
   3  39  30  34
   3  39  30  60
   3  39  60  30
   3  39  60  51
   3  39  51  35
   3  39  51  60
   3  40  29  33
   3  40  29  61
   3  40  33  68
   3  40  33  29
   3  40  68  36
   3  40  68  33
   3  40  36  50
   3  40  36  68
   3  40  50  36
   3  40  50  61
   3  40  61  50
   3  40  61  29
   3  41  56  60
   3  41  56  42
   3  41  60  30
   3  41  60  56
   3  41  30  60
   4  41  30  29  42
   3  41  42  56
   4  41  42  29  30
   3  42  56  41
   3  42  56  61
   3  42  41  56
   4  42  41  30  29
   3  42  29  61
   4  42  29  30  41
   3  42  61  56
   3  42  61  29
   3  43  36  32
   3  43  36  50
   3  43  32  64
   3  43  32  36
   3  43  64  48
   3  43  64  32
   3  43  48  64
   3  43  48  65
   3  43  65  48
   3  43  65  50
   3  43  50  36
   3  43  50  65
   3  44  67  49
   3  44  67  31
   3  44  31  35
   3  44  31  67
   3  44  35  51
   3  44  35  31
   3  44  51  35
   3  44  51  66
   3  44  66  51
   3  44  66  49
   3  44  49  67
   3  44  49  66
   3  45  38  62
   4  45  38  73  74
   3  45  62  37
   3  45  62  38
   3  45  37  62
   3  45  37  15
   3  45  15  19
   3  45  15  37
   3  45  19  70
   3  45  19  15
   3  45  70  19
   4  45  70  54  74
   3  46  58  24
   4  46  58  59  55
   3  46  24  20
   3  46  24  58
   3  46  20  16
   3  46  20  24
   3  46  16  33
   3  46  16  20
   3  46  33  16
   3  46  33  57
   3  46  57  55
   3  46  57  33
   3  46  55  57
   4  46  55  59  58
   3  47  37  62
   3  47  37  64
   3  47  62  37
   3  47  62  63
   3  47  63  67
   3  47  63  62
   3  47  67  49
   3  47  67  63
   3  47  49  67
   3  47  49  52
   3  47  52  48
   3  47  52  49
   3  47  48  64
   3  47  48  52
   3  47  64  37
   3  47  64  48
   3  48  43  64
   3  48  43  65
   3  48  64  47
   3  48  64  43
   3  48  47  52
   3  48  47  64
   3  48  52  47
   3  48  52  71
   3  48  71  52
   3  48  71  65
   3  48  65  71
   3  48  65  43
   3  49  47  67
   3  49  47  52
   3  49  67  47
   3  49  67  44
   3  49  44  67
   3  49  44  66
   3  49  66  72
   3  49  66  44
   3  49  72  66
   3  49  72  52
   3  49  52  47
   3  49  52  72
   3  50  40  36
   3  50  40  61
   3  50  36  43
   3  50  36  40
   3  50  43  36
   3  50  43  65
   3  50  65  75
   3  50  65  43
   3  50  75  65
   3  50  75  61
   3  50  61  75
   3  50  61  40
   3  51  44  35
   3  51  44  66
   3  51  35  39
   3  51  35  44
   3  51  39  35
   3  51  39  60
   3  51  60  76
   3  51  60  39
   3  51  76  60
   3  51  76  66
   3  51  66  76
   3  51  66  44
   3  52  48  47
   3  52  48  71
   3  52  47  49
   3  52  47  48
   3  52  49  47
   3  52  49  72
   3  52  72  56
   3  52  72  49
   3  52  56  71
   3  52  56  72
   3  52  71  56
   3  52  71  48
   3  53   3  26
   4  53   3   4  54
   3  53  26  22
   3  53  26   3
   3  53  22  69
   3  53  22  26
   3  53  69  22
   4  53  69  38  73
   3  54   4  27
   4  54   4   3  53
   3  54  70  23
   4  54  70  45  74
   3  54  23  27
   3  54  23  70
   3  54  27   4
   3  54  27  23
   3  55  59  25
   4  55  59  58  46
   3  55  46  57
   4  55  46  58  59
   3  55  57  34
   3  55  57  46
   3  55  34  57
   3  55  34  17
   3  55  17  21
   3  55  17  34
   3  55  21  25
   3  55  21  17
   3  55  25  59
   3  55  25  21
   3  56  75  65
   3  56  75  61
   3  56  65  71
   3  56  65  75
   3  56  71  52
   3  56  71  65
   3  56  52  72
   3  56  52  71
   3  56  72  66
   3  56  72  52
   3  56  66  76
   3  56  66  72
   3  56  76  60
   3  56  76  66
   3  56  60  41
   3  56  60  76
   3  56  41  60
   3  56  41  42
   3  56  42  41
   3  56  42  61
   3  56  61  75
   3  56  61  42
   3  57  29  33
   3  57  29  30
   3  57  30  34
   3  57  30  29
   3  57  34  55
   3  57  34  30
   3  57  55  46
   3  57  55  34
   3  57  46  33
   3  57  46  55
   3  57  33  46
   3  57  33  29
   3  58   0  24
   4  58   0   1  59
   3  58  24  46
   3  58  24   0
   3  58  46  24
   4  58  46  55  59
   3  59   1  25
   4  59   1   0  58
   3  59  55  25
   4  59  55  46  58
   3  59  25   1
   3  59  25  55
   3  60  30  41
   3  60  30  39
   3  60  41  56
   3  60  41  30
   3  60  56  76
   3  60  56  41
   3  60  76  56
   3  60  76  51
   3  60  51  39
   3  60  51  76
   3  60  39  30
   3  60  39  51
   3  61  50  40
   3  61  50  75
   3  61  75  56
   3  61  75  50
   3  61  56  75
   3  61  56  42
   3  61  42  56
   3  61  42  29
   3  61  29  40
   3  61  29  42
   3  61  40  29
   3  61  40  50
   3  62  47  37
   3  62  47  63
   3  62  37  45
   3  62  37  47
   3  62  45  38
   3  62  45  37
   3  62  38  63
   3  62  38  45
   3  62  63  38
   3  62  63  47
   3  63  38  14
   3  63  38  62
   3  63  14  10
   3  63  14  38
   3  63  10   6
   3  63  10  14
   3  63   6  31
   3  63   6  10
   3  63  31  67
   3  63  31   6
   3  63  67  47
   3  63  67  31
   3  63  47  62
   3  63  47  67
   3  63  62  47
   3  63  62  38
   3  64  37  47
   3  64  37  32
   3  64  47  37
   3  64  47  48
   3  64  48  43
   3  64  48  47
   3  64  43  32
   3  64  43  48
   3  64  32  37
   3  64  32  43
   3  65  48  43
   3  65  48  71
   3  65  71  56
   3  65  71  48
   3  65  56  75
   3  65  56  71
   3  65  75  56
   3  65  75  50
   3  65  50  43
   3  65  50  75
   3  65  43  48
   3  65  43  50
   3  66  51  44
   3  66  51  76
   3  66  76  56
   3  66  76  51
   3  66  56  72
   3  66  56  76
   3  66  72  56
   3  66  72  49
   3  66  49  44
   3  66  49  72
   3  66  44  51
   3  66  44  49
   3  67  49  47
   3  67  49  44
   3  67  47  63
   3  67  47  49
   3  67  63  31
   3  67  63  47
   3  67  31  44
   3  67  31  63
   3  67  44  31
   3  67  44  49
   3  68   5  36
   3  68   5   8
   3  68  36  40
   3  68  36   5
   3  68  40  33
   3  68  40  36
   3  68  33   8
   3  68  33  40
   3  68   8   5
   3  68   8  33
   3  69  18  38
   3  69  18  22
   3  69  38  18
   4  69  38  73  53
   3  69  53  22
   4  69  53  73  38
   3  69  22  18
   3  69  22  53
   3  70  54  23
   4  70  54  74  45
   3  70  45  19
   4  70  45  74  54
   3  70  19  23
   3  70  19  45
   3  70  23  54
   3  70  23  19
   3  71  52  48
   3  71  52  56
   3  71  56  65
   3  71  56  52
   3  71  65  48
   3  71  65  56
   3  71  48  52
   3  71  48  65
   3  72  66  56
   3  72  66  49
   3  72  56  52
   3  72  56  66
   3  72  52  49
   3  72  52  56
   3  72  49  66
   3  72  49  52
   3  75  65  56
   3  75  65  50
   3  75  56  65
   3  75  56  61
   3  75  61  50
   3  75  61  56
   3  75  50  65
   3  75  50  61
   3  76  60  56
   3  76  60  51
   3  76  56  66
   3  76  56  60
   3  76  66  51
   3  76  66  56
   3  76  51  60
   3  76  51  66
