# Generated by dad_to_polygons. Vertex data from Humppa's .off file,
# polygons parsed from .dad file.
COFF
104 356 104
-6.422084 0.946326 5.736449 0.500000 0.500000 0.500000 1.0
-6.422084 -0.946326 5.736449 0.500000 0.500000 0.500000 1.0
-0.029463 -2.034014 5.362695 0.500000 0.500000 0.500000 1.0
7.328240 -0.918933 5.817621 0.500000 0.500000 0.500000 1.0
7.328240 0.918933 5.817621 0.500000 0.500000 0.500000 1.0
-0.029463 2.034014 5.362695 0.500000 0.500000 0.500000 1.0
1.105587 -1.701960 5.518877 0.500000 0.500000 0.500000 1.0
1.105587 1.701960 5.518877 0.500000 0.500000 0.500000 1.0
-1.135614 1.679433 5.494947 0.500000 0.500000 0.500000 1.0
-1.135614 -1.679433 5.494947 0.500000 0.500000 0.500000 1.0
2.017113 -1.379855 5.775464 0.500000 0.500000 0.500000 1.0
2.017113 1.379855 5.775464 0.500000 0.500000 0.500000 1.0
-2.052737 1.379924 5.757963 0.500000 0.500000 0.500000 1.0
-2.052737 -1.379924 5.757963 0.500000 0.500000 0.500000 1.0
3.072524 -1.417895 5.668291 0.500000 0.500000 0.500000 1.0
3.072524 1.417895 5.668291 0.500000 0.500000 0.500000 1.0
-3.042197 1.393709 5.616400 0.500000 0.500000 0.500000 1.0
-3.042197 -1.393709 5.616400 0.500000 0.500000 0.500000 1.0
4.100400 -1.377020 5.609498 0.500000 0.500000 0.500000 1.0
4.100400 1.377020 5.609498 0.500000 0.500000 0.500000 1.0
-4.043207 1.352763 5.591347 0.500000 0.500000 0.500000 1.0
-4.043207 -1.352763 5.591347 0.500000 0.500000 0.500000 1.0
5.079495 -1.199109 5.705719 0.500000 0.500000 0.500000 1.0
5.079495 1.199109 5.705719 0.500000 0.500000 0.500000 1.0
-5.051135 1.216829 5.638148 0.500000 0.500000 0.500000 1.0
-5.051135 -1.216829 5.638148 0.500000 0.500000 0.500000 1.0
6.067909 -1.120379 5.830001 0.500000 0.500000 0.500000 1.0
6.067909 1.120379 5.830001 0.500000 0.500000 0.500000 1.0
-1.038163 -1.647301 4.558711 0.500000 0.500000 0.500000 1.0
-1.960295 0.902836 3.386245 0.500000 0.500000 0.500000 1.0
-1.960295 -0.902836 3.386245 0.500000 0.500000 0.500000 1.0
1.118619 -1.616367 4.345332 0.500000 0.500000 0.500000 1.0
1.118619 1.616367 4.345332 0.500000 0.500000 0.500000 1.0
-2.179604 1.321849 4.620617 0.500000 0.500000 0.500000 1.0
-2.179604 -1.321849 4.620617 0.500000 0.500000 0.500000 1.0
0.036961 -1.755010 4.103238 0.500000 0.500000 0.500000 1.0
0.036961 1.755009 4.103238 0.500000 0.500000 0.500000 1.0
2.360656 1.277866 4.585731 0.500000 0.500000 0.500000 1.0
3.722946 -0.618891 3.310500 1.0 1.0 0.0 1.0
-0.829111 -1.591198 3.604804 0.500000 0.500000 0.500000 1.0
-0.829111 1.591198 3.604804 0.500000 0.500000 0.500000 1.0
-1.468189 -0.915362 2.072909 0.500000 0.500000 0.500000 1.0
-1.468190 0.915362 2.072909 0.500000 0.500000 0.500000 1.0
0.988951 1.578584 3.280667 0.500000 0.500000 0.500000 1.0
0.988951 -1.578584 3.280667 0.500000 0.500000 0.500000 1.0
3.722946 0.618891 3.310500 1.0 1.0 0.0 1.0
-4.226895 0.659204 3.588565 1.0 1.0 0.0 1.0
2.104566 -0.000000 3.697791 0.500000 0.500000 0.500000 1.0
1.396751 1.191799 2.958581 0.500000 0.500000 0.500000 1.0
1.396751 -1.191799 2.958581 0.500000 0.500000 0.500000 1.0
0.130261 1.639518 3.100313 0.500000 0.500000 0.500000 1.0
0.130203 -1.639462 3.100313 0.500000 0.500000 0.500000 1.0
1.653607 -0.000000 2.704167 0.500000 0.500000 0.500000 1.0
5.569529 -1.093490 5.012326 0.500000 0.500000 0.500000 1.0
5.569529 1.093490 5.012326 0.500000 0.500000 0.500000 1.0
-4.226895 -0.659204 3.588565 1.0 1.0 0.0 1.0
0.107159 -0.000000 1.038258 1.0 1.0 0.0 1.0
-2.722100 -0.000000 3.667435 0.500000 0.500000 0.500000 1.0
-5.653649 1.030060 4.920011 0.500000 0.500000 0.500000 1.0
-5.653649 -1.030060 4.920011 0.500000 0.500000 0.500000 1.0
-0.593707 -1.454953 2.819617 0.500000 0.500000 0.500000 1.0
-0.593707 1.454953 2.819618 0.500000 0.500000 0.500000 1.0
2.360706 -0.000000 4.260725 0.500000 0.500000 0.500000 1.0
2.360656 -1.277866 4.585731 0.500000 0.500000 0.500000 1.0
1.592490 1.458291 3.921695 0.500000 0.500000 0.500000 1.0
0.867434 1.393930 2.342447 0.500000 0.500000 0.500000 1.0
0.867433 -1.393930 2.342447 0.500000 0.500000 0.500000 1.0
1.592490 -1.458291 3.921695 0.500000 0.500000 0.500000 1.0
-1.038163 1.647301 4.558711 0.500000 0.500000 0.500000 1.0
4.552975 -1.294440 5.020113 0.500000 0.500000 0.500000 1.0
4.552975 1.294440 5.020113 0.500000 0.500000 0.500000 1.0
1.204608 0.900903 2.072033 0.500000 0.500000 0.500000 1.0
1.204608 -0.900903 2.072033 0.500000 0.500000 0.500000 1.0
5.470837 -0.703622 4.055341 0.500000 0.500000 0.500000 1.0
5.470837 0.703622 4.055341 0.500000 0.500000 0.500000 1.0
0.133788 1.388238 2.166312 0.500000 0.500000 0.500000 1.0
0.133787 -1.388238 2.166312 0.500000 0.500000 0.500000 1.0
3.558753 -1.301400 4.676844 0.500000 0.500000 0.500000 1.0
3.558753 1.301400 4.676844 0.500000 0.500000 0.500000 1.0
-3.036225 1.190451 4.193522 0.500000 0.500000 0.500000 1.0
-3.036225 -1.190451 4.193522 0.500000 0.500000 0.500000 1.0
1.309548 -0.000000 1.908260 0.500000 0.500000 0.500000 1.0
-3.540400 1.282709 4.730548 0.500000 0.500000 0.500000 1.0
-3.540400 -1.282709 4.730548 0.500000 0.500000 0.500000 1.0
3.991791 -1.257180 4.542665 0.500000 0.500000 0.500000 1.0
3.991791 1.257180 4.542665 0.500000 0.500000 0.500000 1.0
-0.294479 -1.139502 1.863504 0.500000 0.500000 0.500000 1.0
-0.294478 1.139502 1.863504 0.500000 0.500000 0.500000 1.0
-4.788246 1.078048 4.670472 0.500000 0.500000 0.500000 1.0
-4.788246 -1.078048 4.670472 0.500000 0.500000 0.500000 1.0
5.891788 -0.000000 4.830347 0.500000 0.500000 0.500000 1.0
6.738886 -0.491382 5.193703 0.500000 0.500000 0.500000 1.0
6.738886 0.491382 5.193703 0.500000 0.500000 0.500000 1.0
-0.926274 -0.478854 1.500900 0.500000 0.500000 0.500000 1.0
-0.926274 0.478854 1.500900 0.500000 0.500000 0.500000 1.0
-4.133737 1.118136 4.606257 0.500000 0.500000 0.500000 1.0
-4.133737 -1.118136 4.606257 0.500000 0.500000 0.500000 1.0
0.530306 0.755584 1.667786 0.500000 0.500000 0.500000 1.0
0.530306 -0.755584 1.667786 0.500000 0.500000 0.500000 1.0
-5.704032 -0.000000 4.892086 0.500000 0.500000 0.500000 1.0
-5.020573 0.322225 4.223279 0.500000 0.500000 0.500000 1.0
-5.020573 -0.322225 4.223279 0.500000 0.500000 0.500000 1.0
4.152608 -0.969255 4.159719 0.500000 0.500000 0.500000 1.0
4.152608 0.969255 4.159719 0.500000 0.500000 0.500000 1.0
3 0 58 24
3 0 24 58
3 0 99 58
3 0 58 99
3 1 0 99
3 1 99 0
3 1 59 25
3 1 25 59
3 1 99 59
3 1 59 99
3 2 31 6
3 2 6 31
3 2 35 31
3 2 31 35
3 3 4 92
3 3 92 4
3 3 53 90
3 3 90 53
3 3 90 91
3 3 91 90
3 3 92 91
3 3 91 92
3 5 7 32
3 5 32 7
3 5 36 68
3 5 68 36
3 6 31 63
3 6 63 31
3 6 63 10
3 6 10 63
3 8 5 68
3 8 68 5
3 8 33 68
3 8 68 33
3 9 28 2
3 9 2 28
3 11 37 7
3 11 7 37
3 13 34 9
3 13 9 34
3 14 77 18
3 14 18 77
3 15 11 37
3 15 37 11
3 15 19 78
3 15 78 19
3 15 37 78
3 15 78 37
3 16 12 33
3 16 33 12
3 16 79 33
3 16 33 79
3 16 79 82
3 16 82 79
3 16 82 20
3 16 20 82
3 17 13 34
3 17 34 13
3 17 21 83
3 17 83 21
3 17 83 80
3 17 80 83
3 18 69 22
3 18 22 69
3 18 84 69
3 18 69 84
3 19 23 70
3 19 70 23
3 20 24 88
3 20 88 24
3 20 88 95
3 20 95 88
3 21 83 96
3 21 96 83
3 22 53 26
3 22 26 53
3 23 70 54
3 23 54 70
3 24 58 88
3 24 88 58
3 25 59 89
3 25 89 59
3 25 89 21
3 25 21 89
3 26 53 3
3 26 3 53
3 27 4 54
3 27 54 4
3 28 34 9
3 28 9 34
3 28 39 35
3 28 35 39
3 29 30 57
3 29 57 30
3 29 33 40
3 29 40 33
3 29 40 61
3 29 61 40
3 29 57 33
3 29 33 57
3 29 61 42
3 29 42 61
3 30 39 34
3 30 34 39
3 30 39 60
3 30 60 39
3 30 41 42
3 30 42 41
3 30 42 29
3 30 29 42
3 30 57 34
3 30 34 57
3 31 67 63
3 31 63 67
3 32 36 5
3 32 5 36
3 32 37 7
3 32 7 37
3 32 37 64
3 32 64 37
3 32 43 64
3 32 64 43
3 33 12 8
3 33 8 12
3 33 79 57
3 33 57 79
3 34 17 80
3 34 80 17
3 34 39 28
3 34 28 39
3 35 2 28
3 35 28 2
3 35 51 39
3 35 39 51
3 35 51 44
3 35 44 51
3 36 32 43
3 36 43 32
3 36 40 68
3 36 68 40
3 37 45 78
3 37 78 45
3 37 64 47
3 37 47 64
3 38 77 63
3 38 63 77
3 38 84 77
3 38 77 84
3 38 102 73
3 38 73 102
3 38 102 84
3 38 84 102
3 40 36 50
3 40 50 36
3 40 50 61
3 40 61 50
3 41 30 60
3 41 60 30
3 42 41 93
3 42 93 41
3 42 93 94
3 42 94 93
3 43 36 50
3 43 50 36
3 43 48 65
3 43 65 48
3 43 64 48
3 43 48 64
3 43 65 50
3 43 50 65
3 44 31 67
3 44 67 31
3 44 35 31
3 44 31 35
3 44 49 67
3 44 67 49
3 44 51 66
3 44 66 51
3 44 66 49
3 44 49 66
3 45 37 62
3 45 62 37
3 45 62 38
3 45 38 62
3 45 73 38
3 45 38 73
3 45 74 73
3 45 73 74
3 45 85 78
3 45 78 85
3 45 103 74
3 45 74 103
3 46 58 88
3 46 88 58
3 46 79 82
3 46 82 79
3 46 99 58
3 46 58 99
3 46 100 99
3 46 99 100
3 47 48 52
3 47 52 48
3 47 64 48
3 47 48 64
3 47 67 49
3 47 49 67
3 48 52 71
3 48 71 52
3 48 71 65
3 48 65 71
3 49 47 52
3 49 52 47
3 49 52 72
3 49 72 52
3 49 66 72
3 49 72 66
3 50 61 75
3 50 75 61
3 51 76 66
3 51 66 76
3 53 73 102
3 53 102 73
3 53 102 69
3 53 69 102
3 54 23 27
3 54 27 23
3 54 90 92
3 54 92 90
3 54 92 4
3 54 4 92
3 54 103 74
3 54 74 103
3 55 46 57
3 55 57 46
3 55 57 80
3 55 80 57
3 55 59 99
3 55 99 59
3 55 83 96
3 55 96 83
3 55 89 59
3 55 59 89
3 55 96 89
3 55 89 96
3 55 99 101
3 55 101 99
3 55 100 46
3 55 46 100
3 55 101 100
3 55 100 101
3 56 71 81
3 56 81 71
3 56 76 86
3 56 86 76
3 56 76 98
3 56 98 76
3 56 81 72
3 56 72 81
3 56 87 75
3 56 75 87
3 56 97 71
3 56 71 97
3 56 98 72
3 56 72 98
3 57 80 34
3 57 34 80
3 60 39 51
3 60 51 39
3 60 41 86
3 60 86 41
3 60 76 51
3 60 51 76
3 60 86 76
3 60 76 86
3 61 75 87
3 61 87 75
3 62 38 63
3 62 63 38
3 62 47 37
3 62 37 47
3 63 14 10
3 63 10 14
3 63 14 77
3 63 77 14
3 63 47 62
3 63 62 47
3 63 47 67
3 63 67 47
3 65 97 71
3 65 71 97
3 65 97 75
3 65 75 97
3 66 98 72
3 66 72 98
3 68 33 40
3 68 40 33
3 69 53 22
3 69 22 53
3 70 19 85
3 70 85 19
3 70 85 103
3 70 103 85
3 73 53 90
3 73 90 53
3 74 54 90
3 74 90 54
3 74 90 73
3 74 73 90
3 75 65 50
3 75 50 65
3 76 66 98
3 76 98 66
3 77 84 18
3 77 18 84
3 79 46 57
3 79 57 46
3 81 52 71
3 81 71 52
3 81 72 52
3 81 52 72
3 82 95 20
3 82 20 95
3 83 55 80
3 83 80 55
3 84 69 102
3 84 102 69
3 85 19 78
3 85 78 19
3 86 56 93
3 86 93 56
3 86 93 41
3 86 41 93
3 87 42 61
3 87 61 42
3 87 56 94
3 87 94 56
3 87 94 42
3 87 42 94
3 88 95 46
3 88 46 95
3 91 92 90
3 91 90 92
3 94 56 93
3 94 93 56
3 95 82 46
3 95 46 82
3 96 89 21
3 96 21 89
3 97 75 56
3 97 56 75
3 99 101 100
3 99 100 101
3 103 45 85
3 103 85 45
3 103 70 54
3 103 54 70
