# Generated by dad_to_polygons. Vertex data from Humppa's .off file,
# polygons parsed from .dad file.
COFF
114 396 114
-6.483068 0.995829 6.065242 0.500000 0.500000 0.500000 1.0
-6.483068 -0.995829 6.065242 0.500000 0.500000 0.500000 1.0
-0.030316 -2.095292 5.701173 0.500000 0.500000 0.500000 1.0
7.378770 -0.960874 6.185141 0.500000 0.500000 0.500000 1.0
7.378770 0.960874 6.185141 0.500000 0.500000 0.500000 1.0
-0.030316 2.095292 5.701173 0.500000 0.500000 0.500000 1.0
1.120995 -1.765740 5.854239 0.500000 0.500000 0.500000 1.0
1.120995 1.765740 5.854239 0.500000 0.500000 0.500000 1.0
-1.147700 1.738850 5.834976 0.500000 0.500000 0.500000 1.0
-1.147700 -1.738850 5.834976 0.500000 0.500000 0.500000 1.0
2.031469 -1.444496 6.115658 0.500000 0.500000 0.500000 1.0
2.031469 1.444496 6.115658 0.500000 0.500000 0.500000 1.0
-2.063593 1.440147 6.103179 0.500000 0.500000 0.500000 1.0
-2.063593 -1.440147 6.103179 0.500000 0.500000 0.500000 1.0
3.072156 -1.499989 5.988839 0.500000 0.500000 0.500000 1.0
3.072156 1.499989 5.988839 0.500000 0.500000 0.500000 1.0
-3.046974 1.483480 5.928844 0.500000 0.500000 0.500000 1.0
-3.046974 -1.483480 5.928844 0.500000 0.500000 0.500000 1.0
4.106147 -1.466862 5.921570 0.500000 0.500000 0.500000 1.0
4.106147 1.466862 5.921570 0.500000 0.500000 0.500000 1.0
-4.052133 1.455221 5.890585 0.500000 0.500000 0.500000 1.0
-4.052133 -1.455221 5.890585 0.500000 0.500000 0.500000 1.0
5.080413 -1.272453 6.035986 0.500000 0.500000 0.500000 1.0
5.080413 1.272453 6.035986 0.500000 0.500000 0.500000 1.0
-5.069389 1.305488 5.955724 0.500000 0.500000 0.500000 1.0
-5.069389 -1.305488 5.955724 0.500000 0.500000 0.500000 1.0
6.062813 -1.196759 6.205572 0.500000 0.500000 0.500000 1.0
6.062813 1.196759 6.205572 0.500000 0.500000 0.500000 1.0
-1.026749 -1.710498 4.865858 0.500000 0.500000 0.500000 1.0
-1.947161 0.914717 3.669685 0.500000 0.500000 0.500000 1.0
-1.947161 -0.914717 3.669685 0.500000 0.500000 0.500000 1.0
1.140451 -1.681861 4.653878 0.500000 0.500000 0.500000 1.0
1.140451 1.681861 4.653878 0.500000 0.500000 0.500000 1.0
-2.170448 1.399353 4.957967 0.500000 0.500000 0.500000 1.0
-2.170448 -1.399353 4.957967 0.500000 0.500000 0.500000 1.0
0.042328 -1.816477 4.399590 0.500000 0.500000 0.500000 1.0
0.042328 1.816477 4.399590 0.500000 0.500000 0.500000 1.0
2.389308 1.351471 4.870958 0.500000 0.500000 0.500000 1.0
3.721753 -0.619013 3.310500 1.0 1.0 0.0 1.0
-0.854205 -1.660227 3.895207 0.500000 0.500000 0.500000 1.0
-0.854205 1.660227 3.895207 0.500000 0.500000 0.500000 1.0
-1.501912 -0.977315 2.326179 0.500000 0.500000 0.500000 1.0
-1.501912 0.977315 2.326179 0.500000 0.500000 0.500000 1.0
1.023823 1.643664 3.570834 0.500000 0.500000 0.500000 1.0
1.023823 -1.643664 3.570834 0.500000 0.500000 0.500000 1.0
3.721753 0.619013 3.310500 1.0 1.0 0.0 1.0
-4.202062 0.659535 3.588565 1.0 1.0 0.0 1.0
2.137505 -0.000000 3.969606 0.500000 0.500000 0.500000 1.0
1.435133 1.256986 3.231746 0.500000 0.500000 0.500000 1.0
1.435133 -1.256986 3.231746 0.500000 0.500000 0.500000 1.0
0.136620 1.704912 3.367780 0.500000 0.500000 0.500000 1.0
0.136518 -1.704811 3.367780 0.500000 0.500000 0.500000 1.0
1.695055 -0.000000 2.943232 0.500000 0.500000 0.500000 1.0
5.565712 -1.171012 5.315850 0.500000 0.500000 0.500000 1.0
5.565712 1.171012 5.315850 0.500000 0.500000 0.500000 1.0
-4.202062 -0.659535 3.588565 1.0 1.0 0.0 1.0
0.138098 -0.000000 1.038258 1.0 1.0 0.0 1.0
-2.617764 -0.000000 3.961325 0.500000 0.500000 0.500000 1.0
-5.739158 1.144942 5.267248 0.500000 0.500000 0.500000 1.0
-5.739158 -1.144942 5.267248 0.500000 0.500000 0.500000 1.0
-0.619410 -1.516623 3.063169 0.500000 0.500000 0.500000 1.0
-0.619410 1.516622 3.063170 0.500000 0.500000 0.500000 1.0
2.389487 -0.000000 4.490735 0.500000 0.500000 0.500000 1.0
2.389308 -1.351471 4.870958 0.500000 0.500000 0.500000 1.0
1.631734 1.527211 4.208407 0.500000 0.500000 0.500000 1.0
0.918179 1.500916 2.620280 0.500000 0.500000 0.500000 1.0
0.918179 -1.500916 2.620280 0.500000 0.500000 0.500000 1.0
1.631734 -1.527211 4.208407 0.500000 0.500000 0.500000 1.0
-1.026749 1.710498 4.865858 0.500000 0.500000 0.500000 1.0
4.550483 -1.378103 5.327765 0.500000 0.500000 0.500000 1.0
4.550483 1.378103 5.327765 0.500000 0.500000 0.500000 1.0
1.259315 1.003957 2.294508 0.500000 0.500000 0.500000 1.0
1.259315 -1.003957 2.294508 0.500000 0.500000 0.500000 1.0
5.488924 -0.708741 4.300325 0.500000 0.500000 0.500000 1.0
5.488924 0.708741 4.300325 0.500000 0.500000 0.500000 1.0
0.193080 1.515611 2.387225 0.500000 0.500000 0.500000 1.0
0.193079 -1.515612 2.387225 0.500000 0.500000 0.500000 1.0
3.580543 -1.460889 5.008349 0.500000 0.500000 0.500000 1.0
3.580543 1.460889 5.008349 0.500000 0.500000 0.500000 1.0
-2.987983 1.338081 4.444632 0.500000 0.500000 0.500000 1.0
-2.987983 -1.338081 4.444632 0.500000 0.500000 0.500000 1.0
1.424338 0.000000 2.141804 0.500000 0.500000 0.500000 1.0
-3.535239 1.435917 4.999457 0.500000 0.500000 0.500000 1.0
-3.535239 -1.435917 4.999457 0.500000 0.500000 0.500000 1.0
3.983094 -1.411404 4.800183 0.500000 0.500000 0.500000 1.0
3.983094 1.411404 4.800183 0.500000 0.500000 0.500000 1.0
-0.375062 -1.349782 2.070350 0.500000 0.500000 0.500000 1.0
-0.375062 1.349782 2.070351 0.500000 0.500000 0.500000 1.0
-4.903216 1.230535 4.941863 0.500000 0.500000 0.500000 1.0
-4.903216 -1.230535 4.941863 0.500000 0.500000 0.500000 1.0
6.200265 0.000000 5.050077 0.500000 0.500000 0.500000 1.0
6.910950 -0.658773 5.385291 0.500000 0.500000 0.500000 1.0
6.910950 0.658773 5.385291 0.500000 0.500000 0.500000 1.0
-1.208095 -0.647725 1.557322 0.500000 0.500000 0.500000 1.0
-1.208095 0.647724 1.557322 0.500000 0.500000 0.500000 1.0
-4.137918 1.338868 4.859831 0.500000 0.500000 0.500000 1.0
-4.137918 -1.338868 4.859831 0.500000 0.500000 0.500000 1.0
0.707273 1.057800 1.798321 0.500000 0.500000 0.500000 1.0
0.707272 -1.057800 1.798321 0.500000 0.500000 0.500000 1.0
-5.934452 -0.000000 5.110637 0.500000 0.500000 0.500000 1.0
-5.306523 0.454932 4.238076 0.500000 0.500000 0.500000 1.0
-5.306523 -0.454932 4.238076 0.500000 0.500000 0.500000 1.0
4.239526 -1.231056 4.336859 0.500000 0.500000 0.500000 1.0
4.239526 1.231056 4.336859 0.500000 0.500000 0.500000 1.0
-5.264425 0.926627 4.478976 0.500000 0.500000 0.500000 1.0
-5.264425 -0.926627 4.478976 0.500000 0.500000 0.500000 1.0
2.856691 1.000641 4.118930 0.500000 0.500000 0.500000 1.0
2.856691 -1.000641 4.118930 0.500000 0.500000 0.500000 1.0
6.507441 -1.060215 5.744687 0.500000 0.500000 0.500000 1.0
6.507441 1.060215 5.744687 0.500000 0.500000 0.500000 1.0
4.725028 -0.661143 3.776457 0.500000 0.500000 0.500000 1.0
4.725028 0.661143 3.776457 0.500000 0.500000 0.500000 1.0
0.166083 0.797590 1.698917 0.500000 0.500000 0.500000 1.0
0.166083 -0.797591 1.698917 0.500000 0.500000 0.500000 1.0
3 0 24 58
3 0 58 24
3 1 0 99
3 1 99 0
3 1 59 25
3 1 25 59
3 1 99 59
3 1 59 99
3 2 35 28
3 2 28 35
3 4 91 3
3 4 3 91
3 4 92 91
3 4 91 92
3 4 92 109
3 4 109 92
3 5 32 7
3 5 7 32
3 5 36 68
3 5 68 36
3 6 2 31
3 6 31 2
3 6 31 63
3 6 63 31
3 7 32 37
3 7 37 32
3 8 68 33
3 8 33 68
3 9 28 2
3 9 2 28
3 9 34 28
3 9 28 34
3 10 6 63
3 10 63 6
3 10 63 14
3 10 14 63
3 12 8 33
3 12 33 8
3 13 34 9
3 13 9 34
3 14 77 18
3 14 18 77
3 15 11 37
3 15 37 11
3 15 37 78
3 15 78 37
3 15 78 19
3 15 19 78
3 16 33 12
3 16 12 33
3 17 13 34
3 17 34 13
3 19 70 23
3 19 23 70
3 21 89 25
3 21 25 89
3 21 89 96
3 21 96 89
3 21 96 83
3 21 83 96
3 22 69 18
3 22 18 69
3 23 54 70
3 23 70 54
3 24 20 88
3 24 88 20
3 24 58 88
3 24 88 58
3 25 59 89
3 25 89 59
3 26 22 53
3 26 53 22
3 26 53 108
3 26 108 53
3 26 108 3
3 26 3 108
3 27 4 109
3 27 109 4
3 27 54 109
3 27 109 54
3 29 40 61
3 29 61 40
3 29 41 30
3 29 30 41
3 29 42 41
3 29 41 42
3 29 57 33
3 29 33 57
3 30 29 57
3 30 57 29
3 30 34 57
3 30 57 34
3 30 39 34
3 30 34 39
3 31 67 44
3 31 44 67
3 32 5 36
3 32 36 5
3 32 36 43
3 32 43 36
3 32 37 64
3 32 64 37
3 32 43 64
3 32 64 43
3 33 29 40
3 33 40 29
3 33 40 68
3 33 68 40
3 33 57 79
3 33 79 57
3 33 79 16
3 33 16 79
3 34 17 80
3 34 80 17
3 34 39 28
3 34 28 39
3 34 57 80
3 34 80 57
3 35 2 31
3 35 31 2
3 35 39 28
3 35 28 39
3 35 39 51
3 35 51 39
3 36 43 50
3 36 50 43
3 37 7 11
3 37 11 7
3 37 62 106
3 37 106 62
3 38 45 111
3 38 111 45
3 38 77 107
3 38 107 77
3 38 102 84
3 38 84 102
3 38 111 110
3 38 110 111
3 39 60 30
3 39 30 60
3 39 60 51
3 39 51 60
3 40 50 36
3 40 36 50
3 41 30 60
3 41 60 30
3 41 60 86
3 41 86 60
3 42 61 29
3 42 29 61
3 42 87 61
3 42 61 87
3 42 93 41
3 42 41 93
3 42 94 93
3 42 93 94
3 43 48 64
3 43 64 48
3 43 48 65
3 43 65 48
3 43 65 50
3 43 50 65
3 44 35 31
3 44 31 35
3 44 35 51
3 44 51 35
3 44 66 51
3 44 51 66
3 44 67 49
3 44 49 67
3 45 62 106
3 45 106 62
3 45 78 85
3 45 85 78
3 45 85 103
3 45 103 85
3 45 106 78
3 45 78 106
3 46 57 79
3 46 79 57
3 46 82 95
3 46 95 82
3 46 88 95
3 46 95 88
3 47 37 62
3 47 62 37
3 47 48 52
3 47 52 48
3 47 48 64
3 47 64 48
3 47 62 63
3 47 63 62
3 47 64 37
3 47 37 64
3 47 67 49
3 47 49 67
3 48 52 71
3 48 71 52
3 48 71 65
3 48 65 71
3 49 52 47
3 49 47 52
3 49 66 44
3 49 44 66
3 49 72 52
3 49 52 72
3 49 72 66
3 49 66 72
3 50 61 40
3 50 40 61
3 51 76 66
3 51 66 76
3 52 72 81
3 52 81 72
3 53 22 69
3 53 69 22
3 53 73 90
3 53 90 73
3 53 102 69
3 53 69 102
3 53 102 73
3 53 73 102
3 54 27 23
3 54 23 27
3 54 74 103
3 54 103 74
3 54 90 74
3 54 74 90
3 54 90 109
3 54 109 90
3 54 103 70
3 54 70 103
3 55 57 46
3 55 46 57
3 55 80 57
3 55 57 80
3 55 89 105
3 55 105 89
3 55 96 83
3 55 83 96
3 55 96 89
3 55 89 96
3 55 100 46
3 55 46 100
3 55 101 100
3 55 100 101
3 56 71 97
3 56 97 71
3 56 81 72
3 56 72 81
3 56 112 87
3 56 87 112
3 56 112 97
3 56 97 112
3 56 113 86
3 56 86 113
3 58 99 0
3 58 0 99
3 58 104 88
3 58 88 104
3 59 105 89
3 59 89 105
3 61 87 75
3 61 75 87
3 62 38 107
3 62 107 38
3 62 45 38
3 62 38 45
3 62 107 63
3 62 63 107
3 63 47 67
3 63 67 47
3 63 67 31
3 63 31 67
3 63 77 14
3 63 14 77
3 63 107 77
3 63 77 107
3 65 75 97
3 65 97 75
3 65 97 71
3 65 71 97
3 66 72 98
3 66 98 72
3 68 8 5
3 68 5 8
3 68 36 40
3 68 40 36
3 70 19 85
3 70 85 19
3 70 85 103
3 70 103 85
3 71 52 81
3 71 81 52
3 72 56 98
3 72 98 56
3 73 110 111
3 73 111 110
3 73 111 74
3 73 74 111
3 75 50 61
3 75 61 50
3 75 50 65
3 75 65 50
3 76 51 60
3 76 60 51
3 76 66 98
3 76 98 66
3 76 86 60
3 76 60 86
3 76 113 86
3 76 86 113
3 77 18 84
3 77 84 18
3 78 19 85
3 78 85 19
3 79 46 82
3 79 82 46
3 79 82 16
3 79 16 82
3 80 55 83
3 80 83 55
3 80 83 17
3 80 17 83
3 81 56 71
3 81 71 56
3 82 20 16
3 82 16 20
3 82 95 20
3 82 20 95
3 83 17 21
3 83 21 17
3 84 69 18
3 84 18 69
3 84 77 38
3 84 38 77
3 84 102 69
3 84 69 102
3 86 41 93
3 86 93 41
3 86 93 56
3 86 56 93
3 87 42 94
3 87 94 42
3 87 94 56
3 87 56 94
3 88 95 20
3 88 20 95
3 88 104 46
3 88 46 104
3 90 53 108
3 90 108 53
3 90 74 73
3 90 73 74
3 90 91 92
3 90 92 91
3 90 91 108
3 90 108 91
3 90 92 109
3 90 109 92
3 93 94 56
3 93 56 94
3 97 75 112
3 97 112 75
3 98 76 113
3 98 113 76
3 99 58 104
3 99 104 58
3 99 101 105
3 99 105 101
3 99 104 100
3 99 100 104
3 99 105 59
3 99 59 105
3 100 104 46
3 100 46 104
3 101 100 99
3 101 99 100
3 102 73 110
3 102 110 73
3 102 110 38
3 102 38 110
3 103 74 111
3 103 111 74
3 103 111 45
3 103 45 111
3 105 101 55
3 105 55 101
3 106 37 78
3 106 78 37
3 108 3 91
3 108 91 3
3 112 75 87
3 112 87 75
3 113 56 98
3 113 98 56
