# Generated by dad_to_polygons. Vertex data from Humppa's .off file,
# polygons parsed from .dad file.
COFF
124 434 124
-6.530222 1.049802 6.398662 0.500000 0.500000 0.500000 1.0
-6.530222 -1.049802 6.398662 0.500000 0.500000 0.500000 1.0
-0.031245 -2.154717 6.039954 0.500000 0.500000 0.500000 1.0
7.414868 -0.990694 6.546168 0.500000 0.500000 0.500000 1.0
7.414868 0.990694 6.546168 0.500000 0.500000 0.500000 1.0
-0.031245 2.154717 6.039954 0.500000 0.500000 0.500000 1.0
1.135500 -1.825940 6.191727 0.500000 0.500000 0.500000 1.0
1.135500 1.825940 6.191727 0.500000 0.500000 0.500000 1.0
-1.159431 1.796907 6.174889 0.500000 0.500000 0.500000 1.0
-1.159431 -1.796907 6.174889 0.500000 0.500000 0.500000 1.0
2.044235 -1.504541 6.458986 0.500000 0.500000 0.500000 1.0
2.044235 1.504541 6.458986 0.500000 0.500000 0.500000 1.0
-2.073830 1.498664 6.448651 0.500000 0.500000 0.500000 1.0
-2.073830 -1.498664 6.448651 0.500000 0.500000 0.500000 1.0
3.070920 -1.576087 6.313339 0.500000 0.500000 0.500000 1.0
3.070920 1.576087 6.313339 0.500000 0.500000 0.500000 1.0
-3.049376 1.570047 6.242310 0.500000 0.500000 0.500000 1.0
-3.049376 -1.570047 6.242310 0.500000 0.500000 0.500000 1.0
4.114519 -1.549102 6.238777 0.500000 0.500000 0.500000 1.0
4.114519 1.549102 6.238777 0.500000 0.500000 0.500000 1.0
-4.060534 1.550006 6.194979 0.500000 0.500000 0.500000 1.0
-4.060534 -1.550006 6.194979 0.500000 0.500000 0.500000 1.0
5.083606 -1.339958 6.370576 0.500000 0.500000 0.500000 1.0
5.083606 1.339958 6.370576 0.500000 0.500000 0.500000 1.0
-5.084481 1.384677 6.277130 0.500000 0.500000 0.500000 1.0
-5.084481 -1.384677 6.277130 0.500000 0.500000 0.500000 1.0
6.058646 -1.261855 6.578171 0.500000 0.500000 0.500000 1.0
6.058646 1.261855 6.578171 0.500000 0.500000 0.500000 1.0
-7.421101 -0.000000 6.402044 0.500000 0.500000 0.500000 1.0
-1.936944 0.936807 3.944021 0.500000 0.500000 0.500000 1.0
-1.936951 -0.936804 3.944020 0.500000 0.500000 0.500000 1.0
1.163709 -1.742852 4.965961 0.500000 0.500000 0.500000 1.0
1.163709 1.742852 4.965961 0.500000 0.500000 0.500000 1.0
-2.175721 1.472339 5.276650 0.500000 0.500000 0.500000 1.0
-2.175719 -1.472346 5.276605 0.500000 0.500000 0.500000 1.0
0.044528 -1.875038 4.697115 0.500000 0.500000 0.500000 1.0
0.044533 1.875019 4.697115 0.500000 0.500000 0.500000 1.0
2.417709 1.419390 5.163097 0.500000 0.500000 0.500000 1.0
3.720439 -0.619599 3.310500 1.0 1.0 0.0 1.0
-0.878270 -1.726102 4.189275 0.500000 0.500000 0.500000 1.0
-0.878250 1.726104 4.189254 0.500000 0.500000 0.500000 1.0
-1.513232 -0.984861 2.575014 0.500000 0.500000 0.500000 1.0
-1.513232 0.984860 2.575013 0.500000 0.500000 0.500000 1.0
1.051466 1.707715 3.863726 0.500000 0.500000 0.500000 1.0
1.051466 -1.707715 3.863726 0.500000 0.500000 0.500000 1.0
3.720439 0.619599 3.310500 1.0 1.0 0.0 1.0
-4.192842 0.659685 3.588565 1.0 1.0 0.0 1.0
2.136355 0.000000 4.251836 0.500000 0.500000 0.500000 1.0
1.458792 1.315657 3.502505 0.500000 0.500000 0.500000 1.0
1.458792 -1.315657 3.502505 0.500000 0.500000 0.500000 1.0
0.140611 1.767879 3.636801 0.500000 0.500000 0.500000 1.0
0.140550 -1.767906 3.636801 0.500000 0.500000 0.500000 1.0
1.712681 0.000001 3.185039 0.500000 0.500000 0.500000 1.0
5.564140 -1.239017 5.615417 0.500000 0.500000 0.500000 1.0
5.564140 1.239017 5.615417 0.500000 0.500000 0.500000 1.0
-4.192842 -0.659685 3.588565 1.0 1.0 0.0 1.0
0.143153 -0.000000 1.038258 1.0 1.0 0.0 1.0
-2.599569 0.000034 4.239482 0.500000 0.500000 0.500000 1.0
-5.761618 1.211553 5.615900 0.500000 0.500000 0.500000 1.0
-5.761618 -1.211553 5.615900 0.500000 0.500000 0.500000 1.0
-0.642607 -1.566509 3.296437 0.500000 0.500000 0.500000 1.0
-0.642607 1.566506 3.296437 0.500000 0.500000 0.500000 1.0
2.417494 0.000000 4.737242 0.500000 0.500000 0.500000 1.0
2.417709 -1.419390 5.163097 0.500000 0.500000 0.500000 1.0
1.662796 1.591174 4.498152 0.500000 0.500000 0.500000 1.0
0.944184 1.574500 2.894648 0.500000 0.500000 0.500000 1.0
0.944230 -1.574600 2.894648 0.500000 0.500000 0.500000 1.0
1.662796 -1.591174 4.498152 0.500000 0.500000 0.500000 1.0
-1.028873 1.770002 5.172034 0.500000 0.500000 0.500000 1.0
4.550688 -1.454943 5.644824 0.500000 0.500000 0.500000 1.0
4.550688 1.454942 5.644824 0.500000 0.500000 0.500000 1.0
1.297813 1.088798 2.544896 0.500000 0.500000 0.500000 1.0
1.297813 -1.088797 2.544896 0.500000 0.500000 0.500000 1.0
5.564633 -0.741050 4.587394 0.500000 0.500000 0.500000 1.0
5.564634 0.741050 4.587394 0.500000 0.500000 0.500000 1.0
0.236715 1.618649 2.631485 0.500000 0.500000 0.500000 1.0
0.236716 -1.618650 2.631485 0.500000 0.500000 0.500000 1.0
3.604273 -1.555139 5.319685 0.500000 0.500000 0.500000 1.0
3.604273 1.555139 5.319685 0.500000 0.500000 0.500000 1.0
-2.961119 1.464068 4.711031 0.500000 0.500000 0.500000 1.0
-2.961086 -1.464069 4.711055 0.500000 0.500000 0.500000 1.0
1.458400 0.000135 2.336651 0.500000 0.500000 0.500000 1.0
-3.558647 1.546717 5.271674 0.500000 0.500000 0.500000 1.0
-3.558647 -1.546717 5.271674 0.500000 0.500000 0.500000 1.0
3.977385 -1.521638 5.038954 0.500000 0.500000 0.500000 1.0
3.977385 1.521638 5.038954 0.500000 0.500000 0.500000 1.0
-0.425648 -1.435288 2.277745 0.500000 0.500000 0.500000 1.0
-0.425648 1.435288 2.277746 0.500000 0.500000 0.500000 1.0
-4.968895 1.317960 5.199039 0.500000 0.500000 0.500000 1.0
-4.968895 -1.317960 5.199039 0.500000 0.500000 0.500000 1.0
6.364395 0.000000 5.368734 0.500000 0.500000 0.500000 1.0
6.926263 -0.814799 5.637082 0.500000 0.500000 0.500000 1.0
6.926263 0.814799 5.637082 0.500000 0.500000 0.500000 1.0
-1.390322 -0.655963 1.718740 0.500000 0.500000 0.500000 1.0
-1.390322 0.655963 1.718740 0.500000 0.500000 0.500000 1.0
-4.153343 1.454478 5.097283 0.500000 0.500000 0.500000 1.0
-4.153343 -1.454478 5.097283 0.500000 0.500000 0.500000 1.0
0.808771 1.256079 1.992856 0.500000 0.500000 0.500000 1.0
0.808772 -1.256078 1.992857 0.500000 0.500000 0.500000 1.0
-6.130518 -0.000000 5.380269 0.500000 0.500000 0.500000 1.0
-5.528765 0.568639 4.370662 0.500000 0.500000 0.500000 1.0
-5.528765 -0.568639 4.370662 0.500000 0.500000 0.500000 1.0
4.414048 -1.451032 4.633596 0.500000 0.500000 0.500000 1.0
4.414048 1.451032 4.633596 0.500000 0.500000 0.500000 1.0
-5.461407 0.941733 4.746403 0.500000 0.500000 0.500000 1.0
-5.461407 -0.941733 4.746403 0.500000 0.500000 0.500000 1.0
2.761629 1.042140 4.339293 0.500000 0.500000 0.500000 1.0
2.761629 -1.042140 4.339293 0.500000 0.500000 0.500000 1.0
6.579953 -1.119132 6.099602 0.500000 0.500000 0.500000 1.0
6.579953 1.119132 6.099602 0.500000 0.500000 0.500000 1.0
5.125553 -0.663344 3.823039 0.500000 0.500000 0.500000 1.0
5.125553 0.663344 3.823039 0.500000 0.500000 0.500000 1.0
0.134481 1.191079 1.775879 1.000000 1.000000 1.000000 1.0
0.134481 -1.191079 1.775879 1.000000 1.000000 1.000000 1.0
-1.028884 -1.769999 5.172035 0.500000 0.500000 0.500000 1.0
1.019434 0.674940 1.784981 1.000000 1.000000 1.000000 1.0
1.019434 -0.674940 1.784981 1.000000 1.000000 1.000000 1.0
3.560639 -1.210457 4.288414 0.500000 0.500000 0.500000 1.0
3.560639 1.210457 4.288414 0.500000 0.500000 0.500000 1.0
-1.603913 -0.000000 2.576623 0.500000 0.500000 0.500000 1.0
3.022526 -0.302482 4.003640 0.500000 0.500000 0.500000 1.0
3.022526 0.302482 4.003640 0.500000 0.500000 0.500000 1.0
-3.870714 1.108342 4.429244 0.500000 0.500000 0.500000 1.0
-3.870714 -1.108342 4.429244 0.500000 0.500000 0.500000 1.0
3 0 58 99
3 0 99 58
3 0 99 28
3 0 28 99
3 1 28 99
3 1 99 28
3 1 59 99
3 1 99 59
3 2 31 35
3 2 35 31
3 2 114 9
3 2 9 114
3 2 114 35
3 2 35 114
3 3 4 92
3 3 92 4
3 3 92 91
3 3 91 92
3 5 32 36
3 5 36 32
3 5 36 68
3 5 68 36
3 6 2 31
3 6 31 2
3 6 31 63
3 6 63 31
3 7 32 5
3 7 5 32
3 7 37 32
3 7 32 37
3 10 14 63
3 10 63 14
3 11 7 37
3 11 37 7
3 12 8 33
3 12 33 8
3 13 34 9
3 13 9 34
3 14 18 77
3 14 77 18
3 14 77 63
3 14 63 77
3 15 11 37
3 15 37 11
3 15 37 78
3 15 78 37
3 15 78 19
3 15 19 78
3 16 12 33
3 16 33 12
3 16 82 20
3 16 20 82
3 16 82 79
3 16 79 82
3 17 34 13
3 17 13 34
3 17 80 34
3 17 34 80
3 17 83 80
3 17 80 83
3 18 69 22
3 18 22 69
3 18 84 69
3 18 69 84
3 19 23 70
3 19 70 23
3 19 70 85
3 19 85 70
3 20 24 88
3 20 88 24
3 20 82 95
3 20 95 82
3 20 95 88
3 20 88 95
3 21 83 17
3 21 17 83
3 21 96 83
3 21 83 96
3 22 26 53
3 22 53 26
3 24 0 58
3 24 58 0
3 25 1 59
3 25 59 1
3 25 89 21
3 25 21 89
3 26 108 3
3 26 3 108
3 27 4 109
3 27 109 4
3 27 23 54
3 27 54 23
3 27 109 54
3 27 54 109
3 29 40 33
3 29 33 40
3 29 42 61
3 29 61 42
3 29 57 33
3 29 33 57
3 29 119 30
3 29 30 119
3 29 119 42
3 29 42 119
3 30 29 57
3 30 57 29
3 30 34 57
3 30 57 34
3 30 39 34
3 30 34 39
3 30 41 119
3 30 119 41
3 30 60 41
3 30 41 60
3 31 63 67
3 31 67 63
3 32 36 43
3 32 43 36
3 32 37 64
3 32 64 37
3 32 43 64
3 32 64 43
3 33 40 68
3 33 68 40
3 33 57 79
3 33 79 57
3 33 68 8
3 33 8 68
3 33 79 16
3 33 16 79
3 34 114 39
3 34 39 114
3 35 44 31
3 35 31 44
3 35 114 39
3 35 39 114
3 36 43 50
3 36 50 43
3 37 47 62
3 37 62 47
3 37 106 62
3 37 62 106
3 37 106 78
3 37 78 106
3 38 84 117
3 38 117 84
3 39 30 60
3 39 60 30
3 39 35 51
3 39 51 35
3 39 60 51
3 39 51 60
3 40 50 36
3 40 36 50
3 40 68 36
3 40 36 68
3 41 56 86
3 41 86 56
3 41 93 56
3 41 56 93
3 42 94 119
3 42 119 94
3 43 65 50
3 43 50 65
3 44 31 67
3 44 67 31
3 44 35 51
3 44 51 35
3 45 38 110
3 45 110 38
3 45 62 121
3 45 121 62
3 45 74 111
3 45 111 74
3 45 103 74
3 45 74 103
3 45 106 62
3 45 62 106
3 45 106 118
3 45 118 106
3 45 110 111
3 45 111 110
3 45 118 85
3 45 85 118
3 45 120 38
3 45 38 120
3 45 121 120
3 45 120 121
3 46 55 101
3 46 101 55
3 46 57 79
3 46 79 57
3 46 79 122
3 46 122 79
3 46 88 104
3 46 104 88
3 46 101 100
3 46 100 101
3 47 49 52
3 47 52 49
3 47 62 63
3 47 63 62
3 47 63 67
3 47 67 63
3 47 64 37
3 47 37 64
3 48 52 47
3 48 47 52
3 48 52 71
3 48 71 52
3 48 64 43
3 48 43 64
3 48 65 43
3 48 43 65
3 48 71 65
3 48 65 71
3 49 44 66
3 49 66 44
3 49 66 72
3 49 72 66
3 49 67 44
3 49 44 67
3 49 72 52
3 49 52 72
3 50 65 75
3 50 75 65
3 50 75 61
3 50 61 75
3 51 60 76
3 51 76 60
3 51 66 44
3 51 44 66
3 51 76 66
3 51 66 76
3 53 73 90
3 53 90 73
3 53 90 108
3 53 108 90
3 53 102 69
3 53 69 102
3 53 102 73
3 53 73 102
3 53 108 26
3 53 26 108
3 54 23 70
3 54 70 23
3 54 70 103
3 54 103 70
3 54 90 74
3 54 74 90
3 54 90 109
3 54 109 90
3 55 46 57
3 55 57 46
3 55 57 80
3 55 80 57
3 55 80 123
3 55 123 80
3 55 89 105
3 55 105 89
3 55 96 89
3 55 89 96
3 55 105 101
3 55 101 105
3 55 123 96
3 55 96 123
3 56 81 115
3 56 115 81
3 56 98 116
3 56 116 98
3 56 113 98
3 56 98 113
3 57 80 34
3 57 34 80
3 58 99 104
3 58 104 99
3 59 25 89
3 59 89 25
3 60 41 86
3 60 86 41
3 60 76 86
3 60 86 76
3 61 40 29
3 61 29 40
3 61 42 87
3 61 87 42
3 61 50 40
3 61 40 50
3 61 87 75
3 61 75 87
3 62 107 63
3 62 63 107
3 62 121 120
3 62 120 121
3 63 6 10
3 63 10 6
3 63 77 107
3 63 107 77
3 64 48 47
3 64 47 48
3 65 97 75
3 65 75 97
3 66 98 72
3 66 72 98
3 66 98 76
3 66 76 98
3 67 47 49
3 67 49 47
3 68 8 5
3 68 5 8
3 69 53 22
3 69 22 53
3 69 102 84
3 69 84 102
3 70 85 103
3 70 103 85
3 71 65 97
3 71 97 65
3 74 73 110
3 74 110 73
3 74 110 111
3 74 111 110
3 75 97 112
3 75 112 97
3 75 112 87
3 75 87 112
3 76 98 113
3 76 113 98
3 76 113 86
3 76 86 113
3 77 84 117
3 77 117 84
3 78 85 19
3 78 19 85
3 78 118 85
3 78 85 118
3 78 118 106
3 78 106 118
3 79 82 122
3 79 122 82
3 81 52 71
3 81 71 52
3 81 52 72
3 81 72 52
3 81 72 116
3 81 116 72
3 81 115 71
3 81 71 115
3 82 95 122
3 82 122 95
3 83 123 80
3 83 80 123
3 84 18 77
3 84 77 18
3 85 45 103
3 85 103 45
3 87 56 94
3 87 94 56
3 87 94 42
3 87 42 94
3 88 24 58
3 88 58 24
3 88 95 46
3 88 46 95
3 89 21 96
3 89 96 21
3 90 74 73
3 90 73 74
3 90 92 91
3 90 91 92
3 90 108 91
3 90 91 108
3 90 109 92
3 90 92 109
3 91 108 3
3 91 3 108
3 92 4 109
3 92 109 4
3 93 94 119
3 93 119 94
3 94 93 56
3 94 56 93
3 95 46 122
3 95 122 46
3 97 56 112
3 97 112 56
3 97 115 56
3 97 56 115
3 98 116 72
3 98 72 116
3 99 100 101
3 99 101 100
3 99 100 104
3 99 104 100
3 99 105 59
3 99 59 105
3 100 46 104
3 100 104 46
3 101 99 105
3 101 105 99
3 102 38 110
3 102 110 38
3 102 84 38
3 102 38 84
3 102 110 73
3 102 73 110
3 103 54 74
3 103 74 54
3 104 88 58
3 104 58 88
3 105 89 59
3 105 59 89
3 107 38 120
3 107 120 38
3 107 120 62
3 107 62 120
3 112 87 56
3 112 56 87
3 113 86 56
3 113 56 86
3 114 34 9
3 114 9 34
3 115 71 97
3 115 97 71
3 116 81 56
3 116 56 81
3 117 107 38
3 117 38 107
3 117 107 77
3 117 77 107
3 119 93 41
3 119 41 93
3 123 96 83
3 123 83 96
