# Generated by dad_to_polygons. Vertex data from Humppa's .off file,
# polygons parsed from .dad file.
COFF
135 476 135
-6.562461 1.107118 6.736729 0.500000 0.500000 0.500000 1.0
-6.562461 -1.107118 6.736729 0.500000 0.500000 0.500000 1.0
-0.032193 -2.212412 6.378956 0.500000 0.500000 0.500000 1.0
7.445727 -1.019955 6.910304 0.500000 0.500000 0.500000 1.0
7.445727 1.019955 6.910304 0.500000 0.500000 0.500000 1.0
-0.032193 2.212412 6.378956 0.500000 0.500000 0.500000 1.0
1.149352 -1.883349 6.530575 0.500000 0.500000 0.500000 1.0
1.149352 1.883349 6.530575 0.500000 0.500000 0.500000 1.0
-1.170797 1.854097 6.514202 0.500000 0.500000 0.500000 1.0
-1.170797 -1.854097 6.514202 0.500000 0.500000 0.500000 1.0
2.055804 -1.561041 6.804457 0.500000 0.500000 0.500000 1.0
2.055804 1.561041 6.804457 0.500000 0.500000 0.500000 1.0
-2.083584 1.556214 6.793662 0.500000 0.500000 0.500000 1.0
-2.083584 -1.556214 6.793662 0.500000 0.500000 0.500000 1.0
3.069050 -1.645660 6.642468 0.500000 0.500000 0.500000 1.0
3.069050 1.645660 6.642468 0.500000 0.500000 0.500000 1.0
-3.049869 1.653588 6.556626 0.500000 0.500000 0.500000 1.0
-3.049869 -1.653588 6.556626 0.500000 0.500000 0.500000 1.0
4.123721 -1.625072 6.560101 0.500000 0.500000 0.500000 1.0
4.123721 1.625072 6.560101 0.500000 0.500000 0.500000 1.0
-4.068848 1.640322 6.501433 0.500000 0.500000 0.500000 1.0
-4.068848 -1.640322 6.501433 0.500000 0.500000 0.500000 1.0
5.090729 -1.403779 6.707712 0.500000 0.500000 0.500000 1.0
5.090729 1.403779 6.707712 0.500000 0.500000 0.500000 1.0
-5.099524 1.458802 6.601509 0.500000 0.500000 0.500000 1.0
-5.099524 -1.458802 6.601509 0.500000 0.500000 0.500000 1.0
6.060680 -1.317326 6.940803 0.500000 0.500000 0.500000 1.0
6.060680 1.317326 6.940803 0.500000 0.500000 0.500000 1.0
-7.670161 0.000000 6.745696 0.500000 0.500000 0.500000 1.0
7.936579 -0.000000 6.909951 0.500000 0.500000 0.500000 1.0
-1.926885 -0.970681 4.216296 0.500000 0.500000 0.500000 1.0
1.181317 -1.801064 5.279618 0.500000 0.500000 0.500000 1.0
1.181316 1.801064 5.279618 0.500000 0.500000 0.500000 1.0
-2.164114 1.539865 5.611805 0.500000 0.500000 0.500000 1.0
-2.164115 -1.539864 5.611803 0.500000 0.500000 0.500000 1.0
0.046334 -1.932253 4.995703 0.500000 0.500000 0.500000 1.0
0.046329 1.932427 4.995703 0.500000 0.500000 0.500000 1.0
2.437788 1.478786 5.460949 0.500000 0.500000 0.500000 1.0
3.734366 -0.619290 3.310500 1.0 1.0 0.0 1.0
-0.893884 -1.790013 4.487220 0.500000 0.500000 0.500000 1.0
-0.893883 1.790013 4.487221 0.500000 0.500000 0.500000 1.0
-1.500702 -0.924208 2.822256 0.500000 0.500000 0.500000 1.0
-1.500702 0.924207 2.822256 0.500000 0.500000 0.500000 1.0
1.074162 1.767766 4.159579 0.500000 0.500000 0.500000 1.0
1.074162 -1.767767 4.159579 0.500000 0.500000 0.500000 1.0
3.734366 0.619290 3.310500 1.0 1.0 0.0 1.0
-4.200745 0.659596 3.588565 1.0 1.0 0.0 1.0
2.061565 0.000000 4.606786 0.500000 0.500000 0.500000 1.0
1.460020 1.364232 3.777597 0.500000 0.500000 0.500000 1.0
1.459993 -1.364244 3.777611 0.500000 0.500000 0.500000 1.0
0.145515 1.827986 3.906933 0.500000 0.500000 0.500000 1.0
0.145462 -1.827980 3.906929 0.500000 0.500000 0.500000 1.0
1.679029 0.000003 3.422367 0.500000 0.500000 0.500000 1.0
5.564526 -1.298946 5.920000 0.500000 0.500000 0.500000 1.0
5.564519 1.298949 5.920000 0.500000 0.500000 0.500000 1.0
-4.200745 -0.659597 3.588565 1.0 1.0 0.0 1.0
0.157162 -0.000000 1.038258 1.0 1.0 0.0 1.0
-2.564089 0.000000 4.518522 0.500000 0.500000 0.500000 1.0
-5.783562 1.269988 5.947332 0.500000 0.500000 0.500000 1.0
-5.783562 -1.269988 5.947332 0.500000 0.500000 0.500000 1.0
-0.671177 -1.607265 3.503344 0.500000 0.500000 0.500000 1.0
-0.671176 1.607264 3.503343 0.500000 0.500000 0.500000 1.0
2.437725 0.000000 5.015278 0.500000 0.500000 0.500000 1.0
2.437789 -1.478787 5.460949 0.500000 0.500000 0.500000 1.0
1.688555 1.649191 4.790650 0.500000 0.500000 0.500000 1.0
0.953150 1.628906 3.165975 0.500000 0.500000 0.500000 1.0
0.953161 -1.628794 3.165965 0.500000 0.500000 0.500000 1.0
1.688555 -1.649191 4.790650 0.500000 0.500000 0.500000 1.0
-1.019904 1.831102 5.475522 0.500000 0.500000 0.500000 1.0
4.553964 -1.526478 5.965245 0.500000 0.500000 0.500000 1.0
4.553959 1.526485 5.965245 0.500000 0.500000 0.500000 1.0
1.287747 1.145339 2.788811 0.500000 0.500000 0.500000 1.0
1.287747 -1.145339 2.788811 0.500000 0.500000 0.500000 1.0
5.624106 -0.777468 4.852280 0.500000 0.500000 0.500000 1.0
5.624106 0.777468 4.852280 0.500000 0.500000 0.500000 1.0
0.248381 1.683032 2.875736 0.500000 0.500000 0.500000 1.0
0.248240 -1.682882 2.875736 0.500000 0.500000 0.500000 1.0
3.618707 -1.634745 5.637893 0.500000 0.500000 0.500000 1.0
3.618707 1.634735 5.637893 0.500000 0.500000 0.500000 1.0
-2.917362 1.591969 5.009858 0.500000 0.500000 0.500000 1.0
-2.917366 -1.591970 5.009860 0.500000 0.500000 0.500000 1.0
1.439892 0.000004 2.523918 0.500000 0.500000 0.500000 1.0
-3.573950 1.646451 5.565929 0.500000 0.500000 0.500000 1.0
-3.573950 -1.646451 5.565930 0.500000 0.500000 0.500000 1.0
3.994805 -1.600966 5.301508 0.500000 0.500000 0.500000 1.0
3.994842 1.600915 5.301508 0.500000 0.500000 0.500000 1.0
-0.468187 -1.461810 2.471055 1.000000 1.000000 1.000000 1.0
-0.468187 1.461810 2.471055 1.000000 1.000000 1.000000 1.0
-5.027480 1.393516 5.470031 0.500000 0.500000 0.500000 1.0
-5.027480 -1.393516 5.470031 0.500000 0.500000 0.500000 1.0
6.454825 -0.000000 5.700939 0.500000 0.500000 0.500000 1.0
7.022968 -0.816391 5.986789 0.500000 0.500000 0.500000 1.0
7.022968 0.816391 5.986789 0.500000 0.500000 0.500000 1.0
-1.570595 -0.516715 1.940682 1.000000 1.000000 1.000000 1.0
-1.570594 0.516715 1.940682 1.000000 1.000000 1.000000 1.0
-4.152900 1.557069 5.322605 0.500000 0.500000 0.500000 1.0
-4.152900 -1.557069 5.322605 0.500000 0.500000 0.500000 1.0
0.863905 1.402290 2.217157 1.000000 1.000000 1.000000 1.0
0.863905 -1.402289 2.217157 1.000000 1.000000 1.000000 1.0
-6.285005 -0.000000 5.670116 0.500000 0.500000 0.500000 1.0
-5.735048 0.645492 4.578276 0.500000 0.500000 0.500000 1.0
-5.735048 -0.645492 4.578276 0.500000 0.500000 0.500000 1.0
4.489748 -1.515408 4.891180 0.500000 0.500000 0.500000 1.0
4.489749 1.515413 4.891180 0.500000 0.500000 0.500000 1.0
-5.576134 0.993502 4.998431 0.500000 0.500000 0.500000 1.0
-5.576133 -0.993502 4.998430 0.500000 0.500000 0.500000 1.0
2.733223 1.067326 4.654098 0.500000 0.500000 0.500000 1.0
2.733223 -1.067326 4.654098 0.500000 0.500000 0.500000 1.0
6.653760 -1.148206 6.430860 0.500000 0.500000 0.500000 1.0
6.653760 1.148206 6.430860 0.500000 0.500000 0.500000 1.0
5.394240 -0.699670 3.991752 0.500000 0.500000 0.500000 1.0
5.394240 0.699670 3.991752 0.500000 0.500000 0.500000 1.0
0.182948 1.412062 1.965819 1.000000 1.000000 1.000000 1.0
0.182948 -1.412062 1.965819 1.000000 1.000000 1.000000 1.0
-1.019905 -1.831102 5.475523 0.500000 0.500000 0.500000 1.0
1.147710 0.849622 1.985292 1.000000 1.000000 1.000000 1.0
1.147709 -0.849622 1.985292 1.000000 1.000000 1.000000 1.0
3.466944 -1.381101 4.483236 0.500000 0.500000 0.500000 1.0
3.466944 1.381101 4.483236 0.500000 0.500000 0.500000 1.0
-1.865231 -0.000000 2.847175 0.500000 0.500000 0.500000 1.0
2.801753 -0.303950 4.005676 0.500000 0.500000 0.500000 1.0
2.801753 0.303950 4.005676 0.500000 0.500000 0.500000 1.0
-3.740684 1.351567 4.544589 0.500000 0.500000 0.500000 1.0
-3.740682 -1.351568 4.544591 0.500000 0.500000 0.500000 1.0
-0.382067 -0.950749 1.743071 1.000000 1.000000 1.000000 1.0
-0.382067 0.950749 1.743072 1.000000 1.000000 1.000000 1.0
3.883320 -1.351737 4.318972 0.500000 0.500000 0.500000 1.0
3.883320 1.351738 4.318972 0.500000 0.500000 0.500000 1.0
-1.926883 0.970681 4.216298 0.500000 0.500000 0.500000 1.0
-4.782939 1.144342 4.565563 0.500000 0.500000 0.500000 1.0
-4.782939 -1.144342 4.565563 0.500000 0.500000 0.500000 1.0
-3.439192 1.158242 4.271571 0.500000 0.500000 0.500000 1.0
-3.439194 -1.158244 4.271571 0.500000 0.500000 0.500000 1.0
-0.731325 -0.259636 1.482126 1.000000 1.000000 1.000000 1.0
-0.731325 0.259636 1.482126 1.000000 1.000000 1.000000 1.0
3 0 58 99
3 0 99 58
3 0 99 28
3 0 28 99
3 1 99 59
3 1 59 99
3 2 35 31
3 2 31 35
3 2 35 114
3 2 114 35
3 4 27 109
3 4 109 27
3 4 29 92
3 4 92 29
3 5 7 32
3 5 32 7
3 5 8 68
3 5 68 8
3 5 32 36
3 5 36 32
3 5 36 68
3 5 68 36
3 6 2 31
3 6 31 2
3 7 32 37
3 7 37 32
3 8 33 12
3 8 12 33
3 9 13 34
3 9 34 13
3 10 63 6
3 10 6 63
3 11 15 37
3 11 37 15
3 11 37 7
3 11 7 37
3 13 17 34
3 13 34 17
3 14 10 63
3 14 63 10
3 14 63 77
3 14 77 63
3 14 77 18
3 14 18 77
3 16 33 12
3 16 12 33
3 16 79 33
3 16 33 79
3 17 80 34
3 17 34 80
3 17 83 80
3 17 80 83
3 18 84 69
3 18 69 84
3 19 15 78
3 19 78 15
3 19 78 85
3 19 85 78
3 20 24 88
3 20 88 24
3 20 82 95
3 20 95 82
3 20 95 88
3 20 88 95
3 22 53 26
3 22 26 53
3 23 19 70
3 23 70 19
3 23 54 70
3 23 70 54
3 25 1 59
3 25 59 1
3 25 59 89
3 25 89 59
3 25 89 21
3 25 21 89
3 26 53 108
3 26 108 53
3 27 54 23
3 27 23 54
3 29 91 92
3 29 92 91
3 30 39 60
3 30 60 39
3 30 41 60
3 30 60 41
3 30 57 34
3 30 34 57
3 30 119 41
3 30 41 119
3 30 119 128
3 30 128 119
3 30 128 57
3 30 57 128
3 31 63 6
3 31 6 63
3 31 67 44
3 31 44 67
3 32 37 64
3 32 64 37
3 32 43 36
3 32 36 43
3 32 43 64
3 32 64 43
3 33 40 128
3 33 128 40
3 33 57 79
3 33 79 57
3 34 9 114
3 34 114 9
3 34 39 30
3 34 30 39
3 34 80 57
3 34 57 80
3 34 114 39
3 34 39 114
3 35 44 31
3 35 31 44
3 36 40 68
3 36 68 40
3 36 43 50
3 36 50 43
3 37 15 78
3 37 78 15
3 37 47 64
3 37 64 47
3 37 62 47
3 37 47 62
3 37 106 62
3 37 62 106
3 38 73 102
3 38 102 73
3 38 110 73
3 38 73 110
3 38 110 111
3 38 111 110
3 38 111 45
3 38 45 111
3 38 117 126
3 38 126 117
3 39 51 60
3 39 60 51
3 40 36 50
3 40 50 36
3 40 50 61
3 40 61 50
3 40 68 33
3 40 33 68
3 41 60 86
3 41 86 60
3 41 93 124
3 41 124 93
3 42 87 61
3 42 61 87
3 42 94 119
3 42 119 94
3 42 94 125
3 42 125 94
3 42 119 128
3 42 128 119
3 42 125 87
3 42 87 125
3 43 48 65
3 43 65 48
3 43 65 50
3 43 50 65
3 44 51 66
3 44 66 51
3 45 74 111
3 45 111 74
3 45 103 74
3 45 74 103
3 45 106 118
3 45 118 106
3 45 118 127
3 45 127 118
3 45 120 38
3 45 38 120
3 45 121 120
3 45 120 121
3 46 55 57
3 46 57 55
3 46 57 131
3 46 131 57
3 46 100 101
3 46 101 100
3 46 101 55
3 46 55 101
3 46 122 131
3 46 131 122
3 46 129 95
3 46 95 129
3 47 48 64
3 47 64 48
3 47 67 63
3 47 63 67
3 48 43 64
3 48 64 43
3 48 47 52
3 48 52 47
3 48 52 71
3 48 71 52
3 49 44 66
3 49 66 44
3 49 52 47
3 49 47 52
3 49 67 47
3 49 47 67
3 50 75 61
3 50 61 75
3 50 75 65
3 50 65 75
3 51 35 39
3 51 39 35
3 51 35 44
3 51 44 35
3 51 60 76
3 51 76 60
3 51 76 66
3 51 66 76
3 52 72 81
3 52 81 72
3 52 81 71
3 52 71 81
3 53 69 22
3 53 22 69
3 53 90 73
3 53 73 90
3 53 90 108
3 53 108 90
3 53 102 69
3 53 69 102
3 53 102 73
3 53 73 102
3 54 27 109
3 54 109 27
3 54 74 90
3 54 90 74
3 54 103 70
3 54 70 103
3 54 103 74
3 54 74 103
3 54 109 90
3 54 90 109
3 55 101 105
3 55 105 101
3 55 132 57
3 55 57 132
3 56 93 133
3 56 133 93
3 56 115 81
3 56 81 115
3 56 124 93
3 56 93 124
3 57 80 132
3 57 132 80
3 57 131 79
3 57 79 131
3 58 0 24
3 58 24 0
3 58 104 88
3 58 88 104
3 59 105 99
3 59 99 105
3 60 76 86
3 60 86 76
3 62 120 121
3 62 121 120
3 63 62 47
3 63 47 62
3 63 62 107
3 63 107 62
3 63 67 31
3 63 31 67
3 63 107 77
3 63 77 107
3 65 71 48
3 65 48 71
3 65 71 97
3 65 97 71
3 65 97 75
3 65 75 97
3 66 49 72
3 66 72 49
3 67 44 49
3 67 49 44
3 68 33 8
3 68 8 33
3 69 22 18
3 69 18 22
3 70 85 19
3 70 19 85
3 70 103 85
3 70 85 103
3 72 52 49
3 72 49 52
3 72 81 116
3 72 116 81
3 73 90 74
3 73 74 90
3 74 73 110
3 74 110 73
3 74 110 111
3 74 111 110
3 75 87 61
3 75 61 87
3 76 86 113
3 76 113 86
3 76 98 66
3 76 66 98
3 77 84 18
3 77 18 84
3 77 117 84
3 77 84 117
3 78 85 118
3 78 118 85
3 78 106 37
3 78 37 106
3 78 118 106
3 78 106 118
3 79 122 82
3 79 82 122
3 82 16 20
3 82 20 16
3 82 79 16
3 82 16 79
3 82 122 95
3 82 95 122
3 83 21 17
3 83 17 21
3 83 80 123
3 83 123 80
3 84 69 102
3 84 102 69
3 84 102 126
3 84 126 102
3 85 118 127
3 85 127 118
3 85 127 103
3 85 103 127
3 86 41 124
3 86 124 41
3 86 113 124
3 86 124 113
3 87 75 112
3 87 112 75
3 88 24 58
3 88 58 24
3 88 129 95
3 88 95 129
3 89 21 96
3 89 96 21
3 89 96 130
3 89 130 96
3 89 105 130
3 89 130 105
3 90 109 92
3 90 92 109
3 91 29 3
3 91 3 29
3 91 92 90
3 91 90 92
3 91 108 3
3 91 3 108
3 93 41 119
3 93 119 41
3 93 94 134
3 93 134 94
3 93 134 133
3 93 133 134
3 94 119 93
3 94 93 119
3 95 46 122
3 95 122 46
3 96 21 83
3 96 83 21
3 96 55 123
3 96 123 55
3 96 55 130
3 96 130 55
3 97 71 115
3 97 115 71
3 97 75 112
3 97 112 75
3 97 112 56
3 97 56 112
3 98 56 113
3 98 113 56
3 98 72 66
3 98 66 72
3 98 113 76
3 98 76 113
3 98 116 56
3 98 56 116
3 99 1 28
3 99 28 1
3 99 58 104
3 99 104 58
3 99 101 100
3 99 100 101
3 100 99 104
3 100 104 99
3 100 104 46
3 100 46 104
3 101 99 105
3 101 105 99
3 103 45 127
3 103 127 45
3 104 88 129
3 104 129 88
3 105 89 59
3 105 59 89
3 106 45 121
3 106 121 45
3 106 121 62
3 106 62 121
3 107 38 117
3 107 117 38
3 107 38 120
3 107 120 38
3 107 117 77
3 107 77 117
3 107 120 62
3 107 62 120
3 108 26 3
3 108 3 26
3 108 91 90
3 108 90 91
3 109 4 92
3 109 92 4
3 112 56 125
3 112 125 56
3 112 125 87
3 112 87 125
3 113 56 124
3 113 124 56
3 114 9 2
3 114 2 9
3 114 39 35
3 114 35 39
3 115 71 81
3 115 81 71
3 115 97 56
3 115 56 97
3 116 72 98
3 116 98 72
3 116 81 56
3 116 56 81
3 122 131 79
3 122 79 131
3 123 83 96
3 123 96 83
3 125 56 134
3 125 134 56
3 125 134 94
3 125 94 134
3 126 102 38
3 126 38 102
3 126 117 84
3 126 84 117
3 128 40 61
3 128 61 40
3 128 57 33
3 128 33 57
3 128 61 42
3 128 42 61
3 129 104 46
3 129 46 104
3 130 55 105
3 130 105 55
3 132 80 123
3 132 123 80
3 132 123 55
3 132 55 123
3 134 133 56
3 134 56 133
