 COFF
         149        1480         149
  
  -6.5925777676056141        1.1606648298778077        7.0774989739789573       0.60000002384185791       0.60000002384185791       0.60000002384185791       0.80000001192092896     
  -6.5925777617919277       -1.1606648355009064        7.0774989719272954       0.60000002384185791       0.60000002384185791       0.60000002384185791       0.80000001192092896     
  -3.3119296739926925E-002  -2.2683585742253536        6.7182359601708086       0.60000002384185791       0.60000002384185791       0.60000002384185791       0.80000001192092896     
   7.4665775973304331       -1.0530774138635859        7.2769424436213557       0.60000002384185791       0.60000002384185791       0.60000002384185791       0.80000001192092896     
   7.4665775977246698        1.0530774145071784        7.2769424428708724       0.60000002384185791       0.60000002384185791       0.60000002384185791       0.80000001192092896     
  -3.3119296487436001E-002   2.2683585701185804        6.7182359644732799       0.60000002384185791       0.60000002384185791       0.60000002384185791       0.80000001192092896     
   1.1626480227377478       -1.9382901130058616        6.8704995376745934       0.60000002384185791       0.60000002384185791       0.60000002384185791       0.80000001192092896     
   1.1626480224485578        1.9382901126106198        6.8704995381970155       0.60000002384185791       0.60000002384185791       0.60000002384185791       0.80000001192092896     
  -1.1817795670922888        1.9097480937933307        6.8536351447690533       0.60000002384185791       0.60000002384185791       0.60000002384185791       0.80000001192092896     
  -1.1817795606038779       -1.9097480906084883        6.8536351483429012       0.60000002384185791       0.60000002384185791       0.60000002384185791       0.80000001192092896     
   2.0664428575443545       -1.6146264660118679        7.1514927297894904       0.60000002384185791       0.60000002384185791       0.60000002384185791       0.80000001192092896     
   2.0664428574243692        1.6146264658209897        7.1514927300084850       0.60000002384185791       0.60000002384185791       0.60000002384185791       0.80000001192092896     
  -2.0924231541082183        1.6114394684134390        7.1396139557334939       0.60000002384185791       0.60000002384185791       0.60000002384185791       0.80000001192092896     
  -2.0924231491446363       -1.6114394682693005        7.1396139572902708       0.60000002384185791       0.60000002384185791       0.60000002384185791       0.80000001192092896     
   3.0666841469633188       -1.7108060350826511        6.9742652330940151       0.60000002384185791       0.60000002384185791       0.60000002384185791       0.80000001192092896     
   3.0666841469120265        1.7108060359539199        6.9742652322181602       0.60000002384185791       0.60000002384185791       0.60000002384185791       0.80000001192092896     
  -3.0491650178178729        1.7306194428666879        6.8753310035977568       0.60000002384185791       0.60000002384185791       0.60000002384185791       0.80000001192092896     
  -3.0491650318144896       -1.7306193937601424        6.8753310524375228       0.60000002384185791       0.60000002384185791       0.60000002384185791       0.80000001192092896     
   4.1324616143242041       -1.6956269016471628        6.8849416032636874       0.60000002384185791       0.60000002384185791       0.60000002384185791       0.80000001192092896     
   4.1324616143872150        1.6956269011924494        6.8849416037164000       0.60000002384185791       0.60000002384185791       0.60000002384185791       0.80000001192092896     
  -4.0767301176452388        1.7225285963544419        6.8137289037009863       0.60000002384185791       0.60000002384185791       0.60000002384185791       0.80000001192092896     
  -4.0767301159338070       -1.7225286092620802        6.8137288907738354       0.60000002384185791       0.60000002384185791       0.60000002384185791       0.80000001192092896     
   5.1005772000388685       -1.4639400524207231        7.0472010903088860       0.60000002384185791       0.60000002384185791       0.60000002384185791       0.80000001192092896     
   5.1005772005006866        1.4639400534299405        7.0472010893667134       0.60000002384185791       0.60000002384185791       0.60000002384185791       0.80000001192092896     
  -5.1139426292087382        1.5261675817421763        6.9307564088587954       0.60000002384185791       0.60000002384185791       0.60000002384185791       0.80000001192092896     
  -5.1139426306253037       -1.5261675874112999        6.9307564029442688       0.60000002384185791       0.60000002384185791       0.60000002384185791       0.80000001192092896     
   6.0684454120288587       -1.3665381118053683        7.2950133799831063       0.60000002384185791       0.60000002384185791       0.60000002384185791       0.80000001192092896     
   6.0684454128199006        1.3665381138848052        7.2950133764167386       0.60000002384185791       0.60000002384185791       0.60000002384185791       0.80000001192092896     
  -7.7542817366722074        1.5538446526812896E-008   7.0920016975360465       0.60000002384185791       0.60000002384185791       0.60000002384185791       0.80000001192092896     
   8.5200109187937993       -1.9361699920880059E-011   7.2761029605470666       0.60000002384185791       0.60000002384185791       0.60000002384185791       0.80000001192092896     
  -1.9030505852835899       -1.0166014430024926        4.5058476420825091       0.60000002384185791       0.60000002384185791       0.60000002384185791       0.80000001192092896     
   1.1887919765481374       -1.8564161405712418        5.5935027031450302       0.60000002384185791       0.60000002384185791       0.60000002384185791       0.80000001192092896     
   1.1887927937816414        1.8564159760024928        5.5935027925779570       0.60000002384185791       0.60000002384185791       0.60000002384185791       0.80000001192092896     
  -2.1649914921430793        1.6070843840180513        5.9325967913796074       0.60000002384185791       0.60000002384185791       0.60000002384185791       0.80000001192092896     
  -2.1649921460963988       -1.6070834906774920        5.9325945210966262       0.60000002384185791       0.60000002384185791       0.60000002384185791       0.80000001192092896     
   4.5720840037516891E-002  -1.9864447616414340        5.2955437190357930       0.60000002384185791       0.60000002384185791       0.60000002384185791       0.80000001192092896     
   4.5695408006391526E-002   1.9866092629348042        5.2955437743214153       0.60000002384185791       0.60000002384185791       0.60000002384185791       0.80000001192092896     
   2.4449561531335045        1.5276808257385166        5.7630876599474865       0.60000002384185791       0.60000002384185791       0.60000002384185791       0.80000001192092896     
   3.7334047529788927      -0.61933966842448085        3.3105001657960162        1.0000000000000000        1.0000000000000000        0.0000000000000000        1.0000000000000000     
 -0.88762877609723401       -1.8494510911985713        4.7914259958913021       0.60000002384185791       0.60000002384185791       0.60000002384185791       0.80000001192092896     
 -0.88762776006795241        1.8494513294424175        4.7914266162842782       0.60000002384185791       0.60000002384185791       0.60000002384185791       0.80000001192092896     
  -1.5115427747854078      -0.88720809379653254        3.0854884008736096       0.60000002384185791       0.60000002384185791       0.60000002384185791       0.80000001192092896     
  -1.5115420043839056       0.88720742707606026        3.0854886022136876       0.60000002384185791       0.60000002384185791       0.60000002384185791       0.80000001192092896     
   1.0911135258824500        1.8248881558194421        4.4578241327785690       0.60000002384185791       0.60000002384185791       0.60000002384185791       0.80000001192092896     
   1.0911119556951099       -1.8248897526147545        4.4578247059036844       0.60000002384185791       0.60000002384185791       0.60000002384185791       0.80000001192092896     
   3.7334044860737934       0.61934072684700903        3.3105001657960162        1.0000000000000000        1.0000000000000000        0.0000000000000000        1.0000000000000000     
  -4.2122804369370730       0.66002634788738479        3.5885653274392326        1.0000000000000000        1.0000000000000000        0.0000000000000000        1.0000000000000000     
   2.1038556537840165       -1.0915137827984341E-007   4.9594805870132852       0.60000002384185791       0.60000002384185791       0.60000002384185791       0.80000001192092896     
   1.4729406273499552        1.4139837900307950        4.0554340421381845       0.60000002384185791       0.60000002384185791       0.60000002384185791       0.80000001192092896     
   1.4729336392506651       -1.4139913072851940        4.0554462191684868       0.60000002384185791       0.60000002384185791       0.60000002384185791       0.80000001192092896     
  0.15343087974820616        1.8845380638243638        4.1769890164794452       0.60000002384185791       0.60000002384185791       0.60000002384185791       0.80000001192092896     
  0.15330642584802229       -1.8846146313124210        4.1769850123330228       0.60000002384185791       0.60000002384185791       0.60000002384185791       0.80000001192092896     
   1.6734880894346085        3.1963435326150418E-006   3.6421693606798167       0.60000002384185791       0.60000002384185791       0.60000002384185791       0.80000001192092896     
   5.5660663545360070       -1.3540873069382491        6.2275016642278445       0.60000002384185791       0.60000002384185791       0.60000002384185791       0.80000001192092896     
   5.5660684801358187        1.3540858145736203        6.2275015334114903       0.60000002384185791       0.60000002384185791       0.60000002384185791       0.80000001192092896     
  -4.2122803161603093      -0.66002660498643384        3.5885653274392331        1.0000000000000000        1.0000000000000000        0.0000000000000000        1.0000000000000000     
  0.16731572874188688       -3.1596361462260045E-008   1.0382578837327854        1.0000000000000000        1.0000000000000000        0.0000000000000000        1.0000000000000000     
  -2.5681337078447588        1.0720677647545026E-007   4.8276821768971461       0.60000002384185791       0.60000002384185791       0.60000002384185791       0.80000001192092896     
  -5.8061654351814820        1.3238264333085732        6.2822250163437783       0.60000002384185791       0.60000002384185791       0.60000002384185791       0.80000001192092896     
  -5.8061654344397358       -1.3238263973185236        6.2822250071952332       0.60000002384185791       0.60000002384185791       0.60000002384185791       0.80000001192092896     
 -0.69937083320753790       -1.6471080608087627        3.7031966590988969       0.60000002384185791       0.60000002384185791       0.60000002384185791       0.80000001192092896     
 -0.69936943470449409        1.6471075840328817        3.7031963126415657       0.60000002384185791       0.60000002384185791       0.60000002384185791       0.80000001192092896     
   2.4448422069336808        7.2998094308576972E-007   5.3182122168261339       0.60000002384185791       0.60000002384185791       0.60000002384185791       0.80000001192092896     
   2.4449508628266723       -1.5276796618950048        5.7630868562790898       0.60000002384185791       0.60000002384185791       0.60000002384185791       0.80000001192092896     
   1.7097372705317460        1.7016485907722230        5.0839572985693584       0.60000002384185791       0.60000002384185791       0.60000002384185791       0.80000001192092896     
  0.96336624026483697        1.6824531924255735        3.4391621943388491       0.60000002384185791       0.60000002384185791       0.60000002384185791       0.80000001192092896     
  0.96343262562978416       -1.6824987951441348        3.4391537863693560       0.60000002384185791       0.60000002384185791       0.60000002384185791       0.80000001192092896     
   1.7097363752392218       -1.7016489679739988        5.0839570424492386       0.60000002384185791       0.60000002384185791       0.60000002384185791       0.80000001192092896     
  -1.0197118256280753        1.8876415438582637        5.7783420167087582       0.60000002384185791       0.60000002384185791       0.60000002384185791       0.80000001192092896     
   4.5584610675503789       -1.5936638085958039        6.2893135219430913       0.60000002384185791       0.60000002384185791       0.60000002384185791       0.80000001192092896     
   4.5585039410271060        1.5936843570167194        6.2893137620131325       0.60000002384185791       0.60000002384185791       0.60000002384185791       0.80000001192092896     
   1.2899953247968778        1.1948155315327373        3.0331507225171337       0.60000002384185791       0.60000002384185791       0.60000002384185791       0.80000001192092896     
   1.2899828075519639       -1.1948130111632913        3.0331508822050304       0.60000002384185791       0.60000002384185791       0.60000002384185791       0.80000001192092896     
   5.6234411820678645      -0.83154347546820684        5.0988719780815552       0.60000002384185791       0.60000002384185791       0.60000002384185791       0.80000001192092896     
   5.6234444565729031       0.83154188374202209        5.0988713706733071       0.60000002384185791       0.60000002384185791       0.60000002384185791       0.80000001192092896     
  0.22909625283957241        1.7332936340927556        3.1210869737693017       0.60000002384185791       0.60000002384185791       0.60000002384185791       0.80000001192092896     
  0.22919482948836506       -1.7330898545991382        3.1210866003053845       0.60000002384185791       0.60000002384185791       0.60000002384185791       0.80000001192092896     
   3.6234102932783334       -1.7027227335923663        5.9361863518067812       0.60000002384185791       0.60000002384185791       0.60000002384185791       0.80000001192092896     
   3.6233893112819424        1.7026830759037241        5.9361849851908968       0.60000002384185791       0.60000002384185791       0.60000002384185791       0.80000001192092896     
  -2.9255183109443372        1.6533653269425990        5.3371843516936313       0.60000002384185791       0.60000002384185791       0.60000002384185791       0.80000001192092896     
  -2.9255209178071366       -1.6533667623816721        5.3371849047083488       0.60000002384185791       0.60000002384185791       0.60000002384185791       0.80000001192092896     
   1.4423857019114414        4.0923126614289898E-006   2.7285271422646762        1.0000000000000000       0.10000000149011612        0.0000000000000000       0.50000000000000000     
  -3.5788860457543068        1.7263703005162161        5.8533555426144730       0.60000002384185791       0.60000002384185791       0.60000002384185791       0.80000001192092896     
  -3.5788649861272113       -1.7264034650162285        5.8533558211576633       0.60000002384185791       0.60000002384185791       0.60000002384185791       0.80000001192092896     
   3.9958139532803552       -1.6694950060943425        5.5861622938248248       0.60000002384185791       0.60000002384185791       0.60000002384185791       0.80000001192092896     
   3.9957897708464123        1.6694567952248749        5.5861631001646597       0.60000002384185791       0.60000002384185791       0.60000002384185791       0.80000001192092896     
 -0.52507826610427955       -1.4747516120258981        2.6838820501008844        1.0000000000000000       0.10000000149011612        0.0000000000000000       0.50000000000000000     
 -0.52507722388675360        1.4747507733680936        2.6838821286040413        1.0000000000000000       0.10000000149011612        0.0000000000000000       0.50000000000000000     
  -5.0776870256052584        1.4636840801547102        5.7675804139530467       0.60000002384185791       0.60000002384185791       0.60000002384185791       0.80000001192092896     
  -5.0776870495408488       -1.4636839964061448        5.7675803867218010       0.60000002384185791       0.60000002384185791       0.60000002384185791       0.80000001192092896     
   6.5348401436871999        7.4282346955194802E-009   6.0317904620440244       0.60000002384185791       0.60000002384185791       0.60000002384185791       0.80000001192092896     
   7.1661058964836668      -0.82242134635220454        6.3697729203040705       0.60000002384185791       0.60000002384185791       0.60000002384185791       0.80000001192092896     
   7.1661058957519410       0.82242134581302762        6.3697729195329833       0.60000002384185791       0.60000002384185791       0.60000002384185791       0.80000001192092896     
  -1.6995331714713680      -0.47331362318336123        2.1991919572385048        1.0000000000000000       0.10000000149011612        0.0000000000000000       0.50000000000000000     
  -1.6995329553797507       0.47331289901915818        2.1991919319929147        1.0000000000000000       0.10000000149011612        0.0000000000000000       0.50000000000000000     
  -4.1614032607292852        1.6439047068703778        5.5704098985007500       0.60000002384185791       0.60000002384185791       0.60000002384185791       0.80000001192092896     
  -4.1613018423158579       -1.6438365015565413        5.5704099617034268       0.60000002384185791       0.60000002384185791       0.60000002384185791       0.80000001192092896     
  0.85375139917787490        1.5091134730204698        2.4527208882402127        1.0000000000000000       0.10000000149011612        0.0000000000000000       0.50000000000000000     
  0.85373056246220080       -1.5091089341674910        2.4527207074362303        1.0000000000000000       0.10000000149011612        0.0000000000000000       0.50000000000000000     
  -6.3849385270320393        5.8662100461901371E-008   5.9727036565606095       0.60000002384185791       0.60000002384185791       0.60000002384185791       0.80000001192092896     
  -5.8890840910278550       0.69134905655214718        4.8584260894936540       0.60000002384185791       0.60000002384185791       0.60000002384185791       0.80000001192092896     
  -5.8890822299998922      -0.69134779797400292        4.8584261819406400       0.60000002384185791       0.60000002384185791       0.60000002384185791       0.80000001192092896     
   4.4955258424400748       -1.5799196957278068        5.1651381013072966       0.60000002384185791       0.60000002384185791       0.60000002384185791       0.80000001192092896     
   4.4957110449697471        1.5799267977534466        5.1651382022324697       0.60000002384185791       0.60000002384185791       0.60000002384185791       0.80000001192092896     
  -5.6377429831365520        1.0656924112453678        5.2951951140525413       0.60000002384185791       0.60000002384185791       0.60000002384185791       0.80000001192092896     
  -5.6378338324355139       -1.0659438792785956        5.2951950751788956       0.60000002384185791       0.60000002384185791       0.60000002384185791       0.80000001192092896     
   2.7406614183513986        1.0717504168974739        4.9718303261461765       0.60000002384185791       0.60000002384185791       0.60000002384185791       0.80000001192092896     
   2.7406653089369759       -1.0717465281848895        4.9718317531764811       0.60000002384185791       0.60000002384185791       0.60000002384185791       0.80000001192092896     
   6.7088205959120248       -1.1812321689255230        6.7534058212001442       0.60000002384185791       0.60000002384185791       0.60000002384185791       0.80000001192092896     
   6.7088206047786709        1.1812321657830485        6.7534058205857050       0.60000002384185791       0.60000002384185791       0.60000002384185791       0.80000001192092896     
   5.3801287953913715      -0.74547162890778262        4.0966029119200744       0.60000002384185791       0.60000002384185791       0.60000002384185791       0.80000001192092896     
   5.3801427350524182       0.74546836654506310        4.0966014228163008       0.60000002384185791       0.60000002384185791       0.60000002384185791       0.80000001192092896     
  0.22358839185105756        1.5320946917704514        2.1663051477690578        1.0000000000000000       0.10000000149011612        0.0000000000000000       0.50000000000000000     
  0.22358638588087382       -1.5320962475650550        2.1663052512918659        1.0000000000000000       0.10000000149011612        0.0000000000000000       0.50000000000000000     
  -1.0197122453640979       -1.8876415078804334        5.7783429552586716       0.60000002384185791       0.60000002384185791       0.60000002384185791       0.80000001192092896     
   1.1525870182612834       0.96237195073286363        2.1803134596619680        1.0000000000000000       0.10000000149011612        0.0000000000000000       0.50000000000000000     
   1.1525838390814100      -0.96237113216003745        2.1803136679978592        1.0000000000000000       0.10000000149011612        0.0000000000000000       0.50000000000000000     
   3.4059333851605622       -1.4587678601768068        4.7128579496545973       0.60000002384185791       0.60000002384185791       0.60000002384185791       0.80000001192092896     
   3.4059339013057506        1.4587684253708850        4.7128671073327748       0.60000002384185791       0.60000002384185791       0.60000002384185791       0.80000001192092896     
  -1.9537249864771462       -1.7227206452118182E-007   3.1398484524180468       0.60000002384185791       0.60000002384185791       0.60000002384185791       0.80000001192092896     
   2.6870043974459810      -0.30491462508568401        4.0672360003672194       0.60000002384185791       0.60000002384185791       0.60000002384185791       0.80000001192092896     
   2.6870047611456185       0.30491459190044001        4.0672362342124941       0.60000002384185791       0.60000002384185791       0.60000002384185791       0.80000001192092896     
  -3.6618241145945953        1.5292631189224148        4.7031948697595150       0.60000002384185791       0.60000002384185791       0.60000002384185791       0.80000001192092896     
  -3.6618220785975808       -1.5292647301578539        4.7031981044833158       0.60000002384185791       0.60000002384185791       0.60000002384185791       0.80000001192092896     
 -0.61971799054521415       -1.1471891758579784        1.9880556449653966        1.0000000000000000       0.10000000149011612        0.0000000000000000       0.50000000000000000     
 -0.61971767955482393        1.1471882221792353        1.9880560645717382        1.0000000000000000       0.10000000149011612        0.0000000000000000       0.50000000000000000     
   3.8520952574441489       -1.5210373543963234        4.5292548951567664       0.60000002384185791       0.60000002384185791       0.60000002384185791       0.80000001192092896     
   3.8520980260427038        1.5210397145891903        4.5292550884151659       0.60000002384185791       0.60000002384185791       0.60000002384185791       0.80000001192092896     
  -1.9030493359391507        1.0166022335838851        4.5058489000079547       0.60000002384185791       0.60000002384185791       0.60000002384185791       0.80000001192092896     
  -4.9074948358296515        1.3363566774802218        4.8118626053762954       0.60000002384185791       0.60000002384185791       0.60000002384185791       0.80000001192092896     
  -4.9074946449754444       -1.3363552313821236        4.8118625208554100       0.60000002384185791       0.60000002384185791       0.60000002384185791       0.80000001192092896     
  -3.2428685934313091        1.2728863214511932        4.4790880631252543       0.60000002384185791       0.60000002384185791       0.60000002384185791       0.80000001192092896     
  -3.2428676947471584       -1.2728809076839871        4.4790877056207155       0.60000002384185791       0.60000002384185791       0.60000002384185791       0.80000001192092896     
  -1.1091015932662924      -0.30201273760866720        1.4836862740823427        1.0000000000000000       0.10000000149011612        0.0000000000000000       0.50000000000000000     
  -1.1091015702021729       0.30201231518899346        1.4836862406082627        1.0000000000000000       0.10000000149011612        0.0000000000000000       0.50000000000000000     
  -5.2636137369431699        1.1746626582198614        4.5179020035447497       0.60000002384185791       0.60000002384185791       0.60000002384185791       0.80000001192092896     
  -5.2636131033413571       -1.1746621502602748        4.5179017709668887       0.60000002384185791       0.60000002384185791       0.60000002384185791       0.80000001192092896     
  -3.0216290955703640       0.32398299469496400        4.0692433463118354       0.60000002384185791       0.60000002384185791       0.60000002384185791       0.80000001192092896     
  -3.0216290767338174      -0.32398361899368594        4.0692435406465437       0.60000002384185791       0.60000002384185791       0.60000002384185791       0.80000001192092896     
   4.1695545481276755       -1.3167159205565524        4.2204028151652135       0.60000002384185791       0.60000002384185791       0.60000002384185791       0.80000001192092896     
   4.1695422194033798        1.3167538188940582        4.2203997017735562       0.60000002384185791       0.60000002384185791       0.60000002384185791       0.80000001192092896     
  -4.2011211198621652        1.4152536821733857        4.6383826034291200       0.60000002384185791       0.60000002384185791       0.60000002384185791       0.80000001192092896     
  -4.2011220292664690       -1.4152530959374288        4.6383830277062605       0.60000002384185791       0.60000002384185791       0.60000002384185791       0.80000001192092896     
  0.64236186850800492        1.0305063177878924        1.7085539992502334        1.0000000000000000       0.10000000149011612        0.0000000000000000       0.50000000000000000     
  0.64236103408796841       -1.0305052077908610        1.7085539037107522        1.0000000000000000       0.10000000149011612        0.0000000000000000       0.50000000000000000     
   1.0833631379984747        1.4816440352987020E-006   1.9187585285878621        1.0000000000000000       0.10000000149011612        0.0000000000000000       0.50000000000000000     
  -5.1027353564302596       0.66530020034351167        4.1670039525686366       0.60000002384185791       0.60000002384185791       0.60000002384185791       0.80000001192092896     
  -5.1027353747372226      -0.66530019398891649        4.1670039444804550       0.60000002384185791       0.60000002384185791       0.60000002384185791       0.80000001192092896     
  -1.9857857899062006        8.1461181918851043E-008   4.4558961009361564       0.60000002384185791       0.60000002384185791       0.60000002384185791       0.80000001192092896     
  
   3   0  24  58
   3   0  58  24
   3   0  58  99
   3   0  99  28
   3   0  99  58
   3   0  28  99
   3   1  28  99
   3   1  99  59
   3   1  99  28
   3   1  59  99
   3   1  59  25
   3   1  25  59
   3   2  35 114
   3   2  35  31
   3   2  31  35
   3   2  31   6
   3   2   6  31
   3   2   9 114
   3   2 114  35
   3   2 114   9
   3   3  29  91
   3   3  26 108
   3   3 108  26
   3   3 108  91
   3   3  91 108
   3   3  91  29
   3   4  29  92
   3   4  92  29
   3   4  92 109
   3   4 109  92
   3   4 109  27
   3   4  27 109
   3   5   7  32
   3   5  32  36
   3   5  32   7
   3   5  36  32
   3   5  36  68
   3   5  68  36
   3   5  68   8
   3   5   8  68
   3   6   2  31
   3   6  31   2
   3   6  31  63
   3   6  63  10
   3   6  63  31
   3   6  10  63
   3   7  11  37
   3   7  37  32
   3   7  37  11
   3   7  32  37
   3   7  32   5
   3   7   5  32
   3   8   5  68
   3   8  68   5
   3   8  68  33
   3   8  33  12
   3   8  33  68
   3   8  12  33
   3   9  13  34
   3   9  34 114
   3   9  34  13
   3   9 114  34
   3   9 114   2
   3   9   2 114
   3  10   6  63
   3  10  63  14
   3  10  63   6
   3  10  14  63
   3  11  15  37
   3  11  37   7
   3  11  37  15
   3  11   7  37
   3  12   8  33
   3  12  33  16
   3  12  33   8
   3  12  16  33
   3  13  17  34
   3  13  34   9
   3  13  34  17
   3  13   9  34
   3  14  10  63
   3  14  63  77
   3  14  63  10
   3  14  77  63
   3  14  77  18
   3  14  18  77
   3  15  19  78
   3  15  78  19
   3  15  78  37
   3  15  37  11
   3  15  37  78
   3  15  11  37
   3  16  12  33
   3  16  33  79
   3  16  33  12
   3  16  79  82
   3  16  79  33
   3  16  82  79
   3  16  82  20
   3  16  20  82
   3  17  21  83
   3  17  83  21
   3  17  83  80
   3  17  80  83
   3  17  80  34
   3  17  34  80
   3  17  34  13
   3  17  13  34
   3  18  14  77
   3  18  77  84
   3  18  77  14
   3  18  84  77
   3  18  84  69
   3  18  69  84
   3  18  69  22
   3  18  22  69
   3  19  23  70
   3  19  70  85
   3  19  70  23
   3  19  85  70
   3  19  85  78
   3  19  78  85
   3  19  78  15
   3  19  15  78
   3  20  16  82
   3  20  82  95
   3  20  82  16
   3  20  95  82
   3  20  95  88
   3  20  88  95
   3  20  88  24
   3  20  24  88
   3  21  25  89
   3  21  89  96
   3  21  89  25
   3  21  96  89
   3  21  96  83
   3  21  83  96
   3  21  83  17
   3  21  17  83
   3  22  18  69
   3  22  69  18
   3  22  69  53
   3  22  53  26
   3  22  53  69
   3  22  26  53
   3  23  27  54
   3  23  54  70
   3  23  54  27
   3  23  70  54
   3  23  70  19
   3  23  19  70
   3  24  20  88
   3  24  88  20
   3  24  88  58
   3  24  58   0
   3  24  58  88
   3  24   0  58
   3  25   1  59
   3  25  59   1
   3  25  59  89
   3  25  89  59
   3  25  89  21
   3  25  21  89
   3  26  22  53
   3  26  53 108
   3  26  53  22
   3  26 108  53
   3  26 108   3
   3  26   3 108
   3  27   4 109
   3  27 109  54
   3  27 109   4
   3  27  54 109
   3  27  54  23
   3  27  23  54
   3  28   0  99
   3  28  99   1
   3  28  99   0
   3  28   1  99
   3  29   3  91
   3  29  91   3
   3  29  91  92
   3  29  92   4
   3  29  92  91
   3  29   4  92
   3  30  34  57
   3  30  34  39
   3  30  57 148
   3  30  57  34
   3  30 148  57
   3  30 148 119
   3  30 119 148
   3  30 119  41
   3  30  41  60
   3  30  41 119
   3  30  60  41
   3  30  60  39
   3  30  39  34
   3  30  39  60
   3  31   2  35
   3  31   2   6
   3  31  35  44
   3  31  35   2
   3  31  44  67
   3  31  44  35
   3  31  67  63
   3  31  67  44
   3  31  63   6
   3  31  63  67
   3  31   6   2
   3  31   6  63
   3  32  37  64
   3  32  37   7
   3  32  64  37
   3  32  64  43
   3  32  43  36
   3  32  43  64
   3  32  36  43
   3  32  36   5
   3  32   5   7
   3  32   5  36
   3  32   7  37
   3  32   7   5
   3  33  79  57
   3  33  79  16
   3  33  16  12
   3  33  16  79
   3  33  12   8
   3  33  12  16
   3  33   8  68
   3  33   8  12
   3  33  68  40
   3  33  68   8
   3  33  40 128
   3  33  40  68
   3  33 128  40
   3  33 128  57
   3  33  57 128
   3  33  57  79
   3  34  80  17
   3  34  80  57
   3  34  57  30
   3  34  57  80
   3  34  30  57
   3  34  30  39
   3  34  39 114
   3  34  39  30
   3  34 114  39
   3  34 114   9
   3  34   9  13
   3  34   9 114
   3  34  13  17
   3  34  13   9
   3  34  17  80
   3  34  17  13
   3  35 114  39
   3  35 114   2
   3  35  39 114
   3  35  39  51
   3  35  51  44
   3  35  51  39
   3  35  44  31
   3  35  44  51
   3  35  31   2
   3  35  31  44
   3  35   2  31
   3  35   2 114
   3  36  32  43
   3  36  32   5
   3  36  43  32
   3  36  43  50
   3  36  50  40
   3  36  50  43
   3  36  40  68
   3  36  40  50
   3  36  68   5
   3  36  68  40
   3  36   5  32
   3  36   5  68
   3  37 106  78
   3  37 106  62
   3  37  62  47
   3  37  62 106
   3  37  47  62
   3  37  47  64
   3  37  64  47
   3  37  64  32
   3  37  32  64
   3  37  32   7
   3  37   7  11
   3  37   7  32
   3  37  11  15
   3  37  11   7
   3  37  15  78
   3  37  15  11
   3  37  78 106
   3  37  78  15
   3  38 110 139
   4  38 110 111  45
   3  38 139 110
   3  38 139 126
   3  38 126 117
   3  38 126 139
   3  38 117 107
   3  38 117 126
   3  38 107 117
   4  38 107  62 120
   3  39  35 114
   3  39  35  51
   3  39 114  34
   3  39 114  35
   3  39  34  30
   3  39  34 114
   3  39  30  34
   3  39  30  60
   3  39  60  30
   3  39  60  51
   3  39  51  35
   3  39  51  60
   3  40 128  33
   3  40 128  61
   3  40  33  68
   3  40  33 128
   3  40  68  36
   3  40  68  33
   3  40  36  50
   3  40  36  68
   3  40  50  36
   3  40  50  61
   3  40  61  50
   3  40  61 128
   3  41  93 119
   3  41  93 124
   3  41 124  86
   3  41 124  93
   3  41  86  60
   3  41  86 124
   3  41  60  30
   3  41  60  86
   3  41  30 119
   3  41  30  60
   3  41 119  30
   3  41 119  93
   3  42  94 125
   3  42  94 119
   3  42 119 128
   3  42 119  94
   3  42 128  61
   3  42 128 119
   3  42  61  87
   3  42  61 128
   3  42  87  61
   3  42  87 125
   3  42 125  94
   3  42 125  87
   3  43  36  32
   3  43  36  50
   3  43  32  64
   3  43  32  36
   3  43  64  48
   3  43  64  32
   3  43  48  64
   3  43  48  65
   3  43  65  48
   3  43  65  50
   3  43  50  36
   3  43  50  65
   3  44  67  49
   3  44  67  31
   3  44  31  35
   3  44  31  67
   3  44  35  51
   3  44  35  31
   3  44  51  35
   3  44  51  66
   3  44  66  51
   3  44  66  49
   3  44  49  67
   3  44  49  66
   3  45 111 140
   4  45 111 110  38
   3  45 106 118
   4  45 106  62 121
   3  45 118 106
   3  45 118 127
   3  45 127 118
   3  45 127 140
   3  45 140 127
   3  45 140 111
   3  46 135 129
   4  46 135 100 146
   3  46 129 141
   3  46 129 135
   3  46 141 129
   3  46 141 122
   3  46 122 131
   3  46 122 141
   3  46 131 122
   4  46 131  57 137
   3  47  37  62
   3  47  37  64
   3  47  62  37
   3  47  62  63
   3  47  63  67
   3  47  63  62
   3  47  67  49
   3  47  67  63
   3  47  49  67
   3  47  49  52
   3  47  52  48
   3  47  52  49
   3  47  48  64
   3  47  48  52
   3  47  64  37
   3  47  64  48
   3  48  43  64
   3  48  43  65
   3  48  64  47
   3  48  64  43
   3  48  47  52
   3  48  47  64
   3  48  52  47
   3  48  52  71
   3  48  71  52
   3  48  71  65
   3  48  65  71
   3  48  65  43
   3  49  47  67
   3  49  47  52
   3  49  67  47
   3  49  67  44
   3  49  44  67
   3  49  44  66
   3  49  66  72
   3  49  66  44
   3  49  72  66
   3  49  72  52
   3  49  52  47
   3  49  52  72
   3  50  40  36
   3  50  40  61
   3  50  36  43
   3  50  36  40
   3  50  43  36
   3  50  43  65
   3  50  65  75
   3  50  65  43
   3  50  75  65
   3  50  75  61
   3  50  61  75
   3  50  61  40
   3  51  44  35
   3  51  44  66
   3  51  35  39
   3  51  35  44
   3  51  39  35
   3  51  39  60
   3  51  60  76
   3  51  60  39
   3  51  76  60
   3  51  76  66
   3  51  66  76
   3  51  66  44
   3  52  48  47
   3  52  48  71
   3  52  47  49
   3  52  47  48
   3  52  49  47
   3  52  49  72
   3  52  72  81
   3  52  72  49
   3  52  81  72
   3  52  81  71
   3  52  71  81
   3  52  71  48
   3  53 108  26
   3  53 108  90
   3  53  26  22
   3  53  26 108
   3  53  22  69
   3  53  22  26
   3  53  69 102
   3  53  69  22
   3  53 102  73
   3  53 102  69
   3  53  73  90
   3  53  73 102
   3  53  90  73
   3  53  90 108
   3  54 109  90
   3  54 109  27
   3  54  90  74
   3  54  90 109
   3  54  74 103
   3  54  74  90
   3  54 103  70
   3  54 103  74
   3  54  70 103
   3  54  70  23
   3  54  23  27
   3  54  23  70
   3  54  27 109
   3  54  27  23
   3  55 136 130
   4  55 136 101 147
   3  55 132 123
   4  55 132  57 138
   3  55 123 142
   3  55 123 132
   3  55 142 123
   3  55 142 130
   3  55 130 136
   3  55 130 142
   3  56 112 143
   3  56 112 125
   3  56 143 112
   3  56 143 115
   3  56 115 145
   3  56 115 143
   3  56 145 115
   3  56 145 116
   3  56 116 144
   3  56 116 145
   3  56 144 116
   3  56 144 113
   3  56 113 124
   3  56 113 144
   3  56 124 113
   4  56 124  93 133
   3  56 133 134
   4  56 133  93 124
   3  56 134 133
   4  56 134  94 125
   3  56 125 112
   4  56 125  94 134
   3  57 128  33
   3  57 128 148
   3  57 148 128
   3  57 148  30
   3  57  30  34
   3  57  30 148
   3  57  34  80
   3  57  34  30
   3  57  80 132
   3  57  80  34
   3  57 132  80
   4  57 132  55 138
   3  57 138 137
   4  57 138  55 132
   3  57 137 138
   4  57 137  46 131
   3  57 131  79
   4  57 131  46 137
   3  57  79 131
   3  57  79  33
   3  57  33  79
   3  57  33 128
   3  58   0  24
   3  58   0  99
   3  58  24  88
   3  58  24   0
   3  58  88 104
   3  58  88  24
   3  58 104  99
   3  58 104  88
   3  58  99   0
   3  58  99 104
   3  59   1  99
   3  59   1  25
   3  59  99 105
   3  59  99   1
   3  59 105  89
   3  59 105  99
   3  59  89 105
   3  59  89  25
   3  59  25   1
   3  59  25  89
   3  60  30  41
   3  60  30  39
   3  60  41  86
   3  60  41  30
   3  60  86  76
   3  60  86  41
   3  60  76  86
   3  60  76  51
   3  60  51  39
   3  60  51  76
   3  60  39  30
   3  60  39  51
   3  61  50  40
   3  61  50  75
   3  61  75  87
   3  61  75  50
   3  61  87  42
   3  61  87  75
   3  61  42 128
   3  61  42  87
   3  61 128  40
   3  61 128  42
   3  61  40 128
   3  61  40  50
   3  62  47  37
   3  62  47  63
   3  62  37 106
   3  62  37  47
   3  62 106  37
   4  62 106  45 121
   3  62 121 120
   4  62 121  45 106
   3  62 120 121
   4  62 120  38 107
   3  62 107  63
   4  62 107  38 120
   3  62  63 107
   3  62  63  47
   3  63 107  77
   3  63 107  62
   3  63  77 107
   3  63  77  14
   3  63  14  10
   3  63  14  77
   3  63  10   6
   3  63  10  14
   3  63   6  31
   3  63   6  10
   3  63  31  67
   3  63  31   6
   3  63  67  47
   3  63  67  31
   3  63  47  62
   3  63  47  67
   3  63  62  47
   3  63  62 107
   3  64  37  47
   3  64  37  32
   3  64  47  37
   3  64  47  48
   3  64  48  43
   3  64  48  47
   3  64  43  32
   3  64  43  48
   3  64  32  37
   3  64  32  43
   3  65  48  43
   3  65  48  71
   3  65  71  97
   3  65  71  48
   3  65  97  75
   3  65  97  71
   3  65  75  97
   3  65  75  50
   3  65  50  43
   3  65  50  75
   3  65  43  48
   3  65  43  50
   3  66  51  44
   3  66  51  76
   3  66  76  98
   3  66  76  51
   3  66  98  72
   3  66  98  76
   3  66  72  98
   3  66  72  49
   3  66  49  44
   3  66  49  72
   3  66  44  51
   3  66  44  49
   3  67  49  47
   3  67  49  44
   3  67  47  63
   3  67  47  49
   3  67  63  31
   3  67  63  47
   3  67  31  44
   3  67  31  63
   3  67  44  31
   3  67  44  49
   3  68   5  36
   3  68   5   8
   3  68  36  40
   3  68  36   5
   3  68  40  33
   3  68  40  36
   3  68  33   8
   3  68  33  40
   3  68   8   5
   3  68   8  33
   3  69  18  84
   3  69  18  22
   3  69  84 102
   3  69  84  18
   3  69 102  53
   3  69 102  84
   3  69  53  22
   3  69  53 102
   3  69  22  18
   3  69  22  53
   3  70  54 103
   3  70  54  23
   3  70 103  85
   3  70 103  54
   3  70  85 103
   3  70  85  19
   3  70  19  23
   3  70  19  85
   3  70  23  54
   3  70  23  19
   3  71  52  48
   3  71  52  81
   3  71  81 115
   3  71  81  52
   3  71 115  97
   3  71 115  81
   3  71  97  65
   3  71  97 115
   3  71  65  48
   3  71  65  97
   3  71  48  52
   3  71  48  65
   3  72  66  98
   3  72  66  49
   3  72  98  66
   3  72  98 116
   3  72 116  81
   3  72 116  98
   3  72  81 116
   3  72  81  52
   3  72  52  49
   3  72  52  81
   3  72  49  66
   3  72  49  52
   3  73 110 139
   4  73 110 111  74
   3  73  74  90
   4  73  74 111 110
   3  73  90  74
   3  73  90  53
   3  73  53 102
   3  73  53  90
   3  73 102  53
   3  73 102 139
   3  73 139 110
   3  73 139 102
   3  74 111 140
   4  74 111 110  73
   3  74 140 103
   3  74 140 111
   3  74 103  54
   3  74 103 140
   3  74  54  90
   3  74  54 103
   3  74  90  73
   3  74  90  54
   3  74  73  90
   4  74  73 110 111
   3  75  65  97
   3  75  65  50
   3  75  97  65
   3  75  97 112
   3  75 112  87
   3  75 112  97
   3  75  87  61
   3  75  87 112
   3  75  61  50
   3  75  61  87
   3  75  50  65
   3  75  50  61
   3  76  60  86
   3  76  60  51
   3  76  86  60
   3  76  86 113
   3  76 113  98
   3  76 113  86
   3  76  98  66
   3  76  98 113
   3  76  66  51
   3  76  66  98
   3  76  51  60
   3  76  51  66
   3  77  63 107
   3  77  63  14
   3  77 107  63
   3  77 107 117
   3  77 117  84
   3  77 117 107
   3  77  84 117
   3  77  84  18
   3  77  18  14
   3  77  18  84
   3  77  14  63
   3  77  14  18
   3  78  19  85
   3  78  19  15
   3  78  85 118
   3  78  85  19
   3  78 118 106
   3  78 118  85
   3  78 106 118
   3  78 106  37
   3  78  37 106
   3  78  37  15
   3  78  15  19
   3  78  15  37
   3  79  57 131
   3  79  57  33
   3  79 131 122
   3  79 131  57
   3  79 122  82
   3  79 122 131
   3  79  82 122
   3  79  82  16
   3  79  16  33
   3  79  16  82
   3  79  33  16
   3  79  33  57
   3  80  17  83
   3  80  17  34
   3  80  83 123
   3  80  83  17
   3  80 123  83
   3  80 123 132
   3  80 132  57
   3  80 132 123
   3  80  57  34
   3  80  57 132
   3  80  34  57
   3  80  34  17
   3  81  72 116
   3  81  72  52
   3  81 116  72
   3  81 116 145
   3  81 145 115
   3  81 145 116
   3  81 115  71
   3  81 115 145
   3  81  71  52
   3  81  71 115
   3  81  52  72
   3  81  52  71
   3  82  79 122
   3  82  79  16
   3  82 122  95
   3  82 122  79
   3  82  95 122
   3  82  95  20
   3  82  20  16
   3  82  20  95
   3  82  16  79
   3  82  16  20
   3  83  21  96
   3  83  21  17
   3  83  96 123
   3  83  96  21
   3  83 123  80
   3  83 123  96
   3  83  80  17
   3  83  80 123
   3  83  17  21
   3  83  17  80
   3  84  77 117
   3  84  77  18
   3  84 117  77
   3  84 117 126
   3  84 126 102
   3  84 126 117
   3  84 102  69
   3  84 102 126
   3  84  69  18
   3  84  69 102
   3  84  18  77
   3  84  18  69
   3  85  70 103
   3  85  70  19
   3  85 103  70
   3  85 103 127
   3  85 127 118
   3  85 127 103
   3  85 118  78
   3  85 118 127
   3  85  78  19
   3  85  78 118
   3  85  19  70
   3  85  19  78
   3  86  76  60
   3  86  76 113
   3  86  60  41
   3  86  60  76
   3  86  41 124
   3  86  41  60
   3  86 124 113
   3  86 124  41
   3  86 113  76
   3  86 113 124
   3  87  42  61
   3  87  42 125
   3  87  61  75
   3  87  61  42
   3  87  75 112
   3  87  75  61
   3  87 112  75
   3  87 112 125
   3  87 125  42
   3  87 125 112
   3  88  20  95
   3  88  20  24
   3  88  95 129
   3  88  95  20
   3  88 129 104
   3  88 129  95
   3  88 104  58
   3  88 104 129
   3  88  58  24
   3  88  58 104
   3  88  24  20
   3  88  24  58
   3  89  59 105
   3  89  59  25
   3  89 105  59
   3  89 105 130
   3  89 130  96
   3  89 130 105
   3  89  96 130
   3  89  96  21
   3  89  21  25
   3  89  21  96
   3  89  25  59
   3  89  25  21
   3  90  73  74
   3  90  73  53
   3  90  74  54
   3  90  74  73
   3  90  54 109
   3  90  54  74
   3  90 109  92
   3  90 109  54
   3  90  92  91
   3  90  92 109
   3  90  91 108
   3  90  91  92
   3  90 108  53
   3  90 108  91
   3  90  53 108
   3  90  53  73
   3  91   3  29
   3  91   3 108
   3  91 108  90
   3  91 108   3
   3  91  90  92
   3  91  90 108
   3  91  92  29
   3  91  92  90
   3  91  29   3
   3  91  29  92
   3  92   4  29
   3  92   4 109
   3  92  29  91
   3  92  29   4
   3  92  91  90
   3  92  91  29
   3  92  90 109
   3  92  90  91
   3  92 109  90
   3  92 109   4
   3  93  41 124
   3  93  41 119
   3  93 119  94
   3  93 119  41
   3  93  94 119
   4  93  94 134 133
   3  93 124  41
   4  93 124  56 133
   3  94  42 119
   3  94  42 125
   3  94 125  42
   4  94 125  56 134
   3  94  93 119
   4  94  93 133 134
   3  94 119  42
   3  94 119  93
   3  95  82 122
   3  95  82  20
   3  95 122  82
   3  95 122 141
   3  95 141 129
   3  95 141 122
   3  95 129  88
   3  95 129 141
   3  95  88  20
   3  95  88 129
   3  95  20  82
   3  95  20  88
   3  96  89 130
   3  96  89  21
   3  96 130  89
   3  96 130 142
   3  96 142 123
   3  96 142 130
   3  96 123  83
   3  96 123 142
   3  96  83  21
   3  96  83 123
   3  96  21  89
   3  96  21  83
   3  97  75  65
   3  97  75 112
   3  97  65  71
   3  97  65  75
   3  97  71 115
   3  97  71  65
   3  97 115  71
   3  97 115 143
   3  97 143 112
   3  97 143 115
   3  97 112  75
   3  97 112 143
   3  98  72  66
   3  98  72 116
   3  98  66  76
   3  98  66  72
   3  98  76 113
   3  98  76  66
   3  98 113  76
   3  98 113 144
   3  98 144 116
   3  98 144 113
   3  98 116  72
   3  98 116 144
   3  99 100 101
   3  99 100 104
   3  99 101 105
   3  99 101 100
   3  99 105  59
   3  99 105 101
   3  99  59   1
   3  99  59 105
   3  99   1  28
   3  99   1  59
   3  99  28   0
   3  99  28   1
   3  99   0  58
   3  99   0  28
   3  99  58   0
   3  99  58 104
   3  99 104 100
   3  99 104  58
   3 100 101  99
   4 100 101 147 146
   3 100  99 101
   3 100  99 104
   3 100 104  99
   3 100 104 135
   3 100 135 104
   4 100 135  46 146
   3 101 136 105
   4 101 136  55 147
   3 101 105  99
   3 101 105 136
   3 101  99 100
   3 101  99 105
   3 101 100  99
   4 101 100 146 147
   3 102  73  53
   3 102  73 139
   3 102  53  69
   3 102  53  73
   3 102  69  84
   3 102  69  53
   3 102  84 126
   3 102  84  69
   3 102 126  84
   3 102 126 139
   3 102 139  73
   3 102 139 126
   3 103  85  70
   3 103  85 127
   3 103  70  54
   3 103  70  85
   3 103  54  74
   3 103  54  70
   3 103  74 140
   3 103  74  54
   3 103 140 127
   3 103 140  74
   3 103 127  85
   3 103 127 140
   3 104 100  99
   3 104 100 135
   3 104  99 100
   3 104  99  58
   3 104  58  88
   3 104  58  99
   3 104  88 129
   3 104  88  58
   3 104 129  88
   3 104 129 135
   3 104 135 100
   3 104 135 129
   3 105  89  59
   3 105  89 130
   3 105  59  99
   3 105  59  89
   3 105  99 101
   3 105  99  59
   3 105 101 136
   3 105 101  99
   3 105 136 130
   3 105 136 101
   3 105 130  89
   3 105 130 136
   3 106  78 118
   3 106  78  37
   3 106 118  78
   3 106 118  45
   3 106  45 118
   4 106  45 121  62
   3 106  62  37
   4 106  62 121  45
   3 106  37  62
   3 106  37  78
   3 107  77  63
   3 107  77 117
   3 107  63  77
   3 107  63  62
   3 107  62  63
   4 107  62 120  38
   3 107  38 117
   4 107  38 120  62
   3 107 117  77
   3 107 117  38
   3 108  26  53
   3 108  26   3
   3 108  53  26
   3 108  53  90
   3 108  90  91
   3 108  90  53
   3 108  91   3
   3 108  91  90
   3 108   3  26
   3 108   3  91
   3 109  92   4
   3 109  92  90
   3 109  90  54
   3 109  90  92
   3 109  54  90
   3 109  54  27
   3 109  27   4
   3 109  27  54
   3 109   4  92
   3 109   4  27
   3 110  38 139
   4 110  38  45 111
   3 110  73 139
   4 110  73  74 111
   3 110 139  73
   3 110 139  38
   3 111  45 140
   4 111  45  38 110
   3 111 140  74
   3 111 140  45
   3 111  74 140
   4 111  74  73 110
   3 112  87  75
   3 112  87 125
   3 112  75  97
   3 112  75  87
   3 112  97  75
   3 112  97 143
   3 112 143  97
   3 112 143  56
   3 112  56 143
   3 112  56 125
   3 112 125  87
   3 112 125  56
   3 113  98  76
   3 113  98 144
   3 113  76  86
   3 113  76  98
   3 113  86  76
   3 113  86 124
   3 113 124  86
   3 113 124  56
   3 113  56 144
   3 113  56 124
   3 113 144  98
   3 113 144  56
   3 114  34  39
   3 114  34   9
   3 114  39  35
   3 114  39  34
   3 114  35  39
   3 114  35   2
   3 114   2  35
   3 114   2   9
   3 114   9  34
   3 114   9   2
   3 115  97  71
   3 115  97 143
   3 115  71  81
   3 115  71  97
   3 115  81 145
   3 115  81  71
   3 115 145  81
   3 115 145  56
   3 115  56 143
   3 115  56 145
   3 115 143  97
   3 115 143  56
   3 116  81  72
   3 116  81 145
   3 116  72  98
   3 116  72  81
   3 116  98  72
   3 116  98 144
   3 116 144  98
   3 116 144  56
   3 116  56 145
   3 116  56 144
   3 116 145  81
   3 116 145  56
   3 117  84  77
   3 117  84 126
   3 117  77 107
   3 117  77  84
   3 117 107  77
   3 117 107  38
   3 117  38 126
   3 117  38 107
   3 117 126  84
   3 117 126  38
   3 118 106  78
   3 118 106  45
   3 118  78  85
   3 118  78 106
   3 118  85 127
   3 118  85  78
   3 118 127  85
   3 118 127  45
   3 118  45 106
   3 118  45 127
   3 119  30 148
   3 119  30  41
   3 119 148 128
   3 119 148  30
   3 119 128  42
   3 119 128 148
   3 119  42  94
   3 119  42 128
   3 119  94  42
   3 119  94  93
   3 119  93  41
   3 119  93  94
   3 119  41  93
   3 119  41  30
   3 120  62 121
   4 120  62 107  38
   3 120 121  62
   4 120 121  45  38
   3 121 120  62
   4 121 120  38  45
   3 121  62 120
   4 121  62 106  45
   3 122  95  82
   3 122  95 141
   3 122  82  79
   3 122  82  95
   3 122  79 131
   3 122  79  82
   3 122 131  79
   3 122 131  46
   3 122  46 141
   3 122  46 131
   3 122 141  95
   3 122 141  46
   3 123  80  83
   3 123  80 132
   3 123  83  96
   3 123  83  80
   3 123  96 142
   3 123  96  83
   3 123 142  96
   3 123 142  55
   3 123  55 132
   3 123  55 142
   3 123 132  80
   3 123 132  55
   3 124 113  86
   3 124 113  56
   3 124  86  41
   3 124  86 113
   3 124  41  93
   3 124  41  86
   3 124  93  41
   4 124  93 133  56
   3 124  56 113
   4 124  56 133  93
   3 125  94  42
   4 125  94 134  56
   3 125  42  94
   3 125  42  87
   3 125  87  42
   3 125  87 112
   3 125 112  87
   3 125 112  56
   3 125  56 112
   4 125  56 134  94
   3 126 102  84
   3 126 102 139
   3 126  84 117
   3 126  84 102
   3 126 117  84
   3 126 117  38
   3 126  38 139
   3 126  38 117
   3 126 139 102
   3 126 139  38
   3 127 118  85
   3 127 118  45
   3 127  85 103
   3 127  85 118
   3 127 103  85
   3 127 103 140
   3 127 140 103
   3 127 140  45
   3 127  45 118
   3 127  45 140
   3 128  33  40
   3 128  33  57
   3 128  40  33
   3 128  40  61
   3 128  61  42
   3 128  61  40
   3 128  42 119
   3 128  42  61
   3 128 119 148
   3 128 119  42
   3 128 148  57
   3 128 148 119
   3 128  57 148
   3 128  57  33
   3 129 104  88
   3 129 104 135
   3 129  88  95
   3 129  88 104
   3 129  95 141
   3 129  95  88
   3 129 141  95
   3 129 141  46
   3 129  46 135
   3 129  46 141
   3 129 135 104
   3 129 135  46
   3 130  96  89
   3 130  96 142
   3 130  89 105
   3 130  89  96
   3 130 105  89
   3 130 105 136
   3 130 136 105
   3 130 136  55
   3 130  55 136
   3 130  55 142
   3 130 142  96
   3 130 142  55
   3 131 122  79
   3 131 122  46
   3 131  79  57
   3 131  79 122
   3 131  57  79
   4 131  57 137  46
   3 131  46 122
   4 131  46 137  57
   3 132  57  80
   4 132  57 138  55
   3 132  80 123
   3 132  80  57
   3 132 123  80
   3 132 123  55
   3 132  55 123
   4 132  55 138  57
   3 133  56 134
   4 133  56 124  93
   3 133 134  56
   4 133 134  94  93
   3 134  56 133
   4 134  56 125  94
   3 134 133  56
   4 134 133  93  94
   3 135 100 104
   4 135 100 146  46
   3 135 104 100
   3 135 104 129
   3 135 129 104
   3 135 129  46
   3 135  46 129
   4 135  46 146 100
   3 136 130 105
   3 136 130  55
   3 136 105 101
   3 136 105 130
   3 136 101 105
   4 136 101 147  55
   3 136  55 130
   4 136  55 147 101
   3 137  57 138
   4 137  57 131  46
   3 137 138  57
   4 137 138  55  46
   3 138 137  57
   4 138 137  46  55
   3 138  57 137
   4 138  57 132  55
   3 139 110  38
   3 139 110  73
   3 139  73 110
   3 139  73 102
   3 139 102  73
   3 139 102 126
   3 139 126 102
   3 139 126  38
   3 139  38 110
   3 139  38 126
   3 140 127 103
   3 140 127  45
   3 140 103  74
   3 140 103 127
   3 140  74 111
   3 140  74 103
   3 140 111  45
   3 140 111  74
   3 140  45 111
   3 140  45 127
   3 141 129  95
   3 141 129  46
   3 141  95 122
   3 141  95 129
   3 141 122  95
   3 141 122  46
   3 141  46 129
   3 141  46 122
   3 142 123  96
   3 142 123  55
   3 142  96 130
   3 142  96 123
   3 142 130  96
   3 142 130  55
   3 142  55 123
   3 142  55 130
   3 143 112  97
   3 143 112  56
   3 143  97 115
   3 143  97 112
   3 143 115  97
   3 143 115  56
   3 143  56 112
   3 143  56 115
   3 144 116  98
   3 144 116  56
   3 144  98 113
   3 144  98 116
   3 144 113  98
   3 144 113  56
   3 144  56 116
   3 144  56 113
   3 145 115  81
   3 145 115  56
   3 145  81 116
   3 145  81 115
   3 145 116  81
   3 145 116  56
   3 145  56 115
   3 145  56 116
   3 148  57 128
   3 148  57  30
   3 148 128 119
   3 148 128  57
   3 148 119  30
   3 148 119 128
   3 148  30  57
   3 148  30 119
