 COFF
         155        1568         155
  
  -6.6205607664992145        1.2100724300220151        7.4213971299228270       0.60000002384185791       0.60000002384185791       0.60000002384185791       0.80000001192092896     
  -6.6205607492122995       -1.2100724463814174        7.4213971242456278       0.60000002384185791       0.60000002384185791       0.60000002384185791       0.80000001192092896     
  -3.4017508531251767E-002  -2.3222184142076885        7.0581753176976472       0.60000002384185791       0.60000002384185791       0.60000002384185791       0.80000001192092896     
   7.4954942925624684       -1.1056419019489045        7.6217868105888451       0.60000002384185791       0.60000002384185791       0.60000002384185791       0.80000001192092896     
   7.4954950939410434        1.1056414426637666        7.6217868198445968       0.60000002384185791       0.60000002384185791       0.60000002384185791       0.80000001192092896     
  -3.4017508164513106E-002   2.3222184107645623        7.0581753214325573       0.60000002384185791       0.60000002384185791       0.60000002384185791       0.80000001192092896     
   1.1754352990219017       -1.9911675275228347        7.2111323957353628       0.60000002384185791       0.60000002384185791       0.60000002384185791       0.80000001192092896     
   1.1754352988206214        1.9911675265881350        7.2111323968389014       0.60000002384185791       0.60000002384185791       0.60000002384185791       0.80000001192092896     
  -1.1923734795490011        1.9624722971347035        7.1946694871127379       0.60000002384185791       0.60000002384185791       0.60000002384185791       0.80000001192092896     
  -1.1923734705715929       -1.9624722956170899        7.1946694891149026       0.60000002384185791       0.60000002384185791       0.60000002384185791       0.80000001192092896     
   2.0764041672286329       -1.6660192864963994        7.4994151062813161       0.60000002384185791       0.60000002384185791       0.60000002384185791       0.80000001192092896     
   2.0764041666917850        1.6660192849905686        7.4994151078464562       0.60000002384185791       0.60000002384185791       0.60000002384185791       0.80000001192092896     
  -2.1004005344620733        1.6630407252972683        7.4877991176028322       0.60000002384185791       0.60000002384185791       0.60000002384185791       0.80000001192092896     
  -2.1004005287614720       -1.6630407297877641        7.4877991150909082       0.60000002384185791       0.60000002384185791       0.60000002384185791       0.80000001192092896     
   3.0639194873971869       -1.7727478273036821        7.3076008359501525       0.60000002384185791       0.60000002384185791       0.60000002384185791       0.80000001192092896     
   3.0639194878430782        1.7727478225387125        7.3076008407538682       0.60000002384185791       0.60000002384185791       0.60000002384185791       0.80000001192092896     
  -3.0472540969852830        1.8014400127869195        7.1983472059699594       0.60000002384185791       0.60000002384185791       0.60000002384185791       0.80000001192092896     
  -3.0472541165063656       -1.8014399596055402        7.1983472593505473       0.60000002384185791       0.60000002384185791       0.60000002384185791       0.80000001192092896     
   4.1408029274641311       -1.7615989627859427        7.2125877189654055       0.60000002384185791       0.60000002384185791       0.60000002384185791       0.80000001192092896     
   4.1408029256145440        1.7615989484699444        7.2125877335813762       0.60000002384185791       0.60000002384185791       0.60000002384185791       0.80000001192092896     
  -4.0841431479413579        1.7968277406891988        7.1318790934881449       0.60000002384185791       0.60000002384185791       0.60000002384185791       0.80000001192092896     
  -4.0841431446075740       -1.7968277601782188        7.1318790737806790       0.60000002384185791       0.60000002384185791       0.60000002384185791       0.80000001192092896     
   5.1103735933584709       -1.5203292474255261        7.3889036093989446       0.60000002384185791       0.60000002384185791       0.60000002384185791       0.80000001192092896     
   5.1103735939143915        1.5203292511260085        7.3889036057432280       0.60000002384185791       0.60000002384185791       0.60000002384185791       0.80000001192092896     
  -5.1275748246893889        1.5872130228912047        7.2646371876891287       0.60000002384185791       0.60000002384185791       0.60000002384185791       0.80000001192092896     
  -5.1275748288439722       -1.5872130399365658        7.2646371698422136       0.60000002384185791       0.60000002384185791       0.60000002384185791       0.80000001192092896     
   6.0767622533517409       -1.4167916617121827        7.6468717254122325       0.60000002384185791       0.60000002384185791       0.60000002384185791       0.80000001192092896     
   6.0767622563597552        1.4167916657540651        7.6468717194430118       0.60000002384185791       0.60000002384185791       0.60000002384185791       0.80000001192092896     
  -7.8308287465726956        1.0034623705898982E-004   7.4409121198054695       0.60000002384185791       0.60000002384185791       0.60000002384185791       0.80000001192092896     
   8.6043512064714811       -1.4470397252293622E-004   7.6125677039777795       0.60000002384185791       0.60000002384185791       0.60000002384185791       0.80000001192092896     
  -1.9583559567466282       -1.0295691439009536        4.7741788418089683       0.60000002384185791       0.60000002384185791       0.60000002384185791       0.80000001192092896     
   1.1944726624318387       -1.9074337845021179        5.9082353029479853       0.60000002384185791       0.60000002384185791       0.60000002384185791       0.80000001192092896     
   1.1944714907896097        1.9074341105534027        5.9082351424976665       0.60000002384185791       0.60000002384185791       0.60000002384185791       0.80000001192092896     
  -2.1821774650777814        1.6852704645663510        6.2408423167985898       0.60000002384185791       0.60000002384185791       0.60000002384185791       0.80000001192092896     
  -2.1821779242663886       -1.6852697780917549        6.2408402730471169       0.60000002384185791       0.60000002384185791       0.60000002384185791       0.80000001192092896     
   4.3707719907895369E-002  -2.0380107602877655        5.5970849289127393       0.60000002384185791       0.60000002384185791       0.60000002384185791       0.80000001192092896     
   4.3693717262944479E-002   2.0380456697569054        5.5970850323935419       0.60000002384185791       0.60000002384185791       0.60000002384185791       0.80000001192092896     
   2.4499964163185299        1.5720965369188975        6.0693573124826106       0.60000002384185791       0.60000002384185791       0.60000002384185791       0.80000001192092896     
   3.7394586742248421      -0.61951567648804928        3.3105001657960162        1.0000000000000000        1.0000000000000000        0.0000000000000000        1.0000000000000000     
 -0.89479093788914310       -1.9054151706782156        5.0948803066774753       0.60000002384185791       0.60000002384185791       0.60000002384185791       0.80000001192092896     
 -0.89479079060850741        1.9054122283348687        5.0948793091931313       0.60000002384185791       0.60000002384185791       0.60000002384185791       0.80000001192092896     
  -1.5459181040951744      -0.87576316549304067        3.3362831905641976       0.60000002384185791       0.60000002384185791       0.60000002384185791       0.80000001192092896     
  -1.5459178080355125       0.87576465483377630        3.3363066746039145       0.60000002384185791       0.60000002384185791       0.60000002384185791       0.80000001192092896     
   1.1039500576314507        1.8771812873307923        4.7563176628128572       0.60000002384185791       0.60000002384185791       0.60000002384185791       0.80000001192092896     
   1.1039754826688153       -1.8771704855392402        4.7563330575820215       0.60000002384185791       0.60000002384185791       0.60000002384185791       0.80000001192092896     
   3.7394586161564614       0.61951705933513090        3.3105001657960162        1.0000000000000000        1.0000000000000000        0.0000000000000000        1.0000000000000000     
  -4.2139578274878984       0.66032466186931327        3.5885653274392326        1.0000000000000000        1.0000000000000000        0.0000000000000000        1.0000000000000000     
   2.1650034744260829       -5.3582584184945086E-007   5.2422150105661567       0.60000002384185791       0.60000002384185791       0.60000002384185791       0.80000001192092896     
   1.4980405313314775        1.4567320737096940        4.3353552321574931       0.60000002384185791       0.60000002384185791       0.60000002384185791       0.80000001192092896     
   1.4980384034965388       -1.4567370630748619        4.3353655693851438       0.60000002384185791       0.60000002384185791       0.60000002384185791       0.80000001192092896     
  0.15674455280116104        1.9376346840923047        4.4490570125444941       0.60000002384185791       0.60000002384185791       0.60000002384185791       0.80000001192092896     
  0.15665987330663542       -1.9374694327882225        4.4490535448642392       0.60000002384185791       0.60000002384185791       0.60000002384185791       0.80000001192092896     
   1.6715408253559372        2.1858782195693014E-006   3.8779432361624395       0.60000002384185791       0.60000002384185791       0.60000002384185791       0.80000001192092896     
   5.5672013194240515       -1.4081691610236888        6.5356418901114584       0.60000002384185791       0.60000002384185791       0.60000002384185791       0.80000001192092896     
   5.5672012793236965        1.4081691518389938        6.5356418829201353       0.60000002384185791       0.60000002384185791       0.60000002384185791       0.80000001192092896     
  -4.2139582073642892      -0.66032581013593095        3.5885653274392331        1.0000000000000000        1.0000000000000000        0.0000000000000000        1.0000000000000000     
  0.15695841035292724       -2.3103797070312385E-008   1.0382578837327854        1.0000000000000000        1.0000000000000000        0.0000000000000000        1.0000000000000000     
  -2.5583858115241269       -1.7711458324065679E-006   5.0835387011935742       0.60000002384185791       0.60000002384185791       0.60000002384185791       0.80000001192092896     
  -5.8228310289496870        1.3748696281980006        6.6150623926161085       0.60000002384185791       0.60000002384185791       0.60000002384185791       0.80000001192092896     
  -5.8228310576331390       -1.3748696140619157        6.6150622904051213       0.60000002384185791       0.60000002384185791       0.60000002384185791       0.80000001192092896     
 -0.76487569370368513       -1.6839315296417277        3.9644157649808931       0.60000002384185791       0.60000002384185791       0.60000002384185791       0.80000001192092896     
 -0.76487662561705272        1.6839276716576983        3.9644052357730195       0.60000002384185791       0.60000002384185791       0.60000002384185791       0.80000001192092896     
   2.4509679167475369       -9.6320053346859818E-007   5.5279946150359676       0.60000002384185791       0.60000002384185791       0.60000002384185791       0.80000001192092896     
   2.4500000925134251       -1.5720976443382118        6.0693577709345936       0.60000002384185791       0.60000002384185791       0.60000002384185791       0.80000001192092896     
   1.7263457814639653        1.7495941054319981        5.3777984490754536       0.60000002384185791       0.60000002384185791       0.60000002384185791       0.80000001192092896     
  0.97509169651211647        1.7317828036321186        3.7137819099706557       0.60000002384185791       0.60000002384185791       0.60000002384185791       0.80000001192092896     
  0.97512505998000609       -1.7318100497129483        3.7137749824091304       0.60000002384185791       0.60000002384185791       0.60000002384185791       0.80000001192092896     
   1.7263298919138432       -1.7495974539528465        5.3777835351523695       0.60000002384185791       0.60000002384185791       0.60000002384185791       0.80000001192092896     
  -1.0308887407456715        1.9414595754948214        6.0850500801751330       0.60000002384185791       0.60000002384185791       0.60000002384185791       0.80000001192092896     
   4.5630757196623852       -1.6564951780043953        6.6178798706798387       0.60000002384185791       0.60000002384185791       0.60000002384185791       0.80000001192092896     
   4.5630757384896752        1.6564954656632953        6.6178800602418981       0.60000002384185791       0.60000002384185791       0.60000002384185791       0.80000001192092896     
   1.3003551572590173        1.2360186642933690        3.2807564456061513        1.0000000000000000       0.10000000149011612        0.0000000000000000       0.50000000000000000     
   1.3003534904881131       -1.2360206806783758        3.2807567848522301        1.0000000000000000       0.10000000149011612        0.0000000000000000       0.50000000000000000     
   5.6049833124392876      -0.88122519488283824        5.3425074334002280       0.60000002384185791       0.60000002384185791       0.60000002384185791       0.80000001192092896     
   5.6049864031000673       0.88122336929099987        5.3425065164243914       0.60000002384185791       0.60000002384185791       0.60000002384185791       0.80000001192092896     
  0.21803311015005603        1.7809709933132731        3.3685478486118638        1.0000000000000000       0.10000000149011612        0.0000000000000000       0.50000000000000000     
  0.21788629283328551       -1.7810063340942459        3.3685476245810215        1.0000000000000000       0.10000000149011612        0.0000000000000000       0.50000000000000000     
   3.6270894651420411       -1.7667428148266786        6.2305246341581224       0.60000002384185791       0.60000002384185791       0.60000002384185791       0.80000001192092896     
   3.6271734401750519        1.7668766372940514        6.2305250320328698       0.60000002384185791       0.60000002384185791       0.60000002384185791       0.80000001192092896     
  -2.9815962549932453        1.7567796005831136        5.6618552881643689       0.60000002384185791       0.60000002384185791       0.60000002384185791       0.80000001192092896     
  -2.9816000347797074       -1.7567790181530762        5.6618551475581409       0.60000002384185791       0.60000002384185791       0.60000002384185791       0.80000001192092896     
   1.4495148779375808        2.1571753600419767E-006   2.9473008737858652        1.0000000000000000       0.10000000149011612        0.0000000000000000       0.50000000000000000     
  -3.5825004068666693        1.7987868684694570        6.1405933235773151       0.60000002384185791       0.60000002384185791       0.60000002384185791       0.80000001192092896     
  -3.5825031556170726       -1.7988463307477771        6.1405936782090516       0.60000002384185791       0.60000002384185791       0.60000002384185791       0.80000001192092896     
   3.9947969443604814       -1.7342025702750599        5.8648920733940262       0.60000002384185791       0.60000002384185791       0.60000002384185791       0.80000001192092896     
   3.9949408427995201        1.7342381647171115        5.8648930237328027       0.60000002384185791       0.60000002384185791       0.60000002384185791       0.80000001192092896     
 -0.58137980382279086       -1.4858425809056186        2.9094289474702744        1.0000000000000000       0.10000000149011612        0.0000000000000000       0.50000000000000000     
 -0.58138804914366937        1.4858385365634386        2.9094264034763917        1.0000000000000000       0.10000000149011612        0.0000000000000000       0.50000000000000000     
  -5.1113821657081324        1.5282826969494672        6.0800542763590313       0.60000002384185791       0.60000002384185791       0.60000002384185791       0.80000001192092896     
  -5.1113821643941684       -1.5282827459095782        6.0800542354053686       0.60000002384185791       0.60000002384185791       0.60000002384185791       0.80000001192092896     
   6.4866017869500983       -2.7955824552218325E-007   6.2427570083193356       0.60000002384185791       0.60000002384185791       0.60000002384185791       0.80000001192092896     
   7.3122160308605544      -0.44290158254669881        6.4372637299033952        1.0000000000000000        1.0000000000000000        0.0000000000000000        1.0000000000000000     
   7.3122164218669745       0.44290025701378138        6.4372637345825812        1.0000000000000000        1.0000000000000000        0.0000000000000000        1.0000000000000000     
  -1.7664699074854251      -0.45953798754170166        2.4665787211610595        1.0000000000000000       0.10000000149011612        0.0000000000000000       0.50000000000000000     
  -1.7664718836931614       0.45953128466922571        2.4665783594628912        1.0000000000000000       0.10000000149011612        0.0000000000000000       0.50000000000000000     
  -4.1769698159278565        1.7137495567310566        5.8265765121941948       0.60000002384185791       0.60000002384185791       0.60000002384185791       0.80000001192092896     
  -4.1770315033378163       -1.7138271425830243        5.8265770018612448       0.60000002384185791       0.60000002384185791       0.60000002384185791       0.80000001192092896     
  0.85649296007088527        1.5576302234899218        2.7084148560146870        1.0000000000000000       0.10000000149011612        0.0000000000000000       0.50000000000000000     
  0.85651498244821145       -1.5575761972270521        2.7084208902904381        1.0000000000000000       0.10000000149011612        0.0000000000000000       0.50000000000000000     
  -6.4492902628891366       -9.5400414595913143E-008   6.2875605753908772       0.60000002384185791       0.60000002384185791       0.60000002384185791       0.80000001192092896     
  -5.9422976251413591       0.69625176846405745        5.1668139789313203       0.60000002384185791       0.60000002384185791       0.60000002384185791       0.80000001192092896     
  -5.9422989646967217      -0.69625195494539893        5.1668139189355520       0.60000002384185791       0.60000002384185791       0.60000002384185791       0.80000001192092896     
   4.4892451329442071       -1.6429999155207133        5.4525495954618259       0.60000002384185791       0.60000002384185791       0.60000002384185791       0.80000001192092896     
   4.4892191750617831        1.6429182666558222        5.4525497961623302       0.60000002384185791       0.60000002384185791       0.60000002384185791       0.80000001192092896     
  -5.6653494367701054        1.1190981967966902        5.6084483714720550       0.60000002384185791       0.60000002384185791       0.60000002384185791       0.80000001192092896     
  -5.6653250715963477       -1.1192571686334161        5.6084392463483468       0.60000002384185791       0.60000002384185791       0.60000002384185791       0.80000001192092896     
   2.7654059054878601        1.1163281673451362        5.3396310625221899       0.60000002384185791       0.60000002384185791       0.60000002384185791       0.80000001192092896     
   2.7654077061040168       -1.1163335234913967        5.3396307559113412       0.60000002384185791       0.60000002384185791       0.60000002384185791       0.80000001192092896     
   6.7521330783773967       -1.2263812507133749        7.0586948217856031       0.60000002384185791       0.60000002384185791       0.60000002384185791       0.80000001192092896     
   6.7521331799042592        1.2263811424718396        7.0586948307316302       0.60000002384185791       0.60000002384185791       0.60000002384185791       0.80000001192092896     
   5.3544248747245575      -0.78711834331910335        4.1786177559641127       0.60000002384185791       0.60000002384185791       0.60000002384185791       0.80000001192092896     
   5.3544460624319026       0.78710871604193910        4.1786131924386165       0.60000002384185791       0.60000002384185791       0.60000002384185791       0.80000001192092896     
  0.24570666379566816        1.6002878898019093        2.3998314180464901        1.0000000000000000       0.10000000149011612        0.0000000000000000       0.50000000000000000     
  0.24570300346926599       -1.6003203466701836        2.3998281252680171        1.0000000000000000       0.10000000149011612        0.0000000000000000       0.50000000000000000     
  -1.0308889344072272       -1.9414595676110207        6.0850511285005435       0.60000002384185791       0.60000002384185791       0.60000002384185791       0.80000001192092896     
   1.1608195054461179        1.0322225920246217        2.3872279007763990        1.0000000000000000       0.10000000149011612        0.0000000000000000       0.50000000000000000     
   1.1608163970590042       -1.0322223237164718        2.3872284180082000        1.0000000000000000       0.10000000149011612        0.0000000000000000       0.50000000000000000     
   3.3620631855830254       -1.4724462652811232        4.9021582930264973       0.60000002384185791       0.60000002384185791       0.60000002384185791       0.80000001192092896     
   3.3619500662897868        1.4723593241544153        4.9021658203907066       0.60000002384185791       0.60000002384185791       0.60000002384185791       0.80000001192092896     
  -2.0097438732631354       -3.2849774614989041E-007   3.4276154806816583       0.60000002384185791       0.60000002384185791       0.60000002384185791       0.80000001192092896     
   2.7811654783029431      -0.38634872638818468        4.1052025810561306       0.60000002384185791       0.60000002384185791       0.60000002384185791       0.80000001192092896     
   2.7811655454779474       0.38634828168998442        4.1052026635620811       0.60000002384185791       0.60000002384185791       0.60000002384185791       0.80000001192092896     
  -3.6012887909078097        1.6585592866637635        4.9067885888067737       0.60000002384185791       0.60000002384185791       0.60000002384185791       0.80000001192092896     
  -3.6012870587440160       -1.6585627247156913        4.9067918209855081       0.60000002384185791       0.60000002384185791       0.60000002384185791       0.80000001192092896     
 -0.74915407756308217       -1.1796353631614811        2.2161765653413639        1.0000000000000000       0.10000000149011612        0.0000000000000000       0.50000000000000000     
 -0.74915862764056684        1.1796332347169827        2.2161767714462792        1.0000000000000000       0.10000000149011612        0.0000000000000000       0.50000000000000000     
   3.8166260483796424       -1.5746224130132265        4.7864467057889257       0.60000002384185791       0.60000002384185791       0.60000002384185791       0.80000001192092896     
   3.8166262961413784        1.5746213480819276        4.7864468995432761       0.60000002384185791       0.60000002384185791       0.60000002384185791       0.80000001192092896     
  -1.9583498679100437        1.0295714236179778        4.7741815780002854       0.60000002384185791       0.60000002384185791       0.60000002384185791       0.80000001192092896     
  -4.9859347257959721        1.4278160429624815        5.0748285783785585       0.60000002384185791       0.60000002384185791       0.60000002384185791       0.80000001192092896     
  -4.9859452777873914       -1.4278120174901878        5.0748376554094285       0.60000002384185791       0.60000002384185791       0.60000002384185791       0.80000001192092896     
  -3.2551217817880116        1.3896898573949206        4.6956364048231887       0.60000002384185791       0.60000002384185791       0.60000002384185791       0.80000001192092896     
  -3.2551501485242067       -1.3897276658287621        4.6956329387405296       0.60000002384185791       0.60000002384185791       0.60000002384185791       0.80000001192092896     
  -1.3934458785861661      -0.35246024185907354        1.5507525674808138        1.0000000000000000       0.10000000149011612        0.0000000000000000       0.50000000000000000     
  -1.3934465091512769       0.35245776034140203        1.5507525201667376        1.0000000000000000       0.10000000149011612        0.0000000000000000       0.50000000000000000     
  -5.3649401038497126        1.2315669924243620        4.8159123327151940       0.60000002384185791       0.60000002384185791       0.60000002384185791       0.80000001192092896     
  -5.3649411737001902       -1.2315671935309673        4.8159121874260471       0.60000002384185791       0.60000002384185791       0.60000002384185791       0.80000001192092896     
  -2.8761379764726835       0.32509689021602889        4.1425517938244818       0.60000002384185791       0.60000002384185791       0.60000002384185791       0.80000001192092896     
  -2.8761394399585911      -0.32510161094679885        4.1425557059120957       0.60000002384185791       0.60000002384185791       0.60000002384185791       0.80000001192092896     
   4.2496013449011656       -1.5026624038364360        4.4509557769778381       0.60000002384185791       0.60000002384185791       0.60000002384185791       0.80000001192092896     
   4.2495868804463637        1.5026752376967232        4.4509506782117105       0.60000002384185791       0.60000002384185791       0.60000002384185791       0.80000001192092896     
  -4.1718018837325834        1.5975708857252930        4.8742306356701608       0.60000002384185791       0.60000002384185791       0.60000002384185791       0.80000001192092896     
  -4.1718065925778633       -1.5975707081625343        4.8742329351248888       0.60000002384185791       0.60000002384185791       0.60000002384185791       0.80000001192092896     
  0.72483667728557133        1.2537035527991045        1.8646765296561225        1.0000000000000000       0.10000000149011612        0.0000000000000000       0.50000000000000000     
  0.72482965485430972       -1.2537070259058010        1.8646796663221401        1.0000000000000000       0.10000000149011612        0.0000000000000000       0.50000000000000000     
   1.2729112213633771        4.6895415072991464E-005   2.1221094403394307        1.0000000000000000       0.10000000149011612        0.0000000000000000       0.50000000000000000     
  -5.4643005554863020       0.67295122077667924        4.1670228947783343       0.60000002384185791       0.60000002384185791       0.60000002384185791       0.80000001192092896     
  -5.4642998573496229      -0.67295083142662271        4.1670228866935854       0.60000002384185791       0.60000002384185791       0.60000002384185791       0.80000001192092896     
  -2.0835796895613012       -6.1340870790402911E-007   4.6364729061296783       0.60000002384185791       0.60000002384185791       0.60000002384185791       0.80000001192092896     
   3.0498861663607788       -1.0487535780463972        4.3789928281386414       0.60000002384185791       0.60000002384185791       0.60000002384185791       0.80000001192092896     
   3.0498842365118453        1.0487518823727124        4.3789937470083533       0.60000002384185791       0.60000002384185791       0.60000002384185791       0.80000001192092896     
  -2.3078691808714709        1.0214103621681478        5.4773740864715377       0.60000002384185791       0.60000002384185791       0.60000002384185791       0.80000001192092896     
  -2.3078708454672325       -1.0214099836386075        5.4773709936883739       0.60000002384185791       0.60000002384185791       0.60000002384185791       0.80000001192092896     
  0.16947666462160157       0.97415808511252400        1.6666662629002666        1.0000000000000000       0.10000000149011612        0.0000000000000000       0.50000000000000000     
  0.16947699773290650      -0.97415628435862522        1.6666661354984325        1.0000000000000000       0.10000000149011612        0.0000000000000000       0.50000000000000000     
  
   3   0  24  58
   3   0  58  24
   3   0  58  99
   3   0  99  28
   3   0  99  58
   3   0  28  99
   3   1  28  99
   3   1  99  59
   3   1  99  28
   3   1  59  99
   3   1  59  25
   3   1  25  59
   3   2  35 114
   3   2  35  31
   3   2  31  35
   3   2  31   6
   3   2   6  31
   3   2   9 114
   3   2 114  35
   3   2 114   9
   3   3  29  91
   3   3  26 108
   3   3 108  26
   3   3 108  91
   3   3  91 108
   3   3  91  29
   3   4  29  92
   3   4  92  29
   3   4  92 109
   3   4 109  92
   3   4 109  27
   3   4  27 109
   3   5   7  32
   3   5  32  36
   3   5  32   7
   3   5  36  32
   3   5  36  68
   3   5  68  36
   3   5  68   8
   3   5   8  68
   3   6   2  31
   3   6  31   2
   3   6  31  63
   3   6  63  10
   3   6  63  31
   3   6  10  63
   3   7  11  37
   3   7  37  32
   3   7  37  11
   3   7  32  37
   3   7  32   5
   3   7   5  32
   3   8   5  68
   3   8  68   5
   3   8  68  33
   3   8  33  12
   3   8  33  68
   3   8  12  33
   3   9  13  34
   3   9  34 114
   3   9  34  13
   3   9 114  34
   3   9 114   2
   3   9   2 114
   3  10   6  63
   3  10  63  14
   3  10  63   6
   3  10  14  63
   3  11  15  37
   3  11  37   7
   3  11  37  15
   3  11   7  37
   3  12   8  33
   3  12  33  16
   3  12  33   8
   3  12  16  33
   3  13  17  34
   3  13  34   9
   3  13  34  17
   3  13   9  34
   3  14  10  63
   3  14  63  77
   3  14  63  10
   3  14  77  63
   3  14  77  18
   3  14  18  77
   3  15  19  78
   3  15  78  19
   3  15  78  37
   3  15  37  11
   3  15  37  78
   3  15  11  37
   3  16  12  33
   3  16  33  79
   3  16  33  12
   3  16  79  82
   3  16  79  33
   3  16  82  79
   3  16  82  20
   3  16  20  82
   3  17  21  83
   3  17  83  21
   3  17  83  80
   3  17  80  83
   3  17  80  34
   3  17  34  80
   3  17  34  13
   3  17  13  34
   3  18  14  77
   3  18  77  84
   3  18  77  14
   3  18  84  77
   3  18  84  69
   3  18  69  84
   3  18  69  22
   3  18  22  69
   3  19  23  70
   3  19  70  85
   3  19  70  23
   3  19  85  70
   3  19  85  78
   3  19  78  85
   3  19  78  15
   3  19  15  78
   3  20  16  82
   3  20  82  95
   3  20  82  16
   3  20  95  82
   3  20  95  88
   3  20  88  95
   3  20  88  24
   3  20  24  88
   3  21  25  89
   3  21  89  96
   3  21  89  25
   3  21  96  89
   3  21  96  83
   3  21  83  96
   3  21  83  17
   3  21  17  83
   3  22  18  69
   3  22  69  18
   3  22  69  53
   3  22  53  26
   3  22  53  69
   3  22  26  53
   3  23  27  54
   3  23  54  70
   3  23  54  27
   3  23  70  54
   3  23  70  19
   3  23  19  70
   3  24  20  88
   3  24  88  20
   3  24  88  58
   3  24  58   0
   3  24  58  88
   3  24   0  58
   3  25   1  59
   3  25  59   1
   3  25  59  89
   3  25  89  59
   3  25  89  21
   3  25  21  89
   3  26  22  53
   3  26  53 108
   3  26  53  22
   3  26 108  53
   3  26 108   3
   3  26   3 108
   3  27   4 109
   3  27 109  54
   3  27 109   4
   3  27  54 109
   3  27  54  23
   3  27  23  54
   3  28   0  99
   3  28  99   1
   3  28  99   0
   3  28   1  99
   3  29   3  91
   3  29  91   3
   3  29  91  92
   3  29  92   4
   3  29  92  91
   3  29   4  92
   3  30  34 152
   3  30  34  39
   3  30 152  57
   3  30 152  34
   3  30  57 148
   3  30  57 152
   3  30 148  57
   3  30 148 119
   3  30 119 148
   3  30 119  41
   3  30  41  60
   3  30  41 119
   3  30  60  41
   3  30  60  39
   3  30  39  34
   3  30  39  60
   3  31   2  35
   3  31   2   6
   3  31  35  44
   3  31  35   2
   3  31  44  67
   3  31  44  35
   3  31  67  63
   3  31  67  44
   3  31  63   6
   3  31  63  67
   3  31   6   2
   3  31   6  63
   3  32  37  64
   3  32  37   7
   3  32  64  37
   3  32  64  43
   3  32  43  36
   3  32  43  64
   3  32  36  43
   3  32  36   5
   3  32   5   7
   3  32   5  36
   3  32   7  37
   3  32   7   5
   3  33  79  16
   3  33  79 151
   3  33  16  12
   3  33  16  79
   3  33  12   8
   3  33  12  16
   3  33   8  68
   3  33   8  12
   3  33  68  40
   3  33  68   8
   3  33  40 128
   3  33  40  68
   3  33 128  40
   3  33 128 151
   3  33 151 128
   3  33 151  79
   3  34  80  17
   3  34  80 152
   3  34 152  80
   3  34 152  30
   3  34  30 152
   3  34  30  39
   3  34  39 114
   3  34  39  30
   3  34 114  39
   3  34 114   9
   3  34   9  13
   3  34   9 114
   3  34  13  17
   3  34  13   9
   3  34  17  80
   3  34  17  13
   3  35 114  39
   3  35 114   2
   3  35  39 114
   3  35  39  51
   3  35  51  44
   3  35  51  39
   3  35  44  31
   3  35  44  51
   3  35  31   2
   3  35  31  44
   3  35   2  31
   3  35   2 114
   3  36  32  43
   3  36  32   5
   3  36  43  32
   3  36  43  50
   3  36  50  40
   3  36  50  43
   3  36  40  68
   3  36  40  50
   3  36  68   5
   3  36  68  40
   3  36   5  32
   3  36   5  68
   3  37 106  78
   3  37 106  62
   3  37  62  47
   3  37  62 106
   3  37  47  62
   3  37  47  64
   3  37  64  47
   3  37  64  32
   3  37  32  64
   3  37  32   7
   3  37   7  11
   3  37   7  32
   3  37  11  15
   3  37  11   7
   3  37  15  78
   3  37  15  11
   3  37  78 106
   3  37  78  15
   3  38 110 139
   4  38 110 111  45
   3  38 139 110
   3  38 139 126
   3  38 126 117
   3  38 126 139
   3  38 117 149
   3  38 117 126
   3  38 149 117
   3  38 149 120
   3  38 120 149
   4  38 120 121  45
   3  39  35 114
   3  39  35  51
   3  39 114  34
   3  39 114  35
   3  39  34  30
   3  39  34 114
   3  39  30  34
   3  39  30  60
   3  39  60  30
   3  39  60  51
   3  39  51  35
   3  39  51  60
   3  40 128  33
   3  40 128  61
   3  40  33  68
   3  40  33 128
   3  40  68  36
   3  40  68  33
   3  40  36  50
   3  40  36  68
   3  40  50  36
   3  40  50  61
   3  40  61  50
   3  40  61 128
   3  41  93 119
   3  41  93 124
   3  41 124  86
   3  41 124  93
   3  41  86  60
   3  41  86 124
   3  41  60  30
   3  41  60  86
   3  41  30 119
   3  41  30  60
   3  41 119  30
   3  41 119  93
   3  42  94 125
   3  42  94 119
   3  42 119 128
   3  42 119  94
   3  42 128  61
   3  42 128 119
   3  42  61  87
   3  42  61 128
   3  42  87  61
   3  42  87 125
   3  42 125  94
   3  42 125  87
   3  43  36  32
   3  43  36  50
   3  43  32  64
   3  43  32  36
   3  43  64  48
   3  43  64  32
   3  43  48  64
   3  43  48  65
   3  43  65  48
   3  43  65  50
   3  43  50  36
   3  43  50  65
   3  44  67  49
   3  44  67  31
   3  44  31  35
   3  44  31  67
   3  44  35  51
   3  44  35  31
   3  44  51  35
   3  44  51  66
   3  44  66  51
   3  44  66  49
   3  44  49  67
   3  44  49  66
   3  45 111 140
   4  45 111 110  38
   3  45 121 150
   4  45 121 120  38
   3  45 150 121
   3  45 150 118
   3  45 118 127
   3  45 118 150
   3  45 127 118
   3  45 127 140
   3  45 140 127
   3  45 140 111
   3  46 135 129
   4  46 135 100 146
   3  46 129 141
   3  46 129 135
   3  46 141 129
   3  46 141 122
   3  46 122 131
   3  46 122 141
   3  46 131 122
   4  46 131  57 137
   3  47  37  62
   3  47  37  64
   3  47  62  37
   3  47  62  63
   3  47  63  67
   3  47  63  62
   3  47  67  49
   3  47  67  63
   3  47  49  67
   3  47  49  52
   3  47  52  48
   3  47  52  49
   3  47  48  64
   3  47  48  52
   3  47  64  37
   3  47  64  48
   3  48  43  64
   3  48  43  65
   3  48  64  47
   3  48  64  43
   3  48  47  52
   3  48  47  64
   3  48  52  47
   3  48  52  71
   3  48  71  52
   3  48  71  65
   3  48  65  71
   3  48  65  43
   3  49  47  67
   3  49  47  52
   3  49  67  47
   3  49  67  44
   3  49  44  67
   3  49  44  66
   3  49  66  72
   3  49  66  44
   3  49  72  66
   3  49  72  52
   3  49  52  47
   3  49  52  72
   3  50  40  36
   3  50  40  61
   3  50  36  43
   3  50  36  40
   3  50  43  36
   3  50  43  65
   3  50  65  75
   3  50  65  43
   3  50  75  65
   3  50  75  61
   3  50  61  75
   3  50  61  40
   3  51  44  35
   3  51  44  66
   3  51  35  39
   3  51  35  44
   3  51  39  35
   3  51  39  60
   3  51  60  76
   3  51  60  39
   3  51  76  60
   3  51  76  66
   3  51  66  76
   3  51  66  44
   3  52  48  47
   3  52  48  71
   3  52  47  49
   3  52  47  48
   3  52  49  47
   3  52  49  72
   3  52  72  81
   3  52  72  49
   3  52  81  72
   3  52  81  71
   3  52  71  81
   3  52  71  48
   3  53 108  26
   3  53 108  90
   3  53  26  22
   3  53  26 108
   3  53  22  69
   3  53  22  26
   3  53  69 102
   3  53  69  22
   3  53 102  73
   3  53 102  69
   3  53  73  90
   3  53  73 102
   3  53  90  73
   3  53  90 108
   3  54 109  90
   3  54 109  27
   3  54  90  74
   3  54  90 109
   3  54  74 103
   3  54  74  90
   3  54 103  70
   3  54 103  74
   3  54  70 103
   3  54  70  23
   3  54  23  27
   3  54  23  70
   3  54  27 109
   3  54  27  23
   3  55 136 130
   4  55 136 101 147
   3  55 132 123
   4  55 132  57 138
   3  55 123 142
   3  55 123 132
   3  55 142 123
   3  55 142 130
   3  55 130 136
   3  55 130 142
   3  56 153 125
   3  56 153 143
   3  56 143 115
   3  56 143 153
   3  56 115 145
   3  56 115 143
   3  56 145 115
   3  56 145 116
   3  56 116 144
   3  56 116 145
   3  56 144 116
   3  56 144 154
   3  56 154 144
   3  56 154 124
   3  56 124 154
   4  56 124 113 144
   3  56 133 134
   4  56 133  93 124
   3  56 134 133
   4  56 134  94 125
   3  56 125 153
   4  56 125  94 134
   3  57 128 148
   3  57 128 151
   3  57 148 128
   3  57 148  30
   3  57  30 152
   3  57  30 148
   3  57 152  80
   3  57 152  30
   3  57  80 132
   3  57  80 152
   3  57 132  80
   4  57 132  55 138
   3  57 138 137
   4  57 138  55 132
   3  57 137 138
   4  57 137  46 131
   3  57 131  79
   4  57 131  46 137
   3  57  79 131
   3  57  79 151
   3  57 151 128
   3  57 151  79
   3  58   0  24
   3  58   0  99
   3  58  24  88
   3  58  24   0
   3  58  88 104
   3  58  88  24
   3  58 104  99
   3  58 104  88
   3  58  99   0
   3  58  99 104
   3  59   1  99
   3  59   1  25
   3  59  99 105
   3  59  99   1
   3  59 105  89
   3  59 105  99
   3  59  89 105
   3  59  89  25
   3  59  25   1
   3  59  25  89
   3  60  30  41
   3  60  30  39
   3  60  41  86
   3  60  41  30
   3  60  86  76
   3  60  86  41
   3  60  76  86
   3  60  76  51
   3  60  51  39
   3  60  51  76
   3  60  39  30
   3  60  39  51
   3  61  50  40
   3  61  50  75
   3  61  75  87
   3  61  75  50
   3  61  87  42
   3  61  87  75
   3  61  42 128
   3  61  42  87
   3  61 128  40
   3  61 128  42
   3  61  40 128
   3  61  40  50
   3  62  47  37
   3  62  47  63
   3  62  37 106
   3  62  37  47
   3  62 106 150
   3  62 106  37
   3  62 150 121
   3  62 150 106
   3  62 121 120
   3  62 121 150
   3  62 120 149
   3  62 120 121
   3  62 149 107
   3  62 149 120
   3  62 107  63
   3  62 107 149
   3  62  63 107
   3  62  63  47
   3  63 107  77
   3  63 107  62
   3  63  77 107
   3  63  77  14
   3  63  14  10
   3  63  14  77
   3  63  10   6
   3  63  10  14
   3  63   6  31
   3  63   6  10
   3  63  31  67
   3  63  31   6
   3  63  67  47
   3  63  67  31
   3  63  47  62
   3  63  47  67
   3  63  62  47
   3  63  62 107
   3  64  37  47
   3  64  37  32
   3  64  47  37
   3  64  47  48
   3  64  48  43
   3  64  48  47
   3  64  43  32
   3  64  43  48
   3  64  32  37
   3  64  32  43
   3  65  48  43
   3  65  48  71
   3  65  71  97
   3  65  71  48
   3  65  97  75
   3  65  97  71
   3  65  75  97
   3  65  75  50
   3  65  50  43
   3  65  50  75
   3  65  43  48
   3  65  43  50
   3  66  51  44
   3  66  51  76
   3  66  76  98
   3  66  76  51
   3  66  98  72
   3  66  98  76
   3  66  72  98
   3  66  72  49
   3  66  49  44
   3  66  49  72
   3  66  44  51
   3  66  44  49
   3  67  49  47
   3  67  49  44
   3  67  47  63
   3  67  47  49
   3  67  63  31
   3  67  63  47
   3  67  31  44
   3  67  31  63
   3  67  44  31
   3  67  44  49
   3  68   5  36
   3  68   5   8
   3  68  36  40
   3  68  36   5
   3  68  40  33
   3  68  40  36
   3  68  33   8
   3  68  33  40
   3  68   8   5
   3  68   8  33
   3  69  18  84
   3  69  18  22
   3  69  84 102
   3  69  84  18
   3  69 102  53
   3  69 102  84
   3  69  53  22
   3  69  53 102
   3  69  22  18
   3  69  22  53
   3  70  54 103
   3  70  54  23
   3  70 103  85
   3  70 103  54
   3  70  85 103
   3  70  85  19
   3  70  19  23
   3  70  19  85
   3  70  23  54
   3  70  23  19
   3  71  52  48
   3  71  52  81
   3  71  81 115
   3  71  81  52
   3  71 115  97
   3  71 115  81
   3  71  97  65
   3  71  97 115
   3  71  65  48
   3  71  65  97
   3  71  48  52
   3  71  48  65
   3  72  66  98
   3  72  66  49
   3  72  98  66
   3  72  98 116
   3  72 116  81
   3  72 116  98
   3  72  81 116
   3  72  81  52
   3  72  52  49
   3  72  52  81
   3  72  49  66
   3  72  49  52
   3  73 110 139
   4  73 110 111  74
   3  73  74  90
   4  73  74 111 110
   3  73  90  74
   3  73  90  53
   3  73  53 102
   3  73  53  90
   3  73 102  53
   3  73 102 139
   3  73 139 110
   3  73 139 102
   3  74 111 140
   4  74 111 110  73
   3  74 140 103
   3  74 140 111
   3  74 103  54
   3  74 103 140
   3  74  54  90
   3  74  54 103
   3  74  90  73
   3  74  90  54
   3  74  73  90
   4  74  73 110 111
   3  75  65  97
   3  75  65  50
   3  75  97  65
   3  75  97 112
   3  75 112  87
   3  75 112  97
   3  75  87  61
   3  75  87 112
   3  75  61  50
   3  75  61  87
   3  75  50  65
   3  75  50  61
   3  76  60  86
   3  76  60  51
   3  76  86  60
   3  76  86 113
   3  76 113  98
   3  76 113  86
   3  76  98  66
   3  76  98 113
   3  76  66  51
   3  76  66  98
   3  76  51  60
   3  76  51  66
   3  77  63 107
   3  77  63  14
   3  77 107  63
   3  77 107 117
   3  77 117  84
   3  77 117 107
   3  77  84 117
   3  77  84  18
   3  77  18  14
   3  77  18  84
   3  77  14  63
   3  77  14  18
   3  78  19  85
   3  78  19  15
   3  78  85 118
   3  78  85  19
   3  78 118 106
   3  78 118  85
   3  78 106 118
   3  78 106  37
   3  78  37 106
   3  78  37  15
   3  78  15  19
   3  78  15  37
   3  79  57 131
   3  79  57 151
   3  79 131 122
   3  79 131  57
   3  79 122  82
   3  79 122 131
   3  79  82 122
   3  79  82  16
   3  79  16  33
   3  79  16  82
   3  79  33  16
   3  79  33 151
   3  79 151  57
   3  79 151  33
   3  80  17  83
   3  80  17  34
   3  80  83 123
   3  80  83  17
   3  80 123  83
   3  80 123 132
   3  80 132  57
   3  80 132 123
   3  80  57 152
   3  80  57 132
   3  80 152  57
   3  80 152  34
   3  80  34 152
   3  80  34  17
   3  81  72 116
   3  81  72  52
   3  81 116  72
   3  81 116 145
   3  81 145 115
   3  81 145 116
   3  81 115  71
   3  81 115 145
   3  81  71  52
   3  81  71 115
   3  81  52  72
   3  81  52  71
   3  82  79 122
   3  82  79  16
   3  82 122  95
   3  82 122  79
   3  82  95 122
   3  82  95  20
   3  82  20  16
   3  82  20  95
   3  82  16  79
   3  82  16  20
   3  83  21  96
   3  83  21  17
   3  83  96 123
   3  83  96  21
   3  83 123  80
   3  83 123  96
   3  83  80  17
   3  83  80 123
   3  83  17  21
   3  83  17  80
   3  84  77 117
   3  84  77  18
   3  84 117  77
   3  84 117 126
   3  84 126 102
   3  84 126 117
   3  84 102  69
   3  84 102 126
   3  84  69  18
   3  84  69 102
   3  84  18  77
   3  84  18  69
   3  85  70 103
   3  85  70  19
   3  85 103  70
   3  85 103 127
   3  85 127 118
   3  85 127 103
   3  85 118  78
   3  85 118 127
   3  85  78  19
   3  85  78 118
   3  85  19  70
   3  85  19  78
   3  86  76  60
   3  86  76 113
   3  86  60  41
   3  86  60  76
   3  86  41 124
   3  86  41  60
   3  86 124 113
   3  86 124  41
   3  86 113  76
   3  86 113 124
   3  87  42  61
   3  87  42 125
   3  87  61  75
   3  87  61  42
   3  87  75 112
   3  87  75  61
   3  87 112  75
   3  87 112 125
   3  87 125  42
   3  87 125 112
   3  88  20  95
   3  88  20  24
   3  88  95 129
   3  88  95  20
   3  88 129 104
   3  88 129  95
   3  88 104  58
   3  88 104 129
   3  88  58  24
   3  88  58 104
   3  88  24  20
   3  88  24  58
   3  89  59 105
   3  89  59  25
   3  89 105  59
   3  89 105 130
   3  89 130  96
   3  89 130 105
   3  89  96 130
   3  89  96  21
   3  89  21  25
   3  89  21  96
   3  89  25  59
   3  89  25  21
   3  90  73  74
   3  90  73  53
   3  90  74  54
   3  90  74  73
   3  90  54 109
   3  90  54  74
   3  90 109  92
   3  90 109  54
   3  90  92  91
   3  90  92 109
   3  90  91 108
   3  90  91  92
   3  90 108  53
   3  90 108  91
   3  90  53 108
   3  90  53  73
   3  91   3  29
   3  91   3 108
   3  91 108  90
   3  91 108   3
   3  91  90  92
   3  91  90 108
   3  91  92  29
   3  91  92  90
   3  91  29   3
   3  91  29  92
   3  92   4  29
   3  92   4 109
   3  92  29  91
   3  92  29   4
   3  92  91  90
   3  92  91  29
   3  92  90 109
   3  92  90  91
   3  92 109  90
   3  92 109   4
   3  93  41 124
   3  93  41 119
   3  93 119  94
   3  93 119  41
   3  93  94 119
   4  93  94 134 133
   3  93 124  41
   4  93 124  56 133
   3  94  42 119
   3  94  42 125
   3  94 125  42
   4  94 125  56 134
   3  94  93 119
   4  94  93 133 134
   3  94 119  42
   3  94 119  93
   3  95  82 122
   3  95  82  20
   3  95 122  82
   3  95 122 141
   3  95 141 129
   3  95 141 122
   3  95 129  88
   3  95 129 141
   3  95  88  20
   3  95  88 129
   3  95  20  82
   3  95  20  88
   3  96  89 130
   3  96  89  21
   3  96 130  89
   3  96 130 142
   3  96 142 123
   3  96 142 130
   3  96 123  83
   3  96 123 142
   3  96  83  21
   3  96  83 123
   3  96  21  89
   3  96  21  83
   3  97  75  65
   3  97  75 112
   3  97  65  71
   3  97  65  75
   3  97  71 115
   3  97  71  65
   3  97 115  71
   3  97 115 143
   3  97 143 112
   3  97 143 115
   3  97 112  75
   3  97 112 143
   3  98  72  66
   3  98  72 116
   3  98  66  76
   3  98  66  72
   3  98  76 113
   3  98  76  66
   3  98 113  76
   3  98 113 144
   3  98 144 116
   3  98 144 113
   3  98 116  72
   3  98 116 144
   3  99 100 101
   3  99 100 104
   3  99 101 105
   3  99 101 100
   3  99 105  59
   3  99 105 101
   3  99  59   1
   3  99  59 105
   3  99   1  28
   3  99   1  59
   3  99  28   0
   3  99  28   1
   3  99   0  58
   3  99   0  28
   3  99  58   0
   3  99  58 104
   3  99 104 100
   3  99 104  58
   3 100 101  99
   4 100 101 147 146
   3 100  99 101
   3 100  99 104
   3 100 104  99
   3 100 104 135
   3 100 135 104
   4 100 135  46 146
   3 101 136 105
   4 101 136  55 147
   3 101 105  99
   3 101 105 136
   3 101  99 100
   3 101  99 105
   3 101 100  99
   4 101 100 146 147
   3 102  73  53
   3 102  73 139
   3 102  53  69
   3 102  53  73
   3 102  69  84
   3 102  69  53
   3 102  84 126
   3 102  84  69
   3 102 126  84
   3 102 126 139
   3 102 139  73
   3 102 139 126
   3 103  85  70
   3 103  85 127
   3 103  70  54
   3 103  70  85
   3 103  54  74
   3 103  54  70
   3 103  74 140
   3 103  74  54
   3 103 140 127
   3 103 140  74
   3 103 127  85
   3 103 127 140
   3 104 100  99
   3 104 100 135
   3 104  99 100
   3 104  99  58
   3 104  58  88
   3 104  58  99
   3 104  88 129
   3 104  88  58
   3 104 129  88
   3 104 129 135
   3 104 135 100
   3 104 135 129
   3 105  89  59
   3 105  89 130
   3 105  59  99
   3 105  59  89
   3 105  99 101
   3 105  99  59
   3 105 101 136
   3 105 101  99
   3 105 136 130
   3 105 136 101
   3 105 130  89
   3 105 130 136
   3 106  78 118
   3 106  78  37
   3 106 118  78
   3 106 118 150
   3 106 150  62
   3 106 150 118
   3 106  62  37
   3 106  62 150
   3 106  37  62
   3 106  37  78
   3 107  77  63
   3 107  77 117
   3 107  63  77
   3 107  63  62
   3 107  62 149
   3 107  62  63
   3 107 149 117
   3 107 149  62
   3 107 117  77
   3 107 117 149
   3 108  26  53
   3 108  26   3
   3 108  53  26
   3 108  53  90
   3 108  90  91
   3 108  90  53
   3 108  91   3
   3 108  91  90
   3 108   3  26
   3 108   3  91
   3 109  92   4
   3 109  92  90
   3 109  90  54
   3 109  90  92
   3 109  54  90
   3 109  54  27
   3 109  27   4
   3 109  27  54
   3 109   4  92
   3 109   4  27
   3 110  38 139
   4 110  38  45 111
   3 110  73 139
   4 110  73  74 111
   3 110 139  73
   3 110 139  38
   3 111  45 140
   4 111  45  38 110
   3 111 140  74
   3 111 140  45
   3 111  74 140
   4 111  74  73 110
   3 112  87  75
   3 112  87 125
   3 112  75  97
   3 112  75  87
   3 112  97  75
   3 112  97 143
   3 112 143  97
   3 112 143 153
   3 112 153 125
   3 112 153 143
   3 112 125  87
   3 112 125 153
   3 113  98  76
   3 113  98 144
   3 113  76  86
   3 113  76  98
   3 113  86  76
   3 113  86 124
   3 113 124  86
   3 113 124 154
   3 113 154 144
   3 113 154 124
   3 113 144  98
   3 113 144 154
   3 114  34  39
   3 114  34   9
   3 114  39  35
   3 114  39  34
   3 114  35  39
   3 114  35   2
   3 114   2  35
   3 114   2   9
   3 114   9  34
   3 114   9   2
   3 115  97  71
   3 115  97 143
   3 115  71  81
   3 115  71  97
   3 115  81 145
   3 115  81  71
   3 115 145  81
   3 115 145  56
   3 115  56 143
   3 115  56 145
   3 115 143  97
   3 115 143  56
   3 116  81  72
   3 116  81 145
   3 116  72  98
   3 116  72  81
   3 116  98  72
   3 116  98 144
   3 116 144  98
   3 116 144  56
   3 116  56 145
   3 116  56 144
   3 116 145  81
   3 116 145  56
   3 117  84  77
   3 117  84 126
   3 117  77 107
   3 117  77  84
   3 117 107  77
   3 117 107 149
   3 117 149 107
   3 117 149  38
   3 117  38 126
   3 117  38 149
   3 117 126  84
   3 117 126  38
   3 118 106  78
   3 118 106 150
   3 118  78  85
   3 118  78 106
   3 118  85 127
   3 118  85  78
   3 118 127  85
   3 118 127  45
   3 118  45 150
   3 118  45 127
   3 118 150 106
   3 118 150  45
   3 119  30 148
   3 119  30  41
   3 119 148 128
   3 119 148  30
   3 119 128  42
   3 119 128 148
   3 119  42  94
   3 119  42 128
   3 119  94  42
   3 119  94  93
   3 119  93  41
   3 119  93  94
   3 119  41  93
   3 119  41  30
   3 120  38 149
   4 120  38  45 121
   3 120 149  62
   3 120 149  38
   3 120  62 121
   3 120  62 149
   3 120 121  62
   4 120 121  45  38
   3 121  45 150
   4 121  45  38 120
   3 121 120  62
   4 121 120  38  45
   3 121  62 150
   3 121  62 120
   3 121 150  62
   3 121 150  45
   3 122  95  82
   3 122  95 141
   3 122  82  79
   3 122  82  95
   3 122  79 131
   3 122  79  82
   3 122 131  79
   3 122 131  46
   3 122  46 141
   3 122  46 131
   3 122 141  95
   3 122 141  46
   3 123  80  83
   3 123  80 132
   3 123  83  96
   3 123  83  80
   3 123  96 142
   3 123  96  83
   3 123 142  96
   3 123 142  55
   3 123  55 132
   3 123  55 142
   3 123 132  80
   3 123 132  55
   3 124 113  86
   3 124 113 154
   3 124  86  41
   3 124  86 113
   3 124  41  93
   3 124  41  86
   3 124  93  41
   4 124  93 133  56
   3 124  56 154
   4 124  56 144 113
   3 124 154 113
   3 124 154  56
   3 125  94  42
   4 125  94 134  56
   3 125  42  94
   3 125  42  87
   3 125  87  42
   3 125  87 112
   3 125 112  87
   3 125 112 153
   3 125 153 112
   3 125 153  56
   3 125  56 153
   4 125  56 143 112
   3 126 102  84
   3 126 102 139
   3 126  84 117
   3 126  84 102
   3 126 117  84
   3 126 117  38
   3 126  38 139
   3 126  38 117
   3 126 139 102
   3 126 139  38
   3 127 118  85
   3 127 118  45
   3 127  85 103
   3 127  85 118
   3 127 103  85
   3 127 103 140
   3 127 140 103
   3 127 140  45
   3 127  45 118
   3 127  45 140
   3 128  33  40
   3 128  33 151
   3 128  40  33
   3 128  40  61
   3 128  61  42
   3 128  61  40
   3 128  42 119
   3 128  42  61
   3 128 119 148
   3 128 119  42
   3 128 148  57
   3 128 148 119
   3 128  57 148
   3 128  57 151
   3 128 151  57
   3 128 151  33
   3 129 104  88
   3 129 104 135
   3 129  88  95
   3 129  88 104
   3 129  95 141
   3 129  95  88
   3 129 141  95
   3 129 141  46
   3 129  46 135
   3 129  46 141
   3 129 135 104
   3 129 135  46
   3 130  96  89
   3 130  96 142
   3 130  89 105
   3 130  89  96
   3 130 105  89
   3 130 105 136
   3 130 136 105
   3 130 136  55
   3 130  55 136
   3 130  55 142
   3 130 142  96
   3 130 142  55
   3 131 122  79
   3 131 122  46
   3 131  79  57
   3 131  79 122
   3 131  57  79
   4 131  57 137  46
   3 131  46 122
   4 131  46 137  57
   3 132  57  80
   4 132  57 138  55
   3 132  80 123
   3 132  80  57
   3 132 123  80
   3 132 123  55
   3 132  55 123
   4 132  55 138  57
   3 133  56 134
   4 133  56 124  93
   3 133 134  56
   4 133 134  94  93
   3 134  56 133
   4 134  56 125  94
   3 134 133  56
   4 134 133  93  94
   3 135 100 104
   4 135 100 146  46
   3 135 104 100
   3 135 104 129
   3 135 129 104
   3 135 129  46
   3 135  46 129
   4 135  46 146 100
   3 136 130 105
   3 136 130  55
   3 136 105 101
   3 136 105 130
   3 136 101 105
   4 136 101 147  55
   3 136  55 130
   4 136  55 147 101
   3 137  57 138
   4 137  57 131  46
   3 137 138  57
   4 137 138  55  46
   3 138 137  57
   4 138 137  46  55
   3 138  57 137
   4 138  57 132  55
   3 139 110  38
   3 139 110  73
   3 139  73 110
   3 139  73 102
   3 139 102  73
   3 139 102 126
   3 139 126 102
   3 139 126  38
   3 139  38 110
   3 139  38 126
   3 140 127 103
   3 140 127  45
   3 140 103  74
   3 140 103 127
   3 140  74 111
   3 140  74 103
   3 140 111  45
   3 140 111  74
   3 140  45 111
   3 140  45 127
   3 141 129  95
   3 141 129  46
   3 141  95 122
   3 141  95 129
   3 141 122  95
   3 141 122  46
   3 141  46 129
   3 141  46 122
   3 142 123  96
   3 142 123  55
   3 142  96 130
   3 142  96 123
   3 142 130  96
   3 142 130  55
   3 142  55 123
   3 142  55 130
   3 143 112  97
   3 143 112 153
   3 143  97 115
   3 143  97 112
   3 143 115  97
   3 143 115  56
   3 143  56 153
   3 143  56 115
   3 143 153 112
   3 143 153  56
   3 144 116  98
   3 144 116  56
   3 144  98 113
   3 144  98 116
   3 144 113  98
   3 144 113 154
   3 144 154 113
   3 144 154  56
   3 144  56 116
   3 144  56 154
   3 145 115  81
   3 145 115  56
   3 145  81 116
   3 145  81 115
   3 145 116  81
   3 145 116  56
   3 145  56 115
   3 145  56 116
   3 148  57 128
   3 148  57  30
   3 148 128 119
   3 148 128  57
   3 148 119  30
   3 148 119 128
   3 148  30  57
   3 148  30 119
   3 149 117 107
   3 149 117  38
   3 149 107  62
   3 149 107 117
   3 149  62 120
   3 149  62 107
   3 149 120  38
   3 149 120  62
   3 149  38 117
   3 149  38 120
   3 150 121  45
   3 150 121  62
   3 150  62 106
   3 150  62 121
   3 150 106 118
   3 150 106  62
   3 150 118 106
   3 150 118  45
   3 150  45 121
   3 150  45 118
   3 151 128  33
   3 151 128  57
   3 151  57 128
   3 151  57  79
   3 151  79  57
   3 151  79  33
   3 151  33  79
   3 151  33 128
   3 152  80  57
   3 152  80  34
   3 152  57  30
   3 152  57  80
   3 152  30  34
   3 152  30  57
   3 152  34  80
   3 152  34  30
   3 153 125 112
   3 153 125  56
   3 153 112 143
   3 153 112 125
   3 153 143 112
   3 153 143  56
   3 153  56 143
   3 153  56 125
   3 154 144 113
   3 154 144  56
   3 154 113 124
   3 154 113 144
   3 154 124 113
   3 154 124  56
   3 154  56 144
   3 154  56 124
