COFF
15 36 15

-2.45042 0.576038 1.72245 0.5 0.5 0.5 1
-2.45042 -0.576038 1.72245 0.5 0.5 0.5 1
-0.0035594 -1.16459 1.71379 0.5 0.5 0.5 1
2.67134 -0.57365 1.7276 0.5 0.5 0.5 1
2.67134 0.57365 1.7276 0.5 0.5 0.5 1
-0.0035594 1.16459 1.71379 0.5 0.5 0.5 1
0.978576 -0.891116 1.71626 0.5 0.5 0.5 1
0.978576 0.891116 1.71626 0.5 0.5 0.5 1
-0.980246 0.889488 1.71516 0.5 0.5 0.5 1
-0.980246 -0.889488 1.71516 0.5 0.5 0.5 1
1.15682 -0.488754 1.30696 0.5 0.5 0.5 1
-1.11037 0.451653 1.30798 0.5 0.5 0.5 1
-1.11037 -0.451653 1.30798 0.5 0.5 0.5 1
1.15682 0.488754 1.30696 0.5 0.5 0.5 1
0.00573708 1.83342e-17 1.0221 1 1 0 1

3 0 1 12
3 0 12 1
3 0 8 11
3 0 11 8
3 0 11 12
3 0 12 11
3 1 9 12
3 1 12 9
3 2 6 14
3 2 14 6
3 2 9 14
3 2 14 9
3 3 4 13
3 3 13 4
3 3 6 10
3 3 10 6
3 3 10 13
3 3 13 10
3 4 7 13
3 4 13 7
3 5 7 14
3 5 14 7
3 5 8 14
3 5 14 8
3 6 10 14
3 6 14 10
3 7 13 14
3 7 14 13
3 8 11 14
3 8 14 11
3 9 12 14
3 9 14 12
3 10 13 14
3 10 14 13
3 11 12 14
3 11 14 12
