COFF
174 700 174

-6.66977 1.29774 8.12256 0.5 0.5 0.5 1
-6.66977 -1.29774 8.12256 0.5 0.5 0.5 1
-0.0230236 -2.45832 7.71089 0.5 0.5 0.5 1
7.57839 -1.32879 8.10017 0.5 0.5 0.5 1
7.57839 1.32879 8.10017 0.5 0.5 0.5 1
-0.0230236 2.45832 7.71089 0.5 0.5 0.5 1
1.27966 -2.07392 7.91272 0.5 0.5 0.5 1
1.27966 2.07392 7.91272 0.5 0.5 0.5 1
-1.21733 2.04685 7.89926 0.5 0.5 0.5 1
-1.21733 -2.04685 7.89926 0.5 0.5 0.5 1
2.06062 -1.61711 8.37491 0.5 0.5 0.5 1
2.06062 1.61711 8.37491 0.5 0.5 0.5 1
-2.11445 1.73697 8.2143 0.5 0.5 0.5 1
-2.11445 -1.73697 8.2143 0.5 0.5 0.5 1
3.05831 -1.5745 8.34832 0.5 0.5 0.5 1
3.05831 1.5745 8.34832 0.5 0.5 0.5 1
-3.04908 1.89404 7.8961 0.5 0.5 0.5 1
-3.04908 -1.89404 7.8961 0.5 0.5 0.5 1
4.05516 -1.50844 8.37647 0.5 0.5 0.5 1
4.05516 1.50844 8.37647 0.5 0.5 0.5 1
-4.09592 1.90668 7.79371 0.5 0.5 0.5 1
-4.09592 -1.90668 7.79371 0.5 0.5 0.5 1
5.02219 -1.79562 7.92247 0.5 0.5 0.5 1
5.02219 1.79562 7.92247 0.5 0.5 0.5 1
6.15121 -1.69491 7.96697 0.5 0.5 0.5 1
6.15121 1.69491 7.96697 0.5 0.5 0.5 1
-5.15974 1.69942 7.94171 0.5 0.5 0.5 1
-5.15974 -1.69942 7.94171 0.5 0.5 0.5 1
8.9076 -3.95255e-06 8.13672 0.5 0.5 0.5 1
-7.96818 -6.07244e-06 8.15538 0.5 0.5 0.5 1
-2.01376 -1.14316 5.33832 0.5 0.5 0.5 1
1.30248 -1.83908 5.49242 1 1 0 1
1.30255 1.83911 5.49242 1 1 0 1
-2.20248 1.79186 6.91753 0.5 0.5 0.5 1
-2.20248 -1.79187 6.91753 0.5 0.5 0.5 1
-0.118674 -2.17602 6.14137 0.5 0.5 0.5 1
-0.118665 2.17601 6.14137 0.5 0.5 0.5 1
2.60324 1.60774 6.98637 0.5 0.5 0.5 1
4.11796 -1.54937 7.25 0.5 0.5 0.5 1
-0.922563 -1.9978 5.72209 0.5 0.5 0.5 1
-0.922561 1.99779 5.72209 0.5 0.5 0.5 1
-1.61597 -0.887882 3.88535 0.5 0.5 0.5 1
-1.61597 0.887876 3.88533 0.5 0.5 0.5 1
0.844907 1.83928 4.90091 0.5 0.5 0.5 1
0.844971 -1.83921 4.90082 0.5 0.5 0.5 1
4.11796 1.54937 7.25001 0.5 0.5 0.5 1
-4.3064 0.660184 3.81755 1 1 0 1
2.71137 7.92862e-06 5.78511 0.5 0.5 0.5 1
1.74797 1.2764 4.81659 0.5 0.5 0.5 1
1.74797 -1.27624 4.81661 0.5 0.5 0.5 1
-0.128327 1.96288 4.96097 0.5 0.5 0.5 1
-0.128361 -1.96293 4.96099 0.5 0.5 0.5 1
2.00872 5.00237e-06 4.56319 0.5 0.5 0.5 1
5.29639 -0.750947 3.94105 1 1 0 1
5.29639 0.750947 3.94105 1 1 0 1
-2.68408 -1.14881e-06 5.58981 0.5 0.5 0.5 1
-0.801994 -1.75669 4.53463 0.5 0.5 0.5 1
-0.80198 1.75667 4.53463 0.5 0.5 0.5 1
-4.3064 -0.660184 3.81755 1 1 0 1
0.160557 -1.19777e-06 1.0221 1 1 0 1
-5.8871 1.417 7.13265 1 1 0 1
-5.8871 -1.417 7.13265 1 1 0 1
0.921823 1.68917 4.15602 0.5 0.5 0.5 1
0.921869 -1.68913 4.15592 0.5 0.5 0.5 1
6.88181 -1.42968 7.31335 1 1 0 1
6.8818 1.42969 7.31335 1 1 0 1
3.12969 2.65906e-07 6.00787 0.5 0.5 0.5 1
2.60326 -1.60773 6.98638 0.5 0.5 0.5 1
2.17638 1.36021 5.71036 0.5 0.5 0.5 1
2.17637 -1.35971 5.71015 0.5 0.5 0.5 1
-1.05755 2.03828 6.71203 0.5 0.5 0.5 1
1.45823 1.15162 3.857 1 1 1 1
1.45824 -1.15155 3.85696 1 1 1 1
0.0784477 1.78597 3.91254 1 1 1 1
0.0784485 -1.78598 3.91254 1 1 1 1
1.65349 -2.73956e-07 3.51747 1 1 1 1
4.16237 1.82406e-07 6.87125 0.5 0.5 0.5 1
-0.667231 -1.49938 3.40335 1 1 1 1
-0.667216 1.49937 3.40334 1 1 1 1
-3.01736 1.86299 6.37556 0.5 0.5 0.5 1
-3.01736 -1.86299 6.37556 0.5 0.5 0.5 1
-3.59802 1.90062 6.79492 0.5 0.5 0.5 1
-3.59802 -1.90063 6.79492 0.5 0.5 0.5 1
-1.83911 -0.449879 2.95817 1 1 1 1
-1.83896 0.449835 2.95818 1 1 1 1
0.845985 1.53617 3.29546 1 1 1 1
0.846023 -1.53614 3.29546 1 1 1 1
-5.14945 1.62929 6.67648 0.5 0.5 0.5 1
-5.14945 -1.62929 6.67648 0.5 0.5 0.5 1
7.49377 6.78601e-06 7.03237 0.5 0.5 0.5 1
6.97469 -0.720413 5.91247 0.5 0.5 0.5 1
6.9747 0.720417 5.91247 0.5 0.5 0.5 1
6.05715 -1.598 6.75899 0.5 0.5 0.5 1
6.05715 1.598 6.75899 0.5 0.5 0.5 1
-6.52924 8.16687e-06 6.95671 0.5 0.5 0.5 1
-4.23232 1.81131 6.40144 0.5 0.5 0.5 1
-4.23238 -1.81129 6.40144 0.5 0.5 0.5 1
6.66994 -1.18134 6.36548 0.5 0.5 0.5 1
6.66993 1.18134 6.36548 0.5 0.5 0.5 1
-5.9891 0.763039 5.80871 0.5 0.5 0.5 1
-5.9891 -0.76304 5.80871 0.5 0.5 0.5 1
5.19585 -1.6383 6.5945 0.5 0.5 0.5 1
5.1959 1.63817 6.5945 0.5 0.5 0.5 1
-1.05755 -2.03828 6.71203 0.5 0.5 0.5 1
0.118278 1.59969 2.9319 1 1 1 1
0.118281 -1.59969 2.9319 1 1 1 1
-5.72315 1.1932 6.19626 0.5 0.5 0.5 1
-5.72322 -1.19314 6.19628 0.5 0.5 0.5 1
1.25079 1.02108 2.92034 1 1 1 1
1.25105 -1.02114 2.92034 1 1 1 1
-2.01376 1.14316 5.33832 0.5 0.5 0.5 1
4.604 -1.20105 6.28013 0.5 0.5 0.5 1
4.60395 1.20113 6.28013 0.5 0.5 0.5 1
4.09933 -0.391125 5.24033 0.5 0.5 0.5 1
4.09933 0.391127 5.24034 0.5 0.5 0.5 1
-2.06836 -1.51133e-06 3.91051 0.5 0.5 0.5 1
-0.833017 -1.19361 2.69653 1 1 1 1
-0.833006 1.1936 2.69654 1 1 1 1
1.39485 0.000140375 2.57622 1 1 1 1
-3.61969 1.84621 5.49967 0.5 0.5 0.5 1
-3.61969 -1.84621 5.49967 0.5 0.5 0.5 1
-1.48046 -0.423483 1.74442 1 1 1 1
-1.48047 0.423479 1.74442 1 1 1 1
-3.20542 1.35174 5.19505 0.5 0.5 0.5 1
-3.20541 -1.35174 5.19505 0.5 0.5 0.5 1
0.745248 1.37528 2.37302 1 1 1 1
0.745284 -1.37526 2.37301 1 1 1 1
-5.1091 1.51303 5.64922 0.5 0.5 0.5 1
-5.10903 -1.51306 5.64921 0.5 0.5 0.5 1
-2.81253 0.325196 4.51083 0.5 0.5 0.5 1
-2.81253 -0.325196 4.51083 0.5 0.5 0.5 1
6.0041 -1.45045 5.68555 0.5 0.5 0.5 1
6.0041 1.45046 5.68555 0.5 0.5 0.5 1
6.38071 -1.20899 5.44077 0.5 0.5 0.5 1
6.38071 1.20899 5.44077 0.5 0.5 0.5 1
-4.19847 1.74394 5.38712 0.5 0.5 0.5 1
-4.1984 -1.74391 5.38712 0.5 0.5 0.5 1
-5.47359 1.23714 5.32724 0.5 0.5 0.5 1
-5.47359 -1.23714 5.32724 0.5 0.5 0.5 1
5.33732 -1.41294 5.52225 0.5 0.5 0.5 1
5.33732 1.41294 5.52225 0.5 0.5 0.5 1
-2.3902 1.30582 5.81795 0.5 0.5 0.5 1
-2.3902 -1.30582 5.81795 0.5 0.5 0.5 1
3.69627 -1.00605 6.7058 0.5 0.5 0.5 1
3.69625 1.00606 6.7058 0.5 0.5 0.5 1
6.90842 -0.73458 4.65757 0.5 0.5 0.5 1
6.90842 0.734583 4.65758 0.5 0.5 0.5 1
0.165364 1.40469 2.07572 1 1 1 1
0.165387 -1.4047 2.07573 1 1 1 1
0.560167 -2.28284 6.86086 0.5 0.5 0.5 1
0.560168 2.28284 6.86086 0.5 0.5 0.5 1
-5.82188 0.697064 4.51552 0.5 0.5 0.5 1
-5.82189 -0.697067 4.51552 0.5 0.5 0.5 1
1.10472 0.840248 2.0873 1 1 1 1
1.10475 -0.840224 2.08728 1 1 1 1
4.77772 -0.98334 5.27844 0.5 0.5 0.5 1
4.77772 0.983343 5.27843 0.5 0.5 0.5 1
-2.20228 -1.46134e-06 5.25983 0.5 0.5 0.5 1
1.2691 -2.05757 6.85106 0.5 0.5 0.5 1
1.26932 2.05759 6.85107 0.5 0.5 0.5 1
-0.336031 -0.958378 1.83832 1 1 1 1
-0.336035 0.958362 1.83831 1 1 1 1
-4.83872 1.2754 4.77774 0.5 0.5 0.5 1
-4.83872 -1.2754 4.77774 0.5 0.5 0.5 1
-2.93628 -1.09968 5.85033 0.5 0.5 0.5 1
-2.93629 1.09968 5.85033 0.5 0.5 0.5 1
-3.78056 1.39241 4.66791 0.5 0.5 0.5 1
-3.78056 -1.39241 4.66791 0.5 0.5 0.5 1
0.486467 0.716728 1.68566 1 1 1 1
0.486508 -0.716807 1.68567 1 1 1 1
2.64668 0.825277 6.37494 0.5 0.5 0.5 1
2.64669 -0.825265 6.37494 0.5 0.5 0.5 1
5.65659 -1.10819 4.81263 0.5 0.5 0.5 1
5.65659 1.10819 4.81263 0.5 0.5 0.5 1

3 0 26 60
3 0 60 26
3 0 29 94
3 0 94 29
3 0 60 94
3 0 94 60
3 1 27 61
3 1 61 27
3 1 29 94
3 1 94 29
3 1 61 94
3 1 94 61
3 2 6 149
3 2 149 6
3 2 9 103
3 2 103 9
3 2 35 103
3 2 103 35
3 2 35 149
3 2 149 35
3 3 24 64
3 3 64 24
3 3 28 89
3 3 89 28
3 3 64 89
3 3 89 64
3 4 25 65
3 4 65 25
3 4 28 89
3 4 89 28
3 4 65 89
3 4 89 65
3 5 7 150
3 5 150 7
3 5 8 70
3 5 70 8
3 5 36 70
3 5 70 36
3 5 36 150
3 5 150 36
3 6 10 67
3 6 67 10
3 6 31 67
3 6 67 31
3 6 31 149
3 6 149 31
3 6 67 158
3 6 158 67
3 6 149 158
3 6 158 149
3 7 11 37
3 7 37 11
3 7 32 37
3 7 37 32
3 7 32 150
3 7 150 32
3 7 37 159
3 7 159 37
3 7 150 159
3 7 159 150
3 8 12 33
3 8 33 12
3 8 33 70
3 8 70 33
3 9 13 34
3 9 34 13
3 9 34 103
3 9 103 34
3 10 14 67
3 10 67 14
3 11 15 37
3 11 37 15
3 12 16 33
3 12 33 16
3 13 17 34
3 13 34 17
3 14 18 38
3 14 38 18
3 14 38 67
3 14 67 38
3 15 19 45
3 15 45 19
3 15 37 45
3 15 45 37
3 16 20 81
3 16 81 20
3 16 33 79
3 16 79 33
3 16 79 81
3 16 81 79
3 17 21 82
3 17 82 21
3 17 34 80
3 17 80 34
3 17 80 82
3 17 82 80
3 18 22 38
3 18 38 22
3 19 23 45
3 19 45 23
3 20 26 87
3 20 87 26
3 20 81 95
3 20 95 81
3 20 87 95
3 20 95 87
3 21 27 88
3 21 88 27
3 21 82 96
3 21 96 82
3 21 88 96
3 21 96 88
3 22 24 92
3 22 92 24
3 22 38 101
3 22 101 38
3 22 92 101
3 22 101 92
3 23 25 93
3 23 93 25
3 23 45 102
3 23 102 45
3 23 93 102
3 23 102 93
3 24 64 92
3 24 92 64
3 25 65 93
3 25 93 65
3 26 60 87
3 26 87 60
3 27 61 88
3 27 88 61
3 30 34 39
3 30 39 34
3 30 34 142
3 30 142 34
3 30 39 56
3 30 56 39
3 30 41 56
3 30 56 41
3 30 41 115
3 30 115 41
3 30 55 110
3 30 110 55
3 30 55 142
3 30 142 55
3 30 55 157
3 30 157 55
3 30 110 115
3 30 115 110
3 30 115 157
3 30 157 115
3 31 35 44
3 31 44 35
3 31 35 149
3 31 149 35
3 31 44 69
3 31 69 44
3 31 67 69
3 31 69 67
3 31 67 158
3 31 158 67
3 31 149 158
3 31 158 149
3 32 36 43
3 32 43 36
3 32 36 150
3 32 150 36
3 32 37 68
3 32 68 37
3 32 37 159
3 32 159 37
3 32 43 68
3 32 68 43
3 32 150 159
3 32 159 150
3 33 40 70
3 33 70 40
3 33 40 110
3 33 110 40
3 33 79 141
3 33 141 79
3 33 110 141
3 33 141 110
3 34 39 103
3 34 103 39
3 34 80 142
3 34 142 80
3 35 39 51
3 35 51 39
3 35 39 103
3 35 103 39
3 35 44 51
3 35 51 44
3 36 40 50
3 36 50 40
3 36 40 70
3 36 70 40
3 36 43 50
3 36 50 43
3 37 45 76
3 37 76 45
3 37 45 144
3 37 144 45
3 37 47 66
3 37 66 47
3 37 47 68
3 37 68 47
3 37 66 76
3 37 76 66
3 37 66 144
3 37 144 66
3 37 66 170
3 37 170 66
3 37 68 170
3 37 170 68
3 38 66 67
3 38 67 66
3 38 66 76
3 38 76 66
3 38 67 143
3 38 143 67
3 38 76 111
3 38 111 76
3 38 76 143
3 38 143 76
3 38 101 111
3 38 111 101
3 39 51 56
3 39 56 51
3 40 50 57
3 40 57 50
3 40 57 110
3 40 110 57
3 41 56 77
3 41 77 56
3 41 77 116
3 41 116 77
3 41 83 115
3 41 115 83
3 41 83 116
3 41 116 83
3 42 57 78
3 42 78 57
3 42 57 110
3 42 110 57
3 42 78 117
3 42 117 78
3 42 84 115
3 42 115 84
3 42 84 117
3 42 117 84
3 42 110 115
3 42 115 110
3 43 48 62
3 43 62 48
3 43 48 68
3 43 68 48
3 43 50 62
3 43 62 50
3 44 49 63
3 44 63 49
3 44 49 69
3 44 69 49
3 44 51 63
3 44 63 51
3 45 76 112
3 45 112 76
3 45 76 144
3 45 144 76
3 45 102 112
3 45 112 102
3 46 55 123
3 46 123 55
3 46 55 129
3 46 129 55
3 46 58 130
3 46 130 58
3 46 58 152
3 46 152 58
3 46 99 137
3 46 137 99
3 46 99 151
3 46 151 99
3 46 119 123
3 46 123 119
3 46 119 135
3 46 135 119
3 46 123 166
3 46 166 123
3 46 127 135
3 46 135 127
3 46 127 137
3 46 137 127
3 46 129 130
3 46 130 129
3 46 135 162
3 46 162 135
3 46 135 166
3 46 166 135
3 46 137 162
3 46 162 137
3 46 151 152
3 46 152 151
3 47 48 52
3 47 52 48
3 47 48 68
3 47 68 48
3 47 49 52
3 47 52 49
3 47 49 69
3 47 69 49
3 47 66 67
3 47 67 66
3 47 66 170
3 47 170 66
3 47 66 171
3 47 171 66
3 47 67 69
3 47 69 67
3 47 68 170
3 47 170 68
3 47 69 171
3 47 171 69
3 48 52 71
3 48 71 52
3 48 62 71
3 48 71 62
3 49 52 72
3 49 72 52
3 49 63 72
3 49 72 63
3 50 57 73
3 50 73 57
3 50 62 73
3 50 73 62
3 51 56 74
3 51 74 56
3 51 63 74
3 51 74 63
3 52 71 75
3 52 75 71
3 52 72 75
3 52 75 72
3 53 54 114
3 53 114 54
3 53 54 146
3 53 146 54
3 53 90 133
3 53 133 90
3 53 90 145
3 53 145 90
3 53 113 114
3 53 114 113
3 53 113 155
3 53 155 113
3 53 131 133
3 53 133 131
3 53 131 139
3 53 139 131
3 53 133 172
3 53 172 133
3 53 139 155
3 53 155 139
3 53 139 172
3 53 172 139
3 53 145 146
3 53 146 145
3 54 91 134
3 54 134 91
3 54 91 146
3 54 146 91
3 54 114 156
3 54 156 114
3 54 132 134
3 54 134 132
3 54 132 140
3 54 140 132
3 54 134 173
3 54 173 134
3 54 140 156
3 54 156 140
3 54 140 173
3 54 173 140
3 55 58 124
3 55 124 58
3 55 58 130
3 55 130 58
3 55 79 123
3 55 123 79
3 55 79 141
3 55 141 79
3 55 80 124
3 55 124 80
3 55 80 142
3 55 142 80
3 55 110 141
3 55 141 110
3 55 110 157
3 55 157 110
3 55 123 165
3 55 165 123
3 55 124 164
3 55 164 124
3 55 129 130
3 55 130 129
3 55 141 165
3 55 165 141
3 55 142 164
3 55 164 142
3 56 74 77
3 56 77 74
3 57 73 78
3 57 78 73
3 58 100 138
3 58 138 100
3 58 100 152
3 58 152 100
3 58 120 124
3 58 124 120
3 58 120 136
3 58 136 120
3 58 124 167
3 58 167 124
3 58 128 136
3 58 136 128
3 58 128 138
3 58 138 128
3 58 136 163
3 58 163 136
3 58 136 167
3 58 167 136
3 58 138 163
3 58 163 138
3 59 118 153
3 59 153 118
3 59 118 154
3 59 154 118
3 59 121 122
3 59 122 121
3 59 121 160
3 59 160 121
3 59 122 161
3 59 161 122
3 59 125 147
3 59 147 125
3 59 125 153
3 59 153 125
3 59 126 148
3 59 148 126
3 59 126 154
3 59 154 126
3 59 147 161
3 59 161 147
3 59 147 168
3 59 168 147
3 59 148 160
3 59 160 148
3 59 148 169
3 59 169 148
3 59 153 168
3 59 168 153
3 59 154 169
3 59 169 154
3 60 87 106
3 60 106 87
3 60 94 106
3 60 106 94
3 61 88 107
3 61 107 88
3 61 94 107
3 61 107 94
3 62 71 85
3 62 85 71
3 62 73 85
3 62 85 73
3 63 72 86
3 63 86 72
3 63 74 86
3 63 86 74
3 64 89 97
3 64 97 89
3 64 92 97
3 64 97 92
3 65 89 98
3 65 98 89
3 65 93 98
3 65 98 93
3 66 67 143
3 66 143 67
3 66 67 171
3 66 171 67
3 66 76 143
3 66 143 76
3 66 76 144
3 66 144 76
3 67 69 171
3 67 171 69
3 71 75 108
3 71 108 75
3 71 85 108
3 71 108 85
3 72 75 109
3 72 109 75
3 72 86 109
3 72 109 86
3 73 78 104
3 73 104 78
3 73 85 104
3 73 104 85
3 74 77 105
3 74 105 77
3 74 86 105
3 74 105 86
3 75 108 118
3 75 118 108
3 75 109 118
3 75 118 109
3 76 111 155
3 76 155 111
3 76 112 156
3 76 156 112
3 76 113 114
3 76 114 113
3 76 113 155
3 76 155 113
3 76 114 156
3 76 156 114
3 77 105 116
3 77 116 105
3 78 104 117
3 78 117 104
3 79 81 119
3 79 119 81
3 79 119 123
3 79 123 119
3 79 123 165
3 79 165 123
3 79 141 165
3 79 165 141
3 80 82 120
3 80 120 82
3 80 120 124
3 80 124 120
3 80 124 164
3 80 164 124
3 80 142 164
3 80 164 142
3 81 95 119
3 81 119 95
3 82 96 120
3 82 120 96
3 83 84 115
3 83 115 84
3 83 84 122
3 83 122 84
3 83 116 160
3 83 160 116
3 83 121 122
3 83 122 121
3 83 121 160
3 83 160 121
3 84 117 161
3 84 161 117
3 84 122 161
3 84 161 122
3 85 104 125
3 85 125 104
3 85 108 125
3 85 125 108
3 86 105 126
3 86 126 105
3 86 109 126
3 86 126 109
3 87 95 127
3 87 127 95
3 87 106 127
3 87 127 106
3 88 96 128
3 88 128 96
3 88 107 128
3 88 128 107
3 89 90 91
3 89 91 90
3 89 90 97
3 89 97 90
3 89 91 98
3 89 98 91
3 90 91 146
3 90 146 91
3 90 97 133
3 90 133 97
3 90 145 146
3 90 146 145
3 91 98 134
3 91 134 98
3 92 97 131
3 92 131 97
3 92 101 131
3 92 131 101
3 93 98 132
3 93 132 98
3 93 102 132
3 93 132 102
3 94 99 100
3 94 100 99
3 94 99 106
3 94 106 99
3 94 100 107
3 94 107 100
3 95 119 135
3 95 135 119
3 95 127 135
3 95 135 127
3 96 120 136
3 96 136 120
3 96 128 136
3 96 136 128
3 97 131 133
3 97 133 131
3 98 132 134
3 98 134 132
3 99 100 152
3 99 152 100
3 99 106 137
3 99 137 106
3 99 151 152
3 99 152 151
3 100 107 138
3 100 138 107
3 101 111 139
3 101 139 111
3 101 131 139
3 101 139 131
3 102 112 140
3 102 140 112
3 102 132 140
3 102 140 132
3 104 117 147
3 104 147 117
3 104 125 147
3 104 147 125
3 105 116 148
3 105 148 116
3 105 126 148
3 105 148 126
3 106 127 137
3 106 137 127
3 107 128 138
3 107 138 128
3 108 118 153
3 108 153 118
3 108 125 153
3 108 153 125
3 109 118 154
3 109 154 118
3 109 126 154
3 109 154 126
3 110 115 157
3 110 157 115
3 111 139 155
3 111 155 139
3 112 140 156
3 112 156 140
3 116 148 160
3 116 160 148
3 117 147 161
3 117 161 147
3 119 123 166
3 119 166 123
3 119 135 166
3 119 166 135
3 120 124 167
3 120 167 124
3 120 136 167
3 120 167 136
3 125 147 168
3 125 168 147
3 125 153 168
3 125 168 153
3 126 148 169
3 126 169 148
3 126 154 169
3 126 169 154
3 127 135 162
3 127 162 135
3 127 137 162
3 127 162 137
3 128 136 163
3 128 163 136
3 128 138 163
3 128 163 138
3 131 133 172
3 131 172 133
3 131 139 172
3 131 172 139
3 132 134 173
3 132 173 134
3 132 140 173
3 132 173 140
