COFF
21 52 21

-3.20167 0.617592 2.07881 0.5 0.5 0.5 1
-3.20167 -0.617592 2.07881 0.5 0.5 0.5 1
-0.0136539 -1.28022 2.02415 0.5 0.5 0.5 1
3.49653 -0.612672 2.08899 0.5 0.5 0.5 1
3.49653 0.612672 2.08899 0.5 0.5 0.5 1
-0.0136539 1.28022 2.02415 0.5 0.5 0.5 1
0.943921 -0.996245 2.03464 0.5 0.5 0.5 1
0.943921 0.996245 2.03464 0.5 0.5 0.5 1
-1.00306 0.985752 2.03727 0.5 0.5 0.5 1
-1.00306 -0.985752 2.03727 0.5 0.5 0.5 1
1.91811 -0.821975 2.13242 0.5 0.5 0.5 1
1.91811 0.821975 2.13242 0.5 0.5 0.5 1
-2.03612 0.802903 2.06056 0.5 0.5 0.5 1
-2.03612 -0.802903 2.06056 0.5 0.5 0.5 1
0.00642014 1.83725e-17 1.0221 1 1 0 1
1.45929 -0.663303 1.52552 0.5 0.5 0.5 1
-1.39718 0.653238 1.5171 0.5 0.5 0.5 1
-1.39718 -0.653238 1.5171 0.5 0.5 0.5 1
1.45929 0.663303 1.52552 0.5 0.5 0.5 1
2.54981 -0.616482 1.73495 0.5 0.5 0.5 1
2.54981 0.616482 1.73495 0.5 0.5 0.5 1

3 0 1 17
3 0 17 1
3 0 12 16
3 0 16 12
3 0 16 17
3 0 17 16
3 1 13 17
3 1 17 13
3 2 6 14
3 2 14 6
3 2 9 14
3 2 14 9
3 3 4 20
3 3 20 4
3 3 10 15
3 3 15 10
3 3 15 19
3 3 19 15
3 3 19 20
3 3 20 19
3 4 11 18
3 4 18 11
3 4 18 20
3 4 20 18
3 5 7 14
3 5 14 7
3 5 8 14
3 5 14 8
3 6 10 15
3 6 15 10
3 6 14 15
3 6 15 14
3 7 11 18
3 7 18 11
3 7 14 18
3 7 18 14
3 8 12 16
3 8 16 12
3 8 14 16
3 8 16 14
3 9 13 17
3 9 17 13
3 9 14 17
3 9 17 14
3 14 15 18
3 14 18 15
3 14 16 17
3 14 17 16
3 15 18 20
3 15 20 18
3 15 19 20
3 15 20 19
