COFF
53 176 53

-5.27772 0.740071 3.98375 0.5 0.5 0.5 1
-5.27772 -0.740071 3.98375 0.5 0.5 0.5 1
-0.02695 -1.7299 3.64399 0.5 0.5 0.5 1
5.60951 -0.71849 4.02358 0.5 0.5 0.5 1
5.60951 0.71849 4.02358 0.5 0.5 0.5 1
-0.02695 1.7299 3.64399 0.5 0.5 0.5 1
1.02255 -1.40213 3.79866 0.5 0.5 0.5 1
1.02255 1.40213 3.79866 0.5 0.5 0.5 1
-1.0737 1.39399 3.75931 0.5 0.5 0.5 1
-1.0737 -1.39399 3.75931 0.5 0.5 0.5 1
1.94023 -1.06943 4.03771 0.5 0.5 0.5 1
1.94023 1.06943 4.03771 0.5 0.5 0.5 1
-2.00121 1.09664 3.99093 0.5 0.5 0.5 1
-2.00121 -1.09664 3.99093 0.5 0.5 0.5 1
3.08408 -0.920371 4.083 0.5 0.5 0.5 1
3.08408 0.920371 4.083 0.5 0.5 0.5 1
-3.01804 0.945525 4.00611 0.5 0.5 0.5 1
-3.01804 -0.945525 4.00611 0.5 0.5 0.5 1
4.09313 -0.819233 4.05018 0.5 0.5 0.5 1
4.09313 0.819233 4.05018 0.5 0.5 0.5 1
-4.01285 0.84324 3.99829 0.5 0.5 0.5 1
-4.01285 -0.84324 3.99829 0.5 0.5 0.5 1
-3.68085 -0.781246 3.30348 0.5 0.5 0.5 1
-0.0036709 -2.0573e-17 1.0221 1 1 0 1
2.26945 -0.942352 3.07961 0.5 0.5 0.5 1
1.41771 1.10706 2.33465 0.5 0.5 0.5 1
1.41771 -1.10706 2.33465 0.5 0.5 0.5 1
-1.04471 1.32812 2.90464 0.5 0.5 0.5 1
-1.04471 -1.32812 2.90464 0.5 0.5 0.5 1
-1.83845 0.844323 2.05001 0.5 0.5 0.5 1
-1.83845 -0.844323 2.05001 0.5 0.5 0.5 1
1.0456 -1.30344 2.77451 0.5 0.5 0.5 1
1.0456 1.30344 2.77451 0.5 0.5 0.5 1
-2.26112 0.966806 3.02403 0.5 0.5 0.5 1
-2.26112 -0.966806 3.02403 0.5 0.5 0.5 1
-0.010414 -1.42309 2.62465 0.5 0.5 0.5 1
-0.010414 1.42309 2.62465 0.5 0.5 0.5 1
2.26945 0.942352 3.07961 0.5 0.5 0.5 1
3.80585 -0.757429 3.35002 0.5 0.5 0.5 1
-0.533639 -1.1121 2.12402 0.5 0.5 0.5 1
-0.533639 1.1121 2.12402 0.5 0.5 0.5 1
-1.33343 -0.451361 1.36524 0.5 0.5 0.5 1
-1.33343 0.451361 1.36524 0.5 0.5 0.5 1
0.67638 0.984717 1.86147 0.5 0.5 0.5 1
0.67638 -0.984717 1.86147 0.5 0.5 0.5 1
3.80585 0.757429 3.35002 0.5 0.5 0.5 1
-3.68085 0.781246 3.30348 0.5 0.5 0.5 1
1.61081 6.55841e-17 2.24733 0.5 0.5 0.5 1
0.932751 0.673958 1.66224 0.5 0.5 0.5 1
0.932751 -0.673958 1.66224 0.5 0.5 0.5 1
-0.0440772 0.904967 1.82537 0.5 0.5 0.5 1
-0.0440772 -0.904967 1.82537 0.5 0.5 0.5 1
0.83377 2.75524e-17 1.62476 0.5 0.5 0.5 1

3 0 1 22
3 0 22 1
3 0 20 46
3 0 46 20
3 0 22 46
3 0 46 22
3 1 21 22
3 1 22 21
3 2 6 31
3 2 31 6
3 2 9 28
3 2 28 9
3 2 28 35
3 2 35 28
3 2 31 35
3 2 35 31
3 3 4 45
3 3 45 4
3 3 18 38
3 3 38 18
3 3 38 45
3 3 45 38
3 4 19 45
3 4 45 19
3 5 7 32
3 5 32 7
3 5 8 27
3 5 27 8
3 5 27 36
3 5 36 27
3 5 32 36
3 5 36 32
3 6 10 24
3 6 24 10
3 6 24 31
3 6 31 24
3 7 11 37
3 7 37 11
3 7 32 37
3 7 37 32
3 8 12 33
3 8 33 12
3 8 27 33
3 8 33 27
3 9 13 34
3 9 34 13
3 9 28 34
3 9 34 28
3 10 14 24
3 10 24 14
3 11 15 37
3 11 37 15
3 12 16 33
3 12 33 16
3 13 17 34
3 13 34 17
3 14 18 38
3 14 38 18
3 14 24 38
3 14 38 24
3 15 19 45
3 15 45 19
3 15 37 45
3 15 45 37
3 16 20 46
3 16 46 20
3 16 33 46
3 16 46 33
3 17 21 22
3 17 22 21
3 17 22 34
3 17 34 22
3 22 33 34
3 22 34 33
3 22 33 46
3 22 46 33
3 23 29 40
3 23 40 29
3 23 29 42
3 23 42 29
3 23 30 39
3 23 39 30
3 23 30 41
3 23 41 30
3 23 35 39
3 23 39 35
3 23 35 44
3 23 44 35
3 23 36 40
3 23 40 36
3 23 36 43
3 23 43 36
3 23 39 51
3 23 51 39
3 23 40 50
3 23 50 40
3 23 41 42
3 23 42 41
3 23 43 48
3 23 48 43
3 23 43 50
3 23 50 43
3 23 44 49
3 23 49 44
3 23 44 51
3 23 51 44
3 23 47 48
3 23 48 47
3 23 47 49
3 23 49 47
3 23 48 52
3 23 52 48
3 23 49 52
3 23 52 49
3 24 26 31
3 24 31 26
3 24 26 47
3 24 47 26
3 24 37 45
3 24 45 37
3 24 37 47
3 24 47 37
3 24 38 45
3 24 45 38
3 25 32 37
3 25 37 32
3 25 32 43
3 25 43 32
3 25 37 47
3 25 47 37
3 25 43 48
3 25 48 43
3 25 47 48
3 25 48 47
3 26 31 44
3 26 44 31
3 26 44 49
3 26 49 44
3 26 47 49
3 26 49 47
3 27 33 40
3 27 40 33
3 27 36 40
3 27 40 36
3 28 34 39
3 28 39 34
3 28 35 39
3 28 39 35
3 29 30 34
3 29 34 30
3 29 30 41
3 29 41 30
3 29 33 34
3 29 34 33
3 29 33 40
3 29 40 33
3 29 41 42
3 29 42 41
3 30 34 39
3 30 39 34
3 31 35 44
3 31 44 35
3 32 36 43
3 32 43 36
3 35 39 51
3 35 51 39
3 35 44 51
3 35 51 44
3 36 40 50
3 36 50 40
3 36 43 50
3 36 50 43
3 47 48 52
3 47 52 48
3 47 49 52
3 47 52 49
