COFF
56 188 56

-5.54268 0.756261 4.37543 0.5 0.5 0.5 1
-5.54268 -0.756261 4.37543 0.5 0.5 0.5 1
-0.0271577 -1.79051 3.99081 0.5 0.5 0.5 1
5.94097 -0.735629 4.41502 0.5 0.5 0.5 1
5.94097 0.735629 4.41502 0.5 0.5 0.5 1
-0.0271577 1.79051 3.99081 0.5 0.5 0.5 1
1.03858 -1.44892 4.15903 0.5 0.5 0.5 1
1.03858 1.44892 4.15903 0.5 0.5 0.5 1
-1.08968 1.44314 4.11708 0.5 0.5 0.5 1
-1.08968 -1.44314 4.11708 0.5 0.5 0.5 1
1.94899 -1.10467 4.41548 0.5 0.5 0.5 1
1.94899 1.10467 4.41548 0.5 0.5 0.5 1
-2.01059 1.1362 4.36351 0.5 0.5 0.5 1
-2.01059 -1.1362 4.36351 0.5 0.5 0.5 1
3.07414 -0.953595 4.47209 0.5 0.5 0.5 1
3.07414 0.953595 4.47209 0.5 0.5 0.5 1
-3.02222 0.981569 4.38441 0.5 0.5 0.5 1
-3.02222 -0.981569 4.38441 0.5 0.5 0.5 1
4.06588 -0.844147 4.47063 0.5 0.5 0.5 1
4.06588 0.844147 4.47063 0.5 0.5 0.5 1
-4.01585 0.868166 4.38838 0.5 0.5 0.5 1
-4.01585 -0.868166 4.38838 0.5 0.5 0.5 1
-3.8178 -0.80832 3.70284 0.5 0.5 0.5 1
0.00938523 -4.70595e-17 1.0221 1 1 0 1
2.32074 -0.97257 3.42252 0.5 0.5 0.5 1
1.51518 1.17776 2.65066 0.5 0.5 0.5 1
1.51518 -1.17776 2.65066 0.5 0.5 0.5 1
-1.10078 1.38966 3.26264 0.5 0.5 0.5 1
-1.10078 -1.38966 3.26264 0.5 0.5 0.5 1
-1.86222 0.844233 2.31968 0.5 0.5 0.5 1
-1.86222 -0.844233 2.31968 0.5 0.5 0.5 1
1.10421 -1.37117 3.13567 0.5 0.5 0.5 1
1.10421 1.37117 3.13567 0.5 0.5 0.5 1
-2.31304 1.01577 3.36763 0.5 0.5 0.5 1
-2.31304 -1.01577 3.36763 0.5 0.5 0.5 1
-0.000537274 -1.50534 2.91711 0.5 0.5 0.5 1
-0.000537274 1.50534 2.91711 0.5 0.5 0.5 1
2.32074 0.97257 3.42252 0.5 0.5 0.5 1
3.92631 -0.784571 3.7525 0.5 0.5 0.5 1
-0.59462 -1.26644 2.40679 0.5 0.5 0.5 1
-0.59462 1.26644 2.40679 0.5 0.5 0.5 1
-1.54866 -0.612503 1.46477 0.5 0.5 0.5 1
-1.54866 0.612503 1.46477 0.5 0.5 0.5 1
0.799721 1.19386 2.12369 0.5 0.5 0.5 1
0.799721 -1.19386 2.12369 0.5 0.5 0.5 1
3.92631 0.784571 3.7525 0.5 0.5 0.5 1
-3.8178 0.80832 3.70284 0.5 0.5 0.5 1
1.78341 -9.71911e-17 2.53287 0.5 0.5 0.5 1
1.14716 0.804834 1.87877 0.5 0.5 0.5 1
1.14716 -0.804834 1.87877 0.5 0.5 0.5 1
-0.012577 1.19145 2.05065 0.5 0.5 0.5 1
-0.012577 -1.19145 2.05065 0.5 0.5 0.5 1
1.20409 -3.34846e-17 1.75406 0.5 0.5 0.5 1
4.88017 -0.750043 3.94105 1 1 0 1
4.88017 0.750043 3.94105 1 1 0 1
-2.39674 3.95046e-18 3.28266 0.5 0.5 0.5 1

3 0 1 22
3 0 22 1
3 0 20 46
3 0 46 20
3 0 22 46
3 0 46 22
3 1 21 22
3 1 22 21
3 2 6 31
3 2 31 6
3 2 9 28
3 2 28 9
3 2 28 35
3 2 35 28
3 2 31 35
3 2 35 31
3 3 4 54
3 3 54 4
3 3 18 38
3 3 38 18
3 3 38 53
3 3 53 38
3 3 53 54
3 3 54 53
3 4 19 45
3 4 45 19
3 4 45 54
3 4 54 45
3 5 7 32
3 5 32 7
3 5 8 27
3 5 27 8
3 5 27 36
3 5 36 27
3 5 32 36
3 5 36 32
3 6 10 24
3 6 24 10
3 6 24 31
3 6 31 24
3 7 11 37
3 7 37 11
3 7 32 37
3 7 37 32
3 8 12 33
3 8 33 12
3 8 27 33
3 8 33 27
3 9 13 34
3 9 34 13
3 9 28 34
3 9 34 28
3 10 14 24
3 10 24 14
3 11 15 37
3 11 37 15
3 12 16 33
3 12 33 16
3 13 17 34
3 13 34 17
3 14 18 38
3 14 38 18
3 14 24 38
3 14 38 24
3 15 19 45
3 15 45 19
3 15 37 45
3 15 45 37
3 16 20 46
3 16 46 20
3 16 33 46
3 16 46 33
3 17 21 22
3 17 22 21
3 17 22 34
3 17 34 22
3 22 34 55
3 22 55 34
3 22 46 55
3 22 55 46
3 23 29 40
3 23 40 29
3 23 29 42
3 23 42 29
3 23 30 39
3 23 39 30
3 23 30 41
3 23 41 30
3 23 35 39
3 23 39 35
3 23 35 44
3 23 44 35
3 23 36 40
3 23 40 36
3 23 36 43
3 23 43 36
3 23 39 51
3 23 51 39
3 23 40 50
3 23 50 40
3 23 41 42
3 23 42 41
3 23 43 48
3 23 48 43
3 23 43 50
3 23 50 43
3 23 44 49
3 23 49 44
3 23 44 51
3 23 51 44
3 23 47 48
3 23 48 47
3 23 47 49
3 23 49 47
3 23 48 52
3 23 52 48
3 23 49 52
3 23 52 49
3 24 26 31
3 24 31 26
3 24 26 47
3 24 47 26
3 24 37 45
3 24 45 37
3 24 37 47
3 24 47 37
3 24 38 45
3 24 45 38
3 25 32 37
3 25 37 32
3 25 32 43
3 25 43 32
3 25 37 47
3 25 47 37
3 25 43 48
3 25 48 43
3 25 47 48
3 25 48 47
3 26 31 44
3 26 44 31
3 26 44 49
3 26 49 44
3 26 47 49
3 26 49 47
3 27 33 40
3 27 40 33
3 27 36 40
3 27 40 36
3 28 34 39
3 28 39 34
3 28 35 39
3 28 39 35
3 29 30 41
3 29 41 30
3 29 30 55
3 29 55 30
3 29 33 40
3 29 40 33
3 29 33 55
3 29 55 33
3 29 41 42
3 29 42 41
3 30 34 39
3 30 39 34
3 30 34 55
3 30 55 34
3 31 35 44
3 31 44 35
3 32 36 43
3 32 43 36
3 33 46 55
3 33 55 46
3 35 39 51
3 35 51 39
3 35 44 51
3 35 51 44
3 36 40 50
3 36 50 40
3 36 43 50
3 36 50 43
3 38 45 54
3 38 54 45
3 38 53 54
3 38 54 53
3 47 48 52
3 47 52 48
3 47 49 52
3 47 52 49
