COFF
83 292 83

-6.33267 0.873008 5.44256 0.5 0.5 0.5 1
-6.33267 -0.873008 5.44256 0.5 0.5 0.5 1
-0.0270567 -1.9519 5.04323 0.5 0.5 0.5 1
7.27341 -0.907429 5.40301 0.5 0.5 0.5 1
7.27341 0.907429 5.40301 0.5 0.5 0.5 1
-0.0270567 1.9519 5.04323 0.5 0.5 0.5 1
1.08491 -1.57734 5.24505 0.5 0.5 0.5 1
1.08491 1.57734 5.24505 0.5 0.5 0.5 1
-1.12523 1.60053 5.17305 0.5 0.5 0.5 1
-1.12523 -1.60053 5.17305 0.5 0.5 0.5 1
1.97747 -1.21619 5.5373 0.5 0.5 0.5 1
1.97747 1.21619 5.5373 0.5 0.5 0.5 1
-2.04056 1.2952 5.43545 0.5 0.5 0.5 1
-2.04056 -1.2952 5.43545 0.5 0.5 0.5 1
3.05311 -1.09993 5.57706 0.5 0.5 0.5 1
3.05311 1.09993 5.57706 0.5 0.5 0.5 1
-3.0359 1.24963 5.35555 0.5 0.5 0.5 1
-3.0359 -1.24963 5.35555 0.5 0.5 0.5 1
4.04935 -1.02212 5.60564 0.5 0.5 0.5 1
4.04935 1.02212 5.60564 0.5 0.5 0.5 1
-4.03228 1.16398 5.35973 0.5 0.5 0.5 1
-4.03228 -1.16398 5.35973 0.5 0.5 0.5 1
5.04486 -1.10868 5.40272 0.5 0.5 0.5 1
5.04486 1.10868 5.40272 0.5 0.5 0.5 1
6.06408 -1.06425 5.35933 0.5 0.5 0.5 1
6.06408 1.06425 5.35933 0.5 0.5 0.5 1
-5.0271 1.05968 5.37475 0.5 0.5 0.5 1
-5.0271 -1.05968 5.37475 0.5 0.5 0.5 1
-1.10046 -1.56052 4.26973 0.5 0.5 0.5 1
-1.97647 0.82679 3.14512 0.5 0.5 0.5 1
-1.97647 -0.826789 3.14512 0.5 0.5 0.5 1
1.20921 -1.51763 4.15464 0.5 0.5 0.5 1
1.20921 1.51763 4.15464 0.5 0.5 0.5 1
-2.23239 1.20465 4.29124 0.5 0.5 0.5 1
-2.23239 -1.20465 4.29124 0.5 0.5 0.5 1
0.0121412 -1.67562 3.83177 0.5 0.5 0.5 1
0.0121375 1.67553 3.83177 0.5 0.5 0.5 1
2.43343 1.13274 4.4429 0.5 0.5 0.5 1
4.08246 -1.06247 4.83806 0.5 0.5 0.5 1
-0.838809 -1.50707 3.34827 0.5 0.5 0.5 1
-0.83881 1.50707 3.34827 0.5 0.5 0.5 1
-1.45505 -0.808367 1.87884 0.5 0.5 0.5 1
-1.45505 0.808367 1.87884 0.5 0.5 0.5 1
1.02813 1.46111 3.04755 0.5 0.5 0.5 1
1.02813 -1.46111 3.04755 0.5 0.5 0.5 1
4.08246 1.06247 4.83806 0.5 0.5 0.5 1
-4.17852 0.660524 3.81755 1 1 0 1
2.17614 2.07128e-09 3.46048 0.5 0.5 0.5 1
1.45257 1.0648 2.6958 0.5 0.5 0.5 1
1.45257 -1.0648 2.6958 0.5 0.5 0.5 1
0.10409 1.54625 2.84296 0.5 0.5 0.5 1
0.104095 -1.54625 2.84296 0.5 0.5 0.5 1
1.66989 8.64334e-09 2.49716 0.5 0.5 0.5 1
5.03177 -0.750445 3.94105 1 1 0 1
5.03177 0.750445 3.94105 1 1 0 1
-2.67219 4.6052e-09 3.45532 0.5 0.5 0.5 1
-0.530449 -1.35001 2.55265 0.5 0.5 0.5 1
-0.530449 1.35001 2.55265 0.5 0.5 0.5 1
-4.17852 -0.660524 3.81755 1 1 0 1
0.0708294 1.32615e-08 1.0221 1 1 0 1
-5.46375 0.886246 4.74153 0.5 0.5 0.5 1
-5.46375 -0.886246 4.74153 0.5 0.5 0.5 1
0.845427 1.23047 2.13343 0.5 0.5 0.5 1
0.845427 -1.23047 2.13343 0.5 0.5 0.5 1
6.48614 -0.917602 4.79294 0.5 0.5 0.5 1
6.48614 0.917602 4.79294 0.5 0.5 0.5 1
2.83151 -1.20134e-10 3.97946 0.5 0.5 0.5 1
2.43343 -1.13274 4.4429 0.5 0.5 0.5 1
1.68948 1.33128 3.6262 0.5 0.5 0.5 1
1.68948 -1.33128 3.6262 0.5 0.5 0.5 1
-1.10046 1.56052 4.26973 0.5 0.5 0.5 1
1.16473 0.753021 1.87596 0.5 0.5 0.5 1
1.16473 -0.753021 1.87596 0.5 0.5 0.5 1
0.0746403 1.19786 1.9818 0.5 0.5 0.5 1
0.0746404 -1.19786 1.9818 0.5 0.5 0.5 1
1.13344 1.39097e-08 1.72805 0.5 0.5 0.5 1
4.08268 -1.23717e-09 4.75426 0.5 0.5 0.5 1
-0.243172 -0.784485 1.7293 0.5 0.5 0.5 1
-0.243172 0.784485 1.7293 0.5 0.5 0.5 1
-3.13814 0.95166 4.03088 0.5 0.5 0.5 1
-3.13814 -0.95166 4.03088 0.5 0.5 0.5 1
-3.60561 0.958127 4.58711 0.5 0.5 0.5 1
-3.60561 -0.958127 4.58711 0.5 0.5 0.5 1

3 0 1 61
3 0 61 1
3 0 26 60
3 0 60 26
3 0 60 61
3 0 61 60
3 1 27 61
3 1 61 27
3 2 6 31
3 2 31 6
3 2 9 28
3 2 28 9
3 2 28 35
3 2 35 28
3 2 31 35
3 2 35 31
3 3 4 65
3 3 65 4
3 3 24 64
3 3 64 24
3 3 64 65
3 3 65 64
3 4 25 65
3 4 65 25
3 5 7 32
3 5 32 7
3 5 8 70
3 5 70 8
3 5 32 36
3 5 36 32
3 5 36 70
3 5 70 36
3 6 10 67
3 6 67 10
3 6 31 67
3 6 67 31
3 7 11 37
3 7 37 11
3 7 32 37
3 7 37 32
3 8 12 33
3 8 33 12
3 8 33 70
3 8 70 33
3 9 13 34
3 9 34 13
3 9 28 34
3 9 34 28
3 10 14 67
3 10 67 14
3 11 15 37
3 11 37 15
3 12 16 33
3 12 33 16
3 13 17 34
3 13 34 17
3 14 18 38
3 14 38 18
3 14 38 67
3 14 67 38
3 15 19 45
3 15 45 19
3 15 37 45
3 15 45 37
3 16 20 46
3 16 46 20
3 16 20 81
3 16 81 20
3 16 33 79
3 16 79 33
3 16 46 79
3 16 79 46
3 16 79 81
3 16 81 79
3 17 21 58
3 17 58 21
3 17 21 82
3 17 82 21
3 17 34 80
3 17 80 34
3 17 58 80
3 17 80 58
3 17 80 82
3 17 82 80
3 18 22 38
3 18 38 22
3 19 23 45
3 19 45 23
3 20 26 46
3 20 46 26
3 20 46 81
3 20 81 46
3 21 27 58
3 21 58 27
3 21 58 82
3 21 82 58
3 22 24 53
3 22 53 24
3 22 38 53
3 22 53 38
3 23 25 54
3 23 54 25
3 23 45 54
3 23 54 45
3 24 53 64
3 24 64 53
3 25 54 65
3 25 65 54
3 26 46 60
3 26 60 46
3 27 58 61
3 27 61 58
3 28 34 39
3 28 39 34
3 28 35 39
3 28 39 35
3 29 30 41
3 29 41 30
3 29 30 55
3 29 55 30
3 29 33 40
3 29 40 33
3 29 33 55
3 29 55 33
3 29 40 57
3 29 57 40
3 29 41 42
3 29 42 41
3 29 42 57
3 29 57 42
3 30 34 39
3 30 39 34
3 30 34 55
3 30 55 34
3 30 39 56
3 30 56 39
3 30 41 56
3 30 56 41
3 31 35 44
3 31 44 35
3 31 44 69
3 31 69 44
3 31 67 69
3 31 69 67
3 32 36 43
3 32 43 36
3 32 37 68
3 32 68 37
3 32 43 68
3 32 68 43
3 33 40 70
3 33 70 40
3 33 55 79
3 33 79 55
3 34 55 80
3 34 80 55
3 35 39 51
3 35 51 39
3 35 44 51
3 35 51 44
3 36 40 50
3 36 50 40
3 36 40 70
3 36 70 40
3 36 43 50
3 36 50 43
3 37 45 66
3 37 66 45
3 37 47 66
3 37 66 47
3 37 47 68
3 37 68 47
3 38 53 76
3 38 76 53
3 38 66 67
3 38 67 66
3 38 66 76
3 38 76 66
3 39 51 56
3 39 56 51
3 40 50 57
3 40 57 50
3 41 42 59
3 41 59 42
3 41 56 74
3 41 74 56
3 41 56 77
3 41 77 56
3 41 59 74
3 41 74 59
3 41 59 77
3 41 77 59
3 42 57 73
3 42 73 57
3 42 57 78
3 42 78 57
3 42 59 73
3 42 73 59
3 42 59 78
3 42 78 59
3 43 48 62
3 43 62 48
3 43 48 68
3 43 68 48
3 43 50 62
3 43 62 50
3 44 49 63
3 44 63 49
3 44 49 69
3 44 69 49
3 44 51 63
3 44 63 51
3 45 54 76
3 45 76 54
3 45 66 76
3 45 76 66
3 46 55 58
3 46 58 55
3 46 55 79
3 46 79 55
3 46 58 61
3 46 61 58
3 46 60 61
3 46 61 60
3 46 79 81
3 46 81 79
3 47 48 52
3 47 52 48
3 47 48 68
3 47 68 48
3 47 49 52
3 47 52 49
3 47 49 69
3 47 69 49
3 47 66 67
3 47 67 66
3 47 67 69
3 47 69 67
3 48 52 71
3 48 71 52
3 48 62 71
3 48 71 62
3 49 52 72
3 49 72 52
3 49 63 72
3 49 72 63
3 50 57 73
3 50 73 57
3 50 62 73
3 50 73 62
3 51 56 74
3 51 74 56
3 51 63 74
3 51 74 63
3 52 59 71
3 52 71 59
3 52 59 72
3 52 72 59
3 52 71 75
3 52 75 71
3 52 72 75
3 52 75 72
3 53 54 65
3 53 65 54
3 53 54 76
3 53 76 54
3 53 64 65
3 53 65 64
3 55 58 80
3 55 80 58
3 56 74 77
3 56 77 74
3 57 73 78
3 57 78 73
3 58 80 82
3 58 82 80
3 59 62 71
3 59 71 62
3 59 62 73
3 59 73 62
3 59 63 72
3 59 72 63
3 59 63 74
3 59 74 63
3 59 71 75
3 59 75 71
3 59 72 75
3 59 75 72
3 59 73 78
3 59 78 73
3 59 74 77
3 59 77 74
