COFF
94 352 94

-6.39239 0.923569 5.77454 0.5 0.5 0.5 1
-6.39239 -0.923569 5.77454 0.5 0.5 0.5 1
-0.026496 -2.00463 5.39241 0.5 0.5 0.5 1
7.33464 -0.959918 5.73152 0.5 0.5 0.5 1
7.33464 0.959918 5.73152 0.5 0.5 0.5 1
-0.026496 2.00463 5.39241 0.5 0.5 0.5 1
1.10085 -1.62021 5.60455 0.5 0.5 0.5 1
1.10085 1.62021 5.60455 0.5 0.5 0.5 1
-1.13651 1.65883 5.5163 0.5 0.5 0.5 1
-1.13651 -1.65883 5.5163 0.5 0.5 0.5 1
1.98768 -1.25715 5.90541 0.5 0.5 0.5 1
1.98768 1.25715 5.90541 0.5 0.5 0.5 1
-2.05345 1.3587 5.77926 0.5 0.5 0.5 1
-2.05345 -1.3587 5.77926 0.5 0.5 0.5 1
3.05418 -1.15586 5.93214 0.5 0.5 0.5 1
3.05418 1.15586 5.93214 0.5 0.5 0.5 1
-3.04591 1.35072 5.65999 0.5 0.5 0.5 1
-3.04591 -1.35072 5.65999 0.5 0.5 0.5 1
4.05164 -1.09424 5.95806 0.5 0.5 0.5 1
4.05164 1.09424 5.95806 0.5 0.5 0.5 1
-4.04466 1.2941 5.63559 0.5 0.5 0.5 1
-4.04466 -1.2941 5.63559 0.5 0.5 0.5 1
5.06609 -1.22539 5.70915 0.5 0.5 0.5 1
5.06609 1.22539 5.70915 0.5 0.5 0.5 1
6.07539 -1.18127 5.65012 0.5 0.5 0.5 1
6.07539 1.18127 5.65012 0.5 0.5 0.5 1
-5.04332 1.17653 5.66469 0.5 0.5 0.5 1
-5.04332 -1.17653 5.66469 0.5 0.5 0.5 1
-1.05869 -1.62349 4.58881 0.5 0.5 0.5 1
-1.98126 0.879732 3.41337 0.5 0.5 0.5 1
-1.98126 -0.879732 3.41337 0.5 0.5 0.5 1
1.23364 -1.56857 4.49261 0.5 0.5 0.5 1
1.23364 1.56857 4.49261 0.5 0.5 0.5 1
-2.19796 1.28912 4.64716 0.5 0.5 0.5 1
-2.19796 -1.28912 4.64716 0.5 0.5 0.5 1
0.0167056 -1.72844 4.1415 0.5 0.5 0.5 1
0.0166767 1.72858 4.1415 0.5 0.5 0.5 1
2.46726 1.19064 4.78072 0.5 0.5 0.5 1
4.09769 -1.14444 5.15585 0.5 0.5 0.5 1
-0.849592 -1.56804 3.63189 0.5 0.5 0.5 1
-0.849592 1.56804 3.63189 0.5 0.5 0.5 1
-1.48295 -0.896994 2.0886 0.5 0.5 0.5 1
-1.48295 0.896994 2.0886 0.5 0.5 0.5 1
1.07116 1.51372 3.35756 0.5 0.5 0.5 1
1.07116 -1.51372 3.35756 0.5 0.5 0.5 1
4.09769 1.14444 5.15585 0.5 0.5 0.5 1
-4.29587 0.660576 3.81755 1 1 0 1
2.27674 -6.20005e-09 3.77121 0.5 0.5 0.5 1
1.51289 1.12311 2.9898 0.5 0.5 0.5 1
1.51289 -1.12311 2.9898 0.5 0.5 0.5 1
0.103853 1.60307 3.12992 0.5 0.5 0.5 1
0.103815 -1.6032 3.12992 0.5 0.5 0.5 1
1.75404 -2.47809e-08 2.75229 0.5 0.5 0.5 1
5.04941 -0.75038 3.94105 1 1 0 1
5.04941 0.75038 3.94105 1 1 0 1
-2.75669 -7.21802e-09 3.63554 0.5 0.5 0.5 1
-0.61472 -1.4255 2.84627 0.5 0.5 0.5 1
-0.61472 1.4255 2.84627 0.5 0.5 0.5 1
-4.29587 -0.660576 3.81755 1 1 0 1
0.114026 -3.00777e-08 1.0221 1 1 0 1
-5.57529 0.986676 5.01404 0.5 0.5 0.5 1
-5.57529 -0.986676 5.01404 0.5 0.5 0.5 1
0.932555 1.34734 2.4136 0.5 0.5 0.5 1
0.932554 -1.34734 2.4136 0.5 0.5 0.5 1
6.5858 -1.02413 5.066 0.5 0.5 0.5 1
6.5858 1.02413 5.066 0.5 0.5 0.5 1
3.00003 4.80256e-09 4.19264 0.5 0.5 0.5 1
2.46726 -1.19064 4.78072 0.5 0.5 0.5 1
1.7203 1.3819 3.95003 0.5 0.5 0.5 1
1.7203 -1.3819 3.95003 0.5 0.5 0.5 1
-1.05869 1.62349 4.58881 0.5 0.5 0.5 1
1.27639 0.861901 2.10568 0.5 0.5 0.5 1
1.27639 -0.861901 2.10568 0.5 0.5 0.5 1
0.141507 1.37016 2.20881 0.5 0.5 0.5 1
0.141507 -1.37016 2.20881 0.5 0.5 0.5 1
1.39452 -2.48821e-08 1.94264 0.5 0.5 0.5 1
4.10299 2.3772e-08 4.966 0.5 0.5 0.5 1
-0.303326 -1.13394 1.87938 0.5 0.5 0.5 1
-0.303326 1.13394 1.87938 0.5 0.5 0.5 1
-3.08548 1.11617 4.26931 0.5 0.5 0.5 1
-3.08548 -1.11617 4.26931 0.5 0.5 0.5 1
-3.5698 1.19731 4.82215 0.5 0.5 0.5 1
-3.5698 -1.19731 4.82215 0.5 0.5 0.5 1
-0.963342 -0.479214 1.49003 0.5 0.5 0.5 1
-0.963342 0.479214 1.49003 0.5 0.5 0.5 1
0.597201 0.785621 1.68746 0.5 0.5 0.5 1
0.597201 -0.785621 1.68746 0.5 0.5 0.5 1
-4.7216 0.952596 4.75017 0.5 0.5 0.5 1
-4.7216 -0.952596 4.75017 0.5 0.5 0.5 1
6.63238 -8.74929e-15 5.04194 0.5 0.5 0.5 1
5.88319 -0.366418 4.4807 0.5 0.5 0.5 1
5.88319 0.366418 4.4807 0.5 0.5 0.5 1
5.59466 -1.01608 4.82019 0.5 0.5 0.5 1
5.59466 1.01608 4.82019 0.5 0.5 0.5 1

3 0 1 61
3 0 61 1
3 0 26 60
3 0 60 26
3 0 60 61
3 0 61 60
3 1 27 61
3 1 61 27
3 2 6 31
3 2 31 6
3 2 9 28
3 2 28 9
3 2 28 35
3 2 35 28
3 2 31 35
3 2 35 31
3 3 4 89
3 3 89 4
3 3 24 64
3 3 64 24
3 3 64 89
3 3 89 64
3 4 25 65
3 4 65 25
3 4 65 89
3 4 89 65
3 5 7 32
3 5 32 7
3 5 8 70
3 5 70 8
3 5 32 36
3 5 36 32
3 5 36 70
3 5 70 36
3 6 10 67
3 6 67 10
3 6 31 67
3 6 67 31
3 7 11 37
3 7 37 11
3 7 32 37
3 7 37 32
3 8 12 33
3 8 33 12
3 8 33 70
3 8 70 33
3 9 13 34
3 9 34 13
3 9 28 34
3 9 34 28
3 10 14 67
3 10 67 14
3 11 15 37
3 11 37 15
3 12 16 33
3 12 33 16
3 13 17 34
3 13 34 17
3 14 18 38
3 14 38 18
3 14 38 67
3 14 67 38
3 15 19 45
3 15 45 19
3 15 37 45
3 15 45 37
3 16 20 46
3 16 46 20
3 16 20 81
3 16 81 20
3 16 33 79
3 16 79 33
3 16 46 79
3 16 79 46
3 16 79 81
3 16 81 79
3 17 21 58
3 17 58 21
3 17 21 82
3 17 82 21
3 17 34 80
3 17 80 34
3 17 58 80
3 17 80 58
3 17 80 82
3 17 82 80
3 18 22 38
3 18 38 22
3 19 23 45
3 19 45 23
3 20 26 60
3 20 60 26
3 20 26 87
3 20 87 26
3 20 46 60
3 20 60 46
3 20 46 81
3 20 81 46
3 20 46 87
3 20 87 46
3 21 27 61
3 21 61 27
3 21 27 88
3 21 88 27
3 21 58 61
3 21 61 58
3 21 58 82
3 21 82 58
3 21 58 88
3 21 88 58
3 22 24 64
3 22 64 24
3 22 24 92
3 22 92 24
3 22 38 53
3 22 53 38
3 22 53 64
3 22 64 53
3 22 53 92
3 22 92 53
3 23 25 65
3 23 65 25
3 23 25 93
3 23 93 25
3 23 45 54
3 23 54 45
3 23 54 65
3 23 65 54
3 23 54 93
3 23 93 54
3 24 64 92
3 24 92 64
3 25 65 93
3 25 93 65
3 26 60 87
3 26 87 60
3 27 61 88
3 27 88 61
3 28 34 39
3 28 39 34
3 28 35 39
3 28 39 35
3 29 30 41
3 29 41 30
3 29 30 55
3 29 55 30
3 29 33 40
3 29 40 33
3 29 33 55
3 29 55 33
3 29 40 57
3 29 57 40
3 29 41 42
3 29 42 41
3 29 42 57
3 29 57 42
3 30 34 39
3 30 39 34
3 30 34 55
3 30 55 34
3 30 39 56
3 30 56 39
3 30 41 56
3 30 56 41
3 31 35 44
3 31 44 35
3 31 44 69
3 31 69 44
3 31 67 69
3 31 69 67
3 32 36 43
3 32 43 36
3 32 37 68
3 32 68 37
3 32 43 68
3 32 68 43
3 33 40 70
3 33 70 40
3 33 55 79
3 33 79 55
3 34 55 80
3 34 80 55
3 35 39 51
3 35 51 39
3 35 44 51
3 35 51 44
3 36 40 50
3 36 50 40
3 36 40 70
3 36 70 40
3 36 43 50
3 36 50 43
3 37 45 66
3 37 66 45
3 37 47 66
3 37 66 47
3 37 47 68
3 37 68 47
3 38 53 76
3 38 76 53
3 38 66 67
3 38 67 66
3 38 66 76
3 38 76 66
3 39 51 56
3 39 56 51
3 40 50 57
3 40 57 50
3 41 42 84
3 41 84 42
3 41 56 77
3 41 77 56
3 41 59 77
3 41 77 59
3 41 59 83
3 41 83 59
3 41 83 84
3 41 84 83
3 42 57 78
3 42 78 57
3 42 59 78
3 42 78 59
3 42 59 84
3 42 84 59
3 43 48 62
3 43 62 48
3 43 48 68
3 43 68 48
3 43 50 62
3 43 62 50
3 44 49 63
3 44 63 49
3 44 49 69
3 44 69 49
3 44 51 63
3 44 63 51
3 45 54 76
3 45 76 54
3 45 66 76
3 45 76 66
3 46 55 58
3 46 58 55
3 46 55 79
3 46 79 55
3 46 58 61
3 46 61 58
3 46 60 61
3 46 61 60
3 46 60 87
3 46 87 60
3 46 79 81
3 46 81 79
3 47 48 52
3 47 52 48
3 47 48 68
3 47 68 48
3 47 49 52
3 47 52 49
3 47 49 69
3 47 69 49
3 47 66 67
3 47 67 66
3 47 67 69
3 47 69 67
3 48 52 71
3 48 71 52
3 48 62 71
3 48 71 62
3 49 52 72
3 49 72 52
3 49 63 72
3 49 72 63
3 50 57 73
3 50 73 57
3 50 62 73
3 50 73 62
3 51 56 74
3 51 74 56
3 51 63 74
3 51 74 63
3 52 59 71
3 52 71 59
3 52 59 72
3 52 72 59
3 52 71 75
3 52 75 71
3 52 72 75
3 52 75 72
3 53 54 76
3 53 76 54
3 53 54 91
3 53 91 54
3 53 64 89
3 53 89 64
3 53 64 92
3 53 92 64
3 53 89 90
3 53 90 89
3 53 90 91
3 53 91 90
3 54 65 89
3 54 89 65
3 54 65 93
3 54 93 65
3 54 89 91
3 54 91 89
3 55 58 80
3 55 80 58
3 56 74 77
3 56 77 74
3 57 73 78
3 57 78 73
3 58 61 88
3 58 88 61
3 58 80 82
3 58 82 80
3 59 62 71
3 59 71 62
3 59 62 73
3 59 73 62
3 59 63 72
3 59 72 63
3 59 63 74
3 59 74 63
3 59 71 75
3 59 75 71
3 59 71 85
3 59 85 71
3 59 72 75
3 59 75 72
3 59 72 86
3 59 86 72
3 59 73 78
3 59 78 73
3 59 73 85
3 59 85 73
3 59 74 77
3 59 77 74
3 59 74 86
3 59 86 74
3 59 83 84
3 59 84 83
3 62 71 85
3 62 85 71
3 62 73 85
3 62 85 73
3 63 72 86
3 63 86 72
3 63 74 86
3 63 86 74
3 89 90 91
3 89 91 90
