COFF
110 410 110

-6.4574 0.976619 6.09885 0.5 0.5 0.5 1
-6.4574 -0.976619 6.09885 0.5 0.5 0.5 1
-0.0256899 -2.05619 5.74144 0.5 0.5 0.5 1
7.3959 -1.01208 6.05814 0.5 0.5 0.5 1
7.3959 1.01208 6.05814 0.5 0.5 0.5 1
-0.0256899 2.05619 5.74144 0.5 0.5 0.5 1
1.11701 -1.6632 5.96271 0.5 0.5 0.5 1
1.11701 1.6632 5.96271 0.5 0.5 0.5 1
-1.14727 1.71427 5.86112 0.5 0.5 0.5 1
-1.14727 -1.71427 5.86112 0.5 0.5 0.5 1
1.99795 -1.29924 6.27137 0.5 0.5 0.5 1
1.99795 1.29924 6.27137 0.5 0.5 0.5 1
-2.06446 1.41719 6.12671 0.5 0.5 0.5 1
-2.06446 -1.41719 6.12671 0.5 0.5 0.5 1
3.05438 -1.21386 6.28369 0.5 0.5 0.5 1
3.05438 1.21386 6.28369 0.5 0.5 0.5 1
-3.05195 1.4409 5.97308 0.5 0.5 0.5 1
-3.05195 -1.4409 5.97308 0.5 0.5 0.5 1
4.05252 -1.16105 6.30075 0.5 0.5 0.5 1
4.05252 1.16105 6.30075 0.5 0.5 0.5 1
-4.05427 1.40902 5.9236 0.5 0.5 0.5 1
-4.05427 -1.40902 5.9236 0.5 0.5 0.5 1
5.06033 -1.3361 6.00283 0.5 0.5 0.5 1
5.06033 1.3361 6.00283 0.5 0.5 0.5 1
6.09009 -1.28436 5.98082 0.5 0.5 0.5 1
6.09009 1.28436 5.98082 0.5 0.5 0.5 1
-5.07328 1.2772 5.98576 0.5 0.5 0.5 1
-5.07328 -1.2772 5.98576 0.5 0.5 0.5 1
7.69229 3.7358e-14 6.05858 0.5 0.5 0.5 1
-1.99287 0.920141 3.69962 0.5 0.5 0.5 1
-1.99287 -0.920141 3.69962 0.5 0.5 0.5 1
1.25642 -1.61765 4.82887 0.5 0.5 0.5 1
1.25642 1.61765 4.82887 0.5 0.5 0.5 1
-2.18119 1.36649 4.9942 0.5 0.5 0.5 1
-2.18119 -1.36649 4.9942 0.5 0.5 0.5 1
0.0182662 -1.77969 4.45213 0.5 0.5 0.5 1
0.0182712 1.77981 4.45213 0.5 0.5 0.5 1
2.4998 1.24352 5.11623 0.5 0.5 0.5 1
4.09858 -1.19151 5.43393 0.5 0.5 0.5 1
-0.872697 -1.62613 3.92168 0.5 0.5 0.5 1
-0.872697 1.62612 3.92168 0.5 0.5 0.5 1
-1.51538 -0.960458 2.34247 0.5 0.5 0.5 1
-1.51538 0.960458 2.34247 0.5 0.5 0.5 1
1.10533 1.56736 3.66806 0.5 0.5 0.5 1
1.1053 -1.56736 3.66804 0.5 0.5 0.5 1
4.09858 1.19151 5.43393 0.5 0.5 0.5 1
-4.37189 0.659306 3.81755 1 1 0 1
2.3596 6.60895e-10 4.07978 0.5 0.5 0.5 1
1.56003 1.1759 3.28391 0.5 0.5 0.5 1
1.56003 -1.1759 3.28391 0.5 0.5 0.5 1
0.102428 1.65766 3.40875 0.5 0.5 0.5 1
0.102438 -1.65767 3.40875 0.5 0.5 0.5 1
1.82843 -9.71759e-09 3.00929 0.5 0.5 0.5 1
5.06904 -0.750459 3.94105 1 1 0 1
5.06904 0.750459 3.94105 1 1 0 1
-2.7882 -5.32648e-09 3.88585 0.5 0.5 0.5 1
-0.6471 -1.48437 3.10346 0.5 0.5 0.5 1
-0.647101 1.48437 3.10346 0.5 0.5 0.5 1
-4.37189 -0.659306 3.81755 1 1 0 1
0.147447 -4.94598e-08 1.0221 1 1 0 1
-5.6979 1.11354 5.3168 0.5 0.5 0.5 1
-5.6979 -1.11354 5.3168 0.5 0.5 0.5 1
0.982818 1.4281 2.69747 0.5 0.5 0.5 1
0.98282 -1.4281 2.69746 0.5 0.5 0.5 1
6.70855 -1.14811 5.39723 0.5 0.5 0.5 1
6.70855 1.14811 5.39723 0.5 0.5 0.5 1
3.08973 3.4194e-09 4.41244 0.5 0.5 0.5 1
2.4998 -1.24352 5.11623 0.5 0.5 0.5 1
1.7482 1.43157 4.26644 0.5 0.5 0.5 1
1.74822 -1.43156 4.26646 0.5 0.5 0.5 1
-1.0384 1.68191 4.90445 0.5 0.5 0.5 1
1.35469 0.94797 2.34311 0.5 0.5 0.5 1
1.35469 -0.94797 2.34311 0.5 0.5 0.5 1
0.191206 1.48307 2.44029 0.5 0.5 0.5 1
0.191208 -1.48307 2.44029 0.5 0.5 0.5 1
1.52342 4.05271e-09 2.18335 0.5 0.5 0.5 1
4.11685 2.38865e-08 5.2824 0.5 0.5 0.5 1
-0.373028 -1.31604 2.09414 0.5 0.5 0.5 1
-0.373027 1.31604 2.09414 0.5 0.5 0.5 1
-3.03185 1.26895 4.51636 0.5 0.5 0.5 1
-3.03185 -1.26895 4.51636 0.5 0.5 0.5 1
-3.55339 1.37395 5.08083 0.5 0.5 0.5 1
-3.55339 -1.37395 5.08083 0.5 0.5 0.5 1
-1.23597 -0.645267 1.56504 0.5 0.5 0.5 1
-1.23597 0.645267 1.56504 0.5 0.5 0.5 1
0.764837 1.05402 1.85294 0.5 0.5 0.5 1
0.764837 -1.05402 1.85294 0.5 0.5 0.5 1
-4.8653 1.15808 4.98923 0.5 0.5 0.5 1
-4.8653 -1.15808 4.98923 0.5 0.5 0.5 1
6.89803 6.12094e-12 5.25253 0.5 0.5 0.5 1
6.2131 -0.446826 4.48629 0.5 0.5 0.5 1
6.2131 0.446826 4.48629 0.5 0.5 0.5 1
5.74896 -1.19216 5.08644 0.5 0.5 0.5 1
5.74896 1.19216 5.08644 0.5 0.5 0.5 1
-5.86967 -1.67856e-11 5.21468 0.5 0.5 0.5 1
-4.17528 1.22509 4.91275 0.5 0.5 0.5 1
-4.17528 -1.22509 4.91275 0.5 0.5 0.5 1
6.08896 -0.953654 4.68159 0.5 0.5 0.5 1
6.08896 0.953654 4.68159 0.5 0.5 0.5 1
-5.23618 0.351787 4.46154 0.5 0.5 0.5 1
-5.23618 -0.351787 4.46154 0.5 0.5 0.5 1
5.04074 -1.14779 5.01921 0.5 0.5 0.5 1
5.04074 1.14779 5.01921 0.5 0.5 0.5 1
-1.0384 -1.68191 4.90445 0.5 0.5 0.5 1
0.145325 0.827909 1.71125 0.5 0.5 0.5 1
0.145326 -0.827909 1.71125 0.5 0.5 0.5 1
-5.08685 0.894975 4.56909 0.5 0.5 0.5 1
-5.08685 -0.894975 4.56909 0.5 0.5 0.5 1
0.808581 0.486443 1.67226 0.5 0.5 0.5 1
0.808582 -0.486443 1.67226 0.5 0.5 0.5 1

3 0 1 94
3 0 94 1
3 0 26 60
3 0 60 26
3 0 60 94
3 0 94 60
3 1 27 61
3 1 61 27
3 1 61 94
3 1 94 61
3 2 6 31
3 2 31 6
3 2 9 103
3 2 103 9
3 2 31 35
3 2 35 31
3 2 35 103
3 2 103 35
3 3 24 64
3 3 64 24
3 3 28 89
3 3 89 28
3 3 64 89
3 3 89 64
3 4 25 65
3 4 65 25
3 4 28 89
3 4 89 28
3 4 65 89
3 4 89 65
3 5 7 32
3 5 32 7
3 5 8 70
3 5 70 8
3 5 32 36
3 5 36 32
3 5 36 70
3 5 70 36
3 6 10 67
3 6 67 10
3 6 31 67
3 6 67 31
3 7 11 37
3 7 37 11
3 7 32 37
3 7 37 32
3 8 12 33
3 8 33 12
3 8 33 70
3 8 70 33
3 9 13 34
3 9 34 13
3 9 34 103
3 9 103 34
3 10 14 67
3 10 67 14
3 11 15 37
3 11 37 15
3 12 16 33
3 12 33 16
3 13 17 34
3 13 34 17
3 14 18 38
3 14 38 18
3 14 38 67
3 14 67 38
3 15 19 45
3 15 45 19
3 15 37 45
3 15 45 37
3 16 20 81
3 16 81 20
3 16 33 79
3 16 79 33
3 16 79 81
3 16 81 79
3 17 21 82
3 17 82 21
3 17 34 80
3 17 80 34
3 17 80 82
3 17 82 80
3 18 22 38
3 18 38 22
3 19 23 45
3 19 45 23
3 20 26 87
3 20 87 26
3 20 46 81
3 20 81 46
3 20 46 87
3 20 87 46
3 20 81 95
3 20 95 81
3 20 87 95
3 20 95 87
3 21 27 88
3 21 88 27
3 21 58 82
3 21 82 58
3 21 58 88
3 21 88 58
3 21 82 96
3 21 96 82
3 21 88 96
3 21 96 88
3 22 24 92
3 22 92 24
3 22 38 53
3 22 53 38
3 22 38 101
3 22 101 38
3 22 53 92
3 22 92 53
3 22 92 101
3 22 101 92
3 23 25 93
3 23 93 25
3 23 45 54
3 23 54 45
3 23 45 102
3 23 102 45
3 23 54 93
3 23 93 54
3 23 93 102
3 23 102 93
3 24 64 92
3 24 92 64
3 25 65 93
3 25 93 65
3 26 60 87
3 26 87 60
3 27 61 88
3 27 88 61
3 29 30 41
3 29 41 30
3 29 30 55
3 29 55 30
3 29 33 40
3 29 40 33
3 29 33 55
3 29 55 33
3 29 40 57
3 29 57 40
3 29 41 42
3 29 42 41
3 29 42 57
3 29 57 42
3 30 34 39
3 30 39 34
3 30 34 55
3 30 55 34
3 30 39 56
3 30 56 39
3 30 41 56
3 30 56 41
3 31 35 44
3 31 44 35
3 31 44 69
3 31 69 44
3 31 67 69
3 31 69 67
3 32 36 43
3 32 43 36
3 32 37 68
3 32 68 37
3 32 43 68
3 32 68 43
3 33 40 70
3 33 70 40
3 33 55 79
3 33 79 55
3 34 39 103
3 34 103 39
3 34 55 80
3 34 80 55
3 35 39 51
3 35 51 39
3 35 39 103
3 35 103 39
3 35 44 51
3 35 51 44
3 36 40 50
3 36 50 40
3 36 40 70
3 36 70 40
3 36 43 50
3 36 50 43
3 37 45 66
3 37 66 45
3 37 47 66
3 37 66 47
3 37 47 68
3 37 68 47
3 38 53 76
3 38 76 53
3 38 53 101
3 38 101 53
3 38 66 67
3 38 67 66
3 38 66 76
3 38 76 66
3 39 51 56
3 39 56 51
3 40 50 57
3 40 57 50
3 41 42 84
3 41 84 42
3 41 56 77
3 41 77 56
3 41 59 77
3 41 77 59
3 41 59 83
3 41 83 59
3 41 83 84
3 41 84 83
3 42 57 78
3 42 78 57
3 42 59 78
3 42 78 59
3 42 59 84
3 42 84 59
3 43 48 62
3 43 62 48
3 43 48 68
3 43 68 48
3 43 50 62
3 43 62 50
3 44 49 63
3 44 63 49
3 44 49 69
3 44 69 49
3 44 51 63
3 44 63 51
3 45 54 76
3 45 76 54
3 45 54 102
3 45 102 54
3 45 66 76
3 45 76 66
3 46 55 58
3 46 58 55
3 46 55 79
3 46 79 55
3 46 58 100
3 46 100 58
3 46 79 81
3 46 81 79
3 46 81 95
3 46 95 81
3 46 87 95
3 46 95 87
3 46 87 106
3 46 106 87
3 46 99 100
3 46 100 99
3 46 99 106
3 46 106 99
3 47 48 52
3 47 52 48
3 47 48 68
3 47 68 48
3 47 49 52
3 47 52 49
3 47 49 69
3 47 69 49
3 47 66 67
3 47 67 66
3 47 67 69
3 47 69 67
3 48 52 71
3 48 71 52
3 48 62 71
3 48 71 62
3 49 52 72
3 49 72 52
3 49 63 72
3 49 72 63
3 50 57 73
3 50 73 57
3 50 62 73
3 50 73 62
3 51 56 74
3 51 74 56
3 51 63 74
3 51 74 63
3 52 71 75
3 52 75 71
3 52 72 75
3 52 75 72
3 53 54 76
3 53 76 54
3 53 54 91
3 53 91 54
3 53 90 91
3 53 91 90
3 53 90 97
3 53 97 90
3 53 92 97
3 53 97 92
3 53 92 101
3 53 101 92
3 54 91 98
3 54 98 91
3 54 93 98
3 54 98 93
3 54 93 102
3 54 102 93
3 55 58 80
3 55 80 58
3 56 74 77
3 56 77 74
3 57 73 78
3 57 78 73
3 58 80 82
3 58 82 80
3 58 82 96
3 58 96 82
3 58 88 96
3 58 96 88
3 58 88 107
3 58 107 88
3 58 100 107
3 58 107 100
3 59 71 75
3 59 75 71
3 59 71 85
3 59 85 71
3 59 72 75
3 59 75 72
3 59 72 86
3 59 86 72
3 59 73 78
3 59 78 73
3 59 73 85
3 59 85 73
3 59 74 77
3 59 77 74
3 59 74 86
3 59 86 74
3 59 75 108
3 59 108 75
3 59 75 109
3 59 109 75
3 59 77 105
3 59 105 77
3 59 78 104
3 59 104 78
3 59 83 84
3 59 84 83
3 59 85 104
3 59 104 85
3 59 85 108
3 59 108 85
3 59 86 105
3 59 105 86
3 59 86 109
3 59 109 86
3 60 87 106
3 60 106 87
3 60 94 106
3 60 106 94
3 61 88 107
3 61 107 88
3 61 94 107
3 61 107 94
3 62 71 85
3 62 85 71
3 62 73 85
3 62 85 73
3 63 72 86
3 63 86 72
3 63 74 86
3 63 86 74
3 64 89 97
3 64 97 89
3 64 92 97
3 64 97 92
3 65 89 98
3 65 98 89
3 65 93 98
3 65 98 93
3 71 75 108
3 71 108 75
3 71 85 108
3 71 108 85
3 72 75 109
3 72 109 75
3 72 86 109
3 72 109 86
3 73 78 104
3 73 104 78
3 73 85 104
3 73 104 85
3 74 77 105
3 74 105 77
3 74 86 105
3 74 105 86
3 89 90 91
3 89 91 90
3 89 90 97
3 89 97 90
3 89 91 98
3 89 98 91
3 94 99 100
3 94 100 99
3 94 99 106
3 94 106 99
3 94 100 107
3 94 107 100
