COFF
116 424 116

-6.51571 1.03052 6.42534 0.5 0.5 0.5 1
-6.51571 -1.03052 6.42534 0.5 0.5 0.5 1
-0.0247009 -2.10669 6.09021 0.5 0.5 0.5 1
7.43476 -1.07278 6.39116 0.5 0.5 0.5 1
7.43476 1.07278 6.39116 0.5 0.5 0.5 1
-0.0247009 2.10669 6.09021 0.5 0.5 0.5 1
1.13262 -1.70662 6.31928 0.5 0.5 0.5 1
1.13262 1.70662 6.31928 0.5 0.5 0.5 1
-1.15751 1.7682 6.20615 0.5 0.5 0.5 1
-1.15751 -1.7682 6.20615 0.5 0.5 0.5 1
2.00893 -1.34212 6.63544 0.5 0.5 0.5 1
2.00893 1.34212 6.63544 0.5 0.5 0.5 1
-2.07455 1.47353 6.47494 0.5 0.5 0.5 1
-2.07455 -1.47353 6.47494 0.5 0.5 0.5 1
3.05379 -1.27317 6.63243 0.5 0.5 0.5 1
3.05379 1.27317 6.63243 0.5 0.5 0.5 1
-3.05525 1.52664 6.28846 0.5 0.5 0.5 1
-3.05525 -1.52664 6.28846 0.5 0.5 0.5 1
4.05233 -1.22644 6.64311 0.5 0.5 0.5 1
4.05233 1.22644 6.64311 0.5 0.5 0.5 1
-4.06211 1.50754 6.22536 0.5 0.5 0.5 1
-4.06211 -1.50754 6.22536 0.5 0.5 0.5 1
5.05436 -1.4259 6.31475 0.5 0.5 0.5 1
5.05436 1.4259 6.31475 0.5 0.5 0.5 1
6.10032 -1.36833 6.31342 0.5 0.5 0.5 1
6.10032 1.36833 6.31342 0.5 0.5 0.5 1
-5.08882 1.3633 6.30092 0.5 0.5 0.5 1
-5.08882 -1.3633 6.30092 0.5 0.5 0.5 1
8.50842 -1.59355e-08 6.39657 0.5 0.5 0.5 1
-7.09617 -6.11189e-13 6.42696 0.5 0.5 0.5 1
-1.97269 -0.933654 3.98773 0.5 0.5 0.5 1
1.27815 -1.66497 5.16349 0.5 0.5 0.5 1
1.27815 1.66497 5.16349 0.5 0.5 0.5 1
-2.17647 1.43878 5.32306 0.5 0.5 0.5 1
-2.17647 -1.43878 5.32306 0.5 0.5 0.5 1
0.017922 -1.82977 4.76347 0.5 0.5 0.5 1
0.017938 1.82967 4.76347 0.5 0.5 0.5 1
2.53031 1.2943 5.45049 0.5 0.5 0.5 1
4.09992 -1.25353 5.71208 0.5 0.5 0.5 1
-0.888797 -1.6901 4.22353 0.5 0.5 0.5 1
-0.888797 1.6901 4.22353 0.5 0.5 0.5 1
-1.53536 -1.00111 2.59764 0.5 0.5 0.5 1
-1.53536 1.00111 2.59764 0.5 0.5 0.5 1
1.13358 1.61903 3.98135 0.5 0.5 0.5 1
1.13358 -1.61903 3.98135 0.5 0.5 0.5 1
4.09992 1.25353 5.71208 0.5 0.5 0.5 1
-4.33424 0.659695 3.81755 1 1 0 1
2.42903 -4.39289e-09 4.38564 0.5 0.5 0.5 1
1.59979 1.2225 3.57843 0.5 0.5 0.5 1
1.59979 -1.2225 3.57843 0.5 0.5 0.5 1
0.102905 1.71292 3.68857 0.5 0.5 0.5 1
0.102944 -1.7129 3.68857 0.5 0.5 0.5 1
1.88337 -3.53766e-08 3.26948 0.5 0.5 0.5 1
5.10337 -0.750737 3.94105 1 1 0 1
5.10337 0.750737 3.94105 1 1 0 1
-2.64966 1.23898e-08 4.19676 0.5 0.5 0.5 1
-0.663304 -1.53375 3.34834 0.5 0.5 0.5 1
-0.663304 1.53375 3.34834 0.5 0.5 0.5 1
-4.33424 -0.659695 3.81755 1 1 0 1
0.156126 -4.05576e-08 1.0221 1 1 0 1
-5.74439 1.20514 5.66209 0.5 0.5 0.5 1
-5.74439 -1.20514 5.66209 0.5 0.5 0.5 1
1.01787 1.49383 2.98017 0.5 0.5 0.5 1
1.01789 -1.49386 2.98017 0.5 0.5 0.5 1
6.74802 -1.21424 5.75731 0.5 0.5 0.5 1
6.74802 1.21424 5.75731 0.5 0.5 0.5 1
3.16058 2.82237e-09 4.63778 0.5 0.5 0.5 1
2.53031 -1.2943 5.45049 0.5 0.5 0.5 1
1.77624 1.4789 4.57902 0.5 0.5 0.5 1
1.77624 -1.4789 4.57902 0.5 0.5 0.5 1
-1.03023 1.73755 5.21822 0.5 0.5 0.5 1
1.4069 1.02246 2.60186 0.5 0.5 0.5 1
1.4069 -1.02246 2.60186 0.5 0.5 0.5 1
0.227052 1.57229 2.69104 0.5 0.5 0.5 1
0.22705 -1.57229 2.69104 0.5 0.5 0.5 1
1.57881 -1.88775e-05 2.38525 0.5 0.5 0.5 1
4.1158 2.38383e-08 5.58674 0.5 0.5 0.5 1
-0.418537 -1.40046 2.30461 0.5 0.5 0.5 1
-0.418536 1.40046 2.30461 0.5 0.5 0.5 1
-2.9905 1.40173 4.77612 0.5 0.5 0.5 1
-2.9905 -1.40173 4.77612 0.5 0.5 0.5 1
-3.56236 1.50057 5.35678 0.5 0.5 0.5 1
-3.56236 -1.50057 5.35678 0.5 0.5 0.5 1
-1.39898 -0.786808 1.72297 0.5 0.5 0.5 1
-1.39898 0.786808 1.72297 0.5 0.5 0.5 1
0.866126 1.2213 2.06276 0.5 0.5 0.5 1
0.866126 -1.2213 2.06276 0.5 0.5 0.5 1
-4.95416 1.28641 5.24887 0.5 0.5 0.5 1
-4.95416 -1.28641 5.24887 0.5 0.5 0.5 1
7.11962 -5.43157e-08 5.50811 0.5 0.5 0.5 1
6.44243 -0.54644 4.58042 0.5 0.5 0.5 1
6.44243 0.54644 4.58042 0.5 0.5 0.5 1
5.83393 -1.27975 5.33442 0.5 0.5 0.5 1
5.83393 1.27975 5.33442 0.5 0.5 0.5 1
-6.06675 -1.04384e-11 5.46215 0.5 0.5 0.5 1
-4.18325 1.39973 5.1555 0.5 0.5 0.5 1
-4.18325 -1.39973 5.1555 0.5 0.5 0.5 1
6.3383 -0.961349 4.94315 0.5 0.5 0.5 1
6.3383 0.961349 4.94315 0.5 0.5 0.5 1
-5.45681 0.489667 4.5156 0.5 0.5 0.5 1
-5.45681 -0.489667 4.5156 0.5 0.5 0.5 1
5.09163 -1.30489 5.28716 0.5 0.5 0.5 1
5.09163 1.30489 5.28716 0.5 0.5 0.5 1
-1.03023 -1.73755 5.21822 0.5 0.5 0.5 1
0.152462 1.17952 1.83461 1 1 1 1
0.152462 -1.17952 1.83461 1 1 1 1
-5.36257 0.965501 4.82844 0.5 0.5 0.5 1
-5.36257 -0.965501 4.82844 0.5 0.5 0.5 1
1.12897 0.695921 1.82855 1 1 1 1
1.12897 -0.695921 1.82855 1 1 1 1
-1.97269 0.933655 3.98773 0.5 0.5 0.5 1
4.54765 -1.0354 4.8686 0.5 0.5 0.5 1
4.54765 1.0354 4.8686 0.5 0.5 0.5 1
4.53517 -0.361724 4.72996 0.5 0.5 0.5 1
4.53517 0.361724 4.72996 0.5 0.5 0.5 1
-1.53935 -4.52677e-08 2.59775 0.5 0.5 0.5 1

3 0 26 60
3 0 60 26
3 0 29 94
3 0 94 29
3 0 60 94
3 0 94 60
3 1 27 61
3 1 61 27
3 1 29 94
3 1 94 29
3 1 61 94
3 1 94 61
3 2 6 31
3 2 31 6
3 2 9 103
3 2 103 9
3 2 31 35
3 2 35 31
3 2 35 103
3 2 103 35
3 3 24 64
3 3 64 24
3 3 28 89
3 3 89 28
3 3 64 89
3 3 89 64
3 4 25 65
3 4 65 25
3 4 28 89
3 4 89 28
3 4 65 89
3 4 89 65
3 5 7 32
3 5 32 7
3 5 8 70
3 5 70 8
3 5 32 36
3 5 36 32
3 5 36 70
3 5 70 36
3 6 10 67
3 6 67 10
3 6 31 67
3 6 67 31
3 7 11 37
3 7 37 11
3 7 32 37
3 7 37 32
3 8 12 33
3 8 33 12
3 8 33 70
3 8 70 33
3 9 13 34
3 9 34 13
3 9 34 103
3 9 103 34
3 10 14 67
3 10 67 14
3 11 15 37
3 11 37 15
3 12 16 33
3 12 33 16
3 13 17 34
3 13 34 17
3 14 18 38
3 14 38 18
3 14 38 67
3 14 67 38
3 15 19 45
3 15 45 19
3 15 37 45
3 15 45 37
3 16 20 81
3 16 81 20
3 16 33 79
3 16 79 33
3 16 79 81
3 16 81 79
3 17 21 82
3 17 82 21
3 17 34 80
3 17 80 34
3 17 80 82
3 17 82 80
3 18 22 38
3 18 38 22
3 19 23 45
3 19 45 23
3 20 26 87
3 20 87 26
3 20 46 81
3 20 81 46
3 20 46 87
3 20 87 46
3 20 81 95
3 20 95 81
3 20 87 95
3 20 95 87
3 21 27 88
3 21 88 27
3 21 58 82
3 21 82 58
3 21 58 88
3 21 88 58
3 21 82 96
3 21 96 82
3 21 88 96
3 21 96 88
3 22 24 92
3 22 92 24
3 22 38 101
3 22 101 38
3 22 92 101
3 22 101 92
3 23 25 93
3 23 93 25
3 23 45 102
3 23 102 45
3 23 93 102
3 23 102 93
3 24 64 92
3 24 92 64
3 25 65 93
3 25 93 65
3 26 60 87
3 26 87 60
3 27 61 88
3 27 88 61
3 30 34 39
3 30 39 34
3 30 34 55
3 30 55 34
3 30 39 56
3 30 56 39
3 30 41 56
3 30 56 41
3 30 41 115
3 30 115 41
3 30 55 110
3 30 110 55
3 30 110 115
3 30 115 110
3 31 35 44
3 31 44 35
3 31 44 69
3 31 69 44
3 31 67 69
3 31 69 67
3 32 36 43
3 32 43 36
3 32 37 68
3 32 68 37
3 32 43 68
3 32 68 43
3 33 40 70
3 33 70 40
3 33 40 110
3 33 110 40
3 33 55 79
3 33 79 55
3 33 55 110
3 33 110 55
3 34 39 103
3 34 103 39
3 34 55 80
3 34 80 55
3 35 39 51
3 35 51 39
3 35 39 103
3 35 103 39
3 35 44 51
3 35 51 44
3 36 40 50
3 36 50 40
3 36 40 70
3 36 70 40
3 36 43 50
3 36 50 43
3 37 45 66
3 37 66 45
3 37 47 66
3 37 66 47
3 37 47 68
3 37 68 47
3 38 66 67
3 38 67 66
3 38 66 76
3 38 76 66
3 38 76 111
3 38 111 76
3 38 101 111
3 38 111 101
3 39 51 56
3 39 56 51
3 40 50 57
3 40 57 50
3 40 57 110
3 40 110 57
3 41 56 77
3 41 77 56
3 41 59 77
3 41 77 59
3 41 59 83
3 41 83 59
3 41 83 115
3 41 115 83
3 42 57 78
3 42 78 57
3 42 57 110
3 42 110 57
3 42 59 78
3 42 78 59
3 42 59 84
3 42 84 59
3 42 84 115
3 42 115 84
3 42 110 115
3 42 115 110
3 43 48 62
3 43 62 48
3 43 48 68
3 43 68 48
3 43 50 62
3 43 62 50
3 44 49 63
3 44 63 49
3 44 49 69
3 44 69 49
3 44 51 63
3 44 63 51
3 45 66 76
3 45 76 66
3 45 76 112
3 45 112 76
3 45 102 112
3 45 112 102
3 46 55 58
3 46 58 55
3 46 55 79
3 46 79 55
3 46 58 100
3 46 100 58
3 46 79 81
3 46 81 79
3 46 81 95
3 46 95 81
3 46 87 95
3 46 95 87
3 46 87 106
3 46 106 87
3 46 99 100
3 46 100 99
3 46 99 106
3 46 106 99
3 47 48 52
3 47 52 48
3 47 48 68
3 47 68 48
3 47 49 52
3 47 52 49
3 47 49 69
3 47 69 49
3 47 66 67
3 47 67 66
3 47 67 69
3 47 69 67
3 48 52 71
3 48 71 52
3 48 62 71
3 48 71 62
3 49 52 72
3 49 72 52
3 49 63 72
3 49 72 63
3 50 57 73
3 50 73 57
3 50 62 73
3 50 73 62
3 51 56 74
3 51 74 56
3 51 63 74
3 51 74 63
3 52 71 75
3 52 75 71
3 52 72 75
3 52 75 72
3 53 54 91
3 53 91 54
3 53 54 114
3 53 114 54
3 53 76 111
3 53 111 76
3 53 76 113
3 53 113 76
3 53 90 91
3 53 91 90
3 53 90 97
3 53 97 90
3 53 92 97
3 53 97 92
3 53 92 101
3 53 101 92
3 53 101 111
3 53 111 101
3 53 113 114
3 53 114 113
3 54 76 112
3 54 112 76
3 54 76 114
3 54 114 76
3 54 91 98
3 54 98 91
3 54 93 98
3 54 98 93
3 54 93 102
3 54 102 93
3 54 102 112
3 54 112 102
3 55 58 80
3 55 80 58
3 56 74 77
3 56 77 74
3 57 73 78
3 57 78 73
3 58 80 82
3 58 82 80
3 58 82 96
3 58 96 82
3 58 88 96
3 58 96 88
3 58 88 107
3 58 107 88
3 58 100 107
3 58 107 100
3 59 71 75
3 59 75 71
3 59 71 85
3 59 85 71
3 59 72 75
3 59 75 72
3 59 72 86
3 59 86 72
3 59 73 78
3 59 78 73
3 59 73 85
3 59 85 73
3 59 74 77
3 59 77 74
3 59 74 86
3 59 86 74
3 59 75 108
3 59 108 75
3 59 75 109
3 59 109 75
3 59 77 105
3 59 105 77
3 59 78 104
3 59 104 78
3 59 83 84
3 59 84 83
3 59 85 104
3 59 104 85
3 59 85 108
3 59 108 85
3 59 86 105
3 59 105 86
3 59 86 109
3 59 109 86
3 60 87 106
3 60 106 87
3 60 94 106
3 60 106 94
3 61 88 107
3 61 107 88
3 61 94 107
3 61 107 94
3 62 71 85
3 62 85 71
3 62 73 85
3 62 85 73
3 63 72 86
3 63 86 72
3 63 74 86
3 63 86 74
3 64 89 97
3 64 97 89
3 64 92 97
3 64 97 92
3 65 89 98
3 65 98 89
3 65 93 98
3 65 98 93
3 71 75 108
3 71 108 75
3 71 85 108
3 71 108 85
3 72 75 109
3 72 109 75
3 72 86 109
3 72 109 86
3 73 78 104
3 73 104 78
3 73 85 104
3 73 104 85
3 74 77 105
3 74 105 77
3 74 86 105
3 74 105 86
3 76 113 114
3 76 114 113
3 83 84 115
3 83 115 84
3 89 90 91
3 89 91 90
3 89 90 97
3 89 97 90
3 89 91 98
3 89 98 91
3 94 99 100
3 94 100 99
3 94 99 106
3 94 106 99
3 94 100 107
3 94 107 100
