COFF
127 464 127

-6.55189 1.09075 6.75937 0.5 0.5 0.5 1
-6.55189 -1.09075 6.75937 0.5 0.5 0.5 1
-0.0235573 -2.15636 6.43853 0.5 0.5 0.5 1
7.46583 -1.1291 6.73041 0.5 0.5 0.5 1
7.46583 1.1291 6.73041 0.5 0.5 0.5 1
-0.0235573 2.15636 6.43853 0.5 0.5 0.5 1
1.1474 -1.74982 6.67493 0.5 0.5 0.5 1
1.1474 1.74982 6.67493 0.5 0.5 0.5 1
-1.16737 1.82142 6.55057 0.5 0.5 0.5 1
-1.16737 -1.82142 6.55057 0.5 0.5 0.5 1
2.02023 -1.38416 6.99928 0.5 0.5 0.5 1
2.02023 1.38416 6.99928 0.5 0.5 0.5 1
-2.08414 1.52898 6.82269 0.5 0.5 0.5 1
-2.08414 -1.52898 6.82269 0.5 0.5 0.5 1
3.05272 -1.32899 6.98317 0.5 0.5 0.5 1
3.05272 1.32899 6.98317 0.5 0.5 0.5 1
-3.05628 1.61 6.6041 0.5 0.5 0.5 1
-3.05628 -1.61 6.6041 0.5 0.5 0.5 1
4.05146 -1.28581 6.98986 0.5 0.5 0.5 1
4.05146 1.28581 6.98986 0.5 0.5 0.5 1
-4.06958 1.60045 6.53028 0.5 0.5 0.5 1
-4.06958 -1.60045 6.53028 0.5 0.5 0.5 1
5.04824 -1.50789 6.63225 0.5 0.5 0.5 1
5.04824 1.50789 6.63225 0.5 0.5 0.5 1
6.11078 -1.44202 6.63932 0.5 0.5 0.5 1
6.11078 1.44202 6.63932 0.5 0.5 0.5 1
-5.1038 1.44105 6.62225 0.5 0.5 0.5 1
-5.1038 -1.44105 6.62225 0.5 0.5 0.5 1
8.59487 -0.000113125 6.74169 0.5 0.5 0.5 1
-7.64337 0.000121883 6.76624 0.5 0.5 0.5 1
-1.94786 -0.943251 4.25727 0.5 0.5 0.5 1
1.29734 -1.71049 5.49242 1 1 0 1
1.29734 1.71049 5.49242 1 1 0 1
-2.17097 1.50668 5.65511 0.5 0.5 0.5 1
-2.17098 -1.50668 5.65512 0.5 0.5 0.5 1
0.0175893 -1.87861 5.07523 0.5 0.5 0.5 1
0.0176358 1.87862 5.07523 0.5 0.5 0.5 1
2.55566 1.34229 5.78912 0.5 0.5 0.5 1
4.09949 -1.30506 6.01425 0.5 0.5 0.5 1
-0.906861 -1.74835 4.52619 0.5 0.5 0.5 1
-0.906851 1.74837 4.52621 0.5 0.5 0.5 1
-1.52018 -0.952767 2.83968 0.5 0.5 0.5 1
-1.52015 0.952785 2.8397 0.5 0.5 0.5 1
1.15749 1.66766 4.29558 0.5 0.5 0.5 1
1.15749 -1.66766 4.29558 0.5 0.5 0.5 1
4.09949 1.30506 6.01425 0.5 0.5 0.5 1
-4.31901 0.659603 3.81755 1 1 0 1
2.4848 3.09695e-09 4.69145 0.5 0.5 0.5 1
1.63392 1.26322 3.87389 0.5 0.5 0.5 1
1.63392 -1.26322 3.87389 0.5 0.5 0.5 1
0.102443 1.76485 3.96974 0.5 0.5 0.5 1
0.102397 -1.76486 3.96974 0.5 0.5 0.5 1
1.92542 -5.144e-09 3.53374 0.5 0.5 0.5 1
5.15711 -0.75088 3.94105 1 1 0 1
5.15711 0.75088 3.94105 1 1 0 1
-2.58237 -1.54744e-06 4.49119 0.5 0.5 0.5 1
-0.679705 -1.56989 3.56415 0.5 0.5 0.5 1
-0.679731 1.56987 3.56413 0.5 0.5 0.5 1
-4.31901 -0.659603 3.81755 1 1 0 1
0.174742 -7.37697e-08 1.0221 1 1 0 1
-5.7692 1.26475 5.99457 0.5 0.5 0.5 1
-5.7692 -1.26475 5.99457 0.5 0.5 0.5 1
1.03505 1.54099 3.26371 0.5 0.5 0.5 1
1.03511 -1.54076 3.26371 0.5 0.5 0.5 1
6.77048 -1.26701 6.09755 0.5 0.5 0.5 1
6.77048 1.26701 6.09755 0.5 0.5 0.5 1
3.17982 3.01907e-09 4.90543 0.5 0.5 0.5 1
2.55566 -1.34229 5.78912 0.5 0.5 0.5 1
1.80189 1.52363 4.89044 0.5 0.5 0.5 1
1.80189 -1.52363 4.89044 0.5 0.5 0.5 1
-1.02401 1.79257 5.53055 0.5 0.5 0.5 1
1.4354 1.08098 2.86306 0.5 0.5 0.5 1
1.4354 -1.08098 2.86306 0.5 0.5 0.5 1
0.214322 1.62118 2.94245 0.5 0.5 0.5 1
0.214255 -1.62118 2.94245 0.5 0.5 0.5 1
1.61397 -4.75925e-07 2.60331 0.5 0.5 0.5 1
4.10515 2.35158e-08 5.88607 0.5 0.5 0.5 1
-0.448667 -1.43678 2.50435 0.5 0.5 0.5 1
-0.448665 1.43678 2.50435 0.5 0.5 0.5 1
-2.93935 1.53679 5.04862 0.5 0.5 0.5 1
-2.93934 -1.53679 5.04862 0.5 0.5 0.5 1
-3.5832 1.60484 5.64843 0.5 0.5 0.5 1
-3.5832 -1.60484 5.64843 0.5 0.5 0.5 1
-1.55727 -0.573211 1.95009 1 1 1 1
-1.55727 0.573211 1.95009 1 1 1 1
0.928182 1.35374 2.29909 1 1 1 1
0.928181 -1.35374 2.29909 1 1 1 1
-5.02202 1.3729 5.51177 0.5 0.5 0.5 1
-5.02202 -1.3729 5.51177 0.5 0.5 0.5 1
7.25893 3.40303e-08 5.7985 0.5 0.5 0.5 1
6.63887 -0.632492 4.77431 0.5 0.5 0.5 1
6.63887 0.632492 4.77431 0.5 0.5 0.5 1
5.90609 -1.34549 5.57982 0.5 0.5 0.5 1
5.90609 1.34549 5.57982 0.5 0.5 0.5 1
-6.24486 6.34074e-09 5.73945 0.5 0.5 0.5 1
-4.18516 1.51252 5.38484 0.5 0.5 0.5 1
-4.18516 -1.51252 5.38484 0.5 0.5 0.5 1
6.49826 -0.979562 5.20294 0.5 0.5 0.5 1
6.49826 0.979562 5.20294 0.5 0.5 0.5 1
-5.64483 0.609018 4.68363 0.5 0.5 0.5 1
-5.64483 -0.609018 4.68363 0.5 0.5 0.5 1
5.14401 -1.38162 5.54582 0.5 0.5 0.5 1
5.14404 1.38182 5.54582 0.5 0.5 0.5 1
-1.02401 -1.79258 5.53055 0.5 0.5 0.5 1
0.193281 1.38042 2.03395 1 1 1 1
0.193278 -1.38042 2.03395 1 1 1 1
-5.52769 0.998145 5.09646 0.5 0.5 0.5 1
-5.52769 -0.998145 5.09646 0.5 0.5 0.5 1
1.24921 0.828901 2.03812 1 1 1 1
1.24921 -0.828901 2.03812 1 1 1 1
-1.94789 0.943227 4.25726 0.5 0.5 0.5 1
4.56295 -1.06356 5.21053 0.5 0.5 0.5 1
4.56295 1.06356 5.21053 0.5 0.5 0.5 1
4.30868 -0.36715 4.77315 0.5 0.5 0.5 1
4.30868 0.36715 4.77315 0.5 0.5 0.5 1
-1.79496 8.15159e-07 2.87011 0.5 0.5 0.5 1
-0.338845 -0.97202 1.7705 1 1 1 1
-0.338845 0.97202 1.7705 1 1 1 1
1.1638 -9.24824e-08 1.80019 1 1 1 1
-3.85978 1.26234 4.70264 0.5 0.5 0.5 1
-3.85979 -1.26233 4.70264 0.5 0.5 0.5 1
-0.789719 -0.301868 1.45845 1 1 1 1
-0.789719 0.301868 1.45845 1 1 1 1
-3.58928 1.1062 4.42038 0.5 0.5 0.5 1
-3.58929 -1.10621 4.42038 0.5 0.5 0.5 1
0.557655 0.689712 1.65673 1 1 1 1
0.557655 -0.689712 1.65673 1 1 1 1

3 0 26 60
3 0 60 26
3 0 29 94
3 0 94 29
3 0 60 94
3 0 94 60
3 1 27 61
3 1 61 27
3 1 29 94
3 1 94 29
3 1 61 94
3 1 94 61
3 2 6 31
3 2 31 6
3 2 9 103
3 2 103 9
3 2 31 35
3 2 35 31
3 2 35 103
3 2 103 35
3 3 24 64
3 3 64 24
3 3 28 89
3 3 89 28
3 3 64 89
3 3 89 64
3 4 25 65
3 4 65 25
3 4 28 89
3 4 89 28
3 4 65 89
3 4 89 65
3 5 7 32
3 5 32 7
3 5 8 70
3 5 70 8
3 5 32 36
3 5 36 32
3 5 36 70
3 5 70 36
3 6 10 67
3 6 67 10
3 6 31 67
3 6 67 31
3 7 11 37
3 7 37 11
3 7 32 37
3 7 37 32
3 8 12 33
3 8 33 12
3 8 33 70
3 8 70 33
3 9 13 34
3 9 34 13
3 9 34 103
3 9 103 34
3 10 14 67
3 10 67 14
3 11 15 37
3 11 37 15
3 12 16 33
3 12 33 16
3 13 17 34
3 13 34 17
3 14 18 38
3 14 38 18
3 14 38 67
3 14 67 38
3 15 19 45
3 15 45 19
3 15 37 45
3 15 45 37
3 16 20 81
3 16 81 20
3 16 33 79
3 16 79 33
3 16 79 81
3 16 81 79
3 17 21 82
3 17 82 21
3 17 34 80
3 17 80 34
3 17 80 82
3 17 82 80
3 18 22 38
3 18 38 22
3 19 23 45
3 19 45 23
3 20 26 87
3 20 87 26
3 20 81 95
3 20 95 81
3 20 87 95
3 20 95 87
3 21 27 88
3 21 88 27
3 21 82 96
3 21 96 82
3 21 88 96
3 21 96 88
3 22 24 92
3 22 92 24
3 22 38 101
3 22 101 38
3 22 92 101
3 22 101 92
3 23 25 93
3 23 93 25
3 23 45 102
3 23 102 45
3 23 93 102
3 23 102 93
3 24 64 92
3 24 92 64
3 25 65 93
3 25 93 65
3 26 60 87
3 26 87 60
3 27 61 88
3 27 88 61
3 30 34 39
3 30 39 34
3 30 34 55
3 30 55 34
3 30 39 56
3 30 56 39
3 30 41 56
3 30 56 41
3 30 41 115
3 30 115 41
3 30 55 110
3 30 110 55
3 30 110 115
3 30 115 110
3 31 35 44
3 31 44 35
3 31 44 69
3 31 69 44
3 31 67 69
3 31 69 67
3 32 36 43
3 32 43 36
3 32 37 68
3 32 68 37
3 32 43 68
3 32 68 43
3 33 40 70
3 33 70 40
3 33 40 110
3 33 110 40
3 33 55 79
3 33 79 55
3 33 55 110
3 33 110 55
3 34 39 103
3 34 103 39
3 34 55 80
3 34 80 55
3 35 39 51
3 35 51 39
3 35 39 103
3 35 103 39
3 35 44 51
3 35 51 44
3 36 40 50
3 36 50 40
3 36 40 70
3 36 70 40
3 36 43 50
3 36 50 43
3 37 45 66
3 37 66 45
3 37 47 66
3 37 66 47
3 37 47 68
3 37 68 47
3 38 66 67
3 38 67 66
3 38 66 76
3 38 76 66
3 38 76 111
3 38 111 76
3 38 101 111
3 38 111 101
3 39 51 56
3 39 56 51
3 40 50 57
3 40 57 50
3 40 57 110
3 40 110 57
3 41 56 77
3 41 77 56
3 41 77 116
3 41 116 77
3 41 83 115
3 41 115 83
3 41 83 116
3 41 116 83
3 42 57 78
3 42 78 57
3 42 57 110
3 42 110 57
3 42 78 117
3 42 117 78
3 42 84 115
3 42 115 84
3 42 84 117
3 42 117 84
3 42 110 115
3 42 115 110
3 43 48 62
3 43 62 48
3 43 48 68
3 43 68 48
3 43 50 62
3 43 62 50
3 44 49 63
3 44 63 49
3 44 49 69
3 44 69 49
3 44 51 63
3 44 63 51
3 45 66 76
3 45 76 66
3 45 76 112
3 45 112 76
3 45 102 112
3 45 112 102
3 46 55 58
3 46 58 55
3 46 55 79
3 46 79 55
3 46 55 123
3 46 123 55
3 46 58 100
3 46 100 58
3 46 79 119
3 46 119 79
3 46 87 95
3 46 95 87
3 46 87 106
3 46 106 87
3 46 95 119
3 46 119 95
3 46 99 100
3 46 100 99
3 46 99 106
3 46 106 99
3 46 119 123
3 46 123 119
3 47 48 52
3 47 52 48
3 47 48 68
3 47 68 48
3 47 49 52
3 47 52 49
3 47 49 69
3 47 69 49
3 47 66 67
3 47 67 66
3 47 67 69
3 47 69 67
3 48 52 71
3 48 71 52
3 48 62 71
3 48 71 62
3 49 52 72
3 49 72 52
3 49 63 72
3 49 72 63
3 50 57 73
3 50 73 57
3 50 62 73
3 50 73 62
3 51 56 74
3 51 74 56
3 51 63 74
3 51 74 63
3 52 71 75
3 52 75 71
3 52 72 75
3 52 75 72
3 53 54 91
3 53 91 54
3 53 54 114
3 53 114 54
3 53 76 111
3 53 111 76
3 53 76 113
3 53 113 76
3 53 90 91
3 53 91 90
3 53 90 97
3 53 97 90
3 53 92 97
3 53 97 92
3 53 92 101
3 53 101 92
3 53 101 111
3 53 111 101
3 53 113 114
3 53 114 113
3 54 76 112
3 54 112 76
3 54 76 114
3 54 114 76
3 54 91 98
3 54 98 91
3 54 93 98
3 54 98 93
3 54 93 102
3 54 102 93
3 54 102 112
3 54 112 102
3 55 58 120
3 55 120 58
3 55 58 124
3 55 124 58
3 55 79 123
3 55 123 79
3 55 80 120
3 55 120 80
3 55 80 124
3 55 124 80
3 56 74 77
3 56 77 74
3 57 73 78
3 57 78 73
3 58 88 96
3 58 96 88
3 58 88 107
3 58 107 88
3 58 96 120
3 58 120 96
3 58 100 107
3 58 107 100
3 58 120 124
3 58 124 120
3 59 75 108
3 59 108 75
3 59 75 109
3 59 109 75
3 59 83 116
3 59 116 83
3 59 83 121
3 59 121 83
3 59 84 117
3 59 117 84
3 59 84 122
3 59 122 84
3 59 85 104
3 59 104 85
3 59 85 108
3 59 108 85
3 59 86 105
3 59 105 86
3 59 86 109
3 59 109 86
3 59 104 117
3 59 117 104
3 59 104 125
3 59 125 104
3 59 105 116
3 59 116 105
3 59 105 126
3 59 126 105
3 59 108 118
3 59 118 108
3 59 108 125
3 59 125 108
3 59 109 118
3 59 118 109
3 59 109 126
3 59 126 109
3 59 121 122
3 59 122 121
3 60 87 106
3 60 106 87
3 60 94 106
3 60 106 94
3 61 88 107
3 61 107 88
3 61 94 107
3 61 107 94
3 62 71 85
3 62 85 71
3 62 73 85
3 62 85 73
3 63 72 86
3 63 86 72
3 63 74 86
3 63 86 74
3 64 89 97
3 64 97 89
3 64 92 97
3 64 97 92
3 65 89 98
3 65 98 89
3 65 93 98
3 65 98 93
3 71 75 108
3 71 108 75
3 71 85 108
3 71 108 85
3 72 75 109
3 72 109 75
3 72 86 109
3 72 109 86
3 73 78 104
3 73 104 78
3 73 85 104
3 73 104 85
3 74 77 105
3 74 105 77
3 74 86 105
3 74 105 86
3 75 108 118
3 75 118 108
3 75 109 118
3 75 118 109
3 76 113 114
3 76 114 113
3 77 105 116
3 77 116 105
3 78 104 117
3 78 117 104
3 79 81 119
3 79 119 81
3 79 119 123
3 79 123 119
3 80 82 120
3 80 120 82
3 80 120 124
3 80 124 120
3 81 95 119
3 81 119 95
3 82 96 120
3 82 120 96
3 83 84 115
3 83 115 84
3 83 84 122
3 83 122 84
3 83 121 122
3 83 122 121
3 85 104 125
3 85 125 104
3 85 108 125
3 85 125 108
3 86 105 126
3 86 126 105
3 86 109 126
3 86 126 109
3 89 90 91
3 89 91 90
3 89 90 97
3 89 97 90
3 89 91 98
3 89 98 91
3 94 99 100
3 94 100 99
3 94 99 106
3 94 106 99
3 94 100 107
3 94 107 100
