COFF
157 612 157

-6.61333 1.1993 7.43834 0.5 0.5 0.5 1
-6.61333 -1.1993 7.43834 0.5 0.5 0.5 1
-0.0212331 -2.3117 7.07445 0.5 0.5 0.5 1
7.52444 -1.23379 7.41284 0.5 0.5 0.5 1
7.52444 1.23379 7.41284 0.5 0.5 0.5 1
-0.0212331 2.3117 7.07445 0.5 0.5 0.5 1
1.21122 -1.91123 7.3001 0.5 0.5 0.5 1
1.21122 1.91123 7.3001 0.5 0.5 0.5 1
-1.19084 1.9343 7.22819 0.5 0.5 0.5 1
-1.19084 -1.9343 7.22819 0.5 0.5 0.5 1
2.04646 -1.49142 7.69952 0.5 0.5 0.5 1
2.04646 1.49142 7.69952 0.5 0.5 0.5 1
-2.10032 1.63606 7.51804 0.5 0.5 0.5 1
-2.10032 -1.63606 7.51804 0.5 0.5 0.5 1
3.04996 -1.44559 7.67556 0.5 0.5 0.5 1
3.04996 1.44559 7.67556 0.5 0.5 0.5 1
-3.0543 1.75986 7.24601 0.5 0.5 0.5 1
-3.0543 -1.75986 7.24601 0.5 0.5 0.5 1
4.04843 -1.39756 7.68585 0.5 0.5 0.5 1
4.04843 1.39756 7.68585 0.5 0.5 0.5 1
-4.08333 1.76551 7.15403 0.5 0.5 0.5 1
-4.08333 -1.76551 7.15403 0.5 0.5 0.5 1
5.03512 -1.66002 7.27287 0.5 0.5 0.5 1
5.03512 1.66002 7.27287 0.5 0.5 0.5 1
6.1314 -1.57655 7.29836 0.5 0.5 0.5 1
6.1314 1.57655 7.29836 0.5 0.5 0.5 1
-5.1324 1.57826 7.27734 0.5 0.5 0.5 1
-5.1324 -1.57826 7.27734 0.5 0.5 0.5 1
8.75906 0.000103824 7.43615 0.5 0.5 0.5 1
-7.81384 0.000107075 7.45668 0.5 0.5 0.5 1
-1.95078 -0.976737 4.82792 0.5 0.5 0.5 1
1.21002 -1.74632 5.49242 1 1 0 1
1.21002 1.74632 5.49242 1 1 0 1
-2.17091 1.64743 6.31682 0.5 0.5 0.5 1
-2.17091 -1.64743 6.31682 0.5 0.5 0.5 1
0.0145792 -1.98289 5.62526 0.5 0.5 0.5 1
0.014579 1.98283 5.62525 0.5 0.5 0.5 1
2.59473 1.46385 6.41025 0.5 0.5 0.5 1
4.10565 -1.42043 6.62987 0.5 0.5 0.5 1
-0.880513 -1.85744 5.1381 0.5 0.5 0.5 1
-0.88051 1.85743 5.1381 0.5 0.5 0.5 1
-1.54102 -0.882536 3.37059 0.5 0.5 0.5 1
-1.54103 0.882524 3.37057 0.5 0.5 0.5 1
1.1032 1.75246 4.75554 0.5 0.5 0.5 1
1.10324 -1.75237 4.75554 0.5 0.5 0.5 1
4.10565 1.42043 6.62987 0.5 0.5 0.5 1
-4.32238 0.66019 3.81755 1 1 0 1
2.54614 7.92569e-08 5.28525 0.5 0.5 0.5 1
1.5891 1.33894 4.41916 0.5 0.5 0.5 1
1.5891 -1.33894 4.41916 0.5 0.5 0.5 1
0.145441 1.85431 4.51258 0.5 0.5 0.5 1
0.145399 -1.85437 4.51258 0.5 0.5 0.5 1
1.91527 1.25504e-06 4.06178 0.5 0.5 0.5 1
5.22416 -0.750971 3.94105 1 1 0 1
5.22416 0.750971 3.94105 1 1 0 1
-2.52328 2.74093e-08 5.12203 0.5 0.5 0.5 1
-0.750632 -1.62387 4.03229 0.5 0.5 0.5 1
-0.750633 1.62385 4.0323 0.5 0.5 0.5 1
-4.32238 -0.66019 3.81755 1 1 0 1
0.18213 3.65944e-08 1.0221 1 1 0 1
-5.80947 1.37551 6.64738 0.5 0.5 0.5 1
-5.80947 -1.37551 6.64738 0.5 0.5 0.5 1
1.00474 1.6298 3.81777 0.5 0.5 0.5 1
1.00467 -1.62989 3.81777 0.5 0.5 0.5 1
6.8147 -1.37543 6.77623 0.5 0.5 0.5 1
6.8147 1.37543 6.77623 0.5 0.5 0.5 1
3.1676 -2.70514e-08 5.48264 0.5 0.5 0.5 1
2.59473 -1.46385 6.41025 0.5 0.5 0.5 1
1.67835 1.61084 5.45569 0.5 0.5 0.5 1
1.67835 -1.61084 5.45568 0.5 0.5 0.5 1
-1.0263 1.9096 6.12632 0.5 0.5 0.5 1
1.40844 1.14779 3.38474 0.5 0.5 0.5 1
1.40842 -1.14782 3.38474 0.5 0.5 0.5 1
0.203969 1.6984 3.44335 0.5 0.5 0.5 1
0.20386 -1.6986 3.44335 0.5 0.5 0.5 1
1.59335 1.4234e-06 3.06009 1 1 1 1
4.10673 3.18684e-09 6.44881 0.5 0.5 0.5 1
-0.542506 -1.44444 2.93851 1 1 1 1
-0.542497 1.44442 2.93851 1 1 1 1
-2.93429 1.69795 5.70134 0.5 0.5 0.5 1
-2.93429 -1.69795 5.70134 0.5 0.5 0.5 1
-3.59298 1.76248 6.22125 0.5 0.5 0.5 1
-3.59298 -1.76248 6.22125 0.5 0.5 0.5 1
-1.75517 -0.459259 2.48008 1 1 1 1
-1.75513 0.459244 2.48009 1 1 1 1
0.896717 1.47187 2.80308 1 1 1 1
0.89668 -1.47197 2.80308 1 1 1 1
-5.11846 1.51726 6.09393 0.5 0.5 0.5 1
-5.11846 -1.51726 6.09393 0.5 0.5 0.5 1
7.4122 -1.02053e-07 6.4019 0.5 0.5 0.5 1
6.87695 -0.720253 5.29216 0.5 0.5 0.5 1
6.87695 0.720253 5.29216 0.5 0.5 0.5 1
6.01793 -1.48348 6.16443 0.5 0.5 0.5 1
6.01793 1.48348 6.16443 0.5 0.5 0.5 1
-6.43602 -2.3534e-07 6.33509 0.5 0.5 0.5 1
-4.19969 1.68464 5.88498 0.5 0.5 0.5 1
-4.19972 -1.6845 5.88498 0.5 0.5 0.5 1
6.60948 -1.0973 5.74765 0.5 0.5 0.5 1
6.60948 1.0972 5.74765 0.5 0.5 0.5 1
-5.91482 0.731708 5.19843 0.5 0.5 0.5 1
-5.91482 -0.73171 5.19843 0.5 0.5 0.5 1
5.17825 -1.51567 6.04126 0.5 0.5 0.5 1
5.17825 1.51569 6.04126 0.5 0.5 0.5 1
-1.0263 -1.9096 6.12632 0.5 0.5 0.5 1
0.23868 1.5292 2.45826 1 1 1 1
0.238663 -1.52937 2.45825 1 1 1 1
-5.65327 1.11915 5.61936 0.5 0.5 0.5 1
-5.65327 -1.11911 5.61936 0.5 0.5 0.5 1
1.25202 0.979964 2.46155 1 1 1 1
1.25201 -0.979976 2.46155 1 1 1 1
-1.95077 0.97674 4.82792 0.5 0.5 0.5 1
4.5666 -1.1209 5.79912 0.5 0.5 0.5 1
4.56658 1.12092 5.79912 0.5 0.5 0.5 1
4.18613 -0.368743 4.95418 0.5 0.5 0.5 1
4.18613 0.368741 4.95419 0.5 0.5 0.5 1
-1.98764 -6.84878e-07 3.44674 0.5 0.5 0.5 1
-0.710477 -1.1524 2.23708 1 1 1 1
-0.710466 1.1524 2.23709 1 1 1 1
1.37863 -3.55014e-05 2.22562 1 1 1 1
-3.67809 1.58827 5.00724 0.5 0.5 0.5 1
-3.67809 -1.58827 5.00724 0.5 0.5 0.5 1
-1.42616 -0.385554 1.55813 1 1 1 1
-1.42616 0.385555 1.55813 1 1 1 1
-3.25104 1.32037 4.81245 0.5 0.5 0.5 1
-3.25104 -1.32038 4.81245 0.5 0.5 0.5 1
0.777815 1.225 1.95161 1 1 1 1
0.7778 -1.22501 1.95162 1 1 1 1
-4.98885 1.39211 5.1279 0.5 0.5 0.5 1
-4.98885 -1.39212 5.1279 0.5 0.5 0.5 1
-2.86121 0.324113 4.26096 0.5 0.5 0.5 1
-2.86121 -0.324113 4.26096 0.5 0.5 0.5 1
5.82605 -1.33625 5.20581 0.5 0.5 0.5 1
5.82604 1.33625 5.2058 0.5 0.5 0.5 1
6.20629 -1.25027 5.00771 0.5 0.5 0.5 1
6.20629 1.25027 5.00771 0.5 0.5 0.5 1
-4.23761 1.51141 4.93993 0.5 0.5 0.5 1
-4.23761 -1.51141 4.93993 0.5 0.5 0.5 1
-5.34814 1.21791 4.79656 0.5 0.5 0.5 1
-5.34814 -1.21791 4.79656 0.5 0.5 0.5 1
5.21433 -1.27775 5.07269 0.5 0.5 0.5 1
5.21432 1.27773 5.07268 0.5 0.5 0.5 1
-2.28393 0.945861 5.56362 0.5 0.5 0.5 1
-2.28393 -0.945861 5.56362 0.5 0.5 0.5 1
3.63623 -0.797183 6.08289 0.5 0.5 0.5 1
3.63623 0.797182 6.08289 0.5 0.5 0.5 1
6.30376 -0.729669 4.52324 0.5 0.5 0.5 1
6.30376 0.729669 4.52324 0.5 0.5 0.5 1
0.154269 0.978934 1.70658 1 1 1 1
0.154262 -0.978932 1.70658 1 1 1 1
0.574271 -2.06401 6.32886 0.5 0.5 0.5 1
0.574271 2.06401 6.32886 0.5 0.5 0.5 1
-5.18715 0.688233 4.44568 0.5 0.5 0.5 1
-5.18715 -0.688234 4.44568 0.5 0.5 0.5 1
0.849183 0.516776 1.73022 1 1 1 1
0.849179 -0.516779 1.73022 1 1 1 1
4.8859 -0.932483 4.87005 0.5 0.5 0.5 1
4.88592 0.932466 4.87005 0.5 0.5 0.5 1

3 0 26 60
3 0 60 26
3 0 29 94
3 0 94 29
3 0 60 94
3 0 94 60
3 1 27 61
3 1 61 27
3 1 29 94
3 1 94 29
3 1 61 94
3 1 94 61
3 2 6 31
3 2 31 6
3 2 6 149
3 2 149 6
3 2 9 103
3 2 103 9
3 2 31 35
3 2 35 31
3 2 35 103
3 2 103 35
3 2 35 149
3 2 149 35
3 3 24 64
3 3 64 24
3 3 28 89
3 3 89 28
3 3 64 89
3 3 89 64
3 4 25 65
3 4 65 25
3 4 28 89
3 4 89 28
3 4 65 89
3 4 89 65
3 5 7 32
3 5 32 7
3 5 7 150
3 5 150 7
3 5 8 70
3 5 70 8
3 5 32 36
3 5 36 32
3 5 36 70
3 5 70 36
3 5 36 150
3 5 150 36
3 6 10 67
3 6 67 10
3 6 31 67
3 6 67 31
3 6 31 149
3 6 149 31
3 7 11 37
3 7 37 11
3 7 32 37
3 7 37 32
3 7 32 150
3 7 150 32
3 8 12 33
3 8 33 12
3 8 33 70
3 8 70 33
3 9 13 34
3 9 34 13
3 9 34 103
3 9 103 34
3 10 14 67
3 10 67 14
3 11 15 37
3 11 37 15
3 12 16 33
3 12 33 16
3 13 17 34
3 13 34 17
3 14 18 38
3 14 38 18
3 14 38 67
3 14 67 38
3 15 19 45
3 15 45 19
3 15 37 45
3 15 45 37
3 16 20 81
3 16 81 20
3 16 33 79
3 16 79 33
3 16 79 81
3 16 81 79
3 17 21 82
3 17 82 21
3 17 34 80
3 17 80 34
3 17 80 82
3 17 82 80
3 18 22 38
3 18 38 22
3 19 23 45
3 19 45 23
3 20 26 87
3 20 87 26
3 20 81 95
3 20 95 81
3 20 87 95
3 20 95 87
3 21 27 88
3 21 88 27
3 21 82 96
3 21 96 82
3 21 88 96
3 21 96 88
3 22 24 92
3 22 92 24
3 22 38 101
3 22 101 38
3 22 92 101
3 22 101 92
3 23 25 93
3 23 93 25
3 23 45 102
3 23 102 45
3 23 93 102
3 23 102 93
3 24 64 92
3 24 92 64
3 25 65 93
3 25 93 65
3 26 60 87
3 26 87 60
3 27 61 88
3 27 88 61
3 30 34 39
3 30 39 34
3 30 34 80
3 30 80 34
3 30 34 142
3 30 142 34
3 30 39 56
3 30 56 39
3 30 41 56
3 30 56 41
3 30 41 115
3 30 115 41
3 30 55 80
3 30 80 55
3 30 55 110
3 30 110 55
3 30 55 142
3 30 142 55
3 30 110 115
3 30 115 110
3 31 35 44
3 31 44 35
3 31 35 149
3 31 149 35
3 31 44 69
3 31 69 44
3 31 67 69
3 31 69 67
3 32 36 43
3 32 43 36
3 32 36 150
3 32 150 36
3 32 37 68
3 32 68 37
3 32 43 68
3 32 68 43
3 33 40 70
3 33 70 40
3 33 40 110
3 33 110 40
3 33 55 79
3 33 79 55
3 33 55 110
3 33 110 55
3 33 79 141
3 33 141 79
3 33 110 141
3 33 141 110
3 34 39 103
3 34 103 39
3 34 80 142
3 34 142 80
3 35 39 51
3 35 51 39
3 35 39 103
3 35 103 39
3 35 44 51
3 35 51 44
3 36 40 50
3 36 50 40
3 36 40 70
3 36 70 40
3 36 43 50
3 36 50 43
3 37 45 76
3 37 76 45
3 37 45 144
3 37 144 45
3 37 47 66
3 37 66 47
3 37 47 68
3 37 68 47
3 37 66 76
3 37 76 66
3 37 66 144
3 37 144 66
3 38 66 67
3 38 67 66
3 38 66 76
3 38 76 66
3 38 67 143
3 38 143 67
3 38 76 111
3 38 111 76
3 38 76 143
3 38 143 76
3 38 101 111
3 38 111 101
3 39 51 56
3 39 56 51
3 40 50 57
3 40 57 50
3 40 57 110
3 40 110 57
3 41 56 77
3 41 77 56
3 41 77 116
3 41 116 77
3 41 83 115
3 41 115 83
3 41 83 116
3 41 116 83
3 42 57 78
3 42 78 57
3 42 57 110
3 42 110 57
3 42 78 117
3 42 117 78
3 42 84 115
3 42 115 84
3 42 84 117
3 42 117 84
3 42 110 115
3 42 115 110
3 43 48 62
3 43 62 48
3 43 48 68
3 43 68 48
3 43 50 62
3 43 62 50
3 44 49 63
3 44 63 49
3 44 49 69
3 44 69 49
3 44 51 63
3 44 63 51
3 45 76 112
3 45 112 76
3 45 76 144
3 45 144 76
3 45 102 112
3 45 112 102
3 46 55 123
3 46 123 55
3 46 55 129
3 46 129 55
3 46 58 130
3 46 130 58
3 46 58 152
3 46 152 58
3 46 95 119
3 46 119 95
3 46 95 127
3 46 127 95
3 46 99 137
3 46 137 99
3 46 99 151
3 46 151 99
3 46 119 123
3 46 123 119
3 46 119 135
3 46 135 119
3 46 127 135
3 46 135 127
3 46 127 137
3 46 137 127
3 46 129 130
3 46 130 129
3 46 151 152
3 46 152 151
3 47 48 52
3 47 52 48
3 47 48 68
3 47 68 48
3 47 49 52
3 47 52 49
3 47 49 69
3 47 69 49
3 47 66 67
3 47 67 66
3 47 67 69
3 47 69 67
3 48 52 71
3 48 71 52
3 48 62 71
3 48 71 62
3 49 52 72
3 49 72 52
3 49 63 72
3 49 72 63
3 50 57 73
3 50 73 57
3 50 62 73
3 50 73 62
3 51 56 74
3 51 74 56
3 51 63 74
3 51 74 63
3 52 71 75
3 52 75 71
3 52 72 75
3 52 75 72
3 53 54 114
3 53 114 54
3 53 54 146
3 53 146 54
3 53 90 133
3 53 133 90
3 53 90 145
3 53 145 90
3 53 113 114
3 53 114 113
3 53 113 155
3 53 155 113
3 53 131 133
3 53 133 131
3 53 131 139
3 53 139 131
3 53 139 155
3 53 155 139
3 53 145 146
3 53 146 145
3 54 91 134
3 54 134 91
3 54 91 146
3 54 146 91
3 54 114 156
3 54 156 114
3 54 132 134
3 54 134 132
3 54 132 140
3 54 140 132
3 54 140 156
3 54 156 140
3 55 58 124
3 55 124 58
3 55 58 130
3 55 130 58
3 55 79 123
3 55 123 79
3 55 79 141
3 55 141 79
3 55 80 124
3 55 124 80
3 55 80 142
3 55 142 80
3 55 110 141
3 55 141 110
3 55 129 130
3 55 130 129
3 56 74 77
3 56 77 74
3 57 73 78
3 57 78 73
3 58 96 120
3 58 120 96
3 58 96 128
3 58 128 96
3 58 100 138
3 58 138 100
3 58 100 152
3 58 152 100
3 58 120 124
3 58 124 120
3 58 120 136
3 58 136 120
3 58 128 136
3 58 136 128
3 58 128 138
3 58 138 128
3 59 83 116
3 59 116 83
3 59 83 121
3 59 121 83
3 59 84 117
3 59 117 84
3 59 84 122
3 59 122 84
3 59 104 117
3 59 117 104
3 59 104 125
3 59 125 104
3 59 105 116
3 59 116 105
3 59 105 126
3 59 126 105
3 59 108 118
3 59 118 108
3 59 108 125
3 59 125 108
3 59 109 118
3 59 118 109
3 59 109 126
3 59 126 109
3 59 116 148
3 59 148 116
3 59 117 147
3 59 147 117
3 59 118 153
3 59 153 118
3 59 118 154
3 59 154 118
3 59 121 122
3 59 122 121
3 59 125 147
3 59 147 125
3 59 125 153
3 59 153 125
3 59 126 148
3 59 148 126
3 59 126 154
3 59 154 126
3 60 87 106
3 60 106 87
3 60 94 106
3 60 106 94
3 61 88 107
3 61 107 88
3 61 94 107
3 61 107 94
3 62 71 85
3 62 85 71
3 62 73 85
3 62 85 73
3 63 72 86
3 63 86 72
3 63 74 86
3 63 86 74
3 64 89 97
3 64 97 89
3 64 92 97
3 64 97 92
3 65 89 98
3 65 98 89
3 65 93 98
3 65 98 93
3 66 67 143
3 66 143 67
3 66 76 143
3 66 143 76
3 66 76 144
3 66 144 76
3 71 75 108
3 71 108 75
3 71 85 108
3 71 108 85
3 72 75 109
3 72 109 75
3 72 86 109
3 72 109 86
3 73 78 104
3 73 104 78
3 73 85 104
3 73 104 85
3 74 77 105
3 74 105 77
3 74 86 105
3 74 105 86
3 75 108 118
3 75 118 108
3 75 109 118
3 75 118 109
3 76 111 155
3 76 155 111
3 76 112 156
3 76 156 112
3 76 113 114
3 76 114 113
3 76 113 155
3 76 155 113
3 76 114 156
3 76 156 114
3 77 105 116
3 77 116 105
3 78 104 117
3 78 117 104
3 79 81 119
3 79 119 81
3 79 119 123
3 79 123 119
3 80 82 120
3 80 120 82
3 80 120 124
3 80 124 120
3 81 95 119
3 81 119 95
3 82 96 120
3 82 120 96
3 83 84 115
3 83 115 84
3 83 84 122
3 83 122 84
3 83 121 122
3 83 122 121
3 85 104 125
3 85 125 104
3 85 108 125
3 85 125 108
3 86 105 126
3 86 126 105
3 86 109 126
3 86 126 109
3 87 95 127
3 87 127 95
3 87 106 127
3 87 127 106
3 88 96 128
3 88 128 96
3 88 107 128
3 88 128 107
3 89 90 91
3 89 91 90
3 89 90 97
3 89 97 90
3 89 91 98
3 89 98 91
3 90 91 146
3 90 146 91
3 90 97 133
3 90 133 97
3 90 145 146
3 90 146 145
3 91 98 134
3 91 134 98
3 92 97 131
3 92 131 97
3 92 101 131
3 92 131 101
3 93 98 132
3 93 132 98
3 93 102 132
3 93 132 102
3 94 99 100
3 94 100 99
3 94 99 106
3 94 106 99
3 94 100 107
3 94 107 100
3 95 119 135
3 95 135 119
3 95 127 135
3 95 135 127
3 96 120 136
3 96 136 120
3 96 128 136
3 96 136 128
3 97 131 133
3 97 133 131
3 98 132 134
3 98 134 132
3 99 100 152
3 99 152 100
3 99 106 137
3 99 137 106
3 99 151 152
3 99 152 151
3 100 107 138
3 100 138 107
3 101 111 139
3 101 139 111
3 101 131 139
3 101 139 131
3 102 112 140
3 102 140 112
3 102 132 140
3 102 140 132
3 104 117 147
3 104 147 117
3 104 125 147
3 104 147 125
3 105 116 148
3 105 148 116
3 105 126 148
3 105 148 126
3 106 127 137
3 106 137 127
3 107 128 138
3 107 138 128
3 108 118 153
3 108 153 118
3 108 125 153
3 108 153 125
3 109 118 154
3 109 154 118
3 109 126 154
3 109 154 126
3 111 139 155
3 111 155 139
3 112 140 156
3 112 156 140
