COFF
162 628 162

-6.64102 1.24773 7.78209 0.5 0.5 0.5 1
-6.64102 -1.24773 7.78209 0.5 0.5 0.5 1
-0.0217268 -2.38699 7.39165 0.5 0.5 0.5 1
7.55129 -1.28121 7.75731 0.5 0.5 0.5 1
7.55129 1.28121 7.75731 0.5 0.5 0.5 1
-0.0217268 2.38699 7.39165 0.5 0.5 0.5 1
1.24838 -2.00058 7.59907 0.5 0.5 0.5 1
1.24838 2.00058 7.59907 0.5 0.5 0.5 1
-1.20408 1.99136 7.56374 0.5 0.5 0.5 1
-1.20408 -1.99136 7.56374 0.5 0.5 0.5 1
2.05544 -1.55556 8.03669 0.5 0.5 0.5 1
2.05544 1.55556 8.03669 0.5 0.5 0.5 1
-2.10748 1.68717 7.86616 0.5 0.5 0.5 1
-2.10748 -1.68717 7.86616 0.5 0.5 0.5 1
3.05306 -1.51025 8.01266 0.5 0.5 0.5 1
3.05306 1.51025 8.01266 0.5 0.5 0.5 1
-3.05206 1.8282 7.57069 0.5 0.5 0.5 1
-3.05206 -1.8282 7.57069 0.5 0.5 0.5 1
4.05072 -1.45382 8.0311 0.5 0.5 0.5 1
4.05072 1.45382 8.0311 0.5 0.5 0.5 1
-4.08963 1.83751 7.47338 0.5 0.5 0.5 1
-4.08963 -1.83751 7.47338 0.5 0.5 0.5 1
5.02861 -1.72946 7.59691 0.5 0.5 0.5 1
5.02861 1.72946 7.59691 0.5 0.5 0.5 1
6.14109 -1.6356 7.63359 0.5 0.5 0.5 1
6.14109 1.6356 7.63359 0.5 0.5 0.5 1
-5.14556 1.63759 7.61162 0.5 0.5 0.5 1
-5.14556 -1.63759 7.61162 0.5 0.5 0.5 1
8.83262 4.54315e-09 7.78579 0.5 0.5 0.5 1
-7.88906 -4.43953e-09 7.80543 0.5 0.5 0.5 1
-1.98563 -1.05573 5.09513 0.5 0.5 0.5 1
1.22718 -1.7835 5.49242 1 1 0 1
1.22719 1.7835 5.49242 1 1 0 1
-2.19392 1.72359 6.61119 0.5 0.5 0.5 1
-2.19392 -1.72359 6.6112 0.5 0.5 0.5 1
-0.0688676 -2.08111 5.88794 0.5 0.5 0.5 1
-0.0688473 2.08108 5.88794 0.5 0.5 0.5 1
2.58695 1.5417 6.69996 0.5 0.5 0.5 1
4.11219 -1.48778 6.94108 0.5 0.5 0.5 1
-0.904959 -1.92481 5.43325 0.5 0.5 0.5 1
-0.904952 1.9248 5.43326 0.5 0.5 0.5 1
-1.56521 -0.882411 3.63129 0.5 0.5 0.5 1
-1.56522 0.882397 3.63129 0.5 0.5 0.5 1
1.12899 1.77993 4.76561 0.5 0.5 0.5 1
1.12902 -1.77994 4.7656 0.5 0.5 0.5 1
4.11219 1.48778 6.94108 0.5 0.5 0.5 1
-4.31049 0.660447 3.81755 1 1 0 1
2.5767 -5.14251e-08 5.55965 0.5 0.5 0.5 1
1.61126 1.37389 4.63335 0.5 0.5 0.5 1
1.61127 -1.3739 4.63335 0.5 0.5 0.5 1
0.111906 1.92243 4.75967 0.5 0.5 0.5 1
0.111832 -1.92265 4.75967 0.5 0.5 0.5 1
1.93407 -2.10009e-06 4.31673 0.5 0.5 0.5 1
5.25814 -0.751013 3.94105 1 1 0 1
5.25814 0.751015 3.94105 1 1 0 1
-2.5816 1.37925e-05 5.3473 0.5 0.5 0.5 1
-0.779924 -1.68588 4.29408 0.5 0.5 0.5 1
-0.779958 1.68584 4.29409 0.5 0.5 0.5 1
-4.31049 -0.660447 3.81755 1 1 0 1
0.160736 -5.64784e-07 1.0221 1 1 0 1
-5.82635 1.42532 6.97225 0.5 0.5 0.5 1
-5.82635 -1.42532 6.97225 0.5 0.5 0.5 1
1.02714 1.66998 4.02541 0.5 0.5 0.5 1
1.02716 -1.66998 4.02541 0.5 0.5 0.5 1
6.82916 -1.42441 7.11537 0.5 0.5 0.5 1
6.82916 1.42441 7.11537 0.5 0.5 0.5 1
3.1467 5.84284e-07 5.74244 0.5 0.5 0.5 1
2.58695 -1.5417 6.69996 0.5 0.5 0.5 1
1.93847 1.56005 5.59778 0.5 0.5 0.5 1
1.93848 -1.56005 5.59779 0.5 0.5 0.5 1
-1.04678 1.97325 6.41979 0.5 0.5 0.5 1
1.4212 1.1852 3.62978 1 1 1 1
1.42121 -1.18519 3.62978 1 1 1 1
0.193413 1.75484 3.69092 1 1 1 1
0.193451 -1.75495 3.69091 1 1 1 1
1.60922 -2.10018e-06 3.2894 1 1 1 1
4.13729 5.9065e-07 6.65428 0.5 0.5 0.5 1
-0.596347 -1.46975 3.16126 1 1 1 1
-0.596352 1.46974 3.16127 1 1 1 1
-3.00601 1.79521 6.05176 0.5 0.5 0.5 1
-3.00598 -1.79522 6.05176 0.5 0.5 0.5 1
-3.5957 1.83277 6.50666 0.5 0.5 0.5 1
-3.5957 -1.83277 6.50666 0.5 0.5 0.5 1
-1.78573 -0.456577 2.74162 1 1 1 1
-1.78586 0.456573 2.74161 1 1 1 1
0.91107 1.51665 3.052 1 1 1 1
0.911065 -1.51669 3.052 1 1 1 1
-5.14635 1.58147 6.4086 0.5 0.5 0.5 1
-5.14635 -1.58147 6.4086 0.5 0.5 0.5 1
7.45634 -2.29702e-08 6.71666 0.5 0.5 0.5 1
6.93542 -0.712963 5.59901 0.5 0.5 0.5 1
6.93542 0.712963 5.59901 0.5 0.5 0.5 1
6.0505 -1.5435 6.48103 0.5 0.5 0.5 1
6.0505 1.5435 6.48103 0.5 0.5 0.5 1
-6.48617 1.58778e-07 6.64707 0.5 0.5 0.5 1
-4.2123 1.75303 6.14229 0.5 0.5 0.5 1
-4.2123 -1.75303 6.14229 0.5 0.5 0.5 1
6.62937 -1.14854 6.07406 0.5 0.5 0.5 1
6.62936 1.14854 6.07406 0.5 0.5 0.5 1
-5.95448 0.740071 5.50688 0.5 0.5 0.5 1
-5.95448 -0.740067 5.50688 0.5 0.5 0.5 1
5.18365 -1.57961 6.31909 0.5 0.5 0.5 1
5.18371 1.57992 6.31909 0.5 0.5 0.5 1
-1.04678 -1.97325 6.41979 0.5 0.5 0.5 1
0.217499 1.57211 2.68626 1 1 1 1
0.217519 -1.57226 2.68626 1 1 1 1
-5.68013 1.1665 5.91594 0.5 0.5 0.5 1
-5.68014 -1.16654 5.91592 0.5 0.5 0.5 1
1.24451 1.02484 2.6961 1 1 1 1
1.24452 -1.02484 2.6961 1 1 1 1
-1.9856 1.05575 5.09512 0.5 0.5 0.5 1
4.58615 -1.16408 6.04533 0.5 0.5 0.5 1
4.58617 1.16427 6.04534 0.5 0.5 0.5 1
4.07171 -0.367496 5.09881 0.5 0.5 0.5 1
4.07172 0.367473 5.09881 0.5 0.5 0.5 1
-2.02262 -7.54018e-06 3.69556 0.5 0.5 0.5 1
-0.768049 -1.17547 2.45496 1 1 1 1
-0.768061 1.17546 2.45497 1 1 1 1
1.37911 -2.35066e-06 2.40096 1 1 1 1
-3.62668 1.71182 5.23488 0.5 0.5 0.5 1
-3.62668 -1.71182 5.23488 0.5 0.5 0.5 1
-1.52816 -0.408742 1.66332 1 1 1 1
-1.52816 0.408731 1.66332 1 1 1 1
-3.29272 1.4371 5.0153 0.5 0.5 0.5 1
-3.29272 -1.43709 5.01531 0.5 0.5 0.5 1
0.789813 1.33735 2.15564 1 1 1 1
0.789817 -1.33734 2.15567 1 1 1 1
-5.05518 1.46817 5.39539 0.5 0.5 0.5 1
-5.0552 -1.46817 5.3954 0.5 0.5 0.5 1
-2.78596 0.324929 4.3867 0.5 0.5 0.5 1
-2.78596 -0.324921 4.38671 0.5 0.5 0.5 1
5.91599 -1.41057 5.45216 0.5 0.5 0.5 1
5.916 1.41057 5.45214 0.5 0.5 0.5 1
6.28529 -1.22813 5.24791 0.5 0.5 0.5 1
6.2853 1.22814 5.24791 0.5 0.5 0.5 1
-4.20014 1.6479 5.17608 0.5 0.5 0.5 1
-4.20016 -1.6479 5.17606 0.5 0.5 0.5 1
-5.42547 1.26201 5.09652 0.5 0.5 0.5 1
-5.42547 -1.26202 5.09652 0.5 0.5 0.5 1
5.27519 -1.35917 5.29286 0.5 0.5 0.5 1
5.27519 1.35917 5.29286 0.5 0.5 0.5 1
-2.31175 1.18259 5.66736 0.5 0.5 0.5 1
-2.31175 -1.18259 5.66736 0.5 0.5 0.5 1
3.66255 -0.918703 6.39692 0.5 0.5 0.5 1
3.66255 0.918701 6.39691 0.5 0.5 0.5 1
6.67914 -0.734247 4.54118 0.5 0.5 0.5 1
6.67914 0.734245 4.54118 0.5 0.5 0.5 1
0.124955 1.2653 1.87002 1 1 1 1
0.124939 -1.26529 1.87001 1 1 1 1
0.549009 -2.18643 6.5938 0.5 0.5 0.5 1
0.54901 2.18642 6.5938 0.5 0.5 0.5 1
-5.52432 0.695115 4.44583 0.5 0.5 0.5 1
-5.52427 -0.695123 4.44582 0.5 0.5 0.5 1
1.07793 0.713736 1.8953 1 1 1 1
1.07793 -0.713735 1.8953 1 1 1 1
4.76465 -0.936302 5.05058 0.5 0.5 0.5 1
4.7646 0.936323 5.0506 0.5 0.5 0.5 1
-2.09159 -5.03161e-06 5.03125 0.5 0.5 0.5 1
1.23479 -1.94581 6.59153 0.5 0.5 0.5 1
1.23479 1.94581 6.59153 0.5 0.5 0.5 1
-0.295554 -0.705733 1.71894 1 1 1 1
-0.295562 0.705736 1.71897 1 1 1 1

3 0 26 60
3 0 60 26
3 0 29 94
3 0 94 29
3 0 60 94
3 0 94 60
3 1 27 61
3 1 61 27
3 1 29 94
3 1 94 29
3 1 61 94
3 1 94 61
3 2 6 149
3 2 149 6
3 2 9 103
3 2 103 9
3 2 35 103
3 2 103 35
3 2 35 149
3 2 149 35
3 3 24 64
3 3 64 24
3 3 28 89
3 3 89 28
3 3 64 89
3 3 89 64
3 4 25 65
3 4 65 25
3 4 28 89
3 4 89 28
3 4 65 89
3 4 89 65
3 5 7 150
3 5 150 7
3 5 8 70
3 5 70 8
3 5 36 70
3 5 70 36
3 5 36 150
3 5 150 36
3 6 10 67
3 6 67 10
3 6 31 67
3 6 67 31
3 6 31 149
3 6 149 31
3 6 67 158
3 6 158 67
3 6 149 158
3 6 158 149
3 7 11 37
3 7 37 11
3 7 32 37
3 7 37 32
3 7 32 150
3 7 150 32
3 7 37 159
3 7 159 37
3 7 150 159
3 7 159 150
3 8 12 33
3 8 33 12
3 8 33 70
3 8 70 33
3 9 13 34
3 9 34 13
3 9 34 103
3 9 103 34
3 10 14 67
3 10 67 14
3 11 15 37
3 11 37 15
3 12 16 33
3 12 33 16
3 13 17 34
3 13 34 17
3 14 18 38
3 14 38 18
3 14 38 67
3 14 67 38
3 15 19 45
3 15 45 19
3 15 37 45
3 15 45 37
3 16 20 81
3 16 81 20
3 16 33 79
3 16 79 33
3 16 79 81
3 16 81 79
3 17 21 82
3 17 82 21
3 17 34 80
3 17 80 34
3 17 80 82
3 17 82 80
3 18 22 38
3 18 38 22
3 19 23 45
3 19 45 23
3 20 26 87
3 20 87 26
3 20 81 95
3 20 95 81
3 20 87 95
3 20 95 87
3 21 27 88
3 21 88 27
3 21 82 96
3 21 96 82
3 21 88 96
3 21 96 88
3 22 24 92
3 22 92 24
3 22 38 101
3 22 101 38
3 22 92 101
3 22 101 92
3 23 25 93
3 23 93 25
3 23 45 102
3 23 102 45
3 23 93 102
3 23 102 93
3 24 64 92
3 24 92 64
3 25 65 93
3 25 93 65
3 26 60 87
3 26 87 60
3 27 61 88
3 27 88 61
3 30 34 39
3 30 39 34
3 30 34 80
3 30 80 34
3 30 34 142
3 30 142 34
3 30 39 56
3 30 56 39
3 30 41 56
3 30 56 41
3 30 41 115
3 30 115 41
3 30 55 80
3 30 80 55
3 30 55 110
3 30 110 55
3 30 55 142
3 30 142 55
3 30 55 157
3 30 157 55
3 30 110 115
3 30 115 110
3 30 115 157
3 30 157 115
3 31 35 44
3 31 44 35
3 31 35 149
3 31 149 35
3 31 44 69
3 31 69 44
3 31 67 69
3 31 69 67
3 31 67 158
3 31 158 67
3 31 149 158
3 31 158 149
3 32 36 43
3 32 43 36
3 32 36 150
3 32 150 36
3 32 37 68
3 32 68 37
3 32 37 159
3 32 159 37
3 32 43 68
3 32 68 43
3 32 150 159
3 32 159 150
3 33 40 70
3 33 70 40
3 33 40 110
3 33 110 40
3 33 55 79
3 33 79 55
3 33 55 110
3 33 110 55
3 33 79 141
3 33 141 79
3 33 110 141
3 33 141 110
3 34 39 103
3 34 103 39
3 34 80 142
3 34 142 80
3 35 39 51
3 35 51 39
3 35 39 103
3 35 103 39
3 35 44 51
3 35 51 44
3 36 40 50
3 36 50 40
3 36 40 70
3 36 70 40
3 36 43 50
3 36 50 43
3 37 45 76
3 37 76 45
3 37 45 144
3 37 144 45
3 37 47 66
3 37 66 47
3 37 47 68
3 37 68 47
3 37 66 76
3 37 76 66
3 37 66 144
3 37 144 66
3 38 66 67
3 38 67 66
3 38 66 76
3 38 76 66
3 38 67 143
3 38 143 67
3 38 76 111
3 38 111 76
3 38 76 143
3 38 143 76
3 38 101 111
3 38 111 101
3 39 51 56
3 39 56 51
3 40 50 57
3 40 57 50
3 40 57 110
3 40 110 57
3 41 56 77
3 41 77 56
3 41 77 116
3 41 116 77
3 41 83 115
3 41 115 83
3 41 83 116
3 41 116 83
3 42 57 78
3 42 78 57
3 42 57 110
3 42 110 57
3 42 78 117
3 42 117 78
3 42 84 115
3 42 115 84
3 42 84 117
3 42 117 84
3 42 110 115
3 42 115 110
3 43 48 62
3 43 62 48
3 43 48 68
3 43 68 48
3 43 50 62
3 43 62 50
3 44 49 63
3 44 63 49
3 44 49 69
3 44 69 49
3 44 51 63
3 44 63 51
3 45 76 112
3 45 112 76
3 45 76 144
3 45 144 76
3 45 102 112
3 45 112 102
3 46 55 123
3 46 123 55
3 46 55 129
3 46 129 55
3 46 58 130
3 46 130 58
3 46 58 152
3 46 152 58
3 46 95 119
3 46 119 95
3 46 95 127
3 46 127 95
3 46 99 137
3 46 137 99
3 46 99 151
3 46 151 99
3 46 119 123
3 46 123 119
3 46 119 135
3 46 135 119
3 46 127 135
3 46 135 127
3 46 127 137
3 46 137 127
3 46 129 130
3 46 130 129
3 46 151 152
3 46 152 151
3 47 48 52
3 47 52 48
3 47 48 68
3 47 68 48
3 47 49 52
3 47 52 49
3 47 49 69
3 47 69 49
3 47 66 67
3 47 67 66
3 47 67 69
3 47 69 67
3 48 52 71
3 48 71 52
3 48 62 71
3 48 71 62
3 49 52 72
3 49 72 52
3 49 63 72
3 49 72 63
3 50 57 73
3 50 73 57
3 50 62 73
3 50 73 62
3 51 56 74
3 51 74 56
3 51 63 74
3 51 74 63
3 52 71 75
3 52 75 71
3 52 72 75
3 52 75 72
3 53 54 114
3 53 114 54
3 53 54 146
3 53 146 54
3 53 90 133
3 53 133 90
3 53 90 145
3 53 145 90
3 53 113 114
3 53 114 113
3 53 113 155
3 53 155 113
3 53 131 133
3 53 133 131
3 53 131 139
3 53 139 131
3 53 139 155
3 53 155 139
3 53 145 146
3 53 146 145
3 54 91 134
3 54 134 91
3 54 91 146
3 54 146 91
3 54 114 156
3 54 156 114
3 54 132 134
3 54 134 132
3 54 132 140
3 54 140 132
3 54 140 156
3 54 156 140
3 55 58 124
3 55 124 58
3 55 58 130
3 55 130 58
3 55 79 123
3 55 123 79
3 55 79 141
3 55 141 79
3 55 80 124
3 55 124 80
3 55 80 142
3 55 142 80
3 55 110 141
3 55 141 110
3 55 110 157
3 55 157 110
3 55 129 130
3 55 130 129
3 56 74 77
3 56 77 74
3 57 73 78
3 57 78 73
3 58 96 120
3 58 120 96
3 58 96 128
3 58 128 96
3 58 100 138
3 58 138 100
3 58 100 152
3 58 152 100
3 58 120 124
3 58 124 120
3 58 120 136
3 58 136 120
3 58 128 136
3 58 136 128
3 58 128 138
3 58 138 128
3 59 108 118
3 59 118 108
3 59 108 125
3 59 125 108
3 59 109 118
3 59 118 109
3 59 109 126
3 59 126 109
3 59 118 153
3 59 153 118
3 59 118 154
3 59 154 118
3 59 121 122
3 59 122 121
3 59 121 160
3 59 160 121
3 59 122 161
3 59 161 122
3 59 125 147
3 59 147 125
3 59 125 153
3 59 153 125
3 59 126 148
3 59 148 126
3 59 126 154
3 59 154 126
3 59 147 161
3 59 161 147
3 59 148 160
3 59 160 148
3 60 87 106
3 60 106 87
3 60 94 106
3 60 106 94
3 61 88 107
3 61 107 88
3 61 94 107
3 61 107 94
3 62 71 85
3 62 85 71
3 62 73 85
3 62 85 73
3 63 72 86
3 63 86 72
3 63 74 86
3 63 86 74
3 64 89 97
3 64 97 89
3 64 92 97
3 64 97 92
3 65 89 98
3 65 98 89
3 65 93 98
3 65 98 93
3 66 67 143
3 66 143 67
3 66 76 143
3 66 143 76
3 66 76 144
3 66 144 76
3 71 75 108
3 71 108 75
3 71 85 108
3 71 108 85
3 72 75 109
3 72 109 75
3 72 86 109
3 72 109 86
3 73 78 104
3 73 104 78
3 73 85 104
3 73 104 85
3 74 77 105
3 74 105 77
3 74 86 105
3 74 105 86
3 75 108 118
3 75 118 108
3 75 109 118
3 75 118 109
3 76 111 155
3 76 155 111
3 76 112 156
3 76 156 112
3 76 113 114
3 76 114 113
3 76 113 155
3 76 155 113
3 76 114 156
3 76 156 114
3 77 105 116
3 77 116 105
3 78 104 117
3 78 117 104
3 79 81 119
3 79 119 81
3 79 119 123
3 79 123 119
3 80 82 120
3 80 120 82
3 80 120 124
3 80 124 120
3 81 95 119
3 81 119 95
3 82 96 120
3 82 120 96
3 83 84 115
3 83 115 84
3 83 84 122
3 83 122 84
3 83 116 160
3 83 160 116
3 83 121 122
3 83 122 121
3 83 121 160
3 83 160 121
3 84 117 161
3 84 161 117
3 84 122 161
3 84 161 122
3 85 104 125
3 85 125 104
3 85 108 125
3 85 125 108
3 86 105 126
3 86 126 105
3 86 109 126
3 86 126 109
3 87 95 127
3 87 127 95
3 87 106 127
3 87 127 106
3 88 96 128
3 88 128 96
3 88 107 128
3 88 128 107
3 89 90 91
3 89 91 90
3 89 90 97
3 89 97 90
3 89 91 98
3 89 98 91
3 90 91 146
3 90 146 91
3 90 97 133
3 90 133 97
3 90 145 146
3 90 146 145
3 91 98 134
3 91 134 98
3 92 97 131
3 92 131 97
3 92 101 131
3 92 131 101
3 93 98 132
3 93 132 98
3 93 102 132
3 93 132 102
3 94 99 100
3 94 100 99
3 94 99 106
3 94 106 99
3 94 100 107
3 94 107 100
3 95 119 135
3 95 135 119
3 95 127 135
3 95 135 127
3 96 120 136
3 96 136 120
3 96 128 136
3 96 136 128
3 97 131 133
3 97 133 131
3 98 132 134
3 98 134 132
3 99 100 152
3 99 152 100
3 99 106 137
3 99 137 106
3 99 151 152
3 99 152 151
3 100 107 138
3 100 138 107
3 101 111 139
3 101 139 111
3 101 131 139
3 101 139 131
3 102 112 140
3 102 140 112
3 102 132 140
3 102 140 132
3 104 117 147
3 104 147 117
3 104 125 147
3 104 147 125
3 105 116 148
3 105 148 116
3 105 126 148
3 105 148 126
3 106 127 137
3 106 137 127
3 107 128 138
3 107 138 128
3 108 118 153
3 108 153 118
3 108 125 153
3 108 153 125
3 109 118 154
3 109 154 118
3 109 126 154
3 109 154 126
3 110 115 157
3 110 157 115
3 111 139 155
3 111 155 139
3 112 140 156
3 112 156 140
3 116 148 160
3 116 160 148
3 117 147 161
3 117 161 147
