COFF
162 628 162

-6.64102 1.24773 7.78209 0.5 0.5 0.5 1
-6.64102 -1.24773 7.78209 0.5 0.5 0.5 1
-0.0217267 -2.38699 7.39165 0.5 0.5 0.5 1
7.55129 -1.28121 7.75731 0.5 0.5 0.5 1
7.55129 1.28121 7.75731 0.5 0.5 0.5 1
-0.0217267 2.38699 7.39165 0.5 0.5 0.5 1
1.24838 -2.00058 7.59907 0.5 0.5 0.5 1
1.24838 2.00058 7.59907 0.5 0.5 0.5 1
-1.20408 1.99136 7.56374 0.5 0.5 0.5 1
-1.20408 -1.99136 7.56374 0.5 0.5 0.5 1
2.05544 -1.55556 8.03669 0.5 0.5 0.5 1
2.05544 1.55556 8.03669 0.5 0.5 0.5 1
-2.10748 1.68717 7.86616 0.5 0.5 0.5 1
-2.10748 -1.68717 7.86616 0.5 0.5 0.5 1
3.05306 -1.51025 8.01266 0.5 0.5 0.5 1
3.05306 1.51025 8.01266 0.5 0.5 0.5 1
-3.05206 1.8282 7.57069 0.5 0.5 0.5 1
-3.05206 -1.8282 7.57069 0.5 0.5 0.5 1
4.05072 -1.45382 8.0311 0.5 0.5 0.5 1
4.05072 1.45382 8.0311 0.5 0.5 0.5 1
-4.08963 1.8375 7.47339 0.5 0.5 0.5 1
-4.08963 -1.8375 7.47339 0.5 0.5 0.5 1
5.02861 -1.72946 7.59691 0.5 0.5 0.5 1
5.02861 1.72946 7.59691 0.5 0.5 0.5 1
6.14109 -1.6356 7.63359 0.5 0.5 0.5 1
6.14109 1.6356 7.63359 0.5 0.5 0.5 1
-5.14555 1.63759 7.61162 0.5 0.5 0.5 1
-5.14555 -1.63759 7.61162 0.5 0.5 0.5 1
8.83262 -6.50894e-10 7.78579 0.5 0.5 0.5 1
-7.88906 4.70074e-09 7.80543 0.5 0.5 0.5 1
-1.98548 -1.05563 5.09518 0.5 0.5 0.5 1
1.22719 -1.7835 5.49242 1 1 0 1
1.22725 1.7835 5.49242 1 1 0 1
-2.19392 1.72356 6.61118 0.5 0.5 0.5 1
-2.19392 -1.72356 6.61118 0.5 0.5 0.5 1
-0.0688353 -2.08105 5.88793 0.5 0.5 0.5 1
-0.0688271 2.08103 5.88793 0.5 0.5 0.5 1
2.58696 1.54169 6.69997 0.5 0.5 0.5 1
4.11219 -1.48778 6.94108 0.5 0.5 0.5 1
-0.904953 -1.92478 5.43324 0.5 0.5 0.5 1
-0.90495 1.92477 5.43324 0.5 0.5 0.5 1
-1.5651 -0.882461 3.63131 0.5 0.5 0.5 1
-1.5651 0.882458 3.63129 0.5 0.5 0.5 1
1.12895 1.77992 4.76562 0.5 0.5 0.5 1
1.12904 -1.77993 4.7656 0.5 0.5 0.5 1
4.11219 1.48778 6.94108 0.5 0.5 0.5 1
-4.31048 0.660447 3.81755 1 1 0 1
2.5767 -2.24976e-07 5.55966 0.5 0.5 0.5 1
1.61125 1.37387 4.63335 0.5 0.5 0.5 1
1.61127 -1.37389 4.63335 0.5 0.5 0.5 1
0.111913 1.92236 4.75964 0.5 0.5 0.5 1
0.111914 -1.92245 4.75966 0.5 0.5 0.5 1
1.93404 -5.19697e-06 4.31673 0.5 0.5 0.5 1
5.25814 -0.751015 3.94105 1 1 0 1
5.25814 0.751014 3.94105 1 1 0 1
-2.58152 7.66955e-06 5.34737 0.5 0.5 0.5 1
-0.779914 -1.68581 4.29405 0.5 0.5 0.5 1
-0.779904 1.68579 4.29406 0.5 0.5 0.5 1
-4.31048 -0.660447 3.81755 1 1 0 1
0.160685 -6.84061e-07 1.0221 1 1 0 1
-5.82636 1.42531 6.97229 0.5 0.5 0.5 1
-5.82636 -1.42531 6.97229 0.5 0.5 0.5 1
1.02711 1.66995 4.02542 0.5 0.5 0.5 1
1.02717 -1.66996 4.02541 0.5 0.5 0.5 1
6.82916 -1.42441 7.11537 0.5 0.5 0.5 1
6.82916 1.42441 7.11537 0.5 0.5 0.5 1
3.1467 -2.21113e-07 5.74244 0.5 0.5 0.5 1
2.58696 -1.54169 6.69997 0.5 0.5 0.5 1
1.93849 1.56005 5.59782 0.5 0.5 0.5 1
1.93849 -1.56005 5.59781 0.5 0.5 0.5 1
-1.04678 1.97324 6.4198 0.5 0.5 0.5 1
1.42117 1.18518 3.62982 1 1 1 1
1.4212 -1.1852 3.62978 1 1 1 1
0.193428 1.75477 3.69091 1 1 1 1
0.193433 -1.75484 3.69091 1 1 1 1
1.60901 -1.60139e-05 3.2894 1 1 1 1
4.13729 -5.20643e-08 6.65428 0.5 0.5 0.5 1
-0.596247 -1.46976 3.16121 1 1 1 1
-0.596234 1.46975 3.16121 1 1 1 1
-3.0059 1.79524 6.05167 0.5 0.5 0.5 1
-3.00588 -1.79522 6.05167 0.5 0.5 0.5 1
-3.5957 1.83307 6.50667 0.5 0.5 0.5 1
-3.5957 -1.83307 6.50667 0.5 0.5 0.5 1
-1.7855 -0.456588 2.74173 1 1 1 1
-1.7857 0.456605 2.74172 1 1 1 1
0.910952 1.51638 3.05203 1 1 1 1
0.91111 -1.51669 3.05203 1 1 1 1
-5.14635 1.58146 6.40864 0.5 0.5 0.5 1
-5.14635 -1.58146 6.40864 0.5 0.5 0.5 1
7.45634 7.08222e-08 6.71666 0.5 0.5 0.5 1
6.93542 -0.712961 5.59901 0.5 0.5 0.5 1
6.93542 0.712962 5.59901 0.5 0.5 0.5 1
6.0505 -1.5435 6.48103 0.5 0.5 0.5 1
6.0505 1.5435 6.48103 0.5 0.5 0.5 1
-6.48617 -1.28435e-07 6.64707 0.5 0.5 0.5 1
-4.21229 1.75299 6.14238 0.5 0.5 0.5 1
-4.21229 -1.75299 6.14238 0.5 0.5 0.5 1
6.62936 -1.14854 6.07406 0.5 0.5 0.5 1
6.62936 1.14854 6.07406 0.5 0.5 0.5 1
-5.9545 0.74006 5.50685 0.5 0.5 0.5 1
-5.95449 -0.740061 5.50685 0.5 0.5 0.5 1
5.18365 -1.57961 6.31909 0.5 0.5 0.5 1
5.18364 1.57974 6.31909 0.5 0.5 0.5 1
-1.04679 -1.97324 6.4198 0.5 0.5 0.5 1
0.217466 1.57207 2.68619 1 1 1 1
0.21756 -1.57212 2.68619 1 1 1 1
-5.68025 1.16661 5.91593 0.5 0.5 0.5 1
-5.68028 -1.1668 5.91593 0.5 0.5 0.5 1
1.2445 1.02482 2.6961 1 1 1 1
1.24451 -1.02484 2.6961 1 1 1 1
-1.98547 1.05563 5.09518 0.5 0.5 0.5 1
4.58615 -1.16404 6.04534 0.5 0.5 0.5 1
4.58598 1.16418 6.04534 0.5 0.5 0.5 1
4.07171 -0.367483 5.09881 0.5 0.5 0.5 1
4.07171 0.367486 5.09881 0.5 0.5 0.5 1
-2.02239 -2.97872e-08 3.69555 0.5 0.5 0.5 1
-0.767941 -1.17549 2.45487 1 1 1 1
-0.767983 1.17545 2.45489 1 1 1 1
1.37892 -1.66822e-05 2.40098 1 1 1 1
-3.6267 1.71175 5.23484 0.5 0.5 0.5 1
-3.6267 -1.71175 5.23484 0.5 0.5 0.5 1
-1.52858 -0.408768 1.66345 1 1 1 1
-1.52858 0.408769 1.66346 1 1 1 1
-3.29263 1.43692 5.01513 0.5 0.5 0.5 1
-3.29263 -1.43692 5.01513 0.5 0.5 0.5 1
0.789777 1.33731 2.15562 1 1 1 1
0.789785 -1.33732 2.15562 1 1 1 1
-5.05519 1.46815 5.39541 0.5 0.5 0.5 1
-5.0552 -1.46815 5.39542 0.5 0.5 0.5 1
-2.78577 0.324924 4.38685 0.5 0.5 0.5 1
-2.78577 -0.324923 4.38685 0.5 0.5 0.5 1
5.91601 -1.41057 5.45214 0.5 0.5 0.5 1
5.91601 1.41057 5.45214 0.5 0.5 0.5 1
6.2853 -1.22814 5.24791 0.5 0.5 0.5 1
6.2853 1.22814 5.24791 0.5 0.5 0.5 1
-4.19993 1.64793 5.17633 0.5 0.5 0.5 1
-4.19993 -1.64793 5.17633 0.5 0.5 0.5 1
-5.42544 1.262 5.09657 0.5 0.5 0.5 1
-5.42543 -1.26201 5.09657 0.5 0.5 0.5 1
5.2752 -1.35918 5.29286 0.5 0.5 0.5 1
5.2752 1.35917 5.29286 0.5 0.5 0.5 1
-2.3117 1.18223 5.66768 0.5 0.5 0.5 1
-2.3117 -1.18223 5.66768 0.5 0.5 0.5 1
3.66255 -0.918703 6.39692 0.5 0.5 0.5 1
3.66255 0.918704 6.39692 0.5 0.5 0.5 1
6.67914 -0.734246 4.54118 0.5 0.5 0.5 1
6.67914 0.734247 4.54118 0.5 0.5 0.5 1
0.124922 1.26526 1.86998 1 1 1 1
0.124915 -1.26526 1.86997 1 1 1 1
0.549047 -2.18641 6.5938 0.5 0.5 0.5 1
0.549047 2.18641 6.5938 0.5 0.5 0.5 1
-5.52431 0.695124 4.44581 0.5 0.5 0.5 1
-5.52432 -0.695126 4.44581 0.5 0.5 0.5 1
1.07788 0.713733 1.8953 1 1 1 1
1.07788 -0.713741 1.8953 1 1 1 1
4.76464 -0.936331 5.05059 0.5 0.5 0.5 1
4.76465 0.936329 5.05059 0.5 0.5 0.5 1
-2.09132 8.27119e-07 5.03151 0.5 0.5 0.5 1
1.23474 -1.94582 6.59153 0.5 0.5 0.5 1
1.23476 1.94582 6.59153 0.5 0.5 0.5 1
-0.295556 -0.7052 1.71903 1 1 1 1
-0.295547 0.705199 1.71903 1 1 1 1

3 0 26 60
3 0 60 26
3 0 29 94
3 0 94 29
3 0 60 94
3 0 94 60
3 1 27 61
3 1 61 27
3 1 29 94
3 1 94 29
3 1 61 94
3 1 94 61
3 2 6 149
3 2 149 6
3 2 9 103
3 2 103 9
3 2 35 103
3 2 103 35
3 2 35 149
3 2 149 35
3 3 24 64
3 3 64 24
3 3 28 89
3 3 89 28
3 3 64 89
3 3 89 64
3 4 25 65
3 4 65 25
3 4 28 89
3 4 89 28
3 4 65 89
3 4 89 65
3 5 7 150
3 5 150 7
3 5 8 70
3 5 70 8
3 5 36 70
3 5 70 36
3 5 36 150
3 5 150 36
3 6 10 67
3 6 67 10
3 6 31 67
3 6 67 31
3 6 31 149
3 6 149 31
3 6 67 158
3 6 158 67
3 6 149 158
3 6 158 149
3 7 11 37
3 7 37 11
3 7 32 37
3 7 37 32
3 7 32 150
3 7 150 32
3 7 37 159
3 7 159 37
3 7 150 159
3 7 159 150
3 8 12 33
3 8 33 12
3 8 33 70
3 8 70 33
3 9 13 34
3 9 34 13
3 9 34 103
3 9 103 34
3 10 14 67
3 10 67 14
3 11 15 37
3 11 37 15
3 12 16 33
3 12 33 16
3 13 17 34
3 13 34 17
3 14 18 38
3 14 38 18
3 14 38 67
3 14 67 38
3 15 19 45
3 15 45 19
3 15 37 45
3 15 45 37
3 16 20 81
3 16 81 20
3 16 33 79
3 16 79 33
3 16 79 81
3 16 81 79
3 17 21 82
3 17 82 21
3 17 34 80
3 17 80 34
3 17 80 82
3 17 82 80
3 18 22 38
3 18 38 22
3 19 23 45
3 19 45 23
3 20 26 87
3 20 87 26
3 20 81 95
3 20 95 81
3 20 87 95
3 20 95 87
3 21 27 88
3 21 88 27
3 21 82 96
3 21 96 82
3 21 88 96
3 21 96 88
3 22 24 92
3 22 92 24
3 22 38 101
3 22 101 38
3 22 92 101
3 22 101 92
3 23 25 93
3 23 93 25
3 23 45 102
3 23 102 45
3 23 93 102
3 23 102 93
3 24 64 92
3 24 92 64
3 25 65 93
3 25 93 65
3 26 60 87
3 26 87 60
3 27 61 88
3 27 88 61
3 30 34 39
3 30 39 34
3 30 34 80
3 30 80 34
3 30 34 142
3 30 142 34
3 30 39 56
3 30 56 39
3 30 41 56
3 30 56 41
3 30 41 115
3 30 115 41
3 30 55 80
3 30 80 55
3 30 55 110
3 30 110 55
3 30 55 142
3 30 142 55
3 30 55 157
3 30 157 55
3 30 110 115
3 30 115 110
3 30 115 157
3 30 157 115
3 31 35 44
3 31 44 35
3 31 35 149
3 31 149 35
3 31 44 69
3 31 69 44
3 31 67 69
3 31 69 67
3 31 67 158
3 31 158 67
3 31 149 158
3 31 158 149
3 32 36 43
3 32 43 36
3 32 36 150
3 32 150 36
3 32 37 68
3 32 68 37
3 32 37 159
3 32 159 37
3 32 43 68
3 32 68 43
3 32 150 159
3 32 159 150
3 33 40 70
3 33 70 40
3 33 40 110
3 33 110 40
3 33 55 79
3 33 79 55
3 33 55 110
3 33 110 55
3 33 79 141
3 33 141 79
3 33 110 141
3 33 141 110
3 34 39 103
3 34 103 39
3 34 80 142
3 34 142 80
3 35 39 51
3 35 51 39
3 35 39 103
3 35 103 39
3 35 44 51
3 35 51 44
3 36 40 50
3 36 50 40
3 36 40 70
3 36 70 40
3 36 43 50
3 36 50 43
3 37 45 76
3 37 76 45
3 37 45 144
3 37 144 45
3 37 47 66
3 37 66 47
3 37 47 68
3 37 68 47
3 37 66 76
3 37 76 66
3 37 66 144
3 37 144 66
3 38 66 67
3 38 67 66
3 38 66 76
3 38 76 66
3 38 67 143
3 38 143 67
3 38 76 111
3 38 111 76
3 38 76 143
3 38 143 76
3 38 101 111
3 38 111 101
3 39 51 56
3 39 56 51
3 40 50 57
3 40 57 50
3 40 57 110
3 40 110 57
3 41 56 77
3 41 77 56
3 41 77 116
3 41 116 77
3 41 83 115
3 41 115 83
3 41 83 116
3 41 116 83
3 42 57 78
3 42 78 57
3 42 57 110
3 42 110 57
3 42 78 117
3 42 117 78
3 42 84 115
3 42 115 84
3 42 84 117
3 42 117 84
3 42 110 115
3 42 115 110
3 43 48 62
3 43 62 48
3 43 48 68
3 43 68 48
3 43 50 62
3 43 62 50
3 44 49 63
3 44 63 49
3 44 49 69
3 44 69 49
3 44 51 63
3 44 63 51
3 45 76 112
3 45 112 76
3 45 76 144
3 45 144 76
3 45 102 112
3 45 112 102
3 46 55 123
3 46 123 55
3 46 55 129
3 46 129 55
3 46 58 130
3 46 130 58
3 46 58 152
3 46 152 58
3 46 95 119
3 46 119 95
3 46 95 127
3 46 127 95
3 46 99 137
3 46 137 99
3 46 99 151
3 46 151 99
3 46 119 123
3 46 123 119
3 46 119 135
3 46 135 119
3 46 127 135
3 46 135 127
3 46 127 137
3 46 137 127
3 46 129 130
3 46 130 129
3 46 151 152
3 46 152 151
3 47 48 52
3 47 52 48
3 47 48 68
3 47 68 48
3 47 49 52
3 47 52 49
3 47 49 69
3 47 69 49
3 47 66 67
3 47 67 66
3 47 67 69
3 47 69 67
3 48 52 71
3 48 71 52
3 48 62 71
3 48 71 62
3 49 52 72
3 49 72 52
3 49 63 72
3 49 72 63
3 50 57 73
3 50 73 57
3 50 62 73
3 50 73 62
3 51 56 74
3 51 74 56
3 51 63 74
3 51 74 63
3 52 71 75
3 52 75 71
3 52 72 75
3 52 75 72
3 53 54 114
3 53 114 54
3 53 54 146
3 53 146 54
3 53 90 133
3 53 133 90
3 53 90 145
3 53 145 90
3 53 113 114
3 53 114 113
3 53 113 155
3 53 155 113
3 53 131 133
3 53 133 131
3 53 131 139
3 53 139 131
3 53 139 155
3 53 155 139
3 53 145 146
3 53 146 145
3 54 91 134
3 54 134 91
3 54 91 146
3 54 146 91
3 54 114 156
3 54 156 114
3 54 132 134
3 54 134 132
3 54 132 140
3 54 140 132
3 54 140 156
3 54 156 140
3 55 58 124
3 55 124 58
3 55 58 130
3 55 130 58
3 55 79 123
3 55 123 79
3 55 79 141
3 55 141 79
3 55 80 124
3 55 124 80
3 55 80 142
3 55 142 80
3 55 110 141
3 55 141 110
3 55 110 157
3 55 157 110
3 55 129 130
3 55 130 129
3 56 74 77
3 56 77 74
3 57 73 78
3 57 78 73
3 58 96 120
3 58 120 96
3 58 96 128
3 58 128 96
3 58 100 138
3 58 138 100
3 58 100 152
3 58 152 100
3 58 120 124
3 58 124 120
3 58 120 136
3 58 136 120
3 58 128 136
3 58 136 128
3 58 128 138
3 58 138 128
3 59 108 118
3 59 118 108
3 59 108 125
3 59 125 108
3 59 109 118
3 59 118 109
3 59 109 126
3 59 126 109
3 59 118 153
3 59 153 118
3 59 118 154
3 59 154 118
3 59 121 122
3 59 122 121
3 59 121 160
3 59 160 121
3 59 122 161
3 59 161 122
3 59 125 147
3 59 147 125
3 59 125 153
3 59 153 125
3 59 126 148
3 59 148 126
3 59 126 154
3 59 154 126
3 59 147 161
3 59 161 147
3 59 148 160
3 59 160 148
3 60 87 106
3 60 106 87
3 60 94 106
3 60 106 94
3 61 88 107
3 61 107 88
3 61 94 107
3 61 107 94
3 62 71 85
3 62 85 71
3 62 73 85
3 62 85 73
3 63 72 86
3 63 86 72
3 63 74 86
3 63 86 74
3 64 89 97
3 64 97 89
3 64 92 97
3 64 97 92
3 65 89 98
3 65 98 89
3 65 93 98
3 65 98 93
3 66 67 143
3 66 143 67
3 66 76 143
3 66 143 76
3 66 76 144
3 66 144 76
3 71 75 108
3 71 108 75
3 71 85 108
3 71 108 85
3 72 75 109
3 72 109 75
3 72 86 109
3 72 109 86
3 73 78 104
3 73 104 78
3 73 85 104
3 73 104 85
3 74 77 105
3 74 105 77
3 74 86 105
3 74 105 86
3 75 108 118
3 75 118 108
3 75 109 118
3 75 118 109
3 76 111 155
3 76 155 111
3 76 112 156
3 76 156 112
3 76 113 114
3 76 114 113
3 76 113 155
3 76 155 113
3 76 114 156
3 76 156 114
3 77 105 116
3 77 116 105
3 78 104 117
3 78 117 104
3 79 81 119
3 79 119 81
3 79 119 123
3 79 123 119
3 80 82 120
3 80 120 82
3 80 120 124
3 80 124 120
3 81 95 119
3 81 119 95
3 82 96 120
3 82 120 96
3 83 84 115
3 83 115 84
3 83 84 122
3 83 122 84
3 83 116 160
3 83 160 116
3 83 121 122
3 83 122 121
3 83 121 160
3 83 160 121
3 84 117 161
3 84 161 117
3 84 122 161
3 84 161 122
3 85 104 125
3 85 125 104
3 85 108 125
3 85 125 108
3 86 105 126
3 86 126 105
3 86 109 126
3 86 126 109
3 87 95 127
3 87 127 95
3 87 106 127
3 87 127 106
3 88 96 128
3 88 128 96
3 88 107 128
3 88 128 107
3 89 90 91
3 89 91 90
3 89 90 97
3 89 97 90
3 89 91 98
3 89 98 91
3 90 91 146
3 90 146 91
3 90 97 133
3 90 133 97
3 90 145 146
3 90 146 145
3 91 98 134
3 91 134 98
3 92 97 131
3 92 131 97
3 92 101 131
3 92 131 101
3 93 98 132
3 93 132 98
3 93 102 132
3 93 132 102
3 94 99 100
3 94 100 99
3 94 99 106
3 94 106 99
3 94 100 107
3 94 107 100
3 95 119 135
3 95 135 119
3 95 127 135
3 95 135 127
3 96 120 136
3 96 136 120
3 96 128 136
3 96 136 128
3 97 131 133
3 97 133 131
3 98 132 134
3 98 134 132
3 99 100 152
3 99 152 100
3 99 106 137
3 99 137 106
3 99 151 152
3 99 152 151
3 100 107 138
3 100 138 107
3 101 111 139
3 101 139 111
3 101 131 139
3 101 139 131
3 102 112 140
3 102 140 112
3 102 132 140
3 102 140 132
3 104 117 147
3 104 147 117
3 104 125 147
3 104 147 125
3 105 116 148
3 105 148 116
3 105 126 148
3 105 148 126
3 106 127 137
3 106 137 127
3 107 128 138
3 107 138 128
3 108 118 153
3 108 153 118
3 108 125 153
3 108 153 125
3 109 118 154
3 109 154 118
3 109 126 154
3 109 154 126
3 110 115 157
3 110 157 115
3 111 139 155
3 111 155 139
3 112 140 156
3 112 156 140
3 116 148 160
3 116 160 148
3 117 147 161
3 117 161 147
