COFF
75 256 75

-6.27937 0.825793 5.10171 0.5 0.5 0.5 1
-6.27937 -0.825793 5.10171 0.5 0.5 0.5 1
-0.0273009 -1.89889 4.69298 0.5 0.5 0.5 1
7.21401 -0.854032 5.07174 0.5 0.5 0.5 1
7.21401 0.854032 5.07174 0.5 0.5 0.5 1
-0.0273009 1.89889 4.69298 0.5 0.5 0.5 1
1.06922 -1.53461 4.88418 0.5 0.5 0.5 1
1.06922 1.53461 4.88418 0.5 0.5 0.5 1
-1.1145 1.54205 4.82851 0.5 0.5 0.5 1
-1.1145 -1.54205 4.82851 0.5 0.5 0.5 1
1.96738 -1.17642 5.16698 0.5 0.5 0.5 1
1.96738 1.17642 5.16698 0.5 0.5 0.5 1
-2.0278 1.23075 5.09094 0.5 0.5 0.5 1
-2.0278 -1.23075 5.09094 0.5 0.5 0.5 1
3.05109 -1.04554 5.21898 0.5 0.5 0.5 1
3.05109 1.04554 5.21898 0.5 0.5 0.5 1
-3.02232 1.1364 5.06078 0.5 0.5 0.5 1
-3.02232 -1.1364 5.06078 0.5 0.5 0.5 1
4.04533 -0.944274 5.24541 0.5 0.5 0.5 1
4.04533 0.944274 5.24541 0.5 0.5 0.5 1
-4.01739 1.03925 5.07551 0.5 0.5 0.5 1
-4.01739 -1.03925 5.07551 0.5 0.5 0.5 1
5.03356 -0.992069 5.1007 0.5 0.5 0.5 1
5.03356 0.992069 5.1007 0.5 0.5 0.5 1
6.05542 -0.94799 5.06553 0.5 0.5 0.5 1
6.05542 0.94799 5.06553 0.5 0.5 0.5 1
-5.01413 0.949015 5.0754 0.5 0.5 0.5 1
-5.01413 -0.949015 5.0754 0.5 0.5 0.5 1
-1.16257 -1.49333 3.94507 0.5 0.5 0.5 1
-1.95454 0.787896 2.88655 0.5 0.5 0.5 1
-1.95454 -0.787895 2.88655 0.5 0.5 0.5 1
1.18028 -1.46667 3.81543 0.5 0.5 0.5 1
1.18028 1.46667 3.81543 0.5 0.5 0.5 1
-2.29229 1.12421 3.98653 0.5 0.5 0.5 1
-2.29229 -1.12421 3.98653 0.5 0.5 0.5 1
0.00524758 -1.62185 3.52295 0.5 0.5 0.5 1
0.00524556 1.62176 3.52295 0.5 0.5 0.5 1
2.39805 1.07275 4.10356 0.5 0.5 0.5 1
4.07792 -0.952775 4.48823 0.5 0.5 0.5 1
-0.793284 -1.43824 3.03386 0.5 0.5 0.5 1
-0.793285 1.43824 3.03386 0.5 0.5 0.5 1
-1.46817 -0.716737 1.72823 0.5 0.5 0.5 1
-1.46817 0.716737 1.72823 0.5 0.5 0.5 1
0.977912 1.39594 2.72649 0.5 0.5 0.5 1
0.977912 -1.39594 2.72649 0.5 0.5 0.5 1
4.07792 0.952775 4.48823 0.5 0.5 0.5 1
-4.06935 0.660466 3.81755 1 1 0 1
2.05555 -4.09108e-10 3.14928 0.5 0.5 0.5 1
1.38024 0.993713 2.40516 0.5 0.5 0.5 1
1.38024 -0.993713 2.40516 0.5 0.5 0.5 1
0.0755035 1.45935 2.56189 0.5 0.5 0.5 1
0.0755045 -1.45935 2.56189 0.5 0.5 0.5 1
1.57945 2.03379e-11 2.25214 0.5 0.5 0.5 1
5.00669 -0.750602 3.94105 1 1 0 1
5.00669 0.750602 3.94105 1 1 0 1
-2.59083 3.68996e-10 3.35508 0.5 0.5 0.5 1
-0.426096 -1.21553 2.23521 0.5 0.5 0.5 1
-0.426096 1.21553 2.23521 0.5 0.5 0.5 1
-4.06935 -0.660466 3.81755 1 1 0 1
0.0557216 2.44935e-10 1.0221 1 1 0 1
-5.29764 0.791751 4.46376 0.5 0.5 0.5 1
-5.29764 -0.791751 4.46376 0.5 0.5 0.5 1
0.72881 1.03404 1.8755 0.5 0.5 0.5 1
0.72881 -1.03404 1.8755 0.5 0.5 0.5 1
6.32031 -0.824698 4.5252 0.5 0.5 0.5 1
6.32031 0.824698 4.5252 0.5 0.5 0.5 1
2.64708 -4.43035e-12 3.79795 0.5 0.5 0.5 1
2.39805 -1.07275 4.10356 0.5 0.5 0.5 1
1.64861 1.28042 3.29726 0.5 0.5 0.5 1
1.64861 -1.28042 3.29726 0.5 0.5 0.5 1
-1.16257 1.49333 3.94507 0.5 0.5 0.5 1
0.935337 0.604791 1.68207 0.5 0.5 0.5 1
0.935337 -0.604791 1.68207 0.5 0.5 0.5 1
0.0239595 0.904954 1.78441 0.5 0.5 0.5 1
0.0239596 -0.904954 1.78441 0.5 0.5 0.5 1

3 0 1 61
3 0 61 1
3 0 26 60
3 0 60 26
3 0 60 61
3 0 61 60
3 1 27 61
3 1 61 27
3 2 6 31
3 2 31 6
3 2 9 28
3 2 28 9
3 2 28 35
3 2 35 28
3 2 31 35
3 2 35 31
3 3 4 65
3 3 65 4
3 3 24 64
3 3 64 24
3 3 64 65
3 3 65 64
3 4 25 65
3 4 65 25
3 5 7 32
3 5 32 7
3 5 8 70
3 5 70 8
3 5 32 36
3 5 36 32
3 5 36 70
3 5 70 36
3 6 10 67
3 6 67 10
3 6 31 67
3 6 67 31
3 7 11 37
3 7 37 11
3 7 32 37
3 7 37 32
3 8 12 33
3 8 33 12
3 8 33 70
3 8 70 33
3 9 13 34
3 9 34 13
3 9 28 34
3 9 34 28
3 10 14 67
3 10 67 14
3 11 15 37
3 11 37 15
3 12 16 33
3 12 33 16
3 13 17 34
3 13 34 17
3 14 18 38
3 14 38 18
3 14 38 67
3 14 67 38
3 15 19 45
3 15 45 19
3 15 37 45
3 15 45 37
3 16 20 46
3 16 46 20
3 16 33 46
3 16 46 33
3 17 21 58
3 17 58 21
3 17 34 58
3 17 58 34
3 18 22 38
3 18 38 22
3 19 23 45
3 19 45 23
3 20 26 46
3 20 46 26
3 21 27 58
3 21 58 27
3 22 24 53
3 22 53 24
3 22 38 53
3 22 53 38
3 23 25 54
3 23 54 25
3 23 45 54
3 23 54 45
3 24 53 64
3 24 64 53
3 25 54 65
3 25 65 54
3 26 46 60
3 26 60 46
3 27 58 61
3 27 61 58
3 28 34 39
3 28 39 34
3 28 35 39
3 28 39 35
3 29 30 41
3 29 41 30
3 29 30 55
3 29 55 30
3 29 33 40
3 29 40 33
3 29 33 55
3 29 55 33
3 29 40 57
3 29 57 40
3 29 41 42
3 29 42 41
3 29 42 57
3 29 57 42
3 30 34 39
3 30 39 34
3 30 34 55
3 30 55 34
3 30 39 56
3 30 56 39
3 30 41 56
3 30 56 41
3 31 35 44
3 31 44 35
3 31 44 69
3 31 69 44
3 31 67 69
3 31 69 67
3 32 36 43
3 32 43 36
3 32 37 68
3 32 68 37
3 32 43 68
3 32 68 43
3 33 40 70
3 33 70 40
3 33 46 55
3 33 55 46
3 34 55 58
3 34 58 55
3 35 39 51
3 35 51 39
3 35 44 51
3 35 51 44
3 36 40 50
3 36 50 40
3 36 40 70
3 36 70 40
3 36 43 50
3 36 50 43
3 37 45 66
3 37 66 45
3 37 47 66
3 37 66 47
3 37 47 68
3 37 68 47
3 38 45 54
3 38 54 45
3 38 45 66
3 38 66 45
3 38 53 54
3 38 54 53
3 38 66 67
3 38 67 66
3 39 51 56
3 39 56 51
3 40 50 57
3 40 57 50
3 41 42 59
3 41 59 42
3 41 56 59
3 41 59 56
3 42 57 59
3 42 59 57
3 43 48 62
3 43 62 48
3 43 48 68
3 43 68 48
3 43 50 62
3 43 62 50
3 44 49 63
3 44 63 49
3 44 49 69
3 44 69 49
3 44 51 63
3 44 63 51
3 46 55 58
3 46 58 55
3 46 58 61
3 46 61 58
3 46 60 61
3 46 61 60
3 47 48 52
3 47 52 48
3 47 48 68
3 47 68 48
3 47 49 52
3 47 52 49
3 47 49 69
3 47 69 49
3 47 66 67
3 47 67 66
3 47 67 69
3 47 69 67
3 48 52 59
3 48 59 52
3 48 52 71
3 48 71 52
3 48 59 62
3 48 62 59
3 48 62 71
3 48 71 62
3 49 52 59
3 49 59 52
3 49 52 72
3 49 72 52
3 49 59 63
3 49 63 59
3 49 63 72
3 49 72 63
3 50 57 59
3 50 59 57
3 50 57 73
3 50 73 57
3 50 59 62
3 50 62 59
3 50 62 73
3 50 73 62
3 51 56 59
3 51 59 56
3 51 56 74
3 51 74 56
3 51 59 63
3 51 63 59
3 51 63 74
3 51 74 63
3 52 59 71
3 52 71 59
3 52 59 72
3 52 72 59
3 53 54 65
3 53 65 54
3 53 64 65
3 53 65 64
3 56 59 74
3 56 74 59
3 57 59 73
3 57 73 59
3 59 62 71
3 59 71 62
3 59 62 73
3 59 73 62
3 59 63 72
3 59 72 63
3 59 63 74
3 59 74 63
