COFF
139 528 139

-6.58347 1.14676 7.09773 0.5 0.5 0.5 1
-6.58347 -1.14676 7.09773 0.5 0.5 0.5 1
-0.022029 -2.22562 6.7659 0.5 0.5 0.5 1
7.49568 -1.18264 7.07109 0.5 0.5 0.5 1
7.49568 1.18264 7.07109 0.5 0.5 0.5 1
-0.022029 2.22562 6.7659 0.5 0.5 0.5 1
1.17417 -1.81929 7.00093 0.5 0.5 0.5 1
1.17417 1.81929 7.00093 0.5 0.5 0.5 1
-1.17788 1.87592 6.89225 0.5 0.5 0.5 1
-1.17788 -1.87592 6.89225 0.5 0.5 0.5 1
2.03143 -1.43156 7.35659 0.5 0.5 0.5 1
2.03143 1.43156 7.35659 0.5 0.5 0.5 1
-2.09276 1.58314 7.1704 0.5 0.5 0.5 1
-2.09276 -1.58314 7.1704 0.5 0.5 0.5 1
3.05134 -1.3841 7.33326 0.5 0.5 0.5 1
3.05134 1.3841 7.33326 0.5 0.5 0.5 1
-3.0558 1.68765 6.92332 0.5 0.5 0.5 1
-3.0558 -1.68765 6.92332 0.5 0.5 0.5 1
4.0501 -1.34126 7.33902 0.5 0.5 0.5 1
4.0501 1.34126 7.33902 0.5 0.5 0.5 1
-4.07672 1.68729 6.83893 0.5 0.5 0.5 1
-4.07672 -1.68729 6.83893 0.5 0.5 0.5 1
5.04178 -1.58585 6.95167 0.5 0.5 0.5 1
5.04178 1.58585 6.95167 0.5 0.5 0.5 1
6.12128 -1.51212 6.9669 0.5 0.5 0.5 1
6.12128 1.51212 6.9669 0.5 0.5 0.5 1
-5.11849 1.51312 6.94724 0.5 0.5 0.5 1
-5.11849 -1.51312 6.94724 0.5 0.5 0.5 1
8.67847 0.00010928 7.08863 0.5 0.5 0.5 1
-7.73111 0.00011392 7.11053 0.5 0.5 0.5 1
-1.92427 -0.974455 4.54765 0.5 0.5 0.5 1
1.27226 -1.71528 5.49242 1 1 0 1
1.27226 1.71528 5.49242 1 1 0 1
-2.15829 1.57036 5.99595 0.5 0.5 0.5 1
-2.15829 -1.57036 5.99595 0.5 0.5 0.5 1
0.071548 -1.91364 5.36286 0.5 0.5 0.5 1
0.0715365 1.91361 5.36286 0.5 0.5 0.5 1
2.57864 1.39703 6.11139 0.5 0.5 0.5 1
4.09922 -1.35528 6.31982 0.5 0.5 0.5 1
-0.883717 -1.79895 4.83686 0.5 0.5 0.5 1
-0.883716 1.79895 4.83686 0.5 0.5 0.5 1
-1.51671 -0.89023 3.10014 0.5 0.5 0.5 1
-1.51671 0.89023 3.10014 0.5 0.5 0.5 1
1.16034 1.70692 4.56238 0.5 0.5 0.5 1
1.16026 -1.70676 4.56237 0.5 0.5 0.5 1
4.09922 1.35528 6.31982 0.5 0.5 0.5 1
-4.33141 0.659679 3.81755 1 1 0 1
2.52489 -1.39504e-08 4.99453 0.5 0.5 0.5 1
1.63349 1.30589 4.16505 0.5 0.5 0.5 1
1.63349 -1.30589 4.16505 0.5 0.5 0.5 1
0.160349 1.80439 4.24652 0.5 0.5 0.5 1
0.160367 -1.80432 4.24652 0.5 0.5 0.5 1
1.93926 2.71678e-07 3.80015 0.5 0.5 0.5 1
5.19975 -0.750831 3.94105 1 1 0 1
5.19975 0.750831 3.94105 1 1 0 1
-2.55155 4.82723e-08 4.84381 0.5 0.5 0.5 1
-0.701215 -1.59473 3.7715 0.5 0.5 0.5 1
-0.701215 1.59473 3.7715 0.5 0.5 0.5 1
-4.33141 -0.659679 3.81755 1 1 0 1
0.190508 -1.20531e-08 1.0221 1 1 0 1
-5.79056 1.32248 6.32033 0.5 0.5 0.5 1
-5.79056 -1.32248 6.32033 0.5 0.5 0.5 1
1.04353 1.5845 3.54499 0.5 0.5 0.5 1
1.04357 -1.58459 3.54499 0.5 0.5 0.5 1
6.78895 -1.32438 6.43173 0.5 0.5 0.5 1
6.78895 1.32438 6.43173 0.5 0.5 0.5 1
3.17462 9.6604e-09 5.20189 0.5 0.5 0.5 1
2.57864 -1.39703 6.11139 0.5 0.5 0.5 1
1.7609 1.56494 5.19985 0.5 0.5 0.5 1
1.7609 -1.56494 5.19985 0.5 0.5 0.5 1
-1.01418 1.84936 5.83392 0.5 0.5 0.5 1
1.44106 1.11931 3.12556 0.5 0.5 0.5 1
1.44114 -1.11935 3.12556 0.5 0.5 0.5 1
0.230859 1.65682 3.19407 0.5 0.5 0.5 1
0.230819 -1.65702 3.19407 0.5 0.5 0.5 1
1.62316 -2.7858e-06 2.83134 0.5 0.5 0.5 1
4.10461 1.32579e-07 6.1776 0.5 0.5 0.5 1
-0.491653 -1.43905 2.71725 1 1 1 1
-0.491653 1.43905 2.71725 1 1 1 1
-2.90907 1.62018 5.36884 0.5 0.5 0.5 1
-2.90907 -1.62018 5.36884 0.5 0.5 0.5 1
-3.58914 1.68725 5.94003 0.5 0.5 0.5 1
-3.58914 -1.68725 5.94003 0.5 0.5 0.5 1
-1.677 -0.496937 2.21318 1 1 1 1
-1.677 0.496937 2.21318 1 1 1 1
0.935018 1.43255 2.55024 1 1 1 1
0.935084 -1.43274 2.55024 1 1 1 1
-5.07435 1.45151 5.79835 0.5 0.5 0.5 1
-5.07435 -1.45151 5.79835 0.5 0.5 0.5 1
7.34913 1.06842e-07 6.09753 0.5 0.5 0.5 1
6.78786 -0.700175 4.99295 0.5 0.5 0.5 1
6.78786 0.700175 4.99295 0.5 0.5 0.5 1
5.96705 -1.4159 5.85096 0.5 0.5 0.5 1
5.96705 1.4159 5.85096 0.5 0.5 0.5 1
-6.35966 -7.15174e-08 6.0336 0.5 0.5 0.5 1
-4.18329 1.61083 5.63247 0.5 0.5 0.5 1
-4.18329 -1.61083 5.63247 0.5 0.5 0.5 1
6.57086 -1.04768 5.45384 0.5 0.5 0.5 1
6.57086 1.04768 5.45384 0.5 0.5 0.5 1
-5.81225 0.692214 4.89776 0.5 0.5 0.5 1
-5.81225 -0.692214 4.89776 0.5 0.5 0.5 1
5.1659 -1.44763 5.78314 0.5 0.5 0.5 1
5.16582 1.44755 5.78314 0.5 0.5 0.5 1
-1.01418 -1.84936 5.83392 0.5 0.5 0.5 1
0.238712 1.48193 2.23745 1 1 1 1
0.23871 -1.48192 2.23745 1 1 1 1
-5.61053 1.06162 5.33932 0.5 0.5 0.5 1
-5.61053 -1.06162 5.33932 0.5 0.5 0.5 1
1.27536 0.925075 2.24253 1 1 1 1
1.27535 -0.925075 2.24253 1 1 1 1
-1.92427 0.974455 4.54765 0.5 0.5 0.5 1
4.54459 -1.06362 5.54453 0.5 0.5 0.5 1
4.54489 1.06366 5.54453 0.5 0.5 0.5 1
4.22111 -0.368903 4.86002 0.5 0.5 0.5 1
4.22111 0.368903 4.86002 0.5 0.5 0.5 1
-1.95056 3.48126e-07 3.16176 0.5 0.5 0.5 1
-0.587015 -1.13916 2.02415 1 1 1 1
-0.587015 1.13916 2.02415 1 1 1 1
1.40165 9.8592e-07 2.0196 1 1 1 1
-3.76526 1.4599 4.83792 0.5 0.5 0.5 1
-3.76526 -1.4599 4.83792 0.5 0.5 0.5 1
-1.15559 -0.351023 1.46914 1 1 1 1
-1.15559 0.351023 1.46914 1 1 1 1
-3.34413 1.25007 4.59786 0.5 0.5 0.5 1
-3.34413 -1.25007 4.59786 0.5 0.5 0.5 1
0.714746 1.02389 1.76374 1 1 1 1
0.714743 -1.02389 1.76374 1 1 1 1
-4.87696 1.21838 4.86446 0.5 0.5 0.5 1
-4.87696 -1.21838 4.86446 0.5 0.5 0.5 1
-3.12081 0.324221 4.18013 0.5 0.5 0.5 1
-3.12081 -0.32422 4.18013 0.5 0.5 0.5 1
5.69855 -1.1666 4.92078 0.5 0.5 0.5 1
5.69855 1.1666 4.92078 0.5 0.5 0.5 1
5.96968 -0.93066 4.68437 0.5 0.5 0.5 1
5.96968 0.93066 4.68437 0.5 0.5 0.5 1
-4.26463 1.20866 4.72345 0.5 0.5 0.5 1
-4.26463 -1.20866 4.72345 0.5 0.5 0.5 1
-5.02684 0.868008 4.5667 0.5 0.5 0.5 1
-5.02684 -0.868008 4.5667 0.5 0.5 0.5 1

3 0 26 60
3 0 60 26
3 0 29 94
3 0 94 29
3 0 60 94
3 0 94 60
3 1 27 61
3 1 61 27
3 1 29 94
3 1 94 29
3 1 61 94
3 1 94 61
3 2 6 31
3 2 31 6
3 2 9 103
3 2 103 9
3 2 31 35
3 2 35 31
3 2 35 103
3 2 103 35
3 3 24 64
3 3 64 24
3 3 28 89
3 3 89 28
3 3 64 89
3 3 89 64
3 4 25 65
3 4 65 25
3 4 28 89
3 4 89 28
3 4 65 89
3 4 89 65
3 5 7 32
3 5 32 7
3 5 8 70
3 5 70 8
3 5 32 36
3 5 36 32
3 5 36 70
3 5 70 36
3 6 10 67
3 6 67 10
3 6 31 67
3 6 67 31
3 7 11 37
3 7 37 11
3 7 32 37
3 7 37 32
3 8 12 33
3 8 33 12
3 8 33 70
3 8 70 33
3 9 13 34
3 9 34 13
3 9 34 103
3 9 103 34
3 10 14 67
3 10 67 14
3 11 15 37
3 11 37 15
3 12 16 33
3 12 33 16
3 13 17 34
3 13 34 17
3 14 18 38
3 14 38 18
3 14 38 67
3 14 67 38
3 15 19 45
3 15 45 19
3 15 37 45
3 15 45 37
3 16 20 81
3 16 81 20
3 16 33 79
3 16 79 33
3 16 79 81
3 16 81 79
3 17 21 82
3 17 82 21
3 17 34 80
3 17 80 34
3 17 80 82
3 17 82 80
3 18 22 38
3 18 38 22
3 19 23 45
3 19 45 23
3 20 26 87
3 20 87 26
3 20 81 95
3 20 95 81
3 20 87 95
3 20 95 87
3 21 27 88
3 21 88 27
3 21 82 96
3 21 96 82
3 21 88 96
3 21 96 88
3 22 24 92
3 22 92 24
3 22 38 101
3 22 101 38
3 22 92 101
3 22 101 92
3 23 25 93
3 23 93 25
3 23 45 102
3 23 102 45
3 23 93 102
3 23 102 93
3 24 64 92
3 24 92 64
3 25 65 93
3 25 93 65
3 26 60 87
3 26 87 60
3 27 61 88
3 27 88 61
3 30 34 39
3 30 39 34
3 30 34 55
3 30 55 34
3 30 39 56
3 30 56 39
3 30 41 56
3 30 56 41
3 30 41 115
3 30 115 41
3 30 55 110
3 30 110 55
3 30 110 115
3 30 115 110
3 31 35 44
3 31 44 35
3 31 44 69
3 31 69 44
3 31 67 69
3 31 69 67
3 32 36 43
3 32 43 36
3 32 37 68
3 32 68 37
3 32 43 68
3 32 68 43
3 33 40 70
3 33 70 40
3 33 40 110
3 33 110 40
3 33 55 79
3 33 79 55
3 33 55 110
3 33 110 55
3 34 39 103
3 34 103 39
3 34 55 80
3 34 80 55
3 35 39 51
3 35 51 39
3 35 39 103
3 35 103 39
3 35 44 51
3 35 51 44
3 36 40 50
3 36 50 40
3 36 40 70
3 36 70 40
3 36 43 50
3 36 50 43
3 37 45 66
3 37 66 45
3 37 47 66
3 37 66 47
3 37 47 68
3 37 68 47
3 38 66 67
3 38 67 66
3 38 66 76
3 38 76 66
3 38 76 111
3 38 111 76
3 38 101 111
3 38 111 101
3 39 51 56
3 39 56 51
3 40 50 57
3 40 57 50
3 40 57 110
3 40 110 57
3 41 56 77
3 41 77 56
3 41 77 116
3 41 116 77
3 41 83 115
3 41 115 83
3 41 83 116
3 41 116 83
3 42 57 78
3 42 78 57
3 42 57 110
3 42 110 57
3 42 78 117
3 42 117 78
3 42 84 115
3 42 115 84
3 42 84 117
3 42 117 84
3 42 110 115
3 42 115 110
3 43 48 62
3 43 62 48
3 43 48 68
3 43 68 48
3 43 50 62
3 43 62 50
3 44 49 63
3 44 63 49
3 44 49 69
3 44 69 49
3 44 51 63
3 44 63 51
3 45 66 76
3 45 76 66
3 45 76 112
3 45 112 76
3 45 102 112
3 45 112 102
3 46 55 123
3 46 123 55
3 46 55 129
3 46 129 55
3 46 58 100
3 46 100 58
3 46 58 130
3 46 130 58
3 46 95 119
3 46 119 95
3 46 95 127
3 46 127 95
3 46 99 100
3 46 100 99
3 46 99 106
3 46 106 99
3 46 99 137
3 46 137 99
3 46 106 127
3 46 127 106
3 46 119 123
3 46 123 119
3 46 119 135
3 46 135 119
3 46 127 135
3 46 135 127
3 46 127 137
3 46 137 127
3 46 129 130
3 46 130 129
3 47 48 52
3 47 52 48
3 47 48 68
3 47 68 48
3 47 49 52
3 47 52 49
3 47 49 69
3 47 69 49
3 47 66 67
3 47 67 66
3 47 67 69
3 47 69 67
3 48 52 71
3 48 71 52
3 48 62 71
3 48 71 62
3 49 52 72
3 49 72 52
3 49 63 72
3 49 72 63
3 50 57 73
3 50 73 57
3 50 62 73
3 50 73 62
3 51 56 74
3 51 74 56
3 51 63 74
3 51 74 63
3 52 71 75
3 52 75 71
3 52 72 75
3 52 75 72
3 53 54 91
3 53 91 54
3 53 54 114
3 53 114 54
3 53 76 111
3 53 111 76
3 53 76 113
3 53 113 76
3 53 90 91
3 53 91 90
3 53 90 97
3 53 97 90
3 53 90 133
3 53 133 90
3 53 97 131
3 53 131 97
3 53 101 111
3 53 111 101
3 53 101 131
3 53 131 101
3 53 113 114
3 53 114 113
3 53 131 133
3 53 133 131
3 54 76 112
3 54 112 76
3 54 76 114
3 54 114 76
3 54 91 98
3 54 98 91
3 54 91 134
3 54 134 91
3 54 98 132
3 54 132 98
3 54 102 112
3 54 112 102
3 54 102 132
3 54 132 102
3 54 132 134
3 54 134 132
3 55 58 124
3 55 124 58
3 55 58 130
3 55 130 58
3 55 79 123
3 55 123 79
3 55 80 124
3 55 124 80
3 55 129 130
3 55 130 129
3 56 74 77
3 56 77 74
3 57 73 78
3 57 78 73
3 58 96 120
3 58 120 96
3 58 96 128
3 58 128 96
3 58 100 107
3 58 107 100
3 58 100 138
3 58 138 100
3 58 107 128
3 58 128 107
3 58 120 124
3 58 124 120
3 58 120 136
3 58 136 120
3 58 128 136
3 58 136 128
3 58 128 138
3 58 138 128
3 59 75 108
3 59 108 75
3 59 75 109
3 59 109 75
3 59 83 116
3 59 116 83
3 59 83 121
3 59 121 83
3 59 84 117
3 59 117 84
3 59 84 122
3 59 122 84
3 59 85 104
3 59 104 85
3 59 85 108
3 59 108 85
3 59 86 105
3 59 105 86
3 59 86 109
3 59 109 86
3 59 104 117
3 59 117 104
3 59 104 125
3 59 125 104
3 59 105 116
3 59 116 105
3 59 105 126
3 59 126 105
3 59 108 118
3 59 118 108
3 59 108 125
3 59 125 108
3 59 109 118
3 59 118 109
3 59 109 126
3 59 126 109
3 59 121 122
3 59 122 121
3 60 87 106
3 60 106 87
3 60 94 106
3 60 106 94
3 61 88 107
3 61 107 88
3 61 94 107
3 61 107 94
3 62 71 85
3 62 85 71
3 62 73 85
3 62 85 73
3 63 72 86
3 63 86 72
3 63 74 86
3 63 86 74
3 64 89 97
3 64 97 89
3 64 92 97
3 64 97 92
3 65 89 98
3 65 98 89
3 65 93 98
3 65 98 93
3 71 75 108
3 71 108 75
3 71 85 108
3 71 108 85
3 72 75 109
3 72 109 75
3 72 86 109
3 72 109 86
3 73 78 104
3 73 104 78
3 73 85 104
3 73 104 85
3 74 77 105
3 74 105 77
3 74 86 105
3 74 105 86
3 75 108 118
3 75 118 108
3 75 109 118
3 75 118 109
3 76 113 114
3 76 114 113
3 77 105 116
3 77 116 105
3 78 104 117
3 78 117 104
3 79 81 119
3 79 119 81
3 79 119 123
3 79 123 119
3 80 82 120
3 80 120 82
3 80 120 124
3 80 124 120
3 81 95 119
3 81 119 95
3 82 96 120
3 82 120 96
3 83 84 115
3 83 115 84
3 83 84 122
3 83 122 84
3 83 121 122
3 83 122 121
3 85 104 125
3 85 125 104
3 85 108 125
3 85 125 108
3 86 105 126
3 86 126 105
3 86 109 126
3 86 126 109
3 87 95 127
3 87 127 95
3 87 106 127
3 87 127 106
3 88 96 128
3 88 128 96
3 88 107 128
3 88 128 107
3 89 90 91
3 89 91 90
3 89 90 97
3 89 97 90
3 89 91 98
3 89 98 91
3 90 97 133
3 90 133 97
3 91 98 134
3 91 134 98
3 92 97 131
3 92 131 97
3 92 101 131
3 92 131 101
3 93 98 132
3 93 132 98
3 93 102 132
3 93 132 102
3 94 99 100
3 94 100 99
3 94 99 106
3 94 106 99
3 94 100 107
3 94 107 100
3 95 119 135
3 95 135 119
3 95 127 135
3 95 135 127
3 96 120 136
3 96 136 120
3 96 128 136
3 96 136 128
3 97 131 133
3 97 133 131
3 98 132 134
3 98 134 132
3 99 106 137
3 99 137 106
3 100 107 138
3 100 138 107
3 106 127 137
3 106 137 127
3 107 128 138
3 107 138 128
