COFF
200 796 200

-6.72466 1.39243 8.0038 0.5 0.5 0.5 1
-6.72466 -1.39243 8.0038 0.5 0.5 0.5 1
-0.0293618 -2.56658 7.58941 0.5 0.5 0.5 1
7.71414 -1.47582 7.90863 0.5 0.5 0.5 1
7.71414 1.47582 7.90863 0.5 0.5 0.5 1
-0.0293618 2.56658 7.58941 0.5 0.5 0.5 1
1.19889 -2.17385 7.8031 0.5 0.5 0.5 1
1.19889 2.17385 7.8031 0.5 0.5 0.5 1
-1.28739 2.23905 7.68 0.5 0.5 0.5 1
-1.28739 -2.23905 7.68 0.5 0.5 0.5 1
2.07205 -1.82112 8.13862 0.5 0.5 0.5 1
2.07205 1.82112 8.13862 0.5 0.5 0.5 1
-2.10898 1.84733 8.09442 0.5 0.5 0.5 1
-2.10898 -1.84732 8.09442 0.5 0.5 0.5 1
3.0052 -2.01108 7.83765 0.5 0.5 0.5 1
3.0052 2.01108 7.83765 0.5 0.5 0.5 1
-3.04773 1.99208 7.78305 0.5 0.5 0.5 1
-3.04773 -1.99208 7.78305 0.5 0.5 0.5 1
3.9661 -2.21757 7.58381 0.5 0.5 0.5 1
3.9661 2.21757 7.58381 0.5 0.5 0.5 1
-4.10186 1.97909 7.73192 0.5 0.5 0.5 1
-4.10186 -1.97909 7.73192 0.5 0.5 0.5 1
5.12951 -2.2905 7.37204 0.5 0.5 0.5 1
5.12951 2.2905 7.37204 0.5 0.5 0.5 1
-5.17159 1.80381 7.82638 0.5 0.5 0.5 1
-5.17159 -1.80381 7.82638 0.5 0.5 0.5 1
6.27565 -1.95633 7.68585 0.5 0.5 0.5 1
6.27565 1.95633 7.68585 0.5 0.5 0.5 1
9.74691 6.35749e-06 7.9862 0.5 0.5 0.5 1
-8.11778 -2.96272e-05 8.08497 0.5 0.5 0.5 1
9.00126 -0.74675 7.95239 0.5 0.5 0.5 1
9.00124 0.746769 7.95239 0.5 0.5 0.5 1
1.11445 2.09042 6.4171 0.5 0.5 0.5 1
-2.05551 1.94106 6.62761 0.5 0.5 0.5 1
-2.0555 -1.94106 6.62767 0.5 0.5 0.5 1
0.17062 -2.24711 5.95402 0.5 0.5 0.5 1
0.170586 2.24703 5.95401 0.5 0.5 0.5 1
2.45474 1.69135 6.33938 1 1 0 1
4.01489 -0.619884 3.41973 1 1 0 1
-1.09717 -1.79278 4.79449 0.5 0.5 0.5 1
-1.09724 1.79255 4.79466 0.5 0.5 0.5 1
-1.73655 -0.869956 3.73246 0.5 0.5 0.5 1
-1.73656 0.869875 3.73246 0.5 0.5 0.5 1
1.05978 2.04527 5.26374 0.5 0.5 0.5 1
1.0598 -2.04532 5.26374 0.5 0.5 0.5 1
4.01489 0.619884 3.41973 1 1 0 1
-4.18065 0.660155 3.50266 1 1 0 1
2.2329 -2.87233e-06 5.62411 0.5 0.5 0.5 1
1.51339 1.56124 4.85293 0.5 0.5 0.5 1
1.51341 -1.56126 4.85294 0.5 0.5 0.5 1
0.226097 2.0264 4.83803 0.5 0.5 0.5 1
0.226115 -2.02651 4.83803 0.5 0.5 0.5 1
1.68023 -3.12258e-07 4.36386 0.5 0.5 0.5 1
4.87694 -0.673166 3.7806 1 1 0 1
4.87694 0.673167 3.7806 1 1 0 1
-4.18065 -0.660137 3.50266 1 1 0 1
0.110667 3.36403e-06 1.0221 1 1 0 1
-6.10074 1.42514 6.42006 1 1 0 1
-6.10073 -1.42514 6.42006 1 1 0 1
-2.70638 4.08402e-05 5.48127 0.5 0.5 0.5 1
-0.859106 -1.69066 4.14787 0.5 0.5 0.5 1
-0.859163 1.69055 4.14802 0.5 0.5 0.5 1
7.23333 -1.67649 6.61634 1 1 0 1
7.23333 1.67649 6.61634 1 1 0 1
2.45475 -1.69135 6.33938 1 1 0 1
1.71313 1.87983 5.83634 0.5 0.5 0.5 1
1.71314 -1.87984 5.83635 0.5 0.5 0.5 1
-0.955354 2.03342 5.45191 1 1 0 1
0.940107 1.86151 4.22688 1 1 1 1
0.94012 -1.86142 4.22688 1 1 1 1
2.45483 -3.43091e-06 5.97024 0.5 0.5 0.5 1
1.29545 1.32364 3.77101 1 1 1 1
1.29544 -1.32365 3.77101 1 1 1 1
0.125141 1.85267 3.82521 1 1 1 1
0.125146 -1.85271 3.82522 1 1 1 1
4.18609 -2.11056 5.82349 0.5 0.5 0.5 1
4.18609 2.11056 5.82349 0.5 0.5 0.5 1
3.54764 -2.11311 6.86395 0.5 0.5 0.5 1
3.54763 2.11308 6.86396 0.5 0.5 0.5 1
1.45213 -1.37846e-06 3.37855 1 1 1 1
-2.95093 1.97148 6.29562 0.5 0.5 0.5 1
-2.95089 -1.97148 6.2956 0.5 0.5 0.5 1
-3.58735 1.98529 6.68382 0.5 0.5 0.5 1
-3.58735 -1.98528 6.68382 0.5 0.5 0.5 1
-0.776556 -1.51127 3.34587 1 1 1 1
-0.776571 1.51119 3.34585 1 1 1 1
-5.04586 1.65523 6.549 0.5 0.5 0.5 1
-5.04586 -1.65523 6.549 0.5 0.5 0.5 1
3.68561 -2.14729 6.16789 0.5 0.5 0.5 1
3.68561 2.1472 6.16789 0.5 0.5 0.5 1
6.24356 -1.86489 6.22596 0.5 0.5 0.5 1
6.24356 1.86489 6.22596 0.5 0.5 0.5 1
7.80483 -1.12829e-05 6.76587 0.5 0.5 0.5 1
7.05361 -0.839729 5.68255 0.5 0.5 0.5 1
7.05361 0.839725 5.68255 0.5 0.5 0.5 1
6.81895 -1.22576 5.98109 0.5 0.5 0.5 1
6.81895 1.22576 5.98109 0.5 0.5 0.5 1
-4.22375 1.86538 6.29945 0.5 0.5 0.5 1
-4.22374 -1.86536 6.29945 0.5 0.5 0.5 1
-1.94088 -0.446528 2.88558 1 1 1 1
-1.94089 0.446464 2.88559 1 1 1 1
2.7026 1.16945 5.70957 0.5 0.5 0.5 1
2.7026 -1.16946 5.70957 0.5 0.5 0.5 1
-6.78167 1.74001e-05 6.72659 0.5 0.5 0.5 1
-6.13138 0.712045 5.5584 0.5 0.5 0.5 1
-6.13138 -0.712033 5.55842 0.5 0.5 0.5 1
-5.90173 1.10769 5.77147 0.5 0.5 0.5 1
-5.90173 -1.10768 5.77147 0.5 0.5 0.5 1
0.806214 1.6552 3.18828 1 1 1 1
0.806341 -1.65551 3.18834 1 1 1 1
-0.955317 -2.03318 5.45191 1 1 0 1
5.10139 -2.04488 5.82001 0.5 0.5 0.5 1
5.10139 2.04488 5.82001 0.5 0.5 0.5 1
2.74789 -0.565682 4.18152 0.5 0.5 0.5 1
2.74789 0.565679 4.18152 0.5 0.5 0.5 1
0.143987 1.67424 2.84301 1 1 1 1
0.143961 -1.67424 2.84302 1 1 1 1
-2.15421 1.03233 5.11152 0.5 0.5 0.5 1
3.29761 -1.80612 5.24986 0.5 0.5 0.5 1
3.29761 1.80611 5.24986 0.5 0.5 0.5 1
1.12701 1.12941 2.84202 1 1 1 1
1.12701 -1.12941 2.84208 1 1 1 1
-2.20711 -4.41308e-05 3.75662 0.5 0.5 0.5 1
-3.58613 1.93869 5.4156 0.5 0.5 0.5 1
-3.58603 -1.93853 5.41566 0.5 0.5 0.5 1
-5.09006 1.51439 5.52744 0.5 0.5 0.5 1
-5.09006 -1.51439 5.52745 0.5 0.5 0.5 1
-0.948026 -1.19651 2.63589 1 1 1 1
-0.948028 1.19647 2.63589 1 1 1 1
6.5087 -1.47501 5.2276 0.5 0.5 0.5 1
6.50943 1.47485 5.22756 0.5 0.5 0.5 1
-3.105 1.3765 4.96359 0.5 0.5 0.5 1
-3.10496 -1.37649 4.96359 0.5 0.5 0.5 1
7.08335 -0.754506 4.42566 1 1 1 1
7.08335 0.754503 4.42566 1 1 1 1
5.9468 -1.77865 5.22767 0.5 0.5 0.5 1
5.94679 1.77865 5.22766 0.5 0.5 0.5 1
3.57382 -1.94169 4.97576 0.5 0.5 0.5 1
3.57381 1.94163 4.97577 0.5 0.5 0.5 1
-5.54098 1.1912 5.1502 0.5 0.5 0.5 1
-5.54099 -1.19119 5.15019 0.5 0.5 0.5 1
-4.19471 1.7958 5.26844 0.5 0.5 0.5 1
-4.19477 -1.79601 5.2685 0.5 0.5 0.5 1
-1.46101 -0.432074 1.69286 1 1 1 1
-1.46097 0.432089 1.69285 1 1 1 1
-2.87322 0.324893 4.32475 0.5 0.5 0.5 1
-2.87322 -0.324893 4.32477 0.5 0.5 0.5 1
4.20326 -1.94973 4.50934 1 1 1 1
4.20321 1.94977 4.50935 1 1 1 1
0.69034 1.4757 2.26499 1 1 1 1
0.690373 -1.47576 2.26503 1 1 1 1
-5.80599 0.663418 4.13742 0.5 0.5 0.5 1
-5.80611 -0.663361 4.13741 0.5 0.5 0.5 1
1.25293 1.11147e-05 2.45275 1 1 1 1
-2.43435 1.40221 5.63186 0.5 0.5 0.5 1
-2.43442 -1.4021 5.63184 0.5 0.5 0.5 1
2.89689 -1.19476 4.84728 1 1 1 1
2.89689 1.19475 4.84728 1 1 1 1
-2.28877 -1.81543e-06 5.07655 0.5 0.5 0.5 1
0.114255 -1.46241 1.95697 1 1 1 1
0.113926 1.4622 1.95692 1 1 1 1
4.72203 -1.89454 4.89427 1 1 1 1
4.72202 1.89454 4.89427 1 1 1 1
5.15405 -1.80963 4.86198 1 1 1 1
5.15404 1.80964 4.86197 1 1 1 1
6.07246 -1.4261 4.53868 1 1 1 1
6.07246 1.4261 4.53868 1 1 1 1
1.00185 0.813709 1.9957 1 1 1 1
1.00183 -0.813671 1.99572 1 1 1 1
6.22272 -0.669696 3.99657 1 1 1 1
6.22272 0.669696 3.99657 1 1 1 1
-4.91074 1.4147 4.63648 0.5 0.5 0.5 1
-4.91072 -1.41469 4.63647 0.5 0.5 0.5 1
-0.581391 -2.3799 6.6846 0.5 0.5 0.5 1
-0.581427 2.3799 6.6846 0.5 0.5 0.5 1
3.27245 -1.54278 4.37044 1 1 1 1
3.27244 1.54277 4.37044 1 1 1 1
-2.95504 -1.27825 5.65653 0.5 0.5 0.5 1
-2.95496 1.27827 5.65653 0.5 0.5 0.5 1
-0.447595 -1.01519 1.81693 1 1 1 1
-0.447567 1.0153 1.81701 1 1 1 1
-3.5912 1.61263 4.50907 0.5 0.5 0.5 1
-3.5912 -1.61261 4.50908 0.5 0.5 0.5 1
-4.98623 1.1884 4.37873 1 1 1 1
-4.98637 -1.18834 4.37879 1 1 1 1
-1.14232 2.18299 6.61354 0.5 0.5 0.5 1
-1.1423 -2.18297 6.61365 0.5 0.5 0.5 1
5.61073 -1.41956 4.44153 1 1 1 1
5.61073 1.41956 4.44153 1 1 1 1
-2.15406 -1.03256 5.11159 0.5 0.5 0.5 1
1.11446 -2.09042 6.4171 0.5 0.5 0.5 1
3.75848 -1.45455 4.15353 1 1 1 1
3.75847 1.45455 4.15353 1 1 1 1
8.63953 -3.79231e-06 7.35941 0.5 0.5 0.5 1
-4.1441 -1.37469 4.35035 1 1 1 1
-4.14419 1.37382 4.35034 1 1 1 1
-1.63619 -1.8736 5.6994 0.5 0.5 0.5 1
-1.63579 1.87343 5.69952 0.5 0.5 0.5 1
0.420963 0.759619 1.63456 1 1 1 1
0.421023 -0.759519 1.63459 1 1 1 1

3 0 24 57
3 0 57 24
3 0 29 103
3 0 103 29
3 0 57 103
3 0 103 57
3 1 25 58
3 1 58 25
3 1 29 103
3 1 103 29
3 1 58 103
3 1 103 58
3 2 6 190
3 2 190 6
3 2 9 173
3 2 173 9
3 2 35 173
3 2 173 35
3 2 35 190
3 2 190 35
3 3 26 62
3 3 62 26
3 3 30 92
3 3 92 30
3 3 62 92
3 3 92 62
3 4 27 63
3 4 63 27
3 4 31 92
3 4 92 31
3 4 63 92
3 4 92 63
3 5 7 32
3 5 32 7
3 5 8 174
3 5 174 8
3 5 32 36
3 5 36 32
3 5 36 174
3 5 174 36
3 6 10 64
3 6 64 10
3 6 64 190
3 6 190 64
3 7 11 37
3 7 37 11
3 7 32 37
3 7 37 32
3 8 12 33
3 8 33 12
3 8 33 67
3 8 67 33
3 8 33 185
3 8 185 33
3 8 67 174
3 8 174 67
3 8 174 185
3 8 185 174
3 9 13 34
3 9 34 13
3 9 34 110
3 9 110 34
3 9 34 186
3 9 186 34
3 9 110 173
3 9 173 110
3 9 173 186
3 9 186 173
3 10 14 64
3 10 64 14
3 11 15 37
3 11 37 15
3 12 16 33
3 12 33 16
3 13 17 34
3 13 34 17
3 14 18 77
3 14 77 18
3 14 64 77
3 14 77 64
3 15 19 78
3 15 78 19
3 15 37 78
3 15 78 37
3 16 20 82
3 16 82 20
3 16 33 80
3 16 80 33
3 16 80 82
3 16 82 80
3 17 21 83
3 17 83 21
3 17 34 81
3 17 81 34
3 17 81 83
3 17 83 81
3 18 22 75
3 18 75 22
3 18 75 88
3 18 88 75
3 18 77 88
3 18 88 77
3 19 23 76
3 19 76 23
3 19 76 89
3 19 89 76
3 19 78 89
3 19 89 78
3 20 24 86
3 20 86 24
3 20 82 97
3 20 97 82
3 20 86 97
3 20 97 86
3 21 25 87
3 21 87 25
3 21 83 98
3 21 98 83
3 21 87 98
3 21 98 87
3 22 26 90
3 22 90 26
3 22 75 111
3 22 111 75
3 22 90 111
3 22 111 90
3 23 27 91
3 23 91 27
3 23 76 112
3 23 112 76
3 23 91 112
3 23 112 91
3 24 57 86
3 24 86 57
3 25 58 87
3 25 87 58
3 26 62 90
3 26 90 62
3 27 63 91
3 27 91 63
3 28 30 92
3 28 92 30
3 28 30 193
3 28 193 30
3 28 31 92
3 28 92 31
3 28 31 193
3 28 193 31
3 30 92 193
3 30 193 92
3 31 92 193
3 31 193 92
3 32 36 43
3 32 43 36
3 32 37 65
3 32 65 37
3 32 43 65
3 32 65 43
3 33 40 67
3 33 67 40
3 33 40 117
3 33 117 40
3 33 67 185
3 33 185 67
3 33 67 197
3 33 197 67
3 33 80 154
3 33 154 80
3 33 117 154
3 33 154 117
3 33 117 197
3 33 197 117
3 34 39 110
3 34 110 39
3 34 39 189
3 34 189 39
3 34 81 155
3 34 155 81
3 34 110 186
3 34 186 110
3 34 110 196
3 34 196 110
3 34 155 189
3 34 189 155
3 34 189 196
3 34 196 189
3 35 39 51
3 35 51 39
3 35 39 110
3 35 110 39
3 35 44 51
3 35 51 44
3 35 44 190
3 35 190 44
3 35 110 173
3 35 173 110
3 36 40 50
3 36 50 40
3 36 40 67
3 36 67 40
3 36 43 50
3 36 50 43
3 36 67 174
3 36 174 67
3 37 47 65
3 37 65 47
3 37 47 70
3 37 70 47
3 37 70 101
3 37 101 70
3 37 78 101
3 37 101 78
3 38 45 54
3 38 54 45
3 38 45 114
3 38 114 45
3 38 53 54
3 38 54 53
3 38 53 147
3 38 147 53
3 38 113 114
3 38 114 113
3 38 113 156
3 38 156 113
3 38 137 147
3 38 147 137
3 38 137 175
3 38 175 137
3 38 147 191
3 38 191 147
3 38 156 175
3 38 175 156
3 38 175 191
3 38 191 175
3 39 51 60
3 39 60 51
3 39 60 189
3 39 189 60
3 39 110 196
3 39 196 110
3 39 189 196
3 39 196 189
3 40 50 61
3 40 61 50
3 40 61 117
3 40 117 61
3 40 67 197
3 40 197 67
3 40 117 197
3 40 197 117
3 41 60 84
3 41 84 60
3 41 60 189
3 41 189 60
3 41 84 127
3 41 127 84
3 41 99 122
3 41 122 99
3 41 99 127
3 41 127 99
3 41 122 189
3 41 189 122
3 42 61 85
3 42 85 61
3 42 61 117
3 42 117 61
3 42 85 128
3 42 128 85
3 42 100 122
3 42 122 100
3 42 100 128
3 42 128 100
3 42 117 122
3 42 122 117
3 43 48 65
3 43 65 48
3 43 48 68
3 43 68 48
3 43 50 68
3 43 68 50
3 44 49 66
3 44 66 49
3 44 49 69
3 44 69 49
3 44 51 69
3 44 69 51
3 44 66 190
3 44 190 66
3 45 54 148
3 45 148 54
3 45 114 157
3 45 157 114
3 45 138 148
3 45 148 138
3 45 138 176
3 45 176 138
3 45 148 192
3 45 192 148
3 45 157 176
3 45 176 157
3 45 176 192
3 45 192 176
3 46 55 146
3 46 146 55
3 46 55 152
3 46 152 55
3 46 59 131
3 46 131 59
3 46 59 145
3 46 145 59
3 46 131 181
3 46 181 131
3 46 141 171
3 46 171 141
3 46 141 181
3 46 181 141
3 46 145 146
3 46 146 145
3 46 151 152
3 46 152 151
3 46 151 183
3 46 183 151
3 46 171 183
3 46 183 171
3 46 171 195
3 46 195 171
3 46 181 195
3 46 195 181
3 47 48 52
3 47 52 48
3 47 48 65
3 47 65 48
3 47 49 52
3 47 52 49
3 47 49 66
3 47 66 49
3 47 64 66
3 47 66 64
3 47 64 70
3 47 70 64
3 48 52 71
3 48 71 52
3 48 68 71
3 48 71 68
3 49 52 72
3 49 72 52
3 49 69 72
3 49 72 69
3 50 61 73
3 50 73 61
3 50 68 73
3 50 73 68
3 51 60 74
3 51 74 60
3 51 69 74
3 51 74 69
3 52 71 79
3 52 79 71
3 52 72 79
3 52 79 72
3 53 54 170
3 53 170 54
3 53 133 165
3 53 165 133
3 53 133 169
3 53 169 133
3 53 135 163
3 53 163 135
3 53 135 165
3 53 165 135
3 53 147 161
3 53 161 147
3 53 161 163
3 53 163 161
3 53 163 187
3 53 187 163
3 53 165 187
3 53 187 165
3 53 169 170
3 53 170 169
3 54 134 166
3 54 166 134
3 54 134 170
3 54 170 134
3 54 136 164
3 54 164 136
3 54 136 166
3 54 166 136
3 54 148 162
3 54 162 148
3 54 162 164
3 54 164 162
3 54 164 188
3 54 188 164
3 54 166 188
3 54 188 166
3 55 59 132
3 55 132 59
3 55 59 146
3 55 146 59
3 55 132 182
3 55 182 132
3 55 142 172
3 55 172 142
3 55 142 182
3 55 182 142
3 55 152 184
3 55 184 152
3 55 172 184
3 55 184 172
3 55 172 194
3 55 194 172
3 55 182 194
3 55 194 182
3 56 143 144
3 56 144 143
3 56 143 179
3 56 179 143
3 56 144 180
3 56 180 144
3 56 149 160
3 56 160 149
3 56 149 167
3 56 167 149
3 56 150 159
3 56 159 150
3 56 150 168
3 56 168 150
3 56 153 167
3 56 167 153
3 56 153 168
3 56 168 153
3 56 159 179
3 56 179 159
3 56 159 199
3 56 199 159
3 56 160 180
3 56 180 160
3 56 160 198
3 56 198 160
3 56 167 198
3 56 198 167
3 56 168 199
3 56 199 168
3 57 86 106
3 57 106 86
3 57 103 106
3 57 106 103
3 58 87 107
3 58 107 87
3 58 103 107
3 58 107 103
3 59 80 131
3 59 131 80
3 59 80 154
3 59 154 80
3 59 81 132
3 59 132 81
3 59 81 155
3 59 155 81
3 59 117 122
3 59 122 117
3 59 117 154
3 59 154 117
3 59 117 158
3 59 158 117
3 59 122 189
3 59 189 122
3 59 131 178
3 59 178 131
3 59 132 177
3 59 177 132
3 59 145 146
3 59 146 145
3 59 154 178
3 59 178 154
3 59 155 177
3 59 177 155
3 59 155 189
3 59 189 155
3 59 158 189
3 59 189 158
3 60 74 84
3 60 84 74
3 61 73 85
3 61 85 73
3 62 90 95
3 62 95 90
3 62 92 95
3 62 95 92
3 63 91 96
3 63 96 91
3 63 92 96
3 63 96 92
3 64 66 190
3 64 190 66
3 64 70 102
3 64 102 70
3 64 77 102
3 64 102 77
3 67 174 185
3 67 185 174
3 68 71 108
3 68 108 71
3 68 73 108
3 68 108 73
3 69 72 109
3 69 109 72
3 69 74 109
3 69 109 74
3 70 101 157
3 70 157 101
3 70 102 156
3 70 156 102
3 70 113 114
3 70 114 113
3 70 113 156
3 70 156 113
3 70 114 157
3 70 157 114
3 71 79 120
3 71 120 79
3 71 108 120
3 71 120 108
3 72 79 121
3 72 121 79
3 72 109 121
3 72 121 109
3 73 85 115
3 73 115 85
3 73 108 115
3 73 115 108
3 74 84 116
3 74 116 84
3 74 109 116
3 74 116 109
3 75 88 137
3 75 137 88
3 75 111 161
3 75 161 111
3 75 137 147
3 75 147 137
3 75 147 161
3 75 161 147
3 76 89 138
3 76 138 89
3 76 112 162
3 76 162 112
3 76 138 148
3 76 148 138
3 76 148 162
3 76 162 148
3 77 88 118
3 77 118 88
3 77 102 118
3 77 118 102
3 78 89 119
3 78 119 89
3 78 101 119
3 78 119 101
3 79 120 153
3 79 153 120
3 79 121 153
3 79 153 121
3 80 82 123
3 80 123 82
3 80 123 131
3 80 131 123
3 80 131 178
3 80 178 131
3 80 154 178
3 80 178 154
3 81 83 124
3 81 124 83
3 81 124 132
3 81 132 124
3 81 132 177
3 81 177 132
3 81 155 177
3 81 177 155
3 82 97 123
3 82 123 97
3 83 98 124
3 83 124 98
3 84 116 127
3 84 127 116
3 85 115 128
3 85 128 115
3 86 97 125
3 86 125 97
3 86 106 125
3 86 125 106
3 87 98 126
3 87 126 98
3 87 107 126
3 87 126 107
3 88 118 137
3 88 137 118
3 89 119 138
3 89 138 119
3 90 95 129
3 90 129 95
3 90 111 135
3 90 135 111
3 90 129 135
3 90 135 129
3 91 96 130
3 91 130 96
3 91 112 136
3 91 136 112
3 91 130 136
3 91 136 130
3 92 93 94
3 92 94 93
3 92 93 95
3 92 95 93
3 92 94 96
3 92 96 94
3 93 94 134
3 93 134 94
3 93 95 129
3 93 129 95
3 93 129 165
3 93 165 129
3 93 133 134
3 93 134 133
3 93 133 165
3 93 165 133
3 94 96 130
3 94 130 96
3 94 130 166
3 94 166 130
3 94 134 166
3 94 166 134
3 97 123 141
3 97 141 123
3 97 125 141
3 97 141 125
3 98 124 142
3 98 142 124
3 98 126 142
3 98 142 126
3 99 100 122
3 99 122 100
3 99 100 144
3 99 144 100
3 99 127 179
3 99 179 127
3 99 143 144
3 99 144 143
3 99 143 179
3 99 179 143
3 100 128 180
3 100 180 128
3 100 144 180
3 100 180 144
3 101 119 157
3 101 157 119
3 102 118 156
3 102 156 118
3 103 104 105
3 103 105 104
3 103 104 106
3 103 106 104
3 103 105 107
3 103 107 105
3 104 105 152
3 104 152 105
3 104 106 139
3 104 139 106
3 104 139 183
3 104 183 139
3 104 151 152
3 104 152 151
3 104 151 183
3 104 183 151
3 105 107 140
3 105 140 107
3 105 140 184
3 105 184 140
3 105 152 184
3 105 184 152
3 106 125 139
3 106 139 125
3 107 126 140
3 107 140 126
3 108 115 149
3 108 149 115
3 108 120 149
3 108 149 120
3 109 116 150
3 109 150 116
3 109 121 150
3 109 150 121
3 110 173 186
3 110 186 173
3 111 135 163
3 111 163 135
3 111 161 163
3 111 163 161
3 112 136 164
3 112 164 136
3 112 162 164
3 112 164 162
3 115 128 160
3 115 160 128
3 115 149 160
3 115 160 149
3 116 127 159
3 116 159 127
3 116 150 159
3 116 159 150
3 117 122 158
3 117 158 122
3 118 137 175
3 118 175 137
3 118 156 175
3 118 175 156
3 119 138 176
3 119 176 138
3 119 157 176
3 119 176 157
3 120 149 167
3 120 167 149
3 120 153 167
3 120 167 153
3 121 150 168
3 121 168 150
3 121 153 168
3 121 168 153
3 122 158 189
3 122 189 158
3 123 131 181
3 123 181 131
3 123 141 181
3 123 181 141
3 124 132 182
3 124 182 132
3 124 142 182
3 124 182 142
3 125 139 171
3 125 171 139
3 125 141 171
3 125 171 141
3 126 140 172
3 126 172 140
3 126 142 172
3 126 172 142
3 127 159 179
3 127 179 159
3 128 160 180
3 128 180 160
3 129 135 165
3 129 165 135
3 130 136 166
3 130 166 136
3 133 134 170
3 133 170 134
3 133 169 170
3 133 170 169
3 135 163 187
3 135 187 163
3 135 165 187
3 135 187 165
3 136 164 188
3 136 188 164
3 136 166 188
3 136 188 166
3 137 147 191
3 137 191 147
3 137 175 191
3 137 191 175
3 138 148 192
3 138 192 148
3 138 176 192
3 138 192 176
3 139 171 183
3 139 183 171
3 140 172 184
3 140 184 172
3 141 171 195
3 141 195 171
3 141 181 195
3 141 195 181
3 142 172 194
3 142 194 172
3 142 182 194
3 142 194 182
3 149 160 198
3 149 198 160
3 149 167 198
3 149 198 167
3 150 159 199
3 150 199 159
3 150 168 199
3 150 199 168
