COFF
27 72 27

-3.80026 0.65203 2.44604 0.5 0.5 0.5 1
-3.80026 -0.65203 2.44604 0.5 0.5 0.5 1
-0.0245627 -1.39412 2.33137 0.5 0.5 0.5 1
4.11257 -0.642874 2.46359 0.5 0.5 0.5 1
4.11257 0.642874 2.46359 0.5 0.5 0.5 1
-0.0245627 1.39412 2.33137 0.5 0.5 0.5 1
0.939076 -1.10277 2.3491 0.5 0.5 0.5 1
0.939076 1.10277 2.3491 0.5 0.5 0.5 1
-0.988659 1.09178 2.34978 0.5 0.5 0.5 1
-0.988659 -1.09178 2.34978 0.5 0.5 0.5 1
1.89724 -0.893537 2.54393 0.5 0.5 0.5 1
1.89724 0.893537 2.54393 0.5 0.5 0.5 1
-1.9571 0.900376 2.50475 0.5 0.5 0.5 1
-1.9571 -0.900376 2.50475 0.5 0.5 0.5 1
2.9357 -0.770126 2.49873 0.5 0.5 0.5 1
2.9357 0.770126 2.49873 0.5 0.5 0.5 1
-1.65416 0.76459 1.78732 0.5 0.5 0.5 1
-1.65416 -0.76459 1.78732 0.5 0.5 0.5 1
1.73071 0.755282 1.79852 0.5 0.5 0.5 1
2.97368 -0.63247 1.87782 0.5 0.5 0.5 1
2.97368 0.63247 1.87782 0.5 0.5 0.5 1
-2.86127 0.658182 1.91162 0.5 0.5 0.5 1
-2.86127 -0.658182 1.91162 0.5 0.5 0.5 1
-0.000536651 1.81622e-17 1.0221 1 1 0 1
1.73071 -0.755282 1.79852 0.5 0.5 0.5 1
0.891136 0.387634 1.39681 0.5 0.5 0.5 1
0.891136 -0.387634 1.39681 0.5 0.5 0.5 1

3 0 1 22
3 0 22 1
3 0 12 16
3 0 16 12
3 0 16 21
3 0 21 16
3 0 21 22
3 0 22 21
3 1 13 17
3 1 17 13
3 1 17 22
3 1 22 17
3 2 6 23
3 2 23 6
3 2 9 23
3 2 23 9
3 3 4 20
3 3 20 4
3 3 14 19
3 3 19 14
3 3 19 20
3 3 20 19
3 4 15 20
3 4 20 15
3 5 7 23
3 5 23 7
3 5 8 23
3 5 23 8
3 6 10 24
3 6 24 10
3 6 23 26
3 6 26 23
3 6 24 26
3 6 26 24
3 7 11 18
3 7 18 11
3 7 18 25
3 7 25 18
3 7 23 25
3 7 25 23
3 8 12 16
3 8 16 12
3 8 16 23
3 8 23 16
3 9 13 17
3 9 17 13
3 9 17 23
3 9 23 17
3 10 14 24
3 10 24 14
3 11 15 18
3 11 18 15
3 14 19 24
3 14 24 19
3 15 18 20
3 15 20 18
3 16 17 22
3 16 22 17
3 16 17 23
3 16 23 17
3 16 21 22
3 16 22 21
3 18 19 20
3 18 20 19
3 18 19 24
3 18 24 19
3 18 24 26
3 18 26 24
3 18 25 26
3 18 26 25
3 23 25 26
3 23 26 25
