COFF
37 116 37

-4.26781 0.679435 2.82329 0.5 0.5 0.5 1
-4.26781 -0.679435 2.82329 0.5 0.5 0.5 1
-0.0253169 -1.49836 2.64248 0.5 0.5 0.5 1
4.59359 -0.666907 2.84686 0.5 0.5 0.5 1
4.59359 0.666907 2.84686 0.5 0.5 0.5 1
-0.0253169 1.49836 2.64248 0.5 0.5 0.5 1
0.965922 -1.21557 2.72021 0.5 0.5 0.5 1
0.965922 1.21557 2.72021 0.5 0.5 0.5 1
-1.00734 1.19811 2.70327 0.5 0.5 0.5 1
-1.00734 -1.19811 2.70327 0.5 0.5 0.5 1
1.90914 -0.946759 2.91559 0.5 0.5 0.5 1
1.90914 0.946759 2.91559 0.5 0.5 0.5 1
-1.96063 0.958709 2.88635 0.5 0.5 0.5 1
-1.96063 -0.958709 2.88635 0.5 0.5 0.5 1
3.01135 -0.815608 2.88224 0.5 0.5 0.5 1
3.01135 0.815608 2.88224 0.5 0.5 0.5 1
-2.97002 0.824711 2.84778 0.5 0.5 0.5 1
-2.97002 -0.824711 2.84778 0.5 0.5 0.5 1
1.98179 0.814505 2.10503 0.5 0.5 0.5 1
3.21678 -0.673827 2.21224 0.5 0.5 0.5 1
3.21678 0.673827 2.21224 0.5 0.5 0.5 1
-3.15504 0.683417 2.183 0.5 0.5 0.5 1
-3.15504 -0.683417 2.183 0.5 0.5 0.5 1
-0.0085133 -1.97431e-17 1.0221 1 1 0 1
1.98179 -0.814505 2.10503 0.5 0.5 0.5 1
1.03477 0.654374 1.54004 0.5 0.5 0.5 1
1.03477 -0.654374 1.54004 0.5 0.5 0.5 1
-0.63531 0.947032 1.96394 0.5 0.5 0.5 1
-0.63531 -0.947032 1.96394 0.5 0.5 0.5 1
-1.3626 0.472102 1.43146 0.5 0.5 0.5 1
-1.3626 -0.472102 1.43146 0.5 0.5 0.5 1
0.696338 -0.861589 1.8506 0.5 0.5 0.5 1
0.696338 0.861589 1.8506 0.5 0.5 0.5 1
-1.91474 0.827973 2.08972 0.5 0.5 0.5 1
-1.91474 -0.827973 2.08972 0.5 0.5 0.5 1
-0.0388747 -0.950203 1.8468 0.5 0.5 0.5 1
-0.0388747 0.950203 1.8468 0.5 0.5 0.5 1

3 0 1 22
3 0 22 1
3 0 16 21
3 0 21 16
3 0 21 22
3 0 22 21
3 1 17 22
3 1 22 17
3 2 6 31
3 2 31 6
3 2 9 28
3 2 28 9
3 2 23 28
3 2 28 23
3 2 23 31
3 2 31 23
3 2 28 35
3 2 35 28
3 2 31 35
3 2 35 31
3 3 4 20
3 3 20 4
3 3 14 19
3 3 19 14
3 3 19 20
3 3 20 19
3 4 15 20
3 4 20 15
3 5 7 32
3 5 32 7
3 5 8 27
3 5 27 8
3 5 23 27
3 5 27 23
3 5 23 32
3 5 32 23
3 5 27 36
3 5 36 27
3 5 32 36
3 5 36 32
3 6 10 24
3 6 24 10
3 6 24 31
3 6 31 24
3 7 11 18
3 7 18 11
3 7 18 32
3 7 32 18
3 8 12 33
3 8 33 12
3 8 27 33
3 8 33 27
3 9 13 34
3 9 34 13
3 9 28 34
3 9 34 28
3 10 14 24
3 10 24 14
3 11 15 18
3 11 18 15
3 12 16 33
3 12 33 16
3 13 17 34
3 13 34 17
3 14 19 24
3 14 24 19
3 15 18 20
3 15 20 18
3 16 21 33
3 16 33 21
3 17 22 34
3 17 34 22
3 18 19 20
3 18 20 19
3 18 19 24
3 18 24 19
3 18 24 26
3 18 26 24
3 18 25 26
3 18 26 25
3 18 25 32
3 18 32 25
3 21 22 34
3 21 34 22
3 21 33 34
3 21 34 33
3 23 25 26
3 23 26 25
3 23 25 32
3 23 32 25
3 23 26 31
3 23 31 26
3 23 27 33
3 23 33 27
3 23 27 36
3 23 36 27
3 23 28 34
3 23 34 28
3 23 28 35
3 23 35 28
3 23 29 30
3 23 30 29
3 23 29 33
3 23 33 29
3 23 30 34
3 23 34 30
3 23 31 35
3 23 35 31
3 23 32 36
3 23 36 32
3 24 26 31
3 24 31 26
3 29 30 34
3 29 34 30
3 29 33 34
3 29 34 33
