COFF
71 236 71

-6.26109 0.806816 4.71544 0.5 0.5 0.5 1
-6.26109 -0.806816 4.71544 0.5 0.5 0.5 1
-0.0274144 -1.84999 4.33726 0.5 0.5 0.5 1
7.20477 -0.826619 4.69655 0.5 0.5 0.5 1
7.20477 0.826619 4.69655 0.5 0.5 0.5 1
-0.0274144 1.84999 4.33726 0.5 0.5 0.5 1
1.05772 -1.50607 4.50715 0.5 0.5 0.5 1
1.05772 1.50607 4.50715 0.5 0.5 0.5 1
-1.09942 1.49889 4.46714 0.5 0.5 0.5 1
-1.09942 -1.49889 4.46714 0.5 0.5 0.5 1
1.96427 -1.16905 4.76232 0.5 0.5 0.5 1
1.96427 1.16905 4.76232 0.5 0.5 0.5 1
-2.01615 1.19103 4.72076 0.5 0.5 0.5 1
-2.01615 -1.19103 4.72076 0.5 0.5 0.5 1
3.03673 -1.09356 4.76217 0.5 0.5 0.5 1
3.03673 1.09356 4.76217 0.5 0.5 0.5 1
-3.00969 1.08907 4.70007 0.5 0.5 0.5 1
-3.00969 -1.08907 4.70007 0.5 0.5 0.5 1
4.03383 -1.04084 4.79631 0.5 0.5 0.5 1
4.03383 1.04084 4.79631 0.5 0.5 0.5 1
-4.00456 0.999769 4.72625 0.5 0.5 0.5 1
-4.00456 -0.999769 4.72625 0.5 0.5 0.5 1
5.02924 -0.99631 4.71497 0.5 0.5 0.5 1
5.02924 0.99631 4.71497 0.5 0.5 0.5 1
-5.00074 0.910738 4.71317 0.5 0.5 0.5 1
-5.00074 -0.910738 4.71317 0.5 0.5 0.5 1
6.03966 -0.917457 4.69782 0.5 0.5 0.5 1
6.03966 0.917457 4.69782 0.5 0.5 0.5 1
-1.12984 -1.44764 3.60448 0.5 0.5 0.5 1
-1.85694 0.770048 2.57859 0.5 0.5 0.5 1
-1.85694 -0.770048 2.57859 0.5 0.5 0.5 1
1.06501 -1.43852 3.44202 0.5 0.5 0.5 1
1.06501 1.43852 3.44202 0.5 0.5 0.5 1
-2.25951 1.07989 3.65237 0.5 0.5 0.5 1
-2.25951 -1.07989 3.65237 0.5 0.5 0.5 1
0.00636446 -1.57651 3.2129 0.5 0.5 0.5 1
0.00636446 1.57651 3.2129 0.5 0.5 0.5 1
2.27212 1.02239 3.72118 0.5 0.5 0.5 1
3.92509 -0.618615 3.41973 1 1 0 1
-0.672285 -1.37707 2.71108 0.5 0.5 0.5 1
-0.672285 1.37707 2.71108 0.5 0.5 0.5 1
-1.51187 -0.67004 1.58848 0.5 0.5 0.5 1
-1.51187 0.67004 1.58848 0.5 0.5 0.5 1
0.890933 1.32125 2.3999 0.5 0.5 0.5 1
0.890933 -1.32125 2.3999 0.5 0.5 0.5 1
3.92509 0.618615 3.41973 1 1 0 1
-3.88105 0.660474 3.50266 1 1 0 1
1.91207 -3.06781e-14 2.82169 0.5 0.5 0.5 1
1.27928 0.915376 2.12861 0.5 0.5 0.5 1
1.27928 -0.915376 2.12861 0.5 0.5 0.5 1
0.0362312 1.35209 2.29311 0.5 0.5 0.5 1
0.0362312 -1.35209 2.29311 0.5 0.5 0.5 1
1.44272 -3.1639e-15 1.99202 0.5 0.5 0.5 1
4.7875 -0.670774 3.7806 1 1 0 1
4.7875 0.670774 3.7806 1 1 0 1
-3.88105 -0.660474 3.50266 1 1 0 1
0.0406939 -6.52075e-17 1.0221 1 1 0 1
-5.13978 0.743947 4.03511 0.5 0.5 0.5 1
-5.13978 -0.743947 4.03511 0.5 0.5 0.5 1
-2.45682 -6.71964e-17 3.33852 0.5 0.5 0.5 1
-0.328173 -0.959889 1.92295 0.5 0.5 0.5 1
-0.328173 0.959889 1.92295 0.5 0.5 0.5 1
6.09046 -0.760645 4.17693 0.5 0.5 0.5 1
6.09046 0.760645 4.17693 0.5 0.5 0.5 1
2.27212 -1.02239 3.72118 0.5 0.5 0.5 1
1.56889 1.24144 2.96582 0.5 0.5 0.5 1
1.56889 -1.24144 2.96582 0.5 0.5 0.5 1
-1.12984 1.44764 3.60448 0.5 0.5 0.5 1
0.552892 0.762056 1.68854 0.5 0.5 0.5 1
0.552892 -0.762056 1.68854 0.5 0.5 0.5 1
2.27232 -4.00007e-13 3.69688 0.5 0.5 0.5 1

3 0 1 58
3 0 58 1
3 0 24 57
3 0 57 24
3 0 57 58
3 0 58 57
3 1 25 58
3 1 58 25
3 2 6 31
3 2 31 6
3 2 9 28
3 2 28 9
3 2 28 35
3 2 35 28
3 2 31 35
3 2 35 31
3 3 4 63
3 3 63 4
3 3 26 62
3 3 62 26
3 3 62 63
3 3 63 62
3 4 27 63
3 4 63 27
3 5 7 32
3 5 32 7
3 5 8 67
3 5 67 8
3 5 32 36
3 5 36 32
3 5 36 67
3 5 67 36
3 6 10 64
3 6 64 10
3 6 31 64
3 6 64 31
3 7 11 37
3 7 37 11
3 7 32 37
3 7 37 32
3 8 12 33
3 8 33 12
3 8 33 67
3 8 67 33
3 9 13 34
3 9 34 13
3 9 28 34
3 9 34 28
3 10 14 64
3 10 64 14
3 11 15 37
3 11 37 15
3 12 16 33
3 12 33 16
3 13 17 34
3 13 34 17
3 14 18 38
3 14 38 18
3 14 38 64
3 14 64 38
3 15 19 45
3 15 45 19
3 15 37 45
3 15 45 37
3 16 20 46
3 16 46 20
3 16 33 46
3 16 46 33
3 17 21 55
3 17 55 21
3 17 34 55
3 17 55 34
3 18 22 38
3 18 38 22
3 19 23 45
3 19 45 23
3 20 24 46
3 20 46 24
3 21 25 55
3 21 55 25
3 22 26 53
3 22 53 26
3 22 38 53
3 22 53 38
3 23 27 54
3 23 54 27
3 23 45 54
3 23 54 45
3 24 46 57
3 24 57 46
3 25 55 58
3 25 58 55
3 26 53 62
3 26 62 53
3 27 54 63
3 27 63 54
3 28 34 39
3 28 39 34
3 28 35 39
3 28 39 35
3 29 30 41
3 29 41 30
3 29 30 59
3 29 59 30
3 29 33 40
3 29 40 33
3 29 33 59
3 29 59 33
3 29 40 61
3 29 61 40
3 29 41 42
3 29 42 41
3 29 42 61
3 29 61 42
3 30 34 39
3 30 39 34
3 30 34 59
3 30 59 34
3 30 39 60
3 30 60 39
3 30 41 60
3 30 60 41
3 31 35 44
3 31 44 35
3 31 44 66
3 31 66 44
3 31 64 66
3 31 66 64
3 32 36 43
3 32 43 36
3 32 37 65
3 32 65 37
3 32 43 65
3 32 65 43
3 33 40 67
3 33 67 40
3 33 46 59
3 33 59 46
3 34 55 59
3 34 59 55
3 35 39 51
3 35 51 39
3 35 44 51
3 35 51 44
3 36 40 50
3 36 50 40
3 36 40 67
3 36 67 40
3 36 43 50
3 36 50 43
3 37 45 70
3 37 70 45
3 37 47 65
3 37 65 47
3 37 47 70
3 37 70 47
3 38 45 54
3 38 54 45
3 38 45 70
3 38 70 45
3 38 53 54
3 38 54 53
3 38 64 70
3 38 70 64
3 39 51 60
3 39 60 51
3 40 50 61
3 40 61 50
3 41 42 56
3 41 56 42
3 41 56 60
3 41 60 56
3 42 56 61
3 42 61 56
3 43 48 56
3 43 56 48
3 43 48 65
3 43 65 48
3 43 48 68
3 43 68 48
3 43 50 56
3 43 56 50
3 43 50 68
3 43 68 50
3 44 49 56
3 44 56 49
3 44 49 66
3 44 66 49
3 44 49 69
3 44 69 49
3 44 51 56
3 44 56 51
3 44 51 69
3 44 69 51
3 46 55 58
3 46 58 55
3 46 55 59
3 46 59 55
3 46 57 58
3 46 58 57
3 47 48 52
3 47 52 48
3 47 48 56
3 47 56 48
3 47 48 65
3 47 65 48
3 47 49 52
3 47 52 49
3 47 49 56
3 47 56 49
3 47 49 66
3 47 66 49
3 47 64 66
3 47 66 64
3 47 64 70
3 47 70 64
3 48 52 56
3 48 56 52
3 48 56 68
3 48 68 56
3 49 52 56
3 49 56 52
3 49 56 69
3 49 69 56
3 50 56 61
3 50 61 56
3 50 56 68
3 50 68 56
3 51 56 60
3 51 60 56
3 51 56 69
3 51 69 56
3 53 54 63
3 53 63 54
3 53 62 63
3 53 63 62
