COFF
75 256 75

-6.31385 0.854299 5.05721 0.5 0.5 0.5 1
-6.31385 -0.854299 5.05721 0.5 0.5 0.5 1
-0.0277477 -1.91103 4.68065 0.5 0.5 0.5 1
7.27461 -0.889331 5.01468 0.5 0.5 0.5 1
7.27461 0.889331 5.01468 0.5 0.5 0.5 1
-0.0277477 1.91103 4.68065 0.5 0.5 0.5 1
1.074 -1.56877 4.84841 0.5 0.5 0.5 1
1.074 1.56877 4.84841 0.5 0.5 0.5 1
-1.10943 1.56029 4.80988 0.5 0.5 0.5 1
-1.10943 -1.56029 4.80988 0.5 0.5 0.5 1
1.98299 -1.23803 5.10286 0.5 0.5 0.5 1
1.98299 1.23803 5.10286 0.5 0.5 0.5 1
-2.02666 1.25568 5.06639 0.5 0.5 0.5 1
-2.02666 -1.25568 5.06639 0.5 0.5 0.5 1
3.03469 -1.21801 5.04819 0.5 0.5 0.5 1
3.03469 1.21801 5.04819 0.5 0.5 0.5 1
-3.02226 1.20222 4.99588 0.5 0.5 0.5 1
-3.02226 -1.20222 4.99588 0.5 0.5 0.5 1
4.03398 -1.19061 5.0663 0.5 0.5 0.5 1
4.03398 1.19061 5.0663 0.5 0.5 0.5 1
-4.01905 1.12422 5.01496 0.5 0.5 0.5 1
-4.01905 -1.12422 5.01496 0.5 0.5 0.5 1
5.03169 -1.17599 4.95569 0.5 0.5 0.5 1
5.03169 1.17599 4.95569 0.5 0.5 0.5 1
-5.01361 1.01919 5.01577 0.5 0.5 0.5 1
-5.01361 -1.01919 5.01577 0.5 0.5 0.5 1
6.05393 -1.05635 4.9693 0.5 0.5 0.5 1
6.05393 1.05635 4.9693 0.5 0.5 0.5 1
-1.08167 -1.51796 3.92417 0.5 0.5 0.5 1
-1.89769 0.801866 2.84264 0.5 0.5 0.5 1
-1.89769 -0.801866 2.84264 0.5 0.5 0.5 1
1.03034 -1.50242 3.7327 0.5 0.5 0.5 1
1.03034 1.50242 3.7327 0.5 0.5 0.5 1
-2.21591 1.16194 3.94506 0.5 0.5 0.5 1
-2.21591 -1.16194 3.94506 0.5 0.5 0.5 1
0.0175642 -1.63604 3.50866 0.5 0.5 0.5 1
0.0175642 1.63604 3.50866 0.5 0.5 0.5 1
2.23952 1.10926 4.03465 0.5 0.5 0.5 1
3.92641 -0.61888 3.41973 1 1 0 1
-0.748145 -1.46351 3.02716 0.5 0.5 0.5 1
-0.748145 1.46351 3.02716 0.5 0.5 0.5 1
-1.45656 -0.724129 1.70578 0.5 0.5 0.5 1
-1.45656 0.724129 1.70578 0.5 0.5 0.5 1
0.924891 1.43572 2.68346 0.5 0.5 0.5 1
0.924891 -1.43572 2.68346 0.5 0.5 0.5 1
3.92641 0.61888 3.41973 1 1 0 1
-4.00588 0.660682 3.50266 1 1 0 1
1.99286 1.28675e-15 3.11894 0.5 0.5 0.5 1
1.35011 1.02048 2.39349 0.5 0.5 0.5 1
1.35011 -1.02048 2.39349 0.5 0.5 0.5 1
0.0835542 1.47336 2.54957 0.5 0.5 0.5 1
0.0835542 -1.47336 2.54957 0.5 0.5 0.5 1
1.57533 -1.53453e-15 2.23578 0.5 0.5 0.5 1
4.78861 -0.671166 3.7806 1 1 0 1
4.78861 0.671166 3.7806 1 1 0 1
-4.00588 -0.660682 3.50266 1 1 0 1
0.0574824 -1.66895e-16 1.0221 1 1 0 1
-5.36009 0.832218 4.30488 0.5 0.5 0.5 1
-5.36009 -0.832218 4.30488 0.5 0.5 0.5 1
-2.57936 -2.88523e-16 3.35819 0.5 0.5 0.5 1
-0.417445 -1.22827 2.22866 0.5 0.5 0.5 1
-0.417445 1.22827 2.22866 0.5 0.5 0.5 1
6.3623 -0.874636 4.39216 0.5 0.5 0.5 1
6.3623 0.874636 4.39216 0.5 0.5 0.5 1
2.23952 -1.10926 4.03465 0.5 0.5 0.5 1
1.54969 1.30156 3.29775 0.5 0.5 0.5 1
1.54969 -1.30156 3.29775 0.5 0.5 0.5 1
-1.08167 1.51796 3.92417 0.5 0.5 0.5 1
0.717056 1.04427 1.85598 0.5 0.5 0.5 1
0.717056 -1.04427 1.85598 0.5 0.5 0.5 1
2.23984 -4.33017e-17 3.90061 0.5 0.5 0.5 1
0.929679 0.609115 1.67252 0.5 0.5 0.5 1
0.929679 -0.609115 1.67252 0.5 0.5 0.5 1
0.0207066 0.907213 1.76939 0.5 0.5 0.5 1
0.0207066 -0.907213 1.76939 0.5 0.5 0.5 1

3 0 1 58
3 0 58 1
3 0 24 57
3 0 57 24
3 0 57 58
3 0 58 57
3 1 25 58
3 1 58 25
3 2 6 31
3 2 31 6
3 2 9 28
3 2 28 9
3 2 28 35
3 2 35 28
3 2 31 35
3 2 35 31
3 3 4 63
3 3 63 4
3 3 26 62
3 3 62 26
3 3 62 63
3 3 63 62
3 4 27 63
3 4 63 27
3 5 7 32
3 5 32 7
3 5 8 67
3 5 67 8
3 5 32 36
3 5 36 32
3 5 36 67
3 5 67 36
3 6 10 64
3 6 64 10
3 6 31 64
3 6 64 31
3 7 11 37
3 7 37 11
3 7 32 37
3 7 37 32
3 8 12 33
3 8 33 12
3 8 33 67
3 8 67 33
3 9 13 34
3 9 34 13
3 9 28 34
3 9 34 28
3 10 14 64
3 10 64 14
3 11 15 37
3 11 37 15
3 12 16 33
3 12 33 16
3 13 17 34
3 13 34 17
3 14 18 38
3 14 38 18
3 14 38 64
3 14 64 38
3 15 19 45
3 15 45 19
3 15 37 45
3 15 45 37
3 16 20 46
3 16 46 20
3 16 33 46
3 16 46 33
3 17 21 55
3 17 55 21
3 17 34 55
3 17 55 34
3 18 22 38
3 18 38 22
3 19 23 45
3 19 45 23
3 20 24 46
3 20 46 24
3 21 25 55
3 21 55 25
3 22 26 53
3 22 53 26
3 22 38 53
3 22 53 38
3 23 27 54
3 23 54 27
3 23 45 54
3 23 54 45
3 24 46 57
3 24 57 46
3 25 55 58
3 25 58 55
3 26 53 62
3 26 62 53
3 27 54 63
3 27 63 54
3 28 34 39
3 28 39 34
3 28 35 39
3 28 39 35
3 29 30 41
3 29 41 30
3 29 30 59
3 29 59 30
3 29 33 40
3 29 40 33
3 29 33 59
3 29 59 33
3 29 40 61
3 29 61 40
3 29 41 42
3 29 42 41
3 29 42 61
3 29 61 42
3 30 34 39
3 30 39 34
3 30 34 59
3 30 59 34
3 30 39 60
3 30 60 39
3 30 41 60
3 30 60 41
3 31 35 44
3 31 44 35
3 31 44 66
3 31 66 44
3 31 64 66
3 31 66 64
3 32 36 43
3 32 43 36
3 32 37 65
3 32 65 37
3 32 43 65
3 32 65 43
3 33 40 67
3 33 67 40
3 33 46 59
3 33 59 46
3 34 55 59
3 34 59 55
3 35 39 51
3 35 51 39
3 35 44 51
3 35 51 44
3 36 40 50
3 36 50 40
3 36 40 67
3 36 67 40
3 36 43 50
3 36 50 43
3 37 45 70
3 37 70 45
3 37 47 65
3 37 65 47
3 37 47 70
3 37 70 47
3 38 45 54
3 38 54 45
3 38 45 70
3 38 70 45
3 38 53 54
3 38 54 53
3 38 64 70
3 38 70 64
3 39 51 60
3 39 60 51
3 40 50 61
3 40 61 50
3 41 42 56
3 41 56 42
3 41 56 60
3 41 60 56
3 42 56 61
3 42 61 56
3 43 48 65
3 43 65 48
3 43 48 68
3 43 68 48
3 43 50 68
3 43 68 50
3 44 49 66
3 44 66 49
3 44 49 69
3 44 69 49
3 44 51 69
3 44 69 51
3 46 55 58
3 46 58 55
3 46 55 59
3 46 59 55
3 46 57 58
3 46 58 57
3 47 48 52
3 47 52 48
3 47 48 65
3 47 65 48
3 47 49 52
3 47 52 49
3 47 49 66
3 47 66 49
3 47 64 66
3 47 66 64
3 47 64 70
3 47 70 64
3 48 52 56
3 48 56 52
3 48 52 71
3 48 71 52
3 48 56 68
3 48 68 56
3 48 68 71
3 48 71 68
3 49 52 56
3 49 56 52
3 49 52 72
3 49 72 52
3 49 56 69
3 49 69 56
3 49 69 72
3 49 72 69
3 50 56 61
3 50 61 56
3 50 56 68
3 50 68 56
3 50 61 73
3 50 73 61
3 50 68 73
3 50 73 68
3 51 56 60
3 51 60 56
3 51 56 69
3 51 69 56
3 51 60 74
3 51 74 60
3 51 69 74
3 51 74 69
3 52 56 71
3 52 71 56
3 52 56 72
3 52 72 56
3 53 54 63
3 53 63 54
3 53 62 63
3 53 63 62
3 56 60 74
3 56 74 60
3 56 61 73
3 56 73 61
3 56 68 71
3 56 71 68
3 56 68 73
3 56 73 68
3 56 69 72
3 56 72 69
3 56 69 74
3 56 74 69
