COFF
92 352 92

-6.37186 0.904244 5.3916 0.5 0.5 0.5 1
-6.37186 -0.904244 5.3916 0.5 0.5 0.5 1
-0.028184 -1.97391 5.02065 0.5 0.5 0.5 1
7.34603 -0.9498 5.33077 0.5 0.5 0.5 1
7.34603 0.9498 5.33077 0.5 0.5 0.5 1
-0.028184 1.97391 5.02065 0.5 0.5 0.5 1
1.09009 -1.63608 5.18341 0.5 0.5 0.5 1
1.09009 1.63608 5.18341 0.5 0.5 0.5 1
-1.12198 1.62441 5.1481 0.5 0.5 0.5 1
-1.12198 -1.62441 5.1481 0.5 0.5 0.5 1
2.00169 -1.31189 5.43691 0.5 0.5 0.5 1
2.00169 1.31189 5.43691 0.5 0.5 0.5 1
-2.04059 1.32472 5.40556 0.5 0.5 0.5 1
-2.04059 -1.32472 5.40556 0.5 0.5 0.5 1
3.03441 -1.33496 5.34512 0.5 0.5 0.5 1
3.03441 1.33496 5.34512 0.5 0.5 0.5 1
-3.03342 1.31491 5.28973 0.5 0.5 0.5 1
-3.03342 -1.31491 5.28973 0.5 0.5 0.5 1
4.03661 -1.34349 5.32022 0.5 0.5 0.5 1
4.03661 1.34349 5.32022 0.5 0.5 0.5 1
-4.03177 1.25365 5.29266 0.5 0.5 0.5 1
-4.03177 -1.25365 5.29266 0.5 0.5 0.5 1
5.04417 -1.34492 5.19309 0.5 0.5 0.5 1
5.04417 1.34492 5.19309 0.5 0.5 0.5 1
-5.02845 1.13242 5.31059 0.5 0.5 0.5 1
-5.02845 -1.13242 5.31059 0.5 0.5 0.5 1
6.07488 -1.19699 5.23472 0.5 0.5 0.5 1
6.07488 1.19699 5.23472 0.5 0.5 0.5 1
-1.05563 -1.58611 4.23989 0.5 0.5 0.5 1
-1.93139 0.862788 3.09602 0.5 0.5 0.5 1
-1.93139 -0.862788 3.09602 0.5 0.5 0.5 1
1.06527 -1.55611 4.03568 0.5 0.5 0.5 1
1.06527 1.55611 4.03568 0.5 0.5 0.5 1
-2.19539 1.25035 4.25625 0.5 0.5 0.5 1
-2.19539 -1.25035 4.25625 0.5 0.5 0.5 1
0.0269409 -1.69507 3.8039 0.5 0.5 0.5 1
0.0269409 1.69507 3.8039 0.5 0.5 0.5 1
2.2954 1.19185 4.28869 0.5 0.5 0.5 1
3.92817 -0.618807 3.41973 1 1 0 1
-0.792 -1.5334 3.32026 0.5 0.5 0.5 1
-0.792 1.5334 3.32026 0.5 0.5 0.5 1
-1.44247 -0.824343 1.85012 0.5 0.5 0.5 1
-1.44247 0.824343 1.85012 0.5 0.5 0.5 1
0.955337 1.51496 2.9798 0.5 0.5 0.5 1
0.955337 -1.51496 2.9798 0.5 0.5 0.5 1
3.92817 0.618807 3.41973 1 1 0 1
-4.13151 0.660554 3.50266 1 1 0 1
2.04712 -2.90742e-14 3.40662 0.5 0.5 0.5 1
1.37718 1.11009 2.67731 0.5 0.5 0.5 1
1.37718 -1.11009 2.67731 0.5 0.5 0.5 1
0.118346 1.57316 2.82287 0.5 0.5 0.5 1
0.118346 -1.57316 2.82287 0.5 0.5 0.5 1
1.61656 -1.24407e-13 2.46274 0.5 0.5 0.5 1
4.79138 -0.671029 3.7806 1 1 0 1
4.79138 0.671029 3.7806 1 1 0 1
-4.13151 -0.660554 3.50266 1 1 0 1
0.0730069 -8.45635e-15 1.0221 1 1 0 1
-5.53081 0.93117 4.58564 0.5 0.5 0.5 1
-5.53081 -0.93117 4.58564 0.5 0.5 0.5 1
-2.69784 -5.17791e-15 3.45684 0.5 0.5 0.5 1
-0.525604 -1.37361 2.54032 0.5 0.5 0.5 1
-0.525604 1.37361 2.54032 0.5 0.5 0.5 1
6.51818 -0.996494 4.63865 0.5 0.5 0.5 1
6.51818 0.996494 4.63865 0.5 0.5 0.5 1
2.2954 -1.19185 4.28869 0.5 0.5 0.5 1
1.55598 1.37663 3.61848 0.5 0.5 0.5 1
1.55598 -1.37663 3.61848 0.5 0.5 0.5 1
-1.05563 1.58611 4.23989 0.5 0.5 0.5 1
0.812132 1.25798 2.08646 0.5 0.5 0.5 1
0.812132 -1.25798 2.08646 0.5 0.5 0.5 1
2.29562 -2.1418e-14 4.08286 0.5 0.5 0.5 1
1.14348 0.776245 1.85803 0.5 0.5 0.5 1
1.14348 -0.776245 1.85803 0.5 0.5 0.5 1
0.0679863 1.20392 1.94251 0.5 0.5 0.5 1
0.0679863 -1.20392 1.94251 0.5 0.5 0.5 1
4.53004 -1.14891 4.33954 0.5 0.5 0.5 1
4.53004 1.14891 4.33954 0.5 0.5 0.5 1
3.52933 -1.15385 4.47217 0.5 0.5 0.5 1
3.52933 1.15385 4.47217 0.5 0.5 0.5 1
1.08196 -1.27823e-14 1.70968 0.5 0.5 0.5 1
-3.0702 1.04766 3.92056 0.5 0.5 0.5 1
-3.0702 -1.04766 3.92056 0.5 0.5 0.5 1
-3.53016 1.1121 4.44262 0.5 0.5 0.5 1
-3.53016 -1.1121 4.44262 0.5 0.5 0.5 1
-0.238554 -0.799677 1.72036 0.5 0.5 0.5 1
-0.238554 0.799677 1.72036 0.5 0.5 0.5 1
-4.64297 0.933835 4.41359 0.5 0.5 0.5 1
-4.64297 -0.933835 4.41359 0.5 0.5 0.5 1
3.94516 -0.999035 4.35673 0.5 0.5 0.5 1
3.94516 0.999035 4.35673 0.5 0.5 0.5 1
5.45063 -0.940258 4.50599 0.5 0.5 0.5 1
5.45063 0.940258 4.50599 0.5 0.5 0.5 1

3 0 1 58
3 0 58 1
3 0 24 57
3 0 57 24
3 0 57 58
3 0 58 57
3 1 25 58
3 1 58 25
3 2 6 31
3 2 31 6
3 2 9 28
3 2 28 9
3 2 28 35
3 2 35 28
3 2 31 35
3 2 35 31
3 3 4 63
3 3 63 4
3 3 26 62
3 3 62 26
3 3 62 63
3 3 63 62
3 4 27 63
3 4 63 27
3 5 7 32
3 5 32 7
3 5 8 67
3 5 67 8
3 5 32 36
3 5 36 32
3 5 36 67
3 5 67 36
3 6 10 64
3 6 64 10
3 6 31 64
3 6 64 31
3 7 11 37
3 7 37 11
3 7 32 37
3 7 37 32
3 8 12 33
3 8 33 12
3 8 33 67
3 8 67 33
3 9 13 34
3 9 34 13
3 9 28 34
3 9 34 28
3 10 14 64
3 10 64 14
3 11 15 37
3 11 37 15
3 12 16 33
3 12 33 16
3 13 17 34
3 13 34 17
3 14 18 77
3 14 77 18
3 14 64 77
3 14 77 64
3 15 19 78
3 15 78 19
3 15 37 78
3 15 78 37
3 16 20 46
3 16 46 20
3 16 20 82
3 16 82 20
3 16 33 80
3 16 80 33
3 16 46 80
3 16 80 46
3 16 80 82
3 16 82 80
3 17 21 55
3 17 55 21
3 17 21 83
3 17 83 21
3 17 34 81
3 17 81 34
3 17 55 81
3 17 81 55
3 17 81 83
3 17 83 81
3 18 22 75
3 18 75 22
3 18 38 75
3 18 75 38
3 18 38 77
3 18 77 38
3 18 75 88
3 18 88 75
3 18 77 88
3 18 88 77
3 19 23 76
3 19 76 23
3 19 45 76
3 19 76 45
3 19 45 78
3 19 78 45
3 19 76 89
3 19 89 76
3 19 78 89
3 19 89 78
3 20 24 57
3 20 57 24
3 20 24 86
3 20 86 24
3 20 46 57
3 20 57 46
3 20 46 82
3 20 82 46
3 20 46 86
3 20 86 46
3 21 25 58
3 21 58 25
3 21 25 87
3 21 87 25
3 21 55 58
3 21 58 55
3 21 55 83
3 21 83 55
3 21 55 87
3 21 87 55
3 22 26 62
3 22 62 26
3 22 26 90
3 22 90 26
3 22 53 62
3 22 62 53
3 22 53 75
3 22 75 53
3 22 53 90
3 22 90 53
3 23 27 63
3 23 63 27
3 23 27 91
3 23 91 27
3 23 54 63
3 23 63 54
3 23 54 76
3 23 76 54
3 23 54 91
3 23 91 54
3 24 57 86
3 24 86 57
3 25 58 87
3 25 87 58
3 26 62 90
3 26 90 62
3 27 63 91
3 27 91 63
3 28 34 39
3 28 39 34
3 28 35 39
3 28 39 35
3 29 30 41
3 29 41 30
3 29 30 59
3 29 59 30
3 29 33 40
3 29 40 33
3 29 33 59
3 29 59 33
3 29 40 61
3 29 61 40
3 29 41 42
3 29 42 41
3 29 42 61
3 29 61 42
3 30 34 39
3 30 39 34
3 30 34 59
3 30 59 34
3 30 39 60
3 30 60 39
3 30 41 60
3 30 60 41
3 31 35 44
3 31 44 35
3 31 44 66
3 31 66 44
3 31 64 66
3 31 66 64
3 32 36 43
3 32 43 36
3 32 37 65
3 32 65 37
3 32 43 65
3 32 65 43
3 33 40 67
3 33 67 40
3 33 59 80
3 33 80 59
3 34 59 81
3 34 81 59
3 35 39 51
3 35 51 39
3 35 44 51
3 35 51 44
3 36 40 50
3 36 50 40
3 36 40 67
3 36 67 40
3 36 43 50
3 36 50 43
3 37 45 70
3 37 70 45
3 37 45 78
3 37 78 45
3 37 47 65
3 37 65 47
3 37 47 70
3 37 70 47
3 38 45 54
3 38 54 45
3 38 45 70
3 38 70 45
3 38 53 54
3 38 54 53
3 38 53 75
3 38 75 53
3 38 64 70
3 38 70 64
3 38 64 77
3 38 77 64
3 38 75 88
3 38 88 75
3 38 77 88
3 38 88 77
3 39 51 60
3 39 60 51
3 40 50 61
3 40 61 50
3 41 42 56
3 41 56 42
3 41 56 74
3 41 74 56
3 41 56 84
3 41 84 56
3 41 60 74
3 41 74 60
3 41 60 84
3 41 84 60
3 42 56 73
3 42 73 56
3 42 56 85
3 42 85 56
3 42 61 73
3 42 73 61
3 42 61 85
3 42 85 61
3 43 48 65
3 43 65 48
3 43 48 68
3 43 68 48
3 43 50 68
3 43 68 50
3 44 49 66
3 44 66 49
3 44 49 69
3 44 69 49
3 44 51 69
3 44 69 51
3 45 54 76
3 45 76 54
3 45 76 89
3 45 89 76
3 45 78 89
3 45 89 78
3 46 55 58
3 46 58 55
3 46 55 59
3 46 59 55
3 46 57 58
3 46 58 57
3 46 57 86
3 46 86 57
3 46 59 80
3 46 80 59
3 46 80 82
3 46 82 80
3 47 48 52
3 47 52 48
3 47 48 65
3 47 65 48
3 47 49 52
3 47 52 49
3 47 49 66
3 47 66 49
3 47 64 66
3 47 66 64
3 47 64 70
3 47 70 64
3 48 52 71
3 48 71 52
3 48 68 71
3 48 71 68
3 49 52 72
3 49 72 52
3 49 69 72
3 49 72 69
3 50 61 73
3 50 73 61
3 50 68 73
3 50 73 68
3 51 60 74
3 51 74 60
3 51 69 74
3 51 74 69
3 52 56 71
3 52 71 56
3 52 56 72
3 52 72 56
3 52 71 79
3 52 79 71
3 52 72 79
3 52 79 72
3 53 54 63
3 53 63 54
3 53 62 63
3 53 63 62
3 53 62 90
3 53 90 62
3 54 63 91
3 54 91 63
3 55 58 87
3 55 87 58
3 55 59 81
3 55 81 59
3 55 81 83
3 55 83 81
3 56 68 71
3 56 71 68
3 56 68 73
3 56 73 68
3 56 69 72
3 56 72 69
3 56 69 74
3 56 74 69
3 56 71 79
3 56 79 71
3 56 72 79
3 56 79 72
3 56 73 85
3 56 85 73
3 56 74 84
3 56 84 74
3 60 74 84
3 60 84 74
3 61 73 85
3 61 85 73
