COFF
111 418 111

-6.43294 0.954982 5.7212 0.5 0.5 0.5 1
-6.43294 -0.954982 5.7212 0.5 0.5 0.5 1
-0.0287833 -2.03731 5.35852 0.5 0.5 0.5 1
7.4185 -1.00899 5.64451 0.5 0.5 0.5 1
7.4185 1.00899 5.64451 0.5 0.5 0.5 1
-0.0287833 2.03731 5.35852 0.5 0.5 0.5 1
1.10614 -1.70485 5.51523 0.5 0.5 0.5 1
1.10614 1.70485 5.51523 0.5 0.5 0.5 1
-1.13443 1.68638 5.48693 0.5 0.5 0.5 1
-1.13443 -1.68638 5.48693 0.5 0.5 0.5 1
2.01872 -1.3847 5.77038 0.5 0.5 0.5 1
2.01872 1.3847 5.77038 0.5 0.5 0.5 1
-2.05253 1.38855 5.74843 0.5 0.5 0.5 1
-2.05253 -1.38855 5.74843 0.5 0.5 0.5 1
3.02857 -1.43567 5.65318 0.5 0.5 0.5 1
3.02857 1.43567 5.65318 0.5 0.5 0.5 1
-3.04049 1.41097 5.59775 0.5 0.5 0.5 1
-3.04049 -1.41097 5.59775 0.5 0.5 0.5 1
4.03409 -1.47616 5.59063 0.5 0.5 0.5 1
4.03409 1.47616 5.59063 0.5 0.5 0.5 1
-4.04255 1.3728 5.5775 0.5 0.5 0.5 1
-4.04255 -1.3728 5.5775 0.5 0.5 0.5 1
5.05132 -1.50215 5.44537 0.5 0.5 0.5 1
5.05132 1.50215 5.44537 0.5 0.5 0.5 1
-5.05114 1.23019 5.6268 0.5 0.5 0.5 1
-5.05114 -1.23019 5.6268 0.5 0.5 0.5 1
6.10406 -1.32579 5.55194 0.5 0.5 0.5 1
6.10406 1.32579 5.55194 0.5 0.5 0.5 1
7.64567 -1.11163e-16 5.64477 0.5 0.5 0.5 1
-1.94255 0.896 3.37147 0.5 0.5 0.5 1
-1.94255 -0.896 3.37147 0.5 0.5 0.5 1
1.08193 -1.62226 4.33594 0.5 0.5 0.5 1
1.08193 1.62226 4.33594 0.5 0.5 0.5 1
-2.1764 1.33371 4.60819 0.5 0.5 0.5 1
-2.1764 -1.33371 4.60819 0.5 0.5 0.5 1
0.035929 -1.75845 4.09841 0.5 0.5 0.5 1
0.035929 1.75845 4.09841 0.5 0.5 0.5 1
2.32586 1.27295 4.54602 0.5 0.5 0.5 1
3.94824 -0.619002 3.41973 1 1 0 1
-0.821258 -1.59775 3.59706 0.5 0.5 0.5 1
-0.821258 1.59775 3.59706 0.5 0.5 0.5 1
-1.46211 -0.923119 2.0601 0.5 0.5 0.5 1
-1.46211 0.923119 2.0601 0.5 0.5 0.5 1
0.983073 1.58531 3.27336 0.5 0.5 0.5 1
0.983073 -1.58531 3.27336 0.5 0.5 0.5 1
3.94824 0.619002 3.41973 1 1 0 1
-4.14536 0.659189 3.50266 1 1 0 1
2.08969 -1.35473e-10 3.68222 0.5 0.5 0.5 1
1.4 1.18748 2.95413 0.5 0.5 0.5 1
1.4 -1.18748 2.95413 0.5 0.5 0.5 1
0.13019 1.64485 3.09496 0.5 0.5 0.5 1
0.130091 -1.64476 3.09496 0.5 0.5 0.5 1
1.65207 1.17265e-10 2.69997 0.5 0.5 0.5 1
4.81071 -0.671368 3.7806 1 1 0 1
4.81071 0.671368 3.7806 1 1 0 1
-4.14536 -0.659189 3.50266 1 1 0 1
0.111857 -7.64428e-11 1.0221 1 1 0 1
-5.68111 1.04807 4.89516 0.5 0.5 0.5 1
-5.68111 -1.04807 4.89516 0.5 0.5 0.5 1
-2.64181 -2.24231e-09 3.71272 0.5 0.5 0.5 1
-0.576556 -1.4614 2.80086 0.5 0.5 0.5 1
-0.576556 1.46139 2.80086 0.5 0.5 0.5 1
6.72412 -1.14823 4.94771 0.5 0.5 0.5 1
6.72412 1.14823 4.94771 0.5 0.5 0.5 1
2.32586 -1.27295 4.54602 0.5 0.5 0.5 1
1.58446 1.45455 3.91408 0.5 0.5 0.5 1
1.58446 -1.45455 3.91408 0.5 0.5 0.5 1
-1.03324 1.65391 4.55055 0.5 0.5 0.5 1
0.874671 1.40168 2.34708 0.5 0.5 0.5 1
0.874671 -1.40168 2.34708 0.5 0.5 0.5 1
2.32137 2.53668e-12 4.29667 0.5 0.5 0.5 1
1.21652 0.902458 2.06725 0.5 0.5 0.5 1
1.21652 -0.902458 2.06725 0.5 0.5 0.5 1
0.141516 1.396 2.16138 0.5 0.5 0.5 1
0.141517 -1.396 2.16138 0.5 0.5 0.5 1
4.43404 -1.29549 4.46316 0.5 0.5 0.5 1
4.43404 1.29549 4.46316 0.5 0.5 0.5 1
3.54211 -1.39716 4.82356 0.5 0.5 0.5 1
3.54211 1.39716 4.82356 0.5 0.5 0.5 1
1.34332 -6.88612e-10 1.90952 0.5 0.5 0.5 1
-3.01727 1.21658 4.1616 0.5 0.5 0.5 1
-3.01727 -1.21658 4.1616 0.5 0.5 0.5 1
-3.52182 1.3132 4.69637 0.5 0.5 0.5 1
-3.52182 -1.3132 4.69637 0.5 0.5 0.5 1
-0.290956 -1.15439 1.85332 0.5 0.5 0.5 1
-0.290956 1.15439 1.85332 0.5 0.5 0.5 1
-4.81212 1.11695 4.64844 0.5 0.5 0.5 1
-4.81212 -1.11695 4.64844 0.5 0.5 0.5 1
3.82935 -1.254 4.48404 0.5 0.5 0.5 1
3.82935 1.254 4.48404 0.5 0.5 0.5 1
5.67516 -1.22816 4.71842 0.5 0.5 0.5 1
5.67516 1.22816 4.71842 0.5 0.5 0.5 1
6.83123 1.4911e-17 4.80436 0.5 0.5 0.5 1
6.0356 -0.418824 4.21341 0.5 0.5 0.5 1
6.0356 0.418824 4.21341 0.5 0.5 0.5 1
6.01139 -0.920052 4.33058 0.5 0.5 0.5 1
6.01139 0.920052 4.33058 0.5 0.5 0.5 1
-4.10558 1.18173 4.58749 0.5 0.5 0.5 1
-4.10558 -1.18173 4.58749 0.5 0.5 0.5 1
-0.922455 -0.485881 1.48404 0.5 0.5 0.5 1
-0.922455 0.485881 1.48404 0.5 0.5 0.5 1
2.97028 0.979629 3.9562 0.5 0.5 0.5 1
2.97028 -0.979629 3.9562 0.5 0.5 0.5 1
-5.7462 -2.23159e-16 4.83716 0.5 0.5 0.5 1
-5.01925 0.353697 4.14299 0.5 0.5 0.5 1
-5.01925 -0.353697 4.14299 0.5 0.5 0.5 1
-5.03173 0.856108 4.1955 0.5 0.5 0.5 1
-5.03173 -0.856108 4.1955 0.5 0.5 0.5 1
0.555255 0.780306 1.65667 0.5 0.5 0.5 1
0.555255 -0.780306 1.65667 0.5 0.5 0.5 1
-1.03324 -1.65391 4.55055 0.5 0.5 0.5 1

3 0 1 103
3 0 103 1
3 0 24 57
3 0 57 24
3 0 57 103
3 0 103 57
3 1 25 58
3 1 58 25
3 1 58 103
3 1 103 58
3 2 6 31
3 2 31 6
3 2 9 110
3 2 110 9
3 2 31 35
3 2 35 31
3 2 35 110
3 2 110 35
3 3 26 62
3 3 62 26
3 3 28 92
3 3 92 28
3 3 62 92
3 3 92 62
3 4 27 63
3 4 63 27
3 4 28 92
3 4 92 28
3 4 63 92
3 4 92 63
3 5 7 32
3 5 32 7
3 5 8 67
3 5 67 8
3 5 32 36
3 5 36 32
3 5 36 67
3 5 67 36
3 6 10 64
3 6 64 10
3 6 31 64
3 6 64 31
3 7 11 37
3 7 37 11
3 7 32 37
3 7 37 32
3 8 12 33
3 8 33 12
3 8 33 67
3 8 67 33
3 9 13 34
3 9 34 13
3 9 34 110
3 9 110 34
3 10 14 64
3 10 64 14
3 11 15 37
3 11 37 15
3 12 16 33
3 12 33 16
3 13 17 34
3 13 34 17
3 14 18 77
3 14 77 18
3 14 64 77
3 14 77 64
3 15 19 78
3 15 78 19
3 15 37 78
3 15 78 37
3 16 20 82
3 16 82 20
3 16 33 80
3 16 80 33
3 16 80 82
3 16 82 80
3 17 21 83
3 17 83 21
3 17 34 81
3 17 81 34
3 17 81 83
3 17 83 81
3 18 22 75
3 18 75 22
3 18 38 75
3 18 75 38
3 18 38 77
3 18 77 38
3 18 75 88
3 18 88 75
3 18 77 88
3 18 88 77
3 19 23 76
3 19 76 23
3 19 45 76
3 19 76 45
3 19 45 78
3 19 78 45
3 19 76 89
3 19 89 76
3 19 78 89
3 19 89 78
3 20 24 86
3 20 86 24
3 20 46 82
3 20 82 46
3 20 46 86
3 20 86 46
3 20 82 97
3 20 97 82
3 20 86 97
3 20 97 86
3 21 25 87
3 21 87 25
3 21 55 83
3 21 83 55
3 21 55 87
3 21 87 55
3 21 83 98
3 21 98 83
3 21 87 98
3 21 98 87
3 22 26 90
3 22 90 26
3 22 53 75
3 22 75 53
3 22 53 90
3 22 90 53
3 23 27 91
3 23 91 27
3 23 54 76
3 23 76 54
3 23 54 91
3 23 91 54
3 24 57 86
3 24 86 57
3 25 58 87
3 25 87 58
3 26 62 90
3 26 90 62
3 27 63 91
3 27 91 63
3 29 30 41
3 29 41 30
3 29 30 59
3 29 59 30
3 29 33 40
3 29 40 33
3 29 33 59
3 29 59 33
3 29 40 61
3 29 61 40
3 29 41 42
3 29 42 41
3 29 42 61
3 29 61 42
3 30 34 39
3 30 39 34
3 30 34 59
3 30 59 34
3 30 39 60
3 30 60 39
3 30 41 60
3 30 60 41
3 31 35 44
3 31 44 35
3 31 44 66
3 31 66 44
3 31 64 66
3 31 66 64
3 32 36 43
3 32 43 36
3 32 37 65
3 32 65 37
3 32 43 65
3 32 65 43
3 33 40 67
3 33 67 40
3 33 59 80
3 33 80 59
3 34 39 110
3 34 110 39
3 34 59 81
3 34 81 59
3 35 39 51
3 35 51 39
3 35 39 110
3 35 110 39
3 35 44 51
3 35 51 44
3 36 40 50
3 36 50 40
3 36 40 67
3 36 67 40
3 36 43 50
3 36 50 43
3 37 45 70
3 37 70 45
3 37 45 78
3 37 78 45
3 37 47 65
3 37 65 47
3 37 47 70
3 37 70 47
3 37 70 101
3 37 101 70
3 37 78 101
3 37 101 78
3 38 45 54
3 38 54 45
3 38 45 70
3 38 70 45
3 38 53 54
3 38 54 53
3 38 53 75
3 38 75 53
3 38 64 70
3 38 70 64
3 38 64 77
3 38 77 64
3 38 70 102
3 38 102 70
3 38 75 88
3 38 88 75
3 38 77 88
3 38 88 77
3 38 77 102
3 38 102 77
3 39 51 60
3 39 60 51
3 40 50 61
3 40 61 50
3 41 42 100
3 41 100 42
3 41 56 84
3 41 84 56
3 41 56 99
3 41 99 56
3 41 60 84
3 41 84 60
3 41 99 100
3 41 100 99
3 42 56 85
3 42 85 56
3 42 56 100
3 42 100 56
3 42 61 85
3 42 85 61
3 43 48 65
3 43 65 48
3 43 48 68
3 43 68 48
3 43 50 68
3 43 68 50
3 44 49 66
3 44 66 49
3 44 49 69
3 44 69 49
3 44 51 69
3 44 69 51
3 45 54 76
3 45 76 54
3 45 70 101
3 45 101 70
3 45 76 89
3 45 89 76
3 45 78 89
3 45 89 78
3 45 78 101
3 45 101 78
3 46 55 59
3 46 59 55
3 46 55 105
3 46 105 55
3 46 59 80
3 46 80 59
3 46 80 82
3 46 82 80
3 46 82 97
3 46 97 82
3 46 86 97
3 46 97 86
3 46 86 106
3 46 106 86
3 46 104 105
3 46 105 104
3 46 104 106
3 46 106 104
3 47 48 52
3 47 52 48
3 47 48 65
3 47 65 48
3 47 49 52
3 47 52 49
3 47 49 66
3 47 66 49
3 47 64 66
3 47 66 64
3 47 64 70
3 47 70 64
3 48 52 71
3 48 71 52
3 48 68 71
3 48 71 68
3 49 52 72
3 49 72 52
3 49 69 72
3 49 72 69
3 50 61 73
3 50 73 61
3 50 68 73
3 50 73 68
3 51 60 74
3 51 74 60
3 51 69 74
3 51 74 69
3 52 56 71
3 52 71 56
3 52 56 72
3 52 72 56
3 52 71 79
3 52 79 71
3 52 72 79
3 52 79 72
3 53 54 94
3 53 94 54
3 53 90 95
3 53 95 90
3 53 93 94
3 53 94 93
3 53 93 95
3 53 95 93
3 54 91 96
3 54 96 91
3 54 94 96
3 54 96 94
3 55 59 81
3 55 81 59
3 55 81 83
3 55 83 81
3 55 83 98
3 55 98 83
3 55 87 98
3 55 98 87
3 55 87 107
3 55 107 87
3 55 105 107
3 55 107 105
3 56 68 71
3 56 71 68
3 56 68 73
3 56 73 68
3 56 69 72
3 56 72 69
3 56 69 74
3 56 74 69
3 56 71 79
3 56 79 71
3 56 71 108
3 56 108 71
3 56 72 79
3 56 79 72
3 56 72 109
3 56 109 72
3 56 73 85
3 56 85 73
3 56 73 108
3 56 108 73
3 56 74 84
3 56 84 74
3 56 74 109
3 56 109 74
3 56 99 100
3 56 100 99
3 57 86 106
3 57 106 86
3 57 103 106
3 57 106 103
3 58 87 107
3 58 107 87
3 58 103 107
3 58 107 103
3 60 74 84
3 60 84 74
3 61 73 85
3 61 85 73
3 62 90 95
3 62 95 90
3 62 92 95
3 62 95 92
3 63 91 96
3 63 96 91
3 63 92 96
3 63 96 92
3 64 70 102
3 64 102 70
3 64 77 102
3 64 102 77
3 68 71 108
3 68 108 71
3 68 73 108
3 68 108 73
3 69 72 109
3 69 109 72
3 69 74 109
3 69 109 74
3 92 93 94
3 92 94 93
3 92 93 95
3 92 95 93
3 92 94 96
3 92 96 94
3 103 104 105
3 103 105 104
3 103 104 106
3 103 106 104
3 103 105 107
3 103 107 105
