COFF
118 444 118

-6.49186 1.00288 6.05229 0.5 0.5 0.5 1
-6.49186 -1.00288 6.05229 0.5 0.5 0.5 1
-0.0295689 -2.09948 5.69602 0.5 0.5 0.5 1
7.46667 -1.07882 5.9663 0.5 0.5 0.5 1
7.46667 1.07882 5.9663 0.5 0.5 0.5 1
-0.0295689 2.09948 5.69602 0.5 0.5 0.5 1
1.12126 -1.77074 5.84839 0.5 0.5 0.5 1
1.12126 1.77074 5.84839 0.5 0.5 0.5 1
-1.14652 1.74613 5.82648 0.5 0.5 0.5 1
-1.14652 -1.74613 5.82648 0.5 0.5 0.5 1
2.03363 -1.45277 6.107 0.5 0.5 0.5 1
2.03363 1.45277 6.107 0.5 0.5 0.5 1
-2.06322 1.44879 6.09342 0.5 0.5 0.5 1
-2.06322 -1.44879 6.09342 0.5 0.5 0.5 1
3.02309 -1.52774 5.96312 0.5 0.5 0.5 1
3.02309 1.52774 5.96312 0.5 0.5 0.5 1
-3.04464 1.50013 5.9104 0.5 0.5 0.5 1
-3.04464 -1.50013 5.9104 0.5 0.5 0.5 1
4.02845 -1.60012 5.86638 0.5 0.5 0.5 1
4.02845 1.60012 5.86638 0.5 0.5 0.5 1
-4.05151 1.47238 5.87917 0.5 0.5 0.5 1
-4.05151 -1.47238 5.87917 0.5 0.5 0.5 1
5.0616 -1.64266 5.70215 0.5 0.5 0.5 1
5.0616 1.64266 5.70215 0.5 0.5 0.5 1
-5.06634 1.31504 5.94451 0.5 0.5 0.5 1
-5.06634 -1.31504 5.94451 0.5 0.5 0.5 1
6.1255 -1.43173 5.87234 0.5 0.5 0.5 1
6.1255 1.43173 5.87234 0.5 0.5 0.5 1
8.54624 0.000144721 5.97128 0.5 0.5 0.5 1
-6.55356 1.42378e-15 6.05232 0.5 0.5 0.5 1
-1.93663 -0.915773 3.65482 0.5 0.5 0.5 1
1.10525 -1.68731 4.64101 0.5 0.5 0.5 1
1.10525 1.68731 4.64101 0.5 0.5 0.5 1
-2.17135 1.41041 4.94273 0.5 0.5 0.5 1
-2.17134 -1.41041 4.94273 0.5 0.5 0.5 1
0.041623 -1.82 4.39337 0.5 0.5 0.5 1
0.0416281 1.82021 4.39337 0.5 0.5 0.5 1
2.35694 1.35851 4.83561 0.5 0.5 0.5 1
3.96534 -0.619447 3.41973 1 1 0 1
-0.848422 -1.66611 3.88701 0.5 0.5 0.5 1
-0.848413 1.66611 3.88701 0.5 0.5 0.5 1
-1.49394 -0.980202 2.31226 0.5 0.5 0.5 1
-1.49394 0.980201 2.31226 0.5 0.5 0.5 1
1.008 1.65312 3.55962 0.5 0.5 0.5 1
1.008 -1.65312 3.55962 0.5 0.5 0.5 1
3.96534 0.619447 3.41973 1 1 0 1
-4.13345 0.659585 3.50266 1 1 0 1
2.05058 3.39873e-09 3.94943 0.5 0.5 0.5 1
1.41446 1.2539 3.22831 0.5 0.5 0.5 1
1.41446 -1.2539 3.22831 0.5 0.5 0.5 1
0.136705 1.7108 3.36143 0.5 0.5 0.5 1
0.136815 -1.71086 3.36143 0.5 0.5 0.5 1
1.65346 2.90088e-08 2.93751 0.5 0.5 0.5 1
4.82755 -0.671704 3.7806 1 1 0 1
4.82755 0.671704 3.7806 1 1 0 1
-4.13345 -0.659585 3.50266 1 1 0 1
0.14339 -9.72472e-09 1.0221 1 1 0 1
-5.74962 1.14866 5.24953 0.5 0.5 0.5 1
-5.74962 -1.14866 5.24953 0.5 0.5 0.5 1
-2.60782 1.2902e-06 3.99151 0.5 0.5 0.5 1
-0.604803 -1.52182 3.04577 0.5 0.5 0.5 1
-0.604803 1.52182 3.04577 0.5 0.5 0.5 1
6.82075 -1.22706 5.30186 0.5 0.5 0.5 1
6.82075 1.22706 5.30186 0.5 0.5 0.5 1
2.35694 -1.35851 4.83561 0.5 0.5 0.5 1
1.60995 1.52939 4.2012 0.5 0.5 0.5 1
1.60995 -1.52939 4.2012 0.5 0.5 0.5 1
-1.02572 1.71695 4.85754 0.5 0.5 0.5 1
0.908765 1.51289 2.62205 0.5 0.5 0.5 1
0.908764 -1.51289 2.62205 0.5 0.5 0.5 1
2.3567 -4.35089e-09 4.54685 0.5 0.5 0.5 1
1.25761 1.00645 2.29813 0.5 0.5 0.5 1
1.25761 -1.00645 2.29813 0.5 0.5 0.5 1
0.196888 1.52553 2.38262 0.5 0.5 0.5 1
0.196889 -1.52553 2.38262 0.5 0.5 0.5 1
4.48387 -1.40148 4.59521 0.5 0.5 0.5 1
4.48387 1.40148 4.59521 0.5 0.5 0.5 1
3.55936 -1.55947 5.13364 0.5 0.5 0.5 1
3.55936 1.55947 5.13364 0.5 0.5 0.5 1
1.409 -2.98564e-08 2.14142 0.5 0.5 0.5 1
-2.97374 1.36199 4.41698 0.5 0.5 0.5 1
-2.97374 -1.36199 4.41698 0.5 0.5 0.5 1
-3.53189 1.45483 4.96347 0.5 0.5 0.5 1
-3.53189 -1.45483 4.96347 0.5 0.5 0.5 1
-0.369965 -1.35749 2.05846 0.5 0.5 0.5 1
-0.369965 1.35749 2.05846 0.5 0.5 0.5 1
-4.91238 1.24676 4.91997 0.5 0.5 0.5 1
-4.91238 -1.24676 4.91997 0.5 0.5 0.5 1
3.73062 -1.4863 4.70117 0.5 0.5 0.5 1
3.73062 1.4863 4.70117 0.5 0.5 0.5 1
5.82592 -1.38124 4.93178 0.5 0.5 0.5 1
5.82592 1.38124 4.93178 0.5 0.5 0.5 1
7.09904 4.9449e-08 5.04056 0.5 0.5 0.5 1
6.34811 -0.5421 4.24794 0.5 0.5 0.5 1
6.34811 0.5421 4.24794 0.5 0.5 0.5 1
6.31285 -0.970882 4.53626 0.5 0.5 0.5 1
6.31285 0.970882 4.53626 0.5 0.5 0.5 1
-4.12163 1.36898 4.84392 0.5 0.5 0.5 1
-4.12163 -1.36898 4.84392 0.5 0.5 0.5 1
-1.2033 -0.653735 1.54039 0.5 0.5 0.5 1
-1.2033 0.653735 1.54039 0.5 0.5 0.5 1
2.76611 1.07962 4.12232 0.5 0.5 0.5 1
2.76611 -1.07962 4.12232 0.5 0.5 0.5 1
-5.95659 -5.43029e-15 5.07079 0.5 0.5 0.5 1
-5.31778 0.481972 4.16979 0.5 0.5 0.5 1
-5.31778 -0.481972 4.16979 0.5 0.5 0.5 1
-5.32437 0.908214 4.44541 0.5 0.5 0.5 1
-5.32437 -0.908214 4.44541 0.5 0.5 0.5 1
0.714313 1.07664 1.78771 0.5 0.5 0.5 1
0.714314 -1.07664 1.78771 0.5 0.5 0.5 1
-1.02572 -1.71695 4.85754 0.5 0.5 0.5 1
5.06935 -1.23463 4.67814 0.5 0.5 0.5 1
5.06935 1.23463 4.67814 0.5 0.5 0.5 1
3.00381 -0.302649 3.92814 0.5 0.5 0.5 1
3.00381 0.302649 3.92814 0.5 0.5 0.5 1
0.171314 0.822541 1.68146 0.5 0.5 0.5 1
0.171315 -0.82254 1.68146 0.5 0.5 0.5 1
-1.93663 0.915772 3.65482 0.5 0.5 0.5 1

3 0 24 57
3 0 57 24
3 0 29 103
3 0 103 29
3 0 57 103
3 0 103 57
3 1 25 58
3 1 58 25
3 1 29 103
3 1 103 29
3 1 58 103
3 1 103 58
3 2 6 31
3 2 31 6
3 2 9 110
3 2 110 9
3 2 31 35
3 2 35 31
3 2 35 110
3 2 110 35
3 3 26 62
3 3 62 26
3 3 28 92
3 3 92 28
3 3 62 92
3 3 92 62
3 4 27 63
3 4 63 27
3 4 28 92
3 4 92 28
3 4 63 92
3 4 92 63
3 5 7 32
3 5 32 7
3 5 8 67
3 5 67 8
3 5 32 36
3 5 36 32
3 5 36 67
3 5 67 36
3 6 10 64
3 6 64 10
3 6 31 64
3 6 64 31
3 7 11 37
3 7 37 11
3 7 32 37
3 7 37 32
3 8 12 33
3 8 33 12
3 8 33 67
3 8 67 33
3 9 13 34
3 9 34 13
3 9 34 110
3 9 110 34
3 10 14 64
3 10 64 14
3 11 15 37
3 11 37 15
3 12 16 33
3 12 33 16
3 13 17 34
3 13 34 17
3 14 18 77
3 14 77 18
3 14 64 77
3 14 77 64
3 15 19 78
3 15 78 19
3 15 37 78
3 15 78 37
3 16 20 82
3 16 82 20
3 16 33 80
3 16 80 33
3 16 80 82
3 16 82 80
3 17 21 83
3 17 83 21
3 17 34 81
3 17 81 34
3 17 81 83
3 17 83 81
3 18 22 75
3 18 75 22
3 18 38 75
3 18 75 38
3 18 38 77
3 18 77 38
3 18 75 88
3 18 88 75
3 18 77 88
3 18 88 77
3 19 23 76
3 19 76 23
3 19 45 76
3 19 76 45
3 19 45 78
3 19 78 45
3 19 76 89
3 19 89 76
3 19 78 89
3 19 89 78
3 20 24 86
3 20 86 24
3 20 46 82
3 20 82 46
3 20 46 86
3 20 86 46
3 20 82 97
3 20 97 82
3 20 86 97
3 20 97 86
3 21 25 87
3 21 87 25
3 21 55 83
3 21 83 55
3 21 55 87
3 21 87 55
3 21 83 98
3 21 98 83
3 21 87 98
3 21 98 87
3 22 26 90
3 22 90 26
3 22 53 75
3 22 75 53
3 22 53 90
3 22 90 53
3 22 75 111
3 22 111 75
3 22 90 111
3 22 111 90
3 23 27 91
3 23 91 27
3 23 54 76
3 23 76 54
3 23 54 91
3 23 91 54
3 23 76 112
3 23 112 76
3 23 91 112
3 23 112 91
3 24 57 86
3 24 86 57
3 25 58 87
3 25 87 58
3 26 62 90
3 26 90 62
3 27 63 91
3 27 91 63
3 30 34 39
3 30 39 34
3 30 34 59
3 30 59 34
3 30 39 60
3 30 60 39
3 30 41 42
3 30 42 41
3 30 41 60
3 30 60 41
3 30 42 117
3 30 117 42
3 30 59 117
3 30 117 59
3 31 35 44
3 31 44 35
3 31 44 66
3 31 66 44
3 31 64 66
3 31 66 64
3 32 36 43
3 32 43 36
3 32 37 65
3 32 65 37
3 32 43 65
3 32 65 43
3 33 40 67
3 33 67 40
3 33 40 117
3 33 117 40
3 33 59 80
3 33 80 59
3 33 59 117
3 33 117 59
3 34 39 110
3 34 110 39
3 34 59 81
3 34 81 59
3 35 39 51
3 35 51 39
3 35 39 110
3 35 110 39
3 35 44 51
3 35 51 44
3 36 40 50
3 36 50 40
3 36 40 67
3 36 67 40
3 36 43 50
3 36 50 43
3 37 47 65
3 37 65 47
3 37 47 70
3 37 70 47
3 37 70 101
3 37 101 70
3 37 78 101
3 37 101 78
3 38 45 54
3 38 54 45
3 38 45 114
3 38 114 45
3 38 53 54
3 38 54 53
3 38 53 75
3 38 75 53
3 38 70 102
3 38 102 70
3 38 70 113
3 38 113 70
3 38 75 88
3 38 88 75
3 38 77 88
3 38 88 77
3 38 77 102
3 38 102 77
3 38 113 114
3 38 114 113
3 39 51 60
3 39 60 51
3 40 50 61
3 40 61 50
3 40 61 117
3 40 117 61
3 41 42 100
3 41 100 42
3 41 56 84
3 41 84 56
3 41 56 99
3 41 99 56
3 41 60 84
3 41 84 60
3 41 99 100
3 41 100 99
3 42 56 85
3 42 85 56
3 42 56 100
3 42 100 56
3 42 61 85
3 42 85 61
3 42 61 117
3 42 117 61
3 43 48 65
3 43 65 48
3 43 48 68
3 43 68 48
3 43 50 68
3 43 68 50
3 44 49 66
3 44 66 49
3 44 49 69
3 44 69 49
3 44 51 69
3 44 69 51
3 45 54 76
3 45 76 54
3 45 70 101
3 45 101 70
3 45 70 114
3 45 114 70
3 45 76 89
3 45 89 76
3 45 78 89
3 45 89 78
3 45 78 101
3 45 101 78
3 46 55 59
3 46 59 55
3 46 55 105
3 46 105 55
3 46 59 80
3 46 80 59
3 46 80 82
3 46 82 80
3 46 82 97
3 46 97 82
3 46 86 97
3 46 97 86
3 46 86 106
3 46 106 86
3 46 104 105
3 46 105 104
3 46 104 106
3 46 106 104
3 47 48 52
3 47 52 48
3 47 48 65
3 47 65 48
3 47 49 52
3 47 52 49
3 47 49 66
3 47 66 49
3 47 64 66
3 47 66 64
3 47 64 70
3 47 70 64
3 48 52 71
3 48 71 52
3 48 68 71
3 48 71 68
3 49 52 72
3 49 72 52
3 49 69 72
3 49 72 69
3 50 61 73
3 50 73 61
3 50 68 73
3 50 73 68
3 51 60 74
3 51 74 60
3 51 69 74
3 51 74 69
3 52 56 71
3 52 71 56
3 52 56 72
3 52 72 56
3 52 71 79
3 52 79 71
3 52 72 79
3 52 79 72
3 53 54 94
3 53 94 54
3 53 75 111
3 53 111 75
3 53 90 95
3 53 95 90
3 53 90 111
3 53 111 90
3 53 93 94
3 53 94 93
3 53 93 95
3 53 95 93
3 54 76 112
3 54 112 76
3 54 91 96
3 54 96 91
3 54 91 112
3 54 112 91
3 54 94 96
3 54 96 94
3 55 59 81
3 55 81 59
3 55 81 83
3 55 83 81
3 55 83 98
3 55 98 83
3 55 87 98
3 55 98 87
3 55 87 107
3 55 107 87
3 55 105 107
3 55 107 105
3 56 71 79
3 56 79 71
3 56 71 108
3 56 108 71
3 56 72 79
3 56 79 72
3 56 72 109
3 56 109 72
3 56 73 85
3 56 85 73
3 56 73 108
3 56 108 73
3 56 74 84
3 56 84 74
3 56 74 109
3 56 109 74
3 56 84 116
3 56 116 84
3 56 85 115
3 56 115 85
3 56 99 100
3 56 100 99
3 56 108 115
3 56 115 108
3 56 109 116
3 56 116 109
3 57 86 106
3 57 106 86
3 57 103 106
3 57 106 103
3 58 87 107
3 58 107 87
3 58 103 107
3 58 107 103
3 60 74 84
3 60 84 74
3 61 73 85
3 61 85 73
3 62 90 95
3 62 95 90
3 62 92 95
3 62 95 92
3 63 91 96
3 63 96 91
3 63 92 96
3 63 96 92
3 64 70 102
3 64 102 70
3 64 77 102
3 64 102 77
3 68 71 108
3 68 108 71
3 68 73 108
3 68 108 73
3 69 72 109
3 69 109 72
3 69 74 109
3 69 109 74
3 70 113 114
3 70 114 113
3 73 85 115
3 73 115 85
3 73 108 115
3 73 115 108
3 74 84 116
3 74 116 84
3 74 109 116
3 74 116 109
3 92 93 94
3 92 94 93
3 92 93 95
3 92 95 93
3 92 94 96
3 92 96 94
3 103 104 105
3 103 105 104
3 103 104 106
3 103 106 104
3 103 105 107
3 103 107 105
