COFF
125 476 125

-6.53495 1.05769 6.38751 0.5 0.5 0.5 1
-6.53495 -1.05769 6.38751 0.5 0.5 0.5 1
-0.0304899 -2.15996 6.03363 0.5 0.5 0.5 1
7.5186 -1.14157 6.30763 0.5 0.5 0.5 1
7.5186 1.14157 6.30763 0.5 0.5 0.5 1
-0.0304899 2.15996 6.03363 0.5 0.5 0.5 1
1.13298 -1.83491 6.18189 0.5 0.5 0.5 1
1.13298 1.83491 6.18189 0.5 0.5 0.5 1
-1.15829 1.80455 6.16587 0.5 0.5 0.5 1
-1.15829 -1.80455 6.16587 0.5 0.5 0.5 1
2.04291 -1.51596 6.44729 0.5 0.5 0.5 1
2.04291 1.51596 6.44729 0.5 0.5 0.5 1
-2.07336 1.50741 6.43857 0.5 0.5 0.5 1
-2.07336 -1.50741 6.43857 0.5 0.5 0.5 1
3.0222 -1.61436 6.27556 0.5 0.5 0.5 1
3.0222 1.61436 6.27556 0.5 0.5 0.5 1
-3.0465 1.58638 6.22379 0.5 0.5 0.5 1
-3.0465 -1.58638 6.22379 0.5 0.5 0.5 1
4.02085 -1.71716 6.1458 0.5 0.5 0.5 1
4.02085 1.71716 6.1458 0.5 0.5 0.5 1
-4.06017 1.5659 6.18441 0.5 0.5 0.5 1
-4.06017 -1.5659 6.18441 0.5 0.5 0.5 1
5.07165 -1.76372 5.97491 0.5 0.5 0.5 1
5.07165 1.76372 5.97491 0.5 0.5 0.5 1
-5.08139 1.39255 6.26736 0.5 0.5 0.5 1
-5.08139 -1.39255 6.26736 0.5 0.5 0.5 1
6.1473 -1.52213 6.17816 0.5 0.5 0.5 1
6.1473 1.52213 6.17816 0.5 0.5 0.5 1
8.66056 -0.000133118 6.30569 0.5 0.5 0.5 1
-7.54541 1.2233e-14 6.39166 0.5 0.5 0.5 1
-1.93218 -0.940917 3.92731 0.5 0.5 0.5 1
1.11633 -1.75212 4.94656 0.5 0.5 0.5 1
1.11633 1.75212 4.94656 0.5 0.5 0.5 1
-2.18081 1.48294 5.25759 0.5 0.5 0.5 1
-2.18081 -1.48294 5.25759 0.5 0.5 0.5 1
0.0444304 -1.88012 4.68926 0.5 0.5 0.5 1
0.044431 1.8801 4.68926 0.5 0.5 0.5 1
2.37231 1.42473 5.1152 0.5 0.5 0.5 1
3.9981 -0.61959 3.41973 1 1 0 1
-0.875167 -1.73064 4.17853 0.5 0.5 0.5 1
-0.875175 1.73064 4.17852 0.5 0.5 0.5 1
-1.50569 -0.98336 2.55954 0.5 0.5 0.5 1
-1.50558 0.982926 2.55959 0.5 0.5 0.5 1
1.02554 1.72075 3.84983 0.5 0.5 0.5 1
1.02554 -1.72075 3.84983 0.5 0.5 0.5 1
3.9981 0.61959 3.41973 1 1 0 1
-4.13682 0.659647 3.50266 1 1 0 1
1.96599 3.9432e-07 4.25991 0.5 0.5 0.5 1
1.40743 1.30947 3.50149 0.5 0.5 0.5 1
1.40744 -1.30946 3.5015 0.5 0.5 0.5 1
0.140139 1.77491 3.62975 0.5 0.5 0.5 1
0.140174 -1.77505 3.62976 0.5 0.5 0.5 1
1.61696 2.30693e-05 3.17851 0.5 0.5 0.5 1
4.86067 -0.672012 3.7806 1 1 0 1
4.86067 0.672012 3.7806 1 1 0 1
-4.13682 -0.659647 3.50266 1 1 0 1
0.146095 -9.41041e-07 1.0221 1 1 0 1
-5.76932 1.2125 5.59538 0.5 0.5 0.5 1
-5.76932 -1.2125 5.59538 0.5 0.5 0.5 1
-2.59719 -1.51334e-06 4.25726 0.5 0.5 0.5 1
-0.632217 -1.57224 3.27803 0.5 0.5 0.5 1
-0.632268 1.57221 3.27795 0.5 0.5 0.5 1
6.85706 -1.28397 5.64035 0.5 0.5 0.5 1
6.85706 1.28397 5.64035 0.5 0.5 0.5 1
2.37231 -1.42473 5.1152 0.5 0.5 0.5 1
1.63054 1.59649 4.48889 0.5 0.5 0.5 1
1.63054 -1.59649 4.48889 0.5 0.5 0.5 1
-1.03182 1.77641 5.16397 0.5 0.5 0.5 1
0.912552 1.57928 2.89085 0.5 0.5 0.5 1
0.912724 -1.57913 2.89084 0.5 0.5 0.5 1
2.3721 -7.09497e-07 4.73137 0.5 0.5 0.5 1
1.25564 1.08095 2.54964 0.5 0.5 0.5 1
1.25564 -1.08096 2.54964 0.5 0.5 0.5 1
0.237251 1.62743 2.62567 0.5 0.5 0.5 1
0.23726 -1.62743 2.62567 0.5 0.5 0.5 1
4.49401 -1.5636 4.80883 0.5 0.5 0.5 1
4.49401 1.5636 4.80883 0.5 0.5 0.5 1
3.56308 -1.66968 5.4277 0.5 0.5 0.5 1
3.56308 1.66964 5.4277 0.5 0.5 0.5 1
1.39639 3.78377e-05 2.33479 0.5 0.5 0.5 1
-2.95686 1.48476 4.68759 0.5 0.5 0.5 1
-2.95686 -1.48476 4.6876 0.5 0.5 0.5 1
-3.55736 1.5659 5.2346 0.5 0.5 0.5 1
-3.55736 -1.5659 5.2346 0.5 0.5 0.5 1
-0.421811 -1.44062 2.2652 0.5 0.5 0.5 1
-0.421865 1.44053 2.2652 0.5 0.5 0.5 1
-4.97332 1.32652 5.17728 0.5 0.5 0.5 1
-4.97332 -1.32652 5.17728 0.5 0.5 0.5 1
3.71725 -1.65621 4.92457 0.5 0.5 0.5 1
3.71725 1.65621 4.92457 0.5 0.5 0.5 1
5.92092 -1.47366 5.14037 0.5 0.5 0.5 1
5.92092 1.47366 5.14037 0.5 0.5 0.5 1
7.28131 1.4736e-07 5.3193 0.5 0.5 0.5 1
6.60712 -0.641206 4.39394 0.5 0.5 0.5 1
6.60712 0.641206 4.39394 0.5 0.5 0.5 1
6.52583 -1.01276 4.76771 0.5 0.5 0.5 1
6.52583 1.01276 4.76771 0.5 0.5 0.5 1
-4.13832 1.47223 5.07945 0.5 0.5 0.5 1
-4.13832 -1.47223 5.07945 0.5 0.5 0.5 1
-1.38844 -0.639193 1.70483 0.5 0.5 0.5 1
-1.38839 0.639091 1.70483 0.5 0.5 0.5 1
2.8213 1.13456 4.3546 0.5 0.5 0.5 1
2.82131 -1.13456 4.3546 0.5 0.5 0.5 1
-6.15301 -4.802e-12 5.347 0.5 0.5 0.5 1
-5.55157 0.586463 4.32774 0.5 0.5 0.5 1
-5.55157 -0.586463 4.32774 0.5 0.5 0.5 1
-5.49075 0.931303 4.70525 0.5 0.5 0.5 1
-5.49075 -0.931303 4.70525 0.5 0.5 0.5 1
0.800388 1.2708 1.98335 0.5 0.5 0.5 1
0.800391 -1.2708 1.98335 0.5 0.5 0.5 1
-1.03182 -1.77641 5.16397 0.5 0.5 0.5 1
5.1158 -1.47363 4.80092 0.5 0.5 0.5 1
5.1158 1.47363 4.80092 0.5 0.5 0.5 1
2.76989 -0.303441 3.92815 0.5 0.5 0.5 1
2.76989 0.303442 3.92815 0.5 0.5 0.5 1
0.13694 1.21276 1.76166 1 1 1 1
0.136952 -1.21275 1.76164 1 1 1 1
-1.93219 0.940906 3.92733 0.5 0.5 0.5 1
3.75994 -1.43945 4.39761 0.5 0.5 0.5 1
3.75994 1.43945 4.39761 0.5 0.5 0.5 1
1.01434 0.682157 1.78529 1 1 1 1
1.01434 -0.682155 1.78529 1 1 1 1
-1.61412 -0.000210444 2.56238 0.5 0.5 0.5 1
-3.8145 1.1492 4.36695 0.5 0.5 0.5 1
-3.8145 -1.1492 4.36695 0.5 0.5 0.5 1

3 0 24 57
3 0 57 24
3 0 29 103
3 0 103 29
3 0 57 103
3 0 103 57
3 1 25 58
3 1 58 25
3 1 29 103
3 1 103 29
3 1 58 103
3 1 103 58
3 2 6 31
3 2 31 6
3 2 9 110
3 2 110 9
3 2 31 35
3 2 35 31
3 2 35 110
3 2 110 35
3 3 26 62
3 3 62 26
3 3 28 92
3 3 92 28
3 3 62 92
3 3 92 62
3 4 27 63
3 4 63 27
3 4 28 92
3 4 92 28
3 4 63 92
3 4 92 63
3 5 7 32
3 5 32 7
3 5 8 67
3 5 67 8
3 5 32 36
3 5 36 32
3 5 36 67
3 5 67 36
3 6 10 64
3 6 64 10
3 6 31 64
3 6 64 31
3 7 11 37
3 7 37 11
3 7 32 37
3 7 37 32
3 8 12 33
3 8 33 12
3 8 33 67
3 8 67 33
3 9 13 34
3 9 34 13
3 9 34 110
3 9 110 34
3 10 14 64
3 10 64 14
3 11 15 37
3 11 37 15
3 12 16 33
3 12 33 16
3 13 17 34
3 13 34 17
3 14 18 77
3 14 77 18
3 14 64 77
3 14 77 64
3 15 19 78
3 15 78 19
3 15 37 78
3 15 78 37
3 16 20 82
3 16 82 20
3 16 33 80
3 16 80 33
3 16 80 82
3 16 82 80
3 17 21 83
3 17 83 21
3 17 34 81
3 17 81 34
3 17 81 83
3 17 83 81
3 18 22 75
3 18 75 22
3 18 75 88
3 18 88 75
3 18 77 88
3 18 88 77
3 19 23 76
3 19 76 23
3 19 76 89
3 19 89 76
3 19 78 89
3 19 89 78
3 20 24 86
3 20 86 24
3 20 82 97
3 20 97 82
3 20 86 97
3 20 97 86
3 21 25 87
3 21 87 25
3 21 83 98
3 21 98 83
3 21 87 98
3 21 98 87
3 22 26 90
3 22 90 26
3 22 53 75
3 22 75 53
3 22 53 90
3 22 90 53
3 22 75 111
3 22 111 75
3 22 90 111
3 22 111 90
3 23 27 91
3 23 91 27
3 23 54 76
3 23 76 54
3 23 54 91
3 23 91 54
3 23 76 112
3 23 112 76
3 23 91 112
3 23 112 91
3 24 57 86
3 24 86 57
3 25 58 87
3 25 87 58
3 26 62 90
3 26 90 62
3 27 63 91
3 27 91 63
3 30 34 39
3 30 39 34
3 30 34 59
3 30 59 34
3 30 39 60
3 30 60 39
3 30 41 60
3 30 60 41
3 30 41 122
3 30 122 41
3 30 59 117
3 30 117 59
3 30 117 122
3 30 122 117
3 31 35 44
3 31 44 35
3 31 44 66
3 31 66 44
3 31 64 66
3 31 66 64
3 32 36 43
3 32 43 36
3 32 37 65
3 32 65 37
3 32 43 65
3 32 65 43
3 33 40 67
3 33 67 40
3 33 40 117
3 33 117 40
3 33 59 80
3 33 80 59
3 33 59 117
3 33 117 59
3 34 39 110
3 34 110 39
3 34 59 81
3 34 81 59
3 35 39 51
3 35 51 39
3 35 39 110
3 35 110 39
3 35 44 51
3 35 51 44
3 36 40 50
3 36 50 40
3 36 40 67
3 36 67 40
3 36 43 50
3 36 50 43
3 37 47 65
3 37 65 47
3 37 47 70
3 37 70 47
3 37 70 101
3 37 101 70
3 37 78 101
3 37 101 78
3 38 45 54
3 38 54 45
3 38 45 114
3 38 114 45
3 38 53 54
3 38 54 53
3 38 53 75
3 38 75 53
3 38 70 102
3 38 102 70
3 38 70 113
3 38 113 70
3 38 75 88
3 38 88 75
3 38 77 88
3 38 88 77
3 38 77 102
3 38 102 77
3 38 88 118
3 38 118 88
3 38 102 118
3 38 118 102
3 38 113 114
3 38 114 113
3 39 51 60
3 39 60 51
3 40 50 61
3 40 61 50
3 40 61 117
3 40 117 61
3 41 56 84
3 41 84 56
3 41 56 99
3 41 99 56
3 41 60 84
3 41 84 60
3 41 99 122
3 41 122 99
3 42 56 85
3 42 85 56
3 42 56 100
3 42 100 56
3 42 61 85
3 42 85 61
3 42 61 117
3 42 117 61
3 42 100 122
3 42 122 100
3 42 117 122
3 42 122 117
3 43 48 65
3 43 65 48
3 43 48 68
3 43 68 48
3 43 50 68
3 43 68 50
3 44 49 66
3 44 66 49
3 44 49 69
3 44 69 49
3 44 51 69
3 44 69 51
3 45 54 76
3 45 76 54
3 45 70 101
3 45 101 70
3 45 70 114
3 45 114 70
3 45 76 89
3 45 89 76
3 45 78 89
3 45 89 78
3 45 78 101
3 45 101 78
3 45 89 119
3 45 119 89
3 45 101 119
3 45 119 101
3 46 55 59
3 46 59 55
3 46 55 105
3 46 105 55
3 46 59 80
3 46 80 59
3 46 80 82
3 46 82 80
3 46 80 123
3 46 123 80
3 46 82 97
3 46 97 82
3 46 86 97
3 46 97 86
3 46 86 106
3 46 106 86
3 46 97 123
3 46 123 97
3 46 104 105
3 46 105 104
3 46 104 106
3 46 106 104
3 47 48 52
3 47 52 48
3 47 48 65
3 47 65 48
3 47 49 52
3 47 52 49
3 47 49 66
3 47 66 49
3 47 64 66
3 47 66 64
3 47 64 70
3 47 70 64
3 48 52 71
3 48 71 52
3 48 68 71
3 48 71 68
3 49 52 72
3 49 72 52
3 49 69 72
3 49 72 69
3 50 61 73
3 50 73 61
3 50 68 73
3 50 73 68
3 51 60 74
3 51 74 60
3 51 69 74
3 51 74 69
3 52 71 79
3 52 79 71
3 52 72 79
3 52 79 72
3 53 54 94
3 53 94 54
3 53 75 111
3 53 111 75
3 53 90 95
3 53 95 90
3 53 90 111
3 53 111 90
3 53 93 94
3 53 94 93
3 53 93 95
3 53 95 93
3 54 76 112
3 54 112 76
3 54 91 96
3 54 96 91
3 54 91 112
3 54 112 91
3 54 94 96
3 54 96 94
3 55 59 81
3 55 81 59
3 55 81 83
3 55 83 81
3 55 81 124
3 55 124 81
3 55 83 98
3 55 98 83
3 55 87 98
3 55 98 87
3 55 87 107
3 55 107 87
3 55 98 124
3 55 124 98
3 55 105 107
3 55 107 105
3 56 71 79
3 56 79 71
3 56 71 108
3 56 108 71
3 56 72 79
3 56 79 72
3 56 72 109
3 56 109 72
3 56 73 85
3 56 85 73
3 56 73 108
3 56 108 73
3 56 74 84
3 56 84 74
3 56 74 109
3 56 109 74
3 56 79 120
3 56 120 79
3 56 79 121
3 56 121 79
3 56 84 116
3 56 116 84
3 56 85 115
3 56 115 85
3 56 99 100
3 56 100 99
3 56 108 115
3 56 115 108
3 56 108 120
3 56 120 108
3 56 109 116
3 56 116 109
3 56 109 121
3 56 121 109
3 57 86 106
3 57 106 86
3 57 103 106
3 57 106 103
3 58 87 107
3 58 107 87
3 58 103 107
3 58 107 103
3 60 74 84
3 60 84 74
3 61 73 85
3 61 85 73
3 62 90 95
3 62 95 90
3 62 92 95
3 62 95 92
3 63 91 96
3 63 96 91
3 63 92 96
3 63 96 92
3 64 70 102
3 64 102 70
3 64 77 102
3 64 102 77
3 68 71 108
3 68 108 71
3 68 73 108
3 68 108 73
3 69 72 109
3 69 109 72
3 69 74 109
3 69 109 74
3 70 113 114
3 70 114 113
3 71 79 120
3 71 120 79
3 71 108 120
3 71 120 108
3 72 79 121
3 72 121 79
3 72 109 121
3 72 121 109
3 73 85 115
3 73 115 85
3 73 108 115
3 73 115 108
3 74 84 116
3 74 116 84
3 74 109 116
3 74 116 109
3 77 88 118
3 77 118 88
3 77 102 118
3 77 118 102
3 78 89 119
3 78 119 89
3 78 101 119
3 78 119 101
3 80 82 123
3 80 123 82
3 81 83 124
3 81 124 83
3 82 97 123
3 82 123 97
3 83 98 124
3 83 124 98
3 92 93 94
3 92 94 93
3 92 93 95
3 92 95 93
3 92 94 96
3 92 96 94
3 99 100 122
3 99 122 100
3 103 104 105
3 103 105 104
3 103 104 106
3 103 106 104
3 103 105 107
3 103 107 105
