COFF
158 612 158

-6.59561 1.16618 7.06885 0.5 0.5 0.5 1
-6.59561 -1.16618 7.06885 0.5 0.5 0.5 1
-0.0326545 -2.29689 6.6882 0.5 0.5 0.5 1
7.58969 -1.26165 6.96879 0.5 0.5 0.5 1
7.58969 1.26165 6.96879 0.5 0.5 0.5 1
-0.0326545 2.29689 6.6882 0.5 0.5 0.5 1
1.1545 -1.96061 6.84676 0.5 0.5 0.5 1
1.1545 1.96061 6.84676 0.5 0.5 0.5 1
-1.19266 1.94545 6.81451 0.5 0.5 0.5 1
-1.19266 -1.94545 6.81451 0.5 0.5 0.5 1
2.05593 -1.63437 7.13166 0.5 0.5 0.5 1
2.05593 1.63437 7.13166 0.5 0.5 0.5 1
-2.08992 1.62769 7.12158 0.5 0.5 0.5 1
-2.08992 -1.62769 7.12158 0.5 0.5 0.5 1
3.01902 -1.77468 6.90592 0.5 0.5 0.5 1
3.01902 1.77468 6.90592 0.5 0.5 0.5 1
-3.04578 1.74807 6.85488 0.5 0.5 0.5 1
-3.04578 -1.74807 6.85488 0.5 0.5 0.5 1
4.0013 -1.93432 6.71238 0.5 0.5 0.5 1
4.0013 1.93432 6.71238 0.5 0.5 0.5 1
-4.07686 1.73474 6.80612 0.5 0.5 0.5 1
-4.07686 -1.73474 6.80612 0.5 0.5 0.5 1
5.09398 -1.98923 6.52756 0.5 0.5 0.5 1
5.09398 1.98923 6.52756 0.5 0.5 0.5 1
-5.11056 1.53033 6.92437 0.5 0.5 0.5 1
-5.11056 -1.53033 6.92437 0.5 0.5 0.5 1
6.19171 -1.68626 6.79882 0.5 0.5 0.5 1
6.19171 1.68626 6.79882 0.5 0.5 0.5 1
8.85237 -1.34735e-09 6.98184 0.5 0.5 0.5 1
-7.76228 -0.000105826 7.08387 0.5 0.5 0.5 1
-1.92402 -0.995196 4.47752 0.5 0.5 0.5 1
1.14258 -1.87344 5.55934 0.5 0.5 0.5 1
1.14258 1.87344 5.55934 0.5 0.5 0.5 1
-2.13268 1.65372 5.89391 0.5 0.5 0.5 1
-2.13267 -1.65372 5.8939 0.5 0.5 0.5 1
-0.0312911 -1.97555 5.26012 0.5 0.5 0.5 1
-0.0312925 1.97555 5.26012 0.5 0.5 0.5 1
2.40278 1.54423 5.6872 0.5 0.5 0.5 1
4.00655 -0.619502 3.41973 1 1 0 1
-0.902936 -1.84992 4.72007 0.5 0.5 0.5 1
-0.902914 1.8499 4.72006 0.5 0.5 0.5 1
-1.51439 -0.885201 3.06469 0.5 0.5 0.5 1
-1.51439 0.885201 3.06469 0.5 0.5 0.5 1
1.04545 1.83516 4.44305 0.5 0.5 0.5 1
1.04545 -1.83516 4.44305 0.5 0.5 0.5 1
4.00655 0.619501 3.41973 1 1 0 1
-4.15966 0.660112 3.50266 1 1 0 1
2.06939 -3.24409e-10 4.96125 0.5 0.5 0.5 1
1.43265 1.41984 4.04579 0.5 0.5 0.5 1
1.43265 -1.41983 4.0458 0.5 0.5 0.5 1
0.0741452 1.88441 4.16266 0.5 0.5 0.5 1
0.07416 -1.8844 4.16266 0.5 0.5 0.5 1
1.61032 4.22393e-06 3.60801 0.5 0.5 0.5 1
4.86845 -0.672797 3.7806 1 1 0 1
4.86845 0.672797 3.7806 1 1 0 1
-4.15966 -0.660112 3.50266 1 1 0 1
0.16393 -1.09475e-06 1.0221 1 1 0 1
-5.81284 1.32297 6.26749 0.5 0.5 0.5 1
-5.81284 -1.32297 6.26749 0.5 0.5 0.5 1
-2.53587 -1.40117e-08 4.80755 0.5 0.5 0.5 1
-0.71082 -1.65163 3.69196 0.5 0.5 0.5 1
-0.710823 1.65164 3.69196 0.5 0.5 0.5 1
6.85481 -1.4389 6.2858 0.5 0.5 0.5 1
6.85481 1.4389 6.2858 0.5 0.5 0.5 1
2.40277 -1.54423 5.6872 0.5 0.5 0.5 1
1.67288 1.71324 5.0608 0.5 0.5 0.5 1
1.67288 -1.71324 5.0608 0.5 0.5 0.5 1
-0.99557 1.84536 5.45191 1 1 0 1
0.91244 1.68815 3.43165 0.5 0.5 0.5 1
0.912436 -1.68816 3.43164 0.5 0.5 0.5 1
2.40269 -4.66764e-07 5.30873 0.5 0.5 0.5 1
1.24491 1.18987 3.038 0.5 0.5 0.5 1
1.2449 -1.18987 3.03798 0.5 0.5 0.5 1
0.165979 1.736 3.11043 0.5 0.5 0.5 1
0.166139 -1.73615 3.11043 0.5 0.5 0.5 1
4.37756 -1.80245 5.20876 0.5 0.5 0.5 1
4.37756 1.80245 5.20876 0.5 0.5 0.5 1
3.57048 -1.86405 6.01967 0.5 0.5 0.5 1
3.57049 1.86404 6.01967 0.5 0.5 0.5 1
1.39267 1.26081e-06 2.71996 1 1 1 1
-2.90924 1.65727 5.32541 0.5 0.5 0.5 1
-2.90924 -1.65727 5.32541 0.5 0.5 0.5 1
-3.57391 1.74119 5.83327 0.5 0.5 0.5 1
-3.57391 -1.74119 5.83327 0.5 0.5 0.5 1
-0.532412 -1.48205 2.6702 1 1 1 1
-0.532414 1.48205 2.6702 1 1 1 1
-5.074 1.46841 5.76223 0.5 0.5 0.5 1
-5.074 -1.46841 5.76223 0.5 0.5 0.5 1
3.70801 -1.88644 5.41034 0.5 0.5 0.5 1
3.70792 1.88616 5.41034 0.5 0.5 0.5 1
6.06842 -1.63072 5.57099 0.5 0.5 0.5 1
6.06842 1.63072 5.57099 0.5 0.5 0.5 1
7.475 -3.29723e-08 5.92387 0.5 0.5 0.5 1
6.96033 -0.746731 4.9104 0.5 0.5 0.5 1
6.96033 0.74673 4.9104 0.5 0.5 0.5 1
6.66365 -1.18291 5.44625 0.5 0.5 0.5 1
6.66365 1.18291 5.44626 0.5 0.5 0.5 1
-4.15606 1.65536 5.55352 0.5 0.5 0.5 1
-4.15605 -1.65537 5.55352 0.5 0.5 0.5 1
-1.70192 -0.471352 2.18521 1 1 1 1
-1.70192 0.471352 2.18521 1 1 1 1
2.66563 1.10341 4.84713 0.5 0.5 0.5 1
2.66563 -1.10341 4.84713 0.5 0.5 0.5 1
-6.39301 3.37376e-08 5.94988 0.5 0.5 0.5 1
-5.90393 0.671319 4.84578 0.5 0.5 0.5 1
-5.90393 -0.67132 4.84578 0.5 0.5 0.5 1
-5.64419 1.06594 5.29509 0.5 0.5 0.5 1
-5.64426 -1.0659 5.29509 0.5 0.5 0.5 1
0.801185 1.51085 2.44411 1 1 1 1
0.801185 -1.51086 2.44412 1 1 1 1
-0.99557 -1.84536 5.45191 1 1 0 1
5.34107 -1.70741 5.2087 0.5 0.5 0.5 1
5.34107 1.70741 5.2087 0.5 0.5 0.5 1
2.60883 -0.309373 4.00804 0.5 0.5 0.5 1
2.60883 0.309372 4.00804 0.5 0.5 0.5 1
0.20396 1.54697 2.14608 1 1 1 1
0.203965 -1.54697 2.14607 1 1 1 1
-1.92402 0.995196 4.47752 0.5 0.5 0.5 1
3.43406 -1.69571 4.68072 0.5 0.5 0.5 1
3.43407 1.69571 4.68072 0.5 0.5 0.5 1
1.11178 0.964214 2.18258 1 1 1 1
1.11178 -0.964217 2.18258 1 1 1 1
-1.95816 3.37325e-07 3.11776 0.5 0.5 0.5 1
-3.60708 1.55993 4.67503 0.5 0.5 0.5 1
-3.60708 -1.55993 4.67503 0.5 0.5 0.5 1
-4.90479 1.36724 4.79711 0.5 0.5 0.5 1
-4.90479 -1.36724 4.79711 0.5 0.5 0.5 1
-0.631144 -1.1538 1.97367 1 1 1 1
-0.631144 1.1538 1.97367 1 1 1 1
6.22729 -1.3168 4.71819 0.5 0.5 0.5 1
6.22729 1.3168 4.71819 0.5 0.5 0.5 1
-3.20907 1.29413 4.44307 0.5 0.5 0.5 1
-3.20909 -1.29416 4.44305 0.5 0.5 0.5 1
6.43754 -0.671703 4.13737 0.5 0.5 0.5 1
6.43754 0.671703 4.13737 0.5 0.5 0.5 1
5.6848 -1.47772 4.70018 0.5 0.5 0.5 1
5.6848 1.47772 4.70018 0.5 0.5 0.5 1
3.79421 -1.65784 4.43893 0.5 0.5 0.5 1
3.79421 1.65784 4.43894 0.5 0.5 0.5 1
-5.30575 1.20726 4.53925 0.5 0.5 0.5 1
-5.30575 -1.20726 4.53925 0.5 0.5 0.5 1
-4.18103 1.4711 4.60689 0.5 0.5 0.5 1
-4.18103 -1.4711 4.60689 0.5 0.5 0.5 1
-1.10717 -0.298611 1.46865 1 1 1 1
-1.10717 0.298611 1.46865 1 1 1 1
-2.98864 0.323667 4.03452 0.5 0.5 0.5 1
-2.98864 -0.323666 4.03452 0.5 0.5 0.5 1
4.1653 -1.4091 4.23207 0.5 0.5 0.5 1
4.1653 1.4091 4.23207 0.5 0.5 0.5 1
0.629848 1.0328 1.69859 1 1 1 1
0.629851 -1.03281 1.6986 1 1 1 1
-5.19532 0.657711 4.05868 0.5 0.5 0.5 1
-5.19532 -0.657711 4.05868 0.5 0.5 0.5 1
1.0074 -8.42689e-07 1.89844 1 1 1 1
-2.30892 0.846249 5.32052 0.5 0.5 0.5 1
-2.30892 -0.846249 5.32052 0.5 0.5 0.5 1
3.3131 -0.879559 4.13086 0.5 0.5 0.5 1
3.31309 0.879558 4.13086 0.5 0.5 0.5 1

3 0 24 57
3 0 57 24
3 0 29 103
3 0 103 29
3 0 57 103
3 0 103 57
3 1 25 58
3 1 58 25
3 1 29 103
3 1 103 29
3 1 58 103
3 1 103 58
3 2 6 31
3 2 31 6
3 2 9 110
3 2 110 9
3 2 31 35
3 2 35 31
3 2 35 110
3 2 110 35
3 3 26 62
3 3 62 26
3 3 28 92
3 3 92 28
3 3 62 92
3 3 92 62
3 4 27 63
3 4 63 27
3 4 28 92
3 4 92 28
3 4 63 92
3 4 92 63
3 5 7 32
3 5 32 7
3 5 8 67
3 5 67 8
3 5 32 36
3 5 36 32
3 5 36 67
3 5 67 36
3 6 10 64
3 6 64 10
3 6 31 64
3 6 64 31
3 7 11 37
3 7 37 11
3 7 32 37
3 7 37 32
3 8 12 33
3 8 33 12
3 8 33 67
3 8 67 33
3 9 13 34
3 9 34 13
3 9 34 110
3 9 110 34
3 10 14 64
3 10 64 14
3 11 15 37
3 11 37 15
3 12 16 33
3 12 33 16
3 13 17 34
3 13 34 17
3 14 18 77
3 14 77 18
3 14 64 77
3 14 77 64
3 15 19 78
3 15 78 19
3 15 37 78
3 15 78 37
3 16 20 82
3 16 82 20
3 16 33 80
3 16 80 33
3 16 80 82
3 16 82 80
3 17 21 83
3 17 83 21
3 17 34 81
3 17 81 34
3 17 81 83
3 17 83 81
3 18 22 75
3 18 75 22
3 18 75 88
3 18 88 75
3 18 77 88
3 18 88 77
3 19 23 76
3 19 76 23
3 19 76 89
3 19 89 76
3 19 78 89
3 19 89 78
3 20 24 86
3 20 86 24
3 20 82 97
3 20 97 82
3 20 86 97
3 20 97 86
3 21 25 87
3 21 87 25
3 21 83 98
3 21 98 83
3 21 87 98
3 21 98 87
3 22 26 90
3 22 90 26
3 22 75 111
3 22 111 75
3 22 90 111
3 22 111 90
3 23 27 91
3 23 91 27
3 23 76 112
3 23 112 76
3 23 91 112
3 23 112 91
3 24 57 86
3 24 86 57
3 25 58 87
3 25 87 58
3 26 62 90
3 26 90 62
3 27 63 91
3 27 91 63
3 30 34 39
3 30 39 34
3 30 34 81
3 30 81 34
3 30 34 155
3 30 155 34
3 30 39 60
3 30 60 39
3 30 41 60
3 30 60 41
3 30 41 122
3 30 122 41
3 30 59 81
3 30 81 59
3 30 59 117
3 30 117 59
3 30 59 155
3 30 155 59
3 30 117 122
3 30 122 117
3 31 35 44
3 31 44 35
3 31 44 66
3 31 66 44
3 31 64 66
3 31 66 64
3 32 36 43
3 32 43 36
3 32 37 65
3 32 65 37
3 32 43 65
3 32 65 43
3 33 40 67
3 33 67 40
3 33 40 117
3 33 117 40
3 33 59 80
3 33 80 59
3 33 59 117
3 33 117 59
3 33 80 154
3 33 154 80
3 33 117 154
3 33 154 117
3 34 39 110
3 34 110 39
3 34 81 155
3 34 155 81
3 35 39 51
3 35 51 39
3 35 39 110
3 35 110 39
3 35 44 51
3 35 51 44
3 36 40 50
3 36 50 40
3 36 40 67
3 36 67 40
3 36 43 50
3 36 50 43
3 37 47 65
3 37 65 47
3 37 47 70
3 37 70 47
3 37 70 101
3 37 101 70
3 37 78 101
3 37 101 78
3 38 45 54
3 38 54 45
3 38 45 114
3 38 114 45
3 38 53 54
3 38 54 53
3 38 53 75
3 38 75 53
3 38 53 147
3 38 147 53
3 38 75 137
3 38 137 75
3 38 113 114
3 38 114 113
3 38 113 156
3 38 156 113
3 38 118 137
3 38 137 118
3 38 118 156
3 38 156 118
3 38 137 147
3 38 147 137
3 39 51 60
3 39 60 51
3 40 50 61
3 40 61 50
3 40 61 117
3 40 117 61
3 41 60 84
3 41 84 60
3 41 84 127
3 41 127 84
3 41 99 122
3 41 122 99
3 41 99 127
3 41 127 99
3 42 61 85
3 42 85 61
3 42 61 117
3 42 117 61
3 42 85 128
3 42 128 85
3 42 100 122
3 42 122 100
3 42 100 128
3 42 128 100
3 42 117 122
3 42 122 117
3 43 48 65
3 43 65 48
3 43 48 68
3 43 68 48
3 43 50 68
3 43 68 50
3 44 49 66
3 44 66 49
3 44 49 69
3 44 69 49
3 44 51 69
3 44 69 51
3 45 54 76
3 45 76 54
3 45 54 148
3 45 148 54
3 45 76 138
3 45 138 76
3 45 114 157
3 45 157 114
3 45 119 138
3 45 138 119
3 45 119 157
3 45 157 119
3 45 138 148
3 45 148 138
3 46 55 146
3 46 146 55
3 46 55 152
3 46 152 55
3 46 59 131
3 46 131 59
3 46 59 145
3 46 145 59
3 46 97 123
3 46 123 97
3 46 97 125
3 46 125 97
3 46 104 139
3 46 139 104
3 46 104 151
3 46 151 104
3 46 123 131
3 46 131 123
3 46 123 141
3 46 141 123
3 46 125 139
3 46 139 125
3 46 125 141
3 46 141 125
3 46 145 146
3 46 146 145
3 46 151 152
3 46 152 151
3 47 48 52
3 47 52 48
3 47 48 65
3 47 65 48
3 47 49 52
3 47 52 49
3 47 49 66
3 47 66 49
3 47 64 66
3 47 66 64
3 47 64 70
3 47 70 64
3 48 52 71
3 48 71 52
3 48 68 71
3 48 71 68
3 49 52 72
3 49 72 52
3 49 69 72
3 49 72 69
3 50 61 73
3 50 73 61
3 50 68 73
3 50 73 68
3 51 60 74
3 51 74 60
3 51 69 74
3 51 74 69
3 52 71 79
3 52 79 71
3 52 72 79
3 52 79 72
3 53 54 134
3 53 134 54
3 53 75 111
3 53 111 75
3 53 75 147
3 53 147 75
3 53 90 111
3 53 111 90
3 53 90 129
3 53 129 90
3 53 93 129
3 53 129 93
3 53 93 133
3 53 133 93
3 53 111 135
3 53 135 111
3 53 129 135
3 53 135 129
3 53 133 134
3 53 134 133
3 54 76 112
3 54 112 76
3 54 76 148
3 54 148 76
3 54 91 112
3 54 112 91
3 54 91 130
3 54 130 91
3 54 94 130
3 54 130 94
3 54 94 134
3 54 134 94
3 54 112 136
3 54 136 112
3 54 130 136
3 54 136 130
3 55 59 132
3 55 132 59
3 55 59 146
3 55 146 59
3 55 98 124
3 55 124 98
3 55 98 126
3 55 126 98
3 55 105 140
3 55 140 105
3 55 105 152
3 55 152 105
3 55 124 132
3 55 132 124
3 55 124 142
3 55 142 124
3 55 126 140
3 55 140 126
3 55 126 142
3 55 142 126
3 56 79 120
3 56 120 79
3 56 79 121
3 56 121 79
3 56 99 127
3 56 127 99
3 56 99 143
3 56 143 99
3 56 100 128
3 56 128 100
3 56 100 144
3 56 144 100
3 56 108 115
3 56 115 108
3 56 108 120
3 56 120 108
3 56 109 116
3 56 116 109
3 56 109 121
3 56 121 109
3 56 115 128
3 56 128 115
3 56 115 149
3 56 149 115
3 56 116 127
3 56 127 116
3 56 116 150
3 56 150 116
3 56 120 149
3 56 149 120
3 56 120 153
3 56 153 120
3 56 121 150
3 56 150 121
3 56 121 153
3 56 153 121
3 56 143 144
3 56 144 143
3 57 86 106
3 57 106 86
3 57 103 106
3 57 106 103
3 58 87 107
3 58 107 87
3 58 103 107
3 58 107 103
3 59 80 131
3 59 131 80
3 59 80 154
3 59 154 80
3 59 81 132
3 59 132 81
3 59 81 155
3 59 155 81
3 59 117 154
3 59 154 117
3 59 145 146
3 59 146 145
3 60 74 84
3 60 84 74
3 61 73 85
3 61 85 73
3 62 90 95
3 62 95 90
3 62 92 95
3 62 95 92
3 63 91 96
3 63 96 91
3 63 92 96
3 63 96 92
3 64 70 102
3 64 102 70
3 64 77 102
3 64 102 77
3 68 71 108
3 68 108 71
3 68 73 108
3 68 108 73
3 69 72 109
3 69 109 72
3 69 74 109
3 69 109 74
3 70 101 157
3 70 157 101
3 70 102 156
3 70 156 102
3 70 113 114
3 70 114 113
3 70 113 156
3 70 156 113
3 70 114 157
3 70 157 114
3 71 79 120
3 71 120 79
3 71 108 120
3 71 120 108
3 72 79 121
3 72 121 79
3 72 109 121
3 72 121 109
3 73 85 115
3 73 115 85
3 73 108 115
3 73 115 108
3 74 84 116
3 74 116 84
3 74 109 116
3 74 116 109
3 75 88 137
3 75 137 88
3 75 137 147
3 75 147 137
3 76 89 138
3 76 138 89
3 76 138 148
3 76 148 138
3 77 88 118
3 77 118 88
3 77 102 118
3 77 118 102
3 78 89 119
3 78 119 89
3 78 101 119
3 78 119 101
3 79 120 153
3 79 153 120
3 79 121 153
3 79 153 121
3 80 82 123
3 80 123 82
3 80 123 131
3 80 131 123
3 81 83 124
3 81 124 83
3 81 124 132
3 81 132 124
3 82 97 123
3 82 123 97
3 83 98 124
3 83 124 98
3 84 116 127
3 84 127 116
3 85 115 128
3 85 128 115
3 86 97 125
3 86 125 97
3 86 106 125
3 86 125 106
3 87 98 126
3 87 126 98
3 87 107 126
3 87 126 107
3 88 118 137
3 88 137 118
3 89 119 138
3 89 138 119
3 90 95 129
3 90 129 95
3 90 111 135
3 90 135 111
3 90 129 135
3 90 135 129
3 91 96 130
3 91 130 96
3 91 112 136
3 91 136 112
3 91 130 136
3 91 136 130
3 92 93 94
3 92 94 93
3 92 93 95
3 92 95 93
3 92 94 96
3 92 96 94
3 93 94 134
3 93 134 94
3 93 95 129
3 93 129 95
3 93 133 134
3 93 134 133
3 94 96 130
3 94 130 96
3 97 123 141
3 97 141 123
3 97 125 141
3 97 141 125
3 98 124 142
3 98 142 124
3 98 126 142
3 98 142 126
3 99 100 122
3 99 122 100
3 99 100 144
3 99 144 100
3 99 143 144
3 99 144 143
3 101 119 157
3 101 157 119
3 102 118 156
3 102 156 118
3 103 104 105
3 103 105 104
3 103 104 106
3 103 106 104
3 103 105 107
3 103 107 105
3 104 105 152
3 104 152 105
3 104 106 139
3 104 139 106
3 104 151 152
3 104 152 151
3 105 107 140
3 105 140 107
3 106 125 139
3 106 139 125
3 107 126 140
3 107 140 126
3 108 115 149
3 108 149 115
3 108 120 149
3 108 149 120
3 109 116 150
3 109 150 116
3 109 121 150
3 109 150 121
