COFF
165 636 165

-6.62626 1.22041 7.4071 0.5 0.5 0.5 1
-6.62626 -1.22041 7.4071 0.5 0.5 0.5 1
-0.0327871 -2.39145 6.98639 0.5 0.5 0.5 1
7.62208 -1.3153 7.30388 0.5 0.5 0.5 1
7.62208 1.3153 7.30388 0.5 0.5 0.5 1
-0.0327871 2.39145 6.98639 0.5 0.5 0.5 1
1.16809 -2.02791 7.17166 0.5 0.5 0.5 1
1.16809 2.02791 7.17166 0.5 0.5 0.5 1
-1.22417 2.0468 7.10254 0.5 0.5 0.5 1
-1.22417 -2.0468 7.10254 0.5 0.5 0.5 1
2.06121 -1.69301 7.47228 0.5 0.5 0.5 1
2.06121 1.69301 7.47228 0.5 0.5 0.5 1
-2.09561 1.69935 7.44932 0.5 0.5 0.5 1
-2.09561 -1.69935 7.44932 0.5 0.5 0.5 1
3.0152 -1.85125 7.2212 0.5 0.5 0.5 1
3.0152 1.85125 7.2212 0.5 0.5 0.5 1
-3.04618 1.82786 7.16807 0.5 0.5 0.5 1
-3.04618 -1.82786 7.16807 0.5 0.5 0.5 1
3.99012 -2.03367 7.00056 0.5 0.5 0.5 1
3.99012 2.03367 7.00056 0.5 0.5 0.5 1
-4.08498 1.80992 7.12305 0.5 0.5 0.5 1
-4.08498 -1.80992 7.12305 0.5 0.5 0.5 1
5.10584 -2.09209 6.80931 0.5 0.5 0.5 1
5.10584 2.09209 6.80931 0.5 0.5 0.5 1
-5.12583 1.59775 7.25159 0.5 0.5 0.5 1
-5.12583 -1.59775 7.25159 0.5 0.5 0.5 1
6.21342 -1.75877 7.11531 0.5 0.5 0.5 1
6.21342 1.75877 7.11531 0.5 0.5 0.5 1
8.93766 3.97152e-09 7.32384 0.5 0.5 0.5 1
-7.84727 0.000108267 7.43241 0.5 0.5 0.5 1
-1.98954 -1.04367 4.74403 0.5 0.5 0.5 1
1.15747 -1.93952 5.85438 0.5 0.5 0.5 1
1.15747 1.93952 5.85438 0.5 0.5 0.5 1
-2.09574 1.77504 6.13735 0.5 0.5 0.5 1
-2.09574 -1.77504 6.13735 0.5 0.5 0.5 1
0.0100987 -2.02355 5.48801 0.5 0.5 0.5 1
0.0100996 2.02326 5.48801 0.5 0.5 0.5 1
2.41516 1.59871 5.97603 0.5 0.5 0.5 1
4.0144 -0.619884 3.41973 1 1 0 1
-0.925679 -1.88084 4.73487 0.5 0.5 0.5 1
-0.925628 1.88065 4.73486 0.5 0.5 0.5 1
-1.56464 -0.880248 3.31097 0.5 0.5 0.5 1
-1.56464 0.880244 3.31097 0.5 0.5 0.5 1
1.05371 1.89263 4.7355 0.5 0.5 0.5 1
1.05372 -1.89272 4.7355 0.5 0.5 0.5 1
4.0144 0.619883 3.41973 1 1 0 1
-4.16935 0.660355 3.50266 1 1 0 1
2.15377 -1.21182e-07 5.24382 0.5 0.5 0.5 1
1.45822 1.47009 4.31868 0.5 0.5 0.5 1
1.45822 -1.47009 4.31869 0.5 0.5 0.5 1
0.0071335 1.92939 4.41446 0.5 0.5 0.5 1
0.00711736 -1.92952 4.41446 0.5 0.5 0.5 1
1.61349 3.85419e-06 3.84257 0.5 0.5 0.5 1
4.87695 -0.67254 3.7806 1 1 0 1
4.87695 0.67254 3.7806 1 1 0 1
-4.16935 -0.660355 3.50266 1 1 0 1
0.147615 2.52268e-05 1.0221 1 1 0 1
-5.88063 1.31335 6.42006 1 1 0 1
-5.88063 -1.31335 6.42006 1 1 0 1
-2.53861 -1.62139e-06 5.02365 0.5 0.5 0.5 1
-0.789338 -1.6962 3.92971 0.5 0.5 0.5 1
-0.789351 1.69617 3.92971 0.5 0.5 0.5 1
6.85156 -1.51124 6.59461 0.5 0.5 0.5 1
6.85156 1.51124 6.59461 0.5 0.5 0.5 1
2.41516 -1.59871 5.97603 0.5 0.5 0.5 1
1.69387 1.77144 5.33999 0.5 0.5 0.5 1
1.69387 -1.77144 5.33999 0.5 0.5 0.5 1
-1.00931 1.8543 5.45191 1 1 0 1
0.906444 1.73903 3.69982 0.5 0.5 0.5 1
0.906314 -1.73912 3.69981 0.5 0.5 0.5 1
2.41527 1.24966e-07 5.56021 0.5 0.5 0.5 1
1.24431 1.23849 3.28072 1 1 1 1
1.24432 -1.23849 3.2807 1 1 1 1
0.0962815 1.78445 3.35094 1 1 1 1
0.0963135 -1.78438 3.35095 1 1 1 1
4.26262 -1.90585 5.40627 0.5 0.5 0.5 1
4.2626 1.90585 5.40628 0.5 0.5 0.5 1
3.57029 -1.9551 6.31558 0.5 0.5 0.5 1
3.57029 1.95509 6.31559 0.5 0.5 0.5 1
1.39537 -6.09857e-08 2.93602 1 1 1 1
-2.95147 1.80558 5.64751 0.5 0.5 0.5 1
-2.95147 -1.80558 5.64751 0.5 0.5 0.5 1
-3.57695 1.81849 6.11892 0.5 0.5 0.5 1
-3.57695 -1.81849 6.11892 0.5 0.5 0.5 1
-0.608319 -1.50349 2.88993 1 1 1 1
-0.608325 1.50348 2.88992 1 1 1 1
-5.08461 1.52746 6.04901 0.5 0.5 0.5 1
-5.08461 -1.52746 6.04901 0.5 0.5 0.5 1
3.70906 -1.98085 5.64697 0.5 0.5 0.5 1
3.70907 1.98086 5.64696 0.5 0.5 0.5 1
6.12494 -1.72625 5.82253 0.5 0.5 0.5 1
6.12494 1.72625 5.82253 0.5 0.5 0.5 1
7.52625 1.30415e-07 6.24009 0.5 0.5 0.5 1
7.0148 -0.739791 5.20062 0.5 0.5 0.5 1
7.0148 0.739791 5.20062 0.5 0.5 0.5 1
6.66449 -1.28213 5.73605 0.5 0.5 0.5 1
6.66449 1.28213 5.73605 0.5 0.5 0.5 1
-4.17438 1.72386 5.80872 0.5 0.5 0.5 1
-4.17439 -1.72386 5.80872 0.5 0.5 0.5 1
-1.78515 -0.457857 2.44701 1 1 1 1
-1.78515 0.457856 2.44702 1 1 1 1
2.65117 1.1321 5.15665 0.5 0.5 0.5 1
2.65117 -1.1321 5.15665 0.5 0.5 0.5 1
-6.46205 8.10858e-06 6.26023 0.5 0.5 0.5 1
-5.96441 0.682137 5.1514 0.5 0.5 0.5 1
-5.9644 -0.682131 5.1514 0.5 0.5 0.5 1
-5.70829 1.09494 5.58501 0.5 0.5 0.5 1
-5.70827 -1.09494 5.58501 0.5 0.5 0.5 1
0.77565 1.56389 2.69543 1 1 1 1
0.775607 -1.56387 2.69549 1 1 1 1
-1.00931 -1.85429 5.45191 1 1 0 1
5.27017 -1.80891 5.39875 0.5 0.5 0.5 1
5.27017 1.80891 5.39875 0.5 0.5 0.5 1
2.72053 -0.341169 4.01535 0.5 0.5 0.5 1
2.72053 0.341168 4.01535 0.5 0.5 0.5 1
0.157003 1.60838 2.3693 1 1 1 1
0.157038 -1.60845 2.36932 1 1 1 1
-1.98955 1.04367 4.74403 0.5 0.5 0.5 1
3.35909 -1.74199 4.8474 0.5 0.5 0.5 1
3.35909 1.74199 4.8474 0.5 0.5 0.5 1
1.09952 1.02994 2.38945 1 1 1 1
1.09954 -1.02993 2.38951 1 1 1 1
-2.02445 -2.44274e-06 3.38364 0.5 0.5 0.5 1
-3.56496 1.69962 4.90573 0.5 0.5 0.5 1
-3.56496 -1.69962 4.90573 0.5 0.5 0.5 1
-4.98995 1.42555 5.05269 0.5 0.5 0.5 1
-4.98995 -1.42554 5.05269 0.5 0.5 0.5 1
-0.77521 -1.18608 2.20087 1 1 1 1
-0.775219 1.18609 2.2009 1 1 1 1
6.35879 -1.3511 4.89072 0.5 0.5 0.5 1
6.35879 1.3511 4.89072 0.5 0.5 0.5 1
-3.22623 1.42862 4.64616 0.5 0.5 0.5 1
-3.2262 -1.42887 4.64614 0.5 0.5 0.5 1
6.76967 -0.673315 4.1948 0.5 0.5 0.5 1
6.76967 0.673315 4.1948 0.5 0.5 0.5 1
5.91483 -1.55113 4.86809 0.5 0.5 0.5 1
5.91483 1.55113 4.86809 0.5 0.5 0.5 1
3.69592 -1.83964 4.63227 0.5 0.5 0.5 1
3.69592 1.83963 4.63227 0.5 0.5 0.5 1
-5.37308 1.2005 4.80239 0.5 0.5 0.5 1
-5.37308 -1.2005 4.80239 0.5 0.5 0.5 1
-4.15356 1.62113 4.8409 0.5 0.5 0.5 1
-4.15356 -1.62113 4.8409 0.5 0.5 0.5 1
-1.39344 -0.349655 1.53302 1 1 1 1
-1.39344 0.349656 1.53302 1 1 1 1
-2.83403 0.32483 4.12052 0.5 0.5 0.5 1
-2.83403 -0.32483 4.12052 0.5 0.5 0.5 1
4.23291 -1.65283 4.27903 0.5 0.5 0.5 1
4.23291 1.65283 4.27903 0.5 0.5 0.5 1
0.675392 1.26828 1.86301 1 1 1 1
0.675358 -1.2683 1.86304 1 1 1 1
-5.548 0.661849 4.06429 0.5 0.5 0.5 1
-5.548 -0.661847 4.06429 0.5 0.5 0.5 1
1.21386 8.7682e-06 2.10029 1 1 1 1
-2.28941 1.10282 5.35506 0.5 0.5 0.5 1
-2.28941 -1.10282 5.35505 0.5 0.5 0.5 1
3.10079 -1.10858 4.35181 0.5 0.5 0.5 1
3.10079 1.10858 4.35181 0.5 0.5 0.5 1
-2.07968 -1.80122e-07 4.66525 0.5 0.5 0.5 1
0.138296 -0.990778 1.64437 1 1 1 1
0.138227 0.990215 1.64448 1 1 1 1
4.6985 -1.40539 4.5786 0.5 0.5 0.5 1
4.6985 1.40539 4.5786 0.5 0.5 0.5 1
5.11325 -1.25273 4.58158 0.5 0.5 0.5 1
5.11325 1.25273 4.58158 0.5 0.5 0.5 1

3 0 24 57
3 0 57 24
3 0 29 103
3 0 103 29
3 0 57 103
3 0 103 57
3 1 25 58
3 1 58 25
3 1 29 103
3 1 103 29
3 1 58 103
3 1 103 58
3 2 6 31
3 2 31 6
3 2 9 110
3 2 110 9
3 2 31 35
3 2 35 31
3 2 35 110
3 2 110 35
3 3 26 62
3 3 62 26
3 3 28 92
3 3 92 28
3 3 62 92
3 3 92 62
3 4 27 63
3 4 63 27
3 4 28 92
3 4 92 28
3 4 63 92
3 4 92 63
3 5 7 32
3 5 32 7
3 5 8 67
3 5 67 8
3 5 32 36
3 5 36 32
3 5 36 67
3 5 67 36
3 6 10 64
3 6 64 10
3 6 31 64
3 6 64 31
3 7 11 37
3 7 37 11
3 7 32 37
3 7 37 32
3 8 12 33
3 8 33 12
3 8 33 67
3 8 67 33
3 9 13 34
3 9 34 13
3 9 34 110
3 9 110 34
3 10 14 64
3 10 64 14
3 11 15 37
3 11 37 15
3 12 16 33
3 12 33 16
3 13 17 34
3 13 34 17
3 14 18 77
3 14 77 18
3 14 64 77
3 14 77 64
3 15 19 78
3 15 78 19
3 15 37 78
3 15 78 37
3 16 20 82
3 16 82 20
3 16 33 80
3 16 80 33
3 16 80 82
3 16 82 80
3 17 21 83
3 17 83 21
3 17 34 81
3 17 81 34
3 17 81 83
3 17 83 81
3 18 22 75
3 18 75 22
3 18 75 88
3 18 88 75
3 18 77 88
3 18 88 77
3 19 23 76
3 19 76 23
3 19 76 89
3 19 89 76
3 19 78 89
3 19 89 78
3 20 24 86
3 20 86 24
3 20 82 97
3 20 97 82
3 20 86 97
3 20 97 86
3 21 25 87
3 21 87 25
3 21 83 98
3 21 98 83
3 21 87 98
3 21 98 87
3 22 26 90
3 22 90 26
3 22 75 111
3 22 111 75
3 22 90 111
3 22 111 90
3 23 27 91
3 23 91 27
3 23 76 112
3 23 112 76
3 23 91 112
3 23 112 91
3 24 57 86
3 24 86 57
3 25 58 87
3 25 87 58
3 26 62 90
3 26 90 62
3 27 63 91
3 27 91 63
3 30 34 39
3 30 39 34
3 30 34 81
3 30 81 34
3 30 34 155
3 30 155 34
3 30 39 60
3 30 60 39
3 30 41 60
3 30 60 41
3 30 41 122
3 30 122 41
3 30 59 81
3 30 81 59
3 30 59 117
3 30 117 59
3 30 59 155
3 30 155 59
3 30 59 158
3 30 158 59
3 30 117 122
3 30 122 117
3 30 122 158
3 30 158 122
3 31 35 44
3 31 44 35
3 31 44 66
3 31 66 44
3 31 64 66
3 31 66 64
3 32 36 43
3 32 43 36
3 32 37 65
3 32 65 37
3 32 43 65
3 32 65 43
3 33 40 67
3 33 67 40
3 33 40 117
3 33 117 40
3 33 59 80
3 33 80 59
3 33 59 117
3 33 117 59
3 33 80 154
3 33 154 80
3 33 117 154
3 33 154 117
3 34 39 110
3 34 110 39
3 34 81 155
3 34 155 81
3 35 39 51
3 35 51 39
3 35 39 110
3 35 110 39
3 35 44 51
3 35 51 44
3 36 40 50
3 36 50 40
3 36 40 67
3 36 67 40
3 36 43 50
3 36 50 43
3 37 47 65
3 37 65 47
3 37 47 70
3 37 70 47
3 37 70 101
3 37 101 70
3 37 78 101
3 37 101 78
3 38 45 54
3 38 54 45
3 38 45 114
3 38 114 45
3 38 53 54
3 38 54 53
3 38 53 147
3 38 147 53
3 38 113 114
3 38 114 113
3 38 113 156
3 38 156 113
3 38 118 137
3 38 137 118
3 38 118 156
3 38 156 118
3 38 137 147
3 38 147 137
3 39 51 60
3 39 60 51
3 40 50 61
3 40 61 50
3 40 61 117
3 40 117 61
3 41 60 84
3 41 84 60
3 41 84 127
3 41 127 84
3 41 99 122
3 41 122 99
3 41 99 127
3 41 127 99
3 42 61 85
3 42 85 61
3 42 61 117
3 42 117 61
3 42 85 128
3 42 128 85
3 42 100 122
3 42 122 100
3 42 100 128
3 42 128 100
3 42 117 122
3 42 122 117
3 43 48 65
3 43 65 48
3 43 48 68
3 43 68 48
3 43 50 68
3 43 68 50
3 44 49 66
3 44 66 49
3 44 49 69
3 44 69 49
3 44 51 69
3 44 69 51
3 45 54 148
3 45 148 54
3 45 114 157
3 45 157 114
3 45 119 138
3 45 138 119
3 45 119 157
3 45 157 119
3 45 138 148
3 45 148 138
3 46 55 146
3 46 146 55
3 46 55 152
3 46 152 55
3 46 59 131
3 46 131 59
3 46 59 145
3 46 145 59
3 46 97 123
3 46 123 97
3 46 97 125
3 46 125 97
3 46 104 139
3 46 139 104
3 46 104 151
3 46 151 104
3 46 123 131
3 46 131 123
3 46 123 141
3 46 141 123
3 46 125 139
3 46 139 125
3 46 125 141
3 46 141 125
3 46 145 146
3 46 146 145
3 46 151 152
3 46 152 151
3 47 48 52
3 47 52 48
3 47 48 65
3 47 65 48
3 47 49 52
3 47 52 49
3 47 49 66
3 47 66 49
3 47 64 66
3 47 66 64
3 47 64 70
3 47 70 64
3 48 52 71
3 48 71 52
3 48 68 71
3 48 71 68
3 49 52 72
3 49 72 52
3 49 69 72
3 49 72 69
3 50 61 73
3 50 73 61
3 50 68 73
3 50 73 68
3 51 60 74
3 51 74 60
3 51 69 74
3 51 74 69
3 52 71 79
3 52 79 71
3 52 72 79
3 52 79 72
3 53 54 134
3 53 134 54
3 53 93 129
3 53 129 93
3 53 93 133
3 53 133 93
3 53 111 135
3 53 135 111
3 53 111 161
3 53 161 111
3 53 129 135
3 53 135 129
3 53 133 134
3 53 134 133
3 53 135 163
3 53 163 135
3 53 147 161
3 53 161 147
3 53 161 163
3 53 163 161
3 54 94 130
3 54 130 94
3 54 94 134
3 54 134 94
3 54 112 136
3 54 136 112
3 54 112 162
3 54 162 112
3 54 130 136
3 54 136 130
3 54 136 164
3 54 164 136
3 54 148 162
3 54 162 148
3 54 162 164
3 54 164 162
3 55 59 132
3 55 132 59
3 55 59 146
3 55 146 59
3 55 98 124
3 55 124 98
3 55 98 126
3 55 126 98
3 55 105 140
3 55 140 105
3 55 105 152
3 55 152 105
3 55 124 132
3 55 132 124
3 55 124 142
3 55 142 124
3 55 126 140
3 55 140 126
3 55 126 142
3 55 142 126
3 56 79 120
3 56 120 79
3 56 79 121
3 56 121 79
3 56 99 127
3 56 127 99
3 56 99 143
3 56 143 99
3 56 100 128
3 56 128 100
3 56 100 144
3 56 144 100
3 56 115 128
3 56 128 115
3 56 115 149
3 56 149 115
3 56 116 127
3 56 127 116
3 56 116 150
3 56 150 116
3 56 120 149
3 56 149 120
3 56 120 153
3 56 153 120
3 56 121 150
3 56 150 121
3 56 121 153
3 56 153 121
3 56 127 159
3 56 159 127
3 56 128 160
3 56 160 128
3 56 143 144
3 56 144 143
3 56 149 160
3 56 160 149
3 56 150 159
3 56 159 150
3 57 86 106
3 57 106 86
3 57 103 106
3 57 106 103
3 58 87 107
3 58 107 87
3 58 103 107
3 58 107 103
3 59 80 131
3 59 131 80
3 59 80 154
3 59 154 80
3 59 81 132
3 59 132 81
3 59 81 155
3 59 155 81
3 59 117 154
3 59 154 117
3 59 117 158
3 59 158 117
3 59 145 146
3 59 146 145
3 60 74 84
3 60 84 74
3 61 73 85
3 61 85 73
3 62 90 95
3 62 95 90
3 62 92 95
3 62 95 92
3 63 91 96
3 63 96 91
3 63 92 96
3 63 96 92
3 64 70 102
3 64 102 70
3 64 77 102
3 64 102 77
3 68 71 108
3 68 108 71
3 68 73 108
3 68 108 73
3 69 72 109
3 69 109 72
3 69 74 109
3 69 109 74
3 70 101 157
3 70 157 101
3 70 102 156
3 70 156 102
3 70 113 114
3 70 114 113
3 70 113 156
3 70 156 113
3 70 114 157
3 70 157 114
3 71 79 120
3 71 120 79
3 71 108 120
3 71 120 108
3 72 79 121
3 72 121 79
3 72 109 121
3 72 121 109
3 73 85 115
3 73 115 85
3 73 108 115
3 73 115 108
3 74 84 116
3 74 116 84
3 74 109 116
3 74 116 109
3 75 88 137
3 75 137 88
3 75 111 161
3 75 161 111
3 75 137 147
3 75 147 137
3 75 147 161
3 75 161 147
3 76 89 138
3 76 138 89
3 76 112 162
3 76 162 112
3 76 138 148
3 76 148 138
3 76 148 162
3 76 162 148
3 77 88 118
3 77 118 88
3 77 102 118
3 77 118 102
3 78 89 119
3 78 119 89
3 78 101 119
3 78 119 101
3 79 120 153
3 79 153 120
3 79 121 153
3 79 153 121
3 80 82 123
3 80 123 82
3 80 123 131
3 80 131 123
3 81 83 124
3 81 124 83
3 81 124 132
3 81 132 124
3 82 97 123
3 82 123 97
3 83 98 124
3 83 124 98
3 84 116 127
3 84 127 116
3 85 115 128
3 85 128 115
3 86 97 125
3 86 125 97
3 86 106 125
3 86 125 106
3 87 98 126
3 87 126 98
3 87 107 126
3 87 126 107
3 88 118 137
3 88 137 118
3 89 119 138
3 89 138 119
3 90 95 129
3 90 129 95
3 90 111 135
3 90 135 111
3 90 129 135
3 90 135 129
3 91 96 130
3 91 130 96
3 91 112 136
3 91 136 112
3 91 130 136
3 91 136 130
3 92 93 94
3 92 94 93
3 92 93 95
3 92 95 93
3 92 94 96
3 92 96 94
3 93 94 134
3 93 134 94
3 93 95 129
3 93 129 95
3 93 133 134
3 93 134 133
3 94 96 130
3 94 130 96
3 97 123 141
3 97 141 123
3 97 125 141
3 97 141 125
3 98 124 142
3 98 142 124
3 98 126 142
3 98 142 126
3 99 100 122
3 99 122 100
3 99 100 144
3 99 144 100
3 99 143 144
3 99 144 143
3 101 119 157
3 101 157 119
3 102 118 156
3 102 156 118
3 103 104 105
3 103 105 104
3 103 104 106
3 103 106 104
3 103 105 107
3 103 107 105
3 104 105 152
3 104 152 105
3 104 106 139
3 104 139 106
3 104 151 152
3 104 152 151
3 105 107 140
3 105 140 107
3 106 125 139
3 106 139 125
3 107 126 140
3 107 140 126
3 108 115 149
3 108 149 115
3 108 120 149
3 108 149 120
3 109 116 150
3 109 150 116
3 109 121 150
3 109 150 121
3 111 135 163
3 111 163 135
3 111 161 163
3 111 163 161
3 112 136 164
3 112 164 136
3 112 162 164
3 112 164 162
3 115 128 160
3 115 160 128
3 115 149 160
3 115 160 149
3 116 127 159
3 116 159 127
3 116 150 159
3 116 159 150
3 117 122 158
3 117 158 122
