COFF
185 728 185

-6.67237 1.30133 7.71265 0.5 0.5 0.5 1
-6.67238 -1.30133 7.71265 0.5 0.5 0.5 1
-0.0315161 -2.48474 7.28335 0.5 0.5 0.5 1
7.66321 -1.3826 7.62113 0.5 0.5 0.5 1
7.66321 1.3826 7.62113 0.5 0.5 0.5 1
-0.0315161 2.48474 7.28335 0.5 0.5 0.5 1
1.18313 -2.09596 7.4936 0.5 0.5 0.5 1
1.18313 2.09596 7.4936 0.5 0.5 0.5 1
-1.25843 2.14932 7.38602 0.5 0.5 0.5 1
-1.25843 -2.14932 7.38602 0.5 0.5 0.5 1
2.06601 -1.75081 7.81231 0.5 0.5 0.5 1
2.06601 1.75081 7.81231 0.5 0.5 0.5 1
-2.10143 1.77413 7.77203 0.5 0.5 0.5 1
-2.10143 -1.77413 7.77203 0.5 0.5 0.5 1
3.01047 -1.92502 7.537 0.5 0.5 0.5 1
3.01047 1.92502 7.537 0.5 0.5 0.5 1
-3.04692 1.90943 7.47725 0.5 0.5 0.5 1
-3.04692 -1.90943 7.47725 0.5 0.5 0.5 1
3.97849 -2.12674 7.29235 0.5 0.5 0.5 1
3.97849 2.12674 7.29235 0.5 0.5 0.5 1
-4.09364 1.89188 7.43119 0.5 0.5 0.5 1
-4.09364 -1.89188 7.43119 0.5 0.5 0.5 1
5.11792 -2.19067 7.0926 0.5 0.5 0.5 1
5.11792 2.19067 7.0926 0.5 0.5 0.5 1
-5.14806 1.69622 7.54494 0.5 0.5 0.5 1
-5.14806 -1.69622 7.54494 0.5 0.5 0.5 1
6.24125 -1.84729 7.4127 0.5 0.5 0.5 1
6.24125 1.84729 7.4127 0.5 0.5 0.5 1
9.04726 -0.000122722 7.66149 0.5 0.5 0.5 1
-7.9755 0.000124898 7.76509 0.5 0.5 0.5 1
-2.12305 -0.993899 4.92705 0.5 0.5 0.5 1
1.17363 -2.0086 6.14346 0.5 0.5 0.5 1
1.17363 2.00859 6.14345 0.5 0.5 0.5 1
-2.07652 1.88397 6.38071 0.5 0.5 0.5 1
-2.07652 -1.88397 6.38071 0.5 0.5 0.5 1
0.151827 -2.12662 5.70724 0.5 0.5 0.5 1
0.151801 2.12648 5.70723 0.5 0.5 0.5 1
2.42622 1.65002 6.2654 0.5 0.5 0.5 1
4.01555 -0.619856 3.41973 1 1 0 1
-1.0658 -1.79374 4.74695 0.5 0.5 0.5 1
-1.06575 1.79361 4.74698 0.5 0.5 0.5 1
-1.65467 -0.866818 3.52481 0.5 0.5 0.5 1
-1.65471 0.866778 3.52483 0.5 0.5 0.5 1
1.07383 1.96154 5.01548 0.5 0.5 0.5 1
1.07385 -1.96161 5.01548 0.5 0.5 0.5 1
4.01555 0.619856 3.41973 1 1 0 1
-4.1796 0.659989 3.50266 1 1 0 1
2.19924 -3.45102e-07 5.44409 0.5 0.5 0.5 1
1.48896 1.51556 4.58867 0.5 0.5 0.5 1
1.48897 -1.51557 4.58868 0.5 0.5 0.5 1
0.097261 1.96126 4.65022 0.5 0.5 0.5 1
0.0972785 -1.96138 4.65022 0.5 0.5 0.5 1
1.64132 2.02322e-06 4.09884 0.5 0.5 0.5 1
4.87769 -0.672877 3.7806 1 1 0 1
4.87769 0.672876 3.7806 1 1 0 1
-4.1796 -0.659989 3.50266 1 1 0 1
0.119396 9.596e-06 1.0221 1 1 0 1
-5.99831 1.30757 6.42006 1 1 0 1
-5.99831 -1.30757 6.42006 1 1 0 1
-2.61223 -7.48945e-06 5.25489 0.5 0.5 0.5 1
-0.854953 -1.67927 4.09046 0.5 0.5 0.5 1
-0.854924 1.67917 4.09048 0.5 0.5 0.5 1
7.01849 -1.54329 6.61634 1 1 0 1
7.01849 1.54329 6.61634 1 1 0 1
2.42622 -1.65002 6.2654 0.5 0.5 0.5 1
1.71302 1.83256 5.61942 0.5 0.5 0.5 1
1.71302 -1.83256 5.61943 0.5 0.5 0.5 1
-1.00956 1.90608 5.45191 1 1 0 1
0.932503 1.79151 3.96504 0.5 0.5 0.5 1
0.932571 -1.79156 3.96503 0.5 0.5 0.5 1
2.42614 3.71484e-07 5.78502 0.5 0.5 0.5 1
1.27163 1.28292 3.52488 1 1 1 1
1.27165 -1.28293 3.52487 1 1 1 1
0.122481 1.81081 3.59036 1 1 1 1
0.122434 -1.81076 3.59037 1 1 1 1
4.22938 -2.01243 5.60937 0.5 0.5 0.5 1
4.22938 2.01243 5.60936 0.5 0.5 0.5 1
3.56833 -2.0409 6.61108 0.5 0.5 0.5 1
3.56832 2.04088 6.61108 0.5 0.5 0.5 1
1.42292 -1.92782e-06 3.15522 1 1 1 1
-2.94314 1.89742 5.97105 0.5 0.5 0.5 1
-2.94314 -1.89741 5.97104 0.5 0.5 0.5 1
-3.58169 1.90019 6.40019 0.5 0.5 0.5 1
-3.58169 -1.90019 6.40019 0.5 0.5 0.5 1
-0.694474 -1.49491 3.11582 1 1 1 1
-0.694475 1.49484 3.1158 1 1 1 1
-5.13589 1.56374 6.31261 0.5 0.5 0.5 1
-5.13589 -1.56374 6.31261 0.5 0.5 0.5 1
3.70594 -2.06985 5.91407 0.5 0.5 0.5 1
3.70591 2.06963 5.91407 0.5 0.5 0.5 1
6.15771 -1.79302 6.01498 0.5 0.5 0.5 1
6.15771 1.79302 6.01498 0.5 0.5 0.5 1
7.58995 -1.50769e-05 6.53012 0.5 0.5 0.5 1
7.03284 -0.76223 5.47621 0.5 0.5 0.5 1
7.03284 0.762228 5.47621 0.5 0.5 0.5 1
6.70957 -1.28879 5.8377 0.5 0.5 0.5 1
6.70957 1.28879 5.8377 0.5 0.5 0.5 1
-4.19876 1.79026 6.05704 0.5 0.5 0.5 1
-4.19878 -1.79026 6.05704 0.5 0.5 0.5 1
-1.87086 -0.452219 2.6859 1 1 1 1
-1.87092 0.452151 2.68592 1 1 1 1
2.66855 1.17145 5.50155 0.5 0.5 0.5 1
2.66855 -1.17145 5.50155 0.5 0.5 0.5 1
-6.60156 1.54326e-05 6.51315 0.5 0.5 0.5 1
-6.03982 0.708773 5.40987 0.5 0.5 0.5 1
-6.03982 -0.708761 5.40987 0.5 0.5 0.5 1
-5.81437 1.08666 5.72269 0.5 0.5 0.5 1
-5.81437 -1.08666 5.72269 0.5 0.5 0.5 1
0.799721 1.60405 2.94644 1 1 1 1
0.799771 -1.6041 2.9465 1 1 1 1
-1.00955 -1.90598 5.45191 1 1 0 1
5.16337 -1.93032 5.60924 0.5 0.5 0.5 1
5.16336 1.93032 5.60924 0.5 0.5 0.5 1
2.74846 -0.443762 4.07639 0.5 0.5 0.5 1
2.74846 0.443764 4.07639 0.5 0.5 0.5 1
0.156103 1.63279 2.60554 1 1 1 1
0.156117 -1.63275 2.60556 1 1 1 1
-2.12308 0.993879 4.92706 0.5 0.5 0.5 1
3.31109 -1.76282 5.0367 0.5 0.5 0.5 1
3.31109 1.76282 5.0367 0.5 0.5 0.5 1
1.11376 1.08503 2.61449 1 1 1 1
1.11379 -1.08504 2.61455 1 1 1 1
-2.13363 -1.95771e-05 3.59642 0.5 0.5 0.5 1
-3.56754 1.84177 5.15977 0.5 0.5 0.5 1
-3.56754 -1.84177 5.15977 0.5 0.5 0.5 1
-5.06848 1.46039 5.29059 0.5 0.5 0.5 1
-5.06847 -1.46039 5.29059 0.5 0.5 0.5 1
-0.872189 -1.1893 2.42188 1 1 1 1
-0.872132 1.18929 2.42185 1 1 1 1
6.47918 -1.39715 5.02881 0.5 0.5 0.5 1
6.47918 1.39715 5.02881 0.5 0.5 0.5 1
-3.15233 1.37811 4.82599 0.5 0.5 0.5 1
-3.15232 -1.37809 4.82598 0.5 0.5 0.5 1
6.94894 -0.683888 4.27062 0.5 0.5 0.5 1
6.94894 0.683887 4.27062 0.5 0.5 0.5 1
6.06152 -1.6135 5.02902 0.5 0.5 0.5 1
6.06152 1.61349 5.02902 0.5 0.5 0.5 1
3.62148 -1.88487 4.79233 0.5 0.5 0.5 1
3.62148 1.88487 4.79233 0.5 0.5 0.5 1
-5.4579 1.18295 4.99011 0.5 0.5 0.5 1
-5.45794 -1.18294 4.9901 0.5 0.5 0.5 1
-4.16539 1.71935 5.05533 0.5 0.5 0.5 1
-4.16543 -1.71957 5.05534 0.5 0.5 0.5 1
-1.49389 -0.388656 1.61723 1 1 1 1
-1.49387 0.388656 1.61723 1 1 1 1
-2.81151 0.324617 4.21353 0.5 0.5 0.5 1
-2.81151 -0.324618 4.21354 0.5 0.5 0.5 1
4.24383 -1.81242 4.39226 0.5 0.5 0.5 1
4.24386 1.81246 4.39226 0.5 0.5 0.5 1
0.691696 1.39371 2.05266 1 1 1 1
0.691685 -1.39375 2.05271 1 1 1 1
-5.78548 0.663293 4.13652 0.5 0.5 0.5 1
-5.78548 -0.66329 4.13652 0.5 0.5 0.5 1
1.23396 1.06503e-05 2.27632 1 1 1 1
-2.34188 1.26688 5.45199 0.5 0.5 0.5 1
-2.34188 -1.26688 5.45199 0.5 0.5 0.5 1
2.88813 -1.18224 4.61542 0.5 0.5 0.5 1
2.88813 1.18224 4.61542 0.5 0.5 0.5 1
-2.17844 -1.06738e-05 4.86591 0.5 0.5 0.5 1
0.0750594 -1.31661 1.77142 1 1 1 1
0.0748816 1.31626 1.77141 1 1 1 1
4.81591 -1.63754 4.70296 0.5 0.5 0.5 1
4.81591 1.63754 4.70296 0.5 0.5 0.5 1
5.24607 -1.58338 4.74115 0.5 0.5 0.5 1
5.24607 1.58338 4.74115 0.5 0.5 0.5 1
5.89153 -1.24389 4.49089 1 1 1 1
5.89153 1.24389 4.49089 1 1 1 1
0.893555 0.661437 1.82141 1 1 1 1
0.893497 -0.661421 1.82143 1 1 1 1
6.02205 -0.667971 3.99656 1 1 1 1
6.02205 0.667971 3.99656 1 1 1 1
-4.75758 1.22455 4.4296 0.5 0.5 0.5 1
-4.75758 -1.22455 4.4296 0.5 0.5 0.5 1
-0.569551 -2.24592 6.42253 0.5 0.5 0.5 1
-0.569554 2.24594 6.42253 0.5 0.5 0.5 1
3.45738 -1.32296 4.20704 1 1 1 1
3.45738 1.32296 4.20703 1 1 1 1
-2.84737 -1.08512 5.50481 0.5 0.5 0.5 1
-2.84737 1.08511 5.50481 0.5 0.5 0.5 1
-0.377629 -0.748482 1.69345 1 1 1 1
-0.377616 0.748538 1.69349 1 1 1 1
-3.73234 1.36906 4.33636 0.5 0.5 0.5 1
-3.73234 -1.36906 4.33636 0.5 0.5 0.5 1
-4.83175 0.959294 4.24128 0.5 0.5 0.5 1
-4.83175 -0.959292 4.24128 0.5 0.5 0.5 1

3 0 24 57
3 0 57 24
3 0 29 103
3 0 103 29
3 0 57 103
3 0 103 57
3 1 25 58
3 1 58 25
3 1 29 103
3 1 103 29
3 1 58 103
3 1 103 58
3 2 6 31
3 2 31 6
3 2 9 110
3 2 110 9
3 2 9 173
3 2 173 9
3 2 31 35
3 2 35 31
3 2 35 110
3 2 110 35
3 2 35 173
3 2 173 35
3 3 26 62
3 3 62 26
3 3 28 92
3 3 92 28
3 3 62 92
3 3 92 62
3 4 27 63
3 4 63 27
3 4 28 92
3 4 92 28
3 4 63 92
3 4 92 63
3 5 7 32
3 5 32 7
3 5 8 67
3 5 67 8
3 5 8 174
3 5 174 8
3 5 32 36
3 5 36 32
3 5 36 67
3 5 67 36
3 5 36 174
3 5 174 36
3 6 10 64
3 6 64 10
3 6 31 64
3 6 64 31
3 7 11 37
3 7 37 11
3 7 32 37
3 7 37 32
3 8 12 33
3 8 33 12
3 8 33 67
3 8 67 33
3 8 67 174
3 8 174 67
3 9 13 34
3 9 34 13
3 9 34 110
3 9 110 34
3 9 110 173
3 9 173 110
3 10 14 64
3 10 64 14
3 11 15 37
3 11 37 15
3 12 16 33
3 12 33 16
3 13 17 34
3 13 34 17
3 14 18 77
3 14 77 18
3 14 64 77
3 14 77 64
3 15 19 78
3 15 78 19
3 15 37 78
3 15 78 37
3 16 20 82
3 16 82 20
3 16 33 80
3 16 80 33
3 16 80 82
3 16 82 80
3 17 21 83
3 17 83 21
3 17 34 81
3 17 81 34
3 17 81 83
3 17 83 81
3 18 22 75
3 18 75 22
3 18 75 88
3 18 88 75
3 18 77 88
3 18 88 77
3 19 23 76
3 19 76 23
3 19 76 89
3 19 89 76
3 19 78 89
3 19 89 78
3 20 24 86
3 20 86 24
3 20 82 97
3 20 97 82
3 20 86 97
3 20 97 86
3 21 25 87
3 21 87 25
3 21 83 98
3 21 98 83
3 21 87 98
3 21 98 87
3 22 26 90
3 22 90 26
3 22 75 111
3 22 111 75
3 22 90 111
3 22 111 90
3 23 27 91
3 23 91 27
3 23 76 112
3 23 112 76
3 23 91 112
3 23 112 91
3 24 57 86
3 24 86 57
3 25 58 87
3 25 87 58
3 26 62 90
3 26 90 62
3 27 63 91
3 27 91 63
3 30 34 39
3 30 39 34
3 30 34 155
3 30 155 34
3 30 39 60
3 30 60 39
3 30 41 60
3 30 60 41
3 30 41 122
3 30 122 41
3 30 59 117
3 30 117 59
3 30 59 155
3 30 155 59
3 30 59 158
3 30 158 59
3 30 117 122
3 30 122 117
3 30 122 158
3 30 158 122
3 31 35 44
3 31 44 35
3 31 44 66
3 31 66 44
3 31 64 66
3 31 66 64
3 32 36 43
3 32 43 36
3 32 37 65
3 32 65 37
3 32 43 65
3 32 65 43
3 33 40 67
3 33 67 40
3 33 40 117
3 33 117 40
3 33 80 154
3 33 154 80
3 33 117 154
3 33 154 117
3 34 39 110
3 34 110 39
3 34 81 155
3 34 155 81
3 35 39 51
3 35 51 39
3 35 39 110
3 35 110 39
3 35 44 51
3 35 51 44
3 35 110 173
3 35 173 110
3 36 40 50
3 36 50 40
3 36 40 67
3 36 67 40
3 36 43 50
3 36 50 43
3 36 67 174
3 36 174 67
3 37 47 65
3 37 65 47
3 37 47 70
3 37 70 47
3 37 70 101
3 37 101 70
3 37 78 101
3 37 101 78
3 38 45 54
3 38 54 45
3 38 45 114
3 38 114 45
3 38 53 54
3 38 54 53
3 38 53 147
3 38 147 53
3 38 113 114
3 38 114 113
3 38 113 156
3 38 156 113
3 38 118 137
3 38 137 118
3 38 118 156
3 38 156 118
3 38 137 147
3 38 147 137
3 38 137 175
3 38 175 137
3 38 156 175
3 38 175 156
3 39 51 60
3 39 60 51
3 40 50 61
3 40 61 50
3 40 61 117
3 40 117 61
3 41 60 84
3 41 84 60
3 41 84 127
3 41 127 84
3 41 99 122
3 41 122 99
3 41 99 127
3 41 127 99
3 42 61 85
3 42 85 61
3 42 61 117
3 42 117 61
3 42 85 128
3 42 128 85
3 42 100 122
3 42 122 100
3 42 100 128
3 42 128 100
3 42 117 122
3 42 122 117
3 43 48 65
3 43 65 48
3 43 48 68
3 43 68 48
3 43 50 68
3 43 68 50
3 44 49 66
3 44 66 49
3 44 49 69
3 44 69 49
3 44 51 69
3 44 69 51
3 45 54 148
3 45 148 54
3 45 114 157
3 45 157 114
3 45 119 138
3 45 138 119
3 45 119 157
3 45 157 119
3 45 138 148
3 45 148 138
3 45 138 176
3 45 176 138
3 45 157 176
3 45 176 157
3 46 55 146
3 46 146 55
3 46 55 152
3 46 152 55
3 46 59 131
3 46 131 59
3 46 59 145
3 46 145 59
3 46 123 131
3 46 131 123
3 46 123 141
3 46 141 123
3 46 131 181
3 46 181 131
3 46 141 171
3 46 171 141
3 46 141 181
3 46 181 141
3 46 145 146
3 46 146 145
3 46 151 152
3 46 152 151
3 46 151 183
3 46 183 151
3 46 171 183
3 46 183 171
3 47 48 52
3 47 52 48
3 47 48 65
3 47 65 48
3 47 49 52
3 47 52 49
3 47 49 66
3 47 66 49
3 47 64 66
3 47 66 64
3 47 64 70
3 47 70 64
3 48 52 71
3 48 71 52
3 48 68 71
3 48 71 68
3 49 52 72
3 49 72 52
3 49 69 72
3 49 72 69
3 50 61 73
3 50 73 61
3 50 68 73
3 50 73 68
3 51 60 74
3 51 74 60
3 51 69 74
3 51 74 69
3 52 71 79
3 52 79 71
3 52 72 79
3 52 79 72
3 53 54 170
3 53 170 54
3 53 111 135
3 53 135 111
3 53 111 161
3 53 161 111
3 53 133 165
3 53 165 133
3 53 133 169
3 53 169 133
3 53 135 163
3 53 163 135
3 53 135 165
3 53 165 135
3 53 147 161
3 53 161 147
3 53 161 163
3 53 163 161
3 53 169 170
3 53 170 169
3 54 112 136
3 54 136 112
3 54 112 162
3 54 162 112
3 54 134 166
3 54 166 134
3 54 134 170
3 54 170 134
3 54 136 164
3 54 164 136
3 54 136 166
3 54 166 136
3 54 148 162
3 54 162 148
3 54 162 164
3 54 164 162
3 55 59 132
3 55 132 59
3 55 59 146
3 55 146 59
3 55 124 132
3 55 132 124
3 55 124 142
3 55 142 124
3 55 132 182
3 55 182 132
3 55 142 172
3 55 172 142
3 55 142 182
3 55 182 142
3 55 152 184
3 55 184 152
3 55 172 184
3 55 184 172
3 56 120 149
3 56 149 120
3 56 120 153
3 56 153 120
3 56 121 150
3 56 150 121
3 56 121 153
3 56 153 121
3 56 143 144
3 56 144 143
3 56 143 179
3 56 179 143
3 56 144 180
3 56 180 144
3 56 149 160
3 56 160 149
3 56 149 167
3 56 167 149
3 56 150 159
3 56 159 150
3 56 150 168
3 56 168 150
3 56 153 167
3 56 167 153
3 56 153 168
3 56 168 153
3 56 159 179
3 56 179 159
3 56 160 180
3 56 180 160
3 57 86 106
3 57 106 86
3 57 103 106
3 57 106 103
3 58 87 107
3 58 107 87
3 58 103 107
3 58 107 103
3 59 80 131
3 59 131 80
3 59 80 154
3 59 154 80
3 59 81 132
3 59 132 81
3 59 81 155
3 59 155 81
3 59 117 154
3 59 154 117
3 59 117 158
3 59 158 117
3 59 131 178
3 59 178 131
3 59 132 177
3 59 177 132
3 59 145 146
3 59 146 145
3 59 154 178
3 59 178 154
3 59 155 177
3 59 177 155
3 60 74 84
3 60 84 74
3 61 73 85
3 61 85 73
3 62 90 95
3 62 95 90
3 62 92 95
3 62 95 92
3 63 91 96
3 63 96 91
3 63 92 96
3 63 96 92
3 64 70 102
3 64 102 70
3 64 77 102
3 64 102 77
3 68 71 108
3 68 108 71
3 68 73 108
3 68 108 73
3 69 72 109
3 69 109 72
3 69 74 109
3 69 109 74
3 70 101 157
3 70 157 101
3 70 102 156
3 70 156 102
3 70 113 114
3 70 114 113
3 70 113 156
3 70 156 113
3 70 114 157
3 70 157 114
3 71 79 120
3 71 120 79
3 71 108 120
3 71 120 108
3 72 79 121
3 72 121 79
3 72 109 121
3 72 121 109
3 73 85 115
3 73 115 85
3 73 108 115
3 73 115 108
3 74 84 116
3 74 116 84
3 74 109 116
3 74 116 109
3 75 88 137
3 75 137 88
3 75 111 161
3 75 161 111
3 75 137 147
3 75 147 137
3 75 147 161
3 75 161 147
3 76 89 138
3 76 138 89
3 76 112 162
3 76 162 112
3 76 138 148
3 76 148 138
3 76 148 162
3 76 162 148
3 77 88 118
3 77 118 88
3 77 102 118
3 77 118 102
3 78 89 119
3 78 119 89
3 78 101 119
3 78 119 101
3 79 120 153
3 79 153 120
3 79 121 153
3 79 153 121
3 80 82 123
3 80 123 82
3 80 123 131
3 80 131 123
3 80 131 178
3 80 178 131
3 80 154 178
3 80 178 154
3 81 83 124
3 81 124 83
3 81 124 132
3 81 132 124
3 81 132 177
3 81 177 132
3 81 155 177
3 81 177 155
3 82 97 123
3 82 123 97
3 83 98 124
3 83 124 98
3 84 116 127
3 84 127 116
3 85 115 128
3 85 128 115
3 86 97 125
3 86 125 97
3 86 106 125
3 86 125 106
3 87 98 126
3 87 126 98
3 87 107 126
3 87 126 107
3 88 118 137
3 88 137 118
3 89 119 138
3 89 138 119
3 90 95 129
3 90 129 95
3 90 111 135
3 90 135 111
3 90 129 135
3 90 135 129
3 91 96 130
3 91 130 96
3 91 112 136
3 91 136 112
3 91 130 136
3 91 136 130
3 92 93 94
3 92 94 93
3 92 93 95
3 92 95 93
3 92 94 96
3 92 96 94
3 93 94 134
3 93 134 94
3 93 95 129
3 93 129 95
3 93 129 165
3 93 165 129
3 93 133 134
3 93 134 133
3 93 133 165
3 93 165 133
3 94 96 130
3 94 130 96
3 94 130 166
3 94 166 130
3 94 134 166
3 94 166 134
3 97 123 141
3 97 141 123
3 97 125 141
3 97 141 125
3 98 124 142
3 98 142 124
3 98 126 142
3 98 142 126
3 99 100 122
3 99 122 100
3 99 100 144
3 99 144 100
3 99 127 179
3 99 179 127
3 99 143 144
3 99 144 143
3 99 143 179
3 99 179 143
3 100 128 180
3 100 180 128
3 100 144 180
3 100 180 144
3 101 119 157
3 101 157 119
3 102 118 156
3 102 156 118
3 103 104 105
3 103 105 104
3 103 104 106
3 103 106 104
3 103 105 107
3 103 107 105
3 104 105 152
3 104 152 105
3 104 106 139
3 104 139 106
3 104 139 183
3 104 183 139
3 104 151 152
3 104 152 151
3 104 151 183
3 104 183 151
3 105 107 140
3 105 140 107
3 105 140 184
3 105 184 140
3 105 152 184
3 105 184 152
3 106 125 139
3 106 139 125
3 107 126 140
3 107 140 126
3 108 115 149
3 108 149 115
3 108 120 149
3 108 149 120
3 109 116 150
3 109 150 116
3 109 121 150
3 109 150 121
3 111 135 163
3 111 163 135
3 111 161 163
3 111 163 161
3 112 136 164
3 112 164 136
3 112 162 164
3 112 164 162
3 115 128 160
3 115 160 128
3 115 149 160
3 115 160 149
3 116 127 159
3 116 159 127
3 116 150 159
3 116 159 150
3 117 122 158
3 117 158 122
3 118 137 175
3 118 175 137
3 118 156 175
3 118 175 156
3 119 138 176
3 119 176 138
3 119 157 176
3 119 176 157
3 120 149 167
3 120 167 149
3 120 153 167
3 120 167 153
3 121 150 168
3 121 168 150
3 121 153 168
3 121 168 153
3 123 131 181
3 123 181 131
3 123 141 181
3 123 181 141
3 124 132 182
3 124 182 132
3 124 142 182
3 124 182 142
3 125 139 171
3 125 171 139
3 125 141 171
3 125 171 141
3 126 140 172
3 126 172 140
3 126 142 172
3 126 172 142
3 127 159 179
3 127 179 159
3 128 160 180
3 128 180 160
3 129 135 165
3 129 165 135
3 130 136 166
3 130 166 136
3 133 134 170
3 133 170 134
3 133 169 170
3 133 170 169
3 139 171 183
3 139 183 171
3 140 172 184
3 140 184 172
