 COFF
          27         136          27
  
  -3.7614793587550990       0.64977782192955447        2.4498913011644774       0.60000002384185791       0.60000002384185791       0.60000002384185791       0.80000001192092896     
  -3.7614793587550985      -0.64977782192955458        2.4498913011644774       0.60000002384185791       0.60000002384185791       0.60000002384185791       0.80000001192092896     
  -2.4526801374289139E-002  -1.3859293909898169        2.3401627629681494       0.60000002384185791       0.60000002384185791       0.60000002384185791       0.80000001192092896     
   4.0724869556676238      -0.64088450125562579        2.4669725835812621       0.60000002384185791       0.60000002384185791       0.60000002384185791       0.80000001192092896     
   4.0724869556676255       0.64088450125562579        2.4669725835812621       0.60000002384185791       0.60000002384185791       0.60000002384185791       0.80000001192092896     
  -2.4526801374289069E-002   1.3859293909898172        2.3401627629681494       0.60000002384185791       0.60000002384185791       0.60000002384185791       0.80000001192092896     
  0.93797870380060488       -1.0929999741354086        2.3546130675510599       0.60000002384185791       0.60000002384185791       0.60000002384185791       0.80000001192092896     
  0.93797870380060477        1.0929999741354086        2.3546130675510599       0.60000002384185791       0.60000002384185791       0.60000002384185791       0.80000001192092896     
 -0.98879933014477850        1.0840226572799847        2.3582546781156850       0.60000002384185791       0.60000002384185791       0.60000002384185791       0.80000001192092896     
 -0.98879933014477872       -1.0840226572799847        2.3582546781156850       0.60000002384185791       0.60000002384185791       0.60000002384185791       0.80000001192092896     
   1.8976875822922075      -0.88894970797429584        2.5472077036771585       0.60000002384185791       0.60000002384185791       0.60000002384185791       0.80000001192092896     
   1.8976875822922075       0.88894970797429540        2.5472077036771585       0.60000002384185791       0.60000002384185791       0.60000002384185791       0.80000001192092896     
  -1.9586172066193619       0.89527842804424451        2.5065549484090552       0.60000002384185791       0.60000002384185791       0.60000002384185791       0.80000001192092896     
  -1.9586172066193621      -0.89527842804424451        2.5065549484090552       0.60000002384185791       0.60000002384185791       0.60000002384185791       0.80000001192092896     
   2.9281952193454264      -0.76644422124097500        2.5028476595314815       0.60000002384185791       0.60000002384185791       0.60000002384185791       0.80000001192092896     
   2.9281952193454264       0.76644422124097467        2.5028476595314815       0.60000002384185791       0.60000002384185791       0.60000002384185791       0.80000001192092896     
  -1.6387499570116499       0.75704244194828918        1.7974791686048133       0.60000002384185791       0.60000002384185791       0.60000002384185791       0.80000001192092896     
  -1.6387499570116502      -0.75704244194828918        1.7974791686048135       0.60000002384185791       0.60000002384185791       0.60000002384185791       0.80000001192092896     
   1.7068790291557954       0.75088182512965840        1.8086400775036471       0.60000002384185791       0.60000002384185791       0.60000002384185791       0.80000001192092896     
   2.9525834627197582      -0.62964715416462846        1.8867664261034642       0.60000002384185791       0.60000002384185791       0.60000002384185791       0.80000001192092896     
   2.9525834627197582       0.62964715416462824        1.8867664261034642       0.60000002384185791       0.60000002384185791       0.60000002384185791       0.80000001192092896     
  -2.8276594080837540       0.65809849082418348        1.9362451280650703       0.60000002384185791       0.60000002384185791       0.60000002384185791       0.80000001192092896     
  -2.8276594080837540      -0.65809849082418348        1.9362451280650705       0.60000002384185791       0.60000002384185791       0.60000002384185791       0.80000001192092896     
   2.6181734683720726E-003  -2.4734923559236277E-017   1.0535609148389919        1.0000000000000000        1.0000000000000000        0.0000000000000000        1.0000000000000000     
   1.7068790291557954      -0.75088182512965851        1.8086400775036469       0.60000002384185791       0.60000002384185791       0.60000002384185791       0.80000001192092896     
  0.86025496755840103       0.37756544064697733        1.4282632629391787       0.60000002384185791       0.60000002384185791       0.60000002384185791       0.80000001192092896     
  0.86025496755840103      -0.37756544064697739        1.4282632629391785       0.60000002384185791       0.60000002384185791       0.60000002384185791       0.80000001192092896     
  
   3   2  23   6
   3   2  23   9
   3   2   6  23
   3   2   9  23
   3   3  14  19
   3   3  19  14
   4   3  19  20   4
   3   4  20  15
   4   4  20  19   3
   3   4  15  20
   3   5   7  23
   3   5  23   7
   3   5  23   8
   3   5   8  23
   3   6   2  23
   3   6  23   2
   4   6  23  26  24
   3   6  24  10
   4   6  24  26  23
   3   6  10  24
   3   7  11  18
   3   7  18  11
   4   7  18  25  23
   3   7  23   5
   4   7  23  25  18
   3   7   5  23
   3   8   5  23
   3   8  23   5
   3   8  23  16
   3   8  16  12
   3   8  16  23
   3   8  12  16
   3   9  13  17
   3   9  17  23
   3   9  17  13
   3   9  23   2
   3   9  23  17
   3   9   2  23
   3  10   6  24
   3  10  24  14
   3  10  24   6
   3  10  14  24
   3  11  15  18
   3  11  18   7
   3  11  18  15
   3  11   7  18
   3  12   8  16
   3  12  16   8
   4  12  16  21   0
   3  13  17   9
   4  13  17  22   1
   3  13   9  17
   3  14  10  24
   3  14  24  19
   3  14  24  10
   3  14  19   3
   3  14  19  24
   3  14   3  19
   3  15   4  20
   3  15  20   4
   3  15  20  18
   3  15  18  20
   3  15  18  11
   3  15  11  18
   3  16  12   8
   4  16  12   0  21
   3  16   8  23
   3  16   8  12
   3  16  23  17
   3  16  23   8
   3  16  17  23
   4  16  17  22  21
   3  17  16  23
   4  17  16  21  22
   3  17  23   9
   3  17  23  16
   3  17   9  13
   3  17   9  23
   3  17  13   9
   4  17  13   1  22
   3  18  20  15
   4  18  20  19  24
   3  18   7  11
   4  18   7  23  25
   3  18  11  15
   3  18  11   7
   3  18  15  20
   3  18  15  11
   3  19   3  14
   4  19   3   4  20
   3  19  14  24
   3  19  14   3
   3  19  24  14
   4  19  24  18  20
   3  20   4  15
   4  20   4   3  19
   3  20  18  15
   4  20  18  24  19
   3  20  15   4
   3  20  15  18
   3  23   5   7
   3  23   5   8
   3  23   7   5
   4  23   7  18  25
   3  23  25  26
   4  23  25  18   7
   3  23  26  25
   4  23  26  24   6
   3  23   6   2
   4  23   6  24  26
   3  23   2   6
   3  23   2   9
   3  23   9  17
   3  23   9   2
   3  23  17  16
   3  23  17   9
   3  23  16   8
   3  23  16  17
   3  23   8   5
   3  23   8  16
   3  24  19  14
   4  24  19  20  18
   3  24  14  10
   3  24  14  19
   3  24  10   6
   3  24  10  14
   3  24   6  10
   4  24   6  23  26
   3  25  26  23
   4  25  26  24  18
   3  25  23  26
   4  25  23   7  18
   3  26  23  25
   4  26  23   6  24
   3  26  25  23
   4  26  25  18  24
