# Generated by dad_to_polygons. Vertex data from Humppa's .off file,
# polygons parsed from .dad file.
COFF
27 72 27
-3.761479 0.649778 2.449891 0.500000 0.500000 0.500000 1.0
-3.761479 -0.649778 2.449891 0.500000 0.500000 0.500000 1.0
-0.024527 -1.385929 2.340163 0.500000 0.500000 0.500000 1.0
4.072487 -0.640885 2.466973 0.500000 0.500000 0.500000 1.0
4.072487 0.640885 2.466973 0.500000 0.500000 0.500000 1.0
-0.024527 1.385929 2.340163 0.500000 0.500000 0.500000 1.0
0.937979 -1.093000 2.354613 0.500000 0.500000 0.500000 1.0
0.937979 1.093000 2.354613 0.500000 0.500000 0.500000 1.0
-0.988799 1.084023 2.358255 0.500000 0.500000 0.500000 1.0
-0.988799 -1.084023 2.358255 0.500000 0.500000 0.500000 1.0
1.897688 -0.888950 2.547208 0.500000 0.500000 0.500000 1.0
1.897688 0.888950 2.547208 0.500000 0.500000 0.500000 1.0
-1.958617 0.895278 2.506555 0.500000 0.500000 0.500000 1.0
-1.958617 -0.895278 2.506555 0.500000 0.500000 0.500000 1.0
2.928195 -0.766444 2.502848 0.500000 0.500000 0.500000 1.0
2.928195 0.766444 2.502848 0.500000 0.500000 0.500000 1.0
-1.638750 0.757042 1.797479 0.500000 0.500000 0.500000 1.0
-1.638750 -0.757042 1.797479 0.500000 0.500000 0.500000 1.0
1.706879 0.750882 1.808640 0.500000 0.500000 0.500000 1.0
2.952583 -0.629647 1.886766 0.500000 0.500000 0.500000 1.0
2.952583 0.629647 1.886766 0.500000 0.500000 0.500000 1.0
-2.827659 0.658098 1.936245 0.500000 0.500000 0.500000 1.0
-2.827659 -0.658098 1.936245 0.500000 0.500000 0.500000 1.0
0.002618 -0.000000 1.053561 1.0 1.0 0.0 1.0
1.706879 -0.750882 1.808640 0.500000 0.500000 0.500000 1.0
0.860255 0.377565 1.428263 0.500000 0.500000 0.500000 1.0
0.860255 -0.377565 1.428263 0.500000 0.500000 0.500000 1.0
3 0 21 22
3 0 22 21
3 0 22 1
3 0 1 22
3 4 3 19
3 4 19 3
3 4 19 20
3 4 20 19
3 6 2 23
3 6 23 2
3 6 23 26
3 6 26 23
3 6 26 24
3 6 24 26
3 7 5 23
3 7 23 5
3 8 5 23
3 8 23 5
3 8 16 12
3 8 12 16
3 9 13 17
3 9 17 13
3 9 17 23
3 9 23 17
3 11 15 18
3 11 18 15
3 11 18 7
3 11 7 18
3 12 16 21
3 12 21 16
3 12 21 0
3 12 0 21
3 13 1 22
3 13 22 1
3 13 22 17
3 13 17 22
3 14 19 3
3 14 3 19
3 14 24 10
3 14 10 24
3 14 24 19
3 14 19 24
3 15 18 20
3 15 20 18
3 17 16 21
3 17 21 16
3 17 21 22
3 17 22 21
3 18 19 24
3 18 24 19
3 18 20 19
3 18 19 20
3 18 23 7
3 18 7 23
3 18 24 26
3 18 26 24
3 18 25 23
3 18 23 25
3 18 26 25
3 18 25 26
3 20 15 4
3 20 4 15
3 23 2 9
3 23 9 2
3 23 8 16
3 23 16 8
3 23 17 16
3 23 16 17
3 23 26 25
3 23 25 26
3 24 10 6
3 24 6 10
