# Generated by dad_to_polygons. Vertex data from Humppa's .off file,
# polygons parsed from .dad file.
COFF
37 108 37
-4.236736 0.677592 2.826560 0.500000 0.500000 0.500000 1.0
-4.236736 -0.677592 2.826560 0.500000 0.500000 0.500000 1.0
-0.025256 -1.491627 2.650011 0.500000 0.500000 0.500000 1.0
4.561453 -0.665290 2.849732 0.500000 0.500000 0.500000 1.0
4.561453 0.665290 2.849732 0.500000 0.500000 0.500000 1.0
-0.025256 1.491627 2.650011 0.500000 0.500000 0.500000 1.0
0.963792 -1.208665 2.723240 0.500000 0.500000 0.500000 1.0
0.963792 1.208665 2.723240 0.500000 0.500000 0.500000 1.0
-1.005124 1.191898 2.708461 0.500000 0.500000 0.500000 1.0
-1.005124 -1.191898 2.708461 0.500000 0.500000 0.500000 1.0
1.907755 -0.943303 2.919708 0.500000 0.500000 0.500000 1.0
1.907755 0.943303 2.919708 0.500000 0.500000 0.500000 1.0
-1.958960 0.955002 2.890750 0.500000 0.500000 0.500000 1.0
-1.958960 -0.955002 2.890750 0.500000 0.500000 0.500000 1.0
3.006773 -0.812523 2.882624 0.500000 0.500000 0.500000 1.0
3.006773 0.812523 2.882624 0.500000 0.500000 0.500000 1.0
-2.969627 0.821240 2.851808 0.500000 0.500000 0.500000 1.0
-2.969627 -0.821240 2.851808 0.500000 0.500000 0.500000 1.0
1.969892 0.810405 2.115430 0.500000 0.500000 0.500000 1.0
3.200921 -0.670817 2.217541 0.500000 0.500000 0.500000 1.0
3.200921 0.670817 2.217541 0.500000 0.500000 0.500000 1.0
-3.140095 0.680384 2.188364 0.500000 0.500000 0.500000 1.0
-3.140095 -0.680384 2.188364 0.500000 0.500000 0.500000 1.0
-0.007573 -0.000000 1.053561 1.0 1.0 0.0 1.0
1.969892 -0.810405 2.115430 0.500000 0.500000 0.500000 1.0
1.024899 0.637670 1.557324 0.500000 0.500000 0.500000 1.0
1.024899 -0.637670 1.557324 0.500000 0.500000 0.500000 1.0
-0.618747 0.927279 1.976444 0.500000 0.500000 0.500000 1.0
-0.618747 -0.927279 1.976444 0.500000 0.500000 0.500000 1.0
-1.333867 0.461016 1.457403 0.500000 0.500000 0.500000 1.0
-1.333867 -0.461016 1.457403 0.500000 0.500000 0.500000 1.0
0.683241 -0.842813 1.865570 0.500000 0.500000 0.500000 1.0
0.683241 0.842813 1.865570 0.500000 0.500000 0.500000 1.0
-1.896523 0.824501 2.097944 0.500000 0.500000 0.500000 1.0
-1.896523 -0.824501 2.097944 0.500000 0.500000 0.500000 1.0
-0.036817 -0.928880 1.863007 0.500000 0.500000 0.500000 1.0
-0.036817 0.928880 1.863007 0.500000 0.500000 0.500000 1.0
3 0 21 22
3 0 22 21
3 0 22 1
3 0 1 22
3 1 22 17
3 1 17 22
3 2 28 35
3 2 35 28
3 2 31 35
3 2 35 31
3 3 4 20
3 3 20 4
3 3 20 19
3 3 19 20
3 5 7 32
3 5 32 7
3 5 36 27
3 5 27 36
3 7 18 32
3 7 32 18
3 8 27 5
3 8 5 27
3 8 33 12
3 8 12 33
3 9 28 2
3 9 2 28
3 10 6 24
3 10 24 6
3 10 24 14
3 10 14 24
3 11 18 7
3 11 7 18
3 12 16 33
3 12 33 16
3 13 34 17
3 13 17 34
3 14 19 3
3 14 3 19
3 15 4 20
3 15 20 4
3 15 18 11
3 15 11 18
3 15 18 20
3 15 20 18
3 16 0 21
3 16 21 0
3 16 21 33
3 16 33 21
3 18 24 26
3 18 26 24
3 18 26 25
3 18 25 26
3 20 18 24
3 20 24 18
3 20 24 19
3 20 19 24
3 21 22 34
3 21 34 22
3 21 34 33
3 21 33 34
3 22 17 34
3 22 34 17
3 23 25 26
3 23 26 25
3 23 26 31
3 23 31 26
3 23 29 33
3 23 33 29
3 23 30 34
3 23 34 30
3 23 31 35
3 23 35 31
3 23 32 25
3 23 25 32
3 23 33 27
3 23 27 33
3 23 34 28
3 23 28 34
3 23 36 32
3 23 32 36
3 24 14 19
3 24 19 14
3 24 31 26
3 24 26 31
3 25 32 18
3 25 18 32
3 27 8 33
3 27 33 8
3 27 23 36
3 27 36 23
3 28 23 35
3 28 35 23
3 28 34 9
3 28 9 34
3 29 23 30
3 29 30 23
3 29 33 34
3 29 34 33
3 29 34 30
3 29 30 34
3 31 2 6
3 31 6 2
3 31 24 6
3 31 6 24
3 34 9 13
3 34 13 9
3 36 5 32
3 36 32 5
