# Generated by dad_to_polygons. Vertex data from Humppa's .off file,
# polygons parsed from .dad file.
COFF
37 108 37
-4.622615 0.700587 3.209910 0.500000 0.500000 0.500000 1.0
-4.622615 -0.700587 3.209910 0.500000 0.500000 0.500000 1.0
-0.026082 -1.576268 2.978512 0.500000 0.500000 0.500000 1.0
4.959131 -0.685336 3.238340 0.500000 0.500000 0.500000 1.0
4.959131 0.685336 3.238340 0.500000 0.500000 0.500000 1.0
-0.026082 1.576268 2.978512 0.500000 0.500000 0.500000 1.0
0.985506 -1.286364 3.097263 0.500000 0.500000 0.500000 1.0
0.985506 1.286364 3.097263 0.500000 0.500000 0.500000 1.0
-1.034588 1.268539 3.065915 0.500000 0.500000 0.500000 1.0
-1.034588 -1.268539 3.065915 0.500000 0.500000 0.500000 1.0
1.921346 -0.987732 3.291125 0.500000 0.500000 0.500000 1.0
1.921346 0.987732 3.291125 0.500000 0.500000 0.500000 1.0
-1.979297 1.002975 3.257857 0.500000 0.500000 0.500000 1.0
-1.979297 -1.002975 3.257857 0.500000 0.500000 0.500000 1.0
3.050150 -0.850678 3.294193 0.500000 0.500000 0.500000 1.0
3.050150 0.850678 3.294193 0.500000 0.500000 0.500000 1.0
-2.992287 0.865093 3.239797 0.500000 0.500000 0.500000 1.0
-2.992287 -0.865093 3.239797 0.500000 0.500000 0.500000 1.0
2.100286 0.862916 2.419403 0.500000 0.500000 0.500000 1.0
3.400128 -0.707754 2.580506 0.500000 0.500000 0.500000 1.0
3.400128 0.707754 2.580506 0.500000 0.500000 0.500000 1.0
-3.325368 0.720097 2.549950 0.500000 0.500000 0.500000 1.0
-3.325368 -0.720097 2.549950 0.500000 0.500000 0.500000 1.0
-0.024511 -0.000000 1.053561 1.0 1.0 0.0 1.0
2.100286 -0.862916 2.419403 0.500000 0.500000 0.500000 1.0
1.157975 0.832631 1.774318 0.500000 0.500000 0.500000 1.0
1.157975 -0.832631 1.774318 0.500000 0.500000 0.500000 1.0
-0.808813 1.125595 2.251149 0.500000 0.500000 0.500000 1.0
-0.808813 -1.125595 2.251149 0.500000 0.500000 0.500000 1.0
-1.665797 0.599190 1.591378 0.500000 0.500000 0.500000 1.0
-1.665797 -0.599190 1.591378 0.500000 0.500000 0.500000 1.0
0.835160 -1.049518 2.126289 0.500000 0.500000 0.500000 1.0
0.835160 1.049518 2.126289 0.500000 0.500000 0.500000 1.0
-2.080235 0.872785 2.401937 0.500000 0.500000 0.500000 1.0
-2.080235 -0.872785 2.401937 0.500000 0.500000 0.500000 1.0
-0.040069 -1.166587 2.100401 0.500000 0.500000 0.500000 1.0
-0.040069 1.166587 2.100401 0.500000 0.500000 0.500000 1.0
3 0 21 22
3 0 22 21
3 0 22 1
3 0 1 22
3 1 22 17
3 1 17 22
3 2 28 35
3 2 35 28
3 2 31 35
3 2 35 31
3 3 4 20
3 3 20 4
3 3 20 19
3 3 19 20
3 5 7 32
3 5 32 7
3 5 36 27
3 5 27 36
3 7 18 32
3 7 32 18
3 8 27 5
3 8 5 27
3 8 33 12
3 8 12 33
3 9 28 2
3 9 2 28
3 10 6 24
3 10 24 6
3 10 24 14
3 10 14 24
3 11 18 7
3 11 7 18
3 12 16 33
3 12 33 16
3 13 34 17
3 13 17 34
3 14 19 3
3 14 3 19
3 15 4 20
3 15 20 4
3 15 18 11
3 15 11 18
3 15 18 20
3 15 20 18
3 16 0 21
3 16 21 0
3 16 21 33
3 16 33 21
3 18 24 26
3 18 26 24
3 18 26 25
3 18 25 26
3 20 18 24
3 20 24 18
3 20 24 19
3 20 19 24
3 21 22 34
3 21 34 22
3 21 34 33
3 21 33 34
3 22 17 34
3 22 34 17
3 23 25 26
3 23 26 25
3 23 26 31
3 23 31 26
3 23 29 33
3 23 33 29
3 23 30 34
3 23 34 30
3 23 31 35
3 23 35 31
3 23 32 25
3 23 25 32
3 23 33 27
3 23 27 33
3 23 34 28
3 23 28 34
3 23 36 32
3 23 32 36
3 24 14 19
3 24 19 14
3 24 31 26
3 24 26 31
3 25 32 18
3 25 18 32
3 27 8 33
3 27 33 8
3 27 23 36
3 27 36 23
3 28 23 35
3 28 35 23
3 28 34 9
3 28 9 34
3 29 23 30
3 29 30 23
3 29 33 34
3 29 34 33
3 29 34 30
3 29 30 34
3 31 2 6
3 31 6 2
3 31 24 6
3 31 6 24
3 34 9 13
3 34 13 9
3 36 5 32
3 36 32 5
