# Generated by dad_to_polygons. Vertex data from Humppa's .off file,
# polygons parsed from .dad file.
COFF
65 208 65
-5.768349 0.770126 4.770789 0.500000 0.500000 0.500000 1.0
-5.768349 -0.770126 4.770789 0.500000 0.500000 0.500000 1.0
-0.027286 -1.841722 4.347007 0.500000 0.500000 0.500000 1.0
6.905816 -0.786686 4.757395 0.500000 0.500000 0.500000 1.0
6.905816 0.786686 4.757395 0.500000 0.500000 0.500000 1.0
-0.027286 1.841722 4.347007 0.500000 0.500000 0.500000 1.0
1.052693 -1.488778 4.526654 0.500000 0.500000 0.500000 1.0
1.052693 1.488778 4.526654 0.500000 0.500000 0.500000 1.0
-1.103579 1.484757 4.482694 0.500000 0.500000 0.500000 1.0
-1.103579 -1.484757 4.482694 0.500000 0.500000 0.500000 1.0
1.957088 -1.136141 4.797129 0.500000 0.500000 0.500000 1.0
1.957088 1.136141 4.797129 0.500000 0.500000 0.500000 1.0
-2.018964 1.170278 4.741668 0.500000 0.500000 0.500000 1.0
-2.018964 -1.170278 4.741668 0.500000 0.500000 0.500000 1.0
3.058793 -0.990551 4.857746 0.500000 0.500000 0.500000 1.0
3.058793 0.990551 4.857746 0.500000 0.500000 0.500000 1.0
-3.026146 1.013214 4.766946 0.500000 0.500000 0.500000 1.0
-3.026146 -1.013214 4.766946 0.500000 0.500000 0.500000 1.0
4.051658 -0.880448 4.883988 0.500000 0.500000 0.500000 1.0
4.051658 0.880448 4.883988 0.500000 0.500000 0.500000 1.0
-4.018491 0.889830 4.781959 0.500000 0.500000 0.500000 1.0
-4.018491 -0.889830 4.781959 0.500000 0.500000 0.500000 1.0
5.059470 -0.859095 4.796553 0.500000 0.500000 0.500000 1.0
5.059470 0.859095 4.796553 0.500000 0.500000 0.500000 1.0
2.357202 -1.006565 3.772166 0.500000 0.500000 0.500000 1.0
1.587942 1.224718 2.979081 0.500000 0.500000 0.500000 1.0
1.587942 -1.224718 2.979081 0.500000 0.500000 0.500000 1.0
-1.141985 1.437700 3.619372 0.500000 0.500000 0.500000 1.0
-1.141985 -1.437700 3.619372 0.500000 0.500000 0.500000 1.0
-1.898669 0.781303 2.621864 0.500000 0.500000 0.500000 1.0
-1.898669 -0.781303 2.621864 0.500000 0.500000 0.500000 1.0
1.143995 -1.414332 3.483894 0.500000 0.500000 0.500000 1.0
1.143995 1.414332 3.483894 0.500000 0.500000 0.500000 1.0
-2.355716 1.064845 3.724907 0.500000 0.500000 0.500000 1.0
-2.355716 -1.064845 3.724907 0.500000 0.500000 0.500000 1.0
0.003573 -1.567566 3.226256 0.500000 0.500000 0.500000 1.0
0.003573 1.567566 3.226256 0.500000 0.500000 0.500000 1.0
2.357202 1.006565 3.772166 0.500000 0.500000 0.500000 1.0
4.021191 -0.827094 4.120586 0.500000 0.500000 0.500000 1.0
-0.694353 -1.359947 2.722497 0.500000 0.500000 0.500000 1.0
-0.694353 1.359947 2.722497 0.500000 0.500000 0.500000 1.0
-1.518027 -0.659825 1.623123 0.500000 0.500000 0.500000 1.0
-1.518027 0.659825 1.623123 0.500000 0.500000 0.500000 1.0
0.899795 1.304378 2.423001 0.500000 0.500000 0.500000 1.0
0.899795 -1.304378 2.423001 0.500000 0.500000 0.500000 1.0
4.021191 0.827094 4.120586 0.500000 0.500000 0.500000 1.0
-3.928212 0.845800 4.119727 0.500000 0.500000 0.500000 1.0
1.893303 0.000000 2.846754 0.500000 0.500000 0.500000 1.0
1.269808 0.903449 2.147528 0.500000 0.500000 0.500000 1.0
1.269808 -0.903449 2.147528 0.500000 0.500000 0.500000 1.0
0.028938 1.339877 2.309534 0.500000 0.500000 0.500000 1.0
0.028938 -1.339877 2.309534 0.500000 0.500000 0.500000 1.0
1.420608 -0.000000 2.009667 0.500000 0.500000 0.500000 1.0
4.971617 -0.750282 3.974448 1.0 1.0 0.0 1.0
4.971617 0.750282 3.974448 1.0 1.0 0.0 1.0
-2.636919 0.000000 3.434285 0.500000 0.500000 0.500000 1.0
-0.330912 -0.932708 1.935492 0.500000 0.500000 0.500000 1.0
-0.330912 0.932708 1.935492 0.500000 0.500000 0.500000 1.0
-3.928212 -0.845800 4.119727 0.500000 0.500000 0.500000 1.0
0.037770 -0.000000 1.053561 1.0 1.0 0.0 1.0
0.534874 0.737252 1.716109 0.500000 0.500000 0.500000 1.0
0.534874 -0.737252 1.716109 0.500000 0.500000 0.500000 1.0
2.403331 -0.000000 3.736367 0.500000 0.500000 0.500000 1.0
5.933136 -0.766197 4.355502 0.500000 0.500000 0.500000 1.0
5.933136 0.766197 4.355502 0.500000 0.500000 0.500000 1.0
3 0 1 58
3 0 58 1
3 0 58 46
3 0 46 58
3 2 28 9
3 2 9 28
3 2 28 35
3 2 35 28
3 2 35 31
3 2 31 35
3 3 4 64
3 3 64 4
3 3 64 63
3 3 63 64
3 5 7 32
3 5 32 7
3 5 27 8
3 5 8 27
3 5 32 36
3 5 36 32
3 6 31 2
3 6 2 31
3 7 37 32
3 7 32 37
3 8 27 33
3 8 33 27
3 8 33 12
3 8 12 33
3 9 28 34
3 9 34 28
3 10 6 24
3 10 24 6
3 10 24 14
3 10 14 24
3 11 37 7
3 11 7 37
3 12 33 16
3 12 16 33
3 13 17 34
3 13 34 17
3 14 38 24
3 14 24 38
3 15 37 11
3 15 11 37
3 17 21 58
3 17 58 21
3 17 58 34
3 17 34 58
3 18 38 14
3 18 14 38
3 19 23 45
3 19 45 23
3 19 45 15
3 19 15 45
3 20 0 46
3 20 46 0
3 20 46 16
3 20 16 46
3 21 1 58
3 21 58 1
3 22 38 18
3 22 18 38
3 22 53 38
3 22 38 53
3 22 53 63
3 22 63 53
3 22 63 3
3 22 3 63
3 23 54 64
3 23 64 54
3 23 64 4
3 23 4 64
3 25 32 37
3 25 37 32
3 25 43 48
3 25 48 43
3 25 47 48
3 25 48 47
3 26 24 31
3 26 31 24
3 26 31 44
3 26 44 31
3 26 44 49
3 26 49 44
3 26 47 24
3 26 24 47
3 27 36 5
3 27 5 36
3 28 39 35
3 28 35 39
3 29 33 55
3 29 55 33
3 29 40 33
3 29 33 40
3 29 55 30
3 29 30 55
3 29 57 40
3 29 40 57
3 30 29 42
3 30 42 29
3 30 42 41
3 30 41 42
3 30 56 39
3 30 39 56
3 31 6 24
3 31 24 6
3 31 35 44
3 31 44 35
3 32 25 43
3 32 43 25
3 32 36 43
3 32 43 36
3 33 27 40
3 33 40 27
3 33 46 16
3 33 16 46
3 33 55 46
3 33 46 55
3 34 9 13
3 34 13 9
3 34 30 55
3 34 55 30
3 34 39 28
3 34 28 39
3 34 39 30
3 34 30 39
3 35 39 51
3 35 51 39
3 36 27 40
3 36 40 27
3 36 40 50
3 36 50 40
3 36 50 43
3 36 43 50
3 37 25 47
3 37 47 25
3 37 45 15
3 37 15 45
3 37 45 62
3 37 62 45
3 37 47 62
3 37 62 47
3 38 62 24
3 38 24 62
3 41 56 30
3 41 30 56
3 42 57 29
3 42 29 57
3 42 59 57
3 42 57 59
3 44 49 61
3 44 61 49
3 45 38 62
3 45 62 38
3 45 53 38
3 45 38 53
3 45 54 53
3 45 53 54
3 47 48 52
3 47 52 48
3 47 49 26
3 47 26 49
3 47 52 49
3 47 49 52
3 48 60 59
3 48 59 60
3 49 61 59
3 49 59 61
3 50 40 57
3 50 57 40
3 51 44 35
3 51 35 44
3 51 44 61
3 51 61 44
3 51 56 39
3 51 39 56
3 51 59 56
3 51 56 59
3 53 63 64
3 53 64 63
3 53 64 54
3 53 54 64
3 54 45 23
3 54 23 45
3 56 41 59
3 56 59 41
3 57 50 59
3 57 59 50
3 58 46 55
3 58 55 46
3 58 55 34
3 58 34 55
3 59 41 42
3 59 42 41
3 59 52 48
3 59 48 52
3 59 52 49
3 59 49 52
3 60 48 43
3 60 43 48
3 60 50 43
3 60 43 50
3 60 59 50
3 60 50 59
3 61 59 51
3 61 51 59
3 62 24 47
3 62 47 24
