 COFF
          75         680          75
  
  -6.2034502944296541       0.79721974631972814        5.1456614628591311       0.60000002384185791       0.60000002384185791       0.60000002384185791       0.80000001192092896     
  -6.2034502944296488      -0.79721974631972869        5.1456614628591311       0.60000002384185791       0.60000002384185791       0.60000002384185791       0.80000001192092896     
  -2.7408719672313876E-002  -1.8928712972365576        4.7005617626529741       0.60000002384185791       0.60000002384185791       0.60000002384185791       0.80000001192092896     
   7.2054259039193473      -0.84692114731976442        5.0833486817992330       0.60000002384185791       0.60000002384185791       0.60000002384185791       0.80000001192092896     
   7.2054259039193616       0.84692114731976331        5.0833486817992330       0.60000002384185791       0.60000002384185791       0.60000002384185791       0.80000001192092896     
  -2.7408719672314015E-002   1.8928712972366626        4.7005617626528631       0.60000002384185791       0.60000002384185791       0.60000002384185791       0.80000001192092896     
   1.0678943955071569       -1.5309110792823051        4.8894643847786723       0.60000002384185791       0.60000002384185791       0.60000002384185791       0.80000001192092896     
   1.0678943955071649        1.5309110792823226        4.8894643847786528       0.60000002384185791       0.60000002384185791       0.60000002384185791       0.80000001192092896     
  -1.1166254403876243        1.5259908222138945        4.8463413050941515       0.60000002384185791       0.60000002384185791       0.60000002384185791       0.80000001192092896     
  -1.1166254403876157       -1.5259908222138707        4.8463413050941808       0.60000002384185791       0.60000002384185791       0.60000002384185791       0.80000001192092896     
   1.9665447371785942       -1.1728930904809127        5.1715878323404398       0.60000002384185791       0.60000002384185791       0.60000002384185791       0.80000001192092896     
   1.9665447371785945        1.1728930904809141        5.1715878323404336       0.60000002384185791       0.60000002384185791       0.60000002384185791       0.80000001192092896     
  -2.0237118522309876        1.2049488091319489        5.1179215758311951       0.60000002384185791       0.60000002384185791       0.60000002384185791       0.80000001192092896     
  -2.0237118522309943       -1.2049488091319449        5.1179215758311987       0.60000002384185791       0.60000002384185791       0.60000002384185791       0.80000001192092896     
   3.0524280429101736       -1.0397900362363623        5.2245250561126255       0.60000002384185791       0.60000002384185791       0.60000002384185791       0.80000001192092896     
   3.0524280429101056        1.0397900362363586        5.2245250561123209       0.60000002384185791       0.60000002384185791       0.60000002384185791       0.80000001192092896     
  -3.0099667139181112        1.0494782667325777        5.1451442511535754       0.60000002384185791       0.60000002384185791       0.60000002384185791       0.80000001192092896     
  -3.0099667139181188       -1.0494782667325764        5.1451442511536234       0.60000002384185791       0.60000002384185791       0.60000002384185791       0.80000001192092896     
   4.0462456042127615      -0.93637314532398652        5.2501761338029400       0.60000002384185791       0.60000002384185791       0.60000002384185791       0.80000001192092896     
   4.0462456042127011       0.93637314532399996        5.2501761338029347       0.60000002384185791       0.60000002384185791       0.60000002384185791       0.80000001192092896     
  -3.9985250477558658       0.91675718487760693        5.1946501475149844       0.60000002384185791       0.60000002384185791       0.60000002384185791       0.80000001192092896     
  -3.9985250477558725      -0.91675718487760538        5.1946501475149844       0.60000002384185791       0.60000002384185791       0.60000002384185791       0.80000001192092896     
   5.0354268589881395      -0.97699266597393331        5.1157598447079149       0.60000002384185791       0.60000002384185791       0.60000002384185791       0.80000001192092896     
   5.0354268589880871       0.97699266597393086        5.1157598447079176       0.60000002384185791       0.60000002384185791       0.60000002384185791       0.80000001192092896     
   6.0556426458717656      -0.93311473537076639        5.0813045747332444       0.60000002384185791       0.60000002384185791       0.60000002384185791       0.80000001192092896     
   6.0556426458717674       0.93311473537076406        5.0813045747332444       0.60000002384185791       0.60000002384185791       0.60000002384185791       0.80000001192092896     
  -5.0017786927884362       0.86271560169474681        5.1628061384780803       0.60000002384185791       0.60000002384185791       0.60000002384185791       0.80000001192092896     
  -5.0017786927884362      -0.86271560169474759        5.1628061384780803       0.60000002384185791       0.60000002384185791       0.60000002384185791       0.80000001192092896     
  -1.1780092516005416       -1.4817040390683021        3.9630337111299152       0.60000002384185791       0.60000002384185791       0.60000002384185791       0.80000001192092896     
  -1.9790922528641484       0.80724489490302720        2.9243508910352136       0.60000002384185791       0.60000002384185791       0.60000002384185791       0.80000001192092896     
  -1.9790922529178863      -0.80724489486577633        2.9243508910288956       0.60000002384185791       0.60000002384185791       0.60000002384185791       0.80000001192092896     
   1.1776261996396693       -1.4622210234727613        3.8227039368558740       0.60000002384185791       0.60000002384185791       0.60000002384185791       0.80000001192092896     
   1.1776261996435242        1.4622210234913140        3.8227039368559432       0.60000002384185791       0.60000002384185791       0.60000002384185791       0.80000001192092896     
  -2.3893915547977058        1.1081955687635419        4.0730264810356491       0.60000002384185791       0.60000002384185791       0.60000002384185791       0.80000001192092896     
  -2.3893915547976339       -1.1081955687621272        4.0730264810356944       0.60000002384185791       0.60000002384185791       0.60000002384185791       0.80000001192092896     
   6.4670148684160232E-003  -1.6151410873062333        3.5340228693768712       0.60000002384185791       0.60000002384185791       0.60000002384185791       0.80000001192092896     
   6.4670147072669456E-003   1.6151410897792591        3.5340228693770670       0.60000002384185791       0.60000002384185791       0.60000002384185791       0.80000001192092896     
   2.3949947092916308        1.0673070826817164        4.1118033231598998       0.60000002384185791       0.60000002384185791       0.60000002384185791       0.80000001192092896     
   4.0780785474420700      -0.94252634846919237        4.4988536877152585       0.60000002384185791       0.60000002384185791       0.60000002384185791       0.80000001192092896     
 -0.79614655237266729       -1.4257665278412657        3.0490489202185969       0.60000002384185791       0.60000002384185791       0.60000002384185791       0.80000001192092896     
 -0.79614655243359989        1.4257665281221508        3.0490489201969706       0.60000002384185791       0.60000002384185791       0.60000002384185791       0.80000001192092896     
  -1.4777942193432034      -0.71651269343426272        1.7560730236854223       0.60000002384185791       0.60000002384185791       0.60000002384185791       0.80000001192092896     
  -1.4777942193422535       0.71651269343533208        1.7560730236844579       0.60000002384185791       0.60000002384185791       0.60000002384185791       0.80000001192092896     
  0.97319888025057644        1.3896135623634138        2.7347240053992601       0.60000002384185791       0.60000002384185791       0.60000002384185791       0.80000001192092896     
  0.97319888028563117       -1.3896135621139287        2.7347240053778394       0.60000002384185791       0.60000002384185791       0.60000002384185791       0.80000001192092896     
   4.0780785474420469       0.94252634846919769        4.4988536877152621       0.60000002384185791       0.60000002384185791       0.60000002384185791       0.80000001192092896     
  -4.0256933018009340       0.86733073147265927        4.5074004054139767       0.60000002384185791       0.60000002384185791       0.60000002384185791       0.80000001192092896     
   2.0443833410219452       -1.1305832243091413E-013   3.1584572238269675       0.60000002384185791       0.60000002384185791       0.60000002384185791       0.80000001192092896     
   1.3727201511411298       0.98782558766795747        2.4159213786060239       0.60000002384185791       0.60000002384185791       0.60000002384185791       0.80000001192092896     
   1.3727201511396097      -0.98782558765875927        2.4159213786073552       0.60000002384185791       0.60000002384185791       0.60000002384185791       0.80000001192092896     
   7.4245768016408101E-002   1.4499757064933432        2.5749744662051137       0.60000002384185791       0.60000002384185791       0.60000002384185791       0.80000001192092896     
   7.4245768226846753E-002  -1.4499757061676890        2.5749744662143019       0.60000002384185791       0.60000002384185791       0.60000002384185791       0.80000001192092896     
   1.5709626474926439        1.5117766113444250E-013   2.2663422291704638       0.60000002384185791       0.60000002384185791       0.60000002384185791       0.80000001192092896     
   5.0077108825399854      -0.75057608760460226        3.9744481212396505        1.0000000000000000        1.0000000000000000        0.0000000000000000        1.0000000000000000     
   5.0077108825399845       0.75057608760460148        3.9744481212396501        1.0000000000000000        1.0000000000000000        0.0000000000000000        1.0000000000000000     
  -2.8252524496811486        1.1640122634770869E-013   3.6938662001187801       0.60000002384185791       0.60000002384185791       0.60000002384185791       0.80000001192092896     
 -0.41966389628470430       -1.1989247028608883        2.2453675865615179       0.60000002384185791       0.60000002384185791       0.60000002384185791       0.80000001192092896     
 -0.41966389629050815        1.1989247028933807        2.2453675865465286       0.60000002384185791       0.60000002384185791       0.60000002384185791       0.80000001192092896     
  -4.0256933018008914      -0.86733073147260997        4.5074004054139358       0.60000002384185791       0.60000002384185791       0.60000002384185791       0.80000001192092896     
   5.4539633150960692E-002   1.5651842792209551E-013   1.0535609148389919        1.0000000000000000        1.0000000000000000        0.0000000000000000        1.0000000000000000     
  0.71904794330212485        1.0173747419069397        1.8916117224038715       0.60000002384185791       0.60000002384185791       0.60000002384185791       0.80000001192092896     
  0.71904794331208310       -1.0173747418896084        1.8916117224086670       0.60000002384185791       0.60000002384185791       0.60000002384185791       0.80000001192092896     
   2.6304221015859706       -1.0948225645102254E-014   3.8201345035395411       0.60000002384185791       0.60000002384185791       0.60000002384185791       0.80000001192092896     
   6.2934223373576801      -0.81338789030060876        4.5373752772426226       0.60000002384185791       0.60000002384185791       0.60000002384185791       0.80000001192092896     
   6.2934223373576819       0.81338789030060676        4.5373752772426226       0.60000002384185791       0.60000002384185791       0.60000002384185791       0.80000001192092896     
   2.3949947092923134       -1.0673070826813975        4.1118033231599282       0.60000002384185791       0.60000002384185791       0.60000002384185791       0.80000001192092896     
   1.6446751155863588        1.2761444540259486        3.3049980011441153       0.60000002384185791       0.60000002384185791       0.60000002384185791       0.80000001192092896     
  -4.9658084338999675       0.81545676791486166        4.5818974327962696        1.0000000000000000        1.0000000000000000        0.0000000000000000        1.0000000000000000     
  -4.9658084338999418      -0.81545676791486321        4.5818974327962705        1.0000000000000000        1.0000000000000000        0.0000000000000000        1.0000000000000000     
  0.90964431428325365       0.58973960057688746        1.7027118844865989       0.60000002384185791       0.60000002384185791       0.60000002384185791       0.80000001192092896     
  0.90964431428307635      -0.58973960057746422        1.7027118844868241       0.60000002384185791       0.60000002384185791       0.60000002384185791       0.80000001192092896     
   2.3389937432812046E-002  0.87481672104533914        1.8059690740231467       0.60000002384185791       0.60000002384185791       0.60000002384185791       0.80000001192092896     
   2.3389937445517192E-002 -0.87481672103632169        1.8059690740296745       0.60000002384185791       0.60000002384185791       0.60000002384185791       0.80000001192092896     
   1.6446751156125836       -1.2761444540219531        3.3049980011741353       0.60000002384185791       0.60000002384185791       0.60000002384185791       0.80000001192092896     
  -1.1780092516019474        1.4817040390868925        3.9630337111297185       0.60000002384185791       0.60000002384185791       0.60000002384185791       0.80000001192092896     
  
   3   0  26  67
   3   0  67  26
   4   0  67  68   1
   3   1  68  27
   4   1  68  67   0
   3   1  27  68
   3   2  35  28
   3   2  35  31
   3   2  31  35
   3   2  31   6
   3   2   6  31
   3   2   9  28
   3   2  28  35
   3   2  28   9
   3   3  24  63
   3   3  63  24
   4   3  63  64   4
   3   4  64  25
   4   4  64  63   3
   3   4  25  64
   3   5   7  32
   3   5  32  36
   3   5  32   7
   3   5  36  32
   3   5  36  74
   3   5  74  36
   3   5  74   8
   3   5   8  74
   3   6   2  31
   3   6  31   2
   3   6  31  65
   3   6  65  10
   3   6  65  31
   3   6  10  65
   3   7  11  37
   3   7  37  32
   3   7  37  11
   3   7  32  37
   3   7  32   5
   3   7   5  32
   3   8   5  74
   3   8  74   5
   3   8  74  33
   3   8  33  12
   3   8  33  74
   3   8  12  33
   3   9  13  34
   3   9  34  28
   3   9  34  13
   3   9  28  34
   3   9  28   2
   3   9   2  28
   3  10   6  65
   3  10  65  14
   3  10  65   6
   3  10  14  65
   3  11  15  37
   3  11  37   7
   3  11  37  15
   3  11   7  37
   3  12   8  33
   3  12  33  16
   3  12  33   8
   3  12  16  33
   3  13  17  34
   3  13  34   9
   3  13  34  17
   3  13   9  34
   3  14  10  65
   3  14  65  38
   3  14  65  10
   3  14  38  18
   3  14  38  65
   3  14  18  38
   3  15  19  45
   3  15  45  37
   3  15  45  19
   3  15  37  45
   3  15  37  11
   3  15  11  37
   3  16  12  33
   3  16  33  46
   3  16  33  12
   3  16  46  20
   3  16  46  33
   3  16  20  46
   3  17  21  58
   3  17  58  34
   3  17  58  21
   3  17  34  58
   3  17  34  13
   3  17  13  34
   3  18  14  38
   3  18  38  22
   3  18  38  14
   3  18  22  38
   3  19  23  45
   3  19  45  15
   3  19  45  23
   3  19  15  45
   3  20  16  46
   3  20  46  26
   3  20  46  16
   3  20  26  46
   3  21  27  58
   3  21  58  17
   3  21  58  27
   3  21  17  58
   3  22  18  38
   3  22  38  53
   3  22  38  18
   3  22  53  24
   3  22  53  38
   3  22  24  53
   3  23  25  54
   3  23  54  45
   3  23  54  25
   3  23  45  54
   3  23  45  19
   3  23  19  45
   3  24  22  53
   3  24  53  63
   3  24  53  22
   3  24  63   3
   3  24  63  53
   3  24   3  63
   3  25   4  64
   3  25  64   4
   3  25  64  54
   3  25  54  64
   3  25  54  23
   3  25  23  54
   3  26  20  46
   3  26  46  67
   3  26  46  20
   3  26  67   0
   3  26  67  46
   3  26   0  67
   3  27   1  68
   3  27  68   1
   3  27  68  58
   3  27  58  68
   3  27  58  21
   3  27  21  58
   3  28  34  39
   3  28  34   9
   3  28  39  35
   3  28  39  34
   3  28  35  39
   3  28  35   2
   3  28   2  35
   3  28   2   9
   3  28   9  34
   3  28   9   2
   3  29  33  40
   3  29  33  55
   3  29  40  33
   3  29  40  57
   3  29  57  42
   3  29  57  40
   3  29  42  57
   4  29  42  41  30
   3  29  30  55
   4  29  30  41  42
   3  29  55  30
   3  29  55  33
   3  30  34  55
   3  30  34  39
   3  30  55  29
   3  30  55  34
   3  30  29  55
   4  30  29  42  41
   3  30  41  56
   4  30  41  42  29
   3  30  56  39
   3  30  56  41
   3  30  39  34
   3  30  39  56
   3  31   2  35
   3  31   2   6
   3  31  35  44
   3  31  35   2
   3  31  44  73
   3  31  44  35
   3  31  73  65
   3  31  73  44
   3  31  65   6
   3  31  65  73
   3  31   6   2
   3  31   6  65
   3  32  37  66
   3  32  37   7
   3  32  66  37
   3  32  66  43
   3  32  43  36
   3  32  43  66
   3  32  36  43
   3  32  36   5
   3  32   5   7
   3  32   5  36
   3  32   7  37
   3  32   7   5
   3  33  46  16
   3  33  46  55
   3  33  16  12
   3  33  16  46
   3  33  12   8
   3  33  12  16
   3  33   8  74
   3  33   8  12
   3  33  74  40
   3  33  74   8
   3  33  40  29
   3  33  40  74
   3  33  29  40
   3  33  29  55
   3  33  55  29
   3  33  55  46
   3  34  58  55
   3  34  58  17
   3  34  55  30
   3  34  55  58
   3  34  30  55
   3  34  30  39
   3  34  39  28
   3  34  39  30
   3  34  28  39
   3  34  28   9
   3  34   9  13
   3  34   9  28
   3  34  13  17
   3  34  13   9
   3  34  17  58
   3  34  17  13
   3  35  28  39
   3  35  28   2
   3  35  39  28
   3  35  39  51
   3  35  51  44
   3  35  51  39
   3  35  44  31
   3  35  44  51
   3  35  31   2
   3  35  31  44
   3  35   2  31
   3  35   2  28
   3  36  32  43
   3  36  32   5
   3  36  43  32
   3  36  43  50
   3  36  50  40
   3  36  50  43
   3  36  40  74
   3  36  40  50
   3  36  74   5
   3  36  74  40
   3  36   5  32
   3  36   5  74
   3  37  45  62
   3  37  45  15
   3  37  62  47
   3  37  62  45
   3  37  47  62
   3  37  47  66
   3  37  66  47
   3  37  66  32
   3  37  32  66
   3  37  32   7
   3  37   7  11
   3  37   7  32
   3  37  11  15
   3  37  11   7
   3  37  15  45
   3  37  15  11
   3  38  53  22
   4  38  53  54  45
   3  38  22  18
   3  38  22  53
   3  38  18  14
   3  38  18  22
   3  38  14  65
   3  38  14  18
   3  38  65  14
   3  38  65  62
   3  38  62  45
   3  38  62  65
   3  38  45  62
   4  38  45  54  53
   3  39  35  28
   3  39  35  51
   3  39  28  34
   3  39  28  35
   3  39  34  30
   3  39  34  28
   3  39  30  34
   3  39  30  56
   3  39  56  51
   3  39  56  30
   3  39  51  35
   3  39  51  56
   3  40  29  33
   3  40  29  57
   3  40  33  74
   3  40  33  29
   3  40  74  36
   3  40  74  33
   3  40  36  50
   3  40  36  74
   3  40  50  36
   3  40  50  57
   3  40  57  29
   3  40  57  50
   3  41  59  56
   3  41  59  42
   3  41  56  30
   3  41  56  59
   3  41  30  56
   4  41  30  29  42
   3  41  42  59
   4  41  42  29  30
   3  42  59  41
   3  42  59  57
   3  42  41  59
   4  42  41  30  29
   3  42  29  57
   4  42  29  30  41
   3  42  57  29
   3  42  57  59
   3  43  36  32
   3  43  36  50
   3  43  32  66
   3  43  32  36
   3  43  66  48
   3  43  66  32
   3  43  48  66
   3  43  48  60
   3  43  60  48
   3  43  60  50
   3  43  50  36
   3  43  50  60
   3  44  73  49
   3  44  73  31
   3  44  31  35
   3  44  31  73
   3  44  35  51
   3  44  35  31
   3  44  51  35
   3  44  51  61
   3  44  61  51
   3  44  61  49
   3  44  49  73
   3  44  49  61
   3  45  54  23
   4  45  54  53  38
   3  45  38  62
   4  45  38  53  54
   3  45  62  37
   3  45  62  38
   3  45  37  62
   3  45  37  15
   3  45  15  19
   3  45  15  37
   3  45  19  23
   3  45  19  15
   3  45  23  54
   3  45  23  19
   3  46  67  26
   4  46  67  68  58
   3  46  26  20
   3  46  26  67
   3  46  20  16
   3  46  20  26
   3  46  16  33
   3  46  16  20
   3  46  33  16
   3  46  33  55
   3  46  55  58
   3  46  55  33
   3  46  58  55
   4  46  58  68  67
   3  47  37  62
   3  47  37  66
   3  47  62  37
   3  47  62  65
   3  47  65  73
   3  47  65  62
   3  47  73  49
   3  47  73  65
   3  47  49  73
   3  47  49  52
   3  47  52  48
   3  47  52  49
   3  47  48  66
   3  47  48  52
   3  47  66  37
   3  47  66  48
   3  48  43  66
   3  48  43  60
   3  48  66  47
   3  48  66  43
   3  48  47  52
   3  48  47  66
   3  48  52  47
   3  48  52  69
   3  48  69  52
   3  48  69  60
   3  48  60  69
   3  48  60  43
   3  49  47  73
   3  49  47  52
   3  49  73  47
   3  49  73  44
   3  49  44  73
   3  49  44  61
   3  49  61  70
   3  49  61  44
   3  49  70  61
   3  49  70  52
   3  49  52  47
   3  49  52  70
   3  50  40  36
   3  50  40  57
   3  50  36  43
   3  50  36  40
   3  50  43  36
   3  50  43  60
   3  50  60  71
   3  50  60  43
   3  50  71  60
   3  50  71  57
   3  50  57  40
   3  50  57  71
   3  51  44  35
   3  51  44  61
   3  51  35  39
   3  51  35  44
   3  51  39  35
   3  51  39  56
   3  51  56  39
   3  51  56  72
   3  51  72  56
   3  51  72  61
   3  51  61  72
   3  51  61  44
   3  52  48  47
   3  52  48  69
   3  52  47  49
   3  52  47  48
   3  52  49  47
   3  52  49  70
   3  52  70  59
   3  52  70  49
   3  52  59  69
   3  52  59  70
   3  52  69  59
   3  52  69  48
   3  53  63  24
   4  53  63  64  54
   3  53  24  22
   3  53  24  63
   3  53  22  38
   3  53  22  24
   3  53  38  22
   4  53  38  45  54
   3  54  64  25
   4  54  64  63  53
   3  54  45  23
   4  54  45  38  53
   3  54  23  25
   3  54  23  45
   3  54  25  64
   3  54  25  23
   3  55  29  33
   3  55  29  30
   3  55  30  34
   3  55  30  29
   3  55  34  58
   3  55  34  30
   3  55  58  46
   3  55  58  34
   3  55  46  33
   3  55  46  58
   3  55  33  46
   3  55  33  29
   3  56  51  39
   3  56  51  72
   3  56  39  30
   3  56  39  51
   3  56  30  41
   3  56  30  39
   3  56  41  59
   3  56  41  30
   3  56  59  72
   3  56  59  41
   3  56  72  59
   3  56  72  51
   3  57  42  59
   3  57  42  29
   3  57  29  40
   3  57  29  42
   3  57  40  29
   3  57  40  50
   3  57  50  40
   3  57  50  71
   3  57  71  59
   3  57  71  50
   3  57  59  71
   3  57  59  42
   3  58  68  27
   4  58  68  67  46
   3  58  46  55
   4  58  46  67  68
   3  58  55  34
   3  58  55  46
   3  58  34  55
   3  58  34  17
   3  58  17  21
   3  58  17  34
   3  58  21  27
   3  58  21  17
   3  58  27  68
   3  58  27  21
   3  59  71  60
   3  59  71  57
   3  59  60  69
   3  59  60  71
   3  59  69  52
   3  59  69  60
   3  59  52  70
   3  59  52  69
   3  59  70  61
   3  59  70  52
   3  59  61  72
   3  59  61  70
   3  59  72  56
   3  59  72  61
   3  59  56  41
   3  59  56  72
   3  59  41  56
   3  59  41  42
   3  59  42  41
   3  59  42  57
   3  59  57  42
   3  59  57  71
   3  60  48  43
   3  60  48  69
   3  60  69  59
   3  60  69  48
   3  60  59  71
   3  60  59  69
   3  60  71  59
   3  60  71  50
   3  60  50  43
   3  60  50  71
   3  60  43  48
   3  60  43  50
   3  61  51  44
   3  61  51  72
   3  61  72  59
   3  61  72  51
   3  61  59  70
   3  61  59  72
   3  61  70  59
   3  61  70  49
   3  61  49  44
   3  61  49  70
   3  61  44  51
   3  61  44  49
   3  62  47  37
   3  62  47  65
   3  62  37  45
   3  62  37  47
   3  62  45  38
   3  62  45  37
   3  62  38  65
   3  62  38  45
   3  62  65  38
   3  62  65  47
   3  63   3  24
   4  63   3   4  64
   3  63  24  53
   3  63  24   3
   3  63  53  24
   4  63  53  54  64
   3  64   4  25
   4  64   4   3  63
   3  64  54  25
   4  64  54  53  63
   3  64  25   4
   3  64  25  54
   3  65  38  14
   3  65  38  62
   3  65  14  10
   3  65  14  38
   3  65  10   6
   3  65  10  14
   3  65   6  31
   3  65   6  10
   3  65  31  73
   3  65  31   6
   3  65  73  47
   3  65  73  31
   3  65  47  62
   3  65  47  73
   3  65  62  47
   3  65  62  38
   3  66  37  47
   3  66  37  32
   3  66  47  37
   3  66  47  48
   3  66  48  43
   3  66  48  47
   3  66  43  32
   3  66  43  48
   3  66  32  37
   3  66  32  43
   3  67   0  26
   4  67   0   1  68
   3  67  26  46
   3  67  26   0
   3  67  46  26
   4  67  46  58  68
   3  68   1  27
   4  68   1   0  67
   3  68  58  27
   4  68  58  46  67
   3  68  27   1
   3  68  27  58
   3  69  52  48
   3  69  52  59
   3  69  59  60
   3  69  59  52
   3  69  60  48
   3  69  60  59
   3  69  48  52
   3  69  48  60
   3  70  61  59
   3  70  61  49
   3  70  59  52
   3  70  59  61
   3  70  52  49
   3  70  52  59
   3  70  49  61
   3  70  49  52
   3  71  60  59
   3  71  60  50
   3  71  59  60
   3  71  59  57
   3  71  57  50
   3  71  57  59
   3  71  50  60
   3  71  50  57
   3  72  56  51
   3  72  56  59
   3  72  59  61
   3  72  59  56
   3  72  61  51
   3  72  61  59
   3  72  51  56
   3  72  51  61
   3  73  49  47
   3  73  49  44
   3  73  47  65
   3  73  47  49
   3  73  65  31
   3  73  65  47
   3  73  31  44
   3  73  31  65
   3  73  44  31
   3  73  44  49
   3  74   5  36
   3  74   5   8
   3  74  36  40
   3  74  36   5
   3  74  40  33
   3  74  40  36
   3  74  33   8
   3  74  33  40
   3  74   8   5
   3  74   8  33
