# Generated by dad_to_polygons. Vertex data from Humppa's .off file,
# polygons parsed from .dad file.
COFF
79 256 79
-6.321746 0.868432 5.454520 0.500000 0.500000 0.500000 1.0
-6.321746 -0.868432 5.454520 0.500000 0.500000 0.500000 1.0
-0.027574 -1.940652 5.056226 0.500000 0.500000 0.500000 1.0
7.264715 -0.900544 5.414809 0.500000 0.500000 0.500000 1.0
7.264715 0.900544 5.414809 0.500000 0.500000 0.500000 1.0
-0.027574 1.940652 5.056226 0.500000 0.500000 0.500000 1.0
1.083054 -1.572433 5.251749 0.500000 0.500000 0.500000 1.0
1.083054 1.572433 5.251749 0.500000 0.500000 0.500000 1.0
-1.122215 1.567805 5.208721 0.500000 0.500000 0.500000 1.0
-1.122215 -1.567805 5.208721 0.500000 0.500000 0.500000 1.0
1.976495 -1.212024 5.542662 0.500000 0.500000 0.500000 1.0
1.976495 1.212024 5.542662 0.500000 0.500000 0.500000 1.0
-2.022802 1.239834 5.494383 0.500000 0.500000 0.500000 1.0
-2.022802 -1.239834 5.494383 0.500000 0.500000 0.500000 1.0
3.054376 -1.093589 5.583401 0.500000 0.500000 0.500000 1.0
3.054376 1.093589 5.583401 0.500000 0.500000 0.500000 1.0
-3.011352 1.093258 5.512156 0.500000 0.500000 0.500000 1.0
-3.011352 -1.093258 5.512156 0.500000 0.500000 0.500000 1.0
4.050332 -1.011418 5.609227 0.500000 0.500000 0.500000 1.0
4.050332 1.011418 5.609227 0.500000 0.500000 0.500000 1.0
-4.000582 0.964496 5.579706 0.500000 0.500000 0.500000 1.0
-4.000582 -0.964496 5.579706 0.500000 0.500000 0.500000 1.0
5.042382 -1.093231 5.415749 0.500000 0.500000 0.500000 1.0
5.042382 1.093231 5.415749 0.500000 0.500000 0.500000 1.0
6.063914 -1.049063 5.375822 0.500000 0.500000 0.500000 1.0
6.063914 1.049063 5.375822 0.500000 0.500000 0.500000 1.0
-5.006342 0.963901 5.474512 0.500000 0.500000 0.500000 1.0
-5.006342 -0.963901 5.474512 0.500000 0.500000 0.500000 1.0
-1.201524 -1.526289 4.309021 0.500000 0.500000 0.500000 1.0
-2.046771 0.842939 3.223947 0.500000 0.500000 0.500000 1.0
-2.046771 -0.842939 3.223947 0.500000 0.500000 0.500000 1.0
1.206314 -1.510677 4.164174 0.500000 0.500000 0.500000 1.0
1.206314 1.510677 4.164174 0.500000 0.500000 0.500000 1.0
-2.422623 1.150736 4.422170 0.500000 0.500000 0.500000 1.0
-2.422623 -1.150736 4.422170 0.500000 0.500000 0.500000 1.0
0.009753 -1.661604 3.849015 0.500000 0.500000 0.500000 1.0
0.009753 1.661604 3.849015 0.500000 0.500000 0.500000 1.0
2.430110 1.126612 4.451769 0.500000 0.500000 0.500000 1.0
4.082476 -1.050135 4.854096 0.500000 0.500000 0.500000 1.0
-0.875760 -1.476694 3.383470 0.500000 0.500000 0.500000 1.0
-0.875760 1.476694 3.383470 0.500000 0.500000 0.500000 1.0
-1.462787 -0.803719 1.915285 0.500000 0.500000 0.500000 1.0
-1.462787 0.803719 1.915285 0.500000 0.500000 0.500000 1.0
1.023279 1.453201 3.058088 0.500000 0.500000 0.500000 1.0
1.023279 -1.453201 3.058088 0.500000 0.500000 0.500000 1.0
4.082476 1.050135 4.854096 0.500000 0.500000 0.500000 1.0
-4.022925 0.942397 4.866274 0.500000 0.500000 0.500000 1.0
2.166088 0.000000 3.470427 0.500000 0.500000 0.500000 1.0
1.446919 1.058514 2.706946 0.500000 0.500000 0.500000 1.0
1.446919 -1.058514 2.706946 0.500000 0.500000 0.500000 1.0
0.103474 1.530526 2.859736 0.500000 0.500000 0.500000 1.0
0.103474 -1.530526 2.859736 0.500000 0.500000 0.500000 1.0
1.662195 0.000000 2.511205 0.500000 0.500000 0.500000 1.0
5.034698 -0.750416 3.974448 1.0 1.0 0.0 1.0
5.034698 0.750416 3.974448 1.0 1.0 0.0 1.0
-2.942729 0.000000 3.972189 0.500000 0.500000 0.500000 1.0
-0.520103 -1.336653 2.570833 0.500000 0.500000 0.500000 1.0
-0.520103 1.336653 2.570833 0.500000 0.500000 0.500000 1.0
-4.022925 -0.942397 4.866274 0.500000 0.500000 0.500000 1.0
0.068151 0.000000 1.053561 1.0 1.0 0.0 1.0
0.837491 1.215509 2.147149 0.500000 0.500000 0.500000 1.0
0.837491 -1.215509 2.147149 0.500000 0.500000 0.500000 1.0
2.812145 -0.000000 4.001166 0.500000 0.500000 0.500000 1.0
6.470703 -0.904021 4.803881 0.500000 0.500000 0.500000 1.0
6.470703 0.904021 4.803881 0.500000 0.500000 0.500000 1.0
2.430110 -1.126612 4.451769 0.500000 0.500000 0.500000 1.0
1.686349 1.325729 3.635263 0.500000 0.500000 0.500000 1.0
-5.017744 0.815747 4.581897 1.0 1.0 0.0 1.0
-5.017744 -0.815747 4.581897 1.0 1.0 0.0 1.0
1.152529 0.743213 1.893114 0.500000 0.500000 0.500000 1.0
1.152529 -0.743213 1.893114 0.500000 0.500000 0.500000 1.0
0.068813 1.175727 2.002793 0.500000 0.500000 0.500000 1.0
0.068813 -1.175727 2.002793 0.500000 0.500000 0.500000 1.0
1.686349 -1.325729 3.635263 0.500000 0.500000 0.500000 1.0
-1.201524 1.526289 4.309021 0.500000 0.500000 0.500000 1.0
1.110009 -0.000000 1.749267 0.500000 0.500000 0.500000 1.0
4.082608 -0.000000 4.786767 0.500000 0.500000 0.500000 1.0
-0.240683 -0.758201 1.762754 0.500000 0.500000 0.500000 1.0
-0.240683 0.758201 1.762754 0.500000 0.500000 0.500000 1.0
3 0 1 68
3 0 68 1
3 0 68 67
3 0 67 68
3 1 68 27
3 1 27 68
3 2 35 31
3 2 31 35
3 4 63 3
3 4 3 63
3 4 64 63
3 4 63 64
3 5 32 36
3 5 36 32
3 6 65 10
3 6 10 65
3 7 32 5
3 7 5 32
3 7 37 32
3 7 32 37
3 9 28 2
3 9 2 28
3 11 37 7
3 11 7 37
3 12 8 33
3 12 33 8
3 13 17 34
3 13 34 17
3 13 34 9
3 13 9 34
3 15 37 11
3 15 11 37
3 15 37 45
3 15 45 37
3 16 33 12
3 16 12 33
3 16 46 20
3 16 20 46
3 16 46 33
3 16 33 46
3 17 58 34
3 17 34 58
3 18 38 22
3 18 22 38
3 19 45 15
3 19 15 45
3 20 26 46
3 20 46 26
3 21 58 17
3 21 17 58
3 23 19 45
3 23 45 19
3 23 54 45
3 23 45 54
3 24 53 22
3 24 22 53
3 24 63 53
3 24 53 63
3 25 23 54
3 25 54 23
3 25 54 64
3 25 64 54
3 26 67 0
3 26 0 67
3 27 21 58
3 27 58 21
3 27 58 68
3 27 68 58
3 28 34 9
3 28 9 34
3 28 39 34
3 28 34 39
3 28 39 35
3 28 35 39
3 29 30 55
3 29 55 30
3 29 33 40
3 29 40 33
3 29 55 33
3 29 33 55
3 29 57 40
3 29 40 57
3 30 29 42
3 30 42 29
3 30 34 39
3 30 39 34
3 30 42 41
3 30 41 42
3 31 6 2
3 31 2 6
3 31 6 65
3 31 65 6
3 31 35 44
3 31 44 35
3 31 65 73
3 31 73 65
3 32 37 66
3 32 66 37
3 33 46 55
3 33 55 46
3 34 30 55
3 34 55 30
3 34 55 58
3 34 58 55
3 35 28 2
3 35 2 28
3 35 44 51
3 35 51 44
3 36 32 43
3 36 43 32
3 36 40 50
3 36 50 40
3 36 50 43
3 36 43 50
3 36 74 40
3 36 40 74
3 37 45 62
3 37 62 45
3 37 47 66
3 37 66 47
3 37 62 47
3 37 47 62
3 38 14 18
3 38 18 14
3 38 53 22
3 38 22 53
3 38 62 65
3 38 65 62
3 38 65 14
3 38 14 65
3 38 76 62
3 38 62 76
3 39 30 56
3 39 56 30
3 39 51 56
3 39 56 51
3 40 33 74
3 40 74 33
3 41 56 77
3 41 77 56
3 42 57 29
3 42 29 57
3 42 59 41
3 42 41 59
3 43 48 60
3 43 60 48
3 43 60 50
3 43 50 60
3 43 66 48
3 43 48 66
3 44 49 73
3 44 73 49
3 44 51 61
3 44 61 51
3 44 61 49
3 44 49 61
3 44 73 31
3 44 31 73
3 45 76 54
3 45 54 76
3 45 76 62
3 45 62 76
3 46 26 67
3 46 67 26
3 46 58 68
3 46 68 58
3 46 68 67
3 46 67 68
3 47 48 52
3 47 52 48
3 47 49 52
3 47 52 49
3 47 65 62
3 47 62 65
3 47 66 48
3 47 48 66
3 48 69 52
3 48 52 69
3 48 69 60
3 48 60 69
3 49 70 61
3 49 61 70
3 49 73 47
3 49 47 73
3 50 57 40
3 50 40 57
3 50 60 71
3 50 71 60
3 50 71 57
3 50 57 71
3 51 39 35
3 51 35 39
3 51 56 72
3 51 72 56
3 51 72 61
3 51 61 72
3 52 75 69
3 52 69 75
3 53 76 38
3 53 38 76
3 54 53 63
3 54 63 53
3 54 63 64
3 54 64 63
3 55 58 46
3 55 46 58
3 56 30 41
3 56 41 30
3 57 78 42
3 57 42 78
3 59 60 69
3 59 69 60
3 59 61 72
3 59 72 61
3 59 69 75
3 59 75 69
3 59 72 77
3 59 77 72
3 59 75 70
3 59 70 75
3 59 77 41
3 59 41 77
3 59 78 71
3 59 71 78
3 61 70 59
3 61 59 70
3 63 24 3
3 63 3 24
3 64 4 25
3 64 25 4
3 65 10 14
3 65 14 10
3 66 43 32
3 66 32 43
3 70 52 49
3 70 49 52
3 70 75 52
3 70 52 75
3 71 60 59
3 71 59 60
3 73 65 47
3 73 47 65
3 74 8 5
3 74 5 8
3 74 33 8
3 74 8 33
3 74 36 5
3 74 5 36
3 76 53 54
3 76 54 53
3 77 72 56
3 77 56 72
3 78 42 59
3 78 59 42
3 78 57 71
3 78 71 57
