# Generated by dad_to_polygons. Vertex data from Humppa's .off file,
# polygons parsed from .dad file.
COFF
103 348 103
-6.509840 1.050920 6.040023 0.500000 0.500000 0.500000 1.0
-6.509840 -1.050920 6.040023 0.500000 0.500000 0.500000 1.0
-0.028009 -2.031170 5.769065 0.500000 0.500000 0.500000 1.0
7.387640 -1.004734 6.070452 0.500000 0.500000 0.500000 1.0
7.387640 1.004734 6.070452 0.500000 0.500000 0.500000 1.0
-0.028009 2.031170 5.769065 0.500000 0.500000 0.500000 1.0
1.112958 -1.653764 5.974779 0.500000 0.500000 0.500000 1.0
1.112958 1.653764 5.974779 0.500000 0.500000 0.500000 1.0
-1.141044 1.649441 5.931714 0.500000 0.500000 0.500000 1.0
-1.141044 -1.649441 5.931714 0.500000 0.500000 0.500000 1.0
1.996390 -1.292848 6.279286 0.500000 0.500000 0.500000 1.0
1.996390 1.292848 6.279286 0.500000 0.500000 0.500000 1.0
-2.033714 1.316423 6.235611 0.500000 0.500000 0.500000 1.0
-2.033714 -1.316423 6.235611 0.500000 0.500000 0.500000 1.0
3.055759 -1.205843 6.292090 0.500000 0.500000 0.500000 1.0
3.055759 1.205843 6.292090 0.500000 0.500000 0.500000 1.0
-3.026218 1.199516 6.223538 0.500000 0.500000 0.500000 1.0
-3.026218 -1.199516 6.223538 0.500000 0.500000 0.500000 1.0
4.053894 -1.152674 6.308345 0.500000 0.500000 0.500000 1.0
4.053894 1.152674 6.308345 0.500000 0.500000 0.500000 1.0
-4.019774 1.111723 6.291953 0.500000 0.500000 0.500000 1.0
-4.019774 -1.111723 6.291953 0.500000 0.500000 0.500000 1.0
5.061658 -1.321622 6.017469 0.500000 0.500000 0.500000 1.0
5.061658 1.321622 6.017469 0.500000 0.500000 0.500000 1.0
6.089525 -1.269733 5.992951 0.500000 0.500000 0.500000 1.0
6.089525 1.269733 5.992951 0.500000 0.500000 0.500000 1.0
-5.005425 1.207969 6.059903 0.500000 0.500000 0.500000 1.0
-5.005425 -1.207969 6.059903 0.500000 0.500000 0.500000 1.0
-7.268661 0.000000 6.023194 0.500000 0.500000 0.500000 1.0
7.510620 0.000000 6.070540 0.500000 0.500000 0.500000 1.0
-2.146348 -0.922703 3.821183 0.500000 0.500000 0.500000 1.0
1.251617 -1.603092 4.847238 0.500000 0.500000 0.500000 1.0
1.251617 1.603092 4.847238 0.500000 0.500000 0.500000 1.0
-2.479883 1.250924 5.111415 0.500000 0.500000 0.500000 1.0
-2.479883 -1.250924 5.111415 0.500000 0.500000 0.500000 1.0
0.015488 -1.750887 4.490479 0.500000 0.500000 0.500000 1.0
0.015488 1.750874 4.490479 0.500000 0.500000 0.500000 1.0
2.495105 1.235468 5.127520 0.500000 0.500000 0.500000 1.0
4.099434 -1.184491 5.456996 0.500000 0.500000 0.500000 1.0
-0.991941 -1.563749 4.060890 0.500000 0.500000 0.500000 1.0
-0.991941 1.563749 4.060890 0.500000 0.500000 0.500000 1.0
-1.552714 -0.947246 2.386352 0.500000 0.500000 0.500000 1.0
-1.552713 0.947246 2.386352 0.500000 0.500000 0.500000 1.0
1.099354 1.548300 3.687732 0.500000 0.500000 0.500000 1.0
1.099354 -1.548300 3.687732 0.500000 0.500000 0.500000 1.0
4.099434 1.184491 5.456996 0.500000 0.500000 0.500000 1.0
-4.034636 1.125413 5.524002 0.500000 0.500000 0.500000 1.0
2.349678 0.000000 4.093813 0.500000 0.500000 0.500000 1.0
1.555590 1.163020 3.300525 0.500000 0.500000 0.500000 1.0
1.555590 -1.163020 3.300525 0.500000 0.500000 0.500000 1.0
0.115156 1.623236 3.450383 0.500000 0.500000 0.500000 1.0
0.115200 -1.623366 3.450383 0.500000 0.500000 0.500000 1.0
1.818834 0.000000 3.027356 0.500000 0.500000 0.500000 1.0
5.069111 -0.750429 3.974448 1.0 1.0 0.0 1.0
5.069111 0.750429 3.974448 1.0 1.0 0.0 1.0
-3.206637 0.000000 4.573637 0.500000 0.500000 0.500000 1.0
-0.719918 -1.437682 3.206069 0.500000 0.500000 0.500000 1.0
-0.719918 1.437682 3.206068 0.500000 0.500000 0.500000 1.0
-4.034636 -1.125413 5.524002 0.500000 0.500000 0.500000 1.0
0.145586 0.000000 1.053561 1.0 1.0 0.0 1.0
0.982852 1.405768 2.720168 0.500000 0.500000 0.500000 1.0
0.982852 -1.405768 2.720168 0.500000 0.500000 0.500000 1.0
3.082140 0.000000 4.435803 0.500000 0.500000 0.500000 1.0
6.701778 -1.133003 5.400988 0.500000 0.500000 0.500000 1.0
6.701778 1.133003 5.400988 0.500000 0.500000 0.500000 1.0
2.495105 -1.235468 5.127520 0.500000 0.500000 0.500000 1.0
1.746390 1.419818 4.283306 0.500000 0.500000 0.500000 1.0
-5.007884 0.815402 4.581897 1.0 1.0 0.0 1.0
-5.007884 -0.815402 4.581897 1.0 1.0 0.0 1.0
1.347061 0.933188 2.361588 0.500000 0.500000 0.500000 1.0
1.347061 -0.933188 2.361588 0.500000 0.500000 0.500000 1.0
0.193685 1.447985 2.473500 0.500000 0.500000 0.500000 1.0
0.193684 -1.447985 2.473500 0.500000 0.500000 0.500000 1.0
1.746390 -1.419818 4.283306 0.500000 0.500000 0.500000 1.0
-1.234927 1.615536 5.000599 0.500000 0.500000 0.500000 1.0
1.513895 0.000000 2.205435 0.500000 0.500000 0.500000 1.0
4.118490 0.000000 5.293478 0.500000 0.500000 0.500000 1.0
-0.389440 -1.280593 2.144271 0.500000 0.500000 0.500000 1.0
-0.389439 1.280593 2.144271 0.500000 0.500000 0.500000 1.0
-1.259032 -0.638476 1.611577 0.500000 0.500000 0.500000 1.0
-1.259032 0.638476 1.611578 0.500000 0.500000 0.500000 1.0
-4.034444 -0.000000 5.349045 0.500000 0.500000 0.500000 1.0
0.751894 1.027913 1.879751 0.500000 0.500000 0.500000 1.0
0.751894 -1.027913 1.879751 0.500000 0.500000 0.500000 1.0
5.743949 -1.178984 5.103020 0.500000 0.500000 0.500000 1.0
5.743949 1.178984 5.103020 0.500000 0.500000 0.500000 1.0
6.862259 0.000000 5.267908 0.500000 0.500000 0.500000 1.0
6.176412 -0.437033 4.523271 0.500000 0.500000 0.500000 1.0
6.176412 0.437033 4.523271 0.500000 0.500000 0.500000 1.0
6.065167 -0.945731 4.694731 0.500000 0.500000 0.500000 1.0
6.065167 0.945731 4.694731 0.500000 0.500000 0.500000 1.0
-1.234927 -1.615536 5.000599 0.500000 0.500000 0.500000 1.0
-5.888217 0.445677 5.243034 0.500000 0.500000 0.500000 1.0
-5.888217 -0.445677 5.243034 0.500000 0.500000 0.500000 1.0
5.041018 -1.128602 5.036975 0.500000 0.500000 0.500000 1.0
5.041018 1.128602 5.036975 0.500000 0.500000 0.500000 1.0
-5.843977 0.938982 5.339228 0.500000 0.500000 0.500000 1.0
-5.843977 -0.938982 5.339228 0.500000 0.500000 0.500000 1.0
0.160889 0.768732 1.751380 0.500000 0.500000 0.500000 1.0
0.160888 -0.768732 1.751380 0.500000 0.500000 0.500000 1.0
-2.146348 0.922703 3.821183 0.500000 0.500000 0.500000 1.0
0.761660 0.469071 1.704649 0.500000 0.500000 0.500000 1.0
0.761660 -0.469071 1.704649 0.500000 0.500000 0.500000 1.0
3 0 26 96
3 0 96 26
3 0 96 28
3 0 28 96
3 2 6 31
3 2 31 6
3 2 31 35
3 2 35 31
3 2 91 35
3 2 35 91
3 3 63 24
3 3 24 63
3 4 86 29
3 4 29 86
3 4 86 64
3 4 64 86
3 5 8 74
3 5 74 8
3 5 36 32
3 5 32 36
3 6 31 65
3 6 65 31
3 6 65 10
3 6 10 65
3 7 32 5
3 7 5 32
3 7 37 32
3 7 32 37
3 9 13 34
3 9 34 13
3 11 15 37
3 11 37 15
3 11 37 7
3 11 7 37
3 12 8 33
3 12 33 8
3 13 34 17
3 13 17 34
3 14 65 10
3 14 10 65
3 16 20 46
3 16 46 20
3 18 14 38
3 18 38 14
3 18 38 22
3 18 22 38
3 19 15 45
3 19 45 15
3 21 58 17
3 21 17 58
3 22 38 94
3 22 94 38
3 24 22 84
3 24 84 22
3 24 84 63
3 24 63 84
3 25 4 64
3 25 64 4
3 25 64 85
3 25 85 64
3 25 85 23
3 25 23 85
3 26 46 20
3 26 20 46
3 26 96 67
3 26 67 96
3 27 21 58
3 27 58 21
3 27 68 58
3 27 58 68
3 27 97 1
3 27 1 97
3 28 92 93
3 28 93 92
3 28 92 96
3 28 96 92
3 28 97 93
3 28 93 97
3 29 3 86
3 29 86 3
3 30 34 55
3 30 55 34
3 30 39 34
3 30 34 39
3 30 42 41
3 30 41 42
3 30 56 39
3 30 39 56
3 30 100 42
3 30 42 100
3 31 44 35
3 31 35 44
3 31 73 44
3 31 44 73
3 31 73 65
3 31 65 73
3 32 37 66
3 32 66 37
3 32 43 66
3 32 66 43
3 33 12 16
3 33 16 12
3 33 40 74
3 33 74 40
3 33 55 46
3 33 46 55
3 33 100 40
3 33 40 100
3 33 100 55
3 33 55 100
3 34 58 17
3 34 17 58
3 34 91 9
3 34 9 91
3 34 91 39
3 34 39 91
3 35 51 39
3 35 39 51
3 36 40 50
3 36 50 40
3 36 43 50
3 36 50 43
3 37 45 15
3 37 15 45
3 37 62 45
3 37 45 62
3 37 62 47
3 37 47 62
3 38 62 76
3 38 76 62
3 38 65 62
3 38 62 65
3 38 76 53
3 38 53 76
3 40 74 36
3 40 36 74
3 41 56 30
3 41 30 56
3 41 77 56
3 41 56 77
3 41 79 80
3 41 80 79
3 41 80 42
3 41 42 80
3 42 100 57
3 42 57 100
3 43 32 36
3 43 36 32
3 43 48 60
3 43 60 48
3 43 50 60
3 43 60 50
3 44 35 51
3 44 51 35
3 44 61 49
3 44 49 61
3 44 61 51
3 44 51 61
3 44 73 49
3 44 49 73
3 45 23 19
3 45 19 23
3 45 54 76
3 45 76 54
3 45 54 95
3 45 95 54
3 45 95 23
3 45 23 95
3 46 16 33
3 46 33 16
3 46 67 26
3 46 26 67
3 46 67 81
3 46 81 67
3 47 52 49
3 47 49 52
3 47 65 73
3 47 73 65
3 47 73 49
3 47 49 73
3 48 52 47
3 48 47 52
3 48 66 43
3 48 43 66
3 48 66 47
3 48 47 66
3 48 69 60
3 48 60 69
3 49 52 70
3 49 70 52
3 49 70 61
3 49 61 70
3 50 40 57
3 50 57 40
3 51 39 56
3 51 56 39
3 51 72 61
3 51 61 72
3 52 48 69
3 52 69 48
3 52 69 75
3 52 75 69
3 53 54 76
3 53 76 54
3 53 84 94
3 53 94 84
3 53 89 84
3 53 84 89
3 54 87 53
3 54 53 87
3 54 88 87
3 54 87 88
3 54 88 90
3 54 90 88
3 54 95 85
3 54 85 95
3 55 30 100
3 55 100 30
3 55 58 34
3 55 34 58
3 55 81 46
3 55 46 81
3 55 81 58
3 55 58 81
3 56 72 51
3 56 51 72
3 57 50 71
3 57 71 50
3 57 71 78
3 57 78 71
3 58 68 81
3 58 81 68
3 59 75 101
3 59 101 75
3 59 79 80
3 59 80 79
3 59 82 98
3 59 98 82
3 59 98 78
3 59 78 98
3 59 99 77
3 59 77 99
3 59 102 75
3 59 75 102
3 60 71 50
3 60 50 71
3 60 82 71
3 60 71 82
3 61 70 83
3 61 83 70
3 61 72 83
3 61 83 72
3 62 47 65
3 62 65 47
3 62 76 45
3 62 45 76
3 63 3 86
3 63 86 3
3 64 86 90
3 64 90 86
3 65 14 38
3 65 38 14
3 66 47 37
3 66 37 47
3 68 27 97
3 68 97 27
3 68 67 92
3 68 92 67
3 68 81 67
3 68 67 81
3 68 92 93
3 68 93 92
3 69 82 60
3 69 60 82
3 69 101 75
3 69 75 101
3 69 101 82
3 69 82 101
3 70 75 52
3 70 52 75
3 72 77 56
3 72 56 77
3 72 77 99
3 72 99 77
3 72 99 83
3 72 83 99
3 74 8 33
3 74 33 8
3 74 36 5
3 74 5 36
3 75 70 102
3 75 102 70
3 77 41 79
3 77 79 41
3 77 79 59
3 77 59 79
3 78 42 57
3 78 57 42
3 78 59 80
3 78 80 59
3 78 71 98
3 78 98 71
3 78 80 42
3 78 42 80
3 84 63 89
3 84 89 63
3 84 94 22
3 84 22 94
3 85 23 95
3 85 95 23
3 85 64 90
3 85 90 64
3 86 87 88
3 86 88 87
3 86 89 63
3 86 63 89
3 87 86 89
3 87 89 86
3 87 89 53
3 87 53 89
3 90 54 85
3 90 85 54
3 90 88 86
3 90 86 88
3 91 2 9
3 91 9 2
3 91 39 35
3 91 35 39
3 94 38 53
3 94 53 38
3 96 92 67
3 96 67 92
3 97 28 1
3 97 1 28
3 97 93 68
3 97 68 93
3 98 71 82
3 98 82 71
3 99 59 83
3 99 83 59
3 100 40 57
3 100 57 40
3 101 82 59
3 101 59 82
3 102 59 83
3 102 83 59
3 102 83 70
3 102 70 83
