 COFF
         103        1008         103
  
  -6.5098404757167181        1.0509195565853371        6.0400225702502288       0.60000002384185791       0.60000002384185791       0.60000002384185791       0.80000001192092896     
  -6.5098404757157464       -1.0509195565843465        6.0400225702515433       0.60000002384185791       0.60000002384185791       0.60000002384185791       0.80000001192092896     
  -2.8008925173501117E-002  -2.0311703406669688        5.7690645997750929       0.60000002384185791       0.60000002384185791       0.60000002384185791       0.80000001192092896     
   7.3876403454770445       -1.0047336130161884        6.0704521036181163       0.60000002384185791       0.60000002384185791       0.60000002384185791       0.80000001192092896     
   7.3876403454776991        1.0047336130166966        6.0704521036172929       0.60000002384185791       0.60000002384185791       0.60000002384185791       0.80000001192092896     
  -2.8008925173036214E-002   2.0311703407524475        5.7690645996864456       0.60000002384185791       0.60000002384185791       0.60000002384185791       0.80000001192092896     
   1.1129576161225996       -1.6537643870508587        5.9747792297420563       0.60000002384185791       0.60000002384185791       0.60000002384185791       0.80000001192092896     
   1.1129576161466037        1.6537643871095287        5.9747792296769289       0.60000002384185791       0.60000002384185791       0.60000002384185791       0.80000001192092896     
  -1.1410437555681276        1.6494406815282676        5.9317144335739957       0.60000002384185791       0.60000002384185791       0.60000002384185791       0.80000001192092896     
  -1.1410437554902644       -1.6494406812956461        5.9317144338232470       0.60000002384185791       0.60000002384185791       0.60000002384185791       0.80000001192092896     
   1.9963898036808334       -1.2928484990214477        6.2792864924093017       0.60000002384185791       0.60000002384185791       0.60000002384185791       0.80000001192092896     
   1.9963898036901195        1.2928484990520177        6.2792864923769471       0.60000002384185791       0.60000002384185791       0.60000002384185791       0.80000001192092896     
  -2.0337136355609022        1.3164232505831703        6.2356110024859444       0.60000002384185791       0.60000002384185791       0.60000002384185791       0.80000001192092896     
  -2.0337136355550096       -1.3164232504424114        6.2356110026273095       0.60000002384185791       0.60000002384185791       0.60000002384185791       0.80000001192092896     
   3.0557589938061458       -1.2058430422870092        6.2920903935162977       0.60000002384185791       0.60000002384185791       0.60000002384185791       0.80000001192092896     
   3.0557589938612133        1.2058430422643134        6.2920903937070536       0.60000002384185791       0.60000002384185791       0.60000002384185791       0.80000001192092896     
  -3.0262178304304883        1.1995164901576767        6.2235379658648329       0.60000002384185791       0.60000002384185791       0.60000002384185791       0.80000001192092896     
  -3.0262178304325769       -1.1995164900554884        6.2235379661152503       0.60000002384185791       0.60000002384185791       0.60000002384185791       0.80000001192092896     
   4.0538943065147226       -1.1526740256958175        6.3083446038741471       0.60000002384185791       0.60000002384185791       0.60000002384185791       0.80000001192092896     
   4.0538943065593260        1.1526740256174672        6.3083446039530511       0.60000002384185791       0.60000002384185791       0.60000002384185791       0.80000001192092896     
  -4.0197744646861224        1.1117234555470690        6.2919534704012934       0.60000002384185791       0.60000002384185791       0.60000002384185791       0.80000001192092896     
  -4.0197744647075719       -1.1117234555047026        6.2919534704296884       0.60000002384185791       0.60000002384185791       0.60000002384185791       0.80000001192092896     
   5.0616580510706877       -1.3216215664762476        6.0174686882727650       0.60000002384185791       0.60000002384185791       0.60000002384185791       0.80000001192092896     
   5.0616580553505361        1.3216215666159181        6.0174686908178927       0.60000002384185791       0.60000002384185791       0.60000002384185791       0.80000001192092896     
   6.0895246401880563       -1.2697333436316176        5.9929507680175096       0.60000002384185791       0.60000002384185791       0.60000002384185791       0.80000001192092896     
   6.0895246402080430        1.2697333436251399        5.9929507680143725       0.60000002384185791       0.60000002384185791       0.60000002384185791       0.80000001192092896     
  -5.0054249667317041        1.2079689701202407        6.0599033770474531       0.60000002384185791       0.60000002384185791       0.60000002384185791       0.80000001192092896     
  -5.0054249667302191       -1.2079689701100247        6.0599033770577071       0.60000002384185791       0.60000002384185791       0.60000002384185791       0.80000001192092896     
  -7.2686612427840274        9.0148321200600190E-014   6.0231937750464981       0.60000002384185791       0.60000002384185791       0.60000002384185791       0.80000001192092896     
   7.5106203902227886        2.2557778757541242E-013   6.0705400729964580       0.60000002384185791       0.60000002384185791       0.60000002384185791       0.80000001192092896     
  -2.1463481594216063      -0.92270273517396650        3.8211831907971274       0.60000002384185791       0.60000002384185791       0.60000002384185791       0.80000001192092896     
   1.2516167526080895       -1.6030918503662799        4.8472378673585848       0.60000002384185791       0.60000002384185791       0.60000002384185791       0.80000001192092896     
   1.2516167524915438        1.6030918399395739        4.8472378673467338       0.60000002384185791       0.60000002384185791       0.60000002384185791       0.80000001192092896     
  -2.4798828029010407        1.2509241866852099        5.1114150157362763       0.60000002384185791       0.60000002384185791       0.60000002384185791       0.80000001192092896     
  -2.4798828032259639       -1.2509241873963959        5.1114150160299818       0.60000002384185791       0.60000002384185791       0.60000002384185791       0.80000001192092896     
   1.5487811500784810E-002  -1.7508872588458300        4.4904786523589975       0.60000002384185791       0.60000002384185791       0.60000002384185791       0.80000001192092896     
   1.5488310831444200E-002   1.7508743149729402        4.4904786505418404       0.60000002384185791       0.60000002384185791       0.60000002384185791       0.80000001192092896     
   2.4951054507137620        1.2354680234675552        5.1275202745434685       0.60000002384185791       0.60000002384185791       0.60000002384185791       0.80000001192092896     
   4.0994338264147867       -1.1844912133078469        5.4569957560457416       0.60000002384185791       0.60000002384185791       0.60000002384185791       0.80000001192092896     
 -0.99194067565341615       -1.5637492840328824        4.0608901577340388       0.60000002384185791       0.60000002384185791       0.60000002384185791       0.80000001192092896     
 -0.99194061082442009        1.5637490933303841        4.0608901534577804       0.60000002384185791       0.60000002384185791       0.60000002384185791       0.80000001192092896     
  -1.5527135248207262      -0.94724608818897449        2.3863515985969901       0.60000002384185791       0.60000002384185791       0.60000002384185791       0.80000001192092896     
  -1.5527134331614423       0.94724619424677092        2.3863516947290524       0.60000002384185791       0.60000002384185791       0.60000002384185791       0.80000001192092896     
   1.0993541280676233        1.5482999343835002        3.6877321709941651       0.60000002384185791       0.60000002384185791       0.60000002384185791       0.80000001192092896     
   1.0993539806395982       -1.5483000687224491        3.6877322187312487       0.60000002384185791       0.60000002384185791       0.60000002384185791       0.80000001192092896     
   4.0994338306382740        1.1844912205568863        5.4569957504318403       0.60000002384185791       0.60000002384185791       0.60000002384185791       0.80000001192092896     
  -4.0346359616904701        1.1254126246879985        5.5240023483664444       0.60000002384185791       0.60000002384185791       0.60000002384185791       0.80000001192092896     
   2.3496779907036114        2.7773998721563225E-009   4.0938127790584096       0.60000002384185791       0.60000002384185791       0.60000002384185791       0.80000001192092896     
   1.5555901747535770        1.1630198968138028        3.3005249640974812       0.60000002384185791       0.60000002384185791       0.60000002384185791       0.80000001192092896     
   1.5555901461425143       -1.1630199021406775        3.3005249659064901       0.60000002384185791       0.60000002384185791       0.60000002384185791       0.80000001192092896     
  0.11515569518134953        1.6232357380197722        3.4503833588142925       0.60000002384185791       0.60000002384185791       0.60000002384185791       0.80000001192092896     
  0.11519968381277890       -1.6233664309689897        3.4503833907958734       0.60000002384185791       0.60000002384185791       0.60000002384185791       0.80000001192092896     
   1.8188343706089820        5.4471692459411175E-009   3.0273563272026007       0.60000002384185791       0.60000002384185791       0.60000002384185791       0.80000001192092896     
   5.0691111551617425      -0.75042888846136024        3.9744481212396505        1.0000000000000000        1.0000000000000000        0.0000000000000000        1.0000000000000000     
   5.0691111554143040       0.75042889006296665        3.9744481212396501        1.0000000000000000        1.0000000000000000        0.0000000000000000        1.0000000000000000     
  -3.2066370820976853        9.8268922591293865E-011   4.5736371385304606       0.60000002384185791       0.60000002384185791       0.60000002384185791       0.80000001192092896     
 -0.71991780189975374       -1.4376817241848674        3.2060686339999895       0.60000002384185791       0.60000002384185791       0.60000002384185791       0.80000001192092896     
 -0.71991774805776776        1.4376822816466199        3.2060684918007940       0.60000002384185791       0.60000002384185791       0.60000002384185791       0.80000001192092896     
  -4.0346359616591423       -1.1254126245573925        5.5240023483209901       0.60000002384185791       0.60000002384185791       0.60000002384185791       0.80000001192092896     
  0.14558562598929123        1.0664539743749697E-008   1.0535609148389919        1.0000000000000000        1.0000000000000000        0.0000000000000000        1.0000000000000000     
  0.98285238732654867        1.4057680061056574        2.7201683726019410       0.60000002384185791       0.60000002384185791       0.60000002384185791       0.80000001192092896     
  0.98285204948195581       -1.4057675629067616        2.7201684112226112       0.60000002384185791       0.60000002384185791       0.60000002384185791       0.80000001192092896     
   3.0821395056232030        5.0155088111011780E-009   4.4358034480016517       0.60000002384185791       0.60000002384185791       0.60000002384185791       0.80000001192092896     
   6.7017783041825769       -1.1330032600668734        5.4009876674913730       0.60000002384185791       0.60000002384185791       0.60000002384185791       0.80000001192092896     
   6.7017783043242467        1.1330032601042805        5.4009876675839950       0.60000002384185791       0.60000002384185791       0.60000002384185791       0.80000001192092896     
   2.4951054502023484       -1.2354680222490206        5.1275202744549704       0.60000002384185791       0.60000002384185791       0.60000002384185791       0.80000001192092896     
   1.7463898998237755        1.4198177564274999        4.2833056773926694       0.60000002384185791       0.60000002384185791       0.60000002384185791       0.80000001192092896     
  -5.0078841729532293       0.81540231338195346        4.5818974327962696        1.0000000000000000        1.0000000000000000        0.0000000000000000        1.0000000000000000     
  -5.0078841729517256      -0.81540231339667146        4.5818974327962705        1.0000000000000000        1.0000000000000000        0.0000000000000000        1.0000000000000000     
   1.3470613800693696       0.93318816077415578        2.3615878178536391       0.60000002384185791       0.60000002384185791       0.60000002384185791       0.80000001192092896     
   1.3470612389038656      -0.93318816207511945        2.3615878285806344       0.60000002384185791       0.60000002384185791       0.60000002384185791       0.80000001192092896     
  0.19368535867602407        1.4479847410147315        2.4734996847036901       0.60000002384185791       0.60000002384185791       0.60000002384185791       0.80000001192092896     
  0.19368405821458559       -1.4479845415569408        2.4734998106297632       0.60000002384185791       0.60000002384185791       0.60000002384185791       0.80000001192092896     
   1.7463898737019665       -1.4198177622177790        4.2833056280857775       0.60000002384185791       0.60000002384185791       0.60000002384185791       0.80000001192092896     
  -1.2349272187486922        1.6155355445129049        5.0005994175807826       0.60000002384185791       0.60000002384185791       0.60000002384185791       0.80000001192092896     
   1.5138952996519568        2.5816206136802760E-008   2.2054345969078462       0.60000002384185791       0.60000002384185791       0.60000002384185791       0.80000001192092896     
   4.1184897814283170        2.8245935446460806E-008   5.2934778128827409       0.60000002384185791       0.60000002384185791       0.60000002384185791       0.80000001192092896     
 -0.38943953387970864       -1.2805930320020649        2.1442708325340716       0.60000002384185791       0.60000002384185791       0.60000002384185791       0.80000001192092896     
 -0.38943945250851980        1.2805930911349603        2.1442708065408245       0.60000002384185791       0.60000002384185791       0.60000002384185791       0.80000001192092896     
  -1.2590322045055089      -0.63847551697854699        1.6115774998914090       0.60000002384185791       0.60000002384185791       0.60000002384185791       0.80000001192092896     
  -1.2590321882199766       0.63847556335684585        1.6115775346138699       0.60000002384185791       0.60000002384185791       0.60000002384185791       0.80000001192092896     
  -4.0344436357507210       -8.9261685550912157E-011   5.3490451533883627       0.60000002384185791       0.60000002384185791       0.60000002384185791       0.80000001192092896     
  0.75189427075185855        1.0279134663400662        1.8797511945191561       0.60000002384185791       0.60000002384185791       0.60000002384185791       0.80000001192092896     
  0.75189412910039921       -1.0279133809894807        1.8797512186060554       0.60000002384185791       0.60000002384185791       0.60000002384185791       0.80000001192092896     
   5.7439491267772800       -1.1789843266212205        5.1030202831102605       0.60000002384185791       0.60000002384185791       0.60000002384185791       0.80000001192092896     
   5.7439491270516738        1.1789843264355575        5.1030202828154385       0.60000002384185791       0.60000002384185791       0.60000002384185791       0.80000001192092896     
   6.8622592943062202        2.6042519283938387E-012   5.2679076132296192       0.60000002384185791       0.60000002384185791       0.60000002384185791       0.80000001192092896     
   6.1764123703992144      -0.43703325488538092        4.5232711954711720       0.60000002384185791       0.60000002384185791       0.60000002384185791       0.80000001192092896     
   6.1764123704614775       0.43703325465538073        4.5232711954546954       0.60000002384185791       0.60000002384185791       0.60000002384185791       0.80000001192092896     
   6.0651665823108090      -0.94573083026546845        4.6947305147164720       0.60000002384185791       0.60000002384185791       0.60000002384185791       0.80000001192092896     
   6.0651665822957481       0.94573083067132102        4.6947305147335383       0.60000002384185791       0.60000002384185791       0.60000002384185791       0.80000001192092896     
  -1.2349272225949501       -1.6155355558623530        5.0005994184408395       0.60000002384185791       0.60000002384185791       0.60000002384185791       0.80000001192092896     
  -5.8882171493475335       0.44567702937634052        5.2430342877656502       0.60000002384185791       0.60000002384185791       0.60000002384185791       0.80000001192092896     
  -5.8882171493469109      -0.44567702938129333        5.2430342877656502       0.60000002384185791       0.60000002384185791       0.60000002384185791       0.80000001192092896     
   5.0410181027484011       -1.1286024931361307        5.0369750784537413       0.60000002384185791       0.60000002384185791       0.60000002384185791       0.80000001192092896     
   5.0410181051183374        1.1286024943774744        5.0369750794684931       0.60000002384185791       0.60000002384185791       0.60000002384185791       0.80000001192092896     
  -5.8439768702101658       0.93898152215222264        5.3392281303223754       0.60000002384185791       0.60000002384185791       0.60000002384185791       0.80000001192092896     
  -5.8439768702073405      -0.93898152215690234        5.3392281303239368       0.60000002384185791       0.60000002384185791       0.60000002384185791       0.80000001192092896     
  0.16088882902259383       0.76873226290398056        1.7513801213172528       0.60000002384185791       0.60000002384185791       0.60000002384185791       0.80000001192092896     
  0.16088820263580039      -0.76873225762469133        1.7513801826351965       0.60000002384185791       0.60000002384185791       0.60000002384185791       0.80000001192092896     
  -2.1463481459979148       0.92270274225726534        3.8211831919639070       0.60000002384185791       0.60000002384185791       0.60000002384185791       0.80000001192092896     
  0.76166007143832481       0.46907099594579454        1.7046487255423926       0.60000002384185791       0.60000002384185791       0.60000002384185791       0.80000001192092896     
  0.76165998197596363      -0.46907100126308238        1.7046487311872556       0.60000002384185791       0.60000002384185791       0.60000002384185791       0.80000001192092896     
  
   3   0  26  96
   3   0  96  26
   3   0  96  28
   3   0  28  96
   3   1  28  97
   3   1  97  28
   3   1  97  27
   3   1  27  97
   3   2  35  91
   3   2  35  31
   3   2  31  35
   3   2  31   6
   3   2   6  31
   3   2   9  91
   3   2  91  35
   3   2  91   9
   3   3  29  86
   3   3  24  63
   3   3  63  24
   3   3  63  86
   3   3  86  29
   3   3  86  63
   3   4  29  86
   3   4  86  64
   3   4  86  29
   3   4  64  86
   3   4  64  25
   3   4  25  64
   3   5   7  32
   3   5  32  36
   3   5  32   7
   3   5  36  32
   3   5  36  74
   3   5  74  36
   3   5  74   8
   3   5   8  74
   3   6   2  31
   3   6  31   2
   3   6  31  65
   3   6  65  10
   3   6  65  31
   3   6  10  65
   3   7  11  37
   3   7  37  32
   3   7  37  11
   3   7  32  37
   3   7  32   5
   3   7   5  32
   3   8   5  74
   3   8  74   5
   3   8  74  33
   3   8  33  12
   3   8  33  74
   3   8  12  33
   3   9  13  34
   3   9  34  91
   3   9  34  13
   3   9  91  34
   3   9  91   2
   3   9   2  91
   3  10   6  65
   3  10  65  14
   3  10  65   6
   3  10  14  65
   3  11  15  37
   3  11  37   7
   3  11  37  15
   3  11   7  37
   3  12   8  33
   3  12  33  16
   3  12  33   8
   3  12  16  33
   3  13  17  34
   3  13  34   9
   3  13  34  17
   3  13   9  34
   3  14  10  65
   3  14  65  38
   3  14  65  10
   3  14  38  18
   3  14  38  65
   3  14  18  38
   3  15  19  45
   3  15  45  37
   3  15  45  19
   3  15  37  45
   3  15  37  11
   3  15  11  37
   3  16  12  33
   3  16  33  46
   3  16  33  12
   3  16  46  20
   3  16  46  33
   3  16  20  46
   3  17  21  58
   3  17  58  34
   3  17  58  21
   3  17  34  58
   3  17  34  13
   3  17  13  34
   3  18  14  38
   3  18  38  22
   3  18  38  14
   3  18  22  38
   3  19  23  45
   3  19  45  15
   3  19  45  23
   3  19  15  45
   3  20  16  46
   3  20  46  26
   3  20  46  16
   3  20  26  46
   3  21  27  58
   3  21  58  17
   3  21  58  27
   3  21  17  58
   3  22  18  38
   3  22  38  94
   3  22  38  18
   3  22  94  38
   3  22  94  84
   3  22  84  94
   3  22  84  24
   3  22  24  84
   3  23  25  85
   3  23  85  95
   3  23  85  25
   3  23  95  85
   3  23  95  45
   3  23  45  19
   3  23  45  95
   3  23  19  45
   3  24  22  84
   3  24  84  22
   3  24  84  63
   3  24  63   3
   3  24  63  84
   3  24   3  63
   3  25   4  64
   3  25  64   4
   3  25  64  85
   3  25  85  64
   3  25  85  23
   3  25  23  85
   3  26  20  46
   3  26  46  67
   3  26  46  20
   3  26  67  96
   3  26  67  46
   3  26  96  67
   3  26  96   0
   3  26   0  96
   3  27   1  97
   3  27  97  68
   3  27  97   1
   3  27  68  97
   3  27  68  58
   3  27  58  68
   3  27  58  21
   3  27  21  58
   3  28   0  96
   3  28  96  92
   3  28  96   0
   3  28  92  96
   3  28  92  93
   3  28  93  92
   3  28  93  97
   3  28  97  93
   3  28  97   1
   3  28   1  97
   3  29   3  86
   3  29  86   4
   3  29  86   3
   3  29   4  86
   3  30  34  55
   3  30  34  39
   3  30  55 100
   3  30  55  34
   3  30 100  55
   4  30 100  42  41
   3  30  41  56
   4  30  41  42 100
   3  30  56  39
   3  30  56  41
   3  30  39  34
   3  30  39  56
   3  31   2  35
   3  31   2   6
   3  31  35  44
   3  31  35   2
   3  31  44  73
   3  31  44  35
   3  31  73  65
   3  31  73  44
   3  31  65   6
   3  31  65  73
   3  31   6   2
   3  31   6  65
   3  32  37  66
   3  32  37   7
   3  32  66  37
   3  32  66  43
   3  32  43  36
   3  32  43  66
   3  32  36  43
   3  32  36   5
   3  32   5   7
   3  32   5  36
   3  32   7  37
   3  32   7   5
   3  33  46  16
   3  33  46  55
   3  33  16  12
   3  33  16  46
   3  33  12   8
   3  33  12  16
   3  33   8  74
   3  33   8  12
   3  33  74  40
   3  33  74   8
   3  33  40 100
   3  33  40  74
   3  33 100  40
   3  33 100  55
   3  33  55 100
   3  33  55  46
   3  34  58  55
   3  34  58  17
   3  34  55  30
   3  34  55  58
   3  34  30  55
   3  34  30  39
   3  34  39  91
   3  34  39  30
   3  34  91  39
   3  34  91   9
   3  34   9  13
   3  34   9  91
   3  34  13  17
   3  34  13   9
   3  34  17  58
   3  34  17  13
   3  35  91  39
   3  35  91   2
   3  35  39  91
   3  35  39  51
   3  35  51  44
   3  35  51  39
   3  35  44  31
   3  35  44  51
   3  35  31   2
   3  35  31  44
   3  35   2  31
   3  35   2  91
   3  36  32  43
   3  36  32   5
   3  36  43  32
   3  36  43  50
   3  36  50  40
   3  36  50  43
   3  36  40  74
   3  36  40  50
   3  36  74   5
   3  36  74  40
   3  36   5  32
   3  36   5  74
   3  37  45  62
   3  37  45  15
   3  37  62  47
   3  37  62  45
   3  37  47  62
   3  37  47  66
   3  37  66  47
   3  37  66  32
   3  37  32  66
   3  37  32   7
   3  37   7  11
   3  37   7  32
   3  37  11  15
   3  37  11   7
   3  37  15  45
   3  37  15  11
   3  38  53  94
   3  38  53  76
   3  38  94  53
   3  38  94  22
   3  38  22  18
   3  38  22  94
   3  38  18  14
   3  38  18  22
   3  38  14  65
   3  38  14  18
   3  38  65  14
   3  38  65  62
   3  38  62  76
   3  38  62  65
   3  38  76  62
   3  38  76  53
   3  39  35  91
   3  39  35  51
   3  39  91  34
   3  39  91  35
   3  39  34  30
   3  39  34  91
   3  39  30  34
   3  39  30  56
   3  39  56  51
   3  39  56  30
   3  39  51  35
   3  39  51  56
   3  40 100  33
   3  40 100  57
   3  40  33  74
   3  40  33 100
   3  40  74  36
   3  40  74  33
   3  40  36  50
   3  40  36  74
   3  40  50  36
   3  40  50  57
   3  40  57 100
   3  40  57  50
   3  41  77  56
   4  41  77  59  79
   3  41  56  30
   3  41  56  77
   3  41  30  56
   4  41  30 100  42
   3  42 100  57
   4  42 100  30  41
   3  42  57 100
   3  42  57  78
   3  42  78  57
   4  42  78  59  80
   3  43  36  32
   3  43  36  50
   3  43  32  66
   3  43  32  36
   3  43  66  48
   3  43  66  32
   3  43  48  66
   3  43  48  60
   3  43  60  48
   3  43  60  50
   3  43  50  36
   3  43  50  60
   3  44  73  49
   3  44  73  31
   3  44  31  35
   3  44  31  73
   3  44  35  51
   3  44  35  31
   3  44  51  35
   3  44  51  61
   3  44  61  51
   3  44  61  49
   3  44  49  73
   3  44  49  61
   3  45  54  76
   3  45  54  95
   3  45  76  62
   3  45  76  54
   3  45  62  37
   3  45  62  76
   3  45  37  62
   3  45  37  15
   3  45  15  19
   3  45  15  37
   3  45  19  23
   3  45  19  15
   3  45  23  95
   3  45  23  19
   3  45  95  54
   3  45  95  23
   3  46  67  26
   3  46  67  81
   3  46  26  20
   3  46  26  67
   3  46  20  16
   3  46  20  26
   3  46  16  33
   3  46  16  20
   3  46  33  16
   3  46  33  55
   3  46  55  81
   3  46  55  33
   3  46  81  55
   3  46  81  67
   3  47  37  62
   3  47  37  66
   3  47  62  37
   3  47  62  65
   3  47  65  73
   3  47  65  62
   3  47  73  49
   3  47  73  65
   3  47  49  73
   3  47  49  52
   3  47  52  48
   3  47  52  49
   3  47  48  66
   3  47  48  52
   3  47  66  37
   3  47  66  48
   3  48  43  66
   3  48  43  60
   3  48  66  47
   3  48  66  43
   3  48  47  52
   3  48  47  66
   3  48  52  47
   3  48  52  69
   3  48  69  52
   3  48  69  60
   3  48  60  69
   3  48  60  43
   3  49  47  73
   3  49  47  52
   3  49  73  47
   3  49  73  44
   3  49  44  73
   3  49  44  61
   3  49  61  70
   3  49  61  44
   3  49  70  61
   3  49  70  52
   3  49  52  47
   3  49  52  70
   3  50  40  36
   3  50  40  57
   3  50  36  43
   3  50  36  40
   3  50  43  36
   3  50  43  60
   3  50  60  71
   3  50  60  43
   3  50  71  60
   3  50  71  57
   3  50  57  40
   3  50  57  71
   3  51  44  35
   3  51  44  61
   3  51  35  39
   3  51  35  44
   3  51  39  35
   3  51  39  56
   3  51  56  39
   3  51  56  72
   3  51  72  56
   3  51  72  61
   3  51  61  72
   3  51  61  44
   3  52  48  47
   3  52  48  69
   3  52  47  49
   3  52  47  48
   3  52  49  47
   3  52  49  70
   3  52  70  75
   3  52  70  49
   3  52  75  70
   3  52  75  69
   3  52  69  75
   3  52  69  48
   3  53  89  87
   3  53  89  84
   3  53  84  94
   3  53  84  89
   3  53  94  38
   3  53  94  84
   3  53  38  94
   3  53  38  76
   3  53  76  54
   3  53  76  38
   3  53  54  76
   4  53  54  88  87
   3  53  87  89
   4  53  87  88  54
   3  54  90  85
   3  54  90  88
   3  54  88  90
   4  54  88  87  53
   3  54  53  76
   4  54  53  87  88
   3  54  76  45
   3  54  76  53
   3  54  45  76
   3  54  45  95
   3  54  95  85
   3  54  95  45
   3  54  85  90
   3  54  85  95
   3  55 100  33
   3  55 100  30
   3  55  30  34
   3  55  30 100
   3  55  34  58
   3  55  34  30
   3  55  58  81
   3  55  58  34
   3  55  81  58
   3  55  81  46
   3  55  46  33
   3  55  46  81
   3  55  33  46
   3  55  33 100
   3  56  51  39
   3  56  51  72
   3  56  39  30
   3  56  39  51
   3  56  30  41
   3  56  30  39
   3  56  41  77
   3  56  41  30
   3  56  77  41
   3  56  77  72
   3  56  72  77
   3  56  72  51
   3  57  42 100
   3  57  42  78
   3  57 100  40
   3  57 100  42
   3  57  40 100
   3  57  40  50
   3  57  50  40
   3  57  50  71
   3  57  71  78
   3  57  71  50
   3  57  78  71
   3  57  78  42
   3  58  68  81
   3  58  68  27
   3  58  81  55
   3  58  81  68
   3  58  55  34
   3  58  55  81
   3  58  34  55
   3  58  34  17
   3  58  17  21
   3  58  17  34
   3  58  21  27
   3  58  21  17
   3  58  27  68
   3  58  27  21
   3  59  98  78
   3  59  98  82
   3  59  82 101
   3  59  82  98
   3  59 101  82
   3  59 101  75
   3  59  75 102
   3  59  75 101
   3  59 102  75
   3  59 102  83
   3  59  83  99
   3  59  83 102
   3  59  99  83
   3  59  99  77
   3  59  77  99
   4  59  77  41  79
   3  59  79  80
   4  59  79  41  77
   3  59  80  79
   4  59  80  42  78
   3  59  78  98
   4  59  78  71  82
   3  60  48  43
   3  60  48  69
   3  60  69  82
   3  60  69  48
   3  60  82  71
   3  60  82  69
   3  60  71  82
   3  60  71  50
   3  60  50  43
   3  60  50  71
   3  60  43  48
   3  60  43  50
   3  61  51  44
   3  61  51  72
   3  61  72  83
   3  61  72  51
   3  61  83  70
   3  61  83  72
   3  61  70  83
   3  61  70  49
   3  61  49  44
   3  61  49  70
   3  61  44  51
   3  61  44  49
   3  62  47  37
   3  62  47  65
   3  62  37  45
   3  62  37  47
   3  62  45  76
   3  62  45  37
   3  62  76  45
   3  62  76  38
   3  62  38  65
   3  62  38  76
   3  62  65  38
   3  62  65  47
   3  63   3  24
   3  63   3  86
   3  63  24  84
   3  63  24   3
   3  63  84  89
   3  63  84  24
   3  63  89  86
   3  63  89  84
   3  63  86   3
   3  63  86  89
   3  64   4  86
   3  64   4  25
   3  64  86  90
   3  64  86   4
   3  64  90  85
   3  64  90  86
   3  64  85  90
   3  64  85  25
   3  64  25   4
   3  64  25  85
   3  65  38  14
   3  65  38  62
   3  65  14  10
   3  65  14  38
   3  65  10   6
   3  65  10  14
   3  65   6  31
   3  65   6  10
   3  65  31  73
   3  65  31   6
   3  65  73  47
   3  65  73  31
   3  65  47  62
   3  65  47  73
   3  65  62  47
   3  65  62  38
   3  66  37  47
   3  66  37  32
   3  66  47  37
   3  66  47  48
   3  66  48  43
   3  66  48  47
   3  66  43  32
   3  66  43  48
   3  66  32  37
   3  66  32  43
   3  67  96  26
   3  67  96  92
   3  67  26  46
   3  67  26  96
   3  67  46  26
   3  67  46  81
   3  67  81  68
   3  67  81  46
   3  67  68  81
   4  67  68  93  92
   3  67  92  96
   4  67  92  93  68
   3  68  97  93
   3  68  97  27
   3  68  93  97
   4  68  93  92  67
   3  68  67  81
   4  68  67  92  93
   3  68  81  58
   3  68  81  67
   3  68  58  81
   3  68  58  27
   3  68  27  97
   3  68  27  58
   3  69  52  48
   3  69  52  75
   3  69  75 101
   3  69  75  52
   3  69 101  82
   3  69 101  75
   3  69  82  60
   3  69  82 101
   3  69  60  48
   3  69  60  82
   3  69  48  52
   3  69  48  60
   3  70  61  83
   3  70  61  49
   3  70  83  61
   3  70  83 102
   3  70 102  75
   3  70 102  83
   3  70  75 102
   3  70  75  52
   3  70  52  49
   3  70  52  75
   3  70  49  61
   3  70  49  52
   3  71  60  82
   3  71  60  50
   3  71  82  60
   3  71  82  98
   3  71  98  78
   3  71  98  82
   3  71  78  98
   3  71  78  57
   3  71  57  50
   3  71  57  78
   3  71  50  60
   3  71  50  57
   3  72  56  51
   3  72  56  77
   3  72  77  99
   3  72  77  56
   3  72  99  83
   3  72  99  77
   3  72  83  61
   3  72  83  99
   3  72  61  51
   3  72  61  83
   3  72  51  56
   3  72  51  61
   3  73  49  47
   3  73  49  44
   3  73  47  65
   3  73  47  49
   3  73  65  31
   3  73  65  47
   3  73  31  44
   3  73  31  65
   3  73  44  31
   3  73  44  49
   3  74   5  36
   3  74   5   8
   3  74  36  40
   3  74  36   5
   3  74  40  33
   3  74  40  36
   3  74  33   8
   3  74  33  40
   3  74   8   5
   3  74   8  33
   3  75  70 102
   3  75  70  52
   3  75 102  70
   3  75 102  59
   3  75  59 101
   3  75  59 102
   3  75 101  69
   3  75 101  59
   3  75  69  52
   3  75  69 101
   3  75  52  70
   3  75  52  69
   3  76  62  45
   3  76  62  38
   3  76  45  54
   3  76  45  62
   3  76  54  53
   3  76  54  45
   3  76  53  38
   3  76  53  54
   3  76  38  53
   3  76  38  62
   3  77  41  56
   4  77  41  79  59
   3  77  59  99
   4  77  59  83  72
   3  77  99  72
   3  77  99  59
   3  77  72  56
   3  77  72  99
   3  77  56  41
   3  77  56  72
   3  78  71  98
   3  78  71  57
   3  78  98  71
   3  78  98  59
   3  78  59  98
   4  78  59  82  71
   3  78  42  57
   4  78  42  80  59
   3  78  57  42
   3  78  57  71
   3  79  80  59
   4  79  80  42  41
   3  79  59  80
   4  79  59  77  41
   3  80  59  79
   4  80  59  78  42
   3  80  79  59
   4  80  79  41  42
   3  81  55  58
   3  81  55  46
   3  81  58  68
   3  81  58  55
   3  81  68  67
   3  81  68  58
   3  81  67  46
   3  81  67  68
   3  81  46  67
   3  81  46  55
   3  82  71  60
   3  82  71  98
   3  82  60  69
   3  82  60  71
   3  82  69 101
   3  82  69  60
   3  82 101  69
   3  82 101  59
   3  82  59  98
   3  82  59 101
   3  82  98  71
   3  82  98  59
   3  83  70  61
   3  83  70 102
   3  83  61  72
   3  83  61  70
   3  83  72  99
   3  83  72  61
   3  83  99  72
   3  83  99  59
   3  83  59 102
   3  83  59  99
   3  83 102  70
   3  83 102  59
   3  84  22  94
   3  84  22  24
   3  84  94  53
   3  84  94  22
   3  84  53  89
   3  84  53  94
   3  84  89  63
   3  84  89  53
   3  84  63  24
   3  84  63  89
   3  84  24  22
   3  84  24  63
   3  85  64  90
   3  85  64  25
   3  85  90  64
   3  85  90  54
   3  85  54  90
   3  85  54  95
   3  85  95  54
   3  85  95  23
   3  85  23  25
   3  85  23  95
   3  85  25  64
   3  85  25  23
   3  86  87  88
   3  86  87  89
   3  86  88  90
   3  86  88  87
   3  86  90  64
   3  86  90  88
   3  86  64   4
   3  86  64  90
   3  86   4  29
   3  86   4  64
   3  86  29   3
   3  86  29   4
   3  86   3  29
   3  86   3  63
   3  86  63   3
   3  86  63  89
   3  86  89  87
   3  86  89  63
   3  87  53  89
   4  87  53  54  88
   3  87  88  86
   4  87  88  54  53
   3  87  86  88
   3  87  86  89
   3  87  89  86
   3  87  89  53
   3  88  54  90
   4  88  54  53  87
   3  88  90  86
   3  88  90  54
   3  88  86  87
   3  88  86  90
   3  88  87  86
   4  88  87  53  54
   3  89  87  53
   3  89  87  86
   3  89  86  87
   3  89  86  63
   3  89  63  84
   3  89  63  86
   3  89  84  53
   3  89  84  63
   3  89  53  84
   3  89  53  87
   3  90  85  64
   3  90  85  54
   3  90  64  86
   3  90  64  85
   3  90  86  88
   3  90  86  64
   3  90  88  54
   3  90  88  86
   3  90  54  88
   3  90  54  85
   3  91  34  39
   3  91  34   9
   3  91  39  35
   3  91  39  34
   3  91  35  39
   3  91  35   2
   3  91   2  35
   3  91   2   9
   3  91   9  34
   3  91   9   2
   3  92  28  96
   3  92  28  93
   3  92  96  67
   3  92  96  28
   3  92  67  96
   4  92  67  68  93
   3  92  93  28
   4  92  93  68  67
   3  93  28  92
   3  93  28  97
   3  93  92  28
   4  93  92  67  68
   3  93  68  97
   4  93  68  67  92
   3  93  97  28
   3  93  97  68
   3  94  38  53
   3  94  38  22
   3  94  53  84
   3  94  53  38
   3  94  84  22
   3  94  84  53
   3  94  22  38
   3  94  22  84
   3  95  85  54
   3  95  85  23
   3  95  54  45
   3  95  54  85
   3  95  45  54
   3  95  45  23
   3  95  23  85
   3  95  23  45
   3  96  26  67
   3  96  26   0
   3  96  67  26
   3  96  67  92
   3  96  92  28
   3  96  92  67
   3  96  28   0
   3  96  28  92
   3  96   0  26
   3  96   0  28
   3  97  28  93
   3  97  28   1
   3  97  93  28
   3  97  93  68
   3  97  68  93
   3  97  68  27
   3  97  27   1
   3  97  27  68
   3  97   1  28
   3  97   1  27
   3  98  78  71
   3  98  78  59
   3  98  71  82
   3  98  71  78
   3  98  82  71
   3  98  82  59
   3  98  59  82
   3  98  59  78
   3  99  83  72
   3  99  83  59
   3  99  72  77
   3  99  72  83
   3  99  77  59
   3  99  77  72
   3  99  59  83
   3  99  59  77
   3 100  33  40
   3 100  33  55
   3 100  40  33
   3 100  40  57
   3 100  57  42
   3 100  57  40
   3 100  42  57
   4 100  42  41  30
   3 100  30  55
   4 100  30  41  42
   3 100  55  30
   3 100  55  33
   3 101  82  69
   3 101  82  59
   3 101  69  75
   3 101  69  82
   3 101  75  59
   3 101  75  69
   3 101  59  82
   3 101  59  75
   3 102  75  70
   3 102  75  59
   3 102  70  83
   3 102  70  75
   3 102  83  70
   3 102  83  59
   3 102  59  75
   3 102  59  83
