 COFF
         109        1060         109
  
  -6.5677577033432559        1.1570942488128848        6.3819195358460084       0.60000002384185791       0.60000002384185791       0.60000002384185791       0.80000001192092896     
  -6.5677577156760494       -1.1570942410863980        6.3819195335741323       0.60000002384185791       0.60000002384185791       0.60000002384185791       0.80000001192092896     
  -2.8256781601539046E-002  -2.0751326976073541        6.1250755536529597       0.60000002384185791       0.60000002384185791       0.60000002384185791       0.80000001192092896     
   7.4292666930393976       -1.0645665939282307        6.4027310719565129       0.60000002384185791       0.60000002384185791       0.60000002384185791       0.80000001192092896     
   7.4292667073215153        1.0645665858251603        6.4027310721154267       0.60000002384185791       0.60000002384185791       0.60000002384185791       0.80000001192092896     
  -2.8256781589502063E-002   2.0751326968921409        6.1250755543603423       0.60000002384185791       0.60000002384185791       0.60000002384185791       0.80000001192092896     
   1.1270265545724631       -1.6945588121164867        6.3345899126545211       0.60000002384185791       0.60000002384185791       0.60000002384185791       0.80000001192092896     
   1.1270265545251317        1.6945588120085289        6.3345899127660168       0.60000002384185791       0.60000002384185791       0.60000002384185791       0.80000001192092896     
  -1.1497198714761618        1.6908561365517560        6.2909656172680570       0.60000002384185791       0.60000002384185791       0.60000002384185791       0.80000001192092896     
  -1.1497198713978487       -1.6908561362471228        6.2909656176012403       0.60000002384185791       0.60000002384185791       0.60000002384185791       0.80000001192092896     
   2.0070458098167308       -1.3341729188756899        6.6451374542673589       0.60000002384185791       0.60000002384185791       0.60000002384185791       0.80000001192092896     
   2.0070458098226074        1.3341729188402855        6.6451374543012962       0.60000002384185791       0.60000002384185791       0.60000002384185791       0.80000001192092896     
  -2.0387510484727245        1.3561732469218313        6.6035012543867300       0.60000002384185791       0.60000002384185791       0.60000002384185791       0.80000001192092896     
  -2.0387510483960805       -1.3561732466137755        6.6035012547054368       0.60000002384185791       0.60000002384185791       0.60000002384185791       0.80000001192092896     
   3.0552384875114127       -1.2641525390463677        6.6420613294335231       0.60000002384185791       0.60000002384185791       0.60000002384185791       0.80000001192092896     
   3.0552384879238441        1.2641525388966295        6.6420613311914884       0.60000002384185791       0.60000002384185791       0.60000002384185791       0.80000001192092896     
  -3.0326911682669384        1.2561826447666802        6.5734244642511115       0.60000002384185791       0.60000002384185791       0.60000002384185791       0.80000001192092896     
  -3.0326911681785251       -1.2561826445331910        6.5734244643231241       0.60000002384185791       0.60000002384185791       0.60000002384185791       0.80000001192092896     
   4.0538082954171131       -1.2178094993869890        6.6511990011569013       0.60000002384185791       0.60000002384185791       0.60000002384185791       0.80000001192092896     
   4.0538082957914501        1.2178094991411630        6.6511990013956819       0.60000002384185791       0.60000002384185791       0.60000002384185791       0.80000001192092896     
  -4.0275308073762517        1.1781798180772538        6.6340662365871639       0.60000002384185791       0.60000002384185791       0.60000002384185791       0.80000001192092896     
  -4.0275308073169080       -1.1781798179795995        6.6340662366705674       0.60000002384185791       0.60000002384185791       0.60000002384185791       0.80000001192092896     
   5.0558946403459144       -1.4120876368545163        6.3290917218486511       0.60000002384185791       0.60000002384185791       0.60000002384185791       0.80000001192092896     
   5.0558946446718709        1.4120876368355488        6.3290917245591203       0.60000002384185791       0.60000002384185791       0.60000002384185791       0.80000001192092896     
   6.0998874714191658       -1.3546169808808823        6.3254885362199431       0.60000002384185791       0.60000002384185791       0.60000002384185791       0.80000001192092896     
   6.0998874714567553        1.3546169808529342        6.3254885362325384       0.60000002384185791       0.60000002384185791       0.60000002384185791       0.80000001192092896     
  -5.0044082962592116        1.3232415077026656        6.3489684193914915       0.60000002384185791       0.60000002384185791       0.60000002384185791       0.80000001192092896     
  -5.0044082962692853       -1.3232415076667525        6.3489684194279832       0.60000002384185791       0.60000002384185791       0.60000002384185791       0.80000001192092896     
  -7.7250011537906422       -1.9574483243692812E-004   6.3198674837038258       0.60000002384185791       0.60000002384185791       0.60000002384185791       0.80000001192092896     
   8.4954449979691429        1.2527905252499908E-004   6.4073304134980900       0.60000002384185791       0.60000002384185791       0.60000002384185791       0.80000001192092896     
  -2.1869489678544101      -0.96698222727066263        4.1212716123609292       0.60000002384185791       0.60000002384185791       0.60000002384185791       0.80000001192092896     
   1.2722067715989198       -1.6466291815557914        5.1871746379899122       0.60000002384185791       0.60000002384185791       0.60000002384185791       0.80000001192092896     
   1.2722067140763837        1.6466290601532723        5.1871746381592789       0.60000002384185791       0.60000002384185791       0.60000002384185791       0.80000001192092896     
  -2.5059693579319156        1.3038462086680040        5.4516787972603922       0.60000002384185791       0.60000002384185791       0.60000002384185791       0.80000001192092896     
  -2.5059693555072071       -1.3038462303893985        5.4516787979418853       0.60000002384185791       0.60000002384185791       0.60000002384185791       0.80000001192092896     
   1.8088078696007974E-002  -1.7943396814865094        4.8140198564017709       0.60000002384185791       0.60000002384185791       0.60000002384185791       0.80000001192092896     
   1.8080277871418377E-002   1.7943950856321049        4.8140198508052769       0.60000002384185791       0.60000002384185791       0.60000002384185791       0.80000001192092896     
   2.5251943622929391        1.2845065996986469        5.4630731452312391       0.60000002384185791       0.60000002384185791       0.60000002384185791       0.80000001192092896     
   4.1014027854289647       -1.2439440874553418        5.7322151394235794       0.60000002384185791       0.60000002384185791       0.60000002384185791       0.80000001192092896     
  -1.0395058309937368       -1.6071174119996614        4.3968944010158548       0.60000002384185791       0.60000002384185791       0.60000002384185791       0.80000001192092896     
  -1.0395055979374153        1.6071152333621490        4.3968946316948037       0.60000002384185791       0.60000002384185791       0.60000002384185791       0.80000001192092896     
  -1.5977505241947343      -0.99531871333993982        2.6451851779351672       0.60000002384185791       0.60000002384185791       0.60000002384185791       0.80000001192092896     
  -1.5977506867029305       0.99531847683621599        2.6451848783276586       0.60000002384185791       0.60000002384185791       0.60000002384185791       0.80000001192092896     
   1.1278723425339465        1.5940986146657774        4.0059966993865368       0.60000002384185791       0.60000002384185791       0.60000002384185791       0.80000001192092896     
   1.1278720020810591       -1.5941005249869862        4.0059970582039881       0.60000002384185791       0.60000002384185791       0.60000002384185791       0.80000001192092896     
   4.1014027873908496        1.2439440928876957        5.7322151363552827       0.60000002384185791       0.60000002384185791       0.60000002384185791       0.80000001192092896     
  -4.0491985325426665        1.2023899001919729        5.8219865117493130       0.60000002384185791       0.60000002384185791       0.60000002384185791       0.80000001192092896     
   2.4186391019863507        6.6265624383724452E-009   4.4027724669988428       0.60000002384185791       0.60000002384185791       0.60000002384185791       0.80000001192092896     
   1.5961933305003226        1.2049130653492719        3.5990227921821885       0.60000002384185791       0.60000002384185791       0.60000002384185791       0.80000001192092896     
   1.5961932192391948       -1.2049132515376011        3.5990227905705137       0.60000002384185791       0.60000002384185791       0.60000002384185791       0.80000001192092896     
  0.12083882593135419        1.6679461906457700        3.7425777906956217       0.60000002384185791       0.60000002384185791       0.60000002384185791       0.80000001192092896     
  0.12084783922289362       -1.6677998662702265        3.7425778254701165       0.60000002384185791       0.60000002384185791       0.60000002384185791       0.80000001192092896     
   1.8756421766941389        7.9372487237182742E-009   3.2907054838716574       0.60000002384185791       0.60000002384185791       0.60000002384185791       0.80000001192092896     
   5.1009252386244750      -0.75070333448164728        3.9744481212396505        1.0000000000000000        1.0000000000000000        0.0000000000000000        1.0000000000000000     
   5.1009252389534252       0.75070333725294269        3.9744481212396501        1.0000000000000000        1.0000000000000000        0.0000000000000000        1.0000000000000000     
  -3.3131465347018674       -3.2667791637741771E-009   4.8804177586849287       0.60000002384185791       0.60000002384185791       0.60000002384185791       0.80000001192092896     
 -0.80312089868783332       -1.4712280459653468        3.5107918321373592       0.60000002384185791       0.60000002384185791       0.60000002384185791       0.80000001192092896     
 -0.80312076279034861        1.4712256339464196        3.5107921253617986       0.60000002384185791       0.60000002384185791       0.60000002384185791       0.80000001192092896     
  -4.0491985328002427       -1.2023899004492777        5.8219865120682677       0.60000002384185791       0.60000002384185791       0.60000002384185791       0.80000001192092896     
  0.15040135064496854        9.7611914339808413E-009   1.0535609148389919        1.0000000000000000        1.0000000000000000        0.0000000000000000        1.0000000000000000     
   1.0246951997644711        1.4637747826964822        3.0092473366371588       0.60000002384185791       0.60000002384185791       0.60000002384185791       0.80000001192092896     
   1.0246856334284291       -1.4637836295511470        3.0092473656206513       0.60000002384185791       0.60000002384185791       0.60000002384185791       0.80000001192092896     
   3.1522482718766818        4.3154788490527778E-009   4.6619391166045965       0.60000002384185791       0.60000002384185791       0.60000002384185791       0.80000001192092896     
   6.7454533376602965       -1.2034325496488947        5.7603507706811534       0.60000002384185791       0.60000002384185791       0.60000002384185791       0.80000001192092896     
   6.7454533379212060        1.2034325493804394        5.7603507708988122       0.60000002384185791       0.60000002384185791       0.60000002384185791       0.80000001192092896     
   2.5251943602541838       -1.2845065997515044        5.4630731430474695       0.60000002384185791       0.60000002384185791       0.60000002384185791       0.80000001192092896     
   1.7748744100527816        1.4634756152494381        4.6010950879240191       0.60000002384185791       0.60000002384185791       0.60000002384185791       0.80000001192092896     
  -5.0105502910051163       0.81557534910646512        4.5818974327962696        1.0000000000000000        1.0000000000000000        0.0000000000000000        1.0000000000000000     
  -5.0105502908889958      -0.81557534932800402        4.5818974327962705        1.0000000000000000        1.0000000000000000        0.0000000000000000        1.0000000000000000     
   1.4058213475664572        1.0037494288454991        2.6241902061511539       0.60000002384185791       0.60000002384185791       0.60000002384185791       0.80000001192092896     
   1.4058210734252741       -1.0037495199666790        2.6241902232087955       0.60000002384185791       0.60000002384185791       0.60000002384185791       0.80000001192092896     
  0.23525864102412333        1.5244588995651260        2.7359059509168207       0.60000002384185791       0.60000002384185791       0.60000002384185791       0.80000001192092896     
  0.23525852036711750       -1.5244599659710090        2.7359059949045683       0.60000002384185791       0.60000002384185791       0.60000002384185791       0.80000001192092896     
   1.7748742027805020       -1.4634756768916712        4.6010947091790655       0.60000002384185791       0.60000002384185791       0.60000002384185791       0.80000001192092896     
  -1.2488984387699487        1.6606064561059741        5.3452306778936833       0.60000002384185791       0.60000002384185791       0.60000002384185791       0.80000001192092896     
   1.5741311662481143       -1.8490015193385697E-009   2.4130102159559841       0.60000002384185791       0.60000002384185791       0.60000002384185791       0.80000001192092896     
   4.1196383104746070        2.8294974333310775E-008   5.5971012579168491       0.60000002384185791       0.60000002384185791       0.60000002384185791       0.80000001192092896     
 -0.44941774504514964       -1.3468912917178693        2.3599531810862113       0.60000002384185791       0.60000002384185791       0.60000002384185791       0.80000001192092896     
 -0.44941770226780270        1.3468907013568896        2.3599532571529496       0.60000002384185791       0.60000002384185791       0.60000002384185791       0.80000001192092896     
  -1.4323825993971040      -0.77843038870744419        1.7750128821126450       0.60000002384185791       0.60000002384185791       0.60000002384185791       0.80000001192092896     
  -1.4323826356025986       0.77843041024443027        1.7750129049623176       0.60000002384185791       0.60000002384185791       0.60000002384185791       0.80000001192092896     
  -4.0495727009909555        6.0584483662724602E-010   5.5584610676598709       0.60000002384185791       0.60000002384185791       0.60000002384185791       0.80000001192092896     
  0.85881100689204126        1.1933865184080250        2.0925802922983379       0.60000002384185791       0.60000002384185791       0.60000002384185791       0.80000001192092896     
  0.85881051189281754       -1.1933867352915417        2.0925803024802443       0.60000002384185791       0.60000002384185791       0.60000002384185791       0.80000001192092896     
   5.8305895609641762       -1.2688374385932879        5.3537550508253267       0.60000002384185791       0.60000002384185791       0.60000002384185791       0.80000001192092896     
   5.8305895614623875        1.2688374384551271        5.3537550504649793       0.60000002384185791       0.60000002384185791       0.60000002384185791       0.80000001192092896     
   7.0927031589595853       -9.9325644082748837E-008   5.5191926365625710       0.60000002384185791       0.60000002384185791       0.60000002384185791       0.80000001192092896     
   6.4157291820581053      -0.53607233944619959        4.6052819172912782       0.60000002384185791       0.60000002384185791       0.60000002384185791       0.80000001192092896     
   6.4157291825547409       0.53607233711767888        4.6052819176008528       0.60000002384185791       0.60000002384185791       0.60000002384185791       0.80000001192092896     
   6.3234523883039824      -0.95436715103372594        4.9531561090026370       0.60000002384185791       0.60000002384185791       0.60000002384185791       0.80000001192092896     
   6.3234523877305424       0.95436714941140433        4.9531561091766312       0.60000002384185791       0.60000002384185791       0.60000002384185791       0.80000001192092896     
  -1.2488984518159663       -1.6606065763727045        5.3452306771919913       0.60000002384185791       0.60000002384185791       0.60000002384185791       0.80000001192092896     
  -6.2606640719350146       0.56662083656266349        5.3070883943921530       0.60000002384185791       0.60000002384185791       0.60000002384185791       0.80000001192092896     
  -6.2606640887070348      -0.56662073498318799        5.3070883895527743       0.60000002384185791       0.60000002384185791       0.60000002384185791       0.80000001192092896     
   5.0877721237816260       -1.2907654927911263        5.3046905702127560       0.60000002384185791       0.60000002384185791       0.60000002384185791       0.80000001192092896     
   5.0877721262889208        1.2907654940696396        5.3046905711700330       0.60000002384185791       0.60000002384185791       0.60000002384185791       0.80000001192092896     
  -6.0992580708182338       0.97016259882900091        5.5888717310988536       0.60000002384185791       0.60000002384185791       0.60000002384185791       0.80000001192092896     
  -6.0992580509682197      -0.97016261619733335        5.5888717220048596       0.60000002384185791       0.60000002384185791       0.60000002384185791       0.80000001192092896     
  0.13504150709253376        1.1384286147620448        1.8885456336260333       0.60000002384185791       0.60000002384185791       0.60000002384185791       0.80000001192092896     
  0.13504089803580202       -1.1384286817661391        1.8885456865042511       0.60000002384185791       0.60000002384185791       0.60000002384185791       0.80000001192092896     
  -2.1869495919060298       0.96698169496119601        4.1212714185604797       0.60000002384185791       0.60000002384185791       0.60000002384185791       0.80000001192092896     
   1.1125359967949349       0.67689104786264132        1.8518189104311837       0.60000002384185791       0.60000002384185791       0.60000002384185791       0.80000001192092896     
   1.1125357578831572      -0.67689114412180162        1.8518189270286796       0.60000002384185791       0.60000002384185791       0.60000002384185791       0.80000001192092896     
  -6.9164195442620935       0.64347139306859302        5.9173606300077077       0.60000002384185791       0.60000002384185791       0.60000002384185791       0.80000001192092896     
  -6.9164195136127784      -0.64347101960704078        5.9173606861227395       0.60000002384185791       0.60000002384185791       0.60000002384185791       0.80000001192092896     
   4.5495249401301328       -1.0136336689784047        4.8872332459456995       0.60000002384185791       0.60000002384185791       0.60000002384185791       0.80000001192092896     
   4.5495249391909036        1.0136336806929835        4.8872332446493401       0.60000002384185791       0.60000002384185791       0.60000002384185791       0.80000001192092896     
   4.5631248369463355      -0.36105027439310405        4.7639461834793746       0.60000002384185791       0.60000002384185791       0.60000002384185791       0.80000001192092896     
   4.5631248367690178       0.36105030056348547        4.7639461834793746       0.60000002384185791       0.60000002384185791       0.60000002384185791       0.80000001192092896     
  
   3   0  26  96
   3   0  96  26
   3   0  96 103
   3   0 103  96
   3   0 103  28
   3   0  28 103
   4   0  28  92  96
   3   1  28 104
   4   1  28  93  97
   3   1 104  97
   3   1 104  28
   3   1  97 104
   3   1  97  27
   3   1  27  97
   3   2  35  91
   3   2  35  31
   3   2  31  35
   3   2  31   6
   3   2   6  31
   3   2   9  91
   3   2  91  35
   3   2  91   9
   3   3  29  86
   3   3  24  63
   3   3  63  24
   3   3  63  86
   3   3  86  29
   3   3  86  63
   3   4  29  86
   3   4  86  64
   3   4  86  29
   3   4  64  86
   3   4  64  25
   3   4  25  64
   3   5   7  32
   3   5  32  36
   3   5  32   7
   3   5  36  32
   3   5  36  74
   3   5  74  36
   3   5  74   8
   3   5   8  74
   3   6   2  31
   3   6  31   2
   3   6  31  65
   3   6  65  10
   3   6  65  31
   3   6  10  65
   3   7  11  37
   3   7  37  32
   3   7  37  11
   3   7  32  37
   3   7  32   5
   3   7   5  32
   3   8   5  74
   3   8  74   5
   3   8  74  33
   3   8  33  12
   3   8  33  74
   3   8  12  33
   3   9  13  34
   3   9  34  91
   3   9  34  13
   3   9  91  34
   3   9  91   2
   3   9   2  91
   3  10   6  65
   3  10  65  14
   3  10  65   6
   3  10  14  65
   3  11  15  37
   3  11  37   7
   3  11  37  15
   3  11   7  37
   3  12   8  33
   3  12  33  16
   3  12  33   8
   3  12  16  33
   3  13  17  34
   3  13  34   9
   3  13  34  17
   3  13   9  34
   3  14  10  65
   3  14  65  38
   3  14  65  10
   3  14  38  18
   3  14  38  65
   3  14  18  38
   3  15  19  45
   3  15  45  37
   3  15  45  19
   3  15  37  45
   3  15  37  11
   3  15  11  37
   3  16  12  33
   3  16  33  46
   3  16  33  12
   3  16  46  20
   3  16  46  33
   3  16  20  46
   3  17  21  58
   3  17  58  34
   3  17  58  21
   3  17  34  58
   3  17  34  13
   3  17  13  34
   3  18  14  38
   3  18  38  22
   3  18  38  14
   3  18  22  38
   3  19  23  45
   3  19  45  15
   3  19  45  23
   3  19  15  45
   3  20  16  46
   3  20  46  26
   3  20  46  16
   3  20  26  46
   3  21  27  58
   3  21  58  17
   3  21  58  27
   3  21  17  58
   3  22  18  38
   3  22  38  94
   3  22  38  18
   3  22  94  38
   3  22  94  84
   3  22  84  94
   3  22  84  24
   3  22  24  84
   3  23  25  85
   3  23  85  95
   3  23  85  25
   3  23  95  85
   3  23  95  45
   3  23  45  19
   3  23  45  95
   3  23  19  45
   3  24  22  84
   3  24  84  22
   3  24  84  63
   3  24  63   3
   3  24  63  84
   3  24   3  63
   3  25   4  64
   3  25  64   4
   3  25  64  85
   3  25  85  64
   3  25  85  23
   3  25  23  85
   3  26  20  46
   3  26  46  67
   3  26  46  20
   3  26  67  96
   3  26  67  46
   3  26  96  67
   3  26  96   0
   3  26   0  96
   3  27   1  97
   3  27  97  68
   3  27  97   1
   3  27  68  97
   3  27  68  58
   3  27  58  68
   3  27  58  21
   3  27  21  58
   3  28   0 103
   4  28   0  96  92
   3  28 103   0
   3  28 103  92
   3  28  92 103
   3  28  92  93
   3  28  93  92
   3  28  93 104
   3  28 104  93
   3  28 104   1
   3  28   1 104
   4  28   1  97  93
   3  29   3  86
   3  29  86   4
   3  29  86   3
   3  29   4  86
   3  30  34  55
   3  30  34  39
   3  30  55 100
   3  30  55  34
   3  30 100  55
   4  30 100  42  41
   3  30  41  56
   4  30  41  42 100
   3  30  56  39
   3  30  56  41
   3  30  39  34
   3  30  39  56
   3  31   2  35
   3  31   2   6
   3  31  35  44
   3  31  35   2
   3  31  44  73
   3  31  44  35
   3  31  73  65
   3  31  73  44
   3  31  65   6
   3  31  65  73
   3  31   6   2
   3  31   6  65
   3  32  37  66
   3  32  37   7
   3  32  66  37
   3  32  66  43
   3  32  43  36
   3  32  43  66
   3  32  36  43
   3  32  36   5
   3  32   5   7
   3  32   5  36
   3  32   7  37
   3  32   7   5
   3  33  46  16
   3  33  46  55
   3  33  16  12
   3  33  16  46
   3  33  12   8
   3  33  12  16
   3  33   8  74
   3  33   8  12
   3  33  74  40
   3  33  74   8
   3  33  40 100
   3  33  40  74
   3  33 100  40
   3  33 100  55
   3  33  55 100
   3  33  55  46
   3  34  58  55
   3  34  58  17
   3  34  55  30
   3  34  55  58
   3  34  30  55
   3  34  30  39
   3  34  39  91
   3  34  39  30
   3  34  91  39
   3  34  91   9
   3  34   9  13
   3  34   9  91
   3  34  13  17
   3  34  13   9
   3  34  17  58
   3  34  17  13
   3  35  91  39
   3  35  91   2
   3  35  39  91
   3  35  39  51
   3  35  51  44
   3  35  51  39
   3  35  44  31
   3  35  44  51
   3  35  31   2
   3  35  31  44
   3  35   2  31
   3  35   2  91
   3  36  32  43
   3  36  32   5
   3  36  43  32
   3  36  43  50
   3  36  50  40
   3  36  50  43
   3  36  40  74
   3  36  40  50
   3  36  74   5
   3  36  74  40
   3  36   5  32
   3  36   5  74
   3  37  45  62
   3  37  45  15
   3  37  62  47
   3  37  62  45
   3  37  47  62
   3  37  47  66
   3  37  66  47
   3  37  66  32
   3  37  32  66
   3  37  32   7
   3  37   7  11
   3  37   7  32
   3  37  11  15
   3  37  11   7
   3  37  15  45
   3  37  15  11
   3  38 105  76
   3  38 105  94
   3  38  94 105
   3  38  94  22
   3  38  22  18
   3  38  22  94
   3  38  18  14
   3  38  18  22
   3  38  14  65
   3  38  14  18
   3  38  65  14
   3  38  65  62
   3  38  62  76
   3  38  62  65
   3  38  76  62
   3  38  76 105
   3  39  35  91
   3  39  35  51
   3  39  91  34
   3  39  91  35
   3  39  34  30
   3  39  34  91
   3  39  30  34
   3  39  30  56
   3  39  56  51
   3  39  56  30
   3  39  51  35
   3  39  51  56
   3  40 100  33
   3  40 100  57
   3  40  33  74
   3  40  33 100
   3  40  74  36
   3  40  74  33
   3  40  36  50
   3  40  36  74
   3  40  50  36
   3  40  50  57
   3  40  57 100
   3  40  57  50
   3  41  77  56
   4  41  77  59  79
   3  41  56  30
   3  41  56  77
   3  41  30  56
   4  41  30 100  42
   3  42 100  57
   4  42 100  30  41
   3  42  57 100
   3  42  57  78
   3  42  78  57
   4  42  78  59  80
   3  43  36  32
   3  43  36  50
   3  43  32  66
   3  43  32  36
   3  43  66  48
   3  43  66  32
   3  43  48  66
   3  43  48  60
   3  43  60  48
   3  43  60  50
   3  43  50  36
   3  43  50  60
   3  44  73  49
   3  44  73  31
   3  44  31  35
   3  44  31  73
   3  44  35  51
   3  44  35  31
   3  44  51  35
   3  44  51  61
   3  44  61  51
   3  44  61  49
   3  44  49  73
   3  44  49  61
   3  45 106  95
   3  45 106  76
   3  45  76  62
   3  45  76 106
   3  45  62  37
   3  45  62  76
   3  45  37  62
   3  45  37  15
   3  45  15  19
   3  45  15  37
   3  45  19  23
   3  45  19  15
   3  45  23  95
   3  45  23  19
   3  45  95 106
   3  45  95  23
   3  46  67  26
   3  46  67  81
   3  46  26  20
   3  46  26  67
   3  46  20  16
   3  46  20  26
   3  46  16  33
   3  46  16  20
   3  46  33  16
   3  46  33  55
   3  46  55  81
   3  46  55  33
   3  46  81  55
   3  46  81  67
   3  47  37  62
   3  47  37  66
   3  47  62  37
   3  47  62  65
   3  47  65  73
   3  47  65  62
   3  47  73  49
   3  47  73  65
   3  47  49  73
   3  47  49  52
   3  47  52  48
   3  47  52  49
   3  47  48  66
   3  47  48  52
   3  47  66  37
   3  47  66  48
   3  48  43  66
   3  48  43  60
   3  48  66  47
   3  48  66  43
   3  48  47  52
   3  48  47  66
   3  48  52  47
   3  48  52  69
   3  48  69  52
   3  48  69  60
   3  48  60  69
   3  48  60  43
   3  49  47  73
   3  49  47  52
   3  49  73  47
   3  49  73  44
   3  49  44  73
   3  49  44  61
   3  49  61  70
   3  49  61  44
   3  49  70  61
   3  49  70  52
   3  49  52  47
   3  49  52  70
   3  50  40  36
   3  50  40  57
   3  50  36  43
   3  50  36  40
   3  50  43  36
   3  50  43  60
   3  50  60  71
   3  50  60  43
   3  50  71  60
   3  50  71  57
   3  50  57  40
   3  50  57  71
   3  51  44  35
   3  51  44  61
   3  51  35  39
   3  51  35  44
   3  51  39  35
   3  51  39  56
   3  51  56  39
   3  51  56  72
   3  51  72  56
   3  51  72  61
   3  51  61  72
   3  51  61  44
   3  52  48  47
   3  52  48  69
   3  52  47  49
   3  52  47  48
   3  52  49  47
   3  52  49  70
   3  52  70  75
   3  52  70  49
   3  52  75  70
   3  52  75  69
   3  52  69  75
   3  52  69  48
   3  53  89  87
   3  53  89  84
   3  53  84  94
   3  53  84  89
   3  53  94 105
   3  53  94  84
   3  53 105  94
   4  53 105  76 107
   3  53  87  89
   4  53  87  88  54
   3  54  90  85
   3  54  90  88
   3  54  88  90
   4  54  88  87  53
   3  54 106  95
   4  54 106  76 108
   3  54  95  85
   3  54  95 106
   3  54  85  90
   3  54  85  95
   3  55 100  33
   3  55 100  30
   3  55  30  34
   3  55  30 100
   3  55  34  58
   3  55  34  30
   3  55  58  81
   3  55  58  34
   3  55  81  58
   3  55  81  46
   3  55  46  33
   3  55  46  81
   3  55  33  46
   3  55  33 100
   3  56  51  39
   3  56  51  72
   3  56  39  30
   3  56  39  51
   3  56  30  41
   3  56  30  39
   3  56  41  77
   3  56  41  30
   3  56  77  41
   3  56  77  72
   3  56  72  77
   3  56  72  51
   3  57  42 100
   3  57  42  78
   3  57 100  40
   3  57 100  42
   3  57  40 100
   3  57  40  50
   3  57  50  40
   3  57  50  71
   3  57  71  78
   3  57  71  50
   3  57  78  71
   3  57  78  42
   3  58  68  81
   3  58  68  27
   3  58  81  55
   3  58  81  68
   3  58  55  34
   3  58  55  81
   3  58  34  55
   3  58  34  17
   3  58  17  21
   3  58  17  34
   3  58  21  27
   3  58  21  17
   3  58  27  68
   3  58  27  21
   3  59  98  78
   3  59  98  82
   3  59  82 101
   3  59  82  98
   3  59 101  82
   3  59 101  75
   3  59  75 102
   3  59  75 101
   3  59 102  75
   3  59 102  83
   3  59  83  99
   3  59  83 102
   3  59  99  83
   3  59  99  77
   3  59  77  99
   4  59  77  41  79
   3  59  79  80
   4  59  79  41  77
   3  59  80  79
   4  59  80  42  78
   3  59  78  98
   4  59  78  71  82
   3  60  48  43
   3  60  48  69
   3  60  69  82
   3  60  69  48
   3  60  82  71
   3  60  82  69
   3  60  71  82
   3  60  71  50
   3  60  50  43
   3  60  50  71
   3  60  43  48
   3  60  43  50
   3  61  51  44
   3  61  51  72
   3  61  72  83
   3  61  72  51
   3  61  83  70
   3  61  83  72
   3  61  70  83
   3  61  70  49
   3  61  49  44
   3  61  49  70
   3  61  44  51
   3  61  44  49
   3  62  47  37
   3  62  47  65
   3  62  37  45
   3  62  37  47
   3  62  45  76
   3  62  45  37
   3  62  76  45
   3  62  76  38
   3  62  38  65
   3  62  38  76
   3  62  65  38
   3  62  65  47
   3  63   3  24
   3  63   3  86
   3  63  24  84
   3  63  24   3
   3  63  84  89
   3  63  84  24
   3  63  89  86
   3  63  89  84
   3  63  86   3
   3  63  86  89
   3  64   4  86
   3  64   4  25
   3  64  86  90
   3  64  86   4
   3  64  90  85
   3  64  90  86
   3  64  85  90
   3  64  85  25
   3  64  25   4
   3  64  25  85
   3  65  38  14
   3  65  38  62
   3  65  14  10
   3  65  14  38
   3  65  10   6
   3  65  10  14
   3  65   6  31
   3  65   6  10
   3  65  31  73
   3  65  31   6
   3  65  73  47
   3  65  73  31
   3  65  47  62
   3  65  47  73
   3  65  62  47
   3  65  62  38
   3  66  37  47
   3  66  37  32
   3  66  47  37
   3  66  47  48
   3  66  48  43
   3  66  48  47
   3  66  43  32
   3  66  43  48
   3  66  32  37
   3  66  32  43
   3  67  96  26
   3  67  96  92
   3  67  26  46
   3  67  26  96
   3  67  46  26
   3  67  46  81
   3  67  81  68
   3  67  81  46
   3  67  68  81
   4  67  68  93  92
   3  67  92  96
   4  67  92  93  68
   3  68  97  93
   3  68  97  27
   3  68  93  97
   4  68  93  92  67
   3  68  67  81
   4  68  67  92  93
   3  68  81  58
   3  68  81  67
   3  68  58  81
   3  68  58  27
   3  68  27  97
   3  68  27  58
   3  69  52  48
   3  69  52  75
   3  69  75 101
   3  69  75  52
   3  69 101  82
   3  69 101  75
   3  69  82  60
   3  69  82 101
   3  69  60  48
   3  69  60  82
   3  69  48  52
   3  69  48  60
   3  70  61  83
   3  70  61  49
   3  70  83  61
   3  70  83 102
   3  70 102  75
   3  70 102  83
   3  70  75 102
   3  70  75  52
   3  70  52  49
   3  70  52  75
   3  70  49  61
   3  70  49  52
   3  71  60  82
   3  71  60  50
   3  71  82  60
   3  71  82  98
   3  71  98  78
   3  71  98  82
   3  71  78  98
   3  71  78  57
   3  71  57  50
   3  71  57  78
   3  71  50  60
   3  71  50  57
   3  72  56  51
   3  72  56  77
   3  72  77  99
   3  72  77  56
   3  72  99  83
   3  72  99  77
   3  72  83  61
   3  72  83  99
   3  72  61  51
   3  72  61  83
   3  72  51  56
   3  72  51  61
   3  73  49  47
   3  73  49  44
   3  73  47  65
   3  73  47  49
   3  73  65  31
   3  73  65  47
   3  73  31  44
   3  73  31  65
   3  73  44  31
   3  73  44  49
   3  74   5  36
   3  74   5   8
   3  74  36  40
   3  74  36   5
   3  74  40  33
   3  74  40  36
   3  74  33   8
   3  74  33  40
   3  74   8   5
   3  74   8  33
   3  75  70 102
   3  75  70  52
   3  75 102  70
   3  75 102  59
   3  75  59 101
   3  75  59 102
   3  75 101  69
   3  75 101  59
   3  75  69  52
   3  75  69 101
   3  75  52  70
   3  75  52  69
   3  76  62  45
   3  76  62  38
   3  76  45 106
   3  76  45  62
   3  76 106  45
   4  76 106  54 108
   3  76 108 107
   4  76 108  54 106
   3  76 107 108
   4  76 107  53 105
   3  76 105  38
   4  76 105  53 107
   3  76  38 105
   3  76  38  62
   3  77  41  56
   4  77  41  79  59
   3  77  59  99
   4  77  59  83  72
   3  77  99  72
   3  77  99  59
   3  77  72  56
   3  77  72  99
   3  77  56  41
   3  77  56  72
   3  78  71  98
   3  78  71  57
   3  78  98  71
   3  78  98  59
   3  78  59  98
   4  78  59  82  71
   3  78  42  57
   4  78  42  80  59
   3  78  57  42
   3  78  57  71
   3  79  80  59
   4  79  80  42  41
   3  79  59  80
   4  79  59  77  41
   3  80  59  79
   4  80  59  78  42
   3  80  79  59
   4  80  79  41  42
   3  81  55  58
   3  81  55  46
   3  81  58  68
   3  81  58  55
   3  81  68  67
   3  81  68  58
   3  81  67  46
   3  81  67  68
   3  81  46  67
   3  81  46  55
   3  82  71  60
   3  82  71  98
   3  82  60  69
   3  82  60  71
   3  82  69 101
   3  82  69  60
   3  82 101  69
   3  82 101  59
   3  82  59  98
   3  82  59 101
   3  82  98  71
   3  82  98  59
   3  83  70  61
   3  83  70 102
   3  83  61  72
   3  83  61  70
   3  83  72  99
   3  83  72  61
   3  83  99  72
   3  83  99  59
   3  83  59 102
   3  83  59  99
   3  83 102  70
   3  83 102  59
   3  84  22  94
   3  84  22  24
   3  84  94  53
   3  84  94  22
   3  84  53  89
   3  84  53  94
   3  84  89  63
   3  84  89  53
   3  84  63  24
   3  84  63  89
   3  84  24  22
   3  84  24  63
   3  85  64  90
   3  85  64  25
   3  85  90  64
   3  85  90  54
   3  85  54  90
   3  85  54  95
   3  85  95  54
   3  85  95  23
   3  85  23  25
   3  85  23  95
   3  85  25  64
   3  85  25  23
   3  86  87  88
   3  86  87  89
   3  86  88  90
   3  86  88  87
   3  86  90  64
   3  86  90  88
   3  86  64   4
   3  86  64  90
   3  86   4  29
   3  86   4  64
   3  86  29   3
   3  86  29   4
   3  86   3  29
   3  86   3  63
   3  86  63   3
   3  86  63  89
   3  86  89  87
   3  86  89  63
   3  87  53  89
   4  87  53  54  88
   3  87  88  86
   4  87  88  54  53
   3  87  86  88
   3  87  86  89
   3  87  89  86
   3  87  89  53
   3  88  54  90
   4  88  54  53  87
   3  88  90  86
   3  88  90  54
   3  88  86  87
   3  88  86  90
   3  88  87  86
   4  88  87  53  54
   3  89  87  53
   3  89  87  86
   3  89  86  87
   3  89  86  63
   3  89  63  84
   3  89  63  86
   3  89  84  53
   3  89  84  63
   3  89  53  84
   3  89  53  87
   3  90  85  64
   3  90  85  54
   3  90  64  86
   3  90  64  85
   3  90  86  88
   3  90  86  64
   3  90  88  54
   3  90  88  86
   3  90  54  88
   3  90  54  85
   3  91  34  39
   3  91  34   9
   3  91  39  35
   3  91  39  34
   3  91  35  39
   3  91  35   2
   3  91   2  35
   3  91   2   9
   3  91   9  34
   3  91   9   2
   3  92  28 103
   3  92  28  93
   3  92 103  96
   3  92 103  28
   3  92  96  67
   3  92  96 103
   3  92  67  96
   4  92  67  68  93
   3  92  93  28
   4  92  93  68  67
   3  93  28  92
   3  93  28 104
   3  93  92  28
   4  93  92  67  68
   3  93  68  97
   4  93  68  67  92
   3  93  97 104
   3  93  97  68
   3  93 104  97
   3  93 104  28
   3  94  38 105
   3  94  38  22
   3  94 105  53
   3  94 105  38
   3  94  53  84
   3  94  53 105
   3  94  84  22
   3  94  84  53
   3  94  22  38
   3  94  22  84
   3  95  85  54
   3  95  85  23
   3  95  54 106
   3  95  54  85
   3  95 106  54
   3  95 106  45
   3  95  45 106
   3  95  45  23
   3  95  23  85
   3  95  23  45
   3  96  26  67
   3  96  26   0
   3  96  67  26
   3  96  67  92
   3  96  92 103
   3  96  92  67
   3  96 103   0
   3  96 103  92
   3  96   0  26
   3  96   0 103
   3  97 104  93
   3  97 104   1
   3  97  93  68
   3  97  93 104
   3  97  68  93
   3  97  68  27
   3  97  27   1
   3  97  27  68
   3  97   1 104
   3  97   1  27
   3  98  78  71
   3  98  78  59
   3  98  71  82
   3  98  71  78
   3  98  82  71
   3  98  82  59
   3  98  59  82
   3  98  59  78
   3  99  83  72
   3  99  83  59
   3  99  72  77
   3  99  72  83
   3  99  77  59
   3  99  77  72
   3  99  59  83
   3  99  59  77
   3 100  33  40
   3 100  33  55
   3 100  40  33
   3 100  40  57
   3 100  57  42
   3 100  57  40
   3 100  42  57
   4 100  42  41  30
   3 100  30  55
   4 100  30  41  42
   3 100  55  30
   3 100  55  33
   3 101  82  69
   3 101  82  59
   3 101  69  75
   3 101  69  82
   3 101  75  59
   3 101  75  69
   3 101  59  82
   3 101  59  75
   3 102  75  70
   3 102  75  59
   3 102  70  83
   3 102  70  75
   3 102  83  70
   3 102  83  59
   3 102  59  75
   3 102  59  83
   3 103   0  96
   3 103   0  28
   3 103  96  92
   3 103  96   0
   3 103  92  28
   3 103  92  96
   3 103  28   0
   3 103  28  92
   3 104  93  28
   3 104  93  97
   3 104  97  93
   3 104  97   1
   3 104   1  28
   3 104   1  97
   3 104  28  93
   3 104  28   1
   3 105  76  38
   4 105  76 107  53
   3 105  53  94
   4 105  53 107  76
   3 105  94  38
   3 105  94  53
   3 105  38  94
   3 105  38  76
   3 106  95  54
   3 106  95  45
   3 106  54  95
   4 106  54 108  76
   3 106  76  45
   4 106  76 108  54
   3 106  45  76
   3 106  45  95
   3 107  76 108
   4 107  76 105  53
   3 107 108  76
   4 107 108  54  53
   3 108 107  76
   4 108 107  53  54
   3 108  76 107
   4 108  76 106  54
