 COFF
         117        1164         117
  
  -6.6081667924002847        1.2462080876704826        6.7272896663836184       0.60000002384185791       0.60000002384185791       0.60000002384185791       0.80000001192092896     
  -6.6081667701517830       -1.2462080949610344        6.7272896627660073       0.60000002384185791       0.60000002384185791       0.60000002384185791       0.80000001192092896     
  -2.8516348347221214E-002  -2.1185469430213959        6.4805182289268215       0.60000002384185791       0.60000002384185791       0.60000002384185791       0.80000001192092896     
   7.4604654928891003       -1.1213488061282062        6.7417471057703144       0.60000002384185791       0.60000002384185791       0.60000002384185791       0.80000001192092896     
   7.4604654932512657        1.1213488058332926        6.7417471058672040       0.60000002384185791       0.60000002384185791       0.60000002384185791       0.80000001192092896     
  -2.8516348317595544E-002   2.1185469403819939        6.4805182315943126       0.60000002384185791       0.60000002384185791       0.60000002384185791       0.80000001192092896     
   1.1402618954427839       -1.7351020769127106        6.6936328745086726       0.60000002384185791       0.60000002384185791       0.60000002384185791       0.80000001192092896     
   1.1402618950284684        1.7351020760694020        6.6936328754277250       0.60000002384185791       0.60000002384185791       0.60000002384185791       0.80000001192092896     
  -1.1581286074660120        1.7326477799587241        6.6487186842656989       0.60000002384185791       0.60000002384185791       0.60000002384185791       0.80000001192092896     
  -1.1581286077937221       -1.7326477806578211        6.6487186835194345       0.60000002384185791       0.60000002384185791       0.60000002384185791       0.80000001192092896     
   2.0179055346604318       -1.3746727366506806        7.0107998756102665       0.60000002384185791       0.60000002384185791       0.60000002384185791       0.80000001192092896     
   2.0179055346502892        1.3746727363004154        7.0107998759679084       0.60000002384185791       0.60000002384185791       0.60000002384185791       0.80000001192092896     
  -2.0434986949268943        1.3965128976478824        6.9699217514711105       0.60000002384185791       0.60000002384185791       0.60000002384185791       0.80000001192092896     
  -2.0434986948857059       -1.3965128978863237        6.9699217512491822       0.60000002384185791       0.60000002384185791       0.60000002384185791       0.80000001192092896     
   3.0541950769098039       -1.3190321106488836        6.9939812768135861       0.60000002384185791       0.60000002384185791       0.60000002384185791       0.80000001192092896     
   3.0541950778346107        1.3190321103907925        6.9939812811075983       0.60000002384185791       0.60000002384185791       0.60000002384185791       0.80000001192092896     
  -3.0382729867004281        1.3142776629759139        6.9204076190111516       0.60000002384185791       0.60000002384185791       0.60000002384185791       0.80000001192092896     
  -3.0382729866248175       -1.3142776630966497        6.9204076183843686       0.60000002384185791       0.60000002384185791       0.60000002384185791       0.80000001192092896     
   4.0529967149628394       -1.2769182149169036        6.9984448596217312       0.60000002384185791       0.60000002384185791       0.60000002384185791       0.80000001192092896     
   4.0529967159002585        1.2769182146549181        6.9984448598540920       0.60000002384185791       0.60000002384185791       0.60000002384185791       0.80000001192092896     
  -4.0341514764850928        1.2451200119220471        6.9739524422329664       0.60000002384185791       0.60000002384185791       0.60000002384185791       0.80000001192092896     
  -4.0341514763633315       -1.2451200119065964        6.9739524422414112       0.60000002384185791       0.60000002384185791       0.60000002384185791       0.80000001192092896     
   5.0499666845366304       -1.4941454706159385        6.6468730192377734       0.60000002384185791       0.60000002384185791       0.60000002384185791       0.80000001192092896     
   5.0499666888886328        1.4941454706042594        6.6468730219520493       0.60000002384185791       0.60000002384185791       0.60000002384185791       0.80000001192092896     
   6.1102675558285453       -1.4286105659376198        6.6514143066325833       0.60000002384185791       0.60000002384185791       0.60000002384185791       0.80000001192092896     
   6.1102675558900934        1.4286105659517148        6.6514143066015636       0.60000002384185791       0.60000002384185791       0.60000002384185791       0.80000001192092896     
  -5.0012897165338712        1.4311820261236505        6.6424431769594747       0.60000002384185791       0.60000002384185791       0.60000002384185791       0.80000001192092896     
  -5.0012897166194277       -1.4311820261384003        6.6424431769473582       0.60000002384185791       0.60000002384185791       0.60000002384185791       0.80000001192092896     
  -7.8565038629043560       -3.5533676976530046E-008   6.6281550526044954       0.60000002384185791       0.60000002384185791       0.60000002384185791       0.80000001192092896     
   8.5826278021370257        1.8905237750756392E-009   6.7521163214543565       0.60000002384185791       0.60000002384185791       0.60000002384185791       0.80000001192092896     
  -2.2188806234556648      -0.99109520426787567        4.4050290753182608       0.60000002384185791       0.60000002384185791       0.60000002384185791       0.80000001192092896     
   1.2910499834783797       -1.6891152573145529        5.5263114055437743       0.60000002384185791       0.60000002384185791       0.60000002384185791       0.80000001192092896     
   1.2910498844458678        1.6891151925097923        5.5263114059785075       0.60000002384185791       0.60000002384185791       0.60000002384185791       0.80000001192092896     
  -2.5310177391049713        1.3546816953037351        5.7890002696728518       0.60000002384185791       0.60000002384185791       0.60000002384185791       0.80000001192092896     
  -2.5310177523039248       -1.3546817508067257        5.7890002704301846       0.60000002384185791       0.60000002384185791       0.60000002384185791       0.80000001192092896     
   2.0302898302209386E-002  -1.8372642632654528        5.1384410797348092       0.60000002384185791       0.60000002384185791       0.60000002384185791       0.80000001192092896     
   2.0302916826628058E-002   1.8372506936013251        5.1384410734842785       0.60000002384185791       0.60000002384185791       0.60000002384185791       0.80000001192092896     
   2.5506321513980552        1.3307066094223226        5.8033065846605627       0.60000002384185791       0.60000002384185791       0.60000002384185791       0.80000001192092896     
   4.1003472949860207       -1.2955377268476966        6.0347994314936013       0.60000002384185791       0.60000002384185791       0.60000002384185791       0.80000001192092896     
  -1.0916769445065493       -1.6482432185809863        4.7241710721027301       0.60000002384185791       0.60000002384185791       0.60000002384185791       0.80000001192092896     
  -1.0916762481823374        1.6482419221099851        4.7241712131740003       0.60000002384185791       0.60000002384185791       0.60000002384185791       0.80000001192092896     
  -1.6144124525506254      -0.96462233521532925        2.8981436797294258       0.60000002384185791       0.60000002384185791       0.60000002384185791       0.80000001192092896     
  -1.6144123543834292       0.96462215590857159        2.8981435844833618       0.60000002384185791       0.60000002384185791       0.60000002384185791       0.80000001192092896     
   1.1522984266481067        1.6373072714026997        4.3256584338648247       0.60000002384185791       0.60000002384185791       0.60000002384185791       0.80000001192092896     
   1.1522987436341459       -1.6373076653935907        4.3256584269402465       0.60000002384185791       0.60000002384185791       0.60000002384185791       0.80000001192092896     
   4.1003472662067022        1.2955378070051955        6.0347994274424543       0.60000002384185791       0.60000002384185791       0.60000002384185791       0.80000001192092896     
  -4.0643737739681294        1.2636136934091895        6.0907619183519506       0.60000002384185791       0.60000002384185791       0.60000002384185791       0.80000001192092896     
   2.4743590554513943       -1.1961378066471670E-008   4.7118988515937970       0.60000002384185791       0.60000002384185791       0.60000002384185791       0.80000001192092896     
   1.6312993141476706        1.2407869034328083        3.8990530169555093       0.60000002384185791       0.60000002384185791       0.60000002384185791       0.80000001192092896     
   1.6312994508212142       -1.2407872202394694        3.8990530085526718       0.60000002384185791       0.60000002384185791       0.60000002384185791       0.80000001192092896     
  0.12191655234469238        1.7109095302469233        4.0374895651557843       0.60000002384185791       0.60000002384185791       0.60000002384185791       0.80000001192092896     
  0.12191299157338295       -1.7108859858708236        4.0374895943942866       0.60000002384185791       0.60000002384185791       0.60000002384185791       0.80000001192092896     
   1.9176469085519381       -5.7369987217520307E-008   3.5588647498921309       0.60000002384185791       0.60000002384185791       0.60000002384185791       0.80000001192092896     
   5.1545766035778682      -0.75085636204041251        3.9744481212396505        1.0000000000000000        1.0000000000000000        0.0000000000000000        1.0000000000000000     
   5.1545765693252479       0.75085644354647996        3.9744481212396501        1.0000000000000000        1.0000000000000000        0.0000000000000000        1.0000000000000000     
  -3.3429305942820373       -1.6748836450816783E-008   5.1388985317162392       0.60000002384185791       0.60000002384185791       0.60000002384185791       0.80000001192092896     
 -0.86573025177969065       -1.5006353827882375        3.7724031333825296       0.60000002384185791       0.60000002384185791       0.60000002384185791       0.80000001192092896     
 -0.86573019929148698        1.5006352104494176        3.7724030715943160       0.60000002384185791       0.60000002384185791       0.60000002384185791       0.80000001192092896     
  -4.0643737742116546       -1.2636136948241041        6.0907619185089539       0.60000002384185791       0.60000002384185791       0.60000002384185791       0.80000001192092896     
  0.17562272472974025       -4.0476648163612096E-008   1.0535609148389919        1.0000000000000000        1.0000000000000000        0.0000000000000000        1.0000000000000000     
   1.0453316185992874        1.5042828281217473        3.2994165264987410       0.60000002384185791       0.60000002384185791       0.60000002384185791       0.80000001192092896     
   1.0453711351472272       -1.5042727426396503        3.2994165556054194       0.60000002384185791       0.60000002384185791       0.60000002384185791       0.80000001192092896     
   3.1759829012074952        3.9912375552491562E-009   4.9269935284960793       0.60000002384185791       0.60000002384185791       0.60000002384185791       0.80000001192092896     
   6.7685204090992919       -1.2564090774069747        6.1036453074284713       0.60000002384185791       0.60000002384185791       0.60000002384185791       0.80000001192092896     
   6.7685204024539400        1.2564090773018288        6.1036453034895217       0.60000002384185791       0.60000002384185791       0.60000002384185791       0.80000001192092896     
   2.5506321535093641       -1.3307066107203145        5.8033065783921680       0.60000002384185791       0.60000002384185791       0.60000002384185791       0.80000001192092896     
   1.8013074502957829        1.5045283794021609        4.9181557946672543       0.60000002384185791       0.60000002384185791       0.60000002384185791       0.80000001192092896     
  -5.0267707244730682       0.81561655029457891        4.5818974327962696        1.0000000000000000        1.0000000000000000        0.0000000000000000        1.0000000000000000     
  -5.0267707242563597      -0.81561655041981196        4.5818974327962705        1.0000000000000000        1.0000000000000000        0.0000000000000000        1.0000000000000000     
   1.4378036667067402        1.0571699531056842        2.8893327155742008       0.60000002384185791       0.60000002384185791       0.60000002384185791       0.80000001192092896     
   1.4378086272098773       -1.0571698831363463        2.8893327425480106       0.60000002384185791       0.60000002384185791       0.60000002384185791       0.80000001192092896     
  0.24273560368389444        1.5721228547474984        2.9998563146813999       0.60000002384185791       0.60000002384185791       0.60000002384185791       0.80000001192092896     
  0.24280613519454361       -1.5721072675449101        2.9998563112806562       0.60000002384185791       0.60000002384185791       0.60000002384185791       0.80000001192092896     
   1.8013077513487581       -1.5045283780928180        4.9181557826417164       0.60000002384185791       0.60000002384185791       0.60000002384185791       0.80000001192092896     
  -1.2624074834559496        1.7054099136110950        5.6885789654123213       0.60000002384185791       0.60000002384185791       0.60000002384185791       0.80000001192092896     
   1.6109121698908360       -5.3890275337916866E-007   2.6346381482491319       0.60000002384185791       0.60000002384185791       0.60000002384185791       0.80000001192092896     
   4.1079519569410641        2.9853138747918162E-008   5.9000239223402797       0.60000002384185791       0.60000002384185791       0.60000002384185791       0.80000001192092896     
 -0.49630839116136777       -1.3803908984933289        2.5771022852266317       0.60000002384185791       0.60000002384185791       0.60000002384185791       0.80000001192092896     
 -0.49630830380171598        1.3803910129629691        2.5771024173326302       0.60000002384185791       0.60000002384185791       0.60000002384185791       0.80000001192092896     
  -1.5962968775680229      -0.61471048210382484        2.0129502923650984       0.60000002384185791       0.60000002384185791       0.60000002384185791       0.80000001192092896     
  -1.5962969781638461       0.61471041429185691        2.0129503184701631       0.60000002384185791       0.60000002384185791       0.60000002384185791       0.80000001192092896     
  -4.0645173984522467       -4.8556869076157678E-010   5.8325023264518334       0.60000002384185791       0.60000002384185791       0.60000002384185791       0.80000001192092896     
  0.93331327902721084        1.3198702059250076        2.3389861095522719        1.0000000000000000       0.10000000149011612        0.0000000000000000       0.50000000000000000     
  0.93331106034935063       -1.3198707798296541        2.3389860772806634        1.0000000000000000       0.10000000149011612        0.0000000000000000       0.50000000000000000     
   5.9028656835082653       -1.3343646342908231        5.5998381209690917       0.60000002384185791       0.60000002384185791       0.60000002384185791       0.80000001192092896     
   5.9028656659361394        1.3343647035951904        5.5998381213070196       0.60000002384185791       0.60000002384185791       0.60000002384185791       0.80000001192092896     
   7.2419290239853176        6.5594464814273198E-009   5.8077037827860387       0.60000002384185791       0.60000002384185791       0.60000002384185791       0.80000001192092896     
   6.6195091355601949      -0.62382898966517519        4.7925828900431720       0.60000002384185791       0.60000002384185791       0.60000002384185791       0.80000001192092896     
   6.6195091354702642       0.62382898682516097        4.7925828906933887       0.60000002384185791       0.60000002384185791       0.60000002384185791       0.80000001192092896     
   6.4900279483913987      -0.96867515517567948        5.2134020410322561       0.60000002384185791       0.60000002384185791       0.60000002384185791       0.80000001192092896     
   6.4900279467600761       0.96867516001404008        5.2134020411541080       0.60000002384185791       0.60000002384185791       0.60000002384185791       0.80000001192092896     
  -1.2624075837060280       -1.7054099923746631        5.6885789595994316       0.60000002384185791       0.60000002384185791       0.60000002384185791       0.80000001192092896     
  -6.5649501194166318       0.65399928925615636        5.4956647531270884       0.60000002384185791       0.60000002384185791       0.60000002384185791       0.80000001192092896     
  -6.5649500924492150      -0.65399950650499661        5.4956647095618951       0.60000002384185791       0.60000002384185791       0.60000002384185791       0.80000001192092896     
   5.1451713130582331       -1.3705251224144563        5.5663119069452760       0.60000002384185791       0.60000002384185791       0.60000002384185791       0.80000001192092896     
   5.1451693073049132        1.3705365004850072        5.5663119116857631       0.60000002384185791       0.60000002384185791       0.60000002384185791       0.80000001192092896     
  -6.2778634018124642        1.0288374069485509        5.8395642403606951       0.60000002384185791       0.60000002384185791       0.60000002384185791       0.80000001192092896     
  -6.2778633947907752       -1.0288373967369742        5.8395642368493670       0.60000002384185791       0.60000002384185791       0.60000002384185791       0.80000001192092896     
  0.18804076625727223        1.3349037279149869        2.0951957866549633        1.0000000000000000       0.10000000149011612        0.0000000000000000       0.50000000000000000     
  0.18803945554016804       -1.3349038379692038        2.0951958446256143        1.0000000000000000       0.10000000149011612        0.0000000000000000       0.50000000000000000     
  -2.2188804186441939       0.99109476214908909        4.4050289447947391       0.60000002384185791       0.60000002384185791       0.60000002384185791       0.80000001192092896     
   1.2452199196597951       0.80701158565551512        2.0643458930527809        1.0000000000000000       0.10000000149011612        0.0000000000000000       0.50000000000000000     
   1.2452189531293991      -0.80701200728614075        2.0643458708110187        1.0000000000000000       0.10000000149011612        0.0000000000000000       0.50000000000000000     
  -7.0890261236651728       0.69239831321171619        6.1937380569169935       0.60000002384185791       0.60000002384185791       0.60000002384185791       0.80000001192092896     
  -7.0890263521154093      -0.69239924812038978        6.1937380261415402       0.60000002384185791       0.60000002384185791       0.60000002384185791       0.80000001192092896     
   4.5636143776693263       -1.0596149043340555        5.2332713034011960       0.60000002384185791       0.60000002384185791       0.60000002384185791       0.80000001192092896     
   4.5636117503921350        1.0596163112799037        5.2332713475914501       0.60000002384185791       0.60000002384185791       0.60000002384185791       0.80000001192092896     
   4.3240406010327108      -0.36702583873909073        4.7977000335262048       0.60000002384185791       0.60000002384185791       0.60000002384185791       0.80000001192092896     
   4.3240406353231702       0.36702587845140572        4.7977000516779977       0.60000002384185791       0.60000002384185791       0.60000002384185791       0.80000001192092896     
  -1.8466152918533159       -9.1032893801693829E-008   2.9239316434086793       0.60000002384185791       0.60000002384185791       0.60000002384185791       0.80000001192092896     
 -0.32783622945280638      -0.94977109855799269        1.8430275274379881        1.0000000000000000       0.10000000149011612        0.0000000000000000       0.50000000000000000     
 -0.32783608260415048       0.94977071130278634        1.8430276491644919        1.0000000000000000       0.10000000149011612        0.0000000000000000       0.50000000000000000     
   1.1542706438684616       -2.2642128793427149E-007   1.8286315406102980        1.0000000000000000       0.10000000149011612        0.0000000000000000       0.50000000000000000     
 -0.91881374185762987      -0.35209139110812993        1.4691021253062668        1.0000000000000000       0.10000000149011612        0.0000000000000000       0.50000000000000000     
 -0.91881379987501377       0.35209135401056157        1.4691021273600691        1.0000000000000000       0.10000000149011612        0.0000000000000000       0.50000000000000000     
  -5.0360578813076051        1.1991520156233495        5.6547633835210451       0.60000002384185791       0.60000002384185791       0.60000002384185791       0.80000001192092896     
  -5.0360578814072694       -1.1991520161426308        5.6547633833448643       0.60000002384185791       0.60000002384185791       0.60000002384185791       0.80000001192092896     
  
   3   0  26  96
   3   0  96  26
   3   0  96 103
   3   0 103  96
   3   0 103  28
   3   0  28 103
   4   0  28  92  96
   3   1  28 104
   4   1  28  93  97
   3   1 104  97
   3   1 104  28
   3   1  97 104
   3   1  97  27
   3   1  27  97
   3   2  35  91
   3   2  35  31
   3   2  31  35
   3   2  31   6
   3   2   6  31
   3   2   9  91
   3   2  91  35
   3   2  91   9
   3   3  29  86
   3   3  24  63
   3   3  63  24
   3   3  63  86
   3   3  86  29
   3   3  86  63
   3   4  29  86
   3   4  86  64
   3   4  86  29
   3   4  64  86
   3   4  64  25
   3   4  25  64
   3   5   7  32
   3   5  32  36
   3   5  32   7
   3   5  36  32
   3   5  36  74
   3   5  74  36
   3   5  74   8
   3   5   8  74
   3   6   2  31
   3   6  31   2
   3   6  31  65
   3   6  65  10
   3   6  65  31
   3   6  10  65
   3   7  11  37
   3   7  37  32
   3   7  37  11
   3   7  32  37
   3   7  32   5
   3   7   5  32
   3   8   5  74
   3   8  74   5
   3   8  74  33
   3   8  33  12
   3   8  33  74
   3   8  12  33
   3   9  13  34
   3   9  34  91
   3   9  34  13
   3   9  91  34
   3   9  91   2
   3   9   2  91
   3  10   6  65
   3  10  65  14
   3  10  65   6
   3  10  14  65
   3  11  15  37
   3  11  37   7
   3  11  37  15
   3  11   7  37
   3  12   8  33
   3  12  33  16
   3  12  33   8
   3  12  16  33
   3  13  17  34
   3  13  34   9
   3  13  34  17
   3  13   9  34
   3  14  10  65
   3  14  65  38
   3  14  65  10
   3  14  38  18
   3  14  38  65
   3  14  18  38
   3  15  19  45
   3  15  45  37
   3  15  45  19
   3  15  37  45
   3  15  37  11
   3  15  11  37
   3  16  12  33
   3  16  33  46
   3  16  33  12
   3  16  46  20
   3  16  46  33
   3  16  20  46
   3  17  21  58
   3  17  58  34
   3  17  58  21
   3  17  34  58
   3  17  34  13
   3  17  13  34
   3  18  14  38
   3  18  38  22
   3  18  38  14
   3  18  22  38
   3  19  23  45
   3  19  45  15
   3  19  45  23
   3  19  15  45
   3  20  16  46
   3  20  46  26
   3  20  46  16
   3  20  26  46
   3  21  27  58
   3  21  58  17
   3  21  58  27
   3  21  17  58
   3  22  18  38
   3  22  38  94
   3  22  38  18
   3  22  94  38
   3  22  94  84
   3  22  84  94
   3  22  84  24
   3  22  24  84
   3  23  25  85
   3  23  85  95
   3  23  85  25
   3  23  95  85
   3  23  95  45
   3  23  45  19
   3  23  45  95
   3  23  19  45
   3  24  22  84
   3  24  84  22
   3  24  84  63
   3  24  63   3
   3  24  63  84
   3  24   3  63
   3  25   4  64
   3  25  64   4
   3  25  64  85
   3  25  85  64
   3  25  85  23
   3  25  23  85
   3  26  20  46
   3  26  46 115
   3  26  46  20
   3  26 115  46
   3  26 115  96
   3  26  96 115
   3  26  96   0
   3  26   0  96
   3  27   1  97
   3  27  97 116
   3  27  97   1
   3  27 116  97
   3  27 116  58
   3  27  58  21
   3  27  58 116
   3  27  21  58
   3  28   0 103
   4  28   0  96  92
   3  28 103   0
   3  28 103  92
   3  28  92 103
   3  28  92  93
   3  28  93  92
   3  28  93 104
   3  28 104  93
   3  28 104   1
   3  28   1 104
   4  28   1  97  93
   3  29   3  86
   3  29  86   4
   3  29  86   3
   3  29   4  86
   3  30  34  55
   3  30  34  39
   3  30  55 100
   3  30  55  34
   3  30 100 109
   3  30 100  55
   3  30 109 100
   3  30 109  41
   3  30  41  56
   3  30  41 109
   3  30  56  39
   3  30  56  41
   3  30  39  34
   3  30  39  56
   3  31   2  35
   3  31   2   6
   3  31  35  44
   3  31  35   2
   3  31  44  73
   3  31  44  35
   3  31  73  65
   3  31  73  44
   3  31  65   6
   3  31  65  73
   3  31   6   2
   3  31   6  65
   3  32  37  66
   3  32  37   7
   3  32  66  37
   3  32  66  43
   3  32  43  36
   3  32  43  66
   3  32  36  43
   3  32  36   5
   3  32   5   7
   3  32   5  36
   3  32   7  37
   3  32   7   5
   3  33  46  16
   3  33  46  55
   3  33  16  12
   3  33  16  46
   3  33  12   8
   3  33  12  16
   3  33   8  74
   3  33   8  12
   3  33  74  40
   3  33  74   8
   3  33  40 100
   3  33  40  74
   3  33 100  40
   3  33 100  55
   3  33  55 100
   3  33  55  46
   3  34  58  55
   3  34  58  17
   3  34  55  30
   3  34  55  58
   3  34  30  55
   3  34  30  39
   3  34  39  91
   3  34  39  30
   3  34  91  39
   3  34  91   9
   3  34   9  13
   3  34   9  91
   3  34  13  17
   3  34  13   9
   3  34  17  58
   3  34  17  13
   3  35  91  39
   3  35  91   2
   3  35  39  91
   3  35  39  51
   3  35  51  44
   3  35  51  39
   3  35  44  31
   3  35  44  51
   3  35  31   2
   3  35  31  44
   3  35   2  31
   3  35   2  91
   3  36  32  43
   3  36  32   5
   3  36  43  32
   3  36  43  50
   3  36  50  40
   3  36  50  43
   3  36  40  74
   3  36  40  50
   3  36  74   5
   3  36  74  40
   3  36   5  32
   3  36   5  74
   3  37  45  62
   3  37  45  15
   3  37  62  47
   3  37  62  45
   3  37  47  62
   3  37  47  66
   3  37  66  47
   3  37  66  32
   3  37  32  66
   3  37  32   7
   3  37   7  11
   3  37   7  32
   3  37  11  15
   3  37  11   7
   3  37  15  45
   3  37  15  11
   3  38 105  76
   3  38 105  94
   3  38  94 105
   3  38  94  22
   3  38  22  18
   3  38  22  94
   3  38  18  14
   3  38  18  22
   3  38  14  65
   3  38  14  18
   3  38  65  14
   3  38  65  62
   3  38  62  76
   3  38  62  65
   3  38  76  62
   3  38  76 105
   3  39  35  91
   3  39  35  51
   3  39  91  34
   3  39  91  35
   3  39  34  30
   3  39  34  91
   3  39  30  34
   3  39  30  56
   3  39  56  51
   3  39  56  30
   3  39  51  35
   3  39  51  56
   3  40 100  33
   3  40 100  57
   3  40  33  74
   3  40  33 100
   3  40  74  36
   3  40  74  33
   3  40  36  50
   3  40  36  74
   3  40  50  36
   3  40  50  57
   3  40  57 100
   3  40  57  50
   3  41  79 109
   3  41  79 110
   3  41 110  77
   3  41 110  79
   3  41  77 110
   3  41  77  56
   3  41  56  30
   3  41  56  77
   3  41  30 109
   3  41  30  56
   3  41 109  30
   3  41 109  79
   3  42  80 111
   3  42  80 109
   3  42 109 100
   3  42 109  80
   3  42 100  57
   3  42 100 109
   3  42  57 100
   3  42  57  78
   3  42  78 111
   3  42  78  57
   3  42 111  80
   3  42 111  78
   3  43  36  32
   3  43  36  50
   3  43  32  66
   3  43  32  36
   3  43  66  48
   3  43  66  32
   3  43  48  66
   3  43  48  60
   3  43  60  48
   3  43  60  50
   3  43  50  36
   3  43  50  60
   3  44  73  49
   3  44  73  31
   3  44  31  35
   3  44  31  73
   3  44  35  51
   3  44  35  31
   3  44  51  35
   3  44  51  61
   3  44  61  51
   3  44  61  49
   3  44  49  73
   3  44  49  61
   3  45 106  95
   3  45 106  76
   3  45  76  62
   3  45  76 106
   3  45  62  37
   3  45  62  76
   3  45  37  62
   3  45  37  15
   3  45  15  19
   3  45  15  37
   3  45  19  23
   3  45  19  15
   3  45  23  95
   3  45  23  19
   3  45  95 106
   3  45  95  23
   3  46  67 115
   3  46  67  81
   3  46 115  67
   3  46 115  26
   3  46  26  20
   3  46  26 115
   3  46  20  16
   3  46  20  26
   3  46  16  33
   3  46  16  20
   3  46  33  16
   3  46  33  55
   3  46  55  81
   3  46  55  33
   3  46  81  55
   3  46  81  67
   3  47  37  62
   3  47  37  66
   3  47  62  37
   3  47  62  65
   3  47  65  73
   3  47  65  62
   3  47  73  49
   3  47  73  65
   3  47  49  73
   3  47  49  52
   3  47  52  48
   3  47  52  49
   3  47  48  66
   3  47  48  52
   3  47  66  37
   3  47  66  48
   3  48  43  66
   3  48  43  60
   3  48  66  47
   3  48  66  43
   3  48  47  52
   3  48  47  66
   3  48  52  47
   3  48  52  69
   3  48  69  52
   3  48  69  60
   3  48  60  69
   3  48  60  43
   3  49  47  73
   3  49  47  52
   3  49  73  47
   3  49  73  44
   3  49  44  73
   3  49  44  61
   3  49  61  70
   3  49  61  44
   3  49  70  61
   3  49  70  52
   3  49  52  47
   3  49  52  70
   3  50  40  36
   3  50  40  57
   3  50  36  43
   3  50  36  40
   3  50  43  36
   3  50  43  60
   3  50  60  71
   3  50  60  43
   3  50  71  60
   3  50  71  57
   3  50  57  40
   3  50  57  71
   3  51  44  35
   3  51  44  61
   3  51  35  39
   3  51  35  44
   3  51  39  35
   3  51  39  56
   3  51  56  39
   3  51  56  72
   3  51  72  56
   3  51  72  61
   3  51  61  72
   3  51  61  44
   3  52  48  47
   3  52  48  69
   3  52  47  49
   3  52  47  48
   3  52  49  47
   3  52  49  70
   3  52  70  75
   3  52  70  49
   3  52  75  70
   3  52  75  69
   3  52  69  75
   3  52  69  48
   3  53  89  87
   3  53  89  84
   3  53  84  94
   3  53  84  89
   3  53  94 105
   3  53  94  84
   3  53 105  94
   4  53 105  76 107
   3  53  87  89
   4  53  87  88  54
   3  54  90  85
   3  54  90  88
   3  54  88  90
   4  54  88  87  53
   3  54 106  95
   4  54 106  76 108
   3  54  95  85
   3  54  95 106
   3  54  85  90
   3  54  85  95
   3  55 100  33
   3  55 100  30
   3  55  30  34
   3  55  30 100
   3  55  34  58
   3  55  34  30
   3  55  58  81
   3  55  58  34
   3  55  81  58
   3  55  81  46
   3  55  46  33
   3  55  46  81
   3  55  33  46
   3  55  33 100
   3  56  51  39
   3  56  51  72
   3  56  39  30
   3  56  39  51
   3  56  30  41
   3  56  30  39
   3  56  41  77
   3  56  41  30
   3  56  77  41
   3  56  77  72
   3  56  72  77
   3  56  72  51
   3  57  42 100
   3  57  42  78
   3  57 100  40
   3  57 100  42
   3  57  40 100
   3  57  40  50
   3  57  50  40
   3  57  50  71
   3  57  71  78
   3  57  71  50
   3  57  78  71
   3  57  78  42
   3  58  68  81
   3  58  68 116
   3  58  81  55
   3  58  81  68
   3  58  55  34
   3  58  55  81
   3  58  34  55
   3  58  34  17
   3  58  17  21
   3  58  17  34
   3  58  21  27
   3  58  21  17
   3  58  27 116
   3  58  27  21
   3  58 116  68
   3  58 116  27
   3  59  98  82
   3  59  98 111
   3  59  82 101
   3  59  82  98
   3  59 101  82
   3  59 101 112
   3  59 112 101
   3  59 112 102
   3  59 102  83
   3  59 102 112
   3  59  83  99
   3  59  83 102
   3  59  99  83
   3  59  99 110
   3  59 110  99
   4  59 110  79 113
   3  59 113 114
   4  59 113  79 110
   3  59 114 113
   4  59 114  80 111
   3  59 111  98
   4  59 111  80 114
   3  60  48  43
   3  60  48  69
   3  60  69  82
   3  60  69  48
   3  60  82  71
   3  60  82  69
   3  60  71  82
   3  60  71  50
   3  60  50  43
   3  60  50  71
   3  60  43  48
   3  60  43  50
   3  61  51  44
   3  61  51  72
   3  61  72  83
   3  61  72  51
   3  61  83  70
   3  61  83  72
   3  61  70  83
   3  61  70  49
   3  61  49  44
   3  61  49  70
   3  61  44  51
   3  61  44  49
   3  62  47  37
   3  62  47  65
   3  62  37  45
   3  62  37  47
   3  62  45  76
   3  62  45  37
   3  62  76  45
   3  62  76  38
   3  62  38  65
   3  62  38  76
   3  62  65  38
   3  62  65  47
   3  63   3  24
   3  63   3  86
   3  63  24  84
   3  63  24   3
   3  63  84  89
   3  63  84  24
   3  63  89  86
   3  63  89  84
   3  63  86   3
   3  63  86  89
   3  64   4  86
   3  64   4  25
   3  64  86  90
   3  64  86   4
   3  64  90  85
   3  64  90  86
   3  64  85  90
   3  64  85  25
   3  64  25   4
   3  64  25  85
   3  65  38  14
   3  65  38  62
   3  65  14  10
   3  65  14  38
   3  65  10   6
   3  65  10  14
   3  65   6  31
   3  65   6  10
   3  65  31  73
   3  65  31   6
   3  65  73  47
   3  65  73  31
   3  65  47  62
   3  65  47  73
   3  65  62  47
   3  65  62  38
   3  66  37  47
   3  66  37  32
   3  66  47  37
   3  66  47  48
   3  66  48  43
   3  66  48  47
   3  66  43  32
   3  66  43  48
   3  66  32  37
   3  66  32  43
   3  67  96 115
   3  67  96  92
   3  67 115  46
   3  67 115  96
   3  67  46 115
   3  67  46  81
   3  67  81  68
   3  67  81  46
   3  67  68  81
   4  67  68  93  92
   3  67  92  96
   4  67  92  93  68
   3  68  97  93
   3  68  97 116
   3  68  93  97
   4  68  93  92  67
   3  68  67  81
   4  68  67  92  93
   3  68  81  58
   3  68  81  67
   3  68  58  81
   3  68  58 116
   3  68 116  97
   3  68 116  58
   3  69  52  48
   3  69  52  75
   3  69  75 101
   3  69  75  52
   3  69 101  82
   3  69 101  75
   3  69  82  60
   3  69  82 101
   3  69  60  48
   3  69  60  82
   3  69  48  52
   3  69  48  60
   3  70  61  83
   3  70  61  49
   3  70  83  61
   3  70  83 102
   3  70 102  75
   3  70 102  83
   3  70  75 102
   3  70  75  52
   3  70  52  49
   3  70  52  75
   3  70  49  61
   3  70  49  52
   3  71  60  82
   3  71  60  50
   3  71  82  60
   3  71  82  98
   3  71  98  78
   3  71  98  82
   3  71  78  98
   3  71  78  57
   3  71  57  50
   3  71  57  78
   3  71  50  60
   3  71  50  57
   3  72  56  51
   3  72  56  77
   3  72  77  99
   3  72  77  56
   3  72  99  83
   3  72  99  77
   3  72  83  61
   3  72  83  99
   3  72  61  51
   3  72  61  83
   3  72  51  56
   3  72  51  61
   3  73  49  47
   3  73  49  44
   3  73  47  65
   3  73  47  49
   3  73  65  31
   3  73  65  47
   3  73  31  44
   3  73  31  65
   3  73  44  31
   3  73  44  49
   3  74   5  36
   3  74   5   8
   3  74  36  40
   3  74  36   5
   3  74  40  33
   3  74  40  36
   3  74  33   8
   3  74  33  40
   3  74   8   5
   3  74   8  33
   3  75  70 102
   3  75  70  52
   3  75 102  70
   3  75 102 112
   3  75 112 101
   3  75 112 102
   3  75 101  69
   3  75 101 112
   3  75  69  52
   3  75  69 101
   3  75  52  70
   3  75  52  69
   3  76  62  45
   3  76  62  38
   3  76  45 106
   3  76  45  62
   3  76 106  45
   4  76 106  54 108
   3  76 108 107
   4  76 108  54 106
   3  76 107 108
   4  76 107  53 105
   3  76 105  38
   4  76 105  53 107
   3  76  38 105
   3  76  38  62
   3  77  41 110
   3  77  41  56
   3  77 110  99
   3  77 110  41
   3  77  99  72
   3  77  99 110
   3  77  72  56
   3  77  72  99
   3  77  56  41
   3  77  56  72
   3  78  71  98
   3  78  71  57
   3  78  98  71
   3  78  98 111
   3  78 111  42
   3  78 111  98
   3  78  42  57
   3  78  42 111
   3  78  57  42
   3  78  57  71
   3  79  41 110
   3  79  41 109
   3  79 109  80
   3  79 109  41
   3  79  80 109
   4  79  80 114 113
   3  79 110  41
   4  79 110  59 113
   3  80  42 109
   3  80  42 111
   3  80 111  42
   4  80 111  59 114
   3  80  79 109
   4  80  79 113 114
   3  80 109  42
   3  80 109  79
   3  81  55  58
   3  81  55  46
   3  81  58  68
   3  81  58  55
   3  81  68  67
   3  81  68  58
   3  81  67  46
   3  81  67  68
   3  81  46  67
   3  81  46  55
   3  82  71  60
   3  82  71  98
   3  82  60  69
   3  82  60  71
   3  82  69 101
   3  82  69  60
   3  82 101  69
   3  82 101  59
   3  82  59  98
   3  82  59 101
   3  82  98  71
   3  82  98  59
   3  83  70  61
   3  83  70 102
   3  83  61  72
   3  83  61  70
   3  83  72  99
   3  83  72  61
   3  83  99  72
   3  83  99  59
   3  83  59 102
   3  83  59  99
   3  83 102  70
   3  83 102  59
   3  84  22  94
   3  84  22  24
   3  84  94  53
   3  84  94  22
   3  84  53  89
   3  84  53  94
   3  84  89  63
   3  84  89  53
   3  84  63  24
   3  84  63  89
   3  84  24  22
   3  84  24  63
   3  85  64  90
   3  85  64  25
   3  85  90  64
   3  85  90  54
   3  85  54  90
   3  85  54  95
   3  85  95  54
   3  85  95  23
   3  85  23  25
   3  85  23  95
   3  85  25  64
   3  85  25  23
   3  86  87  88
   3  86  87  89
   3  86  88  90
   3  86  88  87
   3  86  90  64
   3  86  90  88
   3  86  64   4
   3  86  64  90
   3  86   4  29
   3  86   4  64
   3  86  29   3
   3  86  29   4
   3  86   3  29
   3  86   3  63
   3  86  63   3
   3  86  63  89
   3  86  89  87
   3  86  89  63
   3  87  53  89
   4  87  53  54  88
   3  87  88  86
   4  87  88  54  53
   3  87  86  88
   3  87  86  89
   3  87  89  86
   3  87  89  53
   3  88  54  90
   4  88  54  53  87
   3  88  90  86
   3  88  90  54
   3  88  86  87
   3  88  86  90
   3  88  87  86
   4  88  87  53  54
   3  89  87  53
   3  89  87  86
   3  89  86  87
   3  89  86  63
   3  89  63  84
   3  89  63  86
   3  89  84  53
   3  89  84  63
   3  89  53  84
   3  89  53  87
   3  90  85  64
   3  90  85  54
   3  90  64  86
   3  90  64  85
   3  90  86  88
   3  90  86  64
   3  90  88  54
   3  90  88  86
   3  90  54  88
   3  90  54  85
   3  91  34  39
   3  91  34   9
   3  91  39  35
   3  91  39  34
   3  91  35  39
   3  91  35   2
   3  91   2  35
   3  91   2   9
   3  91   9  34
   3  91   9   2
   3  92  28 103
   3  92  28  93
   3  92 103  96
   3  92 103  28
   3  92  96  67
   3  92  96 103
   3  92  67  96
   4  92  67  68  93
   3  92  93  28
   4  92  93  68  67
   3  93  28  92
   3  93  28 104
   3  93  92  28
   4  93  92  67  68
   3  93  68  97
   4  93  68  67  92
   3  93  97 104
   3  93  97  68
   3  93 104  97
   3  93 104  28
   3  94  38 105
   3  94  38  22
   3  94 105  53
   3  94 105  38
   3  94  53  84
   3  94  53 105
   3  94  84  22
   3  94  84  53
   3  94  22  38
   3  94  22  84
   3  95  85  54
   3  95  85  23
   3  95  54 106
   3  95  54  85
   3  95 106  54
   3  95 106  45
   3  95  45 106
   3  95  45  23
   3  95  23  85
   3  95  23  45
   3  96  26 115
   3  96  26   0
   3  96 115  67
   3  96 115  26
   3  96  67 115
   3  96  67  92
   3  96  92 103
   3  96  92  67
   3  96 103   0
   3  96 103  92
   3  96   0  26
   3  96   0 103
   3  97 104  93
   3  97 104   1
   3  97  93  68
   3  97  93 104
   3  97  68  93
   3  97  68 116
   3  97 116  68
   3  97 116  27
   3  97  27   1
   3  97  27 116
   3  97   1 104
   3  97   1  27
   3  98  78  71
   3  98  78 111
   3  98  71  82
   3  98  71  78
   3  98  82  71
   3  98  82  59
   3  98  59  82
   3  98  59 111
   3  98 111  78
   3  98 111  59
   3  99  83  72
   3  99  83  59
   3  99  72  77
   3  99  72  83
   3  99  77 110
   3  99  77  72
   3  99 110  77
   3  99 110  59
   3  99  59  83
   3  99  59 110
   3 100  33  40
   3 100  33  55
   3 100  40  33
   3 100  40  57
   3 100  57  42
   3 100  57  40
   3 100  42 109
   3 100  42  57
   3 100 109  30
   3 100 109  42
   3 100  30  55
   3 100  30 109
   3 100  55  30
   3 100  55  33
   3 101  82  69
   3 101  82  59
   3 101  69  75
   3 101  69  82
   3 101  75 112
   3 101  75  69
   3 101 112  75
   3 101 112  59
   3 101  59  82
   3 101  59 112
   3 102  75  70
   3 102  75 112
   3 102  70  83
   3 102  70  75
   3 102  83  70
   3 102  83  59
   3 102  59 112
   3 102  59  83
   3 102 112  75
   3 102 112  59
   3 103   0  96
   3 103   0  28
   3 103  96  92
   3 103  96   0
   3 103  92  28
   3 103  92  96
   3 103  28   0
   3 103  28  92
   3 104  93  28
   3 104  93  97
   3 104  97  93
   3 104  97   1
   3 104   1  28
   3 104   1  97
   3 104  28  93
   3 104  28   1
   3 105  76  38
   4 105  76 107  53
   3 105  53  94
   4 105  53 107  76
   3 105  94  38
   3 105  94  53
   3 105  38  94
   3 105  38  76
   3 106  95  54
   3 106  95  45
   3 106  54  95
   4 106  54 108  76
   3 106  76  45
   4 106  76 108  54
   3 106  45  76
   3 106  45  95
   3 107  76 108
   4 107  76 105  53
   3 107 108  76
   4 107 108  54  53
   3 108 107  76
   4 108 107  53  54
   3 108  76 107
   4 108  76 106  54
   3 109  30 100
   3 109  30  41
   3 109 100  42
   3 109 100  30
   3 109  42  80
   3 109  42 100
   3 109  80  42
   3 109  80  79
   3 109  79  41
   3 109  79  80
   3 109  41  79
   3 109  41  30
   3 110  99  77
   3 110  99  59
   3 110  77  41
   3 110  77  99
   3 110  41  79
   3 110  41  77
   3 110  79  41
   4 110  79 113  59
   3 110  59  99
   4 110  59 113  79
   3 111  80  42
   4 111  80 114  59
   3 111  42  80
   3 111  42  78
   3 111  78  98
   3 111  78  42
   3 111  98  78
   3 111  98  59
   3 111  59  98
   4 111  59 114  80
   3 112 101  75
   3 112 101  59
   3 112  75 102
   3 112  75 101
   3 112 102  75
   3 112 102  59
   3 112  59 101
   3 112  59 102
   3 113  59 114
   4 113  59 110  79
   3 113 114  59
   4 113 114  80  79
   3 114  59 113
   4 114  59 111  80
   3 114 113  59
   4 114 113  79  80
   3 115  46  67
   3 115  46  26
   3 115  67  96
   3 115  67  46
   3 115  96  26
   3 115  96  67
   3 115  26  46
   3 115  26  96
   3 116  97  68
   3 116  97  27
   3 116  68  97
   3 116  68  58
   3 116  58  68
   3 116  58  27
   3 116  27  97
   3 116  27  58
