 COFF
         130        1312         130
  
  -6.6420949588118194        1.3189582018363564        7.0557455853607154       0.60000002384185791       0.60000002384185791       0.60000002384185791       0.80000001192092896     
  -6.6420949397363902       -1.3189582090128638        7.0557455777071265       0.60000002384185791       0.60000002384185791       0.60000002384185791       0.80000001192092896     
  -2.8762749789745516E-002  -2.1612763083427522        6.8355411922230758       0.60000002384185791       0.60000002384185791       0.60000002384185791       0.80000001192092896     
   7.4902921822952173       -1.1750490075991653        7.0825182457304638       0.60000002384185791       0.60000002384185791       0.60000002384185791       0.80000001192092896     
   7.4902921821755113        1.1750490060101813        7.0825182472013575       0.60000002384185791       0.60000002384185791       0.60000002384185791       0.80000001192092896     
  -2.8762749757819246E-002   2.1612763055099746        6.8355411951559093       0.60000002384185791       0.60000002384185791       0.60000002384185791       0.80000001192092896     
   1.1531634694681070       -1.7742716726769221        7.0530497429437187       0.60000002384185791       0.60000002384185791       0.60000002384185791       0.80000001192092896     
   1.1531634689233436        1.7742716725682515        7.0530497431457659       0.60000002384185791       0.60000002384185791       0.60000002384185791       0.80000001192092896     
  -1.1664862179495776        1.7746971895382349        7.0050797580105613       0.60000002384185791       0.60000002384185791       0.60000002384185791       0.80000001192092896     
  -1.1664862182663081       -1.7746971902637056        7.0050797572005941       0.60000002384185791       0.60000002384185791       0.60000002384185791       0.80000001192092896     
   2.0279602921180562       -1.4133069288595939        7.3774067455105534       0.60000002384185791       0.60000002384185791       0.60000002384185791       0.80000001192092896     
   2.0279602927326303        1.4133069302077945        7.3774067441330917       0.60000002384185791       0.60000002384185791       0.60000002384185791       0.80000001192092896     
  -2.0481833377767256        1.4373005523959521        7.3349475087565059       0.60000002384185791       0.60000002384185791       0.60000002384185791       0.80000001192092896     
  -2.0481833377726875       -1.4373005527476139        7.3349475084204636       0.60000002384185791       0.60000002384185791       0.60000002384185791       0.80000001192092896     
   3.0527120857761170       -1.3700181360934356        7.3484675638006536       0.60000002384185791       0.60000002384185791       0.60000002384185791       0.80000001192092896     
   3.0527120866316464        1.3700181436796641        7.3484675602364700       0.60000002384185791       0.60000002384185791       0.60000002384185791       0.80000001192092896     
  -3.0430842017426172        1.3730630516090743        7.2652416101553428       0.60000002384185791       0.60000002384185791       0.60000002384185791       0.80000001192092896     
  -3.0430842017014217       -1.3730630517776801        7.2652416094564067       0.60000002384185791       0.60000002384185791       0.60000002384185791       0.80000001192092896     
   4.0516592809284653       -1.3312103813541869        7.3490200008543889       0.60000002384185791       0.60000002384185791       0.60000002384185791       0.80000001192092896     
   4.0516592817783028        1.3312103889098297        7.3490199931894580       0.60000002384185791       0.60000002384185791       0.60000002384185791       0.80000001192092896     
  -4.0396219343370765        1.3100304741710751        7.3141209574782007       0.60000002384185791       0.60000002384185791       0.60000002384185791       0.80000001192092896     
  -4.0396219342600519       -1.3100304742571829        7.3141209573889272       0.60000002384185791       0.60000002384185791       0.60000002384185791       0.80000001192092896     
   5.0436910950885947       -1.5717408174158556        6.9670202532294070       0.60000002384185791       0.60000002384185791       0.60000002384185791       0.80000001192092896     
   5.0436911014872052        1.5717407954671767        6.9670202780917307       0.60000002384185791       0.60000002384185791       0.60000002384185791       0.80000001192092896     
   6.1206680988446793       -1.4989079912301218        6.9791240396146295       0.60000002384185791       0.60000002384185791       0.60000002384185791       0.80000001192092896     
   6.1206680972749750        1.4989079818256446        6.9791240491430608       0.60000002384185791       0.60000002384185791       0.60000002384185791       0.80000001192092896     
  -4.9975373789095778        1.5206555867564628        6.9517749292762465       0.60000002384185791       0.60000002384185791       0.60000002384185791       0.80000001192092896     
  -4.9975373789961335       -1.5206555869435729        6.9517749290905444       0.60000002384185791       0.60000002384185791       0.60000002384185791       0.80000001192092896     
  -7.9618856924388526       -1.8202077327302813E-008   6.9394886221413357       0.60000002384185791       0.60000002384185791       0.60000002384185791       0.80000001192092896     
   8.6664503429224595        5.6399653352086724E-009   7.0990916983901338       0.60000002384185791       0.60000002384185791       0.60000002384185791       0.80000001192092896     
  -2.2490833579234244       -1.0301397959689524        4.6958460312096895       0.60000002384185791       0.60000002384185791       0.60000002384185791       0.80000001192092896     
   1.3082029823082848       -1.7294866124582293        5.8654055449220932       0.60000002384185791       0.60000002384185791       0.60000002384185791       0.80000001192092896     
   1.3082028808716670        1.7294865547757077        5.8654055438313213       0.60000002384185791       0.60000002384185791       0.60000002384185791       0.80000001192092896     
  -2.5535691451019242        1.4047245140383224        6.1212216611204227       0.60000002384185791       0.60000002384185791       0.60000002384185791       0.80000001192092896     
  -2.5535691819059156       -1.4047245638512635        6.1212216648415705       0.60000002384185791       0.60000002384185791       0.60000002384185791       0.80000001192092896     
   2.1882287758695031E-002  -1.8790150267259391        5.4633810924424271       0.60000002384185791       0.60000002384185791       0.60000002384185791       0.80000001192092896     
   2.1882833152262488E-002   1.8789928751475418        5.4633810876513431       0.60000002384185791       0.60000002384185791       0.60000002384185791       0.80000001192092896     
   2.5696938750130354        1.3731723792436987        6.1461402621991619       0.60000002384185791       0.60000002384185791       0.60000002384185791       0.80000001192092896     
   4.0998451699376099       -1.3432920255910830        6.3426019560103217       0.60000002384185791       0.60000002384185791       0.60000002384185791       0.80000001192092896     
  -1.1247971123439768       -1.6953075786168430        5.0436341067374890       0.60000002384185791       0.60000002384185791       0.60000002384185791       0.80000001192092896     
  -1.1247967748628298        1.6953065968827590        5.0436342148358912       0.60000002384185791       0.60000002384185791       0.60000002384185791       0.80000001192092896     
  -1.6534721240564370      -0.89331483390490463        3.1690840654629673       0.60000002384185791       0.60000002384185791       0.60000002384185791       0.80000001192092896     
  -1.6534721309494391       0.89331464111469461        3.1690838910908883       0.60000002384185791       0.60000002384185791       0.60000002384185791       0.80000001192092896     
   1.1729542812395268        1.6779526510072293        4.6458370831007905       0.60000002384185791       0.60000002384185791       0.60000002384185791       0.80000001192092896     
   1.1729543957742763       -1.6779533398132427        4.6458370794385191       0.60000002384185791       0.60000002384185791       0.60000002384185791       0.80000001192092896     
   4.0998453536380177        1.3432922543532617        6.3426019252378172       0.60000002384185791       0.60000002384185791       0.60000002384185791       0.80000001192092896     
  -4.0762366943485500        1.3279620950483786        6.3596726108042869       0.60000002384185791       0.60000002384185791       0.60000002384185791       0.80000001192092896     
   2.5151286550336374       -1.6146532920147986E-008   5.0235210494448932       0.60000002384185791       0.60000002384185791       0.60000002384185791       0.80000001192092896     
   1.6599133505878567        1.2723385144881769        4.2001896631235036       0.60000002384185791       0.60000002384185791       0.60000002384185791       0.80000001192092896     
   1.6599135737933122       -1.2723387894527438        4.2001896593518699       0.60000002384185791       0.60000002384185791       0.60000002384185791       0.80000001192092896     
  0.12229119565308501        1.7537483085510177        4.3334214768703392       0.60000002384185791       0.60000002384185791       0.60000002384185791       0.80000001192092896     
  0.12220646377675708       -1.7536441858644238        4.3334215011738264       0.60000002384185791       0.60000002384185791       0.60000002384185791       0.80000001192092896     
   1.9501453471897243       -8.5820153281322468E-008   3.8310897343795345       0.60000002384185791       0.60000002384185791       0.60000002384185791       0.80000001192092896     
   5.1991526882862766      -0.75079670132972975        3.9744481212396505        1.0000000000000000        1.0000000000000000        0.0000000000000000        1.0000000000000000     
   5.1991529439938633       0.75079695768011923        3.9744481212396501        1.0000000000000000        1.0000000000000000        0.0000000000000000        1.0000000000000000     
  -3.3557090685182600       -2.4860976015489432E-008   5.3867495916805916       0.60000002384185791       0.60000002384185791       0.60000002384185791       0.80000001192092896     
 -0.91759224851993137       -1.5284822718247280        4.0100648603762306       0.60000002384185791       0.60000002384185791       0.60000002384185791       0.80000001192092896     
 -0.91759230149362203        1.5284827037820206        4.0100648967111425       0.60000002384185791       0.60000002384185791       0.60000002384185791       0.80000001192092896     
  -4.0762366976910993       -1.3279621010512030        6.3596726109093353       0.60000002384185791       0.60000002384185791       0.60000002384185791       0.80000001192092896     
  0.18674504881780205       -5.5435335689107476E-008   1.0535609148389919        1.0000000000000000        1.0000000000000000        0.0000000000000000        1.0000000000000000     
   1.0614625701669631        1.5420756981689960        3.5909670643492637       0.60000002384185791       0.60000002384185791       0.60000002384185791       0.80000001192092896     
   1.0614099405966886       -1.5420412659538016        3.5909670945543684       0.60000002384185791       0.60000002384185791       0.60000002384185791       0.80000001192092896     
   3.1692150834416428        1.3143204372557831E-008   5.2269995002858520       0.60000002384185791       0.60000002384185791       0.60000002384185791       0.80000001192092896     
   6.7864287362500626       -1.3138186969739321        6.4380130921418814       0.60000002384185791       0.60000002384185791       0.60000002384185791       0.80000001192092896     
   6.7864287969317214        1.3138186662557167        6.4380131670534002       0.60000002384185791       0.60000002384185791       0.60000002384185791       0.80000001192092896     
   2.5696938812621797       -1.3731723620371439        6.1461402621589034       0.60000002384185791       0.60000002384185791       0.60000002384185791       0.80000001192092896     
   1.8235557664571680        1.5427765109762930        5.2360463169606115       0.60000002384185791       0.60000002384185791       0.60000002384185791       0.80000001192092896     
  -5.0460517723402383       0.81559908332230990        4.5818974327962696        1.0000000000000000        1.0000000000000000        0.0000000000000000        1.0000000000000000     
  -5.0460517744927289      -0.81559908905706757        4.5818974327962705        1.0000000000000000        1.0000000000000000        0.0000000000000000        1.0000000000000000     
   1.4648317748661013        1.0802711780294101        3.1571534517405162       0.60000002384185791       0.60000002384185791       0.60000002384185791       0.80000001192092896     
   1.4648233670467632       -1.0802059559962907        3.1571534542234776       0.60000002384185791       0.60000002384185791       0.60000002384185791       0.80000001192092896     
  0.22342685870218879        1.6091872895998656        3.2654701798141250       0.60000002384185791       0.60000002384185791       0.60000002384185791       0.80000001192092896     
  0.22340453676593339       -1.6090978708891035        3.2654701972331166       0.60000002384185791       0.60000002384185791       0.60000002384185791       0.80000001192092896     
   1.8235558977236748       -1.5427765351868910        5.2360463101186268       0.60000002384185791       0.60000002384185791       0.60000002384185791       0.80000001192092896     
  -1.2756705105946304        1.7496346378615359        6.0304313242746170       0.60000002384185791       0.60000002384185791       0.60000002384185791       0.80000001192092896     
   1.6385554695540170       -1.3521510760535276E-005   2.8666075589788793       0.60000002384185791       0.60000002384185791       0.60000002384185791       0.80000001192092896     
   4.1067860635513460        1.5593935583266184E-007   6.1942220411390414       0.60000002384185791       0.60000002384185791       0.60000002384185791       0.80000001192092896     
 -0.57472093080208353       -1.3838643889091125        2.8108978087102647        1.0000000000000000       0.10000000149011612        0.0000000000000000       0.50000000000000000     
 -0.57472108898783292        1.3838646510484656        2.8108979223971873        1.0000000000000000       0.10000000149011612        0.0000000000000000       0.50000000000000000     
  -1.7387252789627354      -0.53161756862043219        2.2911360820819642        1.0000000000000000       0.10000000149011612        0.0000000000000000       0.50000000000000000     
  -1.7387252110548754       0.53161746991068926        2.2911361073419103        1.0000000000000000       0.10000000149011612        0.0000000000000000       0.50000000000000000     
  -4.0774846798571227       -5.5473580694641659E-010   6.0797736315963462       0.60000002384185791       0.60000002384185791       0.60000002384185791       0.80000001192092896     
  0.95920716928448602        1.3852085257107907        2.5955053232900847        1.0000000000000000       0.10000000149011612        0.0000000000000000       0.50000000000000000     
  0.95909060922947309       -1.3850140578344308        2.5955053075570951        1.0000000000000000       0.10000000149011612        0.0000000000000000       0.50000000000000000     
   5.9651499357372781       -1.4024849637009460        5.8663570811468118       0.60000002384185791       0.60000002384185791       0.60000002384185791       0.80000001192092896     
   5.9651500854748800        1.4024850420780275        5.8663570596322412       0.60000002384185791       0.60000002384185791       0.60000002384185791       0.80000001192092896     
   7.3371896582432941        3.2146517903391460E-008   6.1068853759022170       0.60000002384185791       0.60000002384185791       0.60000002384185791       0.80000001192092896     
   6.7757018450954307      -0.69043081008294571        5.0101177533454555       0.60000002384185791       0.60000002384185791       0.60000002384185791       0.80000001192092896     
   6.7757018742148896       0.69043078673159952        5.0101177544895581       0.60000002384185791       0.60000002384185791       0.60000002384185791       0.80000001192092896     
   6.5687264502767979       -1.0356844457876049        5.4639189901501108       0.60000002384185791       0.60000002384185791       0.60000002384185791       0.80000001192092896     
   6.5687264877136746        1.0356844440155515        5.4639189962162682       0.60000002384185791       0.60000002384185791       0.60000002384185791       0.80000001192092896     
  -1.2756705971060567       -1.7496347154427738        6.0304313186224228       0.60000002384185791       0.60000002384185791       0.60000002384185791       0.80000001192092896     
  -6.8018714924720491       0.70559329197444565        5.7473823886598501       0.60000002384185791       0.60000002384185791       0.60000002384185791       0.80000001192092896     
  -6.8018714705172556      -0.70559354227045334        5.7473823527357188       0.60000002384185791       0.60000002384185791       0.60000002384185791       0.80000001192092896     
   5.1675676082939708       -1.4345864454748194        5.8057015532565996       0.60000002384185791       0.60000002384185791       0.60000002384185791       0.80000001192092896     
   5.1674818017241702        1.4344148556152931        5.8057016029392230       0.60000002384185791       0.60000002384185791       0.60000002384185791       0.80000001192092896     
  -6.4098166751369563        1.0941223354781575        6.1262213607673495       0.60000002384185791       0.60000002384185791       0.60000002384185791       0.80000001192092896     
  -6.4098166734839568       -1.0941224192948285        6.1262213521917346       0.60000002384185791       0.60000002384185791       0.60000002384185791       0.80000001192092896     
  0.23484531173372986        1.4321730793763916        2.3058639349284435        1.0000000000000000       0.10000000149011612        0.0000000000000000       0.50000000000000000     
  0.23484561913482058       -1.4321730895529605        2.3058639280888564        1.0000000000000000       0.10000000149011612        0.0000000000000000       0.50000000000000000     
  -2.2490831297237412        1.0301393669086454        4.6958458730318693       0.60000002384185791       0.60000002384185791       0.60000002384185791       0.80000001192092896     
   1.2873858170722661       0.89733125441081085        2.2731961641523211        1.0000000000000000       0.10000000149011612        0.0000000000000000       0.50000000000000000     
   1.2873868256028140      -0.89733171472464834        2.2731961082463554        1.0000000000000000       0.10000000149011612        0.0000000000000000       0.50000000000000000     
  -7.2163966749633222       0.69996979647550595        6.4771386742490691       0.60000002384185791       0.60000002384185791       0.60000002384185791       0.80000001192092896     
  -7.2163968177801658      -0.69997036454085371        6.4771386636914601       0.60000002384185791       0.60000002384185791       0.60000002384185791       0.80000001192092896     
   4.5442914172975408       -1.0514931927109998        5.5702624280535682       0.60000002384185791       0.60000002384185791       0.60000002384185791       0.80000001192092896     
   4.5442880829272383        1.0514385141136797        5.5702616307842590       0.60000002384185791       0.60000002384185791       0.60000002384185791       0.80000001192092896     
   4.2277416612161041      -0.36886364266832533        4.8822114291736547       0.60000002384185791       0.60000002384185791       0.60000002384185791       0.80000001192092896     
   4.2277421590925996       0.36886402307399418        4.8822123592721187       0.60000002384185791       0.60000002384185791       0.60000002384185791       0.80000001192092896     
  -2.0893764438985012       -7.7194834596001397E-008   3.2490282790609553       0.60000002384185791       0.60000002384185791       0.60000002384185791       0.80000001192092896     
 -0.58490681184249849       -1.1066144480422426        2.0916930096422686        1.0000000000000000       0.10000000149011612        0.0000000000000000       0.50000000000000000     
 -0.58490666410577929        1.1066144344714479        2.0916929884343882        1.0000000000000000       0.10000000149011612        0.0000000000000000       0.50000000000000000     
   1.4120031202955718       -2.7927920185176319E-005   2.0520647025044232        1.0000000000000000       0.10000000149011612        0.0000000000000000       0.50000000000000000     
  -1.2580050315150724      -0.40230422240758446        1.5015679072648420        1.0000000000000000       0.10000000149011612        0.0000000000000000       0.50000000000000000     
  -1.2580050758075791       0.40230417112179384        1.5015679253785308        1.0000000000000000       0.10000000149011612        0.0000000000000000       0.50000000000000000     
  -5.0628532287164241        1.3328347731172032        5.9132063429947443       0.60000002384185791       0.60000002384185791       0.60000002384185791       0.80000001192092896     
  -5.0628486496444483       -1.3328430146386454        5.9132063455992512       0.60000002384185791       0.60000002384185791       0.60000002384185791       0.80000001192092896     
  0.70912447392986910       0.98221741918288175        1.8055973165865424        1.0000000000000000       0.10000000149011612        0.0000000000000000       0.50000000000000000     
  0.70912396502171704      -0.98221754081586932        1.8055971660345225        1.0000000000000000       0.10000000149011612        0.0000000000000000       0.50000000000000000     
  -2.4404642334704261       -2.0203205550882850E-007   4.6224203520991596       0.60000002384185791       0.60000002384185791       0.60000002384185791       0.80000001192092896     
   5.6856413762879212       -1.1511387638876920        4.9427661744373665       0.60000002384185791       0.60000002384185791       0.60000002384185791       0.80000001192092896     
   5.6856418548746221        1.1511390424628498        4.9427660089255463       0.60000002384185791       0.60000002384185791       0.60000002384185791       0.80000001192092896     
  -5.9683552559471833       0.80267608855652339        5.1361574804059069       0.60000002384185791       0.60000002384185791       0.60000002384185791       0.80000001192092896     
  -5.9683552423510662      -0.80267620255107519        5.1361574649753790       0.60000002384185791       0.60000002384185791       0.60000002384185791       0.80000001192092896     
  -4.5103343433977976        1.0019940550481172        5.5039383214184170       0.60000002384185791       0.60000002384185791       0.60000002384185791       0.80000001192092896     
  -4.5103342262635691       -1.0019941995052921        5.5039383223507272       0.60000002384185791       0.60000002384185791       0.60000002384185791       0.80000001192092896     
  -5.7950079479922900       0.97038459578732783        5.3517970280944844       0.60000002384185791       0.60000002384185791       0.60000002384185791       0.80000001192092896     
  -5.7950079496778963      -0.97038468554532409        5.3517970110344564       0.60000002384185791       0.60000002384185791       0.60000002384185791       0.80000001192092896     
   5.9421837231306327      -0.91424307448082631        4.7093666148077693       0.60000002384185791       0.60000002384185791       0.60000002384185791       0.80000001192092896     
   5.9421838384677743       0.91424313723238060        4.7093665542053493       0.60000002384185791       0.60000002384185791       0.60000002384185791       0.80000001192092896     
  
   3   0  26  96
   3   0  96  26
   3   0  96 103
   3   0 103  96
   3   0 103  28
   3   0  28 103
   4   0  28  92  96
   3   1  28 104
   4   1  28  93  97
   3   1 104  97
   3   1 104  28
   3   1  97 104
   3   1  97  27
   3   1  27  97
   3   2  35  91
   3   2  35  31
   3   2  31  35
   3   2  31   6
   3   2   6  31
   3   2   9  91
   3   2  91  35
   3   2  91   9
   3   3  29  86
   3   3  24  63
   3   3  63  24
   3   3  63  86
   3   3  86  29
   3   3  86  63
   3   4  29  86
   3   4  86  64
   3   4  86  29
   3   4  64  86
   3   4  64  25
   3   4  25  64
   3   5   7  32
   3   5  32  36
   3   5  32   7
   3   5  36  32
   3   5  36  74
   3   5  74  36
   3   5  74   8
   3   5   8  74
   3   6   2  31
   3   6  31   2
   3   6  31  65
   3   6  65  10
   3   6  65  31
   3   6  10  65
   3   7  11  37
   3   7  37  32
   3   7  37  11
   3   7  32  37
   3   7  32   5
   3   7   5  32
   3   8   5  74
   3   8  74   5
   3   8  74  33
   3   8  33  12
   3   8  33  74
   3   8  12  33
   3   9  13  34
   3   9  34  91
   3   9  34  13
   3   9  91  34
   3   9  91   2
   3   9   2  91
   3  10   6  65
   3  10  65  14
   3  10  65   6
   3  10  14  65
   3  11  15  37
   3  11  37   7
   3  11  37  15
   3  11   7  37
   3  12   8  33
   3  12  33  16
   3  12  33   8
   3  12  16  33
   3  13  17  34
   3  13  34   9
   3  13  34  17
   3  13   9  34
   3  14  10  65
   3  14  65  38
   3  14  65  10
   3  14  38  18
   3  14  38  65
   3  14  18  38
   3  15  19  45
   3  15  45  37
   3  15  45  19
   3  15  37  45
   3  15  37  11
   3  15  11  37
   3  16  12  33
   3  16  33  46
   3  16  33  12
   3  16  46  20
   3  16  46  33
   3  16  20  46
   3  17  21  58
   3  17  58  34
   3  17  58  21
   3  17  34  58
   3  17  34  13
   3  17  13  34
   3  18  14  38
   3  18  38  22
   3  18  38  14
   3  18  22  38
   3  19  23  45
   3  19  45  15
   3  19  45  23
   3  19  15  45
   3  20  16  46
   3  20  46  26
   3  20  46  16
   3  20  26  46
   3  21  27  58
   3  21  58  17
   3  21  58  27
   3  21  17  58
   3  22  18  38
   3  22  38  94
   3  22  38  18
   3  22  94  38
   3  22  94  84
   3  22  84  94
   3  22  84  24
   3  22  24  84
   3  23  25  85
   3  23  85  95
   3  23  85  25
   3  23  95  85
   3  23  95  45
   3  23  45  19
   3  23  45  95
   3  23  19  45
   3  24  22  84
   3  24  84  22
   3  24  84  63
   3  24  63   3
   3  24  63  84
   3  24   3  63
   3  25   4  64
   3  25  64   4
   3  25  64  85
   3  25  85  64
   3  25  85  23
   3  25  23  85
   3  26  20  46
   3  26  46 115
   3  26  46  20
   3  26 115  46
   3  26 115  96
   3  26  96 115
   3  26  96   0
   3  26   0  96
   3  27   1  97
   3  27  97 116
   3  27  97   1
   3  27 116  97
   3  27 116  58
   3  27  58  21
   3  27  58 116
   3  27  21  58
   3  28   0 103
   4  28   0  96  92
   3  28 103   0
   3  28 103  92
   3  28  92 103
   3  28  92  93
   3  28  93  92
   3  28  93 104
   3  28 104  93
   3  28 104   1
   3  28   1 104
   4  28   1  97  93
   3  29   3  86
   3  29  86   4
   3  29  86   3
   3  29   4  86
   3  30  34  55
   3  30  34  39
   3  30  55 119
   3  30  55  34
   3  30 119  55
   3  30 119 109
   3  30 109 119
   3  30 109  41
   3  30  41  56
   3  30  41 109
   3  30  56  39
   3  30  56  41
   3  30  39  34
   3  30  39  56
   3  31   2  35
   3  31   2   6
   3  31  35  44
   3  31  35   2
   3  31  44  73
   3  31  44  35
   3  31  73  65
   3  31  73  44
   3  31  65   6
   3  31  65  73
   3  31   6   2
   3  31   6  65
   3  32  37  66
   3  32  37   7
   3  32  66  37
   3  32  66  43
   3  32  43  36
   3  32  43  66
   3  32  36  43
   3  32  36   5
   3  32   5   7
   3  32   5  36
   3  32   7  37
   3  32   7   5
   3  33  46  16
   3  33  46  55
   3  33  16  12
   3  33  16  46
   3  33  12   8
   3  33  12  16
   3  33   8  74
   3  33   8  12
   3  33  74  40
   3  33  74   8
   3  33  40 100
   3  33  40  74
   3  33 100  40
   3  33 100  55
   3  33  55 100
   3  33  55  46
   3  34  58  55
   3  34  58  17
   3  34  55  30
   3  34  55  58
   3  34  30  55
   3  34  30  39
   3  34  39  91
   3  34  39  30
   3  34  91  39
   3  34  91   9
   3  34   9  13
   3  34   9  91
   3  34  13  17
   3  34  13   9
   3  34  17  58
   3  34  17  13
   3  35  91  39
   3  35  91   2
   3  35  39  91
   3  35  39  51
   3  35  51  44
   3  35  51  39
   3  35  44  31
   3  35  44  51
   3  35  31   2
   3  35  31  44
   3  35   2  31
   3  35   2  91
   3  36  32  43
   3  36  32   5
   3  36  43  32
   3  36  43  50
   3  36  50  40
   3  36  50  43
   3  36  40  74
   3  36  40  50
   3  36  74   5
   3  36  74  40
   3  36   5  32
   3  36   5  74
   3  37  45  62
   3  37  45  15
   3  37  62  47
   3  37  62  45
   3  37  47  62
   3  37  47  66
   3  37  66  47
   3  37  66  32
   3  37  32  66
   3  37  32   7
   3  37   7  11
   3  37   7  32
   3  37  11  15
   3  37  11   7
   3  37  15  45
   3  37  15  11
   3  38 105  76
   3  38 105  94
   3  38  94 105
   3  38  94  22
   3  38  22  18
   3  38  22  94
   3  38  18  14
   3  38  18  22
   3  38  14  65
   3  38  14  18
   3  38  65  14
   3  38  65  62
   3  38  62  76
   3  38  62  65
   3  38  76  62
   3  38  76 105
   3  39  35  91
   3  39  35  51
   3  39  91  34
   3  39  91  35
   3  39  34  30
   3  39  34  91
   3  39  30  34
   3  39  30  56
   3  39  56  51
   3  39  56  30
   3  39  51  35
   3  39  51  56
   3  40 100  33
   3  40 100  57
   3  40  33  74
   3  40  33 100
   3  40  74  36
   3  40  74  33
   3  40  36  50
   3  40  36  74
   3  40  50  36
   3  40  50  57
   3  40  57 100
   3  40  57  50
   3  41  79 109
   3  41  79 110
   3  41 110  77
   3  41 110  79
   3  41  77 110
   3  41  77  56
   3  41  56  30
   3  41  56  77
   3  41  30 109
   3  41  30  56
   3  41 109  30
   3  41 109  79
   3  42  80 111
   3  42  80 109
   3  42 109 100
   3  42 109  80
   3  42 100  57
   3  42 100 109
   3  42  57 100
   3  42  57  78
   3  42  78 111
   3  42  78  57
   3  42 111  80
   3  42 111  78
   3  43  36  32
   3  43  36  50
   3  43  32  66
   3  43  32  36
   3  43  66  48
   3  43  66  32
   3  43  48  66
   3  43  48  60
   3  43  60  48
   3  43  60  50
   3  43  50  36
   3  43  50  60
   3  44  73  49
   3  44  73  31
   3  44  31  35
   3  44  31  73
   3  44  35  51
   3  44  35  31
   3  44  51  35
   3  44  51  61
   3  44  61  51
   3  44  61  49
   3  44  49  73
   3  44  49  61
   3  45 106  95
   3  45 106  76
   3  45  76  62
   3  45  76 106
   3  45  62  37
   3  45  62  76
   3  45  37  62
   3  45  37  15
   3  45  15  19
   3  45  15  37
   3  45  19  23
   3  45  19  15
   3  45  23  95
   3  45  23  19
   3  45  95 106
   3  45  95  23
   3  46 124  81
   3  46 124 115
   3  46 115 124
   3  46 115  26
   3  46  26  20
   3  46  26 115
   3  46  20  16
   3  46  20  26
   3  46  16  33
   3  46  16  20
   3  46  33  16
   3  46  33  55
   3  46  55  81
   3  46  55  33
   3  46  81  55
   3  46  81 124
   3  47  37  62
   3  47  37  66
   3  47  62  37
   3  47  62  65
   3  47  65  73
   3  47  65  62
   3  47  73  49
   3  47  73  65
   3  47  49  73
   3  47  49  52
   3  47  52  48
   3  47  52  49
   3  47  48  66
   3  47  48  52
   3  47  66  37
   3  47  66  48
   3  48  43  66
   3  48  43  60
   3  48  66  47
   3  48  66  43
   3  48  47  52
   3  48  47  66
   3  48  52  47
   3  48  52  69
   3  48  69  52
   3  48  69  60
   3  48  60  69
   3  48  60  43
   3  49  47  73
   3  49  47  52
   3  49  73  47
   3  49  73  44
   3  49  44  73
   3  49  44  61
   3  49  61  70
   3  49  61  44
   3  49  70  61
   3  49  70  52
   3  49  52  47
   3  49  52  70
   3  50  40  36
   3  50  40  57
   3  50  36  43
   3  50  36  40
   3  50  43  36
   3  50  43  60
   3  50  60  71
   3  50  60  43
   3  50  71  60
   3  50  71  57
   3  50  57  40
   3  50  57  71
   3  51  44  35
   3  51  44  61
   3  51  35  39
   3  51  35  44
   3  51  39  35
   3  51  39  56
   3  51  56  39
   3  51  56  72
   3  51  72  56
   3  51  72  61
   3  51  61  72
   3  51  61  44
   3  52  48  47
   3  52  48  69
   3  52  47  49
   3  52  47  48
   3  52  49  47
   3  52  49  70
   3  52  70  75
   3  52  70  49
   3  52  75  70
   3  52  75  69
   3  52  69  75
   3  52  69  48
   3  53 128  87
   3  53 128 120
   3  53 120  94
   3  53 120 128
   3  53  94 105
   3  53  94 120
   3  53 105  94
   4  53 105  76 107
   3  53  87 128
   4  53  87  88  54
   3  54 129 121
   3  54 129  88
   3  54  88 129
   4  54  88  90 121
   3  54 106  95
   4  54 106  76 108
   3  54  95 121
   3  54  95 106
   3  54 121  95
   3  54 121 129
   3  55 100  33
   3  55 100 119
   3  55 119 100
   3  55 119  30
   3  55  30  34
   3  55  30 119
   3  55  34  58
   3  55  34  30
   3  55  58  81
   3  55  58  34
   3  55  81  58
   3  55  81  46
   3  55  46  33
   3  55  46  81
   3  55  33  46
   3  55  33 100
   3  56  51  39
   3  56  51  72
   3  56  39  30
   3  56  39  51
   3  56  30  41
   3  56  30  39
   3  56  41  77
   3  56  41  30
   3  56  77  41
   3  56  77  72
   3  56  72  77
   3  56  72  51
   3  57  42 100
   3  57  42  78
   3  57 100  40
   3  57 100  42
   3  57  40 100
   3  57  40  50
   3  57  50  40
   3  57  50  71
   3  57  71  78
   3  57  71  50
   3  57  78  71
   3  57  78  42
   3  58 125 116
   3  58 125  81
   3  58  81  55
   3  58  81 125
   3  58  55  34
   3  58  55  81
   3  58  34  55
   3  58  34  17
   3  58  17  21
   3  58  17  34
   3  58  21  27
   3  58  21  17
   3  58  27 116
   3  58  27  21
   3  58 116 125
   3  58 116  27
   3  59  98 117
   3  59  98 111
   3  59 117  98
   3  59 117 101
   3  59 101 112
   3  59 101 117
   3  59 112 101
   3  59 112 102
   3  59 102 118
   3  59 102 112
   3  59 118 102
   3  59 118  99
   3  59  99 110
   3  59  99 118
   3  59 110  99
   4  59 110  79 113
   3  59 113 114
   4  59 113  79 110
   3  59 114 113
   4  59 114  80 111
   3  59 111  98
   4  59 111  80 114
   3  60  48  43
   3  60  48  69
   3  60  69  82
   3  60  69  48
   3  60  82  71
   3  60  82  69
   3  60  71  82
   3  60  71  50
   3  60  50  43
   3  60  50  71
   3  60  43  48
   3  60  43  50
   3  61  51  44
   3  61  51  72
   3  61  72  83
   3  61  72  51
   3  61  83  70
   3  61  83  72
   3  61  70  83
   3  61  70  49
   3  61  49  44
   3  61  49  70
   3  61  44  51
   3  61  44  49
   3  62  47  37
   3  62  47  65
   3  62  37  45
   3  62  37  47
   3  62  45  76
   3  62  45  37
   3  62  76  45
   3  62  76  38
   3  62  38  65
   3  62  38  76
   3  62  65  38
   3  62  65  47
   3  63   3  24
   3  63   3  86
   3  63  24  84
   3  63  24   3
   3  63  84  89
   3  63  84  24
   3  63  89  86
   3  63  89  84
   3  63  86   3
   3  63  86  89
   3  64   4  86
   3  64   4  25
   3  64  86  90
   3  64  86   4
   3  64  90  85
   3  64  90  86
   3  64  85  90
   3  64  85  25
   3  64  25   4
   3  64  25  85
   3  65  38  14
   3  65  38  62
   3  65  14  10
   3  65  14  38
   3  65  10   6
   3  65  10  14
   3  65   6  31
   3  65   6  10
   3  65  31  73
   3  65  31   6
   3  65  73  47
   3  65  73  31
   3  65  47  62
   3  65  47  73
   3  65  62  47
   3  65  62  38
   3  66  37  47
   3  66  37  32
   3  66  47  37
   3  66  47  48
   3  66  48  43
   3  66  48  47
   3  66  43  32
   3  66  43  48
   3  66  32  37
   3  66  32  43
   3  67 126 122
   3  67 126 115
   3  67 115 124
   3  67 115 126
   3  67 124  81
   3  67 124 115
   3  67  81  68
   3  67  81 124
   3  67  68  81
   4  67  68 123 122
   3  67 122 126
   4  67 122 123  68
   3  68 127 116
   3  68 127 123
   3  68 123 127
   4  68 123 122  67
   3  68  67  81
   4  68  67 122 123
   3  68  81 125
   3  68  81  67
   3  68 125 116
   3  68 125  81
   3  68 116 127
   3  68 116 125
   3  69  52  48
   3  69  52  75
   3  69  75 101
   3  69  75  52
   3  69 101  82
   3  69 101  75
   3  69  82  60
   3  69  82 101
   3  69  60  48
   3  69  60  82
   3  69  48  52
   3  69  48  60
   3  70  61  83
   3  70  61  49
   3  70  83  61
   3  70  83 102
   3  70 102  75
   3  70 102  83
   3  70  75 102
   3  70  75  52
   3  70  52  49
   3  70  52  75
   3  70  49  61
   3  70  49  52
   3  71  60  82
   3  71  60  50
   3  71  82  60
   3  71  82  98
   3  71  98  78
   3  71  98  82
   3  71  78  98
   3  71  78  57
   3  71  57  50
   3  71  57  78
   3  71  50  60
   3  71  50  57
   3  72  56  51
   3  72  56  77
   3  72  77  99
   3  72  77  56
   3  72  99  83
   3  72  99  77
   3  72  83  61
   3  72  83  99
   3  72  61  51
   3  72  61  83
   3  72  51  56
   3  72  51  61
   3  73  49  47
   3  73  49  44
   3  73  47  65
   3  73  47  49
   3  73  65  31
   3  73  65  47
   3  73  31  44
   3  73  31  65
   3  73  44  31
   3  73  44  49
   3  74   5  36
   3  74   5   8
   3  74  36  40
   3  74  36   5
   3  74  40  33
   3  74  40  36
   3  74  33   8
   3  74  33  40
   3  74   8   5
   3  74   8  33
   3  75  70 102
   3  75  70  52
   3  75 102  70
   3  75 102 112
   3  75 112 101
   3  75 112 102
   3  75 101  69
   3  75 101 112
   3  75  69  52
   3  75  69 101
   3  75  52  70
   3  75  52  69
   3  76  62  45
   3  76  62  38
   3  76  45 106
   3  76  45  62
   3  76 106  45
   4  76 106  54 108
   3  76 108 107
   4  76 108  54 106
   3  76 107 108
   4  76 107  53 105
   3  76 105  38
   4  76 105  53 107
   3  76  38 105
   3  76  38  62
   3  77  41 110
   3  77  41  56
   3  77 110  99
   3  77 110  41
   3  77  99  72
   3  77  99 110
   3  77  72  56
   3  77  72  99
   3  77  56  41
   3  77  56  72
   3  78  71  98
   3  78  71  57
   3  78  98  71
   3  78  98 111
   3  78 111  42
   3  78 111  98
   3  78  42  57
   3  78  42 111
   3  78  57  42
   3  78  57  71
   3  79  41 110
   3  79  41 109
   3  79 109  80
   3  79 109  41
   3  79  80 109
   4  79  80 114 113
   3  79 110  41
   4  79 110  59 113
   3  80  42 109
   3  80  42 111
   3  80 111  42
   4  80 111  59 114
   3  80  79 109
   4  80  79 113 114
   3  80 109  42
   3  80 109  79
   3  81  55  58
   3  81  55  46
   3  81  58 125
   3  81  58  55
   3  81 125  68
   3  81 125  58
   3  81  68  67
   3  81  68 125
   3  81  67 124
   3  81  67  68
   3  81 124  67
   3  81 124  46
   3  81  46 124
   3  81  46  55
   3  82  71  60
   3  82  71  98
   3  82  60  69
   3  82  60  71
   3  82  69 101
   3  82  69  60
   3  82 101  69
   3  82 101 117
   3  82 117  98
   3  82 117 101
   3  82  98  71
   3  82  98 117
   3  83  70  61
   3  83  70 102
   3  83  61  72
   3  83  61  70
   3  83  72  99
   3  83  72  61
   3  83  99  72
   3  83  99 118
   3  83 118 102
   3  83 118  99
   3  83 102  70
   3  83 102 118
   3  84  22  94
   3  84  22  24
   3  84  94 120
   3  84  94  22
   3  84 120  89
   3  84 120  94
   3  84  89  63
   3  84  89 120
   3  84  63  24
   3  84  63  89
   3  84  24  22
   3  84  24  63
   3  85  64  90
   3  85  64  25
   3  85  90  64
   3  85  90 121
   3  85 121  95
   3  85 121  90
   3  85  95 121
   3  85  95  23
   3  85  23  25
   3  85  23  95
   3  85  25  64
   3  85  25  23
   3  86  87  88
   3  86  87  89
   3  86  88  90
   3  86  88  87
   3  86  90  64
   3  86  90  88
   3  86  64   4
   3  86  64  90
   3  86   4  29
   3  86   4  64
   3  86  29   3
   3  86  29   4
   3  86   3  29
   3  86   3  63
   3  86  63   3
   3  86  63  89
   3  86  89  87
   3  86  89  63
   3  87  53 128
   4  87  53 120  89
   3  87  88  86
   4  87  88  54  53
   3  87  86  88
   3  87  86  89
   3  87  89  86
   3  87  89 128
   3  87 128  89
   3  87 128  53
   3  88  54 129
   4  88  54  53  87
   3  88 129  90
   3  88 129  54
   3  88  90  86
   3  88  90 129
   3  88  86  87
   3  88  86  90
   3  88  87  86
   4  88  87  53  54
   3  89  87  86
   3  89  87 128
   3  89  86  87
   3  89  86  63
   3  89  63  84
   3  89  63  86
   3  89  84 120
   3  89  84  63
   3  89 120  84
   3  89 120 128
   3  89 128  87
   3  89 128 120
   3  90  85  64
   3  90  85 121
   3  90  64  86
   3  90  64  85
   3  90  86  88
   3  90  86  64
   3  90  88 129
   3  90  88  86
   3  90 129 121
   3  90 129  88
   3  90 121  85
   3  90 121 129
   3  91  34  39
   3  91  34   9
   3  91  39  35
   3  91  39  34
   3  91  35  39
   3  91  35   2
   3  91   2  35
   3  91   2   9
   3  91   9  34
   3  91   9   2
   3  92  28 103
   3  92  28  93
   3  92 103  96
   3  92 103  28
   3  92  96 126
   3  92  96 103
   3  92 126 122
   3  92 126  96
   3  92 122 126
   4  92 122 123  93
   3  92  93  28
   4  92  93 123 122
   3  93  28  92
   3  93  28 104
   3  93  92  28
   4  93  92 122 123
   3  93 123 127
   4  93 123 122  92
   3  93 127  97
   3  93 127 123
   3  93  97 104
   3  93  97 127
   3  93 104  97
   3  93 104  28
   3  94  38 105
   3  94  38  22
   3  94 105  53
   3  94 105  38
   3  94  53 120
   3  94  53 105
   3  94 120  84
   3  94 120  53
   3  94  84  22
   3  94  84 120
   3  94  22  38
   3  94  22  84
   3  95  85 121
   3  95  85  23
   3  95 121  85
   3  95 121  54
   3  95  54 106
   3  95  54 121
   3  95 106  54
   3  95 106  45
   3  95  45 106
   3  95  45  23
   3  95  23  85
   3  95  23  45
   3  96  26 115
   3  96  26   0
   3  96 115 126
   3  96 115  26
   3  96 126  92
   3  96 126 115
   3  96  92 103
   3  96  92 126
   3  96 103   0
   3  96 103  92
   3  96   0  26
   3  96   0 103
   3  97 104  93
   3  97 104   1
   3  97  93 127
   3  97  93 104
   3  97 127 116
   3  97 127  93
   3  97 116 127
   3  97 116  27
   3  97  27   1
   3  97  27 116
   3  97   1 104
   3  97   1  27
   3  98  78  71
   3  98  78 111
   3  98  71  82
   3  98  71  78
   3  98  82  71
   3  98  82 117
   3  98 117  82
   3  98 117  59
   3  98  59 117
   3  98  59 111
   3  98 111  78
   3  98 111  59
   3  99  83  72
   3  99  83 118
   3  99  72  77
   3  99  72  83
   3  99  77 110
   3  99  77  72
   3  99 110  77
   3  99 110  59
   3  99  59 118
   3  99  59 110
   3  99 118  83
   3  99 118  59
   3 100  33  40
   3 100  33  55
   3 100  40  33
   3 100  40  57
   3 100  57  42
   3 100  57  40
   3 100  42 109
   3 100  42  57
   3 100 109 119
   3 100 109  42
   3 100 119  55
   3 100 119 109
   3 100  55 119
   3 100  55  33
   3 101  82  69
   3 101  82 117
   3 101  69  75
   3 101  69  82
   3 101  75 112
   3 101  75  69
   3 101 112  75
   3 101 112  59
   3 101  59 117
   3 101  59 112
   3 101 117  82
   3 101 117  59
   3 102  75  70
   3 102  75 112
   3 102  70  83
   3 102  70  75
   3 102  83  70
   3 102  83 118
   3 102 118  83
   3 102 118  59
   3 102  59 112
   3 102  59 118
   3 102 112  75
   3 102 112  59
   3 103   0  96
   3 103   0  28
   3 103  96  92
   3 103  96   0
   3 103  92  28
   3 103  92  96
   3 103  28   0
   3 103  28  92
   3 104  93  28
   3 104  93  97
   3 104  97  93
   3 104  97   1
   3 104   1  28
   3 104   1  97
   3 104  28  93
   3 104  28   1
   3 105  76  38
   4 105  76 107  53
   3 105  53  94
   4 105  53 107  76
   3 105  94  38
   3 105  94  53
   3 105  38  94
   3 105  38  76
   3 106  95  54
   3 106  95  45
   3 106  54  95
   4 106  54 108  76
   3 106  76  45
   4 106  76 108  54
   3 106  45  76
   3 106  45  95
   3 107  76 108
   4 107  76 105  53
   3 107 108  76
   4 107 108  54  53
   3 108 107  76
   4 108 107  53  54
   3 108  76 107
   4 108  76 106  54
   3 109  30 119
   3 109  30  41
   3 109 119 100
   3 109 119  30
   3 109 100  42
   3 109 100 119
   3 109  42  80
   3 109  42 100
   3 109  80  42
   3 109  80  79
   3 109  79  41
   3 109  79  80
   3 109  41  79
   3 109  41  30
   3 110  99  77
   3 110  99  59
   3 110  77  41
   3 110  77  99
   3 110  41  79
   3 110  41  77
   3 110  79  41
   4 110  79 113  59
   3 110  59  99
   4 110  59 113  79
   3 111  80  42
   4 111  80 114  59
   3 111  42  80
   3 111  42  78
   3 111  78  98
   3 111  78  42
   3 111  98  78
   3 111  98  59
   3 111  59  98
   4 111  59 114  80
   3 112 101  75
   3 112 101  59
   3 112  75 102
   3 112  75 101
   3 112 102  75
   3 112 102  59
   3 112  59 101
   3 112  59 102
   3 113  59 114
   4 113  59 110  79
   3 113 114  59
   4 113 114  80  79
   3 114  59 113
   4 114  59 111  80
   3 114 113  59
   4 114 113  79  80
   3 115  46 124
   3 115  46  26
   3 115 124  67
   3 115 124  46
   3 115  67 126
   3 115  67 124
   3 115 126  96
   3 115 126  67
   3 115  96  26
   3 115  96 126
   3 115  26  46
   3 115  26  96
   3 116  97 127
   3 116  97  27
   3 116 127  97
   3 116 127  68
   3 116  68 127
   3 116  68 125
   3 116 125  68
   3 116 125  58
   3 116  58 125
   3 116  58  27
   3 116  27  97
   3 116  27  58
   3 117  98  82
   3 117  98  59
   3 117  82 101
   3 117  82  98
   3 117 101  82
   3 117 101  59
   3 117  59  98
   3 117  59 101
   3 118 102  83
   3 118 102  59
   3 118  83  99
   3 118  83 102
   3 118  99  83
   3 118  99  59
   3 118  59 102
   3 118  59  99
   3 119  55 100
   3 119  55  30
   3 119 100 109
   3 119 100  55
   3 119 109  30
   3 119 109 100
   3 119  30  55
   3 119  30 109
   3 120  89  84
   3 120  89 128
   3 120  84  94
   3 120  84  89
   3 120  94  53
   3 120  94  84
   3 120  53 128
   3 120  53  94
   3 120 128  89
   3 120 128  53
   3 121  95  85
   3 121  95  54
   3 121  85  90
   3 121  85  95
   3 121  90  85
   3 121  90 129
   3 121 129  90
   3 121 129  54
   3 121  54 129
   3 121  54  95
   3 122  67 126
   4 122  67  68 123
   3 122  92 126
   4 122  92  93 123
   3 122 126  92
   3 122 126  67
   3 123  68 127
   4 123  68  67 122
   3 123 127  93
   3 123 127  68
   3 123  93 127
   4 123  93  92 122
   3 124  81  67
   3 124  81  46
   3 124  67 115
   3 124  67  81
   3 124 115  46
   3 124 115  67
   3 124  46 115
   3 124  46  81
   3 125 116  68
   3 125 116  58
   3 125  68  81
   3 125  68 116
   3 125  81  58
   3 125  81  68
   3 125  58  81
   3 125  58 116
   3 126 122  67
   3 126 122  92
   3 126  92  96
   3 126  92 122
   3 126  96 115
   3 126  96  92
   3 126 115  67
   3 126 115  96
   3 126  67 115
   3 126  67 122
   3 127 116  97
   3 127 116  68
   3 127  97  93
   3 127  97 116
   3 127  93 123
   3 127  93  97
   3 127 123  68
   3 127 123  93
   3 127  68 123
   3 127  68 116
   3 128  87  53
   3 128  87  89
   3 128  89  87
   3 128  89 120
   3 128 120  89
   3 128 120  53
   3 128  53 120
   3 128  53  87
   3 129 121  90
   3 129 121  54
   3 129  90  88
   3 129  90 121
   3 129  88  54
   3 129  88  90
   3 129  54  88
   3 129  54 121
