# Generated by dad_to_polygons. Vertex data from Humppa's .off file,
# polygons parsed from .dad file.
COFF
144 512 144
-6.672737 1.381450 7.384110 0.500000 0.500000 0.500000 1.0
-6.672737 -1.381450 7.384110 0.500000 0.500000 0.500000 1.0
-0.028972 -2.203059 7.190423 0.500000 0.500000 0.500000 1.0
7.519080 -1.226423 7.424283 0.500000 0.500000 0.500000 1.0
7.519080 1.226423 7.424283 0.500000 0.500000 0.500000 1.0
-0.028972 2.203059 7.190423 0.500000 0.500000 0.500000 1.0
1.165697 -1.812186 7.412748 0.500000 0.500000 0.500000 1.0
1.165697 1.812186 7.412748 0.500000 0.500000 0.500000 1.0
-1.174959 1.816084 7.361011 0.500000 0.500000 0.500000 1.0
-1.174959 -1.816084 7.361011 0.500000 0.500000 0.500000 1.0
2.037459 -1.450575 7.744475 0.500000 0.500000 0.500000 1.0
2.037459 1.450575 7.744475 0.500000 0.500000 0.500000 1.0
-2.052693 1.477193 7.699863 0.500000 0.500000 0.500000 1.0
-2.052693 -1.477193 7.699863 0.500000 0.500000 0.500000 1.0
3.050800 -1.419054 7.703662 0.500000 0.500000 0.500000 1.0
3.050800 1.419055 7.703662 0.500000 0.500000 0.500000 1.0
-3.047083 1.428313 7.612229 0.500000 0.500000 0.500000 1.0
-3.047083 -1.428313 7.612229 0.500000 0.500000 0.500000 1.0
4.049854 -1.383204 7.700480 0.500000 0.500000 0.500000 1.0
4.049854 1.383206 7.700479 0.500000 0.500000 0.500000 1.0
-4.043992 1.368884 7.658706 0.500000 0.500000 0.500000 1.0
-4.043992 -1.368884 7.658706 0.500000 0.500000 0.500000 1.0
5.037224 -1.644408 7.290098 0.500000 0.500000 0.500000 1.0
5.037224 1.644414 7.290092 0.500000 0.500000 0.500000 1.0
6.130660 -1.563433 7.310826 0.500000 0.500000 0.500000 1.0
6.130660 1.563435 7.310825 0.500000 0.500000 0.500000 1.0
-4.993515 1.601051 7.267942 0.500000 0.500000 0.500000 1.0
-4.993515 -1.601051 7.267942 0.500000 0.500000 0.500000 1.0
-8.054725 -0.000149 7.257077 0.500000 0.500000 0.500000 1.0
8.745383 -0.000104 7.446638 0.500000 0.500000 0.500000 1.0
-2.268873 -1.067725 4.984104 0.500000 0.500000 0.500000 1.0
1.324314 -1.767169 6.204516 0.500000 0.500000 0.500000 1.0
1.324314 1.767169 6.204516 0.500000 0.500000 0.500000 1.0
-2.570537 1.452143 6.452057 0.500000 0.500000 0.500000 1.0
-2.570537 -1.452143 6.452057 0.500000 0.500000 0.500000 1.0
0.023153 -1.918968 5.789004 0.500000 0.500000 0.500000 1.0
0.023151 1.919071 5.789004 0.500000 0.500000 0.500000 1.0
2.593244 1.407711 6.483809 0.500000 0.500000 0.500000 1.0
4.104288 -1.398473 6.657493 0.500000 0.500000 0.500000 1.0
-1.138108 -1.742095 5.361232 0.500000 0.500000 0.500000 1.0
-1.138107 1.742094 5.361232 0.500000 0.500000 0.500000 1.0
-1.732398 -0.839363 3.436150 0.500000 0.500000 0.500000 1.0
-1.732398 0.839363 3.436150 0.500000 0.500000 0.500000 1.0
1.190875 1.715747 4.966850 0.500000 0.500000 0.500000 1.0
1.190876 -1.715747 4.966851 0.500000 0.500000 0.500000 1.0
4.104289 1.398476 6.657490 0.500000 0.500000 0.500000 1.0
-4.078013 1.381613 6.655402 0.500000 0.500000 0.500000 1.0
2.545526 0.000000 5.336699 0.500000 0.500000 0.500000 1.0
1.683313 1.299991 4.502376 0.500000 0.500000 0.500000 1.0
1.683313 -1.299992 4.502376 0.500000 0.500000 0.500000 1.0
0.124266 1.794652 4.630265 0.500000 0.500000 0.500000 1.0
0.124258 -1.794564 4.630265 0.500000 0.500000 0.500000 1.0
1.975403 0.000000 4.106355 0.500000 0.500000 0.500000 1.0
5.223994 -0.750956 3.974448 1.0 1.0 0.0 1.0
5.223991 0.750967 3.974448 1.0 1.0 0.0 1.0
-3.335952 -0.000000 5.680686 0.500000 0.500000 0.500000 1.0
-0.958969 -1.564107 4.256135 0.500000 0.500000 0.500000 1.0
-0.958969 1.564106 4.256135 0.500000 0.500000 0.500000 1.0
-4.078013 -1.381613 6.655402 0.500000 0.500000 0.500000 1.0
0.174420 -0.000000 1.053561 1.0 1.0 0.0 1.0
1.074691 1.576763 3.884170 0.500000 0.500000 0.500000 1.0
1.074722 -1.576758 3.884170 0.500000 0.500000 0.500000 1.0
3.154781 0.000002 5.524541 0.500000 0.500000 0.500000 1.0
6.812108 -1.365250 6.782507 0.500000 0.500000 0.500000 1.0
6.812093 1.365257 6.782488 0.500000 0.500000 0.500000 1.0
2.593244 -1.407711 6.483810 0.500000 0.500000 0.500000 1.0
1.843304 1.578153 5.554421 0.500000 0.500000 0.500000 1.0
-5.063009 0.815950 4.581897 1.0 1.0 0.0 1.0
-5.063009 -0.815950 4.581897 1.0 1.0 0.0 1.0
1.487713 1.097872 3.427377 0.500000 0.500000 0.500000 1.0
1.487668 -1.097822 3.427377 0.500000 0.500000 0.500000 1.0
0.208227 1.646096 3.532277 0.500000 0.500000 0.500000 1.0
0.208216 -1.646080 3.532277 0.500000 0.500000 0.500000 1.0
1.843305 -1.578153 5.554420 0.500000 0.500000 0.500000 1.0
-1.288043 1.792451 6.371492 0.500000 0.500000 0.500000 1.0
1.660618 -0.000021 3.102361 1.000000 1.000000 1.000000 1.0
4.106235 0.000003 6.477403 0.500000 0.500000 0.500000 1.0
-0.678881 -1.374619 3.063593 1.000000 1.000000 1.000000 1.0
-0.678881 1.374617 3.063593 1.000000 1.000000 1.000000 1.0
-1.870703 -0.486378 2.561975 1.000000 1.000000 1.000000 1.0
-1.870703 0.486377 2.561975 1.000000 1.000000 1.000000 1.0
-4.080054 0.000000 6.349380 0.500000 0.500000 0.500000 1.0
0.966339 1.413917 2.856027 1.000000 1.000000 1.000000 1.0
0.966247 -1.413834 2.856027 1.000000 1.000000 1.000000 1.0
6.016393 -1.470310 6.178651 0.500000 0.500000 0.500000 1.0
6.016381 1.470310 6.178628 0.500000 0.500000 0.500000 1.0
7.403287 0.000001 6.411009 0.500000 0.500000 0.500000 1.0
6.871935 -0.715370 5.304060 0.500000 0.500000 0.500000 1.0
6.871918 0.715410 5.303972 0.500000 0.500000 0.500000 1.0
6.608446 -1.085484 5.754794 0.500000 0.500000 0.500000 1.0
6.608395 1.085512 5.754797 0.500000 0.500000 0.500000 1.0
-1.288043 -1.792451 6.371492 0.500000 0.500000 0.500000 1.0
-6.978925 0.728911 6.032958 0.500000 0.500000 0.500000 1.0
-6.978925 -0.728911 6.032958 0.500000 0.500000 0.500000 1.0
5.182799 -1.499253 6.063092 0.500000 0.500000 0.500000 1.0
5.182841 1.499463 6.063017 0.500000 0.500000 0.500000 1.0
-6.514811 1.144598 6.463278 0.500000 0.500000 0.500000 1.0
-6.514811 -1.144598 6.463278 0.500000 0.500000 0.500000 1.0
0.252090 1.474310 2.533983 1.000000 1.000000 1.000000 1.0
0.252135 -1.474279 2.533983 1.000000 1.000000 1.000000 1.0
-2.268874 1.067725 4.984104 0.500000 0.500000 0.500000 1.0
1.304007 0.956678 2.497400 1.000000 1.000000 1.000000 1.0
1.304013 -0.956683 2.497400 1.000000 1.000000 1.000000 1.0
-7.317534 0.699998 6.773323 0.500000 0.500000 0.500000 1.0
-7.317534 -0.699998 6.773323 0.500000 0.500000 0.500000 1.0
4.565220 -1.103494 5.833022 0.500000 0.500000 0.500000 1.0
4.564915 1.103652 5.833038 0.500000 0.500000 0.500000 1.0
4.187138 -0.369059 4.984150 0.500000 0.500000 0.500000 1.0
4.187181 0.369089 4.984155 0.500000 0.500000 0.500000 1.0
-2.254330 -0.000000 3.582909 0.500000 0.500000 0.500000 1.0
-0.752179 -1.116727 2.330640 1.000000 1.000000 1.000000 1.0
-0.752179 1.116727 2.330640 1.000000 1.000000 1.000000 1.0
1.433712 -0.000080 2.262707 1.000000 1.000000 1.000000 1.0
-1.518494 -0.425000 1.613064 1.000000 1.000000 1.000000 1.0
-1.518494 0.425000 1.613064 1.000000 1.000000 1.000000 1.0
-5.069813 1.396765 6.169092 0.500000 0.500000 0.500000 1.0
-5.069862 -1.396542 6.169092 0.500000 0.500000 0.500000 1.0
0.793363 1.175399 2.000656 1.000000 1.000000 1.000000 1.0
0.793364 -1.175400 2.000655 1.000000 1.000000 1.000000 1.0
-2.575394 -0.000000 4.857309 0.500000 0.500000 0.500000 1.0
5.817130 -1.320117 5.223522 0.500000 0.500000 0.500000 1.0
5.817101 1.320107 5.223535 0.500000 0.500000 0.500000 1.0
-6.169947 0.917560 5.275385 0.500000 0.500000 0.500000 1.0
-6.169947 -0.917560 5.275385 0.500000 0.500000 0.500000 1.0
-4.501675 1.056581 5.861374 0.500000 0.500000 0.500000 1.0
-4.501674 -1.056581 5.861374 0.500000 0.500000 0.500000 1.0
-6.061559 1.038421 5.567278 0.500000 0.500000 0.500000 1.0
-6.061559 -1.038421 5.567278 0.500000 0.500000 0.500000 1.0
6.204143 -1.241444 5.013617 0.500000 0.500000 0.500000 1.0
6.203911 1.241393 5.013863 0.500000 0.500000 0.500000 1.0
5.215388 -1.261385 5.096991 0.500000 0.500000 0.500000 1.0
5.215241 1.261194 5.096729 0.500000 0.500000 0.500000 1.0
-4.382630 0.399477 5.356260 0.500000 0.500000 0.500000 1.0
-4.382630 -0.399477 5.356260 0.500000 0.500000 0.500000 1.0
6.255057 -0.726571 4.558507 0.500000 0.500000 0.500000 1.0
6.255347 0.726738 4.558475 0.500000 0.500000 0.500000 1.0
0.139556 0.936794 1.773618 1.000000 1.000000 1.000000 1.0
0.139556 -0.936797 1.773618 1.000000 1.000000 1.000000 1.0
3.622798 -0.761031 6.113590 0.500000 0.500000 0.500000 1.0
3.622799 0.761033 6.113587 0.500000 0.500000 0.500000 1.0
0.906815 0.521948 1.760054 1.000000 1.000000 1.000000 1.0
0.906814 -0.521949 1.760054 1.000000 1.000000 1.000000 1.0
4.888899 -0.925171 4.903708 0.500000 0.500000 0.500000 1.0
4.888935 0.925187 4.903715 0.500000 0.500000 0.500000 1.0
3 0 96 26
3 0 26 96
3 0 96 103
3 0 103 96
3 1 27 97
3 1 97 27
3 1 104 97
3 1 97 104
3 2 31 35
3 2 35 31
3 2 91 9
3 2 9 91
3 2 91 35
3 2 35 91
3 3 86 29
3 3 29 86
3 3 86 63
3 3 63 86
3 5 32 36
3 5 36 32
3 5 36 74
3 5 74 36
3 6 65 10
3 6 10 65
3 7 32 5
3 7 5 32
3 8 33 12
3 8 12 33
3 8 74 5
3 8 5 74
3 9 34 91
3 9 91 34
3 10 65 14
3 10 14 65
3 11 37 7
3 11 7 37
3 13 34 9
3 13 9 34
3 14 18 38
3 14 38 18
3 16 20 46
3 16 46 20
3 16 33 12
3 16 12 33
3 17 13 34
3 17 34 13
3 18 38 22
3 18 22 38
3 19 23 45
3 19 45 23
3 21 27 58
3 21 58 27
3 21 58 17
3 21 17 58
3 24 22 84
3 24 84 22
3 24 63 3
3 24 3 63
3 24 63 84
3 24 84 63
3 25 23 85
3 25 85 23
3 25 64 85
3 25 85 64
3 26 46 20
3 26 20 46
3 26 115 96
3 26 96 115
3 27 97 116
3 27 116 97
3 27 116 58
3 27 58 116
3 28 92 93
3 28 93 92
3 28 92 103
3 28 103 92
3 28 104 93
3 28 93 104
3 30 39 34
3 30 34 39
3 30 41 56
3 30 56 41
3 30 55 119
3 30 119 55
3 31 6 2
3 31 2 6
3 31 6 65
3 31 65 6
3 31 44 73
3 31 73 44
3 31 65 73
3 31 73 65
3 32 36 43
3 32 43 36
3 32 37 66
3 32 66 37
3 32 66 43
3 32 43 66
3 33 46 16
3 33 16 46
3 33 55 100
3 33 100 55
3 33 100 40
3 33 40 100
3 34 30 55
3 34 55 30
3 34 55 58
3 34 58 55
3 34 91 39
3 34 39 91
3 35 31 44
3 35 44 31
3 35 39 51
3 35 51 39
3 35 44 51
3 35 51 44
3 36 40 50
3 36 50 40
3 36 43 50
3 36 50 43
3 37 15 11
3 37 11 15
3 37 32 7
3 37 7 32
3 37 62 47
3 37 47 62
3 38 14 65
3 38 65 14
3 38 65 138
3 38 138 65
3 38 76 105
3 38 105 76
3 38 94 22
3 38 22 94
3 38 94 105
3 38 105 94
3 39 30 56
3 39 56 30
3 39 35 91
3 39 91 35
3 40 74 36
3 40 36 74
3 41 30 109
3 41 109 30
3 41 56 77
3 41 77 56
3 41 77 110
3 41 110 77
3 41 79 110
3 41 110 79
3 41 109 79
3 41 79 109
3 42 57 100
3 42 100 57
3 42 78 111
3 42 111 78
3 42 80 109
3 42 109 80
3 42 80 111
3 42 111 80
3 42 100 109
3 42 109 100
3 43 48 66
3 43 66 48
3 43 50 60
3 43 60 50
3 43 60 48
3 43 48 60
3 44 73 49
3 44 49 73
3 45 15 37
3 45 37 15
3 45 19 15
3 45 15 19
3 45 23 95
3 45 95 23
3 45 76 139
3 45 139 76
3 45 106 76
3 45 76 106
3 45 106 95
3 45 95 106
3 45 139 37
3 45 37 139
3 46 55 81
3 46 81 55
3 46 115 26
3 46 26 115
3 47 49 73
3 47 73 49
3 47 65 73
3 47 73 65
3 47 66 37
3 47 37 66
3 48 47 66
3 48 66 47
3 48 52 47
3 48 47 52
3 49 52 47
3 49 47 52
3 49 52 70
3 49 70 52
3 49 61 44
3 49 44 61
3 49 70 61
3 49 61 70
3 50 57 40
3 50 40 57
3 50 60 71
3 50 71 60
3 50 71 57
3 50 57 71
3 51 44 61
3 51 61 44
3 51 56 72
3 51 72 56
3 51 72 61
3 51 61 72
3 52 69 48
3 52 48 69
3 52 70 75
3 52 75 70
3 53 87 134
3 53 134 87
3 53 128 87
3 53 87 128
3 54 53 134
3 54 134 53
3 54 107 53
3 54 53 107
3 54 108 107
3 54 107 108
3 54 134 135
3 54 135 134
3 55 33 46
3 55 46 33
3 55 58 81
3 55 81 58
3 55 100 119
3 55 119 100
3 56 39 51
3 56 51 39
3 57 40 100
3 57 100 40
3 57 42 78
3 57 78 42
3 57 71 78
3 57 78 71
3 58 34 17
3 58 17 34
3 58 125 81
3 58 81 125
3 59 112 141
3 59 141 112
3 59 113 114
3 59 114 113
3 59 117 140
3 59 140 117
3 59 118 137
3 59 137 118
3 59 136 117
3 59 117 136
3 59 141 118
3 59 118 141
3 60 69 48
3 60 48 69
3 60 82 71
3 60 71 82
3 61 70 83
3 61 83 70
3 61 72 83
3 61 83 72
3 62 65 47
3 62 47 65
3 63 89 84
3 63 84 89
3 63 89 86
3 63 86 89
3 64 4 25
3 64 25 4
3 64 86 90
3 64 90 86
3 65 62 138
3 65 138 62
3 67 81 124
3 67 124 81
3 67 115 124
3 67 124 115
3 67 126 115
3 67 115 126
3 67 132 81
3 67 81 132
3 68 67 122
3 68 122 67
3 68 67 132
3 68 132 67
3 68 116 125
3 68 125 116
3 68 122 123
3 68 123 122
3 68 127 116
3 68 116 127
3 68 132 133
3 68 133 132
3 69 75 52
3 69 52 75
3 69 75 101
3 69 101 75
3 69 82 60
3 69 60 82
3 70 102 75
3 70 75 102
3 70 102 83
3 70 83 102
3 71 82 98
3 71 98 82
3 71 98 78
3 71 78 98
3 72 77 56
3 72 56 77
3 72 99 83
3 72 83 99
3 74 8 33
3 74 33 8
3 74 33 40
3 74 40 33
3 76 38 138
3 76 138 38
3 76 107 108
3 76 108 107
3 76 142 105
3 76 105 142
3 79 80 114
3 79 114 80
3 79 114 113
3 79 113 114
3 82 69 101
3 82 101 69
3 82 117 98
3 82 98 117
3 83 118 102
3 83 102 118
3 84 22 94
3 84 94 22
3 85 23 95
3 85 95 23
3 85 90 64
3 85 64 90
3 85 121 90
3 85 90 121
3 86 4 64
3 86 64 4
3 86 29 4
3 86 4 29
3 86 87 88
3 86 88 87
3 86 87 89
3 86 89 87
3 86 88 90
3 86 90 88
3 87 89 128
3 87 128 89
3 87 134 135
3 87 135 134
3 87 135 88
3 87 88 135
3 88 129 90
3 88 90 129
3 89 120 128
3 89 128 120
3 90 121 129
3 90 129 121
3 92 96 103
3 92 103 96
3 93 97 104
3 93 104 97
3 93 97 127
3 93 127 97
3 93 122 92
3 93 92 122
3 93 123 122
3 93 122 123
3 94 105 130
3 94 130 105
3 94 120 130
3 94 130 120
3 95 131 106
3 95 106 131
3 96 92 126
3 96 126 92
3 98 78 111
3 98 111 78
3 99 77 72
3 99 72 77
3 99 110 77
3 99 77 110
3 99 118 83
3 99 83 118
3 99 137 110
3 99 110 137
3 101 112 75
3 101 75 112
3 101 117 140
3 101 140 117
3 102 112 75
3 102 75 112
3 102 141 112
3 102 112 141
3 103 28 0
3 103 0 28
3 104 1 28
3 104 28 1
3 105 130 142
3 105 142 130
3 106 143 76
3 106 76 143
3 107 76 142
3 107 142 76
3 107 142 53
3 107 53 142
3 109 30 119
3 109 119 30
3 109 79 80
3 109 80 79
3 109 119 100
3 109 100 119
3 110 59 137
3 110 137 59
3 110 79 113
3 110 113 79
3 110 113 59
3 110 59 113
3 111 59 136
3 111 136 59
3 111 80 114
3 111 114 80
3 111 114 59
3 111 59 114
3 111 136 98
3 111 98 136
3 112 140 101
3 112 101 140
3 115 46 124
3 115 124 46
3 116 125 58
3 116 58 125
3 116 127 97
3 116 97 127
3 117 82 101
3 117 101 82
3 117 136 98
3 117 98 136
3 118 141 102
3 118 102 141
3 120 84 89
3 120 89 84
3 120 84 94
3 120 94 84
3 120 128 53
3 120 53 128
3 121 54 131
3 121 131 54
3 121 85 95
3 121 95 85
3 121 131 95
3 121 95 131
3 122 92 126
3 122 126 92
3 122 126 67
3 122 67 126
3 124 46 81
3 124 81 46
3 125 81 133
3 125 133 81
3 125 133 68
3 125 68 133
3 126 96 115
3 126 115 96
3 127 68 123
3 127 123 68
3 127 93 123
3 127 123 93
3 129 54 121
3 129 121 54
3 129 54 135
3 129 135 54
3 129 135 88
3 129 88 135
3 130 120 53
3 130 53 120
3 131 54 143
3 131 143 54
3 131 143 106
3 131 106 143
3 132 81 133
3 132 133 81
3 137 99 118
3 137 118 99
3 138 76 62
3 138 62 76
3 139 62 37
3 139 37 62
3 139 76 62
3 139 62 76
3 140 112 59
3 140 59 112
3 142 53 130
3 142 130 53
3 143 54 108
3 143 108 54
3 143 108 76
3 143 76 108
