 COFF
         144        1440         144
  
  -6.6727372492399075        1.3814495613782838        7.3841101931383788       0.60000002384185791       0.60000002384185791       0.60000002384185791       0.80000001192092896     
  -6.6727372315439499       -1.3814495681995174        7.3841101851214059       0.60000002384185791       0.60000002384185791       0.60000002384185791       0.80000001192092896     
  -2.8972223854776456E-002  -2.2030586440445896        7.1904230638238831       0.60000002384185791       0.60000002384185791       0.60000002384185791       0.80000001192092896     
   7.5190800407367231       -1.2264229113440392        7.4242832149719069       0.60000002384185791       0.60000002384185791       0.60000002384185791       0.80000001192092896     
   7.5190800969622424        1.2264231161395458        7.4242830093263219       0.60000002384185791       0.60000002384185791       0.60000002384185791       0.80000001192092896     
  -2.8972223921904842E-002   2.2030586436589705        7.1904230643804619       0.60000002384185791       0.60000002384185791       0.60000002384185791       0.80000001192092896     
   1.1656974851717292       -1.8121864040665536        7.4127475417685744       0.60000002384185791       0.60000002384185791       0.60000002384185791       0.80000001192092896     
   1.1656974819330008        1.8121864314180200        7.4127475134930343       0.60000002384185791       0.60000002384185791       0.60000002384185791       0.80000001192092896     
  -1.1749587408399735        1.8160843926454759        7.3610105371458987       0.60000002384185791       0.60000002384185791       0.60000002384185791       0.80000001192092896     
  -1.1749587410124902       -1.8160843927730568        7.3610105369408378       0.60000002384185791       0.60000002384185791       0.60000002384185791       0.80000001192092896     
   2.0374585126883575       -1.4505750945871509        7.7444746356576033       0.60000002384185791       0.60000002384185791       0.60000002384185791       0.80000001192092896     
   2.0374585369318203        1.4505751589199105        7.7444745696774966       0.60000002384185791       0.60000002384185791       0.60000002384185791       0.80000001192092896     
  -2.0526925542391625        1.4771930413229706        7.6998633504908618       0.60000002384185791       0.60000002384185791       0.60000002384185791       0.80000001192092896     
  -2.0526925541944814       -1.4771930412137453        7.6998633506128940       0.60000002384185791       0.60000002384185791       0.60000002384185791       0.80000001192092896     
   3.0508004216024958       -1.4190544539009262        7.7036621883701120       0.60000002384185791       0.60000002384185791       0.60000002384185791       0.80000001192092896     
   3.0508003327391369        1.4190548617106702        7.7036617877997404       0.60000002384185791       0.60000002384185791       0.60000002384185791       0.80000001192092896     
  -3.0470833975576914        1.4283130022668380        7.6122288948387684       0.60000002384185791       0.60000002384185791       0.60000002384185791       0.80000001192092896     
  -3.0470833974887017       -1.4283130016783059        7.6122288948951971       0.60000002384185791       0.60000002384185791       0.60000002384185791       0.80000001192092896     
   4.0498539336595263       -1.3832044271994604        7.7004804748354667       0.60000002384185791       0.60000002384185791       0.60000002384185791       0.80000001192092896     
   4.0498538580849237        1.3832055308718918        7.7004793526954849       0.60000002384185791       0.60000002384185791       0.60000002384185791       0.80000001192092896     
  -4.0439915794485701        1.3688835404435304        7.6587056884431819       0.60000002384185791       0.60000002384185791       0.60000002384185791       0.80000001192092896     
  -4.0439915793550156       -1.3688835398063379        7.6587056890840168       0.60000002384185791       0.60000002384185791       0.60000002384185791       0.80000001192092896     
   5.0372243163498025       -1.6444078527173480        7.2900984523393237       0.60000002384185791       0.60000002384185791       0.60000002384185791       0.80000001192092896     
   5.0372237700080866        1.6444138560820372        7.2900923979594570       0.60000002384185791       0.60000002384185791       0.60000002384185791       0.80000001192092896     
   6.1306598063171931       -1.5634332057905795        7.3108262081735296       0.60000002384185791       0.60000002384185791       0.60000002384185791       0.80000001192092896     
   6.1306601269037273        1.5634348772083650        7.3108245035662875       0.60000002384185791       0.60000002384185791       0.60000002384185791       0.80000001192092896     
  -4.9935151486960789        1.6010507022927905        7.2679417253673959       0.60000002384185791       0.60000002384185791       0.60000002384185791       0.80000001192092896     
  -4.9935151487937190       -1.6010507006709471        7.2679417269845610       0.60000002384185791       0.60000002384185791       0.60000002384185791       0.80000001192092896     
  -8.0547253327010679       -1.4913188169116565E-004   7.2570768157705157       0.60000002384185791       0.60000002384185791       0.60000002384185791       0.80000001192092896     
   8.7453827609288926       -1.0412114236147779E-004   7.4466384039435276       0.60000002384185791       0.60000002384185791       0.60000002384185791       0.80000001192092896     
  -2.2688734937050512       -1.0677251899056603        4.9841042206602495       0.60000002384185791       0.60000002384185791       0.60000002384185791       0.80000001192092896     
   1.3243136340777910       -1.7671693362362277        6.2045156476979635       0.60000002384185791       0.60000002384185791       0.60000002384185791       0.80000001192092896     
   1.3243135539804878        1.7671693476410997        6.2045156277048941       0.60000002384185791       0.60000002384185791       0.60000002384185791       0.80000001192092896     
  -2.5705369565295548        1.4521425349692021        6.4520569949712563       0.60000002384185791       0.60000002384185791       0.60000002384185791       0.80000001192092896     
  -2.5705369951525801       -1.4521425841374258        6.4520569987588408       0.60000002384185791       0.60000002384185791       0.60000002384185791       0.80000001192092896     
   2.3153323043440012E-002  -1.9189676950743249        5.7890043876587880       0.60000002384185791       0.60000002384185791       0.60000002384185791       0.80000001192092896     
   2.3151096018642851E-002   1.9190705617049861        5.7890043804375644       0.60000002384185791       0.60000002384185791       0.60000002384185791       0.80000001192092896     
   2.5932443527006011        1.4077112732033614        6.4838094864136870       0.60000002384185791       0.60000002384185791       0.60000002384185791       0.80000001192092896     
   4.1042882805267782       -1.3984734739160312        6.6574927462745928       0.60000002384185791       0.60000002384185791       0.60000002384185791       0.80000001192092896     
  -1.1381076190569013       -1.7420945714063605        5.3612317701799039       0.60000002384185791       0.60000002384185791       0.60000002384185791       0.80000001192092896     
  -1.1381074252927361        1.7420937049091152        5.3612318572859197       0.60000002384185791       0.60000002384185791       0.60000002384185791       0.80000001192092896     
  -1.7323975317781715      -0.83936310134950642        3.4361496181662030       0.60000002384185791       0.60000002384185791       0.60000002384185791       0.80000001192092896     
  -1.7323977430390318       0.83936266535527371        3.4361495683097805       0.60000002384185791       0.60000002384185791       0.60000002384185791       0.80000001192092896     
   1.1908752460498828        1.7157472637209661        4.9668504099535875       0.60000002384185791       0.60000002384185791       0.60000002384185791       0.80000001192092896     
   1.1908759486660501       -1.7157472189816660        4.9668505084983616       0.60000002384185791       0.60000002384185791       0.60000002384185791       0.80000001192092896     
   4.1042893459027869        1.3984759119110046        6.6574898189000482       0.60000002384185791       0.60000002384185791       0.60000002384185791       0.80000001192092896     
  -4.0780128432060971        1.3816128818438067        6.6554016444093778       0.60000002384185791       0.60000002384185791       0.60000002384185791       0.80000001192092896     
   2.5455262904447982        4.5727875334357912E-007   5.3366987172378719       0.60000002384185791       0.60000002384185791       0.60000002384185791       0.80000001192092896     
   1.6833128885095039        1.2999914731487439        4.5023762124262117       0.60000002384185791       0.60000002384185791       0.60000002384185791       0.80000001192092896     
   1.6833129448607451       -1.2999921386338624        4.5023762075981608       0.60000002384185791       0.60000002384185791       0.60000002384185791       0.80000001192092896     
  0.12426632810660121        1.7946523185038143        4.6302649561108549       0.60000002384185791       0.60000002384185791       0.60000002384185791       0.80000001192092896     
  0.12425832943628499       -1.7945643043389041        4.6302649817720658       0.60000002384185791       0.60000002384185791       0.60000002384185791       0.80000001192092896     
   1.9754025215990343        2.8646332128856270E-007   4.1063550700514604       0.60000002384185791       0.60000002384185791       0.60000002384185791       0.80000001192092896     
   5.2239944954062629      -0.75095582870052258        3.9744481212396505        1.0000000000000000        1.0000000000000000        0.0000000000000000        1.0000000000000000     
   5.2239914247872470       0.75096726889034138        3.9744481212396501        1.0000000000000000        1.0000000000000000        0.0000000000000000        1.0000000000000000     
  -3.3359515946116707       -1.3138775879590887E-008   5.6806860142400737       0.60000002384185791       0.60000002384185791       0.60000002384185791       0.80000001192092896     
 -0.95896886827860228       -1.5641067889201881        4.2561347885386089       0.60000002384185791       0.60000002384185791       0.60000002384185791       0.80000001192092896     
 -0.95896877829700378        1.5641058423244667        4.2561346238259983       0.60000002384185791       0.60000002384185791       0.60000002384185791       0.80000001192092896     
  -4.0780128617795386       -1.3816128753967305        6.6554016460529857       0.60000002384185791       0.60000002384185791       0.60000002384185791       0.80000001192092896     
  0.17441991946354074       -1.4029123824191956E-007   1.0535609148389919        1.0000000000000000        1.0000000000000000        0.0000000000000000        1.0000000000000000     
   1.0746912570407021        1.5767634862125546        3.8841701698805240       0.60000002384185791       0.60000002384185791       0.60000002384185791       0.80000001192092896     
   1.0747218676058989       -1.5767575232970215        3.8841702105303488       0.60000002384185791       0.60000002384185791       0.60000002384185791       0.80000001192092896     
   3.1547807535141432        1.6604176038186008E-006   5.5245407031585447       0.60000002384185791       0.60000002384185791       0.60000002384185791       0.80000001192092896     
   6.8121076175968573       -1.3652499494233243        6.7825068453307962       0.60000002384185791       0.60000002384185791       0.60000002384185791       0.80000001192092896     
   6.8120925875298814        1.3652569816672431        6.7824880840699491       0.60000002384185791       0.60000002384185791       0.60000002384185791       0.80000001192092896     
   2.5932440171133688       -1.4077111070802362        6.4838098021277215       0.60000002384185791       0.60000002384185791       0.60000002384185791       0.80000001192092896     
   1.8433044639413907        1.5781526892371283        5.5544205613273894       0.60000002384185791       0.60000002384185791       0.60000002384185791       0.80000001192092896     
  -5.0630094538090047       0.81594993809196970        4.5818974327962696        1.0000000000000000        1.0000000000000000        0.0000000000000000        1.0000000000000000     
  -5.0630094805032400      -0.81594992316119719        4.5818974327962705        1.0000000000000000        1.0000000000000000        0.0000000000000000        1.0000000000000000     
   1.4877132472801788        1.0978717227776549        3.4273767873506467       0.60000002384185791       0.60000002384185791       0.60000002384185791       0.80000001192092896     
   1.4876682184695080       -1.0978224549087832        3.4273767414256708       0.60000002384185791       0.60000002384185791       0.60000002384185791       0.80000001192092896     
  0.20822748688722217        1.6460960365444801        3.5322772054720177       0.60000002384185791       0.60000002384185791       0.60000002384185791       0.80000001192092896     
  0.20821573578900393       -1.6460799726810047        3.5322772750934095       0.60000002384185791       0.60000002384185791       0.60000002384185791       0.80000001192092896     
   1.8433045038337708       -1.5781527031660156        5.5544204814290721       0.60000002384185791       0.60000002384185791       0.60000002384185791       0.80000001192092896     
  -1.2880427628389604        1.7924509889614761        6.3714918448041065       0.60000002384185791       0.60000002384185791       0.60000002384185791       0.80000001192092896     
   1.6606177344758983       -2.1172280150842588E-005   3.1023612421870612        1.0000000000000000       0.10000000149011612        0.0000000000000000       0.50000000000000000     
   4.1062345684364647        2.8982322456065374E-006   6.4774026049407736       0.60000002384185791       0.60000002384185791       0.60000002384185791       0.80000001192092896     
 -0.67888101791997324       -1.3746193198846499        3.0635929886507003        1.0000000000000000       0.10000000149011612        0.0000000000000000       0.50000000000000000     
 -0.67888078559253695        1.3746174208013100        3.0635929355975056        1.0000000000000000       0.10000000149011612        0.0000000000000000       0.50000000000000000     
  -1.8707030106741735      -0.48637770650545681        2.5619751396274775        1.0000000000000000       0.10000000149011612        0.0000000000000000       0.50000000000000000     
  -1.8707030274396783       0.48637748716201035        2.5619751686725789        1.0000000000000000       0.10000000149011612        0.0000000000000000       0.50000000000000000     
  -4.0800537828335797        1.2319106217307899E-008   6.3493795304519862       0.60000002384185791       0.60000002384185791       0.60000002384185791       0.80000001192092896     
  0.96633914245661734        1.4139166816727589        2.8560270421641416        1.0000000000000000       0.10000000149011612        0.0000000000000000       0.50000000000000000     
  0.96624689956227883       -1.4138342498152423        2.8560270120019400        1.0000000000000000       0.10000000149011612        0.0000000000000000       0.50000000000000000     
   6.0163926570426227       -1.4703101354672365        6.1786514956041936       0.60000002384185791       0.60000002384185791       0.60000002384185791       0.80000001192092896     
   6.0163806045698447        1.4703104878421878        6.1786275022574433       0.60000002384185791       0.60000002384185791       0.60000002384185791       0.80000001192092896     
   7.4032867454782441        1.4146465689162695E-006   6.4110086869245535       0.60000002384185791       0.60000002384185791       0.60000002384185791       0.80000001192092896     
   6.8719354469373464      -0.71536996087729321        5.3040599486843663       0.60000002384185791       0.60000002384185791       0.60000002384185791       0.80000001192092896     
   6.8719184237799196       0.71540973373561045        5.3039716019154577       0.60000002384185791       0.60000002384185791       0.60000002384185791       0.80000001192092896     
   6.6084456711309878       -1.0854837991658211        5.7547939118561073       0.60000002384185791       0.60000002384185791       0.60000002384185791       0.80000001192092896     
   6.6083945526650956        1.0855121149133531        5.7547972731915964       0.60000002384185791       0.60000002384185791       0.60000002384185791       0.80000001192092896     
  -1.2880428759755753       -1.7924510402596576        6.3714918402388081       0.60000002384185791       0.60000002384185791       0.60000002384185791       0.80000001192092896     
  -6.9789247401276659       0.72891050126847756        6.0329578475087420       0.60000002384185791       0.60000002384185791       0.60000002384185791       0.80000001192092896     
  -6.9789247266946166      -0.72891066841414043        6.0329578217526825       0.60000002384185791       0.60000002384185791       0.60000002384185791       0.80000001192092896     
   5.1827994082957325       -1.4992532330731039        6.0630920098636292       0.60000002384185791       0.60000002384185791       0.60000002384185791       0.80000001192092896     
   5.1828414778077248        1.4994633121453500        6.0630174861223916       0.60000002384185791       0.60000002384185791       0.60000002384185791       0.80000001192092896     
  -6.5148114725061745        1.1445981544060968        6.4632777490092943       0.60000002384185791       0.60000002384185791       0.60000002384185791       0.80000001192092896     
  -6.5148114870479157       -1.1445982083003206        6.4632777428388666       0.60000002384185791       0.60000002384185791       0.60000002384185791       0.80000001192092896     
  0.25209023704680084        1.4743099847161443        2.5339831947096756        1.0000000000000000       0.10000000149011612        0.0000000000000000       0.50000000000000000     
  0.25213547681165127       -1.4742788021877360        2.5339832518339889        1.0000000000000000       0.10000000149011612        0.0000000000000000       0.50000000000000000     
  -2.2688735568510436        1.0677246450671594        4.9841043018107394       0.60000002384185791       0.60000002384185791       0.60000002384185791       0.80000001192092896     
   1.3040074985328927       0.95667798177993024        2.4974001506313561        1.0000000000000000       0.10000000149011612        0.0000000000000000       0.50000000000000000     
   1.3040133094225483      -0.95668279483470797        2.4973999124239730        1.0000000000000000       0.10000000149011612        0.0000000000000000       0.50000000000000000     
  -7.3175343197851959       0.69999772768017710        6.7733231598200492       0.60000002384185791       0.60000002384185791       0.60000002384185791       0.80000001192092896     
  -7.3175343287647605      -0.69999795910031515        6.7733231521102022       0.60000002384185791       0.60000002384185791       0.60000002384185791       0.80000001192092896     
   4.5652204783737975       -1.1034942110455668        5.8330215039607269       0.60000002384185791       0.60000002384185791       0.60000002384185791       0.80000001192092896     
   4.5649146914679228        1.1036522894957319        5.8330376796107339       0.60000002384185791       0.60000002384185791       0.60000002384185791       0.80000001192092896     
   4.1871375141354799      -0.36905906826764667        4.9841501688963286       0.60000002384185791       0.60000002384185791       0.60000002384185791       0.80000001192092896     
   4.1871806436107022       0.36908871369873586        4.9841550946551241       0.60000002384185791       0.60000002384185791       0.60000002384185791       0.80000001192092896     
  -2.2543300599275393       -2.5609573554778649E-007   3.5829093875756537       0.60000002384185791       0.60000002384185791       0.60000002384185791       0.80000001192092896     
 -0.75217898243266113       -1.1167272064170708        2.3306397869809383        1.0000000000000000       0.10000000149011612        0.0000000000000000       0.50000000000000000     
 -0.75217884305132698        1.1167266062099324        2.3306397404455277        1.0000000000000000       0.10000000149011612        0.0000000000000000       0.50000000000000000     
   1.4337115142445209       -7.9668892002711681E-005   2.2627070587297085        1.0000000000000000       0.10000000149011612        0.0000000000000000       0.50000000000000000     
  -1.5184939626046643      -0.42499992814663712        1.6130637929110390        1.0000000000000000       0.10000000149011612        0.0000000000000000       0.50000000000000000     
  -1.5184939996256253       0.42499983872613623        1.6130638287395063        1.0000000000000000       0.10000000149011612        0.0000000000000000       0.50000000000000000     
  -5.0698128853842679        1.3967649874809611        6.1690921179013669       0.60000002384185791       0.60000002384185791       0.60000002384185791       0.80000001192092896     
  -5.0698624366742973       -1.3965417545852177        6.1690921782659425       0.60000002384185791       0.60000002384185791       0.60000002384185791       0.80000001192092896     
  0.79336276971048514        1.1753986644570125        2.0006557671884626        1.0000000000000000       0.10000000149011612        0.0000000000000000       0.50000000000000000     
  0.79336389737531987       -1.1753999027260782        2.0006550923811002        1.0000000000000000       0.10000000149011612        0.0000000000000000       0.50000000000000000     
  -2.5753935159139849       -1.1910064220839209E-007   4.8573086361909636       0.60000002384185791       0.60000002384185791       0.60000002384185791       0.80000001192092896     
   5.8171304041756846       -1.3201172581448537        5.2235220783667904       0.60000002384185791       0.60000002384185791       0.60000002384185791       0.80000001192092896     
   5.8171005725396947        1.3201073205483536        5.2235348375942383       0.60000002384185791       0.60000002384185791       0.60000002384185791       0.80000001192092896     
  -6.1699465280615824       0.91755981873078352        5.2753853498745142       0.60000002384185791       0.60000002384185791       0.60000002384185791       0.80000001192092896     
  -6.1699465691188236      -0.91755980774946744        5.2753853330943645       0.60000002384185791       0.60000002384185791       0.60000002384185791       0.80000001192092896     
  -4.5016745710061965        1.0565812343633818        5.8613741120117000       0.60000002384185791       0.60000002384185791       0.60000002384185791       0.80000001192092896     
  -4.5016743762173208       -1.0565813125847121        5.8613740567852126       0.60000002384185791       0.60000002384185791       0.60000002384185791       0.80000001192092896     
  -6.0615589043277147        1.0384205736145344        5.5672779292560923       0.60000002384185791       0.60000002384185791       0.60000002384185791       0.80000001192092896     
  -6.0615589321927601       -1.0384205710345751        5.5672779308623905       0.60000002384185791       0.60000002384185791       0.60000002384185791       0.80000001192092896     
   6.2041425823272762       -1.2414443603232541        5.0136168245975048       0.60000002384185791       0.60000002384185791       0.60000002384185791       0.80000001192092896     
   6.2039113316949681        1.2413934068953585        5.0138627606028807       0.60000002384185791       0.60000002384185791       0.60000002384185791       0.80000001192092896     
   5.2153878643456775       -1.2613847442102417        5.0969913287234974       0.60000002384185791       0.60000002384185791       0.60000002384185791       0.80000001192092896     
   5.2152405052493487        1.2611942444331836        5.0967289312607598       0.60000002384185791       0.60000002384185791       0.60000002384185791       0.80000001192092896     
  -4.3826304146347885       0.39947654633213897        5.3562601448482932       0.60000002384185791       0.60000002384185791       0.60000002384185791       0.80000001192092896     
  -4.3826299120668928      -0.39947655599212539        5.3562601464948294       0.60000002384185791       0.60000002384185791       0.60000002384185791       0.80000001192092896     
   6.2550574668829428      -0.72657130801253700        4.5585066237686851       0.60000002384185791       0.60000002384185791       0.60000002384185791       0.80000001192092896     
   6.2553474328784864       0.72673779890260060        4.5584749877751403       0.60000002384185791       0.60000002384185791       0.60000002384185791       0.80000001192092896     
  0.13955590689913250       0.93679428809704746        1.7736178344522751        1.0000000000000000       0.10000000149011612        0.0000000000000000       0.50000000000000000     
  0.13955620162257959      -0.93679692996973729        1.7736179678077806        1.0000000000000000       0.10000000149011612        0.0000000000000000       0.50000000000000000     
   3.6227976740272805      -0.76103147648493952        6.1135899181852071       0.60000002384185791       0.60000002384185791       0.60000002384185791       0.80000001192092896     
   3.6227990992281360       0.76103339567398032        6.1135873296723835       0.60000002384185791       0.60000002384185791       0.60000002384185791       0.80000001192092896     
  0.90681529777068659       0.52194831621785920        1.7600540317584132        1.0000000000000000       0.10000000149011612        0.0000000000000000       0.50000000000000000     
  0.90681430569622090      -0.52194893051192870        1.7600537519187474        1.0000000000000000       0.10000000149011612        0.0000000000000000       0.50000000000000000     
   4.8888992440592824      -0.92517111760519599        4.9037076618611071       0.60000002384185791       0.60000002384185791       0.60000002384185791       0.80000001192092896     
   4.8889346318690308       0.92518663159148362        4.9037153796350506       0.60000002384185791       0.60000002384185791       0.60000002384185791       0.80000001192092896     
  
   3   0  26  96
   3   0  96  26
   3   0  96 103
   3   0 103  96
   3   0 103  28
   3   0  28 103
   4   0  28  92  96
   3   1  28 104
   4   1  28  93  97
   3   1 104  97
   3   1 104  28
   3   1  97 104
   3   1  97  27
   3   1  27  97
   3   2  35  91
   3   2  35  31
   3   2  31  35
   3   2  31   6
   3   2   6  31
   3   2   9  91
   3   2  91  35
   3   2  91   9
   3   3  29  86
   3   3  24  63
   3   3  63  24
   3   3  63  86
   3   3  86  29
   3   3  86  63
   3   4  29  86
   3   4  86  64
   3   4  86  29
   3   4  64  86
   3   4  64  25
   3   4  25  64
   3   5   7  32
   3   5  32  36
   3   5  32   7
   3   5  36  32
   3   5  36  74
   3   5  74  36
   3   5  74   8
   3   5   8  74
   3   6   2  31
   3   6  31   2
   3   6  31  65
   3   6  65  10
   3   6  65  31
   3   6  10  65
   3   7  11  37
   3   7  37  32
   3   7  37  11
   3   7  32  37
   3   7  32   5
   3   7   5  32
   3   8   5  74
   3   8  74   5
   3   8  74  33
   3   8  33  12
   3   8  33  74
   3   8  12  33
   3   9  13  34
   3   9  34  91
   3   9  34  13
   3   9  91  34
   3   9  91   2
   3   9   2  91
   3  10   6  65
   3  10  65  14
   3  10  65   6
   3  10  14  65
   3  11  15  37
   3  11  37   7
   3  11  37  15
   3  11   7  37
   3  12   8  33
   3  12  33  16
   3  12  33   8
   3  12  16  33
   3  13  17  34
   3  13  34   9
   3  13  34  17
   3  13   9  34
   3  14  10  65
   3  14  65  38
   3  14  65  10
   3  14  38  18
   3  14  38  65
   3  14  18  38
   3  15  19  45
   3  15  45  37
   3  15  45  19
   3  15  37  45
   3  15  37  11
   3  15  11  37
   3  16  12  33
   3  16  33  46
   3  16  33  12
   3  16  46  20
   3  16  46  33
   3  16  20  46
   3  17  21  58
   3  17  58  34
   3  17  58  21
   3  17  34  58
   3  17  34  13
   3  17  13  34
   3  18  14  38
   3  18  38  22
   3  18  38  14
   3  18  22  38
   3  19  23  45
   3  19  45  15
   3  19  45  23
   3  19  15  45
   3  20  16  46
   3  20  46  26
   3  20  46  16
   3  20  26  46
   3  21  27  58
   3  21  58  17
   3  21  58  27
   3  21  17  58
   3  22  18  38
   3  22  38  94
   3  22  38  18
   3  22  94  38
   3  22  94  84
   3  22  84  94
   3  22  84  24
   3  22  24  84
   3  23  25  85
   3  23  85  95
   3  23  85  25
   3  23  95  85
   3  23  95  45
   3  23  45  19
   3  23  45  95
   3  23  19  45
   3  24  22  84
   3  24  84  22
   3  24  84  63
   3  24  63   3
   3  24  63  84
   3  24   3  63
   3  25   4  64
   3  25  64   4
   3  25  64  85
   3  25  85  64
   3  25  85  23
   3  25  23  85
   3  26  20  46
   3  26  46 115
   3  26  46  20
   3  26 115  46
   3  26 115  96
   3  26  96 115
   3  26  96   0
   3  26   0  96
   3  27   1  97
   3  27  97 116
   3  27  97   1
   3  27 116  97
   3  27 116  58
   3  27  58  21
   3  27  58 116
   3  27  21  58
   3  28   0 103
   4  28   0  96  92
   3  28 103   0
   3  28 103  92
   3  28  92 103
   3  28  92  93
   3  28  93  92
   3  28  93 104
   3  28 104  93
   3  28 104   1
   3  28   1 104
   4  28   1  97  93
   3  29   3  86
   3  29  86   4
   3  29  86   3
   3  29   4  86
   3  30  34  55
   3  30  34  39
   3  30  55 119
   3  30  55  34
   3  30 119  55
   3  30 119 109
   3  30 109 119
   3  30 109  41
   3  30  41  56
   3  30  41 109
   3  30  56  39
   3  30  56  41
   3  30  39  34
   3  30  39  56
   3  31   2  35
   3  31   2   6
   3  31  35  44
   3  31  35   2
   3  31  44  73
   3  31  44  35
   3  31  73  65
   3  31  73  44
   3  31  65   6
   3  31  65  73
   3  31   6   2
   3  31   6  65
   3  32  37  66
   3  32  37   7
   3  32  66  37
   3  32  66  43
   3  32  43  36
   3  32  43  66
   3  32  36  43
   3  32  36   5
   3  32   5   7
   3  32   5  36
   3  32   7  37
   3  32   7   5
   3  33  46  16
   3  33  46  55
   3  33  16  12
   3  33  16  46
   3  33  12   8
   3  33  12  16
   3  33   8  74
   3  33   8  12
   3  33  74  40
   3  33  74   8
   3  33  40 100
   3  33  40  74
   3  33 100  40
   3  33 100  55
   3  33  55 100
   3  33  55  46
   3  34  58  55
   3  34  58  17
   3  34  55  30
   3  34  55  58
   3  34  30  55
   3  34  30  39
   3  34  39  91
   3  34  39  30
   3  34  91  39
   3  34  91   9
   3  34   9  13
   3  34   9  91
   3  34  13  17
   3  34  13   9
   3  34  17  58
   3  34  17  13
   3  35  91  39
   3  35  91   2
   3  35  39  91
   3  35  39  51
   3  35  51  44
   3  35  51  39
   3  35  44  31
   3  35  44  51
   3  35  31   2
   3  35  31  44
   3  35   2  31
   3  35   2  91
   3  36  32  43
   3  36  32   5
   3  36  43  32
   3  36  43  50
   3  36  50  40
   3  36  50  43
   3  36  40  74
   3  36  40  50
   3  36  74   5
   3  36  74  40
   3  36   5  32
   3  36   5  74
   3  37  45 139
   3  37  45  15
   3  37 139  62
   3  37 139  45
   3  37  62  47
   3  37  62 139
   3  37  47  62
   3  37  47  66
   3  37  66  47
   3  37  66  32
   3  37  32  66
   3  37  32   7
   3  37   7  11
   3  37   7  32
   3  37  11  15
   3  37  11   7
   3  37  15  45
   3  37  15  11
   3  38 105  76
   3  38 105  94
   3  38  94 105
   3  38  94  22
   3  38  22  18
   3  38  22  94
   3  38  18  14
   3  38  18  22
   3  38  14  65
   3  38  14  18
   3  38  65  14
   3  38  65 138
   3  38 138  65
   3  38 138  76
   3  38  76 105
   3  38  76 138
   3  39  35  91
   3  39  35  51
   3  39  91  34
   3  39  91  35
   3  39  34  30
   3  39  34  91
   3  39  30  34
   3  39  30  56
   3  39  56  51
   3  39  56  30
   3  39  51  35
   3  39  51  56
   3  40 100  33
   3  40 100  57
   3  40  33  74
   3  40  33 100
   3  40  74  36
   3  40  74  33
   3  40  36  50
   3  40  36  74
   3  40  50  36
   3  40  50  57
   3  40  57 100
   3  40  57  50
   3  41  79 109
   3  41  79 110
   3  41 110  77
   3  41 110  79
   3  41  77 110
   3  41  77  56
   3  41  56  30
   3  41  56  77
   3  41  30 109
   3  41  30  56
   3  41 109  30
   3  41 109  79
   3  42  80 111
   3  42  80 109
   3  42 109 100
   3  42 109  80
   3  42 100  57
   3  42 100 109
   3  42  57 100
   3  42  57  78
   3  42  78 111
   3  42  78  57
   3  42 111  80
   3  42 111  78
   3  43  36  32
   3  43  36  50
   3  43  32  66
   3  43  32  36
   3  43  66  48
   3  43  66  32
   3  43  48  66
   3  43  48  60
   3  43  60  48
   3  43  60  50
   3  43  50  36
   3  43  50  60
   3  44  73  49
   3  44  73  31
   3  44  31  35
   3  44  31  73
   3  44  35  51
   3  44  35  31
   3  44  51  35
   3  44  51  61
   3  44  61  51
   3  44  61  49
   3  44  49  73
   3  44  49  61
   3  45 106  95
   3  45 106  76
   3  45  76 139
   3  45  76 106
   3  45 139  76
   3  45 139  37
   3  45  37 139
   3  45  37  15
   3  45  15  19
   3  45  15  37
   3  45  19  23
   3  45  19  15
   3  45  23  95
   3  45  23  19
   3  45  95 106
   3  45  95  23
   3  46 124  81
   3  46 124 115
   3  46 115 124
   3  46 115  26
   3  46  26  20
   3  46  26 115
   3  46  20  16
   3  46  20  26
   3  46  16  33
   3  46  16  20
   3  46  33  16
   3  46  33  55
   3  46  55  81
   3  46  55  33
   3  46  81  55
   3  46  81 124
   3  47  37  62
   3  47  37  66
   3  47  62  37
   3  47  62  65
   3  47  65  73
   3  47  65  62
   3  47  73  49
   3  47  73  65
   3  47  49  73
   3  47  49  52
   3  47  52  48
   3  47  52  49
   3  47  48  66
   3  47  48  52
   3  47  66  37
   3  47  66  48
   3  48  43  66
   3  48  43  60
   3  48  66  47
   3  48  66  43
   3  48  47  52
   3  48  47  66
   3  48  52  47
   3  48  52  69
   3  48  69  52
   3  48  69  60
   3  48  60  69
   3  48  60  43
   3  49  47  73
   3  49  47  52
   3  49  73  47
   3  49  73  44
   3  49  44  73
   3  49  44  61
   3  49  61  70
   3  49  61  44
   3  49  70  61
   3  49  70  52
   3  49  52  47
   3  49  52  70
   3  50  40  36
   3  50  40  57
   3  50  36  43
   3  50  36  40
   3  50  43  36
   3  50  43  60
   3  50  60  71
   3  50  60  43
   3  50  71  60
   3  50  71  57
   3  50  57  40
   3  50  57  71
   3  51  44  35
   3  51  44  61
   3  51  35  39
   3  51  35  44
   3  51  39  35
   3  51  39  56
   3  51  56  39
   3  51  56  72
   3  51  72  56
   3  51  72  61
   3  51  61  72
   3  51  61  44
   3  52  48  47
   3  52  48  69
   3  52  47  49
   3  52  47  48
   3  52  49  47
   3  52  49  70
   3  52  70  75
   3  52  70  49
   3  52  75  70
   3  52  75  69
   3  52  69  75
   3  52  69  48
   3  53 128 120
   4  53 128  87 134
   3  53 120 130
   3  53 120 128
   3  53 130 120
   3  53 130 142
   3  53 142 130
   3  53 142 107
   3  53 107 142
   4  53 107 108  54
   3  54 129 121
   4  54 129  88 135
   3  54 108 143
   4  54 108 107  53
   3  54 143 108
   3  54 143 131
   3  54 131 121
   3  54 131 143
   3  54 121 129
   3  54 121 131
   3  55 100  33
   3  55 100 119
   3  55 119 100
   3  55 119  30
   3  55  30  34
   3  55  30 119
   3  55  34  58
   3  55  34  30
   3  55  58  81
   3  55  58  34
   3  55  81  58
   3  55  81  46
   3  55  46  33
   3  55  46  81
   3  55  33  46
   3  55  33 100
   3  56  51  39
   3  56  51  72
   3  56  39  30
   3  56  39  51
   3  56  30  41
   3  56  30  39
   3  56  41  77
   3  56  41  30
   3  56  77  41
   3  56  77  72
   3  56  72  77
   3  56  72  51
   3  57  42 100
   3  57  42  78
   3  57 100  40
   3  57 100  42
   3  57  40 100
   3  57  40  50
   3  57  50  40
   3  57  50  71
   3  57  71  78
   3  57  71  50
   3  57  78  71
   3  57  78  42
   3  58 125 116
   3  58 125  81
   3  58  81  55
   3  58  81 125
   3  58  55  34
   3  58  55  81
   3  58  34  55
   3  58  34  17
   3  58  17  21
   3  58  17  34
   3  58  21  27
   3  58  21  17
   3  58  27 116
   3  58  27  21
   3  58 116 125
   3  58 116  27
   3  59 136 111
   3  59 136 117
   3  59 117 140
   3  59 117 136
   3  59 140 117
   3  59 140 112
   3  59 112 141
   3  59 112 140
   3  59 141 112
   3  59 141 118
   3  59 118 137
   3  59 118 141
   3  59 137 118
   3  59 137 110
   3  59 110 137
   4  59 110  99 118
   3  59 113 114
   4  59 113  79 110
   3  59 114 113
   4  59 114  80 111
   3  59 111 136
   4  59 111  80 114
   3  60  48  43
   3  60  48  69
   3  60  69  82
   3  60  69  48
   3  60  82  71
   3  60  82  69
   3  60  71  82
   3  60  71  50
   3  60  50  43
   3  60  50  71
   3  60  43  48
   3  60  43  50
   3  61  51  44
   3  61  51  72
   3  61  72  83
   3  61  72  51
   3  61  83  70
   3  61  83  72
   3  61  70  83
   3  61  70  49
   3  61  49  44
   3  61  49  70
   3  61  44  51
   3  61  44  49
   3  62  47  37
   3  62  47  65
   3  62  37 139
   3  62  37  47
   3  62 139  76
   3  62 139  37
   3  62  76 139
   3  62  76 138
   3  62 138  65
   3  62 138  76
   3  62  65  47
   3  62  65 138
   3  63   3  24
   3  63   3  86
   3  63  24  84
   3  63  24   3
   3  63  84  89
   3  63  84  24
   3  63  89  86
   3  63  89  84
   3  63  86   3
   3  63  86  89
   3  64   4  86
   3  64   4  25
   3  64  86  90
   3  64  86   4
   3  64  90  85
   3  64  90  86
   3  64  85  90
   3  64  85  25
   3  64  25   4
   3  64  25  85
   3  65  38  14
   3  65  38 138
   3  65  14  10
   3  65  14  38
   3  65  10   6
   3  65  10  14
   3  65   6  31
   3  65   6  10
   3  65  31  73
   3  65  31   6
   3  65  73  47
   3  65  73  31
   3  65  47  62
   3  65  47  73
   3  65  62  47
   3  65  62 138
   3  65 138  62
   3  65 138  38
   3  66  37  47
   3  66  37  32
   3  66  47  37
   3  66  47  48
   3  66  48  43
   3  66  48  47
   3  66  43  32
   3  66  43  48
   3  66  32  37
   3  66  32  43
   3  67 126 122
   3  67 126 115
   3  67 115 124
   3  67 115 126
   3  67 124 115
   4  67 124  81 132
   3  67 122 126
   4  67 122 123  68
   3  68 127 116
   3  68 127 123
   3  68 123 127
   4  68 123 122  67
   3  68 125 116
   4  68 125  81 133
   3  68 116 127
   3  68 116 125
   3  69  52  48
   3  69  52  75
   3  69  75 101
   3  69  75  52
   3  69 101  82
   3  69 101  75
   3  69  82  60
   3  69  82 101
   3  69  60  48
   3  69  60  82
   3  69  48  52
   3  69  48  60
   3  70  61  83
   3  70  61  49
   3  70  83  61
   3  70  83 102
   3  70 102  75
   3  70 102  83
   3  70  75 102
   3  70  75  52
   3  70  52  49
   3  70  52  75
   3  70  49  61
   3  70  49  52
   3  71  60  82
   3  71  60  50
   3  71  82  60
   3  71  82  98
   3  71  98  78
   3  71  98  82
   3  71  78  98
   3  71  78  57
   3  71  57  50
   3  71  57  78
   3  71  50  60
   3  71  50  57
   3  72  56  51
   3  72  56  77
   3  72  77  99
   3  72  77  56
   3  72  99  83
   3  72  99  77
   3  72  83  61
   3  72  83  99
   3  72  61  51
   3  72  61  83
   3  72  51  56
   3  72  51  61
   3  73  49  47
   3  73  49  44
   3  73  47  65
   3  73  47  49
   3  73  65  31
   3  73  65  47
   3  73  31  44
   3  73  31  65
   3  73  44  31
   3  73  44  49
   3  74   5  36
   3  74   5   8
   3  74  36  40
   3  74  36   5
   3  74  40  33
   3  74  40  36
   3  74  33   8
   3  74  33  40
   3  74   8   5
   3  74   8  33
   3  75  70 102
   3  75  70  52
   3  75 102  70
   3  75 102 112
   3  75 112 101
   3  75 112 102
   3  75 101  69
   3  75 101 112
   3  75  69  52
   3  75  69 101
   3  75  52  70
   3  75  52  69
   3  76  62 139
   3  76  62 138
   3  76 139  62
   3  76 139  45
   3  76  45 106
   3  76  45 139
   3  76 106 143
   3  76 106  45
   3  76 143 108
   3  76 143 106
   3  76 108 107
   3  76 108 143
   3  76 107 142
   3  76 107 108
   3  76 142 105
   3  76 142 107
   3  76 105 142
   3  76 105  38
   3  76  38 105
   3  76  38 138
   3  76 138  62
   3  76 138  38
   3  77  41 110
   3  77  41  56
   3  77 110  99
   3  77 110  41
   3  77  99  72
   3  77  99 110
   3  77  72  56
   3  77  72  99
   3  77  56  41
   3  77  56  72
   3  78  71  98
   3  78  71  57
   3  78  98  71
   3  78  98 111
   3  78 111  42
   3  78 111  98
   3  78  42  57
   3  78  42 111
   3  78  57  42
   3  78  57  71
   3  79  41 110
   3  79  41 109
   3  79 109  80
   3  79 109  41
   3  79  80 109
   4  79  80 114 113
   3  79 110  41
   4  79 110  59 113
   3  80  42 109
   3  80  42 111
   3  80 111  42
   4  80 111  59 114
   3  80  79 109
   4  80  79 113 114
   3  80 109  42
   3  80 109  79
   3  81  55  58
   3  81  55  46
   3  81  58 125
   3  81  58  55
   3  81 125  58
   4  81 125  68 133
   3  81 133 132
   4  81 133  68 125
   3  81 132 133
   4  81 132  67 124
   3  81 124  46
   4  81 124  67 132
   3  81  46 124
   3  81  46  55
   3  82  71  60
   3  82  71  98
   3  82  60  69
   3  82  60  71
   3  82  69 101
   3  82  69  60
   3  82 101  69
   3  82 101 117
   3  82 117  98
   3  82 117 101
   3  82  98  71
   3  82  98 117
   3  83  70  61
   3  83  70 102
   3  83  61  72
   3  83  61  70
   3  83  72  99
   3  83  72  61
   3  83  99  72
   3  83  99 118
   3  83 118 102
   3  83 118  99
   3  83 102  70
   3  83 102 118
   3  84  22  94
   3  84  22  24
   3  84  94 120
   3  84  94  22
   3  84 120  89
   3  84 120  94
   3  84  89  63
   3  84  89 120
   3  84  63  24
   3  84  63  89
   3  84  24  22
   3  84  24  63
   3  85  64  90
   3  85  64  25
   3  85  90  64
   3  85  90 121
   3  85 121  95
   3  85 121  90
   3  85  95 121
   3  85  95  23
   3  85  23  25
   3  85  23  95
   3  85  25  64
   3  85  25  23
   3  86  87  88
   3  86  87  89
   3  86  88  90
   3  86  88  87
   3  86  90  64
   3  86  90  88
   3  86  64   4
   3  86  64  90
   3  86   4  29
   3  86   4  64
   3  86  29   3
   3  86  29   4
   3  86   3  29
   3  86   3  63
   3  86  63   3
   3  86  63  89
   3  86  89  87
   3  86  89  63
   3  87  88  86
   4  87  88 135 134
   3  87  86  88
   3  87  86  89
   3  87  89  86
   3  87  89 128
   3  87 128  89
   4  87 128  53 134
   3  88 129  90
   4  88 129  54 135
   3  88  90  86
   3  88  90 129
   3  88  86  87
   3  88  86  90
   3  88  87  86
   4  88  87 134 135
   3  89  87  86
   3  89  87 128
   3  89  86  87
   3  89  86  63
   3  89  63  84
   3  89  63  86
   3  89  84 120
   3  89  84  63
   3  89 120  84
   3  89 120 128
   3  89 128  87
   3  89 128 120
   3  90  85  64
   3  90  85 121
   3  90  64  86
   3  90  64  85
   3  90  86  88
   3  90  86  64
   3  90  88 129
   3  90  88  86
   3  90 129 121
   3  90 129  88
   3  90 121  85
   3  90 121 129
   3  91  34  39
   3  91  34   9
   3  91  39  35
   3  91  39  34
   3  91  35  39
   3  91  35   2
   3  91   2  35
   3  91   2   9
   3  91   9  34
   3  91   9   2
   3  92  28 103
   3  92  28  93
   3  92 103  96
   3  92 103  28
   3  92  96 126
   3  92  96 103
   3  92 126 122
   3  92 126  96
   3  92 122 126
   4  92 122 123  93
   3  92  93  28
   4  92  93 123 122
   3  93  28  92
   3  93  28 104
   3  93  92  28
   4  93  92 122 123
   3  93 123 127
   4  93 123 122  92
   3  93 127  97
   3  93 127 123
   3  93  97 104
   3  93  97 127
   3  93 104  97
   3  93 104  28
   3  94  38 105
   3  94  38  22
   3  94 105 130
   3  94 105  38
   3  94 130 120
   3  94 130 105
   3  94 120  84
   3  94 120 130
   3  94  84  22
   3  94  84 120
   3  94  22  38
   3  94  22  84
   3  95  85 121
   3  95  85  23
   3  95 121  85
   3  95 121 131
   3  95 131 106
   3  95 131 121
   3  95 106 131
   3  95 106  45
   3  95  45 106
   3  95  45  23
   3  95  23  85
   3  95  23  45
   3  96  26 115
   3  96  26   0
   3  96 115 126
   3  96 115  26
   3  96 126  92
   3  96 126 115
   3  96  92 103
   3  96  92 126
   3  96 103   0
   3  96 103  92
   3  96   0  26
   3  96   0 103
   3  97 104  93
   3  97 104   1
   3  97  93 127
   3  97  93 104
   3  97 127 116
   3  97 127  93
   3  97 116 127
   3  97 116  27
   3  97  27   1
   3  97  27 116
   3  97   1 104
   3  97   1  27
   3  98  78  71
   3  98  78 111
   3  98  71  82
   3  98  71  78
   3  98  82  71
   3  98  82 117
   3  98 117  82
   3  98 117 136
   3  98 136 111
   3  98 136 117
   3  98 111  78
   3  98 111 136
   3  99  83  72
   3  99  83 118
   3  99  72  77
   3  99  72  83
   3  99  77 110
   3  99  77  72
   3  99 110  77
   3  99 110 137
   3  99 137 118
   3  99 137 110
   3  99 118  83
   3  99 118 137
   3 100  33  40
   3 100  33  55
   3 100  40  33
   3 100  40  57
   3 100  57  42
   3 100  57  40
   3 100  42 109
   3 100  42  57
   3 100 109 119
   3 100 109  42
   3 100 119  55
   3 100 119 109
   3 100  55 119
   3 100  55  33
   3 101  82  69
   3 101  82 117
   3 101  69  75
   3 101  69  82
   3 101  75 112
   3 101  75  69
   3 101 112  75
   3 101 112 140
   3 101 140 117
   3 101 140 112
   3 101 117  82
   3 101 117 140
   3 102  75  70
   3 102  75 112
   3 102  70  83
   3 102  70  75
   3 102  83  70
   3 102  83 118
   3 102 118  83
   3 102 118 141
   3 102 141 112
   3 102 141 118
   3 102 112  75
   3 102 112 141
   3 103   0  96
   3 103   0  28
   3 103  96  92
   3 103  96   0
   3 103  92  28
   3 103  92  96
   3 103  28   0
   3 103  28  92
   3 104  93  28
   3 104  93  97
   3 104  97  93
   3 104  97   1
   3 104   1  28
   3 104   1  97
   3 104  28  93
   3 104  28   1
   3 105  76 142
   3 105  76  38
   3 105 142 130
   3 105 142  76
   3 105 130  94
   3 105 130 142
   3 105  94  38
   3 105  94 130
   3 105  38  94
   3 105  38  76
   3 106  95 131
   3 106  95  45
   3 106 131  95
   3 106 131 143
   3 106 143  76
   3 106 143 131
   3 106  76  45
   3 106  76 143
   3 106  45  76
   3 106  45  95
   3 107  53 142
   4 107  53  54 108
   3 107 142  76
   3 107 142  53
   3 107  76 108
   3 107  76 142
   3 107 108  76
   4 107 108  54  53
   3 108  54 143
   4 108  54  53 107
   3 108 107  76
   4 108 107  53  54
   3 108  76 143
   3 108  76 107
   3 108 143  76
   3 108 143  54
   3 109  30 119
   3 109  30  41
   3 109 119 100
   3 109 119  30
   3 109 100  42
   3 109 100 119
   3 109  42  80
   3 109  42 100
   3 109  80  42
   3 109  80  79
   3 109  79  41
   3 109  79  80
   3 109  41  79
   3 109  41  30
   3 110  99  77
   3 110  99 137
   3 110  77  41
   3 110  77  99
   3 110  41  79
   3 110  41  77
   3 110  79  41
   4 110  79 113  59
   3 110  59 137
   4 110  59 118  99
   3 110 137  99
   3 110 137  59
   3 111  80  42
   4 111  80 114  59
   3 111  42  80
   3 111  42  78
   3 111  78  98
   3 111  78  42
   3 111  98  78
   3 111  98 136
   3 111 136  98
   3 111 136  59
   3 111  59 136
   4 111  59 117  98
   3 112 101  75
   3 112 101 140
   3 112  75 102
   3 112  75 101
   3 112 102  75
   3 112 102 141
   3 112 141 102
   3 112 141  59
   3 112  59 140
   3 112  59 141
   3 112 140 101
   3 112 140  59
   3 113  59 114
   4 113  59 110  79
   3 113 114  59
   4 113 114  80  79
   3 114  59 113
   4 114  59 111  80
   3 114 113  59
   4 114 113  79  80
   3 115  46 124
   3 115  46  26
   3 115 124  67
   3 115 124  46
   3 115  67 126
   3 115  67 124
   3 115 126  96
   3 115 126  67
   3 115  96  26
   3 115  96 126
   3 115  26  46
   3 115  26  96
   3 116  97 127
   3 116  97  27
   3 116 127  97
   3 116 127  68
   3 116  68 127
   3 116  68 125
   3 116 125  68
   3 116 125  58
   3 116  58 125
   3 116  58  27
   3 116  27  97
   3 116  27  58
   3 117  98  82
   3 117  98 136
   3 117  82 101
   3 117  82  98
   3 117 101  82
   3 117 101 140
   3 117 140 101
   3 117 140  59
   3 117  59 136
   3 117  59 140
   3 117 136  98
   3 117 136  59
   3 118 102  83
   3 118 102 141
   3 118  83  99
   3 118  83 102
   3 118  99  83
   3 118  99 137
   3 118 137  99
   3 118 137  59
   3 118  59 141
   3 118  59 137
   3 118 141 102
   3 118 141  59
   3 119  55 100
   3 119  55  30
   3 119 100 109
   3 119 100  55
   3 119 109  30
   3 119 109 100
   3 119  30  55
   3 119  30 109
   3 120  89  84
   3 120  89 128
   3 120  84  94
   3 120  84  89
   3 120  94 130
   3 120  94  84
   3 120 130  94
   3 120 130  53
   3 120  53 128
   3 120  53 130
   3 120 128  89
   3 120 128  53
   3 121  95  85
   3 121  95 131
   3 121  85  90
   3 121  85  95
   3 121  90  85
   3 121  90 129
   3 121 129  90
   3 121 129  54
   3 121  54 129
   3 121  54 131
   3 121 131  95
   3 121 131  54
   3 122  67 126
   4 122  67  68 123
   3 122  92 126
   4 122  92  93 123
   3 122 126  92
   3 122 126  67
   3 123  68 127
   4 123  68  67 122
   3 123 127  93
   3 123 127  68
   3 123  93 127
   4 123  93  92 122
   3 124  81  46
   4 124  81 132  67
   3 124  67 115
   4 124  67 132  81
   3 124 115  46
   3 124 115  67
   3 124  46 115
   3 124  46  81
   3 125 116  68
   3 125 116  58
   3 125  68 116
   4 125  68 133  81
   3 125  81  58
   4 125  81 133  68
   3 125  58  81
   3 125  58 116
   3 126 122  67
   3 126 122  92
   3 126  92  96
   3 126  92 122
   3 126  96 115
   3 126  96  92
   3 126 115  67
   3 126 115  96
   3 126  67 115
   3 126  67 122
   3 127 116  97
   3 127 116  68
   3 127  97  93
   3 127  97 116
   3 127  93 123
   3 127  93  97
   3 127 123  68
   3 127 123  93
   3 127  68 123
   3 127  68 116
   3 128  87  89
   4 128  87 134  53
   3 128  89  87
   3 128  89 120
   3 128 120  89
   3 128 120  53
   3 128  53 120
   4 128  53 134  87
   3 129 121  90
   3 129 121  54
   3 129  90  88
   3 129  90 121
   3 129  88  90
   4 129  88 135  54
   3 129  54 121
   4 129  54 135  88
   3 130 120  94
   3 130 120  53
   3 130  94 105
   3 130  94 120
   3 130 105 142
   3 130 105  94
   3 130 142 105
   3 130 142  53
   3 130  53 120
   3 130  53 142
   3 131 106  95
   3 131 106 143
   3 131  95 121
   3 131  95 106
   3 131 121  95
   3 131 121  54
   3 131  54 143
   3 131  54 121
   3 131 143 106
   3 131 143  54
   3 132  81 133
   4 132  81 124  67
   3 132 133  81
   4 132 133  68  67
   3 133 132  81
   4 133 132  67  68
   3 133  81 132
   4 133  81 125  68
   3 136 111  98
   3 136 111  59
   3 136  98 117
   3 136  98 111
   3 136 117  98
   3 136 117  59
   3 136  59 117
   3 136  59 111
   3 137 118  99
   3 137 118  59
   3 137  99 110
   3 137  99 118
   3 137 110  99
   3 137 110  59
   3 137  59 118
   3 137  59 110
   3 138  65  38
   3 138  65  62
   3 138  62  76
   3 138  62  65
   3 138  76  62
   3 138  76  38
   3 138  38  65
   3 138  38  76
   3 139  76  62
   3 139  76  45
   3 139  62  37
   3 139  62  76
   3 139  37  45
   3 139  37  62
   3 139  45  76
   3 139  45  37
   3 140 117 101
   3 140 117  59
   3 140 101 112
   3 140 101 117
   3 140 112 101
   3 140 112  59
   3 140  59 117
   3 140  59 112
   3 141 112 102
   3 141 112  59
   3 141 102 118
   3 141 102 112
   3 141 118 102
   3 141 118  59
   3 141  59 112
   3 141  59 118
   3 142 130 105
   3 142 130  53
   3 142 105  76
   3 142 105 130
   3 142  76 107
   3 142  76 105
   3 142 107  53
   3 142 107  76
   3 142  53 130
   3 142  53 107
   3 143 108  54
   3 143 108  76
   3 143  76 106
   3 143  76 108
   3 143 106 131
   3 143 106  76
   3 143 131 106
   3 143 131  54
   3 143  54 108
   3 143  54 131
