 COFF
          37         264          37
  
  -4.2594599519347032       0.67893954205748586        2.8241668079688238       0.60000002384185791       0.60000002384185791       0.60000002384185791       0.80000001192092896     
  -4.2594599519347049      -0.67893954205748563        2.8241668079688238       0.60000002384185791       0.60000002384185791       0.60000002384185791       0.80000001192092896     
  -2.5300410588634949E-002  -1.4965518156529458        2.6445033985163757       0.60000002384185791       0.60000002384185791       0.60000002384185791       0.80000001192092896     
   4.5849490260744759      -0.66647222693911090        2.8476339290508124       0.60000002384185791       0.60000002384185791       0.60000002384185791       0.80000001192092896     
   4.5849490260744759       0.66647222693911090        2.8476339290508124       0.60000002384185791       0.60000002384185791       0.60000002384185791       0.80000001192092896     
  -2.5300410588634963E-002   1.4965518156529456        2.6445033985163757       0.60000002384185791       0.60000002384185791       0.60000002384185791       0.80000001192092896     
  0.96535142831180520       -1.2137251090887038        2.7210293198344924       0.60000002384185791       0.60000002384185791       0.60000002384185791       0.80000001192092896     
  0.96535142831180520        1.2137251090887038        2.7210293198344924       0.60000002384185791       0.60000002384185791       0.60000002384185791       0.80000001192092896     
  -1.0067206978066217        1.1964474641520386        2.7046588863155963       0.60000002384185791       0.60000002384185791       0.60000002384185791       0.80000001192092896     
  -1.0067206978066221       -1.1964474641520386        2.7046588863155967       0.60000002384185791       0.60000002384185791       0.60000002384185791       0.80000001192092896     
   1.9087665364494857      -0.94583009796408557        2.9166984303421097       0.60000002384185791       0.60000002384185791       0.60000002384185791       0.80000001192092896     
   1.9087665364494857       0.94583009796408557        2.9166984303421097       0.60000002384185791       0.60000002384185791       0.60000002384185791       0.80000001192092896     
  -1.9602069875206636       0.95770434047066066        2.8875417953185445       0.60000002384185791       0.60000002384185791       0.60000002384185791       0.80000001192092896     
  -1.9602069875206640      -0.95770434047066022        2.8875417953185445       0.60000002384185791       0.60000002384185791       0.60000002384185791       0.80000001192092896     
   3.0101415750357123      -0.81477895103589726        2.8823526219431721       0.60000002384185791       0.60000002384185791       0.60000002384185791       0.80000001192092896     
   3.0101415750357128       0.81477895103589726        2.8823526219431721       0.60000002384185791       0.60000002384185791       0.60000002384185791       0.80000001192092896     
  -2.9699145130651545       0.82377629308901068        2.8488684252773839       0.60000002384185791       0.60000002384185791       0.60000002384185791       0.80000001192092896     
  -2.9699145130651550      -0.82377629308901035        2.8488684252773839       0.60000002384185791       0.60000002384185791       0.60000002384185791       0.80000001192092896     
   1.9786130868369840       0.81340309062948646        2.1078094408285910       0.60000002384185791       0.60000002384185791       0.60000002384185791       0.80000001192092896     
   3.2125143931341578      -0.67301864844620019        2.2136626875886463       0.60000002384185791       0.60000002384185791       0.60000002384185791       0.80000001192092896     
   3.2125143931341578       0.67301864844620019        2.2136626875886467       0.60000002384185791       0.60000002384185791       0.60000002384185791       0.80000001192092896     
  -3.1510216903971693       0.68259739848905310        2.1844353014078481       0.60000002384185791       0.60000002384185791       0.60000002384185791       0.80000001192092896     
  -3.1510216903971693      -0.68259739848905288        2.1844353014078477       0.60000002384185791       0.60000002384185791       0.60000002384185791       0.80000001192092896     
  -8.2520790929816994E-003  -2.0882492236483462E-017   1.0306063639638421        1.0000000000000000        1.0000000000000000        0.0000000000000000        1.0000000000000000     
   1.9786130868369838      -0.81340309062948646        2.1078094408285906       0.60000002384185791       0.60000002384185791       0.60000002384185791       0.80000001192092896     
   1.0321028844581859       0.64989696492642368        1.5446769295815943       0.60000002384185791       0.60000002384185791       0.60000002384185791       0.80000001192092896     
   1.0321028844581859      -0.64989696492642368        1.5446769295815943       0.60000002384185791       0.60000002384185791       0.60000002384185791       0.80000001192092896     
 -0.63085429188779063       0.94179440869085640        1.9672876096990457       0.60000002384185791       0.60000002384185791       0.60000002384185791       0.80000001192092896     
 -0.63085429188779096      -0.94179440869085651        1.9672876096990457       0.60000002384185791       0.60000002384185791       0.60000002384185791       0.80000001192092896     
  -1.3549166864762787       0.46911385904920716        1.4383745147184670       0.60000002384185791       0.60000002384185791       0.60000002384185791       0.80000001192092896     
  -1.3549166864762789      -0.46911385904920705        1.4383745147184670       0.60000002384185791       0.60000002384185791       0.60000002384185791       0.80000001192092896     
  0.69282678029247657      -0.85657574302593420        1.8545880658597211       0.60000002384185791       0.60000002384185791       0.60000002384185791       0.80000001192092896     
  0.69282678029247646       0.85657574302593431        1.8545880658597214       0.60000002384185791       0.60000002384185791       0.60000002384185791       0.80000001192092896     
  -1.9098602090327821       0.82703048569752746        2.0919221032626432       0.60000002384185791       0.60000002384185791       0.60000002384185791       0.80000001192092896     
  -1.9098602090327823      -0.82703048569752713        2.0919221032626432       0.60000002384185791       0.60000002384185791       0.60000002384185791       0.80000001192092896     
  -3.8349729062667967E-002 -0.94450869135553628        1.8511423800865570       0.60000002384185791       0.60000002384185791       0.60000002384185791       0.80000001192092896     
  -3.8349729062667967E-002  0.94450869135553628        1.8511423800865570       0.60000002384185791       0.60000002384185791       0.60000002384185791       0.80000001192092896     
  
   3   0  16  21
   3   0  21  16
   4   0  21  22   1
   3   1  22  17
   4   1  22  21   0
   3   1  17  22
   3   2  35  28
   3   2  35  31
   3   2  31  35
   3   2  31   6
   3   2   6  31
   3   2   9  28
   3   2  28  35
   3   2  28   9
   3   3  14  19
   3   3  19  14
   4   3  19  20   4
   3   4  20  15
   4   4  20  19   3
   3   4  15  20
   3   5   7  32
   3   5  32  36
   3   5  32   7
   3   5  36  32
   3   5  36  27
   3   5  27  36
   3   5  27   8
   3   5   8  27
   3   6   2  31
   3   6  31   2
   3   6  31  24
   3   6  24  10
   3   6  24  31
   3   6  10  24
   3   7  11  18
   3   7  18  32
   3   7  18  11
   3   7  32  18
   3   7  32   5
   3   7   5  32
   3   8   5  27
   3   8  27   5
   3   8  27  33
   3   8  33  12
   3   8  33  27
   3   8  12  33
   3   9  13  34
   3   9  34  28
   3   9  34  13
   3   9  28  34
   3   9  28   2
   3   9   2  28
   3  10   6  24
   3  10  24  14
   3  10  24   6
   3  10  14  24
   3  11  15  18
   3  11  18   7
   3  11  18  15
   3  11   7  18
   3  12   8  33
   3  12  33  16
   3  12  33   8
   3  12  16  33
   3  13  17  34
   3  13  34   9
   3  13  34  17
   3  13   9  34
   3  14  10  24
   3  14  24  19
   3  14  24  10
   3  14  19   3
   3  14  19  24
   3  14   3  19
   3  15   4  20
   3  15  20   4
   3  15  20  18
   3  15  18  20
   3  15  18  11
   3  15  11  18
   3  16  12  33
   3  16  33  21
   3  16  33  12
   3  16  21   0
   3  16  21  33
   3  16   0  21
   3  17   1  22
   3  17  22   1
   3  17  22  34
   3  17  34  22
   3  17  34  13
   3  17  13  34
   3  18  20  15
   4  18  20  19  24
   3  18  25  32
   4  18  25  26  24
   3  18  32  25
   3  18  32   7
   3  18   7  11
   3  18   7  32
   3  18  11  15
   3  18  11   7
   3  18  15  20
   3  18  15  11
   3  19   3  14
   4  19   3   4  20
   3  19  14  24
   3  19  14   3
   3  19  24  14
   4  19  24  18  20
   3  20   4  15
   4  20   4   3  19
   3  20  18  15
   4  20  18  24  19
   3  20  15   4
   3  20  15  18
   3  21   0  16
   4  21   0   1  22
   3  21  16  33
   3  21  16   0
   3  21  33  16
   4  21  33  34  22
   3  22   1  17
   4  22   1   0  21
   3  22  34  17
   4  22  34  33  21
   3  22  17   1
   3  22  17  34
   3  23  36  32
   3  23  36  27
   3  23  32  25
   3  23  32  36
   3  23  25  26
   3  23  25  32
   3  23  26  25
   3  23  26  31
   3  23  31  35
   3  23  31  26
   3  23  35  28
   3  23  35  31
   3  23  28  35
   4  23  28  34  30
   3  23  30  29
   4  23  30  34  28
   3  23  29  30
   4  23  29  33  27
   3  23  27  36
   4  23  27   5  32
   3  24  19  14
   4  24  19  20  18
   3  24  14  10
   3  24  14  19
   3  24  10   6
   3  24  10  14
   3  24   6  31
   3  24   6  10
   3  24  31  26
   3  24  31   6
   3  24  26  31
   4  24  26  25  18
   3  25  18  32
   4  25  18  24  26
   3  25  26  23
   4  25  26  24  18
   3  25  23  32
   3  25  23  26
   3  25  32  18
   3  25  32  23
   3  26  23  25
   3  26  23  31
   3  26  25  23
   4  26  25  18  24
   3  26  24  31
   4  26  24  18  25
   3  26  31  23
   3  26  31  24
   3  27   5  36
   3  27   5   8
   3  27  36  23
   3  27  36   5
   3  27  23  36
   4  27  23  32   5
   3  27  33   8
   4  27  33  29  23
   3  27   8   5
   3  27   8  33
   3  28  34   9
   4  28  34  30  23
   3  28  23  35
   4  28  23  31   2
   3  28  35  23
   3  28  35   2
   3  28   2  35
   3  28   2   9
   3  28   9  34
   3  28   9   2
   3  29  23  30
   4  29  23  27  33
   3  29  30  23
   4  29  30  34  33
   3  30  29  23
   4  30  29  33  34
   3  30  23  29
   4  30  23  28  34
   3  31   2  35
   3  31   2   6
   3  31  35  23
   3  31  35   2
   3  31  23  26
   3  31  23  35
   3  31  26  23
   3  31  26  24
   3  31  24   6
   3  31  24  26
   3  31   6   2
   3  31   6  24
   3  32  18  25
   3  32  18   7
   3  32  25  18
   3  32  25  23
   3  32  23  36
   3  32  23  25
   3  32  36  23
   3  32  36   5
   3  32   5   7
   3  32   5  36
   3  32   7  18
   3  32   7   5
   3  33  21  16
   4  33  21  22  34
   3  33  16  12
   3  33  16  21
   3  33  12   8
   3  33  12  16
   3  33   8  27
   3  33   8  12
   3  33  27   8
   4  33  27  23  29
   3  34  22  17
   4  34  22  21  33
   3  34  28   9
   4  34  28  23  30
   3  34   9  13
   3  34   9  28
   3  34  13  17
   3  34  13   9
   3  34  17  22
   3  34  17  13
   3  35  28  23
   3  35  28   2
   3  35  23  31
   3  35  23  28
   3  35  31   2
   3  35  31  23
   3  35   2  31
   3  35   2  28
   3  36  32  23
   3  36  32   5
   3  36  23  32
   3  36  23  27
   3  36  27   5
   3  36  27  23
   3  36   5  32
   3  36   5  27
