# Generated by dad_to_polygons. Vertex data from Humppa's .off file,
# polygons parsed from .dad file.
COFF
71 224 71
-6.272089 0.810674 4.293914 0.500000 0.500000 0.500000 1.0
-6.272089 -0.810674 4.293914 0.500000 0.500000 0.500000 1.0
-0.027755 -1.799690 3.981874 0.500000 0.500000 0.500000 1.0
7.203510 -0.805332 4.309879 0.500000 0.500000 0.500000 1.0
7.203510 0.805332 4.309879 0.500000 0.500000 0.500000 1.0
-0.027755 1.799690 3.981874 0.500000 0.500000 0.500000 1.0
1.042371 -1.480464 4.126637 0.500000 0.500000 0.500000 1.0
1.042371 1.480464 4.126637 0.500000 0.500000 0.500000 1.0
-1.079239 1.462058 4.098703 0.500000 0.500000 0.500000 1.0
-1.079239 -1.462058 4.098703 0.500000 0.500000 0.500000 1.0
1.963406 -1.163765 4.354419 0.500000 0.500000 0.500000 1.0
1.963406 1.163765 4.354419 0.500000 0.500000 0.500000 1.0
-2.003496 1.164639 4.336999 0.500000 0.500000 0.500000 1.0
-2.003496 -1.164639 4.336999 0.500000 0.500000 0.500000 1.0
3.027286 -1.129299 4.300752 0.500000 0.500000 0.500000 1.0
3.027286 1.129299 4.300752 0.500000 0.500000 0.500000 1.0
-2.998277 1.085272 4.290171 0.500000 0.500000 0.500000 1.0
-2.998277 -1.085272 4.290171 0.500000 0.500000 0.500000 1.0
4.023681 -1.083387 4.363854 0.500000 0.500000 0.500000 1.0
4.023681 1.083387 4.363854 0.500000 0.500000 0.500000 1.0
-3.993584 1.024821 4.356526 0.500000 0.500000 0.500000 1.0
-3.993584 -1.024821 4.356526 0.500000 0.500000 0.500000 1.0
5.013912 -0.958892 4.336186 0.500000 0.500000 0.500000 1.0
5.013912 0.958892 4.336186 0.500000 0.500000 0.500000 1.0
-4.989896 0.926084 4.315691 0.500000 0.500000 0.500000 1.0
-4.989896 -0.926084 4.315691 0.500000 0.500000 0.500000 1.0
6.022159 -0.884231 4.320189 0.500000 0.500000 0.500000 1.0
6.022159 0.884231 4.320189 0.500000 0.500000 0.500000 1.0
-1.031036 -1.414928 3.239220 0.500000 0.500000 0.500000 1.0
-1.848337 0.770579 2.341780 0.500000 0.500000 0.500000 1.0
-1.848337 -0.770579 2.341780 0.500000 0.500000 0.500000 1.0
0.928237 -1.418120 3.045321 0.500000 0.500000 0.500000 1.0
0.928237 1.418120 3.045321 0.500000 0.500000 0.500000 1.0
-2.164848 1.063985 3.305548 0.500000 0.500000 0.500000 1.0
-2.164848 -1.063985 3.305548 0.500000 0.500000 0.500000 1.0
0.003880 -1.518232 2.905324 0.500000 0.500000 0.500000 1.0
0.003880 1.518232 2.905324 0.500000 0.500000 0.500000 1.0
2.143412 1.057188 3.360332 0.500000 0.500000 0.500000 1.0
3.518953 -0.618628 2.726269 1.0 1.0 0.0 1.0
-0.613334 -1.278841 2.398015 0.500000 0.500000 0.500000 1.0
-0.613334 1.278841 2.398015 0.500000 0.500000 0.500000 1.0
-1.553410 -0.593324 1.467383 0.500000 0.500000 0.500000 1.0
-1.553410 0.593324 1.467383 0.500000 0.500000 0.500000 1.0
0.729387 1.213966 2.078267 0.500000 0.500000 0.500000 1.0
0.729387 -1.213966 2.078267 0.500000 0.500000 0.500000 1.0
5.132567 -0.807724 3.491393 0.500000 0.500000 0.500000 1.0
5.132567 0.807724 3.491393 0.500000 0.500000 0.500000 1.0
3.518953 0.618628 2.726269 1.0 1.0 0.0 1.0
-3.518712 0.658885 2.981640 1.0 1.0 0.0 1.0
1.774000 -0.000000 2.519910 0.500000 0.500000 0.500000 1.0
1.116296 0.828315 1.863876 0.500000 0.500000 0.500000 1.0
1.116296 -0.828315 1.863876 0.500000 0.500000 0.500000 1.0
-0.018494 1.197330 2.037887 0.500000 0.500000 0.500000 1.0
-0.018494 -1.197330 2.037887 0.500000 0.500000 0.500000 1.0
-3.518712 -0.658885 2.981640 1.0 1.0 0.0 1.0
0.005960 -0.000000 1.030606 1.0 1.0 0.0 1.0
-5.025037 0.735607 3.527526 0.500000 0.500000 0.500000 1.0
-5.025037 -0.735607 3.527526 0.500000 0.500000 0.500000 1.0
1.195983 -0.000000 1.749154 0.500000 0.500000 0.500000 1.0
4.390754 -0.917451 3.628830 0.500000 0.500000 0.500000 1.0
4.390754 0.917451 3.628830 0.500000 0.500000 0.500000 1.0
-2.164802 -0.000000 3.245650 0.500000 0.500000 0.500000 1.0
2.143539 0.000000 3.305217 0.500000 0.500000 0.500000 1.0
2.143412 -1.057188 3.360332 0.500000 0.500000 0.500000 1.0
1.406703 1.238516 2.650380 0.500000 0.500000 0.500000 1.0
6.151807 -0.783469 3.836563 0.500000 0.500000 0.500000 1.0
6.151807 0.783469 3.836563 0.500000 0.500000 0.500000 1.0
1.406703 -1.238516 2.650380 0.500000 0.500000 0.500000 1.0
-1.031036 1.414928 3.239220 0.500000 0.500000 0.500000 1.0
-4.258061 0.795428 3.649519 0.500000 0.500000 0.500000 1.0
-4.258061 -0.795428 3.649519 0.500000 0.500000 0.500000 1.0
3 0 56 57
3 0 57 56
3 0 57 1
3 0 1 57
3 2 9 28
3 2 28 9
3 2 31 6
3 2 6 31
3 2 35 31
3 2 31 35
3 3 4 66
3 3 66 4
3 3 26 65
3 3 65 26
3 3 66 65
3 3 65 66
3 5 7 32
3 5 32 7
3 5 32 36
3 5 36 32
3 5 36 68
3 5 68 36
3 6 31 63
3 6 63 31
3 6 63 10
3 6 10 63
3 8 33 68
3 8 68 33
3 11 37 7
3 11 7 37
3 11 37 15
3 11 15 37
3 12 33 16
3 12 16 33
3 13 17 34
3 13 34 17
3 14 38 63
3 14 63 38
3 16 48 20
3 16 20 48
3 16 48 33
3 16 33 48
3 17 21 54
3 17 54 21
3 17 54 34
3 17 34 54
3 19 23 60
3 19 60 23
3 19 47 15
3 19 15 47
3 19 60 47
3 19 47 60
3 22 59 18
3 22 18 59
3 22 59 45
3 22 45 59
3 23 27 46
3 23 46 27
3 23 46 60
3 23 60 46
3 24 0 56
3 24 56 0
3 24 56 69
3 24 69 56
3 24 69 20
3 24 20 69
3 25 21 70
3 25 70 21
3 25 57 1
3 25 1 57
3 26 22 45
3 26 45 22
3 26 45 65
3 26 65 45
3 27 66 46
3 27 46 66
3 28 2 35
3 28 35 2
3 28 34 9
3 28 9 34
3 28 34 39
3 28 39 34
3 29 33 40
3 29 40 33
3 29 61 30
3 29 30 61
3 29 61 33
3 29 33 61
3 30 34 61
3 30 61 34
3 30 39 34
3 30 34 39
3 30 39 55
3 30 55 39
3 30 41 42
3 30 42 41
3 30 42 29
3 30 29 42
3 30 55 41
3 30 41 55
3 31 67 63
3 31 63 67
3 32 37 7
3 32 7 37
3 33 12 8
3 33 8 12
3 33 40 68
3 33 68 40
3 34 13 9
3 34 9 13
3 34 61 54
3 34 54 61
3 35 39 28
3 35 28 39
3 35 44 31
3 35 31 44
3 35 53 44
3 35 44 53
3 36 32 43
3 36 43 32
3 36 52 40
3 36 40 52
3 37 64 32
3 37 32 64
3 38 18 14
3 38 14 18
3 38 62 63
3 38 63 62
3 39 35 53
3 39 53 35
3 39 53 55
3 39 55 53
3 40 42 29
3 40 29 42
3 40 55 42
3 40 42 55
3 44 67 31
3 44 31 67
3 45 38 47
3 45 47 38
3 45 38 59
3 45 59 38
3 45 47 46
3 45 46 47
3 46 45 65
3 46 65 45
3 46 65 66
3 46 66 65
3 47 37 15
3 47 15 37
3 47 62 37
3 47 37 62
3 48 54 57
3 48 57 54
3 48 57 56
3 48 56 57
3 48 61 33
3 48 33 61
3 49 50 64
3 49 64 50
3 49 51 58
3 49 58 51
3 49 51 67
3 49 67 51
3 49 62 37
3 49 37 62
3 49 63 62
3 49 62 63
3 49 64 37
3 49 37 64
3 50 49 58
3 50 58 49
3 50 55 43
3 50 43 55
3 50 64 43
3 50 43 64
3 51 44 67
3 51 67 44
3 51 55 44
3 51 44 55
3 52 36 43
3 52 43 36
3 52 55 43
3 52 43 55
3 54 70 57
3 54 57 70
3 55 41 42
3 55 42 41
3 55 44 53
3 55 53 44
3 55 52 40
3 55 40 52
3 55 58 50
3 55 50 58
3 55 58 51
3 55 51 58
3 56 48 69
3 56 69 48
3 59 38 18
3 59 18 38
3 60 47 46
3 60 46 47
3 61 48 54
3 61 54 48
3 62 47 38
3 62 38 47
3 63 10 14
3 63 14 10
3 63 67 49
3 63 49 67
3 64 43 32
3 64 32 43
3 66 27 4
3 66 4 27
3 68 8 5
3 68 5 8
3 68 36 40
3 68 40 36
3 69 48 20
3 69 20 48
3 70 21 54
3 70 54 21
3 70 25 57
3 70 57 25
