 COFF
          81         724          81
  
  -6.3279956782665838       0.86089378214648482        4.6313208965352182       0.60000002384185791       0.60000002384185791       0.60000002384185791       0.80000001192092896     
  -6.3279956782665883      -0.86089378214648427        4.6313208965352182       0.60000002384185791       0.60000002384185791       0.60000002384185791       0.80000001192092896     
  -2.8512071817333923E-002  -1.8689561312726646        4.3182338240056275       0.60000002384185791       0.60000002384185791       0.60000002384185791       0.80000001192092896     
   7.2413139010736352      -0.84023160444602374        4.6714953098788135       0.60000002384185791       0.60000002384185791       0.60000002384185791       0.80000001192092896     
   7.2413139010736352       0.84023160444602363        4.6714953098788135       0.60000002384185791       0.60000002384185791       0.60000002384185791       0.80000001192092896     
  -2.8512071817333923E-002   1.8689561312726644        4.3182338240056275       0.60000002384185791       0.60000002384185791       0.60000002384185791       0.80000001192092896     
   1.0592118119909417       -1.5504614326796475        4.4614018455028841       0.60000002384185791       0.60000002384185791       0.60000002384185791       0.80000001192092896     
   1.0592118119909417        1.5504614326796473        4.4614018455028841       0.60000002384185791       0.60000002384185791       0.60000002384185791       0.80000001192092896     
  -1.0889525236245201        1.5319521401118539        4.4338697659986872       0.60000002384185791       0.60000002384185791       0.60000002384185791       0.80000001192092896     
  -1.0889525236245208       -1.5319521401118534        4.4338697659986890       0.60000002384185791       0.60000002384185791       0.60000002384185791       0.80000001192092896     
   1.9812366774519508       -1.2376511313855758        4.6903668827294780       0.60000002384185791       0.60000002384185791       0.60000002384185791       0.80000001192092896     
   1.9812366774519508        1.2376511313855756        4.6903668827294780       0.60000002384185791       0.60000002384185791       0.60000002384185791       0.80000001192092896     
  -2.0123612337612213        1.2356706954660119        4.6773457508590628       0.60000002384185791       0.60000002384185791       0.60000002384185791       0.80000001192092896     
  -2.0123612337612222       -1.2356706954660108        4.6773457508590628       0.60000002384185791       0.60000002384185791       0.60000002384185791       0.80000001192092896     
   3.0314711716173317       -1.2515502519258339        4.5926834198922268       0.60000002384185791       0.60000002384185791       0.60000002384185791       0.80000001192092896     
   3.0314711716173308        1.2515502519258337        4.5926834198922286       0.60000002384185791       0.60000002384185791       0.60000002384185791       0.80000001192092896     
  -3.0063158260905372        1.2066252722080817        4.5766396020466322       0.60000002384185791       0.60000002384185791       0.60000002384185791       0.80000001192092896     
  -3.0063158260905385       -1.2066252722080815        4.5766396020466331       0.60000002384185791       0.60000002384185791       0.60000002384185791       0.80000001192092896     
   4.0305065806938494       -1.2048731303440867        4.6560605321349842       0.60000002384185791       0.60000002384185791       0.60000002384185791       0.80000001192092896     
   4.0305065806938476        1.2048731303440863        4.6560605321349824       0.60000002384185791       0.60000002384185791       0.60000002384185791       0.80000001192092896     
  -4.0017533181928826        1.1540311464891457        4.6566255722393848       0.60000002384185791       0.60000002384185791       0.60000002384185791       0.80000001192092896     
  -4.0017533181928835       -1.1540311464891451        4.6566255722393848       0.60000002384185791       0.60000002384185791       0.60000002384185791       0.80000001192092896     
   5.0167418504617514       -1.0456668614602789        4.6684499941862905       0.60000002384185791       0.60000002384185791       0.60000002384185791       0.80000001192092896     
   5.0167418504617505        1.0456668614602795        4.6684499941862905       0.60000002384185791       0.60000002384185791       0.60000002384185791       0.80000001192092896     
  -5.0004604042439267        1.0216131222221818        4.6312166423216858       0.60000002384185791       0.60000002384185791       0.60000002384185791       0.80000001192092896     
  -5.0004604042439267       -1.0216131222221811        4.6312166423216858       0.60000002384185791       0.60000002384185791       0.60000002384185791       0.80000001192092896     
   6.0275614170454777      -0.95048668021543559        4.6662013198948546       0.60000002384185791       0.60000002384185791       0.60000002384185791       0.80000001192092896     
   6.0275614170454777       0.95048668021543559        4.6662013198948546       0.60000002384185791       0.60000002384185791       0.60000002384185791       0.80000001192092896     
  -1.0093385115603442       -1.4914246618496207        3.5485159487093672       0.60000002384185791       0.60000002384185791       0.60000002384185791       0.80000001192092896     
  -1.8041632196688651       0.73758851834354566        2.5969155795523040       0.60000002384185791       0.60000002384185791       0.60000002384185791       0.80000001192092896     
  -1.8041632196688653      -0.73758851834354588        2.5969155795523040       0.60000002384185791       0.60000002384185791       0.60000002384185791       0.80000001192092896     
  0.93329969274735680       -1.4914200100390813        3.3490771111741142       0.60000002384185791       0.60000002384185791       0.60000002384185791       0.80000001192092896     
  0.93329969274735736        1.4914200100390818        3.3490771111741164       0.60000002384185791       0.60000002384185791       0.60000002384185791       0.80000001192092896     
  -2.1496398920283997        1.1605079498533275        3.5992482229778684       0.60000002384185791       0.60000002384185791       0.60000002384185791       0.80000001192092896     
  -2.1496398920284010       -1.1605079498533271        3.5992482229778684       0.60000002384185791       0.60000002384185791       0.60000002384185791       0.80000001192092896     
   1.6933386935837031E-002  -1.6041326160229894        3.1858395637901187       0.60000002384185791       0.60000002384185791       0.60000002384185791       0.80000001192092896     
   1.6933386935836691E-002   1.6041326160229896        3.1858395637901187       0.60000002384185791       0.60000002384185791       0.60000002384185791       0.80000001192092896     
   2.1630067647778395        1.1422614790828398        3.6438684795790386       0.60000002384185791       0.60000002384185791       0.60000002384185791       0.80000001192092896     
   3.5093827743631176      -0.61858373585501003        2.7262692079133850        1.0000000000000000        1.0000000000000000        0.0000000000000000        1.0000000000000000     
 -0.66261908169275618       -1.4262084373531341        2.6901728190864671       0.60000002384185791       0.60000002384185791       0.60000002384185791       0.80000001192092896     
 -0.66261908169275618        1.4262084373531339        2.6901728190864671       0.60000002384185791       0.60000002384185791       0.60000002384185791       0.80000001192092896     
  -1.4941163602199206      -0.63991942781529387        1.5872115149155708       0.60000002384185791       0.60000002384185791       0.60000002384185791       0.80000001192092896     
  -1.4941163602199203       0.63991942781529265        1.5872115149155692       0.60000002384185791       0.60000002384185791       0.60000002384185791       0.80000001192092896     
  0.79113311247688467        1.3675894832827507        2.3232997672917164       0.60000002384185791       0.60000002384185791       0.60000002384185791       0.80000001192092896     
  0.79113311247688267       -1.3675894832827504        2.3232997672917177       0.60000002384185791       0.60000002384185791       0.60000002384185791       0.80000001192092896     
   5.2897636759006632      -0.90410478265846839        3.8015245202186181       0.60000002384185791       0.60000002384185791       0.60000002384185791       0.80000001192092896     
   5.2897636759006623       0.90410478265846850        3.8015245202186176       0.60000002384185791       0.60000002384185791       0.60000002384185791       0.80000001192092896     
   3.5093827743631176       0.61858373585501025        2.7262692079133850        1.0000000000000000        1.0000000000000000        0.0000000000000000        1.0000000000000000     
  -3.5077978174490085       0.65919076231184426        2.9816402194175646        1.0000000000000000        1.0000000000000000        0.0000000000000000        1.0000000000000000     
   1.8819511329266396        8.9580848124853324E-016   2.8039524214032348       0.60000002384185791       0.60000002384185791       0.60000002384185791       0.80000001192092896     
   1.1984587424181856       0.96459498790518350        2.0879148859711512       0.60000002384185791       0.60000002384185791       0.60000002384185791       0.80000001192092896     
   1.1984587424181854      -0.96459498790518350        2.0879148859711520       0.60000002384185791       0.60000002384185791       0.60000002384185791       0.80000001192092896     
   2.9161239660465813E-002   1.3824307491232917        2.2703664125210357       0.60000002384185791       0.60000002384185791       0.60000002384185791       0.80000001192092896     
   2.9161239660465781E-002  -1.3824307491232919        2.2703664125210357       0.60000002384185791       0.60000002384185791       0.60000002384185791       0.80000001192092896     
  -3.5077978174490090      -0.65919076231184426        2.9816402194175642        1.0000000000000000        1.0000000000000000        0.0000000000000000        1.0000000000000000     
   3.4500437763543737E-002  -5.3987203356494420E-017   1.0306063639638421        1.0000000000000000        1.0000000000000000        0.0000000000000000        1.0000000000000000     
  -5.0583002028171222       0.86642497964587817        3.7826064143617333       0.60000002384185791       0.60000002384185791       0.60000002384185791       0.80000001192092896     
  -5.0583002028171231      -0.86642497964587772        3.7826064143617337       0.60000002384185791       0.60000002384185791       0.60000002384185791       0.80000001192092896     
   1.4050109227990071        1.5904900402019977E-016   1.9765150862875867       0.60000002384185791       0.60000002384185791       0.60000002384185791       0.80000001192092896     
   4.4946358609081161       -1.0983159278494814        3.9784000985044448       0.60000002384185791       0.60000002384185791       0.60000002384185791       0.80000001192092896     
   4.4946358609081143        1.0983159278494818        3.9784000985044443       0.60000002384185791       0.60000002384185791       0.60000002384185791       0.80000001192092896     
  -2.1498000131157644       -1.1261157222085567E-015   3.4360421638234651       0.60000002384185791       0.60000002384185791       0.60000002384185791       0.80000001192092896     
   2.1625703488382362       -3.2091315244329079E-015   3.4927777304402521       0.60000002384185791       0.60000002384185791       0.60000002384185791       0.80000001192092896     
   2.1630067647778382       -1.1422614790828405        3.6438684795790386       0.60000002384185791       0.60000002384185791       0.60000002384185791       0.80000001192092896     
   1.4035129546451157        1.3285384189031273        2.9637552721925795       0.60000002384185791       0.60000002384185791       0.60000002384185791       0.80000001192092896     
   6.3580574741337017      -0.83410124364781713        4.1504967461699787       0.60000002384185791       0.60000002384185791       0.60000002384185791       0.80000001192092896     
   6.3580574741337017       0.83410124364781701        4.1504967461699787       0.60000002384185791       0.60000002384185791       0.60000002384185791       0.80000001192092896     
   1.4035129546451146       -1.3285384189031271        2.9637552721925799       0.60000002384185791       0.60000002384185791       0.60000002384185791       0.80000001192092896     
  -1.0093385115603430        1.4914246618496212        3.5485159487093667       0.60000002384185791       0.60000002384185791       0.60000002384185791       0.80000001192092896     
  -4.3120635668257385       0.98708429465666447        3.9229441950754174       0.60000002384185791       0.60000002384185791       0.60000002384185791       0.80000001192092896     
  -4.3120635668257385      -0.98708429465666392        3.9229441950754169       0.60000002384185791       0.60000002384185791       0.60000002384185791       0.80000001192092896     
 -0.32749943554340938      -0.97186654083838109        1.9002120893053553       0.60000002384185791       0.60000002384185791       0.60000002384185791       0.80000001192092896     
 -0.32749943554340982       0.97186654083838098        1.9002120893053562       0.60000002384185791       0.60000002384185791       0.60000002384185791       0.80000001192092896     
   4.5531849856472837      -0.74537972553016607        3.2137774176614649       0.60000002384185791       0.60000002384185791       0.60000002384185791       0.80000001192092896     
   4.5531849856472837       0.74537972553016629        3.2137774176614649       0.60000002384185791       0.60000002384185791       0.60000002384185791       0.80000001192092896     
   3.7910865873227566      -0.97457718125513093        3.7304906401716487       0.60000002384185791       0.60000002384185791       0.60000002384185791       0.80000001192092896     
   3.7910865873227571       0.97457718125513126        3.7304906401716478       0.60000002384185791       0.60000002384185791       0.60000002384185791       0.80000001192092896     
  0.44363873013339300       0.71333166290644356        1.6649843894717347       0.60000002384185791       0.60000002384185791       0.60000002384185791       0.80000001192092896     
  0.44363873013339228      -0.71333166290644401        1.6649843894717355       0.60000002384185791       0.60000002384185791       0.60000002384185791       0.80000001192092896     
   3.2895938139570999      -0.94452543008453460        3.6517511071008468       0.60000002384185791       0.60000002384185791       0.60000002384185791       0.80000001192092896     
   3.2895938139570999       0.94452543008453471        3.6517511071008477       0.60000002384185791       0.60000002384185791       0.60000002384185791       0.80000001192092896     
  
   3   0  24  56
   3   0  56  24
   4   0  56  57   1
   3   1  57  25
   4   1  57  56   0
   3   1  25  57
   3   2  35  28
   3   2  35  31
   3   2  31  35
   3   2  31   6
   3   2   6  31
   3   2   9  28
   3   2  28  35
   3   2  28   9
   3   3  26  65
   3   3  65  26
   4   3  65  66   4
   3   4  66  27
   4   4  66  65   3
   3   4  27  66
   3   5   7  32
   3   5  32  36
   3   5  32   7
   3   5  36  32
   3   5  36  68
   3   5  68  36
   3   5  68   8
   3   5   8  68
   3   6   2  31
   3   6  31   2
   3   6  31  63
   3   6  63  10
   3   6  63  31
   3   6  10  63
   3   7  11  37
   3   7  37  32
   3   7  37  11
   3   7  32  37
   3   7  32   5
   3   7   5  32
   3   8   5  68
   3   8  68   5
   3   8  68  33
   3   8  33  12
   3   8  33  68
   3   8  12  33
   3   9  13  34
   3   9  34  28
   3   9  34  13
   3   9  28  34
   3   9  28   2
   3   9   2  28
   3  10   6  63
   3  10  63  14
   3  10  63   6
   3  10  14  63
   3  11  15  37
   3  11  37   7
   3  11  37  15
   3  11   7  37
   3  12   8  33
   3  12  33  16
   3  12  33   8
   3  12  16  33
   3  13  17  34
   3  13  34   9
   3  13  34  17
   3  13   9  34
   3  14  10  63
   3  14  63  79
   3  14  63  10
   3  14  79  63
   3  14  79  75
   3  14  75  79
   3  14  75  18
   3  14  18  75
   3  15  19  76
   3  15  76  80
   3  15  76  19
   3  15  80  76
   3  15  80  37
   3  15  37  11
   3  15  37  80
   3  15  11  37
   3  16  12  33
   3  16  33  48
   3  16  33  12
   3  16  48  20
   3  16  48  33
   3  16  20  48
   3  17  21  54
   3  17  54  34
   3  17  54  21
   3  17  34  54
   3  17  34  13
   3  17  13  34
   3  18  14  75
   3  18  75  14
   3  18  75  59
   3  18  59  75
   3  18  59  22
   3  18  22  59
   3  19  23  60
   3  19  60  76
   3  19  60  23
   3  19  76  60
   3  19  76  15
   3  19  15  76
   3  20  16  48
   3  20  48  69
   3  20  48  16
   3  20  69  48
   3  20  69  24
   3  20  24  69
   4  20  24  56  48
   3  21  25  70
   4  21  25  57  54
   3  21  70  54
   3  21  70  25
   3  21  54  17
   3  21  54  70
   3  21  17  54
   3  22  18  59
   3  22  59  18
   3  22  59  45
   3  22  45  26
   3  22  45  59
   3  22  26  45
   3  23  27  46
   3  23  46  60
   3  23  46  27
   3  23  60  46
   3  23  60  19
   3  23  19  60
   3  24  20  69
   4  24  20  48  56
   3  24  69  20
   3  24  69  56
   3  24  56   0
   3  24  56  69
   3  24   0  56
   3  25   1  57
   3  25  57   1
   3  25  57  70
   3  25  70  57
   3  25  70  21
   3  25  21  70
   4  25  21  54  57
   3  26  22  45
   3  26  45  65
   3  26  45  22
   3  26  65   3
   3  26  65  45
   3  26   3  65
   3  27   4  66
   3  27  66   4
   3  27  66  46
   3  27  46  66
   3  27  46  23
   3  27  23  46
   3  28  34  39
   3  28  34   9
   3  28  39  35
   3  28  39  34
   3  28  35  39
   3  28  35   2
   3  28   2  35
   3  28   2   9
   3  28   9  34
   3  28   9   2
   3  29  33  40
   3  29  33  61
   3  29  40  33
   3  29  40  72
   3  29  72  42
   3  29  72  40
   3  29  42  72
   4  29  42  41  30
   3  29  30  61
   4  29  30  41  42
   3  29  61  30
   3  29  61  33
   3  30  34  61
   3  30  34  39
   3  30  61  29
   3  30  61  34
   3  30  29  61
   4  30  29  42  41
   3  30  41  71
   4  30  41  42  29
   3  30  71  41
   3  30  71  39
   3  30  39  34
   3  30  39  71
   3  31   2  35
   3  31   2   6
   3  31  35  44
   3  31  35   2
   3  31  44  67
   3  31  44  35
   3  31  67  63
   3  31  67  44
   3  31  63   6
   3  31  63  67
   3  31   6   2
   3  31   6  63
   3  32  37  64
   3  32  37   7
   3  32  64  37
   3  32  64  43
   3  32  43  36
   3  32  43  64
   3  32  36  43
   3  32  36   5
   3  32   5   7
   3  32   5  36
   3  32   7  37
   3  32   7   5
   3  33  48  16
   3  33  48  61
   3  33  16  12
   3  33  16  48
   3  33  12   8
   3  33  12  16
   3  33   8  68
   3  33   8  12
   3  33  68  40
   3  33  68   8
   3  33  40  29
   3  33  40  68
   3  33  29  40
   3  33  29  61
   3  33  61  29
   3  33  61  48
   3  34  54  61
   3  34  54  17
   3  34  61  30
   3  34  61  54
   3  34  30  61
   3  34  30  39
   3  34  39  28
   3  34  39  30
   3  34  28  39
   3  34  28   9
   3  34   9  13
   3  34   9  28
   3  34  13  17
   3  34  13   9
   3  34  17  54
   3  34  17  13
   3  35  28  39
   3  35  28   2
   3  35  39  28
   3  35  39  53
   3  35  53  44
   3  35  53  39
   3  35  44  31
   3  35  44  53
   3  35  31   2
   3  35  31  44
   3  35   2  31
   3  35   2  28
   3  36  32  43
   3  36  32   5
   3  36  43  32
   3  36  43  52
   3  36  52  40
   3  36  52  43
   3  36  40  68
   3  36  40  52
   3  36  68   5
   3  36  68  40
   3  36   5  32
   3  36   5  68
   3  37  47  62
   3  37  47  80
   3  37  62  49
   3  37  62  47
   3  37  49  62
   3  37  49  64
   3  37  64  49
   3  37  64  32
   3  37  32  64
   3  37  32   7
   3  37   7  11
   3  37   7  32
   3  37  11  15
   3  37  11   7
   3  37  15  80
   3  37  15  11
   3  37  80  47
   3  37  80  15
   3  38  59  75
   4  38  59  45  73
   3  38  75  79
   3  38  75  59
   3  38  79  63
   3  38  79  75
   3  38  63  79
   3  38  63  62
   3  38  62  47
   3  38  62  63
   3  38  47  62
   4  38  47  74  73
   3  39  35  28
   3  39  35  53
   3  39  28  34
   3  39  28  35
   3  39  34  30
   3  39  34  28
   3  39  30  34
   3  39  30  71
   3  39  71  30
   3  39  71  53
   3  39  53  35
   3  39  53  71
   3  40  29  33
   3  40  29  72
   3  40  33  68
   3  40  33  29
   3  40  68  36
   3  40  68  33
   3  40  36  52
   3  40  36  68
   3  40  52  36
   3  40  52  72
   3  40  72  52
   3  40  72  29
   3  41  55  71
   3  41  55  42
   3  41  71  30
   3  41  71  55
   3  41  30  71
   4  41  30  29  42
   3  41  42  55
   4  41  42  29  30
   3  42  55  41
   3  42  55  72
   3  42  41  55
   4  42  41  30  29
   3  42  29  72
   4  42  29  30  41
   3  42  72  55
   3  42  72  29
   3  43  36  32
   3  43  36  52
   3  43  32  64
   3  43  32  36
   3  43  64  50
   3  43  64  32
   3  43  50  64
   3  43  50  77
   3  43  77  50
   3  43  77  52
   3  43  52  36
   3  43  52  77
   3  44  67  51
   3  44  67  31
   3  44  31  35
   3  44  31  67
   3  44  35  53
   3  44  35  31
   3  44  53  35
   3  44  53  78
   3  44  78  53
   3  44  78  51
   3  44  51  67
   3  44  51  78
   3  45  65  26
   4  45  65  66  46
   3  45  26  22
   3  45  26  65
   3  45  22  59
   3  45  22  26
   3  45  59  22
   4  45  59  38  73
   3  46  66  27
   4  46  66  65  45
   3  46  60  23
   4  46  60  47  74
   3  46  23  27
   3  46  23  60
   3  46  27  66
   3  46  27  23
   3  47  38  62
   4  47  38  73  74
   3  47  62  37
   3  47  62  38
   3  47  37  62
   3  47  37  80
   3  47  80  76
   3  47  80  37
   3  47  76  60
   3  47  76  80
   3  47  60  76
   4  47  60  46  74
   3  48  56  69
   4  48  56  24  20
   3  48  69  20
   3  48  69  56
   3  48  20  16
   3  48  20  69
   3  48  16  33
   3  48  16  20
   3  48  33  16
   3  48  33  61
   3  48  61  54
   3  48  61  33
   3  48  54  61
   4  48  54  57  56
   3  49  37  62
   3  49  37  64
   3  49  62  37
   3  49  62  63
   3  49  63  67
   3  49  63  62
   3  49  67  51
   3  49  67  63
   3  49  51  67
   3  49  51  58
   3  49  58  51
   3  49  58  50
   3  49  50  64
   3  49  50  58
   3  49  64  37
   3  49  64  50
   3  50  43  64
   3  50  43  77
   3  50  64  49
   3  50  64  43
   3  50  49  58
   3  50  49  64
   3  50  58  55
   3  50  58  49
   3  50  55  77
   3  50  55  58
   3  50  77  55
   3  50  77  43
   3  51  49  67
   3  51  49  58
   3  51  67  49
   3  51  67  44
   3  51  44  67
   3  51  44  78
   3  51  78  55
   3  51  78  44
   3  51  55  58
   3  51  55  78
   3  51  58  55
   3  51  58  49
   3  52  40  36
   3  52  40  72
   3  52  36  43
   3  52  36  40
   3  52  43  36
   3  52  43  77
   3  52  77  55
   3  52  77  43
   3  52  55  77
   3  52  55  72
   3  52  72  55
   3  52  72  40
   3  53  44  35
   3  53  44  78
   3  53  35  39
   3  53  35  44
   3  53  39  35
   3  53  39  71
   3  53  71  55
   3  53  71  39
   3  53  55  78
   3  53  55  71
   3  53  78  55
   3  53  78  44
   3  54  57  70
   4  54  57  56  48
   3  54  48  61
   4  54  48  56  57
   3  54  61  34
   3  54  61  48
   3  54  34  61
   3  54  34  17
   3  54  17  21
   3  54  17  34
   3  54  21  70
   3  54  21  17
   3  54  70  57
   3  54  70  21
   3  55  52  77
   3  55  52  72
   3  55  77  50
   3  55  77  52
   3  55  50  58
   3  55  50  77
   3  55  58  51
   3  55  58  50
   3  55  51  78
   3  55  51  58
   3  55  78  53
   3  55  78  51
   3  55  53  71
   3  55  53  78
   3  55  71  41
   3  55  71  53
   3  55  41  71
   3  55  41  42
   3  55  42  41
   3  55  42  72
   3  55  72  52
   3  55  72  42
   3  56   0  24
   4  56   0   1  57
   3  56  24  69
   3  56  24   0
   3  56  69  48
   3  56  69  24
   3  56  48  69
   4  56  48  20  24
   3  57   1  25
   4  57   1   0  56
   3  57  54  70
   4  57  54  48  56
   3  57  70  54
   3  57  70  25
   3  57  25   1
   3  57  25  70
   3  58  51  49
   3  58  51  55
   3  58  55  50
   3  58  55  51
   3  58  50  49
   3  58  50  55
   3  58  49  51
   3  58  49  50
   3  59  18  75
   3  59  18  22
   3  59  75  38
   3  59  75  18
   3  59  38  75
   4  59  38  73  45
   3  59  45  22
   4  59  45  73  38
   3  59  22  18
   3  59  22  45
   3  60  46  23
   4  60  46  74  47
   3  60  47  76
   4  60  47  74  46
   3  60  76  47
   3  60  76  19
   3  60  19  23
   3  60  19  76
   3  60  23  46
   3  60  23  19
   3  61  29  33
   3  61  29  30
   3  61  30  34
   3  61  30  29
   3  61  34  54
   3  61  34  30
   3  61  54  48
   3  61  54  34
   3  61  48  33
   3  61  48  54
   3  61  33  48
   3  61  33  29
   3  62  49  37
   3  62  49  63
   3  62  37  47
   3  62  37  49
   3  62  47  38
   3  62  47  37
   3  62  38  63
   3  62  38  47
   3  62  63  38
   3  62  63  49
   3  63  38  79
   3  63  38  62
   3  63  79  38
   3  63  79  14
   3  63  14  10
   3  63  14  79
   3  63  10   6
   3  63  10  14
   3  63   6  31
   3  63   6  10
   3  63  31  67
   3  63  31   6
   3  63  67  49
   3  63  67  31
   3  63  49  62
   3  63  49  67
   3  63  62  49
   3  63  62  38
   3  64  37  49
   3  64  37  32
   3  64  49  37
   3  64  49  50
   3  64  50  43
   3  64  50  49
   3  64  43  32
   3  64  43  50
   3  64  32  37
   3  64  32  43
   3  65   3  26
   4  65   3   4  66
   3  65  26  45
   3  65  26   3
   3  65  45  26
   4  65  45  46  66
   3  66   4  27
   4  66   4   3  65
   3  66  46  27
   4  66  46  45  65
   3  66  27   4
   3  66  27  46
   3  67  51  49
   3  67  51  44
   3  67  49  63
   3  67  49  51
   3  67  63  31
   3  67  63  49
   3  67  31  44
   3  67  31  63
   3  67  44  31
   3  67  44  51
   3  68   5  36
   3  68   5   8
   3  68  36  40
   3  68  36   5
   3  68  40  33
   3  68  40  36
   3  68  33   8
   3  68  33  40
   3  68   8   5
   3  68   8  33
   3  69  20  48
   3  69  20  24
   3  69  48  56
   3  69  48  20
   3  69  56  24
   3  69  56  48
   3  69  24  20
   3  69  24  56
   3  70  57  54
   3  70  57  25
   3  70  54  57
   3  70  54  21
   3  70  21  25
   3  70  21  54
   3  70  25  57
   3  70  25  21
   3  71  30  41
   3  71  30  39
   3  71  41  55
   3  71  41  30
   3  71  55  53
   3  71  55  41
   3  71  53  39
   3  71  53  55
   3  71  39  30
   3  71  39  53
   3  72  52  40
   3  72  52  55
   3  72  55  52
   3  72  55  42
   3  72  42  55
   3  72  42  29
   3  72  29  40
   3  72  29  42
   3  72  40  29
   3  72  40  52
   3  75  14  79
   3  75  14  18
   3  75  79  38
   3  75  79  14
   3  75  38  59
   3  75  38  79
   3  75  59  18
   3  75  59  38
   3  75  18  14
   3  75  18  59
   3  76  60  47
   3  76  60  19
   3  76  47  80
   3  76  47  60
   3  76  80  47
   3  76  80  15
   3  76  15  19
   3  76  15  80
   3  76  19  60
   3  76  19  15
   3  77  50  43
   3  77  50  55
   3  77  55  52
   3  77  55  50
   3  77  52  43
   3  77  52  55
   3  77  43  50
   3  77  43  52
   3  78  53  44
   3  78  53  55
   3  78  55  51
   3  78  55  53
   3  78  51  44
   3  78  51  55
   3  78  44  53
   3  78  44  51
   3  79  63  38
   3  79  63  14
   3  79  38  75
   3  79  38  63
   3  79  75  14
   3  79  75  38
   3  79  14  63
   3  79  14  75
   3  80  76  47
   3  80  76  15
   3  80  47  37
   3  80  47  76
   3  80  37  47
   3  80  37  15
   3  80  15  76
   3  80  15  37
