 COFF
           7          36           7
  
  -1.3746461529390190       0.52165668510106600        1.3846803491671809       0.60000002384185791       0.60000002384185791       0.60000002384185791       0.80000001192092896     
  -1.3746461529390193      -0.52165668510106600        1.3846803491671809       0.60000002384185791       0.60000002384185791       0.60000002384185791       0.80000001192092896     
  -2.9842228116022310E-004  -1.0412325146387087        1.3836104357562453       0.60000002384185791       0.60000002384185791       0.60000002384185791       0.80000001192092896     
   1.4711764734458488      -0.52181521996190350        1.3848346478961213       0.60000002384185791       0.60000002384185791       0.60000002384185791       0.80000001192092896     
   1.4711764734458488       0.52181521996190350        1.3848346478961213       0.60000002384185791       0.60000002384185791       0.60000002384185791       0.80000001192092896     
  -2.9842228116022315E-004   1.0412325146387087        1.3836104357562453       0.60000002384185791       0.60000002384185791       0.60000002384185791       0.80000001192092896     
   1.4819834784702273E-003  -2.5827455961363743E-017   1.0306063639638421        1.0000000000000000        1.0000000000000000        0.0000000000000000        1.0000000000000000     
  
   3   0   5   6
   3   0   6   5
   3   0   6   1
   3   0   1   6
   3   1   0   6
   3   1   6   2
   3   1   6   0
   3   1   2   6
   3   2   6   3
   3   2   6   1
   3   2   3   6
   3   2   1   6
   3   3   4   6
   3   3   2   6
   3   3   6   4
   3   3   6   2
   3   4   3   6
   3   4   6   5
   3   4   6   3
   3   4   5   6
   3   5   4   6
   3   5   6   4
   3   5   6   0
   3   5   0   6
   3   6   5   4
   3   6   5   0
   3   6   4   3
   3   6   4   5
   3   6   3   4
   3   6   3   2
   3   6   2   3
   3   6   2   1
   3   6   1   0
   3   6   1   2
   3   6   0   5
   3   6   0   1
