# Generated by dad_to_polygons. Vertex data from Humppa's .off file,
# polygons parsed from .dad file.
COFF
120 418 120
-6.533384 1.054039 5.980174 0.500000 0.500000 0.500000 1.0
-6.533384 -1.054039 5.980174 0.500000 0.500000 0.500000 1.0
-0.031760 -2.141789 5.650380 0.500000 0.500000 0.500000 1.0
7.369373 -0.952312 6.142236 0.500000 0.500000 0.500000 1.0
7.369373 0.952312 6.142236 0.500000 0.500000 0.500000 1.0
-0.031760 2.141789 5.650380 0.500000 0.500000 0.500000 1.0
1.121778 -1.825482 5.788098 0.500000 0.500000 0.500000 1.0
1.121778 1.825482 5.788098 0.500000 0.500000 0.500000 1.0
-1.142282 1.810197 5.757132 0.500000 0.500000 0.500000 1.0
-1.142282 -1.810197 5.757132 0.500000 0.500000 0.500000 1.0
2.038882 -1.513566 6.037254 0.500000 0.500000 0.500000 1.0
2.038882 1.513566 6.037253 0.500000 0.500000 0.500000 1.0
-2.062984 1.519721 6.017774 0.500000 0.500000 0.500000 1.0
-2.062984 -1.519721 6.017774 0.500000 0.500000 0.500000 1.0
3.034191 -1.624005 5.836572 0.500000 0.500000 0.500000 1.0
3.034194 1.624005 5.836573 0.500000 0.500000 0.500000 1.0
-3.029376 1.613889 5.779760 0.500000 0.500000 0.500000 1.0
-3.029376 -1.613889 5.779760 0.500000 0.500000 0.500000 1.0
4.080877 -1.541530 5.955559 0.500000 0.500000 0.500000 1.0
4.080877 1.541530 5.955559 0.500000 0.500000 0.500000 1.0
-4.059146 1.532756 5.914676 0.500000 0.500000 0.500000 1.0
-4.059146 -1.532756 5.914676 0.500000 0.500000 0.500000 1.0
5.066829 -1.325659 6.010891 0.500000 0.500000 0.500000 1.0
5.066829 1.325659 6.010891 0.500000 0.500000 0.500000 1.0
-5.052919 1.332322 5.941122 0.500000 0.500000 0.500000 1.0
-5.052919 -1.332322 5.941122 0.500000 0.500000 0.500000 1.0
6.055724 -1.174838 6.077119 0.500000 0.500000 0.500000 1.0
6.055724 1.174838 6.077119 0.500000 0.500000 0.500000 1.0
-7.466249 -0.000000 5.984751 0.500000 0.500000 0.500000 1.0
-1.734686 0.845361 3.607080 0.500000 0.500000 0.500000 1.0
-1.734686 -0.845361 3.607080 0.500000 0.500000 0.500000 1.0
0.911426 -1.764934 4.467717 0.500000 0.500000 0.500000 1.0
0.911425 1.764942 4.467739 0.500000 0.500000 0.500000 1.0
-2.094494 1.482317 4.861581 0.500000 0.500000 0.500000 1.0
-2.094494 -1.482317 4.861581 0.500000 0.500000 0.500000 1.0
0.052035 -1.869836 4.327048 0.500000 0.500000 0.500000 1.0
0.052146 1.869879 4.327048 0.500000 0.500000 0.500000 1.0
2.079634 1.472387 4.977990 0.500000 0.500000 0.500000 1.0
3.523118 -0.619077 2.726269 1.0 1.0 0.0 1.0
-0.762691 -1.743467 3.818380 0.500000 0.500000 0.500000 1.0
-0.762692 1.743468 3.818379 0.500000 0.500000 0.500000 1.0
-1.411542 -0.951673 2.264750 0.500000 0.500000 0.500000 1.0
-1.411554 0.951670 2.264760 0.500000 0.500000 0.500000 1.0
0.806726 1.743020 3.454763 0.500000 0.500000 0.500000 1.0
0.806793 -1.743117 3.454750 0.500000 0.500000 0.500000 1.0
5.528140 -1.227698 5.139349 0.500000 0.500000 0.500000 1.0
5.528140 1.227698 5.139350 0.500000 0.500000 0.500000 1.0
3.523117 0.619076 2.726269 1.0 1.0 0.0 1.0
-3.487218 0.659459 2.981640 1.0 1.0 0.0 1.0
1.728440 -0.000003 3.997877 0.500000 0.500000 0.500000 1.0
1.177543 1.292383 3.163423 0.500000 0.500000 0.500000 1.0
1.177545 -1.292398 3.163462 0.500000 0.500000 0.500000 1.0
0.160445 1.778392 3.259446 0.500000 0.500000 0.500000 1.0
0.160586 -1.778384 3.259446 0.500000 0.500000 0.500000 1.0
-3.487218 -0.659459 2.981640 1.0 1.0 0.0 1.0
0.111092 -0.000000 1.030606 1.0 1.0 0.0 1.0
-5.208803 1.220564 4.945331 0.500000 0.500000 0.500000 1.0
-5.208803 -1.220564 4.945331 0.500000 0.500000 0.500000 1.0
1.375166 0.000003 2.849095 0.500000 0.500000 0.500000 1.0
4.554311 -1.437742 5.287823 0.500000 0.500000 0.500000 1.0
4.554329 1.437695 5.287822 0.500000 0.500000 0.500000 1.0
-2.094765 -0.000000 4.179941 0.500000 0.500000 0.500000 1.0
2.079726 -0.000025 4.333084 0.500000 0.500000 0.500000 1.0
2.079619 -1.472390 4.977983 0.500000 0.500000 0.500000 1.0
1.292806 1.627343 4.188028 0.500000 0.500000 0.500000 1.0
6.618837 -1.028498 5.547156 0.500000 0.500000 0.500000 1.0
6.618837 1.028498 5.547156 0.500000 0.500000 0.500000 1.0
1.292824 -1.627331 4.188030 0.500000 0.500000 0.500000 1.0
-0.950172 1.781156 4.751449 0.500000 0.500000 0.500000 1.0
-4.531324 1.425576 5.256224 0.500000 0.500000 0.500000 1.0
-4.531324 -1.425576 5.256224 0.500000 0.500000 0.500000 1.0
-0.548713 -1.572933 2.946863 0.500000 0.500000 0.500000 1.0
-0.548716 1.572934 2.946859 0.500000 0.500000 0.500000 1.0
5.218599 -0.897819 3.941180 0.500000 0.500000 0.500000 1.0
5.218598 0.897818 3.941179 0.500000 0.500000 0.500000 1.0
4.047640 -1.492211 4.781527 0.500000 0.500000 0.500000 1.0
4.047637 1.492209 4.781523 0.500000 0.500000 0.500000 1.0
0.756513 1.563685 2.496678 0.500000 0.500000 0.500000 1.0
0.756521 -1.563690 2.496680 0.500000 0.500000 0.500000 1.0
3.114670 -1.510768 4.494946 0.500000 0.500000 0.500000 1.0
3.114668 1.510772 4.494930 0.500000 0.500000 0.500000 1.0
0.157103 1.572327 2.246708 0.500000 0.500000 0.500000 1.0
0.157105 -1.572330 2.246708 0.500000 0.500000 0.500000 1.0
-3.992952 1.465201 4.850555 0.500000 0.500000 0.500000 1.0
-3.992952 -1.465201 4.850555 0.500000 0.500000 0.500000 1.0
1.062647 1.032971 2.229983 0.500000 0.500000 0.500000 1.0
1.062641 -1.032978 2.229973 0.500000 0.500000 0.500000 1.0
-3.172763 1.468281 4.515757 0.500000 0.500000 0.500000 1.0
-3.172763 -1.468281 4.515757 0.500000 0.500000 0.500000 1.0
4.456699 -1.384317 4.277139 0.500000 0.500000 0.500000 1.0
4.456699 1.384315 4.277140 0.500000 0.500000 0.500000 1.0
6.061212 -0.000000 4.790794 0.500000 0.500000 0.500000 1.0
2.486386 1.062444 4.099579 0.500000 0.500000 0.500000 1.0
2.486385 -1.062444 4.099550 0.500000 0.500000 0.500000 1.0
-4.937677 0.914364 3.949048 0.500000 0.500000 0.500000 1.0
-4.937677 -0.914364 3.949048 0.500000 0.500000 0.500000 1.0
-5.834523 0.000000 4.848247 0.500000 0.500000 0.500000 1.0
-0.388273 -1.413913 1.970999 0.500000 0.500000 0.500000 1.0
-0.388284 1.413913 1.970988 0.500000 0.500000 0.500000 1.0
-4.335483 1.286993 4.169696 0.500000 0.500000 0.500000 1.0
-4.335483 -1.286993 4.169696 0.500000 0.500000 0.500000 1.0
1.185688 0.000000 2.057603 0.500000 0.500000 0.500000 1.0
-2.595014 1.087440 4.031200 0.500000 0.500000 0.500000 1.0
-2.595014 -1.087440 4.031200 0.500000 0.500000 0.500000 1.0
2.454285 -0.304072 3.359611 0.500000 0.500000 0.500000 1.0
2.454281 0.304075 3.359613 0.500000 0.500000 0.500000 1.0
-1.065600 -0.600243 1.544912 0.500000 0.500000 0.500000 1.0
-1.065609 0.600239 1.544914 0.500000 0.500000 0.500000 1.0
-0.950172 -1.781156 4.751450 0.500000 0.500000 0.500000 1.0
3.848855 -1.308419 3.847277 0.500000 0.500000 0.500000 1.0
3.848852 1.308418 3.847277 0.500000 0.500000 0.500000 1.0
0.603468 1.058526 1.714022 0.500000 0.500000 0.500000 1.0
0.603474 -1.058526 1.714024 0.500000 0.500000 0.500000 1.0
6.756594 -0.000000 5.487488 1.0 1.0 0.0 1.0
4.601239 -0.740566 3.267676 0.500000 0.500000 0.500000 1.0
4.601238 0.740565 3.267676 0.500000 0.500000 0.500000 1.0
-3.781092 1.155436 3.923364 0.500000 0.500000 0.500000 1.0
-3.781092 -1.155436 3.923364 0.500000 0.500000 0.500000 1.0
3.310652 -1.091083 3.613864 0.500000 0.500000 0.500000 1.0
3.310651 1.091084 3.613856 0.500000 0.500000 0.500000 1.0
3 0 96 28
3 0 28 96
3 1 25 57
3 1 57 25
3 2 31 6
3 2 6 31
3 2 108 9
3 2 9 108
3 2 108 35
3 2 35 108
3 3 65 26
3 3 26 65
3 3 113 65
3 3 65 113
3 4 113 3
3 4 3 113
3 5 7 32
3 5 32 7
3 5 36 32
3 5 32 36
3 5 36 68
3 5 68 36
3 6 31 63
3 6 63 31
3 6 63 10
3 6 10 63
3 8 5 68
3 8 68 5
3 11 37 7
3 11 7 37
3 12 8 33
3 12 33 8
3 13 34 9
3 13 9 34
3 14 63 79
3 14 79 63
3 14 75 79
3 14 79 75
3 15 37 11
3 15 11 37
3 16 33 12
3 16 12 33
3 16 83 20
3 16 20 83
3 16 87 83
3 16 83 87
3 17 13 34
3 17 34 13
3 17 34 88
3 17 88 34
3 17 88 84
3 17 84 88
3 19 76 15
3 19 15 76
3 20 69 24
3 20 24 69
3 21 25 70
3 21 70 25
3 21 70 84
3 21 84 70
3 22 26 45
3 22 45 26
3 22 45 59
3 22 59 45
3 22 59 18
3 22 18 59
3 23 19 60
3 23 60 19
3 23 27 46
3 23 46 27
3 24 56 0
3 24 0 56
3 24 69 56
3 24 56 69
3 25 57 70
3 25 70 57
3 27 4 66
3 27 66 4
3 28 1 96
3 28 96 1
3 29 61 33
3 29 33 61
3 29 72 40
3 29 40 72
3 30 29 61
3 30 61 29
3 30 34 61
3 30 61 34
3 30 39 34
3 30 34 39
3 30 41 42
3 30 42 41
3 30 41 71
3 30 71 41
3 30 42 29
3 30 29 42
3 30 71 39
3 30 39 71
3 31 35 2
3 31 2 35
3 32 37 7
3 32 7 37
3 32 37 64
3 32 64 37
3 32 43 36
3 32 36 43
3 32 64 43
3 32 43 64
3 33 16 87
3 33 87 16
3 33 40 68
3 33 68 40
3 33 68 8
3 33 8 68
3 33 87 102
3 33 102 87
3 34 108 39
3 34 39 108
3 35 39 53
3 35 53 39
3 35 44 31
3 35 31 44
3 35 53 44
3 35 44 53
3 35 108 39
3 35 39 108
3 36 43 52
3 36 52 43
3 36 52 40
3 36 40 52
3 37 15 80
3 37 80 15
3 37 49 62
3 37 62 49
3 37 64 49
3 37 49 64
3 37 80 92
3 37 92 80
3 37 92 62
3 37 62 92
3 38 47 115
3 38 115 47
3 38 104 105
3 38 105 104
3 38 105 47
3 38 47 105
3 38 109 118
3 38 118 109
3 38 115 114
3 38 114 115
3 39 53 71
3 39 71 53
3 40 33 29
3 40 29 33
3 40 52 72
3 40 72 52
3 40 68 36
3 40 36 68
3 41 42 107
3 41 107 42
3 41 55 97
3 41 97 55
3 41 71 97
3 41 97 71
3 41 106 55
3 41 55 106
3 41 107 106
3 41 106 107
3 42 29 72
3 42 72 29
3 42 55 107
3 42 107 55
3 42 98 55
3 42 55 98
3 43 52 77
3 43 77 52
3 44 53 78
3 44 78 53
3 44 67 51
3 44 51 67
3 44 78 51
3 44 51 78
3 45 26 65
3 45 65 26
3 45 73 91
3 45 91 73
3 45 89 59
3 45 59 89
3 45 91 65
3 45 65 91
3 46 66 27
3 46 27 66
3 46 74 90
3 46 90 74
3 46 91 66
3 46 66 91
3 47 62 105
3 47 105 62
3 47 74 90
3 47 90 74
3 47 90 110
3 47 110 90
3 47 92 62
3 47 62 92
3 47 115 74
3 47 74 115
3 48 54 61
3 48 61 54
3 48 54 95
3 48 95 54
3 48 61 102
3 48 102 61
3 48 95 94
3 48 94 95
3 49 63 62
3 49 62 63
3 49 64 50
3 49 50 64
3 49 67 51
3 49 51 67
3 50 58 85
3 50 85 58
3 50 64 43
3 50 43 64
3 50 85 77
3 50 77 85
3 51 49 58
3 51 58 49
3 51 58 86
3 51 86 58
3 51 78 86
3 51 86 78
3 52 77 81
3 52 81 77
3 52 81 72
3 52 72 81
3 54 61 103
3 54 103 61
3 54 100 117
3 54 117 100
3 55 81 111
3 55 111 81
3 55 86 101
3 55 101 86
3 55 101 85
3 55 85 101
3 55 111 85
3 55 85 111
3 55 112 82
3 55 82 112
3 55 112 86
3 55 86 112
3 56 0 96
3 56 96 0
3 56 94 99
3 56 99 94
3 57 95 100
3 57 100 95
3 57 96 1
3 57 1 96
3 57 100 70
3 57 70 100
3 58 50 49
3 58 49 50
3 58 86 101
3 58 101 86
3 58 101 85
3 58 85 101
3 59 75 18
3 59 18 75
3 60 19 76
3 60 76 19
3 60 23 46
3 60 46 23
3 60 46 90
3 60 90 46
3 60 90 76
3 60 76 90
3 61 102 33
3 61 33 102
3 61 103 34
3 61 34 103
3 62 63 93
3 62 93 63
3 63 10 14
3 63 14 10
3 63 49 67
3 63 67 49
3 63 67 31
3 63 31 67
3 63 93 79
3 63 79 93
3 65 113 91
3 65 91 113
3 67 31 44
3 67 44 31
3 69 83 20
3 69 20 83
3 69 83 99
3 69 99 83
3 69 99 56
3 69 56 99
3 71 53 82
3 71 82 53
3 71 97 82
3 71 82 97
3 72 81 98
3 72 98 81
3 72 98 42
3 72 42 98
3 74 114 73
3 74 73 114
3 74 115 114
3 74 114 115
3 75 18 14
3 75 14 18
3 75 89 59
3 75 59 89
3 75 109 89
3 75 89 109
3 76 80 15
3 76 15 80
3 76 110 80
3 76 80 110
3 77 50 43
3 77 43 50
3 77 85 111
3 77 111 85
3 77 111 81
3 77 81 111
3 78 82 53
3 78 53 82
3 79 118 93
3 79 93 118
3 79 118 109
3 79 109 118
3 80 92 119
3 80 119 92
3 81 98 55
3 81 55 98
3 82 55 97
3 82 97 55
3 83 99 116
3 83 116 99
3 83 116 87
3 83 87 116
3 84 21 17
3 84 17 21
3 84 70 100
3 84 100 70
3 84 117 88
3 84 88 117
3 86 78 112
3 86 112 78
3 88 54 117
3 88 117 54
3 89 38 109
3 89 109 38
3 89 73 45
3 89 45 73
3 89 73 114
3 89 114 73
3 89 114 38
3 89 38 114
3 90 110 76
3 90 76 110
3 91 74 46
3 91 46 74
3 91 74 73
3 91 73 74
3 91 113 66
3 91 66 113
3 93 38 118
3 93 118 38
3 93 62 104
3 93 104 62
3 93 104 38
3 93 38 104
3 94 56 96
3 94 96 56
3 94 96 95
3 94 95 96
3 94 99 48
3 94 48 99
3 95 54 100
3 95 100 54
3 95 96 57
3 95 57 96
3 99 48 116
3 99 116 48
3 102 48 87
3 102 87 48
3 103 34 88
3 103 88 34
3 103 88 54
3 103 54 88
3 105 104 62
3 105 62 104
3 106 107 55
3 106 55 107
3 108 9 34
3 108 34 9
3 109 75 79
3 109 79 75
3 110 119 47
3 110 47 119
3 112 78 82
3 112 82 78
3 113 4 66
3 113 66 4
3 116 87 48
3 116 48 87
3 117 100 84
3 117 84 100
3 119 47 92
3 119 92 47
3 119 110 80
3 119 80 110
