# Generated by dad_to_polygons. Vertex data from Humppa's .off file,
# polygons parsed from .dad file.
COFF
129 454 129
-6.562080 1.107991 6.322928 0.500000 0.500000 0.500000 1.0
-6.562080 -1.107991 6.322928 0.500000 0.500000 0.500000 1.0
-0.032461 -2.204667 5.984491 0.500000 0.500000 0.500000 1.0
7.424015 -0.998269 6.478330 0.500000 0.500000 0.500000 1.0
7.424015 0.998269 6.478330 0.500000 0.500000 0.500000 1.0
-0.032461 2.204667 5.984491 0.500000 0.500000 0.500000 1.0
1.135579 -1.887811 6.122148 0.500000 0.500000 0.500000 1.0
1.135579 1.887811 6.122148 0.500000 0.500000 0.500000 1.0
-1.154682 1.873177 6.090406 0.500000 0.500000 0.500000 1.0
-1.154682 -1.873177 6.090406 0.500000 0.500000 0.500000 1.0
2.050200 -1.574283 6.378328 0.500000 0.500000 0.500000 1.0
2.050200 1.574283 6.378328 0.500000 0.500000 0.500000 1.0
-2.073306 1.581890 6.357455 0.500000 0.500000 0.500000 1.0
-2.073306 -1.581890 6.357455 0.500000 0.500000 0.500000 1.0
3.033157 -1.702493 6.155931 0.500000 0.500000 0.500000 1.0
3.033160 1.702494 6.155933 0.500000 0.500000 0.500000 1.0
-3.030735 1.696935 6.093672 0.500000 0.500000 0.500000 1.0
-3.030735 -1.696935 6.093672 0.500000 0.500000 0.500000 1.0
4.090977 -1.607743 6.287312 0.500000 0.500000 0.500000 1.0
4.090977 1.607743 6.287312 0.500000 0.500000 0.500000 1.0
-4.069269 1.602794 6.242266 0.500000 0.500000 0.500000 1.0
-4.069269 -1.602794 6.242266 0.500000 0.500000 0.500000 1.0
5.078107 -1.385424 6.352611 0.500000 0.500000 0.500000 1.0
5.078107 1.385424 6.352611 0.500000 0.500000 0.500000 1.0
-5.065229 1.394270 6.279605 0.500000 0.500000 0.500000 1.0
-5.065229 -1.394270 6.279605 0.500000 0.500000 0.500000 1.0
6.065083 -1.231689 6.424857 0.500000 0.500000 0.500000 1.0
6.065083 1.231689 6.424857 0.500000 0.500000 0.500000 1.0
-7.670339 0.000104 6.338410 0.500000 0.500000 0.500000 1.0
-1.706115 0.869357 3.862527 0.500000 0.500000 0.500000 1.0
-1.706115 -0.869356 3.862527 0.500000 0.500000 0.500000 1.0
0.927055 -1.825501 4.770337 0.500000 0.500000 0.500000 1.0
0.927051 1.825506 4.770349 0.500000 0.500000 0.500000 1.0
-2.104836 1.557968 5.183934 0.500000 0.500000 0.500000 1.0
-2.104836 -1.557968 5.183934 0.500000 0.500000 0.500000 1.0
0.052131 -1.929708 4.616014 0.500000 0.500000 0.500000 1.0
0.052241 1.929759 4.616014 0.500000 0.500000 0.500000 1.0
2.099297 1.541075 5.276673 0.500000 0.500000 0.500000 1.0
3.515614 -0.619322 2.726269 1.0 1.0 0.0 1.0
-0.787905 -1.810287 4.119635 0.500000 0.500000 0.500000 1.0
-0.787906 1.810288 4.119635 0.500000 0.500000 0.500000 1.0
-1.413455 -0.971586 2.511049 0.500000 0.500000 0.500000 1.0
-1.413464 0.971584 2.511059 0.500000 0.500000 0.500000 1.0
0.814550 1.806009 3.731090 0.500000 0.500000 0.500000 1.0
0.814547 -1.805899 3.731080 0.500000 0.500000 0.500000 1.0
5.541200 -1.286147 5.484794 0.500000 0.500000 0.500000 1.0
5.541201 1.286147 5.484794 0.500000 0.500000 0.500000 1.0
3.515614 0.619321 2.726269 1.0 1.0 0.0 1.0
-3.500329 0.659895 2.981640 1.0 1.0 0.0 1.0
1.725443 -0.000003 4.297977 0.500000 0.500000 0.500000 1.0
1.167865 1.351419 3.428822 0.500000 0.500000 0.500000 1.0
1.167864 -1.351434 3.428845 0.500000 0.500000 0.500000 1.0
0.165962 1.841528 3.522673 0.500000 0.500000 0.500000 1.0
0.165981 -1.841437 3.522673 0.500000 0.500000 0.500000 1.0
-3.500329 -0.659895 2.981640 1.0 1.0 0.0 1.0
0.117445 -0.000000 1.030606 1.0 1.0 0.0 1.0
-5.228056 1.281799 5.265936 0.500000 0.500000 0.500000 1.0
-5.228056 -1.281799 5.265936 0.500000 0.500000 0.500000 1.0
1.356494 0.000002 3.050611 0.500000 0.500000 0.500000 1.0
4.562198 -1.501547 5.600522 0.500000 0.500000 0.500000 1.0
4.562215 1.501597 5.600542 0.500000 0.500000 0.500000 1.0
-2.104718 -0.000000 4.391112 0.500000 0.500000 0.500000 1.0
2.099639 -0.000033 4.594510 0.500000 0.500000 0.500000 1.0
2.099307 -1.541080 5.276647 0.500000 0.500000 0.500000 1.0
1.295426 1.696067 4.469411 0.500000 0.500000 0.500000 1.0
6.657316 -1.086749 5.854520 0.500000 0.500000 0.500000 1.0
6.657316 1.086749 5.854520 0.500000 0.500000 0.500000 1.0
1.295433 -1.696057 4.469407 0.500000 0.500000 0.500000 1.0
-0.958941 1.841565 5.045393 0.500000 0.500000 0.500000 1.0
-4.550086 1.499083 5.567397 0.500000 0.500000 0.500000 1.0
-4.550086 -1.499083 5.567397 0.500000 0.500000 0.500000 1.0
-0.553868 -1.621442 3.171581 0.500000 0.500000 0.500000 1.0
-0.553870 1.621444 3.171579 0.500000 0.500000 0.500000 1.0
5.283429 -0.965649 4.233587 0.500000 0.500000 0.500000 1.0
5.283429 0.965650 4.233588 0.500000 0.500000 0.500000 1.0
4.070020 -1.573717 5.082190 0.500000 0.500000 0.500000 1.0
4.069999 1.573720 5.082166 0.500000 0.500000 0.500000 1.0
0.736729 1.651226 2.782456 0.500000 0.500000 0.500000 1.0
0.736798 -1.651177 2.782471 0.500000 0.500000 0.500000 1.0
3.114362 -1.598088 4.752968 0.500000 0.500000 0.500000 1.0
3.114406 1.598111 4.752938 0.500000 0.500000 0.500000 1.0
0.200639 1.679808 2.470878 0.500000 0.500000 0.500000 1.0
0.200638 -1.679806 2.470879 0.500000 0.500000 0.500000 1.0
-4.027160 1.550563 5.137181 0.500000 0.500000 0.500000 1.0
-4.027160 -1.550563 5.137181 0.500000 0.500000 0.500000 1.0
1.059626 1.094912 2.472801 0.500000 0.500000 0.500000 1.0
1.059624 -1.094915 2.472793 0.500000 0.500000 0.500000 1.0
-3.140428 1.554432 4.721591 0.500000 0.500000 0.500000 1.0
-3.140428 -1.554431 4.721591 0.500000 0.500000 0.500000 1.0
4.524366 -1.465126 4.561838 0.500000 0.500000 0.500000 1.0
4.524367 1.465128 4.561839 0.500000 0.500000 0.500000 1.0
6.224054 -0.000000 5.093228 0.500000 0.500000 0.500000 1.0
2.504268 1.126925 4.353923 0.500000 0.500000 0.500000 1.0
2.504105 -1.127015 4.353898 0.500000 0.500000 0.500000 1.0
-5.016106 0.984773 4.199041 0.500000 0.500000 0.500000 1.0
-5.016106 -0.984773 4.199041 0.500000 0.500000 0.500000 1.0
-5.999090 0.000000 5.165842 0.500000 0.500000 0.500000 1.0
-0.436613 -1.481631 2.150890 0.500000 0.500000 0.500000 1.0
-0.436624 1.481634 2.150881 0.500000 0.500000 0.500000 1.0
-4.437350 1.398179 4.410377 0.500000 0.500000 0.500000 1.0
-4.437350 -1.398179 4.410377 0.500000 0.500000 0.500000 1.0
1.181255 -0.000001 2.266705 0.500000 0.500000 0.500000 1.0
-2.530473 1.130866 4.338289 0.500000 0.500000 0.500000 1.0
-2.530473 -1.130866 4.338289 0.500000 0.500000 0.500000 1.0
2.327163 -0.304883 3.427774 0.500000 0.500000 0.500000 1.0
2.327161 0.304884 3.427782 0.500000 0.500000 0.500000 1.0
-1.272434 -0.752884 1.667862 0.500000 0.500000 0.500000 1.0
-1.272441 0.752879 1.667864 0.500000 0.500000 0.500000 1.0
-0.958940 -1.841565 5.045393 0.500000 0.500000 0.500000 1.0
3.920858 -1.478519 4.100681 0.500000 0.500000 0.500000 1.0
3.920854 1.478520 4.100679 0.500000 0.500000 0.500000 1.0
0.673790 1.293334 1.893690 1.000000 1.000000 1.000000 1.0
0.673794 -1.293334 1.893692 1.000000 1.000000 1.000000 1.0
6.766555 -0.000000 5.487488 1.0 1.0 0.0 1.0
4.682735 -0.881545 3.304345 0.500000 0.500000 0.500000 1.0
4.682733 0.881545 3.304345 0.500000 0.500000 0.500000 1.0
-3.892119 1.390999 4.143169 0.500000 0.500000 0.500000 1.0
-3.892119 -1.390999 4.143169 0.500000 0.500000 0.500000 1.0
3.195020 -1.357796 3.850091 0.500000 0.500000 0.500000 1.0
3.195021 1.357799 3.850082 0.500000 0.500000 0.500000 1.0
-6.804305 0.000000 5.681186 1.0 1.0 0.0 1.0
0.134530 1.165054 1.656214 1.000000 1.000000 1.000000 1.0
0.134528 -1.165057 1.656217 1.000000 1.000000 1.000000 1.0
4.211639 -1.236945 3.688102 0.500000 0.500000 0.500000 1.0
4.211639 1.236944 3.688102 0.500000 0.500000 0.500000 1.0
-2.610349 0.323728 3.621041 0.500000 0.500000 0.500000 1.0
-2.610349 -0.323728 3.621041 0.500000 0.500000 0.500000 1.0
0.681749 0.562978 1.743821 1.000000 1.000000 1.000000 1.0
0.681749 -0.562980 1.743817 1.000000 1.000000 1.000000 1.0
3 0 56 24
3 0 24 56
3 0 96 120
3 0 120 96
3 1 57 25
3 1 25 57
3 1 57 96
3 1 96 57
3 1 96 120
3 1 120 96
3 2 35 31
3 2 31 35
3 2 108 35
3 2 35 108
3 3 65 26
3 3 26 65
3 4 113 66
3 4 66 113
3 5 36 68
3 5 68 36
3 6 2 31
3 6 31 2
3 6 31 63
3 6 63 31
3 6 63 10
3 6 10 63
3 7 5 32
3 7 32 5
3 7 32 37
3 7 37 32
3 8 12 33
3 8 33 12
3 8 68 5
3 8 5 68
3 9 108 2
3 9 2 108
3 11 15 37
3 11 37 15
3 11 37 7
3 11 7 37
3 13 34 9
3 13 9 34
3 14 10 63
3 14 63 10
3 14 63 79
3 14 79 63
3 15 19 76
3 15 76 19
3 16 87 83
3 16 83 87
3 17 34 88
3 17 88 34
3 18 75 59
3 18 59 75
3 20 69 83
3 20 83 69
3 20 83 16
3 20 16 83
3 22 45 26
3 22 26 45
3 22 59 18
3 22 18 59
3 22 59 45
3 22 45 59
3 23 60 19
3 23 19 60
3 24 69 56
3 24 56 69
3 25 57 70
3 25 70 57
3 26 45 65
3 26 65 45
3 27 4 66
3 27 66 4
3 27 23 46
3 27 46 23
3 27 66 46
3 27 46 66
3 29 33 40
3 29 40 33
3 30 29 61
3 30 61 29
3 30 34 61
3 30 61 34
3 30 41 42
3 30 42 41
3 30 42 29
3 30 29 42
3 31 67 44
3 31 44 67
3 32 37 64
3 32 64 37
3 32 64 43
3 32 43 64
3 33 12 16
3 33 16 12
3 33 16 87
3 33 87 16
3 33 29 61
3 33 61 29
3 33 40 68
3 33 68 40
3 33 61 102
3 33 102 61
3 33 68 8
3 33 8 68
3 34 17 13
3 34 13 17
3 34 39 30
3 34 30 39
3 34 61 103
3 34 103 61
3 36 5 32
3 36 32 5
3 36 52 43
3 36 43 52
3 37 62 92
3 37 92 62
3 37 80 15
3 37 15 80
3 37 92 80
3 37 80 92
3 38 47 105
3 38 105 47
3 38 105 104
3 38 104 105
3 38 109 123
3 38 123 109
3 38 118 109
3 38 109 118
3 38 123 114
3 38 114 123
3 39 71 30
3 39 30 71
3 39 108 35
3 39 35 108
3 40 29 72
3 40 72 29
3 40 36 52
3 40 52 36
3 41 30 71
3 41 71 30
3 41 55 106
3 41 106 55
3 41 71 97
3 41 97 71
3 41 97 55
3 41 55 97
3 41 106 107
3 41 107 106
3 41 107 42
3 41 42 107
3 42 55 98
3 42 98 55
3 42 72 29
3 42 29 72
3 42 107 55
3 42 55 107
3 43 32 36
3 43 36 32
3 43 52 77
3 43 77 52
3 44 35 31
3 44 31 35
3 44 35 53
3 44 53 35
3 44 51 78
3 44 78 51
3 44 78 53
3 44 53 78
3 45 65 91
3 45 91 65
3 45 73 91
3 45 91 73
3 45 89 59
3 45 59 89
3 46 60 23
3 46 23 60
3 46 66 91
3 46 91 66
3 46 90 74
3 46 74 90
3 47 38 114
3 47 114 38
3 47 110 124
3 47 124 110
3 47 114 115
3 47 115 114
3 47 115 124
3 47 124 115
3 47 119 110
3 47 110 119
3 48 54 126
3 48 126 54
3 48 61 125
3 48 125 61
3 48 87 116
3 48 116 87
3 48 102 61
3 48 61 102
3 48 102 87
3 48 87 102
3 48 126 125
3 48 125 126
3 49 51 58
3 49 58 51
3 49 58 50
3 49 50 58
3 49 63 62
3 49 62 63
3 49 63 67
3 49 67 63
3 49 64 37
3 49 37 64
3 49 67 51
3 49 51 67
3 50 49 64
3 50 64 49
3 50 58 85
3 50 85 58
3 50 77 43
3 50 43 77
3 50 85 77
3 50 77 85
3 51 58 86
3 51 86 58
3 52 72 40
3 52 40 72
3 53 35 39
3 53 39 35
3 53 39 71
3 53 71 39
3 53 78 82
3 53 82 78
3 54 61 103
3 54 103 61
3 54 94 48
3 54 48 94
3 54 95 94
3 54 94 95
3 54 100 117
3 54 117 100
3 54 126 61
3 54 61 126
3 55 98 121
3 55 121 98
3 55 107 106
3 55 106 107
3 55 111 121
3 55 121 111
3 55 112 122
3 55 122 112
3 55 127 101
3 55 101 127
3 55 127 111
3 55 111 127
3 55 128 112
3 55 112 128
3 56 0 96
3 56 96 0
3 56 99 69
3 56 69 99
3 56 99 94
3 56 94 99
3 57 100 70
3 57 70 100
3 59 75 89
3 59 89 75
3 60 19 76
3 60 76 19
3 61 125 126
3 61 126 125
3 62 37 49
3 62 49 37
3 62 93 63
3 62 63 93
3 63 31 67
3 63 67 31
3 63 93 79
3 63 79 93
3 64 50 43
3 64 43 50
3 65 3 113
3 65 113 3
3 65 113 91
3 65 91 113
3 66 91 113
3 66 113 91
3 67 44 51
3 67 51 44
3 68 36 40
3 68 40 36
3 69 20 24
3 69 24 20
3 70 21 25
3 70 25 21
3 70 84 100
3 70 100 84
3 71 82 53
3 71 53 82
3 71 82 97
3 71 97 82
3 73 74 91
3 73 91 74
3 73 74 115
3 73 115 74
3 73 89 45
3 73 45 89
3 73 115 114
3 73 114 115
3 73 123 89
3 73 89 123
3 74 90 124
3 74 124 90
3 74 91 46
3 74 46 91
3 75 18 14
3 75 14 18
3 75 79 14
3 75 14 79
3 75 89 109
3 75 109 89
3 76 15 80
3 76 80 15
3 76 80 110
3 76 110 80
3 77 111 81
3 77 81 111
3 78 86 51
3 78 51 86
3 78 112 86
3 78 86 112
3 79 75 109
3 79 109 75
3 79 109 118
3 79 118 109
3 79 118 93
3 79 93 118
3 80 110 119
3 80 119 110
3 80 119 92
3 80 92 119
3 81 52 72
3 81 72 52
3 81 52 77
3 81 77 52
3 82 78 112
3 82 112 78
3 82 112 122
3 82 122 112
3 82 122 97
3 82 97 122
3 83 116 87
3 83 87 116
3 83 116 99
3 83 99 116
3 84 17 21
3 84 21 17
3 84 21 70
3 84 70 21
3 84 88 17
3 84 17 88
3 84 88 117
3 84 117 88
3 84 117 100
3 84 100 117
3 85 111 127
3 85 127 111
3 85 127 101
3 85 101 127
3 86 58 101
3 86 101 58
3 86 101 128
3 86 128 101
3 87 33 102
3 87 102 33
3 88 54 103
3 88 103 54
3 88 103 34
3 88 34 103
3 89 123 109
3 89 109 123
3 90 46 60
3 90 60 46
3 90 76 60
3 90 60 76
3 90 124 110
3 90 110 124
3 92 47 105
3 92 105 47
3 92 105 62
3 92 62 105
3 93 38 104
3 93 104 38
3 93 38 118
3 93 118 38
3 93 104 62
3 93 62 104
3 94 95 96
3 94 96 95
3 94 96 56
3 94 56 96
3 95 54 100
3 95 100 54
3 95 96 57
3 95 57 96
3 95 100 57
3 95 57 100
3 97 122 55
3 97 55 122
3 98 72 42
3 98 42 72
3 98 81 72
3 98 72 81
3 99 48 94
3 99 94 48
3 99 83 69
3 99 69 83
3 101 58 85
3 101 85 58
3 105 62 104
3 105 104 62
3 108 34 9
3 108 9 34
3 108 39 34
3 108 34 39
3 110 76 90
3 110 90 76
3 111 77 85
3 111 85 77
3 111 121 81
3 111 81 121
3 113 3 4
3 113 4 3
3 115 74 124
3 115 124 74
3 116 99 48
3 116 48 99
3 117 54 88
3 117 88 54
3 119 47 92
3 119 92 47
3 120 0 28
3 120 28 0
3 120 1 28
3 120 28 1
3 121 81 98
3 121 98 81
3 123 73 114
3 123 114 73
3 128 55 101
3 128 101 55
3 128 112 86
3 128 86 112
