 COFF
         129        1274         129
  
  -6.5620801568504632        1.1079907815597896        6.3229275005360437       0.60000002384185791       0.60000002384185791       0.60000002384185791       0.80000001192092896     
  -6.5620803731441741       -1.1079906499467251        6.3229275135013001       0.60000002384185791       0.60000002384185791       0.60000002384185791       0.80000001192092896     
  -3.2460623842323670E-002  -2.2046672943604664        5.9844914873777109       0.60000002384185791       0.60000002384185791       0.60000002384185791       0.80000001192092896     
   7.4240147510501417      -0.99826948289031980        6.4783300271387674       0.60000002384185791       0.60000002384185791       0.60000002384185791       0.80000001192092896     
   7.4240147444618758       0.99826947926368259        6.4783300348435437       0.60000002384185791       0.60000002384185791       0.60000002384185791       0.80000001192092896     
  -3.2460626245650541E-002   2.2046673125059719        5.9844914690981685       0.60000002384185791       0.60000002384185791       0.60000002384185791       0.80000001192092896     
   1.1355787169740696       -1.8878107808930102        6.1221484300110989       0.60000002384185791       0.60000002384185791       0.60000002384185791       0.80000001192092896     
   1.1355786905136760        1.8878108183164286        6.1221483928540090       0.60000002384185791       0.60000002384185791       0.60000002384185791       0.80000001192092896     
  -1.1546821054509968        1.8731770235672871        6.0904060988030722       0.60000002384185791       0.60000002384185791       0.60000002384185791       0.80000001192092896     
  -1.1546821004015990       -1.8731770090716136        6.0904061143020733       0.60000002384185791       0.60000002384185791       0.60000002384185791       0.80000001192092896     
   2.0502002167381219       -1.5742826165176349        6.3783280653028749       0.60000002384185791       0.60000002384185791       0.60000002384185791       0.80000001192092896     
   2.0502002301231106        1.5742827174765439        6.3783279611784716       0.60000002384185791       0.60000002384185791       0.60000002384185791       0.80000001192092896     
  -2.0733055940338447        1.5818896654375518        6.3574549122044068       0.60000002384185791       0.60000002384185791       0.60000002384185791       0.80000001192092896     
  -2.0733055940112286       -1.5818896587254825        6.3574549189738070       0.60000002384185791       0.60000002384185791       0.60000002384185791       0.80000001192092896     
   3.0331569025220269       -1.7024934388217008        6.1559307367436613       0.60000002384185791       0.60000002384185791       0.60000002384185791       0.80000001192092896     
   3.0331601113640940        1.7024943091090077        6.1559331845883820       0.60000002384185791       0.60000002384185791       0.60000002384185791       0.80000001192092896     
  -3.0307345671206996        1.6969348032944456        6.0936715481030888       0.60000002384185791       0.60000002384185791       0.60000002384185791       0.80000001192092896     
  -3.0307345664193224       -1.6969347985044270        6.0936715530655849       0.60000002384185791       0.60000002384185791       0.60000002384185791       0.80000001192092896     
   4.0909771885099824       -1.6077430933519488        6.2873123573755949       0.60000002384185791       0.60000002384185791       0.60000002384185791       0.80000001192092896     
   4.0909772775462212        1.6077432255717619        6.2873122070335254       0.60000002384185791       0.60000002384185791       0.60000002384185791       0.80000001192092896     
  -4.0692686854672946        1.6027938521598395        6.2422659771384161       0.60000002384185791       0.60000002384185791       0.60000002384185791       0.80000001192092896     
  -4.0692686856518847       -1.6027938515620852        6.2422659784360404       0.60000002384185791       0.60000002384185791       0.60000002384185791       0.80000001192092896     
   5.0781073713114173       -1.3854236318216364        6.3526107561440410       0.60000002384185791       0.60000002384185791       0.60000002384185791       0.80000001192092896     
   5.0781073801714562        1.3854236051404987        6.3526107847006470       0.60000002384185791       0.60000002384185791       0.60000002384185791       0.80000001192092896     
  -5.0652294870688799        1.3942696452790828        6.2796046950346547       0.60000002384185791       0.60000002384185791       0.60000002384185791       0.80000001192092896     
  -5.0652294871475876       -1.3942696448074574        6.2796046954784766       0.60000002384185791       0.60000002384185791       0.60000002384185791       0.80000001192092896     
   6.0650833209707429       -1.2316893293313576        6.4248571377181003       0.60000002384185791       0.60000002384185791       0.60000002384185791       0.80000001192092896     
   6.0650833136305788        1.2316893009453103        6.4248571677739452       0.60000002384185791       0.60000002384185791       0.60000002384185791       0.80000001192092896     
  -7.6703388064309435        1.0360216445054941E-004   6.3384096970741615       0.60000002384185791       0.60000002384185791       0.60000002384185791       0.80000001192092896     
  -1.7061147918249240       0.86935684226325238        3.8625265777791444       0.60000002384185791       0.60000002384185791       0.60000002384185791       0.80000001192092896     
  -1.7061148057984221      -0.86935631200591990        3.8625265866396288       0.60000002384185791       0.60000002384185791       0.60000002384185791       0.80000001192092896     
  0.92705546045495435       -1.8255012640139865        4.7703370500789415       0.60000002384185791       0.60000002384185791       0.60000002384185791       0.80000001192092896     
  0.92705126539431415        1.8255058660788863        4.7703493229105591       0.60000002384185791       0.60000002384185791       0.60000002384185791       0.80000001192092896     
  -2.1048357889902660        1.5579682058616064        5.1839341800574372       0.60000002384185791       0.60000002384185791       0.60000002384185791       0.80000001192092896     
  -2.1048356500205379       -1.5579682026354229        5.1839340140132943       0.60000002384185791       0.60000002384185791       0.60000002384185791       0.80000001192092896     
   5.2130546461617293E-002  -1.9297080313357835        4.6160138157917752       0.60000002384185791       0.60000002384185791       0.60000002384185791       0.80000001192092896     
   5.2241271142724748E-002   1.9297591286564988        4.6160141890572746       0.60000002384185791       0.60000002384185791       0.60000002384185791       0.80000001192092896     
   2.0992965985436176        1.5410751095216570        5.2766728941366239       0.60000002384185791       0.60000002384185791       0.60000002384185791       0.80000001192092896     
   3.5156144460044354      -0.61932179629380613        2.7262692079133850        1.0000000000000000        1.0000000000000000        0.0000000000000000        1.0000000000000000     
 -0.78790538342459260       -1.8102869259750152        4.1196354827953519       0.60000002384185791       0.60000002384185791       0.60000002384185791       0.80000001192092896     
 -0.78790605675549830        1.8102877537807778        4.1196351855875344       0.60000002384185791       0.60000002384185791       0.60000002384185791       0.80000001192092896     
  -1.4134553542921335      -0.97158597317118445        2.5110489941113956       0.60000002384185791       0.60000002384185791       0.60000002384185791       0.80000001192092896     
  -1.4134643897815407       0.97158362306040591        2.5110592433895143       0.60000002384185791       0.60000002384185791       0.60000002384185791       0.80000001192092896     
  0.81454984372957728        1.8060089911728021        3.7310899633374817       0.60000002384185791       0.60000002384185791       0.60000002384185791       0.80000001192092896     
  0.81454716322177345       -1.8058994862978719        3.7310798634223956       0.60000002384185791       0.60000002384185791       0.60000002384185791       0.80000001192092896     
   5.5412004289422372       -1.2861465038174378        5.4847935864399613       0.60000002384185791       0.60000002384185791       0.60000002384185791       0.80000001192092896     
   5.5412008613677051        1.2861473909711996        5.4847937971813749       0.60000002384185791       0.60000002384185791       0.60000002384185791       0.80000001192092896     
   3.5156139146739220       0.61932091387125143        2.7262692079133850        1.0000000000000000        1.0000000000000000        0.0000000000000000        1.0000000000000000     
  -3.5003293179137431       0.65989528334586234        2.9816402194175646        1.0000000000000000        1.0000000000000000        0.0000000000000000        1.0000000000000000     
   1.7254425031964793       -3.4415907513026773E-006   4.2979770641059405       0.60000002384185791       0.60000002384185791       0.60000002384185791       0.80000001192092896     
   1.1678652084839132        1.3514187178918069        3.4288224197880726       0.60000002384185791       0.60000002384185791       0.60000002384185791       0.80000001192092896     
   1.1678639905438009       -1.3514341504947920        3.4288448268104625       0.60000002384185791       0.60000002384185791       0.60000002384185791       0.80000001192092896     
  0.16596232006220807        1.8415279808792497        3.5226731380766783       0.60000002384185791       0.60000002384185791       0.60000002384185791       0.80000001192092896     
  0.16598130239583220       -1.8414374951886801        3.5226727649531120       0.60000002384185791       0.60000002384185791       0.60000002384185791       0.80000001192092896     
  -3.5003293014584251      -0.65989528347119830        2.9816402194175642        1.0000000000000000        1.0000000000000000        0.0000000000000000        1.0000000000000000     
  0.11744475887683148       -4.9893106556773001E-007   1.0306063639638421        1.0000000000000000        1.0000000000000000        0.0000000000000000        1.0000000000000000     
  -5.2280564821056608        1.2817994236353858        5.2659356275824578       0.60000002384185791       0.60000002384185791       0.60000002384185791       0.80000001192092896     
  -5.2280564819543889       -1.2817994218057174        5.2659356268459012       0.60000002384185791       0.60000002384185791       0.60000002384185791       0.80000001192092896     
   1.3564936408342345        1.6593667865535430E-006   3.0506110194140059       0.60000002384185791       0.60000002384185791       0.60000002384185791       0.80000001192092896     
   4.5621981201020603       -1.5015468877768869        5.6005217365209123       0.60000002384185791       0.60000002384185791       0.60000002384185791       0.80000001192092896     
   4.5622152192301559        1.5015967511862256        5.6005415725737819       0.60000002384185791       0.60000002384185791       0.60000002384185791       0.80000001192092896     
  -2.1047175242799878       -1.9299065204864372E-007   4.3911119832920669       0.60000002384185791       0.60000002384185791       0.60000002384185791       0.80000001192092896     
   2.0996385126510706       -3.2676307969386860E-005   4.5945103358462438       0.60000002384185791       0.60000002384185791       0.60000002384185791       0.80000001192092896     
   2.0993070466047774       -1.5410804845814867        5.2766465370834696       0.60000002384185791       0.60000002384185791       0.60000002384185791       0.80000001192092896     
   1.2954262693084402        1.6960671130984695        4.4694112521337814       0.60000002384185791       0.60000002384185791       0.60000002384185791       0.80000001192092896     
   6.6573164908100608       -1.0867493053132973        5.8545197153297259       0.60000002384185791       0.60000002384185791       0.60000002384185791       0.80000001192092896     
   6.6573164492559869        1.0867492486491004        5.8545196773910568       0.60000002384185791       0.60000002384185791       0.60000002384185791       0.80000001192092896     
   1.2954334186108147       -1.6960571481328282        4.4694071392516221       0.60000002384185791       0.60000002384185791       0.60000002384185791       0.80000001192092896     
 -0.95894050248191010        1.8415647258200651        5.0453930950655987       0.60000002384185791       0.60000002384185791       0.60000002384185791       0.80000001192092896     
  -4.5500863146750614        1.4990831612579811        5.5673968035883910       0.60000002384185791       0.60000002384185791       0.60000002384185791       0.80000001192092896     
  -4.5500863142238215       -1.4990831600111296        5.5673968023564546       0.60000002384185791       0.60000002384185791       0.60000002384185791       0.80000001192092896     
 -0.55386788916213048       -1.6214423296457534        3.1715813631956000       0.60000002384185791       0.60000002384185791       0.60000002384185791       0.80000001192092896     
 -0.55387037955925533        1.6214441809307241        3.1715785838090582       0.60000002384185791       0.60000002384185791       0.60000002384185791       0.80000001192092896     
   5.2834293475105731      -0.96564944124999352        4.2335874366216766       0.60000002384185791       0.60000002384185791       0.60000002384185791       0.80000001192092896     
   5.2834287198057277       0.96565001598557321        4.2335882997950423       0.60000002384185791       0.60000002384185791       0.60000002384185791       0.80000001192092896     
   4.0700201139497239       -1.5737166940542138        5.0821902593574801       0.60000002384185791       0.60000002384185791       0.60000002384185791       0.80000001192092896     
   4.0699989414100699        1.5737197397470897        5.0821660729733882       0.60000002384185791       0.60000002384185791       0.60000002384185791       0.80000001192092896     
  0.73672880300819055        1.6512261853653973        2.7824560788843322       0.60000002384185791       0.60000002384185791       0.60000002384185791       0.80000001192092896     
  0.73679765895247518       -1.6511767148992578        2.7824706173442171       0.60000002384185791       0.60000002384185791       0.60000002384185791       0.80000001192092896     
   3.1143623270875160       -1.5980877871503141        4.7529681165423341       0.60000002384185791       0.60000002384185791       0.60000002384185791       0.80000001192092896     
   3.1144063632655850        1.5981109671418385        4.7529383510899974       0.60000002384185791       0.60000002384185791       0.60000002384185791       0.80000001192092896     
  0.20063903937373004        1.6798081484326499        2.4708779311760316       0.60000002384185791       0.60000002384185791       0.60000002384185791       0.80000001192092896     
  0.20063796622448868       -1.6798060946536206        2.4708789892529821       0.60000002384185791       0.60000002384185791       0.60000002384185791       0.80000001192092896     
  -4.0271602160855844        1.5505626278910616        5.1371806713460693       0.60000002384185791       0.60000002384185791       0.60000002384185791       0.80000001192092896     
  -4.0271602160677551       -1.5505626258158804        5.1371806739961317       0.60000002384185791       0.60000002384185791       0.60000002384185791       0.80000001192092896     
   1.0596262340213993        1.0949124840788065        2.4728007537551631       0.60000002384185791       0.60000002384185791       0.60000002384185791       0.80000001192092896     
   1.0596242212541067       -1.0949147563625652        2.4727930640988940       0.60000002384185791       0.60000002384185791       0.60000002384185791       0.80000001192092896     
  -3.1404282332814590        1.5544315134848321        4.7215908860001825       0.60000002384185791       0.60000002384185791       0.60000002384185791       0.80000001192092896     
  -3.1404282099849175       -1.5544314996230608        4.7215909372230849       0.60000002384185791       0.60000002384185791       0.60000002384185791       0.80000001192092896     
   4.5243664323255812       -1.4651255754767445        4.5618378899608576       0.60000002384185791       0.60000002384185791       0.60000002384185791       0.80000001192092896     
   4.5243667092427655        1.4651275349109694        4.5618385528993093       0.60000002384185791       0.60000002384185791       0.60000002384185791       0.80000001192092896     
   6.2240544431108926       -3.6456663360720901E-008   5.0932276846118407       0.60000002384185791       0.60000002384185791       0.60000002384185791       0.80000001192092896     
   2.5042680742678045        1.1269248708747104        4.3539227131735370       0.60000002384185791       0.60000002384185791       0.60000002384185791       0.80000001192092896     
   2.5041054148635555       -1.1270148415072456        4.3538981973776698       0.60000002384185791       0.60000002384185791       0.60000002384185791       0.80000001192092896     
  -5.0161055648241160       0.98477311953015789        4.1990405253385639       0.60000002384185791       0.60000002384185791       0.60000002384185791       0.80000001192092896     
  -5.0161055640067076      -0.98477312041235276        4.1990405280491299       0.60000002384185791       0.60000002384185791       0.60000002384185791       0.80000001192092896     
  -5.9990901451511869        8.5102577630339627E-009   5.1658418619367197       0.60000002384185791       0.60000002384185791       0.60000002384185791       0.80000001192092896     
 -0.43661293368346715       -1.4816309988051972        2.1508904275194043       0.60000002384185791       0.60000002384185791       0.60000002384185791       0.80000001192092896     
 -0.43662407109472490        1.4816336553165144        2.1508808926181238       0.60000002384185791       0.60000002384185791       0.60000002384185791       0.80000001192092896     
  -4.4373501230424699        1.3981785522810133        4.4103768387546269       0.60000002384185791       0.60000002384185791       0.60000002384185791       0.80000001192092896     
  -4.4373501200516481       -1.3981785522512726        4.4103768400346137       0.60000002384185791       0.60000002384185791       0.60000002384185791       0.80000001192092896     
   1.1812552397232374       -1.2452739036462669E-006   2.2667047858557532       0.60000002384185791       0.60000002384185791       0.60000002384185791       0.80000001192092896     
  -2.5304729872660565        1.1308663946169171        4.3382889475639805       0.60000002384185791       0.60000002384185791       0.60000002384185791       0.80000001192092896     
  -2.5304728153626956       -1.1308663349862818        4.3382889957939552       0.60000002384185791       0.60000002384185791       0.60000002384185791       0.80000001192092896     
   2.3271627242715467      -0.30488314700019281        3.4277740307704838       0.60000002384185791       0.60000002384185791       0.60000002384185791       0.80000001192092896     
   2.3271607791704332       0.30488416684026515        3.4277821255115684       0.60000002384185791       0.60000002384185791       0.60000002384185791       0.80000001192092896     
  -1.2724335804556410      -0.75288406815695896        1.6678616211580730       0.60000002384185791       0.60000002384185791       0.60000002384185791       0.80000001192092896     
  -1.2724408879959346       0.75287934097696974        1.6678644420909803       0.60000002384185791       0.60000002384185791       0.60000002384185791       0.80000001192092896     
 -0.95894027071197696       -1.8415645773180447        5.0453931763451179       0.60000002384185791       0.60000002384185791       0.60000002384185791       0.80000001192092896     
   3.9208576569673039       -1.4785187860791977        4.1006805572265108       0.60000002384185791       0.60000002384185791       0.60000002384185791       0.80000001192092896     
   3.9208536789145292        1.4785197848763052        4.1006793252151574       0.60000002384185791       0.60000002384185791       0.60000002384185791       0.80000001192092896     
  0.67378963334643760        1.2933344579350092        1.8936897517610809        1.0000000000000000       0.10000000149011612        0.0000000000000000       0.50000000000000000     
  0.67379423863309917       -1.2933340901422268        1.8936916745589774        1.0000000000000000       0.10000000149011612        0.0000000000000000       0.50000000000000000     
   6.7665550860574637       -4.1328075467689922E-008   5.4874884147305032        1.0000000000000000        1.0000000000000000        0.0000000000000000        1.0000000000000000     
   4.6827345760242673      -0.88154520236021283        3.3043453713294921       0.60000002384185791       0.60000002384185791       0.60000002384185791       0.80000001192092896     
   4.6827332486149791       0.88154471487506547        3.3043453426781557       0.60000002384185791       0.60000002384185791       0.60000002384185791       0.80000001192092896     
  -3.8921187120246064        1.3909986923187527        4.1431686921451405       0.60000002384185791       0.60000002384185791       0.60000002384185791       0.80000001192092896     
  -3.8921186890712622       -1.3909986908488590        4.1431687047459667       0.60000002384185791       0.60000002384185791       0.60000002384185791       0.80000001192092896     
   3.1950196081019597       -1.3577955783582263        3.8500909326799180       0.60000002384185791       0.60000002384185791       0.60000002384185791       0.80000001192092896     
   3.1950206156925018        1.3577992306283844        3.8500824505903135       0.60000002384185791       0.60000002384185791       0.60000002384185791       0.80000001192092896     
  -6.8043052170551368        2.2905998527033161E-007   5.6811856426661205        1.0000000000000000        1.0000000000000000        0.0000000000000000        1.0000000000000000     
  0.13453024246417181        1.1650536671052900        1.6562138620309219        1.0000000000000000       0.10000000149011612        0.0000000000000000       0.50000000000000000     
  0.13452800902105247       -1.1650570056938481        1.6562165845654098        1.0000000000000000       0.10000000149011612        0.0000000000000000       0.50000000000000000     
   4.2116393038226301       -1.2369451367569482        3.6881015660725507       0.60000002384185791       0.60000002384185791       0.60000002384185791       0.80000001192092896     
   4.2116388962413494        1.2369441187649486        3.6881022095941116       0.60000002384185791       0.60000002384185791       0.60000002384185791       0.80000001192092896     
  -2.6103488506497157       0.32372816280180583        3.6210408432019450       0.60000002384185791       0.60000002384185791       0.60000002384185791       0.80000001192092896     
  -2.6103488808585449      -0.32372771133567269        3.6210408617341989       0.60000002384185791       0.60000002384185791       0.60000002384185791       0.80000001192092896     
  0.68174946735685804       0.56297847805791512        1.7438210936686669        1.0000000000000000       0.10000000149011612        0.0000000000000000       0.50000000000000000     
  0.68174878607750367      -0.56298024173220274        1.7438166816341620        1.0000000000000000       0.10000000149011612        0.0000000000000000       0.50000000000000000     
  
   3   0  24  56
   3   0  56  24
   3   0  56  96
   3   0  96 120
   3   0  96  56
   3   0 120  96
   3   0 120  28
   3   0  28 120
   4   0  28   1  96
   3   1  28 120
   4   1  28   0  96
   3   1 120  96
   3   1 120  28
   3   1  96  57
   3   1  96 120
   3   1  57  96
   3   1  57  25
   3   1  25  57
   3   2  35 108
   3   2  35  31
   3   2  31  35
   3   2  31   6
   3   2   6  31
   3   2   9 108
   3   2 108  35
   3   2 108   9
   3   3   4 113
   3   3  26  65
   3   3  65  26
   3   3  65 113
   3   3 113   4
   3   3 113  65
   3   4   3 113
   3   4 113  66
   3   4 113   3
   3   4  66 113
   3   4  66  27
   3   4  27  66
   3   5   7  32
   3   5  32  36
   3   5  32   7
   3   5  36  32
   3   5  36  68
   3   5  68  36
   3   5  68   8
   3   5   8  68
   3   6   2  31
   3   6  31   2
   3   6  31  63
   3   6  63  10
   3   6  63  31
   3   6  10  63
   3   7  11  37
   3   7  37  32
   3   7  37  11
   3   7  32  37
   3   7  32   5
   3   7   5  32
   3   8   5  68
   3   8  68   5
   3   8  68  33
   3   8  33  12
   3   8  33  68
   3   8  12  33
   3   9  13  34
   3   9  34 108
   3   9  34  13
   3   9 108  34
   3   9 108   2
   3   9   2 108
   3  10   6  63
   3  10  63  14
   3  10  63   6
   3  10  14  63
   3  11  15  37
   3  11  37   7
   3  11  37  15
   3  11   7  37
   3  12   8  33
   3  12  33  16
   3  12  33   8
   3  12  16  33
   3  13  17  34
   3  13  34   9
   3  13  34  17
   3  13   9  34
   3  14  10  63
   3  14  63  79
   3  14  63  10
   3  14  79  63
   3  14  79  75
   3  14  75  79
   3  14  75  18
   3  14  18  75
   3  15  19  76
   3  15  76  80
   3  15  76  19
   3  15  80  76
   3  15  80  37
   3  15  37  11
   3  15  37  80
   3  15  11  37
   3  16  12  33
   3  16  33  87
   3  16  33  12
   3  16  87  33
   3  16  87  83
   3  16  83  87
   3  16  83  20
   3  16  20  83
   3  17  21  84
   3  17  84  88
   3  17  84  21
   3  17  88  84
   3  17  88  34
   3  17  34  13
   3  17  34  88
   3  17  13  34
   3  18  14  75
   3  18  75  14
   3  18  75  59
   3  18  59  75
   3  18  59  22
   3  18  22  59
   3  19  23  60
   3  19  60  76
   3  19  60  23
   3  19  76  60
   3  19  76  15
   3  19  15  76
   3  20  16  83
   3  20  83  16
   3  20  83  69
   3  20  69  83
   3  20  69  24
   3  20  24  69
   3  21  25  70
   3  21  70  84
   3  21  70  25
   3  21  84  70
   3  21  84  17
   3  21  17  84
   3  22  18  59
   3  22  59  18
   3  22  59  45
   3  22  45  26
   3  22  45  59
   3  22  26  45
   3  23  27  46
   3  23  46  60
   3  23  46  27
   3  23  60  46
   3  23  60  19
   3  23  19  60
   3  24  20  69
   3  24  69  20
   3  24  69  56
   3  24  56   0
   3  24  56  69
   3  24   0  56
   3  25   1  57
   3  25  57   1
   3  25  57  70
   3  25  70  57
   3  25  70  21
   3  25  21  70
   3  26  22  45
   3  26  45  65
   3  26  45  22
   3  26  65   3
   3  26  65  45
   3  26   3  65
   3  27   4  66
   3  27  66   4
   3  27  66  46
   3  27  46  66
   3  27  46  23
   3  27  23  46
   3  28   0 120
   4  28   0  96   1
   3  28 120   0
   3  28 120   1
   3  28   1 120
   4  28   1  96   0
   3  29  33  40
   3  29  33  61
   3  29  40  33
   3  29  40  72
   3  29  72  42
   3  29  72  40
   3  29  42  72
   4  29  42  41  30
   3  29  30  61
   4  29  30  41  42
   3  29  61  30
   3  29  61  33
   3  30  34  61
   3  30  34  39
   3  30  61  29
   3  30  61  34
   3  30  29  61
   4  30  29  42  41
   3  30  41  71
   4  30  41  42  29
   3  30  71  41
   3  30  71  39
   3  30  39  34
   3  30  39  71
   3  31   2  35
   3  31   2   6
   3  31  35  44
   3  31  35   2
   3  31  44  67
   3  31  44  35
   3  31  67  63
   3  31  67  44
   3  31  63   6
   3  31  63  67
   3  31   6   2
   3  31   6  63
   3  32  37  64
   3  32  37   7
   3  32  64  37
   3  32  64  43
   3  32  43  36
   3  32  43  64
   3  32  36  43
   3  32  36   5
   3  32   5   7
   3  32   5  36
   3  32   7  37
   3  32   7   5
   3  33 102  61
   3  33 102  87
   3  33  87 102
   3  33  87  16
   3  33  16  12
   3  33  16  87
   3  33  12   8
   3  33  12  16
   3  33   8  68
   3  33   8  12
   3  33  68  40
   3  33  68   8
   3  33  40  29
   3  33  40  68
   3  33  29  40
   3  33  29  61
   3  33  61  29
   3  33  61 102
   3  34 103  88
   3  34 103  61
   3  34  61  30
   3  34  61 103
   3  34  30  61
   3  34  30  39
   3  34  39 108
   3  34  39  30
   3  34 108  39
   3  34 108   9
   3  34   9  13
   3  34   9 108
   3  34  13  17
   3  34  13   9
   3  34  17  88
   3  34  17  13
   3  34  88 103
   3  34  88  17
   3  35 108  39
   3  35 108   2
   3  35  39 108
   3  35  39  53
   3  35  53  44
   3  35  53  39
   3  35  44  31
   3  35  44  53
   3  35  31   2
   3  35  31  44
   3  35   2  31
   3  35   2 108
   3  36  32  43
   3  36  32   5
   3  36  43  32
   3  36  43  52
   3  36  52  40
   3  36  52  43
   3  36  40  68
   3  36  40  52
   3  36  68   5
   3  36  68  40
   3  36   5  32
   3  36   5  68
   3  37  92  80
   3  37  92  62
   3  37  62  49
   3  37  62  92
   3  37  49  62
   3  37  49  64
   3  37  64  49
   3  37  64  32
   3  37  32  64
   3  37  32   7
   3  37   7  11
   3  37   7  32
   3  37  11  15
   3  37  11   7
   3  37  15  80
   3  37  15  11
   3  37  80  92
   3  37  80  15
   3  38 114 123
   4  38 114 115  47
   3  38 123 114
   3  38 123 109
   3  38 109 118
   3  38 109 123
   3  38 118 109
   3  38 118  93
   3  38  93 118
   4  38  93  79 109
   3  39  35 108
   3  39  35  53
   3  39 108  34
   3  39 108  35
   3  39  34  30
   3  39  34 108
   3  39  30  34
   3  39  30  71
   3  39  71  30
   3  39  71  53
   3  39  53  35
   3  39  53  71
   3  40  29  33
   3  40  29  72
   3  40  33  68
   3  40  33  29
   3  40  68  36
   3  40  68  33
   3  40  36  52
   3  40  36  68
   3  40  52  36
   3  40  52  72
   3  40  72  52
   3  40  72  29
   3  41  97  71
   4  41  97  55 106
   3  41  71  30
   3  41  71  97
   3  41  30  71
   4  41  30  29  42
   3  42  29  72
   4  42  29  30  41
   3  42  72  98
   3  42  72  29
   3  42  98  72
   4  42  98  55 107
   3  43  36  32
   3  43  36  52
   3  43  32  64
   3  43  32  36
   3  43  64  50
   3  43  64  32
   3  43  50  64
   3  43  50  77
   3  43  77  50
   3  43  77  52
   3  43  52  36
   3  43  52  77
   3  44  67  51
   3  44  67  31
   3  44  31  35
   3  44  31  67
   3  44  35  53
   3  44  35  31
   3  44  53  35
   3  44  53  78
   3  44  78  53
   3  44  78  51
   3  44  51  67
   3  44  51  78
   3  45  65  26
   3  45  65  91
   3  45  26  22
   3  45  26  65
   3  45  22  59
   3  45  22  26
   3  45  59  89
   3  45  59  22
   3  45  89  73
   3  45  89  59
   3  45  73  91
   3  45  73  89
   3  45  91  73
   3  45  91  65
   3  46  66  91
   3  46  66  27
   3  46  91  74
   3  46  91  66
   3  46  74  91
   3  46  74  90
   3  46  90  60
   3  46  90  74
   3  46  60  90
   3  46  60  23
   3  46  23  27
   3  46  23  60
   3  46  27  66
   3  46  27  23
   3  47 115 124
   4  47 115 114  38
   3  47  92 119
   4  47  92  80 110
   3  47 119  92
   3  47 119 110
   3  47 110 124
   3  47 110 119
   3  47 124 110
   3  47 124 115
   3  48  94  99
   4  48  94  95  54
   3  48  99  94
   3  48  99 116
   3  48 116  99
   3  48 116  87
   3  48  87 102
   3  48  87 116
   3  48 102  87
   4  48 102  61 125
   3  49  37  62
   3  49  37  64
   3  49  62  37
   3  49  62  63
   3  49  63  67
   3  49  63  62
   3  49  67  51
   3  49  67  63
   3  49  51  67
   3  49  51  58
   3  49  58  51
   3  49  58  50
   3  49  50  64
   3  49  50  58
   3  49  64  37
   3  49  64  50
   3  50  43  64
   3  50  43  77
   3  50  64  49
   3  50  64  43
   3  50  49  58
   3  50  49  64
   3  50  58  85
   3  50  58  49
   3  50  85  58
   3  50  85  77
   3  50  77  85
   3  50  77  43
   3  51  49  67
   3  51  49  58
   3  51  67  49
   3  51  67  44
   3  51  44  67
   3  51  44  78
   3  51  78  86
   3  51  78  44
   3  51  86  78
   3  51  86  58
   3  51  58  86
   3  51  58  49
   3  52  40  36
   3  52  40  72
   3  52  36  43
   3  52  36  40
   3  52  43  36
   3  52  43  77
   3  52  77  81
   3  52  77  43
   3  52  81  77
   3  52  81  72
   3  52  72  81
   3  52  72  40
   3  53  44  35
   3  53  44  78
   3  53  35  39
   3  53  35  44
   3  53  39  35
   3  53  39  71
   3  53  71  82
   3  53  71  39
   3  53  82  71
   3  53  82  78
   3  53  78  82
   3  53  78  44
   3  54  95 100
   4  54  95  94  48
   3  54 103  88
   4  54 103  61 126
   3  54  88 117
   3  54  88 103
   3  54 117  88
   3  54 117 100
   3  54 100  95
   3  54 100 117
   3  55 121  98
   3  55 121 111
   3  55 111 127
   3  55 111 121
   3  55 127 111
   3  55 127 101
   3  55 101 128
   3  55 101 127
   3  55 128 101
   3  55 128 112
   3  55 112 122
   3  55 112 128
   3  55 122 112
   3  55 122  97
   3  55  97 122
   4  55  97  82 112
   3  55 106 107
   4  55 106  41  97
   3  55 107 106
   4  55 107  42  98
   3  55  98 121
   4  55  98  42 107
   3  56   0  24
   3  56   0  96
   3  56  24  69
   3  56  24   0
   3  56  69  99
   3  56  69  24
   3  56  99  94
   3  56  99  69
   3  56  94  96
   3  56  94  99
   3  56  96  94
   3  56  96   0
   3  57   1  96
   3  57   1  25
   3  57  96  95
   3  57  96   1
   3  57  95 100
   3  57  95  96
   3  57 100  70
   3  57 100  95
   3  57  70 100
   3  57  70  25
   3  57  25   1
   3  57  25  70
   3  58  51  49
   3  58  51  86
   3  58  86 101
   3  58  86  51
   3  58 101  85
   3  58 101  86
   3  58  85 101
   3  58  85  50
   3  58  50  49
   3  58  50  85
   3  58  49  51
   3  58  49  50
   3  59  18  75
   3  59  18  22
   3  59  75  89
   3  59  75  18
   3  59  89  45
   3  59  89  75
   3  59  45  22
   3  59  45  89
   3  59  22  18
   3  59  22  45
   3  60  46  90
   3  60  46  23
   3  60  90  76
   3  60  90  46
   3  60  76  90
   3  60  76  19
   3  60  19  23
   3  60  19  76
   3  60  23  46
   3  60  23  19
   3  61  29  33
   3  61  29  30
   3  61  30  34
   3  61  30  29
   3  61  34 103
   3  61  34  30
   3  61 103  34
   4  61 103  54 126
   3  61 126 125
   4  61 126  54 103
   3  61 125 126
   4  61 125  48 102
   3  61 102  33
   4  61 102  48 125
   3  61  33 102
   3  61  33  29
   3  62  49  37
   3  62  49  63
   3  62  37  92
   3  62  37  49
   3  62  92  37
   4  62  92  47 105
   3  62 105 104
   4  62 105  47  92
   3  62 104 105
   4  62 104  38  93
   3  62  93  63
   4  62  93  38 104
   3  62  63  93
   3  62  63  49
   3  63  93  79
   3  63  93  62
   3  63  79  93
   3  63  79  14
   3  63  14  10
   3  63  14  79
   3  63  10   6
   3  63  10  14
   3  63   6  31
   3  63   6  10
   3  63  31  67
   3  63  31   6
   3  63  67  49
   3  63  67  31
   3  63  49  62
   3  63  49  67
   3  63  62  49
   3  63  62  93
   3  64  37  49
   3  64  37  32
   3  64  49  37
   3  64  49  50
   3  64  50  43
   3  64  50  49
   3  64  43  32
   3  64  43  50
   3  64  32  37
   3  64  32  43
   3  65   3  26
   3  65   3 113
   3  65  26  45
   3  65  26   3
   3  65  45  26
   3  65  45  91
   3  65  91 113
   3  65  91  45
   3  65 113  91
   3  65 113   3
   3  66   4 113
   3  66   4  27
   3  66 113  91
   3  66 113   4
   3  66  91  46
   3  66  91 113
   3  66  46  91
   3  66  46  27
   3  66  27   4
   3  66  27  46
   3  67  51  49
   3  67  51  44
   3  67  49  63
   3  67  49  51
   3  67  63  31
   3  67  63  49
   3  67  31  44
   3  67  31  63
   3  67  44  31
   3  67  44  51
   3  68   5  36
   3  68   5   8
   3  68  36  40
   3  68  36   5
   3  68  40  33
   3  68  40  36
   3  68  33   8
   3  68  33  40
   3  68   8   5
   3  68   8  33
   3  69  20  83
   3  69  20  24
   3  69  83  99
   3  69  83  20
   3  69  99  56
   3  69  99  83
   3  69  56  24
   3  69  56  99
   3  69  24  20
   3  69  24  56
   3  70  57 100
   3  70  57  25
   3  70 100  84
   3  70 100  57
   3  70  84 100
   3  70  84  21
   3  70  21  25
   3  70  21  84
   3  70  25  57
   3  70  25  21
   3  71  30  41
   3  71  30  39
   3  71  41  97
   3  71  41  30
   3  71  97  82
   3  71  97  41
   3  71  82  97
   3  71  82  53
   3  71  53  39
   3  71  53  82
   3  71  39  30
   3  71  39  53
   3  72  52  40
   3  72  52  81
   3  72  81  98
   3  72  81  52
   3  72  98  42
   3  72  98  81
   3  72  42  29
   3  72  42  98
   3  72  29  40
   3  72  29  42
   3  72  40  29
   3  72  40  52
   3  73 114 123
   4  73 114 115  74
   3  73  74  91
   4  73  74 115 114
   3  73  91  74
   3  73  91  45
   3  73  45  89
   3  73  45  91
   3  73  89  45
   3  73  89 123
   3  73 123 114
   3  73 123  89
   3  74  46  91
   3  74  46  90
   3  74  91  73
   3  74  91  46
   3  74  73  91
   4  74  73 114 115
   3  74 115 124
   4  74 115 114  73
   3  74 124  90
   3  74 124 115
   3  74  90  46
   3  74  90 124
   3  75  14  79
   3  75  14  18
   3  75  79 109
   3  75  79  14
   3  75 109  89
   3  75 109  79
   3  75  89  59
   3  75  89 109
   3  75  59  18
   3  75  59  89
   3  75  18  14
   3  75  18  59
   3  76  60  90
   3  76  60  19
   3  76  90  60
   3  76  90 110
   3  76 110  80
   3  76 110  90
   3  76  80 110
   3  76  80  15
   3  76  15  19
   3  76  15  80
   3  76  19  60
   3  76  19  15
   3  77  50  43
   3  77  50  85
   3  77  85 111
   3  77  85  50
   3  77 111  81
   3  77 111  85
   3  77  81 111
   3  77  81  52
   3  77  52  43
   3  77  52  81
   3  77  43  50
   3  77  43  52
   3  78  53  44
   3  78  53  82
   3  78  82 112
   3  78  82  53
   3  78 112  86
   3  78 112  82
   3  78  86 112
   3  78  86  51
   3  78  51  44
   3  78  51  86
   3  78  44  53
   3  78  44  51
   3  79  63  93
   3  79  63  14
   3  79  93  63
   3  79  93 118
   3  79 118 109
   3  79 118  93
   3  79 109  75
   3  79 109 118
   3  79  75  14
   3  79  75 109
   3  79  14  63
   3  79  14  75
   3  80  76 110
   3  80  76  15
   3  80 110  76
   3  80 110 119
   3  80 119  92
   3  80 119 110
   3  80  92 119
   3  80  92  37
   3  80  37  92
   3  80  37  15
   3  80  15  76
   3  80  15  37
   3  81  77 111
   3  81  77  52
   3  81 111  77
   3  81 111 121
   3  81 121  98
   3  81 121 111
   3  81  98  72
   3  81  98 121
   3  81  72  52
   3  81  72  98
   3  81  52  77
   3  81  52  72
   3  82  71  97
   3  82  71  53
   3  82  97  71
   3  82  97 122
   3  82 122 112
   3  82 122  97
   3  82 112  78
   3  82 112 122
   3  82  78  53
   3  82  78 112
   3  82  53  71
   3  82  53  78
   3  83  16  87
   3  83  16  20
   3  83  87 116
   3  83  87  16
   3  83 116  99
   3  83 116  87
   3  83  99  69
   3  83  99 116
   3  83  69  20
   3  83  69  99
   3  83  20  16
   3  83  20  69
   3  84  70 100
   3  84  70  21
   3  84 100  70
   3  84 100 117
   3  84 117  88
   3  84 117 100
   3  84  88 117
   3  84  88  17
   3  84  17  21
   3  84  17  88
   3  84  21  70
   3  84  21  17
   3  85  58 101
   3  85  58  50
   3  85 101  58
   3  85 101 127
   3  85 127 111
   3  85 127 101
   3  85 111  77
   3  85 111 127
   3  85  77  50
   3  85  77 111
   3  85  50  58
   3  85  50  77
   3  86  78 112
   3  86  78  51
   3  86 112  78
   3  86 112 128
   3  86 128 101
   3  86 128 112
   3  86 101  58
   3  86 101 128
   3  86  58  51
   3  86  58 101
   3  86  51  78
   3  86  51  58
   3  87  33 102
   3  87  33  16
   3  87 102  48
   3  87 102  33
   3  87  48 116
   3  87  48 102
   3  87 116  83
   3  87 116  48
   3  87  83  16
   3  87  83 116
   3  87  16  33
   3  87  16  83
   3  88  84 117
   3  88  84  17
   3  88 117  84
   3  88 117  54
   3  88  54 103
   3  88  54 117
   3  88 103  54
   3  88 103  34
   3  88  34 103
   3  88  34  17
   3  88  17  84
   3  88  17  34
   3  89  73  45
   3  89  73 123
   3  89  45  59
   3  89  45  73
   3  89  59  75
   3  89  59  45
   3  89  75 109
   3  89  75  59
   3  89 109  75
   3  89 109 123
   3  89 123  73
   3  89 123 109
   3  90  76  60
   3  90  76 110
   3  90  60  46
   3  90  60  76
   3  90  46  74
   3  90  46  60
   3  90  74  46
   3  90  74 124
   3  90 124 110
   3  90 124  74
   3  90 110  76
   3  90 110 124
   3  91  73  74
   3  91  73  45
   3  91  74  46
   3  91  74  73
   3  91  46  66
   3  91  46  74
   3  91  66 113
   3  91  66  46
   3  91 113  66
   3  91 113  65
   3  91  65  45
   3  91  65 113
   3  91  45  65
   3  91  45  73
   3  92  80 119
   3  92  80  37
   3  92 119  80
   3  92 119  47
   3  92  47 119
   4  92  47 105  62
   3  92  62  37
   4  92  62 105  47
   3  92  37  62
   3  92  37  80
   3  93  79  63
   3  93  79 118
   3  93  63  79
   3  93  63  62
   3  93  62  63
   4  93  62 104  38
   3  93  38 118
   4  93  38 109  79
   3  93 118  79
   3  93 118  38
   3  94  48  99
   4  94  48  54  95
   3  94  95  96
   4  94  95  54  48
   3  94  96  95
   3  94  96  56
   3  94  56  99
   3  94  56  96
   3  94  99  56
   3  94  99  48
   3  95  54 100
   4  95  54  48  94
   3  95 100  57
   3  95 100  54
   3  95  57  96
   3  95  57 100
   3  95  96  94
   3  95  96  57
   3  95  94  96
   4  95  94  48  54
   3  96  94  95
   3  96  94  56
   3  96  95  57
   3  96  95  94
   3  96  57   1
   3  96  57  95
   3  96   1 120
   3  96   1  57
   3  96 120   0
   3  96 120   1
   3  96   0  56
   3  96   0 120
   3  96  56   0
   3  96  56  94
   3  97  82  71
   3  97  82 122
   3  97  71  41
   3  97  71  82
   3  97  41  71
   4  97  41 106  55
   3  97  55 122
   4  97  55 112  82
   3  97 122  82
   3  97 122  55
   3  98  42  72
   4  98  42 107  55
   3  98  72  81
   3  98  72  42
   3  98  81 121
   3  98  81  72
   3  98 121  81
   3  98 121  55
   3  98  55 121
   4  98  55 111  81
   3  99  94  48
   3  99  94  56
   3  99  56  69
   3  99  56  94
   3  99  69  83
   3  99  69  56
   3  99  83 116
   3  99  83  69
   3  99 116  83
   3  99 116  48
   3  99  48  94
   3  99  48 116
   3 100  84  70
   3 100  84 117
   3 100  70  57
   3 100  70  84
   3 100  57  95
   3 100  57  70
   3 100  95  54
   3 100  95  57
   3 100  54  95
   3 100  54 117
   3 100 117  84
   3 100 117  54
   3 101  85  58
   3 101  85 127
   3 101  58  86
   3 101  58  85
   3 101  86 128
   3 101  86  58
   3 101 128  86
   3 101 128  55
   3 101  55 127
   3 101  55 128
   3 101 127  85
   3 101 127  55
   3 102  61  33
   4 102  61 125  48
   3 102  48  87
   4 102  48 125  61
   3 102  87  33
   3 102  87  48
   3 102  33  87
   3 102  33  61
   3 103  88  54
   3 103  88  34
   3 103  54  88
   4 103  54 126  61
   3 103  61  34
   4 103  61 126  54
   3 103  34  61
   3 103  34  88
   3 104  62 105
   4 104  62  93  38
   3 104 105  62
   4 104 105  47  38
   3 105 104  62
   4 105 104  38  47
   3 105  62 104
   4 105  62  92  47
   3 106 107  55
   4 106 107  42  41
   3 106  55 107
   4 106  55  97  41
   3 107  55 106
   4 107  55  98  42
   3 107 106  55
   4 107 106  41  42
   3 108  34  39
   3 108  34   9
   3 108  39  35
   3 108  39  34
   3 108  35  39
   3 108  35   2
   3 108   2  35
   3 108   2   9
   3 108   9  34
   3 108   9   2
   3 109  89  75
   3 109  89 123
   3 109  75  79
   3 109  75  89
   3 109  79 118
   3 109  79  75
   3 109 118  79
   3 109 118  38
   3 109  38 123
   3 109  38 118
   3 109 123  89
   3 109 123  38
   3 110  80  76
   3 110  80 119
   3 110  76  90
   3 110  76  80
   3 110  90  76
   3 110  90 124
   3 110 124  90
   3 110 124  47
   3 110  47 119
   3 110  47 124
   3 110 119  80
   3 110 119  47
   3 111  81  77
   3 111  81 121
   3 111  77  85
   3 111  77  81
   3 111  85 127
   3 111  85  77
   3 111 127  85
   3 111 127  55
   3 111  55 121
   3 111  55 127
   3 111 121  81
   3 111 121  55
   3 112  86  78
   3 112  86 128
   3 112  78  82
   3 112  78  86
   3 112  82 122
   3 112  82  78
   3 112 122  82
   3 112 122  55
   3 112  55 128
   3 112  55 122
   3 112 128  86
   3 112 128  55
   3 113  91  66
   3 113  91  65
   3 113  66   4
   3 113  66  91
   3 113   4   3
   3 113   4  66
   3 113   3   4
   3 113   3  65
   3 113  65   3
   3 113  65  91
   3 114  38 123
   4 114  38  47 115
   3 114  73 123
   4 114  73  74 115
   3 114 123  73
   3 114 123  38
   3 115  47 124
   4 115  47  38 114
   3 115 124  74
   3 115 124  47
   3 115  74 124
   4 115  74  73 114
   3 116  99  83
   3 116  99  48
   3 116  83  87
   3 116  83  99
   3 116  87  48
   3 116  87  83
   3 116  48  99
   3 116  48  87
   3 117  88  84
   3 117  88  54
   3 117  84 100
   3 117  84  88
   3 117 100  84
   3 117 100  54
   3 117  54  88
   3 117  54 100
   3 118 109  79
   3 118 109  38
   3 118  79  93
   3 118  79 109
   3 118  93  79
   3 118  93  38
   3 118  38 109
   3 118  38  93
   3 119  92  80
   3 119  92  47
   3 119  80 110
   3 119  80  92
   3 119 110  80
   3 119 110  47
   3 119  47  92
   3 119  47 110
   3 120   0  96
   3 120   0  28
   3 120  96   1
   3 120  96   0
   3 120   1  28
   3 120   1  96
   3 120  28   0
   3 120  28   1
   3 121  98  81
   3 121  98  55
   3 121  81 111
   3 121  81  98
   3 121 111  81
   3 121 111  55
   3 121  55 111
   3 121  55  98
   3 122 112  82
   3 122 112  55
   3 122  82  97
   3 122  82 112
   3 122  97  82
   3 122  97  55
   3 122  55 112
   3 122  55  97
   3 123 114  38
   3 123 114  73
   3 123  73 114
   3 123  73  89
   3 123  89  73
   3 123  89 109
   3 123 109  89
   3 123 109  38
   3 123  38 114
   3 123  38 109
   3 124 110  90
   3 124 110  47
   3 124  90  74
   3 124  90 110
   3 124  74 115
   3 124  74  90
   3 124 115  47
   3 124 115  74
   3 124  47 115
   3 124  47 110
   3 125  61 126
   4 125  61 102  48
   3 125 126  61
   4 125 126  54  48
   3 126 125  61
   4 126 125  48  54
   3 126  61 125
   4 126  61 103  54
   3 127 111  85
   3 127 111  55
   3 127  85 101
   3 127  85 111
   3 127 101  85
   3 127 101  55
   3 127  55 111
   3 127  55 101
   3 128 101  86
   3 128 101  55
   3 128  86 112
   3 128  86 101
   3 128 112  86
   3 128 112  55
   3 128  55 101
   3 128  55 112
