# Generated by dad_to_polygons. Vertex data from Humppa's .off file,
# polygons parsed from .dad file.
COFF
170 624 170
-6.682871 1.340985 7.260415 0.500000 0.500000 0.500000 1.0
-6.682875 -1.340981 7.260416 0.500000 0.500000 0.500000 1.0
-0.034920 -2.430053 6.940384 0.500000 0.500000 0.500000 1.0
7.557097 -1.237739 7.412409 0.500000 0.500000 0.500000 1.0
7.557097 1.237739 7.412409 0.500000 0.500000 0.500000 1.0
-0.034917 2.430196 6.940239 0.500000 0.500000 0.500000 1.0
1.189165 -2.094475 7.093320 0.500000 0.500000 0.500000 1.0
1.189179 2.094500 7.093293 0.500000 0.500000 0.500000 1.0
-1.204627 2.082382 7.058779 0.500000 0.500000 0.500000 1.0
-1.204572 -2.082252 7.058918 0.500000 0.500000 0.500000 1.0
2.076609 -1.749110 7.400375 0.500000 0.500000 0.500000 1.0
2.076608 1.749117 7.400369 0.500000 0.500000 0.500000 1.0
-2.098054 1.761649 7.374005 0.500000 0.500000 0.500000 1.0
-2.098066 -1.761609 7.374044 0.500000 0.500000 0.500000 1.0
3.028135 -1.912837 7.126859 0.500000 0.500000 0.500000 1.0
3.028140 1.912840 7.126862 0.500000 0.500000 0.500000 1.0
-3.030319 1.920116 7.049641 0.500000 0.500000 0.500000 1.0
-3.030310 -1.920120 7.049638 0.500000 0.500000 0.500000 1.0
4.120274 -1.787085 7.292051 0.500000 0.500000 0.500000 1.0
4.120274 1.787086 7.292051 0.500000 0.500000 0.500000 1.0
-4.099053 1.791045 7.236468 0.500000 0.500000 0.500000 1.0
-4.099054 -1.791047 7.236466 0.500000 0.500000 0.500000 1.0
5.108119 -1.566464 7.367102 0.500000 0.500000 0.500000 1.0
5.108119 1.566464 7.367102 0.500000 0.500000 0.500000 1.0
-5.101365 1.580885 7.284824 0.500000 0.500000 0.500000 1.0
-5.101365 -1.580885 7.284824 0.500000 0.500000 0.500000 1.0
6.099025 -1.439189 7.420897 0.500000 0.500000 0.500000 1.0
6.099025 1.439189 7.420897 0.500000 0.500000 0.500000 1.0
-8.026016 -0.000057 7.252254 0.500000 0.500000 0.500000 1.0
8.794636 0.000125 7.447129 0.500000 0.500000 0.500000 1.0
-1.778697 -0.751787 4.687475 0.500000 0.500000 0.500000 1.0
0.942665 -1.947887 5.300030 1.0 1.0 0.0 1.0
0.942945 1.947954 5.300041 1.0 1.0 0.0 1.0
-2.110189 1.807244 6.076181 0.500000 0.500000 0.500000 1.0
-2.113737 -1.801547 6.080968 0.500000 0.500000 0.500000 1.0
-0.177826 -2.064145 5.377525 0.500000 0.500000 0.500000 1.0
-0.177737 2.064643 5.377647 0.500000 0.500000 0.500000 1.0
2.088806 1.762619 6.129938 0.500000 0.500000 0.500000 1.0
3.562256 -0.619713 2.726269 1.0 1.0 0.0 1.0
-0.885119 -1.956552 4.873170 0.500000 0.500000 0.500000 1.0
-0.857768 1.964673 4.875911 0.500000 0.500000 0.500000 1.0
-1.355268 -0.942606 3.198597 0.500000 0.500000 0.500000 1.0
-1.360198 0.951879 3.198532 0.500000 0.500000 0.500000 1.0
0.833805 1.904192 4.501624 0.500000 0.500000 0.500000 1.0
0.833549 -1.904069 4.501783 0.500000 0.500000 0.500000 1.0
5.580319 -1.481808 6.412701 0.500000 0.500000 0.500000 1.0
5.580346 1.481803 6.412729 0.500000 0.500000 0.500000 1.0
3.562252 0.619713 2.726269 1.0 1.0 0.0 1.0
-3.531602 0.660594 2.981640 1.0 1.0 0.0 1.0
1.858645 -0.000026 4.888286 0.500000 0.500000 0.500000 1.0
1.205290 1.479099 4.192562 0.500000 0.500000 0.500000 1.0
1.204396 -1.480015 4.193040 0.500000 0.500000 0.500000 1.0
0.056200 1.963233 4.299326 0.500000 0.500000 0.500000 1.0
0.046714 -1.961509 4.300486 0.500000 0.500000 0.500000 1.0
-3.531308 -0.659828 2.981640 1.0 1.0 0.0 1.0
0.127147 -0.007322 1.030606 1.0 1.0 0.0 1.0
-5.272870 1.472231 6.221982 0.500000 0.500000 0.500000 1.0
-5.272864 -1.472233 6.221988 0.500000 0.500000 0.500000 1.0
1.422721 0.000067 3.770725 0.500000 0.500000 0.500000 1.0
4.590973 -1.681904 6.533291 0.500000 0.500000 0.500000 1.0
4.590918 1.681912 6.533275 0.500000 0.500000 0.500000 1.0
-2.340088 -0.003830 4.943815 0.500000 0.500000 0.500000 1.0
2.097680 -0.000023 5.302118 0.500000 0.500000 0.500000 1.0
2.088784 -1.762613 6.129943 0.500000 0.500000 0.500000 1.0
1.379634 1.750431 5.183607 0.500000 0.500000 0.500000 1.0
6.764913 -1.307798 6.673385 0.500000 0.500000 0.500000 1.0
6.764913 1.307798 6.673385 0.500000 0.500000 0.500000 1.0
1.379443 -1.750456 5.183743 0.500000 0.500000 0.500000 1.0
-0.984171 1.957829 5.588552 1.0 1.0 0.0 1.0
-4.584228 1.689287 6.499103 0.500000 0.500000 0.500000 1.0
-4.584270 -1.689243 6.499100 0.500000 0.500000 0.500000 1.0
-0.672355 -1.688102 3.956987 0.500000 0.500000 0.500000 1.0
-0.665456 1.732196 3.911243 0.500000 0.500000 0.500000 1.0
5.358298 -1.116208 5.133559 0.500000 0.500000 0.500000 1.0
5.358268 1.116225 5.133525 0.500000 0.500000 0.500000 1.0
4.103648 -1.763757 6.011655 0.500000 0.500000 0.500000 1.0
4.103721 1.763694 6.011667 0.500000 0.500000 0.500000 1.0
0.735827 1.763992 3.565296 0.500000 0.500000 0.500000 1.0
0.733537 -1.763526 3.566841 0.500000 0.500000 0.500000 1.0
3.102491 -1.798690 5.601425 0.500000 0.500000 0.500000 1.0
3.102477 1.798693 5.601444 0.500000 0.500000 0.500000 1.0
0.155645 1.809860 3.189170 1.000000 1.000000 1.000000 1.0
0.161721 -1.797569 3.193128 1.000000 1.000000 1.000000 1.0
-4.077806 1.763577 6.015365 0.500000 0.500000 0.500000 1.0
-4.077758 -1.763566 6.015287 0.500000 0.500000 0.500000 1.0
1.070851 1.219820 3.205596 1.000000 1.000000 1.000000 1.0
1.072000 -1.217382 3.207734 1.000000 1.000000 1.000000 1.0
-3.101620 1.811958 5.519808 0.500000 0.500000 0.500000 1.0
-3.100447 -1.811272 5.516152 0.500000 0.500000 0.500000 1.0
4.624017 -1.667752 5.427434 0.500000 0.500000 0.500000 1.0
4.623915 1.667866 5.427406 0.500000 0.500000 0.500000 1.0
6.180216 0.000010 5.854483 0.500000 0.500000 0.500000 1.0
2.581432 1.285707 4.994769 0.500000 0.500000 0.500000 1.0
2.581482 -1.285740 4.994781 0.500000 0.500000 0.500000 1.0
-5.125419 1.192085 5.043258 0.500000 0.500000 0.500000 1.0
-5.125127 -1.192221 5.042454 0.500000 0.500000 0.500000 1.0
-6.057612 -0.000000 5.945423 0.500000 0.500000 0.500000 1.0
-0.462348 -1.536556 2.751441 1.000000 1.000000 1.000000 1.0
-0.477204 1.557601 2.748625 1.000000 1.000000 1.000000 1.0
-4.593489 1.652311 5.285130 0.500000 0.500000 0.500000 1.0
-4.593452 -1.652370 5.285220 0.500000 0.500000 0.500000 1.0
1.211369 0.000546 2.821006 1.000000 1.000000 1.000000 1.0
-2.633403 1.540692 5.059646 0.500000 0.500000 0.500000 1.0
-2.609267 -1.532356 5.043540 0.500000 0.500000 0.500000 1.0
2.551664 -0.639946 3.713322 0.500000 0.500000 0.500000 1.0
2.551652 0.639949 3.713328 0.500000 0.500000 0.500000 1.0
-1.482942 -0.856739 2.339588 1.000000 1.000000 1.000000 1.0
-1.468128 0.468607 2.278784 1.000000 1.000000 1.000000 1.0
-0.981921 -1.956945 5.590190 1.0 1.0 0.0 1.0
4.037331 -1.733545 4.892041 0.500000 0.500000 0.500000 1.0
4.037201 1.733447 4.892038 0.500000 0.500000 0.500000 1.0
0.648177 1.589631 2.569804 1.000000 1.000000 1.000000 1.0
0.656969 -1.581455 2.576436 1.000000 1.000000 1.000000 1.0
6.988513 -0.000000 5.487488 1.0 1.0 0.0 1.0
5.068262 -1.031342 3.943593 0.500000 0.500000 0.500000 1.0
5.068264 1.031343 3.943594 0.500000 0.500000 0.500000 1.0
-4.052077 1.725550 4.907572 0.500000 0.500000 0.500000 1.0
-4.050827 -1.725425 4.907151 0.500000 0.500000 0.500000 1.0
3.246512 -1.590170 4.524345 0.500000 0.500000 0.500000 1.0
3.246441 1.590383 4.524338 0.500000 0.500000 0.500000 1.0
-6.936619 0.000004 5.681186 1.0 1.0 0.0 1.0
0.177383 1.637103 2.204559 1.000000 1.000000 1.000000 1.0
0.184732 -1.623773 2.200658 1.000000 1.000000 1.000000 1.0
4.594875 -1.535788 4.257525 0.500000 0.500000 0.500000 1.0
4.594904 1.535793 4.257561 0.500000 0.500000 0.500000 1.0
-2.629781 0.508429 3.844284 0.500000 0.500000 0.500000 1.0
-2.633336 -0.450794 3.843812 0.500000 0.500000 0.500000 1.0
0.962366 0.991482 2.313982 1.000000 1.000000 1.000000 1.0
0.960516 -0.984727 2.307421 1.000000 1.000000 1.000000 1.0
-1.787624 1.016089 4.693724 0.500000 0.500000 0.500000 1.0
-3.258738 1.676919 4.510673 0.500000 0.500000 0.500000 1.0
-3.246591 -1.676009 4.511137 0.500000 0.500000 0.500000 1.0
2.800637 -1.216162 4.349117 0.500000 0.500000 0.500000 1.0
2.800492 1.216354 4.349112 0.500000 0.500000 0.500000 1.0
-4.893824 0.999474 4.045113 0.500000 0.500000 0.500000 1.0
-4.893218 -0.999585 4.045077 0.500000 0.500000 0.500000 1.0
-5.436019 -0.000042 4.867512 0.500000 0.500000 0.500000 1.0
-0.512202 -1.349727 1.972870 1.000000 1.000000 1.000000 1.0
-0.652214 1.248419 2.030964 1.000000 1.000000 1.000000 1.0
-4.533530 1.476435 4.218440 0.500000 0.500000 0.500000 1.0
-4.531918 -1.476051 4.218483 0.500000 0.500000 0.500000 1.0
8.006289 0.000000 6.766267 0.500000 0.500000 0.500000 1.0
5.648237 0.000038 4.919372 0.500000 0.500000 0.500000 1.0
3.992358 -1.562322 3.896422 0.500000 0.500000 0.500000 1.0
3.992347 1.562316 3.896426 0.500000 0.500000 0.500000 1.0
-2.871294 -1.315500 4.208554 0.500000 0.500000 0.500000 1.0
-2.891021 1.327151 4.207431 0.500000 0.500000 0.500000 1.0
-1.218563 -0.650210 1.503022 1.000000 1.000000 1.000000 1.0
-1.133878 0.239731 1.472760 1.000000 1.000000 1.000000 1.0
0.644838 1.153949 1.740709 1.000000 1.000000 1.000000 1.0
0.658645 -1.145222 1.739012 1.000000 1.000000 1.000000 1.0
2.062377 0.898121 5.581246 0.500000 0.500000 0.500000 1.0
2.062360 -0.898206 5.581196 0.500000 0.500000 0.500000 1.0
7.386903 -0.818592 6.528146 0.500000 0.500000 0.500000 1.0
7.386903 0.818592 6.528146 0.500000 0.500000 0.500000 1.0
-3.920175 1.465912 3.943408 0.500000 0.500000 0.500000 1.0
-3.917485 -1.466333 3.945455 0.500000 0.500000 0.500000 1.0
-2.117506 -1.110051 5.432841 0.500000 0.500000 0.500000 1.0
-2.118648 1.113644 5.428737 0.500000 0.500000 0.500000 1.0
0.831086 -0.004270 1.951147 1.000000 1.000000 1.000000 1.0
-6.896729 0.688174 6.485539 0.500000 0.500000 0.500000 1.0
-6.896731 -0.688163 6.485540 0.500000 0.500000 0.500000 1.0
4.207323 -1.170281 3.479419 1.000000 1.000000 1.000000 1.0
4.207324 1.170280 3.479419 1.000000 1.000000 1.000000 1.0
3.361306 -1.211595 3.644739 0.500000 0.500000 0.500000 1.0
3.361315 1.211600 3.644738 0.500000 0.500000 0.500000 1.0
5.127221 0.000000 3.917070 0.500000 0.500000 0.500000 1.0
4.408484 -0.303190 3.303858 1.000000 1.000000 1.000000 1.0
4.408481 0.303190 3.303858 1.000000 1.000000 1.000000 1.0
0.147451 0.861962 1.603226 1.000000 1.000000 1.000000 1.0
3 0 56 24
3 0 24 56
3 0 160 28
3 0 28 160
3 1 25 57
3 1 57 25
3 1 161 96
3 1 96 161
3 2 108 35
3 2 35 108
3 3 29 141
3 3 141 29
3 3 65 153
3 3 153 65
3 5 32 36
3 5 36 32
3 6 2 31
3 6 31 2
3 6 31 63
3 6 63 31
3 6 63 10
3 6 10 63
3 7 32 5
3 7 5 32
3 7 37 32
3 7 32 37
3 8 12 33
3 8 33 12
3 8 33 68
3 8 68 33
3 8 68 5
3 8 5 68
3 9 13 34
3 9 34 13
3 9 108 2
3 9 2 108
3 10 63 14
3 10 14 63
3 11 15 37
3 11 37 15
3 11 37 7
3 11 7 37
3 12 33 16
3 12 16 33
3 13 17 34
3 13 34 17
3 14 63 79
3 14 79 63
3 15 19 76
3 15 76 19
3 16 33 87
3 16 87 33
3 16 87 83
3 16 83 87
3 17 21 84
3 17 84 21
3 18 22 59
3 18 59 22
3 18 59 75
3 18 75 59
3 20 69 24
3 20 24 69
3 20 83 69
3 20 69 83
3 23 60 19
3 23 19 60
3 24 69 56
3 24 56 69
3 26 45 22
3 26 22 45
3 27 4 66
3 27 66 4
3 27 46 23
3 27 23 46
3 27 66 46
3 27 46 66
3 28 0 96
3 28 96 0
3 28 96 1
3 28 1 96
3 28 96 161
3 28 161 96
3 28 120 160
3 28 160 120
3 28 160 96
3 28 96 160
3 29 141 4
3 29 4 141
3 30 34 157
3 30 157 34
3 30 39 71
3 30 71 39
3 30 61 129
3 30 129 61
3 30 157 61
3 30 61 157
3 31 35 44
3 31 44 35
3 31 44 67
3 31 67 44
3 32 43 36
3 32 36 43
3 32 64 43
3 32 43 64
3 33 68 40
3 33 40 68
3 33 102 87
3 33 87 102
3 33 102 158
3 33 158 102
3 33 129 40
3 33 40 129
3 34 30 39
3 34 39 30
3 34 108 9
3 34 9 108
3 34 108 39
3 34 39 108
3 34 157 103
3 34 103 157
3 35 31 2
3 35 2 31
3 35 39 53
3 35 53 39
3 35 53 44
3 35 44 53
3 35 108 39
3 35 39 108
3 36 40 68
3 36 68 40
3 36 43 52
3 36 52 43
3 36 52 40
3 36 40 52
3 37 64 32
3 37 32 64
3 38 47 168
3 38 168 47
3 38 104 105
3 38 105 104
3 38 105 47
3 38 47 105
3 38 143 164
3 38 164 143
3 38 162 114
3 38 114 162
3 38 162 143
3 38 143 162
3 38 164 132
3 38 132 164
3 38 168 167
3 38 167 168
3 41 30 71
3 41 71 30
3 41 42 129
3 41 129 42
3 41 106 137
3 41 137 106
3 41 129 30
3 41 30 129
3 41 137 97
3 41 97 137
3 42 41 106
3 42 106 41
3 42 98 72
3 42 72 98
3 42 106 107
3 42 107 106
3 42 129 72
3 42 72 129
3 42 138 98
3 42 98 138
3 43 50 64
3 43 64 50
3 43 77 50
3 43 50 77
3 43 77 52
3 43 52 77
3 44 51 78
3 44 78 51
3 45 59 22
3 45 22 59
3 45 59 89
3 45 89 59
3 45 65 26
3 45 26 65
3 45 73 91
3 45 91 73
3 45 89 73
3 45 73 89
3 45 91 65
3 45 65 91
3 46 60 23
3 46 23 60
3 46 60 90
3 46 90 60
3 47 115 166
3 47 166 115
3 47 144 165
3 47 165 144
3 47 163 115
3 47 115 163
3 47 163 144
3 47 144 163
3 47 166 168
3 47 168 166
3 48 54 135
3 48 135 54
3 48 125 126
3 48 126 125
3 48 126 54
3 48 54 126
3 48 130 146
3 48 146 130
3 48 135 134
3 48 134 135
3 48 155 130
3 48 130 155
3 49 51 67
3 49 67 51
3 49 58 50
3 49 50 58
3 49 62 152
3 49 152 62
3 49 64 50
3 49 50 64
3 49 151 62
3 49 62 151
3 49 151 64
3 49 64 151
3 49 152 67
3 49 67 152
3 50 58 85
3 50 85 58
3 51 78 86
3 51 86 78
3 51 86 58
3 51 58 86
3 52 72 40
3 52 40 72
3 52 81 72
3 52 72 81
3 53 44 78
3 53 78 44
3 53 82 78
3 53 78 82
3 54 131 145
3 54 145 131
3 54 140 156
3 54 156 140
3 54 156 131
3 54 131 156
3 55 122 137
3 55 137 122
3 55 127 159
3 55 159 127
3 55 128 150
3 55 150 128
3 55 149 127
3 55 127 149
3 55 150 122
3 55 122 150
3 56 94 96
3 56 96 94
3 56 96 0
3 56 0 96
3 57 1 96
3 57 96 1
3 57 25 70
3 57 70 25
3 57 70 100
3 57 100 70
3 58 51 49
3 58 49 51
3 60 90 76
3 60 76 90
3 61 126 145
3 61 145 126
3 61 129 158
3 61 158 129
3 61 145 103
3 61 103 145
3 61 158 102
3 61 102 158
3 62 37 92
3 62 92 37
3 62 63 93
3 62 93 63
3 62 93 132
3 62 132 93
3 62 104 105
3 62 105 104
3 62 104 132
3 62 132 104
3 62 105 133
3 62 133 105
3 62 133 92
3 62 92 133
3 63 31 67
3 63 67 31
3 63 67 152
3 63 152 67
3 63 152 62
3 63 62 152
3 65 3 26
3 65 26 3
3 65 113 153
3 65 153 113
3 66 91 46
3 66 46 91
3 66 91 113
3 66 113 91
3 67 51 44
3 67 44 51
3 68 5 36
3 68 36 5
3 69 99 56
3 69 56 99
3 70 21 84
3 70 84 21
3 70 25 21
3 70 21 25
3 70 84 100
3 70 100 84
3 71 39 53
3 71 53 39
3 71 41 97
3 71 97 41
3 71 97 82
3 71 82 97
3 73 114 142
3 73 142 114
3 73 123 114
3 73 114 123
3 73 142 91
3 73 91 142
3 74 46 90
3 74 90 46
3 74 91 46
3 74 46 91
3 74 115 142
3 74 142 115
3 74 124 90
3 74 90 124
3 74 142 91
3 74 91 142
3 75 18 14
3 75 14 18
3 75 79 14
3 75 14 79
3 75 89 59
3 75 59 89
3 76 19 60
3 76 60 19
3 76 80 15
3 76 15 80
3 76 90 110
3 76 110 90
3 76 110 80
3 76 80 110
3 77 111 81
3 77 81 111
3 78 112 86
3 78 86 112
3 79 75 109
3 79 109 75
3 79 109 118
3 79 118 109
3 80 15 37
3 80 37 15
3 80 92 119
3 80 119 92
3 81 72 98
3 81 98 72
3 81 77 52
3 81 52 77
3 81 98 121
3 81 121 98
3 81 111 121
3 81 121 111
3 82 71 53
3 82 53 71
3 82 78 112
3 82 112 78
3 83 20 16
3 83 16 20
3 83 87 116
3 83 116 87
3 84 17 88
3 84 88 17
3 84 88 117
3 84 117 88
3 85 77 50
3 85 50 77
3 85 101 58
3 85 58 101
3 85 111 77
3 85 77 111
3 85 127 111
3 85 111 127
3 86 112 128
3 86 128 112
3 87 130 102
3 87 102 130
3 88 17 34
3 88 34 17
3 88 34 103
3 88 103 34
3 89 109 75
3 89 75 109
3 89 123 73
3 89 73 123
3 91 113 65
3 91 65 113
3 92 37 80
3 92 80 37
3 92 119 133
3 92 133 119
3 93 63 79
3 93 79 63
3 94 99 139
3 94 139 99
3 95 57 96
3 95 96 57
3 95 100 57
3 95 57 100
3 95 100 140
3 95 140 100
3 95 140 135
3 95 135 140
3 96 136 94
3 96 94 136
3 96 136 95
3 96 95 136
3 97 122 82
3 97 82 122
3 97 122 137
3 97 137 122
3 98 121 138
3 98 138 121
3 99 83 69
3 99 69 83
3 99 94 56
3 99 56 94
3 99 116 83
3 99 83 116
3 99 116 139
3 99 139 116
3 100 84 117
3 100 117 84
3 100 117 140
3 100 140 117
3 101 86 58
3 101 58 86
3 101 127 85
3 101 85 127
3 101 128 86
3 101 86 128
3 101 159 127
3 101 127 159
3 102 146 61
3 102 61 146
3 102 146 130
3 102 130 146
3 103 145 131
3 103 131 145
3 104 38 132
3 104 132 38
3 105 47 133
3 105 133 47
3 107 42 138
3 107 138 42
3 107 147 106
3 107 106 147
3 107 148 147
3 107 147 148
3 109 118 143
3 109 143 118
3 109 123 89
3 109 89 123
3 109 143 123
3 109 123 143
3 110 90 124
3 110 124 90
3 110 119 80
3 110 80 119
3 110 144 119
3 110 119 144
3 111 121 149
3 111 149 121
3 111 127 149
3 111 149 127
3 112 122 82
3 112 82 122
3 112 128 150
3 112 150 128
3 113 153 141
3 113 141 153
3 113 154 141
3 113 141 154
3 114 38 167
3 114 167 38
3 114 142 166
3 114 166 142
3 114 167 166
3 114 166 167
3 115 124 74
3 115 74 124
3 115 142 166
3 115 166 142
3 115 163 124
3 115 124 163
3 116 130 87
3 116 87 130
3 116 139 155
3 116 155 139
3 116 155 130
3 116 130 155
3 117 131 88
3 117 88 131
3 117 156 131
3 117 131 156
3 117 156 140
3 117 140 156
3 118 93 79
3 118 79 93
3 118 132 93
3 118 93 132
3 118 164 132
3 118 132 164
3 119 133 165
3 119 165 133
3 119 144 165
3 119 165 144
3 120 96 161
3 120 161 96
3 121 149 169
3 121 169 149
3 121 169 138
3 121 138 169
3 123 143 162
3 123 162 143
3 124 163 144
3 124 144 163
3 125 48 146
3 125 146 48
3 125 146 61
3 125 61 146
3 126 54 145
3 126 145 54
3 126 61 125
3 126 125 61
3 128 101 159
3 128 159 101
3 129 40 72
3 129 72 40
3 131 88 103
3 131 103 88
3 134 139 48
3 134 48 139
3 135 136 134
3 135 134 136
3 136 95 135
3 136 135 95
3 136 134 94
3 136 94 134
3 137 55 147
3 137 147 55
3 137 147 106
3 137 106 147
3 138 107 148
3 138 148 107
3 138 148 55
3 138 55 148
3 139 94 134
3 139 134 94
3 140 54 135
3 140 135 54
3 141 3 153
3 141 153 3
3 143 164 118
3 143 118 164
3 144 110 124
3 144 124 110
3 148 147 55
3 148 55 147
3 150 122 112
3 150 112 122
3 151 37 62
3 151 62 37
3 151 37 64
3 151 64 37
3 154 66 4
3 154 4 66
3 154 113 66
3 154 66 113
3 154 141 4
3 154 4 141
3 155 139 48
3 155 48 139
3 157 61 103
3 157 103 61
3 158 33 129
3 158 129 33
3 159 55 128
3 159 128 55
3 160 96 0
3 160 0 96
3 160 96 120
3 160 120 96
3 161 1 28
3 161 28 1
3 161 120 28
3 161 28 120
3 162 114 123
3 162 123 114
3 165 47 133
3 165 133 47
3 166 168 167
3 166 167 168
3 169 55 138
3 169 138 55
3 169 55 149
3 169 149 55
