# Generated by dad_to_polygons. Vertex data from Humppa's .off file,
# polygons parsed from .dad file.
COFF
21 52 21
-3.175779 0.616124 2.081242 0.500000 0.500000 0.500000 1.0
-3.175779 -0.616124 2.081242 0.500000 0.500000 0.500000 1.0
-0.010924 -1.275204 2.028600 0.500000 0.500000 0.500000 1.0
3.469348 -0.611353 2.091153 0.500000 0.500000 0.500000 1.0
3.469348 0.611353 2.091153 0.500000 0.500000 0.500000 1.0
-0.010924 1.275204 2.028600 0.500000 0.500000 0.500000 1.0
0.946378 -0.992217 2.039243 0.500000 0.500000 0.500000 1.0
0.946378 0.992217 2.039243 0.500000 0.500000 0.500000 1.0
-1.002198 0.982038 2.041276 0.500000 0.500000 0.500000 1.0
-1.002198 -0.982038 2.041276 0.500000 0.500000 0.500000 1.0
1.920247 -0.817893 2.129031 0.500000 0.500000 0.500000 1.0
1.920247 0.817893 2.129031 0.500000 0.500000 0.500000 1.0
-2.035704 0.800349 2.063327 0.500000 0.500000 0.500000 1.0
-2.035704 -0.800349 2.063327 0.500000 0.500000 0.500000 1.0
0.006495 -0.000000 1.038258 1.0 1.0 0.0 1.0
1.449312 -0.658274 1.531810 0.500000 0.500000 0.500000 1.0
-1.384862 0.648540 1.524074 0.500000 0.500000 0.500000 1.0
-1.384862 -0.648540 1.524074 0.500000 0.500000 0.500000 1.0
1.449312 0.658274 1.531810 0.500000 0.500000 0.500000 1.0
2.525204 -0.616170 1.751100 0.500000 0.500000 0.500000 1.0
2.525204 0.616170 1.751100 0.500000 0.500000 0.500000 1.0
3 0 12 16
3 0 16 12
3 0 16 17
3 0 17 16
3 0 17 1
3 0 1 17
3 1 17 13
3 1 13 17
3 2 14 6
3 2 6 14
3 3 4 20
3 3 20 4
3 3 10 15
3 3 15 10
3 3 15 19
3 3 19 15
3 3 20 19
3 3 19 20
3 4 11 18
3 4 18 11
3 4 18 20
3 4 20 18
3 5 14 8
3 5 8 14
3 6 14 15
3 6 15 14
3 7 14 18
3 7 18 14
3 8 14 16
3 8 16 14
3 9 2 14
3 9 14 2
3 9 13 17
3 9 17 13
3 9 14 17
3 9 17 14
3 12 16 8
3 12 8 16
3 14 5 7
3 14 7 5
3 14 17 16
3 14 16 17
3 15 6 10
3 15 10 6
3 15 18 14
3 15 14 18
3 15 19 20
3 15 20 19
3 15 20 18
3 15 18 20
3 18 11 7
3 18 7 11
