 COFF
          45         340          45
  
  -4.9663119293826599       0.72122694111549912        3.5958201652778321       0.60000002384185791       0.60000002384185791       0.60000002384185791       0.80000001192092896     
  -4.9663119293826599      -0.72122694111549912        3.5958201652778321       0.60000002384185791       0.60000002384185791       0.60000002384185791       0.80000001192092896     
  -2.6622639077861429E-002  -1.6572864024946021        3.3080790967722447       0.60000002384185791       0.60000002384185791       0.60000002384185791       0.80000001192092896     
   5.3301597796244948      -0.70418506939748415        3.6278822447635788       0.60000002384185791       0.60000002384185791       0.60000002384185791       0.80000001192092896     
   5.3301597796244948       0.70418506939748415        3.6278822447635788       0.60000002384185791       0.60000002384185791       0.60000002384185791       0.80000001192092896     
  -2.6622639077861415E-002   1.6572864024946021        3.3080790967722447       0.60000002384185791       0.60000002384185791       0.60000002384185791       0.80000001192092896     
   1.0044638506310819       -1.3471828005868560        3.4458391428599806       0.60000002384185791       0.60000002384185791       0.60000002384185791       0.80000001192092896     
   1.0044638506310819        1.3471828005868560        3.4458391428599806       0.60000002384185791       0.60000002384185791       0.60000002384185791       0.80000001192092896     
  -1.0554697794525840        1.3359504103266995        3.4098113993170740       0.60000002384185791       0.60000002384185791       0.60000002384185791       0.80000001192092896     
  -1.0554697794525836       -1.3359504103266995        3.4098113993170740       0.60000002384185791       0.60000002384185791       0.60000002384185791       0.80000001192092896     
   1.9308278481178425       -1.0298904968934564        3.6636754979914059       0.60000002384185791       0.60000002384185791       0.60000002384185791       0.80000001192092896     
   1.9308278481178425        1.0298904968934561        3.6636754979914059       0.60000002384185791       0.60000002384185791       0.60000002384185791       0.80000001192092896     
  -1.9909076431129551        1.0513752873212887        3.6234361499451282       0.60000002384185791       0.60000002384185791       0.60000002384185791       0.80000001192092896     
  -1.9909076431129547       -1.0513752873212887        3.6234361499451282       0.60000002384185791       0.60000002384185791       0.60000002384185791       0.80000001192092896     
   3.0744834118058679      -0.88782946281967801        3.6933963284480416       0.60000002384185791       0.60000002384185791       0.60000002384185791       0.80000001192092896     
   3.0744834118058675       0.88782946281967801        3.6933963284480398       0.60000002384185791       0.60000002384185791       0.60000002384185791       0.80000001192092896     
  -3.0133346363255691       0.90577286029139303        3.6305551114503691       0.60000002384185791       0.60000002384185791       0.60000002384185791       0.80000001192092896     
  -3.0133346363255686      -0.90577286029139303        3.6305551114503687       0.60000002384185791       0.60000002384185791       0.60000002384185791       0.80000001192092896     
   4.0881828169533785      -0.79777928459382963        3.6552634618934277       0.60000002384185791       0.60000002384185791       0.60000002384185791       0.80000001192092896     
   4.0881828169533785       0.79777928459382963        3.6552634618934268       0.60000002384185791       0.60000002384185791       0.60000002384185791       0.80000001192092896     
   3.5727088790516746       0.61840288914234320        2.8604699335027806        1.0000000000000000        1.0000000000000000        0.0000000000000000        1.0000000000000000     
  -3.4906092678569380       0.75641657655513594        2.9214651521727704       0.60000002384185791       0.60000002384185791       0.60000002384185791       0.80000001192092896     
  -3.4906092678569380      -0.75641657655513594        2.9214651521727704       0.60000002384185791       0.60000002384185791       0.60000002384185791       0.80000001192092896     
  -2.9091019151947086E-002  -3.2305002300276838E-017   1.0382578837327854        1.0000000000000000        1.0000000000000000        0.0000000000000000        1.0000000000000000     
   2.1975499213268166      -0.90836869521054997        2.7451166255028601       0.60000002384185791       0.60000002384185791       0.60000002384185791       0.80000001192092896     
   1.2832379583667739       0.97668372665412240        2.0312379436919041       0.60000002384185791       0.60000002384185791       0.60000002384185791       0.80000001192092896     
   1.2832379583667739      -0.97668372665412251        2.0312379436919041       0.60000002384185791       0.60000002384185791       0.60000002384185791       0.80000001192092896     
 -0.95516814638136338        1.2444138902928257        2.5568797253487916       0.60000002384185791       0.60000002384185791       0.60000002384185791       0.80000001192092896     
 -0.95516814638136305       -1.2444138902928257        2.5568797253487916       0.60000002384185791       0.60000002384185791       0.60000002384185791       0.80000001192092896     
  -1.7904057273053053       0.71347105578337489        1.7800719519427728       0.60000002384185791       0.60000002384185791       0.60000002384185791       0.80000001192092896     
  -1.7904057273053056      -0.71347105578337466        1.7800719519427730       0.60000002384185791       0.60000002384185791       0.60000002384185791       0.80000001192092896     
  0.95700811186193802       -1.1877482555258789        2.4223619660650750       0.60000002384185791       0.60000002384185791       0.60000002384185791       0.80000001192092896     
  0.95700811186193802        1.1877482555258787        2.4223619660650741       0.60000002384185791       0.60000002384185791       0.60000002384185791       0.80000001192092896     
  -2.1908846820326611       0.91933020726399672        2.7026056246620618       0.60000002384185791       0.60000002384185791       0.60000002384185791       0.80000001192092896     
  -2.1908846820326602      -0.91933020726399672        2.7026056246620622       0.60000002384185791       0.60000002384185791       0.60000002384185791       0.80000001192092896     
  -3.6198632726648299E-002  -1.3184994744808363        2.3616413515799159       0.60000002384185791       0.60000002384185791       0.60000002384185791       0.80000001192092896     
  -3.6198632726648278E-002   1.3184994744808360        2.3616413515799155       0.60000002384185791       0.60000002384185791       0.60000002384185791       0.80000001192092896     
   2.1975499213268166       0.90836869521054986        2.7451166255028583       0.60000002384185791       0.60000002384185791       0.60000002384185791       0.80000001192092896     
   3.5727088790516746      -0.61840288914234320        2.8604699335027806        1.0000000000000000        1.0000000000000000        0.0000000000000000        1.0000000000000000     
 -0.45791932338632396      -0.81167987904607197        1.8386735244004473       0.60000002384185791       0.60000002384185791       0.60000002384185791       0.80000001192092896     
 -0.45791932338632413       0.81167987904607208        1.8386735244004473       0.60000002384185791       0.60000002384185791       0.60000002384185791       0.80000001192092896     
  -1.0339570337971706      -0.34802656405755944        1.3793334228954799       0.60000002384185791       0.60000002384185791       0.60000002384185791       0.80000001192092896     
  -1.0339570337971706       0.34802656405755950        1.3793334228954799       0.60000002384185791       0.60000002384185791       0.60000002384185791       0.80000001192092896     
  0.51605153980659135       0.67016555872566053        1.7133079808727991       0.60000002384185791       0.60000002384185791       0.60000002384185791       0.80000001192092896     
  0.51605153980659113      -0.67016555872566064        1.7133079808727996       0.60000002384185791       0.60000002384185791       0.60000002384185791       0.80000001192092896     
  
   3   0  16  21
   3   0  21  16
   4   0  21  22   1
   3   1  22  17
   4   1  22  21   0
   3   1  17  22
   3   2  35  28
   3   2  35  31
   3   2  31  35
   3   2  31   6
   3   2   6  31
   3   2   9  28
   3   2  28  35
   3   2  28   9
   3   3  18  38
   3   3  38  18
   4   3  38  20   4
   3   4  20  19
   4   4  20  38   3
   3   4  19  20
   3   5   7  32
   3   5  32  36
   3   5  32   7
   3   5  36  32
   3   5  36  27
   3   5  27  36
   3   5  27   8
   3   5   8  27
   3   6   2  31
   3   6  31   2
   3   6  31  24
   3   6  24  10
   3   6  24  31
   3   6  10  24
   3   7  11  37
   3   7  37  32
   3   7  37  11
   3   7  32  37
   3   7  32   5
   3   7   5  32
   3   8   5  27
   3   8  27   5
   3   8  27  33
   3   8  33  12
   3   8  33  27
   3   8  12  33
   3   9  13  34
   3   9  34  28
   3   9  34  13
   3   9  28  34
   3   9  28   2
   3   9   2  28
   3  10   6  24
   3  10  24  14
   3  10  24   6
   3  10  14  24
   3  11  15  37
   3  11  37   7
   3  11  37  15
   3  11   7  37
   3  12   8  33
   3  12  33  16
   3  12  33   8
   3  12  16  33
   3  13  17  34
   3  13  34   9
   3  13  34  17
   3  13   9  34
   3  14  10  24
   3  14  24  38
   3  14  24  10
   3  14  38  18
   3  14  38  24
   3  14  18  38
   3  15  19  20
   3  15  20  37
   3  15  20  19
   3  15  37  20
   3  15  37  11
   3  15  11  37
   3  16  12  33
   3  16  33  21
   3  16  33  12
   3  16  21   0
   3  16  21  33
   3  16   0  21
   3  17   1  22
   3  17  22   1
   3  17  22  34
   3  17  34  22
   3  17  34  13
   3  17  13  34
   3  18  14  38
   3  18  38   3
   3  18  38  14
   3  18   3  38
   3  19   4  20
   3  19  20   4
   3  19  20  15
   3  19  15  20
   3  20   4  19
   4  20   4   3  38
   3  20  37  15
   4  20  37  24  38
   3  20  15  19
   3  20  15  37
   3  20  19   4
   3  20  19  15
   3  21   0  16
   4  21   0   1  22
   3  21  16  33
   3  21  16   0
   3  21  33  16
   4  21  33  34  22
   3  22   1  17
   4  22   1   0  21
   3  22  34  17
   4  22  34  33  21
   3  22  17   1
   3  22  17  34
   3  23  36  43
   3  23  36  40
   3  23  43  36
   3  23  43  25
   3  23  25  26
   3  23  25  43
   3  23  26  25
   3  23  26  44
   3  23  44  26
   3  23  44  35
   3  23  35  39
   3  23  35  44
   3  23  39  35
   4  23  39  30  41
   3  23  41  42
   4  23  41  30  39
   3  23  42  41
   4  23  42  29  40
   3  23  40  36
   4  23  40  29  42
   3  24  38  14
   4  24  38  20  37
   3  24  14  10
   3  24  14  38
   3  24  10   6
   3  24  10  14
   3  24   6  31
   3  24   6  10
   3  24  31  26
   3  24  31   6
   3  24  26  31
   4  24  26  25  37
   3  25  37  32
   4  25  37  24  26
   3  25  26  23
   4  25  26  24  37
   3  25  23  43
   3  25  23  26
   3  25  43  32
   3  25  43  23
   3  25  32  37
   3  25  32  43
   3  26  23  25
   3  26  23  44
   3  26  25  23
   4  26  25  37  24
   3  26  24  31
   4  26  24  37  25
   3  26  31  44
   3  26  31  24
   3  26  44  31
   3  26  44  23
   3  27   5  36
   3  27   5   8
   3  27  36  40
   3  27  36   5
   3  27  40  33
   3  27  40  36
   3  27  33   8
   3  27  33  40
   3  27   8   5
   3  27   8  33
   3  28  34  39
   3  28  34   9
   3  28  39  35
   3  28  39  34
   3  28  35  39
   3  28  35   2
   3  28   2  35
   3  28   2   9
   3  28   9  34
   3  28   9   2
   3  29  33  40
   4  29  33  34  30
   3  29  40  33
   4  29  40  23  42
   3  30  34  39
   4  30  34  33  29
   3  30  39  34
   4  30  39  23  41
   3  31   2  35
   3  31   2   6
   3  31  35  44
   3  31  35   2
   3  31  44  26
   3  31  44  35
   3  31  26  24
   3  31  26  44
   3  31  24   6
   3  31  24  26
   3  31   6   2
   3  31   6  24
   3  32  37  25
   3  32  37   7
   3  32  25  37
   3  32  25  43
   3  32  43  36
   3  32  43  25
   3  32  36  43
   3  32  36   5
   3  32   5   7
   3  32   5  36
   3  32   7  37
   3  32   7   5
   3  33  21  16
   4  33  21  22  34
   3  33  16  12
   3  33  16  21
   3  33  12   8
   3  33  12  16
   3  33   8  27
   3  33   8  12
   3  33  27  40
   3  33  27   8
   3  33  40  29
   3  33  40  27
   3  33  29  40
   4  33  29  30  34
   3  34  22  17
   4  34  22  21  33
   3  34  30  39
   4  34  30  29  33
   3  34  39  28
   3  34  39  30
   3  34  28  39
   3  34  28   9
   3  34   9  13
   3  34   9  28
   3  34  13  17
   3  34  13   9
   3  34  17  22
   3  34  17  13
   3  35  28  39
   3  35  28   2
   3  35  39  28
   3  35  39  23
   3  35  23  44
   3  35  23  39
   3  35  44  31
   3  35  44  23
   3  35  31   2
   3  35  31  44
   3  35   2  31
   3  35   2  28
   3  36  32  43
   3  36  32   5
   3  36  43  32
   3  36  43  23
   3  36  23  43
   3  36  23  40
   3  36  40  27
   3  36  40  23
   3  36  27   5
   3  36  27  40
   3  36   5  32
   3  36   5  27
   3  37  20  15
   4  37  20  38  24
   3  37  25  32
   4  37  25  26  24
   3  37  32  25
   3  37  32   7
   3  37   7  11
   3  37   7  32
   3  37  11  15
   3  37  11   7
   3  37  15  20
   3  37  15  11
   3  38   3  18
   4  38   3   4  20
   3  38  18  14
   3  38  18   3
   3  38  14  24
   3  38  14  18
   3  38  24  14
   4  38  24  37  20
   3  39  35  28
   3  39  35  23
   3  39  28  34
   3  39  28  35
   3  39  34  30
   3  39  34  28
   3  39  30  34
   4  39  30  41  23
   3  39  23  35
   4  39  23  41  30
   3  40  29  33
   4  40  29  42  23
   3  40  33  27
   3  40  33  29
   3  40  27  36
   3  40  27  33
   3  40  36  23
   3  40  36  27
   3  40  23  36
   4  40  23  42  29
   3  41  23  42
   4  41  23  39  30
   3  41  42  23
   4  41  42  29  30
   3  42  23  41
   4  42  23  40  29
   3  42  41  23
   4  42  41  30  29
   3  43  36  32
   3  43  36  23
   3  43  32  25
   3  43  32  36
   3  43  25  23
   3  43  25  32
   3  43  23  36
   3  43  23  25
   3  44  26  23
   3  44  26  31
   3  44  31  35
   3  44  31  26
   3  44  35  23
   3  44  35  31
   3  44  23  26
   3  44  23  35
