 COFF
          69         596          69
  
  -6.1569095659670205       0.79388241259661430        4.3196893048590397       0.60000002384185791       0.60000002384185791       0.60000002384185791       0.80000001192092896     
  -6.1569095659670197      -0.79388241259661430        4.3196893048590397       0.60000002384185791       0.60000002384185791       0.60000002384185791       0.80000001192092896     
  -2.7556184914247408E-002  -1.7947409616900596        3.9872125705544659       0.60000002384185791       0.60000002384185791       0.60000002384185791       0.80000001192092896     
   7.0656345719733880      -0.79320473113266354        4.3287027333334960       0.60000002384185791       0.60000002384185791       0.60000002384185791       0.80000001192092896     
   7.0656345719733880       0.79320473113266354        4.3287027333334960       0.60000002384185791       0.60000002384185791       0.60000002384185791       0.80000001192092896     
  -2.7556184914247377E-002   1.7947409616900596        3.9872125705544659       0.60000002384185791       0.60000002384185791       0.60000002384185791       0.80000001192092896     
   1.0417434014416487       -1.4707718216381231        4.1369424456734736       0.60000002384185791       0.60000002384185791       0.60000002384185791       0.80000001192092896     
   1.0417434014416487        1.4707718216381229        4.1369424456734736       0.60000002384185791       0.60000002384185791       0.60000002384185791       0.80000001192092896     
  -1.0832528362091256        1.4526594920764357        4.1083810023922336       0.60000002384185791       0.60000002384185791       0.60000002384185791       0.80000001192092896     
  -1.0832528362091247       -1.4526594920764357        4.1083810023922336       0.60000002384185791       0.60000002384185791       0.60000002384185791       0.80000001192092896     
   1.9597223221418991       -1.1490312695731961        4.3700259860956008       0.60000002384185791       0.60000002384185791       0.60000002384185791       0.80000001192092896     
   1.9597223221418991        1.1490312695731959        4.3700259860956008       0.60000002384185791       0.60000002384185791       0.60000002384185791       0.80000001192092896     
  -2.0058966364381337        1.1523258673750065        4.3489221423750362       0.60000002384185791       0.60000002384185791       0.60000002384185791       0.80000001192092896     
  -2.0058966364381328       -1.1523258673750065        4.3489221423750362       0.60000002384185791       0.60000002384185791       0.60000002384185791       0.80000001192092896     
   3.0511968681020503       -1.0932278310373644        4.3327149604526660       0.60000002384185791       0.60000002384185791       0.60000002384185791       0.80000001192092896     
   3.0511968681020494        1.0932278310373644        4.3327149604526642       0.60000002384185791       0.60000002384185791       0.60000002384185791       0.80000001192092896     
  -2.9993526253332119        1.0513680085420700        4.3269356431026136       0.60000002384185791       0.60000002384185791       0.60000002384185791       0.80000001192092896     
  -2.9993526253332110       -1.0513680085420700        4.3269356431026136       0.60000002384185791       0.60000002384185791       0.60000002384185791       0.80000001192092896     
   4.0499377051349548       -1.0427588301225019        4.3728151194227962       0.60000002384185791       0.60000002384185791       0.60000002384185791       0.80000001192092896     
   4.0499377051349539        1.0427588301225019        4.3728151194227953       0.60000002384185791       0.60000002384185791       0.60000002384185791       0.80000001192092896     
  -3.9946338251116846       0.97668657983495588        4.3700187374149069       0.60000002384185791       0.60000002384185791       0.60000002384185791       0.80000001192092896     
  -3.9946338251116842      -0.97668657983495555        4.3700187374149060       0.60000002384185791       0.60000002384185791       0.60000002384185791       0.80000001192092896     
   5.0490797100987672      -0.93356715707322901        4.3408631279814287       0.60000002384185791       0.60000002384185791       0.60000002384185791       0.80000001192092896     
   5.0490797100987672       0.93356715707322901        4.3408631279814287       0.60000002384185791       0.60000002384185791       0.60000002384185791       0.80000001192092896     
  -4.9914789788603242       0.88786448259536832        4.3414230929651003       0.60000002384185791       0.60000002384185791       0.60000002384185791       0.80000001192092896     
  -4.9914789788603242      -0.88786448259536821        4.3414230929650994       0.60000002384185791       0.60000002384185791       0.60000002384185791       0.80000001192092896     
   6.0483933113383808      -0.86353281714839281        4.3345636578216062       0.60000002384185791       0.60000002384185791       0.60000002384185791       0.80000001192092896     
   6.0483933113383808       0.86353281714839281        4.3345636578216062       0.60000002384185791       0.60000002384185791       0.60000002384185791       0.80000001192092896     
  -1.0745297735171158       -1.3989288827049680        3.2539909349901190       0.60000002384185791       0.60000002384185791       0.60000002384185791       0.80000001192092896     
  -1.8568075616558779       0.82064077610545816        2.3279335268287107       0.60000002384185791       0.60000002384185791       0.60000002384185791       0.80000001192092896     
  -1.8568075616558766      -0.82064077610544539        2.3279335268287102       0.60000002384185791       0.60000002384185791       0.60000002384185791       0.80000001192092896     
  0.96023481399276478       -1.4053659861030645        3.0680193517113930       0.60000002384185791       0.60000002384185791       0.60000002384185791       0.80000001192092896     
  0.96023481399276422        1.4053659861030643        3.0680193517113938       0.60000002384185791       0.60000002384185791       0.60000002384185791       0.80000001192092896     
  -2.2053257329611000        1.0370662234224939        3.3163273539105589       0.60000002384185791       0.60000002384185791       0.60000002384185791       0.80000001192092896     
  -2.2053257329611000       -1.0370662234224923        3.3163273539105589       0.60000002384185791       0.60000002384185791       0.60000002384185791       0.80000001192092896     
   2.0047212146920728E-003  -1.5109646203872049        2.9135946457174455       0.60000002384185791       0.60000002384185791       0.60000002384185791       0.80000001192092896     
   2.0047212146919679E-003   1.5109646203872047        2.9135946457174455       0.60000002384185791       0.60000002384185791       0.60000002384185791       0.80000001192092896     
   2.1702910317638233        1.0304027373657372        3.3885996109045582       0.60000002384185791       0.60000002384185791       0.60000002384185791       0.80000001192092896     
   3.5918836509388847      -0.61851927440004040        2.8604699335027806        1.0000000000000000        1.0000000000000000        0.0000000000000000        1.0000000000000000     
 -0.59919526057234118       -1.2675093899227490        2.4063069576464691       0.60000002384185791       0.60000002384185791       0.60000002384185791       0.80000001192092896     
 -0.59919526057233885        1.2675093899227503        2.4063069576464682       0.60000002384185791       0.60000002384185791       0.60000002384185791       0.80000001192092896     
  -1.5438890391720219      -0.60334255010580329        1.4694554826883430       0.60000002384185791       0.60000002384185791       0.60000002384185791       0.80000001192092896     
  -1.5438890391720221       0.60334255010580484        1.4694554826883466       0.60000002384185791       0.60000002384185791       0.60000002384185791       0.80000001192092896     
  0.74804580760076556        1.2043784339300110        2.0967019683228934       0.60000002384185791       0.60000002384185791       0.60000002384185791       0.80000001192092896     
  0.74804580760076556       -1.2043784339300110        2.0967019683228938       0.60000002384185791       0.60000002384185791       0.60000002384185791       0.80000001192092896     
   5.1638820210249170      -0.76463281355683199        3.5375319484443275       0.60000002384185791       0.60000002384185791       0.60000002384185791       0.80000001192092896     
   5.1638820210249170       0.76463281355683199        3.5375319484443275       0.60000002384185791       0.60000002384185791       0.60000002384185791       0.80000001192092896     
   3.5918836509388847       0.61851927440004051        2.8604699335027806        1.0000000000000000        1.0000000000000000        0.0000000000000000        1.0000000000000000     
  -3.5871629717061810       0.65883946613265199        3.1375182682895115        1.0000000000000000        1.0000000000000000        0.0000000000000000        1.0000000000000000     
   1.7716871950638129        2.9563674355991371E-015   2.5232937767128671       0.60000002384185791       0.60000002384185791       0.60000002384185791       0.80000001192092896     
   1.1268154964779920       0.81622068719829755        1.8736939941571966       0.60000002384185791       0.60000002384185791       0.60000002384185791       0.80000001192092896     
   1.1268154964779917      -0.81622068719829755        1.8736939941571966       0.60000002384185791       0.60000002384185791       0.60000002384185791       0.80000001192092896     
  -1.4568671647557759E-002   1.1896694882972210        2.0510313425278204       0.60000002384185791       0.60000002384185791       0.60000002384185791       0.80000001192092896     
  -1.4568671647557726E-002  -1.1896694882972207        2.0510313425278204       0.60000002384185791       0.60000002384185791       0.60000002384185791       0.80000001192092896     
  -3.5871629717061810      -0.65883946613265087        3.1375182682895115        1.0000000000000000        1.0000000000000000        0.0000000000000000        1.0000000000000000     
   7.3678308676646031E-003  -1.7988854280099981E-017   1.0382578837327854        1.0000000000000000        1.0000000000000000        0.0000000000000000        1.0000000000000000     
   1.1959691090784665        2.3895838557410722E-016   1.7546434690840551       0.60000002384185791       0.60000002384185791       0.60000002384185791       0.80000001192092896     
  -4.9654157633216167       0.71574066958119698        3.6132301998256318       0.60000002384185791       0.60000002384185791       0.60000002384185791       0.80000001192092896     
  -4.9654157633216167      -0.71574066958119720        3.6132301998256318       0.60000002384185791       0.60000002384185791       0.60000002384185791       0.80000001192092896     
   4.3458439650108653      -0.84697967759408588        3.6424056470871702       0.60000002384185791       0.60000002384185791       0.60000002384185791       0.80000001192092896     
   4.3458439650108653       0.84697967759408599        3.6424056470871702       0.60000002384185791       0.60000002384185791       0.60000002384185791       0.80000001192092896     
  -2.2055871261787190        1.1090769717094820E-013   3.2849800496661428       0.60000002384185791       0.60000002384185791       0.60000002384185791       0.80000001192092896     
   2.1704142599609102        4.0328475635019776E-014   3.3595815516243395       0.60000002384185791       0.60000002384185791       0.60000002384185791       0.80000001192092896     
   2.1702910317638229       -1.0304027373657374        3.3885996109045604       0.60000002384185791       0.60000002384185791       0.60000002384185791       0.80000001192092896     
   1.4384000227259484        1.2193982355539505        2.6535496628058191       0.60000002384185791       0.60000002384185791       0.60000002384185791       0.80000001192092896     
   6.1111059450836018      -0.77321023420303148        3.9153794662069656       0.60000002384185791       0.60000002384185791       0.60000002384185791       0.80000001192092896     
   6.1111059450836018       0.77321023420303148        3.9153794662069656       0.60000002384185791       0.60000002384185791       0.60000002384185791       0.80000001192092896     
   1.4384000227259486       -1.2193982355539512        2.6535496628058195       0.60000002384185791       0.60000002384185791       0.60000002384185791       0.80000001192092896     
  -1.0745297735171155        1.3989288827049675        3.2539909349901190       0.60000002384185791       0.60000002384185791       0.60000002384185791       0.80000001192092896     
  
   3   0  24  57
   3   0  57  24
   4   0  57  58   1
   3   1  58  25
   4   1  58  57   0
   3   1  25  58
   3   2  35  28
   3   2  35  31
   3   2  31  35
   3   2  31   6
   3   2   6  31
   3   2   9  28
   3   2  28  35
   3   2  28   9
   3   3  26  65
   3   3  65  26
   4   3  65  66   4
   3   4  66  27
   4   4  66  65   3
   3   4  27  66
   3   5   7  32
   3   5  32  36
   3   5  32   7
   3   5  36  32
   3   5  36  68
   3   5  68  36
   3   5  68   8
   3   5   8  68
   3   6   2  31
   3   6  31   2
   3   6  31  63
   3   6  63  10
   3   6  63  31
   3   6  10  63
   3   7  11  37
   3   7  37  32
   3   7  37  11
   3   7  32  37
   3   7  32   5
   3   7   5  32
   3   8   5  68
   3   8  68   5
   3   8  68  33
   3   8  33  12
   3   8  33  68
   3   8  12  33
   3   9  13  34
   3   9  34  28
   3   9  34  13
   3   9  28  34
   3   9  28   2
   3   9   2  28
   3  10   6  63
   3  10  63  14
   3  10  63   6
   3  10  14  63
   3  11  15  37
   3  11  37   7
   3  11  37  15
   3  11   7  37
   3  12   8  33
   3  12  33  16
   3  12  33   8
   3  12  16  33
   3  13  17  34
   3  13  34   9
   3  13  34  17
   3  13   9  34
   3  14  10  63
   3  14  63  38
   3  14  63  10
   3  14  38  18
   3  14  38  63
   3  14  18  38
   3  15  19  47
   3  15  47  37
   3  15  47  19
   3  15  37  47
   3  15  37  11
   3  15  11  37
   3  16  12  33
   3  16  33  48
   3  16  33  12
   3  16  48  20
   3  16  48  33
   3  16  20  48
   3  17  21  54
   3  17  54  34
   3  17  54  21
   3  17  34  54
   3  17  34  13
   3  17  13  34
   3  18  14  38
   3  18  38  59
   3  18  38  14
   3  18  59  38
   3  18  59  22
   3  18  22  59
   4  18  22  45  38
   3  19  23  60
   4  19  23  46  47
   3  19  60  47
   3  19  60  23
   3  19  47  15
   3  19  47  60
   3  19  15  47
   3  20  16  48
   3  20  48  24
   3  20  48  16
   3  20  24  48
   3  21  25  54
   3  21  54  17
   3  21  54  25
   3  21  17  54
   3  22  18  59
   4  22  18  38  45
   3  22  59  18
   3  22  59  45
   3  22  45  26
   3  22  45  59
   3  22  26  45
   3  23  27  46
   3  23  46  60
   3  23  46  27
   3  23  60  46
   3  23  60  19
   3  23  19  60
   4  23  19  47  46
   3  24  20  48
   3  24  48  57
   3  24  48  20
   3  24  57   0
   3  24  57  48
   3  24   0  57
   3  25   1  58
   3  25  58   1
   3  25  58  54
   3  25  54  58
   3  25  54  21
   3  25  21  54
   3  26  22  45
   3  26  45  65
   3  26  45  22
   3  26  65   3
   3  26  65  45
   3  26   3  65
   3  27   4  66
   3  27  66   4
   3  27  66  46
   3  27  46  66
   3  27  46  23
   3  27  23  46
   3  28  34  39
   3  28  34   9
   3  28  39  35
   3  28  39  34
   3  28  35  39
   3  28  35   2
   3  28   2  35
   3  28   2   9
   3  28   9  34
   3  28   9   2
   3  29  33  40
   3  29  33  61
   3  29  40  33
   4  29  40  55  42
   3  29  30  61
   4  29  30  41  42
   3  29  61  30
   3  29  61  33
   3  30  34  61
   3  30  34  39
   3  30  61  29
   3  30  61  34
   3  30  29  61
   4  30  29  42  41
   3  30  39  34
   4  30  39  55  41
   3  31   2  35
   3  31   2   6
   3  31  35  44
   3  31  35   2
   3  31  44  67
   3  31  44  35
   3  31  67  63
   3  31  67  44
   3  31  63   6
   3  31  63  67
   3  31   6   2
   3  31   6  63
   3  32  37  64
   3  32  37   7
   3  32  64  37
   3  32  64  43
   3  32  43  36
   3  32  43  64
   3  32  36  43
   3  32  36   5
   3  32   5   7
   3  32   5  36
   3  32   7  37
   3  32   7   5
   3  33  48  16
   3  33  48  61
   3  33  16  12
   3  33  16  48
   3  33  12   8
   3  33  12  16
   3  33   8  68
   3  33   8  12
   3  33  68  40
   3  33  68   8
   3  33  40  29
   3  33  40  68
   3  33  29  40
   3  33  29  61
   3  33  61  29
   3  33  61  48
   3  34  54  61
   3  34  54  17
   3  34  61  30
   3  34  61  54
   3  34  30  61
   3  34  30  39
   3  34  39  28
   3  34  39  30
   3  34  28  39
   3  34  28   9
   3  34   9  13
   3  34   9  28
   3  34  13  17
   3  34  13   9
   3  34  17  54
   3  34  17  13
   3  35  28  39
   3  35  28   2
   3  35  39  28
   3  35  39  53
   3  35  53  44
   3  35  53  39
   3  35  44  31
   3  35  44  53
   3  35  31   2
   3  35  31  44
   3  35   2  31
   3  35   2  28
   3  36  32  43
   3  36  32   5
   3  36  43  32
   3  36  43  52
   3  36  52  40
   3  36  52  43
   3  36  40  68
   3  36  40  52
   3  36  68   5
   3  36  68  40
   3  36   5  32
   3  36   5  68
   3  37  47  62
   3  37  47  15
   3  37  62  49
   3  37  62  47
   3  37  49  62
   3  37  49  64
   3  37  64  49
   3  37  64  32
   3  37  32  64
   3  37  32   7
   3  37   7  11
   3  37   7  32
   3  37  11  15
   3  37  11   7
   3  37  15  47
   3  37  15  11
   3  38  45  59
   4  38  45  22  18
   3  38  59  18
   3  38  59  45
   3  38  18  14
   3  38  18  59
   3  38  14  63
   3  38  14  18
   3  38  63  14
   3  38  63  62
   3  38  62  47
   3  38  62  63
   3  38  47  62
   4  38  47  46  45
   3  39  35  28
   3  39  35  53
   3  39  28  34
   3  39  28  35
   3  39  34  30
   3  39  34  28
   3  39  30  34
   4  39  30  41  55
   3  39  55  53
   4  39  55  44  35
   3  39  53  35
   3  39  53  55
   3  40  29  33
   4  40  29  42  55
   3  40  33  68
   3  40  33  29
   3  40  68  36
   3  40  68  33
   3  40  36  52
   3  40  36  68
   3  40  52  36
   3  40  52  55
   3  40  55  52
   4  40  55  43  36
   3  41  55  42
   4  41  55  39  30
   3  41  42  55
   4  41  42  29  30
   3  42  55  41
   4  42  55  40  29
   3  42  41  55
   4  42  41  30  29
   3  43  36  32
   3  43  36  52
   3  43  32  64
   3  43  32  36
   3  43  64  50
   3  43  64  32
   3  43  50  64
   3  43  50  55
   3  43  55  52
   3  43  55  50
   3  43  52  36
   3  43  52  55
   3  44  67  51
   3  44  67  31
   3  44  31  35
   3  44  31  67
   3  44  35  53
   3  44  35  31
   3  44  53  35
   3  44  53  55
   3  44  55  51
   3  44  55  53
   3  44  51  67
   3  44  51  55
   3  45  65  26
   4  45  65  66  46
   3  45  26  22
   3  45  26  65
   3  45  22  59
   3  45  22  26
   3  45  59  38
   3  45  59  22
   3  45  38  59
   4  45  38  18  22
   3  46  66  27
   4  46  66  65  45
   3  46  47  60
   4  46  47  38  45
   3  46  60  47
   3  46  60  23
   3  46  23  27
   3  46  23  60
   3  46  27  66
   3  46  27  23
   3  47  46  60
   4  47  46  45  38
   3  47  38  62
   4  47  38  45  46
   3  47  62  37
   3  47  62  38
   3  47  37  62
   3  47  37  15
   3  47  15  19
   3  47  15  37
   3  47  19  60
   3  47  19  15
   3  47  60  46
   3  47  60  19
   3  48  57  24
   4  48  57  58  54
   3  48  24  20
   3  48  24  57
   3  48  20  16
   3  48  20  24
   3  48  16  33
   3  48  16  20
   3  48  33  16
   3  48  33  61
   3  48  61  54
   3  48  61  33
   3  48  54  61
   4  48  54  58  57
   3  49  37  62
   3  49  37  64
   3  49  62  37
   3  49  62  63
   3  49  63  67
   3  49  63  62
   3  49  67  51
   3  49  67  63
   3  49  51  67
   3  49  51  56
   3  49  56  51
   3  49  56  50
   3  49  50  64
   3  49  50  56
   3  49  64  37
   3  49  64  50
   3  50  43  64
   3  50  43  55
   3  50  64  49
   3  50  64  43
   3  50  49  56
   3  50  49  64
   3  50  56  55
   3  50  56  49
   3  50  55  43
   3  50  55  56
   3  51  49  67
   3  51  49  56
   3  51  67  49
   3  51  67  44
   3  51  44  67
   3  51  44  55
   3  51  55  56
   3  51  55  44
   3  51  56  55
   3  51  56  49
   3  52  40  36
   3  52  40  55
   3  52  36  43
   3  52  36  40
   3  52  43  36
   3  52  43  55
   3  52  55  43
   3  52  55  40
   3  53  44  35
   3  53  44  55
   3  53  35  39
   3  53  35  44
   3  53  39  35
   3  53  39  55
   3  53  55  44
   3  53  55  39
   3  54  58  25
   4  54  58  57  48
   3  54  48  61
   4  54  48  57  58
   3  54  61  34
   3  54  61  48
   3  54  34  61
   3  54  34  17
   3  54  17  21
   3  54  17  34
   3  54  21  25
   3  54  21  17
   3  54  25  58
   3  54  25  21
   3  55  52  40
   3  55  52  43
   3  55  43  50
   3  55  43  52
   3  55  50  43
   3  55  50  56
   3  55  56  51
   3  55  56  50
   3  55  51  44
   3  55  51  56
   3  55  44  53
   3  55  44  51
   3  55  53  44
   3  55  53  39
   3  55  39  53
   4  55  39  35  44
   3  55  41  42
   4  55  41  30  39
   3  55  42  41
   4  55  42  29  40
   3  55  40  52
   4  55  40  29  42
   3  56  51  49
   3  56  51  55
   3  56  55  50
   3  56  55  51
   3  56  50  49
   3  56  50  55
   3  56  49  51
   3  56  49  50
   3  57   0  24
   4  57   0   1  58
   3  57  24  48
   3  57  24   0
   3  57  48  24
   4  57  48  54  58
   3  58   1  25
   4  58   1   0  57
   3  58  54  25
   4  58  54  48  57
   3  58  25   1
   3  58  25  54
   3  59  18  38
   3  59  18  22
   3  59  38  45
   3  59  38  18
   3  59  45  22
   3  59  45  38
   3  59  22  18
   3  59  22  45
   3  60  46  47
   3  60  46  23
   3  60  47  46
   3  60  47  19
   3  60  19  23
   3  60  19  47
   3  60  23  46
   3  60  23  19
   3  61  29  33
   3  61  29  30
   3  61  30  34
   3  61  30  29
   3  61  34  54
   3  61  34  30
   3  61  54  48
   3  61  54  34
   3  61  48  33
   3  61  48  54
   3  61  33  48
   3  61  33  29
   3  62  49  37
   3  62  49  63
   3  62  37  47
   3  62  37  49
   3  62  47  38
   3  62  47  37
   3  62  38  63
   3  62  38  47
   3  62  63  38
   3  62  63  49
   3  63  38  14
   3  63  38  62
   3  63  14  10
   3  63  14  38
   3  63  10   6
   3  63  10  14
   3  63   6  31
   3  63   6  10
   3  63  31  67
   3  63  31   6
   3  63  67  49
   3  63  67  31
   3  63  49  62
   3  63  49  67
   3  63  62  49
   3  63  62  38
   3  64  37  49
   3  64  37  32
   3  64  49  37
   3  64  49  50
   3  64  50  43
   3  64  50  49
   3  64  43  32
   3  64  43  50
   3  64  32  37
   3  64  32  43
   3  65   3  26
   4  65   3   4  66
   3  65  26  45
   3  65  26   3
   3  65  45  26
   4  65  45  46  66
   3  66   4  27
   4  66   4   3  65
   3  66  46  27
   4  66  46  45  65
   3  66  27   4
   3  66  27  46
   3  67  51  49
   3  67  51  44
   3  67  49  63
   3  67  49  51
   3  67  63  31
   3  67  63  49
   3  67  31  44
   3  67  31  63
   3  67  44  31
   3  67  44  51
   3  68   5  36
   3  68   5   8
   3  68  36  40
   3  68  36   5
   3  68  40  33
   3  68  40  36
   3  68  33   8
   3  68  33  40
   3  68   8   5
   3  68   8  33
