# Generated by dad_to_polygons. Vertex data from Humppa's .off file,
# polygons parsed from .dad file.
COFF
77 248 77
-6.307009 0.844426 4.657689 0.500000 0.500000 0.500000 1.0
-6.307009 -0.844426 4.657689 0.500000 0.500000 0.500000 1.0
-0.028250 -1.861654 4.326069 0.500000 0.500000 0.500000 1.0
7.231904 -0.831370 4.686023 0.500000 0.500000 0.500000 1.0
7.231904 0.831370 4.686023 0.500000 0.500000 0.500000 1.0
-0.028250 1.861654 4.326069 0.500000 0.500000 0.500000 1.0
1.058614 -1.538240 4.474456 0.500000 0.500000 0.500000 1.0
1.058614 1.538240 4.474456 0.500000 0.500000 0.500000 1.0
-1.092949 1.519019 4.447361 0.500000 0.500000 0.500000 1.0
-1.092949 -1.519019 4.447361 0.500000 0.500000 0.500000 1.0
1.977636 -1.220488 4.708716 0.500000 0.500000 0.500000 1.0
1.977636 1.220488 4.708716 0.500000 0.500000 0.500000 1.0
-2.014919 1.219805 4.692959 0.500000 0.500000 0.500000 1.0
-2.014919 -1.219805 4.692959 0.500000 0.500000 0.500000 1.0
3.053134 -1.213363 4.623295 0.500000 0.500000 0.500000 1.0
3.053134 1.213363 4.623295 0.500000 0.500000 0.500000 1.0
-3.010386 1.168065 4.619548 0.500000 0.500000 0.500000 1.0
-3.010386 -1.168065 4.619548 0.500000 0.500000 0.500000 1.0
4.051458 -1.166379 4.660948 0.500000 0.500000 0.500000 1.0
4.051458 1.166379 4.660948 0.500000 0.500000 0.500000 1.0
-4.007384 1.104333 4.664078 0.500000 0.500000 0.500000 1.0
-4.007384 -1.104333 4.664078 0.500000 0.500000 0.500000 1.0
5.040669 -1.024483 4.675706 0.500000 0.500000 0.500000 1.0
5.040669 1.024483 4.675706 0.500000 0.500000 0.500000 1.0
-5.001853 0.994224 4.647011 0.500000 0.500000 0.500000 1.0
-5.001853 -0.994224 4.647011 0.500000 0.500000 0.500000 1.0
6.053803 -0.933637 4.677169 0.500000 0.500000 0.500000 1.0
6.053803 0.933637 4.677169 0.500000 0.500000 0.500000 1.0
-1.035704 -1.477353 3.571740 0.500000 0.500000 0.500000 1.0
-1.814649 0.747185 2.590316 0.500000 0.500000 0.500000 1.0
-1.814649 -0.747185 2.590316 0.500000 0.500000 0.500000 1.0
0.948356 -1.479975 3.370527 0.500000 0.500000 0.500000 1.0
0.948356 1.479975 3.370527 0.500000 0.500000 0.500000 1.0
-2.171458 1.130278 3.617571 0.500000 0.500000 0.500000 1.0
-2.171458 -1.130278 3.617571 0.500000 0.500000 0.500000 1.0
0.015679 -1.593673 3.198051 0.500000 0.500000 0.500000 1.0
0.015679 1.593673 3.198051 0.500000 0.500000 0.500000 1.0
2.163998 1.122228 3.689271 0.500000 0.500000 0.500000 1.0
3.581174 -0.618790 2.860470 1.0 1.0 0.0 1.0
-0.657247 -1.406153 2.701177 0.500000 0.500000 0.500000 1.0
-0.657247 1.406153 2.701177 0.500000 0.500000 0.500000 1.0
-1.499582 -0.652810 1.594053 0.500000 0.500000 0.500000 1.0
-1.499582 0.652810 1.594053 0.500000 0.500000 0.500000 1.0
0.807777 1.353450 2.343735 0.500000 0.500000 0.500000 1.0
0.807777 -1.353450 2.343735 0.500000 0.500000 0.500000 1.0
5.310483 -0.873481 3.841521 0.500000 0.500000 0.500000 1.0
5.310483 0.873481 3.841521 0.500000 0.500000 0.500000 1.0
3.581174 0.618790 2.860470 1.0 1.0 0.0 1.0
-3.579032 0.659059 3.137518 1.0 1.0 0.0 1.0
1.886998 -0.000000 2.813677 0.500000 0.500000 0.500000 1.0
1.216561 0.948716 2.102162 0.500000 0.500000 0.500000 1.0
1.216561 -0.948716 2.102162 0.500000 0.500000 0.500000 1.0
0.031957 1.370354 2.287345 0.500000 0.500000 0.500000 1.0
0.031957 -1.370354 2.287345 0.500000 0.500000 0.500000 1.0
-3.579032 -0.659059 3.137518 1.0 1.0 0.0 1.0
0.036670 0.000000 1.038258 1.0 1.0 0.0 1.0
1.410782 0.000000 1.983486 0.500000 0.500000 0.500000 1.0
-5.140125 0.809497 3.859782 0.500000 0.500000 0.500000 1.0
-5.140125 -0.809497 3.859782 0.500000 0.500000 0.500000 1.0
4.482440 -1.014285 3.919111 0.500000 0.500000 0.500000 1.0
4.482440 1.014285 3.919111 0.500000 0.500000 0.500000 1.0
-2.171654 0.000000 3.485714 0.500000 0.500000 0.500000 1.0
2.164380 0.000000 3.555025 0.500000 0.500000 0.500000 1.0
2.163998 -1.122228 3.689271 0.500000 0.500000 0.500000 1.0
1.431640 1.305508 2.972148 0.500000 0.500000 0.500000 1.0
6.353917 -0.824585 4.209400 0.500000 0.500000 0.500000 1.0
6.353917 0.824585 4.209400 0.500000 0.500000 0.500000 1.0
1.431640 -1.305508 2.972148 0.500000 0.500000 0.500000 1.0
-1.035704 1.477353 3.571740 0.500000 0.500000 0.500000 1.0
-0.321825 -0.952298 1.909036 0.500000 0.500000 0.500000 1.0
-0.321825 0.952298 1.909036 0.500000 0.500000 0.500000 1.0
-4.297424 0.898828 3.930567 0.500000 0.500000 0.500000 1.0
-4.297424 -0.898828 3.930567 0.500000 0.500000 0.500000 1.0
0.458470 0.711444 1.677939 0.500000 0.500000 0.500000 1.0
0.458470 -0.711444 1.677939 0.500000 0.500000 0.500000 1.0
4.451166 -0.743778 3.348768 0.500000 0.500000 0.500000 1.0
4.451166 0.743778 3.348768 0.500000 0.500000 0.500000 1.0
3 0 1 58
3 0 58 1
3 0 58 57
3 0 57 58
3 1 58 25
3 1 25 58
3 2 28 35
3 2 35 28
3 2 31 6
3 2 6 31
3 2 35 31
3 2 31 35
3 3 4 66
3 3 66 4
3 3 26 65
3 3 65 26
3 3 66 65
3 3 65 66
3 6 10 63
3 6 63 10
3 7 5 32
3 7 32 5
3 7 37 32
3 7 32 37
3 8 68 5
3 8 5 68
3 8 68 33
3 8 33 68
3 9 2 28
3 9 28 2
3 9 28 34
3 9 34 28
3 9 34 13
3 9 13 34
3 11 37 7
3 11 7 37
3 12 8 33
3 12 33 8
3 13 17 34
3 13 34 17
3 14 18 38
3 14 38 18
3 14 38 63
3 14 63 38
3 14 63 10
3 14 10 63
3 15 11 37
3 15 37 11
3 16 12 33
3 16 33 12
3 16 48 20
3 16 20 48
3 17 54 34
3 17 34 54
3 18 38 59
3 18 59 38
3 19 23 60
3 19 60 23
3 19 47 15
3 19 15 47
3 19 60 47
3 19 47 60
3 21 72 54
3 21 54 72
3 22 45 26
3 22 26 45
3 22 45 59
3 22 59 45
3 23 27 46
3 23 46 27
3 23 46 60
3 23 60 46
3 24 57 0
3 24 0 57
3 25 58 72
3 25 72 58
3 26 45 65
3 26 65 45
3 27 46 66
3 27 66 46
3 28 34 39
3 28 39 34
3 28 39 35
3 28 35 39
3 29 33 40
3 29 40 33
3 29 40 70
3 29 70 40
3 29 41 30
3 29 30 41
3 29 42 41
3 29 41 42
3 29 61 33
3 29 33 61
3 30 34 61
3 30 61 34
3 30 61 29
3 30 29 61
3 30 69 39
3 30 39 69
3 31 35 44
3 31 44 35
3 31 44 67
3 31 67 44
3 31 63 6
3 31 6 63
3 31 67 63
3 31 63 67
3 32 36 5
3 32 5 36
3 32 36 43
3 32 43 36
3 32 43 64
3 32 64 43
3 33 48 16
3 33 16 48
3 33 61 48
3 33 48 61
3 34 30 39
3 34 39 30
3 35 53 39
3 35 39 53
3 35 53 44
3 35 44 53
3 36 52 40
3 36 40 52
3 37 47 15
3 37 15 47
3 37 62 47
3 37 47 62
3 37 64 32
3 37 32 64
3 38 45 75
3 38 75 45
3 38 47 62
3 38 62 47
3 38 47 76
3 38 76 47
3 38 59 45
3 38 45 59
3 38 76 75
3 38 75 76
3 40 36 68
3 40 68 36
3 41 55 69
3 41 69 55
3 41 69 30
3 41 30 69
3 42 55 41
3 42 41 55
3 42 70 29
3 42 29 70
3 46 45 65
3 46 65 45
3 46 47 76
3 46 76 47
3 46 60 47
3 46 47 60
3 46 65 66
3 46 66 65
3 46 75 45
3 46 45 75
3 46 76 75
3 46 75 76
3 49 51 67
3 49 67 51
3 49 62 37
3 49 37 62
3 49 64 37
3 49 37 64
3 50 55 56
3 50 56 55
3 50 64 43
3 50 43 64
3 50 73 43
3 50 43 73
3 50 73 55
3 50 55 73
3 51 44 67
3 51 67 44
3 51 55 56
3 51 56 55
3 51 74 44
3 51 44 74
3 51 74 55
3 51 55 74
3 52 36 43
3 52 43 36
3 52 43 73
3 52 73 43
3 52 55 70
3 52 70 55
3 52 70 40
3 52 40 70
3 52 73 55
3 52 55 73
3 53 55 69
3 53 69 55
3 53 55 74
3 53 74 55
3 53 69 39
3 53 39 69
3 54 17 21
3 54 21 17
3 54 48 61
3 54 61 48
3 54 57 48
3 54 48 57
3 54 58 57
3 54 57 58
3 54 61 34
3 54 34 61
3 56 49 50
3 56 50 49
3 56 51 49
3 56 49 51
3 57 48 71
3 57 71 48
3 57 71 24
3 57 24 71
3 59 18 22
3 59 22 18
3 62 38 63
3 62 63 38
3 62 63 49
3 62 49 63
3 64 49 50
3 64 50 49
3 66 27 4
3 66 4 27
3 67 63 49
3 67 49 63
3 68 5 36
3 68 36 5
3 68 40 33
3 68 33 40
3 70 42 55
3 70 55 42
3 71 20 24
3 71 24 20
3 71 20 48
3 71 48 20
3 72 25 21
3 72 21 25
3 72 54 58
3 72 58 54
3 74 44 53
3 74 53 44
