 COFF
          85         772          85
  
  -6.3622867071029416       0.89298788840427468        4.9954317490198692       0.60000002384185791       0.60000002384185791       0.60000002384185791       0.80000001192092896     
  -6.3622867071029408      -0.89298788840427468        4.9954317490198692       0.60000002384185791       0.60000002384185791       0.60000002384185791       0.80000001192092896     
  -2.9038403816498904E-002  -1.9295052519213445        4.6622949522288284       0.60000002384185791       0.60000002384185791       0.60000002384185791       0.80000001192092896     
   7.2667126496718089      -0.86285456718518494        5.0512435515302680       0.60000002384185791       0.60000002384185791       0.60000002384185791       0.80000001192092896     
   7.2667126496718089       0.86285456718518505        5.0512435515302680       0.60000002384185791       0.60000002384185791       0.60000002384185791       0.80000001192092896     
  -2.9038403816498862E-002   1.9295052519213451        4.6622949522288275       0.60000002384185791       0.60000002384185791       0.60000002384185791       0.80000001192092896     
   1.0750883781386811       -1.6083078814674563        4.8076570734172188       0.60000002384185791       0.60000002384185791       0.60000002384185791       0.80000001192092896     
   1.0750883781386800        1.6083078814674521        4.8076570734172250       0.60000002384185791       0.60000002384185791       0.60000002384185791       0.80000001192092896     
  -1.1063425215266758        1.5873708775802984        4.7823535219696502       0.60000002384185791       0.60000002384185791       0.60000002384185791       0.80000001192092896     
  -1.1063425215266767       -1.5873708775802977        4.7823535219696511       0.60000002384185791       0.60000002384185791       0.60000002384185791       0.80000001192092896     
   1.9950010313323601       -1.2943014555890651        5.0434072993238068       0.60000002384185791       0.60000002384185791       0.60000002384185791       0.80000001192092896     
   1.9950010313323592        1.2943014555890588        5.0434072993238130       0.60000002384185791       0.60000002384185791       0.60000002384185791       0.80000001192092896     
  -2.0294467411508172        1.2926462822081759        5.0291619914526748       0.60000002384185791       0.60000002384185791       0.60000002384185791       0.80000001192092896     
  -2.0294467411508186       -1.2926462822081759        5.0291619914526748       0.60000002384185791       0.60000002384185791       0.60000002384185791       0.80000001192092896     
   3.0592471124101417       -1.3257631051580079        4.9234219977754030       0.60000002384185791       0.60000002384185791       0.60000002384185791       0.80000001192092896     
   3.0592471124101426        1.3257631051580034        4.9234219977754039       0.60000002384185791       0.60000002384185791       0.60000002384185791       0.80000001192092896     
  -3.0213439826327990        1.2899050386651245        4.9050910533954859       0.60000002384185791       0.60000002384185791       0.60000002384185791       0.80000001192092896     
  -3.0213439826328004       -1.2899050386651245        4.9050910533954859       0.60000002384185791       0.60000002384185791       0.60000002384185791       0.80000001192092896     
   4.0727579976338530       -1.2810662641971906        4.9790477911950912       0.60000002384185791       0.60000002384185791       0.60000002384185791       0.80000001192092896     
   4.0727579976338530        1.2810662641971919        4.9790477911950903       0.60000002384185791       0.60000002384185791       0.60000002384185791       0.80000001192092896     
  -4.0196441136127632        1.2278998213671362        4.9484212241073804       0.60000002384185791       0.60000002384185791       0.60000002384185791       0.80000001192092896     
  -4.0196441136127641       -1.2278998213671357        4.9484212241073795       0.60000002384185791       0.60000002384185791       0.60000002384185791       0.80000001192092896     
   5.0563128489181226       -1.1067993112839967        5.0019351960524991       0.60000002384185791       0.60000002384185791       0.60000002384185791       0.80000001192092896     
   5.0563128489181235        1.1067993112839973        5.0019351960524991       0.60000002384185791       0.60000002384185791       0.60000002384185791       0.80000001192092896     
  -5.0134350309151392        1.0845149792296891        4.9659074098548119       0.60000002384185791       0.60000002384185791       0.60000002384185791       0.80000001192092896     
  -5.0134350309151392       -1.0845149792296891        4.9659074098548110       0.60000002384185791       0.60000002384185791       0.60000002384185791       0.80000001192092896     
   6.0600195556514809      -0.99606323468404556        5.0256844156206695       0.60000002384185791       0.60000002384185791       0.60000002384185791       0.80000001192092896     
   6.0600195556514818       0.99606323468404556        5.0256844156206695       0.60000002384185791       0.60000002384185791       0.60000002384185791       0.80000001192092896     
  -1.0190293625009252       -1.5495584359704353        3.8798131813705874       0.60000002384185791       0.60000002384185791       0.60000002384185791       0.80000001192092896     
  -1.7945338530374944       0.76796102858745252        2.8363801171019407       0.60000002384185791       0.60000002384185791       0.60000002384185791       0.80000001192092896     
  -1.7945338530376065      -0.76796102858730964        2.8363801171019136       0.60000002384185791       0.60000002384185791       0.60000002384185791       0.80000001192092896     
  0.93497190833997224       -1.5497884185366335        3.6455414537591051       0.60000002384185791       0.60000002384185791       0.60000002384185791       0.80000001192092896     
  0.93497190837107547        1.5497884185264033        3.6455414537680029       0.60000002384185791       0.60000002384185791       0.60000002384185791       0.80000001192092896     
  -2.1619333655197259        1.2240077135726470        3.9027734149733102       0.60000002384185791       0.60000002384185791       0.60000002384185791       0.80000001192092896     
  -2.1619333655197361       -1.2240077135726386        3.9027734149733107       0.60000002384185791       0.60000002384185791       0.60000002384185791       0.80000001192092896     
   2.7582432640713979E-002  -1.6617627576230685        3.4823460850265691       0.60000002384185791       0.60000002384185791       0.60000002384185791       0.80000001192092896     
   2.7582432641215345E-002   1.6617627576250023        3.4823460850265744       0.60000002384185791       0.60000002384185791       0.60000002384185791       0.80000001192092896     
   2.1473367995375257        1.2096952546548307        3.9873269971077065       0.60000002384185791       0.60000002384185791       0.60000002384185791       0.80000001192092896     
   3.5633809744156313      -0.61881928400716513        2.8604699335027806        1.0000000000000000        1.0000000000000000        0.0000000000000000        1.0000000000000000     
 -0.70062430101410844       -1.5160672794927506        3.0116059822009698       0.60000002384185791       0.60000002384185791       0.60000002384185791       0.80000001192092896     
 -0.70062430101421580        1.5160672794932439        3.0116059822009342       0.60000002384185791       0.60000002384185791       0.60000002384185791       0.80000001192092896     
  -1.4363469627811092      -0.70353435366598682        1.6978677308524486       0.60000002384185791       0.60000002384185791       0.60000002384185791       0.80000001192092896     
  -1.4363469627814249       0.70353435366370953        1.6978677308522911       0.60000002384185791       0.60000002384185791       0.60000002384185791       0.80000001192092896     
  0.85219452050822075        1.4885408199502390        2.6187127744545911       0.60000002384185791       0.60000002384185791       0.60000002384185791       0.80000001192092896     
  0.85219452049288180       -1.4885408199525807        2.6187127744451790       0.60000002384185791       0.60000002384185791       0.60000002384185791       0.80000001192092896     
   5.4177609038823871      -0.97735906611289303        4.1697107736135726       0.60000002384185791       0.60000002384185791       0.60000002384185791       0.80000001192092896     
   5.4177609038823880       0.97735906611289325        4.1697107736135726       0.60000002384185791       0.60000002384185791       0.60000002384185791       0.80000001192092896     
   3.5633809744156211       0.61881928400673347        2.8604699335027806        1.0000000000000000        1.0000000000000000        0.0000000000000000        1.0000000000000000     
  -3.5633825325769015       0.65936777698509097        3.1375182682895115        1.0000000000000000        1.0000000000000000        0.0000000000000000        1.0000000000000000     
   1.9102676772095528        9.2342785805360736E-008   3.0944796602435152       0.60000002384185791       0.60000002384185791       0.60000002384185791       0.80000001192092896     
   1.2635763326859517        1.0719745532806377        2.3609103567981822       0.60000002384185791       0.60000002384185791       0.60000002384185791       0.80000001192092896     
   1.2635763332423526       -1.0719745692603924        2.3609103543007133       0.60000002384185791       0.60000002384185791       0.60000002384185791       0.80000001192092896     
   8.5182383841983692E-002   1.5055121820658501        2.5317456659162310       0.60000002384185791       0.60000002384185791       0.60000002384185791       0.80000001192092896     
   8.5182383837447195E-002  -1.5055121820653075        2.5317456659155955       0.60000002384185791       0.60000002384185791       0.60000002384185791       0.80000001192092896     
  -3.5633825325769020      -0.65936777698508986        3.1375182682895115        1.0000000000000000        1.0000000000000000        0.0000000000000000        1.0000000000000000     
   5.2102253920044805E-002  -7.2327440664440044E-009   1.0382578837327854        1.0000000000000000        1.0000000000000000        0.0000000000000000        1.0000000000000000     
   1.4995526939593742        1.0602577869226895E-006   2.2240670551184634       0.60000002384185791       0.60000002384185791       0.60000002384185791       0.80000001192092896     
  -5.1397032487705214       0.91627589542033472        4.1258441328581563       0.60000002384185791       0.60000002384185791       0.60000002384185791       0.80000001192092896     
  -5.1397032487705205      -0.91627589542033461        4.1258441328581563       0.60000002384185791       0.60000002384185791       0.60000002384185791       0.80000001192092896     
   4.5559171606882094       -1.1954909609809952        4.3388299379219832       0.60000002384185791       0.60000002384185791       0.60000002384185791       0.80000001192092896     
   4.5559171606882094        1.1954909609809949        4.3388299379219823       0.60000002384185791       0.60000002384185791       0.60000002384185791       0.80000001192092896     
  -2.1618832475264833        4.9945986616963955E-015   3.6714129737904382       0.60000002384185791       0.60000002384185791       0.60000002384185791       0.80000001192092896     
   2.1474478292718922       -2.0534006300624033E-010   3.7335910767513503       0.60000002384185791       0.60000002384185791       0.60000002384185791       0.80000001192092896     
   2.1473367995730666       -1.2096952550782436        3.9873269971161758       0.60000002384185791       0.60000002384185791       0.60000002384185791       0.80000001192092896     
   1.4218010183153147        1.3834047714546338        3.2894613183884882       0.60000002384185791       0.60000002384185791       0.60000002384185791       0.80000001192092896     
   6.4772764305386632      -0.88065236638895383        4.5490809503614900       0.60000002384185791       0.60000002384185791       0.60000002384185791       0.80000001192092896     
   6.4772764305386641       0.88065236638895383        4.5490809503614900       0.60000002384185791       0.60000002384185791       0.60000002384185791       0.80000001192092896     
   1.4218010183189185       -1.3834047718814857        3.2894613184015813       0.60000002384185791       0.60000002384185791       0.60000002384185791       0.80000001192092896     
  -1.0190293625009212        1.5495584359704655        3.8798131813705883       0.60000002384185791       0.60000002384185791       0.60000002384185791       0.80000001192092896     
 -0.42338530664787472       -1.2484027277375320        2.2133549824426826       0.60000002384185791       0.60000002384185791       0.60000002384185791       0.80000001192092896     
 -0.42338530665337681        1.2484027277414782        2.2133549824403698       0.60000002384185791       0.60000002384185791       0.60000002384185791       0.80000001192092896     
  -4.3071449898599958        1.0704855207588084        4.2062671632438819       0.60000002384185791       0.60000002384185791       0.60000002384185791       0.80000001192092896     
  -4.3071449898599949       -1.0704855207588078        4.2062671632438811       0.60000002384185791       0.60000002384185791       0.60000002384185791       0.80000001192092896     
  0.64262569917118384        1.0236353634645501        1.8013407398859642       0.60000002384185791       0.60000002384185791       0.60000002384185791       0.80000001192092896     
  0.64262567705512030       -1.0236353838280619        1.8013407300322823       0.60000002384185791       0.60000002384185791       0.60000002384185791       0.80000001192092896     
   4.9251150315398240      -0.76852960130954429        3.3624423918422788       0.60000002384185791       0.60000002384185791       0.60000002384185791       0.80000001192092896     
   4.9251150315398240       0.76852960130954451        3.3624423918422788       0.60000002384185791       0.60000002384185791       0.60000002384185791       0.80000001192092896     
   3.9006391766605208       -1.1096082894636368        4.0122342133106565       0.60000002384185791       0.60000002384185791       0.60000002384185791       0.80000001192092896     
   3.9006391766605226        1.1096082894636357        4.0122342133106557       0.60000002384185791       0.60000002384185791       0.60000002384185791       0.80000001192092896     
   3.3014851728155525       -1.0961799039402003        3.8861247344220571       0.60000002384185791       0.60000002384185791       0.60000002384185791       0.80000001192092896     
   3.3014851728207555        1.0961799039374844        3.8861247344220637       0.60000002384185791       0.60000002384185791       0.60000002384185791       0.80000001192092896     
   9.8691213945949138E-003  0.92248286627441667        1.7572461640501393       0.60000002384185791       0.60000002384185791       0.60000002384185791       0.80000001192092896     
   9.8691209654195346E-003 -0.92248286641557897        1.7572461640990105       0.60000002384185791       0.60000002384185791       0.60000002384185791       0.80000001192092896     
  0.82880969408835681       0.58657590400465542        1.6679649288194884       0.60000002384185791       0.60000002384185791       0.60000002384185791       0.80000001192092896     
  0.82880968955351342      -0.58657596186481975        1.6679648948129147       0.60000002384185791       0.60000002384185791       0.60000002384185791       0.80000001192092896     
  
   3   0  24  57
   3   0  57  24
   4   0  57  58   1
   3   1  58  25
   4   1  58  57   0
   3   1  25  58
   3   2  35  28
   3   2  35  31
   3   2  31  35
   3   2  31   6
   3   2   6  31
   3   2   9  28
   3   2  28  35
   3   2  28   9
   3   3  26  65
   3   3  65  26
   4   3  65  66   4
   3   4  66  27
   4   4  66  65   3
   3   4  27  66
   3   5   7  32
   3   5  32  36
   3   5  32   7
   3   5  36  32
   3   5  36  68
   3   5  68  36
   3   5  68   8
   3   5   8  68
   3   6   2  31
   3   6  31   2
   3   6  31  63
   3   6  63  10
   3   6  63  31
   3   6  10  63
   3   7  11  37
   3   7  37  32
   3   7  37  11
   3   7  32  37
   3   7  32   5
   3   7   5  32
   3   8   5  68
   3   8  68   5
   3   8  68  33
   3   8  33  12
   3   8  33  68
   3   8  12  33
   3   9  13  34
   3   9  34  28
   3   9  34  13
   3   9  28  34
   3   9  28   2
   3   9   2  28
   3  10   6  63
   3  10  63  14
   3  10  63   6
   3  10  14  63
   3  11  15  37
   3  11  37   7
   3  11  37  15
   3  11   7  37
   3  12   8  33
   3  12  33  16
   3  12  33   8
   3  12  16  33
   3  13  17  34
   3  13  34   9
   3  13  34  17
   3  13   9  34
   3  14  10  63
   3  14  63  79
   3  14  63  10
   3  14  79  63
   3  14  79  77
   3  14  77  79
   3  14  77  18
   3  14  18  77
   3  15  19  78
   3  15  78  80
   3  15  78  19
   3  15  80  78
   3  15  80  37
   3  15  37  11
   3  15  37  80
   3  15  11  37
   3  16  12  33
   3  16  33  48
   3  16  33  12
   3  16  48  20
   3  16  48  33
   3  16  20  48
   3  17  21  54
   3  17  54  34
   3  17  54  21
   3  17  34  54
   3  17  34  13
   3  17  13  34
   3  18  14  77
   3  18  77  14
   3  18  77  59
   3  18  59  77
   3  18  59  22
   3  18  22  59
   3  19  23  60
   3  19  60  78
   3  19  60  23
   3  19  78  60
   3  19  78  15
   3  19  15  78
   3  20  16  48
   3  20  48  71
   3  20  48  16
   3  20  71  48
   3  20  71  24
   3  20  24  71
   4  20  24  57  48
   3  21  25  72
   4  21  25  58  54
   3  21  72  54
   3  21  72  25
   3  21  54  17
   3  21  54  72
   3  21  17  54
   3  22  18  59
   3  22  59  18
   3  22  59  45
   3  22  45  26
   3  22  45  59
   3  22  26  45
   3  23  27  46
   3  23  46  60
   3  23  46  27
   3  23  60  46
   3  23  60  19
   3  23  19  60
   3  24  20  71
   4  24  20  48  57
   3  24  71  20
   3  24  71  57
   3  24  57   0
   3  24  57  71
   3  24   0  57
   3  25   1  58
   3  25  58   1
   3  25  58  72
   3  25  72  58
   3  25  72  21
   3  25  21  72
   4  25  21  54  58
   3  26  22  45
   3  26  45  65
   3  26  45  22
   3  26  65   3
   3  26  65  45
   3  26   3  65
   3  27   4  66
   3  27  66   4
   3  27  66  46
   3  27  46  66
   3  27  46  23
   3  27  23  46
   3  28  34  39
   3  28  34   9
   3  28  39  35
   3  28  39  34
   3  28  35  39
   3  28  35   2
   3  28   2  35
   3  28   2   9
   3  28   9  34
   3  28   9   2
   3  29  33  40
   3  29  33  61
   3  29  40  33
   3  29  40  70
   3  29  70  42
   3  29  70  40
   3  29  42  70
   4  29  42  41  30
   3  29  30  61
   4  29  30  41  42
   3  29  61  30
   3  29  61  33
   3  30  34  61
   3  30  34  39
   3  30  61  29
   3  30  61  34
   3  30  29  61
   4  30  29  42  41
   3  30  41  69
   4  30  41  42  29
   3  30  69  41
   3  30  69  39
   3  30  39  34
   3  30  39  69
   3  31   2  35
   3  31   2   6
   3  31  35  44
   3  31  35   2
   3  31  44  67
   3  31  44  35
   3  31  67  63
   3  31  67  44
   3  31  63   6
   3  31  63  67
   3  31   6   2
   3  31   6  63
   3  32  37  64
   3  32  37   7
   3  32  64  37
   3  32  64  43
   3  32  43  36
   3  32  43  64
   3  32  36  43
   3  32  36   5
   3  32   5   7
   3  32   5  36
   3  32   7  37
   3  32   7   5
   3  33  48  16
   3  33  48  61
   3  33  16  12
   3  33  16  48
   3  33  12   8
   3  33  12  16
   3  33   8  68
   3  33   8  12
   3  33  68  40
   3  33  68   8
   3  33  40  29
   3  33  40  68
   3  33  29  40
   3  33  29  61
   3  33  61  29
   3  33  61  48
   3  34  54  61
   3  34  54  17
   3  34  61  30
   3  34  61  54
   3  34  30  61
   3  34  30  39
   3  34  39  28
   3  34  39  30
   3  34  28  39
   3  34  28   9
   3  34   9  13
   3  34   9  28
   3  34  13  17
   3  34  13   9
   3  34  17  54
   3  34  17  13
   3  35  28  39
   3  35  28   2
   3  35  39  28
   3  35  39  53
   3  35  53  44
   3  35  53  39
   3  35  44  31
   3  35  44  53
   3  35  31   2
   3  35  31  44
   3  35   2  31
   3  35   2  28
   3  36  32  43
   3  36  32   5
   3  36  43  32
   3  36  43  52
   3  36  52  40
   3  36  52  43
   3  36  40  68
   3  36  40  52
   3  36  68   5
   3  36  68  40
   3  36   5  32
   3  36   5  68
   3  37  47  62
   3  37  47  80
   3  37  62  49
   3  37  62  47
   3  37  49  62
   3  37  49  64
   3  37  64  49
   3  37  64  32
   3  37  32  64
   3  37  32   7
   3  37   7  11
   3  37   7  32
   3  37  11  15
   3  37  11   7
   3  37  15  80
   3  37  15  11
   3  37  80  47
   3  37  80  15
   3  38  59  77
   4  38  59  45  75
   3  38  77  79
   3  38  77  59
   3  38  79  63
   3  38  79  77
   3  38  63  79
   3  38  63  62
   3  38  62  47
   3  38  62  63
   3  38  47  62
   4  38  47  76  75
   3  39  35  28
   3  39  35  53
   3  39  28  34
   3  39  28  35
   3  39  34  30
   3  39  34  28
   3  39  30  34
   3  39  30  69
   3  39  69  30
   3  39  69  53
   3  39  53  35
   3  39  53  69
   3  40  29  33
   3  40  29  70
   3  40  33  68
   3  40  33  29
   3  40  68  36
   3  40  68  33
   3  40  36  52
   3  40  36  68
   3  40  52  36
   3  40  52  70
   3  40  70  52
   3  40  70  29
   3  41  55  69
   3  41  55  42
   3  41  69  30
   3  41  69  55
   3  41  30  69
   4  41  30  29  42
   3  41  42  55
   4  41  42  29  30
   3  42  55  41
   3  42  55  70
   3  42  41  55
   4  42  41  30  29
   3  42  29  70
   4  42  29  30  41
   3  42  70  55
   3  42  70  29
   3  43  36  32
   3  43  36  52
   3  43  32  64
   3  43  32  36
   3  43  64  50
   3  43  64  32
   3  43  50  64
   3  43  50  73
   3  43  73  50
   3  43  73  52
   3  43  52  36
   3  43  52  73
   3  44  67  51
   3  44  67  31
   3  44  31  35
   3  44  31  67
   3  44  35  53
   3  44  35  31
   3  44  53  35
   3  44  53  74
   3  44  74  53
   3  44  74  51
   3  44  51  67
   3  44  51  74
   3  45  65  26
   4  45  65  66  46
   3  45  26  22
   3  45  26  65
   3  45  22  59
   3  45  22  26
   3  45  59  22
   4  45  59  38  75
   3  46  66  27
   4  46  66  65  45
   3  46  60  23
   4  46  60  47  76
   3  46  23  27
   3  46  23  60
   3  46  27  66
   3  46  27  23
   3  47  38  62
   4  47  38  75  76
   3  47  62  37
   3  47  62  38
   3  47  37  62
   3  47  37  80
   3  47  80  78
   3  47  80  37
   3  47  78  60
   3  47  78  80
   3  47  60  78
   4  47  60  46  76
   3  48  57  71
   4  48  57  24  20
   3  48  71  20
   3  48  71  57
   3  48  20  16
   3  48  20  71
   3  48  16  33
   3  48  16  20
   3  48  33  16
   3  48  33  61
   3  48  61  54
   3  48  61  33
   3  48  54  61
   4  48  54  58  57
   3  49  37  62
   3  49  37  64
   3  49  62  37
   3  49  62  63
   3  49  63  67
   3  49  63  62
   3  49  67  51
   3  49  67  63
   3  49  51  67
   3  49  51  56
   3  49  56  51
   3  49  56  50
   3  49  50  64
   3  49  50  56
   3  49  64  37
   3  49  64  50
   3  50  43  64
   3  50  43  73
   3  50  64  49
   3  50  64  43
   3  50  49  56
   3  50  49  64
   3  50  56  83
   3  50  56  49
   3  50  83  56
   3  50  83  73
   3  50  73  83
   3  50  73  43
   3  51  49  67
   3  51  49  56
   3  51  67  49
   3  51  67  44
   3  51  44  67
   3  51  44  74
   3  51  74  84
   3  51  74  44
   3  51  84  74
   3  51  84  56
   3  51  56  84
   3  51  56  49
   3  52  40  36
   3  52  40  70
   3  52  36  43
   3  52  36  40
   3  52  43  36
   3  52  43  73
   3  52  73  81
   3  52  73  43
   3  52  81  73
   3  52  81  70
   3  52  70  81
   3  52  70  40
   3  53  44  35
   3  53  44  74
   3  53  35  39
   3  53  35  44
   3  53  39  35
   3  53  39  69
   3  53  69  82
   3  53  69  39
   3  53  82  69
   3  53  82  74
   3  53  74  82
   3  53  74  44
   3  54  58  72
   4  54  58  57  48
   3  54  48  61
   4  54  48  57  58
   3  54  61  34
   3  54  61  48
   3  54  34  61
   3  54  34  17
   3  54  17  21
   3  54  17  34
   3  54  21  72
   3  54  21  17
   3  54  72  58
   3  54  72  21
   3  55  81  73
   3  55  81  70
   3  55  73  83
   3  55  73  81
   3  55  83  56
   3  55  83  73
   3  55  56  84
   3  55  56  83
   3  55  84  74
   3  55  84  56
   3  55  74  82
   3  55  74  84
   3  55  82  69
   3  55  82  74
   3  55  69  41
   3  55  69  82
   3  55  41  69
   3  55  41  42
   3  55  42  41
   3  55  42  70
   3  55  70  81
   3  55  70  42
   3  56  51  49
   3  56  51  84
   3  56  84  55
   3  56  84  51
   3  56  55  83
   3  56  55  84
   3  56  83  55
   3  56  83  50
   3  56  50  49
   3  56  50  83
   3  56  49  51
   3  56  49  50
   3  57   0  24
   4  57   0   1  58
   3  57  24  71
   3  57  24   0
   3  57  71  48
   3  57  71  24
   3  57  48  71
   4  57  48  20  24
   3  58   1  25
   4  58   1   0  57
   3  58  54  72
   4  58  54  48  57
   3  58  72  54
   3  58  72  25
   3  58  25   1
   3  58  25  72
   3  59  18  77
   3  59  18  22
   3  59  77  38
   3  59  77  18
   3  59  38  77
   4  59  38  75  45
   3  59  45  22
   4  59  45  75  38
   3  59  22  18
   3  59  22  45
   3  60  46  23
   4  60  46  76  47
   3  60  47  78
   4  60  47  76  46
   3  60  78  47
   3  60  78  19
   3  60  19  23
   3  60  19  78
   3  60  23  46
   3  60  23  19
   3  61  29  33
   3  61  29  30
   3  61  30  34
   3  61  30  29
   3  61  34  54
   3  61  34  30
   3  61  54  48
   3  61  54  34
   3  61  48  33
   3  61  48  54
   3  61  33  48
   3  61  33  29
   3  62  49  37
   3  62  49  63
   3  62  37  47
   3  62  37  49
   3  62  47  38
   3  62  47  37
   3  62  38  63
   3  62  38  47
   3  62  63  38
   3  62  63  49
   3  63  38  79
   3  63  38  62
   3  63  79  38
   3  63  79  14
   3  63  14  10
   3  63  14  79
   3  63  10   6
   3  63  10  14
   3  63   6  31
   3  63   6  10
   3  63  31  67
   3  63  31   6
   3  63  67  49
   3  63  67  31
   3  63  49  62
   3  63  49  67
   3  63  62  49
   3  63  62  38
   3  64  37  49
   3  64  37  32
   3  64  49  37
   3  64  49  50
   3  64  50  43
   3  64  50  49
   3  64  43  32
   3  64  43  50
   3  64  32  37
   3  64  32  43
   3  65   3  26
   4  65   3   4  66
   3  65  26  45
   3  65  26   3
   3  65  45  26
   4  65  45  46  66
   3  66   4  27
   4  66   4   3  65
   3  66  46  27
   4  66  46  45  65
   3  66  27   4
   3  66  27  46
   3  67  51  49
   3  67  51  44
   3  67  49  63
   3  67  49  51
   3  67  63  31
   3  67  63  49
   3  67  31  44
   3  67  31  63
   3  67  44  31
   3  67  44  51
   3  68   5  36
   3  68   5   8
   3  68  36  40
   3  68  36   5
   3  68  40  33
   3  68  40  36
   3  68  33   8
   3  68  33  40
   3  68   8   5
   3  68   8  33
   3  69  30  41
   3  69  30  39
   3  69  41  55
   3  69  41  30
   3  69  55  82
   3  69  55  41
   3  69  82  55
   3  69  82  53
   3  69  53  39
   3  69  53  82
   3  69  39  30
   3  69  39  53
   3  70  52  40
   3  70  52  81
   3  70  81  55
   3  70  81  52
   3  70  55  81
   3  70  55  42
   3  70  42  55
   3  70  42  29
   3  70  29  40
   3  70  29  42
   3  70  40  29
   3  70  40  52
   3  71  20  48
   3  71  20  24
   3  71  48  57
   3  71  48  20
   3  71  57  24
   3  71  57  48
   3  71  24  20
   3  71  24  57
   3  72  58  54
   3  72  58  25
   3  72  54  58
   3  72  54  21
   3  72  21  25
   3  72  21  54
   3  72  25  58
   3  72  25  21
   3  73  50  43
   3  73  50  83
   3  73  83  55
   3  73  83  50
   3  73  55  81
   3  73  55  83
   3  73  81  55
   3  73  81  52
   3  73  52  43
   3  73  52  81
   3  73  43  50
   3  73  43  52
   3  74  53  44
   3  74  53  82
   3  74  82  55
   3  74  82  53
   3  74  55  84
   3  74  55  82
   3  74  84  55
   3  74  84  51
   3  74  51  44
   3  74  51  84
   3  74  44  53
   3  74  44  51
   3  77  14  79
   3  77  14  18
   3  77  79  38
   3  77  79  14
   3  77  38  59
   3  77  38  79
   3  77  59  18
   3  77  59  38
   3  77  18  14
   3  77  18  59
   3  78  60  47
   3  78  60  19
   3  78  47  80
   3  78  47  60
   3  78  80  47
   3  78  80  15
   3  78  15  19
   3  78  15  80
   3  78  19  60
   3  78  19  15
   3  79  63  38
   3  79  63  14
   3  79  38  77
   3  79  38  63
   3  79  77  14
   3  79  77  38
   3  79  14  63
   3  79  14  77
   3  80  78  47
   3  80  78  15
   3  80  47  37
   3  80  47  78
   3  80  37  47
   3  80  37  15
   3  80  15  78
   3  80  15  37
   3  81  73  55
   3  81  73  52
   3  81  55  73
   3  81  55  70
   3  81  70  52
   3  81  70  55
   3  81  52  73
   3  81  52  70
   3  82  69  55
   3  82  69  53
   3  82  55  74
   3  82  55  69
   3  82  74  53
   3  82  74  55
   3  82  53  69
   3  82  53  74
   3  83  56  55
   3  83  56  50
   3  83  55  73
   3  83  55  56
   3  83  73  50
   3  83  73  55
   3  83  50  56
   3  83  50  73
   3  84  74  55
   3  84  74  51
   3  84  55  56
   3  84  55  74
   3  84  56  51
   3  84  56  55
   3  84  51  74
   3  84  51  56
