# Generated by dad_to_polygons. Vertex data from Humppa's .off file,
# polygons parsed from .dad file.
COFF
99 336 99
-6.417368 0.940187 5.332388 0.500000 0.500000 0.500000 1.0
-6.417368 -0.940187 5.332388 0.500000 0.500000 0.500000 1.0
-0.029890 -1.997588 4.996572 0.500000 0.500000 0.500000 1.0
7.301350 -0.891390 5.420562 0.500000 0.500000 0.500000 1.0
7.301350 0.891390 5.420562 0.500000 0.500000 0.500000 1.0
-0.029890 1.997588 4.996572 0.500000 0.500000 0.500000 1.0
1.091388 -1.678541 5.138937 0.500000 0.500000 0.500000 1.0
1.091388 1.678541 5.138937 0.500000 0.500000 0.500000 1.0
-1.119683 1.657520 5.113778 0.500000 0.500000 0.500000 1.0
-1.119683 -1.657520 5.113778 0.500000 0.500000 0.500000 1.0
2.010771 -1.365925 5.378632 0.500000 0.500000 0.500000 1.0
2.010771 1.365925 5.378632 0.500000 0.500000 0.500000 1.0
-2.043404 1.366525 5.362637 0.500000 0.500000 0.500000 1.0
-2.043404 -1.366525 5.362637 0.500000 0.500000 0.500000 1.0
3.059431 -1.421751 5.232243 0.500000 0.500000 0.500000 1.0
3.059431 1.421751 5.232243 0.500000 0.500000 0.500000 1.0
-3.028897 1.400718 5.198818 0.500000 0.500000 0.500000 1.0
-3.028897 -1.400718 5.198818 0.500000 0.500000 0.500000 1.0
4.086266 -1.372367 5.300526 0.500000 0.500000 0.500000 1.0
4.086266 1.372367 5.300526 0.500000 0.500000 0.500000 1.0
-4.044328 1.341059 5.269284 0.500000 0.500000 0.500000 1.0
-4.044328 -1.341059 5.269284 0.500000 0.500000 0.500000 1.0
5.069751 -1.183262 5.332215 0.500000 0.500000 0.500000 1.0
5.069751 1.183262 5.332215 0.500000 0.500000 0.500000 1.0
-5.029557 1.169482 5.287202 0.500000 0.500000 0.500000 1.0
-5.029557 -1.169482 5.287202 0.500000 0.500000 0.500000 1.0
6.067061 -1.054180 5.376881 0.500000 0.500000 0.500000 1.0
6.067061 1.054180 5.376881 0.500000 0.500000 0.500000 1.0
-0.981380 -1.623144 4.176506 0.500000 0.500000 0.500000 1.0
-1.809929 0.816523 3.094629 0.500000 0.500000 0.500000 1.0
-1.809929 -0.816523 3.094629 0.500000 0.500000 0.500000 1.0
0.905873 -1.625635 3.921353 0.500000 0.500000 0.500000 1.0
0.905873 1.625635 3.921353 0.500000 0.500000 0.500000 1.0
-2.160989 1.301737 4.182055 0.500000 0.500000 0.500000 1.0
-2.160989 -1.301737 4.182054 0.500000 0.500000 0.500000 1.0
0.037558 -1.729222 3.770665 0.500000 0.500000 0.500000 1.0
0.037592 1.729193 3.770665 0.500000 0.500000 0.500000 1.0
2.098000 1.296471 4.336916 0.500000 0.500000 0.500000 1.0
3.560248 -0.618769 2.860470 1.0 1.0 0.0 1.0
-0.730822 -1.588243 3.296117 0.500000 0.500000 0.500000 1.0
-0.730822 1.588244 3.296117 0.500000 0.500000 0.500000 1.0
-1.401224 -0.810565 1.839041 0.500000 0.500000 0.500000 1.0
-1.401224 0.810565 1.839041 0.500000 0.500000 0.500000 1.0
0.840271 1.589873 2.914417 0.500000 0.500000 0.500000 1.0
0.840126 -1.589565 2.914417 0.500000 0.500000 0.500000 1.0
5.473831 -1.075688 4.490023 0.500000 0.500000 0.500000 1.0
5.473831 1.075688 4.490023 0.500000 0.500000 0.500000 1.0
3.560248 0.618769 2.860470 1.0 1.0 0.0 1.0
-3.549093 0.659334 3.137518 1.0 1.0 0.0 1.0
1.877716 -0.000000 3.365866 0.500000 0.500000 0.500000 1.0
1.260057 1.161500 2.645555 0.500000 0.500000 0.500000 1.0
1.260057 -1.161501 2.645554 0.500000 0.500000 0.500000 1.0
0.116811 1.616905 2.779198 0.500000 0.500000 0.500000 1.0
0.116810 -1.616905 2.779198 0.500000 0.500000 0.500000 1.0
-3.549093 -0.659334 3.137518 1.0 1.0 0.0 1.0
0.069073 -0.000000 1.038258 1.0 1.0 0.0 1.0
1.489875 0.000000 2.428476 0.500000 0.500000 0.500000 1.0
-5.177460 1.004678 4.391370 0.500000 0.500000 0.500000 1.0
-5.177460 -1.004678 4.391370 0.500000 0.500000 0.500000 1.0
4.566147 -1.280029 4.661871 0.500000 0.500000 0.500000 1.0
4.566147 1.280029 4.661871 0.500000 0.500000 0.500000 1.0
-2.169622 -0.000000 3.847577 0.500000 0.500000 0.500000 1.0
2.097719 -0.000000 3.927213 0.500000 0.500000 0.500000 1.0
2.098000 -1.296471 4.336916 0.500000 0.500000 0.500000 1.0
1.384945 1.453684 3.601137 0.500000 0.500000 0.500000 1.0
6.547956 -0.935119 4.893951 0.500000 0.500000 0.500000 1.0
6.547956 0.935119 4.893951 0.500000 0.500000 0.500000 1.0
1.384945 -1.453684 3.601137 0.500000 0.500000 0.500000 1.0
-0.981379 1.623144 4.176506 0.500000 0.500000 0.500000 1.0
-0.501970 -1.416523 2.493713 0.500000 0.500000 0.500000 1.0
-0.501970 1.416523 2.493713 0.500000 0.500000 0.500000 1.0
-4.374050 1.230060 4.564466 0.500000 0.500000 0.500000 1.0
-4.374050 -1.230060 4.564466 0.500000 0.500000 0.500000 1.0
0.738829 1.253744 1.997806 0.500000 0.500000 0.500000 1.0
0.738828 -1.253745 1.997806 0.500000 0.500000 0.500000 1.0
5.109460 -0.743560 3.518002 0.500000 0.500000 0.500000 1.0
5.109460 0.743560 3.518002 0.500000 0.500000 0.500000 1.0
3.984201 -1.262198 4.265767 0.500000 0.500000 0.500000 1.0
3.984201 1.262198 4.265767 0.500000 0.500000 0.500000 1.0
3.237043 -1.266045 4.103051 0.500000 0.500000 0.500000 1.0
3.237043 1.266045 4.103051 0.500000 0.500000 0.500000 1.0
0.051512 1.228940 1.911646 0.500000 0.500000 0.500000 1.0
0.051512 -1.228940 1.911646 0.500000 0.500000 0.500000 1.0
1.055621 0.790375 1.834657 0.500000 0.500000 0.500000 1.0
1.055621 -0.790376 1.834657 0.500000 0.500000 0.500000 1.0
-3.864704 1.178890 4.303844 0.500000 0.500000 0.500000 1.0
-3.864704 -1.178890 4.303844 0.500000 0.500000 0.500000 1.0
-3.302040 1.140793 4.136239 0.500000 0.500000 0.500000 1.0
-3.302040 -1.140793 4.136239 0.500000 0.500000 0.500000 1.0
5.701720 -0.000000 4.317761 0.500000 0.500000 0.500000 1.0
2.696498 0.950595 3.601466 0.500000 0.500000 0.500000 1.0
2.696498 -0.950595 3.601466 0.500000 0.500000 0.500000 1.0
4.171424 -1.055392 3.782944 0.500000 0.500000 0.500000 1.0
4.171424 1.055392 3.782944 0.500000 0.500000 0.500000 1.0
-4.594008 0.809604 3.711800 0.500000 0.500000 0.500000 1.0
-4.594008 -0.809604 3.711800 0.500000 0.500000 0.500000 1.0
-0.239447 -0.808121 1.718547 0.500000 0.500000 0.500000 1.0
-0.239447 0.808121 1.718547 0.500000 0.500000 0.500000 1.0
-5.194327 -0.000000 4.385032 0.500000 0.500000 0.500000 1.0
3 0 98 57
3 0 57 98
3 1 58 25
3 1 25 58
3 1 98 58
3 1 58 98
3 2 9 28
3 2 28 9
3 2 28 35
3 2 35 28
3 2 31 6
3 2 6 31
3 2 35 31
3 2 31 35
3 3 4 66
3 3 66 4
3 3 65 26
3 3 26 65
3 3 66 65
3 3 65 66
3 5 7 32
3 5 32 7
3 5 32 36
3 5 36 32
3 5 36 68
3 5 68 36
3 6 31 63
3 6 63 31
3 7 11 37
3 7 37 11
3 7 37 32
3 7 32 37
3 8 68 5
3 8 5 68
3 8 68 33
3 8 33 68
3 12 8 33
3 12 33 8
3 12 33 16
3 12 16 33
3 13 34 9
3 13 9 34
3 14 18 77
3 14 77 18
3 14 79 77
3 14 77 79
3 15 11 37
3 15 37 11
3 15 37 80
3 15 80 37
3 16 20 85
3 16 85 20
3 16 85 87
3 16 87 85
3 16 87 33
3 16 33 87
3 17 13 34
3 17 34 13
3 17 34 88
3 17 88 34
3 17 86 21
3 17 21 86
3 18 22 59
3 18 59 22
3 18 77 59
3 18 59 77
3 19 15 78
3 19 78 15
3 20 85 71
3 20 71 85
3 23 19 60
3 23 60 19
3 23 46 60
3 23 60 46
3 24 20 71
3 24 71 20
3 24 57 0
3 24 0 57
3 25 58 72
3 25 72 58
3 25 72 21
3 25 21 72
3 26 22 45
3 26 45 22
3 27 4 66
3 27 66 4
3 27 46 23
3 27 23 46
3 27 66 46
3 27 46 66
3 28 34 9
3 28 9 34
3 28 39 34
3 28 34 39
3 29 33 40
3 29 40 33
3 29 40 70
3 29 70 40
3 29 41 30
3 29 30 41
3 29 42 41
3 29 41 42
3 30 39 34
3 30 34 39
3 30 41 69
3 30 69 41
3 31 44 35
3 31 35 44
3 31 63 67
3 31 67 63
3 31 67 44
3 31 44 67
3 32 36 43
3 32 43 36
3 32 37 64
3 32 64 37
3 32 64 43
3 32 43 64
3 33 48 87
3 33 87 48
3 33 61 29
3 33 29 61
3 33 68 40
3 33 40 68
3 34 54 61
3 34 61 54
3 34 61 30
3 34 30 61
3 34 88 54
3 34 54 88
3 36 43 52
3 36 52 43
3 36 52 40
3 36 40 52
3 37 62 49
3 37 49 62
3 37 62 90
3 37 90 62
3 37 80 90
3 37 90 80
3 38 75 76
3 38 76 75
3 38 76 47
3 38 47 76
3 39 35 28
3 39 28 35
3 39 53 69
3 39 69 53
3 39 69 30
3 39 30 69
3 40 68 36
3 40 36 68
3 40 70 52
3 40 52 70
3 41 69 96
3 41 96 69
3 41 96 55
3 41 55 96
3 42 55 41
3 42 41 55
3 42 97 55
3 42 55 97
3 43 50 73
3 43 73 50
3 43 73 52
3 43 52 73
3 44 51 67
3 44 67 51
3 44 53 35
3 44 35 53
3 44 53 74
3 44 74 53
3 45 65 89
3 45 89 65
3 45 75 92
3 45 92 75
3 46 89 76
3 46 76 89
3 46 93 60
3 46 60 93
3 46 93 76
3 46 76 93
3 47 38 62
3 47 62 38
3 47 62 90
3 47 90 62
3 47 78 93
3 47 93 78
3 47 80 78
3 47 78 80
3 47 90 80
3 47 80 90
3 47 93 76
3 47 76 93
3 48 33 61
3 48 61 33
3 48 54 61
3 48 61 54
3 48 54 95
3 48 95 54
3 48 85 87
3 48 87 85
3 48 95 94
3 48 94 95
3 49 50 64
3 49 64 50
3 49 51 56
3 49 56 51
3 49 67 51
3 49 51 67
3 50 43 64
3 50 64 43
3 50 56 49
3 50 49 56
3 50 73 83
3 50 83 73
3 50 83 56
3 50 56 83
3 51 74 44
3 51 44 74
3 52 70 81
3 52 81 70
3 52 73 81
3 52 81 73
3 53 35 39
3 53 39 35
3 54 58 72
3 54 72 58
3 54 95 58
3 54 58 95
3 55 73 81
3 55 81 73
3 55 81 97
3 55 97 81
3 55 82 74
3 55 74 82
3 55 84 56
3 55 56 84
3 56 51 84
3 56 84 51
3 56 83 55
3 56 55 83
3 59 22 45
3 59 45 22
3 59 45 92
3 59 92 45
3 60 78 19
3 60 19 78
3 60 93 78
3 60 78 93
3 61 30 29
3 61 29 30
3 62 49 63
3 62 63 49
3 62 63 91
3 62 91 63
3 63 6 10
3 63 10 6
3 63 14 10
3 63 10 14
3 63 67 49
3 63 49 67
3 63 79 14
3 63 14 79
3 63 91 79
3 63 79 91
3 64 37 49
3 64 49 37
3 65 45 26
3 65 26 45
3 65 89 66
3 65 66 89
3 69 82 53
3 69 53 82
3 69 96 82
3 69 82 96
3 70 29 42
3 70 42 29
3 70 97 42
3 70 42 97
3 71 48 94
3 71 94 48
3 71 57 24
3 71 24 57
3 71 94 57
3 71 57 94
3 72 54 86
3 72 86 54
3 72 86 21
3 72 21 86
3 74 82 53
3 74 53 82
3 74 84 55
3 74 55 84
3 76 75 89
3 76 89 75
3 77 38 79
3 77 79 38
3 77 59 92
3 77 92 59
3 78 80 15
3 78 15 80
3 81 70 97
3 81 97 70
3 83 73 55
3 83 55 73
3 84 51 74
3 84 74 51
3 85 71 48
3 85 48 71
3 86 17 88
3 86 88 17
3 88 54 86
3 88 86 54
3 89 45 75
3 89 75 45
3 89 66 46
3 89 46 66
3 91 38 62
3 91 62 38
3 91 38 79
3 91 79 38
3 92 38 75
3 92 75 38
3 92 77 38
3 92 38 77
3 94 57 98
3 94 98 57
3 95 58 98
3 95 98 58
3 96 55 82
3 96 82 55
3 98 0 1
3 98 1 0
3 98 94 95
3 98 95 94
