 COFF
         108        1050         108
  
  -6.4719328230772195       0.98598380294523713        5.6688326351451233       0.60000002384185791       0.60000002384185791       0.60000002384185791       0.80000001192092896     
  -6.4719328230800501      -0.98598380294725918        5.6688326351416425       0.60000002384185791       0.60000002384185791       0.60000002384185791       0.80000001192092896     
  -3.0704196250159858E-002  -2.0645414313068504        5.3302572299253468       0.60000002384185791       0.60000002384185791       0.60000002384185791       0.80000001192092896     
   7.3344516697007203      -0.91929232132223571        5.7883881101793149       0.60000002384185791       0.60000002384185791       0.60000002384185791       0.80000001192092896     
   7.3344516696983053       0.91929232132287020        5.7883881101766281       0.60000002384185791       0.60000002384185791       0.60000002384185791       0.80000001192092896     
  -3.0704196335000787E-002   2.0645414334388645        5.3302572277390530       0.60000002384185791       0.60000002384185791       0.60000002384185791       0.80000001192092896     
   1.1068112695500762       -1.7452967646364874        5.4720696031664158       0.60000002384185791       0.60000002384185791       0.60000002384185791       0.80000001192092896     
   1.1068112699130361        1.7452967660789047        5.4720696016275960       0.60000002384185791       0.60000002384185791       0.60000002384185791       0.80000001192092896     
  -1.1328208751261239        1.7272740862650979        5.4438495236168940       0.60000002384185791       0.60000002384185791       0.60000002384185791       0.80000001192092896     
  -1.1328208753056579       -1.7272740871651533        5.4438495226892787       0.60000002384185791       0.60000002384185791       0.60000002384185791       0.80000001192092896     
   2.0246198539882361       -1.4324074823884707        5.7174117002010005       0.60000002384185791       0.60000002384185791       0.60000002384185791       0.80000001192092896     
   2.0246198543219318        1.4324074838207401        5.7174116987262691       0.60000002384185791       0.60000002384185791       0.60000002384185791       0.80000001192092896     
  -2.0555094310312820        1.4372038671633092        5.6976807968509906       0.60000002384185791       0.60000002384185791       0.60000002384185791       0.80000001192092896     
  -2.0555094310677609       -1.4372038678266594        5.6976807961795055       0.60000002384185791       0.60000002384185791       0.60000002384185791       0.80000001192092896     
   3.0588795837972187       -1.5112554939612290        5.5451807509613431       0.60000002384185791       0.60000002384185791       0.60000002384185791       0.80000001192092896     
   3.0588795838273382        1.5112554953006470        5.5451807496084795       0.60000002384185791       0.60000002384185791       0.60000002384185791       0.80000001192092896     
  -3.0347522170980130        1.4959180344886656        5.5055360152963893       0.60000002384185791       0.60000002384185791       0.60000002384185791       0.80000001192092896     
  -3.0347522172041317       -1.4959180348682934        5.5055360149000974       0.60000002384185791       0.60000002384185791       0.60000002384185791       0.80000001192092896     
   4.0961746184755876       -1.4520774580104634        5.6230550304524227       0.60000002384185791       0.60000002384185791       0.60000002384185791       0.80000001192092896     
   4.0961746185338326        1.4520774582333968        5.6230550302227158       0.60000002384185791       0.60000002384185791       0.60000002384185791       0.80000001192092896     
  -4.0567205109640643        1.4305726900600859        5.5865430831060845       0.60000002384185791       0.60000002384185791       0.60000002384185791       0.80000001192092896     
  -4.0567205108269011       -1.4305726900289393        5.5865430824263864       0.60000002384185791       0.60000002384185791       0.60000002384185791       0.80000001192092896     
   5.0811933131956684       -1.2518355039340965        5.6687156759814421       0.60000002384185791       0.60000002384185791       0.60000002384185791       0.80000001192092896     
   5.0811933132052616        1.2518355039712874        5.6687156759430435       0.60000002384185791       0.60000002384185791       0.60000002384185791       0.80000001192092896     
  -5.0443031051893508        1.2481775752513105        5.6127478743705019       0.60000002384185791       0.60000002384185791       0.60000002384185791       0.80000001192092896     
  -5.0443031050476215       -1.2481775752991398        5.6127478743455823       0.60000002384185791       0.60000002384185791       0.60000002384185791       0.80000001192092896     
   6.0748521266120399       -1.1099795623609134        5.7288361044210951       0.60000002384185791       0.60000002384185791       0.60000002384185791       0.80000001192092896     
   6.0748521266131830        1.1099795623665534        5.7288361044153477       0.60000002384185791       0.60000002384185791       0.60000002384185791       0.80000001192092896     
 -0.97246160027681161       -1.6964916132373880        4.4775292659617625       0.60000002384185791       0.60000002384185791       0.60000002384185791       0.80000001192092896     
  -1.7866911454885031       0.83902236263010066        3.3738777472790917       0.60000002384185791       0.60000002384185791       0.60000002384185791       0.80000001192092896     
  -1.7866915355004263      -0.83902170807780074        3.3738777551418200       0.60000002384185791       0.60000002384185791       0.60000002384185791       0.80000001192092896     
  0.90716111763083240       -1.6894965705787410        4.2016243306233436       0.60000002384185791       0.60000002384185791       0.60000002384185791       0.80000001192092896     
  0.90716134517491998        1.6894967218886840        4.2016244555398528       0.60000002384185791       0.60000002384185791       0.60000002384185791       0.80000001192092896     
  -2.1172566522691554        1.3916649928048475        4.5257030239742244       0.60000002384185791       0.60000002384185791       0.60000002384185791       0.80000001192092896     
  -2.1172567640977844       -1.3916649887390062        4.5257031196011042       0.60000002384185791       0.60000002384185791       0.60000002384185791       0.80000001192092896     
   4.5257650241102058E-002  -1.7941158187173469        4.0578544721759302       0.60000002384185791       0.60000002384185791       0.60000002384185791       0.80000001192092896     
   4.5443847104179633E-002   1.7941725959008576        4.0578544356308646       0.60000002384185791       0.60000002384185791       0.60000002384185791       0.80000001192092896     
   2.0752662233502610        1.3776258987770327        4.6977472674486815       0.60000002384185791       0.60000002384185791       0.60000002384185791       0.80000001192092896     
   3.5725521551876733      -0.61928243452109610        2.8604699335027806        1.0000000000000000        1.0000000000000000        0.0000000000000000        1.0000000000000000     
 -0.73895516018664886       -1.6561348185309961        3.5478817856053979       0.60000002384185791       0.60000002384185791       0.60000002384185791       0.80000001192092896     
 -0.73895525794067241        1.6561371431978027        3.5478818232870637       0.60000002384185791       0.60000002384185791       0.60000002384185791       0.80000001192092896     
  -1.4087135462147073      -0.90625923974009948        2.0444311417182983       0.60000002384185791       0.60000002384185791       0.60000002384185791       0.80000001192092896     
  -1.4087133765243991       0.90625944572105932        2.0444312910691158       0.60000002384185791       0.60000002384185791       0.60000002384185791       0.80000001192092896     
  0.82092352905053301        1.6591395774580218        3.2013394534185800       0.60000002384185791       0.60000002384185791       0.60000002384185791       0.80000001192092896     
  0.82087535382935417       -1.6592359653185134        3.2013471473182853       0.60000002384185791       0.60000002384185791       0.60000002384185791       0.80000001192092896     
   5.5021375041387444       -1.1544142836557350        4.8040996306406205       0.60000002384185791       0.60000002384185791       0.60000002384185791       0.80000001192092896     
   5.5021375039752813        1.1544142841746738        4.8040996303736687       0.60000002384185791       0.60000002384185791       0.60000002384185791       0.80000001192092896     
   3.5725521251613159       0.61928237305047007        2.8604699335027806        1.0000000000000000        1.0000000000000000        0.0000000000000000        1.0000000000000000     
  -3.5377482836114198       0.65927149127061335        3.1375182682895115        1.0000000000000000        1.0000000000000000        0.0000000000000000        1.0000000000000000     
   1.7980742981578903       -8.5944913208089441E-007   3.6518666730426168       0.60000002384185791       0.60000002384185791       0.60000002384185791       0.80000001192092896     
   1.2248068955778366        1.2218104739747482        2.9196038386060628       0.60000002384185791       0.60000002384185791       0.60000002384185791       0.80000001192092896     
   1.2248041138622441       -1.2218086228027942        2.9196036412768849       0.60000002384185791       0.60000002384185791       0.60000002384185791       0.80000001192092896     
  0.14641953808701394        1.6945418936927690        3.0261471039871122       0.60000002384185791       0.60000002384185791       0.60000002384185791       0.80000001192092896     
  0.14642764099334382       -1.6945294933177075        3.0261473410288384       0.60000002384185791       0.60000002384185791       0.60000002384185791       0.80000001192092896     
  -3.5377482838996843      -0.65927149343712843        3.1375182682895115        1.0000000000000000        1.0000000000000000        0.0000000000000000        1.0000000000000000     
   9.0992612846212309E-002  -5.2062620951395585E-008   1.0382578837327854        1.0000000000000000        1.0000000000000000        0.0000000000000000        1.0000000000000000     
   1.4393601979877746       -3.7966802794775014E-007   2.6547229723897696       0.60000002384185791       0.60000002384185791       0.60000002384185791       0.80000001192092896     
  -5.2053717321756334        1.0968302624511685        4.6576426960715827       0.60000002384185791       0.60000002384185791       0.60000002384185791       0.80000001192092896     
  -5.2053717326616242       -1.0968302623433970        4.6576426958040695       0.60000002384185791       0.60000002384185791       0.60000002384185791       0.80000001192092896     
   4.5719141171035114       -1.3552973345693644        4.9766896823049001       0.60000002384185791       0.60000002384185791       0.60000002384185791       0.80000001192092896     
   4.5719141161382781        1.3552973368789274        4.9766896817233963       0.60000002384185791       0.60000002384185791       0.60000002384185791       0.80000001192092896     
  -2.1172248427746068        1.7164664089637528E-007   4.0337655133831642       0.60000002384185791       0.60000002384185791       0.60000002384185791       0.80000001192092896     
   2.0753314061859127        1.0242587841418986E-007   4.1486581011396293       0.60000002384185791       0.60000002384185791       0.60000002384185791       0.80000001192092896     
   2.0752661641479735       -1.3776259939223312        4.6977471959860511       0.60000002384185791       0.60000002384185791       0.60000002384185791       0.80000001192092896     
   1.3361634709861256        1.5297854897818053        3.9117527793806910       0.60000002384185791       0.60000002384185791       0.60000002384185791       0.80000001192092896     
   6.5956518119166940      -0.98035755993122131        5.2399891773131531       0.60000002384185791       0.60000002384185791       0.60000002384185791       0.80000001192092896     
   6.5956518119172181       0.98035755993763829        5.2399891773072573       0.60000002384185791       0.60000002384185791       0.60000002384185791       0.80000001192092896     
   1.3361584920788292       -1.5297869102950399        3.9117447335041939       0.60000002384185791       0.60000002384185791       0.60000002384185791       0.80000001192092896     
 -0.97246153082747955        1.6964917570985893        4.4775292721222044       0.60000002384185791       0.60000002384185791       0.60000002384185791       0.80000001192092896     
 -0.53163743661161300       -1.5052451213981994        2.7317190987117983       0.60000002384185791       0.60000002384185791       0.60000002384185791       0.80000001192092896     
 -0.53163791531497562        1.5052464410050082        2.7317191267331116       0.60000002384185791       0.60000002384185791       0.60000002384185791       0.80000001192092896     
  -4.4263024799602082        1.3246571387582224        4.9185954210340652       0.60000002384185791       0.60000002384185791       0.60000002384185791       0.80000001192092896     
  -4.4263024810315654       -1.3246571390308648        4.9185954223162831       0.60000002384185791       0.60000002384185791       0.60000002384185791       0.80000001192092896     
  0.77818319535769598        1.4320265796510163        2.2428731602300953       0.60000002384185791       0.60000002384185791       0.60000002384185791       0.80000001192092896     
  0.77818112488925650       -1.4320268179517164        2.2428732971885710       0.60000002384185791       0.60000002384185791       0.60000002384185791       0.80000001192092896     
   5.1832663333956086      -0.77803263071807038        3.7338002960959487       0.60000002384185791       0.60000002384185791       0.60000002384185791       0.80000001192092896     
   5.1832663332148616       0.77803263020344593        3.7338002963366290       0.60000002384185791       0.60000002384185791       0.60000002384185791       0.80000001192092896     
   4.0375559737507380       -1.3715580702853305        4.5169826156823873       0.60000002384185791       0.60000002384185791       0.60000002384185791       0.80000001192092896     
   4.0375559727677128        1.3715580714140689        4.5169826150182324       0.60000002384185791       0.60000002384185791       0.60000002384185791       0.80000001192092896     
   3.1813604693743462       -1.3846645675482656        4.3298992252752004       0.60000002384185791       0.60000002384185791       0.60000002384185791       0.80000001192092896     
   3.1813604228787167        1.3846645399210191        4.3298992476187346       0.60000002384185791       0.60000002384185791       0.60000002384185791       0.80000001192092896     
  0.11276414908619956        1.4308071706800647        2.0972334664184316       0.60000002384185791       0.60000002384185791       0.60000002384185791       0.80000001192092896     
  0.11276378978482789       -1.4308072300195289        2.0972334744439816       0.60000002384185791       0.60000002384185791       0.60000002384185791       0.80000001192092896     
   1.0982151397802959       0.92809939734729163        2.0372436919286128       0.60000002384185791       0.60000002384185791       0.60000002384185791       0.80000001192092896     
   1.0982152937618481      -0.92810005162630183        2.0372439672399842       0.60000002384185791       0.60000002384185791       0.60000002384185791       0.80000001192092896     
  -3.9352247120993629        1.3326041598765281        4.5931685972637943       0.60000002384185791       0.60000002384185791       0.60000002384185791       0.80000001192092896     
  -3.9352247119324741       -1.3326041599636167        4.5931685967763061       0.60000002384185791       0.60000002384185791       0.60000002384185791       0.80000001192092896     
  -3.2494669005931627        1.3237916618548597        4.3424715167325578       0.60000002384185791       0.60000002384185791       0.60000002384185791       0.80000001192092896     
  -3.2494669726799610       -1.3237916580790452        4.3424715067660546       0.60000002384185791       0.60000002384185791       0.60000002384185791       0.80000001192092896     
   5.8981330012029218        2.4217853328672086E-012   4.5487612000321134       0.60000002384185791       0.60000002384185791       0.60000002384185791       0.80000001192092896     
   2.5524546128014629        1.0335855262269042        3.8667638897852239       0.60000002384185791       0.60000002384185791       0.60000002384185791       0.80000001192092896     
   2.5524638483729598       -1.0336003916421215        3.8667580463975564       0.60000002384185791       0.60000002384185791       0.60000002384185791       0.80000001192092896     
   4.3260928995361079       -1.2425220463443389        4.0596789208552142       0.60000002384185791       0.60000002384185791       0.60000002384185791       0.80000001192092896     
   4.3260928992656487        1.2425220471581544        4.0596789190530309       0.60000002384185791       0.60000002384185791       0.60000002384185791       0.80000001192092896     
  -4.9080928106376982       0.81037745917427750        3.8047913866457375       0.60000002384185791       0.60000002384185791       0.60000002384185791       0.80000001192092896     
  -4.9080928117142122      -0.81037745894921021        3.8047913860890050       0.60000002384185791       0.60000002384185791       0.60000002384185791       0.80000001192092896     
 -0.28551224234485922       -1.1306737645829341        1.7926642313668226       0.60000002384185791       0.60000002384185791       0.60000002384185791       0.80000001192092896     
 -0.28551195092662679        1.1306738837752681        1.7926641747243555       0.60000002384185791       0.60000002384185791       0.60000002384185791       0.80000001192092896     
  -5.5295824604916701       -2.2492124216900631E-011   4.6066831106370829       0.60000002384185791       0.60000002384185791       0.60000002384185791       0.80000001192092896     
   1.0897133162613533       -1.9509591618690881E-007   1.8452128650860318       0.60000002384185791       0.60000002384185791       0.60000002384185791       0.80000001192092896     
   2.7003241742336854      -0.30326525890779249        3.4589492392567296       0.60000002384185791       0.60000002384185791       0.60000002384185791       0.80000001192092896     
   2.7003248004906166       0.30326398281339456        3.4589492392567296       0.60000002384185791       0.60000002384185791       0.60000002384185791       0.80000001192092896     
  -2.7520234609963246        1.0268694190197671        3.8369416896812476       0.60000002384185791       0.60000002384185791       0.60000002384185791       0.80000001192092896     
  -2.7520233813571333       -1.0268693051589408        3.8369417054028427       0.60000002384185791       0.60000002384185791       0.60000002384185791       0.80000001192092896     
  -4.0548736933204426        1.0423580011621121        4.0251307267238836       0.60000002384185791       0.60000002384185791       0.60000002384185791       0.80000001192092896     
  -4.0548736957718994       -1.0423580002457289        4.0251307251695243       0.60000002384185791       0.60000002384185791       0.60000002384185791       0.80000001192092896     
 -0.73439676415302602      -0.45116948740200341        1.5269829995913806       0.60000002384185791       0.60000002384185791       0.60000002384185791       0.80000001192092896     
 -0.73439667551225452       0.45116952073682665        1.5269829788032478       0.60000002384185791       0.60000002384185791       0.60000002384185791       0.80000001192092896     
  
   3   0  24  57
   3   0  57  24
   3   0  57  98
   3   0  98   1
   3   0  98  57
   3   0   1  98
   3   1   0  98
   3   1  98  58
   3   1  98   0
   3   1  58  98
   3   1  58  25
   3   1  25  58
   3   2  35  28
   3   2  35  31
   3   2  31  35
   3   2  31   6
   3   2   6  31
   3   2   9  28
   3   2  28  35
   3   2  28   9
   3   3  26  65
   3   3  65  26
   4   3  65  66   4
   3   4  66  27
   4   4  66  65   3
   3   4  27  66
   3   5   7  32
   3   5  32  36
   3   5  32   7
   3   5  36  32
   3   5  36  68
   3   5  68  36
   3   5  68   8
   3   5   8  68
   3   6   2  31
   3   6  31   2
   3   6  31  63
   3   6  63  10
   3   6  63  31
   3   6  10  63
   3   7  11  37
   3   7  37  32
   3   7  37  11
   3   7  32  37
   3   7  32   5
   3   7   5  32
   3   8   5  68
   3   8  68   5
   3   8  68  33
   3   8  33  12
   3   8  33  68
   3   8  12  33
   3   9  13  34
   3   9  34  28
   3   9  34  13
   3   9  28  34
   3   9  28   2
   3   9   2  28
   3  10   6  63
   3  10  63  14
   3  10  63   6
   3  10  14  63
   3  11  15  37
   3  11  37   7
   3  11  37  15
   3  11   7  37
   3  12   8  33
   3  12  33  16
   3  12  33   8
   3  12  16  33
   3  13  17  34
   3  13  34   9
   3  13  34  17
   3  13   9  34
   3  14  10  63
   3  14  63  79
   3  14  63  10
   3  14  79  63
   3  14  79  77
   3  14  77  79
   3  14  77  18
   3  14  18  77
   3  15  19  78
   3  15  78  80
   3  15  78  19
   3  15  80  78
   3  15  80  37
   3  15  37  11
   3  15  37  80
   3  15  11  37
   3  16  12  33
   3  16  33  87
   3  16  33  12
   3  16  87  33
   3  16  87  85
   3  16  85  87
   3  16  85  20
   3  16  20  85
   3  17  21  86
   3  17  86  88
   3  17  86  21
   3  17  88  86
   3  17  88  34
   3  17  34  13
   3  17  34  88
   3  17  13  34
   3  18  14  77
   3  18  77  14
   3  18  77  59
   3  18  59  77
   3  18  59  22
   3  18  22  59
   3  19  23  60
   3  19  60  78
   3  19  60  23
   3  19  78  60
   3  19  78  15
   3  19  15  78
   3  20  16  85
   3  20  85  16
   3  20  85  71
   3  20  71  85
   3  20  71  24
   3  20  24  71
   3  21  25  72
   3  21  72  86
   3  21  72  25
   3  21  86  72
   3  21  86  17
   3  21  17  86
   3  22  18  59
   3  22  59  18
   3  22  59  45
   3  22  45  26
   3  22  45  59
   3  22  26  45
   3  23  27  46
   3  23  46  60
   3  23  46  27
   3  23  60  46
   3  23  60  19
   3  23  19  60
   3  24  20  71
   3  24  71  20
   3  24  71  57
   3  24  57   0
   3  24  57  71
   3  24   0  57
   3  25   1  58
   3  25  58   1
   3  25  58  72
   3  25  72  58
   3  25  72  21
   3  25  21  72
   3  26  22  45
   3  26  45  65
   3  26  45  22
   3  26  65   3
   3  26  65  45
   3  26   3  65
   3  27   4  66
   3  27  66   4
   3  27  66  46
   3  27  46  66
   3  27  46  23
   3  27  23  46
   3  28  34  39
   3  28  34   9
   3  28  39  35
   3  28  39  34
   3  28  35  39
   3  28  35   2
   3  28   2  35
   3  28   2   9
   3  28   9  34
   3  28   9   2
   3  29  33  40
   3  29  33  61
   3  29  40  33
   3  29  40  70
   3  29  70  42
   3  29  70  40
   3  29  42  70
   4  29  42  41  30
   3  29  30  61
   4  29  30  41  42
   3  29  61  30
   3  29  61  33
   3  30  34  61
   3  30  34  39
   3  30  61  29
   3  30  61  34
   3  30  29  61
   4  30  29  42  41
   3  30  41  69
   4  30  41  42  29
   3  30  69  41
   3  30  69  39
   3  30  39  34
   3  30  39  69
   3  31   2  35
   3  31   2   6
   3  31  35  44
   3  31  35   2
   3  31  44  67
   3  31  44  35
   3  31  67  63
   3  31  67  44
   3  31  63   6
   3  31  63  67
   3  31   6   2
   3  31   6  63
   3  32  37  64
   3  32  37   7
   3  32  64  37
   3  32  64  43
   3  32  43  36
   3  32  43  64
   3  32  36  43
   3  32  36   5
   3  32   5   7
   3  32   5  36
   3  32   7  37
   3  32   7   5
   3  33 102  61
   3  33 102  87
   3  33  87 102
   3  33  87  16
   3  33  16  12
   3  33  16  87
   3  33  12   8
   3  33  12  16
   3  33   8  68
   3  33   8  12
   3  33  68  40
   3  33  68   8
   3  33  40  29
   3  33  40  68
   3  33  29  40
   3  33  29  61
   3  33  61  29
   3  33  61 102
   3  34 103  88
   3  34 103  61
   3  34  61  30
   3  34  61 103
   3  34  30  61
   3  34  30  39
   3  34  39  28
   3  34  39  30
   3  34  28  39
   3  34  28   9
   3  34   9  13
   3  34   9  28
   3  34  13  17
   3  34  13   9
   3  34  17  88
   3  34  17  13
   3  34  88 103
   3  34  88  17
   3  35  28  39
   3  35  28   2
   3  35  39  28
   3  35  39  53
   3  35  53  44
   3  35  53  39
   3  35  44  31
   3  35  44  53
   3  35  31   2
   3  35  31  44
   3  35   2  31
   3  35   2  28
   3  36  32  43
   3  36  32   5
   3  36  43  32
   3  36  43  52
   3  36  52  40
   3  36  52  43
   3  36  40  68
   3  36  40  52
   3  36  68   5
   3  36  68  40
   3  36   5  32
   3  36   5  68
   3  37  90  80
   3  37  90  62
   3  37  62  49
   3  37  62  90
   3  37  49  62
   3  37  49  64
   3  37  64  49
   3  37  64  32
   3  37  32  64
   3  37  32   7
   3  37   7  11
   3  37   7  32
   3  37  11  15
   3  37  11   7
   3  37  15  80
   3  37  15  11
   3  37  80  90
   3  37  80  15
   3  38  75  92
   4  38  75  76  47
   3  38  92  75
   3  38  92  77
   3  38  77  79
   3  38  77  92
   3  38  79  91
   3  38  79  77
   3  38  91  79
   4  38  91  62 100
   3  39  35  28
   3  39  35  53
   3  39  28  34
   3  39  28  35
   3  39  34  30
   3  39  34  28
   3  39  30  34
   3  39  30  69
   3  39  69  30
   3  39  69  53
   3  39  53  35
   3  39  53  69
   3  40  29  33
   3  40  29  70
   3  40  33  68
   3  40  33  29
   3  40  68  36
   3  40  68  33
   3  40  36  52
   3  40  36  68
   3  40  52  36
   3  40  52  70
   3  40  70  52
   3  40  70  29
   3  41  96  69
   4  41  96  55 106
   3  41  69  30
   3  41  69  96
   3  41  30  69
   4  41  30  29  42
   3  42  29  70
   4  42  29  30  41
   3  42  70  97
   3  42  70  29
   3  42  97  70
   4  42  97  55 107
   3  43  36  32
   3  43  36  52
   3  43  32  64
   3  43  32  36
   3  43  64  50
   3  43  64  32
   3  43  50  64
   3  43  50  73
   3  43  73  50
   3  43  73  52
   3  43  52  36
   3  43  52  73
   3  44  67  51
   3  44  67  31
   3  44  31  35
   3  44  31  67
   3  44  35  53
   3  44  35  31
   3  44  53  35
   3  44  53  74
   3  44  74  53
   3  44  74  51
   3  44  51  67
   3  44  51  74
   3  45  65  26
   3  45  65  89
   3  45  26  22
   3  45  26  65
   3  45  22  59
   3  45  22  26
   3  45  59  92
   3  45  59  22
   3  45  92  75
   3  45  92  59
   3  45  75  89
   3  45  75  92
   3  45  89  75
   3  45  89  65
   3  46  66  89
   3  46  66  27
   3  46  89  76
   3  46  89  66
   3  46  76  89
   3  46  76  93
   3  46  93  60
   3  46  93  76
   3  46  60  93
   3  46  60  23
   3  46  23  27
   3  46  23  60
   3  46  27  66
   3  46  27  23
   3  47  76  93
   4  47  76  75  38
   3  47  90  80
   4  47  90  62 101
   3  47  80  78
   3  47  80  90
   3  47  78  93
   3  47  78  80
   3  47  93  78
   3  47  93  76
   3  48  94 104
   4  48  94  95  54
   3  48 104  94
   3  48 104  85
   3  48  85  87
   3  48  85 104
   3  48  87 102
   3  48  87  85
   3  48 102  61
   3  48 102  87
   3  48  61  54
   3  48  61 102
   3  48  54  61
   4  48  54  95  94
   3  49  37  62
   3  49  37  64
   3  49  62  37
   3  49  62  63
   3  49  63  67
   3  49  63  62
   3  49  67  51
   3  49  67  63
   3  49  51  67
   3  49  51  56
   3  49  56  51
   3  49  56  50
   3  49  50  64
   3  49  50  56
   3  49  64  37
   3  49  64  50
   3  50  43  64
   3  50  43  73
   3  50  64  49
   3  50  64  43
   3  50  49  56
   3  50  49  64
   3  50  56  83
   3  50  56  49
   3  50  83  56
   3  50  83  73
   3  50  73  83
   3  50  73  43
   3  51  49  67
   3  51  49  56
   3  51  67  49
   3  51  67  44
   3  51  44  67
   3  51  44  74
   3  51  74  84
   3  51  74  44
   3  51  84  74
   3  51  84  56
   3  51  56  84
   3  51  56  49
   3  52  40  36
   3  52  40  70
   3  52  36  43
   3  52  36  40
   3  52  43  36
   3  52  43  73
   3  52  73  81
   3  52  73  43
   3  52  81  73
   3  52  81  70
   3  52  70  81
   3  52  70  40
   3  53  44  35
   3  53  44  74
   3  53  35  39
   3  53  35  44
   3  53  39  35
   3  53  39  69
   3  53  69  82
   3  53  69  39
   3  53  82  69
   3  53  82  74
   3  53  74  82
   3  53  74  44
   3  54  95 105
   4  54  95  94  48
   3  54  48  61
   4  54  48  94  95
   3  54  61 103
   3  54  61  48
   3  54 103  88
   3  54 103  61
   3  54  88  86
   3  54  88 103
   3  54  86 105
   3  54  86  88
   3  54 105  86
   3  54 105  95
   3  55  81  73
   3  55  81  97
   3  55  73  83
   3  55  73  81
   3  55  83  99
   3  55  83  73
   3  55  99  83
   3  55  99  84
   3  55  84  74
   3  55  84  99
   3  55  74  82
   3  55  74  84
   3  55  82  96
   3  55  82  74
   3  55  96  82
   4  55  96  41 106
   3  55 106 107
   4  55 106  41  96
   3  55 107 106
   4  55 107  42  97
   3  55  97  81
   4  55  97  42 107
   3  56  51  49
   3  56  51  84
   3  56  84  99
   3  56  84  51
   3  56  99  83
   3  56  99  84
   3  56  83  99
   3  56  83  50
   3  56  50  49
   3  56  50  83
   3  56  49  51
   3  56  49  50
   3  57   0  24
   3  57   0  98
   3  57  24  71
   3  57  24   0
   3  57  71 104
   3  57  71  24
   3  57 104  94
   3  57 104  71
   3  57  94  98
   3  57  94 104
   3  57  98  94
   3  57  98   0
   3  58   1  98
   3  58   1  25
   3  58  98  95
   3  58  98   1
   3  58  95 105
   3  58  95  98
   3  58 105  72
   3  58 105  95
   3  58  72 105
   3  58  72  25
   3  58  25   1
   3  58  25  72
   3  59  18  77
   3  59  18  22
   3  59  77  92
   3  59  77  18
   3  59  92  45
   3  59  92  77
   3  59  45  22
   3  59  45  92
   3  59  22  18
   3  59  22  45
   3  60  46  93
   3  60  46  23
   3  60  93  78
   3  60  93  46
   3  60  78  93
   3  60  78  19
   3  60  19  23
   3  60  19  78
   3  60  23  46
   3  60  23  19
   3  61  29  33
   3  61  29  30
   3  61  30  34
   3  61  30  29
   3  61  34 103
   3  61  34  30
   3  61 103  54
   3  61 103  34
   3  61  54  48
   3  61  54 103
   3  61  48 102
   3  61  48  54
   3  61 102  48
   3  61 102  33
   3  61  33 102
   3  61  33  29
   3  62  49  37
   3  62  49  63
   3  62  37  90
   3  62  37  49
   3  62  90  37
   4  62  90  47 101
   3  62 101 100
   4  62 101  47  90
   3  62 100 101
   4  62 100  38  91
   3  62  91  63
   4  62  91  38 100
   3  62  63  91
   3  62  63  49
   3  63  91  79
   3  63  91  62
   3  63  79  91
   3  63  79  14
   3  63  14  10
   3  63  14  79
   3  63  10   6
   3  63  10  14
   3  63   6  31
   3  63   6  10
   3  63  31  67
   3  63  31   6
   3  63  67  49
   3  63  67  31
   3  63  49  62
   3  63  49  67
   3  63  62  49
   3  63  62  91
   3  64  37  49
   3  64  37  32
   3  64  49  37
   3  64  49  50
   3  64  50  43
   3  64  50  49
   3  64  43  32
   3  64  43  50
   3  64  32  37
   3  64  32  43
   3  65   3  26
   4  65   3   4  66
   3  65  26  45
   3  65  26   3
   3  65  45  26
   3  65  45  89
   3  65  89  66
   3  65  89  45
   3  65  66  89
   4  65  66   4   3
   3  66   4  27
   4  66   4   3  65
   3  66  65  89
   4  66  65   3   4
   3  66  89  46
   3  66  89  65
   3  66  46  89
   3  66  46  27
   3  66  27   4
   3  66  27  46
   3  67  51  49
   3  67  51  44
   3  67  49  63
   3  67  49  51
   3  67  63  31
   3  67  63  49
   3  67  31  44
   3  67  31  63
   3  67  44  31
   3  67  44  51
   3  68   5  36
   3  68   5   8
   3  68  36  40
   3  68  36   5
   3  68  40  33
   3  68  40  36
   3  68  33   8
   3  68  33  40
   3  68   8   5
   3  68   8  33
   3  69  30  41
   3  69  30  39
   3  69  41  96
   3  69  41  30
   3  69  96  82
   3  69  96  41
   3  69  82  96
   3  69  82  53
   3  69  53  39
   3  69  53  82
   3  69  39  30
   3  69  39  53
   3  70  52  40
   3  70  52  81
   3  70  81  97
   3  70  81  52
   3  70  97  42
   3  70  97  81
   3  70  42  29
   3  70  42  97
   3  70  29  40
   3  70  29  42
   3  70  40  29
   3  70  40  52
   3  71  20  85
   3  71  20  24
   3  71  85 104
   3  71  85  20
   3  71 104  57
   3  71 104  85
   3  71  57  24
   3  71  57 104
   3  71  24  20
   3  71  24  57
   3  72  58 105
   3  72  58  25
   3  72 105  86
   3  72 105  58
   3  72  86 105
   3  72  86  21
   3  72  21  25
   3  72  21  86
   3  72  25  58
   3  72  25  21
   3  73  50  43
   3  73  50  83
   3  73  83  55
   3  73  83  50
   3  73  55  81
   3  73  55  83
   3  73  81  55
   3  73  81  52
   3  73  52  43
   3  73  52  81
   3  73  43  50
   3  73  43  52
   3  74  53  44
   3  74  53  82
   3  74  82  55
   3  74  82  53
   3  74  55  84
   3  74  55  82
   3  74  84  55
   3  74  84  51
   3  74  51  44
   3  74  51  84
   3  74  44  53
   3  74  44  51
   3  75  38  92
   4  75  38  47  76
   3  75  76  89
   4  75  76  47  38
   3  75  89  76
   3  75  89  45
   3  75  45  92
   3  75  45  89
   3  75  92  45
   3  75  92  38
   3  76  46  89
   3  76  46  93
   3  76  89  75
   3  76  89  46
   3  76  75  89
   4  76  75  38  47
   3  76  47  93
   4  76  47  38  75
   3  76  93  46
   3  76  93  47
   3  77  14  79
   3  77  14  18
   3  77  79  38
   3  77  79  14
   3  77  38  92
   3  77  38  79
   3  77  92  59
   3  77  92  38
   3  77  59  18
   3  77  59  92
   3  77  18  14
   3  77  18  59
   3  78  60  93
   3  78  60  19
   3  78  93  60
   3  78  93  47
   3  78  47  80
   3  78  47  93
   3  78  80  47
   3  78  80  15
   3  78  15  19
   3  78  15  80
   3  78  19  60
   3  78  19  15
   3  79  63  91
   3  79  63  14
   3  79  91  63
   3  79  91  38
   3  79  38  77
   3  79  38  91
   3  79  77  14
   3  79  77  38
   3  79  14  63
   3  79  14  77
   3  80  78  47
   3  80  78  15
   3  80  47  90
   3  80  47  78
   3  80  90  47
   3  80  90  37
   3  80  37  90
   3  80  37  15
   3  80  15  78
   3  80  15  37
   3  81  73  55
   3  81  73  52
   3  81  55  73
   3  81  55  97
   3  81  97  70
   3  81  97  55
   3  81  70  52
   3  81  70  97
   3  81  52  73
   3  81  52  70
   3  82  69  96
   3  82  69  53
   3  82  96  69
   3  82  96  55
   3  82  55  74
   3  82  55  96
   3  82  74  53
   3  82  74  55
   3  82  53  69
   3  82  53  74
   3  83  56  99
   3  83  56  50
   3  83  99  56
   3  83  99  55
   3  83  55  73
   3  83  55  99
   3  83  73  50
   3  83  73  55
   3  83  50  56
   3  83  50  73
   3  84  74  55
   3  84  74  51
   3  84  55  99
   3  84  55  74
   3  84  99  56
   3  84  99  55
   3  84  56  51
   3  84  56  99
   3  84  51  74
   3  84  51  56
   3  85  16  87
   3  85  16  20
   3  85  87  48
   3  85  87  16
   3  85  48 104
   3  85  48  87
   3  85 104  71
   3  85 104  48
   3  85  71  20
   3  85  71 104
   3  85  20  16
   3  85  20  71
   3  86  72 105
   3  86  72  21
   3  86 105  72
   3  86 105  54
   3  86  54  88
   3  86  54 105
   3  86  88  54
   3  86  88  17
   3  86  17  21
   3  86  17  88
   3  86  21  72
   3  86  21  17
   3  87  33 102
   3  87  33  16
   3  87 102  48
   3  87 102  33
   3  87  48  85
   3  87  48 102
   3  87  85  16
   3  87  85  48
   3  87  16  33
   3  87  16  85
   3  88  86  54
   3  88  86  17
   3  88  54 103
   3  88  54  86
   3  88 103  54
   3  88 103  34
   3  88  34 103
   3  88  34  17
   3  88  17  86
   3  88  17  34
   3  89  75  76
   3  89  75  45
   3  89  76  46
   3  89  76  75
   3  89  46  66
   3  89  46  76
   3  89  66  65
   3  89  66  46
   3  89  65  45
   3  89  65  66
   3  89  45  65
   3  89  45  75
   3  90  80  47
   3  90  80  37
   3  90  47  80
   4  90  47 101  62
   3  90  62  37
   4  90  62 101  47
   3  90  37  62
   3  90  37  80
   3  91  79  63
   3  91  79  38
   3  91  63  79
   3  91  63  62
   3  91  62  63
   4  91  62 100  38
   3  91  38  79
   4  91  38 100  62
   3  92  75  38
   3  92  75  45
   3  92  45  59
   3  92  45  75
   3  92  59  77
   3  92  59  45
   3  92  77  38
   3  92  77  59
   3  92  38  75
   3  92  38  77
   3  93  78  60
   3  93  78  47
   3  93  60  46
   3  93  60  78
   3  93  46  76
   3  93  46  60
   3  93  76  46
   3  93  76  47
   3  93  47  76
   3  93  47  78
   3  94  48 104
   4  94  48  54  95
   3  94  95  98
   4  94  95  54  48
   3  94  98  95
   3  94  98  57
   3  94  57 104
   3  94  57  98
   3  94 104  57
   3  94 104  48
   3  95  54 105
   4  95  54  48  94
   3  95 105  58
   3  95 105  54
   3  95  58  98
   3  95  58 105
   3  95  98  94
   3  95  98  58
   3  95  94  98
   4  95  94  48  54
   3  96  82  69
   3  96  82  55
   3  96  69  41
   3  96  69  82
   3  96  41  69
   4  96  41 106  55
   3  96  55  82
   4  96  55 106  41
   3  97  42  70
   4  97  42 107  55
   3  97  70  81
   3  97  70  42
   3  97  81  55
   3  97  81  70
   3  97  55  81
   4  97  55 107  42
   3  98  94  95
   3  98  94  57
   3  98  95  58
   3  98  95  94
   3  98  58   1
   3  98  58  95
   3  98   1   0
   3  98   1  58
   3  98   0  57
   3  98   0   1
   3  98  57   0
   3  98  57  94
   3  99  83  56
   3  99  83  55
   3  99  56  84
   3  99  56  83
   3  99  84  55
   3  99  84  56
   3  99  55  83
   3  99  55  84
   3 100  62 101
   4 100  62  91  38
   3 100 101  62
   4 100 101  47  38
   3 101 100  62
   4 101 100  38  47
   3 101  62 100
   4 101  62  90  47
   3 102  61  48
   3 102  61  33
   3 102  48  87
   3 102  48  61
   3 102  87  33
   3 102  87  48
   3 102  33  87
   3 102  33  61
   3 103  88  54
   3 103  88  34
   3 103  54  61
   3 103  54  88
   3 103  61  34
   3 103  61  54
   3 103  34  61
   3 103  34  88
   3 104  94  48
   3 104  94  57
   3 104  57  71
   3 104  57  94
   3 104  71  85
   3 104  71  57
   3 104  85  48
   3 104  85  71
   3 104  48  94
   3 104  48  85
   3 105  86  72
   3 105  86  54
   3 105  72  58
   3 105  72  86
   3 105  58  95
   3 105  58  72
   3 105  95  54
   3 105  95  58
   3 105  54  95
   3 105  54  86
   3 106 107  55
   4 106 107  42  41
   3 106  55 107
   4 106  55  96  41
   3 107  55 106
   4 107  55  97  42
   3 107 106  55
   4 107 106  41  42
