 COFF
         116        1114         116
  
  -6.5200859195558296        1.0347502015419590        6.0059820570504776       0.60000002384185791       0.60000002384185791       0.60000002384185791       0.80000001192092896     
  -6.5200859195583307       -1.0347502015422820        6.0059820570483122       0.60000002384185791       0.60000002384185791       0.60000002384185791       0.80000001192092896     
  -3.1436025133141324E-002  -2.1293555462969582        5.6643931040505642       0.60000002384185791       0.60000002384185791       0.60000002384185791       0.80000001192092896     
   7.3661542477967243      -0.94622984124644238        6.1556696711268239       0.60000002384185791       0.60000002384185791       0.60000002384185791       0.80000001192092896     
   7.3661542478184421       0.94622984126608412        6.1556696710934435       0.60000002384185791       0.60000002384185791       0.60000002384185791       0.80000001192092896     
  -3.1436025452611857E-002   2.1293555586311483        5.6643930915154206       0.60000002384185791       0.60000002384185791       0.60000002384185791       0.80000001192092896     
   1.1214292284563652       -1.8093744795521181        5.8062889368932531       0.60000002384185791       0.60000002384185791       0.60000002384185791       0.80000001192092896     
   1.1214292300691293        1.8093744855047662        5.8062889305547873       0.60000002384185791       0.60000002384185791       0.60000002384185791       0.80000001192092896     
  -1.1456066148099338        1.7932338210699179        5.7760905128704962       0.60000002384185791       0.60000002384185791       0.60000002384185791       0.80000001192092896     
  -1.1456066147728694       -1.7932338217531416        5.7760905122143882       0.60000002384185791       0.60000002384185791       0.60000002384185791       0.80000001192092896     
   2.0372305275225333       -1.4956099480446996        6.0579305183230137       0.60000002384185791       0.60000002384185791       0.60000002384185791       0.80000001192092896     
   2.0372305284503995        1.4956099530351026        6.0579305132086354       0.60000002384185791       0.60000002384185791       0.60000002384185791       0.80000001192092896     
  -2.0666764913185287        1.5030686991601501        6.0357678116200377       0.60000002384185791       0.60000002384185791       0.60000002384185791       0.80000001192092896     
  -2.0666764914092490       -1.5030687000091478        6.0357678107300785       0.60000002384185791       0.60000002384185791       0.60000002384185791       0.80000001192092896     
   3.0579342517384074       -1.5968053005828089        5.8599691632798523       0.60000002384185791       0.60000002384185791       0.60000002384185791       0.80000001192092896     
   3.0579344401834221        1.5968053337863932        5.8599693156756949       0.60000002384185791       0.60000002384185791       0.60000002384185791       0.80000001192092896     
  -3.0382867937240023        1.5857437752124743        5.8154488225831420       0.60000002384185791       0.60000002384185791       0.60000002384185791       0.80000001192092896     
  -3.0382867937528486       -1.5857437763251547        5.8154488214575633       0.60000002384185791       0.60000002384185791       0.60000002384185791       0.80000001192092896     
   4.1061293148587152       -1.5260490170801568        5.9492881635016532       0.60000002384185791       0.60000002384185791       0.60000002384185791       0.80000001192092896     
   4.1061293153876948        1.5260490170757790        5.9492881634260160       0.60000002384185791       0.60000002384185791       0.60000002384185791       0.80000001192092896     
  -4.0670182312564247        1.5110575275811193        5.9061144695229881       0.60000002384185791       0.60000002384185791       0.60000002384185791       0.80000001192092896     
  -4.0670182311431011       -1.5110575275633231        5.9061144688244758       0.60000002384185791       0.60000002384185791       0.60000002384185791       0.80000001192092896     
   5.0924732423483254       -1.3152612175814813        6.0086222887833003       0.60000002384185791       0.60000002384185791       0.60000002384185791       0.80000001192092896     
   5.0924732428185369        1.3152612200914200        6.0086222862262781       0.60000002384185791       0.60000002384185791       0.60000002384185791       0.80000001192092896     
  -5.0578803228863700        1.3194961339486859        5.9437823864681185       0.60000002384185791       0.60000002384185791       0.60000002384185791       0.80000001192092896     
  -5.0578803227402096       -1.3194961339854878        5.9437823864541750       0.60000002384185791       0.60000002384185791       0.60000002384185791       0.80000001192092896     
   6.0814315177536828       -1.1661057336368064        6.0837139076287015       0.60000002384185791       0.60000002384185791       0.60000002384185791       0.80000001192092896     
   6.0814315178269203        1.1661057339953798        6.0837139072606208       0.60000002384185791       0.60000002384185791       0.60000002384185791       0.80000001192092896     
  -7.1521184457124809       -1.2659348904369357E-012   6.0087297329758282       0.60000002384185791       0.60000002384185791       0.60000002384185791       0.80000001192092896     
  -1.7457362710108211       0.84287516399880325        3.6370778937431587       0.60000002384185791       0.60000002384185791       0.60000002384185791       0.80000001192092896     
  -1.7457367987525241      -0.84287358836009885        3.6370778533929231       0.60000002384185791       0.60000002384185791       0.60000002384185791       0.80000001192092896     
  0.92362044749378647       -1.7491490668572138        4.4886593714426990       0.60000002384185791       0.60000002384185791       0.60000002384185791       0.80000001192092896     
  0.92362103001188145        1.7491495068737648        4.4886592458429506       0.60000002384185791       0.60000002384185791       0.60000002384185791       0.80000001192092896     
  -2.0842546576868535        1.4659312831234315        4.8805784804810912       0.60000002384185791       0.60000002384185791       0.60000002384185791       0.80000001192092896     
  -2.0842549470113907       -1.4659311706632838        4.8805789171697489       0.60000002384185791       0.60000002384185791       0.60000002384185791       0.80000001192092896     
   5.3295483074238426E-002  -1.8563747465687239        4.3457148333692261       0.60000002384185791       0.60000002384185791       0.60000002384185791       0.80000001192092896     
   5.3275726578622937E-002   1.8563603282265297        4.3457149319872563       0.60000002384185791       0.60000002384185791       0.60000002384185791       0.80000001192092896     
   2.0801778949773100        1.4574537843472790        5.0258188773511998       0.60000002384185791       0.60000002384185791       0.60000002384185791       0.80000001192092896     
   3.5797525945955631      -0.61920555588509951        2.8604699335027806        1.0000000000000000        1.0000000000000000        0.0000000000000000        1.0000000000000000     
 -0.75785082504801471       -1.7275291600697613        3.8306193433639231       0.60000002384185791       0.60000002384185791       0.60000002384185791       0.80000001192092896     
 -0.75785010757872628        1.7275304030002072        3.8306196660067453       0.60000002384185791       0.60000002384185791       0.60000002384185791       0.80000001192092896     
  -1.4131637107319865      -0.94857034739056934        2.2799527521767833       0.60000002384185791       0.60000002384185791       0.60000002384185791       0.80000001192092896     
  -1.4131629978995770       0.94857175379622183        2.2799527139359452       0.60000002384185791       0.60000002384185791       0.60000002384185791       0.80000001192092896     
  0.81574516785810847        1.7261464720502959        3.4787738991900294       0.60000002384185791       0.60000002384185791       0.60000002384185791       0.80000001192092896     
  0.81583153282586740       -1.7262793870963329        3.4787736684805672       0.60000002384185791       0.60000002384185791       0.60000002384185791       0.80000001192092896     
   5.5369518089522582       -1.2199852918307728        5.1456415859349089       0.60000002384185791       0.60000002384185791       0.60000002384185791       0.80000001192092896     
   5.5369516882262912        1.2199854352487289        5.1456414829846544       0.60000002384185791       0.60000002384185791       0.60000002384185791       0.80000001192092896     
   3.5797525646326358       0.61920547979574525        2.8604699335027806        1.0000000000000000        1.0000000000000000        0.0000000000000000        1.0000000000000000     
  -3.5335950746100488       0.65952388271990359        3.1375182682895115        1.0000000000000000        1.0000000000000000        0.0000000000000000        1.0000000000000000     
   1.7158879751095308       -3.3107671338108363E-007   4.0016517488160854       0.60000002384185791       0.60000002384185791       0.60000002384185791       0.80000001192092896     
   1.1880551282988083        1.2741164263797733        3.1871222366118848       0.60000002384185791       0.60000002384185791       0.60000002384185791       0.80000001192092896     
   1.1880280609788894       -1.2741273924955936        3.1870871534045313       0.60000002384185791       0.60000002384185791       0.60000002384185791       0.80000001192092896     
  0.15873046993680565        1.7630626093792747        3.2867317795522202       0.60000002384185791       0.60000002384185791       0.60000002384185791       0.80000001192092896     
  0.15880136624763161       -1.7631392196073028        3.2867319143072256       0.60000002384185791       0.60000002384185791       0.60000002384185791       0.80000001192092896     
  -3.5335950706409922      -0.65952385288953297        3.1375182682895115        1.0000000000000000        1.0000000000000000        0.0000000000000000        1.0000000000000000     
  0.11728353588238707        6.4524000787990148E-008   1.0382578837327854        1.0000000000000000        1.0000000000000000        0.0000000000000000        1.0000000000000000     
   1.3781713798237534        3.7391417726541596E-006   2.8769397168532311       0.60000002384185791       0.60000002384185791       0.60000002384185791       0.80000001192092896     
  -5.2315343459345440        1.1717260598559696        4.9362229036989342       0.60000002384185791       0.60000002384185791       0.60000002384185791       0.80000001192092896     
  -5.2315343501547593       -1.1717260597040304        4.9362229061049936       0.60000002384185791       0.60000002384185791       0.60000002384185791       0.80000001192092896     
   4.5782779365696777       -1.4248627094568282        5.2853467467335555       0.60000002384185791       0.60000002384185791       0.60000002384185791       0.80000001192092896     
   4.5782968330228107        1.4248815437779008        5.2853441203255285       0.60000002384185791       0.60000002384185791       0.60000002384185791       0.80000001192092896     
  -2.0843970086834966        5.4848767623066041E-007   4.2411152060782369       0.60000002384185791       0.60000002384185791       0.60000002384185791       0.80000001192092896     
   2.0799910297683746       -3.1453426256059245E-007   4.3949491307419892       0.60000002384185791       0.60000002384185791       0.60000002384185791       0.80000001192092896     
   2.0801776749128971       -1.4574540422941875        5.0258187131630629       0.60000002384185791       0.60000002384185791       0.60000002384185791       0.80000001192092896     
   1.3040086040903045        1.6068941686073275        4.2100874102819956       0.60000002384185791       0.60000002384185791       0.60000002384185791       0.80000001192092896     
   6.6237054442470304       -1.0228349915091022        5.5823778930602010       0.60000002384185791       0.60000002384185791       0.60000002384185791       0.80000001192092896     
   6.6237054486438742        1.0228349992875574        5.5823778960930559       0.60000002384185791       0.60000002384185791       0.60000002384185791       0.80000001192092896     
   1.3040084452771858       -1.6068941869731903        4.2100880955025159       0.60000002384185791       0.60000002384185791       0.60000002384185791       0.80000001192092896     
 -0.94143997816408298        1.7680107240776082        4.7704497058651301       0.60000002384185791       0.60000002384185791       0.60000002384185791       0.80000001192092896     
 -0.53973289003143254       -1.5627728646150170        2.9604928468207752       0.60000002384185791       0.60000002384185791       0.60000002384185791       0.80000001192092896     
 -0.53973202654565233        1.5627732094611038        2.9604927628406288       0.60000002384185791       0.60000002384185791       0.60000002384185791       0.80000001192092896     
  -4.4713067474056309        1.3984451374086235        5.2546237458842429       0.60000002384185791       0.60000002384185791       0.60000002384185791       0.80000001192092896     
  -4.4713067528940851       -1.3984451379654612        5.2546237508926961       0.60000002384185791       0.60000002384185791       0.60000002384185791       0.80000001192092896     
  0.76470754916125028        1.5471403906327015        2.5181526909956249       0.60000002384185791       0.60000002384185791       0.60000002384185791       0.80000001192092896     
  0.76472457202293420       -1.5471241979172277        2.5181882918041998       0.60000002384185791       0.60000002384185791       0.60000002384185791       0.80000001192092896     
   5.2446494039877356      -0.84666705840233925        3.9688240511600887       0.60000002384185791       0.60000002384185791       0.60000002384185791       0.80000001192092896     
   5.2446492503652422       0.84666730134915424        3.9688241882633930       0.60000002384185791       0.60000002384185791       0.60000002384185791       0.80000001192092896     
   4.0745703481702646       -1.4697777565430481        4.7938803607189220       0.60000002384185791       0.60000002384185791       0.60000002384185791       0.80000001192092896     
   4.0745731689787572        1.4697775804568713        4.7938829712108388       0.60000002384185791       0.60000002384185791       0.60000002384185791       0.80000001192092896     
   3.1465608904214988       -1.4864257540104528        4.5485560651741412       0.60000002384185791       0.60000002384185791       0.60000002384185791       0.80000001192092896     
   3.1465610416906120        1.4864258988114272        4.5485561059136908       0.60000002384185791       0.60000002384185791       0.60000002384185791       0.80000001192092896     
  0.16337583148693846        1.5588377101098276        2.2765180119052610       0.60000002384185791       0.60000002384185791       0.60000002384185791       0.80000001192092896     
  0.16337298153737176       -1.5588352781717614        2.2765183740590738       0.60000002384185791       0.60000002384185791       0.60000002384185791       0.80000001192092896     
   1.0728546114301476        1.0209492404492018        2.2517664667223150       0.60000002384185791       0.60000002384185791       0.60000002384185791       0.80000001192092896     
   1.0728500946719106       -1.0209465498893631        2.2517683916377766       0.60000002384185791       0.60000002384185791       0.60000002384185791       0.80000001192092896     
  -3.9894603700376057        1.4336341143775120        4.8539270254980451       0.60000002384185791       0.60000002384185791       0.60000002384185791       0.80000001192092896     
  -3.9894603720281676       -1.4336341146744915        4.8539270237525525       0.60000002384185791       0.60000002384185791       0.60000002384185791       0.80000001192092896     
  -3.1917472109920593        1.4444432841044306        4.5632026131577863       0.60000002384185791       0.60000002384185791       0.60000002384185791       0.80000001192092896     
  -3.1917473512011925       -1.4444432481240119        4.5632025343899256       0.60000002384185791       0.60000002384185791       0.60000002384185791       0.80000001192092896     
   6.0542439124834742        7.5482300661841714E-009   4.8373051733445864       0.60000002384185791       0.60000002384185791       0.60000002384185791       0.80000001192092896     
   2.5103033626402973        1.0654717783061733        4.1694133834493474       0.60000002384185791       0.60000002384185791       0.60000002384185791       0.80000001192092896     
   2.5103035610889686       -1.0654720247148302        4.1694120730858257       0.60000002384185791       0.60000002384185791       0.60000002384185791       0.80000001192092896     
   4.4246213109709265       -1.3635855086592048        4.3185555423473030       0.60000002384185791       0.60000002384185791       0.60000002384185791       0.80000001192092896     
   4.4246214480188968        1.3635858716555351        4.3185555225851378       0.60000002384185791       0.60000002384185791       0.60000002384185791       0.80000001192092896     
  -4.9771458190651767       0.83242583988091934        3.9935223924675021       0.60000002384185791       0.60000002384185791       0.60000002384185791       0.80000001192092896     
  -4.9771458334115337      -0.83242582967613210        3.9935223868016356       0.60000002384185791       0.60000002384185791       0.60000002384185791       0.80000001192092896     
 -0.37367439487440041       -1.4007864839265218        1.9916637287705932       0.60000002384185791       0.60000002384185791       0.60000002384185791       0.80000001192092896     
 -0.37367333887345994        1.4007876038308467        1.9916639136538092       0.60000002384185791       0.60000002384185791       0.60000002384185791       0.80000001192092896     
  -5.7784577102008559       -5.2873736651501499E-011   4.9029802533444817       0.60000002384185791       0.60000002384185791       0.60000002384185791       0.80000001192092896     
   1.1916147960267960        9.6216585355372914E-007   2.0802401551949852       0.60000002384185791       0.60000002384185791       0.60000002384185791       0.80000001192092896     
   2.4872947376631793      -0.30465134761372387        3.4638246082602855       0.60000002384185791       0.60000002384185791       0.60000002384185791       0.80000001192092896     
   2.4872957176816874       0.30465085599933761        3.4638246971215749       0.60000002384185791       0.60000002384185791       0.60000002384185791       0.80000001192092896     
  -2.6361640433343276        1.0810886759761547        4.0774236457794570       0.60000002384185791       0.60000002384185791       0.60000002384185791       0.80000001192092896     
  -2.6361635049143186       -1.0810878301007669        4.0774241417970769       0.60000002384185791       0.60000002384185791       0.60000002384185791       0.80000001192092896     
  -4.2062536170300424        1.2471787970335817        4.2661751296072179       0.60000002384185791       0.60000002384185791       0.60000002384185791       0.80000001192092896     
  -4.2062536331514471       -1.2471787939594461        4.2661751136208039       0.60000002384185791       0.60000002384185791       0.60000002384185791       0.80000001192092896     
  -1.0714414813510966      -0.60086952366258528        1.5563288347059181       0.60000002384185791       0.60000002384185791       0.60000002384185791       0.80000001192092896     
  -1.0714410989790972       0.60087019741483316        1.5563290815384407       0.60000002384185791       0.60000002384185791       0.60000002384185791       0.80000001192092896     
  0.61347904533557152        1.0473697754596742        1.7301662703248619       0.60000002384185791       0.60000002384185791       0.60000002384185791       0.80000001192092896     
  0.61347519057476751       -1.0473689957804329        1.7301656828496763       0.60000002384185791       0.60000002384185791       0.60000002384185791       0.80000001192092896     
 -0.94144030154656855       -1.7680105249561695        4.7704496614059702       0.60000002384185791       0.60000002384185791       0.60000002384185791       0.80000001192092896     
   3.8701703069173332       -1.1979166722306673        3.8614109302401847       0.60000002384185791       0.60000002384185791       0.60000002384185791       0.80000001192092896     
   3.8701701636053185        1.1979167837291258        3.8614109433221624       0.60000002384185791       0.60000002384185791       0.60000002384185791       0.80000001192092896     
   6.7469925075228572        4.7541286408426397E-010   5.5388373346855637       0.60000002384185791       0.60000002384185791       0.60000002384185791       0.80000001192092896     
   4.4446662580046308      -0.72924254966555024        3.4069690941941877       0.60000002384185791       0.60000002384185791       0.60000002384185791       0.80000001192092896     
   4.4446661557848408       0.72924263360348174        3.4069691615309199       0.60000002384185791       0.60000002384185791       0.60000002384185791       0.80000001192092896     
  
   3   0  24  57
   3   0  57  24
   3   0  57  98
   3   0  98  28
   3   0  98  57
   3   0  28  98
   3   1  28  98
   3   1  98  58
   3   1  98  28
   3   1  58  98
   3   1  58  25
   3   1  25  58
   3   2  35 110
   3   2  35  31
   3   2  31  35
   3   2  31   6
   3   2   6  31
   3   2   9 110
   3   2 110  35
   3   2 110   9
   3   3   4 113
   3   3  26  65
   3   3  65  26
   3   3  65 113
   3   3 113   4
   3   3 113  65
   3   4   3 113
   3   4 113  66
   3   4 113   3
   3   4  66 113
   3   4  66  27
   3   4  27  66
   3   5   7  32
   3   5  32  36
   3   5  32   7
   3   5  36  32
   3   5  36  68
   3   5  68  36
   3   5  68   8
   3   5   8  68
   3   6   2  31
   3   6  31   2
   3   6  31  63
   3   6  63  10
   3   6  63  31
   3   6  10  63
   3   7  11  37
   3   7  37  32
   3   7  37  11
   3   7  32  37
   3   7  32   5
   3   7   5  32
   3   8   5  68
   3   8  68   5
   3   8  68  33
   3   8  33  12
   3   8  33  68
   3   8  12  33
   3   9  13  34
   3   9  34 110
   3   9  34  13
   3   9 110  34
   3   9 110   2
   3   9   2 110
   3  10   6  63
   3  10  63  14
   3  10  63   6
   3  10  14  63
   3  11  15  37
   3  11  37   7
   3  11  37  15
   3  11   7  37
   3  12   8  33
   3  12  33  16
   3  12  33   8
   3  12  16  33
   3  13  17  34
   3  13  34   9
   3  13  34  17
   3  13   9  34
   3  14  10  63
   3  14  63  79
   3  14  63  10
   3  14  79  63
   3  14  79  77
   3  14  77  79
   3  14  77  18
   3  14  18  77
   3  15  19  78
   3  15  78  80
   3  15  78  19
   3  15  80  78
   3  15  80  37
   3  15  37  11
   3  15  37  80
   3  15  11  37
   3  16  12  33
   3  16  33  87
   3  16  33  12
   3  16  87  33
   3  16  87  85
   3  16  85  87
   3  16  85  20
   3  16  20  85
   3  17  21  86
   3  17  86  88
   3  17  86  21
   3  17  88  86
   3  17  88  34
   3  17  34  13
   3  17  34  88
   3  17  13  34
   3  18  14  77
   3  18  77  14
   3  18  77  59
   3  18  59  77
   3  18  59  22
   3  18  22  59
   3  19  23  60
   3  19  60  78
   3  19  60  23
   3  19  78  60
   3  19  78  15
   3  19  15  78
   3  20  16  85
   3  20  85  16
   3  20  85  71
   3  20  71  85
   3  20  71  24
   3  20  24  71
   3  21  25  72
   3  21  72  86
   3  21  72  25
   3  21  86  72
   3  21  86  17
   3  21  17  86
   3  22  18  59
   3  22  59  18
   3  22  59  45
   3  22  45  26
   3  22  45  59
   3  22  26  45
   3  23  27  46
   3  23  46  60
   3  23  46  27
   3  23  60  46
   3  23  60  19
   3  23  19  60
   3  24  20  71
   3  24  71  20
   3  24  71  57
   3  24  57   0
   3  24  57  71
   3  24   0  57
   3  25   1  58
   3  25  58   1
   3  25  58  72
   3  25  72  58
   3  25  72  21
   3  25  21  72
   3  26  22  45
   3  26  45  65
   3  26  45  22
   3  26  65   3
   3  26  65  45
   3  26   3  65
   3  27   4  66
   3  27  66   4
   3  27  66  46
   3  27  46  66
   3  27  46  23
   3  27  23  46
   3  28   0  98
   3  28  98   1
   3  28  98   0
   3  28   1  98
   3  29  33  40
   3  29  33  61
   3  29  40  33
   3  29  40  70
   3  29  70  42
   3  29  70  40
   3  29  42  70
   4  29  42  41  30
   3  29  30  61
   4  29  30  41  42
   3  29  61  30
   3  29  61  33
   3  30  34  61
   3  30  34  39
   3  30  61  29
   3  30  61  34
   3  30  29  61
   4  30  29  42  41
   3  30  41  69
   4  30  41  42  29
   3  30  69  41
   3  30  69  39
   3  30  39  34
   3  30  39  69
   3  31   2  35
   3  31   2   6
   3  31  35  44
   3  31  35   2
   3  31  44  67
   3  31  44  35
   3  31  67  63
   3  31  67  44
   3  31  63   6
   3  31  63  67
   3  31   6   2
   3  31   6  63
   3  32  37  64
   3  32  37   7
   3  32  64  37
   3  32  64  43
   3  32  43  36
   3  32  43  64
   3  32  36  43
   3  32  36   5
   3  32   5   7
   3  32   5  36
   3  32   7  37
   3  32   7   5
   3  33 102  61
   3  33 102  87
   3  33  87 102
   3  33  87  16
   3  33  16  12
   3  33  16  87
   3  33  12   8
   3  33  12  16
   3  33   8  68
   3  33   8  12
   3  33  68  40
   3  33  68   8
   3  33  40  29
   3  33  40  68
   3  33  29  40
   3  33  29  61
   3  33  61  29
   3  33  61 102
   3  34 103  88
   3  34 103  61
   3  34  61  30
   3  34  61 103
   3  34  30  61
   3  34  30  39
   3  34  39 110
   3  34  39  30
   3  34 110  39
   3  34 110   9
   3  34   9  13
   3  34   9 110
   3  34  13  17
   3  34  13   9
   3  34  17  88
   3  34  17  13
   3  34  88 103
   3  34  88  17
   3  35 110  39
   3  35 110   2
   3  35  39 110
   3  35  39  53
   3  35  53  44
   3  35  53  39
   3  35  44  31
   3  35  44  53
   3  35  31   2
   3  35  31  44
   3  35   2  31
   3  35   2 110
   3  36  32  43
   3  36  32   5
   3  36  43  32
   3  36  43  52
   3  36  52  40
   3  36  52  43
   3  36  40  68
   3  36  40  52
   3  36  68   5
   3  36  68  40
   3  36   5  32
   3  36   5  68
   3  37  90  80
   3  37  90  62
   3  37  62  49
   3  37  62  90
   3  37  49  62
   3  37  49  64
   3  37  64  49
   3  37  64  32
   3  37  32  64
   3  37  32   7
   3  37   7  11
   3  37   7  32
   3  37  11  15
   3  37  11   7
   3  37  15  80
   3  37  15  11
   3  37  80  90
   3  37  80  15
   3  38  92 111
   4  38  92  75 114
   3  38 111  92
   3  38 111  79
   3  38  79  91
   3  38  79 111
   3  38  91  79
   4  38  91  62 100
   3  39  35 110
   3  39  35  53
   3  39 110  34
   3  39 110  35
   3  39  34  30
   3  39  34 110
   3  39  30  34
   3  39  30  69
   3  39  69  30
   3  39  69  53
   3  39  53  35
   3  39  53  69
   3  40  29  33
   3  40  29  70
   3  40  33  68
   3  40  33  29
   3  40  68  36
   3  40  68  33
   3  40  36  52
   3  40  36  68
   3  40  52  36
   3  40  52  70
   3  40  70  52
   3  40  70  29
   3  41  96  69
   4  41  96  55 106
   3  41  69  30
   3  41  69  96
   3  41  30  69
   4  41  30  29  42
   3  42  29  70
   4  42  29  30  41
   3  42  70  97
   3  42  70  29
   3  42  97  70
   4  42  97  55 107
   3  43  36  32
   3  43  36  52
   3  43  32  64
   3  43  32  36
   3  43  64  50
   3  43  64  32
   3  43  50  64
   3  43  50  73
   3  43  73  50
   3  43  73  52
   3  43  52  36
   3  43  52  73
   3  44  67  51
   3  44  67  31
   3  44  31  35
   3  44  31  67
   3  44  35  53
   3  44  35  31
   3  44  53  35
   3  44  53  74
   3  44  74  53
   3  44  74  51
   3  44  51  67
   3  44  51  74
   3  45  65  26
   3  45  65  89
   3  45  26  22
   3  45  26  65
   3  45  22  59
   3  45  22  26
   3  45  59  92
   3  45  59  22
   3  45  92  75
   3  45  92  59
   3  45  75  89
   3  45  75  92
   3  45  89  75
   3  45  89  65
   3  46  66  89
   3  46  66  27
   3  46  89  76
   3  46  89  66
   3  46  76  89
   3  46  76  93
   3  46  93  60
   3  46  93  76
   3  46  60  93
   3  46  60  23
   3  46  23  27
   3  46  23  60
   3  46  27  66
   3  46  27  23
   3  47  90  80
   4  47  90  62 101
   3  47  80 112
   3  47  80  90
   3  47 112  80
   3  47 112  93
   3  47  93 112
   4  47  93  78  80
   3  48  94 104
   4  48  94  95  54
   3  48 104  94
   3  48 104  85
   3  48  85  87
   3  48  85 104
   3  48  87 102
   3  48  87  85
   3  48 102  61
   3  48 102  87
   3  48  61  54
   3  48  61 102
   3  48  54  61
   4  48  54  95  94
   3  49  37  62
   3  49  37  64
   3  49  62  37
   3  49  62  63
   3  49  63  67
   3  49  63  62
   3  49  67  51
   3  49  67  63
   3  49  51  67
   3  49  51  56
   3  49  56  51
   3  49  56  50
   3  49  50  64
   3  49  50  56
   3  49  64  37
   3  49  64  50
   3  50  43  64
   3  50  43  73
   3  50  64  49
   3  50  64  43
   3  50  49  56
   3  50  49  64
   3  50  56  83
   3  50  56  49
   3  50  83  56
   3  50  83  73
   3  50  73  83
   3  50  73  43
   3  51  49  67
   3  51  49  56
   3  51  67  49
   3  51  67  44
   3  51  44  67
   3  51  44  74
   3  51  74  84
   3  51  74  44
   3  51  84  74
   3  51  84  56
   3  51  56  84
   3  51  56  49
   3  52  40  36
   3  52  40  70
   3  52  36  43
   3  52  36  40
   3  52  43  36
   3  52  43  73
   3  52  73  81
   3  52  73  43
   3  52  81  73
   3  52  81  70
   3  52  70  81
   3  52  70  40
   3  53  44  35
   3  53  44  74
   3  53  35  39
   3  53  35  44
   3  53  39  35
   3  53  39  69
   3  53  69  82
   3  53  69  39
   3  53  82  69
   3  53  82  74
   3  53  74  82
   3  53  74  44
   3  54  95 105
   4  54  95  94  48
   3  54  48  61
   4  54  48  94  95
   3  54  61 103
   3  54  61  48
   3  54 103  88
   3  54 103  61
   3  54  88  86
   3  54  88 103
   3  54  86 105
   3  54  86  88
   3  54 105  86
   3  54 105  95
   3  55  81 108
   3  55  81  97
   3  55 108  81
   3  55 108  83
   3  55  83  99
   3  55  83 108
   3  55  99  83
   3  55  99  84
   3  55  84 109
   3  55  84  99
   3  55 109  84
   3  55 109  82
   3  55  82  96
   3  55  82 109
   3  55  96  82
   4  55  96  41 106
   3  55 106 107
   4  55 106  41  96
   3  55 107 106
   4  55 107  42  97
   3  55  97  81
   4  55  97  42 107
   3  56  51  49
   3  56  51  84
   3  56  84  99
   3  56  84  51
   3  56  99  83
   3  56  99  84
   3  56  83  99
   3  56  83  50
   3  56  50  49
   3  56  50  83
   3  56  49  51
   3  56  49  50
   3  57   0  24
   3  57   0  98
   3  57  24  71
   3  57  24   0
   3  57  71 104
   3  57  71  24
   3  57 104  94
   3  57 104  71
   3  57  94  98
   3  57  94 104
   3  57  98  94
   3  57  98   0
   3  58   1  98
   3  58   1  25
   3  58  98  95
   3  58  98   1
   3  58  95 105
   3  58  95  98
   3  58 105  72
   3  58 105  95
   3  58  72 105
   3  58  72  25
   3  58  25   1
   3  58  25  72
   3  59  18  77
   3  59  18  22
   3  59  77  92
   3  59  77  18
   3  59  92  45
   3  59  92  77
   3  59  45  22
   3  59  45  92
   3  59  22  18
   3  59  22  45
   3  60  46  93
   3  60  46  23
   3  60  93  78
   3  60  93  46
   3  60  78  93
   3  60  78  19
   3  60  19  23
   3  60  19  78
   3  60  23  46
   3  60  23  19
   3  61  29  33
   3  61  29  30
   3  61  30  34
   3  61  30  29
   3  61  34 103
   3  61  34  30
   3  61 103  54
   3  61 103  34
   3  61  54  48
   3  61  54 103
   3  61  48 102
   3  61  48  54
   3  61 102  48
   3  61 102  33
   3  61  33 102
   3  61  33  29
   3  62  49  37
   3  62  49  63
   3  62  37  90
   3  62  37  49
   3  62  90  37
   4  62  90  47 101
   3  62 101 100
   4  62 101  47  90
   3  62 100 101
   4  62 100  38  91
   3  62  91  63
   4  62  91  38 100
   3  62  63  91
   3  62  63  49
   3  63  91  79
   3  63  91  62
   3  63  79  91
   3  63  79  14
   3  63  14  10
   3  63  14  79
   3  63  10   6
   3  63  10  14
   3  63   6  31
   3  63   6  10
   3  63  31  67
   3  63  31   6
   3  63  67  49
   3  63  67  31
   3  63  49  62
   3  63  49  67
   3  63  62  49
   3  63  62  91
   3  64  37  49
   3  64  37  32
   3  64  49  37
   3  64  49  50
   3  64  50  43
   3  64  50  49
   3  64  43  32
   3  64  43  50
   3  64  32  37
   3  64  32  43
   3  65   3  26
   3  65   3 113
   3  65  26  45
   3  65  26   3
   3  65  45  26
   3  65  45  89
   3  65  89 113
   3  65  89  45
   3  65 113  89
   3  65 113   3
   3  66   4 113
   3  66   4  27
   3  66 113  89
   3  66 113   4
   3  66  89  46
   3  66  89 113
   3  66  46  89
   3  66  46  27
   3  66  27   4
   3  66  27  46
   3  67  51  49
   3  67  51  44
   3  67  49  63
   3  67  49  51
   3  67  63  31
   3  67  63  49
   3  67  31  44
   3  67  31  63
   3  67  44  31
   3  67  44  51
   3  68   5  36
   3  68   5   8
   3  68  36  40
   3  68  36   5
   3  68  40  33
   3  68  40  36
   3  68  33   8
   3  68  33  40
   3  68   8   5
   3  68   8  33
   3  69  30  41
   3  69  30  39
   3  69  41  96
   3  69  41  30
   3  69  96  82
   3  69  96  41
   3  69  82  96
   3  69  82  53
   3  69  53  39
   3  69  53  82
   3  69  39  30
   3  69  39  53
   3  70  52  40
   3  70  52  81
   3  70  81  97
   3  70  81  52
   3  70  97  42
   3  70  97  81
   3  70  42  29
   3  70  42  97
   3  70  29  40
   3  70  29  42
   3  70  40  29
   3  70  40  52
   3  71  20  85
   3  71  20  24
   3  71  85 104
   3  71  85  20
   3  71 104  57
   3  71 104  85
   3  71  57  24
   3  71  57 104
   3  71  24  20
   3  71  24  57
   3  72  58 105
   3  72  58  25
   3  72 105  86
   3  72 105  58
   3  72  86 105
   3  72  86  21
   3  72  21  25
   3  72  21  86
   3  72  25  58
   3  72  25  21
   3  73  50  43
   3  73  50  83
   3  73  83 108
   3  73  83  50
   3  73 108  81
   3  73 108  83
   3  73  81 108
   3  73  81  52
   3  73  52  43
   3  73  52  81
   3  73  43  50
   3  73  43  52
   3  74  53  44
   3  74  53  82
   3  74  82 109
   3  74  82  53
   3  74 109  84
   3  74 109  82
   3  74  84 109
   3  74  84  51
   3  74  51  44
   3  74  51  84
   3  74  44  53
   3  74  44  51
   3  75  76  89
   4  75  76 115 114
   3  75  89  76
   3  75  89  45
   3  75  45  92
   3  75  45  89
   3  75  92  45
   4  75  92  38 114
   3  76  46  89
   3  76  46  93
   3  76  89  75
   3  76  89  46
   3  76  75  89
   4  76  75 114 115
   3  76  93  46
   4  76  93  47 115
   3  77  14  79
   3  77  14  18
   3  77  79 111
   3  77  79  14
   3  77 111  92
   3  77 111  79
   3  77  92  59
   3  77  92 111
   3  77  59  18
   3  77  59  92
   3  77  18  14
   3  77  18  59
   3  78  60  93
   3  78  60  19
   3  78  93  60
   3  78  93 112
   3  78 112  80
   3  78 112  93
   3  78  80 112
   3  78  80  15
   3  78  15  19
   3  78  15  80
   3  78  19  60
   3  78  19  15
   3  79  63  91
   3  79  63  14
   3  79  91  63
   3  79  91  38
   3  79  38 111
   3  79  38  91
   3  79 111  77
   3  79 111  38
   3  79  77  14
   3  79  77 111
   3  79  14  63
   3  79  14  77
   3  80  78 112
   3  80  78  15
   3  80 112  78
   3  80 112  47
   3  80  47  90
   3  80  47 112
   3  80  90  47
   3  80  90  37
   3  80  37  90
   3  80  37  15
   3  80  15  78
   3  80  15  37
   3  81  73 108
   3  81  73  52
   3  81 108  73
   3  81 108  55
   3  81  55 108
   3  81  55  97
   3  81  97  70
   3  81  97  55
   3  81  70  52
   3  81  70  97
   3  81  52  73
   3  81  52  70
   3  82  69  96
   3  82  69  53
   3  82  96  69
   3  82  96  55
   3  82  55 109
   3  82  55  96
   3  82 109  74
   3  82 109  55
   3  82  74  53
   3  82  74 109
   3  82  53  69
   3  82  53  74
   3  83  56  99
   3  83  56  50
   3  83  99  56
   3  83  99  55
   3  83  55 108
   3  83  55  99
   3  83 108  73
   3  83 108  55
   3  83  73  50
   3  83  73 108
   3  83  50  56
   3  83  50  73
   3  84  74 109
   3  84  74  51
   3  84 109  74
   3  84 109  55
   3  84  55  99
   3  84  55 109
   3  84  99  56
   3  84  99  55
   3  84  56  51
   3  84  56  99
   3  84  51  74
   3  84  51  56
   3  85  16  87
   3  85  16  20
   3  85  87  48
   3  85  87  16
   3  85  48 104
   3  85  48  87
   3  85 104  71
   3  85 104  48
   3  85  71  20
   3  85  71 104
   3  85  20  16
   3  85  20  71
   3  86  72 105
   3  86  72  21
   3  86 105  72
   3  86 105  54
   3  86  54  88
   3  86  54 105
   3  86  88  54
   3  86  88  17
   3  86  17  21
   3  86  17  88
   3  86  21  72
   3  86  21  17
   3  87  33 102
   3  87  33  16
   3  87 102  48
   3  87 102  33
   3  87  48  85
   3  87  48 102
   3  87  85  16
   3  87  85  48
   3  87  16  33
   3  87  16  85
   3  88  86  54
   3  88  86  17
   3  88  54 103
   3  88  54  86
   3  88 103  54
   3  88 103  34
   3  88  34 103
   3  88  34  17
   3  88  17  86
   3  88  17  34
   3  89  75  76
   3  89  75  45
   3  89  76  46
   3  89  76  75
   3  89  46  66
   3  89  46  76
   3  89  66 113
   3  89  66  46
   3  89 113  66
   3  89 113  65
   3  89  65  45
   3  89  65 113
   3  89  45  65
   3  89  45  75
   3  90  80  47
   3  90  80  37
   3  90  47  80
   4  90  47 101  62
   3  90  62  37
   4  90  62 101  47
   3  90  37  62
   3  90  37  80
   3  91  79  63
   3  91  79  38
   3  91  63  79
   3  91  63  62
   3  91  62  63
   4  91  62 100  38
   3  91  38  79
   4  91  38 100  62
   3  92  75  45
   4  92  75 114  38
   3  92  45  59
   3  92  45  75
   3  92  59  77
   3  92  59  45
   3  92  77 111
   3  92  77  59
   3  92 111  77
   3  92 111  38
   3  92  38 111
   4  92  38 114  75
   3  93  78  60
   3  93  78 112
   3  93  60  46
   3  93  60  78
   3  93  46  76
   3  93  46  60
   3  93  76  46
   4  93  76 115  47
   3  93  47 112
   4  93  47 115  76
   3  93 112  78
   3  93 112  47
   3  94  48 104
   4  94  48  54  95
   3  94  95  98
   4  94  95  54  48
   3  94  98  95
   3  94  98  57
   3  94  57 104
   3  94  57  98
   3  94 104  57
   3  94 104  48
   3  95  54 105
   4  95  54  48  94
   3  95 105  58
   3  95 105  54
   3  95  58  98
   3  95  58 105
   3  95  98  94
   3  95  98  58
   3  95  94  98
   4  95  94  48  54
   3  96  82  69
   3  96  82  55
   3  96  69  41
   3  96  69  82
   3  96  41  69
   4  96  41 106  55
   3  96  55  82
   4  96  55 106  41
   3  97  42  70
   4  97  42 107  55
   3  97  70  81
   3  97  70  42
   3  97  81  55
   3  97  81  70
   3  97  55  81
   4  97  55 107  42
   3  98  94  95
   3  98  94  57
   3  98  95  58
   3  98  95  94
   3  98  58   1
   3  98  58  95
   3  98   1  28
   3  98   1  58
   3  98  28   0
   3  98  28   1
   3  98   0  57
   3  98   0  28
   3  98  57   0
   3  98  57  94
   3  99  83  56
   3  99  83  55
   3  99  56  84
   3  99  56  83
   3  99  84  55
   3  99  84  56
   3  99  55  83
   3  99  55  84
   3 100  62 101
   4 100  62  91  38
   3 100 101  62
   4 100 101  47  38
   3 101 100  62
   4 101 100  38  47
   3 101  62 100
   4 101  62  90  47
   3 102  61  48
   3 102  61  33
   3 102  48  87
   3 102  48  61
   3 102  87  33
   3 102  87  48
   3 102  33  87
   3 102  33  61
   3 103  88  54
   3 103  88  34
   3 103  54  61
   3 103  54  88
   3 103  61  34
   3 103  61  54
   3 103  34  61
   3 103  34  88
   3 104  94  48
   3 104  94  57
   3 104  57  71
   3 104  57  94
   3 104  71  85
   3 104  71  57
   3 104  85  48
   3 104  85  71
   3 104  48  94
   3 104  48  85
   3 105  86  72
   3 105  86  54
   3 105  72  58
   3 105  72  86
   3 105  58  95
   3 105  58  72
   3 105  95  54
   3 105  95  58
   3 105  54  95
   3 105  54  86
   3 106 107  55
   4 106 107  42  41
   3 106  55 107
   4 106  55  96  41
   3 107  55 106
   4 107  55  97  42
   3 107 106  55
   4 107 106  41  42
   3 108  81  73
   3 108  81  55
   3 108  73  83
   3 108  73  81
   3 108  83  55
   3 108  83  73
   3 108  55  81
   3 108  55  83
   3 109  84  74
   3 109  84  55
   3 109  74  82
   3 109  74  84
   3 109  82  55
   3 109  82  74
   3 109  55  84
   3 109  55  82
   3 110  34  39
   3 110  34   9
   3 110  39  35
   3 110  39  34
   3 110  35  39
   3 110  35   2
   3 110   2  35
   3 110   2   9
   3 110   9  34
   3 110   9   2
   3 111  92  77
   3 111  92  38
   3 111  77  79
   3 111  77  92
   3 111  79  38
   3 111  79  77
   3 111  38  92
   3 111  38  79
   3 112  80  78
   3 112  80  47
   3 112  78  93
   3 112  78  80
   3 112  93  78
   3 112  93  47
   3 112  47  80
   3 112  47  93
   3 113  89  66
   3 113  89  65
   3 113  66   4
   3 113  66  89
   3 113   4   3
   3 113   4  66
   3 113   3   4
   3 113   3  65
   3 113  65   3
   3 113  65  89
