# Generated by dad_to_polygons. Vertex data from Humppa's .off file,
# polygons parsed from .dad file.
COFF
129 454 129
-6.551346 1.089569 6.347220 0.500000 0.500000 0.500000 1.0
-6.551346 -1.089569 6.347220 0.500000 0.500000 0.500000 1.0
-0.032121 -2.191773 5.999289 0.500000 0.500000 0.500000 1.0
7.398485 -0.973200 6.521413 0.500000 0.500000 0.500000 1.0
7.398485 0.973200 6.521413 0.500000 0.500000 0.500000 1.0
-0.032121 2.191773 5.999289 0.500000 0.500000 0.500000 1.0
1.135354 -1.871342 6.141059 0.500000 0.500000 0.500000 1.0
1.135354 1.871342 6.141059 0.500000 0.500000 0.500000 1.0
-1.157945 1.856096 6.109866 0.500000 0.500000 0.500000 1.0
-1.157945 -1.856096 6.109866 0.500000 0.500000 0.500000 1.0
2.048907 -1.556414 6.399342 0.500000 0.500000 0.500000 1.0
2.048907 1.556414 6.399342 0.500000 0.500000 0.500000 1.0
-2.077215 1.565590 6.375527 0.500000 0.500000 0.500000 1.0
-2.077215 -1.565590 6.375527 0.500000 0.500000 0.500000 1.0
3.056871 -1.677157 6.178070 0.500000 0.500000 0.500000 1.0
3.056867 1.677156 6.178066 0.500000 0.500000 0.500000 1.0
-3.040077 1.670847 6.127975 0.500000 0.500000 0.500000 1.0
-3.040077 -1.670847 6.127975 0.500000 0.500000 0.500000 1.0
4.115990 -1.594316 6.279330 0.500000 0.500000 0.500000 1.0
4.115990 1.594316 6.279330 0.500000 0.500000 0.500000 1.0
-4.077091 1.584531 6.230660 0.500000 0.500000 0.500000 1.0
-4.077091 -1.584531 6.230660 0.500000 0.500000 0.500000 1.0
5.103733 -1.375640 6.349930 0.500000 0.500000 0.500000 1.0
5.103733 1.375640 6.349930 0.500000 0.500000 0.500000 1.0
-5.070702 1.384186 6.279693 0.500000 0.500000 0.500000 1.0
-5.070702 -1.384186 6.279693 0.500000 0.500000 0.500000 1.0
6.090065 -1.217418 6.437267 0.500000 0.500000 0.500000 1.0
6.090065 1.217418 6.437267 0.500000 0.500000 0.500000 1.0
-7.641643 -0.000000 6.358265 0.500000 0.500000 0.500000 1.0
-1.710814 0.859944 3.897061 0.500000 0.500000 0.500000 1.0
-1.710814 -0.859942 3.897061 0.500000 0.500000 0.500000 1.0
0.936273 -1.810712 4.794027 0.500000 0.500000 0.500000 1.0
0.936271 1.810712 4.794028 0.500000 0.500000 0.500000 1.0
-2.087988 1.540439 5.211444 0.500000 0.500000 0.500000 1.0
-2.087988 -1.540439 5.211444 0.500000 0.500000 0.500000 1.0
0.052999 -1.916373 4.635650 0.500000 0.500000 0.500000 1.0
0.052985 1.916368 4.635651 0.500000 0.500000 0.500000 1.0
2.098950 1.527459 5.322906 0.500000 0.500000 0.500000 1.0
3.568232 -0.619182 2.860470 1.0 1.0 0.0 1.0
-0.782454 -1.796044 4.134090 0.500000 0.500000 0.500000 1.0
-0.782454 1.796045 4.134091 0.500000 0.500000 0.500000 1.0
-1.415127 -0.967388 2.526973 0.500000 0.500000 0.500000 1.0
-1.415126 0.967390 2.526972 0.500000 0.500000 0.500000 1.0
0.820754 1.790128 3.756442 0.500000 0.500000 0.500000 1.0
0.820626 -1.789997 3.756428 0.500000 0.500000 0.500000 1.0
5.556016 -1.274809 5.497260 0.500000 0.500000 0.500000 1.0
5.556016 1.274809 5.497261 0.500000 0.500000 0.500000 1.0
3.568231 0.619182 2.860470 1.0 1.0 0.0 1.0
-3.537690 0.659780 3.137518 1.0 1.0 0.0 1.0
1.738753 -0.000001 4.350839 0.500000 0.500000 0.500000 1.0
1.175907 1.334865 3.454492 0.500000 0.500000 0.500000 1.0
1.175880 -1.334881 3.454455 0.500000 0.500000 0.500000 1.0
0.164185 1.827044 3.550135 0.500000 0.500000 0.500000 1.0
0.164065 -1.826943 3.550136 0.500000 0.500000 0.500000 1.0
-3.537690 -0.659780 3.137518 1.0 1.0 0.0 1.0
0.123303 0.000000 1.038258 1.0 1.0 0.0 1.0
1.367401 0.000001 3.082121 0.500000 0.500000 0.500000 1.0
-5.269511 1.235784 5.259087 0.500000 0.500000 0.500000 1.0
-5.269511 -1.235784 5.259087 0.500000 0.500000 0.500000 1.0
4.585564 -1.490144 5.598615 0.500000 0.500000 0.500000 1.0
4.585586 1.490194 5.598623 0.500000 0.500000 0.500000 1.0
-2.088048 0.000000 4.451198 0.500000 0.500000 0.500000 1.0
2.099178 0.000034 4.628572 0.500000 0.500000 0.500000 1.0
2.098923 -1.527458 5.322912 0.500000 0.500000 0.500000 1.0
1.303287 1.677286 4.493344 0.500000 0.500000 0.500000 1.0
6.649193 -1.067739 5.918613 0.500000 0.500000 0.500000 1.0
6.649193 1.067739 5.918613 0.500000 0.500000 0.500000 1.0
1.303275 -1.677290 4.493321 0.500000 0.500000 0.500000 1.0
-0.944851 1.828650 5.062541 0.500000 0.500000 0.500000 1.0
-0.545665 -1.611816 3.185495 0.500000 0.500000 0.500000 1.0
-0.545665 1.611818 3.185496 0.500000 0.500000 0.500000 1.0
-4.508736 1.471397 5.570227 0.500000 0.500000 0.500000 1.0
-4.508736 -1.471397 5.570227 0.500000 0.500000 0.500000 1.0
0.741723 1.635387 2.804637 0.500000 0.500000 0.500000 1.0
0.741683 -1.635310 2.804673 0.500000 0.500000 0.500000 1.0
5.301659 -0.916480 4.236605 0.500000 0.500000 0.500000 1.0
5.301659 0.916480 4.236605 0.500000 0.500000 0.500000 1.0
4.097649 -1.555247 5.093584 0.500000 0.500000 0.500000 1.0
4.097642 1.555247 5.093576 0.500000 0.500000 0.500000 1.0
3.143177 -1.579877 4.799247 0.500000 0.500000 0.500000 1.0
3.143213 1.579821 4.799258 0.500000 0.500000 0.500000 1.0
0.205295 1.666055 2.500584 0.500000 0.500000 0.500000 1.0
0.205315 -1.666055 2.500623 0.500000 0.500000 0.500000 1.0
1.066805 1.081248 2.495769 0.500000 0.500000 0.500000 1.0
1.066806 -1.081247 2.495770 0.500000 0.500000 0.500000 1.0
-4.025059 1.523648 5.134500 0.500000 0.500000 0.500000 1.0
-4.025059 -1.523648 5.134500 0.500000 0.500000 0.500000 1.0
-3.155308 1.533032 4.770539 0.500000 0.500000 0.500000 1.0
-3.155308 -1.533032 4.770539 0.500000 0.500000 0.500000 1.0
6.207180 -0.000000 5.150302 0.500000 0.500000 0.500000 1.0
2.510908 1.112965 4.427674 0.500000 0.500000 0.500000 1.0
2.511094 -1.113043 4.427673 0.500000 0.500000 0.500000 1.0
4.503333 -1.458221 4.602777 0.500000 0.500000 0.500000 1.0
4.503333 1.458220 4.602777 0.500000 0.500000 0.500000 1.0
-5.057898 0.895781 4.225016 0.500000 0.500000 0.500000 1.0
-5.057898 -0.895781 4.225016 0.500000 0.500000 0.500000 1.0
-0.423502 -1.472557 2.170774 0.500000 0.500000 0.500000 1.0
-0.423501 1.472559 2.170774 0.500000 0.500000 0.500000 1.0
-5.976576 0.000000 5.214651 0.500000 0.500000 0.500000 1.0
1.188914 0.000001 2.291674 0.500000 0.500000 0.500000 1.0
2.345218 -0.304480 3.521758 0.500000 0.500000 0.500000 1.0
2.345220 0.304478 3.521758 0.500000 0.500000 0.500000 1.0
-2.545897 1.135093 4.372487 0.500000 0.500000 0.500000 1.0
-2.545897 -1.135092 4.372488 0.500000 0.500000 0.500000 1.0
-4.320522 1.373849 4.492299 0.500000 0.500000 0.500000 1.0
-4.320522 -1.373849 4.492299 0.500000 0.500000 0.500000 1.0
-1.275607 -0.753084 1.682468 0.500000 0.500000 0.500000 1.0
-1.275606 0.753085 1.682469 0.500000 0.500000 0.500000 1.0
0.681628 1.280912 1.911417 0.500000 0.500000 0.500000 1.0
0.681629 -1.280910 1.911417 0.500000 0.500000 0.500000 1.0
-0.944851 -1.828650 5.062541 0.500000 0.500000 0.500000 1.0
3.915585 -1.430966 4.125521 0.500000 0.500000 0.500000 1.0
3.915585 1.430965 4.125522 0.500000 0.500000 0.500000 1.0
6.907771 0.000000 5.790634 1.0 1.0 0.0 1.0
4.716611 -0.809512 3.422928 0.500000 0.500000 0.500000 1.0
4.716611 0.809512 3.422928 0.500000 0.500000 0.500000 1.0
0.137323 1.164166 1.676968 1.000000 1.000000 1.000000 1.0
0.137323 -1.164163 1.676969 1.000000 1.000000 1.000000 1.0
3.242550 -1.298613 3.899786 0.500000 0.500000 0.500000 1.0
3.242549 1.298612 3.899786 0.500000 0.500000 0.500000 1.0
-3.845656 1.291304 4.174160 0.500000 0.500000 0.500000 1.0
-3.845656 -1.291304 4.174160 0.500000 0.500000 0.500000 1.0
-6.809240 -0.000000 5.789896 0.500000 0.500000 0.500000 1.0
4.167297 -1.153549 3.744770 0.500000 0.500000 0.500000 1.0
4.167297 1.153548 3.744770 0.500000 0.500000 0.500000 1.0
-2.659150 0.323629 3.743833 0.500000 0.500000 0.500000 1.0
-2.659150 -0.323628 3.743833 0.500000 0.500000 0.500000 1.0
0.695732 0.559223 1.759017 1.000000 1.000000 1.000000 1.0
0.695732 -0.559222 1.759017 1.000000 1.000000 1.000000 1.0
3 0 57 24
3 0 24 57
3 0 57 98
3 0 98 57
3 0 98 122
3 0 122 98
3 1 25 58
3 1 58 25
3 2 35 31
3 2 31 35
3 2 110 35
3 2 35 110
3 3 65 26
3 3 26 65
3 4 27 66
3 4 66 27
3 4 66 113
3 4 113 66
3 5 36 68
3 5 68 36
3 6 2 31
3 6 31 2
3 6 31 63
3 6 63 31
3 6 63 10
3 6 10 63
3 7 5 32
3 7 32 5
3 7 32 37
3 7 37 32
3 8 5 68
3 8 68 5
3 8 12 33
3 8 33 12
3 8 33 68
3 8 68 33
3 9 110 2
3 9 2 110
3 11 15 37
3 11 37 15
3 11 37 7
3 11 7 37
3 12 33 16
3 12 16 33
3 13 9 34
3 13 34 9
3 14 10 63
3 14 63 10
3 14 18 77
3 14 77 18
3 14 63 79
3 14 79 63
3 14 79 77
3 14 77 79
3 15 78 19
3 15 19 78
3 17 13 34
3 17 34 13
3 17 86 88
3 17 88 86
3 17 88 34
3 17 34 88
3 18 22 59
3 18 59 22
3 18 77 59
3 18 59 77
3 19 60 23
3 19 23 60
3 20 85 71
3 20 71 85
3 21 86 17
3 21 17 86
3 22 26 45
3 22 45 26
3 23 27 46
3 23 46 27
3 25 58 72
3 25 72 58
3 25 72 21
3 25 21 72
3 27 66 46
3 27 46 66
3 29 30 61
3 29 61 30
3 29 33 40
3 29 40 33
3 29 61 33
3 29 33 61
3 30 29 42
3 30 42 29
3 30 34 61
3 30 61 34
3 30 41 69
3 30 69 41
3 30 42 41
3 30 41 42
3 31 35 44
3 31 44 35
3 31 63 67
3 31 67 63
3 31 67 44
3 31 44 67
3 32 37 64
3 32 64 37
3 33 16 87
3 33 87 16
3 33 61 102
3 33 102 61
3 33 68 40
3 33 40 68
3 34 39 30
3 34 30 39
3 34 103 61
3 34 61 103
3 34 103 88
3 34 88 103
3 35 110 39
3 35 39 110
3 36 5 32
3 36 32 5
3 36 40 52
3 36 52 40
3 36 43 52
3 36 52 43
3 37 64 49
3 37 49 64
3 38 47 101
3 38 101 47
3 38 62 91
3 38 91 62
3 38 100 62
3 38 62 100
3 38 101 100
3 38 100 101
3 39 35 53
3 39 53 35
3 39 53 69
3 39 69 53
3 39 69 30
3 39 30 69
3 40 29 70
3 40 70 29
3 40 52 70
3 40 70 52
3 40 68 36
3 40 36 68
3 42 55 107
3 42 107 55
3 42 70 29
3 42 29 70
3 42 97 55
3 42 55 97
3 42 106 41
3 42 41 106
3 42 107 106
3 42 106 107
3 43 32 36
3 43 36 32
3 43 52 73
3 43 73 52
3 44 35 53
3 44 53 35
3 44 51 74
3 44 74 51
3 45 65 26
3 45 26 65
3 45 65 89
3 45 89 65
3 45 75 92
3 45 92 75
3 45 89 75
3 45 75 89
3 46 60 23
3 46 23 60
3 46 60 93
3 46 93 60
3 46 89 66
3 46 66 89
3 47 62 101
3 47 101 62
3 47 90 62
3 47 62 90
3 47 112 119
3 47 119 112
3 47 114 38
3 47 38 114
3 47 115 114
3 47 114 115
3 47 119 90
3 47 90 119
3 47 124 112
3 47 112 124
3 48 87 120
3 48 120 87
3 49 56 50
3 49 50 56
3 49 62 37
3 49 37 62
3 49 63 62
3 49 62 63
3 49 63 67
3 49 67 63
3 49 64 50
3 49 50 64
3 49 67 51
3 49 51 67
3 50 43 73
3 50 73 43
3 50 56 83
3 50 83 56
3 50 64 43
3 50 43 64
3 50 83 73
3 50 73 83
3 51 49 56
3 51 56 49
3 51 56 84
3 51 84 56
3 52 70 81
3 52 81 70
3 53 44 74
3 53 74 44
3 53 74 82
3 53 82 74
3 54 94 48
3 54 48 94
3 54 95 94
3 54 94 95
3 54 95 105
3 54 105 95
3 54 125 48
3 54 48 125
3 54 126 125
3 54 125 126
3 55 99 127
3 55 127 99
3 55 116 97
3 55 97 116
3 55 128 99
3 55 99 128
3 56 83 99
3 56 99 83
3 57 94 104
3 57 104 94
3 58 1 98
3 58 98 1
3 58 95 105
3 58 105 95
3 58 105 72
3 58 72 105
3 59 22 45
3 59 45 22
3 59 92 45
3 59 45 92
3 59 92 77
3 59 77 92
3 60 78 19
3 60 19 78
3 61 126 125
3 61 125 126
3 62 101 100
3 62 100 101
3 63 79 91
3 63 91 79
3 64 43 32
3 64 32 43
3 65 3 113
3 65 113 3
3 65 113 89
3 65 89 113
3 66 113 89
3 66 89 113
3 67 44 51
3 67 51 44
3 69 41 96
3 69 96 41
3 69 82 53
3 69 53 82
3 69 96 82
3 69 82 96
3 70 97 42
3 70 42 97
3 71 24 20
3 71 20 24
3 71 24 57
3 71 57 24
3 71 104 57
3 71 57 104
3 72 105 86
3 72 86 105
3 73 52 81
3 73 81 52
3 73 81 108
3 73 108 81
3 74 109 82
3 74 82 109
3 74 109 84
3 74 84 109
3 75 76 89
3 75 89 76
3 75 114 115
3 75 115 114
3 75 115 76
3 75 76 115
3 75 123 114
3 75 114 123
3 76 89 46
3 76 46 89
3 76 93 46
3 76 46 93
3 76 124 93
3 76 93 124
3 77 79 111
3 77 111 79
3 77 111 92
3 77 92 111
3 78 15 80
3 78 80 15
3 78 80 112
3 78 112 80
3 78 93 112
3 78 112 93
3 80 37 15
3 80 15 37
3 80 119 90
3 80 90 119
3 80 119 112
3 80 112 119
3 81 70 97
3 81 97 70
3 81 97 116
3 81 116 97
3 81 116 108
3 81 108 116
3 83 127 108
3 83 108 127
3 84 51 74
3 84 74 51
3 84 56 99
3 84 99 56
3 84 99 128
3 84 128 99
3 85 16 20
3 85 20 16
3 85 104 71
3 85 71 104
3 85 120 104
3 85 104 120
3 86 72 21
3 86 21 72
3 86 88 121
3 86 121 88
3 87 16 85
3 87 85 16
3 87 102 33
3 87 33 102
3 88 54 103
3 88 103 54
3 88 121 54
3 88 54 121
3 90 37 80
3 90 80 37
3 90 62 37
3 90 37 62
3 91 38 118
3 91 118 38
3 91 63 62
3 91 62 63
3 92 123 75
3 92 75 123
3 92 123 111
3 92 111 123
3 93 60 78
3 93 78 60
3 94 95 98
3 94 98 95
3 94 98 57
3 94 57 98
3 95 58 98
3 95 98 58
3 96 55 106
3 96 106 55
3 96 106 41
3 96 41 106
3 96 117 55
3 96 55 117
3 99 83 127
3 99 127 83
3 102 48 87
3 102 87 48
3 102 48 125
3 102 125 48
3 102 125 61
3 102 61 125
3 103 61 126
3 103 126 61
3 103 126 54
3 103 54 126
3 104 94 48
3 104 48 94
3 105 54 121
3 105 121 54
3 105 86 121
3 105 121 86
3 106 55 107
3 106 107 55
3 108 83 73
3 108 73 83
3 108 127 55
3 108 55 127
3 109 82 117
3 109 117 82
3 109 117 55
3 109 55 117
3 109 128 84
3 109 84 128
3 110 34 9
3 110 9 34
3 110 34 39
3 110 39 34
3 111 118 38
3 111 38 118
3 112 93 124
3 112 124 93
3 113 3 4
3 113 4 3
3 116 108 55
3 116 55 108
3 117 96 82
3 117 82 96
3 118 79 91
3 118 91 79
3 118 79 111
3 118 111 79
3 120 48 104
3 120 104 48
3 120 85 87
3 120 87 85
3 122 0 28
3 122 28 0
3 122 1 28
3 122 28 1
3 122 1 98
3 122 98 1
3 123 38 114
3 123 114 38
3 123 111 38
3 123 38 111
3 124 76 115
3 124 115 76
3 124 115 47
3 124 47 115
3 128 55 109
3 128 109 55
