 COFF
         129        1274         129
  
  -6.5513459483490468        1.0895691251676789        6.3472198929949979       0.60000002384185791       0.60000002384185791       0.60000002384185791       0.80000001192092896     
  -6.5513459486449177       -1.0895691248078194        6.3472198931817250       0.60000002384185791       0.60000002384185791       0.60000002384185791       0.80000001192092896     
  -3.2120610876786762E-002  -2.1917728972848947        5.9992885702926628       0.60000002384185791       0.60000002384185791       0.60000002384185791       0.80000001192092896     
   7.3984845482752064      -0.97319958711137522        6.5214133790491475       0.60000002384185791       0.60000002384185791       0.60000002384185791       0.80000001192092896     
   7.3984845484144879       0.97319958721276512        6.5214133788709221       0.60000002384185791       0.60000002384185791       0.60000002384185791       0.80000001192092896     
  -3.2120611501196036E-002   2.1917729122059182        5.9992885548149673       0.60000002384185791       0.60000002384185791       0.60000002384185791       0.80000001192092896     
   1.1353539229263094       -1.8713421555895622        6.1410586509833340       0.60000002384185791       0.60000002384185791       0.60000002384185791       0.80000001192092896     
   1.1353539258348404        1.8713421664928040        6.1410586392301241       0.60000002384185791       0.60000002384185791       0.60000002384185791       0.80000001192092896     
  -1.1579450829698212        1.8560961722279161        6.1098656676968828       0.60000002384185791       0.60000002384185791       0.60000002384185791       0.80000001192092896     
  -1.1579450830788527       -1.8560961738113615        6.1098656661926913       0.60000002384185791       0.60000002384185791       0.60000002384185791       0.80000001192092896     
   2.0489068027876844       -1.5564139765494911        6.3993422644115716       0.60000002384185791       0.60000002384185791       0.60000002384185791       0.80000001192092896     
   2.0489068048759309        1.5564139863520621        6.3993422542066156       0.60000002384185791       0.60000002384185791       0.60000002384185791       0.80000001192092896     
  -2.0772147875573683        1.5655901129768348        6.3755269863929440       0.60000002384185791       0.60000002384185791       0.60000002384185791       0.80000001192092896     
  -2.0772147878988885       -1.5655901148246514        6.3755269844164077       0.60000002384185791       0.60000002384185791       0.60000002384185791       0.80000001192092896     
   3.0568711317193347       -1.6771566020772524        6.1780698330850834       0.60000002384185791       0.60000002384185791       0.60000002384185791       0.80000001192092896     
   3.0568670974636456        1.6771559938894320        6.1780662277338445       0.60000002384185791       0.60000002384185791       0.60000002384185791       0.80000001192092896     
  -3.0400769764583888        1.6708468023731673        6.1279754718027872       0.60000002384185791       0.60000002384185791       0.60000002384185791       0.80000001192092896     
  -3.0400769760112043       -1.6708468065393511        6.1279754676448412       0.60000002384185791       0.60000002384185791       0.60000002384185791       0.80000001192092896     
   4.1159903865186607       -1.5943159481929881        6.2793303248892514       0.60000002384185791       0.60000002384185791       0.60000002384185791       0.80000001192092896     
   4.1159903862302789        1.5943159543711312        6.2793303187479124       0.60000002384185791       0.60000002384185791       0.60000002384185791       0.80000001192092896     
  -4.0770909728731564        1.5845307645267106        6.2306597775008035       0.60000002384185791       0.60000002384185791       0.60000002384185791       0.80000001192092896     
  -4.0770909729353102       -1.5845307651538267        6.2306597761337121       0.60000002384185791       0.60000002384185791       0.60000002384185791       0.80000001192092896     
   5.1037332012043519       -1.3756399007265079        6.3499299512617711       0.60000002384185791       0.60000002384185791       0.60000002384185791       0.80000001192092896     
   5.1037332013943359        1.3756399014539102        6.3499299504358380       0.60000002384185791       0.60000002384185791       0.60000002384185791       0.80000001192092896     
  -5.0707023699207694        1.3841862264338824        6.2796931763027031       0.60000002384185791       0.60000002384185791       0.60000002384185791       0.80000001192092896     
  -5.0707023697963987       -1.3841862265217393        6.2796931762340380       0.60000002384185791       0.60000002384185791       0.60000002384185791       0.80000001192092896     
   6.0900647850304086       -1.2174182910041189        6.4372669812529359       0.60000002384185791       0.60000002384185791       0.60000002384185791       0.80000001192092896     
   6.0900647852309922        1.2174182917762408        6.4372669804388343       0.60000002384185791       0.60000002384185791       0.60000002384185791       0.80000001192092896     
  -7.6416429604788183       -6.9361550140277373E-009   6.3582650942596262       0.60000002384185791       0.60000002384185791       0.60000002384185791       0.80000001192092896     
  -1.7108140568413248       0.85994354884117608        3.8970608272976199       0.60000002384185791       0.60000002384185791       0.60000002384185791       0.80000001192092896     
  -1.7108141931269207      -0.85994243797461323        3.8970608684800041       0.60000002384185791       0.60000002384185791       0.60000002384185791       0.80000001192092896     
  0.93627321266006414       -1.8107116926369327        4.7940274320547500       0.60000002384185791       0.60000002384185791       0.60000002384185791       0.80000001192092896     
  0.93627119593810482        1.8107124714569751        4.7940277142233976       0.60000002384185791       0.60000002384185791       0.60000002384185791       0.80000001192092896     
  -2.0879881050303779        1.5404392933585811        5.2114441366133670       0.60000002384185791       0.60000002384185791       0.60000002384185791       0.80000001192092896     
  -2.0879882629846538       -1.5404391913883588        5.2114444934388295       0.60000002384185791       0.60000002384185791       0.60000002384185791       0.80000001192092896     
   5.2998796166128875E-002  -1.9163733315911944        4.6356503775792799       0.60000002384185791       0.60000002384185791       0.60000002384185791       0.80000001192092896     
   5.2985243251107990E-002   1.9163677455844572        4.6356505139366080       0.60000002384185791       0.60000002384185791       0.60000002384185791       0.80000001192092896     
   2.0989496532700578        1.5274593275965134        5.3229060530642398       0.60000002384185791       0.60000002384185791       0.60000002384185791       0.80000001192092896     
   3.5682315188189526      -0.61918177978649536        2.8604699335027806        1.0000000000000000        1.0000000000000000        0.0000000000000000        1.0000000000000000     
 -0.78245425677813940       -1.7960438740777678        4.1340903934631203       0.60000002384185791       0.60000002384185791       0.60000002384185791       0.80000001192092896     
 -0.78245374295237768        1.7960445331818273        4.1340907358321948       0.60000002384185791       0.60000002384185791       0.60000002384185791       0.80000001192092896     
  -1.4151270374649609      -0.96738838783172321        2.5269725353542052       0.60000002384185791       0.60000002384185791       0.60000002384185791       0.80000001192092896     
  -1.4151262735933396       0.96738996574331348        2.5269717966525045       0.60000002384185791       0.60000002384185791       0.60000002384185791       0.80000001192092896     
  0.82075442718519165        1.7901282000417156        3.7564419755846452       0.60000002384185791       0.60000002384185791       0.60000002384185791       0.80000001192092896     
  0.82062635211130674       -1.7899966690869613        3.7564279090758457       0.60000002384185791       0.60000002384185791       0.60000002384185791       0.80000001192092896     
   5.5560160587424612       -1.2748087803766663        5.4972604708799926       0.60000002384185791       0.60000002384185791       0.60000002384185791       0.80000001192092896     
   5.5560158620769027        1.2748085489759400        5.4972605884949823       0.60000002384185791       0.60000002384185791       0.60000002384185791       0.80000001192092896     
   3.5682314513152376       0.61918169698757375        2.8604699335027806        1.0000000000000000        1.0000000000000000        0.0000000000000000        1.0000000000000000     
  -3.5376896408344853       0.65977963210378099        3.1375182682895115        1.0000000000000000        1.0000000000000000        0.0000000000000000        1.0000000000000000     
   1.7387528966820971       -1.0902722393785563E-006   4.3508393331340320       0.60000002384185791       0.60000002384185791       0.60000002384185791       0.80000001192092896     
   1.1759074363503232        1.3348653900025043        3.4544920479668093       0.60000002384185791       0.60000002384185791       0.60000002384185791       0.80000001192092896     
   1.1758796354431873       -1.3348810507766651        3.4544548847775056       0.60000002384185791       0.60000002384185791       0.60000002384185791       0.80000001192092896     
  0.16418545106198795        1.8270442734651784        3.5501354195985972       0.60000002384185791       0.60000002384185791       0.60000002384185791       0.80000001192092896     
  0.16406546894976673       -1.8269425859803783        3.5501357139656831       0.60000002384185791       0.60000002384185791       0.60000002384185791       0.80000001192092896     
  -3.5376896238516595      -0.65977956374499580        3.1375182682895115        1.0000000000000000        1.0000000000000000        0.0000000000000000        1.0000000000000000     
  0.12330318388435091        2.3943321666114880E-007   1.0382578837327854        1.0000000000000000        1.0000000000000000        0.0000000000000000        1.0000000000000000     
   1.3674009286443305        6.4970859204347411E-007   3.0821213898277793       0.60000002384185791       0.60000002384185791       0.60000002384185791       0.80000001192092896     
  -5.2695112420339560        1.2357839961439787        5.2590865781743519       0.60000002384185791       0.60000002384185791       0.60000002384185791       0.80000001192092896     
  -5.2695112443232288       -1.2357839960223991        5.2590865808523262       0.60000002384185791       0.60000002384185791       0.60000002384185791       0.80000001192092896     
   4.5855637897915251       -1.4901438391765858        5.5986151903776022       0.60000002384185791       0.60000002384185791       0.60000002384185791       0.80000001192092896     
   4.5855860610299581        1.4901939190410367        5.5986232787506669       0.60000002384185791       0.60000002384185791       0.60000002384185791       0.80000001192092896     
  -2.0880482134012861        4.1350907912443994E-007   4.4511980328870120       0.60000002384185791       0.60000002384185791       0.60000002384185791       0.80000001192092896     
   2.0991782958895722        3.4127672754299569E-005   4.6285719138616148       0.60000002384185791       0.60000002384185791       0.60000002384185791       0.80000001192092896     
   2.0989227833040314       -1.5274579884517165        5.3229115393168298       0.60000002384185791       0.60000002384185791       0.60000002384185791       0.80000001192092896     
   1.3032867970174560        1.6772856488903076        4.4933438886657262       0.60000002384185791       0.60000002384185791       0.60000002384185791       0.80000001192092896     
   6.6491925681035511       -1.0677388282608793        5.9186128042820068       0.60000002384185791       0.60000002384185791       0.60000002384185791       0.80000001192092896     
   6.6491925689562859        1.0677388289240659        5.9186128076439886       0.60000002384185791       0.60000002384185791       0.60000002384185791       0.80000001192092896     
   1.3032752180054903       -1.6772900398767374        4.4933206048974679       0.60000002384185791       0.60000002384185791       0.60000002384185791       0.80000001192092896     
 -0.94485067629295527        1.8286498609421717        5.0625407645970837       0.60000002384185791       0.60000002384185791       0.60000002384185791       0.80000001192092896     
 -0.54566473338046217       -1.6118155880306622        3.1854954570244280       0.60000002384185791       0.60000002384185791       0.60000002384185791       0.80000001192092896     
 -0.54566460250153559        1.6118176279397953        3.1854956778481442       0.60000002384185791       0.60000002384185791       0.60000002384185791       0.80000001192092896     
  -4.5087363627262711        1.4713972417389722        5.5702273965817461       0.60000002384185791       0.60000002384185791       0.60000002384185791       0.80000001192092896     
  -4.5087363660901216       -1.4713972432406344        5.5702274005262487       0.60000002384185791       0.60000002384185791       0.60000002384185791       0.80000001192092896     
  0.74172299043280709        1.6353874192665716        2.8046365119746466       0.60000002384185791       0.60000002384185791       0.60000002384185791       0.80000001192092896     
  0.74168285361196706       -1.6353104009867288        2.8046727019589195       0.60000002384185791       0.60000002384185791       0.60000002384185791       0.80000001192092896     
   5.3016592051971800      -0.91648027408048893        4.2366051274229779       0.60000002384185791       0.60000002384185791       0.60000002384185791       0.80000001192092896     
   5.3016593570219479       0.91648012196192619        4.2366050189610442       0.60000002384185791       0.60000002384185791       0.60000002384185791       0.80000001192092896     
   4.0976492534873135       -1.5552467627319044        5.0935837228510401       0.60000002384185791       0.60000002384185791       0.60000002384185791       0.80000001192092896     
   4.0976416939946896        1.5552474231415232        5.0935755814864994       0.60000002384185791       0.60000002384185791       0.60000002384185791       0.80000001192092896     
   3.1431767227272491       -1.5798765723068291        4.7992474527970277       0.60000002384185791       0.60000002384185791       0.60000002384185791       0.80000001192092896     
   3.1432128379041111        1.5798207069220851        4.7992577150006817       0.60000002384185791       0.60000002384185791       0.60000002384185791       0.80000001192092896     
  0.20529529450615444        1.6660553119410404        2.5005836579766569       0.60000002384185791       0.60000002384185791       0.60000002384185791       0.80000001192092896     
  0.20531478706609432       -1.6660554190612928        2.5006232649500673       0.60000002384185791       0.60000002384185791       0.60000002384185791       0.80000001192092896     
   1.0668045459560420        1.0812479325124700        2.4957688005197034       0.60000002384185791       0.60000002384185791       0.60000002384185791       0.80000001192092896     
   1.0668059991019756       -1.0812469313084223        2.4957696619217109       0.60000002384185791       0.60000002384185791       0.60000002384185791       0.80000001192092896     
  -4.0250592412606130        1.5236480952711882        5.1345003292533935       0.60000002384185791       0.60000002384185791       0.60000002384185791       0.80000001192092896     
  -4.0250592429512260       -1.5236480978688713        5.1345003240409612       0.60000002384185791       0.60000002384185791       0.60000002384185791       0.80000001192092896     
  -3.1553077048948563        1.5330319909738401        4.7705390264011580       0.60000002384185791       0.60000002384185791       0.60000002384185791       0.80000001192092896     
  -3.1553076959133350       -1.5330319725393358        4.7705389659379049       0.60000002384185791       0.60000002384185791       0.60000002384185791       0.80000001192092896     
   6.2071799190332175       -6.2687287055894762E-009   5.1503017891061296       0.60000002384185791       0.60000002384185791       0.60000002384185791       0.80000001192092896     
   2.5109080207638668        1.1129650190835341        4.4276743047359881       0.60000002384185791       0.60000002384185791       0.60000002384185791       0.80000001192092896     
   2.5110938350062026       -1.1130430224547878        4.4276731900662982       0.60000002384185791       0.60000002384185791       0.60000002384185791       0.80000001192092896     
   4.5033325196841583       -1.4582210797213702        4.6027771295992004       0.60000002384185791       0.60000002384185791       0.60000002384185791       0.80000001192092896     
   4.5033325909743311        1.4582204098729108        4.6027770969065953       0.60000002384185791       0.60000002384185791       0.60000002384185791       0.80000001192092896     
  -5.0578975788783591       0.89578058377572889        4.2250162298485661       0.60000002384185791       0.60000002384185791       0.60000002384185791       0.80000001192092896     
  -5.0578975886615787      -0.89578057261628541        4.2250162228707344       0.60000002384185791       0.60000002384185791       0.60000002384185791       0.80000001192092896     
 -0.42350229477011408       -1.4725573151250528        2.1707738700034338       0.60000002384185791       0.60000002384185791       0.60000002384185791       0.80000001192092896     
 -0.42350129639913608        1.4725592208146046        2.1707737034180785       0.60000002384185791       0.60000002384185791       0.60000002384185791       0.80000001192092896     
  -5.9765755478279123        2.8900964401652124E-009   5.2146510300459195       0.60000002384185791       0.60000002384185791       0.60000002384185791       0.80000001192092896     
   1.1889141847213176        8.0487261685289240E-007   2.2916738079629577       0.60000002384185791       0.60000002384185791       0.60000002384185791       0.80000001192092896     
   2.3452181300283885      -0.30448034156487952        3.5217575514697805       0.60000002384185791       0.60000002384185791       0.60000002384185791       0.80000001192092896     
   2.3452202420725570       0.30447845501647103        3.5217575363337241       0.60000002384185791       0.60000002384185791       0.60000002384185791       0.80000001192092896     
  -2.5458971699802615        1.1350929076887679        4.3724868364181386       0.60000002384185791       0.60000002384185791       0.60000002384185791       0.80000001192092896     
  -2.5458966532349367       -1.1350922191325374        4.3724875981294158       0.60000002384185791       0.60000002384185791       0.60000002384185791       0.80000001192092896     
  -4.3205223951480098        1.3738493780200509        4.4922985637347628       0.60000002384185791       0.60000002384185791       0.60000002384185791       0.80000001192092896     
  -4.3205224117160679       -1.3738493791593041        4.4922985490298970       0.60000002384185791       0.60000002384185791       0.60000002384185791       0.80000001192092896     
  -1.2756069165230735      -0.75308384078986612        1.6824683916205234       0.60000002384185791       0.60000002384185791       0.60000002384185791       0.80000001192092896     
  -1.2756061443605577       0.75308498548609171        1.6824685323651833       0.60000002384185791       0.60000002384185791       0.60000002384185791       0.80000001192092896     
  0.68162750661308735        1.2809122271526876        1.9114170545128797       0.60000002384185791       0.60000002384185791       0.60000002384185791       0.80000001192092896     
  0.68162898661093063       -1.2809103686228152        1.9114170740275866       0.60000002384185791       0.60000002384185791       0.60000002384185791       0.80000001192092896     
 -0.94485089220126195       -1.8286497148820202        5.0625406838790825       0.60000002384185791       0.60000002384185791       0.60000002384185791       0.80000001192092896     
   3.9155851638930703       -1.4309657995003149        4.1255214902161397       0.60000002384185791       0.60000002384185791       0.60000002384185791       0.80000001192092896     
   3.9155854795097889        1.4309649987599036        4.1255216171680411       0.60000002384185791       0.60000002384185791       0.60000002384185791       0.80000001192092896     
   6.9077713268931493        8.7554091131047596E-010   5.7906337537027941        1.0000000000000000        1.0000000000000000        0.0000000000000000        1.0000000000000000     
   4.7166106884965968      -0.80951217794740526        3.4229281502452293       0.60000002384185791       0.60000002384185791       0.60000002384185791       0.80000001192092896     
   4.7166106624620001       0.80951223590253385        3.4229281816572619       0.60000002384185791       0.60000002384185791       0.60000002384185791       0.80000001192092896     
  0.13732262490354449        1.1641655629105006        1.6769683436381504        1.0000000000000000       0.10000000149011612        0.0000000000000000       0.50000000000000000     
  0.13732276460425685       -1.1641634194277692        1.6769693326604342        1.0000000000000000       0.10000000149011612        0.0000000000000000       0.50000000000000000     
   3.2425502187584381       -1.2986127937556191        3.8997861378398415       0.60000002384185791       0.60000002384185791       0.60000002384185791       0.80000001192092896     
   3.2425491753121989        1.2986122978364554        3.8997862931912870       0.60000002384185791       0.60000002384185791       0.60000002384185791       0.80000001192092896     
  -3.8456556533063373        1.2913035271830200        4.1741598220575362       0.60000002384185791       0.60000002384185791       0.60000002384185791       0.80000001192092896     
  -3.8456556063217238       -1.2913035230575278        4.1741598057356510       0.60000002384185791       0.60000002384185791       0.60000002384185791       0.80000001192092896     
  -6.8092395675999837       -3.6262310648086776E-009   5.7898955104834648       0.60000002384185791       0.60000002384185791       0.60000002384185791       0.80000001192092896     
   4.1672970047539746       -1.1535487088165228        3.7447703903030507       0.60000002384185791       0.60000002384185791       0.60000002384185791       0.80000001192092896     
   4.1672969840104050        1.1535484855529943        3.7447703510069341       0.60000002384185791       0.60000002384185791       0.60000002384185791       0.80000001192092896     
  -2.6591498697397680       0.32362853934925673        3.7438331353156546       0.60000002384185791       0.60000002384185791       0.60000002384185791       0.80000001192092896     
  -2.6591499743952776      -0.32362798995807290        3.7438331353156546       0.60000002384185791       0.60000002384185791       0.60000002384185791       0.80000001192092896     
  0.69573182326788741       0.55922279101113537        1.7590165888788163        1.0000000000000000       0.10000000149011612        0.0000000000000000       0.50000000000000000     
  0.69573152880801392      -0.55922162097347894        1.7590172477859540        1.0000000000000000       0.10000000149011612        0.0000000000000000       0.50000000000000000     
  
   3   0  24  57
   3   0  57  24
   3   0  57  98
   3   0  98 122
   3   0  98  57
   3   0 122  98
   3   0 122  28
   3   0  28 122
   4   0  28   1  98
   3   1  28 122
   4   1  28   0  98
   3   1 122  98
   3   1 122  28
   3   1  98  58
   3   1  98 122
   3   1  58  98
   3   1  58  25
   3   1  25  58
   3   2  35 110
   3   2  35  31
   3   2  31  35
   3   2  31   6
   3   2   6  31
   3   2   9 110
   3   2 110  35
   3   2 110   9
   3   3   4 113
   3   3  26  65
   3   3  65  26
   3   3  65 113
   3   3 113   4
   3   3 113  65
   3   4   3 113
   3   4 113  66
   3   4 113   3
   3   4  66 113
   3   4  66  27
   3   4  27  66
   3   5   7  32
   3   5  32  36
   3   5  32   7
   3   5  36  32
   3   5  36  68
   3   5  68  36
   3   5  68   8
   3   5   8  68
   3   6   2  31
   3   6  31   2
   3   6  31  63
   3   6  63  10
   3   6  63  31
   3   6  10  63
   3   7  11  37
   3   7  37  32
   3   7  37  11
   3   7  32  37
   3   7  32   5
   3   7   5  32
   3   8   5  68
   3   8  68   5
   3   8  68  33
   3   8  33  12
   3   8  33  68
   3   8  12  33
   3   9  13  34
   3   9  34 110
   3   9  34  13
   3   9 110  34
   3   9 110   2
   3   9   2 110
   3  10   6  63
   3  10  63  14
   3  10  63   6
   3  10  14  63
   3  11  15  37
   3  11  37   7
   3  11  37  15
   3  11   7  37
   3  12   8  33
   3  12  33  16
   3  12  33   8
   3  12  16  33
   3  13  17  34
   3  13  34   9
   3  13  34  17
   3  13   9  34
   3  14  10  63
   3  14  63  79
   3  14  63  10
   3  14  79  63
   3  14  79  77
   3  14  77  79
   3  14  77  18
   3  14  18  77
   3  15  19  78
   3  15  78  80
   3  15  78  19
   3  15  80  78
   3  15  80  37
   3  15  37  11
   3  15  37  80
   3  15  11  37
   3  16  12  33
   3  16  33  87
   3  16  33  12
   3  16  87  33
   3  16  87  85
   3  16  85  87
   3  16  85  20
   3  16  20  85
   3  17  21  86
   3  17  86  88
   3  17  86  21
   3  17  88  86
   3  17  88  34
   3  17  34  13
   3  17  34  88
   3  17  13  34
   3  18  14  77
   3  18  77  14
   3  18  77  59
   3  18  59  77
   3  18  59  22
   3  18  22  59
   3  19  23  60
   3  19  60  78
   3  19  60  23
   3  19  78  60
   3  19  78  15
   3  19  15  78
   3  20  16  85
   3  20  85  16
   3  20  85  71
   3  20  71  85
   3  20  71  24
   3  20  24  71
   3  21  25  72
   3  21  72  86
   3  21  72  25
   3  21  86  72
   3  21  86  17
   3  21  17  86
   3  22  18  59
   3  22  59  18
   3  22  59  45
   3  22  45  26
   3  22  45  59
   3  22  26  45
   3  23  27  46
   3  23  46  60
   3  23  46  27
   3  23  60  46
   3  23  60  19
   3  23  19  60
   3  24  20  71
   3  24  71  20
   3  24  71  57
   3  24  57   0
   3  24  57  71
   3  24   0  57
   3  25   1  58
   3  25  58   1
   3  25  58  72
   3  25  72  58
   3  25  72  21
   3  25  21  72
   3  26  22  45
   3  26  45  65
   3  26  45  22
   3  26  65   3
   3  26  65  45
   3  26   3  65
   3  27   4  66
   3  27  66   4
   3  27  66  46
   3  27  46  66
   3  27  46  23
   3  27  23  46
   3  28   0 122
   4  28   0  98   1
   3  28 122   0
   3  28 122   1
   3  28   1 122
   4  28   1  98   0
   3  29  33  40
   3  29  33  61
   3  29  40  33
   3  29  40  70
   3  29  70  42
   3  29  70  40
   3  29  42  70
   4  29  42  41  30
   3  29  30  61
   4  29  30  41  42
   3  29  61  30
   3  29  61  33
   3  30  34  61
   3  30  34  39
   3  30  61  29
   3  30  61  34
   3  30  29  61
   4  30  29  42  41
   3  30  41  69
   4  30  41  42  29
   3  30  69  41
   3  30  69  39
   3  30  39  34
   3  30  39  69
   3  31   2  35
   3  31   2   6
   3  31  35  44
   3  31  35   2
   3  31  44  67
   3  31  44  35
   3  31  67  63
   3  31  67  44
   3  31  63   6
   3  31  63  67
   3  31   6   2
   3  31   6  63
   3  32  37  64
   3  32  37   7
   3  32  64  37
   3  32  64  43
   3  32  43  36
   3  32  43  64
   3  32  36  43
   3  32  36   5
   3  32   5   7
   3  32   5  36
   3  32   7  37
   3  32   7   5
   3  33 102  61
   3  33 102  87
   3  33  87 102
   3  33  87  16
   3  33  16  12
   3  33  16  87
   3  33  12   8
   3  33  12  16
   3  33   8  68
   3  33   8  12
   3  33  68  40
   3  33  68   8
   3  33  40  29
   3  33  40  68
   3  33  29  40
   3  33  29  61
   3  33  61  29
   3  33  61 102
   3  34 103  88
   3  34 103  61
   3  34  61  30
   3  34  61 103
   3  34  30  61
   3  34  30  39
   3  34  39 110
   3  34  39  30
   3  34 110  39
   3  34 110   9
   3  34   9  13
   3  34   9 110
   3  34  13  17
   3  34  13   9
   3  34  17  88
   3  34  17  13
   3  34  88 103
   3  34  88  17
   3  35 110  39
   3  35 110   2
   3  35  39 110
   3  35  39  53
   3  35  53  44
   3  35  53  39
   3  35  44  31
   3  35  44  53
   3  35  31   2
   3  35  31  44
   3  35   2  31
   3  35   2 110
   3  36  32  43
   3  36  32   5
   3  36  43  32
   3  36  43  52
   3  36  52  40
   3  36  52  43
   3  36  40  68
   3  36  40  52
   3  36  68   5
   3  36  68  40
   3  36   5  32
   3  36   5  68
   3  37  90  80
   3  37  90  62
   3  37  62  49
   3  37  62  90
   3  37  49  62
   3  37  49  64
   3  37  64  49
   3  37  64  32
   3  37  32  64
   3  37  32   7
   3  37   7  11
   3  37   7  32
   3  37  11  15
   3  37  11   7
   3  37  15  80
   3  37  15  11
   3  37  80  90
   3  37  80  15
   3  38 114 123
   4  38 114 115  47
   3  38 123 114
   3  38 123 111
   3  38 111 118
   3  38 111 123
   3  38 118 111
   3  38 118  91
   3  38  91 118
   4  38  91  79 111
   3  39  35 110
   3  39  35  53
   3  39 110  34
   3  39 110  35
   3  39  34  30
   3  39  34 110
   3  39  30  34
   3  39  30  69
   3  39  69  30
   3  39  69  53
   3  39  53  35
   3  39  53  69
   3  40  29  33
   3  40  29  70
   3  40  33  68
   3  40  33  29
   3  40  68  36
   3  40  68  33
   3  40  36  52
   3  40  36  68
   3  40  52  36
   3  40  52  70
   3  40  70  52
   3  40  70  29
   3  41  96  69
   4  41  96  55 106
   3  41  69  30
   3  41  69  96
   3  41  30  69
   4  41  30  29  42
   3  42  29  70
   4  42  29  30  41
   3  42  70  97
   3  42  70  29
   3  42  97  70
   4  42  97  55 107
   3  43  36  32
   3  43  36  52
   3  43  32  64
   3  43  32  36
   3  43  64  50
   3  43  64  32
   3  43  50  64
   3  43  50  73
   3  43  73  50
   3  43  73  52
   3  43  52  36
   3  43  52  73
   3  44  67  51
   3  44  67  31
   3  44  31  35
   3  44  31  67
   3  44  35  53
   3  44  35  31
   3  44  53  35
   3  44  53  74
   3  44  74  53
   3  44  74  51
   3  44  51  67
   3  44  51  74
   3  45  65  26
   3  45  65  89
   3  45  26  22
   3  45  26  65
   3  45  22  59
   3  45  22  26
   3  45  59  92
   3  45  59  22
   3  45  92  75
   3  45  92  59
   3  45  75  89
   3  45  75  92
   3  45  89  75
   3  45  89  65
   3  46  66  89
   3  46  66  27
   3  46  89  76
   3  46  89  66
   3  46  76  89
   3  46  76  93
   3  46  93  60
   3  46  93  76
   3  46  60  93
   3  46  60  23
   3  46  23  27
   3  46  23  60
   3  46  27  66
   3  46  27  23
   3  47 115 124
   4  47 115 114  38
   3  47  90 119
   4  47  90  80 112
   3  47 119  90
   3  47 119 112
   3  47 112 124
   3  47 112 119
   3  47 124 112
   3  47 124 115
   3  48  94 104
   4  48  94  95  54
   3  48 104  94
   3  48 104 120
   3  48 120 104
   3  48 120  87
   3  48  87 102
   3  48  87 120
   3  48 102  87
   4  48 102  61 125
   3  49  37  62
   3  49  37  64
   3  49  62  37
   3  49  62  63
   3  49  63  67
   3  49  63  62
   3  49  67  51
   3  49  67  63
   3  49  51  67
   3  49  51  56
   3  49  56  51
   3  49  56  50
   3  49  50  64
   3  49  50  56
   3  49  64  37
   3  49  64  50
   3  50  43  64
   3  50  43  73
   3  50  64  49
   3  50  64  43
   3  50  49  56
   3  50  49  64
   3  50  56  83
   3  50  56  49
   3  50  83  56
   3  50  83  73
   3  50  73  83
   3  50  73  43
   3  51  49  67
   3  51  49  56
   3  51  67  49
   3  51  67  44
   3  51  44  67
   3  51  44  74
   3  51  74  84
   3  51  74  44
   3  51  84  74
   3  51  84  56
   3  51  56  84
   3  51  56  49
   3  52  40  36
   3  52  40  70
   3  52  36  43
   3  52  36  40
   3  52  43  36
   3  52  43  73
   3  52  73  81
   3  52  73  43
   3  52  81  73
   3  52  81  70
   3  52  70  81
   3  52  70  40
   3  53  44  35
   3  53  44  74
   3  53  35  39
   3  53  35  44
   3  53  39  35
   3  53  39  69
   3  53  69  82
   3  53  69  39
   3  53  82  69
   3  53  82  74
   3  53  74  82
   3  53  74  44
   3  54  95 105
   4  54  95  94  48
   3  54 103  88
   4  54 103  61 126
   3  54  88 121
   3  54  88 103
   3  54 121  88
   3  54 121 105
   3  54 105  95
   3  54 105 121
   3  55 116  97
   3  55 116 108
   3  55 108 127
   3  55 108 116
   3  55 127 108
   3  55 127  99
   3  55  99 128
   3  55  99 127
   3  55 128  99
   3  55 128 109
   3  55 109 117
   3  55 109 128
   3  55 117 109
   3  55 117  96
   3  55  96 117
   4  55  96  82 109
   3  55 106 107
   4  55 106  41  96
   3  55 107 106
   4  55 107  42  97
   3  55  97 116
   4  55  97  42 107
   3  56  51  49
   3  56  51  84
   3  56  84  99
   3  56  84  51
   3  56  99  83
   3  56  99  84
   3  56  83  99
   3  56  83  50
   3  56  50  49
   3  56  50  83
   3  56  49  51
   3  56  49  50
   3  57   0  24
   3  57   0  98
   3  57  24  71
   3  57  24   0
   3  57  71 104
   3  57  71  24
   3  57 104  94
   3  57 104  71
   3  57  94  98
   3  57  94 104
   3  57  98  94
   3  57  98   0
   3  58   1  98
   3  58   1  25
   3  58  98  95
   3  58  98   1
   3  58  95 105
   3  58  95  98
   3  58 105  72
   3  58 105  95
   3  58  72 105
   3  58  72  25
   3  58  25   1
   3  58  25  72
   3  59  18  77
   3  59  18  22
   3  59  77  92
   3  59  77  18
   3  59  92  45
   3  59  92  77
   3  59  45  22
   3  59  45  92
   3  59  22  18
   3  59  22  45
   3  60  46  93
   3  60  46  23
   3  60  93  78
   3  60  93  46
   3  60  78  93
   3  60  78  19
   3  60  19  23
   3  60  19  78
   3  60  23  46
   3  60  23  19
   3  61  29  33
   3  61  29  30
   3  61  30  34
   3  61  30  29
   3  61  34 103
   3  61  34  30
   3  61 103  34
   4  61 103  54 126
   3  61 126 125
   4  61 126  54 103
   3  61 125 126
   4  61 125  48 102
   3  61 102  33
   4  61 102  48 125
   3  61  33 102
   3  61  33  29
   3  62  49  37
   3  62  49  63
   3  62  37  90
   3  62  37  49
   3  62  90  37
   4  62  90  47 101
   3  62 101 100
   4  62 101  47  90
   3  62 100 101
   4  62 100  38  91
   3  62  91  63
   4  62  91  38 100
   3  62  63  91
   3  62  63  49
   3  63  91  79
   3  63  91  62
   3  63  79  91
   3  63  79  14
   3  63  14  10
   3  63  14  79
   3  63  10   6
   3  63  10  14
   3  63   6  31
   3  63   6  10
   3  63  31  67
   3  63  31   6
   3  63  67  49
   3  63  67  31
   3  63  49  62
   3  63  49  67
   3  63  62  49
   3  63  62  91
   3  64  37  49
   3  64  37  32
   3  64  49  37
   3  64  49  50
   3  64  50  43
   3  64  50  49
   3  64  43  32
   3  64  43  50
   3  64  32  37
   3  64  32  43
   3  65   3  26
   3  65   3 113
   3  65  26  45
   3  65  26   3
   3  65  45  26
   3  65  45  89
   3  65  89 113
   3  65  89  45
   3  65 113  89
   3  65 113   3
   3  66   4 113
   3  66   4  27
   3  66 113  89
   3  66 113   4
   3  66  89  46
   3  66  89 113
   3  66  46  89
   3  66  46  27
   3  66  27   4
   3  66  27  46
   3  67  51  49
   3  67  51  44
   3  67  49  63
   3  67  49  51
   3  67  63  31
   3  67  63  49
   3  67  31  44
   3  67  31  63
   3  67  44  31
   3  67  44  51
   3  68   5  36
   3  68   5   8
   3  68  36  40
   3  68  36   5
   3  68  40  33
   3  68  40  36
   3  68  33   8
   3  68  33  40
   3  68   8   5
   3  68   8  33
   3  69  30  41
   3  69  30  39
   3  69  41  96
   3  69  41  30
   3  69  96  82
   3  69  96  41
   3  69  82  96
   3  69  82  53
   3  69  53  39
   3  69  53  82
   3  69  39  30
   3  69  39  53
   3  70  52  40
   3  70  52  81
   3  70  81  97
   3  70  81  52
   3  70  97  42
   3  70  97  81
   3  70  42  29
   3  70  42  97
   3  70  29  40
   3  70  29  42
   3  70  40  29
   3  70  40  52
   3  71  20  85
   3  71  20  24
   3  71  85 104
   3  71  85  20
   3  71 104  57
   3  71 104  85
   3  71  57  24
   3  71  57 104
   3  71  24  20
   3  71  24  57
   3  72  58 105
   3  72  58  25
   3  72 105  86
   3  72 105  58
   3  72  86 105
   3  72  86  21
   3  72  21  25
   3  72  21  86
   3  72  25  58
   3  72  25  21
   3  73  50  43
   3  73  50  83
   3  73  83 108
   3  73  83  50
   3  73 108  81
   3  73 108  83
   3  73  81 108
   3  73  81  52
   3  73  52  43
   3  73  52  81
   3  73  43  50
   3  73  43  52
   3  74  53  44
   3  74  53  82
   3  74  82 109
   3  74  82  53
   3  74 109  84
   3  74 109  82
   3  74  84 109
   3  74  84  51
   3  74  51  44
   3  74  51  84
   3  74  44  53
   3  74  44  51
   3  75 114 123
   4  75 114 115  76
   3  75  76  89
   4  75  76 115 114
   3  75  89  76
   3  75  89  45
   3  75  45  92
   3  75  45  89
   3  75  92  45
   3  75  92 123
   3  75 123 114
   3  75 123  92
   3  76  46  89
   3  76  46  93
   3  76  89  75
   3  76  89  46
   3  76  75  89
   4  76  75 114 115
   3  76 115 124
   4  76 115 114  75
   3  76 124  93
   3  76 124 115
   3  76  93  46
   3  76  93 124
   3  77  14  79
   3  77  14  18
   3  77  79 111
   3  77  79  14
   3  77 111  92
   3  77 111  79
   3  77  92  59
   3  77  92 111
   3  77  59  18
   3  77  59  92
   3  77  18  14
   3  77  18  59
   3  78  60  93
   3  78  60  19
   3  78  93  60
   3  78  93 112
   3  78 112  80
   3  78 112  93
   3  78  80 112
   3  78  80  15
   3  78  15  19
   3  78  15  80
   3  78  19  60
   3  78  19  15
   3  79  63  91
   3  79  63  14
   3  79  91  63
   3  79  91 118
   3  79 118 111
   3  79 118  91
   3  79 111  77
   3  79 111 118
   3  79  77  14
   3  79  77 111
   3  79  14  63
   3  79  14  77
   3  80  78 112
   3  80  78  15
   3  80 112  78
   3  80 112 119
   3  80 119  90
   3  80 119 112
   3  80  90 119
   3  80  90  37
   3  80  37  90
   3  80  37  15
   3  80  15  78
   3  80  15  37
   3  81  73 108
   3  81  73  52
   3  81 108  73
   3  81 108 116
   3  81 116  97
   3  81 116 108
   3  81  97  70
   3  81  97 116
   3  81  70  52
   3  81  70  97
   3  81  52  73
   3  81  52  70
   3  82  69  96
   3  82  69  53
   3  82  96  69
   3  82  96 117
   3  82 117 109
   3  82 117  96
   3  82 109  74
   3  82 109 117
   3  82  74  53
   3  82  74 109
   3  82  53  69
   3  82  53  74
   3  83  56  99
   3  83  56  50
   3  83  99  56
   3  83  99 127
   3  83 127 108
   3  83 127  99
   3  83 108  73
   3  83 108 127
   3  83  73  50
   3  83  73 108
   3  83  50  56
   3  83  50  73
   3  84  74 109
   3  84  74  51
   3  84 109  74
   3  84 109 128
   3  84 128  99
   3  84 128 109
   3  84  99  56
   3  84  99 128
   3  84  56  51
   3  84  56  99
   3  84  51  74
   3  84  51  56
   3  85  16  87
   3  85  16  20
   3  85  87 120
   3  85  87  16
   3  85 120 104
   3  85 120  87
   3  85 104  71
   3  85 104 120
   3  85  71  20
   3  85  71 104
   3  85  20  16
   3  85  20  71
   3  86  72 105
   3  86  72  21
   3  86 105  72
   3  86 105 121
   3  86 121  88
   3  86 121 105
   3  86  88 121
   3  86  88  17
   3  86  17  21
   3  86  17  88
   3  86  21  72
   3  86  21  17
   3  87  33 102
   3  87  33  16
   3  87 102  48
   3  87 102  33
   3  87  48 120
   3  87  48 102
   3  87 120  85
   3  87 120  48
   3  87  85  16
   3  87  85 120
   3  87  16  33
   3  87  16  85
   3  88  86 121
   3  88  86  17
   3  88 121  86
   3  88 121  54
   3  88  54 103
   3  88  54 121
   3  88 103  54
   3  88 103  34
   3  88  34 103
   3  88  34  17
   3  88  17  86
   3  88  17  34
   3  89  75  76
   3  89  75  45
   3  89  76  46
   3  89  76  75
   3  89  46  66
   3  89  46  76
   3  89  66 113
   3  89  66  46
   3  89 113  66
   3  89 113  65
   3  89  65  45
   3  89  65 113
   3  89  45  65
   3  89  45  75
   3  90  80 119
   3  90  80  37
   3  90 119  80
   3  90 119  47
   3  90  47 119
   4  90  47 101  62
   3  90  62  37
   4  90  62 101  47
   3  90  37  62
   3  90  37  80
   3  91  79  63
   3  91  79 118
   3  91  63  79
   3  91  63  62
   3  91  62  63
   4  91  62 100  38
   3  91  38 118
   4  91  38 111  79
   3  91 118  79
   3  91 118  38
   3  92  75  45
   3  92  75 123
   3  92  45  59
   3  92  45  75
   3  92  59  77
   3  92  59  45
   3  92  77 111
   3  92  77  59
   3  92 111  77
   3  92 111 123
   3  92 123  75
   3  92 123 111
   3  93  78  60
   3  93  78 112
   3  93  60  46
   3  93  60  78
   3  93  46  76
   3  93  46  60
   3  93  76  46
   3  93  76 124
   3  93 124 112
   3  93 124  76
   3  93 112  78
   3  93 112 124
   3  94  48 104
   4  94  48  54  95
   3  94  95  98
   4  94  95  54  48
   3  94  98  95
   3  94  98  57
   3  94  57 104
   3  94  57  98
   3  94 104  57
   3  94 104  48
   3  95  54 105
   4  95  54  48  94
   3  95 105  58
   3  95 105  54
   3  95  58  98
   3  95  58 105
   3  95  98  94
   3  95  98  58
   3  95  94  98
   4  95  94  48  54
   3  96  82  69
   3  96  82 117
   3  96  69  41
   3  96  69  82
   3  96  41  69
   4  96  41 106  55
   3  96  55 117
   4  96  55 109  82
   3  96 117  82
   3  96 117  55
   3  97  42  70
   4  97  42 107  55
   3  97  70  81
   3  97  70  42
   3  97  81 116
   3  97  81  70
   3  97 116  81
   3  97 116  55
   3  97  55 116
   4  97  55 108  81
   3  98  94  95
   3  98  94  57
   3  98  95  58
   3  98  95  94
   3  98  58   1
   3  98  58  95
   3  98   1 122
   3  98   1  58
   3  98 122   0
   3  98 122   1
   3  98   0  57
   3  98   0 122
   3  98  57   0
   3  98  57  94
   3  99  83  56
   3  99  83 127
   3  99  56  84
   3  99  56  83
   3  99  84 128
   3  99  84  56
   3  99 128  84
   3  99 128  55
   3  99  55 127
   3  99  55 128
   3  99 127  83
   3  99 127  55
   3 100  62 101
   4 100  62  91  38
   3 100 101  62
   4 100 101  47  38
   3 101 100  62
   4 101 100  38  47
   3 101  62 100
   4 101  62  90  47
   3 102  61  33
   4 102  61 125  48
   3 102  48  87
   4 102  48 125  61
   3 102  87  33
   3 102  87  48
   3 102  33  87
   3 102  33  61
   3 103  88  54
   3 103  88  34
   3 103  54  88
   4 103  54 126  61
   3 103  61  34
   4 103  61 126  54
   3 103  34  61
   3 103  34  88
   3 104  94  48
   3 104  94  57
   3 104  57  71
   3 104  57  94
   3 104  71  85
   3 104  71  57
   3 104  85 120
   3 104  85  71
   3 104 120  85
   3 104 120  48
   3 104  48  94
   3 104  48 120
   3 105  86  72
   3 105  86 121
   3 105  72  58
   3 105  72  86
   3 105  58  95
   3 105  58  72
   3 105  95  54
   3 105  95  58
   3 105  54  95
   3 105  54 121
   3 105 121  86
   3 105 121  54
   3 106 107  55
   4 106 107  42  41
   3 106  55 107
   4 106  55  96  41
   3 107  55 106
   4 107  55  97  42
   3 107 106  55
   4 107 106  41  42
   3 108  81  73
   3 108  81 116
   3 108  73  83
   3 108  73  81
   3 108  83 127
   3 108  83  73
   3 108 127  83
   3 108 127  55
   3 108  55 116
   3 108  55 127
   3 108 116  81
   3 108 116  55
   3 109  84  74
   3 109  84 128
   3 109  74  82
   3 109  74  84
   3 109  82 117
   3 109  82  74
   3 109 117  82
   3 109 117  55
   3 109  55 128
   3 109  55 117
   3 109 128  84
   3 109 128  55
   3 110  34  39
   3 110  34   9
   3 110  39  35
   3 110  39  34
   3 110  35  39
   3 110  35   2
   3 110   2  35
   3 110   2   9
   3 110   9  34
   3 110   9   2
   3 111  92  77
   3 111  92 123
   3 111  77  79
   3 111  77  92
   3 111  79 118
   3 111  79  77
   3 111 118  79
   3 111 118  38
   3 111  38 123
   3 111  38 118
   3 111 123  92
   3 111 123  38
   3 112  80  78
   3 112  80 119
   3 112  78  93
   3 112  78  80
   3 112  93  78
   3 112  93 124
   3 112 124  93
   3 112 124  47
   3 112  47 119
   3 112  47 124
   3 112 119  80
   3 112 119  47
   3 113  89  66
   3 113  89  65
   3 113  66   4
   3 113  66  89
   3 113   4   3
   3 113   4  66
   3 113   3   4
   3 113   3  65
   3 113  65   3
   3 113  65  89
   3 114  38 123
   4 114  38  47 115
   3 114  75 123
   4 114  75  76 115
   3 114 123  75
   3 114 123  38
   3 115  47 124
   4 115  47  38 114
   3 115 124  76
   3 115 124  47
   3 115  76 124
   4 115  76  75 114
   3 116  97  81
   3 116  97  55
   3 116  81 108
   3 116  81  97
   3 116 108  81
   3 116 108  55
   3 116  55 108
   3 116  55  97
   3 117 109  82
   3 117 109  55
   3 117  82  96
   3 117  82 109
   3 117  96  82
   3 117  96  55
   3 117  55 109
   3 117  55  96
   3 118 111  79
   3 118 111  38
   3 118  79  91
   3 118  79 111
   3 118  91  79
   3 118  91  38
   3 118  38 111
   3 118  38  91
   3 119  90  80
   3 119  90  47
   3 119  80 112
   3 119  80  90
   3 119 112  80
   3 119 112  47
   3 119  47  90
   3 119  47 112
   3 120 104  85
   3 120 104  48
   3 120  85  87
   3 120  85 104
   3 120  87  48
   3 120  87  85
   3 120  48 104
   3 120  48  87
   3 121  88  86
   3 121  88  54
   3 121  86 105
   3 121  86  88
   3 121 105  86
   3 121 105  54
   3 121  54  88
   3 121  54 105
   3 122   0  98
   3 122   0  28
   3 122  98   1
   3 122  98   0
   3 122   1  28
   3 122   1  98
   3 122  28   0
   3 122  28   1
   3 123 114  38
   3 123 114  75
   3 123  75 114
   3 123  75  92
   3 123  92  75
   3 123  92 111
   3 123 111  92
   3 123 111  38
   3 123  38 114
   3 123  38 111
   3 124 112  93
   3 124 112  47
   3 124  93  76
   3 124  93 112
   3 124  76 115
   3 124  76  93
   3 124 115  47
   3 124 115  76
   3 124  47 115
   3 124  47 112
   3 125  61 126
   4 125  61 102  48
   3 125 126  61
   4 125 126  54  48
   3 126 125  61
   4 126 125  48  54
   3 126  61 125
   4 126  61 103  54
   3 127 108  83
   3 127 108  55
   3 127  83  99
   3 127  83 108
   3 127  99  83
   3 127  99  55
   3 127  55 108
   3 127  55  99
   3 128  99  84
   3 128  99  55
   3 128  84 109
   3 128  84  99
   3 128 109  84
   3 128 109  55
   3 128  55  99
   3 128  55 109
