# Generated by dad_to_polygons. Vertex data from Humppa's .off file,
# polygons parsed from .dad file.
COFF
140 496 140
-6.580380 1.143774 6.688577 0.500000 0.500000 0.500000 1.0
-6.580380 -1.143774 6.688578 0.500000 0.500000 0.500000 1.0
-0.032772 -2.252116 6.334673 0.500000 0.500000 0.500000 1.0
7.455525 -1.028167 6.848415 0.500000 0.500000 0.500000 1.0
7.455525 1.028167 6.848415 0.500000 0.500000 0.500000 1.0
-0.032772 2.252116 6.334673 0.500000 0.500000 0.500000 1.0
1.148746 -1.931151 6.476462 0.500000 0.500000 0.500000 1.0
1.148746 1.931151 6.476462 0.500000 0.500000 0.500000 1.0
-1.169881 1.916707 6.444359 0.500000 0.500000 0.500000 1.0
-1.169881 -1.916707 6.444359 0.500000 0.500000 0.500000 1.0
2.059636 -1.614516 6.741996 0.500000 0.500000 0.500000 1.0
2.059636 1.614516 6.741996 0.500000 0.500000 0.500000 1.0
-2.087121 1.625534 6.716282 0.500000 0.500000 0.500000 1.0
-2.087121 -1.625534 6.716282 0.500000 0.500000 0.500000 1.0
3.055433 -1.751301 6.500204 0.500000 0.500000 0.500000 1.0
3.055427 1.751301 6.500199 0.500000 0.500000 0.500000 1.0
-3.040793 1.750762 6.443633 0.500000 0.500000 0.500000 1.0
-3.040793 -1.750762 6.443633 0.500000 0.500000 0.500000 1.0
4.125582 -1.657106 6.613113 0.500000 0.500000 0.500000 1.0
4.125582 1.657106 6.613113 0.500000 0.500000 0.500000 1.0
-4.086937 1.651795 6.559544 0.500000 0.500000 0.500000 1.0
-4.086937 -1.651795 6.559544 0.500000 0.500000 0.500000 1.0
5.114862 -1.433403 6.692306 0.500000 0.500000 0.500000 1.0
5.114862 1.433403 6.692306 0.500000 0.500000 0.500000 1.0
-5.083028 1.444640 6.618223 0.500000 0.500000 0.500000 1.0
-5.083028 -1.444640 6.618223 0.500000 0.500000 0.500000 1.0
6.100192 -1.275376 6.782691 0.500000 0.500000 0.500000 1.0
6.100192 1.275376 6.782691 0.500000 0.500000 0.500000 1.0
-7.724533 -0.000031 6.711279 0.500000 0.500000 0.500000 1.0
8.150262 0.000000 6.846042 0.500000 0.500000 0.500000 1.0
-1.688705 -0.900982 4.168974 0.500000 0.500000 0.500000 1.0
0.954793 -1.868078 5.095277 0.500000 0.500000 0.500000 1.0
0.954784 1.868080 5.095281 0.500000 0.500000 0.500000 1.0
-2.104783 1.610708 5.526898 0.500000 0.500000 0.500000 1.0
-2.104783 -1.610708 5.526899 0.500000 0.500000 0.500000 1.0
0.052089 -1.973756 4.927649 0.500000 0.500000 0.500000 1.0
0.052125 1.973809 4.927650 0.500000 0.500000 0.500000 1.0
2.117847 1.588328 5.625139 0.500000 0.500000 0.500000 1.0
3.569013 -0.619513 2.860470 1.0 1.0 0.0 1.0
-0.798237 -1.860973 4.449292 0.500000 0.500000 0.500000 1.0
-0.798236 1.860974 4.449293 0.500000 0.500000 0.500000 1.0
-1.403043 -0.981074 2.760973 0.500000 0.500000 0.500000 1.0
-1.403040 0.981077 2.760969 0.500000 0.500000 0.500000 1.0
0.831260 1.850523 4.034572 0.500000 0.500000 0.500000 1.0
0.831246 -1.850521 4.034566 0.500000 0.500000 0.500000 1.0
5.565764 -1.331707 5.833465 0.500000 0.500000 0.500000 1.0
5.565764 1.331706 5.833465 0.500000 0.500000 0.500000 1.0
3.569013 0.619513 2.860470 1.0 1.0 0.0 1.0
-3.540295 0.659623 3.137518 1.0 1.0 0.0 1.0
1.760523 0.000031 4.599812 0.500000 0.500000 0.500000 1.0
1.179532 1.391244 3.724838 0.500000 0.500000 0.500000 1.0
1.179507 -1.391266 3.724794 0.500000 0.500000 0.500000 1.0
0.174692 1.887658 3.816056 0.500000 0.500000 0.500000 1.0
0.174629 -1.887654 3.816056 0.500000 0.500000 0.500000 1.0
-3.540295 -0.659623 3.137518 1.0 1.0 0.0 1.0
0.120491 0.000000 1.038258 1.0 1.0 0.0 1.0
1.359561 0.000000 3.298303 0.500000 0.500000 0.500000 1.0
-5.298030 1.294052 5.587175 0.500000 0.500000 0.500000 1.0
-5.298030 -1.294052 5.587175 0.500000 0.500000 0.500000 1.0
4.593745 -1.551197 5.912427 0.500000 0.500000 0.500000 1.0
4.593777 1.551185 5.912415 0.500000 0.500000 0.500000 1.0
-2.104544 0.000000 4.672897 0.500000 0.500000 0.500000 1.0
2.129341 -0.000007 4.863880 0.500000 0.500000 0.500000 1.0
2.117851 -1.588327 5.625119 0.500000 0.500000 0.500000 1.0
1.309469 1.744242 4.775569 0.500000 0.500000 0.500000 1.0
6.690683 -1.124657 6.216301 0.500000 0.500000 0.500000 1.0
6.690683 1.124657 6.216301 0.500000 0.500000 0.500000 1.0
1.309465 -1.744249 4.775545 0.500000 0.500000 0.500000 1.0
-0.960835 1.886234 5.357632 0.500000 0.500000 0.500000 1.0
-0.553927 -1.657785 3.412439 0.500000 0.500000 0.500000 1.0
-0.553926 1.657786 3.412440 0.500000 0.500000 0.500000 1.0
-4.535623 1.541131 5.886256 0.500000 0.500000 0.500000 1.0
-4.535623 -1.541131 5.886256 0.500000 0.500000 0.500000 1.0
0.748563 1.694190 3.073819 0.500000 0.500000 0.500000 1.0
0.748610 -1.694218 3.073824 0.500000 0.500000 0.500000 1.0
5.374688 -0.970263 4.553310 0.500000 0.500000 0.500000 1.0
5.374689 0.970262 4.553311 0.500000 0.500000 0.500000 1.0
4.113283 -1.626444 5.401673 0.500000 0.500000 0.500000 1.0
4.113259 1.626416 5.401685 0.500000 0.500000 0.500000 1.0
3.149305 -1.647921 5.078055 0.500000 0.500000 0.500000 1.0
3.149245 1.647895 5.078077 0.500000 0.500000 0.500000 1.0
0.240564 1.734035 2.737707 0.500000 0.500000 0.500000 1.0
0.240581 -1.734016 2.737744 0.500000 0.500000 0.500000 1.0
1.066995 1.122694 2.749604 0.500000 0.500000 0.500000 1.0
1.066997 -1.122692 2.749602 0.500000 0.500000 0.500000 1.0
-4.048996 1.604477 5.426659 0.500000 0.500000 0.500000 1.0
-4.048996 -1.604477 5.426659 0.500000 0.500000 0.500000 1.0
-3.131032 1.621996 4.995378 0.500000 0.500000 0.500000 1.0
-3.131032 -1.621996 4.995378 0.500000 0.500000 0.500000 1.0
6.336730 -0.000000 5.456801 0.500000 0.500000 0.500000 1.0
2.536059 1.165527 4.689850 0.500000 0.500000 0.500000 1.0
2.536124 -1.165495 4.689852 0.500000 0.500000 0.500000 1.0
4.564755 -1.520262 4.880895 0.500000 0.500000 0.500000 1.0
4.564755 1.520260 4.880894 0.500000 0.500000 0.500000 1.0
-5.122083 0.956798 4.469670 0.500000 0.500000 0.500000 1.0
-5.122083 -0.956798 4.469670 0.500000 0.500000 0.500000 1.0
-0.440378 -1.509684 2.358050 1.000000 1.000000 1.000000 1.0
-0.440377 1.509688 2.358043 1.000000 1.000000 1.000000 1.0
-6.105555 0.000000 5.530274 0.500000 0.500000 0.500000 1.0
1.186165 -0.000009 2.470397 1.000000 1.000000 1.000000 1.0
2.451039 -0.356440 3.574812 0.500000 0.500000 0.500000 1.0
2.450997 0.356416 3.574797 0.500000 0.500000 0.500000 1.0
-2.537982 1.196649 4.672878 0.500000 0.500000 0.500000 1.0
-2.537998 -1.196660 4.672879 0.500000 0.500000 0.500000 1.0
-4.418998 1.478168 4.751321 0.500000 0.500000 0.500000 1.0
-4.418998 -1.478168 4.751321 0.500000 0.500000 0.500000 1.0
-1.427246 -0.875893 1.862301 1.000000 1.000000 1.000000 1.0
-1.427245 0.875895 1.862301 1.000000 1.000000 1.000000 1.0
0.710893 1.435236 2.126574 1.000000 1.000000 1.000000 1.0
0.710901 -1.435233 2.126575 1.000000 1.000000 1.000000 1.0
-0.960835 -1.886234 5.357632 0.500000 0.500000 0.500000 1.0
4.007441 -1.565026 4.394556 0.500000 0.500000 0.500000 1.0
4.007447 1.565022 4.394559 0.500000 0.500000 0.500000 1.0
6.914872 0.000000 5.790634 1.0 1.0 0.0 1.0
4.746269 -0.970821 3.510669 0.500000 0.500000 0.500000 1.0
4.746269 0.970821 3.510669 0.500000 0.500000 0.500000 1.0
0.147494 1.443088 1.802449 1.000000 1.000000 1.000000 1.0
0.147517 -1.443096 1.802481 1.000000 1.000000 1.000000 1.0
3.251426 -1.442225 4.134524 0.500000 0.500000 0.500000 1.0
3.251426 1.442220 4.134524 0.500000 0.500000 0.500000 1.0
-3.901727 1.498883 4.424243 0.500000 0.500000 0.500000 1.0
-3.901726 -1.498883 4.424242 0.500000 0.500000 0.500000 1.0
-6.882460 0.000000 5.987608 1.0 1.0 0.0 1.0
4.335049 -1.362583 3.962925 0.500000 0.500000 0.500000 1.0
4.335051 1.362584 3.962926 0.500000 0.500000 0.500000 1.0
-2.422802 0.322854 3.774693 0.500000 0.500000 0.500000 1.0
-2.422803 -0.322854 3.774693 0.500000 0.500000 0.500000 1.0
0.942464 0.751732 1.936221 1.000000 1.000000 1.000000 1.0
0.942467 -0.751728 1.936220 1.000000 1.000000 1.000000 1.0
2.932923 -1.075376 3.835299 0.500000 0.500000 0.500000 1.0
2.932983 1.075385 3.835258 0.500000 0.500000 0.500000 1.0
-0.285774 -0.908357 1.651383 1.000000 1.000000 1.000000 1.0
-0.285773 0.908359 1.651379 1.000000 1.000000 1.000000 1.0
-3.278103 1.286766 4.104773 0.500000 0.500000 0.500000 1.0
-3.278102 -1.286766 4.104773 0.500000 0.500000 0.500000 1.0
-1.688705 0.900984 4.168974 0.500000 0.500000 0.500000 1.0
-4.494582 0.803678 3.753511 0.500000 0.500000 0.500000 1.0
-4.494582 -0.803678 3.753511 0.500000 0.500000 0.500000 1.0
-3.998889 1.072924 3.940618 0.500000 0.500000 0.500000 1.0
-3.998888 -1.072924 3.940618 0.500000 0.500000 0.500000 1.0
3 0 57 24
3 0 24 57
3 0 98 57
3 0 57 98
3 1 58 25
3 1 25 58
3 1 58 98
3 1 98 58
3 1 98 122
3 1 122 98
3 2 6 31
3 2 31 6
3 2 31 35
3 2 35 31
3 3 65 26
3 3 26 65
3 4 27 66
3 4 66 27
3 5 36 68
3 5 68 36
3 6 31 63
3 6 63 31
3 6 63 10
3 6 10 63
3 7 32 5
3 7 5 32
3 7 37 32
3 7 32 37
3 8 68 5
3 8 5 68
3 11 37 7
3 11 7 37
3 12 8 33
3 12 33 8
3 13 17 34
3 13 34 17
3 13 34 9
3 13 9 34
3 14 18 77
3 14 77 18
3 14 79 77
3 14 77 79
3 15 11 37
3 15 37 11
3 15 37 80
3 15 80 37
3 16 12 33
3 16 33 12
3 16 20 85
3 16 85 20
3 17 88 86
3 17 86 88
3 18 59 22
3 18 22 59
3 18 77 59
3 18 59 77
3 19 60 23
3 19 23 60
3 19 78 15
3 19 15 78
3 20 24 71
3 20 71 24
3 22 59 45
3 22 45 59
3 23 27 46
3 23 46 27
3 23 46 60
3 23 60 46
3 24 71 57
3 24 57 71
3 25 72 21
3 25 21 72
3 26 22 45
3 26 45 22
3 26 45 65
3 26 65 45
3 27 66 46
3 27 46 66
3 28 1 122
3 28 122 1
3 30 34 39
3 30 39 34
3 30 34 61
3 30 61 34
3 30 39 69
3 30 69 39
3 30 61 135
3 30 135 61
3 31 44 35
3 31 35 44
3 31 63 67
3 31 67 63
3 31 67 44
3 31 44 67
3 32 5 36
3 32 36 5
3 32 64 43
3 32 43 64
3 33 8 68
3 33 68 8
3 33 61 102
3 33 102 61
3 33 87 16
3 33 16 87
3 33 102 87
3 33 87 102
3 33 135 40
3 33 40 135
3 33 135 61
3 33 61 135
3 34 17 88
3 34 88 17
3 34 61 103
3 34 103 61
3 34 88 103
3 34 103 88
3 34 110 39
3 34 39 110
3 35 39 110
3 35 110 39
3 36 32 43
3 36 43 32
3 36 40 52
3 36 52 40
3 36 68 40
3 36 40 68
3 37 32 64
3 37 64 32
3 37 49 64
3 37 64 49
3 37 62 49
3 37 49 62
3 38 47 101
3 38 101 47
3 38 100 129
3 38 129 100
3 38 101 100
3 38 100 101
3 38 111 118
3 38 118 111
3 38 111 123
3 38 123 111
3 38 114 115
3 38 115 114
3 38 115 47
3 38 47 115
3 38 129 118
3 38 118 129
3 39 35 53
3 39 53 35
3 40 33 68
3 40 68 33
3 40 70 52
3 40 52 70
3 41 30 69
3 41 69 30
3 41 30 135
3 41 135 30
3 41 96 69
3 41 69 96
3 41 131 96
3 41 96 131
3 41 131 106
3 41 106 131
3 41 135 42
3 41 42 135
3 42 70 135
3 42 135 70
3 42 97 70
3 42 70 97
3 42 97 132
3 42 132 97
3 42 106 41
3 42 41 106
3 42 107 106
3 42 106 107
3 43 52 36
3 43 36 52
3 43 64 50
3 43 50 64
3 43 73 52
3 43 52 73
3 44 35 53
3 44 53 35
3 44 67 51
3 44 51 67
3 44 74 51
3 44 51 74
3 45 75 92
3 45 92 75
3 45 89 65
3 45 65 89
3 45 89 75
3 45 75 89
3 46 66 89
3 46 89 66
3 46 76 89
3 46 89 76
3 47 119 112
3 47 112 119
3 47 124 112
3 47 112 124
3 47 130 119
3 47 119 130
3 48 54 126
3 48 126 54
3 48 54 137
3 48 137 54
3 48 102 133
3 48 133 102
3 48 120 138
3 48 138 120
3 48 126 125
3 48 125 126
3 48 133 120
3 48 120 133
3 48 137 136
3 48 136 137
3 49 50 56
3 49 56 50
3 49 50 64
3 49 64 50
3 49 51 56
3 49 56 51
3 49 51 67
3 49 67 51
3 50 56 83
3 50 83 56
3 50 83 73
3 50 73 83
3 51 56 84
3 51 84 56
3 52 81 70
3 52 70 81
3 53 39 69
3 53 69 39
3 53 69 82
3 53 82 69
3 54 121 134
3 54 134 121
3 55 99 127
3 55 127 99
3 55 116 108
3 55 108 116
3 55 116 132
3 55 132 116
3 55 117 131
3 55 131 117
3 55 128 109
3 55 109 128
3 55 131 106
3 55 106 131
3 57 94 98
3 57 98 94
3 58 25 72
3 58 72 25
3 58 95 105
3 58 105 95
3 58 98 95
3 58 95 98
3 59 77 92
3 59 92 77
3 59 92 45
3 59 45 92
3 60 19 78
3 60 78 19
3 62 90 37
3 62 37 90
3 62 101 100
3 62 100 101
3 62 130 90
3 62 90 130
3 63 10 14
3 63 14 10
3 63 49 62
3 63 62 49
3 63 62 91
3 63 91 62
3 65 89 113
3 65 113 89
3 66 113 89
3 66 89 113
3 67 49 63
3 67 63 49
3 69 96 82
3 69 82 96
3 70 40 135
3 70 135 40
3 70 81 97
3 70 97 81
3 71 85 20
3 71 20 85
3 71 104 57
3 71 57 104
3 72 86 21
3 72 21 86
3 72 105 86
3 72 86 105
3 73 43 50
3 73 50 43
3 73 52 81
3 73 81 52
3 73 83 108
3 73 108 83
3 73 108 81
3 73 81 108
3 74 53 44
3 74 44 53
3 74 82 53
3 74 53 82
3 74 82 109
3 74 109 82
3 74 84 51
3 74 51 84
3 74 84 109
3 74 109 84
3 75 114 115
3 75 115 114
3 75 114 123
3 75 123 114
3 75 115 76
3 75 76 115
3 76 75 89
3 76 89 75
3 76 93 124
3 76 124 93
3 78 80 112
3 78 112 80
3 78 93 60
3 78 60 93
3 79 63 14
3 79 14 63
3 79 91 63
3 79 63 91
3 79 91 118
3 79 118 91
3 79 111 77
3 79 77 111
3 79 118 111
3 79 111 118
3 80 15 78
3 80 78 15
3 80 112 119
3 80 119 112
3 80 119 90
3 80 90 119
3 81 116 97
3 81 97 116
3 83 99 56
3 83 56 99
3 83 127 99
3 83 99 127
3 84 99 56
3 84 56 99
3 84 109 128
3 84 128 109
3 85 87 16
3 85 16 87
3 85 87 120
3 85 120 87
3 85 104 71
3 85 71 104
3 86 21 17
3 86 17 21
3 86 121 88
3 86 88 121
3 87 120 133
3 87 133 120
3 87 133 102
3 87 102 133
3 88 103 134
3 88 134 103
3 90 80 37
3 90 37 80
3 90 119 130
3 90 130 119
3 92 75 123
3 92 123 75
3 92 111 77
3 92 77 111
3 92 111 123
3 92 123 111
3 93 46 76
3 93 76 46
3 93 60 46
3 93 46 60
3 93 112 78
3 93 78 112
3 94 98 95
3 94 95 98
3 95 94 136
3 95 136 94
3 95 136 137
3 95 137 136
3 95 139 137
3 95 137 139
3 96 82 117
3 96 117 82
3 96 117 131
3 96 131 117
3 97 132 116
3 97 116 132
3 98 0 122
3 98 122 0
3 99 128 55
3 99 55 128
3 100 62 129
3 100 129 62
3 101 47 130
3 101 130 47
3 102 48 125
3 102 125 48
3 102 125 61
3 102 61 125
3 103 54 134
3 103 134 54
3 103 61 126
3 103 126 61
3 103 126 54
3 103 54 126
3 104 57 94
3 104 94 57
3 104 85 120
3 104 120 85
3 104 138 120
3 104 120 138
3 105 58 72
3 105 72 58
3 105 86 121
3 105 121 86
3 105 95 139
3 105 139 95
3 105 121 139
3 105 139 121
3 107 106 55
3 107 55 106
3 108 55 127
3 108 127 55
3 108 116 81
3 108 81 116
3 109 82 117
3 109 117 82
3 109 117 55
3 109 55 117
3 110 2 9
3 110 9 2
3 110 2 35
3 110 35 2
3 110 9 34
3 110 34 9
3 113 3 29
3 113 29 3
3 113 4 29
3 113 29 4
3 113 4 66
3 113 66 4
3 113 65 3
3 113 3 65
3 114 123 38
3 114 38 123
3 115 47 124
3 115 124 47
3 115 124 76
3 115 76 124
3 118 91 129
3 118 129 91
3 122 0 28
3 122 28 0
3 124 93 112
3 124 112 93
3 126 61 125
3 126 125 61
3 127 108 83
3 127 83 108
3 128 99 84
3 128 84 99
3 129 62 91
3 129 91 62
3 130 101 62
3 130 62 101
3 132 42 107
3 132 107 42
3 132 55 107
3 132 107 55
3 134 121 88
3 134 88 121
3 136 48 138
3 136 138 48
3 138 94 104
3 138 104 94
3 138 136 94
3 138 94 136
3 139 54 121
3 139 121 54
3 139 54 137
3 139 137 54
