 COFF
         166        1744         166
  
  -6.6611444353312885        1.2967376217114865        7.3156362116159004       0.60000002384185791       0.60000002384185791       0.60000002384185791       0.80000001192092896     
  -6.6611473096338303       -1.2967352271150401        7.3156369763583955       0.60000002384185791       0.60000002384185791       0.60000002384185791       0.80000001192092896     
  -3.4039667699278305E-002  -2.3739538964233211        6.9997338413242876       0.60000002384185791       0.60000002384185791       0.60000002384185791       0.80000001192092896     
   7.5453828156344622       -1.2014992179501058        7.4596238719075751       0.60000002384185791       0.60000002384185791       0.60000002384185791       0.80000001192092896     
   7.5453815765263839        1.2014999123095225        7.4596238319359305       0.60000002384185791       0.60000002384185791       0.60000002384185791       0.80000001192092896     
  -3.4039669998987256E-002   2.3739538599901566        6.9997338774024094       0.60000002384185791       0.60000002384185791       0.60000002384185791       0.80000001192092896     
   1.1764674961009274       -2.0485098023461066        7.1448795946442045       0.60000002384185791       0.60000002384185791       0.60000002384185791       0.80000001192092896     
   1.1764674872034535        2.0485098203563705        7.1448795754825651       0.60000002384185791       0.60000002384185791       0.60000002384185791       0.80000001192092896     
  -1.1946813546166362        2.0355746827356151        7.1110760010916794       0.60000002384185791       0.60000002384185791       0.60000002384185791       0.80000001192092896     
  -1.1946813574993704       -2.0355746973865405        7.1110759855049333       0.60000002384185791       0.60000002384185791       0.60000002384185791       0.80000001192092896     
   2.0777485869855310       -1.7224186964790891        7.4314888354412600       0.60000002384185791       0.60000002384185791       0.60000002384185791       0.80000001192092896     
   2.0777486094932609        1.7224187585215853        7.4314887655023361       0.60000002384185791       0.60000002384185791       0.60000002384185791       0.80000001192092896     
  -2.1046059803202355        1.7380124408248343        7.4006682304017337       0.60000002384185791       0.60000002384185791       0.60000002384185791       0.80000001192092896     
  -2.1046059812672797       -1.7380124527589542        7.4006682180710239       0.60000002384185791       0.60000002384185791       0.60000002384185791       0.80000001192092896     
   3.0519826530145724       -1.8863503315964443        7.1521095535519628       0.60000002384185791       0.60000002384185791       0.60000002384185791       0.80000001192092896     
   3.0519703878380593        1.8863482675297825        7.1520983936526363       0.60000002384185791       0.60000002384185791       0.60000002384185791       0.80000001192092896     
  -3.0398482378577616        1.8955726359562735        7.0842536655946340       0.60000002384185791       0.60000002384185791       0.60000002384185791       0.80000001192092896     
  -3.0398482391038275       -1.8955726468241547        7.0842536538163277       0.60000002384185791       0.60000002384185791       0.60000002384185791       0.80000001192092896     
   4.1443059420085389       -1.7739916172340131        7.2846130178219362       0.60000002384185791       0.60000002384185791       0.60000002384185791       0.80000001192092896     
   4.1443057345426819        1.7739915320083663        7.2846131321523382       0.60000002384185791       0.60000002384185791       0.60000002384185791       0.80000001192092896     
  -4.1062810682815449        1.7757607436230536        7.2227505410276320       0.60000002384185791       0.60000002384185791       0.60000002384185791       0.80000001192092896     
  -4.1062810695232930       -1.7757607234541040        7.2227505600892465       0.60000002384185791       0.60000002384185791       0.60000002384185791       0.80000001192092896     
   5.1355540552534213       -1.5517306568116338        7.3698802237310677       0.60000002384185791       0.60000002384185791       0.60000002384185791       0.80000001192092896     
   5.1355540401071247        1.5517306397733595        7.3698802422493639       0.60000002384185791       0.60000002384185791       0.60000002384185791       0.80000001192092896     
  -5.1075598607797996        1.5672387192753903        7.2889103658631056       0.60000002384185791       0.60000002384185791       0.60000002384185791       0.80000001192092896     
  -5.1075598758950589       -1.5672385761547283        7.2889105055446146       0.60000002384185791       0.60000002384185791       0.60000002384185791       0.80000001192092896     
   6.1235033135385786       -1.4128675452824879        7.4469887598995630       0.60000002384185791       0.60000002384185791       0.60000002384185791       0.80000001192092896     
   6.1235033034647133        1.4128675526633960        7.4469887548140701       0.60000002384185791       0.60000002384185791       0.60000002384185791       0.80000001192092896     
  -7.9582048370219347       -5.8555849312041266E-005   7.3213710234155718       0.60000002384185791       0.60000002384185791       0.60000002384185791       0.80000001192092896     
   8.7481022075065624        1.3999903738383949E-004   7.4791092074678840       0.60000002384185791       0.60000002384185791       0.60000002384185791       0.80000001192092896     
  -1.7528817474918983      -0.98758747600259511        4.7084061027796569       0.60000002384185791       0.60000002384185791       0.60000002384185791       0.80000001192092896     
  0.98098938233582866       -1.9500412509058467        5.5453067669212492        1.0000000000000000        1.0000000000000000        0.0000000000000000        1.0000000000000000     
  0.98098135288359944        1.9500390956440887        5.5452888135927250        1.0000000000000000        1.0000000000000000        0.0000000000000000        1.0000000000000000     
  -2.1335387472254714        1.7586820980422384        6.1493918229209630       0.60000002384185791       0.60000002384185791       0.60000002384185791       0.80000001192092896     
  -2.1335388228726369       -1.7586823724857903        6.1493921682994603       0.60000002384185791       0.60000002384185791       0.60000002384185791       0.80000001192092896     
   3.1639261781100575E-002  -2.0646358550741950        5.5065433816635228       0.60000002384185791       0.60000002384185791       0.60000002384185791       0.80000001192092896     
   3.1542173682999781E-002   2.0645547675453346        5.5065358837227487       0.60000002384185791       0.60000002384185791       0.60000002384185791       0.80000001192092896     
   2.1213831900818727        1.7198515884384007        6.2201253784382518       0.60000002384185791       0.60000002384185791       0.60000002384185791       0.80000001192092896     
   3.6417123343448630      -0.61998757987276265        2.8604699335027806        1.0000000000000000        1.0000000000000000        0.0000000000000000        1.0000000000000000     
 -0.85413972925462989       -1.9515511202438389        5.0298747617676156       0.60000002384185791       0.60000002384185791       0.60000002384185791       0.80000001192092896     
 -0.85413890017977556        1.9515499084211492        5.0298751298110469       0.60000002384185791       0.60000002384185791       0.60000002384185791       0.80000001192092896     
  -1.3610272081014545      -0.95911429929495928        3.2217916331838814       0.60000002384185791       0.60000002384185791       0.60000002384185791       0.80000001192092896     
  -1.3610546786594617       0.95907485385334268        3.2217935031951130       0.60000002384185791       0.60000002384185791       0.60000002384185791       0.80000001192092896     
  0.87543974745009245        1.9089598465820219        4.5587645513927733       0.60000002384185791       0.60000002384185791       0.60000002384185791       0.80000001192092896     
  0.87545355229424193       -1.9089591010544475        4.5587526572739465       0.60000002384185791       0.60000002384185791       0.60000002384185791       0.80000001192092896     
   5.5937033672670422       -1.4599025189762964        6.4521114752773450       0.60000002384185791       0.60000002384185791       0.60000002384185791       0.80000001192092896     
   5.5937376046285152        1.4598955940674707        6.4521462961237699       0.60000002384185791       0.60000002384185791       0.60000002384185791       0.80000001192092896     
   3.6417162010399386       0.61998843943131687        2.8604699335027806        1.0000000000000000        1.0000000000000000        0.0000000000000000        1.0000000000000000     
  -3.5470106658800344       0.66004635046098825        3.1375182682895115        1.0000000000000000        1.0000000000000000        0.0000000000000000        1.0000000000000000     
   1.8565541388916076        8.4458411487499124E-006   4.9740539332360347       0.60000002384185791       0.60000002384185791       0.60000002384185791       0.80000001192092896     
   1.2201637270638204        1.4772822746544352        4.2509946073294627       0.60000002384185791       0.60000002384185791       0.60000002384185791       0.80000001192092896     
   1.2201398058854815       -1.4773125302180323        4.2509201216159989       0.60000002384185791       0.60000002384185791       0.60000002384185791       0.80000001192092896     
  0.17353677476706239        1.9643894085163194        4.3539217969260511       0.60000002384185791       0.60000002384185791       0.60000002384185791       0.80000001192092896     
  0.17359900938998621       -1.9642297157813406        4.3539237428359767       0.60000002384185791       0.60000002384185791       0.60000002384185791       0.80000001192092896     
  -3.5470109522960032      -0.66004662579105877        3.1375182682895115        1.0000000000000000        1.0000000000000000        0.0000000000000000        1.0000000000000000     
  0.13018480028173782        4.9217559356364336E-007   1.0382578837327854        1.0000000000000000        1.0000000000000000        0.0000000000000000        1.0000000000000000     
   1.4157146900999269        3.7812285031693842E-006   3.7966871725109943       0.60000002384185791       0.60000002384185791       0.60000002384185791       0.80000001192092896     
  -5.3345581813435459        1.4171988655274490        6.2297912043575439       0.60000002384185791       0.60000002384185791       0.60000002384185791       0.80000001192092896     
  -5.3345581811724037       -1.4171985572470254        6.2297913430804162       0.60000002384185791       0.60000002384185791       0.60000002384185791       0.80000001192092896     
   4.6131440833360582       -1.6687989637695335        6.5375351549317440       0.60000002384185791       0.60000002384185791       0.60000002384185791       0.80000001192092896     
   4.6131440049457524        1.6687988839390089        6.5375339589308084       0.60000002384185791       0.60000002384185791       0.60000002384185791       0.80000001192092896     
  -2.3662734882890688        3.3645464659675984E-006   5.0246676033147697       0.60000002384185791       0.60000002384185791       0.60000002384185791       0.80000001192092896     
   2.1149935232079704        6.6816780890070917E-006   5.3487996470422337       0.60000002384185791       0.60000002384185791       0.60000002384185791       0.80000001192092896     
   2.1213963740479489       -1.7198533844443031        6.2201247699902629       0.60000002384185791       0.60000002384185791       0.60000002384185791       0.80000001192092896     
   1.3888032278771221        1.7652164595885245        5.2661393659541140       0.60000002384185791       0.60000002384185791       0.60000002384185791       0.80000001192092896     
   6.7712508436820453       -1.2733935777951677        6.7595425698458662       0.60000002384185791       0.60000002384185791       0.60000002384185791       0.80000001192092896     
   6.7712503477648296        1.2733939224573581        6.7595425363875385       0.60000002384185791       0.60000002384185791       0.60000002384185791       0.80000001192092896     
   1.3888578877840001       -1.7652125217301744        5.2660965790078578       0.60000002384185791       0.60000002384185791       0.60000002384185791       0.80000001192092896     
 -0.98413704576203376        1.9759015936608222        5.8316077650561811        1.0000000000000000        1.0000000000000000        0.0000000000000000        1.0000000000000000     
 -0.61965045344565051       -1.7165074894145058        3.9163902536383159       0.60000002384185791       0.60000002384185791       0.60000002384185791       0.80000001192092896     
 -0.61964311957289442        1.7165150621742407        3.9164002172648065       0.60000002384185791       0.60000002384185791       0.60000002384185791       0.80000001192092896     
  -4.5700542879279826        1.6702895786623484        6.5180587801163155       0.60000002384185791       0.60000002384185791       0.60000002384185791       0.80000001192092896     
  -4.5700543222357357       -1.6702895307473677        6.5180587915451351       0.60000002384185791       0.60000002384185791       0.60000002384185791       0.80000001192092896     
  0.78351076177424417        1.7664625791763171        3.5975690902520681       0.60000002384185791       0.60000002384185791       0.60000002384185791       0.80000001192092896     
  0.78363499257303715       -1.7664398391027127        3.5975926227101702       0.60000002384185791       0.60000002384185791       0.60000002384185791       0.80000001192092896     
   5.4239245628818660       -1.0575119715380612        5.1356275031611496       0.60000002384185791       0.60000002384185791       0.60000002384185791       0.80000001192092896     
   5.4239257236859464        1.0575096908962702        5.1356295320697329       0.60000002384185791       0.60000002384185791       0.60000002384185791       0.80000001192092896     
   4.1328714779007347       -1.7467668542281434        6.0270162969958401       0.60000002384185791       0.60000002384185791       0.60000002384185791       0.80000001192092896     
   4.1328681280062218        1.7467664294132714        6.0270181282084581       0.60000002384185791       0.60000002384185791       0.60000002384185791       0.80000001192092896     
   3.1463202996090560       -1.7732265566163341        5.6594100605267741       0.60000002384185791       0.60000002384185791       0.60000002384185791       0.80000001192092896     
   3.1463112637565693        1.7732239912794618        5.6594203604568047       0.60000002384185791       0.60000002384185791       0.60000002384185791       0.80000001192092896     
  0.23243223863249313        1.8052249939615541        3.2175453275335699        1.0000000000000000       0.10000000149011612        0.0000000000000000       0.50000000000000000     
  0.23224730850140857       -1.8053936277728193        3.2175798935643964        1.0000000000000000       0.10000000149011612        0.0000000000000000       0.50000000000000000     
   1.0871237460753929        1.2083106070120337        3.2330462051403361        1.0000000000000000       0.10000000149011612        0.0000000000000000       0.50000000000000000     
   1.0871294055513376       -1.2083088029465514        3.2330363249326672        1.0000000000000000       0.10000000149011612        0.0000000000000000       0.50000000000000000     
  -4.0810425320156112        1.7451753222522088        6.0210001886683209       0.60000002384185791       0.60000002384185791       0.60000002384185791       0.80000001192092896     
  -4.0810425050309123       -1.7451752752741645        6.0210002020451476       0.60000002384185791       0.60000002384185791       0.60000002384185791       0.80000001192092896     
  -3.1191253209955287        1.7875286770688643        5.5413044536945231       0.60000002384185791       0.60000002384185791       0.60000002384185791       0.80000001192092896     
  -3.1191253384016022       -1.7875287898083936        5.5413046768161740       0.60000002384185791       0.60000002384185791       0.60000002384185791       0.80000001192092896     
   6.2410460659337321        2.1863901945755425E-007   5.9676337558064425       0.60000002384185791       0.60000002384185791       0.60000002384185791       0.80000001192092896     
   2.6044673063828299        1.2593103992068375        5.0932609454729576       0.60000002384185791       0.60000002384185791       0.60000002384185791       0.80000001192092896     
   2.6043629321930526       -1.2592376320983401        5.0932012819177626       0.60000002384185791       0.60000002384185791       0.60000002384185791       0.80000001192092896     
   4.6411198397788986       -1.6520583002461500        5.4514920474613096       0.60000002384185791       0.60000002384185791       0.60000002384185791       0.80000001192092896     
   4.6411179532159954        1.6520015950720575        5.4514578264469939       0.60000002384185791       0.60000002384185791       0.60000002384185791       0.80000001192092896     
  -5.2319253876812786        1.0709526761879438        5.0475966700903205       0.60000002384185791       0.60000002384185791       0.60000002384185791       0.80000001192092896     
  -5.2319255369364521       -1.0709523474466978        5.0475971485679532       0.60000002384185791       0.60000002384185791       0.60000002384185791       0.80000001192092896     
 -0.45819337859785686       -1.5520375852103458        2.7691130273466724        1.0000000000000000       0.10000000149011612        0.0000000000000000       0.50000000000000000     
 -0.45819350209022025        1.5520425832024700        2.7690829517638917        1.0000000000000000       0.10000000149011612        0.0000000000000000       0.50000000000000000     
  -6.1342615310749293        9.7585654129788122E-007   6.0372636304617489       0.60000002384185791       0.60000002384185791       0.60000002384185791       0.80000001192092896     
   1.2174043444945430        1.1712545081635551E-006   2.8499147156128970        1.0000000000000000       0.10000000149011612        0.0000000000000000       0.50000000000000000     
   2.5752880554322592      -0.60072296011596582        3.7802468708384951       0.60000002384185791       0.60000002384185791       0.60000002384185791       0.80000001192092896     
   2.5753097148724411       0.60069526660821260        3.7802392040538373       0.60000002384185791       0.60000002384185791       0.60000002384185791       0.80000001192092896     
  -2.6339337768553595        1.5057248479790446        5.1358151523851889       0.60000002384185791       0.60000002384185791       0.60000002384185791       0.80000001192092896     
  -2.6339387869222093       -1.5057291757703382        5.1358157409632890       0.60000002384185791       0.60000002384185791       0.60000002384185791       0.80000001192092896     
  -4.5395622473837767        1.6155637320051059        5.3144652777628885       0.60000002384185791       0.60000002384185791       0.60000002384185791       0.80000001192092896     
  -4.5395623791290571       -1.6155635924700071        5.3144653326500277       0.60000002384185791       0.60000002384185791       0.60000002384185791       0.80000001192092896     
  -1.4830672186867320      -0.59502311696705967        2.3869889502769466        1.0000000000000000       0.10000000149011612        0.0000000000000000       0.50000000000000000     
  -1.4830670850957777       0.59502520852189822        2.3869888093889999        1.0000000000000000       0.10000000149011612        0.0000000000000000       0.50000000000000000     
  0.68767661907314437        1.5864020460237449        2.5994958774441179        1.0000000000000000       0.10000000149011612        0.0000000000000000       0.50000000000000000     
  0.68764038964479890       -1.5865835646802515        2.5994943266913921        1.0000000000000000       0.10000000149011612        0.0000000000000000       0.50000000000000000     
 -0.98413728001078316       -1.9759017082173445        5.8316076401232282        1.0000000000000000        1.0000000000000000        0.0000000000000000        1.0000000000000000     
   4.0749036966228314       -1.7138209277060827        4.9290990126241194       0.60000002384185791       0.60000002384185791       0.60000002384185791       0.80000001192092896     
   4.0751340149861415        1.7138608924867940        4.9291034658894048       0.60000002384185791       0.60000002384185791       0.60000002384185791       0.80000001192092896     
   7.0544416152268852        6.8758346992499455E-007   5.7906337537027941        1.0000000000000000        1.0000000000000000        0.0000000000000000        1.0000000000000000     
   4.9731379141251146      -0.94616156194724388        3.8993159303754368       0.60000002384185791       0.60000002384185791       0.60000002384185791       0.80000001192092896     
   4.9731386695290807       0.94615962714906032        3.8993158563134682       0.60000002384185791       0.60000002384185791       0.60000002384185791       0.80000001192092896     
  0.20165966433669752        1.6411933309972684        2.2283688663032337        1.0000000000000000       0.10000000149011612        0.0000000000000000       0.50000000000000000     
  0.20169257135088278       -1.6411936264714249        2.2283963988772957        1.0000000000000000       0.10000000149011612        0.0000000000000000       0.50000000000000000     
   3.3029212173882661       -1.5742694539685869        4.5837982693306323       0.60000002384185791       0.60000002384185791       0.60000002384185791       0.80000001192092896     
   3.3028925297967033        1.5743901929619559        4.5837996067520059       0.60000002384185791       0.60000002384185791       0.60000002384185791       0.80000001192092896     
  -4.0373683722951492        1.6963691602138333        4.9355945852554548       0.60000002384185791       0.60000002384185791       0.60000002384185791       0.80000001192092896     
  -4.0373979670210121       -1.6963784533137676        4.9355949869900844       0.60000002384185791       0.60000002384185791       0.60000002384185791       0.80000001192092896     
  -7.0121626968552677        2.5970135892409160E-006   5.9876082903217620        1.0000000000000000        1.0000000000000000        0.0000000000000000        1.0000000000000000     
   4.5889881755526813       -1.4946987038094548        4.3003402152321479       0.60000002384185791       0.60000002384185791       0.60000002384185791       0.80000001192092896     
   4.5889888955733964        1.4946964973764549        4.3003390408238280       0.60000002384185791       0.60000002384185791       0.60000002384185791       0.80000001192092896     
  -2.5997742793359038       0.46224770897401074        3.9433780040058553       0.60000002384185791       0.60000002384185791       0.60000002384185791       0.80000001192092896     
  -2.5997744286594475      -0.46224519737372149        3.9433784077599614       0.60000002384185791       0.60000002384185791       0.60000002384185791       0.80000001192092896     
  0.97568260836195364       0.98721725519611692        2.3388962453941242        1.0000000000000000       0.10000000149011612        0.0000000000000000       0.50000000000000000     
  0.97569512922075052      -0.98720905485707777        2.3388912507342781        1.0000000000000000       0.10000000149011612        0.0000000000000000       0.50000000000000000     
   2.8308284194991407       -1.1882857547978840        4.4270404499321145       0.60000002384185791       0.60000002384185791       0.60000002384185791       0.80000001192092896     
   2.8307825627074781        1.1883888365969266        4.4269977734001236       0.60000002384185791       0.60000002384185791       0.60000002384185791       0.80000001192092896     
 -0.60882563252233202       -1.2852492512478384        2.0356612249060646        1.0000000000000000       0.10000000149011612        0.0000000000000000       0.50000000000000000     
 -0.60883461101627323        1.2852530123278159        2.0356370505553527        1.0000000000000000       0.10000000149011612        0.0000000000000000       0.50000000000000000     
  -3.2654910378746123        1.6378195022736692        4.5501469075815111       0.60000002384185791       0.60000002384185791       0.60000002384185791       0.80000001192092896     
  -3.2654931351680370       -1.6378205400292232        4.5501452770196469       0.60000002384185791       0.60000002384185791       0.60000002384185791       0.80000001192092896     
  -1.7528772730545406       0.98758890423362766        4.7084028783709106       0.60000002384185791       0.60000002384185791       0.60000002384185791       0.80000001192092896     
  -4.8480019053557051       0.92688108061761321        4.0307177573229316       0.60000002384185791       0.60000002384185791       0.60000002384185791       0.80000001192092896     
  -4.8480021251647667      -0.92688080961395070        4.0307176186560900       0.60000002384185791       0.60000002384185791       0.60000002384185791       0.80000001192092896     
  -4.4470133209866543        1.4233761433298513        4.2890763067066082       0.60000002384185791       0.60000002384185791       0.60000002384185791       0.80000001192092896     
  -4.4470137409063879       -1.4233752272796447        4.2890761266886139       0.60000002384185791       0.60000002384185791       0.60000002384185791       0.80000001192092896     
   5.2870020287553823       -1.0730999591895621E-006   3.9214751252824898       0.60000002384185791       0.60000002384185791       0.60000002384185791       0.80000001192092896     
  -1.2300031358017025      -0.51220704870283551        1.5252106337397189        1.0000000000000000       0.10000000149011612        0.0000000000000000       0.50000000000000000     
  -1.2300041017094032       0.51220460766553100        1.5252101708205676        1.0000000000000000       0.10000000149011612        0.0000000000000000       0.50000000000000000     
  0.65278959550488680        1.1489930415255343        1.7587996417129539        1.0000000000000000       0.10000000149011612        0.0000000000000000       0.50000000000000000     
  0.65280179420136386       -1.1489975057383877        1.7588056447276439        1.0000000000000000       0.10000000149011612        0.0000000000000000       0.50000000000000000     
   3.9696392631983191       -1.5114768085352990        3.9616075530084278       0.60000002384185791       0.60000002384185791       0.60000002384185791       0.80000001192092896     
   3.9696568808378792        1.5114818347410928        3.9616027256828454       0.60000002384185791       0.60000002384185791       0.60000002384185791       0.80000001192092896     
  -2.9077799950080330        1.3019422873718836        4.2707718639502161       0.60000002384185791       0.60000002384185791       0.60000002384185791       0.80000001192092896     
  -2.9077878568302404       -1.3019456237895601        4.2707716823558162       0.60000002384185791       0.60000002384185791       0.60000002384185791       0.80000001192092896     
   7.9826574779544979       -4.9949210988923245E-007   6.8217744382881724       0.60000002384185791       0.60000002384185791       0.60000002384185791       0.80000001192092896     
  -1.6368818807975150        1.7794718998330677E-005   3.2219107914039165       0.60000002384185791       0.60000002384185791       0.60000002384185791       0.80000001192092896     
  -5.4550819150580958        4.0452450480270724E-007   4.9169007517909167       0.60000002384185791       0.60000002384185791       0.60000002384185791       0.80000001192092896     
   2.0535114621056376       0.89364506201389249        5.6532279073877447       0.60000002384185791       0.60000002384185791       0.60000002384185791       0.80000001192092896     
   2.0534998957129456      -0.89361977977109186        5.6532950949264036       0.60000002384185791       0.60000002384185791       0.60000002384185791       0.80000001192092896     
   5.6905229995179738       -3.2382767696781148E-007   5.0535877625411745       0.60000002384185791       0.60000002384185791       0.60000002384185791       0.80000001192092896     
  -2.1630323150710904        1.0350840530399807        5.5129965537430241       0.60000002384185791       0.60000002384185791       0.60000002384185791       0.80000001192092896     
  -2.1630310624606648       -1.0350821296359460        5.5129976777736953       0.60000002384185791       0.60000002384185791       0.60000002384185791       0.80000001192092896     
  0.86179610646211369        1.9375819698906488E-006   1.9794384637673883        1.0000000000000000       0.10000000149011612        0.0000000000000000       0.50000000000000000     
  -3.8664412887857651        1.3399146469521424        4.0258781659156195       0.60000002384185791       0.60000002384185791       0.60000002384185791       0.80000001192092896     
  -3.8664425285460711       -1.3399143037762129        4.0258782445054004       0.60000002384185791       0.60000002384185791       0.60000002384185791       0.80000001192092896     
   7.3592666077604161      -0.69492922304826354        6.6380288737203754       0.60000002384185791       0.60000002384185791       0.60000002384185791       0.80000001192092896     
   7.3592658197696732       0.69493024709102558        6.6380289221464643       0.60000002384185791       0.60000002384185791       0.60000002384185791       0.80000001192092896     
  0.15535559368447863       0.88718533218996842        1.6111811395166487        1.0000000000000000       0.10000000149011612        0.0000000000000000       0.50000000000000000     
  0.15537028467013575      -0.88718302941980576        1.6111952784643331        1.0000000000000000       0.10000000149011612        0.0000000000000000       0.50000000000000000     
   4.4999553772124825      -0.30544984290683042        3.3695432628085702       0.60000002384185791       0.60000002384185791       0.60000002384185791       0.80000001192092896     
   4.4999571845800119       0.30544892061789580        3.3695432628085706       0.60000002384185791       0.60000002384185791       0.60000002384185791       0.80000001192092896     
  
   3   0  24  57
   3   0  57  24
   3   0  57  98
   3   0  98 122
   3   0  98  57
   3   0 122  98
   3   0 122  28
   3   0  28 122
   4   0  28   1  98
   3   1  28 122
   4   1  28   0  98
   3   1 122  98
   3   1 122  28
   3   1  98  58
   3   1  98 122
   3   1  58  98
   3   1  58  25
   3   1  25  58
   3   2  35 110
   3   2  35  31
   3   2  31  35
   3   2  31   6
   3   2   6  31
   3   2   9 110
   3   2 110  35
   3   2 110   9
   3   3  29 149
   3   3  26  65
   3   3  65  26
   3   3  65 160
   3   3 160  65
   3   3 160 149
   3   3 149 160
   3   3 149  29
   3   4  29 149
   3   4 149 161
   3   4 149  29
   3   4 161 149
   3   4 161  66
   3   4  66 161
   3   4  66  27
   3   4  27  66
   3   5   7  32
   3   5  32  36
   3   5  32   7
   3   5  36  32
   3   5  36  68
   3   5  68  36
   3   5  68   8
   3   5   8  68
   3   6   2  31
   3   6  31   2
   3   6  31  63
   3   6  63  10
   3   6  63  31
   3   6  10  63
   3   7  11  37
   3   7  37  32
   3   7  37  11
   3   7  32  37
   3   7  32   5
   3   7   5  32
   3   8   5  68
   3   8  68   5
   3   8  68  33
   3   8  33  12
   3   8  33  68
   3   8  12  33
   3   9  13  34
   3   9  34 110
   3   9  34  13
   3   9 110  34
   3   9 110   2
   3   9   2 110
   3  10   6  63
   3  10  63  14
   3  10  63   6
   3  10  14  63
   3  11  15  37
   3  11  37   7
   3  11  37  15
   3  11   7  37
   3  12   8  33
   3  12  33  16
   3  12  33   8
   3  12  16  33
   3  13  17  34
   3  13  34   9
   3  13  34  17
   3  13   9  34
   3  14  10  63
   3  14  63  79
   3  14  63  10
   3  14  79  63
   3  14  79  77
   3  14  77  79
   3  14  77  18
   3  14  18  77
   3  15  19  78
   3  15  78  80
   3  15  78  19
   3  15  80  78
   3  15  80  37
   3  15  37  11
   3  15  37  80
   3  15  11  37
   3  16  12  33
   3  16  33  87
   3  16  33  12
   3  16  87  33
   3  16  87  85
   3  16  85  87
   3  16  85  20
   3  16  20  85
   3  17  21  86
   3  17  86  88
   3  17  86  21
   3  17  88  86
   3  17  88  34
   3  17  34  13
   3  17  34  88
   3  17  13  34
   3  18  14  77
   3  18  77  14
   3  18  77  59
   3  18  59  77
   3  18  59  22
   3  18  22  59
   3  19  23  60
   3  19  60  78
   3  19  60  23
   3  19  78  60
   3  19  78  15
   3  19  15  78
   3  20  16  85
   3  20  85  16
   3  20  85  71
   3  20  71  85
   3  20  71  24
   3  20  24  71
   3  21  25  72
   3  21  72  86
   3  21  72  25
   3  21  86  72
   3  21  86  17
   3  21  17  86
   3  22  18  59
   3  22  59  18
   3  22  59  45
   3  22  45  26
   3  22  45  59
   3  22  26  45
   3  23  27  46
   3  23  46  60
   3  23  46  27
   3  23  60  46
   3  23  60  19
   3  23  19  60
   3  24  20  71
   3  24  71  20
   3  24  71  57
   3  24  57   0
   3  24  57  71
   3  24   0  57
   3  25   1  58
   3  25  58   1
   3  25  58  72
   3  25  72  58
   3  25  72  21
   3  25  21  72
   3  26  22  45
   3  26  45  65
   3  26  45  22
   3  26  65   3
   3  26  65  45
   3  26   3  65
   3  27   4  66
   3  27  66   4
   3  27  66  46
   3  27  46  66
   3  27  46  23
   3  27  23  46
   3  28   0 122
   4  28   0  98   1
   3  28 122   0
   3  28 122   1
   3  28   1 122
   4  28   1  98   0
   3  29   3 149
   3  29 149   3
   3  29 149   4
   3  29   4 149
   3  30  34 156
   3  30  34  39
   3  30 156  61
   3  30 156  34
   3  30  61 135
   3  30  61 156
   3  30 135 150
   3  30 135  61
   3  30 150 135
   3  30 150  41
   3  30  41  69
   3  30  41 150
   3  30  69  41
   3  30  69  39
   3  30  39  34
   3  30  39  69
   3  31   2  35
   3  31   2   6
   3  31  35  44
   3  31  35   2
   3  31  44  67
   3  31  44  35
   3  31  67  63
   3  31  67  44
   3  31  63   6
   3  31  63  67
   3  31   6   2
   3  31   6  63
   3  32  37  64
   3  32  37   7
   3  32  64  37
   3  32  64  43
   3  32  43  36
   3  32  43  64
   3  32  36  43
   3  32  36   5
   3  32   5   7
   3  32   5  36
   3  32   7  37
   3  32   7   5
   3  33 102  87
   3  33 102 155
   3  33  87 102
   3  33  87  16
   3  33  16  12
   3  33  16  87
   3  33  12   8
   3  33  12  16
   3  33   8  68
   3  33   8  12
   3  33  68  40
   3  33  68   8
   3  33  40 135
   3  33  40  68
   3  33 135  40
   3  33 135 155
   3  33 155 135
   3  33 155 102
   3  34 103  88
   3  34 103 156
   3  34 156 103
   3  34 156  30
   3  34  30 156
   3  34  30  39
   3  34  39 110
   3  34  39  30
   3  34 110  39
   3  34 110   9
   3  34   9  13
   3  34   9 110
   3  34  13  17
   3  34  13   9
   3  34  17  88
   3  34  17  13
   3  34  88 103
   3  34  88  17
   3  35 110  39
   3  35 110   2
   3  35  39 110
   3  35  39  53
   3  35  53  44
   3  35  53  39
   3  35  44  31
   3  35  44  53
   3  35  31   2
   3  35  31  44
   3  35   2  31
   3  35   2 110
   3  36  32  43
   3  36  32   5
   3  36  43  32
   3  36  43  52
   3  36  52  40
   3  36  52  43
   3  36  40  68
   3  36  40  52
   3  36  68   5
   3  36  68  40
   3  36   5  32
   3  36   5  68
   3  37  90  80
   3  37  90  62
   3  37  62 152
   3  37  62  90
   3  37 152  62
   3  37 152  64
   3  37  64 152
   3  37  64  32
   3  37  32  64
   3  37  32   7
   3  37   7  11
   3  37   7  32
   3  37  11  15
   3  37  11   7
   3  37  15  80
   3  37  15  11
   3  37  80  90
   3  37  80  15
   3  38 114 123
   4  38 114 140 164
   3  38 123 114
   3  38 123 145
   3  38 145 123
   3  38 145 118
   3  38 118 129
   3  38 118 145
   3  38 129 118
   3  38 129 100
   3  38 100 129
   4  38 100 101  47
   3  39  35 110
   3  39  35  53
   3  39 110  34
   3  39 110  35
   3  39  34  30
   3  39  34 110
   3  39  30  34
   3  39  30  69
   3  39  69  30
   3  39  69  53
   3  39  53  35
   3  39  53  69
   3  40 135  33
   3  40 135  70
   3  40  33  68
   3  40  33 135
   3  40  68  36
   3  40  68  33
   3  40  36  52
   3  40  36  68
   3  40  52  36
   3  40  52  70
   3  40  70  52
   3  40  70 135
   3  41 106 150
   3  41 106 131
   3  41 131  96
   3  41 131 106
   3  41  96  69
   3  41  96 131
   3  41  69  30
   3  41  69  96
   3  41  30 150
   3  41  30  69
   3  41 150  30
   3  41 150 106
   3  42 107 132
   3  42 107 150
   3  42 150 135
   3  42 150 107
   3  42 135  70
   3  42 135 150
   3  42  70  97
   3  42  70 135
   3  42  97  70
   3  42  97 132
   3  42 132 107
   3  42 132  97
   3  43  36  32
   3  43  36  52
   3  43  32  64
   3  43  32  36
   3  43  64  50
   3  43  64  32
   3  43  50  64
   3  43  50  73
   3  43  73  50
   3  43  73  52
   3  43  52  36
   3  43  52  73
   3  44  67  51
   3  44  67  31
   3  44  31  35
   3  44  31  67
   3  44  35  53
   3  44  35  31
   3  44  53  35
   3  44  53  74
   3  44  74  53
   3  44  74  51
   3  44  51  67
   3  44  51  74
   3  45  65  26
   3  45  65  89
   3  45  26  22
   3  45  26  65
   3  45  22  59
   3  45  22  26
   3  45  59  92
   3  45  59  22
   3  45  92  75
   3  45  92  59
   3  45  75  89
   3  45  75  92
   3  45  89  75
   3  45  89  65
   3  46  66  89
   3  46  66  27
   3  46  89  76
   3  46  89  66
   3  46  76  89
   3  46  76  93
   3  46  93  60
   3  46  93  76
   3  46  60  93
   3  46  60  23
   3  46  23  27
   3  46  23  60
   3  46  27  66
   3  46  27  23
   3  47 115 124
   4  47 115 140 165
   3  47 101 130
   4  47 101 100  38
   3  47 130 101
   3  47 130 119
   3  47 119 146
   3  47 119 130
   3  47 146 119
   3  47 146 124
   3  47 124 115
   3  47 124 146
   3  48 136 138
   4  48 136 137  54
   3  48 138 136
   3  48 138 158
   3  48 158 138
   3  48 158 133
   3  48 133 147
   3  48 133 158
   3  48 147 133
   3  48 147 125
   3  48 125 147
   4  48 125 126  54
   3  49 152  62
   3  49 152  64
   3  49  62 152
   3  49  62 153
   3  49 153  62
   3  49 153  67
   3  49  67  51
   3  49  67 153
   3  49  51  67
   3  49  51  56
   3  49  56  51
   3  49  56  50
   3  49  50  64
   3  49  50  56
   3  49  64 152
   3  49  64  50
   3  50  43  64
   3  50  43  73
   3  50  64  49
   3  50  64  43
   3  50  49  56
   3  50  49  64
   3  50  56  83
   3  50  56  49
   3  50  83  56
   3  50  83  73
   3  50  73  83
   3  50  73  43
   3  51  49  67
   3  51  49  56
   3  51  67  49
   3  51  67  44
   3  51  44  67
   3  51  44  74
   3  51  74  84
   3  51  74  44
   3  51  84  74
   3  51  84  56
   3  51  56  84
   3  51  56  49
   3  52  40  36
   3  52  40  70
   3  52  36  43
   3  52  36  40
   3  52  43  36
   3  52  43  73
   3  52  73  81
   3  52  73  43
   3  52  81  73
   3  52  81  70
   3  52  70  81
   3  52  70  40
   3  53  44  35
   3  53  44  74
   3  53  35  39
   3  53  35  44
   3  53  39  35
   3  53  39  69
   3  53  69  82
   3  53  69  39
   3  53  82  69
   3  53  82  74
   3  53  74  82
   3  53  74  44
   3  54 137 139
   4  54 137 136  48
   3  54 126 148
   4  54 126 125  48
   3  54 148 126
   3  54 148 134
   3  54 134 159
   3  54 134 148
   3  54 159 134
   3  54 159 139
   3  54 139 137
   3  54 139 159
   3  55 162 132
   3  55 162 143
   3  55 143 127
   3  55 143 162
   3  55 127 157
   3  55 127 143
   3  55 157 127
   3  55 157 128
   3  55 128 144
   3  55 128 157
   3  55 144 128
   3  55 144 163
   3  55 163 144
   3  55 163 131
   3  55 131 163
   4  55 131 117 144
   3  55 141 142
   4  55 141 106 131
   3  55 142 141
   4  55 142 107 132
   3  55 132 162
   4  55 132 107 142
   3  56  51  49
   3  56  51  84
   3  56  84  99
   3  56  84  51
   3  56  99  83
   3  56  99  84
   3  56  83  99
   3  56  83  50
   3  56  50  49
   3  56  50  83
   3  56  49  51
   3  56  49  50
   3  57   0  24
   3  57   0  98
   3  57  24  71
   3  57  24   0
   3  57  71 104
   3  57  71  24
   3  57 104  94
   3  57 104  71
   3  57  94  98
   3  57  94 104
   3  57  98  94
   3  57  98   0
   3  58   1  98
   3  58   1  25
   3  58  98  95
   3  58  98   1
   3  58  95 105
   3  58  95  98
   3  58 105  72
   3  58 105  95
   3  58  72 105
   3  58  72  25
   3  58  25   1
   3  58  25  72
   3  59  18  77
   3  59  18  22
   3  59  77  92
   3  59  77  18
   3  59  92  45
   3  59  92  77
   3  59  45  22
   3  59  45  92
   3  59  22  18
   3  59  22  45
   3  60  46  93
   3  60  46  23
   3  60  93  78
   3  60  93  46
   3  60  78  93
   3  60  78  19
   3  60  19  23
   3  60  19  78
   3  60  23  46
   3  60  23  19
   3  61 135  30
   3  61 135 155
   3  61  30 156
   3  61  30 135
   3  61 156 103
   3  61 156  30
   3  61 103 148
   3  61 103 156
   3  61 148 126
   3  61 148 103
   3  61 126 125
   3  61 126 148
   3  61 125 147
   3  61 125 126
   3  61 147 102
   3  61 147 125
   3  61 102 147
   3  61 102 155
   3  61 155 135
   3  61 155 102
   3  62  49 152
   3  62  49 153
   3  62 152  49
   3  62 152  37
   3  62  37  90
   3  62  37 152
   3  62  90 130
   3  62  90  37
   3  62 130 101
   3  62 130  90
   3  62 101 100
   3  62 101 130
   3  62 100 129
   3  62 100 101
   3  62 129  91
   3  62 129 100
   3  62  91  63
   3  62  91 129
   3  62  63  91
   3  62  63 153
   3  62 153  63
   3  62 153  49
   3  63  91  79
   3  63  91  62
   3  63  79  91
   3  63  79  14
   3  63  14  10
   3  63  14  79
   3  63  10   6
   3  63  10  14
   3  63   6  31
   3  63   6  10
   3  63  31  67
   3  63  31   6
   3  63  67 153
   3  63  67  31
   3  63 153  62
   3  63 153  67
   3  63  62  91
   3  63  62 153
   3  64  37 152
   3  64  37  32
   3  64 152  49
   3  64 152  37
   3  64  49 152
   3  64  49  50
   3  64  50  43
   3  64  50  49
   3  64  43  32
   3  64  43  50
   3  64  32  37
   3  64  32  43
   3  65   3  26
   3  65   3 160
   3  65  26  45
   3  65  26   3
   3  65  45  26
   3  65  45  89
   3  65  89 113
   3  65  89  45
   3  65 113  89
   3  65 113 160
   3  65 160 113
   3  65 160   3
   3  66   4 161
   3  66   4  27
   3  66 161 113
   3  66 161   4
   3  66 113  89
   3  66 113 161
   3  66  89  46
   3  66  89 113
   3  66  46  89
   3  66  46  27
   3  66  27   4
   3  66  27  46
   3  67  51  49
   3  67  51  44
   3  67  49 153
   3  67  49  51
   3  67 153  63
   3  67 153  49
   3  67  63  31
   3  67  63 153
   3  67  31  44
   3  67  31  63
   3  67  44  31
   3  67  44  51
   3  68   5  36
   3  68   5   8
   3  68  36  40
   3  68  36   5
   3  68  40  33
   3  68  40  36
   3  68  33   8
   3  68  33  40
   3  68   8   5
   3  68   8  33
   3  69  30  41
   3  69  30  39
   3  69  41  96
   3  69  41  30
   3  69  96  82
   3  69  96  41
   3  69  82  96
   3  69  82  53
   3  69  53  39
   3  69  53  82
   3  69  39  30
   3  69  39  53
   3  70  52  40
   3  70  52  81
   3  70  81  97
   3  70  81  52
   3  70  97  42
   3  70  97  81
   3  70  42 135
   3  70  42  97
   3  70 135  40
   3  70 135  42
   3  70  40 135
   3  70  40  52
   3  71  20  85
   3  71  20  24
   3  71  85 104
   3  71  85  20
   3  71 104  57
   3  71 104  85
   3  71  57  24
   3  71  57 104
   3  71  24  20
   3  71  24  57
   3  72  58 105
   3  72  58  25
   3  72 105  86
   3  72 105  58
   3  72  86 105
   3  72  86  21
   3  72  21  25
   3  72  21  86
   3  72  25  58
   3  72  25  21
   3  73  50  43
   3  73  50  83
   3  73  83 108
   3  73  83  50
   3  73 108  81
   3  73 108  83
   3  73  81 108
   3  73  81  52
   3  73  52  43
   3  73  52  81
   3  73  43  50
   3  73  43  52
   3  74  53  44
   3  74  53  82
   3  74  82 109
   3  74  82  53
   3  74 109  84
   3  74 109  82
   3  74  84 109
   3  74  84  51
   3  74  51  44
   3  74  51  84
   3  74  44  53
   3  74  44  51
   3  75 114 140
   3  75 114 123
   3  75 140 154
   3  75 140 114
   3  75 154 140
   3  75 154  89
   3  75  89 154
   3  75  89  45
   3  75  45  92
   3  75  45  89
   3  75  92  45
   3  75  92 123
   3  75 123 114
   3  75 123  92
   3  76  46  89
   3  76  46  93
   3  76  89 154
   3  76  89  46
   3  76 154 140
   3  76 154  89
   3  76 140 115
   3  76 140 154
   3  76 115 124
   3  76 115 140
   3  76 124  93
   3  76 124 115
   3  76  93  46
   3  76  93 124
   3  77  14  79
   3  77  14  18
   3  77  79 111
   3  77  79  14
   3  77 111  92
   3  77 111  79
   3  77  92  59
   3  77  92 111
   3  77  59  18
   3  77  59  92
   3  77  18  14
   3  77  18  59
   3  78  60  93
   3  78  60  19
   3  78  93  60
   3  78  93 112
   3  78 112  80
   3  78 112  93
   3  78  80 112
   3  78  80  15
   3  78  15  19
   3  78  15  80
   3  78  19  60
   3  78  19  15
   3  79  63  91
   3  79  63  14
   3  79  91  63
   3  79  91 118
   3  79 118 111
   3  79 118  91
   3  79 111  77
   3  79 111 118
   3  79  77  14
   3  79  77 111
   3  79  14  63
   3  79  14  77
   3  80  78 112
   3  80  78  15
   3  80 112  78
   3  80 112 119
   3  80 119  90
   3  80 119 112
   3  80  90 119
   3  80  90  37
   3  80  37  90
   3  80  37  15
   3  80  15  78
   3  80  15  37
   3  81  73 108
   3  81  73  52
   3  81 108  73
   3  81 108 116
   3  81 116  97
   3  81 116 108
   3  81  97  70
   3  81  97 116
   3  81  70  52
   3  81  70  97
   3  81  52  73
   3  81  52  70
   3  82  69  96
   3  82  69  53
   3  82  96  69
   3  82  96 117
   3  82 117 109
   3  82 117  96
   3  82 109  74
   3  82 109 117
   3  82  74  53
   3  82  74 109
   3  82  53  69
   3  82  53  74
   3  83  56  99
   3  83  56  50
   3  83  99  56
   3  83  99 127
   3  83 127 108
   3  83 127  99
   3  83 108  73
   3  83 108 127
   3  83  73  50
   3  83  73 108
   3  83  50  56
   3  83  50  73
   3  84  74 109
   3  84  74  51
   3  84 109  74
   3  84 109 128
   3  84 128  99
   3  84 128 109
   3  84  99  56
   3  84  99 128
   3  84  56  51
   3  84  56  99
   3  84  51  74
   3  84  51  56
   3  85  16  87
   3  85  16  20
   3  85  87 120
   3  85  87  16
   3  85 120 104
   3  85 120  87
   3  85 104  71
   3  85 104 120
   3  85  71  20
   3  85  71 104
   3  85  20  16
   3  85  20  71
   3  86  72 105
   3  86  72  21
   3  86 105  72
   3  86 105 121
   3  86 121  88
   3  86 121 105
   3  86  88 121
   3  86  88  17
   3  86  17  21
   3  86  17  88
   3  86  21  72
   3  86  21  17
   3  87  33 102
   3  87  33  16
   3  87 102 133
   3  87 102  33
   3  87 133 120
   3  87 133 102
   3  87 120  85
   3  87 120 133
   3  87  85  16
   3  87  85 120
   3  87  16  33
   3  87  16  85
   3  88  86 121
   3  88  86  17
   3  88 121  86
   3  88 121 134
   3  88 134 103
   3  88 134 121
   3  88 103 134
   3  88 103  34
   3  88  34 103
   3  88  34  17
   3  88  17  86
   3  88  17  34
   3  89  75 154
   3  89  75  45
   3  89 154  76
   3  89 154  75
   3  89  76  46
   3  89  76 154
   3  89  46  66
   3  89  46  76
   3  89  66 113
   3  89  66  46
   3  89 113  66
   3  89 113  65
   3  89  65  45
   3  89  65 113
   3  89  45  65
   3  89  45  75
   3  90  80 119
   3  90  80  37
   3  90 119  80
   3  90 119 130
   3  90 130  62
   3  90 130 119
   3  90  62  37
   3  90  62 130
   3  90  37  62
   3  90  37  80
   3  91  79  63
   3  91  79 118
   3  91  63  79
   3  91  63  62
   3  91  62 129
   3  91  62  63
   3  91 129 118
   3  91 129  62
   3  91 118  79
   3  91 118 129
   3  92  75  45
   3  92  75 123
   3  92  45  59
   3  92  45  75
   3  92  59  77
   3  92  59  45
   3  92  77 111
   3  92  77  59
   3  92 111  77
   3  92 111 123
   3  92 123  75
   3  92 123 111
   3  93  78  60
   3  93  78 112
   3  93  60  46
   3  93  60  78
   3  93  46  76
   3  93  46  60
   3  93  76  46
   3  93  76 124
   3  93 124 112
   3  93 124  76
   3  93 112  78
   3  93 112 124
   3  94 136 151
   3  94 136 138
   3  94 151 136
   3  94 151  98
   3  94  98 151
   3  94  98  57
   3  94  57 104
   3  94  57  98
   3  94 104  57
   3  94 104 138
   3  94 138 136
   3  94 138 104
   3  95 137 139
   3  95 137 151
   3  95 139 105
   3  95 139 137
   3  95 105  58
   3  95 105 139
   3  95  58  98
   3  95  58 105
   3  95  98 151
   3  95  98  58
   3  95 151 137
   3  95 151  98
   3  96  82  69
   3  96  82 117
   3  96  69  41
   3  96  69  82
   3  96  41 131
   3  96  41  69
   3  96 131 117
   3  96 131  41
   3  96 117  82
   3  96 117 131
   3  97  42  70
   3  97  42 132
   3  97  70  81
   3  97  70  42
   3  97  81 116
   3  97  81  70
   3  97 116  81
   3  97 116 132
   3  97 132  42
   3  97 132 116
   3  98  94 151
   3  98  94  57
   3  98 151  95
   3  98 151  94
   3  98  95  58
   3  98  95 151
   3  98  58   1
   3  98  58  95
   3  98   1 122
   3  98   1  58
   3  98 122   0
   3  98 122   1
   3  98   0  57
   3  98   0 122
   3  98  57   0
   3  98  57  94
   3  99  83  56
   3  99  83 127
   3  99  56  84
   3  99  56  83
   3  99  84 128
   3  99  84  56
   3  99 128  84
   3  99 128 157
   3  99 157 127
   3  99 157 128
   3  99 127  83
   3  99 127 157
   3 100  38 129
   4 100  38  47 101
   3 100 129  62
   3 100 129  38
   3 100  62 101
   3 100  62 129
   3 100 101  62
   4 100 101  47  38
   3 101  47 130
   4 101  47  38 100
   3 101 100  62
   4 101 100  38  47
   3 101  62 130
   3 101  62 100
   3 101 130  62
   3 101 130  47
   3 102  61 147
   3 102  61 155
   3 102 147 133
   3 102 147  61
   3 102 133  87
   3 102 133 147
   3 102  87  33
   3 102  87 133
   3 102  33  87
   3 102  33 155
   3 102 155  61
   3 102 155  33
   3 103  88 134
   3 103  88  34
   3 103 134  88
   3 103 134 148
   3 103 148  61
   3 103 148 134
   3 103  61 156
   3 103  61 148
   3 103 156  61
   3 103 156  34
   3 103  34 156
   3 103  34  88
   3 104  94  57
   3 104  94 138
   3 104  57  71
   3 104  57  94
   3 104  71  85
   3 104  71  57
   3 104  85 120
   3 104  85  71
   3 104 120  85
   3 104 120 138
   3 104 138  94
   3 104 138 120
   3 105  86  72
   3 105  86 121
   3 105  72  58
   3 105  72  86
   3 105  58  95
   3 105  58  72
   3 105  95 139
   3 105  95  58
   3 105 139 121
   3 105 139  95
   3 105 121  86
   3 105 121 139
   3 106  41 131
   3 106  41 150
   3 106 150 107
   3 106 150  41
   3 106 107 150
   4 106 107 142 141
   3 106 131  41
   4 106 131  55 141
   3 107  42 150
   3 107  42 132
   3 107 132  42
   4 107 132  55 142
   3 107 106 150
   4 107 106 141 142
   3 107 150  42
   3 107 150 106
   3 108  81  73
   3 108  81 116
   3 108  73  83
   3 108  73  81
   3 108  83 127
   3 108  83  73
   3 108 127  83
   3 108 127 143
   3 108 143 116
   3 108 143 127
   3 108 116  81
   3 108 116 143
   3 109  84  74
   3 109  84 128
   3 109  74  82
   3 109  74  84
   3 109  82 117
   3 109  82  74
   3 109 117  82
   3 109 117 144
   3 109 144 128
   3 109 144 117
   3 109 128  84
   3 109 128 144
   3 110  34  39
   3 110  34   9
   3 110  39  35
   3 110  39  34
   3 110  35  39
   3 110  35   2
   3 110   2  35
   3 110   2   9
   3 110   9  34
   3 110   9   2
   3 111  92  77
   3 111  92 123
   3 111  77  79
   3 111  77  92
   3 111  79 118
   3 111  79  77
   3 111 118  79
   3 111 118 145
   3 111 145 123
   3 111 145 118
   3 111 123  92
   3 111 123 145
   3 112  80  78
   3 112  80 119
   3 112  78  93
   3 112  78  80
   3 112  93  78
   3 112  93 124
   3 112 124  93
   3 112 124 146
   3 112 146 119
   3 112 146 124
   3 112 119  80
   3 112 119 146
   3 113  89  66
   3 113  89  65
   3 113  66 161
   3 113  66  89
   3 113 161 149
   3 113 161  66
   3 113 149 160
   3 113 149 161
   3 113 160  65
   3 113 160 149
   3 113  65  89
   3 113  65 160
   3 114  38 123
   4 114  38 164 140
   3 114 140  75
   4 114 140 164  38
   3 114  75 140
   3 114  75 123
   3 114 123  75
   3 114 123  38
   3 115  47 124
   4 115  47 165 140
   3 115 124  76
   3 115 124  47
   3 115  76 140
   3 115  76 124
   3 115 140  76
   4 115 140 165  47
   3 116  97  81
   3 116  97 132
   3 116  81 108
   3 116  81  97
   3 116 108  81
   3 116 108 143
   3 116 143 108
   3 116 143 162
   3 116 162 132
   3 116 162 143
   3 116 132  97
   3 116 132 162
   3 117 109  82
   3 117 109 144
   3 117  82  96
   3 117  82 109
   3 117  96  82
   3 117  96 131
   3 117 131  96
   3 117 131 163
   3 117 163 144
   3 117 163 131
   3 117 144 109
   3 117 144 163
   3 118 111  79
   3 118 111 145
   3 118  79  91
   3 118  79 111
   3 118  91  79
   3 118  91 129
   3 118 129  91
   3 118 129  38
   3 118  38 145
   3 118  38 129
   3 118 145 111
   3 118 145  38
   3 119  90  80
   3 119  90 130
   3 119  80 112
   3 119  80  90
   3 119 112  80
   3 119 112 146
   3 119 146 112
   3 119 146  47
   3 119  47 130
   3 119  47 146
   3 119 130  90
   3 119 130  47
   3 120 104  85
   3 120 104 138
   3 120  85  87
   3 120  85 104
   3 120  87 133
   3 120  87  85
   3 120 133  87
   3 120 133 158
   3 120 158 138
   3 120 158 133
   3 120 138 104
   3 120 138 158
   3 121  88  86
   3 121  88 134
   3 121  86 105
   3 121  86  88
   3 121 105  86
   3 121 105 139
   3 121 139 105
   3 121 139 159
   3 121 159 134
   3 121 159 139
   3 121 134  88
   3 121 134 159
   3 122   0  98
   3 122   0  28
   3 122  98   1
   3 122  98   0
   3 122   1  28
   3 122   1  98
   3 122  28   0
   3 122  28   1
   3 123 114  38
   3 123 114  75
   3 123  75 114
   3 123  75  92
   3 123  92  75
   3 123  92 111
   3 123 111  92
   3 123 111 145
   3 123 145 111
   3 123 145  38
   3 123  38 114
   3 123  38 145
   3 124 112  93
   3 124 112 146
   3 124  93  76
   3 124  93 112
   3 124  76 115
   3 124  76  93
   3 124 115  47
   3 124 115  76
   3 124  47 115
   3 124  47 146
   3 124 146 112
   3 124 146  47
   3 125  48 147
   4 125  48  54 126
   3 125 147  61
   3 125 147  48
   3 125  61 126
   3 125  61 147
   3 125 126  61
   4 125 126  54  48
   3 126  54 148
   4 126  54  48 125
   3 126 125  61
   4 126 125  48  54
   3 126  61 148
   3 126  61 125
   3 126 148  61
   3 126 148  54
   3 127 108  83
   3 127 108 143
   3 127  83  99
   3 127  83 108
   3 127  99  83
   3 127  99 157
   3 127 157  99
   3 127 157  55
   3 127  55 143
   3 127  55 157
   3 127 143 108
   3 127 143  55
   3 128  99  84
   3 128  99 157
   3 128  84 109
   3 128  84  99
   3 128 109  84
   3 128 109 144
   3 128 144 109
   3 128 144  55
   3 128  55 157
   3 128  55 144
   3 128 157  99
   3 128 157  55
   3 129 118  91
   3 129 118  38
   3 129  91  62
   3 129  91 118
   3 129  62 100
   3 129  62  91
   3 129 100  38
   3 129 100  62
   3 129  38 118
   3 129  38 100
   3 130 101  47
   3 130 101  62
   3 130  62  90
   3 130  62 101
   3 130  90 119
   3 130  90  62
   3 130 119  90
   3 130 119  47
   3 130  47 101
   3 130  47 119
   3 131 117  96
   3 131 117 163
   3 131  96  41
   3 131  96 117
   3 131  41 106
   3 131  41  96
   3 131 106  41
   4 131 106 141  55
   3 131  55 163
   4 131  55 144 117
   3 131 163 117
   3 131 163  55
   3 132 107  42
   4 132 107 142  55
   3 132  42 107
   3 132  42  97
   3 132  97  42
   3 132  97 116
   3 132 116  97
   3 132 116 162
   3 132 162 116
   3 132 162  55
   3 132  55 162
   4 132  55 143 116
   3 133 120  87
   3 133 120 158
   3 133  87 102
   3 133  87 120
   3 133 102 147
   3 133 102  87
   3 133 147 102
   3 133 147  48
   3 133  48 158
   3 133  48 147
   3 133 158 120
   3 133 158  48
   3 134 103  88
   3 134 103 148
   3 134  88 121
   3 134  88 103
   3 134 121  88
   3 134 121 159
   3 134 159 121
   3 134 159  54
   3 134  54 148
   3 134  54 159
   3 134 148 103
   3 134 148  54
   3 135  33  40
   3 135  33 155
   3 135  40  33
   3 135  40  70
   3 135  70  42
   3 135  70  40
   3 135  42 150
   3 135  42  70
   3 135 150  30
   3 135 150  42
   3 135  30  61
   3 135  30 150
   3 135  61  30
   3 135  61 155
   3 135 155  61
   3 135 155  33
   3 136  48 138
   4 136  48  54 137
   3 136 137 151
   4 136 137  54  48
   3 136 151 137
   3 136 151  94
   3 136  94 151
   3 136  94 138
   3 136 138  94
   3 136 138  48
   3 137  54 139
   4 137  54  48 136
   3 137 139  95
   3 137 139  54
   3 137  95 139
   3 137  95 151
   3 137 151 136
   3 137 151  95
   3 137 136 151
   4 137 136  48  54
   3 138 136  48
   3 138 136  94
   3 138  94 136
   3 138  94 104
   3 138 104  94
   3 138 104 120
   3 138 120 104
   3 138 120 158
   3 138 158 120
   3 138 158  48
   3 138  48 136
   3 138  48 158
   3 139 121 105
   3 139 121 159
   3 139 105  95
   3 139 105 121
   3 139  95 137
   3 139  95 105
   3 139 137  54
   3 139 137  95
   3 139  54 137
   3 139  54 159
   3 139 159 121
   3 139 159  54
   3 140 164 165
   4 140 164  38 114
   3 140 165 164
   4 140 165  47 115
   3 140 115  76
   4 140 115  47 165
   3 140  76 154
   3 140  76 115
   3 140 154  76
   3 140 154  75
   3 140  75 114
   3 140  75 154
   3 140 114  75
   4 140 114  38 164
   3 141  55 142
   4 141  55 131 106
   3 141 142  55
   4 141 142 107 106
   3 142  55 141
   4 142  55 132 107
   3 142 141  55
   4 142 141 106 107
   3 143 116 108
   3 143 116 162
   3 143 108 127
   3 143 108 116
   3 143 127 108
   3 143 127  55
   3 143  55 162
   3 143  55 127
   3 143 162 116
   3 143 162  55
   3 144 128 109
   3 144 128  55
   3 144 109 117
   3 144 109 128
   3 144 117 109
   3 144 117 163
   3 144 163 117
   3 144 163  55
   3 144  55 128
   3 144  55 163
   3 145 123 111
   3 145 123  38
   3 145 111 118
   3 145 111 123
   3 145 118 111
   3 145 118  38
   3 145  38 123
   3 145  38 118
   3 146 119 112
   3 146 119  47
   3 146 112 124
   3 146 112 119
   3 146 124 112
   3 146 124  47
   3 146  47 119
   3 146  47 124
   3 147 133 102
   3 147 133  48
   3 147 102  61
   3 147 102 133
   3 147  61 125
   3 147  61 102
   3 147 125  48
   3 147 125  61
   3 147  48 133
   3 147  48 125
   3 148 126  54
   3 148 126  61
   3 148  61 103
   3 148  61 126
   3 148 103 134
   3 148 103  61
   3 148 134 103
   3 148 134  54
   3 148  54 126
   3 148  54 134
   3 149   3  29
   3 149   3 160
   3 149 160 113
   3 149 160   3
   3 149 113 161
   3 149 113 160
   3 149 161 113
   3 149 161   4
   3 149   4  29
   3 149   4 161
   3 149  29   3
   3 149  29   4
   3 150  30 135
   3 150  30  41
   3 150 135  42
   3 150 135  30
   3 150  42 107
   3 150  42 135
   3 150 107  42
   3 150 107 106
   3 150 106  41
   3 150 106 107
   3 150  41 106
   3 150  41  30
   3 151 136 137
   3 151 136  94
   3 151 137  95
   3 151 137 136
   3 151  95 137
   3 151  95  98
   3 151  98  94
   3 151  98  95
   3 151  94 136
   3 151  94  98
   3 152  62  49
   3 152  62  37
   3 152  49  62
   3 152  49  64
   3 152  64  37
   3 152  64  49
   3 152  37  62
   3 152  37  64
   3 153  62  49
   3 153  62  63
   3 153  63  67
   3 153  63  62
   3 153  67  49
   3 153  67  63
   3 153  49  62
   3 153  49  67
   3 154 140  76
   3 154 140  75
   3 154  76  89
   3 154  76 140
   3 154  89  75
   3 154  89  76
   3 154  75 140
   3 154  75  89
   3 155 135  33
   3 155 135  61
   3 155  61 135
   3 155  61 102
   3 155 102  61
   3 155 102  33
   3 155  33 102
   3 155  33 135
   3 156 103  61
   3 156 103  34
   3 156  61  30
   3 156  61 103
   3 156  30  34
   3 156  30  61
   3 156  34 103
   3 156  34  30
   3 157 127  99
   3 157 127  55
   3 157  99 128
   3 157  99 127
   3 157 128  99
   3 157 128  55
   3 157  55 127
   3 157  55 128
   3 158 138 120
   3 158 138  48
   3 158 120 133
   3 158 120 138
   3 158 133 120
   3 158 133  48
   3 158  48 138
   3 158  48 133
   3 159 134 121
   3 159 134  54
   3 159 121 139
   3 159 121 134
   3 159 139 121
   3 159 139  54
   3 159  54 134
   3 159  54 139
   3 160  65   3
   3 160  65 113
   3 160 113 149
   3 160 113  65
   3 160 149   3
   3 160 149 113
   3 160   3  65
   3 160   3 149
   3 161 149 113
   3 161 149   4
   3 161 113  66
   3 161 113 149
   3 161  66   4
   3 161  66 113
   3 161   4 149
   3 161   4  66
   3 162 132 116
   3 162 132  55
   3 162 116 143
   3 162 116 132
   3 162 143 116
   3 162 143  55
   3 162  55 143
   3 162  55 132
   3 163 144 117
   3 163 144  55
   3 163 117 131
   3 163 117 144
   3 163 131 117
   3 163 131  55
   3 163  55 144
   3 163  55 131
   3 164 165 140
   4 164 165  47  38
   3 164 140 165
   4 164 140 114  38
   3 165 140 164
   4 165 140 115  47
   3 165 164 140
   4 165 164  38  47
