 COFF
          21         108          21
  
  -3.1880679567216235       0.61682044754990872        2.0800888381059011       0.60000002384185791       0.60000002384185791       0.60000002384185791       0.80000001192092896     
  -3.1880679567216239      -0.61682044754990872        2.0800888381059011       0.60000002384185791       0.60000002384185791       0.60000002384185791       0.80000001192092896     
  -1.2280331277369307E-002  -1.2775969872180084        2.0264940636878119       0.60000002384185791       0.60000002384185791       0.60000002384185791       0.80000001192092896     
   3.4822692348372555      -0.61198014347763485        2.0901255869972934       0.60000002384185791       0.60000002384185791       0.60000002384185791       0.80000001192092896     
   3.4822692348372555       0.61198014347763485        2.0901255869972934       0.60000002384185791       0.60000002384185791       0.60000002384185791       0.80000001192092896     
  -1.2280331277369305E-002   1.2775969872180084        2.0264940636878119       0.60000002384185791       0.60000002384185791       0.60000002384185791       0.80000001192092896     
  0.94515303265716843      -0.99412828013313004        2.0370605971983307       0.60000002384185791       0.60000002384185791       0.60000002384185791       0.80000001192092896     
  0.94515303265716843       0.99412828013313004        2.0370605971983307       0.60000002384185791       0.60000002384185791       0.60000002384185791       0.80000001192092896     
  -1.0026065344443278       0.98379620998364514        2.0393774548268788       0.60000002384185791       0.60000002384185791       0.60000002384185791       0.80000001192092896     
  -1.0026065344443278      -0.98379620998364514        2.0393774548268788       0.60000002384185791       0.60000002384185791       0.60000002384185791       0.80000001192092896     
   1.9191987607108267      -0.81986750914589035        2.1307374956660259       0.60000002384185791       0.60000002384185791       0.60000002384185791       0.80000001192092896     
   1.9191987607108267       0.81986750914589035        2.1307374956660259       0.60000002384185791       0.60000002384185791       0.60000002384185791       0.80000001192092896     
  -2.0359007984483211       0.80156246919476792        2.0620126198263082       0.60000002384185791       0.60000002384185791       0.60000002384185791       0.80000001192092896     
  -2.0359007984483211      -0.80156246919476770        2.0620126198263082       0.60000002384185791       0.60000002384185791       0.60000002384185791       0.80000001192092896     
   6.4614693078506634E-003  -2.2228928441544556E-017   1.0306063639638421        1.0000000000000000        1.0000000000000000        0.0000000000000000        1.0000000000000000     
   1.4540560825079092      -0.66066391644321654        1.5288188725972327       0.60000002384185791       0.60000002384185791       0.60000002384185791       0.80000001192092896     
  -1.3907145216229237       0.65077429422129685        1.5207546590875585       0.60000002384185791       0.60000002384185791       0.60000002384185791       0.80000001192092896     
  -1.3907145216229237      -0.65077429422129673        1.5207546590875585       0.60000002384185791       0.60000002384185791       0.60000002384185791       0.80000001192092896     
   1.4540560825079092       0.66066391644321654        1.5288188725972327       0.60000002384185791       0.60000002384185791       0.60000002384185791       0.80000001192092896     
   2.5370247241989206      -0.61632792300352934        1.7434494575853356       0.60000002384185791       0.60000002384185791       0.60000002384185791       0.80000001192092896     
   2.5370247241989206       0.61632792300352934        1.7434494575853356       0.60000002384185791       0.60000002384185791       0.60000002384185791       0.80000001192092896     
  
   3   0  12  16
   3   0  16  12
   4   0  16  17   1
   3   1  17  13
   4   1  17  16   0
   3   1  13  17
   3   2  14   6
   3   2  14   9
   3   2   6  14
   3   2   9  14
   3   5   7  14
   3   5  14   7
   3   5  14   8
   3   5   8  14
   3   6   2  14
   3   6  14  15
   3   6  14   2
   3   6  15  10
   3   6  15  14
   3   6  10  15
   3   7  11  18
   3   7  18  14
   3   7  18  11
   3   7  14   5
   3   7  14  18
   3   7   5  14
   3   8   5  14
   3   8  14   5
   3   8  14  16
   3   8  16  12
   3   8  16  14
   3   8  12  16
   3   9  13  17
   3   9  17  14
   3   9  17  13
   3   9  14   2
   3   9  14  17
   3   9   2  14
   3  10   6  15
   3  10  15   6
   4  10  15  19   3
   3  11  18   7
   4  11  18  20   4
   3  11   7  18
   3  12   8  16
   3  12  16   0
   3  12  16   8
   3  12   0  16
   3  13   1  17
   3  13  17   1
   3  13  17   9
   3  13   9  17
   3  14   5   7
   3  14   5   8
   3  14   7  18
   3  14   7   5
   3  14  18  15
   3  14  18   7
   3  14  15   6
   3  14  15  18
   3  14   6   2
   3  14   6  15
   3  14   2   6
   3  14   2   9
   3  14   9  17
   3  14   9   2
   3  14  17  16
   3  14  17   9
   3  14  16   8
   3  14  16  17
   3  14   8   5
   3  14   8  16
   3  15  10   6
   4  15  10   3  19
   3  15   6  14
   3  15   6  10
   3  15  14  18
   3  15  14   6
   3  15  18  14
   4  15  18  20  19
   3  16   0  12
   4  16   0   1  17
   3  16  12   8
   3  16  12   0
   3  16   8  14
   3  16   8  12
   3  16  14  17
   3  16  14   8
   3  16  17  14
   4  16  17   1   0
   3  17   1  13
   4  17   1   0  16
   3  17  16  14
   4  17  16   0   1
   3  17  14   9
   3  17  14  16
   3  17   9  13
   3  17   9  14
   3  17  13   1
   3  17  13   9
   3  18  15  14
   4  18  15  19  20
   3  18  14   7
   3  18  14  15
   3  18   7  11
   3  18   7  14
   3  18  11   7
   4  18  11   4  20
