# Generated by dad_to_polygons. Vertex data from Humppa's .off file,
# polygons parsed from .dad file.
COFF
21 52 21
-3.188068 0.616820 2.080089 0.500000 0.500000 0.500000 1.0
-3.188068 -0.616820 2.080089 0.500000 0.500000 0.500000 1.0
-0.012280 -1.277597 2.026494 0.500000 0.500000 0.500000 1.0
3.482269 -0.611980 2.090126 0.500000 0.500000 0.500000 1.0
3.482269 0.611980 2.090126 0.500000 0.500000 0.500000 1.0
-0.012280 1.277597 2.026494 0.500000 0.500000 0.500000 1.0
0.945153 -0.994128 2.037061 0.500000 0.500000 0.500000 1.0
0.945153 0.994128 2.037061 0.500000 0.500000 0.500000 1.0
-1.002607 0.983796 2.039377 0.500000 0.500000 0.500000 1.0
-1.002607 -0.983796 2.039377 0.500000 0.500000 0.500000 1.0
1.919199 -0.819868 2.130737 0.500000 0.500000 0.500000 1.0
1.919199 0.819868 2.130737 0.500000 0.500000 0.500000 1.0
-2.035901 0.801562 2.062013 0.500000 0.500000 0.500000 1.0
-2.035901 -0.801562 2.062013 0.500000 0.500000 0.500000 1.0
0.006461 -0.000000 1.030606 1.0 1.0 0.0 1.0
1.454056 -0.660664 1.528819 0.500000 0.500000 0.500000 1.0
-1.390715 0.650774 1.520755 0.500000 0.500000 0.500000 1.0
-1.390715 -0.650774 1.520755 0.500000 0.500000 0.500000 1.0
1.454056 0.660664 1.528819 0.500000 0.500000 0.500000 1.0
2.537025 -0.616328 1.743449 0.500000 0.500000 0.500000 1.0
2.537025 0.616328 1.743449 0.500000 0.500000 0.500000 1.0
3 0 12 16
3 0 16 12
3 0 16 17
3 0 17 16
3 0 17 1
3 0 1 17
3 1 17 13
3 1 13 17
3 2 14 6
3 2 6 14
3 3 4 20
3 3 20 4
3 3 10 15
3 3 15 10
3 3 15 19
3 3 19 15
3 3 20 19
3 3 19 20
3 4 11 18
3 4 18 11
3 4 18 20
3 4 20 18
3 5 14 8
3 5 8 14
3 6 14 15
3 6 15 14
3 7 14 18
3 7 18 14
3 8 14 16
3 8 16 14
3 9 2 14
3 9 14 2
3 9 13 17
3 9 17 13
3 9 14 17
3 9 17 14
3 12 16 8
3 12 8 16
3 14 5 7
3 14 7 5
3 14 17 16
3 14 16 17
3 15 6 10
3 15 10 6
3 15 18 14
3 15 14 18
3 15 19 20
3 15 20 19
3 15 20 18
3 15 18 20
3 18 11 7
3 18 7 11
