 COFF
          37         264          37
  
  -4.6416467267944350       0.70172869087580236        3.2077913231335158       0.60000002384185791       0.60000002384185791       0.60000002384185791       0.80000001192092896     
  -4.6416467267944377      -0.70172869087580214        3.2077913231335158       0.60000002384185791       0.60000002384185791       0.60000002384185791       0.80000001192092896     
  -2.6116657576978525E-002  -1.5805954258724537        2.9734878786500900       0.60000002384185791       0.60000002384185791       0.60000002384185791       0.80000001192092896     
   4.9785421586974987      -0.68631941104515504        3.2365028382247845       0.60000002384185791       0.60000002384185791       0.60000002384185791       0.80000001192092896     
   4.9785421586974987       0.68631941104515504        3.2365028382247845       0.60000002384185791       0.60000002384185791       0.60000002384185791       0.80000001192092896     
  -2.6116657576978543E-002   1.5805954258724535        2.9734878786500900       0.60000002384185791       0.60000002384185791       0.60000002384185791       0.80000001192092896     
  0.98648039001778287       -1.2896451114501850        3.0932128031194175       0.60000002384185791       0.60000002384185791       0.60000002384185791       0.80000001192092896     
  0.98648039001778287        1.2896451114501850        3.0932128031194175       0.60000002384185791       0.60000002384185791       0.60000002384185791       0.80000001192092896     
  -1.0360657809294098        1.2723659187607887        3.0623113722241979       0.60000002384185791       0.60000002384185791       0.60000002384185791       0.80000001192092896     
  -1.0360657809294100       -1.2723659187607890        3.0623113722241984       0.60000002384185791       0.60000002384185791       0.60000002384185791       0.80000001192092896     
   1.9218166263238721      -0.99001349107639480        3.2883352584014269       0.60000002384185791       0.60000002384185791       0.60000002384185791       0.80000001192092896     
   1.9218166263238721       0.99001349107639480        3.2883352584014269       0.60000002384185791       0.60000002384185791       0.60000002384185791       0.80000001192092896     
  -1.9802814611477357        1.0054525544731030        3.2548068475802236       0.60000002384185791       0.60000002384185791       0.60000002384185791       0.80000001192092896     
  -1.9802814611477360       -1.0054525544731026        3.2548068475802232       0.60000002384185791       0.60000002384185791       0.60000002384185791       0.80000001192092896     
   3.0517113086926435      -0.85255628531607852        3.2931589425692573       0.60000002384185791       0.60000002384185791       0.60000002384185791       0.80000001192092896     
   3.0517113086926440       0.85255628531607852        3.2931589425692573       0.60000002384185791       0.60000002384185791       0.60000002384185791       0.80000001192092896     
  -2.9941211209599699       0.86730126118553830        3.2385875295824991       0.60000002384185791       0.60000002384185791       0.60000002384185791       0.80000001192092896     
  -2.9941211209599703      -0.86730126118553796        3.2385875295824995       0.60000002384185791       0.60000002384185791       0.60000002384185791       0.80000001192092896     
   2.1059930792106614       0.86561350582415775        2.4137849006591470       0.60000002384185791       0.60000002384185791       0.60000002384185791       0.80000001192092896     
   3.4099263838620320      -0.70955772807843998        2.5776661058314052       0.60000002384185791       0.60000002384185791       0.60000002384185791       0.80000001192092896     
   3.4099263838620320       0.70955772807843998        2.5776661058314052       0.60000002384185791       0.60000002384185791       0.60000002384185791       0.80000001192092896     
  -3.3345581188742068       0.72209745514794854        2.5469235305494147       0.60000002384185791       0.60000002384185791       0.60000002384185791       0.80000001192092896     
  -3.3345581188742073      -0.72209745514794832        2.5469235305494142       0.60000002384185791       0.60000002384185791       0.60000002384185791       0.80000001192092896     
  -2.5595654940201863E-002  -1.6813283114767275E-017   1.0306063639638421        1.0000000000000000        1.0000000000000000        0.0000000000000000        1.0000000000000000     
   2.1059930792106614      -0.86561350582415775        2.4137849006591465       0.60000002384185791       0.60000002384185791       0.60000002384185791       0.80000001192092896     
   1.1648674992085324       0.84161436811844703        1.7651222495644872       0.60000002384185791       0.60000002384185791       0.60000002384185791       0.80000001192092896     
   1.1648674992085324      -0.84161436811844725        1.7651222495644872       0.60000002384185791       0.60000002384185791       0.60000002384185791       0.80000001192092896     
 -0.81766949343864082        1.1331236812993040        2.2438442909048675       0.60000002384185791       0.60000002384185791       0.60000002384185791       0.80000001192092896     
 -0.81766949343864104       -1.1331236812993040        2.2438442909048675       0.60000002384185791       0.60000002384185791       0.60000002384185791       0.80000001192092896     
  -1.6806906745027403       0.60589750737803083        1.5783159807818106       0.60000002384185791       0.60000002384185791       0.60000002384185791       0.80000001192092896     
  -1.6806906745027406      -0.60589750737803072        1.5783159807818106       0.60000002384185791       0.60000002384185791       0.60000002384185791       0.80000001192092896     
  0.84228487098646232       -1.0581668469351644        2.1188562187582431       0.60000002384185791       0.60000002384185791       0.60000002384185791       0.80000001192092896     
  0.84228487098646232        1.0581668469351646        2.1188562187582440       0.60000002384185791       0.60000002384185791       0.60000002384185791       0.80000001192092896     
  -2.0873522623850969       0.87536382114757660        2.3949683545035536       0.60000002384185791       0.60000002384185791       0.60000002384185791       0.80000001192092896     
  -2.0873522623850973      -0.87536382114757627        2.3949683545035536       0.60000002384185791       0.60000002384185791       0.60000002384185791       0.80000001192092896     
  -3.9484402706923584E-002  -1.1767202309815883        2.0915297184640789       0.60000002384185791       0.60000002384185791       0.60000002384185791       0.80000001192092896     
  -3.9484402706923598E-002   1.1767202309815883        2.0915297184640789       0.60000002384185791       0.60000002384185791       0.60000002384185791       0.80000001192092896     
  
   3   0  16  21
   3   0  21  16
   4   0  21  22   1
   3   1  22  17
   4   1  22  21   0
   3   1  17  22
   3   2  35  28
   3   2  35  31
   3   2  31  35
   3   2  31   6
   3   2   6  31
   3   2   9  28
   3   2  28  35
   3   2  28   9
   3   3  14  19
   3   3  19  14
   4   3  19  20   4
   3   4  20  15
   4   4  20  19   3
   3   4  15  20
   3   5   7  32
   3   5  32  36
   3   5  32   7
   3   5  36  32
   3   5  36  27
   3   5  27  36
   3   5  27   8
   3   5   8  27
   3   6   2  31
   3   6  31   2
   3   6  31  24
   3   6  24  10
   3   6  24  31
   3   6  10  24
   3   7  11  18
   3   7  18  32
   3   7  18  11
   3   7  32  18
   3   7  32   5
   3   7   5  32
   3   8   5  27
   3   8  27   5
   3   8  27  33
   3   8  33  12
   3   8  33  27
   3   8  12  33
   3   9  13  34
   3   9  34  28
   3   9  34  13
   3   9  28  34
   3   9  28   2
   3   9   2  28
   3  10   6  24
   3  10  24  14
   3  10  24   6
   3  10  14  24
   3  11  15  18
   3  11  18   7
   3  11  18  15
   3  11   7  18
   3  12   8  33
   3  12  33  16
   3  12  33   8
   3  12  16  33
   3  13  17  34
   3  13  34   9
   3  13  34  17
   3  13   9  34
   3  14  10  24
   3  14  24  19
   3  14  24  10
   3  14  19   3
   3  14  19  24
   3  14   3  19
   3  15   4  20
   3  15  20   4
   3  15  20  18
   3  15  18  20
   3  15  18  11
   3  15  11  18
   3  16  12  33
   3  16  33  21
   3  16  33  12
   3  16  21   0
   3  16  21  33
   3  16   0  21
   3  17   1  22
   3  17  22   1
   3  17  22  34
   3  17  34  22
   3  17  34  13
   3  17  13  34
   3  18  20  15
   4  18  20  19  24
   3  18  25  32
   4  18  25  26  24
   3  18  32  25
   3  18  32   7
   3  18   7  11
   3  18   7  32
   3  18  11  15
   3  18  11   7
   3  18  15  20
   3  18  15  11
   3  19   3  14
   4  19   3   4  20
   3  19  14  24
   3  19  14   3
   3  19  24  14
   4  19  24  18  20
   3  20   4  15
   4  20   4   3  19
   3  20  18  15
   4  20  18  24  19
   3  20  15   4
   3  20  15  18
   3  21   0  16
   4  21   0   1  22
   3  21  16  33
   3  21  16   0
   3  21  33  16
   4  21  33  34  22
   3  22   1  17
   4  22   1   0  21
   3  22  34  17
   4  22  34  33  21
   3  22  17   1
   3  22  17  34
   3  23  36  32
   3  23  36  27
   3  23  32  25
   3  23  32  36
   3  23  25  26
   3  23  25  32
   3  23  26  25
   3  23  26  31
   3  23  31  35
   3  23  31  26
   3  23  35  28
   3  23  35  31
   3  23  28  35
   4  23  28  34  30
   3  23  30  29
   4  23  30  34  28
   3  23  29  30
   4  23  29  33  27
   3  23  27  36
   4  23  27   5  32
   3  24  19  14
   4  24  19  20  18
   3  24  14  10
   3  24  14  19
   3  24  10   6
   3  24  10  14
   3  24   6  31
   3  24   6  10
   3  24  31  26
   3  24  31   6
   3  24  26  31
   4  24  26  25  18
   3  25  18  32
   4  25  18  24  26
   3  25  26  23
   4  25  26  24  18
   3  25  23  32
   3  25  23  26
   3  25  32  18
   3  25  32  23
   3  26  23  25
   3  26  23  31
   3  26  25  23
   4  26  25  18  24
   3  26  24  31
   4  26  24  18  25
   3  26  31  23
   3  26  31  24
   3  27   5  36
   3  27   5   8
   3  27  36  23
   3  27  36   5
   3  27  23  36
   4  27  23  32   5
   3  27  33   8
   4  27  33  29  23
   3  27   8   5
   3  27   8  33
   3  28  34   9
   4  28  34  30  23
   3  28  23  35
   4  28  23  31   2
   3  28  35  23
   3  28  35   2
   3  28   2  35
   3  28   2   9
   3  28   9  34
   3  28   9   2
   3  29  23  30
   4  29  23  27  33
   3  29  30  23
   4  29  30  34  33
   3  30  29  23
   4  30  29  33  34
   3  30  23  29
   4  30  23  28  34
   3  31   2  35
   3  31   2   6
   3  31  35  23
   3  31  35   2
   3  31  23  26
   3  31  23  35
   3  31  26  23
   3  31  26  24
   3  31  24   6
   3  31  24  26
   3  31   6   2
   3  31   6  24
   3  32  18  25
   3  32  18   7
   3  32  25  18
   3  32  25  23
   3  32  23  36
   3  32  23  25
   3  32  36  23
   3  32  36   5
   3  32   5   7
   3  32   5  36
   3  32   7  18
   3  32   7   5
   3  33  21  16
   4  33  21  22  34
   3  33  16  12
   3  33  16  21
   3  33  12   8
   3  33  12  16
   3  33   8  27
   3  33   8  12
   3  33  27   8
   4  33  27  23  29
   3  34  22  17
   4  34  22  21  33
   3  34  28   9
   4  34  28  23  30
   3  34   9  13
   3  34   9  28
   3  34  13  17
   3  34  13   9
   3  34  17  22
   3  34  17  13
   3  35  28  23
   3  35  28   2
   3  35  23  31
   3  35  23  28
   3  35  31   2
   3  35  31  23
   3  35   2  31
   3  35   2  28
   3  36  32  23
   3  36  32   5
   3  36  23  32
   3  36  23  27
   3  36  27   5
   3  36  27  23
   3  36   5  32
   3  36   5  27
