# Generated by dad_to_polygons. Vertex data from Humppa's .off file,
# polygons parsed from .dad file.
COFF
47 144 47
-4.971937 0.721566 3.595163 0.500000 0.500000 0.500000 1.0
-4.971937 -0.721566 3.595163 0.500000 0.500000 0.500000 1.0
-0.026634 -1.658712 3.306385 0.500000 0.500000 0.500000 1.0
5.484824 -0.712116 3.616048 0.500000 0.500000 0.500000 1.0
5.484824 0.712116 3.616048 0.500000 0.500000 0.500000 1.0
-0.026634 1.658712 3.306385 0.500000 0.500000 0.500000 1.0
1.005016 -1.348960 3.443742 0.500000 0.500000 0.500000 1.0
1.005016 1.348960 3.443742 0.500000 0.500000 0.500000 1.0
-1.055802 1.337044 3.408427 0.500000 0.500000 0.500000 1.0
-1.055802 -1.337044 3.408427 0.500000 0.500000 0.500000 1.0
1.931404 -1.032657 3.660680 0.500000 0.500000 0.500000 1.0
1.931404 1.032657 3.660680 0.500000 0.500000 0.500000 1.0
-1.991083 1.052200 3.622409 0.500000 0.500000 0.500000 1.0
-1.991083 -1.052200 3.622409 0.500000 0.500000 0.500000 1.0
3.049463 -0.903866 3.693423 0.500000 0.500000 0.500000 1.0
3.049463 0.903866 3.693423 0.500000 0.500000 0.500000 1.0
-3.013436 0.906457 3.629730 0.500000 0.500000 0.500000 1.0
-3.013436 -0.906457 3.629730 0.500000 0.500000 0.500000 1.0
4.041735 -0.829931 3.697638 0.500000 0.500000 0.500000 1.0
4.041735 0.829931 3.697638 0.500000 0.500000 0.500000 1.0
3.498328 0.618402 2.726269 1.0 1.0 0.0 1.0
-3.493245 0.757024 2.920610 0.500000 0.500000 0.500000 1.0
-3.493245 -0.757024 2.920610 0.500000 0.500000 0.500000 1.0
-0.028736 -0.000000 1.030606 1.0 1.0 0.0 1.0
2.199267 -0.905151 2.724093 0.500000 0.500000 0.500000 1.0
1.287449 0.979556 2.028132 0.500000 0.500000 0.500000 1.0
1.287449 -0.979556 2.028132 0.500000 0.500000 0.500000 1.0
-0.957151 1.246131 2.555354 0.500000 0.500000 0.500000 1.0
-0.957151 -1.246131 2.555354 0.500000 0.500000 0.500000 1.0
-1.791782 0.716919 1.777708 0.500000 0.500000 0.500000 1.0
-1.791782 -0.716919 1.777708 0.500000 0.500000 0.500000 1.0
0.955660 -1.190661 2.419004 0.500000 0.500000 0.500000 1.0
0.955660 1.190661 2.419004 0.500000 0.500000 0.500000 1.0
-2.192305 0.920139 2.700610 0.500000 0.500000 0.500000 1.0
-2.192305 -0.920139 2.700610 0.500000 0.500000 0.500000 1.0
-0.035365 -1.320281 2.358283 0.500000 0.500000 0.500000 1.0
-0.035365 1.320281 2.358283 0.500000 0.500000 0.500000 1.0
2.199267 0.905151 2.724093 0.500000 0.500000 0.500000 1.0
3.498328 -0.618402 2.726269 1.0 1.0 0.0 1.0
-0.459717 -0.819176 1.836613 0.500000 0.500000 0.500000 1.0
-0.459717 0.819176 1.836613 0.500000 0.500000 0.500000 1.0
-1.039343 -0.348622 1.371683 0.500000 0.500000 0.500000 1.0
-1.039343 0.348622 1.371683 0.500000 0.500000 0.500000 1.0
0.520247 0.677020 1.706922 0.500000 0.500000 0.500000 1.0
0.520247 -0.677020 1.706922 0.500000 0.500000 0.500000 1.0
4.553123 -0.660433 3.135103 0.500000 0.500000 0.500000 1.0
4.553123 0.660433 3.135103 0.500000 0.500000 0.500000 1.0
3 0 1 22
3 0 22 1
3 0 22 21
3 0 21 22
3 1 22 17
3 1 17 22
3 2 35 31
3 2 31 35
3 4 20 19
3 4 19 20
3 4 45 3
3 4 3 45
3 4 46 20
3 4 20 46
3 4 46 45
3 4 45 46
3 5 7 32
3 5 32 7
3 5 8 27
3 5 27 8
3 5 32 36
3 5 36 32
3 6 10 24
3 6 24 10
3 6 31 2
3 6 2 31
3 7 37 32
3 7 32 37
3 8 27 33
3 8 33 27
3 8 33 12
3 8 12 33
3 9 2 28
3 9 28 2
3 9 34 28
3 9 28 34
3 11 37 7
3 11 7 37
3 13 34 9
3 13 9 34
3 13 34 17
3 13 17 34
3 14 24 10
3 14 10 24
3 14 38 24
3 14 24 38
3 15 20 37
3 15 37 20
3 15 37 11
3 15 11 37
3 16 21 0
3 16 0 21
3 16 33 21
3 16 21 33
3 18 3 45
3 18 45 3
3 18 45 38
3 18 38 45
3 20 19 15
3 20 15 19
3 20 24 37
3 20 37 24
3 20 38 24
3 20 24 38
3 22 17 34
3 22 34 17
3 22 33 21
3 22 21 33
3 22 34 33
3 22 33 34
3 23 25 26
3 23 26 25
3 23 25 43
3 23 43 25
3 23 30 41
3 23 41 30
3 23 39 30
3 23 30 39
3 23 43 36
3 23 36 43
3 24 31 6
3 24 6 31
3 24 31 26
3 24 26 31
3 26 24 37
3 26 37 24
3 26 37 25
3 26 25 37
3 27 36 5
3 27 5 36
3 27 36 40
3 27 40 36
3 28 2 35
3 28 35 2
3 28 35 39
3 28 39 35
3 28 39 34
3 28 34 39
3 30 29 33
3 30 33 29
3 30 29 42
3 30 42 29
3 30 33 34
3 30 34 33
3 30 42 41
3 30 41 42
3 31 44 26
3 31 26 44
3 32 43 36
3 32 36 43
3 33 12 16
3 33 16 12
3 33 29 40
3 33 40 29
3 33 40 27
3 33 27 40
3 34 30 39
3 34 39 30
3 35 23 39
3 35 39 23
3 35 31 44
3 35 44 31
3 36 40 23
3 36 23 40
3 37 32 25
3 37 25 32
3 38 14 18
3 38 18 14
3 38 20 46
3 38 46 20
3 38 46 45
3 38 45 46
3 40 23 42
3 40 42 23
3 40 42 29
3 40 29 42
3 41 23 42
3 41 42 23
3 43 32 25
3 43 25 32
3 44 23 26
3 44 26 23
3 44 23 35
3 44 35 23
