 COFF
          47         328          47
  
  -4.9719365187784836       0.72156623013626975        3.5951634500750553       0.60000002384185791       0.60000002384185791       0.60000002384185791       0.80000001192092896     
  -4.9719365187784863      -0.72156623013626953        3.5951634500750553       0.60000002384185791       0.60000002384185791       0.60000002384185791       0.80000001192092896     
  -2.6633886478027807E-002  -1.6587120706238114        3.3063853720285024       0.60000002384185791       0.60000002384185791       0.60000002384185791       0.80000001192092896     
   5.4848244884616202      -0.71211578571332168        3.6160480269717779       0.60000002384185791       0.60000002384185791       0.60000002384185791       0.80000001192092896     
   5.4848244884616202       0.71211578571332168        3.6160480269717779       0.60000002384185791       0.60000002384185791       0.60000002384185791       0.80000001192092896     
  -2.6633886478027835E-002   1.6587120706238112        3.3063853720285024       0.60000002384185791       0.60000002384185791       0.60000002384185791       0.80000001192092896     
   1.0050164585115906       -1.3489597764351153        3.4437418020335659       0.60000002384185791       0.60000002384185791       0.60000002384185791       0.80000001192092896     
   1.0050164585115906        1.3489597764351153        3.4437418020335659       0.60000002384185791       0.60000002384185791       0.60000002384185791       0.80000001192092896     
  -1.0558019040378115        1.3370443697452175        3.4084268374827178       0.60000002384185791       0.60000002384185791       0.60000002384185791       0.80000001192092896     
  -1.0558019040378117       -1.3370443697452177        3.4084268374827182       0.60000002384185791       0.60000002384185791       0.60000002384185791       0.80000001192092896     
   1.9314035710135189       -1.0326573539485260        3.6606797509763371       0.60000002384185791       0.60000002384185791       0.60000002384185791       0.80000001192092896     
   1.9314035710135189        1.0326573539485260        3.6606797509763371       0.60000002384185791       0.60000002384185791       0.60000002384185791       0.80000001192092896     
  -1.9910834333116010        1.0522001954371278        3.6224092700311128       0.60000002384185791       0.60000002384185791       0.60000002384185791       0.80000001192092896     
  -1.9910834333116012       -1.0522001954371274        3.6224092700311123       0.60000002384185791       0.60000002384185791       0.60000002384185791       0.80000001192092896     
   3.0494628345233372      -0.90386579804770451        3.6934225948972377       0.60000002384185791       0.60000002384185791       0.60000002384185791       0.80000001192092896     
   3.0494628345233368       0.90386579804770451        3.6934225948972390       0.60000002384185791       0.60000002384185791       0.60000002384185791       0.80000001192092896     
  -3.0134357946953578       0.90645669452738475        3.6297300427945132       0.60000002384185791       0.60000002384185791       0.60000002384185791       0.80000001192092896     
  -3.0134357946953583      -0.90645669452738442        3.6297300427945132       0.60000002384185791       0.60000002384185791       0.60000002384185791       0.80000001192092896     
   4.0417345687955564      -0.82993058595924984        3.6976380426016000       0.60000002384185791       0.60000002384185791       0.60000002384185791       0.80000001192092896     
   4.0417345687955555       0.82993058595924984        3.6976380426016000       0.60000002384185791       0.60000002384185791       0.60000002384185791       0.80000001192092896     
   3.4983284652696578       0.61840201350137347        2.7262692079133850        1.0000000000000000        1.0000000000000000        0.0000000000000000        1.0000000000000000     
  -3.4932447028232452       0.75702447567486641        2.9206095160411558       0.60000002384185791       0.60000002384185791       0.60000002384185791       0.80000001192092896     
  -3.4932447028232456      -0.75702447567486608        2.9206095160411554       0.60000002384185791       0.60000002384185791       0.60000002384185791       0.80000001192092896     
  -2.8735913230405453E-002  -1.3477608549112247E-017   1.0306063639638421        1.0000000000000000        1.0000000000000000        0.0000000000000000        1.0000000000000000     
   2.1992668795062547      -0.90515115682058211        2.7240925116871177       0.60000002384185791       0.60000002384185791       0.60000002384185791       0.80000001192092896     
   1.2874489054293912       0.97955605747397900        2.0281323110298546       0.60000002384185791       0.60000002384185791       0.60000002384185791       0.80000001192092896     
   1.2874489054293907      -0.97955605747397922        2.0281323110298546       0.60000002384185791       0.60000002384185791       0.60000002384185791       0.80000001192092896     
 -0.95715064646996928        1.2461311139428677        2.5553541085408717       0.60000002384185791       0.60000002384185791       0.60000002384185791       0.80000001192092896     
 -0.95715064646996939       -1.2461311139428677        2.5553541085408717       0.60000002384185791       0.60000002384185791       0.60000002384185791       0.80000001192092896     
  -1.7917822484321835       0.71691872732764450        1.7777081276301074       0.60000002384185791       0.60000002384185791       0.60000002384185791       0.80000001192092896     
  -1.7917822484321835      -0.71691872732764439        1.7777081276301074       0.60000002384185791       0.60000002384185791       0.60000002384185791       0.80000001192092896     
  0.95566044815196072       -1.1906605532629595        2.4190042089875883       0.60000002384185791       0.60000002384185791       0.60000002384185791       0.80000001192092896     
  0.95566044815196061        1.1906605532629597        2.4190042089875892       0.60000002384185791       0.60000002384185791       0.60000002384185791       0.80000001192092896     
  -2.1923049511564874       0.92013905318135003        2.7006097997389800       0.60000002384185791       0.60000002384185791       0.60000002384185791       0.80000001192092896     
  -2.1923049511564878      -0.92013905318134981        2.7006097997389800       0.60000002384185791       0.60000002384185791       0.60000002384185791       0.80000001192092896     
  -3.5364713757093304E-002  -1.3202806394140592        2.3582828220785039       0.60000002384185791       0.60000002384185791       0.60000002384185791       0.80000001192092896     
  -3.5364713757093331E-002   1.3202806394140592        2.3582828220785039       0.60000002384185791       0.60000002384185791       0.60000002384185791       0.80000001192092896     
   2.1992668795062547       0.90515115682058178        2.7240925116871186       0.60000002384185791       0.60000002384185791       0.60000002384185791       0.80000001192092896     
   3.4983284652696578      -0.61840201350137347        2.7262692079133850        1.0000000000000000        1.0000000000000000        0.0000000000000000        1.0000000000000000     
 -0.45971666874588180      -0.81917563566837881        1.8366129977110743       0.60000002384185791       0.60000002384185791       0.60000002384185791       0.80000001192092896     
 -0.45971666874588202       0.81917563566837881        1.8366129977110746       0.60000002384185791       0.60000002384185791       0.60000002384185791       0.80000001192092896     
  -1.0393428205888657      -0.34862229594013000        1.3716825226997451       0.60000002384185791       0.60000002384185791       0.60000002384185791       0.80000001192092896     
  -1.0393428205888657       0.34862229594013017        1.3716825226997451       0.60000002384185791       0.60000002384185791       0.60000002384185791       0.80000001192092896     
  0.52024672738595701       0.67702011197684753        1.7069217449758132       0.60000002384185791       0.60000002384185791       0.60000002384185791       0.80000001192092896     
  0.52024672738595690      -0.67702011197684719        1.7069217449758127       0.60000002384185791       0.60000002384185791       0.60000002384185791       0.80000001192092896     
   4.5531229619300131      -0.66043273041396522        3.1351034153728685       0.60000002384185791       0.60000002384185791       0.60000002384185791       0.80000001192092896     
   4.5531229619300131       0.66043273041396522        3.1351034153728685       0.60000002384185791       0.60000002384185791       0.60000002384185791       0.80000001192092896     
  
   3   0  16  21
   3   0  21  16
   4   0  21  22   1
   3   1  22  17
   4   1  22  21   0
   3   1  17  22
   3   2  35  28
   3   2  35  31
   3   2  31  35
   3   2  31   6
   3   2   6  31
   3   2   9  28
   3   2  28  35
   3   2  28   9
   3   5   7  32
   3   5  32  36
   3   5  32   7
   3   5  36  32
   3   5  36  27
   3   5  27  36
   3   5  27   8
   3   5   8  27
   3   6   2  31
   3   6  31   2
   3   6  31  24
   3   6  24  10
   3   6  24  31
   3   6  10  24
   3   7  11  37
   3   7  37  32
   3   7  37  11
   3   7  32  37
   3   7  32   5
   3   7   5  32
   3   8   5  27
   3   8  27   5
   3   8  27  33
   3   8  33  12
   3   8  33  27
   3   8  12  33
   3   9  13  34
   3   9  34  28
   3   9  34  13
   3   9  28  34
   3   9  28   2
   3   9   2  28
   3  10   6  24
   3  10  24  14
   3  10  24   6
   3  10  14  24
   3  11  15  37
   3  11  37   7
   3  11  37  15
   3  11   7  37
   3  12   8  33
   3  12  33  16
   3  12  33   8
   3  12  16  33
   3  13  17  34
   3  13  34   9
   3  13  34  17
   3  13   9  34
   3  14  10  24
   3  14  24  38
   3  14  24  10
   3  14  38  18
   3  14  38  24
   3  14  18  38
   3  15  19  20
   3  15  20  37
   3  15  20  19
   3  15  37  20
   3  15  37  11
   3  15  11  37
   3  16  12  33
   3  16  33  21
   3  16  33  12
   3  16  21   0
   3  16  21  33
   3  16   0  21
   3  17   1  22
   3  17  22   1
   3  17  22  34
   3  17  34  22
   3  17  34  13
   3  17  13  34
   3  18  14  38
   3  18  38  14
   4  18  38  45   3
   3  19  20  15
   4  19  20  46   4
   3  19  15  20
   3  20  37  15
   4  20  37  24  38
   3  20  15  19
   3  20  15  37
   3  20  19  15
   4  20  19   4  46
   3  21   0  16
   4  21   0   1  22
   3  21  16  33
   3  21  16   0
   3  21  33  16
   4  21  33  34  22
   3  22   1  17
   4  22   1   0  21
   3  22  34  17
   4  22  34  33  21
   3  22  17   1
   3  22  17  34
   3  23  36  43
   3  23  36  40
   3  23  43  36
   3  23  43  25
   3  23  25  26
   3  23  25  43
   3  23  26  25
   3  23  26  44
   3  23  44  26
   3  23  44  35
   3  23  35  39
   3  23  35  44
   3  23  39  35
   4  23  39  30  41
   3  23  41  42
   4  23  41  30  39
   3  23  42  41
   4  23  42  29  40
   3  23  40  36
   4  23  40  29  42
   3  24  38  14
   4  24  38  20  37
   3  24  14  10
   3  24  14  38
   3  24  10   6
   3  24  10  14
   3  24   6  31
   3  24   6  10
   3  24  31  26
   3  24  31   6
   3  24  26  31
   4  24  26  25  37
   3  25  37  32
   4  25  37  24  26
   3  25  26  23
   4  25  26  24  37
   3  25  23  43
   3  25  23  26
   3  25  43  32
   3  25  43  23
   3  25  32  37
   3  25  32  43
   3  26  23  25
   3  26  23  44
   3  26  25  23
   4  26  25  37  24
   3  26  24  31
   4  26  24  37  25
   3  26  31  44
   3  26  31  24
   3  26  44  31
   3  26  44  23
   3  27   5  36
   3  27   5   8
   3  27  36  40
   3  27  36   5
   3  27  40  33
   3  27  40  36
   3  27  33   8
   3  27  33  40
   3  27   8   5
   3  27   8  33
   3  28  34  39
   3  28  34   9
   3  28  39  35
   3  28  39  34
   3  28  35  39
   3  28  35   2
   3  28   2  35
   3  28   2   9
   3  28   9  34
   3  28   9   2
   3  29  33  40
   4  29  33  34  30
   3  29  40  33
   4  29  40  23  42
   3  30  34  39
   4  30  34  33  29
   3  30  39  34
   4  30  39  23  41
   3  31   2  35
   3  31   2   6
   3  31  35  44
   3  31  35   2
   3  31  44  26
   3  31  44  35
   3  31  26  24
   3  31  26  44
   3  31  24   6
   3  31  24  26
   3  31   6   2
   3  31   6  24
   3  32  37  25
   3  32  37   7
   3  32  25  37
   3  32  25  43
   3  32  43  36
   3  32  43  25
   3  32  36  43
   3  32  36   5
   3  32   5   7
   3  32   5  36
   3  32   7  37
   3  32   7   5
   3  33  21  16
   4  33  21  22  34
   3  33  16  12
   3  33  16  21
   3  33  12   8
   3  33  12  16
   3  33   8  27
   3  33   8  12
   3  33  27  40
   3  33  27   8
   3  33  40  29
   3  33  40  27
   3  33  29  40
   4  33  29  30  34
   3  34  22  17
   4  34  22  21  33
   3  34  30  39
   4  34  30  29  33
   3  34  39  28
   3  34  39  30
   3  34  28  39
   3  34  28   9
   3  34   9  13
   3  34   9  28
   3  34  13  17
   3  34  13   9
   3  34  17  22
   3  34  17  13
   3  35  28  39
   3  35  28   2
   3  35  39  28
   3  35  39  23
   3  35  23  44
   3  35  23  39
   3  35  44  31
   3  35  44  23
   3  35  31   2
   3  35  31  44
   3  35   2  31
   3  35   2  28
   3  36  32  43
   3  36  32   5
   3  36  43  32
   3  36  43  23
   3  36  23  43
   3  36  23  40
   3  36  40  27
   3  36  40  23
   3  36  27   5
   3  36  27  40
   3  36   5  32
   3  36   5  27
   3  37  20  15
   4  37  20  38  24
   3  37  25  32
   4  37  25  26  24
   3  37  32  25
   3  37  32   7
   3  37   7  11
   3  37   7  32
   3  37  11  15
   3  37  11   7
   3  37  15  20
   3  37  15  11
   3  38  18  14
   4  38  18   3  45
   3  38  14  24
   3  38  14  18
   3  38  24  14
   4  38  24  37  20
   3  39  35  28
   3  39  35  23
   3  39  28  34
   3  39  28  35
   3  39  34  30
   3  39  34  28
   3  39  30  34
   4  39  30  41  23
   3  39  23  35
   4  39  23  41  30
   3  40  29  33
   4  40  29  42  23
   3  40  33  27
   3  40  33  29
   3  40  27  36
   3  40  27  33
   3  40  36  23
   3  40  36  27
   3  40  23  36
   4  40  23  42  29
   3  41  23  42
   4  41  23  39  30
   3  41  42  23
   4  41  42  29  30
   3  42  23  41
   4  42  23  40  29
   3  42  41  23
   4  42  41  30  29
   3  43  36  32
   3  43  36  23
   3  43  32  25
   3  43  32  36
   3  43  25  23
   3  43  25  32
   3  43  23  36
   3  43  23  25
   3  44  26  23
   3  44  26  31
   3  44  31  35
   3  44  31  26
   3  44  35  23
   3  44  35  31
   3  44  23  26
   3  44  23  35
