# Generated by dad_to_polygons. Vertex data from Humppa's .off file,
# polygons parsed from .dad file.
COFF
59 184 59
-5.561118 0.757412 3.958228 0.500000 0.500000 0.500000 1.0
-5.561118 -0.757412 3.958228 0.500000 0.500000 0.500000 1.0
-0.027110 -1.730864 3.643349 0.500000 0.500000 0.500000 1.0
6.419976 -0.759891 3.961930 0.500000 0.500000 0.500000 1.0
6.419976 0.759891 3.961930 0.500000 0.500000 0.500000 1.0
-0.027110 1.730864 3.643349 0.500000 0.500000 0.500000 1.0
1.024666 -1.412350 3.788327 0.500000 0.500000 0.500000 1.0
1.024666 1.412350 3.788327 0.500000 0.500000 0.500000 1.0
-1.073921 1.395250 3.758299 0.500000 0.500000 0.500000 1.0
-1.073921 -1.395250 3.758299 0.500000 0.500000 0.500000 1.0
1.945373 -1.092889 4.013821 0.500000 0.500000 0.500000 1.0
1.945373 1.092889 4.013821 0.500000 0.500000 0.500000 1.0
-2.002208 1.101048 3.986658 0.500000 0.500000 0.500000 1.0
-2.002208 -1.101048 3.986658 0.500000 0.500000 0.500000 1.0
3.027867 -1.009401 4.007083 0.500000 0.500000 0.500000 1.0
3.027867 1.009401 4.007083 0.500000 0.500000 0.500000 1.0
-2.997997 0.974432 3.990890 0.500000 0.500000 0.500000 1.0
-2.997997 -0.974432 3.990890 0.500000 0.500000 0.500000 1.0
4.024390 -0.956268 4.061617 0.500000 0.500000 0.500000 1.0
4.024390 0.956268 4.061617 0.500000 0.500000 0.500000 1.0
-3.992011 0.894529 4.020625 0.500000 0.500000 0.500000 1.0
-3.992011 -0.894529 4.020625 0.500000 0.500000 0.500000 1.0
5.026018 -0.863693 4.004069 0.500000 0.500000 0.500000 1.0
5.026018 0.863693 4.004069 0.500000 0.500000 0.500000 1.0
2.155056 -0.971529 3.054107 0.500000 0.500000 0.500000 1.0
1.386304 1.128485 2.332681 0.500000 0.500000 0.500000 1.0
1.386304 -1.128485 2.332681 0.500000 0.500000 0.500000 1.0
-1.045561 1.326937 2.903560 0.500000 0.500000 0.500000 1.0
-1.045561 -1.326937 2.903560 0.500000 0.500000 0.500000 1.0
-1.838686 0.843096 2.051909 0.500000 0.500000 0.500000 1.0
-1.838686 -0.843096 2.051909 0.500000 0.500000 0.500000 1.0
0.939394 -1.326593 2.732736 0.500000 0.500000 0.500000 1.0
0.939394 1.326593 2.732736 0.500000 0.500000 0.500000 1.0
-2.251192 0.960770 2.996251 0.500000 0.500000 0.500000 1.0
-2.251192 -0.960770 2.996251 0.500000 0.500000 0.500000 1.0
-0.010458 -1.424379 2.623670 0.500000 0.500000 0.500000 1.0
-0.010458 1.424379 2.623670 0.500000 0.500000 0.500000 1.0
2.155056 0.971529 3.054107 0.500000 0.500000 0.500000 1.0
3.514952 -0.618683 2.726269 1.0 1.0 0.0 1.0
-0.533716 -1.109250 2.125643 0.500000 0.500000 0.500000 1.0
-0.533716 1.109250 2.125643 0.500000 0.500000 0.500000 1.0
-1.328213 -0.447918 1.372701 0.500000 0.500000 0.500000 1.0
-1.328213 0.447918 1.372701 0.500000 0.500000 0.500000 1.0
0.654952 0.981720 1.853505 0.500000 0.500000 0.500000 1.0
0.654952 -0.981720 1.853505 0.500000 0.500000 0.500000 1.0
5.007106 -0.684146 3.217731 0.500000 0.500000 0.500000 1.0
5.007106 0.684146 3.217731 0.500000 0.500000 0.500000 1.0
3.514952 0.618683 2.726269 1.0 1.0 0.0 1.0
-3.522582 0.658930 2.981640 1.0 1.0 0.0 1.0
1.598410 -0.000000 2.244670 0.500000 0.500000 0.500000 1.0
0.925568 0.675824 1.659993 0.500000 0.500000 0.500000 1.0
0.925568 -0.675824 1.659993 0.500000 0.500000 0.500000 1.0
-0.043585 0.897396 1.826274 0.500000 0.500000 0.500000 1.0
-0.043585 -0.897396 1.826274 0.500000 0.500000 0.500000 1.0
-3.522582 -0.658930 2.981640 1.0 1.0 0.0 1.0
-0.003454 -0.000000 1.030606 1.0 1.0 0.0 1.0
-4.607995 0.700601 3.420931 0.500000 0.500000 0.500000 1.0
-4.607995 -0.700601 3.420931 0.500000 0.500000 0.500000 1.0
0.810368 -0.000000 1.633873 0.500000 0.500000 0.500000 1.0
3 0 48 20
3 0 20 48
3 0 56 48
3 0 48 56
3 0 56 57
3 0 57 56
3 0 57 1
3 0 1 57
3 2 31 6
3 2 6 31
3 2 35 31
3 2 31 35
3 4 45 3
3 4 3 45
3 4 46 45
3 4 45 46
3 5 7 32
3 5 32 7
3 5 32 36
3 5 36 32
3 5 36 27
3 5 27 36
3 6 10 24
3 6 24 10
3 6 24 31
3 6 31 24
3 7 37 32
3 7 32 37
3 8 27 33
3 8 33 27
3 8 33 12
3 8 12 33
3 9 28 2
3 9 2 28
3 9 34 13
3 9 13 34
3 11 15 37
3 11 37 15
3 13 17 34
3 13 34 17
3 14 24 10
3 14 10 24
3 14 38 24
3 14 24 38
3 16 33 12
3 16 12 33
3 16 48 33
3 16 33 48
3 17 54 34
3 17 34 54
3 18 38 22
3 18 22 38
3 19 47 15
3 19 15 47
3 20 16 48
3 20 48 16
3 21 54 17
3 21 17 54
3 21 54 57
3 21 57 54
3 21 57 1
3 21 1 57
3 22 3 45
3 22 45 3
3 23 47 46
3 23 46 47
3 25 32 37
3 25 37 32
3 25 32 43
3 25 43 32
3 25 50 43
3 25 43 50
3 26 31 24
3 26 24 31
3 26 51 49
3 26 49 51
3 27 8 5
3 27 5 8
3 27 33 40
3 27 40 33
3 28 34 9
3 28 9 34
3 28 35 2
3 28 2 35
3 28 39 34
3 28 34 39
3 30 29 33
3 30 33 29
3 30 33 34
3 30 34 33
3 30 39 55
3 30 55 39
3 30 41 42
3 30 42 41
3 30 42 29
3 30 29 42
3 30 55 41
3 30 41 55
3 31 35 44
3 31 44 35
3 32 36 43
3 32 43 36
3 33 40 29
3 33 29 40
3 33 48 54
3 33 54 48
3 33 54 34
3 33 34 54
3 34 30 39
3 34 39 30
3 35 39 28
3 35 28 39
3 36 40 27
3 36 27 40
3 36 52 40
3 36 40 52
3 36 52 43
3 36 43 52
3 37 7 11
3 37 11 7
3 37 38 24
3 37 24 38
3 37 47 38
3 37 38 47
3 37 49 24
3 37 24 49
3 38 18 14
3 38 14 18
3 38 22 45
3 38 45 22
3 38 46 45
3 38 45 46
3 38 47 46
3 38 46 47
3 39 53 35
3 39 35 53
3 39 53 55
3 39 55 53
3 40 42 29
3 40 29 42
3 40 55 42
3 40 42 55
3 41 55 42
3 41 42 55
3 43 52 55
3 43 55 52
3 44 26 51
3 44 51 26
3 44 31 26
3 44 26 31
3 44 35 53
3 44 53 35
3 44 51 55
3 44 55 51
3 46 4 23
3 46 23 4
3 47 23 19
3 47 19 23
3 47 37 15
3 47 15 37
3 48 56 57
3 48 57 56
3 48 57 54
3 48 54 57
3 49 26 24
3 49 24 26
3 49 37 25
3 49 25 37
3 49 50 25
3 49 25 50
3 49 50 58
3 49 58 50
3 50 43 55
3 50 55 43
3 53 44 55
3 53 55 44
3 55 40 52
3 55 52 40
3 55 51 58
3 55 58 51
3 55 58 50
3 55 50 58
3 58 49 51
3 58 51 49
