 COFF
          71         624          71
  
  -6.2720892363289744       0.81067430107130878        4.2939144366790902       0.60000002384185791       0.60000002384185791       0.60000002384185791       0.80000001192092896     
  -6.2720892363289789      -0.81067430107130856        4.2939144366790902       0.60000002384185791       0.60000002384185791       0.60000002384185791       0.80000001192092896     
  -2.7754973881246727E-002  -1.7996899976419869        3.9818741628268111       0.60000002384185791       0.60000002384185791       0.60000002384185791       0.80000001192092896     
   7.2035101220220961      -0.80533243556125023        4.3098793189692692       0.60000002384185791       0.60000002384185791       0.60000002384185791       0.80000001192092896     
   7.2035101220220961       0.80533243556125012        4.3098793189692692       0.60000002384185791       0.60000002384185791       0.60000002384185791       0.80000001192092896     
  -2.7754973881246769E-002   1.7996899976419867        3.9818741628268111       0.60000002384185791       0.60000002384185791       0.60000002384185791       0.80000001192092896     
   1.0423712455973835       -1.4804643532739707        4.1266369359254282       0.60000002384185791       0.60000002384185791       0.60000002384185791       0.80000001192092896     
   1.0423712455973835        1.4804643532739705        4.1266369359254282       0.60000002384185791       0.60000002384185791       0.60000002384185791       0.80000001192092896     
  -1.0792390967970513        1.4620578451477468        4.0987025515882234       0.60000002384185791       0.60000002384185791       0.60000002384185791       0.80000001192092896     
  -1.0792390967970518       -1.4620578451477468        4.0987025515882261       0.60000002384185791       0.60000002384185791       0.60000002384185791       0.80000001192092896     
   1.9634058887134489       -1.1637650635203944        4.3544189323375777       0.60000002384185791       0.60000002384185791       0.60000002384185791       0.80000001192092896     
   1.9634058887134493        1.1637650635203947        4.3544189323375768       0.60000002384185791       0.60000002384185791       0.60000002384185791       0.80000001192092896     
  -2.0034959006894364        1.1646388843138233        4.3369989600153085       0.60000002384185791       0.60000002384185791       0.60000002384185791       0.80000001192092896     
  -2.0034959006894373       -1.1646388843138222        4.3369989600153085       0.60000002384185791       0.60000002384185791       0.60000002384185791       0.80000001192092896     
   3.0272859515845281       -1.1292994387009003        4.3007522493877079       0.60000002384185791       0.60000002384185791       0.60000002384185791       0.80000001192092896     
   3.0272859515845263        1.1292994387009001        4.3007522493877106       0.60000002384185791       0.60000002384185791       0.60000002384185791       0.80000001192092896     
  -2.9982768764089767        1.0852720108593579        4.2901706528540071       0.60000002384185791       0.60000002384185791       0.60000002384185791       0.80000001192092896     
  -2.9982768764089776       -1.0852720108593576        4.2901706528540080       0.60000002384185791       0.60000002384185791       0.60000002384185791       0.80000001192092896     
   4.0236811449930139       -1.0833872515458216        4.3638541694930266       0.60000002384185791       0.60000002384185791       0.60000002384185791       0.80000001192092896     
   4.0236811449930121        1.0833872515458214        4.3638541694930257       0.60000002384185791       0.60000002384185791       0.60000002384185791       0.80000001192092896     
  -3.9935842841522176        1.0248206379275926        4.3565255929402893       0.60000002384185791       0.60000002384185791       0.60000002384185791       0.80000001192092896     
  -3.9935842841522180       -1.0248206379275921        4.3565255929402893       0.60000002384185791       0.60000002384185791       0.60000002384185791       0.80000001192092896     
   5.0139121854217752      -0.95889192389216793        4.3361860869126181       0.60000002384185791       0.60000002384185791       0.60000002384185791       0.80000001192092896     
   5.0139121854217752       0.95889192389216804        4.3361860869126181       0.60000002384185791       0.60000002384185791       0.60000002384185791       0.80000001192092896     
  -4.9898955892744610       0.92608422253903311        4.3156908622652654       0.60000002384185791       0.60000002384185791       0.60000002384185791       0.80000001192092896     
  -4.9898955892744610      -0.92608422253903255        4.3156908622652654       0.60000002384185791       0.60000002384185791       0.60000002384185791       0.80000001192092896     
   6.0221593781638783      -0.88423100071786820        4.3201894226156732       0.60000002384185791       0.60000002384185791       0.60000002384185791       0.80000001192092896     
   6.0221593781638783       0.88423100071786820        4.3201894226156732       0.60000002384185791       0.60000002384185791       0.60000002384185791       0.80000001192092896     
  -1.0310359588182558       -1.4149279447528937        3.2392195969388045       0.60000002384185791       0.60000002384185791       0.60000002384185791       0.80000001192092896     
  -1.8483367429977224       0.77057869775041099        2.3417802999405670       0.60000002384185791       0.60000002384185791       0.60000002384185791       0.80000001192092896     
  -1.8483367429977240      -0.77057869775041388        2.3417802999405670       0.60000002384185791       0.60000002384185791       0.60000002384185791       0.80000001192092896     
  0.92823686512133019       -1.4181197703886392        3.0453210383247544       0.60000002384185791       0.60000002384185791       0.60000002384185791       0.80000001192092896     
  0.92823686512133186        1.4181197703886395        3.0453210383247553       0.60000002384185791       0.60000002384185791       0.60000002384185791       0.80000001192092896     
  -2.1648481361015066        1.0639845015153400        3.3055475765082791       0.60000002384185791       0.60000002384185791       0.60000002384185791       0.80000001192092896     
  -2.1648481361015079       -1.0639845015153402        3.3055475765082791       0.60000002384185791       0.60000002384185791       0.60000002384185791       0.80000001192092896     
   3.8803852631539904E-003  -1.5182319028377718        2.9053242324243822       0.60000002384185791       0.60000002384185791       0.60000002384185791       0.80000001192092896     
   3.8803852631540433E-003   1.5182319028377718        2.9053242324243822       0.60000002384185791       0.60000002384185791       0.60000002384185791       0.80000001192092896     
   2.1434119929641828        1.0571884114394896        3.3603322083386669       0.60000002384185791       0.60000002384185791       0.60000002384185791       0.80000001192092896     
   3.5189533661611065      -0.61862813058064026        2.7262692079133850        1.0000000000000000        1.0000000000000000        0.0000000000000000        1.0000000000000000     
 -0.61333428344878549       -1.2788412178923172        2.3980148028257045       0.60000002384185791       0.60000002384185791       0.60000002384185791       0.80000001192092896     
 -0.61333428344878527        1.2788412178923168        2.3980148028257045       0.60000002384185791       0.60000002384185791       0.60000002384185791       0.80000001192092896     
  -1.5534101302052967      -0.59332407106399188        1.4673830128869567       0.60000002384185791       0.60000002384185791       0.60000002384185791       0.80000001192092896     
  -1.5534101302052967       0.59332407106399099        1.4673830128869561       0.60000002384185791       0.60000002384185791       0.60000002384185791       0.80000001192092896     
  0.72938724663019261        1.2139659551848665        2.0782668809264924       0.60000002384185791       0.60000002384185791       0.60000002384185791       0.80000001192092896     
  0.72938724663019139       -1.2139659551848665        2.0782668809264937       0.60000002384185791       0.60000002384185791       0.60000002384185791       0.80000001192092896     
   5.1325667290024715      -0.80772389416849821        3.4913934365590866       0.60000002384185791       0.60000002384185791       0.60000002384185791       0.80000001192092896     
   5.1325667290024706       0.80772389416849821        3.4913934365590866       0.60000002384185791       0.60000002384185791       0.60000002384185791       0.80000001192092896     
   3.5189533661611065       0.61862813058064015        2.7262692079133850        1.0000000000000000        1.0000000000000000        0.0000000000000000        1.0000000000000000     
  -3.5187121514423194       0.65888454879659197        2.9816402194175646        1.0000000000000000        1.0000000000000000        0.0000000000000000        1.0000000000000000     
   1.7740004417450068       -7.8258230068408378E-016   2.5199100067253015       0.60000002384185791       0.60000002384185791       0.60000002384185791       0.80000001192092896     
   1.1162958133864853       0.82831482251620192        1.8638762829326934       0.60000002384185791       0.60000002384185791       0.60000002384185791       0.80000001192092896     
   1.1162958133864851      -0.82831482251620203        1.8638762829326934       0.60000002384185791       0.60000002384185791       0.60000002384185791       0.80000001192092896     
  -1.8494151498177798E-002   1.1973301887978098        2.0378871875942020       0.60000002384185791       0.60000002384185791       0.60000002384185791       0.80000001192092896     
  -1.8494151498177833E-002  -1.1973301887978098        2.0378871875942024       0.60000002384185791       0.60000002384185791       0.60000002384185791       0.80000001192092896     
  -3.5187121514423199      -0.65888454879659197        2.9816402194175642        1.0000000000000000        1.0000000000000000        0.0000000000000000        1.0000000000000000     
   5.9599307100161730E-003  -1.8209808721857407E-017   1.0306063639638421        1.0000000000000000        1.0000000000000000        0.0000000000000000        1.0000000000000000     
  -5.0250373505024761       0.73560718438001282        3.5275255261506762       0.60000002384185791       0.60000002384185791       0.60000002384185791       0.80000001192092896     
  -5.0250373505024770      -0.73560718438001249        3.5275255261506762       0.60000002384185791       0.60000002384185791       0.60000002384185791       0.80000001192092896     
   1.1959828117345415       -2.6409435924399419E-016   1.7491541082715623       0.60000002384185791       0.60000002384185791       0.60000002384185791       0.80000001192092896     
   4.3907540643378589      -0.91745054930439618        3.6288304067413075       0.60000002384185791       0.60000002384185791       0.60000002384185791       0.80000001192092896     
   4.3907540643378580       0.91745054930439640        3.6288304067413071       0.60000002384185791       0.60000002384185791       0.60000002384185791       0.80000001192092896     
  -2.1648023905714417       -1.9458096125752877E-015   3.2456504332085414       0.60000002384185791       0.60000002384185791       0.60000002384185791       0.80000001192092896     
   2.1435392121978731        2.9861884426157492E-014   3.3052168472160881       0.60000002384185791       0.60000002384185791       0.60000002384185791       0.80000001192092896     
   2.1434119929641811       -1.0571884114394901        3.3603322083386673       0.60000002384185791       0.60000002384185791       0.60000002384185791       0.80000001192092896     
   1.4067027777970151        1.2385161872531671        2.6503803421759442       0.60000002384185791       0.60000002384185791       0.60000002384185791       0.80000001192092896     
   6.1518066566588665      -0.78346855959526807        3.8365633600096247       0.60000002384185791       0.60000002384185791       0.60000002384185791       0.80000001192092896     
   6.1518066566588665       0.78346855959526818        3.8365633600096247       0.60000002384185791       0.60000002384185791       0.60000002384185791       0.80000001192092896     
   1.4067027777970147       -1.2385161872531671        2.6503803421759446       0.60000002384185791       0.60000002384185791       0.60000002384185791       0.80000001192092896     
  -1.0310359588182547        1.4149279447528937        3.2392195969388045       0.60000002384185791       0.60000002384185791       0.60000002384185791       0.80000001192092896     
  -4.2580614802210421       0.79542839426753142        3.6495193787924642       0.60000002384185791       0.60000002384185791       0.60000002384185791       0.80000001192092896     
  -4.2580614802210421      -0.79542839426753109        3.6495193787924638       0.60000002384185791       0.60000002384185791       0.60000002384185791       0.80000001192092896     
  
   3   0  24  56
   3   0  56  24
   4   0  56  57   1
   3   1  57  25
   4   1  57  56   0
   3   1  25  57
   3   2  35  28
   3   2  35  31
   3   2  31  35
   3   2  31   6
   3   2   6  31
   3   2   9  28
   3   2  28  35
   3   2  28   9
   3   3  26  65
   3   3  65  26
   4   3  65  66   4
   3   4  66  27
   4   4  66  65   3
   3   4  27  66
   3   5   7  32
   3   5  32  36
   3   5  32   7
   3   5  36  32
   3   5  36  68
   3   5  68  36
   3   5  68   8
   3   5   8  68
   3   6   2  31
   3   6  31   2
   3   6  31  63
   3   6  63  10
   3   6  63  31
   3   6  10  63
   3   7  11  37
   3   7  37  32
   3   7  37  11
   3   7  32  37
   3   7  32   5
   3   7   5  32
   3   8   5  68
   3   8  68   5
   3   8  68  33
   3   8  33  12
   3   8  33  68
   3   8  12  33
   3   9  13  34
   3   9  34  28
   3   9  34  13
   3   9  28  34
   3   9  28   2
   3   9   2  28
   3  10   6  63
   3  10  63  14
   3  10  63   6
   3  10  14  63
   3  11  15  37
   3  11  37   7
   3  11  37  15
   3  11   7  37
   3  12   8  33
   3  12  33  16
   3  12  33   8
   3  12  16  33
   3  13  17  34
   3  13  34   9
   3  13  34  17
   3  13   9  34
   3  14  10  63
   3  14  63  38
   3  14  63  10
   3  14  38  18
   3  14  38  63
   3  14  18  38
   3  15  19  47
   3  15  47  37
   3  15  47  19
   3  15  37  47
   3  15  37  11
   3  15  11  37
   3  16  12  33
   3  16  33  48
   3  16  33  12
   3  16  48  20
   3  16  48  33
   3  16  20  48
   3  17  21  54
   3  17  54  34
   3  17  54  21
   3  17  34  54
   3  17  34  13
   3  17  13  34
   3  18  14  38
   3  18  38  59
   3  18  38  14
   3  18  59  38
   3  18  59  22
   3  18  22  59
   4  18  22  45  38
   3  19  23  60
   4  19  23  46  47
   3  19  60  47
   3  19  60  23
   3  19  47  15
   3  19  47  60
   3  19  15  47
   3  20  16  48
   3  20  48  69
   3  20  48  16
   3  20  69  48
   3  20  69  24
   3  20  24  69
   4  20  24  56  48
   3  21  25  70
   4  21  25  57  54
   3  21  70  54
   3  21  70  25
   3  21  54  17
   3  21  54  70
   3  21  17  54
   3  22  18  59
   4  22  18  38  45
   3  22  59  18
   3  22  59  45
   3  22  45  26
   3  22  45  59
   3  22  26  45
   3  23  27  46
   3  23  46  60
   3  23  46  27
   3  23  60  46
   3  23  60  19
   3  23  19  60
   4  23  19  47  46
   3  24  20  69
   4  24  20  48  56
   3  24  69  20
   3  24  69  56
   3  24  56   0
   3  24  56  69
   3  24   0  56
   3  25   1  57
   3  25  57   1
   3  25  57  70
   3  25  70  57
   3  25  70  21
   3  25  21  70
   4  25  21  54  57
   3  26  22  45
   3  26  45  65
   3  26  45  22
   3  26  65   3
   3  26  65  45
   3  26   3  65
   3  27   4  66
   3  27  66   4
   3  27  66  46
   3  27  46  66
   3  27  46  23
   3  27  23  46
   3  28  34  39
   3  28  34   9
   3  28  39  35
   3  28  39  34
   3  28  35  39
   3  28  35   2
   3  28   2  35
   3  28   2   9
   3  28   9  34
   3  28   9   2
   3  29  33  40
   3  29  33  61
   3  29  40  33
   4  29  40  55  42
   3  29  30  61
   4  29  30  41  42
   3  29  61  30
   3  29  61  33
   3  30  34  61
   3  30  34  39
   3  30  61  29
   3  30  61  34
   3  30  29  61
   4  30  29  42  41
   3  30  39  34
   4  30  39  55  41
   3  31   2  35
   3  31   2   6
   3  31  35  44
   3  31  35   2
   3  31  44  67
   3  31  44  35
   3  31  67  63
   3  31  67  44
   3  31  63   6
   3  31  63  67
   3  31   6   2
   3  31   6  63
   3  32  37  64
   3  32  37   7
   3  32  64  37
   3  32  64  43
   3  32  43  36
   3  32  43  64
   3  32  36  43
   3  32  36   5
   3  32   5   7
   3  32   5  36
   3  32   7  37
   3  32   7   5
   3  33  48  16
   3  33  48  61
   3  33  16  12
   3  33  16  48
   3  33  12   8
   3  33  12  16
   3  33   8  68
   3  33   8  12
   3  33  68  40
   3  33  68   8
   3  33  40  29
   3  33  40  68
   3  33  29  40
   3  33  29  61
   3  33  61  29
   3  33  61  48
   3  34  54  61
   3  34  54  17
   3  34  61  30
   3  34  61  54
   3  34  30  61
   3  34  30  39
   3  34  39  28
   3  34  39  30
   3  34  28  39
   3  34  28   9
   3  34   9  13
   3  34   9  28
   3  34  13  17
   3  34  13   9
   3  34  17  54
   3  34  17  13
   3  35  28  39
   3  35  28   2
   3  35  39  28
   3  35  39  53
   3  35  53  44
   3  35  53  39
   3  35  44  31
   3  35  44  53
   3  35  31   2
   3  35  31  44
   3  35   2  31
   3  35   2  28
   3  36  32  43
   3  36  32   5
   3  36  43  32
   3  36  43  52
   3  36  52  40
   3  36  52  43
   3  36  40  68
   3  36  40  52
   3  36  68   5
   3  36  68  40
   3  36   5  32
   3  36   5  68
   3  37  47  62
   3  37  47  15
   3  37  62  49
   3  37  62  47
   3  37  49  62
   3  37  49  64
   3  37  64  49
   3  37  64  32
   3  37  32  64
   3  37  32   7
   3  37   7  11
   3  37   7  32
   3  37  11  15
   3  37  11   7
   3  37  15  47
   3  37  15  11
   3  38  45  59
   4  38  45  22  18
   3  38  59  18
   3  38  59  45
   3  38  18  14
   3  38  18  59
   3  38  14  63
   3  38  14  18
   3  38  63  14
   3  38  63  62
   3  38  62  47
   3  38  62  63
   3  38  47  62
   4  38  47  46  45
   3  39  35  28
   3  39  35  53
   3  39  28  34
   3  39  28  35
   3  39  34  30
   3  39  34  28
   3  39  30  34
   4  39  30  41  55
   3  39  55  53
   4  39  55  44  35
   3  39  53  35
   3  39  53  55
   3  40  29  33
   4  40  29  42  55
   3  40  33  68
   3  40  33  29
   3  40  68  36
   3  40  68  33
   3  40  36  52
   3  40  36  68
   3  40  52  36
   3  40  52  55
   3  40  55  52
   4  40  55  43  36
   3  41  55  42
   4  41  55  39  30
   3  41  42  55
   4  41  42  29  30
   3  42  55  41
   4  42  55  40  29
   3  42  41  55
   4  42  41  30  29
   3  43  36  32
   3  43  36  52
   3  43  32  64
   3  43  32  36
   3  43  64  50
   3  43  64  32
   3  43  50  64
   3  43  50  55
   3  43  55  52
   3  43  55  50
   3  43  52  36
   3  43  52  55
   3  44  67  51
   3  44  67  31
   3  44  31  35
   3  44  31  67
   3  44  35  53
   3  44  35  31
   3  44  53  35
   3  44  53  55
   3  44  55  51
   3  44  55  53
   3  44  51  67
   3  44  51  55
   3  45  65  26
   4  45  65  66  46
   3  45  26  22
   3  45  26  65
   3  45  22  59
   3  45  22  26
   3  45  59  38
   3  45  59  22
   3  45  38  59
   4  45  38  18  22
   3  46  66  27
   4  46  66  65  45
   3  46  47  60
   4  46  47  38  45
   3  46  60  47
   3  46  60  23
   3  46  23  27
   3  46  23  60
   3  46  27  66
   3  46  27  23
   3  47  46  60
   4  47  46  45  38
   3  47  38  62
   4  47  38  45  46
   3  47  62  37
   3  47  62  38
   3  47  37  62
   3  47  37  15
   3  47  15  19
   3  47  15  37
   3  47  19  60
   3  47  19  15
   3  47  60  46
   3  47  60  19
   3  48  56  69
   4  48  56  24  20
   3  48  69  20
   3  48  69  56
   3  48  20  16
   3  48  20  69
   3  48  16  33
   3  48  16  20
   3  48  33  16
   3  48  33  61
   3  48  61  54
   3  48  61  33
   3  48  54  61
   4  48  54  57  56
   3  49  37  62
   3  49  37  64
   3  49  62  37
   3  49  62  63
   3  49  63  67
   3  49  63  62
   3  49  67  51
   3  49  67  63
   3  49  51  67
   3  49  51  58
   3  49  58  51
   3  49  58  50
   3  49  50  64
   3  49  50  58
   3  49  64  37
   3  49  64  50
   3  50  43  64
   3  50  43  55
   3  50  64  49
   3  50  64  43
   3  50  49  58
   3  50  49  64
   3  50  58  55
   3  50  58  49
   3  50  55  43
   3  50  55  58
   3  51  49  67
   3  51  49  58
   3  51  67  49
   3  51  67  44
   3  51  44  67
   3  51  44  55
   3  51  55  58
   3  51  55  44
   3  51  58  55
   3  51  58  49
   3  52  40  36
   3  52  40  55
   3  52  36  43
   3  52  36  40
   3  52  43  36
   3  52  43  55
   3  52  55  43
   3  52  55  40
   3  53  44  35
   3  53  44  55
   3  53  35  39
   3  53  35  44
   3  53  39  35
   3  53  39  55
   3  53  55  44
   3  53  55  39
   3  54  57  70
   4  54  57  56  48
   3  54  48  61
   4  54  48  56  57
   3  54  61  34
   3  54  61  48
   3  54  34  61
   3  54  34  17
   3  54  17  21
   3  54  17  34
   3  54  21  70
   3  54  21  17
   3  54  70  57
   3  54  70  21
   3  55  52  40
   3  55  52  43
   3  55  43  50
   3  55  43  52
   3  55  50  43
   3  55  50  58
   3  55  58  51
   3  55  58  50
   3  55  51  44
   3  55  51  58
   3  55  44  53
   3  55  44  51
   3  55  53  44
   3  55  53  39
   3  55  39  53
   4  55  39  35  44
   3  55  41  42
   4  55  41  30  39
   3  55  42  41
   4  55  42  29  40
   3  55  40  52
   4  55  40  29  42
   3  56   0  24
   4  56   0   1  57
   3  56  24  69
   3  56  24   0
   3  56  69  48
   3  56  69  24
   3  56  48  69
   4  56  48  20  24
   3  57   1  25
   4  57   1   0  56
   3  57  54  70
   4  57  54  48  56
   3  57  70  54
   3  57  70  25
   3  57  25   1
   3  57  25  70
   3  58  51  49
   3  58  51  55
   3  58  55  50
   3  58  55  51
   3  58  50  49
   3  58  50  55
   3  58  49  51
   3  58  49  50
   3  59  18  38
   3  59  18  22
   3  59  38  45
   3  59  38  18
   3  59  45  22
   3  59  45  38
   3  59  22  18
   3  59  22  45
   3  60  46  47
   3  60  46  23
   3  60  47  46
   3  60  47  19
   3  60  19  23
   3  60  19  47
   3  60  23  46
   3  60  23  19
   3  61  29  33
   3  61  29  30
   3  61  30  34
   3  61  30  29
   3  61  34  54
   3  61  34  30
   3  61  54  48
   3  61  54  34
   3  61  48  33
   3  61  48  54
   3  61  33  48
   3  61  33  29
   3  62  49  37
   3  62  49  63
   3  62  37  47
   3  62  37  49
   3  62  47  38
   3  62  47  37
   3  62  38  63
   3  62  38  47
   3  62  63  38
   3  62  63  49
   3  63  38  14
   3  63  38  62
   3  63  14  10
   3  63  14  38
   3  63  10   6
   3  63  10  14
   3  63   6  31
   3  63   6  10
   3  63  31  67
   3  63  31   6
   3  63  67  49
   3  63  67  31
   3  63  49  62
   3  63  49  67
   3  63  62  49
   3  63  62  38
   3  64  37  49
   3  64  37  32
   3  64  49  37
   3  64  49  50
   3  64  50  43
   3  64  50  49
   3  64  43  32
   3  64  43  50
   3  64  32  37
   3  64  32  43
   3  65   3  26
   4  65   3   4  66
   3  65  26  45
   3  65  26   3
   3  65  45  26
   4  65  45  46  66
   3  66   4  27
   4  66   4   3  65
   3  66  46  27
   4  66  46  45  65
   3  66  27   4
   3  66  27  46
   3  67  51  49
   3  67  51  44
   3  67  49  63
   3  67  49  51
   3  67  63  31
   3  67  63  49
   3  67  31  44
   3  67  31  63
   3  67  44  31
   3  67  44  51
   3  68   5  36
   3  68   5   8
   3  68  36  40
   3  68  36   5
   3  68  40  33
   3  68  40  36
   3  68  33   8
   3  68  33  40
   3  68   8   5
   3  68   8  33
   3  69  20  48
   3  69  20  24
   3  69  48  56
   3  69  48  20
   3  69  56  24
   3  69  56  48
   3  69  24  20
   3  69  24  56
   3  70  57  54
   3  70  57  25
   3  70  54  57
   3  70  54  21
   3  70  21  25
   3  70  21  54
   3  70  25  57
   3  70  25  21
