# Generated by dad_to_polygons. Vertex data from Humppa's .off file,
# polygons parsed from .dad file.
COFF
81 264 81
-6.327996 0.860894 4.631321 0.500000 0.500000 0.500000 1.0
-6.327996 -0.860894 4.631321 0.500000 0.500000 0.500000 1.0
-0.028512 -1.868956 4.318234 0.500000 0.500000 0.500000 1.0
7.241314 -0.840232 4.671495 0.500000 0.500000 0.500000 1.0
7.241314 0.840232 4.671495 0.500000 0.500000 0.500000 1.0
-0.028512 1.868956 4.318234 0.500000 0.500000 0.500000 1.0
1.059212 -1.550461 4.461402 0.500000 0.500000 0.500000 1.0
1.059212 1.550461 4.461402 0.500000 0.500000 0.500000 1.0
-1.088953 1.531952 4.433870 0.500000 0.500000 0.500000 1.0
-1.088953 -1.531952 4.433870 0.500000 0.500000 0.500000 1.0
1.981237 -1.237651 4.690367 0.500000 0.500000 0.500000 1.0
1.981237 1.237651 4.690367 0.500000 0.500000 0.500000 1.0
-2.012361 1.235671 4.677346 0.500000 0.500000 0.500000 1.0
-2.012361 -1.235671 4.677346 0.500000 0.500000 0.500000 1.0
3.031471 -1.251550 4.592683 0.500000 0.500000 0.500000 1.0
3.031471 1.251550 4.592683 0.500000 0.500000 0.500000 1.0
-3.006316 1.206625 4.576640 0.500000 0.500000 0.500000 1.0
-3.006316 -1.206625 4.576640 0.500000 0.500000 0.500000 1.0
4.030507 -1.204873 4.656061 0.500000 0.500000 0.500000 1.0
4.030507 1.204873 4.656061 0.500000 0.500000 0.500000 1.0
-4.001753 1.154031 4.656626 0.500000 0.500000 0.500000 1.0
-4.001753 -1.154031 4.656626 0.500000 0.500000 0.500000 1.0
5.016742 -1.045667 4.668450 0.500000 0.500000 0.500000 1.0
5.016742 1.045667 4.668450 0.500000 0.500000 0.500000 1.0
-5.000460 1.021613 4.631217 0.500000 0.500000 0.500000 1.0
-5.000460 -1.021613 4.631217 0.500000 0.500000 0.500000 1.0
6.027561 -0.950487 4.666201 0.500000 0.500000 0.500000 1.0
6.027561 0.950487 4.666201 0.500000 0.500000 0.500000 1.0
-1.009339 -1.491425 3.548516 0.500000 0.500000 0.500000 1.0
-1.804163 0.737589 2.596916 0.500000 0.500000 0.500000 1.0
-1.804163 -0.737589 2.596916 0.500000 0.500000 0.500000 1.0
0.933300 -1.491420 3.349077 0.500000 0.500000 0.500000 1.0
0.933300 1.491420 3.349077 0.500000 0.500000 0.500000 1.0
-2.149640 1.160508 3.599248 0.500000 0.500000 0.500000 1.0
-2.149640 -1.160508 3.599248 0.500000 0.500000 0.500000 1.0
0.016933 -1.604133 3.185840 0.500000 0.500000 0.500000 1.0
0.016933 1.604133 3.185840 0.500000 0.500000 0.500000 1.0
2.163007 1.142261 3.643868 0.500000 0.500000 0.500000 1.0
3.509383 -0.618584 2.726269 1.0 1.0 0.0 1.0
-0.662619 -1.426208 2.690173 0.500000 0.500000 0.500000 1.0
-0.662619 1.426208 2.690173 0.500000 0.500000 0.500000 1.0
-1.494116 -0.639919 1.587212 0.500000 0.500000 0.500000 1.0
-1.494116 0.639919 1.587212 0.500000 0.500000 0.500000 1.0
0.791133 1.367589 2.323300 0.500000 0.500000 0.500000 1.0
0.791133 -1.367589 2.323300 0.500000 0.500000 0.500000 1.0
5.289764 -0.904105 3.801525 0.500000 0.500000 0.500000 1.0
5.289764 0.904105 3.801525 0.500000 0.500000 0.500000 1.0
3.509383 0.618584 2.726269 1.0 1.0 0.0 1.0
-3.507798 0.659191 2.981640 1.0 1.0 0.0 1.0
1.881951 0.000000 2.803952 0.500000 0.500000 0.500000 1.0
1.198459 0.964595 2.087915 0.500000 0.500000 0.500000 1.0
1.198459 -0.964595 2.087915 0.500000 0.500000 0.500000 1.0
0.029161 1.382431 2.270366 0.500000 0.500000 0.500000 1.0
0.029161 -1.382431 2.270366 0.500000 0.500000 0.500000 1.0
-3.507798 -0.659191 2.981640 1.0 1.0 0.0 1.0
0.034500 -0.000000 1.030606 1.0 1.0 0.0 1.0
-5.058300 0.866425 3.782606 0.500000 0.500000 0.500000 1.0
-5.058300 -0.866425 3.782606 0.500000 0.500000 0.500000 1.0
1.405011 0.000000 1.976515 0.500000 0.500000 0.500000 1.0
4.494636 -1.098316 3.978400 0.500000 0.500000 0.500000 1.0
4.494636 1.098316 3.978400 0.500000 0.500000 0.500000 1.0
-2.149800 -0.000000 3.436042 0.500000 0.500000 0.500000 1.0
2.162570 -0.000000 3.492778 0.500000 0.500000 0.500000 1.0
2.163007 -1.142261 3.643868 0.500000 0.500000 0.500000 1.0
1.403513 1.328538 2.963755 0.500000 0.500000 0.500000 1.0
6.358057 -0.834101 4.150497 0.500000 0.500000 0.500000 1.0
6.358057 0.834101 4.150497 0.500000 0.500000 0.500000 1.0
1.403513 -1.328538 2.963755 0.500000 0.500000 0.500000 1.0
-1.009339 1.491425 3.548516 0.500000 0.500000 0.500000 1.0
-4.312064 0.987084 3.922944 0.500000 0.500000 0.500000 1.0
-4.312064 -0.987084 3.922944 0.500000 0.500000 0.500000 1.0
-0.327499 -0.971867 1.900212 0.500000 0.500000 0.500000 1.0
-0.327499 0.971867 1.900212 0.500000 0.500000 0.500000 1.0
4.553185 -0.745380 3.213777 0.500000 0.500000 0.500000 1.0
4.553185 0.745380 3.213777 0.500000 0.500000 0.500000 1.0
3.791087 -0.974577 3.730491 0.500000 0.500000 0.500000 1.0
3.791087 0.974577 3.730491 0.500000 0.500000 0.500000 1.0
0.443639 0.713332 1.664984 0.500000 0.500000 0.500000 1.0
0.443639 -0.713332 1.664984 0.500000 0.500000 0.500000 1.0
3.289594 -0.944525 3.651751 0.500000 0.500000 0.500000 1.0
3.289594 0.944525 3.651751 0.500000 0.500000 0.500000 1.0
3 0 1 57
3 0 57 1
3 0 57 56
3 0 56 57
3 2 28 35
3 2 35 28
3 2 31 6
3 2 6 31
3 2 35 31
3 2 31 35
3 4 3 65
3 4 65 3
3 4 65 66
3 4 66 65
3 5 7 32
3 5 32 7
3 5 8 68
3 5 68 8
3 5 32 36
3 5 36 32
3 5 36 68
3 5 68 36
3 9 2 28
3 9 28 2
3 9 28 34
3 9 34 28
3 11 15 37
3 11 37 15
3 12 8 33
3 12 33 8
3 12 33 16
3 12 16 33
3 13 17 34
3 13 34 17
3 13 34 9
3 13 9 34
3 14 18 75
3 14 75 18
3 14 75 79
3 14 79 75
3 16 20 48
3 16 48 20
3 17 21 54
3 17 54 21
3 17 34 54
3 17 54 34
3 18 75 59
3 18 59 75
3 19 76 15
3 19 15 76
3 20 69 24
3 20 24 69
3 21 70 25
3 21 25 70
3 21 70 54
3 21 54 70
3 22 26 45
3 22 45 26
3 22 59 45
3 22 45 59
3 23 60 19
3 23 19 60
3 24 0 56
3 24 56 0
3 25 1 57
3 25 57 1
3 26 45 65
3 26 65 45
3 27 23 46
3 27 46 23
3 27 46 66
3 27 66 46
3 27 66 4
3 27 4 66
3 28 35 39
3 28 39 35
3 28 39 34
3 28 34 39
3 29 33 61
3 29 61 33
3 29 41 30
3 29 30 41
3 29 42 41
3 29 41 42
3 29 42 72
3 29 72 42
3 29 72 40
3 29 40 72
3 30 29 61
3 30 61 29
3 30 34 61
3 30 61 34
3 30 39 34
3 30 34 39
3 31 63 6
3 31 6 63
3 31 67 63
3 31 63 67
3 32 7 37
3 32 37 7
3 33 40 29
3 33 29 40
3 33 68 8
3 33 8 68
3 35 44 31
3 35 31 44
3 35 53 44
3 35 44 53
3 36 32 43
3 36 43 32
3 36 68 40
3 36 40 68
3 37 7 11
3 37 11 7
3 37 15 80
3 37 80 15
3 37 47 62
3 37 62 47
3 37 47 80
3 37 80 47
3 37 49 64
3 37 64 49
3 37 62 49
3 37 49 62
3 38 62 63
3 38 63 62
3 38 73 74
3 38 74 73
3 38 74 47
3 38 47 74
3 38 75 79
3 38 79 75
3 39 35 53
3 39 53 35
3 39 53 71
3 39 71 53
3 39 71 30
3 39 30 71
3 40 52 72
3 40 72 52
3 41 55 71
3 41 71 55
3 41 71 30
3 41 30 71
3 42 55 41
3 42 41 55
3 42 55 72
3 42 72 55
3 43 36 52
3 43 52 36
3 43 64 50
3 43 50 64
3 44 31 67
3 44 67 31
3 44 51 78
3 44 78 51
3 44 78 53
3 44 53 78
3 46 45 65
3 46 65 45
3 46 47 74
3 46 74 47
3 46 60 47
3 46 47 60
3 46 65 66
3 46 66 65
3 46 73 45
3 46 45 73
3 46 74 73
3 46 73 74
3 47 38 62
3 47 62 38
3 48 16 33
3 48 33 16
3 48 20 69
3 48 69 20
3 48 56 69
3 48 69 56
3 48 61 33
3 48 33 61
3 49 51 67
3 49 67 51
3 49 58 50
3 49 50 58
3 49 58 51
3 49 51 58
3 49 63 62
3 49 62 63
3 49 64 50
3 49 50 64
3 50 55 58
3 50 58 55
3 50 77 55
3 50 55 77
3 51 55 78
3 51 78 55
3 51 58 55
3 51 55 58
3 52 40 36
3 52 36 40
3 52 72 55
3 52 55 72
3 52 77 43
3 52 43 77
3 52 77 55
3 52 55 77
3 53 55 71
3 53 71 55
3 54 48 61
3 54 61 48
3 54 56 48
3 54 48 56
3 54 57 56
3 54 56 57
3 55 53 78
3 55 78 53
3 59 22 18
3 59 18 22
3 59 45 73
3 59 73 45
3 59 73 38
3 59 38 73
3 60 23 46
3 60 46 23
3 60 47 76
3 60 76 47
3 61 54 34
3 61 34 54
3 63 6 10
3 63 10 6
3 63 10 14
3 63 14 10
3 63 38 79
3 63 79 38
3 63 67 49
3 63 49 67
3 63 79 14
3 63 14 79
3 64 32 37
3 64 37 32
3 64 32 43
3 64 43 32
3 65 3 26
3 65 26 3
3 67 44 51
3 67 51 44
3 68 40 33
3 68 33 40
3 69 56 24
3 69 24 56
3 70 54 57
3 70 57 54
3 70 57 25
3 70 25 57
3 75 38 59
3 75 59 38
3 76 47 80
3 76 80 47
3 76 60 19
3 76 19 60
3 77 43 50
3 77 50 43
3 80 15 76
3 80 76 15
