 COFF
          99         974          99
  
  -6.4382682308761927       0.95624194857045630        5.3051458914617280       0.60000002384185791       0.60000002384185791       0.60000002384185791       0.80000001192092896     
  -6.4382682308763721      -0.95624194857059008        5.3051458914615024       0.60000002384185791       0.60000002384185791       0.60000002384185791       0.80000001192092896     
  -3.0209176760751525E-002  -2.0085277892794666        4.9846462150394135       0.60000002384185791       0.60000002384185791       0.60000002384185791       0.80000001192092896     
   7.3066389168663237      -0.89850578956515337        5.4065483009568220       0.60000002384185791       0.60000002384185791       0.60000002384185791       0.80000001192092896     
   7.3066389162684562       0.89850578907652290        5.4065483017275993       0.60000002384185791       0.60000002384185791       0.60000002384185791       0.80000001192092896     
  -3.0209176763180832E-002   2.0085277823419156        4.9846462220000207       0.60000002384185791       0.60000002384185791       0.60000002384185791       0.80000001192092896     
   1.0920251599843982       -1.6934980226270013        5.1225619218042358       0.60000002384185791       0.60000002384185791       0.60000002384185791       0.80000001192092896     
   1.0920251599616557        1.6934980340598440        5.1225619101809761       0.60000002384185791       0.60000002384185791       0.60000002384185791       0.80000001192092896     
  -1.1161295544953707        1.6743352024801823        5.0957068779298460       0.60000002384185791       0.60000002384185791       0.60000002384185791       0.80000001192092896     
  -1.1161295545352421       -1.6743352024429168        5.0957068779477579       0.60000002384185791       0.60000002384185791       0.60000002384185791       0.80000001192092896     
   2.0131830622337263       -1.3836507018591051        5.3589964111111295       0.60000002384185791       0.60000002384185791       0.60000002384185791       0.80000001192092896     
   2.0131830665726311        1.3836507210593421        5.3589963916184784       0.60000002384185791       0.60000002384185791       0.60000002384185791       0.80000001192092896     
  -2.0402028535008268        1.3843065907097827        5.3443992058026728       0.60000002384185791       0.60000002384185791       0.60000002384185791       0.80000001192092896     
  -2.0402028535052530       -1.3843065906259102        5.3443992058867131       0.60000002384185791       0.60000002384185791       0.60000002384185791       0.80000001192092896     
   3.0345454964940188       -1.4506902405792022        5.2070449324714030       0.60000002384185791       0.60000002384185791       0.60000002384185791       0.80000001192092896     
   3.0345454952795268        1.4506903545025915        5.2070448180638493       0.60000002384185791       0.60000002384185791       0.60000002384185791       0.80000001192092896     
  -3.0217919603591654        1.4318634602299767        5.1615326468921880       0.60000002384185791       0.60000002384185791       0.60000002384185791       0.80000001192092896     
  -3.0217919603601096       -1.4318634601600808        5.1615326469613860       0.60000002384185791       0.60000002384185791       0.60000002384185791       0.80000001192092896     
   4.0604903688595106       -1.3928681527168552        5.3026273201949126       0.60000002384185791       0.60000002384185791       0.60000002384185791       0.80000001192092896     
   4.0604903791035190        1.3928682161786026        5.3026272555842828       0.60000002384185791       0.60000002384185791       0.60000002384185791       0.80000001192092896     
  -4.0382325136768058        1.3713063646043668        5.2748244419201633       0.60000002384185791       0.60000002384185791       0.60000002384185791       0.80000001192092896     
  -4.0382325141154496       -1.3713063647031443        5.2748244424856736       0.60000002384185791       0.60000002384185791       0.60000002384185791       0.80000001192092896     
   5.0444498938455098       -1.1980730753394726        5.3305771183121760       0.60000002384185791       0.60000002384185791       0.60000002384185791       0.80000001192092896     
   5.0444498872987769        1.1980730276799414        5.3305771666742636       0.60000002384185791       0.60000002384185791       0.60000002384185791       0.80000001192092896     
  -5.0264624558246442        1.1903902255484320        5.2770101090835917       0.60000002384185791       0.60000002384185791       0.60000002384185791       0.80000001192092896     
  -5.0264624558290327       -1.1903902255497505        5.2770101090816119       0.60000002384185791       0.60000002384185791       0.60000002384185791       0.80000001192092896     
   6.0408333764786093       -1.0675454716431421        5.3687027239698972       0.60000002384185791       0.60000002384185791       0.60000002384185791       0.80000001192092896     
   6.0408333750496856        1.0675454648135001        5.3687027309323332       0.60000002384185791       0.60000002384185791       0.60000002384185791       0.80000001192092896     
  -1.0108611037581468       -1.6368852012403219        4.1601405746913969       0.60000002384185791       0.60000002384185791       0.60000002384185791       0.80000001192092896     
  -1.7997559625578412       0.82315514039093218        3.0858926080662448       0.60000002384185791       0.60000002384185791       0.60000002384185791       0.80000001192092896     
  -1.7997557051699788      -0.82315524666266160        3.0858925834625879       0.60000002384185791       0.60000002384185791       0.60000002384185791       0.80000001192092896     
  0.88523500370722430       -1.6423078832343805        3.9012858593320967       0.60000002384185791       0.60000002384185791       0.60000002384185791       0.80000001192092896     
  0.88523119665084793        1.6423082759010503        3.9012838989201200       0.60000002384185791       0.60000002384185791       0.60000002384185791       0.80000001192092896     
  -2.1564815328924340        1.3251214340066302        4.1721910016265156       0.60000002384185791       0.60000002384185791       0.60000002384185791       0.80000001192092896     
  -2.1564814549558537       -1.3251214583133766        4.1721909021508594       0.60000002384185791       0.60000002384185791       0.60000002384185791       0.80000001192092896     
   3.3460092701872730E-002  -1.7430675915553053        3.7551511534018696       0.60000002384185791       0.60000002384185791       0.60000002384185791       0.80000001192092896     
   3.3557748259477646E-002   1.7432127825207433        3.7551509689727403       0.60000002384185791       0.60000002384185791       0.60000002384185791       0.80000001192092896     
   2.0792904839968203        1.3159493039481307        4.3146126034190200       0.60000002384185791       0.60000002384185791       0.60000002384185791       0.80000001192092896     
   3.5014775127772544      -0.61885876502280146        2.7262692079133850        1.0000000000000000        1.0000000000000000        0.0000000000000000        1.0000000000000000     
 -0.72989283200177701       -1.6081311558158158        3.2735723630361799       0.60000002384185791       0.60000002384185791       0.60000002384185791       0.80000001192092896     
 -0.72989297283609134        1.6081306489902696        3.2735722366838917       0.60000002384185791       0.60000002384185791       0.60000002384185791       0.80000001192092896     
  -1.4047935324506859      -0.81409359775302592        1.8279397131444404       0.60000002384185791       0.60000002384185791       0.60000002384185791       0.80000001192092896     
  -1.4047958942000203       0.81409410785990532        1.8279405215356146       0.60000002384185791       0.60000002384185791       0.60000002384185791       0.80000001192092896     
  0.82138485516989601        1.6074584398132281        2.8908605667997027       0.60000002384185791       0.60000002384185791       0.60000002384185791       0.80000001192092896     
  0.82131855796794639       -1.6071733472291281        2.8908567092352926       0.60000002384185791       0.60000002384185791       0.60000002384185791       0.80000001192092896     
   5.4509021753538098       -1.0898345694217506        4.4489352591486533       0.60000002384185791       0.60000002384185791       0.60000002384185791       0.80000001192092896     
   5.4509023846423332        1.0898328284789662        4.4489353287013191       0.60000002384185791       0.60000002384185791       0.60000002384185791       0.80000001192092896     
   3.5014776689416633       0.61885785897533929        2.7262692079133850        1.0000000000000000        1.0000000000000000        0.0000000000000000        1.0000000000000000     
  -3.4897871707821588       0.65944495121749047        2.9816402194175646        1.0000000000000000        1.0000000000000000        0.0000000000000000        1.0000000000000000     
   1.8649569153036882       -9.1341905233165322E-006   3.3448847808904372       0.60000002384185791       0.60000002384185791       0.60000002384185791       0.80000001192092896     
   1.2399388340957331        1.1778738784575933        2.6245156738393391       0.60000002384185791       0.60000002384185791       0.60000002384185791       0.80000001192092896     
   1.2399439236539906       -1.1778777893409780        2.6245145872467681       0.60000002384185791       0.60000002384185791       0.60000002384185791       0.80000001192092896     
  0.11269522049020218        1.6336014425263059        2.7503165919198285       0.60000002384185791       0.60000002384185791       0.60000002384185791       0.80000001192092896     
  0.11269648161664524       -1.6336020988369875        2.7503166916308697       0.60000002384185791       0.60000002384185791       0.60000002384185791       0.80000001192092896     
  -3.4897871700168155      -0.65944495366115319        2.9816402194175642        1.0000000000000000        1.0000000000000000        0.0000000000000000        1.0000000000000000     
   6.5249721178356715E-002  -1.3515329176681704E-007   1.0306063639638421        1.0000000000000000        1.0000000000000000        0.0000000000000000        1.0000000000000000     
  -5.1293669404746502        1.0634599386958821        4.3127593435324973       0.60000002384185791       0.60000002384185791       0.60000002384185791       0.80000001192092896     
  -5.1293669400340987       -1.0634599387863264        4.3127593437143075       0.60000002384185791       0.60000002384185791       0.60000002384185791       0.80000001192092896     
   1.4755312473347530       -9.3270890117147561E-006   2.4147778235897266       0.60000002384185791       0.60000002384185791       0.60000002384185791       0.80000001192092896     
   4.5420360641879567       -1.2974241667247586        4.6635194123102339       0.60000002384185791       0.60000002384185791       0.60000002384185791       0.80000001192092896     
   4.5420542630449008        1.2973976171436203        4.6635162477282872       0.60000002384185791       0.60000002384185791       0.60000002384185791       0.80000001192092896     
  -2.1566559328207160       -1.6341196284059897E-007   3.7873986625578482       0.60000002384185791       0.60000002384185791       0.60000002384185791       0.80000001192092896     
   2.0791932795058421       -1.0851620431225818E-005   3.8629124549958149       0.60000002384185791       0.60000002384185791       0.60000002384185791       0.80000001192092896     
   2.0792973035607099       -1.3159492171582428        4.3146051448894642       0.60000002384185791       0.60000002384185791       0.60000002384185791       0.80000001192092896     
   1.3586984094450179        1.4746269689049207        3.5833853716037396       0.60000002384185791       0.60000002384185791       0.60000002384185791       0.80000001192092896     
   6.5501256846850113      -0.94147020774266976        4.8505529870617190       0.60000002384185791       0.60000002384185791       0.60000002384185791       0.80000001192092896     
   6.5501256612319860       0.94147015502656617        4.8505529716410409       0.60000002384185791       0.60000002384185791       0.60000002384185791       0.80000001192092896     
   1.3587046145632249       -1.4746276820470585        3.5833892846719162       0.60000002384185791       0.60000002384185791       0.60000002384185791       0.80000001192092896     
  -1.0108611999333943        1.6368851721271778        4.1601406131222847       0.60000002384185791       0.60000002384185791       0.60000002384185791       0.80000001192092896     
  -4.4385373331923299        1.2603492408681582        4.5932628053200339       0.60000002384185791       0.60000002384185791       0.60000002384185791       0.80000001192092896     
  -4.4385373319639330       -1.2603492405533061        4.5932628040939321       0.60000002384185791       0.60000002384185791       0.60000002384185791       0.80000001192092896     
 -0.52057323128444588       -1.4357106146355949        2.4823461453186604       0.60000002384185791       0.60000002384185791       0.60000002384185791       0.80000001192092896     
 -0.52057366429946694        1.4357101716991501        2.4823452737445924       0.60000002384185791       0.60000002384185791       0.60000002384185791       0.80000001192092896     
   5.0549800004216765      -0.75987734533307483        3.4409053182867235       0.60000002384185791       0.60000002384185791       0.60000002384185791       0.80000001192092896     
   5.0549809007737991       0.75987403295133726        3.4409027870993478       0.60000002384185791       0.60000002384185791       0.60000002384185791       0.80000001192092896     
   3.9619135893141899       -1.2976757815714401        4.2417125982124650       0.60000002384185791       0.60000002384185791       0.60000002384185791       0.80000001192092896     
   3.9619124910609971        1.2976686891589828        4.2417112597593984       0.60000002384185791       0.60000002384185791       0.60000002384185791       0.80000001192092896     
  0.72620326772094113        1.2672842613579429        1.9761280724877091       0.60000002384185791       0.60000002384185791       0.60000002384185791       0.80000001192092896     
  0.72620583473029832       -1.2672839078226552        1.9761287014406237       0.60000002384185791       0.60000002384185791       0.60000002384185791       0.80000001192092896     
   3.1883455253156563       -1.3064518097846896        4.0592975688658868       0.60000002384185791       0.60000002384185791       0.60000002384185791       0.80000001192092896     
   3.1883322176529343        1.3064489196442195        4.0592755097117319       0.60000002384185791       0.60000002384185791       0.60000002384185791       0.80000001192092896     
   4.4985483435637984E-002   1.2442559774361850        1.8887734022964986       0.60000002384185791       0.60000002384185791       0.60000002384185791       0.80000001192092896     
   4.4985950528191807E-002  -1.2442558328996947        1.8887738246099302       0.60000002384185791       0.60000002384185791       0.60000002384185791       0.80000001192092896     
  -3.8751499809622794        1.2546568826137283        4.2999262495633959       0.60000002384185791       0.60000002384185791       0.60000002384185791       0.80000001192092896     
  -3.8751499807747574       -1.2546568826303233        4.2999262495386672       0.60000002384185791       0.60000002384185791       0.60000002384185791       0.80000001192092896     
   1.0400375706615352       0.79485650634769267        1.8165655257689504       0.60000002384185791       0.60000002384185791       0.60000002384185791       0.80000001192092896     
   1.0400387418571435      -0.79485729642602487        1.8165649004849433       0.60000002384185791       0.60000002384185791       0.60000002384185791       0.80000001192092896     
  -3.2776979877678709        1.2195507073775580        4.0713210278751815       0.60000002384185791       0.60000002384185791       0.60000002384185791       0.80000001192092896     
  -3.2776979438746752       -1.2195507156615297        4.0713210348945061       0.60000002384185791       0.60000002384185791       0.60000002384185791       0.80000001192092896     
   4.2279908988086028       -1.1291631674218230        3.7608730300704738       0.60000002384185791       0.60000002384185791       0.60000002384185791       0.80000001192092896     
   4.2279929924007380        1.1291580521666948        3.7608758233252879       0.60000002384185791       0.60000002384185791       0.60000002384185791       0.80000001192092896     
   5.7210848838081665       -4.4889277549760472E-008   4.2454347272639454       0.60000002384185791       0.60000002384185791       0.60000002384185791       0.80000001192092896     
   2.6360582012756164       0.96156469783886767        3.5321375336483962       0.60000002384185791       0.60000002384185791       0.60000002384185791       0.80000001192092896     
   2.6360544109046011      -0.96157698936810398        3.5321039653307937       0.60000002384185791       0.60000002384185791       0.60000002384185791       0.80000001192092896     
  -4.6548877237691668       0.82196519512273181        3.5581782682780934       0.60000002384185791       0.60000002384185791       0.60000002384185791       0.80000001192092896     
  -4.6548877232355608      -0.82196519529514855        3.5581782682733727       0.60000002384185791       0.60000002384185791       0.60000002384185791       0.80000001192092896     
  -5.3373401978911073        2.5402046792401511E-012   4.2561107285767097       0.60000002384185791       0.60000002384185791       0.60000002384185791       0.80000001192092896     
 -0.25260862421564961      -0.82953141596856717        1.7030651330229565       0.60000002384185791       0.60000002384185791       0.60000002384185791       0.80000001192092896     
 -0.25260420505467557       0.82953223896916495        1.7030667219795752       0.60000002384185791       0.60000002384185791       0.60000002384185791       0.80000001192092896     
  
   3   0  24  56
   3   0  56  24
   3   0  56  96
   3   0  96   1
   3   0  96  56
   3   0   1  96
   3   1   0  96
   3   1  96  57
   3   1  96   0
   3   1  57  96
   3   1  57  25
   3   1  25  57
   3   2  35  28
   3   2  35  31
   3   2  31  35
   3   2  31   6
   3   2   6  31
   3   2   9  28
   3   2  28  35
   3   2  28   9
   3   3  26  65
   3   3  65  26
   4   3  65  66   4
   3   4  66  27
   4   4  66  65   3
   3   4  27  66
   3   5   7  32
   3   5  32  36
   3   5  32   7
   3   5  36  32
   3   5  36  68
   3   5  68  36
   3   5  68   8
   3   5   8  68
   3   6   2  31
   3   6  31   2
   3   6  31  63
   3   6  63  10
   3   6  63  31
   3   6  10  63
   3   7  11  37
   3   7  37  32
   3   7  37  11
   3   7  32  37
   3   7  32   5
   3   7   5  32
   3   8   5  68
   3   8  68   5
   3   8  68  33
   3   8  33  12
   3   8  33  68
   3   8  12  33
   3   9  13  34
   3   9  34  28
   3   9  34  13
   3   9  28  34
   3   9  28   2
   3   9   2  28
   3  10   6  63
   3  10  63  14
   3  10  63   6
   3  10  14  63
   3  11  15  37
   3  11  37   7
   3  11  37  15
   3  11   7  37
   3  12   8  33
   3  12  33  16
   3  12  33   8
   3  12  16  33
   3  13  17  34
   3  13  34   9
   3  13  34  17
   3  13   9  34
   3  14  10  63
   3  14  63  79
   3  14  63  10
   3  14  79  63
   3  14  79  75
   3  14  75  79
   3  14  75  18
   3  14  18  75
   3  15  19  76
   3  15  76  80
   3  15  76  19
   3  15  80  76
   3  15  80  37
   3  15  37  11
   3  15  37  80
   3  15  11  37
   3  16  12  33
   3  16  33  87
   3  16  33  12
   3  16  87  33
   3  16  87  83
   3  16  83  87
   3  16  83  20
   3  16  20  83
   3  17  21  84
   3  17  84  88
   3  17  84  21
   3  17  88  84
   3  17  88  34
   3  17  34  13
   3  17  34  88
   3  17  13  34
   3  18  14  75
   3  18  75  14
   3  18  75  59
   3  18  59  75
   3  18  59  22
   3  18  22  59
   3  19  23  60
   3  19  60  76
   3  19  60  23
   3  19  76  60
   3  19  76  15
   3  19  15  76
   3  20  16  83
   3  20  83  16
   3  20  83  69
   3  20  69  83
   3  20  69  24
   3  20  24  69
   3  21  25  70
   3  21  70  84
   3  21  70  25
   3  21  84  70
   3  21  84  17
   3  21  17  84
   3  22  18  59
   3  22  59  18
   3  22  59  45
   3  22  45  26
   3  22  45  59
   3  22  26  45
   3  23  27  46
   3  23  46  60
   3  23  46  27
   3  23  60  46
   3  23  60  19
   3  23  19  60
   3  24  20  69
   3  24  69  20
   3  24  69  56
   3  24  56   0
   3  24  56  69
   3  24   0  56
   3  25   1  57
   3  25  57   1
   3  25  57  70
   3  25  70  57
   3  25  70  21
   3  25  21  70
   3  26  22  45
   3  26  45  65
   3  26  45  22
   3  26  65   3
   3  26  65  45
   3  26   3  65
   3  27   4  66
   3  27  66   4
   3  27  66  46
   3  27  46  66
   3  27  46  23
   3  27  23  46
   3  28  34  39
   3  28  34   9
   3  28  39  35
   3  28  39  34
   3  28  35  39
   3  28  35   2
   3  28   2  35
   3  28   2   9
   3  28   9  34
   3  28   9   2
   3  29  33  40
   3  29  33  61
   3  29  40  33
   3  29  40  72
   3  29  72  42
   3  29  72  40
   3  29  42  72
   4  29  42  41  30
   3  29  30  61
   4  29  30  41  42
   3  29  61  30
   3  29  61  33
   3  30  34  61
   3  30  34  39
   3  30  61  29
   3  30  61  34
   3  30  29  61
   4  30  29  42  41
   3  30  41  71
   4  30  41  42  29
   3  30  71  41
   3  30  71  39
   3  30  39  34
   3  30  39  71
   3  31   2  35
   3  31   2   6
   3  31  35  44
   3  31  35   2
   3  31  44  67
   3  31  44  35
   3  31  67  63
   3  31  67  44
   3  31  63   6
   3  31  63  67
   3  31   6   2
   3  31   6  63
   3  32  37  64
   3  32  37   7
   3  32  64  37
   3  32  64  43
   3  32  43  36
   3  32  43  64
   3  32  36  43
   3  32  36   5
   3  32   5   7
   3  32   5  36
   3  32   7  37
   3  32   7   5
   3  33  48  87
   3  33  48  61
   3  33  87  48
   3  33  87  16
   3  33  16  12
   3  33  16  87
   3  33  12   8
   3  33  12  16
   3  33   8  68
   3  33   8  12
   3  33  68  40
   3  33  68   8
   3  33  40  29
   3  33  40  68
   3  33  29  40
   3  33  29  61
   3  33  61  29
   3  33  61  48
   3  34  54  61
   3  34  54  88
   3  34  61  30
   3  34  61  54
   3  34  30  61
   3  34  30  39
   3  34  39  28
   3  34  39  30
   3  34  28  39
   3  34  28   9
   3  34   9  13
   3  34   9  28
   3  34  13  17
   3  34  13   9
   3  34  17  88
   3  34  17  13
   3  34  88  54
   3  34  88  17
   3  35  28  39
   3  35  28   2
   3  35  39  28
   3  35  39  53
   3  35  53  44
   3  35  53  39
   3  35  44  31
   3  35  44  53
   3  35  31   2
   3  35  31  44
   3  35   2  31
   3  35   2  28
   3  36  32  43
   3  36  32   5
   3  36  43  32
   3  36  43  52
   3  36  52  40
   3  36  52  43
   3  36  40  68
   3  36  40  52
   3  36  68   5
   3  36  68  40
   3  36   5  32
   3  36   5  68
   3  37  92  80
   3  37  92  62
   3  37  62  49
   3  37  62  92
   3  37  49  62
   3  37  49  64
   3  37  64  49
   3  37  64  32
   3  37  32  64
   3  37  32   7
   3  37   7  11
   3  37   7  32
   3  37  11  15
   3  37  11   7
   3  37  15  80
   3  37  15  11
   3  37  80  92
   3  37  80  15
   3  38  73  89
   4  38  73  74  47
   3  38  89  73
   3  38  89  75
   3  38  75  79
   3  38  75  89
   3  38  79  93
   3  38  79  75
   3  38  93  79
   3  38  93  62
   3  38  62  47
   3  38  62  93
   3  38  47  62
   4  38  47  74  73
   3  39  35  28
   3  39  35  53
   3  39  28  34
   3  39  28  35
   3  39  34  30
   3  39  34  28
   3  39  30  34
   3  39  30  71
   3  39  71  30
   3  39  71  53
   3  39  53  35
   3  39  53  71
   3  40  29  33
   3  40  29  72
   3  40  33  68
   3  40  33  29
   3  40  68  36
   3  40  68  33
   3  40  36  52
   3  40  36  68
   3  40  52  36
   3  40  52  72
   3  40  72  52
   3  40  72  29
   3  41  55  97
   3  41  55  42
   3  41  97  71
   3  41  97  55
   3  41  71  30
   3  41  71  97
   3  41  30  71
   4  41  30  29  42
   3  41  42  55
   4  41  42  29  30
   3  42  55  41
   3  42  55  98
   3  42  41  55
   4  42  41  30  29
   3  42  29  72
   4  42  29  30  41
   3  42  72  98
   3  42  72  29
   3  42  98  72
   3  42  98  55
   3  43  36  32
   3  43  36  52
   3  43  32  64
   3  43  32  36
   3  43  64  50
   3  43  64  32
   3  43  50  64
   3  43  50  77
   3  43  77  50
   3  43  77  52
   3  43  52  36
   3  43  52  77
   3  44  67  51
   3  44  67  31
   3  44  31  35
   3  44  31  67
   3  44  35  53
   3  44  35  31
   3  44  53  35
   3  44  53  78
   3  44  78  53
   3  44  78  51
   3  44  51  67
   3  44  51  78
   3  45  65  26
   3  45  65  91
   3  45  26  22
   3  45  26  65
   3  45  22  59
   3  45  22  26
   3  45  59  89
   3  45  59  22
   3  45  89  73
   3  45  89  59
   3  45  73  91
   3  45  73  89
   3  45  91  73
   3  45  91  65
   3  46  66  91
   3  46  66  27
   3  46  91  74
   3  46  91  66
   3  46  74  91
   3  46  74  90
   3  46  90  60
   3  46  90  74
   3  46  60  90
   3  46  60  23
   3  46  23  27
   3  46  23  60
   3  46  27  66
   3  46  27  23
   3  47  74  90
   4  47  74  73  38
   3  47  38  62
   4  47  38  73  74
   3  47  62  92
   3  47  62  38
   3  47  92  80
   3  47  92  62
   3  47  80  76
   3  47  80  92
   3  47  76  90
   3  47  76  80
   3  47  90  76
   3  47  90  74
   3  48  69  83
   4  48  69  56  94
   3  48  83  87
   3  48  83  69
   3  48  87  33
   3  48  87  83
   3  48  33  87
   3  48  33  61
   3  48  61  54
   3  48  61  33
   3  48  54  61
   4  48  54  95  94
   3  49  37  62
   3  49  37  64
   3  49  62  37
   3  49  62  63
   3  49  63  67
   3  49  63  62
   3  49  67  51
   3  49  67  63
   3  49  51  67
   3  49  51  58
   3  49  58  51
   3  49  58  50
   3  49  50  64
   3  49  50  58
   3  49  64  37
   3  49  64  50
   3  50  43  64
   3  50  43  77
   3  50  64  49
   3  50  64  43
   3  50  49  58
   3  50  49  64
   3  50  58  85
   3  50  58  49
   3  50  85  58
   3  50  85  77
   3  50  77  85
   3  50  77  43
   3  51  49  67
   3  51  49  58
   3  51  67  49
   3  51  67  44
   3  51  44  67
   3  51  44  78
   3  51  78  86
   3  51  78  44
   3  51  86  78
   3  51  86  58
   3  51  58  86
   3  51  58  49
   3  52  40  36
   3  52  40  72
   3  52  36  43
   3  52  36  40
   3  52  43  36
   3  52  43  77
   3  52  77  81
   3  52  77  43
   3  52  81  77
   3  52  81  72
   3  52  72  81
   3  52  72  40
   3  53  44  35
   3  53  44  78
   3  53  35  39
   3  53  35  44
   3  53  39  35
   3  53  39  71
   3  53  71  82
   3  53  71  39
   3  53  82  71
   3  53  82  78
   3  53  78  82
   3  53  78  44
   3  54  48  61
   4  54  48  94  95
   3  54  61  34
   3  54  61  48
   3  54  34  61
   3  54  34  88
   3  54  88  84
   3  54  88  34
   3  54  84  70
   3  54  84  88
   3  54  70  84
   4  54  70  57  95
   3  55  81  77
   3  55  81  98
   3  55  77  85
   3  55  77  81
   3  55  85  58
   3  55  85  77
   3  55  58  86
   3  55  58  85
   3  55  86  78
   3  55  86  58
   3  55  78  82
   3  55  78  86
   3  55  82  97
   3  55  82  78
   3  55  97  82
   3  55  97  41
   3  55  41  97
   3  55  41  42
   3  55  42  41
   3  55  42  98
   3  55  98  42
   3  55  98  81
   3  56   0  24
   3  56   0  96
   3  56  24  69
   3  56  24   0
   3  56  69  24
   4  56  69  48  94
   3  56  94  96
   4  56  94  48  69
   3  56  96  94
   3  56  96   0
   3  57   1  96
   3  57   1  25
   3  57  96  95
   3  57  96   1
   3  57  95  96
   4  57  95  54  70
   3  57  70  25
   4  57  70  54  95
   3  57  25   1
   3  57  25  70
   3  58  51  49
   3  58  51  86
   3  58  86  55
   3  58  86  51
   3  58  55  85
   3  58  55  86
   3  58  85  55
   3  58  85  50
   3  58  50  49
   3  58  50  85
   3  58  49  51
   3  58  49  50
   3  59  18  75
   3  59  18  22
   3  59  75  89
   3  59  75  18
   3  59  89  45
   3  59  89  75
   3  59  45  22
   3  59  45  89
   3  59  22  18
   3  59  22  45
   3  60  46  90
   3  60  46  23
   3  60  90  76
   3  60  90  46
   3  60  76  90
   3  60  76  19
   3  60  19  23
   3  60  19  76
   3  60  23  46
   3  60  23  19
   3  61  29  33
   3  61  29  30
   3  61  30  34
   3  61  30  29
   3  61  34  54
   3  61  34  30
   3  61  54  48
   3  61  54  34
   3  61  48  33
   3  61  48  54
   3  61  33  48
   3  61  33  29
   3  62  49  37
   3  62  49  63
   3  62  37  92
   3  62  37  49
   3  62  92  47
   3  62  92  37
   3  62  47  38
   3  62  47  92
   3  62  38  93
   3  62  38  47
   3  62  93  63
   3  62  93  38
   3  62  63  93
   3  62  63  49
   3  63  93  79
   3  63  93  62
   3  63  79  93
   3  63  79  14
   3  63  14  10
   3  63  14  79
   3  63  10   6
   3  63  10  14
   3  63   6  31
   3  63   6  10
   3  63  31  67
   3  63  31   6
   3  63  67  49
   3  63  67  31
   3  63  49  62
   3  63  49  67
   3  63  62  49
   3  63  62  93
   3  64  37  49
   3  64  37  32
   3  64  49  37
   3  64  49  50
   3  64  50  43
   3  64  50  49
   3  64  43  32
   3  64  43  50
   3  64  32  37
   3  64  32  43
   3  65   3  26
   4  65   3   4  66
   3  65  26  45
   3  65  26   3
   3  65  45  26
   3  65  45  91
   3  65  91  66
   3  65  91  45
   3  65  66  91
   4  65  66   4   3
   3  66   4  27
   4  66   4   3  65
   3  66  65  91
   4  66  65   3   4
   3  66  91  46
   3  66  91  65
   3  66  46  91
   3  66  46  27
   3  66  27   4
   3  66  27  46
   3  67  51  49
   3  67  51  44
   3  67  49  63
   3  67  49  51
   3  67  63  31
   3  67  63  49
   3  67  31  44
   3  67  31  63
   3  67  44  31
   3  67  44  51
   3  68   5  36
   3  68   5   8
   3  68  36  40
   3  68  36   5
   3  68  40  33
   3  68  40  36
   3  68  33   8
   3  68  33  40
   3  68   8   5
   3  68   8  33
   3  69  20  83
   3  69  20  24
   3  69  83  48
   3  69  83  20
   3  69  48  83
   4  69  48  94  56
   3  69  56  24
   4  69  56  94  48
   3  69  24  20
   3  69  24  56
   3  70  57  25
   4  70  57  95  54
   3  70  54  84
   4  70  54  95  57
   3  70  84  54
   3  70  84  21
   3  70  21  25
   3  70  21  84
   3  70  25  57
   3  70  25  21
   3  71  30  41
   3  71  30  39
   3  71  41  97
   3  71  41  30
   3  71  97  82
   3  71  97  41
   3  71  82  97
   3  71  82  53
   3  71  53  39
   3  71  53  82
   3  71  39  30
   3  71  39  53
   3  72  52  40
   3  72  52  81
   3  72  81  98
   3  72  81  52
   3  72  98  42
   3  72  98  81
   3  72  42  29
   3  72  42  98
   3  72  29  40
   3  72  29  42
   3  72  40  29
   3  72  40  52
   3  73  38  89
   4  73  38  47  74
   3  73  74  91
   4  73  74  47  38
   3  73  91  74
   3  73  91  45
   3  73  45  89
   3  73  45  91
   3  73  89  45
   3  73  89  38
   3  74  46  91
   3  74  46  90
   3  74  91  73
   3  74  91  46
   3  74  73  91
   4  74  73  38  47
   3  74  47  90
   4  74  47  38  73
   3  74  90  46
   3  74  90  47
   3  75  14  79
   3  75  14  18
   3  75  79  38
   3  75  79  14
   3  75  38  89
   3  75  38  79
   3  75  89  59
   3  75  89  38
   3  75  59  18
   3  75  59  89
   3  75  18  14
   3  75  18  59
   3  76  60  90
   3  76  60  19
   3  76  90  60
   3  76  90  47
   3  76  47  80
   3  76  47  90
   3  76  80  47
   3  76  80  15
   3  76  15  19
   3  76  15  80
   3  76  19  60
   3  76  19  15
   3  77  50  43
   3  77  50  85
   3  77  85  55
   3  77  85  50
   3  77  55  81
   3  77  55  85
   3  77  81  55
   3  77  81  52
   3  77  52  43
   3  77  52  81
   3  77  43  50
   3  77  43  52
   3  78  53  44
   3  78  53  82
   3  78  82  55
   3  78  82  53
   3  78  55  86
   3  78  55  82
   3  78  86  55
   3  78  86  51
   3  78  51  44
   3  78  51  86
   3  78  44  53
   3  78  44  51
   3  79  63  93
   3  79  63  14
   3  79  93  63
   3  79  93  38
   3  79  38  75
   3  79  38  93
   3  79  75  14
   3  79  75  38
   3  79  14  63
   3  79  14  75
   3  80  76  47
   3  80  76  15
   3  80  47  92
   3  80  47  76
   3  80  92  47
   3  80  92  37
   3  80  37  92
   3  80  37  15
   3  80  15  76
   3  80  15  37
   3  81  77  55
   3  81  77  52
   3  81  55  77
   3  81  55  98
   3  81  98  72
   3  81  98  55
   3  81  72  52
   3  81  72  98
   3  81  52  77
   3  81  52  72
   3  82  71  97
   3  82  71  53
   3  82  97  71
   3  82  97  55
   3  82  55  78
   3  82  55  97
   3  82  78  53
   3  82  78  55
   3  82  53  71
   3  82  53  78
   3  83  16  87
   3  83  16  20
   3  83  87  48
   3  83  87  16
   3  83  48  69
   3  83  48  87
   3  83  69  20
   3  83  69  48
   3  83  20  16
   3  83  20  69
   3  84  70  54
   3  84  70  21
   3  84  54  88
   3  84  54  70
   3  84  88  54
   3  84  88  17
   3  84  17  21
   3  84  17  88
   3  84  21  70
   3  84  21  17
   3  85  58  55
   3  85  58  50
   3  85  55  77
   3  85  55  58
   3  85  77  50
   3  85  77  55
   3  85  50  58
   3  85  50  77
   3  86  78  55
   3  86  78  51
   3  86  55  58
   3  86  55  78
   3  86  58  51
   3  86  58  55
   3  86  51  78
   3  86  51  58
   3  87  33  48
   3  87  33  16
   3  87  48  83
   3  87  48  33
   3  87  83  16
   3  87  83  48
   3  87  16  33
   3  87  16  83
   3  88  84  54
   3  88  84  17
   3  88  54  34
   3  88  54  84
   3  88  34  54
   3  88  34  17
   3  88  17  84
   3  88  17  34
   3  89  73  38
   3  89  73  45
   3  89  45  59
   3  89  45  73
   3  89  59  75
   3  89  59  45
   3  89  75  38
   3  89  75  59
   3  89  38  73
   3  89  38  75
   3  90  76  60
   3  90  76  47
   3  90  60  46
   3  90  60  76
   3  90  46  74
   3  90  46  60
   3  90  74  46
   3  90  74  47
   3  90  47  74
   3  90  47  76
   3  91  73  74
   3  91  73  45
   3  91  74  46
   3  91  74  73
   3  91  46  66
   3  91  46  74
   3  91  66  65
   3  91  66  46
   3  91  65  45
   3  91  65  66
   3  91  45  65
   3  91  45  73
   3  92  80  47
   3  92  80  37
   3  92  47  62
   3  92  47  80
   3  92  62  37
   3  92  62  47
   3  92  37  62
   3  92  37  80
   3  93  79  63
   3  93  79  38
   3  93  63  79
   3  93  63  62
   3  93  62  38
   3  93  62  63
   3  93  38  79
   3  93  38  62
   3  94  95  96
   4  94  95  54  48
   3  94  96  95
   3  94  96  56
   3  94  56  96
   4  94  56  69  48
   3  95  57  96
   4  95  57  70  54
   3  95  96  94
   3  95  96  57
   3  95  94  96
   4  95  94  48  54
   3  96  94  95
   3  96  94  56
   3  96  95  57
   3  96  95  94
   3  96  57   1
   3  96  57  95
   3  96   1   0
   3  96   1  57
   3  96   0  56
   3  96   0   1
   3  96  56   0
   3  96  56  94
   3  97  82  71
   3  97  82  55
   3  97  71  41
   3  97  71  82
   3  97  41  55
   3  97  41  71
   3  97  55  82
   3  97  55  41
   3  98  42  55
   3  98  42  72
   3  98  72  81
   3  98  72  42
   3  98  81  55
   3  98  81  72
   3  98  55  81
   3  98  55  42
