# Generated by dad_to_polygons. Vertex data from Humppa's .off file,
# polygons parsed from .dad file.
COFF
99 336 99
-6.438268 0.956242 5.305146 0.500000 0.500000 0.500000 1.0
-6.438268 -0.956242 5.305146 0.500000 0.500000 0.500000 1.0
-0.030209 -2.008528 4.984646 0.500000 0.500000 0.500000 1.0
7.306639 -0.898506 5.406548 0.500000 0.500000 0.500000 1.0
7.306639 0.898506 5.406548 0.500000 0.500000 0.500000 1.0
-0.030209 2.008528 4.984646 0.500000 0.500000 0.500000 1.0
1.092025 -1.693498 5.122562 0.500000 0.500000 0.500000 1.0
1.092025 1.693498 5.122562 0.500000 0.500000 0.500000 1.0
-1.116130 1.674335 5.095707 0.500000 0.500000 0.500000 1.0
-1.116130 -1.674335 5.095707 0.500000 0.500000 0.500000 1.0
2.013183 -1.383651 5.358996 0.500000 0.500000 0.500000 1.0
2.013183 1.383651 5.358996 0.500000 0.500000 0.500000 1.0
-2.040203 1.384307 5.344399 0.500000 0.500000 0.500000 1.0
-2.040203 -1.384307 5.344399 0.500000 0.500000 0.500000 1.0
3.034545 -1.450690 5.207045 0.500000 0.500000 0.500000 1.0
3.034545 1.450690 5.207045 0.500000 0.500000 0.500000 1.0
-3.021792 1.431863 5.161533 0.500000 0.500000 0.500000 1.0
-3.021792 -1.431863 5.161533 0.500000 0.500000 0.500000 1.0
4.060490 -1.392868 5.302627 0.500000 0.500000 0.500000 1.0
4.060490 1.392868 5.302627 0.500000 0.500000 0.500000 1.0
-4.038233 1.371306 5.274824 0.500000 0.500000 0.500000 1.0
-4.038233 -1.371306 5.274824 0.500000 0.500000 0.500000 1.0
5.044450 -1.198073 5.330577 0.500000 0.500000 0.500000 1.0
5.044450 1.198073 5.330577 0.500000 0.500000 0.500000 1.0
-5.026462 1.190390 5.277010 0.500000 0.500000 0.500000 1.0
-5.026462 -1.190390 5.277010 0.500000 0.500000 0.500000 1.0
6.040833 -1.067545 5.368703 0.500000 0.500000 0.500000 1.0
6.040833 1.067545 5.368703 0.500000 0.500000 0.500000 1.0
-1.010861 -1.636885 4.160141 0.500000 0.500000 0.500000 1.0
-1.799756 0.823155 3.085893 0.500000 0.500000 0.500000 1.0
-1.799756 -0.823155 3.085893 0.500000 0.500000 0.500000 1.0
0.885235 -1.642308 3.901286 0.500000 0.500000 0.500000 1.0
0.885231 1.642308 3.901284 0.500000 0.500000 0.500000 1.0
-2.156482 1.325121 4.172191 0.500000 0.500000 0.500000 1.0
-2.156481 -1.325121 4.172191 0.500000 0.500000 0.500000 1.0
0.033460 -1.743068 3.755151 0.500000 0.500000 0.500000 1.0
0.033558 1.743213 3.755151 0.500000 0.500000 0.500000 1.0
2.079290 1.315949 4.314613 0.500000 0.500000 0.500000 1.0
3.501478 -0.618859 2.726269 1.0 1.0 0.0 1.0
-0.729893 -1.608131 3.273572 0.500000 0.500000 0.500000 1.0
-0.729893 1.608131 3.273572 0.500000 0.500000 0.500000 1.0
-1.404794 -0.814094 1.827940 0.500000 0.500000 0.500000 1.0
-1.404796 0.814094 1.827941 0.500000 0.500000 0.500000 1.0
0.821385 1.607458 2.890861 0.500000 0.500000 0.500000 1.0
0.821319 -1.607173 2.890857 0.500000 0.500000 0.500000 1.0
5.450902 -1.089835 4.448935 0.500000 0.500000 0.500000 1.0
5.450902 1.089833 4.448935 0.500000 0.500000 0.500000 1.0
3.501478 0.618858 2.726269 1.0 1.0 0.0 1.0
-3.489787 0.659445 2.981640 1.0 1.0 0.0 1.0
1.864957 -0.000009 3.344885 0.500000 0.500000 0.500000 1.0
1.239939 1.177874 2.624516 0.500000 0.500000 0.500000 1.0
1.239944 -1.177878 2.624515 0.500000 0.500000 0.500000 1.0
0.112695 1.633601 2.750317 0.500000 0.500000 0.500000 1.0
0.112696 -1.633602 2.750317 0.500000 0.500000 0.500000 1.0
-3.489787 -0.659445 2.981640 1.0 1.0 0.0 1.0
0.065250 -0.000000 1.030606 1.0 1.0 0.0 1.0
-5.129367 1.063460 4.312759 0.500000 0.500000 0.500000 1.0
-5.129367 -1.063460 4.312759 0.500000 0.500000 0.500000 1.0
1.475531 -0.000009 2.414778 0.500000 0.500000 0.500000 1.0
4.542036 -1.297424 4.663519 0.500000 0.500000 0.500000 1.0
4.542054 1.297398 4.663516 0.500000 0.500000 0.500000 1.0
-2.156656 -0.000000 3.787399 0.500000 0.500000 0.500000 1.0
2.079193 -0.000011 3.862912 0.500000 0.500000 0.500000 1.0
2.079297 -1.315949 4.314605 0.500000 0.500000 0.500000 1.0
1.358698 1.474627 3.583385 0.500000 0.500000 0.500000 1.0
6.550126 -0.941470 4.850553 0.500000 0.500000 0.500000 1.0
6.550126 0.941470 4.850553 0.500000 0.500000 0.500000 1.0
1.358705 -1.474628 3.583389 0.500000 0.500000 0.500000 1.0
-1.010861 1.636885 4.160141 0.500000 0.500000 0.500000 1.0
-4.438537 1.260349 4.593263 0.500000 0.500000 0.500000 1.0
-4.438537 -1.260349 4.593263 0.500000 0.500000 0.500000 1.0
-0.520573 -1.435711 2.482346 0.500000 0.500000 0.500000 1.0
-0.520574 1.435710 2.482345 0.500000 0.500000 0.500000 1.0
5.054980 -0.759877 3.440905 0.500000 0.500000 0.500000 1.0
5.054981 0.759874 3.440903 0.500000 0.500000 0.500000 1.0
3.961914 -1.297676 4.241713 0.500000 0.500000 0.500000 1.0
3.961912 1.297669 4.241711 0.500000 0.500000 0.500000 1.0
0.726203 1.267284 1.976128 0.500000 0.500000 0.500000 1.0
0.726206 -1.267284 1.976129 0.500000 0.500000 0.500000 1.0
3.188346 -1.306452 4.059298 0.500000 0.500000 0.500000 1.0
3.188332 1.306449 4.059276 0.500000 0.500000 0.500000 1.0
0.044985 1.244256 1.888773 0.500000 0.500000 0.500000 1.0
0.044986 -1.244256 1.888774 0.500000 0.500000 0.500000 1.0
-3.875150 1.254657 4.299926 0.500000 0.500000 0.500000 1.0
-3.875150 -1.254657 4.299926 0.500000 0.500000 0.500000 1.0
1.040038 0.794857 1.816566 0.500000 0.500000 0.500000 1.0
1.040039 -0.794857 1.816565 0.500000 0.500000 0.500000 1.0
-3.277698 1.219551 4.071321 0.500000 0.500000 0.500000 1.0
-3.277698 -1.219551 4.071321 0.500000 0.500000 0.500000 1.0
4.227991 -1.129163 3.760873 0.500000 0.500000 0.500000 1.0
4.227993 1.129158 3.760876 0.500000 0.500000 0.500000 1.0
5.721085 -0.000000 4.245435 0.500000 0.500000 0.500000 1.0
2.636058 0.961565 3.532138 0.500000 0.500000 0.500000 1.0
2.636054 -0.961577 3.532104 0.500000 0.500000 0.500000 1.0
-4.654888 0.821965 3.558178 0.500000 0.500000 0.500000 1.0
-4.654888 -0.821965 3.558178 0.500000 0.500000 0.500000 1.0
-5.337340 0.000000 4.256111 0.500000 0.500000 0.500000 1.0
-0.252609 -0.829531 1.703065 0.500000 0.500000 0.500000 1.0
-0.252604 0.829532 1.703067 0.500000 0.500000 0.500000 1.0
3 1 0 96
3 1 96 0
3 2 28 35
3 2 35 28
3 2 31 6
3 2 6 31
3 2 35 31
3 2 31 35
3 3 26 65
3 3 65 26
3 4 3 65
3 4 65 3
3 4 65 66
3 4 66 65
3 4 66 27
3 4 27 66
3 5 32 7
3 5 7 32
3 6 63 10
3 6 10 63
3 8 12 33
3 8 33 12
3 8 68 5
3 8 5 68
3 9 2 28
3 9 28 2
3 9 28 34
3 9 34 28
3 9 34 13
3 9 13 34
3 11 15 37
3 11 37 15
3 14 10 63
3 14 63 10
3 14 63 79
3 14 79 63
3 14 75 79
3 14 79 75
3 15 37 80
3 15 80 37
3 15 80 76
3 15 76 80
3 16 20 83
3 16 83 20
3 16 83 87
3 16 87 83
3 17 13 34
3 17 34 13
3 17 34 88
3 17 88 34
3 17 88 84
3 17 84 88
3 18 14 75
3 18 75 14
3 18 75 59
3 18 59 75
3 19 76 15
3 19 15 76
3 20 83 69
3 20 69 83
3 21 70 84
3 21 84 70
3 22 45 59
3 22 59 45
3 23 60 19
3 23 19 60
3 24 0 56
3 24 56 0
3 24 20 69
3 24 69 20
3 24 56 69
3 24 69 56
3 25 1 57
3 25 57 1
3 25 70 21
3 25 21 70
3 25 70 57
3 25 57 70
3 26 22 45
3 26 45 22
3 27 46 23
3 27 23 46
3 28 34 39
3 28 39 34
3 29 33 61
3 29 61 33
3 30 29 61
3 30 61 29
3 30 41 42
3 30 42 41
3 30 41 71
3 30 71 41
3 30 42 29
3 30 29 42
3 31 6 63
3 31 63 6
3 31 63 67
3 31 67 63
3 31 67 44
3 31 44 67
3 32 5 36
3 32 36 5
3 32 64 43
3 32 43 64
3 33 16 12
3 33 12 16
3 33 29 40
3 33 40 29
3 33 40 68
3 33 68 40
3 33 48 87
3 33 87 48
3 33 61 48
3 33 48 61
3 33 68 8
3 33 8 68
3 34 54 61
3 34 61 54
3 34 88 54
3 34 54 88
3 35 31 44
3 35 44 31
3 35 39 28
3 35 28 39
3 36 52 43
3 36 43 52
3 36 68 40
3 36 40 68
3 37 7 11
3 37 11 7
3 37 32 7
3 37 7 32
3 37 32 64
3 37 64 32
3 37 49 62
3 37 62 49
3 37 49 64
3 37 64 49
3 37 92 62
3 37 62 92
3 37 92 80
3 37 80 92
3 38 47 62
3 38 62 47
3 38 62 93
3 38 93 62
3 38 73 74
3 38 74 73
3 38 74 47
3 38 47 74
3 38 75 89
3 38 89 75
3 38 79 93
3 38 93 79
3 39 30 34
3 39 34 30
3 39 30 71
3 39 71 30
3 39 35 53
3 39 53 35
3 39 71 53
3 39 53 71
3 40 52 36
3 40 36 52
3 40 72 29
3 40 29 72
3 40 72 52
3 40 52 72
3 41 97 55
3 41 55 97
3 42 72 29
3 42 29 72
3 42 72 98
3 42 98 72
3 43 36 32
3 43 32 36
3 43 77 50
3 43 50 77
3 44 51 67
3 44 67 51
3 44 53 35
3 44 35 53
3 44 53 78
3 44 78 53
3 44 78 51
3 44 51 78
3 45 65 26
3 45 26 65
3 45 73 91
3 45 91 73
3 45 89 59
3 45 59 89
3 46 23 60
3 46 60 23
3 46 74 91
3 46 91 74
3 46 90 74
3 46 74 90
3 46 91 66
3 46 66 91
3 47 76 90
3 47 90 76
3 47 80 76
3 47 76 80
3 47 80 92
3 47 92 80
3 48 56 94
3 48 94 56
3 48 69 56
3 48 56 69
3 48 87 83
3 48 83 87
3 50 49 64
3 50 64 49
3 50 58 49
3 50 49 58
3 50 64 43
3 50 43 64
3 50 85 58
3 50 58 85
3 51 49 58
3 51 58 49
3 51 58 86
3 51 86 58
3 51 86 78
3 51 78 86
3 52 72 81
3 52 81 72
3 52 77 43
3 52 43 77
3 54 48 61
3 54 61 48
3 54 70 84
3 54 84 70
3 54 94 48
3 54 48 94
3 54 95 94
3 54 94 95
3 55 41 42
3 55 42 41
3 55 42 98
3 55 98 42
3 55 58 85
3 55 85 58
3 55 77 81
3 55 81 77
3 55 78 86
3 55 86 78
3 55 82 78
3 55 78 82
3 55 97 82
3 55 82 97
3 56 0 96
3 56 96 0
3 56 94 96
3 56 96 94
3 57 96 1
3 57 1 96
3 58 55 86
3 58 86 55
3 59 22 18
3 59 18 22
3 60 46 90
3 60 90 46
3 60 76 19
3 60 19 76
3 60 76 90
3 60 90 76
3 61 34 30
3 61 30 34
3 62 49 63
3 62 63 49
3 62 92 47
3 62 47 92
3 63 67 49
3 63 49 67
3 63 79 93
3 63 93 79
3 65 91 45
3 65 45 91
3 66 27 46
3 66 46 27
3 67 49 51
3 67 51 49
3 68 36 5
3 68 5 36
3 69 48 83
3 69 83 48
3 70 57 95
3 70 95 57
3 70 95 54
3 70 54 95
3 71 82 53
3 71 53 82
3 71 97 41
3 71 41 97
3 71 97 82
3 71 82 97
3 72 98 81
3 72 81 98
3 73 89 38
3 73 38 89
3 74 47 90
3 74 90 47
3 74 73 91
3 74 91 73
3 75 38 79
3 75 79 38
3 77 85 55
3 77 55 85
3 81 77 52
3 81 52 77
3 82 53 78
3 82 78 53
3 84 17 21
3 84 21 17
3 85 77 50
3 85 50 77
3 87 33 16
3 87 16 33
3 88 84 54
3 88 54 84
3 89 45 73
3 89 73 45
3 89 75 59
3 89 59 75
3 91 65 66
3 91 66 65
3 93 62 63
3 93 63 62
3 95 94 96
3 95 96 94
3 96 57 95
3 96 95 57
3 98 55 81
3 98 81 55
