 COFF
         109        1056         109
  
  -6.4925469090692651        1.0018744232237493        5.6412975523614532       0.60000002384185791       0.60000002384185791       0.60000002384185791       0.80000001192092896     
  -6.4925469090727974       -1.0018744232263299        5.6412975523570728       0.60000002384185791       0.60000002384185791       0.60000002384185791       0.80000001192092896     
  -3.1020478354015404E-002  -2.0764302980682188        5.3170963043010282       0.60000002384185791       0.60000002384185791       0.60000002384185791       0.80000001192092896     
   7.3382665786569552      -0.92587236176431531        5.7744130510379916       0.60000002384185791       0.60000002384185791       0.60000002384185791       0.80000001192092896     
   7.3382665753666956       0.92587235925277667        5.7744130552139925       0.60000002384185791       0.60000002384185791       0.60000002384185791       0.80000001192092896     
  -3.1020478974359427E-002   2.0764302937365420        5.3170963088393499       0.60000002384185791       0.60000002384185791       0.60000002384185791       0.80000001192092896     
   1.1073109840749646       -1.7608270316803443        5.4547990691603694       0.60000002384185791       0.60000002384185791       0.60000002384185791       0.80000001192092896     
   1.1073109832859906        1.7608270627799951        5.4547990373747082       0.60000002384185791       0.60000002384185791       0.60000002384185791       0.80000001192092896     
  -1.1294147380800001        1.7443432586003325        5.4251544108758329       0.60000002384185791       0.60000002384185791       0.60000002384185791       0.80000001192092896     
  -1.1294147377543706       -1.7443432571331174        5.4251544123373190       0.60000002384185791       0.60000002384185791       0.60000002384185791       0.80000001192092896     
   2.0265947976931074       -1.4501418058419362        5.6973715764082318       0.60000002384185791       0.60000002384185791       0.60000002384185791       0.80000001192092896     
   2.0265948053778895        1.4501418512391977        5.6973715299981080       0.60000002384185791       0.60000002384185791       0.60000002384185791       0.80000001192092896     
  -2.0519978362086828        1.4544185769431492        5.6795753139642722       0.60000002384185791       0.60000002384185791       0.60000002384185791       0.80000001192092896     
  -2.0519978362501514       -1.4544185761413926        5.6795753147752670       0.60000002384185791       0.60000002384185791       0.60000002384185791       0.80000001192092896     
   3.0338698930225370       -1.5392809197980766        5.5202364123062448       0.60000002384185791       0.60000002384185791       0.60000002384185791       0.80000001192092896     
   3.0338698892427005        1.5392811418142893        5.5202361859774509       0.60000002384185791       0.60000002384185791       0.60000002384185791       0.80000001192092896     
  -3.0266716111352205        1.5254726097765916        5.4691169209878101       0.60000002384185791       0.60000002384185791       0.60000002384185791       0.80000001192092896     
  -3.0266716111197813       -1.5254726091290778        5.4691169216388431       0.60000002384185791       0.60000002384185791       0.60000002384185791       0.80000001192092896     
   4.0706336915045416       -1.4697920389210086        5.6274947343240509       0.60000002384185791       0.60000002384185791       0.60000002384185791       0.80000001192092896     
   4.0706337120202258        1.4697921156906510        5.6274946534243888       0.60000002384185791       0.60000002384185791       0.60000002384185791       0.80000001192092896     
  -4.0487965784184290        1.4558379310610006        5.5920072254664417       0.60000002384185791       0.60000002384185791       0.60000002384185791       0.80000001192092896     
  -4.0487965788437190       -1.4558379311464544        5.5920072260467348       0.60000002384185791       0.60000002384185791       0.60000002384185791       0.80000001192092896     
   5.0556062637448766       -1.2636377345564520        5.6698137718575063       0.60000002384185791       0.60000002384185791       0.60000002384185791       0.80000001192092896     
   5.0556062593723672        1.2636376827273528        5.6698138252434935       0.60000002384185791       0.60000002384185791       0.60000002384185791       0.80000001192092896     
  -5.0400593579300352        1.2653366627376410        5.6060092989030412       0.60000002384185791       0.60000002384185791       0.60000002384185791       0.80000001192092896     
  -5.0400593579441653       -1.2653366627567466        5.6060092988817436       0.60000002384185791       0.60000002384185791       0.60000002384185791       0.80000001192092896     
   6.0484320923808417       -1.1215925816475361        5.7221407687840200       0.60000002384185791       0.60000002384185791       0.60000002384185791       0.80000001192092896     
   6.0484320879281093        1.1215925624409147        5.7221407887039275       0.60000002384185791       0.60000002384185791       0.60000002384185791       0.80000001192092896     
  -6.5334278993418611       -1.2213157987957031E-012   5.6413194272426246       0.60000002384185791       0.60000002384185791       0.60000002384185791       0.80000001192092896     
  -1.7685009816849602       0.83811800025002847        3.3521619997810537       0.60000002384185791       0.60000002384185791       0.60000002384185791       0.80000001192092896     
  -1.7685001370326694      -0.83811875332106112        3.3521602786666582       0.60000002384185791       0.60000002384185791       0.60000002384185791       0.80000001192092896     
  0.89731784846071316       -1.7040599411154675        4.1819228913432536       0.60000002384185791       0.60000002384185791       0.60000002384185791       0.80000001192092896     
  0.89731935456956258        1.7040591583684424        4.1819222817688759       0.60000002384185791       0.60000002384185791       0.60000002384185791       0.80000001192092896     
  -2.1076626366141649        1.4045931485116494        4.5217709611697634       0.60000002384185791       0.60000002384185791       0.60000002384185791       0.80000001192092896     
  -2.1076624040867493       -1.4045932173424454        4.5217703812803212       0.60000002384185791       0.60000002384185791       0.60000002384185791       0.80000001192092896     
   4.5428836355967867E-002  -1.8083116969893560        4.0403981291334237       0.60000002384185791       0.60000002384185791       0.60000002384185791       0.80000001192092896     
   4.5551935898179387E-002   1.8083607674435429        4.0403979398185008       0.60000002384185791       0.60000002384185791       0.60000002384185791       0.80000001192092896     
   2.0706709618224721        1.3972662433781684        4.6692317991863987       0.60000002384185791       0.60000002384185791       0.60000002384185791       0.80000001192092896     
   3.5200628101890632      -0.61926994243512368        2.7262692079133850        1.0000000000000000        1.0000000000000000        0.0000000000000000        1.0000000000000000     
 -0.73904604310901723       -1.6764685524712184        3.5310249019029922       0.60000002384185791       0.60000002384185791       0.60000002384185791       0.80000001192092896     
 -0.73904676248358303        1.6764672992956491        3.5310240359275800       0.60000002384185791       0.60000002384185791       0.60000002384185791       0.80000001192092896     
  -1.4100733797709999      -0.91026698398492178        2.0319765509162901       0.60000002384185791       0.60000002384185791       0.60000002384185791       0.80000001192092896     
  -1.4100902829186341       0.91026625004528461        2.0319862524340286       0.60000002384185791       0.60000002384185791       0.60000002384185791       0.80000001192092896     
  0.80935680344573635        1.6765768432071566        3.1762838561420437       0.60000002384185791       0.60000002384185791       0.60000002384185791       0.80000001192092896     
  0.80932105120868281       -1.6765388894136122        3.1762803489344162       0.60000002384185791       0.60000002384185791       0.60000002384185791       0.80000001192092896     
   5.5080264652277133       -1.1644189785814729        4.7914913571600728       0.60000002384185791       0.60000002384185791       0.60000002384185791       0.80000001192092896     
   5.5080270460032965        1.1644183541127728        4.7914925436835327       0.60000002384185791       0.60000002384185791       0.60000002384185791       0.80000001192092896     
   3.5200625360337732       0.61926839664831057        2.7262692079133850        1.0000000000000000        1.0000000000000000        0.0000000000000000        1.0000000000000000     
  -3.4854443888243667       0.65938488467629053        2.9816402194175646        1.0000000000000000        1.0000000000000000        0.0000000000000000        1.0000000000000000     
   1.7848472174833976       -6.7026893108322918E-006   3.6399888912127061       0.60000002384185791       0.60000002384185791       0.60000002384185791       0.80000001192092896     
   1.2092505598619077        1.2383785307892052        2.8973143012060945       0.60000002384185791       0.60000002384185791       0.60000002384185791       0.80000001192092896     
   1.2092511870832825       -1.2383812397446858        2.8973120889164337       0.60000002384185791       0.60000002384185791       0.60000002384185791       0.80000001192092896     
  0.14639344446570099        1.7107603465733867        2.9992840040780600       0.60000002384185791       0.60000002384185791       0.60000002384185791       0.80000001192092896     
  0.14639504084004884       -1.7107607270307215        2.9992842224044498       0.60000002384185791       0.60000002384185791       0.60000002384185791       0.80000001192092896     
  -3.4854443854878183      -0.65938490258961568        2.9816402194175642        1.0000000000000000        1.0000000000000000        0.0000000000000000        1.0000000000000000     
   8.5667628355834288E-002  -2.6046639777220617E-007   1.0306063639638421        1.0000000000000000        1.0000000000000000        0.0000000000000000        1.0000000000000000     
  -5.1702767303659396        1.1518690359821027        4.6112483871034389       0.60000002384185791       0.60000002384185791       0.60000002384185791       0.80000001192092896     
  -5.1702767281090241       -1.1518690359561121        4.6112483862176408       0.60000002384185791       0.60000002384185791       0.60000002384185791       0.80000001192092896     
   1.4256961893960243       -6.5666524453810847E-006   2.6357442004029181       0.60000002384185791       0.60000002384185791       0.60000002384185791       0.80000001192092896     
   4.5476306699894842       -1.3699602440502796        4.9758119269646786       0.60000002384185791       0.60000002384185791       0.60000002384185791       0.80000001192092896     
   4.5476421910229181        1.3699338991800949        4.9758054187012117       0.60000002384185791       0.60000002384185791       0.60000002384185791       0.80000001192092896     
  -2.1079065572872842       -7.8970424162623736E-007   3.9772644694494108       0.60000002384185791       0.60000002384185791       0.60000002384185791       0.80000001192092896     
   2.0708854195220097       -6.9751359854469292E-006   4.0849010928415668       0.60000002384185791       0.60000002384185791       0.60000002384185791       0.80000001192092896     
   2.0706715758619838       -1.3972650667745212        4.6692255168596262       0.60000002384185791       0.60000002384185791       0.60000002384185791       0.80000001192092896     
   1.3157355031708149        1.5517051123131611        3.8937679985089200       0.60000002384185791       0.60000002384185791       0.60000002384185791       0.80000001192092896     
   6.5942068471967898      -0.98352903748000231        5.2027097380578793       0.60000002384185791       0.60000002384185791       0.60000002384185791       0.80000001192092896     
   6.5942068024132388       0.98352895876055191        5.2027097098003496       0.60000002384185791       0.60000002384185791       0.60000002384185791       0.80000001192092896     
   1.3157412998667739       -1.5517049398038194        3.8937722329902336       0.60000002384185791       0.60000002384185791       0.60000002384185791       0.80000001192092896     
 -0.96409756342680497        1.7150452647891175        4.4582063427953065       0.60000002384185791       0.60000002384185791       0.60000002384185791       0.80000001192092896     
  -4.4990147871196537        1.3461471709820745        4.9424065623000244       0.60000002384185791       0.60000002384185791       0.60000002384185791       0.80000001192092896     
  -4.4990147841722070       -1.3461471704710217        4.9424065601019080       0.60000002384185791       0.60000002384185791       0.60000002384185791       0.80000001192092896     
 -0.54227560206387548       -1.5198000605074726        2.7162030839908318       0.60000002384185791       0.60000002384185791       0.60000002384185791       0.80000001192092896     
 -0.54227773829667625        1.5197963964376373        2.7161965640377908       0.60000002384185791       0.60000002384185791       0.60000002384185791       0.80000001192092896     
   5.1503778196141088      -0.82609198680044038        3.6804423717285673       0.60000002384185791       0.60000002384185791       0.60000002384185791       0.80000001192092896     
   5.1503772280698223       0.82609012174381524        3.6804407344894852       0.60000002384185791       0.60000002384185791       0.60000002384185791       0.80000001192092896     
   4.0149718952686113       -1.3976378836700623        4.4945783961432797       0.60000002384185791       0.60000002384185791       0.60000002384185791       0.80000001192092896     
   4.0149741203096720        1.3976345842672500        4.4945802767270582       0.60000002384185791       0.60000002384185791       0.60000002384185791       0.80000001192092896     
  0.76586469420400916        1.4451227087345941        2.2230506346675276       0.60000002384185791       0.60000002384185791       0.60000002384185791       0.80000001192092896     
  0.76586847805761749       -1.4451234524177365        2.2230523422994737       0.60000002384185791       0.60000002384185791       0.60000002384185791       0.80000001192092896     
   3.1419186496564229       -1.4120138067037025        4.2779203954741867       0.60000002384185791       0.60000002384185791       0.60000002384185791       0.80000001192092896     
   3.1419087202389626        1.4120148190116539        4.2779001085802753       0.60000002384185791       0.60000002384185791       0.60000002384185791       0.80000001192092896     
  0.10280859304045821        1.4461011422899439        2.0684977896789056       0.60000002384185791       0.60000002384185791       0.60000002384185791       0.80000001192092896     
  0.10280742880906835       -1.4461027639301891        2.0684985370361315       0.60000002384185791       0.60000002384185791       0.60000002384185791       0.80000001192092896     
  -3.9433002945267863        1.3716918786311565        4.5776414522193347       0.60000002384185791       0.60000002384185791       0.60000002384185791       0.80000001192092896     
  -3.9433002926143428       -1.3716918783840504        4.5776414517491872       0.60000002384185791       0.60000002384185791       0.60000002384185791       0.80000001192092896     
   1.0837565760861134       0.93758224829177306        2.0170397445834891       0.60000002384185791       0.60000002384185791       0.60000002384185791       0.80000001192092896     
   1.0837366382879448      -0.93759059259173905        2.0170318891782415       0.60000002384185791       0.60000002384185791       0.60000002384185791       0.80000001192092896     
  -3.2156588810490656        1.3725519546700391        4.3021825173815467       0.60000002384185791       0.60000002384185791       0.60000002384185791       0.80000001192092896     
  -3.2156587444983793       -1.3725519767867724        4.3021825735660251       0.60000002384185791       0.60000002384185791       0.60000002384185791       0.80000001192092896     
   4.3660800964319861       -1.2731408766309846        4.0160879980546076       0.60000002384185791       0.60000002384185791       0.60000002384185791       0.80000001192092896     
   4.3660800925559915        1.2731374309963754        4.0160898242317984       0.60000002384185791       0.60000002384185791       0.60000002384185791       0.80000001192092896     
   5.9050435595679502       -6.9998045407331574E-008   4.4965274435553475       0.60000002384185791       0.60000002384185791       0.60000002384185791       0.80000001192092896     
   2.5157153204829039        1.0356423355060715        3.8039712618478307       0.60000002384185791       0.60000002384185791       0.60000002384185791       0.80000001192092896     
   2.5157172728888799       -1.0356466781315947        3.8039375372670845       0.60000002384185791       0.60000002384185791       0.60000002384185791       0.80000001192092896     
  -4.8422231394963289       0.84544759717424389        3.7223438563835440       0.60000002384185791       0.60000002384185791       0.60000002384185791       0.80000001192092896     
  -4.8422231352911433      -0.84544759973649852        3.7223438608974448       0.60000002384185791       0.60000002384185791       0.60000002384185791       0.80000001192092896     
  -5.5896832079325911        8.4191399367190988E-011   4.5335712867479199       0.60000002384185791       0.60000002384185791       0.60000002384185791       0.80000001192092896     
 -0.30063439764718997       -1.1479084217166295        1.7733440910655729       0.60000002384185791       0.60000002384185791       0.60000002384185791       0.80000001192092896     
 -0.30065031815705917        1.1479152560266725        1.7733347530804580       0.60000002384185791       0.60000002384185791       0.60000002384185791       0.80000001192092896     
  -4.2029010085397429        1.1374307669348034        3.9558167859914928       0.60000002384185791       0.60000002384185791       0.60000002384185791       0.80000001192092896     
  -4.2029010021687858       -1.1374307696272208        3.9558167900934142       0.60000002384185791       0.60000002384185791       0.60000002384185791       0.80000001192092896     
   1.0480127264810160       -5.7024658719152619E-006   1.8264036515976507       0.60000002384185791       0.60000002384185791       0.60000002384185791       0.80000001192092896     
  -2.6963089577309240        1.0341604889342779        3.7780131014400697       0.60000002384185791       0.60000002384185791       0.60000002384185791       0.80000001192092896     
  -2.6963092144442071       -1.0341613422356484        3.7780127483027424       0.60000002384185791       0.60000002384185791       0.60000002384185791       0.80000001192092896     
   2.6581370100420081      -0.30347155514708918        3.3521963473942056       0.60000002384185791       0.60000002384185791       0.60000002384185791       0.80000001192092896     
   2.6581350733110907       0.30346787277305087        3.3521963473942065       0.60000002384185791       0.60000002384185791       0.60000002384185791       0.80000001192092896     
 -0.72671314771699447      -0.45293753894345884        1.5190563817508760       0.60000002384185791       0.60000002384185791       0.60000002384185791       0.80000001192092896     
 -0.72672272742312916       0.45293610290235709        1.5190606173604624       0.60000002384185791       0.60000002384185791       0.60000002384185791       0.80000001192092896     
 -0.96409728237778392       -1.7150453792427884        4.4582063249573096       0.60000002384185791       0.60000002384185791       0.60000002384185791       0.80000001192092896     
  
   3   0  24  56
   3   0  56  24
   3   0  56  96
   3   0  96  28
   3   0  96  56
   3   0  28  96
   3   1  28  96
   3   1  96  57
   3   1  96  28
   3   1  57  96
   3   1  57  25
   3   1  25  57
   3   2  35 108
   3   2  35  31
   3   2  31  35
   3   2  31   6
   3   2   6  31
   3   2   9 108
   3   2 108  35
   3   2 108   9
   3   3  26  65
   3   3  65  26
   4   3  65  66   4
   3   4  66  27
   4   4  66  65   3
   3   4  27  66
   3   5   7  32
   3   5  32  36
   3   5  32   7
   3   5  36  32
   3   5  36  68
   3   5  68  36
   3   5  68   8
   3   5   8  68
   3   6   2  31
   3   6  31   2
   3   6  31  63
   3   6  63  10
   3   6  63  31
   3   6  10  63
   3   7  11  37
   3   7  37  32
   3   7  37  11
   3   7  32  37
   3   7  32   5
   3   7   5  32
   3   8   5  68
   3   8  68   5
   3   8  68  33
   3   8  33  12
   3   8  33  68
   3   8  12  33
   3   9  13  34
   3   9  34 108
   3   9  34  13
   3   9 108  34
   3   9 108   2
   3   9   2 108
   3  10   6  63
   3  10  63  14
   3  10  63   6
   3  10  14  63
   3  11  15  37
   3  11  37   7
   3  11  37  15
   3  11   7  37
   3  12   8  33
   3  12  33  16
   3  12  33   8
   3  12  16  33
   3  13  17  34
   3  13  34   9
   3  13  34  17
   3  13   9  34
   3  14  10  63
   3  14  63  79
   3  14  63  10
   3  14  79  63
   3  14  79  75
   3  14  75  79
   3  14  75  18
   3  14  18  75
   3  15  19  76
   3  15  76  80
   3  15  76  19
   3  15  80  76
   3  15  80  37
   3  15  37  11
   3  15  37  80
   3  15  11  37
   3  16  12  33
   3  16  33  87
   3  16  33  12
   3  16  87  33
   3  16  87  83
   3  16  83  87
   3  16  83  20
   3  16  20  83
   3  17  21  84
   3  17  84  88
   3  17  84  21
   3  17  88  84
   3  17  88  34
   3  17  34  13
   3  17  34  88
   3  17  13  34
   3  18  14  75
   3  18  75  14
   3  18  75  59
   3  18  59  75
   3  18  59  22
   3  18  22  59
   3  19  23  60
   3  19  60  76
   3  19  60  23
   3  19  76  60
   3  19  76  15
   3  19  15  76
   3  20  16  83
   3  20  83  16
   3  20  83  69
   3  20  69  83
   3  20  69  24
   3  20  24  69
   3  21  25  70
   3  21  70  84
   3  21  70  25
   3  21  84  70
   3  21  84  17
   3  21  17  84
   3  22  18  59
   3  22  59  18
   3  22  59  45
   3  22  45  26
   3  22  45  59
   3  22  26  45
   3  23  27  46
   3  23  46  60
   3  23  46  27
   3  23  60  46
   3  23  60  19
   3  23  19  60
   3  24  20  69
   3  24  69  20
   3  24  69  56
   3  24  56   0
   3  24  56  69
   3  24   0  56
   3  25   1  57
   3  25  57   1
   3  25  57  70
   3  25  70  57
   3  25  70  21
   3  25  21  70
   3  26  22  45
   3  26  45  65
   3  26  45  22
   3  26  65   3
   3  26  65  45
   3  26   3  65
   3  27   4  66
   3  27  66   4
   3  27  66  46
   3  27  46  66
   3  27  46  23
   3  27  23  46
   3  28   0  96
   3  28  96   1
   3  28  96   0
   3  28   1  96
   3  29  33  40
   3  29  33  61
   3  29  40  33
   3  29  40  72
   3  29  72  42
   3  29  72  40
   3  29  42  72
   4  29  42  41  30
   3  29  30  61
   4  29  30  41  42
   3  29  61  30
   3  29  61  33
   3  30  34  61
   3  30  34  39
   3  30  61  29
   3  30  61  34
   3  30  29  61
   4  30  29  42  41
   3  30  41  71
   4  30  41  42  29
   3  30  71  41
   3  30  71  39
   3  30  39  34
   3  30  39  71
   3  31   2  35
   3  31   2   6
   3  31  35  44
   3  31  35   2
   3  31  44  67
   3  31  44  35
   3  31  67  63
   3  31  67  44
   3  31  63   6
   3  31  63  67
   3  31   6   2
   3  31   6  63
   3  32  37  64
   3  32  37   7
   3  32  64  37
   3  32  64  43
   3  32  43  36
   3  32  43  64
   3  32  36  43
   3  32  36   5
   3  32   5   7
   3  32   5  36
   3  32   7  37
   3  32   7   5
   3  33 102  61
   3  33 102  87
   3  33  87 102
   3  33  87  16
   3  33  16  12
   3  33  16  87
   3  33  12   8
   3  33  12  16
   3  33   8  68
   3  33   8  12
   3  33  68  40
   3  33  68   8
   3  33  40  29
   3  33  40  68
   3  33  29  40
   3  33  29  61
   3  33  61  29
   3  33  61 102
   3  34 103  88
   3  34 103  61
   3  34  61  30
   3  34  61 103
   3  34  30  61
   3  34  30  39
   3  34  39 108
   3  34  39  30
   3  34 108  39
   3  34 108   9
   3  34   9  13
   3  34   9 108
   3  34  13  17
   3  34  13   9
   3  34  17  88
   3  34  17  13
   3  34  88 103
   3  34  88  17
   3  35 108  39
   3  35 108   2
   3  35  39 108
   3  35  39  53
   3  35  53  44
   3  35  53  39
   3  35  44  31
   3  35  44  53
   3  35  31   2
   3  35  31  44
   3  35   2  31
   3  35   2 108
   3  36  32  43
   3  36  32   5
   3  36  43  32
   3  36  43  52
   3  36  52  40
   3  36  52  43
   3  36  40  68
   3  36  40  52
   3  36  68   5
   3  36  68  40
   3  36   5  32
   3  36   5  68
   3  37  92  80
   3  37  92  62
   3  37  62  49
   3  37  62  92
   3  37  49  62
   3  37  49  64
   3  37  64  49
   3  37  64  32
   3  37  32  64
   3  37  32   7
   3  37   7  11
   3  37   7  32
   3  37  11  15
   3  37  11   7
   3  37  15  80
   3  37  15  11
   3  37  80  92
   3  37  80  15
   3  38  73  89
   4  38  73  74  47
   3  38  89  73
   3  38  89  75
   3  38  75  79
   3  38  75  89
   3  38  79  93
   3  38  79  75
   3  38  93  79
   4  38  93  62 104
   3  39  35 108
   3  39  35  53
   3  39 108  34
   3  39 108  35
   3  39  34  30
   3  39  34 108
   3  39  30  34
   3  39  30  71
   3  39  71  30
   3  39  71  53
   3  39  53  35
   3  39  53  71
   3  40  29  33
   3  40  29  72
   3  40  33  68
   3  40  33  29
   3  40  68  36
   3  40  68  33
   3  40  36  52
   3  40  36  68
   3  40  52  36
   3  40  52  72
   3  40  72  52
   3  40  72  29
   3  41  97  71
   4  41  97  55 106
   3  41  71  30
   3  41  71  97
   3  41  30  71
   4  41  30  29  42
   3  42  29  72
   4  42  29  30  41
   3  42  72  98
   3  42  72  29
   3  42  98  72
   4  42  98  55 107
   3  43  36  32
   3  43  36  52
   3  43  32  64
   3  43  32  36
   3  43  64  50
   3  43  64  32
   3  43  50  64
   3  43  50  77
   3  43  77  50
   3  43  77  52
   3  43  52  36
   3  43  52  77
   3  44  67  51
   3  44  67  31
   3  44  31  35
   3  44  31  67
   3  44  35  53
   3  44  35  31
   3  44  53  35
   3  44  53  78
   3  44  78  53
   3  44  78  51
   3  44  51  67
   3  44  51  78
   3  45  65  26
   3  45  65  91
   3  45  26  22
   3  45  26  65
   3  45  22  59
   3  45  22  26
   3  45  59  89
   3  45  59  22
   3  45  89  73
   3  45  89  59
   3  45  73  91
   3  45  73  89
   3  45  91  73
   3  45  91  65
   3  46  66  91
   3  46  66  27
   3  46  91  74
   3  46  91  66
   3  46  74  91
   3  46  74  90
   3  46  90  60
   3  46  90  74
   3  46  60  90
   3  46  60  23
   3  46  23  27
   3  46  23  60
   3  46  27  66
   3  46  27  23
   3  47  74  90
   4  47  74  73  38
   3  47  92  80
   4  47  92  62 105
   3  47  80  76
   3  47  80  92
   3  47  76  90
   3  47  76  80
   3  47  90  76
   3  47  90  74
   3  48  94  99
   4  48  94  95  54
   3  48  99  94
   3  48  99  83
   3  48  83  87
   3  48  83  99
   3  48  87 102
   3  48  87  83
   3  48 102  61
   3  48 102  87
   3  48  61  54
   3  48  61 102
   3  48  54  61
   4  48  54  95  94
   3  49  37  62
   3  49  37  64
   3  49  62  37
   3  49  62  63
   3  49  63  67
   3  49  63  62
   3  49  67  51
   3  49  67  63
   3  49  51  67
   3  49  51  58
   3  49  58  51
   3  49  58  50
   3  49  50  64
   3  49  50  58
   3  49  64  37
   3  49  64  50
   3  50  43  64
   3  50  43  77
   3  50  64  49
   3  50  64  43
   3  50  49  58
   3  50  49  64
   3  50  58  85
   3  50  58  49
   3  50  85  58
   3  50  85  77
   3  50  77  85
   3  50  77  43
   3  51  49  67
   3  51  49  58
   3  51  67  49
   3  51  67  44
   3  51  44  67
   3  51  44  78
   3  51  78  86
   3  51  78  44
   3  51  86  78
   3  51  86  58
   3  51  58  86
   3  51  58  49
   3  52  40  36
   3  52  40  72
   3  52  36  43
   3  52  36  40
   3  52  43  36
   3  52  43  77
   3  52  77  81
   3  52  77  43
   3  52  81  77
   3  52  81  72
   3  52  72  81
   3  52  72  40
   3  53  44  35
   3  53  44  78
   3  53  35  39
   3  53  35  44
   3  53  39  35
   3  53  39  71
   3  53  71  82
   3  53  71  39
   3  53  82  71
   3  53  82  78
   3  53  78  82
   3  53  78  44
   3  54  95 100
   4  54  95  94  48
   3  54  48  61
   4  54  48  94  95
   3  54  61 103
   3  54  61  48
   3  54 103  88
   3  54 103  61
   3  54  88  84
   3  54  88 103
   3  54  84 100
   3  54  84  88
   3  54 100  84
   3  54 100  95
   3  55  81  77
   3  55  81  98
   3  55  77  85
   3  55  77  81
   3  55  85 101
   3  55  85  77
   3  55 101  85
   3  55 101  86
   3  55  86  78
   3  55  86 101
   3  55  78  82
   3  55  78  86
   3  55  82  97
   3  55  82  78
   3  55  97  82
   4  55  97  41 106
   3  55 106 107
   4  55 106  41  97
   3  55 107 106
   4  55 107  42  98
   3  55  98  81
   4  55  98  42 107
   3  56   0  24
   3  56   0  96
   3  56  24  69
   3  56  24   0
   3  56  69  99
   3  56  69  24
   3  56  99  94
   3  56  99  69
   3  56  94  96
   3  56  94  99
   3  56  96  94
   3  56  96   0
   3  57   1  96
   3  57   1  25
   3  57  96  95
   3  57  96   1
   3  57  95 100
   3  57  95  96
   3  57 100  70
   3  57 100  95
   3  57  70 100
   3  57  70  25
   3  57  25   1
   3  57  25  70
   3  58  51  49
   3  58  51  86
   3  58  86 101
   3  58  86  51
   3  58 101  85
   3  58 101  86
   3  58  85 101
   3  58  85  50
   3  58  50  49
   3  58  50  85
   3  58  49  51
   3  58  49  50
   3  59  18  75
   3  59  18  22
   3  59  75  89
   3  59  75  18
   3  59  89  45
   3  59  89  75
   3  59  45  22
   3  59  45  89
   3  59  22  18
   3  59  22  45
   3  60  46  90
   3  60  46  23
   3  60  90  76
   3  60  90  46
   3  60  76  90
   3  60  76  19
   3  60  19  23
   3  60  19  76
   3  60  23  46
   3  60  23  19
   3  61  29  33
   3  61  29  30
   3  61  30  34
   3  61  30  29
   3  61  34 103
   3  61  34  30
   3  61 103  54
   3  61 103  34
   3  61  54  48
   3  61  54 103
   3  61  48 102
   3  61  48  54
   3  61 102  48
   3  61 102  33
   3  61  33 102
   3  61  33  29
   3  62  49  37
   3  62  49  63
   3  62  37  92
   3  62  37  49
   3  62  92  37
   4  62  92  47 105
   3  62 105 104
   4  62 105  47  92
   3  62 104 105
   4  62 104  38  93
   3  62  93  63
   4  62  93  38 104
   3  62  63  93
   3  62  63  49
   3  63  93  79
   3  63  93  62
   3  63  79  93
   3  63  79  14
   3  63  14  10
   3  63  14  79
   3  63  10   6
   3  63  10  14
   3  63   6  31
   3  63   6  10
   3  63  31  67
   3  63  31   6
   3  63  67  49
   3  63  67  31
   3  63  49  62
   3  63  49  67
   3  63  62  49
   3  63  62  93
   3  64  37  49
   3  64  37  32
   3  64  49  37
   3  64  49  50
   3  64  50  43
   3  64  50  49
   3  64  43  32
   3  64  43  50
   3  64  32  37
   3  64  32  43
   3  65   3  26
   4  65   3   4  66
   3  65  26  45
   3  65  26   3
   3  65  45  26
   3  65  45  91
   3  65  91  66
   3  65  91  45
   3  65  66  91
   4  65  66   4   3
   3  66   4  27
   4  66   4   3  65
   3  66  65  91
   4  66  65   3   4
   3  66  91  46
   3  66  91  65
   3  66  46  91
   3  66  46  27
   3  66  27   4
   3  66  27  46
   3  67  51  49
   3  67  51  44
   3  67  49  63
   3  67  49  51
   3  67  63  31
   3  67  63  49
   3  67  31  44
   3  67  31  63
   3  67  44  31
   3  67  44  51
   3  68   5  36
   3  68   5   8
   3  68  36  40
   3  68  36   5
   3  68  40  33
   3  68  40  36
   3  68  33   8
   3  68  33  40
   3  68   8   5
   3  68   8  33
   3  69  20  83
   3  69  20  24
   3  69  83  99
   3  69  83  20
   3  69  99  56
   3  69  99  83
   3  69  56  24
   3  69  56  99
   3  69  24  20
   3  69  24  56
   3  70  57 100
   3  70  57  25
   3  70 100  84
   3  70 100  57
   3  70  84 100
   3  70  84  21
   3  70  21  25
   3  70  21  84
   3  70  25  57
   3  70  25  21
   3  71  30  41
   3  71  30  39
   3  71  41  97
   3  71  41  30
   3  71  97  82
   3  71  97  41
   3  71  82  97
   3  71  82  53
   3  71  53  39
   3  71  53  82
   3  71  39  30
   3  71  39  53
   3  72  52  40
   3  72  52  81
   3  72  81  98
   3  72  81  52
   3  72  98  42
   3  72  98  81
   3  72  42  29
   3  72  42  98
   3  72  29  40
   3  72  29  42
   3  72  40  29
   3  72  40  52
   3  73  38  89
   4  73  38  47  74
   3  73  74  91
   4  73  74  47  38
   3  73  91  74
   3  73  91  45
   3  73  45  89
   3  73  45  91
   3  73  89  45
   3  73  89  38
   3  74  46  91
   3  74  46  90
   3  74  91  73
   3  74  91  46
   3  74  73  91
   4  74  73  38  47
   3  74  47  90
   4  74  47  38  73
   3  74  90  46
   3  74  90  47
   3  75  14  79
   3  75  14  18
   3  75  79  38
   3  75  79  14
   3  75  38  89
   3  75  38  79
   3  75  89  59
   3  75  89  38
   3  75  59  18
   3  75  59  89
   3  75  18  14
   3  75  18  59
   3  76  60  90
   3  76  60  19
   3  76  90  60
   3  76  90  47
   3  76  47  80
   3  76  47  90
   3  76  80  47
   3  76  80  15
   3  76  15  19
   3  76  15  80
   3  76  19  60
   3  76  19  15
   3  77  50  43
   3  77  50  85
   3  77  85  55
   3  77  85  50
   3  77  55  81
   3  77  55  85
   3  77  81  55
   3  77  81  52
   3  77  52  43
   3  77  52  81
   3  77  43  50
   3  77  43  52
   3  78  53  44
   3  78  53  82
   3  78  82  55
   3  78  82  53
   3  78  55  86
   3  78  55  82
   3  78  86  55
   3  78  86  51
   3  78  51  44
   3  78  51  86
   3  78  44  53
   3  78  44  51
   3  79  63  93
   3  79  63  14
   3  79  93  63
   3  79  93  38
   3  79  38  75
   3  79  38  93
   3  79  75  14
   3  79  75  38
   3  79  14  63
   3  79  14  75
   3  80  76  47
   3  80  76  15
   3  80  47  92
   3  80  47  76
   3  80  92  47
   3  80  92  37
   3  80  37  92
   3  80  37  15
   3  80  15  76
   3  80  15  37
   3  81  77  55
   3  81  77  52
   3  81  55  77
   3  81  55  98
   3  81  98  72
   3  81  98  55
   3  81  72  52
   3  81  72  98
   3  81  52  77
   3  81  52  72
   3  82  71  97
   3  82  71  53
   3  82  97  71
   3  82  97  55
   3  82  55  78
   3  82  55  97
   3  82  78  53
   3  82  78  55
   3  82  53  71
   3  82  53  78
   3  83  16  87
   3  83  16  20
   3  83  87  48
   3  83  87  16
   3  83  48  99
   3  83  48  87
   3  83  99  69
   3  83  99  48
   3  83  69  20
   3  83  69  99
   3  83  20  16
   3  83  20  69
   3  84  70 100
   3  84  70  21
   3  84 100  70
   3  84 100  54
   3  84  54  88
   3  84  54 100
   3  84  88  54
   3  84  88  17
   3  84  17  21
   3  84  17  88
   3  84  21  70
   3  84  21  17
   3  85  58 101
   3  85  58  50
   3  85 101  58
   3  85 101  55
   3  85  55  77
   3  85  55 101
   3  85  77  50
   3  85  77  55
   3  85  50  58
   3  85  50  77
   3  86  78  55
   3  86  78  51
   3  86  55 101
   3  86  55  78
   3  86 101  58
   3  86 101  55
   3  86  58  51
   3  86  58 101
   3  86  51  78
   3  86  51  58
   3  87  33 102
   3  87  33  16
   3  87 102  48
   3  87 102  33
   3  87  48  83
   3  87  48 102
   3  87  83  16
   3  87  83  48
   3  87  16  33
   3  87  16  83
   3  88  84  54
   3  88  84  17
   3  88  54 103
   3  88  54  84
   3  88 103  54
   3  88 103  34
   3  88  34 103
   3  88  34  17
   3  88  17  84
   3  88  17  34
   3  89  73  38
   3  89  73  45
   3  89  45  59
   3  89  45  73
   3  89  59  75
   3  89  59  45
   3  89  75  38
   3  89  75  59
   3  89  38  73
   3  89  38  75
   3  90  76  60
   3  90  76  47
   3  90  60  46
   3  90  60  76
   3  90  46  74
   3  90  46  60
   3  90  74  46
   3  90  74  47
   3  90  47  74
   3  90  47  76
   3  91  73  74
   3  91  73  45
   3  91  74  46
   3  91  74  73
   3  91  46  66
   3  91  46  74
   3  91  66  65
   3  91  66  46
   3  91  65  45
   3  91  65  66
   3  91  45  65
   3  91  45  73
   3  92  80  47
   3  92  80  37
   3  92  47  80
   4  92  47 105  62
   3  92  62  37
   4  92  62 105  47
   3  92  37  62
   3  92  37  80
   3  93  79  63
   3  93  79  38
   3  93  63  79
   3  93  63  62
   3  93  62  63
   4  93  62 104  38
   3  93  38  79
   4  93  38 104  62
   3  94  48  99
   4  94  48  54  95
   3  94  95  96
   4  94  95  54  48
   3  94  96  95
   3  94  96  56
   3  94  56  99
   3  94  56  96
   3  94  99  56
   3  94  99  48
   3  95  54 100
   4  95  54  48  94
   3  95 100  57
   3  95 100  54
   3  95  57  96
   3  95  57 100
   3  95  96  94
   3  95  96  57
   3  95  94  96
   4  95  94  48  54
   3  96  94  95
   3  96  94  56
   3  96  95  57
   3  96  95  94
   3  96  57   1
   3  96  57  95
   3  96   1  28
   3  96   1  57
   3  96  28   0
   3  96  28   1
   3  96   0  56
   3  96   0  28
   3  96  56   0
   3  96  56  94
   3  97  82  71
   3  97  82  55
   3  97  71  41
   3  97  71  82
   3  97  41  71
   4  97  41 106  55
   3  97  55  82
   4  97  55 106  41
   3  98  42  72
   4  98  42 107  55
   3  98  72  81
   3  98  72  42
   3  98  81  55
   3  98  81  72
   3  98  55  81
   4  98  55 107  42
   3  99  94  48
   3  99  94  56
   3  99  56  69
   3  99  56  94
   3  99  69  83
   3  99  69  56
   3  99  83  48
   3  99  83  69
   3  99  48  94
   3  99  48  83
   3 100  84  70
   3 100  84  54
   3 100  70  57
   3 100  70  84
   3 100  57  95
   3 100  57  70
   3 100  95  54
   3 100  95  57
   3 100  54  95
   3 100  54  84
   3 101  85  58
   3 101  85  55
   3 101  58  86
   3 101  58  85
   3 101  86  55
   3 101  86  58
   3 101  55  85
   3 101  55  86
   3 102  61  48
   3 102  61  33
   3 102  48  87
   3 102  48  61
   3 102  87  33
   3 102  87  48
   3 102  33  87
   3 102  33  61
   3 103  88  54
   3 103  88  34
   3 103  54  61
   3 103  54  88
   3 103  61  34
   3 103  61  54
   3 103  34  61
   3 103  34  88
   3 104  62 105
   4 104  62  93  38
   3 104 105  62
   4 104 105  47  38
   3 105 104  62
   4 105 104  38  47
   3 105  62 104
   4 105  62  92  47
   3 106 107  55
   4 106 107  42  41
   3 106  55 107
   4 106  55  97  41
   3 107  55 106
   4 107  55  98  42
   3 107 106  55
   4 107 106  41  42
   3 108  34  39
   3 108  34   9
   3 108  39  35
   3 108  39  34
   3 108  35  39
   3 108  35   2
   3 108   2  35
   3 108   2   9
   3 108   9  34
   3 108   9   2
