# Generated by dad_to_polygons. Vertex data from Humppa's .off file,
# polygons parsed from .dad file.
COFF
109 374 109
-6.492547 1.001874 5.641298 0.500000 0.500000 0.500000 1.0
-6.492547 -1.001874 5.641298 0.500000 0.500000 0.500000 1.0
-0.031020 -2.076430 5.317096 0.500000 0.500000 0.500000 1.0
7.338267 -0.925872 5.774413 0.500000 0.500000 0.500000 1.0
7.338267 0.925872 5.774413 0.500000 0.500000 0.500000 1.0
-0.031020 2.076430 5.317096 0.500000 0.500000 0.500000 1.0
1.107311 -1.760827 5.454799 0.500000 0.500000 0.500000 1.0
1.107311 1.760827 5.454799 0.500000 0.500000 0.500000 1.0
-1.129415 1.744343 5.425154 0.500000 0.500000 0.500000 1.0
-1.129415 -1.744343 5.425154 0.500000 0.500000 0.500000 1.0
2.026595 -1.450142 5.697372 0.500000 0.500000 0.500000 1.0
2.026595 1.450142 5.697372 0.500000 0.500000 0.500000 1.0
-2.051998 1.454419 5.679575 0.500000 0.500000 0.500000 1.0
-2.051998 -1.454419 5.679575 0.500000 0.500000 0.500000 1.0
3.033870 -1.539281 5.520236 0.500000 0.500000 0.500000 1.0
3.033870 1.539281 5.520236 0.500000 0.500000 0.500000 1.0
-3.026672 1.525473 5.469117 0.500000 0.500000 0.500000 1.0
-3.026672 -1.525473 5.469117 0.500000 0.500000 0.500000 1.0
4.070634 -1.469792 5.627495 0.500000 0.500000 0.500000 1.0
4.070634 1.469792 5.627495 0.500000 0.500000 0.500000 1.0
-4.048797 1.455838 5.592007 0.500000 0.500000 0.500000 1.0
-4.048797 -1.455838 5.592007 0.500000 0.500000 0.500000 1.0
5.055606 -1.263638 5.669814 0.500000 0.500000 0.500000 1.0
5.055606 1.263638 5.669814 0.500000 0.500000 0.500000 1.0
-5.040059 1.265337 5.606009 0.500000 0.500000 0.500000 1.0
-5.040059 -1.265337 5.606009 0.500000 0.500000 0.500000 1.0
6.048432 -1.121593 5.722141 0.500000 0.500000 0.500000 1.0
6.048432 1.121593 5.722141 0.500000 0.500000 0.500000 1.0
-6.533428 -0.000000 5.641319 0.500000 0.500000 0.500000 1.0
-1.768501 0.838118 3.352162 0.500000 0.500000 0.500000 1.0
-1.768500 -0.838119 3.352160 0.500000 0.500000 0.500000 1.0
0.897318 -1.704060 4.181923 0.500000 0.500000 0.500000 1.0
0.897319 1.704059 4.181922 0.500000 0.500000 0.500000 1.0
-2.107663 1.404593 4.521771 0.500000 0.500000 0.500000 1.0
-2.107662 -1.404593 4.521770 0.500000 0.500000 0.500000 1.0
0.045429 -1.808312 4.040398 0.500000 0.500000 0.500000 1.0
0.045552 1.808361 4.040398 0.500000 0.500000 0.500000 1.0
2.070671 1.397266 4.669232 0.500000 0.500000 0.500000 1.0
3.520063 -0.619270 2.726269 1.0 1.0 0.0 1.0
-0.739046 -1.676469 3.531025 0.500000 0.500000 0.500000 1.0
-0.739047 1.676467 3.531024 0.500000 0.500000 0.500000 1.0
-1.410073 -0.910267 2.031977 0.500000 0.500000 0.500000 1.0
-1.410090 0.910266 2.031986 0.500000 0.500000 0.500000 1.0
0.809357 1.676577 3.176284 0.500000 0.500000 0.500000 1.0
0.809321 -1.676539 3.176280 0.500000 0.500000 0.500000 1.0
5.508026 -1.164419 4.791491 0.500000 0.500000 0.500000 1.0
5.508027 1.164418 4.791493 0.500000 0.500000 0.500000 1.0
3.520063 0.619268 2.726269 1.0 1.0 0.0 1.0
-3.485444 0.659385 2.981640 1.0 1.0 0.0 1.0
1.784847 -0.000007 3.639989 0.500000 0.500000 0.500000 1.0
1.209251 1.238379 2.897314 0.500000 0.500000 0.500000 1.0
1.209251 -1.238381 2.897312 0.500000 0.500000 0.500000 1.0
0.146393 1.710760 2.999284 0.500000 0.500000 0.500000 1.0
0.146395 -1.710761 2.999284 0.500000 0.500000 0.500000 1.0
-3.485444 -0.659385 2.981640 1.0 1.0 0.0 1.0
0.085668 -0.000000 1.030606 1.0 1.0 0.0 1.0
-5.170277 1.151869 4.611248 0.500000 0.500000 0.500000 1.0
-5.170277 -1.151869 4.611248 0.500000 0.500000 0.500000 1.0
1.425696 -0.000007 2.635744 0.500000 0.500000 0.500000 1.0
4.547631 -1.369960 4.975812 0.500000 0.500000 0.500000 1.0
4.547642 1.369934 4.975805 0.500000 0.500000 0.500000 1.0
-2.107907 -0.000001 3.977264 0.500000 0.500000 0.500000 1.0
2.070885 -0.000007 4.084901 0.500000 0.500000 0.500000 1.0
2.070672 -1.397265 4.669226 0.500000 0.500000 0.500000 1.0
1.315736 1.551705 3.893768 0.500000 0.500000 0.500000 1.0
6.594207 -0.983529 5.202710 0.500000 0.500000 0.500000 1.0
6.594207 0.983529 5.202710 0.500000 0.500000 0.500000 1.0
1.315741 -1.551705 3.893772 0.500000 0.500000 0.500000 1.0
-0.964098 1.715045 4.458206 0.500000 0.500000 0.500000 1.0
-4.499015 1.346147 4.942407 0.500000 0.500000 0.500000 1.0
-4.499015 -1.346147 4.942407 0.500000 0.500000 0.500000 1.0
-0.542276 -1.519800 2.716203 0.500000 0.500000 0.500000 1.0
-0.542278 1.519796 2.716197 0.500000 0.500000 0.500000 1.0
5.150378 -0.826092 3.680442 0.500000 0.500000 0.500000 1.0
5.150377 0.826090 3.680441 0.500000 0.500000 0.500000 1.0
4.014972 -1.397638 4.494578 0.500000 0.500000 0.500000 1.0
4.014974 1.397635 4.494580 0.500000 0.500000 0.500000 1.0
0.765865 1.445123 2.223051 0.500000 0.500000 0.500000 1.0
0.765868 -1.445123 2.223052 0.500000 0.500000 0.500000 1.0
3.141919 -1.412014 4.277920 0.500000 0.500000 0.500000 1.0
3.141909 1.412015 4.277900 0.500000 0.500000 0.500000 1.0
0.102809 1.446101 2.068498 0.500000 0.500000 0.500000 1.0
0.102807 -1.446103 2.068499 0.500000 0.500000 0.500000 1.0
-3.943300 1.371692 4.577641 0.500000 0.500000 0.500000 1.0
-3.943300 -1.371692 4.577641 0.500000 0.500000 0.500000 1.0
1.083757 0.937582 2.017040 0.500000 0.500000 0.500000 1.0
1.083737 -0.937591 2.017032 0.500000 0.500000 0.500000 1.0
-3.215659 1.372552 4.302183 0.500000 0.500000 0.500000 1.0
-3.215659 -1.372552 4.302183 0.500000 0.500000 0.500000 1.0
4.366080 -1.273141 4.016088 0.500000 0.500000 0.500000 1.0
4.366080 1.273137 4.016090 0.500000 0.500000 0.500000 1.0
5.905044 -0.000000 4.496527 0.500000 0.500000 0.500000 1.0
2.515715 1.035642 3.803971 0.500000 0.500000 0.500000 1.0
2.515717 -1.035647 3.803938 0.500000 0.500000 0.500000 1.0
-4.842223 0.845448 3.722344 0.500000 0.500000 0.500000 1.0
-4.842223 -0.845448 3.722344 0.500000 0.500000 0.500000 1.0
-5.589683 0.000000 4.533571 0.500000 0.500000 0.500000 1.0
-0.300634 -1.147908 1.773344 0.500000 0.500000 0.500000 1.0
-0.300650 1.147915 1.773335 0.500000 0.500000 0.500000 1.0
-4.202901 1.137431 3.955817 0.500000 0.500000 0.500000 1.0
-4.202901 -1.137431 3.955817 0.500000 0.500000 0.500000 1.0
1.048013 -0.000006 1.826404 0.500000 0.500000 0.500000 1.0
-2.696309 1.034160 3.778013 0.500000 0.500000 0.500000 1.0
-2.696309 -1.034161 3.778013 0.500000 0.500000 0.500000 1.0
2.658137 -0.303472 3.352196 0.500000 0.500000 0.500000 1.0
2.658135 0.303468 3.352196 0.500000 0.500000 0.500000 1.0
-0.726713 -0.452938 1.519056 0.500000 0.500000 0.500000 1.0
-0.726723 0.452936 1.519061 0.500000 0.500000 0.500000 1.0
-0.964097 -1.715045 4.458206 0.500000 0.500000 0.500000 1.0
3 0 56 24
3 0 24 56
3 0 96 56
3 0 56 96
3 1 96 28
3 1 28 96
3 2 35 31
3 2 31 35
3 3 4 66
3 3 66 4
3 3 66 65
3 3 65 66
3 5 36 68
3 5 68 36
3 6 2 31
3 6 31 2
3 6 31 63
3 6 63 31
3 6 63 10
3 6 10 63
3 7 32 5
3 7 5 32
3 7 37 11
3 7 11 37
3 7 37 32
3 7 32 37
3 8 68 5
3 8 5 68
3 9 2 108
3 9 108 2
3 12 8 33
3 12 33 8
3 13 34 9
3 13 9 34
3 14 63 79
3 14 79 63
3 14 75 79
3 14 79 75
3 15 11 37
3 15 37 11
3 15 76 80
3 15 80 76
3 16 33 12
3 16 12 33
3 16 83 20
3 16 20 83
3 17 34 13
3 17 13 34
3 17 88 34
3 17 34 88
3 18 14 75
3 18 75 14
3 18 75 59
3 18 59 75
3 19 60 76
3 19 76 60
3 20 24 69
3 20 69 24
3 20 83 69
3 20 69 83
3 21 84 17
3 21 17 84
3 22 18 59
3 22 59 18
3 23 46 60
3 23 60 46
3 24 69 56
3 24 56 69
3 25 21 70
3 25 70 21
3 25 57 70
3 25 70 57
3 26 45 22
3 26 22 45
3 26 45 65
3 26 65 45
3 26 65 3
3 26 3 65
3 27 46 23
3 27 23 46
3 27 66 46
3 27 46 66
3 28 0 96
3 28 96 0
3 29 33 40
3 29 40 33
3 29 40 72
3 29 72 40
3 29 61 30
3 29 30 61
3 30 39 34
3 30 34 39
3 30 41 42
3 30 42 41
3 30 42 29
3 30 29 42
3 30 61 34
3 30 34 61
3 30 71 39
3 30 39 71
3 31 63 67
3 31 67 63
3 31 67 44
3 31 44 67
3 32 36 5
3 32 5 36
3 33 8 68
3 33 68 8
3 33 29 61
3 33 61 29
3 33 61 102
3 33 102 61
3 33 87 16
3 33 16 87
3 33 102 87
3 33 87 102
3 34 103 88
3 34 88 103
3 34 108 9
3 34 9 108
3 34 108 39
3 34 39 108
3 35 39 53
3 35 53 39
3 35 44 53
3 35 53 44
3 36 32 43
3 36 43 32
3 37 80 15
3 37 15 80
3 38 47 105
3 38 105 47
3 38 73 74
3 38 74 73
3 38 73 89
3 38 89 73
3 38 74 47
3 38 47 74
3 38 79 75
3 38 75 79
3 38 89 75
3 38 75 89
3 38 105 104
3 38 104 105
3 40 33 68
3 40 68 33
3 40 52 36
3 40 36 52
3 40 68 36
3 40 36 68
3 41 55 97
3 41 97 55
3 41 71 30
3 41 30 71
3 41 71 97
3 41 97 71
3 41 106 55
3 41 55 106
3 41 106 107
3 41 107 106
3 41 107 42
3 41 42 107
3 42 72 29
3 42 29 72
3 43 50 64
3 43 64 50
3 43 52 77
3 43 77 52
3 43 64 32
3 43 32 64
3 43 77 50
3 43 50 77
3 44 31 35
3 44 35 31
3 44 51 67
3 44 67 51
3 44 78 51
3 44 51 78
3 45 22 59
3 45 59 22
3 45 89 59
3 45 59 89
3 45 89 73
3 45 73 89
3 45 91 65
3 45 65 91
3 46 60 90
3 46 90 60
3 46 90 74
3 46 74 90
3 46 91 74
3 46 74 91
3 47 62 92
3 47 92 62
3 47 80 76
3 47 76 80
3 47 80 92
3 47 92 80
3 47 90 74
3 47 74 90
3 47 105 62
3 47 62 105
3 48 61 54
3 48 54 61
3 48 83 99
3 48 99 83
3 48 87 102
3 48 102 87
3 48 99 94
3 48 94 99
3 48 102 61
3 48 61 102
3 49 37 62
3 49 62 37
3 49 63 62
3 49 62 63
3 49 63 67
3 49 67 63
3 49 67 51
3 49 51 67
3 50 49 58
3 50 58 49
3 50 49 64
3 50 64 49
3 50 85 77
3 50 77 85
3 51 49 58
3 51 58 49
3 51 58 86
3 51 86 58
3 52 43 36
3 52 36 43
3 52 72 40
3 52 40 72
3 52 81 72
3 52 72 81
3 53 39 71
3 53 71 39
3 53 44 78
3 53 78 44
3 54 61 103
3 54 103 61
3 54 88 84
3 54 84 88
3 54 94 48
3 54 48 94
3 54 95 94
3 54 94 95
3 54 103 88
3 54 88 103
3 55 77 81
3 55 81 77
3 55 77 85
3 55 85 77
3 55 78 82
3 55 82 78
3 55 86 78
3 55 78 86
3 56 99 69
3 56 69 99
3 57 25 1
3 57 1 25
3 57 70 100
3 57 100 70
3 58 85 101
3 58 101 85
3 60 19 23
3 60 23 19
3 60 90 76
3 60 76 90
3 61 103 34
3 61 34 103
3 62 37 92
3 62 92 37
3 63 10 14
3 63 14 10
3 63 62 93
3 63 93 62
3 64 37 32
3 64 32 37
3 64 37 49
3 64 49 37
3 66 27 4
3 66 4 27
3 66 46 91
3 66 91 46
3 66 65 91
3 66 91 65
3 71 97 82
3 71 82 97
3 72 42 98
3 72 98 42
3 73 45 91
3 73 91 45
3 75 59 89
3 75 89 59
3 76 19 15
3 76 15 19
3 76 47 90
3 76 90 47
3 77 52 81
3 77 81 52
3 78 51 86
3 78 86 51
3 79 38 93
3 79 93 38
3 79 93 63
3 79 63 93
3 80 92 37
3 80 37 92
3 81 55 98
3 81 98 55
3 81 98 72
3 81 72 98
3 82 55 97
3 82 97 55
3 82 71 53
3 82 53 71
3 82 78 53
3 82 53 78
3 83 48 87
3 83 87 48
3 83 69 99
3 83 99 69
3 83 87 16
3 83 16 87
3 84 17 88
3 84 88 17
3 84 21 70
3 84 70 21
3 84 54 100
3 84 100 54
3 84 70 100
3 84 100 70
3 85 50 58
3 85 58 50
3 85 101 55
3 85 55 101
3 91 73 74
3 91 74 73
3 93 62 104
3 93 104 62
3 93 104 38
3 93 38 104
3 94 95 96
3 94 96 95
3 94 96 56
3 94 56 96
3 95 54 100
3 95 100 54
3 95 57 96
3 95 96 57
3 95 100 57
3 95 57 100
3 96 57 1
3 96 1 57
3 98 42 107
3 98 107 42
3 98 107 55
3 98 55 107
3 99 94 56
3 99 56 94
3 101 55 86
3 101 86 55
3 101 86 58
3 101 58 86
3 105 104 62
3 105 62 104
3 106 107 55
3 106 55 107
3 108 2 35
3 108 35 2
3 108 39 35
3 108 35 39
