 COFF
         143        1480         143
  
  -6.5997168500461658        1.1793899819437317        6.6444294108308837       0.60000002384185791       0.60000002384185791       0.60000002384185791       0.80000001192092896     
  -6.5997183716469667       -1.1793887935136562        6.6444297417363360       0.60000002384185791       0.60000002384185791       0.60000002384185791       0.80000001192092896     
  -3.3129913503156562E-002  -2.2653224583220033        6.3192290352732643       0.60000002384185791       0.60000002384185791       0.60000002384185791       0.80000001192092896     
   7.4777010256700063       -1.0793533341377741        6.7857775326578160       0.60000002384185791       0.60000002384185791       0.60000002384185791       0.80000001192092896     
   7.4777010182132839        1.0793533317937269        6.7857775398805602       0.60000002384185791       0.60000002384185791       0.60000002384185791       0.80000001192092896     
  -3.3129916345951430E-002   2.2653224881392329        6.3192290047575099       0.60000002384185791       0.60000002384185791       0.60000002384185791       0.80000001192092896     
   1.1488306739314624       -1.9477823000945540        6.4570220054134539       0.60000002384185791       0.60000002384185791       0.60000002384185791       0.80000001192092896     
   1.1488306321148678        1.9477823508069021        6.4570219556950086       0.60000002384185791       0.60000002384185791       0.60000002384185791       0.80000001192092896     
  -1.1666806955062465        1.9337356786104716        6.4245632034128688       0.60000002384185791       0.60000002384185791       0.60000002384185791       0.80000001192092896     
  -1.1666806872104245       -1.9337356541836686        6.4245632299108948       0.60000002384185791       0.60000002384185791       0.60000002384185791       0.80000001192092896     
   2.0606023071775441       -1.6321913330775433        6.7207453596166813       0.60000002384185791       0.60000002384185791       0.60000002384185791       0.80000001192092896     
   2.0606023267722988        1.6321914784172256        6.7207452087505040       0.60000002384185791       0.60000002384185791       0.60000002384185791       0.80000001192092896     
  -2.0830050215690386        1.6413420661053515        6.6982693085626543       0.60000002384185791       0.60000002384185791       0.60000002384185791       0.80000001192092896     
  -2.0830050210332089       -1.6413420535148853        6.6982693213978139       0.60000002384185791       0.60000002384185791       0.60000002384185791       0.80000001192092896     
   3.0317592355118355       -1.7755973171793589        6.4785269074269705       0.60000002384185791       0.60000002384185791       0.60000002384185791       0.80000001192092896     
   3.0317580439294054        1.7755974152250584        6.4785248169875551       0.60000002384185791       0.60000002384185791       0.60000002384185791       0.80000001192092896     
  -3.0311506718577967        1.7748837049066015        6.4106717717832371       0.60000002384185791       0.60000002384185791       0.60000002384185791       0.80000001192092896     
  -3.0311506702521682       -1.7748836945186637        6.4106717826021953       0.60000002384185791       0.60000002384185791       0.60000002384185791       0.80000001192092896     
   4.1008678731864938       -1.6697322115143747        6.6215980862242541       0.60000002384185791       0.60000002384185791       0.60000002384185791       0.80000001192092896     
   4.1008680154236918        1.6697324011386925        6.6215978672314408       0.60000002384185791       0.60000002384185791       0.60000002384185791       0.80000001192092896     
  -4.0793270826274242        1.6683524364999809        6.5725292038793928       0.60000002384185791       0.60000002384185791       0.60000002384185791       0.80000001192092896     
  -4.0793270822081267       -1.6683524301171602        6.5725292110238041       0.60000002384185791       0.60000002384185791       0.60000002384185791       0.80000001192092896     
   5.0889750693025961       -1.4456113286086711        6.6923977133178658       0.60000002384185791       0.60000002384185791       0.60000002384185791       0.80000001192092896     
   5.0889750768565047        1.4456113193697011        6.6923977243221486       0.60000002384185791       0.60000002384185791       0.60000002384185791       0.80000001192092896     
  -5.0775784718497494        1.4558400721817013        6.6168660127953824       0.60000002384185791       0.60000002384185791       0.60000002384185791       0.80000001192092896     
  -5.0775784730544009       -1.4558400272694951        6.6168660567712259       0.60000002384185791       0.60000002384185791       0.60000002384185791       0.80000001192092896     
   6.0763831233428700       -1.2992375519348327        6.7602131228301570       0.60000002384185791       0.60000002384185791       0.60000002384185791       0.80000001192092896     
   6.0763831272138518        1.2992375263072542        6.7602131499364830       0.60000002384185791       0.60000002384185791       0.60000002384185791       0.80000001192092896     
  -7.7803063619100792        1.4236070298362006E-004   6.6567881984447856       0.60000002384185791       0.60000002384185791       0.60000002384185791       0.80000001192092896     
   8.5571543192914703       -1.7126611958146240E-004   6.7856399045247837       0.60000002384185791       0.60000002384185791       0.60000002384185791       0.80000001192092896     
  -1.6928815749886548      -0.91618953280828652        4.1362876603092342       0.60000002384185791       0.60000002384185791       0.60000002384185791       0.80000001192092896     
  0.94876897616974321       -1.8821750125594428        5.0693364064762463       0.60000002384185791       0.60000002384185791       0.60000002384185791       0.80000001192092896     
  0.94877822092811392        1.8821726400720920        5.0693300762234710       0.60000002384185791       0.60000002384185791       0.60000002384185791       0.80000001192092896     
  -2.1219141680766915        1.6273883044426449        5.4951420791555785       0.60000002384185791       0.60000002384185791       0.60000002384185791       0.80000001192092896     
  -2.1219142357065270       -1.6273886607976504        5.4951417194784220       0.60000002384185791       0.60000002384185791       0.60000002384185791       0.80000001192092896     
   5.2633843617998208E-002  -1.9871362428123525        4.9072033822280394       0.60000002384185791       0.60000002384185791       0.60000002384185791       0.80000001192092896     
   5.2565722366022485E-002   1.9872983619305293        4.9072039324761381       0.60000002384185791       0.60000002384185791       0.60000002384185791       0.80000001192092896     
   2.1208738637875699        1.6012645400841370        5.5777879402220583       0.60000002384185791       0.60000002384185791       0.60000002384185791       0.80000001192092896     
   3.5249708152661121      -0.61957298433690533        2.7262692079133850        1.0000000000000000        1.0000000000000000        0.0000000000000000        1.0000000000000000     
 -0.80443879955473974       -1.8743402059277423        4.4301906251673149       0.60000002384185791       0.60000002384185791       0.60000002384185791       0.80000001192092896     
 -0.80443898464718833        1.8743391334929365        4.4301905865861571       0.60000002384185791       0.60000002384185791       0.60000002384185791       0.80000001192092896     
  -1.4030790146585990      -0.98775772888050506        2.7435842414194171       0.60000002384185791       0.60000002384185791       0.60000002384185791       0.80000001192092896     
  -1.4030755233389234       0.98776027405619238        2.7435851155984197       0.60000002384185791       0.60000002384185791       0.60000002384185791       0.80000001192092896     
  0.82825318671540471        1.8656079069098608        4.0091833953142606       0.60000002384185791       0.60000002384185791       0.60000002384185791       0.80000001192092896     
  0.82826847250389923       -1.8656411187360544        4.0091731464066234       0.60000002384185791       0.60000002384185791       0.60000002384185791       0.80000001192092896     
   5.5524054266706848       -1.3511163727580162        5.8063645138631550       0.60000002384185791       0.60000002384185791       0.60000002384185791       0.80000001192092896     
   5.5524053252787313        1.3511167119865575        5.8063648271714898       0.60000002384185791       0.60000002384185791       0.60000002384185791       0.80000001192092896     
   3.5249685744597712       0.61957353061084008        2.7262692079133850        1.0000000000000000        1.0000000000000000        0.0000000000000000        1.0000000000000000     
  -3.4997217336570658       0.65975255266749955        2.9816402194175646        1.0000000000000000        1.0000000000000000        0.0000000000000000        1.0000000000000000     
   1.7575017772338126       -4.7414079559630572E-006   4.5323247994579399       0.60000002384185791       0.60000002384185791       0.60000002384185791       0.80000001192092896     
   1.1735622560842509        1.4058732363876056        3.6963095067844756       0.60000002384185791       0.60000002384185791       0.60000002384185791       0.80000001192092896     
   1.1735681401926228       -1.4058814947248164        3.6963291533930018       0.60000002384185791       0.60000002384185791       0.60000002384185791       0.80000001192092896     
  0.17589261263873751        1.9017270727598490        3.7885386585484437       0.60000002384185791       0.60000002384185791       0.60000002384185791       0.80000001192092896     
  0.17592361990837593       -1.9017347126418684        3.7885383477797716       0.60000002384185791       0.60000002384185791       0.60000002384185791       0.80000001192092896     
  -3.4997222197635844      -0.65975282218200071        2.9816402194175642        1.0000000000000000        1.0000000000000000        0.0000000000000000        1.0000000000000000     
  0.11464217346495741       -8.1677665521877736E-007   1.0306063639638421        1.0000000000000000        1.0000000000000000        0.0000000000000000        1.0000000000000000     
  -5.2498565231802932        1.3429300551199281        5.5991542551728406       0.60000002384185791       0.60000002384185791       0.60000002384185791       0.80000001192092896     
  -5.2498565144361953       -1.3429299667536885        5.5991542954957163       0.60000002384185791       0.60000002384185791       0.60000002384185791       0.80000001192092896     
   1.3534730273657003       -2.3914374243788544E-006   3.2727561773671736       0.60000002384185791       0.60000002384185791       0.60000002384185791       0.80000001192092896     
   4.5715104826730384       -1.5629465594993954        5.9118846011396622       0.60000002384185791       0.60000002384185791       0.60000002384185791       0.80000001192092896     
   4.5714166983426221        1.5629327800749360        5.9118721037166369       0.60000002384185791       0.60000002384185791       0.60000002384185791       0.80000001192092896     
  -2.1219613051922463       -5.0988426297982650E-007   4.6104291954360681       0.60000002384185791       0.60000002384185791       0.60000002384185791       0.80000001192092896     
   2.1342093191620553       -5.9649608575604650E-006   4.8236207563427067       0.60000002384185791       0.60000002384185791       0.60000002384185791       0.80000001192092896     
   2.1209135323770791       -1.6012766231870441        5.5778050995364783       0.60000002384185791       0.60000002384185791       0.60000002384185791       0.80000001192092896     
   1.3056397725696167        1.7614231710667216        4.7508934542483541       0.60000002384185791       0.60000002384185791       0.60000002384185791       0.80000001192092896     
   6.7086800327978562       -1.1523256545029110        6.1317804936520961       0.60000002384185791       0.60000002384185791       0.60000002384185791       0.80000001192092896     
   6.7086800145483663        1.1523256247789446        6.1317804657851882       0.60000002384185791       0.60000002384185791       0.60000002384185791       0.80000001192092896     
   1.3056611010423655       -1.7614126416923379        4.7508744172593653       0.60000002384185791       0.60000002384185791       0.60000002384185791       0.80000001192092896     
 -0.97469577297815801        1.8999016985178818        5.3422181260707307       0.60000002384185791       0.60000002384185791       0.60000002384185791       0.80000001192092896     
  -4.5629661713655922        1.5653186371165149        5.8764222088297213       0.60000002384185791       0.60000002384185791       0.60000002384185791       0.80000001192092896     
  -4.5629661579491145       -1.5653186133126056        5.8764222056896704       0.60000002384185791       0.60000002384185791       0.60000002384185791       0.80000001192092896     
 -0.56567196367684414       -1.6673486432069802        3.4012531089390103       0.60000002384185791       0.60000002384185791       0.60000002384185791       0.80000001192092896     
 -0.56566928558092233        1.6673511823167966        3.4012536418223447       0.60000002384185791       0.60000002384185791       0.60000002384185791       0.80000001192092896     
   5.3457450288850179       -1.0233138723647650        4.5585047737245779       0.60000002384185791       0.60000002384185791       0.60000002384185791       0.80000001192092896     
   5.3457446087145568        1.0233146284214265        4.5585047332124002       0.60000002384185791       0.60000002384185791       0.60000002384185791       0.80000001192092896     
   4.0838213585400407       -1.6420977239187970        5.3901423838309777       0.60000002384185791       0.60000002384185791       0.60000002384185791       0.80000001192092896     
   4.0839042611684961        1.6420533994978157        5.3901509053388716       0.60000002384185791       0.60000002384185791       0.60000002384185791       0.80000001192092896     
  0.74593429358717023        1.7084245567892482        3.0486742770174389       0.60000002384185791       0.60000002384185791       0.60000002384185791       0.80000001192092896     
  0.74603961075383618       -1.7085126997040281        3.0486731136088010       0.60000002384185791       0.60000002384185791       0.60000002384185791       0.80000001192092896     
   3.1207128618641038       -1.6640716504866742        5.0268476242876545       0.60000002384185791       0.60000002384185791       0.60000002384185791       0.80000001192092896     
   3.1207313195080961        1.6640356715880835        5.0268622750905267       0.60000002384185791       0.60000002384185791       0.60000002384185791       0.80000001192092896     
  0.23724297326761634        1.7469954723700418        2.7077538527209306       0.60000002384185791       0.60000002384185791       0.60000002384185791       0.80000001192092896     
  0.23724482212532250       -1.7470016609598300        2.7077562730626514       0.60000002384185791       0.60000002384185791       0.60000002384185791       0.80000001192092896     
  -4.0502250404460627        1.6281960644905815        5.4266338671399170       0.60000002384185791       0.60000002384185791       0.60000002384185791       0.80000001192092896     
  -4.0502250422026407       -1.6281960547115233        5.4266338766978368       0.60000002384185791       0.60000002384185791       0.60000002384185791       0.80000001192092896     
   1.0606564843012507        1.1361949886534404        2.7260210816431836       0.60000002384185791       0.60000002384185791       0.60000002384185791       0.80000001192092896     
   1.0606589756400475       -1.1361998098686081        2.7260155200686089       0.60000002384185791       0.60000002384185791       0.60000002384185791       0.80000001192092896     
  -3.1241885662487134        1.6420033583082414        4.9625932008430853       0.60000002384185791       0.60000002384185791       0.60000002384185791       0.80000001192092896     
  -3.1241888987772723       -1.6420035297299176        4.9625933261695243       0.60000002384185791       0.60000002384185791       0.60000002384185791       0.80000001192092896     
   4.5780042134378744       -1.5374970212418653        4.8389725456184429       0.60000002384185791       0.60000002384185791       0.60000002384185791       0.80000001192092896     
   4.5780038642353418        1.5374979992172246        4.8389730410059659       0.60000002384185791       0.60000002384185791       0.60000002384185791       0.80000001192092896     
   6.2851865654579973        2.5163308457821279E-009   5.3303455889568214       0.60000002384185791       0.60000002384185791       0.60000002384185791       0.80000001192092896     
   2.5325272134486863        1.1801210181209665        4.6210080868025223       0.60000002384185791       0.60000002384185791       0.60000002384185791       0.80000001192092896     
   2.5323509039810475       -1.1802239924582172        4.6209866461253055       0.60000002384185791       0.60000002384185791       0.60000002384185791       0.80000001192092896     
  -5.0697039768962222        1.0704319568704548        4.4625325795280864       0.60000002384185791       0.60000002384185791       0.60000002384185791       0.80000001192092896     
  -5.0697039534543400       -1.0704319147637531        4.4625325878713786       0.60000002384185791       0.60000002384185791       0.60000002384185791       0.80000001192092896     
  -6.0722185088029814        3.5456061167448822E-007   5.4263048121198629       0.60000002384185791       0.60000002384185791       0.60000002384185791       0.80000001192092896     
 -0.45073795479618284       -1.5167351748108970        2.3418434843098974        1.0000000000000000       0.10000000149011612        0.0000000000000000       0.50000000000000000     
 -0.45071805938023296        1.5167333550056361        2.3418560290246724        1.0000000000000000       0.10000000149011612        0.0000000000000000       0.50000000000000000     
  -4.5178199579658189        1.5069862189604126        4.7013154241155188       0.60000002384185791       0.60000002384185791       0.60000002384185791       0.80000001192092896     
  -4.5178199666088856       -1.5069862025515619        4.7013154611180781       0.60000002384185791       0.60000002384185791       0.60000002384185791       0.80000001192092896     
   1.1806594243323461       -3.3885214505620037E-006   2.4448154128013542        1.0000000000000000       0.10000000149011612        0.0000000000000000       0.50000000000000000     
  -2.5711398916392367        1.2340498598989731        4.6102650444127917       0.60000002384185791       0.60000002384185791       0.60000002384185791       0.80000001192092896     
  -2.5711944363022874       -1.2341015756371798        4.6102621099576266       0.60000002384185791       0.60000002384185791       0.60000002384185791       0.80000001192092896     
   2.4678187015779409      -0.38406156764656996        3.4765934234151281       0.60000002384185791       0.60000002384185791       0.60000002384185791       0.80000001192092896     
   2.4678087715823485       0.38408068758450509        3.4766041604312328       0.60000002384185791       0.60000002384185791       0.60000002384185791       0.80000001192092896     
  -1.4257155777987323      -0.87693643694176260        1.8457070254292132        1.0000000000000000       0.10000000149011612        0.0000000000000000       0.50000000000000000     
  -1.4257203571564196       0.87693196680446828        1.8457104799804875        1.0000000000000000       0.10000000149011612        0.0000000000000000       0.50000000000000000     
 -0.97469565388329216       -1.8999016294050974        5.3422182504319302       0.60000002384185791       0.60000002384185791       0.60000002384185791       0.80000001192092896     
   4.0096162949675618       -1.5911101977936608        4.3681746428692039       0.60000002384185791       0.60000002384185791       0.60000002384185791       0.80000001192092896     
   4.0096124092552667        1.5911077284918871        4.3681708423294072       0.60000002384185791       0.60000002384185791       0.60000002384185791       0.80000001192092896     
  0.70421752100266433        1.4491829533987921        2.1069920618559825        1.0000000000000000       0.10000000149011612        0.0000000000000000       0.50000000000000000     
  0.70422135981617584       -1.4491852923880952        2.1069935317945281        1.0000000000000000       0.10000000149011612        0.0000000000000000       0.50000000000000000     
   6.8987584436263498       -4.2649314792591547E-008   5.4874884147305032        1.0000000000000000        1.0000000000000000        0.0000000000000000        1.0000000000000000     
   4.7799009322719330      -0.95030884451580511        3.4515789324166821       0.60000002384185791       0.60000002384185791       0.60000002384185791       0.80000001192092896     
   4.7798998216217994       0.95030849988163435        3.4515790506260764       0.60000002384185791       0.60000002384185791       0.60000002384185791       0.80000001192092896     
  -3.9414429590183637        1.5484843053389858        4.4048617497559448       0.60000002384185791       0.60000002384185791       0.60000002384185791       0.80000001192092896     
  -3.9414429670154769       -1.5484843038470544        4.4048617688297931       0.60000002384185791       0.60000002384185791       0.60000002384185791       0.80000001192092896     
   3.2393105356576877       -1.4666612084685517        4.0801409032237652       0.60000002384185791       0.60000002384185791       0.60000002384185791       0.80000001192092896     
   3.2393141177522331        1.4666634629428854        4.0801331722294600       0.60000002384185791       0.60000002384185791       0.60000002384185791       0.80000001192092896     
  -6.8506559387449588        1.3840725838950601E-006   5.6811856426661205        1.0000000000000000        1.0000000000000000        0.0000000000000000        1.0000000000000000     
  0.14315273370522433        1.4498484680724726        1.7762353294886137        1.0000000000000000       0.10000000149011612        0.0000000000000000       0.50000000000000000     
  0.14316938830714504       -1.4498644157590046        1.7762724526306866        1.0000000000000000       0.10000000149011612        0.0000000000000000       0.50000000000000000     
   4.3791893090585461       -1.3860518604788512        3.8855809366713956       0.60000002384185791       0.60000002384185791       0.60000002384185791       0.80000001192092896     
   4.3791882300811533        1.3860504683279049        3.8855816320180785       0.60000002384185791       0.60000002384185791       0.60000002384185791       0.80000001192092896     
  -2.3925515306104637       0.32328968028674726        3.6635560487026684       0.60000002384185791       0.60000002384185791       0.60000002384185791       0.80000001192092896     
  -2.3925510157871579      -0.32329025663744099        3.6635575135782443       0.60000002384185791       0.60000002384185791       0.60000002384185791       0.80000001192092896     
  0.93444075554847628       0.75498883992891275        1.9180241259244128        1.0000000000000000       0.10000000149011612        0.0000000000000000       0.50000000000000000     
  0.93444203742986731      -0.75498779704362196        1.9180168321413995        1.0000000000000000       0.10000000149011612        0.0000000000000000       0.50000000000000000     
  -1.6928784213956158       0.91618698130195686        4.1362836706576402       0.60000002384185791       0.60000002384185791       0.60000002384185791       0.80000001192092896     
  -3.2096210461717383        1.3962361613340482        4.0782399554955262       0.60000002384185791       0.60000002384185791       0.60000002384185791       0.80000001192092896     
  -3.2096250605736016       -1.3962374383314611        4.0782398188880853       0.60000002384185791       0.60000002384185791       0.60000002384185791       0.80000001192092896     
   2.8902822968143256       -1.1079026395599005        3.7653884903856198       0.60000002384185791       0.60000002384185791       0.60000002384185791       0.80000001192092896     
   2.8902054048005814        1.1079260610579318        3.7653789952560484       0.60000002384185791       0.60000002384185791       0.60000002384185791       0.80000001192092896     
  -4.5660808302095033       0.83328307588088257        3.6758855404672639       0.60000002384185791       0.60000002384185791       0.60000002384185791       0.80000001192092896     
  -4.5660808200939238      -0.83328306830956222        3.6758855441469858       0.60000002384185791       0.60000002384185791       0.60000002384185791       0.80000001192092896     
  -5.2558659735139530        7.0810339853102490E-008   4.3915678054962610       0.60000002384185791       0.60000002384185791       0.60000002384185791       0.80000001192092896     
 -0.29643807097559083      -0.91439920644719264        1.6375770044951630        1.0000000000000000       0.10000000149011612        0.0000000000000000       0.50000000000000000     
 -0.29644089726413175       0.91439817972161053        1.6375695783888893        1.0000000000000000       0.10000000149011612        0.0000000000000000       0.50000000000000000     
  -4.2150554402651741        1.1668564315629226        3.8272961371079983       0.60000002384185791       0.60000002384185791       0.60000002384185791       0.80000001192092896     
  -4.2150556292455974       -1.1668563533449672        3.8272960834650096       0.60000002384185791       0.60000002384185791       0.60000002384185791       0.80000001192092896     
   7.7497247699981067       -2.3761365000369737E-008   6.1815773747408755       0.60000002384185791       0.60000002384185791       0.60000002384185791       0.80000001192092896     
   5.4456958871573162        2.7683839009191575E-007   4.4855617539711536       0.60000002384185791       0.60000002384185791       0.60000002384185791       0.80000001192092896     
  
   3   0  24  56
   3   0  56  24
   3   0  56  96
   3   0  96 120
   3   0  96  56
   3   0 120  96
   3   0 120  28
   3   0  28 120
   4   0  28   1  96
   3   1  28 120
   4   1  28   0  96
   3   1 120  96
   3   1 120  28
   3   1  96  57
   3   1  96 120
   3   1  57  96
   3   1  57  25
   3   1  25  57
   3   2  35 108
   3   2  35  31
   3   2  31  35
   3   2  31   6
   3   2   6  31
   3   2   9 108
   3   2 108  35
   3   2 108   9
   3   3  29 141
   4   3  29   4 113
   3   3  26  65
   3   3  65  26
   3   3  65 113
   3   3 113 141
   3   3 113  65
   3   3 141 113
   3   3 141  29
   3   4  29 141
   4   4  29   3 113
   3   4 141 113
   3   4 141  29
   3   4 113  66
   3   4 113 141
   3   4  66 113
   3   4  66  27
   3   4  27  66
   3   5   7  32
   3   5  32  36
   3   5  32   7
   3   5  36  32
   3   5  36  68
   3   5  68  36
   3   5  68   8
   3   5   8  68
   3   6   2  31
   3   6  31   2
   3   6  31  63
   3   6  63  10
   3   6  63  31
   3   6  10  63
   3   7  11  37
   3   7  37  32
   3   7  37  11
   3   7  32  37
   3   7  32   5
   3   7   5  32
   3   8   5  68
   3   8  68   5
   3   8  68  33
   3   8  33  12
   3   8  33  68
   3   8  12  33
   3   9  13  34
   3   9  34 108
   3   9  34  13
   3   9 108  34
   3   9 108   2
   3   9   2 108
   3  10   6  63
   3  10  63  14
   3  10  63   6
   3  10  14  63
   3  11  15  37
   3  11  37   7
   3  11  37  15
   3  11   7  37
   3  12   8  33
   3  12  33  16
   3  12  33   8
   3  12  16  33
   3  13  17  34
   3  13  34   9
   3  13  34  17
   3  13   9  34
   3  14  10  63
   3  14  63  79
   3  14  63  10
   3  14  79  63
   3  14  79  75
   3  14  75  79
   3  14  75  18
   3  14  18  75
   3  15  19  76
   3  15  76  80
   3  15  76  19
   3  15  80  76
   3  15  80  37
   3  15  37  11
   3  15  37  80
   3  15  11  37
   3  16  12  33
   3  16  33  87
   3  16  33  12
   3  16  87  33
   3  16  87  83
   3  16  83  87
   3  16  83  20
   3  16  20  83
   3  17  21  84
   3  17  84  88
   3  17  84  21
   3  17  88  84
   3  17  88  34
   3  17  34  13
   3  17  34  88
   3  17  13  34
   3  18  14  75
   3  18  75  14
   3  18  75  59
   3  18  59  75
   3  18  59  22
   3  18  22  59
   3  19  23  60
   3  19  60  76
   3  19  60  23
   3  19  76  60
   3  19  76  15
   3  19  15  76
   3  20  16  83
   3  20  83  16
   3  20  83  69
   3  20  69  83
   3  20  69  24
   3  20  24  69
   3  21  25  70
   3  21  70  84
   3  21  70  25
   3  21  84  70
   3  21  84  17
   3  21  17  84
   3  22  18  59
   3  22  59  18
   3  22  59  45
   3  22  45  26
   3  22  45  59
   3  22  26  45
   3  23  27  46
   3  23  46  60
   3  23  46  27
   3  23  60  46
   3  23  60  19
   3  23  19  60
   3  24  20  69
   3  24  69  20
   3  24  69  56
   3  24  56   0
   3  24  56  69
   3  24   0  56
   3  25   1  57
   3  25  57   1
   3  25  57  70
   3  25  70  57
   3  25  70  21
   3  25  21  70
   3  26  22  45
   3  26  45  65
   3  26  45  22
   3  26  65   3
   3  26  65  45
   3  26   3  65
   3  27   4  66
   3  27  66   4
   3  27  66  46
   3  27  46  66
   3  27  46  23
   3  27  23  46
   3  28   0 120
   4  28   0  96   1
   3  28 120   0
   3  28 120   1
   3  28   1 120
   4  28   1  96   0
   3  29   3 141
   4  29   3 113   4
   3  29 141   3
   3  29 141   4
   3  29   4 141
   4  29   4 113   3
   3  30  34  61
   3  30  34  39
   3  30  61 129
   3  30  61  34
   3  30 129  61
   4  30 129  42  41
   3  30  41  71
   4  30  41  42 129
   3  30  71  41
   3  30  71  39
   3  30  39  34
   3  30  39  71
   3  31   2  35
   3  31   2   6
   3  31  35  44
   3  31  35   2
   3  31  44  67
   3  31  44  35
   3  31  67  63
   3  31  67  44
   3  31  63   6
   3  31  63  67
   3  31   6   2
   3  31   6  63
   3  32  37  64
   3  32  37   7
   3  32  64  37
   3  32  64  43
   3  32  43  36
   3  32  43  64
   3  32  36  43
   3  32  36   5
   3  32   5   7
   3  32   5  36
   3  32   7  37
   3  32   7   5
   3  33 102  61
   3  33 102  87
   3  33  87 102
   3  33  87  16
   3  33  16  12
   3  33  16  87
   3  33  12   8
   3  33  12  16
   3  33   8  68
   3  33   8  12
   3  33  68  40
   3  33  68   8
   3  33  40 129
   3  33  40  68
   3  33 129  40
   3  33 129  61
   3  33  61 129
   3  33  61 102
   3  34 103  88
   3  34 103  61
   3  34  61  30
   3  34  61 103
   3  34  30  61
   3  34  30  39
   3  34  39 108
   3  34  39  30
   3  34 108  39
   3  34 108   9
   3  34   9  13
   3  34   9 108
   3  34  13  17
   3  34  13   9
   3  34  17  88
   3  34  17  13
   3  34  88 103
   3  34  88  17
   3  35 108  39
   3  35 108   2
   3  35  39 108
   3  35  39  53
   3  35  53  44
   3  35  53  39
   3  35  44  31
   3  35  44  53
   3  35  31   2
   3  35  31  44
   3  35   2  31
   3  35   2 108
   3  36  32  43
   3  36  32   5
   3  36  43  32
   3  36  43  52
   3  36  52  40
   3  36  52  43
   3  36  40  68
   3  36  40  52
   3  36  68   5
   3  36  68  40
   3  36   5  32
   3  36   5  68
   3  37  92  80
   3  37  92  62
   3  37  62  49
   3  37  62  92
   3  37  49  62
   3  37  49  64
   3  37  64  49
   3  37  64  32
   3  37  32  64
   3  37  32   7
   3  37   7  11
   3  37   7  32
   3  37  11  15
   3  37  11   7
   3  37  15  80
   3  37  15  11
   3  37  80  92
   3  37  80  15
   3  38 114 123
   4  38 114 115  47
   3  38 123 114
   3  38 123 109
   3  38 109 118
   3  38 109 123
   3  38 118 109
   3  38 118 132
   3  38 132 118
   3  38 132 104
   3  38 104 132
   4  38 104 105  47
   3  39  35 108
   3  39  35  53
   3  39 108  34
   3  39 108  35
   3  39  34  30
   3  39  34 108
   3  39  30  34
   3  39  30  71
   3  39  71  30
   3  39  71  53
   3  39  53  35
   3  39  53  71
   3  40 129  33
   3  40 129  72
   3  40  33  68
   3  40  33 129
   3  40  68  36
   3  40  68  33
   3  40  36  52
   3  40  36  68
   3  40  52  36
   3  40  52  72
   3  40  72  52
   3  40  72 129
   3  41 106 137
   4  41 106 107  42
   3  41 137  97
   3  41 137 106
   3  41  97  71
   3  41  97 137
   3  41  71  30
   3  41  71  97
   3  41  30  71
   4  41  30 129  42
   3  42 107 138
   4  42 107 106  41
   3  42 129  72
   4  42 129  30  41
   3  42  72  98
   3  42  72 129
   3  42  98  72
   3  42  98 138
   3  42 138 107
   3  42 138  98
   3  43  36  32
   3  43  36  52
   3  43  32  64
   3  43  32  36
   3  43  64  50
   3  43  64  32
   3  43  50  64
   3  43  50  77
   3  43  77  50
   3  43  77  52
   3  43  52  36
   3  43  52  77
   3  44  67  51
   3  44  67  31
   3  44  31  35
   3  44  31  67
   3  44  35  53
   3  44  35  31
   3  44  53  35
   3  44  53  78
   3  44  78  53
   3  44  78  51
   3  44  51  67
   3  44  51  78
   3  45  65  26
   3  45  65  91
   3  45  26  22
   3  45  26  65
   3  45  22  59
   3  45  22  26
   3  45  59  89
   3  45  59  22
   3  45  89  73
   3  45  89  59
   3  45  73  91
   3  45  73  89
   3  45  91  73
   3  45  91  65
   3  46  66  91
   3  46  66  27
   3  46  91  74
   3  46  91  66
   3  46  74  91
   3  46  74  90
   3  46  90  60
   3  46  90  74
   3  46  60  90
   3  46  60  23
   3  46  23  27
   3  46  23  60
   3  46  27  66
   3  46  27  23
   3  47 115 124
   4  47 115 114  38
   3  47 105 133
   4  47 105 104  38
   3  47 133 105
   3  47 133 119
   3  47 119 110
   3  47 119 133
   3  47 110 124
   3  47 110 119
   3  47 124 110
   3  47 124 115
   3  48 134 139
   4  48 134 135  54
   3  48 139 134
   3  48 139 116
   3  48 116 130
   3  48 116 139
   3  48 130 116
   3  48 130 102
   3  48 102 130
   4  48 102  61 125
   3  49  37  62
   3  49  37  64
   3  49  62  37
   3  49  62  63
   3  49  63  67
   3  49  63  62
   3  49  67  51
   3  49  67  63
   3  49  51  67
   3  49  51  58
   3  49  58  51
   3  49  58  50
   3  49  50  64
   3  49  50  58
   3  49  64  37
   3  49  64  50
   3  50  43  64
   3  50  43  77
   3  50  64  49
   3  50  64  43
   3  50  49  58
   3  50  49  64
   3  50  58  85
   3  50  58  49
   3  50  85  58
   3  50  85  77
   3  50  77  85
   3  50  77  43
   3  51  49  67
   3  51  49  58
   3  51  67  49
   3  51  67  44
   3  51  44  67
   3  51  44  78
   3  51  78  86
   3  51  78  44
   3  51  86  78
   3  51  86  58
   3  51  58  86
   3  51  58  49
   3  52  40  36
   3  52  40  72
   3  52  36  43
   3  52  36  40
   3  52  43  36
   3  52  43  77
   3  52  77  81
   3  52  77  43
   3  52  81  77
   3  52  81  72
   3  52  72  81
   3  52  72  40
   3  53  44  35
   3  53  44  78
   3  53  35  39
   3  53  35  44
   3  53  39  35
   3  53  39  71
   3  53  71  82
   3  53  71  39
   3  53  82  71
   3  53  82  78
   3  53  78  82
   3  53  78  44
   3  54 135 140
   4  54 135 134  48
   3  54 103 131
   4  54 103  88 117
   3  54 131 103
   3  54 131 117
   3  54 117 140
   3  54 117 131
   3  54 140 117
   3  54 140 135
   3  55 121 111
   3  55 121 138
   3  55 111 127
   3  55 111 121
   3  55 127 111
   3  55 127 101
   3  55 101 128
   3  55 101 127
   3  55 128 101
   3  55 128 112
   3  55 112 122
   3  55 112 128
   3  55 122 112
   3  55 122 137
   3  55 137 122
   3  55 137 106
   3  55 106 107
   3  55 106 137
   3  55 107 138
   3  55 107 106
   3  55 138 107
   3  55 138 121
   3  56   0  24
   3  56   0  96
   3  56  24  69
   3  56  24   0
   3  56  69  99
   3  56  69  24
   3  56  99  94
   3  56  99  69
   3  56  94  96
   3  56  94  99
   3  56  96  94
   3  56  96   0
   3  57   1  96
   3  57   1  25
   3  57  96  95
   3  57  96   1
   3  57  95 100
   3  57  95  96
   3  57 100  70
   3  57 100  95
   3  57  70 100
   3  57  70  25
   3  57  25   1
   3  57  25  70
   3  58  51  49
   3  58  51  86
   3  58  86 101
   3  58  86  51
   3  58 101  85
   3  58 101  86
   3  58  85 101
   3  58  85  50
   3  58  50  49
   3  58  50  85
   3  58  49  51
   3  58  49  50
   3  59  18  75
   3  59  18  22
   3  59  75  89
   3  59  75  18
   3  59  89  45
   3  59  89  75
   3  59  45  22
   3  59  45  89
   3  59  22  18
   3  59  22  45
   3  60  46  90
   3  60  46  23
   3  60  90  76
   3  60  90  46
   3  60  76  90
   3  60  76  19
   3  60  19  23
   3  60  19  76
   3  60  23  46
   3  60  23  19
   3  61 129  33
   3  61 129  30
   3  61  30  34
   3  61  30 129
   3  61  34 103
   3  61  34  30
   3  61 103  34
   4  61 103  54 126
   3  61 126 125
   4  61 126  54 103
   3  61 125 126
   4  61 125  48 102
   3  61 102  33
   4  61 102  48 125
   3  61  33 102
   3  61  33 129
   3  62  49  37
   3  62  49  63
   3  62  37  92
   3  62  37  49
   3  62  92 133
   3  62  92  37
   3  62 133 105
   3  62 133  92
   3  62 105 104
   3  62 105 133
   3  62 104 132
   3  62 104 105
   3  62 132  93
   3  62 132 104
   3  62  93  63
   3  62  93 132
   3  62  63  93
   3  62  63  49
   3  63  93  79
   3  63  93  62
   3  63  79  93
   3  63  79  14
   3  63  14  10
   3  63  14  79
   3  63  10   6
   3  63  10  14
   3  63   6  31
   3  63   6  10
   3  63  31  67
   3  63  31   6
   3  63  67  49
   3  63  67  31
   3  63  49  62
   3  63  49  67
   3  63  62  49
   3  63  62  93
   3  64  37  49
   3  64  37  32
   3  64  49  37
   3  64  49  50
   3  64  50  43
   3  64  50  49
   3  64  43  32
   3  64  43  50
   3  64  32  37
   3  64  32  43
   3  65   3  26
   3  65   3 113
   3  65  26  45
   3  65  26   3
   3  65  45  26
   3  65  45  91
   3  65  91 113
   3  65  91  45
   3  65 113  91
   3  65 113   3
   3  66   4 113
   3  66   4  27
   3  66 113  91
   3  66 113   4
   3  66  91  46
   3  66  91 113
   3  66  46  91
   3  66  46  27
   3  66  27   4
   3  66  27  46
   3  67  51  49
   3  67  51  44
   3  67  49  63
   3  67  49  51
   3  67  63  31
   3  67  63  49
   3  67  31  44
   3  67  31  63
   3  67  44  31
   3  67  44  51
   3  68   5  36
   3  68   5   8
   3  68  36  40
   3  68  36   5
   3  68  40  33
   3  68  40  36
   3  68  33   8
   3  68  33  40
   3  68   8   5
   3  68   8  33
   3  69  20  83
   3  69  20  24
   3  69  83  99
   3  69  83  20
   3  69  99  56
   3  69  99  83
   3  69  56  24
   3  69  56  99
   3  69  24  20
   3  69  24  56
   3  70  57 100
   3  70  57  25
   3  70 100  84
   3  70 100  57
   3  70  84 100
   3  70  84  21
   3  70  21  25
   3  70  21  84
   3  70  25  57
   3  70  25  21
   3  71  30  41
   3  71  30  39
   3  71  41  97
   3  71  41  30
   3  71  97  82
   3  71  97  41
   3  71  82  97
   3  71  82  53
   3  71  53  39
   3  71  53  82
   3  71  39  30
   3  71  39  53
   3  72  52  40
   3  72  52  81
   3  72  81  98
   3  72  81  52
   3  72  98  42
   3  72  98  81
   3  72  42 129
   3  72  42  98
   3  72 129  40
   3  72 129  42
   3  72  40 129
   3  72  40  52
   3  73 114 142
   3  73 114 123
   3  73 142 114
   3  73 142  91
   3  73  91 142
   3  73  91  45
   3  73  45  89
   3  73  45  91
   3  73  89  45
   3  73  89 123
   3  73 123 114
   3  73 123  89
   3  74  46  91
   3  74  46  90
   3  74  91 142
   3  74  91  46
   3  74 142 115
   3  74 142  91
   3  74 115 124
   3  74 115 142
   3  74 124  90
   3  74 124 115
   3  74  90  46
   3  74  90 124
   3  75  14  79
   3  75  14  18
   3  75  79 109
   3  75  79  14
   3  75 109  89
   3  75 109  79
   3  75  89  59
   3  75  89 109
   3  75  59  18
   3  75  59  89
   3  75  18  14
   3  75  18  59
   3  76  60  90
   3  76  60  19
   3  76  90  60
   3  76  90 110
   3  76 110  80
   3  76 110  90
   3  76  80 110
   3  76  80  15
   3  76  15  19
   3  76  15  80
   3  76  19  60
   3  76  19  15
   3  77  50  43
   3  77  50  85
   3  77  85 111
   3  77  85  50
   3  77 111  81
   3  77 111  85
   3  77  81 111
   3  77  81  52
   3  77  52  43
   3  77  52  81
   3  77  43  50
   3  77  43  52
   3  78  53  44
   3  78  53  82
   3  78  82 112
   3  78  82  53
   3  78 112  86
   3  78 112  82
   3  78  86 112
   3  78  86  51
   3  78  51  44
   3  78  51  86
   3  78  44  53
   3  78  44  51
   3  79  63  93
   3  79  63  14
   3  79  93  63
   3  79  93 118
   3  79 118 109
   3  79 118  93
   3  79 109  75
   3  79 109 118
   3  79  75  14
   3  79  75 109
   3  79  14  63
   3  79  14  75
   3  80  76 110
   3  80  76  15
   3  80 110  76
   3  80 110 119
   3  80 119  92
   3  80 119 110
   3  80  92 119
   3  80  92  37
   3  80  37  92
   3  80  37  15
   3  80  15  76
   3  80  15  37
   3  81  77 111
   3  81  77  52
   3  81 111  77
   3  81 111 121
   3  81 121  98
   3  81 121 111
   3  81  98  72
   3  81  98 121
   3  81  72  52
   3  81  72  98
   3  81  52  77
   3  81  52  72
   3  82  71  97
   3  82  71  53
   3  82  97  71
   3  82  97 122
   3  82 122 112
   3  82 122  97
   3  82 112  78
   3  82 112 122
   3  82  78  53
   3  82  78 112
   3  82  53  71
   3  82  53  78
   3  83  16  87
   3  83  16  20
   3  83  87 116
   3  83  87  16
   3  83 116  99
   3  83 116  87
   3  83  99  69
   3  83  99 116
   3  83  69  20
   3  83  69  99
   3  83  20  16
   3  83  20  69
   3  84  70 100
   3  84  70  21
   3  84 100  70
   3  84 100 117
   3  84 117  88
   3  84 117 100
   3  84  88 117
   3  84  88  17
   3  84  17  21
   3  84  17  88
   3  84  21  70
   3  84  21  17
   3  85  58 101
   3  85  58  50
   3  85 101  58
   3  85 101 127
   3  85 127 111
   3  85 127 101
   3  85 111  77
   3  85 111 127
   3  85  77  50
   3  85  77 111
   3  85  50  58
   3  85  50  77
   3  86  78 112
   3  86  78  51
   3  86 112  78
   3  86 112 128
   3  86 128 101
   3  86 128 112
   3  86 101  58
   3  86 101 128
   3  86  58  51
   3  86  58 101
   3  86  51  78
   3  86  51  58
   3  87  33 102
   3  87  33  16
   3  87 102 130
   3  87 102  33
   3  87 130 116
   3  87 130 102
   3  87 116  83
   3  87 116 130
   3  87  83  16
   3  87  83 116
   3  87  16  33
   3  87  16  83
   3  88  84 117
   3  88  84  17
   3  88 117  84
   3  88 117 131
   3  88 131 103
   3  88 131 117
   3  88 103 131
   3  88 103  34
   3  88  34 103
   3  88  34  17
   3  88  17  84
   3  88  17  34
   3  89  73  45
   3  89  73 123
   3  89  45  59
   3  89  45  73
   3  89  59  75
   3  89  59  45
   3  89  75 109
   3  89  75  59
   3  89 109  75
   3  89 109 123
   3  89 123  73
   3  89 123 109
   3  90  76  60
   3  90  76 110
   3  90  60  46
   3  90  60  76
   3  90  46  74
   3  90  46  60
   3  90  74  46
   3  90  74 124
   3  90 124 110
   3  90 124  74
   3  90 110  76
   3  90 110 124
   3  91  73 142
   3  91  73  45
   3  91 142  74
   3  91 142  73
   3  91  74  46
   3  91  74 142
   3  91  46  66
   3  91  46  74
   3  91  66 113
   3  91  66  46
   3  91 113  66
   3  91 113  65
   3  91  65  45
   3  91  65 113
   3  91  45  65
   3  91  45  73
   3  92  80 119
   3  92  80  37
   3  92 119  80
   3  92 119 133
   3  92 133  62
   3  92 133 119
   3  92  62  37
   3  92  62 133
   3  92  37  62
   3  92  37  80
   3  93  79  63
   3  93  79 118
   3  93  63  79
   3  93  63  62
   3  93  62 132
   3  93  62  63
   3  93 132 118
   3  93 132  62
   3  93 118  79
   3  93 118 132
   3  94 134 136
   3  94 134 139
   3  94 136 134
   3  94 136  96
   3  94  96 136
   3  94  96  56
   3  94  56  99
   3  94  56  96
   3  94  99  56
   3  94  99 139
   3  94 139 134
   3  94 139  99
   3  95 135 140
   3  95 135 136
   3  95 140 100
   3  95 140 135
   3  95 100  57
   3  95 100 140
   3  95  57  96
   3  95  57 100
   3  95  96 136
   3  95  96  57
   3  95 136 135
   3  95 136  96
   3  96  94 136
   3  96  94  56
   3  96 136  95
   3  96 136  94
   3  96  95  57
   3  96  95 136
   3  96  57   1
   3  96  57  95
   3  96   1 120
   3  96   1  57
   3  96 120   0
   3  96 120   1
   3  96   0  56
   3  96   0 120
   3  96  56   0
   3  96  56  94
   3  97  82  71
   3  97  82 122
   3  97  71  41
   3  97  71  82
   3  97  41 137
   3  97  41  71
   3  97 137 122
   3  97 137  41
   3  97 122  82
   3  97 122 137
   3  98  42  72
   3  98  42 138
   3  98  72  81
   3  98  72  42
   3  98  81 121
   3  98  81  72
   3  98 121  81
   3  98 121 138
   3  98 138  42
   3  98 138 121
   3  99  94  56
   3  99  94 139
   3  99  56  69
   3  99  56  94
   3  99  69  83
   3  99  69  56
   3  99  83 116
   3  99  83  69
   3  99 116  83
   3  99 116 139
   3  99 139  94
   3  99 139 116
   3 100  84  70
   3 100  84 117
   3 100  70  57
   3 100  70  84
   3 100  57  95
   3 100  57  70
   3 100  95 140
   3 100  95  57
   3 100 140 117
   3 100 140  95
   3 100 117  84
   3 100 117 140
   3 101  85  58
   3 101  85 127
   3 101  58  86
   3 101  58  85
   3 101  86 128
   3 101  86  58
   3 101 128  86
   3 101 128  55
   3 101  55 127
   3 101  55 128
   3 101 127  85
   3 101 127  55
   3 102  61  33
   4 102  61 125  48
   3 102  48 130
   4 102  48 116  87
   3 102 130  87
   3 102 130  48
   3 102  87  33
   3 102  87 130
   3 102  33  87
   3 102  33  61
   3 103  88 131
   3 103  88  34
   3 103 131  88
   3 103 131  54
   3 103  54 131
   4 103  54 126  61
   3 103  61  34
   4 103  61 126  54
   3 103  34  61
   3 103  34  88
   3 104  38 132
   4 104  38  47 105
   3 104 132  62
   3 104 132  38
   3 104  62 105
   3 104  62 132
   3 104 105  62
   4 104 105  47  38
   3 105  47 133
   4 105  47  38 104
   3 105 104  62
   4 105 104  38  47
   3 105  62 133
   3 105  62 104
   3 105 133  62
   3 105 133  47
   3 106  41 137
   4 106  41  42 107
   3 106 107  55
   4 106 107  42  41
   3 106  55 137
   3 106  55 107
   3 106 137  41
   3 106 137  55
   3 107  42 138
   4 107  42  41 106
   3 107 138  42
   3 107 138  55
   3 107  55 106
   3 107  55 138
   3 107 106  55
   4 107 106  41  42
   3 108  34  39
   3 108  34   9
   3 108  39  35
   3 108  39  34
   3 108  35  39
   3 108  35   2
   3 108   2  35
   3 108   2   9
   3 108   9  34
   3 108   9   2
   3 109  89  75
   3 109  89 123
   3 109  75  79
   3 109  75  89
   3 109  79 118
   3 109  79  75
   3 109 118  79
   3 109 118  38
   3 109  38 123
   3 109  38 118
   3 109 123  89
   3 109 123  38
   3 110  80  76
   3 110  80 119
   3 110  76  90
   3 110  76  80
   3 110  90  76
   3 110  90 124
   3 110 124  90
   3 110 124  47
   3 110  47 119
   3 110  47 124
   3 110 119  80
   3 110 119  47
   3 111  81  77
   3 111  81 121
   3 111  77  85
   3 111  77  81
   3 111  85 127
   3 111  85  77
   3 111 127  85
   3 111 127  55
   3 111  55 121
   3 111  55 127
   3 111 121  81
   3 111 121  55
   3 112  86  78
   3 112  86 128
   3 112  78  82
   3 112  78  86
   3 112  82 122
   3 112  82  78
   3 112 122  82
   3 112 122  55
   3 112  55 128
   3 112  55 122
   3 112 128  86
   3 112 128  55
   3 113  91  66
   3 113  91  65
   3 113  66   4
   3 113  66  91
   3 113   4 141
   3 113   4  66
   3 113 141   3
   3 113 141   4
   3 113   3  65
   3 113   3 141
   3 113  65   3
   3 113  65  91
   3 114  38 123
   4 114  38  47 115
   3 114 115 142
   4 114 115  47  38
   3 114 142 115
   3 114 142  73
   3 114  73 142
   3 114  73 123
   3 114 123  73
   3 114 123  38
   3 115  47 124
   4 115  47  38 114
   3 115 124  74
   3 115 124  47
   3 115  74 142
   3 115  74 124
   3 115 142 114
   3 115 142  74
   3 115 114 142
   4 115 114  38  47
   3 116  99  83
   3 116  99 139
   3 116  83  87
   3 116  83  99
   3 116  87 130
   3 116  87  83
   3 116 130  87
   3 116 130  48
   3 116  48 139
   3 116  48 130
   3 116 139  99
   3 116 139  48
   3 117  88  84
   3 117  88 131
   3 117  84 100
   3 117  84  88
   3 117 100  84
   3 117 100 140
   3 117 140 100
   3 117 140  54
   3 117  54 131
   3 117  54 140
   3 117 131  88
   3 117 131  54
   3 118 109  79
   3 118 109  38
   3 118  79  93
   3 118  79 109
   3 118  93  79
   3 118  93 132
   3 118 132  93
   3 118 132  38
   3 118  38 109
   3 118  38 132
   3 119  92  80
   3 119  92 133
   3 119  80 110
   3 119  80  92
   3 119 110  80
   3 119 110  47
   3 119  47 133
   3 119  47 110
   3 119 133  92
   3 119 133  47
   3 120   0  96
   3 120   0  28
   3 120  96   1
   3 120  96   0
   3 120   1  28
   3 120   1  96
   3 120  28   0
   3 120  28   1
   3 121  98  81
   3 121  98 138
   3 121  81 111
   3 121  81  98
   3 121 111  81
   3 121 111  55
   3 121  55 111
   3 121  55 138
   3 121 138  98
   3 121 138  55
   3 122 112  82
   3 122 112  55
   3 122  82  97
   3 122  82 112
   3 122  97  82
   3 122  97 137
   3 122 137  97
   3 122 137  55
   3 122  55 112
   3 122  55 137
   3 123 114  38
   3 123 114  73
   3 123  73 114
   3 123  73  89
   3 123  89  73
   3 123  89 109
   3 123 109  89
   3 123 109  38
   3 123  38 114
   3 123  38 109
   3 124 110  90
   3 124 110  47
   3 124  90  74
   3 124  90 110
   3 124  74 115
   3 124  74  90
   3 124 115  47
   3 124 115  74
   3 124  47 115
   3 124  47 110
   3 125  61 126
   4 125  61 102  48
   3 125 126  61
   4 125 126  54  48
   3 126 125  61
   4 126 125  48  54
   3 126  61 125
   4 126  61 103  54
   3 127 111  85
   3 127 111  55
   3 127  85 101
   3 127  85 111
   3 127 101  85
   3 127 101  55
   3 127  55 111
   3 127  55 101
   3 128 101  86
   3 128 101  55
   3 128  86 112
   3 128  86 101
   3 128 112  86
   3 128 112  55
   3 128  55 101
   3 128  55 112
   3 129  33  40
   3 129  33  61
   3 129  40  33
   3 129  40  72
   3 129  72  42
   3 129  72  40
   3 129  42  72
   4 129  42  41  30
   3 129  30  61
   4 129  30  41  42
   3 129  61  30
   3 129  61  33
   3 130 116  87
   3 130 116  48
   3 130  87 102
   3 130  87 116
   3 130 102  48
   3 130 102  87
   3 130  48 116
   3 130  48 102
   3 131 103  88
   3 131 103  54
   3 131  88 117
   3 131  88 103
   3 131 117  88
   3 131 117  54
   3 131  54 103
   3 131  54 117
   3 132 118  93
   3 132 118  38
   3 132  93  62
   3 132  93 118
   3 132  62 104
   3 132  62  93
   3 132 104  38
   3 132 104  62
   3 132  38 118
   3 132  38 104
   3 133 105  47
   3 133 105  62
   3 133  62  92
   3 133  62 105
   3 133  92 119
   3 133  92  62
   3 133 119  92
   3 133 119  47
   3 133  47 105
   3 133  47 119
   3 134  48 139
   4 134  48  54 135
   3 134 135 136
   4 134 135  54  48
   3 134 136 135
   3 134 136  94
   3 134  94 136
   3 134  94 139
   3 134 139  94
   3 134 139  48
   3 135  54 140
   4 135  54  48 134
   3 135 140  95
   3 135 140  54
   3 135  95 140
   3 135  95 136
   3 135 136 134
   3 135 136  95
   3 135 134 136
   4 135 134  48  54
   3 136 134 135
   3 136 134  94
   3 136 135  95
   3 136 135 134
   3 136  95 135
   3 136  95  96
   3 136  96  94
   3 136  96  95
   3 136  94 134
   3 136  94  96
   3 137 122  97
   3 137 122  55
   3 137  97  41
   3 137  97 122
   3 137  41 106
   3 137  41  97
   3 137 106  41
   3 137 106  55
   3 137  55 122
   3 137  55 106
   3 138 107  42
   3 138 107  55
   3 138  42 107
   3 138  42  98
   3 138  98  42
   3 138  98 121
   3 138 121  98
   3 138 121  55
   3 138  55 121
   3 138  55 107
   3 139 134  48
   3 139 134  94
   3 139  94 134
   3 139  94  99
   3 139  99  94
   3 139  99 116
   3 139 116  99
   3 139 116  48
   3 139  48 134
   3 139  48 116
   3 140 117 100
   3 140 117  54
   3 140 100  95
   3 140 100 117
   3 140  95 135
   3 140  95 100
   3 140 135  54
   3 140 135  95
   3 140  54 135
   3 140  54 117
   3 141   3  29
   3 141   3 113
   3 141 113   4
   3 141 113   3
   3 141   4  29
   3 141   4 113
   3 141  29   3
   3 141  29   4
   3 142 114 115
   3 142 114  73
   3 142 115  74
   3 142 115 114
   3 142  74  91
   3 142  74 115
   3 142  91  73
   3 142  91  74
   3 142  73 114
   3 142  73  91
