# Generated by dad_to_polygons. Vertex data from Humppa's .off file,
# polygons parsed from .dad file.
COFF
143 508 143
-6.599717 1.179390 6.644429 0.500000 0.500000 0.500000 1.0
-6.599718 -1.179389 6.644430 0.500000 0.500000 0.500000 1.0
-0.033130 -2.265322 6.319229 0.500000 0.500000 0.500000 1.0
7.477701 -1.079353 6.785778 0.500000 0.500000 0.500000 1.0
7.477701 1.079353 6.785778 0.500000 0.500000 0.500000 1.0
-0.033130 2.265322 6.319229 0.500000 0.500000 0.500000 1.0
1.148831 -1.947782 6.457022 0.500000 0.500000 0.500000 1.0
1.148831 1.947782 6.457022 0.500000 0.500000 0.500000 1.0
-1.166681 1.933736 6.424563 0.500000 0.500000 0.500000 1.0
-1.166681 -1.933736 6.424563 0.500000 0.500000 0.500000 1.0
2.060602 -1.632191 6.720745 0.500000 0.500000 0.500000 1.0
2.060602 1.632191 6.720745 0.500000 0.500000 0.500000 1.0
-2.083005 1.641342 6.698269 0.500000 0.500000 0.500000 1.0
-2.083005 -1.641342 6.698269 0.500000 0.500000 0.500000 1.0
3.031759 -1.775597 6.478527 0.500000 0.500000 0.500000 1.0
3.031758 1.775597 6.478525 0.500000 0.500000 0.500000 1.0
-3.031151 1.774884 6.410672 0.500000 0.500000 0.500000 1.0
-3.031151 -1.774884 6.410672 0.500000 0.500000 0.500000 1.0
4.100868 -1.669732 6.621598 0.500000 0.500000 0.500000 1.0
4.100868 1.669732 6.621598 0.500000 0.500000 0.500000 1.0
-4.079327 1.668352 6.572529 0.500000 0.500000 0.500000 1.0
-4.079327 -1.668352 6.572529 0.500000 0.500000 0.500000 1.0
5.088975 -1.445611 6.692398 0.500000 0.500000 0.500000 1.0
5.088975 1.445611 6.692398 0.500000 0.500000 0.500000 1.0
-5.077578 1.455840 6.616866 0.500000 0.500000 0.500000 1.0
-5.077578 -1.455840 6.616866 0.500000 0.500000 0.500000 1.0
6.076383 -1.299238 6.760213 0.500000 0.500000 0.500000 1.0
6.076383 1.299238 6.760213 0.500000 0.500000 0.500000 1.0
-7.780306 0.000142 6.656788 0.500000 0.500000 0.500000 1.0
8.557154 -0.000171 6.785640 0.500000 0.500000 0.500000 1.0
-1.692882 -0.916190 4.136288 0.500000 0.500000 0.500000 1.0
0.948769 -1.882175 5.069336 0.500000 0.500000 0.500000 1.0
0.948778 1.882173 5.069330 0.500000 0.500000 0.500000 1.0
-2.121914 1.627388 5.495142 0.500000 0.500000 0.500000 1.0
-2.121914 -1.627389 5.495142 0.500000 0.500000 0.500000 1.0
0.052634 -1.987136 4.907203 0.500000 0.500000 0.500000 1.0
0.052566 1.987298 4.907204 0.500000 0.500000 0.500000 1.0
2.120874 1.601265 5.577788 0.500000 0.500000 0.500000 1.0
3.524971 -0.619573 2.726269 1.0 1.0 0.0 1.0
-0.804439 -1.874340 4.430191 0.500000 0.500000 0.500000 1.0
-0.804439 1.874339 4.430191 0.500000 0.500000 0.500000 1.0
-1.403079 -0.987758 2.743584 0.500000 0.500000 0.500000 1.0
-1.403076 0.987760 2.743585 0.500000 0.500000 0.500000 1.0
0.828253 1.865608 4.009183 0.500000 0.500000 0.500000 1.0
0.828268 -1.865641 4.009173 0.500000 0.500000 0.500000 1.0
5.552405 -1.351116 5.806365 0.500000 0.500000 0.500000 1.0
5.552405 1.351117 5.806365 0.500000 0.500000 0.500000 1.0
3.524969 0.619574 2.726269 1.0 1.0 0.0 1.0
-3.499722 0.659753 2.981640 1.0 1.0 0.0 1.0
1.757502 -0.000005 4.532325 0.500000 0.500000 0.500000 1.0
1.173562 1.405873 3.696310 0.500000 0.500000 0.500000 1.0
1.173568 -1.405881 3.696329 0.500000 0.500000 0.500000 1.0
0.175893 1.901727 3.788539 0.500000 0.500000 0.500000 1.0
0.175924 -1.901735 3.788538 0.500000 0.500000 0.500000 1.0
-3.499722 -0.659753 2.981640 1.0 1.0 0.0 1.0
0.114642 -0.000001 1.030606 1.0 1.0 0.0 1.0
-5.249857 1.342930 5.599154 0.500000 0.500000 0.500000 1.0
-5.249857 -1.342930 5.599154 0.500000 0.500000 0.500000 1.0
1.353473 -0.000002 3.272756 0.500000 0.500000 0.500000 1.0
4.571510 -1.562947 5.911885 0.500000 0.500000 0.500000 1.0
4.571417 1.562933 5.911872 0.500000 0.500000 0.500000 1.0
-2.121961 -0.000001 4.610429 0.500000 0.500000 0.500000 1.0
2.134209 -0.000006 4.823621 0.500000 0.500000 0.500000 1.0
2.120914 -1.601277 5.577805 0.500000 0.500000 0.500000 1.0
1.305640 1.761423 4.750893 0.500000 0.500000 0.500000 1.0
6.708680 -1.152326 6.131780 0.500000 0.500000 0.500000 1.0
6.708680 1.152326 6.131780 0.500000 0.500000 0.500000 1.0
1.305661 -1.761413 4.750874 0.500000 0.500000 0.500000 1.0
-0.974696 1.899902 5.342218 0.500000 0.500000 0.500000 1.0
-4.562966 1.565319 5.876422 0.500000 0.500000 0.500000 1.0
-4.562966 -1.565319 5.876422 0.500000 0.500000 0.500000 1.0
-0.565672 -1.667349 3.401253 0.500000 0.500000 0.500000 1.0
-0.565669 1.667351 3.401254 0.500000 0.500000 0.500000 1.0
5.345745 -1.023314 4.558505 0.500000 0.500000 0.500000 1.0
5.345745 1.023315 4.558505 0.500000 0.500000 0.500000 1.0
4.083821 -1.642098 5.390142 0.500000 0.500000 0.500000 1.0
4.083904 1.642053 5.390151 0.500000 0.500000 0.500000 1.0
0.745934 1.708425 3.048674 0.500000 0.500000 0.500000 1.0
0.746040 -1.708513 3.048673 0.500000 0.500000 0.500000 1.0
3.120713 -1.664072 5.026848 0.500000 0.500000 0.500000 1.0
3.120731 1.664036 5.026862 0.500000 0.500000 0.500000 1.0
0.237243 1.746995 2.707754 0.500000 0.500000 0.500000 1.0
0.237245 -1.747002 2.707756 0.500000 0.500000 0.500000 1.0
-4.050225 1.628196 5.426634 0.500000 0.500000 0.500000 1.0
-4.050225 -1.628196 5.426634 0.500000 0.500000 0.500000 1.0
1.060656 1.136195 2.726021 0.500000 0.500000 0.500000 1.0
1.060659 -1.136200 2.726016 0.500000 0.500000 0.500000 1.0
-3.124189 1.642003 4.962593 0.500000 0.500000 0.500000 1.0
-3.124189 -1.642004 4.962593 0.500000 0.500000 0.500000 1.0
4.578004 -1.537497 4.838973 0.500000 0.500000 0.500000 1.0
4.578004 1.537498 4.838973 0.500000 0.500000 0.500000 1.0
6.285187 0.000000 5.330346 0.500000 0.500000 0.500000 1.0
2.532527 1.180121 4.621008 0.500000 0.500000 0.500000 1.0
2.532351 -1.180224 4.620987 0.500000 0.500000 0.500000 1.0
-5.069704 1.070432 4.462533 0.500000 0.500000 0.500000 1.0
-5.069704 -1.070432 4.462533 0.500000 0.500000 0.500000 1.0
-6.072219 0.000000 5.426305 0.500000 0.500000 0.500000 1.0
-0.450738 -1.516735 2.341843 1.000000 1.000000 1.000000 1.0
-0.450718 1.516733 2.341856 1.000000 1.000000 1.000000 1.0
-4.517820 1.506986 4.701315 0.500000 0.500000 0.500000 1.0
-4.517820 -1.506986 4.701315 0.500000 0.500000 0.500000 1.0
1.180659 -0.000003 2.444815 1.000000 1.000000 1.000000 1.0
-2.571140 1.234050 4.610265 0.500000 0.500000 0.500000 1.0
-2.571194 -1.234102 4.610262 0.500000 0.500000 0.500000 1.0
2.467819 -0.384062 3.476593 0.500000 0.500000 0.500000 1.0
2.467809 0.384081 3.476604 0.500000 0.500000 0.500000 1.0
-1.425716 -0.876936 1.845707 1.000000 1.000000 1.000000 1.0
-1.425720 0.876932 1.845710 1.000000 1.000000 1.000000 1.0
-0.974696 -1.899902 5.342218 0.500000 0.500000 0.500000 1.0
4.009616 -1.591110 4.368175 0.500000 0.500000 0.500000 1.0
4.009612 1.591108 4.368171 0.500000 0.500000 0.500000 1.0
0.704218 1.449183 2.106992 1.000000 1.000000 1.000000 1.0
0.704221 -1.449185 2.106994 1.000000 1.000000 1.000000 1.0
6.898758 -0.000000 5.487488 1.0 1.0 0.0 1.0
4.779901 -0.950309 3.451579 0.500000 0.500000 0.500000 1.0
4.779900 0.950308 3.451579 0.500000 0.500000 0.500000 1.0
-3.941443 1.548484 4.404862 0.500000 0.500000 0.500000 1.0
-3.941443 -1.548484 4.404862 0.500000 0.500000 0.500000 1.0
3.239311 -1.466661 4.080141 0.500000 0.500000 0.500000 1.0
3.239314 1.466663 4.080133 0.500000 0.500000 0.500000 1.0
-6.850656 0.000001 5.681186 1.0 1.0 0.0 1.0
0.143153 1.449848 1.776235 1.000000 1.000000 1.000000 1.0
0.143169 -1.449864 1.776272 1.000000 1.000000 1.000000 1.0
4.379189 -1.386052 3.885581 0.500000 0.500000 0.500000 1.0
4.379188 1.386050 3.885582 0.500000 0.500000 0.500000 1.0
-2.392552 0.323290 3.663556 0.500000 0.500000 0.500000 1.0
-2.392551 -0.323290 3.663558 0.500000 0.500000 0.500000 1.0
0.934441 0.754989 1.918024 1.000000 1.000000 1.000000 1.0
0.934442 -0.754988 1.918017 1.000000 1.000000 1.000000 1.0
-1.692878 0.916187 4.136284 0.500000 0.500000 0.500000 1.0
-3.209621 1.396236 4.078240 0.500000 0.500000 0.500000 1.0
-3.209625 -1.396237 4.078240 0.500000 0.500000 0.500000 1.0
2.890282 -1.107903 3.765388 0.500000 0.500000 0.500000 1.0
2.890205 1.107926 3.765379 0.500000 0.500000 0.500000 1.0
-4.566081 0.833283 3.675886 0.500000 0.500000 0.500000 1.0
-4.566081 -0.833283 3.675886 0.500000 0.500000 0.500000 1.0
-5.255866 0.000000 4.391568 0.500000 0.500000 0.500000 1.0
-0.296438 -0.914399 1.637577 1.000000 1.000000 1.000000 1.0
-0.296441 0.914398 1.637570 1.000000 1.000000 1.000000 1.0
-4.215055 1.166856 3.827296 0.500000 0.500000 0.500000 1.0
-4.215056 -1.166856 3.827296 0.500000 0.500000 0.500000 1.0
7.749725 -0.000000 6.181577 0.500000 0.500000 0.500000 1.0
5.445696 0.000000 4.485562 0.500000 0.500000 0.500000 1.0
3 0 96 120
3 0 120 96
3 1 57 25
3 1 25 57
3 1 96 57
3 1 57 96
3 1 120 28
3 1 28 120
3 1 120 96
3 1 96 120
3 2 35 31
3 2 31 35
3 3 113 65
3 3 65 113
3 4 29 141
3 4 141 29
3 4 113 66
3 4 66 113
3 4 141 113
3 4 113 141
3 5 68 36
3 5 36 68
3 6 10 63
3 6 63 10
3 7 5 32
3 7 32 5
3 7 32 37
3 7 37 32
3 8 12 33
3 8 33 12
3 8 68 5
3 8 5 68
3 8 68 33
3 8 33 68
3 9 108 2
3 9 2 108
3 11 7 37
3 11 37 7
3 12 33 16
3 12 16 33
3 13 34 9
3 13 9 34
3 15 11 37
3 15 37 11
3 16 87 83
3 16 83 87
3 17 34 88
3 17 88 34
3 18 14 75
3 18 75 14
3 18 22 59
3 18 59 22
3 18 75 59
3 18 59 75
3 19 76 15
3 19 15 76
3 20 16 83
3 20 83 16
3 21 84 17
3 21 17 84
3 22 45 26
3 22 26 45
3 23 27 46
3 23 46 27
3 23 60 19
3 23 19 60
3 24 20 69
3 24 69 20
3 24 56 0
3 24 0 56
3 25 57 70
3 25 70 57
3 25 70 21
3 25 21 70
3 26 45 65
3 26 65 45
3 27 4 66
3 27 66 4
3 27 66 46
3 27 46 66
3 28 120 0
3 28 0 120
3 29 3 141
3 29 141 3
3 30 34 61
3 30 61 34
3 30 41 42
3 30 42 41
3 30 41 71
3 30 71 41
3 30 42 129
3 30 129 42
3 30 71 39
3 30 39 71
3 31 2 6
3 31 6 2
3 31 67 63
3 31 63 67
3 32 5 36
3 32 36 5
3 32 43 36
3 32 36 43
3 32 43 64
3 32 64 43
3 33 16 87
3 33 87 16
3 33 40 129
3 33 129 40
3 33 61 102
3 33 102 61
3 33 87 102
3 33 102 87
3 34 17 13
3 34 13 17
3 34 30 39
3 34 39 30
3 34 39 108
3 34 108 39
3 34 103 61
3 34 61 103
3 35 31 44
3 35 44 31
3 35 39 53
3 35 53 39
3 35 108 39
3 35 39 108
3 36 68 40
3 36 40 68
3 37 32 64
3 37 64 32
3 37 92 62
3 37 62 92
3 38 47 105
3 38 105 47
3 38 47 115
3 38 115 47
3 38 105 104
3 38 104 105
3 38 109 123
3 38 123 109
3 38 114 123
3 38 123 114
3 38 115 114
3 38 114 115
3 38 132 118
3 38 118 132
3 40 36 52
3 40 52 36
3 40 52 72
3 40 72 52
3 40 68 33
3 40 33 68
3 40 72 129
3 40 129 72
3 41 97 137
3 41 137 97
3 41 106 107
3 41 107 106
3 41 107 42
3 41 42 107
3 41 137 106
3 41 106 137
3 42 72 129
3 42 129 72
3 42 107 138
3 42 138 107
3 43 36 52
3 43 52 36
3 43 64 50
3 43 50 64
3 43 77 52
3 43 52 77
3 44 51 67
3 44 67 51
3 44 53 78
3 44 78 53
3 44 67 31
3 44 31 67
3 44 78 51
3 44 51 78
3 45 89 73
3 45 73 89
3 45 91 65
3 45 65 91
3 46 23 60
3 46 60 23
3 46 60 90
3 46 90 60
3 46 74 90
3 46 90 74
3 47 110 119
3 47 119 110
3 48 54 126
3 48 126 54
3 48 116 139
3 48 139 116
3 48 126 125
3 48 125 126
3 49 37 62
3 49 62 37
3 49 37 64
3 49 64 37
3 49 50 58
3 49 58 50
3 49 50 64
3 49 64 50
3 49 58 51
3 49 51 58
3 49 62 63
3 49 63 62
3 50 77 43
3 50 43 77
3 50 85 77
3 50 77 85
3 51 58 86
3 51 86 58
3 51 78 86
3 51 86 78
3 52 72 81
3 52 81 72
3 53 39 71
3 53 71 39
3 53 44 35
3 53 35 44
3 53 71 82
3 53 82 71
3 53 78 82
3 53 82 78
3 54 48 134
3 54 134 48
3 54 61 126
3 54 126 61
3 54 103 61
3 54 61 103
3 54 117 131
3 54 131 117
3 54 117 140
3 54 140 117
3 54 134 135
3 54 135 134
3 54 135 140
3 54 140 135
3 55 106 107
3 55 107 106
3 55 111 121
3 55 121 111
3 55 112 128
3 55 128 112
3 55 121 138
3 55 138 121
3 55 122 112
3 55 112 122
3 55 127 101
3 55 101 127
3 55 127 111
3 55 111 127
3 55 137 122
3 55 122 137
3 56 69 24
3 56 24 69
3 56 94 99
3 56 99 94
3 56 96 0
3 56 0 96
3 56 99 69
3 56 69 99
3 57 95 100
3 57 100 95
3 57 96 95
3 57 95 96
3 57 100 70
3 57 70 100
3 58 86 101
3 58 101 86
3 59 45 22
3 59 22 45
3 59 75 89
3 59 89 75
3 59 89 45
3 59 45 89
3 60 76 19
3 60 19 76
3 60 90 76
3 60 76 90
3 61 129 33
3 61 33 129
3 62 93 63
3 62 63 93
3 62 104 132
3 62 132 104
3 62 133 92
3 62 92 133
3 62 133 105
3 62 105 133
3 63 14 10
3 63 10 14
3 63 14 79
3 63 79 14
3 63 31 6
3 63 6 31
3 63 79 93
3 63 93 79
3 65 3 26
3 65 26 3
3 66 46 91
3 66 91 46
3 66 91 113
3 66 113 91
3 67 49 63
3 67 63 49
3 67 51 49
3 67 49 51
3 69 83 20
3 69 20 83
3 69 83 99
3 69 99 83
3 70 21 84
3 70 84 21
3 70 84 100
3 70 100 84
3 71 97 82
3 71 82 97
3 72 98 42
3 72 42 98
3 73 45 91
3 73 91 45
3 73 123 114
3 73 114 123
3 73 142 91
3 73 91 142
3 74 90 124
3 74 124 90
3 74 91 46
3 74 46 91
3 74 115 124
3 74 124 115
3 74 115 142
3 74 142 115
3 74 142 91
3 74 91 142
3 75 79 109
3 75 109 79
3 76 15 80
3 76 80 15
3 76 90 110
3 76 110 90
3 79 75 14
3 79 14 75
3 79 109 118
3 79 118 109
3 80 37 15
3 80 15 37
3 80 37 92
3 80 92 37
3 80 92 119
3 80 119 92
3 80 110 76
3 80 76 110
3 81 77 52
3 81 52 77
3 81 98 72
3 81 72 98
3 81 121 98
3 81 98 121
3 82 122 97
3 82 97 122
3 83 87 116
3 83 116 87
3 83 99 116
3 83 116 99
3 84 17 88
3 84 88 17
3 84 100 117
3 84 117 100
3 85 58 50
3 85 50 58
3 85 77 111
3 85 111 77
3 85 101 58
3 85 58 101
3 85 127 111
3 85 111 127
3 86 101 128
3 86 128 101
3 86 128 112
3 86 112 128
3 87 130 102
3 87 102 130
3 87 130 116
3 87 116 130
3 88 84 117
3 88 117 84
3 88 103 34
3 88 34 103
3 88 131 103
3 88 103 131
3 88 131 117
3 88 117 131
3 89 73 123
3 89 123 73
3 89 109 75
3 89 75 109
3 89 123 109
3 89 109 123
3 90 124 110
3 90 110 124
3 91 65 113
3 91 113 65
3 92 119 133
3 92 133 119
3 93 62 132
3 93 132 62
3 93 118 79
3 93 79 118
3 94 139 99
3 94 99 139
3 94 139 134
3 94 134 139
3 95 136 135
3 95 135 136
3 96 94 56
3 96 56 94
3 96 95 136
3 96 136 95
3 96 136 94
3 96 94 136
3 97 41 71
3 97 71 41
3 97 137 122
3 97 122 137
3 99 139 116
3 99 116 139
3 100 95 140
3 100 140 95
3 100 140 117
3 100 117 140
3 101 127 85
3 101 85 127
3 102 48 130
3 102 130 48
3 102 61 125
3 102 125 61
3 102 125 48
3 102 48 125
3 103 54 131
3 103 131 54
3 104 132 38
3 104 38 132
3 105 62 104
3 105 104 62
3 105 133 47
3 105 47 133
3 108 2 35
3 108 35 2
3 108 34 9
3 108 9 34
3 109 38 118
3 109 118 38
3 110 119 80
3 110 80 119
3 110 124 47
3 110 47 124
3 111 81 77
3 111 77 81
3 111 121 81
3 111 81 121
3 112 78 82
3 112 82 78
3 112 78 86
3 112 86 78
3 112 122 82
3 112 82 122
3 114 115 142
3 114 142 115
3 114 142 73
3 114 73 142
3 115 124 47
3 115 47 124
3 119 47 133
3 119 133 47
3 121 138 98
3 121 98 138
3 126 61 125
3 126 125 61
3 128 101 55
3 128 55 101
3 129 30 61
3 129 61 30
3 130 48 116
3 130 116 48
3 132 93 118
3 132 118 93
3 134 135 136
3 134 136 135
3 134 136 94
3 134 94 136
3 137 55 106
3 137 106 55
3 138 42 98
3 138 98 42
3 138 55 107
3 138 107 55
3 139 48 134
3 139 134 48
3 140 135 95
3 140 95 135
3 141 113 3
3 141 3 113
