# Generated by dad_to_polygons. Vertex data from Humppa's .off file,
# polygons parsed from .dad file.
COFF
157 564 157
-6.641644 1.260140 6.953479 0.500000 0.500000 0.500000 1.0
-6.641646 -1.260138 6.953479 0.500000 0.500000 0.500000 1.0
-0.033776 -2.324794 6.653607 0.500000 0.500000 0.500000 1.0
7.521430 -1.166154 7.091658 0.500000 0.500000 0.500000 1.0
7.521430 1.166154 7.091658 0.500000 0.500000 0.500000 1.0
-0.033777 2.324817 6.653585 0.500000 0.500000 0.500000 1.0
1.161894 -2.005950 6.792184 0.500000 0.500000 0.500000 1.0
1.161894 2.005951 6.792184 0.500000 0.500000 0.500000 1.0
-1.178549 1.992539 6.758962 0.500000 0.500000 0.500000 1.0
-1.178535 -1.992508 6.758994 0.500000 0.500000 0.500000 1.0
2.070029 -1.687158 7.064704 0.500000 0.500000 0.500000 1.0
2.070029 1.687158 7.064704 0.500000 0.500000 0.500000 1.0
-2.092051 1.698211 7.040145 0.500000 0.500000 0.500000 1.0
-2.092054 -1.698209 7.040147 0.500000 0.500000 0.500000 1.0
3.030075 -1.844602 6.803253 0.500000 0.500000 0.500000 1.0
3.030080 1.844603 6.803257 0.500000 0.500000 0.500000 1.0
-3.030813 1.848069 6.730535 0.500000 0.500000 0.500000 1.0
-3.030813 -1.848072 6.730531 0.500000 0.500000 0.500000 1.0
4.110640 -1.729338 6.956666 0.500000 0.500000 0.500000 1.0
4.110640 1.729338 6.956665 0.500000 0.500000 0.500000 1.0
-4.089263 1.730865 6.904142 0.500000 0.500000 0.500000 1.0
-4.089263 -1.730865 6.904141 0.500000 0.500000 0.500000 1.0
5.098813 -1.506338 7.030196 0.500000 0.500000 0.500000 1.0
5.098813 1.506338 7.030196 0.500000 0.500000 0.500000 1.0
-5.089810 1.518727 6.951241 0.500000 0.500000 0.500000 1.0
-5.089810 -1.518727 6.951241 0.500000 0.500000 0.500000 1.0
6.088130 -1.370012 7.090608 0.500000 0.500000 0.500000 1.0
6.088130 1.370012 7.090608 0.500000 0.500000 0.500000 1.0
-7.903791 -0.000057 6.956560 0.500000 0.500000 0.500000 1.0
8.689178 -0.000143 7.112360 0.500000 0.500000 0.500000 1.0
-1.671127 -0.791734 4.407825 0.500000 0.500000 0.500000 1.0
0.962830 -1.925268 5.300030 1.0 1.0 0.0 1.0
0.962830 1.925272 5.300041 1.0 1.0 0.0 1.0
-2.133131 1.695908 5.801718 0.500000 0.500000 0.500000 1.0
-2.137139 -1.693943 5.807673 0.500000 0.500000 0.500000 1.0
0.047389 -2.033890 5.198713 0.500000 0.500000 0.500000 1.0
0.047316 2.034063 5.198876 0.500000 0.500000 0.500000 1.0
2.124026 1.666905 5.877640 0.500000 0.500000 0.500000 1.0
3.540344 -0.619620 2.726269 1.0 1.0 0.0 1.0
-0.843427 -1.907750 4.709133 0.500000 0.500000 0.500000 1.0
-0.818759 1.926516 4.731149 0.500000 0.500000 0.500000 1.0
-1.356414 -0.921548 2.956852 0.500000 0.500000 0.500000 1.0
-1.386775 1.021711 2.956953 0.500000 0.500000 0.500000 1.0
0.852066 1.895109 4.280757 0.500000 0.500000 0.500000 1.0
0.851927 -1.895058 4.280792 0.500000 0.500000 0.500000 1.0
5.566651 -1.417315 6.112599 0.500000 0.500000 0.500000 1.0
5.566678 1.417310 6.112625 0.500000 0.500000 0.500000 1.0
3.540341 0.619620 2.726269 1.0 1.0 0.0 1.0
-3.511871 0.659892 2.981640 1.0 1.0 0.0 1.0
1.803284 -0.000009 4.715306 0.500000 0.500000 0.500000 1.0
1.191943 1.452971 3.958790 0.500000 0.500000 0.500000 1.0
1.191718 -1.453241 3.959149 0.500000 0.500000 0.500000 1.0
0.182159 1.942342 4.057079 0.500000 0.500000 0.500000 1.0
0.171113 -1.937567 4.056924 0.500000 0.500000 0.500000 1.0
-3.511887 -0.659787 2.981640 1.0 1.0 0.0 1.0
0.129803 -0.000292 1.030606 1.0 1.0 0.0 1.0
-5.264794 1.406705 5.919816 0.500000 0.500000 0.500000 1.0
-5.264798 -1.406703 5.919814 0.500000 0.500000 0.500000 1.0
1.379086 0.000005 3.520064 0.500000 0.500000 0.500000 1.0
4.581233 -1.623102 6.222303 0.500000 0.500000 0.500000 1.0
4.581140 1.623091 6.222288 0.500000 0.500000 0.500000 1.0
-2.350498 0.001322 4.775998 0.500000 0.500000 0.500000 1.0
2.129425 -0.000010 5.062408 0.500000 0.500000 0.500000 1.0
2.124041 -1.666908 5.877615 0.500000 0.500000 0.500000 1.0
1.346005 1.768662 5.005401 0.500000 0.500000 0.500000 1.0
6.749593 -1.228204 6.399175 0.500000 0.500000 0.500000 1.0
6.749593 1.228204 6.399175 0.500000 0.500000 0.500000 1.0
1.345989 -1.768664 5.005365 0.500000 0.500000 0.500000 1.0
-0.983385 1.947883 5.588552 1.0 1.0 0.0 1.0
-4.573453 1.628035 6.186852 0.500000 0.500000 0.500000 1.0
-4.573456 -1.628036 6.186854 0.500000 0.500000 0.500000 1.0
-0.614675 -1.656027 3.668443 0.500000 0.500000 0.500000 1.0
-0.589852 1.707551 3.657288 0.500000 0.500000 0.500000 1.0
5.371571 -1.079813 4.861380 0.500000 0.500000 0.500000 1.0
5.371574 1.079811 4.861378 0.500000 0.500000 0.500000 1.0
4.093896 -1.703589 5.700501 0.500000 0.500000 0.500000 1.0
4.093971 1.703544 5.700513 0.500000 0.500000 0.500000 1.0
0.765009 1.746400 3.306612 0.500000 0.500000 0.500000 1.0
0.762028 -1.744724 3.308129 0.500000 0.500000 0.500000 1.0
3.120180 -1.728194 5.318939 0.500000 0.500000 0.500000 1.0
3.120200 1.728202 5.318943 0.500000 0.500000 0.500000 1.0
0.247779 1.787551 2.947425 0.500000 0.500000 0.500000 1.0
0.240184 -1.772357 2.948384 0.500000 0.500000 0.500000 1.0
-4.066593 1.697847 5.719679 0.500000 0.500000 0.500000 1.0
-4.066594 -1.697848 5.719676 0.500000 0.500000 0.500000 1.0
1.070772 1.177661 2.972368 1.000000 1.000000 1.000000 1.0
1.070493 -1.177219 2.972763 1.000000 1.000000 1.000000 1.0
-3.116352 1.723809 5.232237 0.500000 0.500000 0.500000 1.0
-3.116240 -1.723578 5.230921 0.500000 0.500000 0.500000 1.0
4.609597 -1.607627 5.128874 0.500000 0.500000 0.500000 1.0
4.609476 1.607743 5.128850 0.500000 0.500000 0.500000 1.0
6.245426 0.000000 5.581507 0.500000 0.500000 0.500000 1.0
2.569233 1.229143 4.835097 0.500000 0.500000 0.500000 1.0
2.569317 -1.229186 4.835099 0.500000 0.500000 0.500000 1.0
-5.119977 1.139809 4.761190 0.500000 0.500000 0.500000 1.0
-5.119963 -1.139813 4.761166 0.500000 0.500000 0.500000 1.0
-6.121611 0.000001 5.674350 0.500000 0.500000 0.500000 1.0
-0.451740 -1.523606 2.544576 1.000000 1.000000 1.000000 1.0
-0.445260 1.556485 2.537508 1.000000 1.000000 1.000000 1.0
-4.569463 1.581829 4.994668 0.500000 0.500000 0.500000 1.0
-4.569460 -1.581830 4.994670 0.500000 0.500000 0.500000 1.0
1.195126 0.000115 2.626417 1.000000 1.000000 1.000000 1.0
-2.678904 1.473249 4.841532 0.500000 0.500000 0.500000 1.0
-2.673749 -1.470986 4.837460 0.500000 0.500000 0.500000 1.0
2.530226 -0.494085 3.558331 0.500000 0.500000 0.500000 1.0
2.530210 0.494088 3.558334 0.500000 0.500000 0.500000 1.0
-1.470630 -0.904433 2.084552 1.000000 1.000000 1.000000 1.0
-1.501163 0.765158 2.068458 1.000000 1.000000 1.000000 1.0
-0.987874 -1.946960 5.590190 1.0 1.0 0.0 1.0
4.040292 -1.669743 4.629417 0.500000 0.500000 0.500000 1.0
4.040231 1.669786 4.629413 0.500000 0.500000 0.500000 1.0
0.697183 1.550753 2.336371 1.000000 1.000000 1.000000 1.0
0.694106 -1.546981 2.336402 1.000000 1.000000 1.000000 1.0
6.976853 -0.000000 5.487488 1.0 1.0 0.0 1.0
4.991863 -0.951552 3.695102 0.500000 0.500000 0.500000 1.0
4.991861 0.951552 3.695102 0.500000 0.500000 0.500000 1.0
-4.024727 1.644899 4.651310 0.500000 0.500000 0.500000 1.0
-4.024534 -1.644900 4.651292 0.500000 0.500000 0.500000 1.0
3.280438 -1.541113 4.299940 0.500000 0.500000 0.500000 1.0
3.280320 1.541208 4.299933 0.500000 0.500000 0.500000 1.0
-6.941980 0.000003 5.681186 1.0 1.0 0.0 1.0
0.187653 1.587108 1.962455 1.000000 1.000000 1.000000 1.0
0.189879 -1.581617 1.962239 1.000000 1.000000 1.000000 1.0
4.518829 -1.458272 4.053626 0.500000 0.500000 0.500000 1.0
4.518827 1.458274 4.053627 0.500000 0.500000 0.500000 1.0
-2.510729 0.370149 3.730106 0.500000 0.500000 0.500000 1.0
-2.516884 -0.360126 3.730022 0.500000 0.500000 0.500000 1.0
0.971254 0.907649 2.118579 1.000000 1.000000 1.000000 1.0
0.970959 -0.907211 2.118758 1.000000 1.000000 1.000000 1.0
-1.713974 0.977585 4.420759 0.500000 0.500000 0.500000 1.0
-3.242972 1.559912 4.294218 0.500000 0.500000 0.500000 1.0
-3.241854 -1.559908 4.294656 0.500000 0.500000 0.500000 1.0
2.816188 -1.155210 4.082441 0.500000 0.500000 0.500000 1.0
2.816245 1.154970 4.082441 0.500000 0.500000 0.500000 1.0
-4.755594 0.911677 3.839251 0.500000 0.500000 0.500000 1.0
-4.755588 -0.911679 3.839253 0.500000 0.500000 0.500000 1.0
-5.412622 0.000001 4.625973 0.500000 0.500000 0.500000 1.0
-0.416665 -1.254956 1.788424 1.000000 1.000000 1.000000 1.0
-0.479286 1.239930 1.805690 1.000000 1.000000 1.000000 1.0
-4.415503 1.342653 4.003815 0.500000 0.500000 0.500000 1.0
-4.415432 -1.342647 4.003839 0.500000 0.500000 0.500000 1.0
7.912105 -0.000000 6.474367 0.500000 0.500000 0.500000 1.0
5.645225 0.000000 4.693863 0.500000 0.500000 0.500000 1.0
3.890500 -1.382426 3.696091 0.500000 0.500000 0.500000 1.0
3.890491 1.382426 3.696092 0.500000 0.500000 0.500000 1.0
-2.935704 -1.152465 3.965583 0.500000 0.500000 0.500000 1.0
-2.941467 1.156246 3.964528 0.500000 0.500000 0.500000 1.0
-0.968734 -0.491503 1.464142 1.000000 1.000000 1.000000 1.0
-0.928236 0.443893 1.464143 1.000000 1.000000 1.000000 1.0
0.538817 0.915329 1.647245 1.000000 1.000000 1.000000 1.0
0.541697 -0.912374 1.647030 1.000000 1.000000 1.000000 1.0
1.985773 0.848938 5.313133 0.500000 0.500000 0.500000 1.0
1.985780 -0.848965 5.313107 0.500000 0.500000 0.500000 1.0
7.285108 -0.636539 6.293583 0.500000 0.500000 0.500000 1.0
7.285108 0.636539 6.293583 0.500000 0.500000 0.500000 1.0
-3.772016 1.158682 3.814879 0.500000 0.500000 0.500000 1.0
-3.771850 -1.158648 3.814888 0.500000 0.500000 0.500000 1.0
3 0 56 24
3 0 24 56
3 0 56 96
3 0 96 56
3 1 57 25
3 1 25 57
3 1 96 57
3 1 57 96
3 1 120 96
3 1 96 120
3 2 9 108
3 2 108 9
3 2 108 35
3 2 35 108
3 3 141 29
3 3 29 141
3 3 153 141
3 3 141 153
3 4 66 27
3 4 27 66
3 7 32 5
3 7 5 32
3 7 37 11
3 7 11 37
3 8 12 33
3 8 33 12
3 8 33 68
3 8 68 33
3 8 68 5
3 8 5 68
3 9 34 108
3 9 108 34
3 10 63 6
3 10 6 63
3 12 33 16
3 12 16 33
3 13 17 34
3 13 34 17
3 13 34 9
3 13 9 34
3 14 63 79
3 14 79 63
3 14 75 18
3 14 18 75
3 14 79 75
3 14 75 79
3 15 37 11
3 15 11 37
3 15 80 76
3 15 76 80
3 19 76 15
3 19 15 76
3 20 69 24
3 20 24 69
3 21 84 17
3 21 17 84
3 22 59 18
3 22 18 59
3 23 27 46
3 23 46 27
3 23 46 60
3 23 60 46
3 23 60 19
3 23 19 60
3 25 70 21
3 25 21 70
3 30 39 71
3 30 71 39
3 30 61 129
3 30 129 61
3 30 71 41
3 30 41 71
3 31 2 6
3 31 6 2
3 31 6 63
3 31 63 6
3 31 35 2
3 31 2 35
3 31 44 35
3 31 35 44
3 31 63 67
3 31 67 63
3 31 67 44
3 31 44 67
3 32 5 36
3 32 36 5
3 32 64 43
3 32 43 64
3 33 16 87
3 33 87 16
3 33 40 68
3 33 68 40
3 33 129 40
3 33 40 129
3 34 30 39
3 34 39 30
3 34 30 61
3 34 61 30
3 34 61 103
3 34 103 61
3 34 88 17
3 34 17 88
3 34 108 39
3 34 39 108
3 35 53 39
3 35 39 53
3 36 32 43
3 36 43 32
3 36 43 52
3 36 52 43
3 36 68 5
3 36 5 68
3 37 32 7
3 37 7 32
3 37 32 64
3 37 64 32
3 37 64 151
3 37 151 64
3 37 80 92
3 37 92 80
3 38 104 105
3 38 105 104
3 38 105 47
3 38 47 105
3 38 114 123
3 38 123 114
3 38 123 143
3 38 143 123
3 38 132 104
3 38 104 132
3 38 143 118
3 38 118 143
3 40 36 52
3 40 52 36
3 40 68 36
3 40 36 68
3 40 129 72
3 40 72 129
3 41 42 129
3 41 129 42
3 41 97 71
3 41 71 97
3 41 97 137
3 41 137 97
3 41 129 30
3 41 30 129
3 42 72 98
3 42 98 72
3 42 98 138
3 42 138 98
3 42 106 41
3 42 41 106
3 42 107 106
3 42 106 107
3 42 129 72
3 42 72 129
3 43 64 50
3 43 50 64
3 43 77 52
3 43 52 77
3 44 51 78
3 44 78 51
3 44 53 35
3 44 35 53
3 44 67 51
3 44 51 67
3 44 78 53
3 44 53 78
3 45 22 26
3 45 26 22
3 45 22 59
3 45 59 22
3 45 65 26
3 45 26 65
3 45 73 89
3 45 89 73
3 45 91 65
3 45 65 91
3 46 60 90
3 46 90 60
3 46 66 27
3 46 27 66
3 46 66 91
3 46 91 66
3 47 114 38
3 47 38 114
3 47 115 114
3 47 114 115
3 47 119 144
3 47 144 119
3 47 124 144
3 47 144 124
3 47 133 105
3 47 105 133
3 47 133 119
3 47 119 133
3 48 54 126
3 48 126 54
3 48 126 125
3 48 125 126
3 48 130 155
3 48 155 130
3 48 134 135
3 48 135 134
3 48 135 54
3 48 54 135
3 48 139 134
3 48 134 139
3 49 64 151
3 49 151 64
3 49 67 152
3 49 152 67
3 49 151 62
3 49 62 151
3 49 152 62
3 49 62 152
3 50 49 58
3 50 58 49
3 50 49 64
3 50 64 49
3 50 58 85
3 50 85 58
3 50 77 43
3 50 43 77
3 50 85 77
3 50 77 85
3 51 78 86
3 51 86 78
3 51 86 58
3 51 58 86
3 52 72 40
3 52 40 72
3 52 81 72
3 52 72 81
3 53 78 82
3 53 82 78
3 54 126 145
3 54 145 126
3 54 140 135
3 54 135 140
3 55 128 150
3 55 150 128
3 55 149 127
3 55 127 149
3 55 150 122
3 55 122 150
3 56 69 24
3 56 24 69
3 56 94 96
3 56 96 94
3 56 99 69
3 56 69 99
3 56 99 94
3 56 94 99
3 57 25 70
3 57 70 25
3 57 70 100
3 57 100 70
3 57 100 95
3 57 95 100
3 58 51 49
3 58 49 51
3 59 75 89
3 59 89 75
3 60 76 19
3 60 19 76
3 61 102 33
3 61 33 102
3 61 102 146
3 61 146 102
3 61 129 33
3 61 33 129
3 61 145 126
3 61 126 145
3 62 37 92
3 62 92 37
3 62 93 132
3 62 132 93
3 62 105 133
3 62 133 105
3 62 132 104
3 62 104 132
3 62 133 92
3 62 92 133
3 63 14 10
3 63 10 14
3 63 62 93
3 63 93 62
3 63 67 152
3 63 152 67
3 63 152 62
3 63 62 152
3 65 3 26
3 65 26 3
3 65 113 153
3 65 153 113
3 66 4 154
3 66 154 4
3 67 51 49
3 67 49 51
3 69 83 20
3 69 20 83
3 69 99 83
3 69 83 99
3 70 21 84
3 70 84 21
3 70 84 100
3 70 100 84
3 71 53 39
3 71 39 53
3 71 82 53
3 71 53 82
3 71 97 82
3 71 82 97
3 73 45 91
3 73 91 45
3 73 89 123
3 73 123 89
3 73 91 142
3 73 142 91
3 73 123 114
3 73 114 123
3 73 142 114
3 73 114 142
3 74 46 90
3 74 90 46
3 74 90 124
3 74 124 90
3 74 91 46
3 74 46 91
3 74 142 91
3 74 91 142
3 75 18 59
3 75 59 18
3 75 89 109
3 75 109 89
3 76 60 90
3 76 90 60
3 76 110 80
3 76 80 110
3 78 112 86
3 78 86 112
3 79 109 75
3 79 75 109
3 79 109 118
3 79 118 109
3 80 15 37
3 80 37 15
3 80 92 119
3 80 119 92
3 80 110 119
3 80 119 110
3 81 52 77
3 81 77 52
3 81 98 72
3 81 72 98
3 81 111 77
3 81 77 111
3 81 111 121
3 81 121 111
3 82 112 78
3 82 78 112
3 82 122 112
3 82 112 122
3 83 16 20
3 83 20 16
3 83 87 16
3 83 16 87
3 83 87 116
3 83 116 87
3 83 116 99
3 83 99 116
3 84 88 17
3 84 17 88
3 84 100 117
3 84 117 100
3 84 117 88
3 84 88 117
3 85 77 111
3 85 111 77
3 85 101 58
3 85 58 101
3 85 127 111
3 85 111 127
3 86 58 101
3 86 101 58
3 86 112 128
3 86 128 112
3 86 128 101
3 86 101 128
3 87 102 130
3 87 130 102
3 87 130 116
3 87 116 130
3 89 59 45
3 89 45 59
3 89 123 109
3 89 109 123
3 90 110 76
3 90 76 110
3 90 124 110
3 90 110 124
3 91 113 65
3 91 65 113
3 91 113 66
3 91 66 113
3 92 119 133
3 92 133 119
3 93 79 63
3 93 63 79
3 93 79 118
3 93 118 79
3 93 132 118
3 93 118 132
3 94 136 96
3 94 96 136
3 94 139 134
3 94 134 139
3 95 96 57
3 95 57 96
3 95 96 136
3 95 136 96
3 95 100 140
3 95 140 100
3 96 0 120
3 96 120 0
3 97 137 122
3 97 122 137
3 99 139 94
3 99 94 139
3 100 140 117
3 100 117 140
3 101 85 127
3 101 127 85
3 102 87 33
3 102 33 87
3 103 88 34
3 103 34 88
3 103 131 88
3 103 88 131
3 104 62 105
3 104 105 62
3 106 107 148
3 106 148 107
3 106 148 147
3 106 147 148
3 108 39 35
3 108 35 39
3 109 123 143
3 109 143 123
3 109 143 118
3 109 118 143
3 111 149 121
3 111 121 149
3 112 150 122
3 112 122 150
3 113 141 154
3 113 154 141
3 113 153 141
3 113 141 153
3 115 47 124
3 115 124 47
3 115 124 74
3 115 74 124
3 116 139 99
3 116 99 139
3 116 155 130
3 116 130 155
3 117 88 131
3 117 131 88
3 117 131 156
3 117 156 131
3 117 156 140
3 117 140 156
3 118 38 132
3 118 132 38
3 119 144 110
3 119 110 144
3 120 28 0
3 120 0 28
3 120 28 1
3 120 1 28
3 121 55 138
3 121 138 55
3 121 81 98
3 121 98 81
3 121 98 138
3 121 138 98
3 121 149 55
3 121 55 149
3 122 55 137
3 122 137 55
3 122 82 97
3 122 97 82
3 124 144 110
3 124 110 144
3 125 48 146
3 125 146 48
3 125 126 61
3 125 61 126
3 125 146 61
3 125 61 146
3 127 55 101
3 127 101 55
3 127 111 149
3 127 149 111
3 128 101 55
3 128 55 101
3 128 112 150
3 128 150 112
3 130 48 146
3 130 146 48
3 130 146 102
3 130 102 146
3 131 54 145
3 131 145 54
3 131 145 103
3 131 103 145
3 134 135 136
3 134 136 135
3 134 136 94
3 134 94 136
3 135 140 95
3 135 95 140
3 136 95 135
3 136 135 95
3 137 55 147
3 137 147 55
3 137 106 41
3 137 41 106
3 137 147 106
3 137 106 147
3 138 107 42
3 138 42 107
3 138 107 148
3 138 148 107
3 138 148 55
3 138 55 148
3 139 155 116
3 139 116 155
3 141 4 29
3 141 29 4
3 142 74 115
3 142 115 74
3 142 115 114
3 142 114 115
3 145 103 61
3 145 61 103
3 147 148 55
3 147 55 148
3 151 37 62
3 151 62 37
3 153 3 65
3 153 65 3
3 154 66 113
3 154 113 66
3 154 141 4
3 154 4 141
3 155 48 139
3 155 139 48
3 156 54 131
3 156 131 54
3 156 54 140
3 156 140 54
