 COFF
         157        1636         157
  
  -6.6416435549219184        1.2601404864767272        6.9534786347018098       0.60000002384185791       0.60000002384185791       0.60000002384185791       0.80000001192092896     
  -6.6416464258033514       -1.2601381537584277        6.9534793609424606       0.60000002384185791       0.60000002384185791       0.60000002384185791       0.80000001192092896     
  -3.3776332108176425E-002  -2.3247941532152976        6.6536070310336468       0.60000002384185791       0.60000002384185791       0.60000002384185791       0.80000001192092896     
   7.5214302884399364       -1.1661536800482057        7.0916575164247382       0.60000002384185791       0.60000002384185791       0.60000002384185791       0.80000001192092896     
   7.5214302793328160        1.1661536795468319        7.0916575229088910       0.60000002384185791       0.60000002384185791       0.60000002384185791       0.80000001192092896     
  -3.3776520877027108E-002   2.3248166004966166        6.6535846534210190       0.60000002384185791       0.60000002384185791       0.60000002384185791       0.80000001192092896     
   1.1618940274415517       -2.0059503609198339        6.7921844510346281       0.60000002384185791       0.60000002384185791       0.60000002384185791       0.80000001192092896     
   1.1618942996848001        2.0059511415905322        6.7921836266234203       0.60000002384185791       0.60000002384185791       0.60000002384185791       0.80000001192092896     
  -1.1785486519730306        1.9925385561870643        6.7589623726028245       0.60000002384185791       0.60000002384185791       0.60000002384185791       0.80000001192092896     
  -1.1785351974362153       -1.9925081127387403        6.7589942331170771       0.60000002384185791       0.60000002384185791       0.60000002384185791       0.80000001192092896     
   2.0700287480768358       -1.6871578142982191        7.0647037573361340       0.60000002384185791       0.60000002384185791       0.60000002384185791       0.80000001192092896     
   2.0700287101550456        1.6871580540194935        7.0647035115618548       0.60000002384185791       0.60000002384185791       0.60000002384185791       0.80000001192092896     
  -2.0920513097281419        1.6982114281118543        7.0401449056185594       0.60000002384185791       0.60000002384185791       0.60000002384185791       0.80000001192092896     
  -2.0920544668874368       -1.6982093159974332        7.0401470455460089       0.60000002384185791       0.60000002384185791       0.60000002384185791       0.80000001192092896     
   3.0300749305663035       -1.8446018087517728        6.8032525764596992       0.60000002384185791       0.60000002384185791       0.60000002384185791       0.80000001192092896     
   3.0300801601538891        1.8446032655473330        6.8032567822701440       0.60000002384185791       0.60000002384185791       0.60000002384185791       0.80000001192092896     
  -3.0308126083036955        1.8480687833846485        6.7305345241823877       0.60000002384185791       0.60000002384185791       0.60000002384185791       0.80000001192092896     
  -3.0308129551012315       -1.8480717414011523        6.7305314967655248       0.60000002384185791       0.60000002384185791       0.60000002384185791       0.80000001192092896     
   4.1106400112058132       -1.7293381018018323        6.9566655532436625       0.60000002384185791       0.60000002384185791       0.60000002384185791       0.80000001192092896     
   4.1106402038875469        1.7293383581430393        6.9566652548210559       0.60000002384185791       0.60000002384185791       0.60000002384185791       0.80000001192092896     
  -4.0892629277279733        1.7308647968693358        6.9041415021679242       0.60000002384185791       0.60000002384185791       0.60000002384185791       0.80000001192092896     
  -4.0892629691178053       -1.7308649738737194        6.9041413225069705       0.60000002384185791       0.60000002384185791       0.60000002384185791       0.80000001192092896     
   5.0988133430268183       -1.5063376820930876        7.0301955671913143       0.60000002384185791       0.60000002384185791       0.60000002384185791       0.80000001192092896     
   5.0988133589096698        1.5063376953111769        7.0301955541958518       0.60000002384185791       0.60000002384185791       0.60000002384185791       0.80000001192092896     
  -5.0898095269225765        1.5187266783309818        6.9512409617292104       0.60000002384185791       0.60000002384185791       0.60000002384185791       0.80000001192092896     
  -5.0898095449391043       -1.5187265678995352        6.9512410685545998       0.60000002384185791       0.60000002384185791       0.60000002384185791       0.80000001192092896     
   6.0881296961423983       -1.3700123777096547        7.0906081040090152       0.60000002384185791       0.60000002384185791       0.60000002384185791       0.80000001192092896     
   6.0881297057387425        1.3700123606589190        7.0906081226423012       0.60000002384185791       0.60000002384185791       0.60000002384185791       0.80000001192092896     
  -7.9037908382893889       -5.7001074580969437E-005   6.9565602480142177       0.60000002384185791       0.60000002384185791       0.60000002384185791       0.80000001192092896     
   8.6891782155083828       -1.4313978840625578E-004   7.1123601856600853       0.60000002384185791       0.60000002384185791       0.60000002384185791       0.80000001192092896     
  -1.6711272287578833      -0.79173387648721216        4.4078253472046507       0.60000002384185791       0.60000002384185791       0.60000002384185791       0.80000001192092896     
  0.96282964912104030       -1.9252680101035504        5.3000303459989118        1.0000000000000000        1.0000000000000000        0.0000000000000000        1.0000000000000000     
  0.96283047601560701        1.9252722930643928        5.3000411016708728        1.0000000000000000        1.0000000000000000        0.0000000000000000        1.0000000000000000     
  -2.1331310614812193        1.6959079108165593        5.8017181741983102       0.60000002384185791       0.60000002384185791       0.60000002384185791       0.80000001192092896     
  -2.1371385379532408       -1.6939429341915166        5.8076729608569071       0.60000002384185791       0.60000002384185791       0.60000002384185791       0.80000001192092896     
   4.7389290475912491E-002  -2.0338903107544657        5.1987125144027315       0.60000002384185791       0.60000002384185791       0.60000002384185791       0.80000001192092896     
   4.7315718123809219E-002   2.0340632933206848        5.1988761957949956       0.60000002384185791       0.60000002384185791       0.60000002384185791       0.80000001192092896     
   2.1240256125275603        1.6669047348950643        5.8776396040465446       0.60000002384185791       0.60000002384185791       0.60000002384185791       0.80000001192092896     
   3.5403443477397496      -0.61961962431375417        2.7262692079133850        1.0000000000000000        1.0000000000000000        0.0000000000000000        1.0000000000000000     
 -0.84342700240616664       -1.9077502547081189        4.7091333108133231       0.60000002384185791       0.60000002384185791       0.60000002384185791       0.80000001192092896     
 -0.81875922532482648        1.9265161037848357        4.7311486918712884       0.60000002384185791       0.60000002384185791       0.60000002384185791       0.80000001192092896     
  -1.3564138069507170      -0.92154772383791717        2.9568520875439628       0.60000002384185791       0.60000002384185791       0.60000002384185791       0.80000001192092896     
  -1.3867750192017638        1.0217111937937011        2.9569526729887170       0.60000002384185791       0.60000002384185791       0.60000002384185791       0.80000001192092896     
  0.85206632863416687        1.8951092072813560        4.2807570773702919       0.60000002384185791       0.60000002384185791       0.60000002384185791       0.80000001192092896     
  0.85192680458436953       -1.8950579015051778        4.2807923970826778       0.60000002384185791       0.60000002384185791       0.60000002384185791       0.80000001192092896     
   5.5666512817357106       -1.4173145882412888        6.1125987277481046       0.60000002384185791       0.60000002384185791       0.60000002384185791       0.80000001192092896     
   5.5666778217114921        1.4173096506087515        6.1126250430737432       0.60000002384185791       0.60000002384185791       0.60000002384185791       0.80000001192092896     
   3.5403410143516818       0.61962009401953888        2.7262692079133850        1.0000000000000000        1.0000000000000000        0.0000000000000000        1.0000000000000000     
  -3.5118711677685028       0.65989204485061703        2.9816402194175646        1.0000000000000000        1.0000000000000000        0.0000000000000000        1.0000000000000000     
   1.8032840347322954       -8.9623583477011236E-006   4.7153064696461229       0.60000002384185791       0.60000002384185791       0.60000002384185791       0.80000001192092896     
   1.1919426849967227        1.4529705364632362        3.9587895525560115       0.60000002384185791       0.60000002384185791       0.60000002384185791       0.80000001192092896     
   1.1917181727864687       -1.4532413840330181        3.9591493476531863       0.60000002384185791       0.60000002384185791       0.60000002384185791       0.80000001192092896     
  0.18215900673395422        1.9423417416340332        4.0570791124699745       0.60000002384185791       0.60000002384185791       0.60000002384185791       0.80000001192092896     
  0.17111258911184316       -1.9375670823098670        4.0569237298265515       0.60000002384185791       0.60000002384185791       0.60000002384185791       0.80000001192092896     
  -3.5118869593238453      -0.65978716428583806        2.9816402194175642        1.0000000000000000        1.0000000000000000        0.0000000000000000        1.0000000000000000     
  0.12980304716898489       -2.9208735595367719E-004   1.0306063639638421        1.0000000000000000        1.0000000000000000        0.0000000000000000        1.0000000000000000     
  -5.2647939404633917        1.4067050207100984        5.9198156722972586       0.60000002384185791       0.60000002384185791       0.60000002384185791       0.80000001192092896     
  -5.2647977806537209       -1.4067034629781441        5.9198135337348354       0.60000002384185791       0.60000002384185791       0.60000002384185791       0.80000001192092896     
   1.3790859281784873        5.4263441659707947E-006   3.5200637620990753       0.60000002384185791       0.60000002384185791       0.60000002384185791       0.80000001192092896     
   4.5812325133229486       -1.6231023778333704        6.2223029600448232       0.60000002384185791       0.60000002384185791       0.60000002384185791       0.80000001192092896     
   4.5811402472114517        1.6230910664045761        6.2222880745754585       0.60000002384185791       0.60000002384185791       0.60000002384185791       0.80000001192092896     
  -2.3504983777498483        1.3218312345253452E-003   4.7759981994282645       0.60000002384185791       0.60000002384185791       0.60000002384185791       0.80000001192092896     
   2.1294252498450437       -1.0444514149321222E-005   5.0624081452149143       0.60000002384185791       0.60000002384185791       0.60000002384185791       0.80000001192092896     
   2.1240414691924645       -1.6669078186329360        5.8776149848543087       0.60000002384185791       0.60000002384185791       0.60000002384185791       0.80000001192092896     
   1.3460050209845242        1.7686622814592834        5.0054009638208123       0.60000002384185791       0.60000002384185791       0.60000002384185791       0.80000001192092896     
   6.7495930238165212       -1.2282041733121407        6.3991746915719192       0.60000002384185791       0.60000002384185791       0.60000002384185791       0.80000001192092896     
   6.7495929955378990        1.2282041598421127        6.3991746466466459       0.60000002384185791       0.60000002384185791       0.60000002384185791       0.80000001192092896     
   1.3459893865600601       -1.7686642497699081        5.0053654393338167       0.60000002384185791       0.60000002384185791       0.60000002384185791       0.80000001192092896     
 -0.98338537210090893        1.9478831398185321        5.5885518916073949        1.0000000000000000        1.0000000000000000        0.0000000000000000        1.0000000000000000     
  -4.5734531063837496        1.6280354924319012        6.1868520936623081       0.60000002384185791       0.60000002384185791       0.60000002384185791       0.80000001192092896     
  -4.5734555677796616       -1.6280356011928361        6.1868536442436550       0.60000002384185791       0.60000002384185791       0.60000002384185791       0.80000001192092896     
 -0.61467451867025924       -1.6560272686722448        3.6684426160160770       0.60000002384185791       0.60000002384185791       0.60000002384185791       0.80000001192092896     
 -0.58985151387829238        1.7075507455452896        3.6572880153368494       0.60000002384185791       0.60000002384185791       0.60000002384185791       0.80000001192092896     
   5.3715706491259141       -1.0798133074769423        4.8613800793355342       0.60000002384185791       0.60000002384185791       0.60000002384185791       0.80000001192092896     
   5.3715739230356716        1.0798114506739140        4.8613778322550365       0.60000002384185791       0.60000002384185791       0.60000002384185791       0.80000001192092896     
   4.0938962925213289       -1.7035893696562074        5.7005011855002081       0.60000002384185791       0.60000002384185791       0.60000002384185791       0.80000001192092896     
   4.0939707021636229        1.7035442459714052        5.7005127346835476       0.60000002384185791       0.60000002384185791       0.60000002384185791       0.80000001192092896     
  0.76500903080348537        1.7463996337839818        3.3066123831131868       0.60000002384185791       0.60000002384185791       0.60000002384185791       0.80000001192092896     
  0.76202838326083344       -1.7447240992652060        3.3081288067693291       0.60000002384185791       0.60000002384185791       0.60000002384185791       0.80000001192092896     
   3.1201797285023165       -1.7281942713984659        5.3189392036488350       0.60000002384185791       0.60000002384185791       0.60000002384185791       0.80000001192092896     
   3.1202002179138795        1.7282016509138787        5.3189428173909539       0.60000002384185791       0.60000002384185791       0.60000002384185791       0.80000001192092896     
  0.24777888983971430        1.7875509168186032        2.9474249595319777       0.60000002384185791       0.60000002384185791       0.60000002384185791       0.80000001192092896     
  0.24018351359320175       -1.7723567599700045        2.9483840795189740       0.60000002384185791       0.60000002384185791       0.60000002384185791       0.80000001192092896     
  -4.0665929916154484        1.6978471130351067        5.7196793751945245       0.60000002384185791       0.60000002384185791       0.60000002384185791       0.80000001192092896     
  -4.0665944275978134       -1.6978482205297807        5.7196763712456260       0.60000002384185791       0.60000002384185791       0.60000002384185791       0.80000001192092896     
   1.0707720220040962        1.1776609612074231        2.9723683282462536        1.0000000000000000       0.10000000149011612        0.0000000000000000       0.50000000000000000     
   1.0704929824884897       -1.1772194439539774        2.9727627003395689        1.0000000000000000       0.10000000149011612        0.0000000000000000       0.50000000000000000     
  -3.1163522768646210        1.7238092942434413        5.2322366593157437       0.60000002384185791       0.60000002384185791       0.60000002384185791       0.80000001192092896     
  -3.1162395937676188       -1.7235784417564572        5.2309205755881552       0.60000002384185791       0.60000002384185791       0.60000002384185791       0.80000001192092896     
   4.6095974117426346       -1.6076270637893029        5.1288741568437546       0.60000002384185791       0.60000002384185791       0.60000002384185791       0.80000001192092896     
   4.6094764608888923        1.6077429938605829        5.1288498789565322       0.60000002384185791       0.60000002384185791       0.60000002384185791       0.80000001192092896     
   6.2454260173882128        4.7780958024982975E-008   5.5815065545651752       0.60000002384185791       0.60000002384185791       0.60000002384185791       0.80000001192092896     
   2.5692330102736967        1.2291426609221690        4.8350974139821199       0.60000002384185791       0.60000002384185791       0.60000002384185791       0.80000001192092896     
   2.5693173797326425       -1.2291862687940531        4.8350987323777748       0.60000002384185791       0.60000002384185791       0.60000002384185791       0.80000001192092896     
  -5.1199769171548732        1.1398093575919006        4.7611898303758817       0.60000002384185791       0.60000002384185791       0.60000002384185791       0.80000001192092896     
  -5.1199625137559721       -1.1398128845408377        4.7611657335554316       0.60000002384185791       0.60000002384185791       0.60000002384185791       0.80000001192092896     
  -6.1216106678583859        9.4174164764682126E-007   5.6743500516673544       0.60000002384185791       0.60000002384185791       0.60000002384185791       0.80000001192092896     
 -0.45173982805028895       -1.5236058006229918        2.5445764749490336        1.0000000000000000       0.10000000149011612        0.0000000000000000       0.50000000000000000     
 -0.44526006356310383        1.5564849367512830        2.5375083676300001        1.0000000000000000       0.10000000149011612        0.0000000000000000       0.50000000000000000     
  -4.5694634800888121        1.5818285583412093        4.9946675554298361       0.60000002384185791       0.60000002384185791       0.60000002384185791       0.80000001192092896     
  -4.5694599010822907       -1.5818295502211892        4.9946704347970865       0.60000002384185791       0.60000002384185791       0.60000002384185791       0.80000001192092896     
   1.1951261055371150        1.1502729020696720E-004   2.6264169453559534        1.0000000000000000       0.10000000149011612        0.0000000000000000       0.50000000000000000     
  -2.6789041094541783        1.4732487443311630        4.8415320817111853       0.60000002384185791       0.60000002384185791       0.60000002384185791       0.80000001192092896     
  -2.6737486063607530       -1.4709858881053217        4.8374597160518444       0.60000002384185791       0.60000002384185791       0.60000002384185791       0.80000001192092896     
   2.5302256743074572      -0.49408479361009439        3.5583311600225236       0.60000002384185791       0.60000002384185791       0.60000002384185791       0.80000001192092896     
   2.5302100942346457       0.49408776360821377        3.5583343456561018       0.60000002384185791       0.60000002384185791       0.60000002384185791       0.80000001192092896     
  -1.4706299602012916      -0.90443269555881001        2.0845524017918349        1.0000000000000000       0.10000000149011612        0.0000000000000000       0.50000000000000000     
  -1.5011625342921404       0.76515777785526196        2.0684579035409540        1.0000000000000000       0.10000000149011612        0.0000000000000000       0.50000000000000000     
 -0.98787366431005363       -1.9469600255304498        5.5901904069473911        1.0000000000000000        1.0000000000000000        0.0000000000000000        1.0000000000000000     
   4.0402923870593757       -1.6697431321617942        4.6294166129049010       0.60000002384185791       0.60000002384185791       0.60000002384185791       0.80000001192092896     
   4.0402309028654209        1.6697857944763908        4.6294129914549389       0.60000002384185791       0.60000002384185791       0.60000002384185791       0.80000001192092896     
  0.69718305684607595        1.5507527672966372        2.3363712495559348        1.0000000000000000       0.10000000149011612        0.0000000000000000       0.50000000000000000     
  0.69410564146770304       -1.5469812133820773        2.3364022794725008        1.0000000000000000       0.10000000149011612        0.0000000000000000       0.50000000000000000     
   6.9768526866465432       -4.0304365296054951E-008   5.4874884147305032        1.0000000000000000        1.0000000000000000        0.0000000000000000        1.0000000000000000     
   4.9918627324027849      -0.95155203018196055        3.6951022311185722       0.60000002384185791       0.60000002384185791       0.60000002384185791       0.80000001192092896     
   4.9918609144491857       0.95155230591594542        3.6951023644938470       0.60000002384185791       0.60000002384185791       0.60000002384185791       0.80000001192092896     
  -4.0247273847362308        1.6448994615881110        4.6513096457619136       0.60000002384185791       0.60000002384185791       0.60000002384185791       0.80000001192092896     
  -4.0245342115901730       -1.6448996228802335        4.6512921773592817       0.60000002384185791       0.60000002384185791       0.60000002384185791       0.80000001192092896     
   3.2804379860802100       -1.5411128759271440        4.2999396087998560       0.60000002384185791       0.60000002384185791       0.60000002384185791       0.80000001192092896     
   3.2803201513048204        1.5412077877774901        4.2999331372749268       0.60000002384185791       0.60000002384185791       0.60000002384185791       0.80000001192092896     
  -6.9419801612610952        2.5373747607911406E-006   5.6811856426661205        1.0000000000000000        1.0000000000000000        0.0000000000000000        1.0000000000000000     
  0.18765283326597398        1.5871079894665279        1.9624548680680018        1.0000000000000000       0.10000000149011612        0.0000000000000000       0.50000000000000000     
  0.18987935182400417       -1.5816170974070147        1.9622390892943333        1.0000000000000000       0.10000000149011612        0.0000000000000000       0.50000000000000000     
   4.5188287648423273       -1.4582724588239231        4.0536256143371290       0.60000002384185791       0.60000002384185791       0.60000002384185791       0.80000001192092896     
   4.5188274557395065        1.4582743783185879        4.0536269811065990       0.60000002384185791       0.60000002384185791       0.60000002384185791       0.80000001192092896     
  -2.5107288744639771       0.37014914200185134        3.7301059038364435       0.60000002384185791       0.60000002384185791       0.60000002384185791       0.80000001192092896     
  -2.5168837032744262      -0.36012592014532774        3.7300222204070930       0.60000002384185791       0.60000002384185791       0.60000002384185791       0.80000001192092896     
  0.97125427155071142       0.90764909857088361        2.1185789071237617        1.0000000000000000       0.10000000149011612        0.0000000000000000       0.50000000000000000     
  0.97095921125837736      -0.90721106712702348        2.1187582664095466        1.0000000000000000       0.10000000149011612        0.0000000000000000       0.50000000000000000     
  -1.7139744882159536       0.97758478786973069        4.4207588114650376       0.60000002384185791       0.60000002384185791       0.60000002384185791       0.80000001192092896     
  -3.2429717491653203        1.5599117639334530        4.2942182267725029       0.60000002384185791       0.60000002384185791       0.60000002384185791       0.80000001192092896     
  -3.2418543577631853       -1.5599084709783237        4.2946560509395164       0.60000002384185791       0.60000002384185791       0.60000002384185791       0.80000001192092896     
   2.8161881474706965       -1.1552103787469326        4.0824409679490827       0.60000002384185791       0.60000002384185791       0.60000002384185791       0.80000001192092896     
   2.8162453038617299        1.1549701449596115        4.0824407971308156       0.60000002384185791       0.60000002384185791       0.60000002384185791       0.80000001192092896     
  -4.7555937939673729       0.91167742578169597        3.8392513148830538       0.60000002384185791       0.60000002384185791       0.60000002384185791       0.80000001192092896     
  -4.7555880350163591      -0.91167905979132891        3.8392534044054996       0.60000002384185791       0.60000002384185791       0.60000002384185791       0.80000001192092896     
  -5.4126222770536421        7.0250727484336251E-007   4.6259732618943987       0.60000002384185791       0.60000002384185791       0.60000002384185791       0.80000001192092896     
 -0.41666540847608013       -1.2549555735711815        1.7884242289329959        1.0000000000000000       0.10000000149011612        0.0000000000000000       0.50000000000000000     
 -0.47928561069032949        1.2399303406229527        1.8056895062535183        1.0000000000000000       0.10000000149011612        0.0000000000000000       0.50000000000000000     
  -4.4155027713020401        1.3426530024570653        4.0038148719360560       0.60000002384185791       0.60000002384185791       0.60000002384185791       0.80000001192092896     
  -4.4154319070497952       -1.3426470727988964        4.0038385337811375       0.60000002384185791       0.60000002384185791       0.60000002384185791       0.80000001192092896     
   7.9121051399434492       -8.5765031916629165E-008   6.4743669412288494       0.60000002384185791       0.60000002384185791       0.60000002384185791       0.80000001192092896     
   5.6452254094557883        6.4104231025411022E-008   4.6938630690787146       0.60000002384185791       0.60000002384185791       0.60000002384185791       0.80000001192092896     
   3.8904999384682757       -1.3824257075019539        3.6960911961014506       0.60000002384185791       0.60000002384185791       0.60000002384185791       0.80000001192092896     
   3.8904906906609900        1.3824262921274009        3.6960916932408954       0.60000002384185791       0.60000002384185791       0.60000002384185791       0.80000001192092896     
  -2.9357039243176835       -1.1524648171899821        3.9655834723522245       0.60000002384185791       0.60000002384185791       0.60000002384185791       0.80000001192092896     
  -2.9414672309858858        1.1562459605264268        3.9645282960979440       0.60000002384185791       0.60000002384185791       0.60000002384185791       0.80000001192092896     
 -0.96873445961878801      -0.49150289450974932        1.4641416790043906        1.0000000000000000       0.10000000149011612        0.0000000000000000       0.50000000000000000     
 -0.92823580546068385       0.44389275868847816        1.4641433117998950        1.0000000000000000       0.10000000149011612        0.0000000000000000       0.50000000000000000     
  0.53881741907234626       0.91532876614721748        1.6472454502951521        1.0000000000000000       0.10000000149011612        0.0000000000000000       0.50000000000000000     
  0.54169698860644067      -0.91237429844909179        1.6470297022659974        1.0000000000000000       0.10000000149011612        0.0000000000000000       0.50000000000000000     
   1.9857725289935757       0.84893796394925281        5.3131328498462524       0.60000002384185791       0.60000002384185791       0.60000002384185791       0.80000001192092896     
   1.9857800886433807      -0.84896532341998077        5.3131074170985206       0.60000002384185791       0.60000002384185791       0.60000002384185791       0.80000001192092896     
   7.2851079709205830      -0.63653878096277616        6.2935829278000064       0.60000002384185791       0.60000002384185791       0.60000002384185791       0.80000001192092896     
   7.2851079647887014       0.63653873444684694        6.2935829335324094       0.60000002384185791       0.60000002384185791       0.60000002384185791       0.80000001192092896     
  -3.7720157396890248        1.1586820730565823        3.8148788586007916       0.60000002384185791       0.60000002384185791       0.60000002384185791       0.80000001192092896     
  -3.7718496955093657       -1.1586479415040043        3.8148875607758579       0.60000002384185791       0.60000002384185791       0.60000002384185791       0.80000001192092896     
  
   3   0  24  56
   3   0  56  24
   3   0  56  96
   3   0  96 120
   3   0  96  56
   3   0 120  96
   3   0 120  28
   3   0  28 120
   4   0  28   1  96
   3   1  28 120
   4   1  28   0  96
   3   1 120  96
   3   1 120  28
   3   1  96  57
   3   1  96 120
   3   1  57  96
   3   1  57  25
   3   1  25  57
   3   2  35 108
   3   2  35  31
   3   2  31  35
   3   2  31   6
   3   2   6  31
   3   2   9 108
   3   2 108  35
   3   2 108   9
   3   3  29 141
   3   3  26  65
   3   3  65  26
   3   3  65 153
   3   3 153  65
   3   3 153 141
   3   3 141 153
   3   3 141  29
   3   4  29 141
   3   4 141 154
   3   4 141  29
   3   4 154 141
   3   4 154  66
   3   4  66 154
   3   4  66  27
   3   4  27  66
   3   5   7  32
   3   5  32  36
   3   5  32   7
   3   5  36  32
   3   5  36  68
   3   5  68  36
   3   5  68   8
   3   5   8  68
   3   6   2  31
   3   6  31   2
   3   6  31  63
   3   6  63  10
   3   6  63  31
   3   6  10  63
   3   7  11  37
   3   7  37  32
   3   7  37  11
   3   7  32  37
   3   7  32   5
   3   7   5  32
   3   8   5  68
   3   8  68   5
   3   8  68  33
   3   8  33  12
   3   8  33  68
   3   8  12  33
   3   9  13  34
   3   9  34 108
   3   9  34  13
   3   9 108  34
   3   9 108   2
   3   9   2 108
   3  10   6  63
   3  10  63  14
   3  10  63   6
   3  10  14  63
   3  11  15  37
   3  11  37   7
   3  11  37  15
   3  11   7  37
   3  12   8  33
   3  12  33  16
   3  12  33   8
   3  12  16  33
   3  13  17  34
   3  13  34   9
   3  13  34  17
   3  13   9  34
   3  14  10  63
   3  14  63  79
   3  14  63  10
   3  14  79  63
   3  14  79  75
   3  14  75  79
   3  14  75  18
   3  14  18  75
   3  15  19  76
   3  15  76  80
   3  15  76  19
   3  15  80  76
   3  15  80  37
   3  15  37  11
   3  15  37  80
   3  15  11  37
   3  16  12  33
   3  16  33  87
   3  16  33  12
   3  16  87  33
   3  16  87  83
   3  16  83  87
   3  16  83  20
   3  16  20  83
   3  17  21  84
   3  17  84  88
   3  17  84  21
   3  17  88  84
   3  17  88  34
   3  17  34  13
   3  17  34  88
   3  17  13  34
   3  18  14  75
   3  18  75  14
   3  18  75  59
   3  18  59  75
   3  18  59  22
   3  18  22  59
   3  19  23  60
   3  19  60  76
   3  19  60  23
   3  19  76  60
   3  19  76  15
   3  19  15  76
   3  20  16  83
   3  20  83  16
   3  20  83  69
   3  20  69  83
   3  20  69  24
   3  20  24  69
   3  21  25  70
   3  21  70  84
   3  21  70  25
   3  21  84  70
   3  21  84  17
   3  21  17  84
   3  22  18  59
   3  22  59  18
   3  22  59  45
   3  22  45  26
   3  22  45  59
   3  22  26  45
   3  23  27  46
   3  23  46  60
   3  23  46  27
   3  23  60  46
   3  23  60  19
   3  23  19  60
   3  24  20  69
   3  24  69  20
   3  24  69  56
   3  24  56   0
   3  24  56  69
   3  24   0  56
   3  25   1  57
   3  25  57   1
   3  25  57  70
   3  25  70  57
   3  25  70  21
   3  25  21  70
   3  26  22  45
   3  26  45  65
   3  26  45  22
   3  26  65   3
   3  26  65  45
   3  26   3  65
   3  27   4  66
   3  27  66   4
   3  27  66  46
   3  27  46  66
   3  27  46  23
   3  27  23  46
   3  28   0 120
   4  28   0  96   1
   3  28 120   0
   3  28 120   1
   3  28   1 120
   4  28   1  96   0
   3  29   3 141
   3  29 141   3
   3  29 141   4
   3  29   4 141
   3  30  34  61
   3  30  34  39
   3  30  61 129
   3  30  61  34
   3  30 129  61
   4  30 129  42  41
   3  30  41  71
   4  30  41  42 129
   3  30  71  41
   3  30  71  39
   3  30  39  34
   3  30  39  71
   3  31   2  35
   3  31   2   6
   3  31  35  44
   3  31  35   2
   3  31  44  67
   3  31  44  35
   3  31  67  63
   3  31  67  44
   3  31  63   6
   3  31  63  67
   3  31   6   2
   3  31   6  63
   3  32  37  64
   3  32  37   7
   3  32  64  37
   3  32  64  43
   3  32  43  36
   3  32  43  64
   3  32  36  43
   3  32  36   5
   3  32   5   7
   3  32   5  36
   3  32   7  37
   3  32   7   5
   3  33 102  61
   3  33 102  87
   3  33  87 102
   3  33  87  16
   3  33  16  12
   3  33  16  87
   3  33  12   8
   3  33  12  16
   3  33   8  68
   3  33   8  12
   3  33  68  40
   3  33  68   8
   3  33  40 129
   3  33  40  68
   3  33 129  40
   3  33 129  61
   3  33  61 129
   3  33  61 102
   3  34 103  88
   3  34 103  61
   3  34  61  30
   3  34  61 103
   3  34  30  61
   3  34  30  39
   3  34  39 108
   3  34  39  30
   3  34 108  39
   3  34 108   9
   3  34   9  13
   3  34   9 108
   3  34  13  17
   3  34  13   9
   3  34  17  88
   3  34  17  13
   3  34  88 103
   3  34  88  17
   3  35 108  39
   3  35 108   2
   3  35  39 108
   3  35  39  53
   3  35  53  44
   3  35  53  39
   3  35  44  31
   3  35  44  53
   3  35  31   2
   3  35  31  44
   3  35   2  31
   3  35   2 108
   3  36  32  43
   3  36  32   5
   3  36  43  32
   3  36  43  52
   3  36  52  40
   3  36  52  43
   3  36  40  68
   3  36  40  52
   3  36  68   5
   3  36  68  40
   3  36   5  32
   3  36   5  68
   3  37  92  80
   3  37  92  62
   3  37  62 151
   3  37  62  92
   3  37 151  62
   3  37 151  64
   3  37  64 151
   3  37  64  32
   3  37  32  64
   3  37  32   7
   3  37   7  11
   3  37   7  32
   3  37  11  15
   3  37  11   7
   3  37  15  80
   3  37  15  11
   3  37  80  92
   3  37  80  15
   3  38 114 123
   4  38 114 115  47
   3  38 123 114
   3  38 123 143
   3  38 143 123
   3  38 143 118
   3  38 118 132
   3  38 118 143
   3  38 132 118
   3  38 132 104
   3  38 104 132
   4  38 104 105  47
   3  39  35 108
   3  39  35  53
   3  39 108  34
   3  39 108  35
   3  39  34  30
   3  39  34 108
   3  39  30  34
   3  39  30  71
   3  39  71  30
   3  39  71  53
   3  39  53  35
   3  39  53  71
   3  40 129  33
   3  40 129  72
   3  40  33  68
   3  40  33 129
   3  40  68  36
   3  40  68  33
   3  40  36  52
   3  40  36  68
   3  40  52  36
   3  40  52  72
   3  40  72  52
   3  40  72 129
   3  41 106 137
   4  41 106 107  42
   3  41 137  97
   3  41 137 106
   3  41  97  71
   3  41  97 137
   3  41  71  30
   3  41  71  97
   3  41  30  71
   4  41  30 129  42
   3  42 107 138
   4  42 107 106  41
   3  42 129  72
   4  42 129  30  41
   3  42  72  98
   3  42  72 129
   3  42  98  72
   3  42  98 138
   3  42 138 107
   3  42 138  98
   3  43  36  32
   3  43  36  52
   3  43  32  64
   3  43  32  36
   3  43  64  50
   3  43  64  32
   3  43  50  64
   3  43  50  77
   3  43  77  50
   3  43  77  52
   3  43  52  36
   3  43  52  77
   3  44  67  51
   3  44  67  31
   3  44  31  35
   3  44  31  67
   3  44  35  53
   3  44  35  31
   3  44  53  35
   3  44  53  78
   3  44  78  53
   3  44  78  51
   3  44  51  67
   3  44  51  78
   3  45  65  26
   3  45  65  91
   3  45  26  22
   3  45  26  65
   3  45  22  59
   3  45  22  26
   3  45  59  89
   3  45  59  22
   3  45  89  73
   3  45  89  59
   3  45  73  91
   3  45  73  89
   3  45  91  73
   3  45  91  65
   3  46  66  91
   3  46  66  27
   3  46  91  74
   3  46  91  66
   3  46  74  91
   3  46  74  90
   3  46  90  60
   3  46  90  74
   3  46  60  90
   3  46  60  23
   3  46  23  27
   3  46  23  60
   3  46  27  66
   3  46  27  23
   3  47 115 124
   4  47 115 114  38
   3  47 105 133
   4  47 105 104  38
   3  47 133 105
   3  47 133 119
   3  47 119 144
   3  47 119 133
   3  47 144 119
   3  47 144 124
   3  47 124 115
   3  47 124 144
   3  48 134 139
   4  48 134 135  54
   3  48 139 134
   3  48 139 155
   3  48 155 139
   3  48 155 130
   3  48 130 146
   3  48 130 155
   3  48 146 130
   3  48 146 125
   3  48 125 146
   4  48 125 126  54
   3  49 151  62
   3  49 151  64
   3  49  62 151
   3  49  62 152
   3  49 152  62
   3  49 152  67
   3  49  67  51
   3  49  67 152
   3  49  51  67
   3  49  51  58
   3  49  58  51
   3  49  58  50
   3  49  50  64
   3  49  50  58
   3  49  64 151
   3  49  64  50
   3  50  43  64
   3  50  43  77
   3  50  64  49
   3  50  64  43
   3  50  49  58
   3  50  49  64
   3  50  58  85
   3  50  58  49
   3  50  85  58
   3  50  85  77
   3  50  77  85
   3  50  77  43
   3  51  49  67
   3  51  49  58
   3  51  67  49
   3  51  67  44
   3  51  44  67
   3  51  44  78
   3  51  78  86
   3  51  78  44
   3  51  86  78
   3  51  86  58
   3  51  58  86
   3  51  58  49
   3  52  40  36
   3  52  40  72
   3  52  36  43
   3  52  36  40
   3  52  43  36
   3  52  43  77
   3  52  77  81
   3  52  77  43
   3  52  81  77
   3  52  81  72
   3  52  72  81
   3  52  72  40
   3  53  44  35
   3  53  44  78
   3  53  35  39
   3  53  35  44
   3  53  39  35
   3  53  39  71
   3  53  71  82
   3  53  71  39
   3  53  82  71
   3  53  82  78
   3  53  78  82
   3  53  78  44
   3  54 135 140
   4  54 135 134  48
   3  54 126 145
   4  54 126 125  48
   3  54 145 126
   3  54 145 131
   3  54 131 156
   3  54 131 145
   3  54 156 131
   3  54 156 140
   3  54 140 135
   3  54 140 156
   3  55 121 149
   3  55 121 138
   3  55 149 121
   3  55 149 127
   3  55 127 101
   3  55 127 149
   3  55 101 128
   3  55 101 127
   3  55 128 101
   3  55 128 150
   3  55 150 128
   3  55 150 122
   3  55 122 137
   3  55 122 150
   3  55 137 122
   4  55 137 106 147
   3  55 147 148
   4  55 147 106 137
   3  55 148 147
   4  55 148 107 138
   3  55 138 121
   4  55 138 107 148
   3  56   0  24
   3  56   0  96
   3  56  24  69
   3  56  24   0
   3  56  69  99
   3  56  69  24
   3  56  99  94
   3  56  99  69
   3  56  94  96
   3  56  94  99
   3  56  96  94
   3  56  96   0
   3  57   1  96
   3  57   1  25
   3  57  96  95
   3  57  96   1
   3  57  95 100
   3  57  95  96
   3  57 100  70
   3  57 100  95
   3  57  70 100
   3  57  70  25
   3  57  25   1
   3  57  25  70
   3  58  51  49
   3  58  51  86
   3  58  86 101
   3  58  86  51
   3  58 101  85
   3  58 101  86
   3  58  85 101
   3  58  85  50
   3  58  50  49
   3  58  50  85
   3  58  49  51
   3  58  49  50
   3  59  18  75
   3  59  18  22
   3  59  75  89
   3  59  75  18
   3  59  89  45
   3  59  89  75
   3  59  45  22
   3  59  45  89
   3  59  22  18
   3  59  22  45
   3  60  46  90
   3  60  46  23
   3  60  90  76
   3  60  90  46
   3  60  76  90
   3  60  76  19
   3  60  19  23
   3  60  19  76
   3  60  23  46
   3  60  23  19
   3  61 129  33
   3  61 129  30
   3  61  30  34
   3  61  30 129
   3  61  34 103
   3  61  34  30
   3  61 103 145
   3  61 103  34
   3  61 145 126
   3  61 145 103
   3  61 126 125
   3  61 126 145
   3  61 125 146
   3  61 125 126
   3  61 146 102
   3  61 146 125
   3  61 102 146
   3  61 102  33
   3  61  33 102
   3  61  33 129
   3  62  49 151
   3  62  49 152
   3  62 151  49
   3  62 151  37
   3  62  37  92
   3  62  37 151
   3  62  92 133
   3  62  92  37
   3  62 133 105
   3  62 133  92
   3  62 105 104
   3  62 105 133
   3  62 104 132
   3  62 104 105
   3  62 132  93
   3  62 132 104
   3  62  93  63
   3  62  93 132
   3  62  63  93
   3  62  63 152
   3  62 152  63
   3  62 152  49
   3  63  93  79
   3  63  93  62
   3  63  79  93
   3  63  79  14
   3  63  14  10
   3  63  14  79
   3  63  10   6
   3  63  10  14
   3  63   6  31
   3  63   6  10
   3  63  31  67
   3  63  31   6
   3  63  67 152
   3  63  67  31
   3  63 152  62
   3  63 152  67
   3  63  62  93
   3  63  62 152
   3  64  37 151
   3  64  37  32
   3  64 151  49
   3  64 151  37
   3  64  49 151
   3  64  49  50
   3  64  50  43
   3  64  50  49
   3  64  43  32
   3  64  43  50
   3  64  32  37
   3  64  32  43
   3  65   3  26
   3  65   3 153
   3  65  26  45
   3  65  26   3
   3  65  45  26
   3  65  45  91
   3  65  91 113
   3  65  91  45
   3  65 113  91
   3  65 113 153
   3  65 153 113
   3  65 153   3
   3  66   4 154
   3  66   4  27
   3  66 154 113
   3  66 154   4
   3  66 113  91
   3  66 113 154
   3  66  91  46
   3  66  91 113
   3  66  46  91
   3  66  46  27
   3  66  27   4
   3  66  27  46
   3  67  51  49
   3  67  51  44
   3  67  49 152
   3  67  49  51
   3  67 152  63
   3  67 152  49
   3  67  63  31
   3  67  63 152
   3  67  31  44
   3  67  31  63
   3  67  44  31
   3  67  44  51
   3  68   5  36
   3  68   5   8
   3  68  36  40
   3  68  36   5
   3  68  40  33
   3  68  40  36
   3  68  33   8
   3  68  33  40
   3  68   8   5
   3  68   8  33
   3  69  20  83
   3  69  20  24
   3  69  83  99
   3  69  83  20
   3  69  99  56
   3  69  99  83
   3  69  56  24
   3  69  56  99
   3  69  24  20
   3  69  24  56
   3  70  57 100
   3  70  57  25
   3  70 100  84
   3  70 100  57
   3  70  84 100
   3  70  84  21
   3  70  21  25
   3  70  21  84
   3  70  25  57
   3  70  25  21
   3  71  30  41
   3  71  30  39
   3  71  41  97
   3  71  41  30
   3  71  97  82
   3  71  97  41
   3  71  82  97
   3  71  82  53
   3  71  53  39
   3  71  53  82
   3  71  39  30
   3  71  39  53
   3  72  52  40
   3  72  52  81
   3  72  81  98
   3  72  81  52
   3  72  98  42
   3  72  98  81
   3  72  42 129
   3  72  42  98
   3  72 129  40
   3  72 129  42
   3  72  40 129
   3  72  40  52
   3  73 114 142
   3  73 114 123
   3  73 142 114
   3  73 142  91
   3  73  91 142
   3  73  91  45
   3  73  45  89
   3  73  45  91
   3  73  89  45
   3  73  89 123
   3  73 123 114
   3  73 123  89
   3  74  46  91
   3  74  46  90
   3  74  91 142
   3  74  91  46
   3  74 142 115
   3  74 142  91
   3  74 115 124
   3  74 115 142
   3  74 124  90
   3  74 124 115
   3  74  90  46
   3  74  90 124
   3  75  14  79
   3  75  14  18
   3  75  79 109
   3  75  79  14
   3  75 109  89
   3  75 109  79
   3  75  89  59
   3  75  89 109
   3  75  59  18
   3  75  59  89
   3  75  18  14
   3  75  18  59
   3  76  60  90
   3  76  60  19
   3  76  90  60
   3  76  90 110
   3  76 110  80
   3  76 110  90
   3  76  80 110
   3  76  80  15
   3  76  15  19
   3  76  15  80
   3  76  19  60
   3  76  19  15
   3  77  50  43
   3  77  50  85
   3  77  85 111
   3  77  85  50
   3  77 111  81
   3  77 111  85
   3  77  81 111
   3  77  81  52
   3  77  52  43
   3  77  52  81
   3  77  43  50
   3  77  43  52
   3  78  53  44
   3  78  53  82
   3  78  82 112
   3  78  82  53
   3  78 112  86
   3  78 112  82
   3  78  86 112
   3  78  86  51
   3  78  51  44
   3  78  51  86
   3  78  44  53
   3  78  44  51
   3  79  63  93
   3  79  63  14
   3  79  93  63
   3  79  93 118
   3  79 118 109
   3  79 118  93
   3  79 109  75
   3  79 109 118
   3  79  75  14
   3  79  75 109
   3  79  14  63
   3  79  14  75
   3  80  76 110
   3  80  76  15
   3  80 110  76
   3  80 110 119
   3  80 119  92
   3  80 119 110
   3  80  92 119
   3  80  92  37
   3  80  37  92
   3  80  37  15
   3  80  15  76
   3  80  15  37
   3  81  77 111
   3  81  77  52
   3  81 111  77
   3  81 111 121
   3  81 121  98
   3  81 121 111
   3  81  98  72
   3  81  98 121
   3  81  72  52
   3  81  72  98
   3  81  52  77
   3  81  52  72
   3  82  71  97
   3  82  71  53
   3  82  97  71
   3  82  97 122
   3  82 122 112
   3  82 122  97
   3  82 112  78
   3  82 112 122
   3  82  78  53
   3  82  78 112
   3  82  53  71
   3  82  53  78
   3  83  16  87
   3  83  16  20
   3  83  87 116
   3  83  87  16
   3  83 116  99
   3  83 116  87
   3  83  99  69
   3  83  99 116
   3  83  69  20
   3  83  69  99
   3  83  20  16
   3  83  20  69
   3  84  70 100
   3  84  70  21
   3  84 100  70
   3  84 100 117
   3  84 117  88
   3  84 117 100
   3  84  88 117
   3  84  88  17
   3  84  17  21
   3  84  17  88
   3  84  21  70
   3  84  21  17
   3  85  58 101
   3  85  58  50
   3  85 101  58
   3  85 101 127
   3  85 127 111
   3  85 127 101
   3  85 111  77
   3  85 111 127
   3  85  77  50
   3  85  77 111
   3  85  50  58
   3  85  50  77
   3  86  78 112
   3  86  78  51
   3  86 112  78
   3  86 112 128
   3  86 128 101
   3  86 128 112
   3  86 101  58
   3  86 101 128
   3  86  58  51
   3  86  58 101
   3  86  51  78
   3  86  51  58
   3  87  33 102
   3  87  33  16
   3  87 102 130
   3  87 102  33
   3  87 130 116
   3  87 130 102
   3  87 116  83
   3  87 116 130
   3  87  83  16
   3  87  83 116
   3  87  16  33
   3  87  16  83
   3  88  84 117
   3  88  84  17
   3  88 117  84
   3  88 117 131
   3  88 131 103
   3  88 131 117
   3  88 103 131
   3  88 103  34
   3  88  34 103
   3  88  34  17
   3  88  17  84
   3  88  17  34
   3  89  73  45
   3  89  73 123
   3  89  45  59
   3  89  45  73
   3  89  59  75
   3  89  59  45
   3  89  75 109
   3  89  75  59
   3  89 109  75
   3  89 109 123
   3  89 123  73
   3  89 123 109
   3  90  76  60
   3  90  76 110
   3  90  60  46
   3  90  60  76
   3  90  46  74
   3  90  46  60
   3  90  74  46
   3  90  74 124
   3  90 124 110
   3  90 124  74
   3  90 110  76
   3  90 110 124
   3  91  73 142
   3  91  73  45
   3  91 142  74
   3  91 142  73
   3  91  74  46
   3  91  74 142
   3  91  46  66
   3  91  46  74
   3  91  66 113
   3  91  66  46
   3  91 113  66
   3  91 113  65
   3  91  65  45
   3  91  65 113
   3  91  45  65
   3  91  45  73
   3  92  80 119
   3  92  80  37
   3  92 119  80
   3  92 119 133
   3  92 133  62
   3  92 133 119
   3  92  62  37
   3  92  62 133
   3  92  37  62
   3  92  37  80
   3  93  79  63
   3  93  79 118
   3  93  63  79
   3  93  63  62
   3  93  62 132
   3  93  62  63
   3  93 132 118
   3  93 132  62
   3  93 118  79
   3  93 118 132
   3  94 134 136
   3  94 134 139
   3  94 136 134
   3  94 136  96
   3  94  96 136
   3  94  96  56
   3  94  56  99
   3  94  56  96
   3  94  99  56
   3  94  99 139
   3  94 139 134
   3  94 139  99
   3  95 135 140
   3  95 135 136
   3  95 140 100
   3  95 140 135
   3  95 100  57
   3  95 100 140
   3  95  57  96
   3  95  57 100
   3  95  96 136
   3  95  96  57
   3  95 136 135
   3  95 136  96
   3  96  94 136
   3  96  94  56
   3  96 136  95
   3  96 136  94
   3  96  95  57
   3  96  95 136
   3  96  57   1
   3  96  57  95
   3  96   1 120
   3  96   1  57
   3  96 120   0
   3  96 120   1
   3  96   0  56
   3  96   0 120
   3  96  56   0
   3  96  56  94
   3  97  82  71
   3  97  82 122
   3  97  71  41
   3  97  71  82
   3  97  41 137
   3  97  41  71
   3  97 137 122
   3  97 137  41
   3  97 122  82
   3  97 122 137
   3  98  42  72
   3  98  42 138
   3  98  72  81
   3  98  72  42
   3  98  81 121
   3  98  81  72
   3  98 121  81
   3  98 121 138
   3  98 138  42
   3  98 138 121
   3  99  94  56
   3  99  94 139
   3  99  56  69
   3  99  56  94
   3  99  69  83
   3  99  69  56
   3  99  83 116
   3  99  83  69
   3  99 116  83
   3  99 116 139
   3  99 139  94
   3  99 139 116
   3 100  84  70
   3 100  84 117
   3 100  70  57
   3 100  70  84
   3 100  57  95
   3 100  57  70
   3 100  95 140
   3 100  95  57
   3 100 140 117
   3 100 140  95
   3 100 117  84
   3 100 117 140
   3 101  85  58
   3 101  85 127
   3 101  58  86
   3 101  58  85
   3 101  86 128
   3 101  86  58
   3 101 128  86
   3 101 128  55
   3 101  55 127
   3 101  55 128
   3 101 127  85
   3 101 127  55
   3 102  61 146
   3 102  61  33
   3 102 146 130
   3 102 146  61
   3 102 130  87
   3 102 130 146
   3 102  87  33
   3 102  87 130
   3 102  33  87
   3 102  33  61
   3 103  88 131
   3 103  88  34
   3 103 131  88
   3 103 131 145
   3 103 145  61
   3 103 145 131
   3 103  61  34
   3 103  61 145
   3 103  34  61
   3 103  34  88
   3 104  38 132
   4 104  38  47 105
   3 104 132  62
   3 104 132  38
   3 104  62 105
   3 104  62 132
   3 104 105  62
   4 104 105  47  38
   3 105  47 133
   4 105  47  38 104
   3 105 104  62
   4 105 104  38  47
   3 105  62 133
   3 105  62 104
   3 105 133  62
   3 105 133  47
   3 106  41 137
   4 106  41  42 107
   3 106 137  41
   4 106 137  55 147
   3 107  42 138
   4 107  42  41 106
   3 107 138  42
   4 107 138  55 148
   3 108  34  39
   3 108  34   9
   3 108  39  35
   3 108  39  34
   3 108  35  39
   3 108  35   2
   3 108   2  35
   3 108   2   9
   3 108   9  34
   3 108   9   2
   3 109  89  75
   3 109  89 123
   3 109  75  79
   3 109  75  89
   3 109  79 118
   3 109  79  75
   3 109 118  79
   3 109 118 143
   3 109 143 123
   3 109 143 118
   3 109 123  89
   3 109 123 143
   3 110  80  76
   3 110  80 119
   3 110  76  90
   3 110  76  80
   3 110  90  76
   3 110  90 124
   3 110 124  90
   3 110 124 144
   3 110 144 119
   3 110 144 124
   3 110 119  80
   3 110 119 144
   3 111  81  77
   3 111  81 121
   3 111  77  85
   3 111  77  81
   3 111  85 127
   3 111  85  77
   3 111 127  85
   3 111 127 149
   3 111 149 121
   3 111 149 127
   3 111 121  81
   3 111 121 149
   3 112  86  78
   3 112  86 128
   3 112  78  82
   3 112  78  86
   3 112  82 122
   3 112  82  78
   3 112 122  82
   3 112 122 150
   3 112 150 128
   3 112 150 122
   3 112 128  86
   3 112 128 150
   3 113  91  66
   3 113  91  65
   3 113  66 154
   3 113  66  91
   3 113 154 141
   3 113 154  66
   3 113 141 153
   3 113 141 154
   3 113 153  65
   3 113 153 141
   3 113  65  91
   3 113  65 153
   3 114  38 123
   4 114  38  47 115
   3 114 115 142
   4 114 115  47  38
   3 114 142 115
   3 114 142  73
   3 114  73 142
   3 114  73 123
   3 114 123  73
   3 114 123  38
   3 115  47 124
   4 115  47  38 114
   3 115 124  74
   3 115 124  47
   3 115  74 142
   3 115  74 124
   3 115 142 114
   3 115 142  74
   3 115 114 142
   4 115 114  38  47
   3 116  99  83
   3 116  99 139
   3 116  83  87
   3 116  83  99
   3 116  87 130
   3 116  87  83
   3 116 130  87
   3 116 130 155
   3 116 155 139
   3 116 155 130
   3 116 139  99
   3 116 139 155
   3 117  88  84
   3 117  88 131
   3 117  84 100
   3 117  84  88
   3 117 100  84
   3 117 100 140
   3 117 140 100
   3 117 140 156
   3 117 156 131
   3 117 156 140
   3 117 131  88
   3 117 131 156
   3 118 109  79
   3 118 109 143
   3 118  79  93
   3 118  79 109
   3 118  93  79
   3 118  93 132
   3 118 132  93
   3 118 132  38
   3 118  38 143
   3 118  38 132
   3 118 143 109
   3 118 143  38
   3 119  92  80
   3 119  92 133
   3 119  80 110
   3 119  80  92
   3 119 110  80
   3 119 110 144
   3 119 144 110
   3 119 144  47
   3 119  47 133
   3 119  47 144
   3 119 133  92
   3 119 133  47
   3 120   0  96
   3 120   0  28
   3 120  96   1
   3 120  96   0
   3 120   1  28
   3 120   1  96
   3 120  28   0
   3 120  28   1
   3 121  98  81
   3 121  98 138
   3 121  81 111
   3 121  81  98
   3 121 111  81
   3 121 111 149
   3 121 149 111
   3 121 149  55
   3 121  55 149
   3 121  55 138
   3 121 138  98
   3 121 138  55
   3 122 112  82
   3 122 112 150
   3 122  82  97
   3 122  82 112
   3 122  97  82
   3 122  97 137
   3 122 137  97
   3 122 137  55
   3 122  55 150
   3 122  55 137
   3 122 150 112
   3 122 150  55
   3 123 114  38
   3 123 114  73
   3 123  73 114
   3 123  73  89
   3 123  89  73
   3 123  89 109
   3 123 109  89
   3 123 109 143
   3 123 143 109
   3 123 143  38
   3 123  38 114
   3 123  38 143
   3 124 110  90
   3 124 110 144
   3 124  90  74
   3 124  90 110
   3 124  74 115
   3 124  74  90
   3 124 115  47
   3 124 115  74
   3 124  47 115
   3 124  47 144
   3 124 144 110
   3 124 144  47
   3 125  48 146
   4 125  48  54 126
   3 125 146  61
   3 125 146  48
   3 125  61 126
   3 125  61 146
   3 125 126  61
   4 125 126  54  48
   3 126  54 145
   4 126  54  48 125
   3 126 125  61
   4 126 125  48  54
   3 126  61 145
   3 126  61 125
   3 126 145  61
   3 126 145  54
   3 127 111  85
   3 127 111 149
   3 127  85 101
   3 127  85 111
   3 127 101  85
   3 127 101  55
   3 127  55 149
   3 127  55 101
   3 127 149 111
   3 127 149  55
   3 128 101  86
   3 128 101  55
   3 128  86 112
   3 128  86 101
   3 128 112  86
   3 128 112 150
   3 128 150 112
   3 128 150  55
   3 128  55 101
   3 128  55 150
   3 129  33  40
   3 129  33  61
   3 129  40  33
   3 129  40  72
   3 129  72  42
   3 129  72  40
   3 129  42  72
   4 129  42  41  30
   3 129  30  61
   4 129  30  41  42
   3 129  61  30
   3 129  61  33
   3 130 116  87
   3 130 116 155
   3 130  87 102
   3 130  87 116
   3 130 102 146
   3 130 102  87
   3 130 146 102
   3 130 146  48
   3 130  48 155
   3 130  48 146
   3 130 155 116
   3 130 155  48
   3 131 103  88
   3 131 103 145
   3 131  88 117
   3 131  88 103
   3 131 117  88
   3 131 117 156
   3 131 156 117
   3 131 156  54
   3 131  54 145
   3 131  54 156
   3 131 145 103
   3 131 145  54
   3 132 118  93
   3 132 118  38
   3 132  93  62
   3 132  93 118
   3 132  62 104
   3 132  62  93
   3 132 104  38
   3 132 104  62
   3 132  38 118
   3 132  38 104
   3 133 105  47
   3 133 105  62
   3 133  62  92
   3 133  62 105
   3 133  92 119
   3 133  92  62
   3 133 119  92
   3 133 119  47
   3 133  47 105
   3 133  47 119
   3 134  48 139
   4 134  48  54 135
   3 134 135 136
   4 134 135  54  48
   3 134 136 135
   3 134 136  94
   3 134  94 136
   3 134  94 139
   3 134 139  94
   3 134 139  48
   3 135  54 140
   4 135  54  48 134
   3 135 140  95
   3 135 140  54
   3 135  95 140
   3 135  95 136
   3 135 136 134
   3 135 136  95
   3 135 134 136
   4 135 134  48  54
   3 136 134 135
   3 136 134  94
   3 136 135  95
   3 136 135 134
   3 136  95 135
   3 136  95  96
   3 136  96  94
   3 136  96  95
   3 136  94 134
   3 136  94  96
   3 137 122  97
   3 137 122  55
   3 137  97  41
   3 137  97 122
   3 137  41 106
   3 137  41  97
   3 137 106  41
   4 137 106 147  55
   3 137  55 122
   4 137  55 147 106
   3 138 107  42
   4 138 107 148  55
   3 138  42 107
   3 138  42  98
   3 138  98  42
   3 138  98 121
   3 138 121  98
   3 138 121  55
   3 138  55 121
   4 138  55 148 107
   3 139 134  48
   3 139 134  94
   3 139  94 134
   3 139  94  99
   3 139  99  94
   3 139  99 116
   3 139 116  99
   3 139 116 155
   3 139 155 116
   3 139 155  48
   3 139  48 134
   3 139  48 155
   3 140 117 100
   3 140 117 156
   3 140 100  95
   3 140 100 117
   3 140  95 135
   3 140  95 100
   3 140 135  54
   3 140 135  95
   3 140  54 135
   3 140  54 156
   3 140 156 117
   3 140 156  54
   3 141   3  29
   3 141   3 153
   3 141 153 113
   3 141 153   3
   3 141 113 154
   3 141 113 153
   3 141 154 113
   3 141 154   4
   3 141   4  29
   3 141   4 154
   3 141  29   3
   3 141  29   4
   3 142 114 115
   3 142 114  73
   3 142 115  74
   3 142 115 114
   3 142  74  91
   3 142  74 115
   3 142  91  73
   3 142  91  74
   3 142  73 114
   3 142  73  91
   3 143 123 109
   3 143 123  38
   3 143 109 118
   3 143 109 123
   3 143 118 109
   3 143 118  38
   3 143  38 123
   3 143  38 118
   3 144 119 110
   3 144 119  47
   3 144 110 124
   3 144 110 119
   3 144 124 110
   3 144 124  47
   3 144  47 119
   3 144  47 124
   3 145 126  54
   3 145 126  61
   3 145  61 103
   3 145  61 126
   3 145 103 131
   3 145 103  61
   3 145 131 103
   3 145 131  54
   3 145  54 126
   3 145  54 131
   3 146 130 102
   3 146 130  48
   3 146 102  61
   3 146 102 130
   3 146  61 125
   3 146  61 102
   3 146 125  48
   3 146 125  61
   3 146  48 130
   3 146  48 125
   3 147  55 148
   4 147  55 137 106
   3 147 148  55
   4 147 148 107 106
   3 148  55 147
   4 148  55 138 107
   3 148 147  55
   4 148 147 106 107
   3 149 121 111
   3 149 121  55
   3 149 111 127
   3 149 111 121
   3 149 127 111
   3 149 127  55
   3 149  55 121
   3 149  55 127
   3 150 128 112
   3 150 128  55
   3 150 112 122
   3 150 112 128
   3 150 122 112
   3 150 122  55
   3 150  55 128
   3 150  55 122
   3 151  62  49
   3 151  62  37
   3 151  49  62
   3 151  49  64
   3 151  64  37
   3 151  64  49
   3 151  37  62
   3 151  37  64
   3 152  62  49
   3 152  62  63
   3 152  63  67
   3 152  63  62
   3 152  67  49
   3 152  67  63
   3 152  49  62
   3 152  49  67
   3 153  65   3
   3 153  65 113
   3 153 113 141
   3 153 113  65
   3 153 141   3
   3 153 141 113
   3 153   3  65
   3 153   3 141
   3 154 141 113
   3 154 141   4
   3 154 113  66
   3 154 113 141
   3 154  66   4
   3 154  66 113
   3 154   4 141
   3 154   4  66
   3 155 139 116
   3 155 139  48
   3 155 116 130
   3 155 116 139
   3 155 130 116
   3 155 130  48
   3 155  48 139
   3 155  48 130
   3 156 131 117
   3 156 131  54
   3 156 117 140
   3 156 117 131
   3 156 140 117
   3 156 140  54
   3 156  54 131
   3 156  54 140
