 COFF
         170        1776         170
  
  -6.6828708967850750        1.3409845641610323        7.2604150517645278       0.60000002384185791       0.60000002384185791       0.60000002384185791       0.80000001192092896     
  -6.6828751439191265       -1.3409812614035497        7.2604160279821608       0.60000002384185791       0.60000002384185791       0.60000002384185791       0.80000001192092896     
  -3.4919793420905558E-002  -2.4300527196486965        6.9403839803672094       0.60000002384185791       0.60000002384185791       0.60000002384185791       0.80000001192092896     
   7.5570974649810250       -1.2377388321437179        7.4124088147671428       0.60000002384185791       0.60000002384185791       0.60000002384185791       0.80000001192092896     
   7.5570974505119048        1.2377388354473360        7.4124088204211054       0.60000002384185791       0.60000002384185791       0.60000002384185791       0.80000001192092896     
  -3.4917024766436142E-002   2.4301956420321411        6.9402392405833311       0.60000002384185791       0.60000002384185791       0.60000002384185791       0.80000001192092896     
   1.1891651872540310       -2.0944746766100972        7.0933204471457145       0.60000002384185791       0.60000002384185791       0.60000002384185791       0.80000001192092896     
   1.1891786341543626        2.0944997510956473        7.0932926415556565       0.60000002384185791       0.60000002384185791       0.60000002384185791       0.80000001192092896     
  -1.2046274995993622        2.0823818234972520        7.0587789177079596       0.60000002384185791       0.60000002384185791       0.60000002384185791       0.80000001192092896     
  -1.2045715392789886       -2.0822521748257943        7.0589184328590040       0.60000002384185791       0.60000002384185791       0.60000002384185791       0.80000001192092896     
   2.0766089845744458       -1.7491101894549963        7.4003753003710591       0.60000002384185791       0.60000002384185791       0.60000002384185791       0.80000001192092896     
   2.0766084545825518        1.7491165044746677        7.4003689517875237       0.60000002384185791       0.60000002384185791       0.60000002384185791       0.80000001192092896     
  -2.0980541983079535        1.7616491411338642        7.3740053381751514       0.60000002384185791       0.60000002384185791       0.60000002384185791       0.80000001192092896     
  -2.0980661275982166       -1.7616094256243144        7.3740442764862912       0.60000002384185791       0.60000002384185791       0.60000002384185791       0.80000001192092896     
   3.0281349857091762       -1.9128373970143264        7.1268591159177612       0.60000002384185791       0.60000002384185791       0.60000002384185791       0.80000001192092896     
   3.0281402954796515        1.9128403926844315        7.1268617645768968       0.60000002384185791       0.60000002384185791       0.60000002384185791       0.80000001192092896     
  -3.0303192313124523        1.9201162749404626        7.0496408109750357       0.60000002384185791       0.60000002384185791       0.60000002384185791       0.80000001192092896     
  -3.0303096409034209       -1.9201204203657696        7.0496380316626679       0.60000002384185791       0.60000002384185791       0.60000002384185791       0.80000001192092896     
   4.1202739836479907       -1.7870850094996373        7.2920512141675653       0.60000002384185791       0.60000002384185791       0.60000002384185791       0.80000001192092896     
   4.1202742908028060        1.7870855371092635        7.2920506216616037       0.60000002384185791       0.60000002384185791       0.60000002384185791       0.80000001192092896     
  -4.0990531630107920        1.7910451574642248        7.2364678631663724       0.60000002384185791       0.60000002384185791       0.60000002384185791       0.80000001192092896     
  -4.0990535148632601       -1.7910468004555022        7.2364661717438272       0.60000002384185791       0.60000002384185791       0.60000002384185791       0.80000001192092896     
   5.1081193226751207       -1.5664640499448561        7.3671023511188114       0.60000002384185791       0.60000002384185791       0.60000002384185791       0.80000001192092896     
   5.1081193546042440        1.5664641163846849        7.3671022816471670       0.60000002384185791       0.60000002384185791       0.60000002384185791       0.80000001192092896     
  -5.1013651928911106        1.5808845871158494        7.2848237833892080       0.60000002384185791       0.60000002384185791       0.60000002384185791       0.80000001192092896     
  -5.1013653515134836       -1.5808848479411342        7.2848235005307087       0.60000002384185791       0.60000002384185791       0.60000002384185791       0.80000001192092896     
   6.0990254795917416       -1.4391893421826369        7.4208969542316492       0.60000002384185791       0.60000002384185791       0.60000002384185791       0.80000001192092896     
   6.0990254978064753        1.4391893365695896        7.4208969610124846       0.60000002384185791       0.60000002384185791       0.60000002384185791       0.80000001192092896     
  -8.0260160536933665       -5.6561842277824143E-005   7.2522544250055896       0.60000002384185791       0.60000002384185791       0.60000002384185791       0.80000001192092896     
   8.7946360716229659        1.2528150426412434E-004   7.4471287536802002       0.60000002384185791       0.60000002384185791       0.60000002384185791       0.80000001192092896     
  -1.7786974331961134      -0.75178723626122568        4.6874750238042848       0.60000002384185791       0.60000002384185791       0.60000002384185791       0.80000001192092896     
  0.94266548684373230       -1.9478872227897130        5.3000303459989118        1.0000000000000000        1.0000000000000000        0.0000000000000000        1.0000000000000000     
  0.94294527130023842        1.9479543398844530        5.3000411016708728        1.0000000000000000        1.0000000000000000        0.0000000000000000        1.0000000000000000     
  -2.1101892176138182        1.8072443002045380        6.0761810539072796       0.60000002384185791       0.60000002384185791       0.60000002384185791       0.80000001192092896     
  -2.1137366349221094       -1.8015472711039409        6.0809676122546588       0.60000002384185791       0.60000002384185791       0.60000002384185791       0.80000001192092896     
 -0.17782637323365710       -2.0641450035891764        5.3775252132780258       0.60000002384185791       0.60000002384185791       0.60000002384185791       0.80000001192092896     
 -0.17773670160859151        2.0646431446335951        5.3776473494057644       0.60000002384185791       0.60000002384185791       0.60000002384185791       0.80000001192092896     
   2.0888057594884941        1.7626191242572511        6.1299383800711729       0.60000002384185791       0.60000002384185791       0.60000002384185791       0.80000001192092896     
   3.5622559288033528      -0.61971322180327593        2.7262692079133850        1.0000000000000000        1.0000000000000000        0.0000000000000000        1.0000000000000000     
 -0.88511892125375213       -1.9565516863695367        4.8731703379390616       0.60000002384185791       0.60000002384185791       0.60000002384185791       0.80000001192092896     
 -0.85776812408189285        1.9646734614810499        4.8759107472091570       0.60000002384185791       0.60000002384185791       0.60000002384185791       0.80000001192092896     
  -1.3552683840349924      -0.94260572670077802        3.1985971780524256       0.60000002384185791       0.60000002384185791       0.60000002384185791       0.80000001192092896     
  -1.3601979036586513       0.95187886148836520        3.1985316240211135       0.60000002384185791       0.60000002384185791       0.60000002384185791       0.80000001192092896     
  0.83380483903401281        1.9041923335115643        4.5016236109037511       0.60000002384185791       0.60000002384185791       0.60000002384185791       0.80000001192092896     
  0.83354946025065879       -1.9040689012308261        4.5017834620039805       0.60000002384185791       0.60000002384185791       0.60000002384185791       0.80000001192092896     
   5.5803187926939488       -1.4818076878972728        6.4127010563559619       0.60000002384185791       0.60000002384185791       0.60000002384185791       0.80000001192092896     
   5.5803460207123452        1.4818026086261142        6.4127287869948582       0.60000002384185791       0.60000002384185791       0.60000002384185791       0.80000001192092896     
   3.5622515398712964       0.61971255268250225        2.7262692079133850        1.0000000000000000        1.0000000000000000        0.0000000000000000        1.0000000000000000     
  -3.5316018300446159       0.66059386668679021        2.9816402194175646        1.0000000000000000        1.0000000000000000        0.0000000000000000        1.0000000000000000     
   1.8586451987877914       -2.6028360130456122E-005   4.8882858728947429       0.60000002384185791       0.60000002384185791       0.60000002384185791       0.80000001192092896     
   1.2052904032046776        1.4790989975261388        4.1925617645308479       0.60000002384185791       0.60000002384185791       0.60000002384185791       0.80000001192092896     
   1.2043963575665793       -1.4800153604634734        4.1930400947632354       0.60000002384185791       0.60000002384185791       0.60000002384185791       0.80000001192092896     
   5.6200248996909223E-002   1.9632326160749307        4.2993258264620460       0.60000002384185791       0.60000002384185791       0.60000002384185791       0.80000001192092896     
   4.6714255434734613E-002  -1.9615092145722111        4.3004861865147017       0.60000002384185791       0.60000002384185791       0.60000002384185791       0.80000001192092896     
  -3.5313081855385215      -0.65982827996826732        2.9816402194175642        1.0000000000000000        1.0000000000000000        0.0000000000000000        1.0000000000000000     
  0.12714667767413312       -7.3215286458465393E-003   1.0306063639638421        1.0000000000000000        1.0000000000000000        0.0000000000000000        1.0000000000000000     
  -5.2728704455723641        1.4722305774126310        6.2219818114330740       0.60000002384185791       0.60000002384185791       0.60000002384185791       0.80000001192092896     
  -5.2728642889227997       -1.4722331018005901        6.2219881930054690       0.60000002384185791       0.60000002384185791       0.60000002384185791       0.80000001192092896     
   1.4227209117225390        6.6561697891023429E-005   3.7707253385072299       0.60000002384185791       0.60000002384185791       0.60000002384185791       0.80000001192092896     
   4.5909727535155609       -1.6819038050945256        6.5332907407051328       0.60000002384185791       0.60000002384185791       0.60000002384185791       0.80000001192092896     
   4.5909180723645351        1.6819118112539801        6.5332751655417072       0.60000002384185791       0.60000002384185791       0.60000002384185791       0.80000001192092896     
  -2.3400881909572004       -3.8300164972253025E-003   4.9438148585040889       0.60000002384185791       0.60000002384185791       0.60000002384185791       0.80000001192092896     
   2.0976795852451011       -2.3324930840338490E-005   5.3021181057422142       0.60000002384185791       0.60000002384185791       0.60000002384185791       0.80000001192092896     
   2.0887841561822240       -1.7626131423164324        6.1299433892026780       0.60000002384185791       0.60000002384185791       0.60000002384185791       0.80000001192092896     
   1.3796344180428886        1.7504313485795684        5.1836069606859096       0.60000002384185791       0.60000002384185791       0.60000002384185791       0.80000001192092896     
   6.7649130895586680       -1.3077975967589595        6.6733849055775938       0.60000002384185791       0.60000002384185791       0.60000002384185791       0.80000001192092896     
   6.7649130818386745        1.3077976006637337        6.6733848599031527       0.60000002384185791       0.60000002384185791       0.60000002384185791       0.80000001192092896     
   1.3794426803772883       -1.7504563944926628        5.1837432291582894       0.60000002384185791       0.60000002384185791       0.60000002384185791       0.80000001192092896     
 -0.98417125255501436        1.9578285433756606        5.5885518916073949        1.0000000000000000        1.0000000000000000        0.0000000000000000        1.0000000000000000     
  -4.5842275666842829        1.6892872030393447        6.4991032786726670       0.60000002384185791       0.60000002384185791       0.60000002384185791       0.80000001192092896     
  -4.5842698587994199       -1.6892425981709958        6.4990995637695654       0.60000002384185791       0.60000002384185791       0.60000002384185791       0.80000001192092896     
 -0.67235487761224411       -1.6881024794109312        3.9569874145864525       0.60000002384185791       0.60000002384185791       0.60000002384185791       0.80000001192092896     
 -0.66545579571289903        1.7321964281078419        3.9112425940587179       0.60000002384185791       0.60000002384185791       0.60000002384185791       0.80000001192092896     
   5.3582980790489758       -1.1162077807758057        5.1335587669047023       0.60000002384185791       0.60000002384185791       0.60000002384185791       0.80000001192092896     
   5.3582676529875100        1.1162252631260303        5.1335246768955205       0.60000002384185791       0.60000002384185791       0.60000002384185791       0.80000001192092896     
   4.1036477182281468       -1.7637566929066915        6.0116545997422906       0.60000002384185791       0.60000002384185791       0.60000002384185791       0.80000001192092896     
   4.1037213787258686        1.7636940025680905        6.0116667931699190       0.60000002384185791       0.60000002384185791       0.60000002384185791       0.80000001192092896     
  0.73582703187615717        1.7639918830232677        3.5652961199525035       0.60000002384185791       0.60000002384185791       0.60000002384185791       0.80000001192092896     
  0.73353653751593628       -1.7635255344391259        3.5668414050729278       0.60000002384185791       0.60000002384185791       0.60000002384185791       0.80000001192092896     
   3.1024913850588582       -1.7986898639343247        5.6014248472801809       0.60000002384185791       0.60000002384185791       0.60000002384185791       0.80000001192092896     
   3.1024774005479312        1.7986927360463407        5.6014440343191980       0.60000002384185791       0.60000002384185791       0.60000002384185791       0.80000001192092896     
  0.15564484529644612        1.8098600966179335        3.1891704074149212        1.0000000000000000       0.10000000149011612        0.0000000000000000       0.50000000000000000     
  0.16172063696529623       -1.7975688003385339        3.1931282800284282        1.0000000000000000       0.10000000149011612        0.0000000000000000       0.50000000000000000     
  -4.0778063990371711        1.7635772096777675        6.0153645688486259       0.60000002384185791       0.60000002384185791       0.60000002384185791       0.80000001192092896     
  -4.0777582286187775       -1.7635656095365559        6.0152868460853650       0.60000002384185791       0.60000002384185791       0.60000002384185791       0.80000001192092896     
   1.0708508564240877        1.2198202687426682        3.2055955879134674        1.0000000000000000       0.10000000149011612        0.0000000000000000       0.50000000000000000     
   1.0719997718430532       -1.2173822685635147        3.2077338808051348        1.0000000000000000       0.10000000149011612        0.0000000000000000       0.50000000000000000     
  -3.1016200502731808        1.8119578017497258        5.5198076919691994       0.60000002384185791       0.60000002384185791       0.60000002384185791       0.80000001192092896     
  -3.1004467228192047       -1.8112723092288441        5.5161515490294288       0.60000002384185791       0.60000002384185791       0.60000002384185791       0.80000001192092896     
   4.6240168140201350       -1.6677515934843885        5.4274337015800995       0.60000002384185791       0.60000002384185791       0.60000002384185791       0.80000001192092896     
   4.6239154017763715        1.6678661648484820        5.4274059953898917       0.60000002384185791       0.60000002384185791       0.60000002384185791       0.80000001192092896     
   6.1802159624901698        1.0163010793459069E-005   5.8544832270421647       0.60000002384185791       0.60000002384185791       0.60000002384185791       0.80000001192092896     
   2.5814321429285432        1.2857073528226093        4.9947687193413479       0.60000002384185791       0.60000002384185791       0.60000002384185791       0.80000001192092896     
   2.5814820453566170       -1.2857403362740036        4.9947806492639701       0.60000002384185791       0.60000002384185791       0.60000002384185791       0.80000001192092896     
  -5.1254188817291348        1.1920851735812812        5.0432583206382482       0.60000002384185791       0.60000002384185791       0.60000002384185791       0.80000001192092896     
  -5.1251271083431504       -1.1922209211437529        5.0424538955581957       0.60000002384185791       0.60000002384185791       0.60000002384185791       0.80000001192092896     
  -6.0576122097345486       -1.7701637131704951E-007   5.9454226477958079       0.60000002384185791       0.60000002384185791       0.60000002384185791       0.80000001192092896     
 -0.46234819639752561       -1.5365559925269958        2.7514408093795160        1.0000000000000000       0.10000000149011612        0.0000000000000000       0.50000000000000000     
 -0.47720427769522772        1.5576012058041002        2.7486250821741471        1.0000000000000000       0.10000000149011612        0.0000000000000000       0.50000000000000000     
  -4.5934894121187106        1.6523112147305690        5.2851303414144768       0.60000002384185791       0.60000002384185791       0.60000002384185791       0.80000001192092896     
  -4.5934518960983493       -1.6523698727595657        5.2852201659719800       0.60000002384185791       0.60000002384185791       0.60000002384185791       0.80000001192092896     
   1.2113692598073265        5.4613755254272721E-004   2.8210057360780412        1.0000000000000000       0.10000000149011612        0.0000000000000000       0.50000000000000000     
  -2.6334027279699610        1.5406917188372262        5.0596462442423942       0.60000002384185791       0.60000002384185791       0.60000002384185791       0.80000001192092896     
  -2.6092674843393393       -1.5323558312577823        5.0435403006429311       0.60000002384185791       0.60000002384185791       0.60000002384185791       0.80000001192092896     
   2.5516642401905045      -0.63994564683797761        3.7133222275328723       0.60000002384185791       0.60000002384185791       0.60000002384185791       0.80000001192092896     
   2.5516516876298643       0.63994902496342509        3.7133282822734959       0.60000002384185791       0.60000002384185791       0.60000002384185791       0.80000001192092896     
  -1.4829419519762683      -0.85673919438462098        2.3395880113127641        1.0000000000000000       0.10000000149011612        0.0000000000000000       0.50000000000000000     
  -1.4681275546012382       0.46860674621842513        2.2787842699098193        1.0000000000000000       0.10000000149011612        0.0000000000000000       0.50000000000000000     
 -0.98192067141871886       -1.9569454936138468        5.5901904069473911        1.0000000000000000        1.0000000000000000        0.0000000000000000        1.0000000000000000     
   4.0373313223864447       -1.7335454506015375        4.8920414195585229       0.60000002384185791       0.60000002384185791       0.60000002384185791       0.80000001192092896     
   4.0372007496839712        1.7334473738471456        4.8920380547171280       0.60000002384185791       0.60000002384185791       0.60000002384185791       0.80000001192092896     
  0.64817707883960185        1.5896306361390651        2.5698035159881170        1.0000000000000000       0.10000000149011612        0.0000000000000000       0.50000000000000000     
  0.65696924806139712       -1.5814546964989915        2.5764358454587115        1.0000000000000000       0.10000000149011612        0.0000000000000000       0.50000000000000000     
   6.9885133772977124       -3.2206565712906798E-008   5.4874884147305032        1.0000000000000000        1.0000000000000000        0.0000000000000000        1.0000000000000000     
   5.0682619642034918       -1.0313419201917269        3.9435933772828977       0.60000002384185791       0.60000002384185791       0.60000002384185791       0.80000001192092896     
   5.0682644133788690        1.0313427525096790        3.9435935072678205       0.60000002384185791       0.60000002384185791       0.60000002384185791       0.80000001192092896     
  -4.0520766156327248        1.7255500877713084        4.9075715369168593       0.60000002384185791       0.60000002384185791       0.60000002384185791       0.80000001192092896     
  -4.0508266449951869       -1.7254247786378385        4.9071514456372132       0.60000002384185791       0.60000002384185791       0.60000002384185791       0.80000001192092896     
   3.2465116171439932       -1.5901699160513731        4.5243446237568268       0.60000002384185791       0.60000002384185791       0.60000002384185791       0.80000001192092896     
   3.2464409224513378        1.5903834788598232        4.5243383629467644       0.60000002384185791       0.60000002384185791       0.60000002384185791       0.80000001192092896     
  -6.9366187006179389        3.5024320780014563E-006   5.6811856426661205        1.0000000000000000        1.0000000000000000        0.0000000000000000        1.0000000000000000     
  0.17738272384606149        1.6371031658318984        2.2045592201279165        1.0000000000000000       0.10000000149011612        0.0000000000000000       0.50000000000000000     
  0.18473242874719203       -1.6237732045172157        2.2006582979694720        1.0000000000000000       0.10000000149011612        0.0000000000000000       0.50000000000000000     
   4.5948749175172097       -1.5357884055361375        4.2575252879223582       0.60000002384185791       0.60000002384185791       0.60000002384185791       0.80000001192092896     
   4.5949035502044779        1.5357926574167278        4.2575605924169180       0.60000002384185791       0.60000002384185791       0.60000002384185791       0.80000001192092896     
  -2.6297807916982618       0.50842859693563214        3.8442836200242554       0.60000002384185791       0.60000002384185791       0.60000002384185791       0.80000001192092896     
  -2.6333358157323508      -0.45079384230719033        3.8438115202847607       0.60000002384185791       0.60000002384185791       0.60000002384185791       0.80000001192092896     
  0.96236600457095500       0.99148177370019308        2.3139815425735826        1.0000000000000000       0.10000000149011612        0.0000000000000000       0.50000000000000000     
  0.96051616479514590      -0.98472695012497036        2.3074206600684071        1.0000000000000000       0.10000000149011612        0.0000000000000000       0.50000000000000000     
  -1.7876235572323089        1.0160885870398153        4.6937242845986482       0.60000002384185791       0.60000002384185791       0.60000002384185791       0.80000001192092896     
  -3.2587376122226526        1.6769193386107870        4.5106730002266335       0.60000002384185791       0.60000002384185791       0.60000002384185791       0.80000001192092896     
  -3.2465909436977358       -1.6760089591146876        4.5111373907456240       0.60000002384185791       0.60000002384185791       0.60000002384185791       0.80000001192092896     
   2.8006368196616571       -1.2161616541345281        4.3491169599561310       0.60000002384185791       0.60000002384185791       0.60000002384185791       0.80000001192092896     
   2.8004920237801856        1.2163538629842425        4.3491124599521545       0.60000002384185791       0.60000002384185791       0.60000002384185791       0.80000001192092896     
  -4.8938235916307100       0.99947405709633752        4.0451125564798733       0.60000002384185791       0.60000002384185791       0.60000002384185791       0.80000001192092896     
  -4.8932182534622859      -0.99958549650292206        4.0450768379829833       0.60000002384185791       0.60000002384185791       0.60000002384185791       0.80000001192092896     
  -5.4360193634715470       -4.2413421758436791E-005   4.8675118801872204       0.60000002384185791       0.60000002384185791       0.60000002384185791       0.80000001192092896     
 -0.51220212028324852       -1.3497269788161221        1.9728702952960473        1.0000000000000000       0.10000000149011612        0.0000000000000000       0.50000000000000000     
 -0.65221415326287524        1.2484188247837809        2.0309643077839374        1.0000000000000000       0.10000000149011612        0.0000000000000000       0.50000000000000000     
  -4.5335298096288641        1.4764346502603485        4.2184401426826090       0.60000002384185791       0.60000002384185791       0.60000002384185791       0.80000001192092896     
  -4.5319176298652719       -1.4760509012599718        4.2184832913005517       0.60000002384185791       0.60000002384185791       0.60000002384185791       0.80000001192092896     
   8.0062889478134398        2.1812432866693466E-007   6.7662665487556009       0.60000002384185791       0.60000002384185791       0.60000002384185791       0.80000001192092896     
   5.6482370625049416        3.8233963082300187E-005   4.9193721196733726       0.60000002384185791       0.60000002384185791       0.60000002384185791       0.80000001192092896     
   3.9923580037369053       -1.5623223697548436        3.8964224177233264       0.60000002384185791       0.60000002384185791       0.60000002384185791       0.80000001192092896     
   3.9923472275889553        1.5623164397083968        3.8964256314515189       0.60000002384185791       0.60000002384185791       0.60000002384185791       0.80000001192092896     
  -2.8712937511524999       -1.3154997941216833        4.2085540878463430       0.60000002384185791       0.60000002384185791       0.60000002384185791       0.80000001192092896     
  -2.8910214637960516        1.3271509574383631        4.2074307596301264       0.60000002384185791       0.60000002384185791       0.60000002384185791       0.80000001192092896     
  -1.2185631976610882      -0.65020981675368861        1.5030221233901537        1.0000000000000000       0.10000000149011612        0.0000000000000000       0.50000000000000000     
  -1.1338780128989976       0.23973133070849717        1.4727601841569260        1.0000000000000000       0.10000000149011612        0.0000000000000000       0.50000000000000000     
  0.64483823791982697        1.1539491539863975        1.7407091349505770        1.0000000000000000       0.10000000149011612        0.0000000000000000       0.50000000000000000     
  0.65864530207822281       -1.1452221521127275        1.7390115193627242        1.0000000000000000       0.10000000149011612        0.0000000000000000       0.50000000000000000     
   2.0623767166399363       0.89812102535677629        5.5812461817008874       0.60000002384185791       0.60000002384185791       0.60000002384185791       0.80000001192092896     
   2.0623601373031057      -0.89820620995487133        5.5811956048401994       0.60000002384185791       0.60000002384185791       0.60000002384185791       0.80000001192092896     
   7.3869029340995649      -0.81859210490755219        6.5281462108581572       0.60000002384185791       0.60000002384185791       0.60000002384185791       0.80000001192092896     
   7.3869029484645239       0.81859206162526632        6.5281462113073303       0.60000002384185791       0.60000002384185791       0.60000002384185791       0.80000001192092896     
  -3.9201752621314667        1.4659117036695655        3.9434079027268711       0.60000002384185791       0.60000002384185791       0.60000002384185791       0.80000001192092896     
  -3.9174851393418604       -1.4663327774775627        3.9454554289042143       0.60000002384185791       0.60000002384185791       0.60000002384185791       0.80000001192092896     
  -2.1175059411431936       -1.1100505771321161        5.4328409499577450       0.60000002384185791       0.60000002384185791       0.60000002384185791       0.80000001192092896     
  -2.1186477449907581        1.1136441560466093        5.4287368871331951       0.60000002384185791       0.60000002384185791       0.60000002384185791       0.80000001192092896     
  0.83108558763354456       -4.2696523558437031E-003   1.9511472029279464        1.0000000000000000       0.10000000149011612        0.0000000000000000       0.50000000000000000     
  -6.8967285639876250       0.68817374828819466        6.4855387076220632       0.60000002384185791       0.60000002384185791       0.60000002384185791       0.80000001192092896     
  -6.8967308896942354      -0.68816281022630277        6.4855401771506589       0.60000002384185791       0.60000002384185791       0.60000002384185791       0.80000001192092896     
   4.2073233294257157       -1.1702813352759318        3.4794191481186423        1.0000000000000000       0.10000000149011612        0.0000000000000000       0.50000000000000000     
   4.2073244530811005        1.1702797792618205        3.4794191617774488        1.0000000000000000       0.10000000149011612        0.0000000000000000       0.50000000000000000     
   3.3613056075086041       -1.2115948155671816        3.6447386236223274       0.60000002384185791       0.60000002384185791       0.60000002384185791       0.80000001192092896     
   3.3613152258460559        1.2115995045230199        3.6447381848376623       0.60000002384185791       0.60000002384185791       0.60000002384185791       0.80000001192092896     
   5.1272213909672502        3.4025445223301839E-007   3.9170702867854525       0.60000002384185791       0.60000002384185791       0.60000002384185791       0.80000001192092896     
   4.4084840307595048      -0.30319014108152226        3.3038575224886584        1.0000000000000000       0.10000000149011612        0.0000000000000000       0.50000000000000000     
   4.4084814184305632       0.30318980118185229        3.3038575224886602        1.0000000000000000       0.10000000149011612        0.0000000000000000       0.50000000000000000     
  0.14745130522833802       0.86196230339899305        1.6032264807889087        1.0000000000000000       0.10000000149011612        0.0000000000000000       0.50000000000000000     
  
   3   0  24  56
   3   0  56  24
   3   0  56  96
   3   0  96 160
   3   0  96  56
   3   0 160  96
   3   0 160  28
   3   0  28 160
   4   0  28 120  96
   3   1  28 161
   4   1  28   0  96
   3   1 161  28
   3   1 161  96
   3   1  96  57
   3   1  96 161
   3   1  57  96
   3   1  57  25
   3   1  25  57
   3   2  35 108
   3   2  35  31
   3   2  31  35
   3   2  31   6
   3   2   6  31
   3   2   9 108
   3   2 108  35
   3   2 108   9
   3   3  29 141
   3   3  26  65
   3   3  65  26
   3   3  65 153
   3   3 153  65
   3   3 153 141
   3   3 141 153
   3   3 141  29
   3   4  29 141
   3   4 141 154
   3   4 141  29
   3   4 154 141
   3   4 154  66
   3   4  66 154
   3   4  66  27
   3   4  27  66
   3   5   7  32
   3   5  32  36
   3   5  32   7
   3   5  36  32
   3   5  36  68
   3   5  68  36
   3   5  68   8
   3   5   8  68
   3   6   2  31
   3   6  31   2
   3   6  31  63
   3   6  63  10
   3   6  63  31
   3   6  10  63
   3   7  11  37
   3   7  37  32
   3   7  37  11
   3   7  32  37
   3   7  32   5
   3   7   5  32
   3   8   5  68
   3   8  68   5
   3   8  68  33
   3   8  33  12
   3   8  33  68
   3   8  12  33
   3   9  13  34
   3   9  34 108
   3   9  34  13
   3   9 108  34
   3   9 108   2
   3   9   2 108
   3  10   6  63
   3  10  63  14
   3  10  63   6
   3  10  14  63
   3  11  15  37
   3  11  37   7
   3  11  37  15
   3  11   7  37
   3  12   8  33
   3  12  33  16
   3  12  33   8
   3  12  16  33
   3  13  17  34
   3  13  34   9
   3  13  34  17
   3  13   9  34
   3  14  10  63
   3  14  63  79
   3  14  63  10
   3  14  79  63
   3  14  79  75
   3  14  75  79
   3  14  75  18
   3  14  18  75
   3  15  19  76
   3  15  76  80
   3  15  76  19
   3  15  80  76
   3  15  80  37
   3  15  37  11
   3  15  37  80
   3  15  11  37
   3  16  12  33
   3  16  33  87
   3  16  33  12
   3  16  87  33
   3  16  87  83
   3  16  83  87
   3  16  83  20
   3  16  20  83
   3  17  21  84
   3  17  84  88
   3  17  84  21
   3  17  88  84
   3  17  88  34
   3  17  34  13
   3  17  34  88
   3  17  13  34
   3  18  14  75
   3  18  75  14
   3  18  75  59
   3  18  59  75
   3  18  59  22
   3  18  22  59
   3  19  23  60
   3  19  60  76
   3  19  60  23
   3  19  76  60
   3  19  76  15
   3  19  15  76
   3  20  16  83
   3  20  83  16
   3  20  83  69
   3  20  69  83
   3  20  69  24
   3  20  24  69
   3  21  25  70
   3  21  70  84
   3  21  70  25
   3  21  84  70
   3  21  84  17
   3  21  17  84
   3  22  18  59
   3  22  59  18
   3  22  59  45
   3  22  45  26
   3  22  45  59
   3  22  26  45
   3  23  27  46
   3  23  46  60
   3  23  46  27
   3  23  60  46
   3  23  60  19
   3  23  19  60
   3  24  20  69
   3  24  69  20
   3  24  69  56
   3  24  56   0
   3  24  56  69
   3  24   0  56
   3  25   1  57
   3  25  57   1
   3  25  57  70
   3  25  70  57
   3  25  70  21
   3  25  21  70
   3  26  22  45
   3  26  45  65
   3  26  45  22
   3  26  65   3
   3  26  65  45
   3  26   3  65
   3  27   4  66
   3  27  66   4
   3  27  66  46
   3  27  46  66
   3  27  46  23
   3  27  23  46
   3  28   0 160
   4  28   0  96   1
   3  28 160 120
   3  28 160   0
   3  28 120 160
   3  28 120 161
   3  28 161 120
   3  28 161   1
   3  28   1 161
   4  28   1  96 120
   3  29   3 141
   3  29 141   3
   3  29 141   4
   3  29   4 141
   3  30  34 157
   3  30  34  39
   3  30 157  61
   3  30 157  34
   3  30  61 129
   3  30  61 157
   3  30 129  61
   4  30 129  42  41
   3  30  41  71
   4  30  41  42 129
   3  30  71  41
   3  30  71  39
   3  30  39  34
   3  30  39  71
   3  31   2  35
   3  31   2   6
   3  31  35  44
   3  31  35   2
   3  31  44  67
   3  31  44  35
   3  31  67  63
   3  31  67  44
   3  31  63   6
   3  31  63  67
   3  31   6   2
   3  31   6  63
   3  32  37  64
   3  32  37   7
   3  32  64  37
   3  32  64  43
   3  32  43  36
   3  32  43  64
   3  32  36  43
   3  32  36   5
   3  32   5   7
   3  32   5  36
   3  32   7  37
   3  32   7   5
   3  33 102  87
   3  33 102 158
   3  33  87 102
   3  33  87  16
   3  33  16  12
   3  33  16  87
   3  33  12   8
   3  33  12  16
   3  33   8  68
   3  33   8  12
   3  33  68  40
   3  33  68   8
   3  33  40 129
   3  33  40  68
   3  33 129  40
   3  33 129 158
   3  33 158 129
   3  33 158 102
   3  34 103  88
   3  34 103 157
   3  34 157 103
   3  34 157  30
   3  34  30 157
   3  34  30  39
   3  34  39 108
   3  34  39  30
   3  34 108  39
   3  34 108   9
   3  34   9  13
   3  34   9 108
   3  34  13  17
   3  34  13   9
   3  34  17  88
   3  34  17  13
   3  34  88 103
   3  34  88  17
   3  35 108  39
   3  35 108   2
   3  35  39 108
   3  35  39  53
   3  35  53  44
   3  35  53  39
   3  35  44  31
   3  35  44  53
   3  35  31   2
   3  35  31  44
   3  35   2  31
   3  35   2 108
   3  36  32  43
   3  36  32   5
   3  36  43  32
   3  36  43  52
   3  36  52  40
   3  36  52  43
   3  36  40  68
   3  36  40  52
   3  36  68   5
   3  36  68  40
   3  36   5  32
   3  36   5  68
   3  37  92  80
   3  37  92  62
   3  37  62 151
   3  37  62  92
   3  37 151  62
   3  37 151  64
   3  37  64 151
   3  37  64  32
   3  37  32  64
   3  37  32   7
   3  37   7  11
   3  37   7  32
   3  37  11  15
   3  37  11   7
   3  37  15  80
   3  37  15  11
   3  37  80  92
   3  37  80  15
   3  38 114 162
   4  38 114 166 167
   3  38 162 114
   3  38 162 143
   3  38 143 164
   3  38 143 162
   3  38 164 143
   3  38 164 132
   3  38 132 104
   3  38 132 164
   3  38 104 132
   4  38 104 105  47
   3  39  35 108
   3  39  35  53
   3  39 108  34
   3  39 108  35
   3  39  34  30
   3  39  34 108
   3  39  30  34
   3  39  30  71
   3  39  71  30
   3  39  71  53
   3  39  53  35
   3  39  53  71
   3  40 129  33
   3  40 129  72
   3  40  33  68
   3  40  33 129
   3  40  68  36
   3  40  68  33
   3  40  36  52
   3  40  36  68
   3  40  52  36
   3  40  52  72
   3  40  72  52
   3  40  72 129
   3  41 106 137
   4  41 106 107  42
   3  41 137  97
   3  41 137 106
   3  41  97  71
   3  41  97 137
   3  41  71  30
   3  41  71  97
   3  41  30  71
   4  41  30 129  42
   3  42 107 138
   4  42 107 106  41
   3  42 129  72
   4  42 129  30  41
   3  42  72  98
   3  42  72 129
   3  42  98  72
   3  42  98 138
   3  42 138 107
   3  42 138  98
   3  43  36  32
   3  43  36  52
   3  43  32  64
   3  43  32  36
   3  43  64  50
   3  43  64  32
   3  43  50  64
   3  43  50  77
   3  43  77  50
   3  43  77  52
   3  43  52  36
   3  43  52  77
   3  44  67  51
   3  44  67  31
   3  44  31  35
   3  44  31  67
   3  44  35  53
   3  44  35  31
   3  44  53  35
   3  44  53  78
   3  44  78  53
   3  44  78  51
   3  44  51  67
   3  44  51  78
   3  45  65  26
   3  45  65  91
   3  45  26  22
   3  45  26  65
   3  45  22  59
   3  45  22  26
   3  45  59  89
   3  45  59  22
   3  45  89  73
   3  45  89  59
   3  45  73  91
   3  45  73  89
   3  45  91  73
   3  45  91  65
   3  46  66  91
   3  46  66  27
   3  46  91  74
   3  46  91  66
   3  46  74  91
   3  46  74  90
   3  46  90  60
   3  46  90  74
   3  46  60  90
   3  46  60  23
   3  46  23  27
   3  46  23  60
   3  46  27  66
   3  46  27  23
   3  47 115 163
   4  47 115 124 144
   3  47 105 133
   4  47 105 104  38
   3  47 133 105
   3  47 133 165
   3  47 165 133
   3  47 165 144
   3  47 144 163
   3  47 144 165
   3  47 163 144
   3  47 163 115
   3  48 134 139
   4  48 134 135  54
   3  48 139 134
   3  48 139 155
   3  48 155 139
   3  48 155 130
   3  48 130 146
   3  48 130 155
   3  48 146 130
   3  48 146 125
   3  48 125 146
   4  48 125 126  54
   3  49 151  62
   3  49 151  64
   3  49  62 151
   3  49  62 152
   3  49 152  62
   3  49 152  67
   3  49  67  51
   3  49  67 152
   3  49  51  67
   3  49  51  58
   3  49  58  51
   3  49  58  50
   3  49  50  64
   3  49  50  58
   3  49  64 151
   3  49  64  50
   3  50  43  64
   3  50  43  77
   3  50  64  49
   3  50  64  43
   3  50  49  58
   3  50  49  64
   3  50  58  85
   3  50  58  49
   3  50  85  58
   3  50  85  77
   3  50  77  85
   3  50  77  43
   3  51  49  67
   3  51  49  58
   3  51  67  49
   3  51  67  44
   3  51  44  67
   3  51  44  78
   3  51  78  86
   3  51  78  44
   3  51  86  78
   3  51  86  58
   3  51  58  86
   3  51  58  49
   3  52  40  36
   3  52  40  72
   3  52  36  43
   3  52  36  40
   3  52  43  36
   3  52  43  77
   3  52  77  81
   3  52  77  43
   3  52  81  77
   3  52  81  72
   3  52  72  81
   3  52  72  40
   3  53  44  35
   3  53  44  78
   3  53  35  39
   3  53  35  44
   3  53  39  35
   3  53  39  71
   3  53  71  82
   3  53  71  39
   3  53  82  71
   3  53  82  78
   3  53  78  82
   3  53  78  44
   3  54 135 140
   4  54 135 134  48
   3  54 126 145
   4  54 126 125  48
   3  54 145 126
   3  54 145 131
   3  54 131 156
   3  54 131 145
   3  54 156 131
   3  54 156 140
   3  54 140 135
   3  54 140 156
   3  55 169 138
   3  55 169 149
   3  55 149 127
   3  55 149 169
   3  55 127 159
   3  55 127 149
   3  55 159 127
   3  55 159 128
   3  55 128 150
   3  55 128 159
   3  55 150 128
   3  55 150 122
   3  55 122 137
   3  55 122 150
   3  55 137 122
   4  55 137 106 147
   3  55 147 148
   4  55 147 106 137
   3  55 148 147
   4  55 148 107 138
   3  55 138 169
   4  55 138 107 148
   3  56   0  24
   3  56   0  96
   3  56  24  69
   3  56  24   0
   3  56  69  99
   3  56  69  24
   3  56  99  94
   3  56  99  69
   3  56  94  96
   3  56  94  99
   3  56  96  94
   3  56  96   0
   3  57   1  96
   3  57   1  25
   3  57  96  95
   3  57  96   1
   3  57  95 100
   3  57  95  96
   3  57 100  70
   3  57 100  95
   3  57  70 100
   3  57  70  25
   3  57  25   1
   3  57  25  70
   3  58  51  49
   3  58  51  86
   3  58  86 101
   3  58  86  51
   3  58 101  85
   3  58 101  86
   3  58  85 101
   3  58  85  50
   3  58  50  49
   3  58  50  85
   3  58  49  51
   3  58  49  50
   3  59  18  75
   3  59  18  22
   3  59  75  89
   3  59  75  18
   3  59  89  45
   3  59  89  75
   3  59  45  22
   3  59  45  89
   3  59  22  18
   3  59  22  45
   3  60  46  90
   3  60  46  23
   3  60  90  76
   3  60  90  46
   3  60  76  90
   3  60  76  19
   3  60  19  23
   3  60  19  76
   3  60  23  46
   3  60  23  19
   3  61 129  30
   3  61 129 158
   3  61  30 157
   3  61  30 129
   3  61 157 103
   3  61 157  30
   3  61 103 145
   3  61 103 157
   3  61 145 126
   3  61 145 103
   3  61 126 125
   3  61 126 145
   3  61 125 146
   3  61 125 126
   3  61 146 102
   3  61 146 125
   3  61 102 146
   3  61 102 158
   3  61 158 129
   3  61 158 102
   3  62  49 151
   3  62  49 152
   3  62 151  49
   3  62 151  37
   3  62  37  92
   3  62  37 151
   3  62  92 133
   3  62  92  37
   3  62 133 105
   3  62 133  92
   3  62 105 104
   3  62 105 133
   3  62 104 132
   3  62 104 105
   3  62 132  93
   3  62 132 104
   3  62  93  63
   3  62  93 132
   3  62  63  93
   3  62  63 152
   3  62 152  63
   3  62 152  49
   3  63  93  79
   3  63  93  62
   3  63  79  93
   3  63  79  14
   3  63  14  10
   3  63  14  79
   3  63  10   6
   3  63  10  14
   3  63   6  31
   3  63   6  10
   3  63  31  67
   3  63  31   6
   3  63  67 152
   3  63  67  31
   3  63 152  62
   3  63 152  67
   3  63  62  93
   3  63  62 152
   3  64  37 151
   3  64  37  32
   3  64 151  49
   3  64 151  37
   3  64  49 151
   3  64  49  50
   3  64  50  43
   3  64  50  49
   3  64  43  32
   3  64  43  50
   3  64  32  37
   3  64  32  43
   3  65   3  26
   3  65   3 153
   3  65  26  45
   3  65  26   3
   3  65  45  26
   3  65  45  91
   3  65  91 113
   3  65  91  45
   3  65 113  91
   3  65 113 153
   3  65 153 113
   3  65 153   3
   3  66   4 154
   3  66   4  27
   3  66 154 113
   3  66 154   4
   3  66 113  91
   3  66 113 154
   3  66  91  46
   3  66  91 113
   3  66  46  91
   3  66  46  27
   3  66  27   4
   3  66  27  46
   3  67  51  49
   3  67  51  44
   3  67  49 152
   3  67  49  51
   3  67 152  63
   3  67 152  49
   3  67  63  31
   3  67  63 152
   3  67  31  44
   3  67  31  63
   3  67  44  31
   3  67  44  51
   3  68   5  36
   3  68   5   8
   3  68  36  40
   3  68  36   5
   3  68  40  33
   3  68  40  36
   3  68  33   8
   3  68  33  40
   3  68   8   5
   3  68   8  33
   3  69  20  83
   3  69  20  24
   3  69  83  99
   3  69  83  20
   3  69  99  56
   3  69  99  83
   3  69  56  24
   3  69  56  99
   3  69  24  20
   3  69  24  56
   3  70  57 100
   3  70  57  25
   3  70 100  84
   3  70 100  57
   3  70  84 100
   3  70  84  21
   3  70  21  25
   3  70  21  84
   3  70  25  57
   3  70  25  21
   3  71  30  41
   3  71  30  39
   3  71  41  97
   3  71  41  30
   3  71  97  82
   3  71  97  41
   3  71  82  97
   3  71  82  53
   3  71  53  39
   3  71  53  82
   3  71  39  30
   3  71  39  53
   3  72  52  40
   3  72  52  81
   3  72  81  98
   3  72  81  52
   3  72  98  42
   3  72  98  81
   3  72  42 129
   3  72  42  98
   3  72 129  40
   3  72 129  42
   3  72  40 129
   3  72  40  52
   3  73 114 142
   3  73 114 123
   3  73 142 114
   3  73 142  91
   3  73  91 142
   3  73  91  45
   3  73  45  89
   3  73  45  91
   3  73  89  45
   3  73  89 123
   3  73 123 114
   3  73 123  89
   3  74  46  91
   3  74  46  90
   3  74  91 142
   3  74  91  46
   3  74 142 115
   3  74 142  91
   3  74 115 124
   3  74 115 142
   3  74 124  90
   3  74 124 115
   3  74  90  46
   3  74  90 124
   3  75  14  79
   3  75  14  18
   3  75  79 109
   3  75  79  14
   3  75 109  89
   3  75 109  79
   3  75  89  59
   3  75  89 109
   3  75  59  18
   3  75  59  89
   3  75  18  14
   3  75  18  59
   3  76  60  90
   3  76  60  19
   3  76  90  60
   3  76  90 110
   3  76 110  80
   3  76 110  90
   3  76  80 110
   3  76  80  15
   3  76  15  19
   3  76  15  80
   3  76  19  60
   3  76  19  15
   3  77  50  43
   3  77  50  85
   3  77  85 111
   3  77  85  50
   3  77 111  81
   3  77 111  85
   3  77  81 111
   3  77  81  52
   3  77  52  43
   3  77  52  81
   3  77  43  50
   3  77  43  52
   3  78  53  44
   3  78  53  82
   3  78  82 112
   3  78  82  53
   3  78 112  86
   3  78 112  82
   3  78  86 112
   3  78  86  51
   3  78  51  44
   3  78  51  86
   3  78  44  53
   3  78  44  51
   3  79  63  93
   3  79  63  14
   3  79  93  63
   3  79  93 118
   3  79 118 109
   3  79 118  93
   3  79 109  75
   3  79 109 118
   3  79  75  14
   3  79  75 109
   3  79  14  63
   3  79  14  75
   3  80  76 110
   3  80  76  15
   3  80 110  76
   3  80 110 119
   3  80 119  92
   3  80 119 110
   3  80  92 119
   3  80  92  37
   3  80  37  92
   3  80  37  15
   3  80  15  76
   3  80  15  37
   3  81  77 111
   3  81  77  52
   3  81 111  77
   3  81 111 121
   3  81 121  98
   3  81 121 111
   3  81  98  72
   3  81  98 121
   3  81  72  52
   3  81  72  98
   3  81  52  77
   3  81  52  72
   3  82  71  97
   3  82  71  53
   3  82  97  71
   3  82  97 122
   3  82 122 112
   3  82 122  97
   3  82 112  78
   3  82 112 122
   3  82  78  53
   3  82  78 112
   3  82  53  71
   3  82  53  78
   3  83  16  87
   3  83  16  20
   3  83  87 116
   3  83  87  16
   3  83 116  99
   3  83 116  87
   3  83  99  69
   3  83  99 116
   3  83  69  20
   3  83  69  99
   3  83  20  16
   3  83  20  69
   3  84  70 100
   3  84  70  21
   3  84 100  70
   3  84 100 117
   3  84 117  88
   3  84 117 100
   3  84  88 117
   3  84  88  17
   3  84  17  21
   3  84  17  88
   3  84  21  70
   3  84  21  17
   3  85  58 101
   3  85  58  50
   3  85 101  58
   3  85 101 127
   3  85 127 111
   3  85 127 101
   3  85 111  77
   3  85 111 127
   3  85  77  50
   3  85  77 111
   3  85  50  58
   3  85  50  77
   3  86  78 112
   3  86  78  51
   3  86 112  78
   3  86 112 128
   3  86 128 101
   3  86 128 112
   3  86 101  58
   3  86 101 128
   3  86  58  51
   3  86  58 101
   3  86  51  78
   3  86  51  58
   3  87  33 102
   3  87  33  16
   3  87 102 130
   3  87 102  33
   3  87 130 116
   3  87 130 102
   3  87 116  83
   3  87 116 130
   3  87  83  16
   3  87  83 116
   3  87  16  33
   3  87  16  83
   3  88  84 117
   3  88  84  17
   3  88 117  84
   3  88 117 131
   3  88 131 103
   3  88 131 117
   3  88 103 131
   3  88 103  34
   3  88  34 103
   3  88  34  17
   3  88  17  84
   3  88  17  34
   3  89  73  45
   3  89  73 123
   3  89  45  59
   3  89  45  73
   3  89  59  75
   3  89  59  45
   3  89  75 109
   3  89  75  59
   3  89 109  75
   3  89 109 123
   3  89 123  73
   3  89 123 109
   3  90  76  60
   3  90  76 110
   3  90  60  46
   3  90  60  76
   3  90  46  74
   3  90  46  60
   3  90  74  46
   3  90  74 124
   3  90 124 110
   3  90 124  74
   3  90 110  76
   3  90 110 124
   3  91  73 142
   3  91  73  45
   3  91 142  74
   3  91 142  73
   3  91  74  46
   3  91  74 142
   3  91  46  66
   3  91  46  74
   3  91  66 113
   3  91  66  46
   3  91 113  66
   3  91 113  65
   3  91  65  45
   3  91  65 113
   3  91  45  65
   3  91  45  73
   3  92  80 119
   3  92  80  37
   3  92 119  80
   3  92 119 133
   3  92 133  62
   3  92 133 119
   3  92  62  37
   3  92  62 133
   3  92  37  62
   3  92  37  80
   3  93  79  63
   3  93  79 118
   3  93  63  79
   3  93  63  62
   3  93  62 132
   3  93  62  63
   3  93 132 118
   3  93 132  62
   3  93 118  79
   3  93 118 132
   3  94 134 136
   3  94 134 139
   3  94 136 134
   3  94 136  96
   3  94  96 136
   3  94  96  56
   3  94  56  99
   3  94  56  96
   3  94  99  56
   3  94  99 139
   3  94 139 134
   3  94 139  99
   3  95 135 140
   3  95 135 136
   3  95 140 100
   3  95 140 135
   3  95 100  57
   3  95 100 140
   3  95  57  96
   3  95  57 100
   3  95  96 136
   3  95  96  57
   3  95 136 135
   3  95 136  96
   3  96  94 136
   3  96  94  56
   3  96 136  95
   3  96 136  94
   3  96  95  57
   3  96  95 136
   3  96  57   1
   3  96  57  95
   3  96   1 161
   3  96   1  57
   3  96 161 120
   3  96 161   1
   3  96 120 160
   3  96 120 161
   3  96 160 120
   3  96 160   0
   3  96   0  56
   3  96   0 160
   3  96  56   0
   3  96  56  94
   3  97  82  71
   3  97  82 122
   3  97  71  41
   3  97  71  82
   3  97  41 137
   3  97  41  71
   3  97 137 122
   3  97 137  41
   3  97 122  82
   3  97 122 137
   3  98  42  72
   3  98  42 138
   3  98  72  81
   3  98  72  42
   3  98  81 121
   3  98  81  72
   3  98 121  81
   3  98 121 138
   3  98 138  42
   3  98 138 121
   3  99  94  56
   3  99  94 139
   3  99  56  69
   3  99  56  94
   3  99  69  83
   3  99  69  56
   3  99  83 116
   3  99  83  69
   3  99 116  83
   3  99 116 139
   3  99 139  94
   3  99 139 116
   3 100  84  70
   3 100  84 117
   3 100  70  57
   3 100  70  84
   3 100  57  95
   3 100  57  70
   3 100  95 140
   3 100  95  57
   3 100 140 117
   3 100 140  95
   3 100 117  84
   3 100 117 140
   3 101  85  58
   3 101  85 127
   3 101  58  86
   3 101  58  85
   3 101  86 128
   3 101  86  58
   3 101 128  86
   3 101 128 159
   3 101 159 127
   3 101 159 128
   3 101 127  85
   3 101 127 159
   3 102  61 146
   3 102  61 158
   3 102 146 130
   3 102 146  61
   3 102 130  87
   3 102 130 146
   3 102  87  33
   3 102  87 130
   3 102  33  87
   3 102  33 158
   3 102 158  61
   3 102 158  33
   3 103  88 131
   3 103  88  34
   3 103 131  88
   3 103 131 145
   3 103 145  61
   3 103 145 131
   3 103  61 157
   3 103  61 145
   3 103 157  61
   3 103 157  34
   3 103  34 157
   3 103  34  88
   3 104  38 132
   4 104  38  47 105
   3 104 132  62
   3 104 132  38
   3 104  62 105
   3 104  62 132
   3 104 105  62
   4 104 105  47  38
   3 105  47 133
   4 105  47  38 104
   3 105 104  62
   4 105 104  38  47
   3 105  62 133
   3 105  62 104
   3 105 133  62
   3 105 133  47
   3 106  41 137
   4 106  41  42 107
   3 106 137  41
   4 106 137  55 147
   3 107  42 138
   4 107  42  41 106
   3 107 138  42
   4 107 138  55 148
   3 108  34  39
   3 108  34   9
   3 108  39  35
   3 108  39  34
   3 108  35  39
   3 108  35   2
   3 108   2  35
   3 108   2   9
   3 108   9  34
   3 108   9   2
   3 109  89  75
   3 109  89 123
   3 109  75  79
   3 109  75  89
   3 109  79 118
   3 109  79  75
   3 109 118  79
   3 109 118 143
   3 109 143 123
   3 109 143 118
   3 109 123  89
   3 109 123 143
   3 110  80  76
   3 110  80 119
   3 110  76  90
   3 110  76  80
   3 110  90  76
   3 110  90 124
   3 110 124  90
   3 110 124 144
   3 110 144 119
   3 110 144 124
   3 110 119  80
   3 110 119 144
   3 111  81  77
   3 111  81 121
   3 111  77  85
   3 111  77  81
   3 111  85 127
   3 111  85  77
   3 111 127  85
   3 111 127 149
   3 111 149 121
   3 111 149 127
   3 111 121  81
   3 111 121 149
   3 112  86  78
   3 112  86 128
   3 112  78  82
   3 112  78  86
   3 112  82 122
   3 112  82  78
   3 112 122  82
   3 112 122 150
   3 112 150 128
   3 112 150 122
   3 112 128  86
   3 112 128 150
   3 113  91  66
   3 113  91  65
   3 113  66 154
   3 113  66  91
   3 113 154 141
   3 113 154  66
   3 113 141 153
   3 113 141 154
   3 113 153  65
   3 113 153 141
   3 113  65  91
   3 113  65 153
   3 114  38 162
   4 114  38 143 123
   3 114 166 142
   4 114 166 167  38
   3 114 142 166
   3 114 142  73
   3 114  73 142
   3 114  73 123
   3 114 123  73
   3 114 123 162
   3 114 162 123
   3 114 162  38
   3 115  47 163
   4 115  47 168 166
   3 115 163 124
   3 115 163  47
   3 115 124  74
   3 115 124 163
   3 115  74 142
   3 115  74 124
   3 115 142 166
   3 115 142  74
   3 115 166 142
   4 115 166 168  47
   3 116  99  83
   3 116  99 139
   3 116  83  87
   3 116  83  99
   3 116  87 130
   3 116  87  83
   3 116 130  87
   3 116 130 155
   3 116 155 139
   3 116 155 130
   3 116 139  99
   3 116 139 155
   3 117  88  84
   3 117  88 131
   3 117  84 100
   3 117  84  88
   3 117 100  84
   3 117 100 140
   3 117 140 100
   3 117 140 156
   3 117 156 131
   3 117 156 140
   3 117 131  88
   3 117 131 156
   3 118 109  79
   3 118 109 143
   3 118  79  93
   3 118  79 109
   3 118  93  79
   3 118  93 132
   3 118 132  93
   3 118 132 164
   3 118 164 143
   3 118 164 132
   3 118 143 109
   3 118 143 164
   3 119  92  80
   3 119  92 133
   3 119  80 110
   3 119  80  92
   3 119 110  80
   3 119 110 144
   3 119 144 110
   3 119 144 165
   3 119 165 133
   3 119 165 144
   3 119 133  92
   3 119 133 165
   3 120 160  96
   3 120 160  28
   3 120  96 161
   3 120  96 160
   3 120 161  28
   3 120 161  96
   3 120  28 160
   3 120  28 161
   3 121  98  81
   3 121  98 138
   3 121  81 111
   3 121  81  98
   3 121 111  81
   3 121 111 149
   3 121 149 111
   3 121 149 169
   3 121 169 138
   3 121 169 149
   3 121 138  98
   3 121 138 169
   3 122 112  82
   3 122 112 150
   3 122  82  97
   3 122  82 112
   3 122  97  82
   3 122  97 137
   3 122 137  97
   3 122 137  55
   3 122  55 150
   3 122  55 137
   3 122 150 112
   3 122 150  55
   3 123 114  73
   3 123 114 162
   3 123  73 114
   3 123  73  89
   3 123  89  73
   3 123  89 109
   3 123 109  89
   3 123 109 143
   3 123 143 109
   3 123 143 162
   3 123 162 114
   3 123 162 143
   3 124 110  90
   3 124 110 144
   3 124  90  74
   3 124  90 110
   3 124  74 115
   3 124  74  90
   3 124 115 163
   3 124 115  74
   3 124 163 144
   3 124 163 115
   3 124 144 110
   3 124 144 163
   3 125  48 146
   4 125  48  54 126
   3 125 146  61
   3 125 146  48
   3 125  61 126
   3 125  61 146
   3 125 126  61
   4 125 126  54  48
   3 126  54 145
   4 126  54  48 125
   3 126 125  61
   4 126 125  48  54
   3 126  61 145
   3 126  61 125
   3 126 145  61
   3 126 145  54
   3 127 111  85
   3 127 111 149
   3 127  85 101
   3 127  85 111
   3 127 101  85
   3 127 101 159
   3 127 159 101
   3 127 159  55
   3 127  55 149
   3 127  55 159
   3 127 149 111
   3 127 149  55
   3 128 101  86
   3 128 101 159
   3 128  86 112
   3 128  86 101
   3 128 112  86
   3 128 112 150
   3 128 150 112
   3 128 150  55
   3 128  55 159
   3 128  55 150
   3 128 159 101
   3 128 159  55
   3 129  33  40
   3 129  33 158
   3 129  40  33
   3 129  40  72
   3 129  72  42
   3 129  72  40
   3 129  42  72
   4 129  42  41  30
   3 129  30  61
   4 129  30  41  42
   3 129  61  30
   3 129  61 158
   3 129 158  61
   3 129 158  33
   3 130 116  87
   3 130 116 155
   3 130  87 102
   3 130  87 116
   3 130 102 146
   3 130 102  87
   3 130 146 102
   3 130 146  48
   3 130  48 155
   3 130  48 146
   3 130 155 116
   3 130 155  48
   3 131 103  88
   3 131 103 145
   3 131  88 117
   3 131  88 103
   3 131 117  88
   3 131 117 156
   3 131 156 117
   3 131 156  54
   3 131  54 145
   3 131  54 156
   3 131 145 103
   3 131 145  54
   3 132 118  93
   3 132 118 164
   3 132  93  62
   3 132  93 118
   3 132  62 104
   3 132  62  93
   3 132 104  38
   3 132 104  62
   3 132  38 164
   3 132  38 104
   3 132 164 118
   3 132 164  38
   3 133 105  47
   3 133 105  62
   3 133  62  92
   3 133  62 105
   3 133  92 119
   3 133  92  62
   3 133 119  92
   3 133 119 165
   3 133 165 119
   3 133 165  47
   3 133  47 105
   3 133  47 165
   3 134  48 139
   4 134  48  54 135
   3 134 135 136
   4 134 135  54  48
   3 134 136 135
   3 134 136  94
   3 134  94 136
   3 134  94 139
   3 134 139  94
   3 134 139  48
   3 135  54 140
   4 135  54  48 134
   3 135 140  95
   3 135 140  54
   3 135  95 140
   3 135  95 136
   3 135 136 134
   3 135 136  95
   3 135 134 136
   4 135 134  48  54
   3 136 134 135
   3 136 134  94
   3 136 135  95
   3 136 135 134
   3 136  95 135
   3 136  95  96
   3 136  96  94
   3 136  96  95
   3 136  94 134
   3 136  94  96
   3 137 122  97
   3 137 122  55
   3 137  97  41
   3 137  97 122
   3 137  41 106
   3 137  41  97
   3 137 106  41
   4 137 106 147  55
   3 137  55 122
   4 137  55 147 106
   3 138 107  42
   4 138 107 148  55
   3 138  42 107
   3 138  42  98
   3 138  98  42
   3 138  98 121
   3 138 121  98
   3 138 121 169
   3 138 169 121
   3 138 169  55
   3 138  55 169
   4 138  55 149 121
   3 139 134  48
   3 139 134  94
   3 139  94 134
   3 139  94  99
   3 139  99  94
   3 139  99 116
   3 139 116  99
   3 139 116 155
   3 139 155 116
   3 139 155  48
   3 139  48 134
   3 139  48 155
   3 140 117 100
   3 140 117 156
   3 140 100  95
   3 140 100 117
   3 140  95 135
   3 140  95 100
   3 140 135  54
   3 140 135  95
   3 140  54 135
   3 140  54 156
   3 140 156 117
   3 140 156  54
   3 141   3  29
   3 141   3 153
   3 141 153 113
   3 141 153   3
   3 141 113 154
   3 141 113 153
   3 141 154 113
   3 141 154   4
   3 141   4  29
   3 141   4 154
   3 141  29   3
   3 141  29   4
   3 142 114 166
   3 142 114  73
   3 142 166 115
   3 142 166 114
   3 142 115  74
   3 142 115 166
   3 142  74  91
   3 142  74 115
   3 142  91  73
   3 142  91  74
   3 142  73 114
   3 142  73  91
   3 143 123 109
   3 143 123 162
   3 143 109 118
   3 143 109 123
   3 143 118 109
   3 143 118 164
   3 143 164 118
   3 143 164  38
   3 143  38 162
   3 143  38 164
   3 143 162 123
   3 143 162  38
   3 144 119 110
   3 144 119 165
   3 144 110 124
   3 144 110 119
   3 144 124 110
   3 144 124 163
   3 144 163 124
   3 144 163  47
   3 144  47 165
   3 144  47 163
   3 144 165 119
   3 144 165  47
   3 145 126  54
   3 145 126  61
   3 145  61 103
   3 145  61 126
   3 145 103 131
   3 145 103  61
   3 145 131 103
   3 145 131  54
   3 145  54 126
   3 145  54 131
   3 146 130 102
   3 146 130  48
   3 146 102  61
   3 146 102 130
   3 146  61 125
   3 146  61 102
   3 146 125  48
   3 146 125  61
   3 146  48 130
   3 146  48 125
   3 147  55 148
   4 147  55 137 106
   3 147 148  55
   4 147 148 107 106
   3 148  55 147
   4 148  55 138 107
   3 148 147  55
   4 148 147 106 107
   3 149 121 111
   3 149 121 169
   3 149 111 127
   3 149 111 121
   3 149 127 111
   3 149 127  55
   3 149  55 169
   3 149  55 127
   3 149 169 121
   3 149 169  55
   3 150 128 112
   3 150 128  55
   3 150 112 122
   3 150 112 128
   3 150 122 112
   3 150 122  55
   3 150  55 128
   3 150  55 122
   3 151  62  49
   3 151  62  37
   3 151  49  62
   3 151  49  64
   3 151  64  37
   3 151  64  49
   3 151  37  62
   3 151  37  64
   3 152  62  49
   3 152  62  63
   3 152  63  67
   3 152  63  62
   3 152  67  49
   3 152  67  63
   3 152  49  62
   3 152  49  67
   3 153  65   3
   3 153  65 113
   3 153 113 141
   3 153 113  65
   3 153 141   3
   3 153 141 113
   3 153   3  65
   3 153   3 141
   3 154 141 113
   3 154 141   4
   3 154 113  66
   3 154 113 141
   3 154  66   4
   3 154  66 113
   3 154   4 141
   3 154   4  66
   3 155 139 116
   3 155 139  48
   3 155 116 130
   3 155 116 139
   3 155 130 116
   3 155 130  48
   3 155  48 139
   3 155  48 130
   3 156 131 117
   3 156 131  54
   3 156 117 140
   3 156 117 131
   3 156 140 117
   3 156 140  54
   3 156  54 131
   3 156  54 140
   3 157 103  61
   3 157 103  34
   3 157  61  30
   3 157  61 103
   3 157  30  34
   3 157  30  61
   3 157  34 103
   3 157  34  30
   3 158 129  33
   3 158 129  61
   3 158  61 129
   3 158  61 102
   3 158 102  61
   3 158 102  33
   3 158  33 102
   3 158  33 129
   3 159 127 101
   3 159 127  55
   3 159 101 128
   3 159 101 127
   3 159 128 101
   3 159 128  55
   3 159  55 127
   3 159  55 128
   3 160  96 120
   3 160  96   0
   3 160 120  96
   3 160 120  28
   3 160  28   0
   3 160  28 120
   3 160   0  96
   3 160   0  28
   3 161  28 120
   3 161  28   1
   3 161 120  96
   3 161 120  28
   3 161  96   1
   3 161  96 120
   3 161   1  28
   3 161   1  96
   3 162 114  38
   3 162 114 123
   3 162 123 114
   3 162 123 143
   3 162 143 123
   3 162 143  38
   3 162  38 114
   3 162  38 143
   3 163 144 124
   3 163 144  47
   3 163 124 115
   3 163 124 144
   3 163 115  47
   3 163 115 124
   3 163  47 115
   3 163  47 144
   3 164 143 118
   3 164 143  38
   3 164 118 132
   3 164 118 143
   3 164 132 118
   3 164 132  38
   3 164  38 143
   3 164  38 132
   3 165 133 119
   3 165 133  47
   3 165 119 144
   3 165 119 133
   3 165 144 119
   3 165 144  47
   3 165  47 133
   3 165  47 144
   3 166 167 168
   4 166 167  38 114
   3 166 168 167
   4 166 168  47 115
   3 166 115 142
   4 166 115  47 168
   3 166 142 114
   3 166 142 115
   3 166 114 142
   4 166 114  38 167
   3 167 168 166
   4 167 168  47  38
   3 167 166 168
   4 167 166 114  38
   3 168 166 167
   4 168 166 115  47
   3 168 167 166
   4 168 167  38  47
   3 169 138 121
   3 169 138  55
   3 169 121 149
   3 169 121 138
   3 169 149 121
   3 169 149  55
   3 169  55 149
   3 169  55 138
