COFF
117 424 117

-6.61008 1.25263 6.72224 0.5 0.5 0.5 1
-6.61008 -1.25263 6.72224 0.5 0.5 0.5 1
-0.028353 -2.11925 6.47898 0.5 0.5 0.5 1
7.45929 -1.1154 6.74974 0.5 0.5 0.5 1
7.45929 1.1154 6.74974 0.5 0.5 0.5 1
-0.028353 2.11925 6.47898 0.5 0.5 0.5 1
1.14066 -1.73419 6.69388 0.5 0.5 0.5 1
1.14066 1.73419 6.69388 0.5 0.5 0.5 1
-1.15792 1.73424 6.64628 0.5 0.5 0.5 1
-1.15792 -1.73424 6.64628 0.5 0.5 0.5 1
2.01741 -1.37279 7.01239 0.5 0.5 0.5 1
2.01741 1.37279 7.01239 0.5 0.5 0.5 1
-2.04324 1.3982 6.96767 0.5 0.5 0.5 1
-2.04324 -1.3982 6.96767 0.5 0.5 0.5 1
3.05813 -1.31384 6.99669 0.5 0.5 0.5 1
3.05813 1.31384 6.99669 0.5 0.5 0.5 1
-3.03804 1.31723 6.91658 0.5 0.5 0.5 1
-3.03804 -1.31723 6.91658 0.5 0.5 0.5 1
4.05689 -1.27054 6.99852 0.5 0.5 0.5 1
4.05689 1.27054 6.99852 0.5 0.5 0.5 1
-4.03395 1.24874 6.97047 0.5 0.5 0.5 1
-4.03395 -1.24874 6.97047 0.5 0.5 0.5 1
5.05042 -1.48044 6.65443 0.5 0.5 0.5 1
5.05042 1.48044 6.65443 0.5 0.5 0.5 1
6.10998 -1.41585 6.65785 0.5 0.5 0.5 1
6.10998 1.41585 6.65785 0.5 0.5 0.5 1
-5.00124 1.43758 6.63514 0.5 0.5 0.5 1
-5.00124 -1.43758 6.63514 0.5 0.5 0.5 1
-7.86508 0.000180036 6.62116 0.5 0.5 0.5 1
8.57553 -0.000114347 6.75938 0.5 0.5 0.5 1
-2.22032 -0.992055 4.40022 0.5 0.5 0.5 1
1.29032 -1.68815 5.52599 0.5 0.5 0.5 1
1.29032 1.68815 5.52599 0.5 0.5 0.5 1
-2.53179 1.35695 5.78469 0.5 0.5 0.5 1
-2.53179 -1.35695 5.78469 0.5 0.5 0.5 1
0.0196501 -1.83762 5.13593 0.5 0.5 0.5 1
0.0196505 1.83761 5.13593 0.5 0.5 0.5 1
2.5503 1.32737 5.80783 0.5 0.5 0.5 1
4.10288 -1.2879 6.05161 0.5 0.5 0.5 1
-1.0937 -1.6494 4.7207 0.5 0.5 0.5 1
-1.0937 1.6494 4.7207 0.5 0.5 0.5 1
-1.61556 -0.962811 2.89278 0.5 0.5 0.5 1
-1.61556 0.962811 2.89278 0.5 0.5 0.5 1
1.15128 1.63697 4.32392 0.5 0.5 0.5 1
1.15127 -1.63697 4.32392 0.5 0.5 0.5 1
4.10288 1.2879 6.05161 0.5 0.5 0.5 1
-4.06485 1.26717 6.08216 0.5 0.5 0.5 1
2.47067 1.04774e-08 4.71366 0.5 0.5 0.5 1
1.62909 1.24065 3.89682 0.5 0.5 0.5 1
1.62909 -1.24065 3.89682 0.5 0.5 0.5 1
0.12075 1.71123 4.0338 0.5 0.5 0.5 1
0.120719 -1.71124 4.0338 0.5 0.5 0.5 1
1.91442 1.05308e-07 3.55551 0.5 0.5 0.5 1
5.1719 -0.750832 3.97172 1 1 0 1
5.1719 0.750832 3.97172 1 1 0 1
-3.34318 1.47917e-08 5.12996 0.5 0.5 0.5 1
-0.867652 -1.50113 3.76631 0.5 0.5 0.5 1
-0.867652 1.50113 3.76631 0.5 0.5 0.5 1
-4.06485 -1.26717 6.08216 0.5 0.5 0.5 1
0.176419 -2.71111e-08 1.03911 1 1 0 1
1.04339 1.50428 3.2958 0.5 0.5 0.5 1
1.04342 -1.50433 3.2958 0.5 0.5 0.5 1
3.17982 -7.26747e-10 4.94568 0.5 0.5 0.5 1
6.76643 -1.24741 6.10169 0.5 0.5 0.5 1
6.76643 1.24741 6.10169 0.5 0.5 0.5 1
2.5503 -1.32737 5.80783 0.5 0.5 0.5 1
1.79903 1.50318 4.91752 0.5 0.5 0.5 1
-5.02643 0.815627 4.56576 1 1 0 1
-5.02643 -0.815627 4.56576 1 1 0 1
1.43513 1.0581 2.885 0.5 0.5 0.5 1
1.43514 -1.0581 2.885 0.5 0.5 0.5 1
0.240797 1.57216 2.99498 0.5 0.5 0.5 1
0.240857 -1.57221 2.99498 0.5 0.5 0.5 1
1.79903 -1.50318 4.91752 0.5 0.5 0.5 1
-1.26264 1.70695 5.68593 0.5 0.5 0.5 1
1.60814 -6.72626e-07 2.62898 0.5 0.5 0.5 1
-0.498487 -1.38063 2.57043 0.5 0.5 0.5 1
-0.498487 1.38063 2.57043 0.5 0.5 0.5 1
4.1125 -3.72737e-09 5.90235 0.5 0.5 0.5 1
-1.60256 -0.612024 2.00918 0.5 0.5 0.5 1
-1.60256 0.612024 2.00918 0.5 0.5 0.5 1
-4.06483 1.75897e-10 5.82554 0.5 0.5 0.5 1
0.932403 1.32234 2.33322 1 1 1 1
0.932402 -1.32233 2.33322 1 1 1 1
5.9114 -1.3239 5.6075 0.5 0.5 0.5 1
5.9114 1.3239 5.6075 0.5 0.5 0.5 1
7.23164 1.41937e-08 5.80977 0.5 0.5 0.5 1
6.61353 -0.618093 4.79275 0.5 0.5 0.5 1
6.61353 0.618093 4.79275 0.5 0.5 0.5 1
6.49152 -0.959838 5.20991 0.5 0.5 0.5 1
6.49152 0.959838 5.20991 0.5 0.5 0.5 1
-1.26264 -1.70695 5.68593 0.5 0.5 0.5 1
-6.58049 0.658339 5.48626 0.5 0.5 0.5 1
-6.58049 -0.658338 5.48626 0.5 0.5 0.5 1
5.14811 -1.36008 5.57528 0.5 0.5 0.5 1
5.14824 1.36016 5.57528 0.5 0.5 0.5 1
-6.28439 1.03382 5.83079 0.5 0.5 0.5 1
-6.28439 -1.03382 5.83079 0.5 0.5 0.5 1
0.188854 1.33939 2.08841 1 1 1 1
0.188853 -1.33939 2.08841 1 1 1 1
1.24526 0.810531 2.05816 1 1 1 1
1.24526 -0.810531 2.05816 1 1 1 1
-2.22032 0.992055 4.40022 0.5 0.5 0.5 1
-7.09663 0.694885 6.18512 0.5 0.5 0.5 1
-7.09663 -0.694884 6.18512 0.5 0.5 0.5 1
4.56502 -1.04554 5.26529 0.5 0.5 0.5 1
4.56502 1.04554 5.26529 0.5 0.5 0.5 1
4.32986 -0.367258 4.7852 0.5 0.5 0.5 1
4.32986 0.367258 4.7852 0.5 0.5 0.5 1
-1.8558 2.3571e-08 2.91951 0.5 0.5 0.5 1
-0.33541 -0.958111 1.83625 1 1 1 1
-0.33541 0.958111 1.83625 1 1 1 1
1.15848 2.37687e-07 1.82025 1 1 1 1
-0.93197 -0.353798 1.45444 1 1 1 1
-0.93197 0.353798 1.45444 1 1 1 1
-5.03716 1.20663 5.64617 0.5 0.5 0.5 1
-5.03716 -1.20663 5.64617 0.5 0.5 0.5 1

3 0 26 96
3 0 96 26
3 0 28 92
3 0 92 28
3 0 28 103
3 0 103 28
3 0 92 96
3 0 96 92
3 0 96 103
3 0 103 96
3 1 27 97
3 1 97 27
3 1 28 93
3 1 93 28
3 1 28 104
3 1 104 28
3 1 93 97
3 1 97 93
3 1 97 104
3 1 104 97
3 2 6 31
3 2 31 6
3 2 9 91
3 2 91 9
3 2 31 35
3 2 35 31
3 2 35 91
3 2 91 35
3 3 24 63
3 3 63 24
3 3 29 86
3 3 86 29
3 3 63 86
3 3 86 63
3 4 25 64
3 4 64 25
3 4 29 86
3 4 86 29
3 4 64 86
3 4 86 64
3 5 7 32
3 5 32 7
3 5 8 74
3 5 74 8
3 5 32 36
3 5 36 32
3 5 36 74
3 5 74 36
3 6 10 65
3 6 65 10
3 6 31 65
3 6 65 31
3 7 11 37
3 7 37 11
3 7 32 37
3 7 37 32
3 8 12 33
3 8 33 12
3 8 33 74
3 8 74 33
3 9 13 34
3 9 34 13
3 9 34 91
3 9 91 34
3 10 14 65
3 10 65 14
3 11 15 37
3 11 37 15
3 12 16 33
3 12 33 16
3 13 17 34
3 13 34 17
3 14 18 38
3 14 38 18
3 14 38 65
3 14 65 38
3 15 19 45
3 15 45 19
3 15 37 45
3 15 45 37
3 16 20 46
3 16 46 20
3 16 33 46
3 16 46 33
3 17 21 58
3 17 58 21
3 17 34 58
3 17 58 34
3 18 22 38
3 18 38 22
3 19 23 45
3 19 45 23
3 20 26 46
3 20 46 26
3 21 27 58
3 21 58 27
3 22 24 84
3 22 84 24
3 22 38 94
3 22 94 38
3 22 84 94
3 22 94 84
3 23 25 85
3 23 85 25
3 23 45 95
3 23 95 45
3 23 85 95
3 23 95 85
3 24 63 84
3 24 84 63
3 25 64 85
3 25 85 64
3 26 46 67
3 26 67 46
3 26 46 115
3 26 115 46
3 26 67 96
3 26 96 67
3 26 96 115
3 26 115 96
3 27 58 68
3 27 68 58
3 27 58 116
3 27 116 58
3 27 68 97
3 27 97 68
3 27 97 116
3 27 116 97
3 28 92 93
3 28 93 92
3 28 92 103
3 28 103 92
3 28 93 104
3 28 104 93
3 30 34 39
3 30 39 34
3 30 34 55
3 30 55 34
3 30 39 56
3 30 56 39
3 30 41 56
3 30 56 41
3 30 41 109
3 30 109 41
3 30 55 102
3 30 102 55
3 30 102 109
3 30 109 102
3 31 35 44
3 31 44 35
3 31 44 73
3 31 73 44
3 31 65 73
3 31 73 65
3 32 36 43
3 32 43 36
3 32 37 66
3 32 66 37
3 32 43 66
3 32 66 43
3 33 40 74
3 33 74 40
3 33 40 102
3 33 102 40
3 33 46 55
3 33 55 46
3 33 55 102
3 33 102 55
3 34 39 91
3 34 91 39
3 34 55 58
3 34 58 55
3 35 39 51
3 35 51 39
3 35 39 91
3 35 91 39
3 35 44 51
3 35 51 44
3 36 40 50
3 36 50 40
3 36 40 74
3 36 74 40
3 36 43 50
3 36 50 43
3 37 45 62
3 37 62 45
3 37 47 62
3 37 62 47
3 37 47 66
3 37 66 47
3 38 62 65
3 38 65 62
3 38 62 78
3 38 78 62
3 38 78 105
3 38 105 78
3 38 94 105
3 38 105 94
3 39 51 56
3 39 56 51
3 40 50 57
3 40 57 50
3 40 57 102
3 40 102 57
3 41 56 76
3 41 76 56
3 41 76 110
3 41 110 76
3 41 79 109
3 41 109 79
3 41 79 110
3 41 110 79
3 42 57 77
3 42 77 57
3 42 57 102
3 42 102 57
3 42 77 111
3 42 111 77
3 42 80 109
3 42 109 80
3 42 80 111
3 42 111 80
3 42 102 109
3 42 109 102
3 43 48 60
3 43 60 48
3 43 48 66
3 43 66 48
3 43 50 60
3 43 60 50
3 44 49 61
3 44 61 49
3 44 49 73
3 44 73 49
3 44 51 61
3 44 61 51
3 45 62 78
3 45 78 62
3 45 78 106
3 45 106 78
3 45 95 106
3 45 106 95
3 46 55 81
3 46 81 55
3 46 67 81
3 46 81 67
3 46 67 115
3 46 115 67
3 47 48 52
3 47 52 48
3 47 48 66
3 47 66 48
3 47 49 52
3 47 52 49
3 47 49 73
3 47 73 49
3 47 62 65
3 47 65 62
3 47 65 73
3 47 73 65
3 48 52 69
3 48 69 52
3 48 60 69
3 48 69 60
3 49 52 70
3 49 70 52
3 49 61 70
3 49 70 61
3 50 57 71
3 50 71 57
3 50 60 71
3 50 71 60
3 51 56 72
3 51 72 56
3 51 61 72
3 51 72 61
3 52 69 75
3 52 75 69
3 52 70 75
3 52 75 70
3 53 54 88
3 53 88 54
3 53 54 108
3 53 108 54
3 53 78 105
3 53 105 78
3 53 78 107
3 53 107 78
3 53 84 89
3 53 89 84
3 53 84 94
3 53 94 84
3 53 87 88
3 53 88 87
3 53 87 89
3 53 89 87
3 53 94 105
3 53 105 94
3 53 107 108
3 53 108 107
3 54 78 106
3 54 106 78
3 54 78 108
3 54 108 78
3 54 85 90
3 54 90 85
3 54 85 95
3 54 95 85
3 54 88 90
3 54 90 88
3 54 95 106
3 54 106 95
3 55 58 81
3 55 81 58
3 56 72 76
3 56 76 72
3 57 71 77
3 57 77 71
3 58 68 81
3 58 81 68
3 58 68 116
3 58 116 68
3 59 75 100
3 59 100 75
3 59 75 101
3 59 101 75
3 59 79 110
3 59 110 79
3 59 79 113
3 59 113 79
3 59 80 111
3 59 111 80
3 59 80 114
3 59 114 80
3 59 82 98
3 59 98 82
3 59 82 100
3 59 100 82
3 59 83 99
3 59 99 83
3 59 83 101
3 59 101 83
3 59 98 111
3 59 111 98
3 59 99 110
3 59 110 99
3 59 100 112
3 59 112 100
3 59 101 112
3 59 112 101
3 59 113 114
3 59 114 113
3 60 69 82
3 60 82 69
3 60 71 82
3 60 82 71
3 61 70 83
3 61 83 70
3 61 72 83
3 61 83 72
3 63 84 89
3 63 89 84
3 63 86 89
3 63 89 86
3 64 85 90
3 64 90 85
3 64 86 90
3 64 90 86
3 67 68 81
3 67 81 68
3 67 68 93
3 67 93 68
3 67 92 93
3 67 93 92
3 67 92 96
3 67 96 92
3 67 96 115
3 67 115 96
3 68 93 97
3 68 97 93
3 68 97 116
3 68 116 97
3 69 75 100
3 69 100 75
3 69 82 100
3 69 100 82
3 70 75 101
3 70 101 75
3 70 83 101
3 70 101 83
3 71 77 98
3 71 98 77
3 71 82 98
3 71 98 82
3 72 76 99
3 72 99 76
3 72 83 99
3 72 99 83
3 75 100 112
3 75 112 100
3 75 101 112
3 75 112 101
3 76 99 110
3 76 110 99
3 77 98 111
3 77 111 98
3 78 107 108
3 78 108 107
3 79 80 109
3 79 109 80
3 79 80 114
3 79 114 80
3 79 113 114
3 79 114 113
3 86 87 88
3 86 88 87
3 86 87 89
3 86 89 87
3 86 88 90
3 86 90 88
3 92 96 103
3 92 103 96
3 93 97 104
3 93 104 97
