COFF
63 212 63

-5.77641 0.770623 4.76971 0.5 0.5 0.5 1
-5.77641 -0.770623 4.76971 0.5 0.5 0.5 1
-0.0272832 -1.84343 4.34464 0.5 0.5 0.5 1
6.08142 -0.742799 4.82093 0.5 0.5 0.5 1
6.08142 0.742799 4.82093 0.5 0.5 0.5 1
-0.0272832 1.84343 4.34464 0.5 0.5 0.5 1
1.05295 -1.48948 4.52533 0.5 0.5 0.5 1
1.05295 1.48948 4.52533 0.5 0.5 0.5 1
-1.10406 1.48621 4.48058 0.5 0.5 0.5 1
-1.10406 -1.48621 4.48058 0.5 0.5 0.5 1
1.95694 -1.13546 4.79741 0.5 0.5 0.5 1
1.95694 1.13546 4.79741 0.5 0.5 0.5 1
-2.01925 1.17148 4.73998 0.5 0.5 0.5 1
-2.01925 -1.17148 4.73998 0.5 0.5 0.5 1
3.06718 -0.982344 4.86076 0.5 0.5 0.5 1
3.06718 0.982344 4.86076 0.5 0.5 0.5 1
-3.02627 1.01435 4.7654 0.5 0.5 0.5 1
-3.02627 -1.01435 4.7654 0.5 0.5 0.5 1
4.05966 -0.862323 4.87639 0.5 0.5 0.5 1
4.05966 0.862323 4.87639 0.5 0.5 0.5 1
-4.01857 0.890612 4.78081 0.5 0.5 0.5 1
-4.01857 -0.890612 4.78081 0.5 0.5 0.5 1
5.05747 -0.803047 4.8485 0.5 0.5 0.5 1
5.05747 0.803047 4.8485 0.5 0.5 0.5 1
2.35646 -1.00388 3.78108 0.5 0.5 0.5 1
1.58929 1.22588 2.97676 0.5 0.5 0.5 1
1.58929 -1.22588 2.97676 0.5 0.5 0.5 1
-1.14347 1.43917 3.61654 0.5 0.5 0.5 1
-1.14347 -1.43917 3.61654 0.5 0.5 0.5 1
-1.90144 0.781957 2.61769 0.5 0.5 0.5 1
-1.90144 -0.781957 2.61769 0.5 0.5 0.5 1
1.14689 -1.41491 3.48223 0.5 0.5 0.5 1
1.14689 1.41491 3.48223 0.5 0.5 0.5 1
-2.35716 1.06643 3.72255 0.5 0.5 0.5 1
-2.35716 -1.06643 3.72255 0.5 0.5 0.5 1
0.00337482 -1.56916 3.22222 0.5 0.5 0.5 1
0.00337482 1.56916 3.22222 0.5 0.5 0.5 1
2.35646 1.00388 3.78108 0.5 0.5 0.5 1
4.0035 -0.807737 4.15601 0.5 0.5 0.5 1
-0.698085 -1.36263 2.71896 0.5 0.5 0.5 1
-0.698085 1.36263 2.71896 0.5 0.5 0.5 1
-1.51751 -0.661176 1.61291 0.5 0.5 0.5 1
-1.51751 0.661176 1.61291 0.5 0.5 0.5 1
0.902957 1.30738 2.41876 0.5 0.5 0.5 1
0.902957 -1.30738 2.41876 0.5 0.5 0.5 1
4.0035 0.807737 4.15601 0.5 0.5 0.5 1
-3.9312 0.846913 4.1194 0.5 0.5 0.5 1
1.89246 4.86477e-17 2.84371 0.5 0.5 0.5 1
1.27295 0.906462 2.14201 0.5 0.5 0.5 1
1.27295 -0.906462 2.14201 0.5 0.5 0.5 1
0.0305438 1.34382 2.30332 0.5 0.5 0.5 1
0.0305438 -1.34382 2.30332 0.5 0.5 0.5 1
1.42758 -1.79086e-17 2.00483 0.5 0.5 0.5 1
5.30699 -0.750298 4.14286 1 1 0 1
5.30699 0.750298 4.14286 1 1 0 1
-2.64426 -2.02205e-16 3.4271 0.5 0.5 0.5 1
-0.334091 -0.944236 1.93115 0.5 0.5 0.5 1
-0.334091 0.944236 1.93115 0.5 0.5 0.5 1
0.543689 0.748699 1.70543 0.5 0.5 0.5 1
0.543689 -0.748699 1.70543 0.5 0.5 0.5 1
-3.9312 -0.846913 4.1194 0.5 0.5 0.5 1
0.0385997 4.22388e-17 1.03911 1 1 0 1
2.38732 2.49263e-18 3.75775 0.5 0.5 0.5 1

3 0 1 60
3 0 60 1
3 0 20 46
3 0 46 20
3 0 46 60
3 0 60 46
3 1 21 60
3 1 60 21
3 2 6 31
3 2 31 6
3 2 9 28
3 2 28 9
3 2 28 35
3 2 35 28
3 2 31 35
3 2 35 31
3 3 4 54
3 3 54 4
3 3 22 53
3 3 53 22
3 3 53 54
3 3 54 53
3 4 23 54
3 4 54 23
3 5 7 32
3 5 32 7
3 5 8 27
3 5 27 8
3 5 27 36
3 5 36 27
3 5 32 36
3 5 36 32
3 6 10 24
3 6 24 10
3 6 24 31
3 6 31 24
3 7 11 37
3 7 37 11
3 7 32 37
3 7 37 32
3 8 12 33
3 8 33 12
3 8 27 33
3 8 33 27
3 9 13 34
3 9 34 13
3 9 28 34
3 9 34 28
3 10 14 24
3 10 24 14
3 11 15 37
3 11 37 15
3 12 16 33
3 12 33 16
3 13 17 34
3 13 34 17
3 14 18 38
3 14 38 18
3 14 24 38
3 14 38 24
3 15 19 45
3 15 45 19
3 15 37 45
3 15 45 37
3 16 20 46
3 16 46 20
3 16 33 46
3 16 46 33
3 17 21 60
3 17 60 21
3 17 34 60
3 17 60 34
3 18 22 38
3 18 38 22
3 19 23 45
3 19 45 23
3 22 38 53
3 22 53 38
3 23 45 54
3 23 54 45
3 24 26 31
3 24 31 26
3 24 26 47
3 24 47 26
3 24 38 62
3 24 62 38
3 24 47 62
3 24 62 47
3 25 32 37
3 25 37 32
3 25 32 43
3 25 43 32
3 25 37 47
3 25 47 37
3 25 43 48
3 25 48 43
3 25 47 48
3 25 48 47
3 26 31 44
3 26 44 31
3 26 44 49
3 26 49 44
3 26 47 49
3 26 49 47
3 27 33 40
3 27 40 33
3 27 36 40
3 27 40 36
3 28 34 39
3 28 39 34
3 28 35 39
3 28 39 35
3 29 30 41
3 29 41 30
3 29 30 55
3 29 55 30
3 29 33 40
3 29 40 33
3 29 33 55
3 29 55 33
3 29 40 57
3 29 57 40
3 29 41 42
3 29 42 41
3 29 42 57
3 29 57 42
3 30 34 39
3 30 39 34
3 30 34 55
3 30 55 34
3 30 39 56
3 30 56 39
3 30 41 56
3 30 56 41
3 31 35 44
3 31 44 35
3 32 36 43
3 32 43 36
3 33 46 55
3 33 55 46
3 34 55 60
3 34 60 55
3 35 39 51
3 35 51 39
3 35 44 51
3 35 51 44
3 36 40 50
3 36 50 40
3 36 43 50
3 36 50 43
3 37 45 62
3 37 62 45
3 37 47 62
3 37 62 47
3 38 45 54
3 38 54 45
3 38 45 62
3 38 62 45
3 38 53 54
3 38 54 53
3 39 51 56
3 39 56 51
3 40 50 57
3 40 57 50
3 41 42 61
3 41 61 42
3 41 56 61
3 41 61 56
3 42 57 61
3 42 61 57
3 43 48 58
3 43 58 48
3 43 48 61
3 43 61 48
3 43 50 58
3 43 58 50
3 43 50 61
3 43 61 50
3 44 49 59
3 44 59 49
3 44 49 61
3 44 61 49
3 44 51 59
3 44 59 51
3 44 51 61
3 44 61 51
3 46 55 60
3 46 60 55
3 47 48 52
3 47 52 48
3 47 48 61
3 47 61 48
3 47 49 52
3 47 52 49
3 47 49 61
3 47 61 49
3 48 52 61
3 48 61 52
3 48 58 61
3 48 61 58
3 49 52 61
3 49 61 52
3 49 59 61
3 49 61 59
3 50 57 61
3 50 61 57
3 50 58 61
3 50 61 58
3 51 56 61
3 51 61 56
3 51 59 61
3 51 61 59
