COFF
78 264 78

-6.29047 0.837098 5.50067 0.5 0.5 0.5 1
-6.29047 -0.837098 5.50067 0.5 0.5 0.5 1
-0.0274341 -1.94015 5.05601 0.5 0.5 0.5 1
7.22275 -0.854675 5.48677 0.5 0.5 0.5 1
7.22275 0.854675 5.48677 0.5 0.5 0.5 1
-0.0274341 1.94015 5.05601 0.5 0.5 0.5 1
1.0815 -1.56735 5.25656 0.5 0.5 0.5 1
1.0815 1.56735 5.25656 0.5 0.5 0.5 1
-1.12686 1.566 5.20965 0.5 0.5 0.5 1
-1.12686 -1.566 5.20965 0.5 0.5 0.5 1
1.97425 -1.2008 5.55394 0.5 0.5 0.5 1
1.97425 1.2008 5.55394 0.5 0.5 0.5 1
-2.02811 1.23858 5.49407 0.5 0.5 0.5 1
-2.02811 -1.23858 5.49407 0.5 0.5 0.5 1
3.07063 -1.06206 5.60837 0.5 0.5 0.5 1
3.07063 1.06206 5.60837 0.5 0.5 0.5 1
-3.01562 1.0856 5.51972 0.5 0.5 0.5 1
-3.01562 -1.0856 5.51972 0.5 0.5 0.5 1
4.06386 -0.948579 5.61934 0.5 0.5 0.5 1
4.06386 0.948579 5.61934 0.5 0.5 0.5 1
-4.0046 0.94867 5.57521 0.5 0.5 0.5 1
-4.0046 -0.94867 5.57521 0.5 0.5 0.5 1
5.05701 -0.987247 5.49968 0.5 0.5 0.5 1
5.05701 0.987247 5.49968 0.5 0.5 0.5 1
-5.00378 0.923642 5.51554 0.5 0.5 0.5 1
-5.00378 -0.923642 5.51554 0.5 0.5 0.5 1
6.06522 -0.949094 5.4755 0.5 0.5 0.5 1
6.06522 0.949094 5.4755 0.5 0.5 0.5 1
-1.20254 -1.52504 4.30817 0.5 0.5 0.5 1
-2.04628 0.842156 3.2219 0.5 0.5 0.5 1
-2.04628 -0.842156 3.2219 0.5 0.5 0.5 1
1.20322 -1.50649 4.16946 0.5 0.5 0.5 1
1.20322 1.50649 4.16946 0.5 0.5 0.5 1
-2.42349 1.14786 4.43184 0.5 0.5 0.5 1
-2.42349 -1.14786 4.43184 0.5 0.5 0.5 1
0.00813181 -1.65957 3.84742 0.5 0.5 0.5 1
0.00813181 1.65957 3.84742 0.5 0.5 0.5 1
2.42556 1.10698 4.48889 0.5 0.5 0.5 1
4.09041 -0.972309 4.93225 0.5 0.5 0.5 1
-0.876084 -1.47714 3.38219 0.5 0.5 0.5 1
-0.876084 1.47714 3.38219 0.5 0.5 0.5 1
-1.46466 -0.806611 1.90868 0.5 0.5 0.5 1
-1.46466 0.806611 1.90868 0.5 0.5 0.5 1
1.02052 1.45173 3.05638 0.5 0.5 0.5 1
1.02052 -1.45173 3.05638 0.5 0.5 0.5 1
4.09041 0.972309 4.93225 0.5 0.5 0.5 1
-4.0228 0.924789 4.89284 0.5 0.5 0.5 1
2.15176 -2.95285e-16 3.4815 0.5 0.5 0.5 1
1.44109 1.05881 2.70651 0.5 0.5 0.5 1
1.44109 -1.05881 2.70651 0.5 0.5 0.5 1
0.10228 1.52925 2.85691 0.5 0.5 0.5 1
0.10228 -1.52925 2.85691 0.5 0.5 0.5 1
1.65699 -2.32383e-16 2.50929 0.5 0.5 0.5 1
5.30662 -0.750615 4.14286 1 1 0 1
5.30662 0.750615 4.14286 1 1 0 1
-2.94137 4.40412e-17 3.98199 0.5 0.5 0.5 1
-0.523877 -1.33846 2.56782 0.5 0.5 0.5 1
-0.523877 1.33846 2.56782 0.5 0.5 0.5 1
0.838808 1.21966 2.14385 0.5 0.5 0.5 1
0.838808 -1.21966 2.14385 0.5 0.5 0.5 1
-4.0228 -0.924789 4.89284 0.5 0.5 0.5 1
0.0688964 -3.37668e-17 1.03911 1 1 0 1
2.79629 -9.39047e-16 4.08103 0.5 0.5 0.5 1
-5.16131 0.815703 4.6311 1 1 0 1
-5.16131 -0.815703 4.6311 1 1 0 1
1.15464 0.746012 1.8882 0.5 0.5 0.5 1
1.15464 -0.746012 1.8882 0.5 0.5 0.5 1
0.0701921 1.1826 1.99685 0.5 0.5 0.5 1
0.0701921 -1.1826 1.99685 0.5 0.5 0.5 1
6.42567 -0.833483 4.89391 0.5 0.5 0.5 1
6.42567 0.833483 4.89391 0.5 0.5 0.5 1
2.42556 -1.10698 4.48889 0.5 0.5 0.5 1
1.6751 1.32036 3.64229 0.5 0.5 0.5 1
1.6751 -1.32036 3.64229 0.5 0.5 0.5 1
-1.20254 1.52504 4.30817 0.5 0.5 0.5 1
1.11496 -8.92208e-17 1.74204 0.5 0.5 0.5 1
-0.242865 -0.768239 1.74956 0.5 0.5 0.5 1
-0.242865 0.768239 1.74956 0.5 0.5 0.5 1

3 0 1 64
3 0 64 1
3 0 24 63
3 0 63 24
3 0 63 64
3 0 64 63
3 1 25 64
3 1 64 25
3 2 6 31
3 2 31 6
3 2 9 28
3 2 28 9
3 2 28 35
3 2 35 28
3 2 31 35
3 2 35 31
3 3 4 70
3 3 70 4
3 3 26 69
3 3 69 26
3 3 69 70
3 3 70 69
3 4 27 70
3 4 70 27
3 5 7 32
3 5 32 7
3 5 8 74
3 5 74 8
3 5 32 36
3 5 36 32
3 5 36 74
3 5 74 36
3 6 10 71
3 6 71 10
3 6 31 71
3 6 71 31
3 7 11 37
3 7 37 11
3 7 32 37
3 7 37 32
3 8 12 33
3 8 33 12
3 8 33 74
3 8 74 33
3 9 13 34
3 9 34 13
3 9 28 34
3 9 34 28
3 10 14 71
3 10 71 14
3 11 15 37
3 11 37 15
3 12 16 33
3 12 33 16
3 13 17 34
3 13 34 17
3 14 18 38
3 14 38 18
3 14 38 71
3 14 71 38
3 15 19 45
3 15 45 19
3 15 37 45
3 15 45 37
3 16 20 46
3 16 46 20
3 16 33 46
3 16 46 33
3 17 21 60
3 17 60 21
3 17 34 60
3 17 60 34
3 18 22 38
3 18 38 22
3 19 23 45
3 19 45 23
3 20 24 46
3 20 46 24
3 21 25 60
3 21 60 25
3 22 26 53
3 22 53 26
3 22 38 53
3 22 53 38
3 23 27 54
3 23 54 27
3 23 45 54
3 23 54 45
3 24 46 63
3 24 63 46
3 25 60 64
3 25 64 60
3 26 53 69
3 26 69 53
3 27 54 70
3 27 70 54
3 28 34 39
3 28 39 34
3 28 35 39
3 28 39 35
3 29 30 41
3 29 41 30
3 29 30 55
3 29 55 30
3 29 33 40
3 29 40 33
3 29 33 55
3 29 55 33
3 29 40 57
3 29 57 40
3 29 41 42
3 29 42 41
3 29 42 57
3 29 57 42
3 30 34 39
3 30 39 34
3 30 34 55
3 30 55 34
3 30 39 56
3 30 56 39
3 30 41 56
3 30 56 41
3 31 35 44
3 31 44 35
3 31 44 73
3 31 73 44
3 31 71 73
3 31 73 71
3 32 36 43
3 32 43 36
3 32 37 72
3 32 72 37
3 32 43 72
3 32 72 43
3 33 40 74
3 33 74 40
3 33 46 55
3 33 55 46
3 34 55 60
3 34 60 55
3 35 39 51
3 35 51 39
3 35 44 51
3 35 51 44
3 36 40 50
3 36 50 40
3 36 40 74
3 36 74 40
3 36 43 50
3 36 50 43
3 37 45 62
3 37 62 45
3 37 47 62
3 37 62 47
3 37 47 72
3 37 72 47
3 38 45 54
3 38 54 45
3 38 45 62
3 38 62 45
3 38 53 54
3 38 54 53
3 38 62 71
3 38 71 62
3 39 51 56
3 39 56 51
3 40 50 57
3 40 57 50
3 41 42 61
3 41 61 42
3 41 56 68
3 41 68 56
3 41 56 76
3 41 76 56
3 41 61 68
3 41 68 61
3 41 61 76
3 41 76 61
3 42 57 67
3 42 67 57
3 42 57 77
3 42 77 57
3 42 61 67
3 42 67 61
3 42 61 77
3 42 77 61
3 43 48 58
3 43 58 48
3 43 48 72
3 43 72 48
3 43 50 58
3 43 58 50
3 44 49 59
3 44 59 49
3 44 49 73
3 44 73 49
3 44 51 59
3 44 59 51
3 46 55 60
3 46 60 55
3 46 60 64
3 46 64 60
3 46 63 64
3 46 64 63
3 47 48 52
3 47 52 48
3 47 48 72
3 47 72 48
3 47 49 52
3 47 52 49
3 47 49 73
3 47 73 49
3 47 62 71
3 47 71 62
3 47 71 73
3 47 73 71
3 48 52 65
3 48 65 52
3 48 58 65
3 48 65 58
3 49 52 66
3 49 66 52
3 49 59 66
3 49 66 59
3 50 57 67
3 50 67 57
3 50 58 67
3 50 67 58
3 51 56 68
3 51 68 56
3 51 59 68
3 51 68 59
3 52 61 65
3 52 65 61
3 52 61 66
3 52 66 61
3 52 65 75
3 52 75 65
3 52 66 75
3 52 75 66
3 53 54 70
3 53 70 54
3 53 69 70
3 53 70 69
3 56 68 76
3 56 76 68
3 57 67 77
3 57 77 67
3 58 61 65
3 58 65 61
3 58 61 67
3 58 67 61
3 59 61 66
3 59 66 61
3 59 61 68
3 59 68 61
3 61 65 75
3 61 75 65
3 61 66 75
3 61 75 66
3 61 67 77
3 61 77 67
3 61 68 76
3 61 76 68
