COFF
15 36 15

-2.41569 0.574169 1.72554 0.5 0.5 0.5 1
-2.41569 -0.574169 1.72554 0.5 0.5 0.5 1
-0.00389529 -1.15936 1.7179 0.5 0.5 0.5 1
2.63366 -0.571917 1.73042 0.5 0.5 0.5 1
2.63366 0.571917 1.73042 0.5 0.5 0.5 1
-0.00389529 1.15936 1.7179 0.5 0.5 0.5 1
0.977693 -0.887271 1.72032 0.5 0.5 0.5 1
0.977693 0.887271 1.72032 0.5 0.5 0.5 1
-0.979315 0.884966 1.71923 0.5 0.5 0.5 1
-0.979315 -0.884966 1.71923 0.5 0.5 0.5 1
1.14553 -0.478352 1.31729 0.5 0.5 0.5 1
-1.09835 0.44032 1.31964 0.5 0.5 0.5 1
-1.09835 -0.44032 1.31964 0.5 0.5 0.5 1
1.14553 0.478352 1.31729 0.5 0.5 0.5 1
0.00571286 -1.8394e-17 1.03911 1 1 0 1

3 0 1 12
3 0 12 1
3 0 8 11
3 0 11 8
3 0 11 12
3 0 12 11
3 1 9 12
3 1 12 9
3 2 6 14
3 2 14 6
3 2 9 14
3 2 14 9
3 3 4 13
3 3 13 4
3 3 6 10
3 3 10 6
3 3 10 13
3 3 13 10
3 4 7 13
3 4 13 7
3 5 7 14
3 5 14 7
3 5 8 14
3 5 14 8
3 6 10 14
3 6 14 10
3 7 13 14
3 7 14 13
3 8 11 14
3 8 14 11
3 9 12 14
3 9 14 12
3 10 13 14
3 10 14 13
3 11 12 14
3 11 14 12
