COFF
159 620 159

-6.71721 1.49897 8.049 0.5 0.5 0.5 1
-6.7174 -1.49911 8.04881 0.5 0.5 0.5 1
-0.0290274 -2.29131 7.89144 0.5 0.5 0.5 1
7.56967 -1.31313 8.12382 0.5 0.5 0.5 1
7.56967 1.31313 8.12382 0.5 0.5 0.5 1
-0.0290274 2.29131 7.89144 0.5 0.5 0.5 1
1.19543 -1.89496 8.1209 0.5 0.5 0.5 1
1.19543 1.89496 8.1209 0.5 0.5 0.5 1
-1.19196 1.8961 8.07162 0.5 0.5 0.5 1
-1.19196 -1.8961 8.07162 0.5 0.5 0.5 1
2.05394 -1.52181 8.47916 0.5 0.5 0.5 1
2.05394 1.52181 8.47916 0.5 0.5 0.5 1
-2.06037 1.55308 8.42993 0.5 0.5 0.5 1
-2.06037 -1.55308 8.42993 0.5 0.5 0.5 1
3.05119 -1.50613 8.41949 0.5 0.5 0.5 1
3.05119 1.50613 8.41949 0.5 0.5 0.5 1
-3.05224 1.53153 8.30857 0.5 0.5 0.5 1
-3.05224 -1.53153 8.30857 0.5 0.5 0.5 1
4.05011 -1.4717 8.40943 0.5 0.5 0.5 1
4.05011 1.4717 8.40943 0.5 0.5 0.5 1
-4.04952 1.47653 8.35338 0.5 0.5 0.5 1
-4.04952 -1.47654 8.35338 0.5 0.5 0.5 1
5.02587 -1.75828 7.95756 0.5 0.5 0.5 1
5.02587 1.75828 7.95756 0.5 0.5 0.5 1
6.14812 -1.66385 7.99306 0.5 0.5 0.5 1
6.14812 1.66385 7.99306 0.5 0.5 0.5 1
-4.98446 1.74936 7.90529 0.5 0.5 0.5 1
-4.98445 -1.74941 7.90524 0.5 0.5 0.5 1
-9.06756 0.00538929 7.90384 0.5 0.5 0.5 1
8.88377 9.10679e-05 8.1552 0.5 0.5 0.5 1
-8.247 0.824153 8.10484 0.5 0.5 0.5 1
-8.24035 -0.822112 8.09436 0.5 0.5 0.5 1
1.32495 1.81733 6.66865 1 1 0 1
-2.59111 1.53845 7.11252 0.5 0.5 0.5 1
-2.59111 -1.53845 7.11252 0.5 0.5 0.5 1
0.0587876 -1.98364 6.43101 0.5 0.5 0.5 1
0.0587862 1.98364 6.43101 0.5 0.5 0.5 1
2.59713 1.49577 7.16829 0.5 0.5 0.5 1
4.11834 -1.49836 7.31677 0.5 0.5 0.5 1
-1.14831 -1.82411 5.98979 0.5 0.5 0.5 1
-1.14831 1.82411 5.98979 0.5 0.5 0.5 1
-1.88527 -0.809849 3.9699 0.5 0.5 0.5 1
-1.88523 0.80987 3.96989 0.5 0.5 0.5 1
1.21543 1.78489 5.5893 0.5 0.5 0.5 1
1.21543 -1.78488 5.5893 0.5 0.5 0.5 1
4.11834 1.49836 7.31677 0.5 0.5 0.5 1
-4.08231 1.48043 7.25841 0.5 0.5 0.5 1
2.58509 -2.25176e-07 5.96572 0.5 0.5 0.5 1
1.71236 1.34706 5.10643 0.5 0.5 0.5 1
1.71236 -1.34706 5.10643 0.5 0.5 0.5 1
0.149696 1.86203 5.22212 0.5 0.5 0.5 1
0.149667 -1.86202 5.22212 0.5 0.5 0.5 1
2.00623 -1.4252e-07 4.66248 0.5 0.5 0.5 1
5.30965 -0.751107 3.97172 1 1 0 1
5.30965 0.751108 3.97172 1 1 0 1
-3.28232 -3.10128e-09 6.29791 0.5 0.5 0.5 1
-1.00474 -1.63803 4.76427 0.5 0.5 0.5 1
-1.00474 1.63803 4.76427 0.5 0.5 0.5 1
-4.08232 -1.48044 7.2584 0.5 0.5 0.5 1
0.159727 -2.7584e-05 1.03911 1 1 0 1
1.09389 1.63804 4.46959 0.5 0.5 0.5 1
1.09394 -1.6381 4.46959 0.5 0.5 0.5 1
3.12959 -3.17054e-07 6.09713 0.5 0.5 0.5 1
6.83249 -1.45375 7.45364 0.5 0.5 0.5 1
6.83249 1.45375 7.45364 0.5 0.5 0.5 1
2.59713 -1.49577 7.16829 0.5 0.5 0.5 1
1.85103 1.6438 6.19245 0.5 0.5 0.5 1
-5.11645 0.816679 4.56576 1 1 0 1
-5.11594 -0.815128 4.56576 1 1 0 1
1.51785 1.12936 3.97434 1 1 1 1
1.51778 -1.12944 3.97434 1 1 1 1
0.20134 1.71205 4.06625 1 1 1 1
0.201337 -1.71207 4.06625 1 1 1 1
1.85103 -1.6438 6.19245 0.5 0.5 0.5 1
-1.31021 1.8732 7.04967 0.5 0.5 0.5 1
1.68843 -1.475e-05 3.58304 1 1 1 1
-0.852564 -1.39109 3.60776 1 1 1 1
-0.852608 1.39107 3.60778 1 1 1 1
4.17866 1.37371e-07 6.9214 0.5 0.5 0.5 1
-2.06816 -0.446922 3.04352 1 1 1 1
-2.06816 0.446923 3.04352 1 1 1 1
-4.08951 -7.4366e-07 6.89128 0.5 0.5 0.5 1
0.975781 1.46616 3.38061 1 1 1 1
0.975811 -1.46617 3.38061 1 1 1 1
6.08549 -1.57143 6.81149 0.5 0.5 0.5 1
6.08548 1.57143 6.81149 0.5 0.5 0.5 1
7.47907 1.54465e-07 7.04884 0.5 0.5 0.5 1
6.96664 -0.709924 5.92702 0.5 0.5 0.5 1
6.96664 0.709923 5.92702 0.5 0.5 0.5 1
6.64385 -1.17633 6.3942 0.5 0.5 0.5 1
6.64385 1.17633 6.39421 0.5 0.5 0.5 1
-1.31021 -1.8732 7.04967 0.5 0.5 0.5 1
-7.28171 0.529716 6.52916 0.5 0.5 0.5 1
-7.28589 -0.774798 6.5882 0.5 0.5 0.5 1
5.20529 -1.60275 6.64354 0.5 0.5 0.5 1
5.20529 1.60277 6.64354 0.5 0.5 0.5 1
-6.63146 1.26458 7.08222 0.5 0.5 0.5 1
-6.63338 -1.26488 7.08233 0.5 0.5 0.5 1
0.229725 1.52465 3.04399 1 1 1 1
0.229761 -1.52468 3.04399 1 1 1 1
1.3267 0.981752 2.96758 1 1 1 1
1.3267 -0.98175 2.96758 1 1 1 1
-2.26752 1.12341 5.55969 0.5 0.5 0.5 1
-7.65927 0.805111 7.37529 0.5 0.5 0.5 1
-7.67261 -0.795953 7.36893 0.5 0.5 0.5 1
4.6086 -1.16258 6.36942 0.5 0.5 0.5 1
4.6086 1.16259 6.36942 0.5 0.5 0.5 1
4.25926 -0.435558 5.22711 0.5 0.5 0.5 1
4.25922 0.435537 5.22707 0.5 0.5 0.5 1
-2.41652 2.34789e-07 4.21654 0.5 0.5 0.5 1
-0.968404 -1.1108 2.81824 1 1 1 1
-0.968405 1.1108 2.81824 1 1 1 1
1.45229 7.05563e-05 2.63155 1 1 1 1
-1.52708 -0.476873 1.81146 1 1 1 1
-1.52716 0.47684 1.81145 1 1 1 1
-5.09577 1.51546 6.67498 0.5 0.5 0.5 1
-5.09593 -1.51534 6.6749 0.5 0.5 0.5 1
0.869674 1.30171 2.43547 1 1 1 1
0.86962 -1.30171 2.43544 1 1 1 1
-2.61899 -8.91845e-08 5.3932 0.5 0.5 0.5 1
6.00192 -1.42669 5.70899 0.5 0.5 0.5 1
6.00192 1.4267 5.70899 0.5 0.5 0.5 1
-6.58012 0.929904 5.65552 0.5 0.5 0.5 1
-6.54609 -0.739743 5.63355 0.5 0.5 0.5 1
-4.52758 1.13287 6.42802 0.5 0.5 0.5 1
-4.52749 -1.13317 6.42802 0.5 0.5 0.5 1
-6.37627 1.08023 6.03483 0.5 0.5 0.5 1
-6.37647 -1.12692 6.03531 0.5 0.5 0.5 1
6.377 -1.19543 5.46489 0.5 0.5 0.5 1
6.377 1.19543 5.4649 0.5 0.5 0.5 1
5.34808 -1.38523 5.56794 0.5 0.5 0.5 1
5.34808 1.38523 5.56793 0.5 0.5 0.5 1
-4.17866 0.401742 5.49681 0.5 0.5 0.5 1
-4.17875 -0.401728 5.49685 0.5 0.5 0.5 1
0.176056 1.30864 2.15367 1 1 1 1
0.176042 -1.30865 2.15369 1 1 1 1
6.86405 -0.731304 4.67166 0.5 0.5 0.5 1
6.86405 0.731305 4.67166 0.5 0.5 0.5 1
1.17736 0.808503 2.11975 1 1 1 1
1.17738 -0.808489 2.11975 1 1 1 1
3.67591 -0.93811 6.78852 0.5 0.5 0.5 1
3.67591 0.93811 6.78852 0.5 0.5 0.5 1
4.88791 -1.0548 5.35299 0.5 0.5 0.5 1
4.88793 1.05482 5.35299 0.5 0.5 0.5 1
-0.373387 -1.00055 1.93277 1 1 1 1
-0.373518 1.00063 1.93284 1 1 1 1
-2.26752 -1.12341 5.55969 0.5 0.5 0.5 1
1.32495 -1.81733 6.66865 1 1 0 1
-7.93824 -0.44442 7.1047 0.5 0.5 0.5 1
-7.93069 0.312112 7.09749 0.5 0.5 0.5 1
-5.239 1.23508 5.69164 0.5 0.5 0.5 1
-5.23588 -1.24289 5.69075 0.5 0.5 0.5 1
-1.27676 -0.785565 2.45593 1 1 1 1
-1.27676 0.785566 2.45593 1 1 1 1
0.947809 -0.000259006 1.83981 1 1 1 1
0.545601 0.742832 1.71742 1 1 1 1
0.545157 -0.741933 1.71756 1 1 1 1
4.51103 0.550115 6.13029 0.5 0.5 0.5 1
4.51102 -0.550107 6.13029 0.5 0.5 0.5 1

3 0 26 96
3 0 96 26
3 0 30 103
3 0 103 30
3 0 96 103
3 0 103 96
3 1 27 97
3 1 97 27
3 1 31 104
3 1 104 31
3 1 97 104
3 1 104 97
3 2 6 147
3 2 147 6
3 2 9 91
3 2 91 9
3 2 35 91
3 2 91 35
3 2 35 147
3 2 147 35
3 3 24 63
3 3 63 24
3 3 29 86
3 3 86 29
3 3 63 86
3 3 86 63
3 4 25 64
3 4 64 25
3 4 29 86
3 4 86 29
3 4 64 86
3 4 86 64
3 5 7 32
3 5 32 7
3 5 8 74
3 5 74 8
3 5 32 36
3 5 36 32
3 5 36 74
3 5 74 36
3 6 10 65
3 6 65 10
3 6 65 147
3 6 147 65
3 7 11 37
3 7 37 11
3 7 32 37
3 7 37 32
3 8 12 33
3 8 33 12
3 8 33 74
3 8 74 33
3 9 13 34
3 9 34 13
3 9 34 91
3 9 91 34
3 10 14 65
3 10 65 14
3 11 15 37
3 11 37 15
3 12 16 33
3 12 33 16
3 13 17 34
3 13 34 17
3 14 18 38
3 14 38 18
3 14 38 65
3 14 65 38
3 15 19 45
3 15 45 19
3 15 37 45
3 15 45 37
3 16 20 46
3 16 46 20
3 16 33 46
3 16 46 33
3 17 21 58
3 17 58 21
3 17 34 58
3 17 58 34
3 18 22 38
3 18 38 22
3 19 23 45
3 19 45 23
3 20 26 46
3 20 46 26
3 21 27 58
3 21 58 27
3 22 24 84
3 22 84 24
3 22 38 94
3 22 94 38
3 22 84 94
3 22 94 84
3 23 25 85
3 23 85 25
3 23 45 95
3 23 95 45
3 23 85 95
3 23 95 85
3 24 63 84
3 24 84 63
3 25 64 85
3 25 85 64
3 26 46 115
3 26 115 46
3 26 96 115
3 26 115 96
3 27 58 116
3 27 116 58
3 27 97 116
3 27 116 97
3 28 30 103
3 28 103 30
3 28 31 104
3 28 104 31
3 28 92 103
3 28 103 92
3 28 92 148
3 28 148 92
3 28 103 149
3 28 149 103
3 28 104 148
3 28 148 104
3 28 148 149
3 28 149 148
3 32 36 43
3 32 43 36
3 32 37 66
3 32 66 37
3 32 43 66
3 32 66 43
3 33 40 74
3 33 74 40
3 33 40 102
3 33 102 40
3 33 46 55
3 33 55 46
3 33 55 102
3 33 102 55
3 34 39 91
3 34 91 39
3 34 39 146
3 34 146 39
3 34 55 58
3 34 58 55
3 34 55 146
3 34 146 55
3 35 39 51
3 35 51 39
3 35 39 91
3 35 91 39
3 35 44 51
3 35 51 44
3 35 44 147
3 35 147 44
3 36 40 50
3 36 50 40
3 36 40 74
3 36 74 40
3 36 43 50
3 36 50 43
3 37 45 78
3 37 78 45
3 37 45 141
3 37 141 45
3 37 47 62
3 37 62 47
3 37 47 66
3 37 66 47
3 37 62 78
3 37 78 62
3 37 62 141
3 37 141 62
3 38 62 65
3 38 65 62
3 38 62 78
3 38 78 62
3 38 65 140
3 38 140 65
3 38 78 105
3 38 105 78
3 38 78 140
3 38 140 78
3 38 94 105
3 38 105 94
3 39 51 56
3 39 56 51
3 39 56 146
3 39 146 56
3 40 50 57
3 40 57 50
3 40 57 102
3 40 102 57
3 41 56 76
3 41 76 56
3 41 56 146
3 41 146 56
3 41 76 110
3 41 110 76
3 41 79 109
3 41 109 79
3 41 79 110
3 41 110 79
3 41 109 146
3 41 146 109
3 42 57 77
3 42 77 57
3 42 57 102
3 42 102 57
3 42 77 111
3 42 111 77
3 42 80 109
3 42 109 80
3 42 80 111
3 42 111 80
3 42 102 109
3 42 109 102
3 43 48 60
3 43 60 48
3 43 48 66
3 43 66 48
3 43 50 60
3 43 60 50
3 44 49 61
3 44 61 49
3 44 49 73
3 44 73 49
3 44 51 61
3 44 61 51
3 44 73 147
3 44 147 73
3 45 78 106
3 45 106 78
3 45 78 141
3 45 141 78
3 45 95 106
3 45 106 95
3 46 55 81
3 46 81 55
3 46 81 124
3 46 124 81
3 46 115 124
3 46 124 115
3 47 48 52
3 47 52 48
3 47 48 66
3 47 66 48
3 47 49 52
3 47 52 49
3 47 49 73
3 47 73 49
3 47 62 65
3 47 65 62
3 47 65 73
3 47 73 65
3 48 52 69
3 48 69 52
3 48 60 69
3 48 69 60
3 49 52 70
3 49 70 52
3 49 61 70
3 49 70 61
3 50 57 71
3 50 71 57
3 50 60 71
3 50 71 60
3 51 56 72
3 51 72 56
3 51 61 72
3 51 72 61
3 52 69 75
3 52 75 69
3 52 70 75
3 52 75 70
3 53 54 108
3 53 108 54
3 53 54 137
3 53 137 54
3 53 87 128
3 53 128 87
3 53 87 136
3 53 136 87
3 53 107 108
3 53 108 107
3 53 107 142
3 53 142 107
3 53 120 128
3 53 128 120
3 53 120 130
3 53 130 120
3 53 130 142
3 53 142 130
3 53 136 137
3 53 137 136
3 54 88 129
3 54 129 88
3 54 88 137
3 54 137 88
3 54 108 143
3 54 143 108
3 54 121 129
3 54 129 121
3 54 121 131
3 54 131 121
3 54 131 143
3 54 143 131
3 55 58 81
3 55 81 58
3 55 102 109
3 55 109 102
3 55 102 119
3 55 119 102
3 55 109 146
3 55 146 109
3 55 119 146
3 55 146 119
3 56 72 76
3 56 76 72
3 57 71 77
3 57 77 71
3 58 81 125
3 58 125 81
3 58 116 125
3 58 125 116
3 59 112 138
3 59 138 112
3 59 112 139
3 59 139 112
3 59 113 114
3 59 114 113
3 59 113 144
3 59 144 113
3 59 114 145
3 59 145 114
3 59 117 134
3 59 134 117
3 59 117 138
3 59 138 117
3 59 118 135
3 59 135 118
3 59 118 139
3 59 139 118
3 59 134 145
3 59 145 134
3 59 134 155
3 59 155 134
3 59 135 144
3 59 144 135
3 59 135 156
3 59 156 135
3 59 138 154
3 59 154 138
3 59 138 155
3 59 155 138
3 59 139 154
3 59 154 139
3 59 139 156
3 59 156 139
3 60 69 82
3 60 82 69
3 60 71 82
3 60 82 71
3 61 70 83
3 61 83 70
3 61 72 83
3 61 83 72
3 62 65 140
3 62 140 65
3 62 78 140
3 62 140 78
3 62 78 141
3 62 141 78
3 63 84 89
3 63 89 84
3 63 86 89
3 63 89 86
3 64 85 90
3 64 90 85
3 64 86 90
3 64 90 86
3 65 73 147
3 65 147 73
3 67 68 123
3 67 123 68
3 67 68 133
3 67 133 68
3 67 81 124
3 67 124 81
3 67 81 132
3 67 132 81
3 67 115 124
3 67 124 115
3 67 115 126
3 67 126 115
3 67 122 123
3 67 123 122
3 67 122 126
3 67 126 122
3 67 124 150
3 67 150 124
3 67 126 150
3 67 150 126
3 67 132 133
3 67 133 132
3 68 81 125
3 68 125 81
3 68 81 133
3 68 133 81
3 68 116 125
3 68 125 116
3 68 116 127
3 68 127 116
3 68 123 127
3 68 127 123
3 68 125 151
3 68 151 125
3 68 127 151
3 68 151 127
3 69 75 100
3 69 100 75
3 69 82 100
3 69 100 82
3 70 75 101
3 70 101 75
3 70 83 101
3 70 101 83
3 71 77 98
3 71 98 77
3 71 82 98
3 71 98 82
3 72 76 99
3 72 99 76
3 72 83 99
3 72 99 83
3 75 100 112
3 75 112 100
3 75 101 112
3 75 112 101
3 76 99 110
3 76 110 99
3 77 98 111
3 77 111 98
3 78 105 142
3 78 142 105
3 78 105 158
3 78 158 105
3 78 106 143
3 78 143 106
3 78 106 157
3 78 157 106
3 78 107 108
3 78 108 107
3 78 107 142
3 78 142 107
3 78 107 158
3 78 158 107
3 78 108 143
3 78 143 108
3 78 108 157
3 78 157 108
3 79 80 109
3 79 109 80
3 79 80 114
3 79 114 80
3 79 110 144
3 79 144 110
3 79 110 152
3 79 152 110
3 79 113 114
3 79 114 113
3 79 113 144
3 79 144 113
3 79 113 152
3 79 152 113
3 80 111 145
3 80 145 111
3 80 111 153
3 80 153 111
3 80 114 145
3 80 145 114
3 80 114 153
3 80 153 114
3 81 132 133
3 81 133 132
3 82 98 117
3 82 117 98
3 82 100 117
3 82 117 100
3 83 99 118
3 83 118 99
3 83 101 118
3 83 118 101
3 84 89 120
3 84 120 89
3 84 94 120
3 84 120 94
3 85 90 121
3 85 121 90
3 85 95 121
3 85 121 95
3 86 87 88
3 86 88 87
3 86 87 89
3 86 89 87
3 86 88 90
3 86 90 88
3 87 88 137
3 87 137 88
3 87 89 128
3 87 128 89
3 87 136 137
3 87 137 136
3 88 90 129
3 88 129 90
3 89 120 128
3 89 128 120
3 90 121 129
3 90 129 121
3 92 93 123
3 92 123 93
3 92 93 148
3 92 148 93
3 92 96 103
3 92 103 96
3 92 96 126
3 92 126 96
3 92 103 149
3 92 149 103
3 92 122 123
3 92 123 122
3 92 122 126
3 92 126 122
3 92 148 149
3 92 149 148
3 93 97 104
3 93 104 97
3 93 97 127
3 93 127 97
3 93 104 148
3 93 148 104
3 93 123 127
3 93 127 123
3 94 105 130
3 94 130 105
3 94 120 130
3 94 130 120
3 95 106 131
3 95 131 106
3 95 121 131
3 95 131 121
3 96 115 126
3 96 126 115
3 97 116 127
3 97 127 116
3 98 111 134
3 98 134 111
3 98 117 134
3 98 134 117
3 99 110 135
3 99 135 110
3 99 118 135
3 99 135 118
3 100 112 138
3 100 138 112
3 100 117 138
3 100 138 117
3 101 112 139
3 101 139 112
3 101 118 139
3 101 139 118
3 102 109 119
3 102 119 109
3 105 130 142
3 105 142 130
3 105 142 158
3 105 158 142
3 106 131 143
3 106 143 131
3 106 143 157
3 106 157 143
3 107 142 158
3 107 158 142
3 108 143 157
3 108 157 143
3 109 119 146
3 109 146 119
3 110 135 144
3 110 144 135
3 110 144 152
3 110 152 144
3 111 134 145
3 111 145 134
3 111 145 153
3 111 153 145
3 112 138 154
3 112 154 138
3 112 139 154
3 112 154 139
3 113 144 152
3 113 152 144
3 114 145 153
3 114 153 145
3 115 124 150
3 115 150 124
3 115 126 150
3 115 150 126
3 116 125 151
3 116 151 125
3 116 127 151
3 116 151 127
3 117 134 155
3 117 155 134
3 117 138 155
3 117 155 138
3 118 135 156
3 118 156 135
3 118 139 156
3 118 156 139
