COFF
27 72 27

-3.77938 0.650817 2.44812 0.5 0.5 0.5 1
-3.77938 -0.650817 2.44812 0.5 0.5 0.5 1
-0.0245421 -1.38969 2.33612 0.5 0.5 0.5 1
4.09099 -0.641803 2.46541 0.5 0.5 0.5 1
4.09099 0.641803 2.46541 0.5 0.5 0.5 1
-0.0245421 1.38969 2.33612 0.5 0.5 0.5 1
0.938485 -1.09751 2.3521 0.5 0.5 0.5 1
0.938485 1.09751 2.3521 0.5 0.5 0.5 1
-0.988689 1.08759 2.35436 0.5 0.5 0.5 1
-0.988689 -1.08759 2.35436 0.5 0.5 0.5 1
1.89747 -0.891063 2.54571 0.5 0.5 0.5 1
1.89747 0.891063 2.54571 0.5 0.5 0.5 1
-1.95788 0.89764 2.50578 0.5 0.5 0.5 1
-1.95788 -0.89764 2.50578 0.5 0.5 0.5 1
2.93166 -0.76814 2.50095 0.5 0.5 0.5 1
2.93166 0.76814 2.50095 0.5 0.5 0.5 1
-1.64588 0.760529 1.79279 0.5 0.5 0.5 1
-1.64588 -0.760529 1.79279 0.5 0.5 0.5 1
1.71791 0.752906 1.80393 0.5 0.5 0.5 1
2.96233 -0.630938 1.88261 0.5 0.5 0.5 1
2.96233 0.630938 1.88261 0.5 0.5 0.5 1
-2.84322 0.658139 1.92481 0.5 0.5 0.5 1
-2.84322 -0.658139 1.92481 0.5 0.5 0.5 1
0.00115372 1.74311e-17 1.03911 1 1 0 1
1.71791 -0.752906 1.80393 0.5 0.5 0.5 1
0.874447 0.382192 1.41381 0.5 0.5 0.5 1
0.874447 -0.382192 1.41381 0.5 0.5 0.5 1

3 0 1 22
3 0 22 1
3 0 12 16
3 0 16 12
3 0 16 21
3 0 21 16
3 0 21 22
3 0 22 21
3 1 13 17
3 1 17 13
3 1 17 22
3 1 22 17
3 2 6 23
3 2 23 6
3 2 9 23
3 2 23 9
3 3 4 20
3 3 20 4
3 3 14 19
3 3 19 14
3 3 19 20
3 3 20 19
3 4 15 20
3 4 20 15
3 5 7 23
3 5 23 7
3 5 8 23
3 5 23 8
3 6 10 24
3 6 24 10
3 6 23 26
3 6 26 23
3 6 24 26
3 6 26 24
3 7 11 18
3 7 18 11
3 7 18 25
3 7 25 18
3 7 23 25
3 7 25 23
3 8 12 16
3 8 16 12
3 8 16 23
3 8 23 16
3 9 13 17
3 9 17 13
3 9 17 23
3 9 23 17
3 10 14 24
3 10 24 14
3 11 15 18
3 11 18 15
3 14 19 24
3 14 24 19
3 15 18 20
3 15 20 18
3 16 17 22
3 16 22 17
3 16 17 23
3 16 23 17
3 16 21 22
3 16 22 21
3 18 19 20
3 18 20 19
3 18 19 24
3 18 24 19
3 18 24 26
3 18 26 24
3 18 25 26
3 18 26 25
3 23 25 26
3 23 26 25
