COFF
37 116 37

-4.63462 0.701307 3.20857 0.5 0.5 0.5 1
-4.63462 -0.701307 3.20857 0.5 0.5 0.5 1
-0.0261039 -1.57899 2.97535 0.5 0.5 0.5 1
4.97137 -0.685956 3.23718 0.5 0.5 0.5 1
4.97137 0.685956 3.23718 0.5 0.5 0.5 1
-0.0261039 1.57899 2.97535 0.5 0.5 0.5 1
0.98612 -1.28843 3.09471 0.5 0.5 0.5 1
0.98612 1.28843 3.09471 0.5 0.5 0.5 1
-1.03552 1.27095 3.06365 0.5 0.5 0.5 1
-1.03552 -1.27095 3.06365 0.5 0.5 0.5 1
1.92164 -0.98917 3.28937 0.5 0.5 0.5 1
1.92164 0.98917 3.28937 0.5 0.5 0.5 1
-1.97992 1.00454 3.25594 0.5 0.5 0.5 1
-1.97992 -1.00454 3.25594 0.5 0.5 0.5 1
3.05114 -0.851862 3.29355 0.5 0.5 0.5 1
3.05114 0.851862 3.29355 0.5 0.5 0.5 1
-2.99345 0.866485 3.23904 0.5 0.5 0.5 1
-2.99345 -0.866485 3.23904 0.5 0.5 0.5 1
2.10388 0.864617 2.41585 0.5 0.5 0.5 1
3.40631 -0.708892 2.57871 0.5 0.5 0.5 1
3.40631 0.708892 2.57871 0.5 0.5 0.5 1
-3.33116 0.721358 2.54804 0.5 0.5 0.5 1
-3.33116 -0.721358 2.54804 0.5 0.5 0.5 1
-0.0251926 5.81642e-17 1.03911 1 1 0 1
2.10388 -0.864617 2.41585 0.5 0.5 0.5 1
1.16232 0.838309 1.76852 0.5 0.5 0.5 1
1.16232 -0.838309 1.76852 0.5 0.5 0.5 1
-0.814405 1.13036 2.24654 0.5 0.5 0.5 1
-0.814405 -1.13036 2.24654 0.5 0.5 0.5 1
-1.67521 0.603423 1.58313 0.5 0.5 0.5 1
-1.67521 -0.603423 1.58313 0.5 0.5 0.5 1
0.839664 -1.05499 2.1216 0.5 0.5 0.5 1
0.839664 1.05499 2.1216 0.5 0.5 0.5 1
-2.08472 0.87441 2.39754 0.5 0.5 0.5 1
-2.08472 -0.87441 2.39754 0.5 0.5 0.5 1
-0.0397018 -1.17299 2.09481 0.5 0.5 0.5 1
-0.0397018 1.17299 2.09481 0.5 0.5 0.5 1

3 0 1 22
3 0 22 1
3 0 16 21
3 0 21 16
3 0 21 22
3 0 22 21
3 1 17 22
3 1 22 17
3 2 6 31
3 2 31 6
3 2 9 28
3 2 28 9
3 2 23 28
3 2 28 23
3 2 23 31
3 2 31 23
3 2 28 35
3 2 35 28
3 2 31 35
3 2 35 31
3 3 4 20
3 3 20 4
3 3 14 19
3 3 19 14
3 3 19 20
3 3 20 19
3 4 15 20
3 4 20 15
3 5 7 32
3 5 32 7
3 5 8 27
3 5 27 8
3 5 23 27
3 5 27 23
3 5 23 32
3 5 32 23
3 5 27 36
3 5 36 27
3 5 32 36
3 5 36 32
3 6 10 24
3 6 24 10
3 6 24 31
3 6 31 24
3 7 11 18
3 7 18 11
3 7 18 32
3 7 32 18
3 8 12 33
3 8 33 12
3 8 27 33
3 8 33 27
3 9 13 34
3 9 34 13
3 9 28 34
3 9 34 28
3 10 14 24
3 10 24 14
3 11 15 18
3 11 18 15
3 12 16 33
3 12 33 16
3 13 17 34
3 13 34 17
3 14 19 24
3 14 24 19
3 15 18 20
3 15 20 18
3 16 21 33
3 16 33 21
3 17 22 34
3 17 34 22
3 18 19 20
3 18 20 19
3 18 19 24
3 18 24 19
3 18 24 26
3 18 26 24
3 18 25 26
3 18 26 25
3 18 25 32
3 18 32 25
3 21 22 34
3 21 34 22
3 21 33 34
3 21 34 33
3 23 25 26
3 23 26 25
3 23 25 32
3 23 32 25
3 23 26 31
3 23 31 26
3 23 27 33
3 23 33 27
3 23 27 36
3 23 36 27
3 23 28 34
3 23 34 28
3 23 28 35
3 23 35 28
3 23 29 30
3 23 30 29
3 23 29 33
3 23 33 29
3 23 30 34
3 23 34 30
3 23 31 35
3 23 35 31
3 23 32 36
3 23 36 32
3 24 26 31
3 24 31 26
3 29 30 34
3 29 34 30
3 29 33 34
3 29 34 33
