COFF
63 212 63

-5.77641 0.770623 4.76971 0.5 0.5 0.5 1
-5.77641 -0.770623 4.76971 0.5 0.5 0.5 1
-0.0272862 -1.84349 4.34457 0.5 0.5 0.5 1
6.78043 -0.779954 4.76691 0.5 0.5 0.5 1
6.78043 0.779954 4.76691 0.5 0.5 0.5 1
-0.0272862 1.84349 4.34457 0.5 0.5 0.5 1
1.05311 -1.48996 4.52483 0.5 0.5 0.5 1
1.05311 1.48996 4.52483 0.5 0.5 0.5 1
-1.10406 1.48621 4.48057 0.5 0.5 0.5 1
-1.10406 -1.48621 4.48057 0.5 0.5 0.5 1
1.95723 -1.1367 4.79614 0.5 0.5 0.5 1
1.95723 1.1367 4.79614 0.5 0.5 0.5 1
-2.01925 1.17148 4.73998 0.5 0.5 0.5 1
-2.01925 -1.17148 4.73998 0.5 0.5 0.5 1
3.06123 -0.989292 4.85677 0.5 0.5 0.5 1
3.06123 0.989292 4.85677 0.5 0.5 0.5 1
-3.02627 1.01435 4.7654 0.5 0.5 0.5 1
-3.02627 -1.01435 4.7654 0.5 0.5 0.5 1
4.05392 -0.876579 4.87971 0.5 0.5 0.5 1
4.05392 0.876579 4.87971 0.5 0.5 0.5 1
-4.01857 0.890612 4.78081 0.5 0.5 0.5 1
-4.01857 -0.890612 4.78081 0.5 0.5 0.5 1
5.06513 -0.848903 4.80185 0.5 0.5 0.5 1
5.06513 0.848903 4.80185 0.5 0.5 0.5 1
2.3579 -1.00732 3.77231 0.5 0.5 0.5 1
1.58997 1.22624 2.97609 0.5 0.5 0.5 1
1.58997 -1.22624 2.97609 0.5 0.5 0.5 1
-1.14347 1.43918 3.61654 0.5 0.5 0.5 1
-1.14347 -1.43918 3.61654 0.5 0.5 0.5 1
-1.90144 0.781958 2.61769 0.5 0.5 0.5 1
-1.90144 -0.781958 2.61769 0.5 0.5 0.5 1
1.14551 -1.41567 3.48131 0.5 0.5 0.5 1
1.14551 1.41567 3.48131 0.5 0.5 0.5 1
-2.35716 1.06643 3.72255 0.5 0.5 0.5 1
-2.35716 -1.06643 3.72255 0.5 0.5 0.5 1
0.00354907 -1.56924 3.22217 0.5 0.5 0.5 1
0.00354907 1.56924 3.22217 0.5 0.5 0.5 1
2.3579 1.00732 3.77231 0.5 0.5 0.5 1
4.02186 -0.826722 4.12922 0.5 0.5 0.5 1
-0.698087 -1.36263 2.71896 0.5 0.5 0.5 1
-0.698087 1.36263 2.71896 0.5 0.5 0.5 1
-1.51751 -0.661177 1.6129 0.5 0.5 0.5 1
-1.51751 0.661177 1.6129 0.5 0.5 0.5 1
0.903048 1.30751 2.41876 0.5 0.5 0.5 1
0.903048 -1.30751 2.41876 0.5 0.5 0.5 1
4.02186 0.826722 4.12922 0.5 0.5 0.5 1
-3.9312 0.846913 4.1194 0.5 0.5 0.5 1
1.89694 -2.61714e-16 2.84332 0.5 0.5 0.5 1
1.2732 0.906537 2.14187 0.5 0.5 0.5 1
1.2732 -0.906537 2.14187 0.5 0.5 0.5 1
0.0305634 1.34384 2.3033 0.5 0.5 0.5 1
0.0305634 -1.34384 2.3033 0.5 0.5 0.5 1
1.42785 -7.03147e-17 2.00468 0.5 0.5 0.5 1
5.0076 -0.75029 3.97172 1 1 0 1
5.0076 0.75029 3.97172 1 1 0 1
-2.64426 5.81278e-17 3.4271 0.5 0.5 0.5 1
-0.334089 -0.944237 1.93115 0.5 0.5 0.5 1
-0.334089 0.944237 1.93115 0.5 0.5 0.5 1
-3.9312 -0.846913 4.1194 0.5 0.5 0.5 1
0.038603 2.07458e-17 1.03911 1 1 0 1
0.543715 0.748736 1.7054 0.5 0.5 0.5 1
0.543715 -0.748736 1.7054 0.5 0.5 0.5 1
2.4086 8.60901e-17 3.73207 0.5 0.5 0.5 1

3 0 1 58
3 0 58 1
3 0 20 46
3 0 46 20
3 0 46 58
3 0 58 46
3 1 21 58
3 1 58 21
3 2 6 31
3 2 31 6
3 2 9 28
3 2 28 9
3 2 28 35
3 2 35 28
3 2 31 35
3 2 35 31
3 3 4 54
3 3 54 4
3 3 22 53
3 3 53 22
3 3 53 54
3 3 54 53
3 4 23 54
3 4 54 23
3 5 7 32
3 5 32 7
3 5 8 27
3 5 27 8
3 5 27 36
3 5 36 27
3 5 32 36
3 5 36 32
3 6 10 24
3 6 24 10
3 6 24 31
3 6 31 24
3 7 11 37
3 7 37 11
3 7 32 37
3 7 37 32
3 8 12 33
3 8 33 12
3 8 27 33
3 8 33 27
3 9 13 34
3 9 34 13
3 9 28 34
3 9 34 28
3 10 14 24
3 10 24 14
3 11 15 37
3 11 37 15
3 12 16 33
3 12 33 16
3 13 17 34
3 13 34 17
3 14 18 38
3 14 38 18
3 14 24 38
3 14 38 24
3 15 19 45
3 15 45 19
3 15 37 45
3 15 45 37
3 16 20 46
3 16 46 20
3 16 33 46
3 16 46 33
3 17 21 58
3 17 58 21
3 17 34 58
3 17 58 34
3 18 22 38
3 18 38 22
3 19 23 45
3 19 45 23
3 22 38 53
3 22 53 38
3 23 45 54
3 23 54 45
3 24 26 31
3 24 31 26
3 24 26 47
3 24 47 26
3 24 38 62
3 24 62 38
3 24 47 62
3 24 62 47
3 25 32 37
3 25 37 32
3 25 32 43
3 25 43 32
3 25 37 47
3 25 47 37
3 25 43 48
3 25 48 43
3 25 47 48
3 25 48 47
3 26 31 44
3 26 44 31
3 26 44 49
3 26 49 44
3 26 47 49
3 26 49 47
3 27 33 40
3 27 40 33
3 27 36 40
3 27 40 36
3 28 34 39
3 28 39 34
3 28 35 39
3 28 39 35
3 29 30 41
3 29 41 30
3 29 30 55
3 29 55 30
3 29 33 40
3 29 40 33
3 29 33 55
3 29 55 33
3 29 40 57
3 29 57 40
3 29 41 42
3 29 42 41
3 29 42 57
3 29 57 42
3 30 34 39
3 30 39 34
3 30 34 55
3 30 55 34
3 30 39 56
3 30 56 39
3 30 41 56
3 30 56 41
3 31 35 44
3 31 44 35
3 32 36 43
3 32 43 36
3 33 46 55
3 33 55 46
3 34 55 58
3 34 58 55
3 35 39 51
3 35 51 39
3 35 44 51
3 35 51 44
3 36 40 50
3 36 50 40
3 36 43 50
3 36 50 43
3 37 45 62
3 37 62 45
3 37 47 62
3 37 62 47
3 38 45 54
3 38 54 45
3 38 45 62
3 38 62 45
3 38 53 54
3 38 54 53
3 39 51 56
3 39 56 51
3 40 50 57
3 40 57 50
3 41 42 59
3 41 59 42
3 41 56 59
3 41 59 56
3 42 57 59
3 42 59 57
3 43 48 59
3 43 59 48
3 43 48 60
3 43 60 48
3 43 50 59
3 43 59 50
3 43 50 60
3 43 60 50
3 44 49 59
3 44 59 49
3 44 49 61
3 44 61 49
3 44 51 59
3 44 59 51
3 44 51 61
3 44 61 51
3 46 55 58
3 46 58 55
3 47 48 52
3 47 52 48
3 47 48 59
3 47 59 48
3 47 49 52
3 47 52 49
3 47 49 59
3 47 59 49
3 48 52 59
3 48 59 52
3 48 59 60
3 48 60 59
3 49 52 59
3 49 59 52
3 49 59 61
3 49 61 59
3 50 57 59
3 50 59 57
3 50 59 60
3 50 60 59
3 51 56 59
3 51 59 56
3 51 59 61
3 51 61 59
