COFF
75 256 75

-6.24831 0.800493 5.14052 0.5 0.5 0.5 1
-6.24831 -0.800493 5.14052 0.5 0.5 0.5 1
-0.0273984 -1.89436 4.69836 0.5 0.5 0.5 1
7.20196 -0.841397 5.09148 0.5 0.5 0.5 1
7.20196 0.841397 5.09148 0.5 0.5 0.5 1
-0.0273984 1.89436 4.69836 0.5 0.5 0.5 1
1.06817 -1.53161 4.88811 0.5 0.5 0.5 1
1.06817 1.53161 4.88811 0.5 0.5 0.5 1
-1.11642 1.52754 4.84413 0.5 0.5 0.5 1
-1.11642 -1.52754 4.84413 0.5 0.5 0.5 1
1.96654 -1.17269 5.17136 0.5 0.5 0.5 1
1.96654 1.17269 5.17136 0.5 0.5 0.5 1
-2.02315 1.20613 5.11639 0.5 0.5 0.5 1
-2.02315 -1.20613 5.11639 0.5 0.5 0.5 1
3.05589 -1.03697 5.22433 0.5 0.5 0.5 1
3.05589 1.03697 5.22433 0.5 0.5 0.5 1
-3.00945 1.05101 5.14315 0.5 0.5 0.5 1
-3.00945 -1.05101 5.14315 0.5 0.5 0.5 1
4.04945 -0.930518 5.24613 0.5 0.5 0.5 1
4.04945 0.930518 5.24613 0.5 0.5 0.5 1
-3.99795 0.91848 5.19471 0.5 0.5 0.5 1
-3.99795 -0.91848 5.19471 0.5 0.5 0.5 1
5.04044 -0.964509 5.12393 0.5 0.5 0.5 1
5.04044 0.964509 5.12393 0.5 0.5 0.5 1
6.05618 -0.921607 5.09174 0.5 0.5 0.5 1
6.05618 0.921607 5.09174 0.5 0.5 0.5 1
-5.00249 0.86698 5.15821 0.5 0.5 0.5 1
-5.00249 -0.86698 5.15821 0.5 0.5 0.5 1
-1.17895 -1.48316 3.96037 0.5 0.5 0.5 1
-1.98167 0.808369 2.92013 0.5 0.5 0.5 1
-1.98167 -0.808369 2.92013 0.5 0.5 0.5 1
1.1789 -1.46319 3.82087 0.5 0.5 0.5 1
1.1789 1.46319 3.82087 0.5 0.5 0.5 1
-2.39046 1.10962 4.07013 0.5 0.5 0.5 1
-2.39046 -1.10962 4.07013 0.5 0.5 0.5 1
0.00634253 -1.6166 3.53035 0.5 0.5 0.5 1
0.00634253 1.6166 3.53035 0.5 0.5 0.5 1
2.39493 1.06701 4.11371 0.5 0.5 0.5 1
4.0797 -0.937747 4.50897 0.5 0.5 0.5 1
-0.799199 -1.4276 3.0459 0.5 0.5 0.5 1
-0.799199 1.4276 3.0459 0.5 0.5 0.5 1
-1.47594 -0.718992 1.74645 0.5 0.5 0.5 1
-1.47594 0.718992 1.74645 0.5 0.5 0.5 1
0.974871 1.39183 2.73135 0.5 0.5 0.5 1
0.974871 -1.39183 2.73135 0.5 0.5 0.5 1
4.0797 0.937747 4.50897 0.5 0.5 0.5 1
-4.02698 0.868533 4.50304 0.5 0.5 0.5 1
2.04626 4.91031e-13 3.15605 0.5 0.5 0.5 1
1.37517 0.990201 2.41151 0.5 0.5 0.5 1
1.37517 -0.990201 2.41151 0.5 0.5 0.5 1
0.0751136 1.45283 2.56997 0.5 0.5 0.5 1
0.0751136 -1.45283 2.56997 0.5 0.5 0.5 1
1.57374 -4.09129e-13 2.26046 0.5 0.5 0.5 1
5.03756 -0.750558 3.97172 1 1 0 1
5.03756 0.750558 3.97172 1 1 0 1
-2.82903 -3.83933e-13 3.68745 0.5 0.5 0.5 1
-0.422467 -1.20549 2.24187 0.5 0.5 0.5 1
-0.422467 1.20549 2.24187 0.5 0.5 0.5 1
-4.02698 -0.868533 4.50304 0.5 0.5 0.5 1
0.0549695 -4.72103e-13 1.03911 1 1 0 1
0.723266 1.02469 1.88472 0.5 0.5 0.5 1
0.723266 -1.02469 1.88472 0.5 0.5 0.5 1
2.63423 9.1103e-14 3.82117 0.5 0.5 0.5 1
6.281 -0.805838 4.53913 0.5 0.5 0.5 1
6.281 0.805838 4.53913 0.5 0.5 0.5 1
2.39493 -1.06701 4.11371 0.5 0.5 0.5 1
1.64513 1.2772 3.30281 0.5 0.5 0.5 1
-4.96761 0.815432 4.56576 1 1 0 1
-4.96761 -0.815432 4.56576 1 1 0 1
0.920798 0.596161 1.69355 0.5 0.5 0.5 1
0.920798 -0.596161 1.69355 0.5 0.5 0.5 1
0.0232659 0.887841 1.79676 0.5 0.5 0.5 1
0.0232659 -0.887841 1.79676 0.5 0.5 0.5 1
1.64513 -1.2772 3.30281 0.5 0.5 0.5 1
-1.17895 1.48316 3.96037 0.5 0.5 0.5 1

3 0 1 68
3 0 68 1
3 0 26 67
3 0 67 26
3 0 67 68
3 0 68 67
3 1 27 68
3 1 68 27
3 2 6 31
3 2 31 6
3 2 9 28
3 2 28 9
3 2 28 35
3 2 35 28
3 2 31 35
3 2 35 31
3 3 4 64
3 3 64 4
3 3 24 63
3 3 63 24
3 3 63 64
3 3 64 63
3 4 25 64
3 4 64 25
3 5 7 32
3 5 32 7
3 5 8 74
3 5 74 8
3 5 32 36
3 5 36 32
3 5 36 74
3 5 74 36
3 6 10 65
3 6 65 10
3 6 31 65
3 6 65 31
3 7 11 37
3 7 37 11
3 7 32 37
3 7 37 32
3 8 12 33
3 8 33 12
3 8 33 74
3 8 74 33
3 9 13 34
3 9 34 13
3 9 28 34
3 9 34 28
3 10 14 65
3 10 65 14
3 11 15 37
3 11 37 15
3 12 16 33
3 12 33 16
3 13 17 34
3 13 34 17
3 14 18 38
3 14 38 18
3 14 38 65
3 14 65 38
3 15 19 45
3 15 45 19
3 15 37 45
3 15 45 37
3 16 20 46
3 16 46 20
3 16 33 46
3 16 46 33
3 17 21 58
3 17 58 21
3 17 34 58
3 17 58 34
3 18 22 38
3 18 38 22
3 19 23 45
3 19 45 23
3 20 26 46
3 20 46 26
3 21 27 58
3 21 58 27
3 22 24 53
3 22 53 24
3 22 38 53
3 22 53 38
3 23 25 54
3 23 54 25
3 23 45 54
3 23 54 45
3 24 53 63
3 24 63 53
3 25 54 64
3 25 64 54
3 26 46 67
3 26 67 46
3 27 58 68
3 27 68 58
3 28 34 39
3 28 39 34
3 28 35 39
3 28 39 35
3 29 30 41
3 29 41 30
3 29 30 55
3 29 55 30
3 29 33 40
3 29 40 33
3 29 33 55
3 29 55 33
3 29 40 57
3 29 57 40
3 29 41 42
3 29 42 41
3 29 42 57
3 29 57 42
3 30 34 39
3 30 39 34
3 30 34 55
3 30 55 34
3 30 39 56
3 30 56 39
3 30 41 56
3 30 56 41
3 31 35 44
3 31 44 35
3 31 44 73
3 31 73 44
3 31 65 73
3 31 73 65
3 32 36 43
3 32 43 36
3 32 37 66
3 32 66 37
3 32 43 66
3 32 66 43
3 33 40 74
3 33 74 40
3 33 46 55
3 33 55 46
3 34 55 58
3 34 58 55
3 35 39 51
3 35 51 39
3 35 44 51
3 35 51 44
3 36 40 50
3 36 50 40
3 36 40 74
3 36 74 40
3 36 43 50
3 36 50 43
3 37 45 62
3 37 62 45
3 37 47 62
3 37 62 47
3 37 47 66
3 37 66 47
3 38 45 54
3 38 54 45
3 38 45 62
3 38 62 45
3 38 53 54
3 38 54 53
3 38 62 65
3 38 65 62
3 39 51 56
3 39 56 51
3 40 50 57
3 40 57 50
3 41 42 59
3 41 59 42
3 41 56 59
3 41 59 56
3 42 57 59
3 42 59 57
3 43 48 60
3 43 60 48
3 43 48 66
3 43 66 48
3 43 50 60
3 43 60 50
3 44 49 61
3 44 61 49
3 44 49 73
3 44 73 49
3 44 51 61
3 44 61 51
3 46 55 58
3 46 58 55
3 46 58 68
3 46 68 58
3 46 67 68
3 46 68 67
3 47 48 52
3 47 52 48
3 47 48 66
3 47 66 48
3 47 49 52
3 47 52 49
3 47 49 73
3 47 73 49
3 47 62 65
3 47 65 62
3 47 65 73
3 47 73 65
3 48 52 59
3 48 59 52
3 48 52 69
3 48 69 52
3 48 59 60
3 48 60 59
3 48 60 69
3 48 69 60
3 49 52 59
3 49 59 52
3 49 52 70
3 49 70 52
3 49 59 61
3 49 61 59
3 49 61 70
3 49 70 61
3 50 57 59
3 50 59 57
3 50 57 71
3 50 71 57
3 50 59 60
3 50 60 59
3 50 60 71
3 50 71 60
3 51 56 59
3 51 59 56
3 51 56 72
3 51 72 56
3 51 59 61
3 51 61 59
3 51 61 72
3 51 72 61
3 52 59 69
3 52 69 59
3 52 59 70
3 52 70 59
3 53 54 64
3 53 64 54
3 53 63 64
3 53 64 63
3 56 59 72
3 56 72 59
3 57 59 71
3 57 71 59
3 59 60 69
3 59 69 60
3 59 60 71
3 59 71 60
3 59 61 70
3 59 70 61
3 59 61 72
3 59 72 61
