COFF
79 268 79

-6.32586 0.873216 5.44698 0.5 0.5 0.5 1
-6.32586 -0.873216 5.44698 0.5 0.5 0.5 1
-0.027544 -1.9419 5.05423 0.5 0.5 0.5 1
7.26122 -0.895272 5.42299 0.5 0.5 0.5 1
7.26122 0.895272 5.42299 0.5 0.5 0.5 1
-0.027544 1.9419 5.05423 0.5 0.5 0.5 1
1.08321 -1.57271 5.25082 0.5 0.5 0.5 1
1.08321 1.57271 5.25082 0.5 0.5 0.5 1
-1.12219 1.56931 5.20651 0.5 0.5 0.5 1
-1.12219 -1.56931 5.20651 0.5 0.5 0.5 1
1.97642 -1.21126 5.54301 0.5 0.5 0.5 1
1.97642 1.21126 5.54301 0.5 0.5 0.5 1
-2.02262 1.24122 5.49255 0.5 0.5 0.5 1
-2.02262 -1.24122 5.49255 0.5 0.5 0.5 1
3.05772 -1.09007 5.58399 0.5 0.5 0.5 1
3.05772 1.09007 5.58399 0.5 0.5 0.5 1
-3.01133 1.09551 5.50936 0.5 0.5 0.5 1
-3.01133 -1.09551 5.50936 0.5 0.5 0.5 1
4.05341 -1.0035 5.60485 0.5 0.5 0.5 1
4.05341 1.0035 5.60485 0.5 0.5 0.5 1
-4.00065 0.967608 5.5774 0.5 0.5 0.5 1
-4.00065 -0.967608 5.5774 0.5 0.5 0.5 1
5.04123 -1.08011 5.42154 0.5 0.5 0.5 1
5.04123 1.08011 5.42154 0.5 0.5 0.5 1
6.06409 -1.03726 5.38687 0.5 0.5 0.5 1
6.06409 1.03726 5.38687 0.5 0.5 0.5 1
-5.00705 0.970447 5.4675 0.5 0.5 0.5 1
-5.00705 -0.970447 5.4675 0.5 0.5 0.5 1
-1.20206 -1.52785 4.30639 0.5 0.5 0.5 1
-2.04878 0.844199 3.21947 0.5 0.5 0.5 1
-2.04878 -0.844199 3.21947 0.5 0.5 0.5 1
1.20664 -1.51123 4.1628 0.5 0.5 0.5 1
1.20664 1.51123 4.1628 0.5 0.5 0.5 1
-2.42358 1.15259 4.41881 0.5 0.5 0.5 1
-2.42358 -1.15259 4.41881 0.5 0.5 0.5 1
0.00948345 -1.66255 3.8457 0.5 0.5 0.5 1
0.00948345 1.66255 3.8457 0.5 0.5 0.5 1
2.42999 1.12499 4.45433 0.5 0.5 0.5 1
4.08635 -1.04046 4.86973 0.5 0.5 0.5 1
-0.878108 -1.47821 3.38051 0.5 0.5 0.5 1
-0.878108 1.47821 3.38051 0.5 0.5 0.5 1
-1.46473 -0.807314 1.90782 0.5 0.5 0.5 1
-1.46473 0.807314 1.90782 0.5 0.5 0.5 1
1.02411 1.45442 3.055 0.5 0.5 0.5 1
1.02411 -1.45442 3.055 0.5 0.5 0.5 1
4.08635 1.04046 4.86973 0.5 0.5 0.5 1
-4.021 0.946713 4.86139 0.5 0.5 0.5 1
2.16607 -3.36497e-12 3.46916 0.5 0.5 0.5 1
1.44771 1.06021 2.70322 0.5 0.5 0.5 1
1.44771 -1.06021 2.70322 0.5 0.5 0.5 1
0.103084 1.53194 2.85573 0.5 0.5 0.5 1
0.103084 -1.53194 2.85573 0.5 0.5 0.5 1
1.66352 -1.93792e-11 2.50619 0.5 0.5 0.5 1
5.06305 -0.750394 3.97172 1 1 0 1
5.06305 0.750394 3.97172 1 1 0 1
-2.94546 -5.53665e-12 3.96614 0.5 0.5 0.5 1
-0.524152 -1.33928 2.56708 0.5 0.5 0.5 1
-0.524152 1.33928 2.56708 0.5 0.5 0.5 1
-4.021 -0.946713 4.86139 0.5 0.5 0.5 1
0.0690282 -2.79774e-11 1.03911 1 1 0 1
0.840435 1.22076 2.14263 0.5 0.5 0.5 1
0.840435 -1.22076 2.14263 0.5 0.5 0.5 1
2.81408 4.84736e-13 4.0098 0.5 0.5 0.5 1
6.46515 -0.893929 4.80492 0.5 0.5 0.5 1
6.46515 0.893929 4.80492 0.5 0.5 0.5 1
2.42999 -1.12499 4.45433 0.5 0.5 0.5 1
1.68565 1.32611 3.63374 0.5 0.5 0.5 1
-5.01549 0.815755 4.56576 1 1 0 1
-5.01549 -0.815755 4.56576 1 1 0 1
1.1571 0.746797 1.88638 0.5 0.5 0.5 1
1.1571 -0.746797 1.88638 0.5 0.5 0.5 1
0.0708351 1.18317 1.99606 0.5 0.5 0.5 1
0.0708351 -1.18317 1.99606 0.5 0.5 0.5 1
1.68565 -1.32611 3.63374 0.5 0.5 0.5 1
-1.20206 1.52785 4.30639 0.5 0.5 0.5 1
1.11939 3.57016e-12 1.74052 0.5 0.5 0.5 1
-0.242742 -0.768557 1.74929 0.5 0.5 0.5 1
-0.242742 0.768557 1.74929 0.5 0.5 0.5 1
4.08636 3.08632e-12 4.80945 0.5 0.5 0.5 1

3 0 1 68
3 0 68 1
3 0 26 67
3 0 67 26
3 0 67 68
3 0 68 67
3 1 27 68
3 1 68 27
3 2 6 31
3 2 31 6
3 2 9 28
3 2 28 9
3 2 28 35
3 2 35 28
3 2 31 35
3 2 35 31
3 3 4 64
3 3 64 4
3 3 24 63
3 3 63 24
3 3 63 64
3 3 64 63
3 4 25 64
3 4 64 25
3 5 7 32
3 5 32 7
3 5 8 74
3 5 74 8
3 5 32 36
3 5 36 32
3 5 36 74
3 5 74 36
3 6 10 65
3 6 65 10
3 6 31 65
3 6 65 31
3 7 11 37
3 7 37 11
3 7 32 37
3 7 37 32
3 8 12 33
3 8 33 12
3 8 33 74
3 8 74 33
3 9 13 34
3 9 34 13
3 9 28 34
3 9 34 28
3 10 14 65
3 10 65 14
3 11 15 37
3 11 37 15
3 12 16 33
3 12 33 16
3 13 17 34
3 13 34 17
3 14 18 38
3 14 38 18
3 14 38 65
3 14 65 38
3 15 19 45
3 15 45 19
3 15 37 45
3 15 45 37
3 16 20 46
3 16 46 20
3 16 33 46
3 16 46 33
3 17 21 58
3 17 58 21
3 17 34 58
3 17 58 34
3 18 22 38
3 18 38 22
3 19 23 45
3 19 45 23
3 20 26 46
3 20 46 26
3 21 27 58
3 21 58 27
3 22 24 53
3 22 53 24
3 22 38 53
3 22 53 38
3 23 25 54
3 23 54 25
3 23 45 54
3 23 54 45
3 24 53 63
3 24 63 53
3 25 54 64
3 25 64 54
3 26 46 67
3 26 67 46
3 27 58 68
3 27 68 58
3 28 34 39
3 28 39 34
3 28 35 39
3 28 39 35
3 29 30 41
3 29 41 30
3 29 30 55
3 29 55 30
3 29 33 40
3 29 40 33
3 29 33 55
3 29 55 33
3 29 40 57
3 29 57 40
3 29 41 42
3 29 42 41
3 29 42 57
3 29 57 42
3 30 34 39
3 30 39 34
3 30 34 55
3 30 55 34
3 30 39 56
3 30 56 39
3 30 41 56
3 30 56 41
3 31 35 44
3 31 44 35
3 31 44 73
3 31 73 44
3 31 65 73
3 31 73 65
3 32 36 43
3 32 43 36
3 32 37 66
3 32 66 37
3 32 43 66
3 32 66 43
3 33 40 74
3 33 74 40
3 33 46 55
3 33 55 46
3 34 55 58
3 34 58 55
3 35 39 51
3 35 51 39
3 35 44 51
3 35 51 44
3 36 40 50
3 36 50 40
3 36 40 74
3 36 74 40
3 36 43 50
3 36 50 43
3 37 45 62
3 37 62 45
3 37 47 62
3 37 62 47
3 37 47 66
3 37 66 47
3 38 53 78
3 38 78 53
3 38 62 65
3 38 65 62
3 38 62 78
3 38 78 62
3 39 51 56
3 39 56 51
3 40 50 57
3 40 57 50
3 41 42 59
3 41 59 42
3 41 56 72
3 41 72 56
3 41 56 76
3 41 76 56
3 41 59 72
3 41 72 59
3 41 59 76
3 41 76 59
3 42 57 71
3 42 71 57
3 42 57 77
3 42 77 57
3 42 59 71
3 42 71 59
3 42 59 77
3 42 77 59
3 43 48 60
3 43 60 48
3 43 48 66
3 43 66 48
3 43 50 60
3 43 60 50
3 44 49 61
3 44 61 49
3 44 49 73
3 44 73 49
3 44 51 61
3 44 61 51
3 45 54 78
3 45 78 54
3 45 62 78
3 45 78 62
3 46 55 58
3 46 58 55
3 46 58 68
3 46 68 58
3 46 67 68
3 46 68 67
3 47 48 52
3 47 52 48
3 47 48 66
3 47 66 48
3 47 49 52
3 47 52 49
3 47 49 73
3 47 73 49
3 47 62 65
3 47 65 62
3 47 65 73
3 47 73 65
3 48 52 69
3 48 69 52
3 48 60 69
3 48 69 60
3 49 52 70
3 49 70 52
3 49 61 70
3 49 70 61
3 50 57 71
3 50 71 57
3 50 60 71
3 50 71 60
3 51 56 72
3 51 72 56
3 51 61 72
3 51 72 61
3 52 59 69
3 52 69 59
3 52 59 70
3 52 70 59
3 52 69 75
3 52 75 69
3 52 70 75
3 52 75 70
3 53 54 64
3 53 64 54
3 53 54 78
3 53 78 54
3 53 63 64
3 53 64 63
3 56 72 76
3 56 76 72
3 57 71 77
3 57 77 71
3 59 60 69
3 59 69 60
3 59 60 71
3 59 71 60
3 59 61 70
3 59 70 61
3 59 61 72
3 59 72 61
3 59 69 75
3 59 75 69
3 59 70 75
3 59 75 70
3 59 71 77
3 59 77 71
3 59 72 76
3 59 76 72
