COFF
102 370 102

-6.51387 1.05852 6.03439 0.5 0.5 0.5 1
-6.51387 -1.05852 6.03439 0.5 0.5 0.5 1
-0.0279209 -2.0321 5.76733 0.5 0.5 0.5 1
7.38401 -0.999574 6.07905 0.5 0.5 0.5 1
7.38401 0.999574 6.07905 0.5 0.5 0.5 1
-0.0279209 2.0321 5.76733 0.5 0.5 0.5 1
1.11299 -1.65346 5.97443 0.5 0.5 0.5 1
1.11299 1.65346 5.97443 0.5 0.5 0.5 1
-1.14092 1.65102 5.92935 0.5 0.5 0.5 1
-1.14092 -1.65102 5.92935 0.5 0.5 0.5 1
1.99628 -1.29137 6.28038 0.5 0.5 0.5 1
1.99628 1.29137 6.28038 0.5 0.5 0.5 1
-2.03351 1.31804 6.23349 0.5 0.5 0.5 1
-2.03351 -1.31804 6.23349 0.5 0.5 0.5 1
3.05932 -1.20152 6.2937 0.5 0.5 0.5 1
3.05932 1.20152 6.2937 0.5 0.5 0.5 1
-3.02613 1.20228 6.22007 0.5 0.5 0.5 1
-3.02613 -1.20228 6.22007 0.5 0.5 0.5 1
4.05743 -1.14709 6.30728 0.5 0.5 0.5 1
4.05743 1.14709 6.30728 0.5 0.5 0.5 1
-4.01973 1.11527 6.28873 0.5 0.5 0.5 1
-4.01973 -1.11527 6.28873 0.5 0.5 0.5 1
5.06158 -1.30802 6.02426 0.5 0.5 0.5 1
5.06158 1.30802 6.02426 0.5 0.5 0.5 1
6.0894 -1.25722 6.00204 0.5 0.5 0.5 1
6.0894 1.25722 6.00204 0.5 0.5 0.5 1
-5.00574 1.21512 6.05219 0.5 0.5 0.5 1
-5.00574 -1.21512 6.05219 0.5 0.5 0.5 1
-7.3765 7.10067e-13 6.015 0.5 0.5 0.5 1
-2.14822 0.924331 3.81659 0.5 0.5 0.5 1
-2.14822 -0.924331 3.81659 0.5 0.5 0.5 1
1.25106 -1.60277 4.84646 0.5 0.5 0.5 1
1.25106 1.60277 4.84646 0.5 0.5 0.5 1
-2.48074 1.2533 5.10747 0.5 0.5 0.5 1
-2.48074 -1.2533 5.10747 0.5 0.5 0.5 1
0.0149844 -1.75143 4.48764 0.5 0.5 0.5 1
0.0149685 1.75162 4.48764 0.5 0.5 0.5 1
2.49467 1.233 5.13116 0.5 0.5 0.5 1
4.1031 -1.17997 5.47461 0.5 0.5 0.5 1
-0.99391 -1.56497 4.05795 0.5 0.5 0.5 1
-0.99391 1.56497 4.05795 0.5 0.5 0.5 1
-1.55447 -0.948849 2.38051 0.5 0.5 0.5 1
-1.55447 0.948849 2.38051 0.5 0.5 0.5 1
1.09904 1.54863 3.68518 0.5 0.5 0.5 1
1.09904 -1.54863 3.68518 0.5 0.5 0.5 1
4.1031 1.17997 5.47461 0.5 0.5 0.5 1
-4.03521 1.13009 5.51745 0.5 0.5 0.5 1
2.34736 7.61844e-10 4.09423 0.5 0.5 0.5 1
1.55427 1.16377 3.2976 0.5 0.5 0.5 1
1.55427 -1.16377 3.2976 0.5 0.5 0.5 1
0.114546 1.62395 3.44627 0.5 0.5 0.5 1
0.114557 -1.62378 3.44627 0.5 0.5 0.5 1
1.81789 1.62791e-09 3.02318 0.5 0.5 0.5 1
5.09005 -0.75041 3.97172 1 1 0 1
5.09005 0.75041 3.97172 1 1 0 1
-3.2124 -5.12121e-10 4.56811 0.5 0.5 0.5 1
-0.723119 -1.43852 3.20218 0.5 0.5 0.5 1
-0.723119 1.43852 3.20218 0.5 0.5 0.5 1
-4.03521 -1.13009 5.51745 0.5 0.5 0.5 1
0.145337 1.85955e-08 1.03911 1 1 0 1
0.983146 1.40753 2.71642 0.5 0.5 0.5 1
0.983146 -1.40753 2.71642 0.5 0.5 0.5 1
3.08944 -2.07381e-10 4.45062 0.5 0.5 0.5 1
6.69842 -1.12093 5.39848 0.5 0.5 0.5 1
6.69842 1.12093 5.39848 0.5 0.5 0.5 1
2.49467 -1.233 5.13116 0.5 0.5 0.5 1
1.74445 1.41914 4.28224 0.5 0.5 0.5 1
-5.00573 0.815415 4.56576 1 1 0 1
-5.00573 -0.815415 4.56576 1 1 0 1
1.34831 0.93571 2.35688 0.5 0.5 0.5 1
1.34831 -0.93571 2.35688 0.5 0.5 0.5 1
0.194391 1.45135 2.46864 0.5 0.5 0.5 1
0.194392 -1.45135 2.46864 0.5 0.5 0.5 1
1.74445 -1.41914 4.28224 0.5 0.5 0.5 1
-1.23521 1.61714 4.99797 0.5 0.5 0.5 1
1.51449 2.06097e-08 2.19914 0.5 0.5 0.5 1
-0.391774 -1.28336 2.13719 0.5 0.5 0.5 1
-0.391774 1.28336 2.13719 0.5 0.5 0.5 1
4.12156 -1.02363e-09 5.29598 0.5 0.5 0.5 1
-1.26643 -0.643729 1.60209 0.5 0.5 0.5 1
-1.26643 0.643729 1.60209 0.5 0.5 0.5 1
-4.03536 9.41781e-10 5.33719 0.5 0.5 0.5 1
0.755432 1.03471 1.87246 0.5 0.5 0.5 1
0.755431 -1.03471 1.87246 0.5 0.5 0.5 1
5.75382 -1.16786 5.1048 0.5 0.5 0.5 1
5.75382 1.16786 5.1048 0.5 0.5 0.5 1
6.84187 -1.47095e-13 5.27391 0.5 0.5 0.5 1
6.16063 -0.426499 4.53562 0.5 0.5 0.5 1
6.16063 0.426499 4.53562 0.5 0.5 0.5 1
6.06435 -0.937292 4.68877 0.5 0.5 0.5 1
6.06435 0.937292 4.68877 0.5 0.5 0.5 1
-1.23521 -1.61714 4.99797 0.5 0.5 0.5 1
-5.90796 0.452768 5.22233 0.5 0.5 0.5 1
-5.90796 -0.452768 5.22233 0.5 0.5 0.5 1
5.0475 -1.12525 5.04306 0.5 0.5 0.5 1
5.0475 1.12525 5.04306 0.5 0.5 0.5 1
-5.8567 0.94429 5.3325 0.5 0.5 0.5 1
-5.8567 -0.94429 5.3325 0.5 0.5 0.5 1
0.150932 0.787794 1.73933 0.5 0.5 0.5 1
0.150932 -0.787794 1.73933 0.5 0.5 0.5 1
0.782507 0.474744 1.69126 0.5 0.5 0.5 1
0.782507 -0.474744 1.69126 0.5 0.5 0.5 1

3 0 26 96
3 0 96 26
3 0 28 96
3 0 96 28
3 1 27 97
3 1 97 27
3 1 28 97
3 1 97 28
3 2 6 31
3 2 31 6
3 2 9 91
3 2 91 9
3 2 31 35
3 2 35 31
3 2 35 91
3 2 91 35
3 3 4 86
3 3 86 4
3 3 24 63
3 3 63 24
3 3 63 86
3 3 86 63
3 4 25 64
3 4 64 25
3 4 64 86
3 4 86 64
3 5 7 32
3 5 32 7
3 5 8 74
3 5 74 8
3 5 32 36
3 5 36 32
3 5 36 74
3 5 74 36
3 6 10 65
3 6 65 10
3 6 31 65
3 6 65 31
3 7 11 37
3 7 37 11
3 7 32 37
3 7 37 32
3 8 12 33
3 8 33 12
3 8 33 74
3 8 74 33
3 9 13 34
3 9 34 13
3 9 34 91
3 9 91 34
3 10 14 65
3 10 65 14
3 11 15 37
3 11 37 15
3 12 16 33
3 12 33 16
3 13 17 34
3 13 34 17
3 14 18 38
3 14 38 18
3 14 38 65
3 14 65 38
3 15 19 45
3 15 45 19
3 15 37 45
3 15 45 37
3 16 20 46
3 16 46 20
3 16 33 46
3 16 46 33
3 17 21 58
3 17 58 21
3 17 34 58
3 17 58 34
3 18 22 38
3 18 38 22
3 19 23 45
3 19 45 23
3 20 26 46
3 20 46 26
3 21 27 58
3 21 58 27
3 22 24 84
3 22 84 24
3 22 38 53
3 22 53 38
3 22 38 94
3 22 94 38
3 22 53 84
3 22 84 53
3 22 84 94
3 22 94 84
3 23 25 85
3 23 85 25
3 23 45 54
3 23 54 45
3 23 45 95
3 23 95 45
3 23 54 85
3 23 85 54
3 23 85 95
3 23 95 85
3 24 63 84
3 24 84 63
3 25 64 85
3 25 85 64
3 26 46 67
3 26 67 46
3 26 67 96
3 26 96 67
3 27 58 68
3 27 68 58
3 27 68 97
3 27 97 68
3 28 92 93
3 28 93 92
3 28 92 96
3 28 96 92
3 28 93 97
3 28 97 93
3 29 30 41
3 29 41 30
3 29 30 55
3 29 55 30
3 29 33 40
3 29 40 33
3 29 33 55
3 29 55 33
3 29 40 57
3 29 57 40
3 29 41 42
3 29 42 41
3 29 42 57
3 29 57 42
3 30 34 39
3 30 39 34
3 30 34 55
3 30 55 34
3 30 39 56
3 30 56 39
3 30 41 56
3 30 56 41
3 31 35 44
3 31 44 35
3 31 44 73
3 31 73 44
3 31 65 73
3 31 73 65
3 32 36 43
3 32 43 36
3 32 37 66
3 32 66 37
3 32 43 66
3 32 66 43
3 33 40 74
3 33 74 40
3 33 46 55
3 33 55 46
3 34 39 91
3 34 91 39
3 34 55 58
3 34 58 55
3 35 39 51
3 35 51 39
3 35 39 91
3 35 91 39
3 35 44 51
3 35 51 44
3 36 40 50
3 36 50 40
3 36 40 74
3 36 74 40
3 36 43 50
3 36 50 43
3 37 45 62
3 37 62 45
3 37 47 62
3 37 62 47
3 37 47 66
3 37 66 47
3 38 53 78
3 38 78 53
3 38 53 94
3 38 94 53
3 38 62 65
3 38 65 62
3 38 62 78
3 38 78 62
3 39 51 56
3 39 56 51
3 40 50 57
3 40 57 50
3 41 42 80
3 41 80 42
3 41 56 76
3 41 76 56
3 41 59 76
3 41 76 59
3 41 59 79
3 41 79 59
3 41 79 80
3 41 80 79
3 42 57 77
3 42 77 57
3 42 59 77
3 42 77 59
3 42 59 80
3 42 80 59
3 43 48 60
3 43 60 48
3 43 48 66
3 43 66 48
3 43 50 60
3 43 60 50
3 44 49 61
3 44 61 49
3 44 49 73
3 44 73 49
3 44 51 61
3 44 61 51
3 45 54 78
3 45 78 54
3 45 54 95
3 45 95 54
3 45 62 78
3 45 78 62
3 46 55 81
3 46 81 55
3 46 67 81
3 46 81 67
3 47 48 52
3 47 52 48
3 47 48 66
3 47 66 48
3 47 49 52
3 47 52 49
3 47 49 73
3 47 73 49
3 47 62 65
3 47 65 62
3 47 65 73
3 47 73 65
3 48 52 69
3 48 69 52
3 48 60 69
3 48 69 60
3 49 52 70
3 49 70 52
3 49 61 70
3 49 70 61
3 50 57 71
3 50 71 57
3 50 60 71
3 50 71 60
3 51 56 72
3 51 72 56
3 51 61 72
3 51 72 61
3 52 69 75
3 52 75 69
3 52 70 75
3 52 75 70
3 53 54 78
3 53 78 54
3 53 54 88
3 53 88 54
3 53 84 89
3 53 89 84
3 53 84 94
3 53 94 84
3 53 87 88
3 53 88 87
3 53 87 89
3 53 89 87
3 54 85 90
3 54 90 85
3 54 85 95
3 54 95 85
3 54 88 90
3 54 90 88
3 55 58 81
3 55 81 58
3 56 72 76
3 56 76 72
3 57 71 77
3 57 77 71
3 58 68 81
3 58 81 68
3 59 69 75
3 59 75 69
3 59 69 82
3 59 82 69
3 59 70 75
3 59 75 70
3 59 70 83
3 59 83 70
3 59 71 77
3 59 77 71
3 59 71 82
3 59 82 71
3 59 72 76
3 59 76 72
3 59 72 83
3 59 83 72
3 59 75 100
3 59 100 75
3 59 75 101
3 59 101 75
3 59 76 99
3 59 99 76
3 59 77 98
3 59 98 77
3 59 79 80
3 59 80 79
3 59 82 98
3 59 98 82
3 59 82 100
3 59 100 82
3 59 83 99
3 59 99 83
3 59 83 101
3 59 101 83
3 60 69 82
3 60 82 69
3 60 71 82
3 60 82 71
3 61 70 83
3 61 83 70
3 61 72 83
3 61 83 72
3 63 84 89
3 63 89 84
3 63 86 89
3 63 89 86
3 64 85 90
3 64 90 85
3 64 86 90
3 64 90 86
3 67 68 81
3 67 81 68
3 67 68 93
3 67 93 68
3 67 92 93
3 67 93 92
3 67 92 96
3 67 96 92
3 68 93 97
3 68 97 93
3 69 75 100
3 69 100 75
3 69 82 100
3 69 100 82
3 70 75 101
3 70 101 75
3 70 83 101
3 70 101 83
3 71 77 98
3 71 98 77
3 71 82 98
3 71 98 82
3 72 76 99
3 72 99 76
3 72 83 99
3 72 99 83
3 86 87 88
3 86 88 87
3 86 87 89
3 86 89 87
3 86 88 90
3 86 90 88
