COFF
109 396 109

-6.57021 1.16395 6.37702 0.5 0.5 0.5 1
-6.57021 -1.16395 6.37702 0.5 0.5 0.5 1
-0.0281329 -2.07595 6.12344 0.5 0.5 0.5 1
7.42802 -1.05818 6.41096 0.5 0.5 0.5 1
7.42802 1.05818 6.41096 0.5 0.5 0.5 1
-0.0281329 2.07595 6.12344 0.5 0.5 0.5 1
1.1274 -1.6939 6.33458 0.5 0.5 0.5 1
1.1274 1.6939 6.33458 0.5 0.5 0.5 1
-1.14955 1.69245 6.28856 0.5 0.5 0.5 1
-1.14955 -1.69245 6.28856 0.5 0.5 0.5 1
2.0066 -1.3326 6.64637 0.5 0.5 0.5 1
2.0066 1.3326 6.64637 0.5 0.5 0.5 1
-2.03852 1.35784 6.60131 0.5 0.5 0.5 1
-2.03852 -1.35784 6.60131 0.5 0.5 0.5 1
3.05899 -1.25952 6.64409 0.5 0.5 0.5 1
3.05899 1.25952 6.64409 0.5 0.5 0.5 1
-3.03253 1.25906 6.56976 0.5 0.5 0.5 1
-3.03253 -1.25906 6.56976 0.5 0.5 0.5 1
4.05753 -1.21198 6.65054 0.5 0.5 0.5 1
4.05753 1.21198 6.65054 0.5 0.5 0.5 1
-4.02741 1.1818 6.63069 0.5 0.5 0.5 1
-4.02741 -1.1818 6.63069 0.5 0.5 0.5 1
5.0561 -1.39849 6.33621 0.5 0.5 0.5 1
5.0561 1.39849 6.33621 0.5 0.5 0.5 1
6.09977 -1.34162 6.33185 0.5 0.5 0.5 1
6.09977 1.34162 6.33185 0.5 0.5 0.5 1
-5.00451 1.33022 6.34126 0.5 0.5 0.5 1
-5.00451 -1.33022 6.34126 0.5 0.5 0.5 1
-7.73413 -1.76128e-08 6.31265 0.5 0.5 0.5 1
8.48762 4.19914e-08 6.41492 0.5 0.5 0.5 1
-2.18855 -0.968661 4.11665 0.5 0.5 0.5 1
1.27153 -1.64599 5.18661 0.5 0.5 0.5 1
1.27153 1.64599 5.18661 0.5 0.5 0.5 1
-2.50681 1.3062 5.44756 0.5 0.5 0.5 1
-2.50681 -1.3062 5.44756 0.5 0.5 0.5 1
0.0174932 -1.79476 4.81135 0.5 0.5 0.5 1
0.0174954 1.79489 4.81135 0.5 0.5 0.5 1
2.52478 1.28179 5.46698 0.5 0.5 0.5 1
4.10362 -1.23807 5.75062 0.5 0.5 0.5 1
-1.04126 -1.60841 4.39386 0.5 0.5 0.5 1
-1.04126 1.60841 4.39386 0.5 0.5 0.5 1
-1.59941 -0.996907 2.63966 0.5 0.5 0.5 1
-1.59941 0.996907 2.63966 0.5 0.5 0.5 1
1.1271 1.59413 4.00386 0.5 0.5 0.5 1
1.1271 -1.59413 4.00386 0.5 0.5 0.5 1
4.10362 1.23807 5.75062 0.5 0.5 0.5 1
-4.04905 1.20547 5.81383 0.5 0.5 0.5 1
2.41564 -1.82373e-09 4.40384 0.5 0.5 0.5 1
1.59433 1.2052 3.59647 0.5 0.5 0.5 1
1.59433 -1.2052 3.59647 0.5 0.5 0.5 1
0.119985 1.66848 3.73871 0.5 0.5 0.5 1
0.120004 -1.66833 3.73871 0.5 0.5 0.5 1
1.87297 -3.35579e-08 3.28696 0.5 0.5 0.5 1
5.12068 -0.750687 3.97172 1 1 0 1
5.12068 0.750687 3.97172 1 1 0 1
-3.31335 -1.08865e-09 4.87148 0.5 0.5 0.5 1
-0.805885 -1.47204 3.50672 0.5 0.5 0.5 1
-0.805885 1.47204 3.50672 0.5 0.5 0.5 1
-4.04905 -1.20547 5.81383 0.5 0.5 0.5 1
0.15032 -5.91168e-08 1.03911 1 1 0 1
1.02349 1.46443 3.00545 0.5 0.5 0.5 1
1.02336 -1.46417 3.00545 0.5 0.5 0.5 1
3.15801 -3.08598e-10 4.67852 0.5 0.5 0.5 1
6.74442 -1.19361 5.7579 0.5 0.5 0.5 1
6.74442 1.19361 5.7579 0.5 0.5 0.5 1
2.52478 -1.28179 5.46698 0.5 0.5 0.5 1
1.77274 1.46249 4.60023 0.5 0.5 0.5 1
-5.00945 0.815586 4.56576 1 1 0 1
-5.00945 -0.815586 4.56576 1 1 0 1
1.40444 1.0054 2.61964 0.5 0.5 0.5 1
1.40445 -1.0054 2.61964 0.5 0.5 0.5 1
0.235698 1.52602 2.73089 0.5 0.5 0.5 1
0.235698 -1.52602 2.73089 0.5 0.5 0.5 1
1.77275 -1.46249 4.60024 0.5 0.5 0.5 1
-1.24914 1.6622 5.34259 0.5 0.5 0.5 1
1.57229 -6.42994e-07 2.40655 0.5 0.5 0.5 1
-0.451359 -1.34805 2.35263 0.5 0.5 0.5 1
-0.451359 1.34805 2.35263 0.5 0.5 0.5 1
4.12517 -1.01618e-09 5.5978 0.5 0.5 0.5 1
-1.43726 -0.78252 1.76671 0.5 0.5 0.5 1
-1.43726 0.78252 1.76671 0.5 0.5 0.5 1
-4.04938 1.34816e-09 5.55212 0.5 0.5 0.5 1
0.860577 1.19753 2.08648 0.5 0.5 0.5 1
0.860578 -1.19753 2.08648 0.5 0.5 0.5 1
5.84123 -1.25928 5.35991 0.5 0.5 0.5 1
5.84123 1.25928 5.35991 0.5 0.5 0.5 1
7.0753 4.95626e-08 5.52315 0.5 0.5 0.5 1
6.40581 -0.528871 4.6092 0.5 0.5 0.5 1
6.40581 0.528871 4.6092 0.5 0.5 0.5 1
6.32398 -0.947299 4.94926 0.5 0.5 0.5 1
6.32398 0.947299 4.94926 0.5 0.5 0.5 1
-1.24914 -1.6622 5.34259 0.5 0.5 0.5 1
-6.28064 0.573237 5.29424 0.5 0.5 0.5 1
-6.28064 -0.573237 5.29424 0.5 0.5 0.5 1
5.09548 -1.28361 5.31231 0.5 0.5 0.5 1
5.09548 1.28361 5.31231 0.5 0.5 0.5 1
-6.10822 0.974282 5.57943 0.5 0.5 0.5 1
-6.10822 -0.974282 5.57943 0.5 0.5 0.5 1
0.13603 1.14721 1.88087 0.5 0.5 0.5 1
0.13603 -1.14721 1.88087 0.5 0.5 0.5 1
1.11741 0.682412 1.84508 0.5 0.5 0.5 1
1.11741 -0.682413 1.84508 0.5 0.5 0.5 1
-2.18855 0.968661 4.11665 0.5 0.5 0.5 1
-6.92724 0.650035 5.90824 0.5 0.5 0.5 1
-6.92724 -0.650036 5.90824 0.5 0.5 0.5 1
4.54636 -1.01072 4.91005 0.5 0.5 0.5 1
4.54636 1.01072 4.91005 0.5 0.5 0.5 1
4.56509 -0.361468 4.75716 0.5 0.5 0.5 1
4.56509 0.361468 4.75716 0.5 0.5 0.5 1

3 0 26 96
3 0 96 26
3 0 28 92
3 0 92 28
3 0 28 103
3 0 103 28
3 0 92 96
3 0 96 92
3 0 96 103
3 0 103 96
3 1 27 97
3 1 97 27
3 1 28 93
3 1 93 28
3 1 28 104
3 1 104 28
3 1 93 97
3 1 97 93
3 1 97 104
3 1 104 97
3 2 6 31
3 2 31 6
3 2 9 91
3 2 91 9
3 2 31 35
3 2 35 31
3 2 35 91
3 2 91 35
3 3 24 63
3 3 63 24
3 3 29 86
3 3 86 29
3 3 63 86
3 3 86 63
3 4 25 64
3 4 64 25
3 4 29 86
3 4 86 29
3 4 64 86
3 4 86 64
3 5 7 32
3 5 32 7
3 5 8 74
3 5 74 8
3 5 32 36
3 5 36 32
3 5 36 74
3 5 74 36
3 6 10 65
3 6 65 10
3 6 31 65
3 6 65 31
3 7 11 37
3 7 37 11
3 7 32 37
3 7 37 32
3 8 12 33
3 8 33 12
3 8 33 74
3 8 74 33
3 9 13 34
3 9 34 13
3 9 34 91
3 9 91 34
3 10 14 65
3 10 65 14
3 11 15 37
3 11 37 15
3 12 16 33
3 12 33 16
3 13 17 34
3 13 34 17
3 14 18 38
3 14 38 18
3 14 38 65
3 14 65 38
3 15 19 45
3 15 45 19
3 15 37 45
3 15 45 37
3 16 20 46
3 16 46 20
3 16 33 46
3 16 46 33
3 17 21 58
3 17 58 21
3 17 34 58
3 17 58 34
3 18 22 38
3 18 38 22
3 19 23 45
3 19 45 23
3 20 26 46
3 20 46 26
3 21 27 58
3 21 58 27
3 22 24 84
3 22 84 24
3 22 38 94
3 22 94 38
3 22 84 94
3 22 94 84
3 23 25 85
3 23 85 25
3 23 45 95
3 23 95 45
3 23 85 95
3 23 95 85
3 24 63 84
3 24 84 63
3 25 64 85
3 25 85 64
3 26 46 67
3 26 67 46
3 26 67 96
3 26 96 67
3 27 58 68
3 27 68 58
3 27 68 97
3 27 97 68
3 28 92 93
3 28 93 92
3 28 92 103
3 28 103 92
3 28 93 104
3 28 104 93
3 30 34 39
3 30 39 34
3 30 34 55
3 30 55 34
3 30 39 56
3 30 56 39
3 30 41 42
3 30 42 41
3 30 41 56
3 30 56 41
3 30 42 102
3 30 102 42
3 30 55 102
3 30 102 55
3 31 35 44
3 31 44 35
3 31 44 73
3 31 73 44
3 31 65 73
3 31 73 65
3 32 36 43
3 32 43 36
3 32 37 66
3 32 66 37
3 32 43 66
3 32 66 43
3 33 40 74
3 33 74 40
3 33 40 102
3 33 102 40
3 33 46 55
3 33 55 46
3 33 55 102
3 33 102 55
3 34 39 91
3 34 91 39
3 34 55 58
3 34 58 55
3 35 39 51
3 35 51 39
3 35 39 91
3 35 91 39
3 35 44 51
3 35 51 44
3 36 40 50
3 36 50 40
3 36 40 74
3 36 74 40
3 36 43 50
3 36 50 43
3 37 45 62
3 37 62 45
3 37 47 62
3 37 62 47
3 37 47 66
3 37 66 47
3 38 62 65
3 38 65 62
3 38 62 78
3 38 78 62
3 38 78 105
3 38 105 78
3 38 94 105
3 38 105 94
3 39 51 56
3 39 56 51
3 40 50 57
3 40 57 50
3 40 57 102
3 40 102 57
3 41 42 80
3 41 80 42
3 41 56 76
3 41 76 56
3 41 59 76
3 41 76 59
3 41 59 79
3 41 79 59
3 41 79 80
3 41 80 79
3 42 57 77
3 42 77 57
3 42 57 102
3 42 102 57
3 42 59 77
3 42 77 59
3 42 59 80
3 42 80 59
3 43 48 60
3 43 60 48
3 43 48 66
3 43 66 48
3 43 50 60
3 43 60 50
3 44 49 61
3 44 61 49
3 44 49 73
3 44 73 49
3 44 51 61
3 44 61 51
3 45 62 78
3 45 78 62
3 45 78 106
3 45 106 78
3 45 95 106
3 45 106 95
3 46 55 81
3 46 81 55
3 46 67 81
3 46 81 67
3 47 48 52
3 47 52 48
3 47 48 66
3 47 66 48
3 47 49 52
3 47 52 49
3 47 49 73
3 47 73 49
3 47 62 65
3 47 65 62
3 47 65 73
3 47 73 65
3 48 52 69
3 48 69 52
3 48 60 69
3 48 69 60
3 49 52 70
3 49 70 52
3 49 61 70
3 49 70 61
3 50 57 71
3 50 71 57
3 50 60 71
3 50 71 60
3 51 56 72
3 51 72 56
3 51 61 72
3 51 72 61
3 52 69 75
3 52 75 69
3 52 70 75
3 52 75 70
3 53 54 88
3 53 88 54
3 53 54 108
3 53 108 54
3 53 78 105
3 53 105 78
3 53 78 107
3 53 107 78
3 53 84 89
3 53 89 84
3 53 84 94
3 53 94 84
3 53 87 88
3 53 88 87
3 53 87 89
3 53 89 87
3 53 94 105
3 53 105 94
3 53 107 108
3 53 108 107
3 54 78 106
3 54 106 78
3 54 78 108
3 54 108 78
3 54 85 90
3 54 90 85
3 54 85 95
3 54 95 85
3 54 88 90
3 54 90 88
3 54 95 106
3 54 106 95
3 55 58 81
3 55 81 58
3 56 72 76
3 56 76 72
3 57 71 77
3 57 77 71
3 58 68 81
3 58 81 68
3 59 69 75
3 59 75 69
3 59 69 82
3 59 82 69
3 59 70 75
3 59 75 70
3 59 70 83
3 59 83 70
3 59 71 77
3 59 77 71
3 59 71 82
3 59 82 71
3 59 72 76
3 59 76 72
3 59 72 83
3 59 83 72
3 59 75 100
3 59 100 75
3 59 75 101
3 59 101 75
3 59 76 99
3 59 99 76
3 59 77 98
3 59 98 77
3 59 79 80
3 59 80 79
3 59 82 98
3 59 98 82
3 59 82 100
3 59 100 82
3 59 83 99
3 59 99 83
3 59 83 101
3 59 101 83
3 60 69 82
3 60 82 69
3 60 71 82
3 60 82 71
3 61 70 83
3 61 83 70
3 61 72 83
3 61 83 72
3 63 84 89
3 63 89 84
3 63 86 89
3 63 89 86
3 64 85 90
3 64 90 85
3 64 86 90
3 64 90 86
3 67 68 81
3 67 81 68
3 67 68 93
3 67 93 68
3 67 92 93
3 67 93 92
3 67 92 96
3 67 96 92
3 68 93 97
3 68 97 93
3 69 75 100
3 69 100 75
3 69 82 100
3 69 100 82
3 70 75 101
3 70 101 75
3 70 83 101
3 70 101 83
3 71 77 98
3 71 98 77
3 71 82 98
3 71 98 82
3 72 76 99
3 72 99 76
3 72 83 99
3 72 99 83
3 78 107 108
3 78 108 107
3 86 87 88
3 86 88 87
3 86 87 89
3 86 89 87
3 86 88 90
3 86 90 88
3 92 96 103
3 92 103 96
3 93 97 104
3 93 104 97
