COFF
130 496 130

-6.64387 1.32475 7.04986 0.5 0.5 0.5 1
-6.64387 -1.32475 7.04986 0.5 0.5 0.5 1
-0.0285566 -2.16186 6.8341 0.5 0.5 0.5 1
7.48908 -1.16934 7.09049 0.5 0.5 0.5 1
7.48908 1.16934 7.09049 0.5 0.5 0.5 1
-0.0285566 2.16186 6.8341 0.5 0.5 0.5 1
1.15359 -1.77312 7.05355 0.5 0.5 0.5 1
1.15359 1.77312 7.05355 0.5 0.5 0.5 1
-1.16625 1.77628 7.00262 0.5 0.5 0.5 1
-1.16625 -1.77628 7.00262 0.5 0.5 0.5 1
2.02744 -1.41115 7.37931 0.5 0.5 0.5 1
2.02744 1.41115 7.37931 0.5 0.5 0.5 1
-2.04791 1.43898 7.33267 0.5 0.5 0.5 1
-2.04791 -1.43898 7.33267 0.5 0.5 0.5 1
3.0568 -1.36449 7.35164 0.5 0.5 0.5 1
3.0568 1.36449 7.35164 0.5 0.5 0.5 1
-3.04278 1.376 7.26135 0.5 0.5 0.5 1
-3.04278 -1.376 7.26135 0.5 0.5 0.5 1
4.05571 -1.32457 7.34954 0.5 0.5 0.5 1
4.05571 1.32457 7.34954 0.5 0.5 0.5 1
-4.03933 1.31354 7.31066 0.5 0.5 0.5 1
-4.03933 -1.31354 7.31066 0.5 0.5 0.5 1
5.04435 -1.55806 6.97489 0.5 0.5 0.5 1
5.04435 1.55806 6.97489 0.5 0.5 0.5 1
6.1202 -1.48626 6.98575 0.5 0.5 0.5 1
6.1202 1.48626 6.98575 0.5 0.5 0.5 1
-4.99738 1.52674 6.94463 0.5 0.5 0.5 1
-4.99738 -1.52674 6.94463 0.5 0.5 0.5 1
-7.97008 0.000168665 6.93264 0.5 0.5 0.5 1
8.6597 -0.000109832 7.10628 0.5 0.5 0.5 1
-2.25049 -1.03154 4.69097 0.5 0.5 0.5 1
1.30739 -1.72826 5.86532 0.5 0.5 0.5 1
1.30739 1.72826 5.86532 0.5 0.5 0.5 1
-2.55417 1.40698 6.11681 0.5 0.5 0.5 1
-2.55417 -1.40698 6.11681 0.5 0.5 0.5 1
0.0211694 -1.87919 5.46102 0.5 0.5 0.5 1
0.0211727 1.87923 5.46102 0.5 0.5 0.5 1
2.56955 1.36944 6.15121 0.5 0.5 0.5 1
4.10244 -1.33548 6.35874 0.5 0.5 0.5 1
-1.12572 -1.69663 5.04012 0.5 0.5 0.5 1
-1.12572 1.69663 5.04012 0.5 0.5 0.5 1
-1.65604 -0.891022 3.16391 0.5 0.5 0.5 1
-1.65604 0.891022 3.16391 0.5 0.5 0.5 1
1.17172 1.67729 4.64444 0.5 0.5 0.5 1
1.17172 -1.67729 4.64444 0.5 0.5 0.5 1
4.10244 1.33548 6.35874 0.5 0.5 0.5 1
-4.07621 1.33146 6.352 0.5 0.5 0.5 1
2.51101 2.24135e-08 5.02584 0.5 0.5 0.5 1
1.65749 1.2718 4.19826 0.5 0.5 0.5 1
1.65749 -1.2718 4.19826 0.5 0.5 0.5 1
0.121059 1.75395 4.32987 0.5 0.5 0.5 1
0.121017 -1.75386 4.32987 0.5 0.5 0.5 1
1.94647 6.99386e-08 3.82807 0.5 0.5 0.5 1
5.21522 -0.750777 3.97172 1 1 0 1
5.21522 0.750777 3.97172 1 1 0 1
-3.35511 2.44223e-08 5.37724 0.5 0.5 0.5 1
-0.91932 -1.52909 4.00399 0.5 0.5 0.5 1
-0.919321 1.52909 4.00399 0.5 0.5 0.5 1
-4.07621 -1.33146 6.352 0.5 0.5 0.5 1
0.186169 -5.85351e-08 1.03911 1 1 0 1
1.0592 1.54156 3.58757 0.5 0.5 0.5 1
1.05917 -1.54159 3.58757 0.5 0.5 0.5 1
3.1741 -2.92457e-09 5.24621 0.5 0.5 0.5 1
6.78386 -1.30506 6.43589 0.5 0.5 0.5 1
6.78386 1.30506 6.43589 0.5 0.5 0.5 1
2.56955 -1.36944 6.15121 0.5 0.5 0.5 1
1.82121 1.5411 5.23566 0.5 0.5 0.5 1
-5.04486 0.815608 4.56576 1 1 0 1
-5.04486 -0.815608 4.56576 1 1 0 1
1.46205 1.0795 3.15306 0.5 0.5 0.5 1
1.46203 -1.07955 3.15306 0.5 0.5 0.5 1
0.221351 1.60895 3.26072 0.5 0.5 0.5 1
0.221395 -1.60909 3.26072 0.5 0.5 0.5 1
1.82121 -1.5411 5.23566 0.5 0.5 0.5 1
-1.27585 1.75111 6.02778 0.5 0.5 0.5 1
1.63522 7.24256e-05 2.86119 0.5 0.5 0.5 1
-0.578187 -1.38321 2.80499 1 1 1 1
-0.578187 1.38321 2.80499 1 1 1 1
4.11079 -1.51753e-07 6.19853 0.5 0.5 0.5 1
-1.74389 -0.52963 2.28625 1 1 1 1
-1.74389 0.52963 2.28625 1 1 1 1
-4.07748 2.76906e-09 6.07181 0.5 0.5 0.5 1
0.956651 1.38498 2.59066 1 1 1 1
0.956493 -1.38485 2.59066 1 1 1 1
5.97288 -1.39085 5.87372 0.5 0.5 0.5 1
5.97288 1.39085 5.87372 0.5 0.5 0.5 1
7.33033 3.50316e-08 6.10855 0.5 0.5 0.5 1
6.77438 -0.684802 5.00982 0.5 0.5 0.5 1
6.77438 0.684802 5.00982 0.5 0.5 0.5 1
6.57088 -1.02604 5.45969 0.5 0.5 0.5 1
6.57088 1.02604 5.45969 0.5 0.5 0.5 1
-1.27585 -1.75111 6.02778 0.5 0.5 0.5 1
-6.81389 0.708279 5.74065 0.5 0.5 0.5 1
-6.81389 -0.708279 5.74065 0.5 0.5 0.5 1
5.17095 -1.42373 5.81451 0.5 0.5 0.5 1
5.17085 1.42365 5.81451 0.5 0.5 0.5 1
-6.41635 1.09907 6.12162 0.5 0.5 0.5 1
-6.41635 -1.09907 6.12162 0.5 0.5 0.5 1
0.235075 1.43384 2.29904 1 1 1 1
0.235075 -1.43384 2.29904 1 1 1 1
1.28497 0.89933 2.2669 1 1 1 1
1.28498 -0.899331 2.2669 1 1 1 1
-2.25049 1.03154 4.69097 0.5 0.5 0.5 1
-7.22314 0.699973 6.46891 0.5 0.5 0.5 1
-7.22314 -0.699973 6.46891 0.5 0.5 0.5 1
4.54623 -1.0428 5.60007 0.5 0.5 0.5 1
4.54627 1.04263 5.60007 0.5 0.5 0.5 1
4.23474 -0.36899 4.87039 0.5 0.5 0.5 1
4.23474 0.368989 4.87039 0.5 0.5 0.5 1
-2.09646 2.16855e-07 3.24612 0.5 0.5 0.5 1
-0.592157 -1.10857 2.08594 1 1 1 1
-0.592157 1.10857 2.08594 1 1 1 1
1.4095 -2.37545e-05 2.04558 1 1 1 1
-1.26884 -0.404088 1.48998 1 1 1 1
-1.26884 0.404088 1.48998 1 1 1 1
-5.06288 1.33782 5.90469 0.5 0.5 0.5 1
-5.06288 -1.3378 5.90469 0.5 0.5 0.5 1
0.711562 0.99049 1.79758 1 1 1 1
0.711562 -0.99049 1.79758 1 1 1 1
-2.44984 1.98839e-07 4.61564 0.5 0.5 0.5 1
5.69712 -1.14636 4.94839 0.5 0.5 0.5 1
5.69712 1.14636 4.94839 0.5 0.5 0.5 1
-5.97855 0.8115 5.12186 0.5 0.5 0.5 1
-5.97855 -0.8115 5.12186 0.5 0.5 0.5 1
-4.50516 0.999419 5.49491 0.5 0.5 0.5 1
-4.50516 -0.999418 5.49491 0.5 0.5 0.5 1
-5.80932 0.975756 5.34177 0.5 0.5 0.5 1
-5.80932 -0.975756 5.34177 0.5 0.5 0.5 1
5.93537 -0.904237 4.70855 0.5 0.5 0.5 1
5.93537 0.904237 4.70855 0.5 0.5 0.5 1

3 0 26 96
3 0 96 26
3 0 28 92
3 0 92 28
3 0 28 103
3 0 103 28
3 0 92 96
3 0 96 92
3 0 96 103
3 0 103 96
3 1 27 97
3 1 97 27
3 1 28 93
3 1 93 28
3 1 28 104
3 1 104 28
3 1 93 97
3 1 97 93
3 1 97 104
3 1 104 97
3 2 6 31
3 2 31 6
3 2 9 91
3 2 91 9
3 2 31 35
3 2 35 31
3 2 35 91
3 2 91 35
3 3 24 63
3 3 63 24
3 3 29 86
3 3 86 29
3 3 63 86
3 3 86 63
3 4 25 64
3 4 64 25
3 4 29 86
3 4 86 29
3 4 64 86
3 4 86 64
3 5 7 32
3 5 32 7
3 5 8 74
3 5 74 8
3 5 32 36
3 5 36 32
3 5 36 74
3 5 74 36
3 6 10 65
3 6 65 10
3 6 31 65
3 6 65 31
3 7 11 37
3 7 37 11
3 7 32 37
3 7 37 32
3 8 12 33
3 8 33 12
3 8 33 74
3 8 74 33
3 9 13 34
3 9 34 13
3 9 34 91
3 9 91 34
3 10 14 65
3 10 65 14
3 11 15 37
3 11 37 15
3 12 16 33
3 12 33 16
3 13 17 34
3 13 34 17
3 14 18 38
3 14 38 18
3 14 38 65
3 14 65 38
3 15 19 45
3 15 45 19
3 15 37 45
3 15 45 37
3 16 20 46
3 16 46 20
3 16 33 46
3 16 46 33
3 17 21 58
3 17 58 21
3 17 34 58
3 17 58 34
3 18 22 38
3 18 38 22
3 19 23 45
3 19 45 23
3 20 26 46
3 20 46 26
3 21 27 58
3 21 58 27
3 22 24 84
3 22 84 24
3 22 38 94
3 22 94 38
3 22 84 94
3 22 94 84
3 23 25 85
3 23 85 25
3 23 45 95
3 23 95 45
3 23 85 95
3 23 95 85
3 24 63 84
3 24 84 63
3 25 64 85
3 25 85 64
3 26 46 115
3 26 115 46
3 26 96 115
3 26 115 96
3 27 58 116
3 27 116 58
3 27 97 116
3 27 116 97
3 28 92 93
3 28 93 92
3 28 92 103
3 28 103 92
3 28 93 104
3 28 104 93
3 30 34 39
3 30 39 34
3 30 34 55
3 30 55 34
3 30 39 56
3 30 56 39
3 30 41 56
3 30 56 41
3 30 41 109
3 30 109 41
3 30 55 102
3 30 102 55
3 30 55 119
3 30 119 55
3 30 102 109
3 30 109 102
3 30 109 119
3 30 119 109
3 31 35 44
3 31 44 35
3 31 44 73
3 31 73 44
3 31 65 73
3 31 73 65
3 32 36 43
3 32 43 36
3 32 37 66
3 32 66 37
3 32 43 66
3 32 66 43
3 33 40 74
3 33 74 40
3 33 40 102
3 33 102 40
3 33 46 55
3 33 55 46
3 33 55 102
3 33 102 55
3 34 39 91
3 34 91 39
3 34 55 58
3 34 58 55
3 35 39 51
3 35 51 39
3 35 39 91
3 35 91 39
3 35 44 51
3 35 51 44
3 36 40 50
3 36 50 40
3 36 40 74
3 36 74 40
3 36 43 50
3 36 50 43
3 37 45 62
3 37 62 45
3 37 47 62
3 37 62 47
3 37 47 66
3 37 66 47
3 38 62 65
3 38 65 62
3 38 62 78
3 38 78 62
3 38 78 105
3 38 105 78
3 38 94 105
3 38 105 94
3 39 51 56
3 39 56 51
3 40 50 57
3 40 57 50
3 40 57 102
3 40 102 57
3 41 56 76
3 41 76 56
3 41 76 110
3 41 110 76
3 41 79 109
3 41 109 79
3 41 79 110
3 41 110 79
3 42 57 77
3 42 77 57
3 42 57 102
3 42 102 57
3 42 77 111
3 42 111 77
3 42 80 109
3 42 109 80
3 42 80 111
3 42 111 80
3 42 102 109
3 42 109 102
3 43 48 60
3 43 60 48
3 43 48 66
3 43 66 48
3 43 50 60
3 43 60 50
3 44 49 61
3 44 61 49
3 44 49 73
3 44 73 49
3 44 51 61
3 44 61 51
3 45 62 78
3 45 78 62
3 45 78 106
3 45 106 78
3 45 95 106
3 45 106 95
3 46 55 81
3 46 81 55
3 46 67 81
3 46 81 67
3 46 67 115
3 46 115 67
3 46 81 124
3 46 124 81
3 46 115 124
3 46 124 115
3 47 48 52
3 47 52 48
3 47 48 66
3 47 66 48
3 47 49 52
3 47 52 49
3 47 49 73
3 47 73 49
3 47 62 65
3 47 65 62
3 47 65 73
3 47 73 65
3 48 52 69
3 48 69 52
3 48 60 69
3 48 69 60
3 49 52 70
3 49 70 52
3 49 61 70
3 49 70 61
3 50 57 71
3 50 71 57
3 50 60 71
3 50 71 60
3 51 56 72
3 51 72 56
3 51 61 72
3 51 72 61
3 52 69 75
3 52 75 69
3 52 70 75
3 52 75 70
3 53 54 88
3 53 88 54
3 53 54 108
3 53 108 54
3 53 78 105
3 53 105 78
3 53 78 107
3 53 107 78
3 53 87 88
3 53 88 87
3 53 87 89
3 53 89 87
3 53 87 128
3 53 128 87
3 53 89 120
3 53 120 89
3 53 94 105
3 53 105 94
3 53 94 120
3 53 120 94
3 53 107 108
3 53 108 107
3 53 120 128
3 53 128 120
3 54 78 106
3 54 106 78
3 54 78 108
3 54 108 78
3 54 88 90
3 54 90 88
3 54 88 129
3 54 129 88
3 54 90 121
3 54 121 90
3 54 95 106
3 54 106 95
3 54 95 121
3 54 121 95
3 54 121 129
3 54 129 121
3 55 58 81
3 55 81 58
3 55 102 119
3 55 119 102
3 56 72 76
3 56 76 72
3 57 71 77
3 57 77 71
3 58 68 81
3 58 81 68
3 58 68 116
3 58 116 68
3 58 81 125
3 58 125 81
3 58 116 125
3 58 125 116
3 59 75 100
3 59 100 75
3 59 75 101
3 59 101 75
3 59 79 110
3 59 110 79
3 59 79 113
3 59 113 79
3 59 80 111
3 59 111 80
3 59 80 114
3 59 114 80
3 59 82 98
3 59 98 82
3 59 82 100
3 59 100 82
3 59 83 99
3 59 99 83
3 59 83 101
3 59 101 83
3 59 98 111
3 59 111 98
3 59 98 117
3 59 117 98
3 59 99 110
3 59 110 99
3 59 99 118
3 59 118 99
3 59 100 112
3 59 112 100
3 59 100 117
3 59 117 100
3 59 101 112
3 59 112 101
3 59 101 118
3 59 118 101
3 59 113 114
3 59 114 113
3 60 69 82
3 60 82 69
3 60 71 82
3 60 82 71
3 61 70 83
3 61 83 70
3 61 72 83
3 61 83 72
3 63 84 89
3 63 89 84
3 63 86 89
3 63 89 86
3 64 85 90
3 64 90 85
3 64 86 90
3 64 90 86
3 67 68 81
3 67 81 68
3 67 68 123
3 67 123 68
3 67 81 124
3 67 124 81
3 67 115 124
3 67 124 115
3 67 115 126
3 67 126 115
3 67 122 123
3 67 123 122
3 67 122 126
3 67 126 122
3 68 81 125
3 68 125 81
3 68 116 125
3 68 125 116
3 68 116 127
3 68 127 116
3 68 123 127
3 68 127 123
3 69 75 100
3 69 100 75
3 69 82 100
3 69 100 82
3 70 75 101
3 70 101 75
3 70 83 101
3 70 101 83
3 71 77 98
3 71 98 77
3 71 82 98
3 71 98 82
3 72 76 99
3 72 99 76
3 72 83 99
3 72 99 83
3 75 100 112
3 75 112 100
3 75 101 112
3 75 112 101
3 76 99 110
3 76 110 99
3 77 98 111
3 77 111 98
3 78 107 108
3 78 108 107
3 79 80 109
3 79 109 80
3 79 80 114
3 79 114 80
3 79 113 114
3 79 114 113
3 82 98 117
3 82 117 98
3 82 100 117
3 82 117 100
3 83 99 118
3 83 118 99
3 83 101 118
3 83 118 101
3 84 89 120
3 84 120 89
3 84 94 120
3 84 120 94
3 85 90 121
3 85 121 90
3 85 95 121
3 85 121 95
3 86 87 88
3 86 88 87
3 86 87 89
3 86 89 87
3 86 88 90
3 86 90 88
3 87 89 128
3 87 128 89
3 88 90 129
3 88 129 90
3 89 120 128
3 89 128 120
3 90 121 129
3 90 129 121
3 92 93 123
3 92 123 93
3 92 96 103
3 92 103 96
3 92 96 126
3 92 126 96
3 92 122 123
3 92 123 122
3 92 122 126
3 92 126 122
3 93 97 104
3 93 104 97
3 93 97 127
3 93 127 97
3 93 123 127
3 93 127 123
3 96 115 126
3 96 126 115
3 97 116 127
3 97 127 116
3 102 109 119
3 102 119 109
