COFF
144 548 144

-6.67433 1.38687 7.37851 0.5 0.5 0.5 1
-6.67433 -1.38687 7.37851 0.5 0.5 0.5 1
-0.0287217 -2.20353 7.18908 0.5 0.5 0.5 1
7.51783 -1.22093 7.43225 0.5 0.5 0.5 1
7.51783 1.22093 7.43225 0.5 0.5 0.5 1
-0.0287217 2.20353 7.18908 0.5 0.5 0.5 1
1.16615 -1.81083 7.41346 0.5 0.5 0.5 1
1.16615 1.81083 7.41346 0.5 0.5 0.5 1
-1.17469 1.8176 7.35859 0.5 0.5 0.5 1
-1.17469 -1.8176 7.35859 0.5 0.5 0.5 1
2.03694 -1.44821 7.74664 0.5 0.5 0.5 1
2.03694 1.44821 7.74664 0.5 0.5 0.5 1
-2.0524 1.47881 7.69761 0.5 0.5 0.5 1
-2.0524 -1.47881 7.69761 0.5 0.5 0.5 1
3.05504 -1.41329 7.70721 0.5 0.5 0.5 1
3.05504 1.41329 7.70721 0.5 0.5 0.5 1
-3.0467 1.43112 7.60839 0.5 0.5 0.5 1
-3.0467 -1.43112 7.60839 0.5 0.5 0.5 1
4.05404 -1.37642 7.70135 0.5 0.5 0.5 1
4.05404 1.37642 7.70135 0.5 0.5 0.5 1
-4.04362 1.37219 7.65537 0.5 0.5 0.5 1
-4.04362 -1.37219 7.65537 0.5 0.5 0.5 1
5.03806 -1.63074 7.29829 0.5 0.5 0.5 1
5.03806 1.63074 7.29829 0.5 0.5 0.5 1
6.13002 -1.5509 7.31765 0.5 0.5 0.5 1
6.13002 1.5509 7.31765 0.5 0.5 0.5 1
-4.99328 1.60679 7.26099 0.5 0.5 0.5 1
-4.99328 -1.60679 7.26099 0.5 0.5 0.5 1
-8.06222 7.65044e-10 7.25062 0.5 0.5 0.5 1
8.73889 -3.17899e-09 7.4538 0.5 0.5 0.5 1
-2.26974 -1.0687 4.97925 0.5 0.5 0.5 1
1.32317 -1.7661 6.20466 0.5 0.5 0.5 1
1.32317 1.7661 6.20466 0.5 0.5 0.5 1
-2.57092 1.45429 6.44771 0.5 0.5 0.5 1
-2.57092 -1.45429 6.44771 0.5 0.5 0.5 1
0.0224134 -1.91919 5.7868 0.5 0.5 0.5 1
0.0224122 1.91924 5.7868 0.5 0.5 0.5 1
2.58883 1.40633 6.49136 0.5 0.5 0.5 1
4.10486 -1.38696 6.66983 0.5 0.5 0.5 1
-1.1387 -1.74325 5.35773 0.5 0.5 0.5 1
-1.1387 1.74325 5.35772 0.5 0.5 0.5 1
-1.73569 -0.838149 3.43094 0.5 0.5 0.5 1
-1.73568 0.838153 3.43095 0.5 0.5 0.5 1
1.18915 1.71499 4.96555 0.5 0.5 0.5 1
1.18915 -1.71498 4.96554 0.5 0.5 0.5 1
4.10486 1.38696 6.66983 0.5 0.5 0.5 1
-4.07799 1.38495 6.64819 0.5 0.5 0.5 1
2.54078 -1.71921e-08 5.33957 0.5 0.5 0.5 1
1.68053 1.29921 4.50072 0.5 0.5 0.5 1
1.68053 -1.29921 4.50072 0.5 0.5 0.5 1
0.122943 1.79447 4.62682 0.5 0.5 0.5 1
0.122972 -1.79464 4.62682 0.5 0.5 0.5 1
1.97105 -7.21554e-08 4.10364 0.5 0.5 0.5 1
5.24051 -0.750898 3.97172 1 1 0 1
5.24051 0.750896 3.97172 1 1 0 1
-3.3346 5.19209e-07 5.67452 0.5 0.5 0.5 1
-0.96028 -1.56475 4.2503 0.5 0.5 0.5 1
-0.960278 1.56475 4.2503 0.5 0.5 0.5 1
-4.07799 -1.38495 6.64819 0.5 0.5 0.5 1
0.172502 -6.85969e-08 1.03911 1 1 0 1
1.07211 1.57633 3.88095 0.5 0.5 0.5 1
1.0721 -1.57628 3.88095 0.5 0.5 0.5 1
3.16321 -1.35749e-07 5.5461 0.5 0.5 0.5 1
6.80924 -1.35675 6.78011 0.5 0.5 0.5 1
6.80924 1.35675 6.78011 0.5 0.5 0.5 1
2.58883 -1.40633 6.49136 0.5 0.5 0.5 1
1.8402 1.57647 5.55448 0.5 0.5 0.5 1
-5.06269 0.815957 4.56576 1 1 0 1
-5.06269 -0.815957 4.56576 1 1 0 1
1.48453 1.09712 3.4235 0.5 0.5 0.5 1
1.48462 -1.09706 3.4235 0.5 0.5 0.5 1
0.206212 1.64604 3.52763 0.5 0.5 0.5 1
0.205967 -1.64589 3.52763 0.5 0.5 0.5 1
1.8402 -1.57647 5.55448 0.5 0.5 0.5 1
-1.28817 1.79383 6.36888 0.5 0.5 0.5 1
1.65679 2.21707e-05 3.09718 1 1 1 1
-0.682456 -1.37397 3.05813 1 1 1 1
-0.682454 1.37398 3.05812 1 1 1 1
4.11821 -5.39632e-08 6.47845 0.5 0.5 0.5 1
-1.87527 -0.485357 2.55697 1 1 1 1
-1.87527 0.485359 2.55697 1 1 1 1
-4.08035 -6.86775e-07 6.34364 0.5 0.5 0.5 1
0.963356 1.41353 2.8513 1 1 1 1
0.963235 -1.41347 2.8513 1 1 1 1
6.02403 -1.45858 6.18518 0.5 0.5 0.5 1
6.02403 1.45858 6.18518 0.5 0.5 0.5 1
7.39829 8.06162e-08 6.41237 0.5 0.5 0.5 1
6.87218 -0.709671 5.30571 0.5 0.5 0.5 1
6.87217 0.709676 5.30571 0.5 0.5 0.5 1
6.61059 -1.07612 5.75238 0.5 0.5 0.5 1
6.61063 1.07615 5.75238 0.5 0.5 0.5 1
-1.28817 -1.79383 6.36888 0.5 0.5 0.5 1
-6.98958 0.729837 6.02745 0.5 0.5 0.5 1
-6.98958 -0.729837 6.02745 0.5 0.5 0.5 1
5.18365 -1.48727 6.07747 0.5 0.5 0.5 1
5.18376 1.48731 6.07747 0.5 0.5 0.5 1
-6.51911 1.1486 6.45829 0.5 0.5 0.5 1
-6.51911 -1.1486 6.45829 0.5 0.5 0.5 1
0.249449 1.47392 2.52836 1 1 1 1
0.249506 -1.47377 2.52836 1 1 1 1
1.30038 0.957168 2.49224 1 1 1 1
1.3004 -0.957178 2.49224 1 1 1 1
-2.26974 1.06871 4.97927 0.5 0.5 0.5 1
-7.32375 0.700034 6.76578 0.5 0.5 0.5 1
-7.32375 -0.700034 6.76578 0.5 0.5 0.5 1
4.56516 -1.09181 5.86544 0.5 0.5 0.5 1
4.56527 1.09175 5.86544 0.5 0.5 0.5 1
4.16556 -0.366008 4.98461 0.5 0.5 0.5 1
4.16555 0.366004 4.98461 0.5 0.5 0.5 1
-2.25905 2.81967e-06 3.57965 0.5 0.5 0.5 1
-0.757271 -1.11595 2.32421 1 1 1 1
-0.757269 1.11595 2.32421 1 1 1 1
1.42984 -9.18412e-06 2.25536 1 1 1 1
-1.52692 -0.42558 1.60324 1 1 1 1
-1.52692 0.425581 1.60324 1 1 1 1
-5.07015 1.40097 6.15976 0.5 0.5 0.5 1
-5.0701 -1.40119 6.15976 0.5 0.5 0.5 1
0.793216 1.17945 1.99367 1 1 1 1
0.793217 -1.17945 1.99367 1 1 1 1
-2.57759 1.53226e-06 4.84932 0.5 0.5 0.5 1
5.83114 -1.31424 5.22621 0.5 0.5 0.5 1
5.83114 1.31424 5.22621 0.5 0.5 0.5 1
-6.18038 0.921294 5.26438 0.5 0.5 0.5 1
-6.18038 -0.921294 5.26438 0.5 0.5 0.5 1
-4.50239 1.05786 5.85483 0.5 0.5 0.5 1
-4.50239 -1.05788 5.85482 0.5 0.5 0.5 1
-6.07009 1.04249 5.55871 0.5 0.5 0.5 1
-6.07009 -1.04249 5.55871 0.5 0.5 0.5 1
6.22522 -1.23645 4.99007 0.5 0.5 0.5 1
6.22521 1.23645 4.99009 0.5 0.5 0.5 1
5.22869 -1.25509 5.10646 0.5 0.5 0.5 1
5.22863 1.25506 5.10645 0.5 0.5 0.5 1
-4.37596 0.399597 5.34047 0.5 0.5 0.5 1
-4.37596 -0.399607 5.34047 0.5 0.5 0.5 1
0.135156 0.948219 1.76373 1 1 1 1
0.135156 -0.948216 1.76373 1 1 1 1
6.22012 -0.723993 4.56573 0.5 0.5 0.5 1
6.22013 0.724001 4.56573 0.5 0.5 0.5 1
0.915111 0.527274 1.75021 1 1 1 1
0.915118 -0.527278 1.75021 1 1 1 1
3.632 -0.723595 6.11864 0.5 0.5 0.5 1
3.632 0.723594 6.11864 0.5 0.5 0.5 1
4.85731 -0.913742 4.91888 0.5 0.5 0.5 1
4.85736 0.913733 4.91888 0.5 0.5 0.5 1

3 0 26 96
3 0 96 26
3 0 28 92
3 0 92 28
3 0 28 103
3 0 103 28
3 0 92 96
3 0 96 92
3 0 96 103
3 0 103 96
3 1 27 97
3 1 97 27
3 1 28 93
3 1 93 28
3 1 28 104
3 1 104 28
3 1 93 97
3 1 97 93
3 1 97 104
3 1 104 97
3 2 6 31
3 2 31 6
3 2 9 91
3 2 91 9
3 2 31 35
3 2 35 31
3 2 35 91
3 2 91 35
3 3 24 63
3 3 63 24
3 3 29 86
3 3 86 29
3 3 63 86
3 3 86 63
3 4 25 64
3 4 64 25
3 4 29 86
3 4 86 29
3 4 64 86
3 4 86 64
3 5 7 32
3 5 32 7
3 5 8 74
3 5 74 8
3 5 32 36
3 5 36 32
3 5 36 74
3 5 74 36
3 6 10 65
3 6 65 10
3 6 31 65
3 6 65 31
3 7 11 37
3 7 37 11
3 7 32 37
3 7 37 32
3 8 12 33
3 8 33 12
3 8 33 74
3 8 74 33
3 9 13 34
3 9 34 13
3 9 34 91
3 9 91 34
3 10 14 65
3 10 65 14
3 11 15 37
3 11 37 15
3 12 16 33
3 12 33 16
3 13 17 34
3 13 34 17
3 14 18 38
3 14 38 18
3 14 38 65
3 14 65 38
3 15 19 45
3 15 45 19
3 15 37 45
3 15 45 37
3 16 20 46
3 16 46 20
3 16 33 46
3 16 46 33
3 17 21 58
3 17 58 21
3 17 34 58
3 17 58 34
3 18 22 38
3 18 38 22
3 19 23 45
3 19 45 23
3 20 26 46
3 20 46 26
3 21 27 58
3 21 58 27
3 22 24 84
3 22 84 24
3 22 38 94
3 22 94 38
3 22 84 94
3 22 94 84
3 23 25 85
3 23 85 25
3 23 45 95
3 23 95 45
3 23 85 95
3 23 95 85
3 24 63 84
3 24 84 63
3 25 64 85
3 25 85 64
3 26 46 115
3 26 115 46
3 26 96 115
3 26 115 96
3 27 58 116
3 27 116 58
3 27 97 116
3 27 116 97
3 28 92 93
3 28 93 92
3 28 92 103
3 28 103 92
3 28 93 104
3 28 104 93
3 30 34 39
3 30 39 34
3 30 34 55
3 30 55 34
3 30 39 56
3 30 56 39
3 30 41 56
3 30 56 41
3 30 41 109
3 30 109 41
3 30 55 102
3 30 102 55
3 30 55 119
3 30 119 55
3 30 102 109
3 30 109 102
3 30 109 119
3 30 119 109
3 31 35 44
3 31 44 35
3 31 44 73
3 31 73 44
3 31 65 73
3 31 73 65
3 32 36 43
3 32 43 36
3 32 37 66
3 32 66 37
3 32 43 66
3 32 66 43
3 33 40 74
3 33 74 40
3 33 40 102
3 33 102 40
3 33 46 55
3 33 55 46
3 33 55 102
3 33 102 55
3 34 39 91
3 34 91 39
3 34 55 58
3 34 58 55
3 35 39 51
3 35 51 39
3 35 39 91
3 35 91 39
3 35 44 51
3 35 51 44
3 36 40 50
3 36 50 40
3 36 40 74
3 36 74 40
3 36 43 50
3 36 50 43
3 37 45 78
3 37 78 45
3 37 45 141
3 37 141 45
3 37 47 62
3 37 62 47
3 37 47 66
3 37 66 47
3 37 62 78
3 37 78 62
3 37 62 141
3 37 141 62
3 38 62 65
3 38 65 62
3 38 62 78
3 38 78 62
3 38 65 140
3 38 140 65
3 38 78 105
3 38 105 78
3 38 78 140
3 38 140 78
3 38 94 105
3 38 105 94
3 39 51 56
3 39 56 51
3 40 50 57
3 40 57 50
3 40 57 102
3 40 102 57
3 41 56 76
3 41 76 56
3 41 76 110
3 41 110 76
3 41 79 109
3 41 109 79
3 41 79 110
3 41 110 79
3 42 57 77
3 42 77 57
3 42 57 102
3 42 102 57
3 42 77 111
3 42 111 77
3 42 80 109
3 42 109 80
3 42 80 111
3 42 111 80
3 42 102 109
3 42 109 102
3 43 48 60
3 43 60 48
3 43 48 66
3 43 66 48
3 43 50 60
3 43 60 50
3 44 49 61
3 44 61 49
3 44 49 73
3 44 73 49
3 44 51 61
3 44 61 51
3 45 78 106
3 45 106 78
3 45 78 141
3 45 141 78
3 45 95 106
3 45 106 95
3 46 55 81
3 46 81 55
3 46 81 124
3 46 124 81
3 46 115 124
3 46 124 115
3 47 48 52
3 47 52 48
3 47 48 66
3 47 66 48
3 47 49 52
3 47 52 49
3 47 49 73
3 47 73 49
3 47 62 65
3 47 65 62
3 47 65 73
3 47 73 65
3 48 52 69
3 48 69 52
3 48 60 69
3 48 69 60
3 49 52 70
3 49 70 52
3 49 61 70
3 49 70 61
3 50 57 71
3 50 71 57
3 50 60 71
3 50 71 60
3 51 56 72
3 51 72 56
3 51 61 72
3 51 72 61
3 52 69 75
3 52 75 69
3 52 70 75
3 52 75 70
3 53 54 108
3 53 108 54
3 53 54 137
3 53 137 54
3 53 87 128
3 53 128 87
3 53 87 136
3 53 136 87
3 53 107 108
3 53 108 107
3 53 107 142
3 53 142 107
3 53 120 128
3 53 128 120
3 53 120 130
3 53 130 120
3 53 130 142
3 53 142 130
3 53 136 137
3 53 137 136
3 54 88 129
3 54 129 88
3 54 88 137
3 54 137 88
3 54 108 143
3 54 143 108
3 54 121 129
3 54 129 121
3 54 121 131
3 54 131 121
3 54 131 143
3 54 143 131
3 55 58 81
3 55 81 58
3 55 102 119
3 55 119 102
3 56 72 76
3 56 76 72
3 57 71 77
3 57 77 71
3 58 81 125
3 58 125 81
3 58 116 125
3 58 125 116
3 59 79 110
3 59 110 79
3 59 79 113
3 59 113 79
3 59 80 111
3 59 111 80
3 59 80 114
3 59 114 80
3 59 98 111
3 59 111 98
3 59 98 117
3 59 117 98
3 59 99 110
3 59 110 99
3 59 99 118
3 59 118 99
3 59 100 112
3 59 112 100
3 59 100 117
3 59 117 100
3 59 101 112
3 59 112 101
3 59 101 118
3 59 118 101
3 59 110 135
3 59 135 110
3 59 111 134
3 59 134 111
3 59 112 138
3 59 138 112
3 59 112 139
3 59 139 112
3 59 113 114
3 59 114 113
3 59 117 134
3 59 134 117
3 59 117 138
3 59 138 117
3 59 118 135
3 59 135 118
3 59 118 139
3 59 139 118
3 60 69 82
3 60 82 69
3 60 71 82
3 60 82 71
3 61 70 83
3 61 83 70
3 61 72 83
3 61 83 72
3 62 65 140
3 62 140 65
3 62 78 140
3 62 140 78
3 62 78 141
3 62 141 78
3 63 84 89
3 63 89 84
3 63 86 89
3 63 89 86
3 64 85 90
3 64 90 85
3 64 86 90
3 64 90 86
3 67 68 123
3 67 123 68
3 67 68 133
3 67 133 68
3 67 81 124
3 67 124 81
3 67 81 132
3 67 132 81
3 67 115 124
3 67 124 115
3 67 115 126
3 67 126 115
3 67 122 123
3 67 123 122
3 67 122 126
3 67 126 122
3 67 132 133
3 67 133 132
3 68 81 125
3 68 125 81
3 68 81 133
3 68 133 81
3 68 116 125
3 68 125 116
3 68 116 127
3 68 127 116
3 68 123 127
3 68 127 123
3 69 75 100
3 69 100 75
3 69 82 100
3 69 100 82
3 70 75 101
3 70 101 75
3 70 83 101
3 70 101 83
3 71 77 98
3 71 98 77
3 71 82 98
3 71 98 82
3 72 76 99
3 72 99 76
3 72 83 99
3 72 99 83
3 75 100 112
3 75 112 100
3 75 101 112
3 75 112 101
3 76 99 110
3 76 110 99
3 77 98 111
3 77 111 98
3 78 105 142
3 78 142 105
3 78 106 143
3 78 143 106
3 78 107 108
3 78 108 107
3 78 107 142
3 78 142 107
3 78 108 143
3 78 143 108
3 79 80 109
3 79 109 80
3 79 80 114
3 79 114 80
3 79 113 114
3 79 114 113
3 81 132 133
3 81 133 132
3 82 98 117
3 82 117 98
3 82 100 117
3 82 117 100
3 83 99 118
3 83 118 99
3 83 101 118
3 83 118 101
3 84 89 120
3 84 120 89
3 84 94 120
3 84 120 94
3 85 90 121
3 85 121 90
3 85 95 121
3 85 121 95
3 86 87 88
3 86 88 87
3 86 87 89
3 86 89 87
3 86 88 90
3 86 90 88
3 87 88 137
3 87 137 88
3 87 89 128
3 87 128 89
3 87 136 137
3 87 137 136
3 88 90 129
3 88 129 90
3 89 120 128
3 89 128 120
3 90 121 129
3 90 129 121
3 92 93 123
3 92 123 93
3 92 96 103
3 92 103 96
3 92 96 126
3 92 126 96
3 92 122 123
3 92 123 122
3 92 122 126
3 92 126 122
3 93 97 104
3 93 104 97
3 93 97 127
3 93 127 97
3 93 123 127
3 93 127 123
3 94 105 130
3 94 130 105
3 94 120 130
3 94 130 120
3 95 106 131
3 95 131 106
3 95 121 131
3 95 131 121
3 96 115 126
3 96 126 115
3 97 116 127
3 97 127 116
3 98 111 134
3 98 134 111
3 98 117 134
3 98 134 117
3 99 110 135
3 99 135 110
3 99 118 135
3 99 135 118
3 100 112 138
3 100 138 112
3 100 117 138
3 100 138 117
3 101 112 139
3 101 139 112
3 101 118 139
3 101 139 118
3 102 109 119
3 102 119 109
3 105 130 142
3 105 142 130
3 106 131 143
3 106 143 131
