COFF
150 556 150

-6.69989 1.44374 7.71227 0.5 0.5 0.5 1
-6.69989 -1.44373 7.71227 0.5 0.5 0.5 1
-0.028849 -2.24399 7.54421 0.5 0.5 0.5 1
7.54465 -1.26874 7.77679 0.5 0.5 0.5 1
7.54465 1.26874 7.77679 0.5 0.5 0.5 1
-0.028849 2.24399 7.54421 0.5 0.5 0.5 1
1.17839 -1.84758 7.77338 0.5 0.5 0.5 1
1.17839 1.84758 7.77338 0.5 0.5 0.5 1
-1.1832 1.85734 7.71513 0.5 0.5 0.5 1
-1.1832 -1.85734 7.71513 0.5 0.5 0.5 1
2.04607 -1.4844 8.11394 0.5 0.5 0.5 1
2.04607 1.4844 8.11394 0.5 0.5 0.5 1
-2.05654 1.5167 8.06349 0.5 0.5 0.5 1
-2.05654 -1.5167 8.06349 0.5 0.5 0.5 1
3.05297 -1.46044 8.06323 0.5 0.5 0.5 1
3.05297 1.46044 8.06323 0.5 0.5 0.5 1
-3.04983 1.48244 7.95797 0.5 0.5 0.5 1
-3.04983 -1.48244 7.95797 0.5 0.5 0.5 1
4.05204 -1.42564 8.05444 0.5 0.5 0.5 1
4.05204 1.42564 8.05444 0.5 0.5 0.5 1
-4.04695 1.4257 8.00373 0.5 0.5 0.5 1
-4.04695 -1.4257 8.00373 0.5 0.5 0.5 1
5.03191 -1.69698 7.6263 0.5 0.5 0.5 1
5.03191 1.69698 7.6263 0.5 0.5 0.5 1
6.13929 -1.60961 7.65386 0.5 0.5 0.5 1
6.13929 1.60961 7.65386 0.5 0.5 0.5 1
-4.98899 1.6802 7.58196 0.5 0.5 0.5 1
-4.98899 -1.6802 7.58196 0.5 0.5 0.5 1
-8.52235 0.000290635 7.57275 0.5 0.5 0.5 1
8.81482 3.54103e-08 7.8034 0.5 0.5 0.5 1
-7.79017 0.732618 7.65859 0.5 0.5 0.5 1
-7.78965 -0.732763 7.65926 0.5 0.5 0.5 1
1.33798 1.8022 6.54383 0.5 0.5 0.5 1
-2.58258 1.49772 6.78001 0.5 0.5 0.5 1
-2.58258 -1.49772 6.78001 0.5 0.5 0.5 1
0.0237822 -1.9574 6.11335 0.5 0.5 0.5 1
0.0237836 1.95736 6.11335 0.5 0.5 0.5 1
2.59492 1.44919 6.8322 0.5 0.5 0.5 1
4.11311 -1.44614 6.99321 0.5 0.5 0.5 1
-1.14617 -1.78563 5.67434 0.5 0.5 0.5 1
-1.14617 1.78563 5.67434 0.5 0.5 0.5 1
-1.81918 -0.815643 3.69818 0.5 0.5 0.5 1
-1.81918 0.815643 3.69818 0.5 0.5 0.5 1
1.205 1.74989 5.28717 0.5 0.5 0.5 1
1.205 -1.74989 5.28717 0.5 0.5 0.5 1
4.11311 1.44614 6.99321 0.5 0.5 0.5 1
-4.08015 1.43343 6.95241 0.5 0.5 0.5 1
2.56554 -1.49259e-07 5.65319 0.5 0.5 0.5 1
1.70154 1.32309 4.80387 0.5 0.5 0.5 1
1.70154 -1.32309 4.80387 0.5 0.5 0.5 1
0.125198 1.83248 4.92461 0.5 0.5 0.5 1
0.125205 -1.83251 4.92461 0.5 0.5 0.5 1
1.99269 -1.78444e-07 4.38188 0.5 0.5 0.5 1
5.27045 -0.750976 3.97172 1 1 0 1
5.27045 0.750976 3.97172 1 1 0 1
-3.30244 3.71196e-07 5.99769 0.5 0.5 0.5 1
-0.987774 -1.60208 4.50298 0.5 0.5 0.5 1
-0.987773 1.60208 4.50298 0.5 0.5 0.5 1
-4.08015 -1.43343 6.95241 0.5 0.5 0.5 1
0.160943 -8.85173e-08 1.03911 1 1 0 1
1.08359 1.60778 4.17517 0.5 0.5 0.5 1
1.08357 -1.60794 4.17517 0.5 0.5 0.5 1
3.12942 -3.93836e-07 5.8286 0.5 0.5 0.5 1
6.82518 -1.40528 7.12156 0.5 0.5 0.5 1
6.82518 1.40528 7.12156 0.5 0.5 0.5 1
2.59492 -1.44919 6.8322 0.5 0.5 0.5 1
1.8582 1.60944 5.87331 0.5 0.5 0.5 1
-5.08685 0.816043 4.56576 1 1 0 1
-5.08685 -0.81604 4.56576 1 1 0 1
1.50479 1.11272 3.69803 0.5 0.5 0.5 1
1.50464 -1.11275 3.69803 0.5 0.5 0.5 1
0.194209 1.68093 3.79538 0.5 0.5 0.5 1
0.19422 -1.6808 3.79538 0.5 0.5 0.5 1
1.8582 -1.60944 5.87331 0.5 0.5 0.5 1
-1.29943 1.83401 6.70996 0.5 0.5 0.5 1
1.67615 -1.71006e-05 3.33828 1 1 1 1
-0.779419 -1.37431 3.32103 1 1 1 1
-0.77942 1.37431 3.32103 1 1 1 1
4.14601 1.7886e-07 6.6928 0.5 0.5 0.5 1
-1.97785 -0.456081 2.80052 1 1 1 1
-1.97785 0.456081 2.80052 1 1 1 1
-4.0849 2.88659e-06 6.62409 0.5 0.5 0.5 1
0.96884 1.44023 3.11473 1 1 1 1
0.968892 -1.44044 3.11473 1 1 1 1
6.05695 -1.51791 6.50517 0.5 0.5 0.5 1
6.05695 1.51791 6.50517 0.5 0.5 0.5 1
7.44496 1.09287e-07 6.72739 0.5 0.5 0.5 1
6.92609 -0.706886 5.61175 0.5 0.5 0.5 1
6.92609 0.706886 5.61175 0.5 0.5 0.5 1
6.63257 -1.12653 6.08288 0.5 0.5 0.5 1
6.63247 1.1265 6.08288 0.5 0.5 0.5 1
-1.29943 -1.83401 6.70996 0.5 0.5 0.5 1
-7.14161 0.736759 6.31996 0.5 0.5 0.5 1
-7.14078 -0.743934 6.32066 0.5 0.5 0.5 1
5.19305 -1.54788 6.36117 0.5 0.5 0.5 1
5.19305 1.54806 6.36117 0.5 0.5 0.5 1
-6.58416 1.19715 6.78134 0.5 0.5 0.5 1
-6.58416 -1.19714 6.78134 0.5 0.5 0.5 1
0.228222 1.49757 2.78014 1 1 1 1
0.228217 -1.49778 2.78014 1 1 1 1
1.3126 0.974437 2.73013 1 1 1 1
1.31254 -0.97453 2.73013 1 1 1 1
-2.27264 1.09828 5.26948 0.5 0.5 0.5 1
-7.45271 0.720897 7.07327 0.5 0.5 0.5 1
-7.45281 -0.720605 7.07323 0.5 0.5 0.5 1
4.58674 -1.13009 6.11895 0.5 0.5 0.5 1
4.58673 1.12994 6.11895 0.5 0.5 0.5 1
4.06015 -0.367657 5.12803 0.5 0.5 0.5 1
4.06011 0.367632 5.128 0.5 0.5 0.5 1
-2.36035 1.49679e-07 3.9027 0.5 0.5 0.5 1
-0.875586 -1.11277 2.56619 1 1 1 1
-0.875585 1.11277 2.56619 1 1 1 1
1.44168 -3.54378e-05 2.44116 1 1 1 1
-1.55765 -0.430529 1.70721 1 1 1 1
-1.55765 0.430529 1.70721 1 1 1 1
-5.08407 1.45652 6.40408 0.5 0.5 0.5 1
-5.08406 -1.4563 6.40409 0.5 0.5 0.5 1
0.85476 1.27755 2.20624 1 1 1 1
0.854774 -1.27754 2.20624 1 1 1 1
-2.62455 1.7676e-07 5.10378 0.5 0.5 0.5 1
5.91737 -1.38835 5.48062 0.5 0.5 0.5 1
5.91737 1.38835 5.48063 0.5 0.5 0.5 1
-6.38218 0.958938 5.4453 0.5 0.5 0.5 1
-6.38215 -0.958975 5.4453 0.5 0.5 0.5 1
-4.51489 1.09141 6.17364 0.5 0.5 0.5 1
-4.51463 -1.09168 6.17367 0.5 0.5 0.5 1
-6.25329 1.0833 5.79754 0.5 0.5 0.5 1
-6.25327 -1.08334 5.79754 0.5 0.5 0.5 1
6.29275 -1.22774 5.26123 0.5 0.5 0.5 1
6.29275 1.22774 5.26124 0.5 0.5 0.5 1
5.28375 -1.33231 5.33202 0.5 0.5 0.5 1
5.28375 1.33231 5.33202 0.5 0.5 0.5 1
-4.25255 0.401607 5.39352 0.5 0.5 0.5 1
-4.25255 -0.401587 5.39353 0.5 0.5 0.5 1
0.129785 1.20496 1.94575 1 1 1 1
0.129786 -1.20496 1.94575 1 1 1 1
6.61551 -0.730553 4.57126 0.5 0.5 0.5 1
6.61552 0.730558 4.57126 0.5 0.5 0.5 1
1.12947 0.712934 1.9273 1 1 1 1
1.12947 -0.712934 1.9273 1 1 1 1
3.65335 -0.85088 6.45319 0.5 0.5 0.5 1
3.65335 0.850879 6.45319 0.5 0.5 0.5 1
4.75765 -0.91339 5.11273 0.5 0.5 0.5 1
4.75766 0.913417 5.11273 0.5 0.5 0.5 1
-0.330763 -0.763404 1.78084 1 1 1 1
-0.330763 0.763404 1.78084 1 1 1 1
-2.27264 -1.09828 5.26948 0.5 0.5 0.5 1
1.33798 -1.8022 6.54383 0.5 0.5 0.5 1
-7.82304 -0.364859 6.93903 0.5 0.5 0.5 1
-7.82476 0.376003 6.94128 0.5 0.5 0.5 1

3 0 26 96
3 0 96 26
3 0 30 103
3 0 103 30
3 0 96 103
3 0 103 96
3 1 27 97
3 1 97 27
3 1 31 104
3 1 104 31
3 1 97 104
3 1 104 97
3 2 6 147
3 2 147 6
3 2 9 91
3 2 91 9
3 2 35 91
3 2 91 35
3 2 35 147
3 2 147 35
3 3 24 63
3 3 63 24
3 3 29 86
3 3 86 29
3 3 63 86
3 3 86 63
3 4 25 64
3 4 64 25
3 4 29 86
3 4 86 29
3 4 64 86
3 4 86 64
3 5 7 32
3 5 32 7
3 5 8 74
3 5 74 8
3 5 32 36
3 5 36 32
3 5 36 74
3 5 74 36
3 6 10 65
3 6 65 10
3 6 65 147
3 6 147 65
3 7 11 37
3 7 37 11
3 7 32 37
3 7 37 32
3 8 12 33
3 8 33 12
3 8 33 74
3 8 74 33
3 9 13 34
3 9 34 13
3 9 34 91
3 9 91 34
3 10 14 65
3 10 65 14
3 11 15 37
3 11 37 15
3 12 16 33
3 12 33 16
3 13 17 34
3 13 34 17
3 14 18 38
3 14 38 18
3 14 38 65
3 14 65 38
3 15 19 45
3 15 45 19
3 15 37 45
3 15 45 37
3 16 20 46
3 16 46 20
3 16 33 46
3 16 46 33
3 17 21 58
3 17 58 21
3 17 34 58
3 17 58 34
3 18 22 38
3 18 38 22
3 19 23 45
3 19 45 23
3 20 26 46
3 20 46 26
3 21 27 58
3 21 58 27
3 22 24 84
3 22 84 24
3 22 38 94
3 22 94 38
3 22 84 94
3 22 94 84
3 23 25 85
3 23 85 25
3 23 45 95
3 23 95 45
3 23 85 95
3 23 95 85
3 24 63 84
3 24 84 63
3 25 64 85
3 25 85 64
3 26 46 115
3 26 115 46
3 26 96 115
3 26 115 96
3 27 58 116
3 27 116 58
3 27 97 116
3 27 116 97
3 28 30 103
3 28 103 30
3 28 31 104
3 28 104 31
3 28 92 103
3 28 103 92
3 28 92 148
3 28 148 92
3 28 103 149
3 28 149 103
3 28 104 148
3 28 148 104
3 28 148 149
3 28 149 148
3 32 36 43
3 32 43 36
3 32 37 66
3 32 66 37
3 32 43 66
3 32 66 43
3 33 40 74
3 33 74 40
3 33 40 102
3 33 102 40
3 33 46 55
3 33 55 46
3 33 55 102
3 33 102 55
3 34 39 91
3 34 91 39
3 34 39 146
3 34 146 39
3 34 55 58
3 34 58 55
3 34 55 146
3 34 146 55
3 35 39 51
3 35 51 39
3 35 39 91
3 35 91 39
3 35 44 51
3 35 51 44
3 35 44 147
3 35 147 44
3 36 40 50
3 36 50 40
3 36 40 74
3 36 74 40
3 36 43 50
3 36 50 43
3 37 45 78
3 37 78 45
3 37 45 141
3 37 141 45
3 37 47 62
3 37 62 47
3 37 47 66
3 37 66 47
3 37 62 78
3 37 78 62
3 37 62 141
3 37 141 62
3 38 62 65
3 38 65 62
3 38 62 78
3 38 78 62
3 38 65 140
3 38 140 65
3 38 78 105
3 38 105 78
3 38 78 140
3 38 140 78
3 38 94 105
3 38 105 94
3 39 51 56
3 39 56 51
3 39 56 146
3 39 146 56
3 40 50 57
3 40 57 50
3 40 57 102
3 40 102 57
3 41 56 76
3 41 76 56
3 41 56 146
3 41 146 56
3 41 76 110
3 41 110 76
3 41 79 109
3 41 109 79
3 41 79 110
3 41 110 79
3 41 109 146
3 41 146 109
3 42 57 77
3 42 77 57
3 42 57 102
3 42 102 57
3 42 77 111
3 42 111 77
3 42 80 109
3 42 109 80
3 42 80 111
3 42 111 80
3 42 102 109
3 42 109 102
3 43 48 60
3 43 60 48
3 43 48 66
3 43 66 48
3 43 50 60
3 43 60 50
3 44 49 61
3 44 61 49
3 44 49 73
3 44 73 49
3 44 51 61
3 44 61 51
3 44 73 147
3 44 147 73
3 45 78 106
3 45 106 78
3 45 78 141
3 45 141 78
3 45 95 106
3 45 106 95
3 46 55 81
3 46 81 55
3 46 81 124
3 46 124 81
3 46 115 124
3 46 124 115
3 47 48 52
3 47 52 48
3 47 48 66
3 47 66 48
3 47 49 52
3 47 52 49
3 47 49 73
3 47 73 49
3 47 62 65
3 47 65 62
3 47 65 73
3 47 73 65
3 48 52 69
3 48 69 52
3 48 60 69
3 48 69 60
3 49 52 70
3 49 70 52
3 49 61 70
3 49 70 61
3 50 57 71
3 50 71 57
3 50 60 71
3 50 71 60
3 51 56 72
3 51 72 56
3 51 61 72
3 51 72 61
3 52 69 75
3 52 75 69
3 52 70 75
3 52 75 70
3 53 54 108
3 53 108 54
3 53 54 137
3 53 137 54
3 53 87 128
3 53 128 87
3 53 87 136
3 53 136 87
3 53 107 108
3 53 108 107
3 53 107 142
3 53 142 107
3 53 120 128
3 53 128 120
3 53 120 130
3 53 130 120
3 53 130 142
3 53 142 130
3 53 136 137
3 53 137 136
3 54 88 129
3 54 129 88
3 54 88 137
3 54 137 88
3 54 108 143
3 54 143 108
3 54 121 129
3 54 129 121
3 54 121 131
3 54 131 121
3 54 131 143
3 54 143 131
3 55 58 81
3 55 81 58
3 55 102 109
3 55 109 102
3 55 102 119
3 55 119 102
3 55 109 146
3 55 146 109
3 55 119 146
3 55 146 119
3 56 72 76
3 56 76 72
3 57 71 77
3 57 77 71
3 58 81 125
3 58 125 81
3 58 116 125
3 58 125 116
3 59 100 112
3 59 112 100
3 59 100 117
3 59 117 100
3 59 101 112
3 59 112 101
3 59 101 118
3 59 118 101
3 59 112 138
3 59 138 112
3 59 112 139
3 59 139 112
3 59 113 114
3 59 114 113
3 59 113 144
3 59 144 113
3 59 114 145
3 59 145 114
3 59 117 134
3 59 134 117
3 59 117 138
3 59 138 117
3 59 118 135
3 59 135 118
3 59 118 139
3 59 139 118
3 59 134 145
3 59 145 134
3 59 135 144
3 59 144 135
3 60 69 82
3 60 82 69
3 60 71 82
3 60 82 71
3 61 70 83
3 61 83 70
3 61 72 83
3 61 83 72
3 62 65 140
3 62 140 65
3 62 78 140
3 62 140 78
3 62 78 141
3 62 141 78
3 63 84 89
3 63 89 84
3 63 86 89
3 63 89 86
3 64 85 90
3 64 90 85
3 64 86 90
3 64 90 86
3 65 73 147
3 65 147 73
3 67 68 123
3 67 123 68
3 67 68 133
3 67 133 68
3 67 81 124
3 67 124 81
3 67 81 132
3 67 132 81
3 67 115 124
3 67 124 115
3 67 115 126
3 67 126 115
3 67 122 123
3 67 123 122
3 67 122 126
3 67 126 122
3 67 132 133
3 67 133 132
3 68 81 125
3 68 125 81
3 68 81 133
3 68 133 81
3 68 116 125
3 68 125 116
3 68 116 127
3 68 127 116
3 68 123 127
3 68 127 123
3 69 75 100
3 69 100 75
3 69 82 100
3 69 100 82
3 70 75 101
3 70 101 75
3 70 83 101
3 70 101 83
3 71 77 98
3 71 98 77
3 71 82 98
3 71 98 82
3 72 76 99
3 72 99 76
3 72 83 99
3 72 99 83
3 75 100 112
3 75 112 100
3 75 101 112
3 75 112 101
3 76 99 110
3 76 110 99
3 77 98 111
3 77 111 98
3 78 105 142
3 78 142 105
3 78 106 143
3 78 143 106
3 78 107 108
3 78 108 107
3 78 107 142
3 78 142 107
3 78 108 143
3 78 143 108
3 79 80 109
3 79 109 80
3 79 80 114
3 79 114 80
3 79 110 144
3 79 144 110
3 79 113 114
3 79 114 113
3 79 113 144
3 79 144 113
3 80 111 145
3 80 145 111
3 80 114 145
3 80 145 114
3 81 132 133
3 81 133 132
3 82 98 117
3 82 117 98
3 82 100 117
3 82 117 100
3 83 99 118
3 83 118 99
3 83 101 118
3 83 118 101
3 84 89 120
3 84 120 89
3 84 94 120
3 84 120 94
3 85 90 121
3 85 121 90
3 85 95 121
3 85 121 95
3 86 87 88
3 86 88 87
3 86 87 89
3 86 89 87
3 86 88 90
3 86 90 88
3 87 88 137
3 87 137 88
3 87 89 128
3 87 128 89
3 87 136 137
3 87 137 136
3 88 90 129
3 88 129 90
3 89 120 128
3 89 128 120
3 90 121 129
3 90 129 121
3 92 93 123
3 92 123 93
3 92 93 148
3 92 148 93
3 92 96 103
3 92 103 96
3 92 96 126
3 92 126 96
3 92 103 149
3 92 149 103
3 92 122 123
3 92 123 122
3 92 122 126
3 92 126 122
3 92 148 149
3 92 149 148
3 93 97 104
3 93 104 97
3 93 97 127
3 93 127 97
3 93 104 148
3 93 148 104
3 93 123 127
3 93 127 123
3 94 105 130
3 94 130 105
3 94 120 130
3 94 130 120
3 95 106 131
3 95 131 106
3 95 121 131
3 95 131 121
3 96 115 126
3 96 126 115
3 97 116 127
3 97 127 116
3 98 111 134
3 98 134 111
3 98 117 134
3 98 134 117
3 99 110 135
3 99 135 110
3 99 118 135
3 99 135 118
3 100 112 138
3 100 138 112
3 100 117 138
3 100 138 117
3 101 112 139
3 101 139 112
3 101 118 139
3 101 139 118
3 102 109 119
3 102 119 109
3 105 130 142
3 105 142 130
3 106 131 143
3 106 143 131
3 109 119 146
3 109 146 119
3 110 135 144
3 110 144 135
3 111 134 145
3 111 145 134
