COFF
150 556 150

-6.69989 1.44373 7.71227 0.5 0.5 0.5 1
-6.69989 -1.44374 7.71227 0.5 0.5 0.5 1
-0.028849 -2.24399 7.54421 0.5 0.5 0.5 1
7.54465 -1.26874 7.77679 0.5 0.5 0.5 1
7.54465 1.26874 7.77679 0.5 0.5 0.5 1
-0.028849 2.24399 7.54421 0.5 0.5 0.5 1
1.17839 -1.84758 7.77338 0.5 0.5 0.5 1
1.17839 1.84758 7.77338 0.5 0.5 0.5 1
-1.1832 1.85734 7.71513 0.5 0.5 0.5 1
-1.1832 -1.85734 7.71513 0.5 0.5 0.5 1
2.04607 -1.4844 8.11394 0.5 0.5 0.5 1
2.04607 1.4844 8.11394 0.5 0.5 0.5 1
-2.05654 1.5167 8.06349 0.5 0.5 0.5 1
-2.05654 -1.5167 8.06349 0.5 0.5 0.5 1
3.05297 -1.46044 8.06323 0.5 0.5 0.5 1
3.05297 1.46044 8.06323 0.5 0.5 0.5 1
-3.04983 1.48243 7.95797 0.5 0.5 0.5 1
-3.04983 -1.48243 7.95797 0.5 0.5 0.5 1
4.05204 -1.42564 8.05444 0.5 0.5 0.5 1
4.05204 1.42564 8.05444 0.5 0.5 0.5 1
-4.04695 1.4257 8.00373 0.5 0.5 0.5 1
-4.04695 -1.4257 8.00373 0.5 0.5 0.5 1
5.03191 -1.69698 7.6263 0.5 0.5 0.5 1
5.03191 1.69698 7.6263 0.5 0.5 0.5 1
6.13929 -1.60961 7.65386 0.5 0.5 0.5 1
6.13929 1.60961 7.65386 0.5 0.5 0.5 1
-4.98899 1.6802 7.58196 0.5 0.5 0.5 1
-4.98899 -1.6802 7.58196 0.5 0.5 0.5 1
-8.52235 -0.00029062 7.57275 0.5 0.5 0.5 1
8.81482 -2.67094e-08 7.8034 0.5 0.5 0.5 1
-7.78966 0.732763 7.65926 0.5 0.5 0.5 1
-7.79018 -0.732619 7.65859 0.5 0.5 0.5 1
1.33798 1.8022 6.54383 0.5 0.5 0.5 1
-2.58258 1.49772 6.78001 0.5 0.5 0.5 1
-2.58258 -1.49772 6.78001 0.5 0.5 0.5 1
0.0237834 -1.95738 6.11334 0.5 0.5 0.5 1
0.0237767 1.95736 6.11334 0.5 0.5 0.5 1
2.59492 1.44919 6.8322 0.5 0.5 0.5 1
4.11311 -1.44614 6.99321 0.5 0.5 0.5 1
-1.14616 -1.78562 5.67435 0.5 0.5 0.5 1
-1.14616 1.78562 5.67434 0.5 0.5 0.5 1
-1.81916 -0.815647 3.69818 0.5 0.5 0.5 1
-1.81916 0.815652 3.69818 0.5 0.5 0.5 1
1.205 1.74989 5.28717 0.5 0.5 0.5 1
1.205 -1.74989 5.28717 0.5 0.5 0.5 1
4.11311 1.44614 6.99321 0.5 0.5 0.5 1
-4.08014 1.43343 6.95242 0.5 0.5 0.5 1
2.56554 -2.84575e-07 5.65319 0.5 0.5 0.5 1
1.70154 1.32309 4.80387 0.5 0.5 0.5 1
1.70154 -1.32309 4.80387 0.5 0.5 0.5 1
0.125236 1.83247 4.92459 0.5 0.5 0.5 1
0.125205 -1.83249 4.92459 0.5 0.5 0.5 1
1.99269 -2.10976e-07 4.38188 0.5 0.5 0.5 1
5.27045 -0.750977 3.97172 1 1 0 1
5.27045 0.750976 3.97172 1 1 0 1
-3.30234 5.23013e-07 5.99778 0.5 0.5 0.5 1
-0.987768 -1.60207 4.50298 0.5 0.5 0.5 1
-0.987766 1.60207 4.50298 0.5 0.5 0.5 1
-4.08014 -1.43343 6.95242 0.5 0.5 0.5 1
0.160946 -5.90081e-08 1.03911 1 1 0 1
1.08358 1.6078 4.17517 0.5 0.5 0.5 1
1.08365 -1.60784 4.17517 0.5 0.5 0.5 1
3.12942 -7.21439e-07 5.8286 0.5 0.5 0.5 1
6.82518 -1.40528 7.12156 0.5 0.5 0.5 1
6.82518 1.40528 7.12156 0.5 0.5 0.5 1
2.59492 -1.44919 6.8322 0.5 0.5 0.5 1
1.8582 1.60944 5.8733 0.5 0.5 0.5 1
-5.08686 0.816041 4.56576 1 1 0 1
-5.08686 -0.816042 4.56576 1 1 0 1
1.50466 1.1125 3.69802 0.5 0.5 0.5 1
1.50474 -1.11276 3.69802 0.5 0.5 0.5 1
0.194151 1.6808 3.79538 0.5 0.5 0.5 1
0.194217 -1.68083 3.79538 0.5 0.5 0.5 1
1.85819 -1.60944 5.8733 0.5 0.5 0.5 1
-1.29943 1.83401 6.70996 0.5 0.5 0.5 1
1.67627 -2.16299e-06 3.33828 1 1 1 1
-0.779395 -1.37431 3.32104 1 1 1 1
-0.779394 1.37432 3.32104 1 1 1 1
4.14601 3.80607e-08 6.6928 0.5 0.5 0.5 1
-1.97784 -0.456075 2.80052 1 1 1 1
-1.97784 0.456079 2.80052 1 1 1 1
-4.08488 -9.93658e-07 6.62409 0.5 0.5 0.5 1
0.968761 1.44024 3.11473 1 1 1 1
0.968714 -1.44025 3.11473 1 1 1 1
6.05695 -1.51791 6.50517 0.5 0.5 0.5 1
6.05695 1.51791 6.50517 0.5 0.5 0.5 1
7.44496 -5.64643e-08 6.72739 0.5 0.5 0.5 1
6.92609 -0.706884 5.61175 0.5 0.5 0.5 1
6.92608 0.706886 5.61175 0.5 0.5 0.5 1
6.63257 -1.12653 6.08288 0.5 0.5 0.5 1
6.63247 1.1265 6.08288 0.5 0.5 0.5 1
-1.29943 -1.83401 6.70996 0.5 0.5 0.5 1
-7.14078 0.743933 6.32066 0.5 0.5 0.5 1
-7.14161 -0.736759 6.31996 0.5 0.5 0.5 1
5.19303 -1.54802 6.3612 0.5 0.5 0.5 1
5.19309 1.54813 6.36117 0.5 0.5 0.5 1
-6.58416 1.19715 6.78134 0.5 0.5 0.5 1
-6.58416 -1.19715 6.78134 0.5 0.5 0.5 1
0.228348 1.49774 2.78015 1 1 1 1
0.228195 -1.4976 2.78015 1 1 1 1
1.31266 0.974481 2.73012 1 1 1 1
1.31268 -0.974485 2.73012 1 1 1 1
-2.2726 1.09827 5.26948 0.5 0.5 0.5 1
-7.45281 0.720605 7.07323 0.5 0.5 0.5 1
-7.45271 -0.720898 7.07327 0.5 0.5 0.5 1
4.58667 -1.13 6.11895 0.5 0.5 0.5 1
4.5866 1.13003 6.11895 0.5 0.5 0.5 1
4.06014 -0.367645 5.12803 0.5 0.5 0.5 1
4.06011 0.367644 5.12801 0.5 0.5 0.5 1
-2.36033 2.61324e-06 3.90266 0.5 0.5 0.5 1
-0.875578 -1.11277 2.5662 1 1 1 1
-0.875577 1.11277 2.5662 1 1 1 1
1.44185 -1.96288e-05 2.44115 1 1 1 1
-1.55765 -0.430528 1.7072 1 1 1 1
-1.55765 0.430529 1.7072 1 1 1 1
-5.08399 1.45674 6.40409 0.5 0.5 0.5 1
-5.08406 -1.45638 6.40409 0.5 0.5 0.5 1
0.854774 1.27752 2.20624 1 1 1 1
0.854771 -1.27753 2.20624 1 1 1 1
-2.62447 -1.3298e-06 5.10388 0.5 0.5 0.5 1
5.91737 -1.38834 5.48062 0.5 0.5 0.5 1
5.91737 1.38835 5.48062 0.5 0.5 0.5 1
-6.38217 0.958975 5.44529 0.5 0.5 0.5 1
-6.38218 -0.958939 5.4453 0.5 0.5 0.5 1
-4.51486 1.09171 6.1738 0.5 0.5 0.5 1
-4.51453 -1.09154 6.17379 0.5 0.5 0.5 1
-6.25329 1.08334 5.79753 0.5 0.5 0.5 1
-6.25329 -1.08331 5.79753 0.5 0.5 0.5 1
6.29275 -1.22774 5.26123 0.5 0.5 0.5 1
6.29274 1.22773 5.26124 0.5 0.5 0.5 1
5.28375 -1.3323 5.33203 0.5 0.5 0.5 1
5.28374 1.3323 5.33202 0.5 0.5 0.5 1
-4.25232 0.401595 5.39342 0.5 0.5 0.5 1
-4.25232 -0.4016 5.39341 0.5 0.5 0.5 1
0.129795 1.20496 1.94576 1 1 1 1
0.129796 -1.20496 1.94576 1 1 1 1
6.61551 -0.73055 4.57126 0.5 0.5 0.5 1
6.61553 0.730563 4.57126 0.5 0.5 0.5 1
1.12947 0.71293 1.9273 1 1 1 1
1.12948 -0.712934 1.9273 1 1 1 1
3.65335 -0.850879 6.45319 0.5 0.5 0.5 1
3.65335 0.85088 6.45319 0.5 0.5 0.5 1
4.75763 -0.913428 5.1127 0.5 0.5 0.5 1
4.75764 0.913437 5.11274 0.5 0.5 0.5 1
-0.33076 -0.763405 1.78085 1 1 1 1
-0.330759 0.763405 1.78085 1 1 1 1
-2.27261 -1.09826 5.26948 0.5 0.5 0.5 1
1.33798 -1.8022 6.54383 0.5 0.5 0.5 1
-7.82304 0.364859 6.93903 0.5 0.5 0.5 1
-7.82476 -0.376004 6.94128 0.5 0.5 0.5 1

3 0 26 96
3 0 96 26
3 0 30 103
3 0 103 30
3 0 96 103
3 0 103 96
3 1 27 97
3 1 97 27
3 1 31 104
3 1 104 31
3 1 97 104
3 1 104 97
3 2 6 147
3 2 147 6
3 2 9 91
3 2 91 9
3 2 35 91
3 2 91 35
3 2 35 147
3 2 147 35
3 3 24 63
3 3 63 24
3 3 29 86
3 3 86 29
3 3 63 86
3 3 86 63
3 4 25 64
3 4 64 25
3 4 29 86
3 4 86 29
3 4 64 86
3 4 86 64
3 5 7 32
3 5 32 7
3 5 8 74
3 5 74 8
3 5 32 36
3 5 36 32
3 5 36 74
3 5 74 36
3 6 10 65
3 6 65 10
3 6 65 147
3 6 147 65
3 7 11 37
3 7 37 11
3 7 32 37
3 7 37 32
3 8 12 33
3 8 33 12
3 8 33 74
3 8 74 33
3 9 13 34
3 9 34 13
3 9 34 91
3 9 91 34
3 10 14 65
3 10 65 14
3 11 15 37
3 11 37 15
3 12 16 33
3 12 33 16
3 13 17 34
3 13 34 17
3 14 18 38
3 14 38 18
3 14 38 65
3 14 65 38
3 15 19 45
3 15 45 19
3 15 37 45
3 15 45 37
3 16 20 46
3 16 46 20
3 16 33 46
3 16 46 33
3 17 21 58
3 17 58 21
3 17 34 58
3 17 58 34
3 18 22 38
3 18 38 22
3 19 23 45
3 19 45 23
3 20 26 46
3 20 46 26
3 21 27 58
3 21 58 27
3 22 24 84
3 22 84 24
3 22 38 94
3 22 94 38
3 22 84 94
3 22 94 84
3 23 25 85
3 23 85 25
3 23 45 95
3 23 95 45
3 23 85 95
3 23 95 85
3 24 63 84
3 24 84 63
3 25 64 85
3 25 85 64
3 26 46 115
3 26 115 46
3 26 96 115
3 26 115 96
3 27 58 116
3 27 116 58
3 27 97 116
3 27 116 97
3 28 30 103
3 28 103 30
3 28 31 104
3 28 104 31
3 28 93 104
3 28 104 93
3 28 93 148
3 28 148 93
3 28 103 148
3 28 148 103
3 28 104 149
3 28 149 104
3 28 148 149
3 28 149 148
3 32 36 43
3 32 43 36
3 32 37 66
3 32 66 37
3 32 43 66
3 32 66 43
3 33 40 74
3 33 74 40
3 33 40 102
3 33 102 40
3 33 46 55
3 33 55 46
3 33 55 102
3 33 102 55
3 34 39 91
3 34 91 39
3 34 39 146
3 34 146 39
3 34 55 58
3 34 58 55
3 34 55 146
3 34 146 55
3 35 39 51
3 35 51 39
3 35 39 91
3 35 91 39
3 35 44 51
3 35 51 44
3 35 44 147
3 35 147 44
3 36 40 50
3 36 50 40
3 36 40 74
3 36 74 40
3 36 43 50
3 36 50 43
3 37 45 78
3 37 78 45
3 37 45 141
3 37 141 45
3 37 47 62
3 37 62 47
3 37 47 66
3 37 66 47
3 37 62 78
3 37 78 62
3 37 62 141
3 37 141 62
3 38 62 65
3 38 65 62
3 38 62 78
3 38 78 62
3 38 65 140
3 38 140 65
3 38 78 105
3 38 105 78
3 38 78 140
3 38 140 78
3 38 94 105
3 38 105 94
3 39 51 56
3 39 56 51
3 39 56 146
3 39 146 56
3 40 50 57
3 40 57 50
3 40 57 102
3 40 102 57
3 41 56 76
3 41 76 56
3 41 56 146
3 41 146 56
3 41 76 110
3 41 110 76
3 41 79 109
3 41 109 79
3 41 79 110
3 41 110 79
3 41 109 146
3 41 146 109
3 42 57 77
3 42 77 57
3 42 57 102
3 42 102 57
3 42 77 111
3 42 111 77
3 42 80 109
3 42 109 80
3 42 80 111
3 42 111 80
3 42 102 109
3 42 109 102
3 43 48 60
3 43 60 48
3 43 48 66
3 43 66 48
3 43 50 60
3 43 60 50
3 44 49 61
3 44 61 49
3 44 49 73
3 44 73 49
3 44 51 61
3 44 61 51
3 44 73 147
3 44 147 73
3 45 78 106
3 45 106 78
3 45 78 141
3 45 141 78
3 45 95 106
3 45 106 95
3 46 55 81
3 46 81 55
3 46 81 124
3 46 124 81
3 46 115 124
3 46 124 115
3 47 48 52
3 47 52 48
3 47 48 66
3 47 66 48
3 47 49 52
3 47 52 49
3 47 49 73
3 47 73 49
3 47 62 65
3 47 65 62
3 47 65 73
3 47 73 65
3 48 52 69
3 48 69 52
3 48 60 69
3 48 69 60
3 49 52 70
3 49 70 52
3 49 61 70
3 49 70 61
3 50 57 71
3 50 71 57
3 50 60 71
3 50 71 60
3 51 56 72
3 51 72 56
3 51 61 72
3 51 72 61
3 52 69 75
3 52 75 69
3 52 70 75
3 52 75 70
3 53 54 108
3 53 108 54
3 53 54 137
3 53 137 54
3 53 87 128
3 53 128 87
3 53 87 136
3 53 136 87
3 53 107 108
3 53 108 107
3 53 107 142
3 53 142 107
3 53 120 128
3 53 128 120
3 53 120 130
3 53 130 120
3 53 130 142
3 53 142 130
3 53 136 137
3 53 137 136
3 54 88 129
3 54 129 88
3 54 88 137
3 54 137 88
3 54 108 143
3 54 143 108
3 54 121 129
3 54 129 121
3 54 121 131
3 54 131 121
3 54 131 143
3 54 143 131
3 55 58 81
3 55 81 58
3 55 102 109
3 55 109 102
3 55 102 119
3 55 119 102
3 55 109 146
3 55 146 109
3 55 119 146
3 55 146 119
3 56 72 76
3 56 76 72
3 57 71 77
3 57 77 71
3 58 81 125
3 58 125 81
3 58 116 125
3 58 125 116
3 59 100 112
3 59 112 100
3 59 100 117
3 59 117 100
3 59 101 112
3 59 112 101
3 59 101 118
3 59 118 101
3 59 112 138
3 59 138 112
3 59 112 139
3 59 139 112
3 59 113 114
3 59 114 113
3 59 113 144
3 59 144 113
3 59 114 145
3 59 145 114
3 59 117 134
3 59 134 117
3 59 117 138
3 59 138 117
3 59 118 135
3 59 135 118
3 59 118 139
3 59 139 118
3 59 134 145
3 59 145 134
3 59 135 144
3 59 144 135
3 60 69 82
3 60 82 69
3 60 71 82
3 60 82 71
3 61 70 83
3 61 83 70
3 61 72 83
3 61 83 72
3 62 65 140
3 62 140 65
3 62 78 140
3 62 140 78
3 62 78 141
3 62 141 78
3 63 84 89
3 63 89 84
3 63 86 89
3 63 89 86
3 64 85 90
3 64 90 85
3 64 86 90
3 64 90 86
3 65 73 147
3 65 147 73
3 67 68 123
3 67 123 68
3 67 68 133
3 67 133 68
3 67 81 124
3 67 124 81
3 67 81 132
3 67 132 81
3 67 115 124
3 67 124 115
3 67 115 126
3 67 126 115
3 67 122 123
3 67 123 122
3 67 122 126
3 67 126 122
3 67 132 133
3 67 133 132
3 68 81 125
3 68 125 81
3 68 81 133
3 68 133 81
3 68 116 125
3 68 125 116
3 68 116 127
3 68 127 116
3 68 123 127
3 68 127 123
3 69 75 100
3 69 100 75
3 69 82 100
3 69 100 82
3 70 75 101
3 70 101 75
3 70 83 101
3 70 101 83
3 71 77 98
3 71 98 77
3 71 82 98
3 71 98 82
3 72 76 99
3 72 99 76
3 72 83 99
3 72 99 83
3 75 100 112
3 75 112 100
3 75 101 112
3 75 112 101
3 76 99 110
3 76 110 99
3 77 98 111
3 77 111 98
3 78 105 142
3 78 142 105
3 78 106 143
3 78 143 106
3 78 107 108
3 78 108 107
3 78 107 142
3 78 142 107
3 78 108 143
3 78 143 108
3 79 80 109
3 79 109 80
3 79 80 114
3 79 114 80
3 79 110 144
3 79 144 110
3 79 113 114
3 79 114 113
3 79 113 144
3 79 144 113
3 80 111 145
3 80 145 111
3 80 114 145
3 80 145 114
3 81 132 133
3 81 133 132
3 82 98 117
3 82 117 98
3 82 100 117
3 82 117 100
3 83 99 118
3 83 118 99
3 83 101 118
3 83 118 101
3 84 89 120
3 84 120 89
3 84 94 120
3 84 120 94
3 85 90 121
3 85 121 90
3 85 95 121
3 85 121 95
3 86 87 88
3 86 88 87
3 86 87 89
3 86 89 87
3 86 88 90
3 86 90 88
3 87 88 137
3 87 137 88
3 87 89 128
3 87 128 89
3 87 136 137
3 87 137 136
3 88 90 129
3 88 129 90
3 89 120 128
3 89 128 120
3 90 121 129
3 90 129 121
3 92 93 123
3 92 123 93
3 92 93 148
3 92 148 93
3 92 96 103
3 92 103 96
3 92 96 126
3 92 126 96
3 92 103 148
3 92 148 103
3 92 122 123
3 92 123 122
3 92 122 126
3 92 126 122
3 93 97 104
3 93 104 97
3 93 97 127
3 93 127 97
3 93 104 149
3 93 149 104
3 93 123 127
3 93 127 123
3 93 148 149
3 93 149 148
3 94 105 130
3 94 130 105
3 94 120 130
3 94 130 120
3 95 106 131
3 95 131 106
3 95 121 131
3 95 131 121
3 96 115 126
3 96 126 115
3 97 116 127
3 97 127 116
3 98 111 134
3 98 134 111
3 98 117 134
3 98 134 117
3 99 110 135
3 99 135 110
3 99 118 135
3 99 135 118
3 100 112 138
3 100 138 112
3 100 117 138
3 100 138 117
3 101 112 139
3 101 139 112
3 101 118 139
3 101 139 118
3 102 109 119
3 102 119 109
3 105 130 142
3 105 142 130
3 106 131 143
3 106 143 131
3 109 119 146
3 109 146 119
3 110 135 144
3 110 144 135
3 111 134 145
3 111 145 134
