COFF
60 200 60

-5.63976 0.762268 4.36661 0.5 0.5 0.5 1
-5.63976 -0.762268 4.36661 0.5 0.5 0.5 1
-0.0271685 -1.79077 3.99054 0.5 0.5 0.5 1
6.29575 -0.754046 4.38799 0.5 0.5 0.5 1
6.29575 0.754046 4.38799 0.5 0.5 0.5 1
-0.0271685 1.79077 3.99054 0.5 0.5 0.5 1
1.03923 -1.45088 4.15697 0.5 0.5 0.5 1
1.03923 1.45088 4.15697 0.5 0.5 0.5 1
-1.08982 1.44356 4.11664 0.5 0.5 0.5 1
-1.08982 -1.44356 4.11664 0.5 0.5 0.5 1
1.95014 -1.10983 4.4102 0.5 0.5 0.5 1
1.95014 1.10983 4.4102 0.5 0.5 0.5 1
-2.01085 1.13738 4.3623 0.5 0.5 0.5 1
-2.01085 -1.13738 4.3623 0.5 0.5 0.5 1
3.06059 -0.98218 4.45695 0.5 0.5 0.5 1
3.06059 0.98218 4.45695 0.5 0.5 0.5 1
-3.01672 0.991427 4.3769 0.5 0.5 0.5 1
-3.01672 -0.991427 4.3769 0.5 0.5 0.5 1
4.05503 -0.89746 4.47126 0.5 0.5 0.5 1
4.05503 0.89746 4.47126 0.5 0.5 0.5 1
-4.00783 0.88437 4.38665 0.5 0.5 0.5 1
-4.00783 -0.88437 4.38665 0.5 0.5 0.5 1
5.05826 -0.828796 4.42081 0.5 0.5 0.5 1
5.05826 0.828796 4.42081 0.5 0.5 0.5 1
2.32803 -0.96555 3.39315 0.5 0.5 0.5 1
1.5193 1.17622 2.64805 0.5 0.5 0.5 1
1.5193 -1.17622 2.64805 0.5 0.5 0.5 1
-1.1011 1.38878 3.26248 0.5 0.5 0.5 1
-1.1011 -1.38878 3.26248 0.5 0.5 0.5 1
-1.85555 0.893344 2.30235 0.5 0.5 0.5 1
-1.85555 -0.893344 2.30235 0.5 0.5 0.5 1
1.10721 -1.37014 3.13434 0.5 0.5 0.5 1
1.10721 1.37014 3.13434 0.5 0.5 0.5 1
-2.31444 1.00327 3.35611 0.5 0.5 0.5 1
-2.31444 -1.00327 3.35611 0.5 0.5 0.5 1
-0.000381397 -1.50545 2.91691 0.5 0.5 0.5 1
-0.000381397 1.50545 2.91691 0.5 0.5 0.5 1
2.32803 0.96555 3.39315 0.5 0.5 0.5 1
3.90206 -0.618672 3.41973 1 1 0 1
-0.575996 -1.27082 2.4086 0.5 0.5 0.5 1
-0.575996 1.27082 2.4086 0.5 0.5 0.5 1
-1.54559 -0.615802 1.46062 0.5 0.5 0.5 1
-1.54559 0.615802 1.46062 0.5 0.5 0.5 1
0.802166 1.19376 2.12341 0.5 0.5 0.5 1
0.802166 -1.19376 2.12341 0.5 0.5 0.5 1
3.90206 0.618672 3.41973 1 1 0 1
-3.75417 0.659802 3.50266 1 1 0 1
1.78775 -2.0105e-16 2.52902 0.5 0.5 0.5 1
1.14812 0.804896 1.87816 0.5 0.5 0.5 1
1.14812 -0.804896 1.87816 0.5 0.5 0.5 1
-0.0120323 1.19157 2.05049 0.5 0.5 0.5 1
-0.0120323 -1.19157 2.05049 0.5 0.5 0.5 1
1.2048 -4.17802e-17 1.75339 0.5 0.5 0.5 1
4.76395 -0.670331 3.7806 1 1 0 1
4.76395 0.670331 3.7806 1 1 0 1
-3.75417 -0.659802 3.50266 1 1 0 1
0.00955451 -4.60721e-17 1.0221 1 1 0 1
-4.72811 0.70842 3.9156 0.5 0.5 0.5 1
-4.72811 -0.70842 3.9156 0.5 0.5 0.5 1
-2.32933 -7.28994e-17 3.33856 0.5 0.5 0.5 1

3 0 1 58
3 0 58 1
3 0 20 46
3 0 46 20
3 0 46 57
3 0 57 46
3 0 57 58
3 0 58 57
3 1 21 55
3 1 55 21
3 1 55 58
3 1 58 55
3 2 6 31
3 2 31 6
3 2 9 28
3 2 28 9
3 2 28 35
3 2 35 28
3 2 31 35
3 2 35 31
3 3 4 54
3 3 54 4
3 3 22 53
3 3 53 22
3 3 53 54
3 3 54 53
3 4 23 54
3 4 54 23
3 5 7 32
3 5 32 7
3 5 8 27
3 5 27 8
3 5 27 36
3 5 36 27
3 5 32 36
3 5 36 32
3 6 10 24
3 6 24 10
3 6 24 31
3 6 31 24
3 7 11 37
3 7 37 11
3 7 32 37
3 7 37 32
3 8 12 33
3 8 33 12
3 8 27 33
3 8 33 27
3 9 13 34
3 9 34 13
3 9 28 34
3 9 34 28
3 10 14 24
3 10 24 14
3 11 15 37
3 11 37 15
3 12 16 33
3 12 33 16
3 13 17 34
3 13 34 17
3 14 18 38
3 14 38 18
3 14 24 38
3 14 38 24
3 15 19 45
3 15 45 19
3 15 37 45
3 15 45 37
3 16 20 46
3 16 46 20
3 16 33 46
3 16 46 33
3 17 21 55
3 17 55 21
3 17 34 55
3 17 55 34
3 18 22 38
3 18 38 22
3 19 23 45
3 19 45 23
3 22 38 53
3 22 53 38
3 23 45 54
3 23 54 45
3 24 26 31
3 24 31 26
3 24 26 47
3 24 47 26
3 24 37 45
3 24 45 37
3 24 37 47
3 24 47 37
3 24 38 45
3 24 45 38
3 25 32 37
3 25 37 32
3 25 32 43
3 25 43 32
3 25 37 47
3 25 47 37
3 25 43 48
3 25 48 43
3 25 47 48
3 25 48 47
3 26 31 44
3 26 44 31
3 26 44 49
3 26 49 44
3 26 47 49
3 26 49 47
3 27 33 40
3 27 40 33
3 27 36 40
3 27 40 36
3 28 34 39
3 28 39 34
3 28 35 39
3 28 39 35
3 29 30 41
3 29 41 30
3 29 30 59
3 29 59 30
3 29 33 40
3 29 40 33
3 29 33 59
3 29 59 33
3 29 40 56
3 29 56 40
3 29 41 42
3 29 42 41
3 29 42 56
3 29 56 42
3 30 34 39
3 30 39 34
3 30 34 59
3 30 59 34
3 30 39 56
3 30 56 39
3 30 41 56
3 30 56 41
3 31 35 44
3 31 44 35
3 32 36 43
3 32 43 36
3 33 46 59
3 33 59 46
3 34 55 59
3 34 59 55
3 35 39 51
3 35 51 39
3 35 39 56
3 35 56 39
3 35 44 51
3 35 51 44
3 35 44 56
3 35 56 44
3 36 40 50
3 36 50 40
3 36 40 56
3 36 56 40
3 36 43 50
3 36 50 43
3 36 43 56
3 36 56 43
3 38 45 54
3 38 54 45
3 38 53 54
3 38 54 53
3 39 51 56
3 39 56 51
3 40 50 56
3 40 56 50
3 41 42 56
3 41 56 42
3 43 48 56
3 43 56 48
3 43 50 56
3 43 56 50
3 44 49 56
3 44 56 49
3 44 51 56
3 44 56 51
3 46 55 58
3 46 58 55
3 46 55 59
3 46 59 55
3 46 57 58
3 46 58 57
3 47 48 52
3 47 52 48
3 47 48 56
3 47 56 48
3 47 49 52
3 47 52 49
3 47 49 56
3 47 56 49
3 48 52 56
3 48 56 52
3 49 52 56
3 49 56 52
