COFF
145 564 145

-6.56628 1.11393 6.72675 0.5 0.5 0.5 1
-6.56628 -1.11393 6.72675 0.5 0.5 0.5 1
-0.0315133 -2.21901 6.37113 0.5 0.5 0.5 1
7.55516 -1.20375 6.63675 0.5 0.5 0.5 1
7.55516 1.20375 6.63675 0.5 0.5 0.5 1
-0.0315133 2.21901 6.37113 0.5 0.5 0.5 1
1.14336 -1.89736 6.5156 0.5 0.5 0.5 1
1.14336 1.89736 6.5156 0.5 0.5 0.5 1
-1.16973 1.86219 6.50456 0.5 0.5 0.5 1
-1.16973 -1.86219 6.50456 0.5 0.5 0.5 1
2.04986 -1.57584 6.78951 0.5 0.5 0.5 1
2.04986 1.57584 6.78951 0.5 0.5 0.5 1
-2.08298 1.56505 6.78328 0.5 0.5 0.5 1
-2.08298 -1.56505 6.78328 0.5 0.5 0.5 1
3.02156 -1.6959 6.59054 0.5 0.5 0.5 1
3.02156 1.6959 6.59054 0.5 0.5 0.5 1
-3.04659 1.66926 6.53837 0.5 0.5 0.5 1
-3.04659 -1.66926 6.53837 0.5 0.5 0.5 1
4.01171 -1.82863 6.4277 0.5 0.5 0.5 1
4.01171 1.82863 6.4277 0.5 0.5 0.5 1
-4.06873 1.65449 6.49221 0.5 0.5 0.5 1
-4.06873 -1.65449 6.49221 0.5 0.5 0.5 1
5.08254 -1.87978 6.24948 0.5 0.5 0.5 1
5.08254 1.87978 6.24948 0.5 0.5 0.5 1
-5.09633 1.46486 6.59336 0.5 0.5 0.5 1
-5.09633 -1.46486 6.59336 0.5 0.5 0.5 1
6.16967 -1.60777 6.4861 0.5 0.5 0.5 1
6.16967 1.60777 6.4861 0.5 0.5 0.5 1
8.76075 2.82891e-08 6.64252 0.5 0.5 0.5 1
-7.6817 3.3708e-09 6.73648 0.5 0.5 0.5 1
-1.92559 -0.976301 4.20178 0.5 0.5 0.5 1
1.12989 -1.8124 5.25477 0.5 0.5 0.5 1
1.12989 1.8124 5.25477 0.5 0.5 0.5 1
-2.16605 1.55025 5.59408 0.5 0.5 0.5 1
-2.16604 -1.55025 5.59407 0.5 0.5 0.5 1
0.0444345 -1.93755 4.98584 0.5 0.5 0.5 1
0.0444763 1.93754 4.98584 0.5 0.5 0.5 1
2.38947 1.48705 5.39965 0.5 0.5 0.5 1
4.01025 -0.619558 3.41973 1 1 0 1
-0.89481 -1.79627 4.47425 0.5 0.5 0.5 1
-0.89483 1.79624 4.47423 0.5 0.5 0.5 1
-1.49558 -0.918296 2.80717 0.5 0.5 0.5 1
-1.4955 0.917996 2.80727 0.5 0.5 0.5 1
1.04422 1.78106 4.14356 0.5 0.5 0.5 1
1.04421 -1.78107 4.14355 0.5 0.5 0.5 1
4.01025 0.619558 3.41973 1 1 0 1
-4.1466 0.659374 3.50266 1 1 0 1
1.98376 -1.24505e-08 4.61803 0.5 0.5 0.5 1
1.41777 1.36451 3.77276 0.5 0.5 0.5 1
1.41777 -1.36452 3.77274 0.5 0.5 0.5 1
0.142496 1.83604 3.89898 0.5 0.5 0.5 1
0.142568 -1.83596 3.89898 0.5 0.5 0.5 1
1.61839 -5.34733e-06 3.39636 0.5 0.5 0.5 1
4.87258 -0.671901 3.7806 1 1 0 1
4.87258 0.671901 3.7806 1 1 0 1
-4.1466 -0.659374 3.50266 1 1 0 1
0.15666 -6.96822e-06 1.0221 1 1 0 1
-5.79246 1.27008 5.93005 0.5 0.5 0.5 1
-5.79246 -1.27008 5.93005 0.5 0.5 0.5 1
-2.56467 -3.74887e-06 4.52899 0.5 0.5 0.5 1
-0.665446 -1.61295 3.48366 0.5 0.5 0.5 1
-0.665473 1.61293 3.48358 0.5 0.5 0.5 1
6.85354 -1.36091 5.95891 0.5 0.5 0.5 1
6.85354 1.36091 5.95891 0.5 0.5 0.5 1
2.38947 -1.48705 5.39965 0.5 0.5 0.5 1
1.65446 1.65541 4.77724 0.5 0.5 0.5 1
1.65447 -1.65541 4.77725 0.5 0.5 0.5 1
-1.01715 1.83647 5.45191 1 1 0 1
0.923578 1.63642 3.16105 0.5 0.5 0.5 1
0.92345 -1.63639 3.16108 0.5 0.5 0.5 1
2.38922 3.554e-07 4.97819 0.5 0.5 0.5 1
1.25112 1.13662 2.79768 0.5 0.5 0.5 1
1.25113 -1.13663 2.79768 0.5 0.5 0.5 1
0.238955 1.68924 2.8681 0.5 0.5 0.5 1
0.239035 -1.68927 2.8681 0.5 0.5 0.5 1
4.38357 -1.6846 5.01095 0.5 0.5 0.5 1
4.38357 1.68459 5.01095 0.5 0.5 0.5 1
3.56827 -1.76904 5.72801 0.5 0.5 0.5 1
3.56827 1.76902 5.72801 0.5 0.5 0.5 1
1.39615 -5.645e-06 2.52072 0.5 0.5 0.5 1
-2.91953 1.60412 5.00152 0.5 0.5 0.5 1
-2.91953 -1.60412 5.00152 0.5 0.5 0.5 1
-3.56963 1.66168 5.53019 0.5 0.5 0.5 1
-3.56963 -1.66168 5.53019 0.5 0.5 0.5 1
-0.468649 -1.46547 2.45914 1 1 1 1
-0.468692 1.46537 2.45917 1 1 1 1
-5.0279 1.40355 5.46284 0.5 0.5 0.5 1
-5.0279 -1.40355 5.46284 0.5 0.5 0.5 1
3.70605 -1.78743 5.15453 0.5 0.5 0.5 1
3.70606 1.7874 5.15453 0.5 0.5 0.5 1
5.98808 -1.5477 5.34121 0.5 0.5 0.5 1
5.98808 1.5477 5.34121 0.5 0.5 0.5 1
7.39831 1.67997e-07 5.61414 0.5 0.5 0.5 1
6.83188 -0.713281 4.61028 0.5 0.5 0.5 1
6.83188 0.713281 4.61028 0.5 0.5 0.5 1
6.65038 -1.10119 5.08302 0.5 0.5 0.5 1
6.65038 1.10119 5.08302 0.5 0.5 0.5 1
-4.13906 1.57386 5.30432 0.5 0.5 0.5 1
-4.13906 -1.57386 5.30432 0.5 0.5 0.5 1
-1.57155 -0.510858 1.92716 1 1 1 1
-1.57147 0.510585 1.92713 1 1 1 1
2.69177 1.12377 4.60497 0.5 0.5 0.5 1
2.69177 -1.12377 4.60497 0.5 0.5 0.5 1
-6.29898 -4.92221e-09 5.64132 0.5 0.5 0.5 1
-5.76245 0.64922 4.53772 0.5 0.5 0.5 1
-5.76245 -0.64922 4.53772 0.5 0.5 0.5 1
-5.60549 0.996853 4.97487 0.5 0.5 0.5 1
-5.60549 -0.996853 4.97487 0.5 0.5 0.5 1
0.839911 1.41395 2.20945 1 1 1 1
0.839924 -1.41395 2.20945 1 1 1 1
-1.01714 -1.83647 5.45191 1 1 0 1
5.13749 -1.64334 5.01335 0.5 0.5 0.5 1
5.13749 1.64334 5.01335 0.5 0.5 0.5 1
2.64773 -0.304126 3.94699 0.5 0.5 0.5 1
2.64773 0.304126 3.94699 0.5 0.5 0.5 1
0.176976 1.42677 1.94586 1 1 1 1
0.176986 -1.42678 1.94584 1 1 1 1
-1.92557 0.976315 4.20182 0.5 0.5 0.5 1
3.56744 -1.5713 4.49676 0.5 0.5 0.5 1
3.56744 1.5713 4.49676 0.5 0.5 0.5 1
1.12181 0.854748 1.98822 1 1 1 1
1.12182 -0.854746 1.98822 1 1 1 1
-1.87568 -0.000130757 2.83353 0.5 0.5 0.5 1
-3.69192 1.38112 4.48418 0.5 0.5 0.5 1
-3.69192 -1.38112 4.48418 0.5 0.5 0.5 1
-4.80063 1.18928 4.52597 0.5 0.5 0.5 1
-4.80063 -1.18928 4.52597 0.5 0.5 0.5 1
-0.393243 -0.95922 1.72728 1 1 1 1
-0.393301 0.959135 1.72731 1 1 1 1
5.99155 -1.22563 4.55489 0.5 0.5 0.5 1
5.99155 1.22563 4.55489 0.5 0.5 0.5 1
-3.37353 1.17423 4.22176 0.5 0.5 0.5 1
-3.37353 -1.17423 4.22176 0.5 0.5 0.5 1
6.03124 -0.666276 4.13735 0.5 0.5 0.5 1
6.03124 0.666276 4.13735 0.5 0.5 0.5 1
5.39867 -1.31785 4.58173 0.5 0.5 0.5 1
5.39867 1.31785 4.58173 0.5 0.5 0.5 1
3.84998 -1.36188 4.27865 0.5 0.5 0.5 1
3.84998 1.36188 4.27865 0.5 0.5 0.5 1
-4.99514 0.864218 4.20958 0.5 0.5 0.5 1
-4.99514 -0.864218 4.20958 0.5 0.5 0.5 1
-4.15264 1.14342 4.40355 0.5 0.5 0.5 1
-4.15264 -1.14342 4.40355 0.5 0.5 0.5 1
-0.73141 -0.256553 1.46729 1 1 1 1
-0.731369 0.256407 1.46727 1 1 1 1

3 0 24 57
3 0 57 24
3 0 29 103
3 0 103 29
3 0 57 103
3 0 103 57
3 1 25 58
3 1 58 25
3 1 29 103
3 1 103 29
3 1 58 103
3 1 103 58
3 2 6 31
3 2 31 6
3 2 9 110
3 2 110 9
3 2 31 35
3 2 35 31
3 2 35 110
3 2 110 35
3 3 26 62
3 3 62 26
3 3 28 92
3 3 92 28
3 3 62 92
3 3 92 62
3 4 27 63
3 4 63 27
3 4 28 92
3 4 92 28
3 4 63 92
3 4 92 63
3 5 7 32
3 5 32 7
3 5 8 67
3 5 67 8
3 5 32 36
3 5 36 32
3 5 36 67
3 5 67 36
3 6 10 64
3 6 64 10
3 6 31 64
3 6 64 31
3 7 11 37
3 7 37 11
3 7 32 37
3 7 37 32
3 8 12 33
3 8 33 12
3 8 33 67
3 8 67 33
3 9 13 34
3 9 34 13
3 9 34 110
3 9 110 34
3 10 14 64
3 10 64 14
3 11 15 37
3 11 37 15
3 12 16 33
3 12 33 16
3 13 17 34
3 13 34 17
3 14 18 77
3 14 77 18
3 14 64 77
3 14 77 64
3 15 19 78
3 15 78 19
3 15 37 78
3 15 78 37
3 16 20 82
3 16 82 20
3 16 33 80
3 16 80 33
3 16 80 82
3 16 82 80
3 17 21 83
3 17 83 21
3 17 34 81
3 17 81 34
3 17 81 83
3 17 83 81
3 18 22 75
3 18 75 22
3 18 75 88
3 18 88 75
3 18 77 88
3 18 88 77
3 19 23 76
3 19 76 23
3 19 76 89
3 19 89 76
3 19 78 89
3 19 89 78
3 20 24 86
3 20 86 24
3 20 82 97
3 20 97 82
3 20 86 97
3 20 97 86
3 21 25 87
3 21 87 25
3 21 83 98
3 21 98 83
3 21 87 98
3 21 98 87
3 22 26 90
3 22 90 26
3 22 75 111
3 22 111 75
3 22 90 111
3 22 111 90
3 23 27 91
3 23 91 27
3 23 76 112
3 23 112 76
3 23 91 112
3 23 112 91
3 24 57 86
3 24 86 57
3 25 58 87
3 25 87 58
3 26 62 90
3 26 90 62
3 27 63 91
3 27 91 63
3 30 34 39
3 30 39 34
3 30 34 59
3 30 59 34
3 30 39 60
3 30 60 39
3 30 41 60
3 30 60 41
3 30 41 122
3 30 122 41
3 30 59 117
3 30 117 59
3 30 117 122
3 30 122 117
3 31 35 44
3 31 44 35
3 31 44 66
3 31 66 44
3 31 64 66
3 31 66 64
3 32 36 43
3 32 43 36
3 32 37 65
3 32 65 37
3 32 43 65
3 32 65 43
3 33 40 67
3 33 67 40
3 33 40 117
3 33 117 40
3 33 59 80
3 33 80 59
3 33 59 117
3 33 117 59
3 34 39 110
3 34 110 39
3 34 59 81
3 34 81 59
3 35 39 51
3 35 51 39
3 35 39 110
3 35 110 39
3 35 44 51
3 35 51 44
3 36 40 50
3 36 50 40
3 36 40 67
3 36 67 40
3 36 43 50
3 36 50 43
3 37 47 65
3 37 65 47
3 37 47 70
3 37 70 47
3 37 70 101
3 37 101 70
3 37 78 101
3 37 101 78
3 38 45 54
3 38 54 45
3 38 45 114
3 38 114 45
3 38 53 54
3 38 54 53
3 38 53 75
3 38 75 53
3 38 70 102
3 38 102 70
3 38 70 113
3 38 113 70
3 38 75 88
3 38 88 75
3 38 75 137
3 38 137 75
3 38 88 118
3 38 118 88
3 38 102 118
3 38 118 102
3 38 113 114
3 38 114 113
3 38 118 137
3 38 137 118
3 39 51 60
3 39 60 51
3 40 50 61
3 40 61 50
3 40 61 117
3 40 117 61
3 41 60 84
3 41 84 60
3 41 84 127
3 41 127 84
3 41 99 122
3 41 122 99
3 41 99 127
3 41 127 99
3 42 61 85
3 42 85 61
3 42 61 117
3 42 117 61
3 42 85 128
3 42 128 85
3 42 100 122
3 42 122 100
3 42 100 128
3 42 128 100
3 42 117 122
3 42 122 117
3 43 48 65
3 43 65 48
3 43 48 68
3 43 68 48
3 43 50 68
3 43 68 50
3 44 49 66
3 44 66 49
3 44 49 69
3 44 69 49
3 44 51 69
3 44 69 51
3 45 54 76
3 45 76 54
3 45 70 101
3 45 101 70
3 45 70 114
3 45 114 70
3 45 76 89
3 45 89 76
3 45 76 138
3 45 138 76
3 45 89 119
3 45 119 89
3 45 101 119
3 45 119 101
3 45 119 138
3 45 138 119
3 46 55 59
3 46 59 55
3 46 55 105
3 46 105 55
3 46 59 80
3 46 80 59
3 46 59 131
3 46 131 59
3 46 80 123
3 46 123 80
3 46 97 123
3 46 123 97
3 46 97 125
3 46 125 97
3 46 104 105
3 46 105 104
3 46 104 106
3 46 106 104
3 46 104 139
3 46 139 104
3 46 106 125
3 46 125 106
3 46 123 131
3 46 131 123
3 46 123 141
3 46 141 123
3 46 125 139
3 46 139 125
3 46 125 141
3 46 141 125
3 47 48 52
3 47 52 48
3 47 48 65
3 47 65 48
3 47 49 52
3 47 52 49
3 47 49 66
3 47 66 49
3 47 64 66
3 47 66 64
3 47 64 70
3 47 70 64
3 48 52 71
3 48 71 52
3 48 68 71
3 48 71 68
3 49 52 72
3 49 72 52
3 49 69 72
3 49 72 69
3 50 61 73
3 50 73 61
3 50 68 73
3 50 73 68
3 51 60 74
3 51 74 60
3 51 69 74
3 51 74 69
3 52 71 79
3 52 79 71
3 52 72 79
3 52 79 72
3 53 54 134
3 53 134 54
3 53 75 111
3 53 111 75
3 53 90 111
3 53 111 90
3 53 90 129
3 53 129 90
3 53 93 129
3 53 129 93
3 53 93 133
3 53 133 93
3 53 111 135
3 53 135 111
3 53 129 135
3 53 135 129
3 53 133 134
3 53 134 133
3 54 76 112
3 54 112 76
3 54 91 112
3 54 112 91
3 54 91 130
3 54 130 91
3 54 94 130
3 54 130 94
3 54 94 134
3 54 134 94
3 54 112 136
3 54 136 112
3 54 130 136
3 54 136 130
3 55 59 81
3 55 81 59
3 55 59 132
3 55 132 59
3 55 81 124
3 55 124 81
3 55 98 124
3 55 124 98
3 55 98 126
3 55 126 98
3 55 105 107
3 55 107 105
3 55 105 140
3 55 140 105
3 55 107 126
3 55 126 107
3 55 124 132
3 55 132 124
3 55 124 142
3 55 142 124
3 55 126 140
3 55 140 126
3 55 126 142
3 55 142 126
3 56 71 79
3 56 79 71
3 56 71 108
3 56 108 71
3 56 72 79
3 56 79 72
3 56 72 109
3 56 109 72
3 56 79 120
3 56 120 79
3 56 79 121
3 56 121 79
3 56 99 127
3 56 127 99
3 56 99 143
3 56 143 99
3 56 100 128
3 56 128 100
3 56 100 144
3 56 144 100
3 56 108 115
3 56 115 108
3 56 108 120
3 56 120 108
3 56 109 116
3 56 116 109
3 56 109 121
3 56 121 109
3 56 115 128
3 56 128 115
3 56 116 127
3 56 127 116
3 56 143 144
3 56 144 143
3 57 86 106
3 57 106 86
3 57 103 106
3 57 106 103
3 58 87 107
3 58 107 87
3 58 103 107
3 58 107 103
3 59 80 131
3 59 131 80
3 59 81 132
3 59 132 81
3 60 74 84
3 60 84 74
3 61 73 85
3 61 85 73
3 62 90 95
3 62 95 90
3 62 92 95
3 62 95 92
3 63 91 96
3 63 96 91
3 63 92 96
3 63 96 92
3 64 70 102
3 64 102 70
3 64 77 102
3 64 102 77
3 68 71 108
3 68 108 71
3 68 73 108
3 68 108 73
3 69 72 109
3 69 109 72
3 69 74 109
3 69 109 74
3 70 113 114
3 70 114 113
3 71 79 120
3 71 120 79
3 71 108 120
3 71 120 108
3 72 79 121
3 72 121 79
3 72 109 121
3 72 121 109
3 73 85 115
3 73 115 85
3 73 108 115
3 73 115 108
3 74 84 116
3 74 116 84
3 74 109 116
3 74 116 109
3 75 88 137
3 75 137 88
3 76 89 138
3 76 138 89
3 77 88 118
3 77 118 88
3 77 102 118
3 77 118 102
3 78 89 119
3 78 119 89
3 78 101 119
3 78 119 101
3 80 82 123
3 80 123 82
3 80 123 131
3 80 131 123
3 81 83 124
3 81 124 83
3 81 124 132
3 81 132 124
3 82 97 123
3 82 123 97
3 83 98 124
3 83 124 98
3 84 116 127
3 84 127 116
3 85 115 128
3 85 128 115
3 86 97 125
3 86 125 97
3 86 106 125
3 86 125 106
3 87 98 126
3 87 126 98
3 87 107 126
3 87 126 107
3 88 118 137
3 88 137 118
3 89 119 138
3 89 138 119
3 90 95 129
3 90 129 95
3 90 111 135
3 90 135 111
3 90 129 135
3 90 135 129
3 91 96 130
3 91 130 96
3 91 112 136
3 91 136 112
3 91 130 136
3 91 136 130
3 92 93 94
3 92 94 93
3 92 93 95
3 92 95 93
3 92 94 96
3 92 96 94
3 93 94 134
3 93 134 94
3 93 95 129
3 93 129 95
3 93 133 134
3 93 134 133
3 94 96 130
3 94 130 96
3 97 123 141
3 97 141 123
3 97 125 141
3 97 141 125
3 98 124 142
3 98 142 124
3 98 126 142
3 98 142 126
3 99 100 122
3 99 122 100
3 99 100 144
3 99 144 100
3 99 143 144
3 99 144 143
3 103 104 105
3 103 105 104
3 103 104 106
3 103 106 104
3 103 105 107
3 103 107 105
3 104 106 139
3 104 139 106
3 105 107 140
3 105 140 107
3 106 125 139
3 106 139 125
3 107 126 140
3 107 140 126
